<?xml version="1.0" ?>
<svg xmlns="http://www.w3.org/2000/svg" xmlns:cc="http://creativecommons.org/ns#" xmlns:dc="http://purl.org/dc/elements/1.1/" xmlns:ev="http://www.w3.org/2001/xml-events" xmlns:inkscape="http://www.inkscape.org/namespaces/inkscape" xmlns:rdf="http://www.w3.org/1999/02/22-rdf-syntax-ns#" xmlns:sodipodi="http://sodipodi.sourceforge.net/DTD/sodipodi-0.dtd" xmlns:svg="http://www.w3.org/2000/svg" xmlns:xlink="http://www.w3.org/1999/xlink" baseProfile="full" height="600px" version="1.1" viewBox="0 0 80 80" width="594px" x="0px" y="0px">
	<defs/>
	<path d="M 38.944523,36.081966 C 38.377278,36.080366 38.554902,37.4575 38.902432999999995,38.352376 L 46.660399,58.104591 C 48.672706999999996,60.70882 50.873836,58.974979 53.197533,57.732808 C 53.712058,57.493992 53.850437,56.661653 53.510033,55.764058 L 45.875001,34.15625 L 42.567921,34.272012 L 38.944523,36.081966" fill="#000000" fill-opacity="1" stroke="none" transform="scale(0.8,0.8)"/>
	<path d="M 35.4375,29.84375 C 31.848724,29.84375 28.9375,32.754961 28.9375,36.34375 C 28.9375,39.932526 31.848724,42.84375 35.4375,42.84375 C 39.026281,42.84375 41.9375,39.932526 41.9375,36.34375 C 41.9375,32.754961 39.026281,29.84375 35.4375,29.84375 M 30.875,35.8125 C 30.875,35.8125 31.989531,38.174116 31.21875,38.84375 C 30.923851,39.099946 30.287522,38.901697 30.09375,38.5625 C 29.622298,37.737221 30.875,35.8125 30.875,35.8125" fill="#000000" fill-opacity="1" stroke="none" transform="scale(0.8,0.8)"/>
	<path d="M 38.568591,44.407937 C 38.006512,44.282109 37.424862,44.425497 37.418337,44.739663 L 37.173782,56.513611 C 37.173782,56.513611 37.56743,66.452136 37.764168000000005,71.46064799999999 C 37.84234800000001,71.82222999999999 38.358365000000006,72.02075699999999 38.921348,71.89903699999999 L 42.312031000000005,71.17221599999999 C 42.875019,71.05049799999999 43.25389200000001,70.65116199999999 43.175715000000004,70.28957899999999 L 42.78634,56.847815 L 42.83428,45.952128 C 42.835679999999996,45.637894 42.497341,45.287464 41.935258,45.161632000000004 L 38.568591,44.407937" fill="#000000" fill-opacity="1" stroke="none"/>
	<path d="M 46.25,9.65625 C 45.839356,9.699045 45.486702,9.9720248 45.28125,10.34375 C 45.28455,10.40902 45.27785,10.499426 45.28125,10.5625 C 45.32632,10.667951 45.414936,10.768004 45.46875,10.875 C 45.731169,10.593204 46.07425,10.40625 46.46875,10.40625 L 48.25,10.40625 C 48.556833,10.40625 48.859523,10.509387 49.09375,10.6875 C 48.934011,10.4763 48.711351,10.302001 48.4375,10.21875 L 46.78125,9.71875 C 46.609035,9.6663977 46.417938,9.6387485 46.25,9.65625 M 46.46875,10.59375 C 46.306679,10.59375 46.142639,10.65236 46.0,10.71875 C 45.9917,10.72255 45.97693,10.71475 45.96875,10.71875 C 45.88786,10.75877 45.852522,10.81674 45.78125,10.875 C 45.72094,10.9243 45.645717,10.9705 45.59375,11.03125 C 45.58875,11.03695 45.59865,11.05672 45.59375,11.0625 C 45.58485,11.07325 45.57205,11.0827 45.5625,11.09375 C 46.491506,12.788558 48.289651,14.358701 49.549168,15.465021 L 49.5625,12.15625 C 49.5637,11.848134 49.47516,11.552366 49.34375,11.3125 C 49.33187,11.29021 49.32537,11.27147 49.3125,11.25 C 49.30133,11.23136 49.29319,11.20557 49.28125,11.1875 C 49.22826,11.10823 49.158813,11.034178 49.09375,10.96875 C 49.05525,10.9289 49.01116,10.90967 48.96875,10.875 C 48.92859,10.84302 48.88696,10.80786 48.84375,10.78125 C 48.734651,10.71233 48.622782,10.68677 48.5,10.65625 C 48.41683,10.63558 48.336557,10.59375 48.25,10.59375 L 46.46875,10.59375 M 44.803755,11.762903 L 43.607082000000005,15.656679 L 45.013332000000005,16.067516 L 45.0,12.0625 C 44.999864,12.02152 44.97074,12.0711 44.97334,12.03082 C 44.91477,11.94112 44.860468,11.854867 44.803758,11.762902 L 44.803755,11.762903 M 45.21875,12.329989 L 45.23208,16.183342 L 49.562498000000005,17.571673999999998 L 49.522508,16.821244999999998 C 48.149623,15.548116 46.52944,14.212539 45.21875,12.329989 M 43.34375,16.691658 L 43.09375,17.40625 L 45.0,18.03125 L 45.0,17.244984 L 43.34375,16.691658 M 45.192087,17.312071 L 45.218747,18.09375 L 49.562497,19.46875 L 49.549167,18.669153 L 45.192087,17.312071 M 42.799168,18.361239 L 38.34375,32.96875 C 38.134341,33.657611 38.52989,34.384336 39.21875,34.59375 L 40.875,35.09375 C 41.563861,35.303159 42.290585,34.90761 42.5,34.21875 L 45.0,26.0 L 45.0,19.062071 L 42.799168,18.361239 M 45.205418,19.155821 L 45.218748000000005,25.28125 L 45.218748000000005,39.75 C 45.218748000000005,40.599976 45.811261,41.3125 46.531248000000005,41.3125 L 48.249998000000005,41.3125 C 48.96998500000001,41.3125 49.562498000000005,40.599976 49.562498000000005,39.75 L 49.549168,20.526234 L 45.205418,19.155821" fill="#000000" fill-opacity="1" stroke="none" transform="scale(0.8,0.8)"/>
	<path d="M 34.481289,14.10528 L 34.34265,14.572154000000001 L 39.579032999999995,16.226373000000002 L 39.600353,15.727503000000002 L 34.481289,14.10528" display="inline" fill="#000000" fill-opacity="1" marker="none" overflow="visible" stroke="none" style="text-indent:0;text-transform:none;direction:ltr;block-progression:tb;baseline-shift:baseline;color:#000000;enable-background:accumulate;" visibility="visible"/>
	<path d="M 34.868335,12.767314 L 34.750554,13.181145 L 39.574483,14.685767 L 39.553613,14.23994 L 34.868335,12.767314" display="inline" fill="#000000" fill-opacity="1" marker="none" overflow="visible" stroke="none" style="text-indent:0;text-transform:none;direction:ltr;block-progression:tb;baseline-shift:baseline;color:#000000;enable-background:accumulate;" visibility="visible"/>
	<path d="M 35.408912,0.270851 L 35.594866,8.541275500000001 C 36.457049000000005,10.448193000000002 38.479844,12.217220000000001 39.551375,13.183427000000002 L 39.644685,12.646964000000002 C 39.644685,12.646964000000002 36.694003,10.185934000000003 36.023128,8.462644100000002 C 35.984918,6.700009800000002 35.980648,0.28950780000000265 35.980648,0.28950780000000265 L 35.408912,0.270851" display="inline" fill="#000000" fill-opacity="1" marker="none" overflow="visible" stroke="none" style="text-indent:0;text-transform:none;direction:ltr;block-progression:tb;baseline-shift:baseline;color:#000000;enable-background:accumulate;" visibility="visible"/>
	<path d="M 0.83607016,73.025401 L 79.02611800000001,73.025401 L 79.02611800000001,79.375983 L 0.8360701600000056,79.375983 L 0.83607016,73.025401" fill="#000000" fill-opacity="1" stroke="none"/>
	<path d="M 23.776591,32.898078 C 23.776591,32.898078 22.525611,34.822961 22.998608,35.650942 C 23.193014,35.991249 23.839797,36.207202 24.13566,35.950166 C 24.908966000000003,35.27834 23.776591,32.898078000000005 23.776591,32.898078000000005 L 23.776591,32.898078" fill="#000000" stroke="none"/>
	<path d="M 25.203852,42.271991 C 25.203852,42.271991 23.952872000000003,44.196874 24.425869000000002,45.024855 C 24.620275000000003,45.365162000000005 25.267058000000002,45.581115000000004 25.562921000000003,45.324079000000005 C 26.336227000000004,44.652253 25.203852,42.27199100000001 25.203852,42.27199100000001 L 25.203852,42.271991" fill="#000000" stroke="none"/>
</svg>
