<?xml version="1.0" ?>
<svg xmlns="http://www.w3.org/2000/svg" xmlns:ev="http://www.w3.org/2001/xml-events" xmlns:xlink="http://www.w3.org/1999/xlink" baseProfile="full" enable-background="new 0 0 70.956 100" height="600px" version="1.1" viewBox="0 0 70.956 100" width="426px" x="0px" xml:space="preserve" y="0px">
	<defs/>
	<path d="M 70.956,35.477 C 70.956,15.915 55.04,0.0 35.478,0.0 C 15.916000000000004,0.0 0.0,15.915 0.0,35.477 L 0.0,52.525999999999996 L 2.706,52.525999999999996 L 2.706,89.478 C 2.706,95.378 17.101,100.0 35.479,100.0 C 53.855999999999995,100.0 68.25,95.378 68.25,89.479 L 68.25,52.526 L 70.956,52.526 L 70.956,35.477 M 35.509,45.829 C 16.454,45.829 4.754000000000001,40.879 4.754000000000001,37.33 L 4.722,37.33 C 4.722,33.78 16.423000000000002,28.83 35.479,28.83 C 54.535,28.83 66.235,33.78 66.235,37.33 L 66.266,37.33 C 66.266,40.878 54.564,45.829 35.509,45.829 M 35.478,3.024 C 52.84,3.024 67.06,16.728 67.89099999999999,33.887 C 63.49199999999999,28.615000000000002 49.13199999999999,25.805 35.47899999999999,25.805 C 21.824999999999992,25.805 7.4639999999999915,28.615 3.0649999999999906,33.888 C 3.896,16.729 18.116,3.024 35.478,3.024"/>
</svg>
