<?xml version="1.0" ?>
<svg xmlns="http://www.w3.org/2000/svg" xmlns:ev="http://www.w3.org/2001/xml-events" xmlns:xlink="http://www.w3.org/1999/xlink" baseProfile="full" enable-background="new 0 0 99.999 37.964" height="229px" version="1.1" viewBox="0 0 99.999 37.964" width="600px" x="0px" xml:space="preserve" y="0px">
	<defs/>
	<path clip-rule="evenodd" d="M 98.007,25.92 C 98.033,25.519000000000002 98.141,24.956000000000003 97.659,24.635 C 97.364,24.529 96.989,24.69 96.58800000000001,24.904 C 96.48200000000001,24.797 96.29400000000001,24.635 96.29400000000001,24.635 C 96.29400000000001,24.635 96.48200000000001,23.886000000000003 96.10600000000001,23.512 C 95.73100000000001,23.137 95.08800000000001,23.457 94.98200000000001,23.672 C 94.82200000000002,23.672 94.68700000000001,23.457 94.68700000000001,23.457 C 94.68700000000001,23.457 94.87500000000001,22.922 94.44700000000002,22.44 C 94.01900000000002,21.958000000000002 93.32300000000002,22.494 93.32300000000002,22.494 L 93.02800000000002,22.28 C 93.02800000000002,22.28 93.07300000000002,21.563000000000002 92.78800000000003,21.290000000000003 C 92.56500000000003,21.076000000000004 92.09300000000003,20.941000000000003 91.71800000000003,21.343000000000004 C 91.53000000000003,21.156000000000002 91.28900000000003,21.049000000000003 91.28900000000003,21.049000000000003 C 91.28900000000003,21.049000000000003 91.55700000000003,20.407000000000004 91.04800000000003,19.979000000000003 C 90.54000000000003,19.551000000000002 89.95000000000003,20.113000000000003 89.95000000000003,20.113000000000003 L 89.63000000000004,19.819000000000003 C 89.63000000000004,19.819000000000003 89.97800000000004,19.096000000000004 89.36200000000004,18.695000000000004 C 88.74600000000004,18.294000000000004 88.29200000000004,18.856000000000005 88.29200000000004,18.856000000000005 L 87.99700000000004,18.668000000000006 C 87.99700000000004,18.668000000000006 88.29200000000004,17.919000000000008 87.80900000000004,17.598000000000006 C 87.32800000000005,17.277000000000005 86.68500000000004,17.732000000000006 86.68500000000004,17.732000000000006 L 85.61500000000005,16.902000000000008 C 85.61500000000005,16.902000000000008 85.40100000000005,16.92900000000001 85.34700000000005,17.090000000000007 C 85.29300000000005,17.25100000000001 84.34200000000006,19.116000000000007 82.47600000000006,18.91700000000001 C 82.39900000000006,18.82500000000001 82.38400000000006,18.936000000000007 82.38400000000006,18.936000000000007 L 81.94400000000006,18.936000000000007 L 81.94400000000006,18.777000000000008 L 43.12900000000006,18.134000000000007 C 43.12900000000006,18.134000000000007 41.515000000000065,18.180000000000007 40.78100000000006,15.182000000000007 C 40.689000000000064,14.907000000000007 40.280000000000065,13.133000000000008 38.353000000000065,13.377000000000008 C 36.42500000000007,13.622000000000007 30.111000000000065,14.585000000000008 29.010000000000066,14.570000000000007 C 27.909000000000066,14.555000000000007 27.176000000000066,14.173000000000007 25.294000000000064,13.132000000000007 C 23.413,12.091 1.009,0.056 1.009,0.056 C 1.009,0.056 0.138,-0.251 0.0,0.575 C 0.0,0.575 0.214,16.9 12.043,36.330000000000005 C 12.363999999999999,36.745000000000005 12.684999999999999,37.054 13.729,36.705000000000005 C 14.773,36.357000000000006 24.942999999999998,32.718 27.78,31.727000000000004 C 27.994,31.647000000000006 28.824,31.566000000000003 29.654,31.807000000000002 C 30.483999999999998,32.048 48.575,37.963 48.575,37.963 C 48.575,37.963 50.742000000000004,38.364000000000004 50.261,36.035000000000004 C 49.565000000000005,34.376000000000005 42.741,28.247000000000003 42.312000000000005,27.069000000000003 C 42.232000000000006,26.159000000000002 42.874,24.982000000000003 43.864000000000004,24.661 C 44.212,24.607000000000003 45.042,24.206000000000003 45.25600000000001,24.018 C 45.470000000000006,23.804000000000002 46.32600000000001,23.697 46.48700000000001,23.697 C 46.64800000000001,23.697 82.56400000000001,23.242 82.56400000000001,23.242 C 82.56400000000001,23.242 83.099,23.216 83.44800000000001,23.403000000000002 C 83.795,23.591 84.97300000000001,24.045 86.23,24.393 C 87.489,24.741 90.941,25.918 92.494,26.802 C 94.046,27.684 96.561,29.104 98.221,30.573999999999998 C 98.516,30.761999999999997 99.291,31.083 99.96000000000001,29.932 C 100.067,29.693 100.094,27.74 98.007,25.92 M 12.327,27.92 C 11.635,27.92 11.073,27.358 11.073,26.665000000000003 C 11.073,25.973000000000003 11.635,25.411 12.327,25.411 C 13.019,25.411 13.581,25.973000000000003 13.581,26.665000000000003 C 13.581,27.358 13.019,27.92 12.327,27.92 M 16.823,29.525 C 16.13,29.525 15.569,28.962999999999997 15.569,28.27 C 15.569,27.579 16.131,27.017 16.823,27.017 C 17.515,27.017 18.077,27.579 18.077,28.27 C 18.077,28.964 17.516,29.525 16.823,29.525 M 21.212,31.024 C 20.519,31.024 19.958,30.462 19.958,29.769000000000002 C 19.958,29.077 20.519,28.515 21.212,28.515 C 21.904,28.515 22.466,29.077 22.466,29.769000000000002 C 22.466,30.463 21.904,31.024 21.212,31.024 M 86.516,19.686 C 86.25,19.682 86.03800000000001,19.462 86.042,19.196 C 86.047,18.93 86.267,18.718 86.532,18.723000000000003 C 86.797,18.728000000000005 87.00999999999999,18.947000000000003 87.006,19.213 C 87.001,19.479 86.781,19.69 86.516,19.686 M 88.208,20.893 C 87.942,20.889 87.73,20.668 87.734,20.403000000000002 C 87.73899999999999,20.137 87.95899999999999,19.925 88.22399999999999,19.930000000000003 C 88.48899999999999,19.935000000000006 88.70199999999998,20.154000000000003 88.698,20.42 C 88.693,20.685 88.474,20.897 88.208,20.893 M 89.795,21.991 C 89.528,21.986 89.31700000000001,21.766 89.321,21.501 C 89.326,21.235 89.54599999999999,21.022000000000002 89.81099999999999,21.027 C 90.076,21.032 90.28899999999999,21.252000000000002 90.28399999999999,21.517 C 90.28,21.784 90.061,21.996 89.795,21.991 M 91.486,23.198 C 91.22,23.193 91.009,22.973 91.013,22.708000000000002 C 91.018,22.442 91.23700000000001,22.23 91.50200000000001,22.234 C 91.769,22.239 91.98100000000001,22.459000000000003 91.97600000000001,22.724 C 91.973,22.99 91.753,23.202 91.486,23.198 M 93.179,24.405 C 92.913,24.400000000000002 92.702,24.181 92.706,23.915000000000003 C 92.711,23.649 92.93,23.436000000000003 93.19500000000001,23.441000000000003 C 93.462,23.446 93.674,23.666000000000004 93.66900000000001,23.931 C 93.665,24.197 93.445,24.41 93.179,24.405 M 94.871,25.612 C 94.604,25.607 94.393,25.386999999999997 94.39699999999999,25.122 C 94.40299999999999,24.856 94.62199999999999,24.644 94.88699999999999,24.648 C 95.15399999999998,24.653 95.36599999999999,24.873 95.36099999999999,25.137999999999998 C 95.357,25.404 95.138,25.616 94.871,25.612 M 96.563,26.819 C 96.296,26.814 96.08500000000001,26.595 96.089,26.329 C 96.094,26.063000000000002 96.313,25.85 96.579,25.855 C 96.845,25.86 97.05699999999999,26.080000000000002 97.05199999999999,26.345 C 97.049,26.612 96.829,26.824 96.563,26.819" fill-rule="evenodd"/>
</svg>
