<?xml version="1.0" ?>
<svg xmlns="http://www.w3.org/2000/svg" xmlns:ev="http://www.w3.org/2001/xml-events" xmlns:xlink="http://www.w3.org/1999/xlink" baseProfile="full" enable-background="new 0 0 100 100" height="600px" version="1.1" viewBox="0 0 100 100" width="462px" x="0px" xml:space="preserve" y="0px">
	<defs/>
	<path d="M 18.063,39.65 C 22.448999999999998,47.509 35.607,71.086 39.992999999999995,78.94399999999999 C 48.76499999999999,94.66199999999999 64.482,85.88999999999999 64.482,85.88999999999999 L 55.711,70.17199999999998 L 33.782,30.878 L 25.01,15.16 C 25.01,15.16 9.292,23.932 18.063,39.65" fill="#000000"/>
	<path d="M 27.818,13.376 L 45.818,13.376 L 45.818,24.377 L 27.818,24.377 L 27.818,13.376" fill="#000000" height="11.001" transform="matrix(-0.4873 -0.8732 0.8732 -0.4873 38.2767 60.2256)" width="18" x="27.818" y="13.376"/>
	<path d="M 62.02,64.889 L 73.019,64.889 L 73.019,82.89 L 62.02,82.89 L 62.02,64.889" fill="#000000" height="18.001" transform="matrix(-0.8732 0.4873 -0.4873 -0.8732 162.4887 105.5043)" width="10.999" x="62.02" y="64.889"/>
</svg>
