<?xml version="1.0" ?>
<svg xmlns="http://www.w3.org/2000/svg" xmlns:ev="http://www.w3.org/2001/xml-events" xmlns:xlink="http://www.w3.org/1999/xlink" baseProfile="full" enable-background="new 0 0 100 100" height="600px" version="1.1" viewBox="0 0 100 100" width="544px" x="0px" xml:space="preserve" y="0px">
	<defs/>
	<path d="M 80.43,62.0 C 80.43,62.0 76.0,61.714 76.0,57.143 L 76.0,57.43 C 73.229,27.866 58.449,20.357 50.071,20.357 C 41.693,20.357 26.456,27.865 23.919999999999998,56.93 L 24.0,57.143 C 24.0,57.143 24.143,62.0 19.570999999999998,62.0 L 18.0,62.0 L 18.0,71.0 L 82.0,71.0 L 82.0,62.0 L 80.43,62.0"/>
	<path d="M 50.0,84.143 C 55.055,84.143 59.143,80.0 59.143,75.0 L 40.857,75.0 C 40.857,80.0 44.946,84.143 50.0,84.143"/>
	<path cx="50" cy="18" d="M 45.429,18.0 A 4.571,4.571 0.0 1,0 54.571,18.0 A 4.571,4.571 0.0 1,0 45.429,18.0" r="4.571"/>
</svg>
