<?xml version="1.0" ?>
<svg xmlns="http://www.w3.org/2000/svg" xmlns:cc="http://creativecommons.org/ns#" xmlns:dc="http://purl.org/dc/elements/1.1/" xmlns:ev="http://www.w3.org/2001/xml-events" xmlns:inkscape="http://www.inkscape.org/namespaces/inkscape" xmlns:rdf="http://www.w3.org/1999/02/22-rdf-syntax-ns#" xmlns:sodipodi="http://sodipodi.sourceforge.net/DTD/sodipodi-0.dtd" xmlns:svg="http://www.w3.org/2000/svg" xmlns:xlink="http://www.w3.org/1999/xlink" baseProfile="full" height="591px" version="1.1" viewBox="0 0 80 80" width="600px" x="0px" y="0px">
	<defs/>
	<path d="M 19.723574,38.552425 L 19.723574,38.828852 L 19.723574,77.528525 L 19.723574,77.804951 L 20.0,77.804951 L 25.528525000000002,77.804951 L 25.804951000000003,77.804951 L 25.804951000000003,77.528525 L 25.804951000000003,38.828852000000005 L 25.804951000000003,38.55242500000001 L 25.528525000000002,38.55242500000001 L 20.0,38.55242500000001 L 19.723574,38.55242500000001 L 19.723574,38.552425 M 20.276426999999998,39.105278 L 25.252097999999997,39.105278 L 25.252097999999997,77.25209799999999 L 20.276426999999998,77.25209799999999 L 20.276426999999998,39.10527799999999 L 20.276426999999998,39.105278" display="inline" fill="#000000" fill-opacity="1" marker="none" overflow="visible" stroke="none" style="text-indent:0;text-transform:none;direction:ltr;block-progression:tb;baseline-shift:baseline;color:#000000;enable-background:accumulate;" visibility="visible"/>
	<path d="M 20.0,44.09375 L 20.0,44.625 L 25.53125,44.625 L 25.53125,44.09375 L 20.0,44.09375" display="inline" fill="#000000" fill-opacity="1" marker="none" overflow="visible" stroke="none" style="text-indent:0;text-transform:none;direction:ltr;block-progression:tb;baseline-shift:baseline;color:#000000;enable-background:accumulate;" visibility="visible"/>
	<path d="M 20.0,49.625 L 20.0,50.15625 L 25.53125,50.15625 L 25.53125,49.625 L 20.0,49.625" display="inline" fill="#000000" fill-opacity="1" marker="none" overflow="visible" stroke="none" style="text-indent:0;text-transform:none;direction:ltr;block-progression:tb;baseline-shift:baseline;color:#000000;enable-background:accumulate;" visibility="visible"/>
	<path d="M 20.0,55.125 L 20.0,55.6875 L 25.53125,55.6875 L 25.53125,55.125 L 20.0,55.125" display="inline" fill="#000000" fill-opacity="1" marker="none" overflow="visible" stroke="none" style="text-indent:0;text-transform:none;direction:ltr;block-progression:tb;baseline-shift:baseline;color:#000000;enable-background:accumulate;" visibility="visible"/>
	<path d="M 20.0,60.65625 L 20.0,61.21875 L 25.53125,61.21875 L 25.53125,60.65625 L 20.0,60.65625" display="inline" fill="#000000" fill-opacity="1" marker="none" overflow="visible" stroke="none" style="text-indent:0;text-transform:none;direction:ltr;block-progression:tb;baseline-shift:baseline;color:#000000;enable-background:accumulate;" visibility="visible"/>
	<path d="M 20.0,66.1875 L 20.0,66.75 L 25.53125,66.75 L 25.53125,66.1875 L 20.0,66.1875" display="inline" fill="#000000" fill-opacity="1" marker="none" overflow="visible" stroke="none" style="text-indent:0;text-transform:none;direction:ltr;block-progression:tb;baseline-shift:baseline;color:#000000;enable-background:accumulate;" visibility="visible"/>
	<path d="M 20.0,71.71875 L 20.0,72.28125 L 25.53125,72.28125 L 25.53125,71.71875 L 20.0,71.71875" display="inline" fill="#000000" fill-opacity="1" marker="none" overflow="visible" stroke="none" style="text-indent:0;text-transform:none;direction:ltr;block-progression:tb;baseline-shift:baseline;color:#000000;enable-background:accumulate;" visibility="visible"/>
	<path d="M 20.0,71.71875 L 20.0,72.28125 L 25.53125,72.28125 L 25.53125,71.71875 L 20.0,71.71875" display="inline" fill="#000000" fill-opacity="1" marker="none" overflow="visible" stroke="none" style="text-indent:0;text-transform:none;direction:ltr;block-progression:tb;baseline-shift:baseline;color:#000000;enable-background:accumulate;" visibility="visible"/>
	<path d="M 20.1875,38.625 L 19.8125,39.03125 L 24.875,44.375 L 19.8125,49.6875 L 20.1875,50.0625 L 25.46875,44.5625 L 25.65625,44.34375 L 25.46875,44.15625 L 20.1875,38.625" display="inline" fill="#000000" fill-opacity="1" marker="none" overflow="visible" stroke="none" style="text-indent:0;text-transform:none;direction:ltr;block-progression:tb;baseline-shift:baseline;color:#000000;enable-background:accumulate;" visibility="visible"/>
	<path d="M 20.375,49.6875 L 19.96875,50.0625 L 24.9375,55.40625 L 19.96875,60.75 L 19.8125,60.9375 L 19.96875,61.125 L 25.0,66.53125 L 19.8125,71.8125 L 20.1875,72.1875 L 25.59375,66.71875 L 25.78125,66.53125 L 25.59375,66.34375 L 20.5625,60.9375 L 25.53125,55.59375 L 25.6875,55.40625 L 25.53125,55.21875 L 20.375,49.6875" display="inline" fill="#000000" fill-opacity="1" marker="none" overflow="visible" stroke="none" style="text-indent:0;text-transform:none;direction:ltr;block-progression:tb;baseline-shift:baseline;color:#000000;enable-background:accumulate;" visibility="visible"/>
	<path d="M 20.1875,72.34375 L 19.8125,72.75 L 25.34375,77.71875 L 25.71875,77.3125 L 20.1875,72.34375" display="inline" fill="#000000" fill-opacity="1" marker="none" overflow="visible" stroke="none" style="text-indent:0;text-transform:none;direction:ltr;block-progression:tb;baseline-shift:baseline;color:#000000;enable-background:accumulate;" visibility="visible"/>
	<path d="M 21.105705,37.723145 L 24.42282,37.723145 L 24.42282,38.828849000000005 L 21.105705,38.828849000000005 L 21.105705,37.723145" fill="#000000" stroke="none"/>
	<path d="M 25.0625,26.46875 L 25.0625,26.71875 L 25.0625,36.8125 L 25.0625,37.0625 L 25.28125,37.0625 L 31.9375,37.0625 L 32.09375,37.0625 L 32.15625,36.9375 L 34.21875,32.625 L 34.25,32.53125 L 34.21875,32.4375 L 32.15625,26.625 L 32.09375,26.46875 L 31.9375,26.46875 L 25.28125,26.46875 L 25.0625,26.46875 M 25.53125,26.9375 L 31.75,26.9375 L 33.75,32.5 L 31.78125,36.59375 L 25.53125,36.59375 L 25.53125,26.9375" display="inline" fill="#000000" fill-opacity="1" marker="none" overflow="visible" stroke="none" style="text-indent:0;text-transform:none;direction:ltr;block-progression:tb;baseline-shift:baseline;color:#000000;enable-background:accumulate;" visibility="visible"/>
	<path d="M 2.40625,25.375 L 2.40625,25.84375 L 70.40625,25.84375 L 70.40625,25.375 L 2.40625,25.375" display="inline" fill="#000000" fill-opacity="1" marker="none" overflow="visible" stroke="none" style="text-indent:0;text-transform:none;direction:ltr;block-progression:tb;baseline-shift:baseline;color:#000000;enable-background:accumulate;" visibility="visible"/>
	<path d="M 21.125,33.53125 L 21.125,34.03125 L 24.3125,34.03125 L 24.3125,33.53125 L 21.125,33.53125" display="inline" fill="#000000" fill-opacity="1" marker="none" overflow="visible" stroke="none" style="text-indent:0;text-transform:none;direction:ltr;block-progression:tb;baseline-shift:baseline;color:#000000;enable-background:accumulate;" visibility="visible"/>
	<path d="M 21.125,26.118495 A 0.24002401,0.24002401 0.0 0,0 21.0625,26.149745 A 0.24002401,0.24002401 0.0 0,0 20.9375,26.368495 L 20.9375,37.274744999999996 A 0.24002401,0.24002401 0.0 0,0 21.03125,37.462244999999996 A 0.24002401,0.24002401 0.0 0,0 21.0625,37.493494999999996 A 0.24002401,0.24002401 0.0 0,0 21.15625,37.524744999999996 A 0.24002401,0.24002401 0.0 0,0 21.1875,37.524744999999996 L 24.375,37.524744999999996 A 0.24002401,0.24002401 0.0 0,0 24.46875,37.493494999999996 A 0.24002401,0.24002401 0.0 0,0 24.53125,37.462244999999996 A 0.24002401,0.24002401 0.0 0,0 24.59375,37.399744999999996 A 0.24002401,0.24002401 0.0 0,0 24.625,37.305994999999996 A 0.24002401,0.24002401 0.0 0,0 24.625,37.274744999999996 L 24.625,26.368494999999996 A 0.24002401,0.24002401 0.0 0,0 24.5,26.149744999999996 A 0.24002401,0.24002401 0.0 0,0 24.4375,26.118494999999996 A 0.24002401,0.24002401 0.0 0,0 24.375,26.118494999999996 L 21.1875,26.118494999999996 A 0.24002401,0.24002401 0.0 0,0 21.125,26.118494999999996 L 21.125,26.118495 M 21.4375,26.587245 L 24.15625,26.587245 L 24.15625,37.024744999999996 L 21.4375,37.024744999999996 L 21.4375,26.587244999999996 L 21.4375,26.587245" display="inline" fill="#000000" fill-opacity="1" marker="none" overflow="visible" stroke="none" style="text-indent:0;text-transform:none;direction:ltr;block-progression:tb;baseline-shift:baseline;color:#000000;enable-background:accumulate;" visibility="visible"/>
	<path d="M 21.1875,27.125 L 21.1875,27.59375 C 21.759235,27.59375 24.34375,27.625 24.34375,27.625 L 24.34375,27.15625 C 24.34375,27.15625 21.767613,27.125 21.1875,27.125" display="inline" fill="#000000" fill-opacity="1" marker="none" overflow="visible" stroke="none" style="text-indent:0;text-transform:none;direction:ltr;block-progression:tb;baseline-shift:baseline;color:#000000;enable-background:accumulate;" visibility="visible"/>
	<path d="M 21.125,28.75 L 21.125,29.21875 L 24.40625,29.21875 L 24.40625,28.75 L 21.125,28.75" display="inline" fill="#000000" fill-opacity="1" marker="none" overflow="visible" stroke="none" style="text-indent:0;text-transform:none;direction:ltr;block-progression:tb;baseline-shift:baseline;color:#000000;enable-background:accumulate;" visibility="visible"/>
	<path d="M 21.125,30.34375 L 21.125,30.8125 L 24.4375,30.8125 L 24.4375,30.34375 L 21.125,30.34375" display="inline" fill="#000000" fill-opacity="1" marker="none" overflow="visible" stroke="none" style="text-indent:0;text-transform:none;direction:ltr;block-progression:tb;baseline-shift:baseline;color:#000000;enable-background:accumulate;" visibility="visible"/>
	<path d="M 21.125,31.9375 L 21.125,32.40625 L 24.34375,32.40625 L 24.34375,31.9375 L 21.125,31.9375" display="inline" fill="#000000" fill-opacity="1" marker="none" overflow="visible" stroke="none" style="text-indent:0;text-transform:none;direction:ltr;block-progression:tb;baseline-shift:baseline;color:#000000;enable-background:accumulate;" visibility="visible"/>
	<path d="M 21.125,35.15625 L 21.125,35.625 L 24.34375,35.625 L 24.34375,35.15625 L 21.125,35.15625" display="inline" fill="#000000" fill-opacity="1" marker="none" overflow="visible" stroke="none" style="text-indent:0;text-transform:none;direction:ltr;block-progression:tb;baseline-shift:baseline;color:#000000;enable-background:accumulate;" visibility="visible"/>
	<path d="M 21.125,35.9375 L 21.125,36.40625 L 24.375,36.40625 L 24.375,35.9375 L 21.125,35.9375" display="inline" fill="#000000" fill-opacity="1" marker="none" overflow="visible" stroke="none" style="text-indent:0;text-transform:none;direction:ltr;block-progression:tb;baseline-shift:baseline;color:#000000;enable-background:accumulate;" visibility="visible"/>
	<path d="M 32.8,19.75 L 32.8,20.25 L 65.69999999999999,20.35 L 65.69999999999999,19.875 L 32.79999999999999,19.75 L 32.8,19.75" display="inline" fill="#000000" fill-opacity="1" marker="none" overflow="visible" stroke="none" style="text-indent:0;text-transform:none;direction:ltr;block-progression:tb;baseline-shift:baseline;color:#000000;enable-background:accumulate;" visibility="visible"/>
	<path d="M 65.5625,19.90625 L 65.1875,20.21875 L 69.9375,25.75 L 70.28125,25.4375 L 65.5625,19.90625" display="inline" fill="#000000" fill-opacity="1" marker="none" overflow="visible" stroke="none" style="text-indent:0;text-transform:none;direction:ltr;block-progression:tb;baseline-shift:baseline;color:#000000;enable-background:accumulate;" visibility="visible"/>
	<path d="M 57.5625,19.875 L 57.1875,20.1875 L 61.9375,25.71875 L 62.28125,25.40625 L 57.5625,19.875" display="inline" fill="#000000" fill-opacity="1" marker="none" overflow="visible" stroke="none" style="text-indent:0;text-transform:none;direction:ltr;block-progression:tb;baseline-shift:baseline;color:#000000;enable-background:accumulate;" visibility="visible"/>
	<path d="M 49.5625,19.84375 L 49.1875,20.15625 L 53.9375,25.6875 L 54.28125,25.375 L 49.5625,19.84375" display="inline" fill="#000000" fill-opacity="1" marker="none" overflow="visible" stroke="none" style="text-indent:0;text-transform:none;direction:ltr;block-progression:tb;baseline-shift:baseline;color:#000000;enable-background:accumulate;" visibility="visible"/>
	<path d="M 41.5625,19.84375 L 41.1875,20.15625 L 45.9375,25.6875 L 46.28125,25.375 L 41.5625,19.84375" display="inline" fill="#000000" fill-opacity="1" marker="none" overflow="visible" stroke="none" style="text-indent:0;text-transform:none;direction:ltr;block-progression:tb;baseline-shift:baseline;color:#000000;enable-background:accumulate;" visibility="visible"/>
	<path d="M 33.5625,19.875 L 33.1875,20.1875 L 37.9375,25.71875 L 38.28125,25.40625 L 33.5625,19.875" display="inline" fill="#000000" fill-opacity="1" marker="none" overflow="visible" stroke="none" style="text-indent:0;text-transform:none;direction:ltr;block-progression:tb;baseline-shift:baseline;color:#000000;enable-background:accumulate;" visibility="visible"/>
	<path d="M 33.125,19.84375 L 28.375,25.375 L 28.75,25.6875 L 33.5,20.15625 L 33.125,19.84375" display="inline" fill="#000000" fill-opacity="1" marker="none" overflow="visible" stroke="none" style="text-indent:0;text-transform:none;direction:ltr;block-progression:tb;baseline-shift:baseline;color:#000000;enable-background:accumulate;" visibility="visible"/>
	<path d="M 41.125,19.875 L 36.375,25.40625 L 36.75,25.71875 L 41.5,20.1875 L 41.125,19.875" display="inline" fill="#000000" fill-opacity="1" marker="none" overflow="visible" stroke="none" style="text-indent:0;text-transform:none;direction:ltr;block-progression:tb;baseline-shift:baseline;color:#000000;enable-background:accumulate;" visibility="visible"/>
	<path d="M 49.125,19.84375 L 44.375,25.375 L 44.75,25.6875 L 49.5,20.15625 L 49.125,19.84375" display="inline" fill="#000000" fill-opacity="1" marker="none" overflow="visible" stroke="none" style="text-indent:0;text-transform:none;direction:ltr;block-progression:tb;baseline-shift:baseline;color:#000000;enable-background:accumulate;" visibility="visible"/>
	<path d="M 57.125,19.84375 L 52.375,25.375 L 52.75,25.6875 L 57.5,20.15625 L 57.125,19.84375" display="inline" fill="#000000" fill-opacity="1" marker="none" overflow="visible" stroke="none" style="text-indent:0;text-transform:none;direction:ltr;block-progression:tb;baseline-shift:baseline;color:#000000;enable-background:accumulate;" visibility="visible"/>
	<path d="M 65.125,20.0 L 60.375,25.5 L 60.75,25.8125 L 65.5,20.3125 L 65.125,20.0" display="inline" fill="#000000" fill-opacity="1" marker="none" overflow="visible" stroke="none" style="text-indent:0;text-transform:none;direction:ltr;block-progression:tb;baseline-shift:baseline;color:#000000;enable-background:accumulate;" visibility="visible"/>
	<path d="M 7.1875,19.8125 L 7.1875,20.28125 L 21.59375,20.28125 L 21.59375,19.8125 L 7.1875,19.8125" display="inline" fill="#000000" fill-opacity="1" marker="none" overflow="visible" stroke="none" style="text-indent:0;text-transform:none;direction:ltr;block-progression:tb;baseline-shift:baseline;color:#000000;enable-background:accumulate;" visibility="visible"/>
	<path d="M 7.28125,19.78125 L 2.53125,25.3125 L 2.90625,25.625 L 7.625,20.09375 L 7.28125,19.78125" display="inline" fill="#000000" fill-opacity="1" marker="none" overflow="visible" stroke="none" style="text-indent:0;text-transform:none;direction:ltr;block-progression:tb;baseline-shift:baseline;color:#000000;enable-background:accumulate;" visibility="visible"/>
	<path d="M 12.0625,19.78125 L 7.34375,25.3125 L 7.6875,25.625 L 12.4375,20.09375 L 12.0625,19.78125" display="inline" fill="#000000" fill-opacity="1" marker="none" overflow="visible" stroke="none" style="text-indent:0;text-transform:none;direction:ltr;block-progression:tb;baseline-shift:baseline;color:#000000;enable-background:accumulate;" visibility="visible"/>
	<path d="M 16.875,19.78125 L 12.125,25.3125 L 12.5,25.625 L 17.21875,20.09375 L 16.875,19.78125" display="inline" fill="#000000" fill-opacity="1" marker="none" overflow="visible" stroke="none" style="text-indent:0;text-transform:none;direction:ltr;block-progression:tb;baseline-shift:baseline;color:#000000;enable-background:accumulate;" visibility="visible"/>
	<path d="M 21.65625,19.78125 L 16.9375,25.3125 L 17.28125,25.625 L 22.03125,20.09375 L 21.65625,19.78125" display="inline" fill="#000000" fill-opacity="1" marker="none" overflow="visible" stroke="none" style="text-indent:0;text-transform:none;direction:ltr;block-progression:tb;baseline-shift:baseline;color:#000000;enable-background:accumulate;" visibility="visible"/>
	<path d="M 17.28125,19.78125 L 16.9375,20.09375 L 21.65625,25.625 L 22.03125,25.3125 L 17.28125,19.78125" display="inline" fill="#000000" fill-opacity="1" marker="none" overflow="visible" stroke="none" style="text-indent:0;text-transform:none;direction:ltr;block-progression:tb;baseline-shift:baseline;color:#000000;enable-background:accumulate;" visibility="visible"/>
	<path d="M 12.5,19.78125 L 12.125,20.09375 L 16.875,25.625 L 17.21875,25.3125 L 12.5,19.78125" display="inline" fill="#000000" fill-opacity="1" marker="none" overflow="visible" stroke="none" style="text-indent:0;text-transform:none;direction:ltr;block-progression:tb;baseline-shift:baseline;color:#000000;enable-background:accumulate;" visibility="visible"/>
	<path d="M 7.6875,19.78125 L 7.34375,20.09375 L 12.0625,25.625 L 12.4375,25.3125 L 7.6875,19.78125" display="inline" fill="#000000" fill-opacity="1" marker="none" overflow="visible" stroke="none" style="text-indent:0;text-transform:none;direction:ltr;block-progression:tb;baseline-shift:baseline;color:#000000;enable-background:accumulate;" visibility="visible"/>
	<path d="M 7.6875,19.78125 L 7.34375,20.09375 L 12.0625,25.625 L 12.4375,25.3125 L 7.6875,19.78125" display="inline" fill="#000000" fill-opacity="1" marker="none" overflow="visible" stroke="none" style="text-indent:0;text-transform:none;direction:ltr;block-progression:tb;baseline-shift:baseline;color:#000000;enable-background:accumulate;" visibility="visible"/>
	<path d="M 22.03125,11.125 L 21.5625,11.1875 L 21.5625,11.28125 L 21.5625,25.59375 L 22.03125,25.59375 L 22.03125,12.59375 L 26.71875,25.6875 L 27.15625,25.53125 L 22.03125,11.125" display="inline" fill="#000000" fill-opacity="1" marker="none" overflow="visible" stroke="none" style="text-indent:0;text-transform:none;direction:ltr;block-progression:tb;baseline-shift:baseline;color:#000000;enable-background:accumulate;" visibility="visible"/>
	<path d="M 21.9375,22.1875 L 21.6875,22.59375 L 26.46875,25.5 L 26.71875,25.0625 L 21.9375,22.1875" display="inline" fill="#000000" fill-opacity="1" marker="none" overflow="visible" stroke="none" style="text-indent:0;text-transform:none;direction:ltr;block-progression:tb;baseline-shift:baseline;color:#000000;enable-background:accumulate;" visibility="visible"/>
	<path d="M 25.65625,22.21875 L 21.65625,25.40625 L 21.9375,25.78125 L 25.9375,22.59375 L 25.65625,22.21875" display="inline" fill="#000000" fill-opacity="1" marker="none" overflow="visible" stroke="none" style="text-indent:0;text-transform:none;direction:ltr;block-progression:tb;baseline-shift:baseline;color:#000000;enable-background:accumulate;" visibility="visible"/>
	<path d="M 21.9375,19.78125 L 21.6875,20.21875 L 25.6875,22.59375 L 25.9375,22.1875 L 21.9375,19.78125" display="inline" fill="#000000" fill-opacity="1" marker="none" overflow="visible" stroke="none" style="text-indent:0;text-transform:none;direction:ltr;block-progression:tb;baseline-shift:baseline;color:#000000;enable-background:accumulate;" visibility="visible"/>
	<path d="M 24.84375,19.8125 L 21.65625,22.21875 L 21.9375,22.59375 L 25.15625,20.1875 L 24.84375,19.8125" display="inline" fill="#000000" fill-opacity="1" marker="none" overflow="visible" stroke="none" style="text-indent:0;text-transform:none;direction:ltr;block-progression:tb;baseline-shift:baseline;color:#000000;enable-background:accumulate;" visibility="visible"/>
	<path d="M 21.9375,17.09375 L 21.65625,17.46875 L 24.53125,19.40625 L 24.78125,19.0 L 21.9375,17.09375" display="inline" fill="#000000" fill-opacity="1" marker="none" overflow="visible" stroke="none" style="text-indent:0;text-transform:none;direction:ltr;block-progression:tb;baseline-shift:baseline;color:#000000;enable-background:accumulate;" visibility="visible"/>
	<path d="M 24.0625,17.40625 L 21.65625,19.46875 L 21.96875,19.8125 L 24.34375,17.78125 L 24.0625,17.40625" display="inline" fill="#000000" fill-opacity="1" marker="none" overflow="visible" stroke="none" style="text-indent:0;text-transform:none;direction:ltr;block-progression:tb;baseline-shift:baseline;color:#000000;enable-background:accumulate;" visibility="visible"/>
	<path d="M 21.625,11.125 L 21.6,11.2 L 21.575000000000003,11.274999999999999 L 49.575,20.075 L 49.625,19.925 L 23.075,11.575000000000001 L 64.775,20.075000000000003 L 64.825,19.925000000000004 L 21.625,11.125000000000004 L 21.625,11.125" display="inline" fill="#000000" fill-opacity="1" marker="none" overflow="visible" stroke="none" style="text-indent:0;text-transform:none;direction:ltr;block-progression:tb;baseline-shift:baseline;color:#000000;enable-background:accumulate;" visibility="visible"/>
	<path d="M 21.55,11.125 L 10.350000000000001,19.925 L 10.450000000000001,20.075 L 21.65,11.274999999999999 L 21.549999999999997,11.124999999999998 L 21.55,11.125" display="inline" fill="#000000" fill-opacity="1" marker="none" overflow="visible" stroke="none" style="text-indent:0;text-transform:none;direction:ltr;block-progression:tb;baseline-shift:baseline;color:#000000;enable-background:accumulate;" visibility="visible"/>
	<path d="M 3.15,26.325 A 0.080008,0.080008 0.0 0,0 3.15,26.349999999999998 A 0.080008,0.080008 0.0 0,0 3.125,26.349999999999998 A 0.080008,0.080008 0.0 0,0 3.125,26.374999999999996 A 0.080008,0.080008 0.0 0,0 3.125,26.399999999999995 L 3.125,31.999999999999993 A 0.080008,0.080008 0.0 0,0 3.125,32.02499999999999 A 0.080008,0.080008 0.0 0,0 3.125,32.04999999999999 A 0.080008,0.080008 0.0 0,0 3.15,32.04999999999999 A 0.080008,0.080008 0.0 0,0 3.15,32.07499999999999 A 0.080008,0.080008 0.0 0,0 3.175,32.07499999999999 A 0.080008,0.080008 0.0 0,0 3.1999999999999997,32.07499999999999 L 6.4,32.07499999999999 A 0.080008,0.080008 0.0 0,0 6.425000000000001,32.07499999999999 A 0.080008,0.080008 0.0 0,0 6.450000000000001,32.07499999999999 A 0.080008,0.080008 0.0 0,0 6.450000000000001,32.04999999999999 A 0.080008,0.080008 0.0 0,0 6.475000000000001,32.04999999999999 A 0.080008,0.080008 0.0 0,0 6.475000000000001,32.02499999999999 A 0.080008,0.080008 0.0 0,0 6.475000000000001,31.999999999999993 L 6.475000000000001,26.39999999999999 A 0.080008,0.080008 0.0 0,0 6.475000000000001,26.374999999999993 A 0.080008,0.080008 0.0 0,0 6.475000000000001,26.349999999999994 A 0.080008,0.080008 0.0 0,0 6.450000000000001,26.349999999999994 A 0.080008,0.080008 0.0 0,0 6.450000000000001,26.324999999999996 A 0.080008,0.080008 0.0 0,0 6.425000000000001,26.324999999999996 A 0.080008,0.080008 0.0 0,0 6.4,26.324999999999996 L 3.2,26.324999999999996 A 0.080008,0.080008 0.0 0,0 3.1750000000000003,26.324999999999996 A 0.080008,0.080008 0.0 0,0 3.1500000000000004,26.324999999999996 L 3.15,26.325 M 3.275,26.474999999999998 L 6.324999999999999,26.474999999999998 L 6.324999999999999,31.924999999999997 L 3.2749999999999995,31.924999999999997 L 3.2749999999999995,26.474999999999998 L 3.275,26.474999999999998" display="inline" fill="#000000" fill-opacity="1" fill-rule="nonzero" marker="none" overflow="visible" stroke="none" style="text-indent:0;text-transform:none;direction:ltr;block-progression:tb;baseline-shift:baseline;color:#000000;enable-background:accumulate;" visibility="visible"/>
	<path d="M 7.15625,26.3125 A 0.080008,0.080008 0.0 0,0 7.15625,26.34375 A 0.080008,0.080008 0.0 0,0 7.125,26.34375 A 0.080008,0.080008 0.0 0,0 7.125,26.375 A 0.080008,0.080008 0.0 0,0 7.125,26.40625 L 7.125,32.0 A 0.080008,0.080008 0.0 0,0 7.125,32.03125 A 0.080008,0.080008 0.0 0,0 7.15625,32.0625 A 0.080008,0.080008 0.0 0,0 7.1875,32.09375 L 10.40625,32.09375 A 0.080008,0.080008 0.0 0,0 10.4375,32.0625 A 0.080008,0.080008 0.0 0,0 10.46875,32.0625 A 0.080008,0.080008 0.0 0,0 10.46875,32.03125 A 0.080008,0.080008 0.0 0,0 10.46875,32.0 L 10.46875,26.40625 A 0.080008,0.080008 0.0 0,0 10.46875,26.375 A 0.080008,0.080008 0.0 0,0 10.46875,26.34375 A 0.080008,0.080008 0.0 0,0 10.4375,26.34375 A 0.080008,0.080008 0.0 0,0 10.40625,26.3125 L 7.1875,26.3125 A 0.080008,0.080008 0.0 0,0 7.15625,26.3125 M 7.28125,26.46875 L 10.3125,26.46875 L 10.3125,31.90625 L 7.28125,31.90625 L 7.28125,26.46875" display="inline" fill="#000000" fill-opacity="1" fill-rule="nonzero" marker="none" overflow="visible" stroke="none" style="text-indent:0;text-transform:none;direction:ltr;block-progression:tb;baseline-shift:baseline;color:#000000;enable-background:accumulate;" visibility="visible"/>
	<path d="M 25.85,71.675 L 25.35,72.325 L 31.625,77.2 L 25.6,77.2 L 25.6,78.0 L 32.800000000000004,78.0 A 0.40004,0.40004 0.0 0,0 33.050000000000004,77.275 L 25.850000000000005,71.67500000000001 L 25.85,71.675" display="inline" fill="#000000" fill-opacity="1" marker="none" overflow="visible" stroke="none" style="text-indent:0;text-transform:none;direction:ltr;block-progression:tb;baseline-shift:baseline;color:#000000;enable-background:accumulate;" visibility="visible"/>
	<path d="M 19.9375,71.59375 A 0.40004001,0.40004001 0.0 0,0 19.75,71.6875 L 12.5625,77.28125 A 0.40004001,0.40004001 0.0 0,0 12.8125,78.0 L 20.0,78.0 A 0.40625,0.40625 0.0 0,0 20.0,77.1875 L 13.96875,77.1875 L 20.25,72.3125 A 0.40004001,0.40004001 0.0 0,0 19.9375,71.59375" display="inline" fill="#000000" fill-opacity="1" marker="none" overflow="visible" stroke="none" style="text-indent:0;text-transform:none;direction:ltr;block-progression:tb;baseline-shift:baseline;color:#000000;enable-background:accumulate;" visibility="visible"/>
	<path d="M 27.0,26.55 L 27.0,33.6 L 27.0,33.800000000000004 L 27.2,33.800000000000004 L 33.6,33.800000000000004 L 33.6,33.400000000000006 L 27.400000000000002,33.400000000000006 L 27.400000000000002,26.550000000000004 L 27.000000000000004,26.550000000000004 L 27.0,26.55" display="inline" fill="#000000" fill-opacity="1" marker="none" overflow="visible" stroke="none" style="text-indent:0;text-transform:none;direction:ltr;block-progression:tb;baseline-shift:baseline;color:#000000;enable-background:accumulate;" visibility="visible"/>
	<path d="M 15.96875,71.15625 A 0.080008,0.080008 0.0 0,0 15.96875,71.1875 A 0.080008,0.080008 0.0 0,0 15.9375,71.1875 A 0.080008,0.080008 0.0 0,0 15.9375,71.21875 A 0.080008,0.080008 0.0 0,0 15.90625,71.25 L 15.90625,76.84375 A 0.080008,0.080008 0.0 0,0 15.9375,76.875 A 0.080008,0.080008 0.0 0,0 15.9375,76.90625 A 0.080008,0.080008 0.0 0,0 15.96875,76.90625 A 0.080008,0.080008 0.0 0,0 16.0,76.9375 L 19.1875,76.9375 A 0.080008,0.080008 0.0 0,0 19.21875,76.9375 A 0.080008,0.080008 0.0 0,0 19.21875,76.90625 A 0.080008,0.080008 0.0 0,0 19.25,76.90625 A 0.080008,0.080008 0.0 0,0 19.28125,76.875 A 0.080008,0.080008 0.0 0,0 19.28125,76.84375 L 19.28125,71.25 A 0.080008,0.080008 0.0 0,0 19.28125,71.21875 A 0.080008,0.080008 0.0 0,0 19.25,71.1875 A 0.080008,0.080008 0.0 0,0 19.21875,71.15625 A 0.080008,0.080008 0.0 0,0 19.1875,71.15625 L 16.0,71.15625 A 0.080008,0.080008 0.0 0,0 15.96875,71.15625 M 16.09375,71.3125 L 19.125,71.3125 L 19.125,76.75 L 16.09375,76.75 L 16.09375,71.3125" display="inline" fill="#000000" fill-opacity="1" fill-rule="nonzero" marker="none" overflow="visible" stroke="none" style="text-indent:0;text-transform:none;direction:ltr;block-progression:tb;baseline-shift:baseline;color:#000000;enable-background:accumulate;" visibility="visible"/>
	<path d="M 11.96875,71.15625 A 0.080008,0.080008 0.0 0,0 11.96875,71.1875 A 0.080008,0.080008 0.0 0,0 11.9375,71.1875 A 0.080008,0.080008 0.0 0,0 11.9375,71.21875 A 0.080008,0.080008 0.0 0,0 11.90625,71.25 L 11.90625,76.84375 A 0.080008,0.080008 0.0 0,0 11.9375,76.875 A 0.080008,0.080008 0.0 0,0 11.9375,76.90625 A 0.080008,0.080008 0.0 0,0 11.96875,76.90625 A 0.080008,0.080008 0.0 0,0 12.0,76.9375 L 15.1875,76.9375 A 0.080008,0.080008 0.0 0,0 15.21875,76.9375 A 0.080008,0.080008 0.0 0,0 15.21875,76.90625 A 0.080008,0.080008 0.0 0,0 15.25,76.90625 A 0.080008,0.080008 0.0 0,0 15.28125,76.875 A 0.080008,0.080008 0.0 0,0 15.28125,76.84375 L 15.28125,71.25 A 0.080008,0.080008 0.0 0,0 15.28125,71.21875 A 0.080008,0.080008 0.0 0,0 15.25,71.1875 A 0.080008,0.080008 0.0 0,0 15.21875,71.15625 A 0.080008,0.080008 0.0 0,0 15.1875,71.15625 L 12.0,71.15625 A 0.080008,0.080008 0.0 0,0 11.96875,71.15625 M 12.09375,71.3125 L 15.125,71.3125 L 15.125,76.75 L 12.09375,76.75 L 12.09375,71.3125" display="inline" fill="#000000" fill-opacity="1" fill-rule="nonzero" marker="none" overflow="visible" stroke="none" style="text-indent:0;text-transform:none;direction:ltr;block-progression:tb;baseline-shift:baseline;color:#000000;enable-background:accumulate;" visibility="visible"/>
	<path d="M 26.3125,71.15625 A 0.080008,0.080008 0.0 0,0 26.3125,71.1875 A 0.080008,0.080008 0.0 0,0 26.28125,71.1875 A 0.080008,0.080008 0.0 0,0 26.28125,71.21875 A 0.080008,0.080008 0.0 0,0 26.28125,71.25 L 26.28125,76.84375 A 0.080008,0.080008 0.0 0,0 26.28125,76.875 A 0.080008,0.080008 0.0 0,0 26.3125,76.90625 A 0.080008,0.080008 0.0 0,0 26.34375,76.90625 A 0.080008,0.080008 0.0 0,0 26.34375,76.9375 L 29.5625,76.9375 A 0.080008,0.080008 0.0 0,0 29.59375,76.90625 A 0.080008,0.080008 0.0 0,0 29.625,76.90625 A 0.080008,0.080008 0.0 0,0 29.625,76.875 A 0.080008,0.080008 0.0 0,0 29.625,76.84375 L 29.625,71.25 A 0.080008,0.080008 0.0 0,0 29.625,71.21875 A 0.080008,0.080008 0.0 0,0 29.625,71.1875 A 0.080008,0.080008 0.0 0,0 29.59375,71.1875 A 0.080008,0.080008 0.0 0,0 29.59375,71.15625 A 0.080008,0.080008 0.0 0,0 29.5625,71.15625 L 26.34375,71.15625 A 0.080008,0.080008 0.0 0,0 26.3125,71.15625 M 26.4375,71.3125 L 29.46875,71.3125 L 29.46875,76.75 L 26.4375,76.75 L 26.4375,71.3125" display="inline" fill="#000000" fill-opacity="1" fill-rule="nonzero" marker="none" overflow="visible" stroke="none" style="text-indent:0;text-transform:none;direction:ltr;block-progression:tb;baseline-shift:baseline;color:#000000;enable-background:accumulate;" visibility="visible"/>
	<path d="M 30.1875,71.15625 A 0.080008,0.080008 0.0 0,0 30.1875,71.1875 A 0.080008,0.080008 0.0 0,0 30.15625,71.1875 A 0.080008,0.080008 0.0 0,0 30.15625,71.21875 A 0.080008,0.080008 0.0 0,0 30.125,71.25 L 30.125,76.84375 A 0.080008,0.080008 0.0 0,0 30.15625,76.875 A 0.080008,0.080008 0.0 0,0 30.15625,76.90625 A 0.080008,0.080008 0.0 0,0 30.1875,76.90625 A 0.080008,0.080008 0.0 0,0 30.21875,76.9375 L 33.40625,76.9375 A 0.080008,0.080008 0.0 0,0 33.4375,76.9375 A 0.080008,0.080008 0.0 0,0 33.4375,76.90625 A 0.080008,0.080008 0.0 0,0 33.46875,76.90625 A 0.080008,0.080008 0.0 0,0 33.5,76.875 A 0.080008,0.080008 0.0 0,0 33.5,76.84375 L 33.5,71.25 A 0.080008,0.080008 0.0 0,0 33.5,71.21875 A 0.080008,0.080008 0.0 0,0 33.46875,71.1875 A 0.080008,0.080008 0.0 0,0 33.4375,71.15625 A 0.080008,0.080008 0.0 0,0 33.40625,71.15625 L 30.21875,71.15625 A 0.080008,0.080008 0.0 0,0 30.1875,71.15625 M 30.3125,71.3125 L 33.34375,71.3125 L 33.34375,76.75 L 30.3125,76.75 L 30.3125,71.3125" display="inline" fill="#000000" fill-opacity="1" fill-rule="nonzero" marker="none" overflow="visible" stroke="none" style="text-indent:0;text-transform:none;direction:ltr;block-progression:tb;baseline-shift:baseline;color:#000000;enable-background:accumulate;" visibility="visible"/>
	<path d="M 15.96875,65.125 A 0.080008,0.080008 0.0 0,0 15.9375,65.15625 A 0.080008,0.080008 0.0 0,0 15.9375,65.1875 A 0.080008,0.080008 0.0 0,0 15.90625,65.1875 A 0.080008,0.080008 0.0 0,0 15.90625,65.21875 L 15.90625,70.8125 A 0.080008,0.080008 0.0 0,0 15.9375,70.84375 A 0.080008,0.080008 0.0 0,0 15.9375,70.875 A 0.080008,0.080008 0.0 0,0 15.96875,70.875 A 0.080008,0.080008 0.0 0,0 16.0,70.875 L 19.1875,70.875 A 0.080008,0.080008 0.0 0,0 19.21875,70.875 A 0.080008,0.080008 0.0 0,0 19.25,70.875 A 0.080008,0.080008 0.0 0,0 19.28125,70.84375 A 0.080008,0.080008 0.0 0,0 19.28125,70.8125 L 19.28125,65.21875 A 0.080008,0.080008 0.0 0,0 19.28125,65.1875 A 0.080008,0.080008 0.0 0,0 19.28125,65.15625 A 0.080008,0.080008 0.0 0,0 19.25,65.15625 A 0.080008,0.080008 0.0 0,0 19.25,65.125 A 0.080008,0.080008 0.0 0,0 19.21875,65.125 A 0.080008,0.080008 0.0 0,0 19.1875,65.125 L 16.0,65.125 A 0.080008,0.080008 0.0 0,0 15.96875,65.125 M 16.09375,65.28125 L 19.125,65.28125 L 19.125,70.71875 L 16.09375,70.71875 L 16.09375,65.28125" display="inline" fill="#000000" fill-opacity="1" fill-rule="nonzero" marker="none" overflow="visible" stroke="none" style="text-indent:0;text-transform:none;direction:ltr;block-progression:tb;baseline-shift:baseline;color:#000000;enable-background:accumulate;" visibility="visible"/>
	<path d="M 11.96875,65.125 A 0.080008,0.080008 0.0 0,0 11.9375,65.15625 A 0.080008,0.080008 0.0 0,0 11.9375,65.1875 A 0.080008,0.080008 0.0 0,0 11.90625,65.1875 A 0.080008,0.080008 0.0 0,0 11.90625,65.21875 L 11.90625,70.8125 A 0.080008,0.080008 0.0 0,0 11.9375,70.84375 A 0.080008,0.080008 0.0 0,0 11.9375,70.875 A 0.080008,0.080008 0.0 0,0 11.96875,70.875 A 0.080008,0.080008 0.0 0,0 12.0,70.875 L 15.1875,70.875 A 0.080008,0.080008 0.0 0,0 15.21875,70.875 A 0.080008,0.080008 0.0 0,0 15.25,70.875 A 0.080008,0.080008 0.0 0,0 15.28125,70.84375 A 0.080008,0.080008 0.0 0,0 15.28125,70.8125 L 15.28125,65.21875 A 0.080008,0.080008 0.0 0,0 15.28125,65.1875 A 0.080008,0.080008 0.0 0,0 15.28125,65.15625 A 0.080008,0.080008 0.0 0,0 15.25,65.15625 A 0.080008,0.080008 0.0 0,0 15.25,65.125 A 0.080008,0.080008 0.0 0,0 15.21875,65.125 A 0.080008,0.080008 0.0 0,0 15.1875,65.125 L 12.0,65.125 A 0.080008,0.080008 0.0 0,0 11.96875,65.125 M 12.09375,65.28125 L 15.125,65.28125 L 15.125,70.71875 L 12.09375,70.71875 L 12.09375,65.28125" display="inline" fill="#000000" fill-opacity="1" fill-rule="nonzero" marker="none" overflow="visible" stroke="none" style="text-indent:0;text-transform:none;direction:ltr;block-progression:tb;baseline-shift:baseline;color:#000000;enable-background:accumulate;" visibility="visible"/>
	<path d="M 26.3125,65.125 A 0.080008,0.080008 0.0 0,0 26.3125,65.15625 A 0.080008,0.080008 0.0 0,0 26.28125,65.15625 A 0.080008,0.080008 0.0 0,0 26.28125,65.1875 A 0.080008,0.080008 0.0 0,0 26.28125,65.21875 L 26.28125,70.8125 A 0.080008,0.080008 0.0 0,0 26.28125,70.84375 A 0.080008,0.080008 0.0 0,0 26.3125,70.875 A 0.080008,0.080008 0.0 0,0 26.34375,70.875 L 29.5625,70.875 A 0.080008,0.080008 0.0 0,0 29.59375,70.875 A 0.080008,0.080008 0.0 0,0 29.625,70.875 A 0.080008,0.080008 0.0 0,0 29.625,70.84375 A 0.080008,0.080008 0.0 0,0 29.625,70.8125 L 29.625,65.21875 A 0.080008,0.080008 0.0 0,0 29.625,65.1875 A 0.080008,0.080008 0.0 0,0 29.625,65.15625 A 0.080008,0.080008 0.0 0,0 29.59375,65.125 A 0.080008,0.080008 0.0 0,0 29.5625,65.125 L 26.34375,65.125 A 0.080008,0.080008 0.0 0,0 26.3125,65.125 M 26.4375,65.28125 L 29.46875,65.28125 L 29.46875,70.71875 L 26.4375,70.71875 L 26.4375,65.28125" display="inline" fill="#000000" fill-opacity="1" fill-rule="nonzero" marker="none" overflow="visible" stroke="none" style="text-indent:0;text-transform:none;direction:ltr;block-progression:tb;baseline-shift:baseline;color:#000000;enable-background:accumulate;" visibility="visible"/>
	<path d="M 30.1875,65.125 A 0.080008,0.080008 0.0 0,0 30.15625,65.15625 A 0.080008,0.080008 0.0 0,0 30.15625,65.1875 A 0.080008,0.080008 0.0 0,0 30.125,65.21875 L 30.125,70.8125 A 0.080008,0.080008 0.0 0,0 30.15625,70.84375 A 0.080008,0.080008 0.0 0,0 30.15625,70.875 A 0.080008,0.080008 0.0 0,0 30.1875,70.875 A 0.080008,0.080008 0.0 0,0 30.21875,70.875 L 33.40625,70.875 A 0.080008,0.080008 0.0 0,0 33.4375,70.875 A 0.080008,0.080008 0.0 0,0 33.46875,70.875 A 0.080008,0.080008 0.0 0,0 33.5,70.84375 A 0.080008,0.080008 0.0 0,0 33.5,70.8125 L 33.5,65.21875 A 0.080008,0.080008 0.0 0,0 33.5,65.1875 A 0.080008,0.080008 0.0 0,0 33.5,65.15625 A 0.080008,0.080008 0.0 0,0 33.46875,65.15625 A 0.080008,0.080008 0.0 0,0 33.46875,65.125 A 0.080008,0.080008 0.0 0,0 33.4375,65.125 A 0.080008,0.080008 0.0 0,0 33.40625,65.125 L 30.21875,65.125 A 0.080008,0.080008 0.0 0,0 30.1875,65.125 M 30.3125,65.28125 L 33.34375,65.28125 L 33.34375,70.71875 L 30.3125,70.71875 L 30.3125,65.28125" display="inline" fill="#000000" fill-opacity="1" fill-rule="nonzero" marker="none" overflow="visible" stroke="none" style="text-indent:0;text-transform:none;direction:ltr;block-progression:tb;baseline-shift:baseline;color:#000000;enable-background:accumulate;" visibility="visible"/>
	<path d="M 55.6875,24.84375 C 55.274595,24.84375 54.9375,25.180845 54.9375,25.59375 C 54.9375,26.006655 55.274595,26.34375 55.6875,26.34375 L 59.28125,26.34375 C 59.694155,26.34375 60.03125,26.006655 60.03125,25.59375 C 60.03125,25.180845 59.694155,24.84375 59.28125,24.84375 L 55.6875,24.84375 M 55.6875,25.125 L 59.28125,25.125 C 59.533145,25.125 59.71875,25.341855 59.71875,25.59375 C 59.71875,25.845645 59.533145,26.03125 59.28125,26.03125 L 55.6875,26.03125 C 55.435607,26.03125 55.21875,25.845645 55.21875,25.59375 C 55.21875,25.341855 55.435607,25.125 55.6875,25.125" display="inline" fill="#000000" fill-opacity="1" fill-rule="nonzero" marker="none" overflow="visible" stroke="none" style="text-indent:0;text-transform:none;direction:ltr;block-progression:tb;baseline-shift:baseline;color:#000000;enable-background:accumulate;" visibility="visible"/>
	<path d="M 57.494034,26.770406 C 56.785139,26.770406 56.194034,27.361512 56.194034,28.070406000000002 C 56.194034,28.779301000000004 56.785139,29.345406 57.494034,29.345406 C 58.202928,29.345406 58.769034,28.779301 58.769034,28.070406000000002 C 58.769034,27.361512 58.202928,26.770406 57.494034,26.770406 M 57.494034,27.170406 C 57.986751999999996,27.170406 58.369034,27.577688 58.369034,28.070406 C 58.369034,28.563125 57.986751999999996,28.945406 57.494034,28.945406 C 57.001315,28.945406 56.594034,28.563125 56.594034,28.070406 C 56.594034,27.577688 57.001315,27.170406 57.494034,27.170406" display="inline" fill="#000000" fill-opacity="1" fill-rule="nonzero" marker="none" overflow="visible" stroke="none" style="text-indent:0;text-transform:none;direction:ltr;block-progression:tb;baseline-shift:baseline;color:#000000;enable-background:accumulate;" visibility="visible"/>
	<path d="M 57.373206,30.317423 C 56.935263000000006,30.317423 56.573205,30.679481000000003 56.573205,31.117423000000002 C 56.573205,31.555366000000003 56.935263,31.917423000000003 57.373206,31.917423000000003 C 57.811148,31.917423000000003 58.173206,31.555366000000003 58.173206,31.117423000000002 C 58.173206,30.679481000000003 57.811148,30.317423 57.373206,30.317423 M 57.373206,30.717423 C 57.594972000000006,30.717423 57.773206,30.895657 57.773206,31.117423 C 57.773206,31.33919 57.594972,31.517422999999997 57.373206,31.517422999999997 C 57.151439,31.517422999999997 56.973206000000005,31.33919 56.973206000000005,31.117423 C 56.973206000000005,30.895657 57.151439,30.717423 57.373206,30.717423" display="inline" fill="#000000" fill-opacity="1" marker="none" overflow="visible" stroke="none" style="text-indent:0;text-transform:none;direction:ltr;block-progression:tb;baseline-shift:baseline;color:#000000;enable-background:accumulate;" visibility="visible"/>
	<path d="M 57.665803,31.61217 L 57.04646,31.772 C 57.04646,31.772 57.04896,33.464829 57.11826000000001,34.119873 C 57.250727000000005,34.937978 56.874852000000004,35.709635999999996 56.38383600000001,35.720648 C 55.97515900000001,35.67353799999999 55.80299100000001,35.504293 55.71974400000001,35.178748999999996 C 55.57754900000001,34.40989999999999 55.040210000000016,34.471754 55.08042200000001,35.178751 C 55.07442200000001,35.482641 55.09167200000001,35.836349999999996 55.28021000000001,36.157712 C 56.084128000000014,37.455192 57.81561800000001,36.719972 57.77756000000001,35.118815 C 57.807370000000006,34.771999 57.79487000000001,34.392236999999994 57.75758000000001,34.039958999999996 C 57.683,33.335405 57.6658,31.612172 57.6658,31.61217 L 57.665803,31.61217" display="inline" fill="#000000" fill-opacity="1" marker="none" overflow="visible" stroke="none" style="text-indent:0;text-transform:none;direction:ltr;block-progression:tb;baseline-shift:baseline;color:#000000;enable-background:accumulate;" visibility="visible"/>
	<path d="M 56.21875,25.8125 L 56.21875,28.09375 L 56.625,28.09375 L 56.625,25.8125 L 56.21875,25.8125" display="inline" fill="#000000" fill-opacity="1" marker="none" overflow="visible" stroke="none" style="text-indent:0;text-transform:none;direction:ltr;block-progression:tb;baseline-shift:baseline;color:#000000;enable-background:accumulate;" visibility="visible"/>
	<path d="M 58.28125,25.96875 L 58.25,28.0625 L 58.65625,28.0625 L 58.65625,25.96875 L 58.28125,25.96875" display="inline" fill="#000000" fill-opacity="1" marker="none" overflow="visible" stroke="none" style="text-indent:0;text-transform:none;direction:ltr;block-progression:tb;baseline-shift:baseline;color:#000000;enable-background:accumulate;" visibility="visible"/>
	<path d="M 57.34375,28.875 A 0.20002,0.20002 0.0 0,0 57.3125,28.90625 A 0.20002,0.20002 0.0 0,0 57.21875,29.0 A 0.20002,0.20002 0.0 0,0 57.1875,29.09375 L 57.1875,31.1875 A 0.20002,0.20002 0.0 0,0 57.1875,31.21875 A 0.20002,0.20002 0.0 0,0 57.28125,31.34375 A 0.20002,0.20002 0.0 0,0 57.3125,31.375 A 0.20002,0.20002 0.0 0,0 57.375,31.375 A 0.20002,0.20002 0.0 0,0 57.40625,31.375 A 0.20002,0.20002 0.0 0,0 57.5,31.34375 A 0.20002,0.20002 0.0 0,0 57.53125,31.3125 A 0.20002,0.20002 0.0 0,0 57.5625,31.28125 A 0.20002,0.20002 0.0 0,0 57.5625,31.21875 A 0.20002,0.20002 0.0 0,0 57.59375,31.1875 L 57.59375,29.09375 A 0.20002,0.20002 0.0 0,0 57.59375,29.03125 A 0.20002,0.20002 0.0 0,0 57.59375,29.0 A 0.20002,0.20002 0.0 0,0 57.5625,28.96875 A 0.20002,0.20002 0.0 0,0 57.53125,28.9375 A 0.20002,0.20002 0.0 0,0 57.5,28.90625 A 0.20002,0.20002 0.0 0,0 57.40625,28.875 A 0.20002,0.20002 0.0 0,0 57.375,28.875 A 0.20002,0.20002 0.0 0,0 57.34375,28.875" display="inline" fill="#000000" fill-opacity="1" marker="none" overflow="visible" stroke="none" style="text-indent:0;text-transform:none;direction:ltr;block-progression:tb;baseline-shift:baseline;color:#000000;enable-background:accumulate;" visibility="visible"/>
	<path d="M 3.15,26.325 A 0.080008,0.080008 0.0 0,0 3.15,26.349999999999998 A 0.080008,0.080008 0.0 0,0 3.125,26.349999999999998 A 0.080008,0.080008 0.0 0,0 3.125,26.374999999999996 A 0.080008,0.080008 0.0 0,0 3.125,26.399999999999995 L 3.125,31.999999999999993 A 0.080008,0.080008 0.0 0,0 3.125,32.02499999999999 A 0.080008,0.080008 0.0 0,0 3.125,32.04999999999999 A 0.080008,0.080008 0.0 0,0 3.15,32.04999999999999 A 0.080008,0.080008 0.0 0,0 3.15,32.07499999999999 A 0.080008,0.080008 0.0 0,0 3.175,32.07499999999999 A 0.080008,0.080008 0.0 0,0 3.1999999999999997,32.07499999999999 L 6.4,32.07499999999999 A 0.080008,0.080008 0.0 0,0 6.425000000000001,32.07499999999999 A 0.080008,0.080008 0.0 0,0 6.450000000000001,32.07499999999999 A 0.080008,0.080008 0.0 0,0 6.450000000000001,32.04999999999999 A 0.080008,0.080008 0.0 0,0 6.475000000000001,32.04999999999999 A 0.080008,0.080008 0.0 0,0 6.475000000000001,32.02499999999999 A 0.080008,0.080008 0.0 0,0 6.475000000000001,31.999999999999993 L 6.475000000000001,26.39999999999999 A 0.080008,0.080008 0.0 0,0 6.475000000000001,26.374999999999993 A 0.080008,0.080008 0.0 0,0 6.475000000000001,26.349999999999994 A 0.080008,0.080008 0.0 0,0 6.450000000000001,26.349999999999994 A 0.080008,0.080008 0.0 0,0 6.450000000000001,26.324999999999996 A 0.080008,0.080008 0.0 0,0 6.425000000000001,26.324999999999996 A 0.080008,0.080008 0.0 0,0 6.4,26.324999999999996 L 3.2,26.324999999999996 A 0.080008,0.080008 0.0 0,0 3.1750000000000003,26.324999999999996 A 0.080008,0.080008 0.0 0,0 3.1500000000000004,26.324999999999996 L 3.15,26.325 M 3.275,26.474999999999998 L 6.324999999999999,26.474999999999998 L 6.324999999999999,31.924999999999997 L 3.2749999999999995,31.924999999999997 L 3.2749999999999995,26.474999999999998 L 3.275,26.474999999999998" display="inline" fill="#000000" fill-opacity="1" fill-rule="nonzero" marker="none" overflow="visible" stroke="none" style="text-indent:0;text-transform:none;direction:ltr;block-progression:tb;baseline-shift:baseline;color:#000000;enable-background:accumulate;" visibility="visible"/>
	<path d="M 7.15625,26.3125 A 0.080008,0.080008 0.0 0,0 7.15625,26.34375 A 0.080008,0.080008 0.0 0,0 7.125,26.34375 A 0.080008,0.080008 0.0 0,0 7.125,26.375 A 0.080008,0.080008 0.0 0,0 7.125,26.40625 L 7.125,32.0 A 0.080008,0.080008 0.0 0,0 7.125,32.03125 A 0.080008,0.080008 0.0 0,0 7.15625,32.0625 A 0.080008,0.080008 0.0 0,0 7.1875,32.09375 L 10.40625,32.09375 A 0.080008,0.080008 0.0 0,0 10.4375,32.0625 A 0.080008,0.080008 0.0 0,0 10.46875,32.0625 A 0.080008,0.080008 0.0 0,0 10.46875,32.03125 A 0.080008,0.080008 0.0 0,0 10.46875,32.0 L 10.46875,26.40625 A 0.080008,0.080008 0.0 0,0 10.46875,26.375 A 0.080008,0.080008 0.0 0,0 10.46875,26.34375 A 0.080008,0.080008 0.0 0,0 10.4375,26.34375 A 0.080008,0.080008 0.0 0,0 10.40625,26.3125 L 7.1875,26.3125 A 0.080008,0.080008 0.0 0,0 7.15625,26.3125 M 7.28125,26.46875 L 10.3125,26.46875 L 10.3125,31.90625 L 7.28125,31.90625 L 7.28125,26.46875" display="inline" fill="#000000" fill-opacity="1" fill-rule="nonzero" marker="none" overflow="visible" stroke="none" style="text-indent:0;text-transform:none;direction:ltr;block-progression:tb;baseline-shift:baseline;color:#000000;enable-background:accumulate;" visibility="visible"/>
	<path d="M 15.96875,71.15625 A 0.080008,0.080008 0.0 0,0 15.96875,71.1875 A 0.080008,0.080008 0.0 0,0 15.9375,71.1875 A 0.080008,0.080008 0.0 0,0 15.9375,71.21875 A 0.080008,0.080008 0.0 0,0 15.90625,71.25 L 15.90625,76.84375 A 0.080008,0.080008 0.0 0,0 15.9375,76.875 A 0.080008,0.080008 0.0 0,0 15.9375,76.90625 A 0.080008,0.080008 0.0 0,0 15.96875,76.90625 A 0.080008,0.080008 0.0 0,0 16.0,76.9375 L 19.1875,76.9375 A 0.080008,0.080008 0.0 0,0 19.21875,76.9375 A 0.080008,0.080008 0.0 0,0 19.21875,76.90625 A 0.080008,0.080008 0.0 0,0 19.25,76.90625 A 0.080008,0.080008 0.0 0,0 19.28125,76.875 A 0.080008,0.080008 0.0 0,0 19.28125,76.84375 L 19.28125,71.25 A 0.080008,0.080008 0.0 0,0 19.28125,71.21875 A 0.080008,0.080008 0.0 0,0 19.25,71.1875 A 0.080008,0.080008 0.0 0,0 19.21875,71.15625 A 0.080008,0.080008 0.0 0,0 19.1875,71.15625 L 16.0,71.15625 A 0.080008,0.080008 0.0 0,0 15.96875,71.15625 M 16.09375,71.3125 L 19.125,71.3125 L 19.125,76.75 L 16.09375,76.75 L 16.09375,71.3125" display="inline" fill="#000000" fill-opacity="1" fill-rule="nonzero" marker="none" overflow="visible" stroke="none" style="text-indent:0;text-transform:none;direction:ltr;block-progression:tb;baseline-shift:baseline;color:#000000;enable-background:accumulate;" visibility="visible"/>
	<path d="M 11.96875,71.15625 A 0.080008,0.080008 0.0 0,0 11.96875,71.1875 A 0.080008,0.080008 0.0 0,0 11.9375,71.1875 A 0.080008,0.080008 0.0 0,0 11.9375,71.21875 A 0.080008,0.080008 0.0 0,0 11.90625,71.25 L 11.90625,76.84375 A 0.080008,0.080008 0.0 0,0 11.9375,76.875 A 0.080008,0.080008 0.0 0,0 11.9375,76.90625 A 0.080008,0.080008 0.0 0,0 11.96875,76.90625 A 0.080008,0.080008 0.0 0,0 12.0,76.9375 L 15.1875,76.9375 A 0.080008,0.080008 0.0 0,0 15.21875,76.9375 A 0.080008,0.080008 0.0 0,0 15.21875,76.90625 A 0.080008,0.080008 0.0 0,0 15.25,76.90625 A 0.080008,0.080008 0.0 0,0 15.28125,76.875 A 0.080008,0.080008 0.0 0,0 15.28125,76.84375 L 15.28125,71.25 A 0.080008,0.080008 0.0 0,0 15.28125,71.21875 A 0.080008,0.080008 0.0 0,0 15.25,71.1875 A 0.080008,0.080008 0.0 0,0 15.21875,71.15625 A 0.080008,0.080008 0.0 0,0 15.1875,71.15625 L 12.0,71.15625 A 0.080008,0.080008 0.0 0,0 11.96875,71.15625 M 12.09375,71.3125 L 15.125,71.3125 L 15.125,76.75 L 12.09375,76.75 L 12.09375,71.3125" display="inline" fill="#000000" fill-opacity="1" fill-rule="nonzero" marker="none" overflow="visible" stroke="none" style="text-indent:0;text-transform:none;direction:ltr;block-progression:tb;baseline-shift:baseline;color:#000000;enable-background:accumulate;" visibility="visible"/>
	<path d="M 30.1875,71.15625 A 0.080008,0.080008 0.0 0,0 30.1875,71.1875 A 0.080008,0.080008 0.0 0,0 30.15625,71.1875 A 0.080008,0.080008 0.0 0,0 30.15625,71.21875 A 0.080008,0.080008 0.0 0,0 30.125,71.25 L 30.125,76.84375 A 0.080008,0.080008 0.0 0,0 30.15625,76.875 A 0.080008,0.080008 0.0 0,0 30.15625,76.90625 A 0.080008,0.080008 0.0 0,0 30.1875,76.90625 A 0.080008,0.080008 0.0 0,0 30.21875,76.9375 L 33.40625,76.9375 A 0.080008,0.080008 0.0 0,0 33.4375,76.9375 A 0.080008,0.080008 0.0 0,0 33.4375,76.90625 A 0.080008,0.080008 0.0 0,0 33.46875,76.90625 A 0.080008,0.080008 0.0 0,0 33.5,76.875 A 0.080008,0.080008 0.0 0,0 33.5,76.84375 L 33.5,71.25 A 0.080008,0.080008 0.0 0,0 33.5,71.21875 A 0.080008,0.080008 0.0 0,0 33.46875,71.1875 A 0.080008,0.080008 0.0 0,0 33.4375,71.15625 A 0.080008,0.080008 0.0 0,0 33.40625,71.15625 L 30.21875,71.15625 A 0.080008,0.080008 0.0 0,0 30.1875,71.15625 M 30.3125,71.3125 L 33.34375,71.3125 L 33.34375,76.75 L 30.3125,76.75 L 30.3125,71.3125" display="inline" fill="#000000" fill-opacity="1" fill-rule="nonzero" marker="none" overflow="visible" stroke="none" style="text-indent:0;text-transform:none;direction:ltr;block-progression:tb;baseline-shift:baseline;color:#000000;enable-background:accumulate;" visibility="visible"/>
	<path d="M 15.96875,65.125 A 0.080008,0.080008 0.0 0,0 15.9375,65.15625 A 0.080008,0.080008 0.0 0,0 15.9375,65.1875 A 0.080008,0.080008 0.0 0,0 15.90625,65.1875 A 0.080008,0.080008 0.0 0,0 15.90625,65.21875 L 15.90625,70.8125 A 0.080008,0.080008 0.0 0,0 15.9375,70.84375 A 0.080008,0.080008 0.0 0,0 15.9375,70.875 A 0.080008,0.080008 0.0 0,0 15.96875,70.875 A 0.080008,0.080008 0.0 0,0 16.0,70.875 L 19.1875,70.875 A 0.080008,0.080008 0.0 0,0 19.21875,70.875 A 0.080008,0.080008 0.0 0,0 19.25,70.875 A 0.080008,0.080008 0.0 0,0 19.28125,70.84375 A 0.080008,0.080008 0.0 0,0 19.28125,70.8125 L 19.28125,65.21875 A 0.080008,0.080008 0.0 0,0 19.28125,65.1875 A 0.080008,0.080008 0.0 0,0 19.28125,65.15625 A 0.080008,0.080008 0.0 0,0 19.25,65.15625 A 0.080008,0.080008 0.0 0,0 19.25,65.125 A 0.080008,0.080008 0.0 0,0 19.21875,65.125 A 0.080008,0.080008 0.0 0,0 19.1875,65.125 L 16.0,65.125 A 0.080008,0.080008 0.0 0,0 15.96875,65.125 M 16.09375,65.28125 L 19.125,65.28125 L 19.125,70.71875 L 16.09375,70.71875 L 16.09375,65.28125" display="inline" fill="#000000" fill-opacity="1" fill-rule="nonzero" marker="none" overflow="visible" stroke="none" style="text-indent:0;text-transform:none;direction:ltr;block-progression:tb;baseline-shift:baseline;color:#000000;enable-background:accumulate;" visibility="visible"/>
	<path d="M 11.96875,65.125 A 0.080008,0.080008 0.0 0,0 11.9375,65.15625 A 0.080008,0.080008 0.0 0,0 11.9375,65.1875 A 0.080008,0.080008 0.0 0,0 11.90625,65.1875 A 0.080008,0.080008 0.0 0,0 11.90625,65.21875 L 11.90625,70.8125 A 0.080008,0.080008 0.0 0,0 11.9375,70.84375 A 0.080008,0.080008 0.0 0,0 11.9375,70.875 A 0.080008,0.080008 0.0 0,0 11.96875,70.875 A 0.080008,0.080008 0.0 0,0 12.0,70.875 L 15.1875,70.875 A 0.080008,0.080008 0.0 0,0 15.21875,70.875 A 0.080008,0.080008 0.0 0,0 15.25,70.875 A 0.080008,0.080008 0.0 0,0 15.28125,70.84375 A 0.080008,0.080008 0.0 0,0 15.28125,70.8125 L 15.28125,65.21875 A 0.080008,0.080008 0.0 0,0 15.28125,65.1875 A 0.080008,0.080008 0.0 0,0 15.28125,65.15625 A 0.080008,0.080008 0.0 0,0 15.25,65.15625 A 0.080008,0.080008 0.0 0,0 15.25,65.125 A 0.080008,0.080008 0.0 0,0 15.21875,65.125 A 0.080008,0.080008 0.0 0,0 15.1875,65.125 L 12.0,65.125 A 0.080008,0.080008 0.0 0,0 11.96875,65.125 M 12.09375,65.28125 L 15.125,65.28125 L 15.125,70.71875 L 12.09375,70.71875 L 12.09375,65.28125" display="inline" fill="#000000" fill-opacity="1" fill-rule="nonzero" marker="none" overflow="visible" stroke="none" style="text-indent:0;text-transform:none;direction:ltr;block-progression:tb;baseline-shift:baseline;color:#000000;enable-background:accumulate;" visibility="visible"/>
	<path d="M 30.1875,65.125 A 0.080008,0.080008 0.0 0,0 30.15625,65.15625 A 0.080008,0.080008 0.0 0,0 30.15625,65.1875 A 0.080008,0.080008 0.0 0,0 30.125,65.21875 L 30.125,70.8125 A 0.080008,0.080008 0.0 0,0 30.15625,70.84375 A 0.080008,0.080008 0.0 0,0 30.15625,70.875 A 0.080008,0.080008 0.0 0,0 30.1875,70.875 A 0.080008,0.080008 0.0 0,0 30.21875,70.875 L 33.40625,70.875 A 0.080008,0.080008 0.0 0,0 33.4375,70.875 A 0.080008,0.080008 0.0 0,0 33.46875,70.875 A 0.080008,0.080008 0.0 0,0 33.5,70.84375 A 0.080008,0.080008 0.0 0,0 33.5,70.8125 L 33.5,65.21875 A 0.080008,0.080008 0.0 0,0 33.5,65.1875 A 0.080008,0.080008 0.0 0,0 33.5,65.15625 A 0.080008,0.080008 0.0 0,0 33.46875,65.15625 A 0.080008,0.080008 0.0 0,0 33.46875,65.125 A 0.080008,0.080008 0.0 0,0 33.4375,65.125 A 0.080008,0.080008 0.0 0,0 33.40625,65.125 L 30.21875,65.125 A 0.080008,0.080008 0.0 0,0 30.1875,65.125 M 30.3125,65.28125 L 33.34375,65.28125 L 33.34375,70.71875 L 30.3125,70.71875 L 30.3125,65.28125" display="inline" fill="#000000" fill-opacity="1" fill-rule="nonzero" marker="none" overflow="visible" stroke="none" style="text-indent:0;text-transform:none;direction:ltr;block-progression:tb;baseline-shift:baseline;color:#000000;enable-background:accumulate;" visibility="visible"/>
	<path d="M 58.28125,25.96875 L 58.25,28.0625 L 58.65625,28.0625 L 58.65625,25.96875 L 58.28125,25.96875" display="inline" fill="#000000" fill-opacity="1" marker="none" overflow="visible" stroke="none" style="text-indent:0;text-transform:none;direction:ltr;block-progression:tb;baseline-shift:baseline;color:#000000;enable-background:accumulate;" visibility="visible"/>
	<path d="M 57.34375,28.875 A 0.20002,0.20002 0.0 0,0 57.3125,28.90625 A 0.20002,0.20002 0.0 0,0 57.21875,29.0 A 0.20002,0.20002 0.0 0,0 57.1875,29.09375 L 57.1875,31.1875 A 0.20002,0.20002 0.0 0,0 57.1875,31.21875 A 0.20002,0.20002 0.0 0,0 57.28125,31.34375 A 0.20002,0.20002 0.0 0,0 57.3125,31.375 A 0.20002,0.20002 0.0 0,0 57.375,31.375 A 0.20002,0.20002 0.0 0,0 57.40625,31.375 A 0.20002,0.20002 0.0 0,0 57.5,31.34375 A 0.20002,0.20002 0.0 0,0 57.53125,31.3125 A 0.20002,0.20002 0.0 0,0 57.5625,31.28125 A 0.20002,0.20002 0.0 0,0 57.5625,31.21875 A 0.20002,0.20002 0.0 0,0 57.59375,31.1875 L 57.59375,29.09375 A 0.20002,0.20002 0.0 0,0 57.59375,29.03125 A 0.20002,0.20002 0.0 0,0 57.59375,29.0 A 0.20002,0.20002 0.0 0,0 57.5625,28.96875 A 0.20002,0.20002 0.0 0,0 57.53125,28.9375 A 0.20002,0.20002 0.0 0,0 57.5,28.90625 A 0.20002,0.20002 0.0 0,0 57.40625,28.875 A 0.20002,0.20002 0.0 0,0 57.375,28.875 A 0.20002,0.20002 0.0 0,0 57.34375,28.875" display="inline" fill="#000000" fill-opacity="1" marker="none" overflow="visible" stroke="none" style="text-indent:0;text-transform:none;direction:ltr;block-progression:tb;baseline-shift:baseline;color:#000000;enable-background:accumulate;" visibility="visible"/>
	<path d="M 26.354495,71.257638 L 29.554495,71.257638 L 29.554495,76.857638 L 26.354495,76.857638 L 26.354495,71.257638" fill="#000000" stroke="none"/>
	<path d="M 26.354495,65.219644 L 29.554495,65.219644 L 29.554495,70.819644 L 26.354495,70.819644 L 26.354495,65.219644" fill="#000000" stroke="none"/>
	<path d="M 55.667535,24.999667 L 59.267535,24.999667 C 59.599935,24.999667 59.867535000000004,25.267267 59.867535000000004,25.599667 C 59.867535000000004,25.932067 59.599935,26.199667 59.267535,26.199667 L 55.667535,26.199667 C 55.335135,26.199667 55.067535,25.932067 55.067535,25.599667 C 55.067535,25.267267 55.335135,24.999667 55.667535,24.999667" fill="#000000" fill-opacity="1" stroke="none"/>
	<path d="M 58.569135,28.073151 C 58.569135,28.673956999999998 58.082085000000006,29.161006999999998 57.481275000000004,29.161006999999998 C 56.880475000000004,29.161006999999998 56.393425,28.673956999999998 56.393425,28.073151 C 56.393425,27.472344 56.880475000000004,26.985294 57.481275000000004,26.985294 C 58.082085000000006,26.985294 58.569135,27.472344 58.569135,28.073151" fill="#000000" fill-opacity="1" stroke="none"/>
	<path d="M 3.1955182,26.412971 L 6.3955182,26.412971 L 6.3955182,32.012971 L 3.1955181999999995,32.012971 L 3.1955182,26.412971" fill="#000000" stroke="none"/>
	<path d="M 7.1955182,26.412971 L 10.395518000000001,26.412971 L 10.395518000000001,32.012971 L 7.1955182,32.012971 L 7.1955182,26.412971" fill="#000000" stroke="none"/>
	<path d="M 15.995518,71.257638 L 19.195518,71.257638 L 19.195518,76.857638 L 15.995518,76.857638 L 15.995518,71.257638" fill="#000000" stroke="none"/>
	<path d="M 11.995518,71.257638 L 15.195518,71.257638 L 15.195518,76.857638 L 11.995518,76.857638 L 11.995518,71.257638" fill="#000000" stroke="none"/>
	<path d="M 30.215725,71.257638 L 33.415725,71.257638 L 33.415725,76.857638 L 30.215725000000003,76.857638 L 30.215725,71.257638" fill="#000000" stroke="none"/>
	<path d="M 15.995518,65.219644 L 19.195518,65.219644 L 19.195518,70.819644 L 15.995518,70.819644 L 15.995518,65.219644" fill="#000000" stroke="none"/>
	<path d="M 11.995518,65.219644 L 15.195518,65.219644 L 15.195518,70.819644 L 11.995518,70.819644 L 11.995518,65.219644" fill="#000000" stroke="none"/>
	<path d="M 30.215725,65.219644 L 33.415725,65.219644 L 33.415725,70.819644 L 30.215725000000003,70.819644 L 30.215725,65.219644" fill="#000000" stroke="none"/>
	<path d="M 16.637245,37.362267 L 28.799999,37.362267 L 28.799999,37.915119450000006 L 16.637245,37.915119450000006 L 16.637245,37.362267" fill="#000000" fill-opacity="1" height="0.55285245" stroke="none" width="12.162754" x="16.637245" y="37.362267"/>
</svg>
