<?xml version="1.0" ?>
<svg xmlns="http://www.w3.org/2000/svg" xmlns:ev="http://www.w3.org/2001/xml-events" xmlns:xlink="http://www.w3.org/1999/xlink" baseProfile="full" enable-background="new 0 0 100 68" height="402px" version="1.1" viewBox="0 0 100 68" width="600px" x="0px" xml:space="preserve" y="0px">
	<defs/>
	<path d="M 50.976,45.713 L 99.601,21.468 L 50.975,0.945 L 0.991,21.468 L 11.9,26.76 C 11.652000000000001,33.043 10.97,45.29600000000001 10.178,49.258 C 9.523000000000001,52.535000000000004 6.353000000000001,57.205000000000005 0.41600000000000037,63.138000000000005 C 0.18800000000000036,63.367000000000004 -0.10099999999999965,63.705000000000005 0.02900000000000036,64.01700000000001 C 0.16500000000000037,64.346 0.6470000000000004,64.346 0.8060000000000004,64.346 C 2.3400000000000003,64.346 6.521,62.93000000000001 8.694,61.483000000000004 C 9.012,61.27 9.302000000000001,61.163000000000004 9.556000000000001,61.163000000000004 C 10.509,61.163000000000004 11.063,62.732000000000006 11.599,64.25 C 12.108,65.691 12.588000000000001,67.053 13.468,67.493 C 13.600999999999999,67.559 13.738,67.59299999999999 13.876,67.59299999999999 C 14.183,67.59299999999999 14.472999999999999,67.42999999999999 14.757,67.10799999999999 C 16.377,65.273 17.602,57.95799999999999 16.766,51.27499999999999 C 16.003999999999998,45.17899999999999 16.386999999999997,34.78899999999999 16.974999999999998,29.222999999999992 L 50.976,45.713 M 50.324,11.165 C 52.567,11.165 54.393,12.991 54.393,15.235 C 54.393,17.479 52.567,19.304 50.324,19.304 C 48.080999999999996,19.304 46.256,17.479 46.256,15.235 C 46.256,12.991 48.081,11.165 50.324,11.165" fill="#000000"/>
	<path d="M 76.0,36.0 L 76.0,47.665 L 50.854,62.69 L 25.0,47.665 L 25.0,36.0 L 51.007,48.873 L 76.0,36.0" fill="#000000" points="76,36 76,47.665 50.854,62.69 25,47.665 25,36 51.007,48.873 "/>
</svg>
