<?xml version="1.0" ?>
<svg xmlns="http://www.w3.org/2000/svg" xmlns:ev="http://www.w3.org/2001/xml-events" xmlns:xlink="http://www.w3.org/1999/xlink" baseProfile="full" enable-background="new 0 0 91.5 97.6" height="600px" version="1.1" viewBox="0 0 91.5 97.6" width="563px" x="0px" xml:space="preserve" y="0px">
	<defs/>
	<path d="M 86.6,10.3 C 86.6,10.200000000000001 86.6,10.200000000000001 86.6,10.200000000000001 C 85.1,8.200000000000001 83.3,6.500000000000001 81.19999999999999,4.900000000000001 L 81.19999999999999,5.0 C 79.49999999999999,6.3 77.79999999999998,7.7 76.19999999999999,9.1 C 75.49999999999999,8.7 74.89999999999999,8.4 74.29999999999998,8.1 C 73.49999999999999,7.699999999999999 72.69999999999999,7.3 71.79999999999998,7.1 C 71.49999999999999,7.0 71.19999999999999,6.8999999999999995 70.89999999999998,6.8999999999999995 C 70.69999999999997,4.699999999999999 70.49999999999997,2.499999999999999 70.19999999999997,0.2999999999999998 C 69.19999999999997,0.09999999999999981 68.19999999999997,0.09999999999999981 67.09999999999998,-1.6653345369377348e-16 C 66.79999999999998,-1.6653345369377348e-16 66.49999999999999,-1.6653345369377348e-16 66.29999999999998,-1.6653345369377348e-16 C 65.99999999999999,-1.6653345369377348e-16 65.69999999999999,-1.6653345369377348e-16 65.49999999999999,-1.6653345369377348e-16 C 64.49999999999999,0.09999999999999984 63.59999999999999,0.09999999999999984 62.69999999999999,0.2999999999999998 C 62.39999999999999,2.4 62.19999999999999,4.6 62.09999999999999,6.8 C 61.69999999999999,6.8 61.399999999999984,6.8999999999999995 60.999999999999986,7.0 C 60.899999999999984,7.0 60.79999999999998,7.0 60.69999999999999,7.1 C 59.89999999999999,7.3 59.09999999999999,7.699999999999999 58.29999999999999,8.1 C 57.59999999999999,8.4 56.99999999999999,8.7 56.39999999999999,9.1 C 54.69999999999999,7.699999999999999 53.099999999999994,6.3999999999999995 51.39999999999999,5.0 C 51.39999999999999,5.0 51.39999999999999,5.0 51.29999999999999,4.9 C 50.89999999999999,5.2 50.49999999999999,5.5 50.19999999999999,5.800000000000001 C 49.499999999999986,6.300000000000001 48.89999999999999,6.9 48.39999999999999,7.500000000000001 C 47.49999999999999,8.3 46.79999999999999,9.3 45.99999999999999,10.3 C 45.99999999999999,10.3 45.99999999999999,10.3 46.099999999999994,10.3 C 47.39999999999999,12.0 48.8,13.600000000000001 50.199999999999996,15.3 C 49.8,15.9 49.4,16.6 49.099999999999994,17.2 C 48.699999999999996,18.0 48.39999999999999,18.9 48.199999999999996,19.7 C 47.99999999999999,20.099999999999998 47.9,20.5 47.9,20.8 C 45.699999999999996,21.0 43.5,21.2 41.4,21.5 C 41.199999999999996,22.5 41.1,23.5 41.1,24.6 C 41.1,26.1 41.2,27.6 41.5,29.0 C 43.6,29.2 45.7,29.4 47.9,29.6 C 47.9,30.0 48.0,30.400000000000002 48.199999999999996,30.700000000000003 C 48.4,31.6 48.699999999999996,32.400000000000006 49.099999999999994,33.300000000000004 C 49.49999999999999,34.00000000000001 49.8,34.7 50.3,35.300000000000004 C 48.9,37.00000000000001 47.5,38.6 46.199999999999996,40.300000000000004 C 47.699999999999996,42.400000000000006 49.49999999999999,44.2 51.599999999999994,45.7 L 51.599999999999994,45.6 C 53.199999999999996,44.300000000000004 54.89999999999999,42.9 56.49999999999999,41.5 L 56.599999999999994,41.5 C 57.099999999999994,41.8 57.699999999999996,42.1 58.199999999999996,42.4 C 59.099999999999994,42.8 60.099999999999994,43.199999999999996 60.99999999999999,43.4 C 61.39999999999999,43.5 61.699999999999996,43.6 61.99999999999999,43.699999999999996 C 62.199999999999996,45.8 62.39999999999999,47.99999999999999 62.699999999999996,50.199999999999996 C 63.599999999999994,50.3 64.5,50.4 65.5,50.4 C 65.7,50.4 66.3,50.4 67.0,50.4 C 68.1,50.4 69.2,50.3 70.3,50.1 C 70.5,48.0 70.7,45.800000000000004 70.89999999999999,43.6 C 71.19999999999999,43.5 71.49999999999999,43.4 71.8,43.300000000000004 L 71.8,43.300000000000004 C 72.7,43.1 73.5,42.800000000000004 74.3,42.400000000000006 C 75.0,42.10000000000001 75.7,41.7 76.39999999999999,41.2 C 76.39999999999999,41.300000000000004 76.39999999999999,41.300000000000004 76.49999999999999,41.300000000000004 C 78.09999999999998,42.7 79.79999999999998,44.1 81.49999999999999,45.400000000000006 C 81.79999999999998,45.2 82.09999999999998,45.00000000000001 82.49999999999999,44.7 C 83.09999999999998,44.2 83.69999999999999,43.6 84.19999999999999,43.0 C 85.1,42.1 85.99999999999999,41.1 86.79999999999998,40.0 C 85.39999999999998,38.3 83.99999999999999,36.6 82.59999999999998,35.0 C 82.59999999999998,34.9 82.59999999999998,34.9 82.59999999999998,34.9 C 82.89999999999998,34.4 83.19999999999997,33.8 83.49999999999999,33.199999999999996 C 83.79999999999998,32.4 84.19999999999999,31.599999999999994 84.39999999999999,30.799999999999997 C 84.39999999999999,30.699999999999996 84.39999999999999,30.599999999999998 84.49999999999999,30.599999999999998 C 84.49999999999999,30.2 84.59999999999998,29.9 84.69999999999999,29.7 C 86.89999999999999,29.5 89.1,29.3 91.19999999999999,29.099999999999998 C 91.39999999999999,28.099999999999998 91.39999999999999,27.099999999999998 91.49999999999999,26.099999999999998 C 91.49999999999999,25.799999999999997 91.49999999999999,25.499999999999996 91.49999999999999,25.2 C 91.49999999999999,25.0 91.49999999999999,24.7 91.49999999999999,24.4 C 91.39999999999999,23.4 91.39999999999999,22.4 91.19999999999999,21.4 C 89.1,21.2 86.89999999999999,21.0 84.69999999999999,20.799999999999997 C 84.6,20.499999999999996 84.49999999999999,20.199999999999996 84.49999999999999,19.9 C 84.19999999999999,19.0 83.89999999999999,18.099999999999998 83.49999999999999,17.2 C 83.19999999999999,16.599999999999998 82.79999999999998,15.899999999999999 82.49999999999999,15.299999999999999 C 83.8,13.7 85.2,12.0 86.6,10.3 M 59.9,18.6 C 61.699999999999996,16.700000000000003 63.9,15.8 66.4,15.900000000000002 C 69.0,15.800000000000002 71.10000000000001,16.700000000000003 73.0,18.6 C 74.8,20.400000000000002 75.7,22.6 75.7,25.1 C 75.7,27.700000000000003 74.8,29.8 73.0,31.700000000000003 C 71.1,33.5 69.0,34.400000000000006 66.4,34.400000000000006 C 63.900000000000006,34.400000000000006 61.7,33.50000000000001 59.900000000000006,31.700000000000006 C 58.10000000000001,29.800000000000008 57.2,27.700000000000006 57.2,25.10000000000001 C 57.2,22.6 58.1,20.4 59.9,18.6"/>
	<path d="M 66.5,17.2 C 64.3,17.2 62.5,18.0 60.9,19.5 C 59.4,21.1 58.6,22.9 58.6,25.1 C 58.6,27.300000000000004 59.4,29.1 60.9,30.700000000000003 L 60.9,30.700000000000003 C 62.5,32.300000000000004 64.3,33.1 66.5,33.1 C 68.7,33.1 70.5,32.300000000000004 72.1,30.700000000000003 L 72.1,30.700000000000003 C 73.69999999999999,29.1 74.39999999999999,27.300000000000004 74.39999999999999,25.1 L 74.39999999999999,25.1 C 74.39999999999999,22.900000000000002 73.69999999999999,21.1 72.1,19.5 C 70.5,18.0 68.7,17.2 66.5,17.2 M 62.3,20.9 C 63.5,19.799999999999997 64.89999999999999,19.2 66.5,19.2 C 68.10000000000001,19.2 69.5,19.8 70.7,20.9 C 71.9,22.099999999999998 72.4,23.4 72.4,25.099999999999998 L 72.4,25.099999999999998 C 72.4,26.799999999999997 71.9,28.2 70.7,29.299999999999997 C 69.5,30.499999999999996 68.10000000000001,31.099999999999998 66.5,31.099999999999998 C 64.89999999999999,31.099999999999998 63.5,30.499999999999996 62.3,29.299999999999997 C 61.199999999999996,28.199999999999996 60.599999999999994,26.799999999999997 60.599999999999994,25.099999999999998 C 60.6,23.5 61.2,22.1 62.3,20.9"/>
	<path d="M 40.8,33.6 C 40.4,33.4 40.099999999999994,33.300000000000004 39.8,33.300000000000004 C 38.599999999999994,33.00000000000001 37.4,32.800000000000004 36.199999999999996,32.6 C 35.099999999999994,35.300000000000004 34.199999999999996,37.9 33.3,40.5 C 32.8,40.5 32.3,40.5 31.9,40.5 C 31.7,40.5 31.599999999999998,40.5 31.5,40.5 C 30.3,40.6 29.2,40.7 28.1,40.9 C 27.200000000000003,41.0 26.3,41.3 25.400000000000002,41.6 C 23.8,39.300000000000004 22.1,37.0 20.5,34.800000000000004 C 20.4,34.7 20.4,34.7 20.4,34.7 C 19.799999999999997,34.900000000000006 19.2,35.1 18.7,35.400000000000006 C 17.7,35.800000000000004 16.8,36.300000000000004 15.899999999999999,36.900000000000006 C 14.499999999999998,37.60000000000001 13.2,38.50000000000001 11.999999999999998,39.60000000000001 C 11.999999999999998,39.60000000000001 11.999999999999998,39.60000000000001 11.999999999999998,39.70000000000001 C 13.199999999999998,42.20000000000001 14.299999999999997,44.70000000000001 15.499999999999998,47.20000000000001 C 14.799999999999999,47.90000000000001 14.199999999999998,48.50000000000001 13.599999999999998,49.30000000000001 C 12.799999999999997,50.10000000000001 12.099999999999998,51.10000000000001 11.499999999999998,52.10000000000001 L 11.499999999999998,52.10000000000001 C 11.199999999999998,52.50000000000001 10.999999999999998,52.900000000000006 10.799999999999999,53.400000000000006 C 7.999999999999999,52.900000000000006 5.199999999999999,52.400000000000006 2.3999999999999986,52.00000000000001 C 1.8999999999999986,53.20000000000001 1.3999999999999986,54.400000000000006 0.9999999999999987,55.70000000000001 C 0.5999999999999986,57.70000000000001 0.19999999999999862,59.60000000000001 -1.3322676295501878e-15,61.50000000000001 C 2.5999999999999988,62.50000000000001 5.199999999999999,63.50000000000001 7.799999999999999,64.5 C 7.799999999999999,64.9 7.799999999999999,65.4 7.799999999999999,65.9 C 7.799999999999999,67.0 7.899999999999999,68.2 8.2,69.4 C 8.299999999999999,70.4 8.6,71.4 8.899999999999999,72.4 C 6.599999999999999,74.0 4.399999999999999,75.60000000000001 2.0999999999999988,77.30000000000001 C 3.299999999999999,80.30000000000001 4.999999999999998,83.10000000000001 6.999999999999999,85.70000000000002 C 6.999999999999999,85.70000000000002 6.999999999999999,85.70000000000002 7.099999999999999,85.70000000000002 C 9.599999999999998,84.50000000000001 12.099999999999998,83.40000000000002 14.7,82.20000000000002 L 14.7,82.20000000000002 C 15.299999999999999,82.80000000000001 15.899999999999999,83.30000000000001 16.5,83.90000000000002 C 17.4,84.70000000000002 18.5,85.40000000000002 19.7,86.10000000000002 C 20.0,86.30000000000003 20.4,86.50000000000003 20.8,86.80000000000003 C 20.3,89.50000000000003 19.900000000000002,92.30000000000003 19.5,95.10000000000002 C 20.6,95.60000000000002 21.7,96.00000000000003 22.9,96.30000000000003 C 23.2,96.40000000000002 23.799999999999997,96.60000000000002 24.799999999999997,96.80000000000003 C 26.199999999999996,97.20000000000003 27.599999999999998,97.40000000000002 28.9,97.60000000000002 C 30.0,94.90000000000002 31.0,92.30000000000003 31.9,89.60000000000002 C 32.3,89.60000000000002 32.699999999999996,89.60000000000002 33.1,89.60000000000002 L 33.2,89.60000000000002 C 34.400000000000006,89.60000000000002 35.5,89.50000000000003 36.6,89.30000000000003 C 37.6,89.10000000000002 38.6,88.80000000000003 39.6,88.50000000000003 C 39.6,88.50000000000003 39.6,88.60000000000002 39.7,88.60000000000002 C 41.300000000000004,90.90000000000002 43.0,93.20000000000002 44.6,95.50000000000003 C 45.1,95.20000000000003 45.6,95.00000000000003 46.0,94.80000000000003 C 47.0,94.40000000000002 47.9,93.90000000000002 48.8,93.40000000000002 C 50.3,92.50000000000001 51.699999999999996,91.50000000000001 53.0,90.40000000000002 C 51.9,87.80000000000003 50.7,85.30000000000003 49.5,82.70000000000002 L 49.5,82.70000000000002 C 50.1,82.10000000000002 50.6,81.50000000000001 51.2,80.90000000000002 C 51.900000000000006,80.00000000000001 52.6,79.00000000000001 53.2,78.10000000000002 C 53.2,78.00000000000003 53.300000000000004,77.90000000000002 53.300000000000004,77.80000000000003 C 53.50000000000001,77.50000000000003 53.7,77.10000000000002 53.900000000000006,76.80000000000003 C 56.7,77.30000000000003 59.50000000000001,77.70000000000003 62.300000000000004,78.20000000000003 C 62.800000000000004,77.00000000000003 63.2,75.80000000000003 63.6,74.50000000000003 C 63.7,74.20000000000003 63.800000000000004,73.90000000000003 63.9,73.50000000000003 C 64.0,73.20000000000003 64.0,72.90000000000003 64.2,72.50000000000003 C 64.4,71.20000000000003 64.7,69.90000000000003 64.8,68.70000000000003 C 62.199999999999996,67.60000000000004 59.5,66.70000000000003 56.9,65.70000000000003 C 56.9,65.30000000000003 56.9,65.00000000000003 56.9,64.50000000000003 C 56.9,63.300000000000026 56.8,62.00000000000003 56.5,60.800000000000026 C 56.4,59.90000000000003 56.1,59.00000000000003 55.9,58.10000000000002 C 58.199999999999996,56.50000000000002 60.5,54.800000000000026 62.699999999999996,53.10000000000002 C 62.699999999999996,53.10000000000002 62.699999999999996,53.10000000000002 62.8,53.10000000000002 C 61.599999999999994,50.10000000000002 60.0,47.300000000000026 57.8,44.700000000000024 L 57.8,44.700000000000024 C 55.199999999999996,45.800000000000026 52.699999999999996,47.00000000000002 50.199999999999996,48.200000000000024 C 49.49999999999999,47.50000000000002 48.8,46.800000000000026 48.099999999999994,46.200000000000024 C 47.199999999999996,45.50000000000002 46.3,44.800000000000026 45.3,44.300000000000026 C 45.0,44.00000000000003 44.599999999999994,43.800000000000026 44.3,43.60000000000002 C 44.699999999999996,40.800000000000026 45.199999999999996,38.00000000000002 45.599999999999994,35.200000000000024 C 44.39999999999999,34.700000000000024 43.099999999999994,34.200000000000024 41.8,33.800000000000026 C 41.5,33.7 41.1,33.6 40.8,33.6 M 22.2,71.0 C 20.5,68.1 20.099999999999998,65.1 21.0,61.9 C 21.8,58.699999999999996 23.7,56.3 26.6,54.6 C 29.400000000000002,53.0 32.5,52.6 35.6,53.4 C 38.800000000000004,54.3 41.300000000000004,56.1 42.9,59.0 C 44.6,61.9 45.0,64.9 44.1,68.1 C 43.300000000000004,71.3 41.4,73.69999999999999 38.6,75.3 C 35.6,77.0 32.6,77.39999999999999 29.5,76.5 C 26.3,75.7 23.8,73.8 22.2,71.0"/>
	<path d="M 22.8,62.4 C 22.0,65.1 22.3,67.7 23.7,70.1 L 23.8,70.1 C 25.2,72.6 27.3,74.1 30.0,74.89999999999999 C 32.7,75.6 35.3,75.3 37.8,73.89999999999999 L 37.8,73.89999999999999 C 40.3,72.39999999999999 41.8,70.39999999999999 42.599999999999994,67.69999999999999 L 42.599999999999994,67.6 C 43.3,64.89999999999999 42.89999999999999,62.3 41.49999999999999,59.89999999999999 C 40.099999999999994,57.39999999999999 37.99999999999999,55.79999999999999 35.29999999999999,55.099999999999994 C 32.59999999999999,54.3 29.89999999999999,54.699999999999996 27.49999999999999,56.099999999999994 C 25.0,57.5 23.5,59.6 22.8,62.4 M 28.8,58.4 C 30.7,57.3 32.6,57.0 34.6,57.6 C 36.6,58.1 38.2,59.300000000000004 39.300000000000004,61.2 C 40.400000000000006,63.0 40.6,65.0 40.1,67.0 C 39.5,69.0 38.300000000000004,70.6 36.5,71.6 L 36.5,71.69999999999999 C 34.6,72.69999999999999 32.7,72.99999999999999 30.7,72.39999999999999 C 28.599999999999998,71.89999999999999 27.099999999999998,70.69999999999999 26.0,68.8 C 25.0,67.0 24.7,65.1 25.2,63.0 C 25.8,61.0 27.0,59.5 28.8,58.4"/>
</svg>
