<?xml version="1.0" ?>
<svg xmlns="http://www.w3.org/2000/svg" xmlns:ev="http://www.w3.org/2001/xml-events" xmlns:xlink="http://www.w3.org/1999/xlink" baseProfile="full" enable-background="new 0 0 100 85.066" height="511px" version="1.1" viewBox="0 0 100 85.066" width="600px" x="0px" xml:space="preserve" y="0px">
	<defs/>
	<path d="M 99.768,2.645 C 99.44800000000001,1.558 98.786,0.7390000000000001 97.8,0.21300000000000008 C 97.538,0.071 97.208,0.0 96.822,0.0 C 94.315,0.0 88.973,3.05 82.788,6.583 C 77.059,9.854 70.565,13.563 65.484,15.275 C 62.60099999999999,16.246 59.35099999999999,17.435000000000002 55.91,18.694 C 44.425,22.895 31.406999999999996,27.656999999999996 23.339999999999996,27.656999999999996 C 20.424999999999997,27.656999999999996 18.375999999999998,27.009999999999998 17.247999999999998,25.733999999999995 C 17.063999999999997,25.525999999999996 16.782999999999998,25.525999999999996 16.689999999999998,25.525999999999996 C 14.715999999999998,25.525999999999996 3.4719999999999978,30.807999999999996 0.6789999999999985,34.763 C 0.05199999999999849,35.650999999999996 -0.14200000000000146,36.452 0.10299999999999854,37.144 C 3.125,45.667 12.652,52.793 15.5,54.773 C 15.817,54.994 16.177,55.106 16.57,55.106 C 17.557,55.106 18.603,54.398 19.615000000000002,53.712 C 20.802000000000003,52.909000000000006 22.001,52.120000000000005 22.709000000000003,52.727000000000004 C 23.837000000000003,53.693000000000005 23.161000000000005,55.344 22.378000000000004,57.256 C 21.683000000000003,58.953 20.964000000000002,60.708 21.467000000000002,62.253 C 23.577,68.732 29.253,73.231 34.743,77.57900000000001 C 35.857,78.462 36.96,79.33600000000001 38.019000000000005,80.21600000000001 C 38.54800000000001,80.655 39.074000000000005,81.168 39.632000000000005,81.712 C 40.53600000000001,82.592 41.470000000000006,83.501 42.48100000000001,84.15 C 43.45400000000001,84.774 44.31300000000001,85.06500000000001 45.18400000000001,85.06500000000001 C 45.387000000000015,85.06500000000001 45.59200000000001,85.049 45.80000000000001,85.01500000000001 C 49.97300000000001,84.32700000000001 63.85800000000001,78.20800000000001 67.06700000000001,74.33100000000002 C 72.33600000000001,67.97000000000001 76.203,58.34800000000001 79.94300000000001,49.04300000000002 C 81.92300000000002,44.11300000000002 83.97200000000001,39.01600000000002 86.18,34.55000000000002 C 87.637,31.60300000000002 89.429,28.36700000000002 91.16300000000001,25.237000000000016 C 96.289,15.988 101.126,7.25 99.768,2.645 M 45.813,74.503 L 45.86,74.5 C 46.105,74.5 46.365,74.875 46.617,75.237 C 46.964999999999996,75.738 47.358999999999995,76.30399999999999 48.013999999999996,76.39 C 48.449,76.44800000000001 48.897999999999996,76.476 49.348,76.476 C 54.872,76.476 59.844,72.251 61.725,70.43599999999999 C 70.388,62.07499999999999 74.49000000000001,50.19199999999999 78.455,38.69799999999999 C 79.93299999999999,34.41799999999999 81.46,29.992999999999995 83.192,25.856999999999992 C 84.372,23.040999999999993 85.333,19.859999999999992 86.26199999999999,16.783999999999992 C 87.55199999999999,12.511999999999992 88.77099999999999,8.476999999999991 90.47499999999998,5.595999999999991 C 90.67199999999998,5.260999999999991 91.21499999999997,5.034999999999991 91.82599999999998,5.034999999999991 C 92.29699999999998,5.034999999999991 92.71199999999997,5.169999999999991 92.93399999999998,5.395999999999991 C 94.24699999999999,6.726999999999991 93.42999999999998,9.03599999999999 92.63899999999998,11.26999999999999 C 92.39799999999998,11.95399999999999 92.16899999999998,12.60099999999999 92.00299999999999,13.21599999999999 C 89.21099999999998,23.56499999999999 84.06499999999998,33.29599999999999 79.08899999999998,42.70599999999999 C 77.89199999999998,44.96699999999999 76.69799999999998,47.225999999999985 75.53599999999999,49.490999999999985 C 74.49399999999999,51.52099999999999 73.52299999999998,53.664999999999985 72.585,55.73699999999999 C 69.98899999999999,61.469999999999985 67.306,67.39899999999999 62.785999999999994,71.68299999999999 C 59.24699999999999,75.035 54.400999999999996,79.62599999999999 49.52499999999999,79.62599999999999 C 48.90899999999999,79.62599999999999 48.300999999999995,79.55 47.71499999999999,79.401 C 47.49799999999999,79.345 47.34699999999999,79.292 47.21099999999999,79.21799999999999 C 47.03999999999999,79.12599999999999 46.87299999999999,78.99699999999999 46.715999999999994,78.871 C 45.779999999999994,78.11999999999999 45.12799999999999,76.76599999999999 45.129999999999995,75.57799999999999 C 45.134,75.153 45.463,74.554 45.813,74.503 M 34.733,48.851 C 33.998,49.789 34.549,50.916 35.035999999999994,51.911 C 35.373,52.598 35.721,53.307 35.65599999999999,53.904 C 35.50399999999999,55.30200000000001 34.587999999999994,56.605000000000004 33.70199999999999,57.865 C 32.61199999999999,59.416000000000004 31.484999999999992,61.02 31.65199999999999,62.912 C 31.94499999999999,66.229 33.67799999999999,67.928 35.87199999999999,70.076 C 37.788999999999994,71.95299999999999 39.96099999999999,74.082 41.85399999999999,77.93799999999999 C 41.840999999999994,78.103 41.17399999999999,78.52899999999998 40.471999999999994,78.52899999999998 C 40.199999999999996,78.52899999999998 40.096999999999994,78.45599999999999 40.07299999999999,78.43299999999998 C 34.431999999999995,73.41199999999998 26.444999999999993,63.70399999999998 24.687999999999995,61.40299999999998 C 24.163999999999994,60.717999999999975 24.873999999999995,59.934999999999974 26.104999999999997,58.726999999999975 C 27.192999999999998,57.65899999999998 28.318999999999996,56.553999999999974 28.229999999999997,55.23799999999998 C 28.043999999999997,52.48399999999998 24.72,49.94499999999998 24.054999999999996,49.46399999999998 C 23.474999999999998,49.043999999999976 22.788999999999994,48.830999999999975 22.015999999999995,48.830999999999975 C 19.769999999999996,48.830999999999975 17.367999999999995,50.63199999999998 16.556999999999995,51.29899999999998 C 13.096999999999994,48.229999999999976 7.144999999999994,42.64999999999998 4.117999999999995,38.074999999999974 C 3.910999999999995,37.76199999999997 3.894999999999995,37.46699999999998 4.067999999999995,37.14599999999997 C 4.807999999999995,35.76799999999997 8.625999999999994,34.46999999999997 11.044999999999995,34.46999999999997 C 11.138999999999994,34.46999999999997 11.229999999999995,34.47199999999997 11.316999999999995,34.47599999999997 C 14.226999999999995,34.61999999999997 16.441999999999993,37.46399999999997 18.583999999999996,40.21499999999997 C 20.837999999999997,43.10999999999997 23.169999999999995,46.10499999999997 26.416999999999994,46.10499999999997 C 26.898999999999994,46.10499999999997 27.395999999999994,46.03799999999997 27.892999999999994,45.90599999999997 C 34.501999999999995,44.14599999999997 53.37299999999999,28.95999999999997 64.03299999999999,20.06399999999997 C 64.76199999999999,19.45599999999997 66.64099999999999,18.96099999999997 68.22299999999998,18.96099999999997 C 69.28799999999998,18.96099999999997 69.70899999999999,19.19299999999997 69.78399999999999,19.31599999999997 C 69.82199999999999,19.37999999999997 69.776,19.49399999999997 69.731,19.57799999999997 C 67.37899999999999,23.99299999999997 61.038,28.233999999999973 54.324999999999996,32.723999999999975 C 47.468,37.308 39.697,42.506 34.733,48.851" fill="#010101"/>
</svg>
