<?xml version="1.0" ?>
<svg xmlns="http://www.w3.org/2000/svg" xmlns:cc="http://creativecommons.org/ns#" xmlns:dc="http://purl.org/dc/elements/1.1/" xmlns:ev="http://www.w3.org/2001/xml-events" xmlns:inkscape="http://www.inkscape.org/namespaces/inkscape" xmlns:rdf="http://www.w3.org/1999/02/22-rdf-syntax-ns#" xmlns:sodipodi="http://sodipodi.sourceforge.net/DTD/sodipodi-0.dtd" xmlns:svg="http://www.w3.org/2000/svg" xmlns:xlink="http://www.w3.org/1999/xlink" baseProfile="full" height="509px" version="1.1" viewBox="0 0 80 80" width="600px" x="0px" y="0px">
	<defs/>
	<path d="M 17.596936,20.196571 L 14.771267,24.77487 C 14.765967,24.775156 14.738937,24.77077 14.735497,24.77487 C 14.732197000000001,24.77897 14.735497,24.80434 14.735497,24.81064 L 14.735497,26.74211 C 15.430447000000001,27.371856 15.880072,28.310306 15.880072,29.353171 C 15.880072,30.396035 15.430447000000001,31.334485 14.735497,31.964232 L 14.735497,64.799218 C 14.735497,64.811768 14.760777000000001,64.834988 14.771267,64.834988 L 20.458372,64.834988 C 20.468822,64.834988 20.494202,64.81182799999999 20.494142,64.799218 L 20.494142,31.642319999999998 C 19.969019,31.034285999999998 19.635711,30.234813999999997 19.635711,29.353170999999996 C 19.635711,28.471527999999996 19.969019,27.672054999999997 20.494142,27.064020999999997 L 20.494142,24.810639999999996 C 20.494142,24.804339999999996 20.461812,24.779019999999996 20.458372,24.774869999999996 L 17.596936,20.196570999999995 L 17.596936,20.196571" fill="#000000" fill-opacity="1" stroke="none"/>
	<path d="M 25.842683,15.432339 L 23.017014,20.010638 C 23.011714,20.010924 22.984683999999998,20.006538 22.981244,20.010638 C 22.977944,20.014738 22.981244,20.040108 22.981244,20.046408 L 22.981244,21.977877 C 23.676194,22.607623999999998 24.125819,23.546074 24.125819,24.588939 C 24.125819,25.631803 23.676194,26.570253 22.981244,27.2 L 22.981244,64.834986 C 22.981244,64.847576 23.006524,64.870756 23.017014,64.870756 L 28.704119,64.870756 C 28.714568999999997,64.870756 28.739949,64.847596 28.739888999999998,64.834986 L 28.739888999999998,26.878087999999998 C 28.214765999999997,26.270054 27.881458,25.470581 27.881458,24.588938999999996 C 27.881458,23.707295999999996 28.214765999999997,22.907822999999997 28.739888999999998,22.299788999999997 L 28.739888999999998,20.046407999999996 C 28.739888999999998,20.040107999999996 28.707558999999996,20.014787999999996 28.704119,20.010637999999997 L 25.842683,15.432339" fill="#000000" fill-opacity="1" stroke="none"/>
	<path d="M 34.124198,10.596571 L 31.298529,15.174870000000002 C 31.293229,15.175156000000001 31.266198999999997,15.170770000000003 31.262759,15.174870000000002 C 31.259459,15.178970000000001 31.262759,15.204340000000002 31.262759,15.210640000000001 L 31.262759,17.142110000000002 C 31.957708999999998,17.771856000000003 32.407333,18.710306000000003 32.407333,19.753171000000002 C 32.407333,20.796035000000003 31.957709,21.734485000000003 31.262759000000003,22.364232 L 31.262759000000003,64.799218 C 31.262759000000003,64.811808 31.288039,64.834988 31.298529000000002,64.834988 L 36.985634000000005,64.834988 C 36.996084,64.834988 37.021464,64.81182799999999 37.021404000000004,64.799218 L 37.021404000000004,22.042319999999997 C 36.496281,21.434285999999997 36.162973,20.634813999999995 36.162973,19.753170999999995 C 36.162973,18.871527999999994 36.496281,18.072054999999995 37.021404000000004,17.464020999999995 L 37.021404000000004,15.210639999999994 C 37.021404000000004,15.204339999999995 36.989074,15.179019999999994 36.985634000000005,15.174869999999995 L 34.124198,10.596571" fill="#000000" fill-opacity="1" stroke="none"/>
	<path d="M 42.334176,10.632339 L 39.508508,15.210638 C 39.503208,15.210923999999999 39.476168,15.206538 39.472738,15.210638 C 39.469438,15.214737999999999 39.472738,15.240108 39.472738,15.246407999999999 L 39.472738,17.177877 C 40.167688,17.807623999999997 40.617312,18.746074 40.617312,19.788939 C 40.617312,20.831803 40.167688,21.770253 39.472738,22.4 L 39.472738,64.834986 C 39.472738,64.847576 39.498018,64.870756 39.508508,64.870756 L 45.195613,64.870756 C 45.206053000000004,64.870756 45.231443,64.847596 45.231383,64.834986 L 45.231383,22.078088 C 44.706259,21.470054 44.372952,20.670581000000002 44.372952,19.788939 C 44.372952,18.907296 44.706258999999996,18.107823 45.231383,17.499789 L 45.231383,15.246407999999999 C 45.231383,15.240108 45.199053,15.214787999999999 45.195613,15.210638 L 42.334176,10.632339" fill="#000000" fill-opacity="1" stroke="none"/>
	<path d="M 50.615691,15.396571 L 47.790023,19.97487 C 47.784723,19.975156 47.757683,19.970769999999998 47.754253,19.97487 C 47.750952999999996,19.97897 47.754253,20.00434 47.754253,20.01064 L 47.754253,21.94211 C 48.449203,22.571856 48.898827,23.510306 48.898827,24.553171 C 48.898827,25.596035 48.449203,26.534485 47.754253,27.164232 L 47.754253,64.799218 C 47.754253,64.811808 47.779533,64.834988 47.790023,64.834988 L 53.477128,64.834988 C 53.487568,64.834988 53.512958,64.81182799999999 53.512898,64.799218 L 53.512898,26.842319999999994 C 52.987774,26.234285999999994 52.654467,25.434813999999992 52.654467,24.553170999999992 C 52.654467,23.67152799999999 52.987773999999995,22.872054999999992 53.512898,22.264020999999993 L 53.512898,20.01063999999999 C 53.512898,20.004339999999992 53.480568,19.97901999999999 53.477128,19.974869999999992 L 50.615691,15.396571" fill="#000000" fill-opacity="1" stroke="none"/>
	<path d="M 58.861438,20.232339 L 56.03577,24.810638 C 56.03047,24.810924 56.00344,24.806538 56.0,24.810638 C 55.9967,24.814738000000002 56.0,24.840108 56.0,24.846408 L 56.0,26.777877 C 56.69495,27.407624 57.144574,28.346074 57.144574,29.388939 C 57.144574,30.431803 56.69495,31.370253 56.0,32.0 L 56.0,64.834986 C 56.0,64.847576 56.02528,64.870756 56.03577,64.870756 L 61.722875,64.870756 C 61.733315000000005,64.870756 61.758705,64.847596 61.758645,64.834986 L 61.758645,31.678088000000002 C 61.233521,31.070054000000003 60.900214,30.270581000000004 60.900214,29.388939 C 60.900214,28.507296 61.233520999999996,27.707823 61.758645,27.099789 L 61.758645,24.846408 C 61.758645,24.840108 61.726315,24.814788 61.722875,24.810638 L 58.861438,20.232339" fill="#000000" fill-opacity="1" stroke="none"/>
	<path d="M 13.156592,33.931468 L 62.751434,33.931468 C 62.755434,33.931468 62.758534000000004,33.935968 62.758534000000004,33.941548000000004 L 62.758534000000004,37.902512 C 62.758534000000004,37.908112 62.755334000000005,37.912592000000004 62.751434,37.912592000000004 L 13.156592000000003,37.912592000000004 C 13.152592000000004,37.912592000000004 13.149392000000004,37.908092 13.149392000000004,37.902512 L 13.149392000000004,33.941548000000004 C 13.149392000000004,33.935948 13.152592000000004,33.931468 13.156592000000003,33.931468 L 13.156592,33.931468" fill="#000000" fill-opacity="1" stroke="none"/>
	<path d="M 13.156601,55.678386 L 62.808545,55.678386 C 62.812545,55.678386 62.815645,55.682886 62.815645,55.688466000000005 L 62.815645,59.64943 C 62.815645,59.655030000000004 62.812445000000004,59.659510000000004 62.808545,59.659510000000004 L 13.156601000000002,59.659510000000004 C 13.152601000000002,59.659510000000004 13.149401000000003,59.655010000000004 13.149401000000003,59.64943 L 13.149401000000003,55.688466000000005 C 13.149403000000003,55.682866000000004 13.152601000000002,55.678386 13.156601000000002,55.678386 L 13.156601,55.678386" fill="#000000" fill-opacity="1" stroke="none"/>
	<path d="M 15.073108,56.545706 L 60.001172,35.54291 C 60.004771999999996,35.54121 60.009471999999995,35.54401 60.011872,35.54901 L 61.689291,39.137255 C 61.691691,39.142355 61.690690999999994,39.147745 61.687090999999995,39.149395000000005 L 16.759064,60.152214 C 16.755464,60.153914 16.750663999999997,60.151214 16.748274,60.146114 L 15.070854999999998,56.557869 C 15.068454999999998,56.552769 15.069454999999998,56.547379 15.073154999999998,56.545688999999996 L 15.073108,56.545706" fill="#000000" fill-opacity="1" stroke="none"/>
	<path d="M 11.531184,33.285351 L 13.310243999999999,33.285351 L 13.310243999999999,38.558709 L 11.531184,38.558709 L 11.531184,33.285351" display="inline" fill="#000000" marker="none" overflow="visible" stroke="none" style="color:#000000;enable-background:accumulate;" visibility="visible"/>
	<path d="M 12.4,32.72203 C 12.6216,32.72203 12.8,32.90043 12.8,33.122029999999995 L 12.8,38.72203 C 12.8,38.94363 12.6216,39.122029999999995 12.4,39.122029999999995 C 12.1784,39.122029999999995 12.0,38.94362999999999 12.0,38.72203 L 12.0,33.122029999999995 C 12.0,32.90042999999999 12.1784,32.72203 12.4,32.72203" display="inline" fill="#000000" fill-opacity="1" fill-rule="nonzero" marker="none" overflow="visible" stroke="none" style="color:#000000;enable-background:accumulate;" visibility="visible"/>
	<path d="M 11.531184,55.032269 L 13.310243999999999,55.032269 L 13.310243999999999,60.305627 L 11.531184,60.305627 L 11.531184,55.032269" display="inline" fill="#000000" marker="none" overflow="visible" stroke="none" style="color:#000000;enable-background:accumulate;" visibility="visible"/>
	<path d="M 12.4,54.468948 C 12.6216,54.468948 12.8,54.647348 12.8,54.868947999999996 L 12.8,60.468948 C 12.8,60.690548 12.6216,60.868947999999996 12.4,60.868947999999996 C 12.1784,60.868947999999996 12.0,60.69054799999999 12.0,60.468948 L 12.0,54.868947999999996 C 12.0,54.647347999999994 12.1784,54.468948 12.4,54.468948" display="inline" fill="#000000" fill-opacity="1" fill-rule="nonzero" marker="none" overflow="visible" stroke="none" style="color:#000000;enable-background:accumulate;" visibility="visible"/>
	<path d="M 62.030151,35.518162 L 64.049494,35.518162 L 64.049494,36.325899 L 62.030151,36.325899 L 62.030151,35.518162" display="inline" fill="#000000" fill-opacity="1" fill-rule="nonzero" marker="none" overflow="visible" stroke="none" style="color:#000000;enable-background:accumulate;" visibility="visible"/>
	<path d="M 4.0,46.0 C 4.0,47.104569 3.1045695,48.0 2.0,48.0 C 0.8954305,48.0 0.0,47.104569 0.0,46.0 C 0.0,44.895431 0.8954305,44.0 2.0,44.0 C 3.1045695,44.0 4.0,44.895431 4.0,46.0" display="inline" fill="#000000" fill-opacity="1" fill-rule="nonzero" marker="none" overflow="visible" stroke="none" style="color:#000000;enable-background:accumulate;" transform="matrix(0.40386847,0,0,0.40386847,63.241773,17.34408)" visibility="visible"/>
</svg>
