<?xml version="1.0" ?>
<svg xmlns="http://www.w3.org/2000/svg" xmlns:ev="http://www.w3.org/2001/xml-events" xmlns:xlink="http://www.w3.org/1999/xlink" baseProfile="full" enable-background="new 0 0 100 85.2" height="512px" version="1.1" viewBox="0 0 100 85.2" width="600px" x="0px" xml:space="preserve" y="0px">
	<defs/>
	<path d="M 78.424,13.319 C 76.113,15.081000000000001 73.73500000000001,16.572000000000003 70.024,13.844000000000001 L 70.06700000000001,14.040000000000001 C 67.34200000000001,8.09 63.077000000000005,4.600000000000001 60.32900000000001,3.1910000000000007 C 56.037,0.99 54.934,0.0 49.982,0.0 C 45.028,0.0 43.927,0.99 39.635,3.192 C 36.913,4.587 32.696999999999996,8.022 29.967999999999996,13.873 L 29.975999999999996,13.844999999999999 C 26.266999999999996,16.573 23.884999999999994,15.081 21.575999999999993,13.319999999999999 C 19.265,11.559 9.684,4.623 0.0,7.485 C 1.102,27.081 22.897,26.75 24.437,25.647 C 25.776,24.691 27.364,25.122 27.341,25.593999999999998 C 27.326,25.907999999999998 27.305,26.208 27.305,26.528999999999996 C 27.305,40.398999999999994 33.361,55.149 35.451,61.641 C 37.544,68.137 33.692,69.348 33.692,77.274 C 33.692,85.2 49.982,85.2 49.982,85.2 C 49.982,85.2 66.273,85.2 66.273,77.274 C 66.273,69.348 62.419,68.137 64.511,61.641000000000005 C 66.60499999999999,55.14900000000001 72.65899999999999,40.399 72.65899999999999,26.529000000000003 C 72.65899999999999,26.217000000000002 72.62199999999999,25.925000000000004 72.62199999999999,25.619000000000003 C 72.62199999999999,23.845000000000002 74.14299999999999,24.633000000000003 75.56099999999998,25.647000000000002 C 77.104,26.75 98.898,27.081 100.0,7.485 C 90.316,4.623 80.738,11.558 78.424,13.319 M 32.194,30.162 C 30.796000000000003,30.162 29.662000000000003,28.730999999999998 29.662000000000003,26.968999999999998 C 29.662000000000003,25.206999999999997 30.796000000000003,23.776999999999997 32.194,23.776999999999997 C 33.591,23.776999999999997 34.725,25.208 34.725,26.968999999999998 C 34.725,28.732 33.591,30.162 32.194,30.162 M 39.2,80.399 C 37.28,80.399 35.721000000000004,78.59 35.721000000000004,76.36 C 35.721000000000004,74.13 37.282000000000004,72.321 39.2,72.321 C 41.121,72.321 42.677,74.13 42.677,76.36 C 42.675,78.59 41.121,80.399 39.2,80.399 M 60.297,80.399 C 58.375,80.399 56.82,78.59 56.82,76.36 C 56.82,74.13 58.375,72.321 60.297,72.321 C 62.217,72.321 63.775999999999996,74.13 63.775999999999996,76.36 C 63.777,78.59 62.217,80.399 60.297,80.399 M 62.527,13.91 C 61.148,15.572 60.111000000000004,17.465 59.691,19.6 C 58.765,24.333000000000002 59.023,29.017000000000003 56.875,33.480000000000004 C 54.57,38.267 51.633,42.0 51.703,47.598000000000006 C 51.773,53.352000000000004 53.984,59.248000000000005 57.941,63.452000000000005 C 58.511,64.05900000000001 59.093,64.653 59.673,65.253 C 59.923,65.513 60.171,65.771 60.421,66.03 C 61.272999999999996,66.93 62.116,67.837 62.935,68.766 C 63.335,69.21900000000001 63.703,69.69600000000001 64.089,70.15700000000001 C 64.237,70.33700000000002 64.616,70.602 64.651,70.84100000000001 C 64.67099999999999,70.94300000000001 64.612,71.036 64.52199999999999,71.09700000000001 C 64.41799999999999,71.16300000000001 64.27999999999999,71.185 64.16699999999999,71.12200000000001 C 63.850999999999985,70.94800000000001 63.639999999999986,70.50500000000001 63.393999999999984,70.24500000000002 C 62.694999999999986,69.51600000000002 61.850999999999985,68.83700000000002 61.02299999999998,68.26600000000002 C 59.67499999999998,67.33600000000001 58.08499999999998,66.67400000000002 56.54799999999998,66.12300000000002 C 54.65899999999998,65.44900000000001 52.58899999999998,65.16600000000003 50.585999999999984,65.16600000000003 C 48.96899999999999,65.16600000000003 47.228999999999985,65.37100000000002 45.65799999999999,65.74600000000002 C 43.325999999999986,66.30800000000002 40.868999999999986,67.38500000000002 38.84699999999999,68.68500000000003 C 38.45299999999999,68.93900000000004 38.07799999999999,69.17300000000003 37.72399999999999,69.49200000000003 C 37.41999999999999,69.76500000000003 37.07499999999999,70.20300000000003 36.65999999999999,70.30800000000004 C 36.35099999999999,70.38600000000004 36.14799999999999,70.22200000000004 36.16299999999999,69.90200000000003 C 36.17399999999999,69.54300000000003 36.48799999999999,69.25700000000003 36.72699999999999,69.02500000000003 C 37.48599999999999,68.28900000000003 38.20999999999999,67.51900000000003 38.889999999999986,66.70700000000004 C 39.99299999999999,65.38300000000004 41.264999999999986,64.19700000000003 42.368999999999986,62.87700000000004 C 45.98899999999998,58.55900000000004 48.057999999999986,53.266000000000034 48.130999999999986,47.60000000000004 C 48.201999999999984,42.000000000000036 45.262999999999984,38.268000000000036 42.95599999999999,33.48100000000004 C 40.80699999999999,29.018000000000036 41.063999999999986,24.335000000000036 40.13799999999999,19.601000000000035 C 39.65899999999999,17.149000000000036 38.36199999999999,15.035000000000036 36.69199999999999,13.214000000000034 C 35.86999999999999,12.318000000000033 34.270999999999994,11.415000000000035 34.25899999999999,10.090000000000034 C 34.24399999999999,7.902000000000033 36.864999999999995,7.461000000000034 38.397999999999996,7.091000000000033 C 38.751999999999995,7.006000000000033 39.113,6.925000000000033 39.459999999999994,6.802000000000033 C 40.449999999999996,6.448000000000033 48.10999999999999,5.094000000000033 50.64999999999999,5.094000000000033 C 53.18899999999999,5.094000000000033 58.11699999999999,6.003000000000033 59.66999999999999,6.802000000000033 C 61.249999999999986,7.616000000000033 65.51199999999999,7.202000000000034 65.82399999999998,9.698000000000032 C 66.051,11.458 63.477,12.768 62.527,13.91 M 68.078,30.162 C 66.68,30.162 65.547,28.730999999999998 65.547,26.968999999999998 C 65.547,25.206999999999997 66.67999999999999,23.776999999999997 68.078,23.776999999999997 C 69.47600000000001,23.776999999999997 70.611,25.208 70.611,26.968999999999998 C 70.611,28.732 69.477,30.162 68.078,30.162" fill="#010101"/>
</svg>
