<?xml version="1.0" ?>
<svg xmlns="http://www.w3.org/2000/svg" xmlns:ev="http://www.w3.org/2001/xml-events" xmlns:xlink="http://www.w3.org/1999/xlink" baseProfile="full" enable-background="new 0 0 100 84.509" height="508px" version="1.1" viewBox="0 0 100 84.509" width="600px" x="0px" xml:space="preserve" y="0px">
	<defs/>
	<path d="M 26.087,44.904 C 19.686999999999998,44.904 14.477,50.107000000000006 14.477,56.506 C 14.477,62.907 19.687,68.114 26.087,68.114 C 32.484,68.114 37.695,62.907000000000004 37.695,56.506 C 37.695,50.107 32.484,44.904 26.087,44.904"/>
	<path d="M 51.658,0.0 L 10.849,0.0 C 4.864,0.0 0.0,4.865 0.0,10.847 L 0.0,73.66499999999999 C 0.0,79.63999999999999 4.864,84.50899999999999 10.849,84.50899999999999 L 51.658,84.50899999999999 C 57.637,84.50899999999999 62.503,79.63999999999999 62.503,73.66499999999999 L 62.503,10.847 C 62.502,4.865 57.637,0.0 51.658,0.0 M 26.087,72.455 C 17.292,72.455 10.14,65.303 10.14,56.506 C 10.14,47.717 17.291,40.565 26.087,40.565 C 34.879,40.565 42.03,47.717 42.03,56.506 C 42.03,65.303 34.879,72.455 26.087,72.455 M 45.215,25.765 C 39.907000000000004,25.765 35.587,21.448 35.587,16.137999999999998 C 35.587,10.825999999999997 39.907000000000004,6.5059999999999985 45.215,6.5059999999999985 C 50.529,6.5059999999999985 54.854,10.826999999999998 54.854,16.137999999999998 C 54.854,21.448 50.529,25.765 45.215,25.765"/>
	<path d="M 45.215,10.841 C 42.300000000000004,10.841 39.926,13.216999999999999 39.926,16.137999999999998 C 39.926,19.057 42.301,21.427 45.215,21.427 C 48.136,21.427 50.513000000000005,19.057 50.513000000000005,16.137999999999998 C 50.513,13.217 48.136,10.841 45.215,10.841"/>
	<path d="M 65.818,60.524 L 70.158,60.524 L 70.158,13.839 L 65.818,13.839 L 65.818,60.524 L 65.818,60.524" points="65.818,60.524 70.158,60.524 70.158,13.839 65.818,13.839 65.818,60.524 "/>
	<path d="M 74.043,60.524 L 78.383,60.524 L 78.383,16.329 L 74.043,16.329 L 74.043,60.524 L 74.043,60.524" points="74.043,60.524 78.383,60.524 78.383,16.329 74.043,16.329 74.043,60.524 "/>
	<path d="M 86.615,30.677 L 86.615,22.833 L 82.274,22.833 L 82.274,64.671 L 65.886,64.671 L 65.886,69.012 L 86.548,69.012 L 86.548,68.941 L 86.615,68.941 L 86.615,59.979 L 100.0,59.979 L 100.0,30.677 L 86.615,30.677" points="86.615,30.677 86.615,22.833 82.274,22.833 82.274,64.671 65.886,64.671 65.886,69.012 86.548,69.012    86.548,68.941 86.615,68.941 86.615,59.979 100,59.979 100,30.677 "/>
</svg>
