<?xml version="1.0" ?>
<svg xmlns="http://www.w3.org/2000/svg" xmlns:ev="http://www.w3.org/2001/xml-events" xmlns:xlink="http://www.w3.org/1999/xlink" baseProfile="full" enable-background="new 0 0 100 100" height="594px" version="1.1" viewBox="0 0 100 100" width="600px" x="0px" xml:space="preserve" y="0px">
	<defs/>
	<path d="M 79.357,58.246 C 76.343,58.252 73.484,58.89 70.906,60.06 L 65.32700000000001,49.733000000000004 L 65.51000000000002,49.109 L 67.81100000000002,46.853 C 68.12800000000001,46.54 68.39000000000001,46.193000000000005 68.60200000000002,45.824 C 70.13500000000002,43.439 70.16800000000002,40.266 68.43300000000002,37.806 L 55.635,19.645 C 53.352,16.408 48.876999999999995,15.632 45.641,17.915 C 45.388999999999996,18.092 45.155,18.282 44.934999999999995,18.483 C 44.663,18.677 44.40599999999999,18.903000000000002 44.172999999999995,19.163 L 27.444,37.685 C 25.778,39.529 25.817999999999998,42.319 27.465,44.115 L 21.945999999999998,44.126000000000005 C 21.139999999999997,44.12800000000001 20.485999999999997,44.534000000000006 20.49,45.343 C 20.49,46.146 21.145,46.551 21.951999999999998,46.547000000000004 L 29.267,46.535000000000004 L 28.695,49.463 C 28.691,49.467 28.692,49.611000000000004 28.691,49.613 L 28.125,52.269 C 28.126,52.21 28.133,52.153999999999996 28.131,52.095 C 28.063,50.159 26.653,48.884 24.266,48.596 L 24.227999999999998,48.590999999999994 C 23.564999999999998,48.507999999999996 22.051,48.50699999999999 21.880999999999997,48.50699999999999 L 21.633999999999997,48.50699999999999 L 21.535999999999998,48.71999999999999 C 19.999999999999996,52.11899999999999 21.473,55.44099999999999 21.537,55.57899999999999 L 21.63,55.782 L 21.852999999999998,55.791 C 21.883999999999997,55.793 22.636,55.82599999999999 23.317999999999998,55.82599999999999 C 23.735,55.82599999999999 24.026999999999997,55.794999999999995 24.214,55.788999999999994 C 25.564999999999998,55.745999999999995 27.279999999999998,54.809999999999995 27.897,53.343999999999994 L 27.784,53.870999999999995 L 26.028,58.94799999999999 C 24.285999999999998,58.468999999999994 22.459999999999997,58.230999999999995 20.567,58.233999999999995 C 9.208,58.255 -0.02,67.534 0.0,78.896 C 0.02,90.257 9.282,99.483 20.646,99.462 C 32.008,99.441 41.234,90.18 41.215,78.81800000000001 C 41.198,70.37400000000001 36.076,63.11400000000001 28.785000000000004,59.95000000000002 L 29.796000000000003,57.052000000000014 L 45.93600000000001,73.70400000000001 L 48.30700000000001,81.42 C 48.94700000000001,83.495 50.86800000000001,84.82300000000001 52.93000000000001,84.799 C 53.37800000000001,84.79400000000001 53.83400000000001,84.72500000000001 54.284000000000006,84.587 C 55.635000000000005,84.173 56.665000000000006,83.21000000000001 57.21600000000001,82.02000000000001 L 59.010000000000005,81.882 C 60.47500000000001,91.837 69.08200000000001,99.49100000000001 79.434,99.47200000000001 C 90.79299999999999,99.45100000000001 100.021,90.185 100.0,78.822 C 99.978,67.462 90.718,58.224 79.357,58.246 M 24.116,55.068 C 24.012,55.073 23.79,55.099 23.317999999999998,55.099 C 22.878999999999998,55.099 22.395999999999997,55.083999999999996 22.118999999999996,55.074 C 21.847999999999995,54.348 21.051999999999996,51.802 22.106999999999996,49.233 C 22.738999999999997,49.236999999999995 23.691999999999997,49.256 24.136999999999997,49.311 L 24.179999999999996,49.317 C 25.611999999999995,49.49 27.332999999999995,50.117 27.404999999999998,52.12 C 27.472,53.983 25.231,55.016 24.116,55.068 M 37.807,78.826 C 37.825,88.309 30.123,96.03999999999999 20.639000000000003,96.056 C 11.155000000000003,96.074 3.426000000000002,88.37 3.4090000000000025,78.889 C 3.3890000000000025,69.408 11.091000000000003,61.675 20.576000000000004,61.657999999999994 C 22.070000000000004,61.654999999999994 23.525000000000006,61.846 24.908000000000005,62.20499999999999 L 19.228000000000005,78.50399999999999 C 18.965000000000003,79.264 19.366000000000007,80.09499999999998 20.126000000000005,80.35999999999999 C 20.284000000000006,80.41799999999999 20.447000000000006,80.44199999999998 20.605000000000004,80.44199999999998 C 21.211000000000006,80.44199999999998 21.775000000000006,80.06499999999998 21.984000000000005,79.46299999999998 L 27.662000000000006,63.17599999999998 C 33.622,65.87 37.793,71.864 37.807,78.826 M 32.506,45.527 C 32.513,45.488 32.519,45.454 32.525,45.42 C 33.275,45.163000000000004 33.974,44.723 34.546,44.094 L 46.21,31.176000000000002 L 55.988,45.050000000000004 L 53.284,47.702000000000005 L 31.935,47.74 L 32.506,45.527 M 43.572,57.22 C 42.295,58.473 41.823,60.332 42.349000000000004,62.042 L 44.003,67.432 L 30.787,53.883 L 31.301,51.377 L 49.56999999999999,51.341 L 43.572,57.22 M 55.601,72.594 L 52.347,62.01199999999999 L 61.226,53.306999999999995 L 55.601,72.594 M 58.963,78.911 C 58.963,78.932 58.964,78.95400000000001 58.963,78.974 L 57.567,79.075 C 57.536,78.923 57.497,78.764 57.45,78.61200000000001 L 57.226000000000006,77.888 L 64.20800000000001,53.784000000000006 L 68.44500000000001,61.498000000000005 C 62.698,65.169 58.95,71.603 58.963,78.911 M 69.961,64.5 L 77.039,77.588 L 62.197,78.71499999999999 C 62.251,72.782 65.325,67.554 69.961,64.5 M 79.424,96.073 C 70.867,96.089 63.739000000000004,89.818 62.41300000000001,81.62899999999999 L 79.50200000000001,80.326 C 79.995,80.291 80.43900000000001,80.006 80.67500000000001,79.571 C 80.91300000000001,79.137 80.91300000000001,78.612 80.67800000000001,78.179 L 72.528,63.107 C 74.62100000000001,62.192 76.933,61.675 79.363,61.673 C 88.848,61.654 96.577,69.354 96.593,78.84100000000001 C 96.611,88.324 88.909,96.056 79.424,96.073" fill="#000000"/>
	<path d="M 20.48,55.579 C 20.463,55.543 20.353,55.294000000000004 20.224,54.884 L 13.328,54.884 L 13.328,55.644 L 20.509999999999998,55.644 L 20.48,55.579" fill="#000000"/>
	<path d="M 19.866,53.265 L 13.329,53.265 L 13.329,54.025 L 19.998,54.025 C 19.948,53.791 19.902,53.537 19.866,53.265" fill="#000000"/>
	<path d="M 19.789,51.729 L 13.329,51.729 L 13.329,52.489 L 19.794,52.489 C 19.782,52.243 19.779,51.989 19.789,51.729" fill="#000000"/>
	<path d="M 19.999,50.142 L 13.328999999999999,50.142 L 13.328999999999999,50.902 L 19.857999999999997,50.902 C 19.893,50.653 19.938,50.398 19.999,50.142" fill="#000000"/>
	<path d="M 20.48,48.72 L 20.533,48.604 L 13.329,48.604 L 13.329,49.366 L 20.224,49.366 C 20.298,49.15 20.383,48.936 20.48,48.72" fill="#000000"/>
	<path cx="40.747" cy="8.178" d="M 33.096000000000004,8.178 A 7.651,7.651 0.0 1,0 48.398,8.178 A 7.651,7.651 0.0 1,0 33.096000000000004,8.178" fill="#000000" r="7.651"/>
</svg>
