<?xml version="1.0" ?>
<svg xmlns="http://www.w3.org/2000/svg" xmlns:ev="http://www.w3.org/2001/xml-events" xmlns:xlink="http://www.w3.org/1999/xlink" baseProfile="full" enable-background="new 0 0 100 100" height="593px" version="1.1" viewBox="0 0 100 100" width="600px" x="0px" xml:space="preserve" y="0px">
	<defs/>
	<path d="M 12.742,94.184 C 7.12,91.294 3.26,85.436 3.26,78.69 C 3.26,69.09 11.07,61.282 20.668999999999997,61.282 C 20.679999999999996,61.282 20.690999999999995,61.282 20.699999999999996,61.282 C 20.988999999999997,60.145999999999994 21.262999999999995,59.05799999999999 21.520999999999997,58.044 C 21.237999999999996,58.032 20.955,58.022999999999996 20.668999999999997,58.022999999999996 C 9.271,58.022 0.0,67.295 0.0,78.69 C 0.0,87.538 6.063,95.294 13.896,98.23599999999999 C 13.896,98.236 12.5,96.295 12.742,94.184"/>
	<path d="M 79.504,58.104 C 77.61200000000001,58.096 75.78500000000001,58.33 74.045,58.803 L 72.299,53.721999999999994 L 71.405,49.464999999999996 C 71.404,49.462999999999994 71.405,49.318999999999996 71.404,49.315999999999995 L 70.911,46.76499999999999 L 70.908,46.76499999999999 C 70.646,45.51499999999999 69.476,42.166999999999994 65.675,42.10699999999999 C 65.497,42.102999999999994 65.329,42.10099999999999 65.167,42.099999999999994 C 65.744,40.392999999999994 65.302,38.434 63.88,37.148999999999994 C 63.88,37.148999999999994 44.542,18.583999999999993 40.837,17.597999999999995 C 36.487,16.440999999999995 32.071000000000005,19.307999999999996 31.051000000000002,23.692999999999994 L 24.835,50.443999999999996 C 24.663,51.19 14.291,92.07 14.291,92.07 C 13.474,95.181 15.333,98.365 18.443,99.181 C 18.939,99.31 19.436,99.37299999999999 19.925,99.37299999999999 C 22.508000000000003,99.37299999999999 24.867,97.64299999999999 25.553,95.029 L 34.657,60.357 L 43.132999999999996,70.774 L 43.132999999999996,93.548 C 43.132999999999996,96.765 45.739999999999995,99.37 48.955999999999996,99.37 C 52.17099999999999,99.37 54.776999999999994,96.765 54.776999999999994,93.548 L 54.776999999999994,72.81 L 70.28299999999999,56.898 L 71.28499999999998,59.795 C 63.99,62.941 58.854,70.181 58.813,78.62 C 58.762,89.974 67.95700000000001,99.25500000000001 79.312,99.309 C 90.668,99.361 99.947,90.167 100.0,78.813 C 100.053,67.455 90.856,58.155 79.504,58.104 M 57.633,44.061 C 58.524,44.868 59.641000000000005,45.264 60.754000000000005,45.264 C 61.39600000000001,45.264 62.035000000000004,45.132000000000005 62.63,44.870000000000005 C 63.204,44.86300000000001 64.137,44.867000000000004 65.608,44.902 C 67.524,44.949 67.979,46.825 67.979,46.825 L 67.979,46.825 L 68.173,47.587 L 42.257,47.5 L 45.588,33.171 L 57.633,44.061 M 54.772,68.539 C 54.733,67.26 54.282,66.027 53.474,65.036 L 42.159,51.127 L 68.792,51.221000000000004 L 69.302,53.729000000000006 L 54.772,68.539 M 79.327,95.905 C 69.848,95.862 62.173,88.116 62.217,78.637 C 62.248999999999995,71.676 66.434,65.699 72.4,63.022 L 78.03,79.31700000000001 C 78.237,79.917 78.798,80.298 79.404,80.30000000000001 C 79.56099999999999,80.30000000000001 79.726,80.275 79.883,80.21800000000002 C 80.645,79.95300000000002 81.04899999999999,79.12500000000001 80.786,78.36400000000002 L 75.156,62.05900000000002 C 76.539,61.70500000000002 77.991,61.52000000000002 79.486,61.52600000000002 C 88.967,61.57100000000002 96.638,69.31700000000002 96.596,78.79600000000002 C 96.552,88.272 88.808,95.946 79.327,95.905"/>
	<path d="M 34.484,68.115 C 36.737,71.05099999999999 38.078,74.716 38.078,78.69 C 38.078,85.86699999999999 33.716,92.038 27.503000000000004,94.698 L 27.637000000000004,95.208 C 27.754000000000005,97.771 26.744000000000003,98.394 26.744000000000003,98.394 C 35.103,95.745 41.339000000000006,87.918 41.339000000000006,78.691 C 41.339000000000006,73.102 39.105000000000004,68.02600000000001 35.486000000000004,64.302 L 34.484,68.115"/>
	<path cx="41.66" cy="8.388" d="M 33.897,8.388 A 7.763000000000002,7.763000000000002 0.0 1,0 49.423,8.388 A 7.763,7.763 0.0 1,0 33.897000000000006,8.388" r="7.763"/>
</svg>
