<?xml version="1.0" ?>
<svg xmlns="http://www.w3.org/2000/svg" xmlns:ev="http://www.w3.org/2001/xml-events" xmlns:xlink="http://www.w3.org/1999/xlink" baseProfile="full" enable-background="new 0 0 100 100" height="600px" version="1.1" viewBox="0 0 100 100" width="447px" x="0px" xml:space="preserve" y="0px">
	<defs/>
	<path d="M 80.873,13.617 C 76.65400000000001,10.141000000000002 71.69800000000001,6.905000000000001 66.101,4.972000000000001 C 64.338,4.366000000000001 58.937,2.8950000000000014 58.937,2.8950000000000014 L 58.937,0.472 C 58.937,0.211 58.723,0.0 58.464,0.0 C 58.464,0.0 56.574999999999996,0.472 50.0,0.472 C 44.661,0.472 41.537,0.0 41.537,0.0 C 41.277,0.0 41.065,0.211 41.065,0.472 L 41.065,2.908 C 41.065,2.908 35.663,4.367 33.9,4.973 C 28.299999999999997,6.9 23.345999999999997,10.14 19.128,13.617999999999999 C 15.11,16.930999999999997 13.134,19.647 12.776,20.157999999999998 L 24.396,28.241 C 24.406000000000002,28.227 25.615000000000002,26.614 28.130000000000003,24.54 C 29.521,23.394 31.437,22.011 33.900000000000006,20.645 L 33.900000000000006,52.352000000000004 C 33.900000000000006,52.352000000000004 40.023,53.413000000000004 50.254000000000005,53.413000000000004 C 60.812000000000005,53.413000000000004 66.10000000000001,52.352000000000004 66.10000000000001,52.352000000000004 L 66.10000000000001,20.645 C 68.56200000000001,22.009999999999998 70.477,23.393 71.86900000000001,24.54 C 74.38600000000001,26.613999999999997 75.59400000000001,28.227999999999998 75.60300000000001,28.241 L 87.22300000000001,20.158 C 86.867,19.646 84.89,16.93 80.873,13.617 M 45.615,45.808 C 45.603,46.223 45.594,46.639 45.577000000000005,47.054 L 45.516000000000005,48.296 C 45.471000000000004,49.124 45.40800000000001,49.953 45.330000000000005,50.778 L 45.16700000000001,48.298 L 44.98400000000001,45.825 C 44.854000000000006,44.178000000000004 44.69500000000001,42.539 44.52100000000001,40.899 C 44.16700000000001,37.625 43.71300000000001,34.367000000000004 43.13100000000001,31.137 C 42.550000000000004,27.908 41.83800000000001,24.705 40.96900000000001,21.547 C 40.53500000000001,19.967 40.05700000000001,18.401 39.534000000000006,16.855 C 39.269000000000005,16.082 38.99600000000001,15.313 38.706,14.55 C 38.56,14.17 38.409000000000006,13.791 38.255,13.417000000000002 L 38.018,12.857000000000001 C 38.01,12.839 38.003,12.822000000000001 37.996,12.804 C 37.892,12.831 37.786,12.859 37.679,12.886000000000001 C 37.382000000000005,12.958 37.084,13.025 36.784,13.087000000000002 C 36.187,13.211000000000002 35.586999999999996,13.318000000000001 34.983,13.410000000000002 C 33.775999999999996,13.584000000000001 32.567,13.695000000000002 31.336999999999996,13.705000000000002 C 30.715999999999998,13.703000000000001 30.102999999999994,13.650000000000002 29.494999999999997,13.566000000000003 C 28.891,13.480000000000002 28.290999999999997,13.367000000000003 27.703999999999997,13.218000000000002 C 26.529999999999998,12.916000000000002 25.381999999999998,12.528000000000002 24.296999999999997,12.009000000000002 C 24.871999999999996,12.179000000000002 25.451999999999998,12.323000000000002 26.036999999999995,12.441000000000003 C 26.619999999999994,12.569000000000003 27.206999999999994,12.670000000000002 27.794999999999995,12.745000000000003 C 28.967999999999996,12.901000000000003 30.148999999999994,12.964000000000002 31.301999999999996,12.860000000000003 C 31.881999999999994,12.807000000000002 32.467999999999996,12.725000000000003 33.047999999999995,12.631000000000004 C 33.629999999999995,12.537000000000004 34.206999999999994,12.427000000000003 34.782,12.300000000000004 C 35.357,12.175000000000004 35.928,12.036000000000005 36.495999999999995,11.881000000000004 C 36.77799999999999,11.803000000000004 37.059999999999995,11.721000000000004 37.340999999999994,11.637000000000004 C 37.617,11.553000000000004 37.904999999999994,11.463000000000005 38.163,11.373000000000005 L 38.687999999999995,11.188000000000004 L 38.964999999999996,11.701000000000004 C 39.07299999999999,11.905000000000005 39.166,12.087000000000003 39.26,12.280000000000005 C 39.355999999999995,12.469000000000005 39.448,12.660000000000005 39.536,12.851000000000004 C 39.713,13.233000000000004 39.884,13.616000000000005 40.049,14.001000000000005 C 40.382,14.772000000000006 40.692,15.551000000000005 40.982,16.335000000000004 C 41.569,17.903000000000006 42.080999999999996,19.496000000000006 42.545,21.101000000000006 C 43.463,24.313000000000006 44.158,27.583000000000006 44.665,30.878000000000007 C 45.168,34.17400000000001 45.476,37.49600000000001 45.589,40.81900000000001 C 45.652,42.484 45.655,44.148 45.615,45.808 M 73.543,13.221 C 72.95500000000001,13.369 72.355,13.483 71.751,13.569 C 71.14500000000001,13.653 70.52900000000001,13.706000000000001 69.91000000000001,13.708 C 68.67900000000002,13.698 67.471,13.587 66.263,13.413 C 65.659,13.321 65.06,13.214 64.462,13.09 C 64.162,13.027 63.865,12.961 63.566,12.889 C 63.46,12.862 63.356,12.834 63.25,12.806999999999999 C 63.243,12.825 63.235,12.841999999999999 63.228,12.86 L 62.991,13.42 C 62.836999999999996,13.794 62.686,14.173 62.541,14.553 C 62.251,15.316 61.977,16.084 61.711,16.858 C 61.19,18.405 60.711,19.97 60.277,21.55 C 59.409,24.708000000000002 58.696,27.91 58.116,31.14 C 57.533,34.369 57.08,37.627 56.725,40.902 C 56.552,42.542 56.394,44.18 56.262,45.828 L 56.08,48.301 L 55.916,50.781 C 55.839999999999996,49.955999999999996 55.773999999999994,49.126999999999995 55.730999999999995,48.299 L 55.669,47.057 C 55.650999999999996,46.642 55.642999999999994,46.226 55.632999999999996,45.811 C 55.592,44.152 55.595,42.488 55.656,40.827 C 55.769999999999996,37.504 56.077,34.181 56.582,30.885999999999996 C 57.088,27.590999999999994 57.782000000000004,24.320999999999994 58.701,21.108999999999995 C 59.166000000000004,19.504999999999995 59.677,17.911999999999995 60.263,16.342999999999996 C 60.553999999999995,15.558999999999996 60.863,14.779999999999996 61.196999999999996,14.008999999999997 C 61.361999999999995,13.622999999999998 61.532999999999994,13.239999999999997 61.709999999999994,12.858999999999996 C 61.797999999999995,12.667999999999996 61.89099999999999,12.476999999999997 61.983999999999995,12.287999999999997 C 62.07999999999999,12.094999999999997 62.172,11.912999999999997 62.28099999999999,11.708999999999996 L 62.556999999999995,11.195999999999996 L 63.083,11.380999999999997 C 63.341,11.470999999999997 63.628,11.560999999999996 63.905,11.644999999999996 C 64.184,11.728999999999996 64.468,11.810999999999996 64.749,11.888999999999996 C 65.317,12.043999999999995 65.889,12.182999999999996 66.464,12.307999999999996 C 67.038,12.434999999999997 67.617,12.544999999999996 68.197,12.638999999999996 C 68.777,12.732999999999995 69.364,12.814999999999996 69.94200000000001,12.867999999999995 C 71.09500000000001,12.971999999999994 72.278,12.908999999999995 73.45100000000001,12.752999999999995 C 74.03800000000001,12.678999999999995 74.626,12.576999999999995 75.20700000000001,12.448999999999995 C 75.792,12.331999999999994 76.373,12.186999999999994 76.94900000000001,12.016999999999994 C 75.865,12.53 74.718,12.919 73.543,13.221" fill="#000000"/>
	<path d="M 66.092,54.065 C 65.748,54.131 60.467,55.120999999999995 50.263999999999996,55.120999999999995 C 40.64999999999999,55.120999999999995 34.663999999999994,54.18599999999999 33.977,54.07299999999999 L 32.013,74.181 L 31.994,74.179 L 29.001,97.60300000000001 L 44.965,100.0 L 47.772000000000006,78.027 L 47.754000000000005,77.982 C 47.633,77.678 44.800000000000004,70.535 46.926,67.411 C 47.572,66.462 48.6,65.978 49.980000000000004,65.978 L 50.013000000000005,65.978 C 51.416000000000004,65.988 52.453,66.48299999999999 53.09700000000001,67.44999999999999 C 55.14000000000001,70.517 52.46600000000001,77.32699999999998 52.21600000000001,77.94699999999999 L 55.033,100.0 L 70.998,97.604 L 68.221,75.854 L 66.092,54.065" fill="#000000"/>
	<path d="M 52.065,68.305 C 51.537,67.51100000000001 51.190999999999995,67.10400000000001 49.998,67.09800000000001 L 49.967999999999996,67.09800000000001 C 48.794999999999995,67.09800000000001 48.321999999999996,67.42900000000002 47.834999999999994,68.23500000000001 C 46.21699999999999,70.90900000000002 48.54299999999999,77.05100000000002 48.797999999999995,77.71100000000001 L 51.13399999999999,77.71100000000001 C 51.389,77.068 53.904,71.065 52.065,68.305" fill="#000000"/>
</svg>
