<?xml version="1.0" ?>
<svg xmlns="http://www.w3.org/2000/svg" xmlns:ev="http://www.w3.org/2001/xml-events" xmlns:xlink="http://www.w3.org/1999/xlink" baseProfile="full" enable-background="new 0 0 100 100" height="600px" version="1.1" viewBox="0 0 100 100" width="600px" x="0px" xml:space="preserve" y="0px">
	<defs/>
	<path d="M 35.007,33.973 C 35.873999999999995,33.973 36.702999999999996,34.175 37.437999999999995,34.510999999999996 C 38.151999999999994,34.842 38.962999999999994,35.032 39.78999999999999,35.032 C 40.62799999999999,35.032 41.43899999999999,34.842 42.15299999999999,34.510999999999996 C 42.88699999999999,34.17699999999999 43.71699999999999,33.973 44.584999999999994,33.973 C 45.443999999999996,33.973 46.270999999999994,34.175 47.004999999999995,34.510999999999996 C 47.72899999999999,34.842 48.528,35.032 49.36599999999999,35.032 C 50.19599999999999,35.032 51.00699999999999,34.842 51.71999999999999,34.510999999999996 C 52.45599999999999,34.17699999999999 53.28499999999999,33.973 54.151999999999994,33.973 C 55.00899999999999,33.973 55.839999999999996,34.175 56.583999999999996,34.510999999999996 C 57.297,34.842 58.099999999999994,35.032 58.937999999999995,35.032 C 59.775999999999996,35.032 60.57599999999999,34.842 61.291999999999994,34.510999999999996 C 62.022999999999996,34.17699999999999 62.85399999999999,33.973 63.72299999999999,33.973 C 64.58999999999999,33.973 65.419,34.175 66.151,34.510999999999996 C 66.868,34.842 67.667,35.032 68.505,35.032 L 68.505,31.458999999999996 C 67.667,31.458999999999996 66.868,31.263999999999996 66.151,30.945999999999994 C 65.42,30.599999999999994 64.59,30.397999999999996 63.723,30.397999999999996 C 62.854,30.397999999999996 62.024,30.600999999999996 61.292,30.945999999999998 C 60.575,31.262999999999998 59.775,31.459 58.938,31.459 C 58.101000000000006,31.459 57.297000000000004,31.264 56.584,30.945999999999998 C 55.839000000000006,30.599999999999998 55.010000000000005,30.397999999999996 54.152,30.397999999999996 C 53.286,30.397999999999996 52.457,30.600999999999996 51.72,30.945999999999998 C 51.007,31.262999999999998 50.196999999999996,31.459 49.366,31.459 C 48.528,31.459 47.729,31.264 47.005,30.945999999999998 C 46.271,30.599999999999998 45.444,30.397999999999996 44.585,30.397999999999996 C 43.718,30.397999999999996 42.888,30.600999999999996 42.153,30.945999999999998 C 41.439,31.262999999999998 40.628,31.459 39.79,31.459 C 38.963,31.459 38.152,31.264 37.438,30.945999999999998 C 36.704,30.599999999999998 35.875,30.397999999999996 35.007000000000005,30.397999999999996 C 34.147000000000006,30.397999999999996 33.32000000000001,30.600999999999996 32.58500000000001,30.945999999999998 C 31.85900000000001,31.262999999999998 31.061000000000007,31.459 30.221000000000007,31.459 L 30.221000000000007,35.032 C 31.061000000000007,35.032 31.860000000000007,34.842 32.58500000000001,34.510999999999996 C 33.32,34.177 34.146,33.973 35.007,33.973" fill="#000000"/>
	<path d="M 58.402,20.312 C 58.402,22.854 60.258,24.926000000000002 62.959,24.926000000000002 C 65.47200000000001,24.926000000000002 67.512,22.854000000000003 67.512,20.312 C 67.512,17.768 65.472,15.706000000000001 62.959,15.706000000000001 C 60.439,15.705 58.402,17.768 58.402,20.312" fill="#000000"/>
	<path d="M 37.438,27.874 C 38.152,28.2 38.963,28.395 39.791000000000004,28.395 C 40.62800000000001,28.395 41.440000000000005,28.201 42.155,27.874 C 42.889,27.535999999999998 43.718,27.323 44.585,27.323 C 45.445,27.323 46.273,27.536 47.007,27.874 C 47.73,28.2 48.528,28.395 49.366,28.395 C 50.196,28.395 51.008,28.201 51.721,27.874 C 52.455,27.535999999999998 53.285,27.323 54.153,27.323 C 55.007999999999996,27.323 55.839,27.536 56.583,27.874 C 57.298,28.2 58.099,28.395 58.937,28.395 C 59.547,28.395 60.135,28.29 60.69,28.115 L 53.092,14.252999999999998 L 61.928,12.622999999999998 C 63.224999999999994,12.372999999999998 64.166,11.342999999999998 64.166,10.022999999999998 C 64.166,8.567999999999998 62.995,7.4019999999999975 61.564,7.4019999999999975 C 61.46,7.4019999999999975 61.366,7.4019999999999975 61.268,7.410999999999998 L 47.621,9.923 C 46.664,10.145 45.394000000000005,11.564 46.117000000000004,13.305 C 46.156000000000006,13.401 46.193000000000005,13.491 46.233000000000004,13.584999999999999 L 49.795,20.088 L 36.436,27.519000000000002 C 36.788,27.604 37.121,27.729 37.438,27.874" fill="#000000"/>
	<path d="M 39.138,65.088 C 38.463,65.086 37.812999999999995,65.172 37.190999999999995,65.34299999999999 L 36.565,63.53199999999999 L 36.242,62.01399999999999 C 36.241,62.01299999999999 36.242,61.96099999999999 36.241,61.95999999999999 L 36.036,60.91599999999999 L 38.644,60.92099999999999 C 38.931,60.92099999999999 39.165,60.776999999999994 39.165,60.489999999999995 C 39.167,60.202999999999996 38.934,60.056999999999995 38.644999999999996,60.056999999999995 L 36.678999999999995,60.053 C 37.266,59.412 37.279999999999994,58.418 36.68599999999999,57.760999999999996 L 30.723999999999993,51.157999999999994 C 30.640999999999995,51.065999999999995 30.548999999999992,50.98499999999999 30.451999999999995,50.916 C 30.373999999999995,50.845 30.289999999999996,50.775999999999996 30.199999999999996,50.714 C 29.047999999999995,49.900999999999996 27.451999999999995,50.177 26.637999999999995,51.33 L 22.075999999999993,57.805 C 21.456999999999994,58.682 21.468999999999994,59.813 22.014999999999993,60.662 C 22.090999999999994,60.794 22.184999999999995,60.918 22.297999999999995,61.028999999999996 L 23.116999999999994,61.833 L 23.180999999999994,62.056 L 21.193999999999996,65.737 C 20.273999999999994,65.32 19.254999999999995,65.092 18.179999999999996,65.091 C 14.130999999999997,65.083 10.829999999999997,68.37599999999999 10.822999999999997,72.425 C 10.814999999999998,76.476 14.103999999999997,79.779 18.153999999999996,79.786 C 21.842999999999996,79.793 24.911999999999995,77.06400000000001 25.433999999999997,73.515 L 26.072999999999997,73.565 C 26.269999999999996,73.989 26.635999999999996,74.333 27.117999999999995,74.48 C 27.277999999999995,74.52900000000001 27.439999999999994,74.553 27.599999999999994,74.555 C 28.335999999999995,74.56400000000001 29.019999999999996,74.09100000000001 29.247999999999994,73.35100000000001 L 30.093999999999994,70.60100000000001 L 35.846,64.66400000000002 L 36.205999999999996,65.69800000000002 C 33.607,66.82500000000002 31.781999999999996,69.41300000000003 31.774999999999995,72.42300000000002 C 31.768999999999995,76.47300000000001 35.056,79.77400000000002 39.10699999999999,79.78100000000002 C 43.15799999999999,79.78800000000003 46.45899999999999,76.50000000000001 46.465999999999994,72.45000000000002 C 46.476,68.402 43.187,65.095 39.138,65.088 M 29.998,55.443 L 34.155,60.047 C 34.359,60.272999999999996 34.607,60.428999999999995 34.876,60.519999999999996 C 34.876999999999995,60.532999999999994 34.879,60.544 34.882,60.55799999999999 L 35.086,61.346999999999994 L 27.476,61.33299999999999 L 26.512,60.38799999999999 L 29.998,55.443 M 18.158,78.575 C 14.777000000000001,78.568 12.031000000000002,75.812 12.038,72.433 C 12.045,69.051 14.799,66.30600000000001 18.181,66.313 C 19.047,66.31400000000001 19.87,66.498 20.617,66.824 L 17.712,72.197 C 17.629,72.351 17.629,72.538 17.714,72.693 C 17.798,72.848 17.956,72.95 18.131999999999998,72.962 L 24.221999999999998,73.426 C 23.749,76.346 21.208,78.581 18.158,78.575 M 19.009,71.986 L 21.531,67.32000000000001 C 23.183,68.409 24.279,70.27300000000001 24.299,72.387 L 19.009,71.986 M 25.99,72.352 C 25.974,72.40700000000001 25.959999999999997,72.461 25.948999999999998,72.51700000000001 L 25.450999999999997,72.48100000000001 C 25.450999999999997,72.47300000000001 25.450999999999997,72.465 25.450999999999997,72.459 C 25.455999999999996,69.854 24.119999999999997,67.561 22.070999999999998,66.253 L 23.581999999999997,63.503 L 26.069999999999997,72.094 L 25.99,72.352 M 26.65,70.206 L 24.644,63.331 L 27.808999999999997,66.435 L 26.65,70.206 M 30.783,68.366 L 31.373,66.444 C 31.561,65.836 31.393,65.173 30.937,64.726 L 28.8,62.631 L 35.311,62.643 L 35.495,63.537 L 30.783,68.366 M 39.111,78.569 C 35.73,78.563 32.986,75.807 32.992,72.426 C 32.998,69.946 34.483,67.809 36.608,66.848 L 38.632,72.654 C 38.705999999999996,72.869 38.907,73.003 39.122,73.003 C 39.179,73.003 39.237,72.995 39.294,72.974 C 39.565,72.88000000000001 39.708,72.583 39.614,72.313 L 37.589,66.503 C 38.083,66.375 38.601,66.307 39.134,66.309 C 42.515,66.315 45.259,69.071 45.253,72.451 C 45.247,75.83099999999999 42.492,78.575 39.111,78.569" fill="#000000"/>
	<path d="M 96.07,30.538 C 93.55199999999999,24.584 89.94699999999999,19.237000000000002 85.35499999999999,14.644 C 80.76299999999999,10.053 75.416,6.448 69.46199999999999,3.9290000000000003 C 63.299,1.322 56.75,0.0 50.0,0.0 C 43.25,0.0 36.703,1.322 30.537,3.93 C 24.584,6.449 19.235999999999997,10.054 14.643999999999998,14.645 C 10.052,19.238 6.447999999999999,24.584 3.9289999999999985,30.539 C 1.322,36.703 0.0,43.251 0.0,50.001 C 0.0,56.751 1.322,63.299 3.93,69.464 C 6.449,75.41799999999999 10.053,80.765 14.645,85.357 C 19.237,89.948 24.584,93.553 30.538,96.072 C 36.703,98.678 43.25,100.0 50.0,100.0 C 56.75,100.0 63.299,98.678 69.463,96.071 C 75.416,93.55199999999999 80.764,89.947 85.356,85.356 C 89.948,80.764 93.553,75.41799999999999 96.071,69.463 C 98.678,63.297999999999995 100.001,56.74999999999999 100.001,49.99999999999999 C 100.001,43.24999999999999 98.678,36.703 96.07,30.538 M 50.0,1.823 C 67.52799999999999,1.823 82.896,11.236 91.326,25.268 L 49.672,49.317 L 8.51,25.553 C 16.903,11.365 32.355,1.823 50.0,1.823 M 1.822,50.001 C 1.822,41.730999999999995 3.918,33.94199999999999 7.605,27.134999999999998 L 49.089,51.086 L 49.089,98.154 C 22.944,97.665 1.822,76.26 1.822,50.001 M 50.912,98.154 L 50.912,50.706 L 92.235,26.848000000000003 C 96.019,33.723 98.17699999999999,41.614000000000004 98.17699999999999,50.001000000000005 C 98.178,76.26 77.057,97.665 50.912,98.154" fill="#000000"/>
	<path d="M 85.142,60.01 L 82.179,60.01 C 81.918,60.01 81.77,59.983999999999995 81.699,59.964 C 81.601,59.64 81.648,58.726 81.682,58.046 C 81.696,57.791 81.709,57.525 81.71900000000001,57.246 C 81.83800000000001,54.233000000000004 79.236,52.612 77.67800000000001,52.131 C 77.67600000000002,52.13 77.67200000000001,52.13 77.67000000000002,52.129 C 77.66800000000002,52.12799999999999 77.66600000000001,52.126999999999995 77.66400000000002,52.126 C 77.62500000000001,52.114999999999995 77.31400000000002,52.022 76.84000000000002,51.885 C 76.78900000000002,51.87 76.73800000000001,51.855 76.68900000000002,51.842 C 75.60000000000002,51.528999999999996 73.79900000000002,51.025999999999996 72.31000000000002,50.68 C 70.73900000000002,50.315 69.63900000000001,50.089 68.73100000000002,50.07 C 68.25400000000002,50.06 67.72900000000003,50.228 67.22700000000002,50.51 C 66.43100000000001,50.957 65.87300000000002,51.705 65.61600000000001,52.672999999999995 C 65.12600000000002,54.510999999999996 64.96800000000002,55.48499999999999 64.96100000000001,55.52499999999999 C 64.83200000000001,56.33299999999999 65.38200000000002,57.08999999999999 66.18900000000001,57.22099999999999 C 66.269,57.23399999999999 66.34700000000001,57.23999999999999 66.426,57.23999999999999 C 67.14,57.23999999999999 67.769,56.72199999999999 67.886,55.99499999999999 C 67.88799999999999,55.98699999999999 68.032,55.10799999999999 68.479,53.43699999999999 C 68.523,53.273999999999994 68.639,52.840999999999994 69.474,53.05999999999999 L 69.48,53.03899999999999 C 69.506,53.048999999999985 69.533,53.05899999999999 69.562,53.06799999999999 C 69.654,53.09899999999999 69.753,53.12699999999999 69.859,53.15099999999999 L 71.64099999999999,53.56499999999999 C 72.074,53.66599999999999 72.538,53.78199999999999 73.005,53.901999999999994 L 68.708,60.849 C 68.515,61.162 68.39,61.495999999999995 68.323,61.836 C 68.229,62.039 68.17099999999999,62.263999999999996 68.16499999999999,62.503 L 67.958,70.086 L 67.926,70.16499999999999 L 67.94800000000001,70.25999999999999 C 67.91300000000001,70.26299999999999 67.87200000000001,70.26499999999999 67.825,70.26499999999999 L 60.602000000000004,70.26499999999999 C 59.666000000000004,70.26499999999999 58.909000000000006,71.02399999999999 58.909000000000006,71.95799999999998 C 58.909000000000006,72.89399999999999 59.66700000000001,73.65099999999998 60.602000000000004,73.65099999999998 L 67.825,73.65099999999998 C 69.288,73.65099999999998 70.126,73.03799999999998 70.571,72.52199999999998 C 71.354,71.61799999999998 71.378,70.53899999999997 71.344,70.07699999999998 L 71.472,65.41399999999999 L 76.75699999999999,69.17499999999998 C 77.00999999999999,69.35999999999999 77.36999999999999,69.80299999999998 77.36999999999999,69.97399999999999 L 77.36999999999999,77.43499999999999 C 77.36999999999999,78.36999999999999 78.12899999999999,79.12799999999999 79.06299999999999,79.12799999999999 C 79.99699999999999,79.12799999999999 80.75599999999999,78.36899999999999 80.75599999999999,77.43499999999999 L 80.75599999999999,69.97399999999999 C 80.75599999999999,67.95299999999999 78.95099999999998,66.58399999999999 78.73299999999999,66.42499999999998 L 74.21399999999998,63.20999999999998 L 78.50299999999999,56.27599999999998 C 78.51099999999998,56.262999999999984 78.51699999999998,56.24999999999998 78.52399999999999,56.23699999999998 C 78.67499999999998,56.49299999999998 78.76999999999998,56.78799999999998 78.75699999999999,57.128999999999984 C 78.746,57.39499999999998 78.73299999999999,57.649999999999984 78.72099999999999,57.893999999999984 C 78.636,59.55899999999998 78.56299999999999,60.996999999999986 79.54099999999998,62.02599999999998 C 80.14699999999998,62.66399999999998 81.00999999999998,62.97199999999998 82.17699999999998,62.97199999999998 L 85.13999999999997,62.97199999999998 C 85.95699999999997,62.97199999999998 86.62099999999997,62.30899999999998 86.62099999999997,61.49099999999998 C 86.623,60.674 85.959,60.01 85.142,60.01" fill="#000000"/>
	<path cx="31.944" cy="47.245" d="M 29.217,47.245 A 2.7270000000000003,2.7270000000000003 0.0 1,0 34.671,47.245 A 2.7270000000000003,2.7270000000000003 0.0 1,0 29.217,47.245" fill="#000000" r="2.727"/>
	<path cx="78.772" cy="48.679" d="M 76.075,48.679 A 2.6970000000000023,2.6970000000000023 0.0 1,0 81.46900000000001,48.679 A 2.6970000000000023,2.6970000000000023 0.0 1,0 76.075,48.679" fill="#000000" r="2.697"/>
</svg>
