<?xml version="1.0" ?>
<svg xmlns="http://www.w3.org/2000/svg" xmlns:cc="http://creativecommons.org/ns#" xmlns:dc="http://purl.org/dc/elements/1.1/" xmlns:ev="http://www.w3.org/2001/xml-events" xmlns:inkscape="http://www.inkscape.org/namespaces/inkscape" xmlns:rdf="http://www.w3.org/1999/02/22-rdf-syntax-ns#" xmlns:sodipodi="http://sodipodi.sourceforge.net/DTD/sodipodi-0.dtd" xmlns:svg="http://www.w3.org/2000/svg" xmlns:xlink="http://www.w3.org/1999/xlink" baseProfile="full" height="600px" version="1.1" viewBox="0 0 80 80" width="557px" x="0px" y="0px">
	<defs/>
	<path d="M 24.5455,0.78080814 C 23.63117,0.85918414 22.759537,1.1312208 21.86579,1.4432082 C 20.674128,1.8591916 19.467069000000002,2.3190458 18.072044,2.3163720999999997 C 17.335252,2.3163720999999997 16.889204000000003,2.5766393999999995 16.385934000000002,2.9486630999999996 C 15.882665,3.3206868 15.306895,3.808024 14.51917,4.122918 C 10.004919,5.9291047 5.9178901,9.769605 3.9508777,14.209466 C 1.1522208,20.525462 0.55328809,28.650775 3.4390231,34.894415 C 5.3164038,38.95682 9.944060499999999,41.417498 14.037425,43.505616 C 18.121969,45.589773 22.816813000000003,48.082917 27.134882,47.028381 C 29.704934,46.400843 32.766375000000004,43.634232000000004 35.143902,41.006562 C 37.521428,38.378892 39.20863,35.918125 39.20863,35.918125 L 51.734014,12.613684000000003 L 51.854451000000005,12.402920000000003 L 52.125432,12.523356000000003 L 58.20747,15.865466000000003 L 62.452852,18.213975000000005 L 65.85518,20.080739000000005 C 65.495554,21.182385000000004 65.104247,22.330750000000005 64.71103500000001,23.483067000000005 C 64.16004000000001,22.186793000000005 63.61069600000001,20.895583000000006 63.08514300000001,19.659212000000004 L 63.29590800000001,19.267794000000002 L 62.78405200000001,18.996812000000002 L 62.78405200000001,18.966702 L 57.75583400000001,16.196666 L 57.72572400000001,16.226766 L 52.93837400000001,13.577165 L 39.78069900000001,38.055859999999996 C 39.50305400000001,38.57426099999999 39.72047900000001,39.591423999999996 39.72047900000001,39.591423999999996 L 39.75057900000001,39.591423999999996 L 39.29894300000001,57.988082999999996 L 31.259814000000006,74.457759 A 3.2318228,3.2318228 0.0 1,0 37.070869,77.28801299999999 L 45.38098,60.246265 A 3.2146909,3.2146909 0.0 0,0 45.682071,58.921465 L 46.013271,46.667062 L 51.794218,60.306483 L 55.437418,76.655722 A 3.2283149,3.2283149 0.0 0,0 61.73022,75.210485 L 58.026816,58.74082 A 3.2146909,3.2146909 0.0 0,0 57.846160999999995,58.168746999999996 L 51.071614,42.030271 L 59.923688999999996,25.560595 L 62.302307,30.980232 C 62.281987,31.059222000000002 62.229977,31.177015 62.211977,31.251215000000002 L 62.422740999999995,31.251215000000002 L 62.723831999999994,31.943724000000003 C 64.51413199999999,33.395022000000004 66.470925,32.516111 67.420851,31.582414000000004 L 67.481071,31.582414000000004 L 67.511181,31.431868000000005 C 67.74341,31.177998000000006 67.94441599999999,30.937306000000007 67.992926,30.739359000000004 C 67.94719599999999,30.651979000000004 67.888997,30.529315000000004 67.842381,30.438269000000005 L 70.311327,22.971213000000006 L 71.69634500000001,27.126268000000007 L 74.25561900000001,21.796958000000007 L 70.943618,21.04423 L 71.877,18.183866 C 71.27440899999999,15.598539999999998 67.850966,15.563992999999998 67.05954399999999,16.076228999999998 C 66.890295,16.772994999999998 66.63457399999999,17.613418 66.36703499999999,18.484958 C 65.489038,18.131272 64.41615999999999,17.491995 63.11525299999999,16.618192999999998 C 62.49633499999999,16.202475 61.81472399999999,15.716778999999997 61.12805199999999,15.233174999999997 C 61.00091999999999,15.143274999999997 60.866463999999986,15.051753999999997 60.73663399999999,14.962192999999997 C 60.69751399999999,14.934482999999997 60.655503999999986,14.899742999999997 60.61619799999999,14.871862999999998 C 60.455939,14.761287 60.296949,14.656908 60.134452,14.540667 C 59.47458,14.070396 58.821743,13.602116 58.117142,13.09543 C 54.463946,10.468378 50.35039,7.5449945 46.796122,5.9294652 C 43.479358,4.422005 36.137502,2.7981188 36.137502,2.7981188 C 36.137502,2.7981188 29.555721,1.1184898 25.478880999999998,0.78080924 C 25.163424999999997,0.75474224 24.850275999999997,0.75468424 24.545499999999997,0.78080924 L 24.5455,0.78080814 M 66.908999,1.8045175 C 63.215472999999996,1.8045175 60.224779999999996,4.7952103 60.224779999999996,8.4887367 C 60.224779999999996,12.182265000000001 63.215472999999996,15.172956 66.908999,15.172956 C 70.602525,15.172956 73.593218,12.182265 73.593218,8.4887367 C 73.593218,4.795210300000001 70.602525,1.8045175000000002 66.908999,1.8045175000000002 L 66.908999,1.8045175 M 55.437433,10.174847 C 55.310632999999996,10.190267 55.177183,10.226947 55.046014,10.295283 C 55.225477,10.419381 55.409396,10.531882999999999 55.587979,10.656592999999999 C 56.540605,11.324058999999998 57.477579999999996,12.019067 58.388124999999995,12.673901999999998 C 58.394524999999994,12.678601999999998 58.411784999999995,12.669201999999999 58.41822499999999,12.673901999999998 C 59.32496999999999,13.325974999999998 60.17644399999999,13.982141999999998 61.00760699999999,14.570774999999998 C 61.013906999999996,14.575274999999998 61.031386999999995,14.566374999999997 61.03770699999999,14.570774999999998 C 61.867189999999994,15.158057999999997 62.65846599999999,15.707950999999998 63.38621799999999,16.196665999999997 C 63.392517999999995,16.200865999999998 63.409997999999995,16.192465999999996 63.41632799999999,16.196665999999997 C 63.83806599999999,16.479941999999998 64.18427299999999,16.681827 64.560474,16.919283999999998 L 64.620694,16.798847999999996 C 65.043739,16.0102 64.988912,15.164 64.500258,14.901975 L 55.828843000000006,10.235065 C 55.70671800000001,10.169815 55.58174600000001,10.159945 55.437425000000005,10.174845000000001 L 55.437433,10.174847" fill="#000000" fill-opacity="1" stroke="none"/>
</svg>
