<?xml version="1.0" ?>
<svg xmlns="http://www.w3.org/2000/svg" xmlns:ev="http://www.w3.org/2001/xml-events" xmlns:graph="http://ns.adobe.com/Graphs/1.0/" xmlns:i="http://ns.adobe.com/AdobeIllustrator/10.0/" xmlns:x="http://ns.adobe.com/Extensibility/1.0/" xmlns:xlink="http://www.w3.org/1999/xlink" baseProfile="full" enable-background="new 0 0 100 100" height="600px" version="1.1" viewBox="0 0 100 100" width="356px" x="0px" xml:space="preserve" y="0px">
	<defs/>
	<path d="M 50.099,5.0 C 50.099,31.319 23.308999999999997,50.249 23.308999999999997,69.18 C 23.308999999999997,83.715 35.303,95.498 50.099,95.498 C 64.893,95.498 76.886,83.715 76.886,69.18 C 76.886,50.249 50.099,31.319 50.099,5.0 M 60.876,82.738 L 39.318,82.738 L 39.318,76.998 L 60.876,77.00200000000001 L 60.876,82.738 M 60.876,62.879 L 53.022,62.875 L 53.022,70.6 L 47.17,70.6 L 47.17,62.87499999999999 L 39.317,62.87499999999999 L 39.317,57.13499999999999 L 47.17,57.13499999999999 L 47.17,49.41799999999999 L 53.022000000000006,49.41799999999999 L 53.022000000000006,57.13499999999999 L 60.876000000000005,57.13499999999999 L 60.876000000000005,62.879 L 60.876,62.879"/>
</svg>
