<?xml version="1.0" ?>
<svg xmlns="http://www.w3.org/2000/svg" xmlns:ev="http://www.w3.org/2001/xml-events" xmlns:xlink="http://www.w3.org/1999/xlink" baseProfile="full" enable-background="new 0 0 100 94.616" height="568px" version="1.1" viewBox="0 0 100 94.616" width="600px" x="0px" xml:space="preserve" y="0px">
	<defs/>
	<path d="M 25.076,15.639 C 29.4,15.648 32.9,12.151 32.896,7.818999999999999 C 32.9,3.512 29.4,0.012 25.076,0.0 C 20.763,0.012 17.262,3.512 17.255000000000003,7.819 C 17.262,12.15 20.763,15.648 25.076,15.639 L 25.076,15.639"/>
	<path d="M 4.593,43.388 L 11.454,43.388 L 15.591000000000001,28.253 L 17.307000000000002,28.253 L 13.22,43.388 L 37.538000000000004,43.388 L 33.149,28.253 L 34.966,28.253 L 37.286,35.668 C 38.366,38.799 41.138,39.519 43.289,36.83 L 51.664,26.688 C 54.315,23.268 49.56,19.666999999999998 46.82,22.653 L 41.827,28.604999999999997 C 41.833999999999996,28.699999999999996 40.867,25.326999999999998 40.867,25.326999999999998 C 39.732,21.348999999999997 35.949,17.424 30.272,17.404999999999998 L 19.576,17.404999999999998 C 14.505,17.423999999999996 10.533000000000001,21.839 9.688,24.619 L 4.593,43.388 L 4.593,43.388"/>
	<path d="M 79.87,15.738 C 84.202,15.724 87.70100000000001,12.222 87.69,7.917999999999999 C 87.701,3.5859999999999994 84.202,0.08499999999999908 79.87,0.09799999999999898 C 75.56400000000001,0.08499999999999898 72.06400000000001,3.585999999999999 72.049,7.917999999999999 C 72.064,12.222 75.564,15.725 79.87,15.738 L 79.87,15.738"/>
	<path d="M 89.759,89.556 L 89.759,46.366 L 95.51,46.366 L 95.51,22.804 C 95.51700000000001,19.724999999999998 92.753,17.355999999999998 88.80000000000001,17.354999999999997 L 70.436,17.354999999999997 C 66.786,17.355999999999998 65.897,18.540999999999997 64.885,19.522999999999996 L 49.597,37.889 C 46.499,41.737 52.025,46.222 55.147,42.632000000000005 L 69.88,25.226 L 69.88,89.656 C 69.86099999999999,96.131 78.94,96.34200000000001 78.961,89.857 L 78.961,53.277 L 80.726,53.277 L 80.726,89.656 C 80.748,96.109 89.772,96.13 89.759,89.556 L 89.759,89.556"/>
	<path d="M 56.206,22.753 L 56.206,7.163 L 49.192,7.163 L 49.192,22.753 L 56.206,22.753 L 56.206,22.753" points="56.206,22.753 56.206,7.163 49.192,7.163 49.192,22.753 56.206,22.753 "/>
	<path d="M 100.0,54.035 L 100.0,45.155 L 0.0,45.155 L 0.0,54.035 L 100.0,54.035 L 100.0,54.035" points="100,54.035 100,45.155 0,45.155 0,54.035 100,54.035 "/>
</svg>
