<?xml version="1.0" ?>
<svg xmlns="http://www.w3.org/2000/svg" xmlns:cc="http://creativecommons.org/ns#" xmlns:dc="http://purl.org/dc/elements/1.1/" xmlns:ev="http://www.w3.org/2001/xml-events" xmlns:inkscape="http://www.inkscape.org/namespaces/inkscape" xmlns:rdf="http://www.w3.org/1999/02/22-rdf-syntax-ns#" xmlns:sodipodi="http://sodipodi.sourceforge.net/DTD/sodipodi-0.dtd" xmlns:svg="http://www.w3.org/2000/svg" xmlns:xlink="http://www.w3.org/1999/xlink" baseProfile="full" enable-background="new 0 1.071 100 97.857" height="588px" version="1.1" viewBox="0 1.071 100 97.857" width="600px" x="0px" xml:space="preserve" y="0px">
	<defs/>
	<path d="M 50.021,1.071 L 10.313,27.543 L 89.726,27.543 L 50.021,1.071"/>
	<path d="M 94.822,80.572 L 99.904,80.572 L 99.904,98.837 L 94.822,98.837 L 94.822,80.572 M 0.0,80.321 L 5.083,80.321 L 5.083,98.58699999999999 L 0.0,98.58699999999999 L 0.0,80.321 M 5.028,93.676 L 94.875,93.84700000000001 L 100.0,98.929 L 0.075,98.929 L 5.028,93.676"/>
	<path d="M 15.614,32.857 C 12.68,32.857 10.333000000000002,35.205 10.333000000000002,38.138 L 10.253000000000002,87.85 L 89.548,88.009 L 89.747,38.137 C 89.747,35.203 87.359,32.856 84.426,32.856 L 15.614,32.856 L 15.614,32.857 M 25.58,40.798 C 28.503,40.798 30.86,43.07 30.860999999999997,45.881 C 30.860999999999997,48.7 28.502999999999997,51.003 25.58,51.003 C 22.648,51.003 20.259,48.7 20.259,45.881 C 20.259,43.072 22.648,40.798 25.58,40.798 M 50.0,40.798 C 52.924,40.798 55.32,43.07 55.32,45.881 C 55.32,48.7 52.924,51.003 50.0,51.003 C 47.068,51.003 44.679,48.7 44.679,45.881 C 44.679,43.072 47.068,40.798 50.0,40.798 M 73.507,40.798 C 76.43,40.798 78.78800000000001,43.07 78.78800000000001,45.881 C 78.78800000000001,48.7 76.43,51.003 73.507,51.003 C 70.57600000000001,51.003 68.186,48.7 68.186,45.881 C 68.186,43.072 70.576,40.798 73.507,40.798 M 25.461,54.298 C 28.976,54.298 31.83,57.098 31.773999999999997,60.611000000000004 L 32.131,79.909 L 18.988,80.028 L 19.067999999999998,60.611000000000004 C 19.088,57.098 21.946,54.298 25.461,54.298 M 49.92,54.298 C 53.435,54.298 56.289,57.098 56.234,60.611000000000004 L 56.591,79.909 L 43.408,80.028 L 43.527,60.611000000000004 C 43.548,57.098 46.405,54.298 49.92,54.298 M 73.388,54.298 C 76.90400000000001,54.298 79.795,57.098 79.741,60.611000000000004 L 80.059,79.909 L 66.91499999999999,80.028 L 67.03399999999999,60.611000000000004 C 67.055,57.098 69.872,54.298 73.388,54.298"/>
</svg>
