<?xml version="1.0" ?>
<svg xmlns="http://www.w3.org/2000/svg" xmlns:ev="http://www.w3.org/2001/xml-events" xmlns:xlink="http://www.w3.org/1999/xlink" baseProfile="full" enable-background="new 0 0 500 500" height="600px" version="1.1" viewBox="0 0 500 500" width="285px" x="0px" xml:space="preserve" y="0px">
	<defs/>
	<path d="M 297.25,174.75 L 285.0,174.75 L 285.0,167.0 L 278.0,167.0 C 277.0,80.5 250.0,77.0 250.0,77.0 C 250.0,77.0 223.0,80.5 222.0,167.0 L 215.0,167.0 L 215.0,174.75 L 202.75,174.75 L 202.75,215.0 C 202.75,215.0 169.5,230.0 169.25,254.5 C 169.0,279.0 169.25,397.25 169.25,397.25 C 169.25,397.25 169.139,409.0 185.944,416.75 L 314.05499999999995,416.75 C 330.86099999999993,409.0 330.74899999999997,397.25 330.74899999999997,397.25 C 330.74899999999997,397.25 330.99899999999997,279.0 330.74899999999997,254.5 C 330.49899999999997,230.0 297.24899999999997,215.0 297.24899999999997,215.0 L 297.24899999999997,174.75 L 297.25,174.75" stroke="#000000" stroke-miterlimit="10" stroke-width="2"/>
	<path d="M 247.066,78.12 L 247.066,75.0" fill="none" stroke="#000000" stroke-miterlimit="10" stroke-width="2" x1="247.066" x2="247.066" y1="78.12" y2="75"/>
	<path d="M 247.066,75.0 L 253.0,75.0" fill="none" stroke="#000000" stroke-miterlimit="10" stroke-width="2" x1="247.066" x2="253" y1="75" y2="75"/>
	<path d="M 253.0,75.0 L 253.0,78.12" fill="none" stroke="#000000" stroke-miterlimit="10" stroke-width="2" x1="253" x2="253" y1="75" y2="78.12"/>
	<path d="M 248.0,75.0 L 252.0,75.0 L 252.0,77.0 L 248.0,77.0 L 248.0,75.0" height="2" stroke="#000000" stroke-miterlimit="10" stroke-width="2" width="4" x="248" y="75"/>
</svg>
