<?xml version="1.0" ?>
<svg xmlns="http://www.w3.org/2000/svg" xmlns:ev="http://www.w3.org/2001/xml-events" xmlns:xlink="http://www.w3.org/1999/xlink" baseProfile="full" enable-background="new 0 0 100 100" height="600px" version="1.1" viewBox="0 0 100 100" width="600px" x="0px" xml:space="preserve" y="0px">
	<defs/>
	<path d="M 50.0,1.0 C 22.938,1.0 1.0,22.938 1.0,50.0 C 1.0,77.062 22.938,99.0 50.0,99.0 C 77.062,99.0 99.0,77.062 99.0,50.0 C 99.0,22.938 77.062,1.0 50.0,1.0 M 50.0,83.709 C 45.836,83.709 42.46,80.333 42.46,76.169 C 42.46,72.005 45.836,68.62899999999999 50.0,68.62899999999999 C 54.164,68.62899999999999 57.54,72.005 57.54,76.169 C 57.54,80.333 54.164,83.709 50.0,83.709 M 57.54,55.297 C 57.54,59.461 54.164,62.837999999999994 50.0,62.837999999999994 C 45.836,62.837999999999994 42.46,59.46099999999999 42.46,55.297 L 42.46,23.831 C 42.46,19.667 45.836,16.291 50.0,16.291 C 54.164,16.291 57.54,19.667 57.54,23.831 L 57.54,55.297" fill="#000000"/>
</svg>
