<?xml version="1.0" ?>
<svg xmlns="http://www.w3.org/2000/svg" xmlns:ev="http://www.w3.org/2001/xml-events" xmlns:xlink="http://www.w3.org/1999/xlink" baseProfile="full" enable-background="new 0 0 100 100" height="587px" version="1.1" viewBox="0 0 100 100" width="600px" x="0px" xml:space="preserve" y="0px">
	<defs/>
	<path d="M 55.071,2.212 C 52.123999999999995,-0.7359999999999998 47.339999999999996,-0.7359999999999998 44.39,2.212 L 2.21,44.396 C -0.7370000000000001,47.344 -0.7370000000000001,52.125 2.2119999999999997,55.074 L 44.926,97.79 C 47.875,100.73700000000001 52.655,100.73700000000001 55.605000000000004,97.79 L 97.789,55.608000000000004 C 100.737,52.659000000000006 100.737,47.876000000000005 97.789,44.928000000000004 L 55.071,2.212 M 93.546,51.366 L 51.362,93.547 C 50.986000000000004,93.922 50.558,94.00099999999999 50.263000000000005,94.00099999999999 C 49.970000000000006,94.00099999999999 49.54200000000001,93.922 49.167,93.547 L 6.454,50.831 C 6.077,50.454 5.999,50.026 5.999,49.733000000000004 C 5.999,49.440000000000005 6.077,49.01200000000001 6.452,48.638000000000005 L 48.633,6.455 C 49.01,6.079 49.438,6.0 49.73,6.0 C 50.02199999999999,6.0 50.45099999999999,6.079 50.82599999999999,6.453 L 93.54599999999999,49.172000000000004 C 93.92099999999999,49.547000000000004 93.999,49.975 93.999,50.268 C 93.999,50.562 93.921,50.99 93.546,51.366"/>
	<path d="M 38.54,39.041 L 34.04,53.416 L 34.04,71.625 L 40.04,71.625 L 40.04,54.334 L 44.54,39.959 L 44.54,25.0 L 38.54,25.0 L 38.54,39.041" points="38.54,39.041 34.04,53.416 34.04,71.625 40.04,71.625 40.04,54.334 44.54,39.959 44.54,25 38.54,25   "/>
	<path d="M 61.456,25.0 L 55.456,25.0 L 55.456,39.959 L 59.956,54.334 L 59.956,71.625 L 65.956,71.625 L 65.956,53.416 L 61.456,39.041 L 61.456,25.0" points="61.456,25 55.456,25 55.456,39.959 59.956,54.334 59.956,71.625 65.956,71.625 65.956,53.416 61.456,39.041   "/>
</svg>
