<?xml version="1.0" ?>
<svg xmlns="http://www.w3.org/2000/svg" xmlns:cc="http://creativecommons.org/ns#" xmlns:dc="http://purl.org/dc/elements/1.1/" xmlns:ev="http://www.w3.org/2001/xml-events" xmlns:inkscape="http://www.inkscape.org/namespaces/inkscape" xmlns:rdf="http://www.w3.org/1999/02/22-rdf-syntax-ns#" xmlns:sodipodi="http://sodipodi.sourceforge.net/DTD/sodipodi-0.dtd" xmlns:svg="http://www.w3.org/2000/svg" xmlns:xlink="http://www.w3.org/1999/xlink" baseProfile="full" height="600px" version="1.1" viewBox="0 0 80 80" width="184px" x="0px" y="0px">
	<defs/>
	<path d="M -620.65512,7781.211 L -620.64512,7791.8811000000005 C -618.20721,7791.8811000000005 -616.17433,7790.2457 -615.5383,7788.0118 L -598.2076400000001,7788.0218 C -599.4274600000001,7789.6647 -600.1601300000001,7791.6741 -600.16011,7793.867700000001 C -600.16012,7799.303100000001 -595.6987,7803.754900000001 -590.26333,7803.754800000001 L -556.74511,7803.754800000001 L -545.56304,7803.7448 L -535.76232,7803.7348 C -530.32695,7803.7347 -525.8953200000001,7799.3089 -525.89531,7793.873500000001 C -525.89531,7791.692900000001 -526.63408,7789.663100000001 -527.84082,7788.0254 L -520.97754,7788.0154 C -514.80508,7791.0419 -511.8132,7804.040800000001 -511.8132,7804.040800000001 C -511.54551,7805.0587000000005 -510.7969,7805.0299 -510.79690999999997,7804.0298 L -510.81831,7786.0479000000005 L -510.80831,7769.0468 C -510.80832,7768.0467 -511.55864,7768.0399 -511.80446,7769.0218 C -511.80446,7769.0218 -514.79553,7781.0348 -521.1699,7784.170800000001 L -534.03487,7784.157800000001 L -591.27355,7784.025100000001 L -615.99486,7783.960100000001 C -616.90686,7782.328400000001 -618.65264,7781.200200000001 -620.65473,7781.200200000001 L -620.65512,7781.211 M -592.02536,7788.261100000001 C -591.57578,7788.123700000001 -591.1138,7788.050800000001 -590.62207,7788.0232000000005 L -555.09911,7788.0122 C -555.09911,7788.0122 -549.73197,7788.1458 -547.23676,7788.149 C -543.94817,7788.1491000000005 -541.35766,7790.7311 -541.35768,7794.019700000001 C -541.3576899999999,7796.866400000001 -543.2958,7799.182100000001 -545.9489,7799.7551 L -546.0325,7799.7781 L -590.2918900000001,7799.744100000001 C -593.5804800000001,7799.744100000001 -596.1431200000001,7797.154300000001 -596.1431100000001,7793.8658000000005 C -596.1431100000001,7791.193800000001 -594.4296,7788.995400000001 -592.02538,7788.261200000001 L -592.02536,7788.261100000001 M -539.41584,7788.0263 L -535.12495,7788.040300000001 C -532.14984,7788.3535 -529.91254,7790.8153 -529.91252,7793.8854 C -529.91253,7797.1739 -532.49459,7799.7644 -535.78319,7799.7643 L -539.23262,7799.7543 C -538.06084,7798.133599999999 -537.3406,7796.156999999999 -537.34058,7794.0152 C -537.34059,7791.7568 -538.12714,7789.6873 -539.41584,7788.0229 L -539.41584,7788.0263" display="inline" fill="#000000" marker="none" overflow="visible" stroke="none" style="color:#000000;enable-background:accumulate;" visibility="visible"/>
	<path d="M -536.87125,7446.8478 L -534.24423,7447.573899999999 C -533.75911,7447.707799999999 -533.47648,7448.2063 -533.61054,7448.691499999999 L -539.44499,7469.804999999999 C -539.5790599999999,7470.290099999999 -540.0775299999999,7470.572799999999 -540.56265,7470.4387 L -543.18968,7469.7127 C -543.67481,7469.5787 -543.95742,7469.0802 -543.82337,7468.5951000000005 L -537.9889,7447.481500000001 C -537.85484,7446.996500000001 -537.35638,7446.7138 -536.8712499999999,7446.8478000000005 L -536.87125,7446.8478" display="inline" fill="#000000" fill-opacity="1" fill-rule="nonzero" marker="none" overflow="visible" stroke="none" style="color:#000000;enable-background:accumulate;" visibility="visible"/>
	<path d="M -529.18473,7448.9719 L -526.5577,7449.697899999999 C -526.0725799999999,7449.831899999999 -525.78995,7450.330399999999 -525.92401,7450.815599999999 L -531.7584599999999,7471.928999999999 C -531.8925399999999,7472.414199999999 -532.3910099999999,7472.696899999999 -532.8761199999999,7472.562799999999 L -535.5031499999999,7471.836799999999 C -535.9882899999999,7471.702799999999 -536.2708999999999,7471.204299999999 -536.1368399999999,7470.7192 L -530.3023799999999,7449.6056 C -530.1683199999999,7449.1206 -529.6698599999999,7448.8378999999995 -529.1847299999998,7448.9719 L -529.18473,7448.9719" display="inline" fill="#000000" fill-opacity="1" fill-rule="nonzero" marker="none" overflow="visible" stroke="none" style="color:#000000;enable-background:accumulate;" visibility="visible"/>
	<path d="M -521.49826,7451.096 L -518.87124,7451.8219 C -518.3860999999999,7451.9559 -518.10348,7452.4545 -518.23754,7452.9397 L -524.0719899999999,7474.0531 C -524.20607,7474.5382 -524.7045299999999,7474.8208 -525.1896599999999,7474.6868 L -527.8166799999999,7473.9609 C -528.3018199999999,7473.8269 -528.5844299999999,7473.3283 -528.4503899999999,7472.8432 L -522.6159199999998,7451.7297 C -522.4818499999999,7451.2446 -521.9833899999999,7450.9619999999995 -521.4982599999998,7451.096 L -521.49826,7451.096" display="inline" fill="#000000" fill-opacity="1" fill-rule="nonzero" marker="none" overflow="visible" stroke="none" style="color:#000000;enable-background:accumulate;" visibility="visible"/>
	<path d="M -535.05711,7445.3991 C -534.79034,7445.473099999999 -534.63487,7445.746999999999 -534.70861,7446.0139 L -535.25995,7448.0091 C -535.33365,7448.275900000001 -535.60782,7448.4313 -535.87463,7448.3575 C -536.14139,7448.2835000000005 -536.29688,7448.0097000000005 -536.22315,7447.743 L -535.67179,7445.747700000001 C -535.59809,7445.4809000000005 -535.32391,7445.325500000001 -535.05711,7445.3991000000005 L -535.05711,7445.3991" display="inline" fill="#000000" fill-opacity="1" fill-rule="nonzero" marker="none" overflow="visible" stroke="none" style="color:#000000;enable-background:accumulate;" visibility="visible"/>
	<path d="M -527.33254,7447.3856 C -527.06577,7447.459599999999 -526.91031,7447.733499999999 -526.98404,7448.0004 L -527.5354000000001,7449.9955 C -527.6091000000001,7450.2624 -527.8832600000001,7450.4178 -528.15006,7450.344 C -528.41682,7450.27 -528.57231,7449.9962000000005 -528.49859,7449.7294 L -527.9472400000001,7447.7342 C -527.87354,7447.4673999999995 -527.5993500000001,7447.3119 -527.3325400000001,7447.3856 L -527.33254,7447.3856" display="inline" fill="#000000" fill-opacity="1" fill-rule="nonzero" marker="none" overflow="visible" stroke="none" style="color:#000000;enable-background:accumulate;" visibility="visible"/>
	<path d="M -519.64608,7449.5097 C -519.37931,7449.583699999999 -519.22384,7449.857599999999 -519.29757,7450.1242999999995 L -519.84893,7452.119599999999 C -519.92263,7452.386399999999 -520.1967999999999,7452.541799999999 -520.46359,7452.468099999999 C -520.7303499999999,7452.3940999999995 -520.88585,7452.1203 -520.81211,7451.853399999999 L -520.26076,7449.858199999999 C -520.18696,7449.591399999998 -519.91288,7449.435899999999 -519.64608,7449.509699999999 L -519.64608,7449.5097" display="inline" fill="#000000" fill-opacity="1" fill-rule="nonzero" marker="none" overflow="visible" stroke="none" style="color:#000000;enable-background:accumulate;" visibility="visible"/>
	<path d="M -537.43156,7444.0765 L -532.34039,7445.4833 C -531.9973799999999,7445.5783 -531.7975299999999,7445.9307 -531.89229,7446.2735999999995 C -531.98709,7446.6167 -532.33959,7446.8165 -532.68262,7446.721699999999 L -537.7737900000001,7445.314899999999 C -538.1168000000001,7445.219899999999 -538.3166600000001,7444.8676 -538.2218500000001,7444.5244999999995 C -538.1270500000002,7444.1816 -537.7746000000001,7443.981699999999 -537.4315600000001,7444.076499999999 L -537.43156,7444.0765" display="inline" fill="#000000" fill-opacity="1" fill-rule="nonzero" marker="none" overflow="visible" stroke="none" style="color:#000000;enable-background:accumulate;" visibility="visible"/>
	<path d="M -529.74503,7446.2005 L -524.65386,7447.6074 C -524.31086,7447.7024 -524.11099,7448.0547 -524.20577,7448.3976999999995 C -524.30057,7448.740699999999 -524.65306,7448.9406 -524.9961000000001,7448.845799999999 L -530.0872700000001,7447.438999999999 C -530.4302800000002,7447.343999999999 -530.6301200000001,7446.991599999999 -530.5353300000002,7446.6485999999995 C -530.4405300000002,7446.3056 -530.0880600000002,7446.105799999999 -529.7450300000002,7446.2005 L -529.74503,7446.2005" display="inline" fill="#000000" fill-opacity="1" fill-rule="nonzero" marker="none" overflow="visible" stroke="none" style="color:#000000;enable-background:accumulate;" visibility="visible"/>
	<path d="M -522.05855,7448.3245 L -516.96739,7449.7315 C -516.6243900000001,7449.8265 -516.42453,7450.1788 -516.5193,7450.5217999999995 C -516.6141,7450.864799999999 -516.9666000000001,7451.0647 -517.3096300000001,7450.969899999999 L -522.4008000000001,7449.563099999999 C -522.7438100000002,7449.468099999999 -522.9436600000001,7449.115699999999 -522.8488600000002,7448.7726999999995 C -522.7540600000002,7448.4297 -522.4015900000002,7448.2297 -522.0585500000002,7448.3245 L -522.05855,7448.3245" display="inline" fill="#000000" fill-opacity="1" fill-rule="nonzero" marker="none" overflow="visible" stroke="none" style="color:#000000;enable-background:accumulate;" visibility="visible"/>
</svg>
