<?xml version="1.0" ?>
<svg xmlns="http://www.w3.org/2000/svg" xmlns:ev="http://www.w3.org/2001/xml-events" xmlns:xlink="http://www.w3.org/1999/xlink" baseProfile="full" enable-background="new 0 0 80.011 100" height="600px" version="1.1" viewBox="0 0 80.011 100" width="481px" x="0px" xml:space="preserve" y="0px">
	<defs/>
	<path d="M 73.144,14.856 C 69.539,11.222 64.531,8.988 59.00900000000001,8.988 C 56.42900000000001,8.988 53.974000000000004,9.501 51.71200000000001,10.389 L 44.66600000000001,3.342999999999999 L 44.66600000000001,3.342999999999999 C 43.22400000000001,1.885999999999999 41.21200000000001,0.9979999999999989 39.006000000000014,0.9979999999999989 C 37.53500000000001,0.9979999999999989 36.134000000000015,1.414999999999999 34.95500000000001,2.1079999999999988 L 33.43,0.583 C 33.07,0.222 32.557,0.0 32.016,0.0 C 30.906,0.0 30.017999999999997,0.888 30.017999999999997,1.998 C 30.017999999999997,2.553 30.225999999999996,3.052 30.600999999999996,3.4130000000000003 L 32.126999999999995,4.939 C 31.543999999999997,5.938 31.169999999999995,7.061 31.058999999999994,8.282 C 19.781999999999996,11.015 12.276999999999994,15.994 8.225999999999996,23.43 C 0.0,38.521 8.989,58.746 16.923,76.599 C 18.865,80.95400000000001 20.752,85.185 22.194,88.99900000000001 C 16.686999999999998,88.99900000000001 9.806999999999999,88.99900000000001 7.018999999999998,88.99900000000001 C 2.011,89.0 0.0,100.0 0.0,100.0 L 60.008,100.0 C 60.008,100.0 58.011,88.999 53.003,88.999 C 49.243,88.999 38.105000000000004,88.999 32.834,88.999 C 31.169000000000004,84.02 28.714000000000002,78.499 26.064000000000004,72.53399999999999 C 19.059000000000005,56.80399999999999 11.138000000000003,38.977999999999994 17.006000000000004,28.21399999999999 C 19.863000000000003,22.94299999999999 26.300000000000004,19.33599999999999 36.093,17.407999999999994 L 40.393,21.707999999999995 C 39.505,23.968999999999994 39.006,26.423999999999996 39.006,29.003999999999994 C 39.006,34.52499999999999 41.253,39.504999999999995 44.86,43.138999999999996 L 54.763999999999996,33.235 C 55.846,34.317 57.358,34.997 59.007999999999996,34.997 C 62.32299999999999,34.997 65.0,32.306 65.0,29.003999999999998 C 65.0,27.339 64.334,25.840999999999998 63.253,24.758999999999997 L 73.144,14.856"/>
	<path d="M 57.011,47.996 C 57.011,49.106 57.900000000000006,49.994 59.009,49.994 C 60.117999999999995,49.994 61.007,49.106 61.007,47.996 L 61.007,37.994 L 57.010999999999996,37.994 L 57.010999999999996,47.996 L 57.011,47.996"/>
	<path d="M 78.013,26.994 L 68.012,26.994 L 68.012,31.003 L 78.013,31.003 C 79.10900000000001,31.003 80.01100000000001,30.101 80.01100000000001,29.005 C 80.011,27.896 79.109,26.994 78.013,26.994"/>
	<path d="M 74.421,41.573 L 67.346,34.526 L 64.51700000000001,37.342000000000006 L 71.605,44.403000000000006 C 72.382,45.194 73.63000000000001,45.194 74.421,44.403000000000006 C 75.197,43.626000000000005 75.197,42.364000000000004 74.421,41.587 L 74.421,41.573"/>
</svg>
