<?xml version="1.0" ?>
<svg xmlns="http://www.w3.org/2000/svg" xmlns:ev="http://www.w3.org/2001/xml-events" xmlns:xlink="http://www.w3.org/1999/xlink" baseProfile="full" enable-background="new 0 0 100.001 74.65" height="449px" version="1.1" viewBox="0 0 100.001 74.65" width="600px" x="0px" xml:space="preserve" y="0px">
	<defs/>
	<path d="M 32.13,63.808 C 34.779,61.81 38.566,62.337 40.564,65.0 C 42.561,67.678 42.021,71.45 39.357,73.434 C 36.694,75.446 32.907,74.905 30.923000000000002,72.242 C 28.926,69.578 29.467,65.791 32.13,63.808"/>
	<path d="M 35.348,61.394 C 37.179,60.007 42.769,59.577999999999996 42.769,59.577999999999996 L 46.388999999999996,64.405 C 46.388999999999996,64.405 44.419,69.648 42.574999999999996,71.035 C 40.952,72.24199999999999 39.357,73.434 39.357,73.434 L 32.129999999999995,63.808 C 32.13,63.808 33.739,62.601 35.348,61.394"/>
	<path d="M 30.715,74.641 C 22.683999999999997,66.61 29.245,55.58200000000001 39.509,41.35000000000001 C 49.747,27.118 46.084,4.037 19.383,0.0 C 22.669999999999998,6.229 29.273,16.84 7.383999999999999,34.761 C -2.464000000000002,43.86 -1.4510000000000023,54.569 4.526999999999998,62.6 C 9.839,69.758 22.684,73.643 30.715,74.641"/>
	<path d="M 96.382,19.42 L 100.001,24.247 L 47.985,63.197 L 44.378,58.384 L 96.382,19.42" points="96.382,19.42 100.001,24.247 47.985,63.197 44.378,58.384 "/>
</svg>
