<?xml version="1.0" ?>
<svg xmlns="http://www.w3.org/2000/svg" xmlns:ev="http://www.w3.org/2001/xml-events" xmlns:xlink="http://www.w3.org/1999/xlink" baseProfile="full" enable-background="new 0 0 100 100" height="600px" version="1.1" viewBox="0 0 100 100" width="600px" x="0px" xml:space="preserve" y="0px">
	<defs/>
	<path d="M 50.0,0.0 C 22.385,0.0 0.0,22.385 0.0,50.0 C 0.0,77.615 22.385,100.0 50.0,100.0 C 77.614,100.0 100.0,77.615 100.0,50.0 C 100.0,22.385 77.614,0.0 50.0,0.0 M 59.71,36.458 C 60.266,35.193999999999996 61.745000000000005,34.625 63.005,35.177 L 75.864,40.837 C 77.128,41.394000000000005 77.702,42.870000000000005 77.144,44.133 C 76.733,45.069 75.816,45.627 74.855,45.627 C 74.518,45.627 74.177,45.559000000000005 73.851,45.415 L 60.991,39.754 C 59.727,39.197 59.152,37.722 59.71,36.458 M 20.519,21.326 C 21.735,18.467 29.991,14.542000000000002 29.991,14.542000000000002 C 29.991,14.542000000000002 32.087,22.874000000000002 30.869,25.732 C 29.652,28.591 26.349,29.922 23.490000000000002,28.705 C 20.632,27.488 19.302,24.183 20.519,21.326 M 25.748,45.626 C 24.787000000000003,45.626 23.872,45.068 23.459,44.132 C 22.903,42.869 23.477,41.393 24.741,40.836 L 37.6,35.176 C 38.864000000000004,34.620000000000005 40.339,35.193000000000005 40.895,36.457 C 41.452000000000005,37.721000000000004 40.878,39.196 39.614000000000004,39.752 L 26.755000000000003,45.413000000000004 C 26.426,45.558 26.084,45.626 25.748,45.626 M 79.782,64.911 L 71.163,73.481 C 71.55799999999999,73.708 71.898,74.038 72.128,74.46799999999999 C 72.775,75.68399999999998 72.318,77.19299999999998 71.105,77.84299999999999 C 70.76,78.029 64.664,81.228 56.82600000000001,81.228 C 53.99600000000001,81.228 50.937000000000005,80.81099999999999 47.84100000000001,79.681 C 37.93800000000001,76.073 31.779000000000007,79.77799999999999 31.71900000000001,79.817 C 30.54500000000001,80.54499999999999 29.00500000000001,80.17999999999999 28.27800000000001,79.008 C 27.550000000000008,77.835 27.91100000000001,76.29299999999999 29.085000000000008,75.566 C 29.419000000000008,75.361 37.394000000000005,70.549 49.55100000000001,74.98400000000001 C 53.464000000000006,76.409 57.37300000000001,76.40200000000002 60.641000000000005,75.906 C 60.745000000000005,75.751 60.86600000000001,75.602 61.004000000000005,75.465 L 75.816,60.738 C 75.372,58.856 75.869,56.799 77.34100000000001,55.334 C 79.593,53.093 83.23700000000001,53.104000000000006 85.47900000000001,55.356 C 87.72100000000002,57.608 87.71000000000001,61.253 85.45600000000002,63.496 C 83.915,65.028 81.73,65.481 79.782,64.911"/>
</svg>
