<?xml version="1.0" ?>
<svg xmlns="http://www.w3.org/2000/svg" xmlns:ev="http://www.w3.org/2001/xml-events" xmlns:xlink="http://www.w3.org/1999/xlink" baseProfile="full" enable-background="new 0 0 100 100" height="600px" version="1.1" viewBox="0 0 100 100" width="600px" x="0px" xml:space="preserve" y="0px">
	<defs/>
	<path d="M 49.895,1.289 C 22.935000000000002,1.289 1.0790000000000006,23.145000000000003 1.0790000000000006,50.105000000000004 C 1.0790000000000006,77.066 22.935000000000002,98.921 49.895,98.921 C 76.856,98.921 98.71100000000001,77.066 98.71100000000001,50.105000000000004 C 98.711,23.145 76.855,1.289 49.895,1.289 M 88.0,60.27 L 88.0,69.9 C 88.0,71.129 87.091,72.0 85.861,72.0 L 14.197,72.0 C 12.966,72.0 12.0,71.13 12.0,69.9 L 12.0,60.27 L 12.0,33.243 L 12.0,29.345000000000002 C 12.0,28.729 12.468,28.0 13.083,28.0 L 18.0,28.0 L 18.0,24.69 C 18.0,23.46 19.398,22.0 20.629,22.0 L 31.788000000000004,22.0 C 33.019,22.0 34.0,23.46 34.0,24.69 L 34.0,28.0 L 86.976,28.0 C 87.591,28.0 88.0,28.729 88.0,29.345 L 88.0,33.243 L 88.0,60.27" fill="#000000"/>
	<path d="M 50.426,32.906 C 40.895,32.906 33.17100000000001,40.632 33.17100000000001,50.162 C 33.17100000000001,59.692 40.89600000000001,67.42 50.426,67.42 C 59.956,67.42 67.684,59.692 67.684,50.162000000000006 C 67.685,40.632 59.956,32.906 50.426,32.906 M 50.426,59.462 C 45.299,59.462 41.128,55.290000000000006 41.128,50.162000000000006 C 41.128,45.034000000000006 45.299,40.86300000000001 50.426,40.86300000000001 C 55.553000000000004,40.86300000000001 59.725,45.034000000000006 59.725,50.162000000000006 C 59.726,55.29 55.554,59.462 50.426,59.462" fill="#000000"/>
</svg>
