<?xml version="1.0" ?>
<svg xmlns="http://www.w3.org/2000/svg" xmlns:ev="http://www.w3.org/2001/xml-events" xmlns:xlink="http://www.w3.org/1999/xlink" baseProfile="full" enable-background="new 0 0 100 61.995" height="373px" version="1.1" viewBox="0 0 100 61.995" width="600px" x="0px" xml:space="preserve" y="0px">
	<defs/>
	<path d="M 0.0,27.466 L 48.484,8.207 L 48.484,15.812000000000001 L 8.835,30.977 L 48.484,46.179 L 48.484,53.79 L 0.0,34.487 L 0.0,27.466"/>
	<path d="M 62.688,56.125 C 59.475,52.208 57.870000000000005,47.448 57.870000000000005,41.835 L 65.78200000000001,41.835 C 66.11800000000001,45.733000000000004 66.84800000000001,48.568 67.97000000000001,50.337 C 69.933,53.508 73.48400000000001,55.092000000000006 78.61800000000001,55.092000000000006 C 82.60100000000001,55.092000000000006 85.80000000000001,54.026 88.215,51.894000000000005 C 90.62700000000001,49.763000000000005 91.833,47.011 91.833,43.64600000000001 C 91.833,39.49400000000001 90.562,36.59000000000001 88.024,34.93400000000001 C 85.484,33.27600000000001 81.957,32.45000000000001 77.44,32.45000000000001 C 76.934,32.45000000000001 76.422,32.45800000000001 75.90299999999999,32.47100000000001 C 75.38399999999999,32.48400000000001 74.856,32.50600000000001 74.32499999999999,32.53400000000001 L 74.32499999999999,25.841000000000015 C 75.10999999999999,25.924000000000014 75.76899999999999,25.982000000000014 76.30399999999999,26.010000000000016 C 76.83599999999998,26.036000000000016 77.41199999999999,26.052000000000017 78.02999999999999,26.052000000000017 C 80.86199999999998,26.052000000000017 83.192,25.604000000000017 85.01499999999999,24.706000000000017 C 88.21499999999999,23.133000000000017 89.814,20.32900000000002 89.814,16.289000000000016 C 89.814,13.285000000000016 88.747,10.971000000000016 86.615,9.345000000000017 C 84.482,7.718000000000017 81.999,6.9030000000000165 79.166,6.9030000000000165 C 74.116,6.9030000000000165 70.624,8.586000000000016 68.687,11.955000000000016 C 67.62,13.806000000000015 67.017,16.444000000000017 66.875,19.867000000000015 L 59.385,19.867000000000015 C 59.385,15.378000000000014 60.281,11.560000000000015 62.077,8.419000000000015 C 65.165,2.805 70.593,0.0 78.365,0.0 C 84.511,0.0 89.268,1.367 92.634,4.104 C 96.002,6.838 97.685,10.802 97.685,15.992999999999999 C 97.685,19.697 96.688,22.701 94.697,24.999 C 93.462,26.432 91.863,27.552 89.899,28.365 C 93.069,29.235999999999997 95.545,30.912 97.328,33.397 C 99.11,35.876 100.001,38.916 100.001,42.507 C 100.001,48.259 98.10600000000001,52.945 94.319,56.564 C 90.531,60.185 85.157,61.994 78.2,61.994 C 71.07,61.995 65.9,60.038 62.688,56.125"/>
</svg>
