<?xml version="1.0" ?>
<svg xmlns="http://www.w3.org/2000/svg" xmlns:cc="http://creativecommons.org/ns#" xmlns:dc="http://purl.org/dc/elements/1.1/" xmlns:ev="http://www.w3.org/2001/xml-events" xmlns:inkscape="http://www.inkscape.org/namespaces/inkscape" xmlns:rdf="http://www.w3.org/1999/02/22-rdf-syntax-ns#" xmlns:sodipodi="http://sodipodi.sourceforge.net/DTD/sodipodi-0.dtd" xmlns:svg="http://www.w3.org/2000/svg" xmlns:xlink="http://www.w3.org/1999/xlink" baseProfile="full" height="600px" version="1.1" viewBox="0 0 80 80" width="205px" x="0px" y="0px">
	<defs/>
	<path d="M 38.587528,0.83111983 L 38.587528,0.88733983 C 37.32981,0.9617018300000001 36.029999,1.2905403 34.905104,2.0679641 C 33.575802,2.9866555000000004 32.512315,4.4925842 32.009764000000004,6.649911 C 31.345119000000004,9.5030658 31.939314000000003,12.362167 32.62818600000001,15.167273000000002 C 33.31705900000001,17.972378000000003 34.08140600000001,20.714088 33.89314100000001,23.403533000000003 C 33.51259100000001,28.839807000000004 31.40972500000001,34.769065000000005 29.39552400000001,40.382036 C 27.38642800000001,45.980782 25.48757700000001,51.301343 25.57255000000001,55.645821999999995 C 25.57217700000001,55.65432199999999 25.57289900000001,55.665431999999996 25.57255000000001,55.67393199999999 C 25.48126000000001,57.89807999999999 26.21865200000001,62.01272399999999 27.59647700000001,66.35577099999999 C 28.97957000000001,70.71542099999999 30.98334700000001,75.24518599999999 33.49959900000001,78.04957499999999 L 33.52770900000001,78.07768499999999 C 34.29151000000001,78.75365 35.506693000000006,78.95747099999998 36.563601000000006,79.08964799999998 C 37.62050800000001,79.22182599999998 38.47508800000001,79.23019899999998 38.47508800000001,79.23019899999998 L 38.53130800000001,79.23019899999998 L 39.31839100000001,79.23019899999998 C 39.31839100000001,79.23019899999998 39.370311000000015,79.23025499999999 39.374611000000016,79.23019899999998 C 39.383111000000014,79.23019899999998 39.39430100000001,79.23085199999998 39.402721000000014,79.23019899999998 C 39.521245000000015,79.22849899999999 40.280152000000015,79.21197899999999 41.25798800000001,79.08964799999998 C 42.31489400000001,78.95747099999998 43.55818900000001,78.75364999999998 44.32198900000001,78.07768499999999 L 44.32198900000001,78.04957499999999 L 44.35009900000001,78.04957499999999 C 46.86635100000001,75.24518599999999 48.87013000000001,70.71542099999999 50.25322100000001,66.35577099999999 C 51.63208400000001,62.00944799999999 52.36978500000001,57.868751999999986 52.27714900000001,55.64582199999999 C 52.27686400000001,55.63902199999999 52.27744700000001,55.62449199999999 52.27714900000001,55.61771199999999 C 52.36415900000001,51.27201099999999 50.464270000000006,45.98356799999999 48.45417400000001,40.38203599999999 C 46.43997300000001,34.76906499999999 44.308997000000005,28.86791699999999 43.92844800000001,23.431642999999994 C 43.74018100000001,20.742196999999994 44.53264000000001,17.972377999999992 45.22151200000001,15.167272999999994 C 45.91038500000001,12.362166999999994 46.50458200000001,9.503065799999995 45.83993500000001,6.649910999999994 C 45.337382,4.4925842 44.245787,2.9866555 42.916484,2.0679641 C 41.791589,1.2905404 40.513698,0.93513933 39.262171,0.85922963 C 39.243471,0.85881403 39.224691,0.85952193 39.205951,0.85922963 C 38.997561,0.8480626299999999 38.793769,0.82653663 38.587528999999996,0.83111963 L 38.587528,0.83111983 M 38.924849,1.7587533 C 40.126554,1.7897593 41.362981000000005,2.1029871 42.410502,2.8269371999999997 C 43.55639,3.6188684999999996 44.509131000000004,4.8746364 44.968522,6.8466819999999995 C 45.575311,9.4514713 45.033862,12.158109 44.350099,14.942392 C 43.771996,17.296438 43.077564,19.697240999999998 43.000814,22.138578 C 40.300633999999995,22.015064 37.588083,21.978053 34.848884,22.166688 C 34.776624,19.715622 34.079946,17.305572 33.499598999999996,14.942392000000002 C 32.815839,12.158109000000001 32.274387999999995,9.451471300000001 32.881176999999994,6.846682000000001 C 33.34056799999999,4.874636400000002 34.29330999999999,3.6188685000000014 35.439195999999995,2.8269372000000015 C 36.494876,2.0973487000000013 37.718098,1.7842033000000015 38.924848999999995,1.7587533000000015 L 38.924849,1.7587533 M 38.981069000000005,25.28691 C 40.402156000000005,25.28201 41.813807000000004,25.311729999999997 43.225695,25.37124 C 43.405361,26.712036 43.684467000000005,28.057485 44.012778000000004,29.419095 C 40.81427300000001,29.143524 37.46036,29.071647 33.836921000000004,29.390984999999997 C 34.157765000000005,28.057139999999997 34.44564200000001,26.741391999999998 34.624003,25.427459999999996 C 36.077924,25.336329999999997 37.539461,25.291858999999995 38.981069000000005,25.286909999999995 L 38.981069000000005,25.28691 M 38.868629000000006,32.848528 C 40.921302000000004,32.845628000000005 42.956199000000005,32.897658 44.996632000000005,33.017188000000004 C 45.787099000000005,35.603087 46.71142700000001,38.184768000000005 47.610871,40.691247000000004 C 49.625031,46.304102 51.494868000000004,51.553306000000006 51.405735,55.617712000000004 L 51.405735,55.645822 C 51.492135,57.598526 50.742736,61.784882 49.381808,66.07467 C 48.025279,70.35059 46.044942,74.77932 43.703567,77.403042 C 43.266135,77.790171 42.137184,78.094221 41.145547,78.21823499999999 C 40.206102,78.33572299999999 39.456148,78.33144399999999 39.374611,78.330676 L 39.318391,78.330676 L 38.531307999999996,78.330676 C 38.531307999999996,78.330676 37.69578799999999,78.342246 36.704150999999996,78.21823499999999 C 35.712514,78.094221 34.583564,77.762061 34.146132,77.374932 C 31.81472,74.748027 29.791854,70.336545 28.439781,66.07467 C 27.078852,61.784883 26.357559,57.626636 26.443963,55.673932 L 26.443963,55.645822 C 26.354833,51.581417 28.224668,46.304102 30.238827,40.691247000000004 C 31.138271,38.184768000000005 32.0626,35.603087 32.853067,33.017188000000004 C 34.8613,32.912367 36.8706,32.851314 38.868629000000006,32.848528" display="inline" fill="#000000" fill-opacity="1" marker="none" overflow="visible" stroke="none" style="text-indent:0;text-transform:none;direction:ltr;block-progression:tb;baseline-shift:baseline;color:#000000;enable-background:accumulate;" visibility="visible"/>
</svg>
