<?xml version="1.0" ?>
<svg xmlns="http://www.w3.org/2000/svg" xmlns:ev="http://www.w3.org/2001/xml-events" xmlns:xlink="http://www.w3.org/1999/xlink" baseProfile="full" enable-background="new 0 0 100 100" height="600px" version="1.1" viewBox="0 0 100 100" width="600px" x="0px" xml:space="preserve" y="0px">
	<defs/>
	<path d="M 98.0,45.617 L 98.0,16.565 C 98.001,8.542000000000002 91.497,2.0390000000000015 83.473,2.037000000000001 L 54.421,2.039 C 46.397999999999996,2.0380000000000003 39.894999999999996,8.542 39.894,16.565 L 39.894,31.091 L 43.524,34.722 L 39.894,38.353 L 42.385,40.844 L 39.254999999999995,43.973 L 38.093999999999994,45.132 L 39.270999999999994,46.274 L 41.163,48.107 L 37.266999999999996,52.003 L 35.629,52.003 L 34.961,52.003 L 34.488,52.476 L 31.611,55.353 L 31.468,55.211 L 30.326,54.068 L 29.185000000000002,55.21 L 23.644000000000002,60.749 L 23.171000000000003,61.222 L 23.171000000000003,61.891 L 23.171000000000003,67.867 L 21.157000000000004,69.82000000000001 L 18.535000000000004,69.382 L 17.716000000000005,69.245 L 17.129000000000005,69.834 L 15.101000000000004,71.861 L 13.657000000000004,71.137 L 12.615000000000004,70.613 L 11.790000000000004,71.437 L 9.773000000000005,73.454 L 9.628000000000005,73.598 C 3.848000000000005,79.376 2.2950000000000053,80.929 2.0380000000000056,89.069 L 2.0380000000000056,89.096 L 2.0380000000000056,89.12100000000001 L 2.0380000000000056,92.75200000000001 C 2.0380000000000056,94.15400000000001 2.5830000000000055,95.47200000000001 3.5750000000000055,96.462 C 4.567,97.454 5.884,98.0 7.286,98.0 L 10.918,98.0 L 10.943,98.0 L 10.969,98.0 C 19.11,97.739 20.662,96.185 26.439999999999998,90.408 L 26.586,90.263 L 59.193,57.653000000000006 L 61.684999999999995,60.14300000000001 L 65.314,56.51200000000001 L 68.945,60.14300000000001 L 83.475,60.144000000000005 C 91.497,60.145 98.001,53.641 98.0,45.617 M 52.074,50.534 L 17.453,85.155 C 16.759999999999998,85.849 15.622,85.834 14.914,85.126 C 14.914,85.126 14.913,85.125 14.913,85.125 C 14.204,84.416 14.191,83.279 14.885,82.587 L 49.504999999999995,47.965 L 52.074,50.534 M 83.474,9.302 C 87.48700000000001,9.302 90.73700000000001,12.552 90.739,16.564999999999998 C 90.73700000000001,20.574999999999996 87.485,23.827999999999996 83.473,23.826999999999998 C 79.463,23.828 76.212,20.576999999999998 76.212,16.564 C 76.211,12.553 79.462,9.301 83.474,9.302 M 25.444,89.122 C 19.662,94.902 18.483999999999998,96.144 10.917,96.386 L 7.286,96.386 C 6.2829999999999995,96.386 5.375,95.97999999999999 4.718,95.324 C 4.06,94.666 3.6550000000000002,93.757 3.6550000000000002,92.754 L 3.6550000000000002,89.123 C 3.8930000000000002,81.55600000000001 5.136,80.376 10.918,74.598 L 12.934999999999999,72.58 L 15.419999999999998,73.829 L 18.273999999999997,70.975 L 21.696999999999996,71.54499999999999 L 24.787999999999997,68.55099999999999 L 24.787999999999997,61.89199999999999 L 30.327999999999996,56.35299999999999 L 31.612999999999996,57.636999999999986 L 35.63099999999999,53.61799999999999 L 37.93699999999999,53.61799999999999 L 43.46499999999999,48.08999999999999 L 40.39699999999999,45.115999999999985 L 43.52899999999999,41.98599999999998 L 48.93699999999999,47.39499999999998 L 14.314,82.018 C 13.832,82.497 13.566,83.142 13.565,83.82600000000001 C 13.564,84.53200000000001 13.84,85.19600000000001 14.341999999999999,85.69600000000001 C 15.364999999999998,86.71900000000001 17.017,86.73400000000001 18.023999999999997,85.72600000000001 L 52.64399999999999,51.10500000000001 L 58.04999999999999,56.51300000000001 L 25.444,89.122"/>
</svg>
