<?xml version="1.0" ?>
<svg xmlns="http://www.w3.org/2000/svg" xmlns:ev="http://www.w3.org/2001/xml-events" xmlns:xlink="http://www.w3.org/1999/xlink" baseProfile="full" enable-background="new 0 0 87.538 100" height="600px" version="1.1" viewBox="0 0 87.538 100" width="526px" x="0px" xml:space="preserve" y="0px">
	<defs/>
	<path d="M 64.188,8.956 L 32.979,0.0 L 23.58,32.758 L 54.788,41.713 L 64.188,8.956 M 26.275,31.319 L 34.510999999999996,2.6159999999999997 L 61.467999999999996,10.350999999999999 L 53.233,39.055 L 26.275,31.319" fill="#010101"/>
	<path d="M 87.336,37.077 L 78.259,46.052 L 78.058,97.379 L 87.538,84.286 L 87.336,37.077" fill="#010101" points="87.336,37.077 78.259,46.052 78.058,97.379 87.538,84.286 "/>
	<path d="M 51.204,14.441 L 44.752,18.107 L 41.021,11.542 L 37.919,13.304 L 41.651,19.871 L 34.779,23.776 L 36.542,26.877 L 43.415,22.972 L 47.255,29.729 L 50.356,27.966 L 46.515,21.208 L 52.966,17.542 L 51.204,14.441" fill="#010101" points="51.204,14.441 44.752,18.107 41.021,11.542 37.919,13.304 41.651,19.871 34.779,23.776    36.542,26.877 43.415,22.972 47.255,29.729 50.356,27.966 46.515,21.208 52.966,17.542 "/>
	<path d="M 57.543,35.564 L 56.686,37.948 L 72.924,37.985 L 68.159,42.134 L 18.857,41.928 L 25.988,37.882 L 37.578,37.773 L 30.238,35.58 L 19.166,35.448 L 0.0,44.739 L 76.25,45.151 L 86.124,35.654 L 57.543,35.564" fill="#010101" points="57.543,35.564 56.686,37.948 72.924,37.985 68.159,42.134 18.857,41.928 25.988,37.882    37.578,37.773 30.238,35.58 19.166,35.448 0,44.739 76.25,45.151 86.124,35.654 "/>
	<path d="M 0.01,46.758 L 76.04100000000001,46.758 L 76.04100000000001,100.0 L 0.01,100.0 L 0.01,46.758" fill="#010101" height="53.242" width="76.031" x="0.01" y="46.758"/>
</svg>
