<?xml version="1.0" ?>
<svg xmlns="http://www.w3.org/2000/svg" xmlns:cc="http://creativecommons.org/ns#" xmlns:dc="http://purl.org/dc/elements/1.1/" xmlns:ev="http://www.w3.org/2001/xml-events" xmlns:inkscape="http://www.inkscape.org/namespaces/inkscape" xmlns:rdf="http://www.w3.org/1999/02/22-rdf-syntax-ns#" xmlns:sodipodi="http://sodipodi.sourceforge.net/DTD/sodipodi-0.dtd" xmlns:svg="http://www.w3.org/2000/svg" xmlns:xlink="http://www.w3.org/1999/xlink" baseProfile="full" enable-background="new 9.771 0 80.458 100" height="600px" version="1.1" viewBox="9.771 0 80.458 100" width="483px" x="0px" xml:space="preserve" y="0px">
	<defs/>
	<path d="M 20.255,8.409 L 31.658,1.8630000000000004 L 32.246,6.227 L 29.601000000000003,9.641 L 28.782000000000004,14.818 L 20.674000000000003,21.076999999999998 L 18.917,18.875999999999998 L 21.692,16.136999999999997 L 19.248,14.529999999999998 L 20.255,8.409 L 20.255,8.409"/>
	<path d="M 19.167,22.665 L 17.742,20.483 L 16.141000000000002,22.078 L 13.478000000000002,22.102999999999998 L 12.703000000000001,23.421999999999997 L 14.841000000000001,25.441999999999997 L 13.397,32.9 L 13.703,35.888999999999996 L 11.783999999999999,38.69 L 9.770999999999999,43.635 L 15.809999999999999,36.42 L 19.167,22.665 L 19.167,22.665"/>
	<path d="M 47.931,0.0 L 58.001999999999995,2.489 L 73.6,0.0 L 73.131,5.877 L 70.411,9.053 L 63.716,19.626 L 58.384,26.834000000000003 L 69.549,23.414 L 88.22200000000001,24.327 L 90.23,29.479000000000003 L 82.94,45.529 L 75.78099999999999,57.389 L 79.089,59.816 L 66.842,66.363 L 72.813,67.85 L 76.45100000000001,64.574 L 87.512,70.17699999999999 L 82.996,76.192 L 84.866,80.27999999999999 L 71.062,92.36 L 64.361,91.603 L 64.27900000000001,94.192 L 57.83400000000001,97.205 L 52.65700000000001,93.88 L 52.79500000000001,99.675 L 46.41300000000001,94.079 L 44.494000000000014,95.37899999999999 L 45.074,100.0 L 41.022999999999996,93.717 L 41.690999999999995,89.878 L 43.397999999999996,92.897 L 44.403999999999996,92.668 L 42.922,89.816 L 48.605,80.212 L 49.949,77.11 L 46.085,73.315 L 47.104,66.737 L 46.772999999999996,65.006 L 45.059999999999995,68.626 L 44.221999999999994,72.259 L 40.852,70.783 L 38.19499999999999,72.146 L 36.99,82.5 L 32.657000000000004,83.094 L 35.952000000000005,71.16399999999999 L 34.758,67.32499999999999 L 37.265,63.17999999999999 C 37.071,62.02899999999999 36.877,64.368 36.683,59.59599999999999 L 32.807,68.13099999999999 L 30.138,70.04399999999998 L 30.813000000000002,72.80099999999999 L 25.762,75.38999999999999 L 26.787,70.32699999999998 L 23.436,72.65799999999999 L 24.274,68.451 L 29.544,66.94999999999999 L 35.696,59.72199999999999 L 42.579,47.441999999999986 L 36.728,52.39499999999999 L 36.359,56.00099999999999 L 27.938000000000002,58.50899999999999 L 25.587000000000003,56.98899999999999 L 29.057000000000002,55.76299999999999 L 26.869,51.2 L 30.483,48.330000000000005 L 28.476,46.636 L 33.302,45.836000000000006 L 37.491,34.95 L 31.764,39.17 L 33.877,35.732 L 29.707,36.194 L 22.674,28.110000000000003 L 24.799,24.140000000000004 L 27.144,26.641000000000005 L 29.363,21.739000000000004 L 31.369,24.446000000000005 L 31.057,29.798000000000005 L 33.751,33.97500000000001 L 36.32,33.18100000000001 L 34.945,29.94200000000001 L 35.952,18.98800000000001 L 41.385,17.11900000000001 L 47.931,0.0"/>
	<path d="M 39.547,73.359 L 40.971999999999994,72.396 L 42.590999999999994,73.659 L 42.77199999999999,75.42200000000001 L 43.42899999999999,76.71700000000001 L 42.947999999999986,77.37900000000002 L 43.13299999999999,79.17600000000002 L 41.703999999999986,79.71800000000002 L 40.29099999999999,79.23700000000002 L 39.46,77.66 L 39.685,76.353 L 38.922000000000004,75.07799999999999 L 39.547,73.359"/>
	<path d="M 24.799,47.499 L 26.137,47.211000000000006 L 24.256,49.85000000000001 L 22.074,50.30000000000001 L 21.943,50.988000000000014 L 19.398000000000003,53.164000000000016 L 18.180000000000003,52.90700000000002 L 18.192000000000004,51.19400000000002 L 21.505000000000003,50.46200000000002 L 24.799,47.499 L 24.799,47.499"/>
	<path d="M 26.181,39.458 L 27.944000000000003,37.989 L 29.62,39.458 L 28.07,41.509 L 26.181,39.458"/>
</svg>
