<?xml version="1.0" ?>
<svg xmlns="http://www.w3.org/2000/svg" xmlns:ev="http://www.w3.org/2001/xml-events" xmlns:xlink="http://www.w3.org/1999/xlink" baseProfile="full" enable-background="new 0 0 107.995 106.495" height="509px" version="1.1" viewBox="0 0 107.995 106.495" width="600px" x="0px" xml:space="preserve" y="0px">
	<defs/>
	<path d="M 94.766,30.419 L 102.787,28.577 L 96.09,17.457 L 90.53200000000001,24.311 C 85.73200000000001,18.801000000000002 79.11000000000001,14.812 71.36700000000002,13.393 C 64.48800000000001,12.131 57.71500000000002,13.076 51.77300000000002,15.72 L 51.77300000000002,15.719000000000001 L 51.722000000000016,15.744000000000002 C 50.448000000000015,16.311 22.960000000000015,30.671 21.462000000000014,31.61 L 21.447000000000013,31.617 L 21.450000000000014,31.617 C 13.511,36.594 7.604,44.758 5.78,54.704 C 2.3320000000000003,73.504 14.780000000000001,91.543 33.582,94.991 C 42.005,96.536 50.272000000000006,94.881 57.147999999999996,90.901 L 57.150999999999996,90.907 L 57.306,90.80799999999999 C 58.052,90.371 83.878,74.14699999999999 85.162,73.19999999999999 L 85.21400000000001,73.16999999999999 L 85.21200000000002,73.16499999999999 C 91.80200000000002,68.29499999999999 96.63200000000002,61.010999999999996 98.22600000000001,52.31699999999999 C 99.655,44.53 98.254,36.883 94.766,30.419 M 52.988,89.487 C 39.566,97.366 21.6,91.676 12.855,76.781 C 4.109,61.88400000000001 7.897,43.422000000000004 21.319000000000003,35.54200000000001 C 34.738,27.66300000000001 52.708,33.35300000000001 61.453,48.25000000000001 C 70.198,63.145 66.408,81.608 52.988,89.487" fill="#000000"/>
	<path cx="38.765" cy="44.124" d="M 32.296,44.124 A 6.469,6.469 0.0 1,0 45.234,44.124 A 6.469,6.469 0.0 1,0 32.296,44.124" fill="#000000" r="6.469"/>
	<path cx="44.049" cy="60.098" d="M 40.567,60.098 A 3.482,3.482 0.0 1,0 47.531,60.098 A 3.482,3.482 0.0 1,0 40.567,60.098" fill="#000000" r="3.482"/>
	<path cx="21.869" cy="56.821" d="M 16.521,56.821 A 5.348,5.348 0.0 1,0 27.217,56.821 A 5.348,5.348 0.0 1,0 16.521,56.821" fill="#000000" r="5.348"/>
	<path cx="23.961" cy="75.903" d="M 20.805,75.903 A 3.156,3.156 0.0 1,0 27.117,75.903 A 3.156,3.156 0.0 1,0 20.805,75.903" fill="#000000" r="3.156"/>
	<path cx="44.4" cy="81.237" d="M 39.126,81.237 A 5.274,5.274 0.0 1,0 49.674,81.237 A 5.274,5.274 0.0 1,0 39.126,81.237" fill="#000000" r="5.274"/>
	<path cx="58.126" cy="67.979" d="M 55.827999999999996,67.979 A 2.298,2.298 0.0 1,0 60.42399999999999,67.979 A 2.2980000000000023,2.2980000000000023 0.0 1,0 55.82799999999999,67.979" fill="#000000" r="2.298"/>
</svg>
