<?xml version="1.0" ?>
<svg xmlns="http://www.w3.org/2000/svg" xmlns:cc="http://creativecommons.org/ns#" xmlns:dc="http://purl.org/dc/elements/1.1/" xmlns:ev="http://www.w3.org/2001/xml-events" xmlns:inkscape="http://www.inkscape.org/namespaces/inkscape" xmlns:rdf="http://www.w3.org/1999/02/22-rdf-syntax-ns#" xmlns:sodipodi="http://sodipodi.sourceforge.net/DTD/sodipodi-0.dtd" xmlns:svg="http://www.w3.org/2000/svg" xmlns:xlink="http://www.w3.org/1999/xlink" baseProfile="full" enable-background="new 12.5 18.511 100 87.978" height="528px" version="1.1" viewBox="12.5 18.511 100 87.978" width="600px" x="0px" xml:space="preserve" y="0px">
	<defs/>
	<path d="M 62.289,18.522 C 61.867000000000004,18.570999999999998 61.475,18.761999999999997 61.176,19.064 L 13.042,67.199 C 12.314,67.93299999999999 12.321,69.119 13.056,69.846 C 13.405,70.191 13.875,70.385 14.366,70.387 L 24.534,70.387 L 24.534,104.62299999999999 C 24.537,105.651 25.369999999999997,106.484 26.398999999999997,106.48799999999999 L 39.065,106.48799999999999 L 56.483,106.48799999999999 L 68.518,106.48799999999999 L 86.387,106.48799999999999 L 98.602,106.48799999999999 C 99.63000000000001,106.48399999999998 100.46300000000001,105.65099999999998 100.467,104.62299999999999 L 100.467,70.388 L 110.63499999999999,70.388 C 111.669,70.384 112.50399999999999,69.543 112.49999999999999,68.509 C 112.49799999999999,68.018 112.30399999999999,67.548 111.95899999999999,67.199 L 100.22599999999998,55.465999999999994 L 100.22599999999998,39.401 C 100.22299999999998,38.373000000000005 99.38899999999998,37.540000000000006 98.36099999999999,37.536 L 90.41899999999998,37.536 C 89.39099999999998,37.54 88.55799999999998,38.373000000000005 88.55399999999999,39.401 L 88.55399999999999,43.793000000000006 L 63.824,19.064 C 63.422,18.659 62.856,18.459 62.289,18.522"/>
</svg>
