<?xml version="1.0" ?>
<svg xmlns="http://www.w3.org/2000/svg" xmlns:cc="http://creativecommons.org/ns#" xmlns:dc="http://purl.org/dc/elements/1.1/" xmlns:ev="http://www.w3.org/2001/xml-events" xmlns:inkscape="http://www.inkscape.org/namespaces/inkscape" xmlns:rdf="http://www.w3.org/1999/02/22-rdf-syntax-ns#" xmlns:sodipodi="http://sodipodi.sourceforge.net/DTD/sodipodi-0.dtd" xmlns:svg="http://www.w3.org/2000/svg" xmlns:xlink="http://www.w3.org/1999/xlink" baseProfile="full" height="323px" version="1.1" viewBox="0 0 80 80" width="600px" x="0px" y="0px">
	<defs/>
	<path d="M 19.267532,15.607468 C 15.494243999999998,15.725992000000002 12.2008,16.541216000000002 9.5175325,17.832468000000002 C 5.4287448,19.800091000000002 2.7644208999999993,22.911716000000002 2.0425325,26.482468000000004 L 2.7425325000000003,26.632468000000003 L 2.6425325,35.232468000000004 C 2.4938466000000004,35.295778000000006 2.3925325,35.436714 2.3925325,35.607468000000004 C 2.3925325,35.77274800000001 2.5021105,35.916744 2.6425325,35.982468000000004 L 2.6175325000000003,37.582468000000006 L 2.6175325000000003,37.607468000000004 C 2.6025925,37.97182900000001 2.4989725000000003,38.201392000000006 2.3675325000000003,38.332468000000006 C 2.2343915,38.46517600000001 2.1114185,38.529047000000006 1.9425325000000002,38.507468 C 1.7736465000000001,38.486028000000005 1.3862615000000003,38.611618 1.0925325000000004,37.657468 C 1.1044425000000004,37.590858000000004 1.1402925000000004,37.650168 1.2675325000000004,37.582468 L 0.9675324800000005,37.132467999999996 C 0.7678395200000004,38.031104 1.3438475000000005,38.765586 1.8675325000000005,38.832468 C 2.1293765000000007,38.865828 2.3846785000000006,38.764748 2.5925325000000004,38.557468 C 2.8003885000000004,38.350287 2.9277394,38.042184 2.9425325000000004,37.607468 L 2.9675325000000004,35.982468 C 3.1111095000000004,35.918008 3.2175325000000004,35.775064 3.2175325000000004,35.607468 C 3.2175325000000004,35.436713999999995 3.1162184,35.29578 2.9675325000000004,35.232468 L 3.0425325000000005,26.707468 C 3.0627605000000004,26.607412 3.0938455000000005,26.506864 3.1175325000000007,26.407467999999998 L 13.292532000000001,17.607467999999997 L 33.242532,19.082468 L 33.267531999999996,19.082468 L 50.84253199999999,28.907467999999998 C 51.03527999999999,29.055334 51.22425899999999,29.206526999999998 51.417531999999994,29.357467999999997 L 70.042532,49.957468 C 69.94098,49.938278 69.84966399999999,49.907468 69.742532,49.907468 C 68.815844,49.907468 68.042532,50.680789000000004 68.042532,51.607468000000004 C 68.042532,52.534172000000005 68.815844,53.282468 69.742532,53.282468 C 70.669224,53.282468 71.417532,52.534172 71.417532,51.607468000000004 C 71.417532,51.086211000000006 71.16544499999999,50.615222 70.792532,50.30746800000001 L 70.817532,50.28246800000001 L 53.092532,30.70746800000001 C 59.017931,35.57423200000001 65.176752,41.89381900000001 71.367532,49.957468000000006 L 72.167532,49.332468000000006 C 55.21374399999999,27.249731000000004 38.476668999999994,17.983464000000005 25.567531999999993,16.007468000000003 C 23.95389099999999,15.760468000000003 22.404839999999993,15.638030000000002 20.917531999999994,15.607468000000003 C 20.359791999999995,15.596008000000003 19.806572999999993,15.590538000000002 19.267531999999996,15.607468000000003 L 19.267532,15.607468 M 41.942532,16.032468 C 41.921692,16.105428 41.944532,16.133528000000002 42.017532,16.107468 C 42.038372,16.034508000000002 42.010232,16.011618000000002 41.942532,16.032468 M 20.892532,16.657468 C 22.33229,16.686798000000003 23.846477999999998,16.791987000000002 25.417532,17.032468 C 27.513869,17.353353000000002 29.742761,17.888460000000002 32.042532,18.632468000000003 L 14.217532000000002,17.332468000000002 C 16.232024000000003,16.863728000000002 18.448321,16.607683 20.892532000000003,16.657468 L 20.892532,16.657468 M 12.592531999999999,17.757468000000003 L 3.267532499999998,25.807468000000004 C 4.152552199999998,22.965513000000005 6.487044999999998,20.444392000000004 9.992532499999998,18.757468000000003 C 10.798079999999997,18.369819000000003 11.667538999999998,18.048072 12.592531999999999,17.757468000000003 M 35.167531999999994,19.757468000000003 C 39.503612,21.488079000000003 44.114723,24.017083000000003 48.917531999999994,27.482468000000004 L 35.167531999999994,19.757468000000003 M 2.792532499999993,35.432468 C 2.889712499999993,35.432468 2.967532499999993,35.507508 2.967532499999993,35.607468 C 2.967532499999993,35.707428 2.8897054999999927,35.807468 2.792532499999993,35.807468 C 2.695352499999993,35.807468 2.617532499999993,35.707429 2.617532499999993,35.607468 C 2.617532499999993,35.507498 2.695352499999993,35.432468 2.792532499999993,35.432468 M 72.917532,49.582468 L 71.667532,50.732468 L 78.067532,57.682468 L 79.317532,56.532468 L 72.917532,49.582468" fill="#000000" stroke="#000000" stroke-width="0.00488536"/>
</svg>
