<?xml version="1.0" ?>
<svg xmlns="http://www.w3.org/2000/svg" xmlns:ev="http://www.w3.org/2001/xml-events" xmlns:xlink="http://www.w3.org/1999/xlink" baseProfile="full" enable-background="new 0 0 94.42 100" height="600px" version="1.1" viewBox="0 0 94.42 100" width="567px" x="0px" xml:space="preserve" y="0px">
	<defs/>
	<path d="M 20.15,63.002 C 25.009,62.991 28.958,59.042 28.980999999999998,54.17100000000001 C 28.958,49.29600000000001 25.008999999999997,45.34700000000001 20.15,45.339000000000006 C 15.264999999999999,45.34700000000001 11.315999999999999,49.297000000000004 11.322,54.17100000000001 C 11.315,59.042 15.265,62.991 20.15,63.002 L 20.15,63.002"/>
	<path d="M 29.576,56.229 L 29.576,63.868 L 16.034,63.868 C 9.482999999999999,63.914 9.474,72.32600000000001 16.034,72.316 L 33.802,72.316 C 36.4,72.32600000000001 38.025999999999996,70.233 38.027,67.87700000000001 L 38.027,56.229 C 38.025,49.864 29.587,49.864 29.576,56.229 L 29.576,56.229"/>
	<path d="M 39.166,51.679 L 74.43,51.679 C 79.62400000000001,51.667 82.67200000000001,54.998000000000005 82.664,59.480000000000004 L 82.664,72.211 L 39.166,72.211 L 39.166,51.679 L 39.166,51.679"/>
	<path d="M 9.641,44.312 C 9.631,37.364999999999995 -0.006999999999999673,37.364999999999995 0.0,44.312 L 0.0,100.0 L 9.858,100.0 L 9.858,85.645 L 84.831,85.645 L 84.831,99.892 L 94.42,99.892 L 94.42,56.88 C 94.44500000000001,49.552 84.70100000000001,49.552 84.724,56.88 L 84.724,74.051 L 9.641,74.051 L 9.641,44.312 L 9.641,44.312"/>
	<path d="M 47.019,0.0 C 34.958999999999996,0.014 25.165999999999997,9.906 25.189,22.104 C 25.166,34.308 34.959,44.196 47.019,44.205 C 59.117,44.196 68.913,34.308 68.905,22.104 C 68.912,9.906 59.116,0.014 47.019,0.0 M 47.019,39.113 C 37.742999999999995,39.105 30.209,31.494999999999997 30.226999999999997,22.104 C 30.209,12.718 37.743,5.109 47.019,5.09 C 56.333,5.109 63.869,12.718 63.867,22.104 C 63.868,31.495 56.333,39.105 47.019,39.113"/>
	<path d="M 44.744,29.901 L 49.674,29.901 L 49.674,26.056 C 49.702,25.022000000000002 50.184,24.041 51.46,23.186 C 52.778,22.341 56.394,20.618 56.392,16.09 C 56.394000000000005,11.55 52.597,8.434000000000001 49.404,7.747 C 46.211000000000006,7.112 42.751000000000005,7.547 40.30500000000001,10.238 C 38.09700000000001,12.645 37.63400000000001,14.550999999999998 37.650000000000006,18.741999999999997 L 42.577000000000005,18.741999999999997 L 42.577000000000005,17.766999999999996 C 42.559000000000005,15.533999999999995 42.81700000000001,13.169999999999995 46.045,12.512999999999996 C 47.763000000000005,12.172999999999996 49.4,12.717999999999996 50.378,13.647999999999996 C 51.483,14.753999999999996 51.493,17.201999999999995 49.728,18.416999999999994 L 46.965,20.313999999999993 C 45.326,21.349999999999994 44.772000000000006,22.504999999999992 44.744,24.212999999999994 L 44.744,29.901 L 44.744,29.901"/>
	<path d="M 44.744,36.891 L 44.744,31.854 L 49.728,31.854 L 49.728,36.891 L 44.744,36.891 L 44.744,36.891"/>
</svg>
