<?xml version="1.0" ?>
<svg xmlns="http://www.w3.org/2000/svg" xmlns:ev="http://www.w3.org/2001/xml-events" xmlns:xlink="http://www.w3.org/1999/xlink" baseProfile="full" enable-background="new 0 0 102 102" height="600px" version="1.1" viewBox="0 0 102 102" width="600px" x="0px" xml:space="preserve" y="0px">
	<defs/>
	<path d="M 96.863,0.999 L 5.136,0.999 L 51.0,46.862 L 96.863,0.999" points="96.863,0.999 5.136,0.999 51,46.862  "/>
	<path d="M 31.6,74.537 L 70.4,74.537 L 51.0,55.137 L 31.6,74.537" points="31.6,74.537 70.4,74.537 51,55.137  "/>
	<path d="M 1.0,5.136 L 1.0,96.862 L 46.864,50.999 L 1.0,5.136" points="1,5.136 1,96.862 46.864,50.999  "/>
	<path d="M 25.75,80.389 L 5.136,101.001 L 49.79,101.001 L 70.402,80.389 L 25.75,80.389" points="25.75,80.389 5.136,101.001 49.79,101.001 70.402,80.389  "/>
	<path d="M 101.0,101.001 L 101.0,58.063 L 58.063,101.001 L 101.0,101.001" points="101,101.001 101,58.063 58.063,101.001  "/>
	<path d="M 81.601,24.537 L 101.0,43.938 L 101.0,5.137 L 81.601,24.537" points="81.601,24.537 101,43.938 101,5.137  "/>
	<path d="M 61.677,35.213 L 93.25,35.213 L 93.25,66.784 L 61.677,66.784 L 61.677,35.213" height="31.571" transform="matrix(0.7072 0.7071 -0.7071 0.7072 58.7443 -39.8364)" width="31.573" x="61.677" y="35.213"/>
</svg>
