<?xml version="1.0" ?>
<svg xmlns="http://www.w3.org/2000/svg" xmlns:ev="http://www.w3.org/2001/xml-events" xmlns:xlink="http://www.w3.org/1999/xlink" baseProfile="full" enable-background="new 0 0 37.025 100" height="600px" version="1.1" viewBox="0 0 37.025 100" width="223px" x="0px" xml:space="preserve" y="0px">
	<defs/>
	<path d="M 27.89,23.003 L 27.721,32.351 L 27.139,32.174 C 27.118,32.169 25.186999999999998,31.591 23.195,31.591 C 22.171,31.591 21.337,31.751 20.673000000000002,32.043 C 20.680000000000003,32.098 20.705000000000002,32.147999999999996 20.705000000000002,32.202999999999996 C 20.705000000000002,32.556999999999995 20.561000000000003,32.87799999999999 20.335,33.117 C 20.787000000000003,33.385 21.222,33.776999999999994 21.428,34.229 C 21.764,34.967 22.234,36.214 21.968,36.93 C 21.706,37.719 21.301,38.483 21.157,39.293 C 20.967,40.366 22.603,41.326 21.691,40.862 C 19.302999999999997,39.647 19.329,38.161 20.122,36.5 C 20.746,35.185 20.382,33.768 20.2,33.226 C 19.971,33.415 19.689,33.542 19.368,33.542 C 18.991999999999997,33.542 18.654999999999998,33.384 18.41,33.132000000000005 C 18.248,33.581 17.791,35.101000000000006 18.458,36.501000000000005 C 19.247999999999998,38.163000000000004 19.275,39.648 16.889,40.86300000000001 C 15.975,41.32800000000001 17.762999999999998,40.419000000000004 17.572,39.346000000000004 C 17.429,38.535000000000004 17.023,37.77 16.762,36.983000000000004 C 16.499,36.266000000000005 16.82,34.970000000000006 17.151,34.232000000000006 C 17.374,33.74100000000001 17.864,33.32000000000001 18.357,33.05200000000001 C 18.163,32.821000000000005 18.031,32.532000000000004 18.031,32.205000000000005 C 18.031,32.133 18.061,32.07300000000001 18.073,32.00300000000001 C 17.424,31.740000000000006 16.63,31.593000000000007 15.66,31.593000000000007 C 13.665,31.593000000000007 11.735,32.17000000000001 11.716000000000001,32.17600000000001 L 11.135000000000002,32.35300000000001 L 10.965000000000002,22.96500000000001 C 10.564000000000002,22.96500000000001 10.218000000000002,22.96500000000001 9.967000000000002,22.96500000000001 C 4.491000000000002,22.96500000000001 0.005000000000002558,27.40300000000001 0.005000000000002558,32.881000000000014 C 0.005000000000002558,34.76400000000002 0.005000000000002558,44.18800000000002 0.005000000000002558,50.69000000000001 L 6.737000000000003,50.69000000000001 C 6.737000000000003,44.24500000000001 6.737000000000003,35.24200000000001 6.737000000000003,35.24200000000001 L 8.483000000000002,35.24200000000001 C 8.483000000000002,35.24200000000001 8.483000000000002,45.28700000000001 8.483000000000002,57.18100000000001 L 28.546,57.18100000000001 C 28.546,45.28700000000001 28.546,35.24200000000001 28.546,35.24200000000001 L 30.291999999999998,35.24200000000001 C 30.291999999999998,35.24200000000001 30.291999999999998,44.24500000000001 30.291999999999998,50.69000000000001 L 37.025,50.69000000000001 C 37.025,44.19000000000001 37.025,34.765000000000015 37.025,32.881000000000014 C 37.021,27.68 32.979,23.424 27.89,23.003" fill="#010101"/>
	<path d="M 8.479,58.208 C 8.479,74.323 8.479,93.35300000000001 8.479,95.45599999999999 C 8.479,97.96499999999999 10.533999999999999,99.99999999999999 13.038,99.99999999999999 C 15.545,99.99999999999999 17.581,97.96499999999999 17.581,95.45599999999999 C 17.581,91.743 17.581,60.490999999999985 17.581,60.490999999999985 L 19.439999999999998,60.490999999999985 C 19.439999999999998,60.490999999999985 19.439999999999998,91.74499999999999 19.439999999999998,95.45599999999999 C 19.439999999999998,97.96499999999999 21.474999999999998,99.99999999999999 23.983999999999998,99.99999999999999 C 26.487,99.99999999999999 28.543,97.96499999999999 28.543,95.45599999999999 C 28.543,93.35199999999999 28.543,74.323 28.543,58.20799999999999 L 8.479,58.20799999999999 L 8.479,58.208" fill="#010101"/>
	<path d="M 18.057,8.436 C 15.224999999999998,8.436 12.832999999999998,9.017 11.521999999999998,9.414 C 10.872999999999998,10.546 10.472999999999999,11.84 10.472999999999999,13.238 C 10.472999999999999,17.512 13.937,20.978 18.213,20.978 C 22.487000000000002,20.978 25.953000000000003,17.512 25.953000000000003,13.238000000000001 C 25.953000000000003,11.850000000000001 25.558000000000003,10.568000000000001 24.921000000000003,9.443000000000001 C 23.543,9.046 20.961,8.436 18.057,8.436" fill="#010101"/>
	<path d="M 18.511,1.431 C 19.979,1.431 21.236,1.512 22.316,1.635 C 21.127,0.63 19.609,0.0 17.93,0.0 C 16.137999999999998,0.0 14.521,0.705 13.301,1.834 C 14.646,1.601 16.355,1.431 18.511,1.431" fill="#010101"/>
	<path d="M 27.968,4.396 C 27.968,4.396 25.637,2.558 18.509999999999998,2.558 C 11.379999999999999,2.558 9.052999999999997,4.396 9.052999999999997,4.396 L 10.448999999999998,8.648 C 10.448999999999998,8.648 13.778999999999998,7.31 18.057,7.31 C 22.334999999999997,7.31 25.979999999999997,8.648 25.979999999999997,8.648 L 27.968,4.396" fill="#010101"/>
	<path d="M 23.194,30.673 C 24.663,30.673 26.061999999999998,30.956 26.823,31.139999999999997 L 26.973,22.962999999999997 C 26.767,22.962999999999997 26.506999999999998,22.962999999999997 26.215999999999998,22.962999999999997 C 25.723999999999997,25.624999999999996 23.182,28.882999999999996 21.448999999999998,30.833 C 21.978,30.727 22.558,30.673 23.194,30.673" fill="#010101"/>
	<path d="M 12.028,31.138 C 13.114,30.873 15.661000000000001,30.482000000000003 17.4,30.831000000000003 C 15.671,28.879000000000005 13.124999999999998,25.623000000000005 12.633999999999999,22.961000000000002 C 12.37,22.961000000000002 12.115999999999998,22.961000000000002 11.877999999999998,22.961000000000002 L 12.028,31.138" fill="#010101"/>
	<path d="M 19.365,30.866 C 19.599999999999998,30.866 19.81,30.943 20.0,31.05 C 21.504,29.44 24.698,25.765 25.298000000000002,22.963 C 22.342000000000002,22.963 17.186,22.963 13.553000000000003,22.963 C 14.149000000000003,25.746000000000002 17.287000000000003,29.374000000000002 18.803000000000004,31.001 C 18.976,30.917 19.163,30.866 19.365,30.866" fill="#010101"/>
	<path d="M 30.289,53.442 C 30.289,55.139 30.289,56.406 30.289,56.877 C 30.289,58.75 31.805,60.265 33.679,60.265 C 35.552,60.265 37.022000000000006,58.75 37.022000000000006,56.877 C 37.022000000000006,56.464000000000006 37.022000000000006,55.179 37.022000000000006,53.442 L 30.289,53.442" fill="#010101"/>
	<path d="M 30.289,51.719 C 30.289,51.952 30.289,52.19 30.289,52.408 L 37.021,52.408 C 37.021,52.189 37.021,51.952 37.021,51.719 L 30.289,51.719" fill="#010101"/>
	<path d="M 6.733,52.408 C 6.733,52.182 6.733,51.956 6.733,51.719 L 0.0,51.719 C 0.0,51.956 0.0,52.183 0.0,52.408 L 6.733,52.408" fill="#010101"/>
	<path d="M 0.0,53.442 C 0.0,55.189 0.0,56.463 0.0,56.877 C 0.0,58.75 1.473,60.265 3.343,60.265 C 5.214,60.265 6.731,58.75 6.731,56.877 C 6.731,56.406000000000006 6.731,55.142 6.731,53.442 L 0.0,53.442" fill="#010101"/>
</svg>
