<?xml version="1.0" ?>
<svg xmlns="http://www.w3.org/2000/svg" xmlns:ev="http://www.w3.org/2001/xml-events" xmlns:xlink="http://www.w3.org/1999/xlink" baseProfile="full" enable-background="new 0 0 100 100" height="600px" version="1.1" viewBox="0 0 100 100" width="551px" x="0px" xml:space="preserve" y="0px">
	<defs/>
	<path d="M 86.114,24.883 C 85.626,24.329 84.921,24.011 84.182,24.011 L 15.958,24.011 C 15.218,24.011 14.515,24.329 14.026,24.883 C 13.536999999999999,25.438 13.309,26.175 13.402,26.909 L 21.488999999999997,91.292 C 21.650999999999996,92.58 22.746999999999996,93.547 24.045999999999996,93.547 L 76.092,93.547 C 77.391,93.547 78.488,92.58 78.65,91.292 L 86.739,26.909000000000006 C 86.831,26.175 86.604,25.438 86.114,24.883 M 58.843,52.007 C 56.658,52.696 55.072,54.739 55.072,57.153 C 55.072,58.370999999999995 55.481,59.491 56.162000000000006,60.394 C 55.48100000000001,61.297 55.072,62.416 55.072,63.635 C 55.072,66.04899999999999 56.659000000000006,68.09 58.843,68.78099999999999 C 58.734,69.208 58.67,69.654 58.67,70.11599999999999 C 58.67,71.51599999999999 59.208,72.78699999999999 60.082,73.74699999999999 C 58.001,74.82799999999999 55.641,75.44299999999998 53.133,75.44299999999998 C 52.083000000000006,75.44299999999998 51.061,75.33699999999999 50.071000000000005,75.13099999999999 C 49.081,75.33599999999998 48.05800000000001,75.44299999999998 47.00900000000001,75.44299999999998 C 44.50000000000001,75.44299999999998 42.14000000000001,74.82799999999999 40.059000000000005,73.74699999999999 C 40.934000000000005,72.78699999999999 41.472,71.51699999999998 41.472,70.11599999999999 C 41.472,69.65399999999998 41.408,69.20799999999998 41.299,68.78099999999999 C 43.484,68.091 45.07,66.05 45.07,63.63499999999999 C 45.07,62.41599999999999 44.660000000000004,61.29699999999999 43.98,60.39399999999999 C 44.66,59.49099999999999 45.07,58.37099999999999 45.07,57.15299999999999 C 45.07,54.739999999999995 43.484,52.69699999999999 41.299,52.00699999999999 C 41.408,51.57899999999999 41.472,51.13299999999999 41.472,50.67199999999999 C 41.472,49.24899999999999 40.917,47.95799999999999 40.016,46.99399999999999 C 42.105999999999995,45.897999999999996 44.483,45.27499999999999 47.009,45.27499999999999 C 47.468,45.27499999999999 47.922,45.29899999999999 48.371,45.33999999999999 C 48.440000000000005,44.77399999999999 49.229,39.08899999999999 53.008,36.70899999999999 C 53.813,36.20199999999999 54.872,36.44399999999999 55.377,37.246999999999986 C 55.883,38.04999999999998 55.642,39.109999999999985 54.839000000000006,39.615999999999985 C 52.976000000000006,40.78899999999999 52.11000000000001,43.81299999999999 51.845000000000006,45.33499999999999 C 52.27,45.298999999999985 52.699000000000005,45.27599999999999 53.133,45.27599999999999 C 55.657000000000004,45.27599999999999 58.034000000000006,45.89899999999999 60.125,46.99499999999999 C 59.225,47.95899999999999 58.67,49.24999999999999 58.67,50.67299999999999 C 58.67,51.133 58.733,51.579 58.843,52.007" fill="#000000"/>
	<path d="M 85.189,12.147 L 60.02,12.147 C 60.022000000000006,12.101 60.027,12.056000000000001 60.027,12.009 C 60.027,9.637 58.104,7.715000000000001 55.732,7.715000000000001 L 44.46,7.715000000000001 C 42.088,7.715000000000001 40.166000000000004,9.637 40.166000000000004,12.009 C 40.166000000000004,12.056000000000001 40.17100000000001,12.101 40.173,12.147 L 15.003,12.147 C 12.631,12.147 10.709,14.069 10.709,16.441 C 10.709,18.813 12.631,20.735 15.003,20.735 L 85.19,20.735 C 87.562,20.735 89.485,18.813 89.485,16.441 C 89.484,14.07 87.562,12.147 85.189,12.147" fill="#000000"/>
</svg>
