<?xml version="1.0" ?>
<svg xmlns="http://www.w3.org/2000/svg" xmlns:ev="http://www.w3.org/2001/xml-events" xmlns:xlink="http://www.w3.org/1999/xlink" baseProfile="full" enable-background="new 0 0 100 100" height="600px" version="1.1" viewBox="0 0 100 100" width="257px" x="0px" xml:space="preserve" y="0px">
	<defs/>
	<path d="M 81.92,5.615 C 81.92,4.585 81.08500000000001,3.749 80.054,3.749 L 76.916,3.749 C 76.466,3.749 76.054,3.908 75.731,4.173 L 72.46199999999999,4.173 C 72.33299999999998,4.173 72.21,4.2 72.09799999999998,4.246 C 72.08099999999999,4.24 72.06499999999998,4.232 72.04799999999999,4.228000000000001 C 71.95599999999999,4.206 71.86399999999999,4.210000000000001 71.78099999999999,4.237000000000001 C 71.67699999999999,4.231000000000001 71.472,4.210000000000001 71.288,4.190000000000001 C 69.1,3.9600000000000013 62.446999999999996,3.2540000000000013 56.717,8.020000000000001 C 51.734,12.165000000000001 48.788,19.348 47.948,29.364000000000004 C 47.87,29.364000000000004 47.794,29.375000000000004 47.719,29.387000000000004 L 47.719,26.921000000000003 C 47.862,26.757 47.952,26.545 47.952,26.310000000000002 C 47.952,25.966 47.763999999999996,25.668000000000003 47.485,25.506000000000004 C 47.216,25.073000000000004 46.74,24.783000000000005 46.193,24.783000000000005 C 45.646,24.783000000000005 45.169999999999995,25.073000000000004 44.900999999999996,25.506000000000004 C 44.623,25.668000000000003 44.434,25.965000000000003 44.434,26.310000000000002 C 44.434,26.545 44.524,26.757 44.666999999999994,26.921000000000003 L 44.666999999999994,88.11 L 43.614,88.11 C 42.943,88.11 42.398999999999994,88.655 42.398999999999994,89.326 L 42.398999999999994,96.16699999999999 L 50.144999999999996,96.16699999999999 L 50.144999999999996,89.326 C 50.144999999999996,88.65499999999999 49.601,88.11 48.92999999999999,88.11 L 47.72,88.11 L 47.72,32.562 C 47.796,32.574 47.873,32.586 47.952999999999996,32.586 C 48.772999999999996,32.586 49.437,31.921 49.437,31.101999999999997 L 49.437,30.847999999999995 C 49.437,30.406999999999996 49.241,30.014999999999997 48.936,29.743999999999996 C 49.719,19.852999999999994 52.554,12.806999999999995 57.369,8.803999999999995 C 62.769,4.311999999999995 69.101,4.982999999999995 71.182,5.203999999999995 C 71.296,5.215999999999995 71.4,5.2259999999999955 71.497,5.234999999999995 C 71.54,5.733999999999995 71.955,6.125999999999995 72.464,6.125999999999995 L 73.703,6.125999999999995 C 73.699,6.153999999999995 73.694,6.181999999999995 73.694,6.210999999999995 C 73.694,6.538999999999995 73.96000000000001,6.803999999999995 74.288,6.803999999999995 L 74.884,6.803999999999995 C 74.944,6.803999999999995 75.0,6.792999999999995 75.054,6.775999999999995 C 75.054,6.785999999999995 75.052,6.7949999999999955 75.052,6.803999999999995 C 75.052,7.459999999999995 75.58300000000001,7.991999999999995 76.239,7.991999999999995 L 80.22500000000001,7.991999999999995 C 80.846,7.991999999999995 81.35000000000001,7.512999999999995 81.40200000000002,6.906999999999995 C 81.723,6.569 81.92,6.116 81.92,5.615"/>
</svg>
