<?xml version="1.0" ?>
<svg xmlns="http://www.w3.org/2000/svg" xmlns:ev="http://www.w3.org/2001/xml-events" xmlns:xlink="http://www.w3.org/1999/xlink" baseProfile="full" enable-background="new 0 0 100 100" height="600px" version="1.1" viewBox="0 0 100 100" width="212px" x="0px" xml:space="preserve" y="0px">
	<defs/>
	<path d="M 55.6,73.441 C 55.6,73.143 55.359,72.903 55.062000000000005,72.903 C 54.764,72.903 54.52400000000001,73.143 54.52400000000001,73.441 C 54.52400000000001,73.739 54.76400000000001,73.979 55.062000000000005,73.979 C 55.102000000000004,73.979 55.136,73.964 55.17400000000001,73.957 C 54.94500000000001,74.31099999999999 54.51800000000001,74.43499999999999 54.135000000000005,74.42099999999999 C 53.36300000000001,74.386 52.57000000000001,73.78299999999999 52.551,72.698 C 52.53,71.81899999999999 52.562000000000005,70.96 52.592,70.131 C 52.661,68.218 52.727,66.41 52.141,64.765 C 51.769,63.621 50.689,62.698 49.827999999999996,62.786 C 49.501999999999995,62.821 48.94,63.033 48.82899999999999,64.075 L 48.830999999999996,64.075 C 48.830999999999996,64.078 48.82899999999999,64.08 48.82899999999999,64.083 C 48.82899999999999,64.381 49.068999999999996,64.622 49.36699999999999,64.622 C 49.664999999999985,64.622 49.90499999999999,64.381 49.90499999999999,64.083 C 49.90499999999999,63.786 49.664999999999985,63.545 49.36699999999999,63.545 C 49.31999999999999,63.545 49.27799999999999,63.561 49.23299999999999,63.571000000000005 C 49.36399999999999,63.26800000000001 49.56899999999999,63.084 49.85499999999999,63.053000000000004 C 50.51699999999999,62.987 51.02299999999999,63.696000000000005 51.383999999999986,64.81 C 51.95299999999999,66.411 51.889999999999986,68.193 51.82199999999999,70.08 C 51.79199999999999,70.914 51.75999999999999,71.776 51.78099999999999,72.66199999999999 C 51.80199999999999,73.91199999999999 53.224999999999994,74.64899999999999 54.12299999999999,74.69099999999999 C 54.14999999999999,74.692 54.17799999999999,74.692 54.20399999999999,74.692 C 54.849,74.692 55.510999999999996,74.338 55.599999999999994,73.52399999999999 L 55.583999999999996,73.52199999999999 C 55.588,73.494 55.6,73.47 55.6,73.441"/>
	<path d="M 36.761,73.441 C 36.761,73.143 37.001000000000005,72.903 37.299,72.903 C 37.596,72.903 37.838,73.143 37.838,73.441 C 37.838,73.739 37.596000000000004,73.979 37.299,73.979 C 37.259,73.979 37.224,73.964 37.186,73.957 C 37.415,74.31099999999999 37.842,74.43499999999999 38.225,74.42099999999999 C 38.998000000000005,74.386 39.791000000000004,73.78299999999999 39.81,72.698 C 39.830000000000005,71.81899999999999 39.799,70.96 39.768,70.131 C 39.699,68.218 39.633,66.41 40.22,64.765 C 40.592,63.621 41.671,62.698 42.533,62.786 C 42.859,62.821 43.421,63.033 43.532000000000004,64.075 L 43.53,64.075 C 43.53,64.078 43.532000000000004,64.08 43.532000000000004,64.083 C 43.532000000000004,64.381 43.293000000000006,64.622 42.99400000000001,64.622 C 42.69700000000001,64.622 42.45600000000001,64.381 42.45600000000001,64.083 C 42.45600000000001,63.786 42.69700000000001,63.545 42.99400000000001,63.545 C 43.04200000000001,63.545 43.08500000000001,63.561 43.129000000000005,63.571000000000005 C 42.998000000000005,63.26800000000001 42.792,63.084 42.50600000000001,63.053000000000004 C 41.84400000000001,62.987 41.339000000000006,63.696000000000005 40.97800000000001,64.81 C 40.409000000000006,66.411 40.47100000000001,68.193 40.540000000000006,70.08 C 40.56900000000001,70.914 40.602000000000004,71.776 40.580000000000005,72.66199999999999 C 40.559000000000005,73.91199999999999 39.136,74.64899999999999 38.23800000000001,74.69099999999999 C 38.211000000000006,74.692 38.18300000000001,74.692 38.15800000000001,74.692 C 37.51200000000001,74.692 36.85000000000001,74.338 36.76200000000001,73.52399999999999 L 36.77700000000001,73.52199999999999 C 36.771,73.494 36.761,73.47 36.761,73.441"/>
	<path d="M 62.171,78.758 C 61.258,76.241 60.467999999999996,74.06899999999999 61.319,71.776 C 61.472,71.36699999999999 61.36,70.905 61.039,70.609 C 60.836,70.422 60.574,70.32499999999999 60.31,70.32499999999999 C 60.155,70.32499999999999 59.998000000000005,70.35799999999999 59.852000000000004,70.42699999999999 C 59.49700000000001,70.595 59.147000000000006,70.67999999999999 58.81400000000001,70.67999999999999 C 56.99600000000001,70.67999999999999 55.23500000000001,67.95599999999999 54.97200000000001,64.734 C 54.754000000000005,62.07899999999999 55.61800000000001,59.062 58.69200000000001,58.55499999999999 C 59.13700000000001,58.480999999999995 59.49000000000001,58.13699999999999 59.574000000000005,57.693999999999996 C 59.658,57.251 59.45700000000001,56.800999999999995 59.07000000000001,56.568999999999996 C 58.66100000000001,56.324999999999996 58.40700000000001,56.06099999999999 58.37400000000001,55.843999999999994 C 58.33800000000001,55.614999999999995 58.52500000000001,55.340999999999994 58.59400000000001,55.26299999999999 C 58.668000000000006,55.17799999999999 58.74300000000001,55.06699999999999 58.78800000000001,54.96099999999999 C 58.92200000000001,54.648999999999994 62.02400000000001,47.267999999999994 58.61800000000001,41.32099999999999 C 56.72200000000001,38.00799999999999 53.21200000000001,35.86699999999999 48.19900000000001,34.92099999999999 L 48.19900000000001,12.809 L 49.40600000000001,12.802 C 49.57200000000001,13.458 50.16200000000001,13.947 50.87000000000001,13.947 C 51.70500000000001,13.947 52.384000000000015,13.268999999999998 52.384000000000015,12.431999999999999 L 52.384000000000015,12.095999999999998 C 52.384000000000015,11.258999999999999 51.70500000000001,10.581999999999999 50.87000000000001,10.581999999999999 C 50.13800000000001,10.581999999999999 49.52600000000001,11.101999999999999 49.387000000000015,11.793 L 48.19900000000001,11.799 L 48.19900000000001,8.604 L 49.40600000000001,8.597 C 49.57200000000001,9.253 50.16200000000001,9.741 50.87000000000001,9.741 C 51.70500000000001,9.741 52.384000000000015,9.064 52.384000000000015,8.227 L 52.384000000000015,7.891 C 52.384000000000015,7.054 51.70500000000001,6.376 50.87000000000001,6.376 C 50.13800000000001,6.376 49.52600000000001,6.896000000000001 49.387000000000015,7.588 L 48.19900000000001,7.594 L 48.19900000000001,2.133 C 48.199,1.508 47.387,1.0 46.383,1.0 C 45.379000000000005,1.0 44.567,1.508 44.567,2.133 L 44.567,8.737 L 43.422,8.737 C 43.281,8.047 42.669,7.526 41.937999999999995,7.526 C 41.102999999999994,7.526 40.42399999999999,8.205 40.42399999999999,9.04 L 40.42399999999999,9.376999999999999 C 40.42399999999999,10.213999999999999 41.102999999999994,10.890999999999998 41.937999999999995,10.890999999999998 C 42.647,10.890999999999998 43.236,10.403999999999998 43.401999999999994,9.746999999999998 L 44.56699999999999,9.746999999999998 L 44.56699999999999,12.942999999999998 L 43.42199999999999,12.942999999999998 C 43.28099999999999,12.251999999999997 42.66899999999999,11.730999999999998 41.93799999999999,11.730999999999998 C 41.10299999999999,11.730999999999998 40.423999999999985,12.409999999999998 40.423999999999985,13.245999999999999 L 40.423999999999985,13.581999999999999 C 40.423999999999985,14.418999999999999 41.10299999999999,15.095999999999998 41.93799999999999,15.095999999999998 C 42.64699999999999,15.095999999999998 43.23599999999999,14.608999999999998 43.40199999999999,13.951999999999998 L 44.566999999999986,13.951999999999998 L 44.566999999999986,34.897 C 39.48299999999999,35.830999999999996 35.92599999999999,37.979 34.012999999999984,41.32 C 30.606999999999985,47.266 33.70899999999998,54.647999999999996 33.84299999999998,54.96 C 33.89299999999998,55.076 33.96199999999998,55.183 34.048999999999985,55.274 C 34.10599999999999,55.339 34.29199999999999,55.613 34.256999999999984,55.842 C 34.222999999999985,56.059 33.96899999999999,56.321999999999996 33.560999999999986,56.567 C 33.173999999999985,56.799 32.97199999999999,57.249 33.05599999999998,57.692 C 33.140999999999984,58.135 33.493999999999986,58.479 33.93999999999998,58.553 C 37.01399999999998,59.059999999999995 37.87599999999998,62.076 37.65999999999998,64.732 C 37.39499999999998,67.955 35.63599999999998,70.678 33.81599999999998,70.678 C 33.48299999999998,70.678 33.13399999999998,70.593 32.77899999999998,70.425 C 32.631999999999984,70.357 32.475999999999985,70.323 32.320999999999984,70.323 C 32.054999999999986,70.323 31.795999999999985,70.42099999999999 31.591999999999985,70.607 C 31.268999999999984,70.903 31.157999999999983,71.365 31.310999999999986,71.774 C 32.16299999999998,74.06700000000001 31.373999999999985,76.24 30.458999999999985,78.756 C 28.869999999999987,83.134 26.890999999999984,88.58 34.68099999999998,95.649 C 38.277999999999984,98.854 41.41899999999998,99.438 46.31599999999998,99.438 C 51.21199999999998,99.438 54.353999999999985,98.854 57.94399999999998,95.657 C 65.74,88.582 63.762,83.136 62.171,78.758 M 57.227,94.854 C 53.852,97.861 50.891,98.364 46.315999999999995,98.364 C 41.74099999999999,98.364 38.779999999999994,97.861 35.403999999999996,94.854 C 23.887,84.403 34.992,78.597 32.32,71.4 C 32.836,71.643 33.338,71.754 33.815,71.754 C 38.986999999999995,71.754 41.586,58.723000000000006 34.113,57.49100000000001 C 36.356,56.14900000000001 34.832,54.534000000000006 34.832,54.534000000000006 C 34.832,54.534000000000006 28.207,39.105000000000004 44.566,35.97800000000001 L 44.566,62.78 L 46.315000000000005,62.78 L 46.45,62.78 L 48.199000000000005,62.78 L 48.199000000000005,36.009 C 64.38000000000001,39.197 57.79900000000001,54.535 57.79900000000001,54.535 C 57.79900000000001,54.535 56.275000000000006,56.15 58.51700000000001,57.492 C 51.04400000000001,58.723 53.64500000000001,71.755 58.81500000000001,71.755 C 59.29400000000001,71.755 59.79400000000001,71.64399999999999 60.311000000000014,71.401 C 57.638,78.597 68.744,84.403 57.227,94.854"/>
	<path d="M 43.265,68.735 L 49.276,68.735 L 49.276,69.248 L 43.265,69.248 L 43.265,68.735" height="0.513" width="6.011" x="43.265" y="68.735"/>
</svg>
