<?xml version="1.0" ?>
<svg xmlns="http://www.w3.org/2000/svg" xmlns:cc="http://creativecommons.org/ns#" xmlns:dc="http://purl.org/dc/elements/1.1/" xmlns:ev="http://www.w3.org/2001/xml-events" xmlns:inkscape="http://www.inkscape.org/namespaces/inkscape" xmlns:rdf="http://www.w3.org/1999/02/22-rdf-syntax-ns#" xmlns:sodipodi="http://sodipodi.sourceforge.net/DTD/sodipodi-0.dtd" xmlns:svg="http://www.w3.org/2000/svg" xmlns:xlink="http://www.w3.org/1999/xlink" baseProfile="full" height="600px" version="1.1" viewBox="0 0 80 80" width="205px" x="0px" y="0px">
	<defs/>
	<path d="M 26.625,8.125 L 29.59375,30.65625 L 29.6875,30.625 C 30.151823,32.365924 31.322752,33.770027999999996 32.84375,34.5625 C 33.790143,33.55634 34.862274,33.014102 36.0,32.75 C 35.167059,33.468841 33.665875,34.031648 33.65625,34.9375 C 34.586833,35.265567 35.612304,35.373644 36.65625,35.21875 C 40.077255,34.711163 42.413837,31.514755 41.90625,28.09375 C 41.787284,27.291952 41.506051,26.537738 41.125,25.875 L 41.25,25.8125 L 26.625,8.125 M 43.082912,34.329931 C 40.088253,34.799749 38.320119,35.548071 35.797538,35.928669 C 35.578659,36.024979 34.753562,36.404649 34.472848000000006,37.260075 C 32.216260000000005,44.439192 31.413843000000007,51.500835 30.281250000000007,58.90625 C 30.175612000000008,59.591999 30.626736000000008,60.238111 31.312500000000007,60.34375 L 32.96875000000001,60.59375 C 33.05447000000001,60.60695 33.135557000000006,60.62895 33.21875000000001,60.625 L 30.812500000000007,63.96875 L 30.812500000000007,64.0 C 30.371131000000005,64.62159 30.171412000000007,65.327299 30.187500000000007,66.03125 C 30.118910000000007,66.526401 30.146320000000006,67.053062 30.312500000000007,67.5625 L 34.15625000000001,79.3125 L 32.81250000000001,88.3125 L 34.25000000000001,88.53125 L 35.15625000000001,82.40625 L 35.31250000000001,82.875 C 35.52766900000001,83.534635 36.24661600000001,83.90267 36.90625000000001,83.6875 L 38.15625000000001,83.28125 L 37.03125000000001,95.6875 L 38.96875000000001,95.875 L 40.1875,82.59375 L 40.875,82.375 C 41.258872,82.249774 41.499367,81.975587 41.625,81.625 C 42.513292,81.72199 43.45178,81.75 44.4375,81.75 C 45.59372,81.75 46.697438,81.69431 47.71875,81.5625 L 48.1875,86.75 L 49.84375,86.59375 L 49.375,81.28125 C 49.90581,81.166001 50.394812,81.024877 50.84375,80.875 C 51.353977,80.704662 51.802684,80.522662 52.1875,80.3125 L 54.53125,93.75 L 56.46875,93.4375 L 51.40625,64.53125 C 53.596329,64.005911 55.0,63.264643 55.0,62.40625 C 55.0072,62.109224 55.01329,61.878045 55.0,61.5625 C 55.0,60.324258 52.122649,59.274225 48.09375,58.875 L 44.59375,35.78125 C 44.45519,34.866565 43.624263,34.24792 43.082912,34.329931 M 36.34375,47.1875 L 37.5,54.84375 C 36.354564,56.289848 35.441941,57.523982000000004 34.46875,58.875 C 35.246371,55.005776 35.47835,50.937567 36.34375,47.1875 M 38.5,64.71875 C 38.922219,64.79995 39.378254,64.873771 39.84375,64.9375 L 39.125,72.90625 C 38.370549,70.553429 37.208179,66.493733 37.208179,66.493733 L 38.5,64.71875 M 49.46875,64.90625 L 51.53125,76.71875 C 51.307549,76.62412 51.096488,76.521876 50.84375,76.4375 C 50.267499,76.24512 49.613808,76.071798 48.90625,75.9375 L 47.9375,65.0625 C 48.458468,65.01216 48.987983,64.97692 49.46875,64.90625 M 41.78125,65.125 C 42.661629,65.18985 43.574319,65.25 44.53125,65.25 C 45.134922,65.25 45.706931,65.21501 46.28125,65.1875 L 47.21875,75.71875 C 46.335251,75.62375 45.412669,75.5625 44.4375,75.5625 C 43.151237,75.5625 41.921652,75.65091 40.8125,75.8125 L 41.78125,65.125 M 44.4375,75.875 C 45.426203,75.875 46.36533,75.93026 47.25,76.03125 L 47.6875,81.21875 C 46.684192,81.353498 45.588103,81.46875 44.4375,81.46875 C 43.482447,81.46875 42.574091,81.37577 41.71875,81.28125 C 41.72765,81.128831 41.73793,80.967102 41.6875,80.8125 L 40.65625,77.59375 L 40.78125,76.15625 C 41.889645,75.983192 43.123548,75.875 44.4375,75.875 M 48.9375,76.28125 C 49.521548,76.399705 50.054956,76.528491 50.53125,76.6875 C 50.946576,76.826155 51.30711,76.994231 51.625,77.15625 L 52.09375,79.875 C 51.69039,80.144419 51.178069,80.409061 50.53125,80.625 C 50.165829,80.746995 49.774244,80.838856 49.34375,80.9375 L 48.9375,76.28125" fill="#000000" fill-opacity="1" stroke="none" transform="scale(0.8,0.8)"/>
</svg>
