<?xml version="1.0" ?>
<svg xmlns="http://www.w3.org/2000/svg" xmlns:ev="http://www.w3.org/2001/xml-events" xmlns:xlink="http://www.w3.org/1999/xlink" baseProfile="full" enable-background="new 0 0 100 100" height="600px" version="1.1" viewBox="0 0 100 100" width="600px" x="0px" xml:space="preserve" y="0px">
	<defs/>
	<path clip-rule="evenodd" d="M 50.0,0.0 C 22.386,0.0 0.0,22.386 0.0,50.0 C 0.0,77.614 22.386,100.0 50.0,100.0 C 77.614,100.0 100.0,77.614 100.0,50.0 C 100.0,22.385999999999996 77.614,0.0 50.0,0.0 M 6.91,50.0 C 6.91,40.863 9.762,32.397 14.613,25.425 L 15.169,25.842000000000002 L 14.833,27.191000000000003 L 16.068,27.529000000000003 L 15.843000000000002,25.731 L 16.854000000000003,25.619000000000003 L 16.854000000000003,23.259000000000004 L 17.865000000000002,23.259000000000004 C 17.865000000000002,23.259000000000004 18.043000000000003,23.717000000000002 18.23,24.197000000000003 C 18.435,24.725 18.652,25.281000000000002 18.652,25.281000000000002 L 19.775000000000002,26.518 C 19.775000000000002,26.518 18.427000000000003,26.853 17.978,26.853 C 17.529,26.853 17.753,28.651000000000003 17.753,28.651000000000003 L 19.325,29.212000000000003 L 20.341,27.336000000000002 L 22.696,24.719 L 23.819000000000003,21.237000000000002 L 25.954,19.213 L 24.718,18.317 L 26.067,17.418 L 26.179,16.180999999999997 L 22.247,17.304 L 22.123,17.156 C 24.264000000000003,15.337 26.583000000000002,13.722999999999999 29.054000000000002,12.346 L 30.898000000000003,13.149000000000001 L 29.663000000000004,15.509 L 27.190000000000005,15.509 L 26.740000000000006,17.642 L 28.763000000000005,17.642 L 31.684000000000005,15.844 L 33.70700000000001,13.823 L 34.043000000000006,11.913 L 31.122000000000007,11.689 L 33.144000000000005,10.34 L 35.054,10.677999999999999 L 34.718,12.698999999999998 L 37.30200000000001,11.123999999999999 L 37.75200000000001,12.360999999999999 L 38.31400000000001,14.158999999999999 L 36.85300000000001,15.956999999999999 L 35.28000000000001,17.416999999999998 L 32.92000000000001,17.078999999999997 L 34.04400000000001,19.437999999999995 L 31.909000000000013,19.100999999999996 L 28.314000000000014,22.808999999999997 L 29.213000000000015,24.046 L 32.134000000000015,23.82 L 34.606000000000016,23.032 L 37.753000000000014,22.697 L 39.213000000000015,22.36 C 39.213000000000015,22.36 39.213000000000015,21.461 39.100000000000016,20.9 C 38.98900000000002,20.337999999999997 40.22400000000002,21.011 40.22400000000002,21.011 L 41.573000000000015,20.226 L 42.58400000000002,17.079 L 46.29100000000002,15.392000000000001 L 45.73000000000002,14.495000000000001 L 46.62900000000002,13.370000000000001 L 43.70800000000002,12.920000000000002 L 44.49400000000002,11.797000000000002 L 40.78600000000002,10.560000000000002 L 38.876000000000026,10.560000000000002 L 39.550000000000026,8.876000000000003 L 40.33600000000003,8.088000000000003 L 40.273000000000025,8.025000000000002 C 43.4,7.304 46.653,6.91 50.0,6.91 C 55.216,6.91 60.214,7.837 64.841,9.535 L 64.729,9.8 L 62.858,9.675 L 62.858,10.8 L 63.607,11.299000000000001 L 63.607,12.297 L 64.23,13.17 L 61.98500000000001,11.798 L 60.48800000000001,12.547 L 61.23700000000001,14.296000000000001 L 61.61100000000001,16.292 L 62.60900000000001,17.417 L 64.97900000000001,17.791 L 64.48000000000002,18.789 L 63.981000000000016,20.289 L 66.10400000000001,21.661 L 65.97900000000001,22.285 L 61.985000000000014,18.914 L 61.73600000000001,20.164 L 63.48200000000001,21.911 L 64.48000000000002,22.285 L 62.23500000000002,22.784 L 61.98500000000002,23.909 L 60.36400000000002,22.284 L 59.36300000000002,20.163 L 58.98900000000002,18.04 L 57.98800000000002,19.288 L 58.73900000000002,22.284 L 59.987000000000016,23.16 L 59.488000000000014,26.029 L 58.73900000000001,25.654 L 58.86400000000001,27.154 L 57.73900000000001,27.029 L 56.616000000000014,25.404 L 55.244000000000014,25.404 L 53.246000000000016,25.154 L 51.247000000000014,25.279 L 49.37600000000001,26.779 L 48.12700000000001,28.9 L 45.50500000000001,30.898 L 45.25500000000001,32.021 L 45.25500000000001,33.396 L 45.87900000000001,34.768 L 47.128000000000014,33.77 L 47.50200000000002,34.518 L 48.12700000000002,35.641 L 48.25200000000002,35.893 L 48.87600000000002,36.642 L 50.0,35.894 L 49.875,33.147 L 51.247,31.398 C 51.247,31.398 51.317,31.102 51.395,30.761 C 51.501000000000005,30.306 51.622,29.776 51.622,29.776 L 52.12,28.401 L 52.995999999999995,28.526 L 52.74699999999999,29.651 L 52.24499999999999,32.146 L 54.61999999999999,31.896 L 55.49399999999999,32.146 L 53.61999999999999,32.647 L 53.86899999999999,33.894999999999996 L 51.745999999999995,35.266999999999996 L 51.870999999999995,36.641999999999996 L 50.0,37.142 L 49.626,38.14 L 48.126999999999995,37.641 L 47.12799999999999,37.641 L 47.12799999999999,35.518 L 46.00399999999999,35.895 L 46.00399999999999,37.018 L 42.88299999999999,39.516 L 41.13499999999999,40.14 L 40.38599999999999,41.013 L 37.88799999999999,40.388999999999996 L 37.76299999999999,41.51199999999999 L 39.38599999999999,42.13799999999999 L 39.26099999999999,44.38299999999999 L 34.76599999999999,44.25799999999999 L 34.14199999999999,45.255999999999986 L 33.51799999999999,47.00499999999999 L 32.76799999999999,48.50499999999999 L 33.89199999999999,49.752999999999986 L 35.14099999999999,51.249999999999986 L 39.139,50.0 L 39.389,48.503 L 40.264,47.752 L 41.762,47.253 L 41.637,46.255 L 43.011,45.88 L 45.008,45.506 L 46.257000000000005,47.003 L 48.504000000000005,48.628 L 49.50300000000001,50.249 L 49.50300000000001,50.998000000000005 L 50.75000000000001,50.249 L 50.12700000000001,49.127 L 50.37600000000001,47.877 L 49.253000000000014,47.378 L 48.25400000000001,46.006 L 48.878000000000014,44.007 L 50.0,45.631 L 51.622,46.879 L 52.245,49.126999999999995 L 53.869,50.373999999999995 L 54.246,51.748999999999995 L 54.995000000000005,50.12499999999999 L 54.745000000000005,49.37599999999999 L 55.11900000000001,48.75199999999999 L 57.489000000000004,46.75399999999999 L 57.98800000000001,44.25599999999999 L 58.989000000000004,43.50699999999999 L 60.236000000000004,43.63199999999999 L 62.11000000000001,41.75799999999999 L 62.23500000000001,43.25799999999999 L 64.97900000000001,44.130999999999986 L 64.97900000000001,45.505999999999986 L 62.734000000000016,45.505999999999986 L 59.363000000000014,47.25199999999999 L 56.616000000000014,48.75199999999999 L 57.365000000000016,50.37399999999999 L 59.862000000000016,50.87299999999999 L 61.237000000000016,51.49699999999999 L 62.734000000000016,50.498999999999995 L 62.85800000000002,54.745 L 58.612000000000016,55.617999999999995 L 54.122000000000014,54.367999999999995 L 52.37300000000001,55.742999999999995 L 53.12100000000001,56.49099999999999 L 51.74600000000001,56.24199999999999 L 47.37800000000001,54.61799999999999 L 46.13000000000001,54.74499999999999 L 45.13100000000001,53.12099999999999 L 45.13100000000001,51.12299999999999 L 42.88300000000001,51.12299999999999 L 41.63500000000001,50.87299999999999 L 37.63900000000001,51.74899999999999 L 34.51800000000001,51.496999999999986 L 33.14500000000001,52.24799999999998 L 32.27100000000001,52.37299999999998 L 31.771000000000008,53.993999999999986 L 28.90000000000001,55.99299999999999 L 24.90400000000001,58.98899999999999 L 24.65400000000001,62.85799999999999 L 23.530000000000012,65.356 L 23.655000000000012,66.85199999999999 L 24.65400000000001,68.60099999999998 L 27.52600000000001,73.46899999999998 L 30.52200000000001,74.84299999999998 L 35.516000000000005,75.21799999999998 L 35.266000000000005,73.09399999999998 L 34.142,72.47099999999998 L 34.641000000000005,71.34799999999997 L 35.516000000000005,72.34599999999998 L 36.389,74.96799999999998 L 40.135000000000005,75.21799999999998 L 41.633,76.71399999999997 L 43.755,77.58999999999997 L 44.005,81.20999999999998 L 46.253,84.08199999999998 L 48.375,87.82599999999998 L 46.503,90.07399999999998 L 48.415,93.04899999999998 C 25.354,92.215 6.91,73.266 6.91,50.0 M 64.765,90.492 L 69.974,86.705 L 68.10300000000001,82.084 L 74.096,74.221 L 75.967,69.226 L 76.84,66.479 L 73.72200000000001,67.979 L 71.84800000000001,68.353 L 67.23000000000002,65.481 L 65.85600000000002,62.35999999999999 L 64.10700000000003,60.61099999999999 L 61.861000000000026,55.61899999999999 L 63.73200000000003,57.11599999999999 L 67.23000000000003,60.98599999999999 L 68.47800000000004,62.73499999999999 L 70.97200000000004,63.98199999999999 L 71.72300000000004,67.228 L 74.72000000000004,65.232 L 78.34000000000005,60.736 L 80.08800000000005,56.117999999999995 L 78.71400000000006,54.995999999999995 L 77.96500000000006,53.620999999999995 L 77.09000000000006,55.245 L 75.34300000000006,57.241 L 72.84600000000006,54.494 L 72.09800000000006,52.374 L 73.84600000000006,52.748000000000005 L 75.59300000000006,53.621 L 78.09000000000006,52.748000000000005 L 79.59000000000006,53.24700000000001 L 83.58100000000006,50.50000000000001 L 85.83200000000006,51.75000000000001 L 87.20400000000006,50.99900000000001 L 90.18900000000006,55.69900000000001 L 91.66800000000006,54.289000000000016 L 91.69700000000006,52.49800000000002 L 91.82100000000005,47.12900000000002 L 92.73900000000006,44.58500000000002 C 92.96200000000006,46.36000000000002 93.09000000000006,48.16500000000002 93.09000000000006,50.00100000000002 C 93.09,68.61 81.291,84.465 64.765,90.492" fill-rule="evenodd"/>
	<path clip-rule="evenodd" d="M 42.023,38.316 L 41.349,37.191 L 40.562,34.943 L 41.124,34.27 L 40.786,32.697 L 38.764,34.27 L 39.214,35.619 L 39.775,37.752 L 38.764,37.752 L 38.764,38.763 L 39.888,39.438 L 42.023,38.316" fill-rule="evenodd" points="42.023,38.316 41.349,37.191 40.562,34.943 41.124,34.27   40.786,32.697 38.764,34.27 39.214,35.619 39.775,37.752 38.764,37.752 38.764,38.763 39.888,39.438 "/>
	<path clip-rule="evenodd" d="M 35.955,36.741 L 36.293,38.316 L 37.978,37.529 L 38.426,36.18 L 37.753,35.507 L 35.955,36.741" fill-rule="evenodd" points="35.955,36.741 36.293,38.316 37.978,37.529 38.426,36.18   37.753,35.507 "/>
	<path clip-rule="evenodd" d="M 38.09,27.866 L 38.426,26.967 L 37.529,26.068 L 35.73,25.957 L 35.843,27.303 L 38.09,27.866" fill-rule="evenodd" points="38.09,27.866 38.426,26.967 37.529,26.068 35.73,25.957   35.843,27.303 "/>
	<path clip-rule="evenodd" d="M 50.338,18.989 L 50.899,19.212 L 51.011,18.316 L 50.338,17.978 L 50.785,16.855 L 48.764,17.978 L 49.55,19.662 L 50.338,18.989" fill-rule="evenodd" points="50.338,18.989 50.899,19.212 51.011,18.316   50.338,17.978 50.785,16.855 48.764,17.978 49.55,19.662 "/>
	<path clip-rule="evenodd" d="M 55.28,15.73 L 54.158,15.169 L 53.37,15.957 L 54.831,16.18 L 55.28,15.73" fill-rule="evenodd" points="55.28,15.73 54.158,15.169 53.37,15.957 54.831,16.18 "/>
</svg>
