<?xml version="1.0" ?>
<svg xmlns="http://www.w3.org/2000/svg" xmlns:ev="http://www.w3.org/2001/xml-events" xmlns:xlink="http://www.w3.org/1999/xlink" baseProfile="full" enable-background="new 3.553 0 92.895 100" height="600px" version="1.1" viewBox="3.553 0 92.895 100" width="558px" x="0px" xml:space="preserve" y="0px">
	<defs/>
	<path d="M 3.553,100.0 L 96.448,100.0 L 96.448,23.176 L 3.553,23.176 L 3.553,100.0 M 67.747,94.585 L 32.125,94.585 L 32.125,90.93199999999999 L 67.747,90.93199999999999 L 67.747,94.585 M 32.125,87.408 L 32.125,64.232 L 35.649,64.232 L 35.649,87.408 L 32.125,87.408 M 39.299,87.408 L 39.299,64.232 L 60.698,64.232 L 60.698,87.408 L 39.299,87.408 M 67.747,87.408 L 64.223,87.408 L 64.223,64.232 L 67.747,64.232 L 67.747,87.408 M 32.125,60.706 L 49.872,55.291000000000004 L 67.747,60.706 L 32.125,60.706 M 78.57,30.354 L 87.38199999999999,30.354 L 87.38199999999999,51.762 L 78.57,51.762 L 78.57,30.354 M 78.57,64.232 L 87.38199999999999,64.232 L 87.38199999999999,87.408 L 78.57,87.408 L 78.57,64.232 M 61.957,30.354 L 71.019,30.354 L 71.019,51.762 L 61.95700000000001,51.762 L 61.95700000000001,30.354 L 61.957,30.354 M 45.594,30.354 L 54.406,30.354 L 54.406,51.762 L 45.594,51.762 L 45.594,30.354 M 28.979,30.357 L 37.915,30.357 L 37.915,51.768 L 28.979,51.768 L 28.979,30.357 M 12.488,30.357 L 21.426000000000002,30.357 L 21.426000000000002,51.768 L 12.488000000000001,51.768 L 12.488000000000001,30.357 L 12.488,30.357 M 12.488,64.229 L 21.426000000000002,64.229 L 21.426000000000002,87.40299999999999 L 12.488000000000001,87.40299999999999 L 12.488000000000001,64.229 L 12.488,64.229"/>
	<path d="M 96.448,17.886 L 82.098,7.053 L 67.747,7.053 L 82.098,17.886 L 96.448,17.886" points="96.448,17.886 82.098,7.053 67.747,7.053 82.098,17.886 "/>
	<path d="M 32.125,7.053 L 17.902,7.053 L 3.553,17.886 L 17.902,17.886 L 32.125,7.053" points="32.125,7.053 17.902,7.053 3.553,17.886 17.902,17.886 "/>
	<path d="M 73.789,17.886 L 49.872,0.0 L 26.21,17.886 L 73.789,17.886" points="73.789,17.886 49.872,0 26.21,17.886 "/>
	<path d="M 64.223,64.232 L 67.747,64.232 L 67.747,87.408 L 64.223,87.408 L 64.223,64.232" fill="none" height="23.176" width="3.524" x="64.223" y="64.232"/>
	<path d="M 78.57,30.354 L 87.38199999999999,30.354 L 87.38199999999999,51.762 L 78.57,51.762 L 78.57,30.354" fill="none" height="21.408" width="8.812" x="78.57" y="30.354"/>
	<path d="M 39.299,64.232 L 60.698,64.232 L 60.698,87.408 L 39.299,87.408 L 39.299,64.232" fill="none" height="23.176" width="21.399" x="39.299" y="64.232"/>
	<path d="M 32.125,90.932 L 67.747,90.932 L 67.747,94.58500000000001 L 32.125,94.58500000000001 L 32.125,90.932" fill="none" height="3.653" width="35.622" x="32.125" y="90.932"/>
	<path d="M 78.57,64.232 L 87.38199999999999,64.232 L 87.38199999999999,87.408 L 78.57,87.408 L 78.57,64.232" fill="none" height="23.176" width="8.812" x="78.57" y="64.232"/>
	<path d="M 32.125,64.232 L 35.649,64.232 L 35.649,87.408 L 32.125,87.408 L 32.125,64.232" fill="none" height="23.176" width="3.524" x="32.125" y="64.232"/>
	<path d="M 45.594,30.354 L 54.406,30.354 L 54.406,51.762 L 45.594,51.762 L 45.594,30.354" fill="none" height="21.408" width="8.812" x="45.594" y="30.354"/>
	<path d="M 61.957,30.354 L 71.019,30.354 L 71.019,51.762 L 61.957,51.762 L 61.957,30.354" fill="none" height="21.408" width="9.062" x="61.957" y="30.354"/>
</svg>
