<?xml version="1.0" ?>
<svg xmlns="http://www.w3.org/2000/svg" xmlns:ev="http://www.w3.org/2001/xml-events" xmlns:xlink="http://www.w3.org/1999/xlink" baseProfile="full" enable-background="new 0 0 100 100" height="600px" version="1.1" viewBox="0 0 100 100" width="600px" x="0px" xml:space="preserve" y="0px">
	<defs/>
	<path clip-rule="evenodd" d="M 95.525,52.728 C 89.94300000000001,51.232 88.67800000000001,38.143 93.257,35.5 C 94.75800000000001,34.63 95.92200000000001,33.396 96.691,31.973 C 95.5,27.63 91.436,21.372999999999998 89.143,18.59 C 87.467,18.512 85.753,18.895 84.193,19.796 C 79.198,22.682 68.872,14.963 70.41,9.218 C 70.89099999999999,7.423 70.637,5.246 70.24499999999999,3.974 C 67.40599999999999,2.5060000000000002 60.68299999999999,0.5310000000000001 55.68999999999999,0.04200000000000026 C 54.61399999999999,0.8250000000000003 53.38199999999999,2.7180000000000004 52.901999999999994,4.525 C 51.272999999999996,10.600000000000001 38.38199999999999,11.483 35.61699999999999,6.695 C 34.69399999999999,5.095000000000001 32.99399999999999,3.6050000000000004 31.81899999999999,3.115 C 28.588999999999988,4.094 21.569999999999986,8.163 18.730999999999987,10.512 C 18.92699999999999,12.176 18.96499999999999,14.109 19.918999999999986,15.759 C 22.681999999999988,20.548000000000002 15.198999999999987,31.197000000000003 9.289999999999987,29.614 C 7.345999999999987,29.094 5.305999999999987,29.242 3.641999999999987,29.927 C 2.271,32.963 0.196,40.97 0.0,44.2 C 0.392,45.081 2.729,46.628 4.598,47.128 C 12.640999999999998,49.284 12.704,61.079 6.877,64.443 C 5.231,65.39399999999999 3.8209999999999997,66.714 3.234,68.37899999999999 C 4.213,71.511 8.147,78.39699999999999 10.692,81.33399999999999 C 12.356,81.52899999999998 14.289,81.10199999999999 15.940000000000001,80.14699999999999 C 21.144000000000002,77.13999999999999 31.552,84.21099999999998 29.793,90.77799999999999 C 29.336,92.487 29.589,94.285 29.881999999999998,96.04799999999999 C 33.797999999999995,97.71199999999999 40.882,100.05299999999998 44.798,99.95499999999998 C 46.07,98.77999999999999 46.855000000000004,97.14299999999999 47.302,95.47199999999998 C 48.842,89.72399999999998 61.555,87.88999999999999 64.559,93.09399999999998 C 65.398,94.54899999999998 66.573,95.92999999999998 67.943,96.71299999999998 C 72.054,95.53799999999998 79.28099999999999,91.49399999999999 81.731,88.94899999999998 C 81.827,87.08999999999999 81.127,85.53699999999998 80.25699999999999,84.02699999999999 C 77.00999999999999,78.40799999999999 84.59499999999998,68.56899999999999 90.832,70.24099999999999 C 92.53999999999999,70.69699999999999 94.39999999999999,70.54299999999999 95.967,70.15199999999999 C 97.337,66.72499999999998 99.609,60.60299999999999 99.999,55.51299999999999 C 98.629,53.947 97.329,53.212 95.525,52.728 M 76.521,56.525 C 72.714,70.742 58.104,79.176 43.889,75.368 C 29.676000000000002,71.55799999999999 21.242000000000004,56.94499999999999 25.050000000000004,42.72899999999999 C 28.858000000000004,28.51299999999999 43.468,20.077999999999992 57.681000000000004,23.886999999999993 C 71.895,27.696 80.33,42.307 76.521,56.525" fill-rule="evenodd"/>
</svg>
