<?xml version="1.0" ?>
<svg xmlns="http://www.w3.org/2000/svg" xmlns:ev="http://www.w3.org/2001/xml-events" xmlns:xlink="http://www.w3.org/1999/xlink" baseProfile="full" enable-background="new 0 0 100 99.864" height="580px" version="1.1" viewBox="0 0 100 99.864" width="600px" x="0px" xml:space="preserve" y="0px">
	<defs/>
	<path d="M 36.75,65.393 C 38.925,70.955 44.0,74.901 50.332,74.901 C 56.664,74.901 61.735,70.954 63.915,65.393 L 36.75,65.393" fill="#231F20"/>
	<path d="M 38.786,42.303 C 36.157000000000004,42.303 34.032000000000004,44.431999999999995 34.032000000000004,47.058 C 34.032000000000004,49.683 36.157000000000004,51.811 38.786,51.811 C 41.412,51.811 43.54,49.682 43.54,47.058 C 43.54,44.432 41.413,42.303 38.786,42.303" fill="#231F20"/>
	<path d="M 61.876,42.303 C 59.248,42.303 57.122,44.431999999999995 57.122,47.058 C 57.122,49.683 59.248,51.811 61.876,51.811 C 64.502,51.811 66.63,49.682 66.63,47.058 C 66.63,44.432 64.503,42.303 61.876,42.303" fill="#231F20"/>
	<path d="M 68.499,23.417 C 68.26599999999999,23.417 68.347,23.580000000000002 68.182,23.415000000000003 C 42.641,-2.131 26.846,34.89 12.843,31.551 L 12.843,31.554 C 12.676,31.480999999999998 12.493,31.436999999999998 12.299,31.436999999999998 C 11.546,31.436999999999998 10.942,32.044999999999995 10.942,32.793 C 10.942,33.28 11.208,33.687 11.591000000000001,33.926 C 11.589,33.933 11.586,33.939 11.581000000000001,33.946000000000005 C 16.805,37.104000000000006 30.880000000000003,42.303000000000004 37.428000000000004,42.303000000000004 C 49.239000000000004,42.303000000000004 59.667,36.386 65.91900000000001,27.355000000000004 C 65.51,28.876000000000005 65.272,30.466000000000005 65.272,32.11600000000001 C 65.272,42.24400000000001 73.483,50.452000000000005 83.607,50.452000000000005 C 84.024,50.452000000000005 84.432,50.419000000000004 84.845,50.391000000000005 C 84.287,34.152 79.129,23.417 68.499,23.417" fill="#231F20"/>
	<path d="M 77.449,52.235 C 77.46,52.546 77.497,52.852 77.497,53.167 C 77.497,68.147 65.31,80.333 50.332,80.333 C 35.352000000000004,80.333 23.168,68.145 23.168,53.167 C 23.168,49.419000000000004 23.932,45.844 25.311,42.592 C 23.579,42.051 21.841,41.448 20.16,40.821 C 18.6,44.631 17.734,48.798 17.734,53.167 C 17.734,71.173 32.326,85.765 50.332,85.765 C 68.334,85.765 82.931,71.173 82.931,53.167 C 82.931,53.159 82.92699999999999,53.147 82.92699999999999,53.138 C 81.028,53.075 79.192,52.768 77.449,52.235" fill="#231F20"/>
</svg>
