<?xml version="1.0" ?>
<svg xmlns="http://www.w3.org/2000/svg" xmlns:ev="http://www.w3.org/2001/xml-events" xmlns:xlink="http://www.w3.org/1999/xlink" baseProfile="full" enable-background="new 0 0 100 100" height="600px" version="1.1" viewBox="0 0 100 100" width="599px" x="0px" xml:space="preserve" y="0px">
	<defs/>
	<path clip-rule="evenodd" d="M 76.938,48.71 C 76.938,46.495000000000005 75.277,44.652 73.248,44.467 L 72.51,40.41 L 89.48700000000001,39.672 L 89.48700000000001,48.152 C 90.59100000000001,49.267 92.06800000000001,50.001 93.54400000000001,50.001 C 95.20100000000001,50.001 96.67800000000001,49.268 97.78200000000001,48.152 L 97.78200000000001,38.933 C 99.07700000000001,38.196 99.81000000000002,36.9 99.81000000000002,35.423 L 99.81000000000002,23.62 C 99.81000000000002,21.591 98.15800000000002,19.743000000000002 96.12400000000002,19.557000000000002 L 93.909,5.905 C 93.353,2.586 90.4,0.0 87.081,0.0 L 72.876,0.0 L 58.666000000000004,0.0 C 55.162000000000006,0.0 52.209,2.586 51.656000000000006,5.905 L 49.62800000000001,19.556 C 47.41400000000001,19.743000000000002 45.75300000000001,21.59 45.75300000000001,23.619 L 45.75300000000001,25.095 L 35.79600000000001,25.095 C 32.28600000000001,25.095 29.515000000000008,27.49 28.967000000000006,30.808999999999997 L 26.752000000000006,44.465999999999994 C 24.534000000000006,44.651999999999994 22.877000000000006,46.49399999999999 22.877000000000006,48.708999999999996 L 22.877000000000006,49.99999999999999 L 12.915000000000006,49.99999999999999 C 9.410000000000007,49.99999999999999 6.457000000000006,52.584999999999994 5.906000000000006,55.904999999999994 L 3.876,69.371 C 1.657,69.562 0.0,71.404 0.0,73.619 L 0.0,85.238 C 0.0,86.714 0.738,88.01 2.028,88.934 L 2.028,98.157 C 3.133,99.263 4.609,100.0 6.271,100.0 C 7.747,100.0 9.408999999999999,99.263 10.328,98.157 L 10.328,89.667 L 27.124,90.22500000000001 L 43.727999999999994,89.667 L 43.727999999999994,98.157 C 44.833,99.263 46.31,100.0 47.786,100.0 C 49.448,100.0 50.924,99.263 52.028,98.157 L 52.028,88.934 C 53.312999999999995,88.191 54.057,86.713 54.057,85.238 L 54.057,73.619 C 54.057,71.404 52.400000000000006,69.562 50.185,69.371 L 49.627,65.314 L 66.6,64.577 L 66.6,73.067 C 67.71499999999999,74.35799999999999 69.19099999999999,74.916 70.657,74.916 C 72.324,74.916 73.801,74.35799999999999 74.905,73.067 L 74.905,63.837999999999994 C 76.20100000000001,63.105 76.938,61.81099999999999 76.938,60.331999999999994 L 76.938,48.71 M 72.876,16.604 C 89.486,16.976 89.85300000000001,17.162 89.85300000000001,17.162 C 91.33000000000001,17.162 92.62,15.872 92.62,14.395 C 92.62,14.395 92.62,13.838 91.87700000000001,9.960999999999999 C 91.516,7.198999999999998 89.296,5.165999999999999 86.534,4.793999999999999 L 77.858,4.246999999999999 L 67.715,4.246999999999999 L 59.038000000000004,4.793999999999999 C 56.276,5.165999999999999 54.05800000000001,7.198999999999998 53.685,9.960999999999999 C 53.138000000000005,13.837999999999997 53.138000000000005,14.395 53.138000000000005,14.395 C 53.138000000000005,15.872 54.242000000000004,17.162 55.90500000000001,17.162 C 55.905,17.162 56.086,16.977 72.876,16.604 M 30.81,35.058 C 31.180999999999997,32.287 33.39,30.076999999999998 36.162,29.705 L 44.833,29.151999999999997 L 54.98,29.151999999999997 L 63.652,29.705 C 66.419,30.075999999999997 68.632,32.286 69.006,35.058 C 69.743,38.934 69.743,39.301 69.743,39.301 C 69.743,40.777 68.448,42.067 66.97099999999999,42.067 C 66.97099999999999,42.067 66.79099999999998,42.067 49.999999999999986,41.515 C 33.20899999999999,42.067 33.02299999999998,42.067 33.02299999999998,42.067 C 31.360999999999983,42.067 30.069999999999983,40.777 30.069999999999983,39.301 C 30.069999999999983,39.301 30.256999999999984,38.934000000000005 30.808999999999983,34.877 L 30.808999999999983,35.058 L 30.81,35.058 M 7.934,59.963 C 8.305,57.2 10.515,55.167 13.286000000000001,54.801 L 21.953000000000003,54.249 L 32.106,54.249 L 40.777,54.801 C 43.538000000000004,55.167 45.753,57.2 46.124,59.963 C 46.867000000000004,63.839 46.867000000000004,64.211 46.867000000000004,64.211 C 46.867000000000004,65.868 45.572,66.982 44.096000000000004,66.982 C 44.096000000000004,66.982 43.729000000000006,66.982 27.125000000000004,66.42 C 10.329000000000004,66.982 9.962000000000003,66.982 9.962000000000003,66.982 C 8.486000000000004,66.982 7.191000000000003,65.869 7.191000000000003,64.211 C 7.191,64.211 7.191,63.839 7.934,59.963" fill="#000000" fill-rule="evenodd"/>
</svg>
