<?xml version="1.0" ?>
<svg xmlns="http://www.w3.org/2000/svg" xmlns:ev="http://www.w3.org/2001/xml-events" xmlns:xlink="http://www.w3.org/1999/xlink" baseProfile="full" enable-background="new 0 0 100 100" height="181px" version="1.1" viewBox="0 0 100 100" width="600px" x="0px" xml:space="preserve" y="0px">
	<defs/>
	<path clip-rule="evenodd" d="M 0.265,48.027 C 5.407,48.027 10.288,45.65 13.457,41.564 C 16.622,37.342 21.371000000000002,34.964 26.778,34.964 C 32.586,34.964 37.997,37.997 41.162,43.01 L 41.162,43.146 C 43.01,46.179 46.301,48.027 49.995999999999995,48.027 C 53.562,48.027 56.852999999999994,46.308 58.833999999999996,43.146 L 58.70099999999999,43.146 C 61.873999999999995,37.997 67.15199999999999,35.089 73.219,35.089 C 78.365,35.089 83.24499999999999,37.47 86.41,41.563 C 89.709,45.649 94.589,48.155 99.735,48.155 L 100.0,48.155 L 100.0,65.035 L 98.02,65.035 L 1.848,65.035 L 0.0,65.035 L 0.0,48.027 L 0.265,48.027" fill-rule="evenodd"/>
</svg>
