<?xml version="1.0" ?>
<svg xmlns="http://www.w3.org/2000/svg" xmlns:ev="http://www.w3.org/2001/xml-events" xmlns:xlink="http://www.w3.org/1999/xlink" baseProfile="full" enable-background="new 0 0 100 100" height="600px" version="1.1" viewBox="0 0 100 100" width="555px" x="0px" xml:space="preserve" y="0px">
	<defs/>
	<path clip-rule="evenodd" d="M 42.902,74.042 C 42.902,84.607 40.139,96.02000000000001 39.964,96.886 C 39.625,97.574 38.929,97.574 38.236,97.405 C 37.717999999999996,97.225 33.909,95.503 32.873999999999995,95.324 C 32.007,94.975 32.181,94.109 32.007,93.592 L 29.581999999999997,80.964 L 31.657999999999998,80.964 C 30.447999999999997,73.525 28.022999999999996,63.149 28.022999999999996,57.442 C 28.022999999999996,51.726 29.754999999999995,46.019999999999996 29.929999999999996,45.323 C 30.103999999999996,44.635 31.313999999999997,42.564 32.873,44.288000000000004 C 34.601,46.18900000000001 37.193999999999996,47.923 39.445,48.440000000000005 C 39.963,48.61900000000001 40.655,48.789 40.655,48.789 L 40.655,52.254000000000005 C 40.657,57.788 42.902,63.665 42.902,74.042 M 65.918,94.805 C 65.918,94.805 60.38000000000001,65.049 60.211000000000006,63.84400000000001 C 59.867000000000004,62.45000000000001 59.17000000000001,59.86100000000001 59.17000000000001,54.67200000000001 C 59.17000000000001,42.03500000000001 66.09200000000001,33.21300000000001 66.441,32.86400000000001 C 66.61,32.69400000000001 67.651,31.48000000000001 69.035,33.21300000000001 C 70.589,35.46300000000001 75.09,41.348000000000006 76.817,43.07100000000001 C 78.37599999999999,44.634000000000015 81.657,47.921000000000014 86.851,51.90400000000001 C 85.641,53.10900000000001 85.815,54.494000000000014 85.815,54.494000000000014 C 86.503,54.494000000000014 87.374,54.494000000000014 88.235,54.32400000000001 C 88.235,54.32400000000001 88.06099999999999,53.628000000000014 88.41,53.10900000000001 C 88.932,53.467000000000006 90.66,54.84100000000001 92.045,55.02100000000001 L 84.606,99.48500000000001 L 86.503,99.99400000000001 L 93.946,55.182000000000016 C 95.326,55.02200000000002 96.197,53.97600000000001 96.197,53.280000000000015 C 96.197,52.414000000000016 95.848,51.72600000000001 94.812,51.039000000000016 C 93.602,50.173000000000016 87.2,45.503000000000014 82.17999999999999,39.09900000000002 C 78.89299999999999,34.60800000000002 74.91499999999999,28.374000000000017 72.14699999999999,17.479000000000017 C 71.79799999999999,15.916000000000016 72.835,15.398000000000017 73.18299999999999,15.398000000000017 C 73.705,15.398000000000017 74.39299999999999,15.567000000000018 75.089,15.567000000000018 C 80.97,15.567000000000018 82.876,10.728000000000018 82.876,8.307000000000018 C 82.876,5.877000000000018 80.795,0.0020000000000184315 74.218,0.0020000000000184315 C 68.33800000000001,0.0020000000000184315 65.918,5.708000000000019 65.918,8.307000000000018 C 65.918,10.031000000000018 65.396,10.379000000000019 64.533,10.727000000000018 C 62.462,11.932000000000018 57.447,13.834000000000017 51.214,21.27400000000002 C 43.251,30.445000000000018 42.046,41.18000000000002 42.046,41.18000000000002 C 42.046,41.18000000000002 41.524,40.831000000000024 41.006,40.65300000000002 C 37.371,39.61700000000002 35.125,35.11600000000002 35.125,32.18800000000002 C 35.125,29.231000000000016 38.237,21.971000000000018 38.237,21.801000000000016 C 38.406,21.453000000000017 38.755,20.934000000000015 39.965,20.756000000000014 C 45.676,20.238000000000014 47.06,14.193000000000016 47.06,12.451000000000015 C 47.06,10.728000000000014 45.502,4.325000000000015 38.581,4.325000000000015 C 31.660000000000004,4.325000000000015 30.28,10.728000000000016 30.28,12.630000000000015 C 30.28,14.362000000000014 30.629,15.050000000000015 30.629,15.916000000000015 C 30.629,16.613000000000014 29.933,17.301000000000016 29.235000000000003,17.987000000000016 C 16.09,29.586 3.636,50.858 3.806,80.963 L 9.861,80.963 L 8.476,99.993 L 19.725,99.993 C 21.802,99.993 21.458000000000002,98.27 20.421000000000003,97.922 C 18.858000000000004,97.225 15.571000000000003,96.02 15.054000000000002,95.851 C 14.532000000000002,95.502 14.018000000000002,94.975 14.532000000000002,93.591 L 17.823,80.963 L 22.146,80.963 L 28.375,99.993 L 53.809,99.993 C 54.327,99.993 55.019,99.654 55.363,98.948 C 55.537,98.27 54.502,97.743 54.153,97.573 C 53.809,97.573 50.866,96.35799999999999 50.518,96.01899999999999 C 50.344,95.85 49.657000000000004,95.50099999999999 49.835,94.457 C 50.005,93.591 51.902,84.77699999999999 51.902,74.56 C 53.117000000000004,77.676 55.019,82.34700000000001 56.229,86.849 C 57.618,91.34 59.002,97.574 59.171,98.779 C 59.515,100.164 60.556,99.994 60.556,99.994 L 71.46,99.994 C 71.97399999999999,99.994 72.66999999999999,99.485 72.66999999999999,98.779 C 72.66999999999999,97.923 71.79899999999999,97.574 71.79899999999999,97.574 C 71.79899999999999,97.574 67.303,96.17999999999999 66.61099999999999,96.02 C 65.918,95.851 65.918,95.323 65.918,94.805" fill="#000000" fill-rule="evenodd"/>
</svg>
