<?xml version="1.0" ?>
<svg xmlns="http://www.w3.org/2000/svg" xmlns:ev="http://www.w3.org/2001/xml-events" xmlns:xlink="http://www.w3.org/1999/xlink" baseProfile="full" enable-background="new 0 0 100 100" height="381px" version="1.1" viewBox="0 0 100 100" width="600px" x="0px" xml:space="preserve" y="0px">
	<defs/>
	<path clip-rule="evenodd" d="M 66.688,66.494 C 65.394,66.494 60.865,66.818 58.123000000000005,66.818 C 55.20400000000001,66.818 56.82900000000001,68.923 57.797000000000004,70.05799999999999 C 58.761,71.18499999999999 59.575,71.996 60.865,71.996 L 71.539,71.996 C 70.566,72.154 70.566,72.797 70.245,73.289 C 69.924,73.932 69.924,74.584 70.245,75.21900000000001 C 69.435,74.742 68.47200000000001,75.21900000000001 67.97800000000001,75.385 C 67.33500000000001,75.879 66.525,76.037 66.20400000000001,77.17200000000001 L 56.50300000000001,74.09200000000001 C 55.041000000000004,73.77400000000002 56.01500000000001,73.12300000000002 56.17300000000001,72.95500000000001 C 56.66600000000001,72.32200000000002 55.86100000000001,71.67000000000002 55.534000000000006,71.18500000000002 C 55.37200000000001,70.85900000000002 53.59400000000001,67.79600000000002 52.14000000000001,67.62800000000001 C 50.84600000000001,67.47000000000001 49.55200000000001,68.27100000000002 48.90500000000001,68.75500000000001 C 48.42100000000001,69.24700000000001 45.99100000000001,71.995 45.99100000000001,72.48 C 45.99100000000001,72.955 47.611000000000004,74.742 48.25800000000001,75.384 C 49.06000000000001,76.19500000000001 49.55300000000001,76.521 51.33100000000001,76.521 L 60.70700000000001,76.521 C 60.06000000000001,77.005 59.09100000000001,77.322 59.09100000000001,78.14 C 58.76100000000001,78.624 58.76100000000001,79.593 59.09100000000001,80.402 C 58.28500000000001,80.236 57.467000000000006,79.752 56.66600000000001,80.236 C 56.01500000000001,80.402 55.372000000000014,80.88600000000001 54.72800000000001,81.697 L 45.99100000000001,78.783 C 44.86000000000001,78.308 45.833000000000006,77.648 45.99100000000001,77.488 C 46.154,77.322 46.31700000000001,76.679 45.833000000000006,76.037 C 45.349000000000004,75.543 43.407000000000004,73.44900000000001 43.08200000000001,72.79700000000001 C 42.598000000000006,72.32200000000002 42.27100000000001,71.51200000000001 43.24000000000001,70.53500000000001 C 44.21800000000001,69.73200000000001 44.69700000000001,69.08200000000001 45.18500000000001,68.43 C 45.83200000000001,67.79700000000001 45.50200000000001,66.97900000000001 44.37100000000001,66.97900000000001 L 35.96400000000001,66.97900000000001 C 33.05900000000001,66.97900000000001 29.18100000000001,66.168 27.072000000000013,65.20900000000002 C 24.972000000000012,64.23000000000002 22.062000000000012,62.619000000000014 19.474000000000014,60.35700000000001 C 16.406000000000013,57.759000000000015 11.062000000000014,52.591000000000015 9.292000000000014,50.64700000000001 C 7.505000000000014,48.710000000000015 2.337000000000014,44.34300000000001 1.0430000000000135,43.366000000000014 C -0.9019999999999866,41.914000000000016 -0.08799999999998653,39.335000000000015 3.1430000000000136,40.14400000000001 C 7.025000000000014,40.945000000000014 12.035000000000013,42.56500000000001 15.111000000000013,42.56500000000001 C 18.33800000000001,42.56500000000001 21.415000000000013,42.73200000000001 27.397000000000013,41.42900000000001 C 31.763000000000012,40.62800000000001 39.524000000000015,38.85000000000001 41.46400000000001,38.19900000000001 C 43.405000000000015,37.71500000000001 46.637000000000015,36.74600000000001 49.22100000000001,36.588000000000015 C 51.97600000000001,36.253000000000014 56.66400000000001,36.746000000000016 58.92700000000001,36.746000000000016 C 61.02700000000001,36.746000000000016 67.00800000000001,36.09500000000001 68.14,35.619000000000014 C 69.271,35.29400000000001 70.081,34.96800000000001 69.434,33.18100000000001 C 68.628,31.24400000000001 67.176,27.85500000000001 68.47,24.13100000000001 C 69.764,20.257000000000012 73.479,18.30300000000001 76.714,18.30300000000001 C 82.37,18.30300000000001 85.117,22.67800000000001 86.248,26.235000000000014 C 86.73700000000001,27.855000000000015 87.05900000000001,29.960000000000015 89.325,31.087000000000014 C 91.425,32.22300000000001 97.72800000000001,35.12700000000002 98.706,35.62000000000001 C 99.674,36.25400000000001 100.312,37.23100000000001 99.837,38.04100000000001 C 99.349,38.68400000000001 98.543,38.85200000000001 97.57000000000001,38.51700000000001 C 96.59700000000001,38.20100000000001 90.778,36.42200000000001 89.325,35.92900000000001 C 87.543,35.29500000000001 85.28,35.29500000000001 83.827,35.77100000000001 C 82.37,36.254000000000005 81.56,36.589000000000006 80.42999999999999,36.589000000000006 C 79.13999999999999,36.589000000000006 78.80999999999999,37.07300000000001 78.80999999999999,38.041000000000004 C 78.80999999999999,38.852000000000004 79.62399999999998,41.915000000000006 79.78799999999998,42.408 C 80.10399999999998,42.892 83.01799999999999,47.259 83.50299999999999,48.227000000000004 C 83.98699999999998,49.354000000000006 85.28099999999999,51.94200000000001 85.28099999999999,54.856 C 85.28099999999999,60.19 80.75599999999999,65.69200000000001 72.02699999999999,66.168 C 69.436,66.334 67.336,66.334 66.688,66.494" fill="#000000" fill-rule="evenodd"/>
</svg>
