<?xml version="1.0" ?>
<svg xmlns="http://www.w3.org/2000/svg" xmlns:a="http://ns.adobe.com/AdobeSVGViewerExtensions/3.0/" xmlns:ev="http://www.w3.org/2001/xml-events" xmlns:graph="http://ns.adobe.com/Graphs/1.0/" xmlns:i="http://ns.adobe.com/AdobeIllustrator/10.0/" xmlns:x="http://ns.adobe.com/Extensibility/1.0/" xmlns:xlink="http://www.w3.org/1999/xlink" baseProfile="full" enable-background="new 0 0 141.73 141.73" height="274px" version="1.1" viewBox="0 0 141.73 141.73" width="600px" x="0px" xml:space="preserve" y="0px">
	<defs/>
	<path d="M 34.067,70.197 C 33.485,70.21000000000001 32.99,70.429 32.624,70.81400000000001 C 32.256,71.19900000000001 32.062000000000005,71.70500000000001 32.075,72.236 C 32.101000000000006,73.309 32.993,74.181 34.065000000000005,74.181 L 34.115,74.181 C 35.212,74.154 36.083,73.237 36.055,72.14 C 36.03,71.068 35.138,70.197 34.067,70.197 M 34.096,73.452 C 33.397,73.472 32.81699999999999,72.91799999999999 32.800999999999995,72.221 C 32.78399999999999,71.521 33.334999999999994,70.944 34.032,70.925 C 34.733,70.908 35.31099999999999,71.46 35.327999999999996,72.161 C 35.347,72.858 34.794,73.434 34.096,73.452" fill="#000000"/>
	<path d="M 115.456,69.691 L 121.669,58.42100000000001 L 99.51,68.056 C 93.453,64.24 87.772,61.242999999999995 82.385,58.994 C 79.947,55.358 77.298,55.409 77.298,55.409 C 75.94,51.650999999999996 72.118,50.481 68.324,50.575 C 62.296,46.28 58.626999999999995,51.843 57.458,54.092000000000006 C 54.122,54.30100000000001 50.885999999999996,54.88100000000001 47.739999999999995,55.870000000000005 C 39.095,58.593 31.114999999999995,64.211 23.261999999999993,72.46300000000001 L 22.952999999999992,72.784 L 23.27799999999999,73.093 C 35.15899999999999,84.427 46.42599999999999,90.10900000000001 59.056999999999995,89.714 C 60.538,92.076 64.357,96.64099999999999 69.84899999999999,92.307 C 73.64099999999999,92.21300000000001 77.40199999999999,90.85600000000001 78.57199999999999,87.035 C 78.57199999999999,87.035 81.67399999999999,86.94 84.02099999999999,82.198 C 88.78399999999999,79.70299999999999 93.80399999999999,76.597 99.16499999999999,72.842 L 122.166,81.848 L 115.456,69.691 M 68.77,58.998 C 69.10199999999999,58.65 69.551,58.452999999999996 70.032,58.443 C 70.032,58.443 70.032,58.443 70.033,58.443 C 71.059,58.443 71.84700000000001,59.213 71.874,60.196 C 71.899,61.19 71.112,62.019 70.118,62.044 L 70.07499999999999,62.044 C 69.088,62.044 68.29699999999998,61.272 68.27299999999998,60.285999999999994 C 68.261,59.804 68.437,59.346 68.77,58.998 M 34.142,75.254 L 34.065000000000005,75.25500000000001 C 32.388000000000005,75.25500000000001 31.042000000000005,73.941 31.002000000000006,72.263 C 30.981000000000005,71.444 31.281000000000006,70.66600000000001 31.847000000000005,70.07300000000001 C 32.411,69.48100000000001 33.173,69.143 33.992000000000004,69.12400000000001 C 33.992000000000004,69.12400000000001 33.993,69.12400000000001 33.99400000000001,69.12400000000001 C 35.71900000000001,69.12400000000001 37.09100000000001,70.465 37.129000000000005,72.11300000000001 C 37.171,73.802 35.831,75.211 34.142,75.254 M 44.665,86.736 L 43.608,86.384 C 45.797999999999995,72.447 45.797999999999995,72.447 42.9,58.479 L 43.940999999999995,58.088 C 46.88,72.251 46.885,72.602 44.665,86.736 M 48.5,88.011 L 47.412,87.744 C 49.609,72.191 49.626,72.473 46.632999999999996,56.89 L 47.69499999999999,56.509 C 50.722,72.275 50.722,72.275 48.5,88.011 M 54.842,59.888 C 53.86,59.888 53.068999999999996,59.117 53.043,58.132 C 53.032,57.650999999999996 53.208,57.193999999999996 53.539,56.846 C 53.870000000000005,56.498 54.319,56.299 54.800000000000004,56.288 C 54.800000000000004,56.288 54.800000000000004,56.288 54.801,56.288 C 55.831,56.288 56.620000000000005,57.059 56.644000000000005,58.043 C 56.668000000000006,59.036 55.88,59.863 54.88700000000001,59.887 L 54.842,59.888 M 57.755,65.801 C 57.54,66.027 57.249,66.155 56.935,66.161 L 56.905,66.161 C 56.271,66.161 55.76,65.661 55.741,65.022 C 55.728,64.37700000000001 56.238,63.84100000000001 56.878,63.82300000000001 C 56.879,63.82300000000001 56.879,63.82300000000001 56.879,63.82300000000001 C 57.541,63.82300000000001 58.065999999999995,64.33500000000001 58.079,64.965 C 58.087,65.275 57.972,65.573 57.755,65.801 M 60.858,71.126 L 60.796,71.12700000000001 C 59.464,71.126 58.396,70.08300000000001 58.364,68.751 C 58.346,68.10300000000001 58.583999999999996,67.485 59.031,67.01400000000001 C 59.48,66.543 60.086,66.275 60.738,66.26 C 60.738,66.26 60.739,66.26 60.74,66.26 C 62.129000000000005,66.26 63.196000000000005,67.301 63.231,68.631 C 63.262,69.975 62.198,71.094 60.858,71.126 M 61.963,64.771 L 61.866,64.772 C 59.881,64.772 58.226,63.15500000000001 58.177,61.16700000000001 C 58.127,59.13000000000001 59.744,57.43100000000001 61.783,57.38000000000001 C 61.784,57.38000000000001 61.784,57.38000000000001 61.785000000000004,57.38000000000001 C 63.898,57.38000000000001 65.52000000000001,58.96300000000001 65.571,60.98300000000001 C 65.619,63.023 64.0,64.723 61.963,64.771 M 72.135,70.845 C 71.33800000000001,71.684 70.262,72.16 69.105,72.189 L 68.99900000000001,72.19 C 66.66700000000002,72.19 64.72500000000001,70.294 64.67000000000002,67.964 C 64.64100000000002,66.806 65.06500000000001,65.707 65.86300000000001,64.868 C 66.66000000000001,64.032 67.73500000000001,63.556 68.89000000000001,63.528999999999996 C 68.89000000000001,63.528999999999996 68.89200000000001,63.528999999999996 68.89300000000001,63.528999999999996 C 71.36900000000001,63.528999999999996 73.26600000000002,65.383 73.32600000000002,67.75 C 73.355,68.909 72.931,70.007 72.135,70.845 M 76.025,70.754 L 75.995,70.75500000000001 C 75.36500000000001,70.75500000000001 74.843,70.242 74.828,69.61300000000001 C 74.81400000000001,68.96900000000001 75.324,68.43200000000002 75.96600000000001,68.41600000000001 L 75.968,68.41600000000001 C 76.62700000000001,68.41600000000001 77.15100000000001,68.92800000000001 77.165,69.558 C 77.18,70.2 76.67,70.738 76.025,70.754 M 77.193,66.929 L 77.136,66.93 C 75.80499999999999,66.93 74.735,65.887 74.701,64.555 C 74.66799999999999,63.212 75.73299999999999,62.09400000000001 77.07499999999999,62.062000000000005 L 77.076,62.062000000000005 C 78.46499999999999,62.062000000000005 79.532,63.104000000000006 79.568,64.434 C 79.601,65.778 78.536,66.897 77.193,66.929 M 81.716,70.616 L 81.672,70.616 C 80.703,70.616 79.893,69.827 79.869,68.857 C 79.857,68.373 80.034,67.916 80.367,67.567 C 80.699,67.219 81.14500000000001,67.023 81.625,67.01299999999999 C 81.625,67.01299999999999 81.625,67.01299999999999 81.626,67.01299999999999 C 82.656,67.01299999999999 83.44500000000001,67.78399999999999 83.47,68.76799999999999 C 83.495,69.76 82.708,70.589 81.716,70.616 M 84.781,66.743 L 84.74900000000001,66.744 C 84.11800000000001,66.744 83.596,66.23 83.584,65.598 C 83.56700000000001,64.96 84.077,64.423 84.721,64.405 C 85.38000000000001,64.405 85.90700000000001,64.917 85.921,65.546 C 85.935,66.192 85.424,66.728 84.781,66.743" fill="#000000"/>
	<path d="M 61.865,64.236 L 61.866,64.228 L 61.865,64.228 L 61.865,64.236" fill="#000000" points="61.865,64.236 61.866,64.228 61.865,64.228    "/>
	<path d="M 68.999,71.653 L 69.0,71.644 L 68.999,71.644 L 68.999,71.653" fill="#000000" points="68.999,71.653 69,71.644 68.999,71.644    "/>
</svg>
