<?xml version="1.0" ?>
<svg xmlns="http://www.w3.org/2000/svg" xmlns:ev="http://www.w3.org/2001/xml-events" xmlns:xlink="http://www.w3.org/1999/xlink" baseProfile="full" enable-background="new 0 8.808 100 82.382" height="495px" version="1.1" viewBox="0 8.808 100 82.382" width="600px" x="0px" xml:space="preserve" y="0px">
	<defs/>
	<path d="M 92.165,46.646 C 89.771,44.251 86.98100000000001,42.372 83.87400000000001,41.056 C 80.65100000000001,39.693999999999996 77.23400000000001,39.003 73.71300000000001,39.003 L 26.095,39.003 C 22.575,39.003 19.157,39.693 15.935999999999998,41.056 C 12.827999999999998,42.370999999999995 10.037999999999998,44.251 7.643999999999998,46.646 C 5.248999999999999,49.04 3.3699999999999983,51.83 2.0539999999999985,54.938 C 0.692,58.159 0.0,61.578 0.0,65.096 C 0.0,68.61800000000001 0.69,72.034 2.054,75.25500000000001 C 3.3689999999999998,78.36300000000001 5.249,81.15100000000001 7.644,83.548 C 10.038,85.94200000000001 12.828,87.821 15.936,89.136 C 19.158,90.497 22.575,91.191 26.095,91.191 C 30.209,91.191 34.309,90.208 37.953,88.34400000000001 C 40.400000000000006,87.09400000000001 42.653000000000006,85.444 44.598,83.49000000000001 L 55.208,83.49000000000001 C 57.153999999999996,85.444 59.408,87.09400000000001 61.854,88.34400000000001 C 65.499,90.20700000000001 69.599,91.191 73.711,91.191 C 77.232,91.191 80.649,90.49900000000001 83.871,89.136 C 86.978,87.822 89.767,85.942 92.161,83.548 C 94.556,81.152 96.437,78.363 97.751,75.255 C 99.113,72.03399999999999 99.804,68.61699999999999 99.804,65.09599999999999 C 99.804,61.575999999999986 99.11500000000001,58.15899999999999 97.751,54.93799999999999 C 96.44,51.831 94.56,49.041 92.165,46.646 M 73.713,84.348 C 67.41699999999999,84.348 61.824999999999996,81.323 58.312999999999995,76.647 L 41.495,76.647 C 37.983,81.32300000000001 32.391999999999996,84.348 26.095,84.348 C 15.463999999999999,84.348 6.846,75.731 6.846,65.098 C 6.846,54.467 15.465,45.848 26.095,45.848 L 73.713,45.848 C 84.34599999999999,45.848 92.96499999999999,54.467 92.96499999999999,65.098 C 92.963,75.73 84.346,84.348 73.713,84.348"/>
	<path d="M 35.72,61.247 L 29.945,61.247 L 29.945,55.474000000000004 C 29.945,54.412000000000006 29.083000000000002,53.54900000000001 28.021,53.54900000000001 L 24.171,53.54900000000001 C 23.108,53.54900000000001 22.246,54.41100000000001 22.246,55.474000000000004 L 22.246,61.247 L 16.471999999999998,61.247 C 15.408999999999997,61.247 14.547999999999998,62.109 14.547999999999998,63.173 L 14.547999999999998,67.023 C 14.547999999999998,68.086 15.409999999999998,68.949 16.471999999999998,68.949 L 22.246,68.949 L 22.246,74.722 C 22.246,75.786 23.107999999999997,76.64699999999999 24.171,76.64699999999999 L 28.021,76.64699999999999 C 29.084,76.64699999999999 29.945,75.78699999999999 29.945,74.722 L 29.945,68.949 L 35.72,68.949 C 36.783,68.949 37.644999999999996,68.087 37.644999999999996,67.023 L 37.644999999999996,63.172999999999995 C 37.645,62.109 36.782,61.247 35.72,61.247"/>
	<path d="M 64.052,26.377 L 82.43100000000001,26.377 C 92.11800000000001,26.377 100.00000000000001,18.496 100.00000000000001,8.808 L 93.15500000000002,8.808 C 93.15500000000002,14.722 88.34300000000002,19.533 82.43000000000002,19.533 L 64.052,19.533 C 54.364000000000004,19.533 46.483000000000004,27.414 46.483000000000004,37.102000000000004 L 53.327000000000005,37.102000000000004 C 53.326,31.189 58.139,26.377 64.052,26.377"/>
	<path cx="73.713" cy="72.797" d="M 69.86399999999999,72.797 A 3.849,3.849 0.0 1,0 77.56199999999998,72.797 A 3.8490000000000038,3.8490000000000038 0.0 1,0 69.86399999999998,72.797" r="3.849"/>
	<path cx="81.414" cy="65.097" d="M 77.56400000000001,65.097 A 3.850000000000001,3.850000000000001 0.0 1,0 85.26400000000001,65.097 A 3.850000000000001,3.850000000000001 0.0 1,0 77.56400000000001,65.097" r="3.85"/>
	<path cx="66.015" cy="65.097" d="M 62.165,65.097 A 3.85,3.85 0.0 1,0 69.865,65.097 A 3.850000000000001,3.850000000000001 0.0 1,0 62.16499999999999,65.097" r="3.85"/>
	<path cx="73.713" cy="57.398" d="M 69.86399999999999,57.398 A 3.849,3.849 0.0 1,0 77.56199999999998,57.398 A 3.8490000000000038,3.8490000000000038 0.0 1,0 69.86399999999998,57.398" r="3.849"/>
</svg>
