<?xml version="1.0" ?>
<svg xmlns="http://www.w3.org/2000/svg" xmlns:ev="http://www.w3.org/2001/xml-events" xmlns:xlink="http://www.w3.org/1999/xlink" baseProfile="full" enable-background="new 0 0 100 100" height="600px" version="1.1" viewBox="0 0 100 100" width="600px" x="0px" xml:space="preserve" y="0px">
	<defs/>
	<path clip-rule="evenodd" d="M 99.992,43.019 C 100.57000000000001,29.262 67.638,22.564 66.21100000000001,20.996 C 65.5,20.216 67.861,-0.015 50.0,0.0 C 32.139,-0.015 34.499,20.216 33.788,20.996 C 32.361,22.564 -0.5690000000000026,29.262 0.007999999999995566,43.019 C 0.5839999999999955,56.777 18.058999999999994,49.711 21.785999999999994,53.76 C 25.045999999999992,57.303999999999995 6.506999999999994,79.989 4.432999999999993,94.394 C 3.757,99.089 5.077,100.0 9.64,100.0 C 17.916,100.0 25.817,99.995 33.093,99.995 C 36.38,99.995 37.54900000000001,98.10600000000001 39.245000000000005,95.503 C 42.999,89.741 47.533,80.479 50.0,80.48 C 52.466,80.479 57.001,89.741 60.755,95.50200000000001 C 62.451,98.10600000000001 63.619,99.99400000000001 66.906,99.99400000000001 C 74.18100000000001,99.99400000000001 82.083,99.99900000000001 90.35900000000001,99.99900000000001 C 94.92200000000001,99.99900000000001 96.24300000000001,99.08800000000001 95.566,94.39300000000001 C 93.49300000000001,79.98800000000001 74.955,57.30300000000001 78.213,53.759000000000015 C 81.94,49.711 99.417,56.777 99.992,43.019" fill-rule="evenodd"/>
</svg>
