<?xml version="1.0" ?>
<svg xmlns="http://www.w3.org/2000/svg" xmlns:ev="http://www.w3.org/2001/xml-events" xmlns:xlink="http://www.w3.org/1999/xlink" baseProfile="full" enable-background="new 0 0 100 100" height="600px" version="1.1" viewBox="0 0 100 100" width="600px" x="0px" xml:space="preserve" y="0px">
	<defs/>
	<path d="M 37.545,50.915 C 37.545,50.915 40.288000000000004,51.937 41.756,51.384 C 40.154,43.609 39.15,33.905 39.15,33.905 L 38.129,33.533 C 38.129,33.533 26.604999999999997,38.891 24.814999999999998,47.866 C 26.455999999999996,48.804 29.124,49.032 29.124,49.032 C 29.593,61.462999999999994 33.257999999999996,75.306 57.647999999999996,72.023 C 58.586,72.023 57.647999999999996,70.616 57.647999999999996,70.616 C 41.39,71.057 37.131,55.857 37.545,50.915" fill="#000000"/>
	<path d="M 41.856,28.066 C 40.918,28.066 41.856,29.474 41.856,29.474 C 58.113,29.033 62.374,44.231 61.958,49.174 C 61.958,49.174 59.217,48.152 57.748,48.705 C 59.352,56.48 60.355,66.184 60.355,66.184 L 61.375,66.557 C 61.375,66.557 72.9,61.199000000000005 74.689,52.223 C 73.047,51.285 70.37899999999999,51.059 70.37899999999999,51.059 C 69.912,38.628 66.248,24.783 41.856,28.066" fill="#000000"/>
	<path d="M 95.0,48.045 L 89.51,48.045 C 88.497,27.683 72.113,11.3 51.752,10.287 L 51.752,4.797000000000001 C 51.752,3.6930000000000005 50.856,2.7970000000000006 49.752,2.7970000000000006 C 48.648,2.7970000000000006 47.752,3.6930000000000005 47.752,4.797000000000001 L 47.752,10.287 C 27.39,11.3 11.007,27.683 9.994,48.045 L 4.504,48.045 C 3.3999999999999995,48.045 2.5039999999999996,48.941 2.5039999999999996,50.045 C 2.5039999999999996,51.149 3.3999999999999995,52.045 4.504,52.045 L 9.994,52.045 C 11.007,72.407 27.39,88.79 47.752,89.803 L 47.752,95.29299999999999 C 47.752,96.39699999999999 48.648,97.29299999999999 49.752,97.29299999999999 C 50.856,97.29299999999999 51.752,96.39699999999999 51.752,95.29299999999999 L 51.752,89.803 C 72.113,88.79 88.497,72.407 89.51,52.045 L 95.0,52.045 C 96.104,52.045 97.0,51.149 97.0,50.045 C 97.0,48.941 96.104,48.045 95.0,48.045 M 51.752,85.795 L 51.752,84.029 C 51.752,82.925 50.856,82.029 49.752,82.029 C 48.648,82.029 47.752,82.925 47.752,84.029 L 47.752,85.795 C 29.596,84.79 15.007,70.2 14.002,52.045 L 15.767000000000001,52.045 C 16.871000000000002,52.045 17.767000000000003,51.149 17.767000000000003,50.045 C 17.767000000000003,48.941 16.871000000000002,48.045 15.767000000000003,48.045 L 14.002000000000002,48.045 C 15.006000000000002,29.889000000000003 29.596000000000004,15.300000000000004 47.752,14.295000000000002 L 47.752,16.060000000000002 C 47.752,17.164 48.648,18.060000000000002 49.752,18.060000000000002 C 50.856,18.060000000000002 51.752,17.164 51.752,16.060000000000002 L 51.752,14.295000000000002 C 69.90700000000001,15.299000000000001 84.497,29.889000000000003 85.50200000000001,48.045 L 83.736,48.045 C 82.632,48.045 81.736,48.941 81.736,50.045 C 81.736,51.149 82.632,52.045 83.736,52.045 L 85.50200000000001,52.045 C 84.497,70.2 69.907,84.79 51.752,85.795" fill="#000000"/>
</svg>
