<?xml version="1.0" ?>
<svg xmlns="http://www.w3.org/2000/svg" xmlns:ev="http://www.w3.org/2001/xml-events" xmlns:xlink="http://www.w3.org/1999/xlink" baseProfile="full" enable-background="new 0 0 100 100" height="600px" version="1.1" viewBox="0 0 100 100" width="595px" x="0px" xml:space="preserve" y="0px">
	<defs/>
	<path d="M 26.884,40.0 L 96.416,19.382 L 90.646,0.0070000000000014495 L 0.0,27.075 L 5.0,43.382999999999996 L 5.0,100.0 L 99.0,100.0 L 99.0,40.0 L 26.884,40.0 M 76.959,46.0 L 84.932,46.0 L 75.493,55.0 L 67.52199999999999,55.0 L 76.959,46.0 M 51.156,46.0 L 59.126999999999995,46.0 L 49.687999999999995,55.0 L 41.715999999999994,55.0 L 51.156,46.0 M 33.436,46.0 L 23.994,55.0 L 16.022,55.0 L 25.464999999999996,46.0 L 33.436,46.0 M 68.51,12.525 L 80.403,18.358 L 72.44000000000001,20.729 L 60.549000000000014,14.895999999999999 L 68.51,12.525 M 43.949,19.841 L 55.836,25.672 L 47.875,28.043 L 35.988,22.212 L 43.949,19.841 M 19.332,27.175 L 31.216,33.004 L 23.255000000000003,35.375 L 11.373000000000003,29.547 L 19.332,27.175 M 14.335,38.154 C 16.61,38.154 18.455000000000002,39.998000000000005 18.455000000000002,42.273 C 18.455000000000002,44.548 16.611,46.393 14.335,46.393 C 12.061,46.393 10.216000000000001,44.549 10.216000000000001,42.273 C 10.217,39.999 12.061,38.154 14.335,38.154 M 49.0,94.0 L 11.0,94.0 L 11.0,80.0 L 49.0,80.0 L 49.0,94.0 M 93.0,94.0 L 55.0,94.0 L 55.0,80.0 L 93.0,80.0 L 93.0,94.0 M 93.0,75.0 L 11.0,75.0 L 11.0,61.0 L 93.0,61.0 L 93.0,75.0"/>
</svg>
