<?xml version="1.0" ?>
<svg xmlns="http://www.w3.org/2000/svg" xmlns:ev="http://www.w3.org/2001/xml-events" xmlns:graph="http://ns.adobe.com/Graphs/1.0/" xmlns:i="http://ns.adobe.com/AdobeIllustrator/10.0/" xmlns:x="http://ns.adobe.com/Extensibility/1.0/" xmlns:xlink="http://www.w3.org/1999/xlink" baseProfile="full" enable-background="new 0 0 100 100" height="600px" version="1.1" viewBox="0 0 100 100" width="509px" x="0px" xml:space="preserve" y="0px">
	<defs/>
	<path d="M 29.442,70.867 L 37.254,72.031 C 37.254,72.031 37.753,79.01400000000001 33.266,84.0 L 29.607999999999997,80.427 L 22.542999999999996,81.009 C 22.542,81.009 29.442,77.019 29.442,70.867" fill="#000000"/>
	<path d="M 77.044,23.421 L 65.786,78.554 L 29.142000000000003,74.378 L 21.176000000000002,68.002 L 61.108000000000004,73.36099999999999 L 72.331,19.25099999999999 L 29.941000000000003,14.51399999999999 L 20.218000000000004,67.874 L 20.134000000000004,68.417 L 28.630000000000003,75.249 C 28.705000000000002,75.306 28.792,75.34299999999999 28.886000000000003,75.35199999999999 L 67.536,79.75899999999999 L 67.583,79.35799999999999 L 67.658,79.37299999999999 L 79.0,23.805 L 77.044,23.421 M 32.956,18.796 L 67.322,22.868 L 65.686,30.698 L 31.652000000000008,26.885 L 32.956,18.796" fill="#000000"/>
</svg>
