<?xml version="1.0" ?>
<svg xmlns="http://www.w3.org/2000/svg" xmlns:cc="http://creativecommons.org/ns#" xmlns:dc="http://purl.org/dc/elements/1.1/" xmlns:ev="http://www.w3.org/2001/xml-events" xmlns:inkscape="http://www.inkscape.org/namespaces/inkscape" xmlns:rdf="http://www.w3.org/1999/02/22-rdf-syntax-ns#" xmlns:sodipodi="http://sodipodi.sourceforge.net/DTD/sodipodi-0.dtd" xmlns:svg="http://www.w3.org/2000/svg" xmlns:xlink="http://www.w3.org/1999/xlink" baseProfile="full" enable-background="new 0 30 100 40" height="241px" version="1.1" viewBox="0 30 100 40" width="600px" x="0px" xml:space="preserve" y="0px">
	<defs/>
	<path d="M 36.045,30.0 C 32.04,30.0 28.433,32.358 24.531000000000002,34.307 C 18.589000000000002,38.042 13.889000000000003,41.471000000000004 5.3820000000000014,40.637 C 3.9870000000000014,40.826 2.3040000000000016,40.779 1.3770000000000016,41.029 C 0.45,41.277 0.0,41.431 0.0,42.333 C 0.0,44.037 1.326,44.876999999999995 3.942,44.876999999999995 L 19.462,44.876999999999995 C 23.609,44.876999999999995 26.966,45.31399999999999 29.474,46.117 C 31.982,46.919999999999995 34.216,47.791 36.233000000000004,48.793 C 38.25000000000001,49.794 40.284000000000006,50.732 42.303000000000004,51.533 C 44.294000000000004,52.324 46.83500000000001,52.697 49.938,52.708 C 49.981,52.708 50.019000000000005,52.708 50.063,52.708 C 53.166000000000004,52.696999999999996 55.708,52.324 57.698,51.533 C 59.717,50.732 61.751,49.794000000000004 63.768,48.793 C 65.785,47.791 68.018,46.92 70.526,46.117 C 73.03399999999999,45.314 76.39099999999999,44.876999999999995 80.539,44.876999999999995 L 96.059,44.876999999999995 C 98.675,44.876999999999995 100.001,44.035999999999994 100.001,42.333 C 100.001,41.431 99.552,41.277 98.62400000000001,41.028 C 97.697,40.778 96.01500000000001,40.824999999999996 94.61900000000001,40.635999999999996 C 86.11200000000001,41.47 81.412,38.041 75.47000000000001,34.306 C 71.566,32.358 67.96,30.0 63.955,30.0 C 61.952999999999996,30.0 58.503,30.337 55.945,32.088 C 53.586,33.811 55.943,32.073 52.879,34.698 C 52.141999999999996,35.811 51.204,36.421 50.062999999999995,36.46 C 50.020999999999994,36.46 49.98,36.461 49.937999999999995,36.46 C 48.79599999999999,36.421 47.858999999999995,35.811 47.12199999999999,34.698 C 44.05799999999999,32.073 46.41499999999999,33.811 44.05599999999999,32.088 C 41.497,30.337 38.047,30.0 36.045,30.0 M 6.571,47.618 C 4.717,47.618 3.755,48.021 3.755,48.923 C 3.755,49.424 4.102,49.737 4.756,49.837 C 5.41,49.937000000000005 8.01,50.881 12.015,52.969 C 18.022,57.145 19.611,58.094 24.03,61.322 C 28.035,63.410000000000004 30.826,65.137 36.045,67.587 C 40.802,69.3 44.028,69.99000000000001 49.938,70.001 C 49.984,70.001 50.017,70.001 50.063,70.001 C 55.973,69.99000000000001 59.199,69.30000000000001 63.956,67.587 C 69.175,65.138 71.96600000000001,63.410000000000004 75.971,61.322 C 80.39,58.094 81.979,57.145 87.986,52.969 C 91.992,50.881 94.59100000000001,49.937 95.24600000000001,49.837 C 95.90100000000001,49.73700000000001 96.24700000000001,49.425000000000004 96.24700000000001,48.923 C 96.24700000000001,48.021 95.28500000000001,47.618 93.43200000000002,47.618 L 83.98,47.618 C 78.634,47.618 74.566,48.021 71.839,48.923 C 69.112,49.825 66.872,50.807 65.018,51.859 C 63.164,52.912 61.147,53.893 59.074,54.796 C 57.022999999999996,55.689 54.03,56.156 50.062,56.166 C 50.016999999999996,56.166 49.980999999999995,56.166 49.937,56.166 C 45.968999999999994,56.156 42.977,55.687999999999995 40.926,54.796 C 38.852000000000004,53.894 36.835,52.912 34.981,51.859 C 33.127,50.807 30.886000000000003,49.825 28.160000000000004,48.923 C 25.434000000000005,48.021 21.366000000000003,47.618 16.020000000000003,47.618 L 6.571,47.618 L 6.571,47.618"/>
</svg>
