<?xml version="1.0" ?>
<svg xmlns="http://www.w3.org/2000/svg" xmlns:ev="http://www.w3.org/2001/xml-events" xmlns:xlink="http://www.w3.org/1999/xlink" baseProfile="full" enable-background="new 0 0 100 100" height="600px" version="1.1" viewBox="0 0 100 100" width="600px" x="0px" xml:space="preserve" y="0px">
	<defs/>
	<path d="M 33.105,72.577 C 34.54,72.577 35.974,72.029 37.068999999999996,70.934 L 61.119,46.884 L 61.086,56.221000000000004 C 61.075,59.318 63.574,62.0 66.671,62.0 C 66.679,62.0 66.685,62.0 66.69200000000001,62.0 C 69.777,62.0 72.28800000000001,59.351 72.298,56.263 L 72.383,33.396 C 72.383,33.389 72.38,33.344 72.38,33.337 C 72.38,33.330000000000005 72.383,33.304 72.383,33.297000000000004 C 72.383,33.101000000000006 72.342,32.909000000000006 72.32199999999999,32.720000000000006 C 72.30299999999998,32.538000000000004 72.30299999999998,32.35000000000001 72.26699999999998,32.175000000000004 C 72.22299999999998,31.973000000000003 72.14999999999998,31.781000000000006 72.08599999999998,31.588000000000005 C 72.03699999999998,31.434000000000005 72.00399999999999,31.271000000000004 71.94099999999999,31.122000000000003 C 71.859,30.927000000000003 71.74399999999999,30.750000000000004 71.64199999999998,30.567000000000004 C 71.56799999999998,30.436000000000003 71.50799999999998,30.296000000000003 71.42599999999999,30.171000000000003 C 71.30799999999999,29.999000000000002 71.16499999999999,29.848000000000003 71.02899999999998,29.688000000000002 C 70.93299999999998,29.574 70.84799999999998,29.448000000000004 70.74199999999998,29.340000000000003 C 70.59899999999998,29.197000000000003 70.43199999999997,29.080000000000002 70.27599999999998,28.951000000000004 C 70.15299999999998,28.853000000000005 70.04399999999998,28.744000000000003 69.91499999999998,28.656000000000002 C 69.75099999999998,28.545 69.56999999999998,28.465000000000003 69.39699999999998,28.371000000000002 C 69.25199999999998,28.295 69.11599999999997,28.201 68.96199999999997,28.137 C 68.78099999999998,28.061 68.58399999999997,28.018 68.39499999999998,27.958000000000002 C 68.23399999999998,27.910000000000004 68.08099999999999,27.844 67.91399999999999,27.811000000000003 C 67.71399999999998,27.770000000000003 67.50599999999999,27.920000000000005 67.30099999999999,27.900000000000002 C 67.13099999999999,27.883000000000003 66.96999999999998,28.000000000000004 66.79499999999999,28.000000000000004 C 66.78899999999999,28.000000000000004 66.78099999999999,28.000000000000004 66.77499999999999,28.000000000000004 C 66.767,28.000000000000004 66.761,28.000000000000004 66.75399999999999,28.000000000000004 L 43.96399999999999,27.931000000000004 C 40.86699999999999,27.943000000000005 38.367999999999995,30.390000000000004 38.37899999999999,33.486000000000004 C 38.392,36.576 40.899,39.0 43.987,39.0 C 43.994,39.0 44.001000000000005,39.0 44.009,39.0 L 53.191,38.961 L 29.142,63.01 C 26.953,65.199 26.953,68.748 29.142,70.93599999999999 C 30.237,72.03 31.672,72.577 33.105,72.577"/>
	<path d="M 90.0,15.606 C 90.0,12.51 87.49,10.0 84.394,10.0 L 15.606,10.0 C 12.51,10.0 10.0,12.51 10.0,15.606 L 10.0,84.393 C 10.0,87.49 12.51,90.0 15.606,90.0 L 84.393,90.0 C 87.49,90.0 90.0,87.49 90.0,84.394 L 90.0,15.606 M 79.0,79.0 L 21.0,79.0 L 21.0,21.0 L 79.0,21.0 L 79.0,79.0"/>
</svg>
