<?xml version="1.0" ?>
<svg xmlns="http://www.w3.org/2000/svg" xmlns:ev="http://www.w3.org/2001/xml-events" xmlns:xlink="http://www.w3.org/1999/xlink" baseProfile="full" enable-background="new 0 0 100 100" height="600px" version="1.1" viewBox="0 0 100 100" width="599px" x="0px" xml:space="preserve" y="0px">
	<defs/>
	<path d="M 84.922,15.539 L 82.87899999999999,15.539 C 82.87899999999999,12.443 80.36899999999999,9.933 77.27399999999999,9.933 C 74.17899999999999,9.933 71.66699999999999,12.443 71.66699999999999,15.539 L 64.65899999999999,15.539 C 64.65899999999999,12.443 62.148999999999994,9.933 59.05399999999999,9.933 C 55.95899999999998,9.933 53.44699999999999,12.443 53.44699999999999,15.539 L 47.139999999999986,15.539 C 47.139999999999986,12.443 44.62999999999999,9.933 41.53499999999998,9.933 C 38.43699999999998,9.933 35.92799999999998,12.443 35.92799999999998,15.539 L 29.62099999999998,15.539 C 29.62099999999998,12.443 27.10899999999998,9.933 24.01399999999998,9.933 C 20.918999999999983,9.933 18.40899999999998,12.443 18.40899999999998,15.539 L 16.02,15.539 C 12.924,15.539 10.415,18.049 10.415,21.145 L 10.415,84.595 C 10.415,87.691 12.924999999999999,90.201 16.02,90.201 L 84.922,90.201 C 88.018,90.201 90.529,87.69 90.529,84.595 L 90.529,21.144999999999996 C 90.529,18.049 88.018,15.539 84.922,15.539 M 79.316,78.989 L 21.627,78.989 L 21.627,43.571 L 79.316,43.571 L 79.316,78.989"/>
</svg>
