<?xml version="1.0" ?>
<svg xmlns="http://www.w3.org/2000/svg" xmlns:ev="http://www.w3.org/2001/xml-events" xmlns:xlink="http://www.w3.org/1999/xlink" baseProfile="full" enable-background="new 0 0 100 100" height="600px" version="1.1" viewBox="0 0 100 100" width="518px" x="0px" xml:space="preserve" y="0px">
	<defs/>
	<path d="M 85.0,15.614 C 85.0,12.514 82.487,10.0 79.387,10.0 L 21.613,10.0 C 18.513,10.0 16.0,12.514 16.0,15.614 L 16.0,84.385 C 16.0,87.486 18.513,90.0 21.613,90.0 L 79.386,90.0 C 82.487,90.0 85.0,87.486 85.0,84.386 L 85.0,15.614 M 74.0,79.0 L 27.0,79.0 L 27.0,21.0 L 74.0,21.0 L 74.0,79.0"/>
	<path d="M 36.523,55.0 L 64.596,55.0 C 67.697,55.0 70.21000000000001,52.6 70.21000000000001,49.5 C 70.21000000000001,46.4 67.697,44.0 64.597,44.0 L 36.523,44.0 C 33.422000000000004,44.0 30.909000000000002,46.4 30.909000000000002,49.5 C 30.909000000000002,52.6 33.423,55.0 36.523,55.0"/>
	<path d="M 36.523,72.0 L 64.596,72.0 C 67.697,72.0 70.21000000000001,69.6 70.21000000000001,66.5 C 70.21000000000001,63.400000000000006 67.697,61.0 64.597,61.0 L 36.523,61.0 C 33.422000000000004,61.0 30.909000000000002,63.4 30.909000000000002,66.5 C 30.909000000000002,69.6 33.423,72.0 36.523,72.0"/>
	<path d="M 36.523,38.0 L 64.596,38.0 C 67.697,38.0 70.21000000000001,35.601 70.21000000000001,32.5 C 70.21000000000001,29.399 67.697,27.0 64.597,27.0 L 36.523,27.0 C 33.422000000000004,27.0 30.909000000000002,29.399 30.909000000000002,32.5 C 30.909000000000002,35.601 33.423,38.0 36.523,38.0"/>
</svg>
