<?xml version="1.0" ?>
<svg xmlns="http://www.w3.org/2000/svg" xmlns:ev="http://www.w3.org/2001/xml-events" xmlns:xlink="http://www.w3.org/1999/xlink" baseProfile="full" enable-background="new 0.164 14.555 100 70.341" height="423px" version="1.1" viewBox="0.164 14.555 100 70.341" width="600px" x="0px" xml:space="preserve" y="0px">
	<defs/>
	<path d="M 87.215,35.185 C 89.038,33.068000000000005 90.15100000000001,30.32 90.15100000000001,27.313000000000002 C 90.15100000000001,27.199 90.12700000000001,27.094 90.117,26.981 C 90.129,26.869000000000003 90.15100000000001,26.756 90.15100000000001,26.639000000000003 C 90.15100000000001,19.976000000000003 84.73200000000001,14.555000000000003 78.06700000000001,14.555000000000003 C 77.96700000000001,14.555000000000003 77.873,14.578000000000003 77.77300000000001,14.585000000000003 C 77.674,14.577000000000004 77.58100000000002,14.555000000000003 77.47900000000001,14.555000000000003 C 70.81600000000002,14.555000000000003 65.39500000000001,19.976000000000003 65.39500000000001,26.639000000000003 C 65.39500000000001,26.754 65.41900000000001,26.864000000000004 65.43,26.973000000000003 C 65.417,27.088 65.39500000000001,27.195000000000004 65.39500000000001,27.312 C 65.39500000000001,30.524 66.662,33.437 68.71100000000001,35.603 C 67.87800000000001,36.001000000000005 67.07700000000001,36.461 66.31000000000002,36.961 C 64.34800000000001,30.07 58.01100000000002,25.005 50.49800000000002,25.005 C 50.362000000000016,25.005 50.231000000000016,25.034 50.097000000000016,25.044999999999998 C 49.963000000000015,25.034999999999997 49.83600000000001,25.005 49.69900000000001,25.005 C 42.213000000000015,25.005 35.89100000000001,30.037 33.90700000000001,36.891999999999996 C 32.88900000000001,36.236 31.821000000000012,35.657999999999994 30.69400000000001,35.184 C 32.51700000000001,33.067 33.62900000000001,30.318999999999996 33.62900000000001,27.311999999999998 C 33.62900000000001,27.197999999999997 33.60500000000001,27.092999999999996 33.59500000000001,26.979999999999997 C 33.606000000000016,26.868 33.62900000000001,26.754999999999995 33.62900000000001,26.637999999999998 C 33.62900000000001,19.974999999999998 28.208000000000013,14.553999999999998 21.546000000000014,14.553999999999998 C 21.443000000000012,14.553999999999998 21.350000000000012,14.576999999999998 21.251000000000012,14.583999999999998 C 21.15200000000001,14.575999999999999 21.05800000000001,14.553999999999998 20.95900000000001,14.553999999999998 C 14.29600000000001,14.553999999999998 8.87500000000001,19.974999999999998 8.87500000000001,26.637999999999998 C 8.87500000000001,26.752999999999997 8.900000000000011,26.863 8.90700000000001,26.971999999999998 C 8.896000000000011,27.086999999999996 8.87500000000001,27.194 8.87500000000001,27.310999999999996 C 8.87500000000001,30.522999999999996 10.14200000000001,33.43599999999999 12.18900000000001,35.602 C 5.083,39.007 0.164,46.269 0.164,54.656 C 0.164,56.805 1.908,58.549 4.058,58.549 C 6.208,58.549 7.951,56.806 7.951,54.656 C 7.951,47.305 13.933,41.324 21.285,41.324 C 21.497,41.324 21.701,41.297999999999995 21.902,41.262 C 22.105,41.296 22.337,41.324 22.548000000000002,41.324 C 29.902,41.324 35.911,47.305 35.911,54.656 C 35.911,54.659 35.911,54.662 35.911,54.664 C 28.251,59.631 21.421,68.94500000000001 21.421,79.59700000000001 C 21.421,82.525 23.783,84.89600000000002 26.708,84.89600000000002 C 29.634999999999998,84.89600000000002 32.001,82.52500000000002 32.001,79.59700000000001 C 32.001,69.59 40.141,61.44700000000001 50.150999999999996,61.44700000000001 C 50.44,61.44700000000001 50.714999999999996,61.40700000000001 50.989,61.36200000000001 C 51.266,61.40700000000001 51.544,61.44700000000001 51.831999999999994,61.44700000000001 C 61.840999999999994,61.44700000000001 69.98499999999999,69.59100000000001 69.98499999999999,79.59700000000001 C 69.98499999999999,82.525 72.35599999999998,84.89600000000002 75.28199999999998,84.89600000000002 C 78.20999999999998,84.89600000000002 80.57999999999998,82.52500000000002 80.57999999999998,79.59700000000001 C 80.57999999999998,68.30100000000002 74.01899999999998,58.51200000000001 64.51499999999999,53.81700000000001 C 64.95299999999999,46.858000000000004 70.74099999999999,41.325 77.80999999999999,41.325 C 78.01999999999998,41.325 78.22399999999999,41.299 78.42599999999999,41.263000000000005 C 78.62899999999999,41.297000000000004 78.832,41.325 79.04399999999998,41.325 C 86.39799999999998,41.325 92.37899999999999,47.308 92.37899999999999,54.657000000000004 C 92.37899999999999,56.806000000000004 94.12199999999999,58.550000000000004 96.27199999999999,58.550000000000004 C 98.422,58.550000000000004 100.16499999999999,56.807 100.16499999999999,54.657000000000004 C 100.165,45.909 94.815,38.384 87.215,35.185 M 25.839,27.312 C 25.839,29.683 23.91,31.614 21.541999999999998,31.614 C 21.439999999999998,31.614 21.346999999999998,31.637 21.247999999999998,31.64 C 21.148999999999997,31.635 21.054999999999996,31.614 20.955999999999996,31.614 C 18.584999999999997,31.614 16.656999999999996,29.683 16.656999999999996,27.312 C 16.656999999999996,27.198 16.631999999999998,27.09 16.622999999999998,26.978 C 16.633,26.865000000000002 16.656999999999996,26.755000000000003 16.656999999999996,26.638 C 16.656999999999996,24.267000000000003 18.584999999999997,22.339000000000002 20.955999999999996,22.339000000000002 C 21.054999999999996,22.339000000000002 21.149999999999995,22.316000000000003 21.247999999999998,22.310000000000002 C 21.346999999999998,22.318 21.439999999999998,22.339000000000002 21.541999999999998,22.339000000000002 C 23.912999999999997,22.339000000000002 25.839999999999996,24.267000000000003 25.839999999999996,26.638 C 25.839999999999996,26.753 25.865999999999996,26.860000000000003 25.873999999999995,26.970000000000002 C 25.866,27.086 25.839,27.195 25.839,27.312 M 56.348,42.374 C 56.348,45.601 53.724,48.229 50.497,48.229 C 50.36,48.229 50.23,48.259 50.096,48.266 C 49.961999999999996,48.259 49.833999999999996,48.229 49.69499999999999,48.229 C 46.468999999999994,48.229 43.843999999999994,45.601 43.843999999999994,42.373999999999995 C 43.843999999999994,42.21999999999999 43.812,42.07299999999999 43.79899999999999,41.92099999999999 C 43.812999999999995,41.76499999999999 43.84599999999999,41.614999999999995 43.84599999999999,41.45799999999999 C 43.84599999999999,38.23199999999999 46.46999999999999,35.605999999999995 49.69799999999999,35.605999999999995 C 49.834999999999994,35.605999999999995 49.961999999999996,35.57699999999999 50.096,35.565999999999995 C 50.23,35.577 50.36,35.605999999999995 50.497,35.605999999999995 C 53.724,35.605999999999995 56.35,38.23199999999999 56.35,41.458 C 56.35,41.613 56.382,41.757 56.395,41.912 C 56.382,42.065 56.348,42.214 56.348,42.374 M 82.365,27.312 C 82.365,29.683 80.43599999999999,31.614 78.06599999999999,31.614 C 77.966,31.614 77.87199999999999,31.637 77.77199999999999,31.64 C 77.67299999999999,31.635 77.58,31.614 77.478,31.614 C 75.109,31.614 73.17899999999999,29.683 73.17899999999999,27.312 C 73.17899999999999,27.198 73.15699999999998,27.09 73.14599999999999,26.978 C 73.15799999999999,26.865000000000002 73.18099999999998,26.755000000000003 73.18099999999998,26.638 C 73.18099999999998,24.267000000000003 75.10899999999998,22.339000000000002 77.47799999999998,22.339000000000002 C 77.57999999999998,22.339000000000002 77.67299999999997,22.316000000000003 77.77199999999998,22.310000000000002 C 77.87199999999997,22.318 77.96599999999998,22.339000000000002 78.06599999999997,22.339000000000002 C 80.43599999999998,22.339000000000002 82.36499999999998,24.267000000000003 82.36499999999998,26.638 C 82.36499999999998,26.753 82.38999999999999,26.860000000000003 82.39899999999999,26.970000000000002 C 82.388,27.086 82.365,27.195 82.365,27.312"/>
</svg>
