<?xml version="1.0" ?>
<svg xmlns="http://www.w3.org/2000/svg" xmlns:ev="http://www.w3.org/2001/xml-events" xmlns:xlink="http://www.w3.org/1999/xlink" baseProfile="full" enable-background="new 0.334 0 99.331 100" height="600px" version="1.1" viewBox="0.334 0 99.331 100" width="596px" x="0px" xml:space="preserve" y="0px">
	<defs/>
	<path d="M 83.811,34.049 C 77.47600000000001,34.049 72.024,37.894999999999996 69.48500000000001,43.158 L 36.125000000000014,43.158 L 36.125000000000014,25.263 L 44.90700000000001,25.263 C 47.35300000000001,30.526000000000003 52.93300000000001,34.262 59.43700000000001,34.262 C 68.19300000000001,34.262 75.29200000000002,27.016 75.29200000000002,18.262999999999998 C 75.29200000000002,9.504999999999999 68.19400000000002,2.258999999999997 59.43700000000001,2.258999999999997 C 53.10100000000001,2.258999999999997 47.65000000000001,6.315999999999997 45.11100000000001,11.578999999999997 L 36.12600000000001,11.578999999999997 L 36.12600000000001,5.057 C 36.125,2.263 33.862,0.0 31.07,0.0 L 5.391,0.0 C 2.599,0.0 0.334,2.263 0.334,5.057 L 0.334,94.944 C 0.334,97.736 2.597,100.0 5.39,100.0 L 31.07,100.0 C 33.86,100.0 36.124,97.736 36.124,94.94200000000001 L 36.124,89.47300000000001 L 48.801,89.47300000000001 C 51.247,93.68400000000001 56.827,98.36500000000001 63.331,98.36500000000001 C 72.086,98.36500000000001 79.185,90.85700000000001 79.185,82.10400000000001 C 79.185,73.34600000000002 72.08800000000001,65.83600000000001 63.331,65.83600000000001 C 56.995000000000005,65.83600000000001 51.544000000000004,70.525 49.005,74.73600000000002 L 36.124,74.73600000000002 L 36.124,56.842 L 69.28200000000001,56.842 C 71.72900000000001,62.106 77.308,66.051 83.811,66.051 C 92.56700000000001,66.051 99.665,58.806000000000004 99.665,50.051 C 99.665,41.295 92.567,34.049 83.811,34.049"/>
</svg>
