<?xml version="1.0" ?>
<svg xmlns="http://www.w3.org/2000/svg" xmlns:ev="http://www.w3.org/2001/xml-events" xmlns:xlink="http://www.w3.org/1999/xlink" baseProfile="full" enable-background="new 23.578 0 52.845 100" height="600px" version="1.1" viewBox="23.578 0 52.845 100" width="318px" x="0px" xml:space="preserve" y="0px">
	<defs/>
	<path d="M 67.671,100.0 L 32.329,100.0 C 27.503,100.0 23.578000000000003,96.075 23.578000000000003,91.248 C 23.578000000000003,87.486 25.963,84.27000000000001 29.301000000000002,83.036 L 29.301000000000002,26.423 C 29.301000000000002,18.281 34.048,10.983999999999998 41.32,7.630999999999997 C 41.871,3.333 45.554,0.0 50.0,0.0 C 54.445,0.0 58.131,3.332 58.681,7.632 C 65.952,10.984 70.701,18.281 70.701,26.424 L 70.701,83.037 C 74.038,84.271 76.42399999999999,87.488 76.42399999999999,91.248 C 76.423,96.075 72.498,100.0 67.671,100.0 M 32.329,88.555 C 30.844,88.555 29.635,89.763 29.635,91.248 C 29.635,92.73400000000001 30.843,93.94200000000001 32.329,93.94200000000001 L 67.67099999999999,93.94200000000001 C 69.15599999999999,93.94200000000001 70.36399999999999,92.73400000000001 70.36399999999999,91.248 C 70.36399999999999,89.763 69.15599999999999,88.555 67.67099999999999,88.555 L 64.642,88.555 L 64.642,26.423 C 64.642,20.131999999999998 60.635999999999996,14.556999999999999 54.67399999999999,12.547999999999998 L 52.24199999999999,11.729999999999999 L 52.65199999999999,9.194999999999999 C 52.679999999999986,9.016999999999998 52.692999999999984,8.873 52.692999999999984,8.752999999999998 C 52.692999999999984,7.266999999999999 51.484999999999985,6.057999999999998 49.999999999999986,6.057999999999998 C 48.514999999999986,6.057999999999998 47.30599999999998,7.265999999999998 47.30599999999998,8.752999999999998 C 47.30599999999998,8.874999999999998 47.319999999999986,9.017999999999999 47.347999999999985,9.190999999999999 L 47.761999999999986,11.729 L 45.32499999999999,12.550999999999998 C 39.362999999999985,14.559999999999999 35.35799999999999,20.134999999999998 35.35799999999999,26.426 L 35.35799999999999,88.557 L 32.32899999999999,88.557 L 32.32899999999999,88.555 L 32.329,88.555"/>
	<path d="M 46.718,68.833 C 45.045,68.833 43.688,67.477 43.688,65.804 L 43.688,49.984 C 43.688,48.311 45.045,46.954 46.718,46.954 C 48.391000000000005,46.954 49.748000000000005,48.311 49.748000000000005,49.984 L 49.748000000000005,65.803 C 49.747,67.477 48.391,68.833 46.718,68.833"/>
	<path d="M 46.718,43.084 C 45.045,43.084 43.688,41.727000000000004 43.688,40.054 L 43.688,26.423 C 43.688,24.750999999999998 45.045,23.394 46.718,23.394 C 48.391000000000005,23.394 49.748000000000005,24.75 49.748000000000005,26.423 L 49.748000000000005,40.054 C 49.747,41.728 48.391,43.084 46.718,43.084"/>
</svg>
