<?xml version="1.0" ?>
<svg xmlns="http://www.w3.org/2000/svg" xmlns:ev="http://www.w3.org/2001/xml-events" xmlns:xlink="http://www.w3.org/1999/xlink" baseProfile="full" enable-background="new 0 0 100 100" height="600px" version="1.1" viewBox="0 0 100 100" width="546px" x="0px" xml:space="preserve" y="0px">
	<defs/>
	<path clip-rule="evenodd" d="M 17.305,27.079 L 27.079,5.27 C 27.984,2.9959999999999996 32.305,-1.0930000000000009 38.208,0.27199999999999935 L 61.150999999999996,5.494999999999999 L 83.872,10.721 C 89.776,12.311 91.821,17.765 91.821,20.262999999999998 L 90.90899999999999,44.117999999999995 C 93.63399999999999,45.251999999999995 96.136,48.88799999999999 95.222,52.06699999999999 L 90.90899999999999,70.92399999999999 C 90.454,73.648 87.273,75.466 85.91799999999999,75.91499999999999 L 82.732,89.77499999999999 C 80.458,91.136 78.419,92.04799999999999 75.917,91.371 C 73.421,90.91499999999999 70.919,88.869 69.785,86.823 L 72.965,73.41999999999999 L 60.92400000000001,71.60199999999999 L 46.614000000000004,68.42199999999998 L 32.304,65.01499999999999 L 20.718000000000004,61.377999999999986 L 17.532000000000004,74.78199999999998 C 15.715000000000003,76.14899999999999 12.762000000000004,76.82699999999998 10.266000000000004,76.14899999999999 C 7.764000000000004,75.69299999999998 6.174000000000004,73.87599999999999 4.584000000000003,71.82999999999998 L 7.764000000000003,57.97099999999998 C 6.852000000000003,56.83699999999998 5.040000000000003,53.878999999999984 5.496000000000003,51.15499999999998 L 10.031000000000002,32.29799999999998 C 10.724,29.119 14.354,27.079 17.305,27.079 M 25.254,19.807 L 27.984,13.218999999999998 C 31.164,6.403999999999997 38.885000000000005,7.084999999999997 46.836,8.902999999999999 L 59.562,11.857999999999999 L 72.509,14.809999999999999 C 80.237,16.628 87.508,19.354999999999997 87.508,26.851999999999997 L 87.05199999999999,33.888999999999996 C 86.818,38.208999999999996 84.094,39.114999999999995 79.78099999999999,37.980999999999995 L 55.24199999999999,31.165999999999993 L 30.02499999999999,26.395999999999994 C 25.488,25.483 23.665,23.671 25.254,19.807" fill-rule="evenodd"/>
	<path clip-rule="evenodd" d="M 44.568,76.372 L 4.586,76.372 L 4.586,100.0 L 94.768,100.0 L 94.768,91.595 L 44.568,91.595 L 44.568,76.372" fill-rule="evenodd" points="44.568,76.372 4.586,76.372 4.586,100 94.768,100 94.768,91.595    44.568,91.595  "/>
</svg>
