<?xml version="1.0" ?>
<svg xmlns="http://www.w3.org/2000/svg" xmlns:ev="http://www.w3.org/2001/xml-events" xmlns:xlink="http://www.w3.org/1999/xlink" baseProfile="full" enable-background="new 0 0 100 100" height="600px" version="1.1" viewBox="0 0 100 100" width="600px" x="0px" xml:space="preserve" y="0px">
	<defs/>
	<path d="M 77.745,49.936 L 74.745,49.936 L 74.745,45.828 C 74.745,42.258 72.01,41.509 69.714,41.509 L 61.657,41.509 C 59.162,41.509 57.022999999999996,40.271 55.788999999999994,38.112 C 54.80799999999999,36.395 54.52199999999999,34.284 54.934999999999995,32.367000000000004 C 52.263999999999996,32.05200000000001 50.473,30.887000000000004 49.373,29.849000000000004 C 47.593999999999994,28.171000000000003 46.574,25.829000000000004 46.574,23.422000000000004 C 46.574,18.892000000000003 49.659,14.305000000000003 55.555,14.305000000000003 L 55.555,17.305000000000003 C 50.824,17.305000000000003 49.574,21.306000000000004 49.574,23.422000000000004 C 49.574,25.006000000000004 50.251,26.553000000000004 51.431,27.666000000000004 C 52.796,28.954000000000004 54.717999999999996,29.564000000000004 56.986999999999995,29.431000000000004 C 57.541999999999994,29.397000000000006 58.065999999999995,29.673000000000005 58.355,30.146000000000004 C 58.644,30.619000000000003 58.648999999999994,31.212000000000003 58.367999999999995,31.689000000000004 C 57.532999999999994,33.107000000000006 57.544,35.136 58.394,36.623000000000005 C 58.885999999999996,37.483000000000004 59.851,38.50900000000001 61.658,38.50900000000001 L 69.715,38.50900000000001 C 74.669,38.50900000000001 77.74600000000001,41.31400000000001 77.74600000000001,45.82800000000001 L 77.74600000000001,49.936 L 77.745,49.936"/>
	<path d="M 82.418,49.936 L 79.417,49.936 L 79.417,44.42 C 79.417,39.547000000000004 76.068,34.368 69.862,34.368 L 65.098,34.368 C 64.535,34.368 64.018,34.052 63.762,33.550000000000004 C 63.506,33.048 63.553,32.44500000000001 63.884,31.988000000000003 C 64.97,30.490000000000002 65.618,28.653000000000002 65.618,27.073000000000004 C 65.618,23.105000000000004 62.471,20.225000000000005 58.135,20.225000000000005 L 58.135,17.225000000000005 C 64.112,17.225000000000005 68.618,21.458000000000006 68.618,27.073000000000008 C 68.618,28.47200000000001 68.285,29.956000000000007 67.67099999999999,31.36800000000001 L 69.86099999999999,31.36800000000001 C 77.71999999999998,31.36800000000001 82.41699999999999,38.00400000000001 82.41699999999999,44.42000000000001 L 82.41699999999999,49.936 L 82.418,49.936"/>
	<path d="M 85.355,14.645 C 75.911,5.201 63.355,0.0 50.0,0.0 C 36.645,0.0 24.088,5.201 14.645,14.645 C 5.201,24.088 0.0,36.645 0.0,50.0 C 0.0,63.356 5.201,75.912 14.645,85.35499999999999 C 24.088,94.799 36.645,100.0 50.0,100.0 C 63.355,100.0 75.911,94.8 85.35499999999999,85.355 C 94.799,75.912 100.0,63.356 100.0,50.0 C 100.0,36.645 94.799,24.088 85.355,14.645 M 88.852,50.0 C 88.852,58.547 86.07600000000001,66.457 81.381,72.878 L 27.121,18.62 C 33.543,13.925 41.453,11.148 50.0,11.148 C 71.423,11.148 88.852,28.577 88.852,50.0 M 11.147,50.0 C 11.147,41.311 14.015,33.278999999999996 18.853,26.8 L 73.2,81.146 C 66.721,85.984 58.68900000000001,88.852 50.0,88.852 C 28.577,88.852 11.147,71.423 11.147,50.0"/>
	<path d="M 77.745,60.476 L 74.745,60.476 L 74.745,51.416 L 77.745,51.416 L 77.745,60.476 L 77.745,60.476" points="77.745,60.476 74.745,60.476 74.745,51.416 77.745,51.416 77.745,60.476  "/>
	<path d="M 82.436,60.476 L 79.435,60.476 L 79.435,51.416 L 82.436,51.416 L 82.436,60.476 L 82.436,60.476" points="82.436,60.476 79.435,60.476 79.435,51.416 82.436,51.416 82.436,60.476  "/>
	<path d="M 73.069,60.511 L 73.069,51.558 L 60.742,51.558 L 69.695,60.511 L 73.069,60.511" points="73.069,60.511 73.069,51.558 60.742,51.558 69.695,60.511 "/>
	<path d="M 17.097,51.558 L 17.097,60.511 L 51.883,60.511 L 42.929,51.558 L 17.097,51.558" points="17.097,51.558 17.097,60.511 51.883,60.511 42.929,51.558 "/>
</svg>
