<?xml version="1.0" ?>
<svg xmlns="http://www.w3.org/2000/svg" xmlns:ev="http://www.w3.org/2001/xml-events" xmlns:xlink="http://www.w3.org/1999/xlink" baseProfile="full" enable-background="new 0 0.004 100 99.993" height="600px" version="1.1" viewBox="0 0.004 100 99.993" width="600px" x="0px" xml:space="preserve" y="0px">
	<defs/>
	<path d="M 25.087,58.823 C 25.069,58.842 25.053,58.859 25.035,58.878 C 25.056,58.899 25.072,58.925 25.094,58.945 L 25.087,58.823"/>
	<path d="M 76.827,93.759 L 76.827,57.982 L 96.398,61.583999999999996 L 88.35499999999999,49.098 L 95.55799999999999,50.902 L 87.514,36.62 L 91.95599999999999,37.46 L 71.428,0.004 L 50.898,37.459 L 55.339000000000006,36.61300000000001 L 47.295,50.903000000000006 L 54.499,49.098000000000006 L 46.455,61.584 L 66.02199999999999,57.981 L 66.02199999999999,93.756 L 50.059,93.756 L 50.059,78.635 L 59.783,78.635 L 59.783,73.235 L 44.419,73.235 L 44.36,73.196 C 44.555,72.92399999999999 44.656,72.598 44.656,72.27199999999999 C 44.656,71.33999999999999 43.851,70.59199999999998 42.855,70.59199999999998 C 42.311,70.59199999999998 41.793,70.81899999999999 41.452,71.21699999999998 L 41.416,71.18999999999998 C 38.534,70.59199999999998 36.251,70.10999999999999 33.010999999999996,69.98499999999999 C 33.010999999999996,66.74999999999999 31.809999999999995,62.79099999999998 30.369999999999997,59.902999999999984 L 30.252999999999997,59.78599999999999 L 30.356999999999996,59.883999999999986 C 32.18299999999999,59.115999999999985 33.373,57.32499999999999 33.373,55.344999999999985 C 33.373,52.62999999999998 31.168,50.420999999999985 28.448999999999998,50.420999999999985 C 25.732,50.420999999999985 23.528,52.62999999999999 23.528,55.344999999999985 C 23.528,56.68399999999998 24.076,57.951999999999984 25.035,58.878999999999984 C 25.053,58.859999999999985 25.069,58.84299999999998 25.087,58.823999999999984 L 25.094,58.945999999999984 C 25.072000000000003,58.92499999999998 25.056,58.89899999999999 25.035,58.878999999999984 C 19.429000000000002,64.62299999999999 16.323999999999998,70.13199999999998 16.323999999999998,76.83199999999998 C 16.323999999999998,82.23699999999998 18.366,82.96099999999998 19.686999999999998,83.91799999999998 L 10.802999999999997,83.91799999999998 L 10.802999999999997,87.52099999999997 L 18.723,87.52099999999997 L 18.723,93.75999999999998 L 0.0,93.75999999999998 L 0.0,99.99799999999998 L 100.0,99.99799999999998 L 100.0,93.75999999999998 L 76.827,93.75999999999998 L 76.827,93.759 M 32.171,93.758 L 24.131,93.758 L 24.131,87.518 L 31.214,87.518 L 31.214,83.916 C 31.692,84.14999999999999 32.171,84.27499999999999 32.171,85.715 L 32.171,93.758 M 42.857,93.757 L 39.255,93.757 C 40.336000000000006,93.63900000000001 40.46,92.43400000000001 39.613,92.2 C 38.415,91.718 36.613,90.995 36.613,90.995 L 36.613,83.191 C 36.613,82.23400000000001 36.134,81.629 34.695,81.03 C 32.891,80.312 29.049,78.868 27.368000000000002,78.15 C 25.688000000000002,77.429 25.688000000000002,76.95400000000001 25.688000000000002,75.872 C 25.688000000000002,74.78999999999999 26.776000000000003,73.71 28.570000000000004,71.432 C 29.413000000000004,72.511 31.214000000000006,73.235 33.011,73.235 L 33.012,73.235 L 33.012,78.635 L 42.857,78.635 L 42.857,93.757"/>
</svg>
