<?xml version="1.0" ?>
<svg xmlns="http://www.w3.org/2000/svg" xmlns:ev="http://www.w3.org/2001/xml-events" xmlns:xlink="http://www.w3.org/1999/xlink" baseProfile="full" enable-background="new 20.03 0.001 59.943 100" height="600px" version="1.1" viewBox="20.03 0.001 59.943 100" width="360px" x="0px" xml:space="preserve" y="0px">
	<defs/>
	<path d="M 45.978,6.055 C 45.978,2.6859999999999995 48.660000000000004,0.0009999999999994458 51.947,0.0009999999999994458 C 55.32,0.001 58.0,2.686 58.0,6.055 C 58.0,7.614 57.396,9.256 56.705,10.73 C 56.359,11.419 56.184999999999995,12.115 56.184999999999995,12.889 C 56.184999999999995,15.225999999999999 57.827999999999996,18.253 60.251999999999995,18.685 C 67.258,20.59 72.883,29.064999999999998 76.164,34.95099999999999 C 77.375,37.108999999999995 77.981,39.620999999999995 77.981,42.13199999999999 L 77.981,53.63499999999999 C 77.981,54.76099999999999 77.026,55.70899999999999 75.908,55.70899999999999 C 74.699,55.70899999999999 73.744,54.76099999999999 73.744,53.63499999999999 L 73.744,46.02299999999999 C 73.744,42.64799999999999 72.358,39.447999999999986 69.936,37.109999999999985 L 64.57600000000001,31.923999999999985 C 64.313,31.749999999999986 64.055,31.575999999999986 63.70900000000001,31.575999999999986 C 63.10500000000001,31.575999999999986 62.58600000000001,32.00799999999999 62.50000000000001,32.612999999999985 C 60.50800000000001,42.38899999999998 61.37500000000001,52.50799999999998 65.004,62.02599999999998 L 79.715,92.81699999999998 C 79.89,93.25399999999998 79.97200000000001,93.76999999999998 79.97200000000001,94.29199999999997 C 79.97200000000001,95.76099999999997 79.111,96.97199999999998 77.63300000000001,97.49199999999998 L 69.93900000000001,99.91399999999997 C 69.334,100.08799999999998 68.638,99.56499999999997 68.638,98.96099999999997 C 68.638,98.61399999999998 68.81200000000001,98.27299999999997 69.07600000000001,98.09899999999998 L 72.186,95.85099999999997 C 72.70700000000001,95.41299999999997 73.04700000000001,94.89799999999997 73.04700000000001,94.20699999999997 C 73.04700000000001,93.76999999999997 72.96300000000001,93.51299999999996 72.70500000000001,93.16499999999996 L 59.47500000000001,72.05999999999996 C 57.74200000000001,69.37999999999995 56.531000000000006,66.61299999999996 55.75000000000001,63.49699999999996 L 33.953,98.87699999999995 C 33.52,99.56599999999995 32.828,100.00299999999996 32.050000000000004,100.00299999999996 C 31.358000000000004,100.00299999999996 30.752000000000002,99.73999999999995 30.319000000000003,99.21999999999996 L 23.919000000000004,91.95399999999995 C 23.746000000000006,91.77899999999995 23.659000000000002,91.52099999999994 23.659000000000002,91.26599999999995 C 23.659000000000002,90.74499999999995 24.092000000000002,90.31299999999995 24.698000000000004,90.31299999999995 C 24.784000000000002,90.31299999999995 24.957000000000004,90.31299999999995 25.044000000000004,90.40099999999994 L 28.332000000000004,91.60799999999993 C 28.678000000000004,91.78199999999994 28.764000000000003,91.78199999999994 29.110000000000003,91.78199999999994 C 29.889000000000003,91.78199999999994 30.581000000000003,91.34999999999994 30.926000000000002,90.66099999999994 L 33.003,86.93799999999995 L 42.518,64.96999999999994 C 46.324,55.88399999999994 46.93,45.93899999999994 44.421,36.50499999999994 C 44.335,36.16299999999994 44.075,35.90099999999994 43.729,35.90099999999994 C 43.47,35.90099999999994 43.297,36.07399999999994 43.124,36.24799999999994 C 37.761,42.99699999999994 30.408,46.97699999999994 21.844,47.666999999999945 C 20.893,47.666999999999945 20.028000000000002,46.88799999999994 20.028000000000002,46.023999999999944 C 20.028000000000002,45.328999999999944 20.547,44.638999999999946 21.238000000000003,44.46499999999995 C 30.494000000000003,41.78499999999995 37.58800000000001,34.43099999999995 39.923,25.086999999999946 L 40.615,22.928999999999945 C 40.874,21.886999999999944 41.826,21.197999999999944 42.951,21.197999999999944 C 45.805,21.112999999999943 48.314,19.292999999999942 48.919,16.353999999999942 C 49.26499999999999,14.105999999999941 49.26499999999999,13.931999999999942 49.26499999999999,13.931999999999942 C 49.26499999999999,13.410999999999941 48.831999999999994,12.979999999999942 48.22599999999999,12.979999999999942 C 48.22599999999999,12.979999999999942 48.053999999999995,12.979999999999942 47.706999999999994,13.063999999999941 L 47.45,13.063999999999941 C 46.671,13.063999999999941 45.979,12.374999999999941 45.979,11.594999999999942 L 45.978,6.055 L 45.978,6.055"/>
</svg>
