<?xml version="1.0" ?>
<svg xmlns="http://www.w3.org/2000/svg" xmlns:ev="http://www.w3.org/2001/xml-events" xmlns:xlink="http://www.w3.org/1999/xlink" baseProfile="full" enable-background="new 0 0 100 100" height="600px" version="1.1" viewBox="0 0 100 100" width="588px" x="0px" xml:space="preserve" y="0px">
	<defs/>
	<path d="M 98.896,37.591 C 97.831,18.596 90.301,2.056 70.531,0.214 C 61.53600000000001,-0.625 52.617000000000004,0.989 47.837,5.224 C 49.287000000000006,4.804 50.768,4.224 52.176,4.888 C 50.615,6.285 48.808,7.223 47.503,8.895 C 40.895,17.359 45.023,33.626999999999995 54.178,36.593 C 54.876,36.400000000000006 53.699,35.334 53.846,34.589000000000006 C 55.873,35.898 57.714,37.397000000000006 60.522,37.92400000000001 C 57.71,35.46600000000001 55.747,27.218000000000007 62.19,25.916000000000007 C 72.518,23.822000000000006 75.53,34.76200000000001 74.87,44.602000000000004 C 74.372,52.06400000000001 71.50800000000001,56.19500000000001 67.194,60.289 C 62.938,64.331 58.278000000000006,67.283 55.85,72.302 C 53.907000000000004,57.17700000000001 44.045,47.039 37.826,34.92600000000001 C 35.876,31.125000000000007 33.33,27.16100000000001 32.153,23.579000000000008 C 31.215,20.724000000000007 31.616999999999997,17.223000000000006 29.482999999999997,14.565000000000008 C 34.251,12.973000000000008 32.596999999999994,6.080000000000009 33.154999999999994,0.883000000000008 C 32.638999999999996,1.687000000000008 31.554999999999993,1.411000000000008 32.48799999999999,0.550000000000008 C 29.56299999999999,2.6340000000000083 22.650999999999993,3.6190000000000078 21.806999999999995,8.895000000000008 C 17.785999999999994,7.674000000000008 13.576999999999995,9.204000000000008 10.793999999999995,11.228000000000009 C 8.411999999999995,12.963000000000008 7.008999999999995,15.60100000000001 5.120999999999995,17.570000000000007 C 3.673999999999995,19.081000000000007 1.399999999999995,20.150000000000006 1.1159999999999952,21.90800000000001 C 0.2229999999999952,27.41100000000001 5.857999999999995,30.797000000000008 12.464999999999996,30.585000000000008 C 12.610999999999997,33.93100000000001 8.453999999999997,35.635000000000005 8.457999999999997,39.93000000000001 C 8.760999999999997,40.836000000000006 9.686999999999998,39.650000000000006 9.792999999999996,39.26100000000001 C 8.911999999999995,41.53200000000001 8.616999999999996,46.27900000000001 9.459999999999996,49.94000000000001 C 4.7339999999999955,49.91400000000001 0.6729999999999947,53.49900000000001 2.115999999999995,58.62100000000001 C 2.365999999999995,59.50100000000001 3.274999999999995,60.21800000000001 4.117999999999995,60.95400000000001 C 4.479999999999995,59.29200000000001 4.174999999999995,59.867000000000004 5.788999999999995,60.620000000000005 C 6.441999999999995,59.38400000000001 5.862999999999995,56.916000000000004 7.122999999999996,56.283 C 10.902999999999995,54.652 12.269999999999996,61.144 15.798999999999996,62.623000000000005 C 17.753999999999998,63.292 18.499999999999996,60.757000000000005 19.136999999999997,61.956 C 21.775,68.78 14.926999999999996,74.211 14.131999999999998,80.646 C 13.358999999999998,86.9 15.137999999999998,91.367 18.135999999999996,95.328 C 18.135999999999996,95.328 16.323999999999995,95.547 16.133999999999997,96.99900000000001 C 15.965999999999998,98.602 13.444999999999997,97.043 12.796999999999997,99.33300000000001 C 13.238999999999997,99.96800000000002 14.900999999999996,99.01100000000001 15.466999999999997,98.66600000000001 C 16.452999999999996,98.95400000000001 14.692999999999998,99.16700000000002 15.133999999999997,100.00200000000001 C 15.356999999999998,100.00200000000001 15.578999999999997,100.00200000000001 15.800999999999997,100.00200000000001 C 19.346999999999998,99.02000000000001 24.437999999999995,98.852 28.825999999999997,98.656 C 27.760999999999996,100.165 30.606999999999996,99.40400000000001 30.606999999999996,99.40400000000001 C 31.294999999999995,99.138 32.62799999999999,99.03000000000002 33.827,98.989 C 33.824999999999996,98.994 33.823,98.997 33.823,98.997 C 36.577,98.973 39.64,99.253 41.498,98.328 C 41.913999999999994,96.798 41.622,96.51400000000001 42.5,95.328 C 43.677,95.405 45.513,95.705 46.172,95.328 C 51.590999999999994,92.236 55.297999999999995,84.519 63.190999999999995,83.31400000000001 C 63.190999999999995,83.31400000000001 62.559999999999995,82.861 61.422,83.129 C 63.175,81.683 65.499,80.81200000000001 68.53,80.646 C 68.069,79.882 66.20700000000001,80.519 65.19200000000001,80.308 C 79.49700000000001,71.373 97.22500000000001,63.99600000000001 98.897,42.26700000000001 C 99.014,40.758 98.996,39.355 98.896,37.591"/>
</svg>
