<?xml version="1.0" ?>
<svg xmlns="http://www.w3.org/2000/svg" xmlns:ev="http://www.w3.org/2001/xml-events" xmlns:xlink="http://www.w3.org/1999/xlink" baseProfile="full" enable-background="new 0 0 192.406 264.974" height="600px" version="1.1" viewBox="0 0 192.406 264.974" width="436px" x="0px" xml:space="preserve" y="0px">
	<defs/>
	<path d="M 54.4,185.064 C 55.766,182.46599999999998 57.312,179.535 58.173,177.39 C 58.912,175.53599999999997 59.471000000000004,173.33399999999997 59.921,171.56799999999998 C 60.138,170.718 60.391999999999996,169.71399999999997 60.583,169.14 C 60.961,169.19199999999998 61.446999999999996,169.23299999999998 61.976,169.26899999999998 C 62.037,169.27999999999997 62.092999999999996,169.295 62.157,169.295 C 62.168,169.295 62.178,169.285 62.178,169.285 C 64.139,169.41299999999998 66.738,169.458 68.223,169.458 C 69.087,169.458 69.955,169.448 70.795,169.425 C 73.85300000000001,169.33700000000002 76.694,167.959 79.437,166.622 C 81.006,165.858 82.626,165.06900000000002 84.225,164.57000000000002 C 86.44999999999999,163.871 88.747,163.14700000000002 90.032,163.07700000000003 C 90.083,163.60200000000003 90.167,164.57000000000002 90.274,165.83000000000004 C 90.73,171.06900000000005 91.574,180.81400000000005 92.148,185.11000000000004 C 92.889,190.67600000000004 92.51599999999999,197.57800000000003 92.02499999999999,200.49600000000004 C 91.51199999999999,203.59900000000005 91.84799999999998,209.82200000000003 93.074,213.50100000000003 C 94.13499999999999,216.68900000000002 92.92,238.00900000000004 91.89999999999999,242.94800000000004 C 90.824,248.13800000000003 91.657,250.28200000000004 92.764,252.35600000000002 C 93.426,253.60600000000002 93.2,254.991 92.878,256.903 C 92.801,257.35400000000004 92.722,257.827 92.654,258.308 C 92.53999999999999,259.069 92.365,259.721 92.215,260.28 C 91.843,261.67499999999995 91.418,263.255 93.147,264.25899999999996 C 93.96300000000001,264.74399999999997 95.316,264.97299999999996 97.28200000000001,264.97299999999996 C 99.10400000000001,264.97299999999996 101.39200000000001,264.76199999999994 103.56500000000001,264.383 C 105.79,264.0 107.01100000000001,263.635 107.50800000000001,262.692 C 107.96900000000001,261.817 107.53300000000002,260.87 107.21700000000001,260.181 C 106.82500000000002,259.325 106.40500000000002,258.038 105.96500000000002,256.68199999999996 C 105.60400000000001,255.55499999999995 105.22600000000001,254.38699999999997 104.82100000000001,253.35999999999996 C 104.45900000000002,252.41899999999995 104.34000000000002,250.91299999999995 104.58800000000001,249.28599999999994 C 104.879,247.46199999999993 105.06500000000001,245.75699999999995 104.71300000000001,244.41099999999994 C 104.227,242.58399999999995 103.968,233.26799999999994 103.602,228.97199999999995 C 103.498,227.75099999999995 103.414,226.78099999999995 103.36200000000001,226.23799999999994 C 103.25500000000001,225.09899999999993 103.31700000000001,223.51099999999994 103.388,221.82999999999996 C 103.482,219.68399999999997 103.57600000000001,217.46699999999996 103.358,215.53099999999995 C 103.114,213.31299999999996 102.924,214.06099999999995 103.602,212.32399999999996 C 103.881,211.59799999999996 103.625,209.78499999999997 103.879,208.95299999999995 C 104.459,207.03899999999996 104.23400000000001,203.19399999999996 103.796,199.36999999999995 C 103.51100000000001,196.89299999999994 104.376,193.60299999999995 104.429,192.01199999999994 C 104.496,189.84699999999995 104.931,186.00199999999995 105.562,182.21299999999994 C 105.852,187.38899999999992 106.971,193.60899999999992 106.62899999999999,195.61999999999995 C 106.11599999999999,198.72499999999994 106.32399999999998,204.94499999999994 107.54599999999999,208.61999999999995 C 108.607,211.80599999999995 106.717,232.11499999999995 105.698,237.05699999999996 C 104.76499999999999,241.56099999999995 106.42899999999999,244.34699999999995 107.49,246.05699999999996 C 107.67699999999999,246.36199999999997 108.78,250.06899999999996 108.439,252.46199999999996 L 108.33,253.21699999999996 C 107.953,255.70599999999996 107.569,258.28299999999996 109.53099999999999,259.436 C 110.55099999999999,260.03299999999996 111.53299999999999,260.315 112.952,260.315 C 113.967,260.315 115.203,260.169 116.839,259.888 C 117.688,259.743 118.551,259.63399999999996 119.364,259.52599999999995 C 121.935,259.19999999999993 123.789,258.9669999999999 124.426,257.8179999999999 C 124.69,257.3399999999999 124.694,256.7729999999999 124.44,256.21899999999994 C 124.054,255.37799999999993 122.987,254.12299999999993 121.75399999999999,252.66299999999993 C 120.40499999999999,251.06899999999993 118.72899999999998,249.08699999999993 118.29299999999999,247.96899999999994 C 117.925,247.02799999999993 118.22,245.17499999999993 118.47399999999999,243.54999999999993 C 118.764,241.72299999999993 119.03799999999998,239.98899999999992 118.68099999999998,238.64899999999992 C 118.19999999999999,236.81699999999992 117.43999999999998,227.8799999999999 117.06699999999998,223.57999999999993 C 116.96299999999998,222.36099999999993 116.88499999999998,221.39099999999993 116.82899999999998,220.8509999999999 C 116.71999999999998,219.71099999999993 116.78699999999998,218.11999999999992 116.85999999999999,216.44199999999992 C 116.94699999999999,214.29499999999993 117.04199999999999,212.07999999999993 116.82899999999998,210.13899999999992 C 116.55599999999998,207.6839999999999 116.92799999999998,205.53699999999992 117.31499999999998,203.26599999999993 C 117.44499999999998,202.54699999999994 117.56899999999999,201.82799999999995 117.66799999999998,201.10399999999993 C 118.36599999999997,196.17099999999994 118.06099999999998,188.91799999999992 117.80199999999998,182.52199999999993 C 117.60099999999998,177.67999999999992 117.40899999999998,173.10799999999995 117.67299999999997,170.26099999999994 C 118.22699999999998,164.33399999999995 121.77299999999997,153.67199999999994 124.71199999999997,149.11699999999993 C 127.91499999999998,145.67099999999994 128.76899999999998,140.71399999999994 126.97899999999997,135.81199999999993 C 124.60299999999997,129.3209999999999 123.34499999999997,124.57499999999993 123.24199999999998,121.70599999999993 C 123.19999999999997,120.39399999999993 124.02899999999998,118.91499999999994 125.29599999999998,117.09999999999994 C 125.29599999999998,117.09999999999994 125.29599999999998,117.09999999999994 125.29599999999998,117.09799999999994 C 125.64299999999997,116.59699999999994 126.02199999999998,116.08599999999994 126.40999999999998,115.54999999999994 C 127.75599999999999,113.70499999999994 129.28199999999998,111.61099999999993 130.47599999999997,109.15599999999993 C 130.70799999999997,108.67899999999993 130.94699999999997,108.21599999999994 131.18599999999998,107.75299999999993 C 131.62099999999998,106.90999999999993 132.06499999999997,106.08599999999993 132.51,105.25999999999993 C 132.51,105.25999999999993 132.51,105.25999999999993 132.51,105.25699999999993 C 133.939,102.61299999999993 135.41899999999998,99.87999999999994 136.748,96.29199999999993 L 137.173,95.15299999999993 L 137.142,95.14799999999994 C 137.173,95.06299999999995 137.204,94.97599999999994 137.23,94.88799999999993 L 137.267,94.90899999999993 L 137.656,93.67199999999994 C 137.656,93.66699999999994 137.66,93.66399999999994 137.66,93.65899999999993 C 138.04399999999998,92.41699999999993 138.422,91.07299999999994 138.773,89.60499999999993 C 139.493,86.60299999999994 141.655,79.72699999999993 141.655,79.72699999999993 C 142.923,74.68199999999993 143.799,70.32599999999994 144.434,67.05099999999993 C 145.428,61.99199999999993 148.57999999999998,54.06999999999993 152.746,44.23399999999993 C 156.26500000000001,35.908999999999935 157.512,35.90099999999993 159.484,35.88699999999993 C 159.738,35.88699999999993 159.97500000000002,35.88499999999993 160.42100000000002,35.86899999999993 C 162.07600000000002,35.86899999999993 163.97100000000003,36.95199999999993 165.98900000000003,38.09399999999993 C 166.89400000000003,38.60499999999993 167.80600000000004,39.12199999999993 168.72700000000003,39.56499999999993 C 171.63400000000004,40.96299999999993 175.62100000000004,41.52199999999993 177.76300000000003,41.82599999999993 L 178.48700000000002,41.930999999999926 C 179.36800000000002,42.06699999999993 181.16200000000003,43.784999999999926 182.24,44.812999999999924 C 182.793,45.336999999999925 183.291,45.812999999999924 183.693,46.13799999999993 C 184.443,46.751999999999924 185.26700000000002,47.065999999999924 186.13600000000002,47.065999999999924 C 186.98000000000002,47.065999999999924 187.68300000000002,46.77099999999992 188.01900000000003,46.56699999999992 C 188.39300000000003,46.56699999999992 189.66500000000002,47.16899999999992 190.74800000000005,47.85199999999992 C 190.98500000000004,48.00599999999992 191.28000000000006,48.05099999999992 191.55500000000004,47.97299999999992 C 191.82900000000004,47.89999999999992 192.06300000000005,47.70799999999992 192.19200000000004,47.45499999999992 C 192.28100000000003,47.26599999999992 192.56500000000003,46.69699999999992 192.29600000000005,42.88099999999992 C 192.02100000000004,39.02799999999992 188.43500000000006,35.26299999999992 185.69600000000005,32.388999999999925 C 184.05600000000007,30.668999999999926 183.47200000000007,28.715999999999923 182.66000000000005,26.016999999999925 C 182.32900000000006,24.904999999999923 181.96100000000004,23.696999999999925 181.49100000000004,22.373999999999924 C 180.18500000000003,18.759999999999923 177.98100000000005,17.243999999999925 175.85300000000004,15.779999999999923 C 175.23300000000003,15.354999999999922 174.60700000000003,14.929999999999923 174.00100000000003,14.439999999999923 C 174.20800000000003,12.147999999999923 174.57000000000002,8.745999999999924 174.80200000000002,7.957999999999923 C 174.92800000000003,7.544999999999923 175.00600000000003,7.114999999999923 175.08200000000002,6.676999999999923 C 175.23600000000002,5.799999999999923 175.377,4.971999999999923 176.02900000000002,4.102999999999923 C 176.51500000000001,3.4619999999999234 176.592,2.7089999999999232 176.25100000000003,2.0289999999999235 C 175.40700000000004,0.33199999999992347 172.26100000000002,-0.30900000000007655 170.20700000000002,0.13699999999992363 C 169.30700000000002,0.32699999999992363 168.70100000000002,0.7519999999999236 168.40000000000003,1.3939999999999235 C 167.89400000000003,2.4759999999999236 168.52500000000003,3.662999999999924 168.93900000000002,4.449999999999924 C 169.03700000000003,4.6299999999999235 169.14600000000002,4.797999999999924 169.15000000000003,4.759999999999923 L 169.16300000000004,5.110999999999923 C 169.25000000000003,9.577999999999923 168.93900000000005,11.161999999999924 168.75200000000004,11.708999999999923 C 168.40600000000003,11.311999999999923 167.88800000000003,10.290999999999924 167.60900000000004,9.087999999999923 C 167.48600000000005,8.562999999999922 167.28200000000004,7.9859999999999225 167.07600000000005,7.418999999999922 C 166.85300000000004,6.795999999999922 166.48100000000005,5.754999999999923 166.52100000000004,5.531999999999922 C 167.15800000000004,4.985999999999922 167.45900000000003,4.135999999999922 167.32900000000004,3.253999999999922 C 167.15400000000002,2.0549999999999216 166.26400000000004,1.0259999999999216 164.87700000000004,0.42099999999992166 C 162.91600000000003,-0.4370000000000783 160.25000000000003,1.0169999999999217 159.59800000000004,2.431999999999922 C 159.28700000000003,3.1059999999999217 159.35500000000005,3.7839999999999216 159.78600000000003,4.284999999999922 C 161.11600000000004,5.836999999999922 162.18200000000002,10.092999999999922 162.07300000000004,11.778999999999922 L 162.04200000000003,12.369999999999921 C 162.03000000000003,12.455999999999921 162.03000000000003,12.532999999999921 162.02600000000004,12.59899999999992 C 161.99500000000003,12.60499999999992 161.96300000000005,12.60899999999992 161.92800000000003,12.616999999999921 L 161.223,12.753999999999921 C 160.39000000000001,12.930999999999921 159.75900000000001,13.386999999999922 159.204,13.787999999999922 C 158.485,14.303999999999922 158.088,14.614999999999922 157.362,14.073999999999922 C 155.209,12.457999999999922 149.879,9.87399999999992 146.488,9.089999999999922 C 144.077,8.53399999999992 143.15,9.232999999999922 142.861,9.868999999999922 C 142.46699999999998,10.716999999999922 142.82999999999998,11.784999999999922 143.969,13.130999999999922 C 145.37099999999998,14.786999999999923 146.225,15.891999999999921 147.54399999999998,18.061999999999923 C 147.75099999999998,18.393999999999924 148.21099999999998,18.888999999999925 148.70899999999997,19.374999999999922 C 148.38799999999998,19.49299999999992 81.59399999999998,106.12999999999991 79.63499999999998,107.55299999999991 C 71.68699999999998,113.32699999999991 68.86099999999998,114.56399999999991 58.36499999999998,117.17699999999991 C 54.094999999999985,118.23999999999991 49.25199999999998,119.44599999999991 44.15299999999998,121.03499999999991 C 27.690999999999978,126.16399999999992 23.080999999999978,132.5649999999999 22.407999999999976,133.63199999999992 C 19.892999999999976,136.1069999999999 18.603999999999978,139.9699999999999 17.123999999999977,144.42899999999992 C 16.81699999999998,145.34199999999993 16.50899999999998,146.27399999999992 16.181999999999977,147.21499999999992 C 14.924999999999978,150.81799999999993 14.479999999999977,156.4219999999999 14.085999999999977,161.3549999999999 C 13.867999999999977,164.0709999999999 13.666999999999977,166.64299999999992 13.356999999999978,168.5109999999999 C 12.588999999999977,173.0919999999999 10.633999999999979,177.1579999999999 9.173999999999978,180.1579999999999 L 9.116999999999978,180.1629999999999 L 8.894999999999978,180.7229999999999 C 8.713999999999979,181.1839999999999 8.262999999999979,181.9729999999999 7.736999999999979,182.9189999999999 C 6.482999999999979,185.1649999999999 4.763999999999979,188.2339999999999 4.469999999999979,190.3279999999999 C 4.282999999999979,191.6619999999999 4.351999999999979,192.7519999999999 4.4119999999999795,193.7089999999999 C 4.51599999999998,195.3649999999999 4.583999999999979,196.46299999999988 3.3709999999999796,198.1129999999999 C 2.7979999999999796,198.88999999999987 2.2749999999999795,199.46399999999988 1.8239999999999796,199.94499999999988 C 0.37099999999997957,201.52899999999988 -0.42200000000002036,202.5719999999999 0.22999999999997955,205.53399999999988 C 0.47399999999997955,206.65999999999988 0.8309999999999795,207.7029999999999 1.1409999999999796,208.62899999999988 C 1.8909999999999796,210.82399999999987 2.2749999999999795,212.11799999999988 1.5079999999999796,213.18599999999986 C 1.2599999999999796,213.52599999999987 0.5149999999999796,214.56599999999986 0.9899999999999796,215.49699999999987 C 1.2279999999999796,215.96099999999987 1.7099999999999795,216.23299999999986 2.2789999999999795,216.23299999999986 C 3.4379999999999793,216.23299999999986 4.89199999999998,215.12499999999986 5.735999999999979,213.59299999999988 C 6.06699999999998,212.98999999999987 6.4759999999999796,212.4999999999999 6.90499999999998,211.98999999999987 C 8.12799999999998,210.53599999999986 9.508999999999979,208.88599999999985 9.66399999999998,204.22399999999988 C 9.777999999999981,200.83099999999988 6.60699999999998,200.43799999999987 7.33799999999998,198.90899999999988 C 7.84399999999998,197.83899999999988 7.83599999999998,194.97599999999989 8.33799999999998,192.90899999999988 C 9.53899999999998,187.99599999999987 9.25399999999998,187.07599999999988 12.79399999999998,182.62199999999987 C 12.77399999999998,182.43099999999987 13.354999999999979,181.36699999999988 13.354999999999979,181.36699999999988 C 13.43099999999998,180.9939999999999 13.81599999999998,179.51899999999986 15.79699999999998,174.60699999999989 C 18.35899999999998,168.2569999999999 20.69799999999998,160.26699999999988 22.02699999999998,153.37799999999987 C 22.37999999999998,156.41499999999988 23.30599999999998,161.05799999999988 24.15399999999998,165.28399999999988 C 24.53799999999998,167.1849999999999 24.882999999999978,168.92499999999987 25.117999999999977,170.23099999999988 C 26.044999999999977,175.36199999999988 26.44199999999998,186.02799999999988 24.764999999999976,191.90699999999987 C 24.132999999999974,194.11699999999988 23.502999999999975,195.63199999999986 22.993999999999975,196.84399999999988 C 22.089999999999975,199.0179999999999 21.493999999999975,200.45599999999988 22.233999999999973,202.97199999999987 C 23.180999999999973,206.16499999999988 25.141999999999975,218.89199999999985 26.50299999999997,229.24699999999987 C 27.50199999999997,236.84299999999988 26.747999999999973,241.18999999999988 26.192999999999973,244.3629999999999 C 26.06399999999997,245.12999999999988 25.943999999999974,245.8169999999999 25.866999999999972,246.4429999999999 C 25.524999999999974,249.3099999999999 27.071999999999974,252.1779999999999 28.09299999999997,254.07699999999988 C 28.323999999999973,254.50399999999988 28.53199999999997,254.8889999999999 28.686999999999973,255.2219999999999 C 29.380999999999972,256.6889999999999 29.122999999999973,258.68099999999987 28.729999999999972,259.5609999999999 C 28.511999999999972,260.0499999999999 28.558999999999973,260.5809999999999 28.83699999999997,261.0179999999999 C 29.096999999999973,261.4149999999999 29.88799999999997,262.6319999999999 36.23299999999997,262.6319999999999 C 40.175999999999966,262.6319999999999 43.42699999999997,261.3459999999999 43.566999999999965,261.2859999999999 C 43.886999999999965,261.1609999999999 44.12099999999997,260.8769999999999 44.18199999999997,260.5379999999999 C 44.243999999999964,260.1939999999999 44.130999999999965,259.8469999999999 43.87599999999997,259.6089999999999 C 43.86099999999997,259.5929999999999 41.971999999999966,257.8229999999999 38.89399999999997,254.25299999999993 C 36.45599999999997,251.42299999999992 36.13499999999997,249.12899999999993 35.44199999999997,244.10199999999992 C 35.30199999999997,243.08499999999992 35.14699999999997,241.96799999999993 34.96099999999997,240.7259999999999 C 33.87899999999997,233.66199999999992 34.93099999999997,212.0759999999999 35.83499999999997,207.55999999999992 C 36.01599999999997,206.6419999999999 36.196999999999974,205.8799999999999 36.35699999999997,205.2599999999999 C 37.46399999999997,207.9459999999999 39.48799999999997,211.5729999999999 40.17599999999997,212.69699999999992 C 40.988999999999976,214.0219999999999 43.985999999999976,223.55399999999992 46.17999999999997,230.5169999999999 C 47.58799999999997,234.9809999999999 48.79799999999997,238.8369999999999 49.32599999999997,240.2259999999999 C 49.91099999999997,241.7649999999999 50.27699999999997,243.9139999999999 50.60399999999997,245.8079999999999 C 51.15799999999997,249.06599999999992 51.52499999999997,250.9439999999999 52.53999999999997,251.78099999999992 C 52.85499999999997,252.03299999999993 53.19299999999997,252.29499999999993 53.53799999999997,252.56699999999992 C 54.66599999999997,253.44099999999992 55.944999999999965,254.43499999999992 56.63799999999997,255.47699999999992 C 57.17699999999997,256.2829999999999 57.02299999999997,258.6219999999999 56.74199999999997,260.0299999999999 C 56.64399999999997,260.5249999999999 56.92899999999997,261.0139999999999 57.39799999999997,261.18299999999994 C 57.48799999999997,261.21599999999995 59.75399999999997,262.0129999999999 63.587999999999965,261.8739999999999 L 64.75899999999997,261.8399999999999 C 67.50499999999997,261.7629999999999 69.16099999999997,261.7159999999999 69.85099999999997,260.65899999999993 C 70.06699999999996,260.3229999999999 70.25299999999997,259.75499999999994 69.84499999999997,258.80499999999995 C 69.70399999999997,258.5849999999999 66.44499999999996,253.46099999999996 64.19399999999997,251.60899999999995 C 62.180999999999976,249.94799999999995 59.815999999999974,245.68899999999996 59.747999999999976,244.92699999999996 C 59.85699999999998,244.06899999999996 59.47499999999997,242.93499999999997 58.98799999999998,241.49499999999998 C 58.729999999999976,240.72499999999997 58.43899999999998,239.86599999999999 58.20699999999998,238.98099999999997 C 58.01999999999998,238.27399999999997 57.26499999999998,235.83199999999997 56.26999999999998,232.64299999999997 C 54.112999999999985,225.73299999999998 50.10199999999998,212.86699999999996 50.018999999999984,211.11199999999997 C 49.97199999999999,210.07799999999997 50.18499999999998,208.63799999999998 50.432999999999986,206.97199999999998 C 50.78599999999999,204.58599999999998 51.17799999999998,201.879 51.033999999999985,199.08999999999997 C 50.804999999999986,194.87199999999999 51.079999999999984,192.20899999999997 51.97399999999998,189.896 C 52.351,188.936 53.345,187.056 54.4,185.064"/>
</svg>
