<?xml version="1.0" ?>
<svg xmlns="http://www.w3.org/2000/svg" xmlns:ev="http://www.w3.org/2001/xml-events" xmlns:xlink="http://www.w3.org/1999/xlink" baseProfile="full" enable-background="new 0 0 45.395 458.667" height="600px" version="1.1" viewBox="0 0 45.395 458.667" width="60px" x="0px" xml:space="preserve" y="0px">
	<defs/>
	<path d="M 11.042,2.667 C 11.042,2.667 14.042,-3.333 21.042,2.667 C 28.042,8.667 18.447000000000003,158.923 24.447000000000003,162.923 C 30.447000000000003,166.923 24.081000000000003,203.668 26.081000000000003,216.668 C 28.081000000000003,229.668 22.042,272.66700000000003 31.042,274.66700000000003 C 40.042,276.66700000000003 50.042,281.66700000000003 43.042,301.66700000000003 C 36.042,321.66700000000003 35.042,332.66700000000003 35.042,340.66700000000003 C 35.042,348.66700000000003 35.042,367.66700000000003 35.042,372.66700000000003 C 35.042,377.66700000000003 24.394000000000002,392.66700000000003 28.218000000000004,404.66700000000003 C 32.042,416.66700000000003 29.042000000000005,429.66700000000003 37.042,436.66700000000003 C 45.042,443.66700000000003 40.394,458.66700000000003 28.218000000000004,458.66700000000003 C 16.04200000000001,458.66700000000003 -0.9579999999999949,457.66700000000003 0.042000000000005144,448.66700000000003 C 1.0420000000000051,439.66700000000003 7.042000000000005,423.66700000000003 7.042000000000005,406.66700000000003 C 7.042000000000005,389.66700000000003 13.042000000000005,362.66700000000003 9.042000000000005,339.66700000000003 C 5.042000000000005,316.66700000000003 -3.957999999999995,291.66700000000003 5.042000000000005,276.66700000000003 C 14.042000000000005,261.66700000000003 7.042000000000005,243.66700000000003 8.042000000000005,223.66700000000003 C 9.042000000000005,203.66700000000003 7.042000000000005,180.66700000000003 9.042000000000005,159.66700000000003 C 11.042000000000005,138.66700000000003 8.042,12.667 11.042,2.667"/>
</svg>
