<?xml version="1.0" ?>
<svg xmlns="http://www.w3.org/2000/svg" xmlns:cc="http://creativecommons.org/ns#" xmlns:dc="http://purl.org/dc/elements/1.1/" xmlns:ev="http://www.w3.org/2001/xml-events" xmlns:rdf="http://www.w3.org/1999/02/22-rdf-syntax-ns#" xmlns:svg="http://www.w3.org/2000/svg" xmlns:xlink="http://www.w3.org/1999/xlink" baseProfile="full" enable-background="new 20.984 -0.597 61.011 100" height="600px" version="1.1" viewBox="20.984 -0.597 61.011 100" width="367px" x="0px" xml:space="preserve" y="0px">
	<defs/>
	<path d="M 77.094,52.342 L 77.836,52.342 L 77.836,23.995 L 77.797,23.995 C 77.788,23.809 77.786,23.623 77.77499999999999,23.439 C 76.865,9.308 64.642,-1.447 50.498,-0.543 C 43.650999999999996,-0.10300000000000004 37.387,2.977 32.857,8.128 C 28.326999999999998,13.280000000000001 26.075,19.887 26.514,26.733 L 36.809,26.071 C 36.546,21.975 37.894,18.022000000000002 40.604,14.939000000000002 C 43.314,11.856000000000002 47.062,10.014000000000003 51.159,9.751000000000001 C 59.613,9.206000000000001 66.935,15.644000000000002 67.48,24.105 C 67.497,24.364 67.504,24.623 67.509,24.881 L 67.612,24.879 L 67.612,43.013000000000005 C 62.92999999999999,40.08500000000001 57.403999999999996,38.38700000000001 51.48599999999999,38.38700000000001 C 34.666,38.39 20.982,52.075 20.984,68.901 C 20.985000000000003,85.72 34.67,99.40299999999999 51.488,99.40299999999999 L 51.492,99.40299999999999 C 59.64,99.40299999999999 67.30199999999999,96.22999999999999 73.062,90.466 C 78.824,84.704 81.996,77.04299999999999 81.995,68.889 C 81.994,62.793 80.188,57.112 77.094,52.342 M 67.266,84.671 C 63.053000000000004,88.88600000000001 57.45100000000001,91.206 51.492000000000004,91.20700000000001 L 51.489000000000004,95.305 L 51.489000000000004,91.20700000000001 C 39.190000000000005,91.20700000000001 29.183000000000003,81.2 29.182000000000006,68.89600000000002 C 29.181000000000004,56.594000000000015 39.187000000000005,46.58600000000001 51.49000000000001,46.585000000000015 C 63.78900000000001,46.585000000000015 73.79700000000001,56.591000000000015 73.799,68.89700000000002 C 73.798,74.855 71.479,80.458 67.266,84.671"/>
	<path d="M 51.482,60.647 C 46.608,60.647 42.659,64.599 42.659,69.471 C 42.659,69.47200000000001 42.659,69.473 42.659,69.473 C 42.659,74.346 46.61,78.29599999999999 51.483999999999995,78.295 C 56.355999999999995,78.294 60.306,74.34400000000001 60.30499999999999,69.471 C 60.30499999999999,69.471 60.30499999999999,69.471 60.30499999999999,69.47 C 60.306,64.597 56.354,60.647 51.482,60.647"/>
</svg>
