<?xml version="1.0" ?>
<svg xmlns="http://www.w3.org/2000/svg" xmlns:ev="http://www.w3.org/2001/xml-events" xmlns:xlink="http://www.w3.org/1999/xlink" baseProfile="full" enable-background="new 0 0 100 100" height="600px" version="1.1" viewBox="0 0 100 100" width="600px" x="0px" xml:space="preserve" y="0px">
	<defs/>
	<path d="M 50.0,98.0 C 23.257,98.0 1.5,76.243 1.5,49.5 C 1.5,22.757000000000005 23.257,1.0 50.0,1.0 C 76.743,1.0 98.5,22.757 98.5,49.5 C 98.5,76.243 76.743,98.0 50.0,98.0 M 50.0,9.0 C 27.668,9.0 9.5,27.168 9.5,49.5 C 9.5,71.832 27.668,90.0 50.0,90.0 C 72.332,90.0 90.5,71.832 90.5,49.5 C 90.5,27.168 72.332,9.0 50.0,9.0"/>
	<path cx="49.75" cy="24.947" d="M 40.803,24.947 A 8.947,8.947 0.0 1,0 58.696999999999996,24.947 A 8.947,8.947 0.0 1,0 40.803,24.947" r="8.947"/>
	<path d="M 41.0,39.0 L 58.0,39.0 L 58.0,84.0 L 41.0,84.0 L 41.0,39.0" height="45" width="17" x="41" y="39"/>
</svg>
