<?xml version="1.0" ?>
<svg xmlns="http://www.w3.org/2000/svg" xmlns:ev="http://www.w3.org/2001/xml-events" xmlns:xlink="http://www.w3.org/1999/xlink" baseProfile="full" enable-background="new 0 0 100 100" height="600px" version="1.1" viewBox="0 0 100 100" width="600px" x="0px" xml:space="preserve" y="0px">
	<defs/>
	<path d="M 26.443,93.795 L 20.653000000000002,99.584 C 20.097,100.13900000000001 19.187,100.13900000000001 18.630000000000003,99.584 L 0.417,81.37 C -0.13800000000000007,80.812 -0.13800000000000007,79.90100000000001 0.417,79.34700000000001 L 6.2059999999999995,73.558 L 14.774,73.80300000000001 L 15.091,84.91400000000002 L 26.198999999999998,85.22900000000001 L 26.443,93.795 M 90.081,30.156 L 83.89500000000001,36.338 C 83.34,36.896 82.27600000000001,37.147 81.528,36.898 L 76.653,35.273 C 75.909,35.024 75.5,35.432 75.747,36.179 L 77.372,41.052 C 77.622,41.8 77.372,42.866 76.815,43.422 L 43.422,76.815 C 42.864999999999995,77.373 41.799,77.623 41.052,77.375 L 36.177,75.75 C 35.432,75.5 35.025999999999996,75.909 35.272999999999996,76.654 L 36.897999999999996,81.529 C 37.145999999999994,82.276 36.895999999999994,83.342 36.337999999999994,83.898 L 30.152999999999995,90.08099999999999 L 29.910999999999994,81.51599999999999 L 18.800999999999995,81.202 L 18.480999999999995,70.093 L 9.915999999999995,69.845 L 16.097999999999995,63.663 C 16.657999999999994,63.105 17.721999999999994,62.852 18.470999999999997,63.102 L 23.345999999999997,64.727 C 24.090999999999998,64.97500000000001 24.496999999999996,64.569 24.246999999999996,63.821000000000005 L 22.624999999999996,58.947 C 22.376999999999995,58.201 22.626999999999995,57.134 23.183999999999997,56.579 L 56.576,23.186 C 57.134,22.628 58.2,22.377 58.949,22.626 L 63.818,24.251 C 64.567,24.5 64.974,24.092000000000002 64.724,23.346 L 63.099000000000004,18.472 C 62.852000000000004,17.725 63.105000000000004,16.659000000000002 63.660000000000004,16.102 L 69.842,9.917000000000002 L 70.09,18.483000000000004 L 81.196,18.797000000000004 L 81.51299999999999,29.909000000000006 L 90.081,30.156 M 40.385,59.612 C 38.896,58.122 36.479,58.122 34.989,59.612 C 33.497,61.102000000000004 33.497,63.518 34.989,65.009 C 36.477999999999994,66.499 38.894999999999996,66.499 40.385,65.009 C 41.877,63.519 41.877,61.103 40.385,59.612 M 52.698,47.302 C 51.207,45.811 48.791,45.811 47.301,47.302 C 45.81,48.792 45.81,51.208 47.301,52.698 C 48.792,54.188 51.207,54.188 52.698,52.698 C 54.188,51.208 54.188,48.792 52.698,47.302 M 65.011,34.99 C 63.519,33.5 61.105,33.5 59.613,34.99 C 58.123,36.479 58.123,38.898 59.613,40.388000000000005 C 61.105,41.87800000000001 63.519,41.87800000000001 65.011,40.388000000000005 C 66.497,38.897 66.497,36.479 65.011,34.99 M 79.344,0.417 L 73.55799999999999,6.2059999999999995 L 73.8,14.770999999999999 L 84.90599999999999,15.085999999999999 L 85.22299999999998,26.198 L 93.79299999999998,26.444 L 99.58199999999998,20.655 C 100.13799999999998,20.099 100.13799999999998,19.188000000000002 99.58199999999998,18.632 L 81.367,0.417 C 80.81,-0.139 79.901,-0.139 79.344,0.417"/>
</svg>
