<?xml version="1.0" ?>
<svg xmlns="http://www.w3.org/2000/svg" xmlns:ev="http://www.w3.org/2001/xml-events" xmlns:xlink="http://www.w3.org/1999/xlink" baseProfile="full" enable-background="new 0 0 100 100" height="600px" version="1.1" viewBox="0 0 100 100" width="600px" x="0px" xml:space="preserve" y="0px">
	<defs/>
	<path d="M 65.0,14.0 C 76.598,14.0 86.0,23.402 86.0,35.0 C 86.0,46.598 76.598,56.0 65.0,56.0 C 53.402,56.0 44.0,46.598 44.0,35.0 C 44.0,23.402 53.402,14.0 65.0,14.0 M 65.0,10.0 C 51.215,10.0 40.0,21.215 40.0,35.0 C 40.0,48.785 51.215,60.0 65.0,60.0 C 78.785,60.0 90.0,48.785 90.0,35.0 C 90.0,21.215000000000003 78.785,10.0 65.0,10.0 L 65.0,10.0"/>
	<path d="M 80.0,36.0 C 80.0,43.18 74.18,49.0 67.0,49.0" fill="none" stroke="#000000" stroke-miterlimit="10" stroke-width="4"/>
	<path d="M 45.0,55.0 L 15.5,84.5" stroke="#000000" stroke-miterlimit="10" stroke-width="4" x1="45" x2="15.5" y1="55" y2="84.5"/>
	<path d="M 31.0,69.0 L 15.5,84.5" stroke="#000000" stroke-miterlimit="10" stroke-width="7" x1="31" x2="15.5" y1="69" y2="84.5"/>
</svg>
