<?xml version="1.0" ?>
<svg xmlns="http://www.w3.org/2000/svg" xmlns:ev="http://www.w3.org/2001/xml-events" xmlns:xlink="http://www.w3.org/1999/xlink" baseProfile="full" enable-background="new 0 0 100 91.613" height="437px" version="1.1" viewBox="0 0 100 91.613" width="600px" x="0px" xml:space="preserve" y="0px">
	<defs/>
	<path d="M 25.114,56.627 C 24.437,54.509 25.417,53.472 26.564,52.978 C 28.157,52.29 28.938,52.237 30.214,54.427 L 43.54,79.952 C 55.434,80.193 66.109,84.636 73.65899999999999,91.613 C 80.72,85.085 85.04499999999999,76.34 85.04499999999999,66.723 C 85.04499999999999,46.53 66.00699999999999,30.161 42.52299999999999,30.161 C 19.038,30.162 0.0,46.53 0.0,66.723 C 0.0,76.339 4.324,85.083 11.383,91.611 C 17.186999999999998,86.245 24.839,82.378 33.471999999999994,80.76700000000001 L 25.114,56.627 M 76.85,83.424 C 76.56299999999999,84.03 75.96,84.38300000000001 75.33099999999999,84.38300000000001 C 75.08999999999999,84.38300000000001 74.84499999999998,84.33200000000001 74.61099999999999,84.221 L 67.38399999999999,80.787 C 66.54599999999999,80.38900000000001 66.19099999999999,79.387 66.58799999999998,78.549 C 66.98599999999998,77.71000000000001 67.98799999999999,77.35300000000001 68.82599999999998,77.753 L 76.05299999999998,81.186 C 76.892,81.585 77.248,82.586 76.85,83.424 M 81.521,72.709 C 81.4,73.546 80.68,74.148 79.861,74.148 C 79.781,74.148 79.699,74.142 79.617,74.13 L 71.4,72.938 C 70.48100000000001,72.804 69.84400000000001,71.953 69.97800000000001,71.034 C 70.111,70.116 70.962,69.48400000000001 71.88100000000001,69.613 L 80.10000000000001,70.804 C 81.019,70.939 81.654,71.792 81.521,72.709 M 81.521,60.834 C 81.654,61.751000000000005 81.018,62.604000000000006 80.1,62.738 L 71.881,63.929 C 71.8,63.941 71.719,63.948 71.639,63.948 C 70.818,63.948 70.09899999999999,63.345 69.978,62.509 C 69.844,61.59 70.481,60.738 71.39999999999999,60.605000000000004 L 79.61699999999999,59.413000000000004 C 80.536,59.284 81.388,59.914 81.521,60.834 M 76.85,50.119 C 77.24799999999999,50.956 76.892,51.958 76.05399999999999,52.357 L 68.82699999999998,55.791 C 68.59399999999998,55.900999999999996 68.34799999999998,55.95399999999999 68.10699999999999,55.95399999999999 C 67.47799999999998,55.95399999999999 66.87599999999999,55.599999999999994 66.58799999999998,54.99399999999999 C 66.19099999999997,54.15599999999999 66.54599999999998,53.15399999999999 67.38399999999999,52.75599999999999 L 74.61099999999999,49.32099999999999 C 75.448,48.924 76.451,49.279 76.85,50.119 M 60.286,46.557 L 65.653,41.295 C 66.31500000000001,40.646 67.379,40.656 68.027,41.318000000000005 C 68.677,41.980000000000004 68.668,43.044000000000004 68.005,43.694 L 62.641,48.956 C 62.312999999999995,49.276 61.888999999999996,49.436 61.463,49.436 C 61.028,49.436 60.594,49.267 60.265,48.932 C 59.614,48.271 59.625,47.207 60.286,46.557 M 50.979,42.825 L 53.833,36.370000000000005 C 54.208,35.52 55.201,35.138000000000005 56.049,35.513000000000005 C 56.897999999999996,35.88700000000001 57.282,36.88 56.906,37.729000000000006 L 54.052,44.184000000000005 C 53.775999999999996,44.81100000000001 53.159,45.184000000000005 52.516,45.184000000000005 C 52.288,45.184000000000005 52.056999999999995,45.138000000000005 51.836999999999996,45.040000000000006 C 50.987,44.664 50.604,43.674 50.979,42.825 M 40.658,35.158 C 40.658,34.230000000000004 41.410000000000004,33.478 42.338,33.478 C 43.267,33.478 44.018,34.230000000000004 44.018,35.158 L 44.018,42.026 C 44.018,42.954 43.267,43.705000000000005 42.338,43.705000000000005 C 41.410000000000004,43.705000000000005 40.658,42.95400000000001 40.658,42.026 L 40.658,35.158 M 28.628,35.513 C 29.476,35.138 30.468,35.521 30.843,36.37 L 33.697,42.824999999999996 C 34.072,43.67399999999999 33.689,44.663999999999994 32.84,45.03999999999999 C 32.61900000000001,45.13799999999999 32.388000000000005,45.18399999999999 32.161,45.18399999999999 C 31.516000000000002,45.18399999999999 30.902,44.80999999999999 30.624000000000002,44.18399999999999 L 27.770000000000003,37.72899999999999 C 27.395,36.88 27.779,35.887 28.628,35.513 M 3.154,60.834 C 3.287,59.914 4.143,59.285000000000004 5.058,59.412000000000006 L 13.276,60.604000000000006 C 14.193999999999999,60.73700000000001 14.83,61.589000000000006 14.697,62.50800000000001 C 14.575,63.34500000000001 13.857999999999999,63.94700000000001 13.036,63.94700000000001 C 12.956,63.94700000000001 12.873999999999999,63.94000000000001 12.793,63.92800000000001 L 4.574999999999999,62.73700000000001 C 3.657,62.603 3.021,61.751 3.154,60.834 M 4.815,74.148 C 3.9940000000000007,74.148 3.2750000000000004,73.545 3.1540000000000004,72.709 C 3.0210000000000004,71.792 3.6570000000000005,70.93900000000001 4.575,70.805 L 12.793,69.614 C 13.710999999999999,69.48700000000001 14.564,70.117 14.697,71.03500000000001 C 14.828999999999999,71.95400000000001 14.193999999999999,72.80600000000001 13.276,72.93900000000001 L 5.058,74.131 C 4.977,74.142 4.896,74.148 4.815,74.148 M 17.291,80.787 L 10.063,84.221 C 9.83,84.33200000000001 9.585,84.38300000000001 9.344000000000001,84.38300000000001 C 8.716000000000001,84.38300000000001 8.113000000000001,84.03000000000002 7.825000000000001,83.424 C 7.427000000000001,82.58600000000001 7.783000000000001,81.58500000000001 8.621,81.186 L 15.848,77.75300000000001 C 16.688000000000002,77.35500000000002 17.689,77.71100000000001 18.087,78.54900000000002 C 18.485,79.38700000000003 18.128,80.388 17.291,80.787 M 18.087,54.994 C 17.799,55.6 17.197,55.954 16.568,55.954 C 16.326,55.954 16.081000000000003,55.901 15.848,55.791000000000004 L 8.621,52.357000000000006 C 7.783,51.958000000000006 7.4270000000000005,50.956 7.825,50.11900000000001 C 8.223,49.279 9.224,48.92400000000001 10.063,49.321000000000005 L 17.291,52.75600000000001 C 18.128,53.154 18.485,54.156 18.087,54.994 M 24.411,48.933 C 24.082,49.268 23.647000000000002,49.437 23.212,49.437 C 22.787,49.437 22.362,49.277 22.035,48.957 L 16.671,43.695 C 16.009,43.045 15.998999999999999,41.981 16.648,41.319 C 17.298,40.656000000000006 18.361,40.647000000000006 19.024,41.296 L 24.388,46.558 C 25.05,47.207 25.061,48.271 24.411,48.933"/>
	<path cx="86.25" cy="28.306" d="M 72.5,28.306 A 13.75,9.5 0.0 1,0 100.0,28.306 A 13.75,9.5 0.0 1,0 72.5,28.306" rx="13.75" ry="9.5"/>
</svg>
