<?xml version="1.0" ?>
<svg xmlns="http://www.w3.org/2000/svg" xmlns:ev="http://www.w3.org/2001/xml-events" xmlns:xlink="http://www.w3.org/1999/xlink" baseProfile="full" enable-background="new 0 0 100 100" height="600px" version="1.1" viewBox="0 0 100 100" width="484px" x="0px" xml:space="preserve" y="0px">
	<defs/>
	<path d="M 23.742,82.457 C 23.397000000000002,83.366 23.145,84.21 22.597,86.28899999999999 C 21.884,89.00199999999998 21.822000000000003,89.13899999999998 20.727,90.28199999999998 C 19.306,91.76999999999998 18.229,92.46599999999998 15.738,93.49799999999998 C 14.459,94.02699999999997 13.905,94.33599999999997 13.498999999999999,94.72899999999997 C 12.951999999999998,95.25799999999997 12.741999999999999,95.76799999999997 12.661999999999999,96.72899999999997 C 12.569999999999999,97.89099999999998 13.222,98.83799999999997 14.605999999999998,99.55099999999997 C 14.894999999999998,99.69799999999998 15.306999999999999,99.86999999999998 15.528999999999998,99.92699999999998 C 15.717999999999998,99.97699999999998 15.897999999999998,99.99899999999998 16.052,99.99899999999998 C 16.363,99.99899999999998 16.573999999999998,99.90399999999998 16.573999999999998,99.73599999999998 C 16.573999999999998,99.68699999999997 16.284999999999997,99.34199999999997 15.934999999999999,98.96599999999998 C 15.041999999999998,98.02499999999998 14.828,97.52799999999998 15.060999999999998,96.91099999999997 C 15.251999999999999,96.42499999999997 16.095,95.76099999999997 17.096999999999998,95.31099999999998 C 17.576999999999998,95.09499999999998 20.4,93.96999999999998 21.034,93.73599999999998 C 21.782999999999998,93.46199999999997 22.333,93.32199999999997 22.79,93.32199999999997 C 23.307,93.32199999999997 23.707,93.49999999999997 24.141,93.86699999999998 L 24.436,94.11199999999998 L 30.451999999999998,94.09899999999998 L 36.474999999999994,94.08099999999997 L 36.455999999999996,93.61799999999998 C 36.4,92.41999999999999 36.086999999999996,92.17999999999998 34.456999999999994,92.08699999999997 C 33.99499999999999,92.06299999999997 33.596,92.02599999999997 33.58299999999999,92.00799999999998 C 33.52799999999999,91.95799999999998 33.767999999999994,91.39299999999999 34.166999999999994,90.60499999999998 C 34.879999999999995,89.20799999999997 35.858,87.87999999999998 36.41799999999999,87.55299999999997 C 36.60699999999999,87.44399999999997 36.69199999999999,87.40699999999997 36.91799999999999,87.40699999999997 C 36.992999999999995,87.40699999999997 37.08399999999999,87.41299999999997 37.19899999999999,87.41899999999997 C 37.77799999999999,87.44899999999997 38.102999999999994,87.58499999999997 38.398999999999994,87.92399999999996 C 38.644999999999996,88.20499999999997 38.711999999999996,88.43999999999997 38.81099999999999,89.38199999999996 C 38.87299999999999,89.95199999999996 38.93999999999999,90.27899999999997 39.081999999999994,90.63699999999996 C 39.77799999999999,92.43699999999995 41.843999999999994,94.42599999999996 43.016999999999996,94.42599999999996 C 43.025999999999996,94.42599999999996 43.035,94.42599999999996 43.043,94.42599999999996 C 43.443,94.41999999999996 43.621,94.29499999999996 43.842999999999996,93.86599999999996 C 44.04,93.47799999999995 44.065,93.04199999999996 43.910999999999994,92.73899999999996 C 43.855,92.62999999999997 43.535999999999994,92.25999999999996 43.209999999999994,91.91499999999996 C 41.751999999999995,90.40199999999996 41.303,89.20199999999997 41.303,86.81499999999997 C 41.303,84.39199999999997 41.776999999999994,82.61299999999997 42.817,81.14899999999997 C 42.964,80.93899999999998 43.463,80.36099999999998 43.924,79.85799999999998 C 45.394,78.25199999999998 45.683,77.63099999999997 45.683,76.08699999999997 C 45.677,75.19399999999997 45.616,74.72199999999998 45.357,73.76199999999997 C 44.92,72.10799999999998 45.067,71.30799999999998 45.99,70.27399999999997 C 46.618,69.56699999999998 46.673,69.32099999999997 46.451,68.14499999999997 C 46.205,66.85899999999997 46.113,66.29399999999997 45.983,65.16899999999997 C 45.817,63.75299999999997 45.693999999999996,63.43899999999997 45.257,63.25499999999997 C 45.132999999999996,63.19999999999997 45.007,63.173999999999964 44.878,63.173999999999964 C 44.725,63.173999999999964 44.569,63.21199999999996 44.409,63.28499999999996 C 44.260999999999996,63.35299999999996 43.873,63.69699999999996 43.443,64.13899999999997 C 42.625,64.98899999999996 42.230999999999995,65.27799999999996 41.702,65.41299999999997 C 41.474,65.46999999999997 41.256,65.50199999999997 41.031,65.50199999999997 C 40.417,65.50199999999997 39.743,65.27199999999996 38.632,64.71799999999996 C 37.753,64.28099999999996 37.531,64.18899999999996 37.278,64.18899999999996 C 37.25,64.18899999999996 37.224,64.18899999999996 37.199999999999996,64.18899999999996 C 36.992,64.18899999999996 36.946,64.22099999999996 36.834999999999994,64.38499999999996 C 36.65599999999999,64.64399999999996 36.59499999999999,65.12399999999997 36.64999999999999,65.83699999999996 C 36.69899999999999,66.61699999999996 36.85799999999999,67.26999999999997 37.36299999999999,68.80299999999995 C 37.85499999999999,70.30499999999995 37.98499999999999,70.83199999999995 37.99699999999999,71.40999999999995 C 38.00899999999999,71.98899999999995 37.879999999999995,72.37099999999995 37.584999999999994,72.67099999999995 C 37.24699999999999,73.00399999999995 36.95099999999999,73.09699999999995 35.425,73.34899999999995 C 33.074999999999996,73.74199999999995 31.554999999999996,74.19199999999995 30.109999999999996,74.91199999999995 C 27.248,76.349 25.089,78.901 23.742,82.457" fill="#000000"/>
	<path d="M 58.024,57.882 L 56.567,52.826 C 56.483,52.539 56.539,52.230000000000004 56.713,51.99 C 56.887,51.749 57.162,51.601 57.461,51.59 L 66.691,51.246 L 73.919,33.515 L 80.971,33.515 C 82.71600000000001,33.515 84.14200000000001,32.109 84.14200000000001,30.342 C 84.14200000000001,29.212 83.52600000000001,28.212 82.63300000000001,27.657 L 71.811,21.863 C 71.49000000000001,21.692999999999998 71.11000000000001,21.607 70.768,21.586 L 66.166,21.607 C 65.72,21.053 65.312,20.393 65.01599999999999,19.753999999999998 C 64.67599999999999,19.029999999999998 64.824,18.156 65.42099999999999,17.538999999999998 C 65.80699999999999,17.154999999999998 66.315,16.985 66.82499999999999,16.985 L 74.81499999999998,16.985 C 75.87999999999998,16.985 76.75399999999999,16.112 76.75399999999999,15.026 C 76.75399999999999,13.961 75.87899999999999,13.087 74.815,13.087 L 66.74,13.087 C 65.761,13.087 64.86699999999999,13.322 64.07799999999999,13.77 C 64.71799999999999,8.231 69.44699999999999,3.9290000000000003 75.15499999999999,3.9290000000000003 C 76.24199999999999,3.9290000000000003 77.11399999999999,3.0130000000000003 77.11399999999999,1.9480000000000002 C 77.11399999999999,0.8620000000000001 76.24199999999999,-0.011999999999999789 75.15499999999999,-0.011999999999999789 C 66.80599999999998,-0.011999999999999789 60.03199999999999,6.7620000000000005 60.02999999999999,15.091999999999999 C 60.02999999999999,17.456 60.58499999999999,19.692999999999998 61.54099999999999,21.695999999999998 L 57.68799999999999,21.674999999999997 C 57.23999999999999,21.674999999999997 56.877999999999986,22.036999999999995 56.877999999999986,22.505999999999997 C 56.877999999999986,22.740999999999996 56.98399999999999,22.953999999999997 57.15399999999999,23.102999999999998 L 62.43599999999999,28.363 L 56.06699999999999,38.161 L 15.959,38.161 C 12.786,38.161 10.145,40.781 9.995999999999999,43.933 L 9.995999999999999,59.975 C 9.995999999999999,60.230000000000004 10.208999999999998,60.421 10.442999999999998,60.421 C 10.633999999999999,60.421 10.803999999999998,60.313 10.868999999999998,60.141 L 13.829999999999998,55.521 L 13.829999999999998,62.72 L 10.017999999999999,68.77 L 10.039,84.68299999999999 C 10.039,86.94 11.87,88.749 14.108,88.749 C 16.365000000000002,88.749 18.197000000000003,86.939 18.197000000000003,84.68299999999999 L 18.197000000000003,69.662 L 22.819000000000003,63.464000000000006 L 22.819000000000003,70.53500000000001 L 26.308000000000003,76.52000000000001 C 27.301000000000002,75.51 28.422000000000004,74.67900000000002 29.683000000000003,74.04700000000001 C 30.843000000000004,73.47100000000002 32.051,73.05700000000002 33.621,72.71200000000002 L 30.168000000000003,66.70000000000002 L 33.854,61.09900000000002 L 50.235,61.09900000000002 L 50.235,84.97600000000001 C 50.235,87.21200000000002 52.046,89.04400000000001 54.302,89.04400000000001 C 56.562,89.04400000000001 58.391999999999996,87.21400000000001 58.391999999999996,84.97600000000001 L 58.391999999999996,62.782 L 61.0,60.173 C 59.63,59.131 58.49,58.464 58.471000000000004,58.45 C 58.254,58.325 58.095,58.121 58.024,57.882" fill="#000000"/>
	<path d="M 65.035,62.649 L 58.628,93.522 C 56.97,94.135 56.537,95.81800000000001 56.537,95.81800000000001 L 58.815,95.81800000000001 C 58.815,93.43700000000001 62.434999999999995,92.43100000000001 62.483999999999995,92.43100000000001 C 62.48799999999999,92.43100000000001 62.49399999999999,92.43100000000001 62.49999999999999,92.43100000000001 L 66.27099999999999,80.98400000000001 L 67.79399999999998,86.13900000000001 C 70.48599999999999,82.483 75.54399999999998,81.39800000000001 75.54399999999998,81.39800000000001 L 76.23199999999999,82.63600000000001 C 71.81499999999998,83.96900000000001 69.62899999999999,86.096 68.54799999999999,87.89200000000001 C 68.28499999999998,88.33000000000001 68.05599999999998,88.82300000000001 67.86899999999999,89.33200000000001 C 67.84899999999999,89.38400000000001 67.82899999999998,89.471 67.81399999999998,89.521 C 67.80199999999998,89.549 67.79399999999998,89.648 67.78599999999997,89.678 C 67.46999999999997,90.66 67.48699999999997,91.462 67.48699999999997,91.462 L 67.40699999999997,91.462 C 67.35599999999997,91.462 67.32599999999996,92.129 67.32599999999996,92.559 C 67.32599999999996,92.559 60.26599999999996,93.094 60.26599999999996,95.817 L 72.11099999999996,95.817 L 81.11399999999996,95.817 L 86.77299999999997,95.817 C 86.77299999999997,95.817 88.38699999999997,95.03599999999999 89.20599999999996,94.02399999999999 C 91.25599999999996,91.49899999999998 90.48399999999997,87.05499999999999 90.48399999999997,87.05499999999999 C 88.54299999999996,89.782 86.60199999999996,90.99199999999999 85.55499999999996,91.48899999999999 L 79.81699999999996,73.752 L 69.166,48.27 L 68.459,52.148 L 57.497,52.556000000000004 L 58.955,57.61300000000001 C 58.955,57.613 62.777,59.827 65.035,62.649" fill="#000000"/>
	<path d="M 22.911,11.586 C 22.806,11.568 22.691000000000003,11.559000000000001 22.57,11.559000000000001 C 21.97,11.559000000000001 21.183,11.789000000000001 20.403,12.097000000000001 C 19.869999999999997,9.585 15.558,4.081000000000001 15.558,3.503000000000002 C 23.299,2.853000000000002 28.011,13.334000000000001 28.328,13.869000000000002 C 28.325,13.968000000000002 28.285999999999998,14.059000000000001 28.229,14.144000000000002 C 27.688,14.412000000000003 27.099999999999998,14.490000000000002 26.77,14.510000000000002 C 26.098,13.739 24.281,11.789 22.911,11.586" fill="#000000"/>
	<path d="M 22.815,12.193 C 24.199,12.391 26.491,15.129999999999999 26.491,15.129999999999999 C 26.491,15.129999999999999 26.514,15.130999999999998 26.557,15.130999999999998 C 26.930999999999997,15.130999999999998 28.765,15.060999999999998 29.625999999999998,13.719999999999999 C 29.682999999999996,13.012999999999998 27.903,11.433 31.403,10.980999999999998 C 32.913,10.641999999999998 40.277,7.052999999999998 41.463,5.216999999999998 C 46.322,16.403999999999996 35.757,18.014 35.757,18.014 C 35.757,18.014 35.559,18.747999999999998 35.163,19.173 C 35.031,19.314999999999998 34.726,19.360999999999997 34.378,19.360999999999997 C 33.714,19.360999999999997 32.895,19.189999999999998 32.824,19.173999999999996 C 32.943999999999996,19.219999999999995 34.879999999999995,19.937999999999995 35.784,20.019999999999996 C 35.852,20.025999999999996 35.951,20.028999999999996 36.076,20.028999999999996 C 37.686,20.028999999999996 43.666,19.567999999999998 43.666,19.567999999999998 C 42.227,24.339 39.004,25.595999999999997 36.010999999999996,25.595999999999997 C 32.681,25.595999999999997 29.635999999999996,24.042999999999996 29.635999999999996,24.042999999999996 L 32.254,23.353999999999996 C 32.254,23.353999999999996 28.836999999999996,23.220999999999997 27.732999999999997,22.873999999999995 C 22.382999999999996,21.184999999999995 21.772999999999996,16.997999999999994 21.772999999999996,16.997999999999994 C 21.772999999999996,16.997999999999994 21.674999999999997,15.043999999999993 17.705,14.143999999999995 C 18.105999999999998,13.840999999999994 21.131999999999998,12.173999999999994 22.57,12.173999999999994 C 22.658,12.174 22.74,12.18 22.815,12.193" fill="#000000"/>
</svg>
