<?xml version="1.0" ?>
<svg xmlns="http://www.w3.org/2000/svg" xmlns:ev="http://www.w3.org/2001/xml-events" xmlns:xlink="http://www.w3.org/1999/xlink" baseProfile="full" enable-background="new 0 0 100 88.889" height="534px" version="1.1" viewBox="0 0 100 88.889" width="600px" x="0px" xml:space="preserve" y="0px">
	<defs/>
	<path d="M 45.52,15.663 C 45.145,14.279 43.902,13.924 42.691,14.648 C 39.754000000000005,16.406 41.529,26.988999999999997 38.888000000000005,29.166 C 36.348000000000006,31.26 29.683000000000007,31.269000000000002 26.019000000000005,31.176000000000002 C 23.225000000000005,31.105 18.105000000000004,30.879 14.841000000000005,31.322000000000003 C 8.955000000000005,32.122 8.264000000000005,52.909000000000006 8.973000000000004,54.621 C 10.015000000000004,57.14 13.005000000000004,56.691 13.447000000000005,55.457 C 14.684000000000005,52.008 13.864000000000004,42.007000000000005 16.107000000000006,39.767 C 18.102000000000007,37.773 18.154000000000007,38.736000000000004 18.154000000000007,41.236000000000004 C 18.154000000000007,43.855000000000004 18.154000000000007,52.614000000000004 18.154000000000007,52.614000000000004 L 17.083000000000006,61.759 C 17.083000000000006,61.759 15.948000000000006,79.977 14.364000000000006,85.82 C 14.096000000000005,86.80999999999999 13.004000000000007,88.88799999999999 17.083000000000006,88.88799999999999 C 19.870000000000005,88.88799999999999 20.775000000000006,83.258 20.775000000000006,83.258 C 20.775000000000006,83.258 22.415000000000006,62.032 26.391000000000005,63.119 C 30.366000000000007,64.208 28.702000000000005,79.611 28.702000000000005,85.139 C 28.702000000000005,87.38199999999999 29.396000000000004,89.755 31.762000000000004,88.267 C 34.69200000000001,86.423 34.345000000000006,78.616 34.345000000000006,78.616 L 34.873000000000005,52.614999999999995 C 34.873000000000005,52.614999999999995 35.83200000000001,42.403999999999996 37.495000000000005,39.50399999999999 C 38.648,37.49399999999999 41.39300000000001,35.01699999999999 42.905,32.95199999999999 C 45.07,29.994 46.497,19.268 45.52,15.663"/>
	<path d="M 27.332,18.607 C 24.484,18.607 22.166,20.631 22.166,23.118 C 22.166,25.604999999999997 24.483,27.628999999999998 27.332,27.628999999999998 C 30.181,27.628999999999998 32.499,25.604999999999997 32.499,23.118 C 32.499,20.631 30.181,18.607 27.332,18.607"/>
	<path d="M 91.378,19.119 C 90.767,18.658 89.896,18.777 89.432,19.387 C 89.21300000000001,19.674 88.676,19.971 88.159,20.259 C 87.53500000000001,20.606 86.82700000000001,20.998 86.26,21.577 C 86.057,21.785 85.878,21.994000000000003 85.697,22.202 C 85.342,21.872000000000003 84.983,21.555000000000003 84.62700000000001,21.246000000000002 C 83.84700000000001,20.572000000000003 83.111,19.936000000000003 82.51,19.184 C 82.03,18.583000000000002 81.156,18.485 80.557,18.968 C 79.958,19.447 79.863,20.32 80.34100000000001,20.92 C 81.102,21.871000000000002 81.97000000000001,22.621000000000002 82.811,23.347 C 83.07900000000001,23.579 83.34,23.808 83.59500000000001,24.037000000000003 C 82.91600000000001,24.482000000000003 82.23800000000001,24.927000000000003 81.555,25.366000000000003 C 80.91000000000001,25.780000000000005 80.266,26.195000000000004 79.623,26.615000000000002 C 78.98,27.035 78.801,27.895000000000003 79.22200000000001,28.537000000000003 C 79.48800000000001,28.945000000000004 79.933,29.166000000000004 80.38600000000001,29.166000000000004 C 80.64600000000002,29.166000000000004 80.909,29.093000000000004 81.144,28.939000000000004 C 81.78,28.522000000000002 82.42,28.112000000000002 83.058,27.701000000000004 C 83.85300000000001,27.190000000000005 84.64500000000001,26.676000000000005 85.43400000000001,26.155000000000005 C 85.49600000000001,26.259000000000004 85.56400000000001,26.365000000000006 85.62200000000001,26.468000000000004 C 85.88100000000001,26.929000000000002 86.17500000000001,27.453000000000003 86.66900000000001,27.953000000000003 C 86.808,28.093000000000004 86.93800000000002,28.213000000000005 87.06000000000002,28.327 C 87.35700000000001,28.604000000000003 87.50500000000001,28.744000000000003 87.67100000000002,29.049000000000003 C 87.92400000000002,29.511000000000003 88.40000000000002,29.774000000000004 88.89400000000002,29.774000000000004 C 89.11800000000002,29.774000000000004 89.34400000000002,29.719000000000005 89.55600000000003,29.604000000000003 C 90.23000000000003,29.238000000000003 90.47800000000002,28.395000000000003 90.11200000000002,27.720000000000002 C 89.72900000000003,27.020000000000003 89.31900000000002,26.635 88.95500000000003,26.297000000000004 C 88.85600000000002,26.205000000000005 88.75200000000002,26.107000000000003 88.64200000000002,25.996000000000006 C 88.41400000000003,25.767000000000007 88.25100000000002,25.477000000000007 88.04500000000003,25.109000000000005 C 87.89700000000003,24.842000000000006 87.74000000000002,24.567000000000004 87.55500000000004,24.294000000000004 C 87.58100000000003,24.263000000000005 87.61200000000004,24.229000000000003 87.63700000000003,24.199000000000005 C 87.83100000000003,23.974000000000004 88.02700000000003,23.744000000000007 88.24900000000002,23.518000000000004 C 88.53100000000002,23.229000000000003 89.00600000000003,22.966000000000005 89.50900000000003,22.687000000000005 C 90.24200000000003,22.280000000000005 91.07500000000003,21.819000000000006 91.64800000000002,21.064000000000004 C 92.108,20.455 91.989,19.583 91.378,19.119"/>
	<path d="M 0.0,1.389 L 0.0,50.0 L 5.993,50.0 C 6.143000000000001,44.425 7.24,36.426 9.595,32.326 C 10.874,30.1 12.512,28.836 14.467,28.57 C 15.916,28.375 17.777,28.278 20.157,28.278 C 20.692,28.278 21.221,28.285 21.742,28.291 C 20.289,26.969 19.388,25.139 19.388,23.118000000000002 C 19.388,19.099000000000004 22.951,15.829000000000002 27.331000000000003,15.829000000000002 C 31.711000000000006,15.829000000000002 35.275000000000006,19.099000000000004 35.275000000000006,23.118000000000002 C 35.275000000000006,25.083000000000002 34.42000000000001,26.866000000000003 33.037000000000006,28.179000000000002 C 35.681000000000004,27.863000000000003 36.706,27.330000000000002 37.056000000000004,27.075000000000003 C 37.525000000000006,26.326000000000004 37.751000000000005,23.516000000000002 37.88700000000001,21.823000000000004 C 38.214000000000006,17.751000000000005 38.52300000000001,13.906000000000004 41.26500000000001,12.263000000000003 C 42.09700000000001,11.767000000000003 43.00600000000001,11.504000000000003 43.89600000000001,11.504000000000003 C 45.94500000000001,11.504000000000003 47.635000000000005,12.849000000000004 48.20100000000001,14.936000000000003 C 49.36500000000001,19.228 47.848000000000006,30.901000000000003 45.14900000000001,34.592 C 44.42100000000001,35.588 43.49000000000001,36.612 42.59000000000001,37.603 C 41.52300000000001,38.777 40.421000000000014,39.99 39.90600000000001,40.887 C 39.23300000000001,42.06 38.46500000000001,46.074 37.96100000000001,50.0 L 45.83300000000001,50.0 L 45.83300000000001,45.833 L 55.555000000000014,45.833 L 55.555000000000014,50.0 L 59.72100000000002,50.0 L 59.72100000000002,45.833 L 69.44400000000002,45.833 L 69.44400000000002,50.0 L 100.0,50.0 L 100.0,0.0 L 0.0,1.389 M 47.324,9.132 C 46.15,9.253 45.181999999999995,9.672 45.032,9.905999999999999 L 42.46,8.859 C 43.237,6.909 46.160000000000004,6.46 47.037,6.367 L 47.554,9.107 L 47.324,9.132 M 55.403,9.206 C 54.722,9.054 54.039,8.963 53.372,8.936 C 52.828,8.914 52.281,8.903 51.734,8.903 L 51.561,8.903 L 51.561,6.125 L 51.734,6.125 C 52.319,6.125 52.903,6.136 53.485,6.16 C 54.317,6.194 55.166,6.306 56.008,6.495 L 55.403,9.206 M 61.976,12.776 C 61.07,11.904 60.043,11.151 58.924,10.541 L 60.253,8.102 C 61.59,8.832 62.819,9.731 63.902,10.777000000000001 L 61.976,12.776 M 66.592,19.334 C 66.107,18.61 65.642,17.868 65.179,17.131 C 64.9,16.683 64.62,16.237000000000002 64.33800000000001,15.798 L 66.674,14.296 C 66.96100000000001,14.745 67.247,15.2 67.533,15.655999999999999 C 67.981,16.369 68.429,17.087 68.899,17.788 L 66.592,19.334 M 73.109,25.529 C 72.75399999999999,25.369 72.41499999999999,25.194 72.094,25.002 C 71.115,24.41 70.21199999999999,23.689999999999998 69.335,22.798 L 71.31599999999999,20.849999999999998 C 72.02799999999999,21.573999999999998 72.75099999999999,22.153 73.52799999999999,22.621999999999996 C 73.75399999999999,22.757999999999996 73.99199999999999,22.880999999999997 74.24199999999999,22.992999999999995 L 73.109,25.529 M 95.835,24.315 C 95.707,27.786 94.514,29.665 92.148,32.189 C 90.72099999999999,33.711 89.807,34.135 87.702,34.034 C 86.03399999999999,33.954 84.262,33.752 82.68299999999999,33.192 C 79.806,32.171 77.88399999999999,30.066 76.64099999999999,27.315 C 75.79799999999999,25.455000000000002 76.01799999999999,22.405 76.81899999999999,20.577 C 77.36999999999999,19.321 78.15099999999998,17.986 79.21399999999998,17.107000000000003 C 80.67399999999998,15.900000000000002 82.20399999999998,15.626000000000003 84.02599999999998,15.626000000000003 C 87.39499999999998,15.626000000000003 90.86799999999998,15.798000000000004 93.62999999999998,18.019000000000002 C 95.645,19.637 95.926,21.88 95.835,24.315"/>
	<path d="M 98.611,52.777 L 37.698,52.777 L 37.641,55.555 L 98.61,55.555 C 99.378,55.555 99.999,54.934 99.999,54.166 C 100.0,53.398 99.378,52.777 98.611,52.777"/>
	<path d="M 6.052,52.777 L 1.389,52.777 C 0.622,52.777 0.0,53.398 0.0,54.167 C 0.0,54.935 0.622,55.556000000000004 1.389,55.556000000000004 L 6.4190000000000005,55.556000000000004 C 6.229,55.013 6.105,54.043 6.052,52.777"/>
</svg>
