<?xml version="1.0" ?>
<svg xmlns="http://www.w3.org/2000/svg" xmlns:ev="http://www.w3.org/2001/xml-events" xmlns:xlink="http://www.w3.org/1999/xlink" baseProfile="full" enable-background="new 0 0 100 76.792" height="461px" version="1.1" viewBox="0 0 100 76.792" width="600px" x="0px" xml:space="preserve" y="0px">
	<defs/>
	<path d="M 77.748,31.958 C 76.394,30.921999999999997 75.22200000000001,30.028 75.22200000000001,28.823999999999998 C 75.22200000000001,25.113999999999997 71.55000000000001,23.113 68.09500000000001,23.113 C 67.00300000000001,23.113 66.00900000000001,23.315 65.22000000000001,23.695999999999998 C 64.92000000000002,23.842 64.63100000000001,23.915 64.36300000000001,23.915 C 63.50100000000001,23.915 62.97000000000001,23.151 62.87400000000002,23.0 C 61.45500000000002,20.757 59.51300000000002,19.621 57.10200000000002,19.621 C 55.10800000000002,19.621 53.179000000000016,20.394 51.77000000000002,20.959 C 51.15700000000002,21.206 50.524000000000015,21.459 50.20000000000002,21.504 C 48.77000000000002,19.815 46.22100000000002,18.812 43.335000000000015,18.812 C 40.08900000000001,18.812 36.29700000000001,20.162000000000003 35.14100000000001,23.18 C 34.99800000000001,23.55 34.53100000000001,23.738 33.74900000000001,23.738 C 33.29400000000001,23.738 32.84700000000001,23.673 32.54800000000001,23.623 C 31.99600000000001,23.531000000000002 31.454000000000008,23.484 30.934000000000008,23.484 C 24.24300000000001,23.484 22.45900000000001,31.001 22.12400000000001,32.839 C 20.79900000000001,33.440999999999995 16.32700000000001,35.728 14.77000000000001,39.823 C 13.89400000000001,42.129 14.09700000000001,44.592 15.37400000000001,47.146 C 17.117000000000008,50.633 20.90500000000001,52.715 25.504000000000012,52.715 C 27.08400000000001,52.713 28.63900000000001,52.444 29.769000000000013,51.977000000000004 C 29.96000000000001,51.898 30.130000000000013,51.86000000000001 30.301000000000013,51.86000000000001 C 30.999000000000013,51.86000000000001 31.961000000000013,52.52400000000001 33.51400000000001,54.078 C 34.22900000000001,54.793000000000006 35.610000000000014,55.203 37.30500000000001,55.203 C 39.54200000000001,55.203 42.25500000000001,54.464000000000006 43.68000000000001,52.831 C 45.09100000000001,53.662000000000006 49.022000000000006,56.080000000000005 51.52400000000001,58.582 C 55.714000000000006,62.771 53.284000000000006,75.833 53.25800000000001,75.965 L 53.104000000000006,76.778 L 64.73500000000001,76.793 L 64.79300000000002,76.16300000000001 C 65.57100000000003,67.72600000000001 70.11500000000002,65.56500000000001 70.19200000000002,65.51700000000001 C 73.46200000000002,64.70000000000002 75.70600000000002,63.21400000000001 76.86600000000003,61.10000000000001 C 77.97600000000003,59.07800000000001 77.76000000000003,57.05800000000001 77.56800000000003,56.135000000000005 C 83.33200000000002,51.956 80.68500000000003,46.12700000000001 79.83700000000003,44.584 C 84.258,36.932 80.502,34.062 77.748,31.958 M 71.943,42.956 C 72.773,44.695 73.317,46.708000000000006 73.00999999999999,48.832 C 72.70599999999999,51.006 71.407,52.763 69.984,54.107 C 72.618,55.787 73.71799999999999,59.763999999999996 72.353,59.284 C 71.02799999999999,58.821 71.351,55.47 68.192,55.585 C 66.698,56.7 65.20599999999999,57.583 64.10499999999999,58.701 C 61.37999999999999,61.446 59.94299999999999,65.063 59.24299999999999,68.206 C 58.548999999999985,71.373 58.63199999999999,74.86200000000001 58.59399999999999,76.78200000000001 L 57.52299999999999,76.78200000000001 C 57.37699999999999,74.852 57.43399999999999,71.31300000000002 57.97599999999999,67.96400000000001 C 58.22899999999999,66.29100000000001 58.65999999999999,64.48500000000001 59.37199999999999,62.63900000000001 C 60.086999999999996,60.79900000000001 61.13999999999999,58.92100000000001 62.66799999999999,57.30300000000001 C 64.223,55.634000000000015 66.14599999999999,54.53100000000001 67.69099999999999,53.21200000000001 C 68.874,52.23000000000001 69.871,51.09100000000001 70.42099999999999,49.81300000000001 C 67.29799999999999,44.42700000000001 64.37599999999999,48.77600000000001 62.62799999999999,48.02000000000001 C 60.770999999999994,47.22000000000001 66.94,43.73100000000001 70.74799999999999,46.15700000000001 C 70.529,45.04100000000001 70.08099999999999,43.92000000000001 69.535,42.85800000000001 C 69.073,41.97300000000001 68.488,40.98900000000001 67.90899999999999,40.40600000000001 C 67.28099999999999,39.737000000000016 66.469,39.22000000000001 65.621,38.76400000000001 C 63.90599999999999,37.86700000000001 61.989999999999995,37.32400000000001 60.178,36.75900000000001 C 59.461999999999996,36.541000000000004 58.744,36.47200000000001 58.043,36.42000000000001 C 57.36,37.09000000000001 56.141999999999996,38.473000000000006 55.66,39.44400000000001 C 55.172,40.42100000000001 54.718999999999994,41.46600000000001 54.407999999999994,42.52700000000001 C 54.245999999999995,43.05300000000001 54.123,43.58700000000001 54.032999999999994,44.11200000000001 C 54.038,44.63200000000001 53.84499999999999,45.16000000000001 53.92999999999999,45.65500000000001 C 53.92699999999999,46.66000000000001 54.11099999999999,47.62400000000001 54.38699999999999,48.43700000000001 C 54.54999999999999,48.835000000000015 54.63399999999999,49.24900000000001 54.78699999999999,49.58100000000001 C 54.94499999999999,49.91900000000001 55.24499999999999,50.17600000000001 55.21999999999999,50.44200000000001 C 55.04299999999999,52.13000000000001 53.13099999999999,49.096000000000004 53.13099999999999,49.096000000000004 C 52.782,48.713 52.535999999999994,48.215 52.30799999999999,47.667 C 52.02199999999999,47.133 51.86999999999999,46.518 51.766999999999996,45.866 C 51.65,45.409 51.641999999999996,44.938 51.653,44.457 C 47.858,42.660000000000004 46.929,46.795 45.217,46.805 C 43.177,46.818 47.525,41.044 52.033,41.867 C 52.037,41.852 52.04,41.836 52.044000000000004,41.821 C 52.482000000000006,40.522 53.068000000000005,39.305 53.807,38.315 C 54.224000000000004,37.723 55.02,36.861999999999995 55.755,36.123 C 55.493,36.052 55.234,35.967999999999996 54.985,35.846 C 53.581,35.153999999999996 51.378,33.985 50.304,32.988 L 50.325,33.014 C 49.568000000000005,33.467000000000006 47.494,34.510000000000005 46.417,34.831 C 45.456,35.148 44.366,35.286 43.25,35.315000000000005 C 43.248,35.324000000000005 43.246,35.331 43.242,35.34100000000001 C 42.942,36.11700000000001 42.364,37.229000000000006 41.256,38.25900000000001 C 40.714,38.77600000000001 40.048,39.293000000000006 39.25,39.65700000000001 C 38.473,40.058000000000014 37.582,40.37400000000001 36.643,40.52000000000001 C 36.174,40.63000000000001 35.697,40.65700000000001 35.209,40.68600000000001 C 34.720000000000006,40.74000000000001 34.229000000000006,40.73700000000001 33.743,40.67900000000001 C 32.787,40.65700000000001 31.718000000000004,40.403000000000006 30.906000000000002,40.26600000000001 C 30.007,40.08700000000001 29.053,39.85800000000001 28.362000000000002,39.878000000000014 C 27.623,39.84300000000002 26.815,39.871000000000016 26.143,40.08000000000001 C 25.447,40.25500000000001 24.85,40.591000000000015 24.294,40.97300000000001 C 23.788,41.41200000000001 23.317,41.884000000000015 22.963,42.41300000000001 C 22.247,43.46300000000001 22.204,44.64500000000001 21.768,45.31500000000001 C 21.287,46.05700000000001 20.691000000000003,45.22800000000001 20.667,45.03800000000001 C 20.556,44.21800000000001 20.98,43.12900000000001 21.535,41.71600000000001 C 21.81,41.01200000000001 22.415,40.30500000000001 23.024,39.61800000000001 C 23.667,38.976000000000006 24.467000000000002,38.33700000000001 25.433,38.01000000000001 C 25.909,37.83400000000001 26.399,37.655000000000015 26.903,37.60500000000001 C 27.409,37.51200000000001 27.924,37.430000000000014 28.456999999999997,37.48000000000001 C 29.590999999999998,37.46900000000001 30.436999999999998,37.671000000000014 31.351999999999997,37.82200000000001 C 32.351,38.02400000000001 33.07599999999999,38.23700000000001 33.937,38.29000000000001 C 34.766,38.39400000000001 35.58,38.426000000000016 36.349999999999994,38.356000000000016 C 37.12199999999999,38.29300000000001 37.867,38.177000000000014 38.541,37.951000000000015 C 39.223,37.74800000000001 39.797999999999995,37.13500000000001 40.163,36.56200000000001 C 40.599,35.88500000000001 40.686,35.39800000000001 40.754,34.997000000000014 C 40.241,34.84000000000002 39.735,34.68800000000002 39.297,34.408000000000015 C 38.760999999999996,34.13000000000002 38.273999999999994,33.82100000000001 37.895999999999994,33.41800000000001 C 37.486,33.058000000000014 37.12799999999999,32.70300000000001 36.89999999999999,32.289000000000016 C 36.89999999999999,32.289000000000016 34.82899999999999,29.758000000000017 36.337999999999994,30.095000000000017 C 36.574999999999996,30.148000000000017 36.712999999999994,30.484000000000016 36.95799999999999,30.719000000000015 C 37.20099999999999,30.948000000000015 37.53399999999999,31.141000000000016 37.831999999999994,31.394000000000016 C 38.455999999999996,31.870000000000015 39.233999999999995,32.307000000000016 40.105,32.597000000000016 C 40.509,32.81500000000002 41.022,32.801000000000016 41.47,32.95500000000001 C 41.949,33.030000000000015 42.446999999999996,33.079000000000015 42.949,33.091000000000015 C 43.958,33.12900000000001 44.992999999999995,33.04100000000002 45.98,32.90100000000002 C 46.968999999999994,32.765000000000015 48.541999999999994,32.09500000000002 49.309999999999995,31.703000000000017 C 48.82899999999999,30.888000000000016 48.51,30.035000000000018 48.272999999999996,29.391000000000016 C 48.239999999999995,29.302000000000017 47.513999999999996,25.901000000000018 48.934999999999995,27.436000000000014 C 49.68599999999999,28.250000000000014 50.892999999999994,30.696000000000012 51.840999999999994,31.582000000000015 C 52.78999999999999,32.47100000000002 54.068999999999996,33.210000000000015 55.544999999999995,33.81900000000002 C 56.81099999999999,34.341000000000015 58.24399999999999,34.744000000000014 59.78099999999999,35.125000000000014 C 60.32299999999999,30.658000000000015 66.883,28.079000000000015 66.33599999999998,30.021000000000015 C 65.86799999999998,31.689000000000014 61.53199999999998,31.465000000000014 62.40199999999999,35.77600000000002 C 63.70599999999999,36.10400000000002 65.05899999999998,36.487000000000016 66.43199999999999,37.09600000000002 C 67.44299999999998,37.548000000000016 68.44099999999999,38.16300000000002 69.30999999999999,39.015000000000015 C 69.90899999999999,39.618000000000016 70.33399999999999,40.20300000000002 70.72599999999998,40.811000000000014 C 74.82099999999998,39.96500000000002 72.95199999999998,36.35200000000002 74.18599999999998,35.32100000000001 C 75.666,34.088 75.929,41.098 71.943,42.956"/>
	<path d="M 37.887,64.734 L 36.951,76.439 L 32.992,74.795 L 37.887,64.734" points="37.887,64.734 36.951,76.439 32.992,74.795 "/>
	<path d="M 21.722,60.972 L 18.917,70.726 L 14.658,68.257 L 21.722,60.972" points="21.722,60.972 18.917,70.726 14.658,68.257 "/>
	<path d="M 12.146,47.255 L 3.643,54.538 L 0.0,50.286 L 12.146,47.255" points="12.146,47.255 3.643,54.538 0,50.286 "/>
	<path d="M 85.792,47.455 L 100.0,47.242 L 98.474,52.202 L 85.792,47.455" points="85.792,47.455 100,47.242 98.474,52.202 "/>
	<path d="M 83.478,60.449 L 95.193,67.73 L 90.387,72.384 L 83.478,60.449" points="83.478,60.449 95.193,67.73 90.387,72.384 "/>
	<path d="M 49.099,14.628 L 54.258,2.583 L 48.238,0.0 L 49.099,14.628" points="49.099,14.628 54.258,2.583 48.238,0 "/>
	<path d="M 20.245,21.507 L 12.793,11.669 L 9.071,15.328 L 20.245,21.507" points="20.245,21.507 12.793,11.669 9.071,15.328 "/>
	<path d="M 79.53,23.637 L 85.787,15.375 L 88.914,18.447 L 79.53,23.637" points="79.53,23.637 85.787,15.375 88.914,18.447 "/>
	<path d="M 32.686,13.645 L 33.547,0.572 L 28.273,3.543 L 32.686,13.645" points="32.686,13.645 33.547,0.572 28.273,3.543 "/>
	<path d="M 66.502,15.983 L 72.304,5.101 L 66.565,3.464 L 66.502,15.983" points="66.502,15.983 72.304,5.101 66.565,3.464 "/>
	<path d="M 11.504,34.693 L 0.64,32.382 L 1.796,26.95 L 11.504,34.693" points="11.504,34.693 0.64,32.382 1.796,26.95 "/>
	<path d="M 84.221,34.693 L 95.085,32.382 L 93.93,26.95 L 84.221,34.693" points="84.221,34.693 95.085,32.382 93.93,26.95 "/>
</svg>
