<?xml version="1.0" ?>
<svg xmlns="http://www.w3.org/2000/svg" xmlns:ev="http://www.w3.org/2001/xml-events" xmlns:xlink="http://www.w3.org/1999/xlink" baseProfile="full" enable-background="new 0 0 66.348 100" height="600px" version="1.1" viewBox="0 0 66.348 100" width="399px" x="0px" xml:space="preserve" y="0px">
	<defs/>
	<path d="M 41.028,30.093 C 57.793,28.895 63.666,34.884 64.773,39.672 C 66.419,46.769 67.256,52.843999999999994 63.577,54.041 C 58.882,55.568 60.354,50.385 58.875,44.462999999999994 C 57.679,39.672 53.184,38.50999999999999 50.608000000000004,38.474999999999994 C 48.49100000000001,38.44599999999999 44.624,38.291999999999994 43.04600000000001,39.672 C 39.63700000000001,42.657 41.849000000000004,56.437 41.849000000000004,56.437 C 41.849000000000004,56.437 44.506,57.634 51.691,58.832 C 58.875,60.029 59.484,67.981 59.515,70.805 C 59.538000000000004,72.62700000000001 58.373,79.441 60.136,79.792 C 67.11800000000001,81.18900000000001 67.039,84.066 65.50200000000001,85.174 C 64.025,86.239 61.91100000000001,86.372 57.12100000000001,86.373 C 52.18300000000001,86.373 52.33100000000001,83.97800000000001 52.33100000000001,83.97800000000001 C 52.33100000000001,83.97800000000001 53.02900000000001,71.54500000000002 51.13400000000001,69.608 C 47.964000000000006,66.372 33.72800000000001,68.412 33.72800000000001,68.412 C 33.72800000000001,68.412 29.547000000000008,80.495 32.20400000000001,82.78200000000001 C 33.60000000000001,83.98200000000001 36.412000000000006,84.87400000000001 40.19800000000001,84.87100000000001 C 43.790000000000006,84.87100000000001 48.57300000000001,86.22200000000001 49.54900000000001,88.17200000000001 C 51.159000000000006,91.397 51.67000000000001,96.20700000000001 49.54900000000001,99.34500000000001 C 48.535000000000004,100.84600000000002 46.242000000000004,99.51200000000001 45.35900000000001,97.94900000000001 C 44.62200000000001,96.64500000000001 44.55200000000001,94.23100000000001 43.37800000000001,93.25500000000001 C 40.0,90.448 32.633,92.24 26.618,90.964 C 20.034999999999997,89.569 18.238,83.982 19.069,77.989 C 19.436999999999998,75.337 20.558,67.214 20.301,62.42400000000001 C 20.043,57.604000000000006 21.096,46.839000000000006 17.906,43.266000000000005 C 15.768999999999998,40.870000000000005 4.735999999999999,34.88300000000001 4.735999999999999,34.88300000000001 C -4.587,30.093 2.731,13.33 2.731,13.33 C 1.5339999999999998,3.75 9.780999999999999,6.1450000000000005 9.780999999999999,6.1450000000000005 C 9.780999999999999,6.1450000000000005 9.780999999999999,4.948 10.979,1.3560000000000008 C 11.825,-1.1849999999999992 13.559,0.45800000000000074 13.507,1.3550000000000009 C 13.373,3.751000000000001 13.507,6.146000000000001 13.507,9.737 C 13.507,13.33 9.917,15.724 9.917,15.724 C 7.521,27.7 8.016,27.07 11.919,30.093 C 17.981,34.788 23.595,33.153 26.659,32.487 C 31.451,31.448 41.028,30.093 41.028,30.093"/>
	<path d="M 28.244,11.476 C 22.278,11.432 18.933999999999997,15.643 18.933999999999997,20.786 C 18.933999999999997,25.927 23.693999999999996,29.928 28.244,30.095 C 33.606,30.29 37.554,25.927999999999997 37.554,20.786 C 37.554,15.643 33.609,11.516 28.244,11.476 M 28.712,28.117 C 24.523,28.117 22.427,23.927 22.427,23.927 C 22.427,23.927 29.41,26.72 34.996,23.927 C 34.997,23.927 32.902,28.117 28.712,28.117"/>
	<path d="M 43.582,82.231 L 38.198,82.231 L 38.198,79.539 L 43.582,82.231" points="43.582,82.231 38.198,82.231 38.198,79.539 "/>
	<path d="M 44.927,80.884 L 39.545,75.501 L 42.234,72.809 L 44.927,80.884" points="44.927,80.884 39.545,75.501 42.234,72.809 "/>
	<path d="M 47.619,79.539 L 46.274,74.157 L 48.964,74.157 L 47.619,79.539" points="47.619,79.539 46.274,74.157 48.964,74.157 "/>
	<path d="M 55.932,88.941 L 61.261,88.171 L 61.644,90.836 L 55.932,88.941" points="55.932,88.941 61.261,88.171 61.644,90.836 "/>
	<path d="M 54.793,90.465 L 60.89,95.024 L 58.609,98.074 L 54.793,90.465" points="54.793,90.465 60.89,95.024 58.609,98.074 "/>
	<path d="M 52.32,92.181 L 54.421,97.319 L 51.757,97.703 L 52.32,92.181" points="52.32,92.181 54.421,97.319 51.757,97.703 "/>
</svg>
