<?xml version="1.0" ?>
<svg xmlns="http://www.w3.org/2000/svg" xmlns:ev="http://www.w3.org/2001/xml-events" xmlns:xlink="http://www.w3.org/1999/xlink" baseProfile="full" enable-background="new 0 0 100 100" height="600px" version="1.1" viewBox="0 0 100 100" width="600px" x="0px" xml:space="preserve" y="0px">
	<defs/>
	<path d="M 71.875,82.813 L 71.875,93.75 L 93.75,93.75 L 93.75,82.813 C 93.75,40.529 59.472,6.25 17.186999999999998,6.25 L 6.25,6.25 L 6.25,28.125 L 17.188000000000002,28.125 C 47.391,28.125 71.875,52.609 71.875,82.813"/>
	<path d="M 39.063,82.813 L 39.063,93.75 L 60.938,93.75 L 60.938,82.813 C 60.938,58.651 41.35,39.063 17.188000000000002,39.063 L 6.25,39.063 L 6.25,60.938 L 17.188000000000002,60.938 C 29.269,60.938 39.063,70.731 39.063,82.813"/>
	<path cx="17.188" cy="82.813" d="M 6.249999999999998,82.813 A 10.938,10.938 0.0 1,0 28.125999999999998,82.813 A 10.938,10.938 0.0 1,0 6.2499999999999964,82.813" r="10.938"/>
</svg>
