<?xml version="1.0" ?>
<svg xmlns="http://www.w3.org/2000/svg" xmlns:ev="http://www.w3.org/2001/xml-events" xmlns:xlink="http://www.w3.org/1999/xlink" baseProfile="full" enable-background="new 12.242 -0.001 70.267 100.001" height="600px" version="1.1" viewBox="12.242 -0.001 70.267 100.001" width="422px" x="0px" xml:space="preserve" y="0px">
	<defs/>
	<path d="M 81.279,43.52 L 76.197,22.132 C 75.31,18.401000000000003 71.558,16.055 67.834,16.975 C 64.563,17.784000000000002 62.971000000000004,20.067 62.324000000000005,21.676000000000002 C 61.56,23.577 58.160000000000004,32.176 57.36300000000001,33.954 C 57.084,34.569 56.49400000000001,34.893 56.37500000000001,34.948 C 55.70100000000001,35.248 48.937000000000005,38.128 48.937000000000005,38.128 L 48.937000000000005,38.142 C 47.604000000000006,38.773 46.675000000000004,40.118 46.675000000000004,41.689 C 46.675000000000004,43.862 48.43900000000001,45.625 50.61600000000001,45.625 C 51.087,45.625 51.534000000000006,45.528 51.952000000000005,45.376 C 51.95400000000001,45.381 51.952000000000005,45.387 51.95400000000001,45.391999999999996 C 51.995000000000005,45.373999999999995 60.93300000000001,41.629999999999995 60.93300000000001,41.629999999999995 C 62.162000000000006,41.050999999999995 62.76700000000001,40.318 63.373000000000005,39.251 C 63.63100000000001,38.8 64.412,36.916999999999994 65.04700000000001,35.372 L 70.46300000000001,58.213 C 70.459,70.854 70.45500000000001,93.602 70.45500000000001,93.602 C 70.44400000000002,97.123 72.85400000000001,99.99000000000001 76.37700000000001,100.0 C 79.90100000000001,100.014 82.44900000000001,97.174 82.47800000000001,93.646 C 82.47800000000001,93.646 82.50800000000001,53.838 82.50800000000001,51.873 C 82.508,49.908 81.73,45.243 81.279,43.52"/>
	<path d="M 31.113,75.213 L 31.113,84.12899999999999 C 32.259,83.916 33.188,83.38699999999999 33.907,82.541 C 34.622,81.693 34.982,80.701 34.982,79.56099999999999 C 34.982,78.53999999999999 34.68,77.66 34.08,76.916 C 33.476,76.18 32.485,75.613 31.113,75.213"/>
	<path d="M 25.646,61.365 C 25.111,62.094 24.841,62.902 24.841,63.787 C 24.841,64.596 25.087,65.344 25.574,66.037 C 26.063000000000002,66.732 26.804000000000002,67.293 27.795,67.71900000000001 L 27.795,59.81100000000001 L 27.793000000000003,59.81100000000001 C 26.894,60.111 26.177,60.631 25.646,61.365"/>
	<path d="M 46.667,50.773 L 46.675000000000004,50.771 L 34.329,25.804 L 34.326,25.822 C 33.419,23.932 31.492,22.624 29.253,22.624 L 17.871,22.624 C 14.762999999999998,22.624 12.241999999999999,25.142 12.241999999999999,28.247 L 12.241999999999999,72.00399999999999 C 12.241999999999999,72.01199999999999 12.242999999999999,72.01799999999999 12.242999999999999,72.02399999999999 L 12.242999999999999,100.0 L 47.30499999999999,100.0 L 47.30499999999999,53.59 C 47.304,52.582 47.071,51.629 46.667,50.773 M 38.085,85.707 C 36.414,87.59599999999999 34.089,88.756 31.116,89.18199999999999 L 31.116,93.45499999999998 L 27.796,93.45499999999998 L 27.796,89.29499999999999 C 25.158,88.975 23.016,87.99199999999999 21.363,86.34599999999999 C 19.716,84.701 18.665,82.377 18.207,79.37299999999999 L 24.18,78.73199999999999 C 24.423,79.95299999999999 24.88,81.00299999999999 25.554,81.88799999999999 C 26.224999999999998,82.773 26.971999999999998,83.41199999999999 27.793999999999997,83.80799999999999 L 27.793999999999997,74.228 C 24.804999999999996,73.377 22.608999999999998,72.082 21.217,70.357 C 19.819,68.628 19.119999999999997,66.529 19.119999999999997,64.06 C 19.119999999999997,61.56 19.907999999999998,59.459 21.490999999999996,57.756 C 23.069999999999997,56.058 25.170999999999996,55.078 27.795999999999996,54.818 L 27.795999999999996,52.556 L 31.115999999999996,52.556 L 31.115999999999996,54.818 C 33.54,55.108999999999995 35.47,55.934999999999995 36.906,57.299 C 38.339,58.662 39.253,60.49 39.652,62.777 L 33.862,63.531 C 33.508,61.736 32.595,60.515 31.116000000000003,59.873 L 31.116000000000003,68.812 C 34.778000000000006,69.801 37.272000000000006,71.086 38.601000000000006,72.664 C 39.92600000000001,74.242 40.59,76.264 40.59,78.73400000000001 C 40.591,81.494 39.757,83.816 38.085,85.707"/>
	<path cx="61.635" cy="7.958" d="M 53.664,7.958 A 7.971,7.959 0.0 1,0 69.606,7.958 A 7.971,7.959 0.0 1,0 53.663999999999994,7.958" rx="7.971" ry="7.959"/>
</svg>
