<?xml version="1.0" ?>
<svg xmlns="http://www.w3.org/2000/svg" xmlns:ev="http://www.w3.org/2001/xml-events" xmlns:xlink="http://www.w3.org/1999/xlink" baseProfile="full" enable-background="new 0 0 100 100" height="600px" version="1.1" viewBox="0 0 100 100" width="600px" x="0px" xml:space="preserve" y="0px">
	<defs/>
	<path d="M 50.15,4.581 C 32.417,4.581 4.181999999999995,24.999 4.181999999999995,49.196000000000005 C 4.181999999999995,71.476 14.023999999999996,79.513 18.753999999999994,83.37700000000001 C 19.356999999999996,83.86900000000001 19.877999999999993,84.29400000000001 20.168999999999993,84.58500000000001 C 20.888999999999992,85.305 21.848999999999993,85.68400000000001 22.821999999999992,85.68400000000001 C 23.11799999999999,85.68400000000001 23.41399999999999,85.644 23.705999999999992,85.57400000000001 C 31.48699999999999,95.07400000000001 44.98899999999999,99.50000000000001 49.99999999999999,99.50000000000001 C 55.038999999999994,99.50000000000001 68.612,95.07600000000001 76.437,85.58100000000002 C 77.351,85.79200000000002 78.328,85.66300000000001 79.167,85.17300000000002 C 84.198,82.235 95.9,72.852 95.9,49.196 C 95.9,22.375 68.364,4.581 50.15,4.581 M 50.0,92.575 C 45.91,92.575 29.449,86.735 25.67,75.054 C 24.597,67.284 23.664,59.988 24.535,54.480000000000004 C 26.196,43.981 31.601,39.096000000000004 34.088,38.441 C 35.03,39.231 36.746,41.291000000000004 37.93,42.713 C 41.669,47.205 45.536,51.849000000000004 50.0,51.849000000000004 C 54.442,51.849000000000004 58.246,47.257000000000005 61.925,42.816 C 63.131,41.36 64.878,39.251000000000005 65.843,38.456 C 67.888,39.13 73.492,43.605000000000004 75.369,54.489000000000004 C 76.226,59.475 75.285,68.686 74.416,75.33600000000001 C 70.322,87.337 52.947,92.575 50.0,92.575 M 82.387,72.016 C 83.118,65.507 83.607,58.139 82.76,53.21600000000001 C 80.906,42.467000000000006 73.73700000000001,30.86500000000001 65.385,30.86500000000001 C 62.086000000000006,30.86500000000001 59.596000000000004,33.87100000000001 56.149,38.03200000000001 C 54.484,40.04300000000001 51.436,43.72200000000001 49.998000000000005,44.31000000000001 C 48.527,43.720000000000006 45.402,39.96600000000001 43.694,37.91400000000001 C 40.286,33.82100000000001 37.824000000000005,30.864000000000008 34.615,30.864000000000008 C 27.763,30.864000000000008 19.349000000000004,39.25900000000001 17.127000000000002,53.30700000000001 C 16.274,58.70300000000001 16.794000000000004,64.959 17.644000000000002,71.637 C 14.502000000000002,67.309 11.683000000000002,60.534 11.683000000000002,49.195 C 11.683000000000002,30.056 35.681000000000004,12.079999999999998 50.151,12.079999999999998 C 65.553,12.079999999999998 88.40100000000001,27.665 88.40100000000001,49.195 C 88.4,60.222 85.569,67.414 82.387,72.016"/>
	<path d="M 98.379,12.323 C 95.653,7.590000000000001 93.71600000000001,4.156000000000001 93.712,4.15 C 92.668,2.3000000000000003 90.321,1.6450000000000005 88.473,2.6900000000000004 C 86.622,3.7330000000000005 85.969,6.079000000000001 87.013,7.929 C 87.013,7.929 88.965,11.39 91.714,16.164 C 92.289,17.16 93.076,18.524 90.196,21.007 C 87.375,23.437 83.695,26.646 83.695,26.646 L 88.75,32.444 C 88.75,32.444 92.41,29.253000000000004 95.218,26.835 C 101.919,21.057 100.073,15.262 98.379,12.323"/>
	<path d="M 92.127,9.315 C 88.92,11.08 84.487,8.818999999999999 83.73599999999999,7.470999999999999 C 82.993,6.114999999999999 84.98299999999999,3.5829999999999993 88.19099999999999,1.8139999999999992 C 91.39399999999999,0.04499999999999926 94.60199999999999,-0.2860000000000009 95.34899999999999,1.0669999999999993 C 96.098,2.419 95.335,7.546 92.127,9.315"/>
	<path d="M 9.806,21.009 C 6.924999999999999,18.524 7.712,17.16 8.286999999999999,16.162 C 11.035,11.389999999999999 12.988,7.9289999999999985 12.988,7.9289999999999985 C 14.030999999999999,6.078999999999999 13.378,3.7329999999999988 11.527999999999999,2.6899999999999986 C 9.677,1.645 7.331,2.299 6.288,4.15 C 6.284000000000001,4.157 4.347,7.59 1.6219999999999999,12.321 C -0.07400000000000007,15.261 -1.919,21.057000000000002 4.784,26.837 C 7.589,29.252 11.245999999999999,32.442 11.248999999999999,32.444 L 16.305,26.647000000000002 C 16.305,26.646 12.625,23.437 9.806,21.009"/>
	<path d="M 7.873,9.315 C 11.081,11.08 15.513,8.818999999999999 16.264,7.470999999999999 C 17.008,6.114999999999999 15.017,3.5829999999999993 11.809,1.8139999999999992 C 8.604999999999999,0.04499999999999926 5.396999999999999,-0.2860000000000009 4.6499999999999995,1.0669999999999993 C 3.902,2.419 4.665,7.546 7.873,9.315"/>
	<path cx="63.461" cy="59.615" d="M 57.835,59.615 A 5.626,5.626 0.0 1,0 69.087,59.615 A 5.626,5.626 0.0 1,0 57.835,59.615" r="5.626"/>
	<path cx="36.539" cy="59.615" d="M 30.913,59.615 A 5.626,5.626 0.0 1,0 42.165,59.615 A 5.626,5.626 0.0 1,0 30.912999999999997,59.615" r="5.626"/>
	<path d="M 0.0,0.0 L 100.0,0.0 L 100.0,100.0 L 0.0,100.0 L 0.0,0.0" fill="none" height="100" width="100"/>
</svg>
