<?xml version="1.0" ?>
<svg xmlns="http://www.w3.org/2000/svg" xmlns:ev="http://www.w3.org/2001/xml-events" xmlns:xlink="http://www.w3.org/1999/xlink" baseProfile="full" enable-background="new 326.5 -0.5 100 100" height="600px" version="1.1" viewBox="326.5 -0.5 100 100" width="600px" x="0px" xml:space="preserve" y="0px">
	<defs/>
	<path d="M 408.444,-0.5 C 406.91,-0.5 405.66700000000003,0.744 405.66700000000003,2.278 L 405.66700000000003,20.334 C 405.66700000000003,21.868 406.91,23.112 408.444,23.112 L 426.5,23.112 L 426.5,-0.5 L 408.444,-0.5" fill="#000000"/>
	<path d="M 395.944,28.667 L 394.333,28.667 L 379.54200000000003,39.233000000000004 C 377.71500000000003,40.587 376.10600000000005,41.243 374.62600000000003,41.243 C 372.754,41.243 371.19800000000004,40.185 370.46400000000006,38.413000000000004 C 369.46100000000007,35.99 370.1360000000001,32.18900000000001 371.87500000000006,30.352000000000004 C 372.04600000000005,30.155000000000005 372.59100000000007,29.532000000000004 373.35200000000003,28.666000000000004 L 366.778,28.666000000000004 L 362.92400000000004,28.666000000000004 L 357.057,28.666000000000004 L 357.057,62.0 L 395.946,62.0 L 395.946,28.667 L 395.944,28.667" fill="#000000"/>
	<path d="M 402.889,2.278 L 389.0,2.278 L 375.111,10.611 C 372.57599999999996,12.251000000000001 370.944,13.388000000000002 369.555,17.555 C 368.861,19.637999999999998 366.777,25.887999999999998 366.777,25.887999999999998 L 374.589,25.887999999999998 L 376.499,20.333 C 377.88800000000003,17.555 387.55100000000004,17.615 383.44300000000004,21.721999999999998 L 373.63900000000007,32.586 C 372.4940000000001,33.731 371.58000000000004,41.69 377.88700000000006,37.0 L 397.3310000000001,23.111 L 398.72100000000006,18.944000000000003 L 402.88700000000006,14.777000000000003 L 402.88700000000006,2.278 L 402.889,2.278" fill="#000000"/>
	<path d="M 415.389,49.501 L 398.723,49.501 L 398.723,57.835 L 403.592,57.835 L 405.667,64.777 L 376.5,64.777 L 376.5,64.777 L 347.333,64.777 L 349.407,57.835 L 354.277,57.835 L 354.277,49.501 L 337.611,49.501 L 326.5,74.5 L 326.5,74.5 L 326.5,82.833 L 426.5,82.833 L 426.5,74.5 L 426.5,74.5 L 415.389,49.501" fill="#000000" points="415.389,49.501 398.723,49.501 398.723,57.835 403.592,57.835 405.667,64.777 376.5,64.777   376.5,64.777 347.333,64.777 349.407,57.835 354.277,57.835 354.277,49.501 337.611,49.501 326.5,74.5 326.5,74.5 326.5,82.833   426.5,82.833 426.5,74.5 426.5,74.5 "/>
	<path d="M 329.277,85.611 L 423.722,85.611 L 423.722,99.5 L 329.277,99.5 L 329.277,85.611" fill="#000000" height="13.889" width="94.445" x="329.277" y="85.611"/>
</svg>
