<?xml version="1.0" ?>
<svg xmlns="http://www.w3.org/2000/svg" xmlns:ev="http://www.w3.org/2001/xml-events" xmlns:xlink="http://www.w3.org/1999/xlink" baseProfile="full" enable-background="new 0.5 -0.5 100 100" height="600px" version="1.1" viewBox="0.5 -0.5 100 100" width="600px" x="0px" xml:space="preserve" y="0px">
	<defs/>
	<path d="M 93.556,42.556 C 90.203,42.556 87.39699999999999,44.946 86.752,48.113 L 78.207,48.113 C 77.881,41.49 75.24799999999999,35.492 71.07799999999999,30.886 L 77.23299999999999,24.733999999999998 C 78.33099999999999,25.461 79.642,25.889 81.05499999999999,25.889 C 84.88399999999999,25.889 87.999,22.774 87.999,18.945 C 88.0,15.116 84.885,12.0 81.056,12.0 C 77.22699999999999,12.0 74.112,15.116 74.112,18.944 C 74.112,20.358 74.541,21.671 75.27,22.769 L 69.115,28.921 C 64.511,24.753 58.510999999999996,22.119999999999997 51.888999999999996,21.792 L 51.888999999999996,13.247000000000002 C 55.05499999999999,12.601 57.44499999999999,9.796000000000001 57.44499999999999,6.443000000000001 C 57.44499999999999,2.614000000000001 54.32999999999999,-0.5009999999999986 50.50099999999999,-0.5009999999999986 C 46.67199999999999,-0.5009999999999986 43.55699999999999,2.6150000000000015 43.55699999999999,6.443000000000001 C 43.55699999999999,9.796000000000001 45.94699999999999,12.601000000000003 49.112999999999985,13.247000000000002 L 49.112999999999985,21.792 C 42.48999999999999,22.12 36.49199999999998,24.752000000000002 31.885999999999985,28.921 L 25.732999999999986,22.769 C 26.460999999999988,21.669999999999998 26.889999999999986,20.357 26.889999999999986,18.944 C 26.889999999999986,15.114999999999998 23.774999999999984,12.0 19.945999999999987,12.0 C 16.116,12.0 13.0,15.116 13.0,18.944 C 13.0,22.773 16.116,25.887999999999998 19.944,25.887999999999998 C 21.357,25.887999999999998 22.669,25.459999999999997 23.767,24.732999999999997 L 29.921,30.884999999999998 C 25.753,35.491 23.119999999999997,41.489 22.792,48.111999999999995 L 14.249000000000002,48.111999999999995 C 13.604000000000003,44.94499999999999 10.798000000000002,42.55499999999999 7.445000000000002,42.55499999999999 C 3.616000000000002,42.55499999999999 0.5010000000000021,45.669999999999995 0.5010000000000021,49.498999999999995 C 0.5010000000000021,53.327999999999996 3.617000000000002,56.443 7.445000000000002,56.443 C 10.798000000000002,56.443 13.603000000000002,54.053 14.249000000000002,50.888999999999996 L 22.793000000000003,50.888999999999996 C 23.121000000000002,57.51 25.753000000000004,63.50899999999999 29.922000000000004,68.113 L 23.768000000000004,74.268 C 22.670000000000005,73.539 21.357000000000003,73.11 19.944000000000003,73.11 C 16.115000000000002,73.11 13.000000000000004,76.225 13.000000000000004,80.054 C 13.000000000000004,83.88300000000001 16.116,87.0 19.944,87.0 C 23.773,87.0 26.887999999999998,83.885 26.887999999999998,80.056 C 26.887999999999998,78.643 26.459,77.331 25.732,76.234 L 31.886,70.079 C 36.491,74.249 42.489,76.88 49.111000000000004,77.208 L 49.111000000000004,85.753 C 45.94500000000001,86.399 43.55500000000001,89.204 43.55500000000001,92.557 C 43.55500000000001,96.386 46.67000000000001,99.501 50.49900000000001,99.501 C 54.32800000000001,99.501 57.44300000000001,96.38600000000001 57.44300000000001,92.557 C 57.44300000000001,89.20400000000001 55.05300000000001,86.399 51.887000000000015,85.753 L 51.887000000000015,77.208 C 58.509000000000015,76.88 64.50600000000001,74.249 69.11300000000001,70.079 L 75.26600000000002,76.234 C 74.53800000000003,77.332 74.11000000000001,78.643 74.11000000000001,80.056 C 74.11000000000001,83.88499999999999 77.22500000000001,87.0 81.05400000000002,87.0 C 84.88300000000002,87.0 88.0,83.885 88.0,80.056 C 88.0,76.22699999999999 84.885,73.112 81.056,73.112 C 79.643,73.112 78.329,73.541 77.231,74.268 L 71.079,68.115 C 75.247,63.510999999999996 77.88,57.51199999999999 78.208,50.89099999999999 L 86.753,50.89099999999999 C 87.399,54.05499999999999 90.204,56.44499999999999 93.557,56.44499999999999 C 97.386,56.44499999999999 100.501,53.32999999999999 100.501,49.50099999999999 C 100.501,45.67199999999999 97.385,42.556 93.556,42.556 M 81.056,14.778 C 83.354,14.778 85.223,16.647000000000002 85.223,18.945 C 85.223,21.243000000000002 83.354,23.112000000000002 81.056,23.112000000000002 C 78.758,23.112000000000002 76.889,21.243000000000002 76.889,18.945 C 76.889,16.647 78.758,14.778 81.056,14.778 M 19.944,23.111 C 17.647,23.111 15.777,21.242 15.777,18.944000000000003 C 15.777,16.647000000000002 17.646,14.777000000000003 19.944,14.777000000000003 C 22.241999999999997,14.777000000000003 24.110999999999997,16.646000000000004 24.110999999999997,18.944000000000003 C 24.111,21.242 22.242,23.111 19.944,23.111 M 7.444,53.667 C 5.147,53.667 3.277,51.798 3.277,49.5 C 3.277,47.202 5.146,45.333 7.444,45.333 C 9.742,45.333 11.611,47.202 11.611,49.5 C 11.611,51.798 9.742,53.667 7.444,53.667 M 19.944,84.223 C 17.647,84.223 15.777,82.354 15.777,80.056 C 15.777,77.758 17.646,75.889 19.944,75.889 C 22.241999999999997,75.889 24.110999999999997,77.758 24.110999999999997,80.056 C 24.110999999999997,82.354 22.242,84.223 19.944,84.223 M 46.333,6.444 C 46.333,4.147 48.202,2.277 50.5,2.277 C 52.798,2.277 54.667,4.146 54.667,6.444 C 54.667,8.742 52.798,10.611 50.5,10.611 C 48.202,10.611 46.333,8.742 46.333,6.444 M 54.667,92.556 C 54.667,94.854 52.798,96.723 50.5,96.723 C 48.202,96.723 46.333,94.854 46.333,92.556 C 46.333,90.258 48.202,88.389 50.5,88.389 C 52.798,88.389 54.667,90.258 54.667,92.556 M 53.277,68.944 L 47.722,68.944 L 47.722,63.388000000000005 L 53.277,63.388000000000005 L 53.277,68.944 M 57.354,52.335 C 54.986,54.188 53.277,55.527 53.277,59.223 L 47.722,59.223 C 47.722,52.821 51.309000000000005,50.012 53.929,47.961 C 56.303000000000004,46.103 57.445,45.097 57.445,42.556 C 57.445,37.687999999999995 55.369,35.611999999999995 50.501,35.611999999999995 C 45.632999999999996,35.611999999999995 43.556999999999995,37.687999999999995 43.556999999999995,42.556 L 38.0,42.556 C 38.0,34.611999999999995 42.556,30.055999999999997 50.5,30.055999999999997 C 58.444,30.055999999999997 63.0,34.611999999999995 63.0,42.556 C 63.0,47.915 59.869,50.365 57.354,52.335 M 81.056,75.889 C 83.354,75.889 85.223,77.758 85.223,80.056 C 85.223,82.354 83.354,84.223 81.056,84.223 C 78.758,84.223 76.889,82.354 76.889,80.056 C 76.889,77.758 78.758,75.889 81.056,75.889 M 93.556,53.667 C 91.258,53.667 89.389,51.798 89.389,49.5 C 89.389,47.202 91.258,45.333 93.556,45.333 C 95.854,45.333 97.723,47.202 97.723,49.5 C 97.723,51.798 95.854,53.667 93.556,53.667" fill="#000000"/>
</svg>
