<?xml version="1.0" ?>
<svg xmlns="http://www.w3.org/2000/svg" xmlns:ev="http://www.w3.org/2001/xml-events" xmlns:xlink="http://www.w3.org/1999/xlink" baseProfile="full" enable-background="new 0 0 24 24" height="600px" version="1.1" viewBox="0 0 24 24" width="490px" x="0px" xml:space="preserve" y="0px">
	<defs/>
	<path d="M 22.101,17.094 L 21.505,15.185 C 21.505,15.185 18.641,16.078 15.666999999999998,6.530000000000001 C 15.622999999999998,6.3900000000000015 15.551999999999998,6.270000000000001 15.468999999999998,6.159000000000001 C 14.352999999999998,3.8650000000000007 11.714999999999998,2.6550000000000007 9.203999999999997,3.4370000000000007 C 9.122,3.462 9.052,3.501 8.973,3.533 C 8.891,3.551 8.809,3.559 8.728,3.585 C 6.217,4.367 4.732,6.86 5.117,9.383 C 5.111,9.521 5.121,9.661 5.164,9.801 C 8.139,19.349 5.274,20.240000000000002 5.274,20.240000000000002 L 5.869,22.150000000000002 L 11.062,20.532000000000004 C 7.629,16.459 8.406,7.918 8.406,7.918 C 9.202,14.024000000000001 12.255,17.856 14.018,19.611 L 14.461,19.473 L 22.101,17.094"/>
	<path d="M 9.916,2.565 C 9.917,2.436 9.904,2.306 9.864,2.176 C 9.651,1.493 8.925,1.112 8.242,1.325 C 7.559,1.538 7.178,2.264 7.391,2.947 C 7.441,3.111 7.524,3.257 7.626,3.382 C 8.037,3.004 8.805,2.499 9.916,2.565"/>
	<path d="M 19.194,20.585 C 20.006999999999998,20.332 20.476,19.512 20.320999999999998,18.696 L 17.194,19.67 C 17.53,20.429 18.382,20.838 19.194,20.585"/>
</svg>
