<?xml version="1.0" ?>
<svg xmlns="http://www.w3.org/2000/svg" xmlns:ev="http://www.w3.org/2001/xml-events" xmlns:xlink="http://www.w3.org/1999/xlink" baseProfile="full" enable-background="new 0 0 100 100" height="600px" version="1.1" viewBox="0 0 100 100" width="600px" x="0px" xml:space="preserve" y="0px">
	<defs/>
	<path d="M 99.689,97.089 L 86.3,62.412 C 86.102,61.897999999999996 85.699,61.489 85.19,61.282 L 65.264,53.169 C 64.81099999999999,52.983999999999995 64.307,52.973 63.846,53.134 L 63.117,53.391 C 69.03399999999999,44.175 75.78,31.726 75.78,22.843 C 75.779,10.247 65.514,0.0 52.891,0.0 C 40.269,0.0 30.000999999999998,10.247 30.000999999999998,22.842 C 30.000999999999998,33.726 40.205999999999996,49.955 46.580999999999996,59.034 L 27.208999999999996,52.489 C 26.479999999999997,52.242999999999995 25.667999999999996,52.437 25.130999999999997,52.991 L 0.74,78.125 C 0.311,78.566 0.10999999999999999,79.182 0.19599999999999995,79.789 C 0.28099999999999997,80.398 0.6419999999999999,80.935 1.1749999999999998,81.241 L 32.868,99.517 C 32.869,99.517 32.870000000000005,99.517 32.871,99.517 L 32.899,99.535 C 32.92,99.547 32.943,99.55199999999999 32.964,99.56 C 33.052,99.607 33.138999999999996,99.654 33.235,99.68900000000001 C 33.26,99.69800000000001 33.287,99.70100000000001 33.312,99.709 C 33.346999999999994,99.721 33.382,99.729 33.418,99.736 C 33.539,99.76700000000001 33.66,99.786 33.781,99.79400000000001 C 33.805,99.79500000000002 33.83,99.80000000000001 33.854,99.80000000000001 C 33.869,99.80000000000001 33.883,99.805 33.897999999999996,99.805 C 33.937999999999995,99.805 33.976,99.78800000000001 34.016,99.78500000000001 C 34.152,99.77700000000002 34.286,99.75900000000001 34.419,99.72300000000001 C 34.483999999999995,99.70500000000001 34.544999999999995,99.68200000000002 34.608,99.65900000000002 C 34.666,99.63700000000001 34.727,99.62600000000002 34.784,99.59700000000002 L 62.551,85.89600000000002 C 62.737,85.96100000000001 62.932,86.00900000000001 63.139,86.01700000000001 C 63.165000000000006,86.019 63.192,86.019 63.216,86.019 C 63.372,86.019 63.524,85.997 63.669000000000004,85.961 L 97.061,99.65299999999999 C 97.305,99.755 97.56500000000001,99.80199999999999 97.82100000000001,99.80199999999999 C 98.33400000000002,99.80199999999999 98.83900000000001,99.606 99.21800000000002,99.23299999999999 C 99.793,98.676 99.977,97.833 99.689,97.089 M 48.098,43.14 C 48.098,40.421 50.348,38.124 53.016999999999996,38.124 C 55.742999999999995,38.124 58.04299999999999,40.421 58.04299999999999,43.14 C 58.04299999999999,45.804 55.74099999999999,48.054 53.016999999999996,48.054 C 50.348,48.054 48.098,45.804 48.098,43.14 M 43.381,16.387 C 42.963,16.02 43.015,15.395 43.381,15.029 C 43.381,15.029 47.258,10.429 54.013999999999996,10.429 C 59.56099999999999,10.429 64.696,14.297 64.696,19.573999999999998 C 64.696,26.468999999999998 56.842,26.677999999999997 56.842,32.321999999999996 C 56.842,32.897999999999996 56.369,33.315999999999995 55.845,33.315999999999995 L 50.242999999999995,33.315999999999995 C 49.717999999999996,33.315999999999995 49.24999999999999,32.898999999999994 49.24999999999999,32.321999999999996 L 49.24999999999999,30.13 C 49.24999999999999,25.737 56.477999999999994,23.805999999999997 56.477999999999994,20.463 C 56.477999999999994,18.841 54.8,17.379 52.54899999999999,17.379 C 48.882999999999996,17.379 47.888999999999996,20.673000000000002 46.57899999999999,19.523000000000003 L 43.381,16.387 M 32.453,81.23 C 33.758,81.712 35.122,82.068 36.508,82.281 C 36.56,82.289 36.611000000000004,82.293 36.661,82.293 C 36.933,82.293 37.18,82.17500000000001 37.363,81.989 L 32.815,94.876 L 5.396,79.064 L 17.757,66.326 C 18.046000000000003,66.972 18.451,67.82 18.997,68.806 C 19.18,69.136 19.52,69.322 19.873,69.322 C 20.036,69.322 20.202,69.282 20.355,69.19800000000001 C 20.838,68.93100000000001 21.014,68.32400000000001 20.747,67.84200000000001 C 19.976,66.44700000000002 19.494,65.33300000000001 19.267,64.77200000000002 L 27.122999999999998,56.67500000000002 L 44.253,62.46300000000002 L 37.637,81.21100000000003 C 37.598,80.76400000000002 37.277,80.38000000000002 36.812,80.30900000000003 C 35.559999999999995,80.11800000000002 34.327999999999996,79.79600000000002 33.147999999999996,79.36000000000003 C 32.632999999999996,79.17000000000003 32.05499999999999,79.43200000000003 31.862999999999996,79.95000000000003 C 31.671,80.465 31.935,81.039 32.453,81.23 M 61.803,68.641 C 61.425,68.962 61.324999999999996,69.51400000000001 61.608,69.938 C 61.648999999999994,70.0 61.698,70.051 61.748999999999995,70.10000000000001 L 61.29299999999999,82.06500000000001 L 37.42299999999999,93.84400000000001 L 48.383999999999986,62.78600000000001 L 49.09999999999999,62.53500000000001 C 50.46599999999999,64.38700000000001 51.387999999999984,65.56000000000002 51.557999999999986,65.77700000000002 C 51.90199999999999,66.21200000000002 52.426999999999985,66.46500000000002 52.981999999999985,66.46500000000002 L 52.98599999999998,66.46500000000002 C 53.54399999999998,66.46300000000002 54.067999999999984,66.20800000000001 54.41099999999998,65.77200000000002 C 54.67299999999998,65.43800000000002 56.70999999999998,62.82100000000002 59.42399999999998,58.91600000000002 L 62.214999999999975,57.93700000000002 L 61.803,68.641 M 65.286,82.307 L 65.795,68.96600000000001 C 65.95700000000001,68.93 66.119,68.891 66.283,68.86000000000001 C 66.82600000000001,68.75800000000001 67.181,68.23700000000001 67.08,67.69600000000001 C 66.976,67.153 66.456,66.80100000000002 65.91199999999999,66.89900000000002 C 65.898,66.90100000000001 65.88699999999999,66.90500000000002 65.87299999999999,66.90900000000002 L 66.21799999999999,57.86900000000002 L 82.87799999999999,64.65300000000002 L 94.287,94.2 L 65.286,82.307" fill="#000000"/>
	<path d="M 24.644,73.37 C 24.276,72.96000000000001 23.644,72.924 23.232,73.29 C 22.82,73.65700000000001 22.784,74.287 23.152,74.7 C 24.097,75.756 25.104,76.72200000000001 26.144000000000002,77.574 C 26.331000000000003,77.724 26.554000000000002,77.8 26.777,77.8 C 27.067,77.8 27.354,77.676 27.551000000000002,77.43599999999999 C 27.902,77.008 27.838,76.37899999999999 27.411,76.032 C 26.451,75.244 25.52,74.352 24.644,73.37" fill="#000000"/>
	<path d="M 46.831,78.032 C 45.622,78.564 44.397000000000006,79.029 43.193000000000005,79.417 C 42.668000000000006,79.587 42.379000000000005,80.148 42.547000000000004,80.674 C 42.684000000000005,81.09800000000001 43.07600000000001,81.36500000000001 43.499,81.36500000000001 C 43.601,81.36500000000001 43.704,81.349 43.806000000000004,81.316 C 45.07600000000001,80.909 46.365,80.418 47.63700000000001,79.857 C 48.14200000000001,79.635 48.37100000000001,79.04599999999999 48.14900000000001,78.543 C 47.927,78.04 47.338,77.809 46.831,78.032" fill="#000000"/>
	<path d="M 77.242,68.311 C 75.926,67.742 74.586,67.305 73.26,67.018 C 72.72500000000001,66.901 72.19000000000001,67.243 72.071,67.782 C 71.955,68.319 72.298,68.85199999999999 72.838,68.97 C 74.03599999999999,69.23 75.25,69.624 76.446,70.144 C 76.577,70.20100000000001 76.712,70.226 76.843,70.226 C 77.23100000000001,70.226 77.598,70.001 77.76100000000001,69.625 C 77.98,69.117 77.748,68.529 77.242,68.311" fill="#000000"/>
	<path d="M 56.164,72.627 C 54.980000000000004,73.45299999999999 53.906,74.166 52.876000000000005,74.807 C 52.407000000000004,75.098 52.266000000000005,75.714 52.557,76.182 C 52.746,76.485 53.074000000000005,76.653 53.408,76.653 C 53.589,76.653 53.77,76.604 53.936,76.50200000000001 C 54.996,75.84200000000001 56.1,75.108 57.311,74.26500000000001 C 57.764,73.95000000000002 57.873,73.32700000000001 57.557,72.87400000000001 C 57.24,72.42 56.617,72.311 56.164,72.627" fill="#000000"/>
	<path d="M 82.02,72.227 C 81.67999999999999,72.662 81.755,73.28800000000001 82.192,73.62700000000001 C 83.169,74.391 84.15299999999999,75.24900000000001 85.11999999999999,76.186 C 85.31299999999999,76.373 85.56299999999999,76.465 85.81499999999998,76.465 C 86.07599999999998,76.465 86.33599999999998,76.363 86.53399999999998,76.161 C 86.91799999999998,75.765 86.90799999999997,75.134 86.51099999999998,74.75 C 85.49499999999998,73.77 84.45699999999998,72.861 83.42499999999998,72.057 C 82.988,71.716 82.359,71.792 82.02,72.227" fill="#000000"/>
</svg>
