<?xml version="1.0" ?>
<svg xmlns="http://www.w3.org/2000/svg" xmlns:ev="http://www.w3.org/2001/xml-events" xmlns:xlink="http://www.w3.org/1999/xlink" baseProfile="full" enable-background="new 0 0 512 512" height="460px" version="1.1" viewBox="0 0 512 512" width="600px" x="0px" xml:space="preserve" y="0px">
	<defs/>
	<path d="M 50.0,298.021 L 50.0,213.976 L 192.859,213.976 L 192.859,172.23 L 276.776,256.0 L 192.859,339.77 L 192.859,298.022 L 50.0,298.022 L 50.0,298.021 M 304.447,98.447 C 268.26300000000003,98.447 234.934,110.653 208.337,131.161 L 236.947,159.722 C 256.579,145.89600000000002 279.94,138.447 304.447,138.447 C 335.846,138.447 365.366,150.675 387.569,172.877 C 409.772,195.081 422.0,224.601 422.0,256.0 C 422.0,287.399 409.772,316.92 387.569,339.122 C 365.36600000000004,361.325 335.846,373.553 304.447,373.553 C 279.94,373.553 256.579,366.104 236.947,352.278 L 208.336,380.839 C 234.935,401.348 268.264,413.554 304.447,413.554 C 391.461,413.553 462.0,343.014 462.0,256.0 C 462.0,168.986 391.461,98.447 304.447,98.447"/>
</svg>
