<?xml version="1.0" ?>
<svg xmlns="http://www.w3.org/2000/svg" xmlns:ev="http://www.w3.org/2001/xml-events" xmlns:xlink="http://www.w3.org/1999/xlink" baseProfile="full" enable-background="new 0 0 100 70.749" height="425px" version="1.1" viewBox="0 0 100 70.749" width="600px" x="0px" xml:space="preserve" y="0px">
	<defs/>
	<path d="M 99.945,54.574 L 99.945,46.134 C 99.94999999999999,41.098 98.10499999999999,36.107 94.892,32.44 C 91.329,28.374 86.294,26.134999999999998 80.71799999999999,26.134999999999998 C 80.71399999999998,26.134999999999998 80.71199999999999,26.134999999999998 80.71199999999999,26.134999999999998 L 77.38799999999999,26.134999999999998 C 78.326,23.964 78.82799999999999,21.689 78.814,19.56 C 78.82499999999999,15.457999999999998 77.24199999999999,11.661999999999999 74.35499999999999,8.876999999999999 C 71.47599999999998,6.097999999999999 67.475,4.541999999999999 63.06699999999999,4.465999999999999 L 63.06699999999999,9.059 C 69.562,9.203 74.23899999999999,13.575 74.223,19.570999999999998 C 74.24,21.967 73.258,24.778999999999996 71.602,27.096999999999998 C 71.10000000000001,27.796 71.034,28.717999999999996 71.427,29.480999999999998 C 71.82100000000001,30.247 72.608,30.726999999999997 73.46900000000001,30.726999999999997 L 80.712,30.726999999999997 C 80.714,30.726999999999997 80.714,30.726999999999997 80.718,30.726999999999997 C 86.144,30.726999999999997 89.542,33.305 91.44,35.468999999999994 C 93.928,38.306 95.356,42.193 95.352,46.13399999999999 L 95.352,54.57399999999999 L 99.945,54.57399999999999 L 99.945,54.574"/>
	<path d="M 80.559,37.083 C 80.539,37.083 80.52,37.083 80.49799999999999,37.083 C 80.49799999999999,37.083 77.42299999999999,37.077999999999996 74.34599999999999,37.076 C 72.80699999999999,37.073 71.267,37.073 70.112,37.076 C 69.53099999999999,37.076 69.048,37.078 68.70899999999999,37.078 C 68.54999999999998,37.078 68.37599999999999,37.078 68.192,37.09 L 68.192,37.083000000000006 C 65.419,37.07600000000001 63.937999999999995,35.50000000000001 63.18299999999999,34.178000000000004 C 61.87899999999999,31.898000000000003 61.86299999999999,28.779000000000003 63.141999999999996,26.598000000000006 C 63.571,25.866000000000007 63.559999999999995,24.957000000000008 63.11599999999999,24.236000000000004 C 62.67399999999999,23.514000000000003 61.86399999999999,23.094000000000005 61.019999999999996,23.146000000000004 C 57.55499999999999,23.360000000000003 54.620999999999995,22.434000000000005 52.532999999999994,20.472000000000005 C 50.71999999999999,18.767000000000003 49.67999999999999,16.390000000000004 49.678,13.948000000000004 C 49.68,10.769000000000004 51.538999999999994,4.804000000000004 58.494,4.599000000000004 L 58.494,0.0 C 53.171,0.115 50.003,2.653 48.274,4.789 C 46.25,7.289 45.089,10.626999999999999 45.087,13.946 C 45.089000000000006,17.652 46.657000000000004,21.249 49.388000000000005,23.817999999999998 C 51.072,25.398999999999997 53.809000000000005,27.171999999999997 57.888000000000005,27.647999999999996 C 57.255,30.588999999999995 57.694,33.82599999999999 59.197,36.458999999999996 C 61.086000000000006,39.763 64.361,41.666 68.181,41.675999999999995 C 68.223,41.678 68.26299999999999,41.675999999999995 68.304,41.672999999999995 C 68.98,41.660999999999994 75.919,41.66799999999999 80.50200000000001,41.675999999999995 C 83.18400000000001,41.660999999999994 85.27900000000001,42.33599999999999 86.561,43.611999999999995 C 87.658,44.702 88.215,46.26899999999999 88.21900000000001,48.25699999999999 L 88.21900000000001,54.57599999999999 L 92.813,54.57599999999999 L 92.813,48.25 C 92.805,45.04 91.764,42.309 89.798,40.355000000000004 C 87.647,38.213 84.451,37.083 80.559,37.083 M 70.013,40.767 C 69.952,40.851000000000006 69.885,40.928000000000004 69.816,40.999 C 69.885,40.925 69.953,40.849 70.013,40.767"/>
	<path d="M 0.0,70.749 L 0.0,57.025 L 85.669,57.025 L 85.669,70.749 L 0.0,70.749 L 0.0,70.749" points="0,70.749 0,57.025 85.669,57.025 85.669,70.749 0,70.749 "/>
	<path d="M 88.218,56.808 L 92.812,56.808 L 92.812,70.694 L 88.218,70.694 L 88.218,56.808" height="13.886" width="4.594" x="88.218" y="56.808"/>
	<path d="M 95.409,56.808 L 100.0,56.808 L 100.0,70.694 L 95.409,70.694 L 95.409,56.808" height="13.886" width="4.591" x="95.409" y="56.808"/>
</svg>
