<?xml version="1.0" ?>
<svg xmlns="http://www.w3.org/2000/svg" xmlns:ev="http://www.w3.org/2001/xml-events" xmlns:xlink="http://www.w3.org/1999/xlink" baseProfile="full" enable-background="new 0 0 100 100" height="151px" version="1.1" viewBox="0 0 100 100" width="600px" x="0px" xml:space="preserve" y="0px">
	<defs/>
	<path d="M 53.335,46.459 C 53.312,46.328 53.264,46.165000000000006 53.207,45.993 C 53.37,45.997 53.713,46.007000000000005 54.185,46.019000000000005 C 53.809000000000005,46.275000000000006 53.521,46.48500000000001 53.374,46.598000000000006 C 53.370000000000005,46.60000000000001 53.368,46.60300000000001 53.366,46.605000000000004 C 53.356,46.562000000000005 53.346,46.519000000000005 53.336999999999996,46.475 C 53.335,46.47 53.335,46.464 53.335,46.459"/>
	<path d="M 57.301,46.47 C 57.084,46.597 56.863,46.72 56.642,46.838 C 60.273,46.796 65.587,46.734 65.65,46.728 C 65.741,46.719 65.813,46.643 65.85600000000001,46.578 C 65.897,46.514 65.82100000000001,46.445 65.801,46.42100000000001 C 65.78,46.397000000000006 65.632,46.31300000000001 65.319,46.31300000000001 C 65.142,46.31300000000001 61.221000000000004,46.20900000000001 57.868,46.12000000000001 C 57.667,46.249 57.475,46.368 57.301,46.47"/>
	<path d="M 34.356,46.728 C 34.417,46.733000000000004 39.706,46.796 43.338,46.837 C 43.121,46.722 42.902,46.601000000000006 42.688,46.475 C 42.514,46.372 42.319,46.252 42.115,46.121 C 38.768,46.21 34.863,46.314 34.687000000000005,46.314 C 34.37500000000001,46.314 34.226000000000006,46.397 34.205000000000005,46.422 C 34.184000000000005,46.446 34.10900000000001,46.515 34.151,46.57899999999999 C 34.193,46.643 34.264,46.719 34.356,46.728"/>
	<path d="M 46.627,46.611 C 46.644000000000005,46.525999999999996 46.664,46.440999999999995 46.686,46.358 C 46.711,46.248 46.748,46.123 46.791,45.992999999999995 C 46.623,45.99699999999999 46.275,46.007 45.799,46.019 C 46.177,46.277 46.467,46.489 46.615,46.602 C 46.62,46.606 46.624,46.609 46.627,46.611"/>
	<path d="M 49.992,41.807 L 49.992,41.807 L 50.001,41.807 C 50.162,41.807 50.348,41.827000000000005 50.527,41.867000000000004 C 50.527,41.865 50.527,41.86300000000001 50.527,41.86000000000001 C 50.527,41.74600000000001 50.126,36.68200000000001 50.119,36.601000000000006 C 50.11,36.48800000000001 50.028999999999996,36.407000000000004 50.0,36.407000000000004 C 49.97,36.407000000000004 49.886,36.510000000000005 49.88,36.601000000000006 C 49.873000000000005,36.68200000000001 49.472,41.74600000000001 49.472,41.86000000000001 C 49.472,41.86300000000001 49.472,41.86500000000001 49.472,41.867000000000004 C 49.65,41.827 49.834,41.808 49.992,41.807"/>
	<path d="M 47.295,53.433 C 47.106,53.347 46.748000000000005,53.089999999999996 46.587,52.814 C 46.472,52.62 46.429,52.418 46.374,52.042 C 46.341,51.811 46.339000000000006,51.244 46.347,50.672000000000004 C 46.2,50.868 45.922000000000004,51.026 45.797000000000004,51.098000000000006 C 43.54600000000001,51.062000000000005 1.3090000000000046,48.43900000000001 1.2440000000000069,48.455000000000005 C 1.1760000000000068,48.470000000000006 0.1460000000000068,48.398 0.07100000000000684,48.455000000000005 C -0.004999999999993163,48.511 -0.01299999999999317,48.632000000000005 0.012000000000006839,48.672000000000004 C 0.03700000000000684,48.713 0.40600000000000686,48.922000000000004 0.5900000000000067,48.906000000000006 C 0.7750000000000068,48.89000000000001 1.6540000000000068,49.06700000000001 2.843000000000007,49.181000000000004 C 4.005000000000007,49.290000000000006 44.63000000000001,53.726000000000006 46.506,53.932 C 46.515,54.269000000000005 46.485,54.549 46.54,55.197 C 46.607,55.988 47.277,55.939 47.512,55.972 C 47.639,55.989000000000004 48.346000000000004,56.007 48.973,56.018 C 48.997,55.196 49.071999999999996,54.439 49.129999999999995,53.965 C 49.06399999999999,53.954 48.992,53.944 48.916999999999994,53.93000000000001 C 48.104,53.779 47.514,53.532 47.295,53.433"/>
	<path d="M 99.929,48.454 C 99.85300000000001,48.397 98.82300000000001,48.469 98.756,48.454 C 98.69,48.438 56.453,51.06 54.201,51.097 C 54.077,51.026 53.799,50.867000000000004 53.652,50.671 C 53.660000000000004,51.243 53.658,51.81 53.625,52.041 C 53.571,52.418 53.526,52.619 53.411,52.812999999999995 C 53.25,53.089 52.894,53.346 52.703,53.431999999999995 C 52.487,53.532 51.895,53.778999999999996 51.083000000000006,53.928999999999995 C 51.007000000000005,53.943 50.934000000000005,53.952999999999996 50.868,53.96399999999999 C 50.927,54.43799999999999 51.001000000000005,55.19399999999999 51.026,56.01699999999999 C 51.652,56.005999999999986 52.361000000000004,55.987999999999985 52.487,55.97099999999999 C 52.72,55.93799999999999 53.391000000000005,55.98699999999999 53.458,55.19599999999999 C 53.515,54.54899999999999 53.483,54.267999999999994 53.492999999999995,53.93099999999999 C 55.36899999999999,53.72499999999999 95.994,49.28899999999999 97.15599999999999,49.17999999999999 C 98.344,49.065999999999995 99.22399999999999,48.888999999999996 99.40899999999999,48.904999999999994 C 99.594,48.92099999999999 99.96199999999999,48.711999999999996 99.987,48.67099999999999 C 100.012,48.62999999999999 100.003,48.51 99.929,48.454"/>
	<path d="M 52.646,45.089 L 52.64,45.074999999999996 C 52.513,44.769 51.662,43.205999999999996 51.489,42.901999999999994 C 51.342999999999996,42.64399999999999 51.099,42.36299999999999 50.891999999999996,42.21699999999999 C 50.716,42.093 50.341,42.0 50.002,42.0 L 49.996,42.0 C 49.659,42.0 49.284,42.093 49.109,42.218 C 48.903,42.364000000000004 48.658,42.645 48.512,42.903000000000006 C 48.338,43.20700000000001 47.488,44.77 47.361,45.07600000000001 L 47.355999999999995,45.09000000000001 C 47.349,45.10700000000001 47.340999999999994,45.12400000000001 47.333999999999996,45.14200000000001 C 47.962999999999994,44.39400000000001 48.924,43.91500000000001 49.998999999999995,43.91500000000001 C 51.081999999999994,43.91500000000001 52.047999999999995,44.40000000000001 52.67699999999999,45.15700000000001 C 52.665,45.133 52.655,45.11 52.646,45.089 M 51.0,43.445 C 51.0,43.489 50.991,43.69 50.889,43.69 C 50.788000000000004,43.69 50.548,43.711 50.492000000000004,43.711 C 50.438,43.711 50.269000000000005,43.662 50.232000000000006,43.638999999999996 C 50.19400000000001,43.614999999999995 50.035000000000004,43.611 49.99700000000001,43.611 C 49.958000000000006,43.611 49.797000000000004,43.614999999999995 49.75900000000001,43.638999999999996 C 49.72100000000001,43.662 49.54800000000001,43.711 49.49300000000001,43.711 C 49.43700000000001,43.711 49.21000000000001,43.69 49.11000000000001,43.69 C 49.00900000000001,43.69 49.00000000000001,43.489 49.00000000000001,43.445 C 49.00000000000001,43.4 49.00000000000001,42.908 49.00000000000001,42.86 C 49.00000000000001,42.812 48.98800000000001,42.731 49.14000000000001,42.594 C 49.29100000000001,42.457 49.71200000000001,42.255 50.01400000000001,42.255 C 50.31600000000001,42.255 50.71600000000001,42.457 50.86700000000001,42.594 C 51.019,42.73 51.0,42.811 51.0,42.859 C 51.0,42.908 51.0,43.399 51.0,43.445"/>
	<path d="M 49.239,53.212 C 49.329,52.575 49.381,52.265 49.454,52.17 C 49.56,52.036 49.642,51.999 49.723,51.972 C 49.736,51.967 49.75,51.964 49.763999999999996,51.96 C 48.772,51.878 47.934999999999995,51.276 47.547999999999995,50.438 C 47.492999999999995,50.318000000000005 47.446,50.193000000000005 47.41,50.063 C 47.403999999999996,50.04 47.397999999999996,50.018 47.391999999999996,49.995000000000005 C 47.38099999999999,49.987 47.37,49.981 47.36,49.974000000000004 C 47.277,49.917 47.201,49.856 47.133,49.790000000000006 C 46.818000000000005,49.48500000000001 46.677,49.107000000000006 46.614000000000004,48.67700000000001 C 46.591,48.95100000000001 46.574000000000005,49.17300000000001 46.574000000000005,49.281000000000006 C 46.574000000000005,49.385000000000005 46.57000000000001,49.58200000000001 46.565000000000005,49.830000000000005 C 46.56100000000001,50.00900000000001 46.556000000000004,50.218 46.553000000000004,50.43600000000001 C 46.542,51.06300000000001 46.537000000000006,51.76400000000001 46.57300000000001,52.01200000000001 C 46.632000000000005,52.412000000000006 46.67300000000001,52.56400000000001 46.76100000000001,52.717000000000006 C 46.89600000000001,52.94500000000001 47.20800000000001,53.17700000000001 47.38300000000001,53.257000000000005 C 47.54700000000001,53.33200000000001 48.14300000000001,53.587 48.95500000000001,53.736000000000004 C 49.02600000000001,53.749 49.09300000000001,53.760000000000005 49.15600000000001,53.771 C 49.16500000000001,53.703 49.174000000000014,53.646 49.18100000000001,53.599000000000004 C 49.2,53.486 49.219,53.353 49.239,53.212"/>
	<path d="M 52.618,53.259 C 52.791000000000004,53.179 53.102000000000004,52.947 53.238,52.719 C 53.327,52.566 53.368,52.414 53.426,52.014 C 53.461,51.766000000000005 53.457,51.065000000000005 53.446000000000005,50.438 C 53.44200000000001,50.22 53.438,50.011 53.434000000000005,49.832 C 53.428000000000004,49.584 53.42400000000001,49.388 53.42400000000001,49.283 C 53.42400000000001,49.172000000000004 53.40800000000001,48.946 53.38300000000001,48.666000000000004 C 53.32200000000001,49.102000000000004 53.18400000000001,49.483000000000004 52.86600000000001,49.791000000000004 C 52.79600000000001,49.86000000000001 52.71600000000001,49.923 52.629000000000005,49.981 C 52.621,49.987 52.611000000000004,49.994 52.602000000000004,50.0 C 52.596000000000004,50.021 52.59,50.042 52.584,50.063 C 52.547000000000004,50.193000000000005 52.5,50.317 52.443000000000005,50.438 C 52.05800000000001,51.276 51.22200000000001,51.877 50.233000000000004,51.959 C 50.24700000000001,51.964000000000006 50.26200000000001,51.967000000000006 50.275000000000006,51.972 C 50.357000000000006,51.999 50.43900000000001,52.036 50.54500000000001,52.17 C 50.61900000000001,52.265 50.67000000000001,52.575 50.76000000000001,53.212 C 50.780000000000015,53.353 50.799000000000014,53.486000000000004 50.81600000000001,53.602000000000004 C 50.82400000000001,53.649 50.83300000000001,53.706 50.84100000000001,53.774 C 50.90400000000001,53.763 50.97100000000001,53.752 51.043000000000006,53.739000000000004 C 51.856,53.589 52.452,53.334 52.618,53.259"/>
	<path d="M 46.938,46.846 C 47.141000000000005,46.997 47.304,47.12 47.43,47.218999999999994 C 47.63,47.37799999999999 47.738,47.477999999999994 47.767,47.547 C 47.835,47.702 47.826,47.788 47.81,47.87 C 47.808,47.882999999999996 47.805,47.896 47.801,47.909 C 48.285000000000004,47.243 49.088,46.808 49.996,46.808 C 50.903000000000006,46.808 51.704,47.242 52.189,47.905 C 52.185,47.891 52.181,47.878 52.179,47.865 C 52.163000000000004,47.782000000000004 52.154,47.696000000000005 52.222,47.54 C 52.253,47.473 52.361000000000004,47.372 52.561,47.213 C 52.687,47.113 52.849,46.991 53.053,46.839 C 53.093999999999994,46.808 53.135,46.778 53.174,46.748 C 53.178,46.745 53.182,46.742 53.188,46.739 C 53.174,46.662 53.159,46.586 53.139,46.510999999999996 C 52.808,45.135999999999996 51.523,44.107 49.996,44.107 C 48.506,44.107 47.25,45.083999999999996 46.879000000000005,46.408 C 46.848000000000006,46.518 46.82300000000001,46.631 46.80500000000001,46.746 C 46.81000000000001,46.75 46.81700000000001,46.755 46.82300000000001,46.759 C 46.861,46.789 46.899,46.817 46.938,46.846"/>
	<path d="M 47.535,48.331 C 47.47,48.386 47.395999999999994,48.436 47.221999999999994,48.457 C 47.21399999999999,48.458 47.205999999999996,48.458 47.196999999999996,48.458 L 47.196999999999996,48.458 C 47.159,48.458 47.105,48.446999999999996 47.037,48.428999999999995 C 46.967,48.40899999999999 46.882999999999996,48.382 46.784,48.346 C 46.815,48.811 46.909,49.217999999999996 47.171,49.537 C 47.205,49.577 47.239,49.616 47.277,49.653 C 47.297000000000004,49.672 47.318,49.69 47.339,49.708999999999996 C 47.324999999999996,49.604 47.318,49.49699999999999 47.318,49.388 C 47.318,49.001 47.408,48.632999999999996 47.567,48.303 C 47.556,48.313 47.546,48.323 47.535,48.331"/>
	<path d="M 52.725,49.655 C 52.758,49.623000000000005 52.789,49.588 52.819,49.553000000000004 C 53.091,49.230000000000004 53.185,48.815000000000005 53.214000000000006,48.34 C 53.11500000000001,48.376000000000005 53.02700000000001,48.404 52.958000000000006,48.423 C 52.888000000000005,48.443000000000005 52.833000000000006,48.453 52.794000000000004,48.453 C 52.786,48.453 52.776,48.453 52.771,48.451 C 52.598,48.43 52.524,48.38 52.458,48.325 C 52.448,48.317 52.437999999999995,48.308 52.428999999999995,48.300000000000004 C 52.58899999999999,48.63100000000001 52.67999999999999,49.00000000000001 52.67999999999999,49.389 C 52.67999999999999,49.5 52.67099999999999,49.61 52.657999999999994,49.716 C 52.678,49.696 52.701,49.675 52.725,49.655"/>
	<path d="M 50.67,53.994 C 50.665,53.96 50.661,53.929 50.658,53.898 C 50.652,53.86300000000001 50.649,53.831 50.644,53.800000000000004 C 50.635,53.734 50.626999999999995,53.675000000000004 50.619,53.63 C 50.601,53.515 50.581,53.377 50.561,53.238 C 50.512,52.889 50.437,52.363 50.384,52.285 C 50.307,52.187999999999995 50.259,52.169999999999995 50.208,52.153 C 50.15,52.134 50.048,52.122 50.0,52.122 C 49.951,52.122 49.85,52.135 49.791,52.153 C 49.739999999999995,52.17 49.692,52.187999999999995 49.614,52.286 C 49.562,52.363 49.486999999999995,52.89 49.437999999999995,53.238 C 49.41799999999999,53.377 49.397999999999996,53.514 49.38099999999999,53.63 C 49.37299999999999,53.675000000000004 49.36399999999999,53.734 49.355999999999995,53.800000000000004 C 49.352,53.830000000000005 49.34799999999999,53.862 49.34199999999999,53.898 C 49.33899999999999,53.928000000000004 49.33399999999999,53.96 49.32999999999999,53.994 C 49.27199999999999,54.462 49.19999999999999,55.209 49.17499999999999,56.022 C 49.16599999999999,56.321 49.16299999999999,56.629 49.17099999999999,56.936 C 49.20599999999999,58.382 49.56099999999999,60.866 49.68299999999999,61.162 C 49.78499999999999,61.408 49.90299999999999,61.408 49.974999999999994,61.408 L 50.0,61.408 L 50.025,61.408 L 50.025,61.408 C 50.097,61.408 50.214,61.408 50.317,61.162 C 50.44,60.866 50.794,58.382999999999996 50.829,56.936 C 50.837,56.629 50.833,56.321 50.824,56.022 C 50.8,55.209 50.727,54.462 50.67,53.994"/>
	<path d="M 52.659,47.388 C 52.528,47.492 52.427,47.579 52.407,47.617 C 52.358999999999995,47.730999999999995 52.369,47.778999999999996 52.376,47.829 C 52.39,47.889 52.428999999999995,47.978 52.454,48.019 C 52.479,48.061 52.538000000000004,48.138999999999996 52.587,48.178 C 52.628,48.211 52.667,48.242 52.793000000000006,48.257999999999996 L 52.793000000000006,48.257999999999996 C 52.82000000000001,48.257999999999996 52.87100000000001,48.245999999999995 52.93600000000001,48.227 C 53.013000000000005,48.20399999999999 53.11500000000001,48.169 53.223000000000006,48.128 C 53.25600000000001,48.115 53.290000000000006,48.103 53.32600000000001,48.089 C 53.32600000000001,48.089 53.32800000000001,48.088 53.32800000000001,48.088 C 53.36100000000001,48.076 53.39400000000001,48.063 53.42600000000001,48.051 C 53.42600000000001,48.051 53.42600000000001,48.051 53.42800000000001,48.051 C 53.45900000000001,48.038000000000004 53.49200000000001,48.027 53.52400000000001,48.014 C 53.59700000000001,47.985 53.67100000000001,47.956 53.73800000000001,47.93 C 53.87700000000001,47.877 54.007000000000005,47.825 54.120000000000005,47.782 C 54.43900000000001,47.662 55.285000000000004,47.312 56.212,46.842 C 56.537000000000006,46.675 56.874,46.495 57.199000000000005,46.303 C 57.301,46.244 57.40800000000001,46.178 57.519000000000005,46.108999999999995 C 58.797000000000004,45.31399999999999 60.55500000000001,43.995 60.74400000000001,43.76299999999999 C 60.913000000000004,43.55399999999999 60.85300000000001,43.456999999999994 60.81000000000001,43.38499999999999 L 60.80000000000001,43.36699999999999 C 60.76100000000001,43.30099999999999 60.71600000000001,43.22599999999999 60.53500000000001,43.22599999999999 C 60.50200000000001,43.22599999999999 60.46500000000001,43.22899999999999 60.42600000000001,43.233999999999995 C 60.09700000000001,43.279999999999994 57.68600000000001,44.227 56.37000000000001,44.92099999999999 C 55.69900000000001,45.273999999999994 55.046000000000014,45.68099999999999 54.521000000000015,46.02799999999999 C 54.042000000000016,46.346999999999994 53.67200000000002,46.614999999999995 53.500000000000014,46.74899999999999 C 53.469000000000015,46.77299999999999 53.436000000000014,46.798999999999985 53.40000000000001,46.82499999999999 C 53.396000000000015,46.82699999999999 53.39200000000001,46.83099999999999 53.38800000000001,46.83399999999999 C 53.37000000000001,46.84699999999999 53.35500000000001,46.85899999999999 53.33700000000001,46.87099999999999 C 53.32700000000001,46.877999999999986 53.31700000000001,46.88599999999999 53.30800000000001,46.89299999999999 C 53.30400000000001,46.89599999999999 53.29800000000001,46.89899999999999 53.294000000000004,46.902999999999984 C 53.27,46.92299999999999 53.24,46.94399999999998 53.213,46.96499999999998 C 53.209,46.96799999999998 53.207,46.969999999999985 53.204,46.972999999999985 C 53.194,46.97999999999998 53.184,46.98599999999998 53.177,46.99299999999999 C 53.019,47.111 52.816,47.262 52.659,47.388"/>
	<path d="M 42.465,46.11 C 42.578,46.181 42.688,46.248 42.793000000000006,46.309 C 43.11600000000001,46.498 43.44800000000001,46.677 43.77,46.842 C 44.699000000000005,47.315 45.551,47.667 45.871,47.788 C 45.985,47.83 46.117000000000004,47.882999999999996 46.253,47.936 C 46.324,47.964 46.399,47.994 46.477,48.023 C 46.507,48.035000000000004 46.538,48.04600000000001 46.568999999999996,48.058 C 46.56999999999999,48.058 46.571999999999996,48.059 46.57299999999999,48.06 C 46.605999999999995,48.072 46.63799999999999,48.084 46.67099999999999,48.097 L 46.67099999999999,48.097 C 46.70399999999999,48.111000000000004 46.73899999999999,48.123000000000005 46.77199999999999,48.135 C 46.88099999999999,48.175999999999995 46.980999999999995,48.21 47.05899999999999,48.233 C 47.12199999999999,48.253 47.16899999999999,48.263999999999996 47.19599999999999,48.263999999999996 L 47.19699999999999,48.263999999999996 C 47.32399999999999,48.248 47.362999999999985,48.217 47.40399999999999,48.181999999999995 C 47.450999999999986,48.142999999999994 47.51099999999999,48.065 47.53699999999999,48.022999999999996 C 47.56099999999999,47.983 47.60199999999999,47.891999999999996 47.61299999999999,47.833999999999996 C 47.62299999999999,47.782999999999994 47.63199999999999,47.735 47.58299999999999,47.620999999999995 C 47.56299999999999,47.583999999999996 47.462999999999994,47.495999999999995 47.33299999999999,47.391999999999996 C 47.17499999999999,47.266 46.97399999999999,47.11599999999999 46.81599999999999,46.998 C 46.80999999999999,46.994 46.80299999999999,46.988 46.795999999999985,46.983 C 46.79199999999999,46.979 46.78599999999999,46.974999999999994 46.780999999999985,46.971999999999994 C 46.75499999999998,46.95199999999999 46.728999999999985,46.93299999999999 46.70299999999998,46.913 C 46.69699999999998,46.909 46.69199999999998,46.904999999999994 46.68499999999998,46.9 C 46.67199999999998,46.891 46.65899999999998,46.879999999999995 46.646999999999984,46.870999999999995 C 46.634999999999984,46.861999999999995 46.62399999999998,46.85399999999999 46.61099999999998,46.84499999999999 C 46.603999999999985,46.83999999999999 46.59899999999998,46.834999999999994 46.591999999999985,46.83099999999999 C 46.55699999999999,46.80399999999999 46.52299999999998,46.77799999999999 46.49199999999998,46.752999999999986 C 46.316999999999986,46.618999999999986 45.94399999999998,46.347999999999985 45.46299999999998,46.027999999999984 C 44.94099999999998,45.68199999999999 44.28999999999998,45.277999999999984 43.622999999999976,44.92499999999998 C 42.30499999999998,44.23099999999998 39.894999999999975,43.283999999999985 39.56699999999998,43.23899999999998 C 39.52699999999998,43.23299999999998 39.48999999999998,43.22999999999998 39.45699999999998,43.22999999999998 C 39.27499999999998,43.22999999999998 39.23299999999998,43.304999999999986 39.19299999999998,43.37099999999998 L 39.18299999999998,43.38899999999998 C 39.13899999999998,43.45999999999998 39.07899999999998,43.55799999999998 39.24999999999998,43.76799999999998 C 39.438,44.0 41.187,45.315 42.465,46.11"/>
	<path d="M 49.997,47.055 C 48.658,47.055 47.573,48.1 47.573,49.389 C 47.573,50.679 48.658,51.723000000000006 49.997,51.723000000000006 C 51.335,51.723000000000006 52.419,50.67900000000001 52.419,49.389 C 52.419,48.101 51.335,47.055 49.997,47.055 M 49.997,50.129 C 49.573,50.129 49.229,49.797999999999995 49.229,49.39 C 49.229,48.982 49.573,48.65 49.997,48.65 C 50.421,48.65 50.765,48.982 50.765,49.39 C 50.765,49.798 50.421,50.129 49.997,50.129"/>
</svg>
