<?xml version="1.0" ?>
<svg xmlns="http://www.w3.org/2000/svg" xmlns:ev="http://www.w3.org/2001/xml-events" xmlns:xlink="http://www.w3.org/1999/xlink" baseProfile="full" enable-background="new 0 0 99.996 100" height="600px" version="1.1" viewBox="0 0 99.996 100" width="600px" x="0px" xml:space="preserve" y="0px">
	<defs/>
	<path d="M 93.917,71.206 C 91.61,75.965 88.556,80.296 84.898,84.041 L 78.53999999999999,77.684 C 81.65599999999999,74.473 84.16699999999999,70.83 86.01899999999999,66.892 L 86.01799999999999,66.892 C 88.38799999999999,61.848 89.67499999999998,56.31999999999999 89.76099999999998,50.593999999999994 L 98.77599999999998,50.593999999999994 C 98.684,57.972 96.946,64.958 93.917,71.206 L 95.007,71.799 C 98.266,65.08600000000001 99.99600000000001,57.67300000000001 99.99600000000001,49.99100000000001 C 99.99600000000001,43.458000000000006 98.74300000000001,37.12100000000001 96.36500000000001,31.241000000000007 C 93.885,25.101000000000006 90.17500000000001,19.462000000000007 85.35100000000001,14.637000000000008 C 80.50800000000001,9.795000000000009 74.84400000000001,6.077000000000007 68.67700000000002,3.5950000000000077 L 68.67500000000003,3.6000000000000076 C 62.816,1.242 56.503,0.0 49.998,0.0 C 41.96,0.0 34.365,1.917 27.63,5.302 L 28.18,6.353999999999999 C 34.697,3.087999999999999 41.908,1.3089999999999993 49.396,1.2189999999999994 L 49.396,10.235999999999999 C 43.289,10.326999999999998 37.518,11.809 32.371,14.363999999999999 L 32.918,15.412999999999998 C 37.989,12.902999999999999 43.586,11.527999999999999 49.396,11.438999999999998 L 49.396,19.602999999999998 C 44.854,19.692999999999998 40.557,20.784999999999997 36.711,22.662 L 36.974,23.163999999999998 L 36.711,22.660999999999998 C 33.841,24.061999999999998 31.22,25.897999999999996 28.941,28.089 L 23.157999999999998,22.307 C 26.075999999999997,19.474999999999998 29.369999999999997,17.168 32.917,15.412999999999998 L 32.370000000000005,14.363999999999999 C 28.657000000000004,16.208 25.266000000000005,18.608999999999998 22.319000000000003,21.468 L 15.931000000000003,15.081 C 19.593000000000004,11.506 23.725,8.585999999999999 28.179000000000002,6.353999999999999 L 27.629,5.302 C 17.895,10.194 9.97,18.166 5.144,27.939 L 5.709,28.244 L 5.144,27.939 C 1.856,34.597 0.0,42.083 0.0,49.996 C 0.0,54.837 0.691,59.567 2.012,64.08800000000001 L 3.193,63.79100000000001 C 1.951,59.55600000000001 1.274,55.128000000000014 1.219,50.59900000000001 L 10.234,50.59900000000001 C 10.289,54.37600000000001 10.872,58.06700000000001 11.939,61.58800000000001 L 13.108,61.29400000000001 C 12.063,57.866000000000014 11.494,54.27500000000001 11.438,50.59900000000001 L 19.602,50.59900000000001 C 19.625,51.80100000000001 19.738,52.98700000000001 19.899,54.16100000000001 C 19.326,54.22400000000001 18.783,54.41000000000001 18.783,54.41000000000001 L 18.540000000000003,55.244000000000014 C 17.986000000000004,55.34600000000001 17.638,56.25100000000001 17.638,56.25100000000001 C 17.184,56.40400000000001 16.827,56.96500000000001 16.978,57.119000000000014 C 17.129,57.27200000000001 16.700000000000003,57.32700000000001 16.700000000000003,57.32700000000001 L 16.700000000000003,58.47300000000001 L 16.457000000000004,58.82100000000001 L 16.526000000000003,60.036000000000016 C 16.829000000000004,60.036000000000016 16.769000000000002,60.62600000000002 16.769000000000002,60.62600000000002 C 16.265,60.67800000000002 16.352,61.32100000000002 16.352,61.32100000000002 L 15.31,61.70300000000002 L 15.102,61.98000000000002 L 13.783000000000001,61.94600000000002 L 13.444,62.28400000000002 C 13.334000000000001,61.95600000000002 13.213000000000001,61.63000000000002 13.111,61.29700000000002 L 11.942,61.59200000000002 C 11.978,61.71200000000002 12.023,61.82700000000002 12.061,61.94600000000002 L 10.555,61.94600000000002 L 10.451,61.70300000000002 L 9.965,61.59900000000002 L 9.895999999999999,61.009000000000015 L 9.132,61.07800000000002 L 8.993,61.390000000000015 L 8.194,61.424000000000014 C 8.245000000000001,61.93700000000001 7.391000000000001,62.704000000000015 7.292000000000001,62.500000000000014 C 7.19,62.295000000000016 6.623000000000001,61.734000000000016 6.875000000000001,61.63300000000002 C 7.127000000000001,61.52900000000002 7.7780000000000005,61.424000000000014 7.7780000000000005,61.424000000000014 L 7.7780000000000005,61.07700000000001 L 5.938000000000001,61.00800000000001 L 5.73,61.32000000000001 L 4.966,61.38900000000001 L 4.966,62.18700000000001 L 4.619,62.29100000000001 C 4.367,62.44400000000001 4.654,63.02000000000001 4.654,63.02000000000001 C 5.008,63.37700000000001 4.619,63.92200000000001 4.619,63.92200000000001 C 4.316,64.23000000000002 4.862,64.82500000000002 4.862,64.82500000000002 C 5.266,64.92700000000002 4.619,65.20700000000002 4.619,65.20700000000002 C 4.718,65.72 5.0,65.867 5.0,65.867 C 4.696,66.38000000000001 5.208,66.66600000000001 5.208,66.66600000000001 L 5.277,67.534 L 5.6240000000000006,67.742 L 5.6240000000000006,68.298 L 5.832000000000001,68.645 L 6.631000000000001,68.645 L 6.561000000000001,67.36099999999999 C 5.855,66.54199999999999 7.1690000000000005,66.36099999999999 7.221000000000001,66.66699999999999 C 7.272000000000001,66.97399999999999 7.846000000000001,67.11799999999998 7.846000000000001,67.11799999999998 C 7.947000000000001,67.88699999999999 8.81,68.33699999999997 9.061000000000002,67.56899999999997 C 9.313000000000002,66.80099999999997 9.500000000000002,67.28099999999998 9.651000000000002,67.63799999999998 C 9.802000000000001,67.99599999999998 10.762000000000002,68.85399999999997 10.762000000000002,68.85399999999997 L 11.526000000000002,68.85399999999997 L 11.63,69.58299999999997 C 12.487,69.53099999999996 12.735000000000001,69.62199999999997 13.088000000000001,70.79899999999996 C 13.442,71.97499999999997 14.407,72.29199999999996 14.407,72.29199999999996 L 15.100999999999999,72.22199999999997 C 15.100999999999999,71.60999999999997 15.794999999999998,72.33199999999997 15.794999999999998,72.63899999999997 C 15.794999999999998,72.94499999999996 17.148999999999997,74.13199999999996 17.148999999999997,74.13199999999996 L 18.537999999999997,74.44399999999996 L 18.823999999999998,74.67299999999996 C 19.65,75.71299999999997 20.517999999999997,76.72499999999997 21.453999999999997,77.68999999999996 L 15.078999999999997,84.06599999999996 C 9.441,78.284 5.411,71.347 3.196,63.793 L 2.015,64.09 C 4.339,72.042 8.626,79.331 14.647,85.352 C 18.725,89.43 23.386000000000003,92.71300000000001 28.439,95.13300000000001 L 29.037,94.07100000000001 C 24.255,91.793 19.831,88.72000000000001 15.934,84.91600000000001 L 22.308999999999997,78.54200000000002 C 25.621,81.75800000000001 29.398999999999997,84.32100000000001 33.483999999999995,86.18900000000002 L 34.07899999999999,85.13400000000001 C 30.086999999999993,83.32200000000002 26.394999999999992,80.82400000000001 23.160999999999994,77.69000000000001 L 24.340999999999994,76.51100000000001 C 24.402999999999995,76.62400000000001 24.454999999999995,76.763 24.478999999999996,76.94300000000001 C 24.578999999999997,77.71100000000001 24.929999999999996,77.56800000000001 24.929999999999996,77.56800000000001 L 27.811999999999998,77.49900000000001 L 28.819,76.63100000000001 L 31.387999999999998,76.59600000000002 C 32.699999999999996,76.54500000000002 31.883,74.72100000000002 31.630999999999997,74.72100000000002 C 31.479999999999997,74.60300000000002 31.455,74.35800000000002 31.479999999999997,74.08600000000001 C 33.534,75.671 35.754,76.98800000000001 38.11,77.99000000000001 L 38.705,76.936 C 35.879999999999995,75.75 33.257,74.09 30.895,72.039 L 29.816,71.042 L 36.163,64.69500000000001 C 38.211,66.62700000000001 40.596,68.08300000000001 43.181,69.00900000000001 C 43.887,69.26200000000001 44.611,69.46000000000001 45.343999999999994,69.63300000000001 C 45.214999999999996,69.74700000000001 45.142999999999994,69.85400000000001 45.172999999999995,69.92900000000002 C 45.273999999999994,70.18500000000002 44.75599999999999,70.45000000000002 44.75599999999999,70.45000000000002 L 44.303999999999995,70.58900000000001 L 43.992,71.04100000000001 L 43.401999999999994,71.24900000000001 L 43.297999999999995,72.325 L 42.986,72.533 L 42.986,72.985 L 42.638999999999996,73.089 L 42.638999999999996,73.367 L 42.117999999999995,73.40100000000001 L 42.42999999999999,74.165 L 42.846999999999994,74.37400000000001 C 43.553,74.47600000000001 43.22899999999999,75.346 43.22899999999999,75.346 L 43.645999999999994,75.415 L 43.85399999999999,75.971 L 44.23599999999999,76.77000000000001 C 44.38799999999999,77.385 44.86699999999999,77.23800000000001 45.06899999999999,77.18700000000001 C 45.27099999999999,77.13700000000001 45.450999999999986,77.81200000000001 45.450999999999986,77.81200000000001 L 47.46499999999999,77.84600000000002 C 47.46499999999999,77.84600000000002 47.389999999999986,78.05700000000002 47.74299999999999,78.15800000000002 C 47.93799999999999,78.21500000000002 48.72099999999999,78.27500000000002 49.402999999999984,78.29400000000001 L 49.402999999999984,79.19300000000001 C 45.67299999999999,79.12000000000002 42.057999999999986,78.34600000000002 38.70899999999998,76.94100000000002 L 38.11399999999998,77.99600000000002 C 41.64599999999999,79.49600000000002 45.460999999999984,80.32200000000002 49.402999999999984,80.39700000000002 L 49.402999999999984,88.56100000000002 C 44.030999999999985,88.47900000000003 38.84299999999998,87.29800000000002 34.08399999999998,85.13900000000002 L 33.48899999999998,86.19400000000003 C 38.42899999999998,88.45200000000003 43.820999999999984,89.68300000000004 49.402999999999984,89.76600000000003 L 49.402999999999984,98.78100000000003 C 42.24199999999998,98.69500000000004 35.33199999999999,97.07200000000003 29.042999999999985,94.07500000000003 L 28.443999999999985,95.13700000000003 C 35.088,98.318 42.416,100.0 50.003,100.0 C 57.961,100.0 65.63,98.14 72.531,94.648 L 71.962,93.544 C 65.52600000000001,96.804 58.281000000000006,98.687 50.606,98.78099999999999 L 50.606,89.76599999999999 C 54.281,89.71199999999999 57.870000000000005,89.14999999999999 61.304,88.13399999999999 L 62.185,88.40099999999998 L 62.463,89.23399999999998 L 62.845,89.16499999999998 L 63.157,88.92199999999998 L 64.372,88.85299999999998 L 64.963,88.29699999999998 L 65.622,88.19299999999998 L 70.335,84.18399999999998 C 72.969,82.61399999999999 75.44,80.73499999999999 77.69399999999999,78.54699999999998 L 84.05199999999999,84.90499999999999 C 80.505,88.36699999999999 76.42599999999999,91.28299999999999 71.96199999999999,93.54399999999998 L 72.53199999999998,94.64799999999998 C 77.20899999999997,92.28099999999998 81.54099999999998,89.16999999999999 85.35499999999999,85.35599999999998 C 89.36699999999999,81.34499999999998 92.603,76.76799999999999 95.00899999999999,71.80999999999997 L 95.006,71.8 L 93.917,71.206 M 76.691,61.799 C 75.31400000000001,64.899 73.418,67.716 71.104,70.139 C 71.003,69.116 70.76,67.98599999999999 70.76,67.98599999999999 L 70.378,67.77799999999999 L 70.482,66.562 L 69.926,66.562 L 69.023,67.743 L 68.914,68.05799999999999 L 68.393,67.53699999999999 L 68.642,67.25599999999999 L 68.60799999999999,66.66599999999998 L 68.95499999999998,66.35399999999998 L 68.95499999999998,65.83299999999998 L 69.26699999999998,65.72899999999998 L 69.30199999999998,64.61799999999998 L 69.57899999999998,64.54899999999998 L 69.57899999999998,62.083999999999975 L 68.81499999999998,61.38999999999997 C 68.76499999999999,61.64599999999997 67.94699999999999,61.632999999999974 67.94699999999999,61.632999999999974 C 67.94699999999999,61.632999999999974 67.752,61.979999999999976 67.6,61.979999999999976 C 67.448,61.979999999999976 67.806,62.46999999999998 67.704,62.778999999999975 C 67.604,63.08499999999997 67.18299999999999,63.055999999999976 67.18299999999999,63.055999999999976 L 66.419,63.26499999999998 L 66.24499999999999,63.54199999999998 L 65.41199999999999,63.54199999999998 L 65.35999999999999,63.04799999999998 C 65.42499999999998,62.96999999999998 65.49499999999999,62.89499999999998 65.55999999999999,62.81599999999998 L 66.24499999999999,62.60499999999998 L 66.731,62.36199999999998 L 66.97399999999999,61.84099999999998 C 67.02399999999999,61.32999999999998 67.633,61.38999999999998 67.633,61.38999999999998 C 67.633,61.38999999999998 68.79899999999999,60.42599999999998 68.84899999999999,59.96599999999998 C 68.901,59.50499999999998 69.32399999999998,58.19499999999998 70.02999999999999,58.19499999999998 L 71.314,58.19499999999998 C 71.818,57.98999999999998 71.696,57.32699999999998 71.696,57.32699999999998 L 72.321,57.22299999999998 L 72.425,57.604999999999976 C 72.425,57.604999999999976 73.332,57.689999999999976 73.432,57.53599999999997 C 73.534,57.38399999999997 73.735,57.034999999999975 73.988,57.18899999999997 C 74.239,57.34199999999997 75.064,56.84099999999997 75.064,56.84099999999997 C 75.11399999999999,56.482999999999976 76.383,56.632999999999974 76.383,56.632999999999974 L 76.52199999999999,56.14699999999998 C 76.52199999999999,56.14699999999998 75.66799999999999,55.000999999999976 75.51499999999999,55.000999999999976 C 75.36399999999999,55.000999999999976 74.53999999999999,54.25899999999998 74.439,54.51499999999998 C 73.63199999999999,54.31099999999998 73.71,53.19599999999998 73.71,53.19599999999998 L 73.398,52.46699999999998 C 73.398,52.05699999999998 72.64699999999999,51.184999999999974 72.496,51.28699999999998 C 72.182,51.052999999999976 72.1,50.80799999999998 72.118,50.59699999999998 L 79.18599999999999,50.59699999999998 C 79.106,54.574 78.219,58.359 76.691,61.799 L 76.691,61.799 M 49.095,53.021 L 49.303,52.778 L 49.199,52.431 C 48.794999999999995,52.276999999999994 48.980999999999995,51.912 49.233999999999995,52.013999999999996 C 49.486,52.117 48.88699999999999,51.562999999999995 48.88699999999999,51.562999999999995 C 48.584999999999994,51.818999999999996 48.330999999999996,51.251 48.330999999999996,51.251 L 47.56699999999999,51.251 L 47.56699999999999,50.522 L 47.462999999999994,49.863 L 46.733999999999995,49.516 L 46.178,50.0 L 46.074,50.729 L 46.074,51.18 L 45.553,51.284 L 45.449,52.673 L 45.067,52.846000000000004 L 45.102,53.332 L 44.546,53.506 L 43.99,53.645 L 43.886,54.305 L 43.504000000000005,54.582 L 43.29600000000001,55.173 L 43.05700000000001,56.644000000000005 C 42.33800000000001,55.89300000000001 41.75800000000001,55.04600000000001 41.32200000000001,54.132000000000005 C 41.41100000000001,53.773 41.42100000000001,53.437000000000005 41.42100000000001,53.437000000000005 C 40.968,53.233000000000004 41.229000000000006,52.510000000000005 41.733000000000004,53.12500000000001 C 42.237,53.73800000000001 41.42100000000001,51.909000000000006 41.42100000000001,51.909000000000006 L 41.004000000000005,51.562000000000005 L 40.50600000000001,51.496 C 40.42900000000001,51.004000000000005 40.379000000000005,50.505 40.379000000000005,49.996 C 40.379000000000005,49.783 40.397000000000006,49.572 40.410000000000004,49.36 C 40.556000000000004,49.233 40.725,49.305 40.725,49.305 L 41.003,49.548 L 41.489,49.895 L 41.523999999999994,50.207 L 41.211999999999996,50.381 L 41.177,50.798 L 41.316,51.354 L 41.733000000000004,51.354 C 41.88400000000001,50.535 42.92400000000001,50.528999999999996 43.226000000000006,51.042 L 43.538000000000004,50.313 C 42.832,49.955000000000005 43.544000000000004,49.397000000000006 43.746,49.653000000000006 C 43.948,49.909000000000006 44.406,48.99300000000001 44.406,48.99300000000001 C 44.406,48.99300000000001 44.501,49.09300000000001 44.545,49.13200000000001 C 44.529,49.08900000000001 44.495000000000005,49.00800000000001 44.406,48.85500000000001 C 44.052,48.24000000000001 44.649,47.91700000000001 44.649,47.91700000000001 C 44.549,47.30300000000001 45.309,47.39600000000001 45.309,47.39600000000001 L 45.343999999999994,46.598000000000006 L 44.648999999999994,46.528000000000006 C 44.498999999999995,47.245000000000005 43.894999999999996,46.647000000000006 44.19799999999999,46.49300000000001 C 44.50099999999999,46.339000000000006 44.788,46.00700000000001 44.788,46.00700000000001 L 44.788,45.521000000000015 L 45.099999999999994,45.417000000000016 L 45.169,44.896000000000015 L 45.9,44.896000000000015 L 46.559999999999995,44.58400000000002 L 46.733999999999995,44.341000000000015 L 47.428,44.271000000000015 L 48.434999999999995,43.368000000000016 L 48.330999999999996,42.951000000000015 C 47.726,42.951000000000015 48.330999999999996,42.500000000000014 48.330999999999996,42.500000000000014 L 48.434999999999995,41.73600000000001 L 47.879,41.73600000000001 L 47.78,40.64700000000001 C 48.467,40.485000000000014 49.174,40.39200000000001 49.896,40.38500000000001 L 49.997,41.59800000000001 L 49.441,41.424000000000014 L 49.094,41.424000000000014 L 48.921,41.112000000000016 L 48.643,41.07700000000002 L 48.643,42.18800000000002 L 48.921,42.43100000000002 L 49.199,42.70800000000002 L 49.684999999999995,42.743000000000016 L 49.788999999999994,43.368000000000016 L 51.038999999999994,43.40300000000001 L 51.211999999999996,43.680000000000014 L 51.977,43.71500000000001 L 53.434999999999995,45.20800000000001 L 53.330999999999996,45.66000000000001 L 53.087999999999994,45.83300000000001 C 53.190999999999995,46.19100000000001 52.428999999999995,45.972000000000016 52.428999999999995,45.972000000000016 L 52.428999999999995,46.28400000000001 L 52.775999999999996,46.31900000000001 L 53.123999999999995,46.52700000000001 L 53.644999999999996,45.659000000000006 C 54.199999999999996,45.30100000000001 54.425999999999995,45.803000000000004 54.477999999999994,46.11000000000001 C 54.528999999999996,46.41700000000001 54.236,46.388000000000005 54.236,46.388000000000005 L 54.236,47.08200000000001 L 54.547999999999995,47.18600000000001 C 55.053,47.800000000000004 54.33899999999999,48.15800000000001 54.33899999999999,48.15800000000001 L 54.19999999999999,48.67900000000001 C 54.04799999999999,49.13900000000001 53.47099999999999,49.02600000000001 53.47099999999999,49.02600000000001 L 53.26299999999999,49.33800000000001 L 52.67299999999999,49.51200000000001 L 53.85299999999999,49.65100000000001 C 53.966999999999985,49.241000000000014 54.29099999999999,49.13300000000001 54.44399999999999,49.33900000000001 C 54.59499999999999,49.54400000000001 54.58299999999999,49.929000000000016 54.58299999999999,49.929000000000016 L 54.89499999999999,49.96400000000001 L 54.825999999999986,50.51900000000001 L 55.137999999999984,50.62300000000001 L 55.137999999999984,52.25500000000001 L 55.48599999999998,52.67200000000001 C 56.08999999999998,52.41700000000001 56.10199999999998,52.81500000000001 55.79799999999998,53.01900000000001 C 55.49699999999998,53.22300000000001 55.69399999999998,54.16500000000001 55.69399999999998,54.16500000000001 L 55.45099999999998,54.408000000000015 L 55.45099999999998,54.82500000000002 L 55.13899999999998,55.033000000000015 L 55.13899999999998,55.58900000000001 C 54.63399999999998,55.33300000000001 54.04099999999998,55.43500000000001 53.88899999999998,55.58900000000001 C 53.43599999999998,55.28200000000001 52.46499999999998,55.402000000000015 52.46499999999998,55.658000000000015 C 52.76699999999998,56.06800000000001 52.11799999999998,56.14400000000001 52.11799999999998,56.14400000000001 L 51.76999999999998,56.561000000000014 C 52.02299999999998,57.073000000000015 51.52699999999998,57.11700000000001 51.52699999999998,57.11700000000001 L 51.52699999999998,58.08900000000001 L 50.9,58.68 L 50.946,59.568 C 50.634,59.598 50.318,59.616 49.997,59.616 C 47.633,59.616 45.407,58.762 43.65,57.212 C 43.684,57.194 43.717,57.168000000000006 43.747,57.119 C 43.999,56.71 44.407,56.667 44.407,56.667 L 44.546,56.32 L 45.9,56.354 C 46.001,55.791 46.664,55.995 46.664,56.25 C 46.664,56.505 47.185,56.319 47.185,56.319 L 47.532000000000004,55.763000000000005 L 48.088,55.763000000000005 L 48.123,55.138000000000005 L 48.400999999999996,54.964000000000006 L 48.400999999999996,54.062000000000005 C 49.208,53.807 49.095,53.021 49.095,53.021 M 29.873,48.733 C 29.792,48.88999999999999 29.721,48.992999999999995 29.721,48.992999999999995 C 29.662,49.081999999999994 29.631,49.230999999999995 29.613,49.392999999999994 L 27.698,49.392999999999994 L 27.707,49.339999999999996 L 27.151,49.305 C 26.546,48.946 26.839,47.604 26.839,47.604 C 27.796999999999997,46.17 28.921999999999997,46.979 28.921999999999997,46.979 L 29.615999999999996,46.944 C 29.802999999999997,47.07 29.909999999999997,47.218 29.987999999999996,47.372 C 29.93,47.821 29.901,48.277 29.873,48.733 M 40.623,41.945 C 40.421,42.405 39.928999999999995,41.876 39.928999999999995,41.876 C 39.82899999999999,41.568999999999996 39.096,41.876 39.096,41.876 C 39.096,42.439 38.157999999999994,41.632999999999996 38.157999999999994,41.632999999999996 L 36.38699999999999,40.348 C 35.37799999999999,39.427 33.86699999999999,40.613 33.81799999999999,40.869 C 33.84499999999999,41.256 33.49999999999999,41.263 33.17499999999999,41.189 C 33.96599999999999,39.683 34.96399999999999,38.277 36.15699999999999,37.008 L 41.11199999999999,41.963 L 40.623,41.945 M 38.366,51.354 L 38.539,51.042 L 38.631,50.599000000000004 L 39.204,50.599000000000004 C 39.224000000000004,50.964000000000006 39.267,51.325 39.323,51.68000000000001 L 38.99,51.77100000000001 L 38.886,51.56300000000001 L 38.747,52.11900000000001 L 37.844,52.11900000000001 L 37.809000000000005,51.49400000000001 L 38.366,51.354 M 61.076,22.973 C 63.527,23.977 65.834,25.326999999999998 67.94800000000001,26.980999999999998 C 68.00000000000001,27.337999999999997 68.4,27.500999999999998 68.4,27.500999999999998 L 68.592,27.517999999999997 C 68.775,27.668999999999997 68.949,27.83 69.128,27.985999999999997 L 69.128,28.369999999999997 C 69.481,28.281 70.024,28.682999999999996 70.122,29.025999999999996 L 63.839,35.309999999999995 C 62.045,33.62 59.995,32.29299999999999 57.78,31.367999999999995 L 57.78,31.367999999999995 C 55.528,30.426999999999996 53.102000000000004,29.899999999999995 50.6,29.825999999999993 L 50.6,20.810999999999993 C 54.25,20.884 57.788,21.626 61.076,22.973 L 61.076,22.973 M 53.886,60.416 L 54.129000000000005,60.519999999999996 L 53.678000000000004,60.867 L 53.261,61.318999999999996 L 52.775000000000006,61.178999999999995 L 52.15,61.11 L 51.977,60.763 L 51.593999999999994,60.728 L 51.559999999999995,61.422000000000004 L 51.31699999999999,61.734 L 50.69199999999999,62.359 C 51.334999999999994,62.359 50.90899999999999,62.708 50.60499999999999,62.85 L 50.60499999999999,60.794000000000004 C 51.25699999999999,60.758 51.89599999999999,60.661 52.52099999999999,60.513000000000005 C 52.588999999999984,60.57600000000001 52.63599999999999,60.62200000000001 52.63599999999999,60.62200000000001 L 53.08699999999999,60.62200000000001 L 53.10699999999999,60.35300000000001 C 53.34299999999999,60.28300000000001 53.57699999999999,60.20100000000001 53.806999999999995,60.11500000000001 C 53.818,60.26 53.886,60.416 53.886,60.416 M 57.34,32.489 C 59.404,33.354 61.313,34.589 62.987,36.160999999999994 L 62.658,36.49099999999999 C 62.487,36.32899999999999 61.941,36.221999999999994 61.941,36.04299999999999 C 61.941,35.88899999999999 61.679,35.71699999999999 61.558,35.76499999999999 C 61.518,35.78099999999999 61.476,35.82699999999999 61.489,35.903999999999996 C 61.538999999999994,36.211 61.14,36.352999999999994 61.038,36.251 C 60.937999999999995,36.147999999999996 60.620999999999995,36.562999999999995 60.620999999999995,36.562999999999995 C 60.620999999999995,36.715999999999994 60.52799999999999,36.928 60.83,36.98 C 61.134,37.029999999999994 61.683,36.776999999999994 61.732,37.083999999999996 C 61.75,37.187999999999995 61.766,37.276999999999994 61.789,37.358999999999995 L 59.822,39.32599999999999 C 59.546,39.342999999999996 59.267,39.30599999999999 59.267,39.30599999999999 C 59.116,39.76699999999999 58.406000000000006,39.26599999999999 58.607000000000006,38.95899999999999 C 58.809000000000005,38.65199999999999 58.81600000000001,38.43799999999999 58.81600000000001,38.43799999999999 L 58.57300000000001,38.40299999999999 L 58.26100000000001,38.95899999999999 C 57.55500000000001,38.95899999999999 57.34500000000001,39.36199999999999 57.49700000000001,39.618999999999986 C 57.64800000000001,39.87399999999999 57.321000000000005,39.573999999999984 57.21900000000001,39.93099999999998 C 57.11900000000001,40.28899999999998 57.26400000000001,40.29799999999998 57.56700000000001,40.451999999999984 C 57.870000000000005,40.60599999999999 57.400000000000006,40.612999999999985 57.601000000000006,40.868999999999986 C 57.733000000000004,41.03599999999999 58.029,40.98299999999998 58.126000000000005,41.021999999999984 L 57.755,41.39299999999999 C 57.408,41.508999999999986 57.011,41.423999999999985 57.011,41.423999999999985 C 57.0,41.52899999999998 56.937000000000005,41.60199999999998 56.853,41.65399999999998 C 56.041000000000004,40.98599999999998 55.153,40.44099999999998 54.202,40.03899999999998 C 54.358,39.92099999999998 54.626999999999995,39.93899999999998 54.754999999999995,39.58299999999998 C 54.958,39.019999999999975 55.032,38.089999999999975 55.032,38.089999999999975 C 55.032,38.089999999999975 54.824,38.07099999999998 54.616,38.089999999999975 C 54.407,38.10899999999997 54.224,38.17099999999998 54.199,38.29799999999997 C 54.149,38.553999999999974 53.643,38.714999999999975 53.643,38.714999999999975 C 53.643,38.714999999999975 53.213,38.85699999999998 53.366,39.061999999999976 C 53.517,39.266999999999975 53.088,39.373999999999974 53.088,39.373999999999974 C 53.088,39.373999999999974 53.109,39.51199999999997 53.091,39.64399999999998 C 52.287,39.40499999999998 51.455,39.25399999999998 50.601,39.20699999999998 L 50.601,31.02999999999998 C 52.951,31.104 55.225,31.603 57.34,32.489 L 57.34,32.489 M 62.67,39.792 C 62.318000000000005,40.46 61.549,39.723 61.59,39.251000000000005 L 62.913000000000004,37.926 C 62.993,37.935 63.075,37.952000000000005 63.156000000000006,37.952000000000005 C 63.458000000000006,37.952000000000005 64.128,37.848000000000006 64.128,37.848000000000006 C 64.128,37.848000000000006 64.405,37.888000000000005 64.645,37.953 C 64.88799999999999,38.247 65.124,38.544000000000004 65.347,38.849000000000004 L 64.719,38.75000000000001 L 64.33699999999999,38.71500000000001 L 63.572999999999986,38.64600000000001 C 62.817,39.159 62.67,39.792 62.67,39.792 M 53.79,58.833 C 53.494,58.961 53.19,59.074999999999996 52.88,59.173 L 52.88,58.056000000000004 L 53.366,57.50000000000001 C 53.892,57.323 53.818,58.438 53.79,58.833 M 61.315,66.716 C 61.344,66.696 61.376999999999995,66.67899999999999 61.406,66.65799999999999 L 62.601,67.25599999999999 C 62.753,67.46 63.4,67.43 63.4,67.43 L 63.608,67.673 C 63.608,67.673 64.015,67.608 64.268,67.916 C 64.519,68.223 65.83,67.985 65.83,67.985 L 66.17699999999999,68.297 L 66.73299999999999,68.505 L 67.67399999999999,68.526 L 68.24999999999999,69.103 C 67.34199999999998,69.526 65.49399999999999,69.38799999999999 65.37799999999999,69.26899999999999 C 65.22699999999999,69.11599999999999 64.16299999999998,68.64399999999999 64.16299999999998,68.64399999999999 C 64.16299999999998,68.64399999999999 63.377999999999986,67.98799999999999 63.22499999999998,68.193 C 63.071999999999974,68.39800000000001 62.35699999999998,67.935 62.35699999999998,68.089 C 62.35699999999998,68.242 61.69799999999998,67.741 61.69799999999998,67.741 L 60.69099999999998,67.359 L 61.454999999999984,67.22 L 61.315,66.716 M 65.9,40.139 C 66.051,40.908 66.299,41.216 65.796,41.216 C 65.29,41.216 65.171,40.799 65.171,40.799 C 65.171,40.799 64.789,40.664 64.789,40.868 C 64.789,41.073 64.637,41.462 64.789,41.666000000000004 C 64.93900000000001,41.871 64.559,42.202000000000005 64.407,42.048 C 64.258,41.895 63.854,41.403 63.955999999999996,41.25 C 64.056,41.096 63.25299999999999,40.153 64.06,40.0 C 64.86800000000001,39.847 64.035,39.373 64.33800000000001,39.271 L 64.72000000000001,39.063 L 65.13600000000001,39.063 L 65.36300000000001,38.870000000000005 C 65.561,39.142 65.75200000000001,39.419000000000004 65.93400000000001,39.702000000000005 C 65.886,39.829 65.867,39.975 65.9,40.139 M 51.109,65.624 L 52.255,65.381 C 52.355000000000004,64.869 52.88,65.485 52.88,65.485 C 53.385000000000005,65.43299999999999 53.470000000000006,65.762 53.470000000000006,65.762 L 54.13,65.866 C 54.684000000000005,66.02 54.34,66.081 54.373000000000005,66.283 C 54.423,66.589 54.685,66.491 54.685,66.491 L 54.789,65.832 L 55.101,65.866 L 54.789,65.519 L 54.234,65.27600000000001 L 53.643,64.998 C 53.24,64.436 53.726,64.56400000000001 54.129,64.616 L 54.788,64.616 C 54.788,64.616 55.553,65.61 55.553,65.866 C 55.553,66.122 55.9,66.18 55.9,66.18 L 56.351,66.146 L 56.491,66.493 L 56.942,66.493 L 57.116,66.80499999999999 L 58.018,66.80499999999999 L 58.052,66.354 L 57.219,66.17999999999999 L 57.15,65.69399999999999 L 56.559999999999995,65.52099999999999 C 56.358,64.65199999999999 56.69,64.38099999999999 56.94199999999999,64.79199999999999 L 57.25399999999999,64.86099999999999 L 57.14999999999999,64.097 L 57.49799999999999,63.992999999999995 L 57.39399999999999,62.916999999999994 L 57.11699999999999,62.812999999999995 L 57.11699999999999,62.465999999999994 L 58.36599999999999,62.49999999999999 C 58.26599999999999,61.833999999999996 58.43599999999999,61.52799999999999 58.43599999999999,61.52799999999999 L 58.782999999999994,61.52799999999999 L 58.81799999999999,61.80499999999999 L 60.37999999999999,61.94499999999999 L 60.44899999999999,61.94499999999999 C 61.05399999999999,62.30199999999999 60.75499999999999,62.74499999999999 60.55299999999999,62.846999999999994 C 60.35199999999999,62.94899999999999 59.99799999999999,62.95099999999999 59.99799999999999,62.95099999999999 L 59.89399999999999,63.15899999999999 L 58.57499999999999,63.26299999999999 L 58.47099999999999,63.78399999999999 C 57.81599999999999,63.67999999999999 57.55499999999999,64.398 57.70699999999999,64.75599999999999 C 57.85799999999999,65.11399999999999 57.70699999999999,65.41599999999998 57.70699999999999,65.41599999999998 L 58.262999999999984,65.69299999999998 L 58.99199999999998,65.48499999999999 C 59.094999999999985,64.97299999999998 59.52599999999998,64.85299999999998 59.929999999999986,64.54699999999998 C 60.33399999999999,64.23999999999998 60.999999999999986,65.10899999999998 60.79799999999999,65.51999999999998 C 60.774999999999984,65.56999999999998 60.75999999999999,65.60299999999998 60.740999999999985,65.64399999999998 C 59.96799999999998,66.17599999999997 59.15499999999999,66.65299999999998 58.30599999999998,67.06699999999998 C 56.96899999999998,67.71899999999998 55.53899999999998,68.19899999999998 54.05299999999998,68.52399999999997 C 54.03599999999998,68.51299999999998 54.02699999999998,68.50499999999997 54.02699999999998,68.50499999999997 L 53.47099999999998,68.33099999999996 L 53.43699999999998,67.56699999999996 C 53.33499999999999,67.05499999999996 52.378999999999984,67.06999999999996 52.429999999999986,67.42799999999997 C 52.478999999999985,67.77699999999997 50.701999999999984,67.57999999999997 50.606999999999985,67.56899999999997 L 50.606999999999985,66.16199999999998 L 51.109,65.624 M 50.605,77.988 C 50.937,77.743 51.884,77.729 52.324,78.054 C 52.878,78.462 53.643,78.227 53.643,78.227 L 54.18,78.89200000000001 C 53.008,79.06200000000001 51.817,79.168 50.605,79.19300000000001 L 50.605,77.988 M 73.085,49.389 C 73.148,49.301 73.19,49.237 73.19,49.237 L 73.43299999999999,48.543 L 74.30099999999999,48.265 L 74.40499999999999,47.605000000000004 L 73.954,47.57000000000001 C 73.954,47.57000000000001 74.46499999999999,46.632000000000005 74.71799999999999,46.632000000000005 C 74.97099999999999,46.632000000000005 76.61699999999999,46.63 76.767,46.528000000000006 C 76.919,46.42600000000001 77.21799999999999,45.605000000000004 77.21799999999999,45.452000000000005 C 77.21799999999999,45.29900000000001 77.624,45.261 77.77399999999999,45.209 C 77.92599999999999,45.159000000000006 78.29799999999999,44.754000000000005 78.39899999999999,44.54900000000001 C 78.49999999999999,44.343 78.14899999999999,43.059000000000005 77.948,43.26400000000001 C 77.746,43.46900000000001 77.288,43.57600000000001 77.288,43.57600000000001 L 77.115,44.132000000000005 L 76.872,44.34 C 76.872,44.34 76.922,44.502 76.872,44.861000000000004 C 76.822,45.219 76.386,45.417 76.386,45.417 L 76.178,45.660000000000004 C 76.178,45.660000000000004 74.969,45.725 74.824,45.660000000000004 C 74.371,45.455000000000005 74.66,44.845000000000006 74.963,44.896 C 75.265,44.948 74.92899999999999,44.028 74.92899999999999,44.028 L 75.31099999999999,43.993 C 75.31099999999999,43.993 75.368,43.056000000000004 75.51899999999999,43.056000000000004 C 75.67099999999999,43.056000000000004 75.478,42.758 75.276,42.604000000000006 C 75.075,42.45100000000001 74.818,41.928000000000004 74.61699999999999,41.979000000000006 C 74.41499999999999,42.03000000000001 73.60999999999999,41.979000000000006 73.60999999999999,41.979000000000006 L 73.43599999999998,42.291000000000004 L 72.87999999999998,42.395 C 72.87999999999998,42.395 72.94199999999998,42.800000000000004 72.84499999999998,42.916000000000004 C 72.54099999999998,43.274 71.36899999999999,44.021 71.87299999999999,42.743 L 72.047,42.431000000000004 L 72.047,41.979000000000006 L 71.14399999999999,41.94400000000001 C 71.14399999999999,41.94400000000001 70.693,41.76700000000001 70.693,41.56200000000001 C 70.693,41.35700000000001 70.624,41.110000000000014 70.624,41.110000000000014 L 69.582,39.930000000000014 L 68.29799999999999,39.79100000000001 L 68.19399999999999,39.51400000000001 L 67.46499999999999,39.41000000000001 C 67.341,39.34800000000001 67.22099999999999,39.305000000000014 67.10199999999999,39.27300000000001 C 66.75299999999999,38.71600000000001 66.37499999999999,38.174000000000014 65.96999999999998,37.64900000000001 C 65.95699999999998,37.61000000000001 65.94399999999999,37.56300000000001 65.93699999999998,37.53500000000001 C 65.89199999999998,37.35200000000001 65.32399999999998,36.55900000000001 65.02499999999998,36.54200000000001 C 64.91099999999997,36.41400000000001 64.80999999999997,36.27600000000001 64.69199999999998,36.15100000000001 L 70.96499999999997,29.879000000000012 C 71.17599999999997,30.072000000000013 71.14699999999998,30.14900000000001 71.42299999999997,30.34900000000001 C 71.51699999999997,30.417000000000012 71.60899999999998,30.45300000000001 71.69599999999997,30.46600000000001 C 71.86499999999997,30.653000000000013 72.03399999999996,30.84100000000001 72.19699999999997,31.031000000000013 L 72.08199999999998,31.182000000000013 C 72.08199999999998,31.761000000000013 72.35199999999998,31.596000000000014 72.62099999999998,31.543000000000013 C 72.70699999999998,31.647000000000013 72.79599999999998,31.751000000000012 72.87999999999998,31.856000000000012 C 72.90399999999998,32.19600000000001 72.91099999999999,32.67200000000001 73.43699999999998,32.60500000000001 C 73.44199999999998,32.60500000000001 73.44499999999998,32.60500000000001 73.44999999999999,32.60500000000001 C 74.10999999999999,33.49300000000001 74.71999999999998,34.41200000000001 75.27099999999999,35.36200000000001 L 75.27699999999999,35.38300000000001 L 75.28299999999999,35.38300000000001 C 75.36999999999999,35.53200000000001 75.45299999999999,35.68300000000001 75.53699999999999,35.83400000000001 C 75.43799999999999,35.93800000000001 75.38199999999999,36.04300000000001 75.38199999999999,36.04300000000001 L 74.54899999999999,36.14700000000001 L 74.54899999999999,36.98000000000001 L 74.166,37.119000000000014 L 74.201,37.640000000000015 L 74.75699999999999,37.57100000000001 C 74.75699999999999,37.57100000000001 74.77799999999999,38.20800000000001 74.931,37.95300000000001 C 75.082,37.69700000000001 76.318,37.99800000000001 76.215,38.61300000000001 C 76.174,38.86500000000001 77.47800000000001,39.53000000000001 77.32600000000001,40.349000000000004 C 77.42500000000001,40.364000000000004 77.501,40.396 77.56700000000001,40.432 C 77.81,41.135000000000005 78.03,41.845 78.21900000000001,42.567 L 78.12400000000001,42.745 C 78.12400000000001,42.745 78.19600000000001,42.787 78.293,42.873 C 78.462,43.547 78.614,44.224999999999994 78.73400000000001,44.912 C 78.685,45.437 78.55900000000001,45.922 78.296,46.077999999999996 C 77.691,46.43599999999999 78.331,46.217 78.331,46.217 L 78.227,47.363 C 78.379,47.875 78.631,47.619 78.783,47.363 C 78.863,47.227 78.949,47.15 79.042,47.071 C 79.118,47.839 79.175,48.611 79.191,49.391 L 73.085,49.391 L 73.085,49.389 M 79.996,44.653 C 79.84599999999999,44.5 80.17,43.785 80.17,43.785 C 80.17,43.785 80.372,43.361 80.17,42.952 C 79.96900000000001,42.542 80.191,42.080999999999996 80.34400000000001,41.876 L 79.962,41.668 L 79.545,41.633 L 79.24,41.68 C 79.149,41.361 79.038,41.049 78.937,40.733 L 78.955,40.695 L 79.198,40.764 L 79.198,40.452000000000005 L 78.8,40.328 C 78.738,40.14 78.675,39.951 78.61,39.764 L 78.538,38.647000000000006 L 78.191,38.404 L 78.295,37.987 L 77.879,37.848 L 78.087,37.153999999999996 L 77.74000000000001,36.459999999999994 L 77.22600000000001,36.459999999999994 C 76.98400000000001,35.97299999999999 76.73000000000002,35.49099999999999 76.46100000000001,35.01599999999999 C 76.50900000000001,34.98799999999999 76.56800000000001,34.95899999999999 76.662,34.93299999999999 C 76.94000000000001,34.855999999999995 77.048,34.82299999999999 77.07900000000001,34.82899999999999 L 77.04400000000001,34.30799999999999 L 76.59300000000002,33.995999999999995 L 76.41900000000001,33.370999999999995 C 76.41900000000001,33.370999999999995 75.88400000000001,33.480999999999995 75.93400000000001,33.788 C 75.94600000000001,33.861 75.90400000000001,33.916999999999994 75.83000000000001,33.962999999999994 C 75.47800000000001,33.397999999999996 75.11000000000001,32.84199999999999 74.72200000000001,32.297999999999995 C 74.733,32.273999999999994 74.742,32.248999999999995 74.754,32.224999999999994 C 74.956,31.866999999999994 74.864,31.632999999999996 74.51100000000001,31.530999999999995 C 74.15700000000001,31.427999999999994 74.159,31.454999999999995 74.06000000000002,31.044999999999995 C 73.96000000000002,30.635999999999996 73.53900000000002,30.523999999999994 73.53900000000002,30.523999999999994 L 73.40000000000002,29.898999999999994 L 73.02000000000002,30.138999999999992 C 72.82500000000003,29.91399999999999 72.62200000000003,29.694999999999993 72.41900000000003,29.47499999999999 L 72.60200000000003,28.891999999999992 C 72.39800000000004,28.84999999999999 72.30500000000004,28.72499999999999 72.25000000000003,28.59499999999999 L 73.82300000000002,27.02099999999999 C 74.52700000000002,27.43499999999999 75.04900000000002,28.40099999999999 74.96200000000002,28.57999999999999 C 74.86100000000002,28.78499999999999 75.55300000000001,28.71899999999999 75.55300000000001,28.71899999999999 C 75.65500000000002,27.79699999999999 76.51,28.09899999999999 76.56000000000002,28.40699999999999 C 76.61200000000002,28.713999999999988 76.76800000000001,29.37899999999999 76.76800000000001,29.37899999999999 L 77.01100000000001,29.86499999999999 L 77.39300000000001,30.211999999999993 L 77.94900000000001,30.141999999999992 L 78.08800000000001,30.453999999999994 L 78.748,30.557999999999993 C 78.748,30.557999999999993 79.28800000000001,31.167999999999992 79.33800000000001,31.321999999999992 C 79.38900000000001,31.47499999999999 80.14300000000001,31.444999999999993 80.34500000000001,31.49599999999999 C 80.54700000000001,31.54699999999999 80.85100000000001,31.691999999999993 80.90100000000001,31.946999999999992 C 80.95200000000001,32.20299999999999 81.28300000000002,32.60699999999999 81.28300000000002,32.60699999999999 C 81.28300000000002,32.60699999999999 81.85700000000001,32.78399999999999 81.90800000000002,32.98899999999999 C 81.95800000000001,33.19399999999999 82.22000000000001,33.64899999999999 82.22000000000001,33.64899999999999 L 82.74100000000001,34.06599999999999 L 82.77600000000001,34.51699999999999 L 83.33200000000001,34.551999999999985 L 83.471,35.176999999999985 L 84.409,35.10799999999998 L 84.89500000000001,34.76099999999998 C 85.04700000000001,34.67799999999998 85.18800000000002,34.58999999999998 85.31800000000001,34.49999999999998 C 85.50200000000001,34.918999999999976 85.686,35.33799999999998 85.85400000000001,35.76299999999998 L 85.85400000000001,35.76299999999998 C 87.555,40.05199999999998 88.48700000000001,44.64999999999998 88.55900000000001,49.391999999999975 L 80.39600000000002,49.391999999999975 C 80.36800000000001,47.96299999999997 80.21300000000001,46.558999999999976 79.99200000000002,45.17099999999998 C 80.043,44.941 80.079,44.736 79.996,44.653 M 95.249,31.721 C 97.48899999999999,37.269 98.702,43.236000000000004 98.777,49.388000000000005 L 89.761,49.388000000000005 C 89.687,44.480000000000004 88.72399999999999,39.720000000000006 86.95899999999999,35.284000000000006 L 86.95899999999999,35.284000000000006 C 86.70599999999999,34.648 86.43499999999999,34.02 86.14699999999999,33.398 C 86.222,33.120000000000005 86.36399999999999,32.816 86.696,32.918000000000006 C 87.2,33.07200000000001 86.87,31.807000000000006 86.87,31.807000000000006 C 86.87,31.807000000000006 86.161,31.300000000000004 86.211,31.043000000000006 C 86.261,30.788000000000007 85.501,30.276000000000007 85.551,30.071000000000005 C 85.601,29.866000000000003 84.911,29.443000000000005 84.961,29.238000000000007 C 85.011,29.03300000000001 84.579,28.474000000000007 84.579,28.474000000000007 L 83.85,27.745000000000008 L 83.746,27.294000000000008 L 83.121,27.224000000000007 L 81.90599999999999,25.76600000000001 L 81.975,25.349000000000007 L 81.628,25.279000000000007 L 81.628,24.724000000000007 L 81.28,24.51600000000001 L 80.724,24.48100000000001 L 79.613,23.23100000000001 L 79.509,22.675000000000008 L 78.953,22.675000000000008 L 79.038,21.802000000000007 L 84.913,15.926000000000005 C 89.422,20.543 92.9,25.902 95.249,31.721 M 50.6,1.218 C 56.74,1.292 62.697,2.503 68.235,4.7330000000000005 L 68.237,4.728000000000001 C 74.068,7.077000000000001 79.437,10.558 84.06299999999999,15.074000000000002 L 78.66099999999999,20.477 C 78.46799999999999,20.526 78.26499999999999,20.55 78.12199999999999,20.488 C 77.76799999999999,20.335 78.29499999999999,19.967 78.29499999999999,19.967 L 78.29499999999999,19.55 L 77.98299999999999,19.238 C 77.98299999999999,19.238 77.13,19.357 77.08099999999999,19.203 C 77.03099999999999,19.049 76.87299999999999,18.37 76.87299999999999,18.37 L 76.838,17.502000000000002 L 76.491,17.363000000000003 L 76.421,17.051000000000002 L 75.866,17.12 L 75.866,16.495 L 75.554,16.391000000000002 L 75.276,16.252000000000002 L 75.207,15.627000000000002 L 74.09599999999999,15.558000000000002 L 73.749,15.072000000000001 L 73.332,14.447000000000001 L 72.082,14.343000000000002 L 71.77,14.031000000000002 L 71.28399999999999,13.927000000000003 L 70.937,13.788000000000004 L 70.76,14.03 L 69.822,14.099 L 69.753,14.377 C 69.451,14.530000000000001 68.612,14.520000000000001 67.974,14.520000000000001 C 66.98100000000001,14.017000000000001 65.971,13.548000000000002 64.94,13.13 L 64.5,14.251000000000001 C 65.337,14.590000000000002 66.156,14.969000000000001 66.967,15.367 C 66.90899999999999,15.534 66.841,15.662 66.734,15.662 C 66.482,15.662 66.595,16.322 66.595,16.322 C 66.595,16.322 67.261,16.340999999999998 67.463,16.391 C 67.66399999999999,16.441 67.636,16.947 67.636,16.947 C 68.39399999999999,16.896 68.71,17.941 68.609,18.197 C 68.508,18.453 68.92099999999999,18.439999999999998 68.92099999999999,18.439999999999998 C 68.92099999999999,18.439999999999998 68.919,19.241999999999997 68.817,19.447 C 68.717,19.651999999999997 69.449,19.835 69.64999999999999,20.141 C 69.85199999999999,20.447999999999997 69.55799999999999,21.444 69.40799999999999,21.494999999999997 C 69.25599999999999,21.545999999999996 69.80399999999999,21.724999999999998 69.75499999999998,21.980999999999998 C 69.70399999999998,22.238 69.91299999999998,21.953999999999997 69.96299999999998,22.363 C 70.01399999999998,22.772 70.13699999999999,23.648 70.13699999999999,23.648 L 70.83099999999999,23.718 C 70.93399999999998,23.052 72.216,23.016 72.42899999999999,23.093 C 73.28599999999999,23.4 73.95599999999999,24.73 73.95599999999999,25.037 C 73.95599999999999,25.343999999999998 73.39999999999999,25.384 73.39999999999999,25.384 L 73.42399999999999,25.724 L 71.64299999999999,27.505 C 71.46299999999998,27.397 71.28199999999998,27.334999999999997 71.17799999999998,27.398 C 70.92599999999999,27.551 71.03899999999999,26.322 71.03899999999999,26.322 C 71.03899999999999,26.322 71.49599999999998,25.994999999999997 71.698,26.148 C 71.9,26.3 69.984,23.6 69.58,23.855 C 69.17699999999999,24.111 68.246,23.622 68.29599999999999,23.161 C 68.34599999999999,22.701 66.49,21.147000000000002 66.49,21.147000000000002 C 66.49,21.147000000000002 66.14699999999999,20.924000000000003 65.934,20.939000000000004 C 65.863,20.944000000000003 65.821,20.966000000000005 65.795,21.043000000000003 C 65.694,21.35 65.492,21.550000000000004 65.795,21.703000000000003 C 66.09700000000001,21.857000000000003 66.032,21.449 66.385,21.807000000000002 C 66.739,22.165000000000003 67.40100000000001,22.645000000000003 67.15,22.953000000000003 C 66.89800000000001,23.261000000000003 66.59400000000001,23.335000000000004 66.59400000000001,23.335000000000004 L 66.941,23.752000000000006 L 67.497,23.752000000000006 L 67.601,24.620000000000005 C 67.601,24.620000000000005 68.212,24.922000000000004 68.365,25.280000000000005 C 68.467,25.521000000000004 68.47399999999999,25.697000000000006 68.44,25.854000000000006 C 67.319,24.996000000000006 66.14399999999999,24.229000000000006 64.92699999999999,23.542000000000005 C 64.948,23.429000000000006 64.952,23.320000000000004 64.92699999999999,23.231000000000005 C 64.826,22.873000000000005 65.335,22.752000000000006 65.58699999999999,23.162000000000006 L 66.07199999999999,23.093000000000007 L 66.17599999999999,22.641000000000005 L 65.48199999999999,22.086000000000006 L 64.92599999999999,22.086000000000006 C 64.92599999999999,22.086000000000006 64.86399999999999,22.483000000000004 64.50899999999999,22.329000000000004 C 64.15499999999999,22.175000000000004 64.35999999999999,22.242000000000004 64.05799999999999,22.190000000000005 C 63.79099999999999,22.145000000000003 63.84799999999999,22.690000000000005 63.898999999999994,22.962000000000003 C 63.11899999999999,22.560000000000002 62.32699999999999,22.185000000000002 61.51499999999999,21.853 C 58.087999999999994,20.451 54.401999999999994,19.681 50.59899999999999,19.607000000000003 L 50.59899999999999,15.110000000000003 C 50.91799999999999,15.114000000000003 51.07199999999999,15.000000000000004 51.10699999999999,14.863000000000003 C 51.15699999999999,14.658000000000003 51.218999999999994,14.601000000000003 51.52299999999999,14.551000000000004 C 51.82499999999999,14.500000000000004 51.44299999999999,13.875000000000004 51.14099999999999,13.926000000000004 C 50.916999999999994,13.964000000000004 50.71199999999999,13.895000000000003 50.59899999999999,13.754000000000003 L 50.59899999999999,11.440000000000003 C 55.43899999999999,11.514000000000003 60.13199999999999,12.480000000000004 64.49799999999999,14.249000000000002 L 64.93799999999999,13.128000000000002 C 60.432999999999986,11.303000000000003 55.591999999999985,10.309000000000001 50.597999999999985,10.235000000000003 L 50.597999999999985,1.218 L 50.6,1.218 M 37.262,23.714 L 37.262,23.714 C 41.006,21.897 45.123,20.892 49.396,20.807 L 49.396,29.823 C 46.563,29.907 43.875,30.578 41.449,31.716 L 42.003,32.774 C 44.298,31.707 46.803,31.107 49.397,31.027 L 49.397,39.206 C 48.336999999999996,39.265 47.321,39.484 46.364,39.828 L 46.318999999999996,39.828 L 46.284,39.272000000000006 L 46.527,39.098000000000006 L 46.11,38.959 L 45.798,39.376000000000005 L 45.729,39.828 L 45.208,39.932 L 45.208,40.175000000000004 L 44.861,40.175000000000004 L 44.861,40.496 C 44.117,40.899 43.422999999999995,41.383 42.797999999999995,41.944 L 37.01199999999999,36.158 C 38.50699999999999,34.754000000000005 40.18999999999999,33.617000000000004 42.004999999999995,32.775 L 41.45099999999999,31.717 C 39.498999999999995,32.632999999999996 37.717999999999996,33.85 36.166,35.312 L 29.784999999999997,28.930999999999997 C 32.021,26.781 34.543,25.034 37.262,23.714 M 35.312,36.163 C 33.989999999999995,37.56699999999999 32.879,39.166 31.997999999999998,40.901999999999994 C 31.770999999999997,40.895999999999994 31.555999999999997,40.937999999999995 31.491999999999997,41.111 C 31.340999999999998,41.519999999999996 30.692999999999998,41.422999999999995 30.692999999999998,41.422999999999995 L 30.589,41.63099999999999 L 30.067999999999998,41.73499999999999 L 29.964,42.04699999999999 L 29.374,42.11699999999999 L 30.901999999999997,42.081999999999994 C 31.304999999999996,42.03099999999999 30.737,42.965999999999994 30.484999999999996,42.91499999999999 L 29.789999999999996,42.94999999999999 L 29.511999999999997,43.19299999999999 L 28.851999999999997,43.19299999999999 L 28.574999999999996,43.60999999999999 L 27.602999999999994,43.574999999999996 C 27.602999999999994,43.574999999999996 27.065999999999995,44.01199999999999 27.116999999999994,44.165 C 27.166999999999994,44.318 26.990999999999993,44.79 26.838999999999995,44.79 C 26.687999999999995,44.79 26.390999999999995,45.260999999999996 26.491999999999994,45.415 C 26.593999999999994,45.568 26.179999999999993,46.074999999999996 26.179999999999993,46.074999999999996 L 26.110999999999994,46.596 L 25.798999999999992,46.699999999999996 L 25.798999999999992,48.053999999999995 L 25.173999999999992,48.471 L 25.173999999999992,49.096 L 24.898999999999994,49.391999999999996 L 20.807999999999993,49.391999999999996 C 20.888999999999992,45.336 21.798999999999992,41.416999999999994 23.446999999999992,37.827 L 23.446999999999992,37.827 C 24.792999999999992,34.891 26.633999999999993,32.173 28.93099999999999,29.781 L 35.312,36.163 M 24.374,50.902 L 23.61,51.701 L 23.714,52.534 L 23.261999999999997,52.674 L 23.157999999999998,53.021 L 22.983999999999998,54.097 L 23.47,54.166000000000004 C 23.721,54.06400000000001 23.672,54.828 23.47,54.931000000000004 C 23.267,55.033 22.715,55.24700000000001 23.017999999999997,55.452000000000005 C 23.320999999999998,55.65800000000001 22.22,55.586000000000006 22.22,55.278000000000006 C 22.22,54.97200000000001 21.607,54.72500000000001 21.456,54.827000000000005 C 21.373,54.883 21.259,54.745000000000005 21.169999999999998,54.60600000000001 C 20.961,53.29100000000001 20.833,51.95400000000001 20.805,50.59900000000001 L 24.334,50.59900000000001 L 24.374,50.902 M 10.236,49.394 L 1.219,49.394 C 1.3070000000000002,42.031 3.028,34.935 6.19,28.503999999999998 L 6.19,28.503999999999998 C 8.440000000000001,23.926 11.417000000000002,19.682 15.079,15.929999999999998 L 21.467,22.317999999999998 C 18.494999999999997,25.38 16.012,28.915999999999997 14.142999999999999,32.801 L 14.142999999999999,32.801 C 11.719,37.838 10.325,43.459 10.236,49.394 M 11.439,49.394 C 11.524000000000001,43.756 12.818,38.316 15.188,33.366 L 15.188,33.366 C 16.969,29.645 19.357,26.2 22.307000000000002,23.158 L 28.090000000000003,28.94 C 25.759000000000004,31.365000000000002 23.831000000000003,34.176 22.402000000000005,37.263000000000005 L 22.402000000000005,37.263000000000005 C 20.686000000000003,40.967000000000006 19.689000000000004,45.07000000000001 19.605000000000004,49.394000000000005 L 11.439,49.394000000000005 L 11.439,49.394 M 20.944,75.346 L 21.145,75.346 C 21.396,74.47500000000001 22.607,75.38600000000001 22.707,75.694 C 22.746000000000002,75.812 22.89,75.96300000000001 23.057000000000002,76.092 L 22.309,76.839 C 21.837,76.353 21.386,75.852 20.944,75.346 M 28.931,70.212 C 28.52,69.783 28.126,69.34400000000001 27.743000000000002,68.89500000000001 C 27.818,68.57000000000001 28.019000000000002,68.22900000000001 28.019000000000002,68.22900000000001 C 28.674000000000003,67.81900000000002 27.845000000000002,67.15300000000002 27.845000000000002,67.15300000000002 C 27.947000000000003,66.53800000000003 27.498,65.83400000000002 27.498,65.83400000000002 C 26.591,65.22000000000001 26.838,64.02800000000002 26.838,64.02800000000002 L 26.838,63.22900000000002 C 26.082,62.51300000000002 27.150000000000002,62.39600000000002 27.150000000000002,62.39600000000002 C 27.503000000000004,61.78300000000002 26.907000000000004,61.32000000000002 26.907000000000004,61.32000000000002 L 26.838000000000005,60.660000000000025 L 26.040000000000006,60.556000000000026 L 25.936000000000007,58.160000000000025 L 24.131000000000007,55.556000000000026 C 23.777000000000008,55.45200000000003 24.027000000000008,54.82700000000003 24.027000000000008,54.82700000000003 C 24.48100000000001,54.571000000000026 23.92300000000001,53.959000000000024 23.92300000000001,53.959000000000024 L 23.88800000000001,52.84800000000003 L 24.93000000000001,52.74400000000003 L 25.17300000000001,52.32700000000003 L 25.69400000000001,52.32700000000003 L 25.62400000000001,50.97300000000003 C 25.71500000000001,50.73400000000003 25.85300000000001,50.633000000000024 25.992000000000008,50.599000000000025 L 26.238000000000007,50.599000000000025 C 26.382000000000005,50.629000000000026 26.492000000000008,50.69500000000002 26.492000000000008,50.69500000000002 L 27.186000000000007,50.73000000000002 L 27.25700000000001,50.59900000000002 L 29.66400000000001,50.59900000000002 L 29.85900000000001,51.91000000000002 L 29.23400000000001,52.466000000000015 C 28.67900000000001,52.774000000000015 28.663000000000007,53.49200000000002 29.26900000000001,53.64700000000001 C 29.672000000000008,53.69700000000001 29.527000000000008,54.661000000000016 28.922000000000008,53.99500000000001 C 28.258000000000006,53.99500000000001 28.82700000000001,54.46600000000001 29.026000000000007,54.62000000000001 C 29.934000000000008,55.08100000000001 29.720000000000006,54.20300000000001 29.720000000000006,54.20300000000001 L 30.178000000000004,53.83600000000001 C 30.372000000000003,54.84600000000001 30.638000000000005,55.83400000000001 30.981000000000005,56.79400000000001 L 30.981000000000005,56.79400000000001 C 31.907000000000004,59.390000000000015 33.365,61.78300000000001 35.304,63.83900000000001 L 28.931,70.212 M 36.157,62.985 C 34.372,61.086999999999996 33.022,58.882999999999996 32.153,56.496 L 32.153,56.496 C 31.766,55.431000000000004 31.485999999999997,54.325 31.296,53.197 C 31.718999999999998,53.356 32.186,54.048 32.186,54.166000000000004 C 32.186,54.32000000000001 34.2,54.201 34.2,54.201 C 34.755,54.559 34.964000000000006,55.486 34.964000000000006,55.486 C 35.52,54.768 36.690000000000005,55.422999999999995 35.83200000000001,55.833 C 36.638000000000005,56.345 36.63100000000001,56.806 36.63100000000001,56.806 C 37.287000000000006,56.602 37.291000000000004,57.138 37.291000000000004,57.291 C 37.291000000000004,57.445 37.499,56.526999999999994 37.499,56.526999999999994 C 36.742000000000004,55.964999999999996 38.489000000000004,55.745999999999995 37.985,56.769999999999996 L 37.707,57.221 L 38.193,57.638 L 38.263,58.818999999999996 C 39.373,58.715999999999994 39.061,57.32599999999999 39.061,57.32599999999999 L 39.547,57.221999999999994 C 39.547,56.760999999999996 39.928999999999995,57.013999999999996 39.928999999999995,57.013999999999996 C 39.68599999999999,55.81699999999999 40.150999999999996,55.30499999999999 40.467999999999996,55.098 C 40.870999999999995,55.848 41.36,56.556 41.94,57.202 L 36.157,62.985 M 37.014,63.844 L 42.797000000000004,58.06 C 44.55800000000001,59.64 46.75000000000001,60.574000000000005 49.098000000000006,60.767 L 49.095000000000006,60.798 C 49.095000000000006,60.798 48.903000000000006,61.242000000000004 49.13,61.319 C 49.35,61.392 49.300000000000004,61.444 49.401,61.553000000000004 L 49.401,61.575 L 49.269000000000005,61.839000000000006 C 49.08200000000001,61.58500000000001 48.982000000000006,62.002 49.095000000000006,62.11600000000001 C 49.21000000000001,62.23100000000001 48.81700000000001,62.17100000000001 48.81700000000001,62.32500000000001 C 48.81700000000001,62.47800000000001 48.70300000000001,62.56100000000001 48.81700000000001,62.63700000000001 C 48.931000000000004,62.71300000000001 48.79500000000001,62.76500000000001 48.644000000000005,62.879000000000005 C 48.492000000000004,62.99400000000001 49.269000000000005,63.019000000000005 49.269000000000005,63.019000000000005 C 49.269000000000005,63.019000000000005 49.115,62.70700000000001 49.304,62.70700000000001 C 49.345,62.70700000000001 49.368,62.70900000000001 49.401,62.70900000000001 L 49.401,63.20700000000001 C 49.334,63.190000000000005 49.272000000000006,63.181000000000004 49.2,63.15800000000001 L 49.2,63.540000000000006 L 48.783,63.575 L 49.13,63.991 L 49.401,64.014 L 49.401,64.913 C 49.361000000000004,65.54299999999999 47.718,65.113 47.568000000000005,64.963 L 47.53300000000001,65.865 L 47.22100000000001,65.934 L 47.29100000000001,66.559 L 47.22100000000001,67.42699999999999 L 47.77700000000001,67.323 L 47.77700000000001,67.67099999999999 L 49.13100000000001,67.74 L 49.40200000000001,67.44999999999999 L 49.40200000000001,68.43499999999999 L 48.47100000000001,68.53899999999999 L 48.08900000000001,68.74699999999999 L 47.91600000000001,68.43499999999999 L 47.53400000000001,68.43499999999999 L 47.27900000000001,68.77499999999999 C 46.08400000000001,68.60199999999999 44.91300000000001,68.33099999999999 43.78400000000001,67.94 C 41.288,67.078 38.986,65.696 37.014,63.844 M 50.605,80.397 C 52.016,80.37100000000001 53.407,80.236 54.776999999999994,80.02000000000001 L 54.892999999999994,80.27600000000001 L 55.760999999999996,80.519 L 56.351,80.658 L 56.56,81.56 L 57.011,81.595 L 57.150000000000006,82.151 C 57.706,82.56 57.011,83.435 57.011,83.435 L 57.011,84.581 L 57.393,84.754 L 57.358000000000004,85.171 L 58.018,85.831 L 58.782000000000004,85.9 L 60.019000000000005,87.226 C 57.00900000000001,88.039 53.858000000000004,88.509 50.605000000000004,88.56 L 50.605000000000004,80.397 L 50.605,80.397 M 70.726,82.475 L 70.726,82.01299999999999 C 71.634,81.34799999999998 71.687,80.16999999999999 70.83,80.06899999999999 C 70.17999999999999,79.99099999999999 70.468,79.30199999999999 71.073,79.201 L 71.42099999999999,79.02699999999999 L 71.42099999999999,78.576 L 72.60199999999999,77.5 L 72.60199999999999,76.7 L 70.067,74.58200000000001 C 69.547,74.39000000000001 69.526,73.74900000000001 69.717,73.12700000000001 C 70.175,72.736 70.633,72.343 71.071,71.92200000000001 L 73.292,74.14200000000001 C 73.191,74.52300000000001 72.837,74.73500000000001 72.637,74.58200000000001 C 72.715,74.66900000000001 72.915,74.894 72.985,75.033 C 73.085,75.237 73.403,75.237 73.506,75.033 C 73.573,74.895 73.568,74.648 73.587,74.436 L 74.62100000000001,75.46900000000001 C 74.48400000000001,75.73700000000001 74.352,76.00600000000001 74.40800000000002,76.179 L 74.86000000000001,76.387 L 74.92900000000002,77.255 C 75.26600000000002,77.598 76.02000000000001,77.58 76.62600000000002,77.475 L 76.83100000000002,77.67999999999999 C 74.971,79.483 72.917,81.076 70.726,82.475 M 77.676,76.817 L 77.468,76.609 C 77.437,76.05399999999999 77.39200000000001,75.31099999999999 77.39200000000001,75.31099999999999 L 77.11500000000001,75.03299999999999 L 77.08000000000001,73.74899999999998 C 77.25600000000001,73.16699999999999 76.394,72.34799999999998 76.10700000000001,72.29099999999998 C 76.06600000000002,72.28199999999998 76.05100000000002,72.29899999999998 76.03800000000001,72.32499999999999 C 75.93700000000001,72.52899999999998 75.27400000000002,72.39799999999998 75.27400000000002,72.603 C 75.27400000000002,72.806 74.86400000000002,73.80699999999999 75.06600000000002,74.16499999999999 C 75.07900000000002,74.189 75.07400000000001,74.202 75.08300000000001,74.223 L 71.91600000000001,71.05799999999999 C 74.39000000000001,68.487 76.35100000000001,65.55399999999999 77.76800000000001,62.38499999999999 L 77.76700000000001,62.38499999999999 C 79.40700000000001,58.712999999999994 80.31300000000002,54.724999999999994 80.39300000000001,50.593999999999994 L 88.55600000000001,50.593999999999994 C 88.46900000000001,56.19799999999999 87.17600000000002,61.51299999999999 84.93400000000001,66.29899999999999 L 84.93500000000002,66.29899999999999 C 83.105,70.203 80.644,73.757 77.676,76.817" fill="#010101"/>
	<path d="M 59.824,5.627 C 59.571999999999996,5.7299999999999995 59.059999999999995,5.697 59.059999999999995,5.697 L 58.157,5.697 C 58.132999999999996,5.518 57.921,5.469 57.705999999999996,5.489 C 57.49099999999999,5.5089999999999995 57.278999999999996,5.595 57.254999999999995,5.697 C 57.20399999999999,5.902 56.907,5.94 56.907,5.94 L 55.760999999999996,6.0440000000000005 C 55.657999999999994,6.351000000000001 55.047999999999995,6.561000000000001 54.99699999999999,6.356000000000001 C 54.885999999999996,5.906000000000001 54.23499999999999,6.915000000000001 54.892999999999994,7.120000000000001 C 55.547999999999995,7.326000000000001 56.211999999999996,7.120000000000001 56.211999999999996,7.120000000000001 L 56.351,6.808000000000001 L 58.885999999999996,6.877000000000001 C 59.089,6.672000000000001 59.163,6.356000000000001 59.163,6.356000000000001 C 59.163,6.356000000000001 59.778999999999996,6.149000000000001 60.031,6.252000000000001 C 60.285,6.354 60.077,5.525 59.824,5.627" fill="#010101"/>
	<path d="M 54.442,8.196 L 54.442,7.641 L 54.234,7.433 L 54.025,6.704 L 53.366,6.4959999999999996 L 52.706,6.773999999999999 L 52.012,7.224999999999999 L 51.248,7.328999999999999 L 50.866,7.78 L 52.463,7.954000000000001 L 52.775,8.440000000000001 L 53.921,8.544 L 54.685,9.342 C 55.342,9.547 55.505,9.214 55.101,8.856 L 54.442,8.196" fill="#010101"/>
	<path d="M 73.156,13.891 L 73.921,14.134 C 73.921,14.134 74.85900000000001,15.239 74.82300000000001,14.690000000000001 C 74.72200000000001,13.154000000000002 74.00000000000001,13.122000000000002 73.74700000000001,12.815000000000001 C 73.68400000000001,12.738000000000001 73.57100000000001,12.679000000000002 73.43500000000002,12.676000000000002 C 73.02600000000001,12.668000000000003 72.43800000000002,12.963000000000003 72.49700000000001,13.266000000000002 C 72.546,13.522 72.752,13.788 73.156,13.891" fill="#010101"/>
	<path d="M 59.476,14.307 L 59.129,14.030000000000001 C 59.129,14.030000000000001 58.573,13.975000000000001 58.573,13.822000000000001 C 58.573,13.703000000000001 58.303,14.178 58.087,14.308000000000002 C 58.330000000000005,14.435000000000002 58.608000000000004,14.586000000000002 58.608000000000004,14.586000000000002 C 59.01200000000001,14.586000000000002 59.268,14.918000000000003 59.268,15.072000000000003 C 59.268,15.225000000000003 59.824,15.176000000000002 59.824,15.176000000000002 L 59.893,14.794000000000002 L 59.476,14.307" fill="#010101"/>
	<path d="M 57.914,14.307 C 57.939,14.326 57.987,14.313 58.018,14.307 C 57.927,14.261000000000001 57.842,14.177 57.81,14.168000000000001 C 57.768,14.159 57.782,14.208 57.914,14.307" fill="#010101"/>
	<path d="M 45.449,16.356 C 45.5,16.509 46.024,16.544 46.074,16.391000000000002 C 46.123999999999995,16.237000000000002 46.318999999999996,15.939000000000002 45.866,15.939000000000002 C 45.412,15.939000000000002 45.497,15.677000000000001 45.345,15.522000000000002 C 45.269,15.446000000000002 44.995,15.409000000000002 44.72,15.418000000000003 C 44.443999999999996,15.427000000000003 44.18,15.466000000000003 44.199,15.557000000000002 C 44.248999999999995,15.812000000000003 44.65,16.147000000000002 44.65,16.147000000000002 C 44.65,16.147000000000002 45.399,16.202 45.449,16.356" fill="#010101"/>
	<path d="M 63.226,20.835 C 62.974,20.835 62.501,20.519000000000002 62.601,20.314 C 62.702999999999996,20.109 61.733,19.932 61.733,19.932 C 61.733,19.932 60.876,19.099999999999998 61.177,19.203 C 61.48,19.305 61.351,18.855999999999998 61.351,18.855999999999998 C 61.351,18.855999999999998 60.739,18.941 60.586999999999996,18.891 C 60.434999999999995,18.839 60.483,18.369999999999997 60.483,18.369999999999997 C 60.483,18.369999999999997 60.131,18.313 59.961999999999996,18.334999999999997 C 59.904999999999994,18.342 59.892999999999994,18.330999999999996 59.892999999999994,18.369999999999997 C 59.892999999999994,18.522999999999996 60.07099999999999,18.549999999999997 60.169999999999995,18.855999999999998 C 60.272999999999996,19.162999999999997 60.236,19.656 60.690999999999995,19.758 C 61.144,19.861 61.22899999999999,19.97 61.281,20.175 C 61.330999999999996,20.38 61.906,20.418 61.906,20.418 L 62.288,20.625999999999998 L 63.503,21.668 L 63.503,21.250999999999998 C 63.503,21.251 63.478,20.835 63.226,20.835" fill="#010101"/>
	<path d="M 41.074,29.029 C 41.376999999999995,29.029 40.830999999999996,28.682 40.830999999999996,28.682 C 40.830999999999996,28.682 40.358,28.705 40.275,28.543 L 40.309999999999995,29.029 L 41.074,29.029" fill="#010101"/>
	<path d="M 77.323,32.362 L 77.844,32.189 C 77.844,32.189 77.872,31.688 77.66999999999999,31.842 C 77.469,31.994999999999997 77.317,31.477999999999998 77.11499999999998,31.529999999999998 C 76.91299999999998,31.580999999999996 76.82999999999998,31.333999999999996 76.62899999999998,31.077999999999996 C 76.42599999999997,30.821999999999996 76.46499999999997,30.779999999999998 76.21199999999997,30.626999999999995 C 76.08599999999997,30.549999999999994 76.00399999999998,30.515999999999995 75.93499999999997,30.522999999999996 C 75.86599999999997,30.528999999999996 75.83099999999997,30.558999999999997 75.83099999999997,30.661999999999995 C 75.83099999999997,30.866999999999994 76.07199999999997,30.960999999999995 75.96999999999997,31.217999999999996 C 75.86999999999998,31.472999999999995 76.08099999999997,31.703999999999997 76.28199999999997,31.703999999999997 C 76.48399999999997,31.703999999999997 76.63599999999997,31.81 76.83799999999997,31.911999999999995 C 77.039,32.013 77.17,32.157 77.323,32.362" fill="#010101"/>
	<path d="M 78.747,35.591 C 78.747,35.744 79.059,35.036 79.059,35.036 C 78.806,34.831 78.607,34.342 78.607,34.342 C 78.607,34.342 78.33,33.644999999999996 78.33,33.543 C 78.33,33.44 77.996,33.316 77.844,33.265 C 77.693,33.214 77.428,32.779 77.428,32.779 L 76.837,32.814 C 76.988,33.019 77.288,33.165 77.288,33.369 C 77.288,33.574 77.193,33.734 77.497,33.786 C 77.799,33.837 77.987,33.738 78.087,33.994 C 78.188,34.25 78.206,34.657 78.156,34.862 C 78.105,35.067 78.182,35.383 78.43400000000001,35.383 C 78.68600000000002,35.383 78.747,35.438 78.747,35.591" fill="#010101"/>
	<path d="M 72.809,37.223 C 72.809,37.223 72.18299999999999,37.391 71.628,37.083999999999996 C 71.074,36.776999999999994 71.735,36.666999999999994 71.836,36.666999999999994 C 71.939,36.666999999999994 72.386,36.297999999999995 72.184,36.041999999999994 C 71.982,35.785999999999994 72.184,35.315999999999995 72.184,35.520999999999994 C 72.184,35.72599999999999 72.742,35.84799999999999 72.843,35.69499999999999 C 72.944,35.541999999999994 72.85300000000001,35.084999999999994 72.601,34.93099999999999 C 72.34899999999999,34.77699999999999 73.045,34.66599999999999 72.843,34.40999999999999 C 72.64200000000001,34.15299999999999 72.531,33.85399999999999 72.531,33.85399999999999 C 72.531,33.85399999999999 72.23400000000001,34.26699999999999 71.629,34.06199999999999 C 71.629,34.06199999999999 71.55000000000001,35.00199999999999 71.247,35.20799999999999 L 70.518,35.20799999999999 C 70.518,35.20799999999999 70.68,35.47099999999999 70.83,35.62499999999999 C 70.982,35.778999999999996 71.323,36.080999999999996 70.97,36.28499999999999 C 70.616,36.48899999999999 71.039,36.45799999999999 71.039,36.45799999999999 C 71.039,36.45799999999999 70.97200000000001,37.51499999999999 70.518,37.36099999999999 C 70.065,37.20899999999999 69.928,37.91999999999999 69.928,38.12499999999999 C 69.928,38.33 71.699,38.407999999999994 71.42099999999999,38.12499999999999 C 71.26899999999999,37.971999999999994 71.62899999999999,37.638999999999996 71.62899999999999,37.638999999999996 C 71.62899999999999,37.638999999999996 72.83599999999998,37.742999999999995 73.08699999999999,37.742999999999995 C 73.33899999999998,37.742999999999995 73.55199999999999,37.68599999999999 73.39899999999999,37.431 C 73.248,37.175 72.809,37.223 72.809,37.223" fill="#010101"/>
	<path d="M 80.413,40.104 C 80.161,40.053 80.274,39.306 80.274,39.306 C 80.274,39.306 80.503,38.333999999999996 80.1,38.333999999999996 C 79.69699999999999,38.333999999999996 80.00399999999999,37.827 79.753,37.674 C 79.5,37.519999999999996 79.645,36.802 79.544,36.598 C 79.443,36.393 79.45,36.161 79.197,36.007999999999996 C 79.166,35.989 79.143,35.967999999999996 79.128,35.973 C 79.015,36.009 79.226,36.577 79.093,36.667 C 78.94200000000001,36.77 78.828,36.965 78.676,37.118 C 78.525,37.272000000000006 78.988,37.485 78.988,37.639 C 78.988,37.792 79.092,38.542 79.092,38.542 C 79.092,38.542 79.459,38.719 79.509,38.924 C 79.56,39.129 79.495,39.532 79.648,39.583999999999996 C 79.798,39.635 80.097,39.830999999999996 79.99499999999999,40.035 C 79.89399999999999,40.241 79.89099999999999,40.66 79.89099999999999,40.66 L 80.09899999999999,41.111 L 80.51599999999999,41.354 C 80.517,41.354 80.666,40.156 80.413,40.104" fill="#010101"/>
	<path d="M 58.886,37.882 C 58.886,38.036 59.24,38.193999999999996 59.442,38.193999999999996 C 59.643,38.193999999999996 60.171,37.776999999999994 60.171,37.776999999999994 C 60.171,37.776999999999994 60.442,37.06699999999999 60.24,37.117 C 60.039,37.168 59.631,37.458999999999996 59.581,37.151999999999994 C 59.554,37.0 59.39,36.98 59.233,36.98 C 59.07599999999999,36.98 58.921,37.01499999999999 58.921,37.01499999999999 L 58.123,37.11899999999999 L 58.053,37.465999999999994 L 58.608999999999995,37.535 C 58.608,37.535 58.886,37.729 58.886,37.882" fill="#010101"/>
	<path d="M 68.191,38.612 C 67.93900000000001,38.663000000000004 67.99000000000001,38.842 68.191,39.098 L 68.816,39.028999999999996 C 68.816,39.028999999999996 69.265,38.8 69.164,38.647 C 69.112,38.57 68.94200000000001,38.543 68.747,38.543 C 68.55199999999999,38.543 68.317,38.586 68.191,38.612" fill="#010101"/>
	<path d="M 54.268,53.507 C 54.521,53.661 54.941,53.297999999999995 54.685,53.125 C 53.929,52.612 53.984,51.954 53.782000000000004,51.493 C 53.739000000000004,51.393 53.658,51.298 53.574000000000005,51.285000000000004 C 53.49,51.271 53.407000000000004,51.358000000000004 53.331,51.562000000000005 L 53.331,52.221000000000004 C 53.331,52.222 54.016,53.353 54.268,53.507" fill="#010101"/>
	<path d="M 27.672,55.694 C 27.722,56.256 28.123,55.346000000000004 28.123,55.346000000000004 L 28.123,51.874 L 27.185000000000002,51.77 L 27.254,52.118 L 27.497,52.118 C 27.9,52.835 27.566,54.583 27.566,54.583 C 27.566,54.583 26.939,54.611 26.837,54.306 C 26.737,53.998 26.496,54.985 26.698,55.138999999999996 C 26.902,55.291 27.623,55.131 27.672,55.694" fill="#010101"/>
	<path d="M 51.109,54.166 C 51.217,54.613 51.219,53.455 51.421,53.507 C 51.622,53.558 51.455,52.778 51.455,52.778 L 50.553,53.437999999999995 C 51.006,53.489 51.056,53.963 51.109,54.166" fill="#010101"/>
	<path d="M 77.392,54.688 C 77.316,54.458000000000006 77.106,54.358000000000004 76.871,54.376000000000005 C 76.481,54.404 76.038,54.71000000000001 76.17699999999999,54.897000000000006 C 76.47999999999999,55.306000000000004 76.982,55.08800000000001 77.184,55.14000000000001 C 77.385,55.189 77.594,55.302 77.392,54.688" fill="#010101"/>
	<path d="M 29.026,55.104 C 28.908,55.104 28.818,55.194 28.818,55.313 C 28.818,55.432 28.908,55.556000000000004 29.026,55.556000000000004 C 29.144,55.556000000000004 29.233999999999998,55.432 29.233999999999998,55.313 C 29.233999999999998,55.194 29.145,55.104 29.026,55.104" fill="#010101"/>
	<path d="M 47.116,57.083 L 46.665,57.117999999999995 L 46.734,57.846999999999994 L 47.012,58.089999999999996 L 47.567,58.263999999999996 C 47.567,58.263999999999996 48.351,58.044 48.4,57.431 L 47.219,57.396 L 47.116,57.083" fill="#010101"/>
	<path d="M 91.732,59.409 C 91.675,59.385999999999996 91.628,59.371 91.55799999999999,59.375 C 91.348,59.386 91.107,59.489 90.96799999999999,59.583 L 91.10699999999999,59.826 C 91.29699999999998,59.695 91.57099999999998,59.659 91.62799999999999,59.687 C 91.62399999999998,59.684 91.59599999999999,59.659 91.59299999999999,59.652 L 91.90499999999999,59.617000000000004 C 91.89,59.52 91.823,59.449 91.732,59.409" fill="#010101"/>
	<path d="M 28.853,60.104 C 28.853,59.984 28.763,59.896 28.645000000000003,59.896 C 28.527000000000005,59.896 28.437000000000005,59.983000000000004 28.437000000000005,60.104 C 28.437000000000005,60.223 28.527000000000005,60.313 28.645000000000003,60.313 C 28.763,60.313 28.853,60.223 28.853,60.104" fill="#010101"/>
	<path d="M 28.992,60.972 C 28.874000000000002,60.972 28.784000000000002,61.061 28.784000000000002,61.18 C 28.784000000000002,61.3 28.874000000000002,61.389 28.992,61.389 C 29.11,61.389 29.235,61.300000000000004 29.235,61.18 C 29.235,61.061 29.11,60.972 28.992,60.972" fill="#010101"/>
	<path d="M 47.845,62.465 C 48.071,62.426 48.213,62.330000000000005 48.400999999999996,62.291000000000004 C 48.590999999999994,62.252 48.672999999999995,61.937000000000005 48.748,61.632000000000005 C 48.824,61.324000000000005 48.678999999999995,61.18000000000001 48.678999999999995,61.18000000000001 C 48.678999999999995,61.18000000000001 48.49399999999999,61.48800000000001 48.193,61.18000000000001 C 48.155,61.141000000000005 48.089999999999996,61.11300000000001 48.053999999999995,61.111000000000004 C 47.79899999999999,61.099000000000004 47.59799999999999,61.882000000000005 47.498,62.084 C 47.498,62.083 47.618,62.504 47.845,62.465" fill="#010101"/>
	<path d="M 94.996,64.201 C 94.98899999999999,64.116 94.98599999999999,63.974 94.92699999999999,63.852999999999994 L 94.64899999999999,63.992 C 94.68299999999999,64.06 94.67699999999999,64.131 94.68399999999998,64.201 C 94.69199999999998,64.28999999999999 94.70299999999999,64.413 94.78799999999998,64.478 C 94.84299999999999,64.51899999999999 94.91499999999998,64.52799999999999 94.99699999999999,64.51299999999999 L 94.96199999999999,64.201 C 94.98599999999999,64.205 94.99,64.24799999999999 94.99699999999999,64.27 C 94.991,64.26 94.998,64.227 94.996,64.201" fill="#010101"/>
	<path d="M 94.335,64.514 C 94.41199999999999,64.825 94.505,65.125 94.509,65.13799999999999 L 94.821,65.03399999999999 C 94.819,65.032 94.685,64.73899999999999 94.613,64.443 L 94.335,64.514" fill="#010101"/>
	<path d="M 92.913,65.693 C 92.889,65.934 92.952,66.236 93.19,66.28399999999999 L 93.259,65.972 C 93.236,65.951 93.213,65.841 93.224,65.729 L 92.913,65.693" fill="#010101"/>
	<path d="M 92.773,66.249 C 92.682,66.256 92.535,66.354 92.426,66.423 C 92.123,66.615 92.23700000000001,67.379 92.426,67.187 C 92.614,66.997 92.83800000000001,67.207 92.877,66.631 C 92.896,66.343 92.865,66.243 92.773,66.249" fill="#010101"/>
	<path d="M 79.892,71.006 L 79.788,71.318 C 79.812,71.327 79.857,71.33 79.892,71.353 L 79.961,71.63 C 79.939,71.66499999999999 79.911,71.67699999999999 79.892,71.699 L 80.1,71.907 C 80.262,71.72699999999999 80.31599999999999,71.55499999999999 80.274,71.386 C 80.207,71.128 79.924,71.017 79.892,71.006" fill="#010101"/>
	<path d="M 58.574,4.03 L 58.643,3.995 L 59.199,3.613 L 59.06,3.37 L 58.574,3.683 L 58.261,3.475 L 58.087,3.718 L 58.504,3.995 L 58.574,4.03" fill="#010101" points="58.574,4.03 58.643,3.995 59.199,3.613 59.06,3.37 58.574,3.683 58.261,3.475 58.087,3.718     58.504,3.995  "/>
	<path d="M 60.969,4.933 L 60.692,4.655 L 60.483,4.863 L 60.831,5.245 L 60.934,5.35 L 61.039,5.245 L 61.559,4.829 L 61.351,4.585 L 60.969,4.933" fill="#010101" points="60.969,4.933 60.692,4.655 60.483,4.863 60.831,5.245 60.934,5.35 61.039,5.245 61.559,4.829     61.351,4.585  "/>
	<path d="M 57.914,13.439 L 57.636,13.3 L 57.428,13.752 L 57.706,13.891 L 57.914,13.439" fill="#010101" points="57.914,13.439 57.636,13.3 57.428,13.752 57.706,13.891  "/>
	<path d="M 56.942,14.203 L 56.873,14.203 L 56.351,14.134 L 56.351,14.446 L 56.768,14.481 L 57.081,15.002 L 57.324,14.828 L 56.976,14.272 L 56.942,14.203" fill="#010101" points="56.942,14.203 56.873,14.203 56.351,14.134 56.351,14.446 56.768,14.481 57.081,15.002     57.324,14.828 56.976,14.272  "/>
	<path d="M 57.498,15.939 L 57.498,16.391 L 58.052,16.425 L 57.914,16.043 L 57.498,15.939" fill="#010101" points="57.498,15.939 57.498,16.391 58.052,16.425 57.914,16.043  "/>
	<path d="M 32.325,19.203 L 32.568,18.995 L 32.255,18.682 L 32.047,18.925 L 32.325,19.203" fill="#010101" points="32.325,19.203 32.568,18.995 32.255,18.682 32.047,18.925  "/>
	<path d="M 41.734,28.508 L 41.421,28.23 L 41.213,28.473 L 41.526,28.751 L 41.734,28.508" fill="#010101" points="41.734,28.508 41.421,28.23 41.213,28.473 41.526,28.751  "/>
	<path d="M 73.503,28.578 L 73.538,29.063 L 73.85,29.029 L 73.816,28.543 L 73.503,28.578" fill="#010101" points="73.503,28.578 73.538,29.063 73.85,29.029 73.816,28.543  "/>
	<path d="M 72.67,33.265 L 72.635,32.952 L 72.115,33.021 L 72.149,33.334 L 72.67,33.265" fill="#010101" points="72.67,33.265 72.635,32.952 72.115,33.021 72.149,33.334  "/>
	<path d="M 74.51,35.695 L 74.233,35.556 L 74.093,35.869 L 74.336,36.008 L 74.51,35.695" fill="#010101" points="74.51,35.695 74.233,35.556 74.093,35.869 74.336,36.008  "/>
	<path d="M 66.385,37.015 L 66.42,37.327 L 66.907,37.258 L 66.872,36.945 L 66.385,37.015" fill="#010101" points="66.385,37.015 66.42,37.327 66.907,37.258 66.872,36.945  "/>
	<path d="M 56.56,37.57 L 57.67,37.535 L 57.67,37.223 L 56.56,37.258 L 56.56,37.57" fill="#010101" points="56.56,37.57 57.67,37.535 57.67,37.223 56.56,37.258  "/>
	<path d="M 50.727,37.674 L 51.074,37.744 L 51.143,37.431 L 50.796,37.362 L 50.727,37.674" fill="#010101" points="50.727,37.674 51.074,37.744 51.143,37.431 50.796,37.362  "/>
	<path d="M 47.706,37.674 L 47.359,37.64 L 47.29,37.952 L 47.671,37.987 L 47.706,37.674" fill="#010101" points="47.706,37.674 47.359,37.64 47.29,37.952 47.671,37.987  "/>
	<path d="M 55.484,37.709 L 55.587,37.987 L 55.761,37.917 L 55.657,37.64 L 55.484,37.709" fill="#010101" points="55.484,37.709 55.587,37.987 55.761,37.917 55.657,37.64  "/>
	<path d="M 67.878,37.778 L 67.705,38.125 L 67.983,38.265 L 68.157,37.882 L 67.878,37.778" fill="#010101" points="67.878,37.778 67.705,38.125 67.983,38.265 68.157,37.882  "/>
	<path d="M 47.428,38.091 L 47.012,37.987 L 46.942,38.299 L 47.324,38.403 L 47.428,38.091" fill="#010101" points="47.428,38.091 47.012,37.987 46.942,38.299 47.324,38.403  "/>
	<path d="M 46.907,38.716 L 46.873,38.403 L 46.56,38.473 L 46.63,38.785 L 46.907,38.716" fill="#010101" points="46.907,38.716 46.873,38.403 46.56,38.473 46.63,38.785  "/>
	<path d="M 52.567,38.438 L 52.567,38.785 L 52.879,38.785 L 52.844,38.403 L 52.567,38.438" fill="#010101" points="52.567,38.438 52.567,38.785 52.879,38.785 52.844,38.403  "/>
	<path d="M 80.864,43.785 L 80.899,43.403 L 80.621,43.368 L 80.551,43.75 L 80.864,43.785" fill="#010101" points="80.864,43.785 80.899,43.403 80.621,43.368 80.551,43.75  "/>
	<path d="M 80.691,44.861 L 80.413,44.723 L 80.274,45.035 L 80.551,45.174 L 80.691,44.861" fill="#010101" points="80.691,44.861 80.413,44.723 80.274,45.035 80.551,45.174  "/>
	<path d="M 46.178,47.778 L 45.623,47.708 L 45.519,47.952 L 45.275,47.952 L 45.206,48.368 L 45.519,48.368 L 45.553,48.681 L 45.345,48.889 L 45.275,49.132 L 44.859,49.236 L 43.956,50.104 L 43.887,50.521 L 43.644,50.902 L 43.331,51.667 L 42.29,51.701 L 42.081,52.639 L 42.22,53.402 L 43.123,53.75 L 43.227,53.229 L 43.54,53.09 L 43.609,52.569 L 43.783,52.222 L 44.095,51.875 L 44.199,51.458 L 44.686,51.146 L 45.31,51.042 L 45.553,50.729 L 45.658,50.104 L 45.692,49.653 L 45.9,49.34 L 46.525,49.097 L 46.525,48.125 L 46.213,48.125 L 46.178,47.778" fill="#010101" points="46.178,47.778 45.623,47.708 45.519,47.952 45.275,47.952 45.206,48.368 45.519,48.368     45.553,48.681 45.345,48.889 45.275,49.132 44.859,49.236 43.956,50.104 43.887,50.521 43.644,50.902 43.331,51.667 42.29,51.701     42.081,52.639 42.22,53.402 43.123,53.75 43.227,53.229 43.54,53.09 43.609,52.569 43.783,52.222 44.095,51.875 44.199,51.458     44.686,51.146 45.31,51.042 45.553,50.729 45.658,50.104 45.692,49.653 45.9,49.34 46.525,49.097 46.525,48.125 46.213,48.125  "/>
	<path d="M 77.218,48.333 L 77.774,48.438 L 77.809,48.125 L 77.253,48.021 L 77.218,48.333" fill="#010101" points="77.218,48.333 77.774,48.438 77.809,48.125 77.253,48.021  "/>
	<path d="M 76.003,48.472 L 75.83,48.542 L 75.482,48.75 L 75.135,48.542 L 74.997,48.819 L 75.378,49.062 L 75.448,49.132 L 75.552,49.062 L 75.83,48.889 L 75.865,48.993 L 76.177,48.889 L 76.073,48.646 L 76.003,48.472" fill="#010101" points="76.003,48.472 75.83,48.542 75.482,48.75 75.135,48.542 74.997,48.819 75.378,49.062     75.448,49.132 75.552,49.062 75.83,48.889 75.865,48.993 76.177,48.889 76.073,48.646  "/>
	<path d="M 28.297,57.604 L 28.401,57.118 L 28.054,56.979 L 28.124,56.215 L 28.401,56.146 L 28.471,55.799 L 27.707,56.319 L 27.186,56.007 L 27.186,57.222 L 28.02,58.298 L 28.297,57.604" fill="#010101" points="28.297,57.604 28.401,57.118 28.054,56.979 28.124,56.215 28.401,56.146 28.471,55.799     27.707,56.319 27.186,56.007 27.186,57.222 28.02,58.298  "/>
	<path d="M 28.505,58.923 L 28.158,58.958 L 28.124,59.375 L 28.505,59.444 L 28.505,58.923" fill="#010101" points="28.505,58.923 28.158,58.958 28.124,59.375 28.505,59.444  "/>
	<path d="M 27.638,61.944 L 28.054,61.874 L 28.054,61.527 L 27.638,61.597 L 27.638,61.944" fill="#010101" points="27.638,61.944 28.054,61.874 28.054,61.527 27.638,61.597  "/>
	<path d="M 60.206,65.242 L 60.067,64.999 L 59.65,65.242 L 59.824,65.485 L 60.206,65.242" fill="#010101" points="60.206,65.242 60.067,64.999 59.65,65.242 59.824,65.485  "/>
	<path d="M 54.094,67.465 L 54.442,66.909 L 54.129,66.805 L 53.782,67.048 L 53.921,67.222 L 54.094,67.465" fill="#010101" points="54.094,67.465 54.442,66.909 54.129,66.805 53.782,67.048 53.921,67.222  "/>
	<path d="M 80.274,70.381 L 80.76,70.416 L 80.794,69.999 L 80.308,69.93 L 80.274,70.381" fill="#010101" points="80.274,70.381 80.76,70.416 80.794,69.999 80.308,69.93  "/>
	<path d="M 42.602,80.866 L 42.29,81.109 L 42.151,81.248 L 42.29,81.353 L 42.637,81.631 L 42.811,81.353 L 42.637,81.214 L 42.776,81.109 L 42.602,80.866" fill="#010101" points="42.602,80.866 42.29,81.109 42.151,81.248 42.29,81.353 42.637,81.631 42.811,81.353     42.637,81.214 42.776,81.109  "/>
	<path d="M 46.491,85.276 L 46.734,85.033 L 46.873,84.895 L 46.699,84.79 L 46.178,84.547 L 46.04,84.79 L 46.352,84.964 L 46.248,85.067 L 46.491,85.276" fill="#010101" points="46.491,85.276 46.734,85.033 46.873,84.895 46.699,84.79 46.178,84.547 46.04,84.79 46.352,84.964     46.248,85.067  "/>
	<path d="M 20.659,87.116 L 21.041,87.741 L 21.11,88.192 L 21.596,88.366 L 21.805,88.644 L 22.152,88.471 L 21.909,87.776 L 21.249,87.221 L 20.659,87.116" fill="#010101" points="20.659,87.116 21.041,87.741 21.11,88.192 21.596,88.366 21.805,88.644 22.152,88.471     21.909,87.776 21.249,87.221  "/>
	<path d="M 72.948,33.334 L 73.25999999999999,33.334 L 73.25999999999999,33.577000000000005 L 72.948,33.577000000000005 L 72.948,33.334" fill="#010101" height="0.243" width="0.312" x="72.948" y="33.334"/>
	<path d="M 73.538,35.383 L 73.85,35.383 L 73.85,35.730000000000004 L 73.538,35.730000000000004 L 73.538,35.383" fill="#010101" height="0.347" width="0.312" x="73.538" y="35.383"/>
	<path d="M 55.668,37.254 L 56.131,37.254 L 56.131,37.574 L 55.668,37.574 L 55.668,37.254" fill="#010101" height="0.32" transform="matrix(-0.2234 -0.9747 0.9747 -0.2234 31.9195 100.2591)" width="0.463" x="55.668" y="37.254"/>
	<path d="M 48.192,37.327 L 48.574,37.327 L 48.574,37.638999999999996 L 48.192,37.638999999999996 L 48.192,37.327" fill="#010101" height="0.312" width="0.382" x="48.192" y="37.327"/>
	<path d="M 51.402,37.552 L 51.751,37.552 L 51.751,37.866 L 51.402,37.866 L 51.402,37.552" fill="#010101" height="0.314" transform="matrix(-0.9951 -0.0992 0.0992 -0.9951 99.158 80.3497)" width="0.349" x="51.402" y="37.552"/>
	<path d="M 52.116,37.952 L 52.532,37.952 L 52.532,38.23 L 52.116,38.23 L 52.116,37.952" fill="#010101" height="0.278" width="0.416" x="52.116" y="37.952"/>
	<path d="M 70.969,64.722 L 71.31599999999999,64.722 L 71.31599999999999,65.69399999999999 L 70.969,65.69399999999999 L 70.969,64.722" fill="#010101" height="0.972" width="0.347" x="70.969" y="64.722"/>
</svg>
