<?xml version="1.0" ?>
<svg xmlns="http://www.w3.org/2000/svg" xmlns:ev="http://www.w3.org/2001/xml-events" xmlns:xlink="http://www.w3.org/1999/xlink" baseProfile="full" enable-background="new 0 0 800 800" height="444px" version="1.1" viewBox="0 0 800 800" width="600px" x="0px" xml:space="preserve" y="0px">
	<defs/>
	<path d="M 399.795,416.037 L 572.488,416.037 L 572.6590000000001,416.03499999999997 C 583.6410000000001,386.919 597.4740000000002,359.20399999999995 613.8160000000001,333.22999999999996 L 613.9670000000001,334.008 C 617.6970000000001,335.006 621.623,335.019 625.676,335.019 C 650.517,335.019 670.662,314.602 670.662,289.771 C 670.662,264.933 650.514,244.65200000000002 625.691,244.65200000000002 C 600.832,244.65200000000002 580.705,264.74600000000004 580.705,289.571 C 580.705,304.295 587.8090000000001,317.346 598.7620000000001,325.54900000000004 C 505.15400000000005,384.89200000000005 450.10900000000004,347.88100000000003 417.831,286.32200000000006 C 433.93100000000004,279.48300000000006 445.30400000000003,263.57700000000006 445.30400000000003,244.98400000000007 C 445.30400000000003,220.14700000000008 425.21900000000005,200.05600000000007 400.35600000000005,200.05600000000007 L 400.0400000000001,200.05600000000007 C 375.18000000000006,200.05600000000007 355.19200000000006,220.15000000000006 355.19200000000006,244.98400000000007 C 355.19200000000006,263.5810000000001 366.56500000000005,279.51500000000004 382.66800000000006,286.36100000000005 C 350.38400000000007,347.91600000000005 295.3430000000001,384.90700000000004 201.73400000000007,325.5640000000001 C 212.68700000000007,317.3660000000001 219.79100000000005,304.3010000000001 219.79100000000005,289.57700000000006 C 219.79100000000005,264.75300000000004 199.66200000000006,244.65200000000004 174.80400000000006,244.65200000000004 C 149.98600000000005,244.65200000000004 129.83700000000005,264.93300000000005 129.83700000000005,289.7710000000001 C 129.83700000000005,314.6020000000001 149.98600000000005,335.01900000000006 174.82300000000004,335.01900000000006 C 178.87200000000004,335.01900000000006 182.80500000000004,335.0060000000001 186.53500000000003,334.0040000000001 L 186.68000000000004,333.2270000000001 C 203.02500000000003,359.2010000000001 216.85500000000005,386.9150000000001 227.84000000000003,416.03100000000006 L 228.00800000000004,416.0350000000001 L 400.50800000000004,416.0350000000001"/>
	<path d="M 400.508,456.666 L 399.79499999999996,456.666 L 241.044,456.666 C 251.76100000000002,495.752 257.48900000000003,536.912 257.48900000000003,579.4 C 257.48900000000003,586.283 257.33700000000005,593.132 257.04,599.943 L 399.795,599.943 L 400.50800000000004,599.943 L 543.456,599.943 C 543.1560000000001,593.132 543.005,586.283 543.005,579.4 C 543.005,536.91 548.73,495.75199999999995 559.453,456.666 L 400.508,456.666 M 302.14,553.672 L 276.421,527.9490000000001 L 302.14,502.2320000000001 L 327.859,527.9490000000001 L 302.14,553.672 M 400.34,570.721 L 400.15599999999995,570.721 L 358.13999999999993,528.557 L 400.15599999999995,486.46500000000003 L 400.34,486.389 L 442.352,528.557 L 400.34,570.721 M 498.356,553.672 L 472.641,527.9490000000001 L 498.356,502.2320000000001 L 524.076,527.9490000000001 L 498.356,553.672"/>
	<path d="M 559.456,456.666 L 559.453,456.666 L 559.659,456.666 L 559.456,456.666"/>
	<path d="M 240.837,456.666 L 241.044,456.666 L 241.044,456.666 L 240.837,456.666"/>
</svg>
