<?xml version="1.0" ?>
<svg xmlns="http://www.w3.org/2000/svg" xmlns:ev="http://www.w3.org/2001/xml-events" xmlns:xlink="http://www.w3.org/1999/xlink" baseProfile="full" enable-background="new 0 0 100 100" height="600px" version="1.1" viewBox="0 0 100 100" width="600px" x="0px" xml:space="preserve" y="0px">
	<defs/>
	<path d="M 50.0,0.0 C 22.43,0.0 0.0,22.43 0.0,50.0 C 0.0,77.57 22.43,100.0 50.0,100.0 C 77.57,100.0 100.0,77.57 100.0,50.0 C 100.0,22.430000000000007 77.57,0.0 50.0,0.0 M 92.42,46.296 L 53.704,46.296 L 53.704,7.578 C 74.238,9.356 90.642,25.762 92.42,46.296 M 46.296,7.578 L 46.296,46.29600000000001 L 7.579,46.29600000000001 C 9.357,25.762 25.761,9.356 46.296,7.578 M 7.579,53.704 L 46.296,53.704 L 46.296,92.422 C 25.761,90.644 9.357,74.238 7.579,53.704 M 53.704,92.422 L 53.704,53.704 L 92.42,53.704 C 90.642,74.238 74.238,90.644 53.704,92.422"/>
</svg>
