<?xml version="1.0" ?>
<svg xmlns="http://www.w3.org/2000/svg" xmlns:ev="http://www.w3.org/2001/xml-events" xmlns:sketch="http://www.bohemiancoding.com/sketch/ns" xmlns:xlink="http://www.w3.org/1999/xlink" baseProfile="full" height="438px" version="1.1" viewBox="0 0 100 73" width="600px" x="0px" y="0px">
	<defs/>
	<path d="M 13.546798,51.9138514 C 13.546798,52.3905701 13.9327595,52.777027 14.408867,52.777027 C 14.8849745,52.777027 15.270936,52.3905701 15.270936,51.9138514 L 15.270936,8.26182432 C 15.270936,7.78510556 14.8849745,7.39864865 14.408867,7.39864865 C 13.9327595,7.39864865 13.546798,7.78510556 13.546798,8.26182432 L 13.546798,51.9138514" fill="#000000"/>
	<path d="M 16.2561576,51.9138514 C 16.2561576,52.3905701 16.6421191,52.777027 17.1182266,52.777027 C 17.5943341,52.777027 17.9802956,52.3905701 17.9802956,51.9138514 L 17.9802956,8.26182432 C 17.9802956,7.78510556 17.5943341,7.39864865 17.1182266,7.39864865 C 16.6421191,7.39864865 16.2561576,7.78510556 16.2561576,8.26182432 L 16.2561576,51.9138514" fill="#000000"/>
	<path d="M 18.9655172,51.9138514 C 18.9655172,52.3905701 19.3514787,52.777027 19.8275862,52.777027 C 20.3036937,52.777027 20.6896552,52.3905701 20.6896552,51.9138514 L 20.6896552,8.26182432 C 20.6896552,7.78510556 20.3036937,7.39864865 19.8275862,7.39864865 C 19.3514787,7.39864865 18.9655172,7.78510556 18.9655172,8.26182432 L 18.9655172,51.9138514" fill="#000000"/>
	<path d="M 21.6748768,51.9138514 C 21.6748768,52.3905701 22.0608383,52.777027 22.5369458,52.777027 C 23.0130534,52.777027 23.3990148,52.3905701 23.3990148,51.9138514 L 23.3990148,8.26182432 C 23.3990148,7.78510556 23.0130534,7.39864865 22.5369458,7.39864865 C 22.0608383,7.39864865 21.6748768,7.78510556 21.6748768,8.26182432 L 21.6748768,51.9138514" fill="#000000"/>
	<path d="M 3.9408867,8.26182432 L 11.4993842,8.26182432 L 12.9310345,8.26182432 L 12.9310345,8.87837838 L 12.9310345,9.49493243 L 4.92610837,9.49493243 L 4.93962964,10.3582568 L 12.9310345,10.5242402 L 12.9310345,11.1588318 L 12.9310345,11.7653387 L 3.92736544,11.5910676 C 3.59263823,11.5837062 3.32512315,11.3098999 3.32512315,10.9746622 L 3.32512315,8.87837838 C 3.32512315,8.53786498 3.60080988,8.26182432 3.9408867,8.26182432" fill="#000000"/>
	<path d="M 24.0147783,8.26182432 L 99.2610837,8.26182432 C 99.6011606,8.26182432 99.8768473,8.53786498 99.8768473,8.87837838 L 99.8768473,13.0709459 C 99.8768473,13.416759 99.5928489,13.6949449 99.2475625,13.6873513 L 24.0147783,12.0073902 L 24.0147783,11.4296695 L 24.0147783,10.8264218 L 98.5356887,12.4545406 L 98.5221675,9.49493243 L 24.0147783,9.49493243 L 24.0147783,8.87837838 L 24.0147783,8.26182432" fill="#000000"/>
	<path d="M 3.3324758,4.41854348 L 3.369061,6.51450799 C 3.37500378,6.85496953 3.65546609,7.12615674 3.99549111,7.12022158 L 11.5528375,6.98830761 L 12.9842697,6.96332187 L 24.0663254,6.76988387 L 99.3011704,5.45665476 C 99.6411954,5.4507196 99.9120226,5.1699096 99.9060798,4.82944806 L 99.8329094,0.637519038 C 99.8268742,0.291758616 99.538064,0.0185715924 99.1929627,0.0321900617 L 24.0009562,3.02488846 L 12.9231249,3.46034111 L 3.9238686,3.79172139 C 3.58932085,3.80492339 3.32662509,4.08335678 3.3324758,4.41854348" fill="#000000"/>
	<path d="M 98.540846,4.23662742 L 24.0448047,5.53696066 L 4.95904203,5.87010388 L 4.95749415,5.00667506 L 12.9447851,4.70124768 L 24.021567,4.2056741 L 98.5027129,1.27723408 L 98.540846,4.23662742" fill="#000000"/>
	<path d="M 72.3642921,31.4442568 L 0.935720721,31.4442568 C 0.429419728,31.4442568 0.0321283992,31.8790696 0.0770519149,32.384021 C 1.33230959,46.4934289 8.4683528,59.2642628 19.563047,67.7665369 C 19.7134546,67.8817997 19.897587,67.9442568 20.086991,67.9442568 L 53.2130218,67.9442568 C 53.4024259,67.9442568 53.5865583,67.8817997 53.7369658,67.7665369 C 64.8316601,59.2642628 71.9677033,46.4934289 73.222961,32.384021 C 73.2678845,31.8790696 72.8705931,31.4442568 72.3642921,31.4442568" fill="#000000"/>
	<path d="M 52.6890779,66.3956253 L 53.2130218,66.2179054 L 20.086991,66.2179054 L 20.610935,66.3956253 C 9.89657283,58.1848137 3.36716734,46.7937318 2.15517242,33.1706081 L 3.38669942,33.1706081 L 69.6428571,33.1706081 L 71.4285714,33.1706081 C 70.2165765,46.7937318 63.40344,58.1848137 52.6890779,66.3956253" fill="#000000"/>
	<path d="M 52.9864533,72.8766892 C 54.7373429,72.8766892 56.4347291,71.244567 56.4347291,69.5472973 C 56.4347297,67.7719499 54.8435501,66.2179054 52.9864532,66.2179054 L 42.4568966,66.2179054 L 30.4495074,66.2179054 L 19.9199507,66.2179054 C 18.169061,66.2179054 16.4716749,67.8500276 16.4716749,69.5472973 C 16.4716743,71.3226447 18.0628539,72.8766892 19.9199507,72.8766892 L 30.4495074,72.8766892 L 42.4568966,72.8766892 L 52.9864533,72.8766892" fill="#000000"/>
	<path d="M 30.4495074,71.1503378 L 19.9199507,71.1503378 C 19.0055939,71.1503378 18.1958125,70.3594552 18.1958128,69.5472976 C 18.1958128,68.8194544 19.1060071,67.9442568 19.9199507,67.9442568 L 30.4495074,67.9442568 L 42.4568966,67.9442568 L 52.9864532,67.9442568 C 53.90081,67.9442568 54.7105914,68.7351394 54.7105911,69.547297 C 54.7105911,70.2751402 53.8003968,71.1503378 52.9864532,71.1503378 L 42.4568966,71.1503378 L 30.4495074,71.1503378" fill="#000000"/>
</svg>
