<?xml version="1.0" ?>
<svg xmlns="http://www.w3.org/2000/svg" xmlns:ev="http://www.w3.org/2001/xml-events" xmlns:xlink="http://www.w3.org/1999/xlink" baseProfile="full" enable-background="new 0 0 86.04 100" height="600px" version="1.1" viewBox="0 0 86.04 100" width="517px" x="0px" xml:space="preserve" y="0px">
	<defs/>
	<path d="M 0.0,63.673 L 2.714,54.493 L 15.384,54.493 C 15.298,52.724000000000004 15.255,50.916000000000004 15.255,49.061 C 15.255,47.468 15.298,45.872 15.384,44.278999999999996 L 0.0,44.278999999999996 L 2.714,35.098 L 16.418,35.098 C 17.884999999999998,27.213 20.621,20.383 24.628,14.607 C 31.352,4.868 40.638,0.0 52.49,0.0 C 62.573,0.0 70.406,3.166 75.988,9.5 C 81.569,15.837 84.661,23.034 85.264,31.093 L 74.727,31.093 C 73.563,24.973 71.193,20.125 67.616,16.549 C 64.04,12.971 59.042,11.183 52.619,11.183 C 44.733,11.183 38.376999999999995,14.481 33.551,21.073999999999998 C 30.878,24.694 28.96,29.369 27.797000000000004,35.099999999999994 L 63.868,35.099999999999994 L 61.152,44.28099999999999 L 26.503,44.28099999999999 C 26.374,46.477999999999994 26.309,48.80399999999999 26.309,51.26199999999999 C 26.309,52.38199999999999 26.331,53.45799999999999 26.374000000000002,54.49399999999999 L 63.867000000000004,54.49399999999999 L 61.151,63.67399999999999 L 27.343,63.67399999999999 C 28.379,69.31899999999999 30.21,74.21 32.839,78.347 C 37.192,85.244 43.699,88.69099999999999 52.36,88.69099999999999 C 60.333,88.69099999999999 66.41,85.04899999999999 70.589,77.76599999999999 C 72.786,73.92899999999999 74.425,68.886 75.502,62.63999999999999 L 86.04,62.63999999999999 C 85.093,72.637 81.96700000000001,81.02 76.66600000000001,87.785 C 70.331,95.931 61.798,100.0 51.068,100.0 C 41.802,100.0 34.025,96.663 27.730999999999998,89.981 C 21.784,83.69099999999999 17.970999999999997,74.91799999999999 16.288999999999998,63.672 L 0.0,63.672 L 0.0,63.673"/>
</svg>
