<?xml version="1.0" ?>
<svg xmlns="http://www.w3.org/2000/svg" xmlns:ev="http://www.w3.org/2001/xml-events" xmlns:xlink="http://www.w3.org/1999/xlink" baseProfile="full" enable-background="new 0 0 90.492 100" height="600px" version="1.1" viewBox="0 0 90.492 100" width="544px" x="0px" xml:space="preserve" y="0px">
	<defs/>
	<path d="M 19.154,22.218 C 19.847,24.977 18.727,27.72 16.528,28.374 C 14.337,29.026 11.852999999999998,27.195999999999998 11.110999999999999,24.247 C 10.219,21.252 12.588999999999999,10.519 12.588999999999999,10.519 C 12.588999999999999,10.519 18.347,19.561 19.154,22.218"/>
	<path d="M 28.904,32.956 C 27.993,35.494 25.543,36.978 23.355,36.09 C 21.161,35.21 20.118000000000002,32.242000000000004 21.116,29.637000000000004 C 22.051,26.943000000000005 29.649,20.399000000000004 29.649,20.399000000000004 C 29.649,20.399000000000004 29.694,30.378 28.904,32.956"/>
	<path d="M 34.305,45.991 C 33.664,48.595 31.405,50.339 29.127,49.708 C 26.855,49.08 25.496,46.242999999999995 26.218,43.552 C 26.868,40.775999999999996 33.762,33.503 33.762,33.503 C 33.762,33.503 34.811,43.37 34.305,45.991"/>
	<path d="M 9.319,39.868 C 11.753,41.574000000000005 14.558,41.047000000000004 15.639000000000001,38.881 C 16.712,36.712 15.73,33.726 13.415000000000001,32.019 C 11.092,30.421999999999997 1.0580000000000016,27.799 1.0580000000000016,27.799 C 1.0580000000000016,27.799 6.79,38.269 9.319,39.868"/>
	<path d="M 15.589,54.995 C 18.201,56.445 20.94,55.602 21.764,53.329 C 22.591,51.05 21.291,48.187 18.808,46.725 C 16.33,45.378 6.074999999999999,43.781 6.074999999999999,43.781 C 6.074999999999999,43.781 12.875,53.663 15.589,54.995"/>
	<path d="M 49.351,69.096 C 49.382,71.735 47.722,74.023 45.359,74.066 C 43.017,74.096 40.953,71.721 40.981,68.956 C 40.886,66.102 45.914,57.489000000000004 45.914,57.489000000000004 C 45.914,57.489000000000004 49.125,66.499 49.351,69.096"/>
	<path d="M 63.657,9.624 C 62.775999999999996,11.481 60.907999999999994,12.528 59.354,11.908000000000001 C 57.812,11.295000000000002 57.234,9.092000000000002 58.199,7.054000000000001 C 59.084,4.886 65.463,0.0 65.463,0.0 C 65.463,0.0 64.388,7.775 63.657,9.624"/>
	<path d="M 64.464,19.978 C 62.85,21.01 60.765,20.835 59.872,19.379 C 58.951,17.92 59.684,15.735000000000001 61.402,14.694000000000003 C 63.162,13.551000000000002 70.408,13.424000000000003 70.408,13.424000000000003 C 70.408,13.424000000000003 66.002,18.839 64.464,19.978"/>
	<path d="M 50.049,15.466 C 50.708,17.593 52.577,18.483999999999998 54.156,17.663999999999998 C 55.713,16.831 56.489,14.662999999999998 55.923,12.610999999999997 C 55.31,10.655999999999997 50.898,4.442999999999998 50.898,4.442999999999998 C 50.898,4.442999999999998 49.233,13.356 50.049,15.466"/>
	<path d="M 47.316,27.545 C 48.313,29.546000000000003 50.302,30.117 51.728,29.048000000000002 C 53.131,27.969 53.536,25.703000000000003 52.665,23.764000000000003 C 51.719,21.929000000000002 46.431,16.431000000000004 46.431,16.431000000000004 C 46.431,16.431000000000004 46.15,25.594 47.316,27.545"/>
	<path d="M 62.794,49.402 C 61.855999999999995,51.077 59.943999999999996,51.907000000000004 58.462999999999994,51.046 C 56.977,50.192 56.559,47.926 57.602999999999994,46.198 C 58.599,44.353 64.961,40.904 64.961,40.904 C 64.961,40.904 63.606,47.648 62.794,49.402"/>
	<path d="M 29.092,60.223 L 30.439,58.876 C 25.322,50.126 21.329,40.696 18.289,31.019 C 18.124000000000002,30.485999999999997 17.596,30.174 17.109,30.322999999999997 C 16.622000000000003,30.470999999999997 16.362000000000002,31.028999999999996 16.529000000000003,31.569999999999997 C 19.656,41.517 23.776,51.219 29.092,60.223"/>
	<path d="M 74.501,98.204 C 60.401,92.77499999999999 48.11200000000001,83.149 38.828,71.246 C 37.821000000000005,69.96499999999999 36.848000000000006,68.65899999999999 35.903000000000006,67.33399999999999 L 34.58200000000001,68.65499999999999 C 35.48700000000001,69.91799999999999 36.41900000000001,71.16299999999998 37.38000000000001,72.38599999999998 C 46.83200000000001,84.50699999999998 59.409000000000006,94.36999999999998 73.83300000000001,99.91999999999999 C 74.36100000000002,100.12899999999999 74.936,99.91099999999999 75.11300000000001,99.43499999999999 C 75.291,98.958 75.017,98.407 74.501,98.204"/>
	<path d="M 39.891,49.424 C 39.507,47.463 39.181999999999995,45.977 39.181999999999995,45.977 C 39.181999999999995,45.977 33.52499999999999,53.394999999999996 32.858,56.456999999999994 L 39.891,49.424"/>
	<path d="M 21.364,67.951 L 27.486,61.82899999999999 C 26.995,61.41799999999999 26.436,61.062999999999995 25.824,60.791999999999994 C 23.202,59.754 12.807000000000002,59.26599999999999 12.807000000000002,59.26599999999999 C 12.807000000000002,59.26599999999999 17.845,65.077 21.364,67.951"/>
	<path d="M 34.624,73.91 C 33.643,73.678 31.685000000000002,73.631 29.572000000000003,73.66499999999999 L 25.652,77.586 C 28.511000000000003,79.889 32.076,82.523 33.765,82.821 C 36.707,83.571 39.122,81.975 39.266,79.56099999999999 C 39.427,77.124 37.413,74.71 34.624,73.91"/>
	<path d="M 54.907,34.408 C 55.242,27.524 56.632999999999996,20.697000000000003 59.169,14.223000000000003 C 59.303999999999995,13.839000000000002 59.153999999999996,13.427000000000003 58.806999999999995,13.292000000000002 C 58.46399999999999,13.159000000000002 58.05199999999999,13.360000000000001 57.913,13.752000000000002 C 55.251,20.793000000000003 53.75,28.282000000000004 53.504,35.81 L 54.907,34.408"/>
	<path d="M 55.55,47.688 L 54.36,48.878 C 56.072,59.382 60.019999999999996,69.51 66.036,78.33 C 66.279,78.673 66.73,78.77 67.022,78.54299999999999 C 67.31400000000001,78.31599999999999 67.361,77.88199999999999 67.128,77.55399999999999 C 61.062,68.677 57.091,58.346 55.55,47.688"/>
	<path d="M 45.974,43.34 C 44.586999999999996,42.587 43.51199999999999,42.036 43.51199999999999,42.036 C 43.51199999999999,42.036 43.89099999999999,43.255 44.455999999999996,44.858000000000004 L 45.974,43.34"/>
	<path d="M 49.916,53.321 C 50.98,53.522 52.001999999999995,53.138999999999996 52.616,52.236 C 53.033,51.619 53.207,50.86 53.164,50.073 L 49.916,53.321"/>
	<path d="M 48.104,41.211 L 52.047,37.268 C 51.922,36.598 51.66,35.928 51.257,35.32 C 50.03,33.672 43.903999999999996,29.1 43.903999999999996,29.1 C 43.903999999999996,29.1 45.144,38.219 46.617999999999995,39.939 C 47.048,40.535 47.564,40.956 48.104,41.211"/>
	<path d="M 58.767,30.547 L 66.955,22.359 C 66.007,22.524 59.817,23.643 58.406,24.951 C 56.862,26.244 56.503,28.52 57.646,29.806 C 57.957,30.165 58.343,30.407 58.767,30.547"/>
	<path d="M 56.566,7.213 C 55.787,7.0120000000000005 54.999,6.834 54.205000000000005,6.674 C 54.953,7.806 55.752,9.065000000000001 56.36600000000001,10.158000000000001 C 56.174,9.217 56.246,8.199 56.566,7.213"/>
	<path d="M 60.479,13.545 C 60.464,13.545 60.449999999999996,13.546 60.435,13.547 C 60.437000000000005,13.555 60.438,13.563 60.440000000000005,13.57 C 60.453,13.562 60.466,13.554 60.479,13.545"/>
	<path d="M 12.961,29.204 C 11.439,28.294 10.21,26.646 9.696,24.637 C 9.633,24.422 9.528,24.047 9.475999999999999,23.324 C 8.372,24.748 7.35,26.239 6.418999999999999,27.791 C 8.506999999999998,28.423000000000002 10.822,29.185 12.495999999999999,29.906 C 12.648,29.67 12.804,29.436 12.961,29.204"/>
	<path d="M 71.617,14.263 L 71.54700000000001,14.349 C 71.23400000000001,14.733 69.26400000000001,17.145 67.51,19.046 C 68.391,19.662 69.248,20.317 70.08200000000001,21.009 L 15.224,75.867 C 9.435,68.89500000000001 6.284000000000001,60.206 6.284000000000001,51.031000000000006 C 6.284000000000001,49.644000000000005 6.3580000000000005,48.269000000000005 6.500000000000001,46.90800000000001 C 5.548000000000001,45.59900000000001 4.910000000000001,44.67400000000001 4.868000000000001,44.61200000000001 L 2.939000000000001,41.80800000000001 L 6.302000000000001,42.33200000000001 C 6.4540000000000015,42.35500000000001 6.775000000000001,42.406000000000006 7.2200000000000015,42.479000000000006 C 7.371000000000001,41.80200000000001 7.540000000000002,41.13100000000001 7.727000000000001,40.46600000000001 C 6.849000000000001,39.641000000000005 5.480000000000001,37.98000000000001 3.1880000000000015,34.31800000000001 C 1.132,39.489 0.0,45.127 0.0,51.031 C 0.0,76.02 20.257,96.276 45.246,96.276 C 50.072,96.276 54.721000000000004,95.517 59.083,94.118 C 56.96,92.776 54.881,91.33099999999999 52.852999999999994,89.78399999999999 C 52.66799999999999,89.64299999999999 52.48799999999999,89.49799999999999 52.30499999999999,89.35499999999999 C 49.998999999999995,89.77499999999999 47.63999999999999,89.99199999999999 45.245999999999995,89.99199999999999 C 36.071,89.99199999999999 27.380999999999997,86.841 20.408999999999995,81.05199999999999 L 75.267,26.193999999999996 C 81.056,33.166 84.208,41.855999999999995 84.208,51.03099999999999 C 84.208,61.43699999999999 80.155,71.22099999999999 72.79599999999999,78.58099999999999 C 68.607,82.76999999999998 63.629999999999995,85.88699999999999 58.20099999999999,87.79499999999999 C 60.29899999999999,89.27499999999999 62.45499999999999,90.64899999999999 64.66199999999999,91.90799999999999 C 79.934,84.64099999999999 90.49199999999999,69.06899999999999 90.49199999999999,51.030999999999985 C 90.492,35.883 83.046,22.475 71.617,14.263"/>
	<path d="M 45.246,12.069 C 46.306000000000004,12.069 47.357,12.113000000000001 48.402,12.196000000000002 C 48.452,11.331000000000001 48.549,10.276000000000002 48.713,8.979000000000001 C 48.855000000000004,7.856000000000001 49.016,6.7940000000000005 49.151,5.954000000000001 C 47.86300000000001,5.844 46.56100000000001,5.785000000000001 45.246,5.785000000000001 C 34.704,5.785000000000001 25.004,9.39 17.312,15.435000000000002 C 18.525000000000002,17.509 19.721,19.680000000000003 20.303,21.098000000000003 C 27.292,15.254 36.024,12.069 45.246,12.069"/>
	<path d="M 64.959,10.295 C 64.491,11.262 63.816,12.061 63.028000000000006,12.626 C 64.653,12.29 66.632,12.120999999999999 68.20100000000001,12.036999999999999 C 67.147,11.415 66.066,10.833 64.959,10.295"/>
</svg>
