<?xml version="1.0" ?>
<svg xmlns="http://www.w3.org/2000/svg" xmlns:cc="http://creativecommons.org/ns#" xmlns:dc="http://purl.org/dc/elements/1.1/" xmlns:ev="http://www.w3.org/2001/xml-events" xmlns:inkscape="http://www.inkscape.org/namespaces/inkscape" xmlns:rdf="http://www.w3.org/1999/02/22-rdf-syntax-ns#" xmlns:sodipodi="http://sodipodi.sourceforge.net/DTD/sodipodi-0.dtd" xmlns:svg="http://www.w3.org/2000/svg" xmlns:xlink="http://www.w3.org/1999/xlink" baseProfile="full" enable-background="new 0.006 0 99.988 100" height="600px" version="1.1" viewBox="0.006 0 99.988 100" width="600px" x="0px" xml:space="preserve" y="0px">
	<defs/>
	<path d="M 99.994,100.0 L 0.006,99.714 L 0.006,0.0 L 99.994,0.285 L 99.994,100.0 M 35.854,94.215 L 94.387,94.382 L 94.387,5.872 L 67.973,5.796 L 67.973,32.051 L 94.342,32.086 L 94.336,35.815999999999995 L 67.973,35.781 L 67.973,64.168 L 94.342,64.20400000000001 L 94.336,67.93400000000001 L 67.973,67.9 L 67.973,94.27900000000001 L 64.243,94.27900000000001 L 64.243,67.896 L 35.85499999999999,67.858 L 35.85499999999999,94.215 L 35.854,94.215 M 5.613,94.128 L 32.124,94.204 L 32.124,67.853 L 5.659,67.816 L 5.664,64.086 L 32.124,64.121 L 32.124,35.734 L 5.659,35.698 L 5.664,31.968 L 32.124,32.003 L 32.124,5.721 L 35.854,5.721 L 35.854,32.009 L 64.242,32.047 L 64.242,5.786 L 5.613,5.618 L 5.613,94.128 M 35.854,64.126 L 64.242,64.164 L 64.242,35.777 L 35.854,35.739000000000004 L 35.854,64.126"/>
	<path d="M 91.914,81.074 C 91.914,87.06 87.06,91.914 81.074,91.914 C 75.087,91.914 70.234,87.06 70.234,81.074 C 70.234,75.087 75.08699999999999,70.234 81.074,70.234 C 87.061,70.234 91.914,75.087 91.914,81.074"/>
	<path d="M 91.914,50.241 C 91.914,56.228 87.06,61.081 81.074,61.081 C 75.087,61.081 70.234,56.227000000000004 70.234,50.241 C 70.234,44.254999999999995 75.08699999999999,39.400999999999996 81.074,39.400999999999996 C 87.061,39.401 91.914,44.254 91.914,50.241"/>
	<path d="M 60.117,80.592 C 60.117,86.579 55.263,91.43299999999999 49.277,91.43299999999999 C 43.291000000000004,91.43299999999999 38.437,86.579 38.437,80.592 C 38.437,74.606 43.291,69.753 49.277,69.753 C 55.263000000000005,69.753 60.117,74.605 60.117,80.592"/>
	<path d="M 29.284,80.592 C 29.284,86.579 24.430999999999997,91.43299999999999 18.444,91.43299999999999 C 12.457999999999998,91.43299999999999 7.603999999999999,86.579 7.603999999999999,80.592 C 7.603999999999999,74.606 12.457999999999998,69.753 18.444,69.753 C 24.431,69.753 29.284,74.605 29.284,80.592"/>
	<path d="M 60.117,18.926 C 60.117,24.912999999999997 55.263,29.766 49.277,29.766 C 43.291000000000004,29.766 38.437,24.912999999999997 38.437,18.926 C 38.437,12.939 43.291,8.085999999999999 49.277,8.085999999999999 C 55.263000000000005,8.085999999999999 60.117,12.939 60.117,18.926"/>
</svg>
