<?xml version="1.0" ?>
<svg xmlns="http://www.w3.org/2000/svg" xmlns:ev="http://www.w3.org/2001/xml-events" xmlns:xlink="http://www.w3.org/1999/xlink" baseProfile="full" enable-background="new 0 0 100 84.841" height="510px" version="1.1" viewBox="0 0 100 84.841" width="600px" x="0px" xml:space="preserve" y="0px">
	<defs/>
	<path d="M 69.728,84.841 L 10.156,84.841 C 4.557,84.841 0.0,80.052 0.0,74.161 L 0.0,17.753 C 0.0,11.865 4.557,7.075 10.156,7.075 L 66.702,7.075 L 41.22,17.877 L 10.158,17.877 L 10.384,74.15899999999999 L 69.72800000000001,74.03399999999999 L 69.501,66.42999999999999 L 79.89,58.38799999999999 L 79.89,74.16 C 79.89,80.052 75.333,84.841 69.728,84.841" fill="#010101"/>
	<path d="M 69.345,57.824 L 69.271,40.775 C 45.013000000000005,40.618 26.887,54.876999999999995 26.887,54.876999999999995 C 26.887,54.876999999999995 29.759,23.336999999999996 69.345,15.560999999999993 L 69.345,0.0 L 100.0,28.934 L 85.094,42.959 L 69.345,57.824" fill="#010101"/>
</svg>
