<?xml version="1.0" ?>
<svg xmlns="http://www.w3.org/2000/svg" xmlns:ev="http://www.w3.org/2001/xml-events" xmlns:xlink="http://www.w3.org/1999/xlink" baseProfile="full" enable-background="new 0 0 100 100" height="600px" version="1.1" viewBox="0 0 100 100" width="342px" x="0px" xml:space="preserve" y="0px">
	<defs/>
	<path d="M 43.12,28.698 C 43.501,28.698 43.806,28.386 43.806,28.003 C 43.806,27.628 43.501,27.315 43.12,27.315 C 42.739,27.315 42.431999999999995,27.627000000000002 42.431999999999995,28.003 C 42.433,28.385 42.739,28.698 43.12,28.698 M 54.193,30.141 L 32.047,30.141 L 32.047,65.42599999999999 L 54.193,65.42599999999999 L 54.193,30.141 M 57.339,27.311 L 57.339,73.112 C 57.339,74.255 56.547,75.17399999999999 55.577999999999996,75.17399999999999 L 30.659,75.17399999999999 C 29.691,75.17399999999999 28.903,74.25399999999999 28.903,73.112 L 28.903,27.311 C 28.903,26.174 29.691,25.249 30.659,25.249 L 55.578,25.249 C 56.547,25.249 57.339,26.174 57.339,27.311 M 45.63,70.01 C 45.63,68.623 44.505,67.5 43.120000000000005,67.5 C 41.733000000000004,67.5 40.61000000000001,68.623 40.61000000000001,70.01 C 40.61000000000001,71.38900000000001 41.733000000000004,72.51400000000001 43.120000000000005,72.51400000000001 C 44.505,72.514 45.63,71.389 45.63,70.01"/>
	<path d="M 44.181,69.299 L 44.181,70.885 C 44.181,70.998 44.101,71.08200000000001 43.997,71.08200000000001 L 42.444,71.08200000000001 C 42.34,71.08200000000001 42.260000000000005,70.998 42.260000000000005,70.885 L 42.260000000000005,69.299 C 42.260000000000005,69.186 42.34,69.09800000000001 42.444,69.09800000000001 L 43.997,69.09800000000001 C 44.101,69.098 44.181,69.186 44.181,69.299"/>
</svg>
