<?xml version="1.0" ?>
<svg xmlns="http://www.w3.org/2000/svg" xmlns:ev="http://www.w3.org/2001/xml-events" xmlns:xlink="http://www.w3.org/1999/xlink" baseProfile="full" enable-background="new 0 0 100 100" height="600px" version="1.1" viewBox="0 0 100 100" width="600px" x="0px" xml:space="preserve" y="0px">
	<defs/>
	<path d="M 41.552,41.977 L 41.552,26.164 L 57.806,26.164 L 57.806,41.976 L 73.618,41.976 L 73.618,58.21 L 57.806,58.21 L 57.806,74.022 L 41.552,74.022 L 41.552,58.211 L 25.759,58.211 L 25.759,41.977 L 41.552,41.977 M 57.164,47.636 C 56.141,45.95 54.074,45.389 52.328,45.790000000000006 C 51.003,46.13100000000001 50.241,46.793000000000006 49.699000000000005,48.157000000000004 L 49.659000000000006,47.976000000000006 C 47.833000000000006,45.00600000000001 44.44200000000001,45.92900000000001 43.37800000000001,46.712 C 42.556000000000004,47.274 41.913000000000004,48.196000000000005 41.71200000000001,49.461000000000006 C 41.41100000000001,51.367000000000004 42.25400000000001,52.571000000000005 43.37800000000001,53.55500000000001 C 44.30100000000001,54.358000000000004 45.44500000000001,55.02000000000001 46.28800000000001,55.80200000000001 C 46.97000000000001,56.42400000000001 47.79300000000001,57.20700000000001 48.45500000000001,57.949000000000005 C 49.11700000000001,58.712 49.619000000000014,59.43300000000001 49.65900000000001,59.935 C 49.73900000000001,58.952000000000005 51.72600000000001,56.865 53.15100000000001,55.561 C 53.85300000000001,54.918 54.75600000000001,54.357 55.57900000000001,53.714 C 56.20100000000001,53.233 56.763000000000005,52.731 57.16400000000001,52.109 C 57.665000000000006,51.346000000000004 57.92700000000001,50.423 57.726000000000006,49.219 C 57.625,48.619 57.425,48.077 57.164,47.636"/>
</svg>
