<?xml version="1.0" ?>
<svg xmlns="http://www.w3.org/2000/svg" xmlns:ev="http://www.w3.org/2001/xml-events" xmlns:xlink="http://www.w3.org/1999/xlink" baseProfile="full" enable-background="new 0 0 100 100" height="600px" version="1.1" viewBox="0 0 100 100" width="504px" x="0px" xml:space="preserve" y="0px">
	<defs/>
	<path d="M 36.603,78.678 C 36.236000000000004,79.321 35.193000000000005,79.423 34.273,78.89399999999999 L 28.512000000000004,75.60999999999999 C 27.596000000000004,75.08499999999998 27.149000000000004,74.13899999999998 27.517000000000003,73.49699999999999 L 52.016000000000005,34.59299999999998 C 55.540000000000006,28.886999999999983 43.224000000000004,29.389999999999983 40.20100000000001,31.069999999999983 C 42.48700000000001,26.962999999999983 49.77400000000001,25.607999999999983 54.50000000000001,25.264999999999983 L 55.87500000000001,25.354999999999983 C 58.547000000000004,26.68799999999998 62.376000000000005,28.68799999999998 64.90100000000001,30.363999999999983 C 66.75500000000001,33.28199999999998 68.71100000000001,34.81899999999998 71.48,34.810999999999986 C 75.095,37.58499999999999 69.45,45.15199999999999 65.89800000000001,41.64799999999998 C 65.918,39.91599999999998 60.90400000000001,35.43699999999998 57.390000000000015,39.12699999999998 L 36.603,78.678"/>
</svg>
