<?xml version="1.0" ?>
<svg xmlns="http://www.w3.org/2000/svg" xmlns:ev="http://www.w3.org/2001/xml-events" xmlns:xlink="http://www.w3.org/1999/xlink" baseProfile="full" enable-background="new 0 0 100 100" height="600px" version="1.1" viewBox="0 0 100 100" width="364px" x="0px" xml:space="preserve" y="0px">
	<defs/>
	<path d="M 63.851,19.94 C 66.417,22.315 62.054,31.053 58.684,39.646 C 56.939,39.226 55.242999999999995,38.744 52.751,38.506 L 52.771,38.439 C 53.19,37.149 53.494,35.454 54.121,33.762 C 59.839,18.302 62.765,18.936 63.851,19.94"/>
	<path d="M 55.957,50.891 C 55.957,48.583 53.109,47.699999999999996 49.887,46.894999999999996 C 47.548,46.306 44.897,45.644 44.364000000000004,44.452 C 44.184000000000005,44.038 44.261,43.531 44.605000000000004,42.896 C 44.68300000000001,42.761 44.773,42.625 44.877,42.513 C 45.753,41.562 47.774,41.114 50.71,41.217999999999996 C 51.146,41.238 51.593,41.26199999999999 52.039,41.300999999999995 C 54.789,41.522999999999996 57.478,42.099 59.241,42.547 C 60.356,42.818 61.4,43.116 62.352,43.428 C 64.62599999999999,44.653 66.878,44.699 66.43299999999999,52.711 C 66.28299999999999,55.504999999999995 63.123999999999995,60.882999999999996 60.77799999999999,64.097 C 58.15899999999999,67.68199999999999 56.21199999999999,71.437 56.23899999999999,75.16499999999999 C 51.136999999999986,75.52 43.01799999999999,75.797 36.43899999999999,74.90299999999999 C 33.211999999999996,72.946 42.27199999999999,62.376999999999995 48.312999999999995,57.84599999999999 C 55.56,52.41 55.957,50.891 55.957,50.891"/>
	<path d="M 49.979,38.344 C 47.302,38.302 45.333,38.725 44.086999999999996,39.579 C 43.778,38.289 42.119,30.209000000000003 41.903,28.502000000000002 C 41.186,22.808000000000003 42.552,19.176000000000002 44.921,19.795 C 47.0,21.128 48.711,27.914 49.979,38.344"/>
	<path d="M 42.067,56.682 C 41.974,56.566 41.911,56.438 41.835,56.325 C 41.298,55.547000000000004 40.591,54.403000000000006 39.93,53.154 C 39.456,52.264 39.011,51.345000000000006 38.669,50.471000000000004 C 38.331999999999994,49.582 38.117999999999995,48.767 38.117999999999995,48.135000000000005 C 38.087999999999994,47.24700000000001 39.023999999999994,45.812000000000005 40.392999999999994,45.184000000000005 C 41.142999999999994,44.851000000000006 41.834999999999994,44.82300000000001 42.556999999999995,45.123000000000005 C 44.233,46.014 44.968999999999994,48.206 45.306999999999995,50.315000000000005 C 45.522,51.34400000000001 45.599,52.392 45.690999999999995,53.224000000000004 C 45.706999999999994,53.527 45.754,53.839000000000006 45.766999999999996,54.112 C 45.812999999999995,54.431000000000004 45.876,54.714 45.922,54.99 C 46.244,56.594 46.323,57.428000000000004 44.706999999999994,58.243 C 44.138999999999996,58.444 43.8,58.359 43.57099999999999,58.243 C 42.942,57.971 42.449,57.256 42.067,56.682"/>
	<path d="M 35.998,60.561 C 35.595,60.016 35.05,59.238 34.541,58.364 C 33.512,56.678999999999995 32.504999999999995,54.666 32.446,53.367 C 32.367999999999995,52.538999999999994 33.105,51.095 34.260999999999996,50.33 C 34.885,49.916 35.489,49.82 36.108999999999995,50.012 C 37.739,50.692 38.44,53.041 38.831999999999994,55.155 C 38.971,55.881 39.07699999999999,56.585 39.14399999999999,57.182 C 39.18699999999999,57.465 39.218999999999994,57.735 39.26299999999999,58.007000000000005 C 39.30699999999999,58.276 39.38099999999999,58.541000000000004 39.45099999999999,58.79600000000001 C 39.76899999999999,60.24300000000001 39.882999999999996,61.01500000000001 38.53699999999999,61.98800000000001 C 38.06499999999999,62.236000000000004 37.76099999999999,62.20000000000001 37.553999999999995,62.13000000000001 C 37.00599999999999,61.95600000000001 36.553999999999995,61.33700000000001 36.199999999999996,60.85600000000001 C 36.116,60.738 36.049,60.635 35.998,60.561"/>
	<path d="M 56.905,75.56 L 56.678,75.786 L 56.666,75.572 L 56.905,75.56" points="56.905,75.56 56.678,75.786 56.666,75.572  "/>
</svg>
