<?xml version="1.0" ?>
<svg xmlns="http://www.w3.org/2000/svg" xmlns:ev="http://www.w3.org/2001/xml-events" xmlns:xlink="http://www.w3.org/1999/xlink" baseProfile="full" enable-background="new 0 0 100 100" height="489px" version="1.1" viewBox="0 0 100 100" width="600px" x="0px" xml:space="preserve" y="0px">
	<defs/>
	<path d="M 57.871,29.946 L 57.871,24.906000000000002 L 64.123,24.906000000000002 L 64.123,34.293000000000006 L 77.319,43.39300000000001 L 71.144,44.065000000000005 L 71.144,67.86 L 66.316,67.86 L 36.346000000000004,67.86 L 31.52,67.86 L 31.52,43.393 L 24.497999999999998,43.393 L 50.581999999999994,24.907 L 57.871,29.946 M 56.757,58.301 L 56.757,52.798 L 51.948,52.798 L 51.948,58.301 L 56.757,58.301 M 56.757,51.972 L 56.757,46.47 L 51.948,46.47 L 51.948,51.972 L 56.757,51.972 M 50.581,58.301 L 50.581,52.798 L 45.771,52.798 L 45.771,58.301 L 50.581,58.301 M 50.581,51.972 L 50.581,46.47 L 45.771,46.47 L 45.771,51.972 L 50.581,51.972"/>
</svg>
