<?xml version="1.0" ?>
<svg xmlns="http://www.w3.org/2000/svg" xmlns:ev="http://www.w3.org/2001/xml-events" xmlns:xlink="http://www.w3.org/1999/xlink" baseProfile="full" enable-background="new 0 0 100 74.821" height="450px" version="1.1" viewBox="0 0 100 74.821" width="600px" x="0px" xml:space="preserve" y="0px">
	<defs/>
	<path d="M 88.913,0.001 L 94.445,10.529 C 94.445,10.529 92.508,10.616 88.842,12.591 C 86.397,13.912 82.0,19.198 82.0,19.198 L 73.807,7.405 C 73.807,7.405 78.251,3.1790000000000003 80.69500000000001,1.8610000000000007 C 84.361,-0.118 88.913,0.001 88.913,0.001"/>
	<path d="M 20.832,55.378 C 22.857,55.378 24.751,55.931 26.387,56.881 L 26.387,40.103 L 9.722,40.103 L 0.0,49.825 L 0.0,65.1 L 9.818,65.1 C 10.505,59.628 15.177,55.378 20.832,55.378"/>
	<path d="M 67.225,32.412 L 63.88799999999999,21.973999999999997 C 63.88799999999999,21.973999999999997 58.13399999999999,25.738999999999997 55.40899999999999,26.282999999999998 C 54.343999999999994,26.496 53.367999999999995,26.637999999999998 52.50099999999999,26.733999999999998 L 67.225,32.412"/>
	<path d="M 74.334,35.153 C 74.617,34.913 74.902,34.687 75.183,34.501 C 78.46700000000001,32.327999999999996 81.67800000000001,30.602999999999998 81.81400000000001,30.528999999999996 L 83.804,29.464999999999996 L 85.253,31.193999999999996 L 88.283,34.806999999999995 L 91.667,30.221999999999994 L 78.93900000000001,20.831999999999994 L 69.694,33.36399999999999 L 74.334,35.153"/>
	<path d="M 40.053,21.933 L 45.157,23.901 L 48.678999999999995,24.125 C 48.721,24.127 48.96399999999999,24.141 49.36899999999999,24.141 C 50.33299999999999,24.141 52.32899999999999,24.064999999999998 54.864999999999995,23.558 C 56.376,23.257 60.16199999999999,21.091 62.367999999999995,19.649 L 65.423,17.652 L 66.534,21.127000000000002 L 69.17500000000001,29.39 L 75.40500000000002,20.943 L 70.51100000000001,21.115000000000002 L 71.93700000000001,14.531000000000002 L 56.14700000000001,11.111000000000002 L 53.932000000000016,21.336000000000002 C 53.369000000000014,18.587000000000003 51.985000000000014,15.278000000000002 51.985000000000014,15.278000000000002 L 37.716000000000015,16.889000000000003 C 37.716000000000015,16.889000000000003 38.652000000000015,19.222 39.39400000000001,21.680000000000003 L 40.053,21.933"/>
	<path d="M 94.335,58.679 C 93.16999999999999,57.947 91.877,57.472 90.723,57.164 L 86.724,67.535 C 88.76700000000001,68.853 92.223,73.60499999999999 92.223,73.60499999999999 L 99.982,63.865999999999985 C 99.982,63.867 96.376,59.958 94.335,58.679"/>
	<path d="M 96.406,44.509 L 92.54,45.803 C 92.519,45.811 90.65700000000001,46.451 88.183,47.991 L 91.164,53.141999999999996 L 91.82600000000001,54.284 C 95.323,53.69 100.0,52.25 100.0,52.25 L 97.533,36.108000000000004 C 97.533,36.108000000000004 94.43,37.458000000000006 91.344,38.456 L 93.79599999999999,41.381 L 96.406,44.509"/>
	<path d="M 81.681,37.986 L 82.595,38.339 L 83.083,39.187 L 86.788,45.586999999999996 C 89.588,43.857 91.667,43.166999999999994 91.667,43.166999999999994 L 83.125,32.97899999999999 C 83.125,32.97899999999999 80.39,34.44999999999999 77.437,36.35099999999999 L 81.681,37.986"/>
	<path d="M 55.984,63.454 L 45.848,59.545 L 29.492,59.545 C 30.747,61.107 31.585,63.015 31.846,65.101 L 55.647999999999996,65.101 C 55.719,64.537 55.832,63.988 55.984,63.454"/>
	<path d="M 80.725,40.449 L 39.098,24.393 L 29.171999999999997,50.135999999999996 L 57.077,60.897999999999996 C 59.007,57.602 62.576,55.378 66.663,55.378 C 72.789,55.378 77.773,60.362 77.773,66.488 C 77.773,67.274 77.687,68.042 77.53099999999999,68.785 L 82.517,70.707 L 88.80499999999999,54.403999999999996 L 80.725,40.449"/>
	<path cx="66.662" cy="66.489" d="M 58.32900000000001,66.489 A 8.333,8.333 0.0 1,0 74.995,66.489 A 8.333,8.333 0.0 1,0 58.32900000000001,66.489" r="8.333"/>
	<path cx="20.832" cy="66.489" d="M 12.499,66.489 A 8.333,8.333 0.0 1,0 29.165,66.489 A 8.333,8.333 0.0 1,0 12.498999999999999,66.489" r="8.333"/>
</svg>
