<?xml version="1.0" ?>
<svg xmlns="http://www.w3.org/2000/svg" xmlns:ev="http://www.w3.org/2001/xml-events" xmlns:xlink="http://www.w3.org/1999/xlink" baseProfile="full" enable-background="new 0 0 100 94.445" height="567px" version="1.1" viewBox="0 0 100 94.445" width="600px" x="0px" xml:space="preserve" y="0px">
	<defs/>
	<path d="M 77.511,68.33 C 77.676,68.016 77.77799999999999,67.664 77.77799999999999,67.285 L 77.77799999999999,52.572 C 77.77799999999999,49.452000000000005 75.24499999999999,46.913000000000004 72.121,46.913000000000004 L 56.275,46.913000000000004 C 53.152,46.913000000000004 50.617999999999995,49.452000000000005 50.617999999999995,52.572 L 50.617999999999995,67.285 C 50.617999999999995,68.533 51.63099999999999,69.548 52.88099999999999,69.548 C 54.13099999999999,69.548 55.14399999999999,68.533 55.14399999999999,67.285 L 55.14399999999999,54.835 L 57.407999999999994,54.835 L 57.407999999999994,92.181 L 57.464999999999996,92.181 C 57.727999999999994,93.473 58.869,94.445 60.236999999999995,94.445 C 61.60399999999999,94.445 62.74699999999999,93.473 63.007999999999996,92.181 L 63.065,92.181 L 63.065,69.547 L 65.331,69.547 L 65.331,92.181 L 65.388,92.181 C 65.65,93.473 66.79100000000001,94.445 68.159,94.445 C 69.528,94.445 70.67,93.473 70.93100000000001,92.181 L 70.98900000000002,92.181 L 70.98900000000002,54.836 L 73.25300000000001,54.836 L 73.25300000000001,67.28399999999999 C 73.25300000000001,67.82799999999999 73.45300000000002,68.32199999999999 73.77400000000002,68.713 C 72.53600000000002,69.478 71.70200000000001,70.83699999999999 71.70200000000001,72.39599999999999 C 71.70200000000001,73.16399999999999 72.32300000000001,73.78499999999998 73.09100000000001,73.78499999999998 C 73.86000000000001,73.78499999999998 74.48100000000001,73.16399999999999 74.48100000000001,72.39599999999999 C 74.48100000000001,71.53499999999998 75.182,70.83399999999999 76.043,70.83399999999999 C 76.90400000000001,70.83399999999999 77.605,71.53499999999998 77.605,72.39599999999999 L 77.605,93.05499999999998 C 77.605,93.82299999999998 78.226,94.44499999999998 78.994,94.44499999999998 C 79.762,94.44499999999998 80.383,93.82299999999998 80.383,93.05499999999998 L 80.383,72.396 C 80.382,70.521 79.179,68.934 77.511,68.33"/>
	<path d="M 41.667,66.606 L 41.667,73.17399999999999 C 43.496,74.827 44.651,77.21 44.651,79.86099999999999 C 44.651,84.83899999999998 40.601000000000006,88.889 35.624,88.889 C 32.436,88.889 29.636000000000003,87.223 28.028000000000002,84.722 L 21.89,84.722 C 23.898,90.37599999999999 29.288,94.445 35.623000000000005,94.445 C 43.662000000000006,94.445 50.206,87.90299999999999 50.206,79.86099999999999 C 50.206,73.977 46.696,68.909 41.667,66.606"/>
	<path d="M 33.333,81.945 C 36.400999999999996,81.945 38.888,79.457 38.888,76.389 L 38.888,71.454 L 38.888,65.66 L 38.888,63.888999999999996 C 38.888,60.821 36.400999999999996,58.333 33.333,58.333 C 31.512999999999998,58.333 29.913999999999998,59.22 28.9,60.571999999999996 L 25.461,65.97099999999999 L 20.023,65.97099999999999 C 18.489,65.97099999999999 17.245,67.216 17.245,68.74799999999999 C 17.245,70.28399999999999 18.489,71.526 20.023,71.526 L 26.967,71.526 C 27.247,71.526 27.517,71.47099999999999 27.778,71.39099999999999 L 27.778,73.609 L 22.465999999999998,73.609 L 17.951999999999998,73.609 L 17.951999999999998,73.62599999999999 C 16.973,73.66199999999999 16.040999999999997,74.20599999999999 15.569999999999999,75.145 L 8.625999999999998,89.035 C 7.940999999999997,90.407 8.496999999999998,92.076 9.867999999999999,92.762 C 10.267,92.963 10.690999999999999,93.055 11.108999999999998,93.055 C 12.127999999999998,93.055 13.108999999999998,92.49300000000001 13.594999999999999,91.52000000000001 L 18.383,81.94500000000001 L 21.204,81.94500000000001 L 26.846,81.94500000000001 L 33.333,81.94500000000001 L 33.333,81.945"/>
	<path d="M 83.333,29.629 L 83.333,4.169 L 65.277,4.169 L 65.277,13.58 L 50.0,0.0 L 0.0,44.442 L 13.889,44.444 L 50.0,12.5 L 86.111,44.444 L 100.0,44.442 L 83.333,29.629" points="83.333,29.629 83.333,4.169 65.277,4.169 65.277,13.58 50,0 0,44.442 13.889,44.444 50,12.5 86.111,44.444   100,44.442 "/>
	<path cx="64.043" cy="38.992" d="M 58.38400000000001,38.992 A 5.6590000000000025,5.6590000000000025 0.0 1,0 69.70200000000001,38.992 A 5.659,5.659 0.0 1,0 58.384000000000015,38.992" r="5.659"/>
	<path cx="33.437" cy="50.103" d="M 27.778999999999996,50.103 A 5.658,5.658 0.0 1,0 39.095,50.103 A 5.658,5.658 0.0 1,0 27.778999999999996,50.103" r="5.658"/>
</svg>
