<?xml version="1.0" ?>
<svg xmlns="http://www.w3.org/2000/svg" xmlns:ev="http://www.w3.org/2001/xml-events" xmlns:xlink="http://www.w3.org/1999/xlink" baseProfile="full" enable-background="new 0 0 98.42 100" height="600px" version="1.1" viewBox="0 0 98.42 100" width="591px" x="0px" xml:space="preserve" y="0px">
	<defs/>
	<path d="M 72.949,73.199 C 73.504,72.259 73.845,71.17399999999999 73.845,70.002 C 73.845,66.5 71.007,63.663 67.507,63.663 C 66.492,63.663 65.54700000000001,63.925 64.696,64.348 C 64.134,61.421 61.568999999999996,59.208999999999996 58.479,59.208999999999996 C 54.977,59.208999999999996 52.141,62.046 52.141,65.547 C 52.141,65.583 52.152,65.618 52.152,65.655 C 51.753,65.59 51.345,65.547 50.926,65.547 C 48.388000000000005,65.547 46.149,66.803 44.78,68.72 L 42.07,85.224 C 43.845,85.179 45.417,84.375 46.5,83.12 C 47.748,84.015 49.273,84.546 50.927,84.546 C 52.632,84.546 54.199,83.98100000000001 55.469,83.03500000000001 C 56.846000000000004,84.39800000000001 58.738,85.24000000000001 60.828,85.24000000000001 C 63.252,85.24000000000001 65.407,84.10600000000001 66.803,82.34400000000001 C 67.871,84.075 69.771,85.24000000000001 71.956,85.24000000000001 C 75.31,85.24000000000001 78.027,82.52300000000001 78.027,79.17000000000002 C 78.027,76.156 75.827,73.676 72.949,73.199"/>
	<path d="M 22.508,70.052 C 31.633,70.052 39.032,77.44800000000001 39.032,86.57600000000001 L 47.175,37.0 C 47.175,30.542 41.94,25.307000000000002 35.482,25.307000000000002 C 31.8,25.307000000000002 28.515,27.009 26.372,29.671000000000003 L 9.63,76.219 C 12.659,72.456 17.303,70.052 22.508,70.052"/>
	<path d="M 22.508,72.829 C 18.325,72.829 14.42,74.699 11.793999999999999,77.96 C 11.251999999999999,78.636 10.447,78.996 9.628999999999998,78.996 C 9.165999999999999,78.996 8.697999999999997,78.881 8.270999999999997,78.64099999999999 C 7.086999999999997,77.97699999999999 6.556999999999997,76.55499999999999 7.016999999999998,75.279 L 20.102999999999998,38.894999999999996 L 0.0,38.894999999999996 L 0.0,100.0 C 0.0,100.0 21.515,99.993 22.22,99.993 C 29.89,99.993 36.108,93.77499999999999 36.108,86.10499999999999 C 36.108,84.791 35.913999999999994,83.52399999999999 35.571999999999996,82.32 C 33.775,76.819 28.602,72.829 22.508,72.829"/>
	<path d="M 82.569,53.35 C 83.313,53.177 84.062,53.646 84.233,54.393 C 84.27300000000001,54.571 87.792,69.852 90.905,78.378 L 98.421,78.378 C 98.421,78.378 91.322,52.734 90.06,43.924 C 88.685,34.326 82.438,26.302 73.055,25.549 L 67.873,0.0 L 59.371,0.0 L 64.804,26.786 C 57.987,29.497 53.159000000000006,36.141000000000005 53.159000000000006,43.925 C 53.159000000000006,46.849999999999994 54.12500000000001,51.766 55.39900000000001,56.980999999999995 C 56.36400000000001,56.632 57.397000000000006,56.431999999999995 58.479000000000006,56.431999999999995 C 60.226000000000006,56.431999999999995 61.870000000000005,56.94 63.273,57.81399999999999 C 62.891000000000005,56.230999999999995 62.652,55.193999999999996 62.612,55.013999999999996 C 62.441,54.266999999999996 62.907000000000004,53.520999999999994 63.655,53.349999999999994 C 64.402,53.17699999999999 65.148,53.645999999999994 65.319,54.392999999999994 C 65.33500000000001,54.465999999999994 65.961,57.17699999999999 66.907,60.925 C 67.106,60.910999999999994 67.30499999999999,60.885 67.50699999999999,60.885 C 70.25599999999999,60.885 72.719,62.114 74.39299999999999,64.044 C 73.13699999999999,59.212999999999994 72.25199999999998,55.375 72.16899999999998,55.013999999999996 C 71.99699999999999,54.266999999999996 72.46499999999999,53.520999999999994 73.21199999999999,53.349999999999994 C 73.95799999999998,53.17699999999999 74.70499999999998,53.645999999999994 74.87599999999999,54.392999999999994 C 74.91699999999999,54.57099999999999 78.43699999999998,69.85199999999999 81.54799999999999,78.37799999999999 L 87.957,78.37799999999999 C 84.884,69.60099999999998 81.68599999999999,55.716999999999985 81.526,55.01399999999998 C 81.355,54.267 81.821,53.521 82.569,53.35"/>
</svg>
