<?xml version="1.0" ?>
<svg xmlns="http://www.w3.org/2000/svg" xmlns:ev="http://www.w3.org/2001/xml-events" xmlns:xlink="http://www.w3.org/1999/xlink" baseProfile="full" enable-background="new 0 0 100 100" height="600px" version="1.1" viewBox="0 0 100 100" width="600px" x="0px" xml:space="preserve" y="0px">
	<defs/>
	<path d="M 70.833,91.667 L 70.833,59.724 L 70.833,56.946 L 70.833,56.945 L 70.833,52.778 L 50.0,47.223 L 29.167,52.778 L 29.167,56.945 L 29.167,56.946 L 29.167,59.724 L 29.167,91.667 L 37.5,91.667 L 37.5,59.724 L 45.833,59.724 L 45.833,91.667 L 54.167,91.667 L 54.167,59.724 L 62.5,59.724 L 62.5,91.667 L 70.833,91.667"/>
	<path d="M 66.667,36.111 C 66.667,36.11 66.667,36.11 66.667,36.11 C 66.667,27.854 60.658,21.018 52.777,19.692999999999998 L 52.777,15.971999999999998 C 52.777,15.587999999999997 52.466,15.277999999999999 52.083,15.277999999999999 L 51.388999999999996,15.277999999999999 L 51.388999999999996,11.684 C 56.282999999999994,14.133 60.31399999999999,9.913 66.667,12.452 L 66.667,2.778 C 60.313,0.239 56.282,4.459 51.389,2.01 L 51.389,1.389 C 51.389,0.621 50.768,0.0 50.0,0.0 C 49.232,0.0 48.611,0.621 48.611,1.389 L 48.611,15.277999999999999 L 47.916999999999994,15.277999999999999 C 47.532999999999994,15.277999999999999 47.22299999999999,15.588999999999999 47.22299999999999,15.971999999999998 L 47.22299999999999,19.692999999999998 C 39.34199999999999,21.017999999999997 33.33299999999999,27.854 33.33299999999999,36.11 C 33.33299999999999,36.11 33.33299999999999,36.11 33.33299999999999,36.111 L 33.33299999999999,38.888 L 66.667,38.888 L 66.667,36.111"/>
	<path d="M 73.611,55.556 L 73.611,91.667 L 74.76100000000001,91.667 L 75.57400000000001,92.48 L 81.13000000000001,98.036 L 83.095,100.0 L 100.0,100.0 L 100.0,55.556 L 73.611,55.556 M 84.723,84.723 L 79.167,84.723 L 79.167,76.389 L 84.723,76.389 L 84.723,84.723 M 84.723,70.833 L 79.167,70.833 L 79.167,62.5 L 84.723,62.5 L 84.723,70.833 M 94.444,84.723 L 88.888,84.723 L 88.888,76.389 L 94.444,76.389 L 94.444,84.723 M 94.444,70.833 L 88.888,70.833 L 88.888,62.5 L 94.444,62.5 L 94.444,70.833"/>
	<path d="M 25.238,91.667 L 26.387999999999998,91.667 L 26.387999999999998,55.556 L 0.0,55.556 L 0.0,100.0 L 16.905,100.0 L 18.869,98.036 L 24.425,92.48 L 25.238,91.667 M 11.111,84.723 L 5.556,84.723 L 5.556,76.389 L 11.112,76.389 L 11.112,84.723 L 11.111,84.723 M 11.111,70.833 L 5.556,70.833 L 5.556,62.5 L 11.112,62.5 L 11.112,70.833 L 11.111,70.833 M 20.833,84.723 L 15.276999999999997,84.723 L 15.276999999999997,76.389 L 20.833,76.389 L 20.833,84.723 M 20.833,70.833 L 15.276999999999997,70.833 L 15.276999999999997,62.5 L 20.833,62.5 L 20.833,70.833"/>
	<path d="M 26.389,50.643 L 50.0,44.347 L 73.611,50.643 L 73.611,52.777 L 79.167,52.777 L 79.167,41.667 L 20.833,41.667 L 20.833,52.777 L 26.389,52.777 L 26.389,50.643" points="26.389,50.643 50,44.347 73.611,50.643 73.611,52.777 79.167,52.777 79.167,41.667 20.833,41.667 20.833,52.777    26.389,52.777  "/>
	<path d="M 26.389,94.444 L 20.833,100.0 L 79.167,100.0 L 73.611,94.444 L 26.389,94.444" points="26.389,94.444 20.833,100 79.167,100 73.611,94.444  "/>
</svg>
