<?xml version="1.0" ?>
<svg xmlns="http://www.w3.org/2000/svg" xmlns:ev="http://www.w3.org/2001/xml-events" xmlns:xlink="http://www.w3.org/1999/xlink" baseProfile="full" enable-background="new 0 0 100 90.406" height="543px" version="1.1" viewBox="0 0 100 90.406" width="600px" x="0px" xml:space="preserve" y="0px">
	<defs/>
	<path d="M 64.705,65.529 L 62.858,62.495999999999995 C 63.246,63.862 63.895,64.857 64.705,65.529"/>
	<path d="M 88.668,60.032 C 86.93900000000001,58.305 80.48,53.25 80.48,53.25 C 79.87400000000001,52.946 79.208,52.793 78.541,52.793 C 78.14,52.793 77.738,52.849 77.345,52.96 L 67.213,55.855000000000004 C 65.205,56.416000000000004 64.00099999999999,57.106 63.312999999999995,57.905 L 68.69999999999999,66.748 C 70.58399999999999,66.66300000000001 72.41999999999999,65.87700000000001 73.42299999999999,64.875 C 75.16499999999999,63.132 76.323,60.073 78.53599999999999,60.033 L 78.588,60.033 C 81.315,60.031 86.0,63.936 88.66999999999999,64.376 C 88.75799999999998,64.391 88.84599999999999,64.397 88.93199999999999,64.397 C 90.259,64.396 91.385,62.749 88.668,60.032"/>
	<path d="M 92.788,64.644 C 92.14999999999999,66.18100000000001 90.637,67.173 88.92999999999999,67.173 C 88.69399999999999,67.173 88.455,67.154 88.216,67.116 C 86.523,66.837 84.711,65.821 82.79599999999999,64.745 C 81.55099999999999,64.045 79.49499999999999,62.891000000000005 78.66799999999999,62.813 C 78.445,62.958000000000006 78.104,63.376000000000005 77.77699999999999,63.806000000000004 L 77.77699999999999,80.652 L 93.05499999999999,80.652 L 93.05499999999999,63.677 C 92.996,64.057 92.896,64.382 92.788,64.644"/>
	<path d="M 36.31,90.016 C 36.413000000000004,89.986 36.510000000000005,89.94300000000001 36.611000000000004,89.909 C 36.86000000000001,89.825 37.11000000000001,89.74300000000001 37.354000000000006,89.635 C 37.709,89.48100000000001 38.05800000000001,89.302 38.398,89.09400000000001 L 52.041000000000004,80.786 L 52.041000000000004,80.786 L 68.057,71.031 L 58.69,55.653000000000006 L 34.204,70.566 L 22.254,61.164 L 23.978,58.986000000000004 L 34.408,67.19 L 50.253,57.539 L 50.0,54.264 L 58.104,45.2 L 50.367,43.374 C 50.665,42.445 50.833,41.457 50.833,40.429 L 50.833,38.596000000000004 L 51.510999999999996,38.596000000000004 C 53.675999999999995,38.596000000000004 55.43899999999999,36.833000000000006 55.43899999999999,34.667 C 55.43899999999999,34.127 55.32899999999999,33.598 55.11099999999999,33.095 L 51.11599999999999,24.317999999999998 L 57.41499999999999,24.695999999999998 L 57.74799999999999,19.151999999999997 L 53.55799999999999,18.9 L 46.11,5.469 C 45.692,4.718 44.952,4.2010000000000005 44.102,4.071000000000001 L 17.819,0.032 C 16.576999999999998,-0.156 15.354999999999999,0.512 14.850999999999999,1.668 L 8.523,16.191 L 3.2089999999999996,15.870999999999999 L 2.8759999999999994,21.415 L 10.879999999999999,21.897 C 10.784999999999998,22.685 10.720999999999998,23.483999999999998 10.720999999999998,24.296999999999997 C 10.720999999999998,28.049999999999997 11.753999999999998,31.619999999999997 13.643999999999998,34.709999999999994 L 6.310999999999998,32.97899999999999 L 10.517,47.08599999999999 L 10.532,47.16599999999999 C 9.161,47.72299999999999 7.834,48.44999999999999 6.603,49.39399999999999 C 1.9329999999999998,52.965999999999994 -0.3360000000000003,58.504999999999995 0.051000000000000156,63.962999999999994 L 0.0,63.985 L 0.0,90.375 L 26.115,90.375 L 9.374,77.446 L 11.098,75.267 L 28.777,88.91799999999999 C 29.126,89.14699999999999 29.487000000000002,89.34899999999999 29.862000000000002,89.523 C 30.135,89.65299999999999 30.422,89.753 30.708000000000002,89.85499999999999 C 30.798000000000002,89.88699999999999 30.885,89.92799999999998 30.977,89.95899999999999 C 31.346,90.07799999999999 31.723,90.16599999999998 32.106,90.23599999999999 C 32.112,90.23799999999999 32.116,90.23799999999999 32.120000000000005,90.24 C 32.516000000000005,90.31099999999999 32.912000000000006,90.354 33.31400000000001,90.374 L 33.31400000000001,90.374 L 33.31400000000001,90.374 C 33.45700000000001,90.381 33.598000000000006,90.405 33.74100000000001,90.405 C 34.251000000000005,90.405 34.76200000000001,90.343 35.269000000000005,90.257 C 35.288000000000004,90.253 35.30500000000001,90.24900000000001 35.32300000000001,90.245 C 35.654,90.187 35.983,90.114 36.31,90.016 M 13.498,24.298 C 13.498,23.54 13.564,22.796999999999997 13.66,22.064 L 48.047,24.131 C 48.047,24.188 48.055,24.242 48.055,24.298000000000002 L 52.564,34.2 C 52.624,34.345000000000006 52.662,34.5 52.662,34.666000000000004 C 52.662,35.30200000000001 52.149,35.81700000000001 51.512,35.81700000000001 L 48.056,35.81700000000001 L 48.056,40.42700000000001 C 48.056,41.23800000000001 47.891,42.004000000000005 47.632999999999996,42.729000000000006 L 17.841,35.7 C 15.15,32.657 13.498,28.68 13.498,24.298"/>
	<path d="M 44.312,28.91 C 45.425,28.91 46.327999999999996,28.002 46.327999999999996,26.891 C 46.327999999999996,25.778 45.425999999999995,24.874 44.312,24.874 C 43.196999999999996,24.874 42.293,25.776999999999997 42.293,26.891 C 42.293,28.002 43.196,28.91 44.312,28.91"/>
	<path d="M 95.833,77.875 L 95.833,83.43 L 75.0,83.43 L 75.0,77.875 L 70.833,77.875 L 70.833,90.375 L 100.0,90.375 L 100.0,77.875 L 95.833,77.875" points="95.833,77.875 95.833,83.43 75,83.43 75,77.875 70.833,77.875 70.833,90.375 100,90.375 100,77.875 "/>
	<path d="M 41.634,90.375 L 52.777,90.375 L 52.278,83.892 L 41.634,90.375" points="41.634,90.375 52.777,90.375 52.278,83.892  "/>
</svg>
