<?xml version="1.0" ?>
<svg xmlns="http://www.w3.org/2000/svg" xmlns:ev="http://www.w3.org/2001/xml-events" xmlns:xlink="http://www.w3.org/1999/xlink" baseProfile="full" enable-background="new 0 0 100 88.91" height="534px" version="1.1" viewBox="0 0 100 88.91" width="600px" x="0px" xml:space="preserve" y="0px">
	<defs/>
	<path d="M 93.056,38.91 L 83.333,41.687999999999995 L 69.444,41.687999999999995 L 66.667,41.687999999999995 L 55.556,38.91 L 44.444,38.91 L 33.333,40.299 L 29.165999999999997,38.91 L 29.165999999999997,44.458 L 29.165999999999997,48.623999999999995 L 26.387999999999998,48.623999999999995 L 26.387999999999998,44.458 L 22.915999999999997,44.458 L 22.915999999999997,62.521 C 22.915999999999997,67.499 26.965999999999998,71.548 31.943999999999996,71.548 L 33.452,71.548 L 39.702,65.298 L 43.629999999999995,65.298 L 37.38099999999999,71.548 L 50.11899999999999,71.548 L 56.36899999999999,65.298 L 60.29699999999999,65.298 L 54.04699999999999,71.548 L 66.78599999999999,71.548 L 73.03599999999999,65.298 L 76.96399999999998,65.298 L 70.71399999999998,71.548 L 81.77099999999999,71.548 L 81.77099999999999,75.715 L 70.714,75.715 L 76.964,81.965 L 73.036,81.965 L 66.786,75.715 L 54.047,75.715 L 60.297,81.965 L 56.369,81.965 L 50.12,75.715 L 37.381,75.715 L 43.631,81.965 L 39.703,81.965 L 33.453,75.715 L 31.944000000000003,75.715 C 24.669000000000004,75.715 18.75,69.796 18.75,62.521 L 18.75,44.458 L 15.278,44.458 L 15.278,48.623999999999995 L 12.5,48.623999999999995 L 12.5,44.458 L 12.5,38.903999999999996 L 11.111,38.903 L 6.944000000000001,40.292 L 0.0,38.91 L 0.0,88.91 L 65.706,88.91 L 65.277,88.765 L 66.172,86.132 L 68.80199999999999,87.02600000000001 L 68.163,88.91000000000001 L 100.0,88.91000000000001 L 100.0,38.91000000000001 L 93.056,38.91000000000001 L 93.056,38.91 M 30.556,62.521 C 29.789,62.521 29.167,61.9 29.167,61.132 C 29.167,60.364 29.789,59.742999999999995 30.556,59.742999999999995 C 31.323,59.742999999999995 31.945,60.364 31.945,61.132 C 31.945,61.9 31.323,62.521 30.556,62.521 M 53.288,47.612 L 52.409,44.975 L 55.046,44.098 L 55.923,46.733 L 53.288,47.612 M 69.293,56.97 L 66.661,56.077 L 67.554,53.445 L 70.185,54.339 L 69.293,56.97 M 6.944,51.41 C 6.944,50.641999999999996 7.566,50.020999999999994 8.333,50.020999999999994 C 9.100000000000001,50.020999999999994 9.722,50.641999999999996 9.722,51.41 C 9.722,52.178 9.1,52.799 8.333,52.799 C 7.566000000000001,52.799 6.944,52.178 6.944,51.41 M 8.476,75.021 L 7.598000000000001,72.384 L 10.233,71.506 L 11.111,74.142 L 8.476,75.021 M 15.278,86.133 C 14.511000000000001,86.133 13.889000000000001,85.512 13.889000000000001,84.744 C 13.889000000000001,83.975 14.511000000000001,83.354 15.278,83.354 C 16.045,83.354 16.667,83.975 16.667,84.744 C 16.667,85.512 16.045,86.133 15.278,86.133 M 94.298,50.021 L 91.667,49.128 L 92.561,46.495 L 95.191,47.39 L 94.298,50.021"/>
	<path d="M 20.833,22.235 C 12.499999999999998,22.235 13.235,16.533 13.887999999999998,13.902 C 13.887999999999998,13.902 15.295999999999998,16.660999999999998 16.665999999999997,15.290999999999999 C 18.054999999999996,13.902 16.734999999999996,12.747999999999998 16.275,9.735 C 15.850999999999999,6.957999999999999 19.442999999999998,6.957999999999999 19.442999999999998,6.957999999999999 C 16.665,9.735 19.997999999999998,11.838999999999999 20.831999999999997,11.125 C 23.109999999999996,9.172 19.442999999999998,5.952 19.442999999999998,4.181 C 19.442999999999998,2.4450000000000003 20.831999999999997,1.403 20.831999999999997,1.403 C 21.569999999999997,6.438000000000001 24.761999999999997,4.875 25.953999999999997,8.347 C 26.31,9.386 25.693999999999996,11.042 26.387999999999998,11.818999999999999 C 27.081999999999997,12.595999999999998 27.299999999999997,10.299999999999999 30.752,11.818999999999999 C 31.898,12.322999999999999 27.776999999999997,11.125 27.776999999999997,16.68 C 27.778,16.68 27.778,22.235 20.833,22.235"/>
	<path d="M 25.0,0.013 C 24.155,-0.15999999999999998 23.112000000000002,1.394 23.112000000000002,2.096 C 23.112000000000002,3.116 24.642000000000003,3.355 24.642000000000003,4.7490000000000006 C 24.642000000000003,4.7490000000000006 25.495000000000005,3.553000000000001 25.629,3.029000000000001 C 25.715,2.693000000000001 24.817,2.371000000000001 24.652,2.065000000000001 C 24.407,1.607 25.0,0.013 25.0,0.013"/>
	<path d="M 23.611,34.735 L 23.611,31.958 L 27.778,31.958 L 27.778,29.18 L 23.611,29.18 L 23.611,25.013 L 18.056,25.013 L 18.056,29.18 L 13.889,29.18 L 13.889,31.958 L 18.056,31.958 L 18.056,34.735 L 12.5,34.735 L 12.5,38.902 L 29.167,38.902 L 29.167,34.735 L 23.611,34.735" points="23.611,34.735 23.611,31.958 27.778,31.958 27.778,29.18 23.611,29.18 23.611,25.013 18.056,25.013 18.056,29.18    13.889,29.18 13.889,31.958 18.056,31.958 18.056,34.735 12.5,34.735 12.5,38.902 29.167,38.902 29.167,34.735 "/>
</svg>
