<?xml version="1.0" ?>
<svg xmlns="http://www.w3.org/2000/svg" xmlns:ev="http://www.w3.org/2001/xml-events" xmlns:xlink="http://www.w3.org/1999/xlink" baseProfile="full" enable-background="new 0 0 75.264 100" height="600px" version="1.1" viewBox="0 0 75.264 100" width="452px" x="0px" xml:space="preserve" y="0px">
	<defs/>
	<path d="M 35.705,29.44 C 35.705,30.756 34.664,31.78 33.339999999999996,31.78 L 8.587,31.78 C 7.253,31.78 6.221,30.756 6.221,29.44 L 6.221,8.568 C 6.221,7.252 7.253,6.228 8.587,6.228 L 33.34,6.228 C 34.664,6.228 35.705000000000005,7.252 35.705000000000005,8.568 L 35.705000000000005,29.44 L 35.705,29.44 M 64.562,32.107 C 61.43,31.419 60.294,29.81 60.294,28.329 L 60.294,22.935000000000002 C 60.294,22.935000000000002 62.376,23.400000000000002 62.875,23.529000000000003 C 63.89,23.796000000000003 64.535,25.353000000000005 64.562,26.713000000000005 C 64.596,28.073 64.562,32.107 64.562,32.107 M 70.868,64.879 C 70.868,64.827 70.0,58.254000000000005 70.0,58.254000000000005 L 70.0,27.9 C 70.0,24.648 68.933,22.006 66.73,19.787 L 52.671,5.798 C 51.699,5.798 49.015,8.474 49.015,8.474 C 49.015,9.446 55.993,16.372 55.993,16.372 L 55.786,28.15 C 55.786,32.332 59.184000000000005,35.721 63.384,35.721 L 65.268,35.747 L 64.597,58.254000000000005 L 65.535,65.97200000000001 L 69.75999999999999,88.74600000000001 C 69.916,92.44500000000001 66.53299999999999,94.647 63.86599999999999,94.647 C 61.39699999999999,94.647 58.532,92.608 58.532,89.97500000000001 L 58.583999999999996,50.06400000000001 C 58.583999999999996,45.211000000000006 54.644,41.27100000000001 49.791,41.27100000000001 C 49.791,41.27100000000001 41.351,41.27100000000001 41.30799999999999,41.27100000000001 C 41.901999999999994,41.23800000000001 41.92699999999999,15.134000000000007 41.92699999999999,9.593000000000007 C 41.92699999999999,8.938000000000008 41.92699999999999,8.568000000000007 41.92699999999999,8.568000000000007 C 41.925,3.845 38.071,0.0 33.339,0.0 L 8.587,0.0 C 3.854,0.0 0.0,3.845 0.0,8.568 L 0.0,100.0 L 41.939,100.0 L 41.968,46.88 L 49.884,46.88 C 51.699,46.88 53.179,48.361000000000004 53.179,50.175000000000004 L 53.179,89.975 C 53.179,95.31899999999999 58.169000000000004,99.999 63.865,99.999 C 69.242,99.999 75.264,95.723 75.264,89.975 C 75.17,88.65 70.868,64.879 70.868,64.879"/>
</svg>
