<?xml version="1.0" ?>
<svg xmlns="http://www.w3.org/2000/svg" xmlns:cc="http://creativecommons.org/ns#" xmlns:dc="http://purl.org/dc/elements/1.1/" xmlns:ev="http://www.w3.org/2001/xml-events" xmlns:inkscape="http://www.inkscape.org/namespaces/inkscape" xmlns:rdf="http://www.w3.org/1999/02/22-rdf-syntax-ns#" xmlns:sodipodi="http://sodipodi.sourceforge.net/DTD/sodipodi-0.dtd" xmlns:svg="http://www.w3.org/2000/svg" xmlns:xlink="http://www.w3.org/1999/xlink" baseProfile="full" enable-background="new -32.047 -31.796 100 99.217" height="596px" version="1.1" viewBox="-32.047 -31.796 100 99.217" width="600px" x="0px" xml:space="preserve" y="0px">
	<defs/>
	<path d="M 65.777,10.85 C 64.531,9.237 62.589,8.152999999999999 60.381,7.804 C 56.628,-8.014 44.193,-20.68 27.918,-24.485 C 27.537,-26.59 26.436999999999998,-28.4 24.872,-29.619999999999997 C 22.931,-31.134999999999998 20.464,-31.796 17.91,-31.796 C 15.356,-31.796 12.908999999999999,-31.214 10.948,-29.707 C 9.351,-28.479 8.201,-26.564 7.815,-24.398 C -8.628,-20.713 -21.281,-8.02 -25.084,7.891 C -27.092,8.328 -28.813,9.367 -29.958,10.85 C -31.462999999999997,12.801 -32.047,15.285 -32.047,17.811999999999998 C -32.047,20.340999999999998 -31.464,22.821999999999996 -29.958,24.775 C -28.83,26.238 -27.147,27.284999999999997 -25.171,27.733999999999998 C -21.354,44.316 -8.175999999999998,56.884 7.9879999999999995,60.458 C 8.426,62.437999999999995 9.556,64.179 11.033999999999999,65.332 C 12.976999999999999,66.847 15.442999999999998,67.42099999999999 17.996,67.42099999999999 C 20.549999999999997,67.42099999999999 22.997,66.839 24.958,65.332 C 26.514,64.13799999999999 27.586,62.288999999999994 28.003999999999998,60.196999999999996 C 37.551,57.928 46.077,52.568 52.111999999999995,45.053 C 53.053,43.992 52.955,42.367999999999995 51.89399999999999,41.427 C 51.24199999999999,40.848 50.340999999999994,40.642 49.49999999999999,40.875 C 48.93999999999999,41.027 48.449999999999996,41.364 48.10699999999999,41.832 C 42.38999999999999,48.95 34.21999999999999,53.884 25.043999999999993,55.583 C 23.618999999999993,55.787 22.631999999999994,57.106 22.83599999999999,58.531 C 22.86799999999999,58.775999999999996 22.93999999999999,59.012 23.042999999999992,59.239 C 22.900999999999993,60.178999999999995 22.49599999999999,60.723 21.82399999999999,61.239999999999995 C 21.00299999999999,61.870999999999995 19.661999999999992,62.285 17.993999999999993,62.285 C 16.32699999999999,62.285 14.963999999999993,61.863 14.163999999999993,61.239999999999995 C 13.473999999999993,60.702 13.043999999999993,60.114 12.945999999999993,59.06399999999999 C 12.924999999999992,59.13799999999999 12.945999999999993,58.949999999999996 12.945999999999993,58.54299999999999 C 12.952999999999992,58.39099999999999 13.032999999999992,58.35699999999999 13.032999999999992,58.10699999999999 C 13.056999999999992,56.68699999999999 11.927999999999992,55.51999999999999 10.508999999999993,55.495999999999995 C 10.478999999999994,55.495999999999995 10.450999999999993,55.495999999999995 10.421999999999993,55.495999999999995 C 10.182999999999993,55.519999999999996 9.948999999999993,55.580999999999996 9.725999999999994,55.67099999999999 C -5.277000000000006,52.64699999999999 -17.391000000000005,40.83099999999999 -20.387000000000008,25.295999999999992 C -20.41100000000001,25.208999999999993 -20.44000000000001,25.121999999999993 -20.474000000000007,25.034999999999993 C -20.50100000000001,24.974999999999994 -20.53000000000001,24.917999999999992 -20.561000000000007,24.860999999999994 C -20.561000000000007,24.833999999999993 -20.561000000000007,24.800999999999995 -20.561000000000007,24.773999999999994 C -20.590000000000007,24.743999999999993 -20.618000000000006,24.712999999999994 -20.648000000000007,24.686999999999994 C -20.647000000000006,24.625999999999994 -20.647000000000006,24.572999999999993 -20.648000000000007,24.511999999999993 C -20.677000000000007,24.482999999999993 -20.705000000000005,24.451999999999995 -20.735000000000007,24.424999999999994 C -20.734000000000005,24.364999999999995 -20.734000000000005,24.310999999999993 -20.735000000000007,24.250999999999994 C -20.763000000000005,24.220999999999993 -20.792000000000005,24.190999999999995 -20.822000000000006,24.163999999999994 C -20.822000000000006,24.136999999999993 -20.822000000000006,24.103999999999996 -20.822000000000006,24.076999999999995 C -20.900000000000006,23.951999999999995 -20.987000000000005,23.837999999999994 -21.083000000000006,23.727999999999994 C -21.083000000000006,23.700999999999993 -21.083000000000006,23.667999999999996 -21.083000000000006,23.640999999999995 C -21.551000000000005,23.058999999999994 -22.251000000000005,22.710999999999995 -22.998000000000005,22.683999999999994 C -23.175000000000004,22.694999999999993 -23.350000000000005,22.724999999999994 -23.520000000000003,22.770999999999994 C -24.645000000000003,22.686999999999994 -25.322000000000003,22.351999999999993 -25.870000000000005,21.638999999999992 C -26.490000000000006,20.833999999999993 -26.914000000000005,19.462999999999994 -26.914000000000005,17.80999999999999 C -26.914000000000005,16.15799999999999 -26.490000000000006,14.783999999999992 -25.870000000000005,13.979999999999992 C -25.405000000000005,13.377999999999991 -24.880000000000006,13.00399999999999 -24.042000000000005,12.848999999999991 C -23.479000000000006,13.05199999999999 -22.864000000000004,13.05199999999999 -22.301000000000005,12.848999999999991 C -22.092000000000006,12.815999999999992 -21.886000000000006,12.757999999999992 -21.692000000000007,12.674999999999992 C -21.633000000000006,12.647999999999993 -21.575000000000006,12.618999999999993 -21.518000000000008,12.587999999999992 C -21.518000000000008,12.559999999999992 -21.518000000000008,12.529999999999992 -21.518000000000008,12.500999999999992 C -21.459000000000007,12.473999999999993 -21.401000000000007,12.444999999999993 -21.34400000000001,12.413999999999993 C -20.44100000000001,11.838999999999993 -19.991000000000007,10.762999999999993 -20.213000000000008,9.715999999999992 C -16.945000000000007,-5.0840000000000085 -5.071000000000009,-16.961000000000006 10.421999999999993,-19.78800000000001 C 11.639999999999993,-19.92900000000001 12.588999999999993,-20.914000000000012 12.684999999999993,-22.138000000000012 C 12.753999999999994,-22.394000000000013 12.782999999999994,-22.658000000000012 12.771999999999993,-22.921000000000014 C 12.771999999999993,-24.305000000000014 13.255999999999993,-24.988000000000014 14.076999999999993,-25.619000000000014 C 14.897999999999993,-26.250000000000014 16.238999999999994,-26.663000000000014 17.906999999999993,-26.663000000000014 C 19.574999999999992,-26.663000000000014 20.936999999999994,-26.241000000000014 21.736999999999995,-25.619000000000014 C 22.426999999999996,-25.082000000000015 22.769999999999996,-24.490000000000013 22.867999999999995,-23.443000000000012 C 22.862999999999996,-23.42200000000001 22.873999999999995,-23.237000000000013 22.867999999999995,-23.182000000000013 C 22.753999999999994,-22.754000000000012 22.753999999999994,-22.305000000000014 22.867999999999995,-21.876000000000012 C 22.894999999999996,-21.818000000000012 22.922999999999995,-21.75900000000001 22.954999999999995,-21.702000000000012 C 22.979999999999993,-21.61400000000001 23.009999999999994,-21.52700000000001 23.042999999999996,-21.441000000000013 C 23.068999999999996,-21.382000000000012 23.096999999999994,-21.324000000000012 23.129999999999995,-21.267000000000014 C 23.129999999999995,-21.208000000000013 23.129999999999995,-21.151000000000014 23.129999999999995,-21.093000000000014 C 23.156999999999996,-21.063000000000013 23.186999999999994,-21.034000000000013 23.216999999999995,-21.006000000000014 C 23.243999999999996,-21.006000000000014 23.276999999999994,-21.006000000000014 23.303999999999995,-21.006000000000014 C 23.330999999999996,-20.947000000000013 23.358999999999995,-20.889000000000014 23.390999999999995,-20.832000000000015 C 23.390999999999995,-20.804000000000016 23.390999999999995,-20.774000000000015 23.390999999999995,-20.745000000000015 C 23.448999999999995,-20.714000000000016 23.504999999999995,-20.685000000000016 23.564999999999994,-20.658000000000015 C 23.591999999999995,-20.628000000000014 23.622999999999994,-20.599000000000014 23.651999999999994,-20.571000000000016 C 23.678999999999995,-20.541000000000015 23.709999999999994,-20.512000000000015 23.739999999999995,-20.484000000000016 C 23.820999999999994,-20.421000000000017 23.907999999999994,-20.363000000000017 24.000999999999994,-20.310000000000016 C 24.055999999999994,-20.249000000000017 24.114999999999995,-20.192000000000018 24.174999999999994,-20.136000000000017 C 24.201999999999995,-20.136000000000017 24.234999999999992,-20.136000000000017 24.261999999999993,-20.136000000000017 C 24.319999999999993,-20.105000000000018 24.375999999999994,-20.07600000000002 24.436999999999994,-20.049000000000017 C 24.462999999999994,-20.049000000000017 24.496999999999993,-20.049000000000017 24.523999999999994,-20.049000000000017 C 24.718999999999994,-19.96600000000002 24.922999999999995,-19.90800000000002 25.131999999999994,-19.875000000000018 C 40.952999999999996,-16.906000000000017 52.995999999999995,-4.540000000000017 55.85499999999999,10.759999999999984 C 56.14099999999999,12.115999999999984 57.44899999999999,13.002999999999984 58.81399999999999,12.761999999999983 C 58.87499999999999,12.762999999999982 58.92799999999999,12.762999999999982 58.98899999999999,12.761999999999983 C 59.04899999999999,12.762999999999982 59.10299999999999,12.762999999999982 59.16299999999999,12.761999999999983 C 60.44599999999999,12.801999999999982 61.18599999999999,13.215999999999983 61.77299999999999,13.979999999999983 C 62.39299999999999,14.783999999999983 62.81799999999999,16.156999999999982 62.81799999999999,17.80999999999998 C 62.81799999999999,19.46299999999998 62.392999999999994,20.833999999999982 61.77299999999999,21.63899999999998 C 61.24599999999999,22.319999999999983 60.54899999999999,22.66399999999998 59.50999999999999,22.770999999999983 C 58.99299999999999,22.531999999999982 58.410999999999994,22.471999999999984 57.85699999999999,22.596999999999984 C 56.64699999999999,22.867999999999984 55.80299999999999,23.966999999999985 55.85499999999999,25.206999999999983 L 55.85499999999999,25.293999999999983 C 55.83799999999999,26.16499999999998 56.26299999999999,26.982999999999983 56.98699999999999,27.469999999999985 C 57.04399999999999,27.502999999999986 57.100999999999985,27.530999999999985 57.16099999999999,27.557999999999986 C 57.530999999999985,27.774999999999984 57.94999999999999,27.894999999999985 58.37999999999999,27.905999999999985 C 58.03399999999999,27.926999999999985 58.12899999999999,27.992999999999984 58.98899999999999,27.992999999999984 C 61.79299999999999,27.992999999999984 64.27,26.724999999999984 65.77699999999999,24.772999999999985 C 67.28399999999999,22.819999999999986 67.95299999999999,20.338999999999984 67.95299999999999,17.809999999999985 C 67.95299999999999,15.280999999999985 67.284,12.801 65.777,10.85"/>
	<path d="M 30.485,11.59 C 31.329,10.437 31.073,8.82 29.919999999999998,7.978 L 4.071,-11.256 C 3.493,-11.672 2.768,-11.83 2.07,-11.691 C 0.7549999999999999,-11.449000000000002 -0.15400000000000036,-10.236 -0.019000000000000128,-8.906 L 3.4619999999999997,23.296 C 3.534,23.938 3.8449999999999998,24.525 4.332,24.948999999999998 C 12.706,31.988 22.01,38.33 30.79,44.793 C 31.927,45.641 33.534,45.412 34.385999999999996,44.275 C 34.778,43.751 34.956999999999994,43.095 34.88099999999999,42.442 C 34.026999999999994,36.078 33.501999999999995,29.447000000000003 32.791999999999994,22.86 C 32.647999999999996,21.439999999999998 31.382999999999996,20.41 29.963999999999995,20.553 C 28.543999999999997,20.698 27.512999999999995,21.962 27.656999999999996,23.382 C 28.145999999999997,27.924 28.635999999999996,32.531 29.135999999999996,37.133 C 22.09,32.037 14.945,26.979 8.51,21.642 L 5.638,-3.598 L 26.874000000000002,12.155000000000001 C 28.027,12.997 29.643,12.743 30.485,11.59"/>
	<path d="M 23.045,13.026 C 22.852,12.486 22.484,12.026 22.0,11.719999999999999 C 20.836,10.951999999999998 19.515,10.541999999999998 18.171,10.501999999999999 C 16.826999999999998,10.460999999999999 15.460999999999999,10.762999999999998 14.254,11.459 C 10.757,13.479 9.536,18.058999999999997 11.556,21.555 C 13.575999999999999,25.053 18.069,26.183999999999997 21.564999999999998,24.166 C 25.061999999999998,22.147 26.281,17.653 24.261999999999997,14.157 C 23.994,13.655 23.566,13.257 23.045,13.026 M 19.041,19.728 C 17.948,20.359 16.626,20.038 15.995000000000001,18.945 C 15.364,17.851 15.685,16.529 16.778000000000002,15.899000000000001 C 16.962000000000003,15.793000000000001 17.187,15.688 17.387,15.638000000000002 C 17.986,15.489000000000003 18.596,15.634000000000002 19.128,15.986000000000002 C 19.291,16.092000000000002 19.465,16.180000000000003 19.65,16.247000000000003 C 19.692999999999998,16.396000000000004 19.753999999999998,16.542000000000005 19.823999999999998,16.682000000000002 C 20.455,17.774 20.135,19.097 19.041,19.728"/>
</svg>
