<?xml version="1.0" ?>
<svg xmlns="http://www.w3.org/2000/svg" xmlns:cc="http://creativecommons.org/ns#" xmlns:dc="http://purl.org/dc/elements/1.1/" xmlns:ev="http://www.w3.org/2001/xml-events" xmlns:inkscape="http://www.inkscape.org/namespaces/inkscape" xmlns:rdf="http://www.w3.org/1999/02/22-rdf-syntax-ns#" xmlns:sodipodi="http://sodipodi.sourceforge.net/DTD/sodipodi-0.dtd" xmlns:svg="http://www.w3.org/2000/svg" xmlns:xlink="http://www.w3.org/1999/xlink" baseProfile="full" enable-background="new -33.495 -33.447 100 99.854" height="600px" version="1.1" viewBox="-33.495 -33.447 100 99.854" width="600px" x="0px" xml:space="preserve" y="0px">
	<defs/>
	<path d="M 14.152,-33.417 C 13.018999999999998,-33.226 12.116,-32.362 11.879999999999999,-31.240000000000002 C 11.828,-31.053 11.796999999999999,-30.863000000000003 11.784999999999998,-30.672 L 9.229,-21.394 C 8.192,-21.198999999999998 7.119999999999999,-21.002 6.104999999999999,-20.730999999999998 C 4.884999999999999,-20.401999999999997 3.7599999999999985,-19.927999999999997 2.6019999999999985,-19.499999999999996 L -5.255000000000002,-26.505999999999997 C -6.138000000000002,-27.304999999999996 -7.431000000000002,-27.456999999999997 -8.474000000000002,-26.883999999999997 C -11.699000000000002,-25.058999999999997 -14.684000000000001,-22.876999999999995 -17.373,-20.445999999999998 C -18.269000000000002,-19.63 -18.538,-18.328999999999997 -18.036,-17.226999999999997 L -13.586000000000002,-7.759999999999996 C -15.030000000000001,-6.016999999999996 -16.340000000000003,-4.145999999999996 -17.467000000000002,-2.173999999999996 L -28.07,-2.552999999999996 C -29.304000000000002,-2.596999999999996 -30.419,-1.825999999999996 -30.816,-0.658999999999996 C -32.096,2.754000000000004 -32.955,6.296000000000004 -33.467,9.944000000000004 C -33.641,11.172000000000004 -32.986,12.367000000000004 -31.857999999999997,12.879000000000005 L -22.485,17.233000000000004 C -22.457,19.470000000000006 -22.249,21.712000000000003 -21.822,23.955000000000005 L -30.153,30.582000000000004 C -31.108999999999998,31.313000000000006 -31.488,32.57000000000001 -31.099999999999998,33.706 C -29.852999999999998,37.229000000000006 -28.176,40.416000000000004 -26.272,43.457 C -25.633,44.478 -24.412999999999997,44.972 -23.241999999999997,44.688 L -13.206999999999997,42.037000000000006 C -11.738999999999997,43.74100000000001 -10.092999999999996,45.267 -8.377999999999997,46.67600000000001 L -10.555999999999997,57.18500000000001 C -10.778999999999998,58.345000000000006 -10.247999999999998,59.52200000000001 -9.229999999999997,60.12000000000001 C -6.087999999999997,61.97000000000001 -2.697999999999997,63.52800000000001 0.8050000000000033,64.66400000000002 C 1.9620000000000033,65.03400000000002 3.225000000000003,64.61100000000002 3.9290000000000034,63.62300000000002 L 9.892,55.1 C 12.126999999999999,55.473 14.404,55.597 16.708,55.574 L 21.628999999999998,64.946 C 22.203,66.0 23.383999999999997,66.573 24.564999999999998,66.366 C 26.108999999999998,66.103 27.637999999999998,65.84 29.203999999999997,65.42 C 31.226999999999997,64.879 33.184999999999995,64.19500000000001 35.07299999999999,63.432 C 36.23899999999999,62.994 36.971999999999994,61.834 36.87199999999999,60.592 L 35.83,48.757 C 35.699,47.216 34.345,46.07 32.801,46.201 C 31.259,46.331 30.114,47.686 30.244000000000003,49.230000000000004 L 30.244000000000003,49.230000000000004 L 31.097000000000005,58.886 C 29.996000000000006,59.277 28.925000000000004,59.717000000000006 27.784000000000006,60.022000000000006 C 27.061000000000007,60.217000000000006 26.325000000000006,60.34100000000001 25.606000000000005,60.496 L 20.873000000000005,51.597 C 20.341000000000005,50.651 19.308000000000003,50.094 18.222000000000005,50.177 C 15.119000000000005,50.364 12.084000000000005,50.071 9.136000000000005,49.42 C 8.016000000000005,49.159 6.852000000000005,49.609 6.201000000000004,50.556000000000004 L 0.6160000000000041,58.508 C -1.1729999999999958,57.830000000000005 -2.9019999999999957,57.044000000000004 -4.590999999999996,56.142 L -2.6029999999999958,46.391000000000005 C -2.4029999999999956,45.352000000000004 -2.8059999999999956,44.290000000000006 -3.6439999999999957,43.645 C -6.1009999999999955,41.823 -8.298999999999996,39.642 -10.175999999999995,37.207 C -10.875999999999994,36.332 -12.030999999999995,35.959 -13.110999999999995,36.261 L -22.387999999999995,38.722 C -23.340999999999994,37.054 -24.208999999999996,35.326 -24.943999999999996,33.515 L -17.180999999999997,27.362000000000002 C -16.342,26.678 -15.973999999999997,25.572000000000003 -16.233999999999998,24.522000000000002 C -16.965999999999998,21.439 -17.305999999999997,18.410000000000004 -17.180999999999997,15.434000000000003 C -17.170999999999996,14.341000000000003 -17.801,13.342000000000002 -18.79,12.878000000000004 L -27.499,8.712000000000003 C -27.144,6.815000000000003 -26.578999999999997,4.950000000000003 -25.983999999999998,3.1270000000000033 L -16.137999999999998,3.411000000000003 C -15.065999999999999,3.439000000000003 -14.072999999999999,2.850000000000003 -13.581999999999997,1.8960000000000032 C -12.217999999999996,-0.8169999999999968 -10.454999999999998,-3.3959999999999964 -8.374999999999996,-5.677999999999996 C -7.627999999999997,-6.503999999999996 -7.441999999999997,-7.692999999999996 -7.901999999999997,-8.706999999999997 L -11.972999999999995,-17.416999999999998 C -10.472999999999995,-18.657999999999998 -8.910999999999996,-19.778999999999996 -7.239999999999996,-20.825 L 0.05000000000000426,-14.293 C 0.8760000000000042,-13.543999999999999 2.0650000000000044,-13.357999999999999 3.080000000000004,-13.818999999999999 C 4.547000000000004,-14.446 6.015000000000004,-14.902 7.624000000000004,-15.334 C 9.047000000000004,-15.714 10.499000000000004,-16.096 11.884000000000004,-16.281 C 12.965000000000003,-16.441 13.853000000000003,-17.218999999999998 14.156000000000004,-18.269 L 16.712000000000003,-27.641 C 18.621000000000002,-27.61 20.500000000000004,-27.537 22.391000000000005,-27.262999999999998 L 23.811000000000007,-17.416999999999998 C 23.974000000000007,-16.334999999999997 24.75100000000001,-15.446999999999997 25.799000000000007,-15.144999999999998 C 28.72500000000001,-14.265999999999998 31.538000000000007,-13.000999999999998 34.13000000000001,-11.357999999999997 C 35.07600000000001,-10.719999999999997 36.31000000000001,-10.719999999999997 37.25400000000001,-11.357999999999997 L 45.11100000000001,-16.942999999999998 C 46.59600000000001,-15.685999999999998 47.97200000000001,-14.308999999999997 49.27600000000001,-12.871999999999998 L 44.16500000000001,-4.540999999999999 C 43.570000000000014,-3.6179999999999986 43.570000000000014,-2.4329999999999985 44.16500000000001,-1.5109999999999988 C 45.81500000000001,0.9980000000000011 47.18800000000002,3.733000000000001 48.14100000000001,6.725000000000001 C 48.460000000000015,7.8050000000000015 49.393000000000015,8.587000000000002 50.50800000000001,8.713000000000001 L 60.07000000000001,9.47 C 60.39200000000001,11.402000000000001 60.665000000000006,13.331000000000001 60.732000000000006,15.245000000000001 L 51.36000000000001,18.37 C 50.31900000000001,18.719 49.580000000000005,19.644000000000002 49.46600000000001,20.736 C 49.10900000000001,23.804000000000002 48.25900000000001,26.831 47.10000000000001,29.634999999999998 C 46.69200000000001,30.688 46.952000000000005,31.883 47.76200000000001,32.664 L 56.18800000000001,41.09 C 57.28900000000001,42.191 59.06700000000001,42.191 60.165000000000006,41.09 C 61.266000000000005,39.992000000000004 61.266000000000005,38.214000000000006 60.165000000000006,37.11300000000001 L 52.78000000000001,29.824000000000005 C 53.54400000000001,27.681000000000004 54.10600000000001,25.460000000000004 54.48400000000001,23.197000000000006 L 64.519,19.884000000000007 C 65.662,19.540000000000006 66.45700000000001,18.517000000000007 66.507,17.32700000000001 C 66.539,13.724000000000009 66.152,9.998000000000008 65.37100000000001,6.346000000000009 C 65.11000000000001,5.164000000000009 64.11600000000001,4.28400000000001 62.909000000000006,4.169000000000009 L 52.586,3.221 C 51.778,1.076 50.788,-0.915 49.650999999999996,-2.838 L 55.236999999999995,-11.925999999999998 C 55.864,-12.929999999999998 55.78699999999999,-14.218999999999998 55.047999999999995,-15.144999999999998 C 52.690999999999995,-17.996999999999996 49.958999999999996,-20.491 47.096,-22.717999999999996 C 46.13099999999999,-23.470999999999997 44.788,-23.509999999999998 43.782999999999994,-22.810999999999996 L 35.26199999999999,-16.847999999999995 C 33.32999999999999,-17.939999999999994 31.309999999999995,-18.930999999999997 29.202999999999992,-19.687999999999995 L 27.68799999999999,-30.195999999999994 C 27.52199999999999,-31.392999999999994 26.604999999999993,-32.34799999999999 25.415999999999993,-32.562999999999995 C 21.889999999999993,-33.217 18.173999999999992,-33.550999999999995 14.435999999999993,-33.41499999999999 C 14.341,-33.421 14.247,-33.421 14.152,-33.417"/>
	<path d="M 18.979,-1.04 C 16.576999999999998,-1.377 14.078999999999999,-1.325 11.596,-0.661 C 1.663,2.002 -4.225,12.318 -1.563,22.249 C 1.098,32.184 11.319999999999999,38.166 21.251,35.503 C 22.76,35.184 23.727,33.704 23.41,32.195 C 23.091,30.683 21.605,29.719 20.097,30.036 C 20.008000000000003,30.057000000000002 19.919,30.080000000000002 19.830000000000002,30.107000000000003 C 12.822000000000003,31.985000000000003 5.710000000000003,27.837000000000003 3.833000000000002,20.829 C 1.954,13.824 6.101,6.614 13.11,4.735 C 20.119999999999997,2.8580000000000005 27.232,7.006 29.107999999999997,14.013000000000002 C 30.019,17.403000000000002 29.528,20.811 27.971999999999998,23.669000000000004 C 27.214,25.030000000000005 27.701999999999998,26.746000000000002 29.06,27.504000000000005 C 30.421,28.261000000000006 32.137,27.775000000000006 32.894999999999996,26.415000000000006 C 35.111,22.353000000000005 35.793,17.399000000000008 34.504,12.593000000000007 C 32.511,5.144 26.191,-0.025 18.979,-1.04"/>
</svg>
