<?xml version="1.0" ?>
<svg xmlns="http://www.w3.org/2000/svg" xmlns:cc="http://creativecommons.org/ns#" xmlns:dc="http://purl.org/dc/elements/1.1/" xmlns:ev="http://www.w3.org/2001/xml-events" xmlns:inkscape="http://www.inkscape.org/namespaces/inkscape" xmlns:rdf="http://www.w3.org/1999/02/22-rdf-syntax-ns#" xmlns:sodipodi="http://sodipodi.sourceforge.net/DTD/sodipodi-0.dtd" xmlns:svg="http://www.w3.org/2000/svg" xmlns:xlink="http://www.w3.org/1999/xlink" baseProfile="full" enable-background="new -29.036 -33.625 86.355 100" height="600px" version="1.1" viewBox="-29.036 -33.625 86.355 100" width="519px" x="0px" xml:space="preserve" y="0px">
	<defs/>
	<path d="M 33.559,-33.622 C 33.064,-33.639 32.617,-33.581 32.126999999999995,-33.527 C 30.164999999999996,-33.308 28.307999999999996,-32.575 26.688999999999997,-31.523 C 23.453999999999997,-29.419 20.807999999999996,-26.212 18.482999999999997,-22.935000000000002 C 16.159999999999997,-19.658 14.227999999999998,-16.310000000000002 12.758999999999997,-13.775000000000002 C 12.522999999999996,-13.370000000000003 12.394999999999996,-13.177000000000001 12.185999999999996,-12.821000000000002 C 11.948999999999996,-13.213000000000001 11.786999999999995,-13.421000000000001 11.517999999999997,-13.871000000000002 C 9.978999999999997,-16.447000000000003 7.890999999999997,-19.884 5.506999999999997,-23.126000000000005 C 3.122999999999997,-26.370000000000005 0.4889999999999972,-29.425000000000004 -2.794000000000003,-31.332000000000004 C -6.078000000000003,-33.239000000000004 -10.502000000000002,-33.626000000000005 -14.053000000000004,-30.950000000000003 C -18.490000000000006,-27.608000000000004 -20.517000000000003,-23.262000000000004 -20.064000000000004,-19.118000000000002 C -19.612000000000002,-14.974000000000002 -17.139000000000003,-11.344000000000001 -14.148000000000003,-8.240000000000002 C -11.736000000000004,-5.737000000000002 -8.933000000000003,-3.7840000000000016 -6.133000000000003,-1.9430000000000023 L -26.266000000000002,-1.9430000000000023 C -27.821,-1.9160000000000024 -29.060000000000002,-0.6350000000000022 -29.033,0.9199999999999977 L -29.033,23.913999999999998 C -29.008000000000003,25.435 -27.783,26.656999999999996 -26.266000000000002,26.682 L 5.412,26.682 C 6.965,26.711 8.247,25.471 8.274000000000001,23.913999999999998 L 8.274000000000001,11.606 C 8.305000000000001,10.051 7.071000000000001,8.764 5.518000000000001,8.733 C 3.963,8.701 2.676,9.935 2.645,11.49 C 2.644,11.529 2.644,11.568 2.645,11.606 L 2.645,21.051000000000002 L -23.404,21.051000000000002 L -23.404,3.687 L 5.793,3.687 C 7.347,3.652 8.58,2.366 8.547,0.811 C 8.521,-0.44 7.669,-1.524 6.461,-1.848 C 3.513,-2.524 -5.142,-6.964 -10.141,-12.152 C -12.641,-14.745999999999999 -14.193,-17.475 -14.434999999999999,-19.689999999999998 C -14.675999999999998,-21.906 -14.062999999999999,-23.939999999999998 -10.713,-26.464999999999996 C -8.818,-27.892999999999997 -7.710999999999999,-27.656999999999996 -5.655999999999999,-26.464999999999996 C -3.602999999999999,-25.271999999999995 -1.1419999999999986,-22.729999999999997 1.0230000000000015,-19.785999999999994 C 3.1860000000000013,-16.840999999999994 5.108000000000001,-13.592999999999995 6.652000000000001,-11.006999999999994 C 7.423000000000001,-9.714999999999995 8.055000000000001,-8.557999999999995 8.656,-7.667999999999994 C 8.956000000000001,-7.223999999999994 9.248000000000001,-6.823999999999994 9.610000000000001,-6.426999999999994 C 9.971000000000002,-6.030999999999994 10.184000000000001,-5.220999999999995 12.091000000000001,-5.186999999999994 C 13.983,-5.153999999999994 14.299000000000001,-6.0259999999999945 14.667000000000002,-6.426999999999994 C 15.034000000000002,-6.829999999999995 15.329000000000002,-7.227999999999994 15.621000000000002,-7.667999999999994 C 16.204,-8.546999999999993 16.884,-9.636999999999993 17.623,-10.911999999999994 C 19.102,-13.462999999999994 20.945,-16.703999999999994 23.062,-19.689999999999994 C 25.179000000000002,-22.675999999999995 27.561,-25.332999999999995 29.741,-26.750999999999994 C 31.924,-28.168999999999993 33.463,-28.491999999999994 35.467,-27.418999999999993 C 39.275,-25.381999999999994 39.844,-23.77799999999999 39.665,-21.788999999999994 C 39.489,-19.799999999999994 37.763,-16.986999999999995 35.085,-14.155999999999995 C 29.733,-8.496 20.695,-3.107 17.433,-1.752 C 15.984,-1.1909999999999998 15.261,0.43799999999999994 15.823,1.889 C 16.259,3.019 17.368000000000002,3.7439999999999998 18.579,3.6870000000000003 L 51.688,3.6870000000000003 L 51.688,13.229 C 51.659,14.783999999999999 52.893,16.069 54.447,16.102 C 56.0,16.133 57.288000000000004,14.9 57.318000000000005,13.345 C 57.318000000000005,13.306000000000001 57.318000000000005,13.268 57.318000000000005,13.229000000000001 L 57.318000000000005,0.92 C 57.34400000000001,-0.6349999999999999 56.107000000000006,-1.916 54.550000000000004,-1.943 C 54.521,-1.943 54.48800000000001,-1.943 54.455000000000005,-1.943 L 29.169,-1.943 C 32.616,-4.2780000000000005 36.189,-7.07 39.188,-10.244 C 42.301,-13.535 44.830000000000005,-17.142 45.2,-21.311999999999998 C 45.57,-25.482 43.059000000000005,-29.696999999999996 38.044000000000004,-32.381 C 36.594,-33.158 35.043,-33.574 33.559,-33.622"/>
	<path d="M 21.441,8.744 C 20.116999999999997,9.042 19.192999999999998,10.246 19.247,11.606 L 19.247,23.913 C 19.273,25.47 20.556,26.71 22.109,26.681 L 51.688,26.681 L 51.688,37.463 L 22.109,37.463 C 20.555000000000003,37.439 19.273000000000003,38.677 19.247,40.230000000000004 C 19.247,40.263000000000005 19.247,40.29600000000001 19.247,40.326 L 19.247,53.97 C 19.217,55.527 20.451,56.812 22.005,56.845 C 23.558999999999997,56.874 24.846999999999998,55.643 24.875999999999998,54.089 C 24.875999999999998,54.048 24.875999999999998,54.012 24.875999999999998,53.97 L 24.875999999999998,43.093 L 54.455999999999996,43.093 C 56.013,43.12200000000001 57.294,41.882000000000005 57.318,40.325 L 57.318,23.914 C 57.344,22.360000000000003 56.107,21.082 54.55,21.052 C 54.520999999999994,21.052 54.488,21.052 54.455,21.052 L 24.875,21.052 L 24.875,11.607 C 24.911,10.052 23.683,8.761999999999999 22.129,8.725 C 21.995,8.722 21.860000000000003,8.728 21.727,8.745 C 21.631,8.739 21.536,8.739 21.441,8.744"/>
	<path d="M -26.839,30.975 C -28.165999999999997,31.273 -29.09,32.478 -29.032999999999998,33.837 L -29.032999999999998,40.325 C -29.008,41.846000000000004 -27.782999999999998,43.068000000000005 -26.266,43.093 L 2.645,43.093 L 2.645,53.97 C 2.612,55.527 3.847,56.812 5.401,56.845 C 6.955,56.874 8.241,55.643 8.274000000000001,54.089 C 8.274000000000001,54.048 8.274000000000001,54.012 8.274000000000001,53.97 L 8.274000000000001,40.326 C 8.299000000000001,38.772 7.061000000000001,37.493 5.505000000000001,37.464 C 5.474000000000001,37.464 5.4430000000000005,37.464 5.4110000000000005,37.464 L -23.404999999999998,37.464 L -23.404999999999998,33.838 C -23.368999999999996,32.284 -24.598999999999997,30.993000000000002 -26.153,30.957 C -26.287,30.954 -26.421999999999997,30.96 -26.554,30.976 C -26.648,30.972 -26.744,30.972 -26.839,30.975"/>
	<path d="M -26.553,47.959 C -27.995,48.132000000000005 -29.07,49.372 -29.034,50.821000000000005 L -29.034,63.607000000000006 C -29.009,65.128 -27.784,66.35000000000001 -26.267,66.37400000000001 L 54.455,66.37400000000001 C 56.012,66.40400000000001 57.293,65.16400000000002 57.317,63.607000000000006 L 57.317,50.822 C 57.35,49.268 56.115,47.983000000000004 54.562,47.951 C 53.004999999999995,47.918 51.72,49.152 51.687,50.709 C 51.687,50.745000000000005 51.687,50.786 51.687,50.822 L 51.687,60.746 L -23.405,60.746 L -23.405,50.822 C -23.380000000000003,49.268 -24.618000000000002,47.989000000000004 -26.174,47.96 C -26.205,47.96 -26.236,47.96 -26.268,47.96 C -26.362,47.957 -26.458,47.957 -26.553,47.959"/>
</svg>
