<?xml version="1.0" ?>
<svg xmlns="http://www.w3.org/2000/svg" xmlns:ev="http://www.w3.org/2001/xml-events" xmlns:graph="http://ns.adobe.com/Graphs/1.0/" xmlns:i="http://ns.adobe.com/AdobeIllustrator/10.0/" xmlns:x="http://ns.adobe.com/Extensibility/1.0/" xmlns:xlink="http://www.w3.org/1999/xlink" baseProfile="full" enable-background="new 0 0 100 100" height="600px" version="1.1" viewBox="0 0 100 100" width="542px" x="0px" xml:space="preserve" y="0px">
	<defs/>
	<path d="M 42.1,50.845 L 48.192,56.714999999999996 C 48.949,53.175 51.908,50.45399999999999 55.567,50.053999999999995 L 48.916,43.635999999999996 C 48.43,47.264 45.663,50.166 42.1,50.845"/>
	<path d="M 32.171,44.205 L 20.139,56.412 C 18.242,58.357 18.28,61.472 20.224,63.368 C 21.181,64.302 22.42,64.767 23.659,64.767 C 24.938,64.767 26.215999999999998,64.193 27.18,63.206999999999994 L 39.172,50.88499999999999 C 35.67,50.335 32.874,47.655 32.171,44.205"/>
	<path d="M 89.246,52.0 L 79.67099999999999,52.0 L 74.192,46.764 L 74.933,46.0 L 85.96700000000001,46.0 C 88.68400000000001,46.0 90.88700000000001,44.216 90.88700000000001,41.5 C 90.88700000000001,38.784 88.68400000000001,37.0 85.96700000000001,37.0 L 72.849,37.0 C 71.518,37.0 70.372,37.077 69.447,38.032 L 67.325,40.199999999999996 L 58.127,31.409999999999997 L 58.527,30.998999999999995 L 74.49,30.998999999999995 C 76.05499999999999,30.998999999999995 77.53,30.372999999999994 78.454,29.110999999999997 L 92.598,9.965 C 94.204,7.775 93.735,4.782 91.54299999999999,3.1739999999999995 C 89.353,1.5679999999999994 86.276,2.2099999999999995 84.666,4.401 L 71.998,22.0 L 56.453,22.0 C 55.127,22.0 53.858000000000004,22.194 52.932,23.142 L 51.253,24.845 L 47.0,20.779 L 47.0,4.919 C 47.0,2.202 44.217,0.0 41.5,0.0 C 38.784,0.0 36.0,2.202 36.0,4.919 L 36.0,22.955000000000002 C 36.0,24.342000000000002 36.974,25.496000000000002 38.0,26.429000000000002 L 44.213,31.989 L 42.08,34.153 C 45.513,34.799 48.213,37.506 48.851,40.942 L 51.35,38.375 L 60.819,46.848 L 57.648,50.086999999999996 C 61.13,50.55799999999999 63.937000000000005,53.132999999999996 64.75200000000001,56.494 L 67.93400000000001,53.215 L 74.46100000000001,59.056000000000004 C 75.366,59.879 76.546,60.0 77.769,60.0 L 89.247,60.0 C 91.964,60.0 94.167,58.716 94.167,56.0 C 94.167,53.284 91.963,52.0 89.246,52.0"/>
	<path d="M 39.064,34.13 L 23.796,19.396 C 22.879,18.511 21.654,18.0 20.38,18.0 L 8.902,18.0 C 6.185999999999999,18.0 3.9829999999999997,20.284 3.9829999999999997,23.0 C 3.9829999999999997,25.717 6.186,28.0 8.902,28.0 L 18.394,28.0 L 32.107,41.215 C 32.657,37.603 35.473,34.743 39.064,34.13"/>
	<path d="M 64.969,59.126 C 64.698,62.818999999999996 62.07299999999999,65.851 58.584999999999994,66.731 L 75.17399999999999,82.717 C 76.12799999999999,83.638 77.36099999999999,84.032 78.58999999999999,84.032 C 79.877,84.032 81.16399999999999,83.52499999999999 82.12899999999999,82.52499999999999 C 84.017,80.56899999999999 83.96099999999998,77.44999999999999 82.00299999999999,75.56299999999999 L 64.969,59.126"/>
	<path d="M 48.023,73.733 L 54.737,66.81400000000001 C 51.315000000000005,66.09100000000001 48.661,63.31000000000001 48.113,59.82800000000001 L 37.803,70.361 C 35.918,72.309 36.217999999999996,75.412 38.156,77.304 L 46.0,84.466 L 46.0,95.103 C 46.0,97.818 47.783,100.021 50.5,100.021 C 53.218,100.021 55.0,97.818 55.0,95.103 L 55.0,82.395 C 55.0,81.069 54.371,79.822 53.424,78.896 L 48.023,73.733"/>
	<path cx="40.5" cy="42.517" d="M 35.4,42.517 A 5.1,5.1 0.0 1,0 45.599999999999994,42.517 A 5.1000000000000005,5.1000000000000005 0.0 1,0 35.39999999999999,42.517" r="5.1"/>
	<path cx="56.5" cy="58.517" d="M 51.399,58.517 A 5.101,5.101 0.0 1,0 61.601,58.517 A 5.101,5.101 0.0 1,0 51.399,58.517" r="5.101"/>
</svg>
