<?xml version="1.0" ?>
<svg xmlns="http://www.w3.org/2000/svg" xmlns:ev="http://www.w3.org/2001/xml-events" xmlns:xlink="http://www.w3.org/1999/xlink" baseProfile="full" enable-background="new 0 0 100 100" height="600px" version="1.1" viewBox="0 0 100 100" width="600px" x="0px" xml:space="preserve" y="0px">
	<defs/>
	<path d="M 50.153,0.257 C 22.583,0.257 0.1529999999999987,22.687 0.1529999999999987,50.257 C 0.1529999999999987,77.828 22.584,100.257 50.153,100.257 C 77.722,100.257 100.152,77.828 100.152,50.257000000000005 C 100.152,22.687 77.723,0.257 50.153,0.257 M 89.742,50.257 C 89.742,56.946999999999996 88.06700000000001,63.251999999999995 85.125,68.782 L 65.194,55.803 C 65.83200000000001,54.074 66.18,52.206999999999994 66.18,50.257999999999996 C 66.18,42.63099999999999 60.85000000000001,36.25299999999999 53.714000000000006,34.632999999999996 L 53.714000000000006,10.837 C 73.88,12.645 89.742,29.63 89.742,50.257 M 46.591,10.837 L 46.591,34.632000000000005 C 39.455,36.25300000000001 34.125,42.63100000000001 34.125,50.257000000000005 C 34.125,52.20700000000001 34.476,54.074000000000005 35.112,55.80200000000001 L 15.181,68.782 C 12.239999999999998,63.251999999999995 10.565999999999999,56.946999999999996 10.565999999999999,50.257 C 10.565,29.63 26.426,12.645 46.591,10.837 M 50.153,89.846 C 37.563,89.846 26.337,83.932 19.081,74.74300000000001 L 39.006,61.76700000000001 C 41.891,64.56000000000002 45.819,66.284 50.153,66.284 C 54.485,66.284 58.415,64.56 61.3,61.767 L 81.225,74.74300000000001 C 73.971,83.932 62.741,89.846 50.153,89.846" fill="#000000"/>
</svg>
