<?xml version="1.0" ?>
<svg xmlns="http://www.w3.org/2000/svg" xmlns:ev="http://www.w3.org/2001/xml-events" xmlns:xlink="http://www.w3.org/1999/xlink" baseProfile="full" enable-background="new 0 0 100 100" height="600px" version="1.1" viewBox="0 0 100 100" width="215px" x="0px" xml:space="preserve" y="0px">
	<defs/>
	<path d="M 46.619,8.526 C 45.719,8.397 45.025,7.664 45.025,6.776 C 45.025,6.133 45.41,5.567 45.976,5.2459999999999996 C 45.41,4.949 45.025,4.3709999999999996 45.025,3.7159999999999993 C 45.025,2.736999999999999 45.847,1.9649999999999994 46.876,1.9649999999999994 L 56.14,1.9649999999999994 C 57.168,1.9649999999999994 57.993,2.736999999999999 57.993,3.7159999999999993 C 57.993,4.398 57.606,4.9639999999999995 57.014,5.2459999999999996 C 57.580000000000005,5.555999999999999 57.993,6.106999999999999 57.993,6.776 C 57.993,7.664 57.324000000000005,8.397 56.423,8.513 L 67.64,37.372 C 68.336,39.25 68.696,41.336 68.696,43.407 L 68.696,94.535 C 68.696,96.465 67.05,98.035 65.01599999999999,98.035 L 38.024,98.035 C 35.964,98.035 34.345,96.465 34.345,94.535 L 34.345,43.404999999999994 C 34.345,41.333999999999996 34.679,39.24999999999999 35.373,37.37199999999999 L 46.619,8.526" fill="#000000"/>
</svg>
