<?xml version="1.0" ?>
<svg xmlns="http://www.w3.org/2000/svg" xmlns:ev="http://www.w3.org/2001/xml-events" xmlns:xlink="http://www.w3.org/1999/xlink" baseProfile="full" enable-background="new 0 0 100 100" height="600px" version="1.1" viewBox="0 0 100 100" width="364px" x="0px" xml:space="preserve" y="0px">
	<defs/>
	<path d="M 69.231,64.095 C 66.80999999999999,64.095 64.58399999999999,63.163 62.922,61.495999999999995 C 61.244,63.144 58.968999999999994,64.095 56.57899999999999,64.095 C 54.15299999999999,64.095 51.86099999999999,63.108 50.17999999999999,61.418 C 48.46399999999999,63.071 46.00299999999999,64.095 43.510999999999996,64.095 C 41.123,64.095 38.846999999999994,63.144999999999996 37.172,61.495999999999995 C 35.510999999999996,63.163 33.284,64.095 30.864999999999995,64.095 C 28.609999999999996,64.095 26.465999999999994,63.248 24.823999999999995,61.772 C 21.698999999999995,77.958 34.157,92.332 50.00099999999999,92.332 C 65.81799999999998,92.332 78.261,78.005 75.19099999999999,61.85199999999999 C 73.561,63.282 71.446,64.095 69.231,64.095" fill="#000000"/>
	<path d="M 56.58,61.556 C 58.690999999999995,61.556 60.677,60.394999999999996 61.893,58.668 C 62.133,58.33 62.52,58.0 62.933,58.0 C 62.934,58.0 62.936,58.0 62.937,58.0 C 63.351,58.0 63.739,58.334 63.974999999999994,58.674 C 65.19099999999999,60.422 67.10799999999999,61.49 69.232,61.49 C 71.298,61.49 73.235,60.53 74.457,58.871 C 74.00099999999999,57.38 73.425,55.899 72.69,54.399 C 63.127,34.916 60.078,29.174 50.001,7.654 C 40.756,28.36 36.872,34.93 27.312,54.414 C 26.59,55.883 26.024,57.353 25.572000000000003,58.817 C 26.790000000000003,60.53 28.762000000000004,61.554 30.866000000000003,61.554 C 32.988,61.554 34.904,60.551 36.121,58.803000000000004 C 36.358000000000004,58.462 36.72,58.232000000000006 37.164,58.258 C 37.576,58.258 37.963,58.459 38.201,58.797000000000004 C 39.42,60.523 41.405,61.55500000000001 43.512,61.55500000000001 C 45.728,61.55500000000001 47.994,60.431000000000004 49.152,58.75800000000001 C 49.169000000000004,58.73400000000001 49.19,58.71400000000001 49.209,58.69200000000001 C 49.23800000000001,58.65700000000001 49.265,58.61900000000001 49.29900000000001,58.58800000000001 C 49.336000000000006,58.55000000000001 49.37500000000001,58.519000000000005 49.416000000000004,58.48600000000001 C 49.435,58.47100000000001 49.452000000000005,58.45300000000001 49.473000000000006,58.43700000000001 C 49.47800000000001,58.43400000000001 49.48500000000001,58.43200000000001 49.49000000000001,58.42900000000001 C 49.534000000000006,58.39800000000001 49.58300000000001,58.37400000000001 49.63100000000001,58.34900000000001 C 49.66000000000001,58.33500000000001 49.68600000000001,58.31800000000001 49.714000000000006,58.30700000000001 C 49.75600000000001,58.28900000000001 49.800000000000004,58.27900000000001 49.843,58.26700000000001 C 49.879000000000005,58.25600000000001 49.915000000000006,58.24200000000001 49.951,58.235000000000014 C 49.993,58.22700000000001 50.034,58.22600000000001 50.076,58.222000000000016 C 50.116,58.21800000000002 50.154,58.21200000000002 50.192,58.21200000000002 C 50.236,58.21200000000002 50.281,58.21800000000002 50.326,58.225000000000016 C 50.362,58.22700000000002 50.399,58.228000000000016 50.434,58.235000000000014 C 50.476,58.243000000000016 50.518,58.25700000000001 50.559,58.271000000000015 C 50.596,58.28200000000002 50.634,58.29100000000002 50.671,58.305000000000014 C 50.705999999999996,58.31800000000001 50.739,58.33900000000001 50.774,58.35800000000001 C 50.815,58.378000000000014 50.857,58.39900000000001 50.896,58.424000000000014 C 50.903,58.429000000000016 50.911,58.432000000000016 50.918,58.43700000000001 C 50.944,58.45500000000001 50.964999999999996,58.47900000000001 50.99,58.49800000000001 C 51.024,58.52600000000001 51.057,58.552000000000014 51.089,58.58300000000001 C 51.125,58.61800000000001 51.155,58.65900000000001 51.187,58.69600000000001 C 51.204,58.71800000000001 51.223,58.73600000000001 51.238,58.75800000000001 C 52.453,60.51 54.449,61.556 56.58,61.556" fill="#000000"/>
</svg>
