<?xml version="1.0" ?>
<svg xmlns="http://www.w3.org/2000/svg" xmlns:ev="http://www.w3.org/2001/xml-events" xmlns:xlink="http://www.w3.org/1999/xlink" baseProfile="full" enable-background="new 0 0 100 68.161" height="410px" version="1.1" viewBox="0 0 100 68.161" width="600px" x="0px" xml:space="preserve" y="0px">
	<defs/>
	<path d="M 92.127,63.481 L 77.742,63.481 L 79.16000000000001,52.959 L 83.58900000000001,53.557 L 86.82800000000002,29.519000000000002 L 84.17800000000001,25.297 L 83.283,11.22 C 83.283,11.22 82.744,7.256 79.371,6.803000000000001 L 29.186,0.039 C 25.813,-0.41600000000000004 24.242,3.2630000000000003 24.242,3.2630000000000003 L 19.655,16.6 L 15.979000000000001,19.968 L 12.738000000000001,44.006 L 16.534000000000002,44.518 L 15.092000000000002,55.222 L 24.159000000000002,56.443 L 25.602000000000004,45.741 L 70.09200000000001,51.738 L 68.65,62.44 L 76.375,63.480999999999995 L 54.893,63.480999999999995 L 54.893,56.458999999999996 L 0.0,56.458999999999996 L 0.0,68.161 L 100.0,68.161 L 92.127,63.481 M 47.114,19.656 C 46.525,18.433 45.590999999999994,17.14 44.144999999999996,16.465999999999998 C 42.56999999999999,15.729999999999997 41.885,14.449999999999998 41.596999999999994,13.332999999999998 C 42.20399999999999,12.639 42.64399999999999,11.684999999999999 42.791,10.592999999999998 C 43.113,8.205999999999998 41.910999999999994,6.072999999999999 40.105999999999995,5.829999999999998 C 38.3,5.5859999999999985 36.57599999999999,7.324999999999998 36.254999999999995,9.711999999999998 C 36.05499999999999,11.189999999999998 36.44,12.567999999999998 37.18899999999999,13.462999999999997 L 36.90899999999999,14.415999999999997 C 36.90899999999999,14.415999999999997 35.559999999999995,14.139999999999997 33.76999999999999,14.404999999999998 C 33.804999999999986,13.722999999999997 33.70299999999999,13.008999999999997 33.04199999999999,13.420999999999998 C 33.04199999999999,13.420999999999998 32.46599999999999,13.000999999999998 32.34099999999999,13.536999999999997 C 32.34099999999999,13.536999999999997 31.744999999999987,13.059999999999997 31.639999999999986,13.652999999999997 C 31.639999999999986,13.652999999999997 30.959999999999987,13.402999999999997 30.883999999999986,13.973999999999997 C 30.883999999999986,13.973999999999997 29.712999999999987,14.980999999999996 29.490999999999985,16.168999999999997 C 29.121999999999986,16.448999999999998 28.761999999999986,16.769999999999996 28.414999999999985,17.135999999999996 L 25.009999999999984,16.676999999999996 L 26.856999999999985,2.9709999999999965 L 79.78199999999998,10.104999999999997 L 77.93599999999998,23.810999999999996 L 47.114,19.656"/>
</svg>
