<?xml version="1.0" ?>
<svg xmlns="http://www.w3.org/2000/svg" xmlns:ev="http://www.w3.org/2001/xml-events" xmlns:xlink="http://www.w3.org/1999/xlink" baseProfile="full" enable-background="new 0 0 100 76.846" height="462px" version="1.1" viewBox="0 0 100 76.846" width="600px" x="0px" xml:space="preserve" y="0px">
	<defs/>
	<path d="M 14.958,0.0 L 14.958,26.228 L 36.987,43.85 L 49.795,33.605000000000004 L 62.603,43.85 L 84.632,26.228 L 84.632,0.0 L 14.958,0.0 M 24.209,6.147 L 39.577,6.147 L 39.577,8.709 L 24.209,8.709 L 24.209,6.147 M 65.164,27.664 L 24.18,27.664 L 24.18,24.591 L 65.164,24.591 L 65.164,27.664 M 65.164,21.517 L 24.18,21.517 L 24.18,18.442999999999998 L 65.164,18.442999999999998 L 65.164,21.517 M 65.164,15.369 L 24.18,15.369 L 24.18,12.295 L 65.164,12.295 L 65.164,15.369"/>
	<path d="M 66.703,47.132 L 100.0,20.494 L 100.0,73.77 L 66.703,47.132" points="66.703,47.132 100,20.494 100,73.77    "/>
	<path d="M 33.298,47.132 L 0.0,20.494 L 0.0,73.77 L 33.298,47.132" points="33.298,47.132 0,20.494 0,73.77    "/>
	<path d="M 3.945,76.846 L 49.795,40.166 L 95.644,76.846 L 3.945,76.846" points="3.945,76.846 49.795,40.166 95.644,76.846    "/>
	<path d="M 88.729,15.369 L 88.729,23.236 L 98.564,15.369 L 88.729,15.369" points="88.729,15.369 88.729,23.236 98.564,15.369   "/>
	<path d="M 10.859,15.369 L 1.024,15.369 L 10.859,23.236 L 10.859,15.369" points="10.859,15.369 1.024,15.369 10.859,23.236   "/>
</svg>
