<?xml version="1.0" ?>
<svg xmlns="http://www.w3.org/2000/svg" xmlns:ev="http://www.w3.org/2001/xml-events" xmlns:xlink="http://www.w3.org/1999/xlink" baseProfile="full" enable-background="new 0 0 84.06 100" height="600px" version="1.1" viewBox="0 0 84.06 100" width="505px" x="0px" xml:space="preserve" y="0px">
	<defs/>
	<path clip-rule="evenodd" d="M 72.739,36.176 L 72.739,46.843 C 72.739,52.068000000000005 71.521,57.223000000000006 69.32000000000001,61.956 C 68.587,63.534000000000006 67.739,65.06700000000001 66.76100000000001,66.507 C 64.95200000000001,69.167 62.97200000000001,71.727 61.62500000000001,74.664 C 60.27100000000001,77.623 59.49900000000001,80.846 59.49900000000001,84.105 L 59.49900000000001,92.325 L 46.267,92.325 L 46.267,84.105 C 46.267,80.519 46.783,76.93 47.784000000000006,73.485 C 48.693000000000005,70.368 49.986000000000004,67.3 51.825,64.614 C 52.736000000000004,63.285000000000004 53.785000000000004,62.050000000000004 54.801,60.81 C 55.709,59.705000000000005 56.566,58.59 57.187000000000005,57.301 C 58.788000000000004,54.010000000000005 59.346000000000004,50.345 59.371,46.712 L 59.444,36.175000000000004 L 51.764,38.696000000000005 C 51.517,38.798 51.304,38.867000000000004 51.037000000000006,38.886 C 50.07900000000001,38.963 49.12200000000001,38.481 48.601000000000006,37.674 C 48.15800000000001,36.971 48.059000000000005,36.065 48.321000000000005,35.284 C 48.458000000000006,34.875 48.68000000000001,34.663 48.915000000000006,34.323 L 65.988,9.7 L 83.332,34.391999999999996 C 83.768,35.013 84.02399999999999,35.230999999999995 84.056,35.964 C 84.107,37.007 83.76599999999999,37.876999999999995 82.874,38.476 C 82.307,38.858 81.631,38.96 80.96799999999999,38.858 C 80.77699999999999,38.827 80.66699999999999,38.76 80.48799999999999,38.699 L 72.739,36.176" fill-rule="evenodd"/>
	<path clip-rule="evenodd" d="M 26.413,73.514 L 34.16,71.008 C 34.498,70.886 34.672,70.806 35.022999999999996,70.806 C 36.01,70.806 36.766999999999996,71.12599999999999 37.342,71.952 C 37.855,72.684 37.937999999999995,73.66199999999999 37.615,74.487 C 37.474000000000004,74.84899999999999 37.292,75.00699999999999 37.077000000000005,75.30699999999999 L 19.663,100.0 L 2.645,75.374 C 2.481,75.134 2.101,74.673 1.99,74.317 C 1.907,74.05799999999999 1.855,73.78399999999999 1.85,73.51299999999999 C 1.8430000000000002,72.40299999999999 2.566,71.466 3.548,71.02499999999999 C 3.972,70.83 4.389,70.76599999999999 4.838,70.84799999999998 C 5.046,70.88499999999999 5.248,70.89799999999998 5.434,71.00699999999999 L 13.174,73.51299999999999 L 13.113999999999999,62.986999999999995 C 13.101999999999999,60.52199999999999 12.826999999999998,58.056 12.139,55.68899999999999 C 11.601999999999999,53.82899999999999 10.825999999999999,51.98799999999999 9.645,50.43699999999999 C 8.6,49.06099999999999 7.468,47.74499999999999 6.406,46.37999999999999 C 5.507,45.21799999999999 4.715,43.96699999999999 4.047,42.66599999999999 C 1.351,37.433 0.0,31.523 0.0,25.653 L 0.0,17.383 L 13.24,17.383 L 13.24,25.653 C 13.24,30.195999999999998 14.725,34.719 17.256,38.48 C 18.246,39.949 19.286,41.385999999999996 20.278,42.852999999999994 C 21.339,44.422999999999995 22.27,46.08299999999999 23.057,47.80499999999999 C 25.244,52.54699999999999 26.412999999999997,57.70499999999999 26.412999999999997,62.92499999999999 L 26.412999999999997,73.514" fill-rule="evenodd"/>
	<path clip-rule="evenodd" d="M 48.682,0.0 C 48.622,2.531 48.559000000000005,5.063 48.39,7.59 C 48.033,12.957 47.192,18.284 45.864000000000004,23.493000000000002 C 44.784000000000006,27.720000000000002 43.666000000000004,32.011 41.806000000000004,35.976 C 41.62500000000001,36.366 41.407000000000004,36.743 41.168000000000006,37.1 C 40.157000000000004,38.589 38.794000000000004,39.518 37.026,39.887 C 35.300000000000004,40.245 33.483000000000004,39.771 32.053000000000004,38.759 C 31.047000000000004,38.045 30.331000000000003,36.979 29.861000000000004,35.846000000000004 C 28.403000000000006,32.309000000000005 27.323000000000004,28.620000000000005 26.392000000000003,24.914 C 24.948000000000004,19.182000000000002 23.798000000000002,13.38 23.353,7.4780000000000015 C 23.167,4.989 23.112,2.494 23.05,0.0 L 48.682,0.0" fill-rule="evenodd"/>
</svg>
