<?xml version="1.0" ?>
<svg xmlns="http://www.w3.org/2000/svg" xmlns:ev="http://www.w3.org/2001/xml-events" xmlns:xlink="http://www.w3.org/1999/xlink" baseProfile="full" enable-background="new 0 0 99.994 94.698" height="569px" version="1.1" viewBox="0 0 99.994 94.698" width="600px" x="0px" xml:space="preserve" y="0px">
	<defs/>
	<path d="M 77.61,43.628 L 77.61,48.647999999999996 L 69.373,48.647999999999996 L 74.256,60.604 L 86.574,60.604 L 86.574,65.586 L 76.258,65.586 L 81.966,79.575 L 75.93299999999999,79.575 L 70.22399999999999,65.586 L 51.765,65.586 L 46.094,79.575 L 40.034,79.575 L 45.742999999999995,65.586 L 35.441,65.586 L 35.441,60.604 L 47.772000000000006,60.604 L 52.629000000000005,48.647999999999996 L 44.392,48.647999999999996 L 44.392,43.628 L 77.61,43.628 M 68.196,60.604 L 63.339,48.647999999999996 L 58.682,48.647999999999996 L 53.807,60.604 L 68.196,60.604"/>
	<path d="M 10.04,94.698 L 99.994,94.698 L 99.994,85.359 L 19.379,85.359 L 19.379,46.145 L 99.994,9.715 L 99.994,0.0 L 0.0,45.168 L 0.0,54.882 L 10.04,50.376 L 10.04,94.698" points="10.04,94.698 99.994,94.698 99.994,85.359 19.379,85.359 19.379,46.145 99.994,9.715 99.994,0 0,45.168 0,54.882    10.04,50.376 "/>
</svg>
