<?xml version="1.0" ?>
<svg xmlns="http://www.w3.org/2000/svg" xmlns:ev="http://www.w3.org/2001/xml-events" xmlns:xlink="http://www.w3.org/1999/xlink" baseProfile="full" enable-background="new 21.276 -4.342 56.448 100" height="600px" version="1.1" viewBox="21.276 -4.342 56.448 100" width="339px" x="0px" xml:space="preserve" y="0px">
	<defs/>
	<path d="M 49.802,32.848 L 52.016999999999996,37.599 L 57.910999999999994,34.851 L 56.684,32.221 C 55.994,31.942999999999998 55.337999999999994,31.576999999999998 54.733999999999995,31.125999999999998 C 53.309,32.189 51.604,32.788 49.802,32.848"/>
	<path d="M 49.5,95.658 C 50.164,95.658 50.746,95.222 50.935,94.586 L 51.599000000000004,92.337 L 50.146,89.22200000000001 L 46.925,90.724 L 48.065999999999995,94.586 C 48.254,95.222 48.836,95.658 49.5,95.658"/>
	<path d="M 31.602,38.862 L 34.342,37.584 L 31.842,32.223000000000006 C 31.189999999999998,32.48500000000001 30.506,32.669000000000004 29.801,32.767 L 31.602,38.862"/>
	<path d="M 41.154,34.408 L 40.382000000000005,32.751000000000005 C 39.940000000000005,32.818000000000005 39.49,32.854000000000006 39.034000000000006,32.854000000000006 C 37.11900000000001,32.854000000000006 35.30400000000001,32.248000000000005 33.800000000000004,31.125000000000007 C 33.464000000000006,31.37600000000001 33.11000000000001,31.598000000000006 32.74400000000001,31.796000000000006 L 35.24600000000001,37.162000000000006 L 41.154,34.408"/>
	<path d="M 41.382,32.537 L 42.058,33.986 L 46.019,32.138999999999996 C 45.400999999999996,31.871999999999996 44.812999999999995,31.532999999999994 44.266999999999996,31.124999999999996 C 43.396,31.776 42.42,32.251 41.382,32.537"/>
	<path d="M 68.08,36.554 L 69.199,32.766000000000005 C 68.26,32.635000000000005 67.358,32.35300000000001 66.52,31.935000000000006 L 66.032,32.163000000000004 L 68.08,36.554"/>
	<path d="M 45.22,40.768 L 51.113,38.02 L 48.686,32.815000000000005 C 48.246,32.775000000000006 47.812,32.70400000000001 47.389,32.6 L 42.479,34.89 L 45.22,40.768"/>
	<path d="M 57.973,32.627 L 58.814,34.43 L 64.708,31.682 L 64.632,31.517999999999997 C 63.249,32.388999999999996 61.648,32.855 59.96900000000001,32.855 C 59.286,32.854 58.619,32.776 57.973,32.627"/>
	<path d="M 73.323,17.376 C 72.209,5.197 61.969,-4.342 49.5,-4.342 C 37.031,-4.342 26.792,5.197 25.677,17.376 C 23.088,18.495 21.276,21.07 21.276,24.069000000000003 C 21.276,28.095000000000002 24.54,31.359 28.566,31.359 C 30.619999999999997,31.359 32.475,30.508000000000003 33.799,29.141000000000002 C 35.124,30.508000000000003 36.979,31.359 39.033,31.359 C 41.087,31.359 42.942,30.508000000000003 44.266,29.141000000000002 C 45.591,30.508000000000003 47.446,31.359 49.5,31.359 C 51.554,31.359 53.409,30.508000000000003 54.733,29.141000000000002 C 56.058,30.508000000000003 57.913,31.359 59.967,31.359 C 62.021,31.359 63.875,30.508000000000003 65.2,29.141000000000002 C 66.525,30.508000000000003 68.38000000000001,31.359 70.433,31.359 C 74.459,31.359 77.72300000000001,28.096000000000004 77.72300000000001,24.069000000000003 C 77.725,21.07 75.912,18.494 73.323,17.376"/>
	<path d="M 58.946,67.468 L 61.234,59.725 L 61.05,59.33 L 55.156,62.078 L 57.897,67.956 L 58.946,67.468" points="58.946,67.468 61.234,59.725 61.05,59.33 55.156,62.078 57.897,67.956 "/>
	<path d="M 36.185,54.375 L 38.043,60.665 L 43.844,57.961 L 41.103,52.082 L 36.185,54.375" points="36.185,54.375 38.043,60.665 43.844,57.961 41.103,52.082 "/>
	<path d="M 40.645,68.845 L 40.483,68.921 L 42.341,75.21 L 43.385,74.723 L 40.645,68.845" points="40.645,68.845 40.483,68.921 42.341,75.21 43.385,74.723 "/>
	<path d="M 61.532,58.005 L 61.776,57.89 L 64.24,49.55 L 58.777,52.096 L 61.532,58.005" points="61.532,58.005 61.776,57.89 64.24,49.55 58.777,52.096 "/>
	<path d="M 58.319,68.86 L 58.451,69.143 L 58.569,68.743 L 58.319,68.86" points="58.319,68.86 58.451,69.143 58.569,68.743 "/>
	<path d="M 40.197,67.953 L 40.223,67.941 L 40.143,67.769 L 40.197,67.953" points="40.197,67.953 40.223,67.941 40.143,67.769 "/>
	<path d="M 64.87,47.418 L 67.069,39.973 L 62.411,42.145 L 64.87,47.418" points="64.87,47.418 67.069,39.973 62.411,42.145 "/>
	<path d="M 46.983,82.439 L 44.781,83.467 L 46.639,89.757 L 49.725,88.318 L 46.983,82.439" points="46.983,82.439 44.781,83.467 46.639,89.757 49.725,88.318 "/>
	<path d="M 31.888,39.829 L 33.746,46.119 L 37.504,44.366 L 34.764,38.488 L 31.888,39.829" points="31.888,39.829 33.746,46.119 37.504,44.366 34.764,38.488 "/>
	<path d="M 54.809,81.473 L 53.78,79.269 L 47.887,82.017 L 50.628,87.896 L 53.275,86.662 L 54.809,81.473" points="54.809,81.473 53.78,79.269 47.887,82.017 50.628,87.896 53.275,86.662 "/>
	<path d="M 51.05,88.8 L 52.025,90.893 L 52.898,87.937 L 51.05,88.8" points="51.05,88.8 52.025,90.893 52.898,87.937 "/>
	<path d="M 56.105,77.085 L 58.024,70.588 L 57.416,69.281 L 51.508,72.037 L 54.263,77.944 L 56.105,77.085" points="56.105,77.085 58.024,70.588 57.416,69.281 51.508,72.037 54.263,77.944 "/>
	<path d="M 55.728,78.361 L 54.684,78.847 L 55.235,80.029 L 55.728,78.361" points="55.728,78.361 54.684,78.847 55.235,80.029 "/>
	<path d="M 43.807,75.628 L 42.627,76.177 L 44.495,82.499 L 46.562,81.535 L 43.807,75.628" points="43.807,75.628 42.627,76.177 44.495,82.499 46.562,81.535 "/>
	<path d="M 34.032,47.086 L 35.899,53.408 L 40.681,51.178 L 37.926,45.27 L 34.032,47.086" points="34.032,47.086 35.899,53.408 40.681,51.178 37.926,45.27 "/>
	<path d="M 59.235,35.333 L 61.99,41.242 L 67.446,38.698 L 67.653,37.999 L 65.129,32.585 L 59.235,35.333" points="59.235,35.333 61.99,41.242 67.446,38.698 67.653,37.999 65.129,32.585 "/>
	<path d="M 49.426,63.556 L 55.913000000000004,63.556 L 55.913000000000004,70.074 L 49.426,70.074 L 49.426,63.556" height="6.518" transform="matrix(0.4226 0.9063 -0.9063 0.4226 90.9679 -9.1559)" width="6.487" x="49.426" y="63.556"/>
	<path d="M 42.622,66.737 L 49.108,66.737 L 49.108,73.24 L 42.622,73.24 L 42.622,66.737" height="6.503" transform="matrix(0.4227 0.9063 -0.9063 0.4227 89.91 -1.1597)" width="6.486" x="42.622" y="66.737"/>
	<path d="M 53.503,36.832 L 60.022,36.832 L 60.022,43.335 L 53.503,43.335 L 53.503,36.832" height="6.503" transform="matrix(-0.4226 -0.9063 0.9063 -0.4226 44.4204 108.4666)" width="6.519" x="53.503" y="36.832"/>
	<path d="M 46.714,39.993 L 53.217,39.993 L 53.217,46.512 L 46.714,46.512 L 46.714,39.993" height="6.519" transform="matrix(-0.9063 0.4227 -0.4227 -0.9063 113.5303 61.3331)" width="6.503" x="46.714" y="39.993"/>
	<path d="M 39.902,43.166 L 46.421,43.166 L 46.421,49.684999999999995 L 39.902,49.684999999999995 L 39.902,43.166" height="6.519" transform="matrix(-0.4226 -0.9063 0.9063 -0.4226 19.3251 105.1619)" width="6.519" x="39.902" y="43.166"/>
	<path d="M 56.689,43.629 L 63.175,43.629 L 63.175,50.132 L 56.689,50.132 L 56.689,43.629" height="6.503" transform="matrix(-0.4226 -0.9063 0.9063 -0.4226 42.7729 121.0088)" width="6.486" x="56.689" y="43.629"/>
	<path d="M 39.437,59.94 L 45.955,59.94 L 45.955,66.443 L 39.437,66.443 L 39.437,59.94" height="6.503" transform="matrix(0.4227 0.9063 -0.9063 0.4227 81.9202 -2.2115)" width="6.518" x="39.437" y="59.94"/>
	<path d="M 43.087,49.962 L 49.574000000000005,49.962 L 49.574000000000005,56.481 L 43.087,56.481 L 43.087,49.962" height="6.519" transform="matrix(-0.4226 -0.9063 0.9063 -0.4226 17.6737 117.7036)" width="6.487" x="43.087" y="49.962"/>
	<path d="M 49.892,46.797 L 56.378,46.797 L 56.378,53.3 L 49.892,53.3 L 49.892,46.797" height="6.503" transform="matrix(-0.4225 -0.9063 0.9063 -0.4225 30.2246 119.3553)" width="6.486" x="49.892" y="46.797"/>
	<path d="M 46.241,56.759 L 52.76,56.759 L 52.76,63.278999999999996 L 46.241,63.278999999999996 L 46.241,56.759" height="6.52" transform="matrix(0.4226 0.9063 -0.9063 0.4226 82.978 -10.2077)" width="6.519" x="46.241" y="56.759"/>
	<path d="M 53.045,53.596 L 59.564,53.596 L 59.564,60.098 L 53.045,60.098 L 53.045,53.596" height="6.502" transform="matrix(0.4226 0.9063 -0.9063 0.4226 84.031 -18.2062)" width="6.519" x="53.045" y="53.596"/>
	<path d="M 36.732,36.385 L 43.251,36.385 L 43.251,42.870999999999995 L 36.732,42.870999999999995 L 36.732,36.385" height="6.486" transform="matrix(-0.9063 0.4226 -0.4226 -0.9063 92.9837 58.6434)" width="6.519" x="36.732" y="36.385"/>
	<path d="M 45.776,73.534 L 52.294000000000004,73.534 L 52.294000000000004,80.036 L 45.776,80.036 L 45.776,73.534" height="6.502" transform="matrix(0.4228 0.9062 -0.9062 0.4228 97.8895 -0.1149)" width="6.518" x="45.776" y="73.534"/>
</svg>
