<?xml version="1.0" ?>
<svg xmlns="http://www.w3.org/2000/svg" xmlns:ev="http://www.w3.org/2001/xml-events" xmlns:xlink="http://www.w3.org/1999/xlink" baseProfile="full" enable-background="new 0 0 100 100" height="462px" version="1.1" viewBox="0 0 100 100" width="600px" x="0px" xml:space="preserve" y="0px">
	<defs/>
	<path d="M 89.321,28.991 L 70.441,28.991 L 70.441,21.041 C 70.441,17.905 67.899,15.363 64.763,15.363 L 35.237,15.363 C 32.1,15.363 29.559,17.905 29.559,21.041 L 29.559,28.991 L 10.679000000000002,28.991 C 7.542,28.991 5.0,31.533 5.0,34.669 L 5.0,78.959 C 5.0,82.096 7.542,84.637 10.678,84.637 L 89.321,84.637 C 92.458,84.637 95.0,82.096 95.0,78.959 L 95.0,34.669000000000004 C 95.0,31.533 92.458,28.991 89.321,28.991 M 35.913,25.412 C 35.913,23.076999999999998 36.669999999999995,21.183 39.006,21.183 L 60.994,21.183 C 63.329,21.183 64.087,23.076 64.087,25.412 L 64.087,28.991 L 35.913,28.991 L 35.913,25.412"/>
</svg>
