<?xml version="1.0" ?>
<svg xmlns="http://www.w3.org/2000/svg" xmlns:ev="http://www.w3.org/2001/xml-events" xmlns:xlink="http://www.w3.org/1999/xlink" baseProfile="full" enable-background="new 0 0 100 100" height="600px" version="1.1" viewBox="0 0 100 100" width="598px" x="0px" xml:space="preserve" y="0px">
	<defs/>
	<path d="M 66.092,57.413 L 72.906,53.425999999999995 L 81.19300000000001,63.705999999999996 C 81.19300000000001,63.705999999999996 82.63700000000001,67.598 79.08900000000001,67.15299999999999 C 75.54,66.71 72.87800000000001,64.64099999999999 70.65900000000002,62.27499999999999 C 68.443,59.91 66.092,57.413 66.092,57.413"/>
	<path d="M 76.024,51.091 L 79.691,54.9 L 91.432,58.286 C 91.432,58.286 95.209,59.555 97.464,57.863 C 99.724,56.169 100.71,53.368 97.464,52.652 C 94.221,51.936 81.525,47.423 81.525,47.423 L 76.024,50.527"/>
	<path d="M 88.979,30.019 C 88.979,30.019 73.876,38.86 68.841,41.376999999999995 C 63.806999999999995,43.894999999999996 61.25899999999999,45.13099999999999 61.25899999999999,45.13099999999999 L 59.19,48.0 L 49.961999999999996,48.0 L 47.391,45.627 C 47.391,45.627 29.581,40.35 25.941,37.639 C 22.714,35.237 20.445,37.09 20.445,37.09 L 0.0,43.085 L 0.0,69.483 L 22.13,55.157000000000004 L 32.381,65.22800000000001 C 32.381,65.22800000000001 32.59,78.80700000000002 32.59,81.32600000000001 C 32.59,83.843 31.841000000000005,90.756 36.938,91.73700000000001 C 40.464,92.41700000000002 42.532000000000004,86.549 42.823,84.049 C 43.558,77.75800000000001 44.389,62.80200000000001 44.389,62.80200000000001 L 51.224,53.0 L 58.361,53.0 L 61.589999999999996,57.269 C 61.589999999999996,57.269 82.687,43.792 86.463,41.274 C 90.238,38.756 91.497,37.529 92.756,32.496 C 94.013,27.462 88.979,30.019 88.979,30.019"/>
	<path d="M 56.725,55.0 L 51.786,55.0 L 49.0,61.779 L 49.0,100.0 L 60.0,100.0 L 60.0,61.779 L 56.725,55.0" points="56.725,55 51.786,55 49,61.779 49,100 60,100 60,61.779   "/>
	<path d="M 51.762,46.0 L 56.699,46.0 L 60.0,39.221 L 60.0,0.0 L 49.0,0.0 L 49.0,39.221 L 51.762,46.0" points="51.762,46 56.699,46 60,39.221 60,0 49,0 49,39.221   "/>
</svg>
