<?xml version="1.0" ?>
<svg xmlns="http://www.w3.org/2000/svg" xmlns:ev="http://www.w3.org/2001/xml-events" xmlns:xlink="http://www.w3.org/1999/xlink" baseProfile="full" enable-background="new 0 0 100 100" height="600px" version="1.1" viewBox="0 0 100 100" width="408px" x="0px" xml:space="preserve" y="0px">
	<defs/>
	<path d="M 62.586,23.928 C 65.791,23.926000000000002 65.54899999999999,19.778 62.577999999999996,19.517000000000003 C 61.13699999999999,19.391000000000002 57.885,19.105000000000004 56.75599999999999,19.006000000000004 C 55.638999999999996,18.908000000000005 54.80899999999999,17.973000000000003 54.806999999999995,17.068000000000005 C 54.80499999999999,14.224000000000006 54.06699999999999,12.739000000000004 51.379,12.741000000000005 L 48.449,12.743000000000006 C 45.76,12.745000000000006 45.025,14.230000000000006 45.027,17.076000000000008 C 45.027,17.98100000000001 44.197,18.916000000000007 43.082,19.015000000000008 C 41.953,19.11800000000001 38.701,19.40800000000001 37.264,19.53600000000001 C 34.289,19.80100000000001 34.051,23.94900000000001 37.260000000000005,23.94700000000001 L 62.586,23.928 M 49.979,17.819 C 49.063,17.817999999999998 48.323,17.08 48.319,16.163 C 48.317,15.246 49.059000000000005,14.503 49.977000000000004,14.502 C 50.895,14.502 51.635000000000005,15.244 51.639,16.159 C 51.641,17.074 50.896,17.818 49.979,17.819"/>
	<path d="M 66.408,22.092 C 66.336,22.798 66.086,23.674 65.611,24.185 C 65.181,24.653 64.39,25.208 63.09,25.212 L 36.879000000000005,25.227 C 35.57600000000001,25.227 34.787000000000006,24.666 34.356,24.2 C 33.877,23.689 33.629000000000005,22.814999999999998 33.549,22.112 L 24.719,22.112 L 24.752000000000002,87.25999999999999 L 75.281,87.22999999999999 L 75.248,22.08699999999999 L 66.408,22.092 M 31.52,82.179 L 28.480999999999998,82.181 L 28.479,79.124 L 31.514,79.122 L 31.52,82.179 M 31.51,75.427 L 28.477,75.426 L 28.475,72.368 L 31.508000000000003,72.369 L 31.51,75.427 M 31.506,68.675 L 28.473,68.67399999999999 L 28.468999999999998,65.61699999999999 L 31.503999999999998,65.615 L 31.506,68.675 M 31.504,61.923 L 28.467000000000002,61.925000000000004 L 28.469,58.86600000000001 L 31.502000000000002,58.864000000000004 L 31.504,61.923 M 31.5,55.174 L 28.467,55.173 L 28.467,52.115 L 31.502,52.112 L 31.5,55.174 M 31.496,48.419 L 28.462999999999997,48.421 L 28.462999999999997,45.359 L 31.493999999999996,45.359 L 31.496,48.419 M 42.705,32.463 L 47.527,32.46 L 47.525,27.643 L 52.451,27.639 L 52.453,32.459 L 57.273,32.458000000000006 L 57.279,37.385000000000005 L 52.459,37.38700000000001 L 52.459,42.20700000000001 L 47.529,42.211000000000006 L 47.529,37.38700000000001 L 42.707,37.394000000000005 L 42.703,32.464000000000006 L 42.705,32.463 L 42.705,32.463 M 69.943,82.155 L 34.168,82.172 L 34.162,79.114 L 69.945,79.096 L 69.943,82.155 M 69.945,75.405 L 34.16199999999999,75.423 L 34.15999999999999,72.36500000000001 L 69.93499999999999,72.34700000000001 L 69.945,75.405 M 69.938,68.655 L 34.16,68.672 L 34.156,65.61 L 69.93299999999999,65.596 L 69.938,68.655 M 69.932,61.903 L 34.155,61.918 L 34.155,58.859 L 69.932,58.839 L 69.932,61.903 M 69.932,55.152 L 34.155,55.172000000000004 L 34.153,52.11000000000001 L 69.928,52.093 L 69.932,55.152 M 69.926,48.401 L 34.153,48.413000000000004 L 34.150999999999996,45.356 L 69.924,45.339 L 69.926,48.401"/>
</svg>
