<?xml version="1.0" ?>
<svg xmlns="http://www.w3.org/2000/svg" xmlns:ev="http://www.w3.org/2001/xml-events" xmlns:xlink="http://www.w3.org/1999/xlink" baseProfile="full" enable-background="new 0 0 100 100" height="600px" version="1.1" viewBox="0 0 100 100" width="600px" x="0px" xml:space="preserve" y="0px">
	<defs/>
	<path d="M 89.795,33.162 C 89.795,30.907 87.964,29.079 85.712,29.079 L 72.107,29.079 L 72.107,10.205 C 72.107,4.568 67.536,0.0 61.902,0.0 L 38.094,0.0 C 32.457,0.0 27.889000000000003,4.568 27.889000000000003,10.205 L 27.889000000000003,29.079 L 14.284,29.079 C 12.032,29.079 10.204,30.907 10.204,33.162 L 0.0,95.92 C 0.0,98.178 1.828,99.997 4.08,99.997 L 95.916,99.997 C 98.169,99.997 100.0,98.178 100.0,95.92 L 89.795,33.162 M 33.732,13.8 C 33.732,9.653 37.092,6.293000000000001 41.239,6.293000000000001 L 58.753,6.293000000000001 C 62.903,6.293000000000001 66.261,9.653 66.261,13.8 L 66.261,29.079 L 33.732,29.079 L 33.732,13.8"/>
</svg>
