<?xml version="1.0" ?>
<svg xmlns="http://www.w3.org/2000/svg" xmlns:ev="http://www.w3.org/2001/xml-events" xmlns:graph="http://ns.adobe.com/Graphs/1.0/" xmlns:i="http://ns.adobe.com/AdobeIllustrator/10.0/" xmlns:x="http://ns.adobe.com/Extensibility/1.0/" xmlns:xlink="http://www.w3.org/1999/xlink" baseProfile="full" enable-background="new 0 0 100 100" height="600px" version="1.1" viewBox="0 0 100 100" width="354px" x="0px" xml:space="preserve" y="0px">
	<defs/>
	<path d="M 51.761,89.095 L 51.660000000000004,87.098 C 53.19200000000001,87.021 54.658,86.833 56.018,86.539 L 56.44,88.494 C 54.975,88.811 53.4,89.013 51.761,89.095 M 47.066,89.014 C 45.428000000000004,88.872 43.86,88.60199999999999 42.405,88.213 L 42.922000000000004,86.28099999999999 C 44.265,86.63999999999999 45.717000000000006,86.889 47.239000000000004,87.02199999999999 L 47.066,89.014 M 60.969,87.022 L 60.146,85.19900000000001 C 61.480000000000004,84.59700000000001 62.714,83.84500000000001 63.816,82.96300000000001 L 65.066,84.525 C 63.833,85.51 62.455,86.351 60.969,87.022 M 37.955,86.491 C 36.519,85.735 35.196,84.807 34.022,83.735 L 35.370999999999995,82.258 C 36.419,83.216 37.602,84.045 38.888,84.72099999999999 L 37.955,86.491 M 68.4,81.065 L 66.79700000000001,79.869 C 67.632,78.75 68.36600000000001,77.489 68.97800000000001,76.12 L 70.804,76.936 C 70.132,78.44 69.323,79.829 68.4,81.065 M 30.915,80.076 C 30.072,78.79499999999999 29.34,77.368 28.74,75.83399999999999 L 30.601999999999997,75.10499999999999 C 31.150999999999996,76.50899999999999 31.818999999999996,77.81199999999998 32.584999999999994,78.97599999999998 L 30.915,80.076 M 72.338,72.455 L 70.398,71.97 C 70.74199999999999,70.595 71.0,69.127 71.163,67.607 L 73.151,67.821 C 72.978,69.431 72.705,70.99 72.338,72.455 M 27.401,71.301 C 27.089,69.822 26.867,68.258 26.743,66.649 L 28.737,66.496 C 28.854,68.017 29.063,69.49499999999999 29.357999999999997,70.889 L 27.401,71.301 M 71.375,63.159 C 71.358,61.247 71.208,59.69 71.085,58.721 L 73.06899999999999,58.47 C 73.255,59.936 73.36099999999999,61.552 73.37499999999999,63.141999999999996 L 71.375,63.159 M 28.65,62.041 L 26.651,61.968999999999994 C 26.726,59.87799999999999 26.936,58.273999999999994 27.099,57.297999999999995 L 29.072,57.626 C 28.855,58.924 28.706,60.492 28.65,62.041 M 29.466,56.125 L 27.562,55.513 C 27.924,54.388999999999996 28.486,52.922 29.233,51.152 L 31.076,51.93 C 30.351,53.645 29.809,55.056 29.466,56.125 M 69.967,54.536 C 69.53,53.38 68.948,51.973 68.238,50.352000000000004 L 70.069,49.548 C 70.795,51.2 71.39,52.641000000000005 71.839,53.83 L 69.967,54.536 M 32.915,47.769 L 31.096999999999998,46.936 C 31.703,45.613 32.358,44.218 33.047,42.777 L 34.852,43.639 C 34.167,45.07 33.516,46.456 32.915,47.769 M 66.354,46.204 C 65.736,44.88 65.079,43.498 64.395,42.083 L 66.196,41.213 C 66.884,42.636 67.54599999999999,44.026 68.167,45.359 L 66.354,46.204 M 36.843,39.53 L 35.048,38.648 C 35.715,37.291000000000004 36.398,35.916000000000004 37.087,34.542 L 38.875,35.438 C 38.188,36.807 37.507,38.177 36.843,39.53 M 62.386,37.981 C 61.714000000000006,36.623000000000005 61.029,35.253 60.343,33.893 L 62.129000000000005,32.993 C 62.81700000000001,34.358000000000004 63.504000000000005,35.731 64.17800000000001,37.094 L 62.386,37.981 M 40.936,31.358 L 39.153999999999996,30.451 C 39.86,29.064 40.559999999999995,27.698 41.242999999999995,26.373 L 43.019999999999996,27.289 C 42.339,28.611 41.64,29.975 40.936,31.358 M 58.273,29.818 C 57.562000000000005,28.426000000000002 56.86000000000001,27.064 56.182,25.752000000000002 L 57.958000000000006,24.834000000000003 C 58.638000000000005,26.148000000000003 59.34,27.513 60.054,28.908 L 58.273,29.818 M 45.125,23.229 L 43.352,22.305 C 44.11,20.848 44.82599999999999,19.483 45.477999999999994,18.245 L 47.248,19.177 C 46.596,20.414 45.882,21.776 45.125,23.229 M 54.072,21.695 C 53.296,20.211 52.578,18.846 51.944,17.644 L 53.713,16.709999999999997 C 54.349000000000004,17.913999999999998 55.067,19.281 55.845,20.767999999999997 L 54.072,21.695 M 49.389,15.129 L 47.623000000000005,14.190999999999999 C 48.56100000000001,12.424999999999999 49.120000000000005,11.387999999999998 49.120000000000005,11.387999999999998 L 50.001000000000005,9.751999999999999 L 51.56,12.655999999999999 L 50.370000000000005,13.290999999999999 C 50.121,13.754 49.79,14.375 49.389,15.129"/>
</svg>
