<?xml version="1.0" ?>
<svg xmlns="http://www.w3.org/2000/svg" xmlns:cc="http://creativecommons.org/ns#" xmlns:dc="http://purl.org/dc/elements/1.1/" xmlns:ev="http://www.w3.org/2001/xml-events" xmlns:inkscape="http://www.inkscape.org/namespaces/inkscape" xmlns:rdf="http://www.w3.org/1999/02/22-rdf-syntax-ns#" xmlns:sodipodi="http://sodipodi.sourceforge.net/DTD/sodipodi-0.dtd" xmlns:svg="http://www.w3.org/2000/svg" xmlns:xlink="http://www.w3.org/1999/xlink" baseProfile="full" height="600px" version="1.1" viewBox="0 0 80 80" width="318px" x="0px" y="0px">
	<defs/>
	<path d="M 35.809328,2.2515291 C 36.268888000000004,1.3406077 36.291508,0.8174520299999999 36.787728,1.9624559 C 36.974878000000004,0.38493983 37.098068,2.1060781 37.238018000000004,2.579516 C 36.882578,3.1723424 37.146218000000005,4.9979822 38.377628,3.8636679999999997 C 38.751268,5.0026997 37.201788,5.9210562 38.855718,5.586988799999999 C 37.348238,7.504544599999999 39.130808,6.3225722 39.467218,5.6981708 C 40.660798,4.8117835 38.437098000000006,7.2415981 39.222618000000004,7.3005812 C 38.824918000000004,8.2094173 38.68049800000001,10.055925 40.04535800000001,8.4513143 C 40.86432800000001,7.8958374 39.72009800000001,9.4605473 40.26216800000001,9.7229593 C 40.28526800000001,10.665265 38.76311800000001,13.419201999999999 40.62350800000001,12.113370999999999 C 41.40439800000001,10.387948999999999 40.539508000000005,15.659153 41.36842800000001,14.066004999999999 C 40.365578000000006,13.773819999999999 42.90375800000001,11.458417999999998 41.66079800000001,13.478998999999998 C 41.54681800000001,13.986996999999999 42.749688000000006,16.523018999999998 42.429348000000005,14.876231999999998 C 43.203368000000005,15.744726999999997 44.167638000000004,13.300665999999998 43.113988000000006,15.448830999999998 C 43.42955800000001,15.904325999999998 42.68394800000001,16.329739 43.05838800000001,17.416752 C 42.30106800000001,17.734524999999998 41.62561800000001,19.858000999999998 43.02498800000001,18.228381 C 42.854608000000006,19.406561 42.095628000000005,21.51238 42.43571800000001,21.397067 C 43.92508800000001,21.394967 43.57694800000001,18.792557 44.64962800000001,19.557352 C 46.18329800000001,18.527248 45.38613800000001,19.328437 45.94489800000001,19.935024000000002 C 46.94465800000001,19.649424000000003 43.88981800000001,23.597646 46.215908000000006,21.930741 C 46.44171800000001,22.790976 45.368148000000005,24.709932000000002 47.02753800000001,23.465053 C 46.851468000000004,24.813149000000003 43.148348000000006,26.068265 45.81564800000001,26.033356 C 46.64310800000001,24.664189 47.40472800000001,24.440861 46.67036800000001,26.079216000000002 C 46.68096800000001,27.550989 44.88226800000001,29.240696000000003 46.18255800000001,30.258269000000002 C 46.569908000000005,29.924285 47.57604800000001,27.477983000000002 47.55008800000001,29.513350000000003 C 47.77765800000001,28.622019 49.44288800000001,27.793808000000002 48.20606800000001,29.257631000000003 C 49.251658000000006,30.128327000000002 47.27624800000001,32.675110000000004 45.90459800000001,34.149639 C 45.189488000000004,33.384332 43.55496800000001,34.000069 45.668338000000006,34.192719000000004 C 48.01269800000001,34.013864000000005 43.76715800000001,35.626383000000004 46.264548000000005,35.07244600000001 C 47.335258,33.622592000000004 48.664528000000004,35.17119600000001 49.220598,34.594364000000006 C 49.482448000000005,35.34845200000001 52.078288,33.627041000000006 52.575518,34.37200000000001 C 51.689688000000004,35.10327800000001 51.203008000000004,38.107929000000006 49.618078000000004,38.541324 C 50.75821800000001,38.959266 49.643478,40.503501 50.587268,41.097642 C 50.739778,42.393631 49.151538,43.092266 50.308038,43.855188 C 50.906058,44.343254 50.799638,49.414677 52.164828,46.931481999999995 C 52.707058,47.48783099999999 55.102408,44.654700999999996 54.139878,47.451693 C 53.609748,49.663574 52.034848000000004,48.906617 51.545698,51.191055 C 49.882268,52.737331 51.725878,53.540003999999996 52.608868,51.694154 C 54.311138,52.530072 50.911268,53.757898999999995 52.464338,54.518176 C 50.668878,54.337719 54.137478,55.731508 53.887468,55.081035 C 55.204858,54.315488 55.770688,56.777846 53.831868,57.030889 C 52.982638,57.580452 51.423648,58.518295 53.765168,58.898747 C 52.691248,58.231345 54.961028000000006,58.019209000000004 54.797068,57.857623000000004 C 55.864938,57.428952 56.116868000000004,58.986427000000006 57.085338,59.510248000000004 C 57.055438,61.880658000000004 55.381368,62.198328000000004 54.985388,63.988102000000005 C 54.589618,65.02265100000001 51.275898,65.236824 53.196748,65.561327 C 54.208578,65.035995 52.151038,67.25376 53.398268,66.33682200000001 C 54.332038000000004,67.08266700000001 53.272428000000005,64.90567200000001 54.811668000000004,65.62247800000002 C 55.490568,65.33895300000002 55.976238,64.92195400000001 56.848038,65.25436100000002 C 58.927608,63.56731100000002 56.554868,67.57307700000001 58.764868,66.69483600000002 C 59.655558,67.47260600000003 56.584928,66.02562300000002 56.989438,67.81554200000002 C 55.267288,68.34850500000002 57.655018,68.51914500000002 56.155578,69.21643500000002 C 55.676108,70.23184300000001 52.413298,70.51273700000002 52.191938,71.37336600000002 C 52.085238000000004,71.66982800000002 49.409888,70.83379400000001 49.151108,72.91879600000001 C 48.657048,72.11547700000001 46.135948,72.19486000000002 46.605048000000004,73.02997800000001 C 45.566598000000006,71.88500800000001 46.565448,74.66344300000002 45.748948000000006,72.81873200000001 C 44.824158000000004,74.13870400000002 45.91415800000001,71.33721500000001 44.77053800000001,73.02997800000001 C 45.42290800000001,73.46988100000002 44.82463800000001,73.96774700000002 44.44811800000001,73.68595100000002 C 43.78184800000001,72.46628200000002 44.10025800000001,75.73906700000002 43.69207800000001,73.71931100000002 C 42.73699800000001,74.61824600000001 41.34115800000001,74.35118300000002 41.549048000000006,73.82076500000002 C 41.06416800000001,73.98450100000002 40.363918000000005,72.21862800000002 40.345498000000006,74.03062100000002 C 38.11593800000001,74.08473100000002 41.357648000000005,78.93747800000003 38.05375800000001,77.57732600000003 C 35.22390800000001,77.19729500000003 39.05879800000001,71.91410200000003 35.64249800000001,71.49567100000003 C 35.93194800000001,69.61100300000003 33.48093800000001,70.87944800000002 35.37566800000001,71.07318000000004 C 34.29126800000001,71.23123900000003 33.89288800000001,74.17814300000003 33.73364800000001,72.56562400000004 C 32.60658800000001,73.81578800000004 31.50774800000001,72.78438800000004 32.84071800000001,71.52902600000004 C 31.11674800000001,71.88050100000004 31.58298800000001,72.04070500000005 29.94997800000001,71.65132600000004 C 30.80526800000001,72.83836800000005 30.53929800000001,74.30820500000004 29.93887800000001,72.78538200000004 C 29.08762400000001,74.53268400000005 27.93844400000001,72.74455200000004 26.13645900000001,73.85272900000004 C 24.93311600000001,74.10459700000004 25.38712000000001,71.08596400000003 25.14693900000001,72.99662800000004 C 23.65163500000001,73.99874700000004 25.83710900000001,71.19353900000004 24.07959200000001,72.42960000000005 C 23.22925200000001,71.57004000000005 22.78586200000001,73.26885300000005 22.15614400000001,71.85145400000005 C 21.00619900000001,72.40250200000004 19.154394000000007,71.68459400000005 19.325173000000007,70.60482500000005 C 20.90375600000001,70.20797500000005 17.044146000000005,69.59635500000005 19.220939000000005,69.62503400000004 C 21.748384000000005,69.58099400000005 16.604737000000004,68.31106700000004 19.503064000000006,68.39647300000004 C 20.817344000000006,68.68707000000005 16.539402000000006,65.43841200000004 19.498864000000005,66.35906300000005 C 18.401162000000006,64.99896500000006 21.436740000000004,64.28787400000004 21.611322000000005,65.94769000000005 C 22.621075000000005,65.96100000000006 23.961360000000006,67.00088700000005 24.101799000000003,65.63638000000005 C 23.481872000000003,65.46994200000005 19.498748000000003,64.96362900000004 21.789213000000004,63.99088700000004 C 20.337489000000005,63.71441400000004 20.745074000000002,62.50470900000004 22.045150000000003,62.848328000000045 C 22.479550000000003,62.43368400000004 21.250441000000002,62.445517000000045 22.044928000000002,61.80060200000005 C 20.258079000000002,62.540474000000046 21.656372,60.777295000000045 20.688507,61.12239200000005 C 18.559828000000003,59.841886000000045 21.710024,60.220829000000045 19.843524000000002,58.93488600000005 C 18.610219,57.29580300000005 21.291413000000002,58.60166100000005 20.032533,57.26437600000005 C 20.236491,56.17062900000005 22.502560000000003,58.45775200000005 21.16659,56.56393000000005 C 23.424525,56.73180500000005 20.360526999999998,55.94253700000005 21.711382,56.03025600000005 C 20.003624000000002,56.03815600000005 18.745859,52.61304100000005 19.361272,52.16529200000005 C 20.562647,53.07017200000005 23.136756,55.20689400000005 25.569397,54.36252700000005 C 24.296716999999997,54.80447600000005 24.610283,52.55953600000005 23.668184999999998,53.89556200000005 C 23.667628999999998,53.113621000000045 23.635865,52.72390600000005 22.300645999999997,52.528024000000045 C 23.642792999999998,51.35017200000004 20.722630999999996,52.779251000000045 21.733617999999996,51.37173100000005 C 20.645500999999996,52.306696000000045 18.147885999999996,48.581527000000044 20.799688999999997,50.00419300000004 C 19.392042999999997,47.04730100000005 23.503368999999996,51.31574500000004 22.889910999999998,48.99243600000004 C 24.147962,49.62789600000004 25.023941999999998,50.28946400000004 24.224095,48.68112700000004 C 24.259024999999998,47.600794000000036 27.360124999999996,49.516894000000036 25.392373999999997,47.94506800000004 C 23.898559999999996,47.140852000000045 26.130848999999998,46.40448000000004 24.140707999999997,46.24624100000004 C 23.274763999999998,45.84295400000004 24.978652999999998,44.48012300000004 23.134510999999996,45.53467700000004 C 23.021807999999996,44.31065800000004 20.676240999999997,43.26008600000004 20.755215999999997,40.99845100000004 C 21.396105,41.18480200000004 22.585492999999996,43.07624100000004 22.167227999999998,41.42094300000004 C 23.377519999999997,42.19105900000004 24.216685,43.88157300000004 25.725050999999997,42.73289000000004 C 23.575295999999998,41.66312800000004 24.430415999999997,39.87453400000004 24.899524999999997,39.78934700000004 C 23.926509999999997,38.22776200000004 26.234212999999997,39.974257000000044 26.269842999999998,38.84152100000004 C 27.811466999999997,39.83231900000004 25.456564999999998,36.93192200000004 26.514443999999997,36.369111000000046 C 26.08863,35.04443200000004 28.396803999999996,36.90456500000005 27.059234999999997,35.21698800000004 C 28.718635999999996,33.60185000000004 24.787750999999997,34.450445000000045 25.126057999999997,32.456895000000046 C 24.067702999999998,31.124683000000047 22.904289,27.661219000000045 25.163577999999998,30.194341000000044 C 26.558714,31.564059000000043 28.123386999999997,31.134296000000045 28.654518999999997,32.547752000000045 C 31.199557999999996,33.31846900000004 26.909971999999996,30.627720000000046 27.615140999999998,30.202680000000043 C 25.831491999999997,29.467952000000043 25.452429,26.457119000000045 26.026628999999996,26.803291000000044 C 26.659848999999998,27.810297000000045 26.781552999999995,27.078464000000043 27.276035999999998,27.345303000000044 C 28.520511,27.534747000000046 25.596054,23.526912000000046 27.326065999999997,23.676297000000044 C 28.131479,25.415832000000044 28.151988999999997,21.567988000000042 27.263526,21.101044000000044 C 28.080568999999997,20.300800000000045 28.184027,19.513658000000046 27.392775,18.361798000000043 C 28.321637,19.599163000000043 30.093968,19.097061000000043 28.615777,17.672470000000043 C 28.471021,15.575064000000044 28.515709,15.180208000000043 29.426368,17.12681000000004 C 30.418548,18.74353600000004 32.672718,18.68134600000004 31.006188,16.72742300000004 C 31.261658,15.630658000000041 30.906288,14.59268300000004 30.272388000000003,13.147363000000041 C 31.065728000000004,12.92043700000004 31.798258000000004,13.12256300000004 32.407078000000006,14.425956000000042 C 33.48003800000001,13.607623000000043 31.572918000000005,11.867577000000042 31.845618000000005,11.432381000000042 C 31.011308000000007,10.135203000000041 33.405548,12.239403000000042 32.29190800000001,10.280605000000042 C 31.490158000000008,9.027797300000042 31.559748000000006,8.701762300000041 32.985228000000006,9.422766300000042 C 33.31850800000001,8.560273300000041 31.835178000000006,8.060426800000041 33.76354800000001,8.188647400000042 C 33.64289800000001,6.660159600000042 35.31807800000001,9.136498300000042 34.07815800000001,7.205034800000042 C 33.71898800000001,6.325367300000042 36.61776800000001,7.936342100000042 34.561448000000006,6.458204200000042 C 34.583648000000004,6.236226000000042 36.13008800000001,5.686077500000041 34.608548000000006,4.7975967000000415 C 35.01836800000001,3.9776106000000415 36.94276800000001,4.550115600000042 34.97544800000001,3.8859044000000416 C 34.82896800000001,3.0717192000000413 36.849118000000004,3.5093403000000416 35.809318000000005,2.2515291000000417 L 35.809328,2.2515291 M 36.654308,2.9519757 C 36.569708,3.4446048 37.141698,2.8887987 36.654308,2.9519757 M 35.053288,4.5974691000000005 C 35.793588,6.3015366 36.252568000000004,4.536202100000001 35.053288,4.5974691000000005 M 36.087278000000005,4.931015100000001 C 36.03107800000001,6.037391500000001 37.216058000000004,5.734609600000001 36.087278000000005,4.931015100000001 M 37.31028800000001,5.0533153 C 37.118148000000005,5.3926805 37.70453800000001,5.0405153 37.31028800000001,5.0533153 M 36.876678000000005,5.831589200000001 C 36.673368,6.157411400000001 37.259618,5.8235492 36.876678000000005,5.831589200000001 M 37.365878,5.876062200000001 C 37.128868000000004,6.507798300000001 37.979068000000005,5.9235762 37.365878,5.876062200000001 M 37.988498,5.9316532 C 37.901698,6.488644900000001 38.535398,5.8478402 37.988498,5.9316532 M 37.110158,7.276955300000001 C 36.886828,7.860953100000001 37.700398,7.248242300000001 37.110158,7.276955300000001 M 37.210218,7.8328652000000005 C 37.016028,8.1694765 37.593198,7.8146832 37.210218,7.8328652000000005 M 34.430668,8.477720300000001 C 34.036587999999995,8.787765300000002 34.831678,8.766105300000001 34.430668,8.477720300000001 M 38.655587999999995,8.522190300000002 C 38.392897999999995,8.929122300000001 39.135518,8.663902300000002 38.655587999999995,8.522190300000002 M 38.110797999999996,8.822381300000002 C 38.03259799999999,9.306560300000001 38.591187999999995,8.734381300000003 38.110797999999996,8.822381300000002 M 36.987857999999996,9.278228300000002 C 36.783468,9.603824300000003 37.371708,9.280328300000003 36.987857999999996,9.278228300000002 M 33.363327999999996,9.556183300000002 C 32.529458,9.854563300000002 34.316168,10.387519000000003 33.363327999999996,9.556183300000002 M 37.087917999999995,9.722956300000002 C 36.90889799999999,10.064208000000002 37.48088799999999,9.696906300000002 37.087917999999995,9.722956300000002 M 35.086648,10.089856000000001 C 34.892768,10.607223000000001 35.604867999999996,10.044316 35.086648,10.089856000000001 M 33.974827999999995,11.257267 C 34.18230799999999,11.756495000000001 34.651317999999996,11.026873 33.974827999999995,11.257267 M 35.008818,11.813177000000001 C 34.987218,12.514888000000001 35.611518,11.560262000000002 35.008818,11.813177000000001 M 32.896358,11.957714000000001 C 32.712298,12.533481000000002 33.481898,11.906504000000002 32.896358,11.957714000000001 M 39.111428,12.558096 C 38.729617999999995,13.062130000000002 39.686808,12.702346 39.111428,12.558096 M 38.533288,13.291897 C 39.658468,13.97711 38.264668,11.872615 38.533288,13.291897 M 40.534558,12.824933 C 40.339208,13.16123 40.918417999999996,12.817033 40.534558,12.824933 M 40.423378,13.180715 C 40.211248,13.766909 41.004598,13.148064999999999 40.423378,13.180715 M 30.861728,13.280778999999999 C 30.958427999999998,14.830025999999998 32.096188,14.247665999999999 30.861728,13.280778999999999 M 40.112068,13.503143 L 40.153768,13.544832999999999 L 40.112068,13.503143 M 40.345558000000004,13.814453 L 40.387258,13.864483 L 40.345558000000004,13.814453 M 33.074248000000004,14.025702 C 32.840028000000004,15.451004000000001 34.847378000000006,14.297101000000001 33.074248000000004,14.025702 M 41.23500800000001,15.504422000000002 C 42.18434800000001,14.315034000000002 41.59792800000001,14.040372000000001 41.23500800000001,15.504422000000002 M 33.93034800000001,14.926276000000001 C 34.18399800000001,16.183007 35.62295800000001,15.194193000000002 33.93034800000001,14.926276000000001 M 40.04535800000001,16.949788 C 39.836788000000006,17.698595 40.647298000000006,16.883418000000002 40.04535800000001,16.949788 M 40.67909800000001,17.016498000000002 C 40.66629800000001,17.410755 41.01846800000001,16.824360000000002 40.67909800000001,17.016498000000002 M 35.78708800000001,17.205507 C 35.816488000000014,17.765569 36.33841800000001,16.957036000000002 35.78708800000001,17.205507 M 40.44561800000001,17.494581 C 40.35061800000001,17.974059 40.93175800000001,17.418641 40.44561800000001,17.494581 M 31.92907800000001,17.716945 C 31.97707800000001,18.351008 32.516548000000014,17.402457 31.92907800000001,17.716945 M 28.593617000000012,19.651511 C 29.351628000000012,19.942571 28.939805000000014,18.900655 28.593617000000012,19.651511 M 29.23846800000001,19.518093 C 29.10322400000001,20.270463 29.926418000000012,19.420323 29.23846800000001,19.518093 M 36.320768000000015,19.640393 C 36.07397800000002,20.072907999999998 36.799588000000014,19.750463 36.320768000000015,19.640393 M 30.328058000000016,20.396431 C 30.129208000000016,21.063638 30.971268000000016,20.332511 30.328058000000016,20.396431 M 27.826461000000016,20.763331 C 29.258298000000018,21.105359 27.780271000000017,19.836391000000003 27.826461000000016,20.763331 M 40.44561800000002,20.629912 C 39.859518000000016,21.07331 41.00473800000002,21.051026 40.44561800000002,20.629912 M 38.33315800000002,20.741094 C 38.27775800000002,21.226253 38.81556800000002,20.654884 38.33315800000002,20.741094 M 40.51232800000002,21.208058 C 40.80599800000002,22.161092 41.61894800000002,20.898205 40.51232800000002,21.208058 M 28.14888900000002,21.285888 C 28.09209900000002,21.908829 28.700937000000017,21.100751 28.14888900000002,21.285888 M 35.286768000000016,21.719497 C 36.058968000000014,22.280012 35.70557800000002,20.38466 35.286768000000016,21.719497 M 32.218148000000014,21.497133 C 31.776818000000013,22.036435 32.81520800000001,21.663174 32.218148000000014,21.497133 M 33.06312800000001,22.720135000000003 C 32.57993800000001,23.285299000000002 34.85497800000001,22.977445000000003 33.06312800000001,22.720135000000003 M 44.770598000000014,22.731255 C 44.223078000000015,23.055552000000002 45.24453800000001,23.058773000000002 44.770598000000014,22.731255 M 35.097768000000016,23.709657 C 35.009968000000015,24.267881 35.66794800000002,23.641507 35.097768000000016,23.709657 M 33.329968000000015,25.510805 C 32.98759800000001,26.061001 34.057718000000015,25.662078 33.329968000000015,25.510805 M 44.35921800000001,26.155661000000002 C 44.303818000000014,26.64082 44.841628000000014,26.069441 44.35921800000001,26.155661000000002 M 43.51423800000001,26.589270000000003 C 42.66620800000001,27.644188000000003 44.403618000000016,26.736376000000003 43.51423800000001,26.589270000000003 M 42.791558000000016,26.811634 C 42.77155800000001,27.570731000000002 43.457768000000016,26.562754 42.791558000000016,26.811634 M 27.904289000000016,27.601027000000002 C 27.383847000000017,29.266905 29.068853000000015,27.949106 28.082180000000015,27.678857 L 27.904289000000016,27.601027000000002 M 27.326142000000015,27.723327 L 27.367832000000014,27.765017 L 27.326142000000015,27.723327 M 28.649208000000016,28.879619 C 29.121794000000016,29.044378000000002 28.661038000000016,28.066976 28.649208000000016,28.879619 M 28.971636000000014,28.368182 C 29.219348000000014,29.711922 30.306158000000014,29.361800000000002 28.971636000000014,28.368182 M 29.371888000000013,29.646775 C 30.702408000000013,30.404736000000003 30.844368000000014,29.49972 29.371888000000013,29.646775 M 34.46402800000001,33.438081000000004 C 34.15545800000001,34.103595000000006 35.16253800000001,33.717014000000006 34.46402800000001,33.438081000000004 M 40.00088800000001,33.404721 C 39.79757800000001,33.730544 40.38382800000001,33.396721 40.00088800000001,33.404721 M 44.325868000000014,34.705551 C 44.05833800000001,36.586135 46.21177800000002,36.435287 44.80394800000001,34.905678 C 45.16851800000001,33.783007000000005 44.53282800000001,34.497054 44.325868000000014,34.705551 M 50.68547800000002,34.772261 C 50.67647800000002,35.369979 51.215218000000014,34.555916 50.68547800000002,34.772261 M 51.208038000000016,36.07309 C 51.015898000000014,36.412455 51.602288000000016,36.06029 51.208038000000016,36.07309 M 45.32650800000002,36.495582 C 44.913288000000016,36.751816 45.70484800000002,36.807263999999996 45.32650800000002,36.495582 M 47.772508000000016,36.595646 C 47.975768000000016,38.352862 49.282578000000015,36.851278 47.772508000000016,36.595646 M 26.670169000000016,37.140437000000006 C 26.662269000000016,37.52429800000001 27.006465000000016,36.94508700000001 26.670169000000016,37.140437000000006 M 44.325868000000014,37.829766000000006 C 44.244768000000015,38.31197000000001 44.80806800000001,37.748656000000004 44.325868000000014,37.829766000000006 M 44.34806800000001,38.185548000000004 C 44.152718000000014,38.521845000000006 44.73192800000001,38.177648000000005 44.34806800000001,38.185548000000004 M 44.80391800000001,38.385676000000004 L 44.84561800000001,38.427366000000006 L 44.80391800000001,38.385676000000004 M 27.22603900000001,39.208422000000006 C 27.35861500000001,41.240384000000006 28.84496600000001,39.05338700000001 27.437284000000012,39.41966800000001 L 27.459524000000012,39.13059500000001 L 27.226042000000014,39.208425000000005 L 27.22603900000001,39.208422000000006 M 40.56787800000001,39.84216000000001 C 38.85792800000001,41.095482000000004 42.89587800000001,40.57605100000001 41.07931800000001,40.231297000000005 L 40.85277800000001,39.986696 L 40.56787800000001,39.84216 L 40.56787800000001,39.84216000000001 M 42.680338000000006,40.142351000000005 C 42.96300800000001,40.64276100000001 43.261148000000006,39.76980700000001 42.680338000000006,40.142351000000005 M 44.93732800000001,40.05340100000001 C 44.89482800000001,40.67708300000001 45.48211800000001,39.859387000000005 44.93732800000001,40.05340100000001 M 22.145022000000008,42.52164200000001 C 23.02758100000001,43.468008000000005 22.82049600000001,41.484733000000006 22.145022000000008,42.52164200000001 M 49.47355800000001,43.84470700000001 L 49.51525800000001,43.88639700000001 L 49.47355800000001,43.84470700000001 M 48.59521800000001,44.22272600000001 C 47.62819800000001,46.33023700000001 50.44166800000001,42.83247300000001 48.59521800000001,44.22272600000001 M 46.70511800000001,44.61186300000001 C 46.51228800000001,45.43493300000001 48.31472800000002,44.642813000000004 46.70511800000001,44.61186300000001 M 48.239438000000014,45.278955 C 48.22693800000001,45.674108000000004 48.589148000000016,45.094566 48.239438000000014,45.278955 M 32.351528000000016,46.857739 L 32.393228000000015,46.899429000000005 L 32.351528000000016,46.857739 M 40.91253800000001,47.691604000000005 C 41.66405800000001,48.700915 41.378118000000015,46.507696 40.91253800000001,47.691604000000005 M 31.13964800000001,47.72496400000001 C 31.26918800000001,48.207913000000005 31.554768000000013,47.46390100000001 31.13964800000001,47.72496400000001 M 33.16315800000001,47.79167400000001 C 32.37538800000001,48.577200000000005 34.09726800000001,48.24457900000001 33.16315800000001,47.79167400000001 M 44.52595800000001,48.203047000000005 C 42.28812800000001,48.498501000000005 45.81080800000001,48.699138000000005 44.52595800000001,48.203047000000005 M 45.01515800000001,48.19192700000001 L 45.056858000000005,48.23361700000001 L 45.01515800000001,48.19192700000001 M 45.44876800000001,48.18080700000001 L 45.49046800000001,48.22249700000001 L 45.44876800000001,48.18080700000001 M 29.01606900000001,49.25927200000001 C 28.50363200000001,49.87801000000001 30.05478800000001,49.53020200000001 29.01606900000001,49.25927200000001 M 43.49196800000001,50.12649200000001 C 44.25629800000001,51.00565800000001 44.21790800000001,48.588552000000014 43.49196800000001,50.12649200000001 M 22.901099,49.948603 C 22.850168999999998,50.479206999999995 23.396784999999998,49.762834 22.901099,49.948603 M 42.59142799999999,50.448921 C 43.46048799999999,51.579091 44.37779799999999,49.861423 42.59142799999999,50.448921 M 32.01801799999999,51.171604 C 31.48668799999999,51.770315000000004 32.75982799999999,51.39524 32.01801799999999,51.171604 M 23.434772999999993,51.949878000000005 C 22.629441999999994,52.900408000000006 24.477306999999993,51.890728 23.434772999999993,51.949878000000005 M 23.923973999999994,52.38348800000001 C 23.907383999999993,52.91632200000001 24.511702999999994,52.147760000000005 23.923973999999994,52.38348800000001 M 40.456737999999994,52.65032500000001 C 40.45173799999999,53.25721700000001 41.001507999999994,52.43505300000001 40.456737999999994,52.65032500000001 M 23.979564999999994,57.21990500000001 C 23.316710999999994,57.67778300000001 24.578552999999992,57.65512200000001 23.979564999999994,57.21990500000001 M 24.468764999999994,57.92035100000001 C 25.679468999999994,57.05967100000001 24.893384999999995,56.578536000000014 24.468764999999994,57.92035100000001 M 52.553338,57.37555900000001 C 52.285867999999994,58.07153300000001 53.13252799999999,57.47616000000001 52.553338,57.37555900000001 M 26.636813999999998,57.63127800000001 C 26.197539,58.13691700000001 27.234175999999998,57.82666800000001 26.636813999999998,57.63127800000001 M 27.77087,57.60903800000001 C 27.684649999999998,58.09144600000001 28.25603,57.55358800000001 27.77087,57.60903800000001 M 51.997428,58.07600200000001 L 52.039128,58.11769200000001 L 51.997428,58.07600200000001 M 41.991048,58.54296600000001 C 41.935548,59.02812600000001 42.473458,58.45674600000001 41.991048,58.54296600000001 M 26.314386,58.77644900000001 C 25.571825,59.17555300000001 26.72778,59.23447600000001 26.314386,58.77644900000001 M 44.781718,58.73197900000001 C 44.783718,59.11582800000001 45.107307999999996,58.52759300000001 44.781718,58.73197900000001 M 51.586048,59.64367100000001 C 51.745377999999995,60.20154100000001 53.043178,59.02497800000001 51.919598,59.45883100000001 L 51.586048,59.64367100000001 M 50.429758,60.18846300000001 C 50.349558,60.744290000000014 50.971308,60.07988800000001 50.429758,60.18846300000001 M 40.912577999999996,62.21197500000001 C 40.058578,63.77540900000001 41.914888,61.805867000000006 40.912577999999996,62.21197500000001 M 40.245487999999995,62.52328500000001 C 40.219587999999995,63.20739400000001 40.839777999999995,62.26676600000001 40.245487999999995,62.52328500000001 M 41.40177799999999,62.52328500000001 C 41.582947999999995,63.105478000000005 42.09403799999999,62.22917300000001 41.40177799999999,62.52328500000001 M 23.078989999999994,62.57887500000001 C 22.745313999999993,63.79492100000001 25.385959999999994,63.78111900000001 23.078989999999994,62.57887500000001 M 31.651117999999993,63.95753100000001 C 31.243517999999995,64.23560300000001 32.03785799999999,64.24831300000001 31.651117999999993,63.95753100000001 M 44.548227999999995,64.63574100000001 C 44.21505799999999,65.06260600000002 45.053307999999994,64.755025 44.548227999999995,64.63574100000001 M 43.06950799999999,64.96928700000001 C 42.68353799999999,67.862149 47.05439799999999,64.51877 43.83666799999999,65.058237 L 43.46142799999999,64.980407 L 43.06950799999999,64.969287 L 43.06950799999999,64.96928700000001 M 34.11935799999999,66.114462 C 33.59708799999999,66.49774500000001 34.62627799999999,66.528609 34.11935799999999,66.114462" fill="#000000" stroke="#000000" stroke-width="0.01042331"/>
</svg>
