<?xml version="1.0" ?>
<svg xmlns="http://www.w3.org/2000/svg" xmlns:cc="http://creativecommons.org/ns#" xmlns:dc="http://purl.org/dc/elements/1.1/" xmlns:ev="http://www.w3.org/2001/xml-events" xmlns:inkscape="http://www.inkscape.org/namespaces/inkscape" xmlns:rdf="http://www.w3.org/1999/02/22-rdf-syntax-ns#" xmlns:sodipodi="http://sodipodi.sourceforge.net/DTD/sodipodi-0.dtd" xmlns:svg="http://www.w3.org/2000/svg" xmlns:xlink="http://www.w3.org/1999/xlink" baseProfile="full" height="518px" version="1.1" viewBox="0 0 80 80" width="600px" x="0px" y="0px">
	<defs/>
	<path d="M 35.978884,10.741135 C 36.475044000000004,12.723345 35.428714,9.7318952 34.746364,11.458985 L 35.166234,11.716315 C 32.905624,14.183354999999999 29.603584000000005,11.920565 27.689844,13.954495 C 25.887724000000002,13.968795 25.661374000000002,14.353905 24.774464000000002,15.796505 C 22.393254000000002,14.757864999999999 21.579994000000003,18.742024999999998 19.793594000000002,19.057265 C 18.301444000000004,18.667985 14.950244000000001,17.045435 14.250634000000002,19.666755000000002 C 14.657784000000001,21.593485 11.951084000000002,20.167375000000003 13.035044000000001,21.088895 C 11.045054,20.937385000000003 14.250434,22.456915000000002 12.114044000000002,21.725465 C 14.033784,22.793095 13.074874000000001,24.944655 14.091494,25.978335 C 16.640094,26.580285 16.854394,27.327275 19.441444,26.983995 C 19.940384,27.965555000000002 23.383774000000003,28.767415 24.205604,29.719925 C 23.246584000000002,33.520175 21.653824,30.448535 19.620904000000003,29.445655 C 19.765964000000004,29.968155 17.180864000000003,27.816004999999997 17.101684000000002,29.123974999999998 C 16.707484,32.003675 12.043644000000002,32.406115 10.827344000000004,33.048404999999995 C 11.888374000000004,33.492284999999995 10.372574000000004,34.42299499999999 10.299124000000004,34.243674999999996 C 9.817183800000004,34.447565 8.044023800000005,34.892314999999996 8.521443800000004,35.503285 C 8.677083800000004,36.163315 5.046513800000003,36.458304999999996 6.560923800000004,37.843045 C 3.9488538000000037,38.669064999999996 6.049583800000004,43.91764499999999 8.172683800000003,41.486425 C 12.495954000000003,42.223994999999995 14.074084000000003,40.993745 18.252934000000003,40.419824999999996 C 22.975964000000005,40.176885 14.919904000000002,45.352624999999996 14.768694000000004,43.11172499999999 C 13.252054000000003,43.37611499999999 13.041914000000004,43.44293499999999 12.967324000000003,44.26637499999999 C 9.862433800000003,43.97160499999999 7.1991638000000036,45.20728499999999 4.001073800000004,43.70767499999999 C 3.946673800000004,43.81457499999999 -1.2926461999999965,45.809654999999985 1.847553800000004,47.96054499999999 C 0.6729238100000041,46.72989499999999 2.438453800000004,47.50291499999999 2.903993800000004,47.77092499999999 C 0.982753810000004,50.64847499999999 7.3566338000000036,53.90857499999999 8.172683800000005,52.24050499999999 C 10.273294000000005,52.978424999999994 12.071274000000006,52.32260499999999 12.574544000000005,54.38048499999999 C 10.731864000000005,55.512634999999996 8.642253800000004,55.07736499999999 8.741533800000004,55.470794999999995 C 8.450683800000004,57.09493499999999 3.6099838000000046,56.379625 3.1681038000000044,58.044185 C 1.8896138000000045,58.501825 5.655373800000005,61.336165 5.369033800000004,59.757525 C 6.686123800000004,60.908795 5.883463800000004,59.215815 6.909683800000004,59.821825000000004 C 10.079024000000004,58.882795 9.704273800000005,62.617195 12.076794000000003,61.707845000000006 C 13.934164000000003,63.645425 11.376584000000003,62.274015000000006 10.326204000000002,64.321875 C 11.566944000000003,63.077245000000005 10.453144000000002,65.254085 11.619674000000002,65.324145 C 9.746763800000002,65.923225 10.526604000000003,68.136425 12.412014000000001,68.696645 C 12.654734000000001,67.27863500000001 14.627784000000002,68.52680500000001 16.380454,67.917855 C 17.571574000000002,66.677615 19.165804,66.159245 21.161554000000002,66.069075 C 21.735154,66.691445 25.559104,65.873825 25.509234000000003,65.188705 C 27.940454000000003,63.680165 30.096744,63.791914999999996 32.494644,63.427955 C 36.093164,62.824675 34.424404,66.489835 34.671874,68.865945 C 34.656874,71.676675 35.257174,75.482385 31.709084000000004,76.437145 C 27.095734000000004,77.588465 33.563174000000004,77.152655 35.115444000000004,78.221585 C 38.548184000000006,78.808105 41.461844000000006,76.16966500000001 44.02074400000001,76.955205 C 45.74213400000001,75.49496500000001 39.74468400000001,76.537665 39.493604000000005,74.178655 C 39.261704,71.577055 37.98228400000001,66.422685 40.231754,65.229335 C 40.855024,67.449285 43.083874,64.33111500000001 42.408984000000004,66.651475 C 40.68471400000001,69.105095 44.379764,66.102005 44.061374,67.965255 C 46.216674,68.485395 48.575014,69.35169499999999 50.891024,68.581515 C 51.870164,67.13884499999999 55.067644,68.103295 54.009574,66.519415 C 55.996644,63.611444999999996 60.452844,68.923075 62.958894,66.13002499999999 C 64.990854,65.88598499999999 69.676434,65.59786499999998 66.818984,62.46632499999999 C 68.675254,61.24581499999999 63.168024,61.98053499999999 65.589844,61.25411499999999 C 68.09837399999999,58.74393499999999 70.325114,63.88480499999999 72.229884,61.52500499999999 C 73.959484,60.508374999999994 75.795624,61.743494999999996 77.830404,60.47532499999999 C 80.836484,59.13831499999999 78.029534,55.21672499999999 78.304444,54.40753499999999 C 76.204114,54.615484999999985 79.297314,52.92718499999999 77.30217400000001,53.947034999999985 C 76.21420400000001,50.77588499999999 71.91701400000001,54.52718499999999 70.80097400000001,53.249504999999985 C 72.85675400000001,52.74703499999998 73.78531400000001,50.944234999999985 70.814474,50.47972499999999 C 73.592504,49.71987499999999 70.449134,47.488174999999984 68.992784,48.678344999999986 C 65.540884,48.829664999999984 70.039234,48.790354999999984 69.189174,47.12415499999999 C 67.016684,46.03231499999999 69.657184,45.534064999999984 71.241114,46.125264999999985 C 74.70497399999999,47.030954999999985 77.875044,44.224564999999984 75.971424,41.476224999999985 C 76.763364,40.684184999999985 74.591284,39.868974999999985 75.277284,38.99425499999999 C 76.020844,38.10665499999999 72.11958399999999,34.72673499999999 69.151924,34.07094499999999 C 66.104174,31.949044999999987 66.800624,38.61055499999999 65.464524,35.43213499999999 C 63.512864,36.454264999999985 64.842874,35.14488499999999 64.347134,34.35876499999999 C 65.609664,31.33279499999999 55.314893999999995,32.70474499999999 60.480264,30.71876499999999 C 60.502863999999995,27.86769499999999 63.532984,27.94412499999999 64.706054,26.967024999999992 C 66.414914,27.924844999999994 66.52556399999999,27.21837499999999 67.712854,27.403824999999994 C 67.439084,27.237214999999996 69.717244,25.005514999999995 68.024374,25.382354999999993 C 68.08927399999999,25.399554999999992 61.885884,22.035914999999992 65.352784,21.776214999999993 C 68.341284,22.027414999999994 65.720034,19.372524999999992 66.710584,18.840514999999993 C 64.71925399999999,15.744704999999993 62.517013999999996,21.44593499999999 60.290644,18.867614999999994 C 62.505274,15.914864999999994 57.691394,19.357264999999995 56.227394000000004,18.569644999999994 C 56.605954000000004,20.583034999999995 53.286274000000006,20.481524999999994 54.155134000000004,21.725434999999994 C 52.284614000000005,20.420754999999993 48.521024000000004,22.515654999999995 48.94062400000001,19.470334999999995 C 49.807584000000006,19.667214999999995 54.23210400000001,20.011514999999996 53.626914000000006,17.784084999999994 C 53.35182400000001,15.642454999999995 51.748484000000005,15.696904999999994 49.25214400000001,15.671194999999994 C 49.00694400000001,17.278304999999992 44.04848400000001,14.344104999999994 48.60879400000001,14.140694999999994 C 50.04461400000001,12.552094999999994 45.65174400000001,12.426844999999993 44.26788400000001,11.662114999999993 C 45.148314000000006,14.115574999999993 39.45643400000001,13.683254999999992 42.114354000000006,12.691474999999993 C 41.48007400000001,10.687614999999994 39.877954,11.264244999999994 37.65832400000001,11.824644999999993 C 36.52399400000001,10.210084999999992 36.925734000000006,12.420924999999993 35.97884400000001,10.741104999999994 L 35.978884,10.741135 M 67.712894,27.403865 C 67.728094,27.412865 67.748694,27.418264999999998 67.78059400000001,27.414065 C 67.75679400000001,27.410065 67.73579400000001,27.407065 67.712894,27.403865 M 10.299124000000006,34.243674999999996 C 10.430344000000007,34.188174999999994 10.472504000000006,34.149874999999994 10.339724000000006,34.131935 C 10.301424000000006,34.186835 10.290424000000005,34.222435 10.299124000000006,34.243674999999996 M 27.473539000000006,61.24645199999999 C 27.829819000000008,59.56733199999999 33.071631000000004,60.35883199999999 32.06717100000001,60.33266499999999 C 31.40231200000001,60.31534499999999 27.54226700000001,61.85005999999999 27.47353900000001,61.24645199999999 L 27.473539000000006,61.24645199999999 M 42.876254,61.51488499999999 C 44.996244000000004,61.51188499999999 43.589834,64.34044499999999 41.237414,63.593914999999996 C 37.915174,63.688314999999996 41.563884,61.395205 42.100854,61.613074999999995 C 42.398424,61.544974999999994 42.656954,61.51517499999999 42.876253999999996,61.514874999999996 L 42.876254,61.51488499999999" fill="#000000" stroke="#000000" stroke-width="0.01269767"/>
</svg>
