<?xml version="1.0" ?>
<svg xmlns="http://www.w3.org/2000/svg" xmlns:ev="http://www.w3.org/2001/xml-events" xmlns:xlink="http://www.w3.org/1999/xlink" baseProfile="full" enable-background="new 0 0 100 100" height="600px" version="1.1" viewBox="0 0 100 100" width="600px" x="0px" xml:space="preserve" y="0px">
	<defs/>
	<path d="M 97.917,41.667 L 85.417,41.667 L 83.333,41.667 L 83.333,43.75 L 83.333,47.135 L 16.667,30.208 L 16.667,27.604 L 54.167,13.020999999999999 L 54.167,14.582999999999998 L 54.167,16.665999999999997 L 56.25,16.665999999999997 L 68.75,16.665999999999997 L 70.833,16.665999999999997 L 70.833,14.582999999999997 L 70.833,2.0829999999999966 L 70.833,0.0 L 68.75,0.0 L 56.25,0.0 L 54.167,0.0 L 54.167,2.083 L 54.167,8.593 L 16.667,23.305999999999997 L 16.667,22.915 L 16.667,20.832 L 14.584000000000001,20.832 L 2.0840000000000014,20.832 L 0.0,20.832 L 0.0,22.915 L 0.0,35.415 L 0.0,37.5 L 2.083,37.5 L 14.583,37.5 L 16.666,37.5 L 16.666,35.417 L 16.666,34.506 L 83.333,51.433 L 83.333,54.558 L 42.318,83.333 L 31.25,83.333 L 29.167,83.333 L 29.167,85.417 L 29.167,97.917 L 29.167,100.0 L 31.25,100.0 L 43.75,100.0 L 45.833,100.0 L 45.833,97.917 L 45.833,86.06700000000001 L 85.156,58.333000000000006 L 85.417,58.333000000000006 L 97.917,58.333000000000006 L 100.0,58.333000000000006 L 100.0,56.25 L 100.0,43.75 L 100.0,41.667 L 97.917,41.667 M 58.333,4.167 L 66.667,4.167 L 66.667,12.5 L 58.333,12.5 L 58.333,4.167 M 12.5,33.333 L 4.167,33.333 L 4.167,25.0 L 12.5,25.0 L 12.5,33.333 M 41.667,95.833 L 33.334,95.833 L 33.334,87.5 L 41.667,87.5 L 41.667,95.833 M 95.833,54.167 L 87.5,54.167 L 87.5,45.834 L 95.833,45.834 L 95.833,54.167" fill="#010101"/>
</svg>
