<?xml version="1.0" ?>
<svg xmlns="http://www.w3.org/2000/svg" xmlns:ev="http://www.w3.org/2001/xml-events" xmlns:graph="http://ns.adobe.com/Graphs/1.0/" xmlns:i="http://ns.adobe.com/AdobeIllustrator/10.0/" xmlns:x="http://ns.adobe.com/Extensibility/1.0/" xmlns:xlink="http://www.w3.org/1999/xlink" baseProfile="full" enable-background="new 0 0 100 100" height="600px" version="1.1" viewBox="0 0 100 100" width="581px" x="0px" xml:space="preserve" y="0px">
	<defs/>
	<path d="M 97.979,86.293 C 93.6,74.754 86.194,72.055 80.227,70.991 C 75.248,70.098 69.043,68.245 66.846,67.036 C 66.774,66.036 66.73700000000001,64.007 66.936,60.692 C 67.057,60.555 67.18,60.438 67.301,60.294 L 67.238,60.236999999999995 C 70.179,56.28999999999999 71.586,52.583 72.22,50.077999999999996 C 74.12,48.73799999999999 76.116,46.126999999999995 77.28999999999999,41.07599999999999 C 77.97,38.147999999999996 78.47899999999998,34.45099999999999 76.37799999999999,31.802999999999994 C 76.32499999999999,31.739999999999995 76.27599999999998,31.678999999999995 76.22599999999998,31.615999999999993 C 78.10699999999999,13.067999999999994 66.21799999999999,3.696999999999992 59.23599999999999,1.2589999999999932 L 59.13399999999999,1.2249999999999932 L 59.04,1.196 C 56.409,0.404 53.872,0.0 51.516,0.0 C 50.961,0.0 50.440999999999995,0.024 49.937,0.063 C 49.425,0.021 48.897,0.0 48.37,0.0 C 46.007,0.0 43.474,0.403 40.842999999999996,1.195 L 40.745999999999995,1.226 L 40.65,1.258 C 33.664,3.696 21.778,13.068000000000001 23.659,31.615 C 23.604,31.677999999999997 23.555,31.738999999999997 23.508,31.802 C 21.403,34.45 21.916,38.147999999999996 22.595,41.075 C 23.77,46.126000000000005 25.761,48.737 27.665999999999997,50.077000000000005 C 28.292999999999996,52.562000000000005 29.694999999999997,56.221000000000004 32.581999999999994,60.135000000000005 L 32.581999999999994,60.13700000000001 C 32.584999999999994,60.141000000000005 32.61299999999999,60.17600000000001 32.61599999999999,60.18200000000001 C 32.78099999999999,60.40700000000001 32.89799999999999,60.62000000000001 33.07399999999999,60.84400000000001 C 33.26099999999999,64.02000000000001 33.224999999999994,66.00000000000001 33.13899999999999,67.045 C 30.93099999999999,68.244 24.742999999999988,70.10000000000001 19.77299999999999,70.99 C 13.807,72.055 6.399,74.754 2.021,86.29 C 1.281,88.253 1.5419999999999998,90.38000000000001 2.7489999999999997,92.126 C 7.24,98.633 30.925,100.0 50.0,100.0 C 69.075,100.0 92.75999999999999,98.633 97.25200000000001,92.125 C 98.458,90.379 98.719,88.252 97.979,86.293 M 31.775,46.643 C 31.189999999999998,46.643 28.709999999999997,46.257 27.255,39.988 C 26.121,35.116 27.307,34.344 28.177999999999997,34.344 C 28.580999999999996,34.344 28.914999999999996,34.509 28.914999999999996,34.509 C 24.597,11.924 42.225,5.778 42.225,5.778 C 44.65,5.048 46.686,4.786 48.371,4.786 C 48.933,4.786 49.457,4.813 49.938,4.869 C 50.427,4.813 50.952000000000005,4.786 51.517,4.786 C 53.199000000000005,4.786 55.234,5.048 57.663000000000004,5.778 C 57.663000000000004,5.778 75.286,11.924 70.968,34.509 C 70.968,34.509 71.304,34.344 71.708,34.344 C 72.579,34.344 73.765,35.115 72.628,39.988 C 71.173,46.257999999999996 68.69,46.643 68.105,46.643 C 68.025,46.643 67.98,46.636 67.98,46.636 C 67.98,46.636 67.667,52.514 62.259,58.852000000000004 C 62.259,58.901 62.251,58.956 62.251,59.004000000000005 C 58.042,63.287000000000006 53.748999999999995,65.363 49.442,65.20100000000001 C 44.088,64.97800000000001 39.858000000000004,61.32600000000001 37.756,59.11300000000001 C 37.753,59.080000000000005 37.749,59.031000000000006 37.749,58.998000000000005 C 32.230000000000004,52.60300000000001 31.903000000000002,46.636 31.903000000000002,46.636 C 31.903000000000002,46.636 31.858,46.643 31.775,46.643 M 37.55,69.387 C 37.852999999999994,68.588 37.962999999999994,67.1 37.983999999999995,65.426 C 40.83,67.561 44.635999999999996,69.58 49.214999999999996,69.78 C 49.465999999999994,69.794 49.717999999999996,69.801 49.968999999999994,69.801 C 54.102,69.801 58.129999999999995,68.268 62.01199999999999,65.305 C 62.029999999999994,67.028 62.14099999999999,68.569 62.449999999999996,69.387 C 62.913,70.627 65.634,71.907 68.872,72.998 C 64.176,77.6 57.475,80.502 50.0,80.502 C 42.527,80.502 35.83,77.594 31.135,72.99799999999999 C 34.366,71.903 37.088,70.627 37.55,69.387" fill="#000000"/>
</svg>
