<?xml version="1.0" ?>
<svg xmlns="http://www.w3.org/2000/svg" xmlns:ev="http://www.w3.org/2001/xml-events" xmlns:graph="http://ns.adobe.com/Graphs/1.0/" xmlns:i="http://ns.adobe.com/AdobeIllustrator/10.0/" xmlns:x="http://ns.adobe.com/Extensibility/1.0/" xmlns:xlink="http://www.w3.org/1999/xlink" baseProfile="full" enable-background="new 0 0 100 100" height="600px" version="1.1" viewBox="0 0 100 100" width="550px" x="0px" xml:space="preserve" y="0px">
	<defs/>
	<path d="M 94.103,80.545 L 94.103,80.46900000000001 L 94.04499999999999,80.418 C 89.87599999999999,70.56800000000001 78.66899999999998,63.10900000000001 71.02399999999999,58.986000000000004 C 71.18999999999998,58.748000000000005 71.35499999999999,58.517 71.46799999999999,58.341 C 73.25599999999999,55.534 74.255,52.997 74.77199999999999,51.124 C 76.89099999999999,49.757000000000005 79.11699999999999,47.093 80.42599999999999,41.95 C 81.18399999999998,38.970000000000006 81.75199999999998,35.2 79.40899999999999,32.507000000000005 C 79.35,32.441 79.29499999999999,32.38 79.24,32.31400000000001 C 79.96,25.841000000000008 78.85,20.492000000000008 76.80099999999999,16.117000000000008 C 76.86599999999999,15.992000000000008 76.96,15.888000000000009 77.01499999999999,15.758000000000008 C 79.26099999999998,18.803000000000008 82.60299999999998,21.93800000000001 87.25399999999999,22.82100000000001 L 86.919,20.637000000000008 C 89.548,24.40500000000001 94.96,32.147000000000006 95.04299999999999,32.26400000000001 C 95.04599999999999,32.26800000000001 95.04599999999999,32.26800000000001 95.05,32.27400000000001 C 95.387,20.29200000000001 91.192,15.036000000000008 89.92,13.72300000000001 C 83.881,8.31300000000001 77.952,8.27600000000001 75.251,8.62700000000001 C 74.266,7.828000000000009 73.046,7.33200000000001 71.702,7.33200000000001 C 71.27499999999999,7.33200000000001 70.861,7.387000000000009 70.462,7.477000000000009 C 67.048,4.331000000000009 63.275000000000006,2.336000000000009 60.29600000000001,1.3890000000000091 L 60.18300000000001,1.3580000000000092 L 60.07600000000001,1.3250000000000093 C 57.141000000000005,0.5180000000000092 54.31600000000001,0.1080000000000092 51.68700000000001,0.1080000000000092 C 51.07100000000001,0.1080000000000092 50.48900000000001,0.1310000000000092 49.927000000000014,0.1720000000000092 C 49.35500000000001,0.12700000000000922 48.76900000000001,0.1080000000000092 48.180000000000014,0.1080000000000092 C 45.54400000000001,0.1080000000000092 42.72300000000001,0.5180000000000091 39.78700000000001,1.3250000000000093 L 39.68100000000001,1.3580000000000092 L 39.57100000000001,1.3890000000000091 C 36.60100000000001,2.336000000000009 32.83700000000001,4.321000000000009 29.432000000000013,7.450000000000009 C 29.064000000000014,7.374000000000009 28.688000000000013,7.333000000000009 28.299000000000014,7.333000000000009 C 26.955000000000013,7.333000000000009 25.736000000000015,7.8290000000000095 24.750000000000014,8.628000000000009 C 22.049000000000014,8.276000000000009 16.12000000000001,8.314000000000009 10.081000000000014,13.724000000000009 C 8.813000000000013,15.03700000000001 4.610000000000014,20.29200000000001 4.951000000000014,32.275000000000006 C 4.955000000000013,32.269000000000005 4.955000000000013,32.269000000000005 4.9580000000000135,32.26500000000001 C 5.041000000000014,32.14800000000001 10.453000000000014,24.406000000000006 13.082000000000015,20.638000000000005 L 12.747000000000014,22.822000000000006 C 17.398000000000014,21.939000000000007 20.740000000000016,18.804000000000006 22.986000000000015,15.759000000000007 C 23.020000000000014,15.841000000000008 23.086000000000016,15.911000000000007 23.124000000000017,15.993000000000007 C 21.036000000000016,20.389000000000006 19.902000000000015,25.78000000000001 20.626000000000015,32.315000000000005 C 20.567000000000014,32.38100000000001 20.513000000000016,32.44200000000001 20.457000000000015,32.508 C 18.111000000000015,35.201 18.684000000000015,38.971000000000004 19.441000000000017,41.951 C 20.750000000000018,47.094 22.968000000000018,49.76 25.094000000000015,51.125 C 25.652000000000015,53.15 26.813000000000017,55.955 28.887000000000015,59.031 C 18.431000000000015,64.691 1.3850000000000158,76.511 4.716000000000015,92.162 L 4.986000000000015,93.41600000000001 L 6.1950000000000145,93.84800000000001 C 6.890000000000015,94.09200000000001 23.503000000000014,99.89300000000001 48.927000000000014,99.89300000000001 C 63.89200000000001,99.89300000000001 78.93300000000002,97.89500000000001 93.62200000000001,93.96100000000001 L 94.97600000000001,93.60000000000001 L 95.27200000000002,92.23100000000001 C 96.181,88.041 95.599,84.143 94.103,80.545 M 24.638,40.846 C 24.083000000000002,38.672 24.041,37.33 24.235000000000003,36.473 L 26.492000000000004,38.583999999999996 L 28.686000000000003,45.412 C 28.686000000000003,45.412 27.211000000000002,26.238 37.536,24.764 C 37.536,24.764 48.502,36.077 62.120000000000005,38.53 C 62.120000000000005,38.53 59.172000000000004,33.122 56.712,28.206000000000003 C 56.712,28.206000000000003 64.58,37.056000000000004 71.46300000000001,38.53 C 71.46300000000001,38.53 72.44500000000001,37.276 73.56800000000001,35.196 C 73.71900000000001,35.147 73.92900000000002,35.092 74.20200000000001,35.092 C 75.174,35.092 76.49600000000001,35.885 75.22800000000001,40.846 C 73.60600000000001,47.233 70.83500000000001,47.625 70.185,47.625 C 70.095,47.625 70.043,47.615 70.043,47.615 C 70.043,47.615 69.923,49.306000000000004 68.944,51.834 C 67.569,55.6 64.558,61.006 58.06100000000001,64.313 C 56.486000000000004,65.17 54.90200000000001,65.778 53.31700000000001,66.139 C 53.26800000000001,66.149 53.227000000000004,66.166 53.18200000000001,66.17999999999999 L 53.17900000000001,66.172 C 51.91400000000001,66.445 50.64300000000001,66.572 49.37500000000001,66.53099999999999 C 43.40500000000001,66.30199999999999 38.68800000000001,62.57999999999999 36.346000000000004,60.32999999999999 C 36.343,60.29299999999999 36.339000000000006,60.24799999999999 36.339000000000006,60.20899999999999 C 30.183000000000007,53.694999999999986 29.818000000000005,47.61499999999999 29.818000000000005,47.61499999999999 C 29.818000000000005,47.61499999999999 29.770000000000007,47.624999999999986 29.677000000000007,47.624999999999986 C 29.026,47.625 26.26,47.232 24.638,40.846 M 50.003,92.785 C 47.95,92.785 46.282,91.121 46.282,89.068 C 46.282,87.015 47.949999999999996,85.355 50.003,85.355 C 52.057,85.355 53.717,87.015 53.717,89.068 C 53.717,91.121 52.057,92.785 50.003,92.785 M 51.357,78.83 C 39.864,78.83 29.543,74.92399999999999 22.112,68.715 C 25.45,66.274 28.887999999999998,64.25 31.729999999999997,62.735 C 34.004,65.063 42.699,72.94 54.357,70.59 C 54.75,70.506 55.132,70.41 55.513999999999996,70.307 C 55.86299999999999,70.217 56.217,70.114 56.568999999999996,70.004 C 57.236999999999995,69.789 57.888,69.55300000000001 58.51199999999999,69.29100000000001 C 59.035,69.06600000000002 59.55899999999999,68.84200000000001 60.07899999999999,68.58000000000001 C 60.43699999999999,68.39800000000001 60.77799999999999,68.20900000000002 61.12299999999999,68.01200000000001 C 61.67099999999999,67.70900000000002 62.21099999999999,67.37900000000002 62.75199999999999,67.02400000000002 C 64.94299999999998,65.58100000000002 66.707,63.96100000000001 68.12299999999999,62.47300000000001 C 69.65899999999999,63.244000000000014 71.22999999999999,64.14100000000002 72.47099999999999,65.11200000000001 C 72.478,65.12 72.48199999999999,65.126 72.48899999999999,65.13300000000001 C 74.704,66.46900000000001 77.04999999999998,68.02600000000001 79.29999999999998,69.77400000000002 C 71.982,75.363 62.188,78.83 51.357,78.83" fill="#000000"/>
</svg>
