<?xml version="1.0" ?>
<svg xmlns="http://www.w3.org/2000/svg" xmlns:ev="http://www.w3.org/2001/xml-events" xmlns:xlink="http://www.w3.org/1999/xlink" baseProfile="full" enable-background="new 0 0 97.341 100" height="600px" version="1.1" viewBox="0 0 97.341 100" width="585px" x="0px" xml:space="preserve" y="0px">
	<defs/>
	<path d="M 0.0,100.0 L 66.852,100.0 L 66.852,19.372 L 0.0,19.372 L 0.0,100.0 M 4.572,24.886 L 62.28,24.886 L 62.28,81.52 L 4.572,81.52 L 4.572,24.886"/>
	<path d="M 30.898,0.0 L 28.983,17.223 L 33.583,17.223 L 34.833,5.986 L 92.188,12.363 L 85.929,68.65 L 68.781,66.743 L 68.781,85.336 L 88.431,87.522 L 97.341,7.387 L 30.898,0.0" points="30.898,0 28.983,17.223 33.583,17.223 34.833,5.986 92.188,12.363 85.929,68.65 68.781,66.743 68.781,85.336    88.431,87.522 97.341,7.387  "/>
</svg>
