<?xml version="1.0" ?>
<svg xmlns="http://www.w3.org/2000/svg" xmlns:ev="http://www.w3.org/2001/xml-events" xmlns:xlink="http://www.w3.org/1999/xlink" baseProfile="full" enable-background="new 0 0 100 100" height="572px" version="1.1" viewBox="0 0 100 100" width="600px" x="0px" xml:space="preserve" y="0px">
	<defs/>
	<path d="M 99.295,38.587 C 98.923,37.447 97.907,36.639 96.71300000000001,36.538000000000004 L 65.2,33.831 L 52.909,4.732 C 52.374,3.4690000000000003 51.071,2.761 49.777,2.9350000000000005 C 48.558,2.8870000000000005 47.434,3.6140000000000008 46.954,4.789000000000001 L 35.181,33.594 L 3.316,36.016 C 2.122,36.108 1.0989999999999998,36.903999999999996 0.7129999999999996,38.041 C 0.6819999999999996,38.132 0.7259999999999996,38.224 0.7069999999999996,38.315 L 0.5559999999999996,38.327999999999996 L 0.7009999999999996,38.45399999999999 C 0.5119999999999996,39.474 0.7769999999999996,40.52499999999999 1.5659999999999996,41.227 L 25.465999999999998,62.348 L 18.354,93.37 C 18.102,94.48700000000001 18.531,95.631 19.415,96.342 L 19.339,96.687 L 19.654,96.5 C 20.595,97.105 21.789,97.183 22.768,96.614 L 50.155,80.604 L 77.314,96.676 C 77.782,96.95100000000001 78.306,97.09 78.829,97.09 C 79.30399999999999,97.09 79.752,96.875 80.181,96.64800000000001 L 80.372,96.75900000000001 L 80.334,96.59700000000001 C 80.408,96.55300000000001 80.51100000000001,96.572 80.58,96.519 C 81.545,95.81800000000001 82.0,94.614 81.736,93.453 L 74.75,62.37 L 98.417,41.763999999999996 C 99.32,40.975 99.669,39.724 99.295,38.587 M 68.586,60.921 L 49.979,55.995 L 73.425,87.442 L 51.686,74.574 C 51.211,74.29899999999999 50.687,74.15899999999999 50.163,74.15899999999999 C 50.101,74.15899999999999 50.043,74.204 49.979,74.211 L 49.979,55.995 L 26.041,87.783 L 25.713,87.976 L 31.681,61.953 C 31.77,61.572 31.694000000000003,61.195 31.631,60.823 L 49.979,55.995 L 11.886,42.379 L 10.812999999999999,41.428999999999995 L 37.473,39.404999999999994 C 37.877,39.373 38.224,39.17999999999999 38.566,39.00399999999999 L 49.979,55.99499999999999 L 49.922,13.303999999999988 L 49.985,13.151999999999989 L 60.4,37.813 C 60.632999999999996,38.365 61.04,38.795 61.524,39.111000000000004 L 49.979,55.995 L 88.345,42.617 L 69.489,59.039 C 68.928,59.524 68.675,60.208 68.586,60.921 M 49.91,3.235 L 49.916,3.2439999999999998 L 49.91,3.2439999999999998 L 49.91,3.235"/>
</svg>
