<?xml version="1.0" ?>
<svg xmlns="http://www.w3.org/2000/svg" xmlns:ev="http://www.w3.org/2001/xml-events" xmlns:graph="http://ns.adobe.com/Graphs/1.0/" xmlns:i="http://ns.adobe.com/AdobeIllustrator/10.0/" xmlns:x="http://ns.adobe.com/Extensibility/1.0/" xmlns:xlink="http://www.w3.org/1999/xlink" baseProfile="full" enable-background="new 0 0 283.46 283.46" height="600px" version="1.1" viewBox="0 0 283.46 283.46" width="600px" x="0px" xml:space="preserve" y="0px">
	<defs/>
	<path d="M 151.472,142.36 L 147.82000000000002,59.87000000000002 C 147.693,56.50100000000002 144.91000000000003,50.42800000000002 138.26900000000003,50.42800000000002 C 131.61900000000003,50.42800000000002 128.92300000000003,56.50100000000002 128.70800000000003,59.87000000000002 L 124.08900000000003,150.202 C 123.95200000000003,152.242 124.43100000000003,154.156 125.14400000000003,155.904 C 125.26100000000004,159.20499999999998 126.35500000000003,162.32 128.80600000000004,164.498 L 185.63100000000003,214.869 C 188.20900000000003,217.125 194.68400000000003,219.185 200.06500000000003,213.814 C 205.41700000000003,208.453 203.30700000000002,201.97799999999998 201.12000000000003,199.4 L 151.472,142.36" fill="#000000"/>
	<path d="M 141.735,-0.002 C 63.581,-0.002 -0.002,63.581 -0.002,141.735 C -0.002,219.88800000000003 63.580999999999996,283.462 141.73499999999999,283.462 C 219.88799999999998,283.462 283.462,219.88899999999998 283.462,141.73499999999999 C 283.462,63.581 219.889,-0.002 141.735,-0.002 M 141.735,262.574 C 75.10400000000001,262.574 20.88600000000001,208.35500000000002 20.88600000000001,141.735 C 20.88600000000001,75.10400000000001 75.10400000000001,20.88600000000001 141.735,20.88600000000001 C 208.365,20.88600000000001 262.573,75.10400000000001 262.573,141.735 C 262.573,208.355 208.365,262.574 141.735,262.574" fill="#000000"/>
</svg>
