<?xml version="1.0" ?>
<svg xmlns="http://www.w3.org/2000/svg" xmlns:ev="http://www.w3.org/2001/xml-events" xmlns:graph="http://ns.adobe.com/Graphs/1.0/" xmlns:i="http://ns.adobe.com/AdobeIllustrator/10.0/" xmlns:x="http://ns.adobe.com/Extensibility/1.0/" xmlns:xlink="http://www.w3.org/1999/xlink" baseProfile="full" enable-background="new 0 0 283.46 283.46" height="600px" version="1.1" viewBox="0 0 283.46 283.46" width="600px" x="0px" xml:space="preserve" y="0px">
	<defs/>
	<path d="M 81.426,7.522 C 71.348,-2.556 54.893,-2.527 44.678,7.708 L 7.754,44.622 C -2.413,54.837 -2.51,71.283 7.568,81.38 L 18.886,92.86399999999999 L 92.734,18.986999999999995 L 81.426,7.522" fill="#000000"/>
	<path d="M 260.422,184.946 L 138.751,62.591 L 138.751,62.591 L 107.90100000000001,31.995 L 31.045000000000016,108.851 L 184.87500000000003,260.493 L 283.391,283.46299999999997 L 260.422,184.946 M 108.086,65.032 L 221.125,178.784 L 201.848,198.27599999999998 L 204.28900000000002,195.766 L 89.922,83.177 L 108.086,65.032 M 64.395,108.666 L 85.713,87.328 L 81.699,91.488 L 196.036,204.087 L 178.673,221.607 L 64.395,108.666 M 196.564,239.097 L 182.892,225.71800000000002 L 225.255,182.96400000000003 L 239.083,196.77300000000002 L 251.954,252.02700000000002 L 196.564,239.097" fill="#000000"/>
	<path d="M 105.088,29.241 L 28.018,106.283 L 45.645,122.806 L 122.247,46.214 L 105.088,29.241" fill="#000000" points="105.088,29.241 28.018,106.283 45.645,122.806 122.247,46.214    "/>
</svg>
