<?xml version="1.0" ?>
<svg xmlns="http://www.w3.org/2000/svg" xmlns:ev="http://www.w3.org/2001/xml-events" xmlns:graph="http://ns.adobe.com/Graphs/1.0/" xmlns:i="http://ns.adobe.com/AdobeIllustrator/10.0/" xmlns:x="http://ns.adobe.com/Extensibility/1.0/" xmlns:xlink="http://www.w3.org/1999/xlink" baseProfile="full" enable-background="new 0 0 283.46 283.46" height="557px" version="1.1" viewBox="0 0 283.46 283.46" width="600px" x="0px" xml:space="preserve" y="0px">
	<defs/>
	<path d="M 271.354,45.046 L 12.107,45.046 C 5.417999999999999,45.046 -0.002000000000000668,50.466 -0.002000000000000668,57.155 C -0.002000000000000668,63.844 5.417999999999999,69.264 12.107,69.264 L 271.35299999999995,69.264 C 278.04099999999994,69.264 283.46099999999996,63.843999999999994 283.46099999999996,57.154999999999994 C 283.46099999999996,50.465999999999994 278.042,45.046 271.354,45.046" fill="#000000"/>
	<path d="M 129.138,87.604 L 21.648,87.604 L 49.49,215.787 C 49.49,215.787 56.725,272.721 133.971,272.779 C 135.055,272.85699999999997 136.1,273.082 137.203,273.082 C 138.41400000000002,273.082 139.693,272.83799999999997 140.924,272.75 C 141.832,272.76 142.75,272.789 143.649,272.789 C 143.727,272.789 143.786,272.779 143.844,272.779 C 144.96699999999998,272.847 146.119,273.082 147.213,273.082 C 150.279,273.082 153.248,272.779 156.148,272.21299999999997 C 221.76299999999998,266.43199999999996 228.257,215.78699999999998 228.257,215.78699999999998 L 256.109,87.60399999999998 L 148.62,87.60399999999998 L 129.138,87.60399999999998 L 129.138,87.604 M 204.576,99.714 L 201.051,132.779 L 147.79,132.779 L 147.79,99.714 L 148.62,99.714 L 204.576,99.714 M 153.854,260.211 C 151.89100000000002,260.348 149.87900000000002,260.46500000000003 147.79000000000002,260.533 L 147.79000000000002,201.012 L 192.88700000000003,201.012 C 191.69600000000003,208.043 190.31900000000002,214.83 188.84400000000002,219.371 C 180.963,243.59 169.146,257.174 153.854,260.211 M 95.573,219.371 C 94.098,214.83 92.72099999999999,208.043 91.52999999999999,201.012 L 135.67999999999998,201.012 L 135.67999999999998,260.446 L 134.85999999999999,260.446 C 134.362,260.446 133.88299999999998,260.53400000000005 133.40499999999997,260.59200000000004 C 116.687,258.766 103.933,245.064 95.573,219.371 M 194.752,188.902 L 147.79,188.902 L 147.79,144.879 L 199.762,144.879 L 196.871,172.076 C 196.861,172.232 196.041,179.674 194.752,188.902 M 87.546,172.076 L 84.655,144.879 L 135.68,144.879 L 135.68,188.902 L 89.665,188.902 C 88.376,179.674 87.556,172.232 87.546,172.076 M 72.478,144.879 L 75.515,173.356 C 75.583,173.971 76.286,180.495 77.43900000000001,188.903 L 56.042,188.903 L 46.482,144.88 L 72.478,144.88 L 72.478,144.879 M 221.705,188.902 L 206.978,188.902 C 208.14000000000001,180.494 208.833,173.97 208.90200000000002,173.355 L 211.93900000000002,144.878 L 231.26500000000001,144.878 L 221.705,188.902 M 135.681,99.714 L 135.681,132.779 L 83.366,132.779 L 79.841,99.714 L 129.13799999999998,99.714 L 135.681,99.714 M 67.663,99.714 L 71.188,132.779 L 43.846,132.779 L 36.657999999999994,99.714 L 67.663,99.714 M 61.501,214.264 C 61.461999999999996,213.90300000000002 61.403,213.561 61.324999999999996,213.21900000000002 L 58.678999999999995,201.01200000000003 L 79.24499999999999,201.01200000000003 C 80.612,209.23500000000004 82.25299999999999,217.53500000000003 84.059,223.10200000000003 C 88.56099999999999,236.95900000000003 94.616,247.87700000000004 101.813,256.071 C 66.413,244.645 61.716,215.699 61.501,214.264 M 216.246,214.264 C 216.07000000000002,215.631 212.574,239.157 185.88500000000002,252.174 C 191.656,244.488 196.549,234.82 200.35800000000003,223.102 C 202.16500000000002,217.536 203.80500000000004,209.235 205.17200000000003,201.012 L 219.06800000000004,201.012 L 216.42200000000005,213.219 C 216.354,213.561 216.295,213.912 216.246,214.264 M 233.902,132.779 L 213.22799999999998,132.779 L 216.753,99.714 L 241.089,99.714 L 233.902,132.779" fill="#000000"/>
	<path d="M 141.735,10.378 C 123.58100000000002,10.378 107.59400000000002,19.157 97.36000000000001,32.566 L 186.1,32.566 C 175.875,19.157 159.889,10.378 141.735,10.378" fill="#000000"/>
</svg>
