<?xml version="1.0" ?>
<svg xmlns="http://www.w3.org/2000/svg" xmlns:ev="http://www.w3.org/2001/xml-events" xmlns:xlink="http://www.w3.org/1999/xlink" baseProfile="full" enable-background="new 0 7.604 100.001 66.753" height="401px" version="1.1" viewBox="0 7.604 100.001 66.753" width="600px" x="0px" xml:space="preserve" y="0px">
	<defs/>
	<path d="M 80.022,34.398 C 76.75,34.399 73.66900000000001,35.202000000000005 70.94300000000001,36.597 L 69.63600000000001,34.424 L 69.465,10.910999999999998 L 64.953,10.910999999999998 L 64.953,25.051 L 26.27,24.4 L 26.27,23.817 C 26.72,23.817 27.083,23.453 27.083,23.004 C 27.083,22.556 26.718999999999998,22.192 26.27,22.192 L 22.561999999999998,22.192 C 22.112,22.192 21.749,22.556 21.749,23.004 C 21.749,23.453000000000003 22.113,23.817 22.561999999999998,23.817 L 22.561999999999998,24.338 L 16.153,24.229 C 15.014,24.229 13.68,22.278 12.119,22.278 L 2.6180000000000003,22.256 C 2.188,22.256 1.8380000000000003,22.606 1.8380000000000003,23.036 C 1.8380000000000003,23.468 2.188,23.816000000000003 2.6180000000000003,23.816000000000003 L 12.118,23.816000000000003 C 13.68,23.816000000000003 14.331,25.767000000000003 16.152,25.767000000000003 L 24.894000000000002,25.767000000000003 L 24.8,26.54 C 24.779,26.54 24.761,26.529999999999998 24.740000000000002,26.529999999999998 L 12.42,26.529999999999998 C 11.774,26.529999999999998 11.25,27.052999999999997 11.25,27.698999999999998 C 11.25,28.345 11.775,28.871 12.42,28.871 L 23.283,28.871 L 23.222,33.73 L 26.691000000000003,34.885999999999996 L 26.443,35.489999999999995 C 24.414,34.79599999999999 22.246000000000002,34.400999999999996 19.981,34.400999999999996 C 8.946,34.401 0.001,43.343 0.0,54.38 C 0.001,65.411 8.946,74.354 19.981,74.358 C 31.015,74.358 39.959,65.412 39.961,54.38 C 39.957,46.703 35.623999999999995,40.047000000000004 29.274,36.702 L 30.016000000000002,35.184 L 32.983000000000004,35.160999999999994 L 49.997,55.702 C 49.839,56.007999999999996 49.695,56.324999999999996 49.583,56.662 C 48.522,59.841 49.989,63.242 52.888999999999996,64.72 L 51.42099999999999,69.116 C 51.24399999999999,69.639 51.52899999999999,70.206 52.050999999999995,70.38 C 52.573,70.55399999999999 53.13999999999999,70.273 53.31399999999999,69.749 L 54.782,65.353 C 57.507,65.826 60.23,64.55099999999999 61.635999999999996,62.20499999999999 C 64.682,69.35 71.76599999999999,74.35699999999999 80.023,74.359 C 91.054,74.359 100.0,65.416 100.002,54.38099999999999 C 99.999,43.346 91.057,34.401 80.022,34.398 M 34.416,54.38 C 34.404999999999994,62.35 27.952999999999996,68.799 19.982,68.81700000000001 C 12.008,68.799 5.557,62.35 5.543,54.38 C 5.556,46.404 12.008,39.954 19.981,39.943000000000005 C 21.5,39.94500000000001 22.963,40.184000000000005 24.337000000000003,40.620000000000005 L 20.007000000000005,51.172000000000004 C 19.998000000000005,51.172000000000004 19.989000000000004,51.17 19.980000000000004,51.17 C 18.446000000000005,51.17 17.203000000000003,52.412 17.203000000000003,53.944 C 17.203000000000003,55.478 18.446,56.723 19.980000000000004,56.723 C 21.513000000000005,56.723 22.756000000000004,55.478 22.756000000000004,53.944 C 22.756000000000004,53.132000000000005 22.401000000000003,52.410000000000004 21.845000000000002,51.902 L 26.839000000000002,41.681 C 31.347,44.123 34.407,48.89 34.416,54.38 M 52.38,69.795 C 52.139,69.795 51.944,69.60000000000001 51.944,69.359 C 51.944,69.121 52.138000000000005,68.92899999999999 52.38,68.92899999999999 C 52.618,68.92899999999999 52.814,69.11999999999999 52.814,69.359 C 52.813,69.6 52.618,69.795 52.38,69.795 M 68.355,36.796 L 68.95400000000001,37.751 C 63.79800000000001,41.19 60.352000000000004,46.962999999999994 60.083000000000006,53.559 C 59.812000000000005,53.342999999999996 59.525000000000006,53.143 59.218,52.967 C 59.662,46.27 63.173,40.421 68.355,36.796 M 77.272,54.408 L 69.35900000000001,55.222 C 69.337,54.944 69.316,54.663000000000004 69.31500000000001,54.379000000000005 C 69.32100000000001,50.749 71.12800000000001,47.554 73.88600000000001,45.61800000000001 L 78.01500000000001,52.20400000000001 C 77.53900000000002,52.702000000000005 77.24300000000001,53.37500000000001 77.24300000000001,54.11900000000001 C 77.243,54.219 77.262,54.312 77.272,54.408 M 36.41,28.708 L 64.954,26.875 L 64.954,35.361000000000004 C 60.022999999999996,39.428000000000004 56.706999999999994,45.368 56.084999999999994,52.096000000000004 C 55.708999999999996,52.086000000000006 55.337999999999994,52.114000000000004 54.971999999999994,52.166000000000004 L 36.41,31.388 L 36.41,28.708 M 80.022,65.087 C 75.107,65.078 70.98400000000001,61.77 69.721,57.260000000000005 L 77.805,55.778000000000006 C 78.31200000000001,56.452000000000005 79.11200000000001,56.895 80.022,56.895 C 81.554,56.895 82.796,55.653000000000006 82.796,54.121 C 82.796,52.586000000000006 81.554,51.342 80.022,51.342 C 79.953,51.342 79.887,51.358 79.819,51.363 L 75.739,44.576 C 77.051,44.002 78.498,43.677 80.022,43.674 C 85.933,43.685 90.71600000000001,48.465 90.727,54.382 C 90.72,60.291 85.934,65.077 80.022,65.087"/>
	<path d="M 60.143,10.241 C 60.381,10.235999999999999 67.33,9.66 69.95400000000001,10.568999999999999 C 72.58000000000001,11.479 73.879,11.062 74.83300000000001,9.793999999999999 C 75.79200000000002,8.524 76.12200000000001,7.764999999999999 72.58300000000001,7.616999999999999 C 69.043,7.477 60.94,8.477 60.94,8.477 C 60.94,8.477 59.232,8.665000000000001 59.141,9.67 C 59.054,10.676 59.632,10.253 60.143,10.241"/>
</svg>
