<?xml version="1.0" ?>
<svg xmlns="http://www.w3.org/2000/svg" xmlns:ev="http://www.w3.org/2001/xml-events" xmlns:xlink="http://www.w3.org/1999/xlink" baseProfile="full" enable-background="new 0 0 100 100" height="157px" version="1.1" viewBox="0 0 100 100" width="600px" x="0px" xml:space="preserve" y="0px">
	<defs/>
	<path d="M 98.82,45.987 C 98.056,45.472 96.276,47.285000000000004 96.276,47.285000000000004 C 92.761,50.347 87.687,51.333000000000006 87.687,51.333000000000006 C 77.30799999999999,53.11200000000001 69.133,43.980000000000004 69.133,43.980000000000004 C 63.647,38.513000000000005 59.541,36.95100000000001 56.51599999999999,37.203 C 52.840999999999994,37.509 50.96099999999999,39.003 49.99999999999999,40.56 C 49.038999999999994,39.003 47.157999999999994,37.509 43.48199999999999,37.203 C 40.45799999999999,36.951 36.35199999999999,38.513000000000005 30.86499999999999,43.980000000000004 C 30.86499999999999,43.980000000000004 22.68999999999999,53.112 12.310999999999993,51.333000000000006 C 12.310999999999993,51.333000000000006 7.236999999999993,50.346000000000004 3.7219999999999924,47.285000000000004 C 3.7219999999999924,47.285000000000004 1.9429999999999925,45.473000000000006 1.1799999999999926,45.987 C 0.7019999999999926,46.308 0.5999999999999927,47.669000000000004 1.4579999999999926,49.128 C 1.4579999999999926,49.128 12.729999999999993,70.699 40.13099999999999,59.697 C 40.13099999999999,59.697 47.34599999999999,56.851 49.998999999999995,49.800000000000004 C 52.650999999999996,56.851000000000006 59.866,59.697 59.866,59.697 C 87.269,70.698 98.54,49.127 98.54,49.127 C 99.398,47.668 99.296,46.308 98.82,45.987"/>
</svg>
