<?xml version="1.0" ?>
<svg xmlns="http://www.w3.org/2000/svg" xmlns:ev="http://www.w3.org/2001/xml-events" xmlns:xlink="http://www.w3.org/1999/xlink" baseProfile="full" enable-background="new 0 0 100 100" height="337px" version="1.1" viewBox="0 0 100 100" width="600px" x="0px" xml:space="preserve" y="0px">
	<defs/>
	<path d="M 88.361,53.688 C 88.34,53.688 88.318,53.692 88.29400000000001,53.692 C 88.308,53.471000000000004 88.361,53.26 88.361,53.034 C 88.361,45.917 82.592,40.15 75.476,40.15 C 72.057,40.15 68.968,41.504 66.662,43.678 C 66.665,43.556999999999995 66.68100000000001,43.437999999999995 66.68100000000001,43.317 C 66.68100000000001,31.516 57.11200000000001,21.945 45.30600000000001,21.945 C 33.50200000000001,21.945 23.93100000000001,31.516 23.93100000000001,43.317 C 23.93100000000001,43.822 23.97100000000001,44.318 24.00600000000001,44.814 C 21.83700000000001,43.797 19.42500000000001,43.214 16.87300000000001,43.214 C 7.554,43.213 0.0,51.292 0.0,60.61 C 0.0,69.928 7.554,78.0 16.873,78.0 L 88.361,78.0 C 94.788,78.0 100.0,72.271 100.0,65.845 C 100.0,59.417 94.788,53.688 88.361,53.688"/>
</svg>
