<?xml version="1.0" ?>
<svg xmlns="http://www.w3.org/2000/svg" xmlns:ev="http://www.w3.org/2001/xml-events" xmlns:xlink="http://www.w3.org/1999/xlink" baseProfile="full" enable-background="new 0 0 100 100" height="600px" version="1.1" viewBox="0 0 100 100" width="372px" x="0px" xml:space="preserve" y="0px">
	<defs/>
	<path d="M 65.852,94.149 C 65.878,94.081 65.9,94.013 65.911,93.94 C 65.92,93.88 65.919,93.824 65.917,93.76299999999999 C 65.917,93.72099999999999 65.928,93.67899999999999 65.921,93.636 L 62.415000000000006,70.189 C 62.415000000000006,70.18799999999999 62.415000000000006,70.187 62.415000000000006,70.18499999999999 L 56.99400000000001,33.938999999999986 C 56.98800000000001,33.90099999999999 56.967000000000006,33.86999999999998 56.958000000000006,33.83199999999999 C 56.94200000000001,33.77399999999999 56.92600000000001,33.72099999999999 56.901,33.667999999999985 C 56.871,33.600999999999985 56.833000000000006,33.54199999999999 56.790000000000006,33.48399999999999 C 56.75800000000001,33.44099999999999 56.72800000000001,33.39799999999999 56.68800000000001,33.35899999999999 C 56.62900000000001,33.301999999999985 56.56200000000001,33.25699999999999 56.49300000000001,33.21599999999999 C 56.46100000000001,33.195999999999984 56.43700000000001,33.16599999999999 56.40200000000001,33.15099999999999 C 56.391000000000005,33.14499999999999 56.38000000000001,33.14699999999999 56.37000000000001,33.14199999999999 C 56.28300000000001,33.10599999999999 56.18800000000001,33.08999999999999 56.09300000000001,33.078999999999986 C 56.05900000000001,33.07499999999999 56.02500000000001,33.05999999999999 55.98900000000001,33.05899999999998 C 55.98300000000001,33.05899999999998 55.97700000000001,33.05599999999998 55.97000000000001,33.05599999999998 L 46.814000000000014,33.05599999999998 L 37.65700000000001,33.05599999999998 C 37.65100000000001,33.05599999999998 37.64700000000001,33.05899999999998 37.64100000000001,33.05899999999998 C 37.600000000000016,33.05999999999998 37.56200000000001,33.075999999999986 37.52200000000001,33.079999999999984 C 37.43100000000001,33.09399999999999 37.341000000000015,33.106999999999985 37.259000000000015,33.14199999999998 C 37.24800000000001,33.146999999999984 37.237000000000016,33.14499999999998 37.225000000000016,33.15099999999998 C 37.19000000000002,33.16699999999998 37.167000000000016,33.19699999999998 37.13500000000001,33.21599999999998 C 37.06500000000001,33.25699999999998 36.997000000000014,33.30199999999998 36.939000000000014,33.35899999999998 C 36.90100000000002,33.39799999999998 36.871000000000016,33.44099999999998 36.838000000000015,33.48399999999998 C 36.79400000000002,33.54199999999998 36.75700000000001,33.59999999999998 36.72700000000002,33.66799999999998 C 36.70300000000002,33.720999999999975 36.68600000000002,33.77399999999998 36.670000000000016,33.83199999999998 C 36.66000000000002,33.869999999999976 36.640000000000015,33.90099999999998 36.634000000000015,33.93899999999998 L 31.213000000000015,70.18499999999997 C 31.213000000000015,70.18699999999997 31.213000000000015,70.18799999999997 31.213000000000015,70.18899999999998 L 27.706000000000014,93.63599999999998 C 27.699000000000012,93.67899999999999 27.711000000000013,93.72099999999998 27.710000000000015,93.76299999999998 C 27.709000000000014,93.82399999999998 27.707000000000015,93.87999999999998 27.716000000000015,93.93999999999998 C 27.728000000000016,94.01299999999998 27.750000000000014,94.08099999999999 27.776000000000014,94.14899999999999 C 27.795000000000012,94.19899999999998 27.811000000000014,94.24899999999998 27.838000000000015,94.29699999999998 C 27.880000000000017,94.37099999999998 27.937000000000015,94.43499999999999 27.996000000000016,94.49599999999998 C 28.021000000000015,94.52199999999998 28.034000000000017,94.55599999999998 28.062000000000015,94.57999999999998 C 28.071000000000016,94.58599999999998 28.079000000000015,94.58799999999998 28.086000000000016,94.59399999999998 C 28.131000000000018,94.62899999999998 28.184000000000015,94.65099999999998 28.233000000000015,94.67899999999997 C 28.295000000000016,94.71199999999997 28.351000000000013,94.74899999999997 28.416000000000015,94.76999999999997 C 28.426000000000016,94.77299999999997 28.434000000000015,94.78099999999996 28.444000000000013,94.78399999999996 L 46.527000000000015,99.95999999999997 L 46.52900000000002,99.95999999999997 C 46.53800000000002,99.96299999999997 46.54600000000002,99.96299999999997 46.55200000000002,99.96499999999996 C 46.64,99.987 46.727,100.0 46.812,100.0 L 46.812999999999995,100.0 L 46.81399999999999,100.0 L 46.81399999999999,100.0 L 46.81399999999999,100.0 C 46.900999999999996,100.0 46.98799999999999,99.987 47.07299999999999,99.965 C 47.080999999999996,99.96300000000001 47.08899999999999,99.96300000000001 47.09499999999999,99.961 C 47.09599999999999,99.96 47.096999999999994,99.96 47.09899999999999,99.96 L 65.18199999999999,94.78399999999999 C 65.19299999999998,94.78099999999999 65.19999999999999,94.773 65.20899999999999,94.77 C 65.27399999999999,94.749 65.332,94.71199999999999 65.39299999999999,94.679 C 65.44299999999998,94.651 65.49599999999998,94.629 65.53999999999999,94.59400000000001 C 65.547,94.58800000000001 65.556,94.58600000000001 65.564,94.58000000000001 C 65.592,94.55600000000001 65.604,94.522 65.63,94.49600000000001 C 65.689,94.43400000000001 65.74499999999999,94.37100000000001 65.788,94.29700000000001 C 65.817,94.249 65.832,94.199 65.852,94.149 M 38.167,37.681 L 40.35,42.434 L 36.553000000000004,48.477 L 38.167,37.681 M 57.074,48.477 L 53.275999999999996,42.434 L 55.459999999999994,37.681 L 57.074,48.477 M 50.928,42.587 L 47.849,49.291000000000004 L 47.849,37.686 L 50.928,42.587 M 47.849,69.031 L 47.849,56.498 L 52.321999999999996,61.580999999999996 L 47.849,69.031 M 53.757,63.213 L 59.358999999999995,69.578 L 48.989999999999995,71.153 L 53.757,63.213 M 49.027,54.705 L 56.847,54.04 L 53.439,59.719 L 49.027,54.705 M 48.575,52.666 L 52.244,44.681999999999995 L 56.82,51.964 L 48.575,52.666 M 45.778,49.29 L 42.699,42.586999999999996 L 45.778,37.68599999999999 L 45.778,49.29 M 45.051,52.666 L 36.806000000000004,51.964 L 41.383,44.681 L 45.051,52.666 M 44.6,54.705 L 40.188,59.719 L 36.78,54.04 L 44.6,54.705 M 45.778,56.499 L 45.778,69.03 L 41.305,61.581 L 45.778,56.499 M 44.638,71.153 L 34.268,69.578 L 39.871,63.213 L 44.638,71.153 M 44.677,73.253 L 38.576,80.492 L 34.075,71.64200000000001 L 44.677,73.253 M 45.778,75.158 L 45.778,94.647 L 39.595,82.49600000000001 L 45.778,75.158 M 47.849,75.158 L 54.029999999999994,82.496 L 47.849,94.64699999999999 L 47.849,75.158 M 48.95,73.253 L 59.551,71.643 L 55.050000000000004,80.493 L 48.95,73.253 M 54.875,61.35 L 58.177,55.85 L 59.845,66.998 L 54.875,61.35 M 51.961,40.34 L 48.686,35.127 L 54.356,35.127 L 51.961,40.34 M 41.666,40.339 L 39.272,35.126999999999995 L 44.94,35.126999999999995 L 41.666,40.339 M 35.45,55.85 L 38.753,61.35 L 33.783,66.998 L 35.45,55.85 M 37.129,82.211 L 30.293999999999997,90.324 L 32.785,73.672 L 37.129,82.211 M 38.147,84.215 L 44.812,97.31700000000001 L 30.549999999999997,93.23500000000001 L 38.147,84.215 M 55.479,84.215 L 63.076,93.235 L 48.814,97.317 L 55.479,84.215 M 56.497,82.211 L 60.842,73.672 L 63.332,90.324 L 56.497,82.211"/>
	<path d="M 68.364,15.802 C 72.71300000000001,15.289 75.822,11.349 75.309,7.0 C 74.79599999999999,2.652 70.857,-0.4560000000000004 66.508,0.05600000000000005 C 66.508,0.05600000000000005 65.806,0.13900000000000007 64.59299999999999,0.36300000000000004 C 63.98699999999999,0.47300000000000003 63.25699999999999,0.5940000000000001 62.42099999999999,0.875 C 61.587999999999994,1.143 60.651999999999994,1.396 59.66599999999999,1.8399999999999999 C 58.68699999999999,2.307 57.61899999999999,2.7359999999999998 56.58099999999999,3.417 C 56.066999999999986,3.7479999999999998 55.53999999999999,4.0889999999999995 55.00099999999999,4.438 C 54.48699999999999,4.826 53.97999999999999,5.241 53.46799999999999,5.656 C 53.21799999999999,5.869 52.96499999999999,6.084 52.71199999999999,6.302 L 52.00699999999999,7.023 C 51.54499999999999,7.513999999999999 51.05999999999999,7.981999999999999 50.63099999999999,8.504999999999999 C 49.79099999999999,9.573999999999998 48.98599999999999,10.658999999999999 48.334999999999994,11.825 L 47.82899999999999,12.677999999999999 L 47.401999999999994,13.565 C 47.13999999999999,14.165 46.839999999999996,14.731 46.63399999999999,15.334 C 46.428999999999995,15.927999999999999 46.224999999999994,16.518 46.023999999999994,17.099 C 45.836999999999996,17.679 45.712999999999994,18.272 45.57899999999999,18.839 C 45.43399999999999,19.404 45.334999999999994,19.968 45.266999999999996,20.523 C 45.193,21.076 45.105999999999995,21.605 45.059,22.124 C 45.028999999999996,23.182 44.937,24.14 45.01,25.04 C 45.056999999999995,25.932 45.120999999999995,26.735 45.25,27.476 C 45.362,28.2 45.445,28.820999999999998 45.586,29.268 C 45.856,30.2 46.009,30.732 46.009,30.732 C 46.071,30.947 46.234,31.131999999999998 46.46,31.214 C 46.838,31.349999999999998 47.252,31.153 47.388,30.776 C 47.388,30.776 47.576,30.255 47.903999999999996,29.342 C 48.038,28.863 48.288,28.375 48.543,27.822 C 48.772999999999996,27.278 49.13,26.662 49.498,26.005 C 49.817,25.34 50.321,24.68 50.754999999999995,23.988 C 50.995999999999995,23.648 51.263999999999996,23.314999999999998 51.519999999999996,22.975 C 51.767999999999994,22.631 52.043,22.299000000000003 52.352999999999994,21.984 C 52.65899999999999,21.669 52.925999999999995,21.332 53.239,21.026000000000003 C 53.556,20.732000000000003 53.876,20.435000000000002 54.199,20.135000000000005 C 54.507999999999996,19.835000000000004 54.887,19.599000000000004 55.219,19.333000000000006 L 55.714,18.939000000000007 L 56.251,18.602000000000007 C 56.611999999999995,18.390000000000008 56.928,18.137000000000008 57.300999999999995,17.967000000000006 C 57.657,17.791000000000007 58.013,17.616000000000007 58.364,17.444000000000006 C 58.705999999999996,17.273000000000007 59.077999999999996,17.164000000000005 59.413999999999994,17.023000000000007 L 59.913,16.824000000000005 L 60.434,16.693000000000005 C 60.760999999999996,16.595000000000006 61.08,16.501000000000005 61.394,16.407000000000004 C 61.716,16.351000000000003 62.031,16.297000000000004 62.336999999999996,16.244000000000003 C 62.904999999999994,16.071000000000005 63.522999999999996,16.105000000000004 64.02199999999999,16.014000000000003 C 64.52499999999999,15.921000000000003 65.04299999999999,15.992000000000003 65.451,15.935000000000002 C 65.859,15.879000000000003 66.253,15.932000000000002 66.55999999999999,15.926000000000002 C 67.17999999999999,15.937000000000001 67.52599999999998,15.899000000000003 67.52599999999998,15.899000000000003 L 68.32599999999998,15.808000000000003 L 68.364,15.802"/>
	<path d="M 29.053,13.451 C 29.269000000000002,13.432 29.491,13.415000000000001 29.719,13.395000000000001 C 29.947000000000003,13.403 30.18,13.412 30.416,13.419 C 30.664,13.402000000000001 30.914,13.415000000000001 31.163,13.452 C 31.414,13.485 31.684,13.489 31.945,13.541 C 32.468,13.641 33.035000000000004,13.724 33.578,13.913 C 33.863,13.985 34.14,14.082 34.407000000000004,14.203 C 34.68000000000001,14.315999999999999 34.979000000000006,14.399999999999999 35.24400000000001,14.54 C 35.519000000000005,14.677 35.790000000000006,14.811 36.059000000000005,14.944999999999999 C 36.328,15.088999999999999 36.57300000000001,15.259999999999998 36.839000000000006,15.408999999999999 C 37.38100000000001,15.701999999999998 37.825,16.087999999999997 38.30400000000001,16.424999999999997 C 38.73400000000001,16.796999999999997 39.20400000000001,17.134999999999998 39.55200000000001,17.512999999999998 C 39.93500000000001,17.875999999999998 40.300000000000004,18.212999999999997 40.57000000000001,18.528999999999996 C 40.855000000000004,18.843999999999998 41.12400000000001,19.118999999999996 41.312000000000005,19.409999999999997 C 41.724000000000004,19.948999999999998 41.96000000000001,20.257999999999996 41.96000000000001,20.257999999999996 C 42.04700000000001,20.368999999999996 42.184000000000005,20.443999999999996 42.336000000000006,20.444999999999997 C 42.599000000000004,20.445999999999998 42.813,20.233999999999998 42.81400000000001,19.970999999999997 C 42.81400000000001,19.970999999999997 42.81600000000001,19.581999999999997 42.818000000000005,18.903999999999996 C 42.82600000000001,18.574999999999996 42.760000000000005,18.142999999999997 42.69500000000001,17.635999999999996 C 42.63600000000001,17.114999999999995 42.52300000000001,16.561999999999994 42.37800000000001,15.954999999999995 C 42.248000000000005,15.337999999999994 41.995000000000005,14.715999999999994 41.76400000000001,14.013999999999994 C 41.46500000000001,13.358999999999995 41.17700000000001,12.619999999999994 40.75400000000001,11.926999999999994 C 40.37000000000001,11.199999999999994 39.869000000000014,10.513999999999994 39.33700000000001,9.806999999999995 C 38.77800000000001,9.127999999999995 38.19200000000001,8.413999999999994 37.485000000000014,7.821999999999995 C 36.81300000000002,7.1829999999999945 36.055000000000014,6.6269999999999945 35.277000000000015,6.091999999999995 C 34.884000000000015,5.835999999999995 34.46500000000002,5.626999999999995 34.057000000000016,5.398999999999996 C 33.65100000000002,5.165999999999996 33.23300000000002,4.962999999999996 32.807000000000016,4.798999999999996 C 32.381000000000014,4.633999999999996 31.958000000000016,4.466999999999996 31.540000000000017,4.319999999999996 C 31.110000000000017,4.204999999999996 30.690000000000015,4.090999999999996 30.282000000000018,3.979999999999996 C 29.45500000000002,3.754999999999996 28.66100000000002,3.703999999999996 27.92200000000002,3.607999999999996 C 27.18100000000002,3.531999999999996 26.514000000000017,3.567999999999996 25.913000000000018,3.575999999999996 C 25.30900000000002,3.577999999999996 24.80600000000002,3.6589999999999963 24.38800000000002,3.723999999999996 C 23.54900000000002,3.848999999999996 23.07800000000002,3.9559999999999964 23.07800000000002,3.9559999999999964 C 20.63000000000002,4.518999999999997 18.89800000000002,6.808999999999997 19.10700000000002,9.386999999999997 C 19.33600000000002,12.219999999999997 21.81800000000002,14.331999999999997 24.65300000000002,14.102999999999998 L 25.42400000000002,14.039999999999997 C 25.42400000000002,14.039999999999997 25.675000000000022,14.019999999999998 26.10400000000002,13.916999999999998 C 26.32000000000002,13.875999999999998 26.58100000000002,13.777999999999999 26.87400000000002,13.752999999999998 C 27.16700000000002,13.730999999999998 27.50600000000002,13.594999999999999 27.86700000000002,13.577999999999998 C 28.225,13.559 28.635,13.429 29.053,13.451"/>
	<path d="M 80.885,27.037 C 80.846,26.657999999999998 80.82900000000001,26.241 80.708,25.775 C 80.588,25.313 80.469,24.814999999999998 80.232,24.308999999999997 C 80.024,23.796999999999997 79.716,23.298 79.382,22.798999999999996 C 79.013,22.331999999999997 78.617,21.849999999999994 78.14800000000001,21.462999999999997 C 77.69100000000002,21.051 77.171,20.733999999999998 76.66400000000002,20.429 C 76.13900000000001,20.162999999999997 75.61500000000001,19.907999999999998 75.07700000000001,19.761 C 74.552,19.575 74.02300000000001,19.483999999999998 73.52300000000001,19.392 C 73.01200000000001,19.349999999999998 72.537,19.28 72.08300000000001,19.297 C 71.62900000000002,19.297 71.20800000000001,19.326 70.82400000000001,19.379 C 70.06400000000001,19.485000000000003 69.4,19.647000000000002 69.022,19.78 C 68.62100000000001,19.927 68.39,20.012 68.39,20.012 C 68.324,20.037 68.267,20.093 68.244,20.168 C 68.208,20.293 68.28,20.425 68.406,20.461 C 68.406,20.461 68.64,20.529 69.051,20.65 C 69.48400000000001,20.747999999999998 69.988,20.938 70.612,21.208 C 70.92399999999999,21.323999999999998 71.24799999999999,21.473999999999997 71.573,21.653 C 71.90899999999999,21.799 72.226,22.023 72.55499999999999,22.212999999999997 C 72.86099999999999,22.451999999999998 73.19399999999999,22.638999999999996 73.466,22.906999999999996 C 73.75999999999999,23.143999999999995 73.997,23.430999999999997 74.244,23.678999999999995 C 74.456,23.960999999999995 74.663,24.226999999999997 74.804,24.512999999999995 C 74.98400000000001,24.770999999999994 75.075,25.061999999999994 75.179,25.317999999999994 C 75.273,25.580999999999996 75.36200000000001,25.824999999999996 75.396,26.077999999999996 C 75.483,26.306999999999995 75.479,26.560999999999996 75.523,26.775999999999996 C 75.586,26.984999999999996 75.545,27.216999999999995 75.586,27.398999999999997 C 75.622,27.581999999999997 75.602,27.761999999999997 75.614,27.906999999999996 C 75.62,28.195999999999998 75.653,28.365999999999996 75.653,28.365999999999996 L 75.75500000000001,28.904999999999998 C 75.956,29.935999999999996 76.78300000000002,30.779999999999998 77.882,30.949999999999996 C 79.281,31.167999999999996 80.59400000000001,30.208999999999996 80.81,28.808999999999997 C 80.81,28.808999999999997 80.857,28.512999999999998 80.886,27.99 C 80.904,27.73 80.928,27.417 80.885,27.037"/>
</svg>
