<?xml version="1.0" ?>
<svg xmlns="http://www.w3.org/2000/svg" xmlns:ev="http://www.w3.org/2001/xml-events" xmlns:xlink="http://www.w3.org/1999/xlink" baseProfile="full" enable-background="new 0 0 99.797 88.313" height="531px" overflow="visible" version="1.1" viewBox="0 0 99.797 88.313" width="600px" x="0px" xml:space="preserve" y="0px">
	<defs/>
	<path d="M 99.797,45.141 C 99.797,48.72 96.63799999999999,51.622 92.739,51.622 L 7.16,51.622 C 3.2630000000000003,51.622 0.10299999999999976,48.72 0.10299999999999976,45.141 L 0.10299999999999976,45.141 C 0.10299999999999976,41.561 3.263,38.659 7.16,38.659 L 92.74,38.659 C 96.638,38.658 99.797,41.561 99.797,45.141 L 99.797,45.141" fill="#000000"/>
	<path d="M 76.141,30.143 C 77.129,28.472 77.912,27.152 83.363,27.152 C 91.17,27.152 91.724,30.44 91.99,32.02 C 92.012,32.153000000000006 92.03399999999999,32.279 92.05699999999999,32.403000000000006 C 92.32499999999999,33.758 93.64199999999998,34.641000000000005 94.999,34.37500000000001 C 96.359,34.10900000000001 97.24199999999999,32.79500000000001 96.97699999999999,31.44000000000001 C 96.96499999999999,31.38300000000001 96.951,31.29000000000001 96.93299999999999,31.19100000000001 C 95.92299999999999,25.19200000000001 91.35799999999999,22.15100000000001 83.363,22.15100000000001 C 75.684,22.15100000000001 73.523,24.72800000000001 71.824,27.60000000000001 C 70.979,29.027000000000008 70.725,29.457000000000008 68.39699999999999,29.422000000000008 C 64.48499999999999,29.36200000000001 63.90299999999999,28.537000000000006 62.93599999999999,27.17000000000001 C 60.93599999999999,24.338000000000008 58.535999999999994,21.997000000000007 49.39699999999999,22.03500000000001 C 41.90299999999999,22.06700000000001 39.65399999999999,24.211000000000013 37.67499999999999,26.79800000000001 C 36.49199999999999,28.34200000000001 35.639999999999986,29.457000000000008 30.20199999999999,29.36300000000001 C 27.670999999999992,29.31900000000001 27.124999999999993,28.59300000000001 26.03599999999999,27.14600000000001 C 23.92799999999999,24.344000000000012 21.38599999999999,21.85800000000001 13.560999999999991,22.21200000000001 C 5.961999999999991,22.55600000000001 3.2609999999999904,28.52200000000001 2.8939999999999912,31.62800000000001 C 2.733,33.0 3.716,34.243 5.091,34.405 C 6.466,34.567 7.711,33.586 7.873,32.215 L 7.87,32.237 C 7.938,31.747000000000003 8.679,27.439 13.789,27.208000000000002 C 19.617,26.944000000000003 20.681,28.358 22.028,30.148000000000003 C 23.339,31.890000000000004 25.134,34.276 30.116,34.362 C 37.486,34.489000000000004 39.704,32.386 41.659,29.832 C 42.844,28.283 43.782,27.059 49.418,27.035 C 56.687,27.005 57.733,28.484 58.839,30.051000000000002 C 60.489,32.388000000000005 62.342999999999996,34.33 68.32,34.422000000000004 C 73.158,34.497 74.781,32.44 76.141,30.143 M 54.329,56.037 C 53.531,56.172 52.989,56.944 53.122,57.762 C 53.255,58.578 54.011,59.132 54.809,58.996 C 58.769999999999996,58.327000000000005 60.602,59.061 60.913,59.453 C 60.738,59.849000000000004 59.507,60.86 56.464,61.268 C 55.838,61.352000000000004 55.333999999999996,61.837 55.216,62.472 C 55.095,63.107 55.387,63.748000000000005 55.939,64.06400000000001 C 57.472,64.941 57.839,65.53500000000001 57.921,65.71400000000001 C 57.739,65.89300000000001 57.094,66.24600000000001 55.908,66.30300000000001 C 54.461,66.37100000000001 52.387,65.92500000000001 51.293,64.44100000000002 C 50.893,63.89500000000002 50.18,63.69600000000002 49.561,63.95800000000002 C 48.943,64.22000000000001 48.577,64.87500000000001 48.67,65.55200000000002 C 48.902,67.24000000000002 48.128,68.11500000000002 47.439,68.55300000000003 C 46.446,69.18300000000002 45.075,69.22500000000002 44.251,68.64900000000003 C 43.559999999999995,68.16700000000003 43.321,67.30400000000003 43.543,66.08400000000003 C 43.638,65.55500000000004 43.448,65.01300000000003 43.045,64.66500000000003 C 42.643,64.31700000000004 42.088,64.21800000000003 41.594,64.40300000000003 C 38.325,65.62900000000003 36.85,65.46100000000004 36.481,65.26900000000003 C 36.535000000000004,64.73100000000004 37.624,63.165000000000035 40.199,62.15500000000004 C 40.955999999999996,61.85800000000004 41.333,60.991000000000035 41.042,60.217000000000034 C 40.753,59.44400000000003 39.904,59.05700000000004 39.148,59.354000000000035 C 35.223000000000006,60.893000000000036 32.835,63.97400000000003 33.712,66.36800000000004 C 34.161,67.59200000000004 35.666000000000004,69.25400000000003 40.620000000000005,67.86900000000004 C 40.839000000000006,69.23000000000005 41.50900000000001,70.36800000000004 42.598000000000006,71.12800000000004 C 44.37800000000001,72.37100000000004 47.007000000000005,72.36000000000004 48.98800000000001,71.10300000000004 C 50.102000000000004,70.39600000000004 50.87200000000001,69.39800000000004 51.290000000000006,68.22000000000004 C 53.35300000000001,69.33900000000004 55.88000000000001,69.55500000000004 57.791000000000004,69.03400000000003 C 59.572,68.54900000000004 60.690000000000005,67.48100000000004 60.859,66.10600000000004 C 60.969,65.21000000000004 60.661,64.33900000000004 59.965,63.500000000000036 C 61.855000000000004,62.817000000000036 63.163000000000004,61.79800000000004 63.659000000000006,60.53000000000004 C 64.055,59.522000000000034 63.900000000000006,58.45600000000004 63.23400000000001,57.604000000000035 C 61.88,55.88 58.635,55.309 54.329,56.037 M 24.6,60.157 C 23.851000000000003,59.839 22.993000000000002,60.20099999999999 22.682000000000002,60.965999999999994 C 22.371000000000002,61.730999999999995 22.724000000000004,62.608999999999995 23.473000000000003,62.92699999999999 C 26.197000000000003,64.086 26.854000000000003,65.10199999999999 26.903000000000002,65.357 C 26.589000000000002,65.865 24.066000000000003,66.469 20.716,64.882 C 20.232,64.653 19.663,64.71000000000001 19.233,65.033 C 18.803,65.355 18.577,65.892 18.645,66.433 C 18.784,67.543 18.562,68.253 17.983,68.542 C 17.069,69.0 15.419,68.57600000000001 14.521,67.654 C 13.586,66.695 14.017000000000001,65.804 14.159,65.512 C 14.464,64.88 14.298,64.117 13.761000000000001,63.677 C 13.530000000000001,63.487 13.254000000000001,63.395 12.974,63.369 C 15.366,63.236 18.767,62.604 21.067999999999998,60.281 C 21.644999999999996,59.699 21.65,58.748999999999995 21.081,58.16 C 20.512,57.56999999999999 19.583,57.564 19.006,58.145999999999994 C 16.218,60.959999999999994 10.567,60.34499999999999 10.51,60.337999999999994 L 10.512,60.337999999999994 L 10.343,60.327999999999996 C 10.398,60.327999999999996 10.454,60.331999999999994 10.51,60.337999999999994 C 9.706999999999999,60.24399999999999 8.979,60.83299999999999 8.886,61.654999999999994 C 8.792,62.477 9.367999999999999,63.221999999999994 10.174,63.31799999999999 C 10.277999999999999,63.33099999999999 11.244,63.43599999999999 12.605,63.38599999999999 C 12.362,63.42599999999999 12.126000000000001,63.508999999999986 11.922,63.67599999999999 C 9.299,65.835 6.612000000000001,65.79199999999999 5.444000000000001,65.23599999999999 C 5.103000000000001,65.073 4.921000000000001,64.88099999999999 4.920000000000001,64.77399999999999 C 4.914000000000001,64.52599999999998 5.351000000000001,63.643999999999984 7.401000000000001,62.55899999999998 C 7.953000000000001,62.26699999999998 8.265,61.65099999999998 8.180000000000001,61.02099999999999 C 8.095,60.39199999999999 7.631000000000001,59.884999999999984 7.022000000000002,59.756999999999984 C 4.8050000000000015,59.29199999999998 3.741000000000002,58.813999999999986 3.252000000000002,58.51699999999998 C 4.285000000000002,57.96199999999998 6.995000000000002,57.37599999999998 9.963000000000003,57.95699999999998 C 10.759000000000002,58.11199999999998 11.527000000000003,57.57899999999998 11.680000000000003,56.76599999999998 C 11.832000000000003,55.952999999999975 11.310000000000004,55.165999999999976 10.515000000000004,55.00999999999998 C 6.022000000000004,54.13099999999998 0.5910000000000046,55.242999999999974 0.048000000000003595,58.04799999999997 C -0.3269999999999964,59.98199999999997 1.4770000000000036,61.144999999999975 3.3370000000000037,61.84399999999997 C 2.2480000000000038,62.973999999999975 1.9700000000000037,64.03199999999997 1.9860000000000038,64.83599999999997 C 2.0120000000000036,66.15799999999997 2.8210000000000037,67.29499999999997 4.205000000000004,67.95499999999997 C 5.864000000000003,68.74499999999998 8.511000000000003,68.84399999999997 11.187000000000005,67.62699999999997 C 11.406000000000004,68.39899999999997 11.818000000000005,69.13099999999997 12.439000000000005,69.76899999999996 C 14.234000000000005,71.60999999999996 17.234000000000005,72.25299999999996 19.270000000000007,71.23399999999997 C 19.879000000000005,70.92899999999996 21.051000000000005,70.11799999999997 21.462000000000007,68.35199999999996 C 24.244000000000007,69.19699999999996 26.92300000000001,69.06399999999996 28.515000000000008,67.88599999999997 C 29.47200000000001,67.17699999999996 29.94900000000001,66.13699999999997 29.823000000000008,65.03199999999997 C 29.614,63.185 27.856,61.543 24.6,60.157 M 43.938,65.108 C 44.292,65.85300000000001 45.169000000000004,66.165 45.898,65.803 C 48.257000000000005,64.634 51.93900000000001,61.556999999999995 50.773,57.43599999999999 C 50.547000000000004,56.63999999999999 49.734,56.181999999999995 48.957,56.41199999999999 C 48.178,56.64199999999999 47.730000000000004,57.474999999999994 47.955,58.26999999999999 C 48.728,61.002999999999986 44.657,63.08399999999999 44.614,63.10499999999999 L 44.617999999999995,63.10399999999999 C 43.889,63.466 43.585,64.362 43.938,65.108 M 81.933,57.183 C 81.932,57.182 81.932,57.18 81.93,57.179 C 81.93,57.178000000000004 81.927,57.172000000000004 81.927,57.171 C 81.927,57.169 81.926,57.168 81.924,57.167 C 81.861,56.986000000000004 81.766,56.825 81.649,56.689 C 81.264,56.245 80.644,56.056 80.06400000000001,56.264 C 79.298,56.538000000000004 78.89800000000001,57.395 79.165,58.176 C 79.238,58.388000000000005 81.022,63.386 87.63300000000001,64.301 C 88.43400000000001,64.412 89.174,63.837 89.28200000000001,63.016000000000005 C 89.391,62.196000000000005 88.82900000000001,61.440000000000005 88.02400000000002,61.328 C 83.314,60.677 82.014,57.397 81.933,57.183 M 99.23,59.059 C 98.15700000000001,57.259 95.19800000000001,56.352 90.899,56.504 C 90.087,56.532 89.455,57.227 89.483,58.055 C 89.51,58.883 90.19,59.531 90.99900000000001,59.502 C 94.89000000000001,59.364000000000004 96.355,60.199000000000005 96.668,60.546 C 96.40100000000001,60.96 94.869,61.911 91.566,61.917 C 90.949,61.918 90.395,62.316 90.187,62.914 C 89.98,63.511 90.161,64.177 90.64,64.578 C 91.776,65.529 92.036,66.143 92.042,66.31 C 91.913,66.498 91.115,66.885 89.764,66.798 C 88.336,66.706 86.441,66.054 85.798,64.52 C 85.538,63.900999999999996 84.908,63.535 84.256,63.623 C 83.603,63.711999999999996 83.088,64.234 82.995,64.901 C 82.691,67.11699999999999 81.048,67.832 80.357,68.036 C 79.253,68.361 78.097,68.168 77.609,67.57600000000001 C 77.06899999999999,66.924 77.472,65.793 77.761,65.17800000000001 C 78.003,64.66100000000002 77.937,64.049 77.591,63.60000000000001 C 77.243,63.15100000000001 76.678,62.94200000000001 76.131,63.06200000000001 C 72.876,63.77800000000001 71.541,63.52200000000001 71.091,63.36200000000001 C 71.457,62.71800000000001 73.00999999999999,61.35300000000001 75.761,60.70800000000001 C 76.55199999999999,60.52200000000001 77.045,59.71800000000001 76.863,58.911000000000016 C 76.681,58.103000000000016 75.896,57.59800000000001 75.107,57.78400000000001 C 70.726,58.811000000000014 67.596,61.652000000000015 68.131,64.11700000000002 C 68.444,65.54400000000003 69.833,66.97900000000001 74.43,66.40200000000002 C 74.33600000000001,67.91700000000002 74.903,68.95200000000001 75.369,69.51500000000001 C 76.628,71.03600000000002 78.905,71.58700000000002 81.169,70.91800000000002 C 82.79899999999999,70.43800000000002 84.103,69.42600000000002 84.94,68.05800000000002 C 86.538,69.32600000000002 88.684,69.87900000000002 90.495,69.80400000000002 C 92.72,69.71100000000001 94.34100000000001,68.76100000000001 94.831,67.26300000000002 C 95.045,66.61000000000001 95.08500000000001,65.71900000000002 94.537,64.64900000000002 C 96.84100000000001,64.22000000000001 98.54100000000001,63.286000000000016 99.266,61.96100000000001 C 99.783,61.021 99.769,59.964 99.23,59.059" fill="#000000"/>
	<path d="M 5.138,78.371 C 5.138,85.69399999999999 9.834,88.312 15.627,88.312 L 84.274,88.312 C 90.06700000000001,88.312 94.762,85.694 94.762,78.371 L 94.762,73.84 L 5.138,73.84 L 5.138,78.371" fill="#000000"/>
	<path d="M 75.926,0.0 L 23.974,0.0 C 12.819,0.197 5.138,7.72 5.138,13.868 L 5.138,17.427 L 94.763,17.427 L 94.763,13.867999999999999 C 94.762,7.72 87.08,0.197 75.926,0.0 M 19.781,11.149 L 16.424,13.972999999999999 C 15.577,14.684999999999999 14.312999999999999,14.578 13.599,13.732999999999999 C 12.885,12.889 12.992,11.626999999999999 13.839,10.915 L 17.196,8.091 C 18.042,7.379 19.306,7.485999999999999 20.020000000000003,8.331 C 20.735,9.175 20.627,10.437 19.781,11.149 M 30.555,7.516 C 29.714,8.236 28.45,8.141 27.728,7.304 L 24.765,3.8670000000000004 C 24.043,3.0290000000000004 24.139,1.7660000000000005 24.978,1.0460000000000003 C 25.818,0.3260000000000003 27.084000000000003,0.42100000000000026 27.806,1.2580000000000002 L 30.768,4.695 C 31.489,5.533 31.394,6.796 30.555,7.516 M 45.148,11.837 L 41.791000000000004,14.661 C 40.944,15.373 39.68000000000001,15.266 38.966,14.421999999999999 C 38.252,13.576999999999998 38.359,12.315999999999999 39.205,11.604 L 42.562,8.78 C 43.407999999999994,8.068 44.672999999999995,8.174999999999999 45.388,9.019 C 46.102,9.864 45.995,11.125 45.148,11.837 M 55.92,8.206 C 55.081,8.926 53.815000000000005,8.83 53.093,7.991999999999999 L 50.132000000000005,4.555 C 49.410000000000004,3.718 49.507000000000005,2.4549999999999996 50.346000000000004,1.7349999999999999 C 51.185,1.015 52.451,1.1109999999999998 53.17400000000001,1.9489999999999998 L 56.135000000000005,5.385999999999999 C 56.857,6.223 56.761,7.486 55.92,8.206 M 72.094,7.174 L 68.73899999999999,9.997 C 67.892,10.709 66.62599999999999,10.602 65.913,9.757 C 65.2,8.913 65.30799999999999,7.651 66.15299999999999,6.939 L 69.50899999999999,4.116 C 70.35699999999999,3.404 71.62099999999998,3.5109999999999997 72.33399999999999,4.356 C 73.049,5.201 72.941,6.462 72.094,7.174 M 90.155,13.811 C 89.592,14.763 88.363,15.08 87.41,14.52 L 83.74799999999999,12.367999999999999 C 82.79199999999999,11.806999999999999 82.47399999999999,10.581 83.03599999999999,9.629999999999999 C 83.59799999999998,8.677999999999999 84.82699999999998,8.360999999999999 85.78099999999999,8.921 L 89.445,11.073 L 89.445,11.073 C 90.398,11.633 90.716,12.859 90.155,13.811" fill="#000000"/>
</svg>
