<?xml version="1.0" ?>
<svg xmlns="http://www.w3.org/2000/svg" xmlns:ev="http://www.w3.org/2001/xml-events" xmlns:xlink="http://www.w3.org/1999/xlink" baseProfile="full" enable-background="new 0 0 100.014 69.338" height="417px" overflow="visible" version="1.1" viewBox="0 0 100.014 69.338" width="600px" x="0px" xml:space="preserve" y="0px">
	<defs/>
	<path d="M 89.874,10.988 L 86.88499999999999,13.926 L 90.865,13.927 L 93.859,10.987 L 89.874,10.987 L 89.874,10.988 M 95.95,10.988 L 92.95700000000001,13.928999999999998 L 97.016,13.929999999999998 L 100.01400000000001,10.987999999999998 L 95.95,10.987999999999998 L 95.95,10.988 M 84.033,10.988 L 81.045,13.922 L 84.792,13.925 L 87.782,10.988000000000001 L 84.033,10.988000000000001 L 84.033,10.988 M 77.086,10.988 L 77.086,13.921 L 78.95,13.921999999999999 L 81.94,10.988 L 77.086,10.988" fill="#000000"/>
	<path d="M 32.911,27.186 L 36.772,27.174 C 36.772,27.174 36.782,32.309 35.175,32.900999999999996 C 33.565999999999995,33.495 31.711999999999996,32.99699999999999 31.711999999999996,32.99699999999999 L 32.911,27.186" fill="#000000"/>
	<path d="M 70.025,2.673 C 67.974,2.376 65.924,2.0780000000000003 63.87500000000001,1.7810000000000001 L 63.87500000000001,23.142 C 65.92500000000001,22.844 67.97500000000001,22.547 70.025,22.25 C 72.971,21.789 75.36,19.764 75.36,17.725 L 75.36,7.197 C 75.36,5.159 72.972,3.134 70.025,2.673" fill="#000000"/>
	<path d="M 13.208,59.417 L 13.208,55.87 L 6.165,55.87 L 6.165,64.919 L 6.177,64.919 C 6.303999999999999,67.38 8.334,69.339 10.827,69.339 L 35.125,69.339 L 35.125,59.417 L 13.208,59.417" fill="#000000"/>
	<path d="M 47.042,0.0 L 24.937,0.0 L 24.937,0.03 C 24.429,0.012 23.919,0.0 23.403,0.0 C 10.478,0.0 0.0,5.582 0.0,12.468 C 0.0,17.856 6.417,22.445999999999998 15.4,24.188000000000002 C 16.793,24.683000000000003 18.55,25.485000000000003 19.0,26.498 C 20.007,28.764000000000003 11.232,45.58 8.809,53.371 L 15.334,53.371 L 15.334,57.182 L 32.875,57.182 C 33.308,55.418 33.582,53.711 33.582,53.711 C 33.582,53.711 30.108,50.01 30.182000000000002,49.126999999999995 C 30.226000000000003,48.583999999999996 29.936000000000003,42.718999999999994 31.756000000000004,35.29899999999999 C 30.858000000000004,35.21099999999999 30.240000000000002,35.04899999999999 30.185000000000002,35.032999999999994 L 29.730000000000004,34.91199999999999 L 29.825000000000003,34.45099999999999 L 31.686000000000003,24.943999999999996 C 31.686000000000003,24.943999999999996 37.992000000000004,24.960999999999995 38.036,24.937999999999995 L 47.041000000000004,24.937999999999995 C 47.041000000000004,24.937999999999995 57.736000000000004,23.850999999999996 61.354000000000006,23.325999999999993 L 61.354000000000006,1.599 C 57.736,1.073 47.042,0.0 47.042,0.0" fill="#000000"/>
</svg>
