<?xml version="1.0" ?>
<svg xmlns="http://www.w3.org/2000/svg" xmlns:cc="http://creativecommons.org/ns#" xmlns:dc="http://purl.org/dc/elements/1.1/" xmlns:ev="http://www.w3.org/2001/xml-events" xmlns:inkscape="http://www.inkscape.org/namespaces/inkscape" xmlns:rdf="http://www.w3.org/1999/02/22-rdf-syntax-ns#" xmlns:sodipodi="http://sodipodi.sourceforge.net/DTD/sodipodi-0.dtd" xmlns:svg="http://www.w3.org/2000/svg" xmlns:xlink="http://www.w3.org/1999/xlink" baseProfile="full" enable-background="new 49.748 15.261 100 30.712" height="185px" version="1.1" viewBox="49.748 15.261 100 30.712" width="600px" x="0px" xml:space="preserve" y="0px">
	<defs/>
	<path d="M 475.493,381.373 C 463.86,381.506 452.154,381.401 440.639,383.301 C 438.011,386.353 436.601,390.397 434.406,393.815 C 431.992,398.134 429.571,402.45 427.247,406.819 C 429.35200000000003,410.272 435.457,408.944 439.168,410.149 C 459.137,412.50600000000003 479.315,412.356 499.377,411.555 C 508.48400000000004,411.128 517.597,410.148 526.528,408.373 C 529.13,405.657 523.8770000000001,402.051 523.253,399.06 C 520.397,393.892 517.552,388.717 514.6030000000001,383.601 C 510.9150000000001,382.467 506.9240000000001,382.632 503.09200000000004,382.198 C 493.908,381.564 484.697,381.398 475.493,381.373 L 475.493,381.373 M 475.493,383.881 C 485.804,383.90099999999995 496.121,384.14099999999996 506.401,384.96299999999997 C 487.933,387.71999999999997 469.067,387.647 450.557,385.335 C 445.656,384.63599999999997 452.81800000000004,384.58599999999996 454.644,384.387 C 461.586,383.985 468.541,383.891 475.493,383.881 M 441.623,385.966 C 455.991,389.685 470.98699999999997,389.647 485.72499999999997,389.361 C 494.92999999999995,389.077 504.20399999999995,388.381 513.125,385.966 C 516.871,392.71000000000004 520.617,399.456 524.363,406.2 C 505.00900000000007,409.762 485.2180000000001,409.712 465.61000000000007,409.418 C 453.98100000000005,409.14300000000003 442.3230000000001,408.414 430.86800000000005,406.303 C 430.636,404.451 432.63300000000004,402.70799999999997 433.33900000000006,400.882 C 436.101,395.909 438.862,390.937 441.623,385.966"/>
</svg>
