<?xml version="1.0" ?>
<svg xmlns="http://www.w3.org/2000/svg" xmlns:ev="http://www.w3.org/2001/xml-events" xmlns:xlink="http://www.w3.org/1999/xlink" baseProfile="full" enable-background="new 0 0 100 100" height="600px" version="1.1" viewBox="0 0 100 100" width="595px" x="0px" xml:space="preserve" y="0px">
	<defs/>
	<path d="M 9.057,92.397 C 4.23,87.571 1.572,81.152 1.572,74.328 C 1.572,67.50200000000001 4.23,61.085 9.057,56.259 L 11.646,58.848 C 7.511000000000001,62.983 5.2330000000000005,68.481 5.2330000000000005,74.328 C 5.2330000000000005,80.17500000000001 7.511000000000001,85.673 11.646,89.807 L 9.057,92.397"/>
	<path d="M 12.411,89.042 C 8.481,85.111 6.316999999999999,79.887 6.316999999999999,74.328 C 6.316999999999999,68.769 8.482,63.544000000000004 12.411999999999999,59.614000000000004 L 15.0,62.203 C 8.314,68.88900000000001 8.314,79.767 15.0,86.45400000000001 L 12.411,89.042"/>
	<path d="M 99.495,36.827 C 99.495,16.816999999999997 83.273,0.5970000000000013 63.26500000000001,0.5970000000000013 C 60.72500000000001,0.5970000000000013 58.24400000000001,0.8590000000000013 55.854000000000006,1.3570000000000013 C 41.431,3.974 29.072,15.272 26.225,27.564 C 25.504,30.684 24.686,38.835 24.686,38.835 L 16.891,58.510999999999996 C 16.735,58.861 16.659999999999997,59.266999999999996 16.659999999999997,59.68299999999999 C 16.659999999999997,61.34199999999999 18.000999999999998,62.69299999999999 19.669999999999995,62.69299999999999 L 24.684999999999995,62.69299999999999 L 24.684999999999995,67.88699999999999 L 35.337999999999994,74.03799999999998 L 26.067999999999994,79.38899999999998 C 28.414999999999996,84.41899999999998 33.50899999999999,87.90199999999999 39.425,87.90199999999999 L 45.284,87.90199999999999 L 45.284,99.35099999999998 L 67.05799999999999,99.35099999999998 L 85.192,99.35099999999998 L 85.192,67.604 C 93.895,60.760999999999996 99.49499999999999,50.123999999999995 99.49499999999999,38.195 C 99.49499999999999,37.943 99.49199999999999,37.692 99.487,37.442 C 99.491,37.237 99.495,37.033 99.495,36.827 M 35.492,46.29 C 33.172999999999995,46.29 31.290999999999997,44.41 31.290999999999997,42.091 C 31.290999999999997,39.779 33.174,37.903 35.492,37.903 C 37.791,37.903 39.677,39.778 39.677,42.091 C 39.679,44.411 37.792,46.29 35.492,46.29" fill="#000000"/>
</svg>
