<?xml version="1.0" ?>
<svg xmlns="http://www.w3.org/2000/svg" xmlns:cc="http://creativecommons.org/ns#" xmlns:dc="http://purl.org/dc/elements/1.1/" xmlns:ev="http://www.w3.org/2001/xml-events" xmlns:inkscape="http://www.inkscape.org/namespaces/inkscape" xmlns:rdf="http://www.w3.org/1999/02/22-rdf-syntax-ns#" xmlns:sodipodi="http://sodipodi.sourceforge.net/DTD/sodipodi-0.dtd" xmlns:svg="http://www.w3.org/2000/svg" xmlns:xlink="http://www.w3.org/1999/xlink" baseProfile="full" enable-background="new -0.078 18.018 100 63.999" height="385px" version="1.1" viewBox="-0.078 18.018 100 63.999" width="600px" x="0px" xml:space="preserve" y="0px">
	<defs/>
	<path d="M 38.54,31.523 L 25.137,31.523 L 25.137,68.569 L 38.028,68.569 L 73.604,68.569 L 74.512,68.569 L 75.41,68.569 L 75.527,68.569 L 75.527,31.523 L 38.54,31.523 M 64.375,51.558 L 40.435,63.667 C 39.17,64.312 38.135000000000005,63.931000000000004 38.135000000000005,62.827 L 38.135000000000005,37.969 L 38.135000000000005,37.969 C 38.135000000000005,36.865 39.17,36.485 40.435,37.124 L 64.375,49.238 C 65.645,49.878 65.645,50.923 64.375,51.558" fill="#1F1A17"/>
	<path d="M 99.922,20.586 L 99.922,18.017999999999997 L 49.165,18.017999999999997 L 47.495,18.017999999999997 L -0.068,18.017999999999997 L -0.029000000000000005,20.557 L 1.866,20.557 L 1.866,26.06 L 1.729,26.06 L 1.729,26.07 L 0.21,26.074 L 0.21,26.06 L 0.049,26.06 L 0.093,28.951 L 5.816,28.951 L 46.089000000000006,28.951 L 47.48500000000001,28.951 L 48.88600000000001,28.951 L 49.07200000000001,28.951 L 82.959,28.951 L 99.922,28.951 L 99.922,26.07 L 94.52199999999999,26.07 L 94.52199999999999,20.582 L 99.922,20.586 M 14.219,26.069 L 5.874,26.069 L 5.874,26.069 L 5.879,20.581 L 14.219,20.586 L 14.219,26.069 M 18.354,26.069 L 18.358999999999998,20.581 L 26.694,20.591 L 26.698999999999998,26.07 L 18.354,26.07 L 18.354,26.069 M 30.83,26.064 L 30.83,20.585 L 39.17,20.585 L 39.18,26.068 L 30.83,26.064 M 52.93,26.074 L 49.16,26.074 L 47.485,26.074 L 43.315,26.074 L 43.309999999999995,20.586000000000002 L 47.495,20.586000000000002 L 49.154999999999994,20.586000000000002 L 52.93899999999999,20.586000000000002 L 52.93,26.074 M 65.41,26.074 L 57.08,26.069000000000003 L 57.07,20.586000000000002 L 65.42,20.581000000000003 L 65.41,26.074 M 69.561,26.074 L 69.561,20.586000000000002 L 77.891,20.591 L 77.891,26.07 L 69.561,26.074 M 90.381,26.069 L 82.041,26.069 L 82.041,20.581 L 90.381,20.586 L 90.381,26.069" fill="#1F1A17"/>
	<path d="M 99.902,73.657 L 99.902,71.079 L 49.146,71.079 L 47.48,71.079 L -0.078,71.079 L -0.044,73.618 L 1.851,73.618 L 1.851,79.12599999999999 L 1.714,79.12599999999999 L 1.714,79.136 L 0.195,79.136 L 0.195,79.12599999999999 L 0.034,79.12599999999999 L 0.078,82.017 L 5.801,82.017 L 5.801,82.017 L 46.074000000000005,82.017 L 47.470000000000006,82.017 L 48.87100000000001,82.017 L 49.05700000000001,82.017 L 82.94900000000001,82.017 L 99.90200000000002,82.017 L 99.90200000000002,79.136 L 94.50200000000001,79.136 L 94.51200000000001,73.648 L 99.902,73.657 M 14.204,79.136 L 5.859,79.136 L 5.864,73.648 L 14.204,73.648 L 14.204,79.136 M 18.34,79.136 L 18.345,73.648 L 26.68,73.658 L 26.685,79.137 L 18.34,79.137 L 18.34,79.136 M 30.815,79.136 L 30.815,73.648 L 39.155,73.648 L 39.165,79.136 L 30.815,79.136 M 52.915,79.136 L 49.144999999999996,79.136 L 47.47,79.136 L 43.3,79.136 L 43.294999999999995,73.648 L 47.48,73.648 L 49.13999999999999,73.648 L 52.92399999999999,73.648 L 52.915,79.136 M 65.4,79.136 L 57.06,79.136 L 57.06,73.648 L 65.4,73.648 L 65.4,79.136 M 69.551,79.136 L 69.551,73.648 L 77.87100000000001,73.658 L 77.88100000000001,79.137 L 69.551,79.137 L 69.551,79.136 M 90.371,79.136 L 82.021,79.136 L 82.031,73.648 L 90.37100000000001,73.648 L 90.37100000000001,79.136 L 90.371,79.136" fill="#1F1A17"/>
	<path d="M 78.096,31.523 L 78.096,68.569 L 92.061,68.569 L 99.629,68.569 L 99.629,31.523 L 92.471,31.523 L 78.174,31.523 L 78.096,31.523" fill="#1F1A17" points="78.096,31.523 78.096,68.569 92.061,68.569 99.629,68.569 99.629,31.523    92.471,31.523 78.174,31.523 "/>
	<path d="M 0.122,31.475 L 0.044,31.475 L 0.044,68.521 L 14.438,68.521 L 22.236,68.521 L 22.236,31.475 L 14.863,31.475 L 0.122,31.475" fill="#1F1A17" points="0.122,31.475 0.044,31.475 0.044,68.521 14.438,68.521 22.236,68.521    22.236,31.475 14.863,31.475 "/>
</svg>
