<?xml version="1.0" ?>
<svg xmlns="http://www.w3.org/2000/svg" xmlns:ev="http://www.w3.org/2001/xml-events" xmlns:xlink="http://www.w3.org/1999/xlink" baseProfile="full" enable-background="new 0 0 100 100" height="570px" version="1.1" viewBox="0 0 100 100" width="600px" x="0px" xml:space="preserve" y="0px">
	<defs/>
	<path d="M 100.0,32.746 C 100.0,32.679 99.991,32.613 99.986,32.547000000000004 C 99.982,32.48500000000001 99.982,32.42100000000001 99.973,32.359 C 99.964,32.296 99.949,32.234 99.93599999999999,32.172000000000004 C 99.92299999999999,32.107000000000006 99.91399999999999,32.042 99.89699999999999,31.978000000000005 C 99.88099999999999,31.920000000000005 99.85799999999999,31.864000000000004 99.838,31.807000000000006 C 99.817,31.743000000000006 99.79799999999999,31.676000000000005 99.773,31.613000000000007 C 99.749,31.556000000000008 99.717,31.503000000000007 99.69,31.446000000000005 C 99.66199999999999,31.387000000000004 99.636,31.326000000000004 99.603,31.269000000000005 C 99.57,31.212000000000007 99.53099999999999,31.160000000000004 99.494,31.106000000000005 C 99.46,31.055 99.429,31.0 99.39,30.95 C 99.35,30.897 99.302,30.848 99.258,30.797 C 99.217,30.752 99.181,30.703 99.137,30.659 C 99.091,30.613999999999997 99.039,30.573 98.991,30.529999999999998 C 98.942,30.487999999999996 98.897,30.442999999999998 98.845,30.403 C 98.742,30.323 98.633,30.250999999999998 98.519,30.183999999999997 L 51.374,2.966 C 50.455000000000005,2.435 49.322,2.4370000000000003 48.404,2.97 L 1.584,30.179 C 1.584,30.179 1.5830000000000002,30.179 1.5830000000000002,30.18 C 1.5830000000000002,30.18 1.5820000000000003,30.18 1.5820000000000003,30.181 L 1.5730000000000004,30.186 C 1.5230000000000004,30.216 1.4780000000000004,30.251 1.4290000000000005,30.283 C 1.3700000000000006,30.323 1.3080000000000005,30.359 1.2520000000000004,30.403000000000002 C 1.1990000000000005,30.443 1.1520000000000004,30.489 1.1030000000000004,30.533 C 1.0560000000000005,30.575000000000003 1.0060000000000004,30.614 0.9610000000000004,30.658 C 0.9130000000000004,30.707 0.8710000000000004,30.761000000000003 0.8260000000000004,30.812 C 0.7870000000000004,30.857000000000003 0.7450000000000004,30.901 0.7080000000000004,30.947000000000003 C 0.6660000000000004,31.002000000000002 0.6310000000000004,31.061000000000003 0.5930000000000004,31.119000000000003 C 0.5610000000000004,31.168000000000003 0.5250000000000004,31.215000000000003 0.49500000000000044,31.266000000000002 C 0.4620000000000004,31.324 0.43600000000000044,31.385 0.40600000000000047,31.446 C 0.379,31.5 0.348,31.553 0.325,31.61 C 0.3,31.67 0.282,31.734 0.261,31.796 C 0.24000000000000002,31.855 0.21700000000000003,31.912 0.2,31.973 C 0.183,32.037 0.17300000000000001,32.104 0.16,32.17 C 0.148,32.231 0.132,32.291000000000004 0.123,32.353 C 0.114,32.419000000000004 0.114,32.487 0.109,32.554 C 0.105,32.616 0.096,32.676 0.096,32.739000000000004 L 0.0,67.241 C -0.003,68.30199999999999 0.562,69.284 1.481,69.814 L 48.626000000000005,97.03299999999999 C 49.084,97.29899999999999 49.596000000000004,97.42999999999999 50.106,97.42999999999999 C 50.235,97.42999999999999 50.363,97.422 50.491,97.40599999999999 C 50.514,97.40199999999999 50.537,97.395 50.56,97.39099999999999 C 50.664,97.37499999999999 50.767,97.35699999999999 50.870000000000005,97.329 C 50.89300000000001,97.324 50.916000000000004,97.312 50.93900000000001,97.30699999999999 C 51.040000000000006,97.27699999999999 51.14000000000001,97.24499999999999 51.239000000000004,97.20499999999998 C 51.267,97.19199999999998 51.294000000000004,97.17699999999998 51.322,97.16399999999999 C 51.410000000000004,97.12399999999998 51.499,97.08399999999999 51.585,97.03499999999998 C 51.587,97.03299999999999 51.589,97.03199999999998 51.591,97.03099999999998 C 51.593,97.02899999999998 51.595,97.02899999999998 51.596000000000004,97.02799999999998 L 98.429,69.81099999999998 C 99.33800000000001,69.28299999999997 99.9,68.31099999999998 99.903,67.25799999999998 L 100.0,32.759 C 100.0,32.757 100.0,32.754 100.0,32.753 C 100.0,32.75 100.0,32.748 100.0,32.746 M 49.897,8.956 L 67.644,19.201999999999998 L 26.584,42.908 L 8.971,32.739 L 49.897,8.956 M 47.159,89.345 L 5.93,65.541 L 6.0089999999999995,37.870999999999995 L 47.237,61.67399999999999 L 47.159,89.345 M 50.2,56.542 L 32.509,46.329 L 73.57,22.623 L 91.12599999999999,32.759 L 50.2,56.542 M 93.981,65.543 L 53.084,89.311 L 53.162000000000006,61.67400000000001 L 94.06,37.90700000000001 L 93.981,65.543"/>
	<path d="M 43.817,83.419 L 26.114,73.198 L 26.147,61.316 L 43.851,71.537 L 43.817,83.419" points="43.817,83.419 26.114,73.198 26.147,61.316 43.851,71.537  "/>
</svg>
