<?xml version="1.0" ?>
<svg xmlns="http://www.w3.org/2000/svg" xmlns:ev="http://www.w3.org/2001/xml-events" xmlns:xlink="http://www.w3.org/1999/xlink" baseProfile="full" enable-background="new 0 0 100 100" height="181px" version="1.1" viewBox="0 0 100 100" width="600px" x="0px" xml:space="preserve" y="0px">
	<defs/>
	<path d="M 0.0,65.029 L 13.307,65.029 L 20.021,45.009 L 0.0,65.029 M 2.011,64.197 L 18.105,48.103 L 12.708,64.197 L 2.011,64.197"/>
	<path d="M 50.014,35.013 L 50.029,34.97 L 30.005,54.994 L 19.969,65.029 L 39.948,65.029 L 50.014,35.013 M 48.112,38.063 L 39.348,64.197 L 21.977999999999998,64.197 L 48.112,38.063"/>
	<path d="M 79.992,45.022 L 79.99600000000001,45.009 L 79.98700000000001,45.017 L 59.977,65.029 L 73.283,65.029 L 79.992,45.022 M 61.986,64.197 L 78.08,48.103 L 72.68299999999999,64.197 L 61.986,64.197"/>
	<path d="M 20.021,45.01 L 13.307,65.029 L 19.969,65.029 L 30.005,54.994 L 20.021,45.01" points="20.021,45.01 13.307,65.029 19.969,65.029 30.005,54.994  "/>
	<path d="M 50.014,35.013 L 39.947,65.029 L 40.042,65.029 L 59.959,65.029 L 69.995,54.994 L 50.014,35.013" points="50.014,35.013 39.947,65.029 40.042,65.029 59.959,65.029 69.995,54.994  "/>
	<path d="M 79.987,45.018 L 79.979,45.01 L 69.995,54.994 L 59.959,65.029 L 59.977,65.029 L 79.987,45.018" points="79.987,45.018 79.979,45.01 69.995,54.994 59.959,65.029 59.977,65.029  "/>
	<path d="M 79.992,45.022 L 73.282,65.029 L 80.031,65.029 L 100.0,65.029 L 79.992,45.022" points="79.992,45.022 73.282,65.029 80.031,65.029 100,65.029  "/>
</svg>
