<?xml version="1.0" ?>
<svg xmlns="http://www.w3.org/2000/svg" xmlns:ev="http://www.w3.org/2001/xml-events" xmlns:xlink="http://www.w3.org/1999/xlink" baseProfile="full" enable-background="new 0 0 100 100" height="600px" version="1.1" viewBox="0 0 100 100" width="273px" x="0px" xml:space="preserve" y="0px">
	<defs/>
	<path d="M 72.555,45.381 C 72.328,44.742 70.521,42.743 67.07700000000001,38.966 C 61.63800000000001,32.999 53.41500000000001,23.981 53.41500000000001,21.355 C 53.41500000000001,17.998 55.494000000000014,15.442 55.51400000000001,15.417000000000002 L 55.65200000000001,15.252000000000002 L 55.540000000000006,15.070000000000002 C 55.540000000000006,15.070000000000002 49.11000000000001,4.6030000000000015 47.467000000000006,1.913000000000002 C 46.658,0.591 43.911,0.0 41.55,0.0 C 38.583999999999996,0.0 36.022999999999996,0.823 34.69499999999999,2.201 C 33.92799999999999,3.0010000000000003 33.56199999999999,3.965 33.60499999999999,5.07 C 33.64199999999999,6.045 33.73699999999999,8.232 33.86499999999999,11.221 C 34.48699999999999,25.764 35.944999999999986,59.818 35.69899999999999,64.4 C 35.57399999999999,66.68700000000001 34.160999999999994,70.013 32.52299999999999,73.86000000000001 C 30.22399999999999,79.26900000000002 27.61699999999999,85.39800000000001 27.32599999999999,91.31300000000002 C 27.01799999999999,97.54200000000002 33.43699999999999,99.95900000000002 33.50099999999999,99.98100000000002 L 33.605,100.0 C 48.641999999999996,100.0 57.852,96.129 57.943,96.089 L 58.224,95.969 L 58.1,95.69 C 54.447,87.657 58.115,83.98599999999999 59.682,82.42 C 60.43,81.671 61.684000000000005,81.259 62.896,80.86 C 64.254,80.416 65.539,79.993 66.071,79.101 C 66.839,77.814 66.42699999999999,75.416 65.951,72.64 C 65.63199999999999,70.778 65.30199999999999,68.855 65.30199999999999,67.106 C 65.30199999999999,62.907 66.746,60.24999999999999 66.761,60.221999999999994 L 66.91499999999999,59.94299999999999 L 65.74099999999999,59.38999999999999 L 67.36999999999999,57.760999999999996 L 67.15899999999999,57.54899999999999 C 65.92899999999999,56.31999999999999 65.746,53.88399999999999 65.719,53.21999999999999 C 68.766,51.446 73.535,48.147 72.555,45.381 M 47.084,25.02 C 46.962,25.029 46.85,25.049 46.717000000000006,25.049 C 45.882000000000005,25.049 45.06,24.826 44.617000000000004,24.685 C 45.33200000000001,23.573 46.159000000000006,22.965 46.970000000000006,22.965 C 47.03600000000001,22.965 47.10300000000001,22.97 47.169000000000004,22.98 C 46.993,23.238 46.885000000000005,23.62 46.885000000000005,24.072 C 46.885,24.445 46.959,24.77 47.084,25.02 M 48.577,24.436 C 48.594,24.321 48.604,24.2 48.604,24.072 C 48.604,23.98 48.598,23.891 48.589999999999996,23.804 C 48.683,23.906 48.775999999999996,24.011 48.864999999999995,24.128999999999998 C 48.784,24.246 48.681,24.341 48.577,24.436" fill="#000000"/>
</svg>
