<?xml version="1.0" ?>
<svg xmlns="http://www.w3.org/2000/svg" xmlns:ev="http://www.w3.org/2001/xml-events" xmlns:xlink="http://www.w3.org/1999/xlink" baseProfile="full" enable-background="new 21.475 2.369 57.05 100" height="600px" version="1.1" viewBox="21.475 2.369 57.05 100" width="343px" x="0px" xml:space="preserve" y="0px">
	<defs/>
	<path d="M 45.753,58.461 C 44.807,57.838 43.914,57.25 43.003,57.006 C 42.525,56.878 41.974000000000004,56.819 41.27,56.819 C 40.779,56.819 40.276,56.846000000000004 39.775000000000006,56.875 C 39.69500000000001,56.88 39.617000000000004,56.88 39.538000000000004,56.884 L 35.775000000000006,101.086 L 43.64300000000001,97.767 L 43.73300000000001,97.826 L 50.83400000000001,102.36999999999999 L 52.93900000000001,77.64499999999998 L 47.608000000000004,59.57599999999998 C 46.974,59.253 46.358,58.858 45.753,58.461"/>
	<path d="M 61.753,56.931 C 61.254,56.931 60.74,56.903 60.227,56.873999999999995 C 59.726,56.846999999999994 59.226,56.818 58.736,56.818 C 58.029999999999994,56.818 57.477999999999994,56.878 56.998999999999995,57.006 C 56.087999999999994,57.25 55.193999999999996,57.838 54.248,58.462 C 52.922999999999995,59.333000000000006 51.552,60.23500000000001 50.001,60.23500000000001 C 49.335,60.23500000000001 48.708999999999996,60.04800000000001 48.099999999999994,59.791000000000004 L 53.035999999999994,76.524 L 53.19499999999999,77.063 L 53.352999999999994,77.60300000000001 L 57.047,90.123 L 63.172,84.16900000000001 L 71.54299999999999,85.84700000000001 L 62.98799999999999,56.84800000000001 C 62.553,56.91 62.128,56.931 61.753,56.931"/>
	<path d="M 50.0,11.712 C 39.423,11.712 30.819,20.316 30.819,30.894 C 30.819,41.47 39.423,50.075 50.0,50.075 C 60.577,50.075 69.182,41.471000000000004 69.182,30.894000000000002 C 69.182,20.316 60.577,11.712 50.0,11.712"/>
	<path d="M 76.886,27.099 C 76.25399999999999,26.139 75.601,25.146 75.324,24.106 C 75.033,23.016000000000002 75.1,21.798000000000002 75.167,20.62 C 75.25,19.12 75.33,17.702 74.70700000000001,16.629 C 74.07400000000001,15.532000000000002 72.79400000000001,14.889000000000001 71.438,14.209000000000001 C 70.396,13.685000000000002 69.31700000000001,13.143 68.535,12.360000000000001 C 67.753,11.579 67.212,10.500000000000002 66.687,9.456000000000001 C 66.005,8.101 65.363,6.8210000000000015 64.265,6.186000000000002 C 63.652,5.831000000000001 62.877,5.671000000000002 61.756,5.671000000000002 C 61.269,5.671000000000002 60.771,5.699000000000002 60.272,5.727000000000002 C 59.754999999999995,5.756000000000002 59.237,5.785000000000002 58.73,5.785000000000002 C 57.955,5.785000000000002 57.336,5.717000000000002 56.788,5.570000000000002 C 55.748,5.292000000000002 54.757,4.639000000000002 53.797,4.008000000000002 C 52.573,3.2020000000000017 51.308,2.368000000000002 50.001,2.368000000000002 C 48.693999999999996,2.368000000000002 47.428999999999995,3.2010000000000023 46.204,4.008000000000002 C 45.246,4.6400000000000015 44.254,5.293000000000002 43.215,5.570000000000002 C 42.666000000000004,5.716000000000002 42.047000000000004,5.785000000000002 41.269000000000005,5.785000000000002 C 40.763000000000005,5.785000000000002 40.246,5.756000000000002 39.729000000000006,5.7280000000000015 C 39.230000000000004,5.700000000000002 38.73100000000001,5.6720000000000015 38.24600000000001,5.6720000000000015 C 37.12400000000001,5.6720000000000015 36.35000000000001,5.830000000000002 35.73600000000001,6.186000000000002 C 34.63900000000001,6.820000000000002 33.997000000000014,8.100000000000001 33.317000000000014,9.455000000000002 C 32.79300000000001,10.498000000000001 32.25100000000001,11.578000000000003 31.468000000000014,12.359000000000002 C 30.686000000000014,13.141000000000002 29.607000000000014,13.684000000000001 28.563000000000013,14.208000000000002 C 27.208000000000013,14.889000000000003 25.927000000000014,15.532000000000002 25.29400000000001,16.627000000000002 C 24.67400000000001,17.700000000000003 24.75300000000001,19.117000000000004 24.836000000000013,20.618000000000002 C 24.90200000000001,21.796000000000003 24.970000000000013,23.015 24.679000000000013,24.105000000000004 C 24.401000000000014,25.146000000000004 23.74800000000001,26.138000000000005 23.116000000000014,27.097000000000005 C 22.310000000000013,28.321000000000005 21.476000000000013,29.587000000000003 21.476000000000013,30.893000000000004 C 21.476000000000013,32.2 22.310000000000013,33.466 23.11700000000001,34.691 C 23.749000000000013,35.650000000000006 24.40200000000001,36.642 24.68000000000001,37.681000000000004 C 24.97100000000001,38.77100000000001 24.90300000000001,39.99 24.83700000000001,41.167 C 24.754000000000012,42.668 24.67400000000001,44.085 25.29500000000001,45.159 C 25.92900000000001,46.254999999999995 27.210000000000008,46.897 28.56500000000001,47.577999999999996 C 29.608000000000008,48.102 30.68800000000001,48.642999999999994 31.46900000000001,49.42399999999999 C 32.25200000000001,50.20599999999999 32.79400000000001,51.285999999999994 33.318000000000005,52.33099999999999 C 33.999,53.68499999999999 34.64000000000001,54.96499999999999 35.736000000000004,55.59799999999999 C 36.352000000000004,55.95499999999999 37.126000000000005,56.114999999999995 38.24700000000001,56.114999999999995 C 38.693000000000005,56.114999999999995 39.15100000000001,56.08899999999999 39.60900000000001,56.06399999999999 C 39.650000000000006,56.06099999999999 39.69000000000001,56.06099999999999 39.73100000000001,56.05899999999999 C 40.24800000000001,56.03099999999999 40.76500000000001,55.99999999999999 41.272000000000006,55.99999999999999 C 42.050000000000004,55.99999999999999 42.668000000000006,56.068999999999996 43.21600000000001,56.215999999999994 C 44.25500000000001,56.49399999999999 45.24600000000001,57.147999999999996 46.20400000000001,57.77799999999999 C 46.559000000000005,58.01099999999999 46.92000000000001,58.24199999999999 47.28200000000001,58.459999999999994 C 47.45100000000001,58.56099999999999 47.62100000000001,58.651999999999994 47.79200000000001,58.74399999999999 C 48.51500000000001,59.13199999999999 49.25000000000001,59.41799999999999 50.00100000000001,59.41799999999999 C 51.308000000000014,59.41799999999999 52.573000000000015,58.584999999999994 53.799000000000014,57.77799999999999 C 54.75700000000001,57.14699999999999 55.74800000000001,56.49399999999999 56.78800000000001,56.215999999999994 C 57.33800000000001,56.06999999999999 57.95600000000001,55.99999999999999 58.73600000000001,55.99999999999999 C 59.241000000000014,55.99999999999999 59.75700000000001,56.028999999999996 60.27300000000001,56.05799999999999 C 60.77100000000001,56.084999999999994 61.26800000000001,56.11399999999999 61.75300000000001,56.11399999999999 C 62.12700000000001,56.11399999999999 62.45000000000001,56.08999999999999 62.75300000000001,56.05199999999999 C 63.36200000000001,55.97999999999999 63.855000000000004,55.83599999999999 64.265,55.59799999999999 C 65.361,54.96699999999999 66.002,53.687999999999995 66.684,52.331999999999994 C 67.208,51.288 67.75,50.208999999999996 68.535,49.42699999999999 C 69.315,48.64399999999999 70.39699999999999,48.10099999999999 71.442,47.57599999999999 C 72.79599999999999,46.895999999999994 74.074,46.25399999999999 74.707,45.15899999999999 C 75.33,44.084999999999994 75.25,42.666999999999994 75.16699999999999,41.16499999999999 C 75.10099999999998,39.98799999999999 75.03299999999999,38.76999999999999 75.32399999999998,37.67999999999999 C 75.60099999999998,36.638999999999996 76.25499999999998,35.64699999999999 76.88599999999998,34.68699999999999 C 77.69199999999998,33.462999999999994 78.52599999999998,32.19699999999999 78.52599999999998,30.89199999999999 C 78.525,29.588 77.691,28.323 76.886,27.099 M 50.0,50.891 C 38.973,50.891 30.002,41.921 30.002,30.894 C 30.002,19.866999999999997 38.973,10.895 50.0,10.895 C 61.028,10.895 69.999,19.866999999999997 69.999,30.894 C 69.999,41.921 61.028,50.891 50.0,50.891"/>
</svg>
