<?xml version="1.0" ?>
<svg xmlns="http://www.w3.org/2000/svg" xmlns:ev="http://www.w3.org/2001/xml-events" xmlns:xlink="http://www.w3.org/1999/xlink" baseProfile="full" enable-background="new 0 0 100 100" height="594px" version="1.1" viewBox="0 0 100 100" width="600px" x="0px" xml:space="preserve" y="0px">
	<defs/>
	<path d="M 88.5,64.15 L 88.381,23.0 L 88.274,23.0 L 49.829,0.803 L 11.631,23.0 L 11.525,23.0 L 11.708,64.104 L 12.0,66.939 L 12.0,66.988 L 11.707,64.019 L 0.103,70.68 L 50.193000000000005,99.643 L 99.989,70.723 L 88.5,64.15 M 21.015,68.875 L 14.612000000000002,65.178 L 14.633000000000003,57.815 L 21.036,61.512 L 21.015,68.875 M 21.057,54.154 L 14.654,50.457 L 14.675,43.099000000000004 L 21.078,46.79600000000001 L 21.057,54.154 M 21.099,39.433 L 14.696000000000002,35.736 L 14.717000000000002,28.377999999999997 L 21.12,32.074999999999996 L 21.099,39.433 M 85.293,65.174 L 78.88900000000001,68.869 L 78.86900000000001,61.512 L 85.27100000000002,57.815 L 85.293,65.174 M 85.25,50.458 L 78.848,54.155 L 78.827,46.792 L 85.231,43.095 L 85.25,50.458 M 85.188,28.378 L 85.209,35.736 L 78.807,39.433 L 78.786,32.075 L 85.188,28.378 M 72.439,57.855 L 66.035,61.55 L 66.015,54.187 L 72.417,50.489999999999995 L 72.439,57.855 M 53.225,68.947 L 53.205,61.584 L 59.611,57.885000000000005 L 59.632,65.248 L 53.225,68.947 M 59.654,72.605 L 59.67400000000001,79.962 L 53.26800000000001,83.663 L 53.24700000000001,76.304 L 59.654,72.605 M 53.184,54.227 L 53.163,46.869 L 59.571,43.169 L 59.592,50.526999999999994 L 53.184,54.227 M 72.377,35.775 L 72.398,43.132999999999996 L 65.994,46.83 L 65.973,39.473 L 72.377,35.775 M 40.334,43.169 L 46.742000000000004,46.867999999999995 L 46.721000000000004,54.22599999999999 L 40.313,50.52599999999999 L 40.334,43.169 M 40.292,57.891 L 46.7,61.589999999999996 L 46.679,68.947 L 40.271,65.248 L 40.292,57.891 M 40.25,72.605 L 46.659,76.304 L 46.638,83.669 L 40.23,79.968 L 40.25,72.605 M 27.528,35.775 L 33.931,39.472 L 33.91,46.83 L 27.506999999999998,43.132999999999996 L 27.528,35.775 M 27.486,50.496 L 33.889,54.193000000000005 L 33.868,61.550000000000004 L 27.464000000000002,57.855000000000004 L 27.486,50.496 M 33.833,69.0 L 33.836,68.953 L 33.818,76.236 L 27.421999999999997,72.53 L 27.417999999999996,72.521 L 27.517999999999997,65.156 L 34.0,68.852 L 34.0,68.90700000000001 L 33.909,69.0 L 33.833,69.0 M 66.088,79.949 L 66.057,68.91 L 72.461,65.213 L 72.492,76.252 L 66.088,79.949"/>
</svg>
