<?xml version="1.0" ?>
<svg xmlns="http://www.w3.org/2000/svg" xmlns:ev="http://www.w3.org/2001/xml-events" xmlns:xlink="http://www.w3.org/1999/xlink" baseProfile="full" enable-background="new 0 0 100 100" height="600px" version="1.1" viewBox="0 0 100 100" width="600px" x="0px" xml:space="preserve" y="0px">
	<defs/>
	<path d="M 103.0,0.327 L 100.679,-2.0 L 27.962,70.717 C 27.309,70.153 26.631999999999998,69.634 25.932,69.155 L 32.324999999999996,58.091 L 29.475999999999996,56.446 L 23.088999999999995,67.511 C 22.317999999999994,67.14 21.527999999999995,66.81 20.726999999999997,66.529 L 26.685999999999996,44.283 L 23.516,43.434000000000005 L 17.551,65.682 C 16.714,65.522 15.864999999999998,65.415 15.015999999999998,65.35300000000001 L 15.015999999999998,52.57300000000001 L 11.726999999999999,52.57300000000001 L 11.726999999999999,65.35300000000001 C 10.877999999999998,65.415 10.035999999999998,65.522 9.191999999999998,65.682 L 3.233,43.435 L 0.05699999999999994,44.284 L 6.016,66.53 C 5.215,66.808 4.425,67.138 3.654,67.512 L -2.7329999999999997,56.447 L -5.582,58.092000000000006 L 0.8109999999999999,69.159 C 0.10999999999999999,69.632 -0.5660000000000001,70.153 -1.2189999999999999,70.718 L -17.508000000000003,54.42700000000001 L -19.835,56.75000000000001 L -3.54,73.041 C -4.104,73.693 -4.626,74.36699999999999 -5.102,75.067 L -16.166,68.67699999999999 L -17.811,71.52399999999999 L -6.746,77.91099999999999 C -7.12,78.68199999999999 -7.453,79.47299999999998 -7.731000000000001,80.27299999999998 L -29.974,74.31299999999999 L -30.823,77.48899999999999 L -8.575,83.44899999999998 C -8.735,84.28599999999999 -8.841999999999999,85.13599999999998 -8.907,85.98399999999998 L -21.686999999999998,85.98399999999998 L -21.686999999999998,89.27199999999998 L -8.906999999999998,89.27199999999998 C -8.841999999999999,90.12199999999997 -8.734999999999998,90.96999999999997 -8.574999999999998,91.80699999999997 L -30.823,97.77299999999997 L -29.974,100.94299999999997 L -7.731000000000002,94.98299999999998 C -7.452000000000002,95.78399999999998 -7.120000000000002,96.57399999999997 -6.746000000000001,97.34499999999997 L -17.811,103.73299999999998 L -16.166,106.58199999999998 L -5.102,100.19499999999998 C -4.627000000000001,100.88899999999998 -4.104,101.56599999999997 -3.54,102.21899999999998 L -18.612,117.28999999999998 L -16.290999999999997,119.61699999999998 L -1.2129999999999974,104.53899999999997 C -0.5659999999999974,105.10599999999997 0.11100000000000265,105.62599999999998 0.8110000000000026,106.10099999999997 L -5.581999999999997,117.16499999999996 L -2.732999999999997,118.80999999999996 L 3.6540000000000026,107.74799999999996 C 4.4250000000000025,108.11899999999996 5.2150000000000025,108.45099999999996 6.016000000000003,108.72999999999996 L 0.05700000000000305,130.97199999999995 L 3.233000000000003,131.82399999999996 L 9.192000000000004,109.57599999999995 C 10.029000000000003,109.73299999999995 10.878000000000004,109.83999999999995 11.727000000000004,109.90499999999994 L 11.727000000000004,122.68499999999995 L 15.016000000000004,122.68499999999995 L 15.016000000000004,109.90499999999994 C 15.865000000000004,109.83999999999995 16.714000000000002,109.73299999999995 17.551000000000002,109.57299999999995 L 23.51,131.82699999999994 L 26.686,130.97299999999993 L 20.727,108.73099999999992 C 21.528,108.45199999999993 22.318,108.11999999999992 23.089,107.74599999999992 L 29.476,118.80999999999992 L 32.325,117.16799999999992 L 25.932000000000002,106.10099999999991 C 26.633000000000003,105.62599999999992 27.309,105.10699999999991 27.962000000000003,104.53899999999992 L 44.251000000000005,120.83399999999992 L 46.578,118.50699999999992 L 30.283,102.22 C 30.847,101.567 31.369,100.89 31.845000000000002,100.196 L 42.909000000000006,106.583 L 44.55400000000001,103.737 L 33.48900000000001,97.34599999999999 C 33.863000000000014,96.57499999999999 34.19600000000001,95.78399999999999 34.47400000000001,94.987 L 56.71700000000001,100.94399999999999 L 57.57100000000001,97.77099999999999 L 35.32300000000001,91.80799999999999 C 35.47700000000001,90.97099999999999 35.58400000000001,90.12199999999999 35.64900000000001,89.273 L 48.42900000000001,89.273 L 48.42900000000001,85.985 L 35.64900000000001,85.985 C 35.58400000000001,85.136 35.47700000000001,84.29 35.31600000000001,83.45 L 57.56500000000001,77.48700000000001 L 56.716000000000015,74.31400000000001 L 34.47300000000001,80.274 C 34.18800000000002,79.473 33.862000000000016,78.686 33.488000000000014,77.912 L 44.55300000000001,71.525 L 42.90800000000001,68.67800000000001 L 31.84400000000001,75.06800000000001 C 31.369000000000007,74.37100000000001 30.846000000000007,73.69400000000002 30.282000000000007,73.04200000000002 L 103.0,0.327"/>
</svg>
