<?xml version="1.0" ?>
<svg xmlns="http://www.w3.org/2000/svg" xmlns:ev="http://www.w3.org/2001/xml-events" xmlns:xlink="http://www.w3.org/1999/xlink" baseProfile="full" enable-background="new 0 0 100 100" height="600px" version="1.1" viewBox="0 0 100 100" width="493px" x="0px" xml:space="preserve" y="0px">
	<defs/>
	<path d="M 50.74,100.0 L 56.803000000000004,100.0 L 56.803000000000004,89.209 C 67.44500000000001,91.06 89.148,86.11800000000001 89.148,86.11800000000001 C 78.042,86.58000000000001 66.011,62.51800000000001 66.011,62.51800000000001 C 70.176,65.29400000000001 79.42999999999999,63.906000000000006 79.42999999999999,63.906000000000006 C 67.398,58.816 61.532,35.215 61.532,35.215 C 65.234,36.141000000000005 66.89,34.289 66.89,34.289 C 54.397,28.737 50.277,4.674 50.277,4.674 L 49.723,4.674 C 49.723,4.674 45.604,28.737 33.11,34.289 C 33.11,34.289 34.766,36.141 38.469,35.215 C 38.469,35.215 32.601,58.816 20.57,63.906000000000006 C 20.57,63.906000000000006 29.825000000000003,65.29400000000001 33.99,62.51800000000001 C 33.99,62.51800000000001 21.959000000000003,86.58000000000001 10.853000000000002,86.11800000000001 C 10.853000000000002,86.11800000000001 32.556,91.06 43.199,89.209 L 43.199,100.0 L 49.260999999999996,100.0 L 50.74,100.0"/>
</svg>
