<?xml version="1.0" ?>
<svg xmlns="http://www.w3.org/2000/svg" xmlns:cc="http://creativecommons.org/ns#" xmlns:dc="http://purl.org/dc/elements/1.1/" xmlns:ev="http://www.w3.org/2001/xml-events" xmlns:inkscape="http://www.inkscape.org/namespaces/inkscape" xmlns:rdf="http://www.w3.org/1999/02/22-rdf-syntax-ns#" xmlns:sodipodi="http://sodipodi.sourceforge.net/DTD/sodipodi-0.dtd" xmlns:svg="http://www.w3.org/2000/svg" xmlns:xlink="http://www.w3.org/1999/xlink" baseProfile="full" enable-background="new 0 0 100 100" height="600px" version="1.1" viewBox="0 0 100 100" width="600px" x="0px" xml:space="preserve" y="0px">
	<defs/>
	<path d="M 72.886,69.203 C 77.398,63.826 79.874,57.02 79.874,50.0 C 79.874,33.503 66.497,20.125 50.0,20.125 C 33.503,20.125 20.125,33.503 20.125,50.0 C 20.125,57.019999999999996 22.602,63.826 27.113,69.203 L 28.514,70.873 L 22.621,75.81800000000001 L 24.27,77.78200000000001 L 30.163,72.83600000000001 L 28.515,70.87300000000002 L 25.175,73.67500000000003 L 23.774,72.00500000000002 C 19.393,66.78400000000002 16.688000000000002,60.39000000000002 15.963000000000001,53.666000000000025 L 12.613000000000001,53.89900000000002 L 12.434000000000001,51.34100000000002 L 15.784,51.10700000000002 C 15.772,50.73900000000002 15.766,50.36900000000002 15.766,50.00000000000002 C 15.766,41.22400000000002 19.072,33.22000000000002 24.503999999999998,27.16200000000002 L 22.084999999999997,24.82700000000002 L 23.865999999999996,22.98200000000002 L 26.284999999999997,25.31800000000002 C 32.150999999999996,19.68200000000002 40.019,16.11400000000002 48.717,15.79400000000002 L 48.717,12.43400000000002 L 51.28,12.43400000000002 L 51.28,15.79400000000002 C 59.978,16.11500000000002 67.84700000000001,19.68200000000002 73.713,25.31800000000002 L 76.133,22.98200000000002 L 77.913,24.826000000000022 L 75.49499999999999,27.16200000000002 C 80.929,33.22 84.234,41.224 84.234,50.0 C 84.234,50.37 84.22699999999999,50.739 84.216,51.107 L 87.565,51.339999999999996 L 87.386,53.898999999999994 L 84.035,53.666 C 83.31,60.39 80.60499999999999,66.78399999999999 76.223,72.005 L 74.823,73.675 L 77.377,75.818 L 75.72999999999999,77.783 L 69.83599999999998,72.839 L 71.48399999999998,70.874 L 72.886,69.203 L 72.886,69.203"/>
	<path d="M 40.081,55.958 L 43.63,59.659 L 48.082,54.745999999999995 C 48.776,55.026999999999994 49.542,55.15899999999999 50.339,55.105999999999995 C 53.16,54.919999999999995 55.295,52.480999999999995 55.107,49.660999999999994 C 55.058,48.925999999999995 54.856,48.236999999999995 54.534,47.623999999999995 L 68.14,32.607 L 52.563,45.571 C 51.713,45.077999999999996 50.712,44.824 49.661,44.894 C 46.841,45.080999999999996 44.705,47.519 44.893,50.339 C 44.925,50.821999999999996 45.023,51.285 45.177,51.717 L 40.081,55.958 L 40.081,55.958"/>
	<path d="M 50.0,0.0 C 22.388,0.0 0.0,22.388 0.0,50.0 C 0.0,77.612 22.388,100.0 50.0,100.0 C 77.612,100.0 100.0,77.612 100.0,50.0 C 100.0,22.388000000000005 77.612,0.0 50.0,0.0 M 50.0,7.681 C 73.364,7.681 92.318,26.636 92.318,50.0 C 92.318,73.364 73.364,92.318 50.0,92.318 C 26.636,92.318 7.681,73.364 7.681,50.0 C 7.681,26.636 26.636,7.681 50.0,7.681"/>
</svg>
