<?xml version="1.0" ?>
<svg xmlns="http://www.w3.org/2000/svg" xmlns:cc="http://creativecommons.org/ns#" xmlns:dc="http://purl.org/dc/elements/1.1/" xmlns:ev="http://www.w3.org/2001/xml-events" xmlns:inkscape="http://www.inkscape.org/namespaces/inkscape" xmlns:rdf="http://www.w3.org/1999/02/22-rdf-syntax-ns#" xmlns:sodipodi="http://sodipodi.sourceforge.net/DTD/sodipodi-0.dtd" xmlns:svg="http://www.w3.org/2000/svg" xmlns:xlink="http://www.w3.org/1999/xlink" baseProfile="full" enable-background="new 0 0 100 100" height="600px" version="1.1" viewBox="0 0 100 100" width="600px" x="0px" xml:space="preserve" y="0px">
	<defs/>
	<path d="M 0.0,71.429 L 22.222,49.207 L 23.809,50.793 L 46.031000000000006,28.570999999999998 L 44.444,26.983999999999998 L 71.429,0.0 L 79.367,7.936 C 72.45,14.853 78.346,8.957 71.429,15.873000000000001 L 68.254,12.698 L 66.667,14.285 L 69.842,17.46 L 66.667,20.635 L 63.492000000000004,17.46 L 61.904,19.047 L 65.08,22.222 L 61.903999999999996,25.396 L 58.73,22.222 L 57.141999999999996,23.809 L 60.31699999999999,26.983 L 57.141999999999996,30.157 L 53.967,26.983 L 52.379999999999995,28.57 L 55.553999999999995,31.744 L 52.379999999999995,34.919 L 49.205999999999996,31.743999999999996 L 47.61899999999999,33.330999999999996 L 50.79299999999999,36.50599999999999 L 47.61899999999999,39.68099999999999 L 44.443999999999996,36.50599999999999 L 42.85699999999999,38.092999999999996 L 46.03199999999999,41.267999999999994 L 42.85699999999999,44.44199999999999 L 39.68299999999999,41.267999999999994 L 38.09599999999999,42.855 L 41.27099999999999,46.029999999999994 L 38.09599999999999,49.20499999999999 L 34.92099999999999,46.029999999999994 L 33.33399999999999,47.617 L 36.508999999999986,50.791 L 33.33399999999999,53.965999999999994 L 30.15999999999999,50.791 L 28.57299999999999,52.379 L 31.74799999999999,55.553 L 28.57299999999999,58.729 L 25.39799999999999,55.553 L 23.81099999999999,57.141 L 26.98499999999999,60.315999999999995 L 23.81099999999999,63.49099999999999 L 20.63599999999999,60.315999999999995 L 19.04899999999999,61.903 L 22.22399999999999,65.079 L 19.04899999999999,68.253 L 15.873999999999988,65.079 L 14.286999999999988,66.666 L 17.46199999999999,69.84 C 10.856999999999989,76.446 15.98299999999999,71.319 7.938999999999989,79.36500000000001 L 0.0,71.429 L 0.0,71.429"/>
	<path d="M 22.222,39.683 L 34.92,26.984 L 41.27,26.984 L 42.857000000000006,28.571 L 23.81,47.619 L 22.223,46.032 L 22.223,39.683 L 22.222,39.683"/>
	<path d="M 71.429,57.143 L 73.017,58.731 L 73.017,65.081 L 60.317,77.778 L 53.967,77.778 L 52.379999999999995,76.19000000000001 L 71.429,57.143 L 71.429,57.143"/>
	<path d="M 98.412,11.111 L 98.41300000000001,7.937000000000001 L 92.06300000000002,1.5870000000000015 L 88.88800000000002,1.5870000000000015 C 66.13800000000002,24.337000000000003 40.21000000000002,50.264 17.459000000000017,73.016 L 20.634000000000018,73.016 L 26.98300000000002,79.366 L 26.98300000000002,82.539 C 49.735,59.789 75.662,33.862 98.412,11.111 L 98.412,11.111"/>
	<path d="M 92.063,20.635 L 100.0,28.571 L 73.017,55.555 L 71.429,53.967999999999996 L 49.207,76.19 L 50.793,77.77799999999999 L 28.571,100.0 L 20.634,92.062 C 28.679000000000002,84.018 23.552,89.146 30.158,82.539 L 33.332,85.71600000000001 L 34.919000000000004,84.12800000000001 L 31.744000000000003,80.95300000000002 L 34.919000000000004,77.77800000000002 L 38.094,80.95300000000002 L 39.681000000000004,79.36600000000001 L 36.50600000000001,76.19000000000001 L 39.681000000000004,73.016 L 42.855000000000004,76.19000000000001 L 44.44200000000001,74.60300000000001 L 41.26800000000001,71.42800000000001 L 44.44200000000001,68.25300000000001 L 47.617000000000004,71.42800000000001 L 49.20400000000001,69.84100000000001 L 46.02900000000001,66.66600000000001 L 49.20400000000001,63.491000000000014 L 52.37800000000001,66.66600000000001 L 53.96500000000001,65.07900000000001 L 50.79000000000001,61.903000000000006 L 53.96500000000001,58.729000000000006 L 57.14000000000001,61.903000000000006 L 58.72800000000001,60.316 L 55.55200000000001,57.141000000000005 L 58.72800000000001,53.96600000000001 L 61.90200000000001,57.141000000000005 L 63.49000000000001,55.553000000000004 L 60.31500000000001,52.379000000000005 L 63.49000000000001,49.205000000000005 L 66.665,52.379000000000005 L 68.25200000000001,50.791000000000004 L 65.078,47.617000000000004 L 68.25200000000001,44.44200000000001 L 71.427,47.617000000000004 L 73.015,46.03 L 69.839,42.855000000000004 L 73.015,39.681000000000004 L 76.18900000000001,42.855000000000004 L 77.777,41.268 L 74.602,38.093 L 77.777,34.918000000000006 L 80.952,38.093 L 82.538,36.506 L 79.365,33.331 L 82.538,30.157000000000004 L 85.715,33.331 L 87.301,31.744000000000003 L 84.127,28.569000000000003 C 91.043,21.656 85.147,27.551 92.063,20.635 L 92.063,20.635"/>
</svg>
