<?xml version="1.0" ?>
<svg xmlns="http://www.w3.org/2000/svg" xmlns:ev="http://www.w3.org/2001/xml-events" xmlns:xlink="http://www.w3.org/1999/xlink" baseProfile="full" enable-background="new 0 0 100 94.209" height="566px" version="1.1" viewBox="0 0 100 94.209" width="600px" x="0px" xml:space="preserve" y="0px">
	<defs/>
	<path d="M 51.62,0.0 C 62.589,0.871 71.231,10.069 71.231,21.262 C 71.231,32.659 62.26499999999999,41.955 51.00999999999999,42.534 L 51.00999999999999,46.900999999999996 C 54.08099999999999,47.385999999999996 56.43599999999999,50.05499999999999 56.43599999999999,53.263 C 56.43599999999999,54.047 56.29099999999999,54.799 56.035999999999994,55.495 L 60.02799999999999,57.8 C 66.198,48.482 78.64299999999999,45.440999999999995 88.44999999999999,51.104 C 98.23599999999999,56.754999999999995 101.85,69.011 96.91699999999999,78.997 C 103.68799999999999,65.82 98.97899999999998,49.485 86.00599999999999,41.996 C 82.76299999999999,40.123000000000005 79.30599999999998,38.982 75.80599999999998,38.510000000000005 C 77.14499999999998,35.246 77.88699999999999,31.674000000000007 77.88699999999999,27.927000000000007 C 77.887,13.059 66.268,0.886 51.62,0.0 L 51.62,0.0"/>
	<path d="M 48.044,0.016 C 33.468999999999994,0.979 21.924999999999997,13.111 21.924999999999997,27.926 C 21.924999999999997,31.567 22.621,35.045 23.886999999999997,38.232 C 20.493999999999996,38.729 17.132999999999996,39.859 13.981999999999998,41.678 C 1.099,49.117 -3.622,65.28 2.952,78.412 C -1.795,68.47200000000001 1.8459999999999999,56.38000000000001 11.546,50.778000000000006 C 21.415999999999997,45.080000000000005 33.948,48.197 40.076,57.654 L 43.929,55.431000000000004 C 43.687000000000005,54.754000000000005 43.563,54.022000000000006 43.563,53.263000000000005 C 43.563,50.19200000000001 45.718,47.620000000000005 48.595,46.982000000000006 L 48.595,42.525000000000006 C 37.442,41.84100000000001 28.589,32.587 28.589,21.261000000000006 C 28.589,10.119 37.144,0.959 48.044,0.016 L 48.044,0.016"/>
	<path d="M 49.29,26.803 C 43.66,26.932000000000002 38.471,28.849 34.211,31.968 C 34.551,32.471 34.917,32.959 35.302,33.426 C 35.688,33.894000000000005 36.096,34.342 36.524,34.77 C 36.952000000000005,35.19800000000001 37.4,35.606 37.868,35.992000000000004 C 38.211000000000006,36.276 38.580000000000005,36.531000000000006 38.943000000000005,36.791000000000004 C 42.087,34.725 45.85300000000001,33.516000000000005 49.909000000000006,33.516000000000005 C 53.967000000000006,33.516000000000005 57.72200000000001,34.72500000000001 60.86600000000001,36.791000000000004 C 61.229000000000006,36.531000000000006 61.59700000000001,36.276 61.94100000000001,35.992000000000004 C 62.40900000000001,35.606 62.857000000000006,35.19800000000001 63.28500000000001,34.77 C 63.713000000000015,34.342 64.12100000000001,33.894000000000005 64.507,33.426 C 64.893,32.958 65.259,32.47 65.60000000000001,31.968000000000004 C 61.18500000000001,28.738000000000003 55.77400000000001,26.803000000000004 49.91000000000001,26.803000000000004 C 49.77000000000001,26.803000000000004 49.63200000000001,26.801000000000005 49.49200000000001,26.803000000000004 C 49.428,26.804 49.357,26.8 49.29,26.803 L 49.29,26.803"/>
	<path d="M 23.628,50.297 C 23.035,55.735 24.068,61.39 27.0,66.47 C 29.933,71.55 34.314,75.279 39.316,77.484 C 39.585,76.93599999999999 39.824000000000005,76.374 40.033,75.806 C 40.247,75.236 40.431000000000004,74.663 40.588,74.078 C 40.745,73.49300000000001 40.88,72.898 40.979,72.301 C 41.054,71.863 41.094,71.418 41.133,70.97200000000001 C 37.776,69.28300000000002 34.845,66.626 32.816,63.11200000000001 C 30.79,59.6 29.954,55.74 30.17,51.984 C 29.763,51.799 29.358,51.611000000000004 28.94,51.454 C 28.372,51.243 27.798000000000002,51.058 27.212,50.901 C 26.627,50.743 26.035,50.61900000000001 25.436,50.518 C 24.839,50.417 24.234,50.34 23.628,50.297 L 23.628,50.297"/>
	<path d="M 76.368,50.615 C 75.764,50.658 75.158,50.736000000000004 74.56099999999999,50.836 C 73.963,50.937 73.371,51.062999999999995 72.78399999999999,51.219 C 72.202,51.376 71.61899999999999,51.562000000000005 71.05199999999999,51.773 C 70.63399999999999,51.929 70.23599999999999,52.127 69.827,52.311 C 70.044,56.064 69.21,59.927 67.179,63.439 C 65.154,66.951 62.221000000000004,69.602 58.861000000000004,71.293 C 58.906000000000006,71.738 58.943000000000005,72.18100000000001 59.018,72.62100000000001 C 59.12,73.21900000000001 59.245,73.811 59.401,74.39600000000002 C 59.558,74.98100000000001 59.743,75.56300000000002 59.957,76.13000000000001 C 60.166000000000004,76.7 60.405,77.25500000000001 60.674,77.80300000000001 C 65.67699999999999,75.59500000000001 70.05799999999999,71.87400000000001 72.989,66.796 C 75.92,61.716 76.961,56.053 76.368,50.615 L 76.368,50.615"/>
	<path d="M 45.151,57.492 L 41.273,59.739999999999995 C 46.258,69.743 42.67400000000001,82.036 32.865,87.699 C 23.106,93.334 10.723000000000003,90.37 4.523000000000003,81.158 C 12.569000000000003,93.553 29.020000000000003,97.617 41.965,90.143 C 45.101000000000006,88.333 47.747,85.998 49.868,83.326 C 52.031,86.136 54.768,88.577 58.032000000000004,90.46199999999999 C 70.992,97.94299999999998 87.464,93.86399999999999 95.499,81.43699999999998 C 89.31099999999999,90.68599999999998 76.911,93.67999999999998 67.13199999999999,88.03299999999999 C 57.26299999999999,82.33599999999998 53.69399999999999,69.92399999999998 58.82099999999999,59.886999999999986 L 54.78899999999999,57.557999999999986 C 53.611,58.869 51.901,59.7 50.0,59.7 C 48.068,59.7 46.331,58.841 45.151,57.492 L 45.151,57.492"/>
</svg>
