<?xml version="1.0" ?>
<svg xmlns="http://www.w3.org/2000/svg" xmlns:ev="http://www.w3.org/2001/xml-events" xmlns:xlink="http://www.w3.org/1999/xlink" baseProfile="full" enable-background="new 0 0 100 100" height="600px" version="1.1" viewBox="0 0 100 100" width="567px" x="0px" xml:space="preserve" y="0px">
	<defs/>
	<path d="M 49.994,0.106 L 40.782,16.437 C 40.589,16.718 40.275999999999996,16.911 39.95099999999999,16.911 C 39.782999999999994,16.911 29.946999999999996,11.489 29.946999999999996,11.489 L 35.806999999999995,37.115 C 35.85399999999999,37.246 35.85399999999999,37.356 35.85399999999999,37.488 C 35.85399999999999,38.415 35.09199999999999,39.144 34.20199999999999,39.144 C 33.74199999999999,39.144 33.32199999999999,38.951 33.026999999999994,38.674 L 22.591,26.55 L 18.597,33.632 C 18.381,33.89 18.038,34.113 17.659000000000002,34.113 C 17.604000000000003,34.113 4.565000000000003,31.555 4.565000000000003,31.555 C 4.565000000000003,31.555 9.013000000000003,45.623 9.013000000000003,45.762 C 9.013000000000003,46.207 8.761000000000003,46.604 8.392000000000003,46.82 L 2.876000000000003,49.979 L 26.788000000000004,68.992 C 27.010000000000005,69.218 27.131000000000004,69.513 27.131000000000004,69.83800000000001 C 27.131000000000004,69.995 24.610000000000003,79.784 24.610000000000003,79.784 C 24.610000000000003,79.784 45.70400000000001,75.41600000000001 45.79900000000001,75.41600000000001 C 46.58800000000001,75.41600000000001 47.25500000000001,76.09500000000001 47.25500000000001,76.90100000000001 L 46.81700000000001,99.89300000000001 L 53.175000000000004,99.89300000000001 L 52.778000000000006,76.90100000000001 C 52.778000000000006,76.09400000000001 53.41700000000001,75.41600000000001 54.223000000000006,75.41600000000001 C 54.30700000000001,75.41600000000001 75.399,79.784 75.399,79.784 C 75.399,79.784 72.859,69.995 72.859,69.83800000000001 C 72.859,69.51400000000001 72.99799999999999,69.218 73.213,68.992 L 97.124,49.979 L 91.61099999999999,46.82 C 91.23899999999999,46.604 90.99799999999999,46.207 90.99799999999999,45.762 C 90.99799999999999,45.623 95.43799999999999,31.555 95.43799999999999,31.555 C 95.43799999999999,31.555 82.41699999999999,34.113 82.36999999999999,34.113 C 81.94999999999999,34.113 81.63699999999999,33.89 81.40599999999999,33.632 L 77.41099999999999,26.549999999999997 L 66.99099999999999,38.674 C 66.67099999999999,38.951 66.26899999999999,39.144 65.80599999999998,39.144 C 64.90799999999999,39.144 64.14599999999999,38.415 64.14599999999999,37.488 C 64.14599999999999,37.357 70.05899999999998,11.489 70.05899999999998,11.489 C 70.05899999999998,11.489 60.22699999999998,16.911 60.06999999999998,16.911 C 59.726999999999975,16.911 59.40299999999998,16.718 59.23499999999998,16.437 L 49.994,0.106"/>
</svg>
