<?xml version="1.0" ?>
<svg xmlns="http://www.w3.org/2000/svg" xmlns:ev="http://www.w3.org/2001/xml-events" xmlns:xlink="http://www.w3.org/1999/xlink" baseProfile="full" enable-background="new 2.081 0.955 97.971 100" height="600px" version="1.1" viewBox="2.081 0.955 97.971 100" width="588px" x="0px" xml:space="preserve" y="0px">
	<defs/>
	<path d="M 96.52,10.078 C 96.52,10.078 96.28999999999999,10.142999999999999 96.195,10.264999999999999 L 95.854,10.076999999999998 L 95.508,10.296999999999999 L 95.39699999999999,10.153999999999998 C 99.18599999999999,4.539999999999998 100.458,3.5029999999999983 99.94399999999999,2.275999999999998 C 99.75299999999999,1.818999999999998 99.06499999999998,1.1239999999999981 98.755,1.058999999999998 C 98.42399999999999,0.9909999999999979 98.143,0.8859999999999979 97.701,1.024999999999998 C 97.02399999999999,1.2369999999999979 95.17999999999999,2.126999999999998 94.52699999999999,2.406999999999998 C 94.38199999999999,2.4689999999999976 93.86199999999998,2.711999999999998 93.15399999999998,3.0459999999999976 C 93.16999999999999,3.0349999999999975 93.18899999999998,3.0229999999999975 93.18899999999998,3.0229999999999975 L 92.62799999999997,1.9639999999999975 C 92.62799999999997,1.9639999999999975 92.13099999999997,2.0889999999999977 91.94499999999996,2.1509999999999976 C 91.75699999999996,2.2129999999999974 91.35399999999997,2.5559999999999974 91.16699999999996,2.7119999999999975 C 90.97899999999996,2.8689999999999976 91.04199999999996,2.9299999999999975 91.16699999999996,3.1169999999999973 C 91.29099999999995,3.303999999999997 91.59699999999997,3.6149999999999975 91.69699999999996,3.6659999999999973 C 91.72699999999996,3.6819999999999973 91.76999999999995,3.6819999999999973 91.81599999999996,3.679999999999997 C 91.28199999999995,3.933999999999997 90.71199999999996,4.204999999999997 90.13099999999996,4.480999999999997 L 89.57499999999996,3.4339999999999975 C 89.57499999999996,3.4339999999999975 89.07799999999996,3.5579999999999976 88.88999999999996,3.6209999999999973 C 88.70399999999995,3.682999999999997 88.29899999999996,4.024999999999998 88.11399999999996,4.181999999999998 C 87.92599999999996,4.336999999999998 87.98799999999996,4.397999999999998 88.11399999999996,4.584999999999997 C 88.22199999999997,4.750999999999998 88.49499999999996,5.067999999999997 88.60299999999997,5.208999999999997 C 88.0,5.492 87.43,5.764 86.938,5.999 L 86.381,4.944 C 86.381,4.944 85.885,5.069 85.697,5.131 C 85.50800000000001,5.1930000000000005 85.105,5.5360000000000005 84.918,5.691000000000001 C 84.732,5.846000000000001 84.795,5.909000000000001 84.918,6.096000000000001 C 85.04100000000001,6.283000000000001 85.50800000000001,6.532000000000001 85.572,6.625000000000001 C 85.578,6.633000000000001 85.60300000000001,6.628000000000001 85.626,6.625000000000001 C 85.464,6.702000000000001 85.33800000000001,6.763000000000001 85.296,6.782000000000001 C 85.122,6.864000000000001 84.534,7.170000000000001 84.54700000000001,7.224000000000001 C 84.59800000000001,7.440000000000001 84.94300000000001,7.687000000000001 84.95500000000001,8.426000000000002 C 84.97800000000001,9.896000000000003 84.83900000000001,10.199000000000002 84.33700000000002,10.713000000000001 C 83.63200000000002,11.435 52.77300000000002,41.763000000000005 52.308000000000014,42.114000000000004 C 51.737000000000016,42.543000000000006 51.198000000000015,43.255 48.621000000000016,43.036 C 48.56000000000002,43.03 48.22400000000002,43.048 47.033000000000015,43.631 C 45.655000000000015,44.308 3.8430000000000177,67.05799999999999 3.123000000000019,67.483 C 2.353000000000019,67.938 2.1650000000000187,68.822 2.097000000000019,69.13900000000001 C 2.037000000000019,69.41600000000001 2.124000000000019,70.513 2.598000000000019,70.97200000000001 C 3.297000000000019,71.64800000000001 4.273000000000019,71.96600000000001 5.101000000000019,72.07900000000001 C 5.136000000000019,72.084 5.471000000000019,72.051 6.017000000000019,71.99000000000001 L 6.017000000000019,72.254 C 6.017000000000019,72.254 5.784000000000019,72.302 5.714000000000019,72.417 C 5.645000000000019,72.533 5.598000000000019,72.65 5.866000000000019,72.744 C 6.134000000000019,72.838 6.6940000000000195,72.744 6.7870000000000195,72.744 C 6.88100000000002,72.744 7.137000000000019,72.65 7.020000000000019,72.487 C 6.903000000000019,72.32399999999998 6.764000000000019,72.41799999999999 6.741000000000019,72.208 C 6.733,72.13 6.725,72.02 6.717,71.91 C 12.049,71.298 28.764,69.237 29.11,69.431 C 29.962,69.90899999999999 30.473,70.125 30.86,71.309 C 31.054,71.90299999999999 31.467,72.371 30.730999999999998,78.813 C 29.828,86.729 29.389999999999997,93.09400000000001 29.389999999999997,93.09400000000001 C 29.016999999999996,96.83000000000001 28.647,99.09100000000001 29.33,99.83900000000001 C 29.772,100.32200000000002 30.756999999999998,100.808 31.127,100.87800000000001 C 31.750999999999998,100.99500000000002 32.853,101.00800000000001 33.391,100.69000000000001 C 34.592999999999996,99.97900000000001 33.781,100.71700000000001 37.347,93.36200000000001 C 41.827,84.123 55.463,53.63200000000001 56.317,52.30800000000001 C 56.939,51.345000000000006 56.836,49.35300000000001 56.836,49.35300000000001 C 57.024,48.23400000000001 57.406,47.14300000000001 57.687999999999995,46.77000000000001 C 57.967,46.39700000000001 58.712999999999994,45.37000000000001 58.712999999999994,45.37000000000001 C 58.712999999999994,45.37000000000001 58.806999999999995,44.250000000000014 59.17999999999999,43.69000000000001 C 59.55299999999999,43.12900000000001 87.184,14.28500000000001 87.184,14.28500000000001 C 87.184,14.28500000000001 89.038,13.19600000000001 91.386,14.098000000000011 C 91.984,14.328000000000012 92.551,14.527000000000012 92.943,13.911000000000012 C 93.129,13.618000000000013 93.309,13.333000000000013 93.485,13.057000000000013 C 93.501,13.033000000000014 93.514,13.013000000000012 93.53,12.989000000000013 C 93.541,12.997000000000012 93.553,13.006000000000013 93.58,13.024000000000013 C 93.709,13.117000000000013 93.594,13.295000000000014 93.696,13.374000000000013 C 93.851,13.491000000000014 93.953,13.677000000000014 93.953,13.677000000000014 C 93.953,13.677000000000014 94.49600000000001,14.317000000000014 94.839,14.565000000000014 C 95.17699999999999,14.809000000000013 95.242,14.798000000000014 95.47,14.612000000000014 C 95.738,14.389000000000014 96.056,13.858000000000015 96.056,13.858000000000015 L 96.194,13.200000000000015 C 96.194,13.200000000000015 95.947,13.073000000000015 95.49300000000001,12.897000000000014 C 95.05900000000001,12.729000000000015 95.14300000000001,12.698000000000015 94.793,12.699000000000014 C 94.793,12.699000000000014 94.56,12.764000000000014 94.46600000000001,12.886000000000013 L 94.129,12.697000000000013 L 93.78200000000001,12.916000000000013 L 93.671,12.775000000000013 C 94.238,11.896000000000013 94.768,11.092000000000013 95.25200000000001,10.370000000000013 C 95.254,10.371000000000013 95.257,10.373000000000014 95.257,10.373000000000014 L 95.259,10.370000000000013 C 95.258,10.369000000000014 95.256,10.368000000000013 95.254,10.367000000000013 C 95.26,10.358000000000013 95.26700000000001,10.348000000000013 95.27300000000001,10.340000000000014 L 95.25900000000001,10.370000000000013 C 95.27000000000001,10.377000000000013 95.28300000000002,10.387000000000013 95.30900000000001,10.405000000000014 C 95.43800000000002,10.498000000000014 95.32300000000001,10.678000000000013 95.427,10.755000000000013 C 95.57900000000001,10.871000000000013 95.682,11.057000000000013 95.682,11.057000000000013 C 95.682,11.057000000000013 96.22800000000001,11.697000000000013 96.57000000000001,11.945000000000013 C 96.909,12.191000000000013 96.974,12.178000000000013 97.19900000000001,11.992000000000013 C 97.47000000000001,11.771000000000013 97.78800000000001,11.239000000000013 97.78800000000001,11.239000000000013 L 97.92300000000002,10.581000000000014 C 97.92300000000002,10.581000000000014 97.67600000000002,10.452000000000014 97.22300000000001,10.277000000000013 C 96.785,10.107 96.871,10.076 96.52,10.078"/>
	<path d="M 97.214,7.783 L 97.215,7.781000000000001 C 97.168,7.748 97.214,7.783 97.214,7.783"/>
	<path d="M 98.479,7.49 C 98.479,7.49 98.246,7.554 98.152,7.6770000000000005 L 97.813,7.488 L 97.465,7.708 L 97.33200000000001,7.539000000000001 L 97.215,7.782000000000001 C 97.227,7.790000000000001 97.238,7.799000000000001 97.26400000000001,7.817000000000001 C 97.39300000000001,7.911000000000001 97.27700000000002,8.090000000000002 97.382,8.167000000000002 C 97.536,8.284000000000002 97.637,8.470000000000002 97.637,8.470000000000002 C 97.637,8.470000000000002 98.182,9.110000000000003 98.525,9.358000000000002 C 98.863,9.603000000000002 98.92800000000001,9.591000000000003 99.156,9.405000000000003 C 99.424,9.183000000000003 99.74300000000001,8.651000000000003 99.74300000000001,8.651000000000003 L 99.87800000000001,7.993000000000003 C 99.87800000000001,7.993000000000003 99.63300000000001,7.866000000000003 99.17800000000001,7.689000000000003 C 98.741,7.52 98.828,7.488 98.479,7.49"/>
</svg>
