<?xml version="1.0" ?>
<svg xmlns="http://www.w3.org/2000/svg" xmlns:ev="http://www.w3.org/2001/xml-events" xmlns:xlink="http://www.w3.org/1999/xlink" baseProfile="full" enable-background="new 0 0 100 100" height="600px" version="1.1" viewBox="0 0 100 100" width="600px" x="0px" xml:space="preserve" y="0px">
	<defs/>
	<path d="M 49.863,0.0 C 22.324,0.0 0.0,22.324 0.0,49.863 C 0.0,77.402 22.324,99.726 49.863,99.726 C 77.402,99.726 99.726,77.402 99.726,49.863 C 99.726,22.323999999999998 77.401,0.0 49.863,0.0 M 49.107,9.903 C 52.679,9.903 55.571,12.794 55.571,16.343 C 55.571,19.915 52.678999999999995,22.806 49.107,22.806 C 45.56,22.806 42.669,19.914 42.667,16.343 C 42.667,12.794 45.558,9.903 49.107,9.903 M 77.05,30.728 L 57.866,33.152 L 57.874,52.356 L 67.168,83.381 C 67.659,85.34 66.48100000000001,87.3 64.543,87.784 C 62.60600000000001,88.268 60.62500000000001,87.20100000000001 60.13700000000001,85.242 L 50.616,57.0 L 47.684,57.0 L 38.925,85.828 C 38.192,87.709 36.096999999999994,88.574 34.217999999999996,87.84100000000001 C 32.357,87.11500000000001 31.220999999999997,84.99700000000001 31.955,83.11600000000001 L 40.0,52.67 L 40.0,33.152 L 22.326,30.747 C 20.512,30.601 19.28,29.004 19.428,27.19 C 19.561,25.362000000000002 21.211000000000002,24.005000000000003 23.024,24.151 L 44.497,26.0 L 53.914,26.0 L 76.78,24.115 C 78.597,24.041999999999998 80.137,25.455 80.19800000000001,27.285999999999998 C 80.271,29.104 78.868,30.653 77.05,30.728"/>
</svg>
