<?xml version="1.0" ?>
<svg xmlns="http://www.w3.org/2000/svg" xmlns:ev="http://www.w3.org/2001/xml-events" xmlns:xlink="http://www.w3.org/1999/xlink" baseProfile="full" enable-background="new 0 0 100 100" height="600px" version="1.1" viewBox="0 0 100 100" width="432px" x="0px" xml:space="preserve" y="0px">
	<defs/>
	<path d="M 83.244,59.388 L 23.753,2.937 C 23.026,2.247 22.281,1.8509999999999998 22.089,2.053 L 21.279,2.907 C 21.087,3.109 21.521,3.832 22.249,4.522 L 25.724999999999998,7.821 L 25.724999999999998,34.696 L 15.740999999999998,34.696 L 15.740999999999998,53.494 L 15.740999999999998,55.31 L 15.740999999999998,97.414 L 80.972,97.414 L 80.972,80.911 L 76.83699999999999,80.911 L 76.83699999999999,56.32 L 81.74,60.972 C 82.46799999999999,61.663000000000004 83.213,62.058 83.404,61.856 L 84.215,61.002 C 84.405,60.801 83.972,60.078 83.244,59.388 M 74.684,80.911 L 69.223,80.911 L 69.223,69.16 L 57.473,69.16 L 57.473,57.411 L 45.723,57.411 L 45.723,45.662 L 33.973,45.662 L 33.973,34.695 L 27.88,34.695 L 27.88,9.865 L 74.684,54.277 L 74.684,80.911"/>
	<path d="M 27.879,34.695 L 33.972,34.695 L 33.972,45.662 L 45.722,45.662 L 45.722,57.411 L 57.473,57.411 L 57.473,69.16 L 69.223,69.16 L 69.223,80.911 L 74.684,80.911 L 74.684,54.277 L 27.879,9.865 L 27.879,34.695" fill="none" points="27.879,34.695 33.972,34.695 33.972,45.662 45.722,45.662 45.722,57.411 57.473,57.411 57.473,69.16    69.223,69.16 69.223,80.911 74.684,80.911 74.684,54.277 27.879,9.865  "/>
</svg>
