<?xml version="1.0" ?>
<svg xmlns="http://www.w3.org/2000/svg" xmlns:ev="http://www.w3.org/2001/xml-events" xmlns:xlink="http://www.w3.org/1999/xlink" baseProfile="full" enable-background="new 0 0 80 80" height="600px" version="1.1" viewBox="0 0 80 80" width="600px" x="0px" xml:space="preserve" y="0px">
	<defs/>
	<path d="M 76.639,33.667 C 76.244,33.47 74.179,33.094 72.47999999999999,33.539 C 72.14299999999999,33.261 71.66099999999999,33.198 71.25599999999999,33.421 C 70.18499999999999,34.016 69.04699999999998,35.882 67.30099999999999,38.885 C 66.41599999999998,40.408 65.41199999999999,42.134 64.89299999999999,42.622 C 64.02699999999999,43.36 58.438999999999986,42.387 57.31299999999999,41.964 C 57.07499999999999,41.818 56.14599999999999,40.98 55.39899999999999,40.306 C 53.463999999999984,38.562 52.02899999999999,37.296 51.179999999999986,36.9 C 50.48699999999999,36.574 49.93699999999998,36.318 49.23399999999999,36.717 C 49.13499999999999,36.772999999999996 48.86999999999999,36.791 48.664999999999985,36.797 C 46.73599999999998,36.848 45.676999999999985,37.64 45.56199999999998,37.73 C 45.54099999999998,37.747 45.53199999999998,37.770999999999994 45.511999999999986,37.788 C 44.475999999999985,37.625 43.48099999999999,37.160999999999994 42.679999999999986,36.361999999999995 C 41.86799999999999,35.547999999999995 41.383999999999986,34.532 41.22499999999999,33.47599999999999 C 41.23899999999999,33.46099999999999 41.25799999999999,33.45499999999999 41.26999999999999,33.43899999999999 C 41.35999999999999,33.324999999999996 42.15299999999999,32.26499999999999 42.20599999999999,30.33599999999999 C 42.21199999999999,30.129999999999992 42.22999999999999,29.86499999999999 42.28599999999999,29.766999999999992 C 42.68499999999999,29.06299999999999 42.44099999999999,28.54199999999999 42.103999999999985,27.82399999999999 C 41.707999999999984,26.972999999999992 40.442999999999984,25.53899999999999 38.69999999999999,23.606999999999992 C 38.02499999999999,22.85899999999999 37.18499999999999,21.927999999999994 37.07499999999999,21.764999999999993 C 36.002999999999986,18.960999999999995 36.063999999999986,14.480999999999995 36.380999999999986,14.110999999999994 C 36.868999999999986,13.590999999999994 38.59299999999999,12.588999999999993 40.11399999999998,11.703999999999994 C 43.118999999999986,9.956999999999994 44.98699999999998,8.818999999999994 45.58099999999998,7.745999999999993 C 45.80599999999998,7.340999999999993 45.74099999999998,6.857999999999993 45.46299999999998,6.521999999999993 C 45.90799999999998,4.821999999999993 45.53099999999998,2.756999999999993 45.33399999999998,2.3629999999999933 C 45.201999999999984,2.098999999999993 44.88899999999998,1.9989999999999934 44.62199999999998,2.122999999999993 C 44.35399999999998,2.2469999999999932 44.23799999999998,2.571999999999993 44.35299999999998,2.843999999999993 C 44.45499999999998,3.0849999999999933 44.76499999999998,4.785999999999993 44.43399999999998,6.154999999999993 C 44.121999999999986,6.210999999999993 43.83399999999998,6.385999999999993 43.667999999999985,6.685999999999993 C 43.32199999999999,7.3099999999999925 40.62599999999998,8.876999999999992 39.01399999999998,9.813999999999993 C 37.12399999999998,10.912999999999993 35.49299999999998,11.860999999999994 34.78599999999998,12.613999999999994 C 32.75699999999998,14.771999999999993 35.02899999999998,22.543999999999993 35.05899999999998,22.613999999999994 C 35.225999999999985,23.004999999999995 35.68799999999998,23.533999999999995 37.07499999999998,25.070999999999994 C 38.10599999999998,26.213999999999995 39.83199999999998,28.127999999999993 40.12099999999998,28.748999999999995 C 40.16599999999998,28.844999999999995 40.20399999999998,28.924999999999994 40.23399999999998,28.992999999999995 C 40.11399999999998,29.291999999999994 40.03499999999998,29.671999999999993 40.01799999999998,30.275999999999996 C 39.98799999999998,31.375999999999998 39.63199999999998,31.958999999999996 39.55999999999998,32.06699999999999 C 38.81699999999998,32.279999999999994 38.03799999999998,32.519999999999996 37.219999999999985,32.791999999999994 L 34.813999999999986,30.102999999999994 C 34.661999999999985,29.932999999999993 34.45999999999999,29.813999999999993 34.23599999999998,29.764999999999993 C 30.816999999999982,29.004999999999992 26.889999999999983,28.001999999999995 26.244999999999983,27.643999999999995 C 25.710999999999984,27.291999999999994 23.956999999999983,24.531999999999996 23.551999999999982,22.333999999999996 C 23.412999999999982,21.580999999999996 23.487999999999982,21.139999999999997 23.60399999999998,20.978999999999996 C 23.956999999999983,20.488999999999997 23.84499999999998,19.805999999999997 23.354999999999983,19.452999999999996 C 22.863999999999983,19.099999999999994 22.18199999999998,19.210999999999995 21.828999999999983,19.701999999999995 C 21.265999999999984,20.483999999999995 21.143999999999984,21.608999999999995 21.465999999999983,23.046999999999993 C 22.018999999999984,25.514999999999993 23.923999999999985,28.857999999999993 25.171999999999983,29.548999999999992 C 26.337999999999983,30.197999999999993 31.672999999999984,31.429999999999993 33.417999999999985,31.821999999999992 L 34.990999999999985,33.57999999999999 C 33.64799999999998,34.07899999999999 32.262999999999984,34.63599999999999 30.878999999999984,35.24499999999999 L 27.383999999999983,33.65699999999999 C 27.118999999999982,33.53599999999999 26.81899999999998,33.52599999999999 26.54899999999998,33.627999999999986 C 22.80399999999998,35.02699999999999 16.78999999999998,36.72499999999999 15.145999999999981,36.12599999999998 C 12.982999999999981,35.33699999999998 12.386999999999981,33.15499999999999 12.363999999999981,33.067999999999984 C 12.216999999999981,32.48299999999998 11.622999999999982,32.12599999999998 11.03799999999998,32.27299999999998 C 10.45199999999998,32.41899999999998 10.09599999999998,33.012999999999984 10.24299999999998,33.59899999999998 C 10.277999999999981,33.73699999999998 11.12499999999998,36.98699999999998 14.39599999999998,38.179999999999986 C 14.85299999999998,38.34699999999999 15.43099999999998,38.41899999999998 16.09199999999998,38.417999999999985 C 19.46599999999998,38.417999999999985 24.94899999999998,36.53899999999999 26.88799999999998,35.83399999999998 L 28.26299999999998,36.45899999999998 C 26.91199999999998,37.12299999999998 25.60699999999998,37.829999999999984 24.38099999999998,38.56499999999998 C 24.26299999999998,38.475999999999985 24.12799999999998,38.40799999999999 23.97499999999998,38.37299999999998 C 23.58899999999998,38.28199999999998 20.14699999999998,37.54199999999998 18.32599999999998,39.255999999999986 L 17.90999999999998,39.646999999999984 C 16.26199999999998,41.19699999999998 11.883999999999979,45.313999999999986 10.487999999999978,46.320999999999984 C 9.79399999999998,46.82199999999998 7.628999999999978,47.15399999999998 5.709999999999979,47.301999999999985 C 6.051999999999978,45.944999999999986 6.240999999999978,43.98599999999998 5.207999999999979,42.326999999999984 C 4.888999999999979,41.81499999999998 4.213999999999979,41.65699999999998 3.7019999999999786,41.97699999999998 C 3.1899999999999786,42.295999999999985 3.0329999999999786,42.969999999999985 3.3519999999999786,43.48299999999998 C 4.457999999999979,45.25799999999998 3.1769999999999787,47.97499999999998 3.1649999999999787,47.999999999999986 C 2.997999999999979,48.34399999999999 3.021999999999979,48.74799999999998 3.227999999999979,49.06899999999999 C 3.428999999999979,49.38199999999999 3.775999999999979,49.57099999999999 4.146999999999979,49.57099999999999 C 4.155999999999979,49.57099999999999 4.164999999999979,49.57099999999999 4.172999999999979,49.57099999999999 C 5.130999999999979,49.54799999999999 9.999999999999979,49.36699999999999 11.76499999999998,48.09299999999999 C 13.09699999999998,47.13199999999999 16.37499999999998,44.08799999999999 19.405999999999977,41.237999999999985 L 19.81999999999998,40.84899999999998 C 20.21799999999998,40.47399999999998 20.95699999999998,40.34399999999998 21.69599999999998,40.33099999999998 C 20.77199999999998,41.00599999999998 19.93199999999998,41.69499999999998 19.23399999999998,42.39299999999998 C 12.606999999999982,49.01899999999998 11.95199999999998,59.11199999999998 15.73999999999998,62.90099999999998 C 19.52499999999998,66.68599999999998 29.61599999999998,66.03199999999998 36.24299999999998,59.40399999999998 C 37.05699999999998,58.58999999999998 37.85699999999998,57.58799999999998 38.634999999999984,56.469999999999985 C 38.71799999999998,57.423999999999985 38.66599999999998,58.624999999999986 38.14899999999999,59.17499999999998 L 37.86699999999999,59.47499999999998 C 35.14399999999999,62.36799999999998 31.89099999999999,65.86299999999999 30.90199999999999,67.23099999999998 C 29.62899999999999,68.99799999999998 29.44799999999999,73.86399999999998 29.42399999999999,74.82199999999997 C 29.41499999999999,75.20199999999997 29.60499999999999,75.55899999999997 29.92399999999999,75.76499999999997 C 30.10399999999999,75.88099999999997 30.309999999999988,75.93999999999997 30.51799999999999,75.93999999999997 C 30.67999999999999,75.93999999999997 30.84199999999999,75.90499999999997 30.99199999999999,75.83299999999997 C 31.01899999999999,75.81899999999997 33.73799999999999,74.54099999999997 35.51399999999999,75.64499999999997 C 36.02599999999999,75.96399999999997 36.69999999999999,75.80699999999997 37.01899999999999,75.29499999999997 C 37.337999999999994,74.78199999999997 37.18199999999999,74.10799999999998 36.66899999999999,73.78899999999997 C 35.00899999999999,72.75399999999998 33.04999999999999,72.94299999999997 31.69299999999999,73.28599999999997 C 31.84199999999999,71.36799999999997 32.17299999999999,69.20399999999998 32.67399999999999,68.51099999999997 C 33.70599999999999,67.08199999999997 37.88399999999999,62.64499999999997 39.45799999999999,60.97399999999997 L 39.74199999999999,60.67199999999997 C 41.45399999999999,58.849999999999966 40.71499999999999,55.40699999999997 40.62499999999999,55.02099999999997 C 40.54699999999999,54.684999999999974 40.31399999999999,54.437999999999974 40.025999999999996,54.299999999999976 C 40.809,52.985999999999976 41.556999999999995,51.57399999999998 42.25899999999999,50.11899999999998 L 43.163,52.107999999999976 C 42.318999999999996,54.42599999999997 39.797,61.812999999999974 40.815,64.59899999999998 C 42.009,67.87099999999998 45.257999999999996,68.71799999999998 45.396,68.75199999999998 C 45.485,68.77399999999999 45.574,68.78499999999998 45.662,68.78499999999998 C 46.150999999999996,68.78499999999998 46.598,68.45299999999999 46.722,67.95599999999999 C 46.868,67.371 46.512,66.77699999999999 45.926,66.63099999999999 C 45.904,66.62499999999999 43.67,66.04399999999998 42.869,63.84899999999999 C 42.268,62.20499999999999 43.969,56.19199999999999 45.368,52.44699999999999 C 45.469,52.17599999999999 45.459,51.874999999999986 45.339,51.61199999999999 L 43.583,47.75099999999999 C 43.547,47.67299999999999 43.488,47.61599999999999 43.437999999999995,47.55099999999999 C 44.00899999999999,46.23399999999999 44.535,44.91899999999999 45.01,43.64399999999999 L 47.172,45.57999999999999 C 47.565,47.32299999999999 48.797,52.65999999999999 49.446,53.82699999999999 C 50.143,55.07999999999999 53.491,56.98499999999999 55.958999999999996,57.53499999999999 C 56.477,57.64999999999999 56.952,57.70799999999999 57.38699999999999,57.70799999999999 C 58.157,57.70799999999999 58.794999999999995,57.526999999999994 59.29299999999999,57.16799999999999 C 59.78199999999999,56.81399999999999 59.892999999999994,56.13099999999999 59.53999999999999,55.64199999999999 C 59.18599999999999,55.15299999999999 58.50299999999999,55.04099999999999 58.01399999999999,55.39499999999999 C 57.85499999999999,55.51299999999999 57.41699999999999,55.58699999999999 56.66399999999999,55.44899999999999 C 54.466999999999985,55.04599999999999 51.70299999999999,53.29099999999999 51.35599999999999,52.76499999999999 C 50.99199999999999,52.11099999999999 49.98899999999999,48.181999999999995 49.228999999999985,44.76199999999999 C 49.17899999999999,44.538999999999994 49.060999999999986,44.336999999999996 48.890999999999984,44.184999999999995 L 45.801999999999985,41.419999999999995 C 46.009999999999984,40.806999999999995 46.19999999999999,40.21699999999999 46.37699999999999,39.645999999999994 C 46.55699999999999,39.623999999999995 46.73299999999999,39.57399999999999 46.889999999999986,39.46099999999999 C 46.914999999999985,39.44199999999999 47.52099999999999,39.01399999999999 48.71599999999999,38.98199999999999 C 49.31599999999999,38.96499999999999 49.694999999999986,38.88799999999999 49.99899999999999,38.76499999999999 C 50.066999999999986,38.79599999999999 50.14799999999999,38.833999999999996 50.24599999999999,38.879999999999995 C 50.865999999999985,39.169 52.78199999999999,40.897 53.926999999999985,41.928999999999995 C 55.545999999999985,43.388999999999996 55.99799999999998,43.77799999999999 56.377999999999986,43.94 C 56.426999999999985,43.961 60.16699999999999,45.056999999999995 63.18099999999998,45.056 C 64.51999999999998,45.056 65.71599999999998,44.839999999999996 66.37999999999998,44.215999999999994 C 67.13399999999999,43.507999999999996 68.08399999999997,41.87499999999999 69.18399999999998,39.983999999999995 C 70.11999999999999,38.373999999999995 71.68699999999998,35.678 72.30899999999998,35.333 C 72.60799999999999,35.167 72.78399999999998,34.879 72.83899999999998,34.567 C 74.20699999999998,34.235 75.90899999999998,34.546 76.14299999999999,34.645 C 76.41099999999999,34.78 76.74099999999999,34.672000000000004 76.87599999999999,34.401 C 77.019,34.13 76.909,33.802 76.639,33.667"/>
	<path d="M 43.527,30.524 C 42.17,31.882 42.17,34.084 43.527,35.44 C 44.885,36.799 47.087,36.799 48.445,35.440999999999995 C 48.951,34.934999999999995 49.267,34.31099999999999 49.396,33.657999999999994 C 51.793,32.06999999999999 49.584,29.471999999999994 49.584,29.471999999999994 C 49.713,30.529999999999994 49.267,30.911999999999995 48.876000000000005,31.053999999999995 C 48.752,30.867999999999995 48.608000000000004,30.689999999999994 48.444,30.524999999999995 C 48.307,30.387999999999995 48.157000000000004,30.274999999999995 48.006,30.166999999999994 C 48.152,29.779999999999994 48.536,29.344999999999995 49.584,29.472999999999995 C 49.584,29.472999999999995 47.069,27.341999999999995 45.477000000000004,29.555999999999994 C 44.764,29.659 44.076,29.975 43.527,30.524"/>
</svg>
