<?xml version="1.0" ?>
<svg xmlns="http://www.w3.org/2000/svg" xmlns:ev="http://www.w3.org/2001/xml-events" xmlns:xlink="http://www.w3.org/1999/xlink" baseProfile="full" enable-background="new 0 0 56.062 100" height="600px" version="1.1" viewBox="0 0 56.062 100" width="337px" x="0px" xml:space="preserve" y="0px">
	<defs/>
	<path d="M 52.836,93.436 L 51.315999999999995,93.436 C 50.42999999999999,92.42500000000001 50.099999999999994,91.16000000000001 50.36599999999999,89.599 C 50.809999999999995,87.025 52.64399999999999,84.88900000000001 53.517999999999994,84.57900000000001 L 53.504999999999995,84.555 C 54.745999999999995,84.108 55.669,82.905 55.669,81.48500000000001 L 55.732,14.137000000000015 C 55.732,12.332000000000015 54.275999999999996,10.861000000000015 52.504,10.849000000000014 C 52.504,10.849000000000014 39.022999999999996,10.837000000000014 35.328,10.810000000000015 C 35.34,7.636000000000015 35.351000000000006,3.284000000000015 35.351000000000006,3.284000000000015 C 35.351000000000006,1.955000000000015 34.580000000000005,0.7650000000000148 33.364000000000004,0.2540000000000151 C 32.151,-0.2579999999999849 30.770000000000003,0.02300000000001509 29.834000000000003,0.942000000000015 L 7.277,23.579 C 3.3160000000000003,27.560000000000002 0.1900000000000004,35.083 0.1770000000000005,40.741 L 0.0,87.856 C -0.012,94.44699999999999 5.278,99.84599999999999 11.824,99.87299999999999 L 52.824,99.99999999999999 C 54.607,99.99999999999999 56.062999999999995,98.52799999999999 56.062999999999995,96.73599999999999 L 56.062999999999995,96.725 C 56.062,94.905 54.633,93.448 52.836,93.436 M 49.239,17.4 C 49.239,23.018 49.189,72.57900000000001 49.177,78.209 L 12.228,78.209 L 35.365,58.605000000000004 L 35.317,17.374000000000002 C 37.417,17.386 47.291,17.4 49.239,17.4 M 6.481,87.869 C 6.481,87.869 6.492999999999999,85.157 6.492999999999999,84.76 L 45.189,84.76 C 44.632,85.95 44.189,87.20400000000001 43.974,88.47200000000001 C 43.669999999999995,90.224 43.821999999999996,91.86200000000001 44.212999999999994,93.41000000000001 L 11.845999999999997,93.30700000000002 C 8.886,93.307 6.481,90.876 6.481,87.869"/>
</svg>
