<?xml version="1.0" ?>
<svg xmlns="http://www.w3.org/2000/svg" xmlns:ev="http://www.w3.org/2001/xml-events" xmlns:xlink="http://www.w3.org/1999/xlink" baseProfile="full" enable-background="new 0 0 100 100" height="600px" version="1.1" viewBox="0 0 100 100" width="600px" x="0px" xml:space="preserve" y="0px">
	<defs/>
	<path d="M 94.703,35.329 L 94.703,35.329 C 97.492,31.635 99.0,27.155 99.0,22.445 C 99.0,16.715 96.771,11.332 92.721,7.279 C 88.67,3.229 83.283,1.0 77.555,1.0 C 72.885,1.0 68.44600000000001,2.481 64.77000000000001,5.223 L 4.671,65.558 L 4.671,65.558 C 2.286,69.077 1.0,73.238 1.0,77.564 C 1.0,83.28999999999999 3.229,88.672 7.279,92.72 C 11.244,96.68599999999999 16.512,98.914 22.115000000000002,98.997 C 26.582,99.062 30.877000000000002,97.763 34.5,95.291 L 34.5,95.291 L 94.703,35.329 M 67.107,12.352 C 67.148,12.31 67.189,12.27 67.23,12.227 L 67.283,12.168000000000001 C 70.025,9.426000000000002 73.674,7.916000000000001 77.553,7.916000000000001 C 81.43599999999999,7.916000000000001 85.086,9.426000000000002 87.83,12.171000000000001 C 90.574,14.914000000000001 92.084,18.563000000000002 92.084,22.444000000000003 C 92.084,26.325000000000003 90.574,29.973000000000003 87.83,32.719 L 87.773,32.769 C 87.728,32.811 87.68299999999999,32.852 87.63799999999999,32.894999999999996 L 85.202,35.248 L 85.245,35.299 L 61.764,58.784 L 45.987,43.005 L 15.132,73.627 C 13.611,75.149 13.218,77.294 12.92,77.99 C 12.642,80.446 12.647,83.91799999999999 14.024000000000001,86.20299999999999 C 15.449000000000002,88.56899999999999 17.412,89.79799999999999 20.813000000000002,92.017 C 17.657000000000004,91.66199999999999 14.601000000000003,90.264 12.170000000000002,87.83099999999999 C 9.426000000000002,85.08999999999999 7.916000000000002,81.44299999999998 7.916000000000002,77.56299999999999 C 7.916000000000002,73.93599999999999 9.253000000000002,70.47999999999999 11.682000000000002,67.80599999999998 L 41.234,38.25199999999998 L 41.215,38.23299999999998 L 64.61,14.841999999999985 L 67.107,12.352" fill="#000000"/>
</svg>
