<?xml version="1.0" ?>
<svg xmlns="http://www.w3.org/2000/svg" xmlns:ev="http://www.w3.org/2001/xml-events" xmlns:xlink="http://www.w3.org/1999/xlink" baseProfile="full" enable-background="new 0 0 100 100" height="600px" version="1.1" viewBox="0 0 100 100" width="600px" x="0px" xml:space="preserve" y="0px">
	<defs/>
	<path d="M 50.0,0.005 C 49.568,0.005 49.142,-0.005999999999999999 48.713,0.005 C 21.695,0.689 0.0,22.821 0.0,50.002 C 0.0,77.615 22.386,100.0 50.0,100.0 C 77.614,100.0 100.0,77.615 100.0,50.003 C 100.0,22.39 77.614,0.005 50.0,0.005 M 50.0,90.0 C 27.909,90.0 10.0,72.094 10.0,50.003 C 10.0,27.913 27.909,10.005000000000003 50.0,10.005000000000003 C 72.092,10.005000000000003 90.0,27.913000000000004 90.0,50.003 C 90.0,72.093 72.092,90.0 50.0,90.0" fill="#010101"/>
	<path d="M 35.857,79.41 L 76.824,50.0 L 35.647,20.59 L 35.857,79.41" fill="#010101" points="35.857,79.41 76.824,50 35.647,20.59 "/>
</svg>
