<?xml version="1.0" ?>
<svg xmlns="http://www.w3.org/2000/svg" xmlns:ev="http://www.w3.org/2001/xml-events" xmlns:xlink="http://www.w3.org/1999/xlink" baseProfile="full" enable-background="new 0 0 100 100" height="600px" version="1.1" viewBox="0 0 100 100" width="600px" x="0px" xml:space="preserve" y="0px">
	<defs/>
	<path d="M 50.0,0.005 C 49.568,0.005 49.142,-0.005999999999999999 48.713,0.005 L 48.713,0.006 C 21.695,0.69 0.0,22.822 0.0,50.002 C 0.0,77.616 22.386,100.0 50.0,100.0 C 77.613,100.0 100.0,77.615 100.0,50.002 C 100.0,22.39 77.613,0.005 50.0,0.005 M 50.0,90.0 C 27.909,90.0 10.0,72.093 10.0,50.002 C 10.0,27.913000000000004 27.909,10.005000000000003 50.0,10.005000000000003 C 72.09100000000001,10.005000000000003 90.0,27.913000000000004 90.0,50.002 C 90.0,72.093 72.091,90.0 50.0,90.0" fill="#010101"/>
	<path d="M 59.094,21.375 C 59.094,20.462 58.351,19.719 57.438,19.719 L 42.562,19.719 L 42.562,19.719 C 41.649,19.719 40.906,20.462 40.906,21.375 L 40.906,59.405 L 23.125,59.436 L 50.0,80.283 L 76.875,59.313 L 59.094,59.344 L 59.094,21.375" fill="#010101"/>
</svg>
