<?xml version="1.0" ?>
<svg xmlns="http://www.w3.org/2000/svg" xmlns:ev="http://www.w3.org/2001/xml-events" xmlns:xlink="http://www.w3.org/1999/xlink" baseProfile="full" enable-background="new 0 0 100 100" height="600px" version="1.1" viewBox="0 0 100 100" width="600px" x="0px" xml:space="preserve" y="0px">
	<defs/>
	<path d="M 88.726,24.779 L 82.188,27.828 C 78.777,22.88 74.36200000000001,18.903 69.333,16.055 L 71.964,8.834 C 73.197,5.441 71.444,1.6849999999999996 68.04899999999999,0.4499999999999993 C 64.66,-0.7850000000000008 60.90599999999999,0.9649999999999993 59.66899999999999,4.360999999999999 L 57.04199999999999,11.581 C 51.359999999999985,10.533 45.41999999999999,10.741999999999999 39.624999999999986,12.338999999999999 L 36.575999999999986,5.798999999999999 C 35.04999999999998,2.5249999999999986 31.159999999999986,1.1089999999999982 27.88599999999999,2.6349999999999985 C 24.611999999999988,4.163999999999998 23.19399999999999,8.050999999999998 24.721999999999987,11.325999999999999 L 27.770999999999987,17.866 C 22.825999999999986,21.276 18.848999999999986,25.692 15.997999999999987,30.719 L 8.776999999999987,28.09 C 5.385999999999987,26.855 1.6319999999999872,28.61 0.39699999999998603,32.003 C -0.8420000000000141,35.394 0.911999999999986,39.147999999999996 4.303999999999986,40.383 L 11.524999999999986,43.014 C 10.476999999999986,48.694 10.683999999999987,54.634 12.278999999999986,60.429 L 5.7409999999999854,63.478 C 2.4709999999999854,65.002 1.050999999999985,68.894 2.5789999999999855,72.168 C 4.104999999999985,75.44200000000001 7.996999999999986,76.85600000000001 11.268999999999984,75.33200000000001 L 17.806999999999984,72.283 C 21.219999999999985,77.231 25.632999999999985,81.206 30.661999999999985,84.056 L 28.070999999999984,91.17099999999999 C 26.837999999999983,94.564 28.590999999999983,98.32 31.981999999999985,99.55099999999999 C 35.37299999999998,100.78999999999999 39.128999999999984,99.03799999999998 40.365999999999985,95.64199999999998 L 42.954999999999984,88.53099999999998 C 48.634999999999984,89.57899999999998 54.576999999999984,89.36999999999998 60.36999999999998,87.77299999999998 L 63.41899999999998,94.31299999999999 C 64.94299999999998,97.58299999999998 68.83699999999999,99.00099999999999 72.10899999999998,97.47699999999999 C 75.38499999999998,95.948 76.79899999999998,92.05599999999998 75.27299999999998,88.78199999999998 L 72.22399999999998,82.24599999999998 C 77.17199999999997,78.83599999999998 81.14899999999997,74.41599999999998 83.99899999999998,69.39099999999998 L 91.21799999999998,72.01799999999997 C 94.61399999999998,73.25299999999997 98.36699999999998,71.50299999999997 99.60399999999997,68.10899999999997 C 100.83699999999997,64.71499999999996 99.08399999999997,60.959999999999965 95.69499999999996,59.724999999999966 L 88.47099999999996,57.093999999999966 C 89.51799999999996,51.413999999999966 89.30999999999996,45.477999999999966 87.71499999999996,39.682999999999964 L 94.25299999999996,36.633999999999965 C 97.52699999999996,35.10499999999996 98.94099999999996,31.212999999999965 97.41699999999996,27.942999999999962 C 95.89,24.664 92.003,23.251 88.726,24.779 M 61.022,73.69 C 47.988,79.76599999999999 32.44,74.112 26.362000000000002,61.07599999999999 C 20.286,48.044 25.945,32.49399999999999 38.976,26.417999999999992 C 52.012,20.337999999999994 67.557,26.00099999999999 73.633,39.032 C 79.715,52.068 74.056,67.61 61.022,73.69" fill="#000000"/>
</svg>
