<?xml version="1.0" ?>
<svg xmlns="http://www.w3.org/2000/svg" xmlns:ev="http://www.w3.org/2001/xml-events" xmlns:xlink="http://www.w3.org/1999/xlink" baseProfile="full" enable-background="new 0 0 100 100" height="600px" version="1.1" viewBox="0 0 100 100" width="501px" x="0px" xml:space="preserve" y="0px">
	<defs/>
	<path d="M 41.665,64.579 C 41.665,61.123999999999995 38.87,58.32899999999999 35.415,58.32899999999999 C 31.968999999999998,58.32899999999999 29.173,61.123999999999995 29.173,64.579 L 29.173,87.49199999999999 L 41.665,87.49199999999999 L 41.665,64.579" fill="#000000"/>
	<path d="M 62.5,39.539 C 62.5,36.089 59.705,33.289 56.25,33.289 C 52.798,33.289 50.0,36.089 50.0,39.539 L 50.0,87.492 L 62.5,87.492 L 62.5,39.539" fill="#000000"/>
	<path d="M 83.327,14.583 C 83.327,11.128 80.532,8.333 77.077,8.333 C 73.631,8.333 70.835,11.128 70.835,14.583 L 70.835,87.492 L 83.327,87.492 L 83.327,14.583" fill="#000000"/>
	<path d="M 20.835,87.5 L 20.835,0.0 L 8.337,0.0 L 8.337,99.992 L 8.337,99.992 L 8.337,100.0 L 91.663,100.0 L 91.663,87.5 L 20.835,87.5" fill="#000000" points="20.835,87.5 20.835,0 8.337,0 8.337,99.992 8.337,99.992 8.337,100 91.663,100 91.663,87.5  "/>
</svg>
