<?xml version="1.0" ?>
<svg xmlns="http://www.w3.org/2000/svg" xmlns:ev="http://www.w3.org/2001/xml-events" xmlns:xlink="http://www.w3.org/1999/xlink" baseProfile="full" enable-background="new 0 0 100 100" height="600px" version="1.1" viewBox="0 0 100 100" width="476px" x="0px" xml:space="preserve" y="0px">
	<defs/>
	<path d="M 66.665,0.0 L 65.066,0.0 L 60.142,0.0 L 58.335,0.0 L 21.909,0.0 C 15.573999999999998,0.0 10.414,5.155 10.414,11.491 L 10.414,88.509 C 10.414,94.844 15.573,100.0 21.909,100.0 L 78.09,100.0 C 84.434,100.0 89.58500000000001,94.845 89.58500000000001,88.509 L 89.58500000000001,29.167 L 89.58500000000001,26.461000000000002 L 89.58500000000001,22.319000000000003 L 89.58500000000001,20.834000000000003 L 66.665,0.0 M 66.665,8.333 L 81.25,20.833 L 69.824,20.833 C 68.08,20.833 66.664,19.416999999999998 66.664,17.674999999999997 L 66.664,8.333 L 66.665,8.333 M 81.25,88.509 C 81.25,90.25 79.834,91.667 78.09,91.667 L 21.909,91.667 C 20.165,91.667 18.749,90.251 18.749,88.509 L 18.749,11.491 C 18.749,9.75 20.165,8.333 21.909,8.333 L 58.335,8.333 L 58.335,9.611 L 58.335,17.676000000000002 C 58.335,24.011000000000003 63.489000000000004,29.167 69.824,29.167 L 81.25,29.167 L 81.25,88.509" fill="#000000"/>
	<path d="M 34.375,71.875 L 23.96,71.875 L 23.96,61.458 L 34.375,61.458 L 34.375,71.875 M 26.04,69.792 L 32.29,69.792 L 32.29,63.542 L 26.04,63.542 L 26.04,69.792" fill="#000000"/>
	<path d="M 34.375,88.542 L 23.96,88.542 L 23.96,78.125 L 34.375,78.125 L 34.375,88.542 M 26.04,86.458 L 32.29,86.458 L 32.29,80.208 L 26.04,80.208 L 26.04,86.458" fill="#000000"/>
	<path d="M 38.224,11.723 C 37.958999999999996,11.454 37.449,11.461 37.193,11.721 L 31.458,17.391 L 28.503999999999998,14.447 C 28.232999999999997,14.18 27.723,14.175999999999998 27.461999999999996,14.443 C 27.178999999999995,14.728 27.172999999999995,15.192 27.453999999999997,15.479 C 27.453999999999997,15.479 30.788999999999998,18.836 30.855999999999998,18.905 C 30.99,19.045 31.2,19.125 31.435999999999996,19.125 C 31.663999999999998,19.125 31.870999999999995,19.05 32.007999999999996,18.915 L 38.223,12.762999999999998 C 38.505,12.478 38.507,12.012 38.224,11.723" fill="#000000"/>
	<path d="M 38.224,28.276 C 37.958999999999996,28.007 37.449,28.012999999999998 37.193,28.274 L 31.458,33.944 L 28.503,31.0 C 28.23,30.731 27.73,30.727 27.461,30.992 C 27.176,31.279 27.171999999999997,31.745 27.453,32.032000000000004 C 27.797,32.378 30.811999999999998,35.413000000000004 30.855,35.454 C 30.991,35.596000000000004 31.203,35.678 31.435,35.678 C 31.659,35.678 31.866,35.601 32.007,35.464 L 38.221999999999994,29.311 C 38.505,29.026 38.505,28.564 38.224,28.276" fill="#000000"/>
	<path d="M 38.226,45.241 C 37.958999999999996,44.97 37.455,44.972 37.192,45.233 L 31.457,50.907 L 28.503,47.962999999999994 C 28.23,47.693999999999996 27.73,47.68999999999999 27.461,47.95499999999999 C 27.176,48.24199999999999 27.171999999999997,48.70799999999999 27.453,48.99499999999999 C 27.797,49.34099999999999 30.811999999999998,52.37599999999999 30.855,52.41699999999999 C 30.991,52.55899999999999 31.203,52.640999999999984 31.435,52.640999999999984 C 31.659,52.640999999999984 31.866,52.563999999999986 32.007,52.426999999999985 L 38.221999999999994,46.274999999999984 C 38.505,45.99 38.505,45.528 38.226,45.241" fill="#000000"/>
	<path d="M 34.375,21.875 L 23.96,21.875 L 23.96,11.458 L 34.375,11.458 L 34.375,14.73 L 32.29,14.73 L 32.29,13.542 L 26.04,13.542 L 26.04,19.792 L 32.29,19.792 L 32.29,18.404 L 34.375,18.404 L 34.375,21.875" fill="#000000" points="34.375,21.875 23.96,21.875 23.96,11.458 34.375,11.458 34.375,14.73 32.29,14.73 32.29,13.542    26.04,13.542 26.04,19.792 32.29,19.792 32.29,18.404 34.375,18.404  "/>
	<path d="M 34.375,38.542 L 23.96,38.542 L 23.96,28.125 L 34.375,28.125 L 34.375,31.282 L 32.29,31.282 L 32.29,30.208 L 26.04,30.208 L 26.04,36.458 L 32.29,36.458 L 32.29,34.953 L 34.375,34.953 L 34.375,38.542" fill="#000000" points="34.375,38.542 23.96,38.542 23.96,28.125 34.375,28.125 34.375,31.282 32.29,31.282 32.29,30.208    26.04,30.208 26.04,36.458 32.29,36.458 32.29,34.953 34.375,34.953  "/>
	<path d="M 34.375,55.208 L 23.96,55.208 L 23.96,44.792 L 34.375,44.792 L 34.375,48.246 L 32.29,48.246 L 32.29,46.875 L 26.04,46.875 L 26.04,53.125 L 32.29,53.125 L 32.29,51.916 L 34.375,51.916 L 34.375,55.208" fill="#000000" points="34.375,55.208 23.96,55.208 23.96,44.792 34.375,44.792 34.375,48.246 32.29,48.246 32.29,46.875    26.04,46.875 26.04,53.125 32.29,53.125 32.29,51.916 34.375,51.916  "/>
	<path d="M 37.5,16.667 L 64.58500000000001,16.667 L 64.58500000000001,20.834000000000003 L 37.5,20.834000000000003 L 37.5,16.667" fill="#000000" height="4.167" width="27.085" x="37.5" y="16.667"/>
	<path d="M 37.5,33.333 L 75.0,33.333 L 75.0,37.5 L 37.5,37.5 L 37.5,33.333" fill="#000000" height="4.167" width="37.5" x="37.5" y="33.333"/>
	<path d="M 37.5,50.0 L 75.0,50.0 L 75.0,54.167 L 37.5,54.167 L 37.5,50.0" fill="#000000" height="4.167" width="37.5" x="37.5" y="50"/>
	<path d="M 37.5,66.667 L 75.0,66.667 L 75.0,70.834 L 37.5,70.834 L 37.5,66.667" fill="#000000" height="4.167" width="37.5" x="37.5" y="66.667"/>
	<path d="M 37.5,83.333 L 75.0,83.333 L 75.0,87.5 L 37.5,87.5 L 37.5,83.333" fill="#000000" height="4.167" width="37.5" x="37.5" y="83.333"/>
</svg>
