<?xml version="1.0" ?>
<svg xmlns="http://www.w3.org/2000/svg" xmlns:ev="http://www.w3.org/2001/xml-events" xmlns:xlink="http://www.w3.org/1999/xlink" baseProfile="full" enable-background="new 0 0 91.135 100" height="600px" version="1.1" viewBox="0 0 91.135 100" width="547px" x="0px" xml:space="preserve" y="0px">
	<defs/>
	<path d="M 91.133,100.0 C 89.15899999999999,100.0 87.234,99.536 85.52799999999999,98.758 C 83.78699999999999,97.931 81.80999999999999,97.451 79.749,97.451 C 77.69999999999999,97.451 75.72699999999999,97.92999999999999 73.98299999999999,98.758 C 72.254,99.536 70.35,100.0 68.354,100.0 C 66.38,100.0 64.449,99.536 62.748999999999995,98.758 C 60.998999999999995,97.931 59.022999999999996,97.451 56.961,97.451 C 54.921,97.451 52.943999999999996,97.92999999999999 51.196999999999996,98.758 C 49.474,99.536 47.563,100.0 45.568,100.0 C 43.568999999999996,100.0 41.666,99.536 39.961,98.758 C 38.211,97.931 36.233,97.451 34.18,97.451 C 32.119,97.451 30.141,97.92999999999999 28.401,98.758 C 26.69,99.536 24.778,100.0 22.779,100.0 C 20.796,100.0 18.879,99.536 17.166,98.758 C 15.413,97.931 13.442,97.451 11.385000000000002,97.451 C 9.335,97.451 7.362000000000002,97.92999999999999 5.6110000000000015,98.758 C 3.896,99.536 1.996,100.0 0.0,100.0 L 0.0,91.484 C 1.996,91.484 3.896,91.026 5.611,90.24199999999999 C 7.362,89.44099999999999 9.336,88.966 11.385,88.966 C 13.442,88.966 15.413,89.44399999999999 17.166,90.24199999999999 C 18.879,91.026 20.796,91.484 22.779,91.484 C 24.775,91.484 26.69,91.026 28.401,90.24199999999999 C 30.142,89.44099999999999 32.119,88.966 34.18,88.966 C 36.234,88.966 38.211,89.44399999999999 39.961,90.24199999999999 C 41.666,91.026 43.568999999999996,91.484 45.568,91.484 C 47.562999999999995,91.484 49.473,91.026 51.196,90.24199999999999 C 52.943,89.44099999999999 54.921,88.966 56.96,88.966 C 59.022,88.966 60.998000000000005,89.44399999999999 62.748000000000005,90.24199999999999 C 64.44800000000001,91.026 66.38000000000001,91.484 68.35300000000001,91.484 C 70.349,91.484 72.25300000000001,91.026 73.98200000000001,90.24199999999999 C 75.72500000000001,89.44099999999999 77.69900000000001,88.966 79.74800000000002,88.966 C 81.80900000000003,88.966 83.78600000000002,89.44399999999999 85.52700000000002,90.24199999999999 C 87.23300000000002,91.026 89.15800000000002,91.484 91.13200000000002,91.484 L 91.13200000000002,100.0 L 91.133,100.0"/>
	<path d="M 59.481,15.158 C 74.751,22.336 92.88300000000001,41.473 90.503,64.43599999999999 L 59.481,64.43599999999999 L 59.481,15.158 L 59.481,15.158"/>
	<path d="M 83.946,69.07 L 69.785,69.07 L 14.916,69.07 L 14.916,81.73499999999999 C 15.693,81.94099999999999 16.463,82.16899999999998 17.167,82.51199999999999 C 18.880000000000003,83.26599999999999 20.797,83.73099999999998 22.78,83.73099999999998 C 24.779,83.73099999999998 26.694000000000003,83.26599999999998 28.402,82.51199999999999 C 30.143,81.689 32.120000000000005,81.20499999999998 34.181,81.20499999999998 C 36.235,81.20499999999998 38.211999999999996,81.68799999999999 39.961999999999996,82.51199999999999 C 41.669,83.26599999999999 43.57299999999999,83.73099999999998 45.568999999999996,83.73099999999998 C 47.56399999999999,83.73099999999998 49.474,83.26599999999998 51.196999999999996,82.51199999999999 C 52.946999999999996,81.689 54.922,81.20499999999998 56.961,81.20499999999998 C 59.022999999999996,81.20499999999998 61.001,81.68799999999999 62.748999999999995,82.51199999999999 C 64.449,83.26599999999999 66.381,83.73099999999998 68.354,83.73099999999998 C 68.739,83.73099999999998 69.105,83.63499999999998 69.464,83.59199999999998 C 69.508,83.59199999999998 69.508,83.63499999999999 69.553,83.63499999999999 C 69.80499999999999,83.63499999999999 69.989,83.52399999999999 70.238,83.52399999999999 C 70.692,83.46099999999998 71.144,83.40799999999999 71.602,83.29799999999999 C 75.684,82.44399999999999 78.319,79.231 78.319,79.231 L 86.257,69.073 L 83.94800000000001,69.073 L 83.94800000000001,69.07 L 83.946,69.07"/>
	<path d="M 54.73,0.068 C 54.602999999999994,-0.022999999999999993 54.436,-0.03599999999999999 54.303999999999995,0.115 C 54.303,0.116 54.300999999999995,0.117 54.29899999999999,0.11800000000000001 C 54.29699999999999,0.12000000000000001 54.294999999999995,0.12000000000000001 54.29299999999999,0.12300000000000001 C 36.995999999999995,21.473000000000003 19.697999999999993,42.821999999999996 2.400999999999989,64.173 C 2.204999999999989,64.414 2.312999999999989,64.81 2.6649999999999894,64.81 C 19.96199999999999,64.81 37.25999999999999,64.81 54.55799999999999,64.81 C 54.76199999999999,64.81 54.931999999999995,64.64 54.931999999999995,64.437 C 54.931999999999995,43.086999999999996 54.931999999999995,21.736999999999995 54.931999999999995,0.387999999999991 C 54.933,0.224 54.844,0.12 54.73,0.068"/>
</svg>
