<?xml version="1.0" ?>
<svg xmlns="http://www.w3.org/2000/svg" xmlns:ev="http://www.w3.org/2001/xml-events" xmlns:xlink="http://www.w3.org/1999/xlink" baseProfile="full" enable-background="new 0 0 100 100" height="600px" version="1.1" viewBox="0 0 100 100" width="600px" x="0px" xml:space="preserve" y="0px">
	<defs/>
	<path d="M 81.734,16.15 C 90.594,24.598 96.11699999999999,36.518 96.11699999999999,49.729 C 96.11699999999999,75.348 75.347,96.11699999999999 49.72899999999999,96.11699999999999 L 49.72899999999999,96.11699999999999 C 62.53799999999999,96.11699999999999 72.92299999999999,85.73299999999999 72.92299999999999,72.92299999999999 C 72.92299999999999,60.11499999999999 62.54099999999999,49.731999999999985 49.73399999999999,49.728999999999985 C 49.73299999999999,49.728999999999985 49.73099999999999,49.728999999999985 49.72999999999999,49.728999999999985 C 36.91999999999999,49.728999999999985 26.53599999999999,39.344999999999985 26.53599999999999,26.534999999999986 C 26.53599999999999,13.724999999999987 36.919,3.34 49.729,3.34 C 24.108,3.34 3.3389999999999986,24.11 3.3389999999999986,49.729 C 3.3389999999999986,75.348 24.107999999999997,96.11699999999999 49.729,96.11699999999999 C 75.35,96.11699999999999 96.118,75.347 96.118,49.72899999999999 C 96.118,36.518 90.596,24.599 81.734,16.15 M 43.931,72.923 C 43.931,69.721 46.527,67.124 49.729,67.124 C 52.931,67.124 55.527,69.72099999999999 55.527,72.923 C 55.527,76.126 52.93,78.72200000000001 49.729,78.72200000000001 C 46.526,78.722 43.931,76.126 43.931,72.923"/>
	<path d="M 49.729,3.34 C 62.138999999999996,3.34 73.40899999999999,8.213999999999999 81.73400000000001,16.15 C 90.59500000000001,24.598 96.11800000000001,36.518 96.11800000000001,49.729 C 96.11800000000001,75.348 75.34900000000002,96.11699999999999 49.729000000000006,96.11699999999999 C 24.108999999999995,96.11699999999999 3.3390000000000057,75.347 3.3390000000000057,49.72899999999999 C 3.339,24.11 24.108,3.34 49.729,3.34 C 49.732,3.34 49.737,3.34 49.74,3.34 C 49.743,3.34 49.746,3.34 49.75,3.34 C 49.762,3.34 49.774,3.34 49.785,3.34 C 49.864,3.3419999999999996 49.94199999999999,3.344 50.019999999999996,3.347 C 50.029999999999994,3.347 50.038999999999994,3.347 50.049,3.347 C 50.039,3.347 50.03,3.347 50.019999999999996,3.347 C 49.940999999999995,3.344 49.864,3.34 49.785,3.34 C 49.769999999999996,3.34 49.754999999999995,3.34 49.739999999999995,3.34 C 49.736,3.34 49.732,3.34 49.729,3.34 M 49.729,0.0 L 49.729,0.0 C 43.016999999999996,0.0 36.504,1.314 30.371,3.91 C 24.449,6.414 19.131,10.0 14.565,14.565 C 9.998999999999999,19.131 6.414,24.447 3.908999999999999,30.372 C 1.315,36.505 0.0,43.018 0.0,49.729 C 0.0,56.442 1.315,62.953 3.909,69.08500000000001 C 6.414,75.01 9.998999999999999,80.32600000000001 14.565000000000001,84.89200000000001 C 19.131,89.45800000000001 24.449,93.04400000000001 30.371000000000002,95.549 C 36.504000000000005,98.144 43.017,99.459 49.729,99.459 C 56.441,99.459 62.953,98.144 69.086,95.549 C 75.009,93.04400000000001 80.326,89.45800000000001 84.892,84.89200000000001 C 89.459,80.32700000000001 93.044,75.01 95.54899999999999,69.08500000000001 C 98.14299999999999,62.95300000000001 99.458,56.44200000000001 99.458,49.729000000000006 C 99.458,42.80800000000001 98.063,36.108000000000004 95.309,29.814000000000007 C 92.651,23.73700000000001 88.86,18.327000000000005 84.038,13.732000000000006 C 74.751,4.876 62.566,0.0 49.729,0.0 L 49.729,0.0"/>
	<path cx="49.729" cy="26.535" d="M 43.931,26.535 A 5.798000000000001,5.798000000000001 0.0 1,0 55.527,26.535 A 5.798000000000001,5.798000000000001 0.0 1,0 43.931,26.535" r="5.798"/>
</svg>
