<?xml version="1.0" ?>
<svg xmlns="http://www.w3.org/2000/svg" xmlns:ev="http://www.w3.org/2001/xml-events" xmlns:xlink="http://www.w3.org/1999/xlink" baseProfile="full" enable-background="new 0 0 100 84.705" height="509px" version="1.1" viewBox="0 0 100 84.705" width="600px" x="0px" xml:space="preserve" y="0px">
	<defs/>
	<path d="M 76.829,70.955 C 76.829,73.348 74.844,75.292 72.40199999999999,75.292 L 14.03,75.292 C 11.588,75.292 9.603,73.348 9.603,70.955 L 9.603,13.676 C 9.603,11.283000000000001 11.588,9.411000000000001 14.03,9.411000000000001 L 69.176,9.411000000000001 L 81.03,0.146 C 80.912,0.14 80.852,0.0 80.73,0.0 L 5.702,0.0 C 2.562,0.0 0.0,2.438 0.0,5.514 L 0.0,79.116 C 0.0,82.192 2.562,84.705 5.702,84.705 L 80.73,84.705 C 83.87,84.705 86.433,82.192 86.433,79.116 L 86.433,37.793 L 76.82900000000001,45.293 L 76.82900000000001,70.955 L 76.829,70.955" fill="#010101"/>
	<path d="M 90.148,1.189 L 85.848,5.216 L 95.699,15.32 L 100.0,11.293 L 90.148,1.189" fill="#010101" points="90.148,1.189 85.848,5.216 95.699,15.32 100,11.293  "/>
	<path d="M 41.027,46.776 L 50.827,56.825 L 91.648,18.601 L 81.849,8.551 L 41.027,46.776" fill="#010101" points="41.027,46.776 50.827,56.825 91.648,18.601 81.849,8.551  "/>
	<path d="M 32.103,64.431 L 42.145,64.656 L 42.256,64.659 L 45.812,61.33 L 35.997,51.262 L 35.997,51.262 L 32.384,54.646 L 32.103,64.431" fill="#010101" points="32.103,64.431 42.145,64.656 42.256,64.659 45.812,61.33 35.997,51.262 35.997,51.262     32.384,54.646  "/>
</svg>
