<?xml version="1.0" ?>
<svg xmlns="http://www.w3.org/2000/svg" xmlns:ev="http://www.w3.org/2001/xml-events" xmlns:xlink="http://www.w3.org/1999/xlink" baseProfile="full" enable-background="new 0 0 100 100" height="600px" version="1.1" viewBox="0 0 100 100" width="600px" x="0px" xml:space="preserve" y="0px">
	<defs/>
	<path d="M 50.433,0.892 C 23.314,0.892 1.331000000000003,22.875 1.331000000000003,49.994 C 1.331000000000003,77.113 23.314000000000004,99.09700000000001 50.433,99.09700000000001 C 77.55199999999999,99.09700000000001 99.53399999999999,77.113 99.53399999999999,49.99400000000001 C 99.53399999999999,22.875000000000014 77.552,0.892 50.433,0.892 M 50.433,93.258 C 26.538,93.258 7.168999999999997,73.887 7.168999999999997,49.992999999999995 C 7.168999999999997,26.098999999999997 26.538999999999998,6.728999999999992 50.433,6.728999999999992 C 74.327,6.728999999999992 93.696,26.098999999999993 93.696,49.992999999999995 C 93.696,73.887 74.327,93.258 50.433,93.258"/>
	<path d="M 59.0,79.031 C 59.0,83.433 55.194,87.0 50.5,87.0 L 50.5,87.0 C 45.806,87.0 42.0,83.43299999999999 42.0,79.031 L 42.0,42.469 C 42.0,38.068 45.806,34.5 50.5,34.5 L 50.5,34.5 C 55.194,34.5 59.0,38.068 59.0,42.469 L 59.0,79.031"/>
	<path cx="50.433" cy="22.072" d="M 41.292,22.072 A 9.141,9.141 0.0 1,0 59.574,22.072 A 9.141,9.141 0.0 1,0 41.292,22.072" r="9.141"/>
</svg>
