<?xml version="1.0" ?>
<svg xmlns="http://www.w3.org/2000/svg" xmlns:ev="http://www.w3.org/2001/xml-events" xmlns:xlink="http://www.w3.org/1999/xlink" baseProfile="full" enable-background="new 0 0 100 100" height="600px" version="1.1" viewBox="0 0 100 100" width="600px" x="0px" xml:space="preserve" y="0px">
	<defs/>
	<path d="M 50.433,0.892 C 23.314,0.892 1.331000000000003,22.875 1.331000000000003,49.994 C 1.331000000000003,77.113 23.314000000000004,99.09700000000001 50.433,99.09700000000001 C 77.55199999999999,99.09700000000001 99.53399999999999,77.113 99.53399999999999,49.99400000000001 C 99.53399999999999,22.875000000000014 77.552,0.892 50.433,0.892 M 59.0,79.031 C 59.0,83.433 55.194,87.0 50.5,87.0 C 45.806,87.0 42.0,83.433 42.0,79.031 L 42.0,42.469 C 42.0,38.068 45.806,34.5 50.5,34.5 C 55.194,34.5 59.0,38.068 59.0,42.469 L 59.0,79.031 M 50.433,31.214 C 45.385,31.214 41.292,27.122 41.292,22.072 C 41.292,17.023 45.384,12.931 50.433,12.931 C 55.483,12.931 59.575,17.023 59.575,22.072 C 59.574,27.122 55.482,31.214 50.433,31.214"/>
</svg>
