<?xml version="1.0" ?>
<svg xmlns="http://www.w3.org/2000/svg" xmlns:ev="http://www.w3.org/2001/xml-events" xmlns:xlink="http://www.w3.org/1999/xlink" baseProfile="full" enable-background="new 0 0 100 34.923" height="210px" version="1.1" viewBox="0 0 100 34.923" width="600px" x="0px" xml:space="preserve" y="0px">
	<defs/>
	<path d="M 95.231,12.693 C 87.818,3.325 73.708,0.0 63.879,0.0 C 60.945,0.0 53.821,0.344 51.031,3.522 C 50.662,3.9419999999999997 50.321,4.356 50.0,4.7669999999999995 C 49.679,4.356999999999999 49.337,3.9429999999999996 48.969,3.5229999999999997 C 46.179,0.344 39.055,0.0 36.121,0.0 C 26.292,0.0 12.184,3.325 4.769,12.693 C 0.26,18.391 -1.06,25.373 0.845,33.443 C 1.033,34.241 1.709,34.833 2.525,34.914 C 2.589,34.921 2.653,34.924 2.717,34.924 C 3.4610000000000003,34.924 4.147,34.491 4.463,33.804 C 4.5,33.724000000000004 8.324,25.744 13.867999999999999,25.744 C 15.092999999999998,25.744 16.372,26.134999999999998 17.673,26.903 C 21.456999999999997,29.142 26.151999999999997,30.326 31.253,30.326 C 31.253,30.326 31.253,30.326 31.254,30.326 C 38.843,30.326 45.848,27.71 50.0,23.628 C 54.152,27.71 61.157,30.326 68.748,30.326 C 73.848,30.326 78.54400000000001,29.142 82.32900000000001,26.903 C 83.62800000000001,26.134 84.908,25.744 86.132,25.744 C 91.736,25.744 95.50200000000001,33.726 95.53800000000001,33.807 C 95.85400000000001,34.493 96.54,34.923 97.284,34.923 C 97.34700000000001,34.923 97.411,34.92 97.47500000000001,34.913000000000004 C 98.29100000000001,34.832 98.96700000000001,34.24 99.156,33.44200000000001 C 101.061,25.373 99.742,18.391 95.231,12.693"/>
</svg>
