<?xml version="1.0" ?>
<svg xmlns="http://www.w3.org/2000/svg" xmlns:ev="http://www.w3.org/2001/xml-events" xmlns:xlink="http://www.w3.org/1999/xlink" baseProfile="full" enable-background="new 0 0 100 20.382" height="123px" version="1.1" viewBox="0 0 100 20.382" width="600px" x="0px" xml:space="preserve" y="0px">
	<defs/>
	<path d="M 46.757,0.001 C 46.446999999999996,0.009999999999999998 39.049,0.244 29.653999999999996,2.436 C 16.93,5.404 7.136,10.345 0.544,17.12 C -0.014000000000000012,17.693 -0.15799999999999992,18.552 0.18100000000000005,19.276 C 0.49800000000000005,19.955 1.1800000000000002,20.382 1.921,20.382 C 1.97,20.382 2.02,20.381 2.069,20.377000000000002 L 46.185,16.984 C 47.143,16.91 47.901,16.139000000000003 47.957,15.180000000000001 L 48.730000000000004,2.0340000000000007 C 48.762,1.4960000000000007 48.566,0.9690000000000007 48.191,0.5820000000000007 C 47.816,0.197 47.29,-0.016 46.757,0.001"/>
	<path d="M 99.28,16.96 C 92.691,10.268 82.951,5.381 70.324,2.436 C 60.93,0.244 53.532,0.01 53.222,0.001 C 52.678000000000004,-0.016999999999999998 52.163000000000004,0.197 51.786,0.584 C 51.411,0.971 51.215,1.498 51.247,2.036 L 52.022,15.182 C 52.079,16.141000000000002 52.835,16.911 53.794,16.986 L 97.90899999999999,20.379 C 97.96,20.383000000000003 98.00899999999999,20.384 98.05699999999999,20.384 C 98.06199999999998,20.384 98.07,20.383 98.076,20.384 C 99.13799999999999,20.384 99.999,19.524 99.999,18.462 C 100.0,17.854 99.719,17.313 99.28,16.96"/>
</svg>
