<?xml version="1.0" ?>
<svg xmlns="http://www.w3.org/2000/svg" xmlns:ev="http://www.w3.org/2001/xml-events" xmlns:xlink="http://www.w3.org/1999/xlink" baseProfile="full" enable-background="new 0 0 100 100" height="600px" version="1.1" viewBox="0 0 100 100" width="396px" x="0px" xml:space="preserve" y="0px">
	<defs/>
	<path d="M 17.026,37.525 L 17.026,61.82 L 17.026,72.233 L 17.026,100.0 L 82.973,100.0 L 82.973,72.233 L 82.973,61.82 L 82.973,37.525 L 17.026,37.525 M 23.969,44.467 L 44.794,44.467 L 44.794,61.82 L 23.969,61.82 L 23.969,44.467 M 23.969,93.058 L 23.969,72.233 L 44.794,72.233 L 44.794,93.057 L 23.969,93.057 L 23.969,93.058 M 76.032,93.058 L 55.207,93.058 L 55.207,72.233 L 76.032,72.233 L 76.032,93.058 M 76.032,44.467 L 76.032,61.82 L 55.207,61.82 L 55.207,44.467 L 76.032,44.467"/>
	<path d="M 73.992,26.285 C 74.232,26.075 74.51,25.875 74.727,25.66 C 77.46900000000001,22.918 79.181,19.874000000000002 79.678,16.856 C 80.289,13.170000000000002 79.119,9.734000000000002 76.306,6.921000000000001 C 71.195,1.806 63.65,2.418 57.565,8.5 C 55.027,11.041 53.512,14.576 52.549,18.039 C 51.28,13.139000000000001 48.803,7.929000000000002 45.905,5.029000000000002 C 39.817,-1.0519999999999987 32.275,-1.6689999999999987 27.164,3.450000000000002 C 24.35,6.263000000000002 23.183,9.699000000000002 23.791,13.385000000000002 C 24.29,16.403000000000002 26.001,19.447000000000003 28.743000000000002,22.189 C 30.282000000000004,23.728 32.473,25.119 34.889,26.285 L 17.026,26.285 L 17.026,33.227000000000004 L 82.973,33.227000000000004 L 82.973,26.285000000000004 L 73.992,26.285000000000004 L 73.992,26.285 M 62.474,13.409 C 64.457,11.428 66.50099999999999,10.336 68.227,10.336 C 69.358,10.336 70.396,10.824 71.4,11.829 C 72.613,13.044 73.07000000000001,14.281 72.83000000000001,15.725000000000001 C 72.57200000000002,17.281000000000002 71.50500000000001,19.065 69.82000000000001,20.751 C 67.51100000000001,23.060000000000002 62.071000000000005,25.257 58.05100000000001,26.012 C 58.552,22.162 59.638,16.249 62.474,13.409 M 30.641,12.254 C 30.404999999999998,10.809999999999999 30.857999999999997,9.573 32.076,8.358 C 33.079,7.353000000000001 34.116,6.864000000000001 35.247,6.864000000000001 C 36.974,6.864000000000001 39.016,7.956000000000001 40.997,9.937000000000001 C 43.851,12.793000000000001 45.971000000000004,19.038000000000004 46.453,22.706000000000003 C 42.39,22.177000000000003 36.167,19.794000000000004 33.653000000000006,17.281000000000002 C 31.968,15.595 30.898,13.81 30.641,12.254"/>
</svg>
