<?xml version="1.0" ?>
<svg xmlns="http://www.w3.org/2000/svg" xmlns:ev="http://www.w3.org/2001/xml-events" xmlns:xlink="http://www.w3.org/1999/xlink" baseProfile="full" enable-background="new 0 0 100 66.213" height="398px" version="1.1" viewBox="0 0 100 66.213" width="600px" x="0px" xml:space="preserve" y="0px">
	<defs/>
	<path d="M 79.196,0.688 L 72.252,7.632 L 73.466,8.847 C 73.469,8.847 73.469,8.847 73.469,8.847999999999999 L 89.226,24.604999999999997 C 90.25,25.627999999999997 91.612,26.191999999999997 93.05499999999999,26.191999999999997 C 94.502,26.191999999999997 95.865,25.627999999999997 96.886,24.603999999999996 L 100.0,21.49 L 79.196,0.688" fill="#010101"/>
	<path d="M 75.521,40.84 L 74.255,39.573 L 72.98599999999999,38.305 L 69.86899999999999,35.189 C 69.36799999999998,34.684 68.69799999999998,34.409 67.98699999999998,34.409 C 67.27699999999999,34.409 66.60799999999998,34.684 66.10699999999999,35.189 C 65.06899999999999,36.223 65.06899999999999,37.912 66.10699999999999,38.949 L 69.22399999999999,42.067 L 70.493,43.335 L 71.75999999999999,44.603 L 73.71,46.550000000000004 C 74.21199999999999,47.05500000000001 74.881,47.330000000000005 75.591,47.330000000000005 C 76.30199999999999,47.330000000000005 76.969,47.054 77.472,46.550000000000004 C 78.50999999999999,45.516000000000005 78.50999999999999,43.828 77.472,42.791000000000004 L 75.521,40.84" fill="#010101"/>
	<path d="M 69.227,47.137 L 67.961,45.869 L 66.695,44.602 L 63.57599999999999,41.483 C 63.07299999999999,40.980999999999995 62.40599999999999,40.70399999999999 61.69299999999999,40.70399999999999 C 60.98299999999999,40.70399999999999 60.31599999999999,40.980999999999995 59.81399999999999,41.483 C 58.776999999999994,42.517999999999994 58.776999999999994,44.205999999999996 59.81399999999999,45.242999999999995 L 62.93299999999999,48.361999999999995 L 64.2,49.63 L 65.467,50.897000000000006 L 67.41799999999999,52.845000000000006 C 67.919,53.34700000000001 68.58999999999999,53.62400000000001 69.29799999999999,53.62400000000001 C 70.00799999999998,53.62400000000001 70.67799999999998,53.35000000000001 71.17999999999999,52.845000000000006 C 72.216,51.81000000000001 72.214,50.12200000000001 71.17999999999999,49.08500000000001 L 69.227,47.137" fill="#010101"/>
	<path d="M 64.883,55.379 L 62.931999999999995,53.428999999999995 L 61.666,52.160999999999994 L 60.397999999999996,50.89399999999999 L 57.278999999999996,47.77499999999999 C 56.778999999999996,47.27499999999999 56.108999999999995,46.99599999999999 55.398999999999994,46.99599999999999 C 54.68699999999999,46.99599999999999 54.019999999999996,47.27299999999999 53.517999999999994,47.77499999999999 C 53.01599999999999,48.27799999999999 52.739999999999995,48.94599999999999 52.739999999999995,49.65599999999999 C 52.739999999999995,50.36399999999999 53.013,51.03099999999999 53.516,51.535999999999994 C 53.516999999999996,51.535999999999994 53.516999999999996,51.535999999999994 53.518,51.535999999999994 L 56.636,54.654999999999994 L 57.904,55.922 L 59.17,57.189 L 61.121,59.14 C 61.624,59.645 62.291000000000004,59.921 63.003,59.921 C 63.713,59.921 64.381,59.644999999999996 64.883,59.14 C 65.386,58.638 65.663,57.97 65.663,57.26 C 65.663,56.55 65.386,55.884 64.884,55.382 C 64.886,55.382 64.886,55.382 64.883,55.379" fill="#010101"/>
	<path d="M 56.638,59.723 L 55.372,58.455999999999996 L 54.106,57.190999999999995 L 50.987,54.06999999999999 C 50.482,53.56999999999999 49.815000000000005,53.28999999999999 49.105000000000004,53.28999999999999 C 48.396,53.28999999999999 47.729000000000006,53.56699999999999 47.226000000000006,54.06999999999999 C 46.18900000000001,55.105999999999995 46.18900000000001,56.794999999999995 47.226000000000006,57.83299999999999 L 50.34400000000001,60.94999999999999 L 51.61100000000001,62.21899999999999 L 52.878000000000014,63.48599999999999 L 54.829000000000015,65.43499999999999 C 55.33000000000001,65.93699999999998 55.99800000000001,66.213 56.70900000000002,66.213 C 57.42200000000002,66.213 58.09000000000002,65.94 58.59000000000002,65.43499999999999 C 59.625000000000014,64.39899999999999 59.625000000000014,62.710999999999984 58.59000000000002,61.673999999999985 L 56.638,59.723" fill="#010101"/>
	<path d="M 66.948,14.399 C 64.689,14.399 62.56699999999999,13.52 60.971999999999994,11.922999999999998 C 60.05199999999999,11.003999999999998 58.82699999999999,10.497999999999998 57.52799999999999,10.497999999999998 C 56.224999999999994,10.497999999999998 55.00399999999999,11.004999999999997 54.08399999999999,11.923999999999998 L 52.877999999999986,13.130999999999998 L 66.05299999999998,26.305999999999997 C 66.38899999999998,26.641999999999996 66.57999999999998,27.101999999999997 66.57799999999999,27.578999999999997 C 66.57799999999999,28.055999999999997 66.38499999999999,28.510999999999996 66.04699999999998,28.847999999999995 L 62.118999999999986,32.726 C 60.52099999999999,34.297 58.40999999999998,35.166 56.16899999999998,35.166 C 53.90699999999998,35.166 51.780999999999985,34.285 50.18199999999998,32.686 L 44.63099999999998,27.137 C 43.85099999999998,26.357 42.81699999999998,25.929000000000002 41.71499999999998,25.929000000000002 C 40.84599999999998,25.929000000000002 39.99999999999998,26.214000000000002 39.30099999999998,26.715000000000003 L 26.445,39.568 L 26.443,39.57 L 23.907,42.107 C 22.869,43.141999999999996 22.869,44.83 23.907,45.867 C 24.409,46.367 25.076,46.646 25.788,46.646 C 26.499,46.646 27.166,46.37 27.669,45.867 C 28.368000000000002,45.166999999999994 29.502,45.166999999999994 30.201,45.867 C 30.552,46.217 30.727,46.674 30.727,47.132 C 30.727,47.592999999999996 30.552,48.050999999999995 30.201,48.4 C 29.165,49.437 29.165,51.126 30.201,52.162 C 30.705000000000002,52.662 31.372,52.942 32.083,52.942 C 32.793,52.942 33.46,52.665 33.961999999999996,52.162 C 34.663,51.461999999999996 35.797,51.461999999999996 36.495999999999995,52.162 C 36.846,52.512 37.020999999999994,52.97 37.020999999999994,53.431 C 37.020999999999994,53.888999999999996 36.846,54.346 36.495999999999995,54.698 C 35.992999999999995,55.198 35.71699999999999,55.868 35.71699999999999,56.58 C 35.71699999999999,57.29 35.992999999999995,57.958 36.495999999999995,58.46 C 36.998999999999995,58.96 37.666,59.238 38.376999999999995,59.238 C 39.086999999999996,59.238 39.754,58.96 40.257,58.46 C 40.958,57.76 42.092,57.76 42.792,58.46 C 43.142,58.81 43.317,59.267 43.317,59.725 C 43.317,60.185 43.142,60.643 42.792,60.992000000000004 C 41.755,62.03 41.755,63.717000000000006 42.792,64.75500000000001 C 43.294000000000004,65.25800000000001 43.961,65.534 44.671,65.534 C 45.383,65.534 46.049,65.25800000000001 46.554,64.75500000000001 L 47.816,63.49100000000001 L 44.697,60.37200000000001 C 42.262,57.937000000000005 42.262,53.97800000000001 44.697,51.543000000000006 C 45.874,50.36500000000001 47.442,49.715 49.111000000000004,49.715 C 49.12800000000001,49.715 49.145,49.717000000000006 49.165000000000006,49.717000000000006 C 49.165000000000006,49.696000000000005 49.163000000000004,49.68300000000001 49.163000000000004,49.662000000000006 C 49.163000000000004,47.99400000000001 49.81100000000001,46.425000000000004 50.989000000000004,45.248000000000005 C 52.168000000000006,44.072 53.73800000000001,43.42 55.404,43.42 C 55.425000000000004,43.42 55.441,43.423 55.463,43.423 C 55.448,41.804 56.053000000000004,40.183 57.285000000000004,38.954 C 58.465,37.773 60.03,37.126 61.69800000000001,37.126 C 61.71800000000001,37.126 61.736000000000004,37.128 61.757000000000005,37.128 C 61.74,35.512 62.34700000000001,33.888 63.57900000000001,32.66 C 64.76100000000001,31.478999999999996 66.32700000000001,30.830999999999996 67.992,30.830999999999996 C 69.66000000000001,30.830999999999996 71.227,31.477999999999994 72.406,32.66 L 75.522,35.775999999999996 L 85.423,25.874999999999996 L 72.156,12.604 C 70.675,13.769 68.859,14.399 66.948,14.399" fill="#010101"/>
	<path d="M 36.241,24.619 C 36.456,24.403 36.687,24.204 36.928,24.017 C 38.122,23.073 39.583999999999996,22.497 41.102999999999994,22.375999999999998 C 41.300999999999995,22.36 41.498999999999995,22.343999999999998 41.69799999999999,22.343999999999998 C 42.29999999999999,22.343999999999998 42.88699999999999,22.418999999999997 43.458999999999996,22.551999999999996 C 44.852,22.872999999999998 46.126999999999995,23.569999999999997 47.16,24.600999999999996 L 52.711,30.151999999999994 C 53.632999999999996,31.073999999999995 54.859,31.583999999999993 56.164,31.583999999999993 C 57.455,31.583999999999993 58.675000000000004,31.083999999999993 59.595,30.174999999999994 L 62.24,27.561999999999994 L 50.343,15.665 L 49.075,14.399 L 47.808,13.130999999999998 L 45.914,11.235999999999999 C 44.994,10.315 43.77,9.809 42.472,9.809 C 41.17,9.809 39.947,10.315999999999999 39.028,11.235999999999999 C 37.431,12.832999999999998 35.308,13.710999999999999 33.051,13.710999999999999 C 31.138,13.710999999999999 29.322000000000003,13.080999999999998 27.843000000000004,11.918 L 14.578,25.182 L 25.164,35.77 L 36.241,24.619" fill="#010101"/>
	<path d="M 26.534,8.161 L 27.75,6.943999999999999 L 20.806,0.0 L 0.0,20.804 L 3.114,23.918 C 4.138,24.939999999999998 5.497,25.503999999999998 6.944,25.503999999999998 C 8.391,25.503999999999998 9.754,24.941999999999997 10.774000000000001,23.919999999999998 L 26.531,8.162 C 26.532,8.161 26.534,8.161 26.534,8.161" fill="#010101"/>
</svg>
