<?xml version="1.0" ?>
<svg xmlns="http://www.w3.org/2000/svg" xmlns:ev="http://www.w3.org/2001/xml-events" xmlns:xlink="http://www.w3.org/1999/xlink" baseProfile="full" enable-background="new 0 0 100 100" height="600px" version="1.1" viewBox="0 0 100 100" width="548px" x="0px" xml:space="preserve" y="0px">
	<defs/>
	<path d="M 52.669,99.454 C 51.83,99.815 50.927,100.0 49.961,100.0 C 48.995,100.0 48.106,99.815 47.294,99.454 C 46.378,98.987 45.589999999999996,98.44 44.931,97.817 L 22.06,74.449 C 21.448999999999998,73.826 20.941,73.04599999999999 20.535999999999998,72.112 C 20.178,71.229 20.0,70.281 20.0,69.268 C 20.0,68.258 20.178,67.322 20.535,66.464 C 20.889,65.607 21.398,64.841 22.059,64.16799999999999 C 22.821,63.43899999999999 23.608,62.892999999999994 24.422,62.53099999999999 C 25.234,62.166999999999994 26.123,61.98599999999999 27.09,61.98599999999999 C 28.107,61.98599999999999 29.021,62.16699999999999 29.834,62.53099999999999 C 30.749,62.94699999999999 31.535,63.49099999999999 32.198,64.16799999999999 L 42.871,74.993 L 42.871,37.245 C 42.871,36.259 43.047000000000004,35.336999999999996 43.404,34.479 C 43.758,33.623 44.268,32.842999999999996 44.929,32.143 C 45.588,31.441000000000003 46.376000000000005,30.881 47.292,30.467000000000002 C 48.105,30.157 48.995,30.0 49.961,30.0 C 50.927,30.0 51.815999999999995,30.157 52.631,30.468 C 53.546,30.882 54.332,31.442 54.994,32.144 C 55.655,32.844 56.177,33.623 56.556,34.48 C 56.939,35.336999999999996 57.129,36.259 57.129,37.245999999999995 L 57.129,74.994 L 67.726,64.169 C 68.386,63.492 69.175,62.94799999999999 70.09,62.532 C 70.953,62.168 71.869,61.986999999999995 72.833,61.986999999999995 C 73.798,61.986999999999995 74.688,62.16799999999999 75.502,62.532 C 76.366,62.892999999999994 77.152,63.43899999999999 77.86699999999999,64.169 C 78.52399999999999,64.842 79.04599999999999,65.607 79.42899999999999,66.465 C 79.808,67.321 80.0,68.258 80.0,69.268 C 80.0,70.282 79.821,71.229 79.465,72.113 C 79.00800000000001,73.047 78.47500000000001,73.827 77.867,74.45 L 54.994,97.817 C 54.281,98.544 53.508,99.09 52.669,99.454"/>
	<path d="M 87.016,31.02 C 85.83500000000001,26.929 82.52900000000001,23.747999999999998 78.366,22.735 C 78.415,22.301 78.444,21.86 78.444,21.413 C 78.444,14.81 73.089,9.458 66.48400000000001,9.458 C 65.111,9.458 63.79800000000001,9.699 62.57100000000001,10.126 C 58.771000000000015,4.470999999999999 52.31800000000001,0.7509999999999994 44.991000000000014,0.7509999999999994 C 34.01300000000001,0.7509999999999994 24.989000000000015,9.106 23.928000000000015,19.804000000000002 C 23.892000000000014,19.803 23.857000000000014,19.799000000000003 23.822000000000013,19.799000000000003 C 17.36400000000001,19.799000000000003 12.115000000000013,24.919000000000004 11.885000000000014,31.319000000000003 C 7.745000000000014,32.669000000000004 4.751000000000014,36.439 4.751000000000014,41.028000000000006 C 4.751000000000014,46.739000000000004 9.381000000000014,51.251000000000005 15.095000000000013,51.251000000000005 L 38.37300000000001,51.251000000000005 L 38.37300000000001,37.245 C 38.37300000000001,35.660999999999994 38.66900000000001,34.147999999999996 39.253000000000014,32.748 C 39.81200000000001,31.397999999999996 40.62300000000001,30.150999999999996 41.661000000000016,29.052999999999997 C 42.71700000000001,27.929 43.99200000000002,27.022999999999996 45.442000000000014,26.366999999999997 L 45.68700000000001,26.264999999999997 C 48.33700000000001,25.249999999999996 51.57700000000001,25.248999999999995 54.23600000000001,26.262999999999998 L 54.488000000000014,26.368 C 55.929000000000016,27.02 57.20200000000001,27.924999999999997 58.268000000000015,29.055 C 59.27800000000001,30.123 60.08700000000002,31.337 60.67200000000001,32.659 C 61.30600000000001,34.077999999999996 61.63000000000001,35.626 61.63000000000001,37.245 L 61.63000000000001,51.25 L 84.90800000000002,51.25 C 90.62000000000002,51.25 95.25100000000002,46.738 95.25100000000002,41.027 C 95.25,36.038 91.717,31.994 87.016,31.02"/>
</svg>
