<?xml version="1.0" ?>
<svg xmlns="http://www.w3.org/2000/svg" xmlns:ev="http://www.w3.org/2001/xml-events" xmlns:xlink="http://www.w3.org/1999/xlink" baseProfile="full" enable-background="new 0 0 100 69.342" height="417px" version="1.1" viewBox="0 0 100 69.342" width="600px" x="0px" xml:space="preserve" y="0px">
	<defs/>
	<path d="M 17.198,13.194 C 19.021,13.194 20.566,11.686 20.566,9.864 C 20.566,8.030000000000001 19.021,6.523000000000001 17.198,6.523000000000001 C 15.39,6.523000000000001 13.832,8.030000000000001 13.832,9.864 C 13.832,11.687 15.39,13.194 17.198,13.194 M 0.1,18.119 L 0.1,18.119 C 0.05,18.068 0.0,17.967 0.0,17.867 C 0.0,17.679000000000002 0.176,17.528000000000002 0.365,17.528000000000002 L 11.018,17.528000000000002 C 11.533000000000001,17.528000000000002 11.947000000000001,17.113000000000003 11.947000000000001,16.597 C 11.947000000000001,16.195 11.772,15.931000000000001 11.382000000000001,15.706000000000001 L 1.7460000000000022,11.121000000000002 C 1.5710000000000022,11.020000000000001 1.4450000000000023,10.831000000000003 1.4450000000000023,10.580000000000002 C 1.4450000000000023,10.417000000000002 1.4940000000000022,10.267000000000001 1.6200000000000023,10.141000000000002 C 1.6200000000000023,10.141000000000002 26.91,-12.207999999999998 82.92800000000001,9.450000000000001 L 98.30400000000002,1.950000000000001 C 98.45400000000002,1.875000000000001 98.63000000000001,1.825000000000001 98.79400000000001,1.825000000000001 C 99.46000000000001,1.825000000000001 100.00000000000001,2.365000000000001 100.00000000000001,3.031000000000001 C 100.00000000000001,3.244000000000001 99.92400000000002,3.446000000000001 99.82400000000001,3.6340000000000012 L 90.75400000000002,14.928 L 99.82400000000001,26.185000000000002 C 99.924,26.386000000000003 100.00000000000001,26.587000000000003 100.00000000000001,26.826 C 100.00000000000001,27.466 99.46000000000001,28.007 98.79400000000001,28.007 C 98.63000000000001,28.007 98.45400000000001,27.956000000000003 98.30400000000002,27.881 L 82.92800000000001,20.381 C 82.928,20.379 29.384,41.648 0.1,18.119"/>
	<path d="M 13.316,45.041 C 14.384,45.041 15.314,44.187 15.314,43.092999999999996 C 15.314,42.038 14.384,41.147 13.316,41.147 C 12.274000000000001,41.147 11.356000000000002,42.039 11.356000000000002,43.092999999999996 C 11.356,44.187 12.274,45.041 13.316,45.041 M 5.742,46.159 L 5.742,46.159 C 5.716,46.134 5.691,46.083 5.691,46.057 C 5.691,45.969 5.766,45.919000000000004 5.867,45.919000000000004 L 10.113,45.919000000000004 C 10.301,45.919000000000004 10.478,45.743 10.478,45.542 C 10.478,45.379000000000005 10.403,45.277 10.251999999999999,45.202 L 6.406999999999998,43.367999999999995 C 6.332999999999998,43.318999999999996 6.281999999999998,43.242999999999995 6.281999999999998,43.141999999999996 C 6.281999999999998,43.06699999999999 6.305999999999998,42.99099999999999 6.356999999999998,42.965999999999994 C 6.356999999999998,42.965999999999994 16.456999999999997,34.007999999999996 38.857,42.70199999999999 L 45.012,39.68599999999999 C 45.062,39.66199999999999 45.138,39.635999999999996 45.213,39.635999999999996 C 45.478,39.635999999999996 45.677,39.849999999999994 45.677,40.101 C 45.677,40.202 45.653,40.289 45.628,40.339 L 41.997,44.861 L 45.628,49.372 C 45.653,49.447 45.677,49.548 45.677,49.623 C 45.677,49.887 45.477,50.111999999999995 45.213,50.111999999999995 C 45.138,50.111999999999995 45.062,50.087999999999994 45.012,50.062999999999995 L 38.857,47.047 C 38.857,47.051 17.474,55.556 5.742,46.159"/>
	<path d="M 63.492,45.041 C 64.535,45.041 65.428,44.187 65.428,43.092999999999996 C 65.428,42.038 64.535,41.147 63.492,41.147 C 62.373999999999995,41.147 61.546,42.039 61.546,43.092999999999996 C 61.545,44.187 62.374,45.041 63.492,45.041 M 55.905,46.159 L 55.905,46.159 C 55.854,46.134 55.854,46.083 55.854,46.057 C 55.854,45.969 55.929,45.919000000000004 56.004,45.919000000000004 L 60.251,45.919000000000004 C 60.464,45.919000000000004 60.641,45.743 60.641,45.542 C 60.641,45.379000000000005 60.565999999999995,45.277 60.402,45.202 L 56.546,43.367999999999995 C 56.47,43.318999999999996 56.421,43.242999999999995 56.421,43.141999999999996 C 56.421,43.06699999999999 56.445,42.99099999999999 56.496,42.965999999999994 C 56.496,42.965999999999994 66.634,34.007999999999996 89.033,42.70199999999999 L 95.164,39.68599999999999 C 95.239,39.66199999999999 95.315,39.635999999999996 95.391,39.635999999999996 C 95.628,39.635999999999996 95.85600000000001,39.849999999999994 95.85600000000001,40.101 C 95.85600000000001,40.202 95.831,40.289 95.78000000000002,40.339 L 92.14900000000002,44.861 L 95.78000000000002,49.372 C 95.83100000000002,49.447 95.85600000000001,49.548 95.85600000000001,49.623 C 95.85600000000001,49.887 95.62800000000001,50.111999999999995 95.391,50.111999999999995 C 95.316,50.111999999999995 95.24000000000001,50.087999999999994 95.164,50.062999999999995 L 89.033,47.047 C 89.033,47.051 67.613,55.556 55.905,46.159"/>
	<path d="M 38.58,63.797 C 39.647999999999996,63.797 40.528,62.93 40.528,61.836999999999996 C 40.528,60.781 39.647999999999996,59.88999999999999 38.58,59.88999999999999 C 37.488,59.88999999999999 36.608,60.782 36.608,61.836999999999996 C 36.608,62.93 37.488,63.797 38.58,63.797 M 30.98,64.902 L 30.98,64.902 C 30.955000000000002,64.878 30.955000000000002,64.865 30.955000000000002,64.81400000000001 C 30.955000000000002,64.739 31.004,64.664 31.105,64.664 L 35.339,64.664 C 35.565,64.664 35.741,64.488 35.741,64.3 C 35.741,64.14999999999999 35.665,64.024 35.49,63.948 L 31.633000000000003,62.114 C 31.570000000000004,62.062999999999995 31.520000000000003,61.988 31.520000000000003,61.887 C 31.520000000000003,61.811 31.545,61.761 31.595000000000002,61.724000000000004 C 31.595000000000002,61.724000000000004 41.721000000000004,52.766000000000005 64.12,61.447 L 70.26400000000001,58.433 C 70.33900000000001,58.407 70.40200000000002,58.382 70.45200000000001,58.382 C 70.72800000000001,58.382 70.94100000000002,58.595 70.94100000000002,58.870999999999995 C 70.94100000000002,58.946 70.91700000000002,59.047 70.87900000000002,59.10999999999999 L 67.23500000000001,63.63199999999999 L 70.87900000000002,68.142 C 70.91600000000003,68.217 70.94100000000002,68.292 70.94100000000002,68.39399999999999 C 70.94100000000002,68.63199999999999 70.72800000000002,68.85799999999999 70.45200000000001,68.85799999999999 C 70.40100000000001,68.85799999999999 70.33900000000001,68.83299999999998 70.26400000000001,68.80799999999999 L 64.12,65.818 C 64.121,65.819 42.701,74.324 30.98,64.902"/>
</svg>
