<?xml version="1.0" ?>
<svg xmlns="http://www.w3.org/2000/svg" xmlns:ev="http://www.w3.org/2001/xml-events" xmlns:xlink="http://www.w3.org/1999/xlink" baseProfile="full" enable-background="new 0 0 98.618 100" height="600px" version="1.1" viewBox="0 0 98.618 100" width="592px" x="0px" xml:space="preserve" y="0px">
	<defs/>
	<path d="M 92.998,7.127 L 98.61800000000001,7.127 L 98.61800000000001,4.997 L 93.62100000000001,5.021 L 93.62100000000001,0.0 L 91.528,0.0 L 91.528,5.62 L 88.94800000000001,8.187000000000001 L 90.43100000000001,9.657000000000002 L 92.998,7.127"/>
	<path d="M 12.3,82.518 C 11.614,81.857 10.541,81.857 9.882000000000001,82.518 C 9.221000000000002,83.20400000000001 9.235000000000001,84.275 9.882000000000001,84.935 L 15.066000000000003,90.119 C 15.752000000000002,90.766 16.823000000000004,90.766 17.483000000000004,90.119 C 18.144000000000005,89.43299999999999 18.144000000000005,88.362 17.483000000000004,87.702 L 12.3,82.518"/>
	<path d="M 7.813,86.979 C 7.165,86.318 6.0809999999999995,86.318 5.4079999999999995,87.003 C 4.749,87.651 4.749,88.723 5.420999999999999,89.408 L 10.616999999999999,94.592 C 11.279,95.253 12.348999999999998,95.253 13.021999999999998,94.568 C 13.682999999999998,93.908 13.682999999999998,92.836 12.998,92.188 L 7.813,86.979"/>
	<path d="M 6.841,99.266 C 7.353,99.339 7.888,99.191 8.275,98.804 C 8.936,98.118 8.936,97.047 8.275,96.386 L 3.652,91.78699999999999 C 2.991,91.115 1.9060000000000001,91.115 1.2470000000000003,91.78699999999999 C 0.8100000000000003,92.225 0.6620000000000004,92.835 0.8100000000000003,93.39399999999999 L 2.269,97.88099999999999 L 6.841,99.266"/>
	<path d="M 76.736,27.725 L 74.056,30.429000000000002 C 73.209,31.364 72.68599999999999,32.597 72.68599999999999,33.968 C 72.68599999999999,35.426 73.285,36.734 74.231,37.694 L 89.695,53.147000000000006 C 94.65599999999999,58.107000000000006 97.72,64.97200000000001 97.72,72.537 C 97.721,87.701 85.446,100.0 70.294,100.0 C 55.129,100.0 42.842,87.701 42.842,72.536 L 42.905,35.065000000000005 C 42.905,25.756000000000007 35.365,18.217000000000006 26.044,18.217000000000006 C 16.748,18.217000000000006 9.209,25.756000000000007 9.209,35.065000000000005 C 9.209,39.71300000000001 11.078,43.925000000000004 14.143999999999998,46.99100000000001 L 26.705,59.53900000000001 C 29.284,62.10500000000001 30.866,65.65700000000001 30.866,69.569 C 30.866,73.495 29.283,77.046 26.705,79.601 L 20.25,86.043 L 13.994,79.762 L 20.573,73.295 C 21.421,72.348 21.931,71.10300000000001 21.931,69.743 C 21.931,68.30999999999999 21.347,66.96499999999999 20.400000000000002,66.01599999999999 L 6.916,52.709 C 2.63,48.087 0.0,41.869 0.0,35.065 C 0.0,20.723 11.639,9.122 25.969,9.122 C 40.29900000000001,9.122 51.913,20.724 51.913,35.065 L 51.888,72.536 C 51.888,82.717 60.125,90.94 70.294,90.94 C 80.45,90.94 88.698,82.716 88.698,72.536 C 88.698,67.476 86.63,62.878 83.291,59.539 L 67.938,44.087 C 65.36,41.507000000000005 63.777,37.981 63.777,34.068000000000005 C 63.777,30.143000000000004 65.36,26.591000000000005 67.938,24.013000000000005 L 71.827,20.112000000000005 C 72.077,19.876000000000005 72.213,19.527000000000005 72.213,19.166000000000004 C 72.213,18.854000000000003 72.12599999999999,18.554000000000006 71.92699999999999,18.319000000000003 L 69.859,15.925000000000002 C 69.61,15.589000000000002 69.473,15.178000000000003 69.473,14.716000000000003 C 69.473,14.716000000000003 68.077,11.215000000000003 80.85,8.124000000000002 C 82.669,7.689000000000003 84.762,7.814000000000003 86.16999999999999,9.209000000000003 L 89.48399999999998,12.076000000000004 C 90.84299999999998,13.509000000000004 90.92999999999998,15.601000000000004 90.44399999999997,17.422000000000004 C 87.08099999999997,30.120000000000005 83.61499999999998,28.662000000000006 83.61499999999998,28.662000000000006 C 83.15499999999999,28.649000000000004 82.74299999999998,28.499000000000006 82.40699999999998,28.251000000000005 L 80.06399999999998,26.120000000000005 C 79.82699999999998,25.921000000000003 79.54099999999998,25.822000000000006 79.22799999999998,25.808000000000003 C 78.86799999999998,25.796000000000003 78.50499999999998,25.945000000000004 78.26899999999998,26.182000000000002 L 76.736,27.725"/>
</svg>
