<?xml version="1.0" ?>
<svg xmlns="http://www.w3.org/2000/svg" xmlns:ev="http://www.w3.org/2001/xml-events" xmlns:xlink="http://www.w3.org/1999/xlink" baseProfile="full" enable-background="new 0 0 100 96.418" height="579px" version="1.1" viewBox="0 0 100 96.418" width="600px" x="0px" xml:space="preserve" y="0px">
	<defs/>
	<path d="M 60.458,67.628 C 62.67,67.628 64.458,65.827 64.458,63.63 C 64.458,61.418 62.67,59.642 60.458,59.642 C 58.271,59.642 56.483999999999995,61.418000000000006 56.483999999999995,63.63 C 56.485,65.827 58.272,67.628 60.458,67.628 M 100.0,96.399 C 76.372,96.747 51.651,92.224 32.69499999999999,77.02 C 32.60799999999999,76.895 32.532999999999994,76.771 32.532999999999994,76.58399999999999 C 32.532999999999994,76.237 32.818999999999996,75.951 33.19199999999999,75.951 L 51.82599999999999,75.97399999999999 C 52.745999999999995,75.97399999999999 53.464999999999996,75.243 53.464999999999996,74.32399999999998 C 53.464999999999996,73.63999999999999 53.153999999999996,73.17999999999998 52.446999999999996,72.81999999999998 L 35.589,64.76 C 35.254999999999995,64.57300000000001 35.054,64.22500000000001 35.054,63.81700000000001 C 35.054,63.50500000000001 35.18,63.232000000000006 35.365,63.04600000000001 C 35.365,63.04600000000001 55.926,44.87200000000001 100.0,45.28200000000001 L 100.0,96.399"/>
	<path d="M 17.763,0.0 L 0.0,0.0 L 0.0,14.412 L 17.763,14.412 L 17.763,0.0"/>
	<path d="M 100.0,0.0 L 36.795,0.0 L 36.795,14.238 L 100.0,14.238 L 100.0,0.0"/>
	<path d="M 26.136,22.014 C 24.570999999999998,22.524 23.439999999999998,24.027 23.439999999999998,25.778 C 23.439999999999998,27.517 24.595999999999997,29.02 26.136,29.578 L 26.136,54.213 C 26.136,57.393 23.602999999999998,59.939 20.421999999999997,59.939 C 17.264999999999997,59.939 14.719999999999997,57.393 14.719999999999997,54.213 C 14.719999999999997,53.43 14.868999999999996,52.686 15.166999999999996,52.001 L 15.402999999999997,52.199999999999996 L 17.415999999999997,54.038999999999994 L 16.16,42.808 L 12.881,50.374 C 11.888,52.708000000000006 12.124,54.213 12.124,54.213 C 12.124,58.796 15.837,62.535 20.422,62.535 C 25.032,62.535 28.732,58.796 28.732,54.212999999999994 L 28.732,29.529 C 30.285999999999998,28.982 31.404,27.492 31.404,25.778 C 31.404,24.026999999999997 30.286,22.523999999999997 28.732,21.964 L 28.732,0.0 L 26.136,0.0 L 26.136,22.014"/>
</svg>
