<?xml version="1.0" ?>
<svg xmlns="http://www.w3.org/2000/svg" xmlns:ev="http://www.w3.org/2001/xml-events" xmlns:xlink="http://www.w3.org/1999/xlink" baseProfile="full" enable-background="new 0 0 94.471 100" height="600px" version="1.1" viewBox="0 0 94.471 100" width="567px" x="0px" xml:space="preserve" y="0px">
	<defs/>
	<path d="M 94.436,10.072 C 94.436,10.072 59.17000000000001,20.610999999999997 47.27100000000001,0.0 C 35.528,20.337 0.05,8.145 0.05,8.145 C 0.05,8.145 -3.412,86.419 47.271,100.0 C 97.455,86.554 94.436,10.072 94.436,10.072 M 6.104,15.85 C 6.104,15.85 7.785,16.637 10.562000000000001,17.445999999999998 L 6.269000000000001,19.923 C 6.117,17.428 6.104,15.85 6.104,15.85 M 29.934,82.333 C 30.611,82.978 31.312,83.595 32.026,84.205 C 31.312,83.595 30.611,82.978 29.934,82.333 M 38.134,88.663 C 39.048,89.22 39.974000000000004,89.761 40.941,90.259 C 39.983,89.77 39.042,89.216 38.134,88.663 M 47.271,92.955 C 46.337,92.64 45.466,92.274 44.574,91.90899999999999 C 43.595,91.50999999999999 42.641999999999996,91.047 41.711999999999996,90.589 C 42.654999999999994,91.05 43.577999999999996,91.503 44.574,91.90899999999999 L 47.271,90.368 L 47.271,92.955 M 47.271,83.104 L 37.915,88.55199999999999 C 35.942,87.33399999999999 34.091,85.994 32.356,84.53399999999999 L 47.271,75.948 L 47.271,83.104 M 47.271,68.685 L 27.623,80.022 C 26.168,78.43900000000001 24.815,76.79700000000001 23.551000000000002,75.069 L 47.271,61.419000000000004 L 47.271,68.685 M 47.271,54.155 L 20.138,69.84 C 19.068,68.043 18.079,66.20400000000001 17.166,64.337 L 47.271,46.94500000000001 L 47.271,54.155 M 47.271,39.681 L 14.579,58.558 C 13.777000000000001,56.562 13.036000000000001,54.554 12.377,52.56 L 47.27,32.416000000000004 L 47.27,39.681 L 47.271,39.681 M 47.271,25.207 L 10.562,46.395 C 9.975,44.203 9.519,42.095000000000006 9.075999999999999,40.010000000000005 C 8.588999999999999,37.721000000000004 8.203,35.54900000000001 7.864999999999998,33.461000000000006 C 7.472999999999998,31.044000000000004 7.104999999999999,28.781000000000006 6.873999999999999,26.747000000000007 C 6.805999999999999,26.145000000000007 6.740999999999999,25.579000000000008 6.681999999999999,25.03300000000001 C 6.673999999999999,24.963000000000008 6.664999999999998,24.887000000000008 6.657999999999999,24.81800000000001 C 6.5939999999999985,24.22600000000001 6.535999999999999,23.66100000000001 6.488999999999999,23.11500000000001 C 6.535999999999999,23.66400000000001 6.593999999999999,24.230000000000008 6.657999999999999,24.81800000000001 C 6.665999999999999,24.88800000000001 6.673999999999999,24.962000000000007 6.681999999999999,25.03300000000001 C 6.741999999999998,25.58300000000001 6.805999999999998,26.14700000000001 6.873999999999999,26.747000000000007 L 20.028,19.09700000000001 C 20.046999999999997,19.09800000000001 20.064,19.096000000000007 20.083,19.09700000000001 C 24.948999999999998,19.445000000000007 30.643,19.09700000000001 36.483,16.896000000000008 L 36.483,16.896000000000008 L 36.483,16.896000000000008 C 36.483,16.896000000000008 36.482,16.896000000000008 36.482,16.896000000000008 L 7.865,33.461 C 8.202,35.54 8.592,37.732 9.076,40.01 L 47.271,17.941 L 47.271,25.207 M 47.271,10.567 L 47.271,10.675 L 46.72,11.004000000000001 C 46.907,10.854000000000001 47.085,10.717 47.271,10.562000000000001 L 47.271,10.567" fill="#010101"/>
	<path d="M 6.874,26.747 C 6.806,26.147 6.742,25.582 6.6819999999999995,25.033 C 6.741,25.579 6.806,26.146 6.874,26.747" fill="#010101"/>
	<path d="M 9.076,40.01 C 8.592,37.732 8.202,35.54 7.865,33.461 C 8.203,35.549 8.589,37.721 9.076,40.01" fill="#010101"/>
	<path d="M 6.682,25.033 C 6.674,24.962 6.666,24.888 6.658,24.818 C 6.665,24.887 6.674,24.962 6.682,25.033" fill="#010101"/>
	<path d="M 6.658,24.818 C 6.594,24.23 6.5360000000000005,23.664 6.489000000000001,23.115000000000002 C 6.536,23.661 6.594,24.226 6.658,24.818" fill="#010101"/>
	<path d="M 40.941,90.259 C 39.974000000000004,89.761 39.048,89.22 38.134,88.663 C 39.042,89.216 39.983,89.77 40.941,90.259" fill="#010101"/>
	<path d="M 44.574,91.909 C 43.577999999999996,91.503 42.655,91.05000000000001 41.711999999999996,90.58900000000001 C 42.642,91.047 43.594,91.51 44.574,91.909" fill="#010101"/>
	<path d="M 36.483,16.896 L 36.483,16.896 L 36.484,16.896 L 36.483,16.896" fill="#010101" points="36.483,16.896 36.483,16.896 36.484,16.896 "/>
</svg>
