<?xml version="1.0" ?>
<svg xmlns="http://www.w3.org/2000/svg" xmlns:ev="http://www.w3.org/2001/xml-events" xmlns:xlink="http://www.w3.org/1999/xlink" baseProfile="full" enable-background="new 0 0 99.992 100" height="600px" version="1.1" viewBox="0 0 99.992 100" width="600px" x="0px" xml:space="preserve" y="0px">
	<defs/>
	<path d="M 8.333,24.998 C 8.333,24.529 8.365,24.067 8.403,23.609 L 0.0,23.609 L 0.0,26.386000000000003 L 8.403,26.386000000000003 C 8.365,25.928 8.333,25.467 8.333,24.998"/>
	<path d="M 14.243,12.279 L 7.926,5.962 L 5.962,7.926 L 12.279,14.243 C 12.877,13.535 13.535,12.877 14.243,12.279"/>
	<path d="M 24.998,8.333 C 25.467000000000002,8.333 25.929000000000002,8.366 26.387,8.404 L 26.387,0.0 L 23.61,0.0 L 23.61,8.403 C 24.068,8.365 24.529,8.333 24.998,8.333"/>
	<path d="M 37.717,14.242 L 43.278999999999996,8.68 L 41.315,6.715999999999999 L 35.753,12.277999999999999 C 36.461,12.877 37.117,13.534 37.717,14.242"/>
	<path d="M 35.753,37.717 L 41.315,43.278999999999996 L 43.278999999999996,41.315999999999995 L 37.717,35.754 C 37.119,36.461 36.461,37.119 35.753,37.717"/>
	<path d="M 41.593,23.609 C 41.631,24.067 41.664,24.528000000000002 41.664,24.998 C 41.664,25.468 41.631,25.928 41.593,26.387 L 49.996,26.387 L 49.996,23.61 L 41.593,23.61 L 41.593,23.609"/>
	<path d="M 24.998,41.663 C 24.529,41.663 24.068,41.631 23.609,41.592999999999996 L 23.609,49.995999999999995 L 26.386000000000003,49.995999999999995 L 26.386000000000003,41.592999999999996 C 25.929,41.631 25.467,41.663 24.998,41.663"/>
	<path d="M 12.279,35.753 L 5.962,42.07 L 7.926,44.034 L 14.243,37.717 C 13.535,37.119 12.877,36.461 12.279,35.753"/>
	<path d="M 59.718,80.549 L 59.718,83.326 L 76.383,83.326 L 87.493,72.217 L 87.493,69.438 L 70.828,69.438 L 59.718,80.549" points="59.718,80.549 59.718,83.326 76.383,83.326 87.493,72.217 87.493,69.438 70.828,69.438 "/>
	<path d="M 83.327,56.939 L 73.605,66.661 L 90.271,66.661 L 90.271,69.438 L 99.992,59.718 L 99.992,56.939 L 83.327,56.939" points="83.327,56.939 73.605,66.661 90.271,66.661 90.271,69.438 99.992,59.718 99.992,56.939 "/>
	<path d="M 69.438,66.661 L 79.16,56.939 L 62.495,56.939 L 52.773,66.661 L 69.438,66.661" points="69.438,66.661 79.16,56.939 62.495,56.939 52.773,66.661 "/>
	<path d="M 49.996,69.438 L 38.886,80.549 L 38.886,83.326 L 55.551,83.326 L 55.551,80.549 L 55.551,80.549 L 66.661,69.438 L 49.996,69.438" points="49.996,69.438 38.886,80.549 38.886,83.326 55.551,83.326 55.551,80.549 55.551,80.549 66.661,69.438 "/>
	<path d="M 58.329,56.939 L 41.664,56.939 L 31.942,66.661 L 48.607,66.661 L 58.329,56.939" points="58.329,56.939 41.664,56.939 31.942,66.661 48.607,66.661 "/>
	<path d="M 29.165,69.438 L 18.054,80.549 L 18.054,83.326 L 34.72,83.326 L 34.72,80.549 L 45.83,69.438 L 29.165,69.438" points="29.165,69.438 18.054,80.549 18.054,83.326 34.72,83.326 34.72,80.549 45.83,69.438 "/>
	<path cx="24.998" cy="24.998" d="M 11.110000000000001,24.998 A 13.888,13.888 0.0 1,0 38.886,24.998 A 13.888,13.888 0.0 1,0 11.110000000000003,24.998" r="13.888"/>
	<path d="M 52.773,86.112 L 61.106,86.112 L 61.106,100.0 L 52.773,100.0 L 52.773,86.112" height="13.888" width="8.333" x="52.773" y="86.112"/>
</svg>
