<?xml version="1.0" ?>
<svg xmlns="http://www.w3.org/2000/svg" xmlns:ev="http://www.w3.org/2001/xml-events" xmlns:xlink="http://www.w3.org/1999/xlink" baseProfile="full" enable-background="new 0 0 100 100" height="600px" version="1.1" viewBox="0 0 100 100" width="600px" x="0px" xml:space="preserve" y="0px">
	<defs/>
	<path d="M 8.333,25.0 C 8.333,24.531 8.365,24.069 8.403,23.611 L 0.0,23.611 L 0.0,26.388 L 8.404,26.388 C 8.366,25.931 8.333,25.469 8.333,25.0"/>
	<path d="M 14.244,12.28 L 7.926,5.962 L 5.962,7.926 L 12.28,14.244 C 12.878,13.536 13.536,12.878 14.244,12.28"/>
	<path d="M 25.0,8.333 C 25.469,8.333 25.931,8.365 26.389,8.403 L 26.389,0.0 L 23.612,0.0 L 23.612,8.404 C 24.069,8.366 24.531,8.333 25.0,8.333"/>
	<path d="M 37.72,14.243 L 43.282,8.681000000000001 L 41.318,6.7170000000000005 L 35.756,12.279 C 36.464,12.878 37.12,13.535 37.72,14.243"/>
	<path d="M 35.756,37.72 L 41.318,43.282 L 43.282,41.318 L 37.72,35.756 C 37.122,36.464 36.464,37.122 35.756,37.72"/>
	<path d="M 41.596,23.611 C 41.63399999999999,24.069 41.666,24.53 41.666,25.0 C 41.666,25.47 41.634,25.931 41.596,26.389 L 50.0,26.389 L 50.0,23.612 L 41.596,23.612 L 41.596,23.611"/>
	<path d="M 25.0,41.667 C 24.531,41.667 24.069,41.635000000000005 23.611,41.597 L 23.611,50.0 L 26.388,50.0 L 26.388,41.596000000000004 C 25.931,41.634 25.469,41.667 25.0,41.667"/>
	<path d="M 12.28,35.756 L 5.962,42.074 L 7.926,44.038 L 14.244,37.72 C 13.536,37.122 12.878,36.464 12.28,35.756"/>
	<path d="M 88.889,93.056 L 88.889,73.372 L 99.187,63.075 L 95.258,59.147 L 68.869,85.536 L 72.797,89.464 L 83.333,78.928 L 83.333,93.056 L 55.556,93.056 L 55.556,73.372 L 65.853,63.075 L 61.925,59.147 L 35.536,85.536 L 39.464,89.464 L 50.0,78.928 L 50.0,93.056 L 22.222,93.056 L 22.222,73.372 L 32.52,63.075 L 28.592,59.147 L 2.203,85.536 L 6.131,89.464 L 16.667,78.928 L 16.667,93.056 L 0.0,93.056 L 0.0,100.0 L 100.0,100.0 L 100.0,93.056 L 88.889,93.056" points="88.889,93.056 88.889,73.372 99.187,63.075 95.258,59.147 68.869,85.536 72.797,89.464 83.333,78.928    83.333,93.056 55.556,93.056 55.556,73.372 65.853,63.075 61.925,59.147 35.536,85.536 39.464,89.464 50,78.928 50,93.056    22.222,93.056 22.222,73.372 32.52,63.075 28.592,59.147 2.203,85.536 6.131,89.464 16.667,78.928 16.667,93.056 0,93.056 0,100    100,100 100,93.056 "/>
	<path cx="25" cy="25" d="M 11.111,25.0 A 13.889,13.889 0.0 1,0 38.888999999999996,25.0 A 13.889,13.889 0.0 1,0 11.110999999999997,25.0" r="13.889"/>
</svg>
