<?xml version="1.0" ?>
<svg xmlns="http://www.w3.org/2000/svg" xmlns:ev="http://www.w3.org/2001/xml-events" xmlns:xlink="http://www.w3.org/1999/xlink" baseProfile="full" enable-background="new 0 0 100 100" height="600px" version="1.1" viewBox="0 0 100 100" width="600px" x="0px" xml:space="preserve" y="0px">
	<defs/>
	<path d="M 88.547,85.192 C 85.03399999999999,87.00399999999999 79.975,87.43599999999999 76.845,85.794 C 71.32,82.935 67.377,82.398 63.013,85.084 C 63.013,85.084 61.11,86.534 56.942,86.558 C 52.692,86.54 50.873,85.084 50.873,85.084 C 46.495999999999995,82.397 42.483,82.935 36.986,85.794 C 33.827999999999996,87.437 28.842,87.00399999999999 25.284999999999997,85.192 C 20.446999999999996,82.63 17.693999999999996,83.252 12.600999999999997,85.51899999999999 C 8.646999999999997,87.27399999999999 5.084999999999997,87.26899999999999 1.1749999999999972,85.51899999999999 C 0.76,85.335 0.385,85.181 0.0,85.02 L 0.0,98.18599999999999 C 0.385,98.347 0.76,98.50099999999999 1.175,98.68599999999999 C 5.085,100.43599999999999 8.647,100.44099999999999 12.601,98.68599999999999 C 17.694000000000003,96.41799999999999 20.447000000000003,95.79499999999999 25.285,98.359 C 28.842,100.17099999999999 33.827,100.603 36.986000000000004,98.961 C 42.483000000000004,96.102 46.495000000000005,95.565 50.873000000000005,98.251 C 50.873000000000005,98.251 52.69200000000001,99.70700000000001 56.94200000000001,99.72500000000001 C 61.11000000000001,99.70200000000001 63.013000000000005,98.251 63.013000000000005,98.251 C 67.37700000000001,95.56400000000001 71.32000000000001,96.102 76.845,98.961 C 79.975,100.604 85.03399999999999,100.17099999999999 88.547,98.359 C 93.03399999999999,96.00399999999999 95.63799999999999,96.35 100.0,98.18599999999999 L 100.0,85.02 C 95.638,83.185 93.034,82.837 88.547,85.192"/>
	<path d="M 87.5,38.888 C 86.554,30.369999999999997 81.097,27.016 77.713,25.741 C 76.112,22.21 73.89599999999999,19.017 71.189,16.310000000000002 L 76.11,11.389000000000003 C 69.423,6.041000000000003 63.195,7.519000000000003 59.899,9.009000000000004 C 56.386,7.678000000000004 52.585,6.943000000000004 48.612,6.943000000000004 L 48.612,0.0 C 40.093,0.947 36.74,6.403 35.465,9.787 C 31.935000000000002,11.388000000000002 28.741000000000003,13.604000000000001 26.035000000000004,16.311 L 21.114000000000004,11.39 C 15.765000000000004,18.077 17.244000000000003,24.305 18.734000000000005,27.601 C 17.403000000000006,31.112 16.668000000000006,34.915 16.668000000000006,38.888 L 9.722,38.888 C 10.668999999999999,47.406 16.125,50.76 19.509,52.035 C 21.11,55.565 23.326,58.757999999999996 26.033,61.465999999999994 L 21.113,66.387 C 27.8,71.735 34.028,70.256 37.324,68.767 C 40.836,70.098 44.638,70.832 48.611,70.832 L 48.611,77.77499999999999 C 57.129,76.829 60.483,71.37199999999999 61.757,67.98799999999999 C 65.288,66.38699999999999 68.481,64.17199999999998 71.188,61.463999999999984 L 76.10900000000001,66.38499999999999 C 81.459,59.69799999999999 79.97900000000001,53.46999999999999 78.49000000000001,50.17399999999999 C 79.82000000000001,46.66299999999999 80.555,42.85999999999999 80.555,38.88699999999999 L 87.5,38.88699999999999 L 87.5,38.888 M 48.611,65.276 L 48.611,65.276 C 34.059999999999995,65.277 22.221999999999998,53.43899999999999 22.221999999999998,38.88799999999999 C 22.221999999999998,24.33699999999999 34.061,12.5 48.611,12.5 L 48.611,12.499 C 63.162,12.499 75.0,24.337 75.0,38.888 C 75.0,53.43899999999999 63.162,65.276 48.611,65.276"/>
	<path d="M 49.466,22.222 L 37.5,42.738 L 46.048,42.738 L 39.21,56.413 L 59.723,35.897 L 49.466,35.897 L 58.012,22.222 L 49.466,22.222" points="49.466,22.222 37.5,42.738 46.048,42.738 39.21,56.413 59.723,35.897 49.466,35.897 58.012,22.222  "/>
</svg>
