<?xml version="1.0" ?>
<svg xmlns="http://www.w3.org/2000/svg" xmlns:ev="http://www.w3.org/2001/xml-events" xmlns:xlink="http://www.w3.org/1999/xlink" baseProfile="full" enable-background="new 0 0 100 97.251" height="584px" version="1.1" viewBox="0 0 100 97.251" width="600px" x="0px" xml:space="preserve" y="0px">
	<defs/>
	<path d="M 11.318,61.61 C 17.582,61.61 22.662,56.528999999999996 22.662,50.265 C 22.662,44.013 17.581,38.947 11.318,38.947 C 5.066,38.947 0.0,44.014 0.0,50.266 C 0.0,56.529 5.066,61.61 11.318,61.61"/>
	<path d="M 74.854,81.091 C 75.382,80.734 76.081,80.833 76.467,81.348 L 78.565,84.244 C 78.92099999999999,84.745 78.806,85.471 78.30799999999999,85.858 L 62.922,97.033 C 62.424,97.403 61.696,97.289 61.312,96.791 L 59.212999999999994,93.87899999999999 C 58.85699999999999,93.37899999999999 58.96999999999999,92.66499999999999 59.468999999999994,92.26599999999999 L 74.854,81.091"/>
	<path d="M 57.457,66.677 L 51.348,55.974000000000004 L 48.153,58.31400000000001 L 54.247,69.075 L 57.457,66.677"/>
	<path d="M 43.214,41.673 L 19.479,0.0 L 14.942,0.028 L 39.974000000000004,44.041 L 43.214,41.673"/>
	<path d="M 65.562,63.722 C 66.905,62.751000000000005 68.446,61.996 70.201,61.996 L 92.252,62.023 C 96.532,62.023 100.0,65.50500000000001 100.0,69.773 C 100.0,74.068 96.532,77.52199999999999 92.252,77.52199999999999 L 73.856,77.49499999999999 L 50.351,94.078 C 42.073,100.043 37.05,93.492 37.05,93.492 L 18.609,75.04 C 15.526000000000002,71.32900000000001 16.184,64.27900000000001 19.894000000000002,61.168000000000006 L 45.412000000000006,42.98500000000001 C 47.953,40.87400000000001 51.721000000000004,41.202000000000005 53.86000000000001,43.714000000000006 C 55.98700000000001,46.25300000000001 55.645,50.035000000000004 53.105000000000004,52.162000000000006 L 36.777,64.12200000000001 L 48.509,75.71 L 65.562,63.722"/>
</svg>
