<?xml version="1.0" ?>
<svg xmlns="http://www.w3.org/2000/svg" xmlns:ev="http://www.w3.org/2001/xml-events" xmlns:xlink="http://www.w3.org/1999/xlink" baseProfile="full" enable-background="new 0 0 88.889 100" height="600px" version="1.1" viewBox="0 0 88.889 100" width="534px" x="0px" xml:space="preserve" y="0px">
	<defs/>
	<path d="M 54.167,2.778 L 26.389,2.778 C 21.328,2.778 11.233,1.085 8.333,0.0 C 8.816,0.182 12.5,11.111 26.389,11.111 L 54.167,11.111 C 58.977000000000004,11.111 73.611,11.111 73.611,13.888000000000002 L 81.944,13.888000000000002 C 81.944,2.778 66.542,2.778 54.167,2.778"/>
	<path d="M 83.333,18.056 L 72.222,18.056 L 68.54899999999999,72.223 L 61.11099999999999,72.223 L 61.11099999999999,52.777 L 0.0,52.777 L 0.0,100.0 L 61.111,100.0 L 66.667,100.0 L 75.0,100.0 L 88.889,100.0 L 83.333,18.056 M 22.543,93.913 L 29.38,80.238 L 20.832,80.238 L 32.798,59.722 L 41.344,59.722 L 32.798,73.396 L 43.055,73.396 L 22.543,93.913"/>
</svg>
