<?xml version="1.0" ?>
<svg xmlns="http://www.w3.org/2000/svg" xmlns:ev="http://www.w3.org/2001/xml-events" xmlns:xlink="http://www.w3.org/1999/xlink" baseProfile="full" enable-background="new 0 0 100 84" height="505px" version="1.1" viewBox="0 0 100 84" width="600px" x="0px" xml:space="preserve" y="0px">
	<defs/>
	<path d="M 82.0,32.0 L 82.0,8.0 L 68.0,8.0 L 68.0,18.0 L 50.0,0.0 L 0.0,50.0 L 12.001,50.0 L 12.001,84.0 L 87.99900000000001,84.0 L 87.99900000000001,50.0 L 100.0,50.0 L 82.0,32.0 M 50.0,21.986 L 50.0,17.986 L 60.0,25.987000000000002 L 50.0,33.987 L 50.0,29.986 C 39.491,29.986 30.868,38.14 30.078,48.452 L 22.103,47.936 C 23.161,33.456 35.251,21.986 50.0,21.986 M 50.0,77.987 C 39.638999999999996,77.987 30.596,72.317 25.754,63.92999999999999 L 22.399,65.841 L 24.399,53.19199999999999 L 36.305,57.922 L 32.7,59.974999999999994 C 36.163,65.95 42.611,69.987 50.0,69.987 C 53.149,69.987 56.12,69.23599999999999 58.772,67.93199999999999 L 62.314,75.09599999999999 C 58.591,76.929 54.422,77.987 50.0,77.987 M 77.55,65.776 L 65.65599999999999,70.52199999999999 L 63.63599999999999,57.87299999999999 L 67.29399999999998,59.95099999999999 C 68.99599999999998,57.01299999999999 69.99999999999999,53.62199999999999 69.99999999999999,49.986999999999995 C 69.99999999999999,43.148999999999994 66.54399999999998,37.104 61.292999999999985,33.495999999999995 L 65.72999999999999,26.840999999999994 C 73.13,31.885 78.0,40.375 78.0,49.987 C 78.0,55.056000000000004 76.629,59.805 74.26,63.907000000000004 L 77.55,65.776"/>
</svg>
