<?xml version="1.0" ?>
<svg xmlns="http://www.w3.org/2000/svg" xmlns:ev="http://www.w3.org/2001/xml-events" xmlns:xlink="http://www.w3.org/1999/xlink" baseProfile="full" enable-background="new 0 0 58.391 100" height="600px" version="1.1" viewBox="0 0 58.391 100" width="351px" x="0px" xml:space="preserve" y="0px">
	<defs/>
	<path d="M 45.875,29.436 C 57.268,8.877 59.217,0.677 58.122,0.045 C 57.031,-0.586 50.905,5.195 38.809,25.327 C 41.822,25.359 44.447,27.003 45.875,29.436"/>
	<path d="M 30.424,33.621 C 30.424,32.135000000000005 30.820999999999998,30.742 31.506999999999998,29.534000000000002 C 8.059,29.949 0.0,32.359 0.0,33.621 C 0.0,34.882000000000005 8.058,37.293 31.505,37.707 C 30.821,36.5 30.424,35.108 30.424,33.621"/>
	<path d="M 45.884,37.794 C 44.46,40.23 41.838,41.876999999999995 38.823,41.913 C 50.911,62.021 57.03,67.798 58.124,67.167 C 59.217,66.535 57.271,58.34 45.884,37.794"/>
	<path d="M 34.573,42.889 L 34.573,44.684000000000005 L 34.573,100.0 L 42.870000000000005,100.0 L 42.870000000000005,56.07 C 40.49,52.552 37.745,48.22 34.573,42.889"/>
	<path cx="38.721" cy="33.621" d="M 34.57299999999999,33.621 A 4.148,4.148 0.0 1,0 42.86899999999999,33.621 A 4.148,4.148 0.0 1,0 34.57299999999999,33.621" r="4.148"/>
</svg>
