<?xml version="1.0" ?>
<svg xmlns="http://www.w3.org/2000/svg" xmlns:ev="http://www.w3.org/2001/xml-events" xmlns:xlink="http://www.w3.org/1999/xlink" baseProfile="full" enable-background="new 0 0 100 98.443" height="591px" version="1.1" viewBox="0 0 100 98.443" width="600px" x="0px" xml:space="preserve" y="0px">
	<defs/>
	<path d="M 80.221,16.032 C 84.653,16.032 88.25200000000001,12.456 88.25200000000001,8.024000000000001 C 88.25200000000001,3.599000000000001 84.65200000000002,1.7763568394002505e-15 80.221,1.7763568394002505e-15 C 75.797,1.7763568394002505e-15 72.22,3.599000000000002 72.22,8.024000000000001 C 72.22,12.456 75.797,16.032 80.221,16.032"/>
	<path d="M 58.195,35.252 L 46.125,35.252 C 41.336,35.252 41.336,41.548 46.125,41.548 L 59.923,41.527 C 60.945,41.527 62.005,40.982 62.817,39.709 L 69.756,28.768 L 69.735,93.776 C 69.735,96.258 71.751,98.276 74.235,98.276 C 76.721,98.276 78.729,96.25999999999999 78.729,93.776 L 78.729,56.065 L 81.759,56.065 L 81.738,93.776 C 81.738,96.258 83.754,98.276 86.24,98.276 C 88.72399999999999,98.276 90.741,96.25999999999999 90.741,93.776 L 90.741,28.768 L 93.725,28.768 L 93.725,52.726 C 93.725,57.558 100.021,57.558 99.999,52.726 L 99.999,28.268 C 99.999,22.942 95.877,17.713 89.627,17.713 L 74.827,17.713 C 71.228,17.713 68.098,19.554000000000002 66.25,22.374000000000002 L 58.195,35.252"/>
	<path d="M 10.038,75.5 C 17.259,75.5 23.109,81.35 23.109,88.57 L 22.987000000000002,97.449 L 38.383,97.449 L 52.30200000000001,58.172999999999995 L 52.376000000000005,44.86899999999999 L 5.638,44.891 L 5.616,75.478 L 10.038,75.5"/>
	<path d="M 0.0,88.571 C 0.0,83.12299999999999 4.424,78.698 9.873,78.698 C 15.321,78.698 19.746,83.121 19.746,88.571 C 19.746,94.018 15.320999999999998,98.443 9.873,98.443 C 4.424,98.443 0.0,94.018 0.0,88.571 M 9.872,92.851 C 12.243,92.851 14.16,90.934 14.16,88.571 C 14.16,86.199 12.243,84.282 9.872,84.282 C 7.508,84.282 5.591,86.199 5.591,88.571 C 5.591,90.934 7.508,92.851 9.872,92.851"/>
	<path d="M 43.755,24.767 L 43.755,24.767 L 41.906000000000006,25.669999999999998 L 41.037000000000006,23.842999999999996 L 41.037000000000006,23.842999999999996 L 39.21000000000001,24.721999999999998 L 38.33200000000001,22.895999999999997 L 38.33200000000001,22.895999999999997 L 36.51400000000001,23.773999999999997 L 35.61100000000001,21.947999999999997 L 35.63300000000001,21.947999999999997 L 33.78400000000001,22.849999999999998 L 32.914000000000016,21.002 L 32.914000000000016,21.023999999999997 L 31.087000000000018,21.903 L 30.21600000000002,20.031 L 24.67000000000002,35.821 C 24.22200000000002,37.101 24.913000000000018,38.518 26.18400000000002,38.949999999999996 L 35.140000000000015,42.04899999999999 C 36.41200000000001,42.495999999999995 37.81500000000001,41.81399999999999 38.262000000000015,40.53399999999999 L 43.755,24.767"/>
	<path d="M 35.921,8.759 L 33.336,6.583 L 2.961,42.573 L 5.561,44.746 L 35.921,8.759" points="35.921,8.759 33.336,6.583 2.961,42.573 5.561,44.746 "/>
</svg>
