<?xml version="1.0" ?>
<svg xmlns="http://www.w3.org/2000/svg" xmlns:ev="http://www.w3.org/2001/xml-events" xmlns:xlink="http://www.w3.org/1999/xlink" baseProfile="full" enable-background="new 0 0 100 68.252" height="410px" version="1.1" viewBox="0 0 100 68.252" width="600px" x="0px" xml:space="preserve" y="0px">
	<defs/>
	<path clip-rule="evenodd" d="M 100.0,31.422 L 73.82,31.422 L 66.778,7.338 L 80.66300000000001,7.3260000000000005 L 80.66300000000001,0.0 L 19.104,0.0 L 19.093999999999998,7.38 L 33.547,7.369 L 26.525999999999996,31.379 L 0.0,31.379 L 0.0,37.631 L 24.631,37.631 L 15.57,68.252 L 26.21,68.252 L 35.242000000000004,37.631 L 64.654,37.631 L 73.579,68.252 L 84.68299999999999,68.252 L 75.579,37.672999999999995 L 100.0,37.672999999999995 L 100.0,31.422 L 100.0,31.422 L 100.0,31.422 M 37.166,31.419 L 44.24,7.346 L 55.872,7.335 L 62.744,31.419 L 37.166,31.419 L 37.166,31.419 L 37.166,31.419" fill-rule="evenodd"/>
</svg>
