<?xml version="1.0" ?>
<svg xmlns="http://www.w3.org/2000/svg" xmlns:ev="http://www.w3.org/2001/xml-events" xmlns:xlink="http://www.w3.org/1999/xlink" baseProfile="full" enable-background="new 0 0 91.666 100" height="600px" version="1.1" viewBox="0 0 91.666 100" width="551px" x="0px" xml:space="preserve" y="0px">
	<defs/>
	<path d="M 74.999,38.993 L 74.999,0.0 L 18.75,0.0 L 18.75,38.932 L 0.0,66.016 L 0.0,100.0 L 91.666,100.0 L 91.666,66.076 L 74.999,38.993 M 22.917,4.166 L 70.832,4.166 L 70.832,60.416 L 22.917,60.416 L 22.917,4.166 M 4.167,95.833 L 4.167,68.75 L 87.499,68.75 L 87.499,95.833 L 4.167,95.833" fill="#000000"/>
	<path d="M 50.0,79.166 C 50.0,76.863 48.137,75.0 45.833,75.0 C 43.528999999999996,75.0 41.666,76.863 41.666,79.166 C 41.666,80.566 42.361999999999995,81.79899999999999 43.422,82.556 L 41.666,89.583 L 50.0,89.583 L 48.244,82.556 C 49.304,81.799 50.0,80.566 50.0,79.166" fill="#000000"/>
	<path d="M 52.083,47.916 C 51.675,47.916 51.286,47.992999999999995 50.911,48.104 L 45.833,44.717999999999996 L 45.833,41.666 C 50.429,41.666 54.166,37.927 54.166,33.333 C 54.166,30.261 52.477999999999994,27.604 49.998999999999995,26.159 L 49.998999999999995,17.634999999999998 L 43.644999999999996,13.398999999999997 C 43.709999999999994,13.105999999999998 43.748999999999995,12.808999999999997 43.748999999999995,12.500999999999998 C 43.748999999999995,10.196999999999997 41.88399999999999,8.333999999999998 39.581999999999994,8.333999999999998 C 37.279999999999994,8.333999999999998 35.41499999999999,10.196999999999997 35.41499999999999,12.500999999999998 C 35.41499999999999,14.799999999999997 37.279999999999994,16.666999999999998 39.581999999999994,16.666999999999998 C 39.99099999999999,16.666999999999998 40.37899999999999,16.589999999999996 40.75399999999999,16.479999999999997 L 45.831999999999994,19.864999999999995 L 45.831999999999994,25.0 C 41.23599999999999,25.0 37.498999999999995,28.735 37.498999999999995,33.333 C 37.498999999999995,36.405 39.187999999999995,39.062 41.666,40.507 L 41.666,46.948 L 48.019999999999996,51.183 C 47.955,51.472 47.916,51.773 47.916,52.082 C 47.916,54.381 49.781,56.249 52.081999999999994,56.249 C 54.38399999999999,56.249 56.24799999999999,54.381 56.24799999999999,52.082 C 56.249,49.78 54.385,47.916 52.083,47.916 M 45.833,29.166 C 48.129999999999995,29.166 50.0,31.034 50.0,33.333 C 50.0,35.628 48.13,37.5 45.833,37.5 C 43.535999999999994,37.5 41.666,35.628 41.666,33.333 C 41.667,31.034 43.537,29.166 45.833,29.166" fill="#000000"/>
</svg>
