<?xml version="1.0" ?>
<svg xmlns="http://www.w3.org/2000/svg" xmlns:ev="http://www.w3.org/2001/xml-events" xmlns:xlink="http://www.w3.org/1999/xlink" baseProfile="full" enable-background="new 0 0 97.916 100" height="600px" version="1.1" viewBox="0 0 97.916 100" width="588px" x="0px" xml:space="preserve" y="0px">
	<defs/>
	<path d="M 81.055,38.68 C 81.177,37.606 81.25,36.524 81.25,35.416 C 81.25,19.336 68.168,6.248999999999995 52.084,6.248999999999995 C 44.949000000000005,6.248999999999995 38.412000000000006,8.832999999999995 33.33800000000001,13.104999999999995 C 28.215000000000007,14.715999999999996 18.03200000000001,15.534999999999995 10.163000000000007,1.0849999999999955 C 9.825,0.463 9.192,0.057 8.484,0.008 C 7.782,-0.054 7.0920000000000005,0.268 6.667,0.834 L 0.4169999999999998,9.167 C -0.07300000000000018,9.818 -0.13600000000000023,10.697 0.2539999999999998,11.413 C 7.066,23.926 17.19,26.448 24.201,26.871 C 23.369,29.576999999999998 22.917,32.446 22.917,35.416 C 22.917,37.369 23.118000000000002,39.272999999999996 23.484,41.120999999999995 L 6.25,66.016 L 6.25,100.0 L 97.916,100.0 L 97.916,66.076 L 81.055,38.68 M 27.083,35.416 C 27.083,32.434 27.636999999999997,29.580999999999996 28.598999999999997,26.928999999999995 C 29.078999999999997,25.605999999999995 29.652999999999995,24.331999999999994 30.338999999999995,23.123999999999995 C 31.699999999999996,20.727999999999994 33.452,18.582999999999995 35.498999999999995,16.763999999999996 C 36.09499999999999,16.230999999999995 36.717999999999996,15.726999999999997 37.364999999999995,15.253999999999996 C 41.498999999999995,12.226999999999997 46.57899999999999,10.415999999999997 52.084999999999994,10.415999999999997 C 65.86999999999999,10.415999999999997 77.08399999999999,21.630999999999997 77.08399999999999,35.416 C 77.08399999999999,36.12 77.03499999999998,36.812 76.97899999999998,37.5 C 75.91699999999999,50.313 65.16699999999999,60.417 52.08499999999999,60.417 C 39.002999999999986,60.417 28.253999999999987,50.313 27.189999999999987,37.5 C 27.132,36.812 27.083,36.12 27.083,35.416 M 4.57,10.575 L 8.132,5.821999999999999 C 9.033,7.213999999999999 9.99,8.491 10.989,9.655 L 7.367000000000001,14.485 C 6.393,13.342 5.453,12.052 4.57,10.575 M 14.163,20.007 C 12.877,19.331000000000003 11.603,18.477 10.356,17.444000000000003 L 13.949,12.651000000000003 C 15.143,13.692000000000004 16.387999999999998,14.576000000000004 17.672,15.328000000000003 L 14.163,20.007 M 18.156,21.626 L 21.549999999999997,17.098000000000003 C 23.828999999999997,17.875000000000004 26.202999999999996,18.229000000000003 28.633999999999997,18.148000000000003 C 27.565999999999995,19.592000000000002 26.631999999999998,21.138000000000005 25.842999999999996,22.770000000000003 C 23.584,22.713 20.929,22.461 18.156,21.626 M 93.75,95.833 L 10.417,95.833 L 10.417,68.75 L 93.75,68.75 L 93.75,95.833" fill="#000000"/>
	<path d="M 56.251,79.167 C 56.251,76.863 54.387,75.0 52.083999999999996,75.0 C 49.781,75.0 47.916999999999994,76.863 47.916999999999994,79.167 C 47.916999999999994,80.57000000000001 48.61299999999999,81.804 49.672999999999995,82.557 L 47.916999999999994,89.583 L 56.25099999999999,89.583 L 54.49499999999999,82.557 C 55.555,81.804 56.251,80.57 56.251,79.167" fill="#000000"/>
	<path d="M 66.666,43.75 C 62.071999999999996,43.75 58.333999999999996,40.015 58.333999999999996,35.416 C 58.333999999999996,30.821999999999996 62.071999999999996,27.083 66.666,27.083 C 71.265,27.083 75.0,30.822 75.0,35.416 C 75.0,40.015 71.265,43.75 66.666,43.75 M 66.666,31.25 C 64.371,31.25 62.5,33.121 62.5,35.416 C 62.5,37.715999999999994 64.371,39.583 66.666,39.583 C 68.965,39.583 70.833,37.716 70.833,35.416 C 70.833,33.121 68.965,31.25 66.666,31.25" fill="#000000"/>
	<path d="M 37.5,43.75 C 32.903999999999996,43.75 29.167,40.015 29.167,35.416 C 29.167,30.821999999999996 32.904,27.083 37.5,27.083 C 42.096000000000004,27.083 45.833,30.822 45.833,35.416 C 45.834,40.015 42.096,43.75 37.5,43.75 M 37.5,31.25 C 35.203,31.25 33.333,33.121 33.333,35.416 C 33.333,37.715999999999994 35.202999999999996,39.583 37.5,39.583 C 39.797000000000004,39.583 41.667,37.716 41.667,35.416 C 41.667,33.121 39.797,31.25 37.5,31.25" fill="#000000"/>
	<path d="M 43.75,50.0 C 43.75,45.406 47.487,41.666 52.083,41.666 C 56.679,41.666 60.415,45.406 60.415,50.0 C 60.415,54.598 56.679,58.333 52.083,58.333 C 47.488,58.333 43.75,54.598 43.75,50.0 M 56.251,50.0 C 56.251,47.705 54.381,45.833 52.083999999999996,45.833 C 49.787,45.833 47.916999999999994,47.705 47.916999999999994,50.0 C 47.916999999999994,52.299 49.78699999999999,54.166 52.083999999999996,54.166 C 54.381,54.166 56.251,52.299 56.251,50.0" fill="#000000"/>
	<path d="M 43.75,20.833 C 43.75,16.238999999999997 47.487,12.499999999999998 52.083,12.499999999999998 C 56.679,12.499999999999998 60.415,16.238999999999997 60.415,20.833 C 60.415,25.430999999999997 56.679,29.165999999999997 52.083,29.165999999999997 C 47.488,29.166 43.75,25.431 43.75,20.833 M 56.251,20.833 C 56.251,18.537999999999997 54.381,16.665999999999997 52.083999999999996,16.665999999999997 C 49.787,16.665999999999997 47.916999999999994,18.537999999999997 47.916999999999994,20.833 C 47.916999999999994,23.131999999999998 49.78699999999999,25.0 52.083999999999996,25.0 C 54.381,25.0 56.251,23.132 56.251,20.833" fill="#000000"/>
	<path cx="52.084" cy="35.416" d="M 47.917,35.416 A 4.167000000000002,4.167000000000002 0.0 1,0 56.251000000000005,35.416 A 4.167000000000002,4.167000000000002 0.0 1,0 47.917,35.416" fill="#000000" r="4.167"/>
</svg>
