<?xml version="1.0" ?>
<svg xmlns="http://www.w3.org/2000/svg" xmlns:ev="http://www.w3.org/2001/xml-events" xmlns:xlink="http://www.w3.org/1999/xlink" baseProfile="full" enable-background="new 0 0 91.667 100" height="600px" version="1.1" viewBox="0 0 91.667 100" width="551px" x="0px" xml:space="preserve" y="0px">
	<defs/>
	<path d="M 77.083,42.379 L 77.083,18.75 L 68.75,18.75 L 68.75,10.417 L 60.416,10.417 L 60.416,0.0 L 4.167,0.0 L 4.167,47.917 L 10.417,47.917 L 10.417,50.969 L 0.0,66.016 L 0.0,100.0 L 91.667,100.0 L 91.667,66.077 L 77.083,42.379 M 56.25,8.358 C 56.209,8.354000000000001 56.175,8.334000000000001 56.132,8.334000000000001 L 8.333,8.334000000000001 L 8.333,4.167 L 56.25,4.167 L 56.25,8.358 M 8.333,12.5 L 56.25,12.5 L 56.25,43.75 L 8.333,43.75 L 8.333,12.5 M 72.917,60.417 L 20.833,60.417 L 20.833,56.25 L 68.75,56.25 L 68.75,22.917 L 72.916,22.917 L 72.916,60.417 L 72.917,60.417 M 64.583,14.583 L 64.583,52.083 L 14.582999999999998,52.083 L 14.582999999999998,47.917 L 60.416,47.917 L 60.416,14.583 L 64.583,14.583 M 87.5,95.833 L 4.167,95.833 L 4.167,68.75 L 87.5,68.75 L 87.5,95.833" fill="#000000"/>
	<path d="M 50.0,79.167 C 50.0,76.863 48.137,75.0 45.833,75.0 C 43.53,75.0 41.666,76.863 41.666,79.167 C 41.666,80.568 42.361999999999995,81.802 43.422,82.557 L 41.666,89.583 L 50.0,89.583 L 48.244,82.557 C 49.305,81.802 50.0,80.568 50.0,79.167" fill="#000000"/>
	<path d="M 30.402,33.169 L 33.502,40.403 L 37.332,38.764 L 34.308,31.71 L 43.75,33.333 L 25.0,14.583 L 25.0,39.583 L 30.402,33.169" fill="#000000" points="30.402,33.169 33.502,40.403 37.332,38.764 34.308,31.71 43.75,33.333 25,14.583 25,39.583 "/>
</svg>
