<?xml version="1.0" ?>
<svg xmlns="http://www.w3.org/2000/svg" xmlns:ev="http://www.w3.org/2001/xml-events" xmlns:xlink="http://www.w3.org/1999/xlink" baseProfile="full" enable-background="new 0 0 83.332 100" height="600px" version="1.1" viewBox="0 0 83.332 100" width="501px" x="0px" xml:space="preserve" y="0px">
	<defs/>
	<path d="M 2.083,100.0 C 0.933,100.0 0.0,99.068 0.0,97.917 L 0.0,81.251 C 0.0,80.10000000000001 0.933,79.168 2.083,79.168 L 10.416,79.168 C 19.644,79.168 22.916,75.897 22.916,66.668 C 22.916,66.21600000000001 23.062,65.77600000000001 23.333000000000002,65.41900000000001 L 27.849000000000004,59.39700000000001 L 24.341000000000005,58.225000000000016 C 23.490000000000006,57.945000000000014 22.917000000000005,57.14700000000001 22.917000000000005,56.25200000000002 C 22.917000000000005,55.353000000000016 23.491000000000007,54.55900000000002 24.341000000000005,54.274000000000015 L 27.849000000000004,53.106000000000016 L 23.333000000000006,47.08400000000002 C 22.859000000000005,46.45300000000002 22.783000000000005,45.60700000000002 23.136000000000006,44.90300000000002 C 23.489000000000008,44.19500000000002 24.210000000000008,43.75200000000002 25.000000000000007,43.75200000000002 L 31.250000000000007,43.75200000000002 C 31.421000000000006,43.76400000000002 32.964000000000006,43.829000000000015 33.632000000000005,42.963000000000015 C 34.26500000000001,42.14100000000001 34.196000000000005,40.432000000000016 33.440000000000005,38.15700000000002 C 30.525000000000006,29.417000000000016 19.041000000000004,3.1860000000000213 18.925000000000004,2.9210000000000207 C 18.463000000000005,1.8670000000000206 18.944000000000003,0.6380000000000208 19.997000000000003,0.17600000000002058 C 21.049000000000003,-0.28799999999997944 22.281000000000002,0.19500000000002057 22.742000000000004,1.2480000000000206 C 23.217000000000006,2.3320000000000207 34.419000000000004,27.91900000000002 37.393,36.84200000000002 C 38.647,40.61000000000002 38.480000000000004,43.53900000000002 36.897,45.55000000000002 C 34.854,48.15000000000002 31.459,47.94600000000002 31.075,47.90900000000002 L 29.162,47.91300000000002 L 32.916,52.91800000000002 C 33.318,53.45100000000002 33.437,54.14700000000002 33.238,54.78600000000002 C 33.039,55.42900000000002 32.543,55.92900000000002 31.908,56.14000000000002 L 31.587,56.25000000000002 L 31.908,56.35500000000002 C 32.543,56.56700000000002 33.038000000000004,57.07100000000002 33.238,57.70900000000002 C 33.437999999999995,58.347000000000016 33.318,59.04400000000002 32.916,59.58100000000002 L 27.076999999999998,67.36900000000001 C 26.869,78.39900000000002 21.705999999999996,83.33100000000002 10.416999999999998,83.33100000000002 L 4.166999999999998,83.33100000000002 L 4.166999999999998,97.91400000000002 C 4.167,99.068 3.234,100.0 2.083,100.0" fill="#000000"/>
	<path d="M 74.998,100.0 C 73.84700000000001,100.0 72.915,99.068 72.915,97.917 C 72.915,94.381 74.515,92.001 76.05900000000001,89.702 C 77.656,87.326 79.165,85.08 79.165,81.251 L 79.165,68.751 C 79.165,67.60000000000001 78.229,66.668 77.08200000000001,66.668 C 75.93500000000002,66.668 74.998,67.60000000000001 74.998,68.751 C 74.998,69.902 74.066,70.834 72.915,70.834 C 71.76400000000001,70.834 70.83200000000001,69.902 70.83200000000001,68.751 L 70.83200000000001,66.668 C 70.83200000000001,65.51700000000001 69.896,64.58500000000001 68.74900000000001,64.58500000000001 C 67.60200000000002,64.58500000000001 66.665,65.51700000000001 66.665,66.668 C 66.665,67.819 65.733,68.751 64.58200000000001,68.751 C 63.43100000000001,68.751 62.49900000000001,67.819 62.49900000000001,66.668 L 62.49900000000001,64.58500000000001 C 62.49900000000001,63.434000000000005 61.56200000000001,62.501000000000005 60.415000000000006,62.501000000000005 C 59.269000000000005,62.501000000000005 58.33200000000001,63.434000000000005 58.33200000000001,64.58500000000001 C 58.33200000000001,65.73600000000002 57.39900000000001,66.668 56.24900000000001,66.668 C 55.09900000000001,66.668 54.16600000000001,65.736 54.16600000000001,64.58500000000001 L 54.16600000000001,41.669 C 54.16600000000001,40.516999999999996 53.23000000000001,39.584999999999994 52.08200000000001,39.584999999999994 C 50.934000000000005,39.584999999999994 49.99900000000001,40.516999999999996 49.99900000000001,41.669 L 49.99900000000001,81.251 C 49.99900000000001,83.798 51.37200000000001,86.089 52.82700000000001,88.51 C 54.43100000000001,91.183 56.24900000000001,94.214 56.24900000000001,97.917 C 56.24900000000001,99.068 55.31600000000001,100.0 54.16600000000001,100.0 C 53.01600000000001,100.0 52.08200000000001,99.068 52.08200000000001,97.917 C 52.08200000000001,95.37 50.70900000000001,93.07900000000001 49.254000000000005,90.654 C 47.650000000000006,87.97999999999999 45.83200000000001,84.953 45.83200000000001,81.25099999999999 L 45.83200000000001,41.669 C 45.83200000000001,38.223 48.63600000000001,35.419 52.08200000000001,35.419 C 55.528000000000006,35.419 58.33200000000001,38.223 58.33200000000001,41.669 L 58.33200000000001,58.68899999999999 C 58.98300000000001,58.46099999999999 59.68600000000001,58.334999999999994 60.415000000000006,58.334999999999994 C 62.62500000000001,58.334999999999994 64.57000000000001,59.486 65.683,61.224 C 66.58800000000001,60.711 67.634,60.418 68.74900000000001,60.418 C 70.95800000000001,60.418 72.903,61.569 74.016,63.307 C 74.921,62.794000000000004 75.967,62.501000000000005 77.08200000000001,62.501000000000005 C 80.528,62.501000000000005 83.33200000000001,65.305 83.33200000000001,68.751 L 83.33200000000001,81.251 C 83.33200000000001,86.35000000000001 81.21600000000001,89.498 79.51700000000001,92.02900000000001 C 78.15700000000001,94.05100000000002 77.08200000000001,95.65 77.08200000000001,97.91700000000002 C 77.082,99.068 76.15,100.0 74.998,100.0" fill="#000000"/>
	<path cx="10.417" cy="20.836" d="M 6.25,20.836 A 4.167,4.167 0.0 1,0 14.584,20.836 A 4.167,4.167 0.0 1,0 6.25,20.836" fill="#000000" r="4.167"/>
</svg>
