<?xml version="1.0" ?>
<svg xmlns="http://www.w3.org/2000/svg" xmlns:ev="http://www.w3.org/2001/xml-events" xmlns:xlink="http://www.w3.org/1999/xlink" baseProfile="full" enable-background="new 0 0 70.835 100" height="600px" version="1.1" viewBox="0 0 70.835 100" width="426px" x="0px" xml:space="preserve" y="0px">
	<defs/>
	<path d="M 46.695,0.0 L 0.0,0.0 L 0.0,100.0 L 70.835,100.0 L 70.835,24.136 L 46.695,0.0 M 47.916,7.111 L 63.723,22.915 L 47.916,22.915 L 47.916,7.111 M 66.669,95.833 L 4.167,95.833 L 4.167,4.167 L 43.749,4.167 L 43.749,27.083 L 66.66900000000001,27.083 L 66.66900000000001,95.833 L 66.669,95.833" fill="#000000"/>
	<path d="M 14.583,72.917 L 18.75,72.917 L 18.75,81.25 C 18.75,85.848 22.487000000000002,89.583 27.083,89.583 C 31.679,89.583 35.416,85.848 35.416,81.25 L 35.416,72.917 L 56.25,72.917 L 56.25,68.75 L 14.583,68.75 L 14.583,72.917 M 31.25,81.25 C 31.25,83.549 29.38,85.417 27.083,85.417 C 24.785999999999998,85.417 22.915999999999997,83.549 22.915999999999997,81.25 L 22.915999999999997,72.917 L 25.0,72.917 L 25.0,81.25 L 29.167,81.25 L 29.167,72.917 L 31.25,72.917 L 31.25,81.25" fill="#000000"/>
	<path d="M 16.057,51.472 L 20.833,46.695 L 25.611,51.472 L 28.557,48.526 L 23.78,43.75 L 28.557,38.972 L 25.611,36.026 L 20.833,40.803 L 16.057,36.026 L 13.111,38.972 L 17.888,43.75 L 13.111,48.526 L 16.057,51.472" fill="#000000" points="16.057,51.472 20.833,46.695 25.611,51.472 28.557,48.526 23.78,43.75 28.557,38.972 25.611,36.026   20.833,40.803 16.057,36.026 13.111,38.972 17.888,43.75 13.111,48.526 "/>
	<path d="M 47.055,43.75 L 42.278,48.526 L 45.224,51.472 L 50.001,46.695 L 54.777,51.472 L 57.724,48.526 L 52.946,43.75 L 57.724,38.972 L 54.777,36.026 L 50.001,40.803 L 45.224,36.026 L 42.278,38.972 L 47.055,43.75" fill="#000000" points="47.055,43.75 42.278,48.526 45.224,51.472 50.001,46.695 54.777,51.472 57.724,48.526 52.946,43.75   57.724,38.972 54.777,36.026 50.001,40.803 45.224,36.026 42.278,38.972 "/>
</svg>
