<?xml version="1.0" ?>
<svg xmlns="http://www.w3.org/2000/svg" xmlns:ev="http://www.w3.org/2001/xml-events" xmlns:xlink="http://www.w3.org/1999/xlink" baseProfile="full" enable-background="new 0 0 100 85.375" height="513px" version="1.1" viewBox="0 0 100 85.375" width="600px" x="0px" xml:space="preserve" y="0px">
	<defs/>
	<path d="M 98.577,54.165 C 99.18599999999999,51.599 99.878,48.686 99.986,46.612 C 100.11200000000001,44.115 99.37400000000001,41.711 98.72,39.59 C 98.301,38.228 97.905,36.943000000000005 97.905,36.094 C 97.905,35.246 98.301,33.961 98.72,32.598 C 99.373,30.477 100.112,28.073999999999998 99.986,25.573999999999998 C 99.878,23.502 99.186,20.589999999999996 98.577,18.023999999999997 C 98.298,16.848999999999997 98.038,15.752999999999997 97.869,14.875999999999998 C 97.676,13.876999999999997 98.05799999999999,12.057999999999998 98.395,10.452999999999998 C 99.115,7.038999999999998 99.928,3.1709999999999976 97.041,1.086999999999998 C 96.96,1.027999999999998 96.86399999999999,1.003999999999998 96.78099999999999,0.948999999999998 C 96.50699999999999,0.771999999999998 96.219,0.620999999999998 95.925,0.49699999999999794 C 95.782,0.43799999999999795 95.64099999999999,0.38099999999999795 95.494,0.33399999999999797 C 95.107,0.209 94.713,0.11 94.3,0.059 C 94.23,0.051 94.15599999999999,0.053 94.085,0.047 C 93.835,0.022 93.582,0.0 93.324,0.0 C 93.172,0.0 93.012,0.018 92.858,0.026 C 92.74900000000001,0.032 92.64,0.036 92.52900000000001,0.044 C 91.50600000000001,0.127 90.43,0.357 89.32400000000001,0.685 C 89.30000000000001,0.6910000000000001 89.275,0.6990000000000001 89.24900000000001,0.7070000000000001 C 87.492,1.229 85.66600000000001,1.972 83.86000000000001,2.7119999999999997 C 81.29600000000002,3.766 78.64800000000001,4.852 77.07800000000002,4.859 C 75.39400000000002,4.857 72.94200000000002,3.877 70.56700000000002,2.925 C 67.82600000000002,1.8289999999999997 64.98900000000002,0.694 62.505000000000024,0.694 C 59.931000000000026,0.694 57.590000000000025,1.865 55.32700000000003,2.996 C 53.413000000000025,3.952 51.605000000000025,4.857 50.01500000000003,4.859 C 48.42700000000003,4.857 46.61900000000003,3.952 44.70500000000003,2.996 C 42.44200000000003,1.866 40.10100000000003,0.694 37.52700000000003,0.694 C 35.04400000000003,0.694 32.20800000000003,1.829 29.46600000000003,2.925 C 27.09,3.878 24.634,4.86 22.952,4.86 C 21.384,4.86 18.724000000000004,3.7680000000000002 16.152,2.7130000000000005 C 13.673000000000002,1.6960000000000006 11.154,0.6710000000000007 8.834000000000001,0.23200000000000065 C 8.751000000000001,0.21600000000000064 8.669000000000002,0.21200000000000066 8.584000000000001,0.19800000000000065 C 8.027000000000001,0.10200000000000065 7.484000000000002,0.04800000000000065 6.955000000000002,0.031000000000000638 C 6.857,0.028 6.749,0.0 6.651,0.0 C 6.379,0.0 6.113,0.022 5.848,0.049 C 5.82,0.053 5.792,0.051 5.763,0.055 C 5.283,0.107 4.823,0.219 4.38,0.374 C 4.341,0.386 4.303,0.402 4.262,0.417 C 3.809,0.585 3.367,0.795 2.958,1.09 C 0.07000000000000028,3.1740000000000004 0.8840000000000003,7.042 1.604,10.456 C 1.941,12.059999999999999 2.324,13.881 2.132,14.879 C 1.9620000000000002,15.754999999999999 1.701,16.852 1.423,18.027 C 0.8130000000000001,20.593 0.12200000000000011,23.506 0.014000000000000012,25.580000000000002 C -0.11199999999999999,28.077 0.626,30.481 1.279,32.601 C 1.698,33.964 2.094,35.249 2.094,36.097 C 2.094,36.945 1.698,38.230000000000004 1.279,39.593 C 0.6259999999999999,41.714000000000006 -0.1120000000000001,44.118 0.014000000000000012,46.617000000000004 C 0.12200000000000001,48.68900000000001 0.8130000000000001,51.601000000000006 1.423,54.168000000000006 C 1.701,55.343 1.9620000000000002,56.43900000000001 2.1310000000000002,57.315000000000005 C 2.3240000000000003,58.31400000000001 1.9420000000000002,60.133 1.6050000000000002,61.73800000000001 C 0.8850000000000002,65.152 0.07100000000000017,69.02000000000001 2.9590000000000005,71.10400000000001 C 3.0410000000000004,71.16400000000002 3.1360000000000006,71.18800000000002 3.2190000000000003,71.24300000000001 C 3.4960000000000004,71.42000000000002 3.7810000000000006,71.57000000000001 4.075,71.694 C 4.2170000000000005,71.754 4.36,71.81 4.506,71.857 C 4.893000000000001,71.983 5.287,72.081 5.7,72.133 C 5.771,72.14099999999999 5.846,72.139 5.918,72.146 C 6.168,72.17 6.418,72.19200000000001 6.676,72.19200000000001 C 6.829,72.19200000000001 6.987,72.174 7.142,72.16600000000001 C 7.252000000000001,72.16000000000001 7.36,72.15800000000002 7.472,72.14800000000001 C 8.494,72.06400000000001 9.57,71.83300000000001 10.677,71.507 C 10.700999999999999,71.5 10.725999999999999,71.492 10.751999999999999,71.486 C 12.508999999999999,70.962 14.334999999999999,70.21900000000001 16.141,69.479 C 18.705,68.425 21.352999999999998,67.339 22.923,67.332 C 24.607,67.33399999999999 27.058999999999997,68.31299999999999 29.433999999999997,69.26599999999999 C 32.175,70.362 35.012,71.496 37.495,71.496 C 40.07,71.496 42.41,70.32499999999999 44.674,69.19399999999999 C 46.588,68.23799999999999 48.394999999999996,67.33399999999999 49.985,67.332 C 51.574,67.33399999999999 53.381,68.238 55.295,69.19399999999999 C 57.559000000000005,70.32499999999999 59.899,71.496 62.474000000000004,71.496 C 63.660000000000004,71.496 64.926,71.22699999999999 66.224,70.83999999999999 C 65.3,69.55899999999998 64.48700000000001,68.341 63.767,67.17499999999998 C 63.303000000000004,67.26899999999998 62.865,67.33199999999998 62.474000000000004,67.33199999999998 C 60.884,67.33199999999998 59.074000000000005,66.42699999999998 57.159000000000006,65.46899999999998 C 54.89900000000001,64.34099999999998 52.56100000000001,63.17099999999998 49.99100000000001,63.16699999999998 C 49.98800000000001,63.16699999999998 49.986000000000004,63.16699999999998 49.986000000000004,63.16699999999998 C 49.984,63.16699999999998 49.982000000000006,63.16699999999998 49.982000000000006,63.16699999999998 C 47.410000000000004,63.17099999999998 45.07300000000001,64.34099999999998 42.812000000000005,65.46899999999998 C 40.89600000000001,66.42699999999998 39.086000000000006,67.33199999999998 37.496,67.33199999999998 C 35.814,67.33199999999998 33.358000000000004,66.34999999999998 30.981,65.39699999999998 C 28.240000000000002,64.30099999999997 25.403000000000002,63.16699999999998 22.92,63.16699999999998 C 22.196,63.16699999999998 21.413,63.30199999999998 20.604000000000003,63.48799999999998 C 20.175000000000004,63.589999999999975 19.738000000000003,63.70399999999998 19.288000000000004,63.84199999999998 C 18.938000000000002,63.949999999999974 18.580000000000005,64.07199999999997 18.223000000000003,64.19999999999997 C 17.981,64.28499999999997 17.735000000000003,64.37299999999998 17.489000000000004,64.46499999999997 C 16.528000000000006,64.82399999999997 15.547000000000004,65.21299999999998 14.536000000000005,65.62799999999997 C 12.112000000000005,66.62199999999997 9.023000000000005,67.89299999999997 7.006000000000005,68.02899999999997 C 6.337000000000005,68.06999999999996 5.786000000000005,67.98599999999996 5.422000000000004,67.72099999999996 C 4.731000000000004,67.22299999999996 5.341000000000004,64.32499999999996 5.707000000000004,62.59299999999996 C 6.146000000000004,60.50599999999996 6.600000000000004,58.34699999999996 6.248000000000005,56.52299999999996 C 6.071000000000005,55.59799999999996 5.797000000000005,54.44099999999996 5.502000000000004,53.20299999999996 C 4.935000000000004,50.80699999999996 4.2900000000000045,48.09299999999996 4.203000000000005,46.39999999999996 C 4.111000000000005,44.63499999999996 4.709000000000005,42.69299999999996 5.289000000000005,40.816999999999965 C 5.8010000000000055,39.14499999999997 6.287000000000005,37.56899999999997 6.287000000000005,36.09499999999996 L 6.297000000000005,36.09499999999996 C 6.297000000000005,34.62099999999997 5.811000000000005,33.042999999999964 5.298000000000005,31.372999999999962 C 4.721000000000005,29.49399999999996 4.1230000000000055,27.55199999999996 4.212000000000005,25.79099999999996 C 4.297000000000005,24.10099999999996 4.9420000000000055,21.39499999999996 5.510000000000005,19.006999999999962 C 5.804000000000005,17.759999999999962 6.081000000000005,16.594999999999963 6.258000000000005,15.665999999999961 C 6.612000000000005,13.841999999999961 6.156000000000005,11.68299999999996 5.717000000000005,9.591999999999961 C 5.35,7.861 4.74,4.964 5.429,4.467 C 5.787,4.207 6.328,4.124 6.985,4.162 C 9.0,4.291 12.104,5.57 14.533,6.566 C 17.616,7.8309999999999995 20.526,9.027 22.917,9.027 C 22.925,9.027 22.936,9.024999999999999 22.946,9.024999999999999 L 22.952,9.024999999999999 C 25.435000000000002,9.024999999999999 28.272000000000002,7.890999999999998 31.013,6.794999999999998 C 33.39,5.842999999999998 35.846000000000004,4.860999999999998 37.528,4.860999999999998 C 39.118,4.860999999999998 40.928,5.765999999999998 42.844,6.723999999999998 C 45.103,7.8519999999999985 47.442,9.021999999999998 50.011,9.025999999999998 L 50.016000000000005,9.025999999999998 L 50.022000000000006,9.025999999999998 C 52.592000000000006,9.021999999999998 54.929,7.852999999999998 57.190000000000005,6.723999999999998 C 59.106,5.765999999999998 60.916000000000004,4.860999999999999 62.505,4.860999999999999 C 64.187,4.860999999999999 66.644,5.842999999999999 69.021,6.794999999999999 C 71.762,7.890999999999999 74.599,9.024999999999999 77.082,9.024999999999999 C 77.80499999999999,9.024999999999999 78.585,8.890999999999998 79.393,8.703999999999999 C 79.824,8.604 80.263,8.491 80.714,8.35 C 81.063,8.241999999999999 81.422,8.12 81.78,7.992 C 82.023,7.907 82.267,7.819 82.515,7.727 C 83.475,7.367 84.455,6.979 85.466,6.564 C 87.88799999999999,5.57 90.979,4.2989999999999995 92.994,4.163 C 93.665,4.12 94.216,4.205 94.58,4.470000000000001 C 95.271,4.968000000000001 94.661,7.8660000000000005 94.295,9.598 C 93.85600000000001,11.684000000000001 93.402,13.844000000000001 93.754,15.668000000000001 C 93.932,16.593 94.206,17.751 94.501,18.989 C 95.068,21.385 95.71300000000001,24.099 95.80000000000001,25.791 C 95.89200000000001,27.556 95.29400000000001,29.498 94.71400000000001,31.375 C 94.20100000000001,33.046 93.71600000000001,34.623 93.71600000000001,36.097 L 93.70500000000001,36.097 C 93.70500000000001,37.572 94.19100000000002,39.15 94.70400000000001,40.819 C 95.281,42.698 95.879,44.64 95.79,46.401 C 95.70400000000001,48.091 95.06,50.797000000000004 94.492,53.185 C 94.197,54.431000000000004 93.921,55.597 93.744,56.526 C 93.39,58.35 93.846,60.509 94.285,62.6 C 94.649,64.33 95.259,67.22800000000001 94.569,67.725 C 94.212,67.985 93.671,68.068 93.013,68.03 C 90.998,67.902 87.89500000000001,66.623 85.465,65.627 C 85.233,65.53099999999999 85.01100000000001,65.443 84.781,65.35 C 85.593,67.018 86.4,68.848 87.20100000000001,70.8 C 88.555,71.29599999999999 89.891,71.719 91.165,71.961 C 91.248,71.978 91.32900000000001,71.982 91.415,71.995 C 91.97200000000001,72.09100000000001 92.515,72.146 93.04400000000001,72.162 C 93.14200000000001,72.164 93.24900000000001,72.19200000000001 93.34700000000001,72.19200000000001 C 93.61900000000001,72.19200000000001 93.88400000000001,72.171 94.14800000000001,72.143 C 94.17600000000002,72.139 94.20800000000001,72.141 94.236,72.137 C 94.715,72.084 95.175,71.973 95.619,71.82000000000001 C 95.657,71.80600000000001 95.696,71.79 95.737,71.77600000000001 C 96.192,71.605 96.63199999999999,71.397 97.03999999999999,71.102 C 99.928,69.018 99.11399999999999,65.15 98.39399999999999,61.736000000000004 C 98.05699999999999,60.132000000000005 97.67399999999999,58.312000000000005 97.86599999999999,57.313 C 98.038,56.437 98.298,55.34 98.577,54.165" fill="#000000"/>
	<path d="M 81.729,68.627 C 81.721,68.60799999999999 81.711,68.591 81.703,68.57199999999999 C 81.268,67.633 80.833,66.73299999999999 80.4,65.88199999999999 C 80.39800000000001,65.88 80.39500000000001,65.87599999999999 80.39500000000001,65.874 C 79.96000000000001,65.02 79.52900000000001,64.20599999999999 79.102,63.437 C 79.09400000000001,63.425 79.08800000000001,63.413 79.081,63.400999999999996 C 79.065,63.37 79.047,63.345 79.03,63.315 C 78.52,62.402 78.015,61.553999999999995 77.519,60.754 C 77.47800000000001,60.687999999999995 77.438,60.623999999999995 77.397,60.562 C 76.893,59.754 76.397,59.001 75.91300000000001,58.306 L 75.91100000000002,58.303999999999995 C 72.85400000000001,53.919999999999995 70.27200000000002,51.63799999999999 68.96100000000001,50.657 C 68.31200000000001,51.684999999999995 67.44100000000002,52.580999999999996 66.37000000000002,53.288 C 65.24300000000002,54.025999999999996 63.99700000000002,54.465999999999994 62.72000000000002,54.611999999999995 C 62.97400000000002,55.739999999999995 63.50700000000002,57.52199999999999 64.53500000000003,59.812999999999995 C 64.55900000000003,59.86599999999999 64.58000000000003,59.916999999999994 64.60400000000003,59.971999999999994 C 64.83000000000003,60.46399999999999 65.08100000000003,60.983 65.35500000000003,61.523999999999994 C 65.39700000000003,61.608999999999995 65.43600000000004,61.68599999999999 65.47900000000003,61.773999999999994 C 65.79000000000003,62.37599999999999 66.13100000000003,63.001999999999995 66.50900000000003,63.660999999999994 C 66.51800000000003,63.67399999999999 66.52200000000003,63.68299999999999 66.52800000000003,63.69299999999999 C 67.51600000000003,65.404 68.78300000000003,67.31099999999999 70.31000000000003,69.35 C 70.30800000000004,69.353 70.30400000000003,69.35499999999999 70.30200000000004,69.35499999999999 C 70.41300000000004,69.505 70.54200000000003,69.66199999999999 70.65700000000004,69.814 C 70.97200000000004,70.22699999999999 71.28400000000003,70.63799999999999 71.62600000000003,71.06299999999999 C 72.12800000000003,71.69299999999998 72.65800000000003,72.335 73.22000000000003,72.993 C 73.50700000000003,73.32799999999999 73.81800000000003,73.67399999999999 74.12100000000002,74.015 C 74.55000000000003,74.501 74.99300000000002,74.992 75.45200000000003,75.488 C 75.74900000000002,75.807 76.04000000000002,76.123 76.34900000000003,76.446 C 77.10500000000003,77.237 77.89400000000003,78.03999999999999 78.73400000000004,78.859 C 78.92000000000004,79.041 79.12300000000003,79.22699999999999 79.31200000000004,79.40899999999999 C 80.05800000000004,80.12499999999999 80.83600000000004,80.85 81.65000000000003,81.585 C 81.93500000000003,81.84299999999999 82.22200000000004,82.1 82.51400000000004,82.359 C 83.54500000000004,83.27199999999999 84.61100000000003,84.195 85.75400000000003,85.137 C 85.94400000000003,85.295 86.18100000000004,85.374 86.41600000000004,85.374 C 86.61500000000004,85.374 86.81400000000004,85.317 86.99000000000004,85.20299999999999 C 87.37000000000003,84.951 87.54300000000003,84.47899999999998 87.41500000000003,84.03999999999999 C 85.621,77.892 83.673,72.828 81.729,68.627" fill="#000000"/>
	<path d="M 20.162,54.141 L 18.743,54.141 L 18.743,35.399 L 18.743,16.659 L 31.226999999999997,16.659 L 33.309999999999995,22.906 L 39.556999999999995,27.070999999999998 L 35.391999999999996,33.318 L 41.638999999999996,43.73 L 41.638999999999996,33.317 L 45.803999999999995,27.07 L 41.638999999999996,16.658 L 49.977999999999994,16.658 L 85.377,16.658 L 85.377,35.399 L 85.377,54.14 L 78.024,54.14 C 78.943,55.348 79.9,56.733000000000004 80.888,58.304 L 85.376,58.304 C 87.67200000000001,58.304 89.54100000000001,56.436 89.54100000000001,54.14 L 89.54100000000001,35.399 L 89.54100000000001,16.659 C 89.54100000000001,14.363 87.67200000000001,12.494 85.376,12.494 L 52.06,12.494 L 18.743,12.494 C 16.447,12.494 14.578,14.363 14.578,16.659 L 14.578,35.4 L 14.578,54.141 C 14.578,56.437 16.447,58.305 18.743,58.305 L 21.918999999999997,58.305 L 59.452,58.305 C 58.785,56.342999999999996 58.507999999999996,54.93 58.397999999999996,54.141 L 20.162,54.141" fill="#000000"/>
	<path d="M 58.398,54.141 L 59.063,54.141 C 58.832,54.055 58.591,54.004 58.364000000000004,53.900999999999996 C 58.372,53.966 58.389,54.065 58.398,54.141" fill="#000000"/>
	<path d="M 55.535,35.46 C 55.419,35.419000000000004 55.302,35.399 55.183,35.399 C 54.862,35.399 54.548,35.549 54.347,35.82 C 54.075,36.188 54.075,36.693 54.347,37.06 C 54.988,37.927 56.562,40.611000000000004 56.155,42.591 C 55.807,44.285000000000004 56.546,46.67 57.951,48.393 C 58.439,48.991 58.980000000000004,49.449 59.545,49.8 C 60.274,50.253 61.042,50.516 61.816,50.516 C 62.603,50.516 63.366,50.275999999999996 64.086,49.803999999999995 C 65.398,48.94 66.079,47.553 66.096,45.95399999999999 C 66.10000000000001,45.714999999999996 66.13000000000001,45.483999999999995 66.10000000000001,45.23599999999999 C 65.737,42.214 62.772,38.057 55.535,35.46" fill="#000000"/>
</svg>
