<?xml version="1.0" ?>
<svg xmlns="http://www.w3.org/2000/svg" xmlns:ev="http://www.w3.org/2001/xml-events" xmlns:xlink="http://www.w3.org/1999/xlink" baseProfile="full" enable-background="new 0 0 100 100" height="600px" version="1.1" viewBox="0 0 100 100" width="518px" x="0px" xml:space="preserve" y="0px">
	<defs/>
	<path d="M 62.88,17.938 C 62.88,21.726 63.009,25.023 63.298,25.927 L 63.943000000000005,26.602999999999998 C 65.321,28.043 67.037,29.836 68.238,31.374 C 69.843,33.431 70.027,38.092 70.049,39.004999999999995 C 70.03,41.181 69.605,91.221 69.492,93.064 C 69.473,93.372 69.441,93.65899999999999 69.4,93.93599999999999 C 82.34200000000001,86.874 91.12400000000001,73.145 91.12400000000001,57.361999999999995 C 91.123,39.054 79.303,23.517 62.88,17.938"/>
	<path d="M 43.436,78.35 C 42.459,79.10799999999999 41.556,79.985 41.41,80.33399999999999 C 41.092999999999996,81.55899999999998 40.928999999999995,92.96099999999998 41.06999999999999,94.154 C 41.108999999999995,94.316 41.141999999999996,94.383 41.14399999999999,94.38499999999999 C 41.19299999999999,94.44999999999999 41.26899999999999,94.50999999999999 41.35999999999999,94.597 C 41.46499999999999,94.69 41.96699999999999,94.939 42.754999999999995,95.05799999999999 C 43.016,95.098 43.49099999999999,95.15599999999999 44.028999999999996,95.217 C 43.806,94.581 43.68,93.881 43.63099999999999,93.063 C 43.591,92.44 43.517,86.291 43.436,78.35"/>
	<path d="M 36.192,94.596 C 36.281,94.51100000000001 36.356,94.45100000000001 36.411,94.376 C 36.410000000000004,94.376 36.442,94.305 36.494,94.074 C 36.621,92.96 36.456,81.55799999999999 36.113,80.262 C 35.972,79.935 34.817,78.847 33.714999999999996,78.053 C 33.483999999999995,77.88 28.588999999999995,74.142 28.137999999999998,67.636 C 27.714,61.513 30.892,51.916 31.026999999999997,51.50999999999999 C 31.231999999999996,50.89799999999999 31.804,50.48599999999999 32.449999999999996,50.48599999999999 L 43.172999999999995,50.48599999999999 C 43.117,44.23899999999999 43.07899999999999,39.66499999999999 43.07299999999999,39.05199999999999 C 43.093999999999994,38.09299999999999 43.276999999999994,33.43099999999999 44.882999999999996,31.37399999999999 C 46.086999999999996,29.83299999999999 47.80499999999999,28.03899999999999 49.184999999999995,26.595999999999993 L 49.82299999999999,25.927999999999994 C 50.166,24.849999999999994 50.28399999999999,20.376999999999995 50.227,15.742999999999993 C 49.979,15.738999999999994 49.733999999999995,15.723999999999993 49.485,15.723999999999993 C 26.489,15.723999999999993 7.847000000000001,34.36599999999999 7.847000000000001,57.361999999999995 C 7.847000000000001,74.27499999999999 17.934,88.822 32.416,95.34 C 33.346999999999994,95.239 34.36,95.125 34.794,95.059 C 35.582,94.939 36.084,94.69 36.192,94.596"/>
	<path d="M 67.055,32.297 C 65.674,30.528999999999996 63.574000000000005,28.397999999999996 62.08200000000001,26.826999999999998 C 61.031000000000006,25.721999999999998 61.47400000000001,12.072999999999999 61.47400000000001,12.072999999999999 L 61.47400000000001,6.105 C 61.47400000000001,6.105 61.75100000000001,3.3420000000000005 61.03200000000001,2.5680000000000005 C 60.31400000000001,1.7950000000000004 52.80800000000001,1.7950000000000004 52.09100000000001,2.5680000000000005 C 51.37100000000001,3.3420000000000005 51.64900000000001,6.105 51.64900000000001,6.105 L 51.64900000000001,12.073 C 51.64900000000001,12.073 52.09100000000001,25.722 51.04100000000001,26.826999999999998 C 49.549000000000014,28.398 47.45000000000001,30.528999999999996 46.06800000000001,32.297 C 44.68700000000001,34.065999999999995 44.576000000000015,39.038999999999994 44.576000000000015,39.038999999999994 C 44.576000000000015,39.038999999999994 44.61700000000001,43.797999999999995 44.676000000000016,50.48499999999999 L 45.10200000000002,50.48499999999999 C 45.74800000000002,50.48499999999999 46.32000000000002,50.89799999999999 46.52500000000002,51.50899999999999 C 46.66000000000002,51.91499999999999 49.83700000000002,61.51199999999999 49.41400000000002,67.63499999999999 C 49.08800000000002,72.335 46.44800000000002,75.58099999999999 44.92600000000002,77.085 C 45.01200000000002,85.597 45.09100000000002,92.336 45.130000000000024,92.972 C 45.19200000000002,93.999 45.38400000000002,94.743 45.761000000000024,95.407 C 46.468000000000025,95.482 47.01500000000002,95.538 47.029000000000025,95.53999999999999 C 47.79500000000002,95.618 48.377000000000024,96.26299999999999 48.377000000000024,97.032 L 48.377000000000024,97.714 C 49.773000000000025,98.317 51.42900000000002,98.61 51.42900000000002,98.61 L 61.69900000000003,98.61 C 61.69900000000003,98.61 64.84900000000003,98.057 66.12000000000003,96.897 C 67.39100000000003,95.73700000000001 67.88800000000003,94.796 67.99800000000003,92.973 C 68.10900000000004,91.149 68.55200000000004,39.039 68.55200000000004,39.039 C 68.55200000000004,39.039 68.436,34.066 67.055,32.297"/>
	<path d="M 42.957,76.835 C 42.957,76.835 47.507,73.428 47.915,67.532 C 48.321999999999996,61.635999999999996 45.1,51.985 45.1,51.985 L 32.45,51.985 C 32.45,51.985 29.227000000000004,61.635 29.635,67.532 C 30.043000000000003,73.428 34.592,76.835 34.592,76.835 C 34.592,76.835 37.061,78.61 37.53,79.773 C 37.999,80.93599999999999 38.122,93.666 37.959,94.39999999999999 C 37.79600000000001,95.13499999999999 37.632000000000005,95.297 37.224000000000004,95.68499999999999 C 36.81700000000001,96.073 35.959,96.39999999999999 35.021,96.54199999999999 C 34.083,96.68399999999998 30.677,97.03199999999998 30.677,97.03199999999998 L 30.677,97.82699999999998 L 46.873999999999995,97.82699999999998 L 46.873999999999995,97.03199999999998 C 46.873999999999995,97.03199999999998 43.467,96.68399999999998 42.528999999999996,96.54199999999999 C 41.589999999999996,96.39899999999999 40.733999999999995,96.07199999999999 40.324999999999996,95.68499999999999 C 39.918,95.29699999999998 39.754,95.13499999999999 39.590999999999994,94.39999999999999 C 39.428,93.666 39.55,80.93499999999999 40.019999999999996,79.773 C 40.488,78.61 42.957,76.835 42.957,76.835"/>
</svg>
