<?xml version="1.0" ?>
<svg xmlns="http://www.w3.org/2000/svg" xmlns:ev="http://www.w3.org/2001/xml-events" xmlns:xlink="http://www.w3.org/1999/xlink" baseProfile="full" enable-background="new 0 0 100 100" height="596px" version="1.1" viewBox="0 0 100 100" width="600px" x="0px" xml:space="preserve" y="0px">
	<defs/>
	<path d="M 91.275,31.958 L 59.0,31.958 L 59.0,94.64699999999999 L 91.275,94.64699999999999 C 93.33200000000001,94.64699999999999 95.0,92.981 95.0,90.92299999999999 L 95.0,35.683 C 95.0,33.626 93.332,31.958 91.275,31.958" fill="#000000"/>
	<path d="M 42.242,31.958 L 8.724,31.958 C 6.667,31.958 5.0,33.626 5.0,35.683 L 5.0,90.924 C 5.0,92.982 6.667,94.64800000000001 8.724,94.64800000000001 L 42.242000000000004,94.64800000000001 L 42.242000000000004,31.958 L 42.242,31.958" fill="#000000"/>
	<path d="M 46.456,27.499 C 43.709,31.563 36.082,31.209 29.42,26.706 C 22.758000000000003,22.205 19.924,11.277999999999999 21.343000000000004,8.364999999999998 C 22.396000000000004,6.199999999999998 32.705000000000005,7.485999999999999 39.367000000000004,11.988999999999999 C 46.028,16.49 49.202,23.435 46.456,27.499" fill="#000000"/>
	<path d="M 53.696,29.411 C 49.864,26.348000000000003 50.827999999999996,18.774 55.849,12.494 C 60.872,6.213 71.989,4.263999999999999 74.779,5.909 C 76.853,7.134 74.747,17.307 69.725,23.587 C 64.704,29.868 57.527,32.472 53.696,29.411" fill="#000000"/>
</svg>
