<?xml version="1.0" ?>
<svg xmlns="http://www.w3.org/2000/svg" xmlns:ev="http://www.w3.org/2001/xml-events" xmlns:xlink="http://www.w3.org/1999/xlink" baseProfile="full" enable-background="new 0 0 100 84.797" height="509px" version="1.1" viewBox="0 0 100 84.797" width="600px" x="0px" xml:space="preserve" y="0px">
	<defs/>
	<path d="M 20.222,80.867 C 29.328000000000003,80.867 36.717,73.47800000000001 36.717,64.361 C 36.717,55.266000000000005 29.329,47.878 20.221999999999998,47.878 C 11.138999999999998,47.878 3.7499999999999964,55.267 3.7499999999999964,64.361 C 3.75,73.479 11.139,80.867 20.222,80.867 M 0.0,64.361 C 0.0,53.189 9.072,44.15 20.222,44.15 C 31.406,44.15 40.467,53.189 40.467,64.36099999999999 C 40.467,75.54499999999999 31.406,84.594 20.221999999999998,84.594 C 9.072,84.595 0.0,75.545 0.0,64.361"/>
	<path d="M 79.777,81.058 C 88.861,81.058 96.25,73.68100000000001 96.25,64.56400000000001 C 96.25,55.458000000000006 88.861,48.081 79.777,48.081 C 70.672,48.081 63.283,55.458000000000006 63.283,64.56400000000001 C 63.283,73.681 70.672,81.058 79.777,81.058 M 59.533,64.563 C 59.533,53.379000000000005 68.605,44.34 79.777,44.34 C 90.927,44.34 100.0,53.379000000000005 100.0,64.563 C 100.0,75.747 90.928,84.796 79.777,84.796 C 68.605,84.797 59.533,75.747 59.533,64.563"/>
	<path d="M 59.589,15.203 C 63.789,15.203 67.201,11.812 67.201,7.6129999999999995 C 67.201,3.4129999999999994 63.788999999999994,-8.881784197001252e-16 59.58899999999999,-8.881784197001252e-16 C 55.38999999999999,-8.881784197001252e-16 51.97699999999999,3.4139999999999993 51.97699999999999,7.6129999999999995 C 51.977,11.812 55.39,15.203 59.589,15.203"/>
	<path d="M 59.903,33.663 C 58.802,33.684999999999995 57.613,33.135 56.736,31.753999999999998 L 51.797,24.028999999999996 L 41.602,34.123 L 51.056,39.098 C 54.940999999999995,40.961999999999996 54.357,44.375 54.357,44.375 L 54.357,65.776 C 54.357,68.201 52.403,70.17699999999999 49.978,70.17699999999999 C 47.553000000000004,70.17699999999999 45.599000000000004,68.19999999999999 45.599000000000004,65.776 L 45.599000000000004,48.642 L 29.205000000000005,39.536 C 27.251000000000005,38.447 25.926000000000005,36.358000000000004 25.926000000000005,33.978 C 25.926000000000005,32.338 26.532000000000007,30.833000000000002 27.565000000000005,29.711000000000002 L 43.644000000000005,13.598000000000003 C 45.64300000000001,11.341000000000003 48.42700000000001,11.701000000000002 48.42700000000001,11.701000000000002 C 51.79600000000001,11.701000000000002 53.57000000000001,14.643000000000002 53.57000000000001,14.643000000000002 L 61.92400000000001,27.735000000000003 L 74.613,27.713000000000005 C 79.172,27.713000000000005 79.172,33.664 74.613,33.664 L 59.903,33.664 L 59.903,33.663"/>
</svg>
