<?xml version="1.0" ?>
<svg xmlns="http://www.w3.org/2000/svg" xmlns:ev="http://www.w3.org/2001/xml-events" xmlns:xlink="http://www.w3.org/1999/xlink" baseProfile="full" enable-background="new 0 0 100 95.286" height="600px" version="1.1" viewBox="0 0 100 95.286" width="121px" x="0px" xml:space="preserve" y="0px">
	<defs/>
	<path d="M 50.09,0.004 C 47.152,-0.087 44.160000000000004,1.343 42.587,4.441999999999999 C 39.759,10.012999999999998 35.81,17.189999999999998 35.81,17.189999999999998 L 29.073,29.937999999999995 L 22.296,42.726 L 15.518999999999998,55.473 L 8.781,68.259 L 2.004,81.006 C -0.05900000000000016,84.903 -0.601,88.43299999999999 0.7130000000000001,91.09100000000001 C 2.027,93.75000000000001 5.142,95.182 9.547,95.12500000000001 C 17.957,95.01200000000001 22.98,95.16600000000001 22.98,95.16600000000001 L 23.021,95.16600000000001 L 36.495000000000005,95.16600000000001 L 49.96900000000001,95.20500000000001 L 63.44300000000001,95.24500000000002 L 76.91700000000002,95.24500000000002 C 76.91700000000002,95.24500000000002 82.46100000000001,95.26600000000002 90.39100000000002,95.28500000000003 C 94.54000000000002,95.29800000000003 97.69500000000002,93.99300000000002 99.14400000000002,91.41300000000003 C 100.59400000000002,88.83400000000003 100.20400000000002,85.32100000000003 97.97500000000002,81.20700000000002 C 93.68300000000002,73.28500000000003 91.23800000000003,68.41900000000003 91.23800000000003,68.41900000000003 L 84.54,55.633 L 77.80300000000001,42.845 L 71.10700000000001,30.057 L 64.41,17.27 L 64.36999999999999,17.23 C 64.34199999999998,17.172 60.69899999999999,9.451 57.63299999999999,4.402000000000001 C 55.953,1.634 53.027,0.096 50.09,0.004 L 50.09,0.004 M 50.009,1.779 C 52.344,1.8519999999999999 54.751,3.107 56.101,5.329 C 59.082,10.239 62.757,18.036 62.757,18.036 L 62.797,18.076 L 69.493,30.864 L 76.229,43.652 L 82.926,56.480000000000004 L 89.622,69.227 L 89.662,69.268 C 89.68,69.304 92.07100000000001,74.143 96.358,82.055 C 98.42500000000001,85.87200000000001 98.592,88.74300000000001 97.568,90.56800000000001 C 96.545,92.39000000000001 94.16799999999999,93.47900000000001 90.388,93.47200000000001 C 82.458,93.45100000000001 76.914,93.43100000000001 76.914,93.43100000000001 L 63.442,93.43100000000001 L 49.968,93.39200000000001 L 36.495,93.39200000000001 L 23.020999999999997,93.352 C 23.020999999999997,93.352 17.945999999999998,93.199 9.506999999999998,93.312 C 5.487999999999998,93.362 3.2589999999999977,92.173 2.325999999999998,90.28699999999999 C 1.3929999999999978,88.39899999999999 1.7029999999999978,85.469 3.6169999999999978,81.85499999999999 L 10.352999999999998,69.10799999999999 L 17.13,56.31999999999999 L 23.907,43.57299999999999 L 30.643,30.784999999999993 L 37.42,18.036999999999992 C 37.42,18.036999999999992 41.347,10.862999999999992 44.197,5.248999999999992 C 45.463,2.7549999999999915 47.67100000000001,1.7069999999999919 50.006,1.7799999999999918 L 50.006,1.779 L 50.009,1.779" fill="#010101"/>
	<path d="M 51.541,452.307 C 54.282,452.36400000000003 56.458999999999996,454.632 56.401999999999994,457.374 C 56.34499999999999,460.11600000000004 54.07699999999999,462.291 51.334999999999994,462.235 C 48.593999999999994,462.178 46.416999999999994,459.91 46.474,457.168 C 46.531,454.428 48.797,452.252 51.537,452.307" fill="#010101"/>
	<path d="M 61.501,471.245 C 64.242,471.302 66.419,473.57 66.362,476.312 C 66.30499999999999,479.053 64.03699999999999,481.229 61.294999999999995,481.173 C 58.553,481.116 56.376999999999995,478.848 56.434,476.106 C 56.489999999999995,473.366 58.757,471.19 61.495999999999995,471.245" fill="#010101"/>
	<path d="M 41.315,471.245 C 44.056,471.302 46.232,473.57 46.175,476.312 C 46.117999999999995,479.053 43.849999999999994,481.229 41.108,481.173 C 38.366,481.116 36.19,478.848 36.247,476.106 C 36.304,473.366 38.57,471.19 41.31,471.245" fill="#010101"/>
	<path d="M 51.408,471.245 C 54.15,471.302 56.326,473.57 56.269,476.312 C 56.211999999999996,479.053 53.943999999999996,481.229 51.202999999999996,481.173 C 48.461,481.116 46.285,478.848 46.342,476.106 C 46.399,473.366 48.665,471.19 51.405,471.245" fill="#010101"/>
	<path d="M 46.366,461.285 C 49.107,461.34200000000004 51.284,463.61 51.227,466.351 C 51.169999999999995,469.093 48.901999999999994,471.269 46.16,471.212 C 43.419,471.155 41.242999999999995,468.887 41.299,466.145 C 41.356,463.405 43.622,461.229 46.362,461.284" fill="#010101"/>
	<path d="M 56.459,461.285 C 59.201,461.34200000000004 61.377,463.61 61.32,466.351 C 61.263,469.093 58.995,471.269 56.253,471.212 C 53.511,471.155 51.335,468.887 51.392,466.145 C 51.449000000000005,463.405 53.716,461.229 56.456,461.284" fill="#010101"/>
	<path d="M 56.323,480.766 C 59.064,480.82300000000004 61.241,483.091 61.184,485.833 C 61.126999999999995,488.574 58.858999999999995,490.75 56.117,490.69300000000004 C 53.375,490.63700000000006 51.199,488.36800000000005 51.256,485.62700000000007 C 51.313,482.8860000000001 53.58,480.71100000000007 56.32,480.7660000000001" fill="#010101"/>
	<path d="M 66.416,480.766 C 69.157,480.82300000000004 71.333,483.091 71.277,485.833 C 71.219,488.574 68.95100000000001,490.75 66.21000000000001,490.69300000000004 C 63.46800000000001,490.63700000000006 61.29200000000001,488.36800000000005 61.34900000000001,485.62700000000007 C 61.40500000000001,482.8860000000001 63.671000000000014,480.71100000000007 66.41100000000002,480.7660000000001" fill="#010101"/>
	<path d="M 36.137,480.766 C 38.879,480.82300000000004 41.055,483.091 40.998,485.833 C 40.940999999999995,488.574 38.672999999999995,490.75 35.931,490.69300000000004 C 33.19,490.63700000000006 31.013999999999996,488.36800000000005 31.069999999999997,485.62700000000007 C 31.126999999999995,482.8860000000001 33.392999999999994,480.71100000000007 36.132999999999996,480.7660000000001" fill="#010101"/>
	<path d="M 46.23,480.766 C 48.971,480.82300000000004 51.147,483.091 51.090999999999994,485.833 C 51.03399999999999,488.574 48.76599999999999,490.75 46.023999999999994,490.69300000000004 C 43.282999999999994,490.63700000000006 41.10699999999999,488.36800000000005 41.163,485.62700000000007 C 41.22,482.8860000000001 43.486,480.71100000000007 46.226,480.7660000000001" fill="#010101"/>
	<path d="M 40.926,490.135 C 43.667,490.192 45.843,492.46 45.786,495.202 C 45.729,497.943 43.461,500.11899999999997 40.719,500.062 C 37.977000000000004,500.00600000000003 35.801,497.737 35.858000000000004,494.99600000000004 C 35.915000000000006,492.25600000000003 38.181000000000004,490.08000000000004 40.92100000000001,490.13500000000005" fill="#010101"/>
	<path d="M 30.833,490.135 C 33.574999999999996,490.192 35.751,492.46 35.693999999999996,495.202 C 35.63699999999999,497.943 33.36899999999999,500.11899999999997 30.626999999999995,500.062 C 27.885999999999996,500.00600000000003 25.708999999999996,497.737 25.766999999999996,494.99600000000004 C 25.823999999999995,492.25600000000003 28.089999999999996,490.08000000000004 30.829999999999995,490.13500000000005" fill="#010101"/>
	<path d="M 51.019,490.135 C 53.760999999999996,490.192 55.937,492.46 55.879999999999995,495.202 C 55.82299999999999,497.943 53.55499999999999,500.11899999999997 50.81399999999999,500.062 C 48.071999999999996,500.00600000000003 45.895999999999994,497.737 45.952999999999996,494.99600000000004 C 46.01,492.25600000000003 48.275999999999996,490.08000000000004 51.016,490.13500000000005" fill="#010101"/>
	<path d="M 61.112,490.135 C 63.853,490.192 66.03,492.46 65.973,495.202 C 65.916,497.943 63.647999999999996,500.11899999999997 60.906,500.062 C 58.164,500.00600000000003 55.988,497.737 56.045,494.99600000000004 C 56.101,492.25600000000003 58.368,490.08000000000004 61.107,490.13500000000005" fill="#010101"/>
	<path d="M 71.205,490.135 C 73.946,490.192 76.122,492.46 76.066,495.202 C 76.009,497.943 73.74000000000001,500.11899999999997 70.999,500.062 C 68.258,500.00600000000003 66.082,497.737 66.139,494.99600000000004 C 66.195,492.25600000000003 68.46199999999999,490.08000000000004 71.202,490.13500000000005" fill="#010101"/>
</svg>
