<?xml version="1.0" ?>
<svg xmlns="http://www.w3.org/2000/svg" xmlns:cc="http://creativecommons.org/ns#" xmlns:dc="http://purl.org/dc/elements/1.1/" xmlns:ev="http://www.w3.org/2001/xml-events" xmlns:inkscape="http://www.inkscape.org/namespaces/inkscape" xmlns:rdf="http://www.w3.org/1999/02/22-rdf-syntax-ns#" xmlns:sodipodi="http://sodipodi.sourceforge.net/DTD/sodipodi-0.dtd" xmlns:svg="http://www.w3.org/2000/svg" xmlns:xlink="http://www.w3.org/1999/xlink" baseProfile="full" height="511px" version="1.1" viewBox="0 0 80 80" width="600px" x="0px" y="0px">
	<defs/>
	<path d="M 29.465723,24.372336 L 22.553225,24.143939 C 22.074533000000002,24.128159 21.667651000000003,24.766531999999998 21.640929,25.575344 L 20.893268,48.204431 C 20.866518,49.013214 21.230404,49.677104 21.709087,49.692913 L 28.621584,49.921282999999995 C 29.100274,49.937062999999995 29.507158999999998,49.298688999999996 29.53388,48.48987699999999 L 30.281549,25.86081799999999 C 30.308298999999998,25.05200899999999 29.944415,24.38814499999999 29.465722999999997,24.37233899999999 L 29.465723,24.372336" fill="#000000" fill-opacity="1" stroke="none"/>
	<path d="M 20.877205,17.977685 C 20.877205,21.002976 23.329679,23.455442 26.354967000000002,23.455442 C 29.380252000000002,23.455442 31.832726,21.002976 31.832726,17.977685 C 31.832726,14.952395000000001 29.380252000000002,12.499929000000002 26.354967000000002,12.499929000000002 C 23.329679000000002,12.499929000000002 20.877205000000004,14.952395000000001 20.877205000000004,17.977685 L 20.877205,17.977685" fill="#000000" fill-opacity="1" stroke="none"/>
	<path d="M 29.070848,24.53451 C 29.616909000000003,24.269647000000003 30.267445000000002,24.49518 30.532367,25.041173 L 34.749659,33.733985000000004 L 34.771329,33.778665000000004 C 35.177719,34.675505 34.796479,35.73747 33.905191,36.169811 C 33.014017,36.602152000000004 31.943890000000003,36.244451000000005 31.491020000000002,35.370114 C 31.483520000000002,35.356744 31.476300000000002,35.340144 31.469350000000002,35.325434 L 27.252058,26.632622 C 26.987142000000002,26.086550000000003 27.212648,25.436005 27.758724,25.17109 L 29.070847,24.53451 L 29.070848,24.53451" fill="#000000" fill-opacity="1" stroke="none"/>
	<path d="M 32.073911,33.704927 C 32.734716000000006,32.975674999999995 33.852998,32.905062 34.599765000000005,33.533623 C 34.617955,33.547533 34.63133500000001,33.563213 34.649905000000004,33.577663 L 41.625378000000005,39.898391000000004 C 42.075053000000004,40.305965 42.108292000000006,40.993942000000004 41.701468000000006,41.443374000000006 L 40.722202,42.52407900000001 C 40.314653,42.97382900000001 39.626990000000006,43.007718000000004 39.177227,42.600139000000006 L 32.201757,36.27942 C 32.185707,36.2639 32.167807,36.25103 32.151617,36.23538 C 31.452744000000003,35.554006 31.413076,34.434205999999996 32.073927000000005,33.704932 L 32.073911,33.704927" fill="#000000" fill-opacity="1" stroke="none"/>
	<path d="M 27.456605,46.605154 C 27.975055,46.289515 28.658221,46.443802 28.973768,46.962226 L 33.884952,55.031538 L 33.893851999999995,55.046788 C 34.730453,56.438715 34.302477999999994,58.231983 32.92732099999999,59.068937 C 31.552159999999994,59.905922 29.748550999999992,59.470873999999995 28.89652599999999,58.088259 C 28.89392599999999,58.083159 28.89072599999999,58.078139 28.88762599999999,58.073009 L 23.97644599999999,50.003698 C 23.66091499999999,49.485233 23.823681999999987,48.816231 24.34212199999999,48.500672 L 27.45660199999999,46.605124 L 27.456605,46.605154" fill="#000000" fill-opacity="1" stroke="none"/>
	<path d="M 30.41542,54.700599 C 31.856034,53.969702 33.612953000000005,54.55645 34.351241,56.011641 L 40.732147000000005,68.588832 C 41.006752000000006,69.130096 40.778057000000004,69.79203199999999 40.236819000000004,70.066649 L 36.985354,71.71621999999999 C 36.444109,71.99085099999999 35.78965,71.77691999999999 35.51506,71.23567499999999 L 29.134155,58.658484 C 28.395863,57.20329 28.974783,55.43148 30.41542,54.700599" fill="#000000" fill-opacity="1" stroke="none"/>
	<path d="M 25.868054,49.054629 C 26.37099,49.394360999999996 26.515624000000003,50.079608 26.17588,50.582542 L 20.888041,58.410208999999995 L 20.878641000000002,58.42465899999999 C 19.962104,59.76530399999999 18.153646000000002,60.12375999999999 16.819664000000003,59.22262799999999 C 15.485678000000004,58.32147199999999 15.129393000000004,56.500654999999995 16.030974000000004,55.14991599999999 C 16.033874000000004,55.147015999999994 16.037174000000004,55.14131599999999 16.040374000000003,55.135465999999994 L 21.328205000000004,47.307773999999995 C 21.667960000000004,46.804863 22.343915000000003,46.673939 22.846838000000005,47.013594999999995 L 25.868046000000007,49.05452 L 25.868054,49.054629" fill="#000000" fill-opacity="1" stroke="none"/>
	<path d="M 19.923074,55.119759 C 21.133097,56.190011 21.23459,58.03953 20.153505,59.2618 L 10.80988,69.825796 C 10.407769,70.280423 9.7081202,70.31156899999999 9.2535122,69.90945599999999 L 6.5225072,67.493948 C 6.0678722,67.091847 6.0257532,66.404617 6.4279582,65.949982 L 15.771579,55.385984 C 16.852673,54.163716 18.71315,54.049501 19.923178,55.119757 L 19.923074,55.119759" fill="#000000" fill-opacity="1" stroke="none"/>
	<path d="M 17.120609,35.318399 C 16.277298000000002,34.811151 15.991672000000001,33.727633 16.463902,32.873402999999996 C 16.473992000000003,32.85275299999999 16.486842,32.83670299999999 16.497412,32.815703 L 21.349319,24.749243999999997 C 21.662209,24.229212999999998 22.330753,24.063512999999997 22.850399000000003,24.375728999999996 L 24.100130000000004,25.127430999999998 C 24.620227000000003,25.440274999999996 24.786522000000005,26.108413999999996 24.473661000000003,26.628522999999998 L 19.621738000000004,34.694961 C 19.609628000000004,34.713751 19.600458000000003,34.733771 19.588228000000004,34.752660999999996 C 19.054924000000003,35.570144 17.963953000000004,35.825694 17.120608000000004,35.318400999999994 L 17.120609,35.318399" fill="#000000" fill-opacity="1" stroke="none"/>
	<path d="M 15.406659,44.575219 C 14.808553,44.472077999999996 14.411482,43.909609999999994 14.514643,43.311468999999995 L 16.156424,33.79017999999999 L 16.164924000000003,33.74117999999999 C 16.357626000000003,32.775608999999996 17.286598,32.135175999999994 18.262712000000004,32.30346699999999 C 19.238815000000002,32.47178699999999 19.899670000000004,33.38634299999999 19.757928000000003,34.36065599999999 C 19.755828000000005,34.37641599999999 19.752228000000002,34.39366599999999 19.749428,34.40963599999999 L 18.107648,43.930921999999995 C 18.004509000000002,44.52904099999999 17.442019000000002,44.926086 16.843903,44.822934999999994 L 15.40666,44.575222 L 15.406659,44.575219" fill="#000000" fill-opacity="1" stroke="none"/>
	<path d="M 51.25,50.28125 L 51.0625,50.46875 L 50.375,51.21875 L 50.25,51.375 L 50.4375,51.5625 L 91.09375,88.09375 L 92.125,87.0 L 51.40625,50.4375 L 51.25,50.28125 M 51.25,50.96875 L 72.75,70.25 L 72.4375,70.625 L 50.9375,51.375 L 51.25,50.96875" display="inline" fill="#000000" fill-opacity="1" marker="none" overflow="visible" stroke="none" style="text-indent:0;text-transform:none;direction:ltr;block-progression:tb;baseline-shift:baseline;color:#000000;enable-background:accumulate;" transform="scale(0.8,0.8)" visibility="visible"/>
	<path d="M 95.931602,89.763499 C 95.96171199999999,88.937523 96.639164,88.29296 97.444746,88.32382799999999 C 98.250327,88.35469799999998 98.878975,89.049303 98.84886999999999,89.87527899999999 C 98.81876,90.70125499999999 98.141307,91.345818 97.335726,91.314951 C 96.551341,91.28490099999999 95.930583,90.62419399999999 95.930583,89.81938899999999" fill="#000000" fill-opacity="1" stroke="none" transform="matrix(0.74936743,0,0,0.74936743,0.36369963,2.8165051)"/>
</svg>
