<?xml version="1.0" ?>
<svg xmlns="http://www.w3.org/2000/svg" xmlns:ev="http://www.w3.org/2001/xml-events" xmlns:xlink="http://www.w3.org/1999/xlink" baseProfile="full" enable-background="new 0 0 95.774 100" height="600px" version="1.1" viewBox="0 0 95.774 100" width="575px" x="0px" xml:space="preserve" y="0px">
	<defs/>
	<path d="M 47.663,0.0 C 36.296,0.0 27.083,9.31 27.083,20.803 C 27.083,26.732 29.578,32.064 33.519,35.857 C 36.564,38.785 40.905,45.429 42.349999999999994,50.757 C 39.529999999999994,49.04 36.99399999999999,47.083999999999996 35.464999999999996,45.461999999999996 C 31.713999999999995,41.477999999999994 26.440999999999995,39.032999999999994 20.575999999999997,39.032999999999994 C 9.208,39.032 0.0,48.34 0.0,59.833 C 0.0,71.324 9.208,80.63499999999999 20.577,80.63499999999999 C 26.441000000000003,80.63499999999999 31.715000000000003,78.115 35.466,74.13099999999999 C 37.073,72.42199999999998 39.795,70.25999999999999 42.796,68.45599999999999 C 42.377,87.535 35.898,100.0 24.092,100.0 L 71.304,100.0 C 59.467,100.0 52.916,87.467 52.527,68.305 C 55.692,70.14200000000001 58.637,72.35600000000001 60.307,74.131 C 64.06,78.115 69.33,80.635 75.19800000000001,80.635 C 86.56400000000001,80.635 95.775,71.32400000000001 95.775,59.833000000000006 C 95.775,48.34 86.56400000000001,39.03200000000001 75.19800000000001,39.03200000000001 C 69.331,39.03200000000001 64.06,41.47700000000001 60.30700000000001,45.46100000000001 C 58.717000000000006,47.149000000000015 55.95800000000001,49.14800000000001 52.97300000000001,50.90700000000001 C 54.375000000000014,45.55500000000001 58.804000000000016,38.81400000000001 61.87900000000001,35.85700000000001 C 65.81900000000002,32.064000000000014 68.23800000000001,26.732000000000014 68.23800000000001,20.80300000000001 C 68.238,9.31 59.027,0.0 47.663,0.0"/>
</svg>
