<?xml version="1.0" ?>
<svg xmlns="http://www.w3.org/2000/svg" xmlns:ev="http://www.w3.org/2001/xml-events" xmlns:xlink="http://www.w3.org/1999/xlink" baseProfile="full" enable-background="new 0 0 100 100" height="600px" version="1.1" viewBox="0 0 100 100" width="600px" x="0px" xml:space="preserve" y="0px">
	<defs/>
	<path d="M 8.321,28.453 L 5.795,26.634999999999998 C 5.537,27.121999999999996 5.2829999999999995,27.610999999999997 5.041,28.107 L 8.321,28.453"/>
	<path d="M 93.358,25.111 L 92.223,25.756 L 93.824,25.922 C 93.674,25.648 93.513,25.381 93.358,25.111"/>
	<path d="M 94.785,71.445 L 94.785,68.651 L 96.939,67.25999999999999 C 97.604,65.45299999999999 98.15499999999999,63.59299999999999 98.61099999999999,61.69499999999999 L 98.57099999999998,61.76499999999999 L 97.43199999999999,61.60399999999999 L 98.57099999999998,59.01499999999999 L 99.13699999999999,59.221 C 99.695,56.232 100.0,53.152 100.0,50.0 C 100.0,48.767 99.94,47.55 99.852,46.339 L 99.571,46.528 L 98.907,44.253 L 97.607,44.927 L 97.917,49.487 L 92.377,52.75 L 93.821,54.874 L 91.387,56.326 L 90.4,54.408 L 89.881,54.563 L 90.4,56.691 L 92.378,57.984 L 91.694,58.654 L 90.401,58.294000000000004 L 90.717,59.278000000000006 L 91.862,59.43300000000001 L 92.53,61.39600000000001 L 95.483,62.53900000000001 L 95.631,63.52900000000001 L 92.224,62.89900000000001 L 87.45100000000001,57.67300000000001 L 89.429,57.82800000000001 L 86.627,51.76300000000001 L 86.627,50.11 L 85.84899999999999,50.11 L 85.48899999999999,51.612 L 82.74699999999999,53.732 L 82.74699999999999,55.701 L 80.61399999999999,56.327 L 79.26,52.6 L 78.32900000000001,52.286 L 78.48,50.11 L 70.61500000000001,48.66 L 71.91300000000001,50.782 L 73.26100000000001,50.31699999999999 L 74.709,51.76299999999999 L 73.26100000000001,53.581999999999994 L 69.781,54.87499999999999 L 66.20400000000001,47.98299999999999 L 65.22900000000001,47.98299999999999 L 65.07600000000001,49.32599999999999 L 67.50200000000001,54.19799999999999 L 69.32700000000001,55.54999999999999 L 72.12300000000002,55.33699999999999 L 67.03700000000002,62.69699999999999 L 67.66500000000002,63.37299999999999 L 67.87200000000001,65.81099999999999 L 66.37300000000002,66.943 L 66.20300000000002,68.762 L 62.27900000000002,73.521 L 59.15900000000002,73.312 L 56.41500000000002,65.81099999999999 L 57.252000000000024,64.666 L 57.252000000000024,62.696999999999996 L 54.91400000000002,59.946999999999996 L 55.904000000000025,59.276999999999994 L 53.617000000000026,57.82699999999999 L 49.06700000000003,57.67199999999999 L 46.422000000000025,55.33599999999999 L 46.27100000000002,50.31499999999999 L 52.17300000000002,45.23199999999999 L 55.42900000000002,44.925999999999995 L 56.26200000000002,45.85699999999999 L 56.05500000000002,46.687999999999995 L 58.70200000000002,47.51499999999999 L 59.996000000000016,46.37499999999999 L 60.97900000000001,47.209999999999994 L 64.54500000000002,47.364999999999995 L 65.22700000000002,46.68899999999999 L 65.22700000000002,44.71999999999999 L 63.78,46.69 L 61.809,44.096999999999994 L 62.11,46.69 L 60.302,45.397 L 59.997,43.426 L 57.822,40.892 L 57.403000000000006,41.302 L 59.159000000000006,43.732 L 58.01800000000001,45.397999999999996 L 57.55800000000001,43.42699999999999 L 55.59700000000001,41.97899999999999 L 54.45000000000001,42.96099999999999 L 53.77200000000001,42.59899999999999 L 50.04300000000001,46.07099999999999 L 48.70600000000001,42.43999999999999 L 51.33600000000001,42.59899999999999 L 51.80900000000001,41.46699999999999 L 50.82100000000001,40.47699999999999 L 52.47800000000001,39.17899999999999 L 53.46200000000001,39.027999999999984 L 55.27400000000001,37.36999999999998 L 54.763000000000005,36.067999999999984 L 55.751000000000005,35.600999999999985 L 56.415000000000006,36.588999999999984 L 59.690000000000005,36.381999999999984 L 59.84100000000001,35.450999999999986 L 63.40700000000001,34.09699999999999 L 62.79100000000001,33.317999999999984 L 60.51000000000001,34.09699999999999 L 59.84000000000001,32.64899999999999 L 61.497000000000014,31.355999999999987 L 60.509000000000015,30.367999999999988 L 58.37900000000001,33.11799999999999 L 59.15700000000001,33.79399999999999 L 59.00400000000001,35.45099999999999 L 56.88800000000001,36.06799999999999 L 56.41300000000001,34.77499999999999 L 54.134000000000015,35.08699999999999 L 54.28500000000002,33.11799999999999 L 58.01600000000002,28.09299999999999 L 62.10700000000002,27.11099999999999 L 68.33500000000002,28.55899999999999 L 67.18800000000002,30.21599999999999 L 64.75600000000001,30.00699999999999 L 66.36900000000001,31.65999999999999 L 71.12800000000001,28.55799999999999 L 74.23400000000001,28.55799999999999 L 72.11800000000001,26.11999999999999 L 74.552,23.63599999999999 L 77.965,22.178999999999988 L 78.476,23.323999999999987 L 75.224,24.462999999999987 L 73.412,26.433999999999987 L 77.146,28.708999999999985 L 76.514,27.567999999999984 L 78.80199999999999,25.606999999999985 L 82.89299999999999,26.585999999999984 L 83.50599999999999,25.292999999999985 L 90.87099999999998,22.492999999999984 L 91.89299999999999,22.722999999999985 C 82.973,9.047 67.548,0.0 50.0,0.0 C 32.441,0.0 17.006,9.059 8.086,22.751 L 21.740000000000002,17.519000000000002 L 27.809,17.839000000000002 L 22.422,23.895000000000003 L 29.562,29.746000000000002 L 27.281000000000002,32.184000000000005 L 23.031000000000002,31.412000000000006 L 23.548000000000002,28.765000000000008 L 22.058000000000003,28.765000000000008 L 21.432000000000002,30.575000000000006 L 21.893,32.184000000000005 L 18.637,31.868000000000006 L 16.979,34.153000000000006 L 18.166,35.13700000000001 L 20.445,35.809000000000005 L 22.578,38.245000000000005 L 23.357,35.809000000000005 L 22.884,35.294000000000004 L 22.884,32.856 L 27.961,33.687000000000005 L 32.059,38.607000000000006 L 26.31,41.87200000000001 L 26.31,43.63400000000001 L 25.32,43.479000000000006 L 24.332,44.461000000000006 L 24.541,45.754000000000005 L 22.214,47.72500000000001 L 22.884,49.84900000000001 L 21.74,49.84900000000001 L 20.764999999999997,48.39200000000001 L 17.188999999999997,48.39200000000001 L 15.838999999999997,50.83000000000001 L 17.188999999999997,52.12300000000001 L 17.801999999999996,52.12300000000001 L 19.094999999999995,51.35100000000001 L 19.931999999999995,51.81800000000001 L 19.626999999999995,53.62600000000001 L 20.919999999999995,53.78100000000001 L 21.225999999999996,55.759000000000015 L 23.548999999999996,55.759000000000015 L 25.834999999999997,54.76900000000001 L 27.447999999999997,55.39500000000001 L 30.494999999999997,55.49100000000001 L 30.703999999999997,57.51200000000001 L 33.20099999999999,57.51200000000001 L 33.50599999999999,59.85000000000001 L 35.160999999999994,59.85000000000001 L 39.55799999999999,62.74600000000001 L 38.26499999999999,64.24900000000001 L 37.904999999999994,67.2 L 27.96,77.824 C 28.310000000000002,78.45 28.408,79.15299999999999 28.27,79.952 L 26.972,81.245 L 28.115000000000002,82.69500000000001 L 27.127000000000002,83.83800000000001 L 24.540000000000003,80.92500000000001 L 24.540000000000003,76.16600000000001 L 26.154000000000003,66.83800000000001 L 24.021000000000004,65.85700000000001 L 21.740000000000006,60.15400000000001 L 22.732000000000006,58.71000000000001 L 22.732000000000006,57.05300000000001 L 20.445000000000007,57.05300000000001 L 19.45500000000001,55.07700000000001 L 18.166000000000007,55.238000000000014 L 13.554000000000007,52.64500000000001 L 12.110000000000007,50.83100000000001 L 10.298000000000007,50.83100000000001 L 5.3710000000000075,44.30100000000001 L 5.580000000000007,41.043000000000006 L 3.9180000000000073,38.607000000000006 L 2.78,38.915 L 1.9579999999999997,37.257999999999996 L 2.9349999999999996,37.410999999999994 L 1.9109999999999996,36.32099999999999 C 0.675,40.67 0.0,45.255 0.0,50.0 C 0.0,56.597 1.29,62.89 3.612,68.657 L 3.617,68.652 L 5.063,69.64 L 4.337,70.365 C 12.136,87.825 29.641,100.0 50.0,100.0 C 69.885,100.0 87.056,88.391 95.112,71.582 L 94.785,71.445 M 93.657,60.986 L 93.80799999999999,59.016999999999996 L 95.92599999999999,56.892999999999994 L 97.43299999999999,59.016999999999996 L 96.079,61.605999999999995 L 93.657,60.986 M 57.071,44.051 L 57.434999999999995,45.397000000000006 L 56.461999999999996,45.03300000000001 L 57.071,44.051 M 23.871,48.868 L 25.165,50.676 L 23.871,50.006 L 23.871,48.868 M 23.871,52.334 L 21.322,51.819 L 21.588,50.572 L 24.177,51.352000000000004 L 23.871,52.334 M 29.105,54.102 L 25.009,52.644999999999996 L 25.319,51.818 L 29.923,53.781 L 29.105,54.102 M 50.652,34.669 L 51.324,36.275999999999996 L 52.768,37.41 L 52.617,38.757999999999996 L 50.336,38.757999999999996 L 51.013999999999996,37.41 L 49.510999999999996,35.809 L 50.652,34.669 M 49.876,37.934 L 48.888,39.073 L 47.747,38.091 L 48.678,36.438 L 49.876,37.934 M 37.595,31.042 L 36.457,33.838 L 34.339,33.687 L 31.901,29.904999999999998 L 30.913,24.879999999999995 L 28.935,23.374999999999996 L 26.820999999999998,24.044999999999998 L 25.682,22.543 L 29.256999999999998,18.142 L 43.973,16.336 L 47.537,19.287 L 45.629999999999995,20.945 L 45.266,25.034 L 42.315,29.592 L 37.595,31.042 M 43.497,30.728 L 46.77,29.906000000000002 L 48.218,31.250000000000004 L 45.267,33.376000000000005 L 43.497,30.728 M 70.128,69.79 L 68.0,68.34200000000001 L 68.628,66.22000000000001 L 70.754,64.56300000000002 L 71.57900000000001,65.07800000000002 L 70.128,69.79"/>
</svg>
