<?xml version="1.0" ?>
<svg xmlns="http://www.w3.org/2000/svg" xmlns:ev="http://www.w3.org/2001/xml-events" xmlns:xlink="http://www.w3.org/1999/xlink" baseProfile="full" enable-background="new 0 0 100 100" height="576px" version="1.1" viewBox="0 0 100 100" width="600px" x="0px" xml:space="preserve" y="0px">
	<defs/>
	<path d="M 29.368,3.87 C 29.099,3.87 28.878,4.0280000000000005 28.868,4.296 L 27.448999999999998,41.873 L 2.498,41.014 C 2.349,40.996 2.205,41.064 2.1060000000000003,41.176 C 2.007,41.288000000000004 1.9630000000000003,41.435 1.9870000000000003,41.583 L 2.3,43.53 C 2.324,43.679 2.4139999999999997,43.808 2.545,43.883 L 3.5149999999999997,44.439 L 4.199,45.75 C 4.216,45.782 4.236,45.813 4.2589999999999995,45.84 L 5.842,47.728 C 5.893,47.789 5.957,47.836 6.029999999999999,47.867000000000004 L 6.9879999999999995,48.275000000000006 L 8.142999999999999,50.01800000000001 C 8.164,50.050000000000004 8.188999999999998,50.080000000000005 8.216999999999999,50.10600000000001 L 11.343999999999998,53.04900000000001 C 11.373999999999997,53.07600000000001 11.406999999999998,53.101000000000006 11.441999999999998,53.120000000000005 L 13.617999999999999,54.343 L 15.057999999999998,57.394000000000005 L 15.372999999999998,59.934000000000005 C 15.379999999999997,59.992000000000004 15.396999999999997,60.047000000000004 15.422999999999998,60.099000000000004 L 17.433999999999997,64.058 C 17.476,64.141 17.54,64.21000000000001 17.619999999999997,64.25800000000001 L 25.11,68.82600000000001 C 25.18,68.86800000000001 25.258,68.893 25.34,68.89800000000001 L 27.614,69.04100000000001 C 27.763,69.058 27.91,68.992 28.012,68.882 L 29.027,67.786 C 29.069000000000003,67.74 29.103,67.686 29.126,67.628 L 29.793000000000003,65.966 L 31.379,63.0 L 32.823,63.0 C 32.945,63.0 33.063,62.9 33.154,62.82 L 33.993,62.051 L 38.145,63.051 C 38.209,63.067 38.276,63.064 38.341,63.053000000000004 L 39.261,62.906000000000006 L 43.283,66.561 L 46.171,71.974 L 47.791,74.85600000000001 L 53.887,81.97300000000001 L 54.416000000000004,85.80600000000001 C 54.432,85.92200000000001 54.48800000000001,86.03000000000002 54.576,86.10900000000001 L 55.742,87.16100000000002 L 57.668,91.13400000000001 C 57.717999999999996,91.23600000000002 57.8,91.31800000000001 57.900999999999996,91.36600000000001 L 62.285999999999994,93.46700000000001 L 67.21199999999999,94.86400000000002 L 70.761,96.45600000000002 C 70.827,96.48600000000002 70.89699999999999,96.50000000000001 70.966,96.50000000000001 C 71.137,96.50000000000001 71.303,96.41100000000002 71.396,96.25600000000001 L 72.57600000000001,94.27600000000001 C 72.66300000000001,94.13000000000001 72.67,93.94800000000001 72.593,93.796 L 70.833,90.29400000000001 L 70.091,86.54400000000001 L 71.707,81.22600000000001 L 73.45899999999999,77.787 L 77.67099999999999,73.84200000000001 L 86.297,69.00500000000001 C 86.333,68.98400000000001 86.365,68.96100000000001 86.396,68.933 L 88.824,66.64200000000001 L 94.554,62.68300000000001 L 96.355,62.13700000000001 C 96.60300000000001,62.062000000000005 96.75200000000001,61.809000000000005 96.699,61.556000000000004 L 96.508,60.64600000000001 L 97.762,58.452000000000005 C 97.812,58.364000000000004 97.834,58.263000000000005 97.825,58.162000000000006 L 97.494,54.25300000000001 L 98.49,49.49900000000001 C 98.514,49.38300000000001 98.497,49.26100000000001 98.439,49.15700000000001 L 96.455,45.53800000000001 L 95.887,43.72600000000001 C 95.871,43.67800000000001 95.849,43.63200000000001 95.821,43.591000000000015 L 94.565,41.77500000000001 L 92.998,28.83 C 92.96600000000001,28.561999999999998 92.70700000000001,28.371 92.461,28.392 L 90.577,28.547 L 85.05,25.196 C 84.86999999999999,25.088 84.642,25.102 84.478,25.234 L 83.384,26.113000000000003 L 82.294,25.853 C 82.191,25.828000000000003 82.082,25.838 81.984,25.878 L 80.315,26.578 L 79.959,26.261 C 79.796,26.115 79.556,26.093999999999998 79.37,26.206 L 76.75800000000001,27.773 L 72.74600000000001,25.826 C 72.62,25.765 72.47500000000001,25.759 72.346,25.810000000000002 L 69.535,26.903000000000002 L 67.53,25.74 C 67.36,25.641 67.148,25.651999999999997 66.988,25.764999999999997 L 66.011,26.464999999999996 L 64.86099999999999,24.602999999999994 C 64.76599999999999,24.449999999999996 64.60199999999999,24.362999999999996 64.41699999999999,24.365999999999996 L 61.740999999999985,24.467999999999996 L 61.20699999999999,24.253999999999998 C 61.109999999999985,24.215999999999998 61.005999999999986,24.206999999999997 60.90399999999999,24.232 L 59.35099999999999,24.605999999999998 L 57.82099999999999,23.697999999999997 C 57.70199999999999,23.627999999999997 57.56099999999999,23.608999999999998 57.42899999999999,23.647 L 57.045999999999985,23.756 L 55.75099999999998,21.75 C 55.631999999999984,21.566 55.40399999999998,21.48 55.198999999999984,21.539 L 52.881999999999984,22.115000000000002 L 51.0,20.445 L 51.0,4.0"/>
</svg>
