<?xml version="1.0" ?>
<svg xmlns="http://www.w3.org/2000/svg" xmlns:ev="http://www.w3.org/2001/xml-events" xmlns:xlink="http://www.w3.org/1999/xlink" baseProfile="full" enable-background="new 0 0 100 100" height="600px" version="1.1" viewBox="0 0 100 100" width="584px" x="0px" xml:space="preserve" y="0px">
	<defs/>
	<path d="M 38.142,74.361 L 38.142,8.584 L 34.545,8.584 L 34.545,74.361 L 9.836,74.361 L 9.836,80.57600000000001 C 9.836,80.57600000000001 8.607,91.72800000000001 31.424,91.584 C 59.730999999999995,91.584 59.730999999999995,91.584 59.730999999999995,91.584 C 59.730999999999995,91.584 86.354,92.059 90.52799999999999,74.361 L 38.142,74.361 L 38.142,74.361 M 47.129,20.785 L 47.129,68.574 L 84.389,68.574 C 83.33,62.779 76.607,33.438 47.129,20.785 M 26.767,68.574 L 26.767,20.752 C 23.616,27.656 9.826,58.647999999999996 11.429,68.574 L 26.767,68.574" fill="#000000"/>
</svg>
