<?xml version="1.0" ?>
<svg xmlns="http://www.w3.org/2000/svg" xmlns:ev="http://www.w3.org/2001/xml-events" xmlns:xlink="http://www.w3.org/1999/xlink" baseProfile="full" enable-background="new 4.106 5.67 88.622 88.66" height="600px" version="1.1" viewBox="4.106 5.67 88.622 88.66" width="600px" x="0px" xml:space="preserve" y="0px">
	<defs/>
	<path d="M 48.417,5.67 C 41.696,5.67 35.329,7.175 29.622,9.854 C 29.626,9.831999999999999 29.636,9.812999999999999 29.637999999999998,9.79 C 29.061999999999998,10.058 28.491999999999997,10.338 27.927,10.630999999999998 C 27.956,10.639999999999999 27.99,10.642999999999999 28.021,10.649999999999999 C 27.917,10.704999999999998 27.810000000000002,10.755999999999998 27.707,10.812 C 27.697,10.795 27.683,10.785 27.675,10.767999999999999 C 27.348,10.94 27.022000000000002,11.110999999999999 26.701,11.290999999999999 C 26.733,11.296999999999999 26.762,11.306 26.793,11.312 C 26.451,11.503 26.111,11.697 25.775,11.896999999999998 C 25.756999999999998,11.883 25.738999999999997,11.874999999999998 25.721999999999998,11.859999999999998 C 25.912999999999997,11.747999999999998 26.101,11.631999999999998 26.291999999999998,11.522999999999998 C 26.098999999999997,11.634999999999998 25.903,11.745999999999999 25.711,11.859999999999998 C 25.712,11.860999999999997 25.714,11.861999999999998 25.715,11.862999999999998 C 25.635,11.910999999999998 25.554,11.958999999999998 25.474,12.006999999999998 C 25.511,12.002999999999998 25.531,12.016999999999998 25.563,12.019999999999998 C 25.39,12.123999999999997 25.221999999999998,12.233999999999998 25.051,12.339999999999998 C 25.063,12.304999999999998 25.069999999999997,12.273999999999997 25.083,12.237999999999998 C 25.083,12.237999999999998 25.081999999999997,12.237999999999998 25.081,12.238999999999997 C 25.081,12.237999999999998 25.082,12.236999999999997 25.082,12.235999999999997 C 25.051000000000002,12.255999999999997 25.019000000000002,12.276999999999997 24.985,12.296999999999997 C 25.003999999999998,12.284999999999997 25.022,12.274999999999997 25.041999999999998,12.263999999999998 C 24.973999999999997,12.306999999999997 24.903999999999996,12.349999999999998 24.834999999999997,12.392999999999997 C 24.855999999999998,12.378999999999998 24.875999999999998,12.365999999999998 24.897,12.352999999999998 C 24.703,12.472999999999997 24.506999999999998,12.593999999999998 24.314999999999998,12.717999999999998 C 24.442999999999998,12.635999999999997 24.572999999999997,12.556999999999999 24.701999999999998,12.477999999999998 C 24.572999999999997,12.559999999999999 24.445999999999998,12.643999999999998 24.316999999999997,12.727999999999998 C 24.316999999999997,12.751999999999997 24.321999999999996,12.780999999999999 24.322999999999997,12.805999999999997 C 24.310999999999996,12.813999999999997 24.298999999999996,12.821999999999997 24.285999999999998,12.829999999999997 C 24.273999999999997,12.810999999999996 24.266,12.788999999999996 24.250999999999998,12.771999999999997 C 24.272,12.757999999999997 24.291999999999998,12.743999999999996 24.313,12.729999999999997 C 24.314999999999998,12.725999999999997 24.313,12.721999999999998 24.313,12.718999999999998 C 24.29,12.733999999999998 24.266,12.749999999999998 24.241999999999997,12.765999999999998 C 24.244999999999997,12.766999999999998 24.246,12.770999999999999 24.246999999999996,12.773999999999997 C 23.027999999999995,13.563999999999997 21.847999999999995,14.407999999999998 20.714999999999996,15.311999999999998 C 20.723999999999997,15.337999999999997 20.738999999999997,15.361999999999998 20.748999999999995,15.385999999999997 C 10.608,23.51 4.106,35.992 4.106,50.0 C 4.106,74.482 23.945,94.33 48.417,94.33 C 72.88900000000001,94.33 92.729,74.482 92.729,50.0 C 92.729,25.517 72.889,5.67 48.417,5.67 M 80.229,20.456 C 80.274,20.531 80.327,20.598 80.368,20.675 C 79.21,21.013 79.30699999999999,20.099 78.321,20.267 C 78.735,20.982 79.03,22.459 79.958,21.494 C 80.03999999999999,22.04 80.519,21.668 80.954,21.259999999999998 C 87.23899999999999,28.375999999999998 91.23299999999999,37.563 91.768,47.672 C 91.237,47.672 90.707,47.672 90.18,47.672 C 92.76,51.683 87.256,53.412 84.864,55.035 C 85.593,56.727999999999994 87.20400000000001,54.516999999999996 88.135,55.443 C 87.733,59.543 84.836,61.14 82.819,63.625 C 82.921,66.734 83.036,67.57 82.819,70.578 C 78.661,73.418 78.391,82.178 71.77600000000001,81.211 C 70.68,78.217 70.63700000000001,74.16799999999999 69.32100000000001,71.395 C 72.046,67.47099999999999 68.21200000000002,64.84599999999999 68.50300000000001,59.943999999999996 C 67.95400000000001,59.266 66.35700000000001,59.638999999999996 66.45800000000001,58.306999999999995 C 63.90700000000001,59.187999999999995 62.073000000000015,58.827999999999996 59.50500000000001,59.12499999999999 C 57.66300000000001,58.10399999999999 56.92500000000001,55.97899999999999 55.415000000000006,54.626999999999995 C 56.794000000000004,50.663999999999994 54.54600000000001,46.462999999999994 59.09700000000001,44.809999999999995 C 58.87800000000001,39.94499999999999 66.617,39.17399999999999 69.73,40.312 C 69.73,40.857 69.73,41.402 69.73,41.946999999999996 C 71.33500000000001,42.25299999999999 72.09700000000001,43.4 73.412,43.992 C 73.34400000000001,42.967999999999996 74.043,42.711 74.641,42.355 C 75.88900000000001,43.147999999999996 75.58,44.272999999999996 77.504,43.583999999999996 C 78.223,43.818 79.906,43.089 79.95700000000001,43.992999999999995 C 80.56400000000001,43.645999999999994 80.549,42.675999999999995 80.775,41.946999999999996 C 80.4,40.550999999999995 78.257,40.919999999999995 77.09100000000001,40.312 C 76.53200000000001,39.79 76.53200000000001,38.379999999999995 77.09100000000001,37.857 C 74.48700000000001,37.667 76.671,39.832 75.048,40.312 C 74.775,40.312 74.503,40.312 74.23,40.312 C 74.58200000000001,39.006 73.587,39.047 73.412,38.266999999999996 C 72.19500000000001,38.166 71.85900000000001,41.038 70.551,39.49399999999999 C 73.461,39.01499999999999 68.903,35.37599999999999 68.506,37.03999999999999 C 68.436,36.42799999999999 68.652,35.53099999999999 68.096,35.40399999999999 C 66.643,35.85699999999999 65.70100000000001,36.825999999999986 64.414,37.44899999999999 C 64.414,37.99399999999999 64.414,38.53999999999999 64.414,39.084999999999994 C 64.053,39.267999999999994 63.684000000000005,39.44499999999999 63.598,39.901999999999994 C 62.369,39.901999999999994 61.143,39.901999999999994 59.914,39.901999999999994 C 59.894,39.379999999999995 59.393,39.33599999999999 59.506,38.672999999999995 C 60.108,37.77499999999999 59.459,35.626 60.735,35.401999999999994 C 61.911,34.831999999999994 62.813,36.516999999999996 63.188,35.401999999999994 C 63.327000000000005,35.401999999999994 63.459,35.401999999999994 63.598,35.401999999999994 C 63.78,33.858999999999995 62.789,33.48199999999999 62.369,32.53999999999999 C 62.414,31.767999999999994 63.723,32.25599999999999 63.598,31.31199999999999 C 67.084,31.11899999999999 67.18599999999999,27.53799999999999 69.325,25.99599999999999 C 68.98100000000001,26.470999999999993 68.784,27.09199999999999 68.917,28.039999999999992 C 70.423,28.415999999999993 69.659,25.882999999999992 69.325,25.58599999999999 C 68.376,25.455999999999992 67.75500000000001,25.650999999999993 67.28,25.99599999999999 C 66.712,25.47199999999999 67.03,24.06499999999999 66.462,23.539999999999992 C 69.048,21.21899999999999 69.82300000000001,17.084999999999994 74.233,16.587999999999994 C 75.549,16.910999999999994 76.735,17.363999999999994 77.753,17.986999999999995 C 78.609,18.774 79.434,19.6 80.229,20.456 M 61.955,25.176 C 64.086,25.634999999999998 63.495999999999995,28.817999999999998 65.228,29.674999999999997 C 65.228,29.945999999999998 65.228,30.22 65.228,30.493 C 64.244,30.325999999999997 64.339,31.241 63.18299999999999,30.903 C 62.40999999999999,30.811 62.28099999999999,31.362 61.547999999999995,31.311 C 63.203,29.135 61.076,27.336 61.955,25.176 M 61.549,30.083 C 60.865,30.083 60.186,30.083 59.502,30.083 C 59.34,28.558 59.830000000000005,27.683 61.139,27.628999999999998 C 61.611,28.113 61.602,29.076 61.549,30.083 M 55.004,21.495 C 54.643,20.631 53.757999999999996,20.286 53.775,19.041 C 55.412,19.442 56.232,19.442 57.867,19.041 C 57.945,19.372 58.278999999999996,19.449 58.275,19.858 C 58.219,21.438 56.678,21.534 55.004,21.495 M 52.549,23.949 C 51.922,25.639000000000003 49.927,25.961000000000002 48.46,26.811 C 47.996,26.735 48.231,26.401 48.46,26.403 C 48.398,25.647 47.075,26.151 46.823,25.584999999999997 C 46.412,20.586 52.996,19.426 52.549,23.949 M 83.635,75.076 C 82.61,71.93299999999999 84.873,70.681 86.08800000000001,68.12299999999999 C 87.29700000000001,69.094 85.596,70.59799999999998 85.68,71.803 C 85.239,72.56099999999999 84.688,73.213 84.471,74.199 C 84.455,74.22 84.44200000000001,74.244 84.426,74.267 C 83.99,74.363 83.811,74.717 83.635,75.076 M 55.08,7.075 C 55.053,7.11 55.041,7.1370000000000005 55.006,7.175 C 55.264,7.228 55.57,7.231 55.891,7.22 C 56.577,7.3389999999999995 57.256,7.473 57.93,7.624 C 57.27,7.925 57.092,8.709 56.237,8.811 C 55.940000000000005,10.061 56.653,10.302 56.643,11.265 C 55.94,11.426 55.594,10.659 55.416000000000004,11.265 C 56.82000000000001,13.075000000000001 53.408,14.65 55.416000000000004,16.173000000000002 C 52.437000000000005,17.694000000000003 48.24,17.996000000000002 46.417,20.672 C 45.533,21.695 45.127,23.199 43.963,23.943 C 41.045,23.103 40.481,18.287000000000003 41.359,16.439 C 41.443000000000005,16.378 41.503,16.293 41.505,16.176 C 41.452000000000005,16.255 41.404,16.343 41.359,16.438 C 41.144,16.589 40.763000000000005,16.541 40.691,16.171999999999997 C 42.609,10.742999999999997 36.011,12.334999999999997 34.964,9.218999999999998 C 35.646,8.673999999999998 37.568,9.367999999999997 37.418,7.991999999999997 C 37.36,8.0 37.309,8.015 37.25,8.022 C 40.813,7.0760000000000005 44.554,6.565 48.414,6.565 C 50.682,6.565 52.906,6.74 55.08,7.075 M 28.014,11.658 C 28.842,11.927999999999999 29.528,12.084999999999999 30.462,11.27 C 29.928,11.238 29.291,11.308 28.754,11.279 C 30.683,10.297 32.693,9.455 34.775,8.766 C 33.189,9.587 32.14,10.945 31.284,12.495000000000001 C 29.372999999999998,12.681000000000001 27.884,12.870000000000001 26.677,12.41 C 27.12,12.152 27.563,11.898 28.014,11.658 M 26.051,12.769 C 26.142999999999997,12.966 26.317,13.081 26.784,12.902000000000001 C 26.349,13.829 25.544,14.388000000000002 24.33,14.538 C 24.633999999999997,14.138 24.766,13.822000000000001 24.834,13.539 C 25.237,13.278 25.639,13.016 26.051,12.769 M 21.321,16.074 C 21.37,16.108 21.417,16.145000000000003 21.467000000000002,16.175 C 21.37,17.303 19.947000000000003,17.109 19.423000000000002,17.812 C 22.166,18.625 22.279000000000003,15.361 23.922,17.402 C 24.09,16.418 23.175,16.513 23.514,15.359000000000002 C 24.035999999999998,15.337000000000002 24.08,14.834000000000001 24.742,14.950000000000001 C 24.942,17.281000000000002 26.268,16.23 26.786,17.812 C 26.873,17.353 27.240000000000002,17.174 27.604000000000003,16.995 C 28.039,15.47 26.069000000000003,16.348000000000003 26.377000000000002,14.950000000000001 C 26.434,12.688 29.830000000000002,13.768 31.285000000000004,12.905000000000001 C 31.292000000000005,13.581000000000001 32.419000000000004,13.134 32.512,13.723 C 31.975,13.67 29.553,13.661000000000001 30.876,14.132000000000001 C 35.051,13.804000000000002 34.986000000000004,16.911 37.42,19.041 C 36.616,18.918 36.608000000000004,19.593 36.191,19.857 C 35.648,19.919 34.958000000000006,18.195 34.556000000000004,19.45 C 35.45100000000001,19.509999999999998 35.435,20.48 35.373000000000005,21.494999999999997 C 33.345000000000006,20.827999999999996 35.142,21.543999999999997 34.145,22.311999999999998 C 32.618,21.520999999999997 31.442000000000004,20.378999999999998 29.645000000000003,19.857 C 30.649000000000004,19.499 32.003,19.49 32.1,18.221999999999998 C 32.404,16.961999999999996 30.975,17.436999999999998 31.282,16.177 C 30.682,16.181 27.934,16.023 29.237000000000002,16.587 C 29.573,18.421 28.063000000000002,18.413 27.6,19.45 C 28.200000000000003,19.805 28.897000000000002,20.063 28.828000000000003,21.086 C 28.499000000000002,20.869999999999997 28.164,20.66 27.6,20.677 C 27.085,20.779 27.188000000000002,21.491 27.6,21.495 C 27.526,22.186 25.657,21.306 25.963,20.268 C 24.025000000000002,20.918 23.072000000000003,22.557000000000002 21.874000000000002,23.949 C 22.225,25.507 23.781000000000002,25.860000000000003 25.145000000000003,26.403000000000002 C 25.475,26.62 25.811000000000003,26.830000000000002 26.374000000000002,26.811000000000003 C 26.078000000000003,28.062000000000005 26.792,28.301000000000002 26.782000000000004,29.265000000000004 C 28.177000000000003,25.977000000000004 29.377000000000002,26.824000000000005 29.237000000000002,21.494000000000003 C 29.585,21.568000000000005 29.623,21.334000000000003 29.645000000000003,21.085000000000004 C 30.047000000000004,21.050000000000004 30.617000000000004,22.165000000000006 32.1,21.902000000000005 C 33.139,22.226000000000006 32.321,24.408000000000005 33.735,24.357000000000006 C 35.059,24.863000000000007 34.047,23.034000000000006 35.372,23.538000000000007 C 36.653,27.35600000000001 38.878,29.300000000000008 39.462,32.946000000000005 C 38.212,33.242000000000004 37.972,32.528000000000006 37.009,32.538000000000004 C 35.579,32.903000000000006 36.31,31.204000000000004 36.599000000000004,30.901000000000003 C 37.187000000000005,30.672000000000004 37.597,30.262000000000004 37.827000000000005,29.673000000000002 C 36.285000000000004,30.061000000000003 35.056000000000004,32.211 33.73700000000001,30.491000000000003 C 34.07500000000001,31.646000000000004 33.16100000000001,31.551000000000002 33.32800000000001,32.536 C 33.25200000000001,32.884 33.48700000000001,32.922000000000004 33.73700000000001,32.945 C 34.05400000000001,33.036 34.54500000000001,32.955 34.55400000000001,33.353 C 34.55400000000001,33.491 34.55400000000001,33.625 34.55400000000001,33.763 C 32.60900000000001,35.021 27.53700000000001,36.472 26.78300000000001,41.125 C 25.584000000000007,41.151 25.26400000000001,42.06 24.739000000000008,42.761 C 23.872000000000007,43.126000000000005 25.54800000000001,45.622 24.329000000000008,46.443000000000005 C 23.340000000000007,45.931000000000004 23.00700000000001,44.76500000000001 22.692000000000007,43.580000000000005 C 18.973000000000006,41.422000000000004 12.229000000000008,48.24100000000001 18.602000000000007,49.71600000000001 C 18.739000000000008,49.71600000000001 18.875000000000007,49.71600000000001 19.012000000000008,49.71600000000001 C 18.864000000000008,48.41900000000001 21.256000000000007,47.88400000000001 21.464000000000006,49.30700000000001 C 20.858000000000004,49.65500000000001 20.585000000000004,50.33500000000001 20.647000000000006,51.35000000000001 C 20.578000000000007,52.23900000000001 22.098000000000006,51.53800000000001 22.692000000000007,51.760000000000005 C 22.57700000000001,53.572 21.82400000000001,55.139 23.919000000000008,55.440000000000005 C 24.23700000000001,55.532000000000004 24.72800000000001,55.452000000000005 24.738000000000007,55.85 C 26.34400000000001,55.684000000000005 26.485000000000007,54.053000000000004 28.010000000000005,53.805 C 28.926000000000005,54.655 30.651000000000003,55.004 33.32600000000001,55.032 C 33.900000000000006,57.593999999999994 37.00600000000001,57.623999999999995 38.64200000000001,59.123999999999995 C 38.64200000000001,59.803999999999995 38.64200000000001,60.48499999999999 38.64200000000001,61.169 C 41.56400000000001,61.928999999999995 43.72000000000001,63.45399999999999 46.41300000000001,64.439 C 46.02800000000001,68.28299999999999 43.49600000000001,69.976 43.552000000000014,74.25699999999999 C 42.45200000000001,74.79599999999999 41.37600000000001,75.35499999999999 40.27900000000001,75.892 C 39.90000000000001,78.58099999999999 38.13300000000001,81.83099999999999 35.77900000000001,81.208 C 35.61200000000001,82.194 36.52700000000001,82.097 36.18700000000001,83.255 C 31.99800000000001,84.439 32.930000000000014,86.987 32.259000000000015,90.314 C 31.194000000000013,89.886 30.149000000000015,89.42099999999999 29.126000000000015,88.91399999999999 C 27.503000000000014,85.725 30.218000000000014,79.84199999999998 29.238000000000014,74.02699999999999 C 28.475000000000012,69.49599999999998 22.029000000000014,66.88399999999999 23.173000000000012,61.48999999999999 C 23.90200000000001,60.600999999999985 24.750000000000014,59.83199999999999 25.194000000000013,58.65799999999999 C 22.251000000000012,54.323999999999984 16.473000000000013,52.819999999999986 12.254000000000014,49.761999999999986 C 12.372000000000014,47.48699999999999 11.544000000000015,46.15799999999999 10.232000000000014,45.313999999999986 C 10.300000000000013,46.45999999999999 10.974000000000014,46.99899999999999 11.043000000000013,48.143999999999984 C 8.196000000000014,45.36399999999998 7.1600000000000135,40.978999999999985 7.039000000000014,36.816999999999986 C 9.67,28.554 14.706,21.369 21.321,16.074 M 29.645,49.717 C 29.785999999999998,51.472 28.155,50.821999999999996 27.192,50.535 C 27.567,49.82 28.469,49.631 29.645,49.717 M 22.283,48.08 C 23.391000000000002,46.293 26.184,48.795 27.192,49.717999999999996 C 24.965,49.761 24.634,47.909 22.283,48.08" fill="#000000"/>
</svg>
