<?xml version="1.0" ?>
<svg xmlns="http://www.w3.org/2000/svg" xmlns:ev="http://www.w3.org/2001/xml-events" xmlns:xlink="http://www.w3.org/1999/xlink" baseProfile="full" enable-background="new 0 0 59.686 38.897" height="392px" version="1.1" viewBox="0 0 59.686 38.897" width="600px" x="0px" xml:space="preserve" y="0px">
	<defs/>
	<path d="M 20.981,3.353 L 20.981,0.0 L 2.778,0.0 L 2.778,3.353 L 0.0,3.353 L 0.0,38.897 L 8.526,38.897 L 8.526,31.592 L 15.208,31.592 L 15.208,38.897 L 23.375999999999998,38.897 L 23.375999999999998,3.353 L 20.981,3.353 M 10.515,28.818 L 4.335000000000001,28.818 L 4.335000000000001,22.973000000000003 L 10.515,22.973000000000003 L 10.515,28.818 M 10.515,21.152 L 4.335000000000001,21.152 L 4.335000000000001,15.308 L 10.515,15.308 L 10.515,21.152 M 8.381,9.186 L 8.381,6.854 L 10.714,6.854 L 10.714,4.522 L 13.045,4.522 L 13.045,6.854 L 15.378,6.854 L 15.378,9.186 L 13.045,9.186 L 13.045,11.518 L 10.714,11.518 L 10.714,9.186 L 8.381,9.186 M 19.041,28.818 L 12.862,28.818 L 12.862,22.973000000000003 L 19.041,22.973000000000003 L 19.041,28.818 M 19.041,21.152 L 12.862,21.152 L 12.862,15.308 L 19.041,15.308 L 19.041,21.152" fill="#000000"/>
	<path d="M 42.034,15.308 L 42.034,3.353 L 26.01,3.353 L 26.01,38.897 L 32.477000000000004,38.897 L 37.18900000000001,38.897 L 37.18900000000001,31.592 L 43.873000000000005,31.592 L 43.873000000000005,38.897 L 59.68600000000001,38.897 L 59.68600000000001,15.308 L 42.034,15.308 M 33.236,27.017 L 28.632999999999996,27.017 L 28.632999999999996,22.666 L 33.236,22.666 L 33.236,27.017 M 33.236,21.31 L 28.632999999999996,21.31 L 28.632999999999996,16.957 L 33.236,16.957 L 33.236,21.31 M 33.236,15.903 L 28.632999999999996,15.903 L 28.632999999999996,11.552 L 33.236,11.552 L 33.236,15.903 M 33.236,10.196 L 28.632999999999996,10.196 L 28.632999999999996,5.845 L 33.236,5.845 L 33.236,10.196 M 39.583,27.017 L 34.982,27.017 L 34.982,22.666 L 39.583,22.666 L 39.583,27.017 M 39.583,21.31 L 34.982,21.31 L 34.982,16.957 L 39.583,16.957 L 39.583,21.31 M 39.583,15.903 L 34.982,15.903 L 34.982,11.552 L 39.583,11.552 L 39.583,15.903 M 39.583,10.196 L 34.982,10.196 L 34.982,5.845 L 39.583,5.845 L 39.583,10.196 M 51.34,27.887 C 48.456,27.887 46.118,25.548000000000002 46.118,22.666 C 46.118,19.782 48.456,17.443 51.34,17.443 C 54.224000000000004,17.443 56.56100000000001,19.781000000000002 56.56100000000001,22.666 C 56.561,25.548 54.224,27.887 51.34,27.887" fill="#000000"/>
	<path d="M 52.491,19.215 L 50.191,19.215 L 50.191,21.515 L 47.89,21.515 L 47.89,23.815 L 50.191,23.815 L 50.191,26.115 L 52.491,26.115 L 52.491,23.815 L 54.791,23.815 L 54.791,21.515 L 52.491,21.515 L 52.491,19.215" fill="#000000" points="52.491,19.215 50.191,19.215 50.191,21.515 47.89,21.515 47.89,23.815 50.191,23.815    50.191,26.115 52.491,26.115 52.491,23.815 54.791,23.815 54.791,21.515 52.491,21.515  "/>
</svg>
