<?xml version="1.0" ?>
<svg xmlns="http://www.w3.org/2000/svg" xmlns:ev="http://www.w3.org/2001/xml-events" xmlns:xlink="http://www.w3.org/1999/xlink" baseProfile="full" enable-background="new 0.75 1.75 100 100" height="600px" version="1.1" viewBox="0.75 1.75 100 100" width="600px" x="0px" xml:space="preserve" y="0px">
	<defs/>
	<path d="M 50.75,5.75 C 76.114,5.75 96.75,26.386 96.75,51.75 C 96.75,77.114 76.114,97.75 50.75,97.75 C 25.385999999999996,97.75 4.75,77.114 4.75,51.75 C 4.75,26.385999999999996 25.386,5.75 50.75,5.75 M 50.75,1.75 C 23.135,1.75 0.75,24.136 0.75,51.75 C 0.75,79.364 23.135,101.75 50.75,101.75 C 78.364,101.75 100.75,79.364 100.75,51.75 C 100.75,24.135999999999996 78.364,1.75 50.75,1.75 L 50.75,1.75"/>
	<path d="M 43.147,73.993 L 24.765,55.652 L 21.318,59.09 L 43.501,81.241 L 85.315,39.466 L 81.516,35.656 L 43.147,73.993" points="43.147,73.993 24.765,55.652 21.318,59.09 43.501,81.241 85.315,39.466 81.516,35.656 "/>
</svg>
