<?xml version="1.0" ?>
<svg xmlns="http://www.w3.org/2000/svg" xmlns:ev="http://www.w3.org/2001/xml-events" xmlns:xlink="http://www.w3.org/1999/xlink" baseProfile="full" enable-background="new 0 0 100 100" height="600px" version="1.1" viewBox="0 0 100 100" width="421px" x="0px" xml:space="preserve" y="0px">
	<defs/>
	<path d="M 56.907,25.164 C 56.956999999999994,25.183 57.007999999999996,25.196 57.058,25.214000000000002 C 58.08,25.561000000000003 59.166,25.643 60.322,25.461000000000002 C 61.395,25.297 62.317,24.962000000000003 63.081,24.457 C 64.57000000000001,23.472 65.556,22.001 66.042,20.051000000000002 C 66.212,19.375000000000004 66.281,18.624000000000002 66.263,17.803 C 66.117,17.317 65.96600000000001,16.818 65.808,16.313000000000002 C 65.512,15.379000000000003 65.08200000000001,14.564000000000002 64.521,13.870000000000003 C 63.410000000000004,12.494000000000003 61.717,11.730000000000002 59.439,11.584000000000003 C 58.346000000000004,11.515000000000002 57.412,11.641000000000004 56.648,11.957000000000003 C 54.88,12.683000000000003 53.586000000000006,13.901000000000003 52.772000000000006,15.606000000000002 C 52.37500000000001,16.433 52.191,17.462000000000003 52.21600000000001,18.687 C 52.24100000000001,19.861 52.46900000000001,20.871000000000002 52.89200000000001,21.711000000000002 C 53.719,23.359 55.058,24.514 56.907,25.164"/>
	<path d="M 85.0,0.0 L 77.247,0.0 C 77.247,0.0 77.247,38.762 77.247,39.394 C 74.93,39.394 72.621,39.394 70.305,39.394 C 70.26,39.394 70.221,39.394 70.177,39.394 C 70.09200000000001,39.32 70.009,39.248 69.927,39.173 C 69.35100000000001,38.643 68.828,38.052 68.369,37.401 C 67.883,36.713 67.382,36.051 66.858,35.407000000000004 C 66.574,35.053000000000004 66.283,34.702000000000005 65.986,34.361000000000004 C 64.83800000000001,33.03 63.73800000000001,31.650000000000006 62.690000000000005,30.205000000000005 C 62.690000000000005,30.204000000000004 62.691,30.201000000000004 62.690000000000005,30.199000000000005 C 62.56100000000001,30.021000000000004 62.423,29.850000000000005 62.284000000000006,29.682000000000006 C 61.30100000000001,28.498000000000005 60.06700000000001,27.559000000000005 58.58200000000001,26.863000000000007 C 58.476000000000006,26.813000000000006 58.36200000000001,26.767000000000007 58.251000000000005,26.723000000000006 C 58.02700000000001,26.635000000000005 57.797000000000004,26.556000000000004 57.553000000000004,26.491000000000007 C 57.432,26.459000000000007 57.303000000000004,26.431000000000008 57.176,26.404000000000007 C 56.921,26.35000000000001 56.659,26.307000000000006 56.385000000000005,26.276000000000007 C 56.11100000000001,26.245000000000008 55.82600000000001,26.226000000000006 55.531000000000006,26.218000000000007 C 53.05100000000001,26.16100000000001 50.56100000000001,26.136000000000006 48.081,26.136000000000006 C 45.6,26.136000000000006 43.11,26.115000000000006 40.63,26.084000000000007 C 39.02,26.06500000000001 37.510000000000005,26.150000000000006 36.103,26.346000000000007 C 36.101,26.346000000000007 36.099000000000004,26.346000000000007 36.097,26.346000000000007 C 35.581,26.416000000000007 35.106,26.547000000000008 34.684000000000005,26.729000000000006 C 34.57600000000001,26.777000000000005 34.469,26.829000000000008 34.365,26.880000000000006 C 34.156,26.984000000000005 33.954,27.092000000000006 33.761,27.211000000000006 C 33.375,27.450000000000006 33.026,27.723000000000006 32.703,28.025000000000006 C 32.702000000000005,28.026000000000007 32.698,28.024000000000004 32.697,28.025000000000006 C 32.457,28.251000000000005 32.234,28.496000000000006 32.029,28.757000000000005 C 31.891000000000002,28.932000000000006 31.760000000000005,29.113000000000007 31.639000000000003,29.303000000000004 C 31.396000000000004,29.684000000000005 31.186000000000003,30.097000000000005 31.005000000000003,30.541000000000004 C 30.986000000000004,30.591000000000005 30.961000000000002,30.641000000000005 30.936000000000003,30.692000000000004 C 30.488000000000003,31.519000000000005 30.051000000000002,32.337 29.623000000000005,33.139 C 29.427000000000003,33.512 29.231000000000005,33.873000000000005 29.036000000000005,34.220000000000006 C 28.145000000000003,35.824000000000005 27.268000000000004,37.449000000000005 26.403000000000006,39.09100000000001 C 26.276000000000007,39.33100000000001 26.166000000000007,39.58100000000001 26.071000000000005,39.84600000000001 C 25.977000000000004,40.11100000000001 25.899000000000004,40.39200000000001 25.839000000000006,40.683000000000014 C 25.770000000000007,41.04300000000001 25.755000000000006,41.41500000000001 25.793000000000006,41.78700000000001 C 25.799000000000007,41.83100000000001 25.804000000000006,41.88200000000001 25.816000000000006,41.932000000000016 C 25.885000000000005,42.179000000000016 25.940000000000005,42.424000000000014 25.984000000000005,42.676000000000016 C 26.162000000000006,42.972000000000016 26.374000000000006,43.234000000000016 26.618000000000006,43.46700000000001 C 26.781000000000006,43.622000000000014 26.961000000000006,43.76300000000001 27.152000000000005,43.89100000000001 C 27.441000000000006,44.082000000000015 27.758000000000006,44.244000000000014 28.111000000000004,44.37300000000001 C 28.118000000000006,44.37600000000001 28.126000000000005,44.38500000000001 28.129000000000005,44.396000000000015 C 28.132000000000005,44.40700000000002 28.135000000000005,44.420000000000016 28.135000000000005,44.442000000000014 C 28.685000000000006,44.442000000000014 29.225000000000005,44.442000000000014 29.775000000000006,44.442000000000014 C 29.819000000000006,44.442000000000014 29.858000000000004,44.442000000000014 29.902000000000005,44.442000000000014 C 30.021000000000004,44.40300000000001 30.134000000000004,44.36100000000001 30.246000000000006,44.314000000000014 C 30.468000000000007,44.22000000000001 30.677000000000007,44.110000000000014 30.867000000000004,43.98300000000001 C 30.963000000000005,43.92000000000001 31.054000000000006,43.85200000000001 31.140000000000004,43.77900000000001 C 31.228000000000005,43.70700000000001 31.311000000000003,43.62700000000001 31.390000000000004,43.54700000000001 C 31.549000000000003,43.38600000000001 31.694000000000003,43.21300000000001 31.820000000000004,43.01800000000001 C 31.883000000000003,42.92100000000001 31.939000000000004,42.81600000000001 31.995000000000005,42.71000000000001 C 32.83500000000001,41.09400000000001 33.673,39.47500000000001 34.50600000000001,37.84000000000001 C 35.19400000000001,36.48900000000001 35.89200000000001,35.15400000000001 36.59300000000001,33.83500000000001 C 39.07300000000001,33.83500000000001 41.56300000000001,33.83500000000001 44.04300000000001,33.83500000000001 C 44.088000000000015,33.83500000000001 44.12700000000002,33.83500000000001 44.171000000000014,33.83500000000001 C 43.439000000000014,35.58400000000001 42.722000000000016,37.35500000000001 42.021000000000015,39.14200000000001 C 41.32100000000001,40.92900000000001 40.634000000000015,42.69800000000001 39.94700000000002,44.46600000000001 C 39.57800000000002,45.41300000000001 39.18700000000002,46.33100000000001 38.77800000000002,47.220000000000006 C 38.77800000000002,47.22200000000001 38.77900000000002,47.22500000000001 38.77800000000002,47.226000000000006 C 38.64200000000002,47.522000000000006 38.50000000000002,47.815000000000005 38.36000000000002,48.104000000000006 C 38.31700000000002,48.739000000000004 38.27400000000002,49.37100000000001 38.22600000000002,49.99900000000001 L 38.22,49.99900000000001 C 38.094,51.67200000000001 37.949,53.31300000000001 37.79,54.92900000000001 C 37.557,57.22100000000001 37.342,59.49300000000001 37.14,61.74700000000001 C 36.989,63.38900000000001 36.806,64.986 36.591,66.539 C 36.105000000000004,66.684 35.518,66.754 34.823,66.741 C 32.342,66.69 29.854,66.665 27.374000000000002,66.665 C 25.310000000000002,66.665 23.251,66.703 21.193,66.78500000000001 C 21.098000000000003,66.78500000000001 20.972,66.79800000000002 20.808,66.81600000000002 C 20.252,66.87400000000002 19.759,67.01900000000002 19.336,67.25300000000001 C 17.738999999999997,68.11100000000002 16.647,69.50700000000002 16.066,71.44400000000002 C 15.915,71.93000000000002 15.761999999999999,72.41000000000001 15.604999999999999,72.88300000000001 C 15.434,73.39500000000001 15.232,73.843 14.998999999999999,74.24000000000001 C 15.485,74.38600000000001 16.072,74.45500000000001 16.767,74.44200000000001 C 19.247999999999998,74.391 21.736,74.36600000000001 24.216,74.36600000000001 C 26.697000000000003,74.36600000000001 29.185000000000002,74.36600000000001 31.666,74.36600000000001 C 34.146,74.36600000000001 36.634,74.39100000000002 39.115,74.44200000000001 C 40.283,74.46100000000001 41.293,74.34 42.133,74.07600000000001 C 42.184000000000005,74.057 42.235,74.03800000000001 42.285000000000004,74.013 C 43.111000000000004,73.572 43.67400000000001,72.852 43.957,71.855 C 44.096000000000004,71.381 44.197,70.83200000000001 44.254,70.20700000000001 C 44.463,67.99100000000001 44.684,65.757 44.91,63.50900000000001 C 45.144,61.24900000000001 45.358,59.01400000000001 45.559999999999995,56.80500000000001 C 45.617999999999995,56.160000000000004 45.74399999999999,55.617000000000004 45.93299999999999,55.17600000000001 C 46.77899999999999,56.81100000000001 47.59899999999999,58.48400000000001 48.400999999999996,60.19500000000001 C 49.177,61.87500000000001 49.961,63.54100000000001 50.75,65.20200000000001 C 51.173,66.08600000000001 51.59,66.95000000000002 52.013,67.79 C 52.815,69.388 53.598,70.991 54.367,72.613 C 55.169,74.299 55.983,75.978 56.809999999999995,77.645 C 57.623999999999995,79.30499999999999 58.413999999999994,80.991 59.17699999999999,82.707 C 59.562999999999995,83.585 60.06799999999999,84.34899999999999 60.68699999999999,84.99199999999999 C 61.58899999999999,85.939 63.02899999999999,86.38199999999999 64.999,86.32399999999998 C 66.893,86.26699999999998 68.786,86.23599999999999 70.681,86.23599999999999 C 69.905,84.53099999999999 69.103,82.84499999999998 68.276,81.18499999999999 C 67.455,79.52499999999999 66.634,77.85799999999999 65.807,76.17199999999998 C 65.056,74.63199999999998 64.298,73.07899999999998 63.522000000000006,71.50699999999998 C 62.720000000000006,69.85999999999997 61.913000000000004,68.17399999999998 61.104000000000006,66.46299999999998 C 60.322,64.80199999999998 59.53900000000001,63.12999999999998 58.75500000000001,61.45599999999998 C 57.95300000000001,59.74499999999998 57.14600000000001,58.06599999999998 56.32400000000001,56.41799999999998 C 55.49800000000001,54.75199999999998 54.683000000000014,53.071999999999974 53.887000000000015,51.38699999999998 C 54.058000000000014,50.92599999999998 54.235000000000014,50.45899999999998 54.405000000000015,49.997999999999976 L 54.408000000000015,49.997999999999976 C 54.90700000000002,48.659999999999975 55.41300000000002,47.34099999999998 55.92500000000002,46.03999999999998 C 56.63800000000002,44.22799999999998 57.37500000000002,42.46699999999998 58.13900000000002,40.76299999999998 C 58.171000000000014,40.69299999999998 58.19600000000002,40.617999999999974 58.22100000000002,40.54199999999998 C 58.50500000000002,39.74699999999998 58.82500000000002,38.98399999999998 59.192000000000014,38.25799999999998 C 60.31600000000002,39.61499999999998 61.43800000000002,40.97399999999998 62.56800000000001,42.34299999999998 C 63.13000000000001,43.030999999999985 63.68800000000001,43.73399999999998 64.23100000000001,44.44699999999998 C 65.31,45.85499999999998 66.915,46.70299999999998 69.054,46.97499999999998 C 69.679,47.05699999999998 70.3,47.09099999999998 70.932,47.09099999999998 C 72.952,47.09099999999998 75.099,47.11199999999998 77.119,47.15499999999998 C 77.163,47.15499999999998 77.203,47.17499999999998 77.247,47.21799999999998 C 77.25,47.228999999999985 77.247,47.43199999999998 77.247,47.442999999999984 C 77.247,47.90799999999999 77.247,99.99699999999999 77.247,99.99699999999999 L 85.0,99.99699999999999"/>
</svg>
