<?xml version="1.0" ?>
<svg xmlns="http://www.w3.org/2000/svg" xmlns:ev="http://www.w3.org/2001/xml-events" xmlns:xlink="http://www.w3.org/1999/xlink" baseProfile="full" enable-background="new 0 0 100 100" height="600px" version="1.1" viewBox="0 0 100 100" width="600px" x="0px" xml:space="preserve" y="0px">
	<defs/>
	<path d="M 99.239,41.312 C 97.7,32.586 93.976,24.798 88.742,18.394 C 88.694,18.334999999999997 88.652,18.272 88.604,18.214 C 88.603,18.218 88.602,18.221999999999998 88.601,18.226 C 77.83,5.163 60.723,-2.062 42.896,0.508 L 42.891,0.48 L 39.741,1.0350000000000001 L 39.756,1.118 C 22.121,4.848 8.479,17.519 2.913,33.521 C 2.876,33.462 2.8289999999999997,33.404 2.7939999999999996,33.344 C 2.4049999999999994,34.444 2.0539999999999994,35.56 1.7429999999999997,36.69 C 1.7869999999999997,36.738 1.8389999999999997,36.784 1.8839999999999997,36.832 C 0.015,43.737 -0.385,51.157 1.0,58.676 C 1.0,58.677 1.0,58.678000000000004 1.0,58.679 L 0.847,58.686 C 0.9119999999999999,59.056 0.941,59.419 1.048,59.776 C 6.236,85.81800000000001 30.872999999999998,103.221 57.097,99.463 L 57.107,99.517 L 58.618,99.25 C 58.635000000000005,99.247 58.651,99.246 58.669000000000004,99.243 C 58.68300000000001,99.241 58.69500000000001,99.237 58.709,99.234 L 60.258,98.961 L 60.248000000000005,98.907 C 86.567,93.411 103.941,67.979 99.239,41.312 M 89.07,23.924 C 89.17299999999999,24.078 89.27999999999999,24.226 89.381,24.381999999999998 C 92.809,29.677 95.0,35.54 96.0,41.808 C 96.0,41.809 96.0,41.81 96.0,41.811 L 96.184,41.816 C 96.184,41.816 95.983,46.047000000000004 94.32,48.405 C 92.51199999999999,50.967 89.591,53.623000000000005 85.768,56.086 C 84.174,57.111 82.477,58.095 80.64,59.035 C 80.644,54.455 80.256,49.67999999999999 79.398,44.81099999999999 C 78.728,41.010999999999996 77.816,37.35799999999999 76.703,33.891999999999996 C 82.288,30.857 86.57,27.431 89.07,23.924 M 51.568,68.11 C 45.622,69.078 39.772,69.588 34.168,69.582 C 31.82,69.57799999999999 29.56,69.484 27.389,69.31099999999999 C 25.605999999999998,64.70599999999999 24.243,59.80899999999999 23.343,54.69799999999999 C 22.731,51.22599999999999 22.357,47.77499999999999 22.206,44.36999999999999 C 29.555,45.145999999999994 38.152,44.87699999999999 47.213,43.40999999999999 L 51.568,68.11 M 50.363,42.853 C 59.357,41.132000000000005 67.508,38.45 74.134,35.213 C 75.156,38.464 75.986,41.835 76.598,45.307 C 77.499,50.419000000000004 77.893,55.485 77.79299999999999,60.42400000000001 C 75.81299999999999,61.330000000000005 73.722,62.190000000000005 71.517,62.99600000000001 C 66.26899999999999,64.912 60.617,66.43 54.718999999999994,67.554 L 50.363,42.853 M 60.529,4.032 C 66.468,5.395 72.024,7.867 77.04,11.379999999999999 C 81.057,14.193 84.41900000000001,17.566 87.305,21.421 C 87.14800000000001,21.679 86.99000000000001,21.936999999999998 86.805,22.198 C 85.12700000000001,24.578 82.36000000000001,27.048000000000002 78.802,29.34 C 77.83900000000001,29.961 76.82400000000001,30.565 75.765,31.152 C 70.921,17.8 63.018,7.573 54.276,3.048 C 56.37,3.238 58.462,3.558 60.529,4.032 M 52.21,5.195 C 55.792,6.886 59.249,9.641 62.488,13.383000000000001 C 65.80799999999999,17.218 68.709,21.875 71.111,27.223 C 71.878,28.929 72.574,30.686999999999998 73.215,32.482 C 70.82300000000001,33.667 68.23400000000001,34.775 65.45100000000001,35.793 C 60.58100000000001,37.573 55.336000000000006,38.984 49.86500000000001,40.032 L 43.405,3.39 C 46.281,3.192 49.234,3.789 52.21,5.195 M 40.253,3.938 L 46.715,40.588 C 41.19500000000001,41.481 35.765,41.952 30.561000000000003,41.945 C 27.599000000000004,41.941 24.787000000000003,41.785000000000004 22.134000000000004,41.489 C 22.123000000000005,39.583 22.176000000000005,37.693 22.313000000000002,35.827 C 22.741000000000003,29.979 23.875000000000004,24.610999999999997 25.682000000000002,19.872 C 27.446,15.247 29.752000000000002,11.475999999999999 32.54,8.661 C 34.872,6.309 37.462,4.731 40.253,3.938 M 11.389,22.956 C 14.902,17.939999999999998 19.276,13.716999999999999 24.392,10.404 C 26.141,9.271 27.957,8.275 29.825,7.391 C 23.180999999999997,14.637 19.266,26.933 19.278,41.111 C 18.083,40.922 16.926,40.701 15.810999999999998,40.448 C 11.683999999999997,39.51 8.239999999999998,38.136 5.847999999999999,36.473 C 5.556999999999999,36.271 5.292999999999999,36.063 5.035999999999999,35.855 C 6.479,31.269 8.6,26.94 11.389,22.956 M 3.58,58.18 C 2.475,51.911 2.63,45.616 4.041,39.468 C 4.0920000000000005,39.245000000000005 4.156000000000001,39.026 4.21,38.804 C 7.758,41.278000000000006 12.989999999999998,43.055 19.33,44.005 C 19.468999999999998,47.646 19.858999999999998,51.391000000000005 20.529,55.194 C 21.387,60.061 22.641,64.687 24.211,68.988 C 22.165,68.732 20.209999999999997,68.398 18.363,67.979 C 13.928,66.973 10.222999999999999,65.496 7.648999999999999,63.707 C 5.592999999999999,62.277 4.277999999999999,60.657000000000004 3.737999999999999,58.968 C 3.688,58.704 3.627,58.444 3.58,58.18 M 39.477,95.955 C 33.537,94.592 27.982,92.119 22.964999999999996,88.607 C 17.948999999999998,85.095 13.726999999999997,80.72 10.412999999999997,75.603 C 8.435999999999996,72.55099999999999 6.847999999999997,69.30499999999999 5.634999999999997,65.907 C 10.002999999999997,69.15299999999999 16.938999999999997,71.279 25.429,72.104 C 30.313,83.832 37.606,92.764 45.6,96.928 C 43.547,96.735 41.503,96.42 39.477,95.955 M 47.731,94.811 C 44.149,93.12 40.691,90.36600000000001 37.452,86.623 C 34.132999999999996,82.787 31.230999999999998,78.13000000000001 28.829,72.781 C 28.765,72.63600000000001 28.705000000000002,72.489 28.641000000000002,72.34400000000001 C 35.721000000000004,72.74700000000001 43.706,72.301 52.066,70.935 L 56.593,96.606 C 53.699,96.818 50.727,96.225 47.731,94.811 M 59.743,96.049 L 55.217,70.379 C 63.518,68.805 71.154,66.49600000000001 77.655,63.703 C 77.644,63.86 77.639,64.019 77.628,64.177 C 77.2,70.025 76.06700000000001,75.393 74.259,80.13300000000001 C 72.495,84.75800000000001 70.189,88.52900000000001 67.401,91.34200000000001 C 65.084,93.68 62.515,95.252 59.743,96.049 M 75.614,89.584 C 73.83800000000001,90.73400000000001 71.991,91.74600000000001 70.093,92.64 C 76.2,85.997 80.006,75.092 80.586,62.381 C 88.341,58.674 94.162,54.266 97.138,49.684 C 97.167,53.323 96.784,56.946999999999996 95.964,60.519999999999996 C 94.601,66.461 92.129,72.01599999999999 88.616,77.032 C 85.104,82.047 80.729,86.271 75.614,89.584"/>
</svg>
