<?xml version="1.0" ?>
<svg xmlns="http://www.w3.org/2000/svg" xmlns:ev="http://www.w3.org/2001/xml-events" xmlns:xlink="http://www.w3.org/1999/xlink" baseProfile="full" enable-background="new 0 0 100 71.313" height="429px" version="1.1" viewBox="0 0 100 71.313" width="600px" x="0px" xml:space="preserve" y="0px">
	<defs/>
	<path d="M 79.095,17.585 L 79.095,5.041 L 77.95,5.041 C 74.513,5.041 71.745,7.851000000000001 71.745,11.315000000000001 C 71.745,14.787 74.51400000000001,17.586000000000002 77.95,17.586000000000002 L 79.095,17.586000000000002 L 79.095,17.585"/>
	<path d="M 69.735,14.726 L 64.31,3.772 C 63.104,1.517 60.775,0.0 58.045,0.0 L 45.454,0.0 C 44.271,0.0 43.332,0.963 43.332,2.158 C 43.332,3.341 44.27,4.301 45.454,4.301 L 58.045,4.29 C 59.069,4.29 60.202,4.991 60.643,5.966 L 64.104,12.953 L 69.735,14.726"/>
	<path d="M 94.747,26.457 C 96.382,26.925 97.588,28.466 97.588,30.267 L 88.422,30.28 C 76.354,30.28 66.55499999999999,40.199 66.55499999999999,52.397000000000006 L 36.701,52.397000000000006 C 36.701,42.59 30.387,34.28500000000001 21.672,31.376000000000005 L 5.216,25.903 L 7.947,21.689 C 8.909,20.222 10.579,19.248 12.468,19.248 C 12.894,19.248 13.284,19.286 13.638,19.359 L 50.291,30.844 C 50.742,30.981 51.205999999999996,31.067 51.705,31.067 C 53.361999999999995,31.067 54.802,30.216 55.666,28.921 L 63.992,16.747999999999998 L 94.747,26.457"/>
	<path d="M 85.105,61.874 C 88.202,61.874 90.688,59.335 90.688,56.242000000000004 C 90.688,53.111000000000004 88.202,50.59700000000001 85.105,50.59700000000001 C 82.046,50.59700000000001 79.56,53.11100000000001 79.56,56.242000000000004 C 79.56,59.334 82.046,61.874 85.105,61.874 M 70.199,56.242 C 70.199,47.9 76.878,41.172999999999995 85.105,41.172999999999995 C 93.321,41.172 100.0,47.9 100.0,56.242 C 100.0,64.56 93.321,71.313 85.105,71.313 C 76.877,71.313 70.199,64.56 70.199,56.242"/>
	<path d="M 16.43,60.825 C 19.795,60.825 22.549,58.065000000000005 22.549,54.64 C 22.549,51.213 19.794999999999998,48.442 16.43,48.442 C 13.03,48.442 10.3,51.213 10.3,54.64 C 10.3,58.065 13.03,60.825 16.43,60.825 M 0.0,54.628 C 0.0,45.496 7.337,38.065 16.395,38.065 C 25.464,38.065 32.777,45.497 32.777,54.628 C 32.777,63.783 25.464000000000002,71.214 16.395,71.214 C 7.337,71.214 0.0,63.784 0.0,54.628"/>
</svg>
