<?xml version="1.0" ?>
<svg xmlns="http://www.w3.org/2000/svg" xmlns:ev="http://www.w3.org/2001/xml-events" xmlns:xlink="http://www.w3.org/1999/xlink" baseProfile="full" enable-background="new 0 0 100 100" height="600px" version="1.1" viewBox="0 0 100 100" width="600px" x="0px" xml:space="preserve" y="0px">
	<defs/>
	<path d="M 100.0,16.667 C 99.898,14.442000000000002 98.061,12.500000000000002 95.833,12.500000000000002 L 26.42,12.500000000000002 L 21.849,2.443 C 21.172,0.955 19.69,0.0 18.056,0.0 L 4.167,0.0 C 1.865,0.0 0.0,1.866 0.0,4.167 C 0.0,6.468 1.865,8.334 4.167,8.334 L 15.373,8.334 L 34.243,49.846999999999994 L 32.442,50.04599999999999 C 25.965,50.50599999999999 20.835,55.90899999999999 20.835,62.50099999999999 C 20.835,69.39399999999999 26.442,75.00099999999999 33.335,75.00099999999999 L 91.668,75.00099999999999 C 93.96900000000001,75.00099999999999 95.834,73.136 95.834,70.83399999999999 C 95.834,68.53199999999998 93.96900000000001,66.66799999999999 91.668,66.66799999999999 L 33.333,66.66799999999999 C 31.034999999999997,66.66799999999999 29.165999999999997,64.79899999999999 29.165999999999997,62.50099999999999 C 29.165999999999997,60.30499999999999 30.878999999999998,58.51899999999999 33.035999999999994,58.36399999999999 L 96.28899999999999,51.36499999999999 C 98.47299999999998,51.124999999999986 100.09499999999998,49.228999999999985 99.99599999999998,47.033999999999985 L 100.0,16.667 M 75.0,37.5 L 65.277,37.5 L 65.277,47.223 L 56.944,47.223 L 56.944,37.5 L 47.222,37.5 L 47.222,29.167 L 56.944,29.167 L 56.944,19.445 L 65.277,19.445 L 65.277,29.167 L 75.0,29.167 L 75.0,37.5"/>
	<path cx="29.167" cy="91.667" d="M 20.834000000000003,91.667 A 8.333,8.333 0.0 1,0 37.5,91.667 A 8.333,8.333 0.0 1,0 20.834,91.667" r="8.333"/>
	<path cx="87.5" cy="91.667" d="M 79.167,91.667 A 8.333,8.333 0.0 1,0 95.833,91.667 A 8.333,8.333 0.0 1,0 79.167,91.667" r="8.333"/>
</svg>
