<?xml version="1.0" ?>
<svg xmlns="http://www.w3.org/2000/svg" xmlns:ev="http://www.w3.org/2001/xml-events" xmlns:xlink="http://www.w3.org/1999/xlink" baseProfile="full" enable-background="new 0 0 81.946 100" height="600px" version="1.1" viewBox="0 0 81.946 100" width="492px" x="0px" xml:space="preserve" y="0px">
	<defs/>
	<path d="M 34.723,27.777 C 18.056,27.777 8.333,37.499 0.0,50.0 C 0.0,50.0 6.944,47.222 11.111,47.222 C 15.278,47.222 22.222,50.0 22.222,50.0 C 22.222,50.0 28.075000000000003,47.664 33.333,47.281 L 33.333,62.698 C 33.778999999999996,62.581 34.239,62.5 34.722,62.5 C 35.205000000000005,62.5 35.664,62.581 36.111000000000004,62.698 L 36.111000000000004,47.28 C 41.37,47.664 47.223,50.0 47.223,50.0 C 47.223,50.0 54.167,47.222 58.334,47.222 C 62.501000000000005,47.222 69.446,50.0 69.446,50.0 C 61.113,37.499 51.39,27.777 34.723,27.777"/>
	<path d="M 13.839,1.759 C 14.044,1.02 13.610000000000001,0.254 12.870000000000001,0.04899999999999993 C 12.138000000000002,-0.15000000000000008 11.368,0.2759999999999999 11.161000000000001,1.017 L 0.354,40.043 C 1.6680000000000001,38.396 3.071,36.798 4.5600000000000005,35.268 L 13.839,1.759"/>
	<path d="M 16.786,26.223 L 23.561,1.7590000000000003 C 23.766,1.0200000000000005 23.332,0.25400000000000045 22.593,0.04900000000000038 C 21.862,-0.14999999999999963 21.09,0.27600000000000036 20.884,1.0170000000000003 L 13.389,28.081 C 14.475,27.409 15.613,26.796 16.786,26.223"/>
	<path d="M 33.283,1.759 C 33.488,1.02 33.054,0.254 32.315,0.04899999999999993 C 31.583,-0.15000000000000008 30.810999999999996,0.2759999999999999 30.605999999999998,1.017 L 24.397999999999996,23.435 C 25.389999999999997,23.189999999999998 26.407999999999994,22.98 27.454999999999995,22.807 L 33.283,1.759"/>
	<path d="M 37.312,22.322 L 43.004999999999995,1.7590000000000003 C 43.211,1.0200000000000005 42.775999999999996,0.25400000000000045 42.03699999999999,0.04900000000000038 C 41.30799999999999,-0.14999999999999963 40.53499999999999,0.27600000000000036 40.32799999999999,1.0170000000000003 L 34.453999999999986,22.232 C 34.54499999999999,22.232 34.62999999999999,22.221 34.722999999999985,22.221 C 35.609,22.221 36.458,22.275 37.312,22.322"/>
	<path d="M 52.727,1.759 C 52.934,1.02 52.498999999999995,0.254 51.759,0.04899999999999993 C 51.029,-0.15000000000000008 50.256,0.2759999999999999 50.05,1.017 L 43.907999999999994,23.201 C 44.82699999999999,23.400000000000002 45.724999999999994,23.627 46.60099999999999,23.883 L 52.727,1.759"/>
	<path d="M 62.45,1.759 C 62.656000000000006,1.02 62.222,0.254 61.481,0.04899999999999993 C 60.749,-0.15000000000000008 59.978,0.2759999999999999 59.772,1.017 L 52.775999999999996,26.28 C 53.635999999999996,26.705000000000002 54.474,27.155 55.285999999999994,27.633000000000003 L 62.45,1.759"/>
	<path d="M 63.326,33.708 L 72.173,1.7589999999999968 C 72.379,1.019999999999997 71.944,0.2539999999999969 71.20400000000001,0.048999999999996824 C 70.47500000000001,-0.1500000000000032 69.70100000000001,0.2759999999999968 69.495,1.0169999999999968 L 61.013000000000005,31.654999999999998 C 61.804,32.318 62.58,33.001 63.326,33.708"/>
	<path d="M 80.926,0.049 C 80.197,-0.15000000000000002 79.423,0.276 79.217,1.017 L 68.581,39.427 C 69.313,40.323 70.026,41.229 70.711,42.147 L 81.894,1.759 C 82.101,1.02 81.667,0.254 80.926,0.049"/>
	<path d="M 35.509,65.404 C 35.477000000000004,65.39399999999999 35.447,65.383 35.415,65.375 C 35.192,65.317 34.963,65.277 34.723,65.277 C 34.483,65.277 34.253,65.31700000000001 34.031,65.375 C 33.999,65.384 33.967999999999996,65.395 33.935,65.404 C 32.788000000000004,65.746 31.945000000000004,66.797 31.945000000000004,68.05499999999999 C 31.945000000000004,74.948 26.338000000000005,80.55499999999999 19.445000000000004,80.55499999999999 L 4.167,80.55499999999999 C 1.865,80.555 0.0,82.42 0.0,84.722 L 0.0,100.0 L 5.556,100.0 L 5.556,88.89 L 8.334,88.89 L 8.334,100.0 L 22.223,100.0 L 22.223,90.278 C 22.575,87.21000000000001 25.616999999999997,85.191 27.198,84.337 C 27.508,84.19 27.818,84.05 28.116,83.884 C 28.128,83.879 28.15,83.871 28.15,83.871 L 28.136999999999997,83.87299999999999 C 33.712999999999994,80.79599999999999 37.501,74.86099999999999 37.501,68.05599999999998 C 37.5,66.796 36.657,65.745 35.509,65.404"/>
	<path cx="15.278" cy="70.833" d="M 8.334,70.833 A 6.944,6.944 0.0 1,0 22.222,70.833 A 6.944,6.944 0.0 1,0 8.334000000000001,70.833" r="6.944"/>
</svg>
