<?xml version="1.0" ?>
<svg xmlns="http://www.w3.org/2000/svg" xmlns:ev="http://www.w3.org/2001/xml-events" xmlns:xlink="http://www.w3.org/1999/xlink" baseProfile="full" enable-background="new 0 0 91.668 100" height="600px" version="1.1" viewBox="0 0 91.668 100" width="551px" x="0px" xml:space="preserve" y="0px">
	<defs/>
	<path d="M 91.668,76.389 L 91.668,0.0 L 0.0,0.0 L 0.0,76.389 L 38.889,76.389 L 38.889,83.333 C 39.063,89.139 20.834000000000003,90.277 20.834000000000003,95.833 L 20.834000000000003,100.0 L 45.834,100.0 L 70.83500000000001,100.0 L 70.83500000000001,95.833 C 70.83500000000001,90.277 52.605000000000004,89.139 52.778000000000006,83.333 L 52.778000000000006,76.389 L 91.668,76.389 M 8.333,68.056 L 8.333,8.333 L 83.334,8.333 L 83.334,68.055 L 8.333,68.055 L 8.333,68.056"/>
	<path d="M 37.5,20.833 L 34.722,16.665999999999997 L 16.667,16.665999999999997 L 16.667,59.721999999999994 L 73.613,59.721999999999994 L 73.613,20.833 L 37.5,20.833 M 59.722,44.444 L 50.0,44.444 L 50.0,54.167 L 41.667,54.167 L 41.667,44.444 L 31.945,44.444 L 31.945,36.111000000000004 L 41.667,36.111000000000004 L 41.667,26.388000000000005 L 50.0,26.388000000000005 L 50.0,36.111000000000004 L 59.723,36.111000000000004 L 59.723,44.444 L 59.722,44.444"/>
</svg>
