<?xml version="1.0" ?>
<svg xmlns="http://www.w3.org/2000/svg" xmlns:ev="http://www.w3.org/2001/xml-events" xmlns:xlink="http://www.w3.org/1999/xlink" baseProfile="full" enable-background="new 0 0 100 100" height="600px" version="1.1" viewBox="0 0 100 100" width="600px" x="0px" xml:space="preserve" y="0px">
	<defs/>
	<path d="M 99.718,74.429 L 92.774,50.819 C 91.69200000000001,47.139 87.82900000000001,45.031000000000006 84.152,46.116 C 80.473,47.199 78.367,51.058 79.45,54.738 L 83.775,69.445 L 70.833,69.445 L 62.5,69.445 L 37.5,69.445 L 29.167,69.445 L 16.76,69.445 L 21.826,55.08999999999999 C 23.102,51.47399999999999 21.205000000000002,47.50699999999999 17.589,46.23099999999999 C 13.971999999999998,44.95299999999999 10.004999999999999,46.850999999999985 8.729999999999999,50.46799999999999 L 0.396,74.078 C -0.354,76.203 -0.025999999999999968,78.56 1.275,80.399 C 2.577,82.24 4.691,83.333 6.943999999999999,83.333 L 29.166,83.333 L 29.166,100.0 L 70.833,100.0 L 70.833,83.333 L 93.056,83.333 C 95.245,83.333 97.30499999999999,82.301 98.616,80.54899999999999 C 99.927,78.797 100.335,76.528 99.718,74.429"/>
	<path d="M 50.0,37.5 C 42.329,37.5 36.111000000000004,43.717 36.111000000000004,51.388999999999996 C 36.111000000000004,59.06099999999999 42.328,65.27799999999999 50.0,65.27799999999999 C 57.672,65.27799999999999 63.888999999999996,59.06099999999999 63.888999999999996,51.388999999999996 C 63.889,43.717 57.672,37.5 50.0,37.5 M 57.642,49.458 C 57.271,49.791 56.787,50.0 56.25,50.0 C 55.1,50.0 54.167,49.067 54.167,47.917 C 54.167,47.198 54.533,46.563 55.088,46.188 C 55.42,45.964000000000006 55.82,45.834 56.25,45.834 C 57.4,45.834 58.333,46.767 58.333,47.917 C 58.333,48.53 58.063,49.076 57.642,49.458 M 45.833,47.917 C 45.833,49.067 44.9,50.0 43.75,50.0 C 43.213,50.0 42.728,49.791 42.358,49.457 C 41.936,49.076 41.666,48.53 41.666,47.916000000000004 C 41.666,46.766000000000005 42.599999999999994,45.833000000000006 43.748999999999995,45.833000000000006 C 44.17999999999999,45.833000000000006 44.57899999999999,45.964000000000006 44.91199999999999,46.187000000000005 C 45.468,46.562 45.833,47.197 45.833,47.917 M 50.0,61.111 C 46.373,61.111 43.296,58.79 42.150999999999996,55.555 L 57.85,55.555 C 56.703,58.79 53.627,61.111 50.0,61.111"/>
	<path d="M 66.667,11.111 L 55.556,11.111 L 55.556,0.0 L 44.444,0.0 L 44.444,11.111 L 33.333,11.111 L 33.333,22.222 L 44.444,22.222 L 44.444,33.333 L 55.556,33.333 L 55.556,22.222 L 66.667,22.222 L 66.667,11.111" points="66.667,11.111 55.556,11.111 55.556,0 44.444,0 44.444,11.111 33.333,11.111 33.333,22.222 44.444,22.222   44.444,33.333 55.556,33.333 55.556,22.222 66.667,22.222 "/>
</svg>
