<?xml version="1.0" ?>
<svg xmlns="http://www.w3.org/2000/svg" xmlns:ev="http://www.w3.org/2001/xml-events" xmlns:xlink="http://www.w3.org/1999/xlink" baseProfile="full" enable-background="new 0 0 97.718 100" height="600px" version="1.1" viewBox="0 0 97.718 100" width="587px" x="0px" xml:space="preserve" y="0px">
	<defs/>
	<path d="M 19.084,75.003 L 39.368,1.759 C 39.572,1.02 39.139,0.255 38.4,0.05 C 37.671,-0.15000000000000002 36.897999999999996,0.278 36.692,1.017 L 15.973,75.834 C 16.937,75.396 17.984,75.104 19.084,75.003"/>
	<path d="M 42.194,80.509 L 19.984,80.509 C 17.684,80.509 15.820000000000002,82.372 15.820000000000002,84.673 L 15.820000000000002,99.94200000000001 L 21.372,99.94200000000001 L 21.372,88.837 L 24.148,88.837 L 24.148,99.941 L 38.03,99.941 L 38.03,88.837 L 40.806,88.837 L 40.806,99.941 L 46.358,99.941 L 46.358,84.673 C 46.358,82.372 44.495,80.509 42.194,80.509"/>
	<path d="M 28.683,0.049 C 27.954,-0.15000000000000002 27.181,0.276 26.975,1.016 L 0.051,98.24 C -0.154,98.979 0.28,99.74499999999999 1.019,99.948 C 1.142,99.983 1.267,100.0 1.39,100.0 C 1.9969999999999999,100.0 2.556,99.596 2.726,98.982 L 29.651,1.757 C 29.855,1.019 29.422,0.253 28.683,0.049"/>
	<path d="M 15.82,84.673 L 15.82,86.789 L 17.276,81.533 C 16.391,82.296 15.82,83.413 15.82,84.673"/>
	<path d="M 33.6,57.677 L 49.084,1.757 C 49.289,1.0179999999999998 48.855000000000004,0.2529999999999999 48.116,0.04899999999999993 C 47.384,-0.15000000000000008 46.614,0.2759999999999999 46.408,1.016 L 30.781,57.446 C 30.884,57.443999999999996 30.983999999999998,57.431 31.089,57.431 C 31.947,57.432 32.785,57.52 33.6,57.677"/>
	<path d="M 57.833,0.049 C 57.102,-0.15000000000000002 56.330999999999996,0.276 56.125,1.016 L 39.642,60.539 C 40.478,61.239000000000004 41.219,62.044000000000004 41.864000000000004,62.923 L 58.801,1.757 C 59.005,1.018 58.571,0.253 57.833,0.049"/>
	<path d="M 68.518,1.757 C 68.722,1.0179999999999998 68.288,0.2529999999999999 67.55,0.04899999999999993 C 66.819,-0.15000000000000008 66.045,0.2759999999999999 65.842,1.016 L 45.229,75.448 C 46.138999999999996,75.749 46.989,76.17899999999999 47.759,76.719 L 68.518,1.757"/>
	<path d="M 78.235,1.757 C 78.438,1.0179999999999998 78.005,0.2529999999999999 77.267,0.04899999999999993 C 76.538,-0.15000000000000008 75.765,0.2759999999999999 75.559,1.016 L 51.91,86.409 L 51.91,96.81400000000001 L 78.235,1.757"/>
	<path d="M 86.984,0.049 C 86.252,-0.15000000000000002 85.479,0.276 85.276,1.016 L 58.352,98.24 C 58.145999999999994,98.979 58.58,99.74499999999999 59.31999999999999,99.948 C 59.44199999999999,99.98299999999999 59.565999999999995,100.0 59.690999999999995,100.0 C 60.297999999999995,100.0 60.85699999999999,99.596 61.028,98.982 L 87.952,1.757 C 88.155,1.019 87.721,0.253 86.984,0.049"/>
	<path d="M 96.701,0.049 C 95.969,-0.15000000000000002 95.196,0.276 94.993,1.016 L 68.069,98.24 C 67.863,98.979 68.297,99.74499999999999 69.037,99.948 C 69.159,99.98299999999999 69.283,100.0 69.408,100.0 C 70.015,100.0 70.574,99.596 70.745,98.982 L 97.668,1.757 C 97.872,1.019 97.438,0.253 96.701,0.049"/>
	<path cx="31.089" cy="70.792" d="M 24.148999999999997,70.792 A 6.94,6.94 0.0 1,0 38.028999999999996,70.792 A 6.94,6.94 0.0 1,0 24.148999999999994,70.792" r="6.94"/>
</svg>
