<?xml version="1.0" ?>
<svg xmlns="http://www.w3.org/2000/svg" xmlns:ev="http://www.w3.org/2001/xml-events" xmlns:xlink="http://www.w3.org/1999/xlink" baseProfile="full" enable-background="new 0 0 100 100" height="600px" version="1.1" viewBox="0 0 100 100" width="116px" x="0px" xml:space="preserve" y="0px">
	<defs/>
	<path d="M 44.0,86.0 L 44.0,89.0 C 44.0,89.0 44.0,94.0 50.0,94.0 C 56.0,94.0 56.0,89.0 56.0,89.0 L 56.0,86.0 L 44.0,86.0"/>
	<path d="M 55.0,6.0 C 53.232,4.232 46.768,4.232 45.0,6.0 C 37.0,14.0 45.0,63.0 45.0,63.0 L 55.0,63.0 C 55.0,63.0 63.0,14.0 55.0,6.0"/>
	<path d="M 45.0,68.0 L 55.0,68.0 L 55.0,85.0 L 45.0,85.0 L 45.0,68.0" height="17" width="10" x="45" y="68"/>
	<path d="M 44.0,64.0 L 56.0,64.0 L 56.0,67.0 L 44.0,67.0 L 44.0,64.0" height="3" width="12" x="44" y="64"/>
</svg>
