<?xml version="1.0" ?>
<svg xmlns="http://www.w3.org/2000/svg" xmlns:ev="http://www.w3.org/2001/xml-events" xmlns:xlink="http://www.w3.org/1999/xlink" baseProfile="full" enable-background="new 0 0 100 100" height="600px" version="1.1" viewBox="0 0 100 100" width="546px" x="0px" xml:space="preserve" y="0px">
	<defs/>
	<path d="M 75.0,70.0 L 73.0,69.0 L 80.0,66.0 L 67.0,4.0 L 54.0,66.0 L 61.0,69.0 L 59.0,70.0 L 46.0,63.0 L 57.0,75.0 L 77.0,75.0 L 88.0,63.0 L 75.0,70.0 M 67.5,71.0 C 66.675,71.0 66.0,70.1 66.0,69.0 L 67.375,42.062 L 69.0,69.0 C 69.0,70.1 68.325,71.0 67.5,71.0"/>
	<path d="M 21.0,26.0 L 23.0,27.0 L 16.0,30.0 L 29.0,92.0 L 42.0,30.0 L 35.0,27.0 L 37.0,26.0 L 50.0,33.0 L 39.0,21.0 L 19.0,21.0 L 8.0,33.0 L 21.0,26.0 M 28.5,25.0 C 29.325,25.0 30.0,25.9 30.0,27.0 L 28.625,53.938 L 27.0,27.0 C 27.0,25.9 27.675,25.0 28.5,25.0"/>
	<path d="M 79.0,76.0 L 56.0,76.0 L 52.0,80.0 L 52.0,88.0 L 56.0,92.0 L 61.0,92.0 L 61.0,87.0 L 57.0,87.0 L 56.0,86.0 L 56.0,81.0 L 57.0,80.0 L 78.0,80.0 L 79.0,81.0 L 79.0,86.0 L 78.0,87.0 L 74.0,87.0 L 74.0,92.0 L 79.0,92.0 L 83.0,88.0 L 83.0,80.0 L 79.0,76.0" points="79,76 56,76 52,80 52,88 56,92 61,92 61,87 57,87 56,86 56,81 57,80 78,80 79,81 79,86 78,87 74,87 74,92 79,92    83,88 83,80  "/>
	<path d="M 17.0,20.0 L 40.0,20.0 L 44.0,16.0 L 44.0,8.0 L 40.0,4.0 L 35.0,4.0 L 35.0,9.0 L 39.0,9.0 L 40.0,10.0 L 40.0,15.0 L 39.0,16.0 L 18.0,16.0 L 17.0,15.0 L 17.0,10.0 L 18.0,9.0 L 22.0,9.0 L 22.0,4.0 L 17.0,4.0 L 13.0,8.0 L 13.0,16.0 L 17.0,20.0" points="17,20 40,20 44,16 44,8 40,4 35,4 35,9 39,9 40,10 40,15 39,16 18,16 17,15 17,10 18,9 22,9 22,4 17,4 13,8 13,16     "/>
	<path d="M 62.0,87.0 L 67.0,87.0 L 67.0,92.0 L 62.0,92.0 L 62.0,87.0" height="5" width="5" x="62" y="87"/>
	<path d="M 68.0,87.0 L 73.0,87.0 L 73.0,92.0 L 68.0,92.0 L 68.0,87.0" height="5" width="5" x="68" y="87"/>
	<path d="M 29.0,4.0 L 34.0,4.0 L 34.0,9.0 L 29.0,9.0 L 29.0,4.0" height="5" width="5" x="29" y="4"/>
	<path d="M 23.0,4.0 L 28.0,4.0 L 28.0,9.0 L 23.0,9.0 L 23.0,4.0" height="5" width="5" x="23" y="4"/>
</svg>
