<?xml version="1.0" ?>
<svg xmlns="http://www.w3.org/2000/svg" xmlns:ev="http://www.w3.org/2001/xml-events" xmlns:xlink="http://www.w3.org/1999/xlink" baseProfile="full" enable-background="new 0 0 94.3 100" height="600px" version="1.1" viewBox="0 0 94.3 100" width="566px" x="0px" xml:space="preserve" y="0px">
	<defs/>
	<path d="M 94.3,100.0 C 92.232,100.0 90.262,99.526 88.50699999999999,98.724 C 86.69299999999998,97.873 84.648,97.375 82.52199999999999,97.375 C 80.38099999999999,97.375 78.362,97.873 76.53599999999999,98.724 C 74.768,99.526 72.796,100.0 70.728,100.0 C 68.66199999999999,100.0 66.69,99.526 64.93599999999999,98.724 C 63.09599999999999,97.873 61.08899999999999,97.375 58.949999999999996,97.375 C 56.809,97.375 54.766,97.873 52.964,98.724 C 51.196,99.526 49.224,100.0 47.156,100.0 C 45.091,100.0 43.117999999999995,99.526 41.339999999999996,98.724 C 39.537,97.873 37.492999999999995,97.375 35.378,97.375 C 33.238,97.375 31.194,97.873 29.391,98.724 C 27.625,99.526 25.652,100.0 23.597,100.0 C 21.53,100.0 19.559,99.526 17.779000000000003,98.724 C 15.976000000000003,97.873 13.932000000000004,97.375 11.818000000000003,97.375 C 9.678000000000003,97.375 7.634000000000003,97.873 5.833000000000003,98.724 C 4.065,99.526 2.07,100.0 0.0,100.0 L 0.0,91.201 C 2.07,91.201 4.065,90.72699999999999 5.833,89.91399999999999 C 7.634,89.088 9.678,88.58899999999998 11.818000000000001,88.58899999999998 C 13.933000000000002,88.58899999999998 15.977,89.08799999999998 17.779000000000003,89.91399999999999 C 19.559000000000005,90.72699999999999 21.530000000000005,91.201 23.597,91.201 C 25.652,91.201 27.625,90.72699999999999 29.39,89.91399999999999 C 31.193,89.088 33.237,88.58899999999998 35.377,88.58899999999998 C 37.492000000000004,88.58899999999998 39.536,89.08799999999998 41.339,89.91399999999999 C 43.117,90.72699999999999 45.089999999999996,91.201 47.155,91.201 C 49.223,91.201 51.195,90.72699999999999 52.963,89.91399999999999 C 54.766,89.088 56.809,88.58899999999998 58.949,88.58899999999998 C 61.089,88.58899999999998 63.095,89.08799999999998 64.935,89.91399999999999 C 66.68900000000001,90.72699999999999 68.661,91.201 70.727,91.201 C 72.795,91.201 74.76700000000001,90.72699999999999 76.535,89.91399999999999 C 78.36099999999999,89.088 80.381,88.58899999999998 82.521,88.58899999999998 C 84.647,88.58899999999998 86.69200000000001,89.08799999999998 88.506,89.91399999999999 C 90.261,90.72699999999999 92.231,91.201 94.299,91.201 L 94.299,100.0 L 94.3,100.0"/>
	<path d="M 26.686,56.836 C 31.075,56.836 34.644999999999996,53.227 34.644999999999996,48.778999999999996 C 34.644999999999996,44.343999999999994 31.074999999999996,40.759 26.685999999999996,40.759 C 22.310999999999996,40.759 18.740999999999996,44.343 18.740999999999996,48.778999999999996 C 18.741,53.227 22.312,56.836 26.686,56.836"/>
	<path d="M 27.816,84.653 C 26.566,86.80300000000001 23.826999999999998,87.54400000000001 21.698,86.25500000000001 C 19.558,85.00500000000001 18.836,82.22200000000001 20.075,80.072 L 38.525,47.954 C 39.198,46.739 40.183,45.742 41.362,45.086 L 65.08,30.552 L 81.174,2.834 C 82.70100000000001,0.13500000000000023 86.11200000000001,-0.7999999999999998 88.783,0.7440000000000002 C 91.438,2.3120000000000003 92.353,5.75 90.827,8.435 L 71.534,41.646 C 70.87400000000001,42.85 69.888,43.848 68.68400000000001,44.514 L 40.702,62.097 L 27.816,84.653"/>
</svg>
