<?xml version="1.0" ?>
<svg xmlns="http://www.w3.org/2000/svg" xmlns:ev="http://www.w3.org/2001/xml-events" xmlns:xlink="http://www.w3.org/1999/xlink" baseProfile="full" enable-background="new 0 0 99.083 100" height="600px" version="1.1" viewBox="0 0 99.083 100" width="595px" x="0px" xml:space="preserve" y="0px">
	<defs/>
	<path d="M 49.541,0.0 C 22.198,-0.018 0.025,22.375 0.0,49.974 C 0.025,77.619 22.198,100.009 49.541,100.0 C 76.895,100.009 99.064,77.619 99.083,49.974 C 99.064,22.375 76.894,-0.018 49.541,0.0 M 49.541,88.481 C 28.500999999999998,88.481 11.443999999999996,71.25 11.465999999999994,49.97299999999999 C 11.443,28.741 28.501,11.512 49.541,11.52 C 70.59,11.512 87.649,28.742 87.672,49.974000000000004 C 87.649,71.25 70.589,88.481 49.541,88.481"/>
	<path d="M 44.402,67.657 L 55.6,67.606 L 55.6,58.95 C 55.574,56.599000000000004 56.668,54.378 59.601,52.461000000000006 C 62.539,50.53000000000001 70.73,46.62700000000001 70.743,36.343 C 70.72999999999999,26.098000000000006 62.12799999999999,19.043000000000003 54.89399999999999,17.523000000000003 C 47.66899999999999,16.049000000000003 39.83599999999999,17.034000000000002 34.28899999999999,23.148000000000003 C 29.300999999999988,28.575000000000003 28.25199999999999,32.89 28.231999999999985,42.402 L 39.426999999999985,42.402 L 39.426999999999985,40.185 C 39.40499999999999,35.123000000000005 39.99199999999998,29.771 47.21599999999999,28.286 C 51.18999999999998,27.509 54.89799999999999,28.748 57.112999999999985,30.884 C 59.61099999999998,33.358000000000004 59.62999999999999,38.899 55.59999999999999,41.646 L 49.32499999999999,45.919 C 45.66999999999999,48.288 44.41199999999999,50.903 44.40299999999999,54.732 L 44.40299999999999,67.657 L 44.402,67.657"/>
	<path d="M 44.35,83.506 L 44.35,72.041 L 55.653,72.041 L 55.653,83.506 L 44.35,83.506 L 44.35,83.506" points="44.35,83.506 44.35,72.041 55.653,72.041 55.653,83.506 44.35,83.506 "/>
</svg>
