<?xml version="1.0" ?>
<svg xmlns="http://www.w3.org/2000/svg" xmlns:ev="http://www.w3.org/2001/xml-events" xmlns:xlink="http://www.w3.org/1999/xlink" baseProfile="full" enable-background="new 0 0 100 100" height="600px" version="1.1" viewBox="0 0 100 100" width="570px" x="0px" xml:space="preserve" y="0px">
	<defs/>
	<path d="M 50.304,99.651 C 24.221,99.651 3.0,78.431 3.0,52.348 C 3.0,39.312 8.459,26.727 17.979,17.814 C 20.399,15.558 24.18,15.684000000000001 26.442,18.092 C 28.698,20.506 28.575,24.293 26.161,26.552 C 18.943,33.308 14.969000000000001,42.469 14.969000000000001,52.349000000000004 C 14.969000000000001,71.834 30.819000000000003,87.684 50.304,87.684 C 69.789,87.684 85.63900000000001,71.834 85.63900000000001,52.349 C 85.63900000000001,42.690999999999995 81.811,33.66799999999999 74.86200000000001,26.946999999999996 C 72.489,24.649999999999995 72.42500000000001,20.859999999999996 74.72200000000001,18.483999999999995 C 77.019,16.116999999999994 80.80600000000001,16.040999999999993 83.185,18.343999999999994 C 92.483,27.340999999999994 97.60900000000001,39.419 97.60900000000001,52.349 C 97.608,78.431 76.387,99.651 50.304,99.651" fill="#000000"/>
	<path d="M 50.304,51.19 C 46.996,51.19 44.319,48.51 44.319,45.205 L 44.319,5.985 C 44.319,2.68 46.996,0.0 50.304,0.0 C 53.612,0.0 56.289,2.68 56.289,5.985 L 56.289,45.205999999999996 C 56.288,48.511 53.612,51.19 50.304,51.19" fill="#000000"/>
</svg>
