<?xml version="1.0" ?>
<svg xmlns="http://www.w3.org/2000/svg" xmlns:a="http://ns.adobe.com/AdobeSVGViewerExtensions/3.0/" xmlns:ev="http://www.w3.org/2001/xml-events" xmlns:xlink="http://www.w3.org/1999/xlink" baseProfile="full" enable-background="new -1 -6.649 100 100" height="531px" overflow="visible" version="1.1" viewBox="-1 -6.649 100 100" width="600px" x="0px" xml:space="preserve" y="0px">
	<defs/>
	<path d="M 74.421,0.0 L 23.579,0.0 C 10.557,0.0 0.0,10.558 0.0,23.579 L 0.0,63.122 C 0.0,76.143 10.557,86.701 23.579,86.701 L 74.42099999999999,86.701 C 87.444,86.702 98.0,76.144 98.0,63.123 L 98.0,23.579 C 98.0,10.558 87.444,0.0 74.421,0.0 M 47.477,67.819 C 47.477,72.821 43.419999999999995,76.878 38.416999999999994,76.878 L 18.882,76.878 C 13.881,76.878 9.824000000000002,72.821 9.824000000000002,67.819 L 9.824000000000002,52.625 C 9.824000000000002,47.625 13.880000000000003,43.566 18.882,43.566 L 38.416,43.566 C 43.419,43.566 47.476,47.625 47.476,52.625 L 47.476,67.819 L 47.477,67.819 M 84.018,18.73 L 78.663,38.725 C 77.705,42.292 74.788,43.073 72.17699999999999,40.462 L 69.865,38.150000000000006 L 62.108999999999995,45.906000000000006 C 60.089999999999996,47.92300000000001 56.81699999999999,47.92300000000001 54.80199999999999,45.906000000000006 L 52.09799999999999,43.202000000000005 C 50.07999999999999,41.185 50.08099999999999,37.914 52.09799999999999,35.895 L 59.85699999999999,28.139000000000003 L 57.54299999999999,25.825000000000003 C 54.931999999999995,23.213 55.71199999999999,20.297000000000004 59.27899999999999,19.341 L 79.273,13.984000000000002 C 82.837,13.029 84.973,15.165 84.018,18.73" fill="#000000"/>
</svg>
