<?xml version="1.0" ?>
<svg xmlns="http://www.w3.org/2000/svg" xmlns:ev="http://www.w3.org/2001/xml-events" xmlns:xlink="http://www.w3.org/1999/xlink" baseProfile="full" enable-background="new 0 0 78.106 100" height="600px" version="1.1" viewBox="0 0 78.106 100" width="469px" x="0px" xml:space="preserve" y="0px">
	<defs/>
	<path d="M 39.134,0.0 C 40.527,5.851 42.669,11.078 45.564,15.679 C 48.456,20.283 53.61,25.983 61.031,32.779 C 68.45,39.576 73.15,44.789 75.134,48.416000000000004 C 77.114,52.044000000000004 78.108,55.728 78.108,59.465 C 78.108,64.66300000000001 76.39200000000001,68.995 72.964,72.461 C 69.535,75.926 65.358,77.66 60.429,77.66 C 56.25,77.66 52.459,76.348 49.058,73.721 C 45.656,71.095 42.643,67.262 40.019,62.226000000000006 C 40.071,70.186 41.104,76.51 43.114,81.194 C 45.120999999999995,85.879 48.336999999999996,89.562 52.756,92.242 C 57.174,94.924 63.054,96.50800000000001 70.393,96.992 L 70.954,100.0 L 7.234,100.0 L 7.876,96.991 C 17.732,96.991 25.378,94.083 30.817,88.261 C 36.254,82.441 38.864000000000004,73.762 38.650999999999996,62.226 C 36.239999999999995,67.372 33.254999999999995,71.231 29.691999999999997,73.80199999999999 C 26.129999999999995,76.374 22.098999999999997,77.66 17.598999999999997,77.66 C 12.777999999999997,77.66 8.639999999999997,75.901 5.184999999999997,72.37899999999999 C 1.729,68.86 0.0,64.638 0.0,59.708 C 0.0,55.754999999999995 0.886,52.18 2.654,48.983999999999995 C 5.064,44.544 8.972,40.077 14.384,35.58 C 19.795,31.084999999999997 23.787,27.377 26.357,24.451999999999998 C 30.267,19.956999999999997 33.12,15.950999999999999 34.915,12.429999999999998 C 36.71,8.91 38.117,4.767 39.134,0.0"/>
</svg>
