<?xml version="1.0" ?>
<svg xmlns="http://www.w3.org/2000/svg" xmlns:ev="http://www.w3.org/2001/xml-events" xmlns:xlink="http://www.w3.org/1999/xlink" baseProfile="full" enable-background="new 0 0 100 100" height="600px" version="1.1" viewBox="0 0 100 100" width="600px" x="0px" xml:space="preserve" y="0px">
	<defs/>
	<path d="M 48.875,75.0 C 38.397999999999996,75.0 29.875,66.477 29.875,56.0 C 29.875,45.522999999999996 38.397999999999996,37.0 48.875,37.0 C 59.352000000000004,37.0 67.875,45.522999999999996 67.875,56.0 C 67.875,66.477 59.352,75.0 48.875,75.0 M 48.875,39.0 C 39.501,39.0 31.875,46.626 31.875,56.0 C 31.875,65.374 39.501,73.0 48.875,73.0 C 58.249,73.0 65.875,65.374 65.875,56.0 C 65.875,46.626000000000005 58.249,39.0 48.875,39.0" fill="#000000"/>
	<path d="M 48.875,59.458 C 46.968,59.458 45.417,57.907 45.417,56.0 C 45.417,54.093 46.968,52.542 48.875,52.542 C 50.782,52.542 52.333,54.093 52.333,56.0 C 52.333,57.907 50.782,59.458 48.875,59.458 M 48.875,54.542 C 48.071,54.542 47.417,55.196000000000005 47.417,56.0 C 47.417,56.803999999999995 48.071000000000005,57.458 48.875,57.458 C 49.678999999999995,57.458 50.333,56.803999999999995 50.333,56.0 C 50.333,55.196000000000005 49.679,54.542 48.875,54.542" fill="#000000"/>
	<path d="M 50.0,74.0 L 48.0,74.0 L 48.0,68.0 L 49.801,68.0 L 50.0,69.0 L 50.0,74.0" fill="#000000" points="50,74 48,74 48,68 49.801,68 50,69   "/>
	<path d="M 50.0,44.0 L 48.0,44.0 L 48.0,38.0 L 49.801,38.0 L 50.0,38.938 L 50.0,44.0" fill="#000000" points="50,44 48,44 48,38 49.801,38 50,38.938   "/>
	<path d="M 65.88,57.0 L 61.0,57.0 L 61.0,55.074 L 61.797,55.0 L 67.0,55.0 L 67.0,57.0 L 65.88,57.0" fill="#000000" points="65.88,57 61,57 61,55.074 61.797,55 67,55 67,57   "/>
	<path d="M 36.067,57.0 L 31.0,57.0 L 31.0,55.074 L 31.984,55.0 L 37.0,55.0 L 37.0,57.0 L 36.067,57.0" fill="#000000" points="36.067,57 31,57 31,55.074 31.984,55 37,55 37,57   "/>
	<path d="M 48.0,46.0 L 50.0,46.0 L 50.0,53.0 L 48.0,53.0 L 48.0,46.0" fill="#000000" height="7" width="2" x="48" y="46"/>
	<path d="M 48.844,61.382 L 60.67,61.382 L 60.67,62.382 L 48.844,62.382 L 48.844,61.382" fill="#000000" height="1" transform="matrix(0.7071 0.7071 -0.7071 0.7071 59.7955 -20.5944)" width="11.826" x="48.844" y="61.382"/>
	<path d="M 58.813,43.125 L 59.813,43.125 L 59.813,48.0 L 58.813,48.0 L 58.813,43.125" fill="#000000" height="4.875" transform="matrix(0.7071 0.7071 -0.7071 0.7071 49.5898 -28.5953)" width="1" x="58.813" y="43.125"/>
	<path d="M 36.156,45.063 L 41.031,45.063 L 41.031,46.063 L 36.156,46.063 L 36.156,45.063" fill="#000000" height="1" transform="matrix(0.7071 0.7072 -0.7072 0.7071 43.5255 -13.9444)" width="4.875" x="36.156" y="45.063"/>
	<path d="M 59.793,67.74 L 62.562,67.74 L 62.562,68.74 L 59.793,68.74 L 59.793,67.74" fill="#000000" height="1" transform="matrix(0.7071 0.7071 -0.7071 0.7071 66.1712 -23.2719)" width="2.769" x="59.793" y="67.74"/>
	<path d="M 38.094,63.906 L 39.094,63.906 L 39.094,68.781 L 38.094,68.781 L 38.094,63.906" fill="#000000" height="4.875" transform="matrix(0.7071 0.7071 -0.7071 0.7071 58.2159 -7.8581)" width="1" x="38.094" y="63.906"/>
</svg>
