<?xml version="1.0" ?>
<svg xmlns="http://www.w3.org/2000/svg" xmlns:ev="http://www.w3.org/2001/xml-events" xmlns:xlink="http://www.w3.org/1999/xlink" baseProfile="full" enable-background="new 0 0 100 100" height="600px" version="1.1" viewBox="0 0 100 100" width="587px" x="0px" xml:space="preserve" y="0px">
	<defs/>
	<path d="M 50.0,78.334 C 49.874,78.334 49.748,78.311 49.627,78.262 L 30.627000000000002,70.624 C 30.248,70.472 30.0,70.104 30.0,69.696 L 30.0,64.0 C 30.0,63.447 30.448,64.0 31.0,64.0 C 31.552,64.0 32.0,64.447 32.0,65.0 L 32.0,69.021 L 49.0,75.855 L 49.0,59.058 L 31.011,51.836 C 30.497999999999998,51.629999999999995 30.25,51.048 30.455,50.535 C 30.659999999999997,50.02199999999999 31.241999999999997,49.773999999999994 31.755999999999997,49.979 L 50.372,57.454 C 50.751,57.606 51.0,57.974 51.0,58.382 L 51.0,77.334 C 51.0,77.666 50.835,77.977 50.56,78.162 C 50.392,78.276 50.197,78.334 50.0,78.334" fill="#000000"/>
	<path d="M 50.0,78.334 C 49.8,78.334 49.602,78.274 49.433,78.157 C 49.162,77.971 49.0,77.663 49.0,77.334 L 49.0,58.382 C 49.0,57.967 49.256,57.596 49.643,57.446999999999996 L 69.643,49.809 C 69.95,49.69 70.294,49.733 70.56700000000001,49.919 C 70.838,50.106 71.0,50.414 71.0,50.743 L 71.0,69.696 C 71.0,70.111 70.744,70.482 70.356,70.631 L 50.355999999999995,78.269 C 50.241,78.313 50.121,78.334 50.0,78.334 M 51.0,59.07 L 51.0,75.882 L 69.0,69.00800000000001 L 69.0,52.195 L 51.0,59.07" fill="#000000"/>
	<path d="M 70.112,51.743 C 69.991,51.743 69.868,51.722 69.74799999999999,51.675000000000004 L 50.04299999999999,43.972 L 32.50999999999999,51.287 C 32.0,51.5 31.416,51.259 31.203,50.75 C 30.99,50.24 31.230999999999998,49.653999999999996 31.741,49.442 L 49.647,41.971000000000004 C 49.888,41.871 50.155,41.868 50.397,41.963 L 70.478,49.813 C 70.993,50.014 71.247,50.594 71.04499999999999,51.108000000000004 C 70.89,51.502 70.512,51.743 70.112,51.743" fill="#000000"/>
	<path d="M 42.027,69.324 C 41.958,69.324 41.888,69.31 41.822,69.28 L 23.056000000000004,60.873000000000005 C 22.918000000000003,60.81100000000001 22.815000000000005,60.690000000000005 22.777000000000005,60.543000000000006 C 22.739000000000004,60.397000000000006 22.769000000000005,60.24100000000001 22.860000000000003,60.11900000000001 L 30.0,50.494 L 30.0,36.968 C 30.0,36.763000000000005 30.125,36.579 30.315,36.504000000000005 L 49.315,28.929000000000006 C 49.467,28.866000000000007 49.643,28.887000000000004 49.781,28.979000000000006 C 49.918,29.072 50.0,29.227 50.0,29.393 L 50.0,43.0 L 49.0,43.0 L 49.0,30.131 L 31.0,37.307 L 31.0,50.659000000000006 C 31.0,50.766000000000005 30.965,50.87100000000001 30.901,50.95700000000001 L 24.033,60.215 L 41.858000000000004,68.20100000000001 L 49.054,58.14300000000001 L 49.867000000000004,58.72500000000001 L 42.43300000000001,69.11500000000001 C 42.337,69.25 42.185,69.324 42.027,69.324" fill="#000000"/>
	<path d="M 49.986,56.267 C 49.925,56.267 49.864,56.256 49.806999999999995,56.234 L 36.778999999999996,51.238 C 36.589,51.165 36.461999999999996,50.984 36.458,50.78 C 36.455,50.576 36.574999999999996,50.391 36.763,50.311 L 49.79,44.774 C 49.912,44.722 50.048,44.721000000000004 50.17,44.769 L 63.475,50.036 C 63.666000000000004,50.111000000000004 63.791000000000004,50.296 63.791000000000004,50.501000000000005 C 63.791000000000004,50.70600000000001 63.666000000000004,50.891000000000005 63.475,50.96600000000001 L 50.17,56.231 C 50.111,56.255 50.049,56.267 49.986,56.267 M 38.293,50.746 L 49.983,55.230000000000004 L 61.93299999999999,50.5 L 49.992999999999995,45.774 L 38.293,50.746" fill="#000000"/>
</svg>
