<?xml version="1.0" ?>
<svg xmlns="http://www.w3.org/2000/svg" xmlns:ev="http://www.w3.org/2001/xml-events" xmlns:xlink="http://www.w3.org/1999/xlink" baseProfile="full" enable-background="new 0 0 100 100" height="600px" version="1.1" viewBox="0 0 100 100" width="495px" x="0px" xml:space="preserve" y="0px">
	<defs/>
	<path d="M 49.73,76.959 C 49.394,76.959 49.080999999999996,76.791 48.895999999999994,76.51100000000001 L 31.525,50.237 C 31.264,49.842 31.314999999999998,49.319 31.648,48.983000000000004 L 40.116,40.406000000000006 C 40.304,40.21600000000001 40.56,40.10900000000001 40.827,40.10900000000001 L 58.307,40.10900000000001 C 58.568000000000005,40.10900000000001 58.819,40.211000000000006 59.005,40.39300000000001 L 67.799,48.970000000000006 C 68.143,49.30500000000001 68.19900000000001,49.837 67.935,50.23800000000001 L 50.564,76.511 C 50.379,76.791 50.066,76.959 49.73,76.959 M 33.641,49.811 L 49.73,74.146 L 65.81099999999999,49.824 L 57.9,42.108 L 41.246,42.108 L 33.641,49.811" fill="#000000"/>
	<path d="M 55.822,50.811 L 49.671,41.976 L 43.367,50.789 L 40.351,41.259 L 41.304,40.958 L 43.717,48.581 L 49.682,40.241 L 55.473,48.56 L 57.83,40.96 L 58.785,41.256 L 55.822,50.811" fill="#000000" stroke="#010101" stroke-miterlimit="10"/>
	<path d="M 32.359,49.185 L 67.101,49.185 L 67.101,50.185 L 32.359,50.185 L 32.359,49.185" fill="#000000" points="55.822,50.811 49.671,41.976 43.367,50.789 40.351,41.259 41.304,40.958 43.717,48.581    49.682,40.241 55.473,48.56 57.83,40.96 58.785,41.256  "/>
	<path d="M 33.055,62.096 L 59.989999999999995,62.096 L 59.989999999999995,63.096 L 33.055,63.096 L 33.055,62.096" fill="#000000" height="1" width="34.742" x="32.359" y="49.185"/>
	<path d="M 52.19,49.358 L 53.19,49.358 L 53.19,76.292 L 52.19,76.292 L 52.19,49.358" fill="#000000" height="1" transform="matrix(-0.2262 -0.9741 0.9741 -0.2262 -3.9276 122.0718)" width="26.935" x="33.055" y="62.096"/>
	<path d="M 69.066,36.247 L 70.066,36.247 L 70.066,45.958 L 69.066,45.958 L 69.066,36.247" fill="#000000" height="26.934" transform="matrix(-0.9758 -0.2188 0.2188 -0.9758 90.3575 135.6553)" width="1" x="52.19" y="49.358"/>
	<path d="M 24.768,40.6 L 34.544,40.6 L 34.544,41.6 L 24.768,41.6 L 24.768,40.6" fill="#000000" height="9.711" transform="matrix(-0.7071 -0.7071 0.7071 -0.7071 89.693 119.3571)" width="1" x="69.066" y="36.247"/>
	<path d="M 33.592,31.747 L 44.018,31.747 L 44.018,33.747 L 33.592,33.747 L 33.592,31.747" fill="#000000" height="1" transform="matrix(-0.7127 -0.7015 0.7015 -0.7127 21.9607 91.1954)" width="9.776" x="24.768" y="40.6"/>
	<path d="M 59.4,27.507 L 61.4,27.507 L 61.4,37.986000000000004 L 59.4,37.986000000000004 L 59.4,27.507" fill="#000000" height="2" transform="matrix(-0.3883 -0.9215 0.9215 -0.3883 23.6952 81.2229)" width="10.426" x="33.592" y="31.747"/>
	<path d="M 49.176,22.0 L 50.176,22.0 L 50.176,35.788 L 49.176,35.788 L 49.176,22.0" fill="#000000" height="10.479" transform="matrix(-0.9168 -0.3993 0.3993 -0.9168 102.6997 86.8865)" width="2" x="59.4" y="27.507"/>
</svg>
