<?xml version="1.0" ?>
<svg xmlns="http://www.w3.org/2000/svg" xmlns:ev="http://www.w3.org/2001/xml-events" xmlns:xlink="http://www.w3.org/1999/xlink" baseProfile="full" enable-background="new 0 0 100 100" height="600px" version="1.1" viewBox="0 0 100 100" width="595px" x="0px" xml:space="preserve" y="0px">
	<defs/>
	<path d="M 70.0,69.0 L 31.0,69.0 C 30.448,69.0 30.0,68.553 30.0,68.0 L 30.0,41.0 C 30.0,40.448 30.448,40.0 31.0,40.0 L 70.0,40.0 C 70.553,40.0 71.0,40.448 71.0,41.0 L 71.0,68.0 C 71.0,68.553 70.553,69.0 70.0,69.0 M 32.0,67.0 L 69.0,67.0 L 69.0,42.0 L 32.0,42.0 L 32.0,67.0" fill="#000000"/>
	<path d="M 30.5,68.5 C 30.224,68.5 30.0,68.276 30.0,68.0 L 30.0,40.878 C 30.0,40.774 30.033,40.672 30.093,40.587 L 33.093,36.39 C 33.254000000000005,36.165 33.566,36.113 33.790000000000006,36.274 C 34.01500000000001,36.435 34.06700000000001,36.747 33.906000000000006,36.971000000000004 L 31.0,41.038 L 31.0,68.0 C 31.0,68.276 30.776,68.5 30.5,68.5" fill="#000000"/>
	<path d="M 70.5,68.5 C 70.224,68.5 70.0,68.276 70.0,68.0 L 70.0,41.119 L 66.117,36.49 C 65.93900000000001,36.279 65.967,35.963 66.179,35.785000000000004 C 66.391,35.608000000000004 66.705,35.635000000000005 66.883,35.847 L 70.883,40.615 C 70.959,40.706 71.0,40.819 71.0,40.937 L 71.0,68.0 C 71.0,68.276 70.776,68.5 70.5,68.5" fill="#000000"/>
	<path d="M 66.989,37.625 C 66.985,37.625 66.977,37.625 66.96900000000001,37.625 L 33.292,37.625 C 33.120000000000005,37.625 32.96,37.537 32.869,37.391 C 32.778,37.245 32.767,37.062999999999995 32.842,36.909 L 37.166,27.909 C 37.248999999999995,27.736 37.424,27.625 37.617,27.625 L 62.68,27.625 C 62.872,27.625 63.048,27.736 63.131,27.91 L 67.367,36.798 C 67.443,36.886 67.489,37.0 67.489,37.126000000000005 C 67.489,37.401 67.266,37.625 66.989,37.625 M 34.086,36.625 L 66.17699999999999,36.625 L 62.36399999999999,28.625 L 37.93,28.625 L 34.086,36.625" fill="#000000"/>
	<path d="M 62.68,55.0 L 38.009,55.0 C 37.823,55.0 37.653,54.897 37.567,54.732 L 30.594,41.464 C 30.465,41.22 30.559,40.918 30.804000000000002,40.789 C 31.048000000000002,40.660000000000004 31.351000000000003,40.754000000000005 31.479000000000003,40.999 L 38.312000000000005,53.999 L 62.38,53.999 L 69.211,41.194 C 69.342,40.95 69.645,40.861000000000004 69.888,40.988 C 70.131,41.118 70.224,41.421 70.09400000000001,41.664 L 63.12100000000001,54.734 C 63.034,54.898 62.864,55.0 62.68,55.0" fill="#000000"/>
</svg>
