<?xml version="1.0" ?>
<svg xmlns="http://www.w3.org/2000/svg" xmlns:ev="http://www.w3.org/2001/xml-events" xmlns:xlink="http://www.w3.org/1999/xlink" baseProfile="full" enable-background="new 0 0 82.025 100" height="600px" version="1.1" viewBox="0 0 82.025 100" width="493px" x="0px" xml:space="preserve" y="0px">
	<defs/>
	<path d="M 63.122,22.983 L 53.58,15.473 L 53.58,0.0 C 49.683,1.985 42.964,8.479 44.723,17.559 C 44.905,20.239 46.977,27.124000000000002 46.094,30.878 C 44.905,35.886 44.466,35.994 37.344,44.964 L 1.64,88.975 C -0.7529999999999999,91.711 -0.498,95.911 2.21,98.339 C 4.9190000000000005,100.767 9.044,100.5 11.447,97.761 L 56.131,42.276999999999994 C 58.946,38.730999999999995 64.129,35.602 68.621,34.37499999999999 C 76.329,32.004999999999995 82.02499999999999,24.778999999999993 82.02499999999999,16.200999999999993 C 82.02499999999999,9.288999999999994 78.079,2.746999999999993 72.89699999999999,0.0009999999999941167 L 72.871,15.230999999999995 L 63.122,22.983"/>
</svg>
