<?xml version="1.0" ?>
<svg xmlns="http://www.w3.org/2000/svg" xmlns:ev="http://www.w3.org/2001/xml-events" xmlns:xlink="http://www.w3.org/1999/xlink" baseProfile="full" enable-background="new 0 0 100 100" height="600px" version="1.1" viewBox="0 0 100 100" width="488px" x="0px" xml:space="preserve" y="0px">
	<defs/>
	<path d="M 30.0,71.0 L 76.0,71.0 L 76.0,21.0 C 76.0,18.791 74.209,17.0 72.0,17.0 L 30.0,17.0 C 26.7,17.0 24.0,19.7 24.0,23.0 L 24.0,75.0 C 24.0,78.314 26.686,81.0 30.0,81.0 C 30.0,81.0 72.429,81.0 72.555,81.0 C 74.03200000000001,81.0 75.307,80.191 76.0,79.0 L 30.0,79.0 C 27.794,79.0 26.0,77.206 26.0,75.0 C 26.0,72.794 27.794,71.0 30.0,71.0 M 50.0,69.0 C 48.895,69.0 48.0,68.105 48.0,67.0 C 48.0,65.895 48.895,65.0 50.0,65.0 C 51.105,65.0 52.0,65.895 52.0,67.0 C 52.0,68.105 51.105,69.0 50.0,69.0 M 32.0,25.0 L 68.0,25.0 L 68.0,63.0 L 32.0,63.0 L 32.0,25.0" fill="#000000"/>
	<path d="M 30.0,73.5 L 76.0,73.5 L 76.0,72.5 L 30.0,72.5 C 28.622,72.5 27.5,73.621 27.5,75.0 C 27.5,76.379 28.622,77.5 30.0,77.5 L 76.0,77.5 L 76.0,76.5 L 30.0,76.5 C 29.173000000000002,76.5 28.5,75.827 28.5,75.0 C 28.5,74.173 29.173,73.5 30.0,73.5" fill="#000000"/>
	<path d="M 30.0,74.5 C 29.724,74.5 29.5,74.724 29.5,75.0 C 29.5,75.276 29.724,75.5 30.0,75.5 L 76.0,75.5 L 76.0,74.5 L 30.0,74.5" fill="#000000"/>
</svg>
