<?xml version="1.0" ?>
<svg xmlns="http://www.w3.org/2000/svg" xmlns:ev="http://www.w3.org/2001/xml-events" xmlns:xlink="http://www.w3.org/1999/xlink" baseProfile="full" enable-background="new 0 0 100 100" height="390px" version="1.1" viewBox="0 0 100 100" width="600px" x="0px" xml:space="preserve" y="0px">
	<defs/>
	<path d="M 80.579,78.0 L 76.28,78.0 L 76.28,37.331 C 76.28,37.315000000000005 76.253,35.891000000000005 75.44200000000001,35.05500000000001 C 74.95700000000001,34.556000000000004 74.21400000000001,34.31300000000001 73.203,34.31300000000001 L 27.109,34.31300000000001 C 26.088,34.31300000000001 25.360000000000003,34.54900000000001 24.875,35.03900000000001 C 24.064,35.845000000000006 24.023,37.17700000000001 24.023,37.33100000000001 L 24.023,78.0 L 19.719,78.0 L 19.719,37.406 C 19.715,36.87 19.769000000000002,34.114 21.78,32.056 C 22.691000000000003,31.118999999999996 24.343,30.002999999999997 27.109,30.002999999999997 L 73.203,30.002999999999997 C 75.955,30.002999999999997 77.617,31.119999999999997 78.523,32.056 C 80.52799999999999,34.114 80.592,36.87 80.579,37.406 L 80.579,78.0 M 76.56,77.714 L 80.295,77.714 L 80.295,37.406 C 80.3,36.884 80.249,34.226 78.31700000000001,32.256 C 77.45200000000001,31.359 75.85400000000001,30.287 73.203,30.287 L 27.109,30.287 C 24.444000000000003,30.287 22.851000000000003,31.358 21.981,32.256 C 20.049000000000003,34.234 19.999000000000002,36.884 20.003,37.398 L 20.003,77.714 L 23.734,77.714 L 23.734,37.333 L 23.73,37.189 L 23.744,37.189 C 23.776,36.768 23.909,35.603 24.669,34.838 C 25.21,34.291000000000004 26.01,34.021 27.109,34.021 L 73.203,34.021 C 74.302,34.021 75.099,34.298 75.648,34.852000000000004 C 76.54899999999999,35.779 76.559,37.32000000000001 76.559,37.333000000000006 L 76.559,37.388000000000005 L 76.559,77.714 L 76.56,77.714" fill="#000000"/>
	<path d="M 5.0,60.719 C 5.0,70.188 12.669,77.856 22.127,77.856 C 31.406999999999996,77.856 38.971000000000004,70.46199999999999 39.245999999999995,61.248999999999995 L 40.01499999999999,61.227 C 40.50899999999999,63.270999999999994 42.340999999999994,64.795 44.538,64.795 C 47.096999999999994,64.795 49.184999999999995,62.714 49.184999999999995,60.148 L 50.824,60.148 L 50.824,60.885000000000005 C 50.824,61.114000000000004 50.998,61.290000000000006 51.227,61.290000000000006 L 52.705999999999996,61.290000000000006 C 52.931,61.290000000000006 53.108999999999995,61.114000000000004 53.108999999999995,60.885000000000005 L 53.108999999999995,58.473000000000006 C 53.108999999999995,58.25000000000001 52.92999999999999,58.06300000000001 52.705999999999996,58.06300000000001 L 51.227,58.06300000000001 C 50.998,58.06300000000001 50.824,58.25100000000001 50.824,58.473000000000006 L 50.824,59.327000000000005 L 49.107,59.327000000000005 C 48.988,58.693000000000005 48.741,58.093 48.393,57.569 L 66.697,36.053000000000004 L 67.764,39.063 C 67.93299999999999,39.537 68.372,39.830000000000005 68.84899999999999,39.830000000000005 C 68.972,39.830000000000005 69.10099999999998,39.80800000000001 69.22399999999999,39.766000000000005 C 69.51299999999999,39.656000000000006 69.74199999999999,39.45700000000001 69.86999999999999,39.191 L 71.86599999999999,44.948 C 65.72599999999998,47.56 61.42799999999998,53.644999999999996 61.42799999999998,60.72 C 61.42799999999998,70.189 69.09699999999998,77.857 78.55599999999998,77.857 C 88.01499999999999,77.857 95.68799999999999,70.189 95.68799999999999,60.72 C 95.68799999999999,51.263999999999996 88.01499999999999,43.595 78.55599999999998,43.595 C 76.89399999999998,43.595 75.27799999999998,43.826 73.75299999999999,44.278 L 71.54599999999999,37.891 C 71.35799999999999,37.361999999999995 70.791,37.085 70.264,37.266 C 70.027,37.348 69.84299999999999,37.516 69.72399999999999,37.726 L 67.17399999999999,30.554 C 67.077,30.284 66.88999999999999,30.075 66.65599999999999,29.939999999999998 L 65.946,27.945999999999998 L 73.995,22.564 C 74.08200000000001,22.585 74.183,22.594 74.27000000000001,22.594 C 75.22600000000001,22.594 75.99100000000001,21.813000000000002 75.99100000000001,20.87 C 75.99100000000001,19.913 75.22600000000001,19.144000000000002 74.27000000000001,19.144000000000002 C 73.33100000000002,19.144000000000002 72.55700000000002,19.913 72.55700000000002,20.87 C 72.55700000000002,21.048000000000002 72.58400000000002,21.231 72.63000000000001,21.394000000000002 L 64.09200000000001,27.112000000000002 C 63.70200000000001,27.376 63.597000000000016,27.911 63.863000000000014,28.3 C 63.987000000000016,28.488 64.17500000000001,28.611 64.37200000000001,28.664 L 65.03500000000001,30.509 C 64.94400000000002,30.759 64.92600000000002,31.029 65.00800000000001,31.292 L 38.65100000000001,39.647000000000006 L 38.65100000000001,39.63100000000001 C 38.65100000000001,38.96500000000001 38.06000000000001,38.39500000000001 37.22700000000001,38.17300000000001 L 33.70600000000001,28.71200000000001 C 33.61900000000001,28.45100000000001 33.43600000000001,28.25200000000001 33.20700000000001,28.126000000000012 C 33.912000000000006,28.05300000000001 34.32000000000001,27.86300000000001 34.94200000000001,27.444000000000013 C 35.51400000000001,27.050000000000015 35.931000000000004,26.776000000000014 36.659000000000006,26.776000000000014 C 37.62500000000001,26.776000000000014 38.59100000000001,26.829000000000015 39.562000000000005,26.863000000000014 C 39.86900000000001,26.877000000000013 41.654,27.046000000000014 41.036,26.172000000000015 C 40.857,25.924000000000014 40.289,25.870000000000015 40.015,25.805000000000014 C 39.278,25.624000000000013 38.518,25.508000000000013 37.767,25.370000000000015 C 36.325,25.118000000000016 34.846000000000004,25.235000000000014 33.372,25.095000000000017 C 31.81,24.942000000000018 30.259,24.804000000000016 28.701999999999998,24.651000000000018 C 27.997,24.578000000000017 27.319,24.436000000000018 26.61,24.394000000000016 C 26.320999999999998,24.383000000000017 25.832,24.307000000000016 25.63,24.518000000000015 C 25.474,24.664000000000016 25.383,25.301000000000016 25.447,25.475000000000016 C 25.721999999999998,26.189000000000014 26.765,25.910000000000014 27.256,26.171000000000017 C 27.384,26.235000000000017 27.38,26.39300000000002 27.503,26.45700000000002 C 27.631,26.52800000000002 27.819,26.51600000000002 27.961,26.535000000000018 C 28.372999999999998,26.58800000000002 28.395999999999997,26.727000000000018 28.715999999999998,27.064000000000018 C 29.173999999999996,27.554000000000016 29.557999999999996,28.08500000000002 30.217,28.298000000000016 C 30.73,28.458000000000016 30.500999999999998,28.433000000000018 30.683999999999997,28.911000000000016 C 30.793999999999997,29.220000000000017 31.031999999999996,29.394000000000016 31.324999999999996,29.527000000000015 C 31.407999999999994,29.564000000000014 31.507999999999996,29.598000000000017 31.599999999999994,29.639000000000014 L 34.93299999999999,38.58700000000002 C 34.584999999999994,38.862000000000016 34.364999999999995,39.228000000000016 34.364999999999995,39.631000000000014 C 34.364999999999995,40.31800000000001 34.983,40.899000000000015 35.852999999999994,41.10100000000001 C 35.81099999999999,41.323000000000015 35.833999999999996,41.56300000000002 35.925999999999995,41.792000000000016 L 31.937999999999995,46.682000000000016 C 29.158999999999995,44.73600000000002 25.779999999999994,43.594000000000015 22.125999999999998,43.594000000000015 C 12.669,43.594 5.0,51.263 5.0,60.719 M 72.489,48.129 L 75.81700000000001,58.068 C 75.052,58.852999999999994 74.572,59.918 74.572,61.113 C 74.572,63.498 76.509,65.434 78.898,65.434 C 81.29299999999999,65.434 83.234,63.497 83.234,61.113 C 83.234,58.717999999999996 81.29299999999999,56.777 78.898,56.777 C 78.738,56.777 78.583,56.786 78.41799999999999,56.809 L 75.18599999999999,47.153 C 76.267,46.882 77.39299999999999,46.741 78.556,46.741 C 86.28,46.741 92.542,53.001 92.542,60.718 C 92.542,68.447 86.279,74.703 78.556,74.703 C 70.836,74.703 64.574,68.446 64.574,60.718 C 64.573,55.175 67.806,50.386 72.489,48.129 M 36.087,59.913 L 25.333000000000006,60.269999999999996 C 25.187000000000005,59.504999999999995 24.834000000000007,58.818999999999996 24.344000000000005,58.254999999999995 L 31.088000000000005,49.986999999999995 C 33.962,52.396 35.854,55.931 36.087,59.913 M 46.141,55.798 C 45.638,55.608000000000004 45.102,55.502 44.539,55.502 C 44.516,55.502 44.493,55.514 44.47,55.514 L 39.063,41.919000000000004 L 64.902,33.73500000000001 L 46.141,55.798 M 39.241,59.809 C 38.975,54.887 36.64,50.51 33.083,47.552 L 36.525999999999996,43.322 L 41.745,56.444 C 40.714999999999996,57.222 40.015,58.422000000000004 39.909,59.795 L 39.241,59.809 M 8.15,60.719 C 8.15,53.002 14.413,46.742000000000004 22.128,46.742000000000004 C 25.026,46.742000000000004 27.709,47.62800000000001 29.939,49.127 L 23.232,57.345 C 22.599999999999998,56.989 21.868,56.778 21.089,56.778 C 18.694,56.778 16.758,58.719 16.758,61.114 C 16.758,63.498999999999995 18.695,65.435 21.089,65.435 C 23.282,65.435 25.081,63.812000000000005 25.369999999999997,61.7 L 36.096999999999994,61.347 C 35.757999999999996,68.782 29.640999999999995,74.70400000000001 22.127999999999993,74.70400000000001 C 14.413,74.704 8.15,68.447 8.15,60.719"/>
	<path d="M 81.293,40.165 C 81.046,40.010999999999996 80.813,39.879 80.57400000000001,39.778 L 80.57400000000001,41.004999999999995 C 80.61100000000002,41.029999999999994 80.65200000000002,41.047 80.67900000000002,41.071 C 82.61100000000002,42.352999999999994 81.63100000000001,43.998999999999995 81.51700000000001,44.177 L 74.83700000000002,54.224000000000004 L 75.75300000000001,54.815000000000005 L 82.41400000000002,44.789 C 82.434,44.759 84.168,42.076 81.293,40.165" fill="#000000"/>
	<path d="M 72.818,49.118 L 72.489,48.129000000000005 C 72.489,48.129000000000005 72.251,48.24100000000001 71.99900000000001,48.376000000000005 L 70.14900000000002,51.162000000000006 L 71.06500000000001,51.75500000000001 L 72.818,49.118" fill="#000000"/>
	<path d="M 76.28,41.957 L 74.929,43.981 C 75.299,43.898 75.789,43.800000000000004 76.28,43.741 L 76.28,41.957" fill="#000000"/>
	<path d="M 74.811,54.266 L 74.83800000000001,54.225 L 71.066,51.755 L 71.056,51.774 L 70.14999999999999,51.17 L 70.14999999999999,51.163000000000004 L 70.01299999999999,51.073 C 69.615,50.805 69.07,50.922 68.80399999999999,51.327 C 68.53799999999998,51.733 68.65299999999999,52.272 69.05599999999998,52.538 L 75.12599999999998,56.504 C 75.53399999999998,56.774 76.07399999999997,56.653999999999996 76.34399999999998,56.256 C 76.60999999999999,55.849000000000004 76.48999999999998,55.304 76.08299999999998,55.038 L 75.75399999999999,54.815999999999995 L 75.71699999999998,54.867 L 74.811,54.266" fill="#000000"/>
</svg>
