<?xml version="1.0" ?>
<svg xmlns="http://www.w3.org/2000/svg" xmlns:ev="http://www.w3.org/2001/xml-events" xmlns:xlink="http://www.w3.org/1999/xlink" baseProfile="full" enable-background="new 0 0 100 71.428" height="429px" version="1.1" viewBox="0 0 100 71.428" width="600px" x="0px" xml:space="preserve" y="0px">
	<defs/>
	<path d="M 45.238,954.743 L 0.0,980.933 L 9.524,980.933 L 9.524,985.6949999999999 L 9.524,1014.266 L 9.524,1019.029 C 9.524,1021.41 11.648,1023.7909999999999 14.285999999999998,1023.7909999999999 L 28.571999999999996,1023.7909999999999 L 28.571999999999996,999.981 C 28.571999999999996,997.343 30.695999999999994,995.219 33.333999999999996,995.219 L 66.668,995.219 C 69.30600000000001,995.219 71.34700000000001,997.344 71.43,999.981 L 71.43,1023.7909999999999 L 85.715,1023.7909999999999 C 88.354,1023.7909999999999 90.477,1021.6679999999999 90.477,1019.029 L 90.477,1014.266 L 90.477,985.6949999999999 L 90.477,980.933 L 100.0,980.933 L 54.761,954.7429999999999 C 52.727000000000004,953.5649999999999 50.724000000000004,952.3649999999999 50.0,952.362 C 49.277,952.36 47.305,953.546 45.238,954.743 L 45.238,954.743 M 33.333,999.981 L 33.333,1004.7429999999999 L 66.667,1004.7429999999999 L 66.667,999.981 L 33.333,999.981 M 33.333,1009.505 L 33.333,1014.266 L 66.667,1014.266 L 66.667,1009.505 L 33.333,1009.505 M 33.333,1019.029 L 33.333,1023.7909999999999 L 66.667,1023.7909999999999 L 66.667,1019.029 L 33.333,1019.029"/>
</svg>
