<?xml version="1.0" ?>
<svg xmlns="http://www.w3.org/2000/svg" xmlns:ev="http://www.w3.org/2001/xml-events" xmlns:xlink="http://www.w3.org/1999/xlink" baseProfile="full" enable-background="new 0 0 100 100" height="600px" version="1.1" viewBox="0 0 100 100" width="600px" x="0px" xml:space="preserve" y="0px">
	<defs/>
	<path d="M 40.0,0.0 C 36.307,0.0 33.333,2.974 33.333,6.667 L 33.333,33.334 L 6.667,33.334 C 2.974,33.333 0.0,36.307 0.0,40.0 L 0.0,60.0 C 0.0,63.693 2.974,66.666 6.667,66.666 L 33.334,66.666 L 33.334,93.333 C 33.334,97.026 36.30800000000001,100.0 40.001000000000005,100.0 L 60.001000000000005,100.0 C 63.694,100.0 66.667,97.026 66.667,93.333 L 66.667,66.666 L 93.33500000000001,66.666 C 97.02700000000002,66.666 100.001,63.693 100.001,60.0 L 100.001,40.0 C 100.001,36.306 97.027,33.333 93.33500000000001,33.333 L 66.666,33.333 L 66.666,6.667 C 66.666,2.974 63.693,0.0 60.0,0.0 L 40.0,0.0"/>
</svg>
