<?xml version="1.0" ?>
<svg xmlns="http://www.w3.org/2000/svg" xmlns:ev="http://www.w3.org/2001/xml-events" xmlns:xlink="http://www.w3.org/1999/xlink" baseProfile="full" enable-background="new 0 0 94.119 100" height="600px" version="1.1" viewBox="0 0 94.119 100" width="565px" x="0px" xml:space="preserve" y="0px">
	<defs/>
	<path d="M 5.883,41.177 L 5.883,94.118 C 5.883,97.377 8.506,100.0 11.765,100.0 L 88.235,100.0 C 91.494,100.0 94.119,97.377 94.119,94.118 L 94.119,41.177 L 5.883,41.177 M 82.354,70.588 L 17.647,70.588 L 17.647,52.942 L 82.35300000000001,52.942 L 82.35300000000001,70.588 L 82.354,70.588"/>
	<path d="M 82.354,0.0 L 69.118,3.861 L 75.552,21.324 L 88.235,17.647 L 82.354,0.0" points="82.354,0 69.118,3.861 75.552,21.324 88.235,17.647 "/>
	<path d="M 61.031,6.067 L 43.75,11.029 L 44.118,11.765 L 47.427,20.772 L 50.368,28.493 L 67.648,23.53 L 61.031,6.067" points="61.031,6.067 43.75,11.029 44.118,11.765 47.427,20.772 50.368,28.493 67.648,23.53 "/>
	<path d="M 35.846,13.235 L 20.589,17.647 L 27.207,35.111 L 42.464,30.699 L 38.604,20.772 L 35.846,13.235" points="35.846,13.235 20.589,17.647 27.207,35.111 42.464,30.699 38.604,20.772 "/>
	<path d="M 12.684,19.853 L 0.0,23.53 L 5.883,41.177 L 19.118,37.317 L 12.684,19.853" points="12.684,19.853 0,23.53 5.883,41.177 19.118,37.317 "/>
</svg>
