<?xml version="1.0" ?>
<svg xmlns="http://www.w3.org/2000/svg" xmlns:ev="http://www.w3.org/2001/xml-events" xmlns:xlink="http://www.w3.org/1999/xlink" baseProfile="full" enable-background="new 0 0 100 68.749" height="413px" version="1.1" viewBox="0 0 100 68.749" width="600px" x="0px" xml:space="preserve" y="0px">
	<defs/>
	<path d="M 44.495,59.533 C 38.376,59.533 32.846,55.93 30.413999999999998,54.086 C 22.808999999999997,55.937 17.205,54.812999999999995 13.77,50.879 C 11.296,48.044999999999995 10.66,44.414 10.546,41.955 C 6.009,40.317 0.0,35.572 0.0,28.662 C 0.0,19.308 5.903,13.723999999999998 15.792,13.723999999999998 C 16.604,13.723999999999998 17.358,13.762999999999998 18.028,13.817999999999998 C 19.406,9.772999999999998 22.223,6.479999999999998 26.436,4.002999999999998 C 30.954,1.346 35.312,0.0 39.391,0.0 C 45.967,0.0 50.218999999999994,3.42 52.403,5.838 C 54.823,4.715 57.168,4.149 59.397999999999996,4.149 C 67.332,4.149 71.329,10.923 72.869,14.446000000000002 C 82.068,15.262000000000002 86.047,21.399 86.675,27.164 C 87.366,33.498000000000005 84.458,39.594 79.94,42.014 C 79.78999999999999,45.24 78.764,47.889 76.877,49.912000000000006 C 74.339,52.632000000000005 70.43599999999999,54.01100000000001 65.27499999999999,54.01100000000001 C 65.27499999999999,54.01100000000001 65.27499999999999,54.01100000000001 65.27399999999999,54.01100000000001 C 61.984999999999985,54.01100000000001 58.84099999999999,53.44200000000001 56.84299999999999,52.98300000000001 C 52.791,58.341 47.975,59.533 44.495,59.533 M 31.114,47.815 C 31.843,47.815 32.557,48.082 33.113,48.582 C 33.164,48.627 38.76,53.551 44.495,53.551 C 47.924,53.551 50.711,51.732 53.013,47.991 C 53.73,46.828 55.144,46.3 56.446,46.702 C 56.486,46.713 60.812,48.027 65.274,48.027 L 65.274,48.027 C 67.635,48.027 70.807,47.647 72.503,45.829 C 73.633,44.618 74.117,42.719 73.941,40.183 C 73.839,38.706 74.833,37.377 76.277,37.056 C 79.018,36.448 81.181,31.953999999999997 80.73,27.811 C 80.425,25.023 78.727,20.345 70.772,20.335 C 69.447,20.333000000000002 68.28,19.459 67.90700000000001,18.188000000000002 C 67.88600000000001,18.117 65.403,10.130000000000003 59.399000000000015,10.130000000000003 C 57.548000000000016,10.130000000000003 55.433000000000014,10.836000000000002 53.115000000000016,12.227000000000002 C 52.427000000000014,12.640000000000002 51.60200000000002,12.758000000000003 50.82400000000002,12.557000000000002 C 50.04700000000002,12.356000000000002 49.38400000000002,11.850000000000001 48.98300000000002,11.156000000000002 C 48.868000000000016,10.963000000000003 45.82000000000002,5.9810000000000025 39.39200000000002,5.9810000000000025 C 36.39400000000002,5.9810000000000025 33.05600000000002,7.0500000000000025 29.469000000000015,9.160000000000002 C 25.813000000000017,11.310000000000002 23.827000000000016,14.003000000000002 23.222000000000016,17.634 C 23.088000000000015,18.443 22.625000000000014,19.162 21.945000000000014,19.621000000000002 C 21.265000000000015,20.080000000000002 20.424000000000014,20.240000000000002 19.624000000000013,20.062 C 19.615000000000013,20.060000000000002 17.958000000000013,19.707 15.794000000000013,19.707 C 11.583000000000013,19.707 5.984000000000012,20.635 5.984000000000012,28.662 C 5.984000000000012,33.428 12.124000000000013,36.6 13.596000000000013,36.602 C 14.458000000000013,36.602999999999994 15.282000000000012,36.977 15.848000000000013,37.626999999999995 C 16.415000000000013,38.276999999999994 16.67500000000001,39.141999999999996 16.560000000000013,39.995999999999995 C 16.55600000000001,40.025999999999996 16.035000000000014,44.398999999999994 18.29400000000001,46.962999999999994 C 19.48800000000001,48.315999999999995 21.31400000000001,48.974 23.87700000000001,48.974 C 25.70800000000001,48.974 27.86600000000001,48.622 30.29600000000001,47.93 C 30.564,47.854 30.84,47.815 31.114,47.815"/>
	<path d="M 89.649,68.749 C 83.943,68.749 79.299,64.283 79.299,58.79599999999999 C 79.299,53.306999999999995 83.94300000000001,48.84199999999999 89.649,48.84199999999999 C 95.356,48.84199999999999 100.0,53.30699999999999 100.0,58.79599999999999 C 100.0,64.283 95.356,68.749 89.649,68.749 M 89.649,54.824 C 87.241,54.824 85.282,56.605 85.282,58.796 C 85.282,60.985 87.241,62.766999999999996 89.649,62.766999999999996 C 92.058,62.766999999999996 94.017,60.986 94.017,58.79599999999999 C 94.018,56.605 92.059,54.824 89.649,54.824"/>
	<path d="M 31.483,41.556 L 20.882,30.951 L 31.365,19.543 L 34.302,22.242 L 26.404,30.835 L 34.304,38.736 L 31.483,41.556" points="31.483,41.556 20.882,30.951 31.365,19.543 34.302,22.242 26.404,30.835 34.304,38.736 "/>
	<path d="M 55.096,41.556 L 52.276,38.736 L 60.177,30.835 L 52.278,22.242 L 55.215,19.543 L 65.699,30.951 L 55.096,41.556" points="55.096,41.556 52.276,38.736 60.177,30.835 52.278,22.242 55.215,19.543 65.699,30.951 "/>
	<path d="M 40.676,19.526 L 44.664,19.526 L 44.664,41.572 L 40.676,41.572 L 40.676,19.526" height="22.046" transform="matrix(0.9068 0.4215 -0.4215 0.9068 16.8501 -15.1379)" width="3.988" x="40.676" y="19.526"/>
</svg>
