<?xml version="1.0" ?>
<svg xmlns="http://www.w3.org/2000/svg" xmlns:ev="http://www.w3.org/2001/xml-events" xmlns:xlink="http://www.w3.org/1999/xlink" baseProfile="full" enable-background="new 2579.615 -88.891 100 93.098" height="559px" version="1.1" viewBox="2579.615 -88.891 100 93.098" width="600px" x="0px" xml:space="preserve" y="0px">
	<defs/>
	<path d="M 2593.398,-11.822 C 2593.398,-13.925999999999998 2591.2940000000003,-16.555 2587.612,-16.555 C 2584.416,-16.555 2582.881,-13.969 2582.881,-10.771999999999998 C 2582.881,-7.614999999999998 2586.035,-6.0379999999999985 2587.612,-6.0379999999999985 C 2589.191,-6.037 2593.398,-5.512 2593.398,-11.822"/>
	<path d="M 2615.109,-11.822 C 2615.109,-13.925999999999998 2613.004,-16.555 2609.322,-16.555 C 2606.127,-16.555 2604.592,-13.969 2604.592,-10.771999999999998 C 2604.592,-7.614999999999998 2607.744,-6.0379999999999985 2609.322,-6.0379999999999985 C 2610.9,-6.0379999999999985 2615.109,-5.512 2615.109,-11.822"/>
	<path d="M 2635.256,-11.822 C 2635.256,-13.925999999999998 2633.152,-16.555 2629.471,-16.555 C 2626.274,-16.555 2624.74,-13.969 2624.74,-10.771999999999998 C 2624.74,-7.614999999999998 2627.8909999999996,-6.0379999999999985 2629.471,-6.0379999999999985 C 2631.049,-6.037 2635.256,-5.512 2635.256,-11.822"/>
	<path d="M 2603.157,-18.065 C 2603.157,-20.017000000000003 2601.204,-22.458000000000002 2597.79,-22.458000000000002 C 2594.823,-22.458000000000002 2593.4,-20.060000000000002 2593.4,-17.092000000000002 C 2593.4,-14.161000000000001 2596.326,-12.699000000000002 2597.79,-12.699000000000002 C 2599.254,-12.699000000000002 2603.157,-12.209 2603.157,-18.065"/>
	<path d="M 2624.866,-19.701 C 2624.866,-21.653 2622.9139999999998,-24.096 2619.497,-24.096 C 2616.5319999999997,-24.096 2615.109,-21.697 2615.109,-18.728 C 2615.109,-15.799000000000001 2618.034,-14.336000000000002 2619.497,-14.336000000000002 C 2620.963,-14.335 2624.866,-13.847 2624.866,-19.701"/>
	<path d="M 2645.73,-19.166 C 2645.73,-21.118000000000002 2643.778,-23.560000000000002 2640.363,-23.560000000000002 C 2637.3959999999997,-23.560000000000002 2635.9719999999998,-21.161 2635.9719999999998,-18.193 C 2635.9719999999998,-15.263000000000002 2638.8979999999997,-13.801000000000002 2640.363,-13.801000000000002 C 2641.827,-13.801 2645.73,-13.312 2645.73,-19.166"/>
	<path d="M 2656.247,-11.822 C 2656.247,-13.925999999999998 2654.143,-16.555 2650.4629999999997,-16.555 C 2647.2659999999996,-16.555 2645.7319999999995,-13.969 2645.7319999999995,-10.771999999999998 C 2645.7319999999995,-7.614999999999998 2648.8849999999993,-6.0379999999999985 2650.4629999999997,-6.0379999999999985 C 2652.04,-6.037 2656.247,-5.512 2656.247,-11.822"/>
	<path d="M 2596.663,0.905 C 2596.663,-2.3520000000000003 2592.848,-4.991 2588.139,-4.991 C 2583.4300000000003,-4.991 2579.616,-2.352 2579.616,0.9050000000000002 L 2579.616,4.207000000000001 L 2596.6639999999998,4.207000000000001 L 2596.6639999999998,0.905 L 2596.663,0.905"/>
	<path d="M 2618.374,0.905 C 2618.374,-2.3520000000000003 2614.5589999999997,-4.991 2609.85,-4.991 C 2605.141,-4.991 2601.3269999999998,-2.3509999999999995 2601.3269999999998,0.9050000000000002 L 2601.3269999999998,4.207000000000001 L 2618.3749999999995,4.207000000000001 L 2618.3749999999995,0.905 L 2618.374,0.905"/>
	<path d="M 2638.521,0.905 C 2638.521,-2.3520000000000003 2634.7050000000004,-4.991 2629.9970000000003,-4.991 C 2625.289,-4.991 2621.4730000000004,-2.3509999999999995 2621.4730000000004,0.9050000000000002 L 2621.4730000000004,4.207000000000001 L 2638.5220000000004,4.207000000000001 L 2638.5220000000004,0.905 L 2638.521,0.905"/>
	<path d="M 2659.512,0.905 C 2659.512,-2.3520000000000003 2655.6980000000003,-4.991 2650.989,-4.991 C 2646.282,-4.991 2642.468,-2.3509999999999995 2642.468,0.9050000000000002 L 2642.468,4.207000000000001 L 2659.515,4.207000000000001 L 2659.515,0.905 L 2659.512,0.905"/>
	<path d="M 2665.833,-19.166 C 2665.833,-21.118000000000002 2663.881,-23.560000000000002 2660.465,-23.560000000000002 C 2657.498,-23.560000000000002 2656.0730000000003,-21.161 2656.0730000000003,-18.193 C 2656.0730000000003,-15.263000000000002 2659.0000000000005,-13.801000000000002 2660.465,-13.801000000000002 C 2661.928,-13.801 2665.833,-13.312 2665.833,-19.166"/>
	<path d="M 2676.348,-11.822 C 2676.348,-13.925999999999998 2674.244,-16.555 2670.565,-16.555 C 2667.368,-16.555 2665.834,-13.969 2665.834,-10.771999999999998 C 2665.834,-7.614999999999998 2668.9869999999996,-6.0379999999999985 2670.565,-6.0379999999999985 C 2672.141,-6.037 2676.348,-5.512 2676.348,-11.822"/>
	<path d="M 2679.615,0.905 C 2679.615,-2.3520000000000003 2675.799,-4.991 2671.0899999999997,-4.991 C 2666.383,-4.991 2662.5679999999998,-2.3509999999999995 2662.5679999999998,0.9050000000000002 L 2662.5679999999998,4.207000000000001 L 2679.6159999999995,4.207000000000001 L 2679.6159999999995,0.905 L 2679.615,0.905"/>
	<path d="M 2658.762,-34.194 L 2602.266,-34.194 L 2602.266,-77.84800000000001 L 2658.762,-77.84800000000001 L 2658.762,-34.194 L 2658.762,-34.194 M 2606.303,-38.23 L 2654.725,-38.23 L 2654.725,-73.812 L 2606.303,-73.812 L 2606.303,-38.23"/>
	<path d="M 2597.018,-73.765 C 2596.854,-73.765 2596.686,-73.805 2596.533,-73.89 L 2588.4539999999997,-78.345 C 2587.966,-78.614 2587.7879999999996,-79.228 2588.0579999999995,-79.716 C 2588.3279999999995,-80.20299999999999 2588.9399999999996,-80.38199999999999 2589.4289999999996,-80.112 L 2597.5089999999996,-75.657 C 2597.9959999999996,-75.38799999999999 2598.1749999999997,-74.774 2597.9049999999997,-74.286 C 2597.719,-73.952 2597.374,-73.765 2597.018,-73.765"/>
	<path d="M 2597.02,-63.43 C 2596.93,-63.43 2596.84,-63.442 2596.749,-63.467 L 2590.0359999999996,-65.335 C 2589.499,-65.484 2589.1849999999995,-66.041 2589.3339999999994,-66.57799999999999 C 2589.4829999999993,-67.115 2590.0379999999996,-67.42899999999999 2590.5769999999993,-67.27999999999999 L 2597.2899999999995,-65.41099999999999 C 2597.8269999999993,-65.26299999999999 2598.1409999999996,-64.70499999999998 2597.9919999999997,-64.16799999999999 C 2597.867,-63.723 2597.463,-63.43 2597.02,-63.43"/>
	<path d="M 2589.396,-41.814 C 2589.001,-41.814 2588.626,-42.047 2588.4640000000004,-42.434 C 2588.2480000000005,-42.949 2588.4910000000004,-43.538 2589.0050000000006,-43.754999999999995 L 2596.6280000000006,-46.940999999999995 C 2597.1420000000007,-47.153999999999996 2597.7330000000006,-46.913 2597.9490000000005,-46.398999999999994 C 2598.1640000000007,-45.88399999999999 2597.9210000000007,-45.294 2597.4070000000006,-45.07899999999999 L 2589.783000000001,-41.892999999999994 C 2589.658,-41.841 2589.526,-41.814 2589.396,-41.814"/>
	<path d="M 2590.453,-29.528 C 2590.151,-29.528 2589.851,-29.663999999999998 2589.653,-29.924 C 2589.3129999999996,-30.365 2589.3959999999997,-30.998 2589.8379999999997,-31.339 L 2596.4039999999995,-36.384 C 2596.8449999999993,-36.725 2597.4799999999996,-36.641 2597.8189999999995,-36.198 C 2598.1589999999997,-35.757 2598.0759999999996,-35.123 2597.6339999999996,-34.783 L 2591.0679999999998,-29.737000000000002 C 2590.885,-29.597 2590.668,-29.528 2590.453,-29.528"/>
	<path d="M 2590.76,-53.794 C 2590.2580000000003,-53.794 2589.822,-54.169 2589.76,-54.681999999999995 C 2589.6940000000004,-55.23499999999999 2590.088,-55.73799999999999 2590.641,-55.806 L 2596.895,-56.568999999999996 C 2597.445,-56.632999999999996 2597.951,-56.242999999999995 2598.018,-55.69 C 2598.0860000000002,-55.135999999999996 2597.693,-54.632999999999996 2597.139,-54.565999999999995 L 2590.885,-53.803 C 2590.842,-53.797 2590.801,-53.794 2590.76,-53.794"/>
	<path d="M 2671.629,-32.259 C 2671.4649999999997,-32.259 2671.297,-32.3 2671.145,-32.384 L 2663.065,-36.84 C 2662.578,-37.109 2662.4,-37.723000000000006 2662.669,-38.209 C 2662.939,-38.698 2663.556,-38.874 2664.04,-38.606 L 2672.12,-34.151 C 2672.607,-33.881 2672.785,-33.268 2672.516,-32.779 C 2672.33,-32.447 2671.984,-32.259 2671.629,-32.259"/>
	<path d="M 2671.176,-44.27 C 2671.086,-44.27 2670.994,-44.282000000000004 2670.9049999999997,-44.307 L 2664.191,-46.176 C 2663.656,-46.324000000000005 2663.341,-46.882000000000005 2663.491,-47.418 C 2663.64,-47.955 2664.197,-48.269999999999996 2664.733,-48.12 L 2671.447,-46.251 C 2671.982,-46.102999999999994 2672.297,-45.546 2672.147,-45.009 C 2672.022,-44.562 2671.617,-44.27 2671.176,-44.27"/>
	<path d="M 2663.553,-63.657 C 2663.1569999999997,-63.657 2662.7819999999997,-63.88999999999999 2662.62,-64.277 C 2662.4049999999997,-64.792 2662.647,-65.382 2663.162,-65.598 L 2670.785,-68.78399999999999 C 2671.299,-68.996 2671.89,-68.75699999999999 2672.1059999999998,-68.24199999999999 C 2672.321,-67.72699999999999 2672.078,-67.13799999999999 2671.564,-66.922 L 2663.94,-63.735 C 2663.813,-63.683 2663.682,-63.657 2663.553,-63.657"/>
	<path d="M 2663.553,-74.084 C 2663.207,-74.084 2662.871,-74.262 2662.6839999999997,-74.57900000000001 C 2662.401,-75.058 2662.5589999999997,-75.67800000000001 2663.0379999999996,-75.96100000000001 L 2670.7499999999995,-80.52600000000001 C 2671.2319999999995,-80.80900000000001 2671.8499999999995,-80.65 2672.1329999999994,-80.17200000000001 C 2672.4159999999993,-79.69300000000001 2672.2579999999994,-79.07300000000001 2671.7789999999995,-78.78900000000002 L 2664.0659999999993,-74.22500000000002 C 2663.904,-74.13 2663.727,-74.084 2663.553,-74.084"/>
	<path d="M 2664.463,-54.102 C 2663.9590000000003,-54.102 2663.525,-54.477 2663.463,-54.989 C 2663.395,-55.541999999999994 2663.789,-56.044999999999995 2664.342,-56.113 L 2670.598,-56.876 C 2671.16,-56.94 2671.6549999999997,-56.549 2671.721,-55.995999999999995 C 2671.789,-55.443 2671.395,-54.94 2670.842,-54.87199999999999 L 2664.5860000000002,-54.108999999999995 C 2664.545,-54.104 2664.504,-54.102 2664.463,-54.102"/>
	<path d="M 2639.434,-56.778 L 2627.3010000000004,-62.783 C 2626.9890000000005,-62.939 2626.617,-62.921 2626.3210000000004,-62.736000000000004 C 2626.0250000000005,-62.551 2625.8440000000005,-62.227000000000004 2625.8440000000005,-61.88 L 2625.8440000000005,-49.868 C 2625.8440000000005,-49.519000000000005 2626.0250000000005,-49.195 2626.3210000000004,-49.012 C 2626.483,-48.910000000000004 2626.6680000000006,-48.86 2626.8520000000003,-48.86 C 2627.0060000000003,-48.86 2627.159,-48.894999999999996 2627.2990000000004,-48.964 L 2639.4340000000007,-54.97 C 2639.7780000000007,-55.14 2639.9960000000005,-55.491 2639.9960000000005,-55.873 C 2639.996,-56.258 2639.778,-56.607 2639.434,-56.778"/>
	<path d="M 2606.746,-81.229 C 2606.42,-81.229 2606.1,-81.386 2605.906,-81.67699999999999 L 2602.136,-87.32 C 2601.825,-87.78399999999999 2601.95,-88.41 2602.413,-88.72 C 2602.876,-89.03 2603.503,-88.906 2603.813,-88.442 L 2607.5840000000003,-82.79899999999999 C 2607.8930000000005,-82.33399999999999 2607.7680000000005,-81.708 2607.3050000000003,-81.39899999999999 C 2607.135,-81.284 2606.939,-81.229 2606.746,-81.229"/>
	<path d="M 2655.334,-80.616 C 2655.0679999999998,-80.616 2654.805,-80.72 2654.605,-80.928 C 2654.218,-81.329 2654.232,-81.969 2654.634,-82.355 L 2660.366,-87.854 C 2660.768,-88.24 2661.408,-88.227 2661.794,-87.824 C 2662.179,-87.423 2662.167,-86.783 2661.765,-86.39699999999999 L 2656.0319999999997,-80.898 C 2655.836,-80.709 2655.586,-80.616 2655.334,-80.616"/>
	<path d="M 2620.69,-82.074 C 2620.315,-82.074 2619.956,-82.283 2619.781,-82.643 L 2617.8959999999997,-86.53 C 2617.653,-87.031 2617.863,-87.635 2618.3639999999996,-87.878 C 2618.8659999999995,-88.119 2619.47,-87.912 2619.7129999999997,-87.411 L 2621.598,-83.524 C 2621.842,-83.023 2621.631,-82.419 2621.131,-82.175 C 2620.989,-82.107 2620.838,-82.074 2620.69,-82.074"/>
	<path d="M 2644.03,-81.259 C 2643.827,-81.259 2643.623,-81.32000000000001 2643.445,-81.447 C 2642.992,-81.771 2642.886,-82.401 2643.2110000000002,-82.855 L 2646.025,-86.801 C 2646.349,-87.253 2646.976,-87.35900000000001 2647.433,-87.035 C 2647.886,-86.711 2647.992,-86.081 2647.667,-85.627 L 2644.853,-81.682 C 2644.656,-81.405 2644.346,-81.259 2644.03,-81.259"/>
	<path d="M 2631.424,-81.163 C 2630.866,-81.163 2630.415,-81.615 2630.415,-82.173 L 2630.415,-87.686 C 2630.415,-88.24300000000001 2630.867,-88.69500000000001 2631.424,-88.69500000000001 C 2631.982,-88.69500000000001 2632.434,-88.24300000000001 2632.434,-87.686 L 2632.434,-82.173 C 2632.432,-81.616 2631.981,-81.163 2631.424,-81.163"/>
</svg>
