<?xml version="1.0" ?>
<svg xmlns="http://www.w3.org/2000/svg" xmlns:ev="http://www.w3.org/2001/xml-events" xmlns:xlink="http://www.w3.org/1999/xlink" baseProfile="full" enable-background="new 0 0 100 90.668" height="545px" version="1.1" viewBox="0 0 100 90.668" width="600px" x="0px" xml:space="preserve" y="0px">
	<defs/>
	<path d="M 99.636,20.105 C 99.975,19.826 100.092,19.358 99.925,18.952 C 99.758,18.547 99.349,18.296000000000003 98.907,18.337000000000003 L 69.571,21.064000000000004 L 70.832,1.0640000000000036 C 70.85799999999999,0.6470000000000036 70.622,0.25600000000000356 70.23899999999999,0.08700000000000363 C 69.85799999999999,-0.08299999999999638 69.41,0.0050000000000036265 69.11699999999999,0.3040000000000036 L 49.368999999999986,20.594 L 28.801,0.944 C 28.485999999999997,0.643 28.011,0.581 27.628999999999998,0.7909999999999999 C 27.247,1.0 27.045,1.434 27.13,1.862 L 31.487,23.779000000000003 L 2.496,19.014 C 2.086,18.939999999999998 1.6869999999999998,19.134 1.476,19.486 C 1.2650000000000001,19.838 1.289,20.282 1.538,20.607 L 17.515,41.537 L 0.284,59.223 C 0.02699999999999997,59.487 -0.064,59.869 0.044999999999999984,60.219 C 0.15399999999999997,60.57 0.447,60.831 0.808,60.903 L 24.197,65.496 L 25.002,87.53699999999999 C 25.016,87.92599999999999 25.253999999999998,88.27099999999999 25.612,88.422 C 25.967,88.574 26.383,88.50399999999999 26.671999999999997,88.24199999999999 L 43.185,73.3 C 55.791,90.417 56.587,90.562 57.066,90.65 C 57.126000000000005,90.661 57.197,90.668 57.257000000000005,90.668 C 57.99,90.668 58.819,90.668 69.21900000000001,70.58500000000001 L 84.41900000000001,87.665 C 84.71700000000001,88.001 85.20200000000001,88.09400000000001 85.60500000000002,87.89800000000001 C 86.00700000000002,87.70200000000001 86.23100000000002,87.26100000000001 86.15000000000002,86.82000000000001 L 81.24400000000001,59.91700000000001 L 97.65,62.98300000000001 C 98.04700000000001,63.052000000000014 98.441,62.88900000000001 98.66300000000001,62.558000000000014 C 98.88600000000001,62.228000000000016 98.89200000000001,61.796000000000014 98.67600000000002,61.460000000000015 C 97.12600000000002,59.04000000000001 84.41400000000002,39.19900000000001 81.98900000000002,35.582000000000015 C 83.587,33.647 91.992,26.396 99.636,20.105 M 66.959,47.833 C 72.313,53.463 64.19,56.694 64.19,56.694 C 63.175,64.631 59.396,58.17 57.928999999999995,67.583 L 49.239,67.583 C 49.701,55.31 43.608999999999995,51.525 43.608999999999995,51.525 C 37.885999999999996,55.126 34.565,48.754999999999995 34.565,48.754999999999995 L 34.658,48.687999999999995 C 34.75,48.62199999999999 28.474,51.894 26.443,46.61299999999999 C 24.247,40.900999999999996 31.150000000000002,38.82399999999999 31.150000000000002,38.82399999999999 C 29.489,31.49899999999999 38.349000000000004,32.88299999999999 38.349000000000004,32.88299999999999 C 41.986000000000004,26.33099999999999 48.294000000000004,31.405999999999988 48.294000000000004,31.405999999999988 C 54.897000000000006,26.514999999999986 58.278000000000006,32.97499999999999 58.278000000000006,32.97499999999999 C 66.68,31.03699999999999 66.046,39.34099999999999 66.046,39.34099999999999 C 72.681,42.021 66.959,47.833 66.959,47.833"/>
	<path d="M 63.197,46.598 C 64.24600000000001,45.714 64.761,44.384 64.72800000000001,42.647 C 64.71600000000001,42.096 64.30300000000001,41.681 63.708000000000006,41.667 C 63.156000000000006,41.678000000000004 62.717000000000006,42.134 62.72800000000001,42.687000000000005 C 62.74900000000001,43.788000000000004 62.47500000000001,44.587 61.91400000000001,45.065000000000005 C 60.885000000000005,45.93900000000001 59.129000000000005,45.64000000000001 59.07800000000001,45.632000000000005 C 59.02800000000001,45.62200000000001 58.98100000000001,45.636 58.93200000000001,45.63400000000001 C 58.37200000000001,44.464000000000006 57.35300000000001,43.24700000000001 55.67100000000001,41.928000000000004 C 55.409000000000006,41.723000000000006 55.13000000000001,41.554 54.84400000000001,41.402 C 54.91400000000001,40.263 55.25300000000001,39.362 55.89000000000001,38.747 C 57.10300000000001,37.576 59.001000000000005,37.666 59.05100000000001,37.667 C 59.589000000000006,37.701 60.07500000000001,37.286 60.11300000000001,36.736000000000004 C 60.150000000000006,36.185 59.733000000000004,35.708000000000006 59.18200000000001,35.67100000000001 C 59.06900000000001,35.662000000000006 56.38600000000001,35.504000000000005 54.51800000000001,37.29200000000001 C 53.61800000000001,38.153000000000006 53.074000000000005,39.29500000000001 52.88700000000001,40.69200000000001 C 52.232000000000006,40.537000000000006 51.571000000000005,40.434000000000005 50.94400000000001,40.34000000000001 C 48.08100000000001,39.90800000000001 46.19000000000001,39.62400000000001 46.36300000000001,35.51100000000001 C 46.38600000000001,34.95900000000001 45.958000000000006,34.49300000000001 45.406000000000006,34.47000000000001 C 44.86000000000001,34.44400000000001 44.388000000000005,34.875000000000014 44.36500000000001,35.427000000000014 C 44.28200000000001,37.387000000000015 44.63200000000001,38.747000000000014 45.23300000000001,39.719000000000015 C 40.12900000000001,41.03100000000001 37.97300000000001,36.47000000000001 37.878000000000014,36.25800000000002 C 37.65100000000002,35.75500000000002 37.064000000000014,35.52800000000002 36.55900000000001,35.75500000000002 C 36.055000000000014,35.98000000000002 35.82800000000001,36.570000000000014 36.05300000000001,37.07500000000002 C 36.06900000000001,37.110000000000014 36.82100000000001,38.73200000000001 38.424000000000014,40.10400000000001 C 37.53400000000001,41.35100000000001 35.259000000000015,43.747000000000014 31.432000000000013,42.62900000000001 C 30.900000000000013,42.47500000000001 30.346000000000014,42.77800000000001 30.192000000000014,43.30900000000001 C 30.038000000000014,43.84000000000001 30.341000000000015,44.39500000000001 30.872000000000014,44.549000000000014 C 31.740000000000013,44.802000000000014 32.55900000000001,44.91300000000001 33.32500000000002,44.91300000000001 C 36.579000000000015,44.91300000000001 38.89800000000002,42.91000000000001 40.09200000000002,41.21800000000001 C 41.02300000000002,41.68100000000001 42.124000000000024,41.99000000000001 43.40800000000002,41.99000000000001 C 44.447000000000024,41.99000000000001 45.61200000000002,41.77100000000001 46.89400000000002,41.28600000000001 C 47.18900000000002,41.449000000000005 47.49800000000002,41.58700000000001 47.81600000000002,41.70000000000001 C 47.283000000000015,42.44900000000001 46.679000000000016,43.48500000000001 46.320000000000014,44.71100000000001 C 43.81500000000001,46.59900000000001 42.19300000000001,44.997000000000014 41.88200000000001,44.63800000000001 C 41.52600000000001,44.22100000000001 40.90000000000001,44.16300000000001 40.47800000000001,44.51900000000001 C 40.05400000000001,44.87300000000001 39.99900000000001,45.50400000000001 40.35300000000001,45.927000000000014 C 41.00200000000001,46.70300000000002 42.32500000000001,47.622000000000014 44.02000000000001,47.622000000000014 C 44.63900000000001,47.622000000000014 45.30800000000001,47.493000000000016 46.01100000000001,47.198000000000015 C 46.05200000000001,48.048000000000016 46.24800000000001,48.94100000000002 46.67200000000001,49.859000000000016 C 46.84100000000001,50.22400000000002 47.20300000000001,50.439000000000014 47.58100000000001,50.439000000000014 C 47.72100000000001,50.439000000000014 47.86400000000001,50.41000000000001 48.00000000000001,50.347000000000016 C 48.501000000000005,50.115000000000016 48.720000000000006,49.521000000000015 48.48800000000001,49.01900000000001 C 47.086000000000006,45.985000000000014 49.11300000000001,43.180000000000014 49.95100000000001,42.207000000000015 C 50.18600000000001,42.24500000000001 50.41900000000001,42.28100000000001 50.647000000000006,42.31500000000001 C 52.099000000000004,42.53400000000001 53.470000000000006,42.74000000000001 54.438,43.500000000000014 C 57.039,45.54000000000001 57.723,47.027000000000015 57.417,48.78100000000001 C 56.445,48.40700000000001 55.478,48.338000000000015 54.527,48.582000000000015 C 52.287,49.16300000000002 51.048,51.31000000000002 50.997,51.40000000000001 C 50.725,51.88000000000001 50.893,52.491000000000014 51.374,52.76300000000001 C 51.53,52.85100000000001 51.699000000000005,52.893000000000015 51.866,52.893000000000015 C 52.214999999999996,52.893000000000015 52.553,52.710000000000015 52.737,52.38600000000002 C 52.746,52.371000000000016 53.623000000000005,50.88200000000002 55.029,50.518000000000015 C 55.596000000000004,50.371000000000016 56.18300000000001,50.426000000000016 56.803000000000004,50.68700000000001 C 56.526,51.329000000000015 56.181000000000004,52.024000000000015 55.794000000000004,52.80000000000001 C 54.148,56.10800000000001 51.896,60.63900000000001 52.35,67.64600000000002 C 52.384,68.17500000000001 52.825,68.58200000000002 53.347,68.58200000000002 C 53.368,68.58200000000002 53.391,68.58100000000002 53.412,68.58000000000003 C 53.964,68.54400000000003 54.381,68.06800000000003 54.346,67.51800000000003 C 53.934,61.184 55.87,57.143 57.48,53.9 C 57.611999999999995,53.958999999999996 57.756,53.995 57.916999999999994,53.982 C 58.26299999999999,54.01 58.903999999999996,54.607 58.85399999999999,56.67 C 58.840999999999994,57.223 59.27799999999999,57.681000000000004 59.82999999999999,57.694 C 59.83899999999999,57.694 59.846999999999994,57.694 59.85399999999999,57.694 C 60.39499999999999,57.694 60.83999999999999,57.262 60.85399999999999,56.718 C 60.89799999999999,54.903000000000006 60.50099999999999,53.569 59.675999999999995,52.753 C 59.21699999999999,52.3 58.73799999999999,52.111 58.385999999999996,52.033 C 59.077,50.531 59.56099999999999,49.114000000000004 59.471999999999994,47.674 C 59.57899999999999,47.679 59.68899999999999,47.684 59.812,47.684 C 60.757,47.685 62.128,47.499 63.197,46.598"/>
</svg>
