<?xml version="1.0" ?>
<svg xmlns="http://www.w3.org/2000/svg" xmlns:ev="http://www.w3.org/2001/xml-events" xmlns:xlink="http://www.w3.org/1999/xlink" baseProfile="full" enable-background="new 0 0 100 87.888" height="528px" version="1.1" viewBox="0 0 100 87.888" width="600px" x="0px" xml:space="preserve" y="0px">
	<defs/>
	<path d="M 34.887,24.008 C 34.341,24.008 33.796,23.787 33.398,23.352 C 29.653000000000002,19.25 32.123000000000005,16.149 33.599000000000004,14.296000000000001 C 35.146,12.355 36.079,11.182000000000002 34.419000000000004,8.422 C 33.845000000000006,7.468000000000001 34.153000000000006,6.23 35.107000000000006,5.656000000000001 C 36.06100000000001,5.082000000000001 37.29900000000001,5.390000000000001 37.873000000000005,6.344 C 40.976000000000006,11.503 38.434000000000005,14.693999999999999 36.752,16.806 C 35.259,18.681 34.948,19.071 36.375,20.634 C 37.125,21.456 37.067,22.731 36.246,23.481 C 35.859,23.834 35.372,24.008 34.887,24.008"/>
	<path d="M 47.201,18.64 C 46.655,18.64 46.11,18.419 45.712,17.984 C 41.942,13.855000000000002 44.428000000000004,10.760000000000002 45.913000000000004,8.911000000000001 C 47.462,6.983000000000001 48.397000000000006,5.820000000000001 46.733000000000004,3.0550000000000015 C 46.159000000000006,2.1010000000000018 46.467000000000006,0.8630000000000013 47.42100000000001,0.2890000000000015 C 48.376000000000005,-0.2839999999999985 49.61300000000001,0.023000000000001464 50.187000000000005,0.9770000000000014 C 53.301,6.152000000000001 50.644000000000005,9.459000000000001 49.056000000000004,11.436000000000002 C 47.523,13.344000000000001 47.24700000000001,13.687000000000001 48.68900000000001,15.267000000000001 C 49.43900000000001,16.089000000000002 49.38100000000001,17.363 48.56000000000001,18.114 C 48.173,18.466 47.686,18.64 47.201,18.64"/>
	<path d="M 61.385,21.943 C 60.838,21.943 60.294,21.722 59.897,21.287000000000003 C 56.126,17.158 58.613,14.063000000000002 60.098,12.214000000000002 C 61.646,10.286000000000001 62.580999999999996,9.123000000000001 60.917,6.357000000000002 C 60.343,5.403000000000002 60.651,4.165000000000002 61.605000000000004,3.591000000000002 C 62.56,3.017000000000002 63.798,3.325000000000002 64.37100000000001,4.279000000000002 C 67.48400000000001,9.453000000000003 64.828,12.761000000000001 63.24000000000001,14.737000000000002 C 61.70800000000001,16.645000000000003 61.43100000000001,16.989 62.87300000000001,18.568 C 63.62400000000001,19.39 63.56500000000001,20.665000000000003 62.744000000000014,21.415000000000003 C 62.356,21.769 61.87,21.943 61.385,21.943"/>
	<path d="M 50.385,87.888 C 39.653,87.888 28.291999999999998,86.87400000000001 24.118,85.346 C 23.011999999999997,84.941 18.825,82.57000000000001 11.415,69.058 C 10.879999999999999,68.081 11.236999999999998,66.85700000000001 12.213,66.322 C 13.19,65.789 14.414,66.144 14.949,67.12 C 18.441,73.486 23.47,80.81700000000001 25.503999999999998,81.56200000000001 C 28.767999999999997,82.757 38.428,83.71000000000001 48.474999999999994,83.82900000000001 C 60.690999999999995,83.98100000000001 68.00999999999999,82.88700000000001 69.83999999999999,81.74400000000001 C 72.04099999999998,80.37200000000001 77.34899999999999,71.50300000000001 80.41499999999999,65.64300000000001 C 80.92999999999999,64.65700000000001 82.14599999999999,64.27800000000002 83.13499999999999,64.79100000000001 C 84.121,65.308 84.502,66.52400000000002 83.987,67.51200000000001 C 82.669,70.03000000000002 75.896,82.71700000000001 71.97399999999999,85.16400000000002 C 68.878,87.094 59.878,87.888 50.385,87.888"/>
	<path d="M 99.888,53.068 L 97.747,46.921 C 97.519,46.269 96.975,45.778 96.302,45.622 L 82.69900000000001,42.449 C 81.61900000000001,42.193999999999996 80.531,42.87 80.27900000000001,43.954 C 80.02700000000002,45.037 80.70000000000002,46.122 81.784,46.374 L 94.305,49.294000000000004 L 95.638,53.12200000000001 L 91.944,56.412000000000006 L 72.191,51.031000000000006 C 71.37400000000001,50.81000000000001 70.537,51.12800000000001 70.055,51.76500000000001 C 69.64,51.678000000000004 69.19600000000001,51.714000000000006 68.784,51.91000000000001 C 67.77900000000001,52.38700000000001 67.349,53.58900000000001 67.82600000000001,54.59500000000001 L 70.24000000000001,59.69300000000001 L 69.242,59.01900000000001 L 68.539,56.88000000000001 C 68.33200000000001,56.25200000000001 67.83,55.76500000000001 67.19500000000001,55.57700000000001 L 51.83,51.043 C 50.76,50.728 49.641999999999996,51.338 49.327,52.403999999999996 C 49.012,53.471 49.622,54.592 50.689,54.907 L 65.041,59.141999999999996 L 65.79299999999999,61.42699999999999 L 61.65699999999999,64.276 L 47.41999999999999,57.934 C 46.402999999999984,57.483999999999995 45.21199999999999,57.937999999999995 44.758999999999986,58.955 C 44.30599999999998,59.972 44.762999999999984,61.163 45.77999999999999,61.616 L 50.58499999999999,63.756 L 48.944999999999986,64.944 C 48.81899999999999,65.036 48.716999999999985,65.151 48.61799999999999,65.265 L 47.255999999999986,63.729 C 46.51999999999999,62.897 45.24499999999998,62.819 44.41099999999999,63.557 C 43.57799999999999,64.295 43.50099999999999,65.569 44.23999999999999,66.401 L 49.13199999999999,71.922 L 48.15399999999999,75.17099999999999 L 43.29599999999999,74.865 L 35.70899999999999,65.322 C 35.496999999999986,65.056 35.22999999999999,64.86800000000001 34.938999999999986,64.741 L 37.27399999999999,58.047 C 37.640999999999984,56.995999999999995 37.085999999999984,55.846999999999994 36.03499999999999,55.480999999999995 C 34.98499999999999,55.114 33.83499999999999,55.669 33.46899999999999,56.718999999999994 L 29.676999999999985,67.585 L 25.920999999999985,67.585 L 24.594999999999985,63.272999999999996 L 29.724999999999984,53.946 C 30.260999999999985,52.97 29.904999999999983,51.745999999999995 28.929999999999982,51.21 C 27.95499999999998,50.671 26.73099999999998,51.029 26.192999999999984,52.004 L 20.652,62.08 C 20.458000000000002,62.433 20.378,62.832 20.413,63.226 L 15.286000000000001,65.979 L 11.091000000000001,65.208 L 9.868,60.232 L 19.05,54.701 C 19.072,54.686 19.09,54.669000000000004 19.112000000000002,54.654 L 20.588,54.611000000000004 C 21.701,54.57900000000001 22.576,53.650000000000006 22.543,52.538000000000004 C 22.511,51.426 21.573999999999998,50.53 20.47,50.583000000000006 L 8.108,50.947 L 4.121,49.056000000000004 L 4.4990000000000006,43.64 L 18.538,46.143 C 19.63,46.34 20.68,45.609 20.875,44.512 C 21.07,43.417 20.341,42.371 19.245,42.176 L 2.999,39.279 C 2.435,39.175000000000004 1.856,39.322 1.4060000000000001,39.67400000000001 C 0.9550000000000001,40.026 0.6750000000000002,40.55200000000001 0.6350000000000001,41.123000000000005 L 0.0050000000000001155,50.148 C -0.05299999999999989,50.975 0.40200000000000014,51.753 1.1520000000000001,52.11000000000001 L 2.5780000000000003,52.78600000000001 L 0.983,55.11 C 0.46199999999999997,55.87 0.522,56.884 1.128,57.578 L 5.5360000000000005,62.615 C 5.788,62.903 6.107,63.091 6.447000000000001,63.199000000000005 L 7.489000000000001,67.436 C 7.678000000000001,68.20700000000001 8.302000000000001,68.79400000000001 9.082,68.93700000000001 L 15.253,70.07100000000001 C 15.374,70.09300000000002 15.496,70.10400000000001 15.617,70.10400000000001 C 15.948,70.10400000000001 16.276,70.02200000000002 16.571,69.86400000000002 L 21.579,67.17500000000001 L 22.508,70.19400000000002 C 22.768,71.04000000000002 23.55,71.61600000000001 24.433999999999997,71.61600000000001 L 31.108999999999998,71.61600000000001 C 31.965999999999998,71.61600000000001 32.729,71.07400000000001 33.010999999999996,70.26500000000001 L 33.461999999999996,68.97400000000002 L 40.699,78.07700000000001 C 41.053999999999995,78.52300000000001 41.580999999999996,78.799 42.15,78.83400000000002 L 49.497,79.29500000000002 C 49.54,79.29800000000002 49.582,79.29900000000002 49.624,79.29900000000002 C 50.508,79.29900000000002 51.295,78.72100000000002 51.553000000000004,77.86400000000002 L 52.45400000000001,74.86900000000001 L 59.13300000000001,75.63500000000002 C 59.21000000000001,75.64400000000002 59.28600000000001,75.64800000000002 59.36300000000001,75.64800000000002 C 60.18200000000001,75.64800000000002 60.931000000000004,75.14800000000002 61.23700000000001,74.37100000000002 L 62.516000000000005,71.11800000000002 L 63.35900000000001,72.60800000000002 C 63.71800000000001,73.24600000000002 64.39200000000001,73.63200000000002 65.11200000000001,73.63200000000002 C 65.19000000000001,73.63200000000002 65.26700000000001,73.62800000000001 65.34500000000001,73.61800000000002 L 74.03500000000001,72.61000000000003 C 74.57100000000001,72.54800000000003 75.05900000000001,72.27400000000003 75.391,71.84700000000002 C 75.724,71.42100000000002 75.87,70.88000000000002 75.799,70.34500000000003 L 75.74900000000001,69.96300000000002 C 75.97200000000001,70.04600000000002 76.20500000000001,70.10500000000002 76.447,70.10500000000002 C 76.732,70.10500000000002 77.021,70.04400000000001 77.298,69.91600000000003 L 85.673,66.01200000000003 C 86.161,65.78500000000003 86.538,65.37200000000003 86.72,64.86500000000002 C 86.901,64.35800000000002 86.871,63.79900000000002 86.638,63.313000000000024 L 84.33200000000001,58.517000000000024 L 91.93700000000001,60.58900000000003 C 92.11100000000002,60.636000000000024 92.29,60.65900000000003 92.46600000000001,60.65900000000003 C 92.95400000000001,60.65900000000003 93.433,60.48200000000003 93.80600000000001,60.148000000000025 L 99.32300000000001,55.23700000000002 C 99.934,54.694 100.156,53.838 99.888,53.068 M 6.517,57.546 C 6.5040000000000004,57.555 6.496,57.567 6.4830000000000005,57.575 L 5.191,56.1 L 6.265,54.534 L 6.819,54.797 C 7.089,54.925 7.384,54.991 7.682,54.991 C 7.702,54.991 7.722,54.991 7.7410000000000005,54.99 L 10.916,54.896 L 6.517,57.546 M 58.054,71.453 L 53.325,70.911 C 53.288000000000004,70.775 53.246,70.64 53.181000000000004,70.514 L 52.410000000000004,67.41199999999999 L 54.839000000000006,65.65299999999999 L 59.516000000000005,67.73599999999999 L 58.054,71.453 M 66.21,69.459 L 64.817,66.99300000000001 L 69.291,63.912000000000006 L 71.04299999999999,65.09500000000001 L 71.53699999999999,68.84100000000001 L 66.21,69.459 M 82.124,63.22 L 77.41199999999999,65.416 L 72.63499999999999,55.327999999999996 L 79.18699999999998,57.111999999999995 L 82.124,63.22"/>
	<path d="M 51.089,33.055 C 52.182,33.217 53.214999999999996,32.459 53.379,31.358 L 53.855,28.154 L 58.465999999999994,28.576 L 57.96699999999999,30.775 C 57.72099999999999,31.86 58.401999999999994,32.94 59.486999999999995,33.186 C 59.635999999999996,33.22 59.78699999999999,33.236 59.934,33.236 C 60.854,33.236 61.686,32.601 61.897,31.665999999999997 L 62.905,27.224999999999998 C 63.034,26.659 62.912,26.064999999999998 62.571,25.595 C 62.229,25.125 61.702,24.825 61.123999999999995,24.773 L 52.32599999999999,23.967 C 51.24399999999999,23.869999999999997 50.30599999999999,24.621 50.147999999999996,25.677 L 49.392999999999994,30.765 C 49.229,31.866 49.989,32.891 51.089,33.055"/>
	<path d="M 8.633,50.44 C 8.694999999999999,50.452 8.757,50.457 8.816999999999998,50.457 C 9.293999999999999,50.457 9.716999999999999,50.117 9.806999999999999,49.633 L 10.407999999999998,46.38 C 10.505999999999998,45.847 10.164999999999997,45.331 9.635999999999997,45.213 L 7.271999999999998,44.688 C 6.730999999999997,44.572 6.189999999999998,44.910000000000004 6.069999999999998,45.454 C 5.948999999999998,45.997 6.291999999999998,46.535000000000004 6.834999999999997,46.656 L 8.250999999999998,46.969 L 7.825999999999998,49.267 C 7.725,49.813 8.086,50.338 8.633,50.44"/>
	<path d="M 15.954,64.94 C 16.511,64.94 16.962,64.49 16.962,63.931999999999995 L 16.962,60.952999999999996 C 16.962,60.43899999999999 16.576,60.007999999999996 16.066,59.95099999999999 L 12.286999999999999,59.53099999999999 C 11.732999999999999,59.47599999999999 11.235999999999999,59.86699999999999 11.174999999999999,60.42199999999999 C 11.113,60.97499999999999 11.511999999999999,61.47299999999999 12.065,61.53399999999999 L 14.948,61.85399999999999 L 14.948,63.931999999999995 C 14.946,64.49 15.397,64.94 15.954,64.94"/>
	<path d="M 28.895,66.074 C 29.451,66.074 29.902,65.623 29.902,65.066 L 29.902,63.303000000000004 C 29.902,62.745000000000005 29.451,62.295 28.895,62.295 L 26.637999999999998,62.295 C 26.081999999999997,62.295 25.630999999999997,62.745000000000005 25.630999999999997,63.303000000000004 C 25.630999999999997,63.86000000000001 26.081999999999997,64.31 26.637999999999998,64.31 L 27.887999999999998,64.31 L 27.887999999999998,65.066 C 27.887,65.623 28.338,66.074 28.895,66.074"/>
	<path d="M 44.231,74.086 C 44.266,74.089 44.300000000000004,74.091 44.334,74.091 C 44.845000000000006,74.091 45.283,73.705 45.335,73.187 L 45.457,71.99 L 46.554,72.03999999999999 C 47.085,72.085 47.581,71.63499999999999 47.606,71.07799999999999 C 47.631,70.52199999999999 47.201,70.05199999999999 46.645,70.02599999999998 L 44.597,69.93399999999998 C 44.067,69.89899999999999 43.603,70.30599999999998 43.549,70.83799999999998 L 43.332,72.98199999999999 C 43.274,73.536 43.678,74.031 44.231,74.086"/>
	<path d="M 62.619,58.761 C 62.265,58.329 61.631,58.266000000000005 61.201,58.618 L 59.815,59.751000000000005 C 59.497,60.01200000000001 59.369,60.440000000000005 59.492,60.834 L 59.995999999999995,62.439 C 60.13099999999999,62.869 60.52799999999999,63.144 60.956999999999994,63.144 C 61.056999999999995,63.144 61.15899999999999,63.129 61.25899999999999,63.098 C 61.78999999999999,62.932 62.084999999999994,62.366 61.91899999999999,61.833999999999996 L 61.61799999999999,60.879 L 62.475999999999985,60.178 C 62.907,59.826 62.972,59.191 62.619,58.761"/>
	<path d="M 92.79,49.788 C 92.465,49.336 91.83600000000001,49.235 91.384,49.559999999999995 L 88.957,51.31099999999999 C 88.729,51.47399999999999 88.58099999999999,51.72599999999999 88.547,52.00399999999999 C 88.51299999999999,52.28099999999999 88.595,52.56199999999999 88.776,52.77599999999999 L 90.551,54.88299999999999 C 90.751,55.118999999999986 91.035,55.240999999999985 91.322,55.240999999999985 C 91.551,55.240999999999985 91.782,55.16299999999998 91.97,55.003999999999984 C 92.396,54.64599999999999 92.449,54.009999999999984 92.091,53.58399999999998 L 91.01599999999999,52.30699999999998 L 92.56099999999999,51.192999999999984 C 93.014,50.869 93.115,50.239 92.79,49.788"/>
	<path d="M 26.807,37.026 C 26.921,36.43000000000001 26.773,35.792 26.337999999999997,35.304 L 23.624999999999996,32.27 L 26.778999999999996,30.606 L 29.771999999999995,34.441 C 29.831999999999994,34.518 29.900999999999996,34.582 29.968999999999994,34.648 C 30.656999999999993,34.336000000000006 31.394999999999992,34.328 32.117,35.06 C 32.285,34.992000000000004 32.449999999999996,34.908 32.599999999999994,34.79 C 33.477,34.105 33.63399999999999,32.839 32.94899999999999,31.962 L 28.91899999999999,26.798000000000002 C 28.31799999999999,26.028000000000002 27.25199999999999,25.799000000000003 26.39099999999999,26.255000000000003 L 19.46399999999999,29.907000000000004 C 18.914999999999992,30.197000000000003 18.52999999999999,30.722000000000005 18.420999999999992,31.333000000000002 C 18.310999999999993,31.944000000000003 18.487999999999992,32.57 18.901999999999994,33.033 L 23.334999999999994,37.991 C 23.649999999999995,38.342999999999996 24.061999999999994,38.553 24.492999999999995,38.627 C 25.059,37.982 26.0,37.495 26.807,37.026"/>
	<path d="M 81.625,36.828 C 80.348,36.828 79.085,37.111000000000004 77.873,37.669000000000004 C 77.036,38.054 76.295,38.25000000000001 75.67,38.25000000000001 C 74.769,38.25000000000001 74.087,37.846000000000004 73.224,37.33400000000001 C 72.259,36.76300000000001 71.059,36.05100000000001 69.489,36.05100000000001 C 68.53,36.05100000000001 67.57000000000001,36.31100000000001 66.56700000000001,36.84400000000001 C 66.555,36.73300000000001 66.546,36.62500000000001 66.537,36.528000000000006 C 66.337,34.38400000000001 65.923,29.924000000000007 61.057,29.924000000000007 C 60.957,29.924000000000007 60.854,29.926000000000005 60.75,29.930000000000007 C 57.893,30.047000000000008 55.842,30.762000000000008 54.344,31.284000000000006 C 53.43,31.602000000000007 52.709,31.853000000000005 52.177,31.853000000000005 C 51.892,31.853000000000005 51.516,31.785000000000004 50.89,31.280000000000005 C 49.21,29.923000000000005 47.079,29.206000000000003 44.729,29.206000000000003 C 42.069,29.206000000000003 39.49,30.129000000000005 37.723,31.695000000000004 C 37.094,31.904000000000003 35.693,32.315000000000005 34.424,32.315000000000005 C 33.997,32.315000000000005 33.63,32.266000000000005 33.36,32.172000000000004 C 32.943,32.027 32.496,31.954000000000004 32.032,31.954000000000004 C 30.081999999999997,31.954000000000004 28.043999999999997,33.31100000000001 26.975999999999996,34.572 C 26.897999999999996,34.664 26.824999999999996,34.756 26.756999999999994,34.848000000000006 C 26.450999999999993,34.815000000000005 26.103999999999996,34.773 25.762999999999995,34.73100000000001 C 24.536999999999995,34.58100000000001 23.011999999999993,34.39500000000001 21.600999999999996,34.39500000000001 C 20.348999999999997,34.39500000000001 19.351999999999997,34.54300000000001 18.553999999999995,34.84700000000001 C 15.159999999999995,36.14000000000001 12.333999999999996,41.49700000000001 13.051999999999996,44.016000000000005 C 13.257999999999996,44.74 13.849999999999996,45.288000000000004 14.587999999999996,45.438 L 17.502999999999997,46.032000000000004 C 17.362,47.73800000000001 17.132999999999996,50.245000000000005 16.909999999999997,51.502 C 16.766,52.314 16.979999999999997,53.112 17.513999999999996,53.749 C 18.221999999999994,54.594 19.579999999999995,55.456 24.285999999999994,55.456 C 25.773999999999994,55.456 26.969999999999995,55.368 27.019999999999996,55.364000000000004 C 27.382999999999996,55.336000000000006 27.730999999999995,55.212 28.027999999999995,55.00300000000001 C 28.439999999999994,54.71300000000001 28.961999999999996,54.42300000000001 29.403999999999996,54.224000000000004 C 29.400999999999996,54.36300000000001 29.395999999999997,54.507000000000005 29.390999999999995,54.653000000000006 C 29.347999999999995,55.99400000000001 29.286999999999995,57.82900000000001 30.614999999999995,59.199000000000005 C 31.584999999999994,60.202000000000005 33.041,60.68900000000001 35.065,60.688 C 35.363,60.688 35.683,60.677 36.024,60.656000000000006 C 36.322,60.63700000000001 36.599000000000004,60.62800000000001 36.856,60.62800000000001 C 38.356,60.62800000000001 38.728,60.940000000000005 38.733000000000004,60.940000000000005 C 38.79900000000001,61.069 38.787000000000006,61.542 38.78,61.795 C 38.771,62.123000000000005 38.762,62.462 38.811,62.821000000000005 C 39.19,65.605 42.497,67.95700000000001 46.03,67.95700000000001 C 48.322,67.95700000000001 50.345,66.96400000000001 51.727000000000004,65.159 C 52.181000000000004,64.56700000000001 52.27,63.773 51.959,63.096000000000004 C 51.09,61.195 49.71,56.623000000000005 50.995000000000005,54.623000000000005 C 51.184000000000005,54.327000000000005 51.766000000000005,53.42400000000001 54.167,53.42400000000001 C 54.301,53.42400000000001 54.438,53.42600000000001 54.579,53.43200000000001 C 63.427,53.79200000000001 65.661,56.56000000000001 65.669,56.56000000000001 L 65.669,56.55900000000001 C 65.729,56.65400000000001 65.795,56.744000000000014 65.869,56.82800000000001 L 68.64,59.97600000000001 C 69.25,60.66900000000001 70.255,60.859000000000016 71.075,60.43700000000001 C 71.896,60.01400000000001 72.325,59.08700000000001 72.116,58.18800000000001 C 71.484,55.479000000000006 71.354,52.34100000000001 71.812,51.46700000000001 C 72.527,51.48200000000001 73.24799999999999,51.59200000000001 74.006,51.70900000000001 C 74.866,51.84200000000001 75.756,51.97900000000001 76.69,51.97900000000001 C 79.341,51.97900000000001 81.457,50.823000000000015 83.343,48.341000000000015 C 84.135,47.299000000000014 85.589,45.38800000000001 86.12,45.067000000000014 C 86.336,45.09800000000001 86.845,45.27200000000001 87.129,45.371000000000016 C 88.85000000000001,45.96100000000002 90.397,44.84500000000001 90.396,43.237000000000016 C 90.395,40.821 86.296,36.828 81.625,36.828 M 25.301,42.223 C 21.953999999999997,38.83 25.834999999999997,37.796 27.555,36.553 C 28.785,35.665 31.499,31.659999999999997 33.567,37.782999999999994 C 35.274,42.838 27.408,44.36 25.301,42.223 M 40.294,52.825 C 37.689,51.217000000000006 41.729,48.248000000000005 43.915,49.137 C 48.27,50.905 45.493,56.036 40.294,52.825 M 49.63,40.429 C 45.781000000000006,42.182 44.852000000000004,39.617000000000004 42.874,36.408 C 42.261,35.415 40.864000000000004,32.645 44.028000000000006,31.491 C 47.193000000000005,30.336 48.903000000000006,33.158 49.63000000000001,34.571 C 50.357,35.982 52.687,39.037 49.63,40.429 M 70.653,47.007 C 66.5,47.351 64.805,48.939 63.035000000000004,45.483 C 61.85,43.169 62.86600000000001,40.912 65.83,41.081999999999994 C 66.717,41.13199999999999 67.932,40.99799999999999 69.045,39.553999999999995 C 72.178,35.495 77.173,46.466 70.653,47.007"/>
</svg>
