<?xml version="1.0" ?>
<svg xmlns="http://www.w3.org/2000/svg" xmlns:ev="http://www.w3.org/2001/xml-events" xmlns:xlink="http://www.w3.org/1999/xlink" baseProfile="full" enable-background="new 0 0 100 100" height="600px" version="1.1" viewBox="0 0 100 100" width="600px" x="0px" xml:space="preserve" y="0px">
	<defs/>
	<path d="M 50.0,0.0 C 22.452,0.0 0.0,22.452 0.0,50.0 C 0.0,77.549 22.452,100.0 50.0,100.0 C 77.548,100.0 100.0,77.549 100.0,50.0 C 100.0,22.452 77.549,0.0 50.0,0.0 M 84.192,72.795 L 76.47099999999999,67.648 C 72.05999999999999,64.70599999999999 67.648,62.745999999999995 64.70499999999998,64.70599999999999 L 55.881999999999984,70.591 C 51.80399999999998,73.30999999999999 52.22999999999998,76.472 52.942999999999984,79.41399999999999 L 55.7,90.81 C 53.834,91.069 51.939,91.174 50.001000000000005,91.174 C 45.923,91.174 41.95100000000001,90.61500000000001 38.236000000000004,89.519 L 38.236000000000004,79.41 C 38.236000000000004,73.527 35.29600000000001,70.586 32.354000000000006,67.645 C 29.413000000000007,64.703 26.47200000000001,61.76199999999999 20.589000000000006,61.76199999999999 L 10.479000000000006,61.76199999999999 C 9.384,58.05 8.824,54.079 8.824,50.0 C 8.824,27.189 27.189,8.823 50.0,8.823 L 50.0,8.823 C 65.68299999999999,8.823 79.256,17.492 86.213,30.331 C 79.649,34.686 73.61399999999999,36.962 73.529,41.176 C 73.47,44.117000000000004 73.529,44.948 73.529,47.058 C 73.529,49.999 75.06099999999999,53.784 79.413,55.881 L 89.70599999999999,60.846000000000004 C 88.528,65.205 86.634,69.145 84.192,72.795"/>
	<path d="M 32.354,29.412 L 29.413,41.177 C 28.579,44.516 26.354,47.961 29.413,50.001 L 38.236000000000004,55.882999999999996 C 44.11900000000001,59.80499999999999 46.71300000000001,57.528 50.001000000000005,55.882999999999996 L 55.883,52.94199999999999 C 60.269000000000005,50.75099999999999 61.767,50.001999999999995 61.767,44.11899999999999 L 61.767,32.354 C 61.767,29.413 61.814,27.657 55.883,26.471 L 41.17700000000001,23.531 C 35.016,22.297 33.857,23.395 32.354,29.412"/>
</svg>
