<?xml version="1.0" ?>
<svg xmlns="http://www.w3.org/2000/svg" xmlns:ev="http://www.w3.org/2001/xml-events" xmlns:xlink="http://www.w3.org/1999/xlink" baseProfile="full" enable-background="new 0 0 100 68.42" height="411px" version="1.1" viewBox="0 0 100 68.42" width="600px" x="0px" xml:space="preserve" y="0px">
	<defs/>
	<path d="M 50.0,0.0 C 15.789,0.0 0.0,34.21 0.0,34.21 C 0.0,34.21 15.789,68.42 50.0,68.42 C 84.211,68.42 100.0,34.21 100.0,34.21 C 100.0,34.21 84.21,0.0 50.0,0.0 M 34.21,26.316 C 35.668,26.316 36.842,27.49 36.842,28.947 L 36.842,31.579 L 47.367999999999995,31.579 L 47.367999999999995,28.947 C 47.367999999999995,27.49 48.541999999999994,26.316 49.99999999999999,26.316 C 51.45799999999999,26.316 52.63199999999999,27.49 52.63199999999999,28.947 L 52.63199999999999,31.579 L 63.15699999999999,31.579 L 63.15699999999999,28.947 C 63.15699999999999,27.49 64.33099999999999,26.316 65.78899999999999,26.316 C 67.24699999999999,26.316 68.42199999999998,27.49 68.42199999999998,28.947 L 68.42199999999998,31.579 L 76.31699999999998,31.579 C 77.77399999999997,31.579 78.94699999999997,32.753 78.94699999999997,34.211 C 78.94699999999997,35.669 77.77399999999997,36.842 76.31699999999998,36.842 L 68.42199999999998,36.842 L 68.42199999999998,39.474 C 68.42199999999998,40.931999999999995 67.24699999999999,42.105999999999995 65.78899999999999,42.105999999999995 C 64.33099999999999,42.105999999999995 63.15699999999999,40.931999999999995 63.15699999999999,39.474 L 63.15699999999999,36.842 L 52.631,36.842 L 52.631,39.474 C 52.631,40.931999999999995 51.457,42.105999999999995 49.999,42.105999999999995 C 48.541000000000004,42.105999999999995 47.367000000000004,40.931999999999995 47.367000000000004,39.474 L 47.367000000000004,36.842 L 36.842,36.842 L 36.842,39.474 C 36.842,40.931999999999995 35.668,42.105999999999995 34.21,42.105999999999995 C 32.752,42.105999999999995 31.579,40.931999999999995 31.579,39.474 L 31.579,36.842 L 23.684,36.842 C 22.226000000000003,36.842 21.053,35.669 21.053,34.211 C 21.053,32.753 22.226,31.578999999999997 23.684,31.578999999999997 L 31.579,31.578999999999997 L 31.579,28.946999999999996 C 31.579,27.49 32.752,26.316 34.21,26.316"/>
</svg>
