<?xml version="1.0" ?>
<svg xmlns="http://www.w3.org/2000/svg" xmlns:ev="http://www.w3.org/2001/xml-events" xmlns:xlink="http://www.w3.org/1999/xlink" baseProfile="full" enable-background="new 0 0 78.815 100" height="600px" version="1.1" viewBox="0 0 78.815 100" width="473px" x="0px" xml:space="preserve" y="0px">
	<defs/>
	<path d="M 0.0,31.942 L 0.0,100.0 L 78.815,100.0 L 78.815,31.942 L 0.0,31.942 M 69.236,89.988 L 9.211,89.988 L 9.211,41.064 L 69.236,41.064 L 69.236,89.988"/>
	<path d="M 23.788,84.157 L 20.286,84.157 C 17.871000000000002,84.157 15.528000000000002,82.372 15.528000000000002,79.267 C 15.528000000000002,79.267 15.528000000000002,57.146 15.528000000000002,57.089 C 15.528000000000002,54.323 17.815,52.231 20.286,52.231 L 23.788,52.231 L 23.788,84.157"/>
	<path d="M 54.633,84.157 L 58.136,84.157 C 60.550000000000004,84.157 62.894000000000005,82.372 62.894000000000005,79.267 C 62.894000000000005,79.267 62.894000000000005,57.146 62.894000000000005,57.089 C 62.894000000000005,54.323 60.607000000000006,52.231 58.136,52.231 L 54.633,52.231 L 54.633,84.157"/>
	<path d="M 45.863,52.287 L 45.863,47.804 C 45.863,46.133 44.397999999999996,45.072 42.625,45.072 C 42.625,45.072 35.799,45.072 35.821,45.072 C 34.047,45.072 32.556999999999995,46.133 32.556999999999995,47.804 L 32.556999999999995,52.287 L 26.180999999999994,52.287 L 26.180999999999994,84.213 L 52.294,84.213 L 52.294,52.287 L 45.863,52.287 M 43.439,52.287 L 34.9,52.287 L 34.9,47.662 L 43.439,47.662 L 43.439,52.287"/>
	<path d="M 68.403,11.61 L 63.773,6.919999999999999 L 36.22,6.919999999999999 C 33.852,2.787 29.4,0.0 24.295,0.0 C 16.708000000000002,0.0 10.557000000000002,6.15 10.557000000000002,13.737 C 10.557000000000002,21.323999999999998 16.707,27.475 24.295,27.475 C 29.461000000000002,27.475 33.958,24.622 36.304,20.407000000000004 L 41.691,20.407000000000004 L 45.965,16.077000000000005 L 49.252,19.408000000000005 L 52.54,16.077000000000005 L 55.827,19.408000000000005 L 59.169,16.022000000000006 L 62.593999999999994,19.491000000000007 L 62.675999999999995,19.463000000000008 L 68.429,13.634000000000007 C 69.088,12.97 69.128,12.346 68.403,11.61 M 18.291,17.215 C 16.253,17.215 14.601,15.563 14.601,13.525 C 14.601,11.488 16.253,9.836 18.291,9.836 C 20.329,9.836 21.98,11.488 21.98,13.525 C 21.98,15.562 20.329,17.215 18.291,17.215"/>
</svg>
