<?xml version="1.0" ?>
<svg xmlns="http://www.w3.org/2000/svg" xmlns:ev="http://www.w3.org/2001/xml-events" xmlns:xlink="http://www.w3.org/1999/xlink" baseProfile="full" enable-background="new 0 0 72.224 100" height="600px" version="1.1" viewBox="0 0 72.224 100" width="434px" x="0px" xml:space="preserve" y="0px">
	<defs/>
	<path d="M 19.444,0.0 C 17.547,0.0 16.666,0.0 16.666,2.778 L 16.666,82.986 C 5.556,83.331 0.0,91.667 0.0,97.222 C 0.0,100.0 2.778,100.0 2.778,100.0 L 69.44500000000001,100.0 C 69.44500000000001,100.0 72.224,100.0 72.224,97.222 C 72.224,83.333 63.89,72.222 55.557,72.222 C 46.82,72.222 41.984,87.66799999999999 33.333,88.88799999999999 C 29.540999999999997,89.422 25.875,86.972 22.223,85.07 L 22.223,33.333 L 61.112,16.665999999999997 L 25.009,1.195 C 22.918,0.298 20.834,0.0 19.444,0.0"/>
</svg>
