<?xml version="1.0" ?>
<svg xmlns="http://www.w3.org/2000/svg" xmlns:ev="http://www.w3.org/2001/xml-events" xmlns:xlink="http://www.w3.org/1999/xlink" baseProfile="full" enable-background="new 0 0 100 85.714" height="515px" version="1.1" viewBox="0 0 100 85.714" width="600px" x="0px" xml:space="preserve" y="0px">
	<defs/>
	<path d="M 60.714,0.0 C 56.099,0.0 52.382,3.716 52.382,8.333 C 52.382,12.95 56.099,16.666 60.714,16.666 C 65.33,16.666 69.047,12.95 69.047,8.333 C 69.047,3.716000000000001 65.33,0.0 60.714,0.0"/>
	<path d="M 22.619,9.523 C 18.003,9.523 14.286,13.239 14.286,17.856 C 14.286,22.473000000000003 18.003,26.189 22.619,26.189 C 27.236,26.189 30.953,22.473 30.953,17.856 C 30.953,13.239000000000004 27.235,9.523 22.619,9.523"/>
	<path d="M 66.667,19.047 C 64.892,19.047 61.969,19.688000000000002 59.524,21.428 L 44.047,32.44 C 39.848,35.428 43.701,40.687 47.617999999999995,38.095 L 57.739,31.399 C 57.739,31.399 64.40899999999999,45.704 61.903999999999996,52.381 C 61.821,52.605 61.74999999999999,52.806 61.757,52.976 L 51.339,80.654 C 50.144999999999996,83.842 52.443,85.746 54.760999999999996,85.715 C 56.282,85.694 57.736999999999995,84.795 58.483,83.036 L 71.429,52.38 C 71.429,52.38 73.811,66.664 83.333,66.666 C 89.056,66.667 93.255,66.666 96.429,66.666 C 100.0,66.666 100.0,63.093999999999994 100.0,63.093999999999994 C 100.0,63.093999999999994 100.0,59.522999999999996 96.429,59.522999999999996 C 94.047,59.522999999999996 88.096,59.522 85.714,59.522999999999996 C 80.632,59.522999999999996 80.953,51.892999999999994 80.953,47.617999999999995 C 80.953,40.474999999999994 76.18900000000001,28.571999999999996 76.18900000000001,28.571999999999996 L 90.47500000000001,38.095 C 94.79100000000001,40.973 98.531,35.876999999999995 94.34500000000001,32.738 L 78.571,21.428 C 75.697,19.381 74.776,19.048000000000002 71.428,19.047 C 71.429,19.047 69.047,19.047 66.667,19.047 L 66.667,19.047"/>
	<path d="M 16.667,28.571 C 14.286000000000001,28.571 13.160000000000002,29.697000000000003 11.905000000000001,30.951 L 1.786,41.071 C 0.483,42.374 0.0,43.54 0.0,45.238 C 0.0,47.618 3.64,48.741 5.655,46.725 L 14.286000000000001,38.095 C 19.048000000000002,38.095 20.833000000000002,50.0 19.048000000000002,54.762 L 11.905000000000001,73.81 C 9.926000000000002,79.08500000000001 17.354,80.708 19.048000000000002,76.191 L 26.191000000000003,57.144000000000005 C 26.191000000000003,57.144000000000005 28.572000000000003,61.90500000000001 33.334,61.90500000000001 L 47.620000000000005,61.90500000000001 C 52.383,61.90500000000001 52.383,54.76200000000001 47.620000000000005,54.76200000000001 L 35.714,54.76200000000001 C 33.333,54.76200000000001 33.333,50.00000000000001 33.333,47.61800000000001 C 33.333,38.09500000000001 28.570999999999998,28.57200000000001 23.81,28.57200000000001 L 16.667,28.57200000000001 L 16.667,28.571"/>
</svg>
