<?xml version="1.0" ?>
<svg xmlns="http://www.w3.org/2000/svg" xmlns:ev="http://www.w3.org/2001/xml-events" xmlns:xlink="http://www.w3.org/1999/xlink" baseProfile="full" enable-background="new 0 0 292 242" height="565px" version="1.1" viewBox="0 0 292 242" width="600px" x="0px" xml:space="preserve" y="0px">
	<defs/>
	<path d="M 225.0,58.0 L 225.0,154.0 L 202.0,162.019 L 202.0,86.0 C 202.0,86.0 210.746,86.44 216.088,71.375 C 219.783,60.951 225.0,58.0 225.0,58.0"/>
	<path d="M 186.0,164.74 L 186.0,201.0 C 186.0,201.0 184.818,222.61599999999999 172.735,222.61599999999999 C 160.65200000000002,222.61599999999999 158.609,211.80499999999998 158.609,211.80499999999998 L 152.818,211.16899999999998 C 152.818,211.16899999999998 151.67000000000002,203.53699999999998 156.122,203.53699999999998 C 160.574,203.53699999999998 162.544,204.49099999999999 162.544,204.49099999999999 C 162.544,204.49099999999999 168.137,221.07099999999997 174.65800000000002,220.071 C 181.17900000000003,219.07100000000003 181.669,192.091 181.669,189.865 C 181.669,187.639 179.711,163.893 179.711,163.893 L 186.0,164.74"/>
	<path d="M 104.0,155.214 L 104.0,187.63 C 104.0,187.63 103.075,206.7 92.416,206.7 C 81.756,206.7 80.012,197.16299999999998 80.012,197.16299999999998 L 74.932,196.60199999999998 C 74.932,196.60199999999998 73.934,189.86899999999997 77.86200000000001,189.86899999999997 C 81.78900000000002,189.86899999999997 83.53500000000001,190.71099999999998 83.53500000000001,190.71099999999998 C 83.53500000000001,190.71099999999998 88.47200000000001,205.339 94.22600000000001,204.456 C 99.98000000000002,203.57399999999998 100.41300000000001,179.771 100.41300000000001,177.808 C 100.41300000000001,175.845 98.72200000000001,154.486 98.72200000000001,154.486 L 104.0,155.214"/>
	<path d="M 65.637,49.062 C 65.637,49.062 59.555,51.184999999999995 53.399,59.464999999999996 C 48.516,66.68299999999999 40.761,69.017 40.761,69.017 C 40.761,69.017 39.897000000000006,71.35199999999999 40.886,74.961 L 199.938,83.0 L 202.024,82.952 C 202.024,82.952 207.149,81.701 210.365,76.65899999999999 C 213.882,71.145 213.757,67.84799999999998 216.52100000000002,62.19999999999999 C 219.116,56.89899999999999 223.00000000000003,53.975999999999985 223.00000000000003,53.975999999999985 L 223.00000000000003,52.0 L 65.637,49.062"/>
	<path d="M 198.625,86.0 L 41.0,78.0 L 41.0,82.688 L 198.527,91.002 L 198.625,86.0" points="198.625,86 41,78 41,82.688 198.527,91.002  "/>
	<path d="M 199.041,162.14 L 198.538,93.006 L 41.0,84.691 L 41.0,143.895 L 199.041,162.14" points="199.041,162.14 198.538,93.006 41,84.691 41,143.895  "/>
	<path d="M 199.006,92.009 L 199.059,91.011 L 198.902,91.002 L 198.908,92.004 L 199.006,92.009" fill="#000000" points="199.006,92.009 199.059,91.011 198.902,91.002 198.908,92.004 "/>
	<path d="M 198.913,93.006 L 198.953,93.008 L 199.006,92.009 L 198.908,92.004 L 198.913,93.006" fill="#000000" points="198.913,93.006 198.953,93.008 199.006,92.009 198.908,92.004 "/>
	<path d="M 41.5,82.688 L 40.505,82.636 L 40.452,83.634 L 41.5,83.689 L 41.5,82.688" fill="#000000" points="41.5,82.688 40.505,82.636 40.452,83.634 41.5,83.689 "/>
	<path d="M 40.452,83.634 L 40.399,84.633 L 41.5,84.691 L 41.5,83.689 L 40.452,83.634" fill="#000000" points="40.452,83.634 40.399,84.633 41.5,84.691 41.5,83.689 "/>
</svg>
