<?xml version="1.0" ?>
<svg xmlns="http://www.w3.org/2000/svg" xmlns:ev="http://www.w3.org/2001/xml-events" xmlns:xlink="http://www.w3.org/1999/xlink" baseProfile="full" enable-background="new 0 0 66.657 100" height="600px" version="1.1" viewBox="0 0 66.657 100" width="401px" x="0px" xml:space="preserve" y="0px">
	<defs/>
	<path d="M 23.719,100.0 C 25.314,100.0 26.596,98.697 26.596,97.088 C 26.596,95.48599999999999 25.313,94.192 23.719,94.192 C 22.132,94.192 20.849,95.48899999999999 20.849,97.088 C 20.849,98.693 22.132,100.0 23.719,100.0"/>
	<path d="M 46.956,99.941 C 48.54900000000001,99.941 49.84,98.629 49.84,97.00200000000001 C 49.84,95.394 48.54900000000001,94.087 46.956,94.087 C 45.375,94.087 44.094,95.394 44.094,97.00200000000001 C 44.094,98.629 45.375,99.941 46.956,99.941"/>
	<path d="M 18.043,91.336 C 18.043,91.336 16.355,91.25 16.355,89.493 L 16.355,89.333 C 16.355,87.604 18.043,87.486 18.043,87.486 L 52.516999999999996,87.486 C 52.516999999999996,87.486 54.211999999999996,87.646 54.211999999999996,89.333 L 54.211999999999996,89.493 C 54.211999999999996,91.179 52.516999999999996,91.336 52.516999999999996,91.336 L 18.043,91.336"/>
	<path d="M 41.994,15.428 C 46.206,15.428 49.63,11.964 49.63,7.699000000000001 C 49.63,3.44 46.206,0.0 41.994,0.0 C 37.783,0.0 34.357,3.44 34.357,7.698 C 34.357,11.963 37.783,15.428 41.994,15.428"/>
	<path d="M 0.562,82.911 C 0.201,83.596 0.0,84.368 0.0,85.205 C 0.0,87.919 2.184,90.129 4.89,90.129 C 6.829,90.129 8.495,88.99000000000001 9.29,87.351 L 25.956,58.391 L 19.034,51.400999999999996 L 0.562,82.911"/>
	<path d="M 34.03,81.611 C 33.307,83.254 31.772000000000002,84.39200000000001 29.984,84.39200000000001 C 27.512,84.39200000000001 25.498,82.18100000000001 25.498,79.471 C 25.498,78.62400000000001 25.686,77.85000000000001 26.016000000000002,77.164 L 32.703,64.277 L 19.663000000000004,50.057 C 14.658000000000005,44.538000000000004 18.225000000000005,38.573 18.225000000000005,38.573 L 25.245000000000005,24.97 L 6.628,24.993 C 4.569,24.993 2.932,23.168 2.932,20.938 C 2.932,18.729 4.569,16.906 6.628,16.906 L 62.981,16.906 C 65.015,16.906 66.657,18.729 66.657,20.961 C 66.657,23.191 65.015,24.993 62.980999999999995,24.993 L 41.482,24.993 L 31.226,44.701 L 41.667,56.022999999999996 C 45.322,59.873 42.956,64.205 42.956,64.205 L 34.03,81.611"/>
</svg>
