<?xml version="1.0" ?>
<svg xmlns="http://www.w3.org/2000/svg" xmlns:ev="http://www.w3.org/2001/xml-events" xmlns:xlink="http://www.w3.org/1999/xlink" baseProfile="full" enable-background="new 0 0 78.947 100" height="600px" version="1.1" viewBox="0 0 78.947 100" width="474px" x="0px" xml:space="preserve" y="0px">
	<defs/>
	<path d="M 73.685,10.526 L 52.631,10.526 L 52.631,2.631 C 52.631,1.1729999999999998 51.458,0.0 50.001,0.0 L 28.947,0.0 C 27.489,0.0 26.316,1.173 26.316,2.631 L 26.316,10.526 L 5.263,10.526 C 2.347,10.526 0.0,12.874 0.0,15.789 C 0.0,18.706 2.347,21.052 5.263,21.052 L 73.685,21.052 C 76.60000000000001,21.052 78.94800000000001,18.705 78.94800000000001,15.789 C 78.947,12.874 76.6,10.526 73.685,10.526 M 47.368,10.526 L 31.579,10.526 L 31.579,5.263 L 47.368,5.263 L 47.368,10.526"/>
	<path d="M 5.263,26.316 C 2.347,26.316 -0.39700000000000024,28.703 0.08199999999999985,31.579 L 10.526,94.737 C 11.002,97.613 12.874,100.0 15.79,100.0 L 63.159,100.0 C 66.075,100.0 67.942,97.613 68.42099999999999,94.736 L 78.86699999999999,31.578000000000003 C 79.34199999999998,28.702 76.6,26.315000000000005 73.68499999999999,26.315000000000005 L 5.263,26.315000000000005 L 5.263,26.316"/>
</svg>
