<?xml version="1.0" ?>
<svg xmlns="http://www.w3.org/2000/svg" xmlns:ev="http://www.w3.org/2001/xml-events" xmlns:xlink="http://www.w3.org/1999/xlink" baseProfile="full" enable-background="new 0 0 100 84.211" height="506px" version="1.1" viewBox="0 0 100 84.211" width="600px" x="0px" xml:space="preserve" y="0px">
	<defs/>
	<path d="M 47.368,0.0 C 42.105000000000004,0.0 36.842,2.631 36.842,10.526 C 36.842,13.350999999999999 37.071999999999996,13.832 37.664,16.283 L 41.283,31.249000000000002 L 21.71,43.257 L 3.947,32.895 C 3.356,32.548 2.585,32.538000000000004 1.6440000000000001,32.731 C 0.7040000000000002,32.926 -0.0019999999999997797,34.041000000000004 -0.0009999999999998899,35.198 C 1.1015494072452725e-16,36.356 0.5060000000000001,37.026 1.3150000000000002,37.5 L 77.63,82.237 C 80.02799999999999,83.621 82.192,84.178 84.21,84.211 C 85.621,84.211 87.008,84.026 88.157,83.553 C 90.947,82.40599999999999 92.691,80.333 93.913,79.112 C 94.524,78.50099999999999 94.734,77.756 94.734,76.97399999999999 C 94.734,75.86099999999999 94.05699999999999,74.67899999999999 92.597,74.508 C 91.655,74.398 90.889,74.738 90.29299999999999,75.49499999999999 C 89.05799999999999,77.05999999999999 87.51599999999999,78.23599999999999 86.18299999999999,78.78299999999999 C 84.848,79.33099999999999 83.37299999999999,79.42899999999999 80.26199999999999,77.63199999999999 L 31.415,49.014 L 50.329,37.995000000000005 C 52.08,36.795 52.971000000000004,34.465 52.467,32.403000000000006 L 50.329,23.686000000000007 L 69.147,34.76500000000001 L 72.69800000000001,48.29400000000001 C 73.10300000000001,49.80900000000001 74.22300000000001,51.11500000000001 75.658,51.74800000000001 L 87.666,57.012000000000015 C 96.118,60.716000000000015 97.322,52.664000000000016 91.941,50.332000000000015 L 82.07300000000001,46.057000000000016 L 73.68400000000001,13.165000000000013 L 57.56700000000001,3.9550000000000125 C 53.426,1.564 50.0,0.006 47.368,0.006 L 47.368,0.0"/>
	<path cx="89.473" cy="21.052" d="M 78.947,21.052 A 10.526,10.526 0.0 1,0 99.999,21.052 A 10.526,10.526 0.0 1,0 78.947,21.052" r="10.526"/>
</svg>
