<?xml version="1.0" ?>
<svg xmlns="http://www.w3.org/2000/svg" xmlns:ev="http://www.w3.org/2001/xml-events" xmlns:xlink="http://www.w3.org/1999/xlink" baseProfile="full" enable-background="new 0 0 100 100" height="600px" version="1.1" viewBox="0 0 100 100" width="600px" x="0px" xml:space="preserve" y="0px">
	<defs/>
	<path d="M 5.882,5.882 C 0.0,11.765 0.0,17.647 0.0,17.647 L 58.825,76.471 L 67.648,73.53 L 91.17599999999999,97.059 C 93.038,98.92 94.155,100.0 96.509,100.0 C 97.242,100.0 98.163,100.0 99.082,99.082 C 100.00099999999999,98.16199999999999 100.0,97.244 100.0,96.509 C 100.0,94.155 98.719,92.836 97.061,91.176 L 73.53,67.648 L 76.471,58.824999999999996 L 17.647,0.0 C 17.647,0.0 11.765,0.0 5.882,5.882 L 5.882,5.882"/>
	<path cx="26.471" cy="67.648" d="M 17.648,67.648 A 8.823,8.823 0.0 1,0 35.294,67.648 A 8.823,8.823 0.0 1,0 17.647999999999996,67.648" r="8.823"/>
</svg>
