<?xml version="1.0" ?>
<svg xmlns="http://www.w3.org/2000/svg" xmlns:ev="http://www.w3.org/2001/xml-events" xmlns:xlink="http://www.w3.org/1999/xlink" baseProfile="full" enable-background="new 0 0 100 100" height="600px" version="1.1" viewBox="0 0 100 100" width="468px" x="0px" xml:space="preserve" y="0px">
	<defs/>
	<path d="M 36.442,95.585 C 36.442,95.585 73.241,95.585 76.574,95.585 C 76.574,95.585 84.044,95.586 84.044,88.16699999999999 C 84.044,85.064 84.044,83.02099999999999 84.044,83.02099999999999 L 42.98,83.02099999999999 L 36.442,95.585"/>
	<path d="M 74.482,24.585 L 49.148,72.071 L 84.043,71.989 C 84.043,71.989 84.043,34.56400000000001 84.043,31.462000000000003 C 84.043,24.585000000000004 79.331,24.585000000000004 77.49300000000001,24.585000000000004 C 75.65500000000002,24.585000000000004 74.482,24.585 74.482,24.585"/>
	<path d="M 51.767,53.718 C 51.767,53.718 67.665,29.094000000000005 67.665,20.313000000000002 C 67.665,11.532 60.548,4.415 51.767,4.415 C 42.986000000000004,4.415 35.868,11.533999999999999 35.868,20.313 C 35.867,29.094 51.767,53.718 51.767,53.718 M 51.766,11.365 C 56.488,11.365 60.316,15.192 60.316,19.914 C 60.316,24.637 56.489000000000004,28.464000000000002 51.766000000000005,28.464000000000002 C 47.043000000000006,28.464000000000002 43.21600000000001,24.637 43.21600000000001,19.914 C 43.217,15.194 47.044,11.365 51.766,11.365"/>
	<path d="M 29.636,24.585 C 29.636,24.585 22.907,24.585 21.298000000000002,24.585 C 13.041000000000002,24.585 13.041000000000002,32.572 13.041000000000002,32.572 C 13.041000000000002,35.981 13.041000000000002,84.16900000000001 13.041000000000002,87.464 C 13.041000000000002,95.585 19.344,95.585 19.344,95.585 C 21.987000000000002,95.585 22.309,95.585 22.309,95.585 L 44.463,54.23499999999999 L 29.636,24.585"/>
</svg>
