<?xml version="1.0" ?>
<svg xmlns="http://www.w3.org/2000/svg" xmlns:ev="http://www.w3.org/2001/xml-events" xmlns:graph="http://ns.adobe.com/Graphs/1.0/" xmlns:i="http://ns.adobe.com/AdobeIllustrator/10.0/" xmlns:x="http://ns.adobe.com/Extensibility/1.0/" xmlns:xlink="http://www.w3.org/1999/xlink" baseProfile="full" enable-background="new 0 0 100 100" height="307px" version="1.1" viewBox="0 0 100 100" width="600px" x="0px" xml:space="preserve" y="0px">
	<defs/>
	<path d="M 11.435,71.052 L 41.694,71.054 L 41.694,55.653 L 11.435,71.052" points="11.435,71.052 41.694,71.054 41.694,55.653   "/>
	<path d="M 0.104,53.909 L 0.104,65.341 L 22.366,53.909 L 0.104,53.909" points="0.104,53.909 0.104,65.341 22.366,53.909   "/>
	<path d="M 33.108,53.909 L 0.664,71.054 L 7.492,71.054 L 40.98,53.909 L 33.108,53.909" points="33.108,53.909 0.664,71.054 7.492,71.054 40.98,53.909   "/>
	<path d="M 58.409,35.45 L 88.669,20.051 L 58.409,20.05 L 58.409,35.45" points="58.409,35.45 88.669,20.051 58.409,20.05   "/>
	<path d="M 77.738,37.193 L 100.0,37.193 L 100.0,25.763 L 77.738,37.193" points="77.738,37.193 100,37.193 100,25.763   "/>
	<path d="M 92.613,20.05 L 59.124,37.194 L 66.995,37.194 L 99.44,20.05 L 92.613,20.05" points="92.613,20.05 59.124,37.194 66.995,37.194 99.44,20.05   "/>
	<path d="M 11.435,20.05 L 41.694,35.45 L 41.694,20.05 L 11.435,20.05" points="11.435,20.05 41.694,35.45 41.694,20.05   "/>
	<path d="M 0.104,37.193 L 22.366,37.193 L 0.104,25.763 L 0.104,37.193" points="0.104,37.193 22.366,37.193 0.104,25.763   "/>
	<path d="M 0.104,20.05 L 0.104,23.974 L 26.084,37.193 L 34.148,37.193 L 0.104,20.05" points="0.104,20.05 0.104,23.974 26.084,37.193 34.148,37.193   "/>
	<path d="M 58.409,71.054 L 88.669,71.052 L 58.409,55.653 L 58.409,71.054" points="58.409,71.054 88.669,71.052 58.409,55.653   "/>
	<path d="M 77.738,53.909 L 100.0,65.341 L 100.0,53.909 L 77.738,53.909" points="77.738,53.909 100,65.341 100,53.909   "/>
	<path d="M 65.955,53.909 L 100.0,71.054 L 100.0,67.128 L 74.021,53.909 L 65.955,53.909" points="65.955,53.909 100,71.054 100,67.128 74.021,53.909   "/>
	<path d="M 44.905,20.05 L 44.905,40.067 L 0.104,40.067 L 0.104,50.473 L 44.905,50.473 L 44.905,71.054 L 55.118,71.054 L 55.118,50.473 L 100.0,50.473 L 100.0,40.067 L 55.118,40.067 L 55.118,20.05 L 44.905,20.05" points="44.905,20.05 44.905,40.067 0.104,40.067 0.104,50.473 44.905,50.473 44.905,71.054 55.118,71.054 55.118,50.473     100,50.473 100,40.067 55.118,40.067 55.118,20.05   "/>
</svg>
