<?xml version="1.0" ?>
<svg xmlns="http://www.w3.org/2000/svg" xmlns:ev="http://www.w3.org/2001/xml-events" xmlns:xlink="http://www.w3.org/1999/xlink" baseProfile="full" enable-background="new 0 0 100 100" height="535px" version="1.1" viewBox="0 0 100 100" width="600px" x="0px" xml:space="preserve" y="0px">
	<defs/>
	<path d="M 0.0,100.0 L 100.0,100.0 L 100.0,63.0 C 100.0,63.0 90.25,72.0 72.25,72.0 C 54.25,72.0 45.0,54.088 26.75,54.088 C 8.5,54.088 0.0,63.0 0.0,63.0 L 0.0,100.0"/>
	<path d="M 59.022,59.811 L 85.408,54.931 L 68.962,39.778 L 59.022,59.811" points="59.022,59.811 85.408,54.931 68.962,39.778  "/>
	<path d="M 63.163,52.751 L 83.31099999999999,52.751 L 83.31099999999999,73.03999999999999 L 63.163,73.03999999999999 L 63.163,52.751" height="20.289" transform="matrix(-0.1819 -0.9833 0.9833 -0.1819 24.709 146.3494)" width="20.148" x="63.163" y="52.751"/>
	<path d="M 21.666,11.0 L 39.833,11.0 L 39.833,60.166 L 21.666,60.166 L 21.666,11.0" height="49.166" transform="matrix(0.9603 0.279 -0.279 0.9603 11.1481 -7.166)" width="18.167" x="21.666" y="11"/>
</svg>
