<?xml version="1.0" ?>
<svg xmlns="http://www.w3.org/2000/svg" xmlns:ev="http://www.w3.org/2001/xml-events" xmlns:xlink="http://www.w3.org/1999/xlink" baseProfile="full" clip-rule="evenodd" fill-rule="evenodd" height="449px" style="shape-rendering:geometricPrecision;text-rendering:geometricPrecision;image-rendering:optimizeQuality;" version="1.1" viewBox="0 0 160.947 120.373" width="600px" x="0px" xml:space="preserve" y="0px">
	<defs/>
	<path class="fil0" d="M 77.8491,70.1581 L 77.8491,105.95670000000001 C 77.8491,108.68873 75.61389000000001,110.92394000000002 72.88186,110.92394000000002 L 72.88186,110.92394000000002 C 70.14983000000001,110.92394000000002 67.91462,108.68873000000002 67.91462,105.95670000000001 L 67.91462,93.08570000000002 L 12.23632,95.95006000000002 L 12.23632,120.37296000000002 L 1.9999999999242846e-05,120.37296000000002 L 1.9999999999242846e-05,69.36836000000002 L 12.23632,69.36836000000002 L 12.23632,79.58556000000003 L 67.91462,83.28558000000002 L 67.91462,70.15798000000002 C 64.11387,68.39119000000002 61.49357,64.66050000000003 61.49357,60.34370000000003 C 61.49357,60.17290500000003 61.49837789,60.00325600000003 61.506391,59.834293000000024 L 24.469391,42.157093000000025 C 22.877291000000003,41.39698800000002 22.200981000000002,39.47085300000003 22.962691000000003,37.88104300000003 L 40.243591,1.8170430000000266 C 41.005527,0.22723300000002666 42.928001,-0.4477069999999732 44.520321,0.3121730000000267 L 145.457321,48.48787300000003 L 145.4685394,48.49290984000003 C 145.9413154,48.70354084000003 161.0655394,55.45518984000003 160.9460394,56.52849984000003 C 160.8246974,57.61874984000003 155.2521194,57.55829984000003 150.28483939999998,58.40631984000003 C 145.3329394,59.25159284000003 143.6966594,60.93526984000003 143.66574939999998,61.00303984000003 L 141.79341939999998,64.91047984000002 C 142.11875339999997,64.69549884000003 142.54596839999996,64.65062484000002 142.92143939999997,64.83034834000003 L 145.82860939999998,66.22325834000003 C 146.39639839999998,66.49524734000003 146.6381664,67.18208934000003 146.36617739999997,67.74987834000002 L 139.60765739999997,81.85577834000003 C 139.33566839999997,82.42379634000002 138.64882639999996,82.66556434000003 138.08103739999996,82.39357534000003 L 135.17386739999995,81.00066534000003 C 134.79793639999994,80.82048434000002 134.56486839999994,80.45874734000003 134.52938139999995,80.06976634000003 L 130.21189139999996,89.07998634000003 C 129.45018439999996,90.66956634000003 127.52726139999996,91.34518634000003 125.93516139999996,90.58508634000003 L 80.15416139999996,68.73458634000004 C 79.45198039999997,69.29298834000004 78.67860139999996,69.77217634000003 77.84889139999996,70.15794634000004 L 77.8491,70.1581 M 75.96212000000001,48.0386 C 78.90661000000001,48.0386 81.29361000000002,50.4256 81.29361000000002,53.370090000000005 C 81.29361000000002,56.31458000000001 78.90661000000001,58.70158000000001 75.96212000000001,58.70158000000001 C 73.01763000000001,58.70158000000001 70.63063000000001,56.31458000000001 70.63063000000001,53.370090000000005 C 70.63063000000001,50.4256 73.01763000000001,48.0386 75.96212000000001,48.0386 M 75.96212000000001,45.61657 C 80.24435000000001,45.61657 83.71564000000001,49.08787 83.71564000000001,53.370090000000005 C 83.71564000000001,57.65232 80.24434000000001,61.123610000000006 75.96212000000001,61.123610000000006 C 71.67989000000001,61.123610000000006 68.20860000000002,57.65231000000001 68.20860000000002,53.370090000000005 C 68.20860000000002,49.087860000000006 71.67990000000002,45.61657 75.96212000000001,45.61657"/>
</svg>
