<?xml version="1.0" ?>
<svg xmlns="http://www.w3.org/2000/svg" xmlns:ev="http://www.w3.org/2001/xml-events" xmlns:xlink="http://www.w3.org/1999/xlink" baseProfile="full" enable-background="new 0 0 100 99.988" height="600px" version="1.1" viewBox="0 0 100 99.988" width="600px" x="0px" xml:space="preserve" y="0px">
	<defs/>
	<path d="M 93.75,0.0 L 6.25,0.0 C 2.787,0.0 0.0,2.788 0.0,6.25 L 0.0,75.0 C 0.0,78.463 2.787,81.25 6.25,81.25 L 25.0,81.25 L 25.0,96.875 C 25.0,97.074 25.027,97.264 25.065,97.461 C 25.078000000000003,97.53 25.112000000000002,97.589 25.130000000000003,97.65599999999999 C 25.163000000000004,97.78399999999999 25.177000000000003,97.92299999999999 25.228,98.047 C 25.233,98.06 25.255000000000003,98.068 25.26,98.08 C 25.333000000000002,98.254 25.414,98.439 25.521,98.601 C 25.526,98.611 25.516000000000002,98.626 25.521,98.633 C 25.632,98.798 25.765,98.943 25.912,99.089 C 26.052999999999997,99.231 26.201,99.367 26.368,99.48 L 26.4,99.48 C 26.558999999999997,99.58500000000001 26.743,99.665 26.921,99.741 C 27.058,99.8 27.201999999999998,99.833 27.343999999999998,99.871 C 27.400999999999996,99.88499999999999 27.448999999999998,99.925 27.506999999999998,99.93599999999999 C 27.976,100.03099999999999 28.442999999999998,99.993 28.906999999999996,99.871 C 29.144999999999996,99.80799999999999 29.378999999999998,99.725 29.590999999999998,99.61 C 29.855999999999998,99.467 30.115,99.313 30.339999999999996,99.089 L 48.177,81.25 L 93.75,81.25 C 97.213,81.25 100.0,78.463 100.0,75.0 L 100.0,6.25 C 100.0,2.788 97.213,0.0 93.75,0.0 M 93.75,71.875 C 93.75,73.606 92.356,75.0 90.625,75.0 L 46.875,75.0 C 46.074,75.0 45.273,75.299 44.662,75.912 L 31.25,89.323 L 31.25,78.125 C 31.25,76.394 29.856,75.0 28.125,75.0 L 9.375,75.0 C 7.644,75.0 6.25,73.606 6.25,71.875 L 6.25,9.375 C 6.25,7.644 7.644,6.25 9.375,6.25 L 90.625,6.25 C 92.356,6.25 93.75,7.644 93.75,9.375 L 93.75,71.875" fill="#010101"/>
</svg>
