<?xml version="1.0" ?>
<svg xmlns="http://www.w3.org/2000/svg" xmlns:ev="http://www.w3.org/2001/xml-events" xmlns:xlink="http://www.w3.org/1999/xlink" baseProfile="full" enable-background="new 0 0 75.119 100" height="600px" version="1.1" viewBox="0 0 75.119 100" width="451px" x="0px" xml:space="preserve" y="0px">
	<defs/>
	<path d="M 38.299,43.756 C 38.051,43.756 37.796,43.749 37.545,43.734 C 34.224000000000004,43.918 31.313000000000002,42.878 29.116,40.817 C 28.936,40.646 28.764,40.474 28.593,40.294 C 28.41,40.492 28.216,40.689 28.015,40.881 C 25.758,42.983 22.786,43.964 19.335,43.72 C 17.267,43.574 15.708000000000002,41.774 15.858,39.707 C 15.999,37.639 17.751,36.105000000000004 19.869,36.227000000000004 C 21.578,36.339000000000006 22.424,35.81400000000001 22.877,35.396 C 24.427999999999997,33.969 24.811999999999998,30.886000000000003 24.823,29.913 C 24.834,27.848 26.51,26.177 28.579,26.177 C 30.626,26.177 32.291000000000004,27.817 32.335,29.852 L 32.335,29.852 C 32.335,29.861 32.335,29.869 32.335,29.876 L 32.335,29.876 L 32.335,29.879 C 32.335,29.879 32.335,29.879 32.335,29.883000000000003 L 32.335,29.883000000000003 L 32.335,29.886000000000003 L 32.335,29.886000000000003 L 32.335,29.890000000000004 L 32.335,29.893000000000004 L 32.335,29.893000000000004 L 32.335,29.893000000000004 C 32.335,29.897000000000006 32.335,29.904000000000003 32.335,29.904000000000003 C 32.335,29.907000000000004 32.335,29.911000000000005 32.335,29.915000000000003 C 32.346000000000004,30.851000000000003 32.726,33.904 34.277,35.34 C 34.735,35.764 35.592,36.319 37.327,36.208000000000006 C 37.492,36.197 37.657,36.197 37.829,36.208000000000006 C 39.546,36.32000000000001 40.384,35.793000000000006 40.839,35.377 C 42.391,33.95 42.775999999999996,30.867000000000004 42.782,29.893 C 42.797,27.828 44.47,26.156 46.538999999999994,26.156 C 48.592999999999996,26.156 50.26199999999999,27.804 50.294999999999995,29.851 L 50.294999999999995,29.851 C 50.294999999999995,29.854 50.294999999999995,29.854 50.294999999999995,29.86 C 50.294999999999995,29.86 50.294999999999995,29.86 50.294999999999995,29.863 L 50.294999999999995,29.863 L 50.294999999999995,29.863 C 50.294999999999995,29.863 50.294999999999995,29.863 50.294999999999995,29.867 C 50.294999999999995,29.87 50.294999999999995,29.878 50.294999999999995,29.882 C 50.294999999999995,29.885 50.294999999999995,29.889000000000003 50.294999999999995,29.893 L 50.294999999999995,29.893 L 50.294999999999995,29.893 C 50.294999999999995,29.897000000000002 50.294999999999995,29.900000000000002 50.294999999999995,29.904 C 50.309999999999995,30.839 50.687,33.893 52.23799999999999,35.327 C 52.69299999999999,35.753 53.55499999999999,36.308 55.28999999999999,36.196 C 57.32899999999999,36.041999999999994 59.13799999999999,37.638 59.27299999999999,39.71 C 59.39799999999999,41.78 57.82799999999999,43.565 55.758999999999986,43.697 C 52.347999999999985,43.921 49.328999999999986,42.906000000000006 47.076999999999984,40.788000000000004 C 46.896999999999984,40.620000000000005 46.72099999999998,40.447 46.55299999999998,40.267 C 46.368999999999986,40.465 46.17499999999998,40.661 45.97699999999998,40.852000000000004 C 43.938,42.773 41.301,43.756 38.299,43.756" fill="#010101"/>
	<path d="M 55.511,70.536 L 55.511,86.854 C 55.511,90.988 52.132000000000005,94.366 47.998000000000005,94.366 L 46.193000000000005,94.366 C 46.193000000000005,97.476 43.67,100.0 40.559000000000005,100.0 L 34.559000000000005,100.0 C 31.449000000000005,100.0 28.925000000000004,97.477 28.925000000000004,94.366 L 27.118000000000006,94.366 C 22.986000000000004,94.366 19.606000000000005,90.988 19.606000000000005,86.854 L 19.606000000000005,70.536 C 7.939,64.157 0.0,51.769 0.0,37.559 C 0.0,16.848 16.849,0.0 37.56,0.0 C 58.269000000000005,0.0 75.12,16.848 75.12,37.559 C 75.119,51.769 67.182,64.157 55.511,70.536 M 67.607,37.556 C 67.607,20.987999999999996 54.128,7.507999999999999 37.559,7.507999999999999 C 20.990999999999996,7.507999999999999 7.511999999999997,20.987 7.511999999999997,37.556 C 7.511999999999997,54.122 20.990999999999996,67.60499999999999 37.559,67.60499999999999 C 54.128,67.605 67.607,54.128 67.607,37.556" fill="#010101"/>
</svg>
