<?xml version="1.0" ?>
<svg xmlns="http://www.w3.org/2000/svg" xmlns:ev="http://www.w3.org/2001/xml-events" xmlns:xlink="http://www.w3.org/1999/xlink" baseProfile="full" enable-background="new 0 0 512 512" height="600px" version="1.1" viewBox="0 0 512 512" width="600px" x="0px" xml:space="preserve" y="0px">
	<defs/>
	<path d="M 256.0,0.0 C 114.609,0.0 0.0,114.609 0.0,256.0 C 0.0,397.391 114.609,512.0 256.0,512.0 C 397.391,512.0 512.0,397.391 512.0,256.0 C 512.0,114.60899999999998 397.391,0.0 256.0,0.0 M 256.0,472.0 C 136.703,472.0 40.0,375.297 40.0,256.0 C 40.0,136.70299999999997 136.703,40.0 256.0,40.0 C 375.297,40.0 472.0,136.703 472.0,256.0 C 472.0,375.297 375.297,472.0 256.0,472.0"/>
	<path d="M 192.0,336.0 L 352.0,256.0 L 192.0,176.0 L 192.0,336.0" points="192,336 352,256 192,176  "/>
</svg>
