<?xml version="1.0" ?>
<svg xmlns="http://www.w3.org/2000/svg" xmlns:ev="http://www.w3.org/2001/xml-events" xmlns:graph="http://ns.adobe.com/Graphs/1.0/" xmlns:i="http://ns.adobe.com/AdobeIllustrator/10.0/" xmlns:x="http://ns.adobe.com/Extensibility/1.0/" xmlns:xlink="http://www.w3.org/1999/xlink" baseProfile="full" enable-background="new 0 0 100 100" height="600px" version="1.1" viewBox="0 0 100 100" width="281px" x="0px" xml:space="preserve" y="0px">
	<defs/>
	<path d="M 41.5,95.0 C 35.71,95.0 31.0,90.245 31.0,84.4 L 31.0,24.0 L 35.0,24.0 L 35.0,84.4 C 35.0,88.101 37.855,91.0 41.5,91.0 C 45.145,91.0 48.0,88.102 48.0,84.4 L 48.0,15.6 C 48.0,9.755 52.71,5.0 58.5,5.0 C 64.28999999999999,5.0 69.0,9.755 69.0,15.6 L 69.0,76.0 L 65.0,76.0 L 65.0,15.6 C 65.0,11.899 62.145,9.0 58.5,9.0 C 54.855,9.0 52.0,11.899 52.0,15.6 L 52.0,84.39999999999999 C 52.0,90.245 47.29,95.0 41.5,95.0"/>
	<path d="M 36.0,16.047 L 36.0,16.006 L 36.0,16.0 L 30.0,16.0 L 30.0,16.007 L 30.0,16.047 C 29.437,16.151 29.0,16.499000000000002 29.0,16.917 L 29.0,22.083000000000002 C 29.0,22.501 29.437,22.849000000000004 30.0,22.953000000000003 C 30.105,22.974 30.209,23.0 30.322,23.0 L 35.677,23.0 C 35.79,23.0 35.894,22.974 35.999,22.953 C 36.562000000000005,22.849 36.999,22.500999999999998 36.999,22.083 L 36.999,16.916999999999998 C 37.0,16.499 36.563,16.151 36.0,16.047"/>
	<path d="M 36.0,15.0 L 36.0,9.0 L 30.0,9.0 L 30.0,15.0 L 36.0,15.0 M 34.0,12.0 L 35.0,12.0 L 35.0,13.0 L 34.0,13.0 L 34.0,12.0 M 31.0,12.0 L 32.0,12.0 L 32.0,13.0 L 31.0,13.0 L 31.0,12.0"/>
	<path d="M 64.0,83.953 L 64.0,83.994 L 64.0,84.0 L 70.0,84.0 L 70.0,83.993 L 70.0,83.95299999999999 C 70.563,83.84899999999999 71.0,83.50099999999999 71.0,83.08299999999998 L 71.0,77.91699999999999 C 71.0,77.49899999999998 70.563,77.15099999999998 70.0,77.04699999999998 C 69.895,77.026 69.791,77.0 69.678,77.0 L 64.323,77.0 C 64.21,77.0 64.106,77.026 64.00099999999999,77.047 C 63.43799999999999,77.151 63.00099999999999,77.499 63.00099999999999,77.917 L 63.00099999999999,83.083 C 63.0,83.501 63.437,83.849 64.0,83.953"/>
	<path d="M 64.0,85.0 L 64.0,91.0 L 70.0,91.0 L 70.0,85.0 L 64.0,85.0 M 66.0,88.0 L 65.0,88.0 L 65.0,87.0 L 66.0,87.0 L 66.0,88.0 M 69.0,88.0 L 68.0,88.0 L 68.0,87.0 L 69.0,87.0 L 69.0,88.0"/>
</svg>
