<?xml version="1.0" ?>
<svg xmlns="http://www.w3.org/2000/svg" xmlns:ev="http://www.w3.org/2001/xml-events" xmlns:xlink="http://www.w3.org/1999/xlink" baseProfile="full" enable-background="new 0 0 100 100" height="558px" version="1.1" viewBox="0 0 100 100" width="600px" x="0px" xml:space="preserve" y="0px">
	<defs/>
	<path d="M 42.279,39.208 C 42.279,39.208 41.144000000000005,37.607 42.128,35.967 C 43.113,34.324999999999996 42.731,34.736 44.864,32.93 C 46.998,31.124 60.538,17.502 60.538,17.502 C 60.538,17.502 61.757,16.019 65.136,16.427 C 67.925,16.762999999999998 69.334,21.072 70.14099999999999,25.544 C 71.04299999999999,30.557000000000002 72.10999999999999,38.581 72.10999999999999,39.003 C 72.10999999999999,41.055 70.96399999999998,42.293 68.86899999999999,43.311 C 66.71199999999999,44.361 61.277999999999984,46.06 58.81599999999999,47.045 C 56.353999999999985,48.03 53.64599999999999,48.276 54.13799999999999,49.589 C 54.62999999999999,50.900999999999996 58.81699999999999,61.315 59.59499999999999,63.089 C 60.33299999999999,64.768 60.66199999999999,66.042 60.66199999999999,66.042 C 59.51899999999999,67.191 58.15899999999999,68.627 57.66599999999999,69.283 C 57.17499999999999,69.94 54.05599999999999,72.32000000000001 53.39899999999999,70.186 C 52.74199999999999,68.052 53.72699999999999,67.396 53.72699999999999,67.396 L 47.20599999999999,51.735 C 47.45599999999999,52.311 46.307999999999986,49.89 45.60199999999999,47.7 C 45.60199999999999,47.7 44.20699999999999,44.992000000000004 47.89999999999999,43.515 C 51.60999999999999,42.031 58.04699999999999,39.341 58.62499999999999,38.953 C 59.22399999999999,38.551 60.24999999999999,38.138000000000005 60.24999999999999,38.138000000000005 C 60.24999999999999,38.138000000000005 59.94599999999999,37.022000000000006 58.97899999999999,35.226000000000006 C 58.02899999999999,33.462 57.550999999999995,31.910000000000007 57.13199999999999,31.861000000000004 C 55.87999999999999,31.715000000000003 53.79899999999999,33.943000000000005 53.47999999999999,34.24100000000001 C 52.20699999999999,35.43300000000001 49.78799999999999,37.769000000000005 48.80299999999999,38.918000000000006 C 47.81899999999999,40.06600000000001 46.34099999999999,40.970000000000006 46.34099999999999,40.970000000000006 L 43.63599999999999,40.21900000000001 L 42.279,39.208"/>
	<path d="M 78.654,56.164 C 76.335,56.164 74.134,56.683 72.16,57.606 L 69.163,52.297000000000004 C 69.163,52.297000000000004 68.79599999999999,51.934000000000005 69.607,50.667 C 70.099,49.898 70.837,47.867000000000004 71.576,47.805 C 72.315,47.743 73.52,47.98 73.916,47.805 C 74.681,47.466 74.981,46.321 75.023,45.158 C 75.077,43.677 74.901,42.948 74.71499999999999,42.819 C 74.15,42.427 73.7,42.334 73.3,42.45 C 72.365,42.721000000000004 70.038,43.708000000000006 70.038,43.708000000000006 C 69.054,43.989000000000004 66.692,44.983000000000004 66.09899999999999,45.18900000000001 C 65.499,45.397000000000006 64.68399999999998,45.83500000000001 64.314,46.14300000000001 C 63.94499999999999,46.45100000000001 64.37599999999999,47.37400000000001 64.622,47.43600000000001 C 64.869,47.49700000000001 64.808,47.620000000000005 65.484,47.37400000000001 C 66.16199999999999,47.12800000000001 66.80699999999999,46.99500000000001 66.592,47.68200000000001 C 66.346,48.46600000000001 66.105,49.17100000000001 65.75,49.92000000000001 C 65.381,50.69800000000001 64.621,50.49200000000001 64.621,50.49200000000001 L 46.494,50.11100000000001 C 46.494,50.11100000000001 43.758,50.10200000000001 42.915,50.06200000000001 C 42.043,50.021000000000015 38.974,49.94700000000001 37.93,50.021000000000015 C 36.782,50.103000000000016 36.992,50.219000000000015 37.345,49.451000000000015 C 37.724,48.62700000000002 37.684,47.97400000000002 37.602,46.743000000000016 C 37.519999999999996,45.51300000000002 36.903999999999996,44.41900000000002 36.494,43.70800000000001 C 36.084,42.99500000000001 36.659,42.90600000000001 36.659,42.90600000000001 L 38.3,42.88800000000001 C 38.3,42.88800000000001 41.541999999999994,43.11700000000001 42.527,43.03400000000001 C 43.511,42.95200000000001 45.54,43.22100000000001 46.189,42.97300000000001 C 46.848,42.72100000000001 46.35,41.058000000000014 46.35,39.55900000000001 C 46.35,39.55900000000001 36.957,39.67800000000001 36.25,39.741000000000014 C 35.638,39.796000000000014 34.913,40.179000000000016 34.24,40.81800000000001 C 33.609,41.41900000000001 33.295,42.36700000000001 33.212,43.707000000000015 C 33.13,45.046000000000014 34.003,45.62000000000001 34.198,46.74200000000002 C 34.353,47.63700000000002 34.415,48.12500000000002 34.415,48.12500000000002 C 34.415,48.12500000000002 34.165,48.46300000000002 33.711999999999996,49.33900000000002 L 33.711999999999996,49.33900000000002 L 31.324999999999996,52.55600000000002 L 28.533999999999995,57.13900000000002 L 28.134999999999994,57.865000000000016 C 26.028999999999996,56.77900000000002 23.642999999999994,56.16300000000002 21.114999999999995,56.16300000000002 C 12.630999999999995,56.16300000000002 5.726999999999995,63.06500000000002 5.726999999999995,71.55000000000001 C 5.726999999999995,80.035 12.629999999999995,86.93800000000002 21.114999999999995,86.93800000000002 C 29.599999999999994,86.93800000000002 36.501999999999995,80.03500000000001 36.501999999999995,71.55000000000001 C 36.501999999999995,66.73600000000002 34.27799999999999,62.43200000000001 30.803999999999995,59.60800000000001 L 30.831999999999994,59.561000000000014 L 33.047999999999995,56.31900000000002 C 33.047999999999995,56.31900000000002 45.443999999999996,67.03700000000002 48.416999999999994,69.40200000000002 C 48.318,69.95300000000002 48.370999999999995,70.65800000000002 48.49699999999999,71.55000000000001 C 49.23499999999999,76.79400000000001 50.99199999999999,77.21800000000002 63.760999999999996,76.05600000000001 C 63.821999999999996,76.05000000000001 63.879,76.046 63.93899999999999,76.04 C 65.865,82.34100000000001 71.73299999999999,86.93700000000001 78.65599999999999,86.93700000000001 C 87.14099999999999,86.93700000000001 94.044,80.034 94.044,71.549 C 94.044,63.06400000000001 87.14,56.164 78.654,56.164 M 33.793,71.551 C 33.793,78.543 28.105,84.231 21.113999999999997,84.231 C 14.121999999999996,84.231 8.433999999999997,78.54299999999999 8.433999999999997,71.55099999999999 C 8.433999999999997,64.55999999999999 14.121999999999996,58.871999999999986 21.113999999999997,58.871999999999986 C 23.168999999999997,58.871999999999986 25.108999999999998,59.365999999999985 26.827999999999996,60.237999999999985 L 26.522999999999996,60.79199999999999 L 22.788999999999994,66.64999999999999 L 21.113999999999994,68.916 C 21.113999999999994,68.916 19.690999999999995,69.459 19.259999999999994,70.106 C 18.770999999999994,70.83999999999999 18.018999999999995,71.759 18.613999999999994,72.89699999999999 C 19.063999999999993,73.75599999999999 19.457999999999995,74.46399999999998 21.113999999999994,74.63999999999999 C 22.585999999999995,74.79499999999999 23.238999999999994,74.00399999999999 23.731999999999992,73.01999999999998 C 24.22499999999999,72.03499999999998 24.060999999999993,71.05799999999998 24.060999999999993,71.05799999999998 L 24.26599999999999,70.18799999999997 L 26.64599999999999,66.64999999999998 L 29.40799999999999,61.97199999999998 C 32.09,64.3 33.793,67.729 33.793,71.551 M 63.664,68.096 C 57.565,67.77300000000001 53.799,67.51100000000001 51.528000000000006,67.66 C 51.61800000000001,67.575 51.675000000000004,67.521 51.675000000000004,67.521 C 51.675000000000004,67.521 36.98500000000001,54.514 36.739000000000004,54.431 C 36.493,54.349999999999994 35.621,52.558 35.621,52.556999999999995 L 35.687000000000005,52.459999999999994 L 36.73800000000001,54.431 L 37.06700000000001,53.836 L 62.58,54.08 L 62.601,54.044 C 62.799,54.20399999999999 63.094,54.361 62.796,55.006 C 62.304,56.073 62.025,56.278 61.271,57.518 C 60.611000000000004,58.603 60.083,59.196 60.005,60.053 C 59.968,60.464 60.924,61.979 61.376000000000005,62.488 C 61.818000000000005,62.985 62.036,63.193 62.775000000000006,61.839999999999996 C 63.513000000000005,60.486 64.929,58.156 65.483,57.376999999999995 C 66.098,56.513 66.34400000000001,55.931 66.652,56.17699999999999 C 66.96,56.42299999999999 67.822,57.77799999999999 68.191,58.392999999999994 C 68.263,58.51299999999999 68.523,58.986999999999995 68.893,59.666 C 66.314,61.787 64.439,64.733 63.664,68.096 M 70.213,62.102 C 71.82199999999999,65.079 73.79799999999999,68.749 73.815,68.75 C 73.815,68.75 73.815,68.751 73.816,68.751 C 71.619,68.501 69.075,68.36800000000001 66.419,68.235 C 67.07,65.834 68.41,63.714 70.213,62.102 M 78.654,84.23 C 73.17099999999999,84.23 68.49,80.729 66.726,75.845 C 76.079,75.356 81.323,76.639 80.932,72.073 C 80.83500000000001,70.94699999999999 79.875,70.18199999999999 78.331,69.64699999999999 C 78.26100000000001,69.49699999999999 78.164,69.3 78.039,69.03899999999999 C 77.177,67.25499999999998 74.653,62.02299999999999 74.653,62.02299999999999 L 73.49600000000001,59.97299999999999 C 75.072,59.26699999999999 76.81700000000001,58.870999999999995 78.653,58.870999999999995 C 85.64500000000001,58.870999999999995 91.333,64.559 91.333,71.55 C 91.334,78.543 85.646,84.23 78.654,84.23"/>
	<path cx="60.539" cy="10.019" d="M 55.451,10.019 A 5.088,5.088 0.0 1,0 65.627,10.019 A 5.088,5.088 0.0 1,0 55.45099999999999,10.019" r="5.088"/>
</svg>
