<?xml version="1.0" ?>
<svg xmlns="http://www.w3.org/2000/svg" xmlns:ev="http://www.w3.org/2001/xml-events" xmlns:xlink="http://www.w3.org/1999/xlink" baseProfile="full" enable-background="new 0 0 100 42.111" height="253px" version="1.1" viewBox="0 0 100 42.111" width="600px" x="0px" xml:space="preserve" y="0px">
	<defs/>
	<path d="M 0.0,42.111 C 0.0,42.111 20.453,1.5349999999999966 38.681,0.04399999999999693 C 58.385,-1.5680000000000032 72.36699999999999,42.111 72.36699999999999,42.111 L 0.0,42.111 L 0.0,42.111" fill="#010101"/>
	<path d="M 52.643,3.255 C 52.643,3.255 60.175,10.619 64.999,19.61 C 70.164,29.246 73.25999999999999,38.577 73.25999999999999,38.577 C 73.25999999999999,38.577 74.62599999999999,34.321 78.675,24.487 C 82.725,14.652999999999999 85.529,9.066999999999998 85.529,9.066999999999998 C 85.529,9.066999999999998 77.49499999999999,9.673999999999998 69.258,8.601999999999999 C 62.139,7.675 52.643,3.255 52.643,3.255 L 52.643,3.255" fill="#010101"/>
	<path d="M 74.009,42.111 L 79.589,27.450999999999997 C 79.589,27.450999999999997 82.24,31.458 83.777,34.108999999999995 C 85.312,36.76199999999999 87.865,42.111 87.865,42.111 L 74.009,42.111 L 74.009,42.111" fill="#010101"/>
	<path d="M 89.329,42.111 C 89.329,42.111 88.10499999999999,38.577999999999996 85.312,32.153999999999996 C 82.51899999999999,25.731999999999996 81.314,23.217999999999996 81.314,23.217999999999996 L 83.079,18.612999999999996 L 100.0,42.111 L 89.329,42.111 L 89.329,42.111" fill="#010101"/>
</svg>
