<?xml version="1.0" ?>
<svg xmlns="http://www.w3.org/2000/svg" xmlns:ev="http://www.w3.org/2001/xml-events" xmlns:xlink="http://www.w3.org/1999/xlink" baseProfile="full" enable-background="new 0 0 100 100" height="600px" version="1.1" viewBox="0 0 100 100" width="600px" x="0px" xml:space="preserve" y="0px">
	<defs/>
	<path d="M 49.996,1.0 C 22.936,1.0 1.0,22.937 1.0,49.997 C 1.0,77.057 22.936,98.99199999999999 49.996,98.99199999999999 C 77.058,98.99199999999999 98.992,77.05699999999999 98.992,49.99699999999999 C 98.992,22.936999999999998 77.058,1.0 49.996,1.0 M 26.286,26.286 C 32.619,19.953000000000003 41.04,16.466 49.996,16.466 C 56.923,16.466 63.528000000000006,18.553 69.096,22.428 L 19.397,63.747 C 17.476999999999997,59.479 16.465,54.815 16.465,49.997 C 16.465,41.041 19.954,32.62 26.286,26.286 M 73.706,73.706 C 67.372,80.04 58.953,83.527 49.996,83.527 C 42.194,83.527 34.800000000000004,80.88 28.836000000000002,76.01 L 79.446,33.935 C 82.11,38.805 83.527,44.291000000000004 83.527,49.997 C 83.527,58.953 80.04,67.372 73.706,73.706"/>
</svg>
