<?xml version="1.0" ?>
<svg xmlns="http://www.w3.org/2000/svg" xmlns:cc="http://creativecommons.org/ns#" xmlns:dc="http://purl.org/dc/elements/1.1/" xmlns:ev="http://www.w3.org/2001/xml-events" xmlns:inkscape="http://www.inkscape.org/namespaces/inkscape" xmlns:rdf="http://www.w3.org/1999/02/22-rdf-syntax-ns#" xmlns:sodipodi="http://sodipodi.sourceforge.net/DTD/sodipodi-0.dtd" xmlns:svg="http://www.w3.org/2000/svg" xmlns:xlink="http://www.w3.org/1999/xlink" baseProfile="full" height="600px" version="1.1" viewBox="0 0 100 100" width="53px" x="0px" y="0px">
	<defs/>
	<path d="M 14.82303,1044.5392 L 50.0,967.22092 L 85.17697,1044.5392" fill="none" marker-start="none" stroke="#000000" stroke-dasharray="none" stroke-linecap="round" stroke-linejoin="round" stroke-miterlimit="4" stroke-opacity="1" stroke-width="4.64606094"/>
	<path d="M 55.0,15.0 A 5.0,5.0 0.0 1,1 45.0,15.0 A 5.0,5.0 0.0 1,1 55.0,15.0" fill="#000000" fill-opacity="1" stroke="none" transform="translate(0,946.36218)"/>
	<path d="M 30.0,1011.3622 L 70.0,1011.3622 L 20.0,1036.3622 L 80.0,1036.3622 L 30.0,1011.3622" fill="none" stroke="#000000" stroke-dasharray="none" stroke-linecap="butt" stroke-linejoin="miter" stroke-miterlimit="4" stroke-opacity="1" stroke-width="4"/>
	<path d="M 94.936535,35.0 A 44.936535,22.468267 0.0 1,1 5.0634651,35.0 A 44.936535,22.468267 0.0 1,1 94.936535,35.0" fill="none" transform="translate(0,946.36218)"/>
	<path d="M 87.938459,14.965179 A 42.903622,42.903622 0.0 0,1 87.39286899999999,56.035543" fill="none" stroke="#000000" stroke-dasharray="none" stroke-miterlimit="4" stroke-opacity="1" stroke-width="4" transform="translate(0,948.36218)"/>
	<path d="M 76.582611,20.962059 A 30.061586,30.061586 0.0 0,1 76.484851,49.221526" fill="none" stroke="#000000" stroke-dasharray="none" stroke-miterlimit="4" stroke-opacity="1" stroke-width="4" transform="translate(0,948.36218)"/>
	<path d="M 87.938459,14.965179 A 42.903622,42.903622 0.0 0,1 87.39286899999999,56.035543" fill="none" stroke="#000000" stroke-dasharray="none" stroke-miterlimit="4" stroke-opacity="1" stroke-width="4" transform="matrix(-1,0,0,1,100.38847,948.36218)"/>
	<path d="M 76.582611,20.962059 A 30.061586,30.061586 0.0 0,1 76.484851,49.221526" fill="none" stroke="#000000" stroke-dasharray="none" stroke-miterlimit="4" stroke-opacity="1" stroke-width="4" transform="matrix(-1,0,0,1,100.38847,948.36218)"/>
	<path d="M 34.9497476,971.36218 L 65.0502524,971.36218 A 4.9497476,4.9497476 0.0 0,1 70.0,976.3119276 L 70.0,991.4124324 A 4.9497476,4.9497476 0.0 0,1 65.0502524,996.36218 L 34.9497476,996.36218 A 4.9497476,4.9497476 0.0 0,1 30.0,991.4124324 L 30.0,976.3119276 A 4.9497476,4.9497476 0.0 0,1 34.9497476,971.36218" fill="#000000" fill-opacity="1" height="25" ry="4.9497476" stroke="none" width="40" x="30" y="971.36218"/>
</svg>
