<?xml version="1.0" ?>
<svg xmlns="http://www.w3.org/2000/svg" xmlns:ev="http://www.w3.org/2001/xml-events" xmlns:xlink="http://www.w3.org/1999/xlink" baseProfile="full" enable-background="new 0 0 100 100" height="468px" version="1.1" viewBox="0 0 100 100" width="600px" x="0px" xml:space="preserve" y="0px">
	<defs/>
	<path d="M 97.475,84.0 C 86.106,84.0 75.38399999999999,82.211 65.979,78.713 C 67.566,76.461 69.187,73.37599999999999 68.953,69.981 C 68.50800000000001,63.538 61.547000000000004,58.81999999999999 61.547000000000004,58.81999999999999 C 61.547000000000004,58.81999999999999 56.229000000000006,64.46 56.67400000000001,70.90199999999999 C 56.78300000000001,72.48699999999998 57.232000000000006,73.98499999999999 57.845000000000006,75.32699999999998 C 52.946000000000005,72.82199999999999 48.547000000000004,69.87099999999998 44.77300000000001,66.54999999999998 C 47.58700000000001,64.40899999999998 52.68400000000001,59.76999999999998 53.98700000000001,53.45599999999998 C 55.81200000000001,44.606999999999985 49.49100000000001,35.82599999999998 49.49100000000001,35.82599999999998 C 49.49100000000001,35.82599999999998 38.946000000000005,41.13099999999998 37.12100000000001,49.979999999999976 C 36.43900000000001,53.284999999999975 37.07100000000001,56.617999999999974 38.13000000000001,59.495999999999974 C 34.66000000000001,54.97199999999997 32.21600000000001,50.007999999999974 31.01700000000001,44.754999999999974 C 33.49800000000001,41.391999999999975 37.52800000000001,34.70499999999997 36.485000000000014,27.858999999999973 C 35.00200000000002,18.126999999999974 23.829000000000015,11.756999999999973 23.829000000000015,11.756999999999973 C 23.829000000000015,11.756999999999973 16.452000000000016,20.953999999999972 17.936000000000014,30.686999999999973 C 18.960000000000015,37.40599999999997 23.939000000000014,42.623999999999974 26.924000000000014,45.20999999999997 C 27.488000000000014,47.82999999999997 28.335000000000015,50.40499999999997 29.459000000000014,52.92799999999997 C 26.876000000000012,50.32799999999997 23.338000000000015,47.72999999999997 19.12000000000001,47.07799999999997 C 10.014000000000012,45.66899999999997 1.188000000000013,53.85499999999997 1.188000000000013,53.85499999999997 C 1.188000000000013,53.85499999999997 7.328000000000013,63.02499999999997 16.43400000000001,64.43399999999997 C 23.729000000000013,65.56299999999997 30.71300000000001,61.36999999999997 33.20400000000001,59.65699999999997 C 36.00600000000001,63.813999999999965 39.565000000000005,67.64999999999996 43.82000000000001,71.11599999999997 C 41.30800000000001,70.53499999999997 38.519000000000005,70.36199999999997 35.843,71.18099999999997 C 28.030000000000005,73.57299999999996 24.146000000000004,83.51599999999996 24.146000000000004,83.51599999999996 C 24.146000000000004,83.51599999999996 32.589000000000006,88.46399999999997 40.402,86.07199999999996 C 46.087,84.33199999999997 49.872,79.18599999999996 51.512,76.51099999999997 C 57.035,79.84599999999996 63.195,82.30099999999997 69.894,84.30899999999997 C 78.63,86.928 87.91,88.0 97.475,88.0 L 99.0,88.0 L 99.0,84.0 L 97.475,84.0"/>
</svg>
