<?xml version="1.0" ?>
<svg xmlns="http://www.w3.org/2000/svg" xmlns:ev="http://www.w3.org/2001/xml-events" xmlns:xlink="http://www.w3.org/1999/xlink" baseProfile="full" enable-background="new 0 0 100 100" height="160px" version="1.1" viewBox="0 0 100 100" width="600px" x="0px" xml:space="preserve" y="0px">
	<defs/>
	<path d="M 94.831,39.895 C 94.831,39.895 93.11,44.127 90.599,44.127 C 88.087,44.127 79.25,44.127 79.25,44.127 L 68.904,36.98 L 42.57,36.98 L 31.66,45.44499999999999 C 31.66,45.44499999999999 25.453,45.44499999999999 13.979,45.44499999999999 C 2.505,45.444 1.0,59.176 1.0,59.176 L 17.442,59.176 C 17.269000000000002,58.494 17.177,57.78 17.177,57.044000000000004 C 17.177,52.265 21.051,48.391000000000005 25.83,48.391000000000005 C 30.608999999999998,48.391000000000005 34.483,52.26500000000001 34.483,57.044000000000004 C 34.483,57.78 34.391,58.49400000000001 34.217999999999996,59.176 L 67.024,59.176 L 67.58500000000001,59.09 C 67.426,58.434000000000005 67.34,57.75 67.34,57.045 C 67.34,52.266000000000005 71.214,48.392 75.99300000000001,48.392 C 80.60300000000001,48.392 84.37,51.998000000000005 84.63000000000001,56.543000000000006 L 88.84400000000001,56.543000000000006 L 99.0,46.573 L 99.0,39.895 L 94.831,39.895 M 56.343,45.461 L 36.294,45.461 L 44.370999999999995,38.814 L 56.342999999999996,38.814 L 56.342999999999996,45.461 L 56.343,45.461 M 64.421,45.461 L 61.53600000000001,38.814 L 66.94800000000001,38.814 C 66.94800000000001,38.814 69.18400000000001,40.568 75.17,45.461 L 64.421,45.461"/>
	<path d="M 33.633,60.787 C 33.236000000000004,61.613 32.71,62.365 32.084,63.021 L 69.739,63.021 C 69.113,62.366 68.587,61.614000000000004 68.19,60.787 L 33.633,60.787"/>
	<path d="M 1.0,60.787 L 1.0,63.021 L 19.575,63.021 C 18.948999999999998,62.366 18.423,61.614000000000004 18.026,60.787 L 1.0,60.787"/>
	<path d="M 25.829,51.965 C 23.024,51.965 20.75,54.239000000000004 20.75,57.044000000000004 C 20.75,59.849000000000004 23.024,62.123000000000005 25.829,62.123000000000005 C 28.634,62.123000000000005 30.908,59.849000000000004 30.908,57.044000000000004 C 30.908,54.239 28.634,51.965 25.829,51.965 M 25.829,59.677 C 24.375,59.677 23.196,58.498 23.196,57.044 C 23.196,55.589999999999996 24.375,54.410999999999994 25.829,54.410999999999994 C 27.283,54.410999999999994 28.462,55.589999999999996 28.462,57.044 C 28.463,58.498 27.284,59.677 25.829,59.677"/>
	<path d="M 75.992,51.965 C 73.187,51.965 70.91300000000001,54.239000000000004 70.91300000000001,57.044000000000004 C 70.91300000000001,59.849000000000004 73.18700000000001,62.123000000000005 75.992,62.123000000000005 C 78.79700000000001,62.123000000000005 81.071,59.849000000000004 81.071,57.044000000000004 C 81.07,54.239 78.797,51.965 75.992,51.965 M 75.992,59.677 C 74.53800000000001,59.677 73.35900000000001,58.498 73.35900000000001,57.044 C 73.35900000000001,55.589999999999996 74.53800000000001,54.410999999999994 75.992,54.410999999999994 C 77.446,54.410999999999994 78.625,55.589999999999996 78.625,57.044 C 78.625,58.498 77.446,59.677 75.992,59.677"/>
</svg>
