<?xml version="1.0" ?>
<svg xmlns="http://www.w3.org/2000/svg" xmlns:ev="http://www.w3.org/2001/xml-events" xmlns:xlink="http://www.w3.org/1999/xlink" baseProfile="full" enable-background="new 0 0 100 100" height="600px" version="1.1" viewBox="0 0 100 100" width="600px" x="0px" xml:space="preserve" y="0px">
	<defs/>
	<path d="M 56.15,49.999 L 95.213,10.936 C 96.91,9.237 96.91,6.485 95.213,4.786 C 93.514,3.09 90.762,3.09 89.06299999999999,4.786 L 50.0,43.849 L 10.937,4.785 C 9.238,3.0890000000000004 6.486,3.0890000000000004 4.786999999999999,4.785 C 3.089999999999999,6.484 3.089999999999999,9.236 4.786999999999999,10.935 L 43.85,49.999 L 4.787,89.062 C 3.09,90.761 3.09,93.51299999999999 4.787,95.212 C 5.636,96.06 6.75,96.48700000000001 7.862,96.48700000000001 C 8.974,96.48700000000001 10.088000000000001,96.06 10.937000000000001,95.212 L 50.0,56.149 L 89.063,95.212 C 89.912,96.06 91.026,96.48700000000001 92.138,96.48700000000001 C 93.25,96.48700000000001 94.364,96.06 95.21300000000001,95.212 C 96.91000000000001,93.513 96.91000000000001,90.76100000000001 95.21300000000001,89.062 L 56.15,49.999"/>
</svg>
