<?xml version="1.0" ?>
<svg xmlns="http://www.w3.org/2000/svg" xmlns:ev="http://www.w3.org/2001/xml-events" xmlns:xlink="http://www.w3.org/1999/xlink" baseProfile="full" enable-background="new 0 0 100 100" height="600px" version="1.1" viewBox="0 0 100 100" width="600px" x="0px" xml:space="preserve" y="0px">
	<defs/>
	<path d="M 95.358,89.209 L 65.716,59.563 C 70.312,53.659000000000006 73.07799999999999,46.265 73.07799999999999,38.222 C 73.07799999999999,19.003 57.44199999999999,3.368000000000002 38.22199999999999,3.368000000000002 C 19.003999999999987,3.368000000000002 3.3689999999999856,19.003 3.3689999999999856,38.222 C 3.3689999999999856,57.436 19.003999999999984,73.068 38.22199999999999,73.068 C 46.264999999999986,73.068 53.65999999999999,70.304 59.563999999999986,65.712 L 89.20799999999998,95.36 C 90.05699999999999,96.209 91.16899999999998,96.633 92.28299999999999,96.633 C 93.39499999999998,96.633 94.50899999999999,96.20899999999999 95.35799999999999,95.36 C 97.055,93.661 97.055,90.908 95.358,89.209 M 12.065,38.222 C 12.065,23.798000000000002 23.799,12.064 38.222,12.064 C 52.646,12.064 64.381,23.798000000000002 64.381,38.222 C 64.381,52.642 52.644999999999996,64.372 38.222,64.372 C 23.8,64.371 12.065,52.641 12.065,38.222"/>
</svg>
