<?xml version="1.0" ?>
<svg xmlns="http://www.w3.org/2000/svg" xmlns:ev="http://www.w3.org/2001/xml-events" xmlns:xlink="http://www.w3.org/1999/xlink" baseProfile="full" enable-background="new 0 0 100 100" height="600px" version="1.1" viewBox="0 0 100 100" width="528px" x="0px" xml:space="preserve" y="0px">
	<defs/>
	<path d="M 55.371,11.629 C 50.564,2.297 39.189,-0.737 29.715,1.926 C 32.189,11.377 40.123,19.087 50.382999999999996,19.115 C 47.041999999999994,22.383 46.91499999999999,25.467 49.99999999999999,28.366 C 52.843999999999994,21.549 59.318999999999996,14.102 65.624,10.297999999999998 C 64.32199999999999,8.626999999999999 63.019999999999996,6.956999999999998 61.717999999999996,5.285999999999999 C 59.367,7.205 57.275,9.303 55.371,11.629"/>
	<path d="M 67.843,22.874 C 59.589000000000006,22.874 53.025000000000006,27.124 50.0,33.789 C 46.975,27.123 40.411,22.874000000000002 32.157,22.874000000000002 C -9.973000000000006,22.874000000000002 5.578999999999997,103.93100000000001 43.12,98.763 C 46.342999999999996,98.319 48.534,97.248 50.0,95.71900000000001 C 51.466,97.248 53.657,98.319 56.88,98.763 C 94.421,103.931 109.973,22.874 67.843,22.874 M 29.233,37.432 C 22.189,40.369 18.847,48.489000000000004 21.784,55.533 C 22.36,56.916000000000004 21.706999999999997,58.503 20.325,59.079 C 19.983999999999998,59.221000000000004 19.63,59.288000000000004 19.282999999999998,59.288000000000004 C 18.220999999999997,59.288000000000004 17.212999999999997,58.660000000000004 16.778999999999996,57.620000000000005 C 12.690999999999995,47.816 17.341999999999995,36.514 27.145999999999997,32.42700000000001 C 28.529999999999998,31.85000000000001 30.115999999999996,32.50300000000001 30.691999999999997,33.88600000000001 C 31.267999999999997,35.26900000000001 30.615,36.856 29.233,37.432"/>
</svg>
