<?xml version="1.0" ?>
<svg xmlns="http://www.w3.org/2000/svg" xmlns:ev="http://www.w3.org/2001/xml-events" xmlns:xlink="http://www.w3.org/1999/xlink" baseProfile="full" enable-background="new 0 0 100 100" height="600px" version="1.1" viewBox="0 0 100 100" width="600px" x="0px" xml:space="preserve" y="0px">
	<defs/>
	<path d="M 94.29,14.845 C 91.724,14.845 89.644,16.926000000000002 89.644,19.493000000000002 L 89.644,84.042 C 89.644,87.045 87.183,89.668 85.146,89.668 L 17.201,89.668 C 14.635000000000002,89.668 12.553,91.77600000000001 12.553,94.34200000000001 C 12.553,96.90800000000002 14.635000000000002,99.00100000000002 17.201,99.00100000000002 L 88.59800000000001,99.00100000000002 C 94.08000000000001,99.00100000000002 99.00000000000001,94.07500000000002 99.00000000000001,88.58600000000001 L 99.00000000000001,19.493 C 98.999,16.927 96.857,14.845 94.29,14.845 M 80.35,78.174 L 80.35,5.545 C 80.35,3.199 78.511,1.0 76.163,1.0 L 63.949,1.0 L 63.949,27.636 L 53.483999999999995,18.229 L 42.976,27.636 L 42.976,1.0 L 5.586,1.0 C 3.238,1.0 1.672,3.199 1.001,5.534 L 1.001,78.174 C 1.001,80.522 3.239,82.69000000000001 5.587,82.69000000000001 L 76.164,82.69000000000001 C 78.511,82.69 80.35,80.522 80.35,78.174"/>
</svg>
