<?xml version="1.0" ?>
<svg xmlns="http://www.w3.org/2000/svg" xmlns:ev="http://www.w3.org/2001/xml-events" xmlns:xlink="http://www.w3.org/1999/xlink" baseProfile="full" enable-background="new 0 0 100 100" height="600px" version="1.1" viewBox="0 0 100 100" width="600px" x="0px" xml:space="preserve" y="0px">
	<defs/>
	<path d="M 98.918,35.015 C 98.404,31.597 95.459,29.0 91.906,29.0 L 8.095,29.0 C 4.541,29.0 1.596000000000001,31.597 1.083000000000001,35.015 C 1.031,35.363 1.0,35.696 1.0,36.057 L 1.0,91.896 C 1.0,92.258 1.031,92.614 1.083,92.962 C 1.597,96.379 4.541,99.0 8.095,99.0 L 91.905,99.0 C 95.458,99.0 98.404,96.379 98.917,92.962 C 98.97,92.614 99.0,92.258 99.0,91.896 L 99.0,36.057 C 99.0,35.696 98.97,35.363 98.918,35.015 M 43.0,85.0 L 13.0,85.0 L 13.0,80.0 L 43.0,80.0 L 43.0,85.0 M 43.0,76.0 L 13.0,76.0 L 13.0,71.0 L 43.0,71.0 L 43.0,76.0 M 43.0,66.0 L 13.0,66.0 L 13.0,62.0 L 43.0,62.0 L 43.0,66.0 M 43.0,57.0 L 13.0,57.0 L 13.0,52.0 L 43.0,52.0 L 43.0,57.0 M 43.0,48.0 L 13.0,48.0 L 13.0,43.0 L 43.0,43.0 L 43.0,48.0 M 68.642,82.905 C 58.492,82.905 50.26599999999999,74.661 50.26599999999999,64.492 C 50.26599999999999,54.322 58.49199999999999,46.078 68.642,46.078 C 78.78999999999999,46.078 87.01599999999999,54.322 87.01599999999999,64.492 C 87.016,74.661 78.79,82.905 68.642,82.905"/>
	<path d="M 69.456,24.0 L 87.31200000000001,24.0 L 79.52900000000001,17.049 C 79.52900000000001,17.049 25.379000000000012,0.9439999999999991 13.272000000000006,0.9439999999999991 L 11.419000000000006,2.4659999999999993 L 12.868000000000006,4.620999999999999 L 69.456,24.0"/>
	<path cx="68.642" cy="64.492" d="M 50.26599999999999,64.492 A 18.376000000000005,18.413000000000004 0.0 1,0 87.018,64.492 A 18.376,18.413 0.0 1,0 50.266,64.492" fill="none" rx="18.376" ry="18.413"/>
	<path d="M 13.0,52.0 L 43.0,52.0 L 43.0,57.0 L 13.0,57.0 L 13.0,52.0" fill="none" height="5" width="30" x="13" y="52"/>
	<path d="M 13.0,62.0 L 43.0,62.0 L 43.0,66.0 L 13.0,66.0 L 13.0,62.0" fill="none" height="4" width="30" x="13" y="62"/>
	<path d="M 13.0,71.0 L 43.0,71.0 L 43.0,76.0 L 13.0,76.0 L 13.0,71.0" fill="none" height="5" width="30" x="13" y="71"/>
	<path d="M 13.0,80.0 L 43.0,80.0 L 43.0,85.0 L 13.0,85.0 L 13.0,80.0" fill="none" height="5" width="30" x="13" y="80"/>
	<path d="M 13.0,43.0 L 43.0,43.0 L 43.0,48.0 L 13.0,48.0 L 13.0,43.0" fill="none" height="5" width="30" x="13" y="43"/>
</svg>
