<?xml version="1.0" ?>
<svg xmlns="http://www.w3.org/2000/svg" xmlns:ev="http://www.w3.org/2001/xml-events" xmlns:xlink="http://www.w3.org/1999/xlink" baseProfile="full" enable-background="new 0 0 100 100" height="600px" version="1.1" viewBox="0 0 100 100" width="600px" x="0px" xml:space="preserve" y="0px">
	<defs/>
	<path d="M 50.0,1.0 C 22.982,1.0 1.0,22.981 1.0,50.0 C 1.0,77.019 22.982,99.0 50.0,99.0 C 77.018,99.0 99.0,77.019 99.0,50.0 C 99.0,22.981 77.018,1.0 50.0,1.0 M 6.496,50.0 C 6.496,26.011 26.012,6.496 50.0,6.496 C 73.988,6.496 93.504,26.011 93.504,50.0 C 93.504,57.994 91.327,65.485 87.549,71.93 L 81.613,65.397 L 78.924,62.438 C 83.93700000000001,50.976 82.126,37.147000000000006 73.16900000000001,27.288000000000004 C 65.29500000000002,18.624000000000002 53.83700000000001,15.163000000000004 43.10700000000001,17.096000000000004 L 61.113000000000014,36.912000000000006 C 64.33400000000002,40.456 64.07100000000001,45.940000000000005 60.527000000000015,49.160000000000004 L 47.693,60.822 C 44.15,64.042 38.665,63.78 35.445,60.237 L 17.439,40.42 C 14.49,50.918 16.842,62.653000000000006 24.716,71.31700000000001 C 33.672,81.17500000000001 47.263999999999996,84.29700000000001 59.155,80.40200000000002 L 61.843,83.36100000000002 L 67.648,89.74900000000002 C 62.25,92.156 56.281,93.504 50.0,93.504 C 26.012,93.504 6.496,73.988 6.496,50.0"/>
</svg>
