<?xml version="1.0" ?>
<svg xmlns="http://www.w3.org/2000/svg" xmlns:ev="http://www.w3.org/2001/xml-events" xmlns:xlink="http://www.w3.org/1999/xlink" baseProfile="full" enable-background="new 0 0 58.156 100" height="600px" version="1.1" viewBox="0 0 58.156 100" width="350px" x="0px" xml:space="preserve" y="0px">
	<defs/>
	<path d="M 51.905,30.35 C 48.417,30.35 45.65,27.522000000000002 45.65,24.036 L 45.65,10.94 L 45.83,10.94 C 45.706,4.686 40.756,0.0 34.666,0.0 C 28.571999999999996,0.0 23.622999999999998,4.686 23.498999999999995,10.94 L 23.763999999999996,10.94 L 23.763999999999996,24.036 C 23.763999999999996,27.524 20.665999999999997,30.327 17.179999999999996,30.327 L 12.807999999999996,30.327 C 9.320999999999996,30.327 6.493999999999996,33.453 6.493999999999996,36.58 L 2.122,36.58 C 0.786,36.579 0.0,37.757 0.0,39.093 L 0.0,60.465 C 0.0,61.79900000000001 0.786,62.843 2.122,62.843 L 6.494,62.843 C 6.494,66.596 9.321,69.098 12.808,69.098 L 17.18,69.098 C 20.666,69.098 23.764,72.03399999999999 23.764,75.522 L 23.764,88.486 L 23.499,88.486 C 23.497,88.486 23.494,88.71300000000001 23.494,88.79 C 23.494,94.96100000000001 28.495,100.001 34.666,100.001 C 40.833999999999996,100.001 45.836,94.94200000000001 45.836,88.772 C 45.836,88.69600000000001 45.83,88.48700000000001 45.83,88.48700000000001 L 45.65,88.48700000000001 L 45.65,75.521 C 45.65,72.033 48.417,69.208 51.905,69.208 C 55.39,69.208 58.156,66.379 58.156,62.893 L 58.156,36.665 C 58.156,33.177 55.39,30.35 51.905,30.35 M 17.509,64.097 L 11.255,64.097 L 11.255,62.842999999999996 L 17.509,62.842999999999996 L 17.509,64.097 M 17.509,59.718 L 11.255,59.718 L 11.255,58.468 L 17.509,58.468 L 17.509,59.718 M 17.509,55.339 L 11.255,55.339 L 11.255,54.09 L 17.509,54.09 L 17.509,55.339 M 17.509,50.964 L 11.255,50.964 L 11.255,49.711999999999996 L 17.509,49.711999999999996 L 17.509,50.964 M 17.509,46.585 L 11.255,46.585 L 11.255,45.335 L 17.509,45.335 L 17.509,46.585 M 17.509,42.208 L 11.255,42.208 L 11.255,40.958 L 17.509,40.958 L 17.509,42.208 M 17.509,37.831 L 11.255,37.831 L 11.255,36.580000000000005 L 17.509,36.580000000000005 L 17.509,37.831 M 34.632,95.333 C 30.608999999999998,95.333 27.345999999999997,92.237 27.345999999999997,87.858 L 29.774999999999995,87.858 C 29.774999999999995,90.98400000000001 31.890999999999995,93.05000000000001 34.39399999999999,93.05000000000001 L 34.39399999999999,93.07500000000002 C 36.89699999999999,93.07500000000002 39.36999999999999,90.90600000000002 39.36999999999999,88.22900000000001 L 41.85799999999999,88.13200000000002 C 41.858,92.158 38.656,95.333 34.632,95.333 M 33.254,88.621 C 33.254,87.814 33.906,87.16199999999999 34.711999999999996,87.16199999999999 C 35.51499999999999,87.16199999999999 36.166999999999994,87.814 36.166999999999994,88.621 C 36.166999999999994,89.423 35.51499999999999,90.07499999999999 34.711999999999996,90.07499999999999 C 33.907,90.075 33.254,89.423 33.254,88.621 M 41.898,80.354 L 27.515,80.354 L 27.515,79.104 L 41.897999999999996,79.104 L 41.897999999999996,80.354 L 41.898,80.354 M 41.898,75.353 L 27.515,75.353 L 27.515,74.1 L 41.897999999999996,74.1 L 41.897999999999996,75.353 L 41.898,75.353 M 41.898,70.974 L 27.515,70.974 L 27.515,69.72500000000001 L 41.897999999999996,69.72500000000001 L 41.897999999999996,70.974 L 41.898,70.974 M 41.898,65.973 L 27.515,65.973 L 27.515,64.719 L 41.897999999999996,64.719 L 41.897999999999996,65.973 L 41.898,65.973 M 41.898,60.967 L 27.515,60.967 L 27.515,59.717999999999996 L 41.897999999999996,59.717999999999996 L 41.897999999999996,60.967 L 41.898,60.967 M 41.898,56.592 L 27.515,56.592 L 27.515,55.339 L 41.897999999999996,55.339 L 41.897999999999996,56.592 L 41.898,56.592 M 41.898,51.587 L 27.515,51.587 L 27.515,50.337 L 41.897999999999996,50.337 L 41.897999999999996,51.587 L 41.898,51.587 M 41.898,46.585 L 27.515,46.585 L 27.515,45.335 L 41.897999999999996,45.335 L 41.897999999999996,46.585 L 41.898,46.585 M 41.898,41.583 L 27.515,41.583 L 27.515,40.332 L 41.897999999999996,40.332 L 41.897999999999996,41.583 L 41.898,41.583 M 41.898,37.205 L 27.515,37.205 L 27.515,35.955 L 41.897999999999996,35.955 L 41.897999999999996,37.205 L 41.898,37.205 M 41.898,32.202 L 27.515,32.202 L 27.515,30.950999999999997 L 41.897999999999996,30.950999999999997 L 41.897999999999996,32.202 L 41.898,32.202 M 41.898,27.199 L 27.515,27.199 L 27.515,25.949 L 41.897999999999996,25.949 L 41.897999999999996,27.199 L 41.898,27.199 M 41.898,22.822 L 27.515,22.822 L 27.515,21.570999999999998 L 41.897999999999996,21.570999999999998 L 41.897999999999996,22.822 L 41.898,22.822 M 41.898,17.819 L 27.515,17.819 L 27.515,16.569 L 41.897999999999996,16.569 L 41.897999999999996,17.819 L 41.898,17.819 M 33.097,10.993 C 33.097,10.189 33.749,9.535 34.551,9.535 C 35.358000000000004,9.535 36.010000000000005,10.187 36.010000000000005,10.993 C 36.010000000000005,11.799000000000001 35.358000000000004,12.451 34.551,12.451 C 33.75,12.451 33.097,11.798 33.097,10.993 M 39.489,11.564 L 39.489,11.566 C 39.489,8.439 36.897,6.534000000000001 34.394,6.534000000000001 L 34.394,6.518 C 31.891,6.518 29.656,8.697 29.656,11.375 L 27.287,11.391 C 27.287,7.367 30.579,4.183 34.603,4.183 C 38.627,4.183 41.918,7.811999999999999 41.918,11.564 L 39.489,11.564 M 53.781,55.966 L 49.403,55.966 L 49.403,54.716 L 53.781,54.716 L 53.781,55.966 M 53.781,52.84 L 49.403,52.84 L 49.403,51.587 L 53.781,51.587 L 53.781,52.84 M 53.781,49.711 L 49.403,49.711 L 49.403,48.461 L 53.781,48.461 L 53.781,49.711 M 53.781,46.585 L 49.403,46.585 L 49.403,45.335 L 53.781,45.335 L 53.781,46.585 M 53.781,43.459 L 49.403,43.459 L 49.403,42.208000000000006 L 53.781,42.208000000000006 L 53.781,43.459" fill="#010101"/>
</svg>
