<?xml version="1.0" ?>
<svg xmlns="http://www.w3.org/2000/svg" xmlns:ev="http://www.w3.org/2001/xml-events" xmlns:xlink="http://www.w3.org/1999/xlink" baseProfile="full" enable-background="new 0 0 100 95.976" height="576px" version="1.1" viewBox="0 0 100 95.976" width="600px" x="0px" xml:space="preserve" y="0px">
	<defs/>
	<path d="M 56.134,64.152 L 70.28,64.152 L 70.28,76.797 C 70.28,78.875 71.95700000000001,80.553 74.035,80.553 L 74.035,80.553 C 76.113,80.553 77.76599999999999,78.875 77.76599999999999,76.797 L 77.76599999999999,64.152 C 78.892,64.152 79.01799999999999,63.426 79.01799999999999,62.575 L 79.01799999999999,53.13 L 67.17499999999998,47.347 L 42.013,47.347 L 38.784,45.506 C 37.732,44.918 36.405,45.293 35.829,46.32 L 35.829,46.32 C 35.228,47.371 35.603,48.698 36.655,49.275 L 41.762,52.204 L 41.762,76.798 C 41.762,78.876 43.44,80.554 45.517,80.554 L 45.517,80.554 C 47.571000000000005,80.554 49.247,78.876 49.247,76.798 L 49.247,67.158 L 56.008,78.626 C 57.085,80.403 59.388000000000005,80.98 61.141000000000005,79.92800000000001 L 61.141000000000005,79.92800000000001 C 62.918000000000006,78.85100000000001 63.495000000000005,76.57300000000001 62.443000000000005,74.79500000000002 L 56.134,64.152"/>
	<path d="M 10.04,95.976 L 100.0,95.976 L 100.0,86.637 L 19.379,86.637 L 19.379,46.145 L 100.0,9.715 L 100.0,0.0 L 0.0,45.168 L 0.0,54.883 L 10.04,50.376 L 10.04,95.976" points="10.04,95.976 100,95.976 100,86.637 19.379,86.637 19.379,46.145 100,9.715 100,0 0,45.168 0,54.883 10.04,50.376    "/>
	<path d="M 68.327,44.768 L 78.993,49.85 L 78.993,47.847 L 87.656,47.847 L 90.836,40.987 L 68.327,30.271 L 68.327,44.768" points="68.327,44.768 78.993,49.85 78.993,47.847 87.656,47.847 90.836,40.987 68.327,30.271 "/>
</svg>
