<?xml version="1.0" ?>
<svg xmlns="http://www.w3.org/2000/svg" xmlns:ev="http://www.w3.org/2001/xml-events" xmlns:xlink="http://www.w3.org/1999/xlink" baseProfile="full" enable-background="new 0 0 100 100" height="600px" version="1.1" viewBox="0 0 100 100" width="596px" x="0px" xml:space="preserve" y="0px">
	<defs/>
	<path d="M 88.239,52.88 C 86.709,51.11 84.203,50.213 80.79,50.213 C 80.24300000000001,50.213 79.69000000000001,50.237 79.138,50.278 C 78.518,48.925 77.41300000000001,48.125 75.81200000000001,48.125 C 65.06400000000001,48.125 15.625000000000014,48.417 15.625000000000014,48.417 C 15.625000000000014,48.417 9.973000000000013,48.141 11.612000000000014,54.205 C 13.251000000000014,60.268 26.480000000000015,83.143 46.323000000000015,83.143 C 57.561000000000014,83.143 62.558000000000014,79.68900000000001 68.71600000000001,74.087 C 76.20800000000001,73.327 88.31500000000001,68.71600000000001 89.709,59.18900000000001 C 90.091,56.573 89.597,54.451 88.239,52.88 M 85.618,58.59 C 84.999,62.821000000000005 81.11999999999999,65.571 77.975,67.132 C 76.496,67.866 74.954,68.452 73.46,68.903 C 77.329,63.812000000000005 79.42099999999999,58.406000000000006 79.701,54.38400000000001 C 80.067,54.36200000000001 80.43199999999999,54.34700000000001 80.791,54.34700000000001 C 82.919,54.34700000000001 84.414,54.775000000000006 85.112,55.58400000000001 C 85.648,56.204 85.819,57.216 85.618,58.59"/>
	<path d="M 87.746,82.315 C 87.746,82.315 70.10799999999999,84.956 50.815999999999995,84.956 C 50.108999999999995,84.956 49.397,84.95100000000001 48.684,84.944 L 48.684,84.943 C 48.647,84.943 48.611,84.943 48.574999999999996,84.944 C 48.538,84.944 48.501999999999995,84.944 48.465999999999994,84.943 L 48.465999999999994,84.944 C 47.751999999999995,84.95100000000001 47.03999999999999,84.956 46.333999999999996,84.956 C 27.041999999999994,84.956 9.403999999999996,82.315 9.403999999999996,82.315 L 11.883999999999997,84.956 C 11.883999999999997,84.956 12.511999999999997,85.063 13.614999999999997,85.239 L 15.073999999999996,86.793 C 15.073999999999996,86.793 34.952999999999996,90.16900000000001 46.528999999999996,90.16900000000001 C 47.15,90.16900000000001 47.803,90.16900000000001 48.476,90.16900000000001 C 48.51,90.16900000000001 48.542,90.16900000000001 48.576,90.16900000000001 C 48.61,90.16900000000001 48.642,90.16900000000001 48.676,90.16900000000001 C 49.349000000000004,90.16900000000001 50.002,90.16900000000001 50.623000000000005,90.16900000000001 C 62.19800000000001,90.16900000000001 82.078,86.793 82.078,86.793 L 83.537,85.239 C 84.64,85.062 85.268,84.956 85.268,84.956 L 87.746,82.315"/>
	<path d="M 45.266,14.163 C 45.266,14.163 49.318,20.389 46.946,25.232 C 44.574,30.075 45.562,35.312 47.242,38.376 C 47.736,35.411 47.044,29.284 49.12,26.269999999999996 C 51.196,23.255999999999993 48.725,17.622 45.266,14.163"/>
	<path d="M 46.348,9.163 C 46.348,9.163 52.4,22.389000000000003 50.028,27.232 C 47.656,32.075 48.644,37.312 50.324,40.376 C 50.818,37.411 49.72,32.223 51.73,29.163999999999998 C 54.755,24.562 50.85,13.665 46.348,9.163"/>
</svg>
