<?xml version="1.0" ?>
<svg xmlns="http://www.w3.org/2000/svg" xmlns:ev="http://www.w3.org/2001/xml-events" xmlns:xlink="http://www.w3.org/1999/xlink" baseProfile="full" enable-background="new 0 0 99.997 93.15" height="600px" version="1.1" viewBox="0 0 99.997 93.15" width="573px" x="0px" xml:space="preserve" y="0px">
	<defs/>
	<path d="M 69.07,75.594 L 34.620999999999995,75.646 C 34.620999999999995,75.646 26.628999999999994,75.35 22.537999999999997,70.425 C 18.445999999999998,65.472 19.683999999999997,57.909 19.683999999999997,57.909 L 24.796999999999997,29.083 C 26.842999999999996,16.136 43.93299999999999,18.802 41.91499999999999,31.747999999999998 L 36.74799999999999,58.287 L 41.10799999999999,58.287 C 42.26399999999999,53.091 46.91899999999999,49.242999999999995 52.43799999999999,49.242999999999995 C 57.98299999999999,49.242999999999995 62.63899999999999,53.090999999999994 63.79499999999999,58.28699999999999 L 71.62899999999999,58.28699999999999 L 99.996,58.190999999999995 L 99.996,53.715999999999994 C 87.865,53.715999999999994 78.03399999999999,43.88499999999999 78.03399999999999,31.757999999999996 C 78.03399999999999,19.629999999999995 87.865,9.797999999999995 99.996,9.797999999999995 L 99.996,-3.509 L 7.537,-3.509 L 7.537,93.411 L 69.178,93.411 L 69.179,88.56400000000001 L 69.07,75.594" fill="none"/>
	<path d="M 78.035,31.76 C 78.035,43.886 87.866,53.718 99.997,53.718 L 99.997,9.8 C 87.866,9.8 78.035,19.632 78.035,31.76" fill="#000000"/>
	<path d="M 99.997,58.192 L 71.63,58.288 L 63.79599999999999,58.288 C 62.63999999999999,53.092 57.98299999999999,49.244 52.43899999999999,49.244 C 46.919999999999995,49.244 42.26499999999999,53.092 41.108999999999995,58.288 L 36.748999999999995,58.288 L 41.916,31.748999999999995 C 43.934,18.802999999999997 26.843999999999998,16.136999999999993 24.798,29.083999999999996 L 19.684,57.91 C 19.684,57.91 18.445,65.473 22.538,70.426 C 26.629,75.351 34.621,75.647 34.621,75.647 L 69.07,75.595 L 69.17899999999999,88.566 L 69.17799999999998,93.413 L 99.99599999999998,93.413 L 99.99599999999998,58.192 L 99.997,58.192" fill="#000000"/>
</svg>
