<?xml version="1.0" ?>
<svg xmlns="http://www.w3.org/2000/svg" xmlns:ev="http://www.w3.org/2001/xml-events" xmlns:xlink="http://www.w3.org/1999/xlink" baseProfile="full" enable-background="new 0 0 99.718 100" height="600px" version="1.1" viewBox="0 0 99.718 100" width="599px" x="0px" xml:space="preserve" y="0px">
	<defs/>
	<path d="M 43.688,12.481 C 44.985,8.149999999999999 42.557,3.5760000000000005 38.215,2.253 C 33.897000000000006,0.9160000000000001 29.310000000000002,3.3440000000000003 27.973000000000003,7.688 C 26.650000000000002,12.030999999999999 29.104000000000003,16.605 33.422000000000004,17.929 C 37.765,19.266 42.352,16.824 43.688,12.481"/>
	<path d="M 59.042,37.706 L 55.935,18.507 L 74.938,7.393 C 75.839,6.891 76.544,6.082 76.84100000000001,5.054 C 77.44500000000001,2.9720000000000004 76.263,0.7869999999999999 74.18100000000001,0.15800000000000036 C 73.07600000000001,-0.16299999999999965 71.91900000000001,0.017000000000000376 70.99400000000001,0.5960000000000003 L 43.907,16.502 C 42.955999999999996,17.003 42.13399999999999,17.709999999999997 41.428,18.532999999999998 L 30.003999999999998,33.863 L 14.274999999999999,31.987 C 13.272999999999998,32.333999999999996 12.412999999999998,33.092 11.963,34.12 C 11.088999999999999,36.123999999999995 12.014999999999999,38.437 13.994,39.286 C 14.828,39.67 15.728,39.722 16.563,39.491 L 32.574,41.303 C 33.153,41.071999999999996 33.678999999999995,40.724 34.102999999999994,40.248999999999995 L 40.60399999999999,32.089 L 43.71399999999999,49.706 C 44.291999999999994,52.187000000000005 45.94999999999999,54.371 48.30099999999999,55.553000000000004 L 62.25499999999999,59.71600000000001 L 64.31099999999999,75.75200000000001 C 64.56899999999999,77.56400000000001 65.829,79.16900000000001 67.65299999999999,79.82500000000002 C 70.31299999999999,80.77500000000002 73.22999999999999,79.36200000000002 74.15599999999999,76.70200000000001 C 74.451,75.906 74.50299999999999,75.031 74.38699999999999,74.22300000000001 L 71.86699999999999,54.60100000000001 C 71.57199999999999,53.16300000000001 70.67299999999999,51.89100000000001 69.33599999999998,51.13200000000001 L 60.64799999999998,48.52300000000001 L 75.02799999999998,39.81100000000001 L 92.60699999999997,47.598000000000006 C 92.72099999999998,47.64900000000001 92.82499999999997,47.70100000000001 92.92699999999996,47.75200000000001 C 95.58699999999996,48.67700000000001 98.50299999999996,47.290000000000006 99.42999999999996,44.62900000000001 C 100.30299999999997,42.12300000000001 99.11999999999996,39.41200000000001 96.76999999999997,38.30700000000001 L 76.73699999999997,29.37700000000001 C 76.63399999999997,29.35100000000001 76.57099999999997,29.29900000000001 76.46699999999997,29.274000000000008 C 75.02799999999996,28.773000000000007 73.49799999999998,28.953000000000007 72.27899999999997,29.62100000000001 L 59.042,37.706"/>
	<path d="M 21.047,44.862 L 0.0,44.862 L 0.0,50.606 L 16.203,50.606 L 16.203,66.952 L 33.049,66.952 L 33.049,82.178 L 49.38,82.178 L 49.38,100.0 L 70.86500000000001,100.0 L 70.86500000000001,94.256 L 55.137,94.256 L 55.137,76.434 L 38.793,76.434 L 38.793,61.194 L 21.973,61.194 L 21.973,44.862 L 21.047,44.862"/>
</svg>
