<?xml version="1.0" ?>
<svg xmlns="http://www.w3.org/2000/svg" xmlns:ev="http://www.w3.org/2001/xml-events" xmlns:xlink="http://www.w3.org/1999/xlink" baseProfile="full" enable-background="new 0 0 69.036 100" height="600px" version="1.1" viewBox="0 0 69.036 100" width="415px" x="0px" xml:space="preserve" y="0px">
	<defs/>
	<path d="M 39.833,7.718 L 39.833,10.472 L 27.936,10.472 L 27.936,6.145 L 24.495,6.145 C 24.497,3.448 21.583,0.007 17.413,0.0 C 13.402000000000001,0.007 9.747,3.156 9.745000000000001,7.914 C 9.748000000000001,10.171 11.046000000000001,12.189 12.203000000000001,12.882 C 7.651,14.554 1.565,20.303 0.354,23.796 C -1.3050000000000002,27.143 3.2800000000000002,29.939 5.614,26.595 C 7.992,23.264 10.636,19.166999999999998 18.496,17.207 L 18.496,20.647000000000002 C 15.264,21.275000000000002 6.344999999999999,26.531000000000002 6.3519999999999985,36.725 L 6.3519999999999985,96.06800000000001 C 6.344,97.545 7.03,100.0 9.989,100.0 L 36.097,100.0 C 39.056000000000004,100.0 39.743,97.545 39.734,96.068 L 39.734,36.726 C 39.743,26.533 31.14,21.276 27.886000000000003,20.648 L 27.886000000000003,16.519 L 39.834,16.519 L 39.834,19.075999999999997 L 69.036,23.5 L 69.036,3.441 L 39.833,7.718 M 17.316,10.865 C 15.459,10.870000000000001 13.942999999999998,9.355 13.924,7.473000000000001 C 13.943,5.6160000000000005 15.459,4.1000000000000005 17.316,4.080000000000001 C 19.197,4.101000000000001 20.712999999999997,5.616000000000001 20.708,7.473000000000001 C 20.713,9.354 19.197,10.87 17.316,10.865"/>
</svg>
