<?xml version="1.0" ?>
<svg xmlns="http://www.w3.org/2000/svg" xmlns:ev="http://www.w3.org/2001/xml-events" xmlns:xlink="http://www.w3.org/1999/xlink" baseProfile="full" enable-background="new 0 0 100 100" height="600px" version="1.1" viewBox="0 0 100 100" width="600px" x="0px" xml:space="preserve" y="0px">
	<defs/>
	<path d="M 87.841,68.115 L 66.81099999999999,47.084999999999994 L 89.062,35.958999999999996 C 90.93299999999999,35.022999999999996 92.024,33.020999999999994 91.795,30.940999999999995 C 91.56700000000001,28.860999999999997 90.06700000000001,27.143999999999995 88.038,26.635999999999996 L 14.588,8.275 C 12.881,7.846 11.082,8.347 9.84,9.59 C 8.597999999999999,10.831 8.099,12.634 8.525,14.338000000000001 L 26.887,87.78800000000001 C 27.395,89.81700000000001 29.112000000000002,91.31700000000001 31.192,91.54500000000002 C 31.376,91.56600000000002 31.558,91.57500000000002 31.740000000000002,91.57500000000002 C 33.617000000000004,91.57500000000002 35.357,90.51700000000001 36.21,88.81100000000002 L 47.336,66.56000000000002 L 68.366,87.59000000000002 C 71.054,90.27900000000002 74.579,91.62400000000002 78.104,91.62400000000002 C 81.628,91.62400000000002 85.153,90.27900000000002 87.841,87.59000000000002 C 93.22,82.213 93.22,73.493 87.841,68.115 M 80.769,80.521 C 79.80900000000001,81.481 78.68700000000001,81.625 78.104,81.625 C 77.52,81.625 76.398,81.481 75.437,80.52 L 44.596,49.681 L 33.31,72.25 L 20.247,19.998 L 72.5,33.06 L 49.93,44.346 L 80.771,75.18599999999999 C 81.732,76.14699999999999 81.875,77.26899999999999 81.875,77.853 C 81.875,78.437 81.731,79.559 80.769,80.521"/>
</svg>
