<?xml version="1.0" ?>
<svg xmlns="http://www.w3.org/2000/svg" xmlns:ev="http://www.w3.org/2001/xml-events" xmlns:xlink="http://www.w3.org/1999/xlink" baseProfile="full" enable-background="new 0 0 75.914 100" height="600px" version="1.1" viewBox="0 0 75.914 100" width="456px" x="0px" xml:space="preserve" y="0px">
	<defs/>
	<path d="M 73.208,59.228 C 71.407,55.369 68.794,51.029 66.716,47.547000000000004 C 63.361999999999995,41.926 59.64399999999999,37.438 51.846999999999994,37.438 C 49.21699999999999,37.438 40.26499999999999,37.437000000000005 26.429999999999993,37.437000000000005 C 14.458999999999993,37.437000000000005 10.131999999999994,49.84 6.326999999999991,57.026 C 3.432,62.495 0.284,70.9 0.029,75.569 C -0.491,85.078 6.118,91.302 7.138,92.031 C 12.478,95.843 18.677,99.084 28.816000000000003,99.929 C 36.365,100.557 43.187000000000005,96.899 43.883,92.726 C 44.708000000000006,87.771 41.562000000000005,84.319 35.073,84.612 C 24.927,85.07 18.359,82.095 16.377,81.10499999999999 C 11.369,78.60099999999998 17.355999999999998,78.69399999999999 18.625,78.59599999999999 C 21.773,78.35399999999998 24.921,77.627 26.494,76.29499999999999 C 28.108,74.92899999999999 26.647,75.35 24.554,68.81099999999999 C 22.956999999999997,63.82399999999999 25.258999999999997,61.739999999999995 26.52,61.327999999999996 C 29.628,60.312 31.419,61.68299999999999 33.259,65.047 C 34.496,67.30799999999999 36.119,69.779 36.976,70.758 C 38.245,72.20899999999999 39.161,73.839 41.778999999999996,75.405 C 43.928999999999995,76.69200000000001 46.486999999999995,77.511 48.592999999999996,77.634 C 50.742,77.761 50.626999999999995,77.656 52.589,77.312 C 50.495999999999995,79.27799999999999 43.260999999999996,84.351 48.275999999999996,89.744 C 50.93899999999999,92.609 56.906,91.51 59.70099999999999,90.423 C 62.49599999999999,89.336 67.30799999999999,86.019 71.42999999999999,80.913 C 79.41,71.03 74.584,62.176 73.208,59.228 M 50.573,75.348 C 44.283,75.348 39.182,70.248 39.182,63.956 C 39.182,57.665000000000006 44.283,52.56400000000001 50.573,52.56400000000001 C 56.865,52.56400000000001 61.965,57.665000000000006 61.965,63.956 C 61.964,70.248 56.865,75.348 50.573,75.348"/>
	<path cx="37.957" cy="16.396" d="M 21.561,16.396 A 16.396,16.396 0.0 1,0 54.353,16.396 A 16.396,16.396 0.0 1,0 21.561,16.396" r="16.396"/>
</svg>
