<?xml version="1.0" ?>
<svg xmlns="http://www.w3.org/2000/svg" xmlns:ev="http://www.w3.org/2001/xml-events" xmlns:xlink="http://www.w3.org/1999/xlink" baseProfile="full" enable-background="new 0 0 100 99.999" height="600px" version="1.1" viewBox="0 0 100 99.999" width="600px" x="0px" xml:space="preserve" y="0px">
	<defs/>
	<path d="M 90.238,9.763 C 77.222,-3.2539999999999996 56.111,-3.2539999999999996 43.098,9.763 C 42.888,9.973 42.711,10.202 42.507999999999996,10.417 C 36.41,16.842 33.333999999999996,25.079 33.333999999999996,33.334 C 26.771999999999995,33.334 20.223999999999997,35.279 14.583999999999996,39.126000000000005 C 12.887999999999996,40.284000000000006 11.267999999999997,41.59400000000001 9.762999999999996,43.09700000000001 C -3.2550000000000043,56.11600000000001 -3.2550000000000043,77.21900000000001 9.762999999999996,90.238 C 22.778999999999996,103.252 43.888999999999996,103.257 56.905,90.238 C 57.779,89.363 58.586,88.444 59.343,87.501 C 64.218,81.429 66.665,74.049 66.667,66.667 C 68.761,66.667 70.854,66.467 72.917,66.07300000000001 C 79.263,64.86900000000001 85.32600000000001,61.81700000000001 90.237,56.90500000000001 C 103.254,43.884 103.254,22.778 90.238,9.763 M 24.064,47.917 C 27.568,47.917 30.42,50.766000000000005 30.42,54.278 C 30.42,57.789 27.566000000000003,60.634 24.064,60.634 C 20.542,60.634 17.71,57.788 17.71,54.278 C 17.709,50.765 20.542,47.917 24.064,47.917 M 62.196,65.32 L 52.812,74.70299999999999 C 53.007,75.109 53.125,75.55999999999999 53.125,76.04099999999998 C 53.125,77.48399999999998 52.144,78.68599999999998 50.814,79.04499999999999 L 48.959,79.16599999999998 L 42.709,79.16599999999998 C 42.709,79.16599999999998 42.033,79.16599999999998 41.667,79.16599999999998 C 39.941,79.16599999999998 37.826,76.61899999999999 37.826,76.61899999999999 L 34.375,73.16899999999998 L 34.375,87.5 L 11.459,87.5 L 11.459,70.834 C 11.459,66.666 15.661999999999999,62.5 19.792,62.5 C 19.792,62.5 28.976,62.5 31.25,62.5 C 32.642,62.5 34.147,62.817 35.218,63.924 C 36.984,65.751 42.709,72.916 42.709,72.916 L 50.0,72.916 C 50.483,72.916 50.932,73.035 51.339,73.22999999999999 L 60.721999999999994,63.84599999999999 C 61.12899999999999,63.43899999999999 61.788,63.43899999999999 62.19599999999999,63.84599999999999 C 62.602,64.254 62.602,64.913 62.196,65.32 M 85.417,39.583 C 85.417,40.734 84.486,41.666 83.334,41.666 L 70.834,41.666 L 70.834,45.833 C 70.834,48.135999999999996 74.78,50.0 77.084,50.0 L 81.25,50.0 C 82.403,50.0 83.334,50.932 83.334,52.084 C 83.334,53.234 82.403,54.166000000000004 81.25,54.166000000000004 L 66.667,54.166000000000004 L 52.084,54.166000000000004 C 50.932,54.166000000000004 50.0,53.234 50.0,52.084 C 50.0,50.932 50.932,50.0 52.084,50.0 L 56.25,50.0 C 58.554,50.0 62.5,48.136 62.5,45.833 L 62.5,41.666 L 50.0,41.666 C 48.849,41.666 47.917,40.733999999999995 47.917,39.583 L 47.917,12.5 C 47.917,11.349 48.849000000000004,10.417 50.0,10.417 L 83.334,10.417 C 84.486,10.417 85.417,11.349 85.417,12.5 L 85.417,39.583" fill="#000000"/>
	<path d="M 52.084,14.583 L 81.25,14.583 L 81.25,35.416 L 52.084,35.416 L 52.084,14.583" fill="#000000" height="20.833" width="29.166" x="52.084" y="14.583"/>
</svg>
