<?xml version="1.0" ?>
<svg xmlns="http://www.w3.org/2000/svg" xmlns:ev="http://www.w3.org/2001/xml-events" xmlns:xlink="http://www.w3.org/1999/xlink" baseProfile="full" enable-background="new 0 0 100 100" height="600px" version="1.1" viewBox="0 0 100 100" width="600px" x="0px" xml:space="preserve" y="0px">
	<defs/>
	<path d="M 70.833,81.254 C 70.833,75.50200000000001 75.499,70.833 81.25399999999999,70.833 C 87.00399999999999,70.833 91.66699999999999,75.502 91.66699999999999,81.25399999999999 L 81.25,83.333 L 70.833,81.254" fill="#000000"/>
	<path d="M 81.25,100.0 C 80.811,100.0 80.371,99.861 80.001,99.582 C 78.519,98.473 75.325,97.833 71.244,97.833 C 69.891,97.833 68.957,97.90599999999999 68.921,97.911 C 68.32100000000001,97.953 67.766,97.758 67.33800000000001,97.366 C 66.911,96.97 66.667,96.415 66.667,95.833 L 66.667,81.166 C 66.667,80.054 67.546,79.137 68.658,79.085 C 68.658,79.085 69.08800000000001,79.064 69.805,79.064 C 72.69900000000001,79.064 77.712,79.356 81.12400000000001,81.14399999999999 C 84.56500000000001,79.356 89.69600000000001,79.064 92.66300000000001,79.064 C 93.39600000000002,79.064 93.83900000000001,79.085 93.83900000000001,79.085 C 94.95300000000002,79.134 95.83200000000001,80.05099999999999 95.83200000000001,81.166 L 95.83200000000001,95.833 C 95.83200000000001,96.41499999999999 95.58800000000001,96.97 95.161,97.366 C 94.733,97.758 94.16,97.953 93.581,97.911 C 93.542,97.906 92.607,97.833 91.25500000000001,97.833 C 87.174,97.833 83.98100000000001,98.473 82.498,99.582 C 82.129,99.861 81.689,100.0 81.25,100.0 M 71.244,93.666 C 74.328,93.666 78.372,94.002 81.25,95.478 C 84.261,93.93499999999999 88.62,93.634 91.667,93.669 L 91.667,83.246 C 88.194,83.336 84.188,83.89699999999999 82.373,85.25699999999999 C 81.63300000000001,85.81299999999999 80.61500000000001,85.81299999999999 79.875,85.25699999999999 C 78.07,83.90499999999999 74.194,83.34199999999998 70.833,83.246 L 70.833,93.669 C 70.966,93.666 71.104,93.666 71.244,93.666" fill="#000000"/>
	<path d="M 29.167,25.004 C 29.167,19.253 24.501,14.584000000000001 18.747,14.584000000000001 C 12.997,14.584000000000001 8.334,19.253 8.334,25.004 L 18.750999999999998,27.084000000000003 L 29.167,25.004" fill="#000000"/>
	<path d="M 18.75,43.75 C 18.311,43.75 17.871,43.612 17.501,43.333 C 16.019000000000002,42.222 12.826,41.583 8.744000000000002,41.583 C 7.392000000000001,41.583 6.457000000000002,41.656 6.418000000000001,41.661 C 5.840000000000001,41.703 5.265000000000001,41.508 4.838000000000001,41.116 C 4.411000000000001,40.721 4.167000000000001,40.166 4.167000000000001,39.584 L 4.167000000000001,24.917 C 4.167000000000001,23.802000000000003 5.046000000000001,22.885 6.1610000000000005,22.836000000000002 C 6.1610000000000005,22.836000000000002 6.603000000000001,22.815 7.337000000000001,22.815 C 10.303,22.815 15.434000000000001,23.106 18.876,24.894000000000002 C 22.288,23.106 27.301000000000002,22.815 30.196,22.815 C 30.913,22.815 31.343,22.836000000000002 31.343,22.836000000000002 C 32.455,22.887 33.334,23.804000000000002 33.334,24.917 L 33.334,39.584 C 33.334,40.166000000000004 33.09,40.721000000000004 32.663000000000004,41.116 C 32.236000000000004,41.509 31.682000000000002,41.704 31.080000000000005,41.661 C 31.043000000000006,41.657000000000004 30.109000000000005,41.583 28.757000000000005,41.583 C 24.675000000000004,41.583 21.483000000000004,42.222 20.000000000000007,43.333 C 19.629,43.612 19.189,43.75 18.75,43.75 M 8.744,37.417 C 11.828,37.417 15.872,37.753 18.75,39.228 C 21.628,37.753 25.671,37.417 28.756,37.417 C 28.896,37.417 29.034,37.417 29.167,37.419000000000004 L 29.167,26.996 C 25.806,27.090999999999998 21.93,27.654999999999998 20.126,29.006 C 19.385,29.564 18.368000000000002,29.564 17.627000000000002,29.006 C 15.812000000000003,27.647 11.806000000000003,27.086 8.334000000000003,26.996000000000002 L 8.334000000000003,37.418000000000006 C 8.466,37.417 8.604,37.417 8.744,37.417" fill="#000000"/>
	<path d="M 50.0,77.083 L 18.75,77.083 L 18.75,72.917 C 18.75,72.136 18.314,71.422 17.622,71.063 C 16.923,70.706 16.089,70.763 15.457,71.221 L 0.874,81.638 C 0.326,82.028 0.0,82.66 0.0,83.333 C 0.0,84.006 0.326,84.638 0.874,85.02799999999999 L 15.457,95.445 C 15.816,95.70299999999999 16.239,95.833 16.666,95.833 C 16.992,95.833 17.32,95.756 17.621,95.603 C 18.314,95.246 18.749,94.532 18.749,93.75 L 18.749,89.583 L 50.0,89.583 C 51.151,89.583 52.083,88.651 52.083,87.5 L 52.083,79.167 C 52.083,78.016 51.151,77.083 50.0,77.083" fill="#000000"/>
	<path d="M 99.127,29.555 L 84.543,19.139 C 83.908,18.683 83.07300000000001,18.625999999999998 82.379,18.98 C 81.686,19.338 81.25,20.052 81.25,20.834 L 81.25,25.0 L 50.0,25.0 C 48.849,25.0 47.917,25.932 47.917,27.083 L 47.917,35.416 C 47.917,36.568 48.849000000000004,37.498999999999995 50.0,37.498999999999995 L 81.25,37.498999999999995 L 81.25,41.666 C 81.25,42.446999999999996 81.686,43.162 82.379,43.519999999999996 C 82.68,43.675 83.00800000000001,43.74999999999999 83.333,43.74999999999999 C 83.761,43.74999999999999 84.184,43.61999999999999 84.54299999999999,43.36099999999999 L 99.127,32.94399999999999 C 99.675,32.554 100.0,31.923 100.0,31.25 C 100.0,30.577 99.675,29.946 99.127,29.555" fill="#000000"/>
	<path cx="81.25" cy="62.503" d="M 75.0,62.503 A 6.25,6.25 0.0 1,0 87.5,62.503 A 6.25,6.25 0.0 1,0 75.0,62.503" fill="#000000" r="6.25"/>
	<path cx="18.75" cy="6.252" d="M 12.5,6.252 A 6.25,6.25 0.0 1,0 25.0,6.252 A 6.25,6.25 0.0 1,0 12.5,6.252" fill="#000000" r="6.25"/>
</svg>
