<?xml version="1.0" ?>
<svg xmlns="http://www.w3.org/2000/svg" xmlns:ev="http://www.w3.org/2001/xml-events" xmlns:xlink="http://www.w3.org/1999/xlink" baseProfile="full" enable-background="new 0 0 99.818 100" height="600px" version="1.1" viewBox="0 0 99.818 100" width="599px" x="0px" xml:space="preserve" y="0px">
	<defs/>
	<path d="M 93.152,0.0 L 53.331,0.0 C 49.655,0.0 46.665000000000006,2.99 46.665000000000006,6.667 L 46.665000000000006,31.113 C 46.665000000000006,34.789 49.65500000000001,37.778999999999996 53.331,37.778999999999996 L 54.729000000000006,37.778999999999996 C 53.980000000000004,40.049 52.52700000000001,43.226 49.967000000000006,44.76199999999999 C 49.08800000000001,45.28699999999999 48.68200000000001,46.346999999999994 48.986000000000004,47.32399999999999 C 49.275000000000006,48.25899999999999 50.138000000000005,48.88999999999999 51.109,48.88999999999999 C 51.152,48.88999999999999 51.195,48.88799999999999 51.241,48.885999999999996 C 51.863,48.849 65.895,47.897999999999996 70.414,37.778999999999996 L 93.45,37.778999999999996 C 93.58800000000001,37.778999999999996 93.723,37.766 93.85300000000001,37.742 C 97.20100000000001,37.39 99.81800000000001,34.552 99.81800000000001,31.113 L 99.81800000000001,6.668 C 99.818,2.995 96.829,0.004 93.152,0.0 M 95.375,31.113 C 95.375,32.339 94.379,33.335 93.152,33.335 L 68.89,33.335 C 67.923,33.335 67.068,33.958 66.774,34.878 C 65.3,39.468 60.99,41.878 57.243,43.13 C 59.172000000000004,39.653000000000006 59.755,36.138000000000005 59.793,35.906000000000006 C 59.894999999999996,35.264 59.711,34.60900000000001 59.289,34.114000000000004 C 58.866,33.618 58.25,33.335 57.599000000000004,33.335 L 53.332,33.335 C 52.106,33.335 51.11,32.339 51.11,31.113 L 51.11,6.667 C 51.11,5.4399999999999995 52.106,4.444 53.332,4.444 L 93.15299999999999,4.447 C 94.38,4.447 95.37599999999999,5.443 95.37599999999999,6.6690000000000005 L 95.37599999999999,31.113 L 95.375,31.113" fill="#000000"/>
	<path d="M 82.22,87.779 C 82.22,84.71 79.733,82.222 76.664,82.222 L 76.54,82.222 L 74.349,74.91799999999999 C 73.997,73.743 72.76100000000001,73.079 71.58200000000001,73.42599999999999 C 70.406,73.77999999999999 69.739,75.01899999999999 70.09100000000001,76.19399999999999 L 71.89900000000002,82.222 L 61.664,82.222 L 49.999,66.667 C 48.95,65.268 47.304,64.444 45.554,64.444 L 19.745,64.444 L 11.11,50.63 L 11.11,27.78 C 11.11,24.711000000000002 8.623,22.224 5.555,22.224 C 2.486,22.224 0.0,24.71 0.0,27.78 L 0.0,52.224000000000004 C 0.0,53.265 0.293,54.286 0.844,55.167 L 9.998999999999999,76.806 L 9.998999999999999,87.78 L 9.998999999999999,100.0 L 47.775999999999996,100.0 L 47.775999999999996,82.223 L 54.44199999999999,91.111 C 55.49199999999999,92.51100000000001 57.13699999999999,93.33500000000001 58.88699999999999,93.33500000000001 L 75.23299999999999,93.33500000000001 L 76.758,98.41600000000001 C 77.047,99.379 77.93,100.0 78.887,100.0 C 79.098,100.0 79.313,99.97 79.525,99.906 C 80.70100000000001,99.55300000000001 81.36800000000001,98.31400000000001 81.016,97.13900000000001 L 79.616,92.46900000000001 C 81.175,91.485 82.22,89.76 82.22,87.779" fill="#000000"/>
	<path cx="29.999" cy="47.779" d="M 18.887999999999998,47.779 A 11.111,11.111 0.0 1,0 41.11,47.779 A 11.111,11.111 0.0 1,0 18.887999999999998,47.779" fill="#000000" r="11.111"/>
</svg>
