<?xml version="1.0" ?>
<svg xmlns="http://www.w3.org/2000/svg" xmlns:ev="http://www.w3.org/2001/xml-events" xmlns:xlink="http://www.w3.org/1999/xlink" baseProfile="full" enable-background="new 0 0 100 93.75" height="563px" version="1.1" viewBox="0 0 100 93.75" width="600px" x="0px" xml:space="preserve" y="0px">
	<defs/>
	<path d="M 98.962,0.281 C 98.319,-0.08899999999999997 97.52600000000001,-0.09599999999999997 96.88300000000001,0.274 L 82.3,8.608 C 81.652,8.978 81.25,9.67 81.25,10.417 C 81.25,11.163 81.651,11.855 82.3,12.225 L 85.942,14.306999999999999 L 78.089,25.522999999999996 L 68.978,19.449999999999996 C 68.03099999999999,18.816999999999997 66.86,18.596999999999994 65.753,18.851999999999997 C 64.641,19.101999999999997 63.68,19.795999999999996 63.094,20.772999999999996 L 53.782000000000004,36.294 L 38.749,16.25 C 37.898,15.115 36.526,14.511 35.118,14.594 C 33.704,14.697999999999999 32.438,15.511999999999999 31.759,16.755 L 21.558,35.455 C 24.553,35.543 27.429000000000002,36.153999999999996 30.084,37.228 L 35.973,26.434 L 50.834,46.25 C 51.666000000000004,47.359 52.948,47.983 54.382000000000005,47.91 C 55.766000000000005,47.839 57.026,47.081999999999994 57.739000000000004,45.894 L 67.99,28.806 L 76.85499999999999,34.717 C 78.743,35.976 81.28199999999998,35.494 82.58099999999999,33.638999999999996 L 93.207,18.456999999999994 L 96.883,20.557999999999993 C 97.20299999999999,20.740999999999993 97.562,20.83299999999999 97.917,20.83299999999999 C 98.278,20.83299999999999 98.639,20.73899999999999 98.962,20.551999999999992 C 99.605,20.179 100.0,19.493 100.0,18.75 L 100.0,2.084 C 100.0,1.34 99.605,0.656 98.962,0.281" fill="#000000"/>
	<path d="M 20.833,54.167 C 17.386999999999997,54.167 14.582999999999998,56.971000000000004 14.582999999999998,60.417 C 14.582999999999998,63.863 17.386999999999997,66.667 20.833,66.667 C 24.279999999999998,66.667 27.083,63.863 27.083,60.417 C 27.083,56.971000000000004 24.28,54.167 20.833,54.167" fill="#000000"/>
	<path d="M 45.671,70.028 C 45.671,70.02300000000001 45.668,70.02300000000001 45.667,70.01700000000001 L 41.645,59.95800000000001 C 41.396,48.68500000000002 32.166000000000004,39.58400000000002 20.833000000000002,39.58400000000002 C 9.347,39.585 0.0,48.932 0.0,60.42 C 0.0,66.232 2.398,71.488 6.25,75.272 L 6.25,93.75 L 31.25,93.75 L 31.25,85.417 C 36.993,85.417 39.583,82.82600000000001 39.583,77.084 L 39.583,72.917 L 43.75,72.917 C 44.901,72.917 45.833,71.985 45.833,70.834 C 45.833,70.578 45.671,70.028 45.671,70.028 M 33.333,62.5 L 31.037999999999997,62.5 C 30.769,63.827 30.237999999999996,65.061 29.513999999999996,66.152 L 31.501999999999995,68.14 L 28.556999999999995,71.085 L 26.568999999999996,69.097 C 25.475999999999996,69.82199999999999 24.243999999999996,70.351 22.917999999999996,70.624 L 22.917999999999996,72.916 L 18.75,72.916 L 18.75,70.624 C 17.424,70.351 16.19,69.821 15.099,69.097 L 13.111,71.085 L 10.165000000000001,68.14 L 12.153,66.152 C 11.429,65.06 10.897,63.827 10.629000000000001,62.5 L 8.333,62.5 L 8.333,58.334 L 10.628,58.334 C 10.897,57.008 11.429,55.774 12.152000000000001,54.68300000000001 L 10.302000000000001,52.83200000000001 L 13.248000000000001,49.88700000000001 L 15.098,51.73700000000001 C 16.19,51.01200000000001 17.423000000000002,50.48300000000001 18.749000000000002,50.21000000000001 L 18.749000000000002,47.918000000000006 L 22.916000000000004,47.918000000000006 L 22.916000000000004,50.21000000000001 C 24.242000000000004,50.48300000000001 25.475000000000005,51.013000000000005 26.567000000000004,51.73700000000001 L 28.417000000000005,49.88700000000001 L 31.363000000000007,52.83200000000001 L 29.512000000000008,54.68300000000001 C 30.23700000000001,55.775000000000006 30.768000000000008,57.00800000000001 31.03600000000001,58.334 L 33.33100000000001,58.334 L 33.33100000000001,62.5 L 33.333,62.5" fill="#000000"/>
</svg>
