<?xml version="1.0" ?>
<svg xmlns="http://www.w3.org/2000/svg" xmlns:ev="http://www.w3.org/2001/xml-events" xmlns:xlink="http://www.w3.org/1999/xlink" baseProfile="full" enable-background="new 0 0 100 89.598" height="538px" version="1.1" viewBox="0 0 100 89.598" width="600px" x="0px" xml:space="preserve" y="0px">
	<defs/>
	<path d="M 77.083,39.584 L 77.083,35.417 L 75.0,35.417 C 72.667,35.417 69.876,34.134 66.919,33.17 C 62.022999999999996,31.574 56.528999999999996,29.783 52.083,32.265 C 47.635999999999996,29.797 42.167,31.627 37.286,33.264 C 34.314,34.259 31.508000000000003,35.417 29.167,35.417 L 27.084000000000003,35.417 L 27.084000000000003,39.584 L 25.0,39.584 L 25.0,66.667 L 45.833,62.043 L 45.833,62.733 C 45.833,63.882999999999996 46.765,64.584 47.916,64.584 L 56.388,64.584 C 57.539,64.584 58.471,63.884 58.471,62.733000000000004 L 58.471,62.077000000000005 L 79.166,66.667 L 79.166,39.584 L 77.083,39.584 M 31.25,39.209 C 33.659,38.873000000000005 36.166,38.032000000000004 38.609,37.214000000000006 C 42.99,35.749 47.127,34.398 50.0,35.92700000000001 L 50.0,57.07300000000001 C 45.972,55.940000000000005 41.36,57.355000000000004 37.174,58.65200000000001 C 35.083,59.30100000000001 33.072,59.92600000000001 31.25,60.229000000000006 L 31.25,42.527 L 31.25,39.209 M 54.167,35.924 C 57.063,34.37 61.225,35.696 65.628,37.132 C 68.048,37.921 70.532,38.73 72.917,39.058 L 72.917,42.528 L 72.917,60.075 C 71.09400000000001,59.772000000000006 69.084,59.147000000000006 66.992,58.497 C 62.80500000000001,57.201 58.197,55.803 54.167,56.935 L 54.167,35.924" fill="#000000"/>
	<path d="M 93.562,55.388 C 90.643,48.966 86.43299999999999,44.455999999999996 81.25,42.068999999999996 L 81.25,46.78099999999999 C 84.737,48.901999999999994 87.601,52.33999999999999 89.771,57.11399999999999 C 90.246,58.16099999999999 91.472,58.62999999999999 92.53,58.14699999999999 C 93.576,57.672 94.039,56.437 93.562,55.388" fill="#000000"/>
	<path d="M 49.289,29.132 C 44.71,18.219 37.736,10.058 29.91,7.208 C 23.383,4.825 16.829,6.285 10.966000000000001,11.417 C 10.099,12.175 10.013000000000002,13.492 10.770000000000001,14.355 C 11.529000000000002,15.225 12.845000000000002,15.307 13.709000000000001,14.553 C 18.428,10.423000000000002 23.397000000000002,9.268 28.483,11.121 C 34.776,13.413 40.606,20.114 44.714,29.093000000000004 C 45.449999999999996,29.002000000000002 46.187,28.922000000000004 46.92,28.922000000000004 C 47.742,28.923 48.53,28.999 49.289,29.132" fill="#000000"/>
	<path d="M 21.786,45.311 C 14.73,48.758 10.216000000000001,55.823 8.366000000000001,66.307 C 8.165000000000001,67.43900000000001 8.922,68.52 10.055000000000001,68.718 C 10.177000000000001,68.741 10.299000000000001,68.75 10.420000000000002,68.75 C 11.413000000000002,68.75 12.292000000000002,68.041 12.468000000000002,67.03 C 14.006000000000002,58.314 17.534000000000002,52.43 22.917,49.461 L 22.917,44.824 C 22.538,44.984 22.157,45.129 21.786,45.311" fill="#000000"/>
	<path d="M 58.466,29.011 C 62.75,21.166999999999998 69.626,17.153 79.004,17.153 C 80.155,17.153 81.087,16.22 81.087,15.069999999999999 C 81.087,13.916999999999998 80.155,12.986999999999998 79.004,12.986999999999998 C 67.21600000000001,12.986999999999998 58.455000000000005,18.642 53.62100000000001,29.331 C 54.68400000000001,29.057 55.81000000000001,28.902 57.00700000000001,28.902 C 57.491,28.901 57.979,28.971 58.466,29.011" fill="#000000"/>
	<path d="M 16.667,87.096 C 16.667,83.646 13.871000000000002,80.846 10.417000000000002,80.846 C 6.964000000000002,80.846 4.167000000000002,83.646 4.167000000000002,87.096 L 4.167000000000002,89.598 L 16.667,89.598 L 16.667,87.096" fill="#000000"/>
	<path d="M 100.0,76.666 C 100.0,73.216 97.203,70.416 93.75,70.416 C 90.297,70.416 87.5,73.216 87.5,76.666 L 87.5,79.166 L 100.0,79.166 L 100.0,76.666" fill="#000000"/>
	<path d="M 95.833,16.249 C 95.833,12.799 93.036,9.998999999999999 89.583,9.998999999999999 C 86.13,9.998999999999999 83.333,12.799 83.333,16.249 L 83.333,18.749 L 95.833,18.749 L 95.833,16.249" fill="#000000"/>
	<path d="M 12.5,32.917 C 12.5,29.467000000000002 9.703,26.667 6.25,26.667 C 2.7970000000000006,26.667 0.0,29.467 0.0,32.917 L 0.0,35.417 L 12.5,35.417 L 12.5,32.917" fill="#000000"/>
	<path cx="10.417" cy="75.016" d="M 6.25,75.016 A 4.167,4.167 0.0 1,0 14.584,75.016 A 4.167,4.167 0.0 1,0 6.25,75.016" fill="#000000" r="4.167"/>
	<path cx="93.75" cy="64.584" d="M 89.583,64.584 A 4.167000000000002,4.167000000000002 0.0 1,0 97.917,64.584 A 4.167000000000002,4.167000000000002 0.0 1,0 89.583,64.584" fill="#000000" r="4.167"/>
	<path cx="89.583" cy="4.167" d="M 85.416,4.167 A 4.167000000000002,4.167000000000002 0.0 1,0 93.75,4.167 A 4.167000000000002,4.167000000000002 0.0 1,0 85.416,4.167" fill="#000000" r="4.167"/>
	<path cx="6.25" cy="20.836" d="M 2.083,20.836 A 4.167,4.167 0.0 1,0 10.417,20.836 A 4.167,4.167 0.0 1,0 2.083,20.836" fill="#000000" r="4.167"/>
</svg>
