<?xml version="1.0" ?>
<svg xmlns="http://www.w3.org/2000/svg" xmlns:ev="http://www.w3.org/2001/xml-events" xmlns:xlink="http://www.w3.org/1999/xlink" baseProfile="full" enable-background="new 0 0 100 100" height="600px" version="1.1" viewBox="0 0 100 100" width="600px" x="0px" xml:space="preserve" y="0px">
	<defs/>
	<path d="M 81.25,4.167 L 68.75,4.167 C 67.599,4.167 66.667,3.235 66.667,2.0839999999999996 C 66.667,0.932 67.599,0.0 68.75,0.0 L 81.25,0.0 C 82.401,0.0 83.333,0.932 83.333,2.083 C 83.333,3.235 82.401,4.167 81.25,4.167" fill="#000000"/>
	<path d="M 75.0,10.417 C 73.849,10.417 72.917,9.485 72.917,8.334 L 72.917,2.0839999999999996 C 72.917,0.932 73.849,0.0 75.0,0.0 C 76.151,0.0 77.083,0.932 77.083,2.083 L 77.083,8.333 C 77.083,9.485 76.151,10.417 75.0,10.417" fill="#000000"/>
	<path d="M 75.0,35.417 C 73.849,35.417 72.917,34.485 72.917,33.334 L 72.917,18.75 C 72.917,17.599 73.849,16.667 75.0,16.667 C 76.151,16.667 77.083,17.599 77.083,18.75 L 77.083,33.333 C 77.083,34.485 76.151,35.417 75.0,35.417" fill="#000000"/>
	<path d="M 83.333,43.75 C 82.801,43.75 82.268,43.546 81.86,43.14 L 73.527,34.807 C 72.71300000000001,33.994 72.71300000000001,32.675000000000004 73.527,31.861 C 74.34,31.047 75.659,31.047 76.472,31.861 L 84.806,40.194 C 85.619,41.007000000000005 85.619,42.326 84.806,43.14 C 84.399,43.546 83.866,43.75 83.333,43.75" fill="#000000"/>
	<path d="M 64.583,31.25 L 2.0829999999999984,31.25 C 0.932,31.25 0.0,32.182 0.0,33.333 L 0.0,83.333 C 0.0,84.484 0.932,85.417 2.083,85.417 L 27.083,85.417 L 27.083,91.667 C 27.083,93.97 25.218999999999998,95.833 22.915999999999997,95.833 L 16.665999999999997,95.833 C 15.514999999999997,95.833 14.582999999999997,96.766 14.582999999999997,97.917 C 14.582999999999997,99.068 15.515,100.0 16.667,100.0 L 33.334,100.0 L 50.0,100.0 C 51.151,100.0 52.083,99.068 52.083,97.917 C 52.083,96.766 51.151,95.833 50.0,95.833 L 43.75,95.833 C 41.447,95.833 39.583,93.97 39.583,91.667 L 39.583,85.417 L 64.583,85.417 C 65.734,85.417 66.667,84.484 66.667,83.333 L 66.667,33.333 C 66.667,32.182 65.734,31.25 64.583,31.25 M 62.5,75.0 L 4.167,75.0 L 4.167,35.417 L 62.5,35.417 L 62.5,75.0" fill="#000000"/>
	<path d="M 94.724,18.028 L 95.959,16.793 C 96.525,16.227 96.875,15.446 96.875,14.584 C 96.875,12.858 95.476,11.459 93.75,11.459 C 92.888,11.459 92.106,11.809 91.541,12.375 L 90.30499999999999,13.61 C 86.072,10.315 80.768,8.333 75.0,8.333 C 69.228,8.333 63.919,10.304 59.689,13.604 L 58.459,12.373999999999999 C 57.894000000000005,11.807999999999998 57.112,11.457999999999998 56.25,11.457999999999998 C 54.524,11.457999999999998 53.125,12.857 53.125,14.582999999999998 C 53.125,15.444999999999999 53.475,16.226999999999997 54.041,16.791999999999998 L 55.276999999999994,18.028999999999996 C 53.221999999999994,20.675999999999995 51.687,23.745999999999995 50.82099999999999,27.083 L 55.12599999999999,27.083 C 57.791,18.64 65.69,12.5 75.0,12.5 C 86.486,12.5 95.833,21.847 95.833,33.333 C 95.833,44.818999999999996 86.486,54.167 75.0,54.167 C 73.573,54.167 72.18,54.021 70.833,53.748000000000005 L 70.833,57.956 C 72.192,58.186 73.578,58.333000000000006 75.0,58.333000000000006 C 88.786,58.333000000000006 100.0,47.11900000000001 100.0,33.333000000000006 C 100.0,27.565 98.019,22.262 94.724,18.028" fill="#000000"/>
	<path d="M 43.75,57.812 L 38.625,57.812 L 32.625,51.437 C 32.112,50.893 31.42,50.629999999999995 30.729,50.629999999999995 L 30.729,50.6 L 19.493,50.6 C 16.781,50.6 14.584,52.797000000000004 14.584,55.507000000000005 L 14.584,69.77300000000001 L 32.062,69.77300000000001 L 32.062,58.437 L 35.604,62.202 C 36.096,62.724 36.782,63.021 37.5,63.021 L 43.75,63.021 C 45.188,63.021 46.354,61.855000000000004 46.354,60.417 C 46.354,58.979 45.188,57.812 43.75,57.812" fill="#000000"/>
	<path d="M 43.75,61.458 C 43.483,61.458 43.217,61.356 43.014,61.153 C 42.607000000000006,60.746 42.607000000000006,60.086999999999996 43.014,59.679 L 53.43,49.264 C 53.836999999999996,48.857000000000006 54.496,48.857000000000006 54.903999999999996,49.264 C 55.31099999999999,49.671 55.31099999999999,50.330000000000005 54.903999999999996,50.737 L 44.486,61.153 C 44.283,61.356 44.017,61.458 43.75,61.458" fill="#000000"/>
	<path cx="24.259" cy="44.492" d="M 19.351,44.492 A 4.908000000000001,4.908000000000001 0.0 1,0 29.167,44.492 A 4.908000000000001,4.908000000000001 0.0 1,0 19.351,44.492" fill="#000000" r="4.908"/>
</svg>
