<?xml version="1.0" ?>
<svg xmlns="http://www.w3.org/2000/svg" xmlns:ev="http://www.w3.org/2001/xml-events" xmlns:xlink="http://www.w3.org/1999/xlink" baseProfile="full" enable-background="new 0 0 100 94.754" height="569px" version="1.1" viewBox="0 0 100 94.754" width="600px" x="0px" xml:space="preserve" y="0px">
	<defs/>
	<path d="M 55.176,8.508 C 53.915,3.624 49.456,0.0 44.181,0.0 C 37.886,0.0 32.8,5.063 32.8,11.346 C 32.8,12.405 32.922999999999995,13.371 33.196,14.323 L 37.757,14.323 C 38.095,15.109 38.455,15.562000000000001 38.455,15.562000000000001 C 39.824999999999996,17.536 42.122,18.825000000000003 44.701,18.825000000000003 C 48.914,18.825000000000003 52.339,15.403000000000002 52.339,11.190000000000003 C 52.339,10.224000000000004 52.582,9.346000000000004 52.179,8.509000000000004 L 55.176,8.509000000000004 L 55.176,8.508" fill="#1A1A1A"/>
	<path d="M 54.858,76.341 C 53.662,77.55999999999999 52.019999999999996,78.481 50.154999999999994,78.481 L 50.154999999999994,53.765 L 67.26499999999999,48.851 L 71.54299999999999,57.294 L 54.858,76.341" fill="#1A1A1A"/>
	<path d="M 40.501,19.79 C 39.376999999999995,18.529 37.742,17.743 35.906,17.743 C 33.961,17.743 32.217,18.644 31.099999999999998,20.055999999999997 L 17.529,40.797 C 16.973,41.717999999999996 16.662,42.8 16.662,43.943999999999996 C 16.662,46.083999999999996 17.743,47.949999999999996 19.386,49.059999999999995 L 37.598,59.166 L 37.598,76.36099999999999 C 37.598,78.79799999999999 39.565,80.77499999999999 42.0,80.77499999999999 C 44.419,80.77499999999999 46.394,78.797 46.394,76.36099999999999 L 46.394,54.886 C 46.394,54.886 46.978,51.466 43.086999999999996,49.593 L 31.733999999999995,43.657000000000004 L 40.004999999999995,31.020000000000003 L 44.39999999999999,37.914 C 45.27199999999999,39.305 46.45899999999999,39.846000000000004 47.54099999999999,39.823 L 58.82199999999999,39.78 C 63.41299999999999,39.78 63.41299999999999,33.816 58.82199999999999,33.838 L 49.68,33.838 L 40.501,19.79" fill="#1A1A1A"/>
	<path d="M 90.404,47.98 C 90.584,48.153999999999996 90.699,48.382999999999996 90.699,48.669999999999995 C 90.699,49.21099999999999 90.245,49.663999999999994 89.705,49.663999999999994 C 89.554,49.663999999999994 89.462,49.663999999999994 89.346,49.620999999999995 C 87.393,48.785 86.154,48.266999999999996 83.898,48.266999999999996 C 82.395,48.266999999999996 80.54899999999999,48.785999999999994 78.41,50.520999999999994 L 76.429,46.60399999999999 C 78.9,45.858999999999995 80.932,45.20299999999999 83.042,45.20299999999999 C 86.419,45.206 88.199,45.904 90.404,47.98" fill="#1A1A1A"/>
	<path d="M 14.683,50.991 L 33.796,61.528999999999996 L 33.838,65.759 L 12.01,53.743 C 10.431,52.929 8.305,52.453 6.8,52.453 C 4.545999999999999,52.453 3.299,52.973000000000006 1.3609999999999998,53.807 C 1.2399999999999998,53.851 1.1389999999999998,53.851 1.0019999999999998,53.851 C 0.46,53.851 0.0,53.405 0.0,52.864 C 0.0,52.57 0.115,52.345 0.295,52.166999999999994 C 2.506,50.090999999999994 4.761,49.392999999999994 8.141,49.392999999999994 C 9.869,49.392 11.979,49.593 14.683,50.991" fill="#1A1A1A"/>
	<path d="M 16.454,89.762 C 22.679000000000002,89.762 27.722,84.719 27.722,78.483 C 27.722,72.245 22.68,67.199 16.454,67.199 C 10.231000000000002,67.199 5.187000000000001,72.245 5.187000000000001,78.483 C 5.187,84.719 10.23,89.762 16.454,89.762 M 0.195,78.481 C 0.195,69.49799999999999 7.477,62.20099999999999 16.454,62.20099999999999 C 25.451999999999998,62.20099999999999 32.735,69.49799999999999 32.735,78.481 C 32.735,87.46499999999999 25.451,94.75399999999999 16.454,94.75399999999999 C 7.477,94.756 0.195,87.465 0.195,78.481" fill="#1A1A1A"/>
	<path d="M 83.717,89.762 C 89.957,89.762 95.0,84.719 95.0,78.483 C 95.0,72.245 89.956,67.199 83.717,67.199 C 77.51,67.199 72.465,72.245 72.465,78.483 C 72.465,84.719 77.51,89.762 83.717,89.762 M 67.467,78.481 C 67.467,69.49799999999999 74.736,62.20099999999999 83.717,62.20099999999999 C 92.701,62.20099999999999 99.999,69.49799999999999 99.999,78.481 C 99.999,87.46499999999999 92.701,94.75399999999999 83.717,94.75399999999999 C 74.736,94.754 67.467,87.465 67.467,78.481" fill="#1A1A1A"/>
	<path d="M 80.138,59.887 L 72.23400000000001,44.08 C 71.206,42.184999999999995 69.174,40.882 66.86000000000001,40.882 L 61.704000000000015,40.882 C 60.68700000000001,40.882 59.88000000000002,41.717999999999996 59.88000000000002,42.724999999999994 C 59.88000000000002,43.74099999999999 60.68800000000002,44.54899999999999 61.704000000000015,44.54899999999999 L 66.86000000000001,44.526999999999994 C 67.73300000000002,44.526999999999994 68.70500000000001,45.11899999999999 69.06600000000002,45.968999999999994 L 76.51300000000002,61.147999999999996 L 80.138,59.887" fill="#1A1A1A"/>
</svg>
