<?xml version="1.0" ?>
<svg xmlns="http://www.w3.org/2000/svg" xmlns:ev="http://www.w3.org/2001/xml-events" xmlns:xlink="http://www.w3.org/1999/xlink" baseProfile="full" enable-background="new 0 0 512 512" height="600px" version="1.1" viewBox="0 0 512 512" width="506px" x="0px" xml:space="preserve" y="0px">
	<defs/>
	<path d="M 408.038,253.923 C 408.346,219.11700000000002 437.324,87.144 437.615,85.815 L 439.84000000000003,75.721 L 239.64000000000004,32.679 L 234.67500000000004,55.547 C 208.98200000000003,174.064 208.97800000000004,174.023 201.62100000000004,200.214 L 201.32800000000003,201.152 C 196.19400000000002,219.444 174.15700000000004,236.34099999999998 150.84100000000004,254.403 C 114.62600000000003,282.466 73.47600000000004,313.875 71.00900000000004,365.86199999999997 C 68.23000000000005,424.42199999999997 116.12600000000003,463.97399999999993 148.95900000000006,468.383 L 148.95900000000006,468.383 C 150.22300000000007,471.32 150.63500000000005,469.431 151.38100000000006,469.55899999999997 C 202.96000000000006,478.412 243.53500000000005,444.94199999999995 270.32000000000005,422.327 C 274.47400000000005,418.812 278.42400000000004,415.512 281.92900000000003,412.756 C 301.749,397.138 317.42100000000005,390.44199999999995 332.57000000000005,383.957 C 346.208,378.117 359.095,372.608 373.5400000000001,361.561 C 403.209,338.87 407.656,296.415 408.038,253.923 M 324.496,365.051 C 308.887,371.73199999999997 291.195,379.281 269.24,396.579 C 265.461,399.558 261.411,402.94 257.117,406.568 C 242.48100000000002,418.92199999999997 224.72600000000003,433.878 204.20800000000003,442.907 C 198.27600000000004,370.10499999999996 139.73000000000002,342.64599999999996 101.88400000000003,332.474 C 115.23400000000002,308.381 139.62600000000003,289.464 163.46300000000002,270.99199999999996 C 189.53500000000003,250.78999999999996 214.16700000000003,231.70499999999996 221.13400000000001,206.87599999999998 L 221.419,205.85399999999998 C 227.209,185.23 228.54000000000002,180.47199999999998 240.64100000000002,125.00199999999998 L 401.649,158.57999999999998 C 394.516,195.605 387.647,235.72199999999998 387.486,253.736 C 387.419,261.55199999999996 387.197,269.518 386.658,277.38 C 349.149,280.168 315.063,280.318 310.687,292.067 C 307.26300000000003,301.247 326.868,332.808 341.814,357.21000000000004 C 336.223,360.026 330.553,362.456 324.496,365.051"/>
</svg>
