<?xml version="1.0" ?>
<svg xmlns="http://www.w3.org/2000/svg" xmlns:ev="http://www.w3.org/2001/xml-events" xmlns:xlink="http://www.w3.org/1999/xlink" baseProfile="full" enable-background="new 0 0 200 200" height="600px" version="1.1" viewBox="0 0 200 200" width="444px" x="0px" xml:space="preserve" y="0px">
	<defs/>
	<path d="M 40.289,9.767 C 40.289,12.701 37.911,15.079999999999998 34.976,15.079999999999998 C 32.041,15.079999999999998 29.660999999999998,12.700999999999999 29.660999999999998,9.767 C 29.660999999999998,6.8309999999999995 32.041,4.452999999999999 34.976,4.452999999999999 C 37.911,4.452 40.289,6.831 40.289,9.767 M 45.605,47.202 C 42.669,47.202 40.291,49.580999999999996 40.291,52.516 C 40.291,55.451 42.669999999999995,57.829 45.605,57.829 C 48.538999999999994,57.829 50.918,55.45 50.918,52.516 C 50.918,49.581 48.539,47.202 45.605,47.202 M 72.173,86.78 C 69.238,86.78 66.858,89.159 66.858,92.093 C 66.858,95.029 69.239,97.406 72.173,97.406 C 75.107,97.406 77.486,95.028 77.486,92.093 C 77.487,89.159 75.107,86.78 72.173,86.78 M 90.555,97.407 C 87.62,97.407 85.242,99.786 85.242,102.721 C 85.242,105.656 87.62100000000001,108.034 90.555,108.034 C 93.489,108.034 95.86800000000001,105.655 95.86800000000001,102.721 C 95.868,99.786 93.489,97.407 90.555,97.407 M 58.176,68.271 C 55.241,68.271 52.862,70.651 52.862,73.58500000000001 C 52.862,76.51900000000002 55.241,78.89800000000001 58.176,78.89800000000001 C 61.111000000000004,78.89800000000001 63.488,76.519 63.488,73.58500000000001 C 63.488,70.65100000000001 61.11,68.271 58.176,68.271 M 37.348,27.256 C 34.414,27.256 32.035,29.636 32.035,32.57 C 32.035,35.504000000000005 34.413999999999994,37.883 37.348,37.883 C 40.284,37.883 42.662,35.504000000000005 42.662,32.57 C 42.662,29.635999999999996 40.284,27.256 37.348,27.256 M 160.142,9.767 C 160.142,12.701 162.51999999999998,15.079999999999998 165.454,15.079999999999998 C 168.39000000000001,15.079999999999998 170.768,12.700999999999999 170.768,9.767 C 170.768,6.8309999999999995 168.389,4.452999999999999 165.454,4.452999999999999 C 162.52,4.452 160.142,6.831 160.142,9.767 M 149.512,52.516 C 149.512,55.451 151.892,57.829 154.825,57.829 C 157.761,57.829 160.13899999999998,55.45 160.13899999999998,52.516 C 160.13899999999998,49.580999999999996 157.76,47.202 154.825,47.202 C 151.892,47.202 149.512,49.581 149.512,52.516 M 122.944,92.094 C 122.944,95.03 125.32300000000001,97.407 128.257,97.407 C 131.191,97.407 133.57,95.029 133.57,92.094 C 133.57,89.15899999999999 131.19,86.78099999999999 128.257,86.78099999999999 C 125.323,86.78 122.944,89.159 122.944,92.094 M 104.562,102.722 C 104.562,105.657 106.94,108.035 109.875,108.035 C 112.809,108.035 115.188,105.65599999999999 115.188,102.722 C 115.188,99.786 112.808,97.40799999999999 109.875,97.40799999999999 C 106.94,97.407 104.562,99.786 104.562,102.722 M 136.941,73.585 C 136.941,76.52 139.32,78.898 142.254,78.898 C 145.188,78.898 147.56699999999998,76.51899999999999 147.56699999999998,73.585 C 147.56699999999998,70.651 145.188,68.27099999999999 142.254,68.27099999999999 C 139.32,68.27099999999999 136.941,70.65 136.941,73.585 M 157.768,32.571 C 157.768,35.506 160.147,37.884 163.082,37.884 C 166.017,37.884 168.39499999999998,35.505 168.39499999999998,32.571 C 168.39499999999998,29.636999999999993 166.016,27.256999999999998 163.082,27.256999999999998 C 160.146,27.256 157.768,29.636 157.768,32.571 M 129.225,155.333 C 129.225,155.333 100.216,185.896 100.216,195.548 C 100.216,185.897 71.20599999999999,155.333 71.20599999999999,155.333 C 71.20599999999999,155.333 100.21499999999999,124.771 100.21499999999999,115.119 C 100.215,124.771 129.225,155.333 129.225,155.333 M 104.562,155.333 C 104.562,152.933 102.616,150.986 100.214,150.986 C 97.814,150.986 95.867,152.932 95.867,155.333 C 95.867,157.734 97.813,159.68 100.214,159.68 C 102.616,159.68 104.562,157.733 104.562,155.333" fill="#000000"/>
</svg>
