<?xml version="1.0" ?>
<svg xmlns="http://www.w3.org/2000/svg" xmlns:ev="http://www.w3.org/2001/xml-events" xmlns:xlink="http://www.w3.org/1999/xlink" baseProfile="full" enable-background="new 0 0 200 200" height="600px" version="1.1" viewBox="0 0 200 200" width="113px" x="0px" xml:space="preserve" y="0px">
	<defs/>
	<path d="M 96.588,38.145 L 96.588,190.70000000000002 L 94.99799999999999,190.70000000000002 C 88.45299999999999,190.70000000000002 83.12899999999999,185.376 83.12899999999999,178.83 L 83.12899999999999,38.145 C 83.12899999999999,34.42700000000001 86.14299999999999,31.414 89.85999999999999,31.414 C 93.574,31.413 96.588,34.427 96.588,38.145 M 116.871,38.145 L 116.871,178.83 C 116.871,185.376 111.55,190.70000000000002 105.00399999999999,190.70000000000002 L 103.40899999999999,190.70000000000002 L 103.40899999999999,38.145 C 103.40899999999999,34.42700000000001 106.42299999999999,31.414 110.13999999999999,31.414 C 113.857,31.413 116.871,34.427 116.871,38.145 M 107.271,19.5 L 92.727,19.5 L 100.0,9.301 L 107.271,19.5" fill="#000000"/>
</svg>
