<?xml version="1.0" ?>
<svg xmlns="http://www.w3.org/2000/svg" xmlns:ev="http://www.w3.org/2001/xml-events" xmlns:xlink="http://www.w3.org/1999/xlink" baseProfile="full" enable-background="new 0 0 100 100" height="600px" version="1.1" viewBox="0 0 100 100" width="465px" x="0px" xml:space="preserve" y="0px">
	<defs/>
	<path d="M 55.334,18.237 C 54.706,17.302999999999997 54.036,16.301 53.386,15.204999999999998 C 51.855000000000004,12.621999999999998 50.422000000000004,10.665999999999999 49.091,9.264 C 47.758,7.858999999999999 46.541000000000004,7.018999999999999 45.428000000000004,6.574999999999999 C 44.68300000000001,6.278999999999999 43.978,6.148999999999999 43.246,6.146999999999999 C 42.695,6.146999999999999 42.128,6.223999999999999 41.527,6.379999999999999 L 41.479,6.392999999999999 L 41.429,6.402999999999999 C 39.694,6.739999999999998 37.722,7.805999999999999 35.773,9.244 C 33.82,10.677 31.892000000000003,12.453 30.122000000000003,14.102 C 28.940000000000005,15.203 27.830000000000005,16.246000000000002 26.791000000000004,17.111 C 26.362000000000005,17.468 25.943000000000005,17.819 25.529000000000003,18.166 L 25.516000000000002,18.177 L 25.502000000000002,18.188 C 23.922000000000004,19.459 22.231,20.826999999999998 20.713,22.258 C 19.195,23.686999999999998 17.858,25.183 16.977,26.645 L 16.959,26.674 L 16.942,26.7 C 16.446,27.453 16.080000000000002,28.172 15.84,28.861 C 15.6,29.552 15.484,30.211000000000002 15.483,30.883 C 15.484,31.541999999999998 15.596,32.22 15.854000000000001,32.96 C 16.112000000000002,33.699 16.52,34.501 17.114,35.372 C 18.299,37.114 20.237000000000002,39.119 23.062,41.394 C 24.074,42.21 24.987000000000002,43.033 25.837,43.801 L 26.035,43.980000000000004 L 26.169,44.211000000000006 C 26.799,45.300000000000004 27.429000000000002,46.312000000000005 28.089,47.10600000000001 C 28.750999999999998,47.90500000000001 29.421999999999997,48.46900000000001 30.137999999999998,48.787000000000006 C 30.619,49.00000000000001 31.130999999999997,49.120000000000005 31.769,49.12200000000001 C 32.15,49.12200000000001 32.577,49.07600000000001 33.059999999999995,48.968 C 33.651999999999994,48.836000000000006 34.388,48.548 35.184999999999995,48.129000000000005 C 35.983,47.712 36.843999999999994,47.169000000000004 37.717999999999996,46.553000000000004 C 39.467999999999996,45.322 41.269,43.803000000000004 42.849999999999994,42.418000000000006 C 43.904999999999994,41.49400000000001 44.86299999999999,40.63000000000001 45.66799999999999,39.93500000000001 L 45.67799999999999,39.92700000000001 L 45.68699999999999,39.919000000000004 C 47.38199999999999,38.498000000000005 48.99099999999999,37.108000000000004 50.52399999999999,35.68300000000001 L 50.55299999999999,35.656000000000006 L 50.58299999999999,35.63100000000001 C 51.83299999999999,34.57200000000001 53.24999999999999,33.358000000000004 54.58699999999999,32.09300000000001 C 55.92299999999999,30.830000000000013 57.17799999999999,29.51200000000001 58.08899999999999,28.29300000000001 C 58.69699999999999,27.48300000000001 59.145999999999994,26.716000000000008 59.38099999999999,26.09200000000001 C 59.65899999999999,25.361000000000008 59.76299999999999,24.75200000000001 59.76299999999999,24.21800000000001 C 59.76199999999999,23.702000000000012 59.666999999999994,23.24700000000001 59.48899999999999,22.79100000000001 C 59.30999999999999,22.33700000000001 59.03999999999999,21.882000000000012 58.67999999999999,21.42100000000001 C 57.96499999999999,20.49600000000001 56.885999999999996,19.56500000000001 55.68999999999999,18.62200000000001 L 55.48099999999999,18.45700000000001 L 55.334,18.237"/>
	<path d="M 83.848,60.099 C 83.284,55.026999999999994 80.114,52.56099999999999 74.056,49.25 C 70.044,47.057 64.342,36.828 60.946999999999996,30.165 C 60.904999999999994,30.223 60.867,30.281 60.824,30.339 C 60.092,31.317 59.238,32.275 58.329,33.205 C 56.518,35.056999999999995 54.485,36.801 52.805,38.224999999999994 C 51.23,39.687999999999995 49.598,41.09799999999999 47.900999999999996,42.520999999999994 L 47.900999999999996,42.520999999999994 C 46.75899999999999,43.50699999999999 45.169999999999995,44.962999999999994 43.406,46.446999999999996 C 41.637,47.93299999999999 39.693,49.45399999999999 37.747,50.61 C 37.349,50.845 36.951,51.059 36.552,51.262 C 38.996,54.209 42.894999999999996,58.755 46.441,62.213 C 52.147000000000006,67.778 48.907000000000004,75.035 47.85,82.291 C 46.793,89.547 50.95,93.352 57.979,94.338 C 65.008,95.324 69.196,91.44999999999999 71.098,87.645 C 72.999,83.84 77.79,74.4 77.79,74.4 C 80.96,68.553 84.412,65.171 83.848,60.099"/>
</svg>
