<?xml version="1.0" ?>
<svg xmlns="http://www.w3.org/2000/svg" xmlns:ev="http://www.w3.org/2001/xml-events" xmlns:xlink="http://www.w3.org/1999/xlink" baseProfile="full" enable-background="new 0 0 90 90" height="600px" version="1.1" viewBox="0 0 90 90" width="599px" x="0px" xml:space="preserve" y="0px">
	<defs/>
	<path d="M 77.101,47.19 L 77.143,57.013 L 62.54,57.013 L 62.54,37.366 L 57.482,37.366 L 57.44,66.395 L 42.894,66.395 L 42.894,27.985 L 37.801,27.985 L 37.842,57.013 L 23.247,57.013 L 23.247,37.393 L 18.182,37.45 L 18.139999999999997,47.190000000000005 L 6.059,47.190000000000005 C 7.291,67.78 24.378,84.099 45.278,84.099 C 66.178,84.099 83.264,67.78 84.497,47.19 L 77.101,47.19" fill="#000000"/>
	<path d="M 13.392,42.421 L 13.433,32.735 L 28.014,32.571 L 28.014,52.244 L 33.066,52.244 L 33.025000000000006,23.216 L 47.661,23.216 L 47.661,61.626 L 52.678000000000004,61.626 L 52.720000000000006,32.596999999999994 L 67.308,32.596999999999994 L 67.308,52.242999999999995 L 72.35300000000001,52.242999999999995 L 72.311,42.419999999999995 L 84.49600000000001,42.419999999999995 C 83.264,21.831 66.178,5.512 45.278,5.512 C 24.378,5.512 7.291,21.831 6.059,42.421 L 13.392,42.421" fill="#000000"/>
</svg>
