<?xml version="1.0" ?>
<svg xmlns="http://www.w3.org/2000/svg" xmlns:ev="http://www.w3.org/2001/xml-events" xmlns:xlink="http://www.w3.org/1999/xlink" baseProfile="full" enable-background="new 0 0 100 100" height="600px" version="1.1" viewBox="0 0 100 100" width="550px" x="0px" xml:space="preserve" y="0px">
	<defs/>
	<path d="M 64.018,24.843 C 61.323,21.698 61.069,20.094 61.069,14.0 C 61.069,12.509 59.86,11.3 58.369,11.3 C 56.878,11.3 55.669,12.509 55.669,14.0 C 55.669,20.679000000000002 56.053999999999995,23.848 59.919999999999995,28.357 C 71.875,42.305 56.654999999999994,60.941 51.16,66.84899999999999 C 45.622,60.94799999999999 30.240999999999996,42.30399999999999 42.19499999999999,28.35799999999999 C 46.06099999999999,23.847999999999992 46.44599999999999,20.678999999999988 46.44599999999999,14.00099999999999 C 46.44599999999999,12.509999999999991 45.23699999999999,11.300999999999991 43.74599999999999,11.300999999999991 C 42.25499999999999,11.300999999999991 41.045999999999985,12.509999999999991 41.045999999999985,14.00099999999999 C 41.045999999999985,20.09499999999999 40.79199999999999,21.69899999999999 38.09699999999999,24.84399999999999 C 23.944999999999986,41.35399999999999 39.258999999999986,63.355999999999995 49.33499999999999,72.681 C 49.85299999999999,73.161 50.51099999999999,73.401 51.16899999999999,73.401 C 51.83099999999999,73.401 52.49299999999999,73.158 53.011999999999986,72.67399999999999 C 63.004,63.347 78.165,41.347 64.018,24.843"/>
	<path d="M 60.168,5.0 L 42.168,5.0 C 40.677,5.0 39.469,6.209 39.469,7.7 L 39.469,18.5 C 39.469,19.991 40.677,21.2 42.168,21.2 L 60.168,21.2 C 61.66,21.2 62.868,19.991 62.868,18.5 L 62.868,7.7 C 62.868,6.209 61.66,5.0 60.168,5.0"/>
	<path d="M 36.558,70.532 C 35.72,69.298 34.039,68.978 32.807,69.817 L 21.557000000000002,77.467 C 20.325000000000003,78.30499999999999 20.004,79.984 20.843000000000004,81.217 C 21.364000000000004,81.987 22.214000000000002,82.4 23.077000000000005,82.4 C 23.599000000000004,82.4 24.129000000000005,82.24900000000001 24.593000000000004,81.932 L 35.843,74.282 C 37.076,73.444 37.396,71.766 36.558,70.532"/>
	<path d="M 28.451,49.193 C 28.254,47.714999999999996 26.901,46.675999999999995 25.418,46.873 L 11.918,48.672999999999995 C 10.439,48.87 9.401,50.227999999999994 9.599,51.705999999999996 C 9.78,53.062 10.94,54.04899999999999 12.272,54.04899999999999 C 12.39,54.04899999999999 12.511000000000001,54.04099999999999 12.632,54.02599999999999 L 26.131999999999998,52.22599999999999 C 27.61,52.029 28.648,50.671 28.451,49.193"/>
	<path d="M 79.943,77.468 L 68.693,69.818 C 67.46,68.98 65.78099999999999,69.3 64.942,70.533 C 64.104,71.766 64.42299999999999,73.44500000000001 65.657,74.283 L 76.907,81.933 C 77.372,82.24900000000001 77.899,82.40100000000001 78.422,82.40100000000001 C 79.286,82.40100000000001 80.136,81.98700000000001 80.657,81.218 C 81.496,79.984 81.176,78.306 79.943,77.468"/>
	<path d="M 89.582,48.674 L 76.082,46.874 C 74.6,46.678000000000004 73.246,47.716 73.04899999999999,49.194 C 72.85199999999999,50.672000000000004 73.88999999999999,52.03 75.368,52.227000000000004 L 88.868,54.027 C 88.98899999999999,54.043 89.109,54.050000000000004 89.228,54.050000000000004 C 90.55999999999999,54.050000000000004 91.72,53.06400000000001 91.901,51.70700000000001 C 92.098,50.229 91.061,48.871 89.582,48.674"/>
	<path d="M 59.957,33.168 C 59.607,32.237 58.571,31.766 57.64,32.115 C 56.709,32.464 56.238,33.501000000000005 56.586,34.432 C 56.61,34.497 58.977,41.039 54.833,50.155 C 54.422,51.059000000000005 54.821999999999996,52.127 55.728,52.538000000000004 C 55.968,52.648 56.221000000000004,52.701 56.471000000000004,52.701 C 57.155,52.701 57.809000000000005,52.307 58.111000000000004,51.644 C 62.864,41.187 60.078,33.491 59.957,33.168"/>
	<path d="M 51.875,77.9 C 50.384,77.9 49.175,79.108 49.175,80.599 L 49.175,92.299 C 49.175,93.79 50.384,94.99900000000001 51.875,94.99900000000001 C 53.366,94.99900000000001 54.575,93.79 54.575,92.299 L 54.575,80.6 C 54.575,79.108 53.366,77.9 51.875,77.9"/>
</svg>
