<?xml version="1.0" ?>
<svg xmlns="http://www.w3.org/2000/svg" xmlns:ev="http://www.w3.org/2001/xml-events" xmlns:xlink="http://www.w3.org/1999/xlink" baseProfile="full" enable-background="new 0 0 100 100" height="584px" version="1.1" viewBox="0 0 100 100" width="600px" x="0px" xml:space="preserve" y="0px">
	<defs/>
	<path d="M 63.669,93.289 C 63.385,93.289 63.230999999999995,93.283 63.230999999999995,93.283 C 61.89999999999999,93.223 60.79899999999999,92.205 60.650999999999996,90.881 L 59.937999999999995,84.505 C 59.858,83.78699999999999 60.068,83.067 60.522,82.505 C 60.976,81.943 61.637,81.586 62.356,81.514 C 63.633,81.387 64.76,81.17699999999999 65.751,80.916 C 61.151,79.904 58.748000000000005,77.767 57.516000000000005,76.044 C 54.209,76.74799999999999 51.10000000000001,77.10499999999999 48.251000000000005,77.10499999999999 C 44.319,77.10499999999999 41.56700000000001,76.42499999999998 39.846000000000004,75.785 C 37.42100000000001,78.244 32.222,82.64099999999999 26.054000000000002,82.64099999999999 C 25.6,82.64099999999999 25.146,82.61699999999999 24.696,82.56899999999999 L 15.737000000000002,90.41599999999998 C 14.856000000000002,91.18699999999998 13.579000000000002,91.30399999999999 12.573000000000002,90.70699999999998 L 6.396000000000003,87.03399999999998 C 5.688000000000002,86.61299999999997 5.210000000000003,85.89099999999998 5.099000000000003,85.07399999999998 C 4.988000000000003,84.25799999999998 5.256000000000003,83.43399999999998 5.826000000000003,82.83999999999999 C 9.345000000000002,79.16699999999999 13.483000000000004,74.18299999999999 14.032000000000004,72.53399999999999 C 14.247000000000003,71.889 14.697000000000003,71.35 15.292000000000003,71.02199999999999 C 17.264000000000003,69.934 22.502000000000002,66.886 25.364000000000004,64.62599999999999 C 25.565000000000005,57.96099999999999 31.050000000000004,52.60099999999999 37.763000000000005,52.60099999999999 L 55.402,52.60099999999999 C 60.39,52.60099999999999 64.675,49.79899999999999 66.066,45.629999999999995 C 66.68900000000001,43.76199999999999 67.777,39.861 68.653,36.354 C 69.07100000000001,34.684 70.179,30.25 74.55600000000001,30.25 C 77.406,30.25 80.766,32.283 86.86700000000002,35.975 L 87.66900000000003,36.46 C 91.06100000000002,38.51 92.65200000000003,40.755 92.39700000000002,43.13 C 92.15700000000002,45.359 90.39000000000001,47.054 87.14500000000002,48.162000000000006 C 84.26000000000002,49.147000000000006 81.03700000000002,50.62200000000001 81.03700000000002,53.541000000000004 C 81.03700000000002,60.507000000000005 79.99500000000002,65.03800000000001 78.59100000000002,67.982 L 83.35800000000002,67.981 C 84.80500000000002,67.981 85.99600000000002,69.122 86.05900000000001,70.568 C 86.35100000000001,77.285 84.57800000000002,82.699 80.78800000000001,86.657 C 74.893,92.812 66.195,93.289 63.669,93.289 M 65.603,86.497 L 65.74499999999999,87.765 C 68.606,87.47 73.50699999999999,86.44 76.88,82.916 C 79.139,80.557 80.399,77.359 80.63799999999999,73.389 L 71.79899999999999,73.389 C 71.75899999999999,73.39 71.71799999999999,73.39099999999999 71.698,73.39099999999999 C 71.52399999999999,73.39099999999999 71.431,73.38099999999999 71.431,73.38099999999999 C 70.0,73.233 68.9,71.985 68.974,70.549 C 69.048,69.111 70.2,67.98100000000001 71.63900000000001,67.98100000000001 L 71.67200000000001,67.98100000000001 C 72.69700000000002,67.82300000000001 75.62700000000001,64.858 75.62700000000001,53.54100000000001 C 75.62700000000001,46.38000000000001 82.921,43.88900000000001 85.31800000000001,43.07000000000001 C 85.99700000000001,42.839000000000006 86.43900000000001,42.63000000000001 86.71700000000001,42.470000000000006 C 86.418,42.160000000000004 85.86500000000001,41.690000000000005 84.86900000000001,41.087 L 84.06600000000002,40.602000000000004 C 79.76700000000001,37.999 76.04300000000002,35.747 74.63600000000002,35.661 C 74.50800000000002,35.847 74.22300000000003,36.370000000000005 73.89900000000003,37.666000000000004 C 72.97800000000002,41.349000000000004 71.86600000000003,45.327000000000005 71.19500000000004,47.34100000000001 C 69.06800000000004,53.72200000000001 62.720000000000034,58.00900000000001 55.40100000000004,58.00900000000001 L 37.763,58.00900000000001 C 33.905,58.00900000000001 30.766,61.14800000000001 30.766,65.006 L 30.766,65.888 C 30.766,66.65 30.444999999999997,67.375 29.881999999999998,67.888 C 26.994,70.516 20.906999999999996,74.06 18.706999999999997,75.307 C 17.381999999999998,77.92 14.273999999999997,81.60300000000001 12.033999999999997,84.095 L 13.649999999999997,85.05499999999999 L 22.087999999999997,77.66499999999999 C 22.734999999999996,77.098 23.613999999999997,76.874 24.455999999999996,77.05999999999999 C 24.974999999999994,77.17499999999998 25.512999999999995,77.234 26.053999999999995,77.234 C 31.820999999999994,77.234 37.032,70.86 37.083999999999996,70.79599999999999 C 37.98,69.68599999999999 39.587999999999994,69.45899999999999 40.754,70.282 L 40.754,70.282 C 40.757999999999996,70.282 43.056,71.698 48.251999999999995,71.698 C 51.24699999999999,71.698 54.61899999999999,71.235 58.273999999999994,70.321 C 59.023999999999994,70.133 59.797999999999995,70.166 60.43699999999999,70.602 C 61.05899999999999,71.02600000000001 61.456999999999994,71.58500000000001 61.56699999999999,72.325 C 61.739999999999995,72.75800000000001 63.34899999999999,76.095 71.63999999999999,76.095 L 74.34399999999998,76.095 C 75.33199999999998,76.095 76.24099999999999,76.635 76.71599999999998,77.501 C 77.18999999999998,78.367 77.15399999999998,79.42500000000001 76.62099999999998,80.257 C 76.288,80.774 73.391,84.961 65.603,86.497"/>
	<path d="M 82.366,34.342 L 73.405,29.445 C 73.342,29.411 73.277,29.381 73.211,29.354 C 70.908,28.430999999999997 69.03,26.892 67.803,24.961 C 67.765,24.813 67.723,24.665 67.709,24.512999999999998 C 67.628,23.605999999999998 67.96900000000001,22.639 68.693,21.717 C 70.117,19.901999999999997 72.753,19.584999999999997 74.568,21.009999999999998 C 75.351,21.624 76.485,21.488 77.099,20.705 C 77.714,19.921999999999997 77.577,18.788999999999998 76.794,18.174 C 73.6,15.666 69.04299999999999,16.061 66.314,18.964 C 66.398,18.003 66.62299999999999,17.040999999999997 66.999,16.104 C 68.05799999999999,13.457999999999998 70.08399999999999,11.381 72.704,10.259 C 75.324,9.139 78.22399999999999,9.103 80.871,10.161 C 81.795,10.530999999999999 82.845,10.081999999999999 83.21499999999999,9.158 C 83.585,8.232999999999999 83.13499999999999,7.183999999999999 82.21099999999998,6.814 C 78.67099999999998,5.397 74.78999999999998,5.445 71.28499999999998,6.945 C 67.77999999999999,8.446 65.06899999999999,11.222999999999999 63.652999999999984,14.763 C 62.240999999999985,18.289 62.34699999999999,22.083 63.947999999999986,25.444 C 64.10399999999998,25.769 64.27999999999999,26.084 64.46099999999998,26.395 C 64.90099999999998,27.665 65.72999999999999,28.803 66.92199999999998,29.74 C 67.09699999999998,29.878 67.28999999999998,29.971 67.48999999999998,30.035 C 68.73599999999998,31.111 70.17099999999998,32.006 71.76799999999999,32.658 L 80.63799999999999,37.506 C 80.91199999999999,37.656 81.20799999999998,37.727 81.50099999999999,37.727 C 82.139,37.727 82.75699999999999,37.388 83.08399999999999,36.788999999999994 C 83.561,35.915 83.24,34.819 82.366,34.342"/>
	<path cx="91.468" cy="37.336" d="M 87.863,37.336 A 3.605,3.605 0.0 1,0 95.073,37.336 A 3.605,3.605 0.0 1,0 87.863,37.336" r="3.605"/>
</svg>
