<?xml version="1.0" ?>
<svg xmlns="http://www.w3.org/2000/svg" xmlns:ev="http://www.w3.org/2001/xml-events" xmlns:xlink="http://www.w3.org/1999/xlink" baseProfile="full" enable-background="new 0 0 100 100" height="342px" version="1.1" viewBox="0 0 100 100" width="600px" x="0px" xml:space="preserve" y="0px">
	<defs/>
	<path d="M 8.275,64.488 C 7.337000000000001,64.146 6.2940000000000005,64.633 5.952,65.573 C 5.47,66.89899999999999 5.154,68.223 5.011,69.511 C 4.9,70.505 5.617,71.404 6.613,71.514 C 6.681,71.523 6.748,71.526 6.815,71.526 C 7.727,71.526 8.511000000000001,70.839 8.615,69.914 C 8.726,68.911 8.977,67.869 9.36,66.812 C 9.703,65.87 9.218,64.831 8.275,64.488"/>
	<path d="M 32.906,53.776 C 30.512,52.003 27.836,51.071000000000005 24.942,51.022000000000006 C 23.953,51.001000000000005 23.115000000000002,51.803000000000004 23.098,52.803000000000004 C 23.081,53.80500000000001 23.878999999999998,54.63 24.881,54.648 C 27.073,54.684000000000005 29.107,55.414 30.929000000000002,56.817 C 31.089000000000002,56.94 31.265,57.03 31.446,57.093 L 32.102000000000004,55.599000000000004 L 32.906,53.776"/>
	<path d="M 16.686,53.201 C 14.339,54.478 12.11,56.288000000000004 10.239,58.435 C 9.581000000000001,59.189 9.659,60.334 10.415000000000001,60.993 C 10.758000000000001,61.292 11.183000000000002,61.439 11.604000000000001,61.439 C 12.110000000000001,61.439 12.614,61.228 12.972000000000001,60.816 C 14.562000000000001,58.991 16.445,57.461000000000006 18.419,56.387 C 19.298000000000002,55.909 19.624000000000002,54.807 19.145,53.928 C 18.667,53.049 17.567,52.724 16.686,53.201"/>
	<path d="M 44.342,63.438 C 43.309,63.063 42.277,62.518 41.253,61.821000000000005 L 41.108,62.151 L 40.190999999999995,64.236 L 39.773999999999994,65.185 C 40.86899999999999,65.878 41.98199999999999,66.43900000000001 43.10699999999999,66.84700000000001 C 43.31099999999999,66.921 43.51999999999999,66.956 43.72599999999999,66.956 C 44.46799999999999,66.956 45.16299999999999,66.497 45.43099999999999,65.76100000000001 C 45.77,64.819 45.285,63.78 44.342,63.438"/>
	<path d="M 66.316,46.697 C 65.373,46.365 64.337,46.862 64.005,47.807 C 63.154999999999994,50.224000000000004 62.126,52.469 60.94499999999999,54.479 C 60.437999999999995,55.342 60.724999999999994,56.452999999999996 61.589999999999996,56.96 C 61.87799999999999,57.13 62.193999999999996,57.21 62.50599999999999,57.21 C 63.12799999999999,57.21 63.73499999999999,56.89 64.07199999999999,56.314 C 65.36999999999999,54.102 66.499,51.645 67.42599999999999,49.008 C 67.759,48.064 67.262,47.029 66.316,46.697"/>
	<path d="M 84.706,26.753 C 81.825,26.003 78.82900000000001,26.289 75.986,27.583 C 75.075,27.997999999999998 74.673,29.073999999999998 75.087,29.983999999999998 C 75.39200000000001,30.651999999999997 76.049,31.046999999999997 76.738,31.046999999999997 C 76.989,31.046999999999997 77.244,30.993999999999996 77.487,30.882999999999996 C 79.571,29.933999999999994 81.713,29.718999999999994 83.78899999999999,30.261999999999997 C 84.75699999999999,30.511999999999997 85.74799999999999,29.932999999999996 86.00199999999998,28.964 C 86.256,27.996 85.675,27.006 84.706,26.753"/>
	<path d="M 56.553,60.15 C 54.708999999999996,61.902 52.765,63.088 50.772,63.672 C 49.811,63.952999999999996 49.26,64.961 49.542,65.922 C 49.774,66.713 50.497,67.225 51.281,67.225 C 51.451,67.225 51.622,67.202 51.793,67.152 C 54.345,66.406 56.788,64.931 59.054,62.778 C 59.78,62.086 59.808,60.939 59.118,60.211999999999996 C 58.425,59.487 57.278,59.458 56.553,60.15"/>
	<path d="M 71.92,32.603 C 71.134,31.984 69.994,32.120000000000005 69.374,32.905 C 67.576,35.188 66.37599999999999,37.71 65.994,40.004000000000005 L 65.884,40.645 C 65.707,41.63 66.362,42.573 67.348,42.75 C 67.455,42.769 67.564,42.778 67.669,42.778 C 68.53,42.778 69.295,42.162 69.452,41.284 L 69.57,40.602 C 69.85,38.919999999999995 70.81599999999999,36.931999999999995 72.22099999999999,35.147 C 72.844,34.362 72.707,33.223 71.92,32.603"/>
	<path d="M 94.63,34.128 C 93.807,33.045 92.948,32.061 92.079,31.201999999999998 C 91.366,30.497999999999998 90.219,30.505 89.51599999999999,31.217999999999996 C 88.812,31.930999999999997 88.81899999999999,33.077999999999996 89.532,33.782 C 90.28099999999999,34.520999999999994 91.024,35.376 91.744,36.321999999999996 C 92.1,36.791999999999994 92.642,37.038 93.188,37.038 C 93.571,37.038 93.95700000000001,36.916999999999994 94.284,36.668 C 95.081,36.063 95.237,34.925 94.63,34.128"/>
	<path d="M 44.074,28.573 C 36.721999999999994,28.573 30.743,34.553 30.743,41.905 C 30.743,45.341 32.059999999999995,48.468 34.202,50.834 C 34.635999999999996,51.312000000000005 35.092,51.77 35.589999999999996,52.181000000000004 L 33.763,56.330000000000005 L 31.974999999999998,60.398 L 26.674999999999997,72.44 C 25.868999999999996,74.274 26.701999999999998,76.414 28.534,77.221 C 29.008,77.43 29.503999999999998,77.53 29.993,77.53 C 31.386,77.53 32.716,76.72 33.312999999999995,75.363 L 38.25899999999999,64.126 L 38.53099999999999,63.508 L 39.44899999999999,61.423 L 39.76899999999999,60.694 L 42.23299999999999,55.097 C 42.83699999999999,55.181000000000004 43.44799999999999,55.239000000000004 44.07399999999999,55.239000000000004 C 44.099999999999994,55.239000000000004 44.12599999999999,55.236000000000004 44.151999999999994,55.236000000000004 C 51.467999999999996,55.194 57.404999999999994,49.233000000000004 57.404999999999994,41.906000000000006 C 57.405,34.554 51.426,28.573 44.074,28.573 M 45.819,51.445 C 45.252,51.549 44.67,51.611 44.073,51.611 C 43.972,51.611 43.873,51.598 43.77,51.593999999999994 C 42.811,51.565999999999995 41.885000000000005,51.398999999999994 41.014,51.108999999999995 C 40.725,51.01199999999999 40.444,50.903999999999996 40.168000000000006,50.782 C 39.89000000000001,50.659 39.61900000000001,50.525999999999996 39.355000000000004,50.37799999999999 C 38.533,49.91899999999999 37.787000000000006,49.343999999999994 37.133,48.672999999999995 C 36.655,48.181999999999995 36.232,47.638 35.863,47.056 C 34.924,45.561 34.369,43.797999999999995 34.369,41.903999999999996 C 34.369,36.55199999999999 38.723,32.19799999999999 44.074,32.19799999999999 C 49.425,32.19799999999999 53.778999999999996,36.55199999999999 53.778999999999996,41.903999999999996 C 53.778,46.661 50.338,50.62 45.819,51.445"/>
</svg>
