<?xml version="1.0" ?>
<svg xmlns="http://www.w3.org/2000/svg" xmlns:ev="http://www.w3.org/2001/xml-events" xmlns:xlink="http://www.w3.org/1999/xlink" baseProfile="full" enable-background="new 0 0 100 100" height="566px" version="1.1" viewBox="0 0 100 100" width="600px" x="0px" xml:space="preserve" y="0px">
	<defs/>
	<path d="M 14.0,95.145 C 13.792,95.145 13.581,95.10799999999999 13.375,95.033 C 12.442,94.688 11.967,93.651 12.311,92.721 L 21.311,68.421 C 21.657,67.488 22.697,67.018 23.623,67.357 C 24.556,67.704 25.031000000000002,68.739 24.687,69.67 L 15.687000000000001,93.97 C 15.42,94.694 14.731,95.145 14.0,95.145"/>
	<path d="M 28.4,95.145 C 28.192,95.145 27.980999999999998,95.10799999999999 27.775,95.033 C 26.842,94.688 26.366999999999997,93.651 26.711,92.721 L 35.711,68.421 C 36.056,67.488 37.096,67.018 38.022999999999996,67.357 C 38.955999999999996,67.704 39.431,68.739 39.086999999999996,69.67 L 30.086999999999996,93.97 C 29.819,94.694 29.131,95.145 28.4,95.145"/>
	<path d="M 42.8,95.145 C 42.592,95.145 42.381,95.10799999999999 42.175999999999995,95.033 C 41.242999999999995,94.688 40.767999999999994,93.651 41.111999999999995,92.721 L 50.111999999999995,68.421 C 50.45799999999999,67.488 51.498,67.018 52.42399999999999,67.357 C 53.35799999999999,67.704 53.831999999999994,68.739 53.48799999999999,69.67 L 44.48799999999999,93.97 C 44.219,94.694 43.531,95.145 42.8,95.145"/>
	<path d="M 57.2,95.145 C 56.992000000000004,95.145 56.78,95.10799999999999 56.576,95.033 C 55.642,94.688 55.168,93.651 55.512,92.721 L 64.512,68.421 C 64.857,67.488 65.898,67.018 66.824,67.357 C 67.757,67.704 68.231,68.739 67.887,69.67 L 58.888,93.97 C 58.619,94.694 57.931,95.145 57.2,95.145"/>
	<path d="M 71.6,95.145 C 71.393,95.145 71.181,95.10799999999999 70.976,95.033 C 70.042,94.688 69.568,93.651 69.912,92.721 L 78.912,68.421 C 79.25800000000001,67.488 80.298,67.018 81.224,67.357 C 82.158,67.704 82.632,68.739 82.28800000000001,69.67 L 73.28800000000001,93.97 C 73.02,94.694 72.331,95.145 71.6,95.145"/>
	<path d="M 81.911,33.12 C 81.378,20.477 70.925,10.355 58.15,10.355 C 48.714,10.355 40.233999999999995,15.929 36.437,24.423000000000002 C 34.912,23.726000000000003 33.245,23.303 31.032999999999998,23.303 C 26.494,23.303 22.232,25.16 19.339999999999996,28.399 C 17.020999999999997,30.996000000000002 15.785999999999996,34.31 15.774999999999997,37.883 C 9.684,38.798 5.0,44.067 5.0,50.406 C 5.0,57.39 10.682,63.071 17.666,63.071 L 79.959,63.071 C 88.251,63.071 95.0,56.325 95.0,48.033 C 95.0,40.402 89.285,34.081 81.911,33.12 M 52.062,55.479 C 50.922999999999995,55.479 50.0,54.556 50.0,53.417 C 50.0,52.278000000000006 50.923,51.355000000000004 52.062,51.355000000000004 C 53.202,51.355000000000004 54.123999999999995,52.278000000000006 54.123999999999995,53.417 C 54.123999999999995,54.556 53.201,55.479 52.062,55.479 M 56.727,27.753 L 53.126999999999995,46.870000000000005 C 53.007,47.507000000000005 52.449999999999996,47.970000000000006 51.8,47.970000000000006 C 51.15,47.970000000000006 50.592999999999996,47.507000000000005 50.473,46.870000000000005 L 46.873,27.753000000000004 C 46.797999999999995,27.358000000000004 46.903999999999996,26.951000000000004 47.160999999999994,26.642000000000003 C 47.416,26.332000000000004 47.797999999999995,26.154000000000003 48.199999999999996,26.154000000000003 L 55.4,26.154000000000003 C 55.801,26.154000000000003 56.182,26.333000000000002 56.437,26.642000000000003 C 56.695,26.95 56.801,27.358 56.727,27.753"/>
</svg>
