<?xml version="1.0" ?>
<svg xmlns="http://www.w3.org/2000/svg" xmlns:ev="http://www.w3.org/2001/xml-events" xmlns:xlink="http://www.w3.org/1999/xlink" baseProfile="full" enable-background="new 0 0 100 100" height="572px" version="1.1" viewBox="0 0 100 100" width="600px" x="0px" xml:space="preserve" y="0px">
	<defs/>
	<path d="M 19.526,28.412 C 19.68,28.412 19.835,28.407 19.989,28.397 C 24.309,28.095 27.529,23.616 27.168,18.412999999999997 C 26.808999999999997,13.232999999999997 23.03,9.218999999999996 18.674999999999997,9.519999999999996 C 16.523999999999997,9.669999999999996 14.591999999999997,10.830999999999996 13.235999999999997,12.788999999999996 C 11.942999999999998,14.653999999999996 11.325999999999997,17.039999999999996 11.498999999999997,19.504999999999995 C 11.845,24.499 15.372,28.412 19.526,28.412 M 15.484,14.347 C 16.359,13.084 17.56,12.338999999999999 18.865,12.248 C 18.956,12.241 19.046999999999997,12.238 19.136999999999997,12.238 C 21.860999999999997,12.238 24.189999999999998,15.032 24.438999999999997,18.602 C 24.694999999999997,22.302 22.614999999999995,25.47 19.797999999999995,25.667 C 16.982999999999993,25.865000000000002 14.482999999999993,23.0 14.225999999999996,19.313000000000002 C 14.097,17.466 14.544,15.703 15.484,14.347"/>
	<path d="M 70.484,54.544 C 70.332,69.237 70.678,89.346 70.68299999999999,89.59 C 70.68299999999999,91.83500000000001 72.57799999999999,93.98700000000001 75.0,94.49000000000001 C 75.308,94.552 75.63,94.587 75.961,94.587 C 76.979,94.587 78.072,94.259 79.004,93.424 C 79.964,94.429 81.405,95.15 82.924,95.23 C 83.007,95.23400000000001 83.09200000000001,95.23700000000001 83.176,95.23700000000001 C 85.28,95.23700000000001 87.58,93.84100000000001 87.999,89.885 L 88.582,65.72200000000001 C 89.208,65.742 89.832,65.55300000000001 90.393,65.14200000000001 C 93.543,62.82900000000001 94.936,52.89800000000001 94.844,49.88200000000001 C 94.829,49.35900000000001 94.41799999999999,37.051000000000016 90.40599999999999,33.679000000000016 C 86.41999999999999,30.325000000000017 73.77499999999999,31.984000000000016 73.648,32.00100000000002 C 67.27,32.86100000000002 66.669,38.990000000000016 66.31099999999999,42.65400000000002 C 66.207,43.72000000000002 66.05099999999999,45.33300000000002 65.80799999999999,45.637000000000015 C 65.40599999999999,45.93800000000002 64.88399999999999,46.30000000000001 64.294,46.71100000000001 C 60.129999999999995,49.60100000000001 56.352999999999994,52.45900000000001 55.855999999999995,55.637000000000015 C 55.678,56.77900000000002 55.96099999999999,57.875000000000014 56.675999999999995,58.81000000000002 C 58.625,61.346 63.595,58.97 70.484,54.544 M 58.562,56.062 C 58.916999999999994,53.775 63.433,50.641999999999996 65.857,48.958 C 66.478,48.525999999999996 67.028,48.144 67.452,47.826 C 68.643,46.932 68.816,45.163000000000004 69.036,42.921 C 69.461,38.594 70.095,35.242 74.015,34.713 C 78.846,34.062 86.62,34.068 88.649,35.773 C 90.801,37.581 91.97,45.161 92.115,49.963 C 92.23599999999999,54.071 90.15599999999999,62.69 88.648,62.999 C 86.66799999999999,62.312000000000005 86.92099999999999,59.917 88.13199999999999,55.447 C 88.50399999999999,54.071000000000005 88.82499999999999,52.885000000000005 88.88199999999999,51.899 C 89.038,49.136 87.21799999999999,42.512 87.00999999999999,41.766000000000005 C 86.806,41.037000000000006 86.05199999999999,40.61300000000001 85.32499999999999,40.816 C 84.59599999999999,41.018 84.17199999999998,41.772000000000006 84.37299999999999,42.501000000000005 C 84.90499999999999,44.409000000000006 86.261,49.787000000000006 86.14899999999999,51.746 C 86.11099999999999,52.446000000000005 85.80999999999999,53.558 85.49199999999999,54.732 C 84.66399999999999,57.788 83.499,62.132999999999996 85.87899999999999,64.455 L 85.276,89.652 C 85.057,91.605 84.312,92.563 83.07,92.498 C 81.723,92.427 80.56299999999999,91.318 80.56299999999999,90.80600000000001 L 80.56299999999999,65.122 C 80.56299999999999,64.365 79.951,63.753 79.195,63.753 C 78.44,63.753 77.82799999999999,64.365 77.82799999999999,65.122 L 77.82799999999999,90.489 C 77.28999999999999,91.56400000000001 76.53299999999999,92.016 75.55699999999999,91.813 C 74.43999999999998,91.581 73.41999999999999,90.521 73.41999999999999,89.565 C 73.41399999999999,89.265 72.954,62.586999999999996 73.326,48.336999999999996 C 73.475,47.044999999999995 73.55,45.480999999999995 73.509,43.586 C 73.491,42.853 72.9,42.262 72.164,42.25 L 72.142,42.25 C 71.417,42.25 70.817,42.814 70.77499999999999,43.541 C 70.708,44.727 70.65299999999999,46.128 70.609,47.68599999999999 C 70.38,49.88799999999999 69.949,51.63399999999999 69.466,51.94499999999999 C 61.297999999999995,57.236999999999995 59.26899999999999,57.25699999999999 58.815999999999995,57.099999999999994 C 58.579,56.77 58.501,56.447 58.562,56.062"/>
	<path d="M 79.836,29.446 C 79.99,29.456000000000003 80.144,29.461000000000002 80.295,29.461000000000002 C 84.566,29.461000000000002 88.2,25.583000000000002 88.56700000000001,20.632 C 88.77300000000001,17.898000000000003 87.94300000000001,15.243000000000002 86.295,13.347000000000001 C 84.943,11.794 83.136,10.869000000000002 81.20400000000001,10.743000000000002 C 76.77900000000001,10.455000000000002 72.85300000000001,14.431000000000003 72.471,19.559000000000005 C 72.268,22.291000000000004 73.09700000000001,24.946000000000005 74.744,26.842000000000006 C 76.096,28.396 77.904,29.32 79.836,29.446 M 75.201,19.763 C 75.463,16.23 77.89899999999999,13.464000000000002 80.74499999999999,13.464000000000002 C 80.83899999999998,13.464000000000002 80.93299999999999,13.468000000000002 81.026,13.474000000000002 C 82.24199999999999,13.553000000000003 83.348,14.129000000000001 84.22999999999999,15.142000000000001 C 85.40299999999999,16.492 85.98899999999999,18.417 85.83899999999998,20.428 C 85.56799999999998,24.076 83.00499999999998,26.913 80.01099999999998,26.717 C 78.79699999999998,26.637999999999998 77.68799999999999,26.061 76.80699999999999,25.048 C 75.636,23.699 75.05,21.772 75.201,19.763"/>
	<path d="M 9.305,65.144 C 9.843,65.539 10.437999999999999,65.74000000000001 11.039,65.74000000000001 C 11.065,65.74000000000001 11.091,65.73500000000001 11.116,65.73500000000001 L 11.692,89.775 L 11.7,89.887 C 12.117999999999999,93.843 14.418999999999999,95.237 16.523,95.237 C 16.607,95.237 16.691,95.235 16.775,95.231 C 18.294999999999998,95.14999999999999 19.735,94.431 20.694,93.425 C 21.625999999999998,94.259 22.718999999999998,94.59 23.737,94.59 C 24.069,94.59 24.389999999999997,94.555 24.697999999999997,94.491 C 27.118999999999996,93.987 29.016,91.836 29.016,89.58 C 29.014,89.243 28.808,57.541 29.68,44.152 C 31.962,45.229 35.593,46.75 37.611,46.574 C 38.268,46.513999999999996 39.190999999999995,46.314 40.242,46.006 C 40.016999999999996,46.4 39.733999999999995,46.832 39.370999999999995,47.306 C 37.913999999999994,49.202999999999996 36.82899999999999,52.602999999999994 37.888,55.586 C 38.440999999999995,57.144999999999996 39.809,59.171 43.193999999999996,59.980999999999995 C 43.815999999999995,60.129999999999995 44.437999999999995,60.202999999999996 45.05199999999999,60.202999999999996 C 47.79099999999999,60.202999999999996 50.35499999999999,58.75899999999999 51.894999999999996,56.236999999999995 C 53.812,53.102999999999994 53.507999999999996,49.410999999999994 51.102999999999994,46.602 C 49.623,44.873 48.55799999999999,43.465999999999994 47.967999999999996,42.476 C 49.443,41.483 50.663999999999994,40.366 51.296,39.171 C 51.972,37.894 51.987,36.602 51.336999999999996,35.432 C 50.413999999999994,33.771 48.94199999999999,33.264 47.267999999999994,33.332 C 49.38699999999999,30.141000000000002 48.776999999999994,29.464000000000002 48.461999999999996,29.12 C 47.641,28.223000000000003 46.18599999999999,29.114 45.486999999999995,29.542 C 41.699,31.867 39.892999999999994,30.331000000000003 39.83,30.275000000000002 C 39.489999999999995,29.950000000000003 38.96,29.938000000000002 38.604,30.244000000000003 C 38.248,30.550000000000004 38.182,31.077 38.454,31.461000000000002 L 41.015,35.095 C 39.122,35.839999999999996 36.994,36.67 36.024,36.437 C 34.853,36.155 33.119,35.027 31.443,33.937 C 29.330000000000002,32.562 27.144000000000002,31.141999999999996 25.234,30.794999999999998 C 21.618000000000002,30.139 12.613000000000001,30.887999999999998 9.293000000000001,33.681 C 5.2810000000000015,37.053 4.868000000000001,49.361 4.853000000000001,49.885 C 4.764,52.898 6.155,62.829 9.305,65.144 M 11.053,35.773 C 12.468,34.584 15.772000000000002,33.793000000000006 18.948,33.465 L 17.969,32.071000000000005 L 21.948,32.07300000000001 L 21.414,33.30100000000001 C 22.708000000000002,33.26700000000001 23.876,33.32600000000001 24.747,33.48500000000001 C 26.116,33.733000000000004 28.066,35.00300000000001 29.953,36.230000000000004 C 31.91,37.502 33.758,38.70400000000001 35.384,39.095000000000006 C 37.21,39.537000000000006 39.574,38.602000000000004 42.079,37.61600000000001 C 45.493,36.27100000000001 48.167,35.35600000000001 48.945,36.75800000000001 C 49.08,37.00000000000001 49.177,37.32400000000001 48.879,37.88600000000001 C 47.436,40.61200000000001 40.18,43.59600000000001 37.367,43.84800000000001 C 35.885,43.98300000000001 31.668,42.155000000000015 29.110999999999997,40.81600000000002 C 29.109999999999996,40.81500000000002 29.107999999999997,40.814000000000014 29.106999999999996,40.81300000000002 L 29.101999999999997,40.811000000000014 C 29.090999999999998,40.80600000000001 29.078999999999997,40.80300000000001 29.063999999999997,40.79700000000001 C 28.996999999999996,40.76400000000001 28.925999999999995,40.73300000000001 28.851999999999997,40.71200000000001 C 28.798,40.69600000000001 28.742999999999995,40.69000000000001 28.688999999999997,40.680000000000014 C 28.654999999999998,40.67500000000001 28.623999999999995,40.664000000000016 28.587999999999997,40.661000000000016 L 28.584999999999997,40.661000000000016 C 28.493999999999996,40.65400000000002 28.403999999999996,40.65600000000001 28.314999999999998,40.66500000000001 C 28.272999999999996,40.670000000000016 28.232,40.682000000000016 28.189999999999998,40.692000000000014 C 28.145999999999997,40.701000000000015 28.099999999999998,40.70800000000001 28.055999999999997,40.72100000000002 C 28.003999999999998,40.737000000000016 27.955999999999996,40.762000000000015 27.906,40.78500000000002 C 27.875999999999998,40.798000000000016 27.843999999999998,40.80800000000002 27.814,40.82500000000002 C 27.763,40.853000000000016 27.715,40.887000000000015 27.669,40.923000000000016 C 27.644000000000002,40.94000000000002 27.619,40.95300000000002 27.597,40.972000000000016 C 27.537000000000003,41.021000000000015 27.481,41.07800000000002 27.43,41.13900000000002 C 27.424,41.146000000000015 27.415,41.152000000000015 27.409,41.15900000000002 C 27.351,41.23100000000002 27.299,41.30800000000002 27.256999999999998,41.39000000000002 C 27.256999999999998,41.39000000000002 27.256999999999998,41.39100000000002 27.256999999999998,41.392000000000024 C 27.215999999999998,41.47000000000003 27.182999999999996,41.553000000000026 27.156,41.642000000000024 C 27.134999999999998,41.71700000000003 27.122,41.79300000000003 27.113999999999997,41.870000000000026 C 27.112,41.882000000000026 27.107999999999997,41.89300000000003 27.106999999999996,41.907000000000025 L 27.106999999999996,41.90900000000003 C 27.106999999999996,41.91200000000003 27.105999999999995,41.91500000000003 27.105999999999995,41.91800000000003 C 26.049999999999994,53.937000000000026 26.271999999999995,88.14900000000003 26.281999999999993,89.59100000000004 C 26.281999999999993,90.52300000000004 25.262999999999995,91.58200000000004 24.14399999999999,91.81500000000004 C 23.16899999999999,92.01800000000004 22.41099999999999,91.56600000000005 21.87299999999999,90.49100000000004 L 21.87299999999999,65.121 C 21.87299999999999,64.365 21.25999999999999,63.75299999999999 20.504999999999992,63.75299999999999 C 19.749999999999993,63.75299999999999 19.136999999999993,64.365 19.136999999999993,65.121 L 19.136999999999993,90.806 C 19.136999999999993,91.32 17.975999999999992,92.42699999999999 16.629999999999992,92.49799999999999 C 15.383999999999991,92.56299999999999 14.642999999999992,91.60499999999999 14.423999999999992,89.651 L 13.820999999999993,64.455 C 16.20199999999999,62.134 15.034999999999993,57.787 14.206999999999992,54.732 C 13.888999999999992,53.557 13.587999999999992,52.446 13.548999999999992,51.747 C 13.436999999999992,49.787 14.792999999999992,44.408 15.324999999999992,42.502 C 15.526999999999992,41.775000000000006 15.100999999999992,41.02 14.372999999999992,40.816 C 13.645999999999992,40.613 12.891999999999992,41.039 12.686999999999992,41.766000000000005 C 12.480999999999993,42.514 10.659999999999993,49.136 10.814999999999992,51.898 C 10.870999999999992,52.884 11.191999999999993,54.073 11.564999999999992,55.448 C 12.775999999999993,59.918 13.026999999999992,62.311 11.039999999999992,63.005 C 9.646999999999991,62.713 7.450999999999992,54.425000000000004 7.582999999999992,49.964 C 7.731,45.161 8.9,37.582 11.053,35.773"/>
	<path d="M 19.991,23.833 C 21.0,23.833 22.104,23.558 23.167,22.79 C 23.576,22.494999999999997 23.667,21.926 23.373,21.518 C 23.078,21.109 22.507,21.018 22.101000000000003,21.312 C 19.945000000000004,22.865000000000002 17.785000000000004,21.374000000000002 17.693,21.309 C 17.285,21.018 16.717000000000002,21.112000000000002 16.424000000000003,21.517 C 16.130000000000003,21.926 16.220000000000002,22.495 16.630000000000003,22.79 C 17.295,23.271 18.546,23.833 19.991,23.833"/>
	<path d="M 80.198,24.745 C 81.207,24.745 82.312,24.471 83.375,23.702 C 83.784,23.407 83.876,22.838 83.581,22.429000000000002 C 83.285,22.020000000000003 82.71600000000001,21.929000000000002 82.308,22.223000000000003 C 80.155,23.778000000000002 77.99300000000001,22.284000000000002 77.902,22.221000000000004 C 77.494,21.930000000000003 76.926,22.024000000000004 76.632,22.429000000000002 C 76.33800000000001,22.838 76.429,23.406000000000002 76.83800000000001,23.701 C 77.503,24.183 78.755,24.745 80.198,24.745"/>
	<path d="M 17.968,32.072 L 18.948,33.465 L 20.303,35.393 L 20.303,35.39 L 20.304,35.396 L 20.427,35.569 L 21.413,33.302 L 21.947,32.074 L 17.968,32.072" points="17.968,32.072 18.948,33.465 20.303,35.393 20.303,35.39 20.304,35.396 20.427,35.569 21.413,33.302 21.947,32.074   "/>
	<path d="M 18.47,53.595 L 21.121,56.68 L 23.771,53.386 L 20.304,35.396 L 20.303,35.393 L 18.47,53.595" points="18.47,53.595 21.121,56.68 23.771,53.386 20.304,35.396 20.303,35.393 "/>
</svg>
