<?xml version="1.0" ?>
<svg xmlns="http://www.w3.org/2000/svg" xmlns:ev="http://www.w3.org/2001/xml-events" xmlns:xlink="http://www.w3.org/1999/xlink" baseProfile="full" enable-background="new 0 0 100 100" height="600px" version="1.1" viewBox="0 0 100 100" width="600px" x="0px" xml:space="preserve" y="0px">
	<defs/>
	<path d="M 50.821,5.096 C 26.006999999999998,5.096 5.815999999999995,25.287 5.815999999999995,50.090999999999994 C 5.815999999999995,74.905 26.006999999999994,95.096 50.821,95.096 C 75.625,95.096 95.816,74.905 95.816,50.091 C 95.816,25.287 75.624,5.096 50.821,5.096 M 50.821,86.748 C 30.608999999999998,86.748 14.164000000000001,70.303 14.164000000000001,50.09100000000001 C 14.164000000000001,29.889000000000006 30.609,13.44400000000001 50.821,13.44400000000001 C 71.023,13.44400000000001 87.46799999999999,29.88900000000001 87.46799999999999,50.09100000000001 C 87.468,70.303 71.023,86.748 50.821,86.748"/>
	<path d="M 64.284,63.559 C 62.653000000000006,65.19 60.01200000000001,65.19 58.38100000000001,63.559 L 50.82500000000001,56.003 L 43.25500000000001,63.573 C 41.63200000000001,65.196 38.97500000000001,65.196 37.35200000000001,63.573 C 35.72100000000001,61.942 35.72900000000001,59.293 37.35200000000001,57.67 L 44.92200000000001,50.1 L 37.35200000000001,42.53 C 35.72900000000001,40.907000000000004 35.72100000000001,38.258 37.35200000000001,36.627 C 38.97500000000001,35.004000000000005 41.63200000000001,35.004000000000005 43.25500000000001,36.627 L 50.82500000000001,44.197 L 58.38100000000001,36.641000000000005 C 60.01200000000001,35.010000000000005 62.653000000000006,35.010000000000005 64.284,36.641000000000005 C 65.90700000000001,38.264 65.915,40.913000000000004 64.284,42.544000000000004 L 56.72800000000001,50.1 L 64.284,57.656 C 65.914,59.287 65.907,61.936 64.284,63.559"/>
</svg>
