<?xml version="1.0" ?>
<svg xmlns="http://www.w3.org/2000/svg" xmlns:ev="http://www.w3.org/2001/xml-events" xmlns:xlink="http://www.w3.org/1999/xlink" baseProfile="full" enable-background="new 0 0 100 100" height="600px" version="1.1" viewBox="0 0 100 100" width="600px" x="0px" xml:space="preserve" y="0px">
	<defs/>
	<path d="M 50.71,5.175 C 25.896,5.175 5.704999999999998,25.356 5.704999999999998,50.169999999999995 C 5.704999999999998,74.984 25.895999999999997,95.175 50.71,95.175 C 75.524,95.175 95.705,74.984 95.705,50.169999999999995 C 95.705,25.356 75.524,5.175 50.71,5.175 M 50.71,13.523 C 59.016,13.523 66.686,16.299 72.842,20.984 L 21.514,72.312 C 16.829,66.155 14.052999999999999,58.486 14.052999999999999,50.169 C 14.053,29.958 30.498,13.523 50.71,13.523 M 50.71,86.827 C 41.809,86.827 33.649,83.644 27.294,78.344 L 78.884,26.75399999999999 C 84.174,33.09799999999999 87.357,41.26899999999999 87.357,50.16999999999999 C 87.357,70.382 70.912,86.827 50.71,86.827"/>
</svg>
