<?xml version="1.0" ?>
<svg xmlns="http://www.w3.org/2000/svg" xmlns:ev="http://www.w3.org/2001/xml-events" xmlns:xlink="http://www.w3.org/1999/xlink" baseProfile="full" enable-background="new 0 0 100 100" height="574px" version="1.1" viewBox="0 0 100 100" width="600px" x="0px" xml:space="preserve" y="0px">
	<defs/>
	<path d="M 75.554,93.204 C 74.932,93.204 74.307,93.056 73.735,92.756 L 50.158,80.36 L 26.581,92.755 C 25.266,93.44699999999999 23.669,93.33099999999999 22.465,92.457 C 21.262,91.582 20.659,90.1 20.911,88.634 L 25.414,62.379999999999995 L 6.338,43.787 C 5.272,42.749 4.890000000000001,41.195 5.349,39.78 C 5.808,38.365 7.031000000000001,37.334 8.504,37.121 L 34.865,33.291000000000004 L 46.653,9.405 C 47.311,8.071 48.67,7.226999999999999 50.158,7.226999999999999 C 51.646,7.226999999999999 53.004000000000005,8.071 53.663000000000004,9.405 L 65.452,33.292 L 91.812,37.122 C 93.28399999999999,37.336 94.508,38.366 94.967,39.781 C 95.42699999999999,41.196 95.044,42.75 93.978,43.788 L 74.904,62.381 L 79.407,88.635 C 79.65899999999999,90.101 79.056,91.583 77.853,92.458 C 77.171,92.952 76.364,93.204 75.554,93.204 M 50.158,72.036 C 50.783,72.036 51.407000000000004,72.186 51.977000000000004,72.484 L 70.364,82.151 L 66.85300000000001,61.67699999999999 C 66.635,60.40999999999999 67.05600000000001,59.11599999999999 67.977,58.21799999999999 L 82.852,43.71799999999999 L 62.29600000000001,40.73099999999999 C 61.023,40.54699999999999 59.92300000000001,39.746999999999986 59.35300000000001,38.59399999999999 L 50.159000000000006,19.965999999999987 L 40.96600000000001,38.59399999999999 C 40.39600000000001,39.74799999999999 39.29600000000001,40.54699999999999 38.02300000000001,40.73099999999999 L 17.46600000000001,43.71799999999999 L 32.34100000000001,58.21799999999999 C 33.26200000000001,59.11599999999999 33.68300000000001,60.40999999999999 33.46500000000001,61.67699999999999 L 29.95400000000001,82.151 L 48.34100000000001,72.484 C 48.909,72.185 49.533,72.036 50.158,72.036"/>
</svg>
