<?xml version="1.0" ?>
<svg xmlns="http://www.w3.org/2000/svg" xmlns:ev="http://www.w3.org/2001/xml-events" xmlns:xlink="http://www.w3.org/1999/xlink" baseProfile="full" enable-background="new 0 0 100 100" height="600px" version="1.1" viewBox="0 0 100 100" width="575px" x="0px" xml:space="preserve" y="0px">
	<defs/>
	<path d="M 23.788,30.932 C 21.01,30.932 18.759,28.375999999999998 18.759,25.223 L 18.759,7.676 C 18.759,4.523 21.011,1.9670000000000005 23.788,1.9670000000000005 C 26.565,1.9670000000000005 28.817,4.523000000000001 28.817,7.676 L 28.817,25.223 C 28.817,28.376 26.566,30.932 23.788,30.932" fill="#000000"/>
	<path d="M 77.89,30.932 C 75.112,30.932 72.861,28.375999999999998 72.861,25.223 L 72.861,7.676 C 72.861,4.523 75.113,1.9670000000000005 77.89,1.9670000000000005 C 80.668,1.9670000000000005 82.919,4.523000000000001 82.919,7.676 L 82.919,25.223 C 82.919,28.376 80.668,30.932 77.89,30.932" fill="#000000"/>
	<path d="M 90.302,12.408 L 11.686,12.408 C 8.296,12.408 5.549,15.469 5.549,19.246 L 5.549,90.13 C 5.549,93.907 8.297,96.96799999999999 11.686,96.96799999999999 L 90.30199999999999,96.96799999999999 C 93.692,96.96799999999999 96.439,93.90699999999998 96.439,90.13 L 96.439,19.246 C 96.439,15.469 93.691,12.408 90.302,12.408 M 77.89,16.801 C 81.988,16.801 85.31,20.572 85.31,25.223 C 85.31,29.874 81.988,33.644999999999996 77.89,33.644999999999996 C 73.792,33.644999999999996 70.47,29.873999999999995 70.47,25.222999999999995 C 70.47,20.572 73.792,16.801 77.89,16.801 M 23.788,16.801 C 27.886,16.801 31.208,20.572 31.208,25.223 C 31.208,29.874 27.886,33.644999999999996 23.787999999999997,33.644999999999996 C 19.689999999999998,33.644999999999996 16.367999999999995,29.873999999999995 16.367999999999995,25.222999999999995 C 16.368,20.572 19.69,16.801 23.788,16.801 M 11.167,88.22 L 11.167,39.763 C 11.167,38.346 12.179,37.196999999999996 13.428,37.196999999999996 L 88.922,37.196999999999996 C 90.17099999999999,37.196999999999996 91.18299999999999,38.346 91.18299999999999,39.763 L 91.18299999999999,71.24799999999999 L 90.342,72.23499999999999 L 81.662,72.23499999999999 C 78.272,72.23499999999999 75.525,74.77599999999998 75.525,79.05299999999998 L 75.525,89.63499999999999 L 74.54400000000001,90.78699999999999 L 13.428,90.78699999999999 C 12.18,90.787 11.167,89.637 11.167,88.22 M 88.923,90.787 L 80.54,90.787 L 91.18400000000001,78.28800000000001 L 91.18400000000001,88.221 C 91.184,89.637 90.171,90.787 88.923,90.787" fill="#000000"/>
	<path d="M 29.439,52.778 L 20.817,52.778 L 20.817,42.991 L 29.439,42.991 L 29.439,52.778 M 46.683,42.992 L 38.061,42.992 L 38.061,52.778999999999996 L 46.683,52.778999999999996 L 46.683,42.992 M 63.926,42.992 L 55.304,42.992 L 55.304,52.778999999999996 L 63.926,52.778999999999996 L 63.926,42.992 M 81.169,42.992 L 72.547,42.992 L 72.547,52.778999999999996 L 81.169,52.778999999999996 L 81.169,42.992 M 29.439,59.098 L 20.817,59.098 L 20.817,68.885 L 29.439,68.885 L 29.439,59.098 M 46.683,59.098 L 38.061,59.098 L 38.061,68.885 L 46.683,68.885 L 46.683,59.098 M 63.926,59.098 L 55.304,59.098 L 55.304,68.885 L 63.926,68.885 L 63.926,59.098 M 81.169,59.098 L 72.547,59.098 L 72.547,68.885 L 81.169,68.885 L 81.169,59.098 M 29.439,75.204 L 20.817,75.204 L 20.817,84.991 L 29.439,84.991 L 29.439,75.204 M 46.683,75.204 L 38.061,75.204 L 38.061,84.991 L 46.683,84.991 L 46.683,75.204 M 63.926,75.204 L 55.304,75.204 L 55.304,84.991 L 63.926,84.991 L 63.926,75.204 M 81.169,75.204 L 72.547,75.204 L 72.547,84.991 L 81.169,84.991 L 81.169,75.204" fill="#000000"/>
</svg>
