<?xml version="1.0" ?>
<svg xmlns="http://www.w3.org/2000/svg" xmlns:ev="http://www.w3.org/2001/xml-events" xmlns:xlink="http://www.w3.org/1999/xlink" baseProfile="full" enable-background="new 0 0 100 89.284" height="536px" version="1.1" viewBox="0 0 100 89.284" width="600px" x="0px" xml:space="preserve" y="0px">
	<defs/>
	<path clip-rule="evenodd" d="M 96.607,71.538 C 95.792,71.789 94.737,71.74 93.354,71.442 C 91.95,71.118 90.67,69.613 88.338,69.696 C 85.94699999999999,69.78 82.57,71.945 79.309,71.945 C 76.001,71.873 72.287,69.6 68.91,69.6 C 65.548,69.62299999999999 62.489,71.979 59.263,72.05199999999999 C 55.976,72.06299999999999 52.701,69.85199999999999 49.485,69.803 C 46.223,69.721 43.132,71.767 40.084,71.74 C 37.083000000000006,71.68199999999999 34.42,69.50399999999999 31.441000000000003,69.6 C 28.382,69.72099999999999 25.03,72.112 22.040000000000003,72.256 C 19.026000000000003,72.303 16.295,70.031 13.633000000000003,70.006 C 10.949000000000002,69.959 7.937000000000003,71.669 6.124000000000002,72.052 C 4.314000000000002,72.399 3.1680000000000024,72.43400000000001 2.7390000000000025,72.161 L 2.7390000000000025,78.498 C 3.1680000000000024,78.771 4.314000000000003,78.735 6.124000000000002,78.39 C 7.937000000000002,78.007 10.949000000000002,76.297 13.633000000000003,76.345 C 16.296000000000003,76.368 19.027,78.641 22.040000000000003,78.594 C 25.03,78.47399999999999 28.382,76.021 31.441000000000003,75.94 C 34.42,75.82 37.083000000000006,78.044 40.084,78.09 C 43.132000000000005,78.114 46.223000000000006,76.083 49.485,76.14200000000001 C 52.702,76.18900000000001 55.976,78.40200000000002 59.263,78.39000000000001 C 62.489999999999995,78.31800000000001 65.548,75.96100000000001 68.91,75.94000000000001 C 72.28699999999999,75.927 76.00099999999999,78.23500000000001 79.309,78.29400000000001 C 82.571,78.29400000000001 85.948,76.13000000000001 88.338,76.04500000000002 C 90.66999999999999,75.94000000000001 91.949,77.46900000000002 93.354,77.77900000000001 C 94.737,78.07900000000001 95.792,78.12700000000001 96.607,77.876 L 96.607,71.538" fill-rule="evenodd"/>
	<path clip-rule="evenodd" d="M 42.925,68.167 L 68.841,54.188 L 68.841,54.188 C 66.806,49.667 65.36399999999999,46.258 64.52799999999999,43.832 C 63.666999999999994,41.416000000000004 63.303999999999995,40.879 63.791999999999994,39.729 C 64.291,38.546 63.602,38.368 67.39399999999999,36.799 C 71.19,35.173 82.53899999999999,30.508 86.243,30.282 C 89.86999999999999,30.092 89.72099999999999,34.134 89.121,35.496 C 88.463,36.822 85.089,37.158 82.529,38.211 C 79.932,39.214 77.08,40.338 73.78399999999999,41.582 L 73.78399999999999,41.582 L 85.64,67.962 L 85.64,67.962 C 84.111,69.289 82.084,69.803 79.344,69.60000000000001 C 76.55699999999999,69.32600000000001 72.84299999999999,66.64800000000001 69.375,66.63400000000001 C 65.92,66.64800000000001 61.978,69.63600000000001 58.819,69.69600000000001 C 55.647000000000006,69.68500000000002 53.131,67.10000000000001 50.483000000000004,66.83900000000001 C 47.821,66.575 45.316,67.016 42.925,68.167 L 42.925,68.167" fill-rule="evenodd"/>
	<path clip-rule="evenodd" d="M 89.487,45.339 C 93.48599999999999,45.339 96.725,48.76 96.725,52.98 C 96.725,57.199 93.48599999999999,60.620999999999995 89.487,60.620999999999995 C 85.496,60.620999999999995 82.25,57.199 82.25,52.98 C 82.25,48.76 85.496,45.339 89.487,45.339" fill-rule="evenodd"/>
	<path clip-rule="evenodd" d="M 25.439,68.68 C 22.368,68.10600000000001 19.242,67.22000000000001 15.843,66.024 C 12.422,64.758 6.589,63.058 5.208,61.398 C 3.825,59.688 4.835,56.268 7.619,56.113 C 10.418,55.957 15.968,58.467 21.733,60.548 C 27.466,62.605000000000004 34.024,65.177 41.762,68.394 L 41.762,68.394 C 40.81,68.91900000000001 39.552,69.086 37.945,68.848 C 36.311,68.572 34.25,67.054 32.155,67.008 C 30.047,66.971 27.839,67.543 25.439,68.68 L 25.439,68.68" fill-rule="evenodd"/>
	<path clip-rule="evenodd" d="M 96.607,82.145 C 95.792,82.37299999999999 94.737,82.336 93.354,82.039 C 91.95,81.727 90.67,80.196 88.338,80.304 C 85.94699999999999,80.388 82.57,82.551 79.309,82.551 C 76.0,82.483 72.28699999999999,80.208 68.91,80.208 C 65.548,80.231 62.489,82.587 59.263,82.658 C 55.976,82.673 52.701,80.46000000000001 49.485,80.413 C 46.223,80.327 43.132,82.37299999999999 40.084,82.35 C 37.083000000000006,82.28899999999999 34.42,80.11399999999999 31.441000000000003,80.208 C 28.382,80.327 25.03,82.72 22.040000000000003,82.863 C 19.026000000000003,82.91 16.295,80.637 13.633000000000003,80.614 C 10.949000000000002,80.569 7.937000000000003,82.277 6.124000000000002,82.658 C 4.314000000000002,83.03 3.1680000000000024,83.018 2.7390000000000025,82.755 L 2.7390000000000025,89.09299999999999 C 3.1680000000000024,89.35699999999999 4.314000000000003,89.36899999999999 6.124000000000002,88.99699999999999 C 7.937000000000002,88.61499999999998 10.949000000000002,86.90599999999999 13.633000000000003,86.95299999999999 C 16.296000000000003,86.97599999999998 19.027,89.24699999999999 22.040000000000003,89.20199999999998 C 25.03,89.05599999999998 28.382,86.66399999999999 31.441000000000003,86.54599999999998 C 34.42,86.44999999999997 37.083000000000006,88.62799999999997 40.084,88.68699999999998 C 43.132000000000005,88.70999999999998 46.223000000000006,86.66499999999998 49.485,86.74899999999998 C 52.702,86.79699999999998 55.976,89.00999999999998 59.263,88.99699999999999 C 62.489999999999995,88.92599999999999 65.548,86.56899999999999 68.91,86.54599999999999 C 72.28699999999999,86.54599999999999 76.00099999999999,88.818 79.309,88.88999999999999 C 82.571,88.88999999999999 85.948,86.72599999999998 88.338,86.64099999999999 C 90.66999999999999,86.559 91.949,88.065 93.354,88.38799999999999 C 94.737,88.687 95.792,88.734 96.607,88.48499999999999 L 96.607,82.145" fill-rule="evenodd"/>
	<path clip-rule="evenodd" d="M 49.995,0.0 L 0.0,15.756 L 0.0,22.892 L 49.995,7.14 L 100.0,22.892 L 100.0,15.756 L 49.995,0.0" fill-rule="evenodd" points="49.995,0 0,15.756 0,22.892 49.995,7.14 100,22.892 100,15.756 "/>
</svg>
