<?xml version="1.0" ?>
<svg xmlns="http://www.w3.org/2000/svg" xmlns:ev="http://www.w3.org/2001/xml-events" xmlns:xlink="http://www.w3.org/1999/xlink" baseProfile="full" enable-background="new 0 0 49.583 63.261" height="600px" version="1.1" viewBox="0 0 49.583 63.261" width="471px" x="0px" xml:space="preserve" y="0px">
	<defs/>
	<path d="M 35.927,4.326 C 35.375,4.2459999999999996 34.944,3.7609999999999997 34.944,3.1849999999999996 C 34.944,2.7489999999999997 35.192,2.385 35.536,2.1739999999999995 C 35.176,1.9729999999999994 34.944,1.5919999999999996 34.944,1.1629999999999996 C 34.943,0.517 35.455,0.0 36.096,0.0 L 41.815,0.0 C 42.455999999999996,0.0 42.967,0.517 42.967,1.164 C 42.967,1.6079999999999999 42.719,1.988 42.344,2.175 C 42.703,2.3689999999999998 42.967,2.75 42.967,3.186 C 42.967,3.761 42.535,4.247 41.984,4.327 L 48.927,23.308999999999997 C 49.36,24.537999999999997 49.583,25.912999999999997 49.583,27.287999999999997 L 49.583,60.94 C 49.583,62.202 48.565999999999995,63.227999999999994 47.295,63.227999999999994 L 30.6,63.227999999999994 C 29.343,63.227999999999994 28.328000000000003,62.20199999999999 28.328000000000003,60.94 L 28.328000000000003,27.287 C 28.328000000000003,25.912 28.552000000000003,24.537 28.968000000000004,23.308 L 35.927,4.326"/>
	<path d="M 3.999,23.445 C 4.143,23.575 4.344,23.655 4.551,23.655 C 5.016,23.655 5.392,23.276 5.392,22.814 C 5.392,22.668 5.343,22.531 5.288,22.402 L 4.345000000000001,20.194000000000003 C 4.128000000000001,19.750000000000004 3.657000000000001,19.451000000000004 3.1440000000000006,19.451000000000004 C 2.3920000000000003,19.451000000000004 1.7850000000000006,20.049000000000003 1.7850000000000006,20.808000000000003 C 1.7850000000000006,21.172000000000004 1.9290000000000005,21.503000000000004 2.162000000000001,21.738000000000003 L 3.999,23.445 M 7.111,23.858 C 7.1899999999999995,24.043 7.239,24.254 7.239,24.457 C 7.239,25.329 6.535,26.034 5.672,26.034 C 5.359999999999999,26.034 5.063,25.929 4.816,25.766 L 1.0469999999999997,22.612 C 0.6389999999999998,22.119 0.3919999999999997,21.503999999999998 0.3919999999999997,20.808 C 0.3919999999999997,19.28 1.6229999999999998,18.027 3.143,18.027 C 4.272,18.027 5.256,18.738 5.654999999999999,19.733 L 7.111,23.858"/>
	<path d="M 19.19,26.64 C 19.638,26.64 20.015,27.02 20.015,27.473 L 20.015,28.767 C 20.015,29.227999999999998 19.638,29.599999999999998 19.19,29.599999999999998 L 18.423000000000002,29.567999999999998 C 19.342000000000002,30.15 20.015,31.162 20.015,32.349999999999994 L 20.015,60.63999999999999 C 20.015,62.087999999999994 18.863,63.260999999999996 17.438000000000002,63.260999999999996 L 2.599,63.260999999999996 C 1.159,63.261 0.0,62.088 0.0,60.64 L 0.016,32.35 C 0.016,31.162000000000003 0.672,30.150000000000002 1.6,29.568 L 0.832,29.6 C 0.37499999999999994,29.6 0.016000000000000014,29.228 0.016000000000000014,28.767000000000003 L 0.016000000000000014,27.473000000000003 C 0.016000000000000014,27.020000000000003 0.375,26.640000000000004 0.832,26.640000000000004 L 19.19,26.640000000000004 L 19.19,26.64"/>
</svg>
