<?xml version="1.0" ?>
<svg xmlns="http://www.w3.org/2000/svg" xmlns:ev="http://www.w3.org/2001/xml-events" xmlns:xlink="http://www.w3.org/1999/xlink" baseProfile="full" enable-background="new 0 0 100 100" height="600px" version="1.1" viewBox="0 0 100 100" width="489px" x="0px" xml:space="preserve" y="0px">
	<defs/>
	<path d="M 77.0,14.0 L 77.0,85.0 L 21.0,85.0 L 21.0,14.0 L 77.0,14.0 M 82.0,9.0 L 16.0,9.0 L 16.0,90.0 L 82.0,90.0 L 82.0,9.0 L 82.0,9.0"/>
	<path d="M 28.596,18.839 L 69.404,18.839 L 69.404,49.486 L 28.596,49.486 L 28.596,18.839" height="30.647" width="40.808" x="28.596" y="18.839"/>
	<path d="M 28.596,54.163 L 47.307,54.163 L 47.307,60.131 L 28.596,60.131 L 28.596,54.163" height="5.968" width="18.711" x="28.596" y="54.163"/>
	<path d="M 52.468,54.163 L 69.404,54.163 L 69.404,60.131 L 52.468,60.131 L 52.468,54.163" height="5.968" width="16.936" x="52.468" y="54.163"/>
	<path d="M 28.596,64.163 L 47.307,64.163 L 47.307,70.131 L 28.596,70.131 L 28.596,64.163" height="5.968" width="18.711" x="28.596" y="64.163"/>
	<path d="M 52.468,64.163 L 69.404,64.163 L 69.404,70.131 L 52.468,70.131 L 52.468,64.163" height="5.968" width="16.936" x="52.468" y="64.163"/>
	<path d="M 28.596,74.163 L 47.307,74.163 L 47.307,80.131 L 28.596,80.131 L 28.596,74.163" height="5.968" width="18.711" x="28.596" y="74.163"/>
	<path d="M 52.468,74.163 L 69.404,74.163 L 69.404,80.131 L 52.468,80.131 L 52.468,74.163" height="5.968" width="16.936" x="52.468" y="74.163"/>
</svg>
