<?xml version="1.0" ?>
<svg xmlns="http://www.w3.org/2000/svg" xmlns:ev="http://www.w3.org/2001/xml-events" xmlns:xlink="http://www.w3.org/1999/xlink" baseProfile="full" enable-background="new 0 0 48 48" height="600px" version="1.1" viewBox="0 0 48 48" width="600px" x="0px" xml:space="preserve" y="0px">
	<defs/>
	<path d="M 8.418,34.999 C 10.898,34.985 12.905,32.956 12.892999999999999,30.474000000000004 C 12.876999999999999,27.994000000000003 10.847999999999999,25.986000000000004 8.367999999999999,26.000000000000004 C 5.886999999999999,26.014000000000003 3.8779999999999983,28.044000000000004 3.892999999999999,30.524000000000004 C 3.905,33.006 5.936,35.014 8.418,34.999 M 8.378,28.0 C 9.757,27.992 10.884,29.107 10.892,30.485 C 10.899999999999999,31.865 9.786,32.991 8.408,32.999 C 7.026999999999999,33.007000000000005 5.8999999999999995,31.893 5.892999999999999,30.513 C 5.884,29.135 6.999,28.007 8.378,28.0"/>
	<path d="M 24.025,34.999 C 26.505,34.985 28.512999999999998,32.956 28.5,30.474000000000004 C 28.484,27.994000000000003 26.455,25.986000000000004 23.975,26.000000000000004 C 21.495,26.014000000000003 19.485,28.044000000000004 19.5,30.524000000000004 C 19.514,33.006 21.543,35.014 24.025,34.999 M 23.986,28.0 C 25.365000000000002,27.992 26.492,29.107 26.5,30.485 C 26.508,31.865 25.393,32.991 24.016,32.999 C 22.634999999999998,33.007000000000005 21.508,31.893 21.5,30.513 C 21.492,29.135 22.607,28.007 23.986,28.0"/>
	<path d="M 39.634,34.999 C 42.114,34.985 44.121,32.956 44.109,30.474000000000004 C 44.093,27.994000000000003 42.064,25.986000000000004 39.584,26.000000000000004 C 37.103,26.014000000000003 35.094,28.044000000000004 35.109,30.524000000000004 C 35.121,33.006 37.151,35.014 39.634,34.999 M 39.594,28.0 C 40.973,27.992 42.1,29.107 42.108000000000004,30.485 C 42.11600000000001,31.865 41.002,32.991 39.624,32.999 C 38.243,33.007000000000005 37.116,31.893 37.109,30.513 C 37.1,29.135 38.215,28.007 39.594,28.0"/>
	<path d="M 43.612,36.0 L 35.612,36.0 C 33.986000000000004,36.0 32.658,37.301 32.613,38.916 L 31.806,44.166 L 31.002000000000002,38.916 C 30.958,37.301 29.63,36.0 28.004,36.0 L 20.004,36.0 C 18.378,36.0 17.05,37.301 17.005000000000003,38.916 L 16.198000000000004,44.163 L 15.395000000000003,38.916 C 15.351,37.301 14.022,36.0 12.396,36.0 L 4.396000000000001,36.0 C 2.770000000000001,36.0 1.4420000000000006,37.301 1.3970000000000007,38.916 L 0.0,48.0 L 2.023,48.0 L 3.3840000000000003,39.152 L 3.396,39.0 C 3.396,38.449 3.844,38.0 4.396,38.0 L 12.396,38.0 C 12.948,38.0 13.396,38.449 13.396,39.0 L 14.772,48.0 L 15.608,48.0 L 16.785,48.0 L 17.631,48.0 L 18.992,39.152 L 19.004,39.0 C 19.004,38.449 19.452,38.0 20.004,38.0 L 28.004,38.0 C 28.556,38.0 29.004,38.449 29.004,39.0 L 30.380000000000003,48.0 L 31.217000000000002,48.0 L 32.393,48.0 L 33.24,48.0 L 34.601,39.152 L 34.612,39.0 C 34.612,38.449 35.06,38.0 35.612,38.0 L 43.612,38.0 C 44.164,38.0 44.612,38.449 44.612,39.0 L 45.988,48.0 L 48.0,48.0 L 46.611,38.916 C 46.566,37.301 45.238,36.0 43.612,36.0"/>
	<path d="M 43.0,5.0 L 22.0,5.0 C 21.447,5.0 21.0,5.448 21.0,6.0 C 21.0,6.552 21.447,7.0 22.0,7.0 L 43.0,7.0 C 43.553,7.0 44.0,6.552 44.0,6.0 C 44.0,5.448 43.553,5.0 43.0,5.0"/>
	<path d="M 43.0,8.0 L 22.0,8.0 C 21.447,8.0 21.0,8.448 21.0,9.0 C 21.0,9.552 21.447,10.0 22.0,10.0 L 43.0,10.0 C 43.553,10.0 44.0,9.552 44.0,9.0 C 44.0,8.448 43.553,8.0 43.0,8.0"/>
	<path d="M 43.0,11.0 L 22.0,11.0 C 21.447,11.0 21.0,11.448 21.0,12.0 C 21.0,12.552 21.447,13.0 22.0,13.0 L 43.0,13.0 C 43.553,13.0 44.0,12.552 44.0,12.0 C 44.0,11.448 43.553,11.0 43.0,11.0"/>
	<path d="M 43.0,14.0 L 22.0,14.0 C 21.447,14.0 21.0,14.448 21.0,15.0 C 21.0,15.552 21.447,16.0 22.0,16.0 L 43.0,16.0 C 43.553,16.0 44.0,15.552 44.0,15.0 C 44.0,14.448 43.553,14.0 43.0,14.0"/>
	<path d="M 45.0,0.0 L 3.0,0.0 C 1.346,0.0 0.0,1.346 0.0,3.0 L 0.0,18.0 C 0.0,19.654 1.346,21.0 3.0,21.0 L 7.0,21.0 L 7.0,24.0 C 7.0,24.384 7.221,24.735 7.566,24.901 C 7.705,24.967 7.853,25.0 8.0,25.0 C 8.223,25.0 8.444,24.925 8.625,24.781 L 13.351,21.0 L 20.5,21.0 L 23.2,24.6 C 23.387999999999998,24.852 23.685,25.0 24.0,25.0 C 24.315,25.0 24.611,24.852 24.8,24.6 L 27.5,21.0 L 34.649,21.0 L 39.375,24.781 C 39.556,24.925 39.777,25.0 40.0,25.0 C 40.147,25.0 40.296,24.967 40.434,24.901 C 40.779,24.735 41.0,24.384 41.0,24.0 L 41.0,21.0 L 45.0,21.0 C 46.653999999999996,21.0 48.0,19.654 48.0,18.0 L 48.0,3.0 C 48.0,1.346 46.654,0.0 45.0,0.0 M 46.0,18.0 C 46.0,18.551 45.552,19.0 45.0,19.0 L 40.0,19.0 L 39.0,19.0 L 39.0,21.919 L 35.351,19.0 L 35.0,19.0 L 27.0,19.0 L 26.5,19.0 L 24.0,22.333 L 21.5,19.0 L 21.0,19.0 L 13.0,19.0 L 12.649000000000001,19.0 L 9.0,21.919 L 9.0,19.0 L 8.0,19.0 L 3.0,19.0 C 2.448,19.0 2.0,18.551 2.0,18.0 L 2.0,3.0 C 2.0,2.449 2.448,2.0 3.0,2.0 L 45.0,2.0 C 45.552,2.0 46.0,2.449 46.0,3.0 L 46.0,18.0"/>
	<path d="M 16.0,5.0 L 7.0,5.0 C 5.346,5.0 4.0,6.346 4.0,8.0 L 4.0,13.0 C 4.0,14.654 5.346,16.0 7.0,16.0 L 16.0,16.0 C 17.654,16.0 19.0,14.654 19.0,13.0 L 19.0,8.0 C 19.0,6.346 17.654,5.0 16.0,5.0 M 17.0,13.0 C 17.0,13.551 16.552,14.0 16.0,14.0 L 7.0,14.0 C 6.448,14.0 6.0,13.551 6.0,13.0 L 6.0,8.0 C 6.0,7.449 6.448,7.0 7.0,7.0 L 16.0,7.0 C 16.552,7.0 17.0,7.449 17.0,8.0 L 17.0,13.0"/>
</svg>
