<?xml version="1.0" ?>
<svg xmlns="http://www.w3.org/2000/svg" xmlns:ev="http://www.w3.org/2001/xml-events" xmlns:xlink="http://www.w3.org/1999/xlink" baseProfile="full" enable-background="new 0 0 48 48" height="600px" version="1.1" viewBox="0 0 48 48" width="600px" x="0px" xml:space="preserve" y="0px">
	<defs/>
	<path d="M 45.0,0.0 L 15.0,0.0 C 13.346,0.0 12.0,1.346 12.0,3.0 L 12.0,12.0 C 12.0,12.553 12.447,13.0 13.0,13.0 C 13.553,13.0 14.0,12.553 14.0,12.0 L 14.0,3.0 C 14.0,2.449 14.448,2.0 15.0,2.0 L 45.0,2.0 C 45.552,2.0 46.0,2.449 46.0,3.0 L 46.0,19.0 C 46.0,19.552 45.552,20.0 45.0,20.0 L 27.0,20.0 C 26.447,20.0 26.0,20.447 26.0,21.0 C 26.0,21.553 26.447,22.0 27.0,22.0 L 29.0,22.0 L 29.0,23.0 L 26.0,23.0 C 25.447,23.0 25.0,23.447 25.0,24.0 C 25.0,24.553 25.447,25.0 26.0,25.0 L 34.0,25.0 C 34.553,25.0 35.0,24.553 35.0,24.0 C 35.0,23.447 34.553,23.0 34.0,23.0 L 31.0,23.0 L 31.0,22.0 L 45.0,22.0 C 46.653999999999996,22.0 48.0,20.654 48.0,19.0 L 48.0,3.0 C 48.0,1.346 46.654,0.0 45.0,0.0"/>
	<path d="M 1.0,46.0 C 0.44799999999999995,46.0 0.0,46.447 0.0,47.0 C 0.0,47.553 0.448,48.0 1.0,48.0 L 47.0,48.0 C 47.553,48.0 48.0,47.553 48.0,47.0 C 48.0,46.447 47.553,46.0 47.0,46.0 L 36.0,46.0 L 10.0,46.0 L 1.0,46.0"/>
	<path d="M 45.0,34.0 L 27.791,34.0 L 27.545,32.98 L 26.958000000000002,30.553999999999995 L 26.367,28.108999999999995 L 26.245,27.602999999999994 C 26.11,27.045999999999996 26.173000000000002,26.756999999999994 25.499000000000002,25.936999999999994 C 24.825000000000003,25.116999999999994 23.997,25.0 23.015,25.0 L 20.986,25.0 L 20.015,25.0 L 17.986,25.0 C 17.004,25.0 16.175,25.117 15.502,25.938 C 15.49,25.951999999999998 15.483,25.962999999999997 15.472000000000001,25.977 L 14.995000000000001,25.638 C 14.757000000000001,25.469 14.493,25.356 14.222000000000001,25.271 C 13.848,25.102 13.437,25.0 13.0,25.0 L 7.0,25.0 C 6.018,25.0 5.189,25.117 4.516,25.938 C 3.843,26.758999999999997 3.9050000000000002,27.046999999999997 3.77,27.604 L 3.648,28.11 L 3.0570000000000004,30.555 L 2.47,32.98 L 2.194,34.123999999999995 C 0.933,34.479 0.0,35.627 0.0,37.0 L 0.0,42.0 C 0.0,43.653999999999996 1.346,45.0 3.0,45.0 L 9.0,45.0 C 9.0,45.553 9.447,46.0 10.0,46.0 C 10.553,46.0 11.0,45.553 11.0,45.0 L 35.0,45.0 C 35.0,45.553 35.447,46.0 36.0,46.0 C 36.553,46.0 37.0,45.553 37.0,45.0 L 45.0,45.0 C 46.653999999999996,45.0 48.0,43.653999999999996 48.0,42.0 L 48.0,37.0 C 48.0,35.346 46.654,34.0 45.0,34.0 M 24.811,30.181 L 25.17,31.667 L 25.734,34.0 L 16.0,34.0 L 16.0,33.093 L 16.564,33.493 C 17.347,34.050000000000004 18.38,34.156 19.261,33.77 C 19.398,33.709 19.531,33.637 19.659,33.553000000000004 L 24.750999999999998,30.227000000000004 C 24.773,30.214 24.79,30.195 24.811,30.181 M 4.845,31.667 L 5.633,28.407000000000004 L 5.859,27.5 C 5.865,27.48 5.877,27.465 5.882,27.446 C 5.951,27.24 6.104,27.085 6.289,27.0 L 7.0,27.0 L 10.807,27.0 L 12.0,27.0 L 13.0,27.0 C 13.406,27.0 13.611,27.107 13.834,27.267 L 14.689,27.873 L 16.446,29.119 L 18.174000000000003,30.345 L 22.839000000000002,27.296999999999997 C 22.875000000000004,27.273999999999997 22.912000000000003,27.252999999999997 22.949,27.235999999999997 C 23.278000000000002,27.092 23.674000000000003,27.203999999999997 23.877000000000002,27.512999999999998 C 24.104000000000003,27.860999999999997 24.006000000000004,28.325999999999997 23.660000000000004,28.551 L 18.566000000000003,31.878 C 18.532000000000004,31.901 18.496000000000002,31.922 18.457,31.938 C 18.219,32.042 17.939,32.016 17.723,31.863 L 16.067,30.689 L 15.565,30.354 C 15.402999999999999,30.24 15.215,30.157999999999998 15.001,30.157999999999998 C 14.504,30.157999999999998 14.078999999999999,30.525 14.001,30.999999999999996 L 14.001,34.0 L 4.281,34.0 L 4.845,31.667 M 46.0,42.0 C 46.0,42.552 45.552,43.0 45.0,43.0 L 3.0,43.0 C 2.448,43.0 2.0,42.552 2.0,42.0 L 2.0,37.0 C 2.0,36.448 2.448,36.0 3.0,36.0 L 14.0,36.0 L 16.0,36.0 L 45.0,36.0 C 45.552,36.0 46.0,36.448 46.0,37.0 L 46.0,42.0 M 18.123,27.925 L 17.0,27.129 C 17.057,27.080000000000002 17.111,27.031000000000002 17.179,27.0 L 17.889999999999997,27.0 L 19.538999999999998,27.0 L 18.123,27.925"/>
	<path d="M 9.994,23.289 C 10.251999999999999,23.289 10.512,23.268 10.773,23.223000000000003 C 11.996,23.018000000000004 13.065999999999999,22.347 13.785,21.336000000000002 C 14.504,20.324 14.785,19.095000000000002 14.578,17.871000000000002 C 14.155999999999999,15.375000000000002 11.800999999999998,13.632000000000001 9.225999999999999,14.066000000000003 C 6.700999999999999,14.492000000000003 4.993999999999999,16.894000000000002 5.419999999999999,19.419000000000004 C 5.8,21.662 7.723,23.289 9.994,23.289 M 9.559,16.038 C 9.709,16.014 9.857,16.0 10.004,16.0 C 11.296999999999999,16.0 12.391,16.928 12.607,18.205 C 12.725,18.901 12.564,19.601 12.155,20.177999999999997 C 11.747,20.752 11.136999999999999,21.133999999999997 10.442,21.250999999999998 C 8.963000000000001,21.505999999999997 7.633,20.508 7.393000000000001,19.086 C 7.15,17.648 8.122,16.281 9.559,16.038"/>
	<path d="M 20.35,23.289 C 20.608,23.289 20.868000000000002,23.268 21.129,23.223000000000003 C 22.352,23.018000000000004 23.422,22.347 24.141000000000002,21.336000000000002 C 24.860000000000003,20.324 25.141000000000002,19.095000000000002 24.934,17.871000000000002 C 24.512,15.375000000000002 22.157,13.632000000000001 19.582,14.066000000000003 C 17.057000000000002,14.492000000000003 15.350000000000001,16.894000000000002 15.776,19.419000000000004 C 16.155,21.662 18.078,23.289 20.35,23.289 M 19.914,16.038 C 20.064,16.014 20.213,16.0 20.359,16.0 C 21.652,16.0 22.746000000000002,16.928 22.962000000000003,18.205 C 23.080000000000002,18.901 22.919000000000004,19.601 22.51,20.177999999999997 C 22.102,20.752 21.492,21.133999999999997 20.797,21.250999999999998 C 19.318,21.505999999999997 17.988,20.508 17.748,19.086 C 17.506,17.648 18.478,16.281 19.914,16.038"/>
	<path d="M 27.324,16.179 C 27.67,16.179 28.014000000000003,16.09 28.324,15.910999999999998 L 33.676,12.821999999999997 C 34.295,12.464999999999998 34.676,11.803999999999997 34.676,11.089999999999998 C 34.676,10.376 34.295,9.714999999999998 33.676,9.357999999999999 L 28.324,6.267999999999999 C 28.015,6.089 27.67,6.0 27.324,6.0 C 26.978,6.0 26.634,6.089 26.324,6.268 C 25.705000000000002,6.625 25.324,7.286 25.324,8.0 L 25.324,14.179 C 25.324,14.894 25.705000000000002,15.554 26.324,15.911 C 26.634,16.09 26.979,16.179 27.324,16.179 M 27.324,8.0 L 32.676,11.09 L 27.324,14.179 L 27.324,8.0"/>
</svg>
