<?xml version="1.0" ?>
<svg xmlns="http://www.w3.org/2000/svg" xmlns:ev="http://www.w3.org/2001/xml-events" xmlns:xlink="http://www.w3.org/1999/xlink" baseProfile="full" enable-background="new 0 0 48 48" height="600px" version="1.1" viewBox="0 0 48 48" width="600px" x="0px" xml:space="preserve" y="0px">
	<defs/>
	<path d="M 39.227,10.223 C 39.489,10.267000000000001 39.748,10.289000000000001 40.006,10.289000000000001 C 42.277,10.289000000000001 44.2,8.662 44.579,6.419000000000001 C 45.006,3.8940000000000015 43.299,1.4930000000000012 40.773,1.0660000000000016 C 38.199000000000005,0.6310000000000016 35.843,2.3750000000000018 35.42100000000001,4.871000000000002 C 35.214000000000006,6.094000000000002 35.495000000000005,7.324000000000002 36.214000000000006,8.335000000000003 C 36.934,9.347 38.004,10.017 39.227,10.223 M 37.394,5.205 C 37.609,3.928 38.703,3.0 39.996,3.0 C 40.142,3.0 40.291000000000004,3.013 40.441,3.038 C 41.878,3.2809999999999997 42.849000000000004,4.648 42.607,6.086 C 42.367,7.507000000000001 41.037,8.505 39.558,8.251000000000001 C 38.863,8.134 38.253,7.752000000000002 37.845,7.177000000000001 C 37.437,6.602 37.275,5.901 37.394,5.205"/>
	<path d="M 47.922,20.603 L 47.53,18.98 L 46.943,16.554000000000002 L 46.352,14.109000000000002 L 46.23,13.604000000000001 C 46.095,13.047 46.157999999999994,12.758000000000001 45.483999999999995,11.937000000000001 C 44.809999999999995,11.116000000000001 43.982,11.0 43.0,11.0 L 37.0,11.0 C 36.563,11.0 36.152,11.101 35.778999999999996,11.271 C 35.605999999999995,11.325000000000001 35.43899999999999,11.398000000000001 35.278,11.482000000000001 L 30.0,7.163 L 30.0,3.0 C 30.0,1.346 28.654,0.0 27.0,0.0 L 3.0,0.0 C 1.346,0.0 0.0,1.346 0.0,3.0 L 0.0,19.0 C 0.0,20.654 1.346,22.0 3.0,22.0 L 14.0,22.0 L 14.0,26.0 L 8.0,26.0 C 7.447,26.0 7.0,26.447 7.0,27.0 C 7.0,27.553 7.447,28.0 8.0,28.0 L 22.0,28.0 C 22.553,28.0 23.0,27.553 23.0,27.0 C 23.0,26.447 22.553,26.0 22.0,26.0 L 16.0,26.0 L 16.0,22.0 L 27.0,22.0 C 28.548000000000002,22.0 29.811,20.818 29.969,19.311 L 30.34,19.554 C 30.469,19.637999999999998 30.602,19.709999999999997 30.738,19.770999999999997 C 31.619,20.156999999999996 32.652,20.049999999999997 33.435,19.493999999999996 L 33.999,19.093999999999998 L 33.999,21.0 L 33.999,23.0 L 33.999,24.0 C 33.999,25.302 34.838,26.401 35.999,26.815 L 35.999,36.75 C 35.999,38.267 37.232,39.5 38.749,39.5 C 39.417,39.5 40.022000000000006,39.251 40.499,38.854 C 40.976,39.251 41.581,39.5 42.249,39.5 C 43.766000000000005,39.5 44.999,38.267 44.999,36.75 L 44.999,26.816000000000003 C 46.160000000000004,26.401000000000003 46.999,25.301000000000002 46.999,24.000000000000004 L 46.999,23.365000000000002 C 47.803,22.702 48.173,21.637 47.922,20.603 M 30.0,9.746 L 33.562,12.661000000000001 L 31.781,13.925 L 30.0,12.761 L 30.0,9.746 M 28.0,19.0 C 28.0,19.551 27.552,20.0 27.0,20.0 L 3.0,20.0 C 2.448,20.0 2.0,19.551 2.0,19.0 L 2.0,3.0 C 2.0,2.449 2.448,2.0 3.0,2.0 L 27.0,2.0 C 27.552,2.0 28.0,2.449 28.0,3.0 L 28.0,5.526 L 27.633,5.226 C 27.205,4.877 26.575,4.939 26.226,5.367 C 25.875999999999998,5.795 25.939999999999998,6.425 26.368,6.774 L 28.0,8.11 L 28.0,11.485 C 27.95,11.459999999999999 27.904,11.429 27.854,11.405999999999999 C 26.619,10.863 25.186,11.291999999999998 24.45,12.421999999999999 C 24.33,12.604999999999999 24.242,12.799999999999999 24.169,13.001 L 4.0,13.001 C 3.447,13.001 3.0,13.449 3.0,14.001 C 3.0,14.552999999999999 3.447,15.001 4.0,15.001 L 24.22,15.001 C 24.384,15.389 24.642999999999997,15.725 24.964,16.000999999999998 L 4.0,16.000999999999998 C 3.447,16.000999999999998 3.0,16.448999999999998 3.0,17.000999999999998 C 3.0,17.552999999999997 3.447,18.000999999999998 4.0,18.000999999999998 L 25.0,18.000999999999998 C 25.553,18.000999999999998 26.0,17.552999999999997 26.0,17.000999999999998 C 26.0,16.886 25.971,16.779999999999998 25.935,16.676999999999996 L 28.0,18.025 L 28.0,19.0 M 39.5,36.75 C 39.5,37.164 39.164,37.5 38.75,37.5 C 38.336,37.5 38.0,37.164 38.0,36.75 L 38.0,27.0 L 39.5,27.0 L 39.5,36.75 M 43.0,36.75 C 43.0,37.164 42.664,37.5 42.25,37.5 C 41.836,37.5 41.5,37.164 41.5,36.75 L 41.5,27.0 L 43.0,27.0 L 43.0,36.75 M 45.0,24.0 C 45.0,24.551 44.552,25.0 44.0,25.0 L 42.25,25.0 L 38.75,25.0 L 37.0,25.0 C 36.448,25.0 36.0,24.551 36.0,24.0 L 36.0,23.0 L 36.0,21.0 L 36.0,17.0 L 35.968,17.0 C 35.89,16.526 35.49700000000001,16.158 35.0,16.158 C 34.785,16.158 34.598,16.240000000000002 34.436,16.355 L 34.422,16.344 L 32.276999999999994,17.864 C 32.059999999999995,18.017 31.780999999999995,18.044 31.542999999999992,17.939 C 31.50399999999999,17.923000000000002 31.467999999999993,17.903 31.43399999999999,17.879 L 30.0,16.942 L 28.0,15.636 L 26.34,14.552 C 25.994,14.327 25.897,13.862 26.123,13.514 C 26.326,13.203999999999999 26.722,13.093 27.051000000000002,13.237 C 27.088,13.254 27.125000000000004,13.274000000000001 27.161,13.298 L 28.0,13.845 L 30.0,15.152000000000001 L 31.826,16.345000000000002 L 35.168,13.975000000000001 L 36.717999999999996,15.243000000000002 C 36.611999999999995,15.507000000000001 36.532,15.781000000000002 36.513999999999996,16.068 C 36.504,16.211000000000002 36.498,16.354000000000003 36.510999999999996,16.499000000000002 C 36.577999999999996,17.231 36.925999999999995,17.893 37.489999999999995,18.363000000000003 L 43.30199999999999,23.208000000000002 L 43.48899999999999,23.363000000000003 C 43.91799999999999,23.720000000000002 44.44699999999999,23.927000000000003 44.99999999999999,23.978 L 44.99999999999999,24.0 L 45.0,24.0 M 45.646,21.887 C 45.542,21.952 45.424,21.984 45.305,21.992 C 45.287,21.994 45.268,22.0 45.25,22.0 C 45.078,22.0 44.908,21.941 44.77,21.826 L 43.636,20.881 L 38.77,16.826 C 38.483000000000004,16.587 38.433,16.183 38.619,15.872 C 38.64,15.838 38.648,15.801 38.675,15.77 C 38.823,15.591999999999999 39.035999999999994,15.5 39.251,15.5 C 39.421,15.5 39.591,15.557 39.73,15.673 L 41.398999999999994,17.064 L 42.196999999999996,17.729 L 42.199,17.730999999999998 C 42.303,17.808 42.425,17.865 42.559,17.897 C 42.954,17.99 43.346,17.833 43.579,17.529999999999998 C 43.663000000000004,17.420999999999996 43.729,17.295999999999996 43.763,17.153999999999996 C 43.873999999999995,16.679999999999996 43.617999999999995,16.220999999999997 43.19,16.028999999999996 L 42.568,15.509999999999996 L 40.571999999999996,13.846999999999996 C 40.169999999999995,13.624999999999996 39.717,13.500999999999996 39.251999999999995,13.500999999999996 C 39.11899999999999,13.500999999999996 38.989999999999995,13.524999999999995 38.858999999999995,13.543999999999995 C 38.58899999999999,13.582999999999995 38.33299999999999,13.668999999999995 38.087999999999994,13.779999999999996 L 37.135,13.0 L 38.0,13.0 L 39.193,13.0 L 43.0,13.0 L 43.711,13.0 C 43.897,13.085 44.049,13.24 44.117,13.446 C 44.123,13.465 44.135,13.48 44.14,13.5 L 44.367,14.407 L 45.154999999999994,17.667 L 45.977999999999994,21.074 C 46.055,21.388 45.92,21.716 45.646,21.887"/>
	<path d="M 4.0,6.0 L 12.0,6.0 C 12.553,6.0 13.0,5.552 13.0,5.0 C 13.0,4.448 12.553,4.0 12.0,4.0 L 4.0,4.0 C 3.447,4.0 3.0,4.448 3.0,5.0 C 3.0,5.552 3.447,6.0 4.0,6.0"/>
	<path d="M 4.0,9.0 L 12.0,9.0 C 12.553,9.0 13.0,8.552 13.0,8.0 C 13.0,7.448 12.553,7.0 12.0,7.0 L 4.0,7.0 C 3.447,7.0 3.0,7.448 3.0,8.0 C 3.0,8.552 3.447,9.0 4.0,9.0"/>
	<path d="M 4.0,12.0 L 12.0,12.0 C 12.553,12.0 13.0,11.552 13.0,11.0 C 13.0,10.448 12.553,10.0 12.0,10.0 L 4.0,10.0 C 3.447,10.0 3.0,10.448 3.0,11.0 C 3.0,11.552 3.447,12.0 4.0,12.0"/>
	<path d="M 17.0,12.0 L 23.0,12.0 C 24.654,12.0 26.0,10.654 26.0,9.0 L 26.0,7.0 C 26.0,5.346 24.654,4.0 23.0,4.0 L 17.0,4.0 C 15.346,4.0 14.0,5.346 14.0,7.0 L 14.0,9.0 C 14.0,10.654 15.346,12.0 17.0,12.0 M 16.0,7.0 C 16.0,6.449 16.448,6.0 17.0,6.0 L 23.0,6.0 C 23.552,6.0 24.0,6.449 24.0,7.0 L 24.0,9.0 C 24.0,9.551 23.552,10.0 23.0,10.0 L 17.0,10.0 C 16.448,10.0 16.0,9.551 16.0,9.0 L 16.0,7.0"/>
	<path d="M 7.805,38.999 C 10.285,38.985 12.291,36.956 12.28,34.474000000000004 C 12.264,31.994000000000003 10.235,29.986000000000004 7.754999999999999,30.000000000000004 C 5.272999999999999,30.014000000000003 3.264999999999999,32.044000000000004 3.2799999999999994,34.524 C 3.291,37.006 5.322,39.014 7.805,38.999 M 7.764,32.0 C 9.143,31.992 10.27,33.107 10.278,34.485 C 10.286,35.865 9.173,36.991 7.7940000000000005,36.999 C 6.413,37.007000000000005 5.2860000000000005,35.893 5.280000000000001,34.513000000000005 C 5.27,33.135 6.385,32.007 7.764,32.0"/>
	<path d="M 23.246,38.999 C 25.726,38.985 27.733999999999998,36.956 27.720999999999997,34.474000000000004 C 27.705,31.994000000000003 25.675999999999995,29.986000000000004 23.195999999999998,30.000000000000004 C 20.715999999999998,30.014000000000003 18.705999999999996,32.044000000000004 18.720999999999997,34.524 C 18.734,37.006 20.764,39.014 23.246,38.999 M 23.207,32.0 C 24.586000000000002,31.992 25.713,33.107 25.721,34.485 C 25.729,35.865 24.614,36.991 23.237000000000002,36.999 C 21.856,37.007000000000005 20.729000000000003,35.893 20.721000000000004,34.513000000000005 C 20.713,33.135 21.828,32.007 23.207,32.0"/>
	<path d="M 27.223,40.0 L 19.223,40.0 C 17.596999999999998,40.0 16.269,41.301 16.224,42.916 L 15.5,47.624 L 14.78,42.916000000000004 C 14.735,41.301 13.407,40.0 11.781,40.0 L 3.7810000000000006,40.0 C 2.1550000000000007,40.0 0.8270000000000004,41.301 0.7820000000000005,42.916 L 0.0,48.0 L 2.023,48.0 L 2.769,43.152 L 2.781,43.0 C 2.781,42.449 3.229,42.0 3.781,42.0 L 11.781,42.0 C 12.333,42.0 12.781,42.449 12.781,43.0 L 13.546000000000001,48.0 L 15.442,48.0 L 15.557,48.0 L 17.464,48.0 L 18.209999999999997,43.152 L 18.223,43.0 C 18.223,42.449 18.671,42.0 19.223,42.0 L 27.223,42.0 C 27.775,42.0 28.223,42.449 28.223,43.0 L 28.988,48.0 L 31.0,48.0 L 30.222,42.916 C 30.177,41.301 28.849,40.0 27.223,40.0"/>
</svg>
