<?xml version="1.0" ?>
<svg xmlns="http://www.w3.org/2000/svg" xmlns:ev="http://www.w3.org/2001/xml-events" xmlns:xlink="http://www.w3.org/1999/xlink" baseProfile="full" height="401px" style="enable-background:new 0 0 100 66.667;" version="1.1" viewBox="0 0 100 66.667" width="600px" x="0px" xml:space="preserve" y="0px">
	<defs/>
	<path d="M 51.326,55.896 C 50.942,29.25 46.627,17.779000000000003 33.333,17.779000000000003 C 20.038999999999994,17.779000000000003 15.725,29.25 15.34,55.896 C 8.71,50.601 4.445,42.462 4.445,33.333 C 4.445,17.403 17.403,4.444999999999997 33.333,4.444999999999997 C 49.260999999999996,4.444999999999997 62.223,17.403 62.223,33.333 C 62.224,42.462 57.959,50.601 51.326,55.896 M 33.291,44.422 C 19.919999999999995,44.422 21.897999999999996,28.177999999999997 21.897999999999996,28.177999999999997 C 21.897999999999996,28.177999999999997 24.180999999999997,23.031 33.291,23.031 C 42.406,23.031 44.78,28.177999999999997 44.78,28.177999999999997 C 44.78,28.177999999999997 46.657,44.422 33.291,44.422 M 33.333,0.0 C 14.954,0.0 0.0,14.956 0.0,33.333 C 0.0,51.715 14.954,66.667 33.333,66.667 C 51.712,66.667 66.666,51.715 66.666,33.333 C 66.667,14.956 51.713,0.0 33.333,0.0" fill="#231F20"/>
	<path d="M 91.111,22.223 L 85.421,22.223 L 92.533,31.112 L 77.777,31.112 L 77.777,35.557 L 92.531,35.557 L 85.421,44.445 L 91.111,44.445 L 100.0,33.331 L 91.111,22.223" fill="#231F20" points="91.111,22.223 85.421,22.223 92.533,31.112 77.777,31.112 77.777,35.557 92.531,35.557   85.421,44.445 91.111,44.445 100,33.331 "/>
</svg>
