<?xml version="1.0" ?>
<svg xmlns="http://www.w3.org/2000/svg" xmlns:ev="http://www.w3.org/2001/xml-events" xmlns:xlink="http://www.w3.org/1999/xlink" baseProfile="full" height="600px" style="enable-background:new 0 0 66.667 100;" version="1.1" viewBox="0 0 66.667 100" width="401px" x="0px" xml:space="preserve" y="0px">
	<defs/>
	<path d="M 51.326,89.229 C 50.942,62.583 46.627,51.111 33.333,51.111 C 20.04,51.111 15.724999999999998,62.583 15.34,89.229 C 8.71,83.934 4.445,75.796 4.445,66.667 C 4.445,50.736000000000004 17.403,37.778999999999996 33.333,37.778999999999996 C 49.262,37.778999999999996 62.221999999999994,50.736999999999995 62.221999999999994,66.667 C 62.222,75.796 57.957,83.934 51.326,89.229 M 33.291,77.755 C 19.919999999999995,77.755 21.897,61.512 21.897,61.512 C 21.897,61.512 24.18,56.365 33.291,56.365 C 42.405,56.365 44.778999999999996,61.512 44.778999999999996,61.512 C 44.778999999999996,61.512 46.657,77.755 33.291,77.755 M 33.333,33.333 C 14.954,33.333 0.0,48.289 0.0,66.667 C 0.0,85.049 14.954,100.0 33.333,100.0 C 51.712999999999994,100.0 66.667,85.049 66.667,66.667 C 66.667,48.289 51.713,33.333 33.333,33.333" fill="#231F20"/>
	<path d="M 22.223,8.891 L 22.223,14.583 L 31.112,7.469 L 31.112,22.223 L 35.555,22.223 L 35.555,7.471 L 44.443,14.583 L 44.443,8.891 L 33.331,0.0 L 22.223,8.891" fill="#231F20" points="22.223,8.891 22.223,14.583 31.112,7.469 31.112,22.223 35.555,22.223 35.555,7.471   44.443,14.583 44.443,8.891 33.331,0 "/>
</svg>
