<?xml version="1.0" ?>
<svg xmlns="http://www.w3.org/2000/svg" xmlns:ev="http://www.w3.org/2001/xml-events" xmlns:xlink="http://www.w3.org/1999/xlink" baseProfile="full" height="600px" style="enable-background:new 0 0 100 100;" version="1.1" viewBox="0 0 100 100" width="600px" x="0px" xml:space="preserve" y="0px">
	<defs/>
	<path d="M 63.495,66.921 C 63.205,46.936 59.97,38.333 50.0,38.333 C 40.027,38.333 36.792,46.936 36.505,66.92099999999999 C 31.531,62.947 28.333,56.844 28.333,50.0 C 28.333,38.052 38.05,28.334 50.0,28.334 C 61.95,28.334 71.668,38.052 71.668,50.0 C 71.668,56.844 68.466,62.947 63.495,66.921 M 49.966,58.313 C 39.941,58.313 41.421,46.13 41.421,46.13 C 41.421,46.13 43.133,42.27 49.966,42.27 C 56.802,42.27 58.581,46.13 58.581,46.13 C 58.581,46.13 59.991,58.313 49.966,58.313 M 50.0,25.0 C 36.212,25.0 25.0,36.214 25.0,50.0 C 25.0,63.783 36.212,75.0 50.0,75.0 C 63.785,75.0 75.0,63.783 75.0,50.0 C 75.0,36.214 63.785,25.0 50.0,25.0" fill="#231F20"/>
	<path d="M 6.665,58.333 L 10.932,58.333 L 5.597,51.666 L 16.666,51.666 L 16.666,48.334 L 5.603,48.334 L 10.932,41.667 L 6.665,41.667 L 0.0,50.001 L 6.665,58.333" fill="#231F20" points="6.665,58.333 10.932,58.333 5.597,51.666 16.666,51.666 16.666,48.334 5.603,48.334   10.932,41.667 6.665,41.667 0,50.001 "/>
	<path d="M 41.666,6.667 L 41.666,10.936 L 48.334,5.599 L 48.334,16.667 L 51.666,16.667 L 51.666,5.602 L 58.331,10.936 L 58.331,6.667 L 49.994,0.0 L 41.666,6.667" fill="#231F20" points="41.666,6.667 41.666,10.936 48.334,5.599 48.334,16.667 51.666,16.667 51.666,5.602   58.331,10.936 58.331,6.667 49.994,0 "/>
	<path d="M 93.332,41.667 L 89.062,41.667 L 94.4,48.334 L 83.331,48.334 L 83.331,51.666 L 94.396,51.666 L 89.062,58.333 L 93.332,58.333 L 100.0,49.999 L 93.332,41.667" fill="#231F20" points="93.332,41.667 89.062,41.667 94.4,48.334 83.331,48.334 83.331,51.666 94.396,51.666   89.062,58.333 93.332,58.333 100,49.999 "/>
	<path d="M 58.331,93.333 L 58.331,89.062 L 51.666,94.398 L 51.666,83.333 L 48.334,83.333 L 48.334,94.396 L 41.666,89.062 L 41.666,93.333 L 50.0,100.0 L 58.331,93.333" fill="#231F20" points="58.331,93.333 58.331,89.062 51.666,94.398 51.666,83.333 48.334,83.333 48.334,94.396   41.666,89.062 41.666,93.333 50,100 "/>
</svg>
