<?xml version="1.0" ?>
<svg xmlns="http://www.w3.org/2000/svg" xmlns:ev="http://www.w3.org/2001/xml-events" xmlns:xlink="http://www.w3.org/1999/xlink" baseProfile="full" height="600px" style="enable-background:new 0 0 100 100;" version="1.1" viewBox="0 0 100 100" width="600px" x="0px" xml:space="preserve" y="0px">
	<defs/>
	<path d="M 30.556,51.389 C 29.788,51.389 29.166,50.767 29.166,50.0 C 29.166,38.513 38.513,29.167 50.0,29.167 C 61.487,29.167 70.833,38.512 70.833,50.0 C 70.833,50.767 70.212,51.388 69.444,51.388 C 68.676,51.388 68.056,50.766 68.056,50.0 C 68.056,40.045 59.955,31.945 50.001,31.945 C 40.045,31.945 31.944999999999997,40.045 31.944999999999997,50.001000000000005 C 31.944,50.768 31.323,51.389 30.556,51.389" fill="#231F20"/>
	<path d="M 50.0,40.278 C 41.272,40.278 38.730000000000004,48.164 38.730000000000004,66.673 L 38.730000000000004,67.505 C 41.981,69.603 45.844,70.83399999999999 50.0,70.83399999999999 C 54.155,70.83399999999999 58.019,69.603 61.269999999999996,67.505 L 61.269999999999996,66.673 C 61.27,48.165 58.728,40.278 50.0,40.278 M 49.974,56.929 C 41.616,56.929 42.852999999999994,46.776 42.852999999999994,46.776 C 42.852999999999994,46.776 44.27799999999999,43.56 49.974,43.56 C 55.669,43.56 57.153999999999996,46.776 57.153999999999996,46.776 C 57.153999999999996,46.776 58.327,56.929 49.974,56.929" fill="#231F20"/>
	<path d="M 86.11,43.055 L 82.553,43.055 L 86.999,48.611 L 77.776,48.611 L 77.776,51.389 L 86.998,51.389 L 82.553,56.945 L 86.11,56.945 L 91.666,50.0 L 86.11,43.055" fill="#231F20" points="86.11,43.055 82.553,43.055 86.999,48.611 77.776,48.611 77.776,51.389 86.998,51.389    82.553,56.945 86.11,56.945 91.666,50  "/>
	<path d="M 13.888,43.055 L 17.446,43.055 L 13.0,48.611 L 22.222,48.611 L 22.222,51.389 L 13.002,51.389 L 17.446,56.945 L 13.888,56.945 L 8.333,50.0 L 13.888,43.055" fill="#231F20" points="13.888,43.055 17.446,43.055 13,48.611 22.222,48.611 22.222,51.389 13.002,51.389    17.446,56.945 13.888,56.945 8.333,50  "/>
	<path d="M 56.943,86.11 L 56.943,82.554 L 51.388,86.999 L 51.388,77.778 L 48.611,77.778 L 48.611,86.998 L 43.055,82.554 L 43.055,86.11 L 50.0,91.666 L 56.943,86.11" fill="#231F20" points="56.943,86.11 56.943,82.554 51.388,86.999 51.388,77.778 48.611,77.778 48.611,86.998    43.055,82.554 43.055,86.11 50,91.666  "/>
	<path d="M 56.943,13.889 L 56.943,17.447 L 51.388,13.0 L 51.388,22.222 L 48.611,22.222 L 48.611,13.002 L 43.055,17.447 L 43.055,13.889 L 50.0,8.334 L 56.943,13.889" fill="#231F20" points="56.943,13.889 56.943,17.447 51.388,13 51.388,22.222 48.611,22.222 48.611,13.002    43.055,17.447 43.055,13.889 50,8.334  "/>
	<path d="M 96.448,50.0 L 90.887,56.945 L 94.443,56.945 L 100.0,50.0 L 94.443,43.055 L 90.887,43.055 L 96.448,50.0" fill="#231F20" points="96.448,50 90.887,56.945 94.443,56.945 100,50 94.443,43.055 90.887,43.055   "/>
	<path d="M 3.55,50.0 L 9.113,56.945 L 5.556,56.945 L 0.0,50.0 L 5.556,43.055 L 9.113,43.055 L 3.55,50.0" fill="#231F20" points="3.55,50 9.113,56.945 5.556,56.945 0,50 5.556,43.055 9.113,43.055 "/>
	<path d="M 50.0,96.45 L 43.055,90.887 L 43.055,94.444 L 50.0,100.0 L 56.943,94.444 L 56.943,90.887 L 50.0,96.45" fill="#231F20" points="50,96.45 43.055,90.887 43.055,94.444 50,100 56.943,94.444 56.943,90.887 "/>
	<path d="M 50.0,3.551 L 43.055,9.113 L 43.055,5.556 L 50.0,0.0 L 56.943,5.556 L 56.943,9.113 L 50.0,3.551" fill="#231F20" points="50,3.551 43.055,9.113 43.055,5.556 50,0 56.943,5.556 56.943,9.113 "/>
</svg>
