<?xml version="1.0" ?>
<svg xmlns="http://www.w3.org/2000/svg" xmlns:ev="http://www.w3.org/2001/xml-events" xmlns:xlink="http://www.w3.org/1999/xlink" baseProfile="full" height="600px" style="enable-background:new 0 0 90.251 100;" version="1.1" viewBox="0 0 90.251 100" width="542px" x="0px" xml:space="preserve" y="0px">
	<defs/>
	<path d="M 32.068,64.095 C 31.828,47.447 29.130999999999997,40.28 20.826999999999998,40.28 C 12.519999999999998,40.28 9.823999999999998,47.447 9.584999999999997,64.095 C 5.440999999999997,60.788 2.775999999999997,55.702 2.775999999999997,49.998 C 2.775999999999997,40.046 10.871999999999996,31.948999999999998 20.826999999999995,31.948999999999998 C 30.778999999999996,31.948999999999998 38.876999999999995,40.046 38.876999999999995,49.998 C 38.877,55.703 36.212,60.789 32.068,64.095 M 20.801,56.927 C 12.444999999999999,56.927 13.681999999999999,46.778 13.681999999999999,46.778 C 13.681999999999999,46.778 15.107,43.562 20.801,43.562 C 26.494,43.562 27.979,46.778 27.979,46.778 C 27.979,46.778 29.151,56.927 20.801,56.927 M 20.827,29.173 C 9.343,29.173 0.0,38.515 0.0,49.999 C 0.0,61.486000000000004 9.343,70.827 20.827,70.827 C 32.31,70.827 41.653000000000006,61.486 41.653000000000006,49.998999999999995 C 41.653,38.515 32.31,29.173 20.827,29.173" fill="#231F20"/>
	<path d="M 33.866,89.091 L 30.965,86.80799999999999 L 31.169,94.148 C 25.613,90.58699999999999 22.19,84.395 22.19,77.771 L 19.413,77.771 C 19.413,85.19500000000001 23.168,92.148 29.299,96.25 L 22.375999999999998,97.719 L 25.272,100.0 L 34.111999999999995,98.125 L 33.866,89.091" fill="#231F20"/>
	<path d="M 80.665,64.095 C 80.42500000000001,47.447 77.72800000000001,40.28 69.424,40.28 C 61.117000000000004,40.28 58.42100000000001,47.447 58.182,64.095 C 54.037000000000006,60.788 51.373000000000005,55.702 51.373000000000005,49.998 C 51.373000000000005,40.046 59.46900000000001,31.948999999999998 69.424,31.948999999999998 C 79.376,31.948999999999998 87.474,40.046 87.474,49.998 C 87.474,55.703 84.81,60.789 80.665,64.095 M 69.397,56.927 C 61.043000000000006,56.927 62.278000000000006,46.778 62.278000000000006,46.778 C 62.278000000000006,46.778 63.703,43.562 69.397,43.562 C 75.09,43.562 76.575,46.778 76.575,46.778 C 76.575,46.778 77.748,56.927 69.397,56.927 M 69.424,29.173 C 57.940000000000005,29.173 48.59700000000001,38.515 48.59700000000001,49.998999999999995 C 48.59700000000001,61.486 57.94000000000001,70.827 69.424,70.827 C 80.906,70.827 90.251,61.486 90.251,49.998999999999995 C 90.251,38.515 80.906,29.173 69.424,29.173" fill="#231F20"/>
	<path d="M 60.926,3.75 L 67.849,2.283 L 64.951,0.0 L 56.111999999999995,1.875 L 56.358999999999995,10.908 L 59.25899999999999,13.190999999999999 L 59.05499999999999,5.853999999999999 C 64.612,9.411999999999999 68.03399999999999,15.604 68.03399999999999,22.23 L 70.81099999999999,22.23 C 70.811,14.806 67.057,7.851 60.926,3.75" fill="#231F20"/>
</svg>
