<?xml version="1.0" ?>
<svg xmlns="http://www.w3.org/2000/svg" xmlns:ev="http://www.w3.org/2001/xml-events" xmlns:xlink="http://www.w3.org/1999/xlink" baseProfile="full" height="600px" style="enable-background:new 0 0 99.997 100;" version="1.1" viewBox="0 0 99.997 100" width="600px" x="0px" xml:space="preserve" y="0px">
	<defs/>
	<path d="M 76.986,83.844 C 76.41300000000001,43.87199999999999 69.94,26.665999999999997 49.997,26.665999999999997 C 30.059,26.665999999999997 23.587,43.872 23.01,83.844 C 13.062,75.897 6.665,63.69 6.665,50.0 C 6.665,26.102 26.102,6.664999999999999 49.997,6.664999999999999 C 73.892,6.664999999999999 93.332,26.102 93.332,50.0 C 93.332,63.69 86.936,75.897 76.986,83.844 M 49.936,66.629 C 29.877,66.629 32.847,42.26400000000001 32.847,42.26400000000001 C 32.847,42.26400000000001 36.271,34.543000000000006 49.936,34.543000000000006 C 63.605000000000004,34.543000000000006 67.169,42.26400000000001 67.169,42.26400000000001 C 67.169,42.26400000000001 69.986,66.629 49.936,66.629 M 49.997,0.0 C 22.431,0.0 0.0,22.431 0.0,50.0 C 0.0,77.569 22.431,100.0 49.997,100.0 C 77.566,100.0 99.997,77.569 99.997,50.0 C 99.997,22.430999999999997 77.566,0.0 49.997,0.0" fill="#231F20"/>
</svg>
