<?xml version="1.0" ?>
<svg xmlns="http://www.w3.org/2000/svg" xmlns:ev="http://www.w3.org/2001/xml-events" xmlns:xlink="http://www.w3.org/1999/xlink" baseProfile="full" enable-background="new 0 0 45.278 100" height="600px" version="1.1" viewBox="0 0 45.278 100" width="272px" x="0px" xml:space="preserve" y="0px">
	<defs/>
	<path d="M 2.264,94.0 L 2.514,86.0 L 4.764,85.5 L 5.264,68.75 L 6.764,65.5 L 36.514,5.0 L 38.264,6.0 L 38.264,8.0 L 39.014,10.5 L 40.514,8.0 L 43.014,9.0 L 35.014,24.25 L 33.514,40.5 L 36.264,47.5 L 30.264,54.0 L 31.014,57.0 L 18.514,77.25 L 20.264,81.25 L 17.764,90.0 L 10.764,91.0 L 5.264,95.0 L 2.264,94.0" points="2.264,94 2.514,86 4.764,85.5 5.264,68.75 6.764,65.5 36.514,5 38.264,6 38.264,8 39.014,10.5 40.514,8 43.014,9   35.014,24.25 33.514,40.5 36.264,47.5 30.264,54 31.014,57 18.514,77.25 20.264,81.25 17.764,90 10.764,91 5.264,95 "/>
</svg>
