<?xml version="1.0" ?>
<svg xmlns="http://www.w3.org/2000/svg" xmlns:ev="http://www.w3.org/2001/xml-events" xmlns:xlink="http://www.w3.org/1999/xlink" baseProfile="full" height="466px" style="enable-background:new 0 0 100 77.584;" version="1.1" viewBox="0 0 100 77.584" width="600px" x="0px" xml:space="preserve" y="0px">
	<defs/>
	<path d="M 25.83,60.325 C 15.452999999999998,60.325 16.991,47.721000000000004 16.991,47.721000000000004 C 16.991,47.721000000000004 18.759,43.729000000000006 25.83,43.729000000000006 C 32.902,43.729000000000006 34.742,47.721000000000004 34.742,47.721000000000004 C 34.742,47.721000000000004 36.201,60.325 25.83,60.325 M 25.862,39.655 C 15.027999999999999,39.655 11.869999999999997,49.445 11.869999999999997,72.42099999999999 L 11.869999999999997,73.455 C 15.907999999999998,76.05799999999999 20.699999999999996,77.584 25.862,77.584 C 31.020999999999997,77.584 35.813,76.058 39.851,73.455 L 39.851,72.42099999999999 C 39.851,49.444 36.696,39.655 25.862,39.655" fill="#231F20"/>
	<path d="M 74.138,25.862 C 63.12700000000001,25.862 53.71900000000001,32.795 50.0,42.515 C 46.281,32.795 36.876,25.862000000000002 25.862,25.862000000000002 C 11.602,25.862 0.0,37.464 0.0,51.724 C 0.0,52.674 0.771,53.44799999999999 1.724,53.44799999999999 C 2.674,53.44799999999999 3.448,52.67499999999999 3.448,51.724 C 3.448,39.363 13.506,29.308999999999997 25.863,29.308999999999997 C 38.222,29.308999999999997 48.278,39.363 48.278,51.721 L 48.278,51.724 C 48.278,52.674 49.048,53.44799999999999 50.001999999999995,53.44799999999999 C 50.952,53.44799999999999 51.72599999999999,52.67499999999999 51.72599999999999,51.724 C 51.72599999999999,39.363 61.78099999999999,29.308999999999997 74.13999999999999,29.308999999999997 C 86.49599999999998,29.308999999999997 96.55499999999998,39.363 96.55499999999998,51.721 C 96.55499999999998,52.672999999999995 97.32599999999998,53.446999999999996 98.27899999999998,53.446999999999996 C 99.22599999999998,53.446999999999996 100.00299999999999,52.67399999999999 100.00299999999999,51.721 C 100.0,37.464 88.395,25.862 74.138,25.862" fill="#231F20"/>
	<path d="M 74.104,60.325 C 63.727,60.325 65.264,47.721000000000004 65.264,47.721000000000004 C 65.264,47.721000000000004 67.035,43.729000000000006 74.104,43.729000000000006 C 81.175,43.729000000000006 83.016,47.721000000000004 83.016,47.721000000000004 C 83.016,47.721000000000004 84.474,60.325 74.104,60.325 M 74.138,39.655 C 63.304,39.655 60.147000000000006,49.445 60.147000000000006,72.42099999999999 L 60.147000000000006,73.455 C 64.18100000000001,76.05799999999999 68.974,77.584 74.138,77.584 C 79.29700000000001,77.584 84.089,76.058 88.123,73.455 L 88.123,72.42099999999999 C 88.123,49.444 84.97,39.655 74.138,39.655" fill="#231F20"/>
	<path d="M 41.381,6.896 L 41.381,11.314 L 48.276,5.793 L 48.276,17.24 L 51.724,17.24 L 51.724,5.794 L 58.619,11.314 L 58.619,6.896 L 49.997,0.0 L 41.381,6.896" fill="#231F20" points="41.381,6.896 41.381,11.314 48.276,5.793 48.276,17.24 51.724,17.24 51.724,5.794   58.619,11.314 58.619,6.896 49.997,0 "/>
</svg>
