<?xml version="1.0" ?>
<svg xmlns="http://www.w3.org/2000/svg" xmlns:ev="http://www.w3.org/2001/xml-events" xmlns:xlink="http://www.w3.org/1999/xlink" baseProfile="full" enable-background="new 0 0 100 100" height="600px" version="1.1" viewBox="0 0 100 100" width="428px" x="0px" xml:space="preserve" y="0px">
	<defs/>
	<path d="M 69.771,14.689 C 69.771,18.568 66.627,21.713 62.749,21.713 L 62.749,37.47 C 62.749,37.47 57.957,33.498 50.0,33.498 C 42.044,33.498 37.251,37.47 37.251,37.47 L 37.251,22.893 C 33.372,22.893 30.229,19.748 30.229,15.869 C 30.229,12.184 33.065,9.161999999999999 36.675,8.870000000000001 C 37.82,6.548000000000001 40.211,4.9510000000000005 42.976,4.9510000000000005 C 43.86,4.9510000000000005 44.705,5.115 45.485,5.412000000000001 C 46.706,4.388 48.281,3.771 50.0,3.771 C 51.719,3.771 53.293,4.389 54.514,5.412 C 55.293000000000006,5.115 56.139,4.951 57.024,4.951 C 59.28,4.951 61.288000000000004,6.015 62.573,7.667999999999999 C 62.632,7.6659999999999995 62.691,7.6659999999999995 62.749,7.6659999999999995 C 66.627,7.666 69.771,10.81 69.771,14.689"/>
	<path d="M 49.5,77.484 L 36.852000000000004,71.33699999999999 L 35.011,74.74 L 27.513,74.74 C 20.994,74.74 15.709000000000001,80.02499999999999 15.709000000000001,86.544 L 15.709000000000001,100.0 L 37.124,100.0 L 37.124,83.563 L 49.5,77.484"/>
	<path d="M 72.485,74.74 L 64.987,74.74 L 63.367,71.785 L 38.125,84.187 L 38.125,100.0 L 84.289,100.0 L 84.289,86.544 C 84.289,80.025 79.005,74.74 72.485,74.74 M 40.508,99.446 C 39.654,99.446 38.963,98.755 38.963,97.902 C 38.963,97.049 39.654,96.358 40.508,96.358 C 41.361000000000004,96.358 42.052,97.049 42.052,97.902 C 42.052,98.755 41.36,99.446 40.508,99.446 M 40.508,87.633 C 39.654,87.633 38.963,86.942 38.963,86.089 C 38.963,85.236 39.654,84.545 40.508,84.545 C 41.361000000000004,84.545 42.052,85.236 42.052,86.089 C 42.052,86.942 41.36,87.633 40.508,87.633 M 60.67,99.446 C 59.816,99.446 59.125,98.755 59.125,97.902 C 59.125,97.049 59.816,96.358 60.67,96.358 C 61.523,96.358 62.214,97.049 62.214,97.902 C 62.214,98.755 61.522,99.446 60.67,99.446 M 60.67,87.633 C 59.816,87.633 59.125,86.942 59.125,86.089 C 59.125,85.236 59.816,84.545 60.67,84.545 C 61.523,84.545 62.214,85.236 62.214,86.089 C 62.214,86.942 61.522,87.633 60.67,87.633"/>
	<path cx="49.999" cy="53.877" d="M 32.884,53.877 A 17.115000000000002,17.115000000000002 0.0 1,0 67.114,53.877 A 17.115,17.115 0.0 1,0 32.88400000000001,53.877" r="17.115"/>
</svg>
