<?xml version="1.0" ?>
<svg xmlns="http://www.w3.org/2000/svg" xmlns:ev="http://www.w3.org/2001/xml-events" xmlns:graph="http://ns.adobe.com/Graphs/1.0/" xmlns:i="http://ns.adobe.com/AdobeIllustrator/10.0/" xmlns:x="http://ns.adobe.com/Extensibility/1.0/" xmlns:xlink="http://www.w3.org/1999/xlink" baseProfile="full" enable-background="new 0 0 100 100" height="600px" version="1.1" viewBox="0 0 100 100" width="517px" x="0px" xml:space="preserve" y="0px">
	<defs/>
	<path d="M 75.121,60.074 C 71.142,68.15899999999999 67.90299999999999,77.239 66.339,82.559 C 65.452,85.574 62.637,87.67999999999999 59.495,87.67999999999999 C 59.422,87.67999999999999 59.348,87.67899999999999 59.282999999999994,87.67699999999999 C 56.041999999999994,87.58099999999999 53.269999999999996,85.30799999999999 52.541999999999994,82.14899999999999 C 49.965999999999994,70.98399999999998 44.452999999999996,66.701 43.833,66.24899999999998 C 43.772999999999996,66.20499999999998 43.684999999999995,66.13799999999998 43.628,66.09099999999998 C 40.593,63.59299999999998 40.152,59.08999999999998 42.645,56.05299999999998 C 44.006,54.39499999999998 46.017,53.444999999999986 48.163000000000004,53.444999999999986 C 49.761,53.444999999999986 51.324000000000005,53.98899999999998 52.577000000000005,54.97699999999999 L 52.59100000000001,54.98699999999999 C 54.59300000000001,56.36199999999999 56.63300000000001,58.59899999999999 58.69200000000001,61.67199999999999 C 62.84700000000001,51.74199999999999 68.373,41.42199999999999 75.12400000000001,35.09899999999999 L 73.56500000000001,17.68399999999999 L 59.699,17.68399999999999 C 59.394,10.63 53.595,5.0 46.465,5.0 C 39.334,5.0 33.536,10.631 33.231,17.685000000000002 L 18.214,17.685000000000002 L 11.294,95.0 L 80.485,95.0 L 77.03,56.405 C 76.253,57.82 75.602,59.098 75.121,60.074 M 57.998,23.45 C 58.954,23.45 59.729,24.224999999999998 59.729,25.181 C 59.729,26.136 58.955999999999996,26.909000000000002 57.998,26.909000000000002 C 57.04,26.909000000000002 56.266999999999996,26.136000000000003 56.266999999999996,25.181 C 56.266999999999996,24.226 57.042,23.45 57.998,23.45 M 46.467,8.103 C 51.876,8.103 56.295,12.352 56.597,17.685000000000002 L 36.335,17.685000000000002 C 36.638,12.352 41.058,8.103 46.467,8.103 M 34.935,26.909 C 33.979,26.909 33.204,26.136 33.204,25.180999999999997 C 33.204,24.225999999999996 33.980000000000004,23.449999999999996 34.935,23.449999999999996 C 35.89,23.449999999999996 36.663000000000004,24.224999999999994 36.663000000000004,25.180999999999997 C 36.664,26.136 35.892,26.909 34.935,26.909" fill="#000000"/>
	<path d="M 88.481,35.519 C 87.81299999999999,33.781 85.862,32.914 84.125,33.583 C 72.718,37.97 63.815,58.104 59.336,70.35900000000001 C 54.2,60.1 50.715,58.316 50.292,57.97 C 48.853,56.793 46.734,57.006 45.554,58.442 C 44.374,59.879 44.583000000000006,62.002 46.02,63.184 C 46.135000000000005,63.278 53.151,68.042 56.211000000000006,81.30199999999999 C 56.55500000000001,82.79499999999999 57.864000000000004,83.868 59.395,83.913 C 59.429,83.914 59.462,83.91499999999999 59.496,83.91499999999999 C 60.986000000000004,83.91499999999999 62.306000000000004,82.93299999999999 62.729,81.49499999999999 C 65.723,71.314 75.838,43.99099999999999 86.545,39.87399999999999 C 88.282,39.207 89.149,37.256 88.481,35.519" fill="#000000"/>
</svg>
