<?xml version="1.0" ?>
<svg xmlns="http://www.w3.org/2000/svg" xmlns:cc="http://creativecommons.org/ns#" xmlns:dc="http://purl.org/dc/elements/1.1/" xmlns:ev="http://www.w3.org/2001/xml-events" xmlns:inkscape="http://www.inkscape.org/namespaces/inkscape" xmlns:rdf="http://www.w3.org/1999/02/22-rdf-syntax-ns#" xmlns:sodipodi="http://sodipodi.sourceforge.net/DTD/sodipodi-0.dtd" xmlns:svg="http://www.w3.org/2000/svg" xmlns:xlink="http://www.w3.org/1999/xlink" baseProfile="full" height="79px" version="1.1" viewBox="0 0 100 99.991043" width="600px" x="0px" y="0px">
	<defs/>
	<path d="M -23.735695,410.72771 C -26.862225,410.72771 -29.46875,413.33423 -29.46875,416.46076 L -29.46875,494.9857 C -29.46875,498.11223 -26.862225,500.71875 -23.735695,500.71875 L 54.798195,500.71875 C 57.924725,500.71875 60.53125,498.11223 60.53125,494.9857 L 60.53125,416.46076 C 60.53125,413.33423 57.924725,410.72771 54.798195,410.72771 L -23.735695,410.72771 M -23.735695,416.46076 L 54.798195,416.46076 L 54.798195,494.9857 L -23.735695,494.9857 L -23.735695,416.46076" display="inline" fill="#000000" fill-opacity="1" marker="none" overflow="visible" stroke="none" style="text-indent:0;text-transform:none;direction:ltr;block-progression:tb;baseline-shift:baseline;color:#000000;enable-background:accumulate;" visibility="visible"/>
	<path d="M -24.577738,411.56975 L -28.626708,415.61872 L 13.502285999999998,457.74771 L 17.560214,453.69874 L -24.577738,411.56975" display="inline" fill="#000000" fill-opacity="1" marker="none" overflow="visible" stroke="none" style="text-indent:0;text-transform:none;direction:ltr;block-progression:tb;baseline-shift:baseline;color:#000000;enable-background:accumulate;" visibility="visible"/>
	<path d="M 13.502286,457.74771 L 15.526771,459.78116 L 19.584699,455.72323 L 17.560214000000002,453.69874 L 13.502286,457.74771 M 17.560214000000002,461.80564 L 19.584699,463.83013 L 23.642627,459.78116 L 21.609184,457.74771 L 17.560214000000002,461.80564 M 21.609184000000003,465.86357 L 23.642627000000005,467.88804999999996 L 27.691596000000004,463.83012999999994 L 25.667111000000006,461.8056399999999 L 21.609184000000003,465.86357 M 25.667111000000002,469.91254 L 27.691596,471.93701999999996 L 31.749524,467.88804999999996 L 29.716081000000003,465.86357 L 25.667111000000002,469.91254 M 29.716081000000003,473.97047 L 31.749524,475.99494999999996 L 35.798494,471.93701999999996 L 33.774009,469.91254 L 29.716081000000003,473.97047 M 33.77400900000001,478.01944 L 35.798494000000005,480.04391999999996 L 39.85642200000001,475.99494999999996 L 37.82297900000001,473.97047 L 33.77400900000001,478.01944 M 37.822979000000004,482.07736 L 39.856422,484.10185 L 43.905392,480.04392 L 41.880907,478.01944000000003 L 37.822979000000004,482.07736" display="inline" fill="#000000" fill-opacity="1" marker="none" overflow="visible" stroke="none" style="text-indent:0;text-transform:none;direction:ltr;block-progression:tb;baseline-shift:baseline;color:#000000;enable-background:accumulate;" visibility="visible"/>
	<path d="M 46.028413,483.35834 A 2.866814,2.866814 0.0 0,0 44.030802,488.28519 L 44.76535,489.01974 A 2.8693888,2.8693888 0.0 1,0 48.823277,484.96181 L 48.08873,484.22726 A 2.866814,2.866814 0.0 0,0 46.028413,483.35834" display="inline" fill="#000000" fill-opacity="1" marker="none" overflow="visible" stroke="none" style="text-indent:0;text-transform:none;direction:ltr;block-progression:tb;baseline-shift:baseline;color:#000000;enable-background:accumulate;" visibility="visible"/>
	<path d="M -26.602223,453.68979 L -26.602223,462.28937 L 57.66472300000001,462.28937 L 57.66472300000001,453.68979 L -26.602222999999995,453.68979 L -26.602223,453.68979" display="inline" fill="#000000" fill-opacity="1" marker="none" overflow="visible" stroke="none" style="text-indent:0;text-transform:none;direction:ltr;block-progression:tb;baseline-shift:baseline;color:#000000;enable-background:accumulate;" visibility="visible"/>
	<path d="M -23.93612,412.15152 A 4.1055006,4.1055006 0.0 0,0 -28.04121,416.25661 L -28.04121,423.03001 A 4.1055006,4.1055006 0.0 0,0 -23.93612,427.1351 C -17.976897,427.1351 -13.057630999999999,422.21582 -13.057630999999999,416.25661 A 4.1055006,4.1055006 0.0 0,0 -17.162720999999998,412.15152 L -23.93612,412.15152" display="inline" fill="#000000" fill-opacity="1" fill-rule="nonzero" marker="none" overflow="visible" stroke="none" style="text-indent:0;text-transform:none;direction:ltr;block-progression:tb;baseline-shift:baseline;color:#000000;enable-background:accumulate;" visibility="visible"/>
	<path d="M -22.48159,416.99824 A 0.71670349,0.71670349 0.0 0,0 -23.180306,417.72383 L -23.180306,432.02959000000004 A 0.71670349,0.71670349 0.0 1,0 -21.747042,432.02959000000004 L -21.747042,417.72383 A 0.71670349,0.71670349 0.0 0,0 -22.48159,416.99824" display="inline" fill="#000000" fill-opacity="1" marker="none" overflow="visible" stroke="none" style="text-indent:0;text-transform:none;direction:ltr;block-progression:tb;baseline-shift:baseline;color:#000000;enable-background:accumulate;" visibility="visible"/>
	<path d="M -22.4368,416.27265 A 1.433407,1.433407 0.0 0,0 -23.852148000000003,418.10006 L -18.808852,436.9206 A 1.433407,1.433407 0.0 1,0 -16.040861000000003,436.18604999999997 L -21.084158000000002,417.35654999999997 A 1.433407,1.433407 0.0 0,0 -22.4368,416.27264999999994 L -22.4368,416.27265" display="inline" fill="#000000" fill-opacity="1" marker="none" overflow="visible" stroke="none" style="text-indent:0;text-transform:none;direction:ltr;block-progression:tb;baseline-shift:baseline;color:#000000;enable-background:accumulate;" visibility="visible"/>
	<path d="M 1825.3987,645.55209 L 1887.934,662.30837" fill="none" stroke="#000000" stroke-dasharray="none" stroke-linecap="round" stroke-linejoin="miter" stroke-miterlimit="4" stroke-opacity="1" stroke-width="5"/>
	<path d="M 1839.7333,649.39301 L 1907.7306,649.39303" fill="none" stroke="#000000" stroke-dasharray="none" stroke-linecap="round" stroke-linejoin="miter" stroke-miterlimit="4" stroke-opacity="1" stroke-width="10"/>
</svg>
