<?xml version="1.0" ?>
<svg xmlns="http://www.w3.org/2000/svg" xmlns:cc="http://creativecommons.org/ns#" xmlns:dc="http://purl.org/dc/elements/1.1/" xmlns:ev="http://www.w3.org/2001/xml-events" xmlns:inkscape="http://www.inkscape.org/namespaces/inkscape" xmlns:rdf="http://www.w3.org/1999/02/22-rdf-syntax-ns#" xmlns:sodipodi="http://sodipodi.sourceforge.net/DTD/sodipodi-0.dtd" xmlns:svg="http://www.w3.org/2000/svg" xmlns:xlink="http://www.w3.org/1999/xlink" baseProfile="full" height="600px" version="1.1" viewBox="0 0 100 100" width="600px" x="0px" y="0px">
	<defs/>
	<path d="M 133.70657,350.78125 C 130.58087,350.78125 127.96875,353.39339 127.96875,356.51907 L 127.96875,435.04343 C 127.96875,438.16911 130.58089,440.78125 133.70657,440.78125 L 212.23093,440.78125 C 215.35661,440.78125 217.96875,438.16911 217.96875,435.04343 L 217.96875,356.51907 C 217.96875,353.39339 215.35663,350.78125 212.23093,350.78125 L 133.70657,350.78125 M 133.70657,356.51907 L 212.23093,356.51907 L 212.23093,435.04343 L 133.70657,435.04343 L 133.70657,356.51907" display="inline" fill="#000000" fill-opacity="1" marker="none" overflow="visible" stroke="none" style="text-indent:0;text-transform:none;direction:ltr;block-progression:tb;baseline-shift:baseline;color:#000000;enable-background:accumulate;" visibility="visible"/>
	<path d="M 132.86846,351.65159 L 128.83909,355.68096 L 170.93795,397.81205 L 174.99955,393.75045 L 132.86846,351.65159" display="inline" fill="#000000" fill-opacity="1" marker="none" overflow="visible" stroke="none" style="text-indent:0;text-transform:none;direction:ltr;block-progression:tb;baseline-shift:baseline;color:#000000;enable-background:accumulate;" visibility="visible"/>
	<path d="M 192.14855,368.44601 L 191.11703,369.50976 L 195.1464,373.53913 L 196.21015,372.50761 L 197.1772,371.54056 L 193.1156,367.47896000000003 L 192.14855,368.44601 M 187.05543,373.53913 L 191.11703,377.60073 L 193.1156,375.56993 L 189.08623,371.54056 L 187.05543,373.53913 M 182.99382,377.60073 L 187.05543,381.66234 L 189.08623,379.63154 L 185.02462,375.56993 L 182.99382,377.60073 M 178.93222,381.66234 L 182.99382,385.72393999999997 L 185.02462,383.69313999999997 L 180.96302,379.63154 L 178.93222,381.66234 M 174.90285,385.72393999999997 L 178.93222,389.75330999999994 L 180.96302,387.72250999999994 L 176.93365,383.69313999999997 L 174.90285,385.72393999999997 M 170.84124,389.75330999999994 L 174.90285,393.8149199999999 L 176.93365,391.7841199999999 L 172.87205,387.72250999999994 L 170.84124,389.75330999999994" display="inline" fill="#000000" fill-opacity="1" marker="none" overflow="visible" stroke="none" style="text-indent:0;text-transform:none;direction:ltr;block-progression:tb;baseline-shift:baseline;color:#000000;enable-background:accumulate;" visibility="visible"/>
	<path d="M 130.83766,393.75045 L 130.83766,402.35718 L 215.09984,402.35718 L 215.09984,393.75045 L 130.83766,393.75045" display="inline" fill="#000000" fill-opacity="1" marker="none" overflow="visible" stroke="none" style="text-indent:0;text-transform:none;direction:ltr;block-progression:tb;baseline-shift:baseline;color:#000000;enable-background:accumulate;" visibility="visible"/>
	<path d="M 133.51313,352.2209 A 4.1043629,4.1043629 0.0 0,0 129.40917,356.32484999999997 L 129.40917,363.09637999999995 A 4.1043629,4.1043629 0.0 0,0 133.51313,367.20032 C 139.47068,367.20032 144.38861,362.28240999999997 144.38861,356.32484999999997 A 4.1043629,4.1043629 0.0 0,0 140.28465,352.2209 L 133.51313,352.2209" display="inline" fill="#000000" fill-opacity="1" fill-rule="nonzero" marker="none" overflow="visible" stroke="none" style="text-indent:0;text-transform:none;direction:ltr;block-progression:tb;baseline-shift:baseline;color:#000000;enable-background:accumulate;" visibility="visible"/>
	<path d="M 134.89927,357.06707 A 0.71650488,0.71650488 0.0 0,0 134.25457,357.80847 L 134.25457,372.08856 A 0.72528653,0.72528653 0.0 0,0 135.70514,372.08856 L 135.70514,357.80847 A 0.71650488,0.71650488 0.0 0,0 134.89927,357.06707" display="inline" fill="#000000" fill-opacity="1" marker="none" overflow="visible" stroke="none" style="text-indent:0;text-transform:none;direction:ltr;block-progression:tb;baseline-shift:baseline;color:#000000;enable-background:accumulate;" visibility="visible"/>
	<path d="M 134.73809,356.3579 A 1.4330098,1.4330098 0.0 0,0 133.60987,358.16306 L 138.63852,376.98826999999994 A 1.434819,1.434819 0.0 1,0 141.41073,376.24686999999994 L 136.34984,357.42164999999994 A 1.4330098,1.4330098 0.0 0,0 134.73809,356.3578999999999 L 134.73809,356.3579" display="inline" fill="#000000" fill-opacity="1" marker="none" overflow="visible" stroke="none" style="text-indent:0;text-transform:none;direction:ltr;block-progression:tb;baseline-shift:baseline;color:#000000;enable-background:accumulate;" visibility="visible"/>
	<path d="M 130.64425,357.06707 A 0.7268965,0.7268965 0.0 1,0 130.74095,358.51764000000003 L 149.27606,358.51764000000003 A 0.72528653,0.72528653 0.0 0,0 149.27606,357.06707 L 130.74095,357.06707 A 0.71650488,0.71650488 0.0 0,0 130.64425,357.06707" display="inline" fill="#000000" fill-opacity="1" marker="none" overflow="visible" stroke="none" style="text-indent:0;text-transform:none;direction:ltr;block-progression:tb;baseline-shift:baseline;color:#000000;enable-background:accumulate;" visibility="visible"/>
	<path d="M 134.77033,356.3579 A 1.4330098,1.4330098 0.0 0,0 134.60915,359.16234 L 153.43437,364.22322999999994 A 1.434819,1.434819 0.0 1,0 154.17577,361.45101999999997 L 135.35056,356.42236999999994 A 1.4330098,1.4330098 0.0 0,0 134.77033,356.35786999999993 L 134.77033,356.3579" display="inline" fill="#000000" fill-opacity="1" marker="none" overflow="visible" stroke="none" style="text-indent:0;text-transform:none;direction:ltr;block-progression:tb;baseline-shift:baseline;color:#000000;enable-background:accumulate;" visibility="visible"/>
	<path d="M 199.88494,361.80561 A 2.8660195,2.8660195 0.0 0,0 197.91861,362.67595 L 197.1772,363.41735 A 2.871992,2.871992 0.0 1,0 201.23881,367.47896 L 201.98021,366.73755 A 2.8660195,2.8660195 0.0 0,0 199.88494,361.80561" display="inline" fill="#000000" fill-opacity="1" marker="none" overflow="visible" stroke="none" style="text-indent:0;text-transform:none;direction:ltr;block-progression:tb;baseline-shift:baseline;color:#000000;enable-background:accumulate;" visibility="visible"/>
</svg>
