<?xml version="1.0" ?>
<svg xmlns="http://www.w3.org/2000/svg" xmlns:ev="http://www.w3.org/2001/xml-events" xmlns:xlink="http://www.w3.org/1999/xlink" baseProfile="full" enable-background="new 0 0 82.376 100" height="600px" version="1.1" viewBox="0 0 82.376 100" width="495px" x="0px" xml:space="preserve" y="0px">
	<defs/>
	<path d="M 52.074,20.308 C 57.664,20.308 62.205,15.767 62.229,10.156 C 62.205,4.563 57.664,0.021 52.074,0.0 C 46.458999999999996,0.021 41.918,4.563 41.921,10.156 C 41.918,15.767 46.459,20.308 52.074,20.308 L 52.074,20.308"/>
	<path d="M 28.78,12.165 C 34.526,9.203 42.558,14.636 42.626000000000005,20.581 L 42.626000000000005,39.914 L 51.804,50.068 C 56.022000000000006,54.794 49.346000000000004,61.299 44.689,56.583 L 34.319,45.125 C 33.650000000000006,44.488 33.167,43.73 33.178000000000004,41.976 L 33.178000000000004,32.742999999999995 L 15.04,42.517 L 15.04,91.662 C 15.045,102.762 0.011,102.76 0.0,91.769 L 0.0,33.503 C 0.011,30.257 1.297,27.098 4.506,25.25 L 28.78,12.165 L 28.78,12.165"/>
	<path d="M 66.41,62.012 L 82.37599999999999,62.012 L 82.37599999999999,32.96 L 50.22899999999999,32.905 C 46.12199999999999,32.904 44.57699999999999,37.562 47.13499999999999,40.510000000000005 L 66.41,62.012 L 66.41,62.012"/>
	<path d="M 57.178,31.604 C 57.852999999999994,31.596999999999998 58.407999999999994,31.041 58.427,30.355 C 58.408,29.669 57.853,29.114 57.178,29.105 C 56.483999999999995,29.115000000000002 55.928999999999995,29.669 55.928999999999995,30.355 C 55.929,31.041 56.483,31.597 57.178,31.604 L 57.178,31.604"/>
	<path d="M 60.491,31.82 C 61.175,31.812 61.729,31.257 61.74,30.573 C 61.729,29.888 61.175000000000004,29.332 60.491,29.323 C 59.804,29.333000000000002 59.249,29.889 59.241,30.573 C 59.249,31.257 59.805,31.812 60.491,31.82 L 60.491,31.82"/>
	<path d="M 60.708,28.13 C 61.388,28.145999999999997 61.942,27.59 61.957,26.933 C 61.942,26.222 61.388,25.669 60.708,25.683 C 60.019,25.668 59.464,26.222 59.458999999999996,26.933 C 59.464,27.59 60.019,28.146 60.708,28.13 L 60.708,28.13"/>
	<path d="M 57.396,27.91 C 58.08,27.918 58.634,27.361 58.646,26.662 C 58.634,25.991999999999997 58.08,25.436999999999998 57.396,25.412 C 56.71,25.436999999999998 56.155,25.991999999999997 56.148,26.662 C 56.155,27.361 56.711,27.918 57.396,27.91 L 57.396,27.91"/>
	<path d="M 58.482,24.545 C 59.187,24.519000000000002 59.771,23.936 59.786,23.241000000000003 C 59.771,22.498000000000005 59.187000000000005,21.914 58.482,21.938000000000002 C 57.75,21.914 57.168,22.498 57.177,23.241000000000003 C 57.168,23.936 57.75,24.519 58.482,24.545 L 58.482,24.545"/>
	<path d="M 62.501,25.197 C 63.224,25.169 63.808,24.587 63.803999999999995,23.891 C 63.80799999999999,23.148 63.224,22.564 62.501,22.590999999999998 C 61.785999999999994,22.564999999999998 61.202999999999996,23.147999999999996 61.198,23.891 C 61.203,24.587 61.786,25.169 62.501,25.197 L 62.501,25.197"/>
	<path d="M 61.091,21.828 C 61.826,21.813 62.439,21.203 62.447,20.473 C 62.438,19.692 61.826,19.079 61.091,19.058999999999997 C 60.316,19.078999999999997 59.705,19.691999999999997 59.732,20.473 C 59.705,21.204 60.315,21.813 61.091,21.828 L 61.091,21.828"/>
	<path d="M 65.757,24.001 C 66.501,23.986 67.111,23.373 67.11500000000001,22.643 C 67.111,21.862000000000002 66.501,21.251 65.757,21.233 C 64.99000000000001,21.252 64.37700000000001,21.862000000000002 64.40100000000001,22.643 C 64.377,23.373 64.99,23.987 65.757,24.001 L 65.757,24.001"/>
	<path d="M 64.238,20.635 C 65.012,20.618000000000002 65.625,20.008000000000003 65.652,19.276000000000003 C 65.625,18.498000000000005 65.012,17.884000000000004 64.238,17.866000000000003 C 63.504,17.885 62.888,18.498000000000005 62.881,19.276000000000003 C 62.889,20.008 63.504,20.619 64.238,20.635 L 64.238,20.635"/>
	<path d="M 67.931,20.635 C 68.777,20.625 69.452,19.948 69.452,19.114 C 69.452,18.286 68.777,17.61 67.931,17.593 C 67.112,17.611 66.437,18.286 66.41,19.114 C 66.437,19.948 67.111,20.625 67.931,20.635 L 67.931,20.635"/>
	<path d="M 69.125,25.306 C 69.944,25.294 70.619,24.618000000000002 70.644,23.786 C 70.62,22.955000000000002 69.94500000000001,22.279 69.125,22.265 C 68.279,22.28 67.606,22.955000000000002 67.606,23.786 C 67.606,24.618 68.279,25.293 69.125,25.306 L 69.125,25.306"/>
	<path d="M 71.404,22.428 C 72.29299999999999,22.408 73.00099999999999,21.701 72.981,20.851 C 73.00099999999999,19.954 72.29299999999999,19.246 71.404,19.224 C 70.545,19.246 69.836,19.954 69.832,20.851 C 69.836,21.701 70.545,22.408 71.404,22.428 L 71.404,22.428"/>
	<path d="M 74.446,25.468 C 75.361,25.474 76.105,24.73 76.131,23.838 C 76.106,22.895 75.361,22.153000000000002 74.446,22.157 C 73.52499999999999,22.153 72.782,22.895 72.76299999999999,23.838 C 72.782,24.73 73.525,25.474 74.446,25.468 L 74.446,25.468"/>
	<path d="M 71.568,28.399 C 72.493,28.405 73.234,27.663 73.25399999999999,26.771 C 73.234,25.829 72.493,25.082 71.56799999999998,25.088 C 70.65599999999998,25.082 69.91199999999998,25.829 69.94199999999998,26.771 C 69.912,27.663 70.656,28.405 71.568,28.399 L 71.568,28.399"/>
</svg>
