<?xml version="1.0" ?>
<svg xmlns="http://www.w3.org/2000/svg" xmlns:ev="http://www.w3.org/2001/xml-events" xmlns:xlink="http://www.w3.org/1999/xlink" baseProfile="full" enable-background="new 0 0 100 100" height="600px" version="1.1" viewBox="0 0 100 100" width="490px" x="0px" xml:space="preserve" y="0px">
	<defs/>
	<path d="M 46.983,31.537 C 30.081999999999997,31.537 16.381999999999998,47.852999999999994 16.381999999999998,64.756 L 16.381999999999998,77.285 C 16.381999999999998,77.285 16.816999999999997,87.5 47.2,87.5 C 77.583,87.5 77.583,77.285 77.583,77.285 L 77.583,64.756 C 77.584,47.854 63.884,31.537 46.983,31.537 M 72.17,63.818 C 71.863,67.029 70.604,69.657 69.374,69.657 C 68.143,69.657 66.628,67.215 66.00699999999999,64.232 C 65.38499999999999,61.248 63.44399999999999,58.806 61.68999999999999,58.806 C 59.93599999999999,58.806 58.06899999999999,61.409 57.54099999999999,64.59 L 57.22399999999999,66.50800000000001 C 56.69299999999999,69.691 54.85099999999999,72.35300000000001 53.12399999999999,72.42200000000001 C 51.39699999999999,72.492 49.62599999999999,69.93500000000002 49.18799999999999,66.739 L 47.78299999999999,56.498000000000005 C 47.34399999999999,53.304 45.81599999999999,50.888000000000005 44.386999999999986,51.129000000000005 C 42.95899999999999,51.371 41.545999999999985,54.194 41.24799999999998,57.406000000000006 L 40.09,69.88 C 39.792,73.08999999999999 38.123000000000005,75.719 36.38,75.719 C 34.639,75.719 33.027,73.086 32.799,69.869 L 32.147999999999996,60.656 C 31.919999999999995,57.439 31.125999999999998,54.857 30.383999999999997,54.917 C 29.642999999999997,54.979 28.801999999999996,57.398 28.516,60.294000000000004 C 28.229,63.193000000000005 26.857999999999997,65.58 25.465999999999998,65.604 C 24.074999999999996,65.625 22.607999999999997,63.024 22.208999999999996,59.826 L 22.155,59.4 C 24.63,47.012 35.35,36.773 46.983,36.773 C 59.663999999999994,36.773 71.25399999999999,48.94500000000001 72.268,62.798 L 72.17,63.818"/>
	<path d="M 43.994,33.1 C 42.133,29.141000000000002 44.079,23.1 44.1,23.03 C 44.203,22.719 44.159,22.379 43.984,22.104000000000003 C 43.807,21.829000000000004 43.516,21.647000000000002 43.190000000000005,21.608000000000004 C 42.32300000000001,21.508000000000003 39.82300000000001,21.004000000000005 38.687000000000005,19.870000000000005 C 37.56700000000001,18.747000000000003 37.169000000000004,16.388000000000005 37.111000000000004,15.572000000000005 C 37.088,15.237000000000004 36.912000000000006,14.933000000000005 36.632000000000005,14.745000000000005 C 36.354000000000006,14.557000000000004 36.005,14.510000000000005 35.685,14.616000000000005 C 35.605000000000004,14.641000000000005 27.610000000000003,17.217000000000006 23.991,13.598000000000004 C 23.565,13.174000000000005 22.878999999999998,13.174000000000005 22.453,13.598000000000004 C 22.028,14.022000000000004 22.028,14.709000000000005 22.453,15.134000000000004 C 26.072,18.753000000000004 23.497,26.749000000000002 23.471,26.830000000000005 C 23.368,27.142000000000007 23.414,27.486000000000004 23.591,27.762000000000004 C 23.77,28.037000000000003 24.067,28.219000000000005 24.394000000000002,28.250000000000004 C 25.247000000000003,28.341000000000005 27.698,28.800000000000004 28.771,29.877000000000002 C 29.871000000000002,30.975 30.367,33.466 30.465,34.333000000000006 C 30.502,34.657000000000004 30.682,34.949000000000005 30.958,35.127 C 31.233999999999998,35.305 31.573999999999998,35.348 31.884999999999998,35.244 C 31.950999999999997,35.223 37.439,33.458 41.381,34.9 L 43.994,33.1"/>
	<path d="M 56.331,30.279 C 56.172000000000004,29.605 55.867000000000004,27.595 56.408,26.436 C 56.941,25.291 58.601,24.351 59.193,24.086 C 59.439,23.977999999999998 59.617999999999995,23.761999999999997 59.683,23.502 C 59.745,23.243 59.687,22.968999999999998 59.521,22.758 C 59.480000000000004,22.707 55.375,17.424999999999997 57.097,13.732 C 57.299,13.298 57.111000000000004,12.785 56.679,12.581999999999999 C 56.245000000000005,12.380999999999998 55.730000000000004,12.565999999999999 55.529,13.001999999999999 C 53.806000000000004,16.695 47.124,16.945 47.056000000000004,16.945999999999998 C 46.794000000000004,16.953999999999997 46.54900000000001,17.083 46.391000000000005,17.291999999999998 C 46.23400000000001,17.502 46.17700000000001,17.770999999999997 46.24400000000001,18.025 C 46.410000000000004,18.686 46.73100000000001,20.645999999999997 46.22200000000001,21.741 C 45.699000000000005,22.862 43.96800000000001,23.914 43.348000000000006,24.224 C 43.114000000000004,24.339 42.944,24.553 42.888000000000005,24.808 C 42.830000000000005,25.064 42.891000000000005,25.329 43.051,25.535 C 43.085,25.578 45.900000000000006,29.203 45.896,32.545 C 46.113,31.963 48.424,33.241 48.056,33.854 C 48.026999999999994,33.907 47.988,33.958 47.955,34.012 C 50.409,31.539 55.458999999999996,31.35 55.516999999999996,31.348 C 55.778999999999996,31.34 56.020999999999994,31.215 56.178999999999995,31.008 C 56.336999999999996,30.801 56.393,30.533 56.331,30.279"/>
	<path d="M 51.287,28.774 C 52.732,28.774 53.903999999999996,29.945 53.903999999999996,31.391000000000002 C 53.903999999999996,32.837 52.732,34.009 51.287,34.009 C 49.841,34.009 48.669,32.837 48.669,31.391000000000002 C 48.669,29.945 49.841,28.774 51.287,28.774 M 51.287,23.537 C 46.955999999999996,23.537 43.433,27.061 43.433,31.391 C 43.433,35.724 46.956,39.247 51.287,39.247 C 55.617999999999995,39.247 59.141,35.724 59.141,31.391 C 59.143,27.062 55.618,23.537 51.287,23.537 L 51.287,23.537" fill="#000000" stroke="#FFFFFF" stroke-miterlimit="10"/>
	<path d="M 41.537,31.393 C 42.983,31.393 44.155,32.565 44.155,34.012 C 44.155,35.457 42.983000000000004,36.629 41.537,36.629 C 40.092,36.629 38.919,35.457 38.919,34.012 C 38.919,32.564 40.092,31.393 41.537,31.393 M 41.537,26.157 C 37.205999999999996,26.157 33.683,29.679 33.683,34.011 C 33.683,38.343 37.206,41.865 41.537,41.865 C 45.867999999999995,41.865 49.391,38.343 49.391,34.011 C 49.391,29.679 45.868,26.157 41.537,26.157 L 41.537,26.157" fill="#000000" stroke="#FFFFFF" stroke-miterlimit="10"/>
	<path cx="51.287" cy="31.392" d="M 48.669,31.392 A 2.618,2.618 0.0 1,0 53.904999999999994,31.392 A 2.618,2.618 0.0 1,0 48.669,31.392" fill="#000000" r="2.618"/>
	<path cx="41.537" cy="34.012" d="M 38.919,34.012 A 2.618,2.618 0.0 1,0 44.154999999999994,34.012 A 2.618,2.618 0.0 1,0 38.919,34.012" fill="#000000" r="2.618"/>
</svg>
