<?xml version="1.0" ?>
<svg xmlns="http://www.w3.org/2000/svg" xmlns:ev="http://www.w3.org/2001/xml-events" xmlns:xlink="http://www.w3.org/1999/xlink" baseProfile="full" enable-background="new 0 0 100 100" height="395px" version="1.1" viewBox="0 0 100 100" width="600px" x="0px" xml:space="preserve" y="0px">
	<defs/>
	<path d="M 19.483,52.749 L 10.916,52.749 C 10.458,52.749 10.087,53.119 10.087,53.578 L 10.087,74.303 C 10.087,74.762 10.458,75.13199999999999 10.916,75.13199999999999 L 19.483,75.13199999999999 C 19.941,75.13199999999999 20.312,74.76199999999999 20.312,74.303 L 20.312,53.578 C 20.312,53.119 19.941,52.749 19.483,52.749"/>
	<path d="M 32.471,48.051 L 23.904999999999994,48.051 C 23.446999999999996,48.051 23.075999999999993,48.422000000000004 23.075999999999993,48.88 L 23.075999999999993,74.303 C 23.075999999999993,74.762 23.446999999999992,75.13199999999999 23.904999999999994,75.13199999999999 L 32.471,75.13199999999999 C 32.928999999999995,75.13199999999999 33.3,74.76199999999999 33.3,74.303 L 33.3,48.88 C 33.3,48.422 32.929,48.051 32.471,48.051"/>
	<path d="M 89.258,28.438 L 80.693,28.438 C 80.235,28.438 79.864,28.808999999999997 79.864,29.267 L 79.864,74.30199999999999 C 79.864,74.761 80.236,75.13099999999999 80.693,75.13099999999999 L 89.258,75.13099999999999 C 89.716,75.13099999999999 90.08699999999999,74.76099999999998 90.08699999999999,74.30199999999999 L 90.08699999999999,29.268 C 90.087,28.81 89.716,28.438 89.258,28.438"/>
	<path d="M 70.056,67.749 C 70.086,67.761 70.118,67.77 70.148,67.783 C 70.117,67.77 70.086,67.761 70.056,67.749"/>
	<path d="M 69.453,67.578 C 69.488,67.584 69.521,67.59400000000001 69.556,67.601 C 69.521,67.594 69.488,67.584 69.453,67.578"/>
	<path d="M 70.664,68.053 C 70.70100000000001,68.077 70.738,68.103 70.774,68.12899999999999 C 70.737,68.103 70.701,68.077 70.664,68.053"/>
	<path d="M 68.834,67.519 C 68.81,67.519 68.786,67.52600000000001 68.762,67.527 C 68.804,67.526 68.845,67.524 68.887,67.524 C 68.87,67.523 68.853,67.519 68.834,67.519"/>
	<path d="M 67.086,64.159 L 68.78699999999999,65.861 C 68.803,65.861 68.81899999999999,65.861 68.83399999999999,65.861 C 70.19099999999999,65.861 71.466,66.388 72.42499999999998,67.34700000000001 L 77.09999999999998,72.02100000000002 L 77.09999999999998,36.444 C 77.09999999999998,35.986000000000004 76.72899999999998,35.615 76.27099999999999,35.615 L 67.70399999999998,35.615 C 67.24599999999998,35.615 66.87499999999999,35.986000000000004 66.87499999999999,36.444 L 66.87499999999999,50.788000000000004 C 68.01999999999998,52.826 68.67999999999999,55.17 68.67999999999999,57.669000000000004 C 68.68,59.937 68.132,62.155 67.086,64.159"/>
	<path d="M 61.763,37.688 C 61.076,37.688 60.519,38.245000000000005 60.519,38.931000000000004 L 60.519,42.24700000000001 C 60.519,42.934000000000005 61.076,43.49000000000001 61.763,43.49000000000001 C 62.449999999999996,43.49000000000001 63.007,42.93300000000001 63.007,42.24700000000001 L 63.007,38.931000000000004 C 63.007,38.244 62.45,37.688 61.763,37.688"/>
	<path d="M 37.169,36.307 C 36.482,36.307 35.925,36.865 35.925,37.551 L 35.925,40.866 C 35.925,41.553 36.482,42.11 37.169,42.11 C 37.855999999999995,42.11 38.413,41.552 38.413,40.866 L 38.413,37.551 C 38.413,36.864 37.856,36.307 37.169,36.307"/>
	<path d="M 37.169,44.597 C 36.482,44.597 35.925,45.155 35.925,45.841 L 35.925,49.156 C 35.925,49.842999999999996 36.482,50.4 37.169,50.4 C 37.855999999999995,50.4 38.413,49.842 38.413,49.156 L 38.413,45.841 C 38.413,45.154 37.856,44.597 37.169,44.597"/>
	<path d="M 60.52,32.644 L 60.52,33.957 C 60.52,34.644 61.077000000000005,35.2 61.764,35.2 C 62.451,35.2 63.008,34.643 63.008,33.957 L 63.008,31.471 C 63.008,30.784 62.451,30.227 61.764,30.227 L 60.934000000000005,30.227 C 60.24700000000001,30.227 59.690000000000005,30.785 59.690000000000005,31.471 C 59.69,32.012 60.037,32.473 60.52,32.644"/>
	<path d="M 45.183,73.06 L 41.867,73.06 C 41.18,73.06 40.623999999999995,73.61800000000001 40.623999999999995,74.303 C 40.623999999999995,74.991 41.181,75.547 41.867,75.547 L 45.183,75.547 C 45.87,75.547 46.426,74.99 46.426,74.303 C 46.426,73.617 45.87,73.06 45.183,73.06"/>
	<path d="M 39.379,30.227 L 37.169,30.227 C 36.482,30.227 35.925,30.785 35.925,31.471 L 35.925,32.576 C 35.925,33.263 36.482,33.82 37.169,33.82 C 37.809,33.82 38.336,33.336 38.404999999999994,32.714 L 39.37899999999999,32.714 C 40.06599999999999,32.714 40.62299999999999,32.157 40.62299999999999,31.471 C 40.62299999999999,30.785000000000004 40.066,30.227 39.379,30.227"/>
	<path d="M 52.643,32.714 L 55.959,32.714 C 56.646,32.714 57.202000000000005,32.157 57.202000000000005,31.471 C 57.202000000000005,30.785000000000004 56.64600000000001,30.227 55.959,30.227 L 52.643,30.227 C 51.956,30.227 51.4,30.785 51.4,31.471 C 51.4,32.157 51.957,32.714 52.643,32.714"/>
	<path d="M 37.169,69.468 C 36.482,69.468 35.925,70.025 35.925,70.711 L 35.925,74.027 C 35.925,74.714 36.482,75.27 37.169,75.27 C 37.855999999999995,75.27 38.413,74.713 38.413,74.027 L 38.413,70.711 C 38.413,70.024 37.856,69.468 37.169,69.468"/>
	<path d="M 44.353,32.714 L 47.669000000000004,32.714 C 48.356,32.714 48.913000000000004,32.157 48.913000000000004,31.471 C 48.913000000000004,30.785000000000004 48.356,30.227 47.669000000000004,30.227 L 44.353,30.227 C 43.666000000000004,30.227 43.109,30.785 43.109,31.471 C 43.109,32.157 43.666,32.714 44.353,32.714"/>
	<path d="M 37.169,61.178 C 36.482,61.178 35.925,61.735 35.925,62.421 L 35.925,65.737 C 35.925,66.42399999999999 36.482,66.97999999999999 37.169,66.97999999999999 C 37.855999999999995,66.97999999999999 38.413,66.42299999999999 38.413,65.737 L 38.413,62.42099999999999 C 38.413,61.734 37.856,61.178 37.169,61.178"/>
	<path d="M 53.473,73.06 L 50.157,73.06 C 49.47,73.06 48.913,73.61800000000001 48.913,74.303 C 48.913,74.991 49.47,75.547 50.157,75.547 L 53.473,75.547 C 54.16,75.547 54.717,74.99 54.717,74.303 C 54.717,73.617 54.16,73.06 53.473,73.06"/>
	<path d="M 37.169,52.888 C 36.482,52.888 35.925,53.445 35.925,54.131 L 35.925,57.447 C 35.925,58.134 36.482,58.690000000000005 37.169,58.690000000000005 C 37.855999999999995,58.690000000000005 38.413,58.133 38.413,57.447 L 38.413,54.131 C 38.413,53.444 37.856,52.888 37.169,52.888"/>
	<path d="M 61.763,70.848 C 61.076,70.848 60.519,71.406 60.519,72.092 L 60.519,73.06 L 58.446999999999996,73.06 C 57.76,73.06 57.202999999999996,73.61800000000001 57.202999999999996,74.303 C 57.202999999999996,74.991 57.76,75.547 58.446999999999996,75.547 L 61.763,75.547 C 62.449999999999996,75.547 63.007,74.99 63.007,74.303 L 63.007,72.092 C 63.007,71.405 62.45,70.848 61.763,70.848"/>
	<path d="M 67.021,57.669 C 67.021,57.053999999999995 66.961,56.452999999999996 66.875,55.861 L 66.875,59.558 C 66.97,58.942 67.021,58.312 67.021,57.669" fill="#000000"/>
	<path d="M 77.842,75.107 L 77.09,74.355 L 71.254,68.519 C 71.105,68.37 70.94200000000001,68.244 70.775,68.128 C 70.739,68.102 70.70200000000001,68.076 70.665,68.052 C 70.49900000000001,67.94800000000001 70.32700000000001,67.85600000000001 70.149,67.78200000000001 C 70.118,67.76800000000001 70.087,67.76 70.057,67.748 C 69.893,67.686 69.726,67.637 69.557,67.601 C 69.523,67.593 69.489,67.583 69.45400000000001,67.578 C 69.26700000000001,67.544 69.078,67.527 68.88900000000001,67.523 C 68.84700000000001,67.523 68.80600000000001,67.52499999999999 68.76400000000001,67.526 C 68.56400000000001,67.53 68.364,67.54599999999999 68.16700000000002,67.584 L 66.87600000000002,66.293 L 65.01200000000001,64.429 C 65.95200000000001,62.983000000000004 66.60200000000002,61.332 66.87600000000002,59.559000000000005 L 66.87600000000002,55.862 C 66.45400000000002,52.984 65.04900000000002,50.429 63.00800000000002,48.542 C 62.27900000000002,47.869 61.47600000000001,47.275 60.603000000000016,46.79 C 58.81600000000002,45.796 56.76400000000002,45.227 54.579000000000015,45.227 C 47.71800000000002,45.227 42.13600000000002,50.809 42.13600000000002,57.669999999999995 C 42.13600000000002,64.53099999999999 47.71800000000002,70.113 54.579000000000015,70.113 C 57.00200000000002,70.113 59.259000000000015,69.408 61.17200000000001,68.206 C 61.62700000000001,67.92 62.06800000000001,67.614 62.48100000000001,67.274 L 62.87500000000001,67.668 L 65.48,70.27300000000001 C 65.266,71.355 65.577,72.52100000000002 66.417,73.36000000000001 L 66.877,73.82100000000001 L 68.189,75.13300000000001 L 73.00399999999999,79.94800000000001 C 73.672,80.61600000000001 74.54799999999999,80.95 75.42299999999999,80.95 C 76.29899999999999,80.95 77.17499999999998,80.616 77.84299999999999,79.94800000000001 C 79.179,78.611 79.179,76.443 77.842,75.107 M 61.691,62.565 C 61.349000000000004,63.059 60.955000000000005,63.513 60.52,63.927 C 58.970000000000006,65.399 56.88,66.31 54.578,66.31 C 49.813,66.31 45.93600000000001,62.433 45.93600000000001,57.668000000000006 C 45.93600000000001,52.90200000000001 49.81300000000001,49.02600000000001 54.578,49.02600000000001 C 58.286,49.02600000000001 61.447,51.37800000000001 62.67100000000001,54.66500000000001 C 62.806000000000004,55.02800000000001 62.92100000000001,55.40000000000001 63.007000000000005,55.78400000000001 C 63.14300000000001,56.39100000000001 63.220000000000006,57.02000000000001 63.220000000000006,57.66800000000001 C 63.22,59.486 62.653,61.172 61.691,62.565" fill="#000000"/>
	<path d="M 61.171,68.205 C 61.348,68.301 61.547,68.361 61.763,68.361 C 62.251,68.361 62.669,68.077 62.873,67.667 L 62.479,67.273 C 62.067,67.613 61.625,67.919 61.171,68.205" fill="#000000"/>
	<path d="M 70.773,68.129 C 70.94,68.244 71.104,68.37 71.252,68.52000000000001 C 71.104,68.37 70.941,68.244 70.773,68.129" fill="#000000"/>
	<path d="M 68.888,67.523 C 69.077,67.527 69.266,67.544 69.453,67.578 C 69.266,67.544 69.078,67.527 68.888,67.523" fill="#000000"/>
	<path d="M 70.148,67.783 C 70.326,67.856 70.49799999999999,67.94800000000001 70.664,68.053 C 70.498,67.948 70.326,67.856 70.148,67.783" fill="#000000"/>
	<path d="M 68.166,67.584 C 68.363,67.546 68.563,67.53 68.76299999999999,67.526 C 68.562,67.53 68.363,67.546 68.166,67.584" fill="#000000"/>
	<path d="M 69.556,67.602 C 69.725,67.638 69.892,67.688 70.056,67.74900000000001 C 69.892,67.687 69.726,67.638 69.556,67.602" fill="#000000"/>
</svg>
