<?xml version="1.0" ?>
<svg xmlns="http://www.w3.org/2000/svg" xmlns:ev="http://www.w3.org/2001/xml-events" xmlns:xlink="http://www.w3.org/1999/xlink" baseProfile="full" enable-background="new 0 0 100 100" height="372px" version="1.1" viewBox="0 0 100 100" width="600px" x="0px" xml:space="preserve" y="0px">
	<defs/>
	<path d="M 78.967,54.189 C 78.53,53.86 77.928,53.863 77.494,54.198 L 66.89,62.402 L 68.374,64.32000000000001 L 69.44099999999999,63.49400000000001 L 69.44099999999999,74.685 C 69.44099999999999,75.354 69.984,75.897 70.65399999999998,75.897 L 85.81599999999999,75.897 C 86.48499999999999,75.897 87.02899999999998,75.355 87.02899999999998,74.685 L 87.02899999999998,63.316 L 88.35399999999998,64.31700000000001 L 89.81499999999998,62.382000000000005 L 78.967,54.189 M 80.7,73.921 C 80.7,74.144 80.519,74.325 80.296,74.325 L 76.414,74.325 C 76.191,74.325 76.01,74.144 76.01,73.921 L 76.01,65.65400000000001 C 76.01,65.43 76.19200000000001,65.25000000000001 76.414,65.25000000000001 L 80.296,65.25000000000001 C 80.52000000000001,65.25000000000001 80.7,65.43100000000001 80.7,65.65400000000001 L 80.7,73.921"/>
	<path d="M 35.366,26.441 C 34.929,26.112 34.326,26.115 33.894,26.45 L 9.816,45.077 L 11.3,46.994 L 15.252,43.937 L 15.252,74.216 C 15.252,74.88499999999999 15.794,75.428 16.464000000000002,75.428 L 52.807,75.428 C 53.477000000000004,75.428 54.019000000000005,74.886 54.019000000000005,74.216 L 54.019000000000005,43.562 L 58.563,46.992 L 60.024,45.056 L 35.366,26.441 M 34.762,34.679 C 37.853,34.679 40.367000000000004,37.194 40.367000000000004,40.284000000000006 C 40.367000000000004,40.507000000000005 40.18600000000001,40.68800000000001 39.963,40.68800000000001 L 29.562,40.68800000000001 C 29.339000000000002,40.68800000000001 29.158,40.50700000000001 29.158,40.284000000000006 C 29.158,37.193 31.672,34.679 34.762,34.679 M 29.998,65.654 C 29.998,65.877 29.817,66.05799999999999 29.594,66.05799999999999 L 23.504,66.05799999999999 C 23.281000000000002,66.05799999999999 23.1,65.877 23.1,65.654 L 23.1,59.94499999999999 C 23.1,59.721999999999994 23.281000000000002,59.54099999999999 23.504,59.54099999999999 L 29.594,59.54099999999999 C 29.818,59.54099999999999 29.998,59.72199999999999 29.998,59.94499999999999 L 29.998,65.654 M 29.998,52.905 C 29.998,53.129 29.817,53.309000000000005 29.594,53.309000000000005 L 23.504,53.309000000000005 C 23.281000000000002,53.309000000000005 23.1,53.12800000000001 23.1,52.905 L 23.1,47.197 C 23.1,46.973000000000006 23.281000000000002,46.793 23.504,46.793 L 29.594,46.793 C 29.818,46.793 29.998,46.974 29.998,47.197 L 29.998,52.905 M 44.712,73.408 C 44.712,73.631 44.531000000000006,73.812 44.308,73.812 L 37.966,73.812 C 37.742000000000004,73.812 37.562,73.631 37.562,73.408 L 37.562,59.898 C 37.562,59.675000000000004 37.742999999999995,59.494 37.966,59.494 L 44.308,59.494 C 44.532,59.494 44.712,59.675 44.712,59.898 L 44.712,73.408 M 45.219,52.905 C 45.219,53.129 45.038000000000004,53.309000000000005 44.815,53.309000000000005 L 38.727,53.309000000000005 C 38.503,53.309000000000005 38.32299999999999,53.12800000000001 38.32299999999999,52.905 L 38.32299999999999,47.197 C 38.32299999999999,46.973000000000006 38.50399999999999,46.793 38.727,46.793 L 44.815,46.793 C 45.038,46.793 45.219,46.974 45.219,47.197 L 45.219,52.905"/>
	<path d="M 81.281,36.866 C 80.691,36.556 79.95500000000001,36.784 79.644,37.377 L 77.506,41.454 C 75.83,34.913 71.569,29.725 65.837,27.511000000000003 C 60.372,25.401000000000003 54.556000000000004,26.421000000000003 50.276,30.244000000000003 C 49.776,30.689000000000004 49.733000000000004,31.456000000000003 50.18000000000001,31.955000000000002 C 50.62400000000001,32.454 51.39000000000001,32.498000000000005 51.89000000000001,32.052 C 55.47800000000001,28.847 60.364000000000004,27.996 64.96100000000001,29.772 C 70.08400000000002,31.750999999999998 73.87300000000002,36.503 75.27300000000001,42.501 L 70.63100000000001,39.287 C 70.08200000000001,38.907 69.32500000000002,39.043 68.94300000000001,39.594 C 68.56200000000001,40.145 68.70000000000002,40.9 69.25100000000002,41.281 L 76.25500000000002,46.129999999999995 C 76.30500000000002,46.16499999999999 76.36400000000002,46.18299999999999 76.41900000000003,46.209999999999994 C 76.46000000000002,46.230999999999995 76.49800000000002,46.254999999999995 76.54200000000003,46.270999999999994 C 76.66900000000003,46.31499999999999 76.80100000000003,46.342999999999996 76.93700000000003,46.34499999999999 C 76.93900000000002,46.34499999999999 76.94100000000003,46.34599999999999 76.94400000000003,46.34599999999999 L 76.94400000000003,46.34599999999999 C 76.94500000000004,46.34599999999999 76.94500000000004,46.34599999999999 76.94500000000004,46.34599999999999 C 76.94600000000004,46.34599999999999 76.94600000000004,46.34599999999999 76.94600000000004,46.34599999999999 C 76.98800000000004,46.34599999999999 77.03000000000004,46.34399999999999 77.07100000000004,46.33899999999999 C 77.10600000000004,46.33599999999999 77.13800000000003,46.32499999999999 77.17200000000004,46.31799999999999 C 77.19300000000004,46.31399999999999 77.21500000000005,46.31599999999999 77.23400000000004,46.31099999999999 C 77.24800000000003,46.30799999999999 77.25700000000003,46.300999999999995 77.27000000000004,46.297999999999995 C 77.31900000000005,46.28399999999999 77.36400000000003,46.266 77.40900000000003,46.24699999999999 C 77.43900000000004,46.233999999999995 77.47000000000004,46.22399999999999 77.50000000000003,46.20799999999999 C 77.54700000000003,46.18399999999999 77.59100000000002,46.154999999999994 77.63400000000003,46.12499999999999 C 77.65700000000002,46.10699999999999 77.68300000000004,46.093999999999994 77.70500000000003,46.074999999999996 C 77.75200000000002,46.037 77.79300000000002,45.99399999999999 77.83400000000003,45.95099999999999 C 77.84900000000003,45.934999999999995 77.86600000000003,45.92099999999999 77.88000000000004,45.903999999999996 C 77.93300000000004,45.839999999999996 77.98000000000003,45.770999999999994 78.01800000000004,45.696999999999996 C 78.01800000000004,45.696999999999996 78.01900000000005,45.696999999999996 78.01900000000005,45.696 L 81.79000000000005,38.503 C 82.103,37.91 81.875,37.177 81.281,36.866"/>
</svg>
