<?xml version="1.0" ?>
<svg xmlns="http://www.w3.org/2000/svg" xmlns:ev="http://www.w3.org/2001/xml-events" xmlns:xlink="http://www.w3.org/1999/xlink" baseProfile="full" enable-background="new 0 0 100 100" height="600px" version="1.1" viewBox="0 0 100 100" width="548px" x="0px" xml:space="preserve" y="0px">
	<defs/>
	<path d="M 87.335,45.799 C 85.61,35.254999999999995 79.884,26.012999999999998 71.208,19.777 C 62.532,13.539000000000001 51.944,11.054 41.400999999999996,12.777000000000001 C 30.855999999999995,14.502 21.613999999999997,20.229 15.376999999999995,28.905 C 14.471999999999996,30.165000000000003 14.759999999999994,31.921 16.019999999999996,32.826 C 17.277999999999995,33.732 19.036999999999995,33.445 19.941999999999997,32.184 C 25.300999999999995,24.726999999999997 33.245999999999995,19.805 42.309,18.322999999999997 C 51.370999999999995,16.839999999999996 60.471,18.978999999999996 67.929,24.339 C 75.385,29.698999999999998 80.307,37.641999999999996 81.79,46.706 C 83.271,55.769000000000005 81.13600000000001,64.867 75.774,72.32300000000001 C 65.17,87.075 44.961,90.923 29.75,81.48400000000001 L 32.364,76.13000000000001 C 34.096999999999994,76.924 35.952999999999996,77.379 37.800999999999995,77.379 L 42.955999999999996,77.379 C 43.818,77.379 44.516999999999996,76.679 44.516999999999996,75.81700000000001 C 44.516999999999996,74.956 43.818999999999996,74.25500000000001 42.955999999999996,74.25500000000001 L 37.800999999999995,74.25500000000001 C 33.126999999999995,74.25500000000001 28.193999999999996,70.34100000000001 27.029999999999994,65.709 L 24.586999999999993,55.985 C 24.374999999999993,55.146 23.52499999999999,54.634 22.689999999999994,54.849 C 21.853999999999996,55.058 21.344999999999995,55.909 21.555999999999994,56.744 L 23.999999999999993,66.472 C 24.605999999999995,68.887 25.976999999999993,71.115 27.782999999999994,72.92299999999999 C 27.636999999999993,73.09599999999999 27.502999999999993,73.28299999999999 27.397999999999993,73.49599999999998 L 23.624999999999993,81.22199999999998 C 23.022999999999993,82.45399999999998 23.39699999999999,83.93799999999997 24.509999999999994,84.73899999999998 C 31.560999999999993,89.80699999999997 39.717999999999996,92.24599999999998 47.803999999999995,92.24599999999998 C 60.25399999999999,92.24399999999999 72.53399999999999,86.46399999999998 80.34,75.60499999999999 C 86.575,66.929 89.061,56.344 87.335,45.799" fill="#000000"/>
	<path d="M 36.742,38.143 C 36.448,38.143 36.153,38.028 35.931999999999995,37.8 C 35.501,37.352999999999994 35.513999999999996,36.641 35.961,36.209999999999994 L 39.196,33.08899999999999 C 39.644,32.65899999999999 40.354,32.67199999999999 40.786,33.117999999999995 C 41.217,33.565 41.204,34.275999999999996 40.757,34.706999999999994 L 37.522,37.827999999999996 C 37.304,38.038 37.023,38.143 36.742,38.143 M 44.833,30.34 C 44.539,30.34 44.244,30.225 44.022999999999996,29.997 C 43.592,29.55 43.605,28.838 44.052,28.408 L 47.287,25.287000000000003 C 47.734,24.858000000000004 48.445,24.87 48.877,25.315 C 49.308,25.762 49.295,26.474 48.848,26.904 L 45.613,30.025 C 45.395,30.235 45.113,30.34 44.833,30.34 M 52.924,22.538 C 52.629,22.538 52.335,22.423000000000002 52.114,22.194 C 51.683,21.747 51.696,21.035 52.143,20.605 L 55.378,17.484 C 55.826,17.054000000000002 56.536,17.067 56.968,17.512 C 57.399,17.959 57.386,18.671 56.939,19.101 L 53.704,22.221999999999998 C 53.485,22.433 53.204,22.538 52.924,22.538" fill="#000000"/>
	<path d="M 71.441,66.643 C 71.261,66.643 71.08,66.6 70.912,66.51 L 66.94800000000001,64.387 C 66.4,64.094 66.194,63.412 66.48700000000001,62.866 C 66.78000000000002,62.318 67.46400000000001,62.113 68.00800000000001,62.405 L 71.97200000000001,64.528 C 72.519,64.82100000000001 72.72600000000001,65.503 72.433,66.049 C 72.23,66.427 71.843,66.643 71.441,66.643 M 61.533,61.335 C 61.354,61.335 61.173,61.292 61.005,61.202 L 57.041000000000004,59.079 C 56.493,58.786 56.287000000000006,58.104 56.580000000000005,57.558 C 56.873000000000005,57.01 57.556000000000004,56.806 58.101000000000006,57.097 L 62.06400000000001,59.22 C 62.61200000000001,59.513 62.81900000000001,60.195 62.525000000000006,60.741 C 62.322,61.12 61.936,61.335 61.533,61.335 M 51.625,56.026 C 51.446,56.026 51.264,55.984 51.096,55.893 L 47.132999999999996,53.771 C 46.584999999999994,53.477000000000004 46.37799999999999,52.795 46.67099999999999,52.25 C 46.96499999999999,51.702 47.64799999999999,51.495 48.19199999999999,51.789 L 52.15599999999999,53.911 C 52.70399999999999,54.205 52.90999999999999,54.887 52.61699999999999,55.432 C 52.414,55.812 52.026,56.026 51.625,56.026 M 41.718,50.72 C 41.539,50.72 41.357000000000006,50.677 41.189,50.586999999999996 L 37.225,48.464 C 36.677,48.171 36.471000000000004,47.49 36.764,46.943 C 37.057,46.396 37.742000000000004,46.189 38.285000000000004,46.483 L 42.249,48.605999999999995 C 42.797000000000004,48.898999999999994 43.003,49.57999999999999 42.71,50.126999999999995 C 42.507,50.504 42.119,50.72 41.718,50.72" fill="#000000"/>
	<path d="M 51.617,85.255 C 49.808,85.255 48.178999999999995,83.999 47.777,82.161 L 45.693,72.629 C 39.812999999999995,73.006 36.471,72.933 33.672,71.063 C 30.214999999999996,68.753 29.290999999999997,64.858 27.615999999999996,57.787000000000006 C 27.322999999999997,56.54800000000001 26.999999999999996,55.18600000000001 26.631999999999998,53.690000000000005 C 26.112,51.581 27.401999999999997,49.45 29.511,48.93000000000001 C 31.619999999999997,48.41100000000001 33.751,49.699000000000005 34.272,51.809000000000005 C 34.646,53.330000000000005 34.974,54.71300000000001 35.272999999999996,55.973000000000006 C 36.284,60.242000000000004 37.157999999999994,63.92900000000001 38.043,64.521 C 39.098,65.223 43.467999999999996,64.91 48.527,64.543 C 50.479,64.405 52.235,65.71700000000001 52.653,67.62700000000001 L 55.464,80.48 C 55.928,82.602 54.583,84.7 52.461999999999996,85.164 C 52.179,85.226 51.896,85.255 51.617,85.255" fill="#000000"/>
	<path cx="30.866" cy="43.299" d="M 26.262999999999998,43.299 A 4.603,4.168 0.0 1,0 35.468999999999994,43.299 A 4.603,4.168 0.0 1,0 26.262999999999995,43.299" fill="#000000" rx="4.603" ry="4.168" transform="matrix(-0.0709 -0.9975 0.9975 -0.0709 -10.137 77.1562)"/>
</svg>
