<?xml version="1.0" ?>
<svg xmlns="http://www.w3.org/2000/svg" xmlns:ev="http://www.w3.org/2001/xml-events" xmlns:xlink="http://www.w3.org/1999/xlink" baseProfile="full" enable-background="new 0 0 100 100" height="600px" version="1.1" viewBox="0 0 100 100" width="350px" x="0px" xml:space="preserve" y="0px">
	<defs/>
	<path d="M 46.095,28.479 C 46.032,28.479 45.966,28.471999999999998 45.902,28.458 C 44.562,28.171 43.308,27.465999999999998 42.274,26.416999999999998 C 41.918,26.054 41.921,25.47 42.284,25.112 C 42.647,24.755 43.229,24.761 43.588,25.122 C 44.368,25.915 45.301,26.444 46.288000000000004,26.655 C 46.785000000000004,26.761000000000003 47.103,27.251 46.996,27.749000000000002 C 46.903,28.183 46.521,28.479 46.095,28.479 M 48.829,28.393 C 48.427,28.393 48.057,28.127000000000002 47.942,27.721 C 47.804,27.23 48.09,26.722 48.58,26.584 C 49.552,26.311 50.458999999999996,25.727999999999998 51.204,24.895 C 51.544000000000004,24.515 52.129,24.485 52.506,24.823999999999998 C 52.885,25.162999999999997 52.917,25.746 52.578,26.124999999999996 C 51.599000000000004,27.219999999999995 50.388000000000005,27.991999999999997 49.079,28.358999999999995 C 48.995,28.382 48.911,28.393 48.829,28.393 M 41.377,24.422 C 41.028000000000006,24.422 40.694,24.225 40.538000000000004,23.887 C 39.978,22.673000000000002 39.669000000000004,21.355 39.618,19.969 C 39.599000000000004,19.46 39.997,19.032 40.506,19.015 C 40.972,18.972 41.443,19.393 41.46,19.902 C 41.502,21.043 41.755,22.123 42.213,23.115000000000002 C 42.426,23.577 42.225,24.125000000000004 41.762,24.339000000000002 C 41.637,24.396 41.505,24.422 41.377,24.422 M 53.344,24.094 C 53.226,24.094 53.108000000000004,24.072000000000003 52.992000000000004,24.025000000000002 C 52.52100000000001,23.831000000000003 52.298,23.292 52.49100000000001,22.821 C 52.910000000000004,21.809 53.12100000000001,20.717000000000002 53.12100000000001,19.578000000000003 C 53.12100000000001,19.079000000000004 53.08000000000001,18.582000000000004 52.99800000000001,18.1 C 52.91200000000001,17.599 53.24900000000001,17.122 53.75200000000001,17.038 C 54.25300000000001,16.953 54.73000000000001,17.29 54.81400000000001,17.791 C 54.91400000000001,18.374 54.964000000000006,18.975 54.964000000000006,19.578 C 54.964000000000006,20.961 54.706,22.288 54.19500000000001,23.525 C 54.05,23.88 53.706,24.094 53.344,24.094 M 40.83,18.118 C 40.754999999999995,18.118 40.678,18.107999999999997 40.601,18.089 C 40.108,17.962999999999997 39.81,17.462 39.936,16.968999999999998 C 40.281,15.616999999999997 40.903999999999996,14.360999999999997 41.736,13.334999999999997 C 42.058,12.940999999999997 42.638999999999996,12.880999999999997 43.032999999999994,13.200999999999997 C 43.428999999999995,13.521999999999997 43.48799999999999,14.102999999999996 43.16799999999999,14.497999999999998 C 42.501999999999995,15.316999999999997 42.001999999999995,16.328999999999997 41.721999999999994,17.424 C 41.616,17.841 41.241,18.118 40.83,18.118 M 53.043,16.252 C 52.708,16.252 52.385,16.069 52.223,15.749999999999998 C 51.705,14.742999999999999 50.987,13.898999999999997 50.141999999999996,13.312999999999999 C 49.724999999999994,13.023 49.620999999999995,12.447999999999999 49.912,12.03 C 50.202,11.610999999999999 50.775,11.508 51.196,11.799999999999999 C 52.286,12.559 53.208999999999996,13.633999999999999 53.863,14.909999999999998 C 54.095,15.361999999999998 53.917,15.918 53.464,16.15 C 53.328,16.22 53.185,16.252 53.043,16.252 M 44.562,13.079 C 44.230999999999995,13.079 43.912,12.9 43.745999999999995,12.588000000000001 C 43.507999999999996,12.139000000000001 43.67999999999999,11.581000000000001 44.129999999999995,11.343 C 45.42099999999999,10.658 46.852,10.408 48.266,10.62 C 48.769,10.696 49.117,11.165999999999999 49.04,11.668999999999999 C 48.964,12.172999999999998 48.497,12.514 47.991,12.443999999999999 C 46.967,12.29 45.933,12.472 44.992,12.970999999999998 C 44.855,13.045 44.707,13.079 44.562,13.079"/>
	<path d="M 54.152,90.547 C 53.4,90.547 52.668,90.292 52.032000000000004,89.81099999999999 C 51.627,89.50299999999999 51.547000000000004,88.925 51.854000000000006,88.52 C 52.163000000000004,88.116 52.74000000000001,88.035 53.14600000000001,88.342 C 53.82800000000001,88.86 54.67100000000001,88.80799999999999 55.30300000000001,88.196 C 55.66900000000001,87.842 56.25200000000001,87.85 56.60600000000001,88.217 C 56.96000000000001,88.582 56.95100000000001,89.16499999999999 56.58500000000001,89.52 C 55.902,90.183 55.038,90.547 54.152,90.547 M 40.272,90.547 C 38.846,90.54599999999999 37.579,89.576 36.879,87.953 C 36.678,87.48400000000001 36.894,86.943 37.361,86.741 C 37.826,86.545 38.370999999999995,86.756 38.571999999999996,87.223 C 39.001999999999995,88.222 39.66799999999999,88.771 40.4,88.697 C 40.915,88.641 41.361,89.01 41.415,89.515 C 41.469,90.021 41.103,90.475 40.597,90.53 C 40.49,90.542 40.381,90.547 40.272,90.547 M 42.632,88.95 C 42.482,88.95 42.329,88.913 42.187999999999995,88.83500000000001 C 41.742999999999995,88.58900000000001 41.580999999999996,88.028 41.827,87.58300000000001 C 42.123,87.04700000000001 42.303,86.35800000000002 42.347,85.59300000000002 C 42.366,85.26800000000001 42.402,84.84900000000002 42.453,84.35300000000002 C 42.506,83.84700000000002 42.955000000000005,83.49300000000002 43.465,83.53000000000003 C 43.972,83.58300000000003 44.34,84.03600000000003 44.288000000000004,84.54200000000003 C 44.24,85.00600000000003 44.205000000000005,85.39600000000003 44.18600000000001,85.69900000000003 C 44.126000000000005,86.75400000000003 43.87400000000001,87.68800000000003 43.440000000000005,88.47400000000003 C 43.271,88.778 42.957,88.95 42.632,88.95 M 51.188,87.677 C 50.773,87.677 50.395,87.394 50.293,86.97200000000001 C 50.196,86.57000000000001 50.133,86.14000000000001 50.108,85.69800000000001 C 50.07,85.04 49.995999999999995,84.18 49.897999999999996,83.177 C 49.848,82.67 50.217999999999996,82.21900000000001 50.724999999999994,82.17 C 51.24099999999999,82.125 51.681999999999995,82.491 51.73199999999999,82.997 C 51.83399999999999,84.029 51.90999999999999,84.914 51.94799999999999,85.593 C 51.967999999999996,85.927 52.01299999999999,86.244 52.083999999999996,86.539 C 52.20399999999999,87.034 51.9,87.531 51.404999999999994,87.651 C 51.334,87.668 51.261,87.677 51.188,87.677 M 57.174,87.348 C 57.107,87.348 57.038,87.341 56.97,87.326 C 56.474,87.214 56.162,86.72099999999999 56.274,86.223 L 56.303000000000004,86.087 C 56.44200000000001,85.373 56.553000000000004,84.239 56.63400000000001,82.711 C 56.662000000000006,82.203 57.10000000000001,81.814 57.605000000000004,81.84 C 58.11300000000001,81.86800000000001 58.50300000000001,82.302 58.476000000000006,82.811 C 58.388000000000005,84.44600000000001 58.27,85.631 58.11300000000001,86.433 L 58.07300000000001,86.63000000000001 C 57.975,87.058 57.595,87.348 57.174,87.348 M 37.131,85.82 C 36.666,85.82 36.267,85.47 36.215,84.999 C 36.111000000000004,84.045 36.02,82.789 35.945,81.264 C 35.921,80.756 36.312,80.324 36.821,80.298 C 37.318999999999996,80.26 37.760999999999996,80.664 37.787,81.174 C 37.859,82.662 37.946999999999996,83.881 38.048,84.799 C 38.103,85.305 37.738,85.759 37.232,85.816 C 37.198,85.818 37.164,85.82 37.131,85.82 M 43.701,82.618 C 43.662,82.618 43.622,82.615 43.582,82.609 C 43.077,82.544 42.721000000000004,82.08099999999999 42.787,81.577 C 42.931,80.47 43.101,79.225 43.286,77.90899999999999 C 43.356,77.40599999999999 43.81,77.04899999999999 44.328,77.12499999999999 C 44.832,77.19599999999998 45.183,77.66199999999999 45.112,78.16699999999999 C 44.928000000000004,79.47599999999998 44.758,80.713 44.614000000000004,81.814 C 44.554,82.279 44.158,82.618 43.701,82.618 M 50.524,81.253 C 50.06,81.253 49.661,80.904 49.609,80.433 C 49.482,79.284 49.339,78.046 49.190000000000005,76.771 C 49.13,76.265 49.493,75.808 49.999,75.749 C 50.508,75.687 50.962,76.053 51.021,76.55799999999999 C 51.17,77.836 51.314,79.079 51.441,80.232 C 51.498000000000005,80.738 51.131,81.194 50.626000000000005,81.25 C 50.592,81.251 50.558,81.253 50.524,81.253 M 57.663,80.918 C 57.653,80.918 57.644999999999996,80.918 57.638,80.918 C 57.128,80.90400000000001 56.727,80.48 56.741,79.97300000000001 C 56.771,78.83700000000002 56.791,77.60600000000001 56.802,76.302 C 56.807,75.795 57.217999999999996,75.387 57.724,75.387 C 57.727,75.387 57.73,75.387 57.732,75.387 C 58.241,75.392 58.650999999999996,75.808 58.646,76.31700000000001 C 58.635,77.63300000000001 58.616,78.87800000000001 58.584,80.021 C 58.57,80.521 58.159,80.918 57.663,80.918 M 36.756,79.375 C 36.261,79.375 35.852,78.981 35.835,78.482 C 35.799,77.32 35.77,76.079 35.746,74.784 C 35.737,74.274 36.142,73.854 36.650000000000006,73.84500000000001 C 36.657000000000004,73.84500000000001 36.662000000000006,73.84500000000001 36.668000000000006,73.84500000000001 C 37.169000000000004,73.84500000000001 37.581,74.24600000000001 37.59,74.75000000000001 C 37.61300000000001,76.03800000000001 37.643,77.27100000000002 37.679,78.42500000000001 C 37.695,78.93400000000001 37.294000000000004,79.36000000000001 36.786,79.37500000000001 C 36.776,79.375 36.766,79.375 36.756,79.375 M 44.59,76.216 C 44.547000000000004,76.216 44.503,76.213 44.459,76.207 C 43.954,76.134 43.605000000000004,75.66799999999999 43.67700000000001,75.16399999999999 L 44.20100000000001,71.50799999999998 C 44.275000000000006,71.00399999999998 44.73500000000001,70.65799999999999 45.245000000000005,70.72699999999998 C 45.748000000000005,70.79899999999998 46.099000000000004,71.26699999999998 46.026,71.77099999999997 L 45.502,75.42499999999997 C 45.436,75.885 45.041,76.216 44.59,76.216 M 49.783,74.834 C 49.322,74.834 48.924,74.489 48.868,74.021 C 48.722,72.787 48.577000000000005,71.549 48.438,70.352 C 48.38,69.846 48.743,69.38900000000001 49.249,69.331 C 49.762,69.27 50.211000000000006,69.635 50.27,70.141 C 50.408,71.336 50.554,72.57300000000001 50.7,73.805 C 50.760000000000005,74.31 50.398,74.769 49.892,74.828 C 49.854,74.832 49.819,74.834 49.783,74.834 M 57.732,74.465 C 57.224,74.465 56.811,74.053 56.811,73.544 C 56.81,72.35 56.803,71.11699999999999 56.792,69.86099999999999 C 56.788000000000004,69.35099999999998 57.197,68.93499999999999 57.706,68.93099999999998 C 57.708000000000006,68.93099999999998 57.711000000000006,68.93099999999998 57.714000000000006,68.93099999999998 C 58.220000000000006,68.93099999999998 58.63100000000001,69.33799999999998 58.636,69.84399999999998 C 58.647000000000006,71.10499999999998 58.653000000000006,72.34399999999998 58.654,73.54199999999997 C 58.654,74.052 58.242,74.465 57.732,74.465 L 57.732,74.465 M 36.627,72.923 C 36.122,72.923 35.711000000000006,72.518 35.706,72.012 C 35.693000000000005,70.806 35.684000000000005,69.569 35.679,68.31700000000001 C 35.677,67.808 36.087,67.393 36.597,67.391 C 36.598,67.391 36.6,67.391 36.601,67.391 C 37.109,67.391 37.521,67.802 37.522999999999996,68.31 C 37.528,69.556 37.537,70.789 37.549,71.992 C 37.555,72.50200000000001 37.146,72.91900000000001 36.638,72.924 C 36.634,72.923 36.63,72.923 36.627,72.923 M 45.503,69.819 C 45.46,69.819 45.417,69.81700000000001 45.373,69.81 C 44.869,69.739 44.518,69.273 44.589,68.769 C 44.774,67.45400000000001 44.943999999999996,66.215 45.088,65.12 C 45.153,64.61500000000001 45.61,64.254 46.120000000000005,64.325 C 46.62500000000001,64.39 46.981,64.85300000000001 46.915000000000006,65.357 C 46.77100000000001,66.459 46.601000000000006,67.704 46.415000000000006,69.026 C 46.35,69.486 45.955,69.819 45.503,69.819 M 49.042,68.416 C 48.577,68.416 48.179,68.067 48.127,67.596 C 47.977000000000004,66.22800000000001 47.847,64.971 47.75,63.905 C 47.705,63.397 48.079,62.95 48.586,62.904 C 49.112,62.852000000000004 49.541,63.232000000000006 49.586999999999996,63.739000000000004 C 49.681,64.79700000000001 49.81099999999999,66.04100000000001 49.958999999999996,67.394 C 50.01499999999999,67.9 49.648999999999994,68.35600000000001 49.144,68.412 C 49.109,68.414 49.075,68.416 49.042,68.416 M 57.686,68.01 C 57.181,68.01 56.771,67.605 56.764,67.101 C 56.747,65.876 56.729000000000006,64.643 56.707,63.413 C 56.697,62.904999999999994 57.103,62.483999999999995 57.612,62.474999999999994 C 58.084,62.489 58.54,62.870999999999995 58.550000000000004,63.379999999999995 C 58.571000000000005,64.613 58.591,65.85 58.607000000000006,67.07499999999999 C 58.614000000000004,67.585 58.20700000000001,68.002 57.69800000000001,68.00999999999999 C 57.693,68.01 57.688,68.01 57.686,68.01 M 36.595,66.456 C 36.086,66.456 35.673,66.054 35.673,65.544 C 35.673,64.297 35.676,63.068 35.682,61.851 C 35.684000000000005,61.342999999999996 36.097,60.934 36.604,60.934 C 36.604,60.934 36.606,60.934 36.608,60.934 C 37.117,60.937 37.526999999999994,61.351 37.525,61.86 C 37.519999999999996,63.075 37.516999999999996,64.301 37.516999999999996,65.526 C 37.517,66.034 37.104,66.456 36.595,66.456 M 66.57,63.249 C 66.53099999999999,63.249 66.493,63.246 66.45299999999999,63.241 C 64.853,63.038 63.569999999999986,61.744 63.25799999999999,60.022999999999996 C 63.167999999999985,59.522 63.499999999999986,59.041999999999994 63.999999999999986,58.95099999999999 C 64.50799999999998,58.85999999999999 64.98099999999998,59.193999999999996 65.07199999999999,59.693999999999996 C 65.26499999999999,60.763999999999996 66.02199999999999,61.327999999999996 66.68499999999999,61.41199999999999 C 67.18999999999998,61.47699999999999 67.54699999999998,61.937999999999995 67.484,62.44299999999999 C 67.425,62.908 67.027,63.249 66.57,63.249 M 26.903,63.137 C 26.753999999999998,63.137 26.601,63.101 26.461,63.024 C 25.697,62.606 24.698,61.609 24.278,59.246 C 24.189,58.744 24.523,58.267 25.023999999999997,58.178000000000004 C 25.531999999999996,58.087 26.003999999999998,58.423 26.092,58.92400000000001 C 26.410999999999998,60.721000000000004 27.075,61.260000000000005 27.346,61.40800000000001 C 27.793,61.65200000000001 27.956,62.21300000000001 27.712,62.659000000000006 C 27.545,62.964 27.229,63.137 26.903,63.137 M 47.256,62.499 L 46.331,62.488 L 45.414,62.396 C 45.414,62.395 45.422000000000004,62.314 45.422000000000004,62.313 C 45.651,60.005 46.798,59.329 47.74400000000001,59.501000000000005 C 48.327000000000005,59.611000000000004 48.81300000000001,60.040000000000006 49.120000000000005,60.708000000000006 C 49.333000000000006,61.172000000000004 49.129000000000005,61.71900000000001 48.667,61.931000000000004 C 48.222,62.133 47.707,61.95700000000001 47.477000000000004,61.540000000000006 C 47.393,61.736 47.301,62.046 47.256,62.499 M 29.308,62.438 C 29.128,62.438 28.945,62.385000000000005 28.785,62.275000000000006 C 28.367,61.986000000000004 28.262,61.412000000000006 28.551,60.99300000000001 C 28.799999999999997,60.63200000000001 28.938,60.13100000000001 28.938,59.58300000000001 C 28.938,59.45500000000001 28.930999999999997,59.323000000000015 28.916,59.18700000000001 C 28.878,58.84000000000001 28.859,58.48300000000001 28.859,58.116000000000014 L 28.861,57.926000000000016 C 28.869,57.42200000000002 29.28,57.01900000000002 29.783,57.01900000000002 C 29.787000000000003,57.01900000000002 29.792,57.01900000000002 29.797,57.01900000000002 C 30.306,57.02800000000002 30.713,57.44600000000002 30.705000000000002,57.95600000000002 L 30.703000000000003,58.11700000000002 C 30.703000000000003,58.41600000000002 30.718000000000004,58.70700000000002 30.749000000000002,58.987000000000016 C 30.771,59.192000000000014 30.782000000000004,59.39200000000002 30.782000000000004,59.585000000000015 C 30.782000000000004,60.51700000000002 30.535000000000004,61.366000000000014 30.069000000000003,62.04300000000001 C 29.888,62.299 29.6,62.438 29.308,62.438 M 68.894,62.064 C 68.727,62.064 68.557,62.019 68.406,61.923 C 67.974,61.652 67.84400000000001,61.083 68.114,60.652 C 68.42500000000001,60.157000000000004 68.611,59.444 68.653,58.59 C 68.664,58.370000000000005 68.66900000000001,58.148 68.66900000000001,57.92400000000001 L 68.665,57.596000000000004 C 68.653,57.086000000000006 69.057,56.664 69.56500000000001,56.653000000000006 C 70.07400000000001,56.648 70.49600000000001,57.04500000000001 70.50800000000001,57.553000000000004 L 70.51100000000001,57.92400000000001 C 70.51100000000001,58.178000000000004 70.507,58.431000000000004 70.49400000000001,58.68200000000001 C 70.43500000000002,59.86700000000001 70.16000000000001,60.85900000000001 69.67600000000002,61.63100000000001 C 69.5,61.911 69.2,62.064 68.894,62.064 M 57.576,61.552 C 57.076,61.552 56.664,61.152 56.654,60.65 C 56.629000000000005,59.399 56.602000000000004,58.166 56.574000000000005,56.961999999999996 C 56.562000000000005,56.452999999999996 56.96600000000001,56.029999999999994 57.474000000000004,56.019 C 57.974000000000004,56.016 58.406000000000006,56.411 58.417,56.919 C 58.444,58.123 58.472,59.358999999999995 58.497,60.611 C 58.507,61.120999999999995 58.102,61.541 57.594,61.550999999999995 C 57.589,61.552 57.583,61.552 57.576,61.552 M 36.621,60.013 C 36.619,60.013 36.616,60.013 36.615,60.013 C 36.105000000000004,60.009 35.695,59.592999999999996 35.699000000000005,59.085 C 35.708000000000006,57.821 35.720000000000006,56.584 35.733000000000004,55.391 C 35.73800000000001,54.882 36.163000000000004,54.443999999999996 36.666000000000004,54.48 C 37.175000000000004,54.486 37.582,54.903 37.577000000000005,55.413 C 37.563,56.602999999999994 37.55200000000001,57.837999999999994 37.543000000000006,59.099 C 37.539,59.604 37.127,60.013 36.621,60.013 M 64.087,58.021 C 63.622,58.021 63.224000000000004,57.672000000000004 63.172000000000004,57.201 C 63.066,56.231 62.809000000000005,55.076 62.410000000000004,53.769 C 62.262,53.282 62.535000000000004,52.766999999999996 63.022000000000006,52.619 C 63.50900000000001,52.467 64.024,52.745 64.17200000000001,53.231 C 64.60500000000002,54.648 64.88400000000001,55.915 65.00300000000001,56.999 C 65.05900000000001,57.505 64.69300000000001,57.961000000000006 64.18800000000002,58.017 C 64.154,58.019 64.12,58.021 64.087,58.021 M 24.921,57.256 C 24.427,57.256 24.019,56.864 24.000999999999998,56.365 C 23.99,56.069 23.985999999999997,55.772000000000006 23.985999999999997,55.474000000000004 C 23.987,54.534000000000006 24.035999999999998,53.554 24.131999999999998,52.562000000000005 C 24.180999999999997,52.05500000000001 24.621,51.688 25.137999999999998,51.734 C 25.645,51.783 26.016,52.233000000000004 25.965999999999998,52.74 C 25.874999999999996,53.675000000000004 25.828999999999997,54.594 25.827999999999996,55.475 C 25.827999999999996,55.75 25.832999999999995,56.026 25.841999999999995,56.302 C 25.860999999999994,56.81 25.461999999999996,57.237 24.951999999999995,57.254 C 24.942,57.256 24.932,57.256 24.921,57.256 M 30.125,56.12 C 30.06,56.12 29.995,56.114 29.93,56.099 C 29.432,55.992999999999995 29.117,55.501 29.223,55.003 C 29.468999999999998,53.864 29.839,52.634 30.323999999999998,51.344 C 30.503999999999998,50.865 31.034,50.627 31.511,50.805 C 31.988,50.984 32.229,51.516 32.051,51.992 C 31.598000000000003,53.198 31.253,54.342 31.027,55.393 C 30.932,55.825 30.55,56.12 30.125,56.12 M 69.322,55.745 C 68.87700000000001,55.745 68.485,55.422 68.413,54.968999999999994 C 68.24,53.88699999999999 67.98599999999999,52.74099999999999 67.637,51.468999999999994 C 67.502,50.97899999999999 67.79,50.471999999999994 68.282,50.33599999999999 C 68.76599999999999,50.19899999999999 69.28,50.48799999999999 69.41499999999999,50.980999999999995 C 69.78299999999999,52.31999999999999 70.05099999999999,53.529999999999994 70.234,54.678999999999995 C 70.314,55.181999999999995 69.97,55.653999999999996 69.46799999999999,55.733999999999995 C 69.418,55.741 69.37,55.745 69.322,55.745 M 57.432,55.096 C 56.933,55.096 56.523,54.699 56.510000000000005,54.19799999999999 L 56.419000000000004,50.507999999999996 C 56.406000000000006,49.99999999999999 56.809000000000005,49.57599999999999 57.318000000000005,49.565 C 57.839000000000006,49.592999999999996 58.25000000000001,49.955999999999996 58.261,50.463 L 58.353,54.153 C 58.364000000000004,54.661 57.961,55.085 57.454,55.096 C 57.445,55.096 57.438,55.096 57.432,55.096 M 36.689,53.555 C 36.685,53.555 36.681,53.555 36.676,53.555 C 36.167,53.548 35.760000000000005,53.13 35.767,52.621 C 35.786,51.300000000000004 35.805,50.059000000000005 35.825,48.929 C 35.834,48.42 36.261,48.027 36.763000000000005,48.023 C 37.27100000000001,48.033 37.67700000000001,48.453 37.668000000000006,48.961000000000006 C 37.648,50.089000000000006 37.62800000000001,51.32600000000001 37.61000000000001,52.647000000000006 C 37.604,53.151 37.192,53.555 36.689,53.555 M 62.381,51.807 C 62.012,51.807 61.663,51.584 61.522,51.219 C 61.098,50.124 60.616,49.003 60.086999999999996,47.888 C 59.86899999999999,47.428 60.065999999999995,46.878 60.525999999999996,46.66 C 60.986999999999995,46.440999999999995 61.535999999999994,46.63999999999999 61.754,47.099 C 62.3,48.254 62.800999999999995,49.416 63.241,50.552 C 63.425,51.025999999999996 63.188,51.561 62.714,51.744 C 62.604,51.787 62.492,51.807 62.381,51.807 M 25.428,50.833 C 25.375,50.833 25.322,50.829 25.267,50.818 C 24.766,50.73 24.431,50.253 24.52,49.751 C 24.73,48.562 25.003999999999998,47.324999999999996 25.335,46.076 C 25.466,45.584 25.974,45.294 26.463,45.422 C 26.954,45.552 27.248,46.056999999999995 27.117,46.55 C 26.799,47.747 26.536,48.933 26.334,50.071 C 26.256,50.519 25.867,50.833 25.428,50.833 M 32.261,50.04 C 32.13,50.04 31.998,50.012 31.872000000000003,49.954 C 31.411000000000005,49.738 31.211000000000002,49.19 31.427000000000003,48.728 C 31.957000000000004,47.591 32.564,46.434000000000005 33.178000000000004,45.382000000000005 C 33.43600000000001,44.941 34.001000000000005,44.795 34.440000000000005,45.05200000000001 C 34.879000000000005,45.309000000000005 35.02700000000001,45.873000000000005 34.77,46.31300000000001 C 34.183,47.31700000000001 33.604000000000006,48.42100000000001 33.097,49.50700000000001 C 32.94,49.843 32.608,50.04 32.261,50.04 M 67.716,49.502 C 67.33,49.502 66.97,49.258 66.841,48.871 C 66.499,47.842 66.09599999999999,46.718 65.61,45.435 C 65.428,44.959 65.669,44.427 66.143,44.247 C 66.621,44.063 67.152,44.305 67.332,44.78 C 67.829,46.088 68.24,47.235 68.591,48.289 C 68.75099999999999,48.771 68.49,49.294000000000004 68.00699999999999,49.455 C 67.911,49.486 67.812,49.502 67.716,49.502 M 57.271,48.639 C 56.772,48.639 56.362,48.242000000000004 56.349000000000004,47.74 C 56.313,46.276 56.284000000000006,45.021 56.267,44.043 C 56.258,43.533 56.663000000000004,43.113 57.172000000000004,43.105 C 57.26500000000001,43.101 57.356,43.116 57.44200000000001,43.13999999999999 C 57.25500000000001,42.879999999999995 57.108000000000004,42.70199999999999 57.00300000000001,42.59799999999999 C 56.64000000000001,42.24199999999999 56.63400000000001,41.65899999999999 56.99000000000001,41.294999999999995 C 57.345000000000006,40.931 57.93000000000001,40.925 58.29400000000001,41.282 C 59.00400000000001,41.977 59.96600000000001,43.647999999999996 60.47700000000001,44.583 C 60.72100000000001,45.028999999999996 60.55600000000001,45.589 60.110000000000014,45.833999999999996 C 59.664000000000016,46.077 59.10200000000001,45.913 58.859000000000016,45.467 C 58.58600000000001,44.967 58.338000000000015,44.536 58.11400000000002,44.169 C 58.13200000000002,45.119 58.15900000000002,46.315 58.19300000000002,47.69499999999999 C 58.20600000000002,48.20399999999999 57.80300000000002,48.626999999999995 57.295000000000016,48.638999999999996 C 57.286,48.639 57.278,48.639 57.271,48.639 M 36.8,47.1 C 36.793,47.1 36.787,47.1 36.778999999999996,47.1 C 36.269999999999996,47.089 35.867,46.667 35.87799999999999,46.159 C 35.891999999999996,45.479 35.90599999999999,44.862 35.919999999999995,44.332 C 35.61599999999999,44.498 35.23199999999999,44.485 34.934,44.267 C 34.522999999999996,43.965 34.434999999999995,43.389 34.736,42.978 C 35.766,41.574 36.282,41.289 36.775999999999996,41.289 C 36.776999999999994,41.289 36.778999999999996,41.289 36.781,41.289 C 37.299,41.289 37.826,41.682 37.826,42.432 C 37.826,42.446000000000005 37.824,42.516000000000005 37.824,42.528 C 37.806,42.795 37.769999999999996,43.897999999999996 37.721,46.199999999999996 C 37.71,46.7 37.3,47.1 36.8,47.1 M 27.009,44.583 C 26.915,44.583 26.819,44.568 26.725,44.537 C 26.242,44.381 25.976000000000003,43.861 26.132,43.377 C 26.508000000000003,42.213 26.937,41.026 27.403000000000002,39.853 C 27.591,39.379000000000005 28.128000000000004,39.15 28.6,39.336 C 29.074,39.524 29.304000000000002,40.061 29.117,40.533 C 28.665,41.671 28.251,42.818 27.887,43.944 C 27.76,44.335 27.397,44.583 27.009,44.583 M 65.473,43.447 C 65.105,43.447 64.757,43.225 64.615,42.86 C 64.05999999999999,41.439 63.641999999999996,40.358 63.318999999999996,39.4 C 63.16,38.929 63.395999999999994,38.4 63.861999999999995,38.225 C 64.324,38.048 64.841,38.257 65.03099999999999,38.716 C 65.04299999999999,38.742000000000004 65.064,38.805 65.073,38.833 C 65.377,39.729 65.78599999999999,40.791 66.333,42.19 C 66.519,42.663 66.283,43.198 65.809,43.382999999999996 C 65.698,43.428 65.585,43.447 65.473,43.447 M 29.441,38.624 C 29.265,38.624 29.087,38.573 28.929,38.467000000000006 C 28.506,38.18500000000001 28.392999999999997,37.61200000000001 28.676,37.18900000000001 C 29.384999999999998,36.13100000000001 30.366,35.196000000000005 31.592,34.40800000000001 C 32.022,34.13400000000001 32.591,34.257000000000005 32.865,34.68400000000001 C 33.14,35.113000000000014 33.016000000000005,35.68200000000001 32.589,35.957000000000015 C 31.576999999999998,36.609000000000016 30.775,37.368000000000016 30.206999999999997,38.21500000000002 C 30.03,38.48 29.738,38.624 29.441,38.624 M 62.772,37.64 C 62.521,37.64 62.269999999999996,37.537 62.088,37.337 C 61.416000000000004,36.593 60.514,35.926 59.403,35.355000000000004 C 58.949999999999996,35.12200000000001 58.772999999999996,34.566 59.007,34.114000000000004 C 59.239,33.661 59.794999999999995,33.481 60.248,33.717000000000006 C 61.556,34.391000000000005 62.635,35.193000000000005 63.455999999999996,36.101000000000006 C 63.797,36.479000000000006 63.767999999999994,37.06300000000001 63.38999999999999,37.404 C 63.215,37.562 62.993,37.64 62.772,37.64 M 34.557,34.86 C 34.190000000000005,34.86 33.843,34.639 33.7,34.278 C 33.512,33.805 33.744,33.269 34.218,33.082 C 35.315000000000005,32.646 36.551,32.277 37.894000000000005,31.985 C 38.395,31.875999999999998 38.882000000000005,32.192 38.992000000000004,32.69 C 39.1,33.187 38.784000000000006,33.678 38.287000000000006,33.787 C 37.043000000000006,34.058 35.90200000000001,34.397 34.897000000000006,34.796 C 34.785,34.84 34.67,34.86 34.557,34.86 M 57.272,34.405 C 57.177,34.405 57.08,34.391 56.985,34.359 C 55.94,34.018 54.777,33.731 53.528999999999996,33.507000000000005 C 53.028,33.417 52.693999999999996,32.93900000000001 52.784,32.438 C 52.874,31.936999999999998 53.351,31.601000000000003 53.853,31.693 C 55.186,31.931 56.432,32.24 57.558,32.608000000000004 C 58.042,32.766000000000005 58.306,33.287000000000006 58.147,33.77 C 58.021,34.159 57.66,34.405 57.272,34.405 M 40.816,33.338 C 40.36,33.338 39.963,33.001 39.904,32.536 C 39.837,32.032000000000004 40.192,31.568 40.698,31.503 C 41.873,31.348 43.136,31.238 44.45,31.175 C 44.951,31.14 45.39,31.542 45.415000000000006,32.052 C 45.43900000000001,32.561 45.047000000000004,32.992 44.53900000000001,33.017 C 43.27400000000001,33.078 42.06300000000001,33.183 40.93700000000001,33.330000000000005 C 40.896,33.335 40.856,33.338 40.816,33.338 M 50.951,33.145 C 50.921,33.145 50.889,33.143 50.858,33.14 C 49.324,32.988 48.058,32.955 47.265,32.955 C 46.756,32.955 46.344,32.542 46.344,32.033 C 46.344,31.523 46.756,31.111 47.265,31.111 C 48.1,31.111 49.432,31.144000000000002 51.041,31.305 C 51.547999999999995,31.355999999999998 51.916999999999994,31.807 51.866,32.314 C 51.82,32.79 51.419,33.145 50.951,33.145"/>
</svg>
