<?xml version="1.0" ?>
<svg xmlns="http://www.w3.org/2000/svg" xmlns:ev="http://www.w3.org/2001/xml-events" xmlns:xlink="http://www.w3.org/1999/xlink" baseProfile="full" enable-background="new 0 0 100 82.777" height="497px" version="1.1" viewBox="0 0 100 82.777" width="600px" x="0px" xml:space="preserve" y="0px">
	<defs/>
	<path d="M 25.132,43.53 C 14.485,40.677 3.538,46.998 0.685,57.646 C -2.168,68.292 4.153,79.24 14.799,82.093 C 25.445999999999998,84.946 36.394,78.625 39.245999999999995,67.97800000000001 C 42.1,57.331 35.779,46.384 25.132,43.53 M 25.602,47.304 C 28.869,48.493 31.554000000000002,50.633 33.439,53.324 L 24.739,58.348 C 24.246000000000002,57.813 23.662,57.367 23.0,57.016 L 25.602,47.304 M 22.56,46.5 C 22.573999999999998,46.503 22.589,46.511 22.604,46.513 L 19.993,56.257999999999996 C 19.279,56.251 18.578999999999997,56.36299999999999 17.916999999999998,56.577999999999996 L 12.893999999999998,47.878 C 15.827,46.491 19.179,45.953 22.56,46.5 L 22.56,46.5 M 34.983,55.999 C 36.315,58.939 36.781,62.28 36.189,65.643 L 26.477,63.04 C 26.499,62.361 26.415,61.694 26.239,61.059 L 34.983,55.999 M 10.235,49.451 L 15.282,58.193 C 14.838,58.641 14.46,59.165 14.157,59.738 L 4.445,57.136 C 5.601,53.961 7.65,51.327 10.235,49.451 M 3.657,60.122 L 13.402,62.734 C 13.398,63.419000000000004 13.495999999999999,64.09100000000001 13.696,64.73100000000001 L 4.971,69.76 C 3.606,66.832 3.099,63.489 3.657,60.122 L 3.657,60.122 M 25.634,66.012 L 35.379,68.623 C 34.166999999999994,71.849 32.021,74.503 29.337999999999997,76.35900000000001 L 24.314999999999998,67.66000000000001 C 24.837,67.191 25.28,66.635 25.634,66.012 M 15.271,67.381 C 15.694,67.812 16.176000000000002,68.185 16.715,68.489 L 14.104,78.23400000000001 C 10.972999999999999,77.055 8.375,75.00300000000001 6.528999999999999,72.42600000000002 L 15.271,67.381 M 21.599,69.135 L 26.646,77.87700000000001 C 23.729,79.17800000000001 20.423000000000002,79.63400000000001 17.095,79.049 L 19.698,69.337 C 20.35,69.36 20.986,69.297 21.599,69.135" fill="#010101"/>
	<path d="M 60.76,43.964 C 50.575,48.18 45.735,59.856 49.95,70.042 C 54.166000000000004,80.226 65.845,85.065 76.028,80.85 C 86.21300000000001,76.63499999999999 91.052,64.95599999999999 86.83800000000001,54.77199999999999 C 82.622,44.587 70.943,39.748 60.76,43.964 M 63.428,46.673 C 66.744,45.627 70.178,45.691 73.31,46.679 L 69.464,55.959 C 68.748,55.836000000000006 68.012,55.836000000000006 67.274,55.962 L 63.428,46.673 L 63.428,46.673 M 60.525,47.886 C 60.539,47.878 60.554,47.876000000000005 60.567,47.868 L 64.426,57.189 C 63.856,57.619 63.367000000000004,58.133 62.974000000000004,58.707 L 53.694,54.86 C 55.178,51.977 57.51,49.509 60.525,47.886 L 60.525,47.886 M 76.165,47.862 C 79.01,49.383 81.414,51.751000000000005 82.989,54.779 L 73.7,58.625 C 73.304,58.073 72.83200000000001,57.595 72.304,57.198 L 76.165,47.862 M 52.541,57.728 L 61.867,61.592 C 61.787,62.219 61.806,62.863 61.915,63.503 L 52.625,67.35 C 51.609,64.127 51.632,60.789 52.541,57.728 M 53.816,70.199 L 63.138000000000005,66.34 C 63.551,66.88600000000001 64.039,67.36 64.587,67.745 L 60.724000000000004,77.045 C 57.859,75.552 55.424,73.209 53.816,70.199 M 74.839,61.496 L 84.161,57.638000000000005 C 85.162,60.935 85.075,64.34700000000001 84.077,67.453 L 74.79599999999999,63.607 C 74.925,62.917 74.938,62.207 74.839,61.496 L 74.839,61.496 M 67.45,68.889 C 68.048,68.97399999999999 68.658,68.97699999999999 69.27,68.89 L 73.12899999999999,78.213 C 69.92699999999999,79.18299999999999 66.61599999999999,79.13499999999999 63.58299999999999,78.214 L 67.45,68.889 L 67.45,68.889 M 73.538,66.43 L 82.863,70.295 C 81.341,73.10300000000001 78.995,75.477 75.999,77.037 L 72.152,67.74700000000001 C 72.685,67.369 73.15,66.932 73.538,66.43 L 73.538,66.43" fill="#010101"/>
	<path d="M 4.695,40.911 L 4.695,47.146 C 7.771000000000001,43.824 11.921,41.615 16.436,40.911 L 4.695,40.911 M 22.67,40.911 C 23.369000000000003,41.02 24.072000000000003,41.160000000000004 24.771,41.346000000000004 C 29.099,42.49400000000001 32.719,44.959 35.311,48.18600000000001 L 52.096000000000004,48.18600000000001 C 54.158,45.607000000000006 56.892,43.49400000000001 60.178000000000004,42.147000000000006 C 61.6,41.563 63.051,41.157000000000004 64.506,40.91100000000001 L 22.67,40.91100000000001 L 22.67,40.911" fill="#010101"/>
	<path d="M 73.704,34.365 L 73.704,41.834 C 77.97399999999999,42.784000000000006 81.89599999999999,45.11 84.755,48.54900000000001 C 88.91499999999999,43.821000000000005 91.136,39.093 88.06,34.364000000000004 L 73.704,34.364000000000004 L 73.704,34.365" fill="#010101"/>
	<path d="M 82.152,10.185 C 79.23,10.185 76.878,12.537 76.878,15.459 L 76.878,28.179000000000002 C 76.878,31.1 79.231,33.452 82.152,33.452 C 83.248,33.452 84.26,33.128 85.102,32.559999999999995 L 92.355,34.218999999999994 L 90.708,43.965999999999994 C 90.514,45.11999999999999 91.04899999999999,46.205999999999996 91.966,46.709999999999994 C 92.04799999999999,47.495999999999995 92.896,48.288 94.094,48.608999999999995 L 96.97699999999999,49.385999999999996 C 98.38699999999999,49.76499999999999 99.71999999999998,49.339999999999996 99.96199999999999,48.437 C 100.204,47.534 99.25699999999999,46.506 97.84599999999999,46.126 L 95.38699999999999,45.461999999999996 C 95.48099999999998,45.251999999999995 95.53999999999999,45.026999999999994 95.58099999999999,44.788 L 97.23899999999999,34.95099999999999 C 97.33599999999998,34.37799999999999 97.25399999999999,33.81499999999999 97.03299999999999,33.337999999999994 C 97.11699999999999,33.172 97.17399999999999,32.98799999999999 97.21699999999998,32.8 C 97.52399999999999,31.464 96.62699999999998,30.129999999999995 95.20299999999999,29.802999999999997 L 87.42499999999998,28.006999999999998 L 87.42499999999998,21.199999999999996 L 87.42499999999998,16.086999999999996 L 87.42499999999998,15.458999999999996 C 87.425,12.537 85.073,10.185 82.152,10.185 L 82.152,10.185" fill="#010101"/>
	<path d="M 89.609,4.91 C 89.609,7.621 87.41199999999999,9.818999999999999 84.701,9.818999999999999 C 81.98899999999999,9.818999999999999 79.791,7.620999999999999 79.791,4.909999999999999 C 79.791,2.1989999999999994 81.98899999999999,-8.881784197001252e-16 84.701,-8.881784197001252e-16 C 87.412,0.0 89.609,2.198 89.609,4.91" fill="#010101"/>
	<path d="M 16.694,26.263 L 3.703999999999999,30.507 L 3.703999999999999,33.538000000000004 C 3.703999999999999,34.847 4.765999999999999,35.907000000000004 6.080999999999999,35.907000000000004 L 69.283,35.907000000000004 L 76.368,28.631000000000004 C 76.368,27.321000000000005 75.306,26.263000000000005 73.99,26.263000000000005 L 16.694,26.263000000000005 L 16.694,26.263" fill="#010101"/>
	<path d="M 5.018,37.487 L 71.75,37.487 C 72.303,37.487 72.75,37.935 72.75,38.487 L 72.75,38.487 C 72.75,39.039 72.303,39.487 71.75,39.487 L 5.018,39.487 C 4.465999999999999,39.487 4.018,39.039 4.018,38.487 L 4.018,38.487 C 4.018,37.935 4.466,37.487 5.018,37.487" fill="#010101"/>
	<path d="M 20.495,20.49 L 36.92,20.49 C 37.472,20.49 37.92,20.938 37.92,21.49 L 37.92,23.961 C 37.92,24.512999999999998 37.472,24.961 36.92,24.961 L 20.495,24.961 C 19.943,24.961 19.495,24.512999999999998 19.495,23.961 L 19.495,21.49 C 19.495,20.938 19.942,20.49 20.495,20.49" fill="#010101"/>
	<path d="M 39.733,13.31 L 52.364999999999995,13.31 C 52.916999999999994,13.31 53.364,13.757 53.364,14.31 L 53.364,23.961 C 53.364,24.512999999999998 52.916999999999994,24.961 52.364999999999995,24.961 L 39.733,24.961 C 39.18,24.961 38.733,24.512999999999998 38.733,23.961 L 38.733,14.31 C 38.733,13.757 39.181,13.31 39.733,13.31" fill="#010101"/>
</svg>
