<?xml version="1.0" ?>
<svg xmlns="http://www.w3.org/2000/svg" xmlns:ev="http://www.w3.org/2001/xml-events" xmlns:xlink="http://www.w3.org/1999/xlink" baseProfile="full" enable-background="new 0 0 100 100" height="600px" version="1.1" viewBox="0 0 100 100" width="511px" x="0px" xml:space="preserve" y="0px">
	<defs/>
	<path d="M 24.928,70.151 C 20.355,67.86399999999999 8.881,65.568 7.465,53.166999999999994 L 92.535,53.166999999999994 C 91.514,57.334999999999994 86.133,68.64099999999999 76.908,71.17999999999999 C 67.683,73.719 64.433,74.336 64.433,78.978 C 64.433,84.038 70.531,85.776 73.45200000000001,88.946 C 74.67800000000001,90.277 75.84000000000002,91.791 76.57700000000001,93.455 C 77.912,96.467 77.936,99.999 77.936,99.999 L 17.208,99.999 C 17.208,99.999 18.237,92.28 25.442,86.104 C 32.647,79.928 30.074,72.723 24.928,70.151"/>
	<path d="M 7.465,46.156 C 7.465,48.519 9.382,50.435 11.745000000000001,50.435 L 28.148,50.435 C 30.512,50.435 32.428,48.519000000000005 32.428,46.156000000000006 L 32.428,4.28 C 32.428,1.9160000000000004 30.510999999999996,0.0 28.147999999999996,0.0 L 11.745,0.0 C 9.381,0.0 7.464999999999999,1.916 7.464999999999999,4.28 L 7.464999999999999,46.156 L 7.465,46.156"/>
	<path d="M 33.589,50.435 C 33.589,47.451 36.007999999999996,45.031000000000006 38.992999999999995,45.031000000000006 L 87.13,45.031000000000006 C 90.11399999999999,45.031000000000006 92.535,47.45100000000001 92.535,50.435 L 33.589,50.435"/>
</svg>
