<?xml version="1.0" ?>
<svg xmlns="http://www.w3.org/2000/svg" xmlns:ev="http://www.w3.org/2001/xml-events" xmlns:xlink="http://www.w3.org/1999/xlink" baseProfile="full" enable-background="new 0 0 95.421 90.213" height="173px" version="1.1" viewBox="0 0 95.421 90.213" width="600px" x="0px" xml:space="preserve" y="0px">
	<defs/>
	<path d="M 6.301,90.211 C 2.818,90.209 0.002,87.394 0.0,83.913 L 0.0,83.913 L 0.0,18.394 C 0.002,14.912999999999998 2.818,12.096999999999998 6.301,12.094999999999999 L 6.301,12.094999999999999 L 40.083,12.094999999999999 L 31.08,21.095 L 9.0,21.095 L 9.0,81.21199999999999 L 66.469,81.21399999999998 L 66.469,69.125 L 75.47099999999999,60.125 L 75.469,83.913 C 75.466,87.392 72.651,90.209 69.169,90.213 L 69.169,90.213 L 6.301,90.211 L 6.301,90.211"/>
	<path d="M 66.171,11.301 L 66.171,0.0 L 95.421,29.25 L 66.046,58.625 L 66.046,46.875 C 66.046,46.875 51.46000000000001,43.981 36.46300000000001,53.333 C 28.25400000000001,58.417 22.711000000000006,65.106 19.296000000000006,70.375 C 19.296000000000006,70.375 20.406000000000006,52.125 30.906000000000006,35.5 C 44.033,14.716 66.171,11.301 66.171,11.301"/>
	<path d="M 225.3,90.211 C 221.818,90.209 219.001,87.394 218.99900000000002,83.913 L 218.99900000000002,83.913 L 218.99900000000002,18.394 C 219.00100000000003,14.912999999999998 221.81700000000004,12.096999999999998 225.3,12.094999999999999 L 225.3,12.094999999999999 L 259.083,12.094999999999999 L 250.07900000000004,21.095 L 228.0,21.095 L 228.0,81.21199999999999 L 285.47,81.21399999999998 L 285.47,69.125 L 294.47200000000004,60.125 L 294.47,83.913 C 294.46700000000004,87.392 291.65200000000004,90.209 288.17,90.213 L 288.17,90.213 L 225.3,90.211 L 225.3,90.211" fill="#000000"/>
	<path d="M 285.171,11.301 L 285.171,0.0 L 314.421,29.25 L 285.046,58.625 L 285.046,46.875 C 285.046,46.875 267.816,45.683 255.462,53.333 C 247.253,58.417 242.358,63.5 238.296,70.375 C 238.296,70.375 239.405,52.125 249.905,35.5 C 263.033,14.716 285.171,11.301 285.171,11.301" fill="#000000"/>
</svg>
