<?xml version="1.0" ?>
<svg xmlns="http://www.w3.org/2000/svg" xmlns:ev="http://www.w3.org/2001/xml-events" xmlns:xlink="http://www.w3.org/1999/xlink" baseProfile="full" enable-background="new 0 0 100 100" height="560px" version="1.1" viewBox="0 0 100 100" width="600px" x="0px" xml:space="preserve" y="0px">
	<defs/>
	<path d="M 96.393,13.916 C 97.042,13.113 96.997,11.938 96.251,11.194 L 92.68700000000001,7.628000000000001 C 91.94400000000002,6.885000000000001 90.766,6.836000000000001 89.96500000000002,7.487000000000001 L 89.92700000000002,7.449000000000001 L 30.345,67.03 L 36.992999999999995,73.677 L 96.574,14.096000000000004 L 96.393,13.916" fill="#000000"/>
	<path d="M 7.425,89.916 L 32.497,78.174 L 35.081,75.59 L 28.431,68.94 L 7.425,89.916" points="7.425,89.916 32.497,78.174 35.081,75.59 28.431,68.94  "/>
	<path d="M 0.0,97.327 L 26.129,84.543 L 29.913,80.758 L 4.845,92.495 L 0.0,97.327" fill="#000000" points="0,97.327 26.129,84.543 29.913,80.758 4.845,92.495  "/>
</svg>
