<?xml version="1.0" ?>
<svg xmlns="http://www.w3.org/2000/svg" xmlns:ev="http://www.w3.org/2001/xml-events" xmlns:xlink="http://www.w3.org/1999/xlink" baseProfile="full" enable-background="new 0 0 83.693 99.998" height="600px" version="1.1" viewBox="0 0 83.693 99.998" width="503px" x="0px" xml:space="preserve" y="0px">
	<defs/>
	<path d="M 51.253,87.78 L 51.107,73.826 C 52.655,73.03399999999999 54.144999999999996,72.14699999999999 55.58,71.15599999999999 C 57.022999999999996,70.15599999999999 58.405,69.062 59.722,67.88499999999999 C 60.944,66.78099999999999 62.109,65.60199999999999 63.212,64.35699999999999 C 64.307,63.121999999999986 65.33500000000001,61.80999999999999 66.288,60.451999999999984 C 67.307,59.003999999999984 68.23599999999999,57.493999999999986 69.08,55.93199999999999 L 69.075,55.93199999999999 C 70.071,54.07799999999999 70.938,52.15799999999999 71.67,50.16699999999999 C 73.35900000000001,45.57199999999999 74.298,40.65699999999999 74.307,35.63799999999999 C 74.327,22.49499999999999 67.995,11.85299999999999 58.434000000000005,6.6499999999999915 L 52.56,3.457 C 52.215,3.268 51.872,3.089 51.517,2.9189999999999996 C 49.805,2.0799999999999996 47.994,1.4049999999999996 46.107,0.9189999999999996 C 42.427,-0.024000000000000354 38.446,-0.26900000000000035 34.286,0.3149999999999996 C 30.805,0.8049999999999996 27.446,1.8339999999999996 24.285000000000004,3.3239999999999994 C 22.351000000000003,4.2299999999999995 20.493000000000002,5.305 18.723000000000003,6.526999999999999 C 17.285000000000004,7.521999999999999 15.900000000000002,8.616999999999999 14.586000000000002,9.805 C 13.362000000000002,10.904 12.194000000000003,12.084 11.095000000000002,13.329 C 10.0,14.57 8.97,15.872 8.015,17.24 C 7.0,18.684 6.069,20.193 5.227,21.759 C 4.234,23.608 3.3640000000000003,25.533 2.6350000000000002,27.514 C 0.946,32.119 0.009,37.034 0.0,42.058 C -0.026,55.191 6.309,65.833 15.869,71.03399999999999 L 21.742,74.222 C 22.086000000000002,74.41 22.435000000000002,74.58999999999999 22.784000000000002,74.76899999999999 C 24.501,75.609 26.303000000000004,76.279 28.195,76.75999999999999 C 31.88,77.713 35.861000000000004,77.948 40.021,77.37299999999999 C 41.455,77.16499999999999 42.866,76.87299999999999 44.253,76.48599999999999 L 44.37,87.78799999999998 C 26.288999999999998,88.09099999999998 12.168,90.70399999999998 12.168,93.87399999999998 C 12.168,97.25099999999998 28.181,99.99699999999999 47.932,99.99699999999999 C 67.683,99.99699999999999 83.694,97.25099999999999 83.694,93.87399999999998 C 83.698,90.685 69.447,88.072 51.253,87.78 M 40.163,3.508 C 44.31399999999999,2.928 48.3,3.164 51.985,4.116 C 53.164,4.417999999999999 54.305,4.8 55.419,5.242999999999999 C 60.556999999999995,8.893999999999998 64.5,14.271999999999998 66.637,20.805 C 64.175,16.484 60.679,13.030999999999999 56.486000000000004,10.748 L 51.258,7.9 C 50.946000000000005,7.735 50.64,7.579000000000001 50.323,7.4190000000000005 C 48.804,6.673 47.191,6.075 45.511,5.6450000000000005 C 42.228,4.796 38.681000000000004,4.5840000000000005 34.982,5.107 C 34.044,5.24 33.115,5.419 32.2,5.636 C 34.757,4.622 37.417,3.895 40.163,3.508 M 34.148,74.175 C 29.992000000000004,74.75999999999999 26.002000000000002,74.515 22.322000000000003,73.571 C 21.143000000000004,73.26899999999999 19.997000000000003,72.883 18.884000000000004,72.439 C 13.542000000000005,68.63699999999999 9.492000000000004,62.97899999999999 7.419000000000004,56.090999999999994 C 9.893000000000004,61.312999999999995 13.780000000000005,65.469 18.582000000000004,68.082 L 23.813000000000002,70.92899999999999 C 24.115000000000002,71.08999999999999 24.426000000000002,71.24999999999999 24.743000000000002,71.40099999999998 C 26.266000000000002,72.15599999999998 27.880000000000003,72.75099999999998 29.559,73.18399999999998 C 31.399,73.65599999999998 33.324,73.92999999999998 35.314,73.98699999999998 C 34.926,74.052 34.54,74.119 34.148,74.175 M 43.767,68.201 C 40.946000000000005,69.52399999999999 37.955000000000005,70.439 34.861000000000004,70.883 C 31.153000000000006,71.402 27.606000000000005,71.185 24.323000000000004,70.336 C 23.276000000000003,70.071 22.257000000000005,69.732 21.266000000000005,69.326 C 14.192,64.304 9.659,55.61 9.68,45.124 C 9.69,40.647000000000006 10.522,36.27 12.027,32.175000000000004 C 12.677999999999999,30.406000000000006 13.449,28.694000000000003 14.335999999999999,27.043000000000006 C 15.085999999999999,25.651000000000007 15.913999999999998,24.307000000000006 16.817,23.024000000000008 C 17.671,21.80700000000001 18.586,20.642000000000007 19.558,19.543000000000006 C 20.539,18.430000000000007 21.576999999999998,17.383000000000006 22.671,16.401000000000007 C 23.841,15.344000000000007 25.067,14.373000000000006 26.351,13.486000000000008 C 27.927,12.396000000000008 29.587,11.439000000000007 31.304,10.627000000000008 C 34.125,9.306000000000008 37.116,8.386000000000008 40.21,7.9480000000000075 C 43.918,7.429000000000007 47.465,7.646000000000008 50.738,8.486000000000008 C 51.795,8.760000000000009 52.814,9.099000000000007 53.804,9.496000000000008 C 60.875,14.524000000000008 65.408,23.223000000000006 65.39,33.714000000000006 C 65.38,38.18600000000001 64.54,42.56400000000001 63.04,46.65800000000001 C 62.39,48.42300000000001 61.615,50.13900000000001 60.728,51.78600000000001 C 59.983000000000004,53.17800000000001 59.153,54.52600000000001 58.248000000000005,55.80900000000001 C 57.398,57.027000000000015 56.483000000000004,58.18700000000001 55.507000000000005,59.29000000000001 C 54.53000000000001,60.40300000000001 53.492000000000004,61.451000000000015 52.39900000000001,62.432000000000016 C 51.229000000000006,63.484000000000016 49.998000000000005,64.46000000000002 48.714000000000006,65.34800000000001 C 47.14,66.436 45.483,67.394 43.767,68.201" fill="#010101"/>
</svg>
