<?xml version="1.0" ?>
<svg xmlns="http://www.w3.org/2000/svg" xmlns:ev="http://www.w3.org/2001/xml-events" xmlns:xlink="http://www.w3.org/1999/xlink" baseProfile="full" enable-background="new 0 0 800 1280" height="600px" version="1.1" viewBox="0 0 800 1280" width="431px" x="0px" xml:space="preserve" y="0px">
	<defs/>
	<path d="M 481.047,638.138 C 482.137,628.486 481.581,617.3380000000001 477.158,605.688 C 474.85,599.5989999999999 472.47900000000004,590.042 471.539,586.015 C 468.163,589.423 464.36,592.793 459.873,595.614 C 443.40999999999997,605.966 408.235,614.721 406.745,615.09 L 404.625,615.6080000000001 L 410.564,599.6210000000001 C 404.988,602.3610000000001 391.398,610.801 387.32800000000003,629.2990000000001 C 386.42100000000005,633.4340000000001 386.559,637.5520000000001 387.09900000000005,641.2800000000001 C 395.629,658.176 413.09700000000004,669.8000000000001 433.31500000000005,669.8000000000001 C 454.788,669.799 473.195,656.743 481.047,638.138"/>
	<path d="M 363.286,622.851 C 363.286,656.722 389.032,667.17 398.087,669.799 C 396.126,667.084 392.985,662.256 389.807,655.932 C 389.599,655.74 368.66,635.623 368.793,602.639 C 368.81,598.104 369.509,593.809 370.523,589.643 C 366.533,596.853 363.286,607.354 363.286,622.851"/>
	<path d="M 502.371,597.596 C 498.717,582.062 488.846,571.011 485.78,567.859 L 473.996,583.9530000000001 C 474.584,586.5120000000001 477.308,598.0340000000001 479.84999999999997,604.7320000000001 C 490.64,633.1600000000001 479.45399999999995,658.8800000000001 474.99899999999997,667.3620000000001 C 484.701,662.95 513.588,645.499 502.371,597.596"/>
	<path d="M 413.038,550.984 C 386.901,558.9590000000001 371.23900000000003,578.322 371.14300000000003,602.798 C 371.052,625.35 381.1,641.679 387.08700000000005,649.409 C 385.458,644.244 383.93100000000004,636.578 385.64000000000004,628.823 C 391.06200000000007,604.1709999999999 412.56700000000006,596.4689999999999 412.78600000000006,596.394 L 415.10300000000007,595.593 L 408.8910000000001,612.312 C 416.8930000000001,610.218 445.3420000000001,602.393 459.2200000000001,593.675 C 473.4920000000001,584.7009999999999 482.4240000000001,569.713 484.2820000000001,566.3839999999999 C 481.4940000000001,563.1199999999999 466.2170000000001,546.973 438.3340000000001,546.973 C 430.28,546.973 421.761,548.324 413.038,550.984"/>
	<path d="M 688.687,600.918 C 685.739,595.598 682.021,594.017 677.726,594.508 L 660.013,521.648 L 781.097,486.36100000000005 L 735.48,329.82500000000005 L 621.479,363.05 L 617.9540000000001,348.564 C 616.8100000000001,343.826 612.0240000000001,340.915 607.2810000000001,342.069 C 602.5490000000001,343.21700000000004 599.642,347.993 600.797,352.736 L 604.504,368.002 L 489.456,401.53200000000004 L 535.0840000000001,558.068 L 643.0490000000001,526.595 L 661.2420000000001,601.474 L 505.03200000000004,678.5590000000001 L 475.17300000000006,678.5590000000001 L 393.0400000000001,678.5590000000001 L 356.94,678.5590000000001 C 344.04,678.5590000000001 333.548,688.4090000000001 332.283,700.9720000000001 C 332.096,701.9340000000001 331.861,702.873 331.797,703.8770000000001 L 328.336,893.9110000000001 C 327.524,906.0250000000001 327.449,915.8870000000001 339.569,916.6980000000001 C 351.683,917.5100000000001 352.933,907.724 353.74600000000004,895.599 L 370.583,750.7230000000001 C 372.64500000000004,770.7650000000001 374.52000000000004,793.8620000000001 374.52000000000004,811.714 C 374.52000000000004,851.349 365.26300000000003,867.0100000000001 365.26300000000003,893.7610000000001 C 365.26300000000003,895.4910000000001 365.32200000000006,897.1150000000001 365.41700000000003,898.6320000000001 C 365.391,899.166 365.26300000000003,899.6790000000001 365.26300000000003,900.214 L 374.52000000000004,1115.267 C 374.52000000000004,1131.4840000000002 378.40900000000005,1144.624 394.615,1144.624 C 410.827,1144.624 414.711,1131.483 414.711,1115.267 L 431.39300000000003,921.538 L 436.82000000000005,921.538 L 453.50800000000004,1115.267 C 453.50800000000004,1131.4840000000002 457.39700000000005,1144.624 473.59200000000004,1144.624 C 489.81000000000006,1144.624 493.69800000000004,1131.483 493.69800000000004,1115.267 L 502.96000000000004,900.214 C 502.96000000000004,899.7220000000001 502.843,899.2510000000001 502.81100000000004,898.7610000000001 C 502.908,897.2 502.96000000000004,895.5340000000001 502.96000000000004,893.7610000000001 C 502.96000000000004,865.5680000000001 493.69800000000004,841.157 493.69800000000004,811.714 C 493.69800000000004,797.355 495.898,772.0150000000001 498.153,749.7610000000001 L 502.992,725.6930000000001 C 506.796,725.7990000000001 510.65200000000004,724.998 514.21,723.0210000000001 L 667.6210000000001,627.7220000000001 L 673.2400000000001,650.8460000000001 C 674.3940000000001,655.5780000000001 679.1590000000001,658.4950000000001 683.9020000000002,657.3420000000001 C 688.6450000000002,656.1880000000001 691.5510000000002,651.4120000000001 690.3970000000002,646.6690000000001 L 683.4320000000001,617.9950000000001 C 689.669,613.604 693.003,608.69 688.687,600.918"/>
	<path d="M 328.479,596.794 C 329.633,601.532 334.40299999999996,604.443 339.147,603.289 C 343.879,602.141 346.795,597.365 345.642,592.622 L 335.48199999999997,551.5079999999999 L 344.11499999999995,531.0279999999999 C 348.95399999999995,519.5489999999999 343.56999999999994,506.3069999999999 332.09099999999995,501.4729999999999 C 329.0199999999999,500.1809999999999 325.8299999999999,499.6729999999999 322.69999999999993,499.7579999999999 L 292.01199999999994,375.51199999999994 L 446.91299999999995,330.36499999999995 L 390.15299999999996,135.61999999999995 L 243.32299999999995,178.41699999999994 L 239.60499999999996,163.34799999999996 C 238.45099999999996,158.60999999999996 233.67499999999995,155.70399999999995 228.93699999999995,156.85299999999995 C 224.19999999999996,158.00099999999995 221.28899999999996,162.77699999999996 222.44199999999995,167.51999999999995 L 226.35199999999995,183.36299999999994 L 84.08,224.831 L 140.84,419.576 L 275.04200000000003,380.459 L 306.41900000000004,507.477 C 304.87000000000006,509.25 303.50300000000004,511.222 302.54100000000005,513.5079999999999 L 235.19400000000007,673.3459999999999 L 84.924,673.3459999999999 C 73.24100000000001,673.3459999999999 63.27900000000001,680.5879999999999 59.17700000000001,690.8009999999999 C 57.901,693.579 57.14200000000001,696.656 57.14200000000001,699.925 L 57.14200000000001,889.756 C 57.14200000000001,901.9019999999999 66.992,911.752 79.13900000000001,911.752 C 91.281,911.752 101.13000000000001,901.9019999999999 101.13000000000001,889.756 L 101.13000000000001,735.543 L 106.269,735.543 L 106.269,1110.055 C 106.269,1126.2720000000002 119.415,1139.412 135.622,1139.412 C 151.839,1139.412 164.97400000000002,1126.271 164.97400000000002,1110.055 L 164.97400000000002,916.325 L 185.25600000000003,916.325 L 185.25600000000003,1110.055 C 185.25600000000003,1126.2720000000002 198.40200000000004,1139.412 214.60300000000004,1139.412 C 230.82100000000003,1139.412 243.96600000000004,1126.271 243.96600000000004,1110.055 L 243.96600000000004,735.543 L 244.00900000000004,735.414 C 252.42700000000005,735.029 260.30100000000004,729.987 263.783,721.7189999999999 L 324.02000000000004,578.7289999999999 L 328.479,596.794"/>
	<path cx="174.326" cy="603.541" d="M 117.75899999999999,603.541 A 56.567,56.567 0.0 1,0 230.89299999999997,603.541 A 56.567,56.567 0.0 1,0 117.75899999999997,603.541" r="56.567"/>
</svg>
