<?xml version="1.0" ?>
<svg xmlns="http://www.w3.org/2000/svg" xmlns:ev="http://www.w3.org/2001/xml-events" xmlns:xlink="http://www.w3.org/1999/xlink" baseProfile="full" enable-background="new 0 0 86.34 100" height="600px" version="1.1" viewBox="0 0 86.34 100" width="519px" x="0px" xml:space="preserve" y="0px">
	<defs/>
	<path d="M 28.611,25.219 L 28.611,25.219 C 28.612,25.219 28.612,25.219 28.611,25.219 L 28.611,25.219 L 28.611,25.219 L 28.611,25.219 L 28.611,25.219 L 28.611,25.219 L 28.611,25.219 L 28.609,25.219 L 28.609,25.219 L 28.611,25.219 L 28.611,25.219 L 28.611,25.219 L 28.611,25.219 L 28.611,25.219 L 28.611,25.219 L 28.611,25.219 C 28.611,25.22 28.611,25.22 28.611,25.219 C 28.611,25.22 28.612,25.221 28.611,25.219 M 28.61,25.221 L 28.61,25.221 L 28.61,25.221 L 28.61,25.22 L 28.61,25.22 L 28.61,25.22 L 28.61,25.22 L 28.61,25.22 L 28.61,25.221 L 28.61,25.221 L 28.61,25.221 M 28.611,25.221 L 28.611,25.221 L 28.611,25.221 L 28.611,25.221 C 28.611,25.22 28.611,25.22 28.611,25.22 L 28.611,25.22 L 28.611,25.221 L 28.611,25.221 L 28.611,25.221 L 28.611,25.221 L 28.611,25.221 M 28.611,25.219 L 28.611,25.219 L 28.611,25.219 L 28.611,25.219 L 28.611,25.219"/>
	<path d="M 43.17,0.0 L 57.729,25.219 L 86.34,25.226000000000003 L 72.039,49.997 L 86.34,74.773 L 57.733000000000004,74.777 L 43.17,100.0 L 28.607,74.777 L 0.0,74.773 L 14.305,49.997 L 0.0,25.227 L 28.611,25.22 L 43.17,0.0 M 24.51,49.997 L 33.737,65.996 L 52.573,65.996 L 61.83,49.99699999999999 L 52.576,33.95799999999999 L 33.766000000000005,33.95799999999999 L 24.51,49.997 M 62.777,66.021 L 71.088,66.021 L 66.93599999999999,58.83 L 62.777,66.021 M 15.246,65.992 L 23.555,65.992 L 19.4,58.8 L 15.246,65.992 M 39.041,25.0 L 47.352,25.0 L 43.196,17.807000000000002 L 39.041,25.0 M 66.934,41.155 L 71.087,33.962 L 62.777,33.962 L 66.934,41.155 M 19.4,41.183 L 23.554,33.991 L 15.245,33.991 L 19.4,41.183 M 43.195,82.175 L 47.35,74.983 L 39.04,74.983 L 43.195,82.175"/>
</svg>
