<?xml version="1.0" ?>
<svg xmlns="http://www.w3.org/2000/svg" xmlns:ev="http://www.w3.org/2001/xml-events" xmlns:xlink="http://www.w3.org/1999/xlink" baseProfile="full" enable-background="new 0 0 93.882 100" height="600px" version="1.1" viewBox="0 0 93.882 100" width="564px" x="0px" xml:space="preserve" y="0px">
	<defs/>
	<path d="M 74.843,12.472 L 53.791,12.472 L 51.391999999999996,12.472 L 45.157999999999994,18.594 L 51.391999999999996,18.594 L 51.391999999999996,19.955000000000002 C 51.391999999999996,27.093000000000004 57.17999999999999,32.88 64.318,32.88 C 71.456,32.88 77.244,27.093000000000004 77.244,19.955000000000002 L 77.244,12.472000000000001 L 74.843,12.472000000000001 L 74.843,12.472"/>
	<path d="M 87.079,37.415 L 86.85199999999999,37.415 L 85.83299999999998,37.415 L 53.321,78.687 L 79.821,78.687 L 79.821,85.943 L 46.517,85.943 L 46.517,100.0 L 79.821,100.0 L 93.882,100.0 L 93.882,85.942 L 93.882,78.80499999999999 L 93.882,52.736 L 93.882,44.550999999999995 C 93.882,40.609 90.836,37.415 87.079,37.415"/>
	<path d="M 0.0,4.235 L 0.0,13.420000000000002 L 0.0,21.315 L 0.0,30.498 L 1.023,31.277 C 5.765,34.89 10.504999999999999,38.5 15.249,42.112 C 15.475000000000001,42.300000000000004 15.697000000000001,42.488 15.950000000000001,42.645 C 15.994000000000002,42.679 16.037000000000003,42.712 16.081,42.744 L 16.081,33.561 L 16.081,31.276 L 21.689999999999998,31.276 L 21.689999999999998,4.235 L 0.0,4.235 M 20.329,29.916 L 16.081,29.916 L 16.081,25.666 L 16.081,16.482 C 11.314,12.852 6.551,9.225 1.7859999999999996,5.596 L 20.329,5.596 L 20.329,29.916"/>
	<path d="M 75.688,37.271 L 44.962,37.271 L 42.152,37.271 L 42.151,37.29 C 40.603,37.295 39.092000000000006,37.826 38.109,39.066 C 34.265,43.926 30.42,48.788000000000004 26.577,53.649 C 20.903000000000002,49.329 15.229000000000001,45.009 9.558000000000003,40.688 C 6.894000000000004,38.661 2.711000000000003,40.269000000000005 1.1800000000000033,42.885000000000005 C -0.6609999999999967,46.03000000000001 0.7270000000000032,49.24400000000001 3.3770000000000033,51.261 C 10.145000000000003,56.415000000000006 16.914000000000005,61.571000000000005 23.682000000000002,66.727 C 23.884000000000004,66.893 24.082,67.063 24.309,67.203 C 24.391000000000002,67.266 24.472,67.327 24.553,67.39 C 25.735,68.29 27.219,68.472 28.638,68.167 C 29.928,68.019 31.14,67.484 31.972,66.433 C 32.026,66.36300000000001 32.08,66.293 32.135,66.22500000000001 C 32.394999999999996,65.95400000000001 32.623,65.664 32.818,65.36200000000001 C 36.867,60.24400000000001 40.913,55.12700000000001 44.961,50.007000000000005 L 44.961,76.27600000000001 L 75.688,37.271"/>
	<path d="M 77.243,8.39 L 50.826,8.39 L 45.157,0.0 L 77.243,0.0 L 77.243,8.39" points="77.243,8.39 50.826,8.39 45.157,0 77.243,0 "/>
</svg>
