<?xml version="1.0" ?>
<svg xmlns="http://www.w3.org/2000/svg" xmlns:ev="http://www.w3.org/2001/xml-events" xmlns:xlink="http://www.w3.org/1999/xlink" baseProfile="full" enable-background="new 0 0 100 100" height="354px" version="1.1" viewBox="0 0 100 100" width="600px" x="0px" xml:space="preserve" y="0px">
	<defs/>
	<path d="M 93.581,15.8 C 97.148,32.355000000000004 79.958,40.135000000000005 71.132,42.993 C 76.674,47.158 80.947,52.919000000000004 83.278,59.584 C 109.32,42.042 93.581,15.8 93.581,15.8" fill="#000000"/>
	<path d="M 28.894,42.958 C 20.038,40.075 2.994,32.293 6.548,15.8 C 6.548,15.8 -9.143,41.961 16.73,59.504000000000005 C 19.074,52.855 23.352,47.11 28.894,42.958" fill="#000000"/>
	<path d="M 83.644,65.582 C 83.617,65.42299999999999 83.586,65.26599999999999 83.55900000000001,65.107 C 83.40700000000001,64.267 83.23300000000002,63.434 83.02100000000002,62.616 C 83.01100000000001,62.577 82.99900000000001,62.539 82.98900000000002,62.501 C 82.77800000000002,61.699 82.53400000000002,60.912 82.26700000000002,60.134 C 82.22300000000003,60.006 82.18100000000003,59.876 82.13700000000003,59.748 C 81.86300000000003,58.977 81.55900000000003,58.221 81.23100000000002,57.477 C 81.16900000000003,57.334999999999994 81.10400000000003,57.193999999999996 81.04000000000002,57.053 C 80.69600000000003,56.3 80.33300000000003,55.556999999999995 79.93600000000002,54.834999999999994 C 79.90700000000002,54.778999999999996 79.87300000000002,54.72599999999999 79.84100000000002,54.67099999999999 C 79.45100000000002,53.965999999999994 79.03300000000002,53.27899999999999 78.59600000000002,52.60699999999999 C 78.53600000000002,52.51499999999999 78.47900000000001,52.42199999999999 78.41800000000002,52.33099999999999 C 77.96600000000002,51.65099999999999 77.48700000000002,50.98999999999999 76.98900000000002,50.34599999999999 C 76.90100000000002,50.23199999999999 76.81100000000002,50.11999999999999 76.72200000000002,50.00799999999999 C 76.21000000000002,49.362999999999985 75.67900000000002,48.73299999999999 75.12200000000003,48.12699999999999 C 75.07300000000002,48.07399999999999 75.02100000000003,48.02299999999999 74.97300000000003,47.97099999999999 C 74.41900000000003,47.37499999999999 73.84200000000003,46.79899999999999 73.24600000000002,46.24299999999999 C 73.19000000000003,46.18999999999999 73.13700000000003,46.136999999999986 73.08100000000002,46.08499999999999 C 72.47200000000002,45.52399999999999 71.83900000000001,44.98899999999999 71.18800000000002,44.472999999999985 C 71.08500000000002,44.390999999999984 70.98200000000001,44.30999999999999 70.87800000000001,44.228999999999985 C 70.22200000000001,43.719999999999985 69.54900000000002,43.231999999999985 68.85600000000001,42.77099999999999 C 68.79200000000002,42.72799999999999 68.724,42.68799999999999 68.659,42.64499999999999 C 67.95500000000001,42.18399999999999 67.23400000000001,41.74599999999999 66.49600000000001,41.33699999999999 C 66.46300000000001,41.31799999999999 66.43100000000001,41.29799999999999 66.39600000000002,41.27899999999999 C 65.65100000000001,40.86999999999999 64.88600000000001,40.49299999999999 64.10900000000001,40.13899999999999 C 63.99900000000001,40.08899999999999 63.88800000000001,40.03799999999999 63.77700000000001,39.98899999999999 C 63.00600000000001,39.64699999999999 62.220000000000006,39.331999999999994 61.42000000000001,39.04699999999999 C 61.33500000000001,39.01699999999999 61.24900000000001,38.98999999999999 61.16300000000001,38.95999999999999 C 60.33400000000001,38.67299999999999 59.494000000000014,38.40999999999999 58.63600000000001,38.18699999999998 C 58.63400000000001,38.18699999999998 58.63100000000001,38.185999999999986 58.62900000000001,38.18499999999998 L 58.62900000000001,72.60399999999998 L 84.07400000000001,72.60399999999998 C 84.09300000000002,72.13699999999999 84.10900000000001,71.66899999999998 84.10900000000001,71.19799999999998 C 84.10900000000001,70.30299999999998 84.063,69.41799999999998 83.99700000000001,68.54099999999998 C 83.98400000000001,68.38499999999998 83.97600000000001,68.22899999999998 83.96100000000001,68.07299999999998 C 83.885,67.232 83.778,66.402 83.644,65.582" fill="#000000"/>
	<path d="M 41.522,38.137 C 41.522,38.137 41.522,38.137 41.522,38.137 C 40.675,38.353 39.846,38.609 39.025,38.887 C 38.900999999999996,38.929 38.775999999999996,38.969 38.653,39.012 C 37.865,39.29 37.091,39.595 36.332,39.927 C 36.213,39.979 36.097,40.034 35.978,40.086999999999996 C 35.197,40.44 34.427,40.812999999999995 33.679,41.221 C 33.678000000000004,41.221 33.676,41.221999999999994 33.675000000000004,41.221999999999994 C 32.925000000000004,41.63199999999999 32.197,42.074999999999996 31.483000000000004,42.535999999999994 C 31.384000000000004,42.599999999999994 31.283000000000005,42.660999999999994 31.185000000000006,42.727 C 30.502000000000006,43.178999999999995 29.838000000000005,43.656 29.191000000000006,44.154999999999994 C 29.079000000000008,44.24099999999999 28.969000000000005,44.32899999999999 28.857000000000006,44.416999999999994 C 28.207000000000008,44.931999999999995 27.570000000000007,45.46399999999999 26.959000000000007,46.023999999999994 C 26.917000000000005,46.062999999999995 26.877000000000006,46.10399999999999 26.835000000000008,46.141999999999996 C 26.241000000000007,46.690999999999995 25.669000000000008,47.263 25.116000000000007,47.852 C 25.043000000000006,47.93 24.968000000000007,48.004999999999995 24.896000000000008,48.081999999999994 C 24.34400000000001,48.68099999999999 23.817000000000007,49.300999999999995 23.31000000000001,49.93699999999999 C 23.21500000000001,50.05599999999999 23.12200000000001,50.17499999999999 23.02900000000001,50.29399999999999 C 22.52900000000001,50.93799999999999 22.04700000000001,51.59799999999999 21.59300000000001,52.27699999999999 C 21.53800000000001,52.359999999999985 21.48600000000001,52.444999999999986 21.43200000000001,52.52899999999999 C 20.99700000000001,53.19299999999999 20.58400000000001,53.871999999999986 20.19600000000001,54.566999999999986 C 20.15300000000001,54.64499999999999 20.10600000000001,54.71899999999999 20.064000000000007,54.79699999999998 C 19.669000000000008,55.515999999999984 19.305000000000007,56.253999999999984 18.962000000000007,57.002999999999986 C 18.896000000000008,57.146999999999984 18.831000000000007,57.29099999999998 18.766000000000005,57.435999999999986 C 18.437000000000005,58.18199999999999 18.131000000000004,58.93999999999998 17.855000000000004,59.713999999999984 C 17.811000000000003,59.83699999999998 17.772000000000006,59.96199999999998 17.729000000000003,60.08499999999999 C 17.464000000000002,60.85599999999999 17.221000000000004,61.63599999999999 17.011000000000003,62.43099999999998 C 16.996000000000002,62.484999999999985 16.979000000000003,62.53899999999998 16.965000000000003,62.59399999999998 C 16.753000000000004,63.41199999999998 16.579000000000004,64.24399999999999 16.426000000000002,65.08599999999998 C 16.398000000000003,65.24499999999999 16.367,65.40199999999999 16.341,65.56199999999998 C 16.204,66.38599999999998 16.096,67.21899999999998 16.019000000000002,68.06199999999998 C 16.005000000000003,68.21499999999999 15.996000000000002,68.36999999999999 15.984000000000002,68.52299999999998 C 15.916000000000002,69.40499999999999 15.870000000000001,70.29399999999998 15.870000000000001,71.19399999999999 C 15.870000000000001,71.66499999999999 15.887,72.13299999999998 15.906,72.6 L 41.522,72.6 L 41.522,38.137" fill="#000000"/>
	<path d="M 57.488,37.913 C 57.87,37.998999999999995 58.251,38.083 58.627,38.181999999999995 C 57.662,37.92999999999999 56.678000000000004,37.72599999999999 55.681000000000004,37.55799999999999 C 55.67100000000001,37.556999999999995 55.661,37.55499999999999 55.651,37.55299999999999 C 55.082,37.45799999999999 54.508,37.37699999999999 53.929,37.30999999999999 C 53.872,37.30299999999999 53.815000000000005,37.29499999999999 53.758,37.28899999999999 C 53.229,37.23099999999999 52.697,37.18699999999999 52.161,37.152999999999984 C 52.061,37.146999999999984 51.963,37.13599999999998 51.863,37.130999999999986 C 51.243,37.09699999999999 50.619,37.07799999999999 49.991,37.07799999999999 C 49.373,37.07799999999999 48.759,37.09599999999999 48.149,37.12899999999999 C 48.062,37.13399999999999 47.976,37.142999999999994 47.889,37.148999999999994 C 47.353,37.18099999999999 46.82,37.224 46.292,37.28099999999999 C 46.254000000000005,37.285999999999994 46.216,37.29099999999999 46.179,37.29599999999999 C 44.99,37.42799999999999 43.82,37.62299999999999 42.67,37.87499999999999 C 42.669000000000004,37.87499999999999 42.667,37.87499999999999 42.666000000000004,37.87599999999999 L 42.666000000000004,72.60499999999999 L 57.489000000000004,72.60499999999999 L 57.489000000000004,37.913 L 57.488,37.913" fill="#000000"/>
</svg>
