<?xml version="1.0" ?>
<svg xmlns="http://www.w3.org/2000/svg" xmlns:a="http://ns.adobe.com/AdobeSVGViewerExtensions/3.0/" xmlns:ev="http://www.w3.org/2001/xml-events" xmlns:graph="http://ns.adobe.com/Graphs/1.0/" xmlns:i="http://ns.adobe.com/AdobeIllustrator/10.0/" xmlns:x="http://ns.adobe.com/Extensibility/1.0/" xmlns:xlink="http://www.w3.org/1999/xlink" baseProfile="full" enable-background="new 0 0 90 90" height="427px" version="1.1" viewBox="0 0 90 90" width="600px" x="0px" xml:space="preserve" y="0px">
	<defs/>
	<path d="M 59.321,51.391 L 40.708,51.391 C 36.839,51.391 33.688,48.202999999999996 33.688,44.283 L 33.688,25.792 L 4.49,25.792 C 2.01,25.792 0.0,27.829 0.0,30.338 L 0.0,62.752 C 0.0,65.262 2.01,67.298 4.49,67.298 L 21.863999999999997,67.298 L 21.863999999999997,79.598 L 35.044,67.298 L 58.90899999999999,67.298 C 61.38799999999999,67.298 63.39799999999999,65.262 63.39799999999999,62.752 L 63.39799999999999,55.231 L 61.16699999999999,53.13 L 59.321,51.391"/>
	<path d="M 69.304,25.495 L 73.58,25.495 L 73.733,25.392 L 88.31800000000001,16.622999999999998 C 87.67200000000001,16.093999999999998 86.88600000000001,15.748999999999997 86.01700000000001,15.648999999999997 L 69.45500000000001,25.391999999999996 L 69.304,25.495"/>
	<path d="M 73.479,35.444 L 88.291,44.378 C 88.884,43.902 89.36099999999999,43.293 89.65599999999999,42.576 L 77.603,35.444 L 73.479,35.444"/>
	<path d="M 89.921,41.621 C 89.966,41.364 90.0,41.104 90.0,40.836 L 90.0,35.29 L 79.282,35.29 L 89.921,41.621"/>
	<path d="M 79.537,25.392 L 90.0,25.392 L 90.0,20.143 C 90.0,19.821 89.965,19.508 89.903,19.206 L 89.822,19.206 L 79.537,25.392"/>
	<path d="M 56.371,35.444 L 41.445,44.392 C 42.104,44.918000000000006 42.906,45.254000000000005 43.789,45.339000000000006 L 60.648,35.444 L 56.371,35.444"/>
	<path d="M 39.734,40.836 C 39.734,41.109 39.754000000000005,41.373999999999995 39.800000000000004,41.635 L 50.46300000000001,35.289 L 39.734,35.289 L 39.734,40.836"/>
	<path d="M 39.734,25.392 L 50.21,25.392 L 39.925,19.206 L 39.82,19.206 C 39.757,19.508 39.735,19.820999999999998 39.735,20.143 L 39.735,25.392 L 39.734,25.392"/>
	<path d="M 52.296,25.495 L 56.37,25.495 L 56.268,25.391000000000002 L 41.461,16.574 C 40.873,17.039 40.391999999999996,17.637 40.091,18.341 L 52.143,25.392000000000003 L 52.296,25.495"/>
	<path d="M 39.734,33.382 L 53.723,33.382 L 60.647,33.382 L 62.43,33.382 L 62.43,35.29 L 62.43,35.599 L 62.43,45.382 L 62.43,45.382 L 73.349,55.571 L 73.349,45.382 L 83.641,45.382 L 68.845,36.526 L 68.845,45.395 L 67.317,45.395 L 67.317,35.651 L 67.317,35.29 L 67.317,33.382 L 68.845,33.382 L 76.024,33.382 L 90.0,33.382 L 90.0,27.557 L 75.922,27.557 L 68.845,27.557 L 67.317,27.557 L 67.317,25.392 L 67.317,25.289 L 67.317,15.598 L 62.43,15.598 L 62.43,25.289 L 62.43,25.392 L 62.43,27.557 L 60.647,27.557 L 53.825,27.557 L 39.734,27.557 L 39.734,33.382" points="39.734,33.382 53.723,33.382 60.647,33.382 62.43,33.382 62.43,35.29 62.43,35.599 62.43,45.382 62.43,45.382      73.349,55.571 73.349,45.382 83.641,45.382 68.845,36.526 68.845,45.395 67.317,45.395 67.317,35.651 67.317,35.29      67.317,33.382 68.845,33.382 76.024,33.382 90,33.382 90,27.557 75.922,27.557 68.845,27.557 67.317,27.557 67.317,25.392      67.317,25.289 67.317,15.598 62.43,15.598 62.43,25.289 62.43,25.392 62.43,27.557 60.647,27.557 53.825,27.557 39.734,27.557         "/>
	<path d="M 60.647,15.598 L 46.138,15.598 L 60.647,24.207 L 60.647,15.598" points="60.647,15.598 46.138,15.598 60.647,24.207    "/>
	<path d="M 46.107,45.382 L 60.647,45.382 L 60.647,36.682 L 46.107,45.382" points="46.107,45.382 60.647,45.382 60.647,36.682    "/>
	<path d="M 83.609,15.598 L 68.845,15.598 L 68.845,24.361 L 83.609,15.598" points="83.609,15.598 68.845,15.598 68.845,24.361    "/>
</svg>
