<?xml version="1.0" ?>
<svg xmlns="http://www.w3.org/2000/svg" xmlns:ev="http://www.w3.org/2001/xml-events" xmlns:xlink="http://www.w3.org/1999/xlink" baseProfile="full" enable-background="new 0 0 100 100" height="600px" version="1.1" viewBox="0 0 100 100" width="562px" x="0px" xml:space="preserve" y="0px">
	<defs/>
	<path d="M 50.000009,12.494325 C 38.627834,12.494325 29.413614,21.708517 29.413614,33.080711 C 29.413614,37.034161 30.549913,40.76253 32.481384,43.898632 C 31.834360999999998,42.065462 31.512625999999997,40.051892 31.512625999999997,38.005283 C 31.512625999999997,33.054184 33.602652,28.585079 36.921591,25.330533 C 37.040447,26.984236 38.197071,28.317597 39.666436,28.317597 C 40.828052,28.317597 41.745818,27.454285 42.169124999999994,26.299319 C 42.468996,28.776901000000002 44.289570999999995,30.658792000000002 46.52857999999999,30.658792000000002 C 47.92531599999999,30.658792000000002 49.19084999999999,29.877615000000002 50.00000899999999,28.721238000000003 C 50.80917799999999,29.877615000000002 52.07467499999999,30.658792000000002 53.471447999999995,30.658792000000002 C 55.708496999999994,30.658792000000002 57.528687,28.773805000000003 57.830912,26.299319 C 58.254182,27.454285 59.252691,28.317597 60.414307,28.317597 C 61.883672000000004,28.317597 62.959471,26.984236 63.078437,25.330533 C 66.397357,28.585079 68.487393,33.054184 68.487393,38.005283 C 68.487393,40.153675 68.067127,42.230557 67.357167,44.140842 C 69.392821,40.947437 70.58639500000001,37.148438 70.58639500000001,33.080711 C 70.58639500000001,21.708517 61.37219300000001,12.494325 50.000009000000006,12.494325 L 50.000009,12.494325 M 46.044196,36.471407 C 42.989945,36.471407 40.36425,39.925872999999996 40.070104,44.140842 C 40.099694,44.129022 40.202096,44.152561999999996 40.231617,44.140842 C 43.258847,42.904968 46.528323,42.203306 50.000055,42.203306 C 53.471778,42.203306 56.821997,42.904968 59.849236000000005,44.140842 C 59.87872600000001,44.152561999999996 59.900806,44.129022 59.929846000000005,44.140842 C 59.620532000000004,39.947645 57.40264500000001,36.471407 54.359395000000006,36.471407 C 52.726741000000004,36.471407 51.17255800000001,37.506445 50.08066600000001,39.054812 C 49.09054700000001,37.497569 47.67478500000001,36.471407 46.04411800000001,36.471407 L 46.044196,36.471407 M 50.000009,58.833870000000005 C 29.444436,58.833870000000005 12.627279999999999,74.854122 11.329870999999997,95.08207 L 27.153170999999997,95.08207 C 26.092174999999997,88.458729 28.626446999999995,82.181057 33.369437,77.96711400000001 C 30.732438,82.04474200000001 29.631605999999998,86.967601 30.705326,92.09502400000001 C 30.922318999999998,93.130813 31.219634,94.12665700000001 31.59336,95.08207000000002 L 68.406668,95.08207000000002 C 68.780384,94.12665700000002 69.077764,93.13081300000002 69.294702,92.09502400000001 C 70.368422,86.967601 69.26759200000001,82.04474200000001 66.630591,77.96711400000001 C 71.373581,82.18105700000001 73.907862,88.458729 72.846865,95.08207000000002 L 88.67012899999999,95.08207000000002 C 87.372747,74.854122 70.555582,58.83387 50.000009,58.83387 L 50.000009,58.833870000000005 M 58.880413,70.05547700000001 L 60.172115999999995,74.89933400000001 L 64.773771,77.15980400000001 L 60.495031999999995,79.98538300000001 L 59.768446999999995,84.99071600000002 L 55.81265199999999,81.84219300000002 L 50.80731899999999,82.64951200000003 L 52.58339599999999,77.96711400000002 L 50.242200999999994,73.44618300000002 L 55.32824099999999,73.68822800000002 L 58.88041299999999,70.05534900000002 L 58.880413,70.05547700000001" fill="#000000" fill-opacity="1" stroke="none"/>
</svg>
