<?xml version="1.0" ?>
<svg xmlns="http://www.w3.org/2000/svg" xmlns:ev="http://www.w3.org/2001/xml-events" xmlns:xlink="http://www.w3.org/1999/xlink" baseProfile="full" enable-background="new 0 0 100 75.972" height="456px" version="1.1" viewBox="0 0 100 75.972" width="600px" x="0px" xml:space="preserve" y="0px">
	<defs/>
	<path d="M 75.001,28.06 L 60.146,41.015 L 49.999,26.762 L 39.852,41.015 L 25.0,28.06 L 16.71,43.451 L 0.0,31.941 L 0.0,48.296 L 0.0,75.972 C 0.0,75.972 21.738,71.109 49.999,71.109 C 78.259,71.109 100.0,75.972 100.0,75.972 L 100.0,48.291999999999994 L 100.0,31.94 L 83.293,43.449 L 75.001,28.06" fill="#010101"/>
	<path d="M 32.985,16.42 L 24.483,7.908 L 15.979,16.42 L 24.483,24.932 L 32.985,16.42" fill="#010101" points="32.985,16.42 24.483,7.908 15.979,16.42 24.483,24.932 "/>
	<path d="M 83.686,16.42 L 75.186,7.908 L 66.68,16.42 L 75.186,24.932 L 83.686,16.42" fill="#010101" points="83.686,16.42 75.186,7.908 66.68,16.42 75.186,24.932 "/>
	<path d="M 61.609,11.624 L 50.001,0.0 L 38.388,11.624 L 50.001,23.246 L 61.609,11.624" fill="#010101" points="61.609,11.624 50.001,0 38.388,11.624 50.001,23.246 "/>
	<path d="M 8.504,20.995 L 0.002,12.484 L 0.0,12.486 L 0.0,29.505 L 0.002,29.507 L 8.504,20.995" fill="#010101" points="8.504,20.995 0.002,12.484 0,12.486 0,29.505 0.002,29.507 "/>
	<path d="M 91.495,20.995 L 100.0,29.507 L 100.0,12.484 L 91.495,20.995" fill="#010101" points="91.495,20.995 100,29.507 100,12.484 "/>
</svg>
