<?xml version="1.0" ?>
<svg xmlns="http://www.w3.org/2000/svg" xmlns:ev="http://www.w3.org/2001/xml-events" xmlns:xlink="http://www.w3.org/1999/xlink" baseProfile="full" enable-background="new 0 0 100.001 99.254" height="596px" version="1.1" viewBox="0 0 100.001 99.254" width="600px" x="0px" xml:space="preserve" y="0px">
	<defs/>
	<path d="M 38.916,13.922 C 42.773999999999994,13.922 45.89,10.807 45.89,6.973000000000001 C 45.89,3.115 42.774,0.0 38.916,0.0 C 35.081999999999994,0.0 31.967,3.115 31.967,6.973 C 31.967,10.807 35.082,13.922 38.916,13.922"/>
	<path d="M 90.652,33.979 L 83.271,32.565 L 78.982,41.096 C 79.67699999999999,41.263 80.396,41.336 81.138,41.336 C 85.717,41.336 89.551,38.221 90.652,33.979 M 0.0,48.381 C 0.0,42.726 4.578,38.125 10.232,38.125 L 31.823999999999998,38.125 L 31.823999999999998,22.621 C 31.823999999999998,18.762999999999998 34.937999999999995,15.648 38.797,15.648 C 42.653999999999996,15.648 45.769999999999996,18.762999999999998 45.769999999999996,22.621 L 45.769999999999996,25.017 L 56.050999999999995,27.653 C 57.84799999999999,28.061 58.998,29.857999999999997 58.589999999999996,31.654999999999998 C 58.183,33.476 56.385999999999996,34.602999999999994 54.565,34.195 L 45.769999999999996,32.134 L 45.769999999999996,38.125 L 56.123,38.125 L 84.446,8.818 L 83.607,16.438 L 97.554,25.711 C 99.854,27.029 100.693,30.0 99.374,32.313 C 98.344,34.146 96.282,35.033 94.342,34.673 L 93.216,34.458 C 91.874,39.897 86.96199999999999,43.899 81.13799999999999,43.899 C 79.98899999999999,43.899 78.86299999999999,43.732 77.80799999999999,43.443 L 67.24,65.023 L 67.24,94.65299999999999 C 67.24,97.193 65.15599999999999,99.25399999999999 62.614999999999995,99.25399999999999 C 60.07599999999999,99.25399999999999 58.01499999999999,97.19299999999998 58.01499999999999,94.65299999999999 L 58.01499999999999,64.364 L 34.699,64.364 L 30.528999999999996,71.50500000000001 L 39.251999999999995,92.305 C 40.522,94.534 39.730999999999995,97.337 37.526999999999994,98.58300000000001 C 35.297999999999995,99.85400000000001 32.49399999999999,99.06200000000001 31.223999999999993,96.83400000000002 L 21.04,72.848 L 21.04,65.203 L 16.487,72.36800000000001 L 16.487,94.653 C 16.487,97.19300000000001 14.424999999999999,99.254 11.886,99.254 C 9.344999999999999,99.254 7.260999999999999,97.19300000000001 7.260999999999999,94.653 L 7.260999999999999,68.917 L 11.072,62.95 L 11.072,42.75 L 7.284999999999999,48.549 L 7.284999999999999,65.371 L 0.0,65.371 L 0.0,48.381"/>
</svg>
