<?xml version="1.0" ?>
<svg xmlns="http://www.w3.org/2000/svg" xmlns:ev="http://www.w3.org/2001/xml-events" xmlns:xlink="http://www.w3.org/1999/xlink" baseProfile="full" enable-background="new 0 0 100 100" height="498px" version="1.1" viewBox="0 0 100 100" width="600px" x="0px" xml:space="preserve" y="0px">
	<defs/>
	<path d="M 96.91,42.123 C 96.967,39.152 94.602,36.696999999999996 91.631,36.641 L 91.715,36.518 C 94.5,35.478 95.91300000000001,32.377 94.87400000000001,29.592 C 93.834,26.81 90.31400000000001,25.962 87.531,27.003 C 88.86,23.403 86.81,20.523 84.153,19.982 C 82.498,19.646 80.522,20.287 79.479,21.111 C 79.748,18.152 77.565,15.533000000000001 74.606,15.263000000000002 C 72.01599999999999,15.028000000000002 69.68799999999999,16.669 68.96499999999999,19.067 C 69.23499999999999,16.107 65.621,13.591000000000001 62.90199999999999,13.892 C 60.02999999999999,14.209 58.40199999999999,16.689999999999998 58.133999999999986,19.649 C 57.26099999999999,18.707 56.17199999999998,16.952 53.628999999999984,17.409 C 50.70299999999998,17.935 49.40399999999998,19.835 49.54099999999998,22.766 C 49.54099999999998,20.192 49.984999999999985,18.198 46.301999999999985,16.953999999999997 C 43.88599999999999,16.137999999999998 41.262999999999984,18.281 40.947999999999986,19.648999999999997 C 40.67899999999999,16.689999999999998 39.051999999999985,14.208999999999996 36.179999999999986,13.891999999999998 C 33.460999999999984,13.590999999999998 29.846999999999987,16.107 30.116999999999987,19.066999999999997 C 29.394999999999985,16.669999999999998 27.06599999999999,15.027999999999997 24.475999999999985,15.262999999999996 C 21.516999999999985,15.532999999999996 19.333999999999985,18.150999999999996 19.602999999999984,21.110999999999997 C 18.560999999999982,20.286999999999995 16.583999999999982,19.645999999999997 14.928999999999984,19.981999999999996 C 12.270999999999985,20.522999999999996 10.221999999999984,23.402999999999995 11.550999999999984,27.002999999999997 C 8.767999999999985,25.961999999999996 5.247999999999984,26.809999999999995 4.207999999999984,29.591999999999995 C 3.167999999999984,32.376999999999995 4.581999999999984,35.477999999999994 7.366999999999984,36.517999999999994 L 7.450999999999984,36.64099999999999 C 4.4799999999999836,36.69699999999999 2.1149999999999833,39.151999999999994 2.1719999999999837,42.12299999999999 C 2.2279999999999838,45.09499999999999 4.682999999999984,47.45799999999999 7.653999999999984,47.40299999999999 L 7.579999999999984,47.40299999999999 C 5.164999999999984,49.13599999999999 4.613999999999984,52.498999999999995 6.347999999999984,54.91299999999999 C 8.079999999999984,57.32699999999999 11.265999999999984,58.09999999999999 13.679999999999984,56.36699999999999 C 11.536999999999985,58.42699999999999 11.468999999999983,61.834999999999994 13.527999999999984,63.97599999999999 C 15.587999999999985,66.11899999999999 18.907999999999983,66.204 21.050999999999984,64.14399999999999 C 18.904999999999983,66.202 18.833999999999985,69.60999999999999 20.892999999999983,71.75299999999999 C 22.94999999999998,73.89899999999999 26.291999999999984,74.09399999999998 28.435999999999982,72.03599999999999 C 26.287999999999982,74.091 26.211999999999982,77.49899999999998 28.26599999999998,79.64499999999998 C 30.32099999999998,81.79399999999998 33.72799999999998,82.08499999999998 35.87499999999998,80.02999999999999 C 33.91399999999998,82.26399999999998 34.10099999999998,85.54199999999999 36.33399999999998,87.50199999999998 C 38.56699999999998,89.46299999999998 41.96799999999998,89.24099999999999 43.92899999999998,87.00799999999998 L 43.92899999999998,86.94699999999997 C 43.92499999999998,89.91899999999997 46.332999999999984,92.33099999999997 49.30599999999998,92.33299999999997 C 52.27699999999999,92.33499999999997 54.688999999999986,89.92799999999997 54.691999999999986,86.95699999999997 C 56.652999999999984,89.18999999999997 60.51099999999999,89.46199999999996 62.743999999999986,87.50099999999996 C 64.97699999999999,85.54099999999997 65.16399999999999,82.26299999999996 63.20299999999999,80.02899999999997 C 65.35,82.08399999999997 68.75699999999999,81.79299999999996 70.81199999999998,79.64399999999996 C 72.86599999999999,77.49799999999996 72.78999999999998,74.08999999999996 70.64199999999998,72.03499999999997 C 72.78599999999999,74.09299999999996 76.12799999999999,73.89699999999996 78.18499999999999,71.75199999999997 C 80.24399999999999,69.60899999999997 80.17199999999998,66.20099999999996 78.02699999999999,64.14299999999997 C 80.16999999999999,66.20299999999997 83.48999999999998,66.11799999999997 85.54999999999998,63.97499999999997 C 87.60999999999999,61.83299999999997 87.54099999999998,58.424999999999976 85.39799999999998,56.36599999999997 C 87.81199999999998,58.09899999999997 90.99799999999998,57.32599999999997 92.72999999999998,54.91199999999997 C 94.46399999999997,52.49799999999997 93.91299999999998,49.13499999999997 91.49799999999998,47.40199999999997 L 91.42399999999998,47.40199999999997 C 94.399,47.458 96.854,45.094 96.91,42.123 M 77.638,55.097 L 51.114,79.819 C 50.169999999999995,80.699 48.632999999999996,80.699 47.695,79.819 L 21.169,55.097 C 14.091000000000001,48.498000000000005 14.091000000000001,37.766000000000005 21.169,31.165000000000003 C 27.994,24.807000000000002 38.966,25.557000000000002 46.147999999999996,31.637000000000004 L 49.403,34.395 L 52.653999999999996,31.637000000000004 C 59.839999999999996,25.557000000000002 70.81099999999999,24.804000000000002 77.637,31.165000000000003 C 84.715,37.761 84.715,48.497 77.638,55.097"/>
	<path cx="45.648" cy="38.251" d="M 44.54900000000001,38.251 A 1.0990000000000002,1.0990000000000002 0.0 1,0 46.74700000000001,38.251 A 1.0990000000000002,1.0990000000000002 0.0 1,0 44.54900000000001,38.251" r="1.099"/>
	<path cx="41.251" cy="34.899" d="M 40.152,34.899 A 1.0990000000000002,1.0990000000000002 0.0 1,0 42.35,34.899 A 1.0990000000000002,1.0990000000000002 0.0 1,0 40.152,34.899" r="1.099"/>
	<path cx="36.855" cy="32.7" d="M 35.756,32.7 A 1.0990000000000002,1.0990000000000002 0.0 1,0 37.954,32.7 A 1.0990000000000002,1.0990000000000002 0.0 1,0 35.756,32.7" r="1.099"/>
	<path cx="32.458" cy="31.601" d="M 31.358999999999998,31.601 A 1.099,1.099 0.0 1,0 33.556999999999995,31.601 A 1.0990000000000002,1.0990000000000002 0.0 1,0 31.358999999999995,31.601" r="1.099"/>
	<path cx="28.061" cy="32.7" d="M 26.962,32.7 A 1.0990000000000002,1.0990000000000002 0.0 1,0 29.16,32.7 A 1.0990000000000002,1.0990000000000002 0.0 1,0 26.962,32.7" r="1.099"/>
	<path cx="24.029" cy="34.899" d="M 22.93,34.899 A 1.0990000000000002,1.0990000000000002 0.0 1,0 25.128,34.899 A 1.0990000000000002,1.0990000000000002 0.0 1,0 22.93,34.899" r="1.099"/>
	<path cx="21.465" cy="38.196" d="M 20.366,38.196 A 1.0990000000000002,1.0990000000000002 0.0 1,0 22.564,38.196 A 1.0990000000000002,1.0990000000000002 0.0 1,0 20.366,38.196" r="1.099"/>
	<path cx="20.366" cy="42.593" d="M 19.267,42.593 A 1.0990000000000002,1.0990000000000002 0.0 1,0 21.465,42.593 A 1.0990000000000002,1.0990000000000002 0.0 1,0 19.267,42.593" r="1.099"/>
	<path cx="21.465" cy="46.99" d="M 20.366,46.99 A 1.0990000000000002,1.0990000000000002 0.0 1,0 22.564,46.99 A 1.0990000000000002,1.0990000000000002 0.0 1,0 20.366,46.99" r="1.099"/>
	<path cx="24.029" cy="50.928" d="M 22.93,50.928 A 1.0990000000000002,1.0990000000000002 0.0 1,0 25.128,50.928 A 1.0990000000000002,1.0990000000000002 0.0 1,0 22.93,50.928" r="1.099"/>
	<path cx="27.378" cy="54.2" d="M 26.279,54.2 A 1.0990000000000002,1.0990000000000002 0.0 1,0 28.477,54.2 A 1.0990000000000002,1.0990000000000002 0.0 1,0 26.279,54.2" r="1.099"/>
	<path cx="30.859" cy="57.131" d="M 29.76,57.131 A 1.0990000000000002,1.0990000000000002 0.0 1,0 31.958000000000002,57.131 A 1.0990000000000002,1.0990000000000002 0.0 1,0 29.76,57.131" r="1.099"/>
	<path cx="34.197" cy="60.456" d="M 33.098000000000006,60.456 A 1.0990000000000002,1.0990000000000002 0.0 1,0 35.29600000000001,60.456 A 1.0990000000000002,1.0990000000000002 0.0 1,0 33.098000000000006,60.456" r="1.099"/>
	<path cx="37.679" cy="63.478" d="M 36.580000000000005,63.478 A 1.0990000000000002,1.0990000000000002 0.0 1,0 38.778000000000006,63.478 A 1.0990000000000002,1.0990000000000002 0.0 1,0 36.580000000000005,63.478" r="1.099"/>
	<path cx="41.251" cy="66.56" d="M 40.152,66.56 A 1.0990000000000002,1.0990000000000002 0.0 1,0 42.35,66.56 A 1.0990000000000002,1.0990000000000002 0.0 1,0 40.152,66.56" r="1.099"/>
	<path cx="45.095" cy="70.308" d="M 43.996,70.308 A 1.0990000000000002,1.0990000000000002 0.0 1,0 46.194,70.308 A 1.0990000000000002,1.0990000000000002 0.0 1,0 43.996,70.308" r="1.099"/>
	<path cx="52.244" cy="38.196" d="M 51.145,38.196 A 1.0990000000000002,1.0990000000000002 0.0 1,0 53.343,38.196 A 1.0990000000000002,1.0990000000000002 0.0 1,0 51.145,38.196" r="1.099"/>
	<path cx="48.946" cy="41.494" d="M 47.847,41.494 A 1.0990000000000002,1.0990000000000002 0.0 1,0 50.045,41.494 A 1.0990000000000002,1.0990000000000002 0.0 1,0 47.847,41.494" r="1.099"/>
	<path cx="56.641" cy="34.899" d="M 55.542,34.899 A 1.0990000000000002,1.0990000000000002 0.0 1,0 57.74,34.899 A 1.0990000000000002,1.0990000000000002 0.0 1,0 55.542,34.899" r="1.099"/>
	<path cx="61.038" cy="32.7" d="M 59.939,32.7 A 1.0990000000000002,1.0990000000000002 0.0 1,0 62.137,32.7 A 1.0990000000000002,1.0990000000000002 0.0 1,0 59.939,32.7" r="1.099"/>
	<path cx="65.435" cy="31.601" d="M 64.336,31.601 A 1.099,1.099 0.0 1,0 66.53399999999999,31.601 A 1.099,1.099 0.0 1,0 64.336,31.601" r="1.099"/>
	<path cx="69.832" cy="32.7" d="M 68.73299999999999,32.7 A 1.099,1.099 0.0 1,0 70.93099999999998,32.7 A 1.099,1.099 0.0 1,0 68.73299999999999,32.7" r="1.099"/>
	<path cx="73.863" cy="34.899" d="M 72.764,34.899 A 1.099,1.099 0.0 1,0 74.96199999999999,34.899 A 1.099,1.099 0.0 1,0 72.764,34.899" r="1.099"/>
	<path cx="76.427" cy="38.196" d="M 75.328,38.196 A 1.099,1.099 0.0 1,0 77.526,38.196 A 1.099,1.099 0.0 1,0 75.328,38.196" r="1.099"/>
	<path cx="77.526" cy="42.593" d="M 76.42699999999999,42.593 A 1.099,1.099 0.0 1,0 78.62499999999999,42.593 A 1.099,1.099 0.0 1,0 76.42699999999999,42.593" r="1.099"/>
	<path cx="76.427" cy="46.99" d="M 75.328,46.99 A 1.099,1.099 0.0 1,0 77.526,46.99 A 1.099,1.099 0.0 1,0 75.328,46.99" r="1.099"/>
	<path cx="73.863" cy="50.928" d="M 72.764,50.928 A 1.099,1.099 0.0 1,0 74.96199999999999,50.928 A 1.099,1.099 0.0 1,0 72.764,50.928" r="1.099"/>
	<path cx="70.515" cy="54.2" d="M 69.416,54.2 A 1.099,1.099 0.0 1,0 71.61399999999999,54.2 A 1.099,1.099 0.0 1,0 69.416,54.2" r="1.099"/>
	<path cx="67.033" cy="57.131" d="M 65.934,57.131 A 1.099,1.099 0.0 1,0 68.13199999999999,57.131 A 1.099,1.099 0.0 1,0 65.934,57.131" r="1.099"/>
	<path cx="63.695" cy="60.456" d="M 62.596000000000004,60.456 A 1.099,1.099 0.0 1,0 64.794,60.456 A 1.0990000000000002,1.0990000000000002 0.0 1,0 62.596,60.456" r="1.099"/>
	<path cx="60.214" cy="63.478" d="M 59.115,63.478 A 1.0990000000000002,1.0990000000000002 0.0 1,0 61.313,63.478 A 1.0990000000000002,1.0990000000000002 0.0 1,0 59.115,63.478" r="1.099"/>
	<path cx="56.641" cy="66.56" d="M 55.542,66.56 A 1.0990000000000002,1.0990000000000002 0.0 1,0 57.74,66.56 A 1.0990000000000002,1.0990000000000002 0.0 1,0 55.542,66.56" r="1.099"/>
	<path cx="52.797" cy="70.308" d="M 51.698,70.308 A 1.0990000000000002,1.0990000000000002 0.0 1,0 53.896,70.308 A 1.0990000000000002,1.0990000000000002 0.0 1,0 51.698,70.308" r="1.099"/>
	<path cx="48.946" cy="73.738" d="M 47.847,73.738 A 1.0990000000000002,1.0990000000000002 0.0 1,0 50.045,73.738 A 1.0990000000000002,1.0990000000000002 0.0 1,0 47.847,73.738" r="1.099"/>
</svg>
