<?xml version="1.0" ?>
<svg xmlns="http://www.w3.org/2000/svg" xmlns:ev="http://www.w3.org/2001/xml-events" xmlns:xlink="http://www.w3.org/1999/xlink" baseProfile="full" enable-background="new 0 0 100 100" height="588px" version="1.1" viewBox="0 0 100 100" width="600px" x="0px" xml:space="preserve" y="0px">
	<defs/>
	<path d="M 51.242,67.27 C 51.05,67.146 32.0,54.807 26.276,50.033 C 23.244,47.506 21.47,43.812 21.28,39.632000000000005 C 21.064,34.855000000000004 22.968,29.969000000000005 26.41,26.528000000000006 C 29.659,23.279000000000007 34.152,21.416000000000004 38.736000000000004,21.416000000000004 C 43.230000000000004,21.416000000000004 47.188,23.196000000000005 49.882000000000005,26.428000000000004 C 54.654,32.152 66.994,51.202000000000005 67.11800000000001,51.393 C 67.364,51.774 67.769,52.023 68.21900000000001,52.07 C 68.67500000000001,52.123 69.11800000000001,51.96 69.438,51.639 L 76.18,44.897000000000006 C 76.67500000000001,44.403000000000006 76.762,43.632000000000005 76.39,43.040000000000006 C 75.872,42.21300000000001 63.646,22.731000000000005 58.396,16.954000000000008 C 53.183,11.217000000000008 45.907,8.058000000000007 37.908,8.058000000000007 C 30.088,8.058000000000007 22.412,11.193000000000007 16.805,16.674000000000007 C 16.786,16.691000000000006 16.768,16.709000000000007 16.75,16.727000000000007 L 16.574,16.903000000000006 C 16.556,16.920000000000005 16.540000000000003,16.938000000000006 16.524,16.955000000000005 C 10.84,22.763000000000005 7.705,30.724000000000004 7.916,38.82900000000001 C 8.116,46.52000000000001 11.272,53.52400000000001 16.802,58.54900000000001 C 22.579,63.79900000000001 42.061,76.025 42.888,76.543 C 43.134,76.69600000000001 43.409,76.772 43.684,76.772 C 44.071999999999996,76.772 44.455,76.623 44.745,76.33300000000001 L 51.486999999999995,69.59100000000001 C 51.806999999999995,69.27100000000002 51.965999999999994,68.822 51.91799999999999,68.37200000000001 C 51.86999999999999,67.92200000000003 51.623,67.516 51.242,67.27 M 10.916,38.75 C 10.725,31.395 13.594000000000001,24.171 18.78,18.94 C 23.833000000000002,13.931000000000001 30.806,11.057000000000002 37.909000000000006,11.057000000000002 C 45.05200000000001,11.057000000000002 51.53900000000001,13.868000000000002 56.17700000000001,18.971000000000004 C 57.855000000000004,20.817000000000004 60.34400000000001,24.231 62.92700000000001,27.978 L 58.21600000000001,32.688 C 55.891000000000005,29.346000000000004 53.69600000000001,26.316000000000003 52.18700000000001,24.505000000000003 C 48.91300000000001,20.577 44.13600000000001,18.414 38.73600000000001,18.414 C 33.36100000000001,18.414 28.09600000000001,20.598000000000003 24.25500000000001,24.439 C 20.26200000000001,28.432 18.03000000000001,34.161 18.28400000000001,39.766 C 18.51200000000001,44.799 20.66800000000001,49.263 24.35500000000001,52.336 C 26.16600000000001,53.846 29.196000000000012,56.041 32.53800000000001,58.366 L 27.827000000000012,63.077 C 24.080000000000013,60.492999999999995 20.668000000000013,58.004999999999995 18.821000000000012,56.326 C 13.902,51.858 11.094,45.616 10.916,38.75" fill="#000000"/>
	<path d="M 89.362,85.805 L 77.33,80.852 L 82.019,74.177 C 82.29700000000001,73.781 82.367,73.27600000000001 82.20700000000001,72.82000000000001 C 82.04700000000001,72.364 81.67800000000001,72.012 81.21400000000001,71.876 L 65.88100000000001,67.37 C 65.08600000000001,67.13900000000001 64.25300000000001,67.593 64.01900000000002,68.387 C 63.78500000000002,69.182 64.24000000000002,70.016 65.03500000000003,70.249 L 78.36100000000002,74.16499999999999 L 73.79600000000002,80.663 C 73.53400000000002,81.036 73.45600000000002,81.508 73.58400000000002,81.945 C 73.71200000000002,82.38199999999999 74.03100000000002,82.73899999999999 74.45300000000002,82.91199999999999 L 88.22100000000002,88.579 C 88.40800000000002,88.65599999999999 88.60100000000001,88.692 88.79100000000001,88.692 C 89.38100000000001,88.692 89.94000000000001,88.342 90.17900000000002,87.76299999999999 C 90.494,86.996 90.128,86.12 89.362,85.805" fill="#000000"/>
</svg>
