<?xml version="1.0" ?>
<svg xmlns="http://www.w3.org/2000/svg" xmlns:ev="http://www.w3.org/2001/xml-events" xmlns:xlink="http://www.w3.org/1999/xlink" baseProfile="full" enable-background="new 0 0 105 82" height="387px" version="1.1" viewBox="0 0 105 82" width="600px" x="0px" xml:space="preserve" y="0px">
	<defs/>
	<path d="M 67.45,38.21 C 69.836,37.475 72.151,36.967 74.287,36.62 C 74.194,32.766 73.68100000000001,29.580999999999996 73.31,27.750999999999998 C 71.781,28.316999999999997 69.311,29.336 66.507,30.868 C 66.97200000000001,32.682 67.28800000000001,34.568999999999996 67.403,36.510999999999996 C 67.438,37.08 67.453,37.646 67.45,38.21"/>
	<path d="M 76.453,53.136 C 78.753,48.489000000000004 80.024,43.92 80.638,40.818000000000005 C 72.202,41.182 53.970000000000006,39.27100000000001 47.697,64.016 C 47.275000000000006,65.68100000000001 46.502,68.01700000000001 45.875,69.795 C 47.808,69.527 66.508,73.23 76.453,53.136"/>
	<path d="M 80.278,52.645 C 79.98400000000001,53.29600000000001 79.67500000000001,53.951 79.34100000000001,54.607000000000006 C 75.65100000000001,61.857000000000006 70.61800000000001,66.91300000000001 64.313,69.739 C 82.337,71.826 97.5,60.68 97.5,60.68 C 97.5,60.68 90.425,55.336 80.278,52.645"/>
	<path d="M 49.97,49.317 C 53.277,45.338 57.591,42.186 62.893,39.888999999999996 C 63.318,39.705 63.742,39.531 64.164,39.364999999999995 C 64.215,38.489999999999995 64.221,37.608 64.169,36.718999999999994 C 63.482,24.985999999999994 54.3,15.088999999999995 51.123999999999995,11.998999999999995 C 49.105,14.016999999999996 44.632999999999996,18.900999999999996 41.56699999999999,25.306999999999995 C 39.153999999999996,30.349999999999994 38.096999999999994,35.218999999999994 38.38399999999999,39.89099999999999 C 43.182,42.243 47.052,45.395 49.97,49.317"/>
	<path d="M 22.501,53.768 C 22.428,53.628 22.360000000000003,53.491 22.290000000000003,53.352000000000004 C 13.337000000000003,56.213 13.808000000000003,55.912000000000006 7.5000000000000036,60.68000000000001 C 7.5000000000000036,60.68000000000001 22.162000000000006,71.45800000000001 39.785,69.83500000000001 C 32.494,67.09 26.692,61.702 22.501,53.768"/>
	<path d="M 21.002,40.168 C 21.674,43.213 22.97,47.713 25.366999999999997,52.251999999999995 C 29.583999999999996,60.236999999999995 35.553999999999995,65.369 43.126,67.52499999999999 C 43.300999999999995,67.041 44.324999999999996,58.882999999999996 48.053999999999995,52.64399999999999 C 42.058,41.77 27.632,40.313 21.002,40.168"/>
	<path d="M 36.04,31.073 C 33.077999999999996,29.421 30.456,28.34 28.857,27.749000000000002 C 28.497,29.545 27.997,32.643 27.887,36.387 C 30.21,36.862 32.669,37.533 35.133,38.477000000000004 C 35.123,36.046 35.42,33.574 36.04,31.073"/>
</svg>
