<?xml version="1.0" ?>
<svg xmlns="http://www.w3.org/2000/svg" xmlns:ev="http://www.w3.org/2001/xml-events" xmlns:xlink="http://www.w3.org/1999/xlink" baseProfile="full" enable-background="new 0 0 100 38.595" height="233px" version="1.1" viewBox="0 0 100 38.595" width="600px" x="0px" xml:space="preserve" y="0px">
	<defs/>
	<path d="M 19.273,25.715 C 11.530999999999999,25.715 12.677,16.311999999999998 12.677,16.311999999999998 C 12.677,16.311999999999998 13.997,13.331999999999997 19.273,13.331999999999997 C 24.548000000000002,13.331999999999997 25.924,16.311999999999998 25.924,16.311999999999998 C 25.924,16.311999999999998 27.01,25.715 19.273,25.715 M 19.296,10.293 C 11.212,10.293 8.857999999999999,17.598 8.857999999999999,34.742999999999995 L 8.857999999999999,35.513999999999996 C 11.869,37.455999999999996 15.445999999999998,38.596 19.296,38.596 C 23.146,38.596 26.723,37.455999999999996 29.735,35.513999999999996 L 29.735,34.742999999999995 C 29.736,17.598 27.381,10.293 19.296,10.293" fill="#000000"/>
	<path d="M 49.941,25.715 C 42.201,25.715 43.345,16.311999999999998 43.345,16.311999999999998 C 43.345,16.311999999999998 44.667,13.331999999999997 49.941,13.331999999999997 C 55.217,13.331999999999997 56.592,16.311999999999998 56.592,16.311999999999998 C 56.592,16.311999999999998 57.68,25.715 49.941,25.715 M 49.967,10.293 C 41.882,10.293 39.528,17.598 39.528,34.742999999999995 L 39.528,35.513999999999996 C 42.539,37.455999999999996 46.114999999999995,38.596 49.967,38.596 C 53.816,38.596 57.391999999999996,37.455999999999996 60.403999999999996,35.513999999999996 L 60.403999999999996,34.742999999999995 C 60.404,17.598 58.05,10.293 49.967,10.293" fill="#000000"/>
	<path d="M 81.23,25.715 C 73.49000000000001,25.715 74.63300000000001,16.311999999999998 74.63300000000001,16.311999999999998 C 74.63300000000001,16.311999999999998 75.95500000000001,13.331999999999997 81.23,13.331999999999997 C 86.50500000000001,13.331999999999997 87.881,16.311999999999998 87.881,16.311999999999998 C 87.881,16.311999999999998 88.969,25.715 81.23,25.715 M 81.256,10.293 C 73.17099999999999,10.293 70.818,17.598 70.818,34.742999999999995 L 70.818,35.513999999999996 C 73.829,37.455999999999996 77.405,38.596 81.256,38.596 C 85.106,38.596 88.682,37.455999999999996 91.694,35.513999999999996 L 91.694,34.742999999999995 C 91.693,17.598 89.339,10.293 81.256,10.293" fill="#000000"/>
	<path d="M 80.645,0.0 C 74.39399999999999,0.0 68.835,2.99 65.306,7.611 C 61.777,2.99 56.218,0.0 49.966,0.0 C 43.718,0.0 38.160000000000004,2.988 34.632000000000005,7.604 C 31.103,2.988 25.546,0.0 19.298,0.0 C 8.656,0.0 0.0,8.657 0.0,19.298 C 0.0,20.008 0.576,20.584999999999997 1.287,20.584999999999997 C 1.996,20.584999999999997 2.573,20.007999999999996 2.573,19.298 C 2.573,10.073999999999998 10.075,2.573999999999998 19.298000000000002,2.573999999999998 C 24.959000000000003,2.573999999999998 29.96,5.410999999999998 32.987,9.729 C 33.278,10.344999999999999 33.9,10.774 34.627,10.774 C 35.332,10.774 35.937000000000005,10.369 36.238,9.782 C 39.261,5.433 44.281,2.574 49.967,2.574 C 55.675,2.574 60.711,5.4559999999999995 63.729,9.833 C 64.04,10.391 64.628,10.774000000000001 65.313,10.774000000000001 C 66.031,10.774000000000001 66.647,10.353000000000002 66.943,9.748000000000001 C 69.967,5.419000000000001 74.975,2.5740000000000007 80.645,2.5740000000000007 C 89.868,2.5740000000000007 97.371,10.074000000000002 97.371,19.298000000000002 C 97.371,20.008000000000003 97.94699999999999,20.585 98.657,20.585 C 99.368,20.585 99.943,20.008000000000003 99.943,19.298000000000002 C 99.942,8.657 91.286,0.0 80.645,0.0" fill="#000000"/>
</svg>
