<?xml version="1.0" ?>
<svg xmlns="http://www.w3.org/2000/svg" xmlns:ev="http://www.w3.org/2001/xml-events" xmlns:xlink="http://www.w3.org/1999/xlink" baseProfile="full" enable-background="new 0 0 100 100" height="375px" version="1.1" viewBox="0 0 100 100" width="600px" x="0px" xml:space="preserve" y="0px">
	<defs/>
	<path d="M 84.164,47.83 C 82.928,49.449 79.396,49.427 76.736,49.213 C 72.933,48.939 72.443,49.265 71.412,46.784 C 70.426,44.471 70.167,39.852 69.039,37.485 C 68.523,36.413 67.181,34.915 66.006,34.256 C 62.805,32.477000000000004 54.399,32.094 50.045,32.146 C 45.691,32.198 37.284000000000006,32.477000000000004 34.084,34.256 C 32.909000000000006,34.916 31.566000000000003,36.414 31.051000000000002,37.485 C 29.923000000000002,39.853 29.664,44.471 28.677000000000003,46.784 C 27.646000000000004,49.265 27.156000000000002,48.939 23.354000000000003,49.213 C 20.693,49.427 17.161,49.449 15.925000000000002,47.83 C 14.299000000000003,45.73 15.683000000000003,36.745 16.808000000000003,34.519 C 17.933000000000003,32.293 28.545,25.631999999999998 50.045,25.631999999999998 C 71.545,25.631999999999998 82.156,32.294 83.281,34.519 C 84.406,36.744 85.791,45.73 84.164,47.83 M 63.295,42.216 L 63.295,36.146 L 56.677,36.146 L 56.367,41.406 L 43.617,41.321 L 43.419,36.147 L 36.907,36.147 L 36.696,36.446999999999996 L 36.696,42.404999999999994 L 23.658,55.505 L 23.05,69.143 L 77.04,69.143 L 76.54400000000001,55.505 L 63.295,42.216"/>
</svg>
