<?xml version="1.0" ?>
<svg xmlns="http://www.w3.org/2000/svg" xmlns:ev="http://www.w3.org/2001/xml-events" xmlns:xlink="http://www.w3.org/1999/xlink" baseProfile="full" enable-background="new 0 0 52.66 99.959" height="600px" version="1.1" viewBox="0 0 52.66 99.959" width="317px" x="0px" xml:space="preserve" y="0px">
	<defs/>
	<path d="M 24.4,32.602 C 24.381999999999998,35.834999999999994 21.423,39.312999999999995 17.587999999999997,39.312999999999995 L 17.587999999999997,94.107 C 17.586999999999996,101.91 6.980999999999998,101.91 6.964999999999998,94.107 L 6.964999999999998,39.313 C 3.242999999999998,39.313 -0.007000000000002338,36.433 -1.7763568394002505e-15,32.145 L -1.7763568394002505e-15,1.951 C -0.007,-0.67 3.787,-0.771 3.812,2.053 L 3.812,24.366 L 6.965,24.366 L 6.965,1.848 C 6.965,-0.5589999999999999 10.617,-0.7150000000000001 10.626,1.951 L 10.626,24.366 L 13.876999999999999,24.366 L 13.876999999999999,1.899 C 13.900999999999998,-0.6400000000000001 17.45,-0.7410000000000001 17.435,2.001 L 17.435,24.366 L 20.689999999999998,24.366 L 20.689999999999998,1.899 C 20.677999999999997,-0.6139999999999999 24.384999999999998,-0.7160000000000002 24.400999999999996,2.001 L 24.400999999999996,32.602 L 24.4,32.602"/>
	<path d="M 52.66,8.965 L 52.66,94.107 C 52.674,101.713 42.047999999999995,101.6 42.038,94.107 L 42.038,60.304 L 36.394999999999996,60.304 L 36.394999999999996,8.965 C 36.389,-2.988 52.674,-2.988 52.66,8.965 L 52.66,8.965"/>
</svg>
