<?xml version="1.0" ?>
<svg xmlns="http://www.w3.org/2000/svg" xmlns:ev="http://www.w3.org/2001/xml-events" xmlns:xlink="http://www.w3.org/1999/xlink" baseProfile="full" enable-background="new 0 0 100 100" height="191px" version="1.1" viewBox="0 0 100 100" width="600px" x="0px" xml:space="preserve" y="0px">
	<defs/>
	<path d="M 81.0,51.0 C 84.6,51.0 87.5,53.9 87.5,57.5 C 87.6,60.7 85.0,63.8 81.3,63.8 C 77.8,63.8 74.89999999999999,61.0 74.89999999999999,57.3 C 74.8,53.6 77.8,51.0 81.0,51.0"/>
	<path d="M 23.0,51.0 C 26.5,51.0 29.3,53.7 29.3,57.4 C 29.3,61.0 26.5,63.8 23.0,63.8 C 19.5,63.8 16.8,61.099999999999994 16.7,57.4 C 16.8,53.8 19.5,51.0 23.0,51.0"/>
	<path d="M 5.3,54.1 C 5.1,54.4 5.1,54.7 5.3,55.0 C 5.6,55.6 5.8,56.1 6.0,56.7 C 6.1,56.800000000000004 6.1,57.0 6.2,57.1 C 6.5,57.300000000000004 6.6000000000000005,57.7 6.7,58.0 C 6.8,58.1 6.8,58.2 6.9,58.3 C 8.4,59.4 10.2,59.4 12.0,59.8 C 12.9,60.0 13.7,60.0 14.6,60.099999999999994 C 14.799999999999999,60.099999999999994 14.9,58.99999999999999 14.799999999999999,58.49999999999999 C 14.799999999999999,58.199999999999996 14.899999999999999,57.99999999999999 14.899999999999999,57.699999999999996 C 14.899999999999999,57.599999999999994 14.899999999999999,57.49999999999999 14.899999999999999,57.49999999999999 C 14.999999999999998,52.89999999999999 18.5,49.3 22.9,49.3 C 26.099999999999998,49.3 28.799999999999997,51.099999999999994 30.099999999999998,53.8 C 30.099999999999998,53.8 30.099999999999998,53.8 30.099999999999998,53.9 C 30.2,54.0 30.2,54.199999999999996 30.299999999999997,54.3 C 31.199999999999996,56.5 31.099999999999998,58.699999999999996 30.9,58.9 C 30.7,59.699999999999996 30.5,60.6 30.4,61.199999999999996 C 30.299999999999997,61.599999999999994 30.599999999999998,61.9 31.0,61.9 C 32.1,61.8 34.3,61.6 36.6,61.4 C 48.900000000000006,61.4 61.1,61.3 73.5,61.3 C 73.7,61.0 73.6,61.099999999999994 73.8,60.8 C 73.39999999999999,60.0 73.1,58.4 73.1,57.5 C 73.19999999999999,52.9 76.69999999999999,49.3 81.1,49.3 C 85.5,49.3 89.1,52.8 89.1,57.4 C 89.1,57.4 89.1,57.4 89.1,57.4 C 89.1,58.5 88.89999999999999,59.4 88.69999999999999,59.9 C 88.6,60.199999999999996 88.79999999999998,60.4 88.99999999999999,60.4 C 89.89999999999999,60.4 90.89999999999999,60.4 91.79999999999998,60.1 C 92.19999999999999,60.0 92.59999999999998,60.0 92.99999999999999,59.9 C 93.49999999999999,59.8 93.59999999999998,59.6 93.59999999999998,59.1 C 93.59999999999998,59.0 93.59999999999998,58.9 93.59999999999998,58.9 C 93.99999999999999,58.0 94.09999999999998,57.1 94.19999999999997,56.199999999999996 C 94.19999999999997,55.99999999999999 94.19999999999997,55.8 94.29999999999997,55.599999999999994 C 94.79999999999997,55.3 94.79999999999997,55.3 94.79999999999997,54.8 C 94.79999999999997,54.3 94.89999999999996,53.9 94.89999999999996,53.4 C 94.89999999999996,53.0 94.69999999999996,52.699999999999996 94.39999999999996,52.5 C 93.99999999999996,52.3 93.49999999999996,52.1 93.09999999999997,51.9 C 93.09999999999997,51.9 93.09999999999997,51.8 93.09999999999997,51.699999999999996 C 93.09999999999997,51.3 93.09999999999997,50.8 93.09999999999997,50.4 C 93.19999999999996,49.0 92.49999999999997,48.199999999999996 91.39999999999996,47.6 C 90.79999999999997,47.300000000000004 90.19999999999996,47.1 89.59999999999997,46.9 C 88.29999999999997,46.6 83.89999999999996,45.4 82.89999999999996,45.199999999999996 C 81.29999999999997,44.9 79.59999999999997,44.699999999999996 77.89999999999996,44.49999999999999 C 76.09999999999997,44.29999999999999 74.39999999999996,44.199999999999996 72.59999999999997,43.99999999999999 C 71.89999999999996,43.89999999999999 71.19999999999996,43.89999999999999 70.39999999999996,43.99999999999999 C 69.89999999999996,43.99999999999999 69.49999999999996,43.89999999999999 69.09999999999997,43.699999999999996 C 65.69999999999996,41.699999999999996 56.499999999999964,37.49999999999999 55.499999999999964,36.99999999999999 C 53.79999999999996,36.199999999999996 51.89999999999996,35.89999999999999 50.099999999999966,35.599999999999994 C 48.89999999999996,35.39999999999999 47.69999999999997,35.39999999999999 46.499999999999964,35.39999999999999 C 42.39999999999996,35.39999999999999 38.29999999999997,35.39999999999999 34.19999999999996,35.79999999999999 C 32.49999999999996,35.99999999999999 30.79999999999996,36.19999999999999 29.09999999999996,36.59999999999999 C 27.299999999999958,36.999999999999986 25.499999999999957,37.899999999999984 23.799999999999958,38.499999999999986 C 21.499999999999957,39.399999999999984 19.299999999999958,40.499999999999986 16.999999999999957,41.499999999999986 C 15.8,42.3 12.9,43.0 10.0,43.0 C 9.2,43.0 8.5,43.0 7.7,43.0 C 7.5,43.0 7.3,43.0 7.1000000000000005,43.1 C 6.9,43.2 6.7,43.300000000000004 6.800000000000001,43.6 C 7.200000000000001,45.2 7.000000000000001,46.800000000000004 6.700000000000001,48.4 C 6.600000000000001,49.0 6.600000000000001,49.6 6.600000000000001,50.3 C 6.600000000000001,50.4 6.600000000000001,50.5 6.600000000000001,50.599999999999994 C 6.400000000000001,50.699999999999996 6.100000000000001,50.699999999999996 5.900000000000001,50.8 C 5.300000000000002,51.0 5.000000000000001,51.599999999999994 5.100000000000001,52.199999999999996 C 5.200000000000001,52.699999999999996 5.300000000000002,53.199999999999996 5.400000000000001,53.699999999999996 C 5.4,53.7 5.4,53.9 5.3,54.1 M 40.8,37.0 C 42.699999999999996,36.8 45.5,36.8 47.599999999999994,36.9 C 49.599999999999994,37.0 51.49999999999999,37.3 53.39999999999999,37.9 C 55.099999999999994,38.5 61.89999999999999,42.1 61.89999999999999,42.1 C 62.099999999999994,42.2 62.19999999999999,42.300000000000004 62.39999999999999,42.4 L 62.39999999999999,42.4 C 62.29999999999999,42.4 62.19999999999999,42.4 62.099999999999994,42.4 C 61.99999999999999,42.4 61.89999999999999,42.5 61.699999999999996,42.6 L 61.699999999999996,42.6 C 61.49999999999999,42.5 61.4,42.5 61.199999999999996,42.5 C 61.199999999999996,42.5 61.199999999999996,42.5 61.199999999999996,42.5 C 61.099999999999994,42.5 60.199999999999996,42.1 59.99999999999999,42.8 C 59.99999999999999,42.9 59.79999999999999,43.4 59.79999999999999,43.699999999999996 C 59.79999999999999,44.4 60.29999999999999,44.8 60.29999999999999,44.8 L 60.29999999999999,44.8 C 60.19999999999999,45.0 60.09999999999999,45.199999999999996 59.99999999999999,45.4 C 59.599999999999994,45.4 49.19999999999999,45.1 42.3,45.0 L 40.3,38.0 C 40.3,37.5 40.5,37.0 40.8,37.0 M 22.9,42.7 C 22.9,42.1 23.7,41.5 23.9,41.400000000000006 C 24.4,41.00000000000001 26.799999999999997,39.900000000000006 30.0,38.60000000000001 C 32.6,37.50000000000001 36.1,37.50000000000001 37.4,37.30000000000001 C 37.699999999999996,37.30000000000001 37.9,37.500000000000014 37.9,37.70000000000001 L 38.5,44.70000000000001 C 37.1,44.70000000000001 24.7,44.40000000000001 24.4,44.40000000000001 C 24.0,44.4 23.0,43.9 22.9,42.7"/>
</svg>
