<?xml version="1.0" ?>
<svg xmlns="http://www.w3.org/2000/svg" xmlns:ev="http://www.w3.org/2001/xml-events" xmlns:xlink="http://www.w3.org/1999/xlink" baseProfile="full" enable-background="new 0 0 100 100" height="600px" version="1.1" viewBox="0 0 100 100" width="495px" x="0px" xml:space="preserve" y="0px">
	<defs/>
	<path d="M 78.7,5.0 L 23.3,5.0 L 17.700000000000003,5.0 L 17.700000000000003,8.4 L 14.300000000000002,8.4 C 13.500000000000002,8.4 12.900000000000002,9.0 12.900000000000002,9.8 C 12.900000000000002,10.600000000000001 13.500000000000002,11.200000000000001 14.300000000000002,11.200000000000001 L 17.700000000000003,11.200000000000001 L 17.700000000000003,15.100000000000001 L 14.300000000000002,15.100000000000001 C 13.500000000000002,15.100000000000001 12.900000000000002,15.700000000000001 12.900000000000002,16.5 C 12.900000000000002,17.299999999999997 13.500000000000002,17.9 14.300000000000002,17.9 L 17.700000000000003,17.9 L 17.700000000000003,21.799999999999997 L 14.300000000000002,21.799999999999997 C 13.500000000000002,21.799999999999997 12.900000000000002,22.4 12.900000000000002,23.199999999999996 C 12.900000000000002,23.999999999999993 13.500000000000002,24.599999999999994 14.300000000000002,24.599999999999994 L 17.700000000000003,24.599999999999994 L 17.700000000000003,28.499999999999993 L 14.300000000000002,28.499999999999993 C 13.500000000000002,28.499999999999993 12.900000000000002,29.099999999999994 12.900000000000002,29.89999999999999 C 12.900000000000002,30.69999999999999 13.500000000000002,31.29999999999999 14.300000000000002,31.29999999999999 L 17.700000000000003,31.29999999999999 L 17.700000000000003,35.19999999999999 L 14.300000000000002,35.19999999999999 C 13.500000000000002,35.19999999999999 12.900000000000002,35.79999999999999 12.900000000000002,36.59999999999999 C 12.900000000000002,37.399999999999984 13.500000000000002,37.999999999999986 14.300000000000002,37.999999999999986 L 17.700000000000003,37.999999999999986 L 17.700000000000003,41.899999999999984 L 14.300000000000002,41.899999999999984 C 13.500000000000002,41.899999999999984 12.900000000000002,42.499999999999986 12.900000000000002,43.29999999999998 C 12.900000000000002,44.09999999999998 13.500000000000002,44.69999999999998 14.300000000000002,44.69999999999998 L 17.700000000000003,44.69999999999998 L 17.700000000000003,48.59999999999998 L 14.300000000000002,48.59999999999998 C 13.500000000000002,48.59999999999998 12.900000000000002,49.19999999999998 12.900000000000002,49.99999999999998 C 12.900000000000002,50.799999999999976 13.500000000000002,51.39999999999998 14.300000000000002,51.39999999999998 L 17.700000000000003,51.39999999999998 L 17.700000000000003,55.299999999999976 L 14.300000000000002,55.299999999999976 C 13.500000000000002,55.299999999999976 12.900000000000002,55.89999999999998 12.900000000000002,56.699999999999974 C 12.900000000000002,57.49999999999997 13.500000000000002,58.09999999999997 14.300000000000002,58.09999999999997 L 17.700000000000003,58.09999999999997 L 17.700000000000003,62.0 L 14.300000000000002,62.0 C 13.500000000000002,62.0 12.900000000000002,62.6 12.900000000000002,63.4 C 12.900000000000002,64.19999999999999 13.500000000000002,64.8 14.300000000000002,64.8 L 17.700000000000003,64.8 L 17.700000000000003,68.7 L 14.300000000000002,68.7 C 13.500000000000002,68.7 12.900000000000002,69.3 12.900000000000002,70.10000000000001 C 12.900000000000002,70.90000000000002 13.500000000000002,71.50000000000001 14.300000000000002,71.50000000000001 L 17.700000000000003,71.50000000000001 L 17.700000000000003,75.40000000000002 L 14.300000000000002,75.40000000000002 C 13.500000000000002,75.40000000000002 12.900000000000002,76.00000000000001 12.900000000000002,76.80000000000003 C 12.900000000000002,77.60000000000004 13.500000000000002,78.20000000000003 14.300000000000002,78.20000000000003 L 17.700000000000003,78.20000000000003 L 17.700000000000003,82.10000000000004 L 14.300000000000002,82.10000000000004 C 13.500000000000002,82.10000000000004 12.900000000000002,82.70000000000003 12.900000000000002,83.50000000000004 C 12.900000000000002,84.30000000000005 13.500000000000002,84.90000000000005 14.300000000000002,84.90000000000005 L 17.700000000000003,84.90000000000005 L 17.700000000000003,88.80000000000005 L 14.300000000000002,88.80000000000005 C 13.500000000000002,88.80000000000005 12.900000000000002,89.40000000000005 12.900000000000002,90.20000000000006 C 12.900000000000002,91.00000000000007 13.500000000000002,91.60000000000007 14.300000000000002,91.60000000000007 L 17.700000000000003,91.60000000000007 L 17.700000000000003,95.0 L 23.300000000000004,95.0 L 78.7,95.0 C 83.4,95.0 87.10000000000001,91.2 87.10000000000001,86.6 L 87.10000000000001,13.4 C 87.1,8.8 83.3,5.0 78.7,5.0 M 84.3,86.6 C 84.3,89.69999999999999 81.8,92.19999999999999 78.7,92.19999999999999 L 26.1,92.19999999999999 L 26.1,7.8 L 78.7,7.8 C 81.8,7.8 84.3,10.3 84.3,13.399999999999999 L 84.3,86.6"/>
	<path d="M 40.2,16.2 C 40.2,17.0 39.6,17.599999999999998 38.800000000000004,17.599999999999998 L 33.2,17.599999999999998 C 32.400000000000006,17.599999999999998 31.800000000000004,16.999999999999996 31.800000000000004,16.2 C 31.800000000000004,15.400000000000002 32.400000000000006,14.799999999999999 33.2,14.799999999999999 L 38.800000000000004,14.799999999999999 C 39.6,14.8 40.2,15.4 40.2,16.2 M 77.2,14.8 L 44.3,14.8 C 43.5,14.8 42.9,15.4 42.9,16.2 C 42.9,17.0 43.5,17.599999999999998 44.3,17.599999999999998 L 77.19999999999999,17.599999999999998 C 77.99999999999999,17.599999999999998 78.6,16.999999999999996 78.6,16.2 C 78.6,15.400000000000002 78.0,14.8 77.2,14.8 M 38.8,23.8 L 33.199999999999996,23.8 C 32.4,23.8 31.799999999999997,24.400000000000002 31.799999999999997,25.2 C 31.799999999999997,25.999999999999996 32.4,26.599999999999998 33.199999999999996,26.599999999999998 L 38.8,26.599999999999998 C 39.599999999999994,26.599999999999998 40.199999999999996,25.999999999999996 40.199999999999996,25.2 C 40.199999999999996,24.400000000000002 39.6,23.8 38.8,23.8 M 77.2,23.8 L 44.3,23.8 C 43.5,23.8 42.9,24.400000000000002 42.9,25.2 C 42.9,25.999999999999996 43.5,26.599999999999998 44.3,26.599999999999998 L 77.19999999999999,26.599999999999998 C 77.99999999999999,26.599999999999998 78.6,25.999999999999996 78.6,25.2 C 78.6,24.400000000000002 78.0,23.8 77.2,23.8 M 38.8,32.8 L 33.199999999999996,32.8 C 32.4,32.8 31.799999999999997,33.4 31.799999999999997,34.199999999999996 C 31.799999999999997,34.99999999999999 32.4,35.599999999999994 33.199999999999996,35.599999999999994 L 38.8,35.599999999999994 C 39.599999999999994,35.599999999999994 40.199999999999996,34.99999999999999 40.199999999999996,34.199999999999996 C 40.199999999999996,33.4 39.6,32.8 38.8,32.8 M 77.2,32.8 L 44.3,32.8 C 43.5,32.8 42.9,33.4 42.9,34.199999999999996 C 42.9,34.99999999999999 43.5,35.599999999999994 44.3,35.599999999999994 L 77.19999999999999,35.599999999999994 C 77.99999999999999,35.599999999999994 78.6,34.99999999999999 78.6,34.199999999999996 C 78.6,33.4 78.0,32.8 77.2,32.8 M 38.8,41.8 L 33.199999999999996,41.8 C 32.4,41.8 31.799999999999997,42.4 31.799999999999997,43.199999999999996 C 31.799999999999997,43.99999999999999 32.4,44.599999999999994 33.199999999999996,44.599999999999994 L 38.8,44.599999999999994 C 39.599999999999994,44.599999999999994 40.199999999999996,43.99999999999999 40.199999999999996,43.199999999999996 C 40.199999999999996,42.4 39.6,41.8 38.8,41.8 M 77.2,41.8 L 44.3,41.8 C 43.5,41.8 42.9,42.4 42.9,43.199999999999996 C 42.9,43.99999999999999 43.5,44.599999999999994 44.3,44.599999999999994 L 77.19999999999999,44.599999999999994 C 77.99999999999999,44.599999999999994 78.6,43.99999999999999 78.6,43.199999999999996 C 78.6,42.4 78.0,41.8 77.2,41.8"/>
</svg>
