<?xml version="1.0" ?>
<svg xmlns="http://www.w3.org/2000/svg" xmlns:ev="http://www.w3.org/2001/xml-events" xmlns:xlink="http://www.w3.org/1999/xlink" baseProfile="full" enable-background="new 0 0 48 48" height="407px" version="1.1" viewBox="0 0 48 48" width="600px" x="0px" xml:space="preserve" y="0px">
	<defs/>
	<path d="M 103.0,75.0 C 103.0,76.104 102.104,77.0 101.0,77.0 L 61.0,77.0 C 59.896,77.0 59.0,76.104 59.0,75.0 L 59.0,54.0 C 59.0,52.896 59.896,52.0 61.0,52.0 L 101.0,52.0 C 102.104,52.0 103.0,52.896 103.0,54.0 L 103.0,75.0" display="inline" fill="#000000" stroke="#FFFFFF"/>
	<path d="M 101.0,70.2 C 101.0,72.0 101.0,72.0 99.0,72.0 L 63.0,72.0 C 61.0,72.0 61.0,72.0 61.0,70.2 L 61.0,55.8 C 61.0,54.0 61.0,54.0 63.0,54.0 L 99.0,54.0 C 101.0,54.0 101.0,54.0 101.0,55.8 L 101.0,70.2" display="inline" stroke="#000000"/>
	<path d="M 40.213,33.64 L 40.213,32.239 L 40.213,13.349 C 40.213,12.755 39.734,12.274000000000001 39.143,12.274000000000001 L 8.906,12.274000000000001 C 8.315000000000001,12.274000000000001 7.836,12.755 7.836,13.349 L 7.836,32.238 C 7.836,32.239 7.836,32.239 7.836,32.239 L 7.836,33.638999999999996 L 3.11,33.638999999999996 L 3.11,35.044999999999995 L 3.11,35.044999999999995 C 3.11,35.419999999999995 3.415,35.724999999999994 3.79,35.724999999999994 L 44.274,35.724999999999994 C 44.649,35.724999999999994 44.953,35.419999999999995 44.953,35.044999999999995 L 44.953,33.64 L 40.213,33.64 M 38.918,32.365 L 9.067,32.365 L 9.067,13.601 L 38.918,13.601 L 38.918,32.365" fill="#000000"/>
	<path d="M 71.0,79.0 L 91.0,79.0 L 91.0,80.0 L 71.0,80.0 L 71.0,79.0" display="inline" height="1" stroke="#000000" width="20" x="71" y="79"/>
	<path d="M 80.0,77.0 L 82.0,77.0 L 82.0,78.0 L 80.0,78.0 L 80.0,77.0" display="inline" height="1" stroke="#000000" width="2" x="80" y="77"/>
</svg>
