<?xml version="1.0" ?>
<svg xmlns="http://www.w3.org/2000/svg" xmlns:ev="http://www.w3.org/2001/xml-events" xmlns:xlink="http://www.w3.org/1999/xlink" baseProfile="full" enable-background="new 0 0 100 91.558" height="550px" version="1.1" viewBox="0 0 100 91.558" width="600px" x="0px" xml:space="preserve" y="0px">
	<defs/>
	<path d="M 98.969,83.004 L 84.561,68.167 C 85.76400000000001,66.944 86.944,65.586 88.09700000000001,64.083 C 98.197,50.911 99.50300000000001,25.016999999999996 74.409,8.396 C 56.842,-3.238 42.932,0.61 42.932,0.61 C 58.199,3.508 100.057,26.768 80.155,56.807 C 79.218,58.22 78.21300000000001,59.457 77.151,60.536 L 45.581,28.024 L 57.06700000000001,16.953000000000003 L 37.19900000000001,13.103000000000003 L 17.473,32.259 L 28.938,44.066 L 37.884,35.443000000000005 L 67.601,66.045 C 52.515,69.884 33.747,57.209 29.549,51.892 L 22.724,57.382000000000005 C 22.73,57.392 22.727,57.38700000000001 22.724,57.382000000000005 L 21.955,58.0 C 20.767999999999997,57.1 18.996,57.14 17.683999999999997,58.195 L 2.502,70.406 C 2.405,70.48400000000001 2.3129999999999997,70.566 2.226,70.65100000000001 C 2.13,70.718 2.033,70.784 1.94,70.858 C -0.29700000000000015,72.65700000000001 -0.6520000000000001,75.928 1.1469999999999998,78.165 C 2.9459999999999997,80.40100000000001 6.2170000000000005,80.757 8.454,78.95800000000001 C 8.547,78.88400000000001 8.631,78.80300000000001 8.717,78.72300000000001 C 8.819,78.65700000000001 8.919,78.58400000000002 9.016,78.50600000000001 L 24.198,66.29400000000001 C 25.509,65.239 25.928,63.518000000000015 25.304000000000002,62.16500000000001 L 26.433000000000003,61.25700000000001 C 35.091,69.12100000000001 56.815000000000005,84.30400000000002 75.911,74.60600000000001 L 91.3,90.451 C 92.704,91.89699999999999 95.015,91.92999999999999 96.461,90.52699999999999 L 98.893,88.16599999999998 C 100.339,86.76 100.373,84.45 98.969,83.004"/>
</svg>
