<?xml version="1.0" ?>
<svg xmlns="http://www.w3.org/2000/svg" xmlns:ev="http://www.w3.org/2001/xml-events" xmlns:xlink="http://www.w3.org/1999/xlink" baseProfile="full" enable-background="new 0 0 50 50" height="600px" version="1.1" viewBox="0 0 50 50" width="532px" x="0px" xml:space="preserve" y="0px">
	<defs/>
	<path clip-rule="evenodd" d="M 24.985,5.482 C 26.102999999999998,5.482 27.159,5.5440000000000005 28.215,5.699 C 28.246,5.513 28.276,5.295 28.276,5.0489999999999995 C 28.276,3.2799999999999994 26.819,1.8479999999999994 24.985,1.8479999999999994 C 23.186,1.8479999999999994 21.724,3.2799999999999994 21.724,5.0489999999999995 C 21.724,5.295 21.724,5.513 21.788,5.699 C 22.842,5.544 23.898,5.482 24.985,5.482 L 24.985,5.482 M 24.985,22.284 C 25.08,22.284 25.171,22.284 25.235,22.284 L 33.217,18.432 L 30.14,26.631 C 30.173000000000002,26.878 30.203,27.128 30.203,27.376 C 30.203,30.203000000000003 27.875,32.499 24.985,32.499 C 24.771,32.499 24.549,32.47 24.333,32.437000000000005 L 16.758,36.319 L 19.832,27.935000000000002 C 19.799,27.747000000000003 19.799,27.561000000000003 19.799,27.375000000000004 C 19.799,24.583 22.129,22.284 24.985,22.284 L 24.985,22.284 M 29.305,5.917 C 39.117,7.936 46.504999999999995,16.786 46.504999999999995,27.375 C 46.504999999999995,39.485 36.879999999999995,49.298 24.984999999999996,49.298 C 13.124999999999996,49.298 3.4949999999999974,39.485 3.4949999999999974,27.375000000000004 C 3.4949999999999974,16.786 10.886999999999997,7.935000000000002 20.700999999999997,5.917000000000005 C 20.639999999999997,5.638000000000005 20.607999999999997,5.357000000000005 20.607999999999997,5.048000000000005 C 20.607999999999997,2.6540000000000052 22.564999999999998,0.701000000000005 24.984999999999996,0.701000000000005 C 27.437999999999995,0.701000000000005 29.396999999999995,2.6540000000000052 29.396999999999995,5.048000000000005 C 29.397,5.358 29.365,5.639 29.305,5.917 L 29.305,5.917 M 24.396,44.675 L 24.396,40.821 C 24.396,40.510999999999996 24.644000000000002,40.260999999999996 24.956,40.260999999999996 L 25.048,40.260999999999996 C 25.36,40.260999999999996 25.607,40.510999999999996 25.607,40.821 L 25.607,44.675 C 34.489,44.363 41.632999999999996,37.062999999999995 41.942,27.996999999999996 L 37.997,27.996999999999996 C 37.685,27.996999999999996 37.438,27.746999999999996 37.438,27.436999999999998 L 37.438,27.343999999999998 C 37.438,27.031999999999996 37.685,26.781999999999996 37.997,26.781999999999996 L 41.942,26.781999999999996 C 41.632,17.718999999999994 34.489,10.417999999999996 25.607,10.107999999999997 L 25.607,13.959999999999997 C 25.607,14.267999999999997 25.36,14.517999999999997 25.048,14.517999999999997 L 24.956,14.517999999999997 C 24.644,14.517999999999997 24.396,14.267999999999997 24.396,13.959999999999997 L 24.396,10.107999999999997 C 15.515,10.417999999999997 8.341000000000001,17.717999999999996 8.061,26.781999999999996 L 11.136,26.781999999999996 C 11.447999999999999,26.781999999999996 11.696,27.031999999999996 11.696,27.343999999999998 L 11.696,27.436999999999998 C 11.696,27.746999999999996 11.447,27.996999999999996 11.136,27.996999999999996 L 8.061,27.996999999999996 C 8.341,37.063 15.515,44.363 24.396,44.675 L 24.396,44.675 M 24.956,25.576 C 24.053,25.576 23.309,26.322 23.309,27.221 C 23.309,28.119 24.053,28.835 24.956,28.835 C 25.887,28.835 26.631999999999998,28.119 26.631999999999998,27.221 C 26.632,26.321 25.887,25.576 24.956,25.576 L 24.956,25.576 M 24.985,24.021 C 23.091,24.021 21.57,25.542 21.57,27.375 C 21.57,29.238 23.091,30.759999999999998 24.985,30.759999999999998 C 26.878999999999998,30.759999999999998 28.433,29.238999999999997 28.433,27.375 C 28.434,25.543 26.879,24.021 24.985,24.021" fill="#000000" fill-rule="evenodd"/>
</svg>
