<?xml version="1.0" ?>
<svg xmlns="http://www.w3.org/2000/svg" xmlns:ev="http://www.w3.org/2001/xml-events" xmlns:xlink="http://www.w3.org/1999/xlink" baseProfile="full" enable-background="new 0 0 10.397 13.097" height="600px" version="1.1" viewBox="0 0 10.397 13.097" width="477px" x="0px" xml:space="preserve" y="0px">
	<defs/>
	<path d="M 8.394,12.17 L 0.309,12.17 C 0.138,12.17 0.0,12.308 0.0,12.479 C 0.0,12.479 0.283,13.097 0.453,13.097 L 8.176,13.097 C 8.346,13.097 8.701,12.479 8.701,12.479 C 8.701,12.308 8.563,12.17 8.394,12.17"/>
	<path d="M 8.464,6.198 C 8.417,5.905 8.173,5.677 7.867,5.677 L 0.834,5.677 C 0.49399999999999994,5.677 0.21799999999999997,5.954 0.21799999999999997,6.294 L 1.124,11.172999999999998 C 1.124,11.513999999999998 1.399,11.788999999999998 1.7400000000000002,11.788999999999998 L 6.961,11.788999999999998 C 7.3020000000000005,11.788999999999998 7.577,11.513999999999998 7.577,11.172999999999998 L 7.727,10.363999999999999 C 7.9,10.408999999999999 8.078,10.440999999999999 8.265,10.440999999999999 C 9.441,10.440999999999999 10.397,9.485 10.397,8.309 C 10.397,7.202 9.546,6.3 8.464,6.198 M 8.266,9.441 C 8.141,9.441 8.025,9.407 7.912,9.370000000000001 L 8.317,7.188000000000001 C 8.916,7.2170000000000005 9.397,7.704000000000001 9.397,8.309000000000001 C 9.397,8.934 8.89,9.441 8.266,9.441"/>
	<path d="M 2.023,4.641 L 2.8970000000000002,5.127 C 2.9240000000000004,5.077 3.5650000000000004,3.8979999999999997 2.902,2.639 C 2.54,1.95 2.804,0.721 2.936,0.307 L 1.984,0.0 C 1.922,0.193 1.395,1.92 2.018,3.105 C 2.423,3.876 2.038,4.614 2.023,4.641"/>
	<path d="M 3.847,4.642 L 4.721,5.127000000000001 C 4.748,5.078 5.3870000000000005,3.8980000000000006 4.726,2.6390000000000007 C 4.361,1.949 4.627,0.722 4.76,0.307 L 3.808,0.0 C 3.745,0.193 3.216,1.921 3.841,3.105 C 4.246,3.876 3.861,4.614 3.847,4.642"/>
	<path d="M 5.806,4.641 L 6.679,5.127 C 6.707,5.077 7.347,3.8979999999999997 6.6850000000000005,2.639 C 6.322000000000001,1.9489999999999998 6.586,0.7209999999999999 6.718000000000001,0.3059999999999996 L 5.767,0.0 C 5.704,0.193 5.176,1.921 5.8,3.105 C 6.205,3.876 5.82,4.614 5.806,4.641"/>
</svg>
