<?xml version="1.0" ?>
<svg xmlns="http://www.w3.org/2000/svg" xmlns:ev="http://www.w3.org/2001/xml-events" xmlns:xlink="http://www.w3.org/1999/xlink" baseProfile="full" enable-background="new 0 0 100 100" height="600px" version="1.1" viewBox="0 0 100 100" width="600px" x="0px" xml:space="preserve" y="0px">
	<defs/>
	<path d="M 90.26,48.5 L 83.608,48.5 C 82.113,49.222 79.205,50.492 75.429,51.5 L 90.26,51.5 L 90.26,48.5"/>
	<path d="M 90.26,68.231 L 83.101,66.73899999999999 C 81.93299999999999,67.282 80.176,68.02099999999999 77.988,68.73799999999999 L 90.26,71.29599999999999 L 90.26,68.231"/>
	<path d="M 94.074,5.124 C 93.339,4.667999999999999 92.416,4.627 91.64099999999999,5.015 L 73.172,14.248999999999999 L 74.87599999999999,18.987 L 90.25899999999999,11.296 L 90.25899999999999,88.73599999999999 L 74.86099999999999,81.166 C 74.51799999999999,80.997 74.14099999999999,80.90899999999999 73.758,80.90899999999999 L 73.17699999999999,85.90899999999999 L 91.65599999999999,94.994 C 92.005,95.166 92.38199999999999,95.251 92.75899999999999,95.251 C 93.21899999999998,95.251 93.67699999999999,95.12400000000001 94.07999999999998,94.873 C 94.81299999999999,94.417 95.25899999999999,93.614 95.25899999999999,92.751 L 95.25899999999999,7.25 C 95.26,6.384 94.812,5.579 94.074,5.124"/>
	<path d="M 71.259,47.33 C 73.103,46.975 74.783,46.516 76.259,46.039 L 76.259,42.767 C 74.737,43.203 73.059,43.599000000000004 71.259,43.905 L 71.259,47.33"/>
	<path d="M 76.259,18.295 L 71.259,18.687 L 71.259,38.83 C 73.101,38.476 74.784,38.016999999999996 76.259,37.54 L 76.259,18.295"/>
	<path d="M 76.259,51.267 C 74.737,51.704 73.059,52.099000000000004 71.259,52.405 L 71.259,56.331 C 73.103,55.977000000000004 74.783,55.517 76.259,55.040000000000006 L 76.259,51.267"/>
	<path d="M 71.259,65.33 C 73.103,64.976 74.783,64.516 76.259,64.039 L 76.259,60.268 C 74.737,60.704 73.059,61.099000000000004 71.259,61.405 L 71.259,65.33"/>
	<path d="M 71.259,80.908 L 76.259,83.408 L 76.259,69.268 C 74.737,69.70400000000001 73.059,70.099 71.259,70.405 L 71.259,80.908"/>
	<path d="M 61.199,43.169 C 57.241,42.416999999999994 53.358999999999995,40.482 49.579,38.592 C 44.856,36.23 40.396,34.0 36.0,34.0 C 33.923,34.0 31.841,34.248 29.857,34.619 L 29.845,31.567999999999998 C 31.831,31.225 33.907,31.0 36.0,31.0 C 41.104,31.0 46.095,33.495 50.921,35.908 C 54.762,37.828 58.429,39.641 62.028999999999996,40.259 C 60.995,41.031 60.642,42.237 61.199,43.169 C 62.294,43.376999999999995 63.393,43.5 64.5,43.5 C 75.216,43.5 83.865,38.763 84.229,38.561 C 84.954,38.159 85.214,37.246 84.812,36.521 C 84.40899999999999,35.795 83.494,35.536 82.77199999999999,35.938 C 82.689,35.984 74.446,40.5 64.5,40.5 C 63.68,40.5 62.855,40.401 62.028999999999996,40.259 M 62.029,40.259 C 60.995000000000005,41.031 60.641000000000005,42.238 61.199000000000005,43.169"/>
	<path d="M 16.329,35.908 C 15.588000000000001,36.279 15.288,37.179 15.658000000000001,37.92 C 16.028000000000002,38.661 16.928,38.962 17.67,38.592 C 17.712000000000003,38.571 19.67,37.61 22.632,36.573 L 22.639,35.0 L 19.472,34.535 C 15.832,35.735 16.529,35.808 16.329,35.908"/>
	<path d="M 16.329,53.408 C 15.588000000000001,53.778 15.288,54.679 15.658000000000001,55.42 C 16.028000000000002,56.161 16.928,56.461 17.67,56.092 C 17.712000000000003,56.071 19.642000000000003,55.123 22.57,54.095 L 22.576,52.5 L 18.338,52.5 C 18.338,52.5 16.433,53.355 16.329,53.408"/>
	<path d="M 62.029,57.759 C 58.428000000000004,57.141 54.761,55.329 50.92100000000001,53.408 C 46.095,50.995 41.104,48.5 36.0,48.5 C 33.931,48.5 31.876,48.72 29.912,49.057 L 29.923,52.108000000000004 C 31.888,51.742 33.946,51.5 36.0,51.5 C 40.396,51.5 44.856,53.73 49.579,56.092 C 53.359,57.983 57.241,59.917 61.199,60.669 C 60.642,59.737 60.995,58.53 62.029,57.759"/>
	<path d="M 84.229,56.062 C 84.954,55.66 85.214,54.747 84.812,54.022 C 84.40899999999999,53.297 83.494,53.038 82.77199999999999,53.439 C 82.689,53.484 74.446,58.0 64.5,58.0 C 63.68,58.0 62.855,57.9 62.028999999999996,57.759 C 60.995,58.53 60.641,59.738 61.199,60.669 C 62.294,60.877 63.394,61.0 64.5,61.0 C 75.216,61.0 83.865,56.263 84.229,56.062"/>
	<path d="M 36.0,39.5 C 33.918,39.5 31.853,39.723 29.878,40.062 L 29.89,43.113 C 31.864,42.745 33.935,42.5 36.0,42.5 C 40.396,42.5 44.856,44.73 49.579,47.092 C 53.359,48.982 57.241,50.917 61.199,51.669 C 60.641,50.736999999999995 60.995,49.531 62.028999999999996,48.759 C 58.428,48.141 54.760999999999996,46.329 50.92099999999999,44.408 C 46.095,41.995 41.104,39.5 36.0,39.5"/>
	<path d="M 82.771,44.439 C 82.689,44.484 74.446,49.0 64.5,49.0 C 63.68,49.0 62.855,48.901 62.028999999999996,48.759 C 60.995,49.531 60.641,50.738 61.199,51.669 C 62.294,51.877 63.394,52.0 64.5,52.0 C 75.216,52.0 83.865,47.263 84.229,47.061 C 84.954,46.659 85.214,45.746 84.812,45.021 C 84.408,44.296 83.493,44.037 82.771,44.439"/>
	<path d="M 16.329,44.408 C 15.588000000000001,44.779 15.288,45.679 15.658000000000001,46.42 C 16.028000000000002,47.161 16.928,47.461 17.67,47.092 C 17.712000000000003,47.071 19.657000000000004,46.117 22.602000000000004,45.083999999999996 L 22.613000000000003,41.895999999999994 C 18.991,43.092 16.529,44.309 16.329,44.408"/>
	<path d="M 16.329,62.408 C 15.588000000000001,62.778 15.288,63.679 15.658000000000001,64.42 C 16.028000000000002,65.162 16.928,65.462 17.67,65.092 C 17.712000000000003,65.071 19.628,64.13 22.538000000000004,63.106 L 22.550000000000004,59.918 C 18.963,61.107 16.527,62.31 16.329,62.408"/>
	<path d="M 36.0,57.5 C 33.942,57.5 31.9,57.718 29.945999999999998,58.051 L 29.958,61.101 C 31.912,60.741 33.958,60.5 36.0,60.5 C 40.396,60.5 44.856,62.73 49.579,65.092 C 53.359,66.983 57.241,68.917 61.199,69.669 C 60.641,68.737 60.995,67.53 62.028999999999996,66.759 C 58.428,66.141 54.760999999999996,64.329 50.92099999999999,62.408 C 46.095,59.995 41.104,57.5 36.0,57.5"/>
	<path d="M 84.229,65.062 C 84.954,64.66 85.214,63.747 84.812,63.022 C 84.40899999999999,62.297 83.494,62.038 82.77199999999999,62.439 C 82.689,62.484 74.446,67.0 64.5,67.0 C 63.68,67.0 62.855,66.9 62.028999999999996,66.759 C 60.995,67.53 60.641,68.738 61.199,69.669 C 62.294,69.877 63.394,70.0 64.5,70.0 C 75.216,70.0 83.865,65.263 84.229,65.062"/>
	<path d="M 25.156,81.165 L 24.0,81.733 L 9.76,88.735 L 9.76,11.265 L 25.156,18.836 C 25.493,19.002 26.849999999999998,14.096999999999998 26.849999999999998,14.096999999999998 L 8.363,5.006 C 7.5889999999999995,4.626 6.670999999999999,4.671 5.939,5.128 C 5.206,5.584 4.76,6.387 4.76,7.25 L 4.76,92.75 C 4.76,93.613 5.2059999999999995,94.416 5.939,94.872 C 6.341,95.123 6.8,95.25 7.26,95.25 C 7.636,95.25 8.014,95.165 8.363,94.993 L 26.841,85.90799999999999 L 26.259,80.90799999999999 C 25.877,80.908 25.5,80.996 25.156,81.165"/>
	<path d="M 28.759,19.101 L 76.0,19.0 C 76.003,19.0 74.062,14.062000000000001 74.062,14.062000000000001 L 26.259,14.092 C 25.597,14.092 23.759,18.0 23.759,18.0 L 23.759,27.344 L 28.759,28.158 L 28.759,19.101"/>
	<path d="M 71.0,80.908 L 28.759,80.908 L 28.759,72.858 C 27.331,73.178 25.232,73.556 23.759,73.732 L 23.759,83.408 C 23.759,84.789 24.878,85.908 26.259,85.908 L 76.0,85.908 L 75.0,80.908 L 71.0,80.908"/>
	<path d="M 28.759,28.159 L 23.759,27.345 L 23.759,73.733 C 25.232,73.557 27.331,73.179 28.759,72.85900000000001 L 28.759,28.159"/>
	<path d="M 90.26,27.301 L 76.259,31.268 L 76.259,34.387 L 90.26,30.844 L 90.26,27.301" points="90.26,27.301 76.259,31.268 76.259,34.387 90.26,30.844 "/>
	<path d="M 9.76,68.927 L 9.76,72.045 L 23.835,68.057 L 23.846,64.935 L 9.76,68.927" points="9.76,68.927 9.76,72.045 23.835,68.057 23.846,64.935 "/>
	<path d="M 9.76,28.352 L 9.76,31.419 L 23.74,34.431 L 23.751,31.37 L 9.76,28.352" points="9.76,28.352 9.76,31.419 23.74,34.431 23.751,31.37 "/>
	<path d="M 9.76,48.5 L 23.759999999999998,48.5 L 23.759999999999998,51.5 L 9.76,51.5 L 9.76,48.5" height="3" width="14" x="9.76" y="48.5"/>
</svg>
