<?xml version="1.0" ?>
<svg xmlns="http://www.w3.org/2000/svg" xmlns:ev="http://www.w3.org/2001/xml-events" xmlns:xlink="http://www.w3.org/1999/xlink" baseProfile="full" enable-background="new 0 0 76.79 100" height="600px" version="1.1" viewBox="0 0 76.79 100" width="461px" x="0px" xml:space="preserve" y="0px">
	<defs/>
	<path d="M 13.668,74.165 C 12.286999999999999,71.11500000000001 11.517999999999999,67.73100000000001 11.517999999999999,64.17200000000001 C 11.517999999999999,51.82800000000001 20.767,41.60400000000001 32.698,40.06300000000001 L 32.698,28.481 C 14.403,30.072 0.0,45.47 0.0,64.171 C 0.0,69.82700000000001 1.319,75.18 3.663,79.941 L 13.668,74.165"/>
	<path d="M 54.69,79.489 C 50.23,84.971 43.431,88.48100000000001 35.828,88.48100000000001 C 28.22500000000001,88.48100000000001 21.427000000000003,84.97200000000001 16.966000000000005,79.489 L 6.909,85.295 C 13.433,94.204 23.966,100.0 35.829,100.0 C 47.692,100.0 58.225,94.203 64.748,85.295 L 54.69,79.489"/>
	<path d="M 76.79,62.833 L 68.127,57.805 L 63.511,65.759 L 48.829,57.146 L 48.829,41.009 L 60.222,41.009 L 60.222,30.993 L 48.829,30.993 L 48.829,26.71 L 38.813,26.71 L 38.813,62.882 L 67.079,79.465 L 76.79,62.833" points="76.79,62.833 68.127,57.805 63.511,65.759 48.829,57.146 48.829,41.009 60.222,41.009 60.222,30.993 48.829,30.993    48.829,26.71 38.813,26.71 38.813,62.882 67.079,79.465 "/>
	<path cx="43.884" cy="11.185" d="M 32.699,11.185 A 11.185000000000002,11.185000000000002 0.0 1,0 55.069,11.185 A 11.185000000000002,11.185000000000002 0.0 1,0 32.699,11.185" r="11.185"/>
</svg>
