<?xml version="1.0" ?>
<svg xmlns="http://www.w3.org/2000/svg" xmlns:ev="http://www.w3.org/2001/xml-events" xmlns:xlink="http://www.w3.org/1999/xlink" baseProfile="full" enable-background="new 0 0 100 100" height="600px" version="1.1" viewBox="0 0 100 100" width="600px" x="0px" xml:space="preserve" y="0px">
	<defs/>
	<path d="M 50.0,0.0 C 22.383,0.0 0.0,22.385 0.0,50.0 C 0.0,77.618 22.383,100.0 50.0,100.0 C 77.617,100.0 100.00200000000001,77.617 100.00200000000001,50.0 C 100.002,22.385 77.617,0.0 50.0,0.0 M 51.785,91.027 L 51.785,83.928 L 45.833,83.928 L 45.833,91.027 C 27.976,89.583 10.417000000000002,72.024 8.972000000000001,54.167 L 16.071,54.167 L 16.071,48.214 L 8.972,48.214 C 10.417,27.976 27.976,10.415 45.833,8.97 L 45.833,19.643 L 51.785,19.643 L 51.785,8.97 C 72.023,10.415000000000001 89.584,27.976 91.02699999999999,48.214999999999996 L 80.35699999999999,48.214999999999996 L 80.35699999999999,54.168 L 91.02699999999999,54.168 C 89.584,72.024 72.023,89.583 51.785,91.027"/>
	<path d="M 50.073,44.641 C 49.966,44.635 49.864,44.609 49.756,44.609 C 49.103,44.609 48.486,44.742000000000004 47.902,44.946000000000005 L 30.268,32.479 L 44.183,50.885999999999996 C 44.504,53.69499999999999 46.862,55.885 49.756,55.885 C 52.869,55.885 55.395,53.36 55.395,50.245 C 55.395,49.845 55.35,49.455999999999996 55.272000000000006,49.079 L 76.84,22.793 L 50.073,44.641"/>
</svg>
