<?xml version="1.0" ?>
<svg xmlns="http://www.w3.org/2000/svg" xmlns:ev="http://www.w3.org/2001/xml-events" xmlns:xlink="http://www.w3.org/1999/xlink" baseProfile="full" enable-background="new 0 0 100 139" height="600px" version="1.1" viewBox="0 0 100 139" width="429px" x="0px" xml:space="preserve" y="0px">
	<defs/>
	<path d="M 54.812,27.142 C 54.835,27.032 54.845,26.918 54.863,26.807 L 96.35,26.807 C 96.35,13.990999999999998 85.957,3.603999999999999 73.145,3.603999999999999 C 62.413999999999994,3.603999999999999 53.40599999999999,10.898 50.753,20.791999999999998 C 50.389,20.712999999999997 50.014,20.666999999999998 49.627,20.666999999999998 C 46.688,20.666999999999998 44.307,23.044999999999998 44.307,25.987 C 44.307,26.881999999999998 44.549,27.712999999999997 44.940000000000005,28.453 L 9.177000000000007,64.353 C 8.731000000000007,64.231 8.270000000000007,64.145 7.786000000000007,64.145 C 4.848000000000006,64.145 2.468000000000007,66.527 2.468000000000007,69.464 C 2.468000000000007,72.407 4.848000000000007,74.78399999999999 7.786000000000007,74.78399999999999 C 7.957000000000007,74.78399999999999 8.118000000000007,74.75099999999999 8.285000000000007,74.73299999999999 L 30.453000000000007,119.297 C 29.630000000000006,120.233 29.115000000000006,121.445 29.115000000000006,122.791 C 29.115000000000006,125.521 31.174000000000007,127.73599999999999 33.818000000000005,128.047 C 33.078,130.274 32.67700000000001,132.641 32.67700000000001,135.09799999999998 L 82.44200000000001,135.09799999999998 C 82.44200000000001,122.10999999999999 71.301,111.582 57.55600000000001,111.582 C 50.04500000000001,111.582 43.32700000000001,114.74199999999999 38.765000000000015,119.71499999999999 C 37.801000000000016,118.36099999999999 36.225000000000016,117.47099999999999 34.436000000000014,117.47099999999999 C 33.74500000000001,117.47099999999999 33.088000000000015,117.61399999999999 32.48200000000001,117.85199999999999 L 10.638000000000012,73.942 C 12.117000000000012,72.999 13.104000000000013,71.35199999999999 13.104000000000013,69.463 C 13.104000000000013,67.93299999999999 12.449000000000014,66.56299999999999 11.414000000000014,65.592 L 46.555000000000014,30.315999999999995 C 47.423000000000016,30.932999999999996 48.47900000000001,31.303999999999995 49.625000000000014,31.303999999999995 C 51.561000000000014,31.303999999999995 53.240000000000016,30.257999999999996 54.170000000000016,28.709999999999994 L 56.73200000000001,30.633999999999993 L 96.25600000000001,30.633999999999993 L 96.25600000000001,28.993999999999993 L 57.283,28.993999999999993 L 54.812,27.142"/>
</svg>
