<?xml version="1.0" ?>
<svg xmlns="http://www.w3.org/2000/svg" xmlns:ev="http://www.w3.org/2001/xml-events" xmlns:xlink="http://www.w3.org/1999/xlink" baseProfile="full" enable-background="new 0 0 370 140" height="186px" version="1.1" viewBox="0 0 370 140" width="600px" x="0px" xml:space="preserve" y="0px">
	<defs/>
	<path d="M 170.974,51.611 C 170.974,51.611 203.334,2.6669999999999945 253.334,40.166999999999994 C 303.334,77.667 292.334,80.667 327.334,45.166999999999994 C 327.334,45.166999999999994 332.834,78.667 297.834,102.667 C 262.834,126.667 235.334,121.667 220.834,115.667 C 206.334,109.667 179.114,92.667 170.974,82.667 C 170.974,82.667 138.834,125.58500000000001 95.33399999999999,120.626 C 51.833999999999975,115.667 32.83399999999999,92.667 27.83399999999999,85.167 C 22.83399999999999,77.667 16.83399999999999,64.667 15.333999999999989,44.167 C 15.333999999999989,44.167 43.33399999999999,93.057 73.83399999999999,51.611000000000004 C 73.83399999999999,51.611000000000004 119.39699999999999,12.112000000000002 147.334,29.167000000000005 C 147.334,29.167 163.614,38.056 170.974,51.611" fill="#000000" stroke="#FFFFFF" stroke-miterlimit="10"/>
</svg>
