<?xml version="1.0" ?>
<svg xmlns="http://www.w3.org/2000/svg" xmlns:ev="http://www.w3.org/2001/xml-events" xmlns:xlink="http://www.w3.org/1999/xlink" baseProfile="full" enable-background="new 0 0 100 100" height="549px" version="1.1" viewBox="0 0 100 100" width="600px" x="0px" xml:space="preserve" y="0px">
	<defs/>
	<path d="M 93.615,48.616 L 84.184,48.616 L 91.374,41.426 C 91.91499999999999,40.885000000000005 91.91499999999999,40.009 91.374,39.468 C 90.83399999999999,38.92700000000001 89.95599999999999,38.92700000000001 89.416,39.468 L 80.268,48.616 L 73.731,48.616 L 80.91999999999999,41.426 C 81.46099999999998,40.885000000000005 81.46099999999998,40.009 80.91999999999999,39.468 C 80.37999999999998,38.92700000000001 79.50299999999999,38.92700000000001 78.96199999999999,39.468 L 69.81499999999998,48.616 L 52.398,48.616 L 61.106,33.533 L 73.60300000000001,30.185000000000002 C 74.34100000000001,29.987000000000002 74.78000000000002,29.227000000000004 74.58200000000001,28.489 C 74.385,27.751 73.626,27.314 72.88700000000001,27.51 L 63.06500000000001,30.142000000000003 L 66.33400000000002,24.480000000000004 L 78.83100000000002,21.132000000000005 C 79.57000000000002,20.934000000000005 80.00800000000002,20.174000000000007 79.81000000000002,19.436000000000003 C 79.61300000000001,18.698000000000004 78.85500000000002,18.261000000000003 78.11400000000002,18.457000000000004 L 68.29300000000002,21.089000000000006 L 73.00800000000002,12.922000000000006 C 73.39100000000002,12.259000000000006 73.16300000000003,11.413000000000006 72.50100000000002,11.030000000000006 C 71.83800000000002,10.646000000000006 70.99200000000002,10.875000000000007 70.60900000000002,11.537000000000006 L 65.89400000000002,19.704000000000008 L 63.26200000000002,9.882000000000009 C 63.06500000000002,9.144000000000009 62.30700000000002,8.707000000000008 61.566000000000024,8.90300000000001 C 60.828000000000024,9.10100000000001 60.389000000000024,9.86000000000001 60.587000000000025,10.599000000000009 L 63.935000000000024,23.09600000000001 L 60.666000000000025,28.757000000000012 L 58.035000000000025,18.935000000000013 C 57.837000000000025,18.197000000000013 57.07900000000002,17.760000000000012 56.33900000000003,17.956000000000014 C 55.60100000000003,18.154000000000014 55.16200000000003,18.913000000000014 55.36000000000003,19.652000000000015 L 58.70800000000003,32.149000000000015 L 50.0,47.231 L 41.292,32.148 L 44.64,19.651000000000003 C 44.838,18.912000000000003 44.399,18.153000000000002 43.661,17.955000000000002 C 42.922000000000004,17.759 42.163000000000004,18.195 41.965,18.934 L 39.333000000000006,28.756 L 36.06400000000001,23.095 L 39.41300000000001,10.597999999999999 C 39.610000000000014,9.858999999999998 39.17200000000001,9.1 38.43400000000001,8.902 C 37.695000000000014,8.706 36.936000000000014,9.142 36.738000000000014,9.880999999999998 L 34.106000000000016,19.702999999999996 L 29.391000000000016,11.535999999999996 C 29.008000000000017,10.872999999999996 28.162000000000017,10.644999999999996 27.499000000000017,11.028999999999996 C 26.837000000000018,11.410999999999996 26.610000000000017,12.257999999999996 26.992000000000015,12.920999999999996 L 31.707000000000015,21.087999999999994 L 21.885000000000016,18.455999999999992 C 21.146000000000015,18.25999999999999 20.387000000000015,18.69599999999999 20.189000000000014,19.43499999999999 C 19.991000000000014,20.173999999999992 20.430000000000014,20.932999999999993 21.168000000000013,21.130999999999993 L 33.66500000000001,24.478999999999992 L 36.93400000000001,30.14099999999999 L 27.112000000000013,27.50899999999999 C 26.374000000000013,27.31199999999999 25.61400000000001,27.748999999999988 25.41600000000001,28.48799999999999 C 25.21800000000001,29.22699999999999 25.65700000000001,29.98599999999999 26.39500000000001,30.18399999999999 L 38.89200000000001,33.53199999999999 L 47.60000000000001,48.61499999999999 L 30.185,48.61499999999999 L 21.037,39.466999999999985 C 20.496,38.92599999999999 19.619999999999997,38.92599999999999 19.079,39.466999999999985 C 18.538,40.00799999999998 18.538,40.883999999999986 19.079,41.42499999999998 L 26.269000000000002,48.61499999999998 L 19.731,48.61499999999998 L 10.583000000000002,39.466999999999985 C 10.042000000000002,38.92599999999999 9.165000000000003,38.92599999999999 8.625000000000002,39.466999999999985 C 8.084000000000001,40.00799999999998 8.084000000000001,40.883999999999986 8.625000000000002,41.42499999999998 L 15.815000000000001,48.61499999999998 L 6.385000000000002,48.61499999999998 C 5.62,48.616 5.0,49.235 5.0,50.0 C 5.0,50.765 5.62,51.385 6.385,51.385 L 15.815,51.385 L 8.625,58.574999999999996 C 8.084,59.11599999999999 8.084,59.992 8.625,60.532999999999994 C 8.895,60.803999999999995 9.25,60.937999999999995 9.604,60.937999999999995 C 9.957999999999998,60.937999999999995 10.312,60.803 10.582999999999998,60.532999999999994 L 19.730999999999998,51.38499999999999 L 26.269,51.38499999999999 L 19.078999999999997,58.57499999999999 C 18.537999999999997,59.115999999999985 18.537999999999997,59.99199999999999 19.078999999999997,60.53299999999999 C 19.349999999999998,60.80399999999999 19.703999999999997,60.93799999999999 20.057999999999996,60.93799999999999 C 20.411999999999995,60.93799999999999 20.766999999999996,60.80299999999999 21.036999999999995,60.53299999999999 L 30.184999999999995,51.38499999999999 L 47.602,51.38499999999999 L 38.894,66.46799999999999 L 26.397,69.817 C 25.659,70.01499999999999 25.22,70.77399999999999 25.418,71.51299999999999 C 25.584,72.13099999999999 26.143,72.53899999999999 26.753999999999998,72.53899999999999 C 26.872999999999998,72.53899999999999 26.993,72.52299999999998 27.113,72.49099999999999 L 36.935,69.85899999999998 L 33.666000000000004,75.52099999999999 L 21.17,78.869 C 20.431,79.067 19.993000000000002,79.827 20.191000000000003,80.565 C 20.357000000000003,81.184 20.917,81.591 21.528000000000002,81.591 C 21.646,81.591 21.767000000000003,81.576 21.887,81.544 L 31.709,78.91199999999999 L 26.994,87.079 C 26.612,87.741 26.839,88.588 27.501,88.97099999999999 C 27.719,89.09599999999999 27.957,89.157 28.192,89.157 C 28.671,89.157 29.136,88.90899999999999 29.393,88.464 L 34.108000000000004,80.298 L 36.74,90.119 C 36.906,90.738 37.465,91.145 38.077000000000005,91.145 C 38.19500000000001,91.145 38.316,91.13 38.43600000000001,91.098 C 39.175000000000004,90.9 39.61300000000001,90.14 39.415000000000006,89.402 L 36.066,76.906 L 39.335,71.244 L 41.967,81.066 C 42.132999999999996,81.685 42.692,82.092 43.303,82.092 C 43.422,82.092 43.541999999999994,82.076 43.662,82.044 C 44.4,81.847 44.839,81.087 44.641,80.349 L 41.293,67.852 L 50.0,52.77 L 58.708,67.85300000000001 L 55.36,80.35 C 55.162,81.088 55.6,81.848 56.339,82.04499999999999 C 56.458999999999996,82.07699999999998 56.579,82.09299999999999 56.698,82.09299999999999 C 57.309,82.09299999999999 57.869,81.68599999999999 58.035000000000004,81.067 L 60.666000000000004,71.24499999999999 L 63.935,76.907 L 60.587,89.40299999999999 C 60.389,90.14099999999999 60.827000000000005,90.901 61.566,91.09899999999999 C 61.686,91.13099999999999 61.806000000000004,91.14599999999999 61.925000000000004,91.14599999999999 C 62.536,91.14599999999999 63.096000000000004,90.73899999999999 63.26200000000001,90.11999999999999 L 65.894,80.29899999999999 L 70.60900000000001,88.46499999999999 C 70.86600000000001,88.90999999999998 71.33200000000001,89.15799999999999 71.80900000000001,89.15799999999999 C 72.04400000000001,89.15799999999999 72.28300000000002,89.09699999999998 72.50000000000001,88.97199999999998 C 73.16200000000002,88.58899999999998 73.39000000000001,87.74299999999998 73.00700000000002,87.07999999999998 L 68.29200000000002,78.91299999999998 L 78.11300000000001,81.54499999999999 C 78.23300000000002,81.57699999999998 78.35400000000001,81.59199999999998 78.47200000000001,81.59199999999998 C 79.084,81.59199999999998 79.64300000000001,81.18499999999999 79.80900000000001,80.56599999999999 C 80.00600000000001,79.82799999999999 79.56900000000002,79.06799999999998 78.83000000000001,78.86999999999999 L 66.33300000000001,75.52199999999999 L 63.064000000000014,69.85999999999999 L 72.88600000000001,72.49199999999999 C 73.00600000000001,72.52399999999999 73.126,72.53999999999999 73.245,72.53999999999999 C 73.85600000000001,72.53999999999999 74.41600000000001,72.13199999999999 74.581,71.514 C 74.779,70.77499999999999 74.34100000000001,70.01599999999999 73.602,69.818 L 61.105000000000004,66.469 L 52.397000000000006,51.385999999999996 L 69.81400000000001,51.385999999999996 L 78.96100000000001,60.53399999999999 C 79.23200000000001,60.80499999999999 79.58600000000001,60.93899999999999 79.94000000000001,60.93899999999999 C 80.29400000000001,60.93899999999999 80.64800000000001,60.803999999999995 80.91900000000001,60.53399999999999 C 81.46000000000001,59.992999999999995 81.46000000000001,59.11699999999999 80.91900000000001,58.57599999999999 L 73.73000000000002,51.385999999999996 L 80.26700000000002,51.385999999999996 L 89.41500000000002,60.53399999999999 C 89.68600000000002,60.80499999999999 90.04000000000002,60.93899999999999 90.39400000000002,60.93899999999999 C 90.74800000000002,60.93899999999999 91.10200000000002,60.803999999999995 91.37300000000002,60.53399999999999 C 91.91400000000002,59.992999999999995 91.91400000000002,59.11699999999999 91.37300000000002,58.57599999999999 L 84.18300000000002,51.385999999999996 L 93.61400000000002,51.385999999999996 C 94.38,51.385 95.0,50.765 95.0,50.0 C 95.0,49.235 94.38,48.616 93.615,48.616" fill="#000000"/>
</svg>
