<?xml version="1.0" ?>
<svg xmlns="http://www.w3.org/2000/svg" xmlns:ev="http://www.w3.org/2001/xml-events" xmlns:xlink="http://www.w3.org/1999/xlink" baseProfile="full" enable-background="new 0 0 100 100" height="180px" version="1.1" viewBox="0 0 100 100" width="600px" x="0px" xml:space="preserve" y="0px">
	<defs/>
	<path d="M 94.658,53.428 C 94.46000000000001,52.903 94.19200000000001,52.526999999999994 93.96000000000001,52.202999999999996 C 93.47300000000001,51.580999999999996 93.01700000000001,51.25899999999999 92.71900000000001,51.023999999999994 C 92.418,50.830999999999996 92.25900000000001,50.727 92.25900000000001,50.727 C 92.21300000000001,50.696999999999996 92.15500000000002,50.706999999999994 92.11600000000001,50.757 C 92.07000000000001,50.818999999999996 92.07200000000002,50.916999999999994 92.12000000000002,50.977 C 92.12000000000002,50.977 92.24900000000002,51.135999999999996 92.49200000000002,51.434999999999995 C 92.70300000000002,51.745 93.03300000000002,52.190999999999995 93.30200000000002,52.842999999999996 C 93.56200000000003,53.48 93.73900000000002,54.351 93.51500000000001,55.050999999999995 C 93.28900000000002,55.739999999999995 92.73100000000001,56.294999999999995 91.87600000000002,56.660999999999994 C 91.63400000000001,56.770999999999994 91.34700000000002,56.956999999999994 91.14300000000001,56.986 C 90.91400000000002,57.046 90.71900000000001,57.120999999999995 90.47100000000002,57.174 C 90.22200000000002,57.224 89.96800000000002,57.275 89.71000000000002,57.326 C 89.44600000000003,57.35 89.17900000000002,57.375 88.90700000000002,57.401 C 87.81600000000003,57.461000000000006 86.64600000000003,57.355000000000004 85.43800000000003,57.122 C 84.23100000000004,56.895 82.97900000000003,56.509 81.72400000000003,56.044 C 80.47000000000003,55.577999999999996 79.20600000000003,55.019999999999996 77.96200000000003,54.381 C 72.97900000000003,51.858 68.29800000000003,48.269 65.25500000000002,45.328 C 64.50000000000003,44.588 63.82700000000003,43.904 63.294000000000025,43.284000000000006 C 62.74600000000002,42.669000000000004 62.33000000000003,42.13000000000001 62.01800000000002,41.70100000000001 C 61.72200000000002,41.275000000000006 61.502000000000024,40.94700000000001 61.41200000000002,40.75300000000001 C 61.30500000000002,40.556000000000004 61.24700000000002,40.45100000000001 61.24700000000002,40.45100000000001 C 60.77100000000002,39.58500000000001 60.154000000000025,38.78000000000001 59.43400000000002,38.14600000000001 C 56.40100000000002,35.48000000000001 52.33200000000002,36.23700000000001 49.996000000000016,39.745000000000005 C 49.615000000000016,39.17700000000001 49.182000000000016,38.652 48.682000000000016,38.203 C 45.457000000000015,35.303000000000004 41.012000000000015,36.308 38.75400000000002,40.451 C 38.75400000000002,40.451 38.69600000000002,40.555 38.58900000000002,40.753 C 38.49900000000002,40.947 38.27700000000002,41.275 37.98300000000002,41.701 C 37.67100000000002,42.13 37.25400000000002,42.669 36.70600000000002,43.284 C 36.17200000000002,43.903999999999996 35.49900000000002,44.588 34.746000000000016,45.327999999999996 C 31.702000000000016,48.267999999999994 27.022000000000016,51.857 22.038000000000018,54.381 C 20.793000000000017,55.02 19.531000000000017,55.578 18.276000000000018,56.044 C 17.02100000000002,56.509 15.770000000000017,56.895999999999994 14.563000000000017,57.122 C 13.355000000000016,57.355 12.184000000000017,57.461 11.093000000000016,57.401 C 10.822000000000015,57.375 10.554000000000016,57.35 10.290000000000015,57.326 C 10.032000000000014,57.274 9.778000000000015,57.223 9.529000000000016,57.174 C 9.282000000000016,57.121 9.086000000000016,57.046 8.858000000000017,56.986 C 8.653000000000016,56.956999999999994 8.366000000000017,56.770999999999994 8.124000000000017,56.660999999999994 C 7.2700000000000164,56.294999999999995 6.711000000000016,55.739999999999995 6.486000000000017,55.050999999999995 C 6.262000000000016,54.35099999999999 6.439000000000017,53.48 6.699000000000017,52.842999999999996 C 6.9670000000000165,52.190999999999995 7.297000000000017,51.744 7.5070000000000165,51.434999999999995 C 7.750000000000017,51.135999999999996 7.880000000000017,50.977 7.880000000000017,50.977 C 7.917000000000017,50.931 7.928000000000017,50.858 7.904000000000017,50.794999999999995 C 7.875000000000017,50.717999999999996 7.8020000000000165,50.687999999999995 7.742000000000017,50.727 C 7.742000000000017,50.727 7.582000000000017,50.830999999999996 7.281000000000017,51.023999999999994 C 6.984000000000017,51.257999999999996 6.527000000000017,51.580999999999996 6.041000000000016,52.202999999999996 C 5.808000000000017,52.525999999999996 5.541000000000016,52.901999999999994 5.3420000000000165,53.428 C 5.1400000000000166,53.940999999999995 4.973000000000017,54.599 5.004000000000016,55.355999999999995 C 5.048000000000016,56.90299999999999 5.930000000000017,58.38399999999999 6.9350000000000165,59.303 C 7.160000000000016,59.519 7.322000000000017,59.736999999999995 7.635000000000017,59.964 C 7.917000000000017,60.182 8.224000000000016,60.439 8.518000000000017,60.632 C 8.811000000000016,60.818 9.111000000000017,61.006 9.414000000000017,61.196999999999996 C 9.725000000000017,61.355999999999995 10.040000000000017,61.516999999999996 10.361000000000017,61.67999999999999 C 11.654000000000016,62.279999999999994 13.055000000000017,62.70099999999999 14.506000000000016,62.98599999999999 C 15.959000000000016,63.27799999999999 17.456000000000017,63.40299999999999 18.974000000000018,63.44199999999999 C 20.49200000000002,63.47899999999999 22.029000000000018,63.41599999999999 23.55300000000002,63.25999999999999 C 29.66700000000002,62.65699999999999 35.618000000000016,60.83099999999999 40.137000000000015,58.77899999999999 C 41.26900000000001,58.25199999999999 42.31000000000002,57.73899999999999 43.250000000000014,57.19399999999999 C 44.18700000000001,56.66899999999999 45.021000000000015,56.127999999999986 45.72300000000001,55.636999999999986 C 46.43100000000001,55.124999999999986 46.99200000000001,54.698999999999984 47.40100000000001,54.33099999999999 C 47.802000000000014,53.97699999999999 48.01700000000001,53.78899999999999 48.01700000000001,53.78899999999999 L 48.64400000000001,53.24199999999999 C 49.14100000000001,52.80199999999999 49.59900000000001,52.27199999999999 50.006000000000014,51.65999999999999 C 50.402000000000015,52.25399999999999 50.85800000000001,52.79699999999999 51.384000000000015,53.25999999999999 L 51.988000000000014,53.788999999999994 C 51.988000000000014,53.788999999999994 52.20300000000002,53.977 52.60400000000001,54.330999999999996 C 53.01300000000001,54.699 53.57400000000001,55.12499999999999 54.28200000000001,55.63699999999999 C 54.98400000000001,56.126999999999995 55.81800000000001,56.66799999999999 56.75500000000001,57.193999999999996 C 57.69400000000001,57.739 58.73600000000001,58.251999999999995 59.86800000000001,58.778999999999996 C 64.38700000000001,60.831999999999994 70.33800000000001,62.657999999999994 76.45200000000001,63.26 C 77.97500000000001,63.415 79.513,63.479 81.031,63.442 C 82.549,63.403 84.046,63.278 85.49900000000001,62.986 C 86.94900000000001,62.701 88.35000000000001,62.279999999999994 89.64300000000001,61.68 C 89.96400000000001,61.517 90.28000000000002,61.356 90.59000000000002,61.197 C 90.89400000000002,61.006 91.19300000000001,60.817 91.48600000000002,60.632000000000005 C 91.78000000000002,60.43900000000001 92.08800000000002,60.182 92.36900000000001,59.964000000000006 C 92.68100000000001,59.736000000000004 92.84400000000001,59.519000000000005 93.06900000000002,59.303000000000004 C 94.07300000000002,58.38400000000001 94.95500000000001,56.903000000000006 95.00000000000001,55.356 C 95.026,54.599 94.86,53.94 94.658,53.428" fill="#000000"/>
</svg>
