<?xml version="1.0" ?>
<svg xmlns="http://www.w3.org/2000/svg" xmlns:ev="http://www.w3.org/2001/xml-events" xmlns:xlink="http://www.w3.org/1999/xlink" baseProfile="full" enable-background="new 0 0 100 100" height="413px" version="1.1" viewBox="0 0 100 100" width="600px" x="0px" xml:space="preserve" y="0px">
	<defs/>
	<path d="M 94.064,42.417 L 87.19,42.417 C 86.673,42.417 86.255,42.835 86.255,43.352000000000004 C 86.255,43.868 86.673,44.287000000000006 87.19,44.287000000000006 L 94.064,44.287000000000006 C 94.582,44.287000000000006 95.0,43.86900000000001 95.0,43.352000000000004 C 95.0,42.835 94.582,42.417 94.064,42.417" fill="#000000"/>
	<path d="M 84.304,34.661 C 84.304,34.776 84.325,34.893 84.37,35.007 C 84.561,35.486999999999995 85.104,35.72 85.584,35.53 L 91.973,32.987 C 92.452,32.797000000000004 92.687,32.253 92.495,31.773000000000003 C 92.304,31.294000000000004 91.76100000000001,31.059000000000005 91.281,31.250000000000004 L 84.89200000000001,33.793000000000006 C 84.526,33.938 84.304,34.29 84.304,34.661" fill="#000000"/>
	<path d="M 80.78,28.272 L 85.441,23.217 C 85.792,22.837 85.767,22.244999999999997 85.387,21.895999999999997 C 85.007,21.545999999999996 84.415,21.569999999999997 84.066,21.948999999999998 L 79.406,27.003 C 79.241,27.183 79.159,27.41 79.159,27.637 C 79.159,27.889 79.26,28.141000000000002 79.459,28.325 C 79.839,28.675 80.431,28.651 80.78,28.272" fill="#000000"/>
	<path d="M 91.973,53.718 L 85.584,51.17400000000001 C 85.105,50.98400000000001 84.562,51.218 84.37,51.69700000000001 C 84.325,51.81100000000001 84.304,51.92700000000001 84.304,52.04200000000001 C 84.304,52.41400000000001 84.527,52.766000000000005 84.893,52.912000000000006 L 91.282,55.455000000000005 C 91.761,55.645 92.304,55.410000000000004 92.496,54.93300000000001 C 92.687,54.452 92.452,53.907 91.973,53.718" fill="#000000"/>
	<path d="M 80.78,58.432 C 80.43,58.054 79.839,58.029 79.459,58.378 C 79.26,58.564 79.159,58.815 79.159,59.067 C 79.159,59.293 79.241,59.52 79.406,59.7 L 84.066,64.754 C 84.416,65.134 85.007,65.15700000000001 85.387,64.808 C 85.767,64.45700000000001 85.791,63.86600000000001 85.441,63.48800000000001 L 80.78,58.432" fill="#000000"/>
	<path d="M 70.442,19.586 C 69.353,19.586 68.38499999999999,20.261999999999997 67.464,21.883 C 66.835,22.991 60.628,32.870999999999995 52.367,34.317 C 44.107,35.763 34.81399999999999,36.117 29.003999999999998,36.117 L 12.033999999999999,36.117 C 8.149,36.117 5.0,38.642 5.0,41.756 L 5.0,43.92 L 5.0,46.084 C 5.0,49.198 8.149000000000001,51.723000000000006 12.035,51.723000000000006 L 24.157,51.723000000000006 L 21.151,77.678 C 20.825,80.49 21.196,81.512 22.776,81.512 L 31.78,81.512 L 32.465,81.512 C 33.48800000000001,81.512 34.757000000000005,81.512 35.30800000000001,81.512 C 35.99300000000001,81.512 36.37500000000001,80.937 36.449000000000005,80.298 L 36.94500000000001,76.017 C 37.019000000000005,75.377 36.77000000000001,74.801 36.086000000000006,74.801 C 36.062000000000005,74.801 36.044000000000004,74.801 36.025000000000006,74.801 C 35.904,74.801 35.855000000000004,74.801 35.852000000000004,74.801 C 35.821000000000005,74.801 35.787000000000006,74.801 35.746,74.801 C 34.739000000000004,74.801 33.356,73.827 33.650000000000006,71.287 L 35.89900000000001,51.87200000000001 C 40.967000000000006,52.086000000000006 46.89500000000001,52.56400000000001 52.370000000000005,53.52300000000001 C 60.631,54.96900000000001 66.83800000000001,64.84800000000001 67.467,65.95700000000001 C 68.388,67.578 69.356,68.25500000000001 70.445,68.25500000000001 C 71.532,68.25500000000001 72.99499999999999,67.51200000000001 72.99499999999999,65.95700000000001 L 72.99499999999999,43.92 L 72.99499999999999,21.883 C 72.992,20.33 71.529,19.586 70.442,19.586" fill="#000000"/>
</svg>
