<?xml version="1.0" ?>
<svg xmlns="http://www.w3.org/2000/svg" xmlns:ev="http://www.w3.org/2001/xml-events" xmlns:xlink="http://www.w3.org/1999/xlink" baseProfile="full" enable-background="new 0 0 100 100" height="600px" version="1.1" viewBox="0 0 100 100" width="600px" x="0px" xml:space="preserve" y="0px">
	<defs/>
	<path d="M 93.0,83.35 L 72.904,63.254 C 77.023,57.265 79.439,50.022 79.439,42.221 C 79.439,21.697 62.742,5.0 42.22,5.0 C 21.697,5.0 5.0,21.697 5.0,42.221 C 5.0,62.742999999999995 21.697,79.441 42.22,79.441 C 50.021,79.441 57.265,77.024 63.254,72.907 L 83.35,93.002 C 84.682,94.334 86.428,95.0 88.176,95.0 C 89.922,95.0 91.668,94.334 93.0,93.002 C 95.666,90.336 95.666,86.015 93.0,83.35 M 15.92,42.221 C 15.92,27.718999999999994 27.718,15.920999999999996 42.22,15.920999999999996 C 56.722,15.920999999999996 68.519,27.718999999999994 68.519,42.221 C 68.519,56.721999999999994 56.72200000000001,68.521 42.220000000000006,68.521 C 27.718,68.521 15.92,56.722 15.92,42.221"/>
</svg>
