<?xml version="1.0" ?>
<svg xmlns="http://www.w3.org/2000/svg" xmlns:ev="http://www.w3.org/2001/xml-events" xmlns:xlink="http://www.w3.org/1999/xlink" baseProfile="full" enable-background="new 0 0 50.4 50.4" height="578px" version="1.1" viewBox="0 0 50.4 50.4" width="600px" x="0px" xml:space="preserve" y="0px">
	<defs/>
	<path d="M 40.674,10.596 C 43.293,10.776 45.556,8.801 45.736,6.18 C 45.916,3.5569999999999995 43.942,1.2919999999999998 41.321,1.112 C 38.699999999999996,0.9320000000000002 36.434999999999995,2.909 36.256,5.53 C 36.077,8.151 38.049,10.417 40.674,10.596"/>
	<path d="M 36.41,49.557 C 34.464,49.557 32.635999999999996,48.6 31.381999999999998,46.989000000000004 C 30.127,48.6 28.299,49.557 26.351999999999997,49.557 C 24.403999999999996,49.557 22.574999999999996,48.6 21.318999999999996,46.989000000000004 C 20.064999999999994,48.6 18.235999999999997,49.557 16.289999999999996,49.557 C 14.341999999999995,49.557 12.513999999999996,48.6 11.258999999999997,46.984 C 10.004999999999997,48.6 8.175999999999997,49.557 6.226999999999997,49.557 C 3.519999999999997,49.557 1.0969999999999969,47.767 0.057999999999997165,44.999 C -0.11600000000000282,44.533 0.11999999999999716,44.019000000000005 0.5829999999999972,43.842 C 1.0479999999999972,43.664 1.562999999999997,43.906 1.7379999999999973,44.369 C 2.5119999999999973,46.43 4.274999999999997,47.763 6.226999999999997,47.763 C 7.959999999999997,47.763 9.579999999999997,46.669 10.454999999999997,44.906 C 10.758999999999997,44.296 11.758999999999997,44.296 12.061999999999996,44.906 C 12.936999999999996,46.666 14.557999999999996,47.763 16.289999999999996,47.763 C 18.021999999999995,47.763 19.641999999999996,46.669 20.515999999999995,44.906 C 20.818999999999996,44.296 21.820999999999994,44.296 22.122999999999994,44.906 C 22.997999999999994,46.67 24.617999999999995,47.763 26.351999999999993,47.763 C 28.082999999999995,47.763 29.703999999999994,46.669 30.57999999999999,44.906 C 30.882999999999992,44.296 31.882999999999992,44.296 32.18499999999999,44.906 C 33.05999999999999,46.67 34.679999999999986,47.763 36.41099999999999,47.763 C 38.14499999999999,47.763 39.764999999999986,46.669 40.639999999999986,44.906 C 40.86099999999998,44.46 41.399999999999984,44.282 41.841999999999985,44.5 C 42.28499999999998,44.721 42.466999999999985,45.26 42.246999999999986,45.705 C 41.066,48.081 38.83,49.557 36.41,49.557 L 36.41,49.557"/>
	<path d="M 49.727,23.08 L 37.199,9.877 C 36.783,9.414000000000001 36.043,8.926 35.079,8.649000000000001 C 32.813,8.001000000000001 27.976,10.055000000000001 27.976,10.055000000000001 L 18.448,14.122000000000002 C 17.121000000000002,14.767000000000001 16.113,15.983000000000002 15.759,17.470000000000002 L 15.234,25.89 L 6.46,29.149 C 5.468,29.54 4.725,30.446 4.6,31.576 C 4.420999999999999,33.196 5.582999999999999,34.65 7.2059999999999995,34.832 C 7.709,34.893 8.198,34.811 8.633,34.632 L 19.37,30.64 C 20.148,30.289 20.753,29.617 20.998,28.769000000000002 L 21.331,23.529000000000003 L 25.519,31.111000000000004 L 25.927999999999997,39.272000000000006 C 25.365,38.806000000000004 24.877999999999997,38.203 24.519,37.48400000000001 C 24.215999999999998,36.87400000000001 23.215,36.87400000000001 22.912,37.48400000000001 C 22.037,39.24700000000001 20.416999999999998,40.34100000000001 18.683999999999997,40.34100000000001 C 16.901999999999997,40.34100000000001 15.260999999999997,39.22200000000001 14.398999999999997,37.42800000000001 C 14.183999999999997,36.98000000000001 13.650999999999998,36.79300000000001 13.201999999999998,37.006000000000014 C 12.754999999999999,37.22100000000002 12.566999999999998,37.75700000000001 12.781999999999998,38.20200000000001 C 13.944999999999999,40.628000000000014 16.206999999999997,42.13600000000001 18.685,42.13600000000001 C 20.631999999999998,42.13600000000001 22.461,41.17900000000001 23.715999999999998,39.56200000000001 C 24.357999999999997,40.38600000000001 25.15,41.03500000000001 26.028999999999996,41.47700000000001 C 26.028999999999996,41.48000000000001 26.028999999999996,41.48000000000001 26.028999999999996,41.48400000000001 C 26.034999999999997,41.48400000000001 26.041999999999998,41.48400000000001 26.047999999999995,41.48400000000001 C 26.886999999999993,41.900000000000006 27.801999999999996,42.13600000000001 28.747999999999994,42.13600000000001 C 30.695999999999994,42.13600000000001 32.522999999999996,41.17900000000001 33.776999999999994,39.56600000000001 C 35.032999999999994,41.17900000000001 36.861,42.13600000000001 38.80799999999999,42.13600000000001 C 41.227999999999994,42.13600000000001 43.462999999999994,40.65900000000001 44.64399999999999,38.28300000000001 C 44.86399999999999,37.839000000000006 44.68199999999999,37.29800000000001 44.23799999999999,37.077000000000005 C 43.794999999999995,36.86000000000001 43.257999999999996,37.03900000000001 43.035999999999994,37.483000000000004 C 42.16199999999999,39.246 40.541,40.34 38.80799999999999,40.34 C 37.07699999999999,40.34 35.45499999999999,39.245000000000005 34.57999999999999,37.483000000000004 C 34.276999999999994,36.873000000000005 33.27599999999999,36.873000000000005 32.97399999999999,37.483000000000004 C 32.636999999999986,38.160000000000004 32.18899999999999,38.73800000000001 31.66699999999999,39.19500000000001 L 31.31999999999999,31.625000000000007 C 31.32899999999999,31.573000000000008 31.30299999999999,30.524000000000008 31.11099999999999,29.497000000000007 C 30.96599999999999,28.716000000000008 30.75799999999999,28.422000000000008 30.47499999999999,27.714000000000006 L 27.21899999999999,21.201000000000008 L 30.70299999999999,19.717000000000006 L 29.69099999999999,15.720000000000006 L 30.71799999999999,15.368000000000006 L 33.91,27.79 C 34.16,28.761 35.037,29.406 35.992999999999995,29.406 C 36.172,29.406 36.349,29.384999999999998 36.532,29.34 C 37.683,29.043 38.378,27.867 38.083,26.717 L 35.858999999999995,17.653 L 37.635999999999996,16.924 L 46.407,26.191 C 46.79,26.622 47.343999999999994,26.913999999999998 47.971,26.951 C 49.224999999999994,27.025000000000002 50.300999999999995,26.072 50.378,24.818 C 50.42,24.146 50.164,23.521 49.727,23.08"/>
</svg>
