<?xml version="1.0" ?>
<svg xmlns="http://www.w3.org/2000/svg" xmlns:ev="http://www.w3.org/2001/xml-events" xmlns:xlink="http://www.w3.org/1999/xlink" baseProfile="full" enable-background="new 0 0 100 100" height="600px" version="1.1" viewBox="0 0 100 100" width="598px" x="0px" xml:space="preserve" y="0px">
	<defs/>
	<path d="M 30.3,85.656 C 30.3,85.656 30.3,85.656 30.296,85.656 C 29.535999999999998,86.41600000000001 28.52,86.982 27.279,87.331 L 18.823,89.72 C 16.566,90.356 14.484,89.967 13.116,88.658 C 11.743,87.34700000000001 11.263,85.276 11.798,82.998 L 13.841000000000001,74.32000000000001 C 14.159,72.97000000000001 14.729000000000001,71.88400000000001 15.539000000000001,71.07000000000001 C 17.229000000000003,69.37200000000001 20.203000000000003,68.89200000000001 23.033,71.62200000000001 L 29.632,77.99600000000001 C 30.977,79.30600000000001 31.694000000000003,80.787 31.71,82.29200000000002 C 31.719,83.539 31.219,84.74 30.3,85.656" fill="#000000"/>
	<path d="M 42.122,79.007 C 39.02,79.007 36.108,77.802 33.917,75.611 C 31.653000000000002,73.34700000000001 30.525000000000002,70.37400000000001 30.528000000000002,67.399 C 27.973000000000003,67.678 25.418000000000003,66.791 23.599000000000004,64.972 C 20.296000000000003,61.66799999999999 20.296000000000003,56.294999999999995 23.599000000000004,52.99099999999999 L 65.81800000000001,10.772999999999989 C 66.01100000000001,10.57999999999999 66.22100000000002,10.408999999999988 66.44200000000001,10.260999999999989 C 71.08300000000001,6.522999999999989 79.22900000000001,8.547999999999988 85.94800000000001,15.266999999999989 C 92.715,22.03199999999999 94.706,30.04299999999999 90.88400000000001,34.90499999999999 C 90.79900000000002,35.02899999999999 90.70300000000002,35.14899999999999 90.60200000000002,35.26099999999999 C 90.52000000000002,35.380999999999986 90.35400000000001,35.578999999999986 90.16600000000001,35.764999999999986 L 50.32,75.61 C 48.135,77.802 45.223,79.007 42.122,79.007 M 75.795,28.421 C 75.644,28.660999999999998 75.461,28.886 75.252,29.095 L 39.531,64.82 C 38.104,66.247 38.108,68.56899999999999 39.535,69.996 C 40.903999999999996,71.372 43.330999999999996,71.38 44.702999999999996,69.996 L 84.41999999999999,30.281999999999996 C 84.48199999999999,30.196999999999996 84.54899999999999,30.111999999999995 84.61699999999999,30.025999999999996 C 85.37799999999999,29.133999999999997 84.55199999999999,25.097999999999995 80.33399999999999,20.879999999999995 C 76.02999999999999,16.576999999999995 72.18399999999998,15.738999999999995 71.37799999999999,16.483999999999995 C 71.27899999999998,16.581999999999994 71.17699999999999,16.665999999999993 71.07099999999998,16.747999999999994 L 29.214,58.605 C 29.009,58.814 29.009,59.147999999999996 29.214,59.355999999999995 C 29.459,59.596999999999994 29.711,59.608 29.962999999999997,59.355999999999995 L 67.738,21.581999999999994 C 67.99,21.330999999999992 68.265,21.120999999999995 68.564,20.949999999999992 C 70.58699999999999,19.63199999999999 73.46,19.914999999999992 75.19399999999999,21.647999999999993 C 77.012,23.466 77.232,26.339 75.795,28.421" fill="#000000"/>
</svg>
