<?xml version="1.0" ?>
<svg xmlns="http://www.w3.org/2000/svg" xmlns:ev="http://www.w3.org/2001/xml-events" xmlns:graph="http://ns.adobe.com/Graphs/1.0/" xmlns:i="http://ns.adobe.com/AdobeIllustrator/10.0/" xmlns:x="http://ns.adobe.com/Extensibility/1.0/" xmlns:xlink="http://www.w3.org/1999/xlink" baseProfile="full" enable-background="new 0 0 100 100" height="170px" version="1.1" viewBox="0 0 100 100" width="600px" x="0px" xml:space="preserve" y="0px">
	<defs/>
	<path d="M 52.56,36.489 L 47.152,36.489 C 44.408,36.593999999999994 18.068,32.596999999999994 7.128,37.135 L 8.19,41.028 C 8.19,41.028 10.567,41.144 13.878,50.535 C 18.542,63.754999999999995 43.085,60.077999999999996 45.679,49.699 C 46.535000000000004,46.278999999999996 46.793,44.211999999999996 47.153,41.268 C 47.153,41.268 49.602,37.481 52.561,41.268 C 52.561,41.268 53.178,46.279 54.036,49.699 C 56.63,60.077999999999996 81.172,63.754999999999995 85.83500000000001,50.535 C 89.14800000000001,41.144 91.52300000000001,41.028 91.52300000000001,41.028 L 92.58500000000001,37.135 C 81.644,32.597 55.304,36.594 52.56,36.489 M 10.925,39.139 C 9.856000000000002,39.139 8.991000000000001,38.709 8.991000000000001,38.173 C 8.991000000000001,37.639 9.856000000000002,37.209 10.925,37.209 C 11.992,37.209 12.859,37.639 12.859,38.173 C 12.859,38.708 11.992,39.139 10.925,39.139 M 44.773,43.851 C 44.733000000000004,48.301 41.956,52.19 41.956,52.19 C 39.649,55.833 33.901,57.129999999999995 33.901,57.129999999999995 C 22.525000000000006,58.56699999999999 18.574000000000005,54.956999999999994 18.574000000000005,54.956999999999994 C 15.329000000000004,52.153999999999996 14.980000000000006,41.88799999999999 14.980000000000006,41.88799999999999 C 15.060000000000006,38.45399999999999 18.654000000000007,37.401999999999994 18.654000000000007,37.401999999999994 C 26.431000000000008,35.54299999999999 36.16900000000001,37.053 36.16900000000001,37.053 C 42.23200000000001,37.756 44.06700000000001,40.067 44.06700000000001,40.067 C 44.967,41.119 44.773,43.851 44.773,43.851 M 81.34,55.102 C 81.34,55.102 77.375,58.775999999999996 65.941,57.315 C 65.941,57.315 60.168000000000006,55.995 57.853,52.286 C 57.853,52.286 55.062000000000005,48.326 55.022,43.794 C 55.022,43.794 54.827999999999996,41.013999999999996 55.731,39.94 C 55.731,39.94 57.574,37.589999999999996 63.666000000000004,36.873 C 63.666000000000004,36.873 73.446,35.338 81.26400000000001,37.23 C 81.26400000000001,37.23 84.87700000000001,38.299 84.953,41.796 C 84.952,41.8 84.601,52.247 81.34,55.102 M 88.665,39.139 C 87.599,39.139 86.732,38.709 86.732,38.173 C 86.732,37.639 87.598,37.209 88.665,37.209 C 89.733,37.209 90.60000000000001,37.639 90.60000000000001,38.173 C 90.6,38.708 89.733,39.139 88.665,39.139"/>
</svg>
