<?xml version="1.0" ?>
<svg xmlns="http://www.w3.org/2000/svg" xmlns:ev="http://www.w3.org/2001/xml-events" xmlns:xlink="http://www.w3.org/1999/xlink" baseProfile="full" enable-background="new 0 0 100 66.847" height="402px" version="1.1" viewBox="0 0 100 66.847" width="600px" x="0px" xml:space="preserve" y="0px">
	<defs/>
	<path d="M 83.175,25.884 C 83.77199999999999,28.211 83.68599999999999,30.819 83.506,33.468 C 92.276,39.068000000000005 93.782,42.44800000000001 93.719,43.002 C 93.70599999999999,43.022000000000006 92.041,45.007000000000005 82.439,44.305 C 81.204,44.214 79.907,44.083 78.559,43.913 C 79.654,40.611 80.25399999999999,37.087999999999994 80.25399999999999,33.42399999999999 C 80.254,14.993 65.26,0.0 46.829,0.0 C 32.708,0.0 20.612,8.807 15.724,21.213 C 7.664,15.923000000000002 6.2330000000000005,12.728000000000002 6.293000000000001,12.190000000000001 C 6.306000000000001,12.169 7.710000000000001,10.047 17.301000000000002,10.746000000000002 C 18.586000000000002,8.377000000000002 20.644000000000002,6.468000000000003 22.769000000000002,4.960000000000003 C 21.421000000000003,4.8000000000000025 19.46,4.717000000000002 18.037000000000003,4.613000000000003 C 7.714,3.858 1.936,5.644 0.372,10.075 C -1.298,14.805 2.655,20.209 12.457,26.599999999999998 C 12.930000000000001,26.907999999999998 13.442,27.215999999999998 13.936,27.525 C 13.593,29.441 13.404,31.409999999999997 13.404,33.423 C 13.404,51.853 28.398,66.846 46.82899999999999,66.846 C 59.27199999999999,66.846 70.142,60.006 75.895,49.894000000000005 C 78.03399999999999,50.206 80.073,50.438 81.978,50.57900000000001 C 92.29899999999999,51.33200000000001 98.076,49.54800000000001 99.63999999999999,45.11500000000001 C 101.814,38.966 93.851,32.0 83.175,25.884 M 46.829,60.377 C 31.965,60.377 19.873,48.288000000000004 19.873,33.423 C 19.873,32.614000000000004 19.915000000000003,31.815 19.986,31.024 C 26.018,34.274 33.025999999999996,37.443 40.577,40.298 C 40.78,38.115 41.552,36.098 42.744,34.393 C 34.797,31.384 27.466,28.021 21.361,24.607 C 25.023,14.062 35.052,6.466999999999999 46.828,6.466999999999999 C 61.690000000000005,6.466999999999999 73.784,18.558999999999997 73.784,33.422 C 73.784,36.747 73.17500000000001,39.93 72.07000000000001,42.872 C 69.858,42.452 67.56,41.954 65.19500000000001,41.382 C 65.19500000000001,41.403 65.197,41.419 65.197,41.440999999999995 C 65.197,43.629999999999995 64.61800000000001,45.684 63.612,47.47 C 65.459,47.917 67.267,48.318999999999996 69.033,48.68 C 64.169,55.74 56.031,60.377 46.829,60.377" fill="#010101"/>
	<path cx="52.67" cy="41.599" d="M 44.314,41.599 A 8.356,8.356 0.0 1,0 61.025999999999996,41.599 A 8.356000000000002,8.356000000000002 0.0 1,0 44.31399999999999,41.599" fill="#010101" r="8.356"/>
</svg>
