<?xml version="1.0" ?>
<svg xmlns="http://www.w3.org/2000/svg" xmlns:ev="http://www.w3.org/2001/xml-events" xmlns:sketch="http://www.bohemiancoding.com/sketch/ns" xmlns:xlink="http://www.w3.org/1999/xlink" baseProfile="full" height="600px" version="1.1" viewBox="0 0 100 100" width="600px" x="0px" y="0px">
	<defs/>
	<path d="M 95.0,50.0 C 95.0,75.0 75.0,95.0 50.0,95.0 C 25.0,95.0 5.0,75.0 5.0,50.0 C 5.0,25.0 25.0,5.0 50.0,5.0 C 75.0,5.0 95.0,25.0 95.0,50.0" sketch:type="MSShapeGroup" stroke="#000000" stroke-width="10"/>
	<path d="M 32.9312614,55.3085714 L 32.9312614,76.0 L 50.7370996,76.0 C 65.0861267,76.0 75.0,64.8528571 75.0,50.4271429 C 75.0,36.0014286 65.0861267,25.0 50.7370996,25.0 L 32.9312614,25.0 L 32.9312614,45.4 L 26.0,45.4 L 26.0,55.3085714 L 32.9312614,55.3085714 M 42.0,45.3578199 L 42.0,35.0 L 50.0180723,35.0 C 58.3674699,35.0 64.0,41.3909953 64.0,50.5734597 C 64.0,59.7559242 58.3674699,66.0 50.0180723,66.0 L 42.0,66.0 L 42.0,55.3483412 L 52.0722892,55.3483412 L 52.0722892,45.3578199 L 42.0,45.3578199" fill="#000000" sketch:type="MSShapeGroup"/>
</svg>
