<?xml version="1.0" ?>
<svg xmlns="http://www.w3.org/2000/svg" xmlns:ev="http://www.w3.org/2001/xml-events" xmlns:sketch="http://www.bohemiancoding.com/sketch/ns" xmlns:xlink="http://www.w3.org/1999/xlink" baseProfile="full" height="600px" version="1.1" viewBox="0 0 100 100" width="600px" x="0px" y="0px">
	<defs/>
	<path d="M 95.0,50.0 C 95.0,75.0 75.0,95.0 50.0,95.0 C 25.0,95.0 5.0,75.0 5.0,50.0 C 5.0,25.0 25.0,5.0 50.0,5.0 C 75.0,5.0 95.0,25.0 95.0,50.0 M 35.1543812,55.35248 L 35.1543812,75.596 L 52.5058286,75.596 C 66.4886799,75.596 76.1495591,64.69016 76.1495591,50.57672 C 76.1495591,36.46328 66.4886799,25.7 52.5058286,25.7 L 35.1543812,25.7 L 35.1543812,45.6584 L 28.4,45.6584 L 28.4,55.35248 L 35.1543812,55.35248 M 43.8215103,45.6584 L 43.8215103,35.60792 L 51.5120786,35.60792 C 59.5204389,35.60792 64.9229042,41.80928 64.9229042,50.71928 C 64.9229042,59.62928 59.5204389,65.68808 51.5120786,65.68808 L 43.8215103,65.68808 L 43.8215103,55.35248 L 53.4823894,55.35248 L 53.4823894,45.6584 L 43.8215103,45.6584" sketch:type="MSShapeGroup"/>
</svg>
