<?xml version="1.0" ?>
<svg xmlns="http://www.w3.org/2000/svg" xmlns:ev="http://www.w3.org/2001/xml-events" xmlns:xlink="http://www.w3.org/1999/xlink" baseProfile="full" enable-background="new 0 0 100 100" height="600px" version="1.1" viewBox="0 0 100 100" width="203px" x="0px" xml:space="preserve" y="0px">
	<defs/>
	<path d="M 61.549,4.018 C 62.82,4.018 63.852,5.163 63.852,6.574999999999999 C 63.852,6.574999999999999 38.866,22.331 38.867,50.28 C 38.865,77.986 63.85,93.982 63.85,93.982 C 63.852000000000004,95.396 62.822,96.541 61.551,96.541 L 61.551,96.541 C 60.28,96.541 35.967,77.98599999999999 35.968,50.279999999999994 C 35.966,22.331 60.279,4.018 61.549,4.018 L 61.549,4.018" display="inline" fill="#000000"/>
	<path d="M 61.588,97.941 C 59.221000000000004,97.941 33.668,77.4 33.668,50.17 C 33.668,22.399 59.221000000000004,2.399000000000001 61.588,2.399000000000001 L 61.588,2.399000000000001 C 63.957,2.399000000000001 65.877,4.361000000000001 65.877,6.781000000000001 C 65.877,6.781000000000001 40.244,22.273000000000003 40.244,50.42 C 40.244,77.274 65.877,93.559 65.877,93.559 C 65.877,95.98 63.957,97.941 61.588,97.941 L 61.588,97.941" display="inline" fill="#000000"/>
	<path d="M 64.0,8.045 C 65.168,7.213 65.877,6.781 65.877,6.781 C 65.877,4.361 63.956999999999994,2.399 61.587999999999994,2.399 C 59.221,2.399 33.66799999999999,22.399 33.66799999999999,50.17 C 33.66799999999999,77.4 59.22099999999999,97.941 61.587999999999994,97.941 C 63.956999999999994,97.941 65.877,95.98 65.877,93.558 C 65.877,93.558 65.16799999999999,93.105 63.99999999999999,92.24300000000001 L 63.99999999999999,8.045 L 64.0,8.045 M 60.5,89.45 C 52.982,83.029 40.244,69.358 40.244,50.42 C 40.244,30.57 52.983000000000004,17.024 60.5,10.757000000000005 L 60.5,89.45" fill="#000000"/>
	<path d="M 61.194,6.493 L 62.438,6.493 L 62.438,93.887 L 61.194,93.887 L 61.194,6.493" display="inline" fill="#000000" height="87.394" width="1.244" x="61.194" y="6.493"/>
	<path d="M 60.5,6.762 L 64.0,6.762 L 64.0,94.158 L 60.5,94.158 L 60.5,6.762" display="inline" fill="#000000" height="87.396" width="3.5" x="60.5" y="6.762"/>
</svg>
