<?xml version="1.0" ?>
<svg xmlns="http://www.w3.org/2000/svg" xmlns:ev="http://www.w3.org/2001/xml-events" xmlns:xlink="http://www.w3.org/1999/xlink" baseProfile="full" enable-background="new 0 0 324.097 520.488" height="600px" version="1.1" viewBox="0 0 324.097 520.488" width="374px" x="0px" xml:space="preserve" y="0px">
	<defs/>
	<path d="M 171.104,45.155 C 112.10400000000001,45.155 64.10400000000001,93.155 64.10400000000001,152.155 C 64.10400000000001,211.155 112.10400000000001,259.155 171.104,259.155 C 230.104,259.155 278.10400000000004,211.15499999999997 278.10400000000004,152.15499999999997 C 278.10400000000004,93.15499999999997 230.104,45.155 171.104,45.155"/>
	<path d="M 313.896,138.828 L 317.409,106.298 L 295.44599999999997,82.046 L 285.42499999999995,50.900000000000006 L 255.49699999999996,37.678000000000004 L 233.674,13.3 L 200.954,13.393 L 171.103,0.0 L 141.251,13.394 L 108.532,13.3 L 86.708,37.677 L 56.78,50.899 L 46.758,82.046 L 24.795,106.298 L 28.309,138.828 L 18.109,169.916 L 34.54900000000001,198.20499999999998 L 37.876000000000005,230.754 L 64.40100000000001,249.91 L 80.679,278.293 L 112.702,285.003 L 139.118,304.311 L 171.102,297.416 L 203.086,304.311 L 229.502,285.003 L 261.52500000000003,278.293 L 277.80300000000005,249.91 L 304.32700000000006,230.754 L 307.65400000000005,198.20499999999998 L 324.095,169.916 L 313.896,138.828 M 171.104,265.155 C 108.79500000000002,265.155 58.10400000000001,214.46399999999997 58.10400000000001,152.15499999999997 C 58.10400000000001,89.84599999999998 108.79500000000002,39.15499999999997 171.104,39.15499999999997 C 233.413,39.15499999999997 284.10400000000004,89.84599999999998 284.10400000000004,152.15499999999997 C 284.10400000000004,214.46399999999997 233.412,265.155 171.104,265.155"/>
	<path d="M 263.78,281.396 L 260.706,282.041 L 230.958,288.274 L 206.42,306.209 L 203.884,308.063 L 200.814,307.401 L 171.103,300.997 L 141.391,307.401 L 138.321,308.063 L 135.785,306.209 L 111.247,288.274 L 81.499,282.041 L 78.425,281.396 L 76.862,278.671 L 73.142,272.185 L 0.0,479.839 L 80.371,435.804 L 115.403,520.488 L 166.104,376.546 L 200.847,491.967 L 239.76,408.995 L 318.007,456.701 L 264.736,279.728 L 263.78,281.396" points="263.78,281.396 260.706,282.041 230.958,288.274 206.42,306.209 203.884,308.063 200.814,307.401 171.103,300.997    141.391,307.401 138.321,308.063 135.785,306.209 111.247,288.274 81.499,282.041 78.425,281.396 76.862,278.671 73.142,272.185    0,479.839 80.371,435.804 115.403,520.488 166.104,376.546 200.847,491.967 239.76,408.995 318.007,456.701 264.736,279.728  "/>
</svg>
