<?xml version="1.0" ?>
<svg xmlns="http://www.w3.org/2000/svg" xmlns:ev="http://www.w3.org/2001/xml-events" xmlns:xlink="http://www.w3.org/1999/xlink" baseProfile="full" enable-background="new 0 0 100 100" height="600px" version="1.1" viewBox="0 0 100 100" width="328px" x="0px" xml:space="preserve" y="0px">
	<defs/>
	<path d="M 61.549,4.018 C 62.82,4.018 63.852,5.163 63.852,6.574999999999999 C 63.852,6.574999999999999 38.866,22.331 38.867,50.28 C 38.865,77.986 63.85,93.982 63.85,93.982 C 63.852000000000004,95.396 62.822,96.541 61.551,96.541 L 61.551,96.541 C 60.28,96.541 35.967,77.98599999999999 35.968,50.279999999999994 C 35.966,22.331 60.279,4.018 61.549,4.018 L 61.549,4.018" display="inline" fill="#000000"/>
	<path d="M 61.588,97.941 C 59.221000000000004,97.941 33.668,77.4 33.668,50.17 C 33.668,22.399 59.221000000000004,2.399000000000001 61.588,2.399000000000001 L 61.588,2.399000000000001 C 63.957,2.399000000000001 65.877,4.361000000000001 65.877,6.781000000000001 C 65.877,6.781000000000001 40.244,22.273000000000003 40.244,50.42 C 40.244,77.274 65.877,93.559 65.877,93.559 C 65.877,95.98 63.957,97.941 61.588,97.941 L 61.588,97.941" display="inline" fill="#000000"/>
	<path d="M 75.99,32.014 C 75.99,49.477000000000004 59.01499999999999,67.434 49.961999999999996,67.434 C 40.90899999999999,67.434 23.934999999999995,49.327999999999996 23.934999999999995,32.013999999999996 C 23.934999999999995,16.575999999999993 35.586999999999996,4.061999999999994 49.961999999999996,4.061999999999994 C 64.33699999999999,4.061999999999994 75.99,16.577 75.99,32.014" display="inline" fill="#000000"/>
	<path d="M 51.123,66.397 C 50.189,65.81500000000001 49.598,66.22200000000001 49.809,67.301 L 51.78,77.41 C 51.991,78.48899999999999 52.857,78.801 53.706,78.1 L 59.132000000000005,73.627 C 59.981,72.92699999999999 59.91100000000001,71.878 58.978,71.29599999999999 L 51.123,66.397" fill="#000000"/>
	<path d="M 37.418,96.938 C 36.896,96.938 36.388999999999996,96.666 36.113,96.18 C 35.703,95.46000000000001 35.955,94.54400000000001 36.675,94.134 C 41.693999999999996,91.278 41.54,88.776 41.235,83.79 C 41.158,82.527 41.07,81.096 41.07,79.53200000000001 C 41.07,71.16700000000002 48.854,66.352 49.185,66.15100000000001 C 49.894000000000005,65.724 50.816,65.94800000000001 51.245000000000005,66.65700000000001 C 51.675000000000004,67.36500000000001 51.449000000000005,68.28600000000002 50.742000000000004,68.71600000000001 C 50.635000000000005,68.78200000000001 44.07000000000001,72.89800000000001 44.07000000000001,79.53200000000001 C 44.07000000000001,81.004 44.15100000000001,82.32700000000001 44.230000000000004,83.60700000000001 C 44.550000000000004,88.83300000000001 44.803000000000004,92.96000000000001 38.160000000000004,96.74100000000001 C 37.924,96.874 37.669,96.938 37.418,96.938 L 37.418,96.938" display="inline" fill="#000000"/>
	<path d="M 75.99,32.014 C 75.99,16.576 64.33699999999999,4.062000000000001 49.961999999999996,4.062000000000001 C 35.587,4.062000000000001 23.935,16.577 23.935,32.014 C 23.935,48.035000000000004 38.464,64.72200000000001 47.807,67.128 C 45.487,68.944 41.07,73.229 41.07,79.532 C 41.07,81.095 41.158,82.527 41.235,83.78999999999999 C 41.54,88.77499999999999 41.693,91.27699999999999 36.675,94.13399999999999 C 35.955,94.54399999999998 35.704,95.45999999999998 36.113,96.17999999999999 C 36.389,96.66499999999999 36.896,96.93799999999999 37.418,96.93799999999999 C 37.669,96.93799999999999 37.924,96.87499999999999 38.159,96.74199999999999 C 44.802,92.96099999999998 44.549,88.83399999999999 44.229,83.60799999999999 C 44.15,82.32799999999999 44.069,81.00399999999999 44.069,79.53299999999999 C 44.069,74.04899999999999 48.54600000000001,70.29399999999998 50.162000000000006,69.11599999999999 L 50.41100000000001,70.39399999999999 C 50.62100000000001,71.47299999999998 50.96600000000001,73.24099999999999 51.17700000000001,74.32 L 51.78000000000001,77.41199999999999 C 51.99100000000001,78.49099999999999 52.857000000000006,78.803 53.70600000000001,78.10199999999999 L 54.87600000000001,77.13799999999999 C 55.72500000000001,76.43799999999999 57.113000000000014,75.29299999999999 57.96200000000001,74.59299999999999 L 59.13200000000001,73.62899999999999 C 59.98100000000001,72.92899999999999 59.911000000000016,71.88 58.97800000000001,71.29799999999999 L 56.74900000000001,69.90599999999999 C 55.81500000000001,69.324 54.28800000000001,68.371 53.354000000000006,67.78899999999999 L 52.245000000000005,67.097 C 61.591,64.594 75.99,48.1 75.99,32.014" fill="#000000"/>
	<path d="M 61.194,6.493 L 62.438,6.493 L 62.438,93.887 L 61.194,93.887 L 61.194,6.493" display="inline" fill="#000000" height="87.394" width="1.244" x="61.194" y="6.493"/>
	<path d="M 60.5,6.762 L 64.0,6.762 L 64.0,94.158 L 60.5,94.158 L 60.5,6.762" display="inline" fill="#000000" height="87.396" width="3.5" x="60.5" y="6.762"/>
</svg>
