<?xml version="1.0" ?>
<svg xmlns="http://www.w3.org/2000/svg" xmlns:ev="http://www.w3.org/2001/xml-events" xmlns:xlink="http://www.w3.org/1999/xlink" baseProfile="full" enable-background="new 0 0 90 90" height="600px" version="1.1" viewBox="0 0 90 90" width="600px" x="0px" xml:space="preserve" y="0px">
	<defs/>
	<path d="M 45.957,79.283 C 26.429000000000002,79.283 10.542000000000002,63.398 10.542000000000002,43.873000000000005 C 10.542000000000002,24.345000000000006 26.429000000000002,8.458000000000006 45.957,8.458000000000006 C 65.481,8.458000000000006 81.366,24.345000000000006 81.366,43.873000000000005 C 81.366,63.398 65.481,79.283 45.957,79.283 M 45.957,9.458 C 26.981,9.458 11.542000000000002,24.896 11.542000000000002,43.873 C 11.542000000000002,62.846999999999994 26.980000000000004,78.28299999999999 45.957,78.28299999999999 C 64.931,78.28299999999999 80.366,62.84599999999999 80.366,43.87299999999999 C 80.366,24.897 64.931,9.458 45.957,9.458"/>
	<path d="M 46.457,78.783 L 45.457,78.783 L 45.457,77.958 L 46.457,77.958 L 46.457,78.783 M 46.457,76.958 L 45.457,76.958 L 45.457,74.958 L 46.457,74.958 L 46.457,76.958 M 46.457,73.958 L 45.457,73.958 L 45.457,71.958 L 46.457,71.958 L 46.457,73.958 M 46.457,70.958 L 45.457,70.958 L 45.457,68.958 L 46.457,68.958 L 46.457,70.958 M 46.457,67.958 L 45.457,67.958 L 45.457,65.958 L 46.457,65.958 L 46.457,67.958 M 46.457,64.958 L 45.457,64.958 L 45.457,62.958 L 46.457,62.958 L 46.457,64.958 M 46.457,61.958 L 45.457,61.958 L 45.457,59.958 L 46.457,59.958 L 46.457,61.958 M 46.457,58.958 L 45.457,58.958 L 45.457,56.958 L 46.457,56.958 L 46.457,58.958 M 46.457,55.958 L 45.457,55.958 L 45.457,53.958 L 46.457,53.958 L 46.457,55.958 M 46.457,52.958 L 45.457,52.958 L 45.457,50.958 L 46.457,50.958 L 46.457,52.958 M 46.457,49.958 L 45.457,49.958 L 45.457,47.958 L 46.457,47.958 L 46.457,49.958 M 46.457,46.958 L 45.457,46.958 L 45.457,44.958 L 46.457,44.958 L 46.457,46.958 M 46.457,43.958 L 45.457,43.958 L 45.457,41.958 L 46.457,41.958 L 46.457,43.958 M 46.457,40.958 L 45.457,40.958 L 45.457,38.958 L 46.457,38.958 L 46.457,40.958 M 46.457,37.958 L 45.457,37.958 L 45.457,35.958 L 46.457,35.958 L 46.457,37.958 M 46.457,34.958 L 45.457,34.958 L 45.457,32.958 L 46.457,32.958 L 46.457,34.958 M 46.457,31.958 L 45.457,31.958 L 45.457,29.958 L 46.457,29.958 L 46.457,31.958 M 46.457,28.958 L 45.457,28.958 L 45.457,26.958 L 46.457,26.958 L 46.457,28.958 M 46.457,25.958 L 45.457,25.958 L 45.457,23.958 L 46.457,23.958 L 46.457,25.958 M 46.457,22.958 L 45.457,22.958 L 45.457,20.958 L 46.457,20.958 L 46.457,22.958 M 46.457,19.958 L 45.457,19.958 L 45.457,17.958 L 46.457,17.958 L 46.457,19.958 M 46.457,16.958 L 45.457,16.958 L 45.457,14.957999999999998 L 46.457,14.957999999999998 L 46.457,16.958 M 46.457,13.958 L 45.457,13.958 L 45.457,11.958 L 46.457,11.958 L 46.457,13.958 M 46.457,10.958 L 45.457,10.958 L 45.457,8.958 L 46.457,8.958 L 46.457,10.958"/>
	<path d="M 26.239,71.421 L 25.239,71.421 L 25.239,69.421 L 26.239,69.421 L 26.239,71.421 M 26.239,68.421 L 25.239,68.421 L 25.239,66.421 L 26.239,66.421 L 26.239,68.421 M 26.239,65.421 L 25.239,65.421 L 25.239,63.42100000000001 L 26.239,63.42100000000001 L 26.239,65.421 M 26.239,62.421 L 25.239,62.421 L 25.239,60.421 L 26.239,60.421 L 26.239,62.421 M 26.239,59.421 L 25.239,59.421 L 25.239,57.421 L 26.239,57.421 L 26.239,59.421 M 26.239,56.421 L 25.239,56.421 L 25.239,54.421 L 26.239,54.421 L 26.239,56.421 M 26.239,53.421 L 25.239,53.421 L 25.239,51.421 L 26.239,51.421 L 26.239,53.421 M 26.239,50.421 L 25.239,50.421 L 25.239,48.421 L 26.239,48.421 L 26.239,50.421 M 26.239,47.421 L 25.239,47.421 L 25.239,45.421 L 26.239,45.421 L 26.239,47.421 M 26.239,44.42 L 25.239,44.42 L 25.239,42.42 L 26.239,42.42 L 26.239,44.42 M 26.239,41.42 L 25.239,41.42 L 25.239,39.42 L 26.239,39.42 L 26.239,41.42 M 26.239,38.42 L 25.239,38.42 L 25.239,36.42 L 26.239,36.42 L 26.239,38.42 M 26.239,35.42 L 25.239,35.42 L 25.239,33.42 L 26.239,33.42 L 26.239,35.42 M 26.239,32.42 L 25.239,32.42 L 25.239,30.42 L 26.239,30.42 L 26.239,32.42 M 26.239,29.42 L 25.239,29.42 L 25.239,27.42 L 26.239,27.42 L 26.239,29.42 M 26.239,26.42 L 25.239,26.42 L 25.239,24.42 L 26.239,24.42 L 26.239,26.42 M 26.239,23.42 L 25.239,23.42 L 25.239,21.42 L 26.239,21.42 L 26.239,23.42 M 26.239,20.42 L 25.239,20.42 L 25.239,18.42 L 26.239,18.42 L 26.239,20.42 M 26.239,17.42 L 25.239,17.42 L 25.239,15.420000000000002 L 26.239,15.420000000000002 L 26.239,17.42"/>
	<path d="M 66.215,72.655 L 65.215,72.655 L 65.215,72.421 L 66.215,72.421 L 66.215,72.655 M 66.215,71.421 L 65.215,71.421 L 65.215,69.421 L 66.215,69.421 L 66.215,71.421 M 66.215,68.421 L 65.215,68.421 L 65.215,66.421 L 66.215,66.421 L 66.215,68.421 M 66.215,65.421 L 65.215,65.421 L 65.215,63.42100000000001 L 66.215,63.42100000000001 L 66.215,65.421 M 66.215,62.421 L 65.215,62.421 L 65.215,60.421 L 66.215,60.421 L 66.215,62.421 M 66.215,59.421 L 65.215,59.421 L 65.215,57.421 L 66.215,57.421 L 66.215,59.421 M 66.215,56.421 L 65.215,56.421 L 65.215,54.421 L 66.215,54.421 L 66.215,56.421 M 66.215,53.421 L 65.215,53.421 L 65.215,51.421 L 66.215,51.421 L 66.215,53.421 M 66.215,50.421 L 65.215,50.421 L 65.215,48.421 L 66.215,48.421 L 66.215,50.421 M 66.215,47.421 L 65.215,47.421 L 65.215,45.421 L 66.215,45.421 L 66.215,47.421 M 66.215,44.42 L 65.215,44.42 L 65.215,42.42 L 66.215,42.42 L 66.215,44.42 M 66.215,41.42 L 65.215,41.42 L 65.215,39.42 L 66.215,39.42 L 66.215,41.42 M 66.215,38.42 L 65.215,38.42 L 65.215,36.42 L 66.215,36.42 L 66.215,38.42 M 66.215,35.42 L 65.215,35.42 L 65.215,33.42 L 66.215,33.42 L 66.215,35.42 M 66.215,32.42 L 65.215,32.42 L 65.215,30.42 L 66.215,30.42 L 66.215,32.42 M 66.215,29.42 L 65.215,29.42 L 65.215,27.42 L 66.215,27.42 L 66.215,29.42 M 66.215,26.42 L 65.215,26.42 L 65.215,24.42 L 66.215,24.42 L 66.215,26.42 M 66.215,23.42 L 65.215,23.42 L 65.215,21.42 L 66.215,21.42 L 66.215,23.42 M 66.215,20.42 L 65.215,20.42 L 65.215,18.42 L 66.215,18.42 L 66.215,20.42 M 66.215,17.42 L 65.215,17.42 L 65.215,15.420000000000002 L 66.215,15.420000000000002 L 66.215,17.42"/>
	<path d="M 80.934,43.74 L 78.934,43.74 L 78.934,42.74 L 80.934,42.74 L 80.934,43.74 M 77.934,43.74 L 75.934,43.74 L 75.934,42.74 L 77.934,42.74 L 77.934,43.74 M 74.934,43.74 L 72.934,43.74 L 72.934,42.74 L 74.934,42.74 L 74.934,43.74 M 71.934,43.74 L 69.934,43.74 L 69.934,42.74 L 71.934,42.74 L 71.934,43.74 M 68.934,43.74 L 66.934,43.74 L 66.934,42.74 L 68.934,42.74 L 68.934,43.74 M 65.934,43.74 L 63.934,43.74 L 63.934,42.74 L 65.934,42.74 L 65.934,43.74 M 62.934,43.74 L 60.934,43.74 L 60.934,42.74 L 62.934,42.74 L 62.934,43.74 M 59.934,43.74 L 57.934,43.74 L 57.934,42.74 L 59.934,42.74 L 59.934,43.74 M 56.934,43.74 L 54.934,43.74 L 54.934,42.74 L 56.934,42.74 L 56.934,43.74 M 53.934,43.74 L 51.934,43.74 L 51.934,42.74 L 53.934,42.74 L 53.934,43.74 M 50.934,43.74 L 48.934,43.74 L 48.934,42.74 L 50.934,42.74 L 50.934,43.74 M 47.934,43.74 L 45.934,43.74 L 45.934,42.74 L 47.934,42.74 L 47.934,43.74 M 44.934,43.74 L 42.934,43.74 L 42.934,42.74 L 44.934,42.74 L 44.934,43.74 M 41.934,43.74 L 39.934,43.74 L 39.934,42.74 L 41.934,42.74 L 41.934,43.74 M 38.934,43.74 L 36.934,43.74 L 36.934,42.74 L 38.934,42.74 L 38.934,43.74 M 35.934,43.74 L 33.934,43.74 L 33.934,42.74 L 35.934,42.74 L 35.934,43.74 M 32.934,43.74 L 30.933999999999997,43.74 L 30.933999999999997,42.74 L 32.934,42.74 L 32.934,43.74 M 29.934,43.74 L 27.934,43.74 L 27.934,42.74 L 29.934,42.74 L 29.934,43.74 M 26.934,43.74 L 24.934,43.74 L 24.934,42.74 L 26.934,42.74 L 26.934,43.74 M 23.934,43.74 L 21.934,43.74 L 21.934,42.74 L 23.934,42.74 L 23.934,43.74 M 20.934,43.74 L 18.934,43.74 L 18.934,42.74 L 20.934,42.74 L 20.934,43.74 M 17.934,43.74 L 15.934000000000001,43.74 L 15.934000000000001,42.74 L 17.934,42.74 L 17.934,43.74 M 14.934,43.74 L 12.934,43.74 L 12.934,42.74 L 14.934,42.74 L 14.934,43.74 M 11.934,43.74 L 11.11,43.74 L 11.11,42.74 L 11.934,42.74 L 11.934,43.74"/>
	<path d="M 74.475,25.167 L 72.475,25.167 L 72.475,24.167 L 74.475,24.167 L 74.475,25.167 M 71.475,25.167 L 69.475,25.167 L 69.475,24.167 L 71.475,24.167 L 71.475,25.167 M 68.475,25.167 L 66.475,25.167 L 66.475,24.167 L 68.475,24.167 L 68.475,25.167 M 65.475,25.167 L 63.474999999999994,25.167 L 63.474999999999994,24.167 L 65.475,24.167 L 65.475,25.167 M 62.475,25.167 L 60.475,25.167 L 60.475,24.167 L 62.475,24.167 L 62.475,25.167 M 59.475,25.167 L 57.475,25.167 L 57.475,24.167 L 59.475,24.167 L 59.475,25.167 M 56.475,25.167 L 54.475,25.167 L 54.475,24.167 L 56.475,24.167 L 56.475,25.167 M 53.475,25.167 L 51.475,25.167 L 51.475,24.167 L 53.475,24.167 L 53.475,25.167 M 50.475,25.167 L 48.475,25.167 L 48.475,24.167 L 50.475,24.167 L 50.475,25.167 M 47.475,25.167 L 45.475,25.167 L 45.475,24.167 L 47.475,24.167 L 47.475,25.167 M 44.475,25.167 L 42.475,25.167 L 42.475,24.167 L 44.475,24.167 L 44.475,25.167 M 41.475,25.167 L 39.475,25.167 L 39.475,24.167 L 41.475,24.167 L 41.475,25.167 M 38.475,25.167 L 36.475,25.167 L 36.475,24.167 L 38.475,24.167 L 38.475,25.167 M 35.475,25.167 L 33.475,25.167 L 33.475,24.167 L 35.475,24.167 L 35.475,25.167 M 32.475,25.167 L 30.475,25.167 L 30.475,24.167 L 32.475,24.167 L 32.475,25.167 M 29.475,25.167 L 27.475,25.167 L 27.475,24.167 L 29.475,24.167 L 29.475,25.167 M 26.475,25.167 L 24.475,25.167 L 24.475,24.167 L 26.475,24.167 L 26.475,25.167 M 23.475,25.167 L 21.475,25.167 L 21.475,24.167 L 23.475,24.167 L 23.475,25.167 M 20.475,25.167 L 18.475,25.167 L 18.475,24.167 L 20.475,24.167 L 20.475,25.167 M 17.475,25.167 L 16.577,25.167 L 16.577,24.167 L 17.475,24.167 L 17.475,25.167"/>
	<path d="M 75.163,63.494 L 73.163,63.494 L 73.163,62.494 L 75.163,62.494 L 75.163,63.494 M 72.163,63.494 L 70.163,63.494 L 70.163,62.494 L 72.163,62.494 L 72.163,63.494 M 69.163,63.494 L 67.163,63.494 L 67.163,62.494 L 69.163,62.494 L 69.163,63.494 M 66.163,63.494 L 64.163,63.494 L 64.163,62.494 L 66.163,62.494 L 66.163,63.494 M 63.163,63.494 L 61.163,63.494 L 61.163,62.494 L 63.163,62.494 L 63.163,63.494 M 60.163,63.494 L 58.163,63.494 L 58.163,62.494 L 60.163,62.494 L 60.163,63.494 M 57.163,63.494 L 55.163,63.494 L 55.163,62.494 L 57.163,62.494 L 57.163,63.494 M 54.163,63.494 L 52.163,63.494 L 52.163,62.494 L 54.163,62.494 L 54.163,63.494 M 51.163,63.494 L 49.163,63.494 L 49.163,62.494 L 51.163,62.494 L 51.163,63.494 M 48.163,63.494 L 46.163,63.494 L 46.163,62.494 L 48.163,62.494 L 48.163,63.494 M 45.163,63.494 L 43.163,63.494 L 43.163,62.494 L 45.163,62.494 L 45.163,63.494 M 42.163,63.494 L 40.163,63.494 L 40.163,62.494 L 42.163,62.494 L 42.163,63.494 M 39.163,63.494 L 37.163,63.494 L 37.163,62.494 L 39.163,62.494 L 39.163,63.494 M 36.163,63.494 L 34.163,63.494 L 34.163,62.494 L 36.163,62.494 L 36.163,63.494 M 33.163,63.494 L 31.162999999999997,63.494 L 31.162999999999997,62.494 L 33.163,62.494 L 33.163,63.494 M 30.163,63.494 L 28.163,63.494 L 28.163,62.494 L 30.163,62.494 L 30.163,63.494 M 27.163,63.494 L 25.163,63.494 L 25.163,62.494 L 27.163,62.494 L 27.163,63.494 M 24.163,63.494 L 22.163,63.494 L 22.163,62.494 L 24.163,62.494 L 24.163,63.494 M 21.163,63.494 L 19.163,63.494 L 19.163,62.494 L 21.163,62.494 L 21.163,63.494 M 18.163,63.494 L 16.939,63.494 L 16.939,62.494 L 18.163,62.494 L 18.163,63.494"/>
</svg>
