<?xml version="1.0" ?>
<svg xmlns="http://www.w3.org/2000/svg" xmlns:ev="http://www.w3.org/2001/xml-events" xmlns:xlink="http://www.w3.org/1999/xlink" baseProfile="full" enable-background="new 0 0 100 100" height="600px" version="1.1" viewBox="0 0 100 100" width="583px" x="0px" xml:space="preserve" y="0px">
	<defs/>
	<path d="M 83.438,44.208 L 80.43900000000001,44.208 L 70.34,32.803 L 63.271,48.875 L 87.605,86.042 C 87.605,86.042 80.876,86.5 78.5,86.042 C 76.125,85.583 74.104,83.126 74.104,83.126 L 52.27,54.459 L 45.605000000000004,73.875 L 6.187,73.875 C 6.187,73.875 5.968,71.001 7.437,68.656 C 9.031,65.781 12.854,65.95800000000001 12.854,65.95800000000001 L 34.907,65.85100000000001 C 36.275,65.72900000000001 36.657,65.84400000000001 37.354,65.12600000000002 C 37.826,64.39100000000002 37.854,63.87500000000002 37.854,63.87500000000002 L 41.104,46.87500000000002 L 48.338,29.27800000000002 L 48.031,29.25100000000002 L 38.424,29.22200000000002 C 37.899,30.209000000000017 35.138999999999996,35.32000000000002 32.396,39.08500000000002 C 30.413,41.80500000000002 30.396,43.54300000000002 26.438000000000002,43.06400000000002 C 21.428000000000004,42.45800000000002 22.875000000000004,38.06400000000002 22.875000000000004,38.06400000000002 L 33.104,20.626000000000023 L 66.771,20.626000000000023 C 66.771,20.626000000000023 70.938,20.626000000000023 73.562,23.66800000000002 C 75.029,25.367000000000022 83.437,35.79300000000002 83.437,35.79300000000002 L 99.062,35.79300000000002 L 99.062,0.0 L 14.811999999999998,0.0 L 14.811999999999998,62.375 C 8.061999999999998,62.375 2.3119999999999976,67.688 2.4369999999999976,71.499 C 2.4369999999999976,76.207 2.4369999999999976,77.548 2.4369999999999976,77.875 L 14.811999999999998,77.875 L 14.811999999999998,88.925 L 1.937,99.876 L 56.937,99.876 L 66.68599999999999,92.501 C 66.68599999999999,92.501 72.437,87.5 86.749,88.126 L 81.06099999999999,92.501 L 71.312,100.0 L 87.564,99.876 L 99.06299999999999,92.501 L 99.06299999999999,44.208 L 83.438,44.208 M 68.312,4.625 C 72.526,4.625 75.938,8.039 75.938,12.25 C 75.938,16.461 72.526,19.875 68.312,19.875 C 64.102,19.875 60.687999999999995,16.461 60.687999999999995,12.25 C 60.688,8.039 64.102,4.625 68.312,4.625"/>
</svg>
