<?xml version="1.0" ?>
<svg xmlns="http://www.w3.org/2000/svg" xmlns:ev="http://www.w3.org/2001/xml-events" xmlns:xlink="http://www.w3.org/1999/xlink" baseProfile="full" enable-background="new 0 0 73.998 42.258" height="343px" version="1.1" viewBox="0 0 73.998 42.258" width="600px" x="0px" xml:space="preserve" y="0px">
	<defs/>
	<path d="M 14.271,19.039 C 8.539000000000001,19.039 9.387,12.077000000000002 9.387,12.077000000000002 C 9.387,12.077000000000002 10.365,9.871000000000002 14.271,9.871000000000002 C 18.177,9.871000000000002 19.195,12.077000000000002 19.195,12.077000000000002 C 19.195,12.077000000000002 19.999,19.039 14.271,19.039 M 14.288,7.621 C 8.302,7.621 6.559,13.029 6.559,25.724000000000004 L 6.559,26.294000000000004 C 8.788,27.732000000000003 11.436,28.576000000000004 14.288,28.576000000000004 C 17.139,28.576000000000004 19.787,27.732000000000003 22.017,26.294000000000004 L 22.017,25.724000000000004 C 22.017,13.029 20.273,7.621 14.288,7.621" fill="#000000"/>
	<path d="M 36.977,19.039 C 31.245999999999995,19.039 32.092999999999996,12.077000000000002 32.092999999999996,12.077000000000002 C 32.092999999999996,12.077000000000002 33.071999999999996,9.871000000000002 36.977,9.871000000000002 C 40.882999999999996,9.871000000000002 41.900999999999996,12.077000000000002 41.900999999999996,12.077000000000002 C 41.900999999999996,12.077000000000002 42.707,19.039 36.977,19.039 M 36.996,7.621 C 31.01,7.621 29.267000000000003,13.029 29.267000000000003,25.724000000000004 L 29.267000000000003,26.294000000000004 C 31.496000000000002,27.732000000000003 34.144000000000005,28.576000000000004 36.996,28.576000000000004 C 39.846000000000004,28.576000000000004 42.494,27.732000000000003 44.725,26.294000000000004 L 44.725,25.724000000000004 C 44.725,13.029 42.98,7.621 36.996,7.621" fill="#000000"/>
	<path d="M 60.144,19.039 C 54.414,19.039 55.26,12.077000000000002 55.26,12.077000000000002 C 55.26,12.077000000000002 56.239,9.871000000000002 60.144,9.871000000000002 C 64.05,9.871000000000002 65.069,12.077000000000002 65.069,12.077000000000002 C 65.069,12.077000000000002 65.873,19.039 60.144,19.039 M 60.163,7.621 C 54.177,7.621 52.434,13.029 52.434,25.724000000000004 L 52.434,26.294000000000004 C 54.663,27.732000000000003 57.312,28.576000000000004 60.163,28.576000000000004 C 63.013,28.576000000000004 65.661,27.732000000000003 67.892,26.294000000000004 L 67.892,25.724000000000004 C 67.892,13.029 66.147,7.621 60.163,7.621" fill="#000000"/>
	<path d="M 59.711,0.0 C 55.082,0.0 50.966,2.215 48.354,5.636 C 45.741,2.215 41.624,0.0 36.996,0.0 C 32.371,0.0 28.255000000000003,2.212 25.642000000000003,5.631 C 23.029,2.212 18.915,0.0 14.289,0.0 C 6.41,0.0 0.0,6.41 0.0,14.288 C 0.0,14.814 0.426,15.24 0.953,15.24 C 1.478,15.24 1.9049999999999998,14.814 1.9049999999999998,14.288 C 1.9049999999999998,7.4590000000000005 7.459999999999999,1.9060000000000006 14.289,1.9060000000000006 C 18.48,1.9060000000000006 22.183,4.006 24.424,7.203 C 24.639,7.66 25.099999999999998,7.976 25.637999999999998,7.976 C 26.159999999999997,7.976 26.607999999999997,7.676 26.831,7.242 C 29.07,4.023 32.787,1.9059999999999997 36.995999999999995,1.9059999999999997 C 41.221999999999994,1.9059999999999997 44.95099999999999,4.039999999999999 47.18599999999999,7.279999999999999 C 47.41499999999999,7.693 47.85199999999999,7.975999999999999 48.358999999999995,7.975999999999999 C 48.88999999999999,7.975999999999999 49.346,7.664999999999999 49.565,7.215999999999999 C 51.805,4.010999999999999 55.512,1.9049999999999994 59.711,1.9049999999999994 C 66.539,1.9049999999999994 72.094,7.457999999999999 72.094,14.286999999999999 C 72.094,14.812999999999999 72.521,15.238999999999999 73.04599999999999,15.238999999999999 C 73.57199999999999,15.238999999999999 73.99799999999999,14.812999999999999 73.99799999999999,14.286999999999999 C 73.998,6.41 67.59,0.0 59.711,0.0" fill="#000000"/>
	<path d="M 41.623,38.487 L 41.623,36.116 L 37.924,39.076 L 37.924,32.937 L 36.076,32.937 L 36.076,39.076 L 32.376,36.116 L 32.376,38.487 L 37.001,42.186 L 41.623,38.487" fill="#000000" points="41.623,38.487 41.623,36.116 37.924,39.076 37.924,32.937 36.076,32.937 36.076,39.076   32.376,36.116 32.376,38.487 37.001,42.186 "/>
</svg>
