<?xml version="1.0" ?>
<svg xmlns="http://www.w3.org/2000/svg" xmlns:ev="http://www.w3.org/2001/xml-events" xmlns:xlink="http://www.w3.org/1999/xlink" baseProfile="full" enable-background="new 0 0 100 99.756" height="599px" version="1.1" viewBox="0 0 100 99.756" width="600px" x="0px" xml:space="preserve" y="0px">
	<defs/>
	<path d="M 48.646,0.015 C 40.584,0.221 32.46,2.381 24.995,6.691 C 1.106,20.483 -7.097,51.116 6.695,75.003 C 7.405,76.37 9.089,76.901 10.455,76.191 C 11.82,75.48100000000001 12.352,73.797 11.642,72.432 C 11.604,72.358 11.562,72.286 11.517,72.217 C -0.769,50.937 6.503,23.806 27.782,11.52 C 49.061,-0.7660000000000018 76.192,6.505 88.478,27.785 C 100.764,49.064 93.49799999999999,76.195 72.193,88.509 C 72.154,88.53 72.117,88.55 72.082,88.572 C 64.247,93.572 53.62199999999999,95.217 44.903999999999996,93.498 C 36.184999999999995,91.781 29.773999999999994,87.11 28.548999999999996,79.583 C 28.229999999999997,77.614 29.151999999999997,71.619 31.169999999999995,64.67 C 33.187999999999995,57.722 36.123,49.519000000000005 39.190999999999995,41.702 C 42.25899999999999,33.884 45.462999999999994,26.436 48.019999999999996,20.962999999999997 C 48.86899999999999,19.144999999999996 49.495999999999995,17.962999999999997 50.166,16.65 C 50.735,18.322 51.297,19.968 52.026999999999994,22.371 C 54.035,28.993 56.516999999999996,37.927 58.86999999999999,46.908 C 61.19299999999999,55.775000000000006 63.38599999999999,64.667 64.898,71.479 C 64.685,71.182 64.535,70.922 64.312,70.622 C 59.647,64.321 52.562,57.07 42.312,54.887 C 40.805,54.568 39.324,55.53 39.004,57.036 C 38.684,58.542 39.644,60.02 41.147999999999996,60.344 C 49.42699999999999,62.108000000000004 55.56399999999999,68.177 59.830999999999996,73.94 C 61.964999999999996,76.821 63.601,79.582 64.833,81.633 C 65.45,82.658 65.95,83.484 66.472,84.196 C 66.734,84.553 66.954,84.886 67.496,85.31099999999999 C 67.767,85.52399999999999 68.134,85.79899999999999 68.827,85.946 C 69.52,86.092 70.608,85.89 71.252,85.39399999999999 C 72.61399999999999,84.34799999999998 72.386,83.606 72.437,83.15799999999999 C 72.488,82.71099999999998 72.48,82.35799999999999 72.458,81.96799999999999 C 72.41499999999999,81.18399999999998 72.29899999999999,80.28499999999998 72.124,79.18699999999998 C 71.77199999999999,76.99099999999999 71.178,74.04599999999998 70.40899999999999,70.56699999999998 C 68.86999999999999,63.60699999999998 66.62899999999999,54.52599999999998 64.26199999999999,45.49399999999998 C 61.89599999999999,36.46099999999998 59.40699999999998,27.48899999999998 57.36499999999999,20.754999999999978 C 56.34399999999999,17.387999999999977 55.44099999999999,14.590999999999978 54.694999999999986,12.566999999999977 C 54.32199999999999,11.554999999999977 53.99599999999999,10.745999999999977 53.65699999999999,10.064999999999976 C 53.48799999999999,9.724999999999977 53.34199999999999,9.426999999999977 53.04399999999999,9.040999999999976 C 52.89599999999999,8.847999999999976 52.71799999999999,8.622999999999976 52.33299999999999,8.344999999999976 C 51.94899999999999,8.065999999999976 51.18699999999999,7.644999999999976 50.151999999999994,7.807999999999976 C 48.748999999999995,8.029999999999976 48.56699999999999,8.548999999999976 48.291999999999994,8.838999999999976 C 48.016999999999996,9.129999999999976 47.82899999999999,9.387999999999975 47.629999999999995,9.674999999999976 C 47.23199999999999,10.250999999999976 46.827999999999996,10.937999999999976 46.361999999999995,11.785999999999976 C 45.42999999999999,13.481999999999976 44.278999999999996,15.803999999999977 42.967999999999996,18.608999999999977 C 40.346999999999994,24.217999999999975 37.11,31.741999999999976 33.998999999999995,39.66799999999998 C 30.888999999999996,47.59399999999998 27.910999999999994,55.90999999999998 25.817999999999998,63.11799999999998 C 23.723999999999997,70.32599999999998 22.336,76.12699999999998 23.043999999999997,80.48399999999998 C 24.711999999999996,90.74099999999999 33.650999999999996,96.96499999999997 43.830999999999996,98.96999999999998 C 53.974,100.96899999999998 65.745,99.18499999999999 74.981,93.33299999999998 C 75.006,93.31599999999999 75.032,93.29999999999998 75.05799999999999,93.28399999999998 C 75.06599999999999,93.28399999999998 75.077,93.27299999999998 75.08399999999999,93.27099999999997 C 98.91199999999999,79.42199999999997 107.079,48.85299999999997 93.30799999999999,24.998999999999967 C 83.826,8.575 66.383,-0.438 48.646,0.015 L 48.646,0.015" fill="#010101"/>
</svg>
