<?xml version="1.0" ?>
<svg xmlns="http://www.w3.org/2000/svg" xmlns:ev="http://www.w3.org/2001/xml-events" xmlns:xlink="http://www.w3.org/1999/xlink" baseProfile="full" enable-background="new 0 0 98.633 100" height="600px" version="1.1" viewBox="0 0 98.633 100" width="592px" x="0px" xml:space="preserve" y="0px">
	<defs/>
	<path d="M 49.317,0.002 C 46.939,-0.019000000000000003 44.572,0.134 42.249,0.451 C 35.587,1.362 29.284000000000002,3.645 23.776000000000003,6.928 C 20.888000000000005,8.649000000000001 18.215000000000003,10.646 15.801000000000004,12.847999999999999 C 13.387000000000004,15.050999999999998 11.232000000000003,17.459 9.361000000000004,20.016 C 7.444000000000004,22.636 5.829000000000004,25.403999999999996 4.511000000000005,28.247 C 3.1920000000000046,31.091 2.1670000000000047,34.007 1.4370000000000047,36.935 C 0.32600000000000473,41.392 -0.11099999999999532,45.866 0.024000000000004684,50.166000000000004 C 0.08500000000000468,52.059000000000005 0.25500000000000467,53.831 0.49500000000000466,55.473000000000006 C 0.7450000000000047,57.184000000000005 1.0700000000000047,58.75200000000001 1.4360000000000046,60.188 C 1.8020000000000045,61.623000000000005 2.2070000000000047,62.919000000000004 2.6200000000000045,64.089 C 3.4450000000000047,66.42999999999999 4.296000000000005,68.254 5.0160000000000045,69.638 C 5.7370000000000045,71.02300000000001 6.334000000000005,71.97 6.728000000000004,72.54100000000001 C 7.122000000000004,73.11300000000001 7.318000000000004,73.31300000000002 7.313000000000004,73.17600000000002 C 7.308000000000004,73.03700000000002 7.098000000000004,72.55900000000001 6.735000000000004,71.74900000000001 C 6.373000000000004,70.94000000000001 5.8510000000000035,69.796 5.266000000000004,68.311 C 4.681000000000004,66.82700000000001 4.030000000000004,65.001 3.4400000000000035,62.82600000000001 C 2.8490000000000038,60.650000000000006 2.3200000000000034,58.12500000000001 2.0210000000000035,55.28000000000001 C 1.7530000000000034,52.745000000000005 1.6670000000000034,49.955000000000005 1.8780000000000034,46.96300000000001 C 2.0880000000000036,43.97100000000001 2.5960000000000036,40.775000000000006 3.5190000000000037,37.49100000000001 C 4.258000000000004,34.858000000000004 5.265000000000004,32.165000000000006 6.579000000000004,29.488000000000007 C 7.893000000000004,26.811000000000007 9.515000000000004,24.148000000000007 11.472000000000005,21.60600000000001 C 13.240000000000006,19.308000000000007 15.284000000000004,17.110000000000007 17.599000000000004,15.080000000000009 C 19.913000000000004,13.05000000000001 22.493000000000002,11.18800000000001 25.309000000000005,9.588000000000008 C 27.869000000000003,8.133000000000008 30.629000000000005,6.8950000000000085 33.540000000000006,5.921000000000008 C 36.452000000000005,4.948000000000008 39.519000000000005,4.240000000000008 42.67700000000001,3.8670000000000084 C 45.522000000000006,3.5290000000000084 48.44500000000001,3.4610000000000083 51.39200000000001,3.6740000000000084 C 54.34000000000001,3.8870000000000084 57.31000000000001,4.381000000000008 60.238000000000014,5.179000000000008 C 65.799,6.697 71.217,9.312 76.0,12.955 C 80.764,16.579 84.904,21.247999999999998 87.99,26.628 C 90.982,31.844 92.99499999999999,37.738 93.73899999999999,43.853 C 94.445,49.626000000000005 94.03299999999999,55.613 92.49099999999999,61.335 C 90.97199999999998,66.973 88.34999999999998,72.369 84.78799999999998,77.077 C 81.11599999999999,81.922 76.42799999999998,86.048 71.12099999999998,89.116 C 67.03499999999998,91.736 62.31199999999998,93.435 57.44099999999998,94.303 C 52.67999999999998,95.13 47.78199999999998,95.16499999999999 43.10499999999998,94.24499999999999 C 38.86999999999998,93.389 34.80399999999998,91.82099999999998 31.68499999999998,89.21699999999998 C 30.23999999999998,88.02399999999999 28.98199999999998,86.62699999999998 28.054999999999982,85.07299999999998 C 27.09499999999998,83.48099999999998 26.450999999999983,81.67999999999998 26.142999999999983,79.83099999999997 C 26.018999999999984,79.15999999999997 26.037999999999982,78.36499999999998 26.078999999999983,77.47699999999998 C 26.143999999999984,76.32599999999998 26.307999999999982,75.14299999999997 26.51399999999998,73.93299999999998 C 27.055999999999983,70.75899999999997 27.88299999999998,67.60399999999998 28.78899999999998,64.43799999999997 C 29.89699999999998,60.57599999999997 31.150999999999982,56.757999999999974 32.46199999999998,52.982999999999976 C 33.884999999999984,48.88799999999998 35.38399999999998,44.85299999999997 36.92699999999998,40.872999999999976 C 39.77199999999998,33.534999999999975 42.732999999999976,26.403999999999975 45.87799999999998,19.574999999999978 C 46.79299999999998,17.591999999999977 47.69599999999998,15.654999999999978 48.66699999999998,13.797999999999977 C 48.98099999999998,14.668999999999977 49.28399999999998,15.555999999999976 49.57999999999998,16.443999999999978 C 50.089999999999975,17.977999999999977 50.571999999999974,19.510999999999978 51.04799999999997,21.043999999999976 C 52.27099999999997,24.977999999999977 53.41199999999997,28.864999999999974 54.507999999999974,32.684999999999974 C 55.82599999999997,37.27499999999998 57.07299999999997,41.75999999999998 58.25999999999998,46.122999999999976 C 59.52699999999998,50.778999999999975 60.726999999999975,55.290999999999976 61.848999999999975,59.64599999999997 C 62.90799999999997,63.75999999999997 63.89699999999998,67.72899999999997 64.79299999999998,71.54299999999998 C 65.17599999999997,73.17499999999998 65.54699999999998,74.77199999999998 65.88499999999998,76.34299999999998 C 66.01199999999997,76.93499999999997 66.13099999999997,77.51999999999998 66.24899999999998,78.09899999999998 C 65.64299999999999,77.14199999999998 65.03799999999998,76.19899999999997 64.42299999999999,75.28799999999998 C 63.27099999999999,73.58399999999999 62.09599999999999,71.98199999999999 60.899999999999984,70.50199999999998 C 59.258999999999986,68.46899999999998 57.570999999999984,66.65699999999998 55.878999999999984,65.10199999999998 C 54.18699999999998,63.54799999999997 52.48699999999998,62.250999999999976 50.84299999999998,61.186999999999976 C 48.45399999999998,59.64399999999998 46.18199999999998,58.619999999999976 44.22399999999998,57.970999999999975 C 42.40399999999998,57.366999999999976 40.859999999999985,57.080999999999975 39.67299999999998,56.94299999999998 C 38.48599999999998,56.80499999999998 37.65699999999998,56.812999999999974 37.21199999999998,56.87199999999998 C 36.71299999999998,56.936999999999976 36.49799999999998,57.03399999999998 36.55599999999998,57.14999999999998 C 36.61399999999998,57.26599999999998 36.941999999999986,57.40499999999998 37.511999999999986,57.577999999999975 C 38.08199999999999,57.751999999999974 38.89799999999999,57.967999999999975 39.92299999999999,58.29199999999997 C 40.94699999999999,58.61599999999997 42.179999999999986,59.04199999999997 43.566999999999986,59.668999999999976 C 45.33499999999999,60.46599999999997 47.35299999999999,61.592999999999975 49.46599999999999,63.17099999999998 C 50.93099999999999,64.26199999999997 52.43499999999999,65.56599999999997 53.93799999999999,67.10799999999998 C 55.44099999999999,68.64999999999998 56.947999999999986,70.42599999999997 58.423999999999985,72.41499999999998 C 59.49799999999998,73.86599999999997 60.55899999999998,75.43699999999998 61.60599999999999,77.11499999999998 C 62.396999999999984,78.38399999999999 63.17799999999999,79.72699999999998 63.987999999999985,81.12399999999998 C 64.28699999999999,81.63899999999998 64.59199999999998,82.16699999999999 64.91499999999999,82.70699999999998 C 65.14999999999999,83.10099999999998 65.40799999999999,83.52599999999998 65.714,83.97099999999998 C 65.857,84.21399999999997 66.148,84.57999999999997 66.635,85.02599999999998 C 66.745,85.17999999999998 67.096,85.37499999999999 67.691,85.58399999999999 C 68.32300000000001,85.75399999999999 68.992,85.62199999999999 69.681,85.17599999999999 C 70.22,84.64499999999998 70.478,84.26799999999999 70.472,84.064 C 70.574,83.74499999999999 70.622,83.51299999999999 70.62899999999999,83.372 C 70.67699999999999,82.913 70.67699999999999,82.54 70.65799999999999,82.268 C 70.61099999999999,81.283 70.48099999999998,80.353 70.34999999999998,79.486 C 70.15899999999998,78.19 69.93199999999997,76.894 69.68599999999998,75.592 C 69.38399999999997,73.979 69.05099999999997,72.341 68.70299999999997,70.685 C 67.88799999999998,66.81 66.97699999999998,62.787000000000006 65.99199999999998,58.63 C 64.94999999999997,54.235 63.81999999999998,49.68300000000001 62.61899999999998,44.985 C 61.49399999999998,40.589 60.30199999999998,36.062 59.02999999999998,31.426000000000002 C 57.97599999999998,27.577 56.87199999999998,23.649 55.67199999999998,19.650000000000002 C 55.20399999999998,18.093000000000004 54.719999999999985,16.517000000000003 54.20999999999998,14.935000000000002 C 53.82099999999998,13.729000000000003 53.41399999999998,12.506000000000002 52.96099999999998,11.268000000000002 C 52.793999999999976,10.810000000000002 52.613999999999976,10.340000000000002 52.41999999999998,9.863000000000003 C 52.27699999999998,9.513000000000003 52.11099999999998,9.132000000000003 51.91299999999998,8.729000000000003 C 51.813999999999986,8.501000000000003 51.62599999999998,8.159000000000002 51.30699999999998,7.716000000000003 C 51.23599999999998,7.586000000000003 51.006999999999984,7.360000000000003 50.62099999999998,7.046000000000003 C 50.47899999999998,6.924000000000003 50.22299999999998,6.789000000000003 49.85099999999998,6.647000000000003 C 49.528999999999975,6.516000000000003 49.092999999999975,6.475000000000003 48.54599999999998,6.533000000000003 C 47.82199999999998,6.721000000000003 47.40799999999998,6.900000000000003 47.29799999999998,7.054000000000003 C 47.035,7.25 46.856,7.41 46.764,7.52 C 46.457,7.8549999999999995 46.246,8.142 46.108000000000004,8.355 C 45.596000000000004,9.101 45.181000000000004,9.827 44.81700000000001,10.494 C 43.556000000000004,12.785 42.43300000000001,15.123999999999999 41.34400000000001,17.455 C 38.10800000000001,24.371 35.06800000000001,31.585 32.16400000000001,39.003 C 30.591000000000008,43.021 29.06300000000001,47.111000000000004 27.607000000000006,51.278 C 26.268000000000008,55.105 24.982000000000006,59.007 23.834000000000007,62.997 C 22.897000000000006,66.238 22.028000000000006,69.582 21.430000000000007,73.047 C 21.201000000000008,74.369 21.016000000000005,75.741 20.930000000000007,77.16199999999999 C 20.857000000000006,78.22399999999999 20.856000000000005,79.398 21.052000000000007,80.65799999999999 C 21.460000000000008,83.12999999999998 22.333000000000006,85.53999999999999 23.641000000000005,87.719 C 24.914000000000005,89.823 26.552000000000007,91.65799999999999 28.420000000000005,93.18199999999999 C 32.423,96.42099999999999 37.248000000000005,98.33299999999998 42.12200000000001,99.24499999999999 C 47.46300000000001,100.26899999999999 52.976000000000006,100.22599999999998 58.30600000000001,99.26599999999999 C 63.71200000000001,98.31099999999999 69.00200000000001,96.37299999999999 73.69100000000002,93.35399999999998 C 79.50000000000001,89.95299999999999 84.62300000000002,85.38399999999999 88.64100000000002,79.98699999999998 C 92.53300000000002,74.76499999999999 95.37900000000002,68.80499999999998 97.00700000000002,62.54799999999998 C 98.64500000000002,56.253999999999984 99.04900000000002,49.68199999999998 98.20600000000002,43.30399999999998 C 97.31900000000002,36.61999999999998 95.06200000000001,30.19199999999998 91.70000000000002,24.487999999999982 C 88.28100000000002,18.689999999999984 83.72500000000002,13.652999999999981 78.43300000000002,9.737999999999982 C 73.215,5.878 67.314,3.113 61.207,1.55 C 57.282,0.545 53.281,0.036 49.317,0.002 M 68.918,82.169 C 68.96100000000001,82.191 68.98,82.212 68.968,82.22 C 68.958,82.222 68.941,82.197 68.918,82.169" fill="#010101"/>
</svg>
