<?xml version="1.0" ?>
<svg xmlns="http://www.w3.org/2000/svg" xmlns:ev="http://www.w3.org/2001/xml-events" xmlns:xlink="http://www.w3.org/1999/xlink" baseProfile="full" enable-background="new 0 0 100 100" height="600px" version="1.1" viewBox="0 0 100 100" width="600px" x="0px" xml:space="preserve" y="0px">
	<defs/>
	<path d="M 79.868,90.656 C 80.208,89.67 80.33399999999999,88.61500000000001 80.55799999999999,87.96300000000001 C 81.246,85.98800000000001 82.70899999999999,82.084 83.08,79.91000000000001 C 83.276,78.74600000000001 83.755,77.28500000000001 83.694,75.06000000000002 C 83.673,74.34300000000002 83.57000000000001,73.63000000000001 83.509,72.91500000000002 C 83.395,71.49300000000002 82.764,70.23100000000002 82.188,68.96800000000002 C 81.913,68.36300000000001 81.541,67.71600000000002 80.99000000000001,67.32300000000002 C 80.35300000000001,66.86400000000002 80.22600000000001,66.72100000000002 79.60600000000001,66.93400000000003 C 79.52900000000001,66.95900000000003 79.34200000000001,67.03300000000003 79.09700000000001,67.12300000000002 C 79.06200000000001,67.17200000000003 79.02600000000001,67.22000000000001 78.99100000000001,67.26900000000002 C 78.89700000000002,67.40300000000002 78.80300000000001,67.53700000000002 78.70800000000001,67.66800000000002 C 79.60000000000001,69.56500000000003 80.44000000000001,71.18000000000002 80.88000000000001,74.07700000000003 C 81.10900000000001,75.59800000000003 81.15700000000001,77.41900000000003 81.00500000000001,78.72200000000002 C 80.75000000000001,80.92700000000002 80.322,82.88600000000002 79.56800000000001,84.98000000000002 C 78.94600000000001,86.70700000000002 78.135,89.51500000000001 78.01400000000001,90.26900000000002 C 77.81200000000001,91.51100000000002 77.72900000000001,91.92100000000002 78.68900000000001,92.34900000000002 C 78.92500000000001,92.48600000000002 79.873,92.69900000000001 80.549,92.86700000000002 C 80.549,92.86500000000002 80.549,92.86400000000002 80.549,92.86300000000001 C 80.203,92.75400000000002 79.95700000000001,92.60300000000001 79.866,92.50600000000001 C 79.549,92.162 79.597,91.445 79.868,90.656"/>
	<path d="M 94.462,80.939 C 94.328,78.951 93.96900000000001,76.972 93.679,74.996 C 93.42,73.24 92.932,71.545 92.393,69.85 C 91.479,66.969 90.696,64.04899999999999 89.872,61.14099999999999 C 89.595,60.15399999999999 88.986,58.36799999999999 87.928,57.47699999999999 C 87.062,57.70899999999999 86.04899999999999,57.60599999999999 85.233,57.96299999999999 C 83.92,58.53499999999999 82.846,59.63299999999999 82.00500000000001,60.72499999999999 C 81.19200000000001,61.77399999999999 80.70400000000001,63.13899999999999 80.456,64.24099999999999 C 80.254,65.12199999999999 80.058,65.76299999999999 79.87700000000001,66.14399999999999 C 80.07000000000001,66.112 80.26700000000001,66.08699999999999 80.46000000000001,66.03599999999999 C 82.203,65.56899999999999 83.897,64.95599999999999 84.83600000000001,63.21199999999999 C 85.35200000000002,62.252999999999986 86.19000000000001,61.83899999999999 87.25200000000001,61.77999999999999 C 87.55700000000002,61.761999999999986 87.85700000000001,61.65699999999999 88.20100000000001,61.582999999999984 C 88.168,61.652999999999984 88.13700000000001,61.78799999999998 87.89,61.887999999999984 C 87.107,62.201999999999984 86.111,62.66899999999998 85.487,63.969999999999985 C 85.02499999999999,64.92699999999998 84.345,65.73999999999998 84.06899999999999,66.16699999999999 C 83.89599999999999,66.43699999999998 83.68499999999999,66.722 83.42599999999999,66.89599999999999 C 83.06899999999999,67.13199999999999 83.04599999999999,67.39799999999998 83.17499999999998,67.73399999999998 C 83.45299999999999,68.43899999999998 83.73099999999998,69.14199999999998 84.01899999999998,69.84299999999998 C 84.82699999999998,71.81399999999998 85.18399999999998,73.89199999999998 85.28499999999998,75.99499999999998 C 85.33499999999998,77.02799999999998 84.94799999999998,78.93799999999997 84.78799999999998,79.99499999999998 C 84.50799999999998,81.83299999999997 84.09299999999999,83.56499999999997 83.57199999999999,85.30899999999997 C 83.24499999999999,86.41099999999997 82.89999999999999,87.50799999999997 82.53899999999999,88.59799999999997 C 82.44099999999999,88.88899999999997 82.24699999999999,89.14699999999998 82.10199999999999,89.41999999999997 C 80.78399999999999,91.90799999999997 81.88099999999999,92.49499999999998 82.317,93.21099999999997 C 82.357,93.21699999999997 82.39599999999999,93.22699999999998 82.43599999999999,93.23199999999997 C 84.17299999999999,93.48399999999997 85.91099999999999,93.73199999999997 87.64599999999999,93.98399999999997 C 88.89799999999998,94.16199999999996 90.14899999999999,94.34099999999997 91.36899999999999,94.51499999999997 C 91.85299999999998,94.45199999999997 92.30599999999998,94.44699999999997 92.72499999999998,94.32399999999997 C 93.35799999999998,94.13599999999997 93.83599999999998,93.75399999999998 93.90499999999999,93.02699999999997 C 94.09699999999998,90.98599999999998 94.37099999999998,88.94499999999998 94.47099999999999,86.89999999999998 C 94.566,84.916 94.598,82.918 94.462,80.939 M 89.912,68.779 C 89.605,69.197 89.29700000000001,69.541 88.71400000000001,69.506 C 88.05900000000001,69.465 87.61800000000001,68.951 87.47900000000001,68.483 C 87.20100000000001,67.549 87.21300000000001,66.483 87.74200000000002,65.647 C 88.06100000000002,65.13900000000001 88.46700000000001,64.66300000000001 89.09500000000001,64.721 C 89.659,64.77600000000001 90.09100000000001,65.147 90.28200000000001,65.75 C 90.618,66.82 90.612,67.828 89.912,68.779"/>
	<path d="M 78.227,66.643 C 78.616,65.741 78.676,64.745 78.667,63.733000000000004 C 78.653,62.56700000000001 78.285,61.547000000000004 77.732,60.581 C 77.529,60.229000000000006 77.17999999999999,59.931000000000004 76.838,59.692 C 75.57,58.811 74.24199999999999,58.403 72.655,58.891 C 72.59,58.912 72.535,58.94 72.473,58.961999999999996 C 72.735,58.979 72.973,59.171 73.021,59.501999999999995 C 73.3,61.392999999999994 74.06700000000001,60.74999999999999 74.168,62.035 C 74.32000000000001,63.888999999999996 73.78200000000001,65.496 72.489,66.853 C 72.307,67.044 71.83200000000001,67.14 72.09700000000001,67.562 C 72.24300000000001,67.797 72.64000000000001,67.928 72.98,67.902 C 72.90400000000001,67.888 72.85000000000001,67.847 72.74000000000001,67.754 C 72.69800000000001,67.721 72.64200000000001,67.385 72.727,67.299 C 73.155,66.861 73.8,66.57600000000001 74.14500000000001,66.08600000000001 C 75.162,64.63900000000001 75.42900000000002,61.77200000000001 74.87,61.01600000000001 C 74.331,60.28700000000001 73.905,59.95200000000001 74.226,59.07800000000001 C 74.679,59.28100000000001 75.153,59.53300000000001 75.655,59.70500000000001 C 76.384,59.95500000000001 76.883,60.37900000000001 77.123,61.137000000000015 C 77.29,61.658000000000015 77.55900000000001,62.149000000000015 77.79700000000001,62.686000000000014 C 77.36000000000001,62.76600000000001 76.92000000000002,62.725000000000016 76.69400000000002,62.924000000000014 C 76.46300000000002,63.12700000000002 76.42900000000002,63.56500000000001 76.32500000000002,63.90600000000001 C 76.19500000000002,64.33800000000001 76.13500000000002,64.80100000000002 75.94500000000002,65.20700000000001 C 75.92500000000003,65.24900000000001 75.90200000000002,65.284 75.88200000000002,65.32300000000001 C 75.76800000000001,66.638 75.35800000000002,68.36800000000001 74.22300000000001,68.84500000000001 C 73.66700000000002,69.08100000000002 73.10400000000001,69.09700000000001 72.68900000000001,68.97200000000001 C 71.137,68.51100000000001 70.44600000000001,67.28800000000001 70.161,65.84 C 69.674,63.846000000000004 70.19200000000001,60.31100000000001 69.386,58.319 C 69.902,58.268 70.411,58.249 70.91,58.163000000000004 C 71.323,58.091 71.721,57.93600000000001 72.127,57.823 C 73.125,57.542 74.082,57.807 74.97999999999999,58.173 C 76.05499999999999,58.611000000000004 77.12499999999999,59.105000000000004 78.088,59.737 C 78.695,60.135000000000005 79.19699999999999,60.077000000000005 79.80499999999999,59.95 C 80.42699999999999,59.821000000000005 80.90299999999999,59.565000000000005 81.29899999999999,59.040000000000006 C 82.26799999999999,57.73700000000001 83.52799999999999,56.77 85.00299999999999,56.089000000000006 C 85.10699999999999,56.04200000000001 86.41899999999998,55.540000000000006 86.42399999999999,55.538000000000004 C 85.85799999999999,54.885000000000005 85.285,54.234 84.81599999999999,53.511 C 84.344,52.788000000000004 84.29399999999998,52.911 85.00499999999998,52.648 C 85.90299999999998,52.312000000000005 86.04899999999998,52.378 87.14999999999998,52.787000000000006 C 88.02699999999997,53.11300000000001 88.10199999999998,53.168000000000006 89.29199999999997,53.291000000000004 C 89.61399999999998,53.324000000000005 89.79599999999998,53.398 89.94299999999997,52.824000000000005 C 90.08199999999997,52.303000000000004 90.34999999999997,51.953 89.69299999999997,51.59700000000001 C 89.14999999999996,51.30200000000001 89.14099999999996,51.29100000000001 88.70899999999997,51.025000000000006 C 88.71899999999998,51.026 88.72799999999998,51.026 88.73699999999998,51.02700000000001 C 87.66399999999999,50.418000000000006 87.12099999999998,50.150000000000006 85.88299999999998,50.495000000000005 C 85.64299999999999,50.562000000000005 85.31999999999998,50.633 84.84999999999998,50.641000000000005 C 84.34399999999998,50.650000000000006 83.72199999999998,50.682 83.35399999999998,50.385000000000005 C 83.23899999999999,50.24400000000001 83.15899999999999,50.053000000000004 83.08499999999998,49.75900000000001 C 82.97899999999998,49.330000000000005 82.86899999999999,48.90200000000001 82.76399999999998,48.47200000000001 C 82.76599999999998,48.47700000000001 82.77099999999999,48.48300000000001 82.77299999999998,48.48800000000001 C 82.77299999999998,48.48800000000001 82.64399999999998,47.748000000000005 82.45899999999999,47.24900000000001 C 82.30199999999999,46.61800000000001 82.15099999999998,45.98600000000001 81.98599999999999,45.357000000000006 C 81.91699999999999,45.09 81.73299999999999,44.85300000000001 81.57,44.540000000000006 C 81.595,44.36200000000001 81.65199999999999,44.09 81.66,43.81600000000001 C 81.681,43.12900000000001 82.194,42.30400000000001 80.596,42.81900000000001 C 80.10300000000001,42.97700000000001 79.742,42.72800000000001 79.34700000000001,42.55200000000001 C 78.909,42.35900000000001 78.48100000000001,42.14500000000001 78.036,41.976000000000006 C 76.653,41.449000000000005 75.238,40.99900000000001 73.885,40.40500000000001 C 73.697,40.32200000000001 73.51100000000001,40.23100000000001 73.322,40.14600000000001 C 73.57300000000001,40.26700000000001 73.753,40.351000000000006 73.83500000000001,40.38600000000001 C 74.048,40.47700000000001 74.683,40.74200000000001 74.683,40.74200000000001 C 73.932,40.52500000000001 72.56400000000001,40.204000000000015 71.81,39.98000000000001 C 70.754,39.66600000000001 69.712,39.29800000000001 68.639,39.04500000000001 C 68.142,38.92600000000001 67.595,39.02400000000001 67.032,39.02400000000001 C 66.996,39.571000000000005 66.842,40.01100000000001 66.99199999999999,40.287000000000006 C 67.124,40.532000000000004 67.59599999999999,40.593 67.913,40.73800000000001 C 68.119,40.83200000000001 68.324,40.931000000000004 68.645,41.08500000000001 C 68.14399999999999,41.11100000000001 67.77,41.13000000000001 67.34599999999999,41.15200000000001 C 67.53799999999998,42.06400000000001 67.56799999999998,42.93900000000001 67.18999999999998,43.757000000000005 C 66.83599999999998,44.535000000000004 66.40699999999998,45.282000000000004 65.96599999999998,46.12800000000001 C 66.50499999999998,46.34000000000001 67.70099999999998,46.894000000000005 67.69499999999998,46.93200000000001 C 67.38399999999997,46.89600000000001 67.07599999999998,46.85600000000001 66.76599999999998,46.82600000000001 C 66.26299999999998,46.77900000000001 66.20099999999998,46.93500000000001 66.03699999999998,47.39900000000001 C 65.73799999999997,48.25900000000001 65.32499999999997,49.08100000000001 64.96399999999998,49.92100000000001 C 64.91199999999998,50.043000000000006 64.81199999999998,50.214000000000006 64.85799999999999,50.290000000000006 C 64.91499999999999,50.39000000000001 65.67199999999998,50.54200000000001 65.883,50.66700000000001 C 65.619,50.71200000000001 65.35499999999999,50.75500000000001 65.023,50.81100000000001 C 65.179,51.36500000000001 65.32,51.87700000000001 65.478,52.38300000000001 C 65.50099999999999,52.45300000000001 65.63,52.51200000000001 65.71799999999999,52.53500000000001 C 66.15999999999998,52.65000000000001 66.30899999999998,52.95300000000001 66.29599999999999,53.37900000000001 C 66.28099999999999,53.74000000000001 66.30699999999999,54.10200000000001 66.28299999999999,54.46100000000001 C 66.23499999999999,55.22300000000001 66.16399999999999,55.98200000000001 66.10099999999998,56.774000000000015 C 65.71699999999998,56.69600000000001 65.58099999999999,56.70000000000002 65.21399999999998,56.594000000000015 C 65.10299999999998,56.56300000000002 64.50399999999999,56.44600000000001 64.48099999999998,56.33000000000001 C 64.40199999999999,55.963000000000015 64.38899999999998,55.326000000000015 64.38099999999999,54.94900000000001 C 64.35999999999999,53.863000000000014 64.41199999999999,53.53100000000001 64.34499999999998,52.69700000000001 C 64.45999999999998,52.63800000000001 64.61499999999998,52.55600000000001 64.78199999999998,52.47000000000001 C 64.53399999999998,51.69300000000001 64.30799999999998,50.92800000000001 64.04099999999998,50.179000000000016 C 63.92199999999998,49.84800000000001 64.00599999999999,49.59600000000002 64.22699999999999,49.38600000000002 C 64.856,48.792000000000016 65.04099999999998,48.03200000000002 65.16499999999999,47.213000000000015 C 65.255,46.63600000000002 65.11899999999999,46.16300000000002 64.856,45.81500000000001 C 65.146,45.335000000000015 65.434,44.94600000000001 65.63,44.51600000000001 C 65.973,43.76700000000001 66.655,42.59500000000001 66.476,41.42200000000001 C 66.382,40.80100000000001 66.133,40.21000000000001 66.027,39.59400000000001 C 65.973,39.27100000000001 66.065,38.92200000000001 66.092,38.59600000000001 C 66.758,38.47300000000001 67.384,38.35800000000001 68.008,38.244000000000014 C 68.023,38.204000000000015 68.035,38.16600000000001 68.048,38.12700000000002 C 67.912,38.03400000000001 67.78,37.930000000000014 67.634,37.85400000000001 C 63.273,35.549000000000014 58.601,33.34900000000001 54.107,31.070000000000014 C 50.835,29.410000000000014 48.001999999999995,27.867000000000015 44.753,26.162000000000013 C 43.444,25.475000000000012 42.931,25.161000000000012 40.769,23.98900000000001 C 39.141999999999996,23.10700000000001 37.533,22.272000000000013 35.405,21.18900000000001 C 34.366,20.661000000000012 33.261,19.955000000000013 31.094,18.85500000000001 C 29.388,17.98900000000001 27.679000000000002,17.13000000000001 25.978,16.25900000000001 C 24.669,15.59000000000001 23.374000000000002,14.900000000000011 22.067,14.22800000000001 C 19.927,13.12600000000001 16.198999999999998,10.85700000000001 14.501999999999999,10.85400000000001 C 13.578,10.85400000000001 12.998,11.15900000000001 12.343,11.70100000000001 C 11.805,12.14500000000001 11.574,12.67700000000001 11.235,13.212000000000009 C 12.065,13.60500000000001 14.168,14.41300000000001 14.889999999999999,14.760000000000009 C 16.497999999999998,15.533000000000008 18.207,16.309000000000008 19.805,17.10600000000001 C 21.03,17.71700000000001 22.432,18.326000000000008 23.659,18.934000000000008 C 25.454,19.823000000000008 25.906,20.018000000000008 27.711,20.88600000000001 C 29.305999999999997,21.65500000000001 30.038999999999998,21.75600000000001 31.631999999999998,22.53000000000001 C 32.943,23.166000000000007 34.253,23.806000000000008 35.562,24.44600000000001 C 36.857,25.079000000000008 38.153999999999996,25.71200000000001 39.446999999999996,26.352000000000007 C 40.385,26.81500000000001 41.31399999999999,27.294000000000008 42.251999999999995,27.758000000000006 C 43.455,28.354000000000006 44.66,28.943000000000005 45.86299999999999,29.534000000000006 C 47.03999999999999,30.112000000000005 48.21499999999999,30.689000000000007 49.38999999999999,31.266000000000005 C 50.608999999999995,31.866000000000007 51.82899999999999,32.465 53.04899999999999,33.065000000000005 C 54.28399999999999,33.672000000000004 55.51899999999999,34.279 56.74999999999999,34.886 C 57.93999999999999,35.472 59.132999999999996,36.057 60.31999999999999,36.643 C 61.465999999999994,37.208 62.614999999999995,37.768 63.75699999999999,38.341 C 64.252,38.591 64.76199999999999,38.827 65.204,39.154 C 65.37899999999999,39.285000000000004 65.386,39.642 65.47099999999999,39.895 C 65.42799999999998,39.923 64.076,39.435 63.44699999999999,39.157000000000004 C 59.685999999999986,37.49400000000001 55.92499999999999,35.826 52.16299999999999,34.166000000000004 C 47.19399999999999,31.976000000000003 42.22399999999999,29.790000000000003 37.25399999999999,27.603000000000005 C 32.81199999999999,25.648000000000003 28.37099999999999,23.690000000000005 23.926999999999992,21.739000000000004 C 20.764999999999993,20.350000000000005 17.605999999999995,18.951000000000004 14.425999999999993,17.597000000000005 C 13.597999999999994,17.243000000000006 12.761999999999993,17.269000000000005 11.982999999999993,17.897000000000006 C 10.822999999999993,18.834000000000007 9.947999999999993,19.983000000000004 9.214999999999993,21.263000000000005 C 9.026999999999992,21.589000000000006 8.780999999999993,21.881000000000004 8.591999999999993,22.204000000000004 C 8.254999999999994,22.780000000000005 7.587999999999994,22.805000000000003 7.089999999999994,23.108000000000004 C 6.972999999999994,23.179000000000006 6.710999999999993,23.009000000000004 6.5149999999999935,22.912000000000003 C 7.406999999999994,22.683000000000003 7.847999999999994,22.006000000000004 8.218999999999994,21.283 C 8.581999999999994,20.575000000000003 8.899999999999995,19.843 9.216999999999993,19.112000000000002 C 9.982999999999993,17.354000000000003 10.050999999999993,16.19 10.246999999999993,14.290000000000003 C 10.288999999999993,13.892000000000003 10.008999999999993,13.184000000000003 9.900999999999993,12.783000000000003 C 10.114999999999993,12.582000000000003 10.830999999999992,11.929000000000004 11.100999999999992,11.656000000000002 C 11.529999999999992,11.224000000000002 12.518999999999991,10.287000000000003 12.746999999999993,9.718000000000002 C 13.095999999999993,8.843000000000002 13.614999999999993,8.508000000000003 14.475999999999992,8.908000000000001 C 15.454999999999991,9.366000000000001 16.412999999999993,9.870000000000001 17.37399999999999,10.365000000000002 C 18.725999999999992,11.060000000000002 20.072999999999993,11.761000000000003 21.41899999999999,12.468000000000002 C 22.43999999999999,13.007000000000001 23.45899999999999,13.559000000000001 24.47499999999999,14.111000000000002 C 25.80099999999999,14.831000000000003 27.12199999999999,15.562000000000003 28.446999999999992,16.283 C 29.522999999999993,16.868000000000002 30.60599999999999,17.442 31.67899999999999,18.03 C 32.81599999999999,18.652 33.94699999999999,19.284000000000002 35.07899999999999,19.908 C 35.187999999999995,19.968 35.36099999999999,20.033 35.62799999999999,20.138 C 35.501999999999995,19.970000000000002 35.147999999999996,19.694000000000003 34.93599999999999,19.485000000000003 C 35.21999999999999,19.736000000000004 34.95099999999999,19.319000000000003 34.449999999999996,18.845000000000002 C 34.54599999999999,18.915000000000003 34.641,18.985000000000003 34.729,19.055000000000003 C 34.719,19.047000000000004 34.711,19.037000000000003 34.701,19.030000000000005 C 34.614,18.965000000000003 34.527,18.900000000000006 34.44,18.835000000000004 C 34.346,18.747000000000003 34.245999999999995,18.657000000000004 34.138999999999996,18.569000000000003 C 29.692999999999998,14.938000000000002 25.012999999999998,11.603000000000002 20.445999999999998,8.125000000000002 C 19.261999999999997,7.223000000000002 18.166999999999998,6.123000000000002 16.726999999999997,5.667000000000002 C 16.655999999999995,5.645000000000001 16.604999999999997,5.639000000000002 16.538999999999998,5.621000000000001 C 16.473999999999997,5.601000000000002 16.407999999999998,5.575000000000001 16.342999999999996,5.564000000000001 C 16.329999999999995,5.562000000000001 16.313999999999997,5.564000000000001 16.299999999999997,5.562000000000001 C 15.632999999999997,5.416000000000001 15.229999999999997,5.505000000000001 14.865999999999998,5.761000000000001 C 14.003999999999998,6.368000000000001 13.581999999999997,7.331000000000001 13.091999999999999,8.211000000000002 C 13.009999999999998,8.329000000000002 12.927,8.448000000000002 12.838999999999999,8.580000000000002 C 12.509999999999998,9.073000000000002 11.28,10.973000000000003 10.107999999999999,11.845000000000002 C 9.732999999999999,12.123000000000003 9.546,12.459000000000003 9.187999999999999,12.654000000000002 C 8.668999999999999,12.935000000000002 8.344999999999999,13.152000000000001 8.014,13.466000000000001 C 7.406999999999999,14.042000000000002 6.601999999999999,15.56 6.145,16.804000000000002 C 5.726999999999999,17.94 5.428,19.793000000000003 5.452,20.681 C 5.466,21.242 5.599,22.043 5.852,22.447000000000003 C 5.997,22.677000000000003 6.17,22.764000000000003 6.482,22.902 C 7.112,23.18 7.149,23.299 6.87,23.939 C 6.194,24.92 5.9190000000000005,25.988 5.741,27.291 C 5.739999999999999,27.306 5.741,27.331 5.741,27.35 C 5.699,27.734 5.704,28.124000000000002 5.792,28.525000000000002 C 5.84,28.744000000000003 6.028,29.000000000000004 6.224,29.105 C 6.699,29.361 7.2010000000000005,29.639 7.723000000000001,29.726 C 8.624,29.877 8.760000000000002,30.477 8.792000000000002,31.201 C 8.794000000000002,31.234 8.790000000000001,31.266000000000002 8.786000000000001,31.299 C 8.759000000000002,31.639 8.96,31.762999999999998 9.254000000000001,31.81 C 9.394000000000002,31.833 11.010000000000002,32.461 11.692000000000002,32.702999999999996 C 14.015000000000002,33.520999999999994 44.838,44.369 45.99,44.76199999999999 C 46.119,44.80599999999999 46.221000000000004,44.86099999999999 46.305,44.931999999999995 C 46.302,44.916999999999994 46.298,44.90599999999999 46.295,44.891 C 46.574000000000005,44.873 46.856,44.881 47.125,44.827999999999996 C 47.306,44.79 47.51,44.702999999999996 47.631,44.57299999999999 C 48.103,44.056999999999995 48.091,44.04699999999999 48.844,43.98199999999999 C 48.903,44.08599999999999 49.006,44.193999999999996 49.024,44.31399999999999 C 49.172000000000004,45.39099999999999 50.116,45.376999999999995 50.844,45.65599999999999 C 51.089,45.74999999999999 51.329,45.85399999999999 51.575,45.94799999999999 C 53.646,46.742999999999995 55.72,47.535999999999994 57.791000000000004,48.333999999999996 C 59.693000000000005,49.065999999999995 61.597,49.794999999999995 63.493,50.544999999999995 C 63.647000000000006,50.605999999999995 63.824000000000005,50.791 63.853,50.94499999999999 C 63.924,51.306999999999995 63.910000000000004,51.681999999999995 63.937000000000005,52.19199999999999 C 63.394000000000005,51.99099999999999 62.983000000000004,51.849999999999994 62.580000000000005,51.687999999999995 C 61.595000000000006,51.285999999999994 60.615,50.870999999999995 59.633,50.47299999999999 C 58.252,49.91799999999999 56.870000000000005,49.37799999999999 55.492000000000004,48.82599999999999 C 53.916000000000004,48.19599999999999 52.34100000000001,47.55499999999999 50.766000000000005,46.92099999999999 C 50.040000000000006,46.62899999999999 49.316,46.33599999999999 48.587,46.053999999999995 C 48.476000000000006,46.01199999999999 48.327000000000005,45.977999999999994 48.225,46.016 C 47.672000000000004,46.224 47.253,46.248999999999995 46.941,46.077 C 47.036,46.149 47.141000000000005,46.213 47.265,46.260999999999996 C 49.634,47.19199999999999 51.998,48.13699999999999 54.367000000000004,49.07599999999999 C 56.261,49.82699999999999 58.156000000000006,50.571999999999996 60.04600000000001,51.32999999999999 C 60.793000000000006,51.63099999999999 61.53600000000001,51.93899999999999 62.26800000000001,52.282999999999994 C 62.418000000000006,52.355 62.58200000000001,52.58599999999999 62.589000000000006,52.74999999999999 C 62.639,54.06399999999999 62.648,55.38099999999999 62.69200000000001,56.696999999999996 C 62.696000000000005,56.836 62.815000000000005,57.038999999999994 62.93600000000001,57.101 C 64.05900000000001,57.683 65.18400000000001,58.265 66.33200000000001,58.794 C 66.76700000000001,58.992999999999995 66.99600000000001,59.236999999999995 66.96100000000001,59.711999999999996 C 66.76300000000002,62.477999999999994 67.05900000000001,65.982 67.53200000000001,67.02499999999999 C 68.561,69.29799999999999 69.28200000000001,70.35699999999999 73.17600000000002,70.541 C 73.27400000000002,70.54599999999999 73.43000000000002,70.53999999999999 73.60900000000002,70.52799999999999 C 76.618,69.574 77.678,67.92 78.227,66.643 M 46.492,44.003 C 46.096999999999994,43.93 45.684999999999995,43.911 45.312,43.78 C 39.943,41.897 34.581999999999994,39.997 29.215999999999998,38.108000000000004 C 25.430999999999997,36.775000000000006 21.641,35.458000000000006 17.860999999999997,34.118 C 15.926999999999998,33.433 14.007999999999997,32.708000000000006 12.079999999999998,32.014 C 11.418999999999999,31.777000000000005 10.744999999999997,31.577 10.075,31.366000000000003 C 9.735999999999999,31.259000000000004 9.450999999999999,31.164 9.614999999999998,30.757000000000005 C 9.631999999999998,30.715000000000003 9.688999999999998,30.326000000000004 9.692999999999998,30.277000000000005 C 9.778999999999998,29.255000000000006 9.747999999999998,29.546000000000003 10.751999999999997,29.922000000000004 C 13.043999999999997,30.781000000000006 15.346999999999998,31.612000000000005 17.641,32.467000000000006 C 18.456,32.77100000000001 19.252,33.126000000000005 20.067,33.435 C 21.764,34.076 23.47,34.691 25.167,35.332 C 28.735000000000003,36.682 32.299,38.044000000000004 35.864000000000004,39.399 C 38.861000000000004,40.54 41.858000000000004,41.677 44.85600000000001,42.817 C 45.27000000000001,42.975 45.69400000000001,43.117 46.09100000000001,43.315 C 46.29500000000001,43.416999999999994 46.44500000000001,43.625 46.62200000000001,43.785 C 46.58,43.856 46.535,43.929 46.492,44.003 M 63.581,48.637 C 62.846000000000004,48.533 62.101000000000006,48.442 61.391000000000005,48.241 C 60.688,48.042 60.028000000000006,47.704 59.33800000000001,47.453 C 58.10500000000001,47.002 56.864000000000004,46.575 55.62800000000001,46.131 C 55.108000000000004,45.944 54.59100000000001,45.745 54.07500000000001,45.545 C 53.37900000000001,45.274 52.68300000000001,44.992000000000004 51.98600000000001,44.719 C 51.41000000000001,44.494 50.83000000000001,44.273 50.25200000000001,44.053000000000004 C 49.87700000000001,43.912000000000006 49.86800000000001,43.702000000000005 50.11900000000001,43.42700000000001 C 50.272000000000006,43.25900000000001 50.428000000000004,43.09 50.55700000000001,42.90200000000001 C 50.81000000000001,42.522000000000006 50.70200000000001,42.223000000000006 50.29600000000001,42.06600000000001 C 49.578,41.78900000000001 48.87200000000001,41.48100000000001 48.150000000000006,41.21500000000001 C 47.48400000000001,40.97000000000001 46.79500000000001,40.78800000000001 46.133,40.53300000000001 C 43.587,39.55100000000001 41.048,38.55400000000001 38.509,37.55500000000001 C 37.684,37.23100000000001 36.87,36.87400000000001 36.042,36.55800000000001 C 33.589,35.62100000000001 31.122,34.72500000000001 28.678,33.76400000000001 C 24.086000000000002,31.95900000000001 19.507,30.12200000000001 14.923,28.29700000000001 C 13.566,27.75500000000001 12.216000000000001,27.196000000000012 10.857,26.66000000000001 C 10.110999999999999,26.36500000000001 9.501999999999999,26.54000000000001 8.972,27.17500000000001 C 8.584999999999999,27.63700000000001 8.115,28.033000000000012 7.6499999999999995,28.423000000000012 C 7.435,28.60500000000001 7.148,28.700000000000014 6.893,28.834000000000014 C 6.859,28.799000000000014 6.826,28.764000000000014 6.79,28.730000000000015 C 8.123,27.101000000000013 8.591,25.226000000000013 8.465,23.181000000000015 C 8.981,23.617000000000015 9.515,24.094000000000015 10.077,24.533000000000015 C 10.357,24.752000000000017 10.675,24.940000000000015 11.002,25.077000000000016 C 15.314,26.871000000000016 19.625,28.669000000000015 23.948,30.438000000000017 C 28.740000000000002,32.399000000000015 33.548,34.32500000000002 38.344,36.28100000000002 C 42.607,38.02100000000002 46.864000000000004,39.78000000000002 51.120000000000005,41.53500000000002 C 51.80800000000001,41.81800000000002 51.80200000000001,41.83000000000002 51.653000000000006,42.56800000000002 C 51.55500000000001,43.048000000000016 51.891000000000005,43.74400000000002 52.355000000000004,43.91600000000002 C 54.36000000000001,44.65700000000002 56.373000000000005,45.38100000000002 58.38,46.10800000000002 C 60.145,46.746000000000016 61.913000000000004,47.37200000000002 63.67100000000001,48.02500000000002 C 63.815000000000005,48.07800000000002 63.900000000000006,48.29000000000002 64.013,48.42800000000002 C 63.869,48.502 63.712,48.655 63.581,48.637 M 72.484,43.007 C 72.78699999999999,43.150999999999996 76.55,44.878 78.29499999999999,45.967999999999996 C 78.27199999999999,46.010999999999996 74.86999999999999,44.617999999999995 74.05399999999999,44.400999999999996 C 73.66599999999998,44.297999999999995 73.17099999999999,44.309 72.48499999999999,44.488 C 72.695,44.075 72.714,43.374 72.484,43.007 M 72.633,44.923 C 74.92099999999999,45.89 76.637,46.603 78.585,47.496 C 78.574,47.527 76.508,46.628 75.68299999999999,46.533 C 74.859,46.439 74.092,46.767 73.47,47.164 C 73.253,47.302 72.645,47.912 72.485,48.113 C 73.063,47.335 73.466,45.733 72.633,44.923 M 71.852,48.711 C 73.00200000000001,49.106 75.422,49.94 77.111,50.524 C 74.057,50.135 73.043,50.374 70.821,51.956 C 71.923,50.836 72.116,49.203 71.852,48.711 M 71.152,42.887 C 71.496,43.015 71.622,43.314 71.503,43.695 C 71.355,44.171 71.125,44.599000000000004 70.58,44.737 C 70.58,44.67 70.954,43.46 71.152,42.887 M 71.144,45.787 C 71.257,45.699 71.497,45.68 71.632,45.737 C 71.756,45.791000000000004 71.819,45.882000000000005 71.852,46.058 C 71.923,46.42 71.626,47.362 71.01,47.659 C 70.647,47.833 70.415,47.711 70.424,47.31 C 70.436,46.711 70.659,46.168 71.144,45.787 M 69.19,50.364 C 69.288,49.921 69.707,49.165 69.81,49.019999999999996 C 69.914,48.873 70.167,48.748999999999995 70.331,48.812 C 70.49300000000001,48.873999999999995 70.548,49.107 70.531,49.346 C 70.50200000000001,49.781 70.289,50.385 69.882,50.757 C 69.772,50.86 69.528,51.032 69.366,50.952999999999996 C 69.203,50.874 69.137,50.615 69.19,50.364 M 67.517,54.814 C 66.822,54.644 66.62899999999999,54.353 66.81099999999999,53.388 C 68.576,54.036 70.30999999999999,54.647999999999996 72.029,55.309999999999995 C 73.62899999999999,55.92099999999999 75.194,56.605 76.791,57.21999999999999 C 77.399,57.45599999999999 78.04599999999999,57.602999999999994 78.68299999999999,57.75899999999999 C 79.08,57.852999999999994 79.205,58.07899999999999 79.178,58.510999999999996 C 79.024,58.48799999999999 78.88199999999999,58.483999999999995 78.752,58.443 C 76.664,57.791 74.574,57.146 72.49499999999999,56.471999999999994 C 71.79799999999999,56.24699999999999 71.13999999999999,55.901999999999994 70.43999999999998,55.67099999999999 C 69.475,55.352 68.504,55.057 67.517,54.814"/>
</svg>
