<?xml version="1.0" ?>
<svg xmlns="http://www.w3.org/2000/svg" xmlns:ev="http://www.w3.org/2001/xml-events" xmlns:xlink="http://www.w3.org/1999/xlink" baseProfile="full" enable-background="new 0 0 100 100" height="600px" version="1.1" viewBox="0 0 100 100" width="594px" x="0px" xml:space="preserve" y="0px">
	<defs/>
	<path d="M 2.871,12.253 L 10.212,12.253 L 10.212,88.655 L 2.871,88.655 L 2.871,12.253 M 25.947,36.744 C 24.616,37.462 23.713,38.844 23.713,40.653 L 23.713,55.355999999999995 C 23.713,57.148999999999994 24.627000000000002,58.529999999999994 25.947000000000003,59.251999999999995 L 25.947000000000003,36.744 L 25.947,36.744 M 25.947,14.816 L 25.947,17.936 L 21.473,17.936 L 21.473,82.97399999999999 L 25.947,82.97399999999999 L 25.947,86.09499999999998 L 18.347,86.09499999999998 L 18.347,14.816 L 25.947,14.816 M 27.725,36.198 L 27.729000000000003,36.198 L 27.725,36.198 M 27.725,59.811 L 27.729000000000003,59.811 L 27.725,59.811 M 25.947,59.252 L 25.947,36.744 C 26.608,36.392 27.369999999999997,36.199 28.182,36.199 L 28.182,59.81099999999999 C 27.376,59.811 26.612,59.617 25.947,59.252 M 32.808,86.095 L 25.948999999999998,86.095 L 25.948999999999998,82.974 L 32.808,82.974 L 32.808,86.095 M 32.808,80.48 L 29.971,80.48 L 29.971,56.871 L 32.808,56.871 L 32.808,80.48 M 32.808,54.642 L 29.971,54.642 L 29.971,36.2 L 32.808,36.2 L 32.808,54.642 M 32.808,21.608 L 32.808,33.683 C 30.832,32.394 29.524,30.166 29.524,27.647 C 29.524,25.126 30.832,22.9 32.808,21.608 M 32.808,17.936 L 25.948999999999998,17.936 L 25.948999999999998,14.818 L 32.808,14.818 L 32.808,17.936 M 32.808,56.871 L 35.644,56.871 L 35.644,80.48 L 32.808,80.48 L 32.808,56.871 M 36.763,86.095 L 32.808,86.095 L 32.808,82.974 L 36.763,82.974 L 36.763,86.095 M 36.763,54.642 L 32.808,54.642 L 32.808,36.2 L 36.763,36.2 L 36.763,54.642 M 36.763,20.43 L 36.763,34.861 C 35.306,34.861 33.945,34.431 32.808,33.683 L 32.808,21.608 C 33.945,20.865 35.306,20.43 36.763,20.43 M 36.763,17.936 L 32.808,17.936 L 32.808,14.818 L 36.763,14.818 L 36.763,17.936 M 40.712,86.095 L 36.763000000000005,86.095 L 36.763000000000005,82.974 L 40.712,82.974 L 40.712,86.095 M 40.712,80.48 L 37.873000000000005,80.48 L 37.873000000000005,56.871 L 40.712,56.871 L 40.712,80.48 M 40.712,54.642 L 36.763000000000005,54.642 L 36.763000000000005,36.2 L 40.712,36.2 L 40.712,54.642 M 40.712,21.603 L 40.712,33.687 C 39.576,34.431 38.218,34.861 36.763000000000005,34.861 L 36.763000000000005,20.43 C 38.218,20.43 39.576,20.862 40.712,21.603 M 40.712,17.936 L 36.763000000000005,17.936 L 36.763000000000005,14.818 L 40.712,14.818 L 40.712,17.936 M 44.881,36.198 L 44.885,36.198 L 44.881,36.198 M 44.881,59.811 L 44.885,59.811 L 44.881,59.811 M 40.712,33.687 L 40.712,21.603 C 42.691,22.896 44.004000000000005,25.124000000000002 44.004000000000005,27.647000000000002 C 44.003,30.171 42.691,32.398 40.712,33.687 M 40.712,36.198 L 43.550000000000004,36.198 L 43.550000000000004,54.641000000000005 L 40.712,54.641000000000005 L 40.712,36.198 M 40.712,56.871 L 43.550000000000004,56.871 L 43.550000000000004,80.48 L 40.712,80.48 L 40.712,56.871 M 47.571,88.644 L 47.571,93.79100000000001 L 47.335,93.38300000000001 L 44.6,88.644 L 47.571,88.644 M 47.571,86.095 L 40.711999999999996,86.095 L 40.711999999999996,82.974 L 47.571,82.974 L 47.571,86.095 M 47.571,17.936 L 40.711999999999996,17.936 L 40.711999999999996,14.818 L 47.571,14.818 L 47.571,17.936 M 47.571,7.059 L 47.571,12.219000000000001 L 44.589999999999996,12.219000000000001 L 47.571,7.059 M 45.337,59.811 C 46.143,59.811 46.907000000000004,59.618 47.571000000000005,59.252 L 47.571000000000005,36.744 C 46.91100000000001,36.392 46.147000000000006,36.199 45.337,36.199 L 45.337,59.811 M 63.368,82.974 L 63.368,86.095 L 52.115,86.095 L 52.115,88.644 L 55.543,88.644 L 52.808,93.38300000000001 L 50.071,98.12400000000001 L 47.571,93.79100000000001 L 47.571,88.644 L 48.010999999999996,88.644 L 48.010999999999996,86.095 L 47.571,86.095 L 47.571,82.974 L 63.368,82.974 M 63.368,59.811 L 63.368,80.481 L 52.645,80.481 L 58.004000000000005,59.81099999999999 L 63.368,59.81099999999999 L 63.368,59.811 M 63.368,36.71 L 63.368,57.504000000000005 L 57.056000000000004,57.504000000000005 L 57.056000000000004,44.918 C 56.336000000000006,44.918 55.70100000000001,45.403 55.70100000000001,46.268 L 55.70100000000001,59.743 C 52.80500000000001,57.459 50.72200000000001,54.205 50.58700000000001,49.851 C 50.36400000000001,42.609 56.09600000000001,36.71 63.36500000000001,36.71 L 63.368,36.71 M 63.368,20.43 L 63.368,34.861 C 59.382000000000005,34.861 56.129000000000005,31.621999999999996 56.129000000000005,27.647999999999996 C 56.129,23.671 59.382,20.43 63.368,20.43 M 63.368,14.816 L 63.368,17.936 L 47.571,17.936 L 47.571,14.815999999999999 L 48.010999999999996,14.815999999999999 L 48.010999999999996,12.219 L 47.571,12.219 L 47.571,7.058999999999999 L 50.064,2.7409999999999997 L 55.537,12.219999999999999 L 52.115,12.219999999999999 L 52.115,14.816999999999998 L 63.368,14.816999999999998 L 63.368,14.816 M 47.571,59.252 C 48.891,58.529 49.803999999999995,57.148 49.803999999999995,55.356 L 49.803999999999995,40.653 C 49.803999999999995,38.842999999999996 48.900999999999996,37.461999999999996 47.571,36.744 L 47.571,59.252 M 89.916,12.253 L 97.256,12.253 L 97.256,88.655 L 89.916,88.655 L 89.916,12.253 M 70.075,44.665 L 70.07900000000001,44.665 L 70.075,44.665 M 63.368,34.861 C 67.35600000000001,34.861 70.60900000000001,31.621999999999996 70.60900000000001,27.647999999999996 C 70.60900000000001,23.670999999999996 67.35600000000001,20.430999999999997 63.36800000000001,20.430999999999997 L 63.36800000000001,34.861 L 63.368,34.861 M 63.368,57.505 L 69.678,57.505 L 69.678,44.918 C 70.38199999999999,44.918 71.03099999999999,45.403 71.03099999999999,46.268 L 71.03099999999999,59.743 C 74.13799999999999,57.287 76.00699999999999,54.146 76.14699999999999,49.851 C 76.377,42.609 70.63799999999999,36.712 63.36899999999999,36.71 L 63.36899999999999,57.505 L 63.368,57.505 M 63.368,80.48 L 74.08800000000001,80.48 L 68.72800000000001,59.81 L 63.36900000000001,59.81 L 63.36900000000001,80.48 L 63.368,80.48 M 63.368,86.095 L 63.368,82.974 L 78.653,82.974 L 78.653,17.936 L 63.368,17.936 L 63.368,14.815999999999999 L 81.781,14.815999999999999 L 81.781,86.095 L 63.368,86.095" fill="#000000"/>
</svg>
