<?xml version="1.0" ?>
<svg xmlns="http://www.w3.org/2000/svg" xmlns:ev="http://www.w3.org/2001/xml-events" xmlns:xlink="http://www.w3.org/1999/xlink" baseProfile="full" enable-background="new 0 0 100 100" height="574px" version="1.1" viewBox="0 0 100 100" width="600px" x="0px" xml:space="preserve" y="0px">
	<defs/>
	<path d="M 21.594,47.688 C 20.893,47.388000000000005 20.094,47.208000000000006 19.332,47.208000000000006 C 18.572,47.208000000000006 17.812,47.36900000000001 17.091,47.650000000000006 C 14.850000000000001,48.54900000000001 13.749,50.449000000000005 13.749,52.83200000000001 L 13.749,56.95300000000001 C 13.749,59.31600000000001 14.870000000000001,61.19700000000001 17.071,62.11700000000001 C 17.791,62.41900000000001 18.551000000000002,62.57700000000001 19.332,62.57700000000001 C 20.173000000000002,62.57700000000001 21.013,62.39500000000001 21.773,62.03800000000001 C 23.855,61.07800000000001 24.794999999999998,59.17500000000001 24.794999999999998,56.95300000000001 L 24.794999999999998,52.83200000000001 C 24.795,50.511 23.755,48.63 21.594,47.688 M 21.013,57.056 C 21.013,58.214999999999996 20.633000000000003,59.254 19.272000000000002,59.254 C 17.971000000000004,59.254 17.531000000000002,58.193999999999996 17.531000000000002,57.056 L 17.531000000000002,52.733 C 17.531000000000002,51.611 17.971000000000004,50.531 19.272000000000002,50.531 C 20.633000000000003,50.531 21.013,51.571 21.013,52.733 L 21.013,57.056"/>
	<path d="M 95.278,47.688 C 94.578,47.388000000000005 93.777,47.208000000000006 93.01700000000001,47.208000000000006 C 92.25700000000002,47.208000000000006 91.49600000000001,47.36900000000001 90.775,47.650000000000006 C 88.534,48.54900000000001 87.43400000000001,50.449000000000005 87.43400000000001,52.83200000000001 L 87.43400000000001,56.95300000000001 C 87.43400000000001,59.31600000000001 88.555,61.19700000000001 90.75600000000001,62.11700000000001 C 91.47600000000001,62.41900000000001 92.23500000000001,62.57700000000001 93.01700000000001,62.57700000000001 C 93.85700000000001,62.57700000000001 94.69700000000002,62.39500000000001 95.45800000000001,62.03800000000001 C 97.54,61.07800000000001 98.47900000000001,59.17500000000001 98.47900000000001,56.95300000000001 L 98.47900000000001,52.83200000000001 C 98.479,50.511 97.438,48.63 95.278,47.688 M 94.697,57.056 C 94.697,58.214999999999996 94.31700000000001,59.254 92.956,59.254 C 91.655,59.254 91.217,58.193999999999996 91.217,57.056 L 91.217,52.733 C 91.217,51.611 91.655,50.531 92.956,50.531 C 94.31700000000001,50.531 94.697,51.571 94.697,52.733 L 94.697,57.056"/>
	<path d="M 72.482,82.571 C 71.781,82.273 70.982,82.092 70.221,82.092 C 69.459,82.092 68.699,82.251 67.98,82.532 C 65.739,83.432 64.63600000000001,85.333 64.63600000000001,87.713 L 64.63600000000001,91.83699999999999 C 64.63600000000001,94.19699999999999 65.75800000000001,96.08099999999999 67.959,97.00099999999999 C 68.678,97.3 69.43900000000001,97.46099999999998 70.221,97.46099999999998 C 71.062,97.46099999999998 71.90100000000001,97.27899999999998 72.66,96.91899999999998 C 74.74199999999999,95.95899999999999 75.682,94.05899999999998 75.682,91.83699999999999 L 75.682,87.713 C 75.684,85.393 74.644,83.515 72.482,82.571 M 71.901,91.937 C 71.901,93.099 71.52199999999999,94.13799999999999 70.16,94.13799999999999 C 68.86,94.13799999999999 68.42099999999999,93.07799999999999 68.42099999999999,91.937 L 68.42099999999999,87.61699999999999 C 68.42099999999999,86.49499999999999 68.85999999999999,85.413 70.16,85.413 C 71.52199999999999,85.413 71.901,86.456 71.901,87.61699999999999 L 71.901,91.937"/>
	<path d="M 8.228,65.324 C 7.527,65.023 6.727,64.845 5.965,64.845 C 5.205,64.845 4.445,65.003 3.726,65.28399999999999 C 1.484,66.184 0.383,68.085 0.383,70.469 L 0.383,74.58999999999999 C 0.383,76.94999999999999 1.504,78.83099999999999 3.705,79.75399999999999 C 4.426,80.05199999999999 5.186,80.21099999999998 5.965,80.21099999999998 C 6.8069999999999995,80.21099999999998 7.647,80.03199999999998 8.405999999999999,79.67199999999998 C 10.488,78.71099999999998 11.427999999999999,76.81199999999998 11.427999999999999,74.58999999999999 L 11.427999999999999,70.469 C 11.429,68.145 10.388,66.265 8.228,65.324 M 7.646,74.689 C 7.646,75.851 7.266,76.88999999999999 5.904999999999999,76.88999999999999 C 4.6049999999999995,76.88999999999999 4.164999999999999,75.82799999999999 4.164999999999999,74.689 L 4.164999999999999,70.36599999999999 C 4.164999999999999,69.24699999999999 4.6049999999999995,68.16799999999999 5.904999999999999,68.16799999999999 C 7.265999999999999,68.16799999999999 7.645999999999999,69.207 7.645999999999999,70.36599999999999 L 7.645999999999999,74.689 L 7.646,74.689"/>
	<path d="M 45.639,65.324 C 44.937000000000005,65.023 44.138000000000005,64.845 43.376000000000005,64.845 C 42.61600000000001,64.845 41.856,65.003 41.136,65.28399999999999 C 38.894000000000005,66.184 37.794000000000004,68.085 37.794000000000004,70.469 L 37.794000000000004,74.58999999999999 C 37.794000000000004,76.94999999999999 38.915000000000006,78.83099999999999 41.11600000000001,79.75399999999999 C 41.837,80.05199999999999 42.59700000000001,80.21099999999998 43.376000000000005,80.21099999999998 C 44.218,80.21099999999998 45.05800000000001,80.03199999999998 45.81700000000001,79.67199999999998 C 47.89900000000001,78.71099999999998 48.839000000000006,76.81199999999998 48.839000000000006,74.58999999999999 L 48.839000000000006,70.469 C 48.84,68.145 47.799,66.265 45.639,65.324 M 45.058,74.689 C 45.058,75.851 44.678,76.88999999999999 43.317,76.88999999999999 C 42.017,76.88999999999999 41.577,75.82799999999999 41.577,74.689 L 41.577,70.36599999999999 C 41.577,69.24699999999999 42.016999999999996,68.16799999999999 43.317,68.16799999999999 C 44.678,68.16799999999999 45.058,69.207 45.058,70.36599999999999 L 45.058,74.689"/>
	<path d="M 81.751,44.757 L 82.89,44.757999999999996 L 94.525,44.778999999999996 L 94.95,44.352 C 97.837,41.348 99.61800000000001,37.272999999999996 99.61800000000001,32.788999999999994 C 99.61800000000001,24.553999999999995 93.62500000000001,17.694999999999993 85.77600000000001,16.333999999999996 C 85.75900000000001,16.330999999999996 85.74300000000001,16.327999999999996 85.72500000000001,16.326999999999995 C 84.337,8.503 77.496,2.539 69.281,2.539 C 61.54200000000001,2.539 55.019000000000005,7.8309999999999995 53.13000000000001,14.985999999999999 C 50.26400000000001,12.677999999999999 46.62700000000001,11.291999999999998 42.67100000000001,11.291999999999998 C 34.352000000000004,11.291999999999998 27.435000000000006,17.406 26.172000000000008,25.377 C 23.556000000000008,23.674 20.43700000000001,22.68 17.089000000000006,22.68 C 7.878000000000005,22.68 0.3830000000000062,30.175 0.3830000000000062,39.385 C 0.3830000000000062,41.199 0.6770000000000063,42.946999999999996 1.215000000000006,44.582 L 1.216,44.6 L 1.222,44.6 L 7.007,44.61 L 27.150999999999996,44.65 L 32.93599999999999,44.661 L 40.85799999999999,44.678000000000004 L 41.76899999999999,44.679 C 42.06699999999999,44.695 42.36899999999999,44.703 42.67099999999999,44.703 L 42.67099999999999,44.679 L 44.48199999999999,44.683 C 44.495999999999995,44.68 44.510999999999996,44.679 44.52599999999999,44.677 L 50.636999999999986,44.693 C 51.195999999999984,46.126 51.95299999999999,47.457 52.86499999999999,48.668 C 51.73099999999999,49.689 51.16099999999999,51.134 51.16099999999999,52.832 L 51.16099999999999,56.953 C 51.16099999999999,59.316 52.28199999999999,61.197 54.48299999999999,62.117000000000004 C 55.20299999999999,62.419000000000004 55.96199999999999,62.577000000000005 56.74399999999999,62.577000000000005 C 57.584999999999994,62.577000000000005 58.425999999999995,62.395 59.184999999999995,62.038000000000004 C 61.266,61.078 62.205999999999996,59.175000000000004 62.205999999999996,56.953 L 62.205999999999996,54.865 C 62.995999999999995,55.06 63.80799999999999,55.195 64.637,55.273 L 64.637,56.953 C 64.637,59.316 65.759,61.197 67.96,62.117000000000004 C 68.67899999999999,62.419000000000004 69.44,62.577000000000005 70.222,62.577000000000005 C 71.06299999999999,62.577000000000005 71.902,62.395 72.661,62.038000000000004 C 74.743,61.078 75.683,59.175000000000004 75.683,56.953 L 75.683,52.395 C 76.43,51.878 77.128,51.298 77.781,50.67 L 81.015,50.67 L 81.015,62.298 L 84.798,62.298 L 84.798,47.49 L 80.357,47.49 C 80.898,46.626 81.373,45.717 81.751,44.757 M 30.471,39.438 L 28.45,39.435 L 5.729,39.39 C 5.729,39.389 5.729,39.386 5.729,39.383 C 5.729,33.118 10.826,28.021 17.09,28.021 C 21.383,28.021 25.125999999999998,30.417 27.057000000000002,33.937 C 27.048000000000002,33.912 27.039,33.885999999999996 27.031000000000002,33.858999999999995 C 27.817000000000004,35.949 29.012000000000004,37.840999999999994 30.518,39.43899999999999 L 30.471,39.43899999999999 L 30.471,39.438 M 58.425,57.056 C 58.425,58.214999999999996 58.044,59.254 56.684,59.254 C 55.382999999999996,59.254 54.943,58.193999999999996 54.943,57.056 L 54.943,52.733 C 54.943,52.196999999999996 55.047,51.674 55.294999999999995,51.269999999999996 C 56.251,52.098 57.3,52.81999999999999 58.425999999999995,53.416 L 58.425999999999995,57.056 L 58.425,57.056 M 71.901,57.056 C 71.901,58.214999999999996 71.52199999999999,59.254 70.16,59.254 C 68.86,59.254 68.42099999999999,58.193999999999996 68.42099999999999,57.056 L 68.42099999999999,55.198 C 69.627,55.038000000000004 70.791,54.747 71.901,54.343 L 71.901,57.056 M 66.208,50.005 C 60.223,50.005 55.312,45.358000000000004 54.879999999999995,39.484 C 54.879999999999995,39.484 54.879999999999995,39.484 54.879999999999995,39.481 C 54.876999999999995,39.46 54.873999999999995,39.441 54.873999999999995,39.42 L 49.519999999999996,39.409 C 49.520999999999994,39.429 49.522999999999996,39.451 49.525,39.473 L 42.083999999999996,39.455999999999996 C 36.090999999999994,39.144 31.309999999999995,34.059999999999995 31.309999999999995,27.991999999999997 C 31.310999999999996,21.732999999999997 36.407,16.637999999999998 42.672999999999995,16.637999999999998 C 48.937999999999995,16.637999999999998 54.03399999999999,21.732 54.03399999999999,27.997999999999998 L 59.37899999999999,27.997999999999998 C 59.37899999999999,27.685999999999996 59.36699999999999,27.377 59.35199999999999,27.070999999999998 C 59.34699999999999,26.982999999999997 59.33599999999999,26.892999999999997 59.33099999999999,26.807 C 59.31499999999999,26.584 59.29799999999999,26.360999999999997 59.27199999999999,26.139999999999997 C 59.26199999999999,26.057 59.25099999999999,25.976999999999997 59.24099999999999,25.895999999999997 C 59.209999999999994,25.653 59.17699999999999,25.412999999999997 59.135999999999996,25.174999999999997 C 59.129,25.132999999999996 59.12199999999999,25.092 59.11599999999999,25.051 C 58.962999999999994,24.218 58.75399999999999,23.404 58.483999999999995,22.615 L 57.925,19.243 C 57.925,12.977999999999998 63.019999999999996,7.8809999999999985 69.285,7.8809999999999985 C 74.567,7.8809999999999985 79.015,11.503999999999998 80.285,16.394999999999996 C 80.3,16.391999999999996 80.317,16.389999999999997 80.335,16.387999999999995 C 80.55499999999999,17.264999999999993 80.67299999999999,18.185999999999993 80.67299999999999,19.132999999999996 C 80.67299999999999,20.018999999999995 80.56799999999998,20.883999999999997 80.37299999999999,21.711999999999996 C 81.18799999999999,21.526999999999997 82.041,21.423999999999996 82.91499999999999,21.423999999999996 C 83.91199999999999,21.423999999999996 84.88099999999999,21.553999999999995 85.80199999999999,21.797999999999995 C 90.67299999999999,23.078999999999994 94.27499999999999,27.518999999999995 94.27499999999999,32.785 C 94.27499999999999,35.318999999999996 93.44,37.662 92.03099999999999,39.55499999999999 L 77.51899999999999,39.53699999999999 C 77.523,39.547999999999995 77.53099999999999,39.55899999999999 77.53399999999999,39.56999999999999 C 77.442,40.80799999999999 77.15599999999999,41.91 76.69699999999999,43.00699999999999 C 74.983,47.11 70.926,50.005 66.208,50.005"/>
	<path d="M 9.007,62.299 L 9.007,47.49 L 2.804,47.49 L 2.804,50.671 L 5.226,50.671 L 5.226,62.299 L 9.007,62.299" points="9.007,62.299 9.007,47.49 2.804,47.49 2.804,50.671 5.226,50.671 5.226,62.299  "/>
	<path d="M 27.707,50.671 L 30.128,50.671 L 30.128,62.299 L 33.91,62.299 L 33.91,47.49 L 27.707,47.49 L 27.707,50.671" points="27.707,50.671 30.128,50.671 30.128,62.299 33.91,62.299 33.91,47.49 27.707,47.49  "/>
	<path d="M 16.171,68.307 L 18.592,68.307 L 18.592,79.933 L 22.374,79.933 L 22.374,65.123 L 16.171,65.123 L 16.171,68.307" points="16.171,68.307 18.592,68.307 18.592,79.933 22.374,79.933 22.374,65.123 16.171,65.123  "/>
	<path d="M 16.171,85.554 L 18.592,85.554 L 18.592,97.18 L 22.374,97.18 L 22.374,82.37 L 16.171,82.37 L 16.171,85.554" points="16.171,85.554 18.592,85.554 18.592,97.18 22.374,97.18 22.374,82.37 16.171,82.37  "/>
	<path d="M 27.707,68.307 L 30.128,68.307 L 30.128,79.933 L 33.91,79.933 L 33.91,65.123 L 27.707,65.123 L 27.707,68.307" points="27.707,68.307 30.128,68.307 30.128,79.933 33.91,79.933 33.91,65.123 27.707,65.123  "/>
	<path d="M 89.854,68.307 L 92.277,68.307 L 92.277,79.933 L 96.059,79.933 L 96.059,65.123 L 89.854,65.123 L 89.854,68.307" points="89.854,68.307 92.277,68.307 92.277,79.933 96.059,79.933 96.059,65.123 89.854,65.123  "/>
	<path d="M 89.854,85.554 L 92.277,85.554 L 92.277,97.18 L 96.059,97.18 L 96.059,82.37 L 89.854,82.37 L 89.854,85.554" points="89.854,85.554 92.277,85.554 92.277,97.18 96.059,97.18 96.059,82.37 89.854,82.37  "/>
	<path d="M 73.262,79.933 L 73.262,65.123 L 67.06,65.123 L 67.06,68.307 L 69.48,68.307 L 69.48,79.933 L 73.262,79.933" points="73.262,79.933 73.262,65.123 67.06,65.123 67.06,68.307 69.48,68.307 69.48,79.933  "/>
	<path d="M 78.595,68.307 L 81.016,68.307 L 81.016,79.933 L 84.799,79.933 L 84.799,65.123 L 78.595,65.123 L 78.595,68.307" points="78.595,68.307 81.016,68.307 81.016,79.933 84.799,79.933 84.799,65.123 78.595,65.123  "/>
	<path d="M 46.418,62.299 L 46.418,47.49 L 40.215,47.49 L 40.215,50.671 L 42.637,50.671 L 42.637,62.299 L 46.418,62.299" points="46.418,62.299 46.418,47.49 40.215,47.49 40.215,50.671 42.637,50.671 42.637,62.299  "/>
	<path d="M 53.582,68.307 L 56.004,68.307 L 56.004,79.933 L 59.785,79.933 L 59.785,65.123 L 53.582,65.123 L 53.582,68.307" points="53.582,68.307 56.004,68.307 56.004,79.933 59.785,79.933 59.785,65.123 53.582,65.123  "/>
	<path d="M 53.582,85.554 L 56.004,85.554 L 56.004,97.18 L 59.785,97.18 L 59.785,82.37 L 53.582,82.37 L 53.582,85.554" points="53.582,85.554 56.004,85.554 56.004,97.18 59.785,97.18 59.785,82.37 53.582,82.37  "/>
</svg>
