<?xml version="1.0" ?>
<svg xmlns="http://www.w3.org/2000/svg" xmlns:ev="http://www.w3.org/2001/xml-events" xmlns:xlink="http://www.w3.org/1999/xlink" baseProfile="full" enable-background="new 0 0 100 100" height="600px" version="1.1" viewBox="0 0 100 100" width="535px" x="0px" xml:space="preserve" y="0px">
	<defs/>
	<path d="M 68.094,57.634 C 70.23599999999999,54.224000000000004 71.478,50.198 71.478,45.884 C 71.478,33.663 61.53699999999999,23.72 49.315,23.72 C 37.093,23.72 27.150999999999996,33.662 27.150999999999996,45.884 C 27.150999999999996,58.106 37.093999999999994,68.048 49.315,68.048 C 53.638,68.048 57.677,66.799 61.089999999999996,64.649 C 61.141999999999996,64.706 61.19,64.764 61.244,64.819 L 70.336,73.911 C 71.30799999999999,74.882 72.578,75.366 73.85,75.366 C 75.12199999999999,75.366 76.393,74.882 77.363,73.911 C 79.303,71.97 79.303,68.82600000000001 77.363,66.886 L 68.272,57.794 C 68.215,57.737 68.153,57.688 68.094,57.634 M 49.315,61.838 C 40.518,61.838 33.36,54.682 33.36,45.884 C 33.36,37.088 40.516999999999996,29.931 49.315,29.931 C 58.111,29.931 65.269,37.087 65.269,45.884 C 65.269,54.682 58.111,61.838 49.315,61.838" fill="#000000"/>
	<path d="M 57.309,42.78 L 52.42,42.78 L 52.42,38.78 C 52.42,37.066 51.029,35.675000000000004 49.315000000000005,35.675000000000004 C 47.599000000000004,35.675000000000004 46.21000000000001,37.066 46.21000000000001,38.78 L 46.21000000000001,42.78 L 41.32000000000001,42.78 C 39.605000000000004,42.78 38.21600000000001,44.17 38.21600000000001,45.884 C 38.21600000000001,47.598 39.60600000000001,48.989 41.32000000000001,48.989 L 46.21000000000001,48.989 L 46.21000000000001,54.768 C 46.21000000000001,56.483000000000004 47.59900000000001,57.873 49.315000000000005,57.873 C 51.029,57.873 52.42,56.482 52.42,54.768 L 52.42,48.989000000000004 L 57.309000000000005,48.989000000000004 C 59.02400000000001,48.989000000000004 60.414,47.599000000000004 60.414,45.88400000000001 C 60.414,44.16900000000001 59.023,42.78 57.309,42.78" fill="#000000"/>
	<path d="M 93.699,22.567 C 93.695,22.542 93.692,22.517 93.68599999999999,22.492 C 93.66799999999999,22.377000000000002 93.64299999999999,22.263 93.613,22.151 C 93.608,22.131 93.603,22.112 93.597,22.093 C 93.55999999999999,21.968 93.517,21.845 93.46199999999999,21.723 C 93.44999999999999,21.698999999999998 93.43799999999999,21.676 93.42699999999999,21.651 C 93.39899999999999,21.592 93.37199999999999,21.53 93.339,21.472 C 93.319,21.438000000000002 93.29899999999999,21.408 93.279,21.376 C 93.259,21.344 93.24,21.314 93.219,21.284000000000002 C 93.155,21.182000000000002 93.08399999999999,21.086000000000002 93.009,20.994000000000003 C 93.003,20.987000000000002 92.997,20.979000000000003 92.991,20.972000000000005 C 92.904,20.870000000000005 92.81099999999999,20.775000000000006 92.714,20.686000000000003 C 92.697,20.669000000000004 92.67699999999999,20.653000000000002 92.658,20.636000000000003 C 92.57000000000001,20.562 92.481,20.490000000000002 92.387,20.426000000000002 C 92.368,20.413 92.351,20.400000000000002 92.332,20.387 C 92.22,20.313 92.106,20.249 91.987,20.191 C 91.979,20.186999999999998 91.973,20.182 91.966,20.177999999999997 L 50.657,0.339 C 49.809,-0.06799999999999995 48.81999999999999,-0.06799999999999995 47.97,0.339 L 6.662,20.179 C 6.656,20.182 6.65,20.186999999999998 6.643,20.189999999999998 C 6.522,20.247999999999998 6.406,20.313999999999997 6.294,20.389 C 6.276,20.4 6.260999999999999,20.413 6.242999999999999,20.425 C 6.148,20.490000000000002 6.055999999999999,20.562 5.968999999999999,20.637 C 5.949999999999999,20.654 5.93,20.67 5.911999999999999,20.687 C 5.814999999999999,20.776 5.721999999999999,20.871000000000002 5.635999999999999,20.972 C 5.629,20.98 5.622999999999999,20.991 5.614999999999999,20.999000000000002 C 5.539999999999999,21.089000000000002 5.472999999999999,21.183000000000003 5.4079999999999995,21.281000000000002 C 5.388,21.313000000000002 5.367999999999999,21.345000000000002 5.348,21.379 C 5.329,21.411 5.308,21.44 5.29,21.473000000000003 C 5.258,21.53 5.232,21.589000000000002 5.204,21.647000000000002 C 5.191,21.674000000000003 5.177,21.700000000000003 5.165,21.726000000000003 C 5.111,21.846000000000004 5.067,21.968000000000004 5.03,22.092000000000002 C 5.024,22.113000000000003 5.019,22.135 5.013,22.157000000000004 C 4.983,22.266000000000005 4.959,22.377000000000002 4.941,22.490000000000002 C 4.937,22.516000000000002 4.9319999999999995,22.544 4.928,22.571 C 4.91,22.704 4.899,22.838 4.899,22.971 C 4.899,22.974 4.899,22.976 4.899,22.979 L 4.899,74.014 C 4.899,75.14099999999999 5.511,76.18299999999999 6.4990000000000006,76.72999999999999 L 47.809000000000005,99.63499999999999 C 47.809000000000005,99.636 47.81100000000001,99.63699999999999 47.813,99.63699999999999 C 47.92,99.698 48.034,99.75099999999999 48.152,99.79799999999999 C 48.172000000000004,99.80599999999998 48.192,99.81299999999999 48.211,99.82 C 48.304,99.85499999999999 48.399,99.886 48.495999999999995,99.913 C 48.526999999999994,99.922 48.556999999999995,99.92999999999999 48.589,99.93599999999999 C 48.678,99.95899999999999 48.769,99.97399999999999 48.861,99.98899999999999 C 48.891999999999996,99.993 48.922,99.999 48.952,100.002 C 49.071,100.017 49.192,100.02499999999999 49.314,100.02499999999999 C 49.436,100.02499999999999 49.556,100.01599999999999 49.675,100.002 C 49.705999999999996,99.999 49.735,99.993 49.766,99.98899999999999 C 49.857,99.97399999999999 49.948,99.96 50.038,99.93599999999999 C 50.06999999999999,99.92899999999999 50.099999999999994,99.92099999999999 50.131,99.913 C 50.228,99.887 50.323,99.85499999999999 50.416,99.82 C 50.436,99.812 50.456999999999994,99.80499999999999 50.474999999999994,99.79799999999999 C 50.592999999999996,99.75099999999999 50.70499999999999,99.69699999999999 50.815,99.63699999999999 C 50.817,99.63699999999999 50.818999999999996,99.63599999999998 50.82,99.63499999999999 L 92.128,76.72999999999999 C 93.115,76.18299999999999 93.728,75.14099999999999 93.728,74.014 L 93.728,22.978 C 93.728,22.976000000000003 93.72699999999999,22.974 93.72699999999999,22.973000000000003 C 93.728,22.838 93.717,22.702 93.699,22.567 M 87.52,72.185 L 52.419999999999995,91.648 L 52.419999999999995,76.651 C 52.419999999999995,74.93599999999999 51.028999999999996,73.547 49.315,73.547 C 47.599,73.547 46.21,74.937 46.21,76.651 L 46.21,91.64699999999999 L 11.111,72.185 L 11.111,28.25 L 21.71,34.128 C 22.187,34.392 22.704,34.518 23.212,34.518 C 24.303,34.518 25.363,33.94 25.931,32.918 C 26.763,31.418 26.221,29.528 24.722,28.697 L 14.765,23.177 L 49.315,6.584 L 83.864,23.177 L 73.908,28.697 C 72.407,29.528 71.866,31.418 72.69800000000001,32.918 C 73.265,33.939 74.32400000000001,34.518 75.41600000000001,34.518 C 75.92600000000002,34.518 76.44300000000001,34.392 76.92000000000002,34.128 L 87.52000000000001,28.25 L 87.52000000000001,72.185 L 87.52,72.185" fill="#000000"/>
</svg>
