<?xml version="1.0" ?>
<svg xmlns="http://www.w3.org/2000/svg" xmlns:ev="http://www.w3.org/2001/xml-events" xmlns:xlink="http://www.w3.org/1999/xlink" baseProfile="full" enable-background="new 0 0 100 100" height="598px" version="1.1" viewBox="0 0 100 100" width="600px" x="0px" xml:space="preserve" y="0px">
	<defs/>
	<path d="M 83.621,38.536 C 83.307,38.111000000000004 82.878,37.825 82.40899999999999,37.682 L 51.164,22.675 C 50.516,22.364 49.760000000000005,22.364 49.111000000000004,22.675 L 17.59,37.814 C 17.587,37.815 17.583,37.817 17.58,37.819 L 17.56,37.828 C 17.552999999999997,37.831 17.548,37.835 17.541,37.839000000000006 C 17.458000000000002,37.88 17.376,37.92700000000001 17.297,37.97800000000001 C 17.279,37.99000000000001 17.261,38.00100000000001 17.243000000000002,38.013000000000005 C 17.081000000000003,38.124 16.932000000000002,38.257000000000005 16.799000000000003,38.410000000000004 C 16.779000000000003,38.432 16.761000000000003,38.455000000000005 16.742000000000004,38.479000000000006 C 16.722000000000005,38.50300000000001 16.701000000000004,38.526 16.682000000000006,38.55200000000001 C 16.656000000000006,38.587 16.635000000000005,38.623000000000005 16.611000000000004,38.65800000000001 C 16.597000000000005,38.68000000000001 16.581000000000003,38.70100000000001 16.568000000000005,38.72400000000001 C 16.516000000000005,38.808000000000014 16.469000000000005,38.89500000000001 16.429000000000006,38.98300000000001 C 16.423000000000005,38.99500000000001 16.419000000000004,39.00800000000001 16.413000000000007,39.02000000000001 C 16.378000000000007,39.10100000000001 16.348000000000006,39.18300000000001 16.322000000000006,39.26700000000001 C 16.315000000000005,39.28900000000001 16.309000000000005,39.31100000000001 16.302000000000007,39.33400000000001 C 16.248000000000008,39.52900000000001 16.220000000000006,39.73000000000001 16.217000000000006,39.92900000000001 C 16.217000000000006,39.94200000000001 16.215000000000007,39.95300000000001 16.215000000000007,39.96600000000001 L 16.215000000000007,78.94500000000001 C 16.215000000000007,79.80600000000001 16.682000000000006,80.60000000000001 17.436000000000007,81.018 L 48.986000000000004,98.514 C 49.344,98.71199999999999 49.74,98.812 50.136,98.812 C 50.532000000000004,98.812 50.928000000000004,98.712 51.286,98.514 L 82.836,81.018 C 83.59,80.6 84.05799999999999,79.806 84.05799999999999,78.94500000000001 L 84.05799999999999,40.298 C 84.149,39.697 84.011,39.062 83.621,38.536 M 50.138,27.444 L 77.113,40.4 L 66.504,48.247 C 66.49000000000001,48.257 66.479,48.268 66.46600000000001,48.278999999999996 C 66.432,48.305 66.39900000000002,48.331999999999994 66.36600000000001,48.36 C 66.33500000000001,48.387 66.30400000000002,48.415 66.27400000000002,48.443 C 66.26100000000001,48.455 66.24800000000002,48.466 66.23600000000002,48.477999999999994 C 64.27800000000002,50.43899999999999 61.240000000000016,51.94499999999999 57.664000000000016,52.831999999999994 L 59.54000000000001,43.04899999999999 C 59.61100000000001,42.67999999999999 59.573000000000015,42.28799999999999 59.40900000000001,41.91799999999999 C 58.984000000000016,40.959999999999994 57.86100000000001,40.52799999999999 56.90400000000001,40.95499999999999 L 56.69200000000001,41.047999999999995 L 50.21,43.93 L 43.729,41.049 L 43.518,40.955999999999996 C 43.176,40.80199999999999 42.784,40.74999999999999 42.388,40.824999999999996 C 41.358,41.023999999999994 40.683,42.019 40.879999999999995,43.05 L 42.763,52.867 C 39.195,52.001999999999995 36.144,50.522999999999996 34.158,48.596 C 34.15,48.589 34.142,48.583 34.135,48.57599999999999 C 34.104,48.54699999999999 34.071999999999996,48.519999999999996 34.039,48.492999999999995 C 34.008,48.465999999999994 33.977000000000004,48.43899999999999 33.944,48.413999999999994 C 33.935,48.407999999999994 33.928000000000004,48.39999999999999 33.92,48.39399999999999 L 23.155,40.404999999999994 L 50.138,27.444 M 50.138,58.47 C 53.836999999999996,58.47 57.370999999999995,57.938 60.518,56.961999999999996 C 59.414,59.766999999999996 58.883,62.840999999999994 58.825,66.27 L 41.451,66.27 C 41.392,62.831999999999994 40.852000000000004,59.754999999999995 39.735,56.952 C 42.892,57.933 46.437,58.47 50.138,58.47 M 44.438,53.22 L 44.778000000000006,45.958 L 49.385000000000005,48.004 C 49.889,48.226 50.49,48.245999999999995 51.034000000000006,48.004 L 55.64000000000001,45.958 L 55.98000000000001,53.198 C 54.12400000000001,53.542 52.15500000000001,53.727000000000004 50.13600000000001,53.727000000000004 C 48.174,53.727 46.255,53.549 44.438,53.22 M 50.138,93.729 L 20.959,77.549 L 20.959,44.67900000000001 L 31.014,52.141000000000005 C 31.346999999999998,52.455000000000005 31.7,52.757000000000005 32.068,53.051 C 35.839,57.186 37.763999999999996,62.731 37.297,68.384 L 37.297,72.626 L 37.384,72.626 C 37.332,73.104 37.253,73.57900000000001 37.253,74.05900000000001 C 37.253,78.94500000000001 41.387,82.51800000000001 45.309,84.27900000000001 C 46.101,86.16400000000002 47.964999999999996,87.489 50.138,87.489 C 52.309999999999995,87.489 54.174,86.164 54.966,84.27900000000001 C 58.889,82.51800000000001 63.022,78.94500000000001 63.022,74.05900000000001 C 63.022,73.58000000000001 62.943999999999996,73.10400000000001 62.891999999999996,72.626 L 63.022,72.626 L 63.022,68.384 L 62.979,68.384 C 62.512,62.734 64.43599999999999,57.192 68.204,53.057 C 68.634,52.714 69.04199999999999,52.358000000000004 69.42299999999999,51.988 L 79.31799999999998,44.669 L 79.31799999999998,77.548 L 50.138,93.729" fill="#000000"/>
	<path d="M 50.21,15.692 C 51.52,15.692 52.582,14.63 52.582,13.32 L 52.582,3.576 C 52.582,2.266 51.52,1.2040000000000002 50.21,1.2040000000000002 C 48.9,1.2040000000000002 47.838,2.266 47.838,3.576 L 47.838,13.321 C 47.839,14.63 48.9,15.692 50.21,15.692" fill="#000000"/>
	<path d="M 26.086,20.42 C 26.525,21.181 27.322,21.606 28.142,21.606 C 28.544,21.606 28.951999999999998,21.503 29.326,21.288 C 30.46,20.633 30.849,19.183 30.194,18.049 L 25.320999999999998,9.61 C 24.665999999999997,8.475999999999999 23.217,8.088 22.081999999999997,8.741999999999999 C 20.947999999999997,9.396999999999998 20.558999999999997,10.847 21.214,11.982 L 26.086,20.42" fill="#000000"/>
	<path d="M 13.169,33.337 L 4.73,28.465 C 3.5950000000000006,27.81 2.1450000000000005,28.198999999999998 1.4900000000000002,29.333 C 0.835,30.467 1.2240000000000002,31.918 2.358,32.573 L 10.797,37.446 C 11.171000000000001,37.661 11.578000000000001,37.763999999999996 11.981,37.763999999999996 C 12.8,37.763999999999996 13.597999999999999,37.339 14.036999999999999,36.577999999999996 C 14.692,35.443 14.303,33.992 13.169,33.337" fill="#000000"/>
	<path d="M 98.931,29.333 C 98.276,28.198999999999998 96.826,27.81 95.692,28.465 L 87.25299999999999,33.337 C 86.11799999999998,33.992000000000004 85.72999999999999,35.442 86.38499999999999,36.577000000000005 C 86.82399999999998,37.33800000000001 87.621,37.763000000000005 88.44099999999999,37.763000000000005 C 88.844,37.763000000000005 89.252,37.660000000000004 89.62499999999999,37.44500000000001 L 98.064,32.57300000000001 C 99.197,31.918 99.585,30.468 98.931,29.333" fill="#000000"/>
	<path d="M 71.095,21.288 C 71.469,21.504 71.876,21.606 72.28,21.606 C 73.099,21.606 73.896,21.181 74.336,20.42 L 79.208,11.981000000000002 C 79.863,10.847000000000001 79.474,9.397000000000002 78.34,8.742 C 77.204,8.087 75.754,8.476 75.1,9.61 L 70.228,18.048000000000002 C 69.572,19.183 69.961,20.633 71.095,21.288" fill="#000000"/>
</svg>
