<?xml version="1.0" ?>
<svg xmlns="http://www.w3.org/2000/svg" xmlns:ev="http://www.w3.org/2001/xml-events" xmlns:xlink="http://www.w3.org/1999/xlink" baseProfile="full" enable-background="new 0 0 100 100" height="600px" version="1.1" viewBox="0 0 100 100" width="534px" x="0px" xml:space="preserve" y="0px">
	<defs/>
	<path d="M 93.978,22.513 C 93.97399999999999,22.488000000000003 93.97,22.463 93.966,22.438000000000002 C 93.948,22.324 93.92399999999999,22.21 93.893,22.098000000000003 C 93.887,22.079000000000004 93.882,22.059 93.877,22.040000000000003 C 93.83999999999999,21.915000000000003 93.795,21.793000000000003 93.74199999999999,21.672000000000004 C 93.72999999999999,21.648000000000003 93.71799999999999,21.624000000000006 93.70599999999999,21.600000000000005 C 93.67799999999998,21.540000000000006 93.64999999999999,21.480000000000004 93.618,21.421000000000006 C 93.59899999999999,21.388000000000005 93.57799999999999,21.358000000000008 93.55799999999999,21.326000000000008 C 93.53899999999999,21.294000000000008 93.52099999999999,21.264000000000006 93.49999999999999,21.232000000000006 C 93.43499999999999,21.132000000000005 93.36499999999998,21.036000000000005 93.29099999999998,20.946000000000005 C 93.28499999999998,20.939000000000004 93.27899999999998,20.930000000000007 93.27299999999998,20.923000000000005 C 93.18599999999998,20.820000000000004 93.09299999999998,20.726000000000006 92.99699999999999,20.637000000000004 C 92.97799999999998,20.620000000000005 92.95899999999999,20.604000000000003 92.93799999999999,20.588000000000005 C 92.85199999999999,20.512000000000004 92.76199999999999,20.443000000000005 92.66799999999999,20.378000000000004 C 92.64899999999999,20.365000000000002 92.63199999999999,20.352000000000004 92.61299999999999,20.339000000000002 C 92.50299999999999,20.266000000000002 92.38699999999999,20.201 92.26999999999998,20.143 C 92.26199999999999,20.14 92.25499999999998,20.134 92.24899999999998,20.13 L 71.73099999999998,10.276 L 51.217,0.423 C 50.369,0.016000000000000014 49.382999999999996,0.016000000000000014 48.534,0.423 L 28.017,10.277 L 7.5,20.13 C 7.493,20.133 7.486,20.137999999999998 7.479,20.142 C 7.36,20.201 7.245,20.266 7.134,20.339 C 7.115,20.351 7.098000000000001,20.363999999999997 7.079000000000001,20.377 C 6.986000000000001,20.441 6.896000000000001,20.511 6.809000000000001,20.587 C 6.7890000000000015,20.604 6.769000000000001,20.62 6.750000000000001,20.637 C 6.654000000000001,20.725 6.561000000000001,20.819 6.4750000000000005,20.921 C 6.4670000000000005,20.931 6.460000000000001,20.941 6.452000000000001,20.951 C 6.380000000000001,21.039 6.312000000000001,21.133 6.248000000000001,21.229 C 6.23,21.263 6.21,21.295 6.19,21.328 C 6.171,21.358999999999998 6.15,21.389 6.132000000000001,21.421 C 6.1000000000000005,21.479 6.074000000000001,21.537 6.047000000000001,21.596 C 6.034000000000001,21.622 6.0200000000000005,21.647 6.008000000000001,21.674 C 5.955000000000001,21.794 5.910000000000001,21.916 5.8740000000000006,22.038999999999998 C 5.868,22.06 5.863,22.081999999999997 5.857,22.104 C 5.827,22.214 5.8020000000000005,22.325 5.785,22.436 C 5.781000000000001,22.463 5.776,22.489 5.772,22.516 C 5.7540000000000004,22.65 5.744000000000001,22.784 5.744000000000001,22.916999999999998 C 5.744000000000001,22.918999999999997 5.744000000000001,22.921999999999997 5.744000000000001,22.924 L 5.744000000000001,48.167 L 5.744000000000001,48.271 L 5.744000000000001,73.513 C 5.744000000000001,74.63900000000001 6.355,75.677 7.340000000000001,76.223 L 27.268,87.274 C 27.446,87.437 27.641000000000002,87.584 27.857,87.705 L 48.373,99.08 C 48.373999999999995,99.081 48.375,99.082 48.376999999999995,99.082 C 48.486,99.14399999999999 48.599999999999994,99.196 48.715999999999994,99.243 C 48.736,99.25099999999999 48.754999999999995,99.258 48.77499999999999,99.264 C 48.86699999999999,99.29899999999999 48.962999999999994,99.329 49.05999999999999,99.35799999999999 C 49.08999999999999,99.36599999999999 49.121999999999986,99.374 49.15199999999999,99.38099999999999 C 49.240999999999985,99.40199999999999 49.33099999999999,99.41899999999998 49.42299999999999,99.43299999999999 C 49.45299999999999,99.437 49.48399999999999,99.443 49.51399999999999,99.44699999999999 C 49.63299999999999,99.46099999999998 49.75199999999999,99.469 49.87399999999999,99.469 C 49.99599999999999,99.469 50.115999999999985,99.46 50.23399999999999,99.44699999999999 C 50.264999999999986,99.44299999999998 50.29499999999999,99.43699999999998 50.325999999999986,99.43299999999999 C 50.417999999999985,99.419 50.508999999999986,99.40299999999999 50.59699999999999,99.38099999999999 C 50.62699999999999,99.37299999999999 50.658999999999985,99.36499999999998 50.688999999999986,99.35799999999999 C 50.786999999999985,99.32999999999998 50.880999999999986,99.29899999999999 50.97499999999999,99.264 C 50.993999999999986,99.25699999999999 51.01399999999999,99.25 51.033999999999985,99.243 C 51.14899999999999,99.196 51.262999999999984,99.143 51.371999999999986,99.082 C 51.37399999999999,99.082 51.374999999999986,99.08099999999999 51.37699999999999,99.08 L 71.89399999999999,87.704 C 72.11099999999999,87.583 72.30499999999999,87.43599999999999 72.48199999999999,87.273 L 92.41099999999999,76.222 C 93.39499999999998,75.67599999999999 94.00699999999999,74.63799999999999 94.00699999999999,73.512 L 94.00699999999999,48.271 L 94.00699999999999,48.167 L 94.00699999999999,22.923 C 94.00699999999999,22.921999999999997 94.00699999999999,22.919999999999998 94.00699999999999,22.918 C 94.007,22.783 93.995,22.648 93.978,22.513 M 11.94,28.184 L 26.259999999999998,36.125 L 26.259999999999998,54.387 L 11.939999999999998,46.446 L 11.939999999999998,28.184 L 11.94,28.184 M 29.358,16.506 L 43.13,23.121000000000002 L 29.358000000000004,30.758000000000003 L 15.586000000000004,23.121000000000002 L 29.358,16.506 M 70.392,16.506 L 84.164,23.121000000000002 L 70.392,30.758000000000003 L 56.62,23.121 L 70.392,16.506 M 49.875,67.482 L 35.746,59.647 L 49.875,51.812 L 64.003,59.647 L 49.875,67.482 M 67.294,54.387 L 52.974,46.446 L 52.974,28.184 L 67.294,36.125 L 67.294,54.387 M 46.777,46.445 L 32.456,54.386 L 32.456,36.125 L 46.777,28.184 L 46.777,46.445 M 32.457,64.907 L 46.778,72.84899999999999 L 46.778,91.11 L 32.457,83.17 L 32.457,64.907 M 52.974,72.849 L 67.294,64.908 L 67.294,83.17 L 52.974,91.11 L 52.974,72.849 M 73.49,54.387 L 73.49,36.125 L 87.81099999999999,28.184 L 87.81099999999999,46.446 L 73.49,54.387 M 49.875,6.652 L 63.236000000000004,13.068999999999999 L 49.875,19.485999999999997 L 36.513999999999996,13.068999999999997 L 49.875,6.652 M 11.94,53.53 L 26.259999999999998,61.471000000000004 L 26.259999999999998,79.63 L 11.939999999999998,71.689 L 11.939999999999998,53.53 L 11.94,53.53 M 73.49,79.631 L 73.49,61.472 L 87.81099999999999,53.531 L 87.81099999999999,71.69 L 73.49,79.631" fill="#000000"/>
</svg>
