<?xml version="1.0" ?>
<svg xmlns="http://www.w3.org/2000/svg" xmlns:ev="http://www.w3.org/2001/xml-events" xmlns:xlink="http://www.w3.org/1999/xlink" baseProfile="full" enable-background="new 0 0 100 100" height="567px" version="1.1" viewBox="0 0 100 100" width="600px" x="0px" xml:space="preserve" y="0px">
	<defs/>
	<path clip-rule="evenodd" d="M 48.449,81.305 L 59.342,59.02300000000001 L 58.416,55.76000000000001 L 52.227999999999994,62.167000000000016 C 50.288999999999994,63.88800000000002 47.407999999999994,60.948000000000015 49.303,59.051000000000016 L 60.062999999999995,46.71800000000002 C 61.239999999999995,45.881000000000014 61.767999999999994,45.58700000000002 62.971,44.95600000000002 C 64.325,44.32400000000002 64.619,44.32400000000002 65.88499999999999,45.469000000000015 L 75.51199999999999,55.274000000000015 C 75.86499999999998,55.65700000000002 75.98199999999999,55.56800000000001 76.11599999999999,56.405000000000015 L 76.11599999999999,61.21100000000001 C 76.11599999999999,63.344000000000015 72.14599999999999,63.31500000000001 72.11599999999999,61.18400000000001 L 72.11599999999999,57.43400000000001 L 68.51399999999998,54.84800000000001 L 67.20699999999998,58.41800000000001 C 70.20399999999998,66.43 72.65799999999997,73.69100000000002 75.65799999999999,81.67200000000001 C 77.01199999999999,85.45200000000001 72.36699999999999,87.30300000000001 70.52799999999999,83.644 L 63.032999999999994,63.72500000000001 C 59.651999999999994,70.57700000000001 56.66799999999999,77.075 53.285999999999994,83.894 C 51.36,87.421 46.597,84.703 48.449,81.305" fill-rule="evenodd"/>
	<path d="M 73.346,85.913 C 72.075,85.913 70.95400000000001,85.133 70.271,83.77199999999999 L 62.999,64.448 C 61.474000000000004,67.55099999999999 60.007000000000005,70.622 58.587,73.598 C 56.969,76.987 55.29600000000001,80.491 53.545,84.021 C 52.915,85.176 51.910000000000004,85.833 50.782000000000004,85.833 C 49.726000000000006,85.833 48.693000000000005,85.242 48.150000000000006,84.328 C 47.587,83.379 47.60300000000001,82.257 48.197,81.167 L 59.035000000000004,58.995000000000005 L 58.276,56.319 L 52.435,62.367000000000004 C 51.982,62.77 51.464000000000006,62.975 50.921,62.975 C 50.921,62.975 50.921,62.975 50.921,62.975 C 49.94,62.975 48.976,62.302 48.576,61.339 C 48.209,60.454 48.4,59.546 49.099000000000004,58.847 L 59.846000000000004,46.528 C 61.077000000000005,45.643 61.612,45.342999999999996 62.837,44.701 C 63.49,44.396 63.888000000000005,44.243 64.282,44.243 C 64.85799999999999,44.243 65.32,44.57 66.078,45.255 L 75.717,55.071000000000005 C 75.794,55.15500000000001 75.855,55.211000000000006 75.907,55.25900000000001 C 76.17699999999999,55.510000000000005 76.28999999999999,55.67000000000001 76.399,56.358000000000004 L 76.403,61.21000000000001 C 76.403,62.49700000000001 75.233,63.083000000000006 74.146,63.083000000000006 C 73.007,63.083000000000006 71.844,62.432 71.827,61.187000000000005 L 71.827,57.581 L 68.65299999999999,55.303000000000004 L 67.51299999999999,58.417 C 68.96099999999998,62.289 70.30199999999999,66.043 71.6,69.674 C 72.972,73.513 74.39099999999999,77.483 75.92699999999999,81.57000000000001 C 76.353,82.75800000000001 76.25699999999999,83.87800000000001 75.66,84.72500000000001 C 75.138,85.469 74.272,85.912 73.346,85.913 M 63.068,63.002 L 70.797,83.542 C 71.36699999999999,84.673 72.3,85.337 73.345,85.337 C 74.084,85.337 74.774,84.98400000000001 75.189,84.39500000000001 C 75.675,83.70500000000001 75.746,82.772 75.386,81.769 C 73.85,77.68100000000001 72.42999999999999,73.709 71.057,69.86800000000001 C 69.749,66.20800000000001 68.397,62.42400000000001 66.937,58.519000000000005 L 66.89999999999999,58.419000000000004 L 68.374,54.393 L 72.40299999999999,57.287 L 72.40299999999999,61.184 C 72.416,62.092999999999996 73.31599999999999,62.507999999999996 74.14599999999999,62.507999999999996 C 74.95599999999999,62.507999999999996 75.82699999999998,62.102999999999994 75.82699999999998,61.211 L 75.82699999999998,56.405 C 75.74199999999999,55.893 75.68399999999998,55.841 75.51399999999998,55.682 C 75.45199999999998,55.624 75.38199999999998,55.559000000000005 75.29899999999998,55.469 L 65.67899999999997,45.671 C 64.95999999999998,45.022 64.63099999999997,44.82 64.28199999999997,44.82 C 63.99699999999997,44.82 63.64399999999997,44.96 63.09299999999997,45.217 C 61.904999999999966,45.839999999999996 61.38199999999997,46.134 60.22999999999997,46.952999999999996 L 49.52,59.24 C 48.786,59.975 48.948,60.732 49.108000000000004,61.119 C 49.416000000000004,61.861 50.178000000000004,62.399 50.92100000000001,62.399 C 51.327000000000005,62.399 51.702000000000005,62.249 52.037000000000006,61.951 L 58.55800000000001,55.2 L 59.65100000000001,59.050000000000004 L 48.708,81.432 C 48.208999999999996,82.34700000000001 48.189,83.267 48.644999999999996,84.035 C 49.086,84.77799999999999 49.925,85.259 50.782,85.259 C 51.705999999999996,85.259 52.50599999999999,84.725 53.034,83.757 C 54.777,80.24000000000001 56.449,76.738 58.066,73.352 C 59.579,70.183 61.143,66.908 62.776,63.598000000000006 L 63.068,63.002"/>
	<path clip-rule="evenodd" d="M 60.4,36.532 C 62.4,36.532 64.04599999999999,38.178999999999995 64.04599999999999,40.163999999999994 C 64.04599999999999,42.16199999999999 62.39999999999999,43.794 60.39999999999999,43.794 C 58.41599999999999,43.794 56.76999999999999,42.162 56.76999999999999,40.163999999999994 C 56.771,38.18 58.416,36.532 60.4,36.532" fill-rule="evenodd"/>
	<path d="M 60.4,44.082 C 58.239999999999995,44.082 56.482,42.324 56.482,40.164 C 56.482,38.002 58.24,36.244 60.4,36.244 C 62.568999999999996,36.244 64.334,38.002 64.334,40.164 C 64.334,42.324 62.569,44.082 60.4,44.082 M 60.4,36.82 C 58.588,36.82 57.058,38.351 57.058,40.164 C 57.058,42.007000000000005 58.557,43.506 60.4,43.506 C 62.251999999999995,43.506 63.757,42.007 63.757,40.164 C 63.758,38.32 62.252,36.82 60.4,36.82"/>
	<path clip-rule="evenodd" d="M 1.943,23.584 C 1.178,28.214 3.927,35.476 1.546,40.56 C 1.458,46.602000000000004 2.706,52.1 2.223,58.418000000000006 C 1.988,61.168000000000006 1.2229999999999999,64.357 1.9,67.063 C 2.753,70.488 5.736,75.852 6.5009999999999994,80.086 C 9.116999999999999,81.672 8.03,87.745 10.777999999999999,89.92099999999999 C 12.498,90.14099999999999 16.467,90.228 16.467,91.62499999999999 C 17.759999999999998,91.62499999999999 26.286,91.66899999999998 26.286,92.97899999999998 C 30.562,92.97899999999998 34.663000000000004,94.96099999999998 39.043,95.32899999999998 C 43.042,95.63999999999999 46.613,95.72599999999998 51.066,94.02199999999998 C 57.608000000000004,94.37599999999998 64.632,93.93299999999998 71.219,93.93299999999998 L 85.594,93.52299999999998 C 87.03599999999999,93.52299999999998 88.211,92.97899999999998 90.458,91.58199999999998 C 91.637,90.40599999999998 93.341,89.59799999999998 94.87,88.15699999999998 C 95.69200000000001,86.30499999999998 97.661,84.99699999999999 97.85300000000001,82.65899999999998 C 98.397,75.71999999999997 98.337,70.17999999999998 97.266,63.196999999999974 L 94.383,38.18 C 93.84299999999999,32.314 94.606,25.289 95.14699999999999,19.422 C 95.371,16.102 93.66499999999999,11.897 92.841,8.929 C 92.577,8.929 90.326,5.503 89.15299999999999,5.0040000000000004 C 84.152,5.681 76.04,6.678 72.924,6.18 C 68.471,5.459 60.797000000000004,3.518 54.27100000000001,4.415 C 51.611000000000004,4.782 40.79200000000001,4.826 37.54400000000001,6.223 L 19.111,6.399 C 14.701,6.399 9.968,7.665 6.411000000000001,9.824 C 3.972,14.206 2.575,19.879 1.943,23.584 M 19.023,13.352 C 20.918,11.941 26.917,12.530000000000001 28.313,12.530000000000001 C 29.445,14.793000000000001 30.165,17.896 30.340999999999998,24.612000000000002 L 30.296999999999997,33.358000000000004 C 30.474999999999998,35.739000000000004 32.634,35.931000000000004 32.634,33.358000000000004 L 32.678,21.187000000000005 C 32.678,18.703000000000003 33.678,14.382000000000005 34.221999999999994,13.251000000000005 C 35.428999999999995,10.738000000000005 36.294,10.782000000000005 37.544,12.898000000000005 C 39.132,15.426000000000005 39.763999999999996,21.187000000000005 39.763999999999996,23.040000000000006 C 40.028,24.877000000000006 41.92399999999999,24.702000000000005 41.836999999999996,23.040000000000006 C 41.836999999999996,20.423000000000005 43.321,12.941000000000006 45.745999999999995,10.914000000000007 C 47.056,9.826000000000008 48.36299999999999,9.738000000000007 51.303,9.870000000000006 C 51.788,10.606000000000007 52.199,12.133000000000006 52.419999999999995,13.531000000000006 C 52.919999999999995,16.500000000000007 53.272999999999996,19.483000000000004 53.272999999999996,21.056000000000004 C 53.272999999999996,23.128000000000004 55.449,23.526000000000003 55.449,20.969000000000005 C 55.449,18.704000000000004 55.714,15.104000000000005 55.845,14.339000000000006 C 56.079,13.074000000000005 56.257999999999996,11.045000000000005 57.522,10.415000000000006 C 59.504999999999995,9.385000000000007 63.461,9.929000000000006 64.371,11.679000000000006 C 66.48899999999999,15.822000000000006 67.841,23.261000000000006 67.517,28.538000000000007 C 67.386,31.462000000000007 69.95599999999999,31.198000000000008 69.95599999999999,28.538000000000007 C 69.95599999999999,27.052000000000007 69.99999999999999,23.526000000000007 70.457,22.364000000000008 C 71.134,20.646000000000008 72.074,17.45500000000001 73.338,17.000000000000007 C 73.734,13.794000000000008 79.82,16.104000000000006 81.93499999999999,15.822000000000006 C 84.37699999999998,15.559000000000006 86.35999999999999,14.030000000000006 87.93499999999999,12.766000000000005 L 89.609,26.774000000000004 C 89.786,28.303000000000004 89.875,31.507000000000005 90.41799999999999,32.86000000000001 C 90.50599999999999,36.65200000000001 90.961,42.958000000000006 91.228,45.620000000000005 L 91.493,62.111000000000004 L 90.96199999999999,75.678 C 90.96199999999999,76.705 90.14299999999999,82.307 88.84799999999998,82.307 C 88.84799999999998,83.60000000000001 85.05599999999998,85.776 83.74599999999998,85.776 C 83.74599999999998,88.42099999999999 75.54399999999998,87.085 73.96999999999998,87.085 L 54.77599999999998,86.84899999999999 L 38.807,86.84899999999999 C 37.499,86.84899999999999 31.106,87.35 31.106,85.77699999999999 C 27.636000000000003,85.77699999999999 27.136000000000003,77.38399999999999 26.739,74.76699999999998 C 26.064,70.31299999999999 25.02,65.84599999999998 25.02,60.53899999999998 C 25.195,58.64299999999998 23.123,58.14199999999998 23.123,60.53899999999998 C 23.123,65.57899999999998 21.007,69.26999999999998 18.89,73.56099999999998 C 16.318,67.97599999999998 12.365,63.68299999999998 12.365,56.52399999999998 C 12.365,55.67099999999998 12.041,51.87899999999998 12.13,49.30799999999998 C 12.174000000000001,47.91099999999998 10.293000000000001,47.82299999999998 10.293000000000001,49.12999999999998 C 10.293000000000001,49.85099999999998 9.381,55.80599999999998 9.16,56.78999999999998 C 8.94,57.78999999999998 8.352,60.49399999999998 7.808,61.06799999999998 C 6.367,57.419 6.0,49.351 6.0,45.618 C 6.0,41.603 5.455,36.282000000000004 7.043,32.858000000000004 C 7.807,31.240000000000006 9.924,28.213000000000005 9.159,26.376000000000005 C 9.424000000000001,25.788000000000004 9.424000000000001,26.053000000000004 9.159,25.509000000000004 C 9.424000000000001,24.744000000000003 9.159,21.951000000000004 10.733,21.951000000000004 C 10.733,21.452000000000005 14.069,19.114000000000004 14.57,19.114000000000004 C 15.422,17.218000000000004 15.509,15.322000000000005 16.318,15.322000000000005 C 16.318,14.117 18.171,13.661 19.023,13.352" fill-rule="evenodd"/>
</svg>
