<?xml version="1.0" ?>
<svg xmlns="http://www.w3.org/2000/svg" xmlns:ev="http://www.w3.org/2001/xml-events" xmlns:xlink="http://www.w3.org/1999/xlink" baseProfile="full" enable-background="new 0 0 100 100" height="510px" version="1.1" viewBox="0 0 100 100" width="600px" x="0px" xml:space="preserve" y="0px">
	<defs/>
	<path d="M 35.143,37.513 L 61.909,47.48 C 63.238,45.132 64.226,43.293 65.521,41.224999999999994 L 35.143,30.107 L 4.766,41.225 C 6.045,43.293 7.031000000000001,45.133 8.361,47.480000000000004 L 35.143,37.513"/>
	<path d="M 35.193,82.816 C 36.341,82.834 37.869,83.343 38.838,84.177 C 40.251,85.363 41.662,86.019 43.501000000000005,86.03200000000001 C 45.34,86.06500000000001 46.73500000000001,85.49300000000001 47.95100000000001,84.56900000000002 C 49.15100000000001,83.67000000000002 50.31600000000001,82.91500000000002 52.105000000000004,82.94600000000001 C 53.913000000000004,82.99600000000001 54.42,83.32300000000001 56.209,84.56900000000002 C 58.95,86.57400000000001 62.580000000000005,86.44400000000002 64.747,84.73500000000001 C 66.899,83.01000000000002 67.554,82.78300000000002 68.311,82.58500000000001 L 68.311,79.86000000000001 C 67.45700000000001,79.86000000000001 65.71400000000001,80.28700000000002 64.87800000000001,81.22100000000002 C 64.03900000000002,82.15700000000002 62.52900000000001,83.09200000000001 60.823000000000015,83.09200000000001 C 59.31000000000002,83.09200000000001 58.40700000000002,82.48700000000001 57.11100000000001,81.69700000000002 C 55.83200000000001,80.92600000000002 54.55000000000001,79.99000000000002 52.20200000000001,79.95600000000002 C 49.85400000000001,79.93700000000001 48.66900000000001,80.97500000000002 47.48900000000001,81.72700000000002 C 46.30700000000001,82.48500000000001 45.78100000000001,83.09200000000001 43.66100000000001,83.09200000000001 C 42.16700000000001,83.09200000000001 40.98500000000001,82.61600000000001 39.70600000000001,81.62900000000002 C 38.40600000000001,80.64500000000002 37.53800000000001,80.00300000000001 35.19000000000001,79.90600000000002 C 32.84100000000001,80.00300000000001 31.95400000000001,80.64400000000002 30.67500000000001,81.62900000000002 C 29.39300000000001,82.61600000000001 28.211000000000013,83.09200000000001 26.717000000000013,83.09200000000001 C 24.598000000000013,83.09200000000001 24.073000000000015,82.48500000000001 22.891000000000012,81.72700000000002 C 21.708000000000013,80.97500000000002 20.510000000000012,79.93800000000002 18.177000000000014,79.95600000000002 C 15.829000000000015,79.99000000000002 14.549000000000014,80.92600000000002 13.254000000000014,81.69700000000002 C 11.972000000000014,82.48400000000002 11.068000000000014,83.09200000000001 9.559000000000013,83.09200000000001 C 7.835000000000013,83.09200000000001 6.322000000000013,82.15500000000002 5.485000000000014,81.22100000000002 C 4.664000000000014,80.28500000000001 2.923000000000014,79.86000000000001 2.0710000000000135,79.86000000000001 L 2.0710000000000135,82.58500000000001 C 2.8260000000000134,82.783 3.4820000000000135,83.013 5.618000000000014,84.73500000000001 C 7.784000000000013,86.44400000000002 11.413000000000014,86.57400000000001 14.171000000000014,84.56900000000002 C 15.963000000000013,83.32300000000002 16.456000000000014,82.99600000000002 18.276000000000014,82.94600000000001 C 20.065000000000015,82.915 21.216000000000015,83.67000000000002 22.430000000000014,84.56900000000002 C 23.646000000000015,85.49300000000002 25.026000000000014,86.06500000000001 26.863000000000014,86.03200000000001 C 28.704000000000015,86.01800000000001 30.117000000000015,85.36000000000001 31.527000000000015,84.177 C 32.516,83.344 34.028,82.834 35.193,82.816"/>
	<path d="M 35.094,87.281 C 35.717,87.281 37.227000000000004,87.43100000000001 38.165,88.43100000000001 C 38.967999999999996,89.30000000000001 40.577999999999996,90.22400000000002 43.484,90.22400000000002 C 46.391000000000005,90.22400000000002 47.819,89.30000000000001 49.231,88.13600000000002 C 50.678000000000004,86.95400000000002 53.107,86.87200000000003 54.553000000000004,88.18500000000003 C 55.981,89.49900000000002 58.508,90.22400000000003 60.43000000000001,90.22400000000003 C 62.33500000000001,90.22400000000003 64.501,89.31800000000003 65.34,88.66100000000003 C 66.934,87.43100000000003 67.096,87.13400000000003 68.11500000000001,86.92000000000003 L 68.11500000000001,84.08000000000003 C 67.26100000000001,83.99700000000003 66.882,84.35600000000002 65.304,85.59000000000003 C 64.499,86.19700000000003 62.316,87.15000000000003 60.396,87.15000000000003 C 58.474000000000004,87.15000000000003 55.963,86.42900000000003 54.515,85.11500000000004 C 53.087,83.80200000000004 50.642,83.88200000000003 49.196,85.06600000000003 C 47.800999999999995,86.21300000000004 46.355999999999995,87.15000000000003 43.449,87.15000000000003 C 40.559,87.15000000000003 38.949,86.21300000000004 38.144,85.36300000000003 C 37.208999999999996,84.35900000000002 35.698,84.19500000000002 35.091,84.19500000000002 C 34.484,84.19500000000002 32.971000000000004,84.35900000000002 32.036,85.36300000000003 C 31.233,86.21500000000003 29.623,87.15000000000003 26.717000000000002,87.15000000000003 C 23.825000000000003,87.15000000000003 22.381,86.21300000000004 20.968000000000004,85.06600000000003 C 19.541000000000004,83.88000000000002 17.093000000000004,83.80200000000004 15.649000000000004,85.11500000000004 C 14.221000000000004,86.42900000000003 11.691000000000004,87.15000000000003 9.786000000000005,87.15000000000003 C 7.866000000000005,87.15000000000003 5.6650000000000045,86.19900000000004 4.860000000000005,85.59000000000003 C 3.3010000000000046,84.35900000000004 2.922000000000005,83.99700000000003 2.0700000000000047,84.08000000000003 L 2.0700000000000047,86.92000000000003 C 3.0710000000000046,87.13400000000003 3.2520000000000047,87.43100000000003 4.845000000000004,88.66100000000003 C 5.6650000000000045,89.31500000000003 7.834000000000004,90.22400000000003 9.753000000000004,90.22400000000003 C 11.674000000000003,90.22400000000003 14.187000000000005,89.49900000000004 15.631000000000004,88.18500000000003 C 17.061000000000003,86.87200000000003 19.508000000000003,86.95600000000003 20.953000000000003,88.13600000000002 C 22.364000000000004,89.30000000000003 23.793000000000003,90.22400000000002 26.700000000000003,90.22400000000002 C 29.589000000000002,90.22400000000002 31.199,89.30000000000001 32.019000000000005,88.43100000000001 C 32.944,87.434 34.454,87.281 35.094,87.281"/>
	<path d="M 35.143,39.697 L 9.296,49.269 C 10.136,51.257999999999996 12.876999999999999,59.778999999999996 13.698,62.801 C 14.618,66.268 16.310000000000002,75.61 16.769000000000002,78.794 C 19.182000000000002,78.333 22.287000000000003,79.387 24.208000000000002,81.25699999999999 C 25.569000000000003,82.37199999999999 28.313000000000002,82.09599999999999 29.068,81.25699999999999 C 30.25,79.97699999999999 32.285000000000004,78.53299999999999 35.143,78.53299999999999 C 37.983000000000004,78.53299999999999 40.037,79.97399999999999 41.219,81.25699999999999 C 41.975,82.09599999999999 44.715,82.37199999999999 46.08,81.25699999999999 C 47.998999999999995,79.38699999999999 51.105,78.33299999999998 53.519,78.794 C 53.976,75.607 55.653999999999996,66.268 56.585,62.800999999999995 C 57.394,59.779999999999994 60.149,51.257999999999996 60.972,49.26899999999999 L 35.143,39.697 M 27.163,53.654 C 26.063,53.755 25.046,52.537000000000006 24.929000000000002,50.974000000000004 C 24.797,49.400000000000006 25.587000000000003,48.036 26.704,47.955000000000005 C 27.804000000000002,47.857000000000006 28.821,49.07300000000001 28.937,50.647000000000006 C 29.069,52.21 28.279,53.572 27.163,53.654 M 45.321,50.975 C 45.192,52.538000000000004 44.189,53.755 43.073,53.655 C 41.974000000000004,53.573 41.167,52.211 41.301,50.649 C 41.432,49.075 42.449000000000005,47.858000000000004 43.549,47.957 C 44.65,48.037 45.456,49.401 45.321,50.975"/>
	<path d="M 35.143,39.697 L 9.296,49.269 C 10.136,51.257999999999996 12.876999999999999,59.778999999999996 13.698,62.801 C 14.618,66.268 16.310000000000002,75.61 16.769000000000002,78.794 C 19.182000000000002,78.333 22.287000000000003,79.387 24.208000000000002,81.25699999999999 C 25.569000000000003,82.37199999999999 28.313000000000002,82.09599999999999 29.068,81.25699999999999 C 30.25,79.97699999999999 32.285000000000004,78.53299999999999 35.143,78.53299999999999 C 37.983000000000004,78.53299999999999 40.037,79.97399999999999 41.219,81.25699999999999 C 41.975,82.09599999999999 44.715,82.37199999999999 46.08,81.25699999999999 C 47.998999999999995,79.38699999999999 51.105,78.33299999999998 53.519,78.794 C 53.976,75.607 55.653999999999996,66.268 56.585,62.800999999999995 C 57.394,59.779999999999994 60.149,51.257999999999996 60.972,49.26899999999999 L 35.143,39.697 M 27.163,53.654 C 26.063,53.755 25.046,52.537000000000006 24.929000000000002,50.974000000000004 C 24.797,49.400000000000006 25.587000000000003,48.036 26.704,47.955000000000005 C 27.804000000000002,47.857000000000006 28.821,49.07300000000001 28.937,50.647000000000006 C 29.069,52.21 28.279,53.572 27.163,53.654 M 45.321,50.975 C 45.192,52.538000000000004 44.189,53.755 43.073,53.655 C 41.974000000000004,53.573 41.167,52.211 41.301,50.649 C 41.432,49.075 42.449000000000005,47.858000000000004 43.549,47.957 C 44.65,48.037 45.456,49.401 45.321,50.975" fill="none" stroke="#000000" stroke-linejoin="round" stroke-miterlimit="22.9256" stroke-width="0.288"/>
	<path d="M 35.143,27.989 L 56.816,35.773 L 56.816,26.397 L 13.469,26.397 L 13.469,35.773 L 35.143,27.989" points="35.143,27.989 56.816,35.773 56.816,26.397 13.469,26.397 13.469,35.773 "/>
	<path d="M 28.247,8.744 L 42.072,8.744 L 42.072,16.247999999999998 L 28.247,16.247999999999998 L 28.247,8.744" height="7.504" width="13.825" x="28.247" y="8.744"/>
	<path d="M 22.205,18.088 L 48.051,18.088 L 48.051,24.442 L 22.205,24.442 L 22.205,18.088" height="6.354" width="25.846" x="22.205" y="18.088"/>
	<path d="M 71.893,72.898 L 98.0,72.898 L 98.0,89.993 L 71.893,89.993 L 71.893,72.898" height="17.095" width="26.107" x="71.893" y="72.898"/>
</svg>
