<?xml version="1.0" ?>
<svg xmlns="http://www.w3.org/2000/svg" xmlns:a="http://ns.adobe.com/AdobeSVGViewerExtensions/3.0/" xmlns:ev="http://www.w3.org/2001/xml-events" xmlns:xlink="http://www.w3.org/1999/xlink" baseProfile="full" enable-background="new -9.513 -32.203 100 100" height="265px" version="1.1" viewBox="-9.513 -32.203 100 100" width="600px" x="0px" xml:space="preserve" y="0px">
	<defs/>
	<path d="M 29.153,16.618 L 29.153,16.618 C 29.142,16.653 29.145,16.644 29.153,16.618"/>
	<path d="M 79.107,3.045 C 69.957,6.1850000000000005 68.189,14.816 67.314,15.066 C 66.439,15.316 63.25099999999999,14.753 62.31399999999999,14.253 C 61.376999999999995,13.753 62.751999999999995,12.753 61.62599999999999,13.128 C 60.499999999999986,13.503 59.25099999999999,13.628 59.25099999999999,13.628 C 59.25099999999999,13.628 48.62599999999999,11.003 45.73899999999999,10.315 C 42.85199999999999,9.626999999999999 43.298,1.02 43.298,1.02 C 43.298,1.02 44.532000000000004,0.03600000000000003 43.876000000000005,0.0040000000000000036 C 39.258,-0.216 35.376000000000005,8.567 34.81400000000001,9.129 C 34.25200000000001,9.690999999999999 25.689000000000007,9.504 17.87600000000001,10.129 C 10.06300000000001,10.754 0.002,16.316 0.002,16.316 C -0.114,18.586 4.739,18.596999999999998 6.428,20.567999999999998 C 6.458,20.604999999999997 6.603,20.554 6.7989999999999995,20.464 C 6.837,20.554 6.888999999999999,20.642 6.967,20.712 C 7.263999999999999,20.982 6.928,20.764 6.9799999999999995,20.374 C 7.114999999999999,20.305999999999997 7.2589999999999995,20.227999999999998 7.412999999999999,20.142 C 7.448999999999999,20.211 7.483999999999999,20.282 7.545999999999999,20.337 C 7.826,20.591 7.542999999999999,20.41 7.552999999999999,20.063 C 7.675999999999999,19.993 7.794999999999999,19.922 7.912999999999999,19.852 C 7.949999999999999,19.931 7.992999999999999,20.009 8.062,20.072 C 8.353,20.336 8.035,20.134 8.068999999999999,19.759999999999998 C 8.183,19.691 8.290999999999999,19.624999999999996 8.382,19.569999999999997 C 8.419,19.692999999999998 8.472,19.813999999999997 8.578,19.909999999999997 C 8.908999999999999,20.209999999999997 8.45,19.906999999999996 8.620999999999999,19.432999999999996 C 8.623,19.425999999999995 8.623,19.424999999999997 8.624999999999998,19.417999999999996 C 8.677999999999999,19.384999999999994 8.712999999999997,19.362999999999996 8.712999999999997,19.362999999999996 C 8.712999999999997,19.362999999999996 8.782999999999998,19.347999999999995 8.883999999999997,19.329999999999995 C 8.916999999999996,19.470999999999993 8.970999999999997,19.614999999999995 9.092999999999996,19.724999999999994 C 9.414999999999996,20.016999999999996 8.993999999999996,19.736999999999995 9.127999999999997,19.285999999999994 C 9.528999999999996,19.216999999999995 10.096999999999996,19.132999999999996 10.243999999999996,19.191999999999993 C 10.451999999999996,19.27499999999999 10.093999999999996,19.758999999999993 9.715999999999996,20.010999999999992 C 9.433999999999996,19.725999999999992 9.580999999999996,19.339999999999993 9.496999999999996,19.73699999999999 C 9.468999999999996,19.86999999999999 9.492999999999997,19.993999999999993 9.530999999999997,20.109999999999992 C 9.455999999999998,20.139999999999993 9.351999999999997,20.167999999999992 9.228999999999997,20.194999999999993 C 9.220999999999998,20.188999999999993 9.219999999999997,20.186999999999994 9.210999999999997,20.180999999999994 C 8.793999999999997,19.899999999999995 8.986999999999997,19.383999999999993 8.895999999999997,19.821999999999996 C 8.862999999999998,19.977999999999994 8.900999999999998,20.121999999999996 8.954999999999997,20.253999999999994 C 8.840999999999996,20.275999999999993 8.722999999999997,20.302999999999994 8.598999999999997,20.330999999999996 C 8.315999999999997,20.045999999999996 8.462999999999997,19.658999999999995 8.378999999999996,20.056999999999995 C 8.355999999999996,20.168999999999993 8.365999999999996,20.279999999999994 8.392999999999995,20.380999999999997 C 8.254999999999995,20.417999999999996 8.121999999999995,20.463999999999995 7.993999999999995,20.516 C 7.714999999999995,20.230999999999998 7.860999999999995,19.848999999999997 7.777999999999995,20.244999999999997 C 7.751999999999995,20.371 7.7709999999999955,20.490999999999996 7.805999999999995,20.601999999999997 C 7.731999999999995,20.641 7.668999999999995,20.686999999999998 7.606999999999995,20.733999999999998 C 7.284999999999995,20.447 7.441999999999995,20.022 7.356999999999995,20.432 C 7.320999999999995,20.604999999999997 7.368999999999994,20.764999999999997 7.4329999999999945,20.904999999999998 C 7.390999999999995,20.958999999999996 7.345999999999995,21.008999999999997 7.320999999999994,21.072 C 7.436999999999994,21.137999999999998 7.548999999999994,21.201 7.663999999999994,21.267 C 7.664999999999995,21.268 7.671999999999994,21.276 7.671999999999994,21.276 L 7.6749999999999945,21.273 C 7.7,21.287 7.724,21.3 7.752,21.316 C 14.565,25.316 29.314999999999998,24.941 29.314999999999998,24.941 C 29.314999999999998,24.941 31.276999999999997,28.454 33.044,30.399 C 34.69,32.212 50.001999999999995,38.441 44.751999999999995,34.066 C 39.501999999999995,29.691000000000003 35.565,25.253 41.18899999999999,25.253 C 46.81399999999999,25.253 68.148,17.44 68.148,17.44 C 68.148,17.44 67.148,18.856 71.064,22.815 C 75.39599999999999,27.193 80.714,26.407 79.189,26.128 C 76.28299999999999,25.597 74.023,17.822000000000003 74.044,15.97 C 74.064,14.193000000000001 79.75099999999999,4.0870000000000015 79.75099999999999,4.0870000000000015 C 79.75099999999999,4.0870000000000015 82.89,1.747 79.107,3.045 M 3.697,18.171 C 3.4,18.311999999999998 3.672,17.043 4.166,16.764 C 4.092,17.345 3.994,18.03 3.697,18.171 M 5.728,16.202 C 5.478,16.202 5.3839999999999995,16.047 5.3839999999999995,15.796000000000001 C 5.3839999999999995,15.545000000000002 5.476999999999999,15.296000000000001 5.728,15.296000000000001 C 5.979,15.296000000000001 6.181,15.498000000000001 6.181,15.749 C 6.181,16.0 5.979,16.202 5.728,16.202 M 24.21,17.712 L 24.191000000000003,17.898 C 24.134000000000004,18.474 24.074,19.067999999999998 23.773000000000003,19.587 C 23.693000000000005,19.726 23.583000000000002,19.86 23.466000000000005,20.004 C 23.220000000000006,20.305 22.966000000000005,20.616 23.008000000000006,20.946 C 23.016000000000005,21.014000000000003 22.968000000000007,21.077 22.899000000000004,21.086000000000002 C 22.894000000000005,21.087000000000003 22.889000000000003,21.087000000000003 22.884000000000004,21.087000000000003 C 22.821000000000005,21.087000000000003 22.768000000000004,21.041000000000004 22.760000000000005,20.978 C 22.706000000000007,20.541 23.007000000000005,20.172 23.273000000000007,19.846 C 23.383000000000006,19.71 23.487000000000005,19.583 23.558000000000007,19.462 C 23.832000000000008,18.989 23.889000000000006,18.422 23.94300000000001,17.873 L 23.962000000000007,17.687 C 24.008000000000006,17.235 24.055000000000007,16.768 24.012000000000008,16.316000000000003 C 23.986000000000008,16.044000000000004 23.872000000000007,15.761000000000003 23.762000000000008,15.488000000000003 C 23.70500000000001,15.348000000000003 23.649000000000008,15.208000000000004 23.604000000000006,15.070000000000004 C 23.483000000000008,14.704000000000004 23.392000000000007,14.328000000000003 23.303000000000008,13.965000000000003 C 23.184000000000008,13.474000000000004 23.061000000000007,12.967000000000004 22.864000000000008,12.478000000000003 C 22.838000000000008,12.414000000000003 22.869000000000007,12.341000000000003 22.933000000000007,12.315000000000003 C 22.997000000000007,12.288000000000004 23.069000000000006,12.320000000000004 23.096000000000007,12.384000000000004 C 23.301000000000005,12.890000000000004 23.426000000000005,13.406000000000004 23.547000000000008,13.906000000000004 C 23.65600000000001,14.358000000000004 23.750000000000007,14.714000000000004 23.84200000000001,14.992000000000004 C 23.88600000000001,15.125000000000004 23.94000000000001,15.259000000000004 23.995000000000008,15.394000000000004 C 24.11200000000001,15.684000000000003 24.233000000000008,15.984000000000004 24.26300000000001,16.292000000000005 C 24.306,16.769 24.257,17.249 24.21,17.712 M 25.825,16.379 C 25.646,17.926000000000002 25.772,19.932000000000002 24.942999999999998,21.259 C 24.758999999999997,21.553 24.633999999999997,21.282 24.822,21.212 C 24.967,20.997 24.948999999999998,20.82 25.035,20.57 C 25.378,19.607 25.444,18.263 25.507,17.245 C 25.567,16.283 25.631,15.476 25.418000000000003,14.529 C 25.336000000000002,14.166 25.346000000000004,13.818999999999999 25.339000000000002,13.452 C 25.336000000000002,13.238 25.001,12.422 25.156000000000002,12.259 C 25.441000000000003,11.96 25.591,13.676 25.591,13.77 C 25.646,14.669 25.929,15.461 25.825,16.379 C 25.833,16.301 25.852,16.142 25.825,16.379 M 26.672,19.531 C 26.618000000000002,19.788 26.613,20.035 26.580000000000002,20.294 C 26.539,20.612000000000002 26.204,21.223 26.228,21.54 C 26.241000000000003,21.703 26.087000000000003,21.486 26.075000000000003,21.323999999999998 C 26.049000000000003,20.973 26.288000000000004,20.607999999999997 26.333000000000002,20.259999999999998 C 26.435000000000002,19.456 26.571,18.65 26.786,17.866 C 27.049000000000003,16.897 27.121000000000002,15.786999999999999 27.121000000000002,14.783 C 27.121000000000002,14.388 27.1,13.94 27.043000000000003,13.549 C 27.025000000000002,13.421 26.294000000000004,12.61 26.603,12.649 C 26.982000000000003,12.668 27.323,14.138 27.347,14.395999999999999 C 27.429000000000002,15.248999999999999 27.298000000000002,16.195 27.214000000000002,17.044999999999998 C 27.132,17.875 26.844,18.716 26.672,19.531 M 29.651,15.626 C 29.639,15.665999999999999 29.622,15.719999999999999 29.612,15.751 C 29.427,16.346999999999998 29.203,17.024 29.008,17.618 C 28.796,18.264 28.424,18.682 28.249,19.337999999999997 C 28.179,19.595 27.334999999999997,21.470999999999997 27.113999999999997,21.470999999999997 C 26.789999999999996,21.470999999999997 27.627,20.361999999999995 27.683999999999997,20.213999999999995 C 28.220999999999997,18.827999999999996 28.843999999999998,17.570999999999994 29.237999999999996,16.129999999999995 C 29.428999999999995,15.422999999999995 29.722999999999995,14.733999999999995 29.625999999999998,13.983999999999995 C 29.601,13.788999999999994 28.845,12.415999999999995 29.246,12.429999999999994 C 29.354,12.445999999999994 29.709999999999997,13.361999999999995 29.775,13.537999999999995 C 30.041999999999998,14.260999999999996 29.828999999999997,15.046999999999995 29.610999999999997,15.750999999999994 C 29.631,15.692 29.643,15.653 29.651,15.626"/>
</svg>
