<?xml version="1.0" ?>
<svg xmlns="http://www.w3.org/2000/svg" xmlns:ev="http://www.w3.org/2001/xml-events" xmlns:xlink="http://www.w3.org/1999/xlink" baseProfile="full" enable-background="new 0 0 90 90" height="600px" version="1.1" viewBox="0 0 90 90" width="474px" x="0px" xml:space="preserve" y="0px">
	<defs/>
	<path d="M 71.592,40.807 L 71.508,40.789 C 71.176,38.72 69.398,37.134 67.23599999999999,37.134 C 65.70599999999999,37.134 64.36699999999999,37.93 63.59399999999999,39.127 L 23.97999999999999,30.803000000000004 C 23.98799999999999,30.688000000000006 24.01399999999999,30.578000000000003 24.01399999999999,30.461000000000006 C 24.01399999999999,30.075000000000006 23.951999999999988,29.708000000000006 23.86299999999999,29.350000000000005 L 60.31399999999999,10.055000000000003 C 60.61899999999999,10.385000000000003 61.04999999999999,10.595000000000002 61.53399999999999,10.595000000000002 C 62.45099999999999,10.595000000000002 63.19499999999999,9.851000000000003 63.19499999999999,8.933000000000003 C 63.19499999999999,8.016000000000004 62.45099999999999,7.2710000000000035 61.53399999999999,7.2710000000000035 C 60.61599999999999,7.2710000000000035 59.87199999999999,8.015000000000004 59.87199999999999,8.933000000000003 C 59.87199999999999,9.213000000000003 59.946999999999996,9.473000000000003 60.06999999999999,9.705000000000004 L 23.139,27.783 C 22.305,26.628 20.957,25.87 19.425,25.87 C 16.889,25.87 14.834,27.925 14.834,30.46 C 14.834,32.995000000000005 16.889,35.05 19.425,35.05 C 21.136,35.05 22.612000000000002,34.102 23.401,32.712999999999994 L 62.772999999999996,42.01299999999999 L 56.57599999999999,45.20299999999999 L 46.69899999999999,50.35599999999999 C 43.41499999999999,52.08699999999999 40.14999999999999,53.856999999999985 36.89699999999999,55.64799999999999 L 27.97199999999999,60.618999999999986 C 27.33599999999999,59.98999999999999 26.46299999999999,59.59999999999999 25.49699999999999,59.59999999999999 C 23.550999999999988,59.59999999999999 21.97399999999999,61.17799999999999 21.97399999999999,63.12399999999999 C 21.97399999999999,65.067 23.550999999999988,66.64499999999998 25.49699999999999,66.64499999999998 C 26.931999999999988,66.64499999999998 28.15999999999999,65.78499999999998 28.70999999999999,64.55499999999998 L 35.514999999999986,67.25599999999997 L 43.764999999999986,70.45499999999997 C 46.52999999999999,71.48999999999997 49.27999999999999,72.55699999999997 52.05899999999998,73.55399999999997 C 53.795999999999985,74.18299999999998 55.530999999999985,74.81699999999998 57.26999999999998,75.44199999999998 C 57.161999999999985,75.73899999999998 57.09299999999998,76.05399999999997 57.09299999999998,76.38799999999998 C 57.09299999999998,77.92099999999998 58.335999999999984,79.16499999999998 59.87099999999998,79.16499999999998 C 61.40499999999998,79.16499999999998 62.64899999999998,77.92099999999998 62.64899999999998,76.38799999999998 C 62.64899999999998,74.85399999999997 61.40499999999998,73.60999999999997 59.87099999999998,73.60999999999997 C 58.945999999999984,73.60999999999997 58.13399999999998,74.06599999999997 57.628999999999984,74.76099999999997 C 55.954999999999984,73.92799999999997 54.27899999999998,73.10399999999997 52.60499999999998,72.27699999999997 C 49.96199999999998,70.95999999999998 47.28899999999998,69.71099999999997 44.628999999999984,68.43099999999997 L 36.61099999999998,64.68599999999996 L 31.642999999999983,62.414999999999964 L 38.60199999999998,58.83599999999996 C 41.89599999999998,57.121999999999964 45.17899999999998,55.386999999999965 48.44099999999998,53.612999999999964 L 58.20599999999998,48.249999999999964 L 64.45099999999998,44.776999999999965 C 65.20699999999998,45.413999999999966 66.16899999999998,45.81299999999997 67.23499999999999,45.81299999999997 C 69.63199999999999,45.81299999999997 71.57599999999998,43.86999999999997 71.57599999999998,41.47299999999997 C 71.57599999999998,41.25899999999997 71.54399999999998,41.053999999999974 71.51399999999998,40.84899999999997 L 71.592,40.807" fill="#000000"/>
</svg>
