<?xml version="1.0" ?>
<svg xmlns="http://www.w3.org/2000/svg" xmlns:ev="http://www.w3.org/2001/xml-events" xmlns:xlink="http://www.w3.org/1999/xlink" baseProfile="full" enable-background="new 0 0 100 93.744" height="563px" version="1.1" viewBox="0 0 100 93.744" width="600px" x="0px" xml:space="preserve" y="0px">
	<defs/>
	<path d="M 70.281,8.827 C 66.367,8.827 63.35300000000001,11.955 63.35300000000001,15.754 C 63.35300000000001,19.666 66.367,22.794 70.281,22.794 C 74.078,22.794 77.208,19.666 77.208,15.754000000000001 C 77.208,11.955 74.078,8.827 70.281,8.827"/>
	<path d="M 89.611,54.303 C 91.06,51.062999999999995 90.72800000000001,44.47 89.274,37.766 C 89.384,37.989 89.94500000000001,39.553999999999995 90.057,39.665 C 92.404,41.565 95.083,40.67 96.312,37.318 C 93.745,31.619999999999997 91.17399999999999,25.921999999999997 88.604,20.223 C 86.48,19.887999999999998 84.468,20.558 82.345,22.233999999999998 C 83.353,24.581 84.247,26.927 85.141,29.272999999999996 L 81.453,24.803999999999995 L 75.197,22.904999999999994 L 71.175,24.245999999999995 C 70.837,24.580999999999996 70.502,25.027999999999995 70.28099999999999,25.362999999999996 C 67.26299999999999,29.832999999999995 65.58699999999999,34.525999999999996 64.69099999999999,39.33 C 60.66999999999999,41.9 56.86999999999999,44.245999999999995 52.96199999999999,46.815999999999995 C 52.06599999999999,47.376 51.17199999999999,47.934 50.389999999999986,48.492999999999995 L 51.844999999999985,52.62799999999999 L 52.96199999999998,52.291999999999994 L 53.85599999999998,51.955999999999996 L 66.25699999999998,73.856 L 61.9,91.844 L 69.607,93.744 L 70.281,91.621 L 72.179,86.035 L 76.98400000000001,93.51899999999999 L 79.778,92.96199999999999 L 73.521,80.89399999999999 L 76.09,69.72 L 81.34100000000001,64.023 L 94.861,93.51899999999999 L 100.0,90.17 L 89.611,54.303 M 70.281,61.899 C 69.162,64.135 68.15700000000001,66.369 67.149,68.71600000000001 L 56.983,50.95 L 68.939,46.368 L 70.28099999999999,44.245000000000005 L 72.17899999999999,41.228 C 73.63199999999999,44.133 75.19699999999999,46.927 76.64699999999999,49.72 C 74.414,53.743 72.291,57.766 70.281,61.899"/>
	<path d="M 21.227,0.0 C 17.206,0.0 13.854,3.352 13.854,7.374 C 13.854,11.509 17.206,14.748 21.227,14.748 C 25.251,14.748 28.602,11.509 28.602,7.374 C 28.602,3.352 25.251,0.0 21.227,0.0"/>
	<path d="M 43.129,48.939 C 44.358,47.15 45.025999999999996,44.916 45.14,42.346000000000004 C 44.804,39.329 43.688,35.977000000000004 42.682,32.848000000000006 C 41.676,30.837000000000007 42.569,32.848000000000006 43.35,33.072 C 46.704,34.189 48.604,33.072 49.609,30.502000000000002 C 46.479,23.574 43.797000000000004,16.759 40.558,9.943000000000001 C 37.986,10.054000000000002 35.975,10.949000000000002 34.637,12.512 L 38.994,24.468 C 36.422,18.547 33.07,14.412 27.485,14.522 C 25.474,14.522 23.351,15.528 21.226,17.652 C 21.115,17.764 21.003,17.876 20.893,17.986 C 19.103,23.126 17.317,28.378 15.529,33.518 L 0.0,44.134 L 2.121,48.38 L 4.468999999999999,47.599000000000004 L 18.213,71.063 L 14.412,90.84 L 21.227,92.62700000000001 L 22.68,92.96300000000001 L 25.028,83.24000000000001 L 30.391,91.84400000000001 L 34.413,91.51 L 26.141999999999996,76.76 L 27.817999999999994,68.492 L 34.41199999999999,60.56 L 50.168,93.52 L 52.961,91.17399999999999 L 55.419,89.05199999999999 L 43.129,48.939 M 21.227,60.336 L 19.218,64.583 L 8.042,46.034 L 21.116,39.441 C 21.116,39.329 21.227,39.218 21.227,39.218 C 22.009,37.989000000000004 22.791,36.871 23.462,35.754000000000005 C 25.92,38.77100000000001 27.596,41.899 28.49,44.916000000000004 L 21.227,60.336"/>
</svg>
