<?xml version="1.0" ?>
<svg xmlns="http://www.w3.org/2000/svg" xmlns:ev="http://www.w3.org/2001/xml-events" xmlns:xlink="http://www.w3.org/1999/xlink" baseProfile="full" enable-background="new 0 0 105 105" height="600px" version="1.1" viewBox="0 0 105 105" width="600px" x="0px" xml:space="preserve" y="0px">
	<defs/>
	<path d="M 21.353,57.557 L 9.233000000000002,69.677 C 9.233000000000002,69.677 11.252000000000002,69.677 15.289000000000001,69.677 C 15.291000000000002,69.677 15.292000000000002,69.677 15.292000000000002,69.677 C 15.292000000000002,69.677 15.292000000000002,75.73 15.292000000000002,81.78500000000001 C 15.292000000000002,93.35400000000001 27.412,93.91700000000002 27.412,93.91700000000002 L 27.412,69.67700000000002 C 27.412,69.67700000000002 27.418,69.67700000000002 27.43,69.67700000000002 C 31.457,69.67700000000002 33.472,69.67700000000002 33.472,69.67700000000002 L 21.353,57.557"/>
	<path d="M 10.311,35.244 C 10.311,35.244 11.738,36.672 14.593,39.527 C 14.594,39.528 14.595,39.529 14.595,39.529 C 14.595,39.529 10.315000000000001,43.809000000000005 6.033000000000001,48.092000000000006 C -2.147999999999998,56.273 6.026000000000002,65.239 6.026000000000002,65.239 L 23.165,48.099000000000004 C 23.165,48.099000000000004 23.169,48.103 23.177,48.111000000000004 C 26.025,50.958000000000006 27.45,52.383 27.45,52.383 L 27.45,35.243 L 10.311,35.243 L 10.311,35.244"/>
	<path d="M 35.115,33.474 L 47.235,21.354999999999997 L 35.115,9.234999999999998 C 35.115,9.234999999999998 35.115,11.253999999999998 35.115,15.291999999999998 C 35.115,15.293999999999999 35.115,15.295999999999998 35.115,15.295999999999998 C 35.115,15.295999999999998 29.062,15.295999999999998 23.006,15.295999999999998 C 11.438,15.295999999999998 10.876,27.415 10.876,27.415 L 35.115,27.415 C 35.115,27.415 35.115,27.421 35.115,27.433 C 35.115,31.458 35.115,33.474 35.115,33.474"/>
	<path d="M 65.21,14.595 C 65.20899999999999,14.596 65.208,14.597000000000001 65.208,14.597000000000001 C 65.208,14.597000000000001 60.929,10.317 56.644999999999996,6.035000000000002 C 48.464999999999996,-2.1459999999999972 39.498999999999995,6.028000000000002 39.498999999999995,6.028000000000002 L 56.638999999999996,23.168000000000003 C 56.638999999999996,23.168000000000003 56.63399999999999,23.172000000000004 56.626,23.180000000000003 C 53.778999999999996,26.027000000000005 52.354,27.453000000000003 52.354,27.453000000000003 L 69.493,27.453000000000003 L 69.493,10.313000000000002 C 69.493,10.313 68.066,11.74 65.21,14.595"/>
	<path d="M 89.445,35.063 C 89.44399999999999,35.063 89.442,35.063 89.442,35.063 C 89.442,35.063 89.442,29.01 89.442,22.954 C 89.442,11.386000000000001 77.323,10.824 77.323,10.824 L 77.323,35.063 C 77.323,35.063 77.31599999999999,35.063 77.30499999999999,35.063 C 73.279,35.063 71.26199999999999,35.063 71.26199999999999,35.063 L 83.38199999999999,47.182 L 95.50099999999999,35.063 C 95.502,35.063 93.483,35.063 89.445,35.063"/>
	<path d="M 98.758,56.647 C 106.93799999999999,48.467 98.76599999999999,39.501 98.76599999999999,39.501 L 81.625,56.642 C 81.625,56.642 81.621,56.637 81.613,56.628 C 78.766,53.781 77.341,52.357 77.341,52.357 L 77.341,69.497 L 94.481,69.497 C 94.481,69.497 93.05399999999999,68.069 90.198,65.214 C 90.19699999999999,65.212 90.196,65.212 90.196,65.212 C 90.196,65.212 94.476,60.932 98.758,56.647"/>
	<path d="M 69.674,77.325 C 69.674,77.325 69.674,77.318 69.674,77.306 C 69.674,73.28 69.674,71.264 69.674,71.264 L 57.55500000000001,83.384 L 69.674,95.503 C 69.674,95.503 69.674,93.483 69.674,89.446 C 69.674,89.445 69.674,89.443 69.674,89.443 C 69.674,89.443 75.72800000000001,89.443 81.784,89.443 C 93.352,89.443 93.914,77.324 93.914,77.324 L 69.674,77.324 L 69.674,77.325"/>
	<path d="M 48.097,81.627 C 48.097,81.627 48.101,81.62299999999999 48.109,81.61399999999999 C 50.957,78.767 52.382000000000005,77.34199999999998 52.382000000000005,77.34199999999998 L 35.242000000000004,77.34199999999998 L 35.242000000000004,94.48199999999999 C 35.242000000000004,94.48199999999999 36.669000000000004,93.05499999999998 39.525000000000006,90.19999999999999 C 39.526,90.19899999999998 39.52700000000001,90.198 39.52700000000001,90.198 C 39.52700000000001,90.198 43.80700000000001,94.478 48.089000000000006,98.75999999999999 C 56.27,106.94099999999999 65.236,98.76899999999999 65.236,98.76899999999999 L 48.097,81.627"/>
</svg>
