<?xml version="1.0" ?>
<svg xmlns="http://www.w3.org/2000/svg" xmlns:ev="http://www.w3.org/2001/xml-events" xmlns:xlink="http://www.w3.org/1999/xlink" baseProfile="full" enable-background="new 0 0 100 100" height="600px" version="1.1" viewBox="0 0 100 100" width="441px" x="0px" xml:space="preserve" y="0px">
	<defs/>
	<path clip-rule="evenodd" d="M 76.768,10.88 L 23.231,10.88 C 22.175,10.88 21.319000000000003,11.71 21.319000000000003,12.735000000000001 L 21.319000000000003,87.264 C 21.319000000000003,88.28699999999999 22.175000000000004,89.119 23.231,89.119 L 76.767,89.119 C 77.823,89.119 78.679,88.287 78.679,87.264 L 78.679,12.735 C 78.68,11.71 77.823,10.88 76.768,10.88 M 73.88,85.519 L 26.359,85.519 L 26.359,51.801 L 73.88,51.801 L 73.88,85.519 M 73.88,48.2 L 26.359,48.2 L 26.359,14.479 L 73.88,14.479 L 73.88,48.2" fill-rule="evenodd"/>
	<path clip-rule="evenodd" d="M 57.052,55.428 L 55.097,55.428 L 55.097,59.82299999999999 C 55.097,60.16899999999999 54.815000000000005,60.449999999999996 54.467,60.449999999999996 L 45.647,60.449999999999996 C 45.299,60.449999999999996 45.016999999999996,60.169 45.016999999999996,59.82299999999999 L 45.016999999999996,55.428 L 43.187,55.428 C 42.841,55.428 42.559999999999995,55.707 42.559999999999995,56.050999999999995 L 42.559999999999995,62.336999999999996 C 42.559999999999995,62.681 42.840999999999994,62.959999999999994 43.187,62.959999999999994 L 57.052,62.959999999999994 C 57.399,62.959999999999994 57.68,62.68099999999999 57.68,62.336999999999996 L 57.68,56.050999999999995 C 57.68,55.707 57.398,55.428 57.052,55.428" fill-rule="evenodd"/>
	<path clip-rule="evenodd" d="M 57.052,18.108 L 55.097,18.108 L 55.097,22.501 C 55.097,22.849 54.815000000000005,23.130000000000003 54.467,23.130000000000003 L 45.647,23.130000000000003 C 45.299,23.130000000000003 45.016999999999996,22.849000000000004 45.016999999999996,22.501 L 45.016999999999996,18.108 L 43.187,18.108 C 42.841,18.108 42.559999999999995,18.386 42.559999999999995,18.73 L 42.559999999999995,25.017 C 42.559999999999995,25.361 42.840999999999994,25.639 43.187,25.639 L 57.052,25.639 C 57.399,25.639 57.68,25.361 57.68,25.017 L 57.68,18.73 C 57.68,18.387 57.398,18.108 57.052,18.108" fill-rule="evenodd"/>
</svg>
