<?xml version="1.0" ?>
<svg xmlns="http://www.w3.org/2000/svg" xmlns:ev="http://www.w3.org/2001/xml-events" xmlns:xlink="http://www.w3.org/1999/xlink" baseProfile="full" enable-background="new 0 0 84.058 100" height="600px" version="1.1" viewBox="0 0 84.058 100" width="505px" x="0px" xml:space="preserve" y="0px">
	<defs/>
	<path d="M 62.235,16.116 C 66.68,16.116 70.269,12.503 70.269,8.058 C 70.27,3.613 66.681,0.0 62.235,0.0 C 57.789,0.0 54.177,3.613 54.177,8.058 C 54.178,12.503 57.79,16.116 62.235,16.116"/>
	<path d="M 83.843,46.851 C 82.441,50.083 79.446,49.109 79.446,49.109 L 66.847,44.355000000000004 C 65.58699999999999,43.903000000000006 64.613,42.857000000000006 64.28099999999999,41.574000000000005 L 61.42699999999999,33.255 L 56.98299999999999,45.497 L 70.15199999999999,59.212 C 71.79199999999999,62.088 71.64899999999999,64.203 71.64899999999999,64.203 L 71.64899999999999,83.124 L 71.64899999999999,83.124 C 76.30799999999999,83.124 80.08699999999999,86.904 80.08699999999999,91.562 C 80.08699999999999,96.221 76.30799999999999,100.0 71.64899999999999,100.0 C 70.98399999999998,100.0 70.31799999999998,99.929 69.67599999999999,99.763 L 41.98899999999999,93.607 L 41.98899999999999,89.518 L 62.758999999999986,84.906 L 62.758999999999986,67.673 L 48.788,53.72 L 46.647999999999996,68.339 C 46.291999999999994,70.193 44.959999999999994,71.928 44.199999999999996,72.783 L 34.501999999999995,84.026 C 34.358999999999995,83.907 34.169,83.907 33.97899999999999,83.931 L 34.501999999999995,84.026 C 37.022,85.999 38.32899999999999,89.303 37.544,92.607 C 36.474,97.147 31.910999999999998,99.952 27.394,98.882 C 26.729,98.715 26.110999999999997,98.50200000000001 25.517,98.217 L 0.0,85.81 L 0.951,81.84 L 24.353,82.173 L 35.477000000000004,69.31400000000001 L 38.923,44.022000000000006 L 46.150000000000006,24.887000000000004 L 36.14300000000001,30.639000000000003 L 30.177000000000007,42.334 C 28.370000000000008,46.042 25.114000000000008,44.093 25.114000000000008,44.093 C 22.16700000000001,42.405 23.308000000000007,39.553000000000004 23.308000000000007,39.553000000000004 L 29.416000000000007,27.193000000000005 C 31.05700000000001,24.055000000000007 32.364000000000004,23.580000000000005 32.364000000000004,23.580000000000005 L 46.650000000000006,15.760000000000005 C 49.758,13.621000000000006 53.37100000000001,15.285000000000005 53.37100000000001,15.285000000000005 L 61.59600000000001,18.399000000000004 C 65.70800000000001,19.873000000000005 65.87400000000001,22.178000000000004 65.87400000000001,22.178000000000004 L 70.96100000000001,38.46000000000001 L 81.91900000000001,42.33500000000001 C 81.917,42.334 84.864,43.594 83.843,46.851 M 71.007,96.173 C 71.221,96.196 71.435,96.221 71.649,96.221 C 74.21600000000001,96.221 76.308,94.129 76.308,91.562 C 76.308,88.996 74.21600000000001,86.904 71.649,86.904 L 71.649,87.87899999999999 C 71.649,90.326 69.652,92.323 67.20400000000001,92.323 C 65.04100000000001,92.323 63.330000000000005,90.75399999999999 62.92600000000001,88.71 L 49.99500000000001,91.56299999999999 L 71.007,96.173 M 27.656,95.009 C 27.846,95.104 28.035999999999998,95.152 28.25,95.198 C 30.77,95.79199999999999 33.265,94.247 33.86,91.752 C 34.311,89.851 33.527,87.948 32.03,86.87899999999999 L 30.128,89.08899999999998 C 28.511,90.94299999999998 25.707,91.15699999999998 23.853,89.54099999999998 C 22.76,88.59099999999998 22.332,87.23499999999999 22.403000000000002,85.90399999999998 L 8.248,85.667 L 27.656,95.009"/>
</svg>
