<?xml version="1.0" ?>
<svg xmlns="http://www.w3.org/2000/svg" xmlns:ev="http://www.w3.org/2001/xml-events" xmlns:xlink="http://www.w3.org/1999/xlink" baseProfile="full" enable-background="new 0 0 100 82.907" height="498px" version="1.1" viewBox="0 0 100 82.907" width="600px" x="0px" xml:space="preserve" y="0px">
	<defs/>
	<path d="M 77.944,82.907 L 5.574,82.907 C 2.203,82.907 0.0,80.542 0.0,77.666 L 0.0,21.944 C 0.0,18.488 2.118,15.872 5.574,15.872 L 50.027,15.872 L 50.027,26.923000000000002 L 11.047,26.923000000000002 L 11.047,71.929 L 72.022,71.929 L 72.022,54.797 L 84.012,54.788999999999994 L 84.012,77.66499999999999 C 84.012,80.542 81.229,82.907 77.944,82.907 L 77.944,82.907" fill="#010101"/>
	<path d="M 28.048,44.446 C 24.878999999999998,44.446 22.304,41.870999999999995 22.304,38.701 C 22.304,35.524 24.878999999999998,32.95 28.048,32.95 C 31.226,32.95 33.8,35.524 33.8,38.701 C 33.8,41.871 31.226,44.446 28.048,44.446 L 28.048,44.446" fill="#010101"/>
	<path d="M 16.544,66.935 L 39.792,44.608 L 50.236,54.387 L 61.469,39.622 L 66.973,50.159 L 67.012,66.935 L 16.544,66.935 L 16.544,66.935" fill="#010101" points="16.544,66.935 39.792,44.608 50.236,54.387 61.469,39.622 66.973,50.159 67.012,66.935    16.544,66.935 "/>
	<path d="M 84.043,21.944 L 84.043,43.966 L 71.983,43.966 L 71.967,21.944 L 56.119,21.944 L 78.059,0.0 L 100.0,21.944 L 84.043,21.944 L 84.043,21.944" fill="#010101" points="84.043,21.944 84.043,43.966 71.983,43.966 71.967,21.944 56.119,21.944 78.059,0 100,21.944    84.043,21.944 "/>
</svg>
