<?xml version="1.0" ?>
<svg xmlns="http://www.w3.org/2000/svg" xmlns:ev="http://www.w3.org/2001/xml-events" xmlns:xlink="http://www.w3.org/1999/xlink" baseProfile="full" enable-background="new 0 0 100 100" height="600px" version="1.1" viewBox="0 0 100 100" width="97px" x="0px" xml:space="preserve" y="0px">
	<defs/>
	<path d="M 56.121,37.322 L 57.553000000000004,35.487 C 57.824000000000005,35.138000000000005 57.873000000000005,34.664 57.679,34.268 C 57.547000000000004,33.997 57.316,33.796 57.042,33.694 L 55.698,32.408 L 55.444,32.164 L 55.444,31.043000000000003 L 55.444,29.608000000000004 L 51.856,29.608000000000004 L 51.856,20.983000000000004 L 51.863,20.983000000000004 L 52.474,20.578000000000003 L 52.474,19.567000000000004 L 51.352,19.567000000000004 L 51.352,13.634000000000004 L 50.99,13.634000000000004 L 50.99,10.721000000000004 L 50.503,10.721000000000004 L 50.503,5.949 L 50.503,5.888 L 50.503,0.918 L 49.362,0.918 L 49.362,5.8870000000000005 L 49.362,5.948 L 49.362,10.72 L 48.874,10.72 L 48.874,13.633000000000001 L 48.512,13.633000000000001 L 48.512,19.566000000000003 L 47.416,19.566000000000003 L 47.416,20.572000000000003 L 48.029999999999994,20.982000000000003 L 48.032999999999994,20.982000000000003 L 48.032999999999994,29.607000000000003 L 44.440999999999995,29.607000000000003 L 44.440999999999995,31.042 L 44.440999999999995,32.148 L 44.172999999999995,32.406000000000006 L 42.83899999999999,33.693000000000005 C 42.56599999999999,33.795 42.33599999999999,33.99700000000001 42.20399999999999,34.26800000000001 C 42.010999999999996,34.66700000000001 42.06099999999999,35.141000000000005 42.334999999999994,35.489000000000004 L 43.763999999999996,37.307 L 43.763999999999996,37.323 C 43.763999999999996,37.332 43.76499999999999,37.341 43.76499999999999,37.35 C 43.29599999999999,37.644 42.983999999999995,38.157000000000004 42.983999999999995,38.742000000000004 C 42.983999999999995,39.653000000000006 43.739,40.394000000000005 44.66799999999999,40.394000000000005 L 47.83099999999999,40.394000000000005 L 45.28899999999999,99.006 L 54.23299999999999,99.006 L 52.13899999999999,40.394 L 55.21699999999999,40.394 C 56.14499999999999,40.394 56.90099999999999,39.653 56.90099999999999,38.742 C 56.90099999999999,38.157 56.58799999999999,37.644 56.121999999999986,37.349999999999994 C 56.121999999999986,37.340999999999994 56.121999999999986,37.331999999999994 56.121999999999986,37.32299999999999 L 56.121999999999986,37.322 L 56.121,37.322" fill="#000000"/>
</svg>
