<?xml version="1.0" ?>
<svg xmlns="http://www.w3.org/2000/svg" xmlns:ev="http://www.w3.org/2001/xml-events" xmlns:xlink="http://www.w3.org/1999/xlink" baseProfile="full" enable-background="new 0 0 100 100" height="600px" version="1.1" viewBox="0 0 100 100" width="154px" x="0px" xml:space="preserve" y="0px">
	<defs/>
	<path d="M 49.041,17.791 L 49.04,17.778 L 49.04,17.766 L 49.043,16.688 C 49.043,16.499 48.894,16.343 48.702,16.331999999999997 L 48.664,16.330999999999996 L 48.664,0.0 L 48.216,0.0 L 48.216,16.332 L 48.183,16.333000000000002 C 47.991,16.344 47.842,16.500000000000004 47.842,16.689000000000004 L 47.842,17.745000000000005 L 47.842,17.757000000000005 L 47.841,17.769000000000005 L 46.723,26.089000000000006 L 50.162,26.089000000000006 L 49.041,17.791" fill="#000000"/>
	<path d="M 45.584,84.349 L 45.584,95.773 L 46.66,95.773 L 46.66,43.131 L 42.145,43.131 L 42.145,84.168 L 45.404,84.168 L 45.584,84.168 L 45.584,84.349" fill="#000000" points="45.584,84.349 45.584,95.773 46.66,95.773 46.66,43.131 42.145,43.131 42.145,84.168    45.404,84.168 45.584,84.168  "/>
	<path d="M 44.865,84.991 L 44.865,84.887 L 40.08,84.887 L 40.08,95.773 L 44.865,95.773 L 44.865,84.991" fill="#000000" points="44.865,84.991 44.865,84.887 40.08,84.887 40.08,95.773 44.865,95.773  "/>
	<path d="M 47.378,33.859 L 47.378,78.725 L 49.506,78.725 L 49.506,33.859 L 49.506,33.679 L 49.687,33.679 L 53.304,33.679 L 53.304,31.047 L 43.579,31.047 L 43.579,33.679 L 47.198,33.679 L 47.378,33.679 L 47.378,33.859" fill="#000000" points="47.378,33.859 47.378,78.725 49.506,78.725 49.506,33.859 49.506,33.679 49.687,33.679    53.304,33.679 53.304,31.047 43.579,31.047 43.579,33.679 47.198,33.679 47.378,33.679  "/>
	<path d="M 48.174,28.924 L 44.567,28.924 L 44.567,30.209 L 48.174,30.209 L 48.71,30.209 L 52.318,30.209 L 52.318,28.924 L 48.71,28.924 L 48.174,28.924" fill="#000000" points="48.174,28.924 44.567,28.924 44.567,30.209 48.174,30.209 48.71,30.209 52.318,30.209    52.318,28.924 48.71,28.924  "/>
	<path d="M 48.174,26.949 L 45.778,26.949 L 45.778,28.191 L 48.174,28.191 L 48.71,28.191 L 51.107,28.191 L 51.107,26.949 L 48.71,26.949 L 48.174,26.949" fill="#000000" points="48.174,26.949 45.778,26.949 45.778,28.191 48.174,28.191 48.71,28.191 51.107,28.191    51.107,26.949 48.71,26.949  "/>
	<path d="M 54.741,84.168 L 54.741,43.131 L 50.225,43.131 L 50.225,95.773 L 51.3,95.773 L 51.3,84.349 L 51.3,84.168 L 51.479,84.168 L 54.741,84.168" fill="#000000" points="54.741,84.168 54.741,43.131 50.225,43.131 50.225,95.773 51.3,95.773 51.3,84.349 51.3,84.168    51.479,84.168  "/>
	<path d="M 37.859,88.03 L 39.302,88.03 L 39.302,95.773 L 37.859,95.773 L 37.859,88.03" fill="#000000" height="7.743" width="1.443" x="37.859" y="88.03"/>
	<path d="M 40.085,79.639 L 41.335,79.639 L 41.335,84.16799999999999 L 40.085,84.16799999999999 L 40.085,79.639" fill="#000000" height="4.529" width="1.25" x="40.085" y="79.639"/>
	<path d="M 42.234,34.397 L 46.660000000000004,34.397 L 46.660000000000004,42.294 L 42.234,42.294 L 42.234,34.397" fill="#000000" height="7.897" width="4.426" x="42.234" y="34.397"/>
	<path d="M 57.583,88.03 L 59.025999999999996,88.03 L 59.025999999999996,95.773 L 57.583,95.773 L 57.583,88.03" fill="#000000" height="7.743" width="1.443" x="57.583" y="88.03"/>
	<path d="M 55.548,79.639 L 56.799,79.639 L 56.799,84.16799999999999 L 55.548,84.16799999999999 L 55.548,79.639" fill="#000000" height="4.529" width="1.251" x="55.548" y="79.639"/>
	<path d="M 47.378,79.562 L 49.506,79.562 L 49.506,95.773 L 47.378,95.773 L 47.378,79.562" fill="#000000" height="16.211" width="2.128" x="47.378" y="79.562"/>
	<path d="M 50.225,34.397 L 54.652,34.397 L 54.652,42.294 L 50.225,42.294 L 50.225,34.397" fill="#000000" height="7.897" width="4.427" x="50.225" y="34.397"/>
	<path d="M 52.019,84.887 L 56.805,84.887 L 56.805,95.774 L 52.019,95.774 L 52.019,84.887" fill="#000000" height="10.887" width="4.786" x="52.019" y="84.887"/>
	<path d="M 35.684,96.492 L 61.202,96.492 L 61.202,99.691 L 35.684,99.691 L 35.684,96.492" fill="#000000" height="3.199" width="25.518" x="35.684" y="96.492"/>
</svg>
