<?xml version="1.0" ?>
<svg xmlns="http://www.w3.org/2000/svg" xmlns:ev="http://www.w3.org/2001/xml-events" xmlns:xlink="http://www.w3.org/1999/xlink" baseProfile="full" enable-background="new 0 0 94.693 100" height="600px" version="1.1" viewBox="0 0 94.693 100" width="569px" x="0px" xml:space="preserve" y="0px">
	<defs/>
	<path d="M 78.191,53.832 C 78.191,49.713 71.804,49.713 71.804,53.832 C 71.804,55.637 71.804,57.441 71.804,59.246 C 71.8,59.246 71.795,59.246 71.791,59.246 C 68.54599999999999,59.246 65.3,59.246 62.05499999999999,59.246 C 62.66199999999999,58.329 63.269999999999996,57.412 63.876999999999995,56.496 C 64.81599999999999,55.080000000000005 64.874,53.786 64.289,52.660000000000004 C 63.991,52.086000000000006 63.266,51.492000000000004 62.545,51.075 C 59.078,49.068000000000005 55.61,47.06 52.144000000000005,45.053000000000004 C 48.57300000000001,42.986000000000004 45.358000000000004,48.50600000000001 48.92,50.568000000000005 C 51.258,51.92100000000001 53.596000000000004,53.275000000000006 55.934000000000005,54.62800000000001 C 54.52,56.760000000000005 53.107000000000006,58.891000000000005 51.694,61.022000000000006 C 51.59,61.179 49.864000000000004,63.260000000000005 49.864000000000004,65.63300000000001 C 49.864000000000004,69.114 52.768,72.02000000000001 56.251000000000005,72.02000000000001 C 61.431000000000004,72.02000000000001 66.611,72.02000000000001 71.792,72.02000000000001 C 74.655,72.02000000000001 77.126,70.05300000000001 77.913,67.41700000000002 C 78.09,67.02900000000001 78.191,66.57600000000002 78.191,66.05900000000001 C 78.191,61.982 78.191,57.907 78.191,53.832"/>
	<path d="M 68.708,42.372 C 63.927,39.561 59.146,36.75 54.364999999999995,33.938 C 54.364999999999995,29.816000000000003 54.364999999999995,25.694000000000003 54.364999999999995,21.573 C 54.501,19.718 54.12499999999999,17.828 53.224,16.291 C 50.603,11.817 45.396,11.0 40.99,13.083 C 32.009,17.33 23.027,21.576999999999998 14.045000000000002,25.823999999999998 C 11.934000000000001,26.822999999999997 10.584000000000001,28.772999999999996 10.000000000000002,30.964999999999996 L 9.998,30.964999999999996 L 0.0,64.173 L 16.302,64.173 C 16.302,74.412 16.302,84.652 16.302,94.891 C 16.302,97.676 18.625999999999998,100.0 21.411,100.0 C 24.197000000000003,100.0 26.521,97.676 26.521,94.891 C 26.521,84.652 26.521,74.412 26.521,64.173 L 42.736000000000004,64.173 L 34.248000000000005,35.982 C 38.354000000000006,34.041 42.459,32.099 46.565000000000005,30.158 L 46.565000000000005,33.645 C 46.548,36.018 46.876000000000005,38.428000000000004 48.790000000000006,39.553000000000004 C 54.13900000000001,42.699000000000005 59.489000000000004,45.845000000000006 64.839,48.99 C 69.109,51.501 72.963,44.875 68.708,42.372"/>
	<path cx="62.416" cy="9.763" d="M 52.653,9.763 A 9.763,9.763 0.0 1,0 72.179,9.763 A 9.763,9.763 0.0 1,0 52.653000000000006,9.763" r="9.763"/>
	<path cx="87.218" cy="65.603" d="M 80.01,65.603 A 7.208,7.208 0.0 1,0 94.426,65.603 A 7.208,7.208 0.0 1,0 80.01,65.603" r="7.208"/>
	<path d="M 46.7,73.905 L 94.69300000000001,73.905 L 94.69300000000001,79.014 L 46.7,79.014 L 46.7,73.905" height="5.109" width="47.993" x="46.7" y="73.905"/>
</svg>
