<?xml version="1.0" ?>
<svg xmlns="http://www.w3.org/2000/svg" xmlns:ev="http://www.w3.org/2001/xml-events" xmlns:xlink="http://www.w3.org/1999/xlink" baseProfile="full" enable-background="new 0 0 88.002 100" height="600px" version="1.1" viewBox="0 0 88.002 100" width="529px" x="0px" xml:space="preserve" y="0px">
	<defs/>
	<path d="M 69.919,20.562 C 74.28099999999999,20.564 77.825,17.022000000000002 77.821,12.657 C 77.825,8.286 74.28099999999999,4.747 69.919,4.757 C 65.548,4.747 62.004999999999995,8.286 62.016999999999996,12.657 C 62.006,17.022 65.549,20.564 69.919,20.562 L 69.919,20.562"/>
	<path d="M 59.74,35.111 L 59.788000000000004,95.496 C 59.803000000000004,101.52199999999999 68.686,101.469 68.665,95.35499999999999 L 68.712,60.21599999999999 L 70.432,60.21599999999999 L 70.432,95.31099999999998 C 70.412,101.45299999999997 79.4,101.60699999999999 79.406,95.49699999999999 L 79.406,34.832 L 80.986,34.832 L 80.986,56.496 C 80.96600000000001,61.702000000000005 88.02000000000001,61.702000000000005 88.004,56.589000000000006 L 88.004,32.927 C 88.021,26.541 83.28,22.79 78.289,22.793 L 64.203,22.793 C 60.866,22.791999999999998 58.445,24.112 56.394000000000005,27.024 L 49.28,37.39 L 36.962,37.39 C 31.981,37.389 32.258,44.428 36.870000000000005,44.41 L 51.09400000000001,44.41 C 52.20000000000001,44.428 53.55500000000001,44.013 54.348000000000006,42.827999999999996 L 59.74,35.111 L 59.74,35.111"/>
	<path d="M 30.193,39.442 L 23.578,39.442 L 23.578,0.0 L 0.0,0.0 L 0.0,100.0 L 23.578,100.0 L 23.578,42.244 L 30.193,42.244 L 30.193,39.442"/>
</svg>
