<?xml version="1.0" ?>
<svg xmlns="http://www.w3.org/2000/svg" xmlns:ev="http://www.w3.org/2001/xml-events" xmlns:xlink="http://www.w3.org/1999/xlink" baseProfile="full" enable-background="new 0 0 112 100.945" height="585px" version="1.1" viewBox="0 0 112 100.945" width="600px" x="0px" xml:space="preserve" y="0px">
	<defs/>
	<path d="M 27.536,39.637 C 27.283,41.259 27.150000000000002,42.921 27.150000000000002,44.614000000000004 C 27.150000000000002,52.783 30.214000000000002,60.234 35.254000000000005,65.887 L 34.30500000000001,65.923 C 34.614000000000004,66.24 35.03900000000001,66.655 35.58100000000001,67.162 C 36.19800000000001,67.736 36.96900000000001,68.40700000000001 37.87700000000001,69.143 C 38.78900000000001,69.876 39.84800000000001,70.659 41.03800000000001,71.457 C 42.23100000000001,72.24799999999999 43.56500000000001,73.03699999999999 45.01800000000001,73.782 C 46.47200000000001,74.524 48.05700000000001,75.193 49.730000000000004,75.768 C 51.406000000000006,76.343 53.18600000000001,76.767 55.013000000000005,77.062 C 56.842000000000006,77.351 58.724000000000004,77.472 60.60300000000001,77.39699999999999 C 60.84100000000001,77.38699999999999 61.092000000000006,77.39099999999999 61.32000000000001,77.36999999999999 L 62.00800000000001,77.31099999999999 C 62.23700000000001,77.28999999999999 62.46400000000001,77.27799999999999 62.69500000000001,77.24799999999999 L 63.38700000000001,77.14899999999999 C 63.617000000000004,77.11399999999999 63.85000000000001,77.08999999999999 64.078,77.04699999999998 L 64.763,76.91499999999998 C 64.99000000000001,76.86999999999998 65.22,76.83399999999997 65.444,76.77899999999998 L 66.117,76.61399999999998 C 67.906,76.15799999999997 69.634,75.55699999999997 71.244,74.81999999999998 C 72.853,74.08099999999997 74.363,73.25499999999998 75.742,72.37899999999998 C 77.11800000000001,71.49799999999998 78.375,70.58999999999997 79.5,69.69799999999998 C 80.619,68.80199999999998 81.613,67.93499999999997 82.47,67.13799999999998 C 83.323,66.33599999999997 84.04899999999999,65.61499999999998 84.629,65.00299999999997 C 85.016,64.59699999999997 85.339,64.24399999999997 85.601,63.95099999999997 L 84.567,63.989999999999974 C 88.669,58.613999999999976 91.107,51.89899999999997 91.107,44.613999999999976 C 91.107,26.952999999999975 76.78999999999999,12.634999999999977 59.128,12.634999999999977 C 50.071,12.634999999999977 41.894999999999996,16.399999999999977 36.077,22.449999999999974 C 34.035,23.049999999999976 30.97,23.155999999999974 26.381999999999998,21.955999999999975 C 14.121,18.751 14.121,9.793 14.121,9.793 C 6.021,19.716 22.728,35.45 27.536,39.637 M 79.82,32.056 C 79.82,32.056 83.79199999999999,34.873 83.375,37.479 C 83.375,37.479 82.12,49.222 65.18299999999999,42.578 C 65.183,42.578 74.801,29.564 79.82,32.056 M 38.585,32.056 C 43.603,29.563999999999997 53.221000000000004,42.577999999999996 53.221000000000004,42.577999999999996 C 36.285000000000004,49.221999999999994 35.03,37.479 35.03,37.479 C 34.612,34.873 38.585,32.056 38.585,32.056 M 35.165,52.569 C 35.165,52.569 49.192,64.908 81.47399999999999,52.569 L 81.47399999999999,61.611000000000004 L 75.81199999999998,57.682 L 72.09299999999999,62.245000000000005 L 67.826,59.583000000000006 L 65.586,64.65400000000001 L 60.854,61.10400000000001 L 58.013,65.01200000000001 L 57.549,65.03000000000002 L 53.756,61.31500000000001 L 48.728,64.48500000000001 L 45.982,59.963000000000015 L 41.165,62.75200000000002 L 39.39,58.485000000000014 L 34.447,60.17500000000001 L 35.165,52.569"/>
	<path d="M 85.865,63.941 L 85.803,63.944 C 85.568,64.287 85.264,64.71900000000001 84.881,65.21900000000001 C 84.365,65.89300000000001 83.719,66.70200000000001 82.925,67.58300000000001 C 82.133,68.46700000000001 81.204,69.43700000000001 80.119,70.42300000000002 C 79.04,71.41400000000002 77.815,72.43700000000001 76.434,73.40800000000002 C 75.057,74.38400000000001 73.536,75.33100000000002 71.871,76.14300000000001 C 70.208,76.95500000000001 68.416,77.67600000000002 66.52199999999999,78.17400000000002 L 65.81099999999999,78.36000000000003 C 65.573,78.42300000000003 65.33,78.46400000000003 65.089,78.51800000000003 L 64.364,78.66700000000003 C 64.12,78.71500000000003 63.873000000000005,78.74300000000002 63.629000000000005,78.78000000000003 L 62.891000000000005,78.88800000000003 C 62.645,78.92200000000004 62.389,78.93600000000004 62.139,78.96100000000003 L 61.382000000000005,79.02800000000002 C 61.13,79.04900000000002 60.897000000000006,79.04800000000002 60.653000000000006,79.05700000000002 C 58.67000000000001,79.11600000000001 56.68000000000001,78.96800000000002 54.75600000000001,78.64300000000001 C 52.82800000000001,78.32500000000002 50.977000000000004,77.78400000000002 49.242000000000004,77.14300000000001 C 47.50300000000001,76.50200000000001 45.895,75.70900000000002 44.43000000000001,74.87000000000002 C 42.961000000000006,74.03400000000002 41.647000000000006,73.12400000000002 40.486000000000004,72.22800000000002 C 39.319,71.33600000000003 38.315000000000005,70.44200000000002 37.459,69.61800000000002 C 36.601000000000006,68.79700000000003 35.903000000000006,68.03200000000002 35.345000000000006,67.39100000000002 C 34.822,66.79200000000002 34.434000000000005,66.28900000000002 34.162000000000006,65.93000000000002 L 33.703,65.94800000000002 C 33.703,65.94800000000002 17.924000000000003,75.67100000000002 18.201,81.48600000000002 L 28.169,82.31700000000002 L 31.768,92.65300000000002 L 44.32,88.22300000000001 L 49.673,95.69800000000001 L 62.685,88.68400000000001 L 68.408,94.12900000000002 L 77.637,84.90000000000002 L 90.373,90.52900000000002 L 90.927,78.16300000000003 L 100.06400000000001,78.07100000000003 C 100.062,78.07 92.435,67.811 85.865,63.941"/>
</svg>
