<?xml version="1.0" ?>
<svg xmlns="http://www.w3.org/2000/svg" xmlns:ev="http://www.w3.org/2001/xml-events" xmlns:graph="http://ns.adobe.com/Graphs/1.0/" xmlns:i="http://ns.adobe.com/AdobeIllustrator/10.0/" xmlns:x="http://ns.adobe.com/Extensibility/1.0/" xmlns:xlink="http://www.w3.org/1999/xlink" baseProfile="full" enable-background="new 0 0 100 100" height="600px" version="1.1" viewBox="0 0 100 100" width="302px" x="0px" xml:space="preserve" y="0px">
	<defs/>
	<path d="M 50.0,84.147 C 47.703,84.147 45.834,82.278 45.834,79.98 C 45.834,77.683 47.703,75.81400000000001 50.0,75.81400000000001 C 52.298,75.81400000000001 54.167,77.683 54.167,79.98 C 54.167,82.278 52.298,84.147 50.0,84.147 M 50.0,76.814 C 48.254,76.814 46.834,78.234 46.834,79.97999999999999 C 46.834,81.72599999999998 48.254000000000005,83.14699999999999 50.0,83.14699999999999 C 51.745999999999995,83.14699999999999 53.167,81.72599999999998 53.167,79.97999999999999 C 53.167,78.234 51.746,76.814 50.0,76.814" fill="#000000"/>
	<path d="M 63.869,13.062 C 65.892,13.062 67.539,14.707999999999998 67.539,16.730999999999998 L 67.539,83.267 C 67.539,85.28999999999999 65.893,86.937 63.869,86.937 L 36.131,86.937 C 34.108,86.937 32.461,85.291 32.461,83.267 L 32.461,16.731 C 32.461,14.708000000000002 34.107,13.062000000000001 36.131,13.062000000000001 L 63.869,13.062000000000001 M 63.869,11.062 L 36.131,11.062 C 33.0,11.062 30.461,13.6 30.461,16.730999999999998 L 30.461,83.267 C 30.461,86.398 33.0,88.937 36.131,88.937 L 63.869,88.937 C 67.0,88.937 69.539,86.398 69.539,83.267 L 69.539,16.731 C 69.539,13.6 67.0,11.062 63.869,11.062 L 63.869,11.062" fill="#000000"/>
	<path d="M 53.5,21.425 C 53.5,21.839000000000002 53.164,22.175 52.75,22.175 L 47.25,22.175 C 46.836,22.175 46.5,21.839000000000002 46.5,21.425 L 46.5,21.425 C 46.5,21.011 46.836,20.675 47.25,20.675 L 52.75,20.675 C 53.164,20.675 53.5,21.011 53.5,21.425 L 53.5,21.425" fill="#000000"/>
	<path cx="50" cy="17.217" d="M 49.25,17.217 A 0.75,0.792 0.0 1,0 50.75,17.217 A 0.75,0.792 0.0 1,0 49.25,17.217" fill="#000000" rx="0.75" ry="0.792"/>
</svg>
