<?xml version="1.0" ?>
<svg xmlns="http://www.w3.org/2000/svg" xmlns:ev="http://www.w3.org/2001/xml-events" xmlns:graph="http://ns.adobe.com/Graphs/1.0/" xmlns:i="http://ns.adobe.com/AdobeIllustrator/10.0/" xmlns:x="http://ns.adobe.com/Extensibility/1.0/" xmlns:xlink="http://www.w3.org/1999/xlink" baseProfile="full" enable-background="new 0 0 100 100" height="600px" version="1.1" viewBox="0 0 100 100" width="239px" x="0px" xml:space="preserve" y="0px">
	<defs/>
	<path d="M 70.274,18.317 C 70.186,17.005 68.458,15.901 66.938,15.178 C 67.639,13.940000000000001 67.76,12.832 67.293,11.874 C 66.44500000000001,10.132000000000001 63.897000000000006,9.66 62.49400000000001,9.532 C 61.95300000000001,5.62 59.67600000000001,5.008 58.30500000000001,5.008 C 56.696000000000005,5.008 55.03000000000001,5.833 54.04900000000001,6.4190000000000005 C 52.61900000000001,4.489000000000001 51.06100000000001,3.5120000000000005 49.40800000000001,3.5120000000000005 C 46.467000000000006,3.5120000000000005 44.32000000000001,6.678000000000001 43.498000000000005,8.114 C 41.725,7.871 40.301,8.314 39.348000000000006,9.375 C 38.43800000000001,10.388 38.160000000000004,11.757 38.08800000000001,12.737 C 36.05700000000001,12.649000000000001 34.92600000000001,13.497 34.35800000000001,14.206 C 32.799000000000014,16.144 33.40500000000001,19.165 33.47900000000001,19.503 L 33.70000000000001,20.291 C 33.72900000000001,25.989 34.27600000000001,41.754000000000005 39.040000000000006,56.569 C 44.49900000000001,73.54400000000001 36.577000000000005,88.924 35.233000000000004,92.337 C 35.141000000000005,92.477 35.081,92.619 35.063,92.76400000000001 C 35.051,92.79400000000001 35.04,92.82000000000001 35.04,92.82000000000001 L 35.05,92.82300000000001 C 35.05,92.837 35.04,92.85000000000001 35.04,92.864 C 35.04,94.866 42.438,96.489 51.563,96.489 C 60.690000000000005,96.489 68.086,94.866 68.086,92.864 C 68.086,92.85000000000001 68.078,92.837 68.076,92.82300000000001 C 68.07799999999999,92.82300000000001 68.086,92.82000000000001 68.086,92.82000000000001 C 68.086,92.82000000000001 68.076,92.795 68.065,92.76400000000001 C 68.045,92.61900000000001 67.987,92.477 67.893,92.337 C 66.549,88.925 58.627,73.54400000000001 64.086,56.569 C 68.961,41.410000000000004 69.42,25.252000000000002 69.428,19.908 C 70.208,19.359 70.3,18.689 70.274,18.317 M 35.704,20.286 L 42.938,20.266000000000002 C 43.036,21.406000000000002 43.42,23.232000000000003 44.805,24.746000000000002 C 46.321,26.403000000000002 48.594,27.243000000000002 51.565,27.243000000000002 C 54.083,27.243000000000002 56.003,26.489 57.269999999999996,25.001 C 58.604,23.437 58.852,21.456000000000003 58.855999999999995,20.223000000000003 L 67.42399999999999,20.201000000000004 C 67.413,22.272000000000006 67.332,25.771000000000004 66.987,30.104000000000006 C 65.851,29.950000000000006 64.768,30.203000000000007 63.79299999999999,30.438000000000006 C 63.25399999999999,30.568000000000005 62.745999999999995,30.690000000000005 62.26999999999999,30.737000000000005 C 61.29199999999999,30.833000000000006 60.29399999999999,30.641000000000005 59.240999999999985,30.436000000000007 C 57.79999999999998,30.156000000000006 56.307999999999986,29.866000000000007 54.64599999999999,30.252000000000006 C 54.045999999999985,30.391000000000005 53.51799999999999,30.644000000000005 53.05099999999999,30.867000000000004 C 52.50799999999999,31.127000000000006 52.036999999999985,31.352000000000004 51.579999999999984,31.357000000000003 C 50.91599999999998,31.369000000000003 50.27699999999999,31.120000000000005 49.55299999999998,30.836000000000002 C 49.261999999999986,30.722 48.96899999999998,30.607000000000003 48.66599999999998,30.505000000000003 C 47.12299999999998,29.985000000000003 45.68699999999998,30.204000000000004 44.42199999999998,30.397000000000002 C 43.43399999999998,30.547 42.50199999999998,30.689000000000004 41.57199999999998,30.499000000000002 C 41.16799999999998,30.416000000000004 40.75099999999998,30.276000000000003 40.30899999999998,30.128000000000004 C 39.643999999999984,29.905000000000005 38.954999999999984,29.675000000000004 38.21199999999998,29.605000000000004 C 37.42499999999998,29.533000000000005 36.768999999999984,29.793000000000003 36.240999999999985,30.005000000000003 C 36.20299999999999,30.021 36.17199999999998,30.032000000000004 36.13599999999999,30.046000000000003 C 35.802,25.802 35.717,22.358 35.704,20.286 M 62.183,55.958 C 57.224000000000004,71.381 62.726,83.87899999999999 65.189,90.81299999999999 C 62.209999999999994,89.862 57.21999999999999,89.23799999999999 51.56399999999999,89.23799999999999 C 45.907999999999994,89.23799999999999 40.919,89.86199999999998 37.940999999999995,90.81299999999999 C 40.403999999999996,83.87799999999999 45.903999999999996,71.38 40.94499999999999,55.95699999999999 C 38.28399999999999,47.679999999999986 36.964999999999996,39.03599999999999 36.315999999999995,32.10199999999999 C 36.556999999999995,32.02899999999999 36.78699999999999,31.94499999999999 36.99099999999999,31.86299999999999 C 37.382999999999996,31.70599999999999 37.721999999999994,31.56699999999999 38.02499999999999,31.59799999999999 C 38.54099999999999,31.646999999999988 39.09199999999999,31.83099999999999 39.675999999999995,32.02699999999999 C 40.154999999999994,32.18699999999998 40.64999999999999,32.35299999999999 41.17099999999999,32.45999999999999 C 42.44999999999999,32.72399999999999 43.60699999999999,32.545999999999985 44.72299999999999,32.37699999999999 C 45.86699999999999,32.20299999999999 46.94699999999999,32.03899999999999 48.02899999999999,32.40299999999999 C 48.30099999999999,32.49399999999999 48.56499999999999,32.59799999999999 48.825999999999986,32.69999999999999 C 49.65399999999999,33.02399999999999 50.509999999999984,33.35899999999999 51.54999999999998,33.35799999999999 C 51.56899999999998,33.35799999999999 51.585999999999984,33.35799999999999 51.603999999999985,33.35799999999999 C 52.503999999999984,33.34799999999999 53.253999999999984,32.98799999999999 53.91699999999999,32.67099999999999 C 54.326999999999984,32.474999999999994 54.713999999999984,32.28999999999999 55.09999999999999,32.199999999999996 C 56.34699999999999,31.909999999999997 57.569999999999986,32.147999999999996 58.862999999999985,32.398999999999994 C 60.01099999999999,32.62199999999999 61.19699999999999,32.85099999999999 62.46899999999999,32.727 C 63.082999999999984,32.666 63.68399999999999,32.522 64.26499999999999,32.382 C 65.16599999999998,32.165 66.01999999999998,31.979 66.81599999999999,32.114999999999995 C 66.165,39.044 64.846,47.68 62.183,55.958 M 56.622,18.23 L 56.808,19.385 C 56.808,19.393 56.847,19.658 56.853,20.07 C 56.867000000000004,20.965 56.732,22.553 55.749,23.704 C 54.878,24.725 53.472,25.244 51.565000000000005,25.244 C 49.190000000000005,25.244 47.417,24.628 46.295,23.413 C 45.266000000000005,22.297 44.998000000000005,20.9 44.932,20.07 C 44.899,19.647000000000002 44.914,19.361 44.914,19.354 L 45.012,18.262 L 35.328,18.288 C 35.322,18.221 35.326,18.141000000000002 35.322,18.07 C 35.285000000000004,17.226 35.371,16.136 35.916000000000004,15.461 C 36.465,14.780000000000001 37.467000000000006,14.58 38.904,14.844000000000001 L 40.215,15.082 L 40.080000000000005,13.756 C 40.023,13.204 40.051,11.58 40.84,10.708 C 41.436,10.049 42.432,9.889 43.815000000000005,10.205 L 44.596000000000004,10.384 L 44.940000000000005,9.659 C 45.489000000000004,8.506 47.358000000000004,5.514000000000001 49.409000000000006,5.514000000000001 C 50.55500000000001,5.514000000000001 51.74300000000001,6.461000000000001 52.93600000000001,8.330000000000002 L 53.51400000000001,9.234000000000002 L 54.37700000000001,8.594000000000001 C 54.96900000000001,8.153 56.83200000000001,7.009000000000001 58.30500000000001,7.009000000000001 C 58.86800000000001,7.009000000000001 60.36200000000001,7.009000000000001 60.586000000000006,10.55 L 60.647000000000006,11.483 L 61.581,11.487 C 62.915000000000006,11.493 65.083,11.9 65.495,12.751 C 65.72200000000001,13.215 65.421,14.014999999999999 64.649,15.001999999999999 L 63.827,16.055 L 65.067,16.548 C 66.15299999999999,16.979 67.27399999999999,17.601999999999997 67.86999999999999,18.070999999999998 C 67.925,18.115 67.98299999999999,18.159999999999997 68.02999999999999,18.200999999999997 L 56.622,18.23" fill="#000000"/>
	<path cx="52.853" cy="52.334" d="M 52.186,52.334 A 0.6670000000000015,0.6670000000000015 0.0 1,0 53.52,52.334 A 0.6670000000000015,0.6670000000000015 0.0 1,0 52.186,52.334" fill="#000000" r="0.667"/>
	<path cx="59.935" cy="38.269" d="M 59.268,38.269 A 0.6670000000000015,0.6670000000000015 0.0 1,0 60.602000000000004,38.269 A 0.6670000000000015,0.6670000000000015 0.0 1,0 59.268,38.269" fill="#000000" r="0.667"/>
	<path cx="54.136" cy="41.911" d="M 52.853,41.911 A 1.2830000000000013,1.2830000000000013 0.0 1,0 55.419000000000004,41.911 A 1.2830000000000013,1.2830000000000013 0.0 1,0 52.853,41.911" fill="#000000" r="1.283"/>
	<path cx="59.267" cy="50.384" d="M 57.984,50.384 A 1.2830000000000013,1.2830000000000013 0.0 1,0 60.550000000000004,50.384 A 1.2830000000000013,1.2830000000000013 0.0 1,0 57.984,50.384" fill="#000000" r="1.283"/>
</svg>
