<?xml version="1.0" ?>
<svg xmlns="http://www.w3.org/2000/svg" xmlns:ev="http://www.w3.org/2001/xml-events" xmlns:graph="http://ns.adobe.com/Graphs/1.0/" xmlns:i="http://ns.adobe.com/AdobeIllustrator/10.0/" xmlns:x="http://ns.adobe.com/Extensibility/1.0/" xmlns:xlink="http://www.w3.org/1999/xlink" baseProfile="full" enable-background="new 0 0 100 100" height="600px" version="1.1" viewBox="0 0 100 100" width="164px" x="0px" xml:space="preserve" y="0px">
	<defs/>
	<path d="M 62.237,54.913 C 62.227000000000004,54.294999999999995 62.216,53.723 62.208,53.20399999999999 C 62.173,51.17999999999999 62.149,49.96399999999999 62.149,49.96399999999999 C 62.149,41.10099999999999 57.023,37.68999999999999 57.023,37.68999999999999 C 57.023,37.68999999999999 57.251000000000005,25.64199999999999 56.252,21.78899999999999 C 55.388000000000005,18.449999999999992 54.501000000000005,14.204999999999991 54.467000000000006,12.75799999999999 C 54.461000000000006,12.45999999999999 54.461000000000006,12.28199999999999 54.461000000000006,12.28199999999999 C 54.48100000000001,12.14699999999999 54.48400000000001,12.03099999999999 54.499,11.901999999999989 C 54.534,11.603999999999989 54.567,11.30799999999999 54.577000000000005,11.036999999999988 C 54.79600000000001,5.652999999999988 51.76800000000001,5.517999999999988 50.105000000000004,5.447999999999988 C 50.103,5.447999999999988 50.103,5.447999999999988 50.103,5.447999999999988 C 49.369,5.447999999999988 45.164,5.578999999999988 45.42,11.093999999999987 C 45.432,11.362999999999987 45.468,11.657999999999987 45.505,11.953999999999986 C 45.518,12.066999999999986 45.52,12.165999999999986 45.537,12.282999999999987 C 45.537,12.282999999999987 45.538,12.476999999999988 45.53,12.808999999999987 C 45.492000000000004,14.311999999999987 44.599000000000004,18.492999999999988 43.745000000000005,21.789999999999985 C 42.749,25.643999999999984 42.974000000000004,37.69099999999999 42.974000000000004,37.69099999999999 C 42.974000000000004,37.69099999999999 37.849000000000004,41.10199999999999 37.849000000000004,49.96599999999999 C 37.849000000000004,49.96599999999999 37.826,51.18099999999999 37.789,53.20599999999999 C 37.781,53.72499999999999 37.771,54.29699999999999 37.761,54.91499999999999 C 37.642,61.852999999999994 37.452000000000005,74.672 37.470000000000006,84.035 C 37.47200000000001,84.618 37.474000000000004,85.189 37.477000000000004,85.743 C 37.49,88.357 37.523,90.622 37.583000000000006,92.30099999999999 L 37.583000000000006,92.66399999999999 C 37.583000000000006,92.86699999999999 37.60000000000001,93.06799999999998 37.623000000000005,93.26499999999999 C 37.92,95.65599999999999 39.95400000000001,97.50499999999998 42.42400000000001,97.50499999999998 L 57.57000000000001,97.50499999999998 C 60.04100000000001,97.50499999999998 62.074000000000005,95.65499999999999 62.37200000000001,93.26499999999999 C 62.385000000000005,92.96799999999999 62.39900000000001,92.64999999999999 62.41100000000001,92.29899999999999 C 62.47200000000001,90.621 62.50400000000001,88.35799999999999 62.51800000000001,85.743 C 62.522000000000006,85.189 62.52300000000001,84.618 62.52400000000001,84.035 C 62.546,74.67 62.355,61.851 62.237,54.913 M 39.56,49.964 C 39.56,42.217999999999996 43.757000000000005,39.226 43.922000000000004,39.111 L 44.641000000000005,38.632999999999996 L 44.68300000000001,37.772 C 44.68300000000001,37.772 44.519000000000005,25.996 45.437000000000005,22.211 C 46.29600000000001,18.671999999999997 47.19800000000001,14.488999999999997 47.23800000000001,12.881999999999998 C 48.022000000000006,12.906999999999998 48.809000000000005,12.921999999999997 49.595000000000006,12.921999999999997 C 50.653000000000006,12.921999999999997 51.712,12.897999999999998 52.761,12.851999999999997 C 52.800000000000004,14.430999999999997 53.699000000000005,18.647999999999996 54.563,22.211999999999996 C 55.481,25.997999999999998 55.317,37.772999999999996 55.317,37.772999999999996 L 55.372,38.62499999999999 L 56.066,39.10399999999999 C 56.245000000000005,39.227999999999994 60.440000000000005,42.218999999999994 60.440000000000005,49.99799999999999 C 60.461000000000006,51.02699999999999 60.480000000000004,52.10099999999999 60.50000000000001,53.20399999999999 L 39.50000000000001,53.20399999999999 C 39.52,52.089 39.54,51.004 39.56,49.964 M 60.805,87.075 C 60.788,89.286 60.757,91.13900000000001 60.706,92.49300000000001 L 60.706,92.662 C 60.706,92.69500000000001 60.697,92.727 60.696000000000005,92.76100000000001 C 60.642,94.44200000000001 59.26800000000001,95.796 57.57300000000001,95.796 L 42.428,95.796 C 40.733999999999995,95.796 39.357,94.441 39.303999999999995,92.75800000000001 C 39.303999999999995,92.72600000000001 39.29599999999999,92.69500000000001 39.29599999999999,92.662 L 39.29599999999999,92.49900000000001 C 39.24399999999999,91.14500000000001 39.212999999999994,89.28800000000001 39.196999999999996,87.075 C 39.193,86.641 39.19,86.2 39.18899999999999,85.741 L 60.81299999999999,85.741 C 60.812,86.2 60.809,86.642 60.805,87.075 M 60.817,84.033 L 39.183,84.033 C 39.17,75.81 39.307,64.385 39.47,54.913 L 60.531,54.913 C 60.694,64.374 60.832,75.806 60.817,84.033" fill="#000000"/>
	<path d="M 42.693,65.874 L 51.659,65.874 L 51.659,67.297 L 42.693,67.297 L 42.693,65.874" fill="#000000" height="1.423" width="8.966" x="42.693" y="65.874"/>
	<path d="M 45.255,69.432 L 54.221000000000004,69.432 L 54.221000000000004,70.855 L 45.255,70.855 L 45.255,69.432" fill="#000000" height="1.423" width="8.966" x="45.255" y="69.432"/>
	<path d="M 42.693,72.563 L 51.659,72.563 L 51.659,73.985 L 42.693,73.985 L 42.693,72.563" fill="#000000" height="1.422" width="8.966" x="42.693" y="72.563"/>
</svg>
