<?xml version="1.0" ?>
<svg xmlns="http://www.w3.org/2000/svg" xmlns:ev="http://www.w3.org/2001/xml-events" xmlns:xlink="http://www.w3.org/1999/xlink" baseProfile="full" height="600px" style="enable-background:new 0 0 90 90;" version="1.1" viewBox="0 0 90 90" width="275px" x="0px" xml:space="preserve" y="0px">
	<defs/>
	<path d="M 62.1,84.9 L 26.4,84.9 C 26.2,84.9 26.0,84.7 26.0,84.5 L 26.0,82.9 C 26.0,82.7 26.2,82.5 26.4,82.5 L 40.8,82.5 L 40.8,51.9 C 32.2,50.2 26.0,42.8 26.0,34.0 C 26.0,34.0 26.0,33.9 26.0,33.9 C 26.0,33.9 26.0,33.8 26.0,33.8 L 26.0,6.8 C 26.0,5.8 26.8,5.0 27.8,5.0 L 60.7,5.0 C 61.7,5.0 62.5,5.8 62.5,6.8 L 62.5,33.699999999999996 L 62.1,33.699999999999996 L 62.5,33.8 C 62.5,33.8 62.5,33.9 62.5,33.9 C 62.5,42.7 56.3,50.2 47.7,51.8 L 47.7,82.3 L 62.1,82.3 C 62.300000000000004,82.3 62.5,82.5 62.5,82.7 L 62.5,84.3 C 62.5,84.7 62.3,84.9 62.1,84.9 M 26.9,84.0 L 61.699999999999996,84.0 L 61.699999999999996,83.3 L 47.3,83.3 C 47.099999999999994,83.3 46.9,83.1 46.9,82.89999999999999 L 46.9,51.5 C 46.9,51.3 47.1,51.1 47.3,51.1 C 55.699999999999996,49.7 61.699999999999996,42.5 61.699999999999996,34.0 L 61.699999999999996,33.8 L 61.699999999999996,6.799999999999997 C 61.699999999999996,6.299999999999997 61.3,5.899999999999997 60.8,5.899999999999997 L 27.8,5.899999999999997 C 27.3,5.899999999999997 26.900000000000002,6.299999999999997 26.900000000000002,6.799999999999997 L 26.900000000000002,33.9 C 26.900000000000002,42.4 33.0,49.599999999999994 41.300000000000004,51.099999999999994 C 41.50000000000001,51.099999999999994 41.7,51.3 41.7,51.49999999999999 L 41.7,82.8 C 41.7,83.0 41.5,83.2 41.300000000000004,83.2 L 26.9,83.2 L 26.9,84.0"/>
</svg>
