<?xml version="1.0" ?>
<svg xmlns="http://www.w3.org/2000/svg" xmlns:ev="http://www.w3.org/2001/xml-events" xmlns:xlink="http://www.w3.org/1999/xlink" baseProfile="full" height="600px" style="enable-background:new 0 0 90 90;" version="1.1" viewBox="0 0 90 90" width="599px" x="0px" xml:space="preserve" y="0px">
	<defs/>
	<path class="st0" d="M 84.3,44.4 C 84.3,44.4 84.2,44.4 84.2,44.4 C 81.4,43.4 67.5,37.9 62.400000000000006,22.299999999999997 C 60.300000000000004,15.699999999999998 56.60000000000001,10.499999999999996 51.400000000000006,6.6999999999999975 C 51.300000000000004,6.599999999999998 51.2,6.499999999999997 51.300000000000004,6.299999999999997 C 51.400000000000006,6.1999999999999975 51.50000000000001,6.099999999999997 51.6,6.099999999999997 C 56.0,6.799999999999997 60.2,8.299999999999997 64.1,10.499999999999996 C 76.3,17.199999999999996 84.1,30.099999999999998 84.5,44.099999999999994 C 84.5,44.199999999999996 84.5,44.3 84.4,44.39999999999999 C 84.4,44.4 84.3,44.4 84.3,44.4 M 52.8,6.9 C 57.6,10.7 61.0,15.8 63.0,22.0 C 67.7,36.7 80.5,42.3 84.0,43.6 C 83.5,30.0 75.8,17.6 63.9,11.0 C 60.4,9.1 56.7,7.7 52.8,6.9"/>
	<path class="st0" d="M 59.6,81.7 C 59.5,81.7 59.5,81.7 59.4,81.60000000000001 C 59.3,81.50000000000001 59.3,81.50000000000001 59.3,81.30000000000001 C 59.199999999999996,78.10000000000001 58.4,67.10000000000001 51.3,59.70000000000001 C 47.0,55.30000000000001 41.3,53.00000000000001 34.099999999999994,52.90000000000001 C 17.3,52.9 9.8,42.5 6.7,36.3 C 6.7,36.199999999999996 6.7,36.199999999999996 6.7,36.099999999999994 C 7.5,32.599999999999994 8.8,29.099999999999994 10.6,25.999999999999993 C 17.5,13.4 30.8,5.5 45.2,5.5 C 46.5,5.5 47.800000000000004,5.6 49.1,5.7 C 49.1,5.7 49.2,5.7 49.2,5.7 C 53.400000000000006,8.3 58.900000000000006,13.2 61.900000000000006,22.3 C 67.30000000000001,39.0 83.10000000000001,44.5 84.30000000000001,44.900000000000006 C 84.30000000000001,44.900000000000006 84.30000000000001,44.900000000000006 84.30000000000001,44.900000000000006 C 84.50000000000001,44.900000000000006 84.60000000000001,45.00000000000001 84.60000000000001,45.2 C 84.60000000000001,51.7 82.9,58.300000000000004 79.7,64.0 C 75.3,72.0 68.2,78.3 59.7,81.6 C 59.6,81.7 59.6,81.7 59.6,81.7 M 7.3,36.1 C 10.9,43.5 18.5,52.2 34.0,52.400000000000006 C 41.3,52.50000000000001 47.2,54.800000000000004 51.6,59.400000000000006 C 58.6,66.60000000000001 59.7,77.2 59.8,81.0 C 68.0,77.7 74.8,71.6 79.1,63.8 C 82.19999999999999,58.199999999999996 83.89999999999999,51.9 83.89999999999999,45.5 C 81.89999999999999,44.8 66.6,39.1 61.19999999999999,22.6 C 58.5,13.7 53.0,8.9 49.0,6.3 C 47.7,6.2 46.5,6.1 45.2,6.1 C 31.000000000000004,6.1 18.000000000000004,13.8 11.200000000000003,26.200000000000003 C 9.4,29.3 8.1,32.6 7.3,36.1"/>
	<path class="st0" d="M 45.1,84.5 L 45.1,84.5 C 38.5,84.5 31.900000000000002,82.8 26.1,79.6 C 11.200000000000001,71.39999999999999 3.3000000000000007,54.599999999999994 6.400000000000002,37.89999999999999 C 6.400000000000002,37.79999999999999 6.500000000000002,37.69999999999999 6.700000000000002,37.599999999999994 C 6.800000000000002,37.599999999999994 7.000000000000002,37.599999999999994 7.000000000000002,37.8 C 10.8,44.9 18.700000000000003,53.4 34.1,53.599999999999994 C 41.1,53.699999999999996 46.7,55.89999999999999 50.900000000000006,60.199999999999996 C 58.2,67.69999999999999 58.800000000000004,79.6 58.800000000000004,81.89999999999999 C 58.800000000000004,81.99999999999999 58.7,82.19999999999999 58.6,82.19999999999999 C 54.2,83.7 49.7,84.5 45.1,84.5 M 6.8,38.8 C 4.2,55.0 12.0,71.1 26.4,79.0 C 32.1,82.2 38.599999999999994,83.8 45.099999999999994,83.8 C 49.49999999999999,83.8 53.89999999999999,83.0 58.099999999999994,81.6 C 57.99999999999999,78.89999999999999 57.3,67.69999999999999 50.39999999999999,60.599999999999994 C 46.39999999999999,56.39999999999999 40.79999999999999,54.3 33.99999999999999,54.199999999999996 C 18.8,54.0 10.9,45.9 6.8,38.8"/>
</svg>
