<?xml version="1.0" ?>
<svg xmlns="http://www.w3.org/2000/svg" xmlns:ev="http://www.w3.org/2001/xml-events" xmlns:xlink="http://www.w3.org/1999/xlink" baseProfile="full" height="336px" style="enable-background:new 0 0 90 90;" version="1.1" viewBox="0 0 90 90" width="600px" x="0px" xml:space="preserve" y="0px">
	<defs/>
	<path d="M 82.6,60.0 L 64.2,60.0 C 64.0,60.0 63.800000000000004,59.8 63.800000000000004,59.6 C 63.800000000000004,59.4 64.0,59.2 64.2,59.2 C 65.10000000000001,59.2 65.9,58.400000000000006 65.9,57.5 L 65.9,29.5 C 65.9,29.4 66.0,29.3 66.10000000000001,29.2 C 66.2,29.099999999999998 66.30000000000001,29.099999999999998 66.4,29.2 L 82.8,35.0 C 83.89999999999999,35.3 85.1,36.2 85.1,37.4 L 85.1,57.599999999999994 C 85.1,58.9 84.0,60.0 82.6,60.0 M 66.0,59.3 L 82.7,59.3 C 83.60000000000001,59.3 84.4,58.5 84.4,57.599999999999994 L 84.4,37.4 C 84.4,36.6 83.5,35.9 82.60000000000001,35.699999999999996 L 66.7,30.0 L 66.7,57.6 C 66.7,58.3 66.4,58.9 66.0,59.3"/>
	<path d="M 37.2,50.6 L 31.700000000000003,50.6 C 31.000000000000004,50.6 30.500000000000004,50.1 30.500000000000004,49.4 L 30.500000000000004,44.3 L 25.400000000000006,44.3 C 24.700000000000006,44.3 24.200000000000006,43.8 24.200000000000006,43.099999999999994 L 24.200000000000006,37.599999999999994 C 24.200000000000006,36.89999999999999 24.700000000000006,36.39999999999999 25.400000000000006,36.39999999999999 L 30.500000000000007,36.39999999999999 L 30.500000000000007,31.29999999999999 C 30.500000000000007,30.59999999999999 31.000000000000007,30.09999999999999 31.700000000000006,30.09999999999999 L 37.2,30.09999999999999 C 37.900000000000006,30.09999999999999 38.400000000000006,30.59999999999999 38.400000000000006,31.29999999999999 L 38.400000000000006,36.39999999999999 L 43.50000000000001,36.39999999999999 C 44.20000000000001,36.39999999999999 44.70000000000001,36.89999999999999 44.70000000000001,37.599999999999994 L 44.70000000000001,43.0 C 44.70000000000001,43.7 44.20000000000001,44.2 43.50000000000001,44.2 L 38.400000000000006,44.2 L 38.400000000000006,49.300000000000004 C 38.4,50.0 37.9,50.6 37.2,50.6 M 25.4,37.0 C 25.099999999999998,37.0 24.9,37.2 24.9,37.5 L 24.9,43.0 C 24.9,43.3 25.099999999999998,43.5 25.4,43.5 L 31.2,43.5 L 31.2,49.3 C 31.2,49.599999999999994 31.4,49.8 31.7,49.8 L 37.2,49.8 C 37.5,49.8 37.7,49.599999999999994 37.7,49.3 L 37.7,43.5 L 43.5,43.5 C 43.8,43.5 44.0,43.3 44.0,43.0 L 44.0,37.5 C 44.0,37.2 43.8,37.0 43.5,37.0 L 37.7,37.0 L 37.7,31.2 C 37.7,30.9 37.5,30.7 37.2,30.7 L 31.700000000000003,30.7 C 31.400000000000002,30.7 31.200000000000003,30.9 31.200000000000003,31.2 L 31.200000000000003,37.0 L 25.4,37.0"/>
	<path d="M 51.5,67.0 C 47.5,67.0 44.2,63.7 44.2,59.7 C 44.2,55.7 47.5,52.400000000000006 51.5,52.400000000000006 C 55.5,52.400000000000006 58.8,55.7 58.8,59.7 C 58.8,63.7 55.5,67.0 51.5,67.0 M 51.5,53.1 C 47.9,53.1 44.9,56.1 44.9,59.7 C 44.9,63.300000000000004 47.9,66.3 51.5,66.3 C 55.1,66.3 58.1,63.3 58.1,59.699999999999996 C 58.1,56.0 55.1,53.1 51.5,53.1"/>
	<path d="M 64.2,60.0 L 59.7,60.0 L 59.7,59.6 C 59.7,55.1 56.0,51.400000000000006 51.5,51.400000000000006 C 47.0,51.400000000000006 43.3,55.10000000000001 43.3,59.60000000000001 L 43.3,60.0 L 26.299999999999997,60.0 L 26.299999999999997,59.6 C 26.299999999999997,55.1 22.599999999999998,51.400000000000006 18.099999999999998,51.400000000000006 C 13.599999999999998,51.400000000000006 9.899999999999999,55.10000000000001 9.899999999999999,59.60000000000001 L 9.899999999999999,60.0 L 7.4,60.0 C 6.1,60.0 5.0,58.9 5.0,57.6 L 5.0,24.7 C 5.0,23.4 6.1,22.3 7.4,22.3 L 64.2,22.3 C 65.5,22.3 66.60000000000001,23.400000000000002 66.60000000000001,24.7 L 66.60000000000001,57.599999999999994 C 66.7,58.9 65.6,60.0 64.2,60.0 M 60.4,59.3 L 64.2,59.3 C 65.10000000000001,59.3 65.9,58.5 65.9,57.599999999999994 L 65.9,24.7 C 65.9,23.8 65.10000000000001,23.0 64.2,23.0 L 7.4,23.0 C 6.5,23.0 5.7,23.8 5.7,24.7 L 5.7,57.599999999999994 C 5.7,58.49999999999999 6.5,59.3 7.4,59.3 L 9.200000000000001,59.3 C 9.4,54.5 13.3,50.699999999999996 18.1,50.699999999999996 C 22.900000000000002,50.699999999999996 26.8,54.49999999999999 27.0,59.3 L 42.5,59.3 C 42.7,54.5 46.6,50.699999999999996 51.4,50.699999999999996 C 56.2,50.7 60.2,54.6 60.4,59.3"/>
	<path d="M 18.2,67.0 C 14.2,67.0 10.899999999999999,63.7 10.899999999999999,59.7 C 10.899999999999999,55.7 14.2,52.400000000000006 18.2,52.400000000000006 C 22.2,52.400000000000006 25.5,55.7 25.5,59.7 C 25.5,63.7 22.2,67.0 18.2,67.0 M 18.2,53.1 C 14.6,53.1 11.6,56.1 11.6,59.7 C 11.6,63.300000000000004 14.6,66.3 18.2,66.3 C 21.8,66.3 24.799999999999997,63.3 24.799999999999997,59.699999999999996 C 24.8,56.0 21.8,53.1 18.2,53.1"/>
	<path d="M 51.5,63.4 C 49.5,63.4 47.8,61.699999999999996 47.8,59.699999999999996 C 47.8,57.699999999999996 49.5,55.99999999999999 51.5,55.99999999999999 C 53.5,55.99999999999999 55.2,57.699999999999996 55.2,59.699999999999996 C 55.2,61.699999999999996 53.5,63.4 51.5,63.4 M 51.5,56.7 C 49.9,56.7 48.5,58.0 48.5,59.7 C 48.5,61.400000000000006 49.8,62.7 51.5,62.7 C 53.1,62.7 54.5,61.400000000000006 54.5,59.7 C 54.5,58.0 53.1,56.7 51.5,56.7"/>
	<path d="M 18.2,63.4 C 16.2,63.4 14.5,61.699999999999996 14.5,59.699999999999996 C 14.5,57.699999999999996 16.2,55.99999999999999 18.2,55.99999999999999 C 20.2,55.99999999999999 21.9,57.699999999999996 21.9,59.699999999999996 C 21.9,61.699999999999996 20.2,63.4 18.2,63.4 M 18.2,56.7 C 16.599999999999998,56.7 15.2,58.0 15.2,59.7 C 15.2,61.400000000000006 16.5,62.7 18.2,62.7 C 19.9,62.7 21.2,61.400000000000006 21.2,59.7 C 21.2,58.0 19.8,56.7 18.2,56.7"/>
	<path d="M 80.5,47.4 L 70.3,47.4 C 70.1,47.4 69.89999999999999,47.199999999999996 69.89999999999999,47.0 L 69.89999999999999,34.8 C 69.89999999999999,34.699999999999996 69.99999999999999,34.599999999999994 70.1,34.5 C 70.19999999999999,34.4 70.3,34.4 70.39999999999999,34.5 L 80.49999999999999,38.2 C 80.59999999999998,38.300000000000004 80.69999999999999,38.400000000000006 80.69999999999999,38.5 L 80.69999999999999,47.0 C 80.8,47.2 80.7,47.4 80.5,47.4 M 70.7,46.7 L 80.10000000000001,46.7 L 80.10000000000001,38.7 L 70.7,35.300000000000004 L 70.7,46.7"/>
</svg>
