<?xml version="1.0" ?>
<svg xmlns="http://www.w3.org/2000/svg" xmlns:ev="http://www.w3.org/2001/xml-events" xmlns:xlink="http://www.w3.org/1999/xlink" baseProfile="full" height="496px" style="enable-background:new 0 0 90 90;" version="1.1" viewBox="0 0 90 90" width="600px" x="0px" xml:space="preserve" y="0px">
	<defs/>
	<path class="st0" d="M 5.0,14.1 L 5.0,63.6 L 14.7,63.6 L 5.0,79.4 L 31.0,63.60000000000001 L 84.1,63.60000000000001 L 84.1,14.1 L 5.0,14.1 M 21.8,30.9 L 18.0,30.9 L 18.0,34.699999999999996 L 15.5,34.699999999999996 L 15.5,30.899999999999995 L 11.7,30.899999999999995 L 11.7,28.399999999999995 L 15.5,28.399999999999995 L 15.5,24.599999999999994 L 18.0,24.599999999999994 L 18.0,28.399999999999995 L 21.8,28.399999999999995 L 21.8,30.9 M 29.6,37.0 L 26.8,37.0 L 26.8,24.9 L 23.8,24.9 L 25.400000000000002,22.299999999999997 L 29.6,22.299999999999997 L 29.6,37.0 M 66.2,25.1 C 70.2,25.1 73.4,28.3 73.4,32.300000000000004 C 73.4,36.30000000000001 70.2,39.50000000000001 66.2,39.50000000000001 C 62.2,39.50000000000001 59.0,36.300000000000004 59.0,32.300000000000004 C 59.0,28.300000000000004 62.2,25.1 66.2,25.1 M 49.0,24.7 C 53.8,24.7 57.7,28.599999999999998 57.7,33.4 C 57.7,38.199999999999996 53.800000000000004,42.099999999999994 49.0,42.099999999999994 C 44.2,42.099999999999994 40.3,38.199999999999996 40.3,33.39999999999999 C 40.3,28.6 44.2,24.7 49.0,24.7 M 61.3,58.9 L 36.7,58.9 L 36.7,52.1 C 36.7,47.4 40.5,43.6 45.2,43.6 L 52.800000000000004,43.6 C 57.50000000000001,43.6 61.300000000000004,47.4 61.300000000000004,52.1 L 61.300000000000004,58.9 L 61.3,58.9 M 76.5,53.5 L 62.3,53.5 L 62.3,52.1 C 62.3,48.5 60.3,45.4 57.4,43.8 C 58.699999999999996,42.0 60.8,40.8 63.1,40.8 L 69.4,40.8 C 73.30000000000001,40.8 76.4,44.0 76.4,47.8 L 76.4,53.5 L 76.5,53.5"/>
</svg>
