<?xml version="1.0" ?>
<svg xmlns="http://www.w3.org/2000/svg" xmlns:ev="http://www.w3.org/2001/xml-events" xmlns:xlink="http://www.w3.org/1999/xlink" baseProfile="full" enable-background="new 0 0 100 91.468" height="549px" version="1.1" viewBox="0 0 100 91.468" width="600px" x="0px" xml:space="preserve" y="0px">
	<defs/>
	<path d="M 91.417,8.533 C 79.95,-2.875 61.416,-2.812 50.01,8.655 C 44.307,2.922 36.821,0.02 29.327,0.0 C 21.833,-0.02 14.336,2.83 8.604,8.533 C -2.863,19.937 -3.154,38.344 9.457,50.956 C 23.532,65.03 46.068,87.524 50.01,91.468 C 53.954,87.524 76.445,65.03 90.52199999999999,50.955000000000005 C 103.135,38.344 102.882,19.937 91.417,8.533 M 36.52,24.177 L 34.285000000000004,22.47 L 35.463,20.113 L 38.186,20.844 C 38.827,20.104000000000003 39.59,19.549 40.421,19.137 L 40.38,16.333000000000002 L 42.940000000000005,15.764000000000003 L 44.037000000000006,18.365000000000002 C 44.970000000000006,18.414 45.92600000000001,18.604000000000003 46.800000000000004,19.015 L 48.95400000000001,17.268 L 50.986000000000004,18.934 L 49.645,21.372 C 50.214000000000006,22.153 50.64,23.06 50.864000000000004,23.973 L 53.587,24.541999999999998 L 53.54600000000001,27.183 L 50.78300000000001,27.671 C 50.53500000000001,28.558 50.12500000000001,29.415 49.52300000000001,30.191 L 50.78300000000001,32.71 L 48.711000000000006,34.295 L 46.598000000000006,32.466 C 45.71600000000001,32.836 44.74100000000001,33.062 43.794000000000004,33.075 L 42.61600000000001,35.595000000000006 L 40.096000000000004,34.94500000000001 L 40.218,32.18200000000001 C 39.801,31.96200000000001 39.415000000000006,31.67700000000001 39.039,31.370000000000008 C 38.668,31.06600000000001 38.317,30.71900000000001 38.023,30.354000000000006 L 35.300000000000004,31.004000000000005 L 34.203,28.647000000000006 L 36.479,26.981000000000005 C 36.314,26.053 36.319,25.111 36.52,24.177 M 19.413,38.806 L 16.121000000000002,37.994 L 16.243000000000002,34.377 C 15.712000000000002,34.086000000000006 15.227000000000002,33.719 14.740000000000002,33.321000000000005 C 14.257000000000001,32.919000000000004 13.824000000000002,32.48500000000001 13.440000000000001,32.02100000000001 L 9.905000000000001,32.87400000000001 L 8.483,29.82700000000001 L 11.408000000000001,27.67300000000001 C 11.187000000000001,26.46500000000001 11.194,25.22600000000001 11.449000000000002,24.01600000000001 L 8.604,21.78 L 10.107,18.733 L 13.602,19.708000000000002 C 14.437000000000001,18.749000000000002 15.415000000000001,17.972 16.487000000000002,17.433000000000003 L 16.446,13.816000000000003 L 19.778000000000002,13.126000000000003 L 21.200000000000003,16.458000000000002 C 22.413000000000004,16.512 23.639000000000003,16.784000000000002 24.776000000000003,17.311000000000003 L 27.580000000000002,15.036000000000003 L 30.221000000000004,17.189000000000004 L 28.514000000000003,20.359 C 29.250000000000004,21.372 29.768000000000004,22.51 30.058000000000003,23.691000000000003 L 33.593,24.463 L 33.55200000000001,27.876 L 29.976000000000006,28.526 C 29.656000000000006,29.683 29.122000000000007,30.773 28.351000000000006,31.776 C 28.350000000000005,31.777 28.311000000000007,31.776 28.310000000000006,31.776 L 29.935000000000006,35.027 L 27.253000000000007,37.14 L 24.53000000000001,34.743 C 23.38900000000001,35.228 22.143000000000008,35.493 20.91400000000001,35.515 L 19.413,38.806 M 47.694,51.484 C 47.272000000000006,52.845 46.583000000000006,54.145 45.622,55.303000000000004 L 47.41,59.20400000000001 L 44.159,61.56000000000001 L 40.99,58.63400000000001 C 39.622,59.16700000000001 38.177,59.42900000000001 36.723,59.406000000000006 L 34.772,63.266000000000005 L 30.871,62.168000000000006 L 31.195999999999998,57.86000000000001 C 30.578,57.498000000000005 30.003999999999998,57.093 29.448999999999998,56.601000000000006 C 28.886999999999997,56.105000000000004 28.38,55.58800000000001 27.945999999999998,55.016000000000005 L 23.72,55.870000000000005 L 22.134999999999998,52.172000000000004 L 25.711,49.734 C 25.496,48.291000000000004 25.564999999999998,46.809000000000005 25.913999999999998,45.385000000000005 L 22.581999999999997,42.62200000000001 L 24.531999999999996,39.087 L 28.635999999999996,40.346000000000004 C 29.661999999999995,39.243 30.873999999999995,38.423 32.17099999999999,37.827000000000005 L 32.25299999999999,33.52 L 36.23499999999999,32.789 L 37.77899999999999,36.811 C 39.21399999999999,36.923 40.63799999999999,37.32 41.96399999999999,37.99 L 45.41799999999999,35.349000000000004 L 48.42499999999999,38.031000000000006 L 46.27099999999999,41.769000000000005 C 47.106999999999985,42.996 47.679999999999986,44.346000000000004 47.97799999999999,45.751000000000005 L 52.16399999999999,46.80800000000001 L 51.960999999999984,50.830000000000005 L 47.694,51.484" fill="#010101"/>
	<path d="M 23.208,23.018 L 21.698,22.747 L 20.233,22.292 L 19.08,23.303 L 17.813,24.162 L 17.883,25.694 L 17.769,27.224 L 19.01,28.12 L 20.128,29.167 L 21.605,28.755 L 23.128,28.531 L 23.725,27.118 L 24.493,25.792 L 23.767,24.445 L 23.208,23.018" fill="#010101" points="23.208,23.018 21.698,22.747 20.233,22.292 19.08,23.303 17.813,24.162 17.883,25.694     17.769,27.224 19.01,28.12 20.128,29.167 21.605,28.755 23.128,28.531 23.725,27.118 24.493,25.792 23.767,24.445  "/>
	<path d="M 42.34,27.357 L 43.201,28.165 L 44.339,27.85 L 45.513,27.679 L 45.975,26.589 L 46.567,25.568 L 46.006,24.526 L 45.58,23.427 L 44.415,23.216 L 43.285,22.864 L 42.396,23.646 L 41.42,24.303 L 41.472,25.487 L 41.382,26.666 L 42.34,27.357" fill="#010101" points="42.34,27.357 43.201,28.165 44.339,27.85 45.513,27.679 45.975,26.589 46.567,25.568     46.006,24.526 45.58,23.427 44.415,23.216 43.285,22.864 42.396,23.646 41.42,24.303 41.472,25.487 41.382,26.666  "/>
	<path d="M 39.898,44.685 L 38.118,44.302 L 36.398,43.708 L 34.989,44.865 L 33.456,45.838 L 33.478,47.657 L 33.278,49.464 L 34.72,50.577 L 36.012,51.864 L 37.779,51.43 L 39.592,51.222 L 40.353,49.569 L 41.321,48.027 L 40.505,46.402 L 39.898,44.685" fill="#010101" points="39.898,44.685 38.118,44.302 36.398,43.708 34.989,44.865 33.456,45.838 33.478,47.657     33.278,49.464 34.72,50.577 36.012,51.864 37.779,51.43 39.592,51.222 40.353,49.569 41.321,48.027 40.505,46.402  "/>
</svg>
