<?xml version="1.0" ?>
<svg xmlns="http://www.w3.org/2000/svg" xmlns:ev="http://www.w3.org/2001/xml-events" xmlns:xlink="http://www.w3.org/1999/xlink" baseProfile="full" enable-background="new 0 0 95.302 100" height="600px" version="1.1" viewBox="0 0 95.302 100" width="572px" x="0px" xml:space="preserve" y="0px">
	<defs/>
	<path d="M 49.167,43.19 C 58.095,24.131999999999998 57.926,5.4609999999999985 57.625,3.1999999999999957 C 57.462,1.9719999999999958 55.209,0.9309999999999956 54.239,0.5769999999999955 C 53.269999999999996,0.22299999999999554 50.873999999999995,-0.4270000000000045 49.959999999999994,0.40499999999999553 C 47.72599999999999,2.4419999999999953 27.121999999999993,26.663999999999994 28.105999999999995,57.992999999999995 C 28.135999999999996,58.922999999999995 28.027999999999995,60.096999999999994 27.815999999999995,61.434999999999995 C 30.214999999999996,59.839 32.245999999999995,58.291 33.339,57.02499999999999 C 37.972,51.673 43.324,47.071 49.167,43.19 L 49.167,43.19" fill="#010101"/>
	<path d="M 15.27,73.028 C 13.644,73.867 11.953,74.74000000000001 10.338999999999999,75.613 C 8.447,74.056 5.736999999999998,73.682 3.421999999999999,74.877 C 0.32099999999999884,76.479 -0.8950000000000014,80.291 0.7059999999999986,83.393 C 2.3069999999999986,86.493 6.119999999999998,87.709 9.221,86.109 C 11.54,84.91199999999999 12.805,82.475 12.625,80.027 C 14.273,79.225 15.966000000000001,78.36 17.589,77.52 C 24.328,74.042 35.683,68.661 40.688,68.184 C 71.88900000000001,65.194 93.309,41.68899999999999 95.047,39.214999999999996 C 95.759,38.202 94.80799999999999,35.909 94.335,34.992 C 93.86,34.074999999999996 92.541,31.973 91.30499999999999,31.965999999999998 C 88.28099999999999,31.948999999999998 56.71499999999999,35.800999999999995 36.208999999999996,59.507 C 32.943,63.286 22.007,69.549 15.27,73.028 L 15.27,73.028" fill="#010101"/>
	<path d="M 21.87,82.126 C 21.243000000000002,83.845 20.592000000000002,85.63300000000001 19.996000000000002,87.367 C 17.55,87.50500000000001 15.303000000000003,89.06700000000001 14.410000000000002,91.513 C 13.215000000000002,94.79100000000001 14.904000000000002,98.42 18.183000000000003,99.616 C 21.461000000000002,100.81 25.089000000000002,99.122 26.285000000000004,95.844 C 27.180000000000003,93.392 26.459000000000003,90.744 24.667000000000005,89.06599999999999 C 25.337000000000007,87.35799999999999 25.994000000000007,85.576 26.620000000000005,83.85799999999999 C 27.470000000000006,81.529 28.544000000000004,78.71499999999999 29.723000000000006,75.85099999999998 C 27.334000000000007,76.91699999999999 24.971000000000007,78.05299999999998 22.957000000000008,79.05299999999998 C 22.582,80.144 22.215,81.178 21.87,82.126" fill="#010101"/>
</svg>
