<?xml version="1.0" ?>
<svg xmlns="http://www.w3.org/2000/svg" xmlns:ev="http://www.w3.org/2001/xml-events" xmlns:xlink="http://www.w3.org/1999/xlink" baseProfile="full" enable-background="new 0 0 99.593 100" height="600px" version="1.1" viewBox="0 0 99.593 100" width="598px" x="0px" xml:space="preserve" y="0px">
	<defs/>
	<path d="M 71.953,24.053 L 80.712,13.542000000000002 L 82.464,15.294000000000002 L 71.953,24.053" fill="#010101"/>
	<path d="M 80.85,0.0 C 72.49199999999999,0.0 65.746,6.787 65.746,15.146 C 65.746,21.835 70.054,27.486 76.06899999999999,29.489 L 76.06899999999999,32.577 C 69.64299999999999,31.24 62.02199999999999,30.377 53.77199999999999,30.165 C 54.47399999999999,29.253 54.91499999999999,28.127 54.91499999999999,26.865 C 54.91499999999999,23.916999999999998 52.63199999999999,21.491 49.79599999999999,21.491 C 46.959999999999994,21.491 44.67699999999999,23.915 44.67699999999999,26.865 C 44.67699999999999,28.127 45.114999999999995,29.253 45.818999999999996,30.165 C 26.854999999999997,30.651 11.150999999999996,34.558 5.795999999999992,39.811 L 3.85,39.811 C 1.734,39.811 0.0,41.588 0.0,43.788 C 0.0,45.986999999999995 1.734,47.76499999999999 3.85,47.76499999999999 L 95.743,47.76499999999999 C 97.85799999999999,47.76499999999999 99.594,45.986999999999995 99.594,43.788 C 99.594,41.589 97.859,39.811 95.743,39.811 L 93.797,39.811 C 92.076,38.123 89.252,36.584 85.632,35.242 L 85.632,29.488 C 91.649,27.486 95.997,21.834 95.997,15.145 C 95.997,6.787 89.208,0.0 80.85,0.0 M 80.85,2.369 C 87.889,2.369 93.627,8.106 93.627,15.145999999999999 C 93.627,22.185 87.889,27.881 80.85,27.881 C 73.81099999999999,27.881 68.116,22.185000000000002 68.116,15.146 C 68.116,8.106 73.811,2.369 80.85,2.369" fill="#010101"/>
	<path d="M 95.609,51.626 L 3.984,51.626 C 1.423,51.626 0.0,53.049 0.0,55.609 C 0.0,58.171 1.423,59.593 3.984,59.593 L 7.9670000000000005,61.585 L 7.9670000000000005,88.05 C 7.9670000000000005,94.426 13.542000000000002,100.0 19.918,100.0 L 79.672,100.0 C 86.05,100.0 91.624,94.426 91.624,88.05 L 91.624,61.586 L 95.607,59.594 C 98.169,59.594 99.591,58.171 99.591,55.61 C 99.594,53.049 98.17,51.626 95.609,51.626 L 95.609,51.626" fill="#010101"/>
</svg>
