<?xml version="1.0" ?>
<svg xmlns="http://www.w3.org/2000/svg" xmlns:ev="http://www.w3.org/2001/xml-events" xmlns:xlink="http://www.w3.org/1999/xlink" baseProfile="full" enable-background="new 0 0 86.769 100" height="600px" version="1.1" viewBox="0 0 86.769 100" width="521px" x="0px" xml:space="preserve" y="0px">
	<defs/>
	<path d="M 85.794,13.437 L 73.398,0.989 C 71.685,-0.743 68.274,-0.1369999999999999 65.813,2.317 L 54.524,13.574 L 15.713,13.574 L 15.713,29.277 L 0.0,29.277 L 0.0,100.0 L 55.006,100.0 L 55.006,84.284 L 70.723,84.284 L 70.723,34.674 L 84.447,21.002 C 86.895,18.554 87.513,15.156 85.794,13.437 M 41.92,58.567 L 24.785,65.507 L 21.103,61.809000000000005 L 28.102,44.7 L 41.92,58.567 M 18.802,16.66 L 51.426,16.66 L 38.766000000000005,29.277 L 18.802,29.277 L 18.802,16.66 M 3.089,96.907 L 3.089,32.37 L 35.661,32.37 L 25.706000000000003,42.291 L 15.068000000000003,68.28099999999999 C 13.840000000000003,71.26199999999999 15.299000000000003,72.72099999999999 18.271000000000004,71.52999999999999 L 44.316,60.975999999999985 L 51.914,53.41099999999999 L 51.914,96.90699999999998 L 3.089,96.90699999999998 L 3.089,96.907 M 67.637,81.191 L 55.006,81.191 L 55.006,50.332 L 67.637,37.754000000000005 L 67.637,81.191"/>
</svg>
