<?xml version="1.0" ?>
<svg xmlns="http://www.w3.org/2000/svg" xmlns:ev="http://www.w3.org/2001/xml-events" xmlns:xlink="http://www.w3.org/1999/xlink" baseProfile="full" enable-background="new 0 0 89.862 100" height="600px" version="1.1" viewBox="0 0 89.862 100" width="540px" x="0px" xml:space="preserve" y="0px">
	<defs/>
	<path d="M 34.439,62.188 L 30.143,70.07900000000001 C 29.935000000000002,70.54100000000001 29.349,71.31500000000001 27.89,71.31500000000001 C 26.106,71.31500000000001 23.112000000000002,70.18900000000001 21.185000000000002,69.36900000000001 L 20.807000000000002,70.18200000000002 L 17.89,68.83500000000002 L 18.267,68.02100000000003 C 15.702,66.73900000000003 12.524999999999999,64.87100000000002 11.939,63.26200000000003 L 11.705,62.376000000000026 L 11.939,61.751000000000026 L 15.22,53.288000000000025 C 11.847000000000001,55.42400000000003 8.931000000000001,60.08500000000002 5.259,67.55200000000002 L 1.0920000000000005,76.32800000000002 C 0.742,77.103 0.391,77.884 0.0,78.691 L 24.921,90.214 C 25.298,89.40599999999999 25.65,88.619 26.015,87.858 L 30.012,79.01700000000001 C 33.333,71.374 34.999,66.146 34.439,62.188 M 26.445,81.425 L 23.346,88.14399999999999 L 2.591,78.542 L 5.703,71.82300000000001 C 6.588,69.935 8.88,68.959 11.758,68.959 C 13.905999999999999,68.959 16.393,69.513 18.854,70.646 C 24.583,73.301 27.994,78.119 26.445,81.425"/>
	<path d="M 24.804,78.417 C 25.116,79.29 25.128999999999998,80.052 24.843,80.683 L 22.486,85.79400000000001 L 4.948,77.676 L 7.3180000000000005,72.572 C 7.852,71.42 9.505,70.729 11.758000000000001,70.729 C 13.724,70.729 15.976,71.27 18.112000000000002,72.259 C 21.406,73.783 23.971,76.139 24.804,78.417"/>
	<path d="M 29.53,53.894 C 30.142,54.155 30.78,54.324 31.444000000000003,54.375 C 31.548000000000002,55.007 31.588,55.651 31.522000000000002,56.309 C 33.358000000000004,57.442 34.465,58.385999999999996 34.27,58.788999999999994 L 28.541000000000004,69.31599999999999 C 28.215000000000003,70.01199999999999 24.622000000000003,69.02999999999999 20.481,67.12199999999999 C 16.366,65.20799999999998 13.268,63.09899999999999 13.593000000000002,62.389999999999986 L 17.915000000000003,51.21799999999999 C 18.110000000000003,50.81499999999999 19.53,51.04199999999999 21.561000000000003,51.69899999999999 C 22.824000000000005,50.40399999999999 24.491000000000003,49.71399999999999 26.131000000000004,49.71399999999999 C 26.248000000000005,50.29399999999999 26.430000000000003,50.892999999999994 26.795000000000005,51.517999999999994 C 25.675000000000004,51.315999999999995 24.516000000000005,51.654999999999994 23.514000000000006,52.38999999999999 C 24.516000000000005,52.773999999999994 25.584000000000007,53.22299999999999 26.678000000000008,53.73799999999999 C 27.78400000000001,54.25299999999999 28.81300000000001,54.76599999999999 29.738000000000007,55.273999999999994 C 29.712000000000007,54.81199999999999 29.699000000000005,54.349999999999994 29.543000000000006,53.919999999999995 C 29.543,53.907 29.543,53.901 29.53,53.894"/>
	<path d="M 72.107,55.71 C 71.859,57.058 72.17099999999999,59.609 72.745,60.853 L 87.393,92.636 C 88.134,94.25699999999999 88.994,96.1 87.718,98.10499999999999 C 86.96300000000001,99.27699999999999 85.64800000000001,99.99999999999999 84.254,99.99999999999999 L 84.254,99.99999999999999 C 81.793,99.99999999999999 80.68700000000001,98.13099999999999 79.78800000000001,96.64099999999999 L 61.69,66.218 L 56.782,76.178 C 55.635999999999996,78.509 53.357,81.823 51.599,83.71 L 41.73,94.348 C 40.440999999999995,95.729 39.437999999999995,96.809 37.55,96.809 C 35.974999999999994,96.809 34.543,95.905 33.852,94.485 C 32.705999999999996,92.083 34.099999999999994,90.344 35.336,88.815 L 45.075,76.745 C 46.117000000000004,75.45 47.497,72.807 47.952000000000005,71.19800000000001 L 51.572,58.56200000000001 C 52.093,56.707000000000015 52.705000000000005,53.40600000000001 52.861000000000004,51.49200000000001 L 54.463,32.07900000000001 C 46.585,34.68300000000001 38.864000000000004,44.982000000000006 36.247,49.29200000000001 C 35.14,51.095000000000006 34.203,52.65100000000001 31.859,52.65700000000001 L 31.846,52.65700000000001 C 30.414,52.65700000000001 29.059,51.88900000000001 28.33,50.63900000000001 C 27.119,48.58800000000001 28.003999999999998,46.97300000000001 29.032999999999998,45.11800000000001 C 29.631999999999998,44.04400000000001 44.202,18.355000000000008 63.849999999999994,19.89800000000001 C 72.339,20.62700000000001 75.047,27.007000000000012 76.844,31.22600000000001 C 77.261,32.20900000000001 77.66399999999999,33.16600000000001 78.133,34.01900000000001 L 89.34299999999999,54.28500000000001 C 90.41099999999999,56.22500000000001 89.773,58.738000000000014 87.87199999999999,59.85700000000001 C 85.95799999999998,60.984000000000016 83.54899999999998,60.457000000000015 82.37699999999998,58.582000000000015 L 74.03099999999998,45.262000000000015 L 72.107,55.71"/>
	<path d="M 76.977,7.906 C 77.824,13.042 74.334,17.892 69.20400000000001,18.732 C 64.061,19.578 59.218,16.089 58.385000000000005,10.951999999999998 C 57.538000000000004,5.815999999999998 61.01500000000001,0.9659999999999975 66.14500000000001,0.12599999999999767 C 71.287,-0.72 76.131,2.77 76.977,7.906"/>
</svg>
