<?xml version="1.0" ?>
<svg xmlns="http://www.w3.org/2000/svg" xmlns:ev="http://www.w3.org/2001/xml-events" xmlns:xlink="http://www.w3.org/1999/xlink" baseProfile="full" enable-background="new 0 0 64.831 100" height="600px" version="1.1" viewBox="0 0 64.831 100" width="390px" x="0px" xml:space="preserve" y="0px">
	<defs/>
	<path d="M 59.063,49.16 C 55.221000000000004,45.293 47.995000000000005,42.154999999999994 37.383,39.733 L 37.383,17.884 C 41.666000000000004,19.446 44.322,22.422 45.338,26.822000000000003 L 62.109,24.973000000000003 C 60.957,19.387 58.306000000000004,14.927000000000003 54.153,11.594000000000003 C 50.0,8.255 44.408,6.23 37.383,5.534 L 37.383,0.0 L 27.774,0.0 L 27.774,5.534 C 20.17,6.159 14.089,8.555 9.512,12.709 C 4.9350000000000005,16.862 2.657,21.993000000000002 2.657,28.112000000000002 C 2.657,34.147000000000006 4.676,39.278000000000006 8.712,43.516000000000005 C 12.762,47.74100000000001 19.116,50.89900000000001 27.775,52.989000000000004 L 27.775,76.4 C 25.392,75.44300000000001 23.223999999999997,73.88000000000001 21.284,71.712 C 19.337,69.551 18.009,66.973 17.299999999999997,63.991 L 0.0,65.566 C 1.328,72.903 4.375,78.581 9.141,82.604 C 13.92,86.633 20.131,89.036 27.774,89.824 L 27.774,100.0 L 37.383,100.0 L 37.383,89.538 C 46.002,88.496 52.735,85.67099999999999 57.565,81.042 C 62.409,76.433 64.831,70.742 64.831,63.991 C 64.831,57.962 62.904,53.015 59.063,49.16 M 27.774,37.051 C 24.896,36.009 22.761000000000003,34.649 21.341,32.943000000000005 C 19.928,31.250000000000004 19.225,29.414000000000005 19.225,27.442000000000004 C 19.225,25.274000000000004 19.999000000000002,23.301000000000002 21.549,21.511000000000003 C 23.085,19.734 25.169,18.458000000000002 27.773,17.709000000000003 L 27.773,37.051 L 27.774,37.051 M 45.469,73.308 C 43.392,75.37100000000001 40.697,76.673 37.383,77.188 L 37.383,55.398 C 41.367000000000004,56.355000000000004 44.219,57.748000000000005 45.97,59.551 C 47.708,61.355000000000004 48.58,63.523 48.58,66.009 C 48.581,68.809 47.545,71.23 45.469,73.308"/>
</svg>
