<?xml version="1.0" ?>
<svg xmlns="http://www.w3.org/2000/svg" xmlns:ev="http://www.w3.org/2001/xml-events" xmlns:xlink="http://www.w3.org/1999/xlink" baseProfile="full" enable-background="new 0 0 100 100" height="600px" version="1.1" viewBox="0 0 100 100" width="600px" x="0px" xml:space="preserve" y="0px">
	<defs/>
	<path d="M 50.0,0.0 C 22.386,0.0 0.0,22.383 0.0,50.006 C 0.0,77.617 22.386,100.0 50.0,100.0 C 63.809,100.0 76.309,94.401 85.358,85.358 C 94.407,76.309 100.0,63.809 100.0,50.006 C 100.0,22.383 77.61,0.0 50.0,0.0 M 50.0,92.063 C 26.803,92.063 7.933,73.196 7.933,50.006 C 7.933,26.81 26.803,7.936 50.0,7.936 L 50.0,50.0 L 79.733,79.733 C 72.116,87.344 61.595,92.063 50.0,92.063"/>
</svg>
