<?xml version="1.0" ?>
<svg xmlns="http://www.w3.org/2000/svg" xmlns:ev="http://www.w3.org/2001/xml-events" xmlns:xlink="http://www.w3.org/1999/xlink" baseProfile="full" enable-background="new 0 0 100 99.987" height="600px" version="1.1" viewBox="0 0 100 99.987" width="600px" x="0px" xml:space="preserve" y="0px">
	<defs/>
	<path d="M 99.968,0.0 L 0.0,0.026 L 0.013,99.98599999999999 L 100.0,99.961 L 99.968,0.0 M 93.483,93.575 L 72.168,93.575 L 72.168,72.142 L 93.47,72.122 L 93.483,93.575 M 6.602,6.289 L 27.93,6.289 L 27.93,27.722 L 17.272,27.722 L 6.608,27.722 L 6.602,6.289 M 28.463,50.195 L 37.962,50.195 L 28.463,69.219 L 28.463,50.195 M 28.463,49.668 L 28.457,38.959 L 28.457,28.249 L 49.766000000000005,28.235999999999997 L 49.766000000000005,31.575999999999997 C 49.499,31.530999999999995 49.239000000000004,31.419999999999998 48.93900000000001,31.438999999999997 C 47.89800000000001,31.529999999999998 46.96600000000001,32.168 46.492000000000004,33.111999999999995 L 38.223000000000006,49.66799999999999 L 28.463,49.66799999999999 L 28.463,49.668 M 50.3,40.996 L 56.803999999999995,49.668000000000006 L 50.306,49.668000000000006 L 50.3,40.996 M 71.628,50.195 L 71.628,55.123 L 70.593,57.884 L 64.824,50.195 L 71.628,50.195 M 71.628,28.236 L 71.628,49.668 L 64.421,49.668 L 51.66,32.644 C 51.302,32.168 50.827,31.863 50.293,31.674 L 50.293,28.236 L 60.957,28.236 L 71.628,28.236 M 49.733,40.248 L 49.772,40.287 L 49.778,49.668 L 45.032,49.668 L 49.733,40.248 M 57.207,50.195 L 69.056,65.99 C 69.66799999999999,66.791 70.645,67.169 71.64099999999999,67.136 L 71.64099999999999,71.615 L 50.30599999999999,71.628 L 50.30599999999999,50.195 L 57.207,50.195 M 72.155,50.195 L 73.476,50.195 L 72.155,53.711 L 72.155,50.195 M 72.155,49.668 L 72.155,28.236 L 81.699,28.236 L 73.678,49.668 L 72.155,49.668 M 72.155,27.708 L 72.142,16.96 L 72.142,6.276 L 89.922,6.263 L 81.895,27.708 L 72.155,27.708 M 71.628,27.708 L 60.957,27.708 L 50.293,27.708 L 50.293,6.276 L 71.608,6.276 L 71.62100000000001,16.96 L 71.628,27.708 M 49.766,27.708 L 28.456999999999997,27.721 L 28.456999999999997,6.289 L 49.766,6.276 L 49.766,27.708 M 27.93,28.249 L 27.93,38.958 L 27.936,49.667 L 6.608,49.681 L 6.608,28.249 L 17.272,28.249 L 27.93,28.249 M 27.936,50.195 L 27.936,70.267 L 27.259,71.627 L 17.272,71.627 L 6.621,71.641 L 6.608,50.208 L 27.936,50.195 M 26.999,72.155 L 24.616,76.921 L 6.621,88.932 L 6.621,72.168 L 26.999,72.155 M 27.943,82.018 L 27.943,82.904 L 27.963,93.588 L 10.605,93.588 L 27.943,82.018 M 44.772,50.195 L 49.778,50.195 L 49.778,71.627 L 34.069,71.627 L 44.772,50.195 M 72.168,71.615 L 72.168,67.071 C 73.15100000000001,66.849 73.97800000000001,66.185 74.349,65.228 L 79.98100000000001,50.18299999999999 L 93.47,50.18299999999999 L 93.47,71.60199999999999 L 72.168,71.615 M 80.183,49.655 L 88.20400000000001,28.222 L 93.471,28.222 L 93.471,49.655 L 80.183,49.655 M 88.405,27.708 L 93.469,14.172999999999998 L 93.469,27.695 L 88.405,27.708 M 28.47,82.904 L 28.47,81.67399999999999 L 28.665,81.55 C 29.107,81.25699999999999 29.459,80.841 29.692999999999998,80.372 L 33.808,72.155 L 49.778,72.155 L 49.792,82.86500000000001 L 49.798,93.57500000000002 L 28.483,93.58800000000002 L 28.47,82.904 M 50.306,72.155 L 71.64099999999999,72.142 L 71.64099999999999,93.57499999999999 L 50.325,93.57499999999999 L 50.319,82.86499999999998 L 50.306,72.155"/>
</svg>
