<?xml version="1.0" ?>
<svg xmlns="http://www.w3.org/2000/svg" xmlns:ev="http://www.w3.org/2001/xml-events" xmlns:xlink="http://www.w3.org/1999/xlink" baseProfile="full" enable-background="new 0 0 99.165 100" height="600px" version="1.1" viewBox="0 0 99.165 100" width="595px" x="0px" xml:space="preserve" y="0px">
	<defs/>
	<path d="M 39.315,91.814 L 61.032,87.88699999999999 C 61.059999999999995,87.62299999999999 61.074,87.34399999999998 61.074,87.06599999999999 L 61.074,84.96399999999998 L 38.298,89.06999999999998 C 38.494,90.046 38.842,90.965 39.315,91.814"/>
	<path d="M 60.602,90.102 L 40.66499999999999,93.694 C 41.318999999999996,94.418 42.07099999999999,95.031 42.919999999999995,95.532 L 42.919999999999995,100.0 L 56.25699999999999,100.0 L 56.25699999999999,95.531 C 58.291,94.306 59.85,92.385 60.602,90.102"/>
	<path d="M 75.526,50.48 C 75.526,36.153999999999996 63.91499999999999,24.542999999999996 49.57599999999999,24.542999999999996 C 35.263999999999996,24.542999999999996 23.638999999999992,36.153999999999996 23.638999999999992,50.48 C 23.638999999999992,60.684 29.52799999999999,69.497 38.08999999999999,73.743 L 38.08999999999999,81.943 L 61.07399999999999,77.795 L 61.07399999999999,73.743 C 69.637,69.497 75.526,60.685 75.526,50.48"/>
	<path d="M 82.737,44.563 L 82.027,41.417 L 98.441,37.658 L 99.165,40.818 L 82.737,44.563" points="82.737,44.563 82.027,41.417 98.441,37.658 99.165,40.818 "/>
	<path d="M 72.951,5.708 L 70.027,4.302 L 62.732,19.449 L 65.641,20.855 L 72.951,5.708" points="72.951,5.708 70.027,4.302 62.732,19.449 65.641,20.855 "/>
	<path d="M 36.419,19.449 L 29.125,4.302 L 26.201,5.708 L 33.51,20.855 L 36.419,19.449" points="36.419,19.449 29.125,4.302 26.201,5.708 33.51,20.855 "/>
	<path d="M 17.124,41.417 L 0.71,37.658 L 0.0,40.818 L 16.414,44.563 L 17.124,41.417" points="17.124,41.417 0.71,37.658 0,40.818 16.414,44.563 "/>
	<path d="M 38.09,86.983 L 61.075,82.834 L 61.075,79.925 L 38.09,84.06 L 38.09,86.983" points="38.09,86.983 61.075,82.834 61.075,79.925 38.09,84.06 "/>
	<path d="M 80.839,15.836 L 84.078,15.836 L 84.078,32.667 L 80.839,32.667 L 80.839,15.836" height="16.831" transform="matrix(0.6231 0.7821 -0.7821 0.6231 50.0458 -55.3536)" width="3.239" x="80.839" y="15.836"/>
	<path d="M 47.96,0.0 L 51.19,0.0 L 51.19,16.832 L 47.96,16.832 L 47.96,0.0" height="16.832" width="3.23" x="47.96"/>
	<path d="M 8.277,22.632 L 25.107999999999997,22.632 L 25.107999999999997,25.871000000000002 L 8.277,25.871000000000002 L 8.277,22.632" height="3.239" transform="matrix(0.7817 0.6237 -0.6237 0.7817 18.7697 -5.1161)" width="16.831" x="8.277" y="22.632"/>
</svg>
