<?xml version="1.0" ?>
<svg xmlns="http://www.w3.org/2000/svg" xmlns:ev="http://www.w3.org/2001/xml-events" xmlns:xlink="http://www.w3.org/1999/xlink" baseProfile="full" enable-background="new 0 0 100 64.844" height="390px" version="1.1" viewBox="0 0 100 64.844" width="600px" x="0px" xml:space="preserve" y="0px">
	<defs/>
	<path d="M 24.948,11.445 C 24.948,17.773 19.818,22.89 13.516,22.89 C 7.175,22.89 2.058,17.773 2.058,11.445 C 2.057,5.13 7.174,0.0 13.516,0.0 C 19.818,0.0 24.948,5.13 24.948,11.445"/>
	<path d="M 75.052,11.445 C 75.052,17.773 80.183,22.89 86.48500000000001,22.89 C 92.82600000000001,22.89 97.95700000000001,17.773 97.95700000000001,11.445 C 97.956,5.13 92.825,0.0 86.484,0.0 C 80.183,0.0 75.052,5.13 75.052,11.445"/>
	<path d="M 43.672,50.781 C 43.412,48.346 44.349,46.092999999999996 45.937999999999995,44.452999999999996 C 36.24999999999999,42.604 32.278999999999996,37.87799999999999 28.828999999999994,33.605999999999995 C 27.148999999999994,31.509999999999994 25.547999999999995,29.517999999999994 23.424999999999994,28.110999999999994 C 23.359999999999992,28.071999999999992 23.281999999999993,28.071999999999992 23.229999999999993,28.019999999999992 C 21.419999999999995,26.52199999999999 19.127999999999993,25.571999999999992 16.602999999999994,25.571999999999992 L 10.417999999999996,25.571999999999992 C 4.688,25.573 0.0,30.248 0.0,35.977 L 0.0,64.844 L 27.018,64.844 L 27.018,46.185 C 30.963,49.636 36.537,52.917 45.104,54.349000000000004 C 44.388,53.308 43.828,52.136 43.672,50.781"/>
	<path d="M 89.597,25.573 L 83.399,25.573 C 80.886,25.573 78.582,26.524 76.785,28.021 C 76.72,28.073 76.64099999999999,28.073 76.59,28.112000000000002 C 74.467,29.518 72.86500000000001,31.498 71.173,33.607 C 67.384,38.295 63.087,43.646 51.069,44.974000000000004 C 48.348,45.286 46.395,47.73500000000001 46.694,50.456 C 46.967000000000006,52.995000000000005 49.116,54.870000000000005 51.615,54.870000000000005 C 51.798,54.870000000000005 51.980000000000004,54.856 52.176,54.844 C 62.358000000000004,53.711 68.66,50.091 72.99600000000001,46.25 L 72.99600000000001,64.844 L 100.0,64.844 L 100.0,35.977 C 100.0,30.248 95.312,25.573 89.597,25.573"/>
</svg>
