<?xml version="1.0" ?>
<svg xmlns="http://www.w3.org/2000/svg" xmlns:ev="http://www.w3.org/2001/xml-events" xmlns:xlink="http://www.w3.org/1999/xlink" baseProfile="full" enable-background="new 0 0 52.68 100" height="600px" version="1.1" viewBox="0 0 52.68 100" width="317px" x="0px" xml:space="preserve" y="0px">
	<defs/>
	<path d="M 45.35,63.874 L 45.35,69.36200000000001 C 45.35,78.73 38.507000000000005,86.49100000000001 29.562,88.034 L 29.562,93.548 L 34.406,93.548 L 34.406,100.0 L 18.27,100.0 L 18.27,93.548 L 23.11,93.548 L 23.11,88.034 C 14.171,86.491 7.332,78.73 7.332,69.362 L 7.332,63.873999999999995 C 7.332,62.089999999999996 8.777,60.644999999999996 10.558,60.644999999999996 C 12.342,60.644999999999996 13.786999999999999,62.089999999999996 13.786999999999999,63.873999999999995 L 13.786999999999999,69.362 C 13.786999999999999,76.282 19.415,81.907 26.336,81.907 C 33.26,81.907 38.897999999999996,76.282 38.897999999999996,69.362 L 38.897999999999996,63.873999999999995 C 38.897999999999996,62.089999999999996 40.342999999999996,60.644999999999996 42.126999999999995,60.644999999999996 C 43.904,60.645 45.35,62.09 45.35,63.874"/>
	<path d="M 26.336,35.899 C 20.997,35.899 16.660999999999998,40.222 16.660999999999998,45.587 L 16.660999999999998,67.78800000000001 C 16.660999999999998,73.126 20.997,77.46900000000001 26.336,77.46900000000001 C 31.683999999999997,77.46900000000001 36.019999999999996,73.126 36.019999999999996,67.78800000000001 L 36.019999999999996,45.586 C 36.02,40.222 31.684,35.899 26.336,35.899"/>
	<path d="M 38.272,30.0 C 38.272,29.688 38.207,29.395 38.096,29.108 C 36.123,24.349 31.526999999999997,21.256 26.397,21.224 L 26.194999999999997,21.224 C 21.057999999999996,21.185 16.438999999999997,24.199 14.387999999999996,28.932000000000002 C 13.892999999999997,30.098000000000003 14.423999999999996,31.439000000000004 15.575999999999997,31.94 C 16.747999999999998,32.428000000000004 18.098999999999997,31.901 18.596999999999998,30.749000000000002 C 19.898999999999997,27.715000000000003 22.889999999999997,25.782000000000004 26.171999999999997,25.801000000000002 L 26.374,25.801000000000002 C 29.651,25.827 32.607,27.826 33.876999999999995,30.853 C 34.339,32.018 35.693,32.578 36.852999999999994,32.083 C 37.738,31.726 38.253,30.886 38.272,30.0"/>
	<path d="M 43.461,23.217 C 44.144999999999996,22.779999999999998 44.535,22.044999999999998 44.535,21.282999999999998 C 44.535,20.872999999999998 44.418,20.436999999999998 44.178,20.066 C 40.355999999999995,13.907 33.735,10.175999999999998 26.473,10.136999999999999 L 26.294,10.136999999999999 C 19.025,10.072 12.356,13.698999999999998 8.436,19.799 C 7.756,20.86 8.049,22.279 9.11,22.956 C 10.174,23.646 11.587,23.347 12.283999999999999,22.279 C 15.363,17.5 20.575,14.681000000000001 26.255,14.713999999999999 L 26.441,14.713999999999999 C 32.120999999999995,14.758999999999999 37.304,17.662999999999997 40.298,22.473999999999997 C 40.968,23.562 42.387,23.881 43.461,23.217"/>
	<path d="M 52.348,14.799 C 46.873,5.613 37.23,0.072 26.557,0.001 L 26.354999999999997,0.001 C 15.685,-0.077 5.958,5.32 0.34,14.434 C -0.321,15.508 0.008000000000000007,16.913999999999998 1.095,17.592 C 2.1719999999999997,18.25 3.588,17.904 4.249,16.837 C 8.999,9.096 17.27,4.506 26.339,4.571 L 26.525,4.571 C 35.578,4.654999999999999 43.781,9.356 48.417,17.155 C 49.067,18.236 50.474000000000004,18.607 51.562000000000005,17.949 C 52.278000000000006,17.513 52.681000000000004,16.764000000000003 52.681000000000004,15.990000000000002 C 52.68,15.586 52.582,15.189 52.348,14.799"/>
</svg>
