<?xml version="1.0" ?>
<svg xmlns="http://www.w3.org/2000/svg" xmlns:ev="http://www.w3.org/2001/xml-events" xmlns:xlink="http://www.w3.org/1999/xlink" baseProfile="full" enable-background="new 0 0 97.179 100" height="600px" version="1.1" viewBox="0 0 97.179 100" width="584px" x="0px" xml:space="preserve" y="0px">
	<defs/>
	<path d="M 96.201,16.12 L 83.727,3.6 C 82.00800000000001,1.862 78.578,2.467 76.10300000000001,4.9350000000000005 L 64.677,16.322 L 48.958,0.0 L 0.0,0.0 L 0.0,100.0 L 77.035,100.0 L 77.035,41.471 L 94.84,23.73 C 97.308,21.27 97.926,17.852 96.201,16.12 M 50.27,13.047 L 58.935,22.045 L 54.196000000000005,26.772000000000002 L 50.27,26.772000000000002 L 50.27,13.047 M 52.067,61.517 L 34.834,68.49600000000001 L 31.129000000000005,64.778 L 38.17,47.565000000000005 L 52.067,61.517 M 68.922,91.895 L 8.105,91.895 L 8.105,8.105 L 44.18900000000001,8.105 L 44.18900000000001,32.851 L 48.092000000000006,32.851 L 43.479000000000006,37.447 L 16.758,37.447 L 16.758,41.503 L 39.411,41.503 L 35.759,45.142 L 32.022,54.269000000000005 L 16.758,54.269000000000005 L 16.758,58.32600000000001 L 30.362,58.32600000000001 L 25.137,71.093 L 16.758000000000003,71.093 L 16.758000000000003,75.149 L 60.29,75.149 L 60.29,71.093 L 36.816,71.093 L 54.482,63.938 L 60.107,58.327000000000005 L 60.29,58.327000000000005 L 60.29,58.151 L 68.923,49.550000000000004 L 68.923,91.895 L 68.922,91.895"/>
</svg>
