<?xml version="1.0" ?>
<svg xmlns="http://www.w3.org/2000/svg" xmlns:ev="http://www.w3.org/2001/xml-events" xmlns:xlink="http://www.w3.org/1999/xlink" baseProfile="full" enable-background="new 0 0 100 83.114" height="499px" version="1.1" viewBox="0 0 100 83.114" width="600px" x="0px" xml:space="preserve" y="0px">
	<defs/>
	<path d="M 67.526,30.087 L 82.292,42.333 L 100.0,35.757 C 98.073,43.335 93.021,49.631 85.703,52.346 C 77.69500000000001,55.321 68.91900000000001,53.263999999999996 62.278000000000006,47.742 L 11.693,83.114 L 0.0,66.395 L 52.097,29.97 C 49.909,17.567 55.82,5.432 66.784,1.363 C 74.101,-1.3519999999999999 82.057,0.119 88.43700000000001,4.618 L 70.72900000000001,11.174 L 67.526,30.087"/>
	<path d="M 76.797,15.295 L 74.727,27.417 L 84.206,35.263 L 95.742,30.985 L 97.786,18.869 L 88.32,11.011 L 76.797,15.295" points="76.797,15.295 74.727,27.417 84.206,35.263 95.742,30.985 97.786,18.869 88.32,11.011 "/>
</svg>
