<?xml version="1.0" ?>
<svg xmlns="http://www.w3.org/2000/svg" xmlns:ev="http://www.w3.org/2001/xml-events" xmlns:xlink="http://www.w3.org/1999/xlink" baseProfile="full" enable-background="new 0 0 100 71.427" height="429px" version="1.1" viewBox="0 0 100 71.427" width="600px" x="0px" xml:space="preserve" y="0px">
	<defs/>
	<path d="M 50.495,8.23 C 47.038,4.923 27.174,-6.565 0.0,5.141 C 0.0,5.317 0.0,8.562 0.0,13.507 L 0.0,69.357 L 41.172,69.357 C 42.584999999999994,70.568 45.943999999999996,71.42699999999999 49.876999999999995,71.42699999999999 C 53.80199999999999,71.42699999999999 57.169,70.568 58.586999999999996,69.357 L 100.0,69.357 L 100.0,13.506999999999998 C 100.0,8.561999999999998 100.0,5.316999999999998 100.0,5.140999999999998 C 73.945,-6.343 53.125,5.805 50.495,8.23 M 46.803,65.359 C 46.803,63.157999999999994 27.473999999999997,50.294 5.155999999999999,64.33 L 5.155999999999999,9.877 C 9.575999999999999,7.341000000000001 15.520999999999999,5.788 22.083,5.788 C 35.742,5.788 46.803,10.27 46.803,18.584 L 46.803,65.359 M 95.163,64.33 C 72.845,50.294 53.528,63.158 53.528,65.359 L 53.528,18.585 C 53.528,10.271 64.59,5.7890000000000015 78.235,5.7890000000000015 C 84.797,5.7890000000000015 90.742,7.342000000000001 95.163,9.878000000000002 L 95.163,64.33"/>
</svg>
