<?xml version="1.0" ?>
<svg xmlns="http://www.w3.org/2000/svg" xmlns:ev="http://www.w3.org/2001/xml-events" xmlns:xlink="http://www.w3.org/1999/xlink" baseProfile="full" enable-background="new 0 0 63.64 99.997" height="600px" version="1.1" viewBox="0 0 63.64 99.997" width="383px" x="0px" xml:space="preserve" y="0px">
	<defs/>
	<path d="M 32.995,45.957 L 32.995,35.609 C 33.808,35.046 34.342999999999996,34.115 34.342999999999996,33.050000000000004 C 34.342999999999996,31.338000000000005 32.937,29.931000000000004 31.223999999999997,29.931000000000004 C 29.498999999999995,29.931000000000004 28.104999999999997,31.337000000000003 28.104999999999997,33.050000000000004 C 28.104999999999997,34.108000000000004 28.631999999999998,35.039 29.426999999999996,35.602000000000004 L 29.426999999999996,45.875 L 9.473,45.875 C 7.891000000000001,45.875 6.589,47.164 6.589,48.75 L 6.589,97.119 C 6.589,98.715 7.891,99.997 9.473,99.997 L 32.338,99.997 C 33.926,99.997 35.222,98.715 35.222,97.119 L 35.222,48.75 C 35.222,47.393 34.271,46.26 32.995,45.957 M 30.808,71.813 C 30.808,73.395 29.512,74.697 27.93,74.697 L 13.418,74.697 C 11.822999999999999,74.697 10.533999999999999,73.395 10.533999999999999,71.813 L 10.533999999999999,54.743 C 10.533999999999999,53.148 11.822999999999999,51.859 13.418,51.859 L 27.93,51.859 C 29.512,51.859 30.808,53.148 30.808,54.743 L 30.808,71.813"/>
	<path d="M 60.117,31.826 C 60.078,16.191 47.448,3.558 31.81,3.525 L 31.81,3.525 C 16.185,3.558 3.542,16.191 3.503,31.826 L 3.503,31.826 C 3.503,32.796 2.728,33.594 1.745,33.594 L 1.745,33.594 C 0.781,33.594 0.0,32.796 0.0,31.826 L 0.0,31.826 C 0.0,14.261 14.245,0.0 31.81,0.0 L 31.81,0.0 C 49.388999999999996,0.0 63.64,14.261 63.64,31.826 L 63.64,31.826 C 63.64,32.796 62.846000000000004,33.594 61.875,33.594 L 61.875,33.594 C 60.905,33.594 60.117,32.796 60.117,31.826 L 60.117,31.826"/>
	<path d="M 50.983,31.826 C 50.951,21.227 42.409,12.679000000000002 31.81,12.669 L 31.81,12.669 C 21.223999999999997,12.679 12.649999999999999,21.227 12.629999999999999,31.826 L 12.629999999999999,31.826 C 12.629999999999999,32.796 11.854999999999999,33.594 10.879,33.594 L 10.879,33.594 C 9.908999999999999,33.594 9.120999999999999,32.797000000000004 9.120999999999999,31.826 L 9.120999999999999,31.826 C 9.120999999999999,19.303 19.277,9.157 31.81,9.121000000000002 L 31.81,9.121000000000002 C 44.349999999999994,9.157000000000002 54.498999999999995,19.303000000000004 54.498999999999995,31.826 L 54.498999999999995,31.826 C 54.498999999999995,32.796 53.711,33.594 52.74099999999999,33.594 L 52.74099999999999,33.594 C 51.771,33.594 50.983,32.796 50.983,31.826 L 50.983,31.826"/>
	<path d="M 43.021,31.826 C 43.007,25.635 38.001000000000005,20.631 31.810000000000002,20.615000000000002 L 31.810000000000002,20.615000000000002 C 25.632,20.631 20.605000000000004,25.635 20.593000000000004,31.826 L 20.593000000000004,31.826 C 20.593000000000004,32.796 19.805000000000003,33.594 18.835000000000004,33.594 L 18.835000000000004,33.594 C 17.865000000000006,33.594 17.077000000000005,32.797000000000004 17.077000000000005,31.826 L 17.077000000000005,31.826 C 17.077000000000005,23.681 23.679000000000006,17.103 31.810000000000006,17.09 L 31.810000000000006,17.09 C 39.941,17.103 46.523,23.682 46.543000000000006,31.826 L 46.543000000000006,31.826 C 46.543000000000006,32.796 45.76200000000001,33.594 44.785000000000004,33.594 L 44.785000000000004,33.594 C 43.809,33.594 43.021,32.796 43.021,31.826 L 43.021,31.826"/>
</svg>
