<?xml version="1.0" ?>
<svg xmlns="http://www.w3.org/2000/svg" xmlns:ev="http://www.w3.org/2001/xml-events" xmlns:xlink="http://www.w3.org/1999/xlink" baseProfile="full" enable-background="new 0 0 100 100" height="600px" version="1.1" viewBox="0 0 100 100" width="600px" x="0px" xml:space="preserve" y="0px">
	<defs/>
	<path d="M 69.089,6.549 C 65.931,3.9610000000000003 63.736999999999995,4.57 60.573,10.211 C 58.483000000000004,13.941 55.156,14.391 53.118,14.277000000000001 L 53.132000000000005,13.531 C 55.495000000000005,12.356 57.161,9.973 57.161,7.164000000000001 C 57.161,3.2 53.952,0.0 50.0,0.0 C 46.048,0.0 42.826,3.2 42.826,7.165 C 42.826,9.974 44.493,12.357 46.862,13.526 L 46.869,14.278 C 44.838,14.392000000000001 41.504,13.943 39.414,10.212 C 36.263000000000005,4.571 34.062,3.9619999999999997 30.912,6.55 C 27.741,9.141 15.241,24.079 0.0,22.708 C 0.0,22.708 3.021,29.567 11.256,28.046999999999997 C 11.256,28.046999999999997 15.657,32.614 22.799,29.416999999999998 C 22.799,29.416999999999998 26.509999999999998,32.763999999999996 32.415,29.72 C 32.415,29.72 36.803,33.073 41.484,30.176 C 41.484,30.176 44.127,32.089999999999996 47.064,31.595 L 47.252,48.840999999999994 C 46.92,48.775999999999996 46.653000000000006,48.69799999999999 46.302,48.635999999999996 C 46.289,48.629999999999995 41.185,47.535999999999994 35.787,46.022 C 30.592,44.661 24.889,42.454 24.049,41.305 C 24.121,41.233 24.238,41.178 24.387999999999998,41.106 C 24.849999999999998,40.862 25.637999999999998,40.611000000000004 26.575999999999997,40.419000000000004 C 28.482999999999997,40.031000000000006 31.067999999999998,39.833000000000006 33.666,39.729000000000006 C 38.82899999999999,39.543000000000006 39.76,39.76800000000001 39.851,39.785000000000004 C 39.858,39.62200000000001 42.839,40.137 43.66,37.099000000000004 C 43.628,37.073 43.718999999999994,36.949000000000005 43.666999999999994,36.877 C 43.498,34.787000000000006 41.88999999999999,34.683 40.574,34.439 C 38.439,34.159 39.552,34.27 36.675,34.306 C 31.947999999999997,34.657999999999994 17.383999999999997,33.479 15.548999999999996,41.144999999999996 C 15.548999999999996,41.36 15.535999999999996,41.49699999999999 15.509999999999996,41.68599999999999 C 16.121999999999996,48.361999999999995 29.943999999999996,51.25899999999999 39.956999999999994,53.254999999999995 C 36.55899999999999,55.581999999999994 34.74199999999999,58.608999999999995 34.01899999999999,62.522999999999996 C 33.67399999999999,66.696 36.98799999999999,70.66799999999999 44.68299999999999,75.107 C 38.83599999999999,79.248 34.99499999999999,83.134 35.30799999999999,87.829 C 35.85499999999999,91.657 39.233999999999995,96.774 45.873999999999995,99.99699999999999 C 45.894,100.00399999999999 45.9,99.98999999999998 45.913,99.99699999999999 C 45.913,99.99699999999999 45.919,99.99699999999999 45.933,99.99699999999999 C 45.933,99.99699999999999 41.285,92.90699999999998 40.972,89.02699999999999 C 40.666000000000004,86.76099999999998 41.955,83.41499999999999 47.606,79.38399999999999 L 47.769,93.564 L 47.795,93.564 C 47.834,94.76899999999999 48.765,95.732 49.937000000000005,95.732 C 51.108000000000004,95.732 52.040000000000006,94.769 52.07900000000001,93.564 L 52.09900000000001,93.564 L 52.28700000000001,79.755 C 57.49500000000001,83.616 58.674000000000014,86.82499999999999 58.37400000000001,89.026 C 58.06200000000001,92.90599999999999 53.42000000000001,99.996 53.42000000000001,99.996 C 53.42700000000001,99.996 53.42700000000001,99.996 53.43300000000001,99.996 C 53.43300000000001,99.996 53.44700000000001,100.003 53.479000000000006,99.996 C 60.11300000000001,96.773 63.49900000000001,91.65599999999999 64.039,87.828 C 64.351,83.134 60.511,79.247 54.671,75.10600000000001 C 62.359,70.667 65.68,66.69500000000001 65.335,62.522000000000006 C 64.612,58.60900000000001 62.79599999999999,55.58200000000001 59.39099999999999,53.254000000000005 C 69.41099999999999,51.258 83.226,48.361000000000004 83.838,41.685 C 83.812,41.496 83.79899999999999,41.359 83.79899999999999,41.144000000000005 C 81.969,33.47800000000001 67.399,34.657000000000004 62.672,34.30500000000001 C 59.794999999999995,34.269000000000005 60.907999999999994,34.159000000000006 58.772999999999996,34.43800000000001 C 57.458,34.68200000000001 55.849999999999994,34.78600000000001 55.67999999999999,36.87600000000001 C 55.62799999999999,36.948000000000015 55.72599999999999,37.07100000000001 55.693999999999996,37.09800000000001 C 56.513999999999996,40.13500000000001 59.495999999999995,39.62000000000001 59.50299999999999,39.78400000000001 C 59.586999999999996,39.76700000000001 60.51899999999999,39.54300000000001 65.68799999999999,39.728000000000016 C 68.27899999999998,39.832000000000015 70.86399999999999,40.03100000000001 72.77099999999999,40.41800000000001 C 73.71499999999999,40.610000000000014 74.48999999999998,40.860000000000014 74.95899999999999,41.10500000000001 C 75.109,41.177000000000014 75.23199999999999,41.23200000000001 75.30499999999999,41.30400000000001 C 74.46499999999999,42.45300000000001 68.76199999999999,44.66000000000001 63.56699999999999,46.02100000000001 C 58.163,47.53500000000001 53.059,48.62800000000001 53.04599999999999,48.635000000000005 C 52.91599999999999,48.66100000000001 52.81199999999999,48.687000000000005 52.681999999999995,48.71000000000001 L 52.903999999999996,31.591000000000008 C 55.858999999999995,32.10900000000001 58.522,30.175000000000008 58.522,30.175000000000008 C 63.19,33.07200000000001 67.591,29.71900000000001 67.591,29.71900000000001 C 73.49499999999999,32.763000000000005 77.19999999999999,29.416000000000007 77.19999999999999,29.416000000000007 C 84.34199999999998,32.61300000000001 88.743,28.046000000000006 88.743,28.046000000000006 C 96.973,29.567 100.0,22.708 100.0,22.708 C 84.753,24.079 72.253,9.141 69.089,6.549 M 43.268,67.711 C 41.361000000000004,66.526 40.469,64.925 40.644,63.844 C 40.748,62.34 40.227,58.753 47.342999999999996,56.142 L 47.50599999999999,70.387 C 46.133,69.521 44.713,68.629 43.268,67.711 M 58.698,63.844 C 58.874,64.925 57.981,66.527 56.074,67.711 C 54.824,68.512 53.599999999999994,69.273 52.402,70.02799999999999 L 52.585,56.36299999999999 C 59.075,58.961 58.594,62.386 58.698,63.844"/>
</svg>
