<?xml version="1.0" ?>
<svg xmlns="http://www.w3.org/2000/svg" xmlns:ev="http://www.w3.org/2001/xml-events" xmlns:xlink="http://www.w3.org/1999/xlink" baseProfile="full" enable-background="new 0 0 98.005 100" height="600px" version="1.1" viewBox="0 0 98.005 100" width="589px" x="0px" xml:space="preserve" y="0px">
	<defs/>
	<path d="M 15.248,97.137 L 13.891,83.473 C 13.891,82.216 15.493,83.329 17.514,83.329 L 17.514,83.329 C 19.519,83.329 21.14,82.216 21.14,83.473 L 21.14,83.473 L 20.004,96.799 C 20.004,99.709 15.248,98.524 15.248,97.137"/>
	<path d="M 9.431,52.654 C -0.5230000000000015,48.155 0.28699999999999903,41.072 0.28699999999999903,41.072 C -0.969000000000001,43.572 1.702999999999999,65.381 12.076999999999998,65.381 C 16.719,65.381 20.619,57.679 9.431,52.654"/>
	<path d="M 9.431,37.244 C -0.5230000000000015,32.759 0.28699999999999903,25.676000000000002 0.28699999999999903,25.676000000000002 C -0.969000000000001,28.17 1.702999999999999,49.985 12.076999999999998,49.985 C 16.719,49.985 20.619,42.283 9.431,37.244"/>
	<path d="M 9.431,22.297 C -0.5230000000000015,17.831 0.28699999999999903,10.735000000000001 0.28699999999999903,10.735000000000001 C -0.969000000000001,13.235000000000001 1.702999999999999,35.031 12.076999999999998,35.031 C 16.719,35.031 20.619,27.349 9.431,22.297"/>
	<path d="M 23.233,65.381 C 33.607,65.381 36.266,43.572 35.022999999999996,41.072 C 35.022999999999996,41.072 35.827,48.155 25.866999999999997,52.654 C 14.691,57.679 18.578,65.381 23.233,65.381"/>
	<path d="M 9.431,68.434 C -0.5230000000000015,63.936 0.28699999999999903,56.852999999999994 0.28699999999999903,56.852999999999994 C -0.969000000000001,59.352999999999994 1.702999999999999,81.16199999999999 12.076999999999998,81.16199999999999 C 16.719,81.162 20.619,73.46 9.431,68.434"/>
	<path d="M 23.233,81.162 C 33.607,81.162 36.266,59.35300000000001 35.022999999999996,56.85300000000001 C 35.022999999999996,56.85300000000001 35.827,63.93600000000001 25.866999999999997,68.43400000000001 C 14.691,73.46 18.578,81.162 23.233,81.162"/>
	<path d="M 23.233,49.985 C 33.607,49.985 36.266,28.169999999999998 35.022999999999996,25.676 C 35.022999999999996,25.676 35.827,32.759 25.866999999999997,37.244 C 14.691,42.283 18.578,49.985 23.233,49.985"/>
	<path d="M 23.233,35.031 C 33.607,35.031 36.266,13.235 35.022999999999996,10.735 C 35.022999999999996,10.735 35.827,17.831 25.866999999999997,22.296999999999997 C 14.691,27.349 18.578,35.031 23.233,35.031"/>
	<path d="M 18.376,23.462 C 29.381,23.462 17.771,0.0 17.771,0.0 C 16.371,2.207 7.374,23.462 18.376,23.462"/>
	<path d="M 48.131,98.967 L 54.772,87.346 L 54.772,87.346 C 55.299,86.227 53.366,86.533 51.552,85.7 L 51.552,85.7 C 49.71,84.846 48.727,83.161 48.202,84.3 L 43.675,97.255 C 43.092,98.524 46.897,101.597 48.131,98.967"/>
	<path d="M 57.134,54.47 C 50.016,46.196 53.723,40.114999999999995 53.723,40.114999999999995 C 51.533,41.852999999999994 44.775,62.763999999999996 54.172,67.13199999999999 C 58.384,69.092 65.168,63.753 57.134,54.47"/>
	<path d="M 63.632,40.486 C 56.51,32.230999999999995 60.214,26.150999999999996 60.214,26.150999999999996 C 58.019999999999996,27.882999999999996 51.251999999999995,48.78699999999999 60.656,53.169 C 64.882,55.122 71.652,49.796 63.632,40.486"/>
	<path d="M 69.927,26.945 C 62.785000000000004,18.703 66.509,12.597 66.509,12.597 C 64.321,14.334999999999999 57.558,35.233 66.965,39.614 C 71.177,41.561 77.954,36.242 69.927,26.945"/>
	<path d="M 64.296,71.845 C 73.70200000000001,76.2 85.311,57.562 85.21900000000001,54.756 C 85.21900000000001,54.756 82.97300000000001,61.521 72.042,61.397 C 59.79,61.267 60.077,69.874 64.296,71.845"/>
	<path d="M 50.494,68.78 C 43.362,60.511 47.07,54.438 47.07,54.438 C 44.882,56.169000000000004 38.122,77.074 47.526,81.428 C 51.75,83.388 58.515,78.063 50.494,68.78"/>
	<path d="M 57.648,86.142 C 67.048,90.517 78.65700000000001,71.859 78.57900000000001,69.066 C 78.57900000000001,69.066 76.32600000000001,75.83 65.40200000000002,75.70700000000001 C 53.144,75.576 53.437,84.189 57.648,86.142"/>
	<path d="M 70.793,57.869 C 80.19300000000001,62.237 91.79400000000001,43.573 91.71600000000001,40.786 C 91.71600000000001,40.786 89.46400000000001,47.544000000000004 78.54,47.427 C 66.274,47.296 66.574,55.922 70.793,57.869"/>
	<path d="M 77.088,44.301 C 86.49499999999999,48.682 98.083,30.031000000000002 98.005,27.232000000000003 C 98.005,27.232000000000003 95.746,34.015 84.835,33.872 C 72.576,33.742 72.876,42.355 77.088,44.301"/>
	<path d="M 77.55,31.763 C 87.524,36.398 86.886,10.227 86.886,10.227 C 84.686,11.66 67.576,27.127 77.55,31.763"/>
</svg>
