<?xml version="1.0" ?>
<svg xmlns="http://www.w3.org/2000/svg" xmlns:ev="http://www.w3.org/2001/xml-events" xmlns:xlink="http://www.w3.org/1999/xlink" baseProfile="full" enable-background="new 0 0 100 100" height="600px" version="1.1" viewBox="0 0 100 100" width="600px" x="0px" xml:space="preserve" y="0px">
	<defs/>
	<path d="M 50.0,37.787 C 43.255,37.787 37.787,43.256 37.787,50.0 C 37.787,56.758 43.256,62.227000000000004 50.0,62.227000000000004 C 56.745,62.227000000000004 62.22,56.758 62.22,50.0 C 62.22,43.255 56.745,37.787 50.0,37.787"/>
	<path d="M 17.702,71.042 L 9.297,62.644 L 37.37,62.644 L 37.37,90.703 L 28.965,82.305 L 11.27,100.0 L 0.0,88.737 L 17.702,71.042" points="17.702,71.042 9.297,62.644 37.37,62.644 37.37,90.703 28.965,82.305 11.27,100 0,88.737 "/>
	<path d="M 88.743,100.0 L 100.0,88.737 L 82.305,71.042 L 90.703,62.644 L 62.649,62.644 L 62.644,90.703 L 71.042,82.305 L 88.743,100.0" points="88.743,100 100,88.737 82.305,71.042 90.703,62.644 62.649,62.644 62.644,90.703 71.042,82.305 "/>
	<path d="M 100.0,11.263 L 88.743,0.0 L 71.042,17.708 L 62.644,9.31 L 62.644,37.357 L 90.71,37.37 L 82.298,28.958 L 100.0,11.263" points="100,11.263 88.743,0 71.042,17.708 62.644,9.31 62.644,37.357 90.71,37.37 82.298,28.958 "/>
	<path d="M 9.303,37.37 L 37.357,37.37 L 37.376,9.297 L 28.971,17.708 L 11.27,0.0 L 0.0,11.276 L 17.702,28.958 L 9.303,37.37" points="9.303,37.37 37.357,37.37 37.376,9.297 28.971,17.708 11.27,0 0,11.276 17.702,28.958 "/>
</svg>
