<?xml version="1.0" ?>
<svg xmlns="http://www.w3.org/2000/svg" xmlns:ev="http://www.w3.org/2001/xml-events" xmlns:xlink="http://www.w3.org/1999/xlink" baseProfile="full" enable-background="new 0 0 91.333 100" height="600px" version="1.1" viewBox="0 0 91.333 100" width="549px" x="0px" xml:space="preserve" y="0px">
	<defs/>
	<path d="M 81.502,59.479 C 67.056,76.822 52.062999999999995,66.972 47.169999999999995,62.936 C 50.94199999999999,58.815 52.675,56.575 59.224,51.178 C 65.99499999999999,53.945 78.11099999999999,48.690999999999995 78.11099999999999,48.690999999999995 C 69.96,50.827 63.72899999999999,49.61599999999999 61.51599999999999,49.029999999999994 C 61.99099999999999,48.65899999999999 70.032,42.83899999999999 72.466,39.47299999999999 C 79.19699999999999,39.68099999999999 84.75699999999999,33.89999999999999 84.75699999999999,33.89999999999999 C 84.57499999999999,33.74399999999999 81.16999999999999,36.35399999999999 74.73199999999999,36.666999999999994 C 81.39799999999998,26.874999999999993 81.09899999999999,17.864999999999995 81.09899999999999,17.864999999999995 C 81.09899999999999,17.864999999999995 78.63799999999999,26.087999999999994 72.37499999999999,35.104 C 71.09199999999998,28.705 72.72699999999999,24.348999999999997 72.54399999999998,24.206 C 72.54399999999998,24.206 68.18199999999999,31.393 70.19299999999998,38.001 C 66.76899999999998,41.913999999999994 61.371999999999986,45.293 59.37999999999998,46.809 C 59.22399999999998,46.399 57.140999999999984,39.57 59.16499999999998,29.484999999999996 C 59.16499999999998,29.484999999999996 53.67699999999998,42.166999999999994 57.113999999999976,48.742 C 52.90899999999998,51.977999999999994 51.781999999999975,52.772 44.757999999999974,60.623 C 28.852999999999973,48.715999999999994 42.50899999999997,27.419999999999995 54.418999999999976,22.458999999999996 C 66.672,17.35 71.776,18.379 83.006,0.0 C 95.304,18.216 93.287,45.338 81.502,59.479"/>
	<path d="M 13.623,57.629 C 20.858999999999998,60.937 25.875,65.429 29.322,69.726 C 29.364,69.602 29.416999999999998,69.498 29.456,69.355 C 36.005,45.781 0.0,49.062 0.0,49.062 C 0.0,49.062 4.974,56.717999999999996 7.747,65.065 C 10.954,74.739 24.059,82.779 28.769,71.289 C 25.368,66.711 20.504,61.705 13.623,57.629"/>
	<path d="M 47.17,62.936 C 47.128,62.883 44.683,60.696 44.722,60.644 C 38.550000000000004,67.441 36.144000000000005,73.24799999999999 35.558,80.65 C 34.624,78.105 32.756,74.02900000000001 29.320999999999998,69.726 C 29.157999999999998,70.292 28.968999999999998,70.8 28.767999999999997,71.288 C 32.427,76.216 33.842999999999996,82.929 34.675999999999995,85.12899999999999 C 34.675999999999995,91.27499999999999 35.349999999999994,94.34799999999998 35.88999999999999,99.478 C 35.88999999999999,99.478 39.19799999999999,101.431 40.11899999999999,97.786 C 38.251,94.699 36.418,73.456 47.17,62.936"/>
</svg>
