<?xml version="1.0" ?>
<svg xmlns="http://www.w3.org/2000/svg" xmlns:ev="http://www.w3.org/2001/xml-events" xmlns:xlink="http://www.w3.org/1999/xlink" baseProfile="full" enable-background="new 0 0 100 87.5" height="526px" version="1.1" viewBox="0 0 100 87.5" width="600px" x="0px" xml:space="preserve" y="0px">
	<defs/>
	<path d="M 100.0,87.5 L 0.0,87.5 L 0.0,77.5 C 1.592,77.178 6.519,74.248 10.0,67.5 C 14.565000000000001,58.643 20.0,65.0 20.0,65.0 C 15.679,65.381 16.729,70.117 17.5,72.5 C 18.428,75.352 20.918,77.119 22.5,77.5 L 25.0,77.5 C 26.602,77.178 29.023,74.248 32.5,67.5 C 37.07,58.643 42.5,65.0 42.5,65.0 C 38.184,65.381 39.219,70.117 40.0,72.5 C 40.928,75.352 43.413,77.119 45.0,77.5 L 47.5,77.5 C 49.102,77.178 51.522999999999996,74.248 55.0,67.5 C 59.57,58.643 65.0,65.0 65.0,65.0 C 60.688,65.381 61.719,70.117 62.5,72.5 C 63.428,75.352 65.913,77.119 67.5,77.5 L 70.0,77.5 C 71.592,77.178 76.538,74.248 80.0,67.5 C 84.585,58.643 90.0,65.0 90.0,65.0 C 85.693,65.381 86.719,70.117 87.5,72.5 C 88.428,75.352 90.913,77.119 92.5,77.5 L 100.0,77.5 L 100.0,87.5"/>
	<path d="M 85.0,47.5 L 85.0,32.861 L 85.0,19.998 L 87.5,22.5 L 90.0,19.998 L 66.25,0.0 L 42.5,19.998 L 45.0,22.5 L 47.5,19.998 L 47.5,47.5 L 45.0,47.5 C 43.413,47.119 40.928,45.352 40.0,42.5 C 39.219,40.117 38.184,35.381 42.5,35.0 C 42.5,35.0 37.07,28.643 32.5,37.5 C 29.023,44.248 26.602,47.178 25.0,47.5 L 22.5,47.5 C 20.918,47.119 18.428,45.352 17.5,42.5 C 16.729,40.117 15.679,35.381 20.0,35.0 C 20.0,35.0 14.565000000000001,28.643 10.0,37.5 C 6.519,44.248 1.5920000000000005,47.178 0.0,47.5 L 0.0,62.5 C 1.592,62.178 6.519,59.248 10.0,52.5 C 14.565000000000001,43.643 20.0,50.0 20.0,50.0 C 15.679,50.381 16.729,55.117 17.5,57.5 C 18.428,60.352 20.918,62.119 22.5,62.5 L 25.0,62.5 C 26.602,62.178 29.023,59.248 32.5,52.5 C 37.07,43.643 42.5,50.0 42.5,50.0 C 38.184,50.381 39.219,55.117 40.0,57.5 C 40.928,60.352 43.413,62.119 45.0,62.5 L 47.5,62.5 C 49.102,62.178 51.522999999999996,59.248 55.0,52.5 C 59.57,43.643 65.0,50.0 65.0,50.0 C 60.688,50.381 61.719,55.117 62.5,57.5 C 63.428,60.352 65.913,62.119 67.5,62.5 L 70.0,62.5 C 71.592,62.178 76.538,59.248 80.0,52.5 C 84.585,43.643 90.0,50.0 90.0,50.0 C 85.693,50.381 86.719,55.117 87.5,57.5 C 88.428,60.352 90.913,62.119 92.5,62.5 L 100.0,62.5 L 100.0,47.5 L 85.0,47.5"/>
</svg>
