<?xml version="1.0" ?>
<svg xmlns="http://www.w3.org/2000/svg" xmlns:ev="http://www.w3.org/2001/xml-events" xmlns:xlink="http://www.w3.org/1999/xlink" baseProfile="full" enable-background="new 0 0 81.198 100" height="600px" version="1.1" viewBox="0 0 81.198 100" width="488px" x="0px" xml:space="preserve" y="0px">
	<defs/>
	<path d="M 29.004,81.159 C 29.004,86.75800000000001 24.46,91.302 18.848,91.302 C 13.235999999999999,91.302 8.699,86.75800000000001 8.699,81.159 C 8.699,77.116 11.082,73.659 14.5,72.018 L 14.5,30.163 L 23.198,30.163 L 23.198,72.019 C 26.621,73.659 29.004,77.116 29.004,81.159"/>
	<path d="M 29.004,65.312 L 29.004,10.15 C 29.004,10.143 29.004,10.13 29.004,10.111 C 28.978,4.531 24.427,0.0 18.848,0.0 C 13.262,0.0 8.724,4.531 8.698,10.111 L 8.691,65.319 C 3.314,68.776 0.0,74.772 0.0,81.159 C 0.0,91.543 8.457,100.0 18.848,100.0 C 29.244999999999997,100.0 37.696,91.543 37.696,81.15899999999999 C 37.695,74.772 34.375,68.776 29.004,65.312 M 18.848,97.103 C 10.059,97.103 2.8979999999999997,89.949 2.8979999999999997,81.16 C 2.8979999999999997,75.515 5.958,70.24199999999999 10.873,67.384 L 11.596,66.967 L 11.596,10.15 C 11.596,6.152 14.845,2.904 18.848,2.904 C 22.846,2.904 26.094,6.1530000000000005 26.094,10.15 L 26.094,66.96600000000001 L 26.817,67.38300000000001 C 31.739,70.23500000000001 34.799,75.51500000000001 34.799,81.159 C 34.798,89.948 27.644,97.103 18.848,97.103"/>
	<path d="M 81.198,26.055 L 65.241,26.055 L 65.241,10.111 L 59.447,10.111 L 59.447,26.055 L 43.502,26.055 L 43.502,31.862 L 59.447,31.862 L 59.447,47.806 L 65.241,47.806 L 65.241,31.862 L 81.198,31.862 L 81.198,26.055" points="81.198,26.055 65.241,26.055 65.241,10.111 59.447,10.111 59.447,26.055 43.502,26.055 43.502,31.862   59.447,31.862 59.447,47.806 65.241,47.806 65.241,31.862 81.198,31.862 "/>
</svg>
