<?xml version="1.0" ?>
<svg xmlns="http://www.w3.org/2000/svg" xmlns:ev="http://www.w3.org/2001/xml-events" xmlns:xlink="http://www.w3.org/1999/xlink" baseProfile="full" enable-background="new 0 0 100.001 94.961" height="570px" version="1.1" viewBox="0 0 100.001 94.961" width="600px" x="0px" xml:space="preserve" y="0px">
	<defs/>
	<path d="M 46.704,7.505 C 47.502,12.381 44.203,16.98 39.332,17.783 C 34.449,18.581000000000003 29.845,15.282000000000002 29.047,10.405000000000001 C 28.249000000000002,5.522000000000001 31.548000000000002,0.918000000000001 36.431,0.120000000000001 C 41.301,-0.683 45.918,2.622 46.704,7.505"/>
	<path d="M 43.912,42.976 L 51.828,55.629999999999995 C 52.952000000000005,57.406 55.284000000000006,57.980999999999995 57.097,56.916999999999994 C 58.910000000000004,55.846999999999994 59.538000000000004,53.532999999999994 58.524,51.68899999999999 L 56.517,48.050999999999995 C 54.777,44.94499999999999 53.073,41.827 51.345000000000006,38.708999999999996 L 47.803000000000004,32.297 C 47.405,31.565999999999995 47.00600000000001,30.731999999999996 46.583000000000006,29.849999999999998 C 44.407000000000004,25.287999999999997 41.011,18.241999999999997 33.57900000000001,18.888999999999996 C 27.22200000000001,19.438999999999997 20.768000000000008,22.459999999999997 14.412000000000006,27.862999999999996 C 6.87,33.803 1.613,42.419 1.395,42.788 C 1.153,43.181 0.924,43.556 0.73,43.918 C 0.718,43.936 0.706,43.948 0.694,43.96 L 0.694,43.966 C -0.007000000000000006,45.295 -0.3580000000000001,46.51 0.5249999999999999,48.05 C 1.214,49.271 2.5069999999999997,50.026999999999994 3.909,50.026999999999994 C 5.601,50.026999999999994 6.471,49.22899999999999 7.305,48.007999999999996 L 7.305,48.007999999999996 C 7.316999999999999,48.001999999999995 7.316999999999999,47.989999999999995 7.329,47.977999999999994 C 7.558,47.63399999999999 7.787999999999999,47.25299999999999 8.042,46.85999999999999 C 8.09,46.78199999999999 12.501,39.70599999999999 19.33,33.88099999999999 C 21.433,32.230999999999995 23.439,31.09499999999999 25.323999999999998,30.46699999999999 L 23.802,48.88499999999999 C 23.657,50.709999999999994 23.076999999999998,53.85199999999999 22.581,55.61099999999999 L 19.161,67.612 C 18.714000000000002,69.12899999999999 17.421000000000003,71.642 16.418000000000003,72.87599999999999 L 7.172,84.338 C 6.0,85.794 4.67,87.444 5.77,89.728 C 6.411,91.076 7.776,91.934 9.274999999999999,91.934 C 11.063999999999998,91.934 12.029999999999998,90.901 13.250999999999998,89.589 L 22.616999999999997,79.485 C 24.284999999999997,77.684 26.459999999999997,74.548 27.535999999999998,72.337 L 32.189,62.88 L 49.375,91.765 C 50.221,93.191 51.285,94.961 53.617,94.961 L 53.617,94.961 C 54.946999999999996,94.961 56.178999999999995,94.27799999999999 56.891999999999996,93.166 C 58.113,91.26899999999999 57.303,89.517 56.589999999999996,87.97 L 42.691,57.781 C 42.147000000000006,56.596 41.845000000000006,54.179 42.074000000000005,52.891999999999996 L 43.912,42.976"/>
	<path d="M 58.48,74.41 L 79.305,74.41 L 79.305,80.598 L 100.001,68.645 L 79.305,56.693 L 79.305,62.88 L 58.48,62.88 L 58.48,74.41" points="58.48,74.41 79.305,74.41 79.305,80.598 100.001,68.645 79.305,56.693 79.305,62.88 58.48,62.88 "/>
</svg>
