<?xml version="1.0" ?>
<svg xmlns="http://www.w3.org/2000/svg" xmlns:ev="http://www.w3.org/2001/xml-events" xmlns:xlink="http://www.w3.org/1999/xlink" baseProfile="full" enable-background="new 0 0 100.002 89.559" height="538px" version="1.1" viewBox="0 0 100.002 89.559" width="600px" x="0px" xml:space="preserve" y="0px">
	<defs/>
	<path d="M 66.042,19.556 C 64.885,18.872 64.289,18.111 64.71900000000001,17.862000000000002 C 65.15400000000001,17.613000000000003 66.44800000000001,17.969 67.59,18.658 C 68.73700000000001,19.342000000000002 71.101,19.083000000000002 72.84400000000001,18.082 C 74.59200000000001,17.076 74.59200000000001,15.431000000000001 72.84400000000001,14.415000000000001 C 71.10100000000001,13.409 68.73800000000001,13.141000000000002 67.59,13.819 C 66.447,14.507000000000001 65.153,14.864 64.71900000000001,14.615 C 64.289,14.371 64.885,13.614 66.042,12.926 C 67.2,12.246 67.0,11.021 65.593,10.21 C 64.182,9.399000000000001 63.205000000000005,8.433000000000002 63.410000000000004,8.066 C 63.615,7.695 64.933,8.061 66.34,8.872 C 67.747,9.683 68.913,9.243 68.933,7.905 C 68.94800000000001,6.562 69.30900000000001,5.659000000000001 69.724,5.9030000000000005 C 70.13900000000001,6.152 70.471,7.446000000000001 70.461,8.794 C 70.451,10.137 71.818,12.031 73.498,13.008000000000001 C 75.17800000000001,13.985000000000001 76.555,13.179 76.555,11.221 C 76.555,9.263 75.58800000000001,7.119 74.41600000000001,6.465 C 73.23400000000001,5.801 72.28200000000001,4.8629999999999995 72.287,4.385 C 72.302,3.9019999999999997 73.26400000000001,4.038 74.435,4.688 C 75.59700000000001,5.337 76.554,4.545999999999999 76.554,2.9349999999999996 C 76.555,1.318 76.887,0.0 77.297,0.0 C 77.707,0.0 78.044,1.328 78.044,2.959 C 78.044,4.59 78.996,5.366 80.16799999999999,4.697 C 81.33,4.023 82.28699999999999,3.882 82.28699999999999,4.389 C 82.28699999999999,4.892 81.33,5.8340000000000005 80.16799999999999,6.484 C 78.996,7.133 78.044,9.262 78.044,11.219999999999999 C 78.044,13.177999999999997 79.416,13.983999999999998 81.096,13.006999999999998 C 82.77600000000001,12.029999999999998 84.153,10.135999999999997 84.143,8.792999999999997 C 84.133,7.444999999999998 84.465,6.150999999999998 84.875,5.9019999999999975 C 85.285,5.657999999999998 85.642,6.560999999999997 85.666,7.903999999999997 C 85.68599999999999,9.241999999999997 86.848,9.680999999999997 88.25399999999999,8.870999999999997 C 89.64999999999999,8.059999999999997 90.969,7.693999999999997 91.184,8.064999999999998 C 91.389,8.430999999999997 90.413,9.397999999999998 89.006,10.208999999999998 C 87.605,11.019999999999998 87.409,12.244999999999997 88.576,12.923999999999998 C 89.738,13.611999999999998 90.344,14.368999999999998 89.904,14.612999999999998 C 89.47399999999999,14.861999999999998 88.17099999999999,14.505999999999998 87.01299999999999,13.816999999999998 C 85.85099999999998,13.137999999999998 83.48299999999999,13.406999999999998 81.74399999999999,14.412999999999998 C 80.00599999999999,15.428999999999998 80.00599999999999,17.073999999999998 81.74399999999999,18.08 C 83.48199999999999,19.081 85.84999999999998,19.34 87.01299999999999,18.656 C 88.16999999999999,17.968 89.47399999999999,17.610999999999997 89.904,17.86 C 90.34299999999999,18.108999999999998 89.738,18.871 88.576,19.554 C 87.40899999999999,20.232999999999997 87.604,21.458 89.006,22.269 C 90.412,23.084 91.389,24.051 91.184,24.421999999999997 C 90.969,24.787999999999997 89.651,24.421999999999997 88.25399999999999,23.615999999999996 C 86.84799999999998,22.800999999999995 85.68599999999999,23.230999999999995 85.666,24.557999999999996 C 85.642,25.890999999999995 85.285,26.788999999999994 84.875,26.549999999999997 C 84.465,26.315999999999995 84.133,25.022 84.143,23.668999999999997 C 84.153,22.316999999999997 82.776,20.421999999999997 81.096,19.450999999999997 C 79.41600000000001,18.479999999999997 78.044,19.279999999999998 78.044,21.232999999999997 C 78.044,23.185999999999996 78.996,25.318999999999996 80.16799999999999,25.968999999999998 C 81.33,26.622999999999998 82.28699999999999,27.575 82.28699999999999,28.077999999999996 C 82.28699999999999,28.580999999999992 81.33,28.448999999999995 80.16799999999999,27.779999999999998 C 78.996,27.110999999999997 78.044,27.877999999999997 78.044,29.488999999999997 C 78.044,31.104999999999997 77.707,32.419 77.297,32.419 C 76.887,32.419 76.55499999999999,31.109999999999996 76.55499999999999,29.503999999999998 C 76.55499999999999,27.901999999999997 75.598,27.125999999999998 74.43599999999999,27.779999999999998 C 73.264,28.433999999999997 72.30199999999999,28.566 72.288,28.077999999999996 C 72.283,27.589999999999996 73.235,26.641999999999996 74.417,25.982999999999997 C 75.589,25.323999999999998 76.556,23.185999999999996 76.556,21.232999999999997 C 76.556,19.279999999999998 75.179,18.478999999999996 73.499,19.450999999999997 C 71.81899999999999,20.423 70.452,22.316999999999997 70.46199999999999,23.668999999999997 C 70.472,25.022 70.13999999999999,26.314999999999998 69.725,26.549999999999997 C 69.30999999999999,26.788999999999998 68.949,25.891 68.934,24.557999999999996 C 68.914,23.229999999999997 67.747,22.800999999999995 66.341,23.615999999999996 C 64.93499999999999,24.421999999999997 63.61599999999999,24.787999999999997 63.410999999999994,24.421999999999997 C 63.205999999999996,24.051 64.18199999999999,23.084999999999997 65.594,22.269 C 67.0,21.46 67.2,20.234 66.042,19.556 M 52.678,24.702 L 83.66,50.517 L 83.66,42.773 L 86.243,42.773 L 86.243,55.678000000000004 L 73.333,55.678000000000004 L 73.333,53.1 L 81.077,53.1 L 50.098,27.285 L 52.678,24.702 M 21.703,11.792 C 23.746,13.823 25.291999999999998,17.119 26.863999999999997,19.541 C 29.292999999999996,23.267 30.688999999999997,27.207 34.61,29.863 C 40.015,33.535 45.076,33.359 50.098,37.607 C 53.254,40.278 61.062,48.867 57.844,53.1 C 44.029,51.337 38.823,43.852000000000004 34.61,40.19 C 30.308,36.464 22.804000000000002,34.525999999999996 19.122,29.863 C 14.359,23.842 14.447,13.969999999999999 13.956,6.631 C 14.039,7.837 20.709,10.801 21.703,11.792"/>
	<path d="M 63.005,55.678 C 63.005,55.678 48.79900000000001,64.93599999999999 29.446000000000005,40.19 C 29.446000000000005,40.19 4.241000000000007,39.277 8.995000000000005,2.271000000000001 L 0.062,0.02 C 0.062,0.02 -0.07700000000000001,89.56 0.062,89.56 C 0.201,89.56 100.002,89.56 100.002,89.56 C 100.002,89.56 64.836,57.353 63.005,55.678"/>
	<path d="M 65.593,22.271 C 64.182,23.086000000000002 63.205000000000005,24.053 63.410000000000004,24.424 C 63.615,24.79 64.933,24.424 66.34,23.618 C 67.74600000000001,22.802999999999997 68.913,23.232999999999997 68.933,24.56 C 68.94800000000001,25.892999999999997 69.30900000000001,26.790999999999997 69.724,26.552 C 70.13900000000001,26.317999999999998 70.471,25.024 70.461,23.671 C 70.451,22.319 71.818,20.424 73.498,19.453 C 75.17800000000001,18.482 76.555,19.282 76.555,21.235 C 76.555,23.188 75.58800000000001,25.326 74.41600000000001,25.985 C 73.23400000000001,26.644 72.28200000000001,27.591 72.287,28.08 C 72.302,28.567999999999998 73.26400000000001,28.436 74.435,27.782 C 75.59700000000001,27.128 76.554,27.904 76.554,29.506 C 76.554,31.112000000000002 76.886,32.421 77.296,32.421 C 77.70600000000002,32.421 78.043,31.108 78.043,29.491 C 78.043,27.88 78.995,27.113 80.167,27.782 C 81.32900000000001,28.451 82.286,28.583 82.286,28.08 C 82.286,27.576999999999998 81.32900000000001,26.625 80.167,25.970999999999997 C 78.995,25.321999999999996 78.043,23.187999999999995 78.043,21.234999999999996 C 78.043,19.281999999999996 79.415,18.480999999999995 81.09500000000001,19.452999999999996 C 82.77500000000002,20.424999999999997 84.15200000000002,22.318999999999996 84.14200000000001,23.670999999999996 C 84.132,25.023999999999997 84.46400000000001,26.316999999999997 84.87400000000001,26.551999999999996 C 85.284,26.790999999999997 85.641,25.892999999999997 85.665,24.559999999999995 C 85.685,23.231999999999996 86.84700000000001,22.802999999999994 88.253,23.617999999999995 C 89.649,24.423999999999996 90.968,24.789999999999996 91.183,24.423999999999996 C 91.388,24.052999999999997 90.412,23.086999999999996 89.00500000000001,22.270999999999997 C 87.60400000000001,21.459999999999997 87.40800000000002,20.234999999999996 88.575,19.555999999999997 C 89.73700000000001,18.871999999999996 90.343,18.110999999999997 89.903,17.862 C 89.473,17.613 88.17,17.968999999999998 87.012,18.657999999999998 C 85.85,19.342 83.482,19.083 81.743,18.081999999999997 C 80.005,17.075999999999997 80.005,15.430999999999997 81.743,14.414999999999997 C 83.481,13.408999999999997 85.84899999999999,13.140999999999998 87.012,13.818999999999997 C 88.169,14.506999999999998 89.473,14.863999999999997 89.903,14.614999999999997 C 90.342,14.370999999999997 89.73700000000001,13.613999999999997 88.575,12.925999999999997 C 87.408,12.246999999999996 87.60300000000001,11.021999999999997 89.00500000000001,10.210999999999997 C 90.41100000000002,9.399999999999997 91.388,8.433999999999997 91.183,8.066999999999997 C 90.968,7.695999999999996 89.65,8.061999999999996 88.253,8.872999999999998 C 86.847,9.683999999999997 85.685,9.243999999999998 85.665,7.905999999999998 C 85.641,6.562999999999998 85.284,5.659999999999998 84.87400000000001,5.903999999999998 C 84.46400000000001,6.152999999999998 84.132,7.446999999999998 84.14200000000001,8.794999999999998 C 84.15200000000002,10.137999999999998 82.775,12.031999999999998 81.09500000000001,13.008999999999999 C 79.41500000000002,13.985999999999999 78.043,13.179999999999998 78.043,11.221999999999998 C 78.043,9.263999999999998 78.995,7.134999999999998 80.167,6.485999999999998 C 81.32900000000001,5.836999999999998 82.286,4.893999999999998 82.286,4.390999999999998 C 82.286,3.8829999999999982 81.32900000000001,4.024999999999999 80.167,4.698999999999998 C 78.995,5.3679999999999986 78.043,4.591999999999998 78.043,2.960999999999998 C 78.043,1.3299999999999983 77.708,0.0 77.297,0.0 C 76.886,0.0 76.55499999999999,1.318 76.55499999999999,2.935 C 76.55499999999999,4.546 75.598,5.337 74.43599999999999,4.688 C 73.264,4.039 72.30199999999999,3.9019999999999997 72.288,4.385 C 72.283,4.864 73.235,5.801 74.417,6.465 C 75.589,7.119 76.556,9.263 76.556,11.221 C 76.556,13.179 75.179,13.985 73.499,13.008 C 71.81899999999999,12.030999999999999 70.452,10.136999999999999 70.46199999999999,8.793999999999999 C 70.472,7.445999999999999 70.13999999999999,6.151999999999999 69.725,5.902999999999999 C 69.30999999999999,5.658999999999999 68.949,6.5619999999999985 68.934,7.9049999999999985 C 68.914,9.242999999999999 67.747,9.681999999999999 66.341,8.871999999999998 C 64.93499999999999,8.061999999999998 63.61599999999999,7.6949999999999985 63.410999999999994,8.065999999999999 C 63.205999999999996,8.431999999999999 64.18199999999999,9.399 65.594,10.209999999999999 C 67.0,11.020999999999999 67.19999999999999,12.245999999999999 66.04299999999999,12.924999999999999 C 64.886,13.613 64.28999999999999,14.37 64.72,14.613999999999999 C 65.155,14.863 66.449,14.507 67.591,13.818 C 68.738,13.139 71.10199999999999,13.408 72.845,14.414 C 74.593,15.43 74.593,17.075 72.845,18.081 C 71.102,19.082 68.739,19.341 67.591,18.657 C 66.448,17.969 65.154,17.612000000000002 64.72,17.861 C 64.28999999999999,18.11 64.886,18.872 66.04299999999999,19.555 C 67.2,20.234 67.0,21.46 65.593,22.271"/>
	<path d="M 34.61,40.19 C 38.824,43.852 44.028999999999996,51.336999999999996 57.844,53.099999999999994 C 61.062,48.867 53.254000000000005,40.27799999999999 50.098,37.60699999999999 C 45.076,33.358999999999995 40.015,33.53499999999999 34.61,29.862999999999992 C 30.689,27.206999999999994 29.293,23.266999999999992 26.863999999999997,19.540999999999993 C 25.291999999999998,17.118999999999993 23.746,13.822999999999993 21.702999999999996,11.791999999999994 C 20.708999999999996,10.800999999999995 14.038999999999996,7.836999999999994 13.955999999999996,6.630999999999995 C 14.446999999999996,13.969999999999995 14.358999999999996,23.84199999999999 19.121999999999996,29.862999999999992 C 22.804,34.526 30.308,36.464 34.61,40.19"/>
	<path d="M 73.333,53.1 L 73.333,55.678 L 86.243,55.678 L 86.243,42.773 L 83.66,42.773 L 83.66,50.517 L 52.678,24.702 L 50.098,27.285 L 81.077,53.1 L 73.333,53.1" points="73.333,53.1 73.333,55.678 86.243,55.678 86.243,42.773 83.66,42.773 83.66,50.517 52.678,24.702 50.098,27.285   81.077,53.1 "/>
</svg>
