<?xml version="1.0" ?>
<svg xmlns="http://www.w3.org/2000/svg" xmlns:ev="http://www.w3.org/2001/xml-events" xmlns:xlink="http://www.w3.org/1999/xlink" baseProfile="full" enable-background="new 0 0 93.777 100" height="600px" version="1.1" viewBox="0 0 93.777 100" width="563px" x="0px" xml:space="preserve" y="0px">
	<defs/>
	<path d="M 0.029,9.378 C 5.991,4.787 26.004,0.0 46.903,0.0 C 69.924,0.0 89.913,4.262 93.777,9.378 C 90.45,15.209 59.923,18.75 46.903,18.75 C 33.882999999999996,18.75 2.834,16.125 0.029,9.378"/>
	<path d="M 93.777,12.498 C 86.408,18.286 67.432,21.534 46.903,21.875999999999998 C 23.782,21.497999999999998 5.315999999999995,19.886 0.028999999999996362,12.497999999999998 C -0.02000000000000364,12.692999999999998 -1.6320000000000037,30.624999999999996 28.153999999999996,40.625 C 48.79299999999999,47.549 37.528999999999996,59.375 37.528999999999996,59.375 C 37.528999999999996,59.375 15.146999999999995,80.628 34.403,87.503 C 46.464999999999996,91.795 45.323,97.619 43.778,100.001 C 55.478,85.28 22.148,82.667 59.404,65.626 C 78.52,56.872 80.918,51.78 75.027,43.751 C 67.31,33.201 92.147,28.97 93.777,12.498"/>
</svg>
