<?xml version="1.0" ?>
<svg xmlns="http://www.w3.org/2000/svg" xmlns:ev="http://www.w3.org/2001/xml-events" xmlns:xlink="http://www.w3.org/1999/xlink" baseProfile="full" enable-background="new 0 0 95.091 99.997" height="600px" version="1.1" viewBox="0 0 95.091 99.997" width="571px" x="0px" xml:space="preserve" y="0px">
	<defs/>
	<path d="M 94.473,18.243 C 91.571,18.509999999999998 79.36,16.252 74.93,14.985999999999999 C 70.494,13.719999999999999 66.55600000000001,5.938999999999998 58.641000000000005,8.471999999999998 C 50.721000000000004,11.001999999999997 44.479000000000006,5.211999999999998 39.092000000000006,5.211999999999998 C 35.36500000000001,5.211999999999998 33.40800000000001,4.269999999999998 31.663000000000004,3.260999999999998 C 31.542000000000005,2.075999999999998 31.093000000000004,1.109999999999998 30.136000000000003,0.5489999999999977 C 29.512,0.185 28.827,0.0 28.1,0.0 C 26.997,0.0 25.912000000000003,0.467 24.882,1.136 L 3.26,5.233 L 3.26,5.211 L 0.0,5.211 L 0.0,99.996 L 3.26,99.996 L 3.26,10.738 L 14.199,24.73 C 14.296,24.939 14.477,25.082 14.611,25.263 L 15.005,25.763 L 15.053,25.723000000000003 C 15.217,25.863000000000003 15.296000000000001,26.072000000000003 15.495000000000001,26.181 C 16.004,26.466 16.556,26.611 17.143,26.611 C 17.143,26.611 17.143,26.611 17.149,26.611 C 17.786,26.611 18.464000000000002,26.366 19.161,26.005 C 22.397000000000002,27.122999999999998 27.166000000000004,28.241 29.317,28.017 C 32.329,27.698999999999998 36.565,29.217 39.091,31.274 C 41.624,33.332 52.853,30.641000000000002 55.38,31.274 C 57.913000000000004,31.907 65.403,36.364000000000004 68.415,37.789 C 71.42,39.216 83.11600000000001,38.265 84.703,37.789 C 86.285,37.316 92.206,26.272000000000002 93.0,24.76 C 93.794,23.246 96.219,18.085 94.473,18.243 M 18.113,9.332 C 17.119,11.202000000000002 15.01,15.501000000000001 14.144,19.367 L 5.369,8.147 L 20.755,5.232 C 19.331,7.132 18.332,8.923 18.113,9.332 M 20.985,10.862 C 22.518,7.978 24.548,5.484 26.215,4.199 L 28.397,3.787 C 28.523999999999997,5.232 27.366999999999997,9.283000000000001 24.639999999999997,14.195 C 21.022,20.697 18.234999999999996,23.206 17.234999999999996,23.326999999999998 L 16.974999999999994,22.991 C 16.641,21.564 17.871,16.716 20.985,10.862"/>
</svg>
