<?xml version="1.0" ?>
<svg xmlns="http://www.w3.org/2000/svg" xmlns:ev="http://www.w3.org/2001/xml-events" xmlns:xlink="http://www.w3.org/1999/xlink" baseProfile="full" enable-background="new 0 0 100 100" height="600px" version="1.1" viewBox="0 0 100 100" width="600px" x="0px" xml:space="preserve" y="0px">
	<defs/>
	<path d="M 95.0,50.001 C 95.0,50.766999999999996 94.674,51.501999999999995 94.107,52.013999999999996 L 50.453,91.506 C 49.658,92.229 48.511,92.409 47.53,91.975 C 46.546,91.53699999999999 45.911,90.565 45.911,89.49199999999999 L 45.911,67.244 L 7.717,67.244 C 6.22,67.244 5.0,66.024 5.0,64.524 L 5.0,35.479 C 5.0,33.976 6.22,32.762 7.7170000000000005,32.762 L 45.908,32.762 L 45.908,10.51 C 45.908,9.436 46.543,8.463 47.526,8.026 C 48.507000000000005,7.5889999999999995 49.654,7.7749999999999995 50.449000000000005,8.493 L 94.106,47.981 C 94.674,48.498 95.0,49.231 95.0,50.001 M 51.349,83.366 L 88.232,50.001 L 51.346,16.637 L 51.346,35.479 C 51.346,36.979 50.129,38.199 48.626,38.199 L 10.437,38.199 L 10.437,61.806 L 48.631,61.806 C 50.131,61.806 51.349000000000004,63.021 51.349000000000004,64.524 L 51.349000000000004,83.366 L 51.349,83.366"/>
	<path d="M 0.0,0.0 L 100.0,0.0 L 100.0,100.0 L 0.0,100.0 L 0.0,0.0" fill="none" height="100" width="100"/>
</svg>
