<?xml version="1.0" ?>
<svg xmlns="http://www.w3.org/2000/svg" xmlns:ev="http://www.w3.org/2001/xml-events" xmlns:xlink="http://www.w3.org/1999/xlink" baseProfile="full" enable-background="new 0 0 100 100" height="600px" version="1.1" viewBox="0 0 100 100" width="600px" x="0px" xml:space="preserve" y="0px">
	<defs/>
	<path d="M 49.999,5.001 C 50.767,5.001 51.5,5.325 52.016000000000005,5.8950000000000005 L 91.504,49.548 C 92.22500000000001,50.343 92.41000000000001,51.489000000000004 91.974,52.47 C 91.536,53.452 90.56400000000001,54.089 89.491,54.089 L 67.24,54.089 L 67.24,92.28 C 67.24,93.781 66.023,95.0 64.523,95.0 L 35.48,95.0 C 33.974999999999994,95.0 32.76,93.781 32.76,92.28 L 32.76,54.09 L 10.512,54.09 C 9.436,54.09 8.459,53.458000000000006 8.026,52.474000000000004 C 7.591,51.493 7.772,50.347 8.493,49.551 L 47.981,5.895 C 48.499,5.325 49.231,5.001 49.999,5.001 M 83.365,48.652 L 49.999,11.771 L 16.634,48.655 L 35.48,48.655 C 36.977999999999994,48.655 38.19499999999999,49.872 38.19499999999999,51.374 L 38.19499999999999,89.56200000000001 L 61.80499999999999,89.56200000000001 L 61.80499999999999,51.369 C 61.80499999999999,49.869 63.019999999999996,48.652 64.523,48.652 L 83.365,48.652"/>
	<path d="M 0.0,0.0 L 100.0,0.0 L 100.0,100.0 L 0.0,100.0 L 0.0,0.0" fill="none" height="100" width="100"/>
</svg>
