<?xml version="1.0" ?>
<svg xmlns="http://www.w3.org/2000/svg" xmlns:ev="http://www.w3.org/2001/xml-events" xmlns:xlink="http://www.w3.org/1999/xlink" baseProfile="full" enable-background="new 0 0 100 95.587" height="574px" version="1.1" viewBox="0 0 100 95.587" width="600px" x="0px" xml:space="preserve" y="0px">
	<defs/>
	<path d="M 58.393,27.415 C 64.688,29.569 73.042,32.111 74.82300000000001,21.933 C 76.227,14.033999999999999 86.775,16.962 91.27100000000002,16.45 C 99.40800000000002,15.518999999999998 93.26900000000002,0.23300000000000054 83.04600000000002,0.007999999999999119 C 72.699,-0.217 67.99,4.323 63.863,13.708 C 61.902,18.216 60.216,21.62 52.91,19.19 C 45.604,16.755000000000003 40.251999999999995,22.756 44.69199999999999,30.149 C 48.62599999999999,36.706 44.629999999999995,43.849000000000004 44.629999999999995,43.849000000000004 L 55.650999999999996,43.849000000000004 C 55.650999999999996,43.849000000000004 55.562999999999995,39.778000000000006 52.91,35.625 C 49.812,30.793 51.942,25.192 58.393,27.415"/>
	<path d="M 0.0,95.587 C 28.35,74.917 35.432,46.361000000000004 35.432,46.361000000000004 L 64.569,46.361000000000004 C 64.569,46.361000000000004 71.65,74.917 100.001,95.587 L 0.0,95.587"/>
</svg>
