<?xml version="1.0" ?>
<svg xmlns="http://www.w3.org/2000/svg" xmlns:ev="http://www.w3.org/2001/xml-events" xmlns:xlink="http://www.w3.org/1999/xlink" baseProfile="full" enable-background="new 0 0 100 100" height="600px" version="1.1" viewBox="0 0 100 100" width="600px" x="0px" xml:space="preserve" y="0px">
	<defs/>
	<path d="M 50.003,5.006 C 25.193,5.006 5.0,25.187 5.0,49.997 C 5.0,74.813 25.193,94.994 50.003,94.994 C 74.811,94.994 95.0,74.813 95.0,49.997 C 95.0,25.187 74.811,5.006 50.003,5.006 M 50.003,88.885 C 28.556,88.885 11.112000000000002,71.44500000000001 11.112000000000002,49.99700000000001 C 11.112000000000002,28.556000000000008 28.556,11.109000000000009 50.003,11.109000000000009 C 71.444,11.109000000000009 88.89099999999999,28.556000000000008 88.89099999999999,49.99700000000001 C 88.891,71.444 71.444,88.885 50.003,88.885 M 53.791,34.135 L 53.791,65.865 C 53.791,67.96199999999999 52.096999999999994,69.65899999999999 50.0,69.65899999999999 C 47.906,69.65899999999999 46.212,67.96199999999999 46.212,65.865 L 46.212,34.13499999999999 C 46.212,32.03199999999999 47.906000000000006,30.34099999999999 50.0,30.34099999999999 C 52.097,30.341 53.791,32.032 53.791,34.135"/>
	<path d="M 0.0,0.0 L 100.0,0.0 L 100.0,100.0 L 0.0,100.0 L 0.0,0.0" fill="none" height="100" width="100"/>
</svg>
