<?xml version="1.0" ?>
<svg xmlns="http://www.w3.org/2000/svg" xmlns:ev="http://www.w3.org/2001/xml-events" xmlns:xlink="http://www.w3.org/1999/xlink" baseProfile="full" enable-background="new 0 0 100 94.891" height="570px" version="1.1" viewBox="0 0 100 94.891" width="600px" x="0px" xml:space="preserve" y="0px">
	<defs/>
	<path d="M 0.0,45.805 L 7.866,47.798 L 17.538,47.798 C 17.538,45.445 18.325,43.303000000000004 19.636,41.550000000000004 L 0.0,41.550000000000004 L 0.0,45.805"/>
	<path d="M 90.269,26.281 L 84.717,9.604 L 84.717,5.439 L 67.306,5.439 L 67.306,41.549 L 36.26,41.549 C 37.577999999999996,43.302 38.364999999999995,45.445 38.364999999999995,47.797 L 70.827,47.797 C 70.827,42.044 75.494,37.382999999999996 81.24799999999999,37.382999999999996 C 85.294,37.382999999999996 88.79199999999999,39.705999999999996 90.51599999999999,43.077 C 91.13,44.275999999999996 91.52699999999999,45.638999999999996 91.618,47.062999999999995 C 91.633,47.30199999999999 91.67,47.541999999999994 91.67,47.797 L 100.0,47.797 L 100.0,30.446 L 90.269,26.281 M 72.221,26.281 L 72.221,13.77 L 81.946,13.77 L 86.103,26.281 L 72.221,26.281"/>
	<path d="M 27.959,40.171 C 23.733,40.171 20.317,43.586999999999996 20.317,47.797 C 20.317,52.022 23.733,55.439 27.959,55.439 C 32.169,55.439 35.585,52.022 35.585,47.797 C 35.586,43.587 32.169,40.171 27.959,40.171 M 27.959,51.963 C 25.651,51.963 23.778,50.09 23.778,47.797 C 23.778,45.50399999999999 25.651,43.631 27.959,43.631 C 30.244,43.631 32.124,45.504 32.124,47.797 C 32.124,50.089999999999996 30.244,51.963 27.959,51.963"/>
	<path d="M 81.248,40.171 C 77.022,40.171 73.60600000000001,43.586999999999996 73.60600000000001,47.797 C 73.60600000000001,52.022 77.022,55.439 81.248,55.439 C 85.458,55.439 88.89,52.022 88.89,47.797 C 88.89,43.587 85.458,40.171 81.248,40.171 M 81.248,51.963 C 78.94800000000001,51.963 77.083,50.09 77.083,47.797 C 77.083,45.50399999999999 78.948,43.631 81.248,43.631 C 83.54800000000002,43.631 85.41300000000001,45.504 85.41300000000001,47.797 C 85.41300000000001,50.089999999999996 83.548,51.963 81.248,51.963"/>
	<path d="M 79.173,94.891 L 79.173,89.271 L 0.0,89.271 L 0.0,66.257 L 79.173,66.257 L 79.173,60.458 L 100.0,77.675 L 79.173,94.891" points="79.173,94.891 79.173,89.271 0,89.271 0,66.257 79.173,66.257 79.173,60.458 100,77.675 "/>
	<path d="M 0.0,0.0 L 63.725,0.0 L 63.725,39.167 L 0.0,39.167 L 0.0,0.0" height="39.167" width="63.725"/>
</svg>
