<?xml version="1.0" ?>
<svg xmlns="http://www.w3.org/2000/svg" xmlns:ev="http://www.w3.org/2001/xml-events" xmlns:xlink="http://www.w3.org/1999/xlink" baseProfile="full" enable-background="new 0 0 100.001 80.858" height="486px" version="1.1" viewBox="0 0 100.001 80.858" width="600px" x="0px" xml:space="preserve" y="0px">
	<defs/>
	<path d="M 12.279,12.927 C 14.629,13.171 17.39,14.766 19.31,14.782 C 20.554,14.788 22.247,13.848 23.613999999999997,13.747 C 24.980999999999998,13.656 26.386999999999997,13.695 27.740999999999996,13.991 C 34.04299999999999,15.355 39.864,16.455 46.77799999999999,16.11 C 50.26099999999999,15.937999999999999 53.020999999999994,15.283 56.32299999999999,14.202 C 59.74699999999999,13.082 62.20799999999999,12.145 64.72699999999999,15.273 C 65.463,16.194 66.121,18.339 67.026,18.919 C 68.30199999999999,19.726 70.822,18.75 72.17,18.642 C 74.572,18.437 80.242,19.358 81.773,17.226 C 82.61999999999999,16.015 81.377,13.722999999999999 81.702,12.293999999999999 C 82.014,10.848999999999998 83.135,9.841999999999999 83.98,8.648 C 85.608,6.314 87.769,3.234 88.062,0.42799999999999905 C 89.404,2.790999999999999 85.75699999999999,8.591999999999999 85.445,11.209999999999999 C 87.86,7.731 89.683,3.438 91.011,0.0 C 91.02499999999999,3.392 90.666,5.964 89.15599999999999,8.978 C 87.97099999999999,11.370999999999999 86.61699999999999,15.257 88.121,17.761 C 89.42399999999999,19.916 91.943,20.518 92.50999999999999,23.302 C 93.21999999999998,26.733 94.57999999999998,28.651 96.514,31.554000000000002 C 97.705,33.354 101.091,36.792 99.652,38.917 C 99.268,39.497 96.8,41.153 96.104,41.306000000000004 C 94.496,41.635000000000005 93.819,40.095000000000006 92.289,39.44800000000001 C 90.87,38.836000000000006 89.685,38.57500000000001 88.214,37.74900000000001 C 86.755,36.93800000000001 85.544,36.43400000000001 83.819,36.43400000000001 C 82.165,36.43400000000001 80.34100000000001,36.802000000000014 78.779,37.33000000000001 C 76.735,38.01700000000001 76.937,38.622000000000014 75.934,40.19400000000001 C 72.89999999999999,44.97600000000001 65.934,46.83200000000001 62.288,51.31400000000001 C 59.729,54.43900000000001 61.129999999999995,62.812000000000005 61.38399999999999,66.926 C 61.532999999999994,69.316 62.25599999999999,72.004 63.440999999999995,74.166 C 64.38499999999999,75.88499999999999 67.133,78.02 67.06099999999999,80.006 C 65.67399999999999,80.18900000000001 62.02199999999999,77.76 61.331999999999994,76.659 C 60.153999999999996,74.777 60.38199999999999,71.093 59.94499999999999,68.983 C 59.47599999999999,66.717 58.663,64.555 57.83599999999999,62.42100000000001 C 56.95099999999999,60.11600000000001 56.54099999999999,56.93900000000001 55.17999999999999,54.941 C 55.42799999999999,57.18 55.47999999999999,59.433 55.017999999999994,61.614000000000004 C 54.586999999999996,63.61900000000001 53.428999999999995,65.351 53.135999999999996,67.343 C 52.797,69.62100000000001 53.135999999999996,72.226 53.135999999999996,74.531 C 53.135999999999996,75.95 53.129,76.72500000000001 53.760999999999996,77.929 C 54.333,78.971 55.48,79.374 55.428,80.644 C 48.982,78.91300000000001 50.772999999999996,71.23 51.007,66.08000000000001 C 51.163,63.125000000000014 50.922,60.176000000000016 50.583,57.25200000000001 C 50.323,54.95400000000001 50.641999999999996,50.39000000000001 49.528999999999996,48.40100000000001 C 48.330999999999996,46.25300000000001 44.599999999999994,47.58700000000001 42.516999999999996,47.88300000000001 C 39.223,48.32500000000001 35.91499999999999,48.83300000000001 32.595,48.49400000000001 C 29.951,48.227000000000004 27.366999999999997,47.224000000000004 25.192999999999998,45.69100000000001 C 23.298,44.37000000000001 21.331999999999997,41.31300000000001 19.301,40.68100000000001 C 19.197,44.360000000000014 17.346999999999998,45.52200000000001 16.031999999999996,48.70200000000001 C 14.911999999999995,51.40300000000001 14.273999999999997,55.02300000000001 13.739999999999997,57.804000000000016 C 12.306999999999997,65.21300000000002 16.115999999999996,70.53300000000002 18.830999999999996,76.87300000000002 C 19.325999999999997,78.03200000000002 20.353999999999996,79.71200000000002 19.846999999999994,80.84500000000001 C 17.599999999999994,79.98600000000002 16.662999999999993,80.06400000000001 15.601999999999993,77.54400000000001 C 14.689999999999992,75.40800000000002 14.351999999999993,73.11000000000001 13.589999999999993,70.89000000000001 C 12.880999999999993,68.82700000000001 12.209999999999994,66.54700000000001 11.486999999999993,64.37300000000002 C 11.122999999999992,63.31800000000002 9.949999999999992,58.00600000000002 8.237999999999992,59.93300000000002 C 8.960999999999993,61.40500000000002 8.888999999999992,63.59200000000002 9.142999999999992,65.21900000000002 C 9.441999999999991,67.15300000000002 10.047999999999991,69.06100000000002 10.594999999999992,70.92900000000002 C 11.07099999999999,72.56400000000002 11.486999999999991,74.37300000000002 12.059999999999992,76.00100000000002 C 12.59999999999999,77.50500000000002 13.856999999999992,79.24300000000002 13.712999999999992,80.85700000000001 C 7.742999999999992,79.52900000000001 7.026999999999992,68.55200000000002 5.978999999999992,64.11200000000001 C 5.327999999999992,61.41700000000001 3.588999999999992,58.031000000000006 3.602999999999992,55.27100000000001 C 3.602999999999992,52.132000000000005 5.953999999999992,49.07900000000001 6.975999999999992,46.18800000000001 C 8.277999999999992,42.54500000000001 7.450999999999992,39.531000000000006 5.9799999999999915,36.17200000000001 C 4.722999999999992,33.33000000000001 4.0329999999999915,29.12800000000001 2.1059999999999914,26.77400000000001 C 1.6639999999999915,33.34600000000001 2.1059999999999914,40.003000000000014 2.1059999999999914,46.81000000000002 C 2.1059999999999914,50.426000000000016 2.1449999999999916,53.66900000000002 2.3399999999999914,57.17800000000002 C 2.4379999999999913,59.51500000000002 2.9719999999999915,65.10100000000001 1.0509999999999915,66.50700000000002 C -0.7070000000000085,64.43700000000003 0.7709999999999915,58.83800000000002 1.0509999999999915,56.32500000000002 C 1.4419999999999915,52.79600000000002 1.6629999999999914,49.69700000000002 1.3179999999999916,46.17500000000002 C 0.651,39.421 0.0,32.335 0.0,25.427 C 0.0,19.977 1.256,17.165 5.918,14.577 C 8.092,13.376 9.831,12.689 12.279,12.927"/>
</svg>
