<?xml version="1.0" ?>
<svg xmlns="http://www.w3.org/2000/svg" xmlns:ev="http://www.w3.org/2001/xml-events" xmlns:xlink="http://www.w3.org/1999/xlink" baseProfile="full" enable-background="new 0 0 100 91.084" height="547px" version="1.1" viewBox="0 0 100 91.084" width="600px" x="0px" xml:space="preserve" y="0px">
	<defs/>
	<path d="M 55.149,89.184 C 55.149,90.225 54.211,91.084 53.04,91.084 L 21.498,91.084 C 20.326,91.084 19.375,90.22500000000001 19.375,89.184 L 19.375,74.809 C 19.375,73.75399999999999 20.326,72.901 21.498,72.901 L 53.04,72.901 C 54.211999999999996,72.901 55.149,73.755 55.149,74.809 L 55.149,89.184"/>
	<path d="M 100.0,74.809 C 100.0,73.75399999999999 99.05,72.908 97.871,72.908 L 66.335,72.908 C 65.15599999999999,72.908 64.20599999999999,73.755 64.20599999999999,74.809 L 64.20599999999999,89.184 C 64.20599999999999,90.232 65.15599999999999,91.084 66.335,91.084 L 97.871,91.084 C 99.05,91.084 100.0,90.23100000000001 100.0,89.184 L 100.0,74.809"/>
	<path d="M 77.578,47.568 C 77.578,46.513 76.628,45.661 75.449,45.661 L 43.906,45.661 C 42.747,45.661 41.783,46.514 41.783,47.568 L 41.783,61.943 C 41.783,62.985 42.747,63.851 43.906,63.851 L 75.449,63.851 C 76.628,63.851 77.578,62.985 77.578,61.943 L 77.578,47.568"/>
	<path d="M 44.961,31.345 L 44.961,31.345 C 45.995999999999995,32.071 47.422,31.817 48.164,30.772 L 55.364000000000004,20.427 C 56.093,19.392 55.84,17.956 54.804,17.227 L 54.804,17.227 L 52.577000000000005,15.694 L 42.80500000000001,29.844 L 44.961,31.345"/>
	<path d="M 0.0,52.65 C 1.387,55.602 4.492,57.614 7.552,57.958999999999996 L 26.66,30.703 L 19.082,25.394 L 0.0,52.65"/>
	<path d="M 40.67,25.833 C 40.807,26.022 40.931000000000004,26.208 41.048,26.406 C 41.132000000000005,26.558999999999997 41.211,26.709 41.282000000000004,26.843 C 41.406000000000006,27.139 41.542,27.422 41.607000000000006,27.705 C 44.419000000000004,23.679 47.245000000000005,19.657999999999998 50.06400000000001,15.637999999999998 C 50.06400000000001,15.637999999999998 43.482000000000006,16.438999999999997 40.03200000000001,8.602999999999998 C 39.32200000000001,8.104999999999999 38.58000000000001,7.603999999999998 37.87000000000001,7.098999999999998 C 27.94800000000001,0.15899999999999803 18.534000000000013,-1.2570000000000014 10.33100000000001,0.9759999999999982 C 9.88200000000001,1.0999999999999983 8.99000000000001,1.3929999999999982 8.17600000000001,1.6659999999999981 C 6.737000000000011,2.153999999999998 6.99100000000001,4.341999999999999 8.60600000000001,4.080999999999998 C 9.368000000000011,3.9479999999999977 10.14200000000001,3.820999999999998 10.52000000000001,3.8009999999999975 C 12.08200000000001,3.7329999999999974 13.58000000000001,3.6249999999999973 15.14200000000001,3.9149999999999974 C 21.79600000000001,5.190999999999997 27.024000000000008,11.251999999999997 22.66200000000001,17.479 C 21.48400000000001,19.143 19.13400000000001,22.424 19.16000000000001,22.463 C 19.173000000000012,22.489 29.07600000000001,29.335 29.03000000000001,29.406 C 28.750000000000007,29.802999999999997 29.701000000000008,28.520999999999997 30.01300000000001,28.122999999999998 C 31.47800000000001,26.403999999999996 34.57000000000001,23.464999999999996 38.379000000000005,24.232999999999997 C 38.971000000000004,24.356999999999996 39.473000000000006,24.629999999999995 39.883,24.974999999999998 C 40.085,25.153999999999996 40.293,25.339 40.469,25.557999999999996 C 40.547,25.648 40.605,25.742 40.67,25.833"/>
</svg>
