<?xml version="1.0" ?>
<svg xmlns="http://www.w3.org/2000/svg" xmlns:ev="http://www.w3.org/2001/xml-events" xmlns:xlink="http://www.w3.org/1999/xlink" baseProfile="full" enable-background="new 0 0 100 61.219" height="368px" version="1.1" viewBox="0 0 100 61.219" width="600px" x="0px" xml:space="preserve" y="0px">
	<defs/>
	<path d="M 92.714,52.398 L 92.714,0.0 L 77.057,0.0 L 77.057,52.398 L 72.907,52.398 L 72.907,14.065 L 59.343,14.065 L 59.343,52.397999999999996 L 0.0,52.397999999999996 L 0.0,61.218999999999994 L 100.0,61.218999999999994 L 100.0,52.397999999999996 L 92.714,52.397999999999996 L 92.714,52.398 M 64.355,21.018 L 61.31100000000001,21.018 L 61.31100000000001,16.981 L 64.355,16.981 L 64.355,21.018 M 70.904,21.018 L 67.871,21.018 L 67.871,16.981 L 70.904,16.981 L 70.904,21.018 M 83.615,12.337 L 78.678,12.337 L 78.678,8.922 L 83.615,8.922 L 83.615,12.337 M 83.615,6.953 L 78.678,6.953 L 78.678,3.535 L 83.615,3.535 L 83.615,6.953 M 91.097,12.337 L 86.139,12.337 L 86.139,8.922 L 91.097,8.922 L 91.097,12.337 M 91.097,6.953 L 86.139,6.953 L 86.139,3.535 L 91.097,3.535 L 91.097,6.953"/>
	<path d="M 25.206,44.244 L 25.206,38.781 L 0.0,38.781 L 0.0,27.669 L 25.206,27.669 L 25.206,22.084 L 44.396,33.166 L 25.206,44.244" points="25.206,44.244 25.206,38.781 0,38.781 0,27.669 25.206,27.669 25.206,22.084 44.396,33.166 "/>
</svg>
