<?xml version="1.0" ?>
<svg xmlns="http://www.w3.org/2000/svg" xmlns:ev="http://www.w3.org/2001/xml-events" xmlns:xlink="http://www.w3.org/1999/xlink" baseProfile="full" enable-background="new 0 0 83.097 100" height="600px" version="1.1" viewBox="0 0 83.097 100" width="499px" x="0px" xml:space="preserve" y="0px">
	<defs/>
	<path d="M 65.866,15.104 C 60.964,15.104 56.998999999999995,19.061999999999998 56.998999999999995,23.945 C 56.998999999999995,28.841 60.964,32.799 65.866,32.799 C 70.743,32.799 74.708,28.841 74.708,23.945 C 74.708,19.062 70.743,15.104 65.866,15.104"/>
	<path d="M 81.881,65.521 C 80.879,65.95100000000001 79.713,65.45700000000001 79.283,64.466 L 75.157,47.24 L 74.59,65.547 L 74.57600000000001,65.547 L 76.21700000000001,95.82 C 76.32100000000001,97.64299999999999 74.96100000000001,99.21799999999999 73.14500000000001,99.348 C 73.06000000000002,99.362 72.98200000000001,99.362 72.897,99.362 C 71.17800000000001,99.362 69.71300000000001,98.03399999999999 69.616,96.289 L 65.846,67.72200000000001 L 62.11,96.289 C 61.973,98.034 60.521,99.362 58.796,99.362 C 58.725,99.362 58.647,99.362 58.556,99.348 C 56.745,99.218 55.372,97.643 55.489999999999995,95.82 L 57.10399999999999,65.547 L 56.549,47.24 C 56.549,47.24 45.553,58.321 44.869,58.620000000000005 C 43.672,59.12800000000001 42.291,58.56700000000001 41.777,57.370000000000005 L 32.844,37.93000000000001 L 39.615,70.769 L 33.08,70.769 L 31.061,97.644 C 31.061,98.933 30.0,100.0 28.717,100.0 C 27.389,100.0 26.346999999999998,98.933 26.346999999999998,97.644 L 24.334999999999997,70.769 L 23.15,70.769 L 21.959,70.769 L 19.947,97.644 C 19.947,98.933 18.899,100.0 17.576999999999998,100.0 C 16.287999999999997,100.0 15.232999999999999,98.933 15.232999999999999,97.644 L 13.207999999999998,70.769 L 6.68,70.769 L 13.443999999999999,37.93000000000001 L 4.518,57.37 C 4.01,58.567 2.617,59.128 1.4189999999999996,58.62 C 0.23399999999999954,58.111999999999995 -0.3260000000000005,56.730999999999995 0.19499999999999962,55.519999999999996 C 0.19499999999999962,55.519999999999996 5.5009999999999994,36.224 7.954999999999999,31.196999999999996 C 10.402999999999999,26.176999999999996 12.850999999999999,23.123999999999995 22.186999999999998,23.123999999999995 L 23.15,23.123999999999995 L 24.107,23.123999999999995 C 33.437,23.123999999999995 35.891,26.176999999999996 38.339,31.196999999999996 C 40.135999999999996,34.86899999999999 43.43,46.132 45.083999999999996,51.94 C 47.461,48.696999999999996 50.684,44.126999999999995 51.913999999999994,41.574999999999996 C 53.983999999999995,37.33 57.187,34.778 65.05199999999999,34.778 L 66.654,34.778 C 74.52499999999999,34.778 77.709,37.33 79.792,41.574999999999996 C 81.862,45.794 82.937,62.916 82.937,62.916 C 83.373,63.945 82.891,65.091 81.881,65.521"/>
	<path d="M 38.197,16.432 C 38.197,18.971 36.049,21.029 33.379000000000005,21.029 C 31.517000000000003,21.029 29.955000000000005,19.994 29.154000000000003,18.516 C 27.331000000000003,20.014 25.098000000000003,21.028999999999996 22.559000000000005,21.028999999999996 C 20.007000000000005,21.028999999999996 17.780000000000005,20.012999999999998 15.957000000000004,18.516 C 15.156000000000004,19.994 13.587000000000003,21.028999999999996 11.732000000000005,21.028999999999996 C 9.063000000000004,21.028999999999996 6.914000000000005,18.970999999999997 6.914000000000005,16.431999999999995 C 6.914000000000005,13.899999999999995 9.062000000000005,11.835999999999995 11.732000000000005,11.835999999999995 C 11.934000000000005,11.835999999999995 12.116000000000005,11.926999999999994 12.318000000000005,11.952999999999996 C 12.246000000000006,11.464999999999996 12.025000000000006,11.028999999999996 12.025000000000006,10.513999999999996 C 12.025,4.707 16.738,0.0 22.559,0.0 C 28.373,0.0 33.08,4.707 33.08,10.514 C 33.08,11.029 32.864999999999995,11.465 32.793,11.953 C 32.988,11.927 33.17,11.835999999999999 33.379,11.835999999999999 C 36.048,11.836 38.197,13.9 38.197,16.432"/>
</svg>
