<?xml version="1.0" ?>
<svg xmlns="http://www.w3.org/2000/svg" xmlns:ev="http://www.w3.org/2001/xml-events" xmlns:xlink="http://www.w3.org/1999/xlink" baseProfile="full" enable-background="new 0 0 100 76.631" height="460px" version="1.1" viewBox="0 0 100 76.631" width="600px" x="0px" xml:space="preserve" y="0px">
	<defs/>
	<path d="M 52.861,21.792 C 56.113,16.768 62.831999999999994,15.332 67.851,18.589000000000002 C 72.875,21.846000000000004 74.31099999999999,28.555 71.059,33.584 C 67.80199999999999,38.608000000000004 61.087999999999994,40.039 56.064,36.787000000000006 C 51.04,33.53 49.604,26.816 52.861,21.792 M 8.804,67.886 C 13.472000000000001,58.81399999999999 20.782,65.244 20.782,65.244 C 16.358,65.635 16.143,69.761 16.939,72.202 C 17.891,75.117 21.153,76.235 22.769,76.631 L 24.189999999999998,76.631 C 25.825999999999997,76.304 29.424,74.805 32.989,67.886 C 37.666999999999994,58.81399999999999 44.967,65.244 44.967,65.244 C 40.543,65.635 40.338,69.761 41.134,72.202 C 42.081,75.117 45.338,76.235 46.974000000000004,76.631 L 48.141000000000005,76.631 C 49.782000000000004,76.304 53.385000000000005,74.805 56.94500000000001,67.886 C 61.63300000000001,58.81399999999999 68.923,65.244 68.923,65.244 C 64.509,65.635 64.294,69.761 65.10000000000001,72.202 C 66.04700000000001,75.117 69.299,76.235 70.92500000000001,76.631 L 72.33600000000001,76.631 C 73.96700000000001,76.304 77.58500000000001,74.805 81.13000000000001,67.886 C 85.82700000000001,58.81399999999999 93.10300000000001,65.244 93.10300000000001,65.244 C 88.68900000000001,65.635 88.47900000000001,69.761 89.28000000000002,72.202 C 90.22700000000002,75.117 93.47900000000001,76.235 95.10500000000002,76.631 L 100.0,76.631 L 100.0,63.545 L 96.699,63.545 C 95.097,63.154 91.904,62.061 90.971,59.229 C 90.19,56.836 90.39,52.808 94.73100000000001,52.432 C 94.73100000000001,52.432 87.578,46.167 82.97300000000001,55.005 C 81.73800000000001,57.388000000000005 80.50200000000001,59.082 79.34000000000002,60.332 L 65.288,45.854 L 48.467,34.961 L 42.495,31.089 L 42.495,31.093999999999998 L 30.537,23.35 L 24.761,3.394 C 24.038,0.8890000000000002 21.430999999999997,-0.5069999999999997 18.911,0.17100000000000026 C 16.406000000000002,0.8990000000000002 14.961000000000002,3.5160000000000005 15.688000000000002,6.021 L 21.953000000000003,27.667 C 22.275000000000002,28.761000000000003 22.969,29.698 23.926000000000002,30.318 L 37.359,39.014 L 22.379,62.139 C 21.349,61.465 20.401,60.552 19.967000000000002,59.229 C 19.186000000000003,56.836 19.391000000000002,52.808 23.727000000000004,52.432 C 23.727000000000004,52.432 16.574000000000005,46.167 11.984000000000004,55.005 C 8.468000000000004,61.748000000000005 4.9280000000000035,63.223 3.3320000000000043,63.545 L 0.0,63.545 L 0.0,76.631 C 1.631,76.304 5.229,74.805 8.804,67.886"/>
</svg>
