<?xml version="1.0" ?>
<svg xmlns="http://www.w3.org/2000/svg" xmlns:ev="http://www.w3.org/2001/xml-events" xmlns:xlink="http://www.w3.org/1999/xlink" baseProfile="full" enable-background="new 0 0 42.94 100" height="600px" version="1.1" viewBox="0 0 42.94 100" width="258px" x="0px" xml:space="preserve" y="0px">
	<defs/>
	<path d="M 38.668,59.7 L 38.668,98.22900000000001 C 38.668,99.19900000000001 37.874,100.00000000000001 36.897,100.00000000000001 C 35.919999999999995,100.00000000000001 35.126,99.19900000000001 35.126,98.22900000000001 L 35.126,59.7 C 35.126,58.17100000000001 33.882,56.92100000000001 32.339,56.92100000000001 C 30.816,56.92100000000001 29.566,58.17100000000001 29.566,59.7 C 29.566,60.671 28.765,61.465 27.794999999999998,61.465 C 26.817999999999998,61.465 26.023999999999997,60.67100000000001 26.023999999999997,59.7 C 26.023999999999997,57.102000000000004 27.592,54.902 29.818999999999996,53.926 C 25.333999999999996,47.259 22.839999999999996,39.909000000000006 21.498999999999995,33.776 L 13.415,56.68 C 13.408999999999999,56.693 13.383,56.706 13.376,56.711999999999996 C 13.668999999999999,57.69499999999999 18.649,75.28 12.738,95.202 C 12.145,97.207 10.315999999999999,98.489 8.329999999999998,98.489 C 7.899999999999999,98.489 7.456999999999998,98.43 7.020999999999998,98.301 C 4.5859999999999985,97.58500000000001 3.1929999999999983,95.02 3.915999999999998,92.58500000000001 C 8.616999999999997,76.73100000000001 5.289999999999998,62.18100000000001 4.6389999999999985,59.65500000000001 C -0.3550000000000013,49.92200000000001 -1.3240000000000016,40.93700000000001 1.7679999999999985,32.93600000000001 C 6.702999999999998,20.163000000000007 20.250999999999998,15.111000000000008 20.823999999999998,14.896000000000008 C 23.2,14.023000000000009 25.863,15.260000000000009 26.721999999999998,17.643000000000008 C 27.028,18.483000000000008 26.929999999999996,20.462000000000007 26.929999999999996,20.63800000000001 C 26.929999999999996,20.80100000000001 27.099999999999998,38.248000000000005 36.39,51.08100000000001 C 37.256,52.28500000000001 37.249,53.83500000000001 36.507,55.03200000000001 C 37.809,56.185 38.668,57.825 38.668,59.7"/>
	<path d="M 42.94,9.01 C 42.94,13.99 38.897,18.033 33.929,18.033 C 28.942,18.033 24.893,13.990000000000002 24.893,9.010000000000002 C 24.893,4.017000000000001 28.942,1.7763568394002505e-15 33.929,1.7763568394002505e-15 C 38.897,0.0 42.94,4.017 42.94,9.01"/>
</svg>
