<?xml version="1.0" ?>
<svg xmlns="http://www.w3.org/2000/svg" xmlns:ev="http://www.w3.org/2001/xml-events" xmlns:xlink="http://www.w3.org/1999/xlink" baseProfile="full" enable-background="new 0 0 70.06 100" height="600px" version="1.1" viewBox="0 0 70.06 100" width="421px" x="0px" xml:space="preserve" y="0px">
	<defs/>
	<path d="M 49.568,63.34 C 49.568,63.34 59.126,72.91 59.158,72.923 C 62.205,75.99000000000001 61.417,81.388 58.526,84.33 L 45.192,98.224 C 40.043,103.355 33.161,96.232 38.161,91.25800000000001 L 46.618,82.79400000000001 L 38.337,74.57000000000001 L 49.568,63.34 L 49.568,63.34"/>
	<path d="M 19.84,63.34 L 19.84,63.34 C 19.84,63.34 10.302,72.91 10.302,72.923 C 7.228999999999999,75.99000000000001 8.017,81.388 10.875,84.33 L 24.261,98.224 C 29.391,103.355 36.274,96.232 31.299,91.25800000000001 L 22.854999999999997,82.79400000000001 L 31.077999999999996,74.57000000000001 L 19.84,63.34"/>
	<path d="M 35.042,27.732 C 42.699,27.732 48.910000000000004,21.537 48.910000000000004,13.847999999999999 C 48.91,6.198 42.699,0.0 35.042,0.0 C 27.373,0.0 21.155,6.198 21.155,13.849 C 21.155,21.538 27.373,27.732 35.042,27.732"/>
	<path d="M 50.069,57.786 L 50.271,48.326 L 61.794,59.082 C 62.738,59.967 63.942,60.396 65.148,60.396 C 66.457,60.396 67.771,59.875 68.735,58.84 C 70.59,56.854000000000006 70.48,53.748000000000005 68.501,51.900000000000006 C 68.501,51.900000000000006 55.284000000000006,37.537000000000006 53.39,35.864000000000004 C 49.868,32.745000000000005 44.711,30.981000000000005 36.345,30.981000000000005 L 33.714999999999996,30.981000000000005 C 25.348999999999997,30.981000000000005 20.191999999999997,32.745000000000005 16.669999999999995,35.864000000000004 C 14.775,37.538 1.558,51.9 1.558,51.9 C -0.42100000000000004,53.748999999999995 -0.5319999999999998,56.854 1.324,58.839999999999996 C 2.287,59.87499999999999 3.6029999999999998,60.395999999999994 4.9110000000000005,60.395999999999994 C 6.115,60.395999999999994 7.32,59.965999999999994 8.264000000000001,59.081999999999994 L 19.788,48.32599999999999 L 19.990000000000002,57.785999999999994 L 50.069,57.785999999999994 L 50.069,57.786"/>
</svg>
