<?xml version="1.0" ?>
<svg xmlns="http://www.w3.org/2000/svg" xmlns:ev="http://www.w3.org/2001/xml-events" xmlns:xlink="http://www.w3.org/1999/xlink" baseProfile="full" enable-background="new 0 0 34.616 100" height="600px" version="1.1" viewBox="0 0 34.616 100" width="209px" x="0px" xml:space="preserve" y="0px">
	<defs/>
	<path d="M 17.321,0.0 C 12.620000000000001,0.0 8.812000000000001,3.802 8.812000000000001,8.502 C 8.812000000000001,13.190000000000001 12.621000000000002,16.992 17.321,16.992 C 22.002000000000002,16.992 25.804000000000002,13.190000000000001 25.804000000000002,8.502 C 25.805,3.802 22.002,0.0 17.321,0.0"/>
	<path d="M 31.364,25.82 C 29.281,21.562 26.052,18.971 18.122,18.971 L 17.308,18.971 L 16.495,18.971 C 8.565000000000001,18.971 5.336,21.562 3.253,25.82 C 2.21,27.949 0.017,54.583 0.017,54.583 C -0.15200000000000002,56.159 0.987,57.565 2.556,57.722 C 2.66,57.735 2.758,57.735 2.862,57.735 C 4.307,57.735 5.550000000000001,56.647999999999996 5.694,55.183 L 7.933,32.038 L 8.487,50.007 L 6.853,96.438 C 6.736,98.268 8.116,99.87 9.945,99.98700000000001 C 10.042,100.0 10.114,100.0 10.179,100.0 C 11.924,100.0 13.395,98.659 13.526,96.901 L 17.308,58.659 L 21.091,96.901 C 21.221,98.65899999999999 22.693,100.0 24.438000000000002,100.0 C 24.502000000000002,100.0 24.575000000000003,100.0 24.672000000000004,99.987 C 26.501000000000005,99.86999999999999 27.881000000000004,98.268 27.764000000000003,96.43799999999999 L 26.13,50.006 L 26.683999999999997,32.037 L 28.923,55.182 C 29.066999999999997,56.647000000000006 30.31,57.734 31.755,57.734 C 31.858999999999998,57.734 31.957,57.734 32.061,57.721000000000004 C 33.63,57.565000000000005 34.77,56.159000000000006 34.6,54.582 C 34.6,54.583 32.406,27.949 31.364,25.82"/>
</svg>
