<?xml version="1.0" ?>
<svg xmlns="http://www.w3.org/2000/svg" xmlns:ev="http://www.w3.org/2001/xml-events" xmlns:xlink="http://www.w3.org/1999/xlink" baseProfile="full" enable-background="new 0 0 100 100" height="600px" version="1.1" viewBox="0 0 100 100" width="600px" x="0px" xml:space="preserve" y="0px">
	<defs/>
	<path d="M 88.407,82.899 L 88.407,83.194 C 88.407,83.34400000000001 88.36699999999999,83.491 88.288,83.61800000000001 L 86.467,86.60600000000001 C 86.318,86.858 86.048,86.99900000000001 85.773,86.99900000000001 C 85.64099999999999,86.99900000000001 85.51299999999999,86.968 85.39,86.903 L 80.149,84.11 L 74.458,86.915 C 74.229,87.028 73.96,87.02600000000001 73.73,86.911 L 68.185,84.108 L 62.691,86.909 C 62.42,87.05000000000001 62.092000000000006,87.024 61.846000000000004,86.84500000000001 L 56.184000000000005,82.78800000000001 L 56.117000000000004,82.78800000000001 L 49.777,85.57100000000001 C 49.572,85.66100000000002 49.338,85.66300000000001 49.131,85.57500000000002 L 42.562,82.78800000000001 L 42.48,82.78800000000001 L 36.815,86.84500000000001 C 36.532,87.05000000000001 36.153999999999996,87.05000000000001 35.872,86.85100000000001 L 32.079,84.18100000000001 L 27.994,86.86700000000002 C 27.7,87.05600000000001 27.315,87.04100000000003 27.038,86.82200000000002 L 24.38,84.70500000000001 L 20.794,82.97500000000001 L 14.114,84.79700000000001 C 13.737,84.90100000000001 13.342,84.72100000000002 13.169,84.373 L 12.383000000000001,82.789 C 10.694,82.803 9.327000000000002,84.176 9.327000000000002,85.869 L 9.327000000000002,88.269 C 9.327000000000002,91.87100000000001 12.246000000000002,94.789 15.848000000000003,94.789 L 84.15,94.789 C 87.75200000000001,94.789 90.671,91.871 90.671,88.269 L 90.671,85.869 C 90.672,84.448 89.714,83.257 88.407,82.899"/>
	<path d="M 20.659,81.321 C 20.849,81.27 21.051,81.286 21.227999999999998,81.374 L 25.171,83.276 C 25.226,83.301 25.277,83.335 25.325,83.372 L 27.592,85.177 L 31.648,82.515 C 31.928,82.331 32.291,82.337 32.565,82.529 L 36.336999999999996,85.185 L 41.931,81.173 C 42.163,81.009 42.462999999999994,80.976 42.724999999999994,81.087 L 49.443,83.937 L 55.925999999999995,81.089 C 56.19199999999999,80.976 56.495,81.005 56.73,81.173 L 62.391999999999996,85.232 L 67.813,82.468 C 67.931,82.409 68.056,82.38000000000001 68.183,82.38000000000001 C 68.31000000000002,82.38000000000001 68.436,82.409 68.55000000000001,82.46600000000001 L 74.10100000000001,85.27300000000001 L 79.80300000000001,82.46400000000001 C 80.03800000000001,82.34700000000001 80.31400000000001,82.35100000000001 80.546,82.47600000000001 L 85.476,85.10300000000001 L 86.777,82.96600000000001 L 86.777,79.935 L 12.788,79.935 L 14.332,83.048 L 20.659,81.321"/>
	<path d="M 89.738,66.118 L 87.009,66.118 C 78.398,66.338 69.156,74.85799999999999 69.063,74.946 C 68.912,75.087 68.712,75.16499999999999 68.507,75.16499999999999 C 68.479,75.16499999999999 68.449,75.163 68.42200000000001,75.15899999999999 C 68.186,75.136 67.97500000000001,75.011 67.83900000000001,74.815 C 63.17200000000001,68.12899999999999 27.909000000000013,66.294 13.38000000000001,66.118 L 10.263000000000009,66.118 C 7.451000000000009,66.118 5.173000000000009,68.395 5.173000000000009,71.21 L 5.173000000000009,73.142 C 5.173000000000009,75.954 7.451000000000009,78.234 10.263000000000009,78.234 L 89.738,78.234 C 92.55,78.234 94.827,75.955 94.827,73.142 L 94.827,71.21 C 94.827,68.396 92.55,66.118 89.738,66.118"/>
	<path d="M 68.589,73.185 C 70.855,71.22 78.701,64.92 86.531,64.499 L 86.531,63.208999999999996 L 13.169,63.208999999999996 L 13.169,64.487 C 19.711,64.571 60.871,65.412 68.589,73.185"/>
	<path d="M 89.738,32.676 L 87.009,32.676 C 78.398,32.896 69.156,41.416000000000004 69.063,41.504000000000005 C 68.912,41.645 68.712,41.723000000000006 68.507,41.723000000000006 C 68.479,41.723000000000006 68.449,41.721000000000004 68.42200000000001,41.717000000000006 C 68.186,41.694 67.97500000000001,41.569 67.83900000000001,41.373000000000005 C 63.17200000000001,34.687000000000005 27.909000000000013,32.852000000000004 13.38000000000001,32.676 L 10.263000000000009,32.676 C 7.451000000000009,32.676 5.173000000000009,34.953 5.173000000000009,37.768 L 5.173000000000009,39.7 C 5.173000000000009,42.512 7.451000000000009,44.792 10.263000000000009,44.792 L 89.738,44.792 C 92.55,44.792 94.827,42.513000000000005 94.827,39.7 L 94.827,37.768 C 94.827,34.953 92.55,32.676 89.738,32.676"/>
	<path d="M 68.589,39.742 C 70.855,37.776999999999994 78.701,31.476999999999997 86.531,31.055999999999997 L 86.531,29.766 L 13.169,29.766 L 13.169,31.043999999999997 C 19.711,31.129 60.871,31.97 68.589,39.742"/>
	<path d="M 10.262,49.428 L 12.991,49.428 C 21.602,49.648999999999994 30.844,58.169 30.937,58.257 C 31.088,58.397999999999996 31.288,58.476 31.493000000000002,58.476 C 31.521,58.476 31.551000000000002,58.474 31.578000000000003,58.47 C 31.814000000000004,58.446999999999996 32.025000000000006,58.321999999999996 32.161,58.126 C 36.828,51.44 72.09100000000001,49.605 86.62,49.428 L 89.736,49.428 C 92.548,49.428 94.827,51.705999999999996 94.827,54.521 L 94.827,56.453 C 94.827,59.265 92.54899999999999,61.545 89.736,61.545 L 10.262,61.545 C 7.450000000000001,61.545 5.173,59.266000000000005 5.173,56.453 L 5.173,54.521 C 5.173,51.706 7.45,49.428 10.262,49.428"/>
	<path d="M 31.411,56.495 C 29.145000000000003,54.529999999999994 21.299,48.229 13.469000000000001,47.809 L 13.469000000000001,46.519 L 86.83,46.519 L 86.83,47.796 C 80.289,47.881 39.129,48.723 31.411,56.495"/>
	<path d="M 49.308,5.212 C 27.980999999999998,5.212 8.636000000000003,16.706 8.636000000000003,22.714 C 8.636000000000003,23.409 8.636000000000003,25.113 8.636000000000003,25.113 C 8.636000000000003,26.814999999999998 10.014000000000003,28.195 11.716000000000003,28.195 L 86.9,28.195 C 88.601,28.195 89.98100000000001,26.815 89.98100000000001,25.113 C 89.98100000000001,25.113 89.98100000000001,23.83 89.98100000000001,22.714 C 89.979,16.706 70.634,5.212 49.308,5.212 M 55.406,12.236 C 55.406,11.379000000000001 56.622,10.683 58.123,10.683 C 59.623,10.683 60.840999999999994,11.378 60.840999999999994,12.236 C 60.840999999999994,13.094000000000001 59.62299999999999,13.789000000000001 58.12299999999999,13.789000000000001 C 56.622,13.789 55.406,13.094 55.406,12.236 M 61.61,21.086 C 60.109,21.086 58.891999999999996,20.392 58.891999999999996,19.534 C 58.891999999999996,18.676 60.108999999999995,17.980999999999998 61.61,17.980999999999998 C 63.109,17.980999999999998 64.326,18.676 64.326,19.534 C 64.326,20.392 63.109,21.086 61.61,21.086 M 74.108,19.534 C 72.607,19.534 71.391,18.839 71.391,17.980999999999998 C 71.391,17.122999999999998 72.607,16.427999999999997 74.108,16.427999999999997 C 75.608,16.427999999999997 76.824,17.122999999999998 76.824,17.980999999999998 C 76.824,18.839 75.608,19.534 74.108,19.534"/>
</svg>
