<?xml version="1.0" ?>
<svg xmlns="http://www.w3.org/2000/svg" xmlns:ev="http://www.w3.org/2001/xml-events" xmlns:xlink="http://www.w3.org/1999/xlink" baseProfile="full" enable-background="new 0 0 59.987 100" height="600px" version="1.1" viewBox="0 0 59.987 100" width="361px" x="0px" xml:space="preserve" y="0px">
	<defs/>
	<path d="M 38.268,14.401 L 38.268,18.998 L 10.886,18.998 L 10.886,14.401 L 13.529,14.401 L 13.529,1.693 L 13.529,1.693 C 13.529,0.749 18.477,0.0 24.57,0.0 C 30.663,0.0 35.599000000000004,0.749 35.599000000000004,1.693 L 35.599000000000004,1.693 L 35.599000000000004,14.401 L 38.268,14.401"/>
	<path d="M 51.966,31.458 L 38.711,22.2 L 10.677,22.2 L 0.886,33.77 L 0.0,100.0 L 59.635,100.0 L 59.986999999999995,59.056 L 51.966,31.458 M 43.412,60.944 L 38.204,42.955 C 38.087,34.381 42.735,34.687 45.639,36.809 C 47.658,38.306 48.256,40.93 48.256,40.93 L 50.665,60.748000000000005 C 47.435,67.376 43.412,60.944 43.412,60.944"/>
</svg>
