<?xml version="1.0" ?>
<svg xmlns="http://www.w3.org/2000/svg" xmlns:ev="http://www.w3.org/2001/xml-events" xmlns:xlink="http://www.w3.org/1999/xlink" baseProfile="full" enable-background="new 0 0 92.967 100" height="600px" version="1.1" viewBox="0 0 92.967 100" width="558px" x="0px" xml:space="preserve" y="0px">
	<defs/>
	<path d="M 83.281,10.474 L 70.14200000000001,22.714 L 22.824,22.714 L 9.692,10.474 C 9.692,10.474 16.229,1.3399999999999999 27.004,0.14199999999999946 C 37.551,-1.031 41.21,5.441 46.49,5.688 C 51.758,5.4399999999999995 55.442,-1.0310000000000006 65.969,0.14100000000000001 C 76.757,1.339 83.281,10.474 83.281,10.474"/>
	<path d="M 73.698,30.578 L 19.276,30.578 C 19.276,30.578 -6.850000000000001,51.144 1.7300000000000004,89.04899999999999 C 1.7300000000000004,89.04899999999999 4.588000000000001,99.999 17.727,99.999 L 75.267,99.999 C 88.37899999999999,99.999 91.238,89.04899999999999 91.238,89.04899999999999 C 99.818,51.145 73.698,30.578 73.698,30.578 M 68.528,42.173 C 68.528,42.173 62.154,61.021 56.230000000000004,55.103 C 50.332,49.205 66.582,42.603 68.528,42.173 M 53.352,38.547 C 53.352,38.547 49.107,41.906 52.043,49.67999999999999 C 55.336999999999996,58.397999999999996 49.126,60.434999999999995 46.632999999999996,57.934999999999995 C 41.06,52.356 51.333,39.217 53.352,38.547 M 45.318,46.568 C 45.318,46.568 41.073,49.940999999999995 44.009,57.70099999999999 C 47.31,66.431 41.092,68.47 38.592,65.976 C 33.0,60.39 43.3,47.238 45.318,46.568 M 32.395,81.919 L 24.608000000000004,88.476 C 23.046000000000003,90.051 21.138000000000005,86.855 21.880000000000003,86.106 L 28.494000000000003,78.02699999999999 C 29.165000000000003,77.34299999999999 29.445000000000004,78.82099999999998 30.519000000000002,79.90799999999999 C 31.594,80.969 33.065,81.25 32.395,81.919 M 30.311,74.244 C 24.725,68.678 35.005,55.525999999999996 37.05,54.855999999999995 C 37.05,54.855999999999995 32.799,58.214999999999996 35.735,65.98899999999999 C 39.035,74.707 32.798,76.757 30.311,74.244 M 36.32,80.259 C 33.8,77.746 35.845,71.523 44.575,74.81700000000001 C 52.329,77.75900000000001 55.708,73.521 55.708,73.521 C 55.051,75.527 41.894,85.827 36.32,80.259 M 44.589,71.972 C 42.076,69.472 44.132999999999996,63.25399999999999 52.844,66.529 C 60.624,69.472 63.99,65.247 63.99,65.247 C 63.313,67.258 50.168,77.551 44.589,71.972 M 52.623,63.938 C 50.123,61.438 52.147999999999996,55.213 60.897999999999996,58.508 C 68.63799999999999,61.464000000000006 72.03099999999999,57.212 72.03099999999999,57.212 C 71.354,59.238 58.196,69.517 52.623,63.938"/>
</svg>
