<?xml version="1.0" ?>
<svg xmlns="http://www.w3.org/2000/svg" xmlns:ev="http://www.w3.org/2001/xml-events" xmlns:xlink="http://www.w3.org/1999/xlink" baseProfile="full" enable-background="new 0 0 100 84.961" height="510px" version="1.1" viewBox="0 0 100 84.961" width="600px" x="0px" xml:space="preserve" y="0px">
	<defs/>
	<path d="M 84.473,18.301 L 69.16,18.301 L 69.16,0.0 L 30.84,0.0 L 30.84,18.301 L 15.527,18.301 C 6.992,18.301 0.0,25.293 0.0,33.828 L 0.0,69.43299999999999 C 0.0,77.96799999999999 6.992,84.96 15.527,84.96 L 84.472,84.96 C 93.00699999999999,84.96 99.999,77.96799999999999 99.999,69.43299999999999 L 99.999,33.828 C 100.0,25.293 93.008,18.301 84.473,18.301 M 44.824,56.094 L 33.327,56.094 L 33.327,67.578 L 24.42,67.578 L 24.42,56.094 L 12.93,56.094 L 12.93,47.195 L 24.42,47.195 L 24.42,35.703 L 33.326,35.703 L 33.326,47.194 L 44.824,47.194 L 44.824,56.094 M 62.019,18.301 L 37.982,18.301 L 37.982,7.142 L 62.019,7.142 L 62.019,18.301"/>
</svg>
