<?xml version="1.0" ?>
<svg xmlns="http://www.w3.org/2000/svg" xmlns:ev="http://www.w3.org/2001/xml-events" xmlns:xlink="http://www.w3.org/1999/xlink" baseProfile="full" enable-background="new 0 0 100 100" height="600px" version="1.1" viewBox="0 0 100 100" width="461px" x="0px" xml:space="preserve" y="0px">
	<defs/>
	<path d="M 87.795,79.861 L 87.795,82.85600000000001 C 87.795,92.19200000000001 80.158,99.82900000000001 70.822,99.82900000000001 L 28.081,99.82900000000001 C 18.744999999999997,99.82900000000001 11.102,92.19200000000001 11.102,82.85600000000001 L 11.102,79.861 C 14.559000000000001,85.68100000000001 20.835,89.62700000000001 28.081,89.62700000000001 L 70.822,89.62700000000001 C 78.062,89.627 84.338,85.682 87.795,79.861"/>
	<path d="M 70.822,46.288 L 28.081,46.288 C 18.744999999999997,46.288 11.102,53.924 11.102,63.26 L 11.102,69.822 C 11.102,79.158 18.745,86.801 28.081,86.801 L 70.822,86.801 C 80.158,86.801 87.795,79.157 87.795,69.822 L 87.795,63.26 C 87.795,53.924 80.158,46.288 70.822,46.288"/>
	<path d="M 71.643,6.007 C 65.159,6.007 59.905,11.254999999999999 59.905,17.744999999999997 C 59.905,24.217 65.159,29.464 71.643,29.464 C 78.121,29.464 83.368,24.217 83.368,17.744999999999997 C 83.367,11.255 78.12,6.007 71.643,6.007"/>
	<path d="M 53.732,8.481 C 53.732,3.7089999999999996 49.858,-0.17099999999999937 45.086,-0.17099999999999937 C 40.314,-0.17099999999999937 36.446,3.7090000000000005 36.446,8.481 C 36.446,10.428 37.11,12.205 38.196999999999996,13.644 C 39.349,13.084 40.62499999999999,12.739 41.992,12.739 C 44.824,12.739 47.311,14.106000000000002 48.9,16.196 C 51.753,14.784 53.732,11.874 53.732,8.481"/>
	<path d="M 33.296,21.437 C 33.296,21.229000000000003 33.341,21.040000000000003 33.355,20.838 C 32.684999999999995,20.688000000000002 31.993999999999996,20.597 31.278,20.597 C 26.005,20.597 21.733999999999998,24.868000000000002 21.733999999999998,30.141000000000002 C 21.733999999999998,35.421 26.005,39.692 31.278,39.692 C 36.558,39.692 40.829,35.421 40.829,30.141 C 40.829,30.101999999999997 40.816,30.063 40.816,30.023999999999997 C 36.577,29.438 33.296,25.838 33.296,21.437"/>
	<path d="M 41.994,14.647 C 38.251,14.647 35.204,17.694 35.204,21.437 C 35.204,25.187 38.251,28.234 41.994,28.234 C 45.751,28.234 48.798,25.187 48.798,21.437 C 48.797,17.694 45.75,14.647 41.994,14.647"/>
</svg>
