<?xml version="1.0" ?>
<svg xmlns="http://www.w3.org/2000/svg" xmlns:ev="http://www.w3.org/2001/xml-events" xmlns:xlink="http://www.w3.org/1999/xlink" baseProfile="full" enable-background="new 0 0 100 79.193" height="476px" version="1.1" viewBox="0 0 100 79.193" width="600px" x="0px" xml:space="preserve" y="0px">
	<defs/>
	<path d="M 21.602,0.0 C 9.674,0.0 0.0,4.635 0.0,10.352 L 0.0,75.104 L 0.0,77.42099999999999 L 0.0,79.192 L 3.639,79.192 L 3.639,77.42099999999999 L 39.551,77.42099999999999 L 39.551,79.192 L 43.203,79.192 L 43.203,77.42099999999999 L 43.203,75.10399999999998 L 43.203,10.352 C 43.203,4.635 33.535,0.0 21.602,0.0 M 37.591,43.216 L 35.032000000000004,43.216 L 35.032000000000004,34.843 L 37.591,34.843 L 37.591,43.216 M 2.728,10.352 C 2.728,7.175000000000001 9.916,2.7350000000000003 21.602,2.7350000000000003 C 33.295,2.7350000000000003 40.476,7.175000000000001 40.476,10.352 L 2.728,10.352"/>
	<path d="M 78.405,0.0 C 66.472,0.0 56.797,4.635 56.797,10.352 L 56.797,75.104 L 56.797,77.42099999999999 L 56.797,79.192 L 60.443,79.192 L 60.443,77.42099999999999 L 96.348,77.42099999999999 L 96.348,79.192 L 100.0,79.192 L 100.0,77.42099999999999 L 100.0,75.10399999999998 L 100.0,10.352 C 100.0,4.635 90.332,0.0 78.405,0.0 M 94.395,43.216 L 91.83,43.216 L 91.83,34.843 L 94.395,34.843 L 94.395,43.216 M 59.524,10.352 C 59.524,7.175000000000001 66.712,2.7350000000000003 78.405,2.7350000000000003 C 90.09700000000001,2.7350000000000003 97.272,7.175000000000001 97.272,10.352 L 59.524,10.352"/>
</svg>
