<?xml version="1.0" ?>
<svg xmlns="http://www.w3.org/2000/svg" xmlns:ev="http://www.w3.org/2001/xml-events" xmlns:xlink="http://www.w3.org/1999/xlink" baseProfile="full" enable-background="new 0 0 54.557 100" height="600px" version="1.1" viewBox="0 0 54.557 100" width="328px" x="0px" xml:space="preserve" y="0px">
	<defs/>
	<path d="M 27.279,0.0 C 12.214,0.0 0.0,5.853 0.0,13.073 L 0.0,94.83699999999999 L 0.0,97.767 L 0.0,100.0 L 4.597,100.0 L 4.597,97.767 L 49.948,97.767 L 49.948,100.0 L 54.557,100.0 L 54.557,97.767 L 54.557,94.83699999999999 L 54.557,13.073 C 54.557,5.853 42.344,0.0 27.279,0.0 M 47.474,54.563 L 44.239,54.563 L 44.239,43.998 L 47.474,43.998 L 47.474,54.563 M 3.444,13.073 C 3.444,9.056000000000001 12.513000000000002,3.444000000000001 27.278,3.444000000000001 C 42.04299999999999,3.444000000000001 51.113,9.056000000000001 51.113,13.073 L 3.444,13.073"/>
</svg>
