<?xml version="1.0" ?>
<svg xmlns="http://www.w3.org/2000/svg" xmlns:ev="http://www.w3.org/2001/xml-events" xmlns:xlink="http://www.w3.org/1999/xlink" baseProfile="full" enable-background="new 0 0 100 100" height="530px" version="1.1" viewBox="0 0 100 100" width="600px" x="0px" xml:space="preserve" y="0px">
	<defs/>
	<path d="M 100.006,76.419 L 99.879,76.419 L 99.879,93.83099999999999 L 0.074,93.83099999999999 L 0.074,76.419 L 0.006,76.419 C 3.448,76.419 5.724,74.476 7.521,70.11999999999999 C 7.55,69.993 7.5889999999999995,69.895 7.653,69.788 L 7.653,69.788 C 7.829,69.524 8.091999999999999,69.349 8.385,69.349 C 8.702,69.349 8.951,69.525 9.113,69.788 L 9.142,69.788 C 9.147,69.837 9.161999999999999,69.847 9.181,69.886 C 9.209999999999999,69.954 9.235,69.993 9.258999999999999,70.062 C 11.056,74.466 13.320999999999998,76.419 16.787999999999997,76.419 L 16.802999999999997,76.419 C 20.244999999999997,76.419 22.525999999999996,74.476 24.322999999999997,70.11999999999999 C 24.346999999999998,69.993 24.385999999999996,69.895 24.449999999999996,69.788 L 24.459999999999997,69.788 C 24.625999999999998,69.524 24.884999999999998,69.349 25.196999999999996,69.349 C 25.499999999999996,69.349 25.758999999999997,69.525 25.924999999999997,69.788 L 25.939999999999998,69.788 C 25.944999999999997,69.837 25.964,69.847 25.979,69.886 C 26.008,69.954 26.032999999999998,69.993 26.052,70.062 C 27.82,74.369 30.041,76.312 33.376,76.39 C 36.701,76.312 38.922999999999995,74.378 40.681,70.12 C 40.714999999999996,69.99300000000001 40.763999999999996,69.89500000000001 40.818,69.78800000000001 L 40.818,69.78800000000001 C 40.998999999999995,69.52400000000002 41.248,69.34900000000002 41.55,69.34900000000002 C 41.848,69.34900000000002 42.107,69.52500000000002 42.291999999999994,69.78800000000001 L 42.297,69.78800000000001 C 42.312,69.83700000000002 42.326,69.84700000000001 42.336,69.88600000000001 C 42.365,69.95400000000001 42.403999999999996,69.99300000000001 42.424,70.06200000000001 C 44.221,74.46600000000001 46.482,76.41900000000001 49.958,76.41900000000001 L 49.982,76.41900000000001 C 53.424,76.41900000000001 55.685,74.47600000000001 57.477,70.12 C 57.510999999999996,69.99300000000001 57.559999999999995,69.89500000000001 57.614,69.78800000000001 L 57.614,69.78800000000001 C 57.79,69.52400000000002 58.044,69.34900000000002 58.346,69.34900000000002 C 58.647999999999996,69.34900000000002 58.912,69.52500000000002 59.087999999999994,69.78800000000001 L 59.092999999999996,69.78800000000001 C 59.108,69.83700000000002 59.132,69.84700000000001 59.141999999999996,69.88600000000001 C 59.171,69.95400000000001 59.20099999999999,69.99300000000001 59.22,70.06200000000001 C 60.992,74.39800000000001 63.219,76.34100000000001 66.593,76.4 C 69.943,76.34100000000001 72.169,74.39800000000001 73.947,70.12100000000001 C 73.971,69.99400000000001 74.015,69.89600000000002 74.07900000000001,69.78900000000002 L 74.07900000000001,69.78900000000002 C 74.25500000000001,69.52500000000002 74.504,69.35000000000002 74.807,69.35000000000002 C 75.119,69.35000000000002 75.378,69.52600000000002 75.539,69.78900000000002 L 75.559,69.78900000000002 C 75.569,69.83800000000002 75.588,69.84800000000001 75.613,69.88700000000001 C 75.633,69.95500000000001 75.657,69.99400000000001 75.681,70.06300000000002 C 77.473,74.46700000000001 79.743,76.42000000000002 83.21,76.42000000000002 L 83.234,76.42000000000002 C 86.681,76.42000000000002 88.94699999999999,74.47700000000002 90.73899999999999,70.12100000000001 C 90.76799999999999,69.99400000000001 90.81199999999998,69.89600000000002 90.87599999999999,69.78900000000002 L 90.87599999999999,69.78900000000002 C 91.05199999999999,69.52500000000002 91.31099999999999,69.35000000000002 91.61299999999999,69.35000000000002 C 91.92499999999998,69.35000000000002 92.17899999999999,69.52600000000002 92.34499999999998,69.78900000000002 L 92.35499999999999,69.78900000000002 C 92.37499999999999,69.83800000000002 92.389,69.84800000000001 92.41399999999999,69.88700000000001 C 92.42899999999999,69.95500000000001 92.45799999999998,69.99400000000001 92.47299999999998,70.06300000000002 C 94.278,74.466 96.539,76.419 100.006,76.419"/>
	<path d="M 80.123,44.827 C 79.605,43.665 78.932,42.638999999999996 78.06200000000001,41.79 C 77.22200000000001,40.931 76.19700000000002,40.257 75.03500000000001,39.749 C 73.85300000000001,39.241 72.60300000000001,38.987 71.26500000000001,38.987 L 39.264,38.987 L 39.264,60.217 C 39.264,61.604 39.743,62.737 40.660000000000004,63.635 C 41.568000000000005,64.533 42.701,64.963 44.029,64.963 L 65.552,64.963 C 66.88000000000001,64.963 68.013,64.53299999999999 68.93100000000001,63.63499999999999 C 69.85900000000001,62.73699999999999 70.308,61.60399999999999 70.308,60.21699999999999 L 70.308,58.126999999999995 L 71.265,58.126999999999995 C 72.603,58.126999999999995 73.853,57.873 75.035,57.355999999999995 C 76.197,56.858 77.223,56.17399999999999 78.062,55.294999999999995 C 78.931,54.44499999999999 79.605,53.458999999999996 80.12299999999999,52.306999999999995 C 80.64099999999999,51.163999999999994 80.87499999999999,49.92399999999999 80.87499999999999,48.605999999999995 C 80.875,47.259 80.641,46.019 80.123,44.827 M 75.406,52.64 C 74.283,53.753 72.91600000000001,54.31 71.265,54.31 L 70.308,54.31 L 70.308,42.806 L 71.265,42.806 C 72.915,42.806 74.283,43.352999999999994 75.406,44.446999999999996 C 76.52900000000001,45.58 77.08600000000001,46.946999999999996 77.08600000000001,48.607 C 77.086,50.188 76.529,51.526 75.406,52.64"/>
	<path d="M 58.438,26.214 C 58.287,15.052 49.791,5.716 38.893,5.667 C 27.907,5.716 19.342000000000002,15.188 19.313000000000002,26.478 L 19.313000000000002,64.857 L 26.247000000000003,64.857 L 26.247000000000003,26.478 C 26.257000000000005,18.666 32.155,12.611 38.893,12.611 C 45.534,12.611 51.373000000000005,18.539 51.505,26.215 L 46.119,26.215 L 55.162,35.268 L 64.215,26.215 L 58.438,26.215 L 58.438,26.214"/>
</svg>
