<?xml version="1.0" ?>
<svg xmlns="http://www.w3.org/2000/svg" xmlns:ev="http://www.w3.org/2001/xml-events" xmlns:xlink="http://www.w3.org/1999/xlink" baseProfile="full" enable-background="new 0 0 99.766 100" height="600px" version="1.1" viewBox="0 0 99.766 100" width="599px" x="0px" xml:space="preserve" y="0px">
	<defs/>
	<path d="M 52.61,21.139 C 52.61,14.785 47.396,9.577 41.035,9.577 L 19.544,9.577 C 13.183,9.577 7.982000000000001,14.785 7.982000000000001,21.139 L 7.982000000000001,70.364 L 52.61,70.364 L 52.61,21.139"/>
	<path d="M 69.544,15.508 L 58.763,15.508 L 74.251,0.0 L 89.759,15.508 L 78.958,15.508 L 78.958,49.583 L 69.544,49.583 L 69.544,15.508" points="69.544,15.508 58.763,15.508 74.251,0 89.759,15.508 78.958,15.508 78.958,49.583 69.544,49.583 "/>
	<path d="M 84.46,76.055 L 84.46,56.12 L 62.52,56.12 L 62.52,76.055 L 0.0,76.055 L 0.0,100.0 L 99.766,100.0 L 99.766,76.055 L 84.46,76.055" points="84.46,76.055 84.46,56.12 62.52,56.12 62.52,76.055 0,76.055 0,100 99.766,100 99.766,76.055 "/>
</svg>
