<?xml version="1.0" ?>
<svg xmlns="http://www.w3.org/2000/svg" xmlns:ev="http://www.w3.org/2001/xml-events" xmlns:xlink="http://www.w3.org/1999/xlink" baseProfile="full" enable-background="new 0 0 94.596 100" height="600px" version="1.1" viewBox="0 0 94.596 100" width="568px" x="0px" xml:space="preserve" y="0px">
	<defs/>
	<path d="M 18.991,63.132 L 18.991,87.507 C 18.991,88.45700000000001 18.679,89.251 18.086,89.82400000000001 C 17.494,90.42900000000002 16.718999999999998,90.71600000000001 15.768999999999998,90.71600000000001 C 14.811999999999998,90.71600000000001 13.991999999999999,90.43 13.352999999999998,89.82400000000001 C 12.675999999999998,89.25100000000002 12.356999999999998,88.45700000000001 12.356999999999998,87.507 L 12.356999999999998,63.132 L 3.229,63.132 L 12.728000000000002,31.034999999999997 L 11.094000000000001,31.034999999999997 C 10.052000000000001,34.641999999999996 9.174000000000001,37.532999999999994 8.490000000000002,39.824 C 7.865000000000002,42.116 7.181000000000002,44.277 6.589000000000002,46.367 C 5.905000000000002,48.424 5.456000000000002,49.733 5.404000000000002,50.181999999999995 C 4.994,51.543 4.095,52.2 2.683,52.2 L 1.96,52.024 C 0.638,51.543 0.0,50.684 0.0,49.473 C 0.0,49.141 0.046,48.868 0.183,48.594 C 0.274,48.36 0.5469999999999999,47.552 0.867,46.185 C 1.2309999999999999,44.824000000000005 1.726,43.138000000000005 2.319,41.178000000000004 C 2.911,39.18600000000001 3.549,37.025000000000006 4.227,34.71300000000001 C 4.9110000000000005,32.38900000000001 5.542,30.15000000000001 6.317,27.988000000000007 C 6.773000000000001,26.334000000000007 7.769,24.830000000000005 9.318,23.529000000000007 C 10.860999999999999,22.175000000000008 12.456,21.563000000000006 14.129999999999999,21.563000000000006 L 25.308,21.563000000000006 C 27.033,21.563000000000006 28.713,22.175000000000004 30.217,23.529000000000007 C 31.674999999999997,24.831000000000007 32.724,26.335000000000008 33.31,27.988000000000007 C 33.935,30.150000000000006 34.580000000000005,32.38900000000001 35.211000000000006,34.71300000000001 C 35.85600000000001,37.025000000000006 36.53900000000001,39.18600000000001 37.086000000000006,41.17800000000001 C 37.666000000000004,43.13800000000001 38.17300000000001,44.82400000000001 38.531000000000006,46.18500000000001 C 38.889,47.55200000000001 39.123000000000005,48.35900000000001 39.254000000000005,48.59400000000001 L 39.43600000000001,49.31700000000001 C 39.43600000000001,50.78200000000001 38.75200000000001,51.641000000000005 37.437000000000005,52.025000000000006 L 36.751,52.2 C 35.306,52.2 34.388,51.543000000000006 34.03,50.182 C 33.932,49.733000000000004 33.529,48.424 32.988,46.367000000000004 C 32.35,44.277 31.706,42.11600000000001 30.983,39.824000000000005 C 30.26,37.532000000000004 29.401,34.642 28.359,31.035000000000004 L 26.718000000000004,31.035000000000004 L 36.20400000000001,63.132000000000005 L 27.22,63.132000000000005 L 27.22,87.507 C 27.22,88.45700000000001 26.947,89.251 26.218,89.82400000000001 C 25.58,90.42900000000002 24.805,90.71600000000001 23.855,90.71600000000001 C 22.852,90.71600000000001 22.123,90.43 21.492,89.82400000000001 C 20.899,89.25100000000002 20.633000000000003,88.45700000000001 20.633000000000003,87.507 L 20.633000000000003,63.132 L 18.991,63.132"/>
	<path d="M 19.896,19.551 C 21.810000000000002,19.551 23.451,18.926 24.72,17.610999999999997 C 26.035,16.269999999999996 26.718999999999998,14.602999999999998 26.718999999999998,12.590999999999998 C 26.718999999999998,10.676999999999998 26.034999999999997,9.035999999999998 24.72,7.681999999999998 C 23.45,6.288999999999998 21.81,5.591999999999998 19.896,5.591999999999998 C 17.858,5.591999999999998 16.172,6.288999999999998 14.766000000000002,7.681999999999998 C 13.399000000000001,9.035999999999998 12.728000000000002,10.676999999999998 12.728000000000002,12.590999999999998 C 12.728000000000002,14.602999999999998 13.398000000000001,16.269 14.766000000000002,17.610999999999997 C 16.172,18.926 17.858,19.551 19.896,19.551"/>
	<path d="M 70.065,21.354 C 67.611,21.354 65.521,22.259 63.744,24.009999999999998 C 61.973,25.833 61.061,27.961999999999996 61.061,30.325 L 61.061,52.2 C 61.061,53.02 61.341,53.769000000000005 61.973,54.362 C 62.559,54.954 63.287,55.221000000000004 64.115,55.221000000000004 C 65.065,55.221000000000004 65.795,54.953 66.381,54.362 C 66.889,53.769000000000005 67.155,53.02 67.155,52.2 L 67.155,32.643 L 68.744,32.643 L 68.744,86.804 C 68.744,87.845 69.2,88.802 70.065,89.551 C 70.87899999999999,90.371 71.83,90.71600000000001 72.917,90.71600000000001 C 74.10300000000001,90.71600000000001 75.06,90.37100000000001 75.827,89.551 C 76.64699999999999,88.802 77.018,87.845 77.018,86.804 L 77.018,55.404 L 78.783,55.404 L 78.783,86.804 C 78.783,87.845 79.193,88.802 79.962,89.551 C 80.736,90.371 81.739,90.71600000000001 82.97,90.71600000000001 C 84.011,90.71600000000001 84.916,90.37100000000001 85.743,89.551 C 86.505,88.802 86.862,87.845 86.862,86.804 L 86.862,32.643 L 88.509,32.643 L 88.509,52.2 C 88.509,53.02 88.776,53.769000000000005 89.322,54.362 C 89.967,54.954 90.72800000000001,55.221000000000004 91.549,55.221000000000004 C 92.506,55.221000000000004 93.236,54.953 93.78200000000001,54.362 C 94.27700000000002,53.769000000000005 94.59500000000001,53.02 94.59500000000001,52.2 L 94.59500000000001,30.326 C 94.59500000000001,27.963 93.73600000000002,25.834 91.95800000000001,24.011 C 90.22700000000002,22.259999999999998 88.144,21.355 85.60400000000001,21.355 L 70.065,21.355 L 70.065,21.354"/>
	<path d="M 77.877,19.551 C 79.785,19.551 81.46499999999999,18.926 82.82499999999999,17.610999999999997 C 84.17899999999999,16.269999999999996 84.86899999999999,14.602999999999998 84.86899999999999,12.590999999999998 C 84.86899999999999,10.676999999999998 84.17999999999999,9.035999999999998 82.82499999999999,7.681999999999998 C 81.46499999999999,6.288999999999998 79.78499999999998,5.591999999999998 77.87699999999998,5.591999999999998 C 75.87899999999998,5.591999999999998 74.19199999999998,6.288999999999998 72.91599999999998,7.681999999999998 C 71.56199999999998,9.035999999999998 70.92399999999998,10.676999999999998 70.92399999999998,12.590999999999998 C 70.92399999999998,14.602999999999998 71.56299999999997,16.269 72.91599999999998,17.610999999999997 C 74.193,18.926 75.879,19.551 77.877,19.551"/>
	<path d="M 46.751,0.0 L 53.652,0.0 L 53.652,100.0 L 46.751,100.0 L 46.751,0.0" height="100" width="6.901" x="46.751"/>
</svg>
