<?xml version="1.0" ?>
<svg xmlns="http://www.w3.org/2000/svg" xmlns:ev="http://www.w3.org/2001/xml-events" xmlns:xlink="http://www.w3.org/1999/xlink" baseProfile="full" enable-background="new 0 0 74.926 100.001" height="600px" version="1.1" viewBox="0 0 74.926 100.001" width="450px" x="0px" xml:space="preserve" y="0px">
	<defs/>
	<path d="M 17.321,0.0 C 12.620000000000001,0.0 8.818000000000001,3.802 8.818000000000001,8.502 C 8.818000000000001,13.190000000000001 12.620000000000001,16.992 17.321,16.992 C 22.009,16.992 25.810000000000002,13.190000000000001 25.810000000000002,8.502 C 25.811,3.802 22.009,0.0 17.321,0.0" fill="#000000"/>
	<path d="M 31.371,25.82 C 29.287999999999997,21.562 26.058999999999997,18.971 18.128999999999998,18.971 L 17.308999999999997,18.971 L 16.502,18.971 C 8.572,18.971 5.342999999999998,21.562 3.259999999999998,25.82 C 2.217999999999998,27.943 0.017999999999998018,54.583 0.017999999999998018,54.583 C -0.151000000000002,56.159 0.994999999999998,57.565 2.556999999999998,57.722 C 2.6609999999999983,57.735 2.7649999999999983,57.735 2.868999999999998,57.735 C 4.313999999999998,57.735 5.550999999999998,56.641 5.693999999999998,55.183 L 7.933999999999998,32.032 L 8.493,50.0 L 6.853,96.433 C 6.736,98.269 8.116,99.87100000000001 9.952,99.98800000000001 C 10.042,100.0 10.121,100.0 10.186,100.0 C 11.931000000000001,100.0 13.402000000000001,98.659 13.533,96.901 L 17.308999999999997,58.659 L 21.098,96.901 C 21.227999999999998,98.65899999999999 22.7,100.0 24.444,100.0 C 24.509,100.0 24.573999999999998,100.0 24.678,99.987 C 26.501,99.86999999999999 27.881,98.268 27.764,96.43199999999999 L 26.136,50.0 L 26.683,32.031 L 28.923000000000002,55.182 C 29.066000000000003,56.64 30.316000000000003,57.734 31.761000000000003,57.734 C 31.865000000000002,57.734 31.956000000000003,57.734 32.06,57.721000000000004 C 33.636,57.565000000000005 34.768,56.159000000000006 34.599000000000004,54.582 C 34.6,54.583 32.412,27.943 31.371,25.82" fill="#000000"/>
	<path d="M 70.095,0.039 L 50.798,0.0 C 48.129000000000005,-0.013 45.954,3.099 45.954,6.92 L 45.837,69.108 L 57.751000000000005,97.546 C 59.13100000000001,100.81400000000001 61.38400000000001,100.81400000000001 62.777,97.578 L 74.809,69.16 L 74.926,6.958999999999996 C 74.926,3.158 72.764,0.045 70.095,0.039 M 63.154,87.852 L 57.425000000000004,87.839 L 49.57300000000001,69.114 L 71.07000000000001,69.153 L 63.154,87.852" fill="#000000"/>
</svg>
