<?xml version="1.0" ?>
<svg xmlns="http://www.w3.org/2000/svg" xmlns:ev="http://www.w3.org/2001/xml-events" xmlns:xlink="http://www.w3.org/1999/xlink" baseProfile="full" enable-background="new 0 0 100 77.604" height="466px" version="1.1" viewBox="0 0 100 77.604" width="600px" x="0px" xml:space="preserve" y="0px">
	<defs/>
	<path d="M 86.719,56.549 L 64.583,56.614 C 55.82,48.403999999999996 51.888,38.782 51.888,38.782 L 51.732,38.782 C 51.732,38.782 47.683,48.775 38.672,56.614 L 13.451,56.614 L 49.414,5.554 L 46.719,2.0770000000000004 L 49.388,0.0 L 51.576,2.787 L 51.576,2.767 L 51.576,2.787 L 53.75,0.0 L 56.433,2.077 L 53.738,5.554 L 86.719,56.549"/>
	<path d="M 13.502,77.604 L 10.13,71.751 L 6.745,65.899 L 3.373,71.751 L 0.0,77.604 L 6.745,77.604 L 13.502,77.604" points="13.502,77.604 10.13,71.751 6.745,65.899 3.373,71.751 0,77.604 6.745,77.604 "/>
	<path d="M 35.13,77.604 L 31.745,71.751 L 28.373,65.899 L 25.0,71.751 L 21.615,77.604 L 28.373,77.604 L 35.13,77.604" points="35.13,77.604 31.745,71.751 28.373,65.899 25,71.751 21.615,77.604 28.373,77.604 "/>
	<path d="M 56.745,77.604 L 53.372,71.751 L 50.0,65.899 L 46.615,71.751 L 43.242,77.604 L 50.0,77.604 L 56.745,77.604" points="56.745,77.604 53.372,71.751 50,65.899 46.615,71.751 43.242,77.604 50,77.604 "/>
	<path d="M 78.372,77.604 L 75.0,71.751 L 71.614,65.899 L 68.242,71.751 L 64.87,77.604 L 71.614,77.604 L 78.372,77.604" points="78.372,77.604 75,71.751 71.614,65.899 68.242,71.751 64.87,77.604 71.614,77.604 "/>
	<path d="M 100.0,77.604 L 96.614,71.751 L 93.242,65.899 L 89.87,71.751 L 86.484,77.604 L 93.242,77.604 L 100.0,77.604" points="100,77.604 96.614,71.751 93.242,65.899 89.87,71.751 86.484,77.604 93.242,77.604 "/>
</svg>
