<?xml version="1.0" ?>
<svg xmlns="http://www.w3.org/2000/svg" xmlns:ev="http://www.w3.org/2001/xml-events" xmlns:xlink="http://www.w3.org/1999/xlink" baseProfile="full" enable-background="new 0 0 100 80.69" height="485px" version="1.1" viewBox="0 0 100 80.69" width="600px" x="0px" xml:space="preserve" y="0px">
	<defs/>
	<path d="M 53.997,5.515 L 56.68,2.0639999999999996 L 54.011,0.0 L 51.863,2.767 L 51.849,2.747 L 51.849,2.767 L 49.688,0.0 L 47.045,2.064 L 49.727000000000004,5.515000000000001 L 14.062,56.146 L 39.062,56.146 C 47.994,48.373000000000005 52.018,38.464 52.018,38.464 L 52.161,38.464 C 52.161,38.464 56.067,48.001999999999995 64.753,56.146 L 86.706,56.081 L 53.997,5.515"/>
	<path d="M 82.136,80.69 L 82.136,75.079 L 39.766,75.079 L 39.766,75.079 L 17.838,75.079 L 17.838,80.69 L 0.0,71.315 L 17.838,61.973 L 17.838,67.565 L 40.391,67.565 L 40.391,67.565 L 82.136,67.565 L 82.136,61.973 L 100.0,71.329 L 82.136,80.69" points="82.136,80.69 82.136,75.079 39.766,75.079 39.766,75.079 17.838,75.079 17.838,80.69 0,71.315 17.838,61.973   17.838,67.565 40.391,67.565 40.391,67.565 82.136,67.565 82.136,61.973 100,71.329 "/>
</svg>
