<?xml version="1.0" ?>
<svg xmlns="http://www.w3.org/2000/svg" xmlns:ev="http://www.w3.org/2001/xml-events" xmlns:xlink="http://www.w3.org/1999/xlink" baseProfile="full" enable-background="new 0 0 82.526 100" height="600px" version="1.1" viewBox="0 0 82.526 100" width="496px" x="0px" xml:space="preserve" y="0px">
	<defs/>
	<path d="M 78.659,92.239 L 67.213,92.239 C 66.84899999999999,89.687 66.36699999999999,86.48400000000001 65.716,82.35600000000001 C 64.271,73.17600000000002 62.148999999999994,59.93400000000001 59.321999999999996,42.604000000000006 L 59.321999999999996,19.193 L 63.501999999999995,19.193 L 40.69,0.0 L 19.05,19.193 L 23.347,19.193 L 23.347,43.047 L 23.490000000000002,43.047 C 19.141000000000002,67.487 16.394000000000002,83.86699999999999 15.261000000000003,92.239 L 3.867,92.239 C 1.719,92.239 0.0,93.972 0.0,96.133 C 0.0,98.269 1.719,100.0 3.867,100.0 L 78.659,100.0 C 80.795,100.0 82.52600000000001,98.269 82.52600000000001,96.133 C 82.526,93.972 80.794,92.239 78.659,92.239 M 59.518,83.75 L 45.482,67.864 L 54.831,57.265 L 59.518,83.75 M 41.563,64.427 L 28.919,50.338 L 29.87,43.945 L 52.552,43.893 L 53.646,50.612 L 41.563,64.427 M 28.529,19.245 L 54.01,19.245 L 54.01,27.292 L 28.529,27.292 L 28.529,19.245 M 27.409,56.028 L 38.32,68.177 L 21.797,86.575 L 27.409,56.028 M 22.943,92.239 L 41.485,72.018 L 59.753,92.239 L 22.943,92.239"/>
</svg>
