<?xml version="1.0" ?>
<svg xmlns="http://www.w3.org/2000/svg" xmlns:ev="http://www.w3.org/2001/xml-events" xmlns:xlink="http://www.w3.org/1999/xlink" baseProfile="full" enable-background="new 0 0 100 93.951" height="564px" version="1.1" viewBox="0 0 100 93.951" width="600px" x="0px" xml:space="preserve" y="0px">
	<defs/>
	<path d="M 51.613,9.274 L 49.376,11.511 C 45.98,4.731 39.031,0.0 30.973,0.0 L 20.64,0.0 C 9.293,0.0 0.0,9.293 0.0,20.64 L 0.0,30.973 C 0.0,39.031 4.731,45.98 11.511,49.376 L 3.225999999999999,57.661 L 15.322999999999999,57.661 L 15.322999999999999,93.951 L 45.565,93.951 L 45.565,69.758 L 57.662,69.758 L 57.662,93.951 L 87.904,93.951 L 87.904,57.660999999999994 L 100.0,57.660999999999994 L 51.613,9.274 M 49.03,30.973 C 49.03,40.928 40.927,49.03 30.973000000000003,49.03 L 20.64,49.03 C 10.685,49.03 2.583000000000002,40.928 2.583000000000002,30.973000000000003 L 2.583000000000002,20.64 C 2.583000000000002,10.685 10.686000000000002,2.583000000000002 20.64,2.583000000000002 L 30.973,2.583000000000002 C 40.928,2.583000000000002 49.03,10.685000000000002 49.03,20.64 L 49.03,30.973"/>
	<path d="M 43.574,18.296 L 39.012,13.735 L 21.717,31.036 L 12.601,21.925 L 8.039,26.487 L 21.717,40.159 L 43.574,18.296" points="43.574,18.296 39.012,13.735 21.717,31.036 12.601,21.925 8.039,26.487 21.717,40.159 "/>
</svg>
