<?xml version="1.0" ?>
<svg xmlns="http://www.w3.org/2000/svg" xmlns:ev="http://www.w3.org/2001/xml-events" xmlns:xlink="http://www.w3.org/1999/xlink" baseProfile="full" enable-background="new 0 0 100 100" height="600px" version="1.1" viewBox="0 0 100 100" width="600px" x="0px" xml:space="preserve" y="0px">
	<defs/>
	<path d="M 95.974,35.408 L 100.0,27.306 L 51.676,3.283 L 51.657000000000004,3.226 L 51.61300000000001,3.251 L 51.568000000000005,3.226 L 51.55,3.283 L 45.666,6.2059999999999995 C 41.917,2.388 36.712,0.0 30.973,0.0 L 20.64,0.0 C 9.293,0.0 0.0,9.293 0.0,20.64 L 0.0,30.973 C 0.0,38.288 3.894,44.708 9.677,48.375 C 9.677,49.282 9.677,50.284 9.677,51.43 L 9.677,98.268 L 44.21,98.268 C 45.388,99.276 48.205,100.0 51.499,100.0 C 54.808,100.0 57.617000000000004,99.275 58.808,98.268 L 93.549,98.268 L 93.549,51.43 C 93.549,47.272 93.549,44.557 93.549,44.399 C 71.69300000000001,34.772 54.23400000000001,44.96 52.028000000000006,46.995000000000005 C 51.260000000000005,46.264 49.508,45.048 46.95700000000001,43.845000000000006 C 49.824000000000005,40.29800000000001 51.61300000000001,35.85600000000001 51.61300000000001,30.973000000000006 L 51.61300000000001,20.64 C 51.61300000000001,18.29 51.13400000000001,16.066000000000003 50.397000000000006,13.962 L 51.61300000000001,13.357 L 95.974,35.408 M 54.567,55.683 C 54.567,48.703 63.848,44.948 75.28999999999999,44.948 C 80.79599999999999,44.948 85.78599999999999,46.246 89.484,48.382 L 89.484,94.047 C 70.77199999999999,82.27199999999999 54.56699999999999,93.065 54.56699999999999,94.91 L 54.56699999999999,55.683 L 54.567,55.683 M 48.929,55.683 L 48.929,94.91 C 48.929,93.064 32.724000000000004,82.271 14.0,94.047 L 14.0,50.41 C 16.098,51.13399999999999 18.31,51.614 20.641,51.614 L 30.973999999999997,51.614 C 35.422,51.614 39.529999999999994,50.151999999999994 42.913,47.726 C 46.629,49.54 48.929,52.211 48.929,55.683 M 49.03,30.973 C 49.03,40.928 40.927,49.03 30.973000000000003,49.03 L 20.64,49.03 C 10.685,49.03 2.583000000000002,40.927 2.583000000000002,30.973000000000003 L 2.583000000000002,20.64 C 2.583000000000002,10.685 10.686000000000002,2.583000000000002 20.64,2.583000000000002 L 30.973,2.583000000000002 C 40.928,2.583000000000002 49.03,10.686000000000002 49.03,20.64 L 49.03,30.973"/>
	<path d="M 39.012,13.735 L 43.574,18.296 L 21.717,40.159 L 8.039,26.487 L 12.601,21.925 L 21.717,31.036 L 39.012,13.735" points="39.012,13.735 43.574,18.296 21.717,40.159 8.039,26.487 12.601,21.925 21.717,31.036 "/>
</svg>
