<?xml version="1.0" ?>
<svg xmlns="http://www.w3.org/2000/svg" xmlns:ev="http://www.w3.org/2001/xml-events" xmlns:xlink="http://www.w3.org/1999/xlink" baseProfile="full" enable-background="new 0 0 200 200" height="306px" version="1.1" viewBox="0 0 200 200" width="600px" x="0px" xml:space="preserve" y="0px">
	<defs/>
	<path d="M 170.686,96.519 C 170.34,96.16900000000001 162.06300000000002,87.85900000000001 149.32600000000002,79.474 C 131.978,68.056 115.381,62.267 100.0,62.267 C 84.619,62.267 68.024,68.056 50.676,79.474 C 37.938,87.85900000000001 29.660000000000004,96.16900000000001 29.314000000000004,96.519 L 25.868,100.0 L 29.314,103.481 C 29.661,103.83099999999999 37.938,112.14099999999999 50.676,120.526 C 68.025,131.944 84.62,137.733 100.0,137.733 C 115.38,137.733 131.978,131.94400000000002 149.325,120.52600000000001 C 162.06199999999998,112.141 170.33999999999997,103.83100000000002 170.685,103.48100000000001 L 174.131,100.00000000000001 L 170.686,96.519 M 100.0,86.553 C 104.543,86.553 108.225,90.235 108.225,94.77799999999999 C 108.225,99.32 104.54299999999999,103.002 100.0,103.002 C 95.459,103.002 91.777,99.32 91.777,94.77799999999999 C 91.778,90.234 95.459,86.553 100.0,86.553 M 108.221,86.441 C 107.467,85.278 106.292,84.414 104.91,84.06700000000001 L 106.5,77.745 C 109.504,78.49900000000001 112.057,80.37700000000001 113.695,82.90400000000001 L 108.221,86.441 M 100.0,127.837 C 74.348,127.837 49.363,108.156 40.108,99.99600000000001 C 47.702,93.29 65.89,78.82600000000001 86.39599999999999,73.87400000000001 C 79.57099999999998,78.325 75.05599999999998,86.02100000000002 75.05599999999998,94.77700000000002 C 75.05599999999998,108.55300000000001 86.22399999999999,119.72100000000002 99.99899999999998,119.72100000000002 C 113.77599999999998,119.72100000000002 124.94399999999999,108.55300000000003 124.94399999999999,94.77700000000002 C 124.94399999999999,86.02800000000002 120.43599999999999,78.33600000000001 113.61999999999999,73.88300000000001 C 134.08499999999998,78.846 152.285,93.298 159.887,99.99900000000001 C 150.625,108.165 125.647,127.837 100.0,127.837" fill="#000000"/>
</svg>
