<?xml version="1.0" ?>
<svg xmlns="http://www.w3.org/2000/svg" xmlns:ev="http://www.w3.org/2001/xml-events" xmlns:xlink="http://www.w3.org/1999/xlink" baseProfile="full" enable-background="new 0 0 69.831 100" height="600px" version="1.1" viewBox="0 0 69.831 100" width="420px" x="0px" xml:space="preserve" y="0px">
	<defs/>
	<path d="M 66.348,31.439 C 64.994,31.439 63.907,32.162 63.092,33.574 C 62.774,26.81 60.324999999999996,20.930999999999997 55.754999999999995,15.936999999999998 C 56.419,16.092999999999996 56.919999999999995,16.171 57.25899999999999,16.171 C 59.517999999999994,16.171 60.63799999999999,15.011999999999999 60.63799999999999,12.674999999999999 C 60.63799999999999,10.338 59.47299999999999,9.197999999999999 57.13499999999999,9.197999999999999 C 54.79099999999999,9.197999999999999 53.61399999999999,10.323999999999998 53.61399999999999,12.582999999999998 C 53.61399999999999,12.927999999999999 53.69799999999999,13.422999999999998 53.84799999999999,14.040999999999999 C 48.86099999999999,9.444999999999999 42.99399999999999,6.996999999999999 36.24999999999999,6.690999999999999 C 37.70099999999999,5.850999999999999 38.42399999999999,4.769999999999999 38.42399999999999,3.4549999999999987 C 38.424,1.146 37.252,0.0 34.916,0.0 C 32.571999999999996,0.0 31.406999999999996,1.146 31.406999999999996,3.457 C 31.406999999999996,4.805 32.117,5.885 33.535999999999994,6.693 C 27.175999999999995,6.693 21.322999999999993,9.147 15.976999999999993,14.043 C 16.139999999999993,13.398 16.230999999999995,12.891 16.230999999999995,12.539 C 16.230999999999995,10.306 15.058999999999994,9.199 12.708999999999994,9.199 C 10.364999999999995,9.199 9.206999999999994,10.338 9.206999999999994,12.676 C 9.206999999999994,15.014000000000001 10.319999999999993,16.172 12.565999999999994,16.172 C 12.910999999999994,16.172 13.405999999999993,16.094 14.043999999999993,15.938 C 9.492999999999993,21.029 7.058999999999993,26.908 6.745999999999993,33.575 C 5.964999999999994,32.162000000000006 4.883999999999993,31.440000000000005 3.4909999999999934,31.440000000000005 C 1.1669999999999936,31.440000000000005 0.0009999999999932285,32.586000000000006 0.0009999999999932285,34.89000000000001 C 0.0009999999999932285,37.214000000000006 1.1669999999999932,38.373000000000005 3.4909999999999934,38.373000000000005 C 4.883999999999993,38.373000000000005 5.964999999999994,37.663000000000004 6.745999999999993,36.218 C 7.057999999999994,42.878 9.492999999999993,48.744 14.043999999999993,53.848 C 13.405999999999993,53.692 12.910999999999994,53.607 12.565999999999994,53.607 C 10.319999999999993,53.607 9.206999999999994,54.772999999999996 9.206999999999994,57.089999999999996 C 9.206999999999994,59.427 10.365999999999994,60.57299999999999 12.708999999999993,60.57299999999999 C 15.058999999999992,60.57299999999999 16.23099999999999,59.49199999999999 16.23099999999999,57.285 C 16.23099999999999,56.900999999999996 16.13999999999999,56.392999999999994 15.976999999999991,55.723 C 21.321999999999992,60.592999999999996 27.17499999999999,63.04 33.535999999999994,63.04 C 32.117,63.86 31.406999999999993,64.935 31.406999999999993,66.30199999999999 C 31.406999999999993,68.61999999999999 32.57299999999999,69.785 34.91599999999999,69.785 C 37.25299999999999,69.785 38.42499999999999,68.61999999999999 38.42499999999999,66.30199999999999 C 38.42499999999999,64.981 37.70199999999999,63.879999999999995 36.25099999999999,63.03999999999999 C 42.99499999999999,62.721999999999994 48.86099999999999,60.30599999999999 53.84899999999999,55.773999999999994 C 53.69899999999999,56.40599999999999 53.61499999999999,56.900999999999996 53.61499999999999,57.233 C 53.61499999999999,59.464999999999996 54.792999999999985,60.57299999999999 57.13599999999999,60.57299999999999 C 59.47399999999999,60.57299999999999 60.63899999999999,59.42699999999999 60.63899999999999,57.089999999999996 C 60.63899999999999,54.772999999999996 59.51899999999999,53.607 57.25999999999999,53.607 C 56.92099999999999,53.607 56.41999999999999,53.692 55.75599999999999,53.848 C 60.32599999999999,48.854 62.77499999999999,42.975 63.09299999999999,36.218 C 63.90699999999999,37.663000000000004 64.99399999999999,38.373000000000005 66.34899999999999,38.373000000000005 C 68.67899999999999,38.373000000000005 69.83099999999999,37.214000000000006 69.83099999999999,34.89000000000001 C 69.831,32.584 68.678,31.439 66.348,31.439 M 37.389,17.767 C 38.079,16.887999999999998 38.424,16.159 38.424,15.559999999999999 C 38.424,15.142999999999999 38.339999999999996,14.628999999999998 38.144999999999996,13.998 C 41.498,14.668 44.589999999999996,15.937999999999999 47.416,17.813 C 46.159,18.529 45.437,19.61 45.241,21.009999999999998 C 43.184,21.264 42.025,22.409 41.771,24.493 C 40.333,24.682 39.258,25.384999999999998 38.575,26.654999999999998 L 38.145,26.511 C 38.34,25.866 38.42400000000001,25.339 38.42400000000001,24.968 C 38.42400000000001,24.337 38.07900000000001,23.588 37.38900000000001,22.696 C 38.07900000000001,21.856 38.42400000000001,21.01 38.42400000000001,20.163 C 38.424,19.434 38.08,18.639 37.389,17.767 M 31.641,13.998 C 31.477999999999998,14.629 31.406999999999996,15.143999999999998 31.406999999999996,15.559999999999999 C 31.406999999999996,16.171999999999997 31.738999999999997,16.927 32.403,17.767 C 31.738999999999997,18.639 31.407,19.486 31.407,20.267 C 31.407,21.048 31.739,21.855 32.403,22.695 C 31.738999999999997,23.587 31.407,24.336 31.407,24.967 C 31.407,25.337999999999997 31.479,25.865 31.641000000000002,26.509999999999998 L 31.264000000000003,26.705 C 30.574,25.415999999999997 29.493000000000002,24.680999999999997 28.067000000000004,24.537 C 27.787000000000003,22.454 26.615000000000002,21.308 24.584000000000003,21.054 C 24.369000000000003,19.575999999999997 23.653000000000002,18.528 22.429000000000002,17.863999999999997 C 25.248,15.938 28.32,14.668 31.641,13.998 M 17.865,22.363 C 18.555,23.633 19.642,24.349 21.119999999999997,24.537 C 21.322,26.64 22.479999999999997,27.791999999999998 24.583,28.006999999999998 C 24.746,29.464999999999996 25.448999999999998,30.566 26.712,31.294999999999998 L 26.562,31.679 C 25.898,31.509999999999998 25.384,31.398999999999997 25.013,31.398999999999997 C 24.343,31.398999999999997 23.6,31.743999999999996 22.754,32.440999999999995 C 21.914,31.743999999999996 21.081000000000003,31.398999999999994 20.306,31.398999999999994 C 19.525000000000002,31.398999999999994 18.698,31.743999999999993 17.806,32.440999999999995 C 16.966,31.743999999999996 16.237000000000002,31.398999999999994 15.599,31.398999999999994 C 15.182,31.398999999999994 14.642,31.508999999999993 13.991,31.678999999999995 C 14.688,28.307 15.964,25.208 17.865,22.363 M 21.12,45.215 C 19.642,45.384 18.555,46.120000000000005 17.865000000000002,47.377 C 15.964000000000002,44.565000000000005 14.688000000000002,41.479 13.991000000000001,38.151 C 14.642000000000001,38.314 15.182000000000002,38.373000000000005 15.547,38.373000000000005 C 16.211000000000002,38.373000000000005 16.966,38.028000000000006 17.806,37.34400000000001 C 18.698,38.028000000000006 19.525000000000002,38.373000000000005 20.306,38.373000000000005 C 21.081,38.373000000000005 21.914,38.028000000000006 22.754,37.34400000000001 C 23.633000000000003,38.028000000000006 24.388,38.373000000000005 25.013,38.373000000000005 C 25.384,38.373000000000005 25.898000000000003,38.275000000000006 26.562,38.086000000000006 L 26.712,38.522000000000006 C 25.448999999999998,39.199000000000005 24.746,40.28000000000001 24.583,41.732000000000006 C 22.48,41.953 21.322,43.112 21.12,45.215 M 32.402,52.005 C 31.738,52.845000000000006 31.406000000000002,53.607 31.406000000000002,54.258 C 31.406000000000002,54.649 31.478,55.144000000000005 31.640000000000004,55.775000000000006 C 28.320000000000004,55.12500000000001 25.247000000000003,53.848000000000006 22.428000000000004,51.95400000000001 C 23.652000000000005,51.251000000000005 24.368000000000006,50.190000000000005 24.583000000000006,48.71200000000001 C 26.614000000000004,48.46400000000001 27.786000000000005,47.299000000000014 28.066000000000006,45.21600000000001 C 29.492000000000004,45.05300000000001 30.573000000000008,44.357000000000006 31.263000000000005,43.09300000000001 L 31.640000000000004,43.23000000000001 C 31.477000000000004,43.89400000000001 31.406000000000002,44.421000000000014 31.406000000000002,44.78600000000001 C 31.406000000000002,45.42400000000001 31.738000000000003,46.16600000000001 32.402,47.05800000000001 C 31.738,47.90500000000001 31.406000000000002,48.712 31.406000000000002,49.50600000000001 C 31.406,50.28 31.738,51.133 32.402,52.005 M 34.916,39.551 C 33.614,39.551 32.519999999999996,39.108000000000004 31.601999999999997,38.190000000000005 C 30.690999999999995,37.279 30.227999999999998,36.166000000000004 30.227999999999998,34.86300000000001 C 30.227999999999998,33.574000000000005 30.689999999999998,32.467000000000006 31.601999999999997,31.569000000000006 C 32.519999999999996,30.684000000000005 33.614,30.215000000000007 34.916,30.215000000000007 C 36.217999999999996,30.215000000000007 37.318,30.684000000000008 38.229,31.569000000000006 C 39.153999999999996,32.467000000000006 39.61,33.574000000000005 39.61,34.86300000000001 C 39.61,36.165000000000006 39.153999999999996,37.279 38.229,38.190000000000005 C 37.318,39.108 36.217,39.551 34.916,39.551 M 38.145,55.774 C 38.34,55.143 38.42400000000001,54.648 38.42400000000001,54.257 C 38.42400000000001,53.625 38.07900000000001,52.876999999999995 37.38900000000001,52.004 C 38.07900000000001,51.163999999999994 38.42400000000001,50.324999999999996 38.42400000000001,49.504 C 38.42400000000001,48.71 38.07900000000001,47.902 37.38900000000001,47.056 C 38.07900000000001,46.163999999999994 38.42400000000001,45.428999999999995 38.42400000000001,44.829 C 38.42400000000001,44.432 38.34,43.905 38.145,43.267 L 38.575,43.091 C 39.259,44.354 40.333000000000006,45.07 41.771,45.259 C 42.025,47.342 43.184,48.501 45.241,48.742 C 45.436,50.174 46.159,51.221999999999994 47.416,51.951 C 44.59,53.848 41.498,55.124 38.145,55.774 M 51.959,47.376 C 51.275000000000006,46.119 50.195,45.422999999999995 48.724000000000004,45.26 C 48.509,43.164 47.364000000000004,42.004999999999995 45.293000000000006,41.757999999999996 C 45.11000000000001,40.331999999999994 44.395,39.251999999999995 43.138000000000005,38.522 L 43.26200000000001,38.150999999999996 C 43.93200000000001,38.31399999999999 44.44700000000001,38.373 44.824000000000005,38.373 C 45.455000000000005,38.373 46.191,38.041 47.031000000000006,37.39 C 47.949000000000005,38.041000000000004 48.79500000000001,38.373 49.57000000000001,38.373 C 50.32500000000001,38.373 51.132000000000005,38.041 52.01700000000001,37.39 C 52.89600000000001,38.074 53.65200000000001,38.419 54.28300000000001,38.419 C 54.65400000000001,38.419 55.162000000000006,38.334999999999994 55.80100000000001,38.151999999999994 C 55.13,41.478 53.868,44.564 51.959,47.376 M 54.284,31.4 C 53.653,31.4 52.897,31.744999999999997 52.018,32.442 C 51.133,31.745 50.313,31.4 49.532000000000004,31.4 C 48.77,31.4 47.95,31.744999999999997 47.032000000000004,32.442 C 46.192,31.745 45.456,31.4 44.825,31.4 C 44.447,31.4 43.932,31.509999999999998 43.263000000000005,31.68 L 43.139,31.262999999999998 C 44.396,30.546999999999997 45.112,29.465999999999998 45.294000000000004,28.008 C 47.364000000000004,27.753999999999998 48.510000000000005,26.576 48.725,24.491999999999997 C 50.197,24.336 51.277,23.632999999999996 51.96,22.362999999999996 C 53.868,25.207999999999995 55.131,28.306999999999995 55.802,31.678999999999995 C 55.163,31.51 54.655,31.4 54.284,31.4"/>
	<path d="M 10.312,75.892 L 59.518,75.892 L 59.518,100.0 L 10.312,100.0 L 10.312,75.892" height="24.108" width="49.206" x="10.312" y="75.892"/>
</svg>
