<?xml version="1.0" ?>
<svg xmlns="http://www.w3.org/2000/svg" xmlns:ev="http://www.w3.org/2001/xml-events" xmlns:xlink="http://www.w3.org/1999/xlink" baseProfile="full" enable-background="new 0 0 100 99.922" height="600px" version="1.1" viewBox="0 0 100 99.922" width="600px" x="0px" xml:space="preserve" y="0px">
	<defs/>
	<path d="M 89.98,47.962 L 87.102,46.406000000000006 L 63.294,33.431 L 50.169,40.586 L 36.69199999999999,33.254999999999995 L 10.02,47.76 L 12.858,49.361999999999995 L 23.262,55.14399999999999 L 23.132,55.20299999999999 L 23.126,55.20299999999999 L 23.126,55.21599999999999 L 10.249,62.22799999999999 L 23.126,69.14899999999999 L 23.126,86.54499999999999 L 49.995000000000005,99.92399999999999 L 76.87,86.54499999999999 L 76.87,69.199 L 89.852,62.226 L 76.935,55.207 L 89.98,47.962 M 17.474,47.806 L 36.693,37.336999999999996 L 46.217,42.532 L 26.771,52.976 L 17.474,47.806 M 37.233,72.644 L 17.799,62.207 L 27.317999999999998,57.012 L 46.732,67.513 L 37.233,72.644 M 63.294,37.526 L 82.513,47.988 L 73.21000000000001,53.164 L 53.77,42.728 L 63.294,37.526 M 82.278,62.2 L 62.839,72.644 L 53.503,67.513 L 72.747,57.01200000000001 L 82.278,62.2"/>
	<path d="M 95.84,33.255 L 50.0,10.469 L 4.16,33.255 L 0.0,24.883 L 49.935,0.059 L 49.955,0.0 L 50.0,0.026 L 50.045,0.0 L 50.065,0.059 L 100.0,24.883 L 95.84,33.255" points="95.84,33.255 50,10.469 4.16,33.255 0,24.883 49.935,0.059 49.955,0 50,0.026 50.045,0 50.065,0.059 100,24.883 "/>
	<path d="M 26.725,84.304 L 26.725,71.087 L 37.272,76.751 L 48.203,70.677 L 48.203,95.0 L 26.725,84.304" points="26.725,84.304 26.725,71.087 37.272,76.751 48.203,70.677 48.203,95 "/>
	<path d="M 73.281,84.304 L 51.804,94.993 L 51.804,70.638 L 62.8,76.751 L 73.281,71.126 L 73.281,84.304" points="73.281,84.304 51.804,94.993 51.804,70.638 62.8,76.751 73.281,71.126 "/>
</svg>
