<?xml version="1.0" ?>
<svg xmlns="http://www.w3.org/2000/svg" xmlns:ev="http://www.w3.org/2001/xml-events" xmlns:xlink="http://www.w3.org/1999/xlink" baseProfile="full" enable-background="new 0 0 100 55.443" height="333px" version="1.1" viewBox="0 0 100 55.443" width="600px" x="0px" xml:space="preserve" y="0px">
	<defs/>
	<path d="M 0.0,0.0 L 0.0,39.167 L 63.724,39.167 L 63.724,0.0 L 0.0,0.0 M 41.068,33.691 C 38.827999999999996,35.397000000000006 35.964,36.25 32.513,36.25 C 28.229,36.25 24.712999999999997,34.785 21.952999999999996,31.862000000000002 C 19.204999999999995,28.939 17.825999999999997,24.942 17.825999999999997,19.87 C 17.825999999999997,14.505 19.205999999999996,10.339 21.978999999999996,7.370000000000001 C 24.751999999999995,4.401000000000002 28.384999999999994,2.9170000000000007 32.903999999999996,2.9170000000000007 C 36.849,2.9170000000000007 40.05199999999999,4.083 42.513,6.413 C 43.983999999999995,7.793 45.077999999999996,9.772 45.806999999999995,12.350999999999999 L 39.37499999999999,13.887999999999998 C 38.983999999999995,12.220999999999998 38.18999999999999,10.899999999999999 36.97899999999999,9.929999999999998 C 35.78099999999999,8.966999999999999 34.309999999999995,8.477999999999998 32.57799999999999,8.477999999999998 C 30.181999999999988,8.477999999999998 28.24199999999999,9.336999999999998 26.75799999999999,11.055999999999997 C 25.273999999999987,12.767999999999997 24.530999999999988,15.547999999999998 24.530999999999988,19.388999999999996 C 24.530999999999988,23.464999999999996 25.259999999999987,26.361999999999995 26.73199999999999,28.093999999999994 C 28.189999999999987,29.824999999999996 30.10399999999999,30.691999999999993 32.447999999999986,30.691999999999993 C 34.179999999999986,30.691999999999993 35.66399999999999,30.137999999999995 36.90099999999999,29.038999999999994 C 38.15099999999999,27.937999999999995 39.04899999999999,26.212999999999994 39.59599999999999,23.849999999999994 L 45.89799999999999,25.854999999999993 C 44.935,29.369 43.32,31.979 41.068,33.691"/>
	<path d="M 0.0,41.562 L 19.635,41.562 C 18.326,43.306999999999995 17.539,45.443 17.539,47.799 L 7.865,47.799 L 0.0,45.807 L 0.0,41.562"/>
	<path d="M 90.267,26.276 L 84.714,9.609 L 84.714,5.442 L 67.305,5.442 L 67.305,41.562 L 36.263,41.562 C 37.577999999999996,43.306999999999995 38.366,45.443 38.366,47.799 L 70.827,47.799 C 70.827,42.057 75.495,37.396 81.25,37.396 C 85.293,37.396 88.789,39.701 90.515,43.073 C 91.133,44.284 91.524,45.638 91.615,47.057 C 91.63499999999999,47.304 91.66799999999999,47.552 91.66799999999999,47.799 L 100.0,47.799 L 100.0,30.443 L 90.267,26.276 M 72.22,26.276 L 72.22,13.776 L 81.947,13.776 L 86.101,26.276 L 72.22,26.276"/>
	<path d="M 27.962,40.169 C 23.736,40.169 20.317999999999998,43.592999999999996 20.317999999999998,47.799 C 20.317999999999998,52.018 23.735999999999997,55.443 27.961999999999996,55.443 C 32.168,55.443 35.586,52.018 35.586,47.799 C 35.586,43.593 32.168,40.169 27.962,40.169 M 27.962,51.966 C 25.65,51.966 23.775,50.104 23.775,47.799 C 23.775,45.507 25.65,43.632 27.962,43.632 C 30.247,43.632 32.122,45.507 32.122,47.799 C 32.123,50.104 30.248,51.966 27.962,51.966"/>
	<path d="M 81.25,40.169 C 77.024,40.169 73.606,43.592999999999996 73.606,47.799 C 73.606,52.018 77.024,55.443 81.25,55.443 C 85.456,55.443 88.887,52.018 88.887,47.799 C 88.887,43.593 85.456,40.169 81.25,40.169 M 81.25,51.966 C 78.945,51.966 77.083,50.104 77.083,47.799 C 77.083,45.507 78.945,43.632 81.25,43.632 C 83.548,43.632 85.417,45.507 85.417,47.799 C 85.417,50.104 83.548,51.966 81.25,51.966"/>
</svg>
