<?xml version="1.0" ?>
<svg xmlns="http://www.w3.org/2000/svg" xmlns:ev="http://www.w3.org/2001/xml-events" xmlns:xlink="http://www.w3.org/1999/xlink" baseProfile="full" enable-background="new 0 0 100 100" height="600px" version="1.1" viewBox="0 0 100 100" width="600px" x="0px" xml:space="preserve" y="0px">
	<defs/>
	<path d="M 50.43,45.228 C 47.429,42.363 30.215,32.402 6.667000000000002,42.545 C 6.667000000000002,42.708 6.667000000000002,45.514 6.667000000000002,49.811 L 6.667000000000002,98.21 L 42.35,98.21 C 43.568,99.25099999999999 46.478,100.0 49.883,100.0 C 53.301,100.0 56.204,99.251 57.435,98.21 L 93.333,98.21 L 93.333,49.811 C 93.333,45.514 93.333,42.708 93.333,42.545 C 70.749,32.598 52.708,43.125 50.43,45.228 M 47.227,94.739 C 47.227,92.83200000000001 30.481999999999996,81.679 11.132999999999996,93.84700000000001 L 11.132999999999996,46.66 C 14.960999999999995,44.452999999999996 20.116999999999997,43.111999999999995 25.806999999999995,43.111999999999995 C 37.642999999999994,43.111999999999995 47.226,46.992 47.226,54.205999999999996 L 47.226,94.739 L 47.227,94.739 M 89.134,93.848 C 69.798,81.68 53.054,92.832 53.054,94.74 L 53.054,54.206 C 53.054,46.992000000000004 62.644000000000005,43.112 74.46600000000001,43.112 C 80.156,43.112 85.313,44.453 89.13400000000001,46.660000000000004 L 89.13400000000001,93.848 L 89.134,93.848"/>
	<path d="M 95.84,33.255 L 50.0,10.469 L 4.16,33.255 L 0.0,24.883 L 49.935,0.059 L 49.955,0.0 L 50.0,0.026 L 50.045,0.0 L 50.065,0.059 L 100.0,24.883 L 95.84,33.255" points="95.84,33.255 50,10.469 4.16,33.255 0,24.883 49.935,0.059 49.955,0 50,0.026 50.045,0 50.065,0.059 100,24.883 "/>
</svg>
