<?xml version="1.0" ?>
<svg xmlns="http://www.w3.org/2000/svg" xmlns:ev="http://www.w3.org/2001/xml-events" xmlns:xlink="http://www.w3.org/1999/xlink" baseProfile="full" enable-background="new 0 0 84.557 100" height="600px" version="1.1" viewBox="0 0 84.557 100" width="508px" x="0px" xml:space="preserve" y="0px">
	<defs/>
	<path d="M 43.919,33.359 L 40.345,33.359 L 40.345,0.0 L 43.919,0.0 L 43.919,2.754 C 46.836,1.595 49.57599999999999,0.97 52.141999999999996,0.97 C 52.910999999999994,0.97 53.815,1.1 54.909,1.367 C 55.99,1.615 57.169,1.908 58.405,2.298 C 59.694,2.682 60.853,3.027 61.967,3.248 C 63.034,3.5280000000000005 63.966,3.6450000000000005 64.708,3.6450000000000005 C 66.127,3.6450000000000005 67.384,3.3720000000000003 68.542,2.8760000000000003 L 68.542,17.961000000000002 C 67.143,18.332 65.886,18.501 64.708,18.501 C 63.966,18.501 63.034,18.397000000000002 61.967,18.143 C 60.854,17.883 59.695,17.577 58.405,17.173000000000002 C 57.169000000000004,16.821 55.944,16.509 54.799,16.223000000000003 C 53.673,15.969000000000003 52.702,15.845000000000002 51.947,15.845000000000002 C 51.556000000000004,15.845000000000002 50.964000000000006,15.930000000000003 50.143,16.132 C 49.303,16.314 48.451,16.575000000000003 47.565,16.887 C 46.660999999999994,17.212 45.885,17.512 45.163,17.772000000000002 C 44.648999999999994,17.961000000000002 44.25899999999999,18.006000000000004 43.919999999999995,18.065 L 43.919999999999995,33.359 L 43.919,33.359"/>
	<path d="M 68.314,44.746 L 68.314,36.061 L 16.243999999999993,36.061 L 16.243999999999993,44.746 L 0.0,44.746 L 0.0,100.0 L 28.841,100.0 L 28.841,92.487 L 55.352000000000004,92.487 L 55.352000000000004,100.0 L 84.557,100.0 L 84.557,44.746 L 68.314,44.746 M 38.972,69.974 C 38.972,73.73100000000001 38.803000000000004,76.387 38.464,77.937 C 38.125,79.493 37.5,80.80799999999999 36.576,81.869 C 35.652,82.95 34.428,83.797 32.878,84.428 C 31.355,85.067 29.336,85.38499999999999 26.862000000000002,85.38499999999999 C 23.854000000000003,85.38499999999999 21.589000000000002,85.03299999999999 20.052000000000003,84.35699999999999 C 18.503000000000004,83.64699999999999 17.279000000000003,82.76199999999999 16.380000000000003,81.65499999999999 C 15.482000000000003,80.54899999999999 14.896000000000003,79.38399999999999 14.609000000000002,78.17299999999999 C 14.192000000000002,76.38199999999999 13.984000000000002,73.73299999999999 13.984000000000002,70.22399999999999 L 13.984000000000002,53.509 L 20.312,53.509 L 20.312,70.476 C 20.312,73.17699999999999 20.39,74.922 20.546000000000003,75.716 C 20.819000000000003,76.999 21.458000000000002,78.03399999999999 22.486000000000004,78.809 C 23.502000000000002,79.59 24.895000000000003,79.974 26.653000000000006,79.974 C 28.463000000000005,79.974 29.817000000000007,79.60300000000001 30.729000000000006,78.87400000000001 C 31.640000000000008,78.14500000000001 32.187000000000005,77.233 32.370000000000005,76.165 C 32.565000000000005,75.10400000000001 32.656000000000006,73.33300000000001 32.656000000000006,70.84 L 32.656000000000006,53.509 L 38.971000000000004,53.509 L 38.971000000000004,69.974 L 38.972,69.974 M 70.573,84.851 L 64.219,84.851 L 51.588,64.407 L 51.588,84.85 L 45.716,84.85 L 45.716,53.509 L 51.875,53.509 L 64.687,74.434 L 64.687,53.509 L 70.572,53.509 L 70.572,84.851 L 70.573,84.851"/>
</svg>
