<?xml version="1.0" ?>
<svg xmlns="http://www.w3.org/2000/svg" xmlns:ev="http://www.w3.org/2001/xml-events" xmlns:xlink="http://www.w3.org/1999/xlink" baseProfile="full" enable-background="new 0 0 100 70.912" height="426px" version="1.1" viewBox="0 0 100 70.912" width="600px" x="0px" xml:space="preserve" y="0px">
	<defs/>
	<path d="M 100.0,28.398 L 100.0,70.911 L 79.642,70.911 C 79.707,70.09100000000001 79.76599999999999,69.257 79.76599999999999,68.411 C 79.76599999999999,51.79600000000001 66.30199999999999,38.333 49.69399999999999,38.333 C 33.085999999999984,38.333 19.623,51.796 19.623,68.412 C 19.623,69.25800000000001 19.682000000000002,70.09200000000001 19.747,70.912 L 0.0,70.912 L 0.0,28.398 L 100.0,28.398"/>
	<path d="M 29.694,16.302 C 26.340999999999998,16.302 23.639,19.009999999999998 23.639,22.357 C 23.639,25.677 26.341,28.399 29.694,28.399 C 33.027,28.399 35.742,25.677 35.742,22.357 C 35.742,19.01 33.027,16.302 29.694,16.302 M 29.694,25.612 C 27.897,25.612 26.432,24.141 26.432,22.357 C 26.432,20.534 27.897,19.102 29.694,19.102 C 31.477999999999998,19.102 32.949,20.534 32.949,22.357 C 32.949,24.141 31.478,25.612 29.694,25.612"/>
	<path d="M 70.41,16.302 C 67.09,16.302 64.362,19.009999999999998 64.362,22.357 C 64.362,25.677 67.08999999999999,28.399 70.41,28.399 C 73.75699999999999,28.399 76.465,25.677 76.465,22.357 C 76.465,19.01 73.757,16.302 70.41,16.302 M 70.41,25.612 C 68.62599999999999,25.612 67.155,24.141 67.155,22.357 C 67.155,20.534 68.626,19.102 70.41,19.102 C 72.22,19.102 73.672,20.534 73.672,22.357 C 73.672,24.141 72.22,25.612 70.41,25.612"/>
	<path d="M 82.168,17.825 C 82.168,11.94 78.489,11.222999999999999 78.489,11.222999999999999 C 73.11200000000001,10.480999999999998 63.83500000000001,10.102999999999998 63.83500000000001,10.102999999999998 C 62.988,8.62 59.056,0.0 56.771,0.0 C 56.003,0.0 39.577,0.0 36.68,0.0 C 33.757,0.0 29.003999999999998,8.398 27.95,10.312 C 27.95,10.312 24.284,10.924 22.558999999999997,11.328 C 21.615,11.549 18.964999999999996,11.600999999999999 18.964999999999996,18.997 L 16.666999999999994,18.997 L 16.666999999999994,22.356 L 22.232999999999993,22.356 C 22.232999999999993,18.242 25.579999999999995,14.895000000000001 29.693999999999996,14.895000000000001 C 33.809,14.895000000000001 37.141999999999996,18.242 37.141999999999996,22.356 L 62.980999999999995,22.356 C 62.980999999999995,18.242 66.30799999999999,14.895000000000001 70.41,14.895000000000001 C 74.53099999999999,14.895000000000001 77.871,18.242 77.871,22.356 L 83.333,22.356 L 83.333,17.825000000000003 L 82.168,17.825000000000003 L 82.168,17.825 M 46.504,9.531 L 34.896,9.531 C 36.471000000000004,4.635000000000001 39.369,1.133000000000001 40.592,1.133000000000001 C 42.147999999999996,1.133000000000001 46.504,1.133000000000001 46.504,1.133000000000001 L 46.504,9.531 M 48.666,9.531 L 48.666,1.133 C 48.666,1.133 54.656,1.133 56.184999999999995,1.133 C 57.721999999999994,1.133 61.132999999999996,8.229 62.083,10.052 L 48.666,9.531"/>
</svg>
