<?xml version="1.0" ?>
<svg xmlns="http://www.w3.org/2000/svg" xmlns:ev="http://www.w3.org/2001/xml-events" xmlns:xlink="http://www.w3.org/1999/xlink" baseProfile="full" enable-background="new 0 0 100 42.591" height="256px" version="1.1" viewBox="0 0 100 42.591" width="600px" x="0px" xml:space="preserve" y="0px">
	<defs/>
	<path d="M 19.525,24.44 C 14.524999999999999,24.44 10.455999999999998,28.515 10.455999999999998,33.529 C 10.455999999999998,38.515 14.524999999999999,42.591 19.525,42.591 C 24.537999999999997,42.591 28.613,38.515 28.613,33.529 C 28.613,28.515 24.538,24.44 19.525,24.44 M 19.525,38.412 C 16.848999999999997,38.412 14.648999999999997,36.211 14.648999999999997,33.528999999999996 C 14.648999999999997,30.833999999999996 16.849999999999998,28.632999999999996 19.525,28.632999999999996 C 22.22,28.632999999999996 24.413999999999998,30.833999999999996 24.413999999999998,33.528999999999996 C 24.414,36.21 22.22,38.412 19.525,38.412"/>
	<path d="M 80.632,24.44 C 75.625,24.44 71.55600000000001,28.515 71.55600000000001,33.529 C 71.55600000000001,38.515 75.62500000000001,42.591 80.632,42.591 C 85.638,42.591 89.7,38.515 89.7,33.529 C 89.7,28.515 85.638,24.44 80.632,24.44 M 80.632,38.412 C 77.93700000000001,38.412 75.742,36.211 75.742,33.528999999999996 C 75.742,30.833999999999996 77.936,28.632999999999996 80.632,28.632999999999996 C 83.328,28.632999999999996 85.521,30.833999999999996 85.521,33.528999999999996 C 85.521,36.21 83.327,38.412 80.632,38.412"/>
	<path d="M 98.249,26.732 C 98.249,17.917 92.75399999999999,16.862000000000002 92.75399999999999,16.862000000000002 C 84.67499999999998,15.729000000000003 70.755,15.143000000000002 70.755,15.143000000000002 C 69.479,12.93 63.581,0.0 60.149,0.0 C 58.991,0.0 34.368,0.0 30.006,0.0 C 25.637999999999998,0.0 18.483,12.604 16.914,15.456 C 16.914,15.456 11.432000000000002,16.394 8.848,16.993 C 7.416,17.317999999999998 3.4380000000000006,17.395999999999997 3.4380000000000006,28.503 L 0.0,28.503 L 0.0,33.528999999999996 L 8.366,33.528999999999996 C 8.366,27.356999999999996 13.373,22.356999999999996 19.525,22.356999999999996 C 25.703,22.356999999999996 30.697,27.356999999999996 30.697,33.528999999999996 L 69.46,33.528999999999996 C 69.46,27.356999999999996 74.446,22.356999999999996 80.63199999999999,22.356999999999996 C 86.797,22.356999999999996 91.797,27.356999999999996 91.797,33.528999999999996 L 100.0,33.528999999999996 L 100.0,26.731999999999996 L 98.249,26.731999999999996 L 98.249,26.732 M 44.746,14.284 L 27.344,14.284 C 29.694000000000003,6.953 34.056,1.7190000000000012 35.899,1.7190000000000012 C 38.21,1.7190000000000012 44.747,1.7190000000000012 44.747,1.7190000000000012 L 44.747,14.284 L 44.746,14.284 M 47.988,14.284 L 47.988,1.719 C 47.988,1.719 56.966,1.719 59.277,1.719 C 61.601,1.719 66.699,12.357 68.131,15.078 L 47.988,14.284"/>
</svg>
