<?xml version="1.0" ?>
<svg xmlns="http://www.w3.org/2000/svg" xmlns:ev="http://www.w3.org/2001/xml-events" xmlns:xlink="http://www.w3.org/1999/xlink" baseProfile="full" enable-background="new 0 0 90 90" height="346px" version="1.1" viewBox="0 0 90 90" width="600px" x="0px" xml:space="preserve" y="0px">
	<defs/>
	<path d="M 29.968,39.441 L 30.698,39.075 L 30.976,39.232 C 30.976,39.232 31.412,39.315 31.462999999999997,39.266999999999996 C 31.514999999999997,39.217999999999996 31.340999999999998,38.81399999999999 31.340999999999998,38.81399999999999 L 31.653999999999996,38.62299999999999 L 32.089,38.70899999999999 L 32.576,38.447999999999986 L 32.836,38.100999999999985 L 33.411,38.11799999999999 L 33.550000000000004,38.36199999999999 L 33.88,38.46599999999999 L 33.984,38.62299999999998 L 34.367000000000004,38.536999999999985 L 34.263000000000005,38.91999999999999 L 34.766000000000005,39.04099999999999 L 34.993,39.40599999999999 L 35.324000000000005,39.40599999999999 L 35.63700000000001,39.80599999999999 L 35.58500000000001,40.11899999999999 L 35.08100000000001,40.17199999999999 L 34.73300000000001,40.41699999999999 L 34.97700000000001,40.624999999999986 L 35.02900000000001,41.16399999999999 L 34.66400000000001,41.49499999999999 L 34.24600000000001,41.21699999999999 L 33.70700000000001,41.14799999999999 L 33.44500000000001,41.40799999999999 L 32.958000000000006,41.52999999999999 L 32.68000000000001,41.929999999999986 L 32.297000000000004,41.947999999999986 L 31.932000000000006,42.121999999999986 L 31.828000000000007,42.40099999999999 L 31.358000000000008,42.50499999999999 L 31.01000000000001,42.121999999999986 L 31.184000000000008,41.56499999999998 L 30.69700000000001,41.32199999999998 L 30.83600000000001,41.00899999999998 L 30.43500000000001,40.74899999999998 L 30.12200000000001,40.29599999999998 L 30.36600000000001,39.930999999999976 L 29.968,39.441" fill="#000000" stroke="#FFFFFF" stroke-width="0.5"/>
	<path d="M 10.481,42.852 L 9.739,42.821999999999996 L 9.739,42.282 L 9.2,42.027 L 9.229,41.403 L 7.64,40.326 L 6.648,39.816 L 6.223,39.05 L 5.798,38.568 L 5.997,37.689 L 5.345,36.696 L 4.877,36.227999999999994 L 5.202999999999999,35.589999999999996 L 4.919999999999999,34.882 L 5.827999999999999,34.882 L 6.055,35.108999999999995 L 6.055,35.733 L 6.537,35.733 L 6.807,36.001999999999995 L 6.649,36.44 L 6.932,36.724 L 6.932,37.433 L 7.3580000000000005,37.859 L 7.556000000000001,36.838 C 7.556000000000001,36.838 7.414000000000001,36.498 7.556000000000001,36.356 C 7.698000000000001,36.214000000000006 8.123000000000001,35.789 8.123000000000001,35.789 L 8.378000000000002,34.938 L 9.484000000000002,34.342000000000006 L 9.484000000000002,33.94500000000001 L 9.838000000000001,33.59100000000001 L 10.646,33.464000000000006 L 11.667000000000002,33.294000000000004 L 12.007000000000001,33.63400000000001 L 12.574000000000002,32.925000000000004 L 13.624000000000002,32.641000000000005 L 14.729000000000003,33.46300000000001 L 15.234000000000004,33.96800000000001 L 16.280000000000005,33.96800000000001 L 16.791000000000004,34.16100000000001 C 16.791000000000004,34.16100000000001 16.764000000000003,34.601000000000006 16.791000000000004,34.65200000000001 C 16.818000000000005,34.70400000000001 17.912000000000003,34.534000000000006 17.912000000000003,34.534000000000006 L 18.404000000000003,35.026 L 17.922000000000004,35.507000000000005 L 18.187000000000005,36.008 L 18.010000000000005,36.657000000000004 L 18.443000000000005,37.09 L 18.266000000000005,37.464000000000006 L 18.757000000000005,38.132000000000005 L 18.266000000000005,38.623000000000005 L 18.993000000000006,39.351000000000006 L 18.639000000000006,40.217000000000006 L 18.049000000000007,40.374 L 18.049000000000007,41.259 L 17.263000000000005,40.669 L 16.438000000000006,40.571 L 14.865000000000006,41.594 L 14.865000000000006,42.183 L 14.462000000000005,42.586 L 13.803000000000004,42.260999999999996 L 13.470000000000004,42.419 L 12.821000000000005,42.026999999999994 L 12.035000000000005,42.35999999999999 L 11.475000000000005,42.92099999999999 L 10.954000000000004,42.45899999999999 L 10.481,42.852" fill="#000000" stroke="#FFFFFF" stroke-width="0.5"/>
	<path d="M 18.994,39.352 L 18.64,40.217999999999996 L 18.05,40.37499999999999 L 18.05,41.25999999999999 L 17.264,40.66999999999999 L 16.439,40.57199999999999 L 14.866,41.59499999999999 L 14.866,42.18399999999999 L 14.463,42.58699999999999 L 13.803999999999998,42.261999999999986 L 13.470999999999998,42.41999999999999 L 12.822,42.027999999999984 L 12.036,42.36099999999998 L 11.475999999999999,42.92199999999998 L 10.954999999999998,42.45999999999998 L 10.482999999999999,42.85299999999998 L 9.741,42.82299999999998 L 8.919,44.07 L 8.868,44.815 L 8.011000000000001,45.601 L 8.663,46.338 L 9.457,46.877 L 9.4,47.7 L 9.940000000000001,48.324000000000005 L 9.911000000000001,49.09 L 10.762,49.686 L 10.677,50.622 L 10.818999999999999,51.273 L 11.5,51.642 L 12.096,52.266000000000005 L 12.55,53.032000000000004 L 13.372,53.259 L 13.656,53.062 L 14.393,53.204 L 15.329,53.884 L 15.443000000000001,54.65 L 16.265,55.472 L 16.265,55.868 L 17.031,56.464 L 17.173,57.059999999999995 L 17.683999999999997,57.428999999999995 L 18.392999999999997,57.428999999999995 L 19.073999999999998,58.108999999999995 L 19.697,59.016999999999996 L 19.782,60.00899999999999 L 20.944,60.77499999999999 L 21.343,60.10999999999999 L 21.351,59.71499999999999 L 21.526,59.09099999999999 L 22.073999999999998,58.85799999999999 L 22.203999999999997,58.49199999999999 L 21.942999999999998,58.07499999999999 L 22.072999999999997,57.05699999999999 L 22.542999999999996,57.21199999999999 L 22.699999999999996,56.92699999999999 L 23.325999999999997,56.69199999999999 L 23.586999999999996,56.065999999999995 L 23.273999999999997,55.437999999999995 L 23.769999999999996,55.17699999999999 L 23.377999999999997,54.733999999999995 L 23.690999999999995,54.449 L 23.690999999999995,54.055 L 24.056999999999995,53.768 L 24.525999999999996,53.039 L 24.160999999999998,52.438 L 24.24,51.628 L 24.24,51.159 L 24.084,50.583999999999996 L 24.371,50.166999999999994 L 24.032,49.593999999999994 L 24.058,48.96699999999999 L 24.188,48.495999999999995 L 23.849,48.236 L 23.484,47.765 L 23.667,47.244 L 23.249000000000002,46.801 L 23.798000000000002,46.408 L 24.371000000000002,46.408 L 24.867,45.809000000000005 L 24.632,45.34 L 24.893,44.897000000000006 L 24.658,44.27 L 25.155,43.774 L 25.02,43.38 L 25.072,42.701 L 24.628999999999998,42.414 L 24.107999999999997,42.31 L 24.080999999999996,41.893 L 23.558999999999997,41.997 C 23.558999999999997,41.997 23.031,41.297 23.010999999999996,41.292 C 22.989999999999995,41.288000000000004 22.540999999999997,41.476 22.540999999999997,41.476 L 22.070999999999998,41.241 L 21.653,41.006 L 21.575,40.563 L 20.87,40.511 L 20.453,40.771 L 20.088,40.432 L 20.375,40.067 L 20.135,39.766 L 19.427000000000003,39.353 L 18.994,39.353 L 18.994,39.352" fill="#000000" stroke="#FFFFFF" stroke-width="0.5"/>
	<path d="M 45.101,26.942 L 45.732,27.654 L 45.535,28.48 L 45.87,29.286 L 45.713,29.719 L 46.106,30.112000000000002 L 45.792,30.741000000000003 L 46.381,31.331000000000003 L 46.381,31.705000000000002 L 45.379,31.921000000000003 L 44.907,31.450000000000003 L 44.297,31.843000000000004 L 44.297,32.374 L 43.785999999999994,32.669000000000004 L 43.45199999999999,32.158 L 42.31199999999999,31.765 L 41.56399999999999,32.256 L 40.73899999999999,31.725 L 40.20799999999999,31.489 L 40.20799999999999,31.096 L 39.465999999999994,30.718 L 39.126999999999995,30.379 L 38.547999999999995,30.379 L 38.105999999999995,29.937 L 37.672999999999995,30.684 L 36.98499999999999,31.451 L 36.748999999999995,31.215 L 36.15899999999999,31.313 L 36.15899999999999,31.805 L 35.33299999999999,32.473 L 34.349999999999994,32.708999999999996 L 34.114,32.001 L 32.973,32.059 L 32.443,31.410999999999998 L 31.694999999999997,30.173 L 31.694999999999997,29.64 L 31.341999999999995,29.07 L 31.758999999999997,28.368000000000002 L 32.196999999999996,27.930000000000003 L 32.196999999999996,27.527000000000005 L 32.69799999999999,27.025000000000006 L 32.541,26.396000000000004 L 33.288,26.494000000000003 L 33.955999999999996,26.750000000000004 L 34.05499999999999,25.983000000000004 L 34.72299999999999,25.749000000000002 L 36.480999999999995,26.288000000000004 L 37.04899999999999,25.466000000000005 L 38.09799999999999,25.410000000000004 C 38.09799999999999,25.410000000000004 38.78799999999999,25.538000000000004 38.834999999999994,25.495000000000005 C 38.88199999999999,25.452000000000005 39.004999999999995,24.502000000000006 39.004999999999995,24.502000000000006 L 39.23199999999999,23.594000000000005 L 38.74999999999999,23.112000000000005 L 39.20399999999999,22.658000000000005 L 39.968999999999994,22.658000000000005 L 40.36599999999999,23.027000000000005 L 40.989999999999995,22.687000000000005 L 41.33,23.282000000000004 L 41.841,23.055000000000003 L 42.408,23.735000000000003 L 42.152,24.302000000000003 L 42.436,25.181000000000004 L 42.932,25.677000000000003 L 43.400000000000006,26.145000000000003 L 43.456,26.967000000000002 L 43.641000000000005,27.152 L 44.279,26.57 L 45.101,26.942" fill="#000000" stroke="#FFFFFF" stroke-width="0.5"/>
	<path d="M 61.236,37.263 L 61.053,38.117 L 60.567,39.056 L 60.410000000000004,39.96 L 60.673,40.396 L 59.629000000000005,41.249 L 59.629000000000005,41.84 L 59.889,42.45 L 59.994,43.215 L 60.244,43.467000000000006 L 59.661,43.85900000000001 L 60.097,44.711000000000006 L 60.568,45.633 L 60.568,46.102000000000004 L 61.16,46.36300000000001 L 61.16,47.14600000000001 L 60.62,47.68500000000001 L 60.62,48.27600000000001 L 60.29,48.74600000000001 L 59.646,48.10200000000001 L 57.714,48.10200000000001 L 57.333,48.72800000000001 L 56.043,48.72800000000001 L 55.705999999999996,49.06900000000001 L 54.94799999999999,48.31000000000001 L 54.339999999999996,48.293000000000006 L 53.590999999999994,47.406000000000006 L 52.129999999999995,47.075 L 51.87,46.467000000000006 L 51.172999999999995,46.48500000000001 L 51.172999999999995,46.101000000000006 L 50.458999999999996,46.55500000000001 L 50.458999999999996,47.14600000000001 L 49.66,46.86800000000001 L 49.26,46.65800000000001 L 49.26,46.13700000000001 L 48.72,45.85900000000001 L 48.304,45.77100000000001 L 47.868,45.31900000000001 L 47.138000000000005,44.85000000000001 L 46.129000000000005,44.86800000000001 L 45.190000000000005,44.13700000000001 L 44.981,43.284000000000006 L 45.364000000000004,42.903000000000006 L 45.417,42.10300000000001 L 44.704,41.75400000000001 L 44.686,41.26700000000001 L 44.112,41.07500000000001 L 43.521,40.72800000000001 L 43.608000000000004,40.24000000000001 L 43.964000000000006,39.726000000000006 L 44.873000000000005,39.522000000000006 L 45.910000000000004,38.624 L 46.461000000000006,38.939 C 46.461000000000006,38.939 47.41400000000001,38.973 47.46300000000001,38.939 C 47.513000000000005,38.904 47.99400000000001,38.211 47.99400000000001,38.211 L 48.507000000000005,38.211 L 48.507000000000005,38.801 L 48.86900000000001,38.93 L 49.214000000000006,38.585 L 49.883,38.251 L 50.688,38.269999999999996 L 51.042,38.623999999999995 L 51.042,39.312999999999995 L 51.515,39.312999999999995 L 51.946,39.745 L 52.705,40.187 L 53.147,40.629 L 53.835,40.433 L 54.818,40.433 L 54.994,39.685 L 55.546,39.135000000000005 L 56.588,38.84 L 56.588,38.27 L 57.0,38.27 L 57.875,38.663000000000004 L 59.169,39.39 L 59.906,38.652 L 60.288,38.269 L 60.273999999999994,37.603 L 61.236,37.263" fill="#000000" stroke="#FFFFFF" stroke-width="0.5"/>
	<path d="M 55.704,49.07 L 54.948,48.311 L 54.34,48.294 L 53.591,47.407 L 52.13,47.07599999999999 L 51.868,46.467999999999996 L 51.173,46.486 L 51.173,46.102 L 50.459,46.556 C 50.459,46.556 50.484,47.126 50.459,47.147 C 50.436,47.167 49.658,46.869 49.658,46.869 L 49.26,46.659 L 49.26,46.138 L 48.72,45.86 L 48.304,45.772 L 47.868,45.32 L 47.138000000000005,44.851 L 46.129000000000005,44.869 L 45.190000000000005,44.138 L 44.56400000000001,44.190999999999995 L 44.14600000000001,44.529999999999994 L 44.19800000000001,45.154999999999994 L 43.598000000000006,45.12899999999999 L 43.389,45.57399999999999 L 42.788000000000004,45.57399999999999 L 42.449000000000005,45.88699999999999 L 42.032000000000004,45.782999999999994 L 41.719,45.964999999999996 L 41.641,46.382999999999996 L 41.25,46.748 L 41.224,47.349 L 42.032999999999994,47.739999999999995 C 42.032999999999994,47.739999999999995 42.062,48.221999999999994 42.059,48.288999999999994 C 42.056,48.35399999999999 41.562999999999995,48.62799999999999 41.562999999999995,48.62799999999999 L 41.17099999999999,48.443999999999996 L 40.93599999999999,48.861999999999995 L 40.46699999999999,48.78399999999999 L 39.788999999999994,48.80899999999999 L 38.92699999999999,48.67799999999999 L 38.352999999999994,49.25299999999999 L 38.32699999999999,49.800999999999995 L 38.03999999999999,50.087999999999994 L 38.22299999999999,50.766999999999996 L 38.19699999999999,51.49699999999999 L 37.883999999999986,51.888999999999996 L 37.883999999999986,52.69799999999999 L 38.170999999999985,53.29899999999999 L 38.04099999999998,53.767999999999994 L 38.32799999999998,54.28999999999999 L 38.902999999999984,54.75899999999999 L 39.39899999999999,54.47299999999999 L 40.05099999999999,54.837999999999994 L 40.33799999999999,55.358999999999995 L 40.911999999999985,55.879999999999995 L 41.432999999999986,55.595 L 42.26699999999999,55.907 L 43.02399999999999,55.778 L 43.362999999999985,56.246 L 43.25799999999999,56.822 L 43.93699999999999,57.501000000000005 L 44.82399999999999,57.526 L 45.55399999999999,57.36900000000001 L 46.310999999999986,57.971000000000004 L 46.23299999999998,58.440000000000005 L 45.68499999999998,58.544000000000004 L 45.58099999999998,59.197 L 45.006999999999984,59.798 L 45.475999999999985,60.214 L 45.89299999999999,60.867 L 46.362999999999985,60.632 L 46.83199999999999,60.972 L 47.40699999999999,60.371 L 48.00699999999999,60.814 L 48.31999999999999,60.213 L 48.684999999999995,60.109 L 49.023999999999994,59.639 L 49.64999999999999,59.639 L 49.88599999999999,59.091 L 50.615999999999985,58.778 L 51.265999999999984,59.221 L 51.70999999999999,58.959999999999994 L 52.30999999999999,59.142999999999994 L 52.88499999999999,58.85699999999999 L 53.19799999999999,58.35999999999999 L 53.69499999999999,58.489999999999995 L 53.925999999999995,57.916999999999994 L 54.318999999999996,57.812999999999995 L 54.501999999999995,57.474 L 54.03399999999999,57.13399999999999 L 53.876999999999995,56.61299999999999 L 54.477,56.24699999999999 L 53.928999999999995,55.69899999999999 L 54.059999999999995,55.22999999999999 L 54.477,54.889999999999986 L 54.086,54.39599999999999 L 54.554,54.082999999999984 L 54.737,53.66399999999999 L 55.755,53.19399999999999 L 55.704,52.25499999999999 L 55.495,51.73299999999999 L 55.732,51.23699999999999 L 55.444,50.557999999999986 L 55.965,50.24499999999998 L 56.122,49.93199999999998 L 55.572,49.56699999999998 L 55.704,49.07" fill="#000000" stroke="#FFFFFF" stroke-width="0.5"/>
	<path d="M 80.206,51.698 L 79.60600000000001,51.417 L 79.47500000000001,50.817 L 78.745,50.347 L 78.694,49.876000000000005 L 78.11800000000001,50.112 L 77.57,50.112 L 76.945,49.668 L 76.11,49.485 L 75.274,49.825 L 74.753,49.381 L 74.153,49.381 L 73.72200000000001,49.812 L 73.29100000000001,49.668 L 72.58700000000002,50.136 L 72.58700000000002,50.869 C 72.58700000000002,50.869 72.13500000000002,51.35 72.02500000000002,51.43 C 71.91700000000002,51.508 71.41400000000002,50.738 71.41400000000002,50.738 L 70.60400000000001,51.025 L 70.83800000000001,51.729 L 70.13300000000001,51.939 L 69.61200000000001,51.782000000000004 L 69.183,52.213 L 68.881,52.748 L 68.479,52.342999999999996 L 67.786,52.382 L 67.578,51.888 L 67.159,52.251999999999995 L 67.39500000000001,53.06099999999999 L 67.00200000000001,53.452999999999996 L 66.76800000000001,53.818 L 65.77600000000001,53.974999999999994 L 65.16300000000001,54.58599999999999 L 64.78600000000002,55.09599999999999 L 65.09900000000002,55.64499999999999 L 64.94300000000001,56.191999999999986 L 65.647,56.27099999999999 L 65.56700000000001,56.79199999999999 L 65.099,57.10499999999999 L 64.578,57.65299999999999 L 64.96900000000001,58.148999999999994 L 65.83000000000001,57.81099999999999 L 66.14300000000001,58.148999999999994 L 66.06400000000002,58.75099999999999 L 66.71600000000002,59.11599999999999 L 67.57700000000003,59.21999999999999 L 67.55200000000002,59.82099999999999 L 68.10000000000002,59.79299999999999 L 68.67300000000002,60.31499999999999 L 69.35200000000002,60.05399999999999 L 69.95100000000002,60.41999999999999 L 69.97900000000003,60.83699999999999 L 70.62900000000003,60.99299999999999 L 71.02300000000004,61.566999999999986 L 71.24600000000004,61.84899999999998 L 71.75800000000004,61.84899999999998 L 72.49500000000003,61.39499999999998 L 73.00600000000003,60.51499999999998 L 74.05500000000004,60.45799999999998 L 74.24000000000004,59.055999999999976 L 74.65200000000004,58.64399999999998 L 76.01100000000004,58.53099999999998 L 76.72000000000004,57.50999999999998 L 76.72000000000004,56.28999999999998 L 77.09000000000005,55.24099999999998 L 77.09000000000005,54.50299999999998 L 77.65600000000005,53.62399999999998 L 78.42200000000005,53.42599999999998 L 79.13100000000006,53.05699999999998 L 79.75600000000006,52.83099999999998 L 80.206,51.698" fill="#000000" stroke="#FFFFFF" stroke-width="0.5"/>
	<path d="M 67.701,35.959 L 67.701,37.039 L 67.18599999999999,37.039 L 66.71499999999999,37.509 L 65.67099999999999,38.187 L 65.67099999999999,38.918 L 65.306,39.283 L 65.594,39.805 L 64.967,40.692 L 64.78399999999999,41.501 L 65.21499999999999,41.931999999999995 L 64.80999999999999,42.596999999999994 L 64.68099999999998,43.379999999999995 L 65.05799999999998,43.75899999999999 L 65.53999999999998,43.75899999999999 L 65.53999999999998,44.31999999999999 L 66.19199999999998,44.31999999999999 L 66.60899999999998,44.73799999999999 L 67.36699999999998,44.52899999999999 L 67.99199999999998,45.441999999999986 L 68.51399999999998,45.441999999999986 L 68.95799999999998,45.676999999999985 L 69.47999999999999,45.31199999999998 L 69.92199999999998,45.755999999999986 L 70.5,45.44 L 71.282,45.858 L 71.1,46.746 L 71.91,46.746 L 72.195,47.528000000000006 L 72.82199999999999,47.73800000000001 L 73.356,48.272000000000006 L 73.29299999999999,48.807 L 73.86599999999999,48.807 L 74.15399999999998,49.381 L 74.75399999999998,49.381 L 75.27499999999998,49.825 L 76.11099999999998,49.485 L 76.94399999999997,49.668 L 77.57099999999997,50.112 L 78.11899999999997,50.112 L 78.69499999999996,49.876000000000005 L 78.74599999999997,50.347 L 79.47599999999997,50.817 L 79.60699999999997,51.417 L 80.20699999999997,51.698 L 80.68799999999996,51.527 L 81.59599999999996,50.336 L 81.53999999999996,49.656 L 82.16199999999996,49.373 L 82.67299999999996,49.626999999999995 L 83.52499999999996,49.456999999999994 L 84.23399999999997,49.684999999999995 L 85.13999999999997,49.26 L 85.28299999999997,48.577999999999996 L 84.77299999999997,47.187999999999995 L 84.46099999999997,46.22299999999999 L 83.72099999999998,46.22299999999999 L 83.40999999999997,45.855999999999995 L 82.47299999999997,45.57299999999999 L 82.33199999999997,44.891999999999996 L 81.70699999999997,43.529999999999994 L 82.04699999999997,42.79299999999999 L 81.76399999999997,42.68099999999999 L 81.48099999999997,41.88599999999999 L 80.91499999999996,42.310999999999986 L 79.80799999999996,41.68799999999999 L 78.84399999999997,41.54499999999999 L 78.50399999999996,42.140999999999984 L 77.99399999999996,41.289999999999985 L 77.34099999999995,40.978999999999985 L 77.02999999999994,40.58099999999998 L 76.46399999999994,40.95099999999998 L 75.89799999999994,40.69599999999998 L 75.939,40.0 L 75.47,39.532 L 74.789,39.644999999999996 L 74.45,40.523999999999994 C 74.45,40.523999999999994 73.872,41.14399999999999 73.797,41.17699999999999 C 73.722,41.209999999999994 73.189,41.16299999999999 73.189,41.16299999999999 L 72.606,40.57999999999999 L 72.011,40.38199999999999 L 71.69999999999999,39.44699999999999 L 71.15899999999999,38.679999999999986 L 70.55099999999999,38.75199999999999 L 69.96999999999998,38.16999999999999 L 69.96999999999998,37.68799999999999 L 70.99099999999999,37.374999999999986 L 71.79899999999999,36.978999999999985 L 71.79899999999999,36.51099999999998 L 71.27499999999999,35.98699999999998 L 71.38699999999999,35.41899999999998 L 70.82099999999998,34.85199999999998 L 70.53799999999998,35.41899999999998 L 70.11199999999998,35.84399999999998 L 68.69599999999998,35.73099999999998 L 67.701,35.959" fill="#000000" stroke="#FFFFFF" stroke-width="0.5"/>
	<path d="M 21.34,60.106 L 21.965,60.29 L 22.604,60.846 L 22.5,61.168 L 22.953,61.848 L 23.747,61.991 L 23.975,62.7 L 24.514000000000003,63.408 L 24.741000000000003,64.06 L 25.336000000000002,64.089 L 26.357000000000003,65.05199999999999 L 26.896000000000004,65.25099999999999 L 27.491000000000003,65.96 L 27.066000000000003,66.41399999999999 L 28.002000000000002,67.34899999999999 L 29.080000000000002,67.34899999999999 L 30.158,67.54699999999998 L 31.036,68.05799999999998 L 32.285000000000004,67.00799999999998 L 32.540000000000006,66.35699999999999 L 33.19200000000001,66.92299999999999 L 33.90100000000001,67.06499999999998 L 34.46800000000001,66.92299999999999 L 35.40400000000001,67.54699999999998 L 35.77300000000001,66.95199999999998 L 35.66000000000001,66.38599999999998 L 35.77300000000001,65.42199999999998 L 36.56700000000001,64.76899999999998 L 36.851000000000006,63.94799999999998 L 37.58800000000001,63.97499999999998 L 38.60900000000001,64.28699999999998 L 38.77900000000001,63.97499999999998 L 38.52400000000001,63.52199999999998 L 38.66600000000001,62.897999999999975 L 38.92200000000001,62.13099999999997 L 38.83700000000001,61.138999999999974 L 38.78000000000001,60.089999999999975 L 39.092000000000006,59.49399999999998 L 40.028000000000006,59.805999999999976 L 40.822,59.976999999999975 L 41.077000000000005,60.827999999999975 L 42.297000000000004,60.543999999999976 L 42.63700000000001,60.09099999999997 L 43.45900000000001,60.11899999999997 L 44.70600000000001,60.769999999999975 L 45.13200000000001,60.96899999999997 L 45.55700000000001,61.59199999999997 L 45.89600000000001,60.86099999999997 L 45.479000000000006,60.209999999999965 L 45.00900000000001,59.79099999999997 L 45.583000000000006,59.19299999999997 L 45.687000000000005,58.538999999999966 L 46.23500000000001,58.435999999999964 L 46.31400000000001,57.96499999999997 L 45.55700000000001,57.36499999999997 L 44.82700000000001,57.52199999999996 L 43.94000000000001,57.49499999999996 L 43.26100000000001,56.81799999999996 L 43.36500000000001,56.24199999999996 L 43.02600000000001,55.77299999999996 L 42.27000000000001,55.90299999999996 L 41.43500000000001,55.58999999999996 L 40.91300000000001,55.87599999999996 L 40.33900000000001,55.35499999999996 L 40.052000000000014,54.83399999999996 L 39.40000000000001,54.46699999999996 L 38.90400000000001,54.75499999999996 L 38.33000000000001,54.28499999999996 L 38.04300000000001,53.76399999999996 L 38.173000000000016,53.29499999999996 L 37.88600000000002,52.69399999999996 L 37.88600000000002,51.88499999999996 L 38.19900000000002,51.490999999999964 L 38.22500000000002,50.761999999999965 L 38.04200000000002,50.08299999999996 L 37.703000000000024,49.58899999999996 L 37.46900000000002,49.01299999999996 L 37.02500000000002,49.06499999999996 L 36.21700000000002,48.386999999999965 L 35.66900000000002,48.779999999999966 L 35.82500000000002,49.58999999999997 L 35.14700000000002,49.953999999999965 L 34.78200000000002,50.37099999999997 L 34.02500000000002,50.057999999999964 L 33.19000000000002,49.849999999999966 L 32.72100000000002,49.926999999999964 L 32.042000000000016,49.61399999999996 L 31.390000000000015,50.00699999999996 C 31.390000000000015,50.00699999999996 31.010000000000016,49.981999999999964 30.947000000000013,49.98099999999996 C 30.884000000000015,49.97899999999996 30.529000000000014,49.45899999999996 30.529000000000014,49.45899999999996 L 29.903000000000013,49.45899999999996 L 29.590000000000014,49.850999999999964 L 28.181000000000015,50.00799999999996 L 27.790000000000013,49.59099999999996 L 27.29,49.59099999999996 L 27.002,50.08499999999996 L 26.272,50.45099999999996 L 25.802,50.21599999999996 L 24.366,50.16399999999996 L 24.079,50.58099999999996 L 24.236,51.15499999999996 L 24.236,51.62499999999996 L 24.157,52.43499999999996 L 24.522,53.033999999999956 L 24.052,53.76499999999996 L 23.687,54.05199999999996 L 23.687,54.44399999999996 L 23.374000000000002,54.73099999999996 L 23.766000000000002,55.17299999999996 L 23.271,55.43499999999996 L 23.584,56.06099999999996 L 23.322,56.686999999999955 L 22.695999999999998,56.92099999999996 L 22.54,57.20899999999995 L 22.07,57.05199999999996 L 21.94,58.070999999999955 L 22.201,58.48699999999995 L 22.071,58.85399999999995 L 21.523000000000003,59.08799999999995 L 21.348000000000003,59.71099999999995 L 21.34,60.106" fill="#000000" stroke="#FFFFFF" stroke-width="0.5"/>
	<path d="M 14.73,33.464 L 15.722000000000001,32.925 L 15.694,32.157999999999994 L 16.034000000000002,31.817999999999994 L 17.055000000000003,31.647999999999993 L 17.905000000000005,31.760999999999992 L 18.246000000000006,31.136999999999993 L 18.246000000000006,30.682999999999993 L 18.529000000000007,30.17299999999999 L 18.869000000000007,30.17299999999999 L 19.03900000000001,30.682999999999993 L 19.46400000000001,30.540999999999993 L 19.46400000000001,29.916999999999994 L 19.73400000000001,29.647999999999996 L 19.890000000000008,29.235999999999997 L 20.287000000000006,29.235999999999997 L 20.456000000000007,29.775999999999996 L 20.910000000000007,30.058999999999997 L 21.78900000000001,29.435 L 21.84500000000001,28.386 L 22.25700000000001,27.974 L 22.72500000000001,28.215 L 23.29300000000001,27.705 L 23.66100000000001,28.073999999999998 L 24.34200000000001,27.705 L 25.10800000000001,27.619999999999997 L 25.278000000000013,28.016999999999996 L 25.590000000000014,28.016999999999996 L 26.101000000000013,27.506999999999994 L 26.101000000000013,26.712999999999994 L 26.753000000000014,26.598999999999993 L 27.207000000000015,26.144999999999992 L 27.803000000000015,26.513999999999992 L 28.710000000000015,26.03299999999999 L 29.079000000000015,25.66399999999999 L 29.845000000000013,25.72099999999999 L 30.214000000000013,24.98399999999999 L 30.724000000000014,24.98399999999999 L 30.923000000000016,25.21099999999999 L 31.943000000000016,24.84199999999999 L 32.057000000000016,24.133999999999993 L 31.206000000000017,23.849999999999994 L 31.206000000000017,23.310999999999993 L 30.355000000000018,23.14099999999999 L 30.66700000000002,22.57399999999999 L 30.95000000000002,21.836999999999993 L 31.80100000000002,22.232999999999993 L 32.00000000000002,22.431999999999995 L 32.51000000000002,22.431999999999995 L 33.304000000000016,22.147999999999996 L 33.814000000000014,22.657999999999998 L 34.32400000000001,23.139999999999997 L 34.35200000000001,23.763999999999996 L 33.927000000000014,24.472999999999995 L 34.89100000000001,24.302999999999994 L 34.72100000000001,25.294999999999995 L 34.72100000000001,25.748999999999995 L 34.05300000000001,25.981999999999996 L 33.954000000000015,26.748999999999995 L 33.28700000000001,26.492999999999995 L 32.54000000000001,26.394999999999996 L 32.69700000000001,27.023999999999997 L 32.19600000000001,27.525 L 32.19600000000001,27.927999999999997 L 31.758000000000013,28.365999999999996 C 31.758000000000013,28.365999999999996 31.333000000000013,28.958999999999996 31.340000000000014,29.068999999999996 C 31.347000000000016,29.177999999999997 31.694000000000013,29.638999999999996 31.694000000000013,29.638999999999996 L 31.694000000000013,30.168999999999997 L 32.44100000000002,31.406999999999996 L 32.972000000000016,32.056 L 32.73600000000002,32.370999999999995 L 32.83400000000002,33.117999999999995 L 32.34300000000002,33.117999999999995 L 32.18600000000002,33.589999999999996 L 31.67400000000002,33.589999999999996 L 31.85100000000002,34.474999999999994 L 31.47800000000002,34.849 L 30.63200000000002,34.770999999999994 L 30.180000000000017,35.22299999999999 L 28.47,35.22299999999999 L 27.644,34.84899999999999 L 26.976999999999997,35.20299999999999 L 26.976999999999997,35.67499999999999 L 26.434999999999995,36.21599999999999 L 25.815999999999995,36.21599999999999 L 25.604999999999997,36.426999999999985 L 25.619999999999997,36.83399999999998 L 25.031,36.47999999999998 L 24.381999999999998,37.127999999999986 L 23.477999999999998,37.10799999999998 L 22.613,37.63899999999998 L 21.846,37.67899999999998 L 21.256,38.22899999999998 L 21.138,38.91699999999998 L 20.489,39.19199999999998 L 20.135,39.76299999999998 L 19.427000000000003,39.34999999999998 L 18.994000000000003,39.34999999999998 L 18.266000000000002,38.62099999999998 L 18.757,38.12999999999998 L 18.266000000000002,37.46199999999998 L 18.443,37.088999999999984 L 18.01,36.655999999999985 L 18.187,36.006999999999984 L 17.921,35.505999999999986 L 18.403,35.02399999999999 L 17.912,34.53199999999999 L 16.791,34.64999999999999 L 16.791,34.15899999999999 L 16.28,33.965999999999994 L 15.235000000000001,33.965999999999994 L 14.73,33.464" fill="#000000" stroke="#FFFFFF" stroke-width="0.5"/>
	<path d="M 67.701,35.959 L 67.701,37.039 L 67.18599999999999,37.039 L 66.71499999999999,37.509 L 65.67099999999999,38.187 L 65.67099999999999,38.918 L 65.306,39.283 L 65.594,39.805 L 64.967,40.692 L 64.78399999999999,41.501 L 65.21499999999999,41.931999999999995 L 64.80999999999999,42.596999999999994 L 64.68099999999998,43.379999999999995 L 65.05799999999998,43.75899999999999 L 65.53999999999998,43.75899999999999 L 65.53999999999998,44.31999999999999 L 66.19199999999998,44.31999999999999 L 66.60899999999998,44.73799999999999 L 67.36699999999998,44.52899999999999 L 67.99199999999998,45.441999999999986 L 68.51399999999998,45.441999999999986 L 68.95799999999998,45.676999999999985 L 69.47999999999999,45.31199999999998 L 69.92199999999998,45.755999999999986 L 70.5,45.44 L 71.282,45.858 L 71.1,46.746 L 71.91,46.746 L 72.195,47.528000000000006 L 72.82199999999999,47.73800000000001 L 73.356,48.272000000000006 L 73.29299999999999,48.807 L 73.86599999999999,48.807 L 74.15399999999998,49.381 L 73.72299999999998,49.812 L 73.29199999999999,49.668 L 72.588,50.136 L 72.588,50.869 L 72.026,51.43 L 71.41499999999999,50.738 L 70.60499999999999,51.025 L 70.83899999999998,51.729 L 70.13399999999999,51.939 L 69.61299999999999,51.782000000000004 L 69.18199999999999,52.213 L 68.88199999999999,52.748 L 68.47699999999999,52.342999999999996 L 67.78699999999999,52.382 L 67.579,51.888 L 67.16,52.251999999999995 L 67.396,53.06099999999999 L 67.003,53.452999999999996 L 66.769,53.818 L 65.777,53.974999999999994 L 65.164,54.58599999999999 L 64.762,53.895999999999994 L 64.762,53.504999999999995 L 64.434,53.178 L 63.717999999999996,53.178 L 63.613,52.617999999999995 L 63.613,52.096 L 62.986,51.70399999999999 L 62.986,51.233999999999995 L 62.58,50.83 L 62.333999999999996,50.295 L 61.75899999999999,50.295 L 61.367999999999995,50.738 L 61.78399999999999,51.156 L 62.21499999999999,51.586999999999996 L 61.758999999999986,52.25299999999999 L 61.445999999999984,52.565999999999995 L 60.66399999999999,51.989999999999995 L 61.02899999999999,51.626 L 60.558,51.0 L 60.558,50.321 L 61.08,49.772999999999996 L 60.48,49.590999999999994 L 59.983999999999995,49.562999999999995 L 60.288999999999994,48.74699999999999 L 60.61899999999999,48.275999999999996 L 60.61899999999999,47.684999999999995 L 61.15699999999999,47.145999999999994 L 61.15699999999999,46.36299999999999 L 60.566999999999986,46.10199999999999 L 60.566999999999986,45.633999999999986 L 60.09599999999999,44.710999999999984 L 59.65999999999999,43.85899999999999 L 60.24299999999999,43.466999999999985 L 59.98999999999999,43.21599999999999 L 59.886999999999986,42.448999999999984 L 59.62699999999999,41.84099999999999 L 59.62699999999999,41.24899999999999 C 59.62699999999999,41.24899999999999 60.65599999999999,40.423999999999985 60.667999999999985,40.39699999999999 C 60.679999999999986,40.37199999999999 60.40799999999999,39.96199999999999 60.40799999999999,39.96199999999999 L 60.56499999999998,39.05899999999999 L 61.05099999999998,38.11899999999999 L 61.23199999999998,37.26499999999999 L 62.13999999999998,36.83899999999999 L 62.84899999999998,36.83899999999999 L 62.87699999999998,35.96099999999999 L 62.40799999999998,35.49299999999999 L 61.939999999999976,35.307999999999986 L 61.60099999999998,34.088999999999984 L 60.863999999999976,33.692999999999984 L 61.25999999999998,32.926999999999985 L 62.13999999999998,33.15399999999998 L 62.79199999999998,33.295999999999985 L 63.86899999999998,33.60799999999998 L 64.30799999999998,34.04799999999998 L 65.05999999999997,33.80599999999998 L 65.17399999999998,34.54399999999998 L 65.76899999999998,34.99799999999998 L 66.67399999999998,34.99799999999998 L 66.90299999999998,35.79099999999998 L 67.701,35.959" fill="#000000" stroke="#FFFFFF" stroke-width="0.5"/>
	<path d="M 60.289,48.747 L 59.645,48.103 L 57.713,48.103 L 57.329,48.729 L 56.042,48.729 L 55.703,49.068 L 55.574000000000005,49.564 L 56.12200000000001,49.929 L 55.96500000000001,50.242000000000004 L 55.44400000000001,50.55500000000001 L 55.732000000000006,51.23400000000001 L 55.495000000000005,51.73000000000001 L 55.70400000000001,52.25200000000001 L 55.75800000000001,53.19000000000001 L 54.73900000000001,53.66100000000001 L 54.55600000000001,54.077000000000005 L 54.08600000000001,54.39000000000001 L 54.47900000000001,54.88600000000001 L 54.06000000000002,55.22500000000001 L 53.929000000000016,55.69400000000001 L 54.47900000000001,56.24200000000001 L 53.87700000000002,56.60800000000001 L 54.03400000000001,57.12900000000001 C 54.03400000000001,57.12900000000001 54.490000000000016,57.40000000000001 54.50500000000001,57.469000000000015 C 54.51700000000001,57.539000000000016 54.32200000000001,57.808000000000014 54.32200000000001,57.808000000000014 L 53.92800000000001,57.91300000000001 L 53.695000000000014,58.48600000000001 L 53.198000000000015,58.35500000000001 L 52.88500000000001,58.85100000000001 L 52.31200000000001,59.13900000000001 L 51.710000000000015,58.95600000000001 L 51.268000000000015,59.21700000000001 L 50.616000000000014,58.774000000000015 L 49.88600000000002,59.08700000000002 L 49.652000000000015,59.63500000000002 L 49.02500000000001,59.63500000000002 L 48.68500000000001,60.10400000000002 L 48.32000000000001,60.20900000000002 L 48.00800000000001,60.80900000000002 L 47.40700000000001,60.36600000000002 L 46.83400000000001,60.96600000000002 L 46.363000000000014,60.627000000000024 L 45.893000000000015,60.861000000000026 L 45.554000000000016,61.59200000000003 L 45.923000000000016,61.64900000000003 L 46.66000000000002,61.73500000000003 L 47.51100000000002,62.358000000000025 L 48.363000000000014,62.443000000000026 L 48.561000000000014,62.10300000000002 L 49.411000000000016,62.187000000000026 L 50.65900000000001,63.068000000000026 L 50.802000000000014,63.520000000000024 L 52.448000000000015,64.42700000000002 L 54.40400000000002,64.40000000000002 L 55.90700000000002,64.68300000000002 L 56.47300000000002,64.03200000000002 L 56.78500000000002,63.181000000000026 L 57.83600000000002,63.123000000000026 L 58.29000000000002,63.60600000000002 L 59.33800000000002,63.776000000000025 L 59.47900000000002,64.48500000000003 L 60.02000000000002,64.31400000000002 L 60.95600000000002,64.88000000000002 L 61.80600000000002,64.65400000000002 L 62.37500000000002,65.02200000000002 L 62.65500000000002,66.44000000000003 L 63.11200000000002,66.38300000000002 L 63.45100000000002,65.19200000000002 L 63.67900000000002,64.36900000000003 L 64.61500000000002,63.20800000000003 L 64.84300000000002,62.413000000000025 L 65.18200000000002,62.27100000000002 L 65.69300000000001,61.76000000000002 L 66.23100000000001,61.76000000000002 L 67.28200000000001,62.21300000000002 L 68.18700000000001,62.75300000000002 L 69.09500000000001,62.157000000000025 L 69.86100000000002,62.66700000000002 L 70.54200000000002,62.49700000000002 L 71.25200000000001,61.84600000000002 L 71.02700000000002,61.56400000000002 L 70.63500000000002,60.99000000000002 L 69.98300000000002,60.834000000000024 L 69.95700000000002,60.41700000000002 L 69.35500000000002,60.05100000000002 L 68.67600000000002,60.312000000000026 L 68.10300000000002,59.79000000000003 L 67.55500000000002,59.818000000000026 L 67.58100000000002,59.21700000000003 L 66.72000000000001,59.11300000000003 L 66.07000000000001,58.748000000000026 L 66.147,58.14600000000003 L 65.83300000000001,57.80800000000003 L 64.97300000000001,58.14600000000003 L 64.58100000000002,57.65000000000003 L 65.10300000000002,57.102000000000025 L 65.57300000000002,56.78900000000002 L 65.65100000000002,56.26800000000002 L 64.94600000000003,56.18900000000002 L 65.10300000000002,55.642000000000024 L 64.79000000000002,55.093000000000025 L 65.16900000000003,54.58300000000003 L 64.76400000000002,53.89300000000003 L 64.76400000000002,53.50200000000003 L 64.43700000000003,53.17500000000003 L 63.72000000000003,53.17500000000003 L 63.617000000000026,52.61500000000003 L 63.617000000000026,52.09300000000003 L 62.99000000000002,51.70100000000003 L 62.99000000000002,51.23100000000003 L 62.58,50.83 L 62.332,50.295 L 61.759,50.295 L 61.365,50.738 L 61.784,51.156 L 62.214999999999996,51.586999999999996 L 61.75899999999999,52.25299999999999 L 61.44599999999999,52.565999999999995 L 60.66199999999999,51.989999999999995 L 61.026999999999994,51.626 L 60.558,51.0 L 60.558,50.321 L 61.08,49.772999999999996 L 60.478,49.590999999999994 L 59.982,49.562999999999995 L 60.289,48.747" fill="#000000" stroke="#FFFFFF" stroke-width="0.5"/>
	<path d="M 45.416,42.102 L 44.702999999999996,41.753 L 44.684999999999995,41.266 L 44.111,41.074 L 43.519999999999996,40.727 L 43.607,40.239 L 43.963,39.724999999999994 L 44.18,39.01599999999999 L 43.334,38.56499999999999 L 43.747,37.837999999999994 L 43.531,37.36599999999999 L 43.649,36.77599999999999 L 43.511,36.14699999999999 L 43.197,35.83299999999999 L 42.627,36.206999999999994 L 41.703,36.08899999999999 L 41.703,35.53799999999999 L 41.2,35.037 L 40.542,34.91 L 40.404,34.418 L 40.905,33.916 L 40.6,33.080999999999996 L 40.777,32.589999999999996 L 40.483000000000004,32.117999999999995 L 40.73800000000001,31.723999999999997 L 40.20700000000001,31.487999999999996 L 40.20700000000001,31.093999999999998 L 39.46500000000001,30.715999999999998 L 39.12600000000001,30.377 L 38.546000000000014,30.377 L 38.10400000000001,29.933999999999997 L 37.671000000000014,30.680999999999997 L 36.98300000000001,31.447999999999997 L 36.747000000000014,31.211999999999996 L 36.158000000000015,31.310999999999996 L 36.158000000000015,31.801999999999996 L 35.332000000000015,32.47 L 34.34900000000002,32.705999999999996 L 34.113,32.0 L 32.973,32.059 L 32.737,32.373 L 32.835,33.120999999999995 L 32.344,33.120999999999995 L 32.186,33.592999999999996 L 31.675,33.592999999999996 L 31.852,34.477999999999994 L 31.478,34.85099999999999 L 30.633000000000003,34.77199999999999 L 30.180000000000003,35.224999999999994 L 28.470000000000002,35.224999999999994 L 27.644000000000002,34.85099999999999 L 26.977,35.20499999999999 L 26.977,35.67699999999999 L 26.435,36.21799999999999 L 25.816,36.21799999999999 L 25.605,36.42899999999999 L 25.62,36.83699999999999 L 25.031000000000002,36.48299999999999 L 24.382,37.13099999999999 L 23.478,37.11099999999999 L 22.613000000000003,37.64199999999999 L 21.846000000000004,37.68099999999999 L 21.256000000000004,38.23199999999999 L 21.138000000000005,38.919999999999995 L 20.489000000000004,39.196 L 20.135000000000005,39.766 L 20.375000000000004,40.067 L 20.088000000000005,40.432 L 20.453000000000003,40.771 L 20.870000000000005,40.511 L 21.575000000000003,40.563 L 21.653000000000002,41.006 L 22.071,41.241 L 22.541,41.476 L 23.011,41.292 L 23.558999999999997,41.997 L 24.080999999999996,41.893 L 24.107999999999997,42.31 L 24.628999999999998,42.414 L 25.072,42.701 L 25.02,43.38 L 25.151,43.771 L 24.654,44.267 L 24.889,44.894000000000005 L 24.628,45.337 L 24.863,45.806000000000004 L 24.367,46.405 L 23.794,46.405 L 23.245,46.798 L 23.663,47.241 L 23.48,47.762 L 23.845,48.233 L 24.183999999999997,48.492999999999995 L 24.054,48.96399999999999 L 24.028,49.590999999999994 L 24.366999999999997,50.163999999999994 L 25.801999999999996,50.215999999999994 L 26.271999999999995,50.45199999999999 L 27.001999999999995,50.08599999999999 L 27.288999999999994,49.590999999999994 L 27.784999999999993,49.590999999999994 L 28.175999999999995,50.007999999999996 L 29.584999999999994,49.851 L 29.897999999999993,49.46 L 30.523999999999994,49.46 L 30.941999999999993,49.981 L 31.384999999999994,50.007000000000005 L 32.03699999999999,49.615 L 32.715999999999994,49.928000000000004 L 33.18599999999999,49.85 L 34.019999999999996,50.058 L 34.775999999999996,50.371 L 35.141999999999996,49.954 L 35.821,49.59 L 35.664,48.78 L 36.212,48.387 L 37.021,49.066 L 37.464,49.015 L 37.699,49.589 L 38.038,50.083999999999996 L 38.324999999999996,49.797 L 38.351,49.248999999999995 L 38.925,48.67399999999999 L 39.785999999999994,48.80499999999999 L 40.46399999999999,48.779999999999994 L 40.93399999999999,48.858 L 41.16799999999999,48.44 L 41.559999999999995,48.623999999999995 L 42.056,48.285 L 42.029999999999994,47.736 L 41.221,47.345 L 41.247,46.744 L 41.639,46.379 L 41.717000000000006,45.961 L 42.03000000000001,45.778999999999996 L 42.44800000000001,45.882999999999996 L 42.787000000000006,45.56999999999999 L 43.38700000000001,45.56999999999999 L 43.59600000000001,45.12499999999999 L 44.19600000000001,45.150999999999996 L 44.14400000000001,44.525999999999996 L 44.561000000000014,44.187 L 45.18700000000001,44.134 L 44.97800000000001,43.281 L 45.36100000000001,42.9 L 45.416,42.102 M 35.587,40.119 L 35.083000000000006,40.171 L 34.73500000000001,40.415 L 34.979000000000006,40.623 L 35.031000000000006,41.163 L 34.666000000000004,41.495 L 34.248000000000005,41.215999999999994 L 33.709,41.145999999999994 L 33.447,41.40599999999999 L 32.96,41.52899999999999 L 32.682,41.92899999999999 L 32.299,41.94699999999999 L 31.934,42.11999999999999 L 31.830000000000002,42.398999999999994 L 31.360000000000003,42.50399999999999 L 31.012000000000004,42.11999999999999 L 31.186000000000003,41.56299999999999 L 30.699000000000005,41.319999999999986 L 30.838000000000005,41.006999999999984 L 30.437000000000005,40.746999999999986 L 30.124000000000006,40.29499999999999 L 30.368000000000006,39.92799999999999 L 29.968000000000007,39.44099999999999 L 30.698000000000008,39.075999999999986 L 30.976000000000006,39.23099999999999 L 31.463000000000005,39.265999999999984 L 31.341000000000005,38.813999999999986 L 31.654000000000003,38.621999999999986 L 32.089000000000006,38.70899999999999 L 32.57600000000001,38.447999999999986 L 32.836000000000006,38.09999999999999 L 33.41100000000001,38.11799999999999 L 33.55000000000001,38.36199999999999 L 33.88000000000001,38.46599999999999 L 33.98400000000001,38.621999999999986 L 34.36700000000001,38.53599999999999 L 34.26300000000001,38.91899999999999 L 34.76600000000001,39.04099999999999 L 34.99300000000001,39.40599999999999 L 35.32400000000001,39.40599999999999 L 35.637000000000015,39.80499999999999 L 35.587,40.119" fill="#000000" stroke="#FFFFFF" stroke-width="0.5"/>
	<path d="M 45.101,26.942 L 45.952,26.998 L 46.888999999999996,27.423000000000002 L 47.172,27.707 L 47.823,27.821 L 48.531,27.424000000000003 L 48.814,28.049000000000003 L 49.212,28.927000000000003 L 49.722,28.927000000000003 L 50.459,28.644000000000002 L 50.913000000000004,29.495 L 50.856,30.034000000000002 L 51.566,29.524 L 52.047000000000004,29.042 L 52.897000000000006,29.638 L 53.32300000000001,29.666 L 53.464000000000006,29.042 L 54.627,29.042 L 56.073,30.46 L 55.592,30.885 L 55.48,31.707 L 54.571999999999996,32.048 L 53.266,33.069 L 53.379999999999995,33.636 L 54.117,34.487 L 54.742,34.175000000000004 L 55.096,34.529 L 55.096,34.968 L 55.5,35.37 L 56.018,35.306 L 56.615,36.355 L 57.436,37.007 L 57.577,38.056 L 57.873999999999995,38.660999999999994 L 56.99699999999999,38.267999999999994 L 56.584999999999994,38.267999999999994 L 56.584999999999994,38.837999999999994 L 55.54299999999999,39.132999999999996 L 54.99099999999999,39.684 L 54.81499999999999,40.431 L 53.831999999999994,40.431 L 53.14399999999999,40.626999999999995 L 52.70199999999999,40.184999999999995 L 51.94599999999999,39.742999999999995 L 51.51199999999999,39.31099999999999 L 51.038999999999994,39.31099999999999 L 51.038999999999994,38.62199999999999 L 50.684999999999995,38.267999999999994 L 49.879999999999995,38.24799999999999 L 49.211,38.581999999999994 L 48.866,38.92699999999999 C 48.866,38.92699999999999 48.539,38.81199999999999 48.504,38.797999999999995 C 48.469,38.785 48.504,38.208999999999996 48.504,38.208999999999996 L 47.991,38.208999999999996 L 47.461,38.93599999999999 L 46.458,38.93599999999999 L 45.908,38.62199999999999 L 44.871,39.51899999999999 L 43.962,39.724999999999994 L 44.179,39.01599999999999 L 43.333000000000006,38.56499999999999 L 43.746,37.837999999999994 L 43.53,37.36599999999999 L 43.648,36.77599999999999 L 43.510000000000005,36.14699999999999 L 43.196000000000005,35.83299999999999 L 42.626000000000005,36.206999999999994 L 41.702000000000005,36.08899999999999 L 41.702000000000005,35.53799999999999 L 41.2,35.037 L 40.542,34.91 L 40.404,34.418 L 40.905,33.916 L 40.6,33.080999999999996 L 40.777,32.589999999999996 L 40.483000000000004,32.117999999999995 L 40.73800000000001,31.723999999999997 L 41.56300000000001,32.254999999999995 L 42.31100000000001,31.762999999999995 L 43.45100000000001,32.15599999999999 L 43.78500000000001,32.666999999999994 L 44.29700000000001,32.37199999999999 L 44.29700000000001,31.84199999999999 L 44.90600000000001,31.44899999999999 L 45.378000000000014,31.91999999999999 C 45.378000000000014,31.91999999999999 46.371000000000016,31.714999999999993 46.381000000000014,31.70399999999999 C 46.39100000000001,31.69199999999999 46.381000000000014,31.32999999999999 46.381000000000014,31.32999999999999 L 45.79100000000001,30.740999999999993 L 46.10600000000001,30.11199999999999 L 45.71300000000001,29.71899999999999 L 45.870000000000005,29.286999999999992 L 45.535000000000004,28.479999999999993 L 45.732000000000006,27.654999999999994 L 45.101,26.942" fill="#000000" stroke="#FFFFFF" stroke-width="0.5"/>
	<path d="M 29.831,39.521 L 30.562,39.156 L 30.84,39.312999999999995 C 30.84,39.312999999999995 31.276,39.397 31.326999999999998,39.34799999999999 C 31.378999999999998,39.29899999999999 31.205,38.89499999999999 31.205,38.89499999999999 L 31.517999999999997,38.70299999999999 L 31.953999999999997,38.78999999999999 L 32.440999999999995,38.52899999999999 L 32.702,38.18099999999999 L 33.277,38.19899999999999 L 33.416000000000004,38.44199999999999 L 33.74700000000001,38.54599999999999 L 33.851000000000006,38.70299999999999 L 34.23400000000001,38.615999999999985 L 34.13000000000001,38.99899999999999 L 34.63500000000001,39.12099999999999 L 34.86100000000001,39.48599999999999 L 35.192000000000014,39.48599999999999 L 35.506000000000014,39.88599999999999 L 35.454000000000015,40.19899999999999 L 34.94900000000001,40.25199999999999 L 34.60100000000001,40.496999999999986 L 34.84500000000001,40.704999999999984 L 34.89700000000001,41.24499999999998 L 34.53100000000001,41.575999999999986 L 34.113000000000014,41.29799999999999 L 33.57400000000001,41.22799999999999 L 33.31200000000001,41.48899999999999 L 32.82500000000001,41.61099999999999 L 32.54700000000001,42.01199999999999 L 32.16400000000001,42.02799999999999 L 31.79900000000001,42.20199999999999 L 31.69500000000001,42.48199999999999 L 31.225000000000012,42.584999999999994 L 30.876000000000012,42.20199999999999 L 31.05000000000001,41.64499999999999 L 30.563,41.4 L 30.701999999999998,41.086 L 30.301,40.826 L 29.988,40.373 L 30.232,40.007 L 29.831,39.521" fill="#000000" opacity="0.8" stroke="#FFFFFF" stroke-width="0.5"/>
	<path d="M 10.329,42.935 L 9.586,42.906 L 9.586,42.366 L 9.046,42.111 L 9.074,41.486 L 7.484999999999999,40.407 L 6.491999999999999,39.897 L 6.066999999999999,39.131 L 5.640999999999999,38.648 L 5.839999999999999,37.769000000000005 L 5.186999999999999,36.775000000000006 L 4.718999999999999,36.307 L 5.045999999999999,35.668 L 4.762,34.958999999999996 L 5.67,34.958999999999996 L 5.898,35.18599999999999 L 5.898,35.809999999999995 L 6.380999999999999,35.809999999999995 L 6.651,36.08 L 6.494,36.519999999999996 L 6.778,36.803999999999995 L 6.778,37.513 L 7.204,37.939 L 7.403,36.917 C 7.403,36.917 7.260999999999999,36.577 7.403,36.435 C 7.545,36.293 7.97,35.868 7.97,35.868 L 8.225,35.016000000000005 L 9.331999999999999,34.42000000000001 L 9.331999999999999,34.02300000000001 L 9.687,33.66800000000001 L 10.497,33.54100000000001 L 11.518,33.37100000000001 L 11.858,33.71100000000001 L 12.424,33.0 L 13.474,32.716 L 14.58,33.539 L 15.086,34.045 L 16.132,34.045 L 16.643,34.238 C 16.643,34.238 16.617,34.678 16.643,34.73 C 16.67,34.782 17.765,34.611999999999995 17.765,34.611999999999995 L 18.257,35.10399999999999 L 17.775000000000002,35.58599999999999 L 18.041000000000004,36.08699999999999 L 17.865000000000006,36.73699999999999 L 18.298000000000005,37.16899999999999 L 18.120000000000005,37.54399999999999 L 18.612000000000005,38.21299999999999 L 18.120000000000005,38.70599999999999 L 18.849000000000004,39.43399999999999 L 18.494,40.3 L 17.904,40.456999999999994 L 17.904,41.34199999999999 L 17.117,40.75199999999999 L 16.291,40.65399999999999 L 14.717,41.67599999999999 L 14.717,42.26599999999999 L 14.314,42.67099999999999 L 13.654,42.34599999999999 L 13.32,42.502999999999986 L 12.671,42.109999999999985 L 11.883999999999999,42.444999999999986 L 11.322999999999999,43.006999999999984 L 10.801999999999998,42.54399999999998 L 10.329,42.935" fill="#000000" opacity="0.28" stroke="#FFFFFF" stroke-width="0.5"/>
	<path d="M 18.849,39.434 L 18.494,40.3 L 17.904,40.456999999999994 L 17.904,41.34199999999999 L 17.117,40.75199999999999 L 16.291,40.65399999999999 L 14.717,41.67599999999999 L 14.717,42.26599999999999 L 14.314,42.67099999999999 L 13.654,42.34599999999999 L 13.32,42.502999999999986 L 12.671,42.109999999999985 L 11.883999999999999,42.444999999999986 L 11.322999999999999,43.006999999999984 L 10.801999999999998,42.54399999999998 L 10.329999999999998,42.93699999999998 L 9.586999999999998,42.90799999999998 L 8.763999999999998,44.15699999999998 L 8.713999999999997,44.90399999999998 L 7.855999999999997,45.69099999999998 L 8.507999999999997,46.42799999999998 L 9.302999999999997,46.96899999999998 L 9.245999999999997,47.78999999999998 L 9.784999999999997,48.415999999999976 L 9.756999999999996,49.181999999999974 L 10.607999999999997,49.77799999999997 L 10.522999999999996,50.71599999999997 L 10.664999999999996,51.366999999999976 L 11.345999999999997,51.73699999999997 L 11.941999999999997,52.360999999999976 L 12.396999999999997,53.126999999999974 L 13.219999999999997,53.354999999999976 L 13.502999999999997,53.15599999999998 L 14.240999999999996,53.29899999999998 L 15.177999999999995,53.98099999999998 L 15.290999999999995,54.74799999999998 L 16.113999999999994,55.569999999999986 L 16.113999999999994,55.96599999999999 L 16.880999999999993,56.56299999999999 L 17.022999999999993,57.158999999999985 L 17.533999999999992,57.52899999999998 L 18.24299999999999,57.52899999999998 L 18.92499999999999,58.20899999999998 L 19.54899999999999,59.11699999999998 L 19.63399999999999,60.109999999999985 L 20.79699999999999,60.87699999999999 L 21.19699999999999,60.21199999999999 L 21.204999999999988,59.816999999999986 L 21.37999999999999,59.192999999999984 L 21.928999999999988,58.957999999999984 L 22.058999999999987,58.591999999999985 L 21.797999999999988,58.17499999999998 L 21.928999999999988,57.155999999999985 L 22.398999999999987,57.310999999999986 L 22.555999999999987,57.02599999999999 L 23.181999999999988,56.78999999999999 L 23.442999999999987,56.16199999999999 L 23.12999999999999,55.535999999999994 L 23.625999999999987,55.27499999999999 L 23.233999999999988,54.83099999999999 L 23.546999999999986,54.54499999999999 L 23.546999999999986,54.15199999999999 L 23.912999999999986,53.86499999999999 L 24.382999999999985,53.133999999999986 L 24.016999999999985,52.53199999999999 L 24.095999999999986,51.72299999999999 L 24.095999999999986,51.25299999999999 L 23.938999999999986,50.67799999999999 L 24.225999999999985,50.25999999999999 L 23.886999999999986,49.68599999999999 L 23.912999999999986,49.05899999999999 L 24.042999999999985,48.587999999999994 L 23.703999999999986,48.327999999999996 L 23.337999999999987,47.857 L 23.521999999999988,47.335 L 23.10399999999999,46.891 L 23.652999999999988,46.498999999999995 L 24.22699999999999,46.498999999999995 L 24.72399999999999,45.898999999999994 L 24.48899999999999,45.428 L 24.74999999999999,44.985 L 24.51499999999999,44.358 L 25.01099999999999,43.861999999999995 L 24.88099999999999,43.46999999999999 L 24.93299999999999,42.79099999999999 L 24.48899999999999,42.50299999999999 L 23.96699999999999,42.39999999999999 L 23.93999999999999,41.980999999999995 L 23.417999999999992,42.08599999999999 C 23.417999999999992,42.08599999999999 22.889999999999993,41.38499999999999 22.868999999999993,41.37999999999999 C 22.848999999999993,41.37599999999999 22.398999999999994,41.563999999999986 22.398999999999994,41.563999999999986 L 21.928999999999995,41.32799999999999 L 21.510999999999996,41.09399999999999 L 21.431999999999995,40.649999999999984 L 20.726999999999997,40.597999999999985 L 20.309999999999995,40.85799999999998 L 19.943999999999996,40.518999999999984 L 20.231999999999996,40.15399999999998 L 19.991999999999997,39.85199999999998 L 19.284,39.43999999999998 L 18.849,39.43999999999998 L 18.849,39.434" fill="#000000" opacity="0.4" stroke="#FFFFFF" stroke-width="0.5"/>
	<path d="M 44.977,27.012 L 45.608,27.726 L 45.410999999999994,28.552 L 45.745999999999995,29.358999999999998 L 45.589,29.791999999999998 L 45.982,30.185 L 45.667,30.814999999999998 L 46.258,31.404999999999998 L 46.258,31.778999999999996 L 45.255,31.994999999999997 L 44.783,31.522999999999996 L 44.173,31.916999999999994 L 44.173,32.44799999999999 L 43.661,32.742999999999995 L 43.327,32.230999999999995 L 42.184999999999995,31.836999999999996 L 41.437,32.32899999999999 L 40.611,31.797999999999995 L 40.07899999999999,31.561999999999994 L 40.07899999999999,31.167999999999996 L 39.33599999999999,30.789999999999996 L 38.99699999999999,30.450999999999997 L 38.416999999999994,30.450999999999997 L 37.974,30.008999999999997 L 37.541,30.756999999999998 L 36.852999999999994,31.523999999999997 L 36.61599999999999,31.287999999999997 L 36.02599999999999,31.385999999999996 L 36.02599999999999,31.877999999999997 L 35.19999999999999,32.547 L 34.21599999999999,32.782999999999994 L 33.97999999999999,32.074999999999996 L 32.83799999999999,32.13399999999999 L 32.30699999999999,31.484999999999992 L 31.558999999999987,30.24599999999999 L 31.558999999999987,29.714999999999993 L 31.204999999999988,29.14399999999999 L 31.622999999999987,28.440999999999992 L 32.060999999999986,28.002999999999993 L 32.060999999999986,27.598999999999993 L 32.56299999999999,27.096999999999994 L 32.40499999999999,26.466999999999995 L 33.152999999999984,26.565999999999995 L 33.82199999999998,26.820999999999994 L 33.91999999999998,26.052999999999994 L 34.58799999999998,25.819999999999993 L 36.34799999999998,26.359999999999992 L 36.91499999999998,25.536999999999992 L 37.964999999999975,25.479999999999993 C 37.964999999999975,25.479999999999993 38.65599999999998,25.607999999999993 38.70399999999997,25.564999999999994 C 38.74999999999997,25.521999999999995 38.87299999999997,24.570999999999994 38.87299999999997,24.570999999999994 L 39.099999999999966,23.662999999999993 L 38.61699999999997,23.180999999999994 L 39.07199999999997,22.726999999999993 L 39.837999999999965,22.726999999999993 L 40.23599999999997,23.095999999999993 L 40.85999999999997,22.754999999999992 L 41.20099999999997,23.350999999999992 L 41.711999999999975,23.12399999999999 L 42.27999999999997,23.804999999999993 L 42.02499999999997,24.371999999999993 L 42.30899999999997,25.251999999999992 L 42.80499999999997,25.74899999999999 L 43.272999999999975,26.21699999999999 L 43.32999999999998,27.03899999999999 L 43.513999999999974,27.22399999999999 L 44.15299999999998,26.64199999999999 L 44.977,27.012" fill="#000000" opacity="0.32" stroke="#FFFFFF" stroke-width="0.5"/>
	<path d="M 61.127,37.343 L 60.944,38.198 L 60.457,39.139 L 60.301,40.043000000000006 L 60.561,40.479000000000006 L 59.517,41.33200000000001 L 59.517,41.92400000000001 L 59.779,42.53300000000001 L 59.883,43.30100000000001 L 60.136,43.55200000000001 L 59.553000000000004,43.94400000000001 L 59.989000000000004,44.79700000000001 L 60.459,45.72000000000001 L 60.459,46.19000000000001 L 61.05200000000001,46.451000000000015 L 61.05200000000001,47.235000000000014 L 60.51100000000001,47.774000000000015 L 60.51100000000001,48.366000000000014 L 60.18100000000001,48.83600000000001 L 59.53500000000001,48.192000000000014 L 57.60300000000001,48.192000000000014 L 57.21900000000001,48.81900000000002 L 55.93000000000001,48.81900000000002 L 55.59,49.15900000000002 L 54.833,48.4 L 54.225,48.382999999999996 L 53.474000000000004,47.495 L 52.013000000000005,47.163999999999994 L 51.751000000000005,46.556 L 51.054,46.571999999999996 L 51.054,46.187999999999995 L 50.34,46.641999999999996 L 50.34,47.235 L 49.539,46.955999999999996 L 49.139,46.745999999999995 L 49.139,46.224 L 48.601000000000006,45.946 L 48.18200000000001,45.86 L 47.74800000000001,45.408 L 47.01700000000001,44.937000000000005 L 46.00600000000001,44.95400000000001 L 45.06600000000001,44.22400000000001 L 44.857000000000006,43.37100000000001 L 45.24000000000001,42.98900000000001 L 45.29200000000001,42.18700000000001 L 44.57900000000001,41.83900000000001 L 44.56100000000001,41.35100000000001 L 43.986000000000004,41.15900000000001 L 43.394000000000005,40.811000000000014 L 43.480000000000004,40.323000000000015 L 43.837,39.808000000000014 L 44.747,39.60500000000001 L 45.785,38.70700000000001 L 46.336,39.02000000000001 C 46.336,39.02000000000001 47.29,39.05500000000001 47.339,39.02000000000001 C 47.39,38.98600000000001 47.87,38.29300000000001 47.87,38.29300000000001 L 48.382999999999996,38.29300000000001 L 48.382999999999996,38.88300000000002 L 48.745999999999995,39.01000000000002 L 49.090999999999994,38.66600000000002 L 49.75899999999999,38.332000000000015 L 50.56699999999999,38.35200000000002 L 50.92099999999999,38.70600000000002 L 50.92099999999999,39.39400000000002 L 51.39399999999999,39.39400000000002 L 51.82799999999999,39.82700000000002 L 52.58599999999999,40.26900000000002 L 53.02799999999999,40.71200000000002 L 53.715999999999994,40.515000000000015 L 54.69799999999999,40.515000000000015 L 54.87599999999999,39.76700000000002 L 55.42699999999999,39.21700000000002 L 56.46999999999999,38.92100000000002 L 56.46999999999999,38.35100000000002 L 56.88199999999999,38.35100000000002 L 57.75999999999999,38.74400000000002 L 59.05399999999999,39.47200000000002 L 59.79099999999999,38.733000000000025 L 60.17499999999999,38.35000000000002 L 60.16099999999999,37.684000000000026 L 61.127,37.343" fill="#000000" opacity="0.25" stroke="#FFFFFF" stroke-width="0.5"/>
	<path d="M 55.589,49.159 L 54.833,48.4 L 54.223,48.382999999999996 L 53.474,47.495 L 52.013,47.163999999999994 L 51.751,46.556 L 51.053999999999995,46.571999999999996 L 51.053999999999995,46.187999999999995 L 50.339999999999996,46.641999999999996 C 50.339999999999996,46.641999999999996 50.364999999999995,47.214 50.339999999999996,47.235 C 50.31699999999999,47.254 49.538999999999994,46.955999999999996 49.538999999999994,46.955999999999996 L 49.138999999999996,46.745999999999995 L 49.138999999999996,46.224 L 48.6,45.945 L 48.182,45.859 L 47.746,45.407000000000004 L 47.015,44.93600000000001 L 46.006,44.95300000000001 L 45.065,44.22300000000001 L 44.439,44.27500000000001 L 44.021,44.61400000000001 L 44.073,45.241000000000014 L 43.472,45.216000000000015 L 43.263,45.65900000000001 L 42.663,45.65900000000001 L 42.324,45.972000000000016 L 41.906,45.868000000000016 L 41.592999999999996,46.051000000000016 L 41.51499999999999,46.469000000000015 L 41.12299999999999,46.835000000000015 L 41.09699999999999,47.43400000000001 L 41.90699999999999,47.82800000000001 C 41.90699999999999,47.82800000000001 41.93599999999999,48.31000000000001 41.93299999999999,48.37600000000001 C 41.92999999999999,48.442000000000014 41.43699999999999,48.71500000000001 41.43699999999999,48.71500000000001 L 41.04499999999999,48.53200000000001 L 40.80999999999999,48.95000000000001 L 40.33999999999999,48.87200000000001 L 39.66099999999999,48.89800000000001 L 38.798999999999985,48.76600000000001 L 38.22399999999998,49.34200000000001 L 38.19799999999998,49.88900000000001 L 37.91099999999998,50.17700000000001 L 38.09399999999998,50.85600000000001 L 38.06799999999998,51.58700000000001 L 37.754999999999974,51.98000000000001 L 37.754999999999974,52.79000000000001 L 38.04199999999997,53.39200000000001 L 37.91199999999997,53.86100000000001 L 38.19899999999997,54.38300000000001 L 38.77399999999997,54.85200000000001 L 39.269999999999975,54.56600000000001 L 39.92299999999997,54.93200000000001 L 40.21099999999997,55.45300000000001 L 40.78499999999997,55.97400000000001 L 41.30699999999997,55.68700000000001 L 42.14,56.0 L 42.897,55.87 L 43.236,56.339 L 43.132,56.915 L 43.811,57.594 L 44.699,57.619 L 45.43,57.463 L 46.188,58.065 L 46.109,58.534 L 45.56,58.638 L 45.456,59.29 L 44.881,59.891999999999996 L 45.351,60.309 L 45.769,60.961999999999996 L 46.239,60.727999999999994 L 46.709999999999994,61.068 L 47.28399999999999,60.466 L 47.88499999999999,60.910000000000004 L 48.19799999999999,60.30800000000001 L 48.562999999999995,60.205000000000005 L 48.901999999999994,59.73400000000001 L 49.529999999999994,59.73400000000001 L 49.76599999999999,59.18500000000001 L 50.49499999999999,58.87200000000001 L 51.14799999999999,59.315000000000005 L 51.58999999999999,59.05500000000001 L 52.191999999999986,59.23800000000001 L 52.76699999999999,58.95000000000001 L 53.08099999999999,58.45400000000001 L 53.57699999999999,58.58500000000001 L 53.80999999999999,58.010000000000005 L 54.20199999999999,57.906000000000006 L 54.38699999999999,57.568000000000005 L 53.916,57.227000000000004 L 53.76,56.706 L 54.358999999999995,56.34 L 53.81099999999999,55.791000000000004 L 53.94299999999999,55.32000000000001 L 54.35899999999999,54.980000000000004 L 53.96799999999999,54.48500000000001 L 54.438999999999986,54.172000000000004 L 54.621999999999986,53.754000000000005 L 55.639999999999986,53.284000000000006 L 55.58799999999999,52.345000000000006 L 55.377999999999986,51.822 L 55.61399999999998,51.326 L 55.32799999999998,50.647 L 55.84999999999998,50.333999999999996 L 56.00599999999998,50.020999999999994 L 55.45599999999998,49.65599999999999 L 55.589,49.159" fill="#000000" opacity="0.25" stroke="#FFFFFF" stroke-width="0.5"/>
	<path d="M 80.112,51.789 L 79.512,51.509 L 79.381,50.907000000000004 L 78.649,50.437000000000005 L 78.597,49.968 L 78.02199999999999,50.201 L 77.47399999999999,50.201 L 76.847,49.758 L 76.011,49.575 L 75.175,49.914 L 74.654,49.471000000000004 L 74.05199999999999,49.471000000000004 L 73.621,49.903000000000006 L 73.19,49.757000000000005 L 72.486,50.228 L 72.486,50.958 C 72.486,50.958 72.034,51.442 71.924,51.521 C 71.816,51.599000000000004 71.311,50.83 71.311,50.83 L 70.5,51.114999999999995 L 70.737,51.821 L 70.03,52.03 L 69.508,51.874 L 69.077,52.305 L 68.77799999999999,52.839999999999996 L 68.37299999999999,52.43599999999999 L 67.681,52.47599999999999 L 67.472,51.97999999999999 L 67.053,52.34399999999999 L 67.289,53.15499999999999 L 66.896,53.54699999999999 L 66.662,53.91199999999999 L 65.67,54.06799999999999 L 65.057,54.68099999999999 L 64.678,55.19099999999999 L 64.991,55.73999999999999 L 64.834,56.28899999999999 L 65.539,56.365999999999985 L 65.462,56.886999999999986 L 64.993,57.2 L 64.47099999999999,57.749 L 64.86299999999999,58.245000000000005 L 65.72599999999998,57.906000000000006 L 66.03899999999999,58.245000000000005 L 65.96,58.846000000000004 L 66.612,59.212 L 67.473,59.316 L 67.448,59.918 L 67.996,59.89 L 68.571,60.411 L 69.25,60.15 L 69.85,60.516 L 69.878,60.934 L 70.53,61.090999999999994 L 70.921,61.66499999999999 L 71.147,61.94699999999999 L 71.65700000000001,61.94699999999999 L 72.39600000000002,61.49299999999999 L 72.90700000000001,60.612999999999985 L 73.95800000000001,60.554999999999986 L 74.14300000000001,59.15099999999998 L 74.55500000000002,58.73899999999998 L 75.91700000000002,58.62599999999998 L 76.62600000000002,57.60499999999998 L 76.62600000000002,56.383999999999986 L 76.99300000000002,55.33399999999999 L 76.99300000000002,54.59599999999999 L 77.56200000000003,53.71699999999999 L 78.32700000000003,53.517999999999994 L 79.03900000000003,53.148999999999994 L 79.66100000000003,52.92099999999999 L 80.112,51.789" fill="#000000" opacity="0.26" stroke="#FFFFFF" stroke-width="0.5"/>
	<path d="M 67.596,36.037 L 67.596,37.119 L 67.081,37.119 L 66.61,37.589 L 65.566,38.268 L 65.566,38.999 L 65.20100000000001,39.365 L 65.48700000000001,39.888000000000005 L 64.85900000000001,40.775000000000006 L 64.676,41.58500000000001 L 65.11,42.016000000000005 L 64.703,42.682 L 64.574,43.465 L 64.951,43.844 L 65.43499999999999,43.844 L 65.43499999999999,44.406 L 66.088,44.406 L 66.50399999999999,44.824 L 67.26299999999999,44.614999999999995 L 67.88999999999999,45.52799999999999 L 68.41099999999999,45.52799999999999 L 68.85599999999998,45.76399999999999 L 69.37699999999998,45.39899999999999 L 69.82099999999998,45.84299999999999 L 70.39499999999998,45.52799999999999 L 71.17799999999998,45.94699999999999 L 70.99299999999998,46.83399999999999 L 71.80599999999998,46.83399999999999 L 72.09099999999998,47.61799999999999 L 72.71799999999998,47.82799999999999 L 73.25399999999998,48.36199999999999 L 73.18899999999998,48.89799999999999 L 73.76499999999997,48.89799999999999 L 74.04999999999997,49.47299999999999 L 74.65199999999997,49.47299999999999 L 75.17299999999997,49.91599999999999 L 76.00899999999997,49.57699999999999 L 76.84499999999997,49.75999999999999 L 77.47199999999997,50.20299999999999 L 78.01999999999997,50.20299999999999 L 78.59499999999997,49.96999999999999 L 78.64699999999998,50.43899999999999 L 79.37899999999998,50.90899999999999 L 79.50799999999998,51.51099999999999 L 80.10999999999999,51.79099999999999 L 80.59199999999998,51.61999999999999 L 81.49899999999998,50.42999999999999 L 81.44299999999998,49.74799999999999 L 82.06799999999998,49.46499999999999 L 82.57799999999999,49.71899999999999 L 83.43099999999998,49.548999999999985 L 84.13999999999999,49.77699999999999 L 85.04799999999999,49.350999999999985 L 85.189,48.66899999999998 L 84.678,47.27899999999998 L 84.366,46.31199999999998 L 83.63,46.31199999999998 L 83.318,45.94399999999998 L 82.38199999999999,45.66099999999998 L 82.23799999999999,44.97899999999998 L 81.61399999999999,43.616999999999976 L 81.95499999999998,42.87899999999998 L 81.67199999999998,42.76599999999998 L 81.38699999999999,41.970999999999975 L 80.82099999999998,42.39699999999998 L 79.71399999999998,41.77199999999998 L 78.74999999999999,41.629999999999974 L 78.40799999999999,42.22599999999997 L 77.89799999999998,41.37499999999997 L 77.24499999999998,41.06199999999997 L 76.93299999999998,40.66499999999997 L 76.36499999999998,41.03399999999997 L 75.79899999999998,40.77899999999997 L 75.84099999999998,40.08399999999997 L 75.37299999999998,39.615999999999964 L 74.69099999999997,39.727999999999966 L 74.34899999999998,40.60799999999997 C 74.34899999999998,40.60799999999997 73.77399999999997,41.227999999999966 73.69899999999997,41.26099999999997 C 73.62499999999997,41.29399999999997 73.08899999999997,41.246999999999964 73.08899999999997,41.246999999999964 L 72.50599999999997,40.664999999999964 L 71.91099999999997,40.465999999999966 L 71.59799999999997,39.52799999999996 L 71.05999999999997,38.76299999999996 L 70.44899999999997,38.83299999999996 L 69.86899999999997,38.25099999999996 L 69.86899999999997,37.76899999999996 L 70.88999999999997,37.45599999999996 L 71.69999999999997,37.05799999999996 L 71.69999999999997,36.59 L 71.17599999999997,36.065000000000005 L 71.28799999999997,35.49700000000001 L 70.72,34.93 L 70.435,35.497 L 70.009,35.923 L 68.59,35.81 L 67.596,36.037" fill="#000000" opacity="0.82" stroke="#FFFFFF" stroke-width="0.5"/>
	<path d="M 21.196,60.206 L 21.822000000000003,60.388000000000005 L 22.461000000000002,60.946000000000005 L 22.357000000000003,61.269000000000005 L 22.811000000000003,61.95 L 23.605000000000004,62.093 L 23.833000000000006,62.80200000000001 L 24.372000000000007,63.51200000000001 L 24.599000000000007,64.164 L 25.195000000000007,64.19200000000001 L 26.216000000000008,65.156 L 26.756000000000007,65.355 L 27.352000000000007,66.06400000000001 L 26.927000000000007,66.518 L 27.863000000000007,67.455 L 28.942000000000007,67.455 L 30.021000000000008,67.654 L 30.90000000000001,68.16499999999999 L 32.14900000000001,67.11399999999999 L 32.40500000000001,66.463 L 33.05700000000001,67.029 L 33.76700000000001,67.172 L 34.33400000000001,67.029 L 35.27100000000001,67.654 L 35.64000000000001,67.05799999999999 L 35.52600000000001,66.49 L 35.64000000000001,65.526 L 36.434000000000005,64.87299999999999 L 36.718,64.05 L 37.456,64.079 L 38.477000000000004,64.392 L 38.647000000000006,64.079 L 38.392,63.623999999999995 L 38.534,63.0 L 38.789,62.232 L 38.704,61.239 L 38.647,60.189 L 38.96,59.593 L 39.896,59.905 L 40.69,60.076 L 40.946,60.927 L 42.167,60.644 L 42.507000000000005,60.19 L 43.330000000000005,60.217999999999996 L 44.57900000000001,60.87 L 45.00500000000001,61.068999999999996 L 45.43100000000001,61.693 L 45.77000000000001,60.961999999999996 L 45.35200000000001,60.309 L 44.88200000000001,59.89 L 45.457000000000015,59.29 L 45.561000000000014,58.638 L 46.110000000000014,58.533 L 46.189000000000014,58.065 L 45.43100000000001,57.463 L 44.7,57.619 L 43.812000000000005,57.594 L 43.133,56.914 L 43.238,56.338 L 42.899,55.869 L 42.141,56.0 L 41.306,55.687 L 40.784,55.974 L 40.208999999999996,55.452 L 39.922,54.93 L 39.269,54.564 L 38.772,54.852 L 38.198,54.381 L 37.910000000000004,53.86 L 38.040000000000006,53.39 L 37.75300000000001,52.79 L 37.75300000000001,51.98 L 38.06600000000001,51.586 L 38.09200000000001,50.856 L 37.90900000000001,50.177 L 37.570000000000014,49.681 L 37.335000000000015,49.105 L 36.89100000000001,49.157 L 36.082000000000015,48.477999999999994 L 35.53400000000001,48.87199999999999 L 35.69100000000001,49.681999999999995 L 35.01200000000001,50.047 L 34.64600000000001,50.464999999999996 L 33.888000000000005,50.151999999999994 L 33.053000000000004,49.94199999999999 L 32.583000000000006,50.02199999999999 L 31.904000000000007,49.70799999999999 L 31.25100000000001,50.099999999999994 C 31.25100000000001,50.099999999999994 30.870000000000008,50.07699999999999 30.808000000000007,50.07399999999999 C 30.744000000000007,50.07299999999999 30.390000000000008,49.55299999999999 30.390000000000008,49.55299999999999 L 29.764000000000006,49.55299999999999 L 29.451000000000008,49.94399999999999 L 28.041000000000007,50.100999999999985 L 27.649000000000008,49.68399999999998 L 27.15300000000001,49.68399999999998 L 26.86500000000001,50.179999999999986 L 26.134000000000007,50.54499999999999 L 25.66400000000001,50.30999999999999 L 24.227000000000007,50.25699999999999 L 23.939000000000007,50.67599999999999 L 24.096000000000007,51.24899999999999 L 24.096000000000007,51.719999999999985 L 24.017000000000007,52.52999999999999 L 24.383000000000006,53.131999999999984 L 23.913000000000007,53.86199999999998 L 23.54800000000001,54.14999999999998 L 23.54800000000001,54.54199999999998 L 23.23500000000001,54.82899999999998 L 23.62700000000001,55.27299999999998 L 23.13100000000001,55.53299999999998 L 23.44400000000001,56.15999999999998 L 23.18200000000001,56.78799999999998 L 22.556000000000008,57.02099999999998 L 22.40000000000001,57.308999999999976 L 21.93000000000001,57.15299999999998 L 21.79900000000001,58.171999999999976 L 22.06000000000001,58.589999999999975 L 21.93000000000001,58.95499999999998 L 21.38100000000001,59.189999999999976 L 21.20600000000001,59.812999999999974 L 21.196,60.206" fill="#000000" opacity="0.36" stroke="#FFFFFF" stroke-width="0.5"/>
	<path d="M 14.58,33.54 L 15.574,33.0 L 15.546,32.233 L 15.886,31.892999999999997 L 16.907999999999998,31.722999999999995 L 17.759999999999998,31.836999999999996 L 18.099999999999998,31.211999999999996 L 18.099999999999998,30.757999999999996 L 18.383,30.246999999999996 L 18.724,30.246999999999996 L 18.894000000000002,30.757999999999996 L 19.32,30.615999999999996 L 19.32,29.990999999999996 L 19.59,29.720999999999997 L 19.746,29.308999999999997 L 20.142999999999997,29.308999999999997 L 20.313,29.848999999999997 L 20.767,30.133999999999997 L 21.647,29.508999999999997 L 21.703999999999997,28.458999999999996 L 22.115999999999996,28.047999999999995 L 22.583999999999996,28.288999999999994 L 23.151999999999997,27.777999999999995 L 23.519999999999996,28.146999999999995 L 24.201999999999995,27.777999999999995 L 24.967999999999996,27.692999999999994 L 25.137999999999998,28.089999999999993 L 25.450999999999997,28.089999999999993 L 25.961999999999996,27.578999999999994 L 25.961999999999996,26.784999999999993 L 26.613999999999997,26.670999999999992 L 27.067999999999998,26.21699999999999 L 27.665,26.58599999999999 L 28.573,26.103999999999992 L 28.942,25.734999999999992 L 29.708,25.79199999999999 L 30.076999999999998,25.05399999999999 L 30.587999999999997,25.05399999999999 L 30.787,25.28099999999999 L 31.808,24.911999999999992 L 31.921,24.20199999999999 L 31.07,23.917999999999992 L 31.07,23.37899999999999 L 30.218,23.20899999999999 L 30.531,22.640999999999988 L 30.814,21.902999999999988 L 31.666,22.299999999999986 L 31.865000000000002,22.498999999999988 L 32.376000000000005,22.498999999999988 L 33.17100000000001,22.21499999999999 L 33.68200000000001,22.72499999999999 L 34.19300000000001,23.20799999999999 L 34.22100000000001,23.83199999999999 L 33.796000000000014,24.54199999999999 L 34.76100000000002,24.37199999999999 L 34.591000000000015,25.364999999999988 L 34.591000000000015,25.81899999999999 L 33.923000000000016,26.05299999999999 L 33.82400000000002,26.82099999999999 L 33.15600000000002,26.56499999999999 L 32.40800000000002,26.46699999999999 L 32.566000000000024,27.095999999999993 L 32.06400000000002,27.597999999999992 L 32.06400000000002,28.001999999999992 L 31.626000000000023,28.43999999999999 C 31.626000000000023,28.43999999999999 31.201000000000022,29.033999999999992 31.208000000000023,29.14399999999999 C 31.216000000000022,29.252999999999993 31.562000000000022,29.71399999999999 31.562000000000022,29.71399999999999 L 31.562000000000022,30.24499999999999 L 32.310000000000024,31.48399999999999 L 32.84100000000002,32.13299999999999 L 32.605000000000025,32.447999999999986 L 32.703000000000024,33.195999999999984 L 32.21100000000003,33.195999999999984 L 32.05400000000003,33.667999999999985 L 31.54200000000003,33.667999999999985 L 31.71900000000003,34.55399999999999 L 31.34500000000003,34.92799999999999 L 30.49800000000003,34.84999999999999 L 30.046000000000028,35.301999999999985 L 28.336000000000027,35.301999999999985 L 27.510000000000026,34.92799999999998 L 26.841000000000026,35.28199999999998 L 26.841000000000026,35.75499999999998 L 26.300000000000026,36.29599999999998 L 25.681000000000026,36.29599999999998 L 25.469000000000026,36.50799999999998 L 25.484000000000027,36.91599999999998 L 24.894000000000027,36.56199999999998 L 24.24,37.21 L 23.334999999999997,37.19 L 22.47,37.721 L 21.701999999999998,37.760999999999996 L 21.112,38.312 L 20.994,39.001 L 20.345,39.277 L 19.991,39.847 L 19.283,39.434000000000005 L 18.85,39.434000000000005 L 18.121000000000002,38.706 L 18.613000000000003,38.213 L 18.121000000000002,37.544000000000004 L 18.298000000000002,37.17 L 17.865000000000002,36.737 L 18.042,36.088 L 17.776000000000003,35.587 L 18.259000000000004,35.104000000000006 L 17.767000000000003,34.61300000000001 L 16.645000000000003,34.73100000000001 L 16.645000000000003,34.23900000000001 L 16.133000000000003,34.046000000000014 L 15.087000000000003,34.046000000000014 L 14.58,33.54" fill="#000000" opacity="0.83" stroke="#FFFFFF" stroke-width="0.5"/>
	<path d="M 67.596,36.037 L 67.596,37.119 L 67.081,37.119 L 66.61,37.589 L 65.566,38.268 L 65.566,38.999 L 65.20100000000001,39.365 L 65.48700000000001,39.888000000000005 L 64.85900000000001,40.775000000000006 L 64.676,41.58500000000001 L 65.11,42.016000000000005 L 64.703,42.682 L 64.574,43.465 L 64.951,43.844 L 65.43499999999999,43.844 L 65.43499999999999,44.406 L 66.088,44.406 L 66.50399999999999,44.824 L 67.26299999999999,44.614999999999995 L 67.88999999999999,45.52799999999999 L 68.41099999999999,45.52799999999999 L 68.85599999999998,45.76399999999999 L 69.37699999999998,45.39899999999999 L 69.82099999999998,45.84299999999999 L 70.39499999999998,45.52799999999999 L 71.17799999999998,45.94699999999999 L 70.99299999999998,46.83399999999999 L 71.80599999999998,46.83399999999999 L 72.09099999999998,47.61799999999999 L 72.71799999999998,47.82799999999999 L 73.25399999999998,48.36199999999999 L 73.18899999999998,48.89799999999999 L 73.76499999999997,48.89799999999999 L 74.04999999999997,49.47299999999999 L 73.61899999999997,49.904999999999994 L 73.18799999999997,49.75899999999999 L 72.48399999999998,50.22999999999999 L 72.48399999999998,50.95999999999999 L 71.92199999999998,51.52299999999999 L 71.30899999999998,50.83199999999999 L 70.49799999999998,51.11699999999998 L 70.73199999999997,51.822999999999986 L 70.02799999999998,52.03199999999999 L 69.50599999999997,51.87599999999999 L 69.07499999999997,52.30699999999999 L 68.77599999999997,52.841999999999985 L 68.37099999999997,52.43799999999998 L 67.67899999999997,52.47799999999998 L 67.46999999999997,51.98199999999998 L 67.05099999999997,52.345999999999975 L 67.28699999999998,53.156999999999975 L 66.89399999999998,53.54899999999998 L 66.65999999999998,53.91399999999998 L 65.66799999999998,54.06999999999998 L 65.05499999999998,54.68299999999998 L 64.64999999999998,53.991999999999976 L 64.64999999999998,53.59999999999997 L 64.32299999999998,53.272999999999975 L 63.60399999999998,53.272999999999975 L 63.500999999999976,52.71099999999998 L 63.500999999999976,52.189999999999976 L 62.872999999999976,51.796999999999976 L 62.872999999999976,51.327999999999975 L 62.46899999999997,50.92299999999997 L 62.220999999999975,50.38699999999997 L 61.644999999999975,50.38699999999997 L 61.25399999999998,50.83199999999997 L 61.67099999999998,51.24799999999997 L 62.10099999999998,51.68099999999997 L 61.644999999999975,52.34599999999997 L 61.33199999999997,52.65899999999997 L 60.54799999999997,52.08399999999997 L 60.91499999999997,51.718999999999966 L 60.44499999999997,51.09299999999997 L 60.44499999999997,50.41299999999997 L 60.96599999999997,49.86499999999997 L 60.363999999999976,49.68199999999997 L 59.867999999999974,49.654999999999966 L 60.174999999999976,48.837999999999965 L 60.504999999999974,48.36699999999997 L 60.504999999999974,47.77499999999997 L 61.04299999999997,47.23499999999997 L 61.04299999999997,46.452999999999975 L 60.45099999999997,46.189999999999976 L 60.45099999999997,45.720999999999975 L 59.98299999999997,44.79799999999997 L 59.54699999999997,43.94599999999998 L 60.12999999999997,43.552999999999976 L 59.87699999999997,43.30099999999997 L 59.77199999999997,42.534999999999975 L 59.51199999999997,41.924999999999976 L 59.51199999999997,41.33299999999998 C 59.51199999999997,41.33299999999998 60.54399999999997,40.50699999999998 60.55599999999997,40.479999999999976 C 60.56799999999997,40.452999999999975 60.29299999999997,40.04499999999997 60.29299999999997,40.04499999999997 L 60.44999999999997,39.13999999999997 L 60.938999999999965,38.19899999999997 L 61.118999999999964,37.34399999999997 L 62.026999999999965,36.918999999999976 L 62.73899999999997,36.918999999999976 L 62.76699999999997,36.03899999999997 L 62.29599999999997,35.57099999999997 L 61.82699999999997,35.38699999999997 L 61.48799999999997,34.16599999999997 L 60.75099999999997,33.76899999999997 L 61.152,33.0 L 62.032000000000004,33.227 L 62.685,33.369 L 63.764,33.682 L 64.203,34.121 L 64.955,33.88 L 65.069,34.618 L 65.664,35.073 L 66.572,35.073 L 66.801,35.867 L 67.596,36.037" fill="#000000" opacity="0.38" stroke="#FFFFFF" stroke-width="0.5"/>
	<path d="M 60.179,48.835 L 59.533,48.191 L 57.6,48.191 L 57.218,48.817 L 55.929,48.817 L 55.589,49.156 L 55.461,49.653999999999996 L 56.007999999999996,50.019 L 55.852,50.332 L 55.33,50.645 L 55.616,51.324000000000005 L 55.382,51.82000000000001 L 55.589999999999996,52.34100000000001 L 55.644,53.28200000000001 L 54.623999999999995,53.75100000000001 L 54.440999999999995,54.16900000000001 L 53.971999999999994,54.48200000000001 L 54.364,54.978000000000016 L 53.946999999999996,55.31800000000002 L 53.815999999999995,55.789000000000016 L 54.364,56.33600000000001 L 53.762,56.701000000000015 L 53.918,57.22300000000001 C 53.918,57.22300000000001 54.374,57.494000000000014 54.388999999999996,57.56200000000001 C 54.403,57.63200000000001 54.205999999999996,57.90300000000001 54.205999999999996,57.90300000000001 L 53.812,58.00700000000001 L 53.579,58.58100000000001 L 53.083,58.45000000000001 L 52.769,58.94700000000001 L 52.196,59.23400000000001 L 51.594,59.05100000000001 L 51.15,59.31200000000001 L 50.497,58.86700000000001 L 49.768,59.18100000000001 L 49.533,59.72800000000001 L 48.907000000000004,59.72800000000001 L 48.567,60.199000000000005 L 48.201,60.304 L 47.888,60.905 L 47.287,60.462 L 46.713,61.062000000000005 L 46.242000000000004,60.723000000000006 L 45.772000000000006,60.956 L 45.43300000000001,61.687000000000005 L 45.8,61.75 L 46.538,61.835 L 47.38999999999999,62.459 L 48.24099999999999,62.544000000000004 L 48.43999999999999,62.204 L 49.29199999999999,62.288000000000004 L 50.53899999999999,63.169000000000004 L 50.682999999999986,63.623000000000005 L 52.328999999999986,64.53 L 54.286999999999985,64.503 L 55.79199999999999,64.786 L 56.35799999999999,64.133 L 56.67199999999999,63.282999999999994 L 57.71999999999999,63.224999999999994 L 58.17399999999999,63.706999999999994 L 59.224999999999994,63.87799999999999 L 59.367999999999995,64.58699999999999 L 59.907,64.41699999999999 L 60.845,64.98299999999999 L 61.695,64.75599999999999 L 62.263,65.12599999999999 L 62.546,66.544 L 63.0,66.487 L 63.339,65.295 L 63.567,64.473 L 64.505,63.31 L 64.732,62.514 L 65.072,62.372 L 65.58500000000001,61.86 L 66.123,61.86 L 67.174,62.314 L 68.08200000000001,62.855 L 68.99000000000001,62.257999999999996 L 69.75600000000001,62.767999999999994 L 70.43700000000001,62.599999999999994 L 71.14600000000002,61.94599999999999 L 70.92100000000002,61.663999999999994 L 70.53000000000002,61.089999999999996 L 69.87700000000001,60.933 L 69.852,60.515 L 69.25,60.149 L 68.571,60.410000000000004 L 67.998,59.889 L 67.44800000000001,59.917 L 67.47300000000001,59.315000000000005 L 66.61200000000001,59.211000000000006 L 65.959,58.845000000000006 L 66.039,58.24400000000001 L 65.726,57.90500000000001 L 64.865,58.24400000000001 L 64.47099999999999,57.748000000000005 L 64.99,57.2 L 65.461,56.887 L 65.541,56.366 L 64.834,56.289 L 64.99000000000001,55.74 L 64.677,55.191 L 65.057,54.681000000000004 L 64.652,53.99 L 64.652,53.598 L 64.324,53.271 L 63.608,53.271 L 63.503,52.709 L 63.503,52.188 L 62.876,51.795 L 62.876,51.326 L 62.47,50.92 L 62.222,50.384 L 61.649,50.384 L 61.255,50.829 L 61.675000000000004,51.245 L 62.105000000000004,51.678 L 61.649,52.342999999999996 L 61.336,52.656 L 60.552,52.080999999999996 L 60.917,51.715999999999994 L 60.449,51.089999999999996 L 60.449,50.41 L 60.969,49.861999999999995 L 60.369,49.678999999999995 L 59.873,49.651999999999994 L 60.179,48.835" fill="#000000" opacity="0.68" stroke="#FFFFFF" stroke-width="0.5"/>
	<path d="M 45.292,42.185 L 44.579,41.837 L 44.561,41.349000000000004 L 43.986,41.157000000000004 L 43.394,40.809000000000005 L 43.48,40.321000000000005 L 43.836999999999996,39.806000000000004 L 44.053999999999995,39.098000000000006 L 43.208,38.645 L 43.620999999999995,37.917 L 43.403999999999996,37.445 L 43.522,36.855 L 43.385,36.224999999999994 L 43.07,35.910999999999994 L 42.5,36.285 L 41.575,36.166 L 41.575,35.616 L 41.073,35.114 L 40.414,34.986999999999995 L 40.276,34.495 L 40.777,33.992999999999995 L 40.472,33.157 L 40.65,32.665 L 40.355,32.193 L 40.61,31.799 L 40.079,31.563 L 40.079,31.169 L 39.337,30.791 L 38.998000000000005,30.452 L 38.417,30.452 L 37.974000000000004,30.009 L 37.541000000000004,30.757 L 36.853,31.525000000000002 L 36.617000000000004,31.290000000000003 L 36.027,31.388 L 36.027,31.880000000000003 L 35.201,32.549 L 34.217,32.785 L 33.981,32.077 L 32.84,32.135999999999996 L 32.604000000000006,32.45099999999999 L 32.703,33.19899999999999 L 32.211000000000006,33.19899999999999 L 32.05400000000001,33.67099999999999 L 31.54,33.67099999999999 L 31.717,34.55599999999999 L 31.342,34.92999999999999 L 30.496,34.85199999999999 L 30.043999999999997,35.30399999999999 L 28.333,35.30399999999999 L 27.506999999999998,34.929999999999986 L 26.837999999999997,35.283999999999985 L 26.837999999999997,35.755999999999986 L 26.296999999999997,36.29799999999999 L 25.677999999999997,36.29799999999999 L 25.465999999999998,36.508999999999986 L 25.480999999999998,36.917999999999985 L 24.891,36.563999999999986 L 24.241999999999997,37.21299999999999 L 23.336999999999996,37.19399999999999 L 22.471999999999998,37.72499999999999 L 21.703999999999997,37.76399999999999 L 21.113999999999997,38.31499999999999 L 20.996,39.00399999999999 L 20.346999999999998,39.27899999999999 L 19.993,39.84899999999999 L 20.232999999999997,40.15099999999999 L 19.944999999999997,40.51599999999999 L 20.310999999999996,40.85499999999999 L 20.727999999999998,40.59499999999999 L 21.432999999999996,40.64699999999999 L 21.511999999999997,41.090999999999994 L 21.929999999999996,41.324999999999996 L 22.399999999999995,41.56099999999999 L 22.869999999999994,41.376999999999995 L 23.418999999999993,42.083 L 23.940999999999992,41.978 L 23.967999999999993,42.397 L 24.48999999999999,42.5 L 24.93399999999999,42.788 L 24.88199999999999,43.467 L 25.01199999999999,43.859 L 24.51599999999999,44.355000000000004 L 24.75099999999999,44.982000000000006 L 24.48999999999999,45.425000000000004 L 24.72499999999999,45.896 L 24.22799999999999,46.496 L 23.65399999999999,46.496 L 23.10499999999999,46.888000000000005 L 23.52299999999999,47.33200000000001 L 23.338999999999988,47.854000000000006 L 23.704999999999988,48.325 L 24.043999999999986,48.585 L 23.913999999999987,49.056 L 23.887999999999987,49.683 L 24.226999999999986,50.257 L 25.663999999999987,50.309999999999995 L 26.133999999999986,50.544 L 26.864999999999988,50.178999999999995 L 27.152999999999988,49.68299999999999 L 27.648999999999987,49.68299999999999 L 28.040999999999986,50.099999999999994 L 29.449999999999985,49.94499999999999 L 29.763999999999985,49.55199999999999 L 30.389999999999986,49.55199999999999 L 30.807999999999986,50.07299999999999 L 31.250999999999987,50.099 L 31.903999999999986,49.706999999999994 L 32.582999999999984,50.020999999999994 L 33.05399999999998,49.940999999999995 L 33.88899999999998,50.151999999999994 L 34.646999999999984,50.464999999999996 L 35.012999999999984,50.046 L 35.69099999999998,49.681 L 35.53499999999998,48.870999999999995 L 36.082999999999984,48.477 L 36.89299999999999,49.157 L 37.33699999999999,49.105999999999995 L 37.57199999999999,49.67999999999999 L 37.91099999999999,50.175999999999995 L 38.197999999999986,49.888 L 38.22399999999999,49.341 L 38.79899999999999,48.765 L 39.660999999999994,48.897 L 40.339999999999996,48.870999999999995 L 40.809999999999995,48.949 L 41.044999999999995,48.531 L 41.437,48.714 L 41.933,48.375 L 41.907,47.827 L 41.096999999999994,47.433 L 41.123,46.834 L 41.515,46.468 L 41.593,46.050000000000004 L 41.906000000000006,45.867000000000004 L 42.324000000000005,45.971000000000004 L 42.663000000000004,45.658 L 43.264,45.658 L 43.473000000000006,45.215 L 44.074000000000005,45.24 L 44.022000000000006,44.613 L 44.43900000000001,44.274 L 45.065000000000005,44.222 L 44.856,43.369 L 45.239000000000004,42.987 L 45.292,42.185 M 35.455,40.199 L 34.949999999999996,40.253 L 34.602,40.497 L 34.846,40.705 L 34.897999999999996,41.245999999999995 L 34.532,41.57599999999999 L 34.114,41.297999999999995 L 33.574999999999996,41.227999999999994 L 33.312999999999995,41.489999999999995 L 32.82599999999999,41.611999999999995 L 32.547999999999995,42.01199999999999 L 32.16499999999999,42.02799999999999 L 31.799999999999994,42.20399999999999 L 31.695999999999994,42.48199999999999 L 31.225999999999996,42.58599999999999 L 30.876999999999995,42.20299999999999 L 31.050999999999995,41.64499999999999 L 30.563999999999997,41.40099999999999 L 30.702999999999996,41.08799999999999 L 30.301999999999996,40.826999999999984 L 29.988999999999997,40.37399999999998 L 30.232999999999997,40.00899999999998 L 29.833,39.52099999999998 L 30.564,39.15599999999998 L 30.842,39.312999999999974 L 31.328999999999997,39.34799999999997 L 31.206999999999997,38.89399999999997 L 31.519999999999996,38.70399999999997 L 31.955999999999996,38.78999999999997 L 32.443,38.52899999999997 L 32.704,38.18099999999997 L 33.279,38.19799999999997 L 33.418000000000006,38.44199999999997 L 33.74900000000001,38.54599999999997 L 33.85300000000001,38.70299999999997 L 34.23600000000001,38.615999999999964 L 34.13200000000001,38.99899999999997 L 34.637000000000015,39.12099999999997 L 34.863000000000014,39.48599999999997 L 35.19400000000002,39.48599999999997 L 35.50800000000002,39.88599999999997 L 35.455,40.199" fill="#000000" stroke="#FFFFFF" stroke-width="0.5"/>
	<path d="M 44.977,27.012 L 45.827999999999996,27.069 L 46.76499999999999,27.494 L 47.04899999999999,27.778 L 47.70099999999999,27.892 L 48.410999999999994,27.494 L 48.693999999999996,28.119 L 49.090999999999994,28.999 L 49.602,28.999 L 50.339,28.715 L 50.793,29.567 L 50.736,30.106 L 51.445,29.595000000000002 L 51.927,29.113000000000003 L 52.778999999999996,29.710000000000004 L 53.205999999999996,29.738000000000003 L 53.349,29.113000000000003 L 54.51199999999999,29.113000000000003 L 55.95799999999999,30.532000000000004 L 55.47599999999999,30.957000000000004 L 55.36399999999999,31.780000000000005 L 54.45599999999999,32.121 L 53.14999999999999,33.142 L 53.26199999999999,33.71 L 54.00099999999999,34.561 L 54.62399999999999,34.249 L 54.978999999999985,34.604 L 54.978999999999985,35.043 L 55.383999999999986,35.447 L 55.90199999999999,35.384 L 56.49899999999999,36.434 L 57.319999999999986,37.086999999999996 L 57.46299999999999,38.13699999999999 L 57.75799999999999,38.74199999999999 L 56.87999999999999,38.34899999999999 L 56.46799999999999,38.34899999999999 L 56.46799999999999,38.91899999999999 L 55.42699999999999,39.21499999999999 L 54.873999999999995,39.764999999999986 L 54.7,40.514 L 53.715,40.514 L 53.027,40.712 L 52.585,40.268 L 51.827,39.825 L 51.393,39.392 L 50.92,39.392 L 50.92,38.704 L 50.566,38.35 L 49.761,38.33 L 49.091,38.664 L 48.746,39.008 C 48.746,39.008 48.417,38.893 48.382000000000005,38.881 C 48.34700000000001,38.869 48.382000000000005,38.291 48.382000000000005,38.291 L 47.871,38.291 L 47.34,39.019999999999996 L 46.336000000000006,39.019999999999996 L 45.785000000000004,38.705 L 44.74700000000001,39.604 L 43.83700000000001,39.809 L 44.05400000000001,39.101 L 43.20800000000001,38.647999999999996 L 43.62100000000001,37.919999999999995 L 43.40400000000001,37.44799999999999 L 43.52200000000001,36.85799999999999 L 43.38500000000001,36.22799999999999 L 43.070000000000014,35.91399999999999 L 42.500000000000014,36.28799999999999 L 41.57500000000002,36.16899999999999 L 41.57500000000002,35.61899999999999 L 41.073000000000015,35.11699999999999 L 40.414000000000016,34.98999999999999 L 40.27600000000002,34.49799999999999 L 40.777000000000015,33.99599999999999 L 40.472000000000016,33.15999999999999 L 40.65000000000001,32.66799999999999 L 40.35500000000001,32.19599999999999 L 40.610000000000014,31.801999999999992 L 41.436000000000014,32.33399999999999 L 42.18400000000001,31.841999999999988 L 43.326000000000015,32.23599999999999 L 43.66000000000002,32.74699999999999 L 44.17200000000002,32.45199999999999 L 44.17200000000002,31.920999999999992 L 44.78200000000002,31.52799999999999 L 45.25400000000002,31.999999999999993 C 45.25400000000002,31.999999999999993 46.24700000000002,31.793999999999993 46.25700000000002,31.782999999999994 C 46.26700000000002,31.771999999999995 46.25700000000002,31.408999999999995 46.25700000000002,31.408999999999995 L 45.667000000000016,30.817999999999994 L 45.98200000000001,30.188999999999993 L 45.58900000000001,29.795999999999992 L 45.74600000000001,29.362999999999992 L 45.41100000000001,28.55699999999999 L 45.60800000000001,27.73099999999999 L 44.977,27.012" fill="#000000" opacity="0.32" stroke="#FFFFFF" stroke-width="0.5"/>
</svg>
