<?xml version="1.0" ?>
<svg xmlns="http://www.w3.org/2000/svg" xmlns:ev="http://www.w3.org/2001/xml-events" xmlns:xlink="http://www.w3.org/1999/xlink" baseProfile="full" enable-background="new 0 0 100 52.629" height="317px" version="1.1" viewBox="0 0 100 52.629" width="600px" x="0px" xml:space="preserve" y="0px">
	<defs/>
	<path d="M 99.536,43.84 C 98.911,43.248000000000005 97.928,43.248000000000005 97.297,43.84 L 91.77,49.479000000000006 L 76.906,49.479000000000006 L 76.906,42.708000000000006 L 89.53,42.708000000000006 C 90.734,42.708000000000006 91.926,42.604000000000006 93.065,42.39000000000001 C 94.217,42.16100000000001 95.17999999999999,41.57000000000001 95.949,40.574000000000005 C 96.613,39.79900000000001 96.952,38.71900000000001 96.952,37.266000000000005 C 96.952,36.264 96.652,35.02700000000001 96.112,33.48400000000001 L 91.333,22.091000000000008 C 89.81,18.58900000000001 87.798,16.140000000000008 85.312,14.773000000000009 C 82.844,13.37400000000001 80.234,12.710000000000008 77.487,12.710000000000008 L 58.358,12.710000000000008 L 58.358,3.639 L 63.956999999999994,3.639 C 64.28899999999999,4.199 64.693,4.55 65.12899999999999,4.7059999999999995 C 65.553,4.882 65.937,4.954 66.26899999999999,4.954 L 93.16899999999998,4.954 C 94.04199999999999,4.954 94.69199999999998,4.7059999999999995 95.12899999999998,4.218 C 95.56599999999997,3.7300000000000004 95.84499999999997,3.151 95.94899999999997,2.487 C 95.94899999999997,1.927 95.74099999999997,1.3800000000000001 95.30399999999997,0.8400000000000001 C 94.849,0.28 94.146,0.0 93.169,0.0 L 67.265,0.0 C 66.054,0.0 65.273,0.156 64.882,0.417 C 64.498,0.704 64.186,1.048 63.95700000000001,1.504 L 48.625,1.504 C 48.417,1.276 48.169,0.996 47.89,0.664 C 47.629,0.332 47.102000000000004,0.17600000000000005 46.334,0.17600000000000005 L 19.114000000000004,0.17600000000000005 C 18.678000000000004,0.17600000000000005 18.170000000000005,0.36400000000000005 17.539000000000005,0.755 C 16.946000000000005,1.1520000000000001 16.647000000000006,1.771 16.647000000000006,2.663 C 16.647000000000006,3.516 16.946000000000005,4.199 17.539000000000005,4.622 C 18.170000000000005,5.078 18.645000000000007,5.286 18.958000000000006,5.286 L 46.334,5.286 C 46.542,5.286 46.894000000000005,5.194999999999999 47.402,5.037999999999999 C 47.89,4.882 48.294000000000004,4.465 48.626,3.794999999999999 L 54.4,3.794999999999999 L 54.4,12.707999999999998 L 19.954,12.707999999999998 C 19.186,10.832999999999998 17.942,9.256999999999998 16.243000000000002,8.000999999999998 C 14.531000000000002,6.737999999999998 12.584000000000003,6.105999999999998 10.384000000000002,6.105999999999998 C 7.526000000000002,6.105999999999998 5.097000000000002,7.121999999999998 3.0470000000000024,9.152999999999999 C 1.003,11.185 0.0,13.632 0.0,16.503 C 0.0,19.355 1.003,21.77 3.047,23.749000000000002 C 5.098000000000001,25.748 7.526,26.724000000000004 10.384,26.724000000000004 C 13.672,26.724000000000004 16.262,25.519000000000005 18.118000000000002,23.085000000000004 L 40.553,31.502000000000002 L 43.515,38.904 C 43.951,39.79600000000001 44.531,40.635000000000005 45.246,41.482000000000006 C 45.962,42.30200000000001 47.486000000000004,42.706 49.797000000000004,42.706 L 59.771,42.706 L 59.771,49.477000000000004 L 43.515,49.477000000000004 C 42.636,49.477000000000004 41.92,50.18000000000001 41.92,51.05200000000001 C 41.92,51.92400000000001 42.636,52.62700000000001 43.515,52.62700000000001 L 92.518,52.62700000000001 C 93.012,52.62700000000001 93.416,52.36700000000001 93.676,51.99600000000001 L 99.535,46.08400000000001 C 100.154,45.468 100.154,44.472 99.536,43.84 M 81.281,17.33 C 82.7,17.747 83.944,18.45 84.979,19.374 C 86.027,20.317999999999998 86.991,21.77 87.882,23.749 C 88.09,24.413 88.37,25.136 88.702,25.904 C 89.021,26.653 89.353,27.48 89.685,28.372 L 81.28,28.372 L 81.28,17.33 L 81.281,17.33 M 8.49,19.146 C 9.297,19.687 10.157,20.129 11.049,20.442 L 14.356,21.77 C 13.132,22.649 11.797,23.085 10.385,23.085 C 8.51,23.085 6.914999999999999,22.453 5.587,21.197000000000003 C 4.272,19.934000000000005 3.6279999999999997,18.378000000000004 3.6279999999999997,16.503000000000004 C 3.6279999999999997,14.615000000000004 4.273,13.059000000000005 5.587,11.796000000000003 C 6.915,10.533000000000003 8.51,9.908000000000003 10.385,9.908000000000003 C 12.689,9.908000000000003 14.492999999999999,10.833000000000004 15.827,12.708000000000002 L 11.205,12.708000000000002 C 10.118,12.708000000000002 9.174,13.020000000000001 8.405000000000001,13.704000000000002 C 7.637000000000001,14.349000000000002 7.266000000000001,15.279000000000002 7.266000000000001,16.503000000000004 C 7.266,17.714 7.669,18.587 8.49,19.146 M 69.732,16.835 L 77.154,16.835 L 77.154,28.215000000000003 L 69.732,28.215000000000003 L 69.732,16.835 M 58.358,16.992 L 65.61699999999999,16.992 L 65.61699999999999,28.372 L 58.35799999999999,28.372 L 58.35799999999999,16.992 L 58.358,16.992 M 62.382,42.707 L 74.283,42.707 L 74.283,49.478 L 62.382,49.478 L 62.382,42.707"/>
</svg>
