<?xml version="1.0" ?>
<svg xmlns="http://www.w3.org/2000/svg" xmlns:ev="http://www.w3.org/2001/xml-events" xmlns:xlink="http://www.w3.org/1999/xlink" baseProfile="full" enable-background="new 0 0 86.432 100" height="600px" version="1.1" viewBox="0 0 86.432 100" width="519px" x="0px" xml:space="preserve" y="0px">
	<defs/>
	<path d="M 82.409,55.703 L 70.169,67.409 L 73.88,68.489 C 68.56099999999999,77.239 58.94499999999999,81.081 47.994,81.836 L 47.994,37.5 L 58.15,37.5 C 59.004,38.353 60.175,38.874 61.47,38.874 C 64.048,38.874 66.152,36.784000000000006 66.152,34.2 C 66.152,31.616 64.048,29.519000000000002 61.47,29.519000000000002 C 60.175,29.519000000000002 59.003,30.046000000000003 58.15,30.899 L 47.995,30.899 L 47.995,25.554000000000002 C 52.936,23.627000000000002 56.458999999999996,18.848000000000003 56.458999999999996,13.237000000000002 C 56.458,5.944 50.521,0.0 43.216,0.0 C 35.911,0.0 29.974,5.944 29.974,13.236 C 29.974,19.238 34.017,24.271 39.505,25.884999999999998 L 39.505,30.897999999999996 L 28.275000000000002,30.897999999999996 C 27.429000000000002,30.044999999999995 26.257,29.517999999999997 24.961000000000002,29.517999999999997 C 22.383000000000003,29.517999999999997 20.28,31.615 20.28,34.199 C 20.28,36.783 22.383000000000003,38.873 24.961000000000002,38.873 C 26.257,38.873 27.429000000000002,38.352 28.275000000000002,37.498999999999995 L 39.505,37.498999999999995 L 39.505,81.809 C 27.962000000000003,80.95 17.890000000000004,76.464 12.838000000000001,66.99199999999999 L 16.536,66.172 L 5.091,53.691 L 0.0,69.837 L 4.316,68.88000000000001 C 10.625,82.69500000000001 24.993,93.82100000000001 41.230000000000004,94.89600000000002 L 43.75,100.0 L 46.263,94.909 C 61.705,93.87400000000001 75.443,83.72300000000001 82.246,70.93700000000001 L 86.43199999999999,72.16100000000002 L 82.409,55.703 M 36.426,13.236 C 36.426,9.492 39.473,6.452000000000001 43.217,6.452000000000001 C 46.96,6.452000000000001 50.007,9.493 50.007,13.236 C 50.007,16.979 46.96,20.026 43.217,20.026 C 39.473,20.026 36.426,16.979 36.426,13.236"/>
</svg>
