<?xml version="1.0" ?>
<svg xmlns="http://www.w3.org/2000/svg" xmlns:ev="http://www.w3.org/2001/xml-events" xmlns:xlink="http://www.w3.org/1999/xlink" baseProfile="full" enable-background="new 0 0 841.89 1190.55" height="600px" version="1.1" viewBox="0 0 841.89 1190.55" width="594px" x="0px" xml:space="preserve" y="0px">
	<defs/>
	<path d="M 391.816,222.438 L 391.816,280.34299999999996 C 391.816,283.06999999999994 389.72299999999996,285.27899999999994 387.16299999999995,285.27899999999994 L 324.138,285.27899999999994 C 321.568,285.27899999999994 319.48699999999997,283.06999999999994 319.48699999999997,280.34299999999996 L 319.48699999999997,222.43799999999996 C 319.48699999999997,219.72199999999995 321.57,217.51299999999995 324.138,217.51299999999995 L 327.73999999999995,217.51299999999995 L 327.73999999999995,221.45499999999996 C 327.73999999999995,224.41399999999996 330.27199999999993,226.80899999999997 333.376,226.80899999999997 C 336.412,226.80899999999997 338.953,224.46299999999997 339.051,221.58199999999997 L 341.971,221.60199999999998 C 342.039,224.47299999999998 344.56,226.80999999999997 347.606,226.80999999999997 C 350.643,226.80999999999997 353.164,224.47399999999996 353.23199999999997,221.60199999999998 L 356.152,221.60199999999998 C 356.219,224.47299999999998 358.752,226.80999999999997 361.787,226.80999999999997 C 364.825,226.80999999999997 367.364,224.46399999999997 367.452,221.58299999999997 L 370.372,221.60299999999998 C 370.45,224.52299999999997 372.922,226.81099999999998 376.00800000000004,226.81099999999998 C 379.12300000000005,226.81099999999998 381.64400000000006,224.41599999999997 381.64400000000006,221.45699999999997 L 381.64400000000006,217.51499999999996 L 387.16300000000007,217.51499999999996 C 389.723,217.513 391.816,219.723 391.816,222.438 M 388.896,280.343 L 388.896,222.43800000000002 C 388.896,221.348 388.09700000000004,220.43300000000002 387.163,220.43300000000002 L 384.564,220.43300000000002 L 384.564,221.455 C 384.564,226.02 380.73,229.729 376.00800000000004,229.729 C 373.021,229.729 370.41100000000006,228.288 368.88300000000004,226.06900000000002 C 367.32500000000005,228.269 364.708,229.729 361.788,229.729 C 358.857,229.729 356.23900000000003,228.269 354.69100000000003,226.05900000000003 C 353.144,228.26800000000003 350.52500000000003,229.729 347.60600000000005,229.729 C 344.66600000000005,229.729 342.03800000000007,228.25900000000001 340.49100000000004,226.04000000000002 C 338.932,228.25900000000001 336.30400000000003,229.729 333.37500000000006,229.729 C 328.66400000000004,229.729 324.8190000000001,226.02 324.8190000000001,221.455 L 324.8190000000001,220.43300000000002 L 324.13700000000006,220.43300000000002 C 323.19300000000004,220.43300000000002 322.40600000000006,221.348 322.40600000000006,222.43800000000002 L 322.40600000000006,280.343 C 322.40600000000006,281.434 323.19500000000005,282.35900000000004 324.13700000000006,282.35900000000004 L 387.16200000000003,282.35900000000004 C 388.118,282.359 388.896,281.454 388.896,280.343" fill="#000000" stroke="#000000" stroke-miterlimit="10" stroke-width="3"/>
	<path d="M 384.302,239.433 L 384.302,273.073 C 384.302,276.08099999999996 382.02500000000003,278.524 379.23,278.524 L 332.937,278.524 C 330.124,278.524 327.838,276.081 327.838,273.073 L 327.838,239.433 C 327.838,236.445 330.125,234.012 332.937,234.012 L 379.231,234.012 C 382.025,234.012 384.302,236.445 384.302,239.433 M 381.382,273.073 L 381.382,239.433 C 381.382,238.06 380.418,236.932 379.23,236.932 L 332.937,236.932 C 331.75,236.932 330.75800000000004,238.07999999999998 330.75800000000004,239.433 L 330.75800000000004,273.073 C 330.75800000000004,274.47499999999997 331.73100000000005,275.60499999999996 332.937,275.60499999999996 L 379.231,275.60499999999996 C 380.418,275.604 381.382,274.475 381.382,273.073" fill="#000000"/>
	<path d="M 370.875,241.861 C 373.49,243.855 374.834,246.86399999999998 374.656,250.33499999999998 C 374.25100000000003,256.18199999999996 366.257,263.61199999999997 358.791,270.12899999999996 C 357.898,270.90999999999997 356.347,272.24499999999995 355.811,272.73499999999996 C 355.18899999999996,272.17099999999994 353.38399999999996,270.56199999999995 352.265,269.61099999999993 C 344.77,263.26399999999995 336.74899999999997,256.0319999999999 336.354,250.36199999999994 C 336.174,246.86299999999994 337.52,243.85399999999993 340.13399999999996,241.86099999999993 C 342.91599999999994,239.72699999999995 346.876,239.07699999999994 350.21399999999994,240.17799999999994 C 352.46299999999997,240.92999999999995 354.31499999999994,242.32299999999995 355.49899999999997,244.05299999999994 C 356.695,242.32299999999995 358.546,240.92999999999995 360.79299999999995,240.17799999999994 C 364.123,239.077 368.082,239.735 370.875,241.861 M 371.845,250.165 C 372.004,246.958 370.48,245.096 369.16400000000004,244.099 C 367.09600000000006,242.529 364.16100000000006,242.04899999999998 361.677,242.867 C 359.13,243.70399999999998 355.499,248.35 355.499,248.35 C 355.499,248.35 351.879,243.704 349.321,242.867 C 346.848,242.04899999999998 343.90400000000005,242.529 341.836,244.099 C 340.527,245.096 339.005,246.958 339.165,250.202 C 339.51300000000003,255.12199999999999 349.35900000000004,263.453 354.089,267.468 C 354.738,268.01300000000003 355.33,268.511 355.849,268.96200000000005 C 356.178,268.66100000000006 356.545,268.35200000000003 356.93899999999996,268.01300000000003 C 361.66,263.886 371.485,255.308 371.845,250.165" fill="#000000"/>
	<path d="M 347.661,223.877 C 349.274,223.877 350.581,222.56900000000002 350.581,220.95700000000002 L 350.581,215.11700000000002 C 350.581,213.50500000000002 349.274,212.19700000000003 347.661,212.19700000000003 C 346.048,212.19700000000003 344.741,213.50500000000002 344.741,215.11700000000002 L 344.741,220.95700000000002 C 344.74,222.569 346.048,223.877 347.661,223.877" fill="#000000"/>
	<path d="M 333.384,223.877 C 334.997,223.877 336.30400000000003,222.56900000000002 336.30400000000003,220.95700000000002 L 336.30400000000003,215.11700000000002 C 336.30400000000003,213.50500000000002 334.99600000000004,212.19700000000003 333.384,212.19700000000003 C 331.772,212.19700000000003 330.464,213.50500000000002 330.464,215.11700000000002 L 330.464,220.95700000000002 C 330.464,222.569 331.771,223.877 333.384,223.877" fill="#000000"/>
	<path d="M 361.937,223.877 C 363.55,223.877 364.857,222.56900000000002 364.857,220.95700000000002 L 364.857,215.11700000000002 C 364.857,213.50500000000002 363.54900000000004,212.19700000000003 361.937,212.19700000000003 C 360.324,212.19700000000003 359.017,213.50500000000002 359.017,215.11700000000002 L 359.017,220.95700000000002 C 359.017,222.569 360.323,223.877 361.937,223.877" fill="#000000"/>
	<path d="M 376.212,223.877 C 377.825,223.877 379.132,222.56900000000002 379.132,220.95700000000002 L 379.132,215.11700000000002 C 379.132,213.50500000000002 377.825,212.19700000000003 376.212,212.19700000000003 C 374.59999999999997,212.19700000000003 373.292,213.50500000000002 373.292,215.11700000000002 L 373.292,220.95700000000002 C 373.292,222.569 374.6,223.877 376.212,223.877" fill="#000000"/>
</svg>
