<?xml version="1.0" ?>
<svg xmlns="http://www.w3.org/2000/svg" xmlns:ev="http://www.w3.org/2001/xml-events" xmlns:xlink="http://www.w3.org/1999/xlink" baseProfile="full" enable-background="new 0 0 100 92.519" height="556px" version="1.1" viewBox="0 0 100 92.519" width="600px" x="0px" xml:space="preserve" y="0px">
	<defs/>
	<path d="M 92.083,18.561 L 76.504,18.561 L 56.38,0.0 L 13.502,0.0 L 13.502,18.561 L 7.917,18.561 C 3.542,18.561 0.0,27.63 0.0,38.88 C 0.0,50.116 3.542,59.19800000000001 7.917,59.19800000000001 L 13.503,59.19800000000001 L 13.503,92.518 L 86.498,92.518 L 86.498,59.198 L 92.084,59.198 C 96.473,59.198 100.001,50.116 100.001,38.879999999999995 C 100.0,27.63 96.472,18.561 92.083,18.561 M 70.0,18.561 L 57.005,18.561 L 57.005,6.556 L 70.0,18.561 M 17.93,4.408 L 52.591,4.408 L 52.591,18.561 L 17.93,18.561 L 17.93,4.408 M 82.07,88.105 L 17.93,88.105 L 17.93,59.199 L 82.07,59.199 L 82.07,88.105"/>
</svg>
