<?xml version="1.0" ?>
<svg xmlns="http://www.w3.org/2000/svg" xmlns:ev="http://www.w3.org/2001/xml-events" xmlns:xlink="http://www.w3.org/1999/xlink" baseProfile="full" enable-background="new 0 0 100 99.922" height="600px" version="1.1" viewBox="0 0 100 99.922" width="600px" x="0px" xml:space="preserve" y="0px">
	<defs/>
	<path d="M 74.531,40.234 L 65.781,48.392 L 34.219,48.392 L 25.475,40.234 C 25.475,40.234 29.830000000000002,34.134 37.012,33.353 C 44.043,32.572 46.485,36.869 50.007,37.044000000000004 C 53.516,36.868 55.964999999999996,32.571000000000005 62.989,33.353 C 70.183,34.134 74.531,40.234 74.531,40.234"/>
	<path d="M 68.138,53.64 L 31.869,53.64 C 31.869,53.64 14.434000000000001,67.344 20.157,92.618 C 20.157,92.618 22.065,99.923 30.826999999999998,99.923 L 69.187,99.923 C 77.937,99.923 79.844,92.618 79.844,92.618 C 85.566,67.344 68.138,53.64 68.138,53.64 M 64.694,61.36 C 64.694,61.36 60.449000000000005,73.932 56.491,69.993 C 52.571,66.048 63.398,61.66 64.694,61.36 M 54.59,58.938 C 54.59,58.938 51.745000000000005,61.191 53.704,66.367 C 55.898,72.18 51.765,73.542 50.098,71.882 C 46.387,68.157 53.223,59.395 54.59,58.938 M 49.225,64.29 C 49.225,64.29 46.387,66.55600000000001 48.34,71.71900000000001 C 50.553000000000004,77.546 46.400000000000006,78.9 44.746,77.23400000000001 C 41.009,73.522 47.884,64.739 49.225,64.29 M 40.599,87.864 L 35.416,92.239 C 34.373999999999995,93.29400000000001 33.105,91.165 33.599999999999994,90.65100000000001 L 38.00099999999999,85.27300000000001 C 38.44299999999999,84.81700000000001 38.63899999999999,85.80700000000002 39.35499999999999,86.53000000000002 C 40.072,87.239 41.048,87.422 40.599,87.864 M 39.225,82.754 C 35.495000000000005,79.043 42.35,70.26700000000001 43.717,69.81700000000001 C 43.717,69.81700000000001 40.872,72.063 42.832,77.239 C 45.026,83.06 40.873,84.427 39.225,82.754 M 43.223,86.758 C 41.55,85.091 42.911,80.945 48.731,83.13199999999999 C 53.894000000000005,85.09799999999998 56.153,82.26599999999999 56.153,82.26599999999999 C 55.703,83.613 46.94,90.469 43.223,86.758 M 48.73,81.237 C 47.056999999999995,79.577 48.431,75.417 54.245,77.61 C 59.421,79.577 61.68,76.751 61.68,76.751 C 61.23,78.086 52.448,84.961 48.73,81.237 M 54.089,75.872 C 52.435,74.212 53.777,70.071 59.603,72.259 C 64.773,74.238 67.025,71.394 67.025,71.394 C 66.575,72.741 57.806,79.597 54.089,75.872"/>
	<path d="M 95.84,33.255 L 50.0,10.469 L 4.16,33.255 L 0.0,24.883 L 49.935,0.059 L 49.955,0.0 L 50.0,0.026 L 50.045,0.0 L 50.065,0.059 L 100.0,24.883 L 95.84,33.255" points="95.84,33.255 50,10.469 4.16,33.255 0,24.883 49.935,0.059 49.955,0 50,0.026 50.045,0 50.065,0.059 100,24.883 "/>
</svg>
