<?xml version="1.0" ?>
<svg xmlns="http://www.w3.org/2000/svg" xmlns:ev="http://www.w3.org/2001/xml-events" xmlns:xlink="http://www.w3.org/1999/xlink" baseProfile="full" height="600px" version="1.1" viewBox="0 0 100 100" width="600px" x="0px" xml:space="preserve" y="0px">
	<defs/>
	<path d="M 7.0,8.0 L -8.0,8.0 L -8.0,4.0 L -8.0,-8.0 L 8.0,-8.0 L 8.0,8.0 L 7.0,8.0 M -2.0,6.0 L -1.0,6.0 L -1.0,5.0 L -2.0,5.0 L -2.0,6.0 M -4.0,6.0 L -3.0,6.0 L -3.0,5.0 L -4.0,5.0 L -4.0,6.0 M -6.0,6.0 L -5.0,6.0 L -5.0,5.0 L -6.0,5.0 L -6.0,6.0 M 6.0,-6.0 L -6.0,-6.0 L -6.0,4.0 L 6.0,4.0 L 6.0,-6.0" fill="#000000"/>
	<path d="M 5.0,1.0 L -2.0,1.0 L -2.0,3.0 L 5.0,3.0 L 5.0,1.0" fill="#000000" points="5,1 -2,1 -2,3 5,3  "/>
	<path d="M 5.0,-5.0 L -2.0,-5.0 L -2.0,0.0 L 5.0,0.0 L 5.0,-5.0" fill="#000000" points="5,-5 -2,-5 -2,0 5,0  "/>
	<path d="M -3.0,-5.0 L -5.0,-5.0 L -5.0,3.0 L -3.0,3.0 L -3.0,-5.0" fill="#000000" points="-3,-5 -5,-5 -5,3 -3,3  "/>
</svg>
