<?xml version="1.0" ?>
<svg xmlns="http://www.w3.org/2000/svg" xmlns:ev="http://www.w3.org/2001/xml-events" xmlns:xlink="http://www.w3.org/1999/xlink" baseProfile="full" enable-background="new 0 0 100 100" height="600px" version="1.1" viewBox="0 0 100 100" width="600px" x="0px" xml:space="preserve" y="0px">
	<defs/>
	<path d="M 50.857,78.341 L 52.094,21.416999999999994 C 52.094,20.008999999999993 51.025,19.363999999999994 50.032000000000004,19.363999999999994 C 49.039,19.363999999999994 47.970000000000006,20.008999999999993 47.970000000000006,21.425999999999995 L 49.20700000000001,77.095 L 49.20700000000001,78.342 C 49.20700000000001,79.48 49.632000000000005,80.095 50.03200000000001,80.095 C 50.432,80.094 50.857,79.48 50.857,78.341" fill="none"/>
	<path d="M 63.193,36.565 L 63.193,9.944 L 36.57299999999999,9.944 L 36.57299999999999,36.564 L 9.951,36.564 L 9.951,63.184 L 36.573,63.184 L 36.573,89.806 L 63.193,89.806 L 63.193,63.185 L 89.815,63.185 L 89.815,36.565 L 63.193,36.565 M 48.557,63.418 L 48.386,55.711999999999996 C 48.894000000000005,54.428 49.894000000000005,53.653999999999996 51.049,52.891999999999996 L 50.879,60.738 C 50.602999999999994,61.527 50.159,62.217 49.44,62.798 C 49.126,62.995 48.835,63.203 48.557,63.418 M 53.511,50.057 C 52.787000000000006,50.781 51.934000000000005,51.332 51.11,51.866 C 49.345,53.008 47.525,54.187 47.242,56.992 C 45.643,55.593999999999994 45.553999999999995,53.309 45.553999999999995,52.824 C 45.553999999999995,51.515 46.971999999999994,50.483 48.47299999999999,49.388999999999996 C 50.39099999999999,47.992 52.56499999999999,46.409 52.56499999999999,43.74999999999999 L 52.56499999999999,39.712999999999994 C 54.28699999999999,41.349 55.276999999999994,43.288999999999994 55.37599999999999,45.251999999999995 C 55.466,47.058 54.803,48.765 53.511,50.057 M 51.205,45.684 C 50.553999999999995,46.806 49.396,47.693 48.227,48.547999999999995 L 47.817,30.132999999999996 C 48.043,30.059999999999995 48.273,29.988999999999997 48.503,29.919999999999995 C 49.753,29.544999999999995 51.138,29.128999999999994 51.588,28.043999999999993 L 51.205,45.684 M 48.267,29.129 C 46.941,29.526 45.571000000000005,29.936 45.1,31.073 C 44.779,31.848 44.943000000000005,32.821 45.613,34.063 L 46.792,36.027 L 46.792,40.373000000000005 C 43.407000000000004,37.21600000000001 41.912,32.133 43.457,28.657000000000004 L 43.475,28.608000000000004 C 44.094,26.544000000000004 46.369,25.465000000000003 48.296,25.465000000000003 C 49.505,25.465000000000003 50.916,25.933000000000003 50.916,27.252000000000002 C 50.915,28.263 49.915,28.636 48.267,29.129 M 47.621,71.868 C 46.7,70.567 46.325,69.265 46.505,67.985 C 46.742000000000004,66.30199999999999 47.946000000000005,64.703 49.897000000000006,63.484 L 49.93600000000001,63.457 C 51.89800000000001,61.887 52.123000000000005,59.688 52.150000000000006,57.135 C 53.441,58.666 53.599000000000004,60.271 53.477000000000004,61.414 C 53.258,63.458 51.951,65.544 50.319,66.47800000000001 C 47.946,67.664 47.657,69.233 47.621,71.868 M 52.325,76.213 C 52.098000000000006,77.06899999999999 51.514,77.93299999999999 50.744,78.259 C 51.291,76.777 51.646,75.341 51.724,73.44 C 52.487,74.225 52.558,75.335 52.325,76.213 M 49.678,19.005 C 50.671,19.005 51.739999999999995,19.65 51.739999999999995,21.058 L 51.620999999999995,26.509 C 51.248,25.368000000000002 50.007,24.642 48.294999999999995,24.642 C 48.09799999999999,24.642 47.897999999999996,24.656 47.696,24.676 L 47.616,21.067999999999998 C 47.616,19.65 48.685,19.005 49.678,19.005 M 49.678,79.735 C 49.278,79.735 48.852999999999994,79.121 48.852999999999994,77.982 L 48.852999999999994,76.735 L 48.690999999999995,69.424 C 48.961,68.45800000000001 49.523999999999994,67.79700000000001 50.708,67.20400000000001 C 50.717999999999996,67.19800000000001 50.728,67.191 50.738,67.185 L 50.545,76.08500000000001 C 50.341,76.95400000000001 50.221000000000004,77.24400000000001 49.869,78.12500000000001 C 49.869,78.12500000000001 49.648,78.91500000000002 49.806,79.08900000000001 C 49.964,79.26300000000002 50.092,79.21800000000002 50.092,79.21800000000002 C 50.156,79.21800000000002 50.217999999999996,79.20300000000002 50.281,79.19800000000002 C 50.12,79.55 49.896,79.735 49.678,79.735"/>
	<path d="M 49.619,27.612 C 52.506,26.375 46.732,26.375 49.619,27.612"/>
</svg>
