<?xml version="1.0" ?>
<svg xmlns="http://www.w3.org/2000/svg" xmlns:ev="http://www.w3.org/2001/xml-events" xmlns:xlink="http://www.w3.org/1999/xlink" baseProfile="full" enable-background="new 0 0 100 100" height="600px" version="1.1" viewBox="0 0 100 100" width="600px" x="0px" xml:space="preserve" y="0px">
	<defs/>
	<path d="M 87.494,0.0 L 0.0,0.0 L 0.0,100.0 L 100.0,100.0 L 100.0,12.506 L 87.494,0.0 M 50.024,81.476 C 43.001000000000005,81.476 37.31,75.782 37.31,68.759 C 37.31,61.735 43.0,56.043 50.024,56.043 C 57.049,56.043 62.74,61.734 62.74,68.759 C 62.74,75.781 57.05,81.476 50.024,81.476 M 68.734,17.509 L 68.734,30.015 L 50.023999999999994,30.015 L 50.0,30.015 L 31.265,30.015 L 31.265,17.509 L 31.265,5.002 L 50.0,5.002 L 50.024,5.002 L 68.73400000000001,5.002 L 68.73400000000001,17.509 L 68.734,17.509" fill="#010101"/>
	<path d="M 50.024,9.9 L 60.029,9.9 L 60.029,24.907 L 50.024,24.907 L 50.024,9.9" fill="#010101" height="15.007" width="10.005" x="50.024" y="9.9"/>
</svg>
