<?xml version="1.0" ?>
<svg xmlns="http://www.w3.org/2000/svg" xmlns:ev="http://www.w3.org/2001/xml-events" xmlns:xlink="http://www.w3.org/1999/xlink" baseProfile="full" enable-background="new 0 0 100 54.844" height="330px" version="1.1" viewBox="0 0 100 54.844" width="600px" x="0px" xml:space="preserve" y="0px">
	<defs/>
	<path d="M 0.0,0.0 L 0.0,29.62 L 40.046,29.62 L 40.046,0.0 L 0.0,0.0 M 33.136,3.964 L 33.596000000000004,5.385 L 35.092000000000006,5.385 L 33.882000000000005,6.263 L 34.34400000000001,7.686 L 33.13600000000001,6.807 L 31.92600000000001,7.686 L 32.38800000000001,6.263 L 31.179000000000013,5.385 L 32.674000000000014,5.385 L 33.136,3.964 M 34.344,13.468 L 33.136,12.589 L 31.926000000000002,13.468 L 32.388000000000005,12.047 L 31.179000000000006,11.168000000000001 L 32.67400000000001,11.168000000000001 L 33.13600000000001,9.746 L 33.59600000000001,11.168000000000001 L 35.09200000000001,11.168000000000001 L 33.88200000000001,12.047 L 34.344,13.468 M 34.344,19.215 L 33.136,18.336 L 31.926000000000002,19.215 L 32.388000000000005,17.793 L 31.179000000000006,16.916 L 32.67400000000001,16.916 L 33.13600000000001,15.493 L 33.59600000000001,16.916 L 35.09200000000001,16.916 L 33.88200000000001,17.793 L 34.344,19.215 M 31.1,22.001 L 29.891000000000002,21.123 L 28.682000000000002,22.001 L 29.143,20.580000000000002 L 27.935000000000002,19.701 L 29.429000000000002,19.701 L 29.891000000000002,18.279 L 30.353,19.701 L 31.848000000000003,19.701 L 30.639000000000003,20.580000000000002 L 31.1,22.001 M 27.715,19.215 L 26.506,18.336 L 25.297,19.215 L 25.759,17.793 L 24.549,16.916 L 26.044,16.916 L 26.506,15.493 L 26.968,16.916 L 28.463,16.916 L 27.254,17.793 L 27.715,19.215 M 24.401,22.001 L 23.192,21.123 L 21.982,22.001 L 22.444,20.580000000000002 L 21.235,19.701 L 22.73,19.701 L 23.192,18.279 L 23.653,19.701 L 25.148,19.701 L 23.939,20.580000000000002 L 24.401,22.001 M 20.98,19.215 L 19.771,18.336 L 18.562,19.215 L 19.024,17.793 L 17.814,16.916 L 19.309,16.916 L 19.771,15.493 L 20.233,16.916 L 21.729,16.916 L 20.519,17.793 L 20.98,19.215 M 17.702,22.001 L 16.492,21.123 L 15.283000000000001,22.001 L 15.745000000000001,20.580000000000002 L 14.535,19.701 L 16.031,19.701 L 16.491999999999997,18.279 L 16.953999999999997,19.701 L 18.448999999999998,19.701 L 17.24,20.580000000000002 L 17.702,22.001 M 14.388,19.215 L 13.178,18.336 L 11.968,19.215 L 12.43,17.793 L 11.221,16.916 L 12.717,16.916 L 13.178,15.493 L 13.64,16.916 L 15.135000000000002,16.916 L 13.926000000000002,17.793 L 14.388,19.215 M 11.001,22.001 L 9.792,21.123 L 8.583,22.001 L 9.044,20.580000000000002 L 7.835000000000001,19.701 L 9.33,19.701 L 9.792,18.279 L 10.254,19.701 L 11.748999999999999,19.701 L 10.54,20.58 L 11.001,22.001 M 7.688,19.215 L 6.478999999999999,18.336 L 5.268999999999999,19.215 L 5.730999999999999,17.793 L 4.520999999999999,16.916 L 6.0169999999999995,16.916 L 6.478999999999999,15.493 L 6.940999999999999,16.916 L 8.436,16.916 L 7.226,17.793 L 7.688,19.215 M 4.52,11.167 L 6.016,11.167 L 6.478,9.745 L 6.9399999999999995,11.167 L 8.434999999999999,11.167 L 7.224999999999999,12.046 L 7.6869999999999985,13.466999999999999 L 6.477999999999998,12.588 L 5.267999999999998,13.466999999999999 L 5.729999999999998,12.046 L 4.52,11.167 M 31.1,10.546 L 29.891000000000002,9.668 L 28.682000000000002,10.546 L 29.143,9.123999999999999 L 27.935000000000002,8.245 L 29.429000000000002,8.245 L 29.891000000000002,6.824999999999999 L 30.353,8.245 L 31.848000000000003,8.245 L 30.639000000000003,9.123999999999999 L 31.1,10.546 M 31.1,16.234 L 29.891000000000002,15.355000000000002 L 28.682000000000002,16.234 L 29.143,14.811000000000002 L 27.935000000000002,13.933000000000002 L 29.429000000000002,13.933000000000002 L 29.891000000000002,12.512000000000002 L 30.353,13.933000000000002 L 31.848000000000003,13.933000000000002 L 30.639000000000003,14.811000000000002 L 31.1,16.234 M 28.463,11.167 L 27.254,12.046 L 27.715,13.466999999999999 L 26.506,12.588 L 25.297,13.466999999999999 L 25.759,12.046 L 24.549,11.167 L 26.044,11.167 L 26.506,9.745 L 26.968,11.167 L 28.463,11.167 M 24.401,16.234 L 23.192,15.355000000000002 L 21.982,16.234 L 22.444,14.811000000000002 L 21.235,13.933000000000002 L 22.73,13.933000000000002 L 23.192,12.512000000000002 L 23.653,13.933000000000002 L 25.148,13.933000000000002 L 23.939,14.811000000000002 L 24.401,16.234 M 23.938,9.124 L 24.4,10.546000000000001 L 23.191,9.668000000000001 L 21.980999999999998,10.546000000000001 L 22.442999999999998,9.124 L 21.233999999999998,8.245000000000001 L 22.729,8.245000000000001 L 23.191,6.825000000000001 L 23.651999999999997,8.245000000000001 L 25.147,8.245000000000001 L 23.938,9.124 M 21.729,11.167 L 20.519,12.046 L 20.979999999999997,13.466999999999999 L 19.770999999999997,12.588 L 18.561999999999998,13.466999999999999 L 19.023999999999997,12.046 L 17.813999999999997,11.167 L 19.308999999999997,11.167 L 19.770999999999997,9.745 L 20.232999999999997,11.167 L 21.729,11.167 M 17.702,16.234 L 16.492,15.355000000000002 L 15.283000000000001,16.234 L 15.745000000000001,14.811000000000002 L 14.535,13.933000000000002 L 16.031,13.933000000000002 L 16.491999999999997,12.512000000000002 L 16.953999999999997,13.933000000000002 L 18.448999999999998,13.933000000000002 L 17.24,14.811000000000002 L 17.702,16.234 M 17.239,9.124 L 17.701,10.546000000000001 L 16.491,9.668000000000001 L 15.282,10.546000000000001 L 15.744,9.124 L 14.533999999999999,8.245000000000001 L 16.029999999999998,8.245000000000001 L 16.490999999999996,6.825000000000001 L 16.952999999999996,8.245000000000001 L 18.447999999999997,8.245000000000001 L 17.239,9.124 M 15.134,11.167 L 13.925,12.046 L 14.387,13.466999999999999 L 13.177,12.588 L 11.966999999999999,13.466999999999999 L 12.428999999999998,12.046 L 11.219999999999999,11.167 L 12.716,11.167 L 13.177,9.745 L 13.639,11.167 L 15.134,11.167 M 11.001,16.234 L 9.792,15.355000000000002 L 8.583,16.234 L 9.044,14.811000000000002 L 7.835000000000001,13.933000000000002 L 9.33,13.933000000000002 L 9.792,12.512000000000002 L 10.254,13.933000000000002 L 11.748999999999999,13.933000000000002 L 10.54,14.811000000000002 L 11.001,16.234 M 10.54,9.296 L 11.001,10.716999999999999 L 9.792,9.839 L 8.583,10.718 L 9.044,9.297 L 7.835,8.417 L 9.33,8.417 L 9.792,6.995 L 10.254,8.417 L 11.748999999999999,8.417 L 10.54,9.296 M 29.429,2.458 L 29.891,1.0360000000000003 L 30.352999999999998,2.458 L 31.848,2.458 L 30.639,3.3360000000000003 L 31.1,4.758 L 29.891,3.88 L 28.682,4.758 L 29.142999999999997,3.3369999999999997 L 27.935,2.4589999999999996 L 29.429,2.4589999999999996 L 29.429,2.458 M 26.506,3.964 L 26.968,5.385 L 28.463,5.385 L 27.254,6.263 L 27.715,7.686 L 26.506,6.807 L 25.297,7.686 L 25.759,6.263 L 24.549,5.385 L 26.044,5.385 L 26.506,3.964 M 22.729,2.458 L 23.191,1.0360000000000003 L 23.651999999999997,2.458 L 25.147,2.458 L 23.938,3.3360000000000003 L 24.4,4.757000000000001 L 23.192,3.88 L 21.982,4.758 L 22.444,3.3369999999999997 L 21.235,2.4589999999999996 L 22.729,2.4589999999999996 L 22.729,2.458 M 19.771,3.964 L 20.233,5.385 L 21.729,5.385 L 20.519,6.263 L 20.979999999999997,7.686 L 19.770999999999997,6.807 L 18.561999999999998,7.686 L 19.023999999999997,6.263 L 17.813999999999997,5.385 L 19.308999999999997,5.385 L 19.771,3.964 M 16.03,2.458 L 16.491,1.0360000000000003 L 16.953,2.458 L 18.448,2.458 L 17.239,3.3360000000000003 L 17.701,4.757000000000001 L 16.491,3.8790000000000004 L 15.282,4.757000000000001 L 15.744,3.3360000000000003 L 14.533999999999999,2.458 L 16.03,2.458 M 13.177,3.964 L 13.639,5.385 L 15.134,5.385 L 13.925,6.263 L 14.387,7.686 L 13.177,6.807 L 11.966999999999999,7.686 L 12.428999999999998,6.263 L 11.22,5.385 L 12.716000000000001,5.385 L 13.177,3.964 M 9.33,2.458 L 9.792,1.0360000000000003 L 10.254,2.458 L 11.748999999999999,2.458 L 10.54,3.337 L 11.001,4.758 L 9.792,3.88 L 8.583,4.758 L 9.044,3.3369999999999997 L 7.835,2.458 L 9.33,2.458 M 6.478,3.964 L 6.94,5.385 L 8.435,5.385 L 7.2250000000000005,6.263 L 7.687,7.686 L 6.478,6.807 L 5.268,7.686 L 5.73,6.263 L 4.52,5.385 L 6.016,5.385 L 6.478,3.964 M 2.736,2.458 L 3.197,1.0360000000000003 L 3.66,2.458 L 5.156000000000001,2.458 L 3.9460000000000006,3.3360000000000003 L 4.408,4.757000000000001 L 3.198,3.88 L 1.989,4.758 L 2.451,3.3369999999999997 L 1.242,2.458 L 2.736,2.458 M 2.736,8.245 L 3.197,6.824999999999999 L 3.6590000000000003,8.245 L 5.155,8.245 L 3.9450000000000003,9.123999999999999 L 4.407,10.546 L 3.197,9.668 L 1.988,10.546 L 2.45,9.123999999999999 L 1.242,8.245 L 2.736,8.245 M 2.736,13.934 L 3.197,12.513 L 3.6590000000000003,13.934 L 5.155,13.934 L 3.9450000000000003,14.812 L 4.407,16.235 L 3.197,15.356 L 1.988,16.235 L 2.45,14.812 L 1.241,13.934 L 2.736,13.934 M 2.736,19.701 L 3.197,18.279 L 3.6590000000000003,19.701 L 5.155,19.701 L 3.9450000000000003,20.580000000000002 L 4.407,22.001 L 3.197,21.123 L 1.988,22.001 L 2.45,20.580000000000002 L 1.241,19.701 L 2.736,19.701 M 4.408,27.785 L 3.1980000000000004,26.906 L 1.9890000000000003,27.785 L 2.4510000000000005,26.362000000000002 L 1.2420000000000004,25.484 L 2.7370000000000005,25.484 L 3.1980000000000004,24.063000000000002 L 3.6600000000000006,25.484 L 5.156000000000001,25.484 L 3.9460000000000006,26.362000000000002 L 4.408,27.785 M 6.478,23.974 L 5.268,24.853 L 5.73,23.43 L 4.5200000000000005,22.552 L 6.016,22.552 L 6.478,21.131 L 6.9399999999999995,22.552 L 8.434999999999999,22.552 L 7.224999999999999,23.43 L 7.6869999999999985,24.853 L 6.478,23.974 M 11.001,27.785 L 9.792,26.906 L 8.583,27.785 L 9.044,26.362000000000002 L 7.835000000000001,25.484 L 9.33,25.484 L 9.792,24.063000000000002 L 10.254,25.484 L 11.748999999999999,25.484 L 10.54,26.362000000000002 L 11.001,27.785 M 13.177,23.974 L 11.966999999999999,24.853 L 12.428999999999998,23.43 L 11.219999999999999,22.552 L 12.716,22.552 L 13.177,21.131 L 13.639,22.552 L 15.134,22.552 L 13.925,23.43 L 14.387,24.853 L 13.177,23.974 M 17.702,27.785 L 16.492,26.906 L 15.283000000000001,27.785 L 15.745000000000001,26.362000000000002 L 14.535,25.484 L 16.031,25.484 L 16.491999999999997,24.063000000000002 L 16.953999999999997,25.484 L 18.448999999999998,25.484 L 17.24,26.362000000000002 L 17.702,27.785 M 19.771,23.868 L 18.562,24.747 L 19.024,23.326 L 17.814,22.447 L 19.309,22.447 L 19.771,21.025 L 20.233,22.447 L 21.729,22.447 L 20.519,23.326 L 20.979999999999997,24.747 L 19.771,23.868 M 24.401,27.89 L 23.192,27.012 L 21.982,27.89 L 22.444,26.468 L 21.235,25.589 L 22.73,25.589 L 23.192,24.168999999999997 L 23.653,25.589 L 25.148,25.589 L 23.939,26.468 L 24.401,27.89 M 26.506,23.974 L 25.297,24.853 L 25.759,23.43 L 24.549,22.552 L 26.044,22.552 L 26.506,21.131 L 26.968,22.552 L 28.463,22.552 L 27.254,23.43 L 27.715,24.853 L 26.506,23.974 M 31.1,27.785 L 29.891000000000002,26.906 L 28.682000000000002,27.785 L 29.143,26.362000000000002 L 27.935000000000002,25.484 L 29.429000000000002,25.484 L 29.891000000000002,24.063000000000002 L 30.353,25.484 L 31.848000000000003,25.484 L 30.639000000000003,26.362000000000002 L 31.1,27.785 M 33.136,23.974 L 31.926000000000002,24.853 L 32.388000000000005,23.43 L 31.179000000000006,22.552 L 32.67400000000001,22.552 L 33.13600000000001,21.131 L 33.59600000000001,22.552 L 35.09200000000001,22.552 L 33.88200000000001,23.43 L 34.344000000000015,24.853 L 33.136,23.974 M 37.66,27.785 L 36.449999999999996,26.906 L 35.239999999999995,27.785 L 35.702,26.362000000000002 L 34.492999999999995,25.484 L 35.989,25.484 L 36.449999999999996,24.063000000000002 L 36.912,25.484 L 38.407,25.484 L 37.19799999999999,26.362000000000002 L 37.66,27.785 M 37.198,20.58 L 37.660000000000004,22.000999999999998 L 36.45,21.122999999999998 L 35.24,22.000999999999998 L 35.702000000000005,20.58 L 34.493,19.700999999999997 L 35.989000000000004,19.700999999999997 L 36.45,18.278999999999996 L 36.912000000000006,19.700999999999997 L 38.407000000000004,19.700999999999997 L 37.198,20.58 M 37.198,14.812 L 37.660000000000004,16.235 L 36.45,15.356 L 35.24,16.235 L 35.702000000000005,14.812 L 34.493,13.934 L 35.989000000000004,13.934 L 36.45,12.513 L 36.912000000000006,13.934 L 38.407000000000004,13.934 L 37.198,14.812 M 37.198,9.124 L 37.660000000000004,10.546000000000001 L 36.45,9.668000000000001 L 35.24,10.546000000000001 L 35.702000000000005,9.124 L 34.493,8.245000000000001 L 35.989000000000004,8.245000000000001 L 36.45,6.825000000000001 L 36.912000000000006,8.245000000000001 L 38.407000000000004,8.245000000000001 L 37.198,9.124 M 37.198,3.337 L 37.660000000000004,4.758 L 36.45,3.88 L 35.24,4.758 L 35.702000000000005,3.3369999999999997 L 34.493,2.4589999999999996 L 35.989000000000004,2.4589999999999996 L 36.45,1.0369999999999997 L 36.912000000000006,2.4589999999999996 L 38.407000000000004,2.4589999999999996 L 37.198,3.337" fill="#010101"/>
	<path d="M 0.0,50.613 L 99.965,50.613 L 99.965,54.844 L 0.0,54.844 L 0.0,50.613" fill="#010101" height="4.231" width="99.965" y="50.613"/>
	<path d="M 0.0,42.216 L 99.965,42.216 L 99.965,46.447 L 0.0,46.447 L 0.0,42.216" fill="#010101" height="4.231" width="99.965" y="42.216"/>
	<path d="M 0.0,33.819 L 99.965,33.819 L 99.965,38.050000000000004 L 0.0,38.050000000000004 L 0.0,33.819" fill="#010101" height="4.231" width="99.965" y="33.819"/>
	<path d="M 40.071,25.388 L 100.0,25.388 L 100.0,29.62 L 40.071,29.62 L 40.071,25.388" fill="#010101" height="4.232" width="59.929" x="40.071" y="25.388"/>
	<path d="M 40.064,16.795 L 99.99199999999999,16.795 L 99.99199999999999,21.026000000000003 L 40.064,21.026000000000003 L 40.064,16.795" fill="#010101" height="4.231" width="59.928" x="40.064" y="16.795"/>
	<path d="M 40.064,8.397 L 99.99199999999999,8.397 L 99.99199999999999,12.628 L 40.064,12.628 L 40.064,8.397" fill="#010101" height="4.231" width="59.928" x="40.064" y="8.397"/>
	<path d="M 40.064,0.0 L 99.99199999999999,0.0 L 99.99199999999999,4.231 L 40.064,4.231 L 40.064,0.0" fill="#010101" height="4.231" width="59.928" x="40.064"/>
</svg>
