<?xml version="1.0" ?>
<svg xmlns="http://www.w3.org/2000/svg" xmlns:ev="http://www.w3.org/2001/xml-events" xmlns:xlink="http://www.w3.org/1999/xlink" baseProfile="full" enable-background="new 0 0 50 50" height="600px" version="1.1" viewBox="0 0 50 50" width="600px" x="0px" xml:space="preserve" y="0px">
	<defs/>
	<path d="M 0.0,0.0 L 0.0,50.0 L 50.0,50.0 L 50.0,0.0 L 0.0,0.0 M 49.0,49.0 L 1.0,49.0 L 1.0,1.0 L 49.0,1.0 L 49.0,49.0 L 49.0,49.0" fill="#000000"/>
	<path d="M 4.5,4.5 L 4.5,45.5 L 45.5,45.5 L 45.5,4.5 L 4.5,4.5 M 44.682,44.682 L 5.32,44.682 L 5.32,5.32 L 44.682,5.32 L 44.682,44.682 L 44.682,44.682" fill="#000000"/>
	<path d="M 9.992,4.992 L 14.992,4.992 L 14.992,9.992 L 9.992,9.992 L 9.992,4.992" fill="#000000" height="5" width="5" x="9.992" y="4.992"/>
	<path d="M 19.992,4.992 L 24.992,4.992 L 24.992,9.992 L 19.992,9.992 L 19.992,4.992" fill="#000000" height="5" width="5" x="19.992" y="4.992"/>
	<path d="M 29.992,4.992 L 34.992000000000004,4.992 L 34.992000000000004,9.992 L 29.992,9.992 L 29.992,4.992" fill="#000000" height="5" width="5" x="29.992" y="4.992"/>
	<path d="M 39.992,4.992 L 44.992,4.992 L 44.992,9.992 L 39.992,9.992 L 39.992,4.992" fill="#000000" height="5" width="5" x="39.992" y="4.992"/>
	<path d="M 4.992,9.992 L 9.992,9.992 L 9.992,14.992 L 4.992,14.992 L 4.992,9.992" fill="#000000" height="5" width="5" x="4.992" y="9.992"/>
	<path d="M 14.992,9.992 L 19.992,9.992 L 19.992,14.992 L 14.992,14.992 L 14.992,9.992" fill="#000000" height="5" width="5" x="14.992" y="9.992"/>
	<path d="M 24.992,9.992 L 29.992,9.992 L 29.992,14.992 L 24.992,14.992 L 24.992,9.992" fill="#000000" height="5" width="5" x="24.992" y="9.992"/>
	<path d="M 34.992,9.992 L 39.992,9.992 L 39.992,14.992 L 34.992,14.992 L 34.992,9.992" fill="#000000" height="5" width="5" x="34.992" y="9.992"/>
	<path d="M 9.992,14.992 L 14.992,14.992 L 14.992,19.992 L 9.992,19.992 L 9.992,14.992" fill="#000000" height="5" width="5" x="9.992" y="14.992"/>
	<path d="M 19.992,14.992 L 24.992,14.992 L 24.992,19.992 L 19.992,19.992 L 19.992,14.992" fill="#000000" height="5" width="5" x="19.992" y="14.992"/>
	<path d="M 29.992,14.992 L 34.992000000000004,14.992 L 34.992000000000004,19.992 L 29.992,19.992 L 29.992,14.992" fill="#000000" height="5" width="5" x="29.992" y="14.992"/>
	<path d="M 39.992,14.992 L 44.992,14.992 L 44.992,19.992 L 39.992,19.992 L 39.992,14.992" fill="#000000" height="5" width="5" x="39.992" y="14.992"/>
	<path d="M 4.992,19.992 L 9.992,19.992 L 9.992,24.992 L 4.992,24.992 L 4.992,19.992" fill="#000000" height="5" width="5" x="4.992" y="19.992"/>
	<path d="M 14.992,19.992 L 19.992,19.992 L 19.992,24.992 L 14.992,24.992 L 14.992,19.992" fill="#000000" height="5" width="5" x="14.992" y="19.992"/>
	<path d="M 24.992,19.992 L 29.992,19.992 L 29.992,24.992 L 24.992,24.992 L 24.992,19.992" fill="#000000" height="5" width="5" x="24.992" y="19.992"/>
	<path d="M 34.992,19.992 L 39.992,19.992 L 39.992,24.992 L 34.992,24.992 L 34.992,19.992" fill="#000000" height="5" width="5" x="34.992" y="19.992"/>
	<path d="M 9.992,24.992 L 14.992,24.992 L 14.992,29.992 L 9.992,29.992 L 9.992,24.992" fill="#000000" height="5" width="5" x="9.992" y="24.992"/>
	<path d="M 19.992,24.992 L 24.992,24.992 L 24.992,29.992 L 19.992,29.992 L 19.992,24.992" fill="#000000" height="5" width="5" x="19.992" y="24.992"/>
	<path d="M 29.992,24.992 L 34.992000000000004,24.992 L 34.992000000000004,29.992 L 29.992,29.992 L 29.992,24.992" fill="#000000" height="5" width="5" x="29.992" y="24.992"/>
	<path d="M 39.992,24.992 L 44.992,24.992 L 44.992,29.992 L 39.992,29.992 L 39.992,24.992" fill="#000000" height="5" width="5" x="39.992" y="24.992"/>
	<path d="M 4.992,29.992 L 9.992,29.992 L 9.992,34.992000000000004 L 4.992,34.992000000000004 L 4.992,29.992" fill="#000000" height="5" width="5" x="4.992" y="29.992"/>
	<path d="M 14.992,29.992 L 19.992,29.992 L 19.992,34.992000000000004 L 14.992,34.992000000000004 L 14.992,29.992" fill="#000000" height="5" width="5" x="14.992" y="29.992"/>
	<path d="M 24.992,29.992 L 29.992,29.992 L 29.992,34.992000000000004 L 24.992,34.992000000000004 L 24.992,29.992" fill="#000000" height="5" width="5" x="24.992" y="29.992"/>
	<path d="M 34.992,29.992 L 39.992,29.992 L 39.992,34.992000000000004 L 34.992,34.992000000000004 L 34.992,29.992" fill="#000000" height="5" width="5" x="34.992" y="29.992"/>
	<path d="M 9.992,34.992 L 14.992,34.992 L 14.992,39.992 L 9.992,39.992 L 9.992,34.992" fill="#000000" height="5" width="5" x="9.992" y="34.992"/>
	<path d="M 19.992,34.992 L 24.992,34.992 L 24.992,39.992 L 19.992,39.992 L 19.992,34.992" fill="#000000" height="5" width="5" x="19.992" y="34.992"/>
	<path d="M 29.992,34.992 L 34.992000000000004,34.992 L 34.992000000000004,39.992 L 29.992,39.992 L 29.992,34.992" fill="#000000" height="5" width="5" x="29.992" y="34.992"/>
	<path d="M 39.992,34.992 L 44.992,34.992 L 44.992,39.992 L 39.992,39.992 L 39.992,34.992" fill="#000000" height="5" width="5" x="39.992" y="34.992"/>
	<path d="M 4.992,39.992 L 9.992,39.992 L 9.992,44.992 L 4.992,44.992 L 4.992,39.992" fill="#000000" height="5" width="5" x="4.992" y="39.992"/>
	<path d="M 14.992,39.992 L 19.992,39.992 L 19.992,44.992 L 14.992,44.992 L 14.992,39.992" fill="#000000" height="5" width="5" x="14.992" y="39.992"/>
	<path d="M 24.992,39.992 L 29.992,39.992 L 29.992,44.992 L 24.992,44.992 L 24.992,39.992" fill="#000000" height="5" width="5" x="24.992" y="39.992"/>
	<path d="M 34.992,39.992 L 39.992,39.992 L 39.992,44.992 L 34.992,44.992 L 34.992,39.992" fill="#000000" height="5" width="5" x="34.992" y="39.992"/>
</svg>
