<?xml version="1.0" ?>
<svg xmlns="http://www.w3.org/2000/svg" xmlns:ev="http://www.w3.org/2001/xml-events" xmlns:xlink="http://www.w3.org/1999/xlink" baseProfile="full" enable-background="new 0 0 90 90" height="437px" version="1.1" viewBox="0 0 90 90" width="600px" x="0px" xml:space="preserve" y="0px">
	<defs/>
	<path d="M 86.2,58.9 C 86.2,58.699999999999996 86.2,58.5 86.2,58.4 L 86.2,57.5 C 86.2,57.3 86.2,57.3 86.2,57.3 L 86.2,57.4 L 86.2,57.3 L 86.2,57.3 L 86.2,28.9 L 86.0,28.5 L 86.0,28.5 C 85.9,28.3 85.7,28.1 85.5,28.0 L 55.6,15.1 C 55.4,15.0 55.2,15.0 55.0,15.0 L 55.0,15.0 L 55.0,15.0 C 54.9,15.0 54.9,15.0 54.8,15.0 L 47.0,17.3 L 46.9,17.3 L 46.9,17.3 C 46.4,17.5 46.199999999999996,17.7 46.199999999999996,18.400000000000002 C 46.199999999999996,19.1 46.199999999999996,19.8 46.199999999999996,19.8 L 46.099999999999994,22.900000000000002 C 46.099999999999994,23.1 45.99999999999999,23.400000000000002 45.99999999999999,23.700000000000003 C 45.599999999999994,26.900000000000002 44.199999999999996,34.1 38.699999999999996,38.7 L 12.9,27.8 C 12.700000000000001,27.7 12.4,27.7 12.200000000000001,27.8 L 12.200000000000001,27.8 L 3.9000000000000004,30.6 C 3.8000000000000003,30.6 3.7,30.6 3.7,30.700000000000003 C 3.4000000000000004,30.800000000000004 3.2,31.000000000000004 3.1,31.300000000000004 L 3.2,61.2 C 3.2,61.800000000000004 3.3000000000000003,62.300000000000004 3.8000000000000003,62.5 L 5.9,63.4 L 28.700000000000003,73.2 L 33.800000000000004,75.4 C 33.900000000000006,75.4 34.1,75.5 34.2,75.5 C 34.300000000000004,75.5 34.400000000000006,75.5 34.400000000000006,75.5 L 34.400000000000006,75.5 L 85.9,60.0 C 86.2,59.9 86.30000000000001,59.8 86.2,59.5 L 86.2,59.1 C 86.2,59.1 86.2,59.0 86.2,58.9 M 55.0,17.2 L 56.4,17.8 L 82.8,29.200000000000003 L 77.1,30.900000000000002 L 49.4,18.9 L 55.0,17.2 M 45.1,34.8 C 47.6,30.199999999999996 48.0,26.4 48.300000000000004,23.999999999999996 C 48.300000000000004,23.799999999999997 48.300000000000004,23.599999999999998 48.400000000000006,23.399999999999995 L 48.400000000000006,23.399999999999995 L 48.400000000000006,23.299999999999994 C 48.400000000000006,23.299999999999994 48.400000000000006,23.199999999999992 48.400000000000006,23.199999999999992 L 48.400000000000006,23.199999999999992 L 48.60000000000001,20.89999999999999 L 75.5,32.49999999999999 C 75.5,32.79999999999999 75.5,33.099999999999994 75.5,33.29999999999999 L 75.5,33.29999999999999 C 75.5,33.69999999999999 75.5,33.99999999999999 75.5,33.99999999999999 L 75.5,33.99999999999999 L 75.6,36.99999999999999 C 75.6,37.199999999999996 75.6,37.49999999999999 75.6,37.79999999999999 C 75.69999999999999,42.29999999999999 75.5,56.099999999999994 61.8,59.29999999999999 L 61.8,59.29999999999999 C 55.699999999999996,60.89999999999999 51.0,60.39999999999999 48.0,57.99999999999999 C 45.0,55.599999999999994 43.4,51.89999999999999 43.6,45.99999999999999 C 43.6,45.79999999999999 43.6,44.699999999999996 43.6,44.599999999999994 L 43.5,41.49999999999999 L 43.3,41.099999999999994 L 43.3,41.099999999999994 C 43.199999999999996,40.89999999999999 43.0,40.699999999999996 42.8,40.599999999999994 L 40.9,39.8 C 42.0,38.8 44.0,36.8 45.1,34.8 M 28.7,71.0 L 7.5,61.8 L 5.3,60.9 L 5.3999999999999995,33.3 L 32.9,45.199999999999996 L 33.4,73.0 L 28.7,71.0 M 34.4,43.5 L 7.0,31.8 L 12.4,30.0 L 13.8,30.6 L 40.400000000000006,42.0 L 34.60000000000001,43.7 C 34.5,43.6 34.5,43.6 34.4,43.5 M 82.1,58.9 L 35.599999999999994,72.9 L 35.099999999999994,45.7 L 41.3,43.900000000000006 L 41.3,45.00000000000001 C 41.3,45.60000000000001 41.3,46.20000000000001 41.3,46.400000000000006 L 41.3,46.50000000000001 C 41.099999999999994,53.20000000000001 42.8,57.10000000000001 46.4,60.00000000000001 C 48.699999999999996,61.800000000000004 51.6,62.70000000000001 55.2,62.70000000000001 C 57.300000000000004,62.70000000000001 59.7,62.40000000000001 62.2,61.70000000000001 L 62.2,61.70000000000001 C 62.2,61.70000000000001 62.2,61.70000000000001 62.300000000000004,61.70000000000001 C 62.300000000000004,61.70000000000001 62.300000000000004,61.70000000000001 62.300000000000004,61.70000000000001 L 62.300000000000004,61.70000000000001 C 68.9,60.10000000000001 73.9,56.00000000000001 76.2,49.80000000000001 C 78.0,44.90000000000001 77.8,39.90000000000001 77.7,37.500000000000014 C 77.7,37.30000000000001 77.7,37.100000000000016 77.7,36.90000000000001 L 77.7,36.90000000000001 L 77.7,36.80000000000001 C 77.7,36.80000000000001 77.7,36.70000000000001 77.7,36.70000000000001 L 77.7,36.70000000000001 L 77.5,32.80000000000001 L 84.0,31.0 L 83.9,55.2 L 84.0,58.2 L 82.1,58.9 L 82.1,58.9" fill="#000000"/>
</svg>
