<?xml version="1.0" ?>
<svg xmlns="http://www.w3.org/2000/svg" xmlns:ev="http://www.w3.org/2001/xml-events" xmlns:xlink="http://www.w3.org/1999/xlink" baseProfile="full" enable-background="new 0 0 100 100" height="600px" version="1.1" viewBox="0 0 100 100" width="490px" x="0px" xml:space="preserve" y="0px">
	<defs/>
	<path d="M 38.482,1.0 L 10.0,29.441 L 10.0,99.0 L 90.0,99.0 L 90.0,1.0 L 38.482,1.0 M 38.0,10.67 L 38.0,29.0 L 19.468,29.0 L 38.0,10.67 M 83.0,92.0 L 17.0,92.0 L 17.0,36.0 L 45.0,36.0 L 45.0,8.0 L 83.0,8.0 L 83.0,92.0" fill="#000000"/>
	<path d="M 27.0,61.0 L 73.0,61.0 L 73.0,68.0 L 27.0,68.0 L 27.0,61.0" fill="#000000" height="7" width="46" x="27" y="61"/>
	<path d="M 27.0,75.0 L 73.0,75.0 L 73.0,82.0 L 27.0,82.0 L 27.0,75.0" fill="#000000" height="7" width="46" x="27" y="75"/>
	<path d="M 55.0,29.0 L 73.0,29.0 L 73.0,36.0 L 55.0,36.0 L 55.0,29.0" fill="#000000" height="7" width="18" x="55" y="29"/>
	<path d="M 55.0,15.0 L 73.0,15.0 L 73.0,22.0 L 55.0,22.0 L 55.0,15.0" fill="#000000" height="7" width="18" x="55" y="15"/>
	<path d="M 27.0,47.0 L 73.0,47.0 L 73.0,54.0 L 27.0,54.0 L 27.0,47.0" fill="#000000" height="7" width="46" x="27" y="47"/>
</svg>
