<?xml version="1.0" ?>
<svg xmlns="http://www.w3.org/2000/svg" xmlns:ev="http://www.w3.org/2001/xml-events" xmlns:xlink="http://www.w3.org/1999/xlink" baseProfile="full" enable-background="new 0 0 100 100" height="600px" version="1.1" viewBox="0 0 100 100" width="505px" x="0px" xml:space="preserve" y="0px">
	<defs/>
	<path d="M 88.08,0.0 L 26.754,0.0 C 17.876,0.0 7.947,7.831 7.947,18.31 L 7.947,96.006 C 7.947,98.2 9.725,99.979 11.919,99.98 C 11.919,99.98 70.585,100.001 75.276,100.001 C 77.47,100.001 79.25,98.22200000000001 79.25,96.027 C 79.25,92.446 82.772,87.032 88.08,87.032 C 90.274,87.032 92.053,85.253 92.053,83.05799999999999 L 92.053,3.974 C 92.053,1.779 90.274,0.0 88.08,0.0 M 13.907,18.461 L 73.371,18.461 L 73.371,94.04 C 63.50299999999999,94.037 23.331999999999994,94.022 13.906999999999996,94.019 L 13.906999999999996,18.461 L 13.907,18.461 M 86.093,81.211 C 85.247,81.332 84.43900000000001,81.533 83.665,81.79599999999999 L 83.665,10.265 C 83.665,9.168000000000001 82.77600000000001,8.278 81.679,8.278 L 24.834,8.278 C 23.737,8.278 22.848,9.168000000000001 22.848,10.265 C 22.848,11.362 23.737,12.252 24.834,12.252 L 79.691,12.252 L 79.691,83.925 C 78.761,84.62899999999999 77.922,85.429 77.182,86.3 L 77.182,16.556 C 77.182,15.504000000000001 76.328,14.651000000000002 75.276,14.651000000000002 L 14.564,14.651000000000002 C 16.422,9.552000000000001 21.908,5.960000000000001 26.753999999999998,5.960000000000001 L 86.09299999999999,5.960000000000001 L 86.09299999999999,81.211 L 86.093,81.211"/>
</svg>
