<?xml version="1.0" ?>
<svg xmlns="http://www.w3.org/2000/svg" xmlns:ev="http://www.w3.org/2001/xml-events" xmlns:xlink="http://www.w3.org/1999/xlink" baseProfile="full" enable-background="new 0 0 100 100" height="600px" version="1.1" viewBox="0 0 100 100" width="590px" x="0px" xml:space="preserve" y="0px">
	<defs/>
	<path d="M 98.008,47.958 C 98.008,21.485999999999997 76.473,-0.05000000000000426 50.001999999999995,-0.05000000000000426 C 23.528999999999996,-0.05000000000000426 1.9919999999999973,21.485999999999997 1.9919999999999973,47.958 C 1.9919999999999973,73.598 22.198999999999998,94.60900000000001 47.525,95.902 C 48.115,97.008 48.91,97.755 50.001999999999995,97.755 C 51.092999999999996,97.755 51.88699999999999,97.009 52.476,95.902 C 77.801,94.61 98.008,73.6 98.008,47.958 M 53.779,91.196 C 54.063,89.103 54.104000000000006,87.083 54.104000000000006,86.13 C 54.104000000000006,83.725 53.36000000000001,82.752 53.126000000000005,82.44399999999999 C 52.89300000000001,82.13699999999999 52.471000000000004,81.16399999999999 52.471000000000004,80.54999999999998 C 52.471000000000004,79.93599999999998 52.800000000000004,79.06599999999999 53.126000000000005,78.50199999999998 C 53.452000000000005,77.93999999999998 54.944,75.94099999999997 54.944,75.94099999999997 L 50.0,75.94099999999997 L 45.053,75.94099999999997 C 45.053,75.94099999999997 46.549,77.93899999999998 46.875,78.50199999999998 C 47.201,79.06499999999998 47.527,79.93599999999998 47.527,80.54999999999998 C 47.527,81.16299999999998 47.108000000000004,82.13699999999999 46.875,82.44399999999999 C 46.642,82.752 45.894,83.72399999999999 45.894,86.13 C 45.894,87.083 45.934999999999995,89.104 46.219,91.196 C 24.046,89.272 6.586,70.621 6.586,47.958 C 6.586,24.02 26.061999999999998,4.543999999999997 50.001999999999995,4.543999999999997 C 73.94,4.543999999999997 93.41399999999999,24.019999999999996 93.41399999999999,47.958 C 93.414,70.622 75.953,89.274 53.779,91.196"/>
	<path d="M 32.649,28.024 C 36.908,28.211000000000002 41.938,32.156 43.251000000000005,33.156 C 44.55800000000001,34.15 46.12200000000001,34.439 46.983000000000004,33.622 C 47.572,33.061 47.542,31.756 46.206,30.48 C 44.869,29.206 38.34,24.914 32.557,24.914 C 26.773000000000003,24.914 21.611000000000004,29.174 19.745000000000005,34.988 C 22.23,29.517 28.92,27.861 32.649,28.024"/>
	<path d="M 55.689,43.014 C 55.689,44.508 58.74,45.719 62.502,45.719 C 66.261,45.719 69.312,44.508 69.312,43.014 C 69.312,41.519000000000005 66.261,40.307 62.501999999999995,40.307 C 58.74,40.307 55.689,41.519 55.689,43.014"/>
	<path d="M 56.748,33.157 C 58.061,32.157 63.092,28.211999999999996 67.353,28.025 C 71.08,27.862 77.76899999999999,29.517999999999997 80.25699999999999,34.989999999999995 C 78.39099999999999,29.175999999999995 73.22999999999999,24.915999999999997 67.445,24.915999999999997 C 61.66,24.915999999999997 55.129999999999995,29.208 53.79299999999999,30.481999999999996 C 52.45599999999999,31.756999999999994 52.425999999999995,33.062999999999995 53.01499999999999,33.623999999999995 C 53.877,34.439 55.441,34.151 56.748,33.157"/>
	<path d="M 70.431,65.122 C 70.02799999999999,65.648 69.313,66.988 68.42399999999999,66.988 C 67.53899999999999,66.988 60.72999999999999,66.988 60.07699999999999,66.988 C 59.00399999999999,66.988 58.25599999999999,66.334 57.276999999999994,64.981 C 56.428,63.806999999999995 54.477999999999994,61.10999999999999 54.477999999999994,61.10999999999999 C 53.404999999999994,61.71499999999999 51.211999999999996,62.32299999999999 50.00099999999999,62.32299999999999 C 48.78699999999999,62.32299999999999 46.59499999999999,61.715999999999994 45.52099999999999,61.10999999999999 C 45.52099999999999,61.10999999999999 43.573999999999984,63.806999999999995 42.72499999999999,64.981 C 41.743999999999986,66.33399999999999 40.99899999999999,66.988 39.92599999999999,66.988 C 39.27399999999999,66.988 32.46199999999999,66.988 31.575999999999986,66.988 C 30.689999999999984,66.988 29.972999999999985,65.648 29.568999999999985,65.122 C 28.964999999999986,64.33 25.184999999999985,58.778999999999996 25.184999999999985,58.778999999999996 L 20.614999999999984,58.778999999999996 C 20.614999999999984,58.778999999999996 27.424999999999983,68.24799999999999 28.171999999999983,69.273 C 28.94699999999998,70.33999999999999 30.268999999999984,70.85799999999999 31.201999999999984,70.85799999999999 C 32.134999999999984,70.85799999999999 43.143999999999984,70.85799999999999 43.795999999999985,70.85799999999999 C 44.450999999999986,70.85799999999999 45.054999999999986,70.71699999999998 45.61699999999998,70.01899999999999 C 46.17599999999998,69.31899999999999 46.920999999999985,68.33899999999998 47.761999999999986,67.127 C 48.60199999999999,65.914 49.487999999999985,65.588 50.00199999999999,65.588 C 50.51299999999999,65.588 51.40199999999999,65.91399999999999 52.23899999999999,67.127 C 53.07999999999999,68.339 53.82699999999999,69.318 54.38599999999999,70.01899999999999 C 54.94599999999999,70.71699999999998 55.551999999999985,70.85799999999999 56.203999999999986,70.85799999999999 C 56.85599999999999,70.85799999999999 67.86499999999998,70.85799999999999 68.79799999999999,70.85799999999999 C 69.73199999999999,70.85799999999999 71.05299999999998,70.33999999999999 71.82999999999998,69.273 C 72.57499999999999,68.24799999999999 79.38499999999999,58.778999999999996 79.38499999999999,58.778999999999996 L 74.81599999999999,58.778999999999996 C 74.815,58.779 71.038,64.33 70.431,65.122"/>
	<path cx="37.5" cy="43.014" d="M 30.69,43.014 A 6.81,2.705 0.0 1,0 44.31,43.014 A 6.81,2.705 0.0 1,0 30.690000000000005,43.014" rx="6.81" ry="2.705"/>
	<path cx="21.874" cy="50.242" d="M 14.831,50.242 A 7.043,3.59 0.0 1,0 28.917,50.242 A 7.043,3.59 0.0 1,0 14.831000000000001,50.242" rx="7.043" ry="3.59"/>
	<path cx="78.126" cy="50.243" d="M 71.083,50.243 A 7.043,3.591 0.0 1,0 85.169,50.243 A 7.043,3.591 0.0 1,0 71.083,50.243" rx="7.043" ry="3.591"/>
</svg>
