<?xml version="1.0" ?>
<svg xmlns="http://www.w3.org/2000/svg" xmlns:ev="http://www.w3.org/2001/xml-events" xmlns:xlink="http://www.w3.org/1999/xlink" baseProfile="full" enable-background="new 0 0 100 57.369" height="345px" version="1.1" viewBox="0 0 100 57.369" width="600px" x="0px" xml:space="preserve" y="0px">
	<defs/>
	<path d="M 81.681,20.732 C 79.101,20.732 76.648,21.268 74.42,22.233999999999998 L 73.19800000000001,20.005999999999997 C 72.77900000000001,19.205999999999996 72.203,18.056999999999995 71.164,18.576999999999998 L 65.4,7.361 L 66.932,4.231 C 67.269,3.538 67.09100000000001,2.729 66.548,2.2379999999999995 C 66.527,2.2069999999999994 66.506,2.1719999999999997 66.483,2.1439999999999997 L 65.385,0.6929999999999996 C 64.801,-0.078 63.7,-0.229 62.93,0.356 C 62.868,0.40199999999999997 62.81,0.45599999999999996 62.755,0.509 L 61.361000000000004,0.10399999999999998 C 60.602000000000004,-0.11600000000000002 59.81,0.31799999999999995 59.591,1.0779999999999998 C 59.371,1.8339999999999999 59.806000000000004,2.6289999999999996 60.562,2.8489999999999998 L 63.196999999999996,3.6119999999999997 L 63.364,3.8339999999999996 L 61.75,7.136 L 39.477000000000004,20.806 L 38.13,16.68 C 38.082,16.53 38.013000000000005,16.39 37.927,16.264 L 42.214,14.171999999999999 L 42.266,14.136999999999999 C 42.596,13.915 43.467,13.325999999999999 43.204,12.463 C 43.109,12.152999999999999 42.796,11.632 41.757,11.632 C 41.467999999999996,11.632 41.15,11.67 40.903999999999996,11.732 L 30.487999999999996,14.373999999999999 C 29.994999999999997,14.498 29.579999999999995,14.812 29.323999999999995,15.259999999999998 C 29.071999999999996,15.695999999999998 29.001999999999995,16.203999999999997 29.123999999999995,16.689999999999998 L 29.639999999999993,18.214 C 29.722999999999992,18.5 30.042999999999992,19.211 31.119999999999994,19.211 C 31.483999999999995,19.211 31.859999999999992,19.128 32.17999999999999,19.046999999999997 L 32.26899999999999,19.025 L 34.91899999999999,17.732999999999997 L 38.34899999999999,28.232999999999997 L 34.34999999999999,30.071999999999996 C 31.221999999999987,24.433999999999997 25.20899999999999,20.609999999999996 18.317999999999987,20.609999999999996 C 8.217,20.609 0.0,28.828 0.0,38.928 C 0.0,49.03 8.217,57.245 18.319,57.245 C 28.101999999999997,57.245 36.117999999999995,49.538999999999994 36.614000000000004,39.876 L 41.175000000000004,39.48 C 41.71,40.016 42.449000000000005,40.349 43.268,40.349 C 43.557,40.349 43.835,40.306999999999995 44.098,40.23 L 45.629999999999995,42.043 L 45.193,42.043 C 44.762,42.043 44.412,42.396 44.412,42.826 C 44.412,43.258 44.762,43.607 45.193,43.607 L 49.415,43.607 C 49.846,43.607 50.197,43.259 50.197,42.826 C 50.197,42.396 49.847,42.043 49.415000000000006,42.043 L 47.98700000000001,42.043 C 47.96000000000001,41.997 47.92800000000001,41.948 47.89200000000001,41.905 L 45.60700000000001,39.198 C 45.969000000000015,38.731 46.19100000000002,38.154 46.22100000000001,37.526 L 51.744000000000014,33.648 C 52.00500000000002,33.464000000000006 52.19700000000002,33.223000000000006 52.323000000000015,32.956 C 52.37400000000002,32.888000000000005 52.41900000000001,32.817 52.460000000000015,32.741 L 64.164,11.2 L 68.685,20.003999999999998 C 67.875,20.566 68.336,21.537999999999997 68.723,22.273999999999997 L 70.087,24.877 C 65.985,28.238999999999997 63.363,33.345 63.363,39.049 C 63.363,49.152 71.58,57.367999999999995 81.68,57.367999999999995 C 91.78200000000001,57.367999999999995 99.998,49.150999999999996 99.998,39.04899999999999 C 100.0,28.95 91.782,20.732 81.681,20.732 M 31.307,35.189 C 31.468,35.751 31.593999999999998,36.329 31.682,36.917 L 26.59,37.36 L 31.307,35.189 M 18.319,52.44 C 10.866999999999999,52.44 4.806999999999999,46.379 4.806999999999999,38.928 C 4.806999999999999,31.477999999999998 10.866999999999997,25.415 18.319,25.415 C 23.276,25.415 27.616999999999997,28.099999999999998 29.97,32.088 L 16.618,38.23 C 16.537,38.266999999999996 16.459999999999997,38.315 16.386999999999997,38.363 C 15.776999999999997,38.66 15.379999999999997,39.309 15.443999999999997,40.027 C 15.519999999999998,40.904 16.256999999999998,41.569 17.122999999999998,41.569 C 17.171999999999997,41.569 17.223,41.567 17.272,41.56 L 31.765,40.298 C 31.074,47.109 25.308,52.44 18.319,52.44 M 39.405,31.464 L 39.509,31.776 L 38.727000000000004,31.776 L 39.405,31.464 M 40.59,36.139 L 36.476000000000006,36.498000000000005 C 36.322,35.351000000000006 36.065000000000005,34.234 35.70700000000001,33.164 L 36.123000000000005,32.975 C 36.287000000000006,33.264 36.64600000000001,33.465 37.065000000000005,33.465 L 38.804,33.465 C 38.831,33.614000000000004 38.896,33.762 39.002,33.889 L 40.71,35.912000000000006 C 40.668,35.987 40.627,36.063 40.59,36.139 M 49.417,30.997 L 44.265,34.614 C 44.164,34.577 44.062,34.547 43.956,34.522 L 42.496,30.043999999999997 L 43.748000000000005,29.467 C 43.912000000000006,29.506 44.081,29.529 44.25000000000001,29.529 C 44.547000000000004,29.529 44.848000000000006,29.467 45.13400000000001,29.338 L 50.754000000000005,26.785 C 51.230000000000004,26.571 51.589000000000006,26.202 51.79900000000001,25.766000000000002 L 52.415000000000006,25.481 L 49.417,30.997 M 55.104,20.523 L 50.297,22.735 C 49.87,22.647 49.410999999999994,22.687 48.98,22.883 L 43.361,25.433 C 42.907999999999994,25.637999999999998 42.562999999999995,25.983 42.349,26.391 L 41.436,26.813 L 40.512,23.980999999999998 L 59.59,12.269999999999998 L 55.104,20.523 M 81.681,52.566 C 74.229,52.566 68.169,46.504000000000005 68.169,39.051 C 68.169,35.201 69.786,31.721000000000004 72.38,29.256 L 78.853,41.607 C 79.30399999999999,42.471 80.18599999999999,42.964999999999996 81.098,42.964999999999996 C 81.494,42.964999999999996 81.896,42.87 82.273,42.672999999999995 C 83.50999999999999,42.023999999999994 83.99,40.49399999999999 83.339,39.254999999999995 L 76.65899999999999,26.505999999999993 C 78.211,25.880999999999993 79.907,25.536999999999992 81.67999999999999,25.536999999999992 C 89.13199999999999,25.536999999999992 95.19399999999999,31.598999999999993 95.19399999999999,39.04999999999999 C 95.194,46.504 89.133,52.566 81.681,52.566" fill="#010101"/>
</svg>
