<?xml version="1.0" ?>
<svg xmlns="http://www.w3.org/2000/svg" xmlns:ev="http://www.w3.org/2001/xml-events" xmlns:xlink="http://www.w3.org/1999/xlink" baseProfile="full" enable-background="new 0 0 126 126" height="600px" version="1.1" viewBox="0 0 126 126" width="600px" x="0px" xml:space="preserve" y="0px">
	<defs/>
	<path d="M 33.533,37.725 C 32.931000000000004,38.182 32.637,38.959 32.799,39.696 C 32.963,40.433 33.539,41.009 34.278,41.171 C 34.885,41.304 35.448,41.295 37.178,39.964999999999996 C 37.948,39.37499999999999 39.083999999999996,38.379999999999995 40.132999999999996,36.992 L 40.592,36.382999999999996 C 44.522,31.155999999999995 53.723,18.917999999999996 67.012,19.581999999999997 C 77.971,20.381999999999998 85.741,28.657999999999998 89.477,43.518 C 89.604,44.023 89.682,44.333 89.768,44.571 C 90.338,47.001 91.297,50.028999999999996 92.676,51.025 C 93.02,51.272999999999996 93.414,51.391 93.807,51.391 C 94.409,51.391 95.0,51.111999999999995 95.377,50.588 C 95.982,49.752 95.82,48.595 95.029,47.954 C 94.646,47.46 93.92699999999999,45.391 93.502,43.542 C 93.47699999999999,43.432 93.44099999999999,43.325 93.39699999999999,43.222 C 93.362,43.096000000000004 93.29199999999999,42.821 93.231,42.574 C 92.637,40.219 91.065,33.961999999999996 87.249,28.077999999999996 C 82.31899999999999,20.479999999999997 75.59899999999999,16.322999999999993 67.27,15.721999999999996 C 67.256,15.720999999999997 67.243,15.720999999999997 67.229,15.719999999999995 C 51.877,14.935 41.801,28.335 37.5,34.057 L 37.047,34.658 C 35.869,36.215 34.479,37.184 33.998,37.465 C 33.836,37.528 33.68,37.615 33.533,37.725"/>
	<path d="M 82.738,48.592 C 84.197,44.943999999999996 84.232,41.175 82.834,38.251999999999995 C 81.586,35.644999999999996 79.26,33.754999999999995 76.10900000000001,32.78999999999999 C 71.48200000000001,31.37399999999999 65.873,33.94399999999999 60.73400000000001,39.83099999999999 C 60.668000000000006,39.90299999999999 53.35300000000001,47.59699999999999 45.67300000000001,52.29999999999999 C 45.61600000000001,52.33399999999999 39.99100000000001,55.70799999999999 34.120000000000005,57.30699999999999 C 33.089000000000006,57.58799999999999 32.481,58.65099999999999 32.763000000000005,59.68199999999999 C 33.04200000000001,60.71299999999999 34.107000000000006,61.32199999999999 35.138000000000005,61.039999999999985 C 41.525000000000006,59.30099999999999 47.425000000000004,55.761999999999986 47.68300000000001,55.60599999999999 C 56.01500000000001,50.50399999999999 63.574000000000005,42.46199999999999 63.638000000000005,42.38799999999999 C 66.757,38.81399999999999 71.37400000000001,35.38699999999999 74.974,36.489999999999995 C 77.093,37.138999999999996 78.56400000000001,38.294 79.343,39.922999999999995 C 80.277,41.87199999999999 80.20400000000001,44.50699999999999 79.144,47.153999999999996 C 77.173,52.08 71.03500000000001,58.028999999999996 61.85900000000001,63.903999999999996 C 57.257000000000005,66.85199999999999 45.67300000000001,74.085 37.492000000000004,77.583 C 36.508,78.003 36.053000000000004,79.14 36.472,80.123 C 36.786,80.857 37.501000000000005,81.29700000000001 38.251000000000005,81.29700000000001 C 38.505,81.29700000000001 38.763000000000005,81.24700000000001 39.011,81.141 C 47.46,77.52900000000001 59.263000000000005,70.162 63.947,67.16300000000001 C 70.914,62.702 79.83,55.857 82.738,48.592"/>
	<path d="M 51.576,34.146 C 50.697,35.114000000000004 49.910000000000004,36.152 49.06,37.144 C 47.949000000000005,38.443999999999996 46.734,39.658 45.464,40.803 C 44.161,41.980999999999995 43.105,42.824 41.565999999999995,43.706999999999994 C 39.934999999999995,44.64399999999999 38.270999999999994,45.590999999999994 36.58,46.413999999999994 C 35.998,46.69799999999999 35.5,46.882 34.846,47.07899999999999 C 33.836,47.38199999999999 33.208999999999996,48.42399999999999 33.494,49.458999999999996 C 33.767,50.456999999999994 34.863,51.114 35.873,50.81099999999999 C 37.852,50.215999999999994 39.646,49.19799999999999 41.431999999999995,48.18299999999999 C 42.94,47.324999999999996 44.437999999999995,46.55299999999999 45.824999999999996,45.49799999999999 C 48.528,43.44299999999999 50.854,41.04299999999999 52.992999999999995,38.41799999999999 C 53.858,37.35499999999999 54.78399999999999,36.34199999999999 55.751,35.36999999999999 C 56.28,34.83899999999999 56.827,34.32699999999999 57.384,33.82699999999999 C 57.675,33.56699999999999 57.97,33.31299999999999 58.267,33.06199999999999 C 58.419000000000004,32.93499999999999 58.572,32.80999999999999 58.726000000000006,32.68499999999999 C 58.767,32.65199999999999 59.068000000000005,32.414999999999985 59.144000000000005,32.35299999999999 C 60.492000000000004,31.320999999999987 61.92700000000001,30.403999999999986 63.437000000000005,29.627999999999986 C 64.863,28.894999999999985 66.29400000000001,28.380999999999986 68.031,28.019999999999985 C 68.607,27.899999999999984 68.732,27.886999999999986 69.164,27.842999999999986 C 70.21300000000001,27.733999999999984 71.1,27.044999999999987 71.1,25.907999999999987 C 71.1,24.934999999999988 70.21499999999999,23.863999999999987 69.16399999999999,23.97299999999999 C 62.168,24.695 56.186,29.068 51.576,34.146"/>
	<path d="M 36.518,71.196 C 40.721000000000004,69.753 62.305,61.693999999999996 74.38900000000001,44.753 C 75.01,43.883 74.80900000000001,42.675 73.93800000000002,42.055 C 73.06900000000002,41.434 71.86000000000001,41.636 71.24100000000001,42.506 C 59.841000000000015,58.485 39.268000000000015,66.16 35.26100000000002,67.536 C 35.17500000000002,67.565 35.12400000000002,67.584 35.10500000000002,67.592 C 34.10500000000002,67.97 33.603000000000016,69.087 33.98000000000002,70.087 C 34.27300000000002,70.861 35.009000000000015,71.337 35.79100000000002,71.337 C 36.01000000000002,71.337 36.234000000000016,71.299 36.451000000000015,71.22 L 36.518,71.196"/>
	<path d="M 89.17,82.715 C 86.488,81.821 83.205,79.48400000000001 80.033,77.224 C 75.435,73.95 71.469,71.122 68.23400000000001,71.68 C 65.804,72.10000000000001 61.56000000000001,74.81200000000001 54.85900000000001,79.23 C 50.02700000000001,82.415 44.55200000000001,86.024 42.17000000000001,86.665 C 41.13900000000001,86.94300000000001 40.52700000000001,88.00500000000001 40.80500000000001,89.037 C 41.037000000000006,89.90100000000001 41.81900000000001,90.47000000000001 42.672000000000004,90.47000000000001 C 42.838,90.47000000000001 43.008,90.44900000000001 43.176,90.40300000000002 C 46.160000000000004,89.59900000000002 51.42,86.13200000000002 56.989000000000004,82.46200000000002 C 61.487,79.49700000000001 67.08500000000001,75.80700000000002 68.893,75.49500000000002 C 70.536,75.21500000000002 74.557,78.07600000000002 77.788,80.37800000000001 C 81.194,82.80300000000001 84.716,85.311 87.946,86.38800000000002 C 88.96,86.72700000000002 90.05499999999999,86.17800000000003 90.393,85.16500000000002 C 90.73,84.148 90.182,83.052 89.17,82.715"/>
	<path d="M 84.324,92.193 C 82.765,91.629 80.23,90.063 77.777,88.548 C 72.59700000000001,85.348 69.306,83.406 66.943,83.81400000000001 C 64.55,84.227 59.527,87.643 51.090999999999994,93.80000000000001 C 50.05799999999999,94.55300000000001 49.166999999999994,95.20400000000001 48.55,95.64200000000001 C 47.677,96.25800000000001 47.467999999999996,97.46600000000001 48.084999999999994,98.33800000000001 C 48.461999999999996,98.87200000000001 49.059999999999995,99.15700000000001 49.666999999999994,99.15700000000001 C 50.05199999999999,99.15700000000001 50.44199999999999,99.04200000000002 50.782,98.802 C 51.425,98.34800000000001 52.327,97.68900000000001 53.372,96.926 C 56.729,94.47500000000001 65.647,87.965 67.581,87.631 C 68.788,87.549 73.142,90.234 75.74300000000001,91.84 C 78.483,93.533 81.07100000000001,95.132 83.00900000000001,95.83200000000001 C 84.01300000000002,96.19600000000001 85.12200000000001,95.67500000000001 85.48600000000002,94.67 C 85.85,93.666 85.33,92.556 84.324,92.193"/>
	<path d="M 77.789,101.813 C 76.703,101.10300000000001 75.703,100.39 74.736,99.70100000000001 C 71.562,97.435 68.82000000000001,95.477 65.81400000000001,95.99900000000001 C 62.42700000000001,96.58300000000001 57.037000000000006,102.00500000000001 55.99000000000001,103.08500000000001 C 55.24800000000001,103.85300000000001 55.26700000000001,105.078 56.03500000000001,105.82100000000001 C 56.41000000000001,106.18500000000002 56.89600000000001,106.36600000000001 57.381000000000014,106.36600000000001 C 57.887000000000015,106.36600000000001 58.39100000000001,106.16900000000001 58.77200000000001,105.77700000000002 C 61.36200000000001,103.10000000000001 65.043,100.05900000000001 66.47300000000001,99.81200000000001 C 67.88500000000002,99.57000000000001 70.02000000000001,101.08900000000001 72.49100000000001,102.85100000000001 C 73.44200000000001,103.53000000000002 74.52000000000001,104.30000000000001 75.67500000000001,105.05400000000002 C 76.57100000000001,105.63800000000002 77.77100000000002,105.38600000000001 78.35300000000001,104.49100000000001 C 78.936,103.596 78.684,102.397 77.789,101.813"/>
	<path d="M 94.816,61.872 C 93.203,61.191 91.517,60.475 90.16,59.345 C 88.664,58.102 87.969,56.469 87.658,54.583999999999996 C 87.254,52.126 83.525,53.172 83.928,55.613 C 84.75399999999999,60.632999999999996 88.449,63.349 92.864,65.214 C 93.83500000000001,65.625 94.927,65.517 95.51,64.52 C 95.992,63.699 95.789,62.283 94.816,61.872"/>
	<path d="M 91.061,71.968 C 89.608,71.521 88.506,70.953 86.96700000000001,70.045 C 84.15100000000001,68.381 81.58200000000001,65.96900000000001 80.33400000000002,62.89 C 79.93800000000002,61.914 79.06100000000002,61.234 77.95300000000002,61.539 C 77.02500000000002,61.794000000000004 76.20500000000001,62.940000000000005 76.60100000000001,63.919000000000004 C 78.90800000000002,69.605 84.20100000000001,73.903 90.031,75.699 C 92.424,76.436 93.438,72.701 91.061,71.968"/>
	<path d="M 16.895,15.685 L 35.697,15.685 L 35.697,12.685 L 13.895,12.685 L 13.895,34.487 L 16.895,34.487 L 16.895,15.685" points="16.895,15.685 35.697,15.685 35.697,12.685 13.895,12.685 13.895,34.487 16.895,34.487  "/>
	<path d="M 92.787,12.685 L 92.787,15.685 L 111.59,15.685 L 111.59,34.487 L 114.59,34.487 L 114.59,12.685 L 92.787,12.685" points="92.787,12.685 92.787,15.685 111.59,15.685 111.59,34.487 114.59,34.487 114.59,12.685  "/>
	<path d="M 16.865,91.513 L 13.865,91.513 L 13.865,113.315 L 35.666,113.315 L 35.666,110.315 L 16.865,110.315 L 16.865,91.513" points="16.865,91.513 13.865,91.513 13.865,113.315 35.666,113.315 35.666,110.315 16.865,110.315  "/>
	<path d="M 111.559,110.315 L 92.756,110.315 L 92.756,113.315 L 114.559,113.315 L 114.559,91.513 L 111.559,91.513 L 111.559,110.315" points="111.559,110.315 92.756,110.315 92.756,113.315 114.559,113.315 114.559,91.513 111.559,91.513  "/>
</svg>
