<?xml version="1.0" ?>
<svg xmlns="http://www.w3.org/2000/svg" xmlns:ev="http://www.w3.org/2001/xml-events" xmlns:sketch="http://www.bohemiancoding.com/sketch/ns" xmlns:xlink="http://www.w3.org/1999/xlink" baseProfile="full" height="600px" version="1.1" viewBox="0 0 60 60" width="600px" x="0px" y="0px">
	<defs/>
	<path d="M 59.9114168,55.8125886 L 40.9805332,36.5683236 C 43.7148684,32.7662769 45.3471664,28.0914091 45.3471664,23.0194557 C 45.3471664,10.305043 35.2080479,0.0 22.7025689,0.0 C 10.1970899,0.0 0.0579713115,10.305043 0.0579713115,23.0194557 C 0.0579713115,35.7319501 10.1970899,46.0389114 22.7025689,46.0389114 C 28.1750133,46.0389114 33.1964528,44.064993 37.1120811,40.7789657 L 55.9070971,59.8851139 L 59.9114168,55.8125886 L 59.9114168,55.8125886 M 5.68521832,22.9955866 C 5.68521832,13.4542756 13.291685,5.72103446 22.676581,5.72103446 C 32.061477,5.72103446 39.6679438,13.4542756 39.6679438,22.9955866 C 39.6679438,32.5368975 32.061477,40.2701387 22.676581,40.2701387 C 13.291685,40.2701387 5.68521832,32.5368975 5.68521832,22.9955866 L 5.68521832,22.9955866" sketch:type="MSShapeGroup"/>
</svg>
