<?xml version="1.0" ?>
<svg xmlns="http://www.w3.org/2000/svg" xmlns:ev="http://www.w3.org/2001/xml-events" xmlns:xlink="http://www.w3.org/1999/xlink" baseProfile="full" enable-background="new 0 0 960 560" height="468px" version="1.1" viewBox="0 0 960 560" width="600px" x="0px" xml:space="preserve" y="0px">
	<defs/>
	<path d="M 838.115,559.164 L 121.88499999999999,559.164 L 121.88499999999999,0.836 L 838.115,0.836 L 838.115,559.164 M 123.885,557.164 L 836.115,557.164 L 836.115,2.836 L 123.88499999999999,2.836 L 123.88499999999999,557.164 L 123.885,557.164"/>
	<path d="M 127.477,1.836 L 182.553,1.836 L 182.553,52.41 L 127.477,52.41 L 127.477,1.836" fill="none" height="50.574" width="55.076" x="127.477" y="1.836"/>
	<path d="M 151.456,39.286 L 156.964,39.286 L 156.964,48.674 L 151.456,48.674 L 151.456,39.286" fill="#000000" height="9.388" width="5.508" x="151.456" y="39.286"/>
	<path d="M 151.456,22.45 L 156.964,22.45 L 156.964,31.838 L 151.456,31.838 L 151.456,22.45" fill="#000000" height="9.388" width="5.508" x="151.456" y="22.45"/>
	<path d="M 151.456,5.668 L 156.964,5.668 L 156.964,15.056000000000001 L 151.456,15.056000000000001 L 151.456,5.668" fill="#000000" height="9.388" width="5.508" x="151.456" y="5.668"/>
	<path d="M 127.477,52.41 L 182.553,52.41 L 182.553,102.984 L 127.477,102.984 L 127.477,52.41" fill="none" height="50.574" width="55.076" x="127.477" y="52.41"/>
	<path d="M 151.456,89.863 L 156.964,89.863 L 156.964,99.251 L 151.456,99.251 L 151.456,89.863" fill="#000000" height="9.388" width="5.508" x="151.456" y="89.863"/>
	<path d="M 151.456,73.026 L 156.964,73.026 L 156.964,82.414 L 151.456,82.414 L 151.456,73.026" fill="#000000" height="9.388" width="5.508" x="151.456" y="73.026"/>
	<path d="M 151.456,56.244 L 156.964,56.244 L 156.964,65.632 L 151.456,65.632 L 151.456,56.244" fill="#000000" height="9.388" width="5.508" x="151.456" y="56.244"/>
	<path d="M 127.477,102.987 L 182.553,102.987 L 182.553,153.56099999999998 L 127.477,153.56099999999998 L 127.477,102.987" fill="none" height="50.574" width="55.076" x="127.477" y="102.987"/>
	<path d="M 151.456,140.437 L 156.964,140.437 L 156.964,149.82500000000002 L 151.456,149.82500000000002 L 151.456,140.437" fill="#000000" height="9.388" width="5.508" x="151.456" y="140.437"/>
	<path d="M 151.456,123.6 L 156.964,123.6 L 156.964,132.988 L 151.456,132.988 L 151.456,123.6" fill="#000000" height="9.388" width="5.508" x="151.456" y="123.6"/>
	<path d="M 151.456,106.819 L 156.964,106.819 L 156.964,116.20700000000001 L 151.456,116.20700000000001 L 151.456,106.819" fill="#000000" height="9.388" width="5.508" x="151.456" y="106.819"/>
	<path d="M 127.477,153.561 L 182.553,153.561 L 182.553,204.135 L 127.477,204.135 L 127.477,153.561" fill="none" height="50.574" width="55.076" x="127.477" y="153.561"/>
	<path d="M 151.456,191.013 L 156.964,191.013 L 156.964,200.401 L 151.456,200.401 L 151.456,191.013" fill="#000000" height="9.388" width="5.508" x="151.456" y="191.013"/>
	<path d="M 151.456,174.177 L 156.964,174.177 L 156.964,183.565 L 151.456,183.565 L 151.456,174.177" fill="#000000" height="9.388" width="5.508" x="151.456" y="174.177"/>
	<path d="M 151.456,157.393 L 156.964,157.393 L 156.964,166.781 L 151.456,166.781 L 151.456,157.393" fill="#000000" height="9.388" width="5.508" x="151.456" y="157.393"/>
	<path d="M 127.477,204.137 L 182.553,204.137 L 182.553,254.711 L 127.477,254.711 L 127.477,204.137" fill="none" height="50.574" width="55.076" x="127.477" y="204.137"/>
	<path d="M 151.456,241.588 L 156.964,241.588 L 156.964,250.976 L 151.456,250.976 L 151.456,241.588" fill="#000000" height="9.388" width="5.508" x="151.456" y="241.588"/>
	<path d="M 151.456,224.751 L 156.964,224.751 L 156.964,234.139 L 151.456,234.139 L 151.456,224.751" fill="#000000" height="9.388" width="5.508" x="151.456" y="224.751"/>
	<path d="M 151.456,207.969 L 156.964,207.969 L 156.964,217.357 L 151.456,217.357 L 151.456,207.969" fill="#000000" height="9.388" width="5.508" x="151.456" y="207.969"/>
	<path d="M 127.477,254.712 L 182.553,254.712 L 182.553,305.286 L 127.477,305.286 L 127.477,254.712" fill="none" height="50.574" width="55.076" x="127.477" y="254.712"/>
	<path d="M 151.456,292.164 L 156.964,292.164 L 156.964,301.55199999999996 L 151.456,301.55199999999996 L 151.456,292.164" fill="#000000" height="9.388" width="5.508" x="151.456" y="292.164"/>
	<path d="M 151.456,275.327 L 156.964,275.327 L 156.964,284.715 L 151.456,284.715 L 151.456,275.327" fill="#000000" height="9.388" width="5.508" x="151.456" y="275.327"/>
	<path d="M 151.456,258.544 L 156.964,258.544 L 156.964,267.93199999999996 L 151.456,267.93199999999996 L 151.456,258.544" fill="#000000" height="9.388" width="5.508" x="151.456" y="258.544"/>
	<path d="M 127.477,305.288 L 182.553,305.288 L 182.553,355.862 L 127.477,355.862 L 127.477,305.288" fill="none" height="50.574" width="55.076" x="127.477" y="305.288"/>
	<path d="M 151.456,342.738 L 156.964,342.738 L 156.964,352.126 L 151.456,352.126 L 151.456,342.738" fill="#000000" height="9.388" width="5.508" x="151.456" y="342.738"/>
	<path d="M 151.456,325.902 L 156.964,325.902 L 156.964,335.28999999999996 L 151.456,335.28999999999996 L 151.456,325.902" fill="#000000" height="9.388" width="5.508" x="151.456" y="325.902"/>
	<path d="M 151.456,309.12 L 156.964,309.12 L 156.964,318.508 L 151.456,318.508 L 151.456,309.12" fill="#000000" height="9.388" width="5.508" x="151.456" y="309.12"/>
	<path d="M 127.477,355.863 L 182.553,355.863 L 182.553,406.437 L 127.477,406.437 L 127.477,355.863" fill="none" height="50.574" width="55.076" x="127.477" y="355.863"/>
	<path d="M 151.456,393.315 L 156.964,393.315 L 156.964,402.703 L 151.456,402.703 L 151.456,393.315" fill="#000000" height="9.388" width="5.508" x="151.456" y="393.315"/>
	<path d="M 151.456,376.476 L 156.964,376.476 L 156.964,385.864 L 151.456,385.864 L 151.456,376.476" fill="#000000" height="9.388" width="5.508" x="151.456" y="376.476"/>
	<path d="M 151.456,359.694 L 156.964,359.694 L 156.964,369.082 L 151.456,369.082 L 151.456,359.694" fill="#000000" height="9.388" width="5.508" x="151.456" y="359.694"/>
	<path d="M 127.477,406.439 L 182.553,406.439 L 182.553,457.01300000000003 L 127.477,457.01300000000003 L 127.477,406.439" fill="none" height="50.574" width="55.076" x="127.477" y="406.439"/>
	<path d="M 151.456,443.889 L 156.964,443.889 L 156.964,453.277 L 151.456,453.277 L 151.456,443.889" fill="#000000" height="9.388" width="5.508" x="151.456" y="443.889"/>
	<path d="M 151.456,427.052 L 156.964,427.052 L 156.964,436.44 L 151.456,436.44 L 151.456,427.052" fill="#000000" height="9.388" width="5.508" x="151.456" y="427.052"/>
	<path d="M 151.456,410.271 L 156.964,410.271 L 156.964,419.659 L 151.456,419.659 L 151.456,410.271" fill="#000000" height="9.388" width="5.508" x="151.456" y="410.271"/>
	<path d="M 127.477,457.013 L 182.553,457.013 L 182.553,507.587 L 127.477,507.587 L 127.477,457.013" fill="none" height="50.574" width="55.076" x="127.477" y="457.013"/>
	<path d="M 151.456,494.465 L 156.964,494.465 L 156.964,503.85299999999995 L 151.456,503.85299999999995 L 151.456,494.465" fill="#000000" height="9.388" width="5.508" x="151.456" y="494.465"/>
	<path d="M 151.456,477.627 L 156.964,477.627 L 156.964,487.015 L 151.456,487.015 L 151.456,477.627" fill="#000000" height="9.388" width="5.508" x="151.456" y="477.627"/>
	<path d="M 151.456,460.845 L 156.964,460.845 L 156.964,470.233 L 151.456,470.233 L 151.456,460.845" fill="#000000" height="9.388" width="5.508" x="151.456" y="460.845"/>
	<path d="M 127.477,507.589 L 182.553,507.589 L 182.553,558.163 L 127.477,558.163 L 127.477,507.589" fill="none" height="50.574" width="55.076" x="127.477" y="507.589"/>
	<path d="M 151.456,545.04 L 156.964,545.04 L 156.964,554.428 L 151.456,554.428 L 151.456,545.04" fill="#000000" height="9.388" width="5.508" x="151.456" y="545.04"/>
	<path d="M 151.456,528.203 L 156.964,528.203 L 156.964,537.591 L 151.456,537.591 L 151.456,528.203" fill="#000000" height="9.388" width="5.508" x="151.456" y="528.203"/>
	<path d="M 151.456,511.421 L 156.964,511.421 L 156.964,520.809 L 151.456,520.809 L 151.456,511.421" fill="#000000" height="9.388" width="5.508" x="151.456" y="511.421"/>
	<path d="M 775.61,1.836 L 830.686,1.836 L 830.686,52.41 L 775.61,52.41 L 775.61,1.836" fill="none" height="50.574" width="55.076" x="775.61" y="1.836"/>
	<path d="M 799.587,39.286 L 805.095,39.286 L 805.095,48.674 L 799.587,48.674 L 799.587,39.286" fill="#000000" height="9.388" width="5.508" x="799.587" y="39.286"/>
	<path d="M 799.587,22.45 L 805.095,22.45 L 805.095,31.838 L 799.587,31.838 L 799.587,22.45" fill="#000000" height="9.388" width="5.508" x="799.587" y="22.45"/>
	<path d="M 799.587,5.668 L 805.095,5.668 L 805.095,15.056000000000001 L 799.587,15.056000000000001 L 799.587,5.668" fill="#000000" height="9.388" width="5.508" x="799.587" y="5.668"/>
	<path d="M 775.61,52.41 L 830.686,52.41 L 830.686,102.984 L 775.61,102.984 L 775.61,52.41" fill="none" height="50.574" width="55.076" x="775.61" y="52.41"/>
	<path d="M 799.587,89.863 L 805.095,89.863 L 805.095,99.251 L 799.587,99.251 L 799.587,89.863" fill="#000000" height="9.388" width="5.508" x="799.587" y="89.863"/>
	<path d="M 799.587,73.026 L 805.095,73.026 L 805.095,82.414 L 799.587,82.414 L 799.587,73.026" fill="#000000" height="9.388" width="5.508" x="799.587" y="73.026"/>
	<path d="M 799.587,56.244 L 805.095,56.244 L 805.095,65.632 L 799.587,65.632 L 799.587,56.244" fill="#000000" height="9.388" width="5.508" x="799.587" y="56.244"/>
	<path d="M 775.61,102.987 L 830.686,102.987 L 830.686,153.56099999999998 L 775.61,153.56099999999998 L 775.61,102.987" fill="none" height="50.574" width="55.076" x="775.61" y="102.987"/>
	<path d="M 799.587,140.437 L 805.095,140.437 L 805.095,149.82500000000002 L 799.587,149.82500000000002 L 799.587,140.437" fill="#000000" height="9.388" width="5.508" x="799.587" y="140.437"/>
	<path d="M 799.587,123.6 L 805.095,123.6 L 805.095,132.988 L 799.587,132.988 L 799.587,123.6" fill="#000000" height="9.388" width="5.508" x="799.587" y="123.6"/>
	<path d="M 799.587,106.819 L 805.095,106.819 L 805.095,116.20700000000001 L 799.587,116.20700000000001 L 799.587,106.819" fill="#000000" height="9.388" width="5.508" x="799.587" y="106.819"/>
	<path d="M 775.61,153.561 L 830.686,153.561 L 830.686,204.135 L 775.61,204.135 L 775.61,153.561" fill="none" height="50.574" width="55.076" x="775.61" y="153.561"/>
	<path d="M 799.587,191.013 L 805.095,191.013 L 805.095,200.401 L 799.587,200.401 L 799.587,191.013" fill="#000000" height="9.388" width="5.508" x="799.587" y="191.013"/>
	<path d="M 799.587,174.177 L 805.095,174.177 L 805.095,183.565 L 799.587,183.565 L 799.587,174.177" fill="#000000" height="9.388" width="5.508" x="799.587" y="174.177"/>
	<path d="M 799.587,157.393 L 805.095,157.393 L 805.095,166.781 L 799.587,166.781 L 799.587,157.393" fill="#000000" height="9.388" width="5.508" x="799.587" y="157.393"/>
	<path d="M 775.61,204.137 L 830.686,204.137 L 830.686,254.711 L 775.61,254.711 L 775.61,204.137" fill="none" height="50.574" width="55.076" x="775.61" y="204.137"/>
	<path d="M 799.587,241.588 L 805.095,241.588 L 805.095,250.976 L 799.587,250.976 L 799.587,241.588" fill="#000000" height="9.388" width="5.508" x="799.587" y="241.588"/>
	<path d="M 799.587,224.751 L 805.095,224.751 L 805.095,234.139 L 799.587,234.139 L 799.587,224.751" fill="#000000" height="9.388" width="5.508" x="799.587" y="224.751"/>
	<path d="M 799.587,207.969 L 805.095,207.969 L 805.095,217.357 L 799.587,217.357 L 799.587,207.969" fill="#000000" height="9.388" width="5.508" x="799.587" y="207.969"/>
	<path d="M 775.61,254.712 L 830.686,254.712 L 830.686,305.286 L 775.61,305.286 L 775.61,254.712" fill="none" height="50.574" width="55.076" x="775.61" y="254.712"/>
	<path d="M 799.587,292.164 L 805.095,292.164 L 805.095,301.55199999999996 L 799.587,301.55199999999996 L 799.587,292.164" fill="#000000" height="9.388" width="5.508" x="799.587" y="292.164"/>
	<path d="M 799.587,275.327 L 805.095,275.327 L 805.095,284.715 L 799.587,284.715 L 799.587,275.327" fill="#000000" height="9.388" width="5.508" x="799.587" y="275.327"/>
	<path d="M 799.587,258.544 L 805.095,258.544 L 805.095,267.93199999999996 L 799.587,267.93199999999996 L 799.587,258.544" fill="#000000" height="9.388" width="5.508" x="799.587" y="258.544"/>
	<path d="M 775.61,305.288 L 830.686,305.288 L 830.686,355.862 L 775.61,355.862 L 775.61,305.288" fill="none" height="50.574" width="55.076" x="775.61" y="305.288"/>
	<path d="M 799.587,342.738 L 805.095,342.738 L 805.095,352.126 L 799.587,352.126 L 799.587,342.738" fill="#000000" height="9.388" width="5.508" x="799.587" y="342.738"/>
	<path d="M 799.587,325.902 L 805.095,325.902 L 805.095,335.28999999999996 L 799.587,335.28999999999996 L 799.587,325.902" fill="#000000" height="9.388" width="5.508" x="799.587" y="325.902"/>
	<path d="M 799.587,309.12 L 805.095,309.12 L 805.095,318.508 L 799.587,318.508 L 799.587,309.12" fill="#000000" height="9.388" width="5.508" x="799.587" y="309.12"/>
	<path d="M 775.61,355.863 L 830.686,355.863 L 830.686,406.437 L 775.61,406.437 L 775.61,355.863" fill="none" height="50.574" width="55.076" x="775.61" y="355.863"/>
	<path d="M 799.587,393.315 L 805.095,393.315 L 805.095,402.703 L 799.587,402.703 L 799.587,393.315" fill="#000000" height="9.388" width="5.508" x="799.587" y="393.315"/>
	<path d="M 799.587,376.476 L 805.095,376.476 L 805.095,385.864 L 799.587,385.864 L 799.587,376.476" fill="#000000" height="9.388" width="5.508" x="799.587" y="376.476"/>
	<path d="M 799.587,359.694 L 805.095,359.694 L 805.095,369.082 L 799.587,369.082 L 799.587,359.694" fill="#000000" height="9.388" width="5.508" x="799.587" y="359.694"/>
	<path d="M 775.61,406.439 L 830.686,406.439 L 830.686,457.01300000000003 L 775.61,457.01300000000003 L 775.61,406.439" fill="none" height="50.574" width="55.076" x="775.61" y="406.439"/>
	<path d="M 799.587,443.889 L 805.095,443.889 L 805.095,453.277 L 799.587,453.277 L 799.587,443.889" fill="#000000" height="9.388" width="5.508" x="799.587" y="443.889"/>
	<path d="M 799.587,427.052 L 805.095,427.052 L 805.095,436.44 L 799.587,436.44 L 799.587,427.052" fill="#000000" height="9.388" width="5.508" x="799.587" y="427.052"/>
	<path d="M 799.587,410.271 L 805.095,410.271 L 805.095,419.659 L 799.587,419.659 L 799.587,410.271" fill="#000000" height="9.388" width="5.508" x="799.587" y="410.271"/>
	<path d="M 775.61,457.013 L 830.686,457.013 L 830.686,507.587 L 775.61,507.587 L 775.61,457.013" fill="none" height="50.574" width="55.076" x="775.61" y="457.013"/>
	<path d="M 799.587,494.465 L 805.095,494.465 L 805.095,503.85299999999995 L 799.587,503.85299999999995 L 799.587,494.465" fill="#000000" height="9.388" width="5.508" x="799.587" y="494.465"/>
	<path d="M 799.587,477.627 L 805.095,477.627 L 805.095,487.015 L 799.587,487.015 L 799.587,477.627" fill="#000000" height="9.388" width="5.508" x="799.587" y="477.627"/>
	<path d="M 799.587,460.845 L 805.095,460.845 L 805.095,470.233 L 799.587,470.233 L 799.587,460.845" fill="#000000" height="9.388" width="5.508" x="799.587" y="460.845"/>
	<path d="M 775.61,507.589 L 830.686,507.589 L 830.686,558.163 L 775.61,558.163 L 775.61,507.589" fill="none" height="50.574" width="55.076" x="775.61" y="507.589"/>
	<path d="M 799.587,545.04 L 805.095,545.04 L 805.095,554.428 L 799.587,554.428 L 799.587,545.04" fill="#000000" height="9.388" width="5.508" x="799.587" y="545.04"/>
	<path d="M 799.587,528.203 L 805.095,528.203 L 805.095,537.591 L 799.587,537.591 L 799.587,528.203" fill="#000000" height="9.388" width="5.508" x="799.587" y="528.203"/>
	<path d="M 799.587,511.421 L 805.095,511.421 L 805.095,520.809 L 799.587,520.809 L 799.587,511.421" fill="#000000" height="9.388" width="5.508" x="799.587" y="511.421"/>
	<path d="M 668.719,480.542 L 677.157,480.542 L 677.157,546.636 L 668.719,546.636 L 668.719,480.542" height="66.094" width="8.438" x="668.719" y="480.542"/>
	<path d="M 679.969,480.542 L 684.1880000000001,480.542 L 684.1880000000001,546.636 L 679.969,546.636 L 679.969,480.542" height="66.094" width="4.219" x="679.969" y="480.542"/>
	<path d="M 687.0,480.542 L 696.844,480.542 L 696.844,546.636 L 687.0,546.636 L 687.0,480.542" height="66.094" width="9.844" x="687" y="480.542"/>
	<path d="M 699.657,480.542 L 702.469,480.542 L 702.469,546.636 L 699.657,546.636 L 699.657,480.542" height="66.094" width="2.812" x="699.657" y="480.542"/>
	<path d="M 705.281,480.542 L 710.906,480.542 L 710.906,546.636 L 705.281,546.636 L 705.281,480.542" height="66.094" width="5.625" x="705.281" y="480.542"/>
	<path d="M 713.719,480.542 L 716.5310000000001,480.542 L 716.5310000000001,546.636 L 713.719,546.636 L 713.719,480.542" height="66.094" width="2.812" x="713.719" y="480.542"/>
	<path d="M 719.344,480.542 L 726.3760000000001,480.542 L 726.3760000000001,546.636 L 719.344,546.636 L 719.344,480.542" height="66.094" width="7.032" x="719.344" y="480.542"/>
	<path d="M 729.188,480.542 L 739.032,480.542 L 739.032,546.636 L 729.188,546.636 L 729.188,480.542" height="66.094" width="9.844" x="729.188" y="480.542"/>
	<path d="M 741.844,480.542 L 744.6560000000001,480.542 L 744.6560000000001,546.636 L 741.844,546.636 L 741.844,480.542" height="66.094" width="2.812" x="741.844" y="480.542"/>
	<path d="M 747.469,480.542 L 753.094,480.542 L 753.094,546.636 L 747.469,546.636 L 747.469,480.542" height="66.094" width="5.625" x="747.469" y="480.542"/>
	<path d="M 755.907,480.542 L 758.719,480.542 L 758.719,546.636 L 755.907,546.636 L 755.907,480.542" height="66.094" width="2.812" x="755.907" y="480.542"/>
</svg>
