<?xml version="1.0" ?>
<svg xmlns="http://www.w3.org/2000/svg" xmlns:ev="http://www.w3.org/2001/xml-events" xmlns:xlink="http://www.w3.org/1999/xlink" baseProfile="full" enable-background="new 0 0 70.339 100" height="600px" version="1.1" viewBox="0 0 70.339 100" width="423px" x="0px" xml:space="preserve" y="0px">
	<defs/>
	<path d="M 35.171,28.241 C 42.967,28.233 49.292,21.911 49.292,14.12 C 49.292,6.305999999999999 42.968,-0.017000000000001236 35.171,0.0 C 27.365,-0.018 21.042,6.306 21.048000000000002,14.12 C 21.042,21.911 27.365,28.233 35.171,28.241 L 35.171,28.241"/>
	<path d="M 35.171,57.791 L 20.198,57.791 L 20.198,46.956 L 8.798,58.47 C 3.633,63.635 -3.359,57.022 1.822,51.835 L 20.707,32.891999999999996 C 22.249000000000002,31.383999999999997 23.927,30.415999999999997 26.606,30.394999999999996 L 35.171,30.394999999999996 L 35.171,30.394999999999996 L 43.564,30.394999999999996 C 46.21,30.415999999999997 48.006,31.354999999999997 49.575,32.891999999999996 L 68.688,52.06099999999999 C 73.605,56.956999999999994 66.424,63.63399999999999 61.712,58.638999999999996 L 49.972,46.9 L 49.972,57.79 L 35.171,57.79 L 35.171,57.791 L 35.171,57.791"/>
	<path d="M 49.915,63.349 L 38.688,74.577 L 46.966,82.798 L 38.518,91.25 C 33.517,96.227 40.391,103.354 45.547,98.227 L 58.875,84.33200000000001 C 61.762,81.393 62.553,75.992 59.501,72.933 C 59.47,72.911 49.915,63.349 49.915,63.349 L 49.915,63.349"/>
	<path d="M 20.198,63.349 L 31.427,74.577 L 23.206,82.798 L 31.656,91.25 C 36.623,96.227 29.75,103.354 24.621,98.227 L 11.236,84.332 C 8.379000000000001,81.393 7.587000000000001,75.99199999999999 10.67,72.93299999999999 C 10.67,72.911 20.198,63.349 20.198,63.349 L 20.198,63.349"/>
</svg>
