<?xml version="1.0" ?>
<svg xmlns="http://www.w3.org/2000/svg" xmlns:ev="http://www.w3.org/2001/xml-events" xmlns:xlink="http://www.w3.org/1999/xlink" baseProfile="full" enable-background="new 0 0 100 64" height="385px" version="1.1" viewBox="0 0 100 64" width="600px" x="0px" xml:space="preserve" y="0px">
	<defs/>
	<path d="M 24.0,5.0 L 24.0,0.0 L 7.0,0.0 L 7.0,5.0 L 0.0,5.0 L 0.0,64.0 L 100.0,64.0 L 100.0,5.0 L 24.0,5.0 M 16.0,58.0 L 6.0,58.0 L 6.0,11.0 L 16.0,11.0 L 16.0,58.0 M 58.157,58.1 C 45.125,58.1 34.559999999999995,47.536 34.559999999999995,34.504000000000005 C 34.559999999999995,21.472000000000005 45.123999999999995,10.908000000000005 58.157,10.908000000000005 C 71.19,10.908000000000005 81.75399999999999,21.472000000000005 81.75399999999999,34.504000000000005 C 81.754,47.535 71.189,58.1 58.157,58.1 M 96.0,16.0 L 79.0,16.0 L 79.0,8.0 L 96.0,8.0 L 96.0,16.0"/>
	<path cx="58.157" cy="34.504" d="M 45.160999999999994,34.504 A 12.996,12.996 0.0 1,0 71.15299999999999,34.504 A 12.996000000000004,12.996000000000004 0.0 1,0 45.16099999999999,34.504" r="12.996"/>
</svg>
