<?xml version="1.0" ?>
<svg xmlns="http://www.w3.org/2000/svg" xmlns:ev="http://www.w3.org/2001/xml-events" xmlns:xlink="http://www.w3.org/1999/xlink" baseProfile="full" enable-background="new 0 0 100 100" height="600px" version="1.1" viewBox="0 0 100 100" width="600px" x="0px" xml:space="preserve" y="0px">
	<defs/>
	<path d="M 47.165,75.0 L 41.835,75.0 C 40.27,75.0 39.0,76.27 39.0,77.834 L 39.0,91.166 C 39.0,92.73 40.27,94.0 41.835,94.0 L 47.165,94.0 C 48.73,94.0 50.0,92.73 50.0,91.166 L 50.0,77.834 C 50.0,76.27 48.73,75.0 47.165,75.0"/>
	<path d="M 91.597,0.0 L 8.403,0.0 C 3.762,0.0 0.0,3.801 0.0,8.488 L 0.0,81.511 C 3.634,85.145 15.081,96.678 18.403,100.0 L 91.596,100.0 C 96.23700000000001,100.0 99.99900000000001,96.199 99.99900000000001,91.512 L 99.99900000000001,8.488 C 100.0,3.801 96.237,0.0 91.597,0.0 M 85.0,3.0 L 85.0,14.0 L 15.0,14.0 L 15.0,3.0 L 85.0,3.0 M 85.0,15.0 L 85.0,27.0 L 15.0,27.0 L 15.0,15.0 L 85.0,15.0 M 85.0,97.0 L 33.0,97.0 L 33.0,76.67 C 33.0,73.538 35.538,71.0 38.669,71.0 L 79.33099999999999,71.0 C 82.462,71.0 85.0,73.538 85.0,76.67 L 85.0,97.0 M 81.995,42.0 L 18.005000000000003,42.0 C 16.346,42.0 15.0,40.655 15.0,38.996 L 15.0,28.0 L 85.0,28.0 L 85.0,38.996 C 85.0,40.655 83.654,42.0 81.995,42.0"/>
</svg>
