<?xml version="1.0" ?>
<svg xmlns="http://www.w3.org/2000/svg" xmlns:ev="http://www.w3.org/2001/xml-events" xmlns:xlink="http://www.w3.org/1999/xlink" baseProfile="full" enable-background="new 0 0 1024 768" height="553px" version="1.1" viewBox="0 0 1024 768" width="600px" x="0px" xml:space="preserve" y="0px">
	<defs/>
	<path d="M 569.661,486.305 L 554.025,448.78000000000003 C 540.086,456.41400000000004 524.088,460.761 507.077,460.761 C 490.143,460.761 474.214,456.46000000000004 460.321,448.88800000000003 L 444.49300000000005,490.03700000000003 L 474.3910000000001,531.14 L 409.4570000000001,657.2529999999999 L 504.2740000000001,713.3019999999999 L 604.6980000000001,657.2529999999999 L 539.7710000000001,531.1469999999999 L 569.661,486.305"/>
	<path d="M 347.372,431.186 L 335.184,401.941 C 324.317,407.893 311.85200000000003,411.28 298.58900000000006,411.28 C 285.38700000000006,411.28 272.97600000000006,407.924 262.14700000000005,402.02599999999995 L 249.81300000000005,434.09799999999996 L 273.11400000000003,466.131 L 222.51000000000005,564.42 L 296.40700000000004,608.1039999999999 L 374.67400000000004,564.42 L 324.07,466.13 L 347.372,431.186"/>
	<path d="M 350.013,351.713 C 333.74699999999996,324.39500000000004 324.36899999999997,292.485 324.36899999999997,258.386 C 324.36899999999997,221.26100000000002 335.467,186.747 354.48999999999995,157.92400000000004 C 338.06199999999995,148.30100000000004 319.001,142.68700000000004 298.58699999999993,142.68700000000004 C 237.36199999999994,142.68700000000004 187.72599999999994,192.32300000000004 187.72599999999994,253.54800000000006 C 187.72599999999994,314.7730000000001 237.36199999999994,364.40900000000005 298.58699999999993,364.40900000000005 C 317.166,364.408 334.638,359.785 350.013,351.713"/>
	<path d="M 774.188,434.097 L 761.854,402.025 C 751.0250000000001,407.923 738.614,411.279 725.412,411.279 C 712.149,411.279 699.6840000000001,407.892 688.817,401.94 L 676.629,431.185 L 699.9300000000001,466.129 L 649.326,564.418 L 727.5930000000001,608.102 L 801.4900000000001,564.418 L 750.8860000000001,466.129 L 774.188,434.097"/>
	<path d="M 725.404,142.679 C 704.991,142.679 685.929,148.293 669.501,157.916 C 688.524,186.74699999999999 699.622,221.261 699.622,258.378 C 699.622,292.485 690.252,324.388 673.9789999999999,351.705 C 689.3539999999999,359.777 706.8259999999999,364.4 725.3969999999999,364.4 C 786.622,364.4 836.2579999999999,314.76399999999995 836.2579999999999,253.539 C 836.265,192.315 786.629,142.679 725.404,142.679"/>
	<path d="M 507.077,116.137 C 428.51800000000003,116.137 364.828,179.82 364.828,258.38599999999997 C 364.828,336.95199999999994 428.51099999999997,400.635 507.077,400.635 C 585.636,400.635 649.326,336.945 649.326,258.38599999999997 C 649.326,179.82699999999994 585.636,116.137 507.077,116.137 M 533.78,196.186 C 545.576,196.186 555.1379999999999,205.74800000000002 555.1379999999999,217.544 C 555.1379999999999,229.34 545.5759999999999,238.90200000000002 533.78,238.90200000000002 C 521.984,238.90200000000002 512.422,229.34 512.422,217.544 C 512.43,205.747 521.992,196.186 533.78,196.186 M 472.847,196.186 C 484.643,196.186 494.205,205.74800000000002 494.205,217.544 C 494.205,229.34 484.643,238.90200000000002 472.847,238.90200000000002 C 461.051,238.90200000000002 451.489,229.34 451.489,217.544 C 451.489,205.747 461.051,196.186 472.847,196.186 M 507.077,347.098 C 458.793,347.098 419.51,307.815 419.51,259.523 C 419.51,252.85700000000003 424.909,247.45800000000003 431.575,247.45800000000003 C 438.241,247.45800000000003 443.64,252.85700000000003 443.64,259.523 C 443.64,294.505 472.094,322.96700000000004 507.077,322.96700000000004 C 542.06,322.96700000000004 570.521,294.51300000000003 570.521,259.523 C 570.521,252.85700000000003 575.92,247.45800000000003 582.586,247.45800000000003 C 589.2520000000001,247.45800000000003 594.6510000000001,252.85700000000003 594.6510000000001,259.523 C 594.644,307.814 555.361,347.098 507.077,347.098"/>
</svg>
