<?xml version="1.0" ?>
<svg xmlns="http://www.w3.org/2000/svg" xmlns:ev="http://www.w3.org/2001/xml-events" xmlns:xlink="http://www.w3.org/1999/xlink" baseProfile="full" enable-background="new 0 0 100 100" height="600px" version="1.1" viewBox="0 0 100 100" width="451px" x="0px" xml:space="preserve" y="0px">
	<defs/>
	<path d="M 49.751,26.364 C 68.973,26.364 82.56899999999999,21.402 83.502,16.756 L 83.502,16.25 C 83.502,10.037 68.391,5.0 49.75,5.0 C 31.111,5.0 16.0,10.037 16.0,16.25 L 16.0,16.756 C 16.931,21.402 30.528,26.364 49.751,26.364" fill="#000000"/>
	<path d="M 83.502,61.25 L 83.502,61.25 L 83.502,43.32 C 81.658,45.011 78.743,46.519 74.80699999999999,47.786 C 68.09799999999998,49.946 59.19999999999999,51.136 49.75099999999999,51.136 C 40.30199999999999,51.136 31.40399999999999,49.946000000000005 24.69499999999999,47.786 C 20.758,46.52 17.843,45.011 16.0,43.32 L 16.0,61.25 L 16.0,61.25 L 16.0,61.25 L 16.0,61.756 C 16.931,66.402 30.528,71.364 49.751,71.364 C 68.973,71.364 82.56899999999999,66.402 83.502,61.756 L 83.502,61.25 L 83.502,61.25" fill="#000000"/>
	<path d="M 49.751,48.864 C 68.973,48.864 82.56899999999999,43.902 83.502,39.256 L 83.502,38.75 L 83.502,38.75 L 83.502,38.75 L 83.502,20.82 C 81.658,22.511 78.743,24.019 74.80699999999999,25.286 C 68.09799999999998,27.446 59.19999999999999,28.636000000000003 49.75099999999999,28.636000000000003 C 40.30199999999999,28.636000000000003 31.40399999999999,27.446 24.69499999999999,25.286 C 20.758,24.02 17.843,22.511 16.0,20.82 L 16.0,38.75 L 16.0,38.75 L 16.0,38.75 L 16.0,39.255 C 16.931,43.902 30.528,48.864 49.751,48.864" fill="#000000"/>
	<path d="M 49.751,73.637 C 40.302,73.637 31.403999999999996,72.44800000000001 24.694999999999997,70.287 C 20.758,69.02 17.843,67.512 16.0,65.82 L 16.0,83.75 C 16.0,89.963 31.111,95.0 49.75,95.0 C 68.39,95.0 83.501,89.963 83.501,83.75 L 83.501,65.82 C 81.65700000000001,67.511 78.742,69.01899999999999 74.80600000000001,70.28699999999999 C 68.098,72.447 59.199,73.637 49.751,73.637" fill="#000000"/>
	<path d="M 80.568,38.084 C 80.16199999999999,39.6 78.603,40.830000000000005 77.088,40.830000000000005 C 75.571,40.830000000000005 74.67099999999999,39.601000000000006 75.077,38.084 C 75.483,36.567 77.04299999999999,35.338 78.559,35.338 C 80.075,35.338 80.976,36.567 80.568,38.084" fill="#000000"/>
	<path d="M 80.568,59.833 C 80.16199999999999,61.35 78.603,62.579 77.088,62.579 C 75.571,62.579 74.67099999999999,61.35 75.077,59.833 C 75.483,58.317 77.04299999999999,57.086999999999996 78.559,57.086999999999996 C 80.075,57.087 80.976,58.317 80.568,59.833" fill="#000000"/>
	<path d="M 80.568,83.046 C 80.16199999999999,84.563 78.603,85.792 77.088,85.792 C 75.571,85.792 74.67099999999999,84.563 75.077,83.046 C 75.483,81.53 77.04299999999999,80.30000000000001 78.559,80.30000000000001 C 80.075,80.3 80.976,81.53 80.568,83.046" fill="#000000"/>
</svg>
