<?xml version="1.0" ?>
<svg xmlns="http://www.w3.org/2000/svg" xmlns:ev="http://www.w3.org/2001/xml-events" xmlns:xlink="http://www.w3.org/1999/xlink" baseProfile="full" enable-background="new 0 0 100 100" height="600px" version="1.1" viewBox="0 0 100 100" width="344px" x="0px" xml:space="preserve" y="0px">
	<defs/>
	<path d="M 60.007,53.008 L 39.993,53.008 C 38.892,53.008 38.0,53.904 38.0,55.009 L 38.0,93.007 C 38.0,94.111 38.892,95.00800000000001 39.993,95.00800000000001 L 60.008,95.00800000000001 C 61.108000000000004,95.00800000000001 62.001000000000005,94.11200000000001 62.001000000000005,93.007 L 62.001000000000005,55.009 C 62.0,53.905 61.107,53.008 60.007,53.008 M 58.014,57.01 L 58.014,87.007 L 41.985,87.007 L 41.985,57.01 L 58.014,57.01 M 50.0,93.007 C 48.896,93.007 48.0,92.11200000000001 48.0,91.007 C 48.0,89.903 48.896,89.007 50.0,89.007 C 51.104,89.007 51.997,89.903 51.997,91.007 C 51.997,92.113 51.104,93.007 50.0,93.007"/>
</svg>
