<?xml version="1.0" ?>
<svg xmlns="http://www.w3.org/2000/svg" xmlns:ev="http://www.w3.org/2001/xml-events" xmlns:xlink="http://www.w3.org/1999/xlink" baseProfile="full" enable-background="new 0 0 100 100" height="600px" version="1.1" viewBox="0 0 100 100" width="350px" x="0px" xml:space="preserve" y="0px">
	<defs/>
	<path d="M 71.985,-4.688 L 80.793,-7.188 C 80.793,-7.188 71.49600000000001,-26.988999999999997 71.733,-16.101" fill="#000000" stroke="#010202" stroke-miterlimit="10"/>
	<path d="M 65.221,48.644 L 60.334,45.722 C 64.156,41.698 67.916,36.749 61.334,38.472 L 56.118,39.839 C 56.986000000000004,34.183 57.406,27.119999999999997 52.805,32.561 L 49.065,36.988 C 46.199999999999996,32.132999999999996 42.283,26.798000000000002 42.192,33.751 L 42.136,38.285 C 37.122,36.227999999999994 31.588,34.684999999999995 35.548,39.98 L 38.337,43.705999999999996 C 32.878,44.300999999999995 27.014000000000003,45.608999999999995 33.120000000000005,48.403999999999996 L 37.325,50.324999999999996 C 33.344,54.105 29.482000000000003,58.696 36.038000000000004,57.24699999999999 L 40.846000000000004,56.181999999999995 C 39.17400000000001,61.608999999999995 37.884,67.99799999999999 42.989000000000004,63.239999999999995 L 46.893,59.59499999999999 C 48.688,64.851 51.333,70.49799999999999 52.834,63.85499999999999 L 54.056000000000004,58.43099999999999 C 59.104000000000006,61.12599999999999 65.57000000000001,63.78999999999999 62.169000000000004,57.54199999999999 L 59.50300000000001,52.64699999999999 C 64.996,52.695 70.983,52.094 65.221,48.644 M 46.474,53.144 C 43.928999999999995,51.751 43.068,48.425 44.550999999999995,45.714 C 46.03399999999999,43.004999999999995 49.3,41.939 51.84499999999999,43.330999999999996 C 54.389999999999986,44.72299999999999 55.25099999999999,48.05 53.76899999999999,50.75899999999999 C 52.284,53.47 49.019,54.537 46.474,53.144"/>
	<path cx="49.16" cy="48.236" d="M 43.906,48.236 A 5.2540000000000004,5.5920000000000005 0.0 1,0 54.414,48.236 A 5.254,5.592 0.0 1,0 43.906000000000006,48.236" fill="#000000" rx="5.254" ry="5.592" transform="matrix(0.8772 0.4801 -0.4801 0.8772 29.1945 -17.6788)"/>
</svg>
