<?xml version="1.0" ?>
<svg xmlns="http://www.w3.org/2000/svg" xmlns:ev="http://www.w3.org/2001/xml-events" xmlns:xlink="http://www.w3.org/1999/xlink" baseProfile="full" enable-background="new 0 0 100 100" height="600px" version="1.1" viewBox="0 0 100 100" width="600px" x="0px" xml:space="preserve" y="0px">
	<defs/>
	<path d="M 50.0,82.101 C 32.3,82.101 17.899,67.701 17.899,50.0 C 17.899,32.29900000000001 32.3,17.899 50.0,17.899 C 67.7,17.899 82.101,32.3 82.101,50.0 C 82.101,67.7 67.7,82.101 50.0,82.101 M 50.0,19.899 C 33.402,19.899 19.899,33.402 19.899,50.0 C 19.899,66.598 33.402,80.101 50.0,80.101 C 66.598,80.101 80.101,66.598 80.101,50.0 C 80.101,33.402 66.598,19.899 50.0,19.899"/>
	<path d="M 64.034,49.33 C 64.034,49.33 51.26100000000001,47.681 51.452000000000005,50.266999999999996 C 51.646,52.851 64.034,49.33 64.034,49.33" fill="#000000" stroke="#000000" stroke-miterlimit="10"/>
	<path d="M 50.075,27.293 C 50.075,27.293 45.67400000000001,48.117999999999995 49.959,48.143 C 54.241,48.167 50.075,27.293 50.075,27.293"/>
	<path d="M 48.848,50.0 A 1.152000000000001,1.152000000000001 0.0 1,0 51.152,50.0 A 1.152000000000001,1.152000000000001 0.0 1,0 48.848,50.0"/>
	<path cx="50" cy="50" d="M 45.462,21.146 L 54.538000000000004,21.146 L 54.538000000000004,26.656 L 45.462,26.656 L 45.462,21.146" r="1.152"/>
	<path d="M 73.344,45.462 L 78.854,45.462 L 78.854,54.538000000000004 L 73.344,54.538000000000004 L 73.344,45.462" fill="none" height="5.51" width="9.076" x="45.462" y="21.146"/>
	<path d="M 45.462,73.344 L 54.537000000000006,73.344 L 54.537000000000006,78.854 L 45.462,78.854 L 45.462,73.344" fill="none" height="9.076" width="5.51" x="73.344" y="45.462"/>
	<path d="M 21.146,45.462 L 26.656,45.462 L 26.656,54.537000000000006 L 21.146,54.537000000000006 L 21.146,45.462" fill="none" height="5.51" width="9.075" x="45.462" y="73.344"/>
	<path d="M 32.413,24.643 L 41.489,24.643 L 41.489,30.153 L 32.413,30.153 L 32.413,24.643" fill="none" height="9.075" width="5.51" x="21.146" y="45.462"/>
	<path d="M 68.064,34.196 L 77.13999999999999,34.196 L 77.13999999999999,39.705999999999996 L 68.064,39.705999999999996 L 68.064,34.196" fill="none" height="5.51" transform="matrix(0.866 -0.5 0.5 0.866 -8.7487 22.147)" width="9.076" x="32.413" y="24.643"/>
	<path d="M 58.512,69.848 L 67.586,69.848 L 67.586,75.358 L 58.512,75.358 L 58.512,69.848" fill="none" height="5.51" transform="matrix(0.5 0.866 -0.866 0.5 68.3 -44.3997)" width="9.076" x="68.064" y="34.196"/>
	<path d="M 22.86,60.294 L 31.935,60.294 L 31.935,65.804 L 22.86,65.804 L 22.86,60.294" fill="none" height="5.51" transform="matrix(-0.866 0.5 -0.5 -0.866 153.9522 103.9532)" width="9.074" x="58.512" y="69.848"/>
	<path d="M 22.86,34.196 L 31.936,34.196 L 31.936,39.705999999999996 L 22.86,39.705999999999996 L 22.86,34.196" fill="none" height="5.51" transform="matrix(-0.5 -0.866 0.866 -0.5 -13.5058 118.301)" width="9.075" x="22.86" y="60.294"/>
	<path d="M 58.512,24.644 L 67.587,24.644 L 67.587,30.153999999999996 L 58.512,30.153999999999996 L 58.512,24.644" fill="none" height="5.51" transform="matrix(0.5 -0.866 0.866 0.5 -18.3012 42.2036)" width="9.076" x="22.86" y="34.196"/>
	<path d="M 68.064,60.295 L 77.13799999999999,60.295 L 77.13799999999999,65.805 L 68.064,65.805 L 68.064,60.295" fill="none" height="5.51" transform="matrix(0.866 0.5 -0.5 0.866 22.1487 -27.8558)" width="9.075" x="58.512" y="24.644"/>
	<path d="M 32.413,69.848 L 41.488,69.848 L 41.488,75.357 L 32.413,75.357 L 32.413,69.848" fill="none" height="5.51" transform="matrix(-0.5 0.866 -0.866 -0.5 163.5052 31.7004)" width="9.074" x="68.064" y="60.295"/>
</svg>
