<?xml version="1.0" ?>
<svg xmlns="http://www.w3.org/2000/svg" xmlns:ev="http://www.w3.org/2001/xml-events" xmlns:xlink="http://www.w3.org/1999/xlink" baseProfile="full" enable-background="new 0 0 88 102.7" height="600px" version="1.1" viewBox="0 0 88 102.7" width="515px" x="0px" xml:space="preserve" y="0px">
	<defs/>
	<path d="M 3.2,93.3 L 71.8,93.3 C 73.3,93.3 74.5,92.1 74.5,90.6 L 74.5,14.0 C 74.5,12.5 73.3,11.3 71.8,11.3 L 3.2,11.3 C 1.7000000000000002,11.3 0.5,12.5 0.5,14.0 L 0.5,90.6 C 0.5,92.1 1.7,93.3 3.2,93.3" fill="none" stroke="#000000" stroke-miterlimit="10"/>
	<path d="M 16.7,11.3 L 69.8,2.6000000000000014 L 69.5,1.7000000000000015 C 69.2,0.9000000000000015 68.4,0.40000000000000147 67.6,0.6000000000000014 L 2.5999999999999943,11.400000000000002" fill="none" stroke="#000000" stroke-miterlimit="10"/>
	<path d="M 56.3,40.9 C 39.8,40.9 26.299999999999997,54.4 26.299999999999997,70.9 C 26.299999999999997,87.4 39.8,100.9 56.3,100.9 C 72.8,100.9 86.3,87.4 86.3,70.9 C 86.3,54.4 72.8,40.9 56.3,40.9 M 56.3,80.1 C 51.199999999999996,80.1 47.099999999999994,76.0 47.099999999999994,70.89999999999999 C 47.099999999999994,65.8 51.199999999999996,61.69999999999999 56.3,61.69999999999999 C 61.4,61.69999999999999 65.5,65.79999999999998 65.5,70.89999999999999 C 65.5,76.0 61.3,80.1 56.3,80.1"/>
	<path d="M 56.2,39.2 C 38.7,39.2 24.400000000000002,53.400000000000006 24.400000000000002,70.9 C 24.400000000000002,88.4 38.6,102.7 56.2,102.7 C 73.80000000000001,102.7 88.0,88.5 88.0,70.9 C 88.0,53.30000000000001 73.8,39.2 56.2,39.2 M 56.2,102.0 C 39.1,102.0 25.1,88.1 25.1,70.9 C 25.1,53.70000000000002 39.0,39.800000000000004 56.2,39.800000000000004 C 73.4,39.800000000000004 87.30000000000001,53.7 87.30000000000001,70.9 C 87.30000000000001,88.10000000000001 73.4,102.0 56.2,102.0"/>
	<path d="M 56.2,62.5 C 51.5,62.5 47.800000000000004,66.3 47.800000000000004,70.9 C 47.800000000000004,75.60000000000001 51.6,79.30000000000001 56.2,79.30000000000001 C 60.900000000000006,79.30000000000001 64.60000000000001,75.50000000000001 64.60000000000001,70.9 C 64.7,66.3 60.9,62.5 56.2,62.5 M 56.2,75.4 C 53.7,75.4 51.800000000000004,73.4 51.800000000000004,71.0 C 51.800000000000004,68.5 53.800000000000004,66.6 56.2,66.6 C 58.7,66.6 60.6,68.6 60.6,71.0 C 60.7,73.4 58.7,75.4 56.2,75.4"/>
	<path d="M 1.1,12.3 L 2.4,9.3" display="none" fill="none" stroke="#000000" stroke-miterlimit="10" x1="1.1" x2="2.4" y1="12.3" y2="9.3"/>
	<path d="M 1.0,20.3 L 75.0,20.3" fill="none" stroke="#000000" stroke-miterlimit="10" x1="1" x2="75" y1="20.3" y2="20.3"/>
	<path d="M 69.8,2.6 L 70.2,10.8" fill="none" stroke="#000000" stroke-miterlimit="10" x1="69.8" x2="70.2" y1="2.6" y2="10.8"/>
</svg>
