<?xml version="1.0" ?>
<svg xmlns="http://www.w3.org/2000/svg" xmlns:ev="http://www.w3.org/2001/xml-events" xmlns:xlink="http://www.w3.org/1999/xlink" baseProfile="full" enable-background="new 0 0 75 93.8" height="600px" version="1.1" viewBox="0 0 75 93.8" width="483px" x="0px" xml:space="preserve" y="0px">
	<defs/>
	<path d="M 3.2,93.3 L 71.8,93.3 C 73.3,93.3 74.5,92.1 74.5,90.6 L 74.5,14.0 C 74.5,12.5 73.3,11.3 71.8,11.3 L 3.2,11.3 C 1.7000000000000002,11.3 0.5,12.5 0.5,14.0 L 0.5,90.6 C 0.5,92.1 1.7,93.3 3.2,93.3" fill="none" stroke="#000000" stroke-miterlimit="10"/>
	<path d="M 16.7,11.3 L 69.8,2.6000000000000014 L 69.5,1.7000000000000015 C 69.2,0.9000000000000015 68.4,0.40000000000000147 67.6,0.6000000000000014 L 2.5999999999999943,11.400000000000002" fill="none" stroke="#000000" stroke-miterlimit="10"/>
	<path d="M 1.1,12.3 L 2.4,9.3" display="none" fill="none" stroke="#000000" stroke-miterlimit="10" x1="1.1" x2="2.4" y1="12.3" y2="9.3"/>
	<path d="M 1.0,20.3 L 75.0,20.3" fill="none" stroke="#000000" stroke-miterlimit="10" x1="1" x2="75" y1="20.3" y2="20.3"/>
	<path d="M 69.8,2.6 L 70.2,10.8" fill="none" stroke="#000000" stroke-miterlimit="10" x1="69.8" x2="70.2" y1="2.6" y2="10.8"/>
</svg>
