<?xml version="1.0" ?>
<svg xmlns="http://www.w3.org/2000/svg" xmlns:ev="http://www.w3.org/2001/xml-events" xmlns:xlink="http://www.w3.org/1999/xlink" baseProfile="full" enable-background="new 0 0 100 100" height="600px" version="1.1" viewBox="0 0 100 100" width="427px" x="0px" xml:space="preserve" y="0px">
	<defs/>
	<path d="M 70.0,62.0 L 67.392,62.0 L 54.37,75.024 L 43.0,77.612 L 43.0,79.0 L 30.0,79.0 L 30.0,76.0 L 42.667,76.0 L 45.017,65.672 L 48.689,62.0 L 30.0,62.0 L 30.0,59.0 L 51.689,59.0 L 65.688,45.0 L 30.0,45.0 L 30.0,42.0 L 68.688,42.0 L 80.0,30.687 L 80.0,20.0 L 65.0,20.0 L 65.0,5.0 L 20.0,5.0 L 20.0,95.0 L 80.0,95.0 L 80.0,49.391 L 70.0,59.392 L 70.0,62.0 M 30.0,25.0 L 70.0,25.0 L 70.0,28.0 L 30.0,28.0 L 30.0,25.0"/>
	<path d="M 68.0,5.0 L 68.0,17.0 L 80.0,17.0 L 68.0,5.0" points="68,5 68,17 80,17  "/>
	<path d="M 74.654,40.276 L 74.654,40.276 L 47.75,67.182 L 46.246,73.796 L 52.86,72.291 L 79.764,45.384 L 74.654,40.276" points="74.654,40.276 74.654,40.276 47.75,67.182 46.246,73.796 52.86,72.291 79.764,45.384  "/>
	<path d="M 78.185,35.371 L 83.926,35.371 L 83.926,42.597 L 78.185,42.597 L 78.185,35.371" height="7.226" transform="matrix(0.7071 -0.7071 0.7071 0.7071 -3.8237 68.7361)" width="5.741" x="78.185" y="35.371"/>
</svg>
