<?xml version="1.0" ?>
<svg xmlns="http://www.w3.org/2000/svg" xmlns:ev="http://www.w3.org/2001/xml-events" xmlns:xlink="http://www.w3.org/1999/xlink" baseProfile="full" enable-background="new 0 0 100 100" height="600px" version="1.1" viewBox="0 0 100 100" width="485px" x="0px" xml:space="preserve" y="0px">
	<defs/>
	<path d="M 30.608,44.241 C 29.435000000000002,44.451 28.438000000000002,46.569 28.438000000000002,46.569 L 15.843,69.02 C 15.843,69.02 13.939,72.416 15.33,74.268 C 17.05,76.557 29.872999999999998,85.606 29.872999999999998,85.606 L 30.179999999999996,74.756 L 27.258999999999997,72.219 L 27.402999999999995,58.638999999999996 L 48.36999999999999,65.625 L 67.77699999999999,58.794 L 67.77699999999999,72.30199999999999 L 64.77599999999998,76.49199999999999 L 65.11299999999999,85.66699999999999 L 78.17999999999998,76.338 C 78.17999999999998,76.338 80.32199999999997,74.70299999999999 80.44299999999998,72.222 C 80.60999999999999,68.80499999999999 67.34399999999998,47.19 67.34399999999998,47.19 C 67.34399999999998,47.19 66.60999999999999,45.143 64.04699999999998,44.393 C 64.048,44.393 30.742,44.218 30.608,44.241" fill="#000000"/>
	<path d="M 65.113,85.667 L 47.493,92.9 L 29.874,85.605 L 29.874,62.483 L 47.493,69.099 L 65.113,62.483 L 65.113,85.667" fill="#000000" points="65.113,85.667 47.493,92.9 29.874,85.605 29.874,62.483 47.493,69.099 65.113,62.483 "/>
	<path cx="47.494" cy="26.81" d="M 32.278999999999996,26.81 A 15.215,15.215 0.0 1,0 62.708999999999996,26.81 A 15.215,15.215 0.0 1,0 32.278999999999996,26.81" fill="#000000" r="15.215"/>
</svg>
