<?xml version="1.0" ?>
<svg xmlns="http://www.w3.org/2000/svg" xmlns:ev="http://www.w3.org/2001/xml-events" xmlns:xlink="http://www.w3.org/1999/xlink" baseProfile="full" enable-background="new 0 0 100 100" height="505px" version="1.1" viewBox="0 0 100 100" width="600px" x="0px" xml:space="preserve" y="0px">
	<defs/>
	<path d="M 97.339,23.593 C 97.339,20.84 95.107,18.607 92.353,18.607 C 91.401,18.607 90.52,18.887999999999998 89.76299999999999,19.351 C 88.106,17.36 85.61099999999999,16.091 82.81899999999999,16.091 C 81.35799999999999,16.091 79.98299999999999,16.446 78.761,17.062 C 77.27799999999999,16.065 75.49199999999999,15.482000000000001 73.571,15.482000000000001 C 68.42399999999999,15.482000000000001 64.251,19.655 64.251,24.803 C 64.251,27.247 65.199,29.464 66.73700000000001,31.126 C 65.20400000000001,32.284 64.20800000000001,34.116 64.20800000000001,36.186 C 64.20800000000001,39.69 67.049,42.53 70.552,42.53 C 72.96300000000001,42.53 75.06,41.185 76.134,39.204 C 77.197,41.106 79.228,42.394 81.561,42.394 C 83.355,42.394 84.96700000000001,41.629 86.10100000000001,40.413 C 90.44900000000001,39.135999999999996 93.62500000000001,35.123 93.62500000000001,30.362999999999996 C 93.62500000000001,29.708999999999996 93.55800000000002,29.070999999999994 93.44200000000001,28.449999999999996 C 95.67,27.954 97.339,25.972 97.339,23.593 M 91.093,28.115 C 91.18900000000001,28.634999999999998 91.245,29.168 91.245,29.715 C 91.245,33.698 88.58200000000001,37.056 84.94,38.119 C 83.993,39.13 82.655,39.771 81.16,39.771 C 79.194,39.771 77.50399999999999,38.666000000000004 76.621,37.056 C 75.72999999999999,38.730999999999995 73.987,39.885 71.957,39.885 C 69.029,39.885 66.654,37.510999999999996 66.654,34.580999999999996 C 66.654,32.851 67.49499999999999,31.329999999999995 68.777,30.360999999999997 C 67.486,28.970999999999997 66.69,27.112999999999996 66.69,25.065999999999995 C 66.69,20.761999999999993 70.178,17.273999999999994 74.481,17.273999999999994 C 76.08699999999999,17.273999999999994 77.58,17.760999999999992 78.82,18.593999999999994 C 79.841,18.078999999999994 80.99,17.781999999999993 82.21199999999999,17.781999999999993 C 84.54599999999999,17.781999999999993 86.63199999999999,18.842999999999993 88.017,20.507999999999992 C 88.64999999999999,20.12099999999999 89.386,19.885999999999992 90.18299999999999,19.885999999999992 C 92.485,19.885999999999992 94.351,21.751999999999992 94.351,24.05399999999999 C 94.351,26.042 92.955,27.699 91.093,28.115" fill="#000000"/>
	<path d="M 32.013,31.755 C 33.607,30.146 34.629999999999995,27.962 34.713,25.52 C 34.887,20.375 30.858,16.061999999999998 25.713,15.888 C 23.792,15.823 21.988,16.345 20.472,17.29 C 19.272000000000002,16.633 17.91,16.232 16.450000000000003,16.183 C 13.659000000000002,16.088 11.123000000000003,17.271 9.400000000000002,19.205 C 8.659000000000002,18.717 7.789000000000002,18.406 6.8370000000000015,18.372999999999998 C 4.085000000000002,18.279999999999998 1.777000000000002,20.435 1.684000000000002,23.186999999999998 C 1.603000000000002,25.563999999999997 3.204000000000002,27.601999999999997 5.4140000000000015,28.174999999999997 C 5.278000000000001,28.791999999999998 5.189000000000002,29.426999999999996 5.167000000000002,30.080999999999996 C 5.005000000000002,34.839 8.045000000000002,38.955999999999996 12.346000000000002,40.379999999999995 C 13.438000000000002,41.63399999999999 15.024000000000001,42.452999999999996 16.817,42.513999999999996 C 19.149,42.593999999999994 21.222,41.37499999999999 22.348,39.51 C 23.352999999999998,41.525999999999996 25.404,42.940999999999995 27.813,43.022999999999996 C 31.314,43.141999999999996 34.25,40.398999999999994 34.369,36.897999999999996 C 34.44,34.83 33.507,32.964 32.013,31.755 M 31.672,35.501 C 31.572,38.428 29.118000000000002,40.721 26.192,40.620999999999995 C 24.163,40.55199999999999 22.461,39.339999999999996 21.627,37.635999999999996 C 20.689999999999998,39.214999999999996 18.964,40.26199999999999 17.0,40.19499999999999 C 15.504999999999999,40.144999999999996 14.189,39.458999999999996 13.276,38.416 C 9.673,37.23 7.125,33.784 7.26,29.801999999999996 C 7.279,29.255999999999997 7.353,28.724999999999994 7.467,28.209999999999997 C 5.619,27.729999999999997 4.282,26.026999999999997 4.349,24.04 C 4.4270000000000005,21.74 6.356,19.936999999999998 8.657,20.016 C 9.453,20.043 10.18,20.302999999999997 10.8,20.711 C 12.24,19.093999999999998 14.361,18.105999999999998 16.694000000000003,18.185 C 17.915000000000003,18.226 19.053000000000004,18.561 20.056000000000004,19.110999999999997 C 21.324000000000005,18.319999999999997 22.832000000000004,17.883999999999997 24.437000000000005,17.938999999999997 C 28.737000000000005,18.084999999999997 32.106,21.689999999999998 31.960000000000004,25.989999999999995 C 31.890000000000004,28.035999999999994 31.031000000000006,29.865999999999996 29.693000000000005,31.211999999999996 C 30.941,32.221 31.731,33.771 31.672,35.501" fill="#000000"/>
	<path d="M 36.428,62.138 L 36.428,95.875 L 62.599999999999994,95.875 L 62.599999999999994,62.138 L 36.428,62.138 M 61.88,95.229 L 37.015,95.229 L 37.015,62.627 L 61.88,62.627 L 61.88,95.229" fill="#000000"/>
	<path d="M 41.012,69.496 C 41.372,69.493 41.667,69.78 41.672,70.14 C 41.677,70.499 41.391,70.795 41.029999999999994,70.798 C 40.672,70.805 40.376999999999995,70.517 40.37,70.159 C 40.365,69.799 40.652,69.503 41.012,69.496" fill="#000000"/>
	<path d="M 44.772,63.993 C 45.132,63.989000000000004 45.425,64.279 45.428,64.637 C 45.43,64.998 45.141999999999996,65.292 44.782,65.295 C 44.422999999999995,65.296 44.12799999999999,65.008 44.125,64.649 C 44.124,64.288 44.413,63.994 44.772,63.993" fill="#000000"/>
	<path cx="53.553" cy="54.33" d="M 50.574999999999996,54.33 A 2.9780000000000015,2.9780000000000015 0.0 1,0 56.531,54.33 A 2.9780000000000015,2.9780000000000015 0.0 1,0 50.574999999999996,54.33" fill="#000000" r="2.978"/>
	<path cx="60.223" cy="45.883" d="M 54.754,45.883 A 5.469,5.469 0.0 1,0 65.692,45.883 A 5.469000000000001,5.469000000000001 0.0 1,0 54.75399999999999,45.883" fill="#000000" r="5.469"/>
	<path cx="44.403" cy="55.39" d="M 41.425,55.39 A 2.9780000000000015,2.9780000000000015 0.0 1,0 47.381,55.39 A 2.9780000000000015,2.9780000000000015 0.0 1,0 41.425,55.39" fill="#000000" r="2.978"/>
	<path cx="38.024" cy="46.722" d="M 32.555,46.722 A 5.469000000000001,5.469000000000001 0.0 1,0 43.493,46.722 A 5.469000000000001,5.469000000000001 0.0 1,0 32.555,46.722" fill="#000000" r="5.469"/>
	<path cx="10.833" cy="24.258" d="M 10.182,24.258 A 0.651,0.651 0.0 1,0 11.484,24.258 A 0.651,0.651 0.0 1,0 10.182,24.258" fill="#000000" r="0.651"/>
	<path cx="12.587" cy="24.138" d="M 11.936,24.138 A 0.651,0.651 0.0 1,0 13.238,24.138 A 0.651,0.651 0.0 1,0 11.936,24.138" fill="#000000" r="0.651"/>
	<path cx="14.599" cy="24" d="M 13.948,24.0 A 0.651,0.651 0.0 1,0 15.25,24.0 A 0.651,0.651 0.0 1,0 13.948,24.0" fill="#000000" r="0.651"/>
	<path cx="16.352" cy="23.88" d="M 15.701,23.88 A 0.651,0.651 0.0 1,0 17.003,23.88 A 0.651,0.651 0.0 1,0 15.701,23.88" fill="#000000" r="0.651"/>
	<path cx="18.364" cy="23.742" d="M 17.713,23.742 A 0.651,0.651 0.0 1,0 19.015,23.742 A 0.651,0.651 0.0 1,0 17.713,23.742" fill="#000000" r="0.651"/>
	<path cx="20.117" cy="23.622" d="M 19.466,23.622 A 0.651,0.651 0.0 1,0 20.768,23.622 A 0.651,0.651 0.0 1,0 19.466,23.622" fill="#000000" r="0.651"/>
	<path cx="22.129" cy="23.484" d="M 21.478,23.484 A 0.651,0.651 0.0 1,0 22.78,23.484 A 0.651,0.651 0.0 1,0 21.478,23.484" fill="#000000" r="0.651"/>
	<path cx="23.882" cy="23.364" d="M 23.231,23.364 A 0.651,0.651 0.0 1,0 24.533,23.364 A 0.651,0.651 0.0 1,0 23.231,23.364" fill="#000000" r="0.651"/>
	<path cx="25.894" cy="23.227" d="M 25.243,23.227 A 0.651,0.651 0.0 1,0 26.544999999999998,23.227 A 0.651,0.651 0.0 1,0 25.243,23.227" fill="#000000" r="0.651"/>
	<path cx="27.647" cy="23.106" d="M 26.996,23.106 A 0.651,0.651 0.0 1,0 28.298,23.106 A 0.651,0.651 0.0 1,0 26.996,23.106" fill="#000000" r="0.651"/>
	<path cx="10.736" cy="26.155" d="M 10.085,26.155 A 0.651,0.651 0.0 1,0 11.387,26.155 A 0.651,0.651 0.0 1,0 10.085,26.155" fill="#000000" r="0.651"/>
	<path cx="12.488" cy="26.036" d="M 11.837,26.036 A 0.651,0.651 0.0 1,0 13.139,26.036 A 0.651,0.651 0.0 1,0 11.837,26.036" fill="#000000" r="0.651"/>
	<path cx="14.5" cy="25.897" d="M 13.849,25.897 A 0.651,0.651 0.0 1,0 15.151,25.897 A 0.651,0.651 0.0 1,0 13.849,25.897" fill="#000000" r="0.651"/>
	<path cx="16.254" cy="25.778" d="M 15.603000000000002,25.778 A 0.651,0.651 0.0 1,0 16.905,25.778 A 0.651,0.651 0.0 1,0 15.603000000000002,25.778" fill="#000000" r="0.651"/>
	<path cx="18.266" cy="25.64" d="M 17.615,25.64 A 0.651,0.651 0.0 1,0 18.916999999999998,25.64 A 0.651,0.651 0.0 1,0 17.615,25.64" fill="#000000" r="0.651"/>
	<path cx="20.019" cy="25.52" d="M 19.368,25.52 A 0.651,0.651 0.0 1,0 20.669999999999998,25.52 A 0.651,0.651 0.0 1,0 19.368,25.52" fill="#000000" r="0.651"/>
	<path cx="22.031" cy="25.382" d="M 21.38,25.382 A 0.651,0.651 0.0 1,0 22.682,25.382 A 0.651,0.651 0.0 1,0 21.38,25.382" fill="#000000" r="0.651"/>
	<path cx="23.784" cy="25.262" d="M 23.133,25.262 A 0.651,0.651 0.0 1,0 24.435,25.262 A 0.651,0.651 0.0 1,0 23.133,25.262" fill="#000000" r="0.651"/>
	<path cx="25.796" cy="25.124" d="M 25.145,25.124 A 0.651,0.651 0.0 1,0 26.447,25.124 A 0.651,0.651 0.0 1,0 25.145,25.124" fill="#000000" r="0.651"/>
	<path cx="27.549" cy="25.004" d="M 26.898,25.004 A 0.651,0.651 0.0 1,0 28.2,25.004 A 0.651,0.651 0.0 1,0 26.898,25.004" fill="#000000" r="0.651"/>
	<path cx="10.638" cy="28.053" d="M 9.987,28.053 A 0.651,0.651 0.0 1,0 11.289,28.053 A 0.651,0.651 0.0 1,0 9.987,28.053" fill="#000000" r="0.651"/>
	<path cx="12.39" cy="27.933" d="M 11.739,27.933 A 0.651,0.651 0.0 1,0 13.041,27.933 A 0.651,0.651 0.0 1,0 11.739,27.933" fill="#000000" r="0.651"/>
	<path cx="14.403" cy="27.796" d="M 13.752,27.796 A 0.651,0.651 0.0 1,0 15.054,27.796 A 0.651,0.651 0.0 1,0 13.752,27.796" fill="#000000" r="0.651"/>
	<path cx="16.156" cy="27.675" d="M 15.504999999999999,27.675 A 0.651,0.651 0.0 1,0 16.807,27.675 A 0.651,0.651 0.0 1,0 15.504999999999999,27.675" fill="#000000" r="0.651"/>
	<path cx="18.167" cy="27.538" d="M 17.516000000000002,27.538 A 0.651,0.651 0.0 1,0 18.818,27.538 A 0.651,0.651 0.0 1,0 17.516000000000002,27.538" fill="#000000" r="0.651"/>
	<path cx="19.921" cy="27.417" d="M 19.27,27.417 A 0.651,0.651 0.0 1,0 20.572,27.417 A 0.651,0.651 0.0 1,0 19.27,27.417" fill="#000000" r="0.651"/>
	<path cx="21.933" cy="27.28" d="M 21.282,27.28 A 0.651,0.651 0.0 1,0 22.584,27.28 A 0.651,0.651 0.0 1,0 21.282,27.28" fill="#000000" r="0.651"/>
	<path cx="23.686" cy="27.16" d="M 23.035,27.16 A 0.651,0.651 0.0 1,0 24.337,27.16 A 0.651,0.651 0.0 1,0 23.035,27.16" fill="#000000" r="0.651"/>
	<path cx="25.698" cy="27.022" d="M 25.047,27.022 A 0.651,0.651 0.0 1,0 26.349,27.022 A 0.651,0.651 0.0 1,0 25.047,27.022" fill="#000000" r="0.651"/>
	<path cx="27.451" cy="26.902" d="M 26.8,26.902 A 0.651,0.651 0.0 1,0 28.102,26.902 A 0.651,0.651 0.0 1,0 26.8,26.902" fill="#000000" r="0.651"/>
	<path cx="10.54" cy="29.952" d="M 9.889,29.952 A 0.651,0.651 0.0 1,0 11.190999999999999,29.952 A 0.651,0.651 0.0 1,0 9.889,29.952" fill="#000000" r="0.651"/>
	<path cx="12.292" cy="29.831" d="M 11.641,29.831 A 0.651,0.651 0.0 1,0 12.943,29.831 A 0.651,0.651 0.0 1,0 11.641,29.831" fill="#000000" r="0.651"/>
	<path cx="14.305" cy="29.694" d="M 13.654,29.694 A 0.651,0.651 0.0 1,0 14.956,29.694 A 0.651,0.651 0.0 1,0 13.654,29.694" fill="#000000" r="0.651"/>
	<path cx="16.057" cy="29.573" d="M 15.405999999999999,29.573 A 0.651,0.651 0.0 1,0 16.708,29.573 A 0.651,0.651 0.0 1,0 15.405999999999999,29.573" fill="#000000" r="0.651"/>
	<path cx="18.07" cy="29.436" d="M 17.419,29.436 A 0.651,0.651 0.0 1,0 18.721,29.436 A 0.651,0.651 0.0 1,0 17.419,29.436" fill="#000000" r="0.651"/>
	<path cx="19.823" cy="29.316" d="M 19.172,29.316 A 0.651,0.651 0.0 1,0 20.474,29.316 A 0.651,0.651 0.0 1,0 19.172,29.316" fill="#000000" r="0.651"/>
	<path cx="21.834" cy="29.178" d="M 21.183,29.178 A 0.651,0.651 0.0 1,0 22.485,29.178 A 0.651,0.651 0.0 1,0 21.183,29.178" fill="#000000" r="0.651"/>
	<path cx="23.588" cy="29.058" d="M 22.937,29.058 A 0.651,0.651 0.0 1,0 24.239,29.058 A 0.651,0.651 0.0 1,0 22.937,29.058" fill="#000000" r="0.651"/>
	<path cx="25.6" cy="28.92" d="M 24.949,28.92 A 0.651,0.651 0.0 1,0 26.251,28.92 A 0.651,0.651 0.0 1,0 24.949,28.92" fill="#000000" r="0.651"/>
	<path cx="27.353" cy="28.8" d="M 26.702,28.8 A 0.651,0.651 0.0 1,0 28.004,28.8 A 0.651,0.651 0.0 1,0 26.702,28.8" fill="#000000" r="0.651"/>
	<path cx="10.441" cy="31.849" d="M 9.790000000000001,31.849 A 0.651,0.651 0.0 1,0 11.092,31.849 A 0.651,0.651 0.0 1,0 9.790000000000001,31.849" fill="#000000" r="0.651"/>
	<path cx="12.194" cy="31.729" d="M 11.543000000000001,31.729 A 0.651,0.651 0.0 1,0 12.845,31.729 A 0.651,0.651 0.0 1,0 11.543000000000001,31.729" fill="#000000" r="0.651"/>
	<path cx="14.207" cy="31.591" d="M 13.556000000000001,31.591 A 0.651,0.651 0.0 1,0 14.858,31.591 A 0.651,0.651 0.0 1,0 13.556000000000001,31.591" fill="#000000" r="0.651"/>
	<path cx="15.959" cy="31.472" d="M 15.308,31.472 A 0.651,0.651 0.0 1,0 16.61,31.472 A 0.651,0.651 0.0 1,0 15.308,31.472" fill="#000000" r="0.651"/>
	<path cx="17.972" cy="31.333" d="M 17.321,31.333 A 0.651,0.651 0.0 1,0 18.623,31.333 A 0.651,0.651 0.0 1,0 17.321,31.333" fill="#000000" r="0.651"/>
	<path cx="19.724" cy="31.214" d="M 19.073,31.214 A 0.651,0.651 0.0 1,0 20.375,31.214 A 0.651,0.651 0.0 1,0 19.073,31.214" fill="#000000" r="0.651"/>
	<path cx="21.737" cy="31.076" d="M 21.086,31.076 A 0.651,0.651 0.0 1,0 22.387999999999998,31.076 A 0.651,0.651 0.0 1,0 21.086,31.076" fill="#000000" r="0.651"/>
	<path cx="23.49" cy="30.956" d="M 22.839,30.956 A 0.651,0.651 0.0 1,0 24.141,30.956 A 0.651,0.651 0.0 1,0 22.839,30.956" fill="#000000" r="0.651"/>
	<path cx="25.502" cy="30.818" d="M 24.851,30.818 A 0.651,0.651 0.0 1,0 26.153,30.818 A 0.651,0.651 0.0 1,0 24.851,30.818" fill="#000000" r="0.651"/>
	<path cx="27.255" cy="30.698" d="M 26.604,30.698 A 0.651,0.651 0.0 1,0 27.906,30.698 A 0.651,0.651 0.0 1,0 26.604,30.698" fill="#000000" r="0.651"/>
	<path cx="10.343" cy="33.747" d="M 9.692,33.747 A 0.651,0.651 0.0 1,0 10.994,33.747 A 0.651,0.651 0.0 1,0 9.692,33.747" fill="#000000" r="0.651"/>
	<path cx="12.096" cy="33.627" d="M 11.445,33.627 A 0.651,0.651 0.0 1,0 12.747,33.627 A 0.651,0.651 0.0 1,0 11.445,33.627" fill="#000000" r="0.651"/>
	<path cx="14.108" cy="33.489" d="M 13.457,33.489 A 0.651,0.651 0.0 1,0 14.759,33.489 A 0.651,0.651 0.0 1,0 13.457,33.489" fill="#000000" r="0.651"/>
	<path cx="15.861" cy="33.369" d="M 15.21,33.369 A 0.651,0.651 0.0 1,0 16.512,33.369 A 0.651,0.651 0.0 1,0 15.21,33.369" fill="#000000" r="0.651"/>
	<path cx="17.874" cy="33.231" d="M 17.223,33.231 A 0.651,0.651 0.0 1,0 18.525,33.231 A 0.651,0.651 0.0 1,0 17.223,33.231" fill="#000000" r="0.651"/>
	<path cx="19.626" cy="33.111" d="M 18.975,33.111 A 0.651,0.651 0.0 1,0 20.277,33.111 A 0.651,0.651 0.0 1,0 18.975,33.111" fill="#000000" r="0.651"/>
	<path cx="21.639" cy="32.974" d="M 20.988,32.974 A 0.651,0.651 0.0 1,0 22.29,32.974 A 0.651,0.651 0.0 1,0 20.988,32.974" fill="#000000" r="0.651"/>
	<path cx="23.391" cy="32.854" d="M 22.74,32.854 A 0.651,0.651 0.0 1,0 24.041999999999998,32.854 A 0.651,0.651 0.0 1,0 22.74,32.854" fill="#000000" r="0.651"/>
	<path cx="25.403" cy="32.716" d="M 24.752,32.716 A 0.651,0.651 0.0 1,0 26.054,32.716 A 0.651,0.651 0.0 1,0 24.752,32.716" fill="#000000" r="0.651"/>
	<path cx="27.157" cy="32.596" d="M 26.506,32.596 A 0.651,0.651 0.0 1,0 27.808,32.596 A 0.651,0.651 0.0 1,0 26.506,32.596" fill="#000000" r="0.651"/>
	<path cx="39.231" cy="81.42" d="M 38.58,81.42 A 0.651,0.651 0.0 1,0 39.882,81.42 A 0.651,0.651 0.0 1,0 38.58,81.42" fill="#000000" r="0.651"/>
	<path cx="39.217" cy="79.663" d="M 38.565999999999995,79.663 A 0.651,0.651 0.0 1,0 39.867999999999995,79.663 A 0.651,0.651 0.0 1,0 38.565999999999995,79.663" fill="#000000" r="0.651"/>
	<path cx="39.2" cy="77.646" d="M 38.549,77.646 A 0.651,0.651 0.0 1,0 39.851,77.646 A 0.651,0.651 0.0 1,0 38.549,77.646" fill="#000000" r="0.651"/>
	<path cx="39.186" cy="75.89" d="M 38.535,75.89 A 0.651,0.651 0.0 1,0 39.836999999999996,75.89 A 0.651,0.651 0.0 1,0 38.535,75.89" fill="#000000" r="0.651"/>
	<path cx="39.169" cy="73.872" d="M 38.517999999999994,73.872 A 0.651,0.651 0.0 1,0 39.81999999999999,73.872 A 0.651,0.651 0.0 1,0 38.517999999999994,73.872" fill="#000000" r="0.651"/>
	<path cx="39.155" cy="72.116" d="M 38.504,72.116 A 0.651,0.651 0.0 1,0 39.806,72.116 A 0.651,0.651 0.0 1,0 38.504,72.116" fill="#000000" r="0.651"/>
	<path cx="39.138" cy="70.098" d="M 38.486999999999995,70.098 A 0.651,0.651 0.0 1,0 39.788999999999994,70.098 A 0.651,0.651 0.0 1,0 38.486999999999995,70.098" fill="#000000" r="0.651"/>
	<path cx="39.124" cy="68.342" d="M 38.473,68.342 A 0.651,0.651 0.0 1,0 39.775,68.342 A 0.651,0.651 0.0 1,0 38.473,68.342" fill="#000000" r="0.651"/>
	<path cx="39.107" cy="66.326" d="M 38.455999999999996,66.326 A 0.651,0.651 0.0 1,0 39.757999999999996,66.326 A 0.651,0.651 0.0 1,0 38.455999999999996,66.326" fill="#000000" r="0.651"/>
	<path cx="39.093" cy="64.568" d="M 38.443000000000005,64.568 A 0.65,0.65 0.0 1,0 39.743,64.568 A 0.65,0.65 0.0 1,0 38.443000000000005,64.568" fill="#000000" r="0.65"/>
	<path cx="41.186" cy="81.469" d="M 40.536,81.469 A 0.65,0.65 0.0 1,0 41.836,81.469 A 0.65,0.65 0.0 1,0 40.536,81.469" fill="#000000" r="0.65"/>
	<path cx="41.161" cy="79.712" d="M 40.51,79.712 A 0.651,0.651 0.0 1,0 41.812,79.712 A 0.651,0.651 0.0 1,0 40.51,79.712" fill="#000000" r="0.651"/>
	<path cx="41.131" cy="77.696" d="M 40.48,77.696 A 0.651,0.651 0.0 1,0 41.782,77.696 A 0.651,0.651 0.0 1,0 40.48,77.696" fill="#000000" r="0.651"/>
	<path cx="41.106" cy="75.939" d="M 40.455,75.939 A 0.651,0.651 0.0 1,0 41.757,75.939 A 0.651,0.651 0.0 1,0 40.455,75.939" fill="#000000" r="0.651"/>
	<path cx="41.076" cy="73.922" d="M 40.425,73.922 A 0.651,0.651 0.0 1,0 41.727,73.922 A 0.651,0.651 0.0 1,0 40.425,73.922" fill="#000000" r="0.651"/>
	<path cx="41.051" cy="72.166" d="M 40.4,72.166 A 0.651,0.651 0.0 1,0 41.702,72.166 A 0.651,0.651 0.0 1,0 40.4,72.166" fill="#000000" r="0.651"/>
	<path cx="40.996" cy="68.392" d="M 40.345,68.392 A 0.651,0.651 0.0 1,0 41.647,68.392 A 0.651,0.651 0.0 1,0 40.345,68.392" fill="#000000" r="0.651"/>
	<path cx="40.966" cy="66.376" d="M 40.316,66.376 A 0.65,0.65 0.0 1,0 41.616,66.376 A 0.65,0.65 0.0 1,0 40.316,66.376" fill="#000000" r="0.65"/>
	<path cx="40.941" cy="64.618" d="M 40.291000000000004,64.618 A 0.65,0.65 0.0 1,0 41.591,64.618 A 0.65,0.65 0.0 1,0 40.291000000000004,64.618" fill="#000000" r="0.65"/>
	<path cx="43.138" cy="81.418" d="M 42.488,81.418 A 0.65,0.65 0.0 1,0 43.788,81.418 A 0.65,0.65 0.0 1,0 42.488,81.418" fill="#000000" r="0.65"/>
	<path cx="43.112" cy="79.662" d="M 42.461,79.662 A 0.651,0.651 0.0 1,0 43.763,79.662 A 0.651,0.651 0.0 1,0 42.461,79.662" fill="#000000" r="0.651"/>
	<path cx="43.082" cy="77.645" d="M 42.431,77.645 A 0.651,0.651 0.0 1,0 43.733,77.645 A 0.651,0.651 0.0 1,0 42.431,77.645" fill="#000000" r="0.651"/>
	<path cx="43.057" cy="75.887" d="M 42.406,75.887 A 0.651,0.651 0.0 1,0 43.708,75.887 A 0.651,0.651 0.0 1,0 42.406,75.887" fill="#000000" r="0.651"/>
	<path cx="43.027" cy="73.871" d="M 42.376,73.871 A 0.651,0.651 0.0 1,0 43.678,73.871 A 0.651,0.651 0.0 1,0 42.376,73.871" fill="#000000" r="0.651"/>
	<path cx="43" cy="72.114" d="M 42.35,72.114 A 0.65,0.65 0.0 1,0 43.65,72.114 A 0.65,0.65 0.0 1,0 42.35,72.114" fill="#000000" r="0.65"/>
	<path cx="42.97" cy="70.097" d="M 42.32,70.097 A 0.65,0.65 0.0 1,0 43.62,70.097 A 0.65,0.65 0.0 1,0 42.32,70.097" fill="#000000" r="0.65"/>
	<path cx="42.945" cy="68.34" d="M 42.294,68.34 A 0.651,0.651 0.0 1,0 43.596,68.34 A 0.651,0.651 0.0 1,0 42.294,68.34" fill="#000000" r="0.651"/>
	<path cx="42.915" cy="66.325" d="M 42.263999999999996,66.325 A 0.651,0.651 0.0 1,0 43.565999999999995,66.325 A 0.651,0.651 0.0 1,0 42.263999999999996,66.325" fill="#000000" r="0.651"/>
	<path cx="42.889" cy="64.567" d="M 42.239000000000004,64.567 A 0.65,0.65 0.0 1,0 43.539,64.567 A 0.65,0.65 0.0 1,0 42.239000000000004,64.567" fill="#000000" r="0.65"/>
	<path cx="44.908" cy="81.495" d="M 44.257,81.495 A 0.651,0.651 0.0 1,0 45.559,81.495 A 0.651,0.651 0.0 1,0 44.257,81.495" fill="#000000" r="0.651"/>
	<path cx="44.895" cy="79.739" d="M 44.244,79.739 A 0.651,0.651 0.0 1,0 45.546,79.739 A 0.651,0.651 0.0 1,0 44.244,79.739" fill="#000000" r="0.651"/>
	<path cx="44.879" cy="77.721" d="M 44.227999999999994,77.721 A 0.651,0.651 0.0 1,0 45.529999999999994,77.721 A 0.651,0.651 0.0 1,0 44.227999999999994,77.721" fill="#000000" r="0.651"/>
	<path cx="44.865" cy="75.965" d="M 44.214,75.965 A 0.651,0.651 0.0 1,0 45.516,75.965 A 0.651,0.651 0.0 1,0 44.214,75.965" fill="#000000" r="0.651"/>
	<path cx="44.85" cy="73.947" d="M 44.2,73.947 A 0.65,0.65 0.0 1,0 45.5,73.947 A 0.65,0.65 0.0 1,0 44.2,73.947" fill="#000000" r="0.65"/>
	<path cx="44.836" cy="72.191" d="M 44.184999999999995,72.191 A 0.651,0.651 0.0 1,0 45.486999999999995,72.191 A 0.651,0.651 0.0 1,0 44.184999999999995,72.191" fill="#000000" r="0.651"/>
	<path cx="44.82" cy="70.174" d="M 44.169,70.174 A 0.651,0.651 0.0 1,0 45.471,70.174 A 0.651,0.651 0.0 1,0 44.169,70.174" fill="#000000" r="0.651"/>
	<path cx="44.807" cy="68.417" d="M 44.157000000000004,68.417 A 0.65,0.65 0.0 1,0 45.457,68.417 A 0.65,0.65 0.0 1,0 44.157000000000004,68.417" fill="#000000" r="0.65"/>
	<path cx="44.792" cy="66.399" d="M 44.141,66.399 A 0.651,0.651 0.0 1,0 45.443,66.399 A 0.651,0.651 0.0 1,0 44.141,66.399" fill="#000000" r="0.651"/>
	<path cx="46.802" cy="81.495" d="M 46.150999999999996,81.495 A 0.651,0.651 0.0 1,0 47.452999999999996,81.495 A 0.651,0.651 0.0 1,0 46.150999999999996,81.495" fill="#000000" r="0.651"/>
	<path cx="46.8" cy="79.738" d="M 46.148999999999994,79.738 A 0.651,0.651 0.0 1,0 47.45099999999999,79.738 A 0.651,0.651 0.0 1,0 46.148999999999994,79.738" fill="#000000" r="0.651"/>
	<path cx="46.795" cy="77.721" d="M 46.144,77.721 A 0.651,0.651 0.0 1,0 47.446,77.721 A 0.651,0.651 0.0 1,0 46.144,77.721" fill="#000000" r="0.651"/>
	<path cx="46.793" cy="75.964" d="M 46.141999999999996,75.964 A 0.651,0.651 0.0 1,0 47.443999999999996,75.964 A 0.651,0.651 0.0 1,0 46.141999999999996,75.964" fill="#000000" r="0.651"/>
	<path cx="46.789" cy="73.947" d="M 46.138,73.947 A 0.651,0.651 0.0 1,0 47.44,73.947 A 0.651,0.651 0.0 1,0 46.138,73.947" fill="#000000" r="0.651"/>
	<path cx="46.787" cy="72.19" d="M 46.135999999999996,72.19 A 0.651,0.651 0.0 1,0 47.437999999999995,72.19 A 0.651,0.651 0.0 1,0 46.135999999999996,72.19" fill="#000000" r="0.651"/>
	<path cx="46.782" cy="70.173" d="M 46.13099999999999,70.173 A 0.651,0.651 0.0 1,0 47.43299999999999,70.173 A 0.651,0.651 0.0 1,0 46.13099999999999,70.173" fill="#000000" r="0.651"/>
	<path cx="46.78" cy="68.417" d="M 46.129,68.417 A 0.651,0.651 0.0 1,0 47.431,68.417 A 0.651,0.651 0.0 1,0 46.129,68.417" fill="#000000" r="0.651"/>
	<path cx="46.776" cy="66.398" d="M 46.125,66.398 A 0.651,0.651 0.0 1,0 47.427,66.398 A 0.651,0.651 0.0 1,0 46.125,66.398" fill="#000000" r="0.651"/>
	<path cx="46.774" cy="64.643" d="M 46.123,64.643 A 0.651,0.651 0.0 1,0 47.425,64.643 A 0.651,0.651 0.0 1,0 46.123,64.643" fill="#000000" r="0.651"/>
	<path cx="48.69" cy="81.451" d="M 48.038999999999994,81.451 A 0.651,0.651 0.0 1,0 49.340999999999994,81.451 A 0.651,0.651 0.0 1,0 48.038999999999994,81.451" fill="#000000" r="0.651"/>
	<path cx="48.675" cy="79.693" d="M 48.023999999999994,79.693 A 0.651,0.651 0.0 1,0 49.32599999999999,79.693 A 0.651,0.651 0.0 1,0 48.023999999999994,79.693" fill="#000000" r="0.651"/>
	<path cx="48.657" cy="77.676" d="M 48.007,77.676 A 0.65,0.65 0.0 1,0 49.306999999999995,77.676 A 0.65,0.65 0.0 1,0 48.007,77.676" fill="#000000" r="0.65"/>
	<path cx="48.642" cy="75.92" d="M 47.992000000000004,75.92 A 0.65,0.65 0.0 1,0 49.292,75.92 A 0.65,0.65 0.0 1,0 47.992000000000004,75.92" fill="#000000" r="0.65"/>
	<path cx="48.625" cy="73.902" d="M 47.975,73.902 A 0.65,0.65 0.0 1,0 49.275,73.902 A 0.65,0.65 0.0 1,0 47.975,73.902" fill="#000000" r="0.65"/>
	<path cx="48.61" cy="72.146" d="M 47.958999999999996,72.146 A 0.651,0.651 0.0 1,0 49.260999999999996,72.146 A 0.651,0.651 0.0 1,0 47.958999999999996,72.146" fill="#000000" r="0.651"/>
	<path cx="48.592" cy="70.128" d="M 47.940999999999995,70.128 A 0.651,0.651 0.0 1,0 49.242999999999995,70.128 A 0.651,0.651 0.0 1,0 47.940999999999995,70.128" fill="#000000" r="0.651"/>
	<path cx="48.577" cy="68.373" d="M 47.925999999999995,68.373 A 0.651,0.651 0.0 1,0 49.227999999999994,68.373 A 0.651,0.651 0.0 1,0 47.925999999999995,68.373" fill="#000000" r="0.651"/>
	<path cx="48.56" cy="66.355" d="M 47.910000000000004,66.355 A 0.65,0.65 0.0 1,0 49.21,66.355 A 0.65,0.65 0.0 1,0 47.910000000000004,66.355" fill="#000000" r="0.65"/>
	<path cx="48.545" cy="64.598" d="M 47.894,64.598 A 0.651,0.651 0.0 1,0 49.196,64.598 A 0.651,0.651 0.0 1,0 47.894,64.598" fill="#000000" r="0.651"/>
	<path d="M 69.172,22.413 L 70.619,22.413 L 70.619,23.359 L 69.172,23.359 L 69.172,22.413" fill="#000000" height="0.946" width="1.447" x="69.172" y="22.413"/>
	<path d="M 71.342,22.413 L 72.789,22.413 L 72.789,23.359 L 71.342,23.359 L 71.342,22.413" fill="#000000" height="0.946" width="1.447" x="71.342" y="22.413"/>
	<path d="M 73.565,22.413 L 75.01299999999999,22.413 L 75.01299999999999,23.359 L 73.565,23.359 L 73.565,22.413" fill="#000000" height="0.946" width="1.448" x="73.565" y="22.413"/>
	<path d="M 75.735,22.413 L 77.18299999999999,22.413 L 77.18299999999999,23.359 L 75.735,23.359 L 75.735,22.413" fill="#000000" height="0.946" width="1.448" x="75.735" y="22.413"/>
	<path d="M 77.96,22.413 L 79.40799999999999,22.413 L 79.40799999999999,23.359 L 77.96,23.359 L 77.96,22.413" fill="#000000" height="0.946" width="1.448" x="77.96" y="22.413"/>
	<path d="M 80.129,22.413 L 81.577,22.413 L 81.577,23.359 L 80.129,23.359 L 80.129,22.413" fill="#000000" height="0.946" width="1.448" x="80.129" y="22.413"/>
	<path d="M 82.354,22.413 L 83.80199999999999,22.413 L 83.80199999999999,23.359 L 82.354,23.359 L 82.354,22.413" fill="#000000" height="0.946" width="1.448" x="82.354" y="22.413"/>
	<path d="M 84.524,22.413 L 85.971,22.413 L 85.971,23.359 L 84.524,23.359 L 84.524,22.413" fill="#000000" height="0.946" width="1.447" x="84.524" y="22.413"/>
	<path d="M 86.748,22.413 L 88.19500000000001,22.413 L 88.19500000000001,23.359 L 86.748,23.359 L 86.748,22.413" fill="#000000" height="0.946" width="1.447" x="86.748" y="22.413"/>
	<path d="M 88.918,22.413 L 90.36500000000001,22.413 L 90.36500000000001,23.359 L 88.918,23.359 L 88.918,22.413" fill="#000000" height="0.946" width="1.447" x="88.918" y="22.413"/>
	<path d="M 69.172,24.054 L 70.619,24.054 L 70.619,24.999 L 69.172,24.999 L 69.172,24.054" fill="#000000" height="0.945" width="1.447" x="69.172" y="24.054"/>
	<path d="M 71.342,24.054 L 72.789,24.054 L 72.789,24.999 L 71.342,24.999 L 71.342,24.054" fill="#000000" height="0.945" width="1.447" x="71.342" y="24.054"/>
	<path d="M 73.565,24.054 L 75.01299999999999,24.054 L 75.01299999999999,24.999 L 73.565,24.999 L 73.565,24.054" fill="#000000" height="0.945" width="1.448" x="73.565" y="24.054"/>
	<path d="M 75.735,24.054 L 77.18299999999999,24.054 L 77.18299999999999,24.999 L 75.735,24.999 L 75.735,24.054" fill="#000000" height="0.945" width="1.448" x="75.735" y="24.054"/>
	<path d="M 77.96,24.054 L 79.40799999999999,24.054 L 79.40799999999999,24.999 L 77.96,24.999 L 77.96,24.054" fill="#000000" height="0.945" width="1.448" x="77.96" y="24.054"/>
	<path d="M 80.129,24.054 L 81.577,24.054 L 81.577,24.999 L 80.129,24.999 L 80.129,24.054" fill="#000000" height="0.945" width="1.448" x="80.129" y="24.054"/>
	<path d="M 82.354,24.054 L 83.80199999999999,24.054 L 83.80199999999999,24.999 L 82.354,24.999 L 82.354,24.054" fill="#000000" height="0.945" width="1.448" x="82.354" y="24.054"/>
	<path d="M 84.524,24.054 L 85.971,24.054 L 85.971,24.999 L 84.524,24.999 L 84.524,24.054" fill="#000000" height="0.945" width="1.447" x="84.524" y="24.054"/>
	<path d="M 86.748,24.054 L 88.19500000000001,24.054 L 88.19500000000001,24.999 L 86.748,24.999 L 86.748,24.054" fill="#000000" height="0.945" width="1.447" x="86.748" y="24.054"/>
	<path d="M 88.918,24.054 L 90.36500000000001,24.054 L 90.36500000000001,24.999 L 88.918,24.999 L 88.918,24.054" fill="#000000" height="0.945" width="1.447" x="88.918" y="24.054"/>
	<path d="M 69.172,25.694 L 70.619,25.694 L 70.619,26.639 L 69.172,26.639 L 69.172,25.694" fill="#000000" height="0.945" width="1.447" x="69.172" y="25.694"/>
	<path d="M 71.342,25.694 L 72.789,25.694 L 72.789,26.639 L 71.342,26.639 L 71.342,25.694" fill="#000000" height="0.945" width="1.447" x="71.342" y="25.694"/>
	<path d="M 73.565,25.694 L 75.01299999999999,25.694 L 75.01299999999999,26.639 L 73.565,26.639 L 73.565,25.694" fill="#000000" height="0.945" width="1.448" x="73.565" y="25.694"/>
	<path d="M 75.735,25.694 L 77.18299999999999,25.694 L 77.18299999999999,26.639 L 75.735,26.639 L 75.735,25.694" fill="#000000" height="0.945" width="1.448" x="75.735" y="25.694"/>
	<path d="M 77.96,25.694 L 79.40799999999999,25.694 L 79.40799999999999,26.639 L 77.96,26.639 L 77.96,25.694" fill="#000000" height="0.945" width="1.448" x="77.96" y="25.694"/>
	<path d="M 80.129,25.694 L 81.577,25.694 L 81.577,26.639 L 80.129,26.639 L 80.129,25.694" fill="#000000" height="0.945" width="1.448" x="80.129" y="25.694"/>
	<path d="M 82.354,25.694 L 83.80199999999999,25.694 L 83.80199999999999,26.639 L 82.354,26.639 L 82.354,25.694" fill="#000000" height="0.945" width="1.448" x="82.354" y="25.694"/>
	<path d="M 84.524,25.694 L 85.971,25.694 L 85.971,26.639 L 84.524,26.639 L 84.524,25.694" fill="#000000" height="0.945" width="1.447" x="84.524" y="25.694"/>
	<path d="M 86.748,25.694 L 88.19500000000001,25.694 L 88.19500000000001,26.639 L 86.748,26.639 L 86.748,25.694" fill="#000000" height="0.945" width="1.447" x="86.748" y="25.694"/>
	<path d="M 88.918,25.694 L 90.36500000000001,25.694 L 90.36500000000001,26.639 L 88.918,26.639 L 88.918,25.694" fill="#000000" height="0.945" width="1.447" x="88.918" y="25.694"/>
	<path d="M 69.172,27.335 L 70.619,27.335 L 70.619,28.28 L 69.172,28.28 L 69.172,27.335" fill="#000000" height="0.945" width="1.447" x="69.172" y="27.335"/>
	<path d="M 71.342,27.335 L 72.789,27.335 L 72.789,28.28 L 71.342,28.28 L 71.342,27.335" fill="#000000" height="0.945" width="1.447" x="71.342" y="27.335"/>
	<path d="M 73.565,27.335 L 75.01299999999999,27.335 L 75.01299999999999,28.28 L 73.565,28.28 L 73.565,27.335" fill="#000000" height="0.945" width="1.448" x="73.565" y="27.335"/>
	<path d="M 75.735,27.335 L 77.18299999999999,27.335 L 77.18299999999999,28.28 L 75.735,28.28 L 75.735,27.335" fill="#000000" height="0.945" width="1.448" x="75.735" y="27.335"/>
	<path d="M 77.96,27.335 L 79.40799999999999,27.335 L 79.40799999999999,28.28 L 77.96,28.28 L 77.96,27.335" fill="#000000" height="0.945" width="1.448" x="77.96" y="27.335"/>
	<path d="M 80.129,27.335 L 81.577,27.335 L 81.577,28.28 L 80.129,28.28 L 80.129,27.335" fill="#000000" height="0.945" width="1.448" x="80.129" y="27.335"/>
	<path d="M 82.354,27.335 L 83.80199999999999,27.335 L 83.80199999999999,28.28 L 82.354,28.28 L 82.354,27.335" fill="#000000" height="0.945" width="1.448" x="82.354" y="27.335"/>
	<path d="M 84.524,27.335 L 85.971,27.335 L 85.971,28.28 L 84.524,28.28 L 84.524,27.335" fill="#000000" height="0.945" width="1.447" x="84.524" y="27.335"/>
	<path d="M 86.748,27.335 L 88.19500000000001,27.335 L 88.19500000000001,28.28 L 86.748,28.28 L 86.748,27.335" fill="#000000" height="0.945" width="1.447" x="86.748" y="27.335"/>
	<path d="M 88.918,27.335 L 90.36500000000001,27.335 L 90.36500000000001,28.28 L 88.918,28.28 L 88.918,27.335" fill="#000000" height="0.945" width="1.447" x="88.918" y="27.335"/>
	<path d="M 69.172,28.976 L 70.619,28.976 L 70.619,29.921 L 69.172,29.921 L 69.172,28.976" fill="#000000" height="0.945" width="1.447" x="69.172" y="28.976"/>
	<path d="M 71.342,28.976 L 72.789,28.976 L 72.789,29.921 L 71.342,29.921 L 71.342,28.976" fill="#000000" height="0.945" width="1.447" x="71.342" y="28.976"/>
	<path d="M 73.565,28.976 L 75.01299999999999,28.976 L 75.01299999999999,29.921 L 73.565,29.921 L 73.565,28.976" fill="#000000" height="0.945" width="1.448" x="73.565" y="28.976"/>
	<path d="M 75.735,28.976 L 77.18299999999999,28.976 L 77.18299999999999,29.921 L 75.735,29.921 L 75.735,28.976" fill="#000000" height="0.945" width="1.448" x="75.735" y="28.976"/>
	<path d="M 77.96,28.976 L 79.40799999999999,28.976 L 79.40799999999999,29.921 L 77.96,29.921 L 77.96,28.976" fill="#000000" height="0.945" width="1.448" x="77.96" y="28.976"/>
	<path d="M 80.129,28.976 L 81.577,28.976 L 81.577,29.921 L 80.129,29.921 L 80.129,28.976" fill="#000000" height="0.945" width="1.448" x="80.129" y="28.976"/>
	<path d="M 82.354,28.976 L 83.80199999999999,28.976 L 83.80199999999999,29.921 L 82.354,29.921 L 82.354,28.976" fill="#000000" height="0.945" width="1.448" x="82.354" y="28.976"/>
	<path d="M 84.524,28.976 L 85.971,28.976 L 85.971,29.921 L 84.524,29.921 L 84.524,28.976" fill="#000000" height="0.945" width="1.447" x="84.524" y="28.976"/>
	<path d="M 86.748,28.976 L 88.19500000000001,28.976 L 88.19500000000001,29.921 L 86.748,29.921 L 86.748,28.976" fill="#000000" height="0.945" width="1.447" x="86.748" y="28.976"/>
	<path d="M 88.918,28.976 L 90.36500000000001,28.976 L 90.36500000000001,29.921 L 88.918,29.921 L 88.918,28.976" fill="#000000" height="0.945" width="1.447" x="88.918" y="28.976"/>
	<path d="M 69.172,30.616 L 70.619,30.616 L 70.619,31.561 L 69.172,31.561 L 69.172,30.616" fill="#000000" height="0.945" width="1.447" x="69.172" y="30.616"/>
	<path d="M 71.342,30.616 L 72.789,30.616 L 72.789,31.561 L 71.342,31.561 L 71.342,30.616" fill="#000000" height="0.945" width="1.447" x="71.342" y="30.616"/>
	<path d="M 73.565,30.616 L 75.01299999999999,30.616 L 75.01299999999999,31.561 L 73.565,31.561 L 73.565,30.616" fill="#000000" height="0.945" width="1.448" x="73.565" y="30.616"/>
	<path d="M 75.735,30.616 L 77.18299999999999,30.616 L 77.18299999999999,31.561 L 75.735,31.561 L 75.735,30.616" fill="#000000" height="0.945" width="1.448" x="75.735" y="30.616"/>
	<path d="M 77.96,30.616 L 79.40799999999999,30.616 L 79.40799999999999,31.561 L 77.96,31.561 L 77.96,30.616" fill="#000000" height="0.945" width="1.448" x="77.96" y="30.616"/>
	<path d="M 80.129,30.616 L 81.577,30.616 L 81.577,31.561 L 80.129,31.561 L 80.129,30.616" fill="#000000" height="0.945" width="1.448" x="80.129" y="30.616"/>
	<path d="M 82.354,30.616 L 83.80199999999999,30.616 L 83.80199999999999,31.561 L 82.354,31.561 L 82.354,30.616" fill="#000000" height="0.945" width="1.448" x="82.354" y="30.616"/>
	<path d="M 84.524,30.616 L 85.971,30.616 L 85.971,31.561 L 84.524,31.561 L 84.524,30.616" fill="#000000" height="0.945" width="1.447" x="84.524" y="30.616"/>
	<path d="M 86.748,30.616 L 88.19500000000001,30.616 L 88.19500000000001,31.561 L 86.748,31.561 L 86.748,30.616" fill="#000000" height="0.945" width="1.447" x="86.748" y="30.616"/>
	<path d="M 88.918,30.616 L 90.36500000000001,30.616 L 90.36500000000001,31.561 L 88.918,31.561 L 88.918,30.616" fill="#000000" height="0.945" width="1.447" x="88.918" y="30.616"/>
	<path d="M 50.6,90.979 L 51.545,90.979 L 51.545,92.42699999999999 L 50.6,92.42699999999999 L 50.6,90.979" fill="#000000" height="1.448" width="0.945" x="50.6" y="90.979"/>
	<path d="M 50.596,88.811 L 51.543,88.811 L 51.543,90.257 L 50.596,90.257 L 50.596,88.811" fill="#000000" height="1.446" width="0.947" x="50.596" y="88.811"/>
	<path d="M 50.593,86.586 L 51.539,86.586 L 51.539,88.033 L 50.593,88.033 L 50.593,86.586" fill="#000000" height="1.447" width="0.946" x="50.593" y="86.586"/>
	<path d="M 50.592,84.415 L 51.537,84.415 L 51.537,85.864 L 50.592,85.864 L 50.592,84.415" fill="#000000" height="1.449" width="0.945" x="50.592" y="84.415"/>
	<path d="M 50.589,82.191 L 51.535,82.191 L 51.535,83.639 L 50.589,83.639 L 50.589,82.191" fill="#000000" height="1.448" width="0.946" x="50.589" y="82.191"/>
	<path d="M 50.585,80.022 L 51.531,80.022 L 51.531,81.47 L 50.585,81.47 L 50.585,80.022" fill="#000000" height="1.448" width="0.946" x="50.585" y="80.022"/>
	<path d="M 50.582,77.797 L 51.529,77.797 L 51.529,79.24499999999999 L 50.582,79.24499999999999 L 50.582,77.797" fill="#000000" height="1.448" width="0.947" x="50.582" y="77.797"/>
	<path d="M 50.581,75.627 L 51.526,75.627 L 51.526,77.074 L 50.581,77.074 L 50.581,75.627" fill="#000000" height="1.447" width="0.945" x="50.581" y="75.627"/>
	<path d="M 50.579,73.403 L 51.524,73.403 L 51.524,74.85000000000001 L 50.579,74.85000000000001 L 50.579,73.403" fill="#000000" height="1.447" width="0.945" x="50.579" y="73.403"/>
	<path d="M 50.574,71.234 L 51.521,71.234 L 51.521,72.681 L 50.574,72.681 L 50.574,71.234" fill="#000000" height="1.447" width="0.947" x="50.574" y="71.234"/>
	<path d="M 52.241,90.977 L 53.185,90.977 L 53.185,92.425 L 52.241,92.425 L 52.241,90.977" fill="#000000" height="1.448" width="0.944" x="52.241" y="90.977"/>
	<path d="M 52.237,88.808 L 53.182,88.808 L 53.182,90.25500000000001 L 52.237,90.25500000000001 L 52.237,88.808" fill="#000000" height="1.447" width="0.945" x="52.237" y="88.808"/>
	<path d="M 52.234,86.583 L 53.179,86.583 L 53.179,88.03099999999999 L 52.234,88.03099999999999 L 52.234,86.583" fill="#000000" height="1.448" width="0.945" x="52.234" y="86.583"/>
	<path d="M 52.233,84.414 L 53.177,84.414 L 53.177,85.862 L 52.233,85.862 L 52.233,84.414" fill="#000000" height="1.448" width="0.944" x="52.233" y="84.414"/>
	<path d="M 52.229,82.189 L 53.173,82.189 L 53.173,83.63699999999999 L 52.229,83.63699999999999 L 52.229,82.189" fill="#000000" height="1.448" width="0.944" x="52.229" y="82.189"/>
	<path d="M 52.227,80.019 L 53.172,80.019 L 53.172,81.468 L 52.227,81.468 L 52.227,80.019" fill="#000000" height="1.449" width="0.945" x="52.227" y="80.019"/>
	<path d="M 52.222,77.795 L 53.169000000000004,77.795 L 53.169000000000004,79.242 L 52.222,79.242 L 52.222,77.795" fill="#000000" height="1.447" width="0.947" x="52.222" y="77.795"/>
	<path d="M 52.221,75.625 L 53.166,75.625 L 53.166,77.072 L 52.221,77.072 L 52.221,75.625" fill="#000000" height="1.447" width="0.945" x="52.221" y="75.625"/>
	<path d="M 52.218,73.402 L 53.163000000000004,73.402 L 53.163000000000004,74.849 L 52.218,74.849 L 52.218,73.402" fill="#000000" height="1.447" width="0.945" x="52.218" y="73.402"/>
	<path d="M 52.215,71.231 L 53.160000000000004,71.231 L 53.160000000000004,72.678 L 52.215,72.678 L 52.215,71.231" fill="#000000" height="1.447" width="0.945" x="52.215" y="71.231"/>
	<path d="M 53.881,90.977 L 54.825,90.977 L 54.825,92.423 L 53.881,92.423 L 53.881,90.977" fill="#000000" height="1.446" width="0.944" x="53.881" y="90.977"/>
	<path d="M 53.877,88.805 L 54.822,88.805 L 54.822,90.253 L 53.877,90.253 L 53.877,88.805" fill="#000000" height="1.448" width="0.945" x="53.877" y="88.805"/>
	<path d="M 53.875,86.581 L 54.82,86.581 L 54.82,88.029 L 53.875,88.029 L 53.875,86.581" fill="#000000" height="1.448" width="0.945" x="53.875" y="86.581"/>
	<path d="M 53.873,84.411 L 54.818,84.411 L 54.818,85.859 L 53.873,85.859 L 53.873,84.411" fill="#000000" height="1.448" width="0.945" x="53.873" y="84.411"/>
	<path d="M 53.87,82.187 L 54.814,82.187 L 54.814,83.63499999999999 L 53.87,83.63499999999999 L 53.87,82.187" fill="#000000" height="1.448" width="0.944" x="53.87" y="82.187"/>
	<path d="M 53.867,80.018 L 54.812,80.018 L 54.812,81.466 L 53.867,81.466 L 53.867,80.018" fill="#000000" height="1.448" width="0.945" x="53.867" y="80.018"/>
	<path d="M 53.863,77.793 L 54.809,77.793 L 54.809,79.241 L 53.863,79.241 L 53.863,77.793" fill="#000000" height="1.448" width="0.946" x="53.863" y="77.793"/>
	<path d="M 53.861,75.624 L 54.806,75.624 L 54.806,77.07 L 53.861,77.07 L 53.861,75.624" fill="#000000" height="1.446" width="0.945" x="53.861" y="75.624"/>
	<path d="M 53.859,73.399 L 54.804,73.399 L 54.804,74.847 L 53.859,74.847 L 53.859,73.399" fill="#000000" height="1.448" width="0.945" x="53.859" y="73.399"/>
	<path d="M 53.856,71.229 L 54.801,71.229 L 54.801,72.676 L 53.856,72.676 L 53.856,71.229" fill="#000000" height="1.447" width="0.945" x="53.856" y="71.229"/>
	<path d="M 55.522,90.974 L 56.466,90.974 L 56.466,92.421 L 55.522,92.421 L 55.522,90.974" fill="#000000" height="1.447" width="0.944" x="55.522" y="90.974"/>
	<path d="M 55.518,88.803 L 56.463,88.803 L 56.463,90.25 L 55.518,90.25 L 55.518,88.803" fill="#000000" height="1.447" width="0.945" x="55.518" y="88.803"/>
	<path d="M 55.516,86.579 L 56.461,86.579 L 56.461,88.02699999999999 L 55.516,88.02699999999999 L 55.516,86.579" fill="#000000" height="1.448" width="0.945" x="55.516" y="86.579"/>
	<path d="M 55.513,84.409 L 56.458,84.409 L 56.458,85.857 L 55.513,85.857 L 55.513,84.409" fill="#000000" height="1.448" width="0.945" x="55.513" y="84.409"/>
	<path d="M 55.51,82.184 L 56.455,82.184 L 56.455,83.63199999999999 L 55.51,83.63199999999999 L 55.51,82.184" fill="#000000" height="1.448" width="0.945" x="55.51" y="82.184"/>
	<path d="M 55.507,80.017 L 56.452,80.017 L 56.452,81.464 L 55.507,81.464 L 55.507,80.017" fill="#000000" height="1.447" width="0.945" x="55.507" y="80.017"/>
	<path d="M 55.504,77.791 L 56.449999999999996,77.791 L 56.449999999999996,79.23899999999999 L 55.504,79.23899999999999 L 55.504,77.791" fill="#000000" height="1.448" width="0.946" x="55.504" y="77.791"/>
	<path d="M 55.502,75.622 L 56.447,75.622 L 56.447,77.069 L 55.502,77.069 L 55.502,75.622" fill="#000000" height="1.447" width="0.945" x="55.502" y="75.622"/>
	<path d="M 55.5,73.397 L 56.445,73.397 L 56.445,74.84400000000001 L 55.5,74.84400000000001 L 55.5,73.397" fill="#000000" height="1.447" width="0.945" x="55.5" y="73.397"/>
	<path d="M 55.497,71.228 L 56.442,71.228 L 56.442,72.675 L 55.497,72.675 L 55.497,71.228" fill="#000000" height="1.447" width="0.945" x="55.497" y="71.228"/>
	<path d="M 57.162,90.971 L 58.107,90.971 L 58.107,92.418 L 57.162,92.418 L 57.162,90.971" fill="#000000" height="1.447" width="0.945" x="57.162" y="90.971"/>
	<path d="M 57.16,88.801 L 58.104,88.801 L 58.104,90.248 L 57.16,90.248 L 57.16,88.801" fill="#000000" height="1.447" width="0.944" x="57.16" y="88.801"/>
	<path d="M 57.156,86.577 L 58.101,86.577 L 58.101,88.02499999999999 L 57.156,88.02499999999999 L 57.156,86.577" fill="#000000" height="1.448" width="0.945" x="57.156" y="86.577"/>
	<path d="M 57.154,84.407 L 58.099000000000004,84.407 L 58.099000000000004,85.85499999999999 L 57.154,85.85499999999999 L 57.154,84.407" fill="#000000" height="1.448" width="0.945" x="57.154" y="84.407"/>
	<path d="M 57.151,82.183 L 58.096000000000004,82.183 L 58.096000000000004,83.631 L 57.151,83.631 L 57.151,82.183" fill="#000000" height="1.448" width="0.945" x="57.151" y="82.183"/>
	<path d="M 57.148,80.013 L 58.093,80.013 L 58.093,81.461 L 57.148,81.461 L 57.148,80.013" fill="#000000" height="1.448" width="0.945" x="57.148" y="80.013"/>
	<path d="M 57.145,77.789 L 58.091,77.789 L 58.091,79.237 L 57.145,79.237 L 57.145,77.789" fill="#000000" height="1.448" width="0.946" x="57.145" y="77.789"/>
	<path d="M 57.143,75.619 L 58.088,75.619 L 58.088,77.066 L 57.143,77.066 L 57.143,75.619" fill="#000000" height="1.447" width="0.945" x="57.143" y="75.619"/>
	<path d="M 57.14,73.396 L 58.085,73.396 L 58.085,74.842 L 57.14,74.842 L 57.14,73.396" fill="#000000" height="1.446" width="0.945" x="57.14" y="73.396"/>
	<path d="M 57.137,71.225 L 58.082,71.225 L 58.082,72.672 L 57.137,72.672 L 57.137,71.225" fill="#000000" height="1.447" width="0.945" x="57.137" y="71.225"/>
	<path d="M 58.802,90.97 L 59.747,90.97 L 59.747,92.417 L 58.802,92.417 L 58.802,90.97" fill="#000000" height="1.447" width="0.945" x="58.802" y="90.97"/>
	<path d="M 58.799,88.799 L 59.744,88.799 L 59.744,90.24600000000001 L 58.799,90.24600000000001 L 58.799,88.799" fill="#000000" height="1.447" width="0.945" x="58.799" y="88.799"/>
	<path d="M 58.797,86.575 L 59.742,86.575 L 59.742,88.023 L 58.797,88.023 L 58.797,86.575" fill="#000000" height="1.448" width="0.945" x="58.797" y="86.575"/>
	<path d="M 58.794,84.405 L 59.739,84.405 L 59.739,85.853 L 58.794,85.853 L 58.794,84.405" fill="#000000" height="1.448" width="0.945" x="58.794" y="84.405"/>
	<path d="M 58.792,82.18 L 59.737,82.18 L 59.737,83.628 L 58.792,83.628 L 58.792,82.18" fill="#000000" height="1.448" width="0.945" x="58.792" y="82.18"/>
	<path d="M 58.789,80.012 L 59.734,80.012 L 59.734,81.46 L 58.789,81.46 L 58.789,80.012" fill="#000000" height="1.448" width="0.945" x="58.789" y="80.012"/>
	<path d="M 58.785,77.788 L 59.730999999999995,77.788 L 59.730999999999995,79.235 L 58.785,79.235 L 58.785,77.788" fill="#000000" height="1.447" width="0.946" x="58.785" y="77.788"/>
	<path d="M 58.783,75.617 L 59.729,75.617 L 59.729,77.06400000000001 L 58.783,77.06400000000001 L 58.783,75.617" fill="#000000" height="1.447" width="0.946" x="58.783" y="75.617"/>
	<path d="M 58.781,73.393 L 59.726,73.393 L 59.726,74.841 L 58.781,74.841 L 58.781,73.393" fill="#000000" height="1.448" width="0.945" x="58.781" y="73.393"/>
	<path d="M 58.778,71.223 L 59.723,71.223 L 59.723,72.67 L 58.778,72.67 L 58.778,71.223" fill="#000000" height="1.447" width="0.945" x="58.778" y="71.223"/>
</svg>
