<?xml version="1.0" ?>
<svg xmlns="http://www.w3.org/2000/svg" xmlns:ev="http://www.w3.org/2001/xml-events" xmlns:xlink="http://www.w3.org/1999/xlink" baseProfile="full" enable-background="new 0 0 100 100" height="254px" version="1.1" viewBox="0 0 100 100" width="600px" x="0px" xml:space="preserve" y="0px">
	<defs/>
	<path d="M 84.443,50.832 C 78.835,50.832 74.289,55.378 74.289,60.986000000000004 C 74.289,66.59400000000001 78.83500000000001,71.14200000000001 84.443,71.14200000000001 C 90.05099999999999,71.14200000000001 94.598,66.59400000000001 94.598,60.98600000000001 C 94.598,55.378000000000014 90.052,50.832 84.443,50.832 M 84.443,68.313 C 80.39699999999999,68.313 77.118,65.033 77.118,60.987 C 77.118,56.940000000000005 80.39699999999999,53.661 84.443,53.661 C 88.49,53.661 91.76899999999999,56.94 91.76899999999999,60.987 C 91.77,65.032 88.49,68.313 84.443,68.313"/>
	<path d="M 21.229,50.832 C 15.620999999999999,50.832 11.074,55.378 11.074,60.986000000000004 C 11.074,66.59400000000001 15.620000000000001,71.14200000000001 21.229,71.14200000000001 C 26.838,71.14200000000001 31.384,66.59400000000001 31.384,60.98600000000001 C 31.384,55.378000000000014 26.838,50.832 21.229,50.832 M 21.229,68.313 C 17.183,68.313 13.902999999999999,65.033 13.902999999999999,60.987 C 13.902999999999999,56.940000000000005 17.183,53.661 21.229,53.661 C 25.275,53.661 28.555999999999997,56.94 28.555999999999997,60.987 C 28.556,65.032 25.276,68.313 21.229,68.313"/>
	<path d="M 99.019,55.58 C 98.412,55.073 98.19300000000001,53.434999999999995 98.049,52.35 C 98.001,51.997 97.96000000000001,51.692 97.91300000000001,51.451 C 97.78900000000002,50.826 97.68800000000002,50.184 97.58300000000001,49.505 C 97.06300000000002,46.181000000000004 96.47500000000001,42.412000000000006 92.77200000000002,41.027 C 91.57700000000003,40.581 90.31300000000002,40.387 89.09000000000002,40.201 C 88.92100000000002,40.175 88.75100000000002,40.149 88.58200000000002,40.123 C 86.47000000000003,39.791 84.31000000000002,39.628 82.22100000000002,39.47 C 81.38000000000002,39.407 80.51200000000001,39.341 79.66000000000003,39.266 C 78.96100000000003,39.202999999999996 78.26400000000002,39.141 77.56500000000003,39.077999999999996 C 73.32400000000003,38.699 68.93800000000003,38.306999999999995 64.61900000000003,37.998 C 64.35300000000002,37.979 64.08600000000003,37.963 63.818000000000026,37.946 C 62.00600000000003,37.833999999999996 60.13400000000003,37.717999999999996 58.55700000000002,36.745999999999995 C 58.33800000000002,36.611 57.941000000000024,36.315 57.437000000000026,35.94 C 55.47000000000003,34.474999999999994 52.17700000000003,32.021 50.18300000000003,32.021 C 49.410000000000025,32.021 48.87100000000003,32.391 48.62400000000003,33.09 C 48.34300000000003,33.885000000000005 48.09300000000003,34.786 47.827000000000034,35.739000000000004 C 46.75200000000003,39.584 45.53500000000003,43.940000000000005 41.67600000000003,44.753 C 41.23100000000003,44.847 40.79300000000003,44.895 40.37600000000003,44.895 C 37.96900000000004,44.895 36.019000000000034,43.337 34.580000000000034,40.264 C 33.156000000000034,37.222 32.674000000000035,33.576 32.53300000000004,32.151 C 32.326000000000036,30.058000000000003 31.425000000000036,28.858000000000004 30.061000000000035,28.858000000000004 C 29.822000000000035,28.858000000000004 29.567000000000036,28.895000000000003 29.303000000000036,28.967000000000006 C 26.268000000000036,29.804000000000006 22.702000000000037,30.856000000000005 19.259000000000036,32.307 C 15.626000000000037,33.839 12.644000000000036,35.599000000000004 10.141000000000036,37.689 C 6.113000000000036,41.051 3.0080000000000355,45.865 0.9130000000000358,51.996 C 0.3370000000000358,53.682 0.039000000000035784,55.115 0.002000000000035751,56.377 C -0.02599999999996425,57.307 0.29800000000003574,58.127 0.9650000000000357,58.813 C 3.235000000000036,61.152 8.833000000000036,61.27 9.932000000000036,61.27 C 10.013000000000035,61.27 10.057000000000036,61.269000000000005 10.057000000000036,61.269000000000005 C 10.210000000000036,61.267 10.334000000000035,61.142 10.334000000000035,60.98700000000001 C 10.334000000000035,54.979000000000006 15.222000000000035,50.09200000000001 21.231000000000037,50.09200000000001 C 27.238000000000035,50.09200000000001 32.12600000000003,54.97900000000001 32.12600000000003,60.98700000000001 C 32.12600000000003,61.14300000000001 32.253000000000036,61.269000000000005 32.40800000000003,61.269000000000005 L 73.26700000000002,61.269000000000005 C 73.42200000000003,61.269000000000005 73.54800000000003,61.14300000000001 73.54800000000003,60.98700000000001 C 73.54800000000003,54.979000000000006 78.43600000000004,50.09200000000001 84.44300000000003,50.09200000000001 C 90.12700000000002,50.09200000000001 94.90100000000002,54.527000000000015 95.31100000000002,60.18700000000001 C 95.32200000000002,60.335000000000015 95.44500000000002,60.44900000000001 95.59100000000002,60.44900000000001 C 95.59600000000002,60.44900000000001 95.60100000000003,60.44900000000001 95.60500000000002,60.44900000000001 L 95.61500000000002,60.44900000000001 C 95.72400000000002,60.460000000000015 96.22000000000003,60.50500000000001 96.83600000000003,60.50500000000001 C 98.46900000000002,60.50500000000001 99.44200000000002,60.19400000000001 99.72900000000003,59.58100000000001 C 100.294,58.364 99.937,56.346 99.019,55.58 M 44.121,48.367 C 44.692,48.041999999999994 45.214,47.672 45.681000000000004,47.260999999999996 C 46.344,46.684 46.95100000000001,46.001 47.535000000000004,45.17399999999999 C 48.040000000000006,44.45799999999999 48.507000000000005,43.663999999999994 48.963,42.748999999999995 C 49.239000000000004,42.196 49.504,41.617999999999995 49.763,40.99999999999999 C 49.657,41.587999999999994 49.486,42.206999999999994 49.245999999999995,42.870999999999995 C 48.9,43.806999999999995 48.449999999999996,44.67099999999999 47.91,45.437999999999995 C 47.31699999999999,46.28099999999999 46.631,46.97599999999999 45.87,47.504999999999995 C 45.314,47.892 44.722,48.184 44.121,48.367 M 58.534,57.21 L 36.462,57.21 C 35.656000000000006,57.21 35.019000000000005,57.525 34.626000000000005,57.789 C 34.438,57.916000000000004 34.285000000000004,58.058 34.13700000000001,58.195 C 33.94700000000001,58.371 33.76800000000001,58.538000000000004 33.568000000000005,58.604 C 33.538000000000004,58.615 33.50900000000001,58.621 33.483000000000004,58.621 C 33.431000000000004,58.621 33.382000000000005,58.6 33.349000000000004,58.563 C 33.328,58.54 33.323,58.52 33.323,58.516000000000005 C 33.336,58.39300000000001 33.439,58.10600000000001 33.986,57.581 C 34.678,56.917 35.58,56.536 36.462999999999994,56.536 L 58.535,56.536 L 58.535,57.21 L 58.534,57.21 M 62.634,49.045 L 63.604,48.641 L 63.604,43.839 C 63.604,43.760999999999996 63.667,43.698 63.746,43.698 C 63.823,43.698 63.887,43.761 63.887,43.839 L 63.887,48.735 C 63.887,48.793 63.853,48.842999999999996 63.8,48.866 L 62.742999999999995,49.306 C 62.672,49.335 62.587999999999994,49.299 62.55799999999999,49.23 C 62.528,49.157 62.562,49.075 62.634,49.045 M 60.763,49.045 L 61.733999999999995,48.641 L 61.733999999999995,43.839 C 61.733999999999995,43.760999999999996 61.797,43.698 61.876,43.698 C 61.952999999999996,43.698 62.016999999999996,43.761 62.016999999999996,43.839 L 62.016999999999996,48.735 C 62.016999999999996,48.793 61.983,48.842999999999996 61.92999999999999,48.866 L 60.87299999999999,49.306 C 60.80299999999999,49.335 60.71799999999999,49.299 60.68799999999999,49.23 C 60.658,49.157 60.691,49.075 60.763,49.045 M 61.268,57.029 C 61.268,57.107000000000006 61.205,57.17100000000001 61.127,57.17100000000001 L 60.063,57.17100000000001 C 59.986000000000004,57.17100000000001 59.922000000000004,57.108000000000004 59.922000000000004,57.029 C 59.922000000000004,56.952000000000005 59.98500000000001,56.888000000000005 60.063,56.888000000000005 L 60.987,56.888000000000005 L 60.987,52.358000000000004 L 59.963,51.336000000000006 C 59.937,51.309000000000005 59.923,51.273 59.923,51.23500000000001 C 59.923,51.19700000000001 59.937000000000005,51.163000000000004 59.963,51.135000000000005 C 59.99,51.109 60.026,51.09400000000001 60.064,51.09400000000001 C 60.101,51.09400000000001 60.136,51.10900000000001 60.164,51.135000000000005 L 61.228,52.2 C 61.254000000000005,52.225 61.269,52.263000000000005 61.269,52.300000000000004 L 61.269,57.029 L 61.268,57.029 M 63.196,57.029 C 63.196,57.107000000000006 63.132999999999996,57.17100000000001 63.055,57.17100000000001 L 61.991,57.17100000000001 C 61.914,57.17100000000001 61.85,57.108000000000004 61.85,57.029 C 61.85,56.952000000000005 61.913000000000004,56.888000000000005 61.991,56.888000000000005 L 62.915,56.888000000000005 L 62.915,52.358000000000004 L 61.891999999999996,51.336000000000006 C 61.86599999999999,51.309000000000005 61.851,51.273 61.851,51.23500000000001 C 61.851,51.19700000000001 61.866,51.163000000000004 61.891999999999996,51.135000000000005 C 61.918,51.109 61.95399999999999,51.09400000000001 61.992,51.09400000000001 C 62.03,51.09400000000001 62.064,51.10900000000001 62.092,51.135000000000005 L 63.156,52.2 C 63.182,52.225 63.196999999999996,52.263000000000005 63.196999999999996,52.300000000000004 L 63.196999999999996,57.029 L 63.196,57.029 M 65.126,57.029 C 65.126,57.107000000000006 65.063,57.17100000000001 64.98400000000001,57.17100000000001 L 63.92,57.17100000000001 C 63.843,57.17100000000001 63.779,57.108000000000004 63.779,57.029 C 63.779,56.952000000000005 63.842000000000006,56.888000000000005 63.92,56.888000000000005 L 64.84400000000001,56.888000000000005 L 64.84400000000001,52.358000000000004 L 63.82200000000001,51.336000000000006 C 63.79500000000001,51.309000000000005 63.78000000000001,51.273 63.78000000000001,51.23500000000001 C 63.78000000000001,51.19700000000001 63.79500000000001,51.163000000000004 63.82200000000001,51.135000000000005 C 63.84700000000001,51.109 63.88400000000001,51.09400000000001 63.92100000000001,51.09400000000001 C 63.959,51.09400000000001 63.99400000000001,51.10900000000001 64.021,51.135000000000005 L 65.08500000000001,52.2 C 65.111,52.225 65.12700000000001,52.263000000000005 65.12700000000001,52.300000000000004 L 65.12700000000001,57.029 L 65.126,57.029 M 64.612,49.306 C 64.542,49.335 64.457,49.299 64.42699999999999,49.23 C 64.398,49.157999999999994 64.431,49.07599999999999 64.50299999999999,49.044999999999995 L 65.47299999999998,48.64099999999999 L 65.47299999999998,43.83899999999999 C 65.47299999999998,43.76099999999999 65.53599999999999,43.69799999999999 65.61399999999999,43.69799999999999 C 65.692,43.69799999999999 65.75599999999999,43.760999999999996 65.75599999999999,43.83899999999999 L 65.75599999999999,48.73499999999999 C 65.75599999999999,48.79299999999999 65.72199999999998,48.84299999999999 65.66899999999998,48.86599999999999 L 64.612,49.306 M 67.055,57.029 C 67.055,57.107000000000006 66.992,57.17100000000001 66.914,57.17100000000001 L 65.849,57.17100000000001 C 65.772,57.17100000000001 65.708,57.108000000000004 65.708,57.029 C 65.708,56.952000000000005 65.771,56.888000000000005 65.849,56.888000000000005 L 66.774,56.888000000000005 L 66.774,52.358000000000004 L 65.751,51.336000000000006 C 65.72500000000001,51.309000000000005 65.709,51.273 65.709,51.23500000000001 C 65.709,51.19700000000001 65.72500000000001,51.163000000000004 65.751,51.135000000000005 C 65.777,51.109 65.813,51.09400000000001 65.85000000000001,51.09400000000001 C 65.888,51.09400000000001 65.924,51.10900000000001 65.95,51.135000000000005 L 67.015,52.2 C 67.041,52.225 67.056,52.263000000000005 67.056,52.300000000000004 L 67.056,57.029 L 67.055,57.029 M 67.626,48.734 C 67.626,48.792 67.592,48.842 67.539,48.865 L 66.482,49.305 C 66.411,49.334 66.327,49.298 66.297,49.229 C 66.268,49.157 66.301,49.074999999999996 66.37299999999999,49.044 L 67.344,48.63999999999999 L 67.344,43.837999999999994 C 67.344,43.75999999999999 67.407,43.696999999999996 67.484,43.696999999999996 C 67.562,43.696999999999996 67.62599999999999,43.76 67.62599999999999,43.837999999999994 L 67.62599999999999,48.734 L 67.626,48.734 M 68.983,57.029 C 68.983,57.107000000000006 68.921,57.17100000000001 68.842,57.17100000000001 L 67.777,57.17100000000001 C 67.7,57.17100000000001 67.636,57.108000000000004 67.636,57.029 C 67.636,56.952000000000005 67.699,56.888000000000005 67.777,56.888000000000005 L 68.702,56.888000000000005 L 68.702,52.358000000000004 L 67.679,51.336000000000006 C 67.653,51.309000000000005 67.637,51.273 67.637,51.23500000000001 C 67.637,51.19700000000001 67.653,51.163000000000004 67.679,51.135000000000005 C 67.705,51.109 67.742,51.09400000000001 67.778,51.09400000000001 C 67.81700000000001,51.09400000000001 67.852,51.10900000000001 67.879,51.135000000000005 L 68.94300000000001,52.2 C 68.96900000000001,52.225 68.98400000000001,52.263000000000005 68.98400000000001,52.300000000000004 L 68.98400000000001,57.029 L 68.983,57.029 M 69.496,48.734 C 69.496,48.792 69.46199999999999,48.842 69.40899999999999,48.865 L 68.35199999999999,49.305 C 68.28099999999999,49.334 68.19699999999999,49.298 68.16699999999999,49.229 C 68.13799999999999,49.157 68.17199999999998,49.074999999999996 68.24299999999998,49.044 L 69.21399999999998,48.63999999999999 L 69.21399999999998,43.837999999999994 C 69.21399999999998,43.75999999999999 69.27699999999999,43.696999999999996 69.35399999999998,43.696999999999996 C 69.43199999999999,43.696999999999996 69.49599999999998,43.76 69.49599999999998,43.837999999999994 L 69.49599999999998,48.734 L 69.496,48.734 M 70.913,57.029 C 70.913,57.107000000000006 70.85,57.17100000000001 70.77199999999999,57.17100000000001 L 69.707,57.17100000000001 C 69.63,57.17100000000001 69.56599999999999,57.108000000000004 69.56599999999999,57.029 C 69.56599999999999,56.952000000000005 69.62899999999999,56.888000000000005 69.707,56.888000000000005 L 70.63199999999999,56.888000000000005 L 70.63199999999999,52.358000000000004 L 69.60799999999999,51.336000000000006 C 69.58299999999998,51.309000000000005 69.567,51.273 69.567,51.23500000000001 C 69.567,51.19700000000001 69.583,51.163000000000004 69.60799999999999,51.135000000000005 C 69.63399999999999,51.109 69.67099999999999,51.09400000000001 69.70799999999998,51.09400000000001 C 69.74599999999998,51.09400000000001 69.78099999999998,51.10900000000001 69.80799999999998,51.135000000000005 L 70.87299999999998,52.2 C 70.89899999999997,52.225 70.91399999999997,52.263000000000005 70.91399999999997,52.300000000000004 L 70.91399999999997,57.029 L 70.913,57.029 M 71.366,48.734 C 71.366,48.792 71.332,48.842 71.279,48.865 L 70.222,49.305 C 70.152,49.334 70.067,49.298 70.03699999999999,49.229 C 70.008,49.157 70.04199999999999,49.074999999999996 70.11299999999999,49.044 L 71.08399999999999,48.63999999999999 L 71.08399999999999,43.837999999999994 C 71.08399999999999,43.75999999999999 71.14699999999999,43.696999999999996 71.225,43.696999999999996 C 71.303,43.696999999999996 71.366,43.76 71.366,43.837999999999994 L 71.366,48.734 M 73.236,48.734 C 73.236,48.792 73.202,48.842 73.149,48.865 L 72.092,49.305 C 72.021,49.334 71.937,49.298 71.907,49.229 C 71.878,49.157 71.91199999999999,49.074999999999996 71.98299999999999,49.044 L 72.95299999999999,48.63999999999999 L 72.95299999999999,43.837999999999994 C 72.95299999999999,43.75999999999999 73.01599999999999,43.696999999999996 73.09499999999998,43.696999999999996 C 73.17399999999998,43.696999999999996 73.23599999999999,43.76 73.23599999999999,43.837999999999994 L 73.23599999999999,48.734 L 73.236,48.734 M 75.106,48.734 C 75.106,48.792 75.07199999999999,48.842 75.01899999999999,48.865 L 73.96199999999999,49.305 C 73.89099999999999,49.334 73.80799999999999,49.298 73.77699999999999,49.229 C 73.74799999999999,49.157 73.78099999999999,49.074999999999996 73.85299999999998,49.044 L 74.82299999999998,48.63999999999999 L 74.82299999999998,43.837999999999994 C 74.82299999999998,43.75999999999999 74.88599999999998,43.696999999999996 74.96399999999998,43.696999999999996 C 75.04199999999999,43.696999999999996 75.10599999999998,43.76 75.10599999999998,43.837999999999994 L 75.10599999999998,48.734 L 75.106,48.734 M 76.977,48.734 C 76.977,48.792 76.943,48.842 76.89,48.865 L 75.833,49.305 C 75.762,49.334 75.678,49.298 75.648,49.229 C 75.619,49.157 75.652,49.074999999999996 75.72399999999999,49.044 L 76.69399999999999,48.63999999999999 L 76.69399999999999,43.837999999999994 C 76.69399999999999,43.75999999999999 76.75699999999999,43.696999999999996 76.835,43.696999999999996 C 76.913,43.696999999999996 76.97699999999999,43.76 76.97699999999999,43.837999999999994 L 76.97699999999999,48.734 L 76.977,48.734 M 78.847,48.734 C 78.847,48.792 78.812,48.842 78.75999999999999,48.865 L 77.70299999999999,49.305 C 77.63199999999999,49.334 77.54799999999999,49.298 77.51799999999999,49.229 C 77.48899999999999,49.157 77.52199999999999,49.074999999999996 77.59399999999998,49.044 L 78.56399999999998,48.63999999999999 L 78.56399999999998,43.837999999999994 C 78.56399999999998,43.75999999999999 78.62699999999998,43.696999999999996 78.70599999999997,43.696999999999996 C 78.78299999999997,43.696999999999996 78.84699999999998,43.76 78.84699999999998,43.837999999999994 L 78.84699999999998,48.734 L 78.847,48.734"/>
	<path cx="84.443" cy="60.986" d="M 79.84,60.986 A 4.603000000000001,4.603000000000001 0.0 1,0 89.046,60.986 A 4.603000000000001,4.603000000000001 0.0 1,0 79.84,60.986" r="4.603"/>
	<path cx="21.229" cy="60.986" d="M 16.625999999999998,60.986 A 4.603,4.603 0.0 1,0 25.831999999999997,60.986 A 4.603,4.603 0.0 1,0 16.625999999999998,60.986" r="4.603"/>
</svg>
