<?xml version="1.0" ?>
<svg xmlns="http://www.w3.org/2000/svg" xmlns:ev="http://www.w3.org/2001/xml-events" xmlns:xlink="http://www.w3.org/1999/xlink" baseProfile="full" enable-background="new 0 0 96.466 100.003" height="600px" version="1.1" viewBox="0 0 96.466 100.003" width="579px" x="0px" xml:space="preserve" y="0px">
	<defs/>
	<path d="M 96.466,100.003 C 94.35199999999999,100.003 92.33399999999999,99.523 90.532,98.706 C 88.65899999999999,97.84100000000001 86.569,97.337 84.408,97.337 C 82.221,97.337 80.133,97.84100000000001 78.283,98.706 C 76.481,99.522 74.44,100.003 72.35,100.003 C 70.237,100.003 68.195,99.523 66.393,98.706 C 64.543,97.84100000000001 62.454,97.337 60.268,97.337 C 58.107,97.337 56.017,97.84100000000001 54.167,98.706 C 52.365,99.522 50.33,100.003 48.217,100.003 C 46.103,100.003 44.085,99.523 42.284,98.706 C 40.435,97.84100000000001 38.345,97.337 36.159,97.337 C 33.997,97.337 31.907999999999998,97.84100000000001 30.034,98.706 C 28.232,99.522 26.215,100.003 24.113,100.003 C 22.0,100.003 19.982,99.523 18.18,98.706 C 16.33,97.84100000000001 14.241,97.337 12.055,97.337 C 9.894,97.337 7.803999999999999,97.84100000000001 5.93,98.706 C 4.129,99.522 2.1109999999999998,100.003 -0.0030000000000001137,100.003 L -0.0030000000000001137,91.092 C 2.1109999999999998,91.092 4.128,90.612 5.93,89.795 C 7.804,88.95400000000001 9.893,88.449 12.055,88.449 C 14.241,88.449 16.33,88.954 18.18,89.795 C 19.982,90.611 21.999,91.092 24.113,91.092 C 26.215,91.092 28.232,90.612 30.034,89.795 C 31.907999999999998,88.95400000000001 33.997,88.449 36.159,88.449 C 38.345,88.449 40.434,88.954 42.284,89.795 C 44.085,90.611 46.103,91.092 48.217,91.092 C 50.33,91.092 52.364999999999995,90.612 54.167,89.795 C 56.017,88.95400000000001 58.106,88.449 60.268,88.449 C 62.454,88.449 64.543,88.954 66.393,89.795 C 68.19500000000001,90.611 70.237,91.092 72.35,91.092 C 74.44,91.092 76.481,90.612 78.28299999999999,89.795 C 80.13299999999998,88.95400000000001 82.22099999999999,88.449 84.40799999999999,88.449 C 86.56899999999999,88.449 88.65899999999999,88.954 90.53199999999998,89.795 C 92.33399999999999,90.611 94.35099999999998,91.092 96.46599999999998,91.092 L 96.46599999999998,100.003 L 96.466,100.003"/>
	<path d="M 57.507,81.605 C 58.419,81.41300000000001 59.332,81.316 60.269,81.316 C 62.455,81.316 64.544,81.821 66.394,82.662 C 68.19600000000001,83.47800000000001 70.238,83.959 72.351,83.959 C 74.441,83.959 76.482,83.479 78.28399999999999,82.662 C 79.556,82.08600000000001 80.92599999999999,81.629 82.39099999999999,81.436 C 81.598,57.538 56.667,36.208 55.49,35.104 C 54.265,33.999 53.136,31.573 53.928000000000004,28.715 L 59.885000000000005,9.018999999999998 C 60.94200000000001,5.9689999999999985 60.413000000000004,1.8859999999999983 58.94800000000001,0.6609999999999978 C 58.107000000000006,-0.01100000000000223 56.330000000000005,-0.4920000000000022 55.129000000000005,0.8769999999999978 L 39.019,19.155 C 35.488,22.902 38.442,26.913 38.370999999999995,26.889000000000003 C 32.894999999999996,24.92 26.456999999999994,26.241000000000003 22.554999999999993,27.85 L 9.248,34.6 C 7.927,35.152 7.35,36.834 8.046999999999999,37.963 C 10.256999999999998,41.493 17.582,41.518 32.846,39.86 C 57.507,37.217 57.531,76.729 57.507,81.605"/>
</svg>
