<?xml version="1.0" ?>
<svg xmlns="http://www.w3.org/2000/svg" xmlns:ev="http://www.w3.org/2001/xml-events" xmlns:xlink="http://www.w3.org/1999/xlink" baseProfile="full" enable-background="new 0 0 72.301 100" height="600px" version="1.1" viewBox="0 0 72.301 100" width="434px" x="0px" xml:space="preserve" y="0px">
	<defs/>
	<path d="M 34.222,16.971 C 38.806,16.982 42.514,13.273 42.514,8.68 C 42.515,4.125 38.807,0.41799999999999926 34.222,0.43599999999999994 C 29.659000000000002,0.4179999999999999 25.951,4.125 25.931,8.68 C 25.95,13.273 29.658,16.981 34.222,16.971 L 34.222,16.971"/>
	<path d="M 64.833,85.566 L 68.448,85.566 C 70.993,85.566 72.30199999999999,83.55 72.30199999999999,81.711 C 72.30199999999999,81.711 72.3,61.419 72.30199999999999,61.318 C 72.3,59.471999999999994 70.857,57.434999999999995 68.448,57.415 L 64.833,57.415 L 64.833,85.566 L 64.833,85.566"/>
	<path d="M 62.903,57.415 L 57.6,57.415 L 57.6,53.607 C 57.621,52.14 56.754000000000005,51.37 55.239000000000004,51.388 C 55.239000000000004,51.388 54.31100000000001,51.367999999999995 52.78,51.388 L 52.78,29.505 C 52.766,24.463 48.438,19.131 42.706,19.14 L 24.34,19.14 L 6.89,1.305 C 3.053,-2.568 -2.562,3.047 1.298,6.896 L 23.569000000000003,29.602 L 23.569000000000003,95.20700000000001 C 23.590000000000003,101.68900000000001 33.044000000000004,101.501 33.065000000000005,95.20700000000001 L 33.065000000000005,57.415 L 34.607000000000006,57.415 L 34.607000000000006,95.207 C 34.629000000000005,101.505 44.15400000000001,101.689 44.153000000000006,95.207 L 44.153000000000006,85.56599999999999 L 62.903000000000006,85.56599999999999 L 62.903000000000006,57.415 L 62.903,57.415 M 45.84,53.607 L 45.84,57.415 L 44.152,57.415 L 44.152,32.106 L 45.84,32.106 L 45.84,53.607"/>
</svg>
