<?xml version="1.0" ?>
<svg xmlns="http://www.w3.org/2000/svg" xmlns:ev="http://www.w3.org/2001/xml-events" xmlns:xlink="http://www.w3.org/1999/xlink" baseProfile="full" enable-background="new 0 0 100 66.624" height="400px" version="1.1" viewBox="0 0 100 66.624" width="600px" x="0px" xml:space="preserve" y="0px">
	<defs/>
	<path d="M 99.976,66.624 C 97.81,66.624 95.694,66.12599999999999 93.827,65.304 C 91.91,64.408 89.744,63.861000000000004 87.478,63.861000000000004 C 85.238,63.861000000000004 83.07199999999999,64.409 81.15599999999999,65.304 C 79.26299999999999,66.126 77.17299999999999,66.624 74.98199999999999,66.624 C 72.79099999999998,66.624 70.70099999999998,66.12599999999999 68.83399999999999,65.304 C 66.91599999999998,64.408 64.75099999999999,63.861000000000004 62.484999999999985,63.861000000000004 C 60.24499999999998,63.861000000000004 58.078999999999986,64.409 56.161999999999985,65.304 C 54.26999999999998,66.126 52.179999999999986,66.624 49.987999999999985,66.624 C 47.79799999999999,66.624 45.70699999999999,66.12599999999999 43.83999999999999,65.304 C 41.92299999999999,64.408 39.75699999999999,63.861000000000004 37.49199999999999,63.861000000000004 C 35.22599999999999,63.861000000000004 33.05999999999999,64.409 31.14299999999999,65.304 C 29.27599999999999,66.126 27.184999999999988,66.624 24.99399999999999,66.624 C 22.80499999999999,66.624 20.71299999999999,66.12599999999999 18.84599999999999,65.304 C 16.90499999999999,64.408 14.73899999999999,63.861000000000004 12.49799999999999,63.861000000000004 C 10.23199999999999,63.861000000000004 8.06599999999999,64.409 6.149999999999991,65.304 C 4.282,66.125 2.19,66.624 0.0,66.624 L 0.0,57.38799999999999 C 2.19,57.38799999999999 4.282,56.91499999999999 6.149,56.06899999999999 C 8.065,55.17299999999999 10.231,54.64999999999999 12.497,54.64999999999999 C 14.737,54.64999999999999 16.903,55.172999999999995 18.845,56.06899999999999 C 20.712,56.91599999999999 22.804,57.38799999999999 24.993,57.38799999999999 C 27.183999999999997,57.38799999999999 29.275,56.91499999999999 31.142,56.06899999999999 C 33.059,55.17299999999999 35.225,54.64999999999999 37.491,54.64999999999999 C 39.756,54.64999999999999 41.922,55.172999999999995 43.839,56.06899999999999 C 45.705999999999996,56.91599999999999 47.797,57.38799999999999 49.986999999999995,57.38799999999999 C 52.178,57.38799999999999 54.26899999999999,56.91499999999999 56.160999999999994,56.06899999999999 C 58.077999999999996,55.17299999999999 60.24399999999999,54.64999999999999 62.483999999999995,54.64999999999999 C 64.75,54.64999999999999 66.91499999999999,55.172999999999995 68.833,56.06899999999999 C 70.7,56.91599999999999 72.78999999999999,57.38799999999999 74.981,57.38799999999999 C 77.17099999999999,57.38799999999999 79.262,56.91499999999999 81.155,56.06899999999999 C 83.071,55.17299999999999 85.237,54.64999999999999 87.477,54.64999999999999 C 89.74300000000001,54.64999999999999 91.909,55.172999999999995 93.82600000000001,56.06899999999999 C 95.69300000000001,56.91599999999999 97.80900000000001,57.38799999999999 99.97500000000001,57.38799999999999 L 99.97500000000001,66.624 L 99.976,66.624"/>
	<path d="M 87.776,31.242 C 88.823,30.744 89.544,29.699 89.544,28.454 L 89.544,25.367 L 92.681,25.367 L 92.681,15.285 L 92.681,15.285 C 92.681,13.094000000000001 91.188,11.251999999999999 89.17099999999999,10.704 L 85.58699999999999,2.141 C 85.063,0.872 83.819,0.0 82.375,0.0 L 63.953,0.0 C 62.509,0.0 61.265,0.872 60.741,2.141 L 57.157,10.704 C 55.13999999999999,11.252 53.647,13.094000000000001 53.647,15.285 L 53.647,15.285 L 53.647,25.367 L 56.784,25.367 L 56.784,28.454 C 56.784,29.699 57.506,30.745 58.552,31.242 L 41.599,31.242 C 42.644,30.744 43.391,29.699 43.391,28.454 L 43.367,25.367 L 46.504,25.367 L 46.504,15.285 L 46.504,15.285 C 46.504,13.094000000000001 45.01,11.251999999999999 42.992999999999995,10.704 L 39.407999999999994,2.141 C 38.885,0.872 37.64,0.0 36.196,0.0 L 17.774,0.0 C 16.331,0.0 15.086,0.872 14.563,2.141 L 10.978000000000002,10.704 C 8.961000000000002,11.252 7.467000000000001,13.094000000000001 7.467000000000001,15.285 L 7.467000000000001,15.285 L 7.467000000000001,25.367 L 10.604000000000001,25.367 L 10.604000000000001,28.454 C 10.604000000000001,29.699 11.327000000000002,30.745 12.372000000000002,31.242 L 0.0,31.242 L 0.0,39.071 L 8.464,39.071 L 15.36,47.105999999999995 C 16.579,47.355 17.749,47.75299999999999 18.844,48.251999999999995 C 20.711000000000002,49.099 22.803,49.571 24.992,49.571 C 27.183,49.571 29.274,49.098 31.141000000000002,48.251999999999995 C 33.058,47.355999999999995 35.224000000000004,46.833 37.49,46.833 C 39.755,46.833 41.921,47.355 43.838,48.251999999999995 C 45.705,49.099 47.796,49.571 49.986000000000004,49.571 C 52.17700000000001,49.571 54.268,49.098 56.160000000000004,48.251999999999995 C 58.077000000000005,47.355999999999995 60.243,46.833 62.483000000000004,46.833 C 64.74900000000001,46.833 66.914,47.355 68.83200000000001,48.251999999999995 C 70.69900000000001,49.099 72.789,49.571 74.98,49.571 C 77.17,49.571 79.26100000000001,49.098 81.15400000000001,48.251999999999995 C 82.47300000000001,47.629999999999995 83.918,47.205999999999996 85.43500000000002,46.980999999999995 L 92.15700000000001,38.971999999999994 L 100.0,38.971999999999994 L 100.0,31.241999999999994 L 87.776,31.241999999999994 L 87.776,31.242 M 14.962,31.242 C 16.006999999999998,30.744 16.754,29.699 16.754,28.454 L 16.73,25.367 L 37.242000000000004,25.367 L 37.242000000000004,28.454 C 37.242000000000004,29.699 37.965,30.745 39.010000000000005,31.242 L 14.962,31.242 M 61.14,31.242 C 62.186,30.744 62.908,29.699 62.908,28.454 L 62.908,25.367 L 83.422,25.367 L 83.422,28.454 C 83.422,29.699 84.14399999999999,30.745 85.19,31.242 L 61.14,31.242 M 11.128,17.09 C 11.128,15.372 12.523,13.991 14.239,13.991 C 15.932,13.991 17.35,15.372 17.35,17.09 C 17.35,18.808 15.932000000000002,20.19 14.239,20.19 C 12.522,20.189 11.128,18.808 11.128,17.09 M 39.756,20.189 C 38.038,20.189 36.644,18.807 36.644,17.089 C 36.644,15.370999999999999 38.039,13.989999999999998 39.756,13.989999999999998 C 41.448,13.989999999999998 42.893,15.370999999999999 42.893,17.089 C 42.893,18.807 41.448,20.189 39.756,20.189 M 14.065,10.53 L 17.152,3.1359999999999992 C 17.276,2.761999999999999 17.625,2.488999999999999 18.048000000000002,2.488999999999999 L 35.923,2.488999999999999 C 36.346000000000004,2.488999999999999 36.694,2.762999999999999 36.843,3.1359999999999992 L 39.931000000000004,10.53 L 14.065,10.53 M 57.307,17.09 C 57.307,15.372 58.701,13.991 60.419000000000004,13.991 C 62.11000000000001,13.991 63.53,15.372 63.53,17.09 C 63.53,18.808 62.11,20.19 60.419000000000004,20.19 C 58.7,20.189 57.307,18.808 57.307,17.09 M 85.935,20.189 C 84.218,20.189 82.824,18.807 82.824,17.089 C 82.824,15.370999999999999 84.219,13.989999999999998 85.935,13.989999999999998 C 87.628,13.989999999999998 89.046,15.370999999999999 89.046,17.089 C 89.046,18.807 87.628,20.189 85.935,20.189 M 60.244,10.53 L 63.331,3.1359999999999992 C 63.456,2.761999999999999 63.804,2.488999999999999 64.227,2.488999999999999 L 82.10000000000001,2.488999999999999 C 82.52400000000002,2.488999999999999 82.87200000000001,2.762999999999999 82.99600000000001,3.1359999999999992 L 86.08300000000001,10.53 L 60.244,10.53"/>
</svg>
