<?xml version="1.0" ?>
<svg xmlns="http://www.w3.org/2000/svg" xmlns:ev="http://www.w3.org/2001/xml-events" xmlns:xlink="http://www.w3.org/1999/xlink" baseProfile="full" height="596px" style="enable-background:new 0 0 25.772 25.598;" version="1.1" viewBox="0 0 25.772 25.598" width="600px" x="0px" xml:space="preserve" y="0px">
	<defs/>
	<path d="M 25.646,13.653 L 24.127000000000002,11.257000000000001 L 25.028000000000002,8.568000000000001 C 25.150000000000002,8.201 24.998,7.798000000000002 24.663000000000004,7.606000000000002 L 22.205000000000005,6.189000000000002 L 21.753000000000004,3.389000000000002 C 21.690000000000005,3.007000000000002 21.368000000000002,2.722000000000002 20.982000000000003,2.706000000000002 L 18.147000000000002,2.595000000000002 L 16.446,0.32500000000000195 C 16.214000000000002,0.015000000000001956 15.794000000000002,-0.08799999999999802 15.447000000000001,0.07900000000000196 L 12.886000000000001,1.297000000000002 L 10.324000000000002,0.07800000000000185 C 9.976,-0.087 9.558,0.016 9.325,0.325 L 7.623999999999999,2.595 L 4.789,2.706 C 4.404,2.721 4.0809999999999995,3.006 4.019,3.388 L 3.567,6.188 L 1.109,7.605 C 0.774,7.797 0.621,8.2 0.743,8.567 L 1.6440000000000001,11.256 L 0.1260000000000001,13.653 C -0.08099999999999988,13.98 -0.027999999999999886,14.407 0.2510000000000001,14.675 L 2.298,16.638 L 2.068,19.464000000000002 C 2.037,19.851000000000003 2.281,20.204 2.652,20.312 L 5.377000000000001,21.097 L 6.486000000000001,23.708000000000002 C 6.638000000000001,24.063000000000002 7.019000000000001,24.269000000000002 7.397,24.187 L 10.177,23.617 L 12.370999999999999,25.414 C 12.519999999999998,25.535 12.703,25.598000000000003 12.886,25.598000000000003 C 13.068999999999999,25.598000000000003 13.251,25.535000000000004 13.401,25.414 L 15.594999999999999,23.617 L 18.375,24.187 C 18.752,24.267 19.135,24.064 19.286,23.708000000000002 L 20.395000000000003,21.097 L 23.120000000000005,20.312 C 23.491000000000003,20.205000000000002 23.735000000000003,19.851000000000003 23.704000000000004,19.464000000000002 L 23.474000000000004,16.638 L 25.521000000000004,14.675 C 25.8,14.407 25.853,13.98 25.646,13.653 M 18.763,9.742 L 13.072000000000003,18.268 C 12.857000000000003,18.586000000000002 12.524000000000003,18.799 12.193000000000003,18.799 C 11.863000000000003,18.799 11.494000000000003,18.614 11.259000000000004,18.378 L 7.081000000000004,14.133 C 6.796000000000004,13.843 6.796000000000004,13.373 7.081000000000004,13.082999999999998 L 8.112000000000004,12.032999999999998 C 8.397000000000004,11.746999999999998 8.860000000000003,11.746999999999998 9.143000000000004,12.032999999999998 L 11.862000000000004,14.794999999999998 L 16.346000000000004,8.076999999999998 C 16.571000000000005,7.737999999999998 17.028000000000002,7.651999999999998 17.360000000000003,7.8809999999999985 L 18.569000000000003,8.711999999999998 C 18.902,8.942 18.988,9.405 18.763,9.742 L 18.763,9.742"/>
</svg>
