<?xml version="1.0" ?>
<svg xmlns="http://www.w3.org/2000/svg" xmlns:ev="http://www.w3.org/2001/xml-events" xmlns:xlink="http://www.w3.org/1999/xlink" baseProfile="full" height="600px" style="enable-background:new 0 0 22 26;" version="1.1" viewBox="0 0 22 26" width="508px" x="0px" xml:space="preserve" y="0px">
	<defs/>
	<path d="M 20.627,12.628 C 21.918,3.755 16.778,0.0 11.0,0.0 C 5.227,0.0 -0.08,3.722 1.354,12.604 C 0.529,13.274 0.0,14.443 0.0,15.84 C 0.0,17.711 1.793,19.317 3.181,19.826999999999998 C 4.482,24.155 9.222,26.0 11.0,26.0 C 12.773,26.0 17.492,24.166 18.809,19.865000000000002 C 20.353,19.375 22.0,17.624 22.0,15.84 C 22.0,14.492 21.45,13.313 20.627,12.628 M 15.125,12.0 C 15.125,12.069 15.069,12.125 15.0,12.125 L 7.0,12.125 C 6.931,12.125 6.875,12.069 6.875,12.0 L 6.875,10.0 C 6.875,9.931 6.931,9.875 7.0,9.875 L 15.0,9.875 C 15.069,9.875 15.125,9.931 15.125,10.0 L 15.125,12.0"/>
</svg>
