<?xml version="1.0" ?>
<svg xmlns="http://www.w3.org/2000/svg" xmlns:ev="http://www.w3.org/2001/xml-events" xmlns:xlink="http://www.w3.org/1999/xlink" baseProfile="full" height="600px" style="enable-background:new 0 0 26 26;" version="1.1" viewBox="0 0 26 26" width="600px" x="0px" xml:space="preserve" y="0px">
	<defs/>
	<path d="M 22.013,20.894 C 22.013,20.894 21.224,20.726999999999997 21.598000000000003,19.99 C 22.060000000000002,19.41 22.341,18.752 22.363000000000003,18.535999999999998 C 22.363000000000003,18.535999999999998 23.073000000000004,18.011999999999997 23.114000000000004,17.226 C 23.159000000000006,16.442 22.959000000000003,16.404999999999998 22.959000000000003,16.404999999999998 C 23.257,15.548999999999998 23.331000000000003,12.454999999999998 21.130000000000003,12.837999999999997 C 20.820000000000004,11.993999999999998 18.487000000000002,11.520999999999997 17.415000000000003,13.314999999999998 C 16.881000000000004,14.209999999999997 16.682000000000002,15.430999999999997 17.099000000000004,16.427999999999997 C 17.084000000000003,16.502 16.951000000000004,16.355999999999998 16.903000000000002,16.816 C 16.856,17.259999999999998 17.070000000000004,17.897 17.302000000000003,18.192 C 17.403000000000002,18.317 17.565000000000005,18.408 17.678000000000004,18.454 C 17.678000000000004,18.454 17.817000000000004,19.245 18.477000000000004,19.991 C 18.629000000000005,20.583 18.002000000000002,20.895 18.002000000000002,20.895 C 15.925000000000002,21.269 14.016000000000002,22.349 14.016000000000002,23.517 C 14.016000000000002,23.602999999999998 14.016000000000002,24.422 14.016000000000002,24.422 L 14.016000000000002,24.422 C 14.016000000000002,25.69 17.17,25.962 20.005000000000003,25.961000000000002 C 22.843000000000004,25.961000000000002 25.975,25.197000000000003 25.975,24.421000000000003 C 25.975,24.421000000000003 25.975,23.602000000000004 25.975,23.516000000000002 C 25.975,22.348 24.089,21.268 22.013,20.894"/>
	<path d="M 8.013,20.894 C 8.013,20.894 7.224,20.726999999999997 7.598,19.99 C 8.06,19.41 8.341,18.752 8.363,18.535999999999998 C 8.363,18.535999999999998 9.073,18.011999999999997 9.113999999999999,17.226 C 9.158999999999999,16.442 8.959,16.404999999999998 8.959,16.404999999999998 C 9.257,15.548999999999998 9.331,12.454999999999998 7.13,12.837999999999997 C 6.82,11.993999999999998 4.487,11.520999999999997 3.415,13.314999999999998 C 2.8810000000000002,14.209999999999997 2.682,15.430999999999997 3.099,16.427999999999997 C 3.084,16.502 2.951,16.355999999999998 2.903,16.816 C 2.856,17.259999999999998 3.07,17.897 3.302,18.192 C 3.403,18.317 3.565,18.408 3.678,18.454 C 3.678,18.454 3.817,19.245 4.477,19.991 C 4.6290000000000004,20.583 4.002000000000001,20.895 4.002000000000001,20.895 C 1.9250000000000007,21.269 0.01600000000000046,22.349 0.01600000000000046,23.517 C 0.01600000000000046,23.602999999999998 0.01600000000000046,24.422 0.01600000000000046,24.422 L 0.01600000000000046,24.422 C 0.01600000000000046,25.69 3.1700000000000004,25.962 6.005000000000001,25.961000000000002 C 8.843,25.961000000000002 11.975000000000001,25.197000000000003 11.975000000000001,24.421000000000003 C 11.975000000000001,24.421000000000003 11.975000000000001,23.602000000000004 11.975000000000001,23.516000000000002 C 11.975,22.348 10.089,21.268 8.013,20.894"/>
	<path d="M 8.5,11.0 C 9.345,11.0 10.205,10.861 11.01,10.588 C 12.195,11.48 13.824,12.0 15.5,12.0 C 18.651,12.0 22.0,10.064 22.0,6.478 C 22.0,3.304 19.267,1.0 15.5,1.0 C 14.576,1.0 13.722,1.127 12.953,1.38 C 11.815,0.51 10.271,0.0 8.5,0.0 C 4.233,0.0 2.0,2.809 2.0,5.583 C 2.0,9.139 5.27,11.0 8.5,11.0 M 15.0,5.478 C 15.0,4.603 14.792,3.7939999999999996 14.412,3.081 C 14.755,3.027 15.117,3.0 15.5,3.0 C 18.149,3.0 20.0,4.43 20.0,6.478 C 20.0,9.062 17.309,10.0 15.5,10.0 C 14.778,10.0 13.872,9.854 13.057,9.487 C 14.219,8.557 15.0,7.21 15.0,5.478 M 8.5,2.0 C 11.149,2.0 13.0,3.43 13.0,5.478 C 13.0,7.008 12.057,7.96 10.911999999999999,8.483 C 10.84,8.504000000000001 10.77,8.534 10.703999999999999,8.572000000000001 C 9.97,8.87 9.174,9.0 8.5,9.0 C 6.691,9.0 4.0,8.09 4.0,5.583 C 4.0,4.344 4.94,2.0 8.5,2.0"/>
	<path cx="1" cy="15" d="M 0.0,15.0 A 1.0,1.0 0.0 1,0 2.0,15.0 A 1.0,1.0 0.0 1,0 0.0,15.0" r="1"/>
	<path cx="1.5" cy="10.5" d="M 0.0,10.5 A 1.5,1.5 0.0 1,0 3.0,10.5 A 1.5,1.5 0.0 1,0 0.0,10.5" r="1.5"/>
	<path cx="25" cy="14" d="M 24.0,14.0 A 1.0,1.0 0.0 1,0 26.0,14.0 A 1.0,1.0 0.0 1,0 24.0,14.0" r="1"/>
	<path cx="24.5" cy="9.5" d="M 23.0,9.5 A 1.5,1.5 0.0 1,0 26.0,9.5 A 1.5,1.5 0.0 1,0 23.0,9.5" r="1.5"/>
</svg>
