<?xml version="1.0" ?>
<svg xmlns="http://www.w3.org/2000/svg" xmlns:ev="http://www.w3.org/2001/xml-events" xmlns:xlink="http://www.w3.org/1999/xlink" baseProfile="full" height="600px" style="enable-background:new 0 0 22 26;" version="1.1" viewBox="0 0 22 26" width="508px" x="0px" xml:space="preserve" y="0px">
	<defs/>
	<path d="M 20.627,12.628 C 21.918,3.755 16.778,0.0 11.0,0.0 C 5.227,0.0 -0.08,3.722 1.354,12.604 C 0.529,13.274 0.0,14.443 0.0,15.84 C 0.0,17.711 1.793,19.317 3.181,19.826999999999998 C 4.482,24.155 9.222,26.0 11.0,26.0 C 12.773,26.0 17.492,24.166 18.809,19.865000000000002 C 20.353,19.375 22.0,17.624 22.0,15.84 C 22.0,14.492 21.45,13.313 20.627,12.628 M 11.0,18.0 L 11.0,18.0 C 7.691,18.0 5.0,15.309000000000001 5.0,12.0 C 5.0,8.690999999999999 7.691,6.0 11.0,6.0 L 11.0,4.0 L 15.0,7.0 L 11.0,10.0 L 11.0,8.0 C 8.794,8.0 7.0,9.794 7.0,12.0 C 7.0,14.205 8.794,16.0 11.0,16.0 C 13.206,16.0 15.0,14.205 15.0,12.0 C 15.0,11.745 14.977,11.493 14.931,11.251 C 14.827,10.709 15.184,10.184999999999999 15.726999999999999,10.081999999999999 C 16.269,9.976999999999999 16.793,10.335999999999999 16.895999999999997,10.877999999999998 C 16.965,11.243 17.0,11.62 17.0,12.0 C 17.0,15.309 14.309,18.0 11.0,18.0"/>
</svg>
