<?xml version="1.0" ?>
<svg xmlns="http://www.w3.org/2000/svg" xmlns:ev="http://www.w3.org/2001/xml-events" xmlns:xlink="http://www.w3.org/1999/xlink" baseProfile="full" height="600px" style="enable-background:new 0 0 26 26;" version="1.1" viewBox="0 0 26 26" width="600px" x="0px" xml:space="preserve" y="0px">
	<defs/>
	<path d="M 13.8,17.0 C 14.100000000000001,14.7 14.700000000000001,12.1 14.700000000000001,11.7 C 14.700000000000001,11.2 14.500000000000002,10.799999999999999 14.200000000000001,10.5 C 13.9,10.2 13.5,10.0 13.0,10.0 C 12.5,10.0 12.1,10.2 11.8,10.5 C 11.500000000000002,10.8 11.4,11.2 11.4,11.7 C 11.4,12.2 12.1,14.7 12.3,17.0 L 13.8,17.0"/>
	<path d="M 13.0,19.0 C 12.6,19.0 12.2,19.1 11.9,19.4 C 11.6,19.7 11.5,20.099999999999998 11.5,20.5 C 11.5,21.0 11.6,21.3 11.9,21.6 C 12.200000000000001,21.900000000000002 12.6,22.0 13.0,22.0 C 13.4,22.0 13.8,21.9 14.1,21.6 C 14.4,21.3 14.5,20.900000000000002 14.5,20.5 C 14.5,20.1 14.4,19.7 14.1,19.4 C 13.8,19.1 13.4,19.0 13.0,19.0"/>
	<path d="M 7.0,5.0 C 7.6,5.0 8.0,4.6 8.0,4.0 L 8.0,1.0 C 8.0,0.4 7.6,0.0 7.0,0.0 C 6.4,0.0 6.0,0.4 6.0,1.0 L 6.0,4.0 C 6.0,4.6 6.4,5.0 7.0,5.0"/>
	<path d="M 23.0,2.0 L 21.0,2.0 L 21.0,4.0 C 21.0,5.1 20.1,6.0 19.0,6.0 C 17.9,6.0 17.0,5.1 17.0,4.0 L 17.0,2.0 L 9.0,2.0 L 9.0,4.0 C 9.0,5.1 8.1,6.0 7.0,6.0 C 5.9,6.0 5.0,5.1 5.0,4.0 L 5.0,2.0 L 3.0,2.0 C 1.3,2.0 0.0,3.3 0.0,5.0 L 0.0,23.0 C 0.0,24.7 1.3,26.0 3.0,26.0 L 23.0,26.0 C 24.7,26.0 26.0,24.7 26.0,23.0 L 26.0,5.0 C 26.0,3.3 24.7,2.0 23.0,2.0 M 24.0,23.0 C 24.0,23.6 23.6,24.0 23.0,24.0 L 3.0,24.0 C 2.4,24.0 2.0,23.6 2.0,23.0 L 2.0,8.0 L 24.0,8.0 L 24.0,23.0"/>
	<path d="M 19.0,5.0 C 19.6,5.0 20.0,4.6 20.0,4.0 L 20.0,1.0 C 20.0,0.4 19.6,0.0 19.0,0.0 C 18.4,0.0 18.0,0.4 18.0,1.0 L 18.0,4.0 C 18.0,4.6 18.4,5.0 19.0,5.0"/>
</svg>
