<?xml version="1.0" ?>
<svg xmlns="http://www.w3.org/2000/svg" xmlns:ev="http://www.w3.org/2001/xml-events" xmlns:xlink="http://www.w3.org/1999/xlink" baseProfile="full" height="600px" style="enable-background:new 0 0 26 26.001;" version="1.1" viewBox="0 0 26 26.001" width="577px" x="0px" xml:space="preserve" y="0px">
	<defs/>
	<path d="M 5.0,20.0 L 5.0,12.0 C 5.551,12.0 6.0,11.551 6.0,11.0 L 6.0,11.0 L 6.0,10.0 L 4.0,10.0 L 3.0,10.0 L 1.0,10.0 L 1.0,11.0 C 1.0,11.551 1.449,12.0 2.0,12.0 L 2.0,20.0 L 5.0,20.0"/>
	<path d="M 11.0,20.0 L 11.0,12.0 C 11.551,12.0 12.0,11.551 12.0,11.0 L 12.0,11.0 L 12.0,10.0 L 10.0,10.0 L 9.0,10.0 L 7.0,10.0 L 7.0,11.0 C 7.0,11.551 7.449,12.0 8.0,12.0 L 8.0,20.0 L 11.0,20.0"/>
	<path d="M 17.0,20.0 L 17.0,12.0 C 17.551,12.0 18.0,11.551 18.0,11.0 L 18.0,11.0 L 18.0,10.0 L 16.0,10.0 L 15.0,10.0 L 13.0,10.0 L 13.0,11.0 C 13.0,11.551 13.449,12.0 14.0,12.0 L 14.0,20.0 L 17.0,20.0"/>
	<path d="M 23.0,20.0 L 23.0,12.0 C 23.551,12.0 24.0,11.551 24.0,11.0 L 24.0,11.0 L 24.0,10.0 L 22.0,10.0 L 21.0,10.0 L 19.0,10.0 L 19.0,11.0 C 19.0,11.551 19.449,12.0 20.0,12.0 L 20.0,20.0 L 23.0,20.0"/>
	<path d="M 24.0,23.0 L 23.0,23.0 C 23.0,22.75 23.0,21.0 23.0,21.0 L 2.0,21.0 L 2.0,23.0 L 1.0,23.0 C 0.44899999999999995,23.0 0.0,23.449 0.0,24.0 L 0.0,25.0 C 0.0,25.551 0.449,26.0 1.0,26.0 L 24.0,26.0 C 24.551,26.0 25.0,25.551 25.0,25.0 L 25.0,24.0 C 25.0,23.45 24.551,23.0 24.0,23.0"/>
	<path d="M 0.961,9.0 L 24.02,9.0 C 24.028,9.0 24.035999999999998,9.0 24.04,9.0 C 24.57,9.0 25.0,8.553 25.0,8.0 C 25.0,7.58 24.752,7.221 24.399,7.072 L 24.399,7.072 L 12.975,0.136 C 12.676,-0.045999999999999985 12.305,-0.045999999999999985 12.006,0.136 L 0.4770000000000003,7.136 C 0.102,7.364 -0.08,7.825 0.033,8.261 C 0.146,8.697 0.526,9.0 0.961,9.0 M 12.5,3.351 C 13.688,3.351 14.649000000000001,4.313 14.649000000000001,5.5 C 14.649000000000001,6.688 13.688,7.649 12.5,7.649 C 11.312,7.649 10.350999999999999,6.688 10.350999999999999,5.5 C 10.350999999999999,4.312 11.312,3.351 12.5,3.351"/>
</svg>
