<?xml version="1.0" ?>
<svg xmlns="http://www.w3.org/2000/svg" xmlns:ev="http://www.w3.org/2001/xml-events" xmlns:xlink="http://www.w3.org/1999/xlink" baseProfile="full" height="600px" style="enable-background:new 0 0 26.028 26;" version="1.1" viewBox="0 0 26.028 26" width="600px" x="0px" xml:space="preserve" y="0px">
	<defs/>
	<path d="M 5.5,10.5 C 5.8,10.8 6.1,10.7 6.2,10.6 L 7.817,9.163 C 7.879,9.173 7.935,9.2 8.0,9.2 C 8.663,9.2 9.2,8.662999999999998 9.2,7.999999999999999 C 9.2,7.631999999999999 9.024999999999999,7.313999999999999 8.764,7.093999999999999 L 8.5,3.4 C 8.5,3.2 8.3,3.0 8.0,3.0 C 7.6,3.0 7.5,3.2 7.5,3.4 L 7.327,7.033 C 7.016,7.25 6.8,7.592 6.8,8.0 C 6.8,8.045 6.821,8.083 6.826,8.127 L 5.4,9.8 C 5.3,9.9 5.2,10.2 5.5,10.5"/>
	<path d="M 25.6,23.0 L 17.3,9.3 C 16.3,7.6000000000000005 14.600000000000001,7.6000000000000005 13.600000000000001,9.3 L 5.4,23.0 C 4.4,24.7 5.2,26.0 7.2,26.0 L 23.7,26.0 C 25.8,26.0 26.6,24.6 25.6,23.0 M 14.4,13.1 C 14.700000000000001,12.799999999999999 15.1,12.6 15.5,12.6 C 16.0,12.6 16.3,12.799999999999999 16.6,13.1 C 16.900000000000002,13.4 17.0,13.799999999999999 17.0,14.2 C 17.0,14.6 16.4,17.5 16.2,19.6 L 14.7,19.6 C 14.5,17.5 13.899999999999999,14.600000000000001 13.899999999999999,14.200000000000001 C 13.899999999999999,13.8 14.1,13.4 14.4,13.1 M 16.6,23.1 C 16.3,23.400000000000002 15.900000000000002,23.5 15.500000000000002,23.5 C 15.100000000000001,23.5 14.700000000000001,23.4 14.400000000000002,23.1 C 14.100000000000003,22.800000000000004 13.900000000000002,22.5 13.900000000000002,22.0 C 13.900000000000002,21.6 14.100000000000001,21.2 14.400000000000002,20.9 C 14.700000000000003,20.599999999999998 15.100000000000001,20.5 15.500000000000002,20.5 C 15.900000000000002,20.5 16.3,20.6 16.6,20.9 C 16.900000000000002,21.2 17.1,21.599999999999998 17.1,22.0 C 17.1,22.5 16.9,22.8 16.6,23.1"/>
	<path d="M 8.5,16.0 L 9.9,13.7 C 9.2,13.9 8.6,14.0 8.0,14.0 C 4.7,14.0 2.0,11.3 2.0,8.0 C 2.0,4.699999999999999 4.7,2.0 8.0,2.0 C 11.1,2.0 13.7,4.4 14.0,7.5 C 14.4,7.2 15.0,7.0 15.5,7.0 C 15.6,7.0 15.8,7.0 15.9,7.0 C 15.4,3.0 12.0,0.0 8.0,0.0 C 3.6,0.0 0.0,3.6 0.0,8.0 C 0.0,12.4 3.6,16.0 8.0,16.0 C 8.2,16.0 8.3,16.0 8.5,16.0"/>
</svg>
