<?xml version="1.0" ?>
<svg xmlns="http://www.w3.org/2000/svg" xmlns:ev="http://www.w3.org/2001/xml-events" xmlns:xlink="http://www.w3.org/1999/xlink" baseProfile="full" height="600px" style="enable-background:new 0 0 21.94 25.729;" version="1.1" viewBox="0 0 21.94 25.729" width="512px" x="0px" xml:space="preserve" y="0px">
	<defs/>
	<path d="M 14.949,15.889 C 14.949,15.889 14.221,17.759999999999998 13.193999999999999,19.219 C 12.665999999999999,18.045 12.011,16.852 11.498999999999999,16.26 C 12.812,16.086000000000002 13.614999999999998,15.307000000000002 13.87,14.977000000000002 C 13.76,14.613000000000001 13.747,14.090000000000002 13.997,13.331000000000003 L 13.988,13.331000000000003 C 15.625,11.645000000000003 16.875999999999998,8.932000000000002 16.875999999999998,6.261000000000003 C 16.875999999999998,2.1540000000000026 14.144999999999998,0.0010000000000029985 10.970999999999997,0.0010000000000029985 C 7.795,0.0 5.079,2.152 5.079,6.26 C 5.079,8.942 6.3229999999999995,11.666 7.97,13.347999999999999 C 8.237,14.046999999999999 8.188,14.556 8.031,14.927 C 8.245000000000001,15.215 9.069,16.073999999999998 10.447000000000001,16.256999999999998 C 9.937000000000001,16.851 9.285,18.052 8.756,19.229 C 7.713,17.753 6.970000000000001,15.844 6.970000000000001,15.844 L 6.977,15.837 C 3.709,17.057 0.0,19.191 0.0,21.301 C 0.0,21.884999999999998 0.0,21.531 0.0,22.112 C 0.0,25.058999999999997 5.714,25.729 11.002,25.729 C 16.298000000000002,25.729 21.94,25.058999999999997 21.94,22.112 C 21.94,21.532 21.94,21.884999999999998 21.94,21.301 C 21.94,19.16 18.325,17.073 14.949,15.889"/>
</svg>
