<?xml version="1.0" ?>
<svg xmlns="http://www.w3.org/2000/svg" xmlns:ev="http://www.w3.org/2001/xml-events" xmlns:xlink="http://www.w3.org/1999/xlink" baseProfile="full" height="600px" style="enable-background:new 0 0 26 26;" version="1.1" viewBox="0 0 26 26" width="600px" x="0px" xml:space="preserve" y="0px">
	<defs/>
	<path d="M 24.0,0.0 L 2.0,0.0 C 0.897,0.0 0.0,0.897 0.0,2.0 L 0.0,24.0 C 0.0,25.103 0.897,26.0 2.0,26.0 L 24.0,26.0 C 25.103,26.0 26.0,25.103 26.0,24.0 L 26.0,2.0 C 26.0,0.897 25.103,0.0 24.0,0.0 M 2.0,24.0 L 2.0,2.0 L 24.0,2.0 L 24.002,24.0 L 2.0,24.0"/>
	<path d="M 4.0,19.0 L 4.0,21.0 L 5.695,21.0 C 5.908,21.574 6.632000000000001,22.0 7.5,22.0 C 8.368,22.0 9.092,21.574 9.305,21.0 L 11.0,21.0 L 11.0,19.0 L 11.0,19.0 L 4.0,19.0"/>
	<path d="M 4.0,4.0 L 22.0,4.0 L 22.0,17.0 L 4.0,17.0 L 4.0,4.0" height="13" width="18" x="4" y="4"/>
	<path d="M 15.0,19.0 L 22.0,19.0 L 22.0,21.0 L 15.0,21.0 L 15.0,19.0" height="2" width="7" x="15" y="19"/>
</svg>
