<?xml version="1.0" ?>
<svg xmlns="http://www.w3.org/2000/svg" xmlns:ev="http://www.w3.org/2001/xml-events" xmlns:xlink="http://www.w3.org/1999/xlink" baseProfile="full" height="600px" style="enable-background:new 0 0 26 26;" version="1.1" viewBox="0 0 26 26" width="600px" x="0px" xml:space="preserve" y="0px">
	<defs/>
	<path d="M 23.0,2.0 L 14.0,2.0 L 14.0,1.0 C 14.0,0.44799999999999995 13.553,0.0 13.0,0.0 C 12.448,0.0 12.0,0.448 12.0,1.0 L 12.0,2.0 L 3.0,2.0 C 1.344,2.0 0.0,3.343 0.0,5.0 L 0.0,18.0 C 0.0,19.656 1.344,21.0 3.0,21.0 L 12.0,21.0 L 12.0,21.382 L 6.553,24.106 C 6.059,24.353 5.859,24.954 6.106,25.448 C 6.353,25.942 6.952,26.142 7.448,25.895 L 12.0,23.618 L 12.0,24.0 C 12.0,24.553 12.448,25.0 13.0,25.0 C 13.553,25.0 14.0,24.553 14.0,24.0 L 14.0,23.618 L 18.553,25.894 C 18.696,25.966 18.849,26.0 18.999,26.0 C 19.366,26.0 19.718999999999998,25.798 19.895,25.447 C 20.142,24.953 19.942,24.352 19.448,24.105 L 14.0,21.382 L 14.0,21.0 L 23.0,21.0 C 24.656,21.0 26.0,19.656 26.0,18.0 L 26.0,5.0 C 26.0,3.343 24.656,2.0 23.0,2.0 M 24.0,18.0 L 2.0,18.0 L 2.0,5.0 L 24.0,5.0 L 24.0,18.0"/>
	<path d="M 5.707,13.707 L 7.635,11.779 L 9.072,15.371 C 9.215,15.727 9.549,15.971 9.931,15.998000000000001 C 9.954,15.999 9.977,16.0 10.0,16.0 C 10.357,16.0 10.689,15.81 10.868,15.496 L 14.219000000000001,9.633 L 16.293,11.706999999999999 C 16.683999999999997,12.097999999999999 17.316,12.097999999999999 17.707,11.706999999999999 L 21.707,7.706999999999999 C 22.098,7.315999999999999 22.098,6.683999999999999 21.707,6.292999999999999 C 21.316000000000003,5.901999999999999 20.684,5.901999999999999 20.293,6.292999999999999 L 17.0,9.586 L 14.707,7.293 C 14.487,7.073 14.176,6.9670000000000005 13.867,7.009 C 13.558000000000002,7.051 13.286000000000001,7.234 13.132000000000001,7.5040000000000004 L 10.159000000000002,12.706 L 8.929000000000002,9.629 C 8.804,9.316 8.53,9.088 8.201,9.021 C 7.872000000000001,8.955 7.531000000000001,9.057 7.293,9.293000000000001 L 4.293,12.293000000000001 C 3.902,12.684000000000001 3.902,13.316 4.293,13.707 C 4.684,14.098 5.316,14.098 5.707,13.707"/>
</svg>
