<?xml version="1.0" ?>
<svg xmlns="http://www.w3.org/2000/svg" xmlns:ev="http://www.w3.org/2001/xml-events" xmlns:xlink="http://www.w3.org/1999/xlink" baseProfile="full" enable-background="new 0 0 99.697 100" height="600px" version="1.1" viewBox="0 0 99.697 100" width="599px" x="0px" xml:space="preserve" y="0px">
	<defs/>
	<path d="M 9.99,48.356 C 7.891,48.356 6.172000000000001,50.076 6.172000000000001,52.174 C 6.172000000000001,54.274 7.892,55.967999999999996 9.99,55.967999999999996 C 12.09,55.967999999999996 13.784,54.273999999999994 13.784,52.174 C 13.784,50.076 12.089,48.356 9.99,48.356"/>
	<path d="M 62.924,16.565 C 67.476,16.565 71.194,12.873000000000001 71.194,8.295000000000002 C 71.194,3.7170000000000023 67.476,0.0 62.924,0.0 C 58.346,0.0 54.628,3.718 54.628,8.295 C 54.628,12.872 58.346,16.565 62.924,16.565"/>
	<path d="M 98.508,90.339 L 85.053,74.456 C 85.053,74.456 80.85499999999999,49.92400000000001 80.85499999999999,49.873000000000005 C 80.85499999999999,49.848000000000006 80.22299999999998,47.09100000000001 80.22299999999998,47.09100000000001 C 80.24799999999999,47.11600000000001 78.52799999999999,39.35200000000001 77.21299999999998,33.28200000000001 C 79.31199999999998,34.49600000000001 81.20899999999997,35.58400000000001 81.30999999999997,35.63400000000001 C 81.41099999999997,35.86200000000001 88.44199999999998,49.24000000000001 88.44199999999998,49.24000000000001 C 88.97299999999998,50.226000000000006 89.85799999999998,50.96000000000001 90.92099999999998,51.28900000000001 C 92.00899999999997,51.61700000000001 93.14799999999998,51.51700000000001 94.13399999999997,50.98500000000001 C 95.11999999999998,50.479000000000006 95.85299999999997,49.59400000000001 96.18199999999997,48.50600000000001 C 96.53599999999997,47.44400000000001 96.43499999999997,46.306000000000004 95.90399999999997,45.31900000000001 L 88.19,30.627 C 88.19,30.627 87.88499999999999,30.096 87.481,29.691 C 86.92399999999999,29.134999999999998 85.711,28.451999999999998 85.711,28.451999999999998 L 70.738,19.929 C 68.842,18.968 66.742,18.639 64.642,19.095 C 63.782999999999994,19.272 62.973,19.601 62.062999999999995,20.107 C 61.961,20.131999999999998 58.647999999999996,21.599 56.726,26.101 L 49.04,41.578 C 49.04,41.578 37.33,43.854 36.925,43.93 C 36.824,43.955 36.721999999999994,43.981 36.647,44.031 L 25.721999999999998,36.292 C 23.267999999999997,34.572 22.964999999999996,29.413000000000004 22.939999999999998,29.21 C 22.636,25.669 20.613,22.331000000000003 17.375999999999998,20.029000000000003 C 14.441999999999997,17.955000000000005 10.901999999999997,17.070000000000004 7.664999999999997,17.601000000000003 C 5.1359999999999975,18.031000000000002 2.985999999999997,19.346000000000004 1.6209999999999978,21.268 C 0.556,22.762 0.0,24.558 0.0,26.479 C 0.0,26.503999999999998 0.152,28.148 0.152,28.148 C 0.7090000000000001,31.41 2.7070000000000003,34.445 5.640000000000001,36.544 C 8.599,38.643 12.114,39.528 15.351,38.971999999999994 L 16.11,38.82099999999999 C 16.186,38.76999999999999 21.042,37.27799999999999 23.419,38.89699999999999 C 23.419,38.92199999999999 31.588,44.68899999999999 33.763,46.230999999999995 C 33.535,46.584999999999994 33.131,47.36899999999999 33.156,48.178 C 33.156,48.431 33.181,48.684 33.232,48.937 C 33.662,51.212999999999994 35.888,52.73 38.164,52.275 L 52.68,49.442 C 52.68,49.442 53.92,49.063 54.451,48.683 C 55.134,48.203 55.639,47.191 55.639,47.191 L 59.458000000000006,39.503 C 59.458000000000006,39.503 62.087,51.921 62.138000000000005,52.147999999999996 C 61.83500000000001,52.452 50.226000000000006,64.76899999999999 50.226000000000006,64.76899999999999 L 50.025000000000006,65.02099999999999 C 48.886,66.05799999999999 48.254000000000005,67.42299999999999 48.254000000000005,68.86599999999999 L 48.254000000000005,94.96699999999998 C 48.254000000000005,97.74799999999999 50.531000000000006,99.99899999999998 53.313,99.99899999999998 C 56.07,99.99899999999998 58.346000000000004,97.74799999999998 58.346000000000004,94.96699999999998 C 58.346000000000004,94.96699999999998 58.346000000000004,73.51999999999998 58.346000000000004,73.16599999999998 C 59.408,72.05299999999998 68.311,62.66999999999998 70.688,60.19099999999998 C 70.941,61.65799999999998 73.24300000000001,74.88399999999999 73.24300000000001,74.88399999999999 C 73.44500000000001,76.04799999999999 74.001,77.11099999999999 74.83600000000001,77.96999999999998 C 74.83600000000001,77.99499999999999 90.81900000000002,96.86299999999999 90.81900000000002,96.86299999999999 C 91.70500000000001,97.87499999999999 92.91900000000001,98.50699999999999 94.25900000000001,98.63299999999998 C 95.60000000000001,98.73499999999999 96.88900000000001,98.30499999999998 97.92600000000002,97.44499999999998 C 99.08900000000001,96.45899999999997 99.69700000000002,95.01699999999998 99.69700000000002,93.59999999999998 C 99.697,92.438 99.317,91.3 98.508,90.339 M 18.741,33.435 C 17.855999999999998,34.674 16.49,35.484 14.796,35.787 C 12.419,36.192 9.762999999999998,35.509 7.536999999999999,33.89 C 5.286,32.297 3.767999999999999,30.021 3.363999999999999,27.643 L 3.262999999999999,26.455000000000002 C 3.262999999999999,25.216 3.591999999999999,24.103 4.273999999999999,23.142000000000003 C 6.475,20.057000000000002 11.506999999999998,19.854000000000003 15.502999999999998,22.687000000000005 C 19.474,25.519 20.941,30.349 18.741,33.435"/>
</svg>
