<?xml version="1.0" ?>
<svg xmlns="http://www.w3.org/2000/svg" xmlns:ev="http://www.w3.org/2001/xml-events" xmlns:xlink="http://www.w3.org/1999/xlink" baseProfile="full" enable-background="new 0 0 100 100" height="318px" version="1.1" viewBox="0 0 100 100" width="600px" x="0px" xml:space="preserve" y="0px">
	<defs/>
	<path d="M 83.306,47.054 C 83.273,56.743 81.972,57.704 74.56099999999999,57.704 C 73.92999999999999,57.704 40.425999999999995,57.708 37.388999999999996,57.708 C 32.431999999999995,57.708 26.427999999999997,57.704 26.427999999999997,57.704 L 26.427999999999997,50.06 L 18.708,55.406000000000006 L 10.983999999999998,60.75200000000001 L 18.708,66.09700000000001 L 26.427999999999997,71.44300000000001 L 26.427999999999997,63.799000000000014 C 26.427999999999997,63.799000000000014 32.236,63.802000000000014 37.141999999999996,63.802000000000014 C 40.29899999999999,63.802000000000014 73.942,63.799000000000014 74.56099999999999,63.799000000000014 C 83.86099999999999,63.799000000000014 92.487,62.51100000000002 90.086,42.36100000000002 L 83.306,47.054"/>
	<path d="M 16.694,52.947 C 16.727,43.258 18.028,42.297000000000004 25.439,42.297000000000004 C 26.07,42.297000000000004 59.574,42.293000000000006 62.611,42.293000000000006 C 67.568,42.293000000000006 73.572,42.297000000000004 73.572,42.297000000000004 L 73.572,49.94200000000001 L 81.292,44.596000000000004 L 89.016,39.25 L 81.292,33.905 L 73.572,28.558 L 73.572,36.203 C 73.572,36.203 67.76400000000001,36.2 62.858000000000004,36.2 C 59.7,36.2 26.058000000000007,36.203 25.439000000000007,36.203 C 16.139000000000006,36.203 7.513000000000009,37.491 9.914000000000007,57.64 L 16.694,52.947"/>
</svg>
