<?xml version="1.0" ?>
<svg xmlns="http://www.w3.org/2000/svg" xmlns:ev="http://www.w3.org/2001/xml-events" xmlns:xlink="http://www.w3.org/1999/xlink" baseProfile="full" enable-background="new 0 0 100 94.095" height="565px" version="1.1" viewBox="0 0 100 94.095" width="600px" x="0px" xml:space="preserve" y="0px">
	<defs/>
	<path d="M 96.877,86.324 C 96.866,88.89099999999999 94.73899999999999,90.962 92.18299999999999,90.95 L 15.905,90.95 L 15.905,94.096 L 92.173,94.096 C 96.471,94.11800000000001 99.97800000000001,90.679 100.001,86.358 L 96.877,86.324"/>
	<path d="M 74.073,15.328 C 78.303,15.328 81.731,11.889999999999999 81.731,7.659 C 81.731,3.428000000000001 78.303,0.0 74.073,0.0 C 69.842,0.0 66.40299999999999,3.427 66.40299999999999,7.658 C 66.40299999999999,11.889000000000001 69.841,15.328 74.073,15.328"/>
	<path d="M 25.498,81.3 L 0.0,55.724 L 0.011,60.19199999999999 L 23.744,84.01599999999999 C 26.47,86.96799999999999 31.142,83.55199999999999 31.142,83.55199999999999 L 28.902,81.154 C 28.902,81.154 26.696,82.60199999999999 25.553,81.369 L 25.498,81.3"/>
	<path d="M 47.692,21.018 L 35.769,34.785 C 35.068,35.656 33.992999999999995,36.193999999999996 32.794,36.193999999999996 C 30.656,36.193999999999996 28.936999999999998,34.468999999999994 28.936999999999998,32.342 C 28.936999999999998,31.188 29.435,30.159 30.237999999999996,29.451999999999998 L 43.089,14.649999999999999 C 43.801,13.801999999999998 44.865,13.252999999999998 46.064,13.252999999999998 L 64.672,13.247999999999998 C 66.041,13.247999999999998 67.262,13.796999999999997 68.16799999999999,14.666999999999998 L 80.03399999999999,26.528 L 89.86399999999999,16.714999999999996 C 90.55399999999999,16.132999999999996 91.448,15.781999999999996 92.42099999999999,15.781999999999996 C 94.627,15.781999999999996 96.40299999999999,17.569999999999997 96.40299999999999,19.763999999999996 C 96.40299999999999,20.725999999999996 96.07499999999999,21.596999999999994 95.50899999999999,22.285999999999994 L 83.654,34.23 C 80.056,37.821999999999996 77.161,34.772999999999996 77.161,34.772999999999996 L 69.888,27.464999999999996 L 58.518,40.611 L 68.937,51.028999999999996 C 68.937,51.028999999999996 71.131,53.065999999999995 69.875,57.126999999999995 L 64.038,83.14599999999999 C 63.574,85.40799999999999 61.571999999999996,87.10499999999999 59.184999999999995,87.10499999999999 C 56.446999999999996,87.10499999999999 54.23,84.88699999999999 54.23,82.14999999999999 C 54.23,81.71999999999998 54.275,81.30099999999999 54.388,80.90599999999999 L 59.184,59.55399999999999 L 47.353,48.048 L 37.172,59.4 C 37.172,59.4 35.520999999999994,61.437 31.153999999999996,61.278 L 10.508999999999997,61.312 C 8.200999999999997,61.357 6.107999999999997,59.774 5.5879999999999965,57.437999999999995 C 4.976999999999997,54.767999999999994 6.628999999999996,52.154999999999994 9.297999999999996,51.56099999999999 C 9.716999999999997,51.46399999999999 10.134999999999996,51.43099999999999 10.542999999999996,51.44199999999999 L 28.302999999999997,51.492999999999995 L 54.559,21.051999999999996 L 47.692,21.018"/>
	<path d="M 96.855,25.616 L 99.831,26.866 L 70.204,86.504 L 66.923,86.504 L 96.855,25.616" points="96.855,25.616 99.831,26.866 70.204,86.504 66.923,86.504 "/>
	<path d="M 0.215,33.06 L 26.312,33.06 L 26.312,36.176 L 0.215,36.176 L 0.215,33.06" height="3.116" width="26.097" x="0.215" y="33.06"/>
</svg>
