<?xml version="1.0" ?>
<svg xmlns="http://www.w3.org/2000/svg" xmlns:ev="http://www.w3.org/2001/xml-events" xmlns:xlink="http://www.w3.org/1999/xlink" baseProfile="full" enable-background="new 0 0 100 100" height="600px" version="1.1" viewBox="0 0 100 100" width="600px" x="0px" xml:space="preserve" y="0px">
	<defs/>
	<path d="M 50.0,0.0 C 22.386,0.0 0.0,22.386 0.0,50.0 C 0.0,77.614 22.386,100.0 50.0,100.0 C 77.614,100.0 100.0,77.614 100.0,50.0 C 100.0,22.385999999999996 77.614,0.0 50.0,0.0 M 50.0,92.857 C 26.331,92.857 7.143,73.669 7.143,50.0 C 7.143,26.331 26.331,7.143 50.0,7.143 C 73.669,7.143 92.857,26.331 92.857,50.0 C 92.857,73.669 73.669,92.857 50.0,92.857"/>
	<path d="M 64.286,17.857 C 60.265,17.857 56.556,19.186999999999998 53.571,21.428 L 53.571,17.857 L 46.428,17.857 L 46.428,50.0 C 43.443,47.758 39.733999999999995,46.429 35.714,46.429 C 25.851999999999997,46.429 17.857,54.423 17.857,64.286 C 17.857,74.148 25.852,82.142 35.714,82.142 C 39.733999999999995,82.142 43.443,80.813 46.428,78.572 L 46.428,82.142 L 53.571,82.142 L 53.571,50.0 C 56.555,52.242 60.265,53.571 64.286,53.571 C 74.148,53.571 82.142,45.576 82.142,35.714 C 82.142,25.851999999999997 74.148,17.857 64.286,17.857 M 35.714,75.0 C 29.797,75.0 25.0,70.203 25.0,64.286 C 25.0,58.368 29.797,53.571 35.714,53.571 C 41.631,53.571 46.428,58.367999999999995 46.428,64.286 C 46.429,70.203 41.632,75.0 35.714,75.0 M 64.286,46.429 C 58.368,46.429 53.571,41.632000000000005 53.571,35.715 C 53.571,29.798000000000002 58.368,25.0 64.286,25.0 C 70.203,25.0 75.0,29.797 75.0,35.714 C 75.0,41.631 70.203,46.429 64.286,46.429"/>
</svg>
