<?xml version="1.0" ?>
<svg xmlns="http://www.w3.org/2000/svg" xmlns:ev="http://www.w3.org/2001/xml-events" xmlns:xlink="http://www.w3.org/1999/xlink" baseProfile="full" enable-background="new 0 0 100 44.39" height="267px" version="1.1" viewBox="0 0 100 44.39" width="600px" x="0px" xml:space="preserve" y="0px">
	<defs/>
	<path d="M 65.091,44.285 C 68.955,44.285 72.07799999999999,41.144 72.07799999999999,37.281 C 72.07799999999999,33.421 68.95499999999998,30.298 65.091,30.298 C 61.233,30.298 58.09199999999999,33.421 58.09199999999999,37.281 C 58.092,41.145 61.232,44.285 65.091,44.285"/>
	<path d="M 17.27,44.39 C 21.128999999999998,44.39 24.256,41.267 24.256,37.407000000000004 C 24.256,33.543000000000006 21.129,30.402000000000005 17.27,30.402000000000005 C 13.405999999999999,30.402000000000005 10.266,33.543000000000006 10.266,37.407000000000004 C 10.266,41.267 13.406,44.39 17.27,44.39"/>
	<path d="M 81.1,44.285 C 84.958,44.285 88.085,41.144 88.085,37.281 C 88.085,33.421 84.958,30.298 81.1,30.298 C 77.23599999999999,30.298 74.095,33.421 74.095,37.281 C 74.095,41.145 77.235,44.285 81.1,44.285"/>
	<path d="M 24.903,0.0 L 24.727999999999998,24.857 C 24.727999999999998,24.857 24.008999999999997,25.31 23.883,24.378999999999998 C 23.43,21.063999999999997 22.552999999999997,11.900999999999998 21.83,6.127999999999997 L 7.022,6.127999999999997 L 0.386,21.451 L 1.9129999999999998,32.945 L 0.0,32.945 L 0.0,36.652 L 9.583,36.652 C 9.704,27.189 24.729,27.419 24.904,36.441 L 57.090999999999994,36.266000000000005 C 58.23199999999999,27.715000000000003 68.97399999999999,29.121000000000006 73.939,29.121000000000006 C 78.8,29.121000000000006 87.99799999999999,27.575000000000006 88.75099999999999,36.404 L 100.0,36.404 L 100.0,0.0 L 24.903,0.0 M 5.162,20.256 L 9.407,9.53 L 18.779,9.53 L 18.955,10.042 L 19.444,20.255 L 5.162,20.255 L 5.162,20.256"/>
</svg>
