<?xml version="1.0" ?>
<svg xmlns="http://www.w3.org/2000/svg" xmlns:ev="http://www.w3.org/2001/xml-events" xmlns:xlink="http://www.w3.org/1999/xlink" baseProfile="full" enable-background="new 0 0 100 93.288" height="560px" version="1.1" viewBox="0 0 100 93.288" width="600px" x="0px" xml:space="preserve" y="0px">
	<defs/>
	<path d="M 75.774,86.745 L 75.774,54.308 L 93.931,54.308 C 93.931,70.286 93.931,83.373 93.931,86.745 C 91.646,86.745 83.916,86.745 75.774,86.745 M 53.721,54.308 L 71.729,54.308 L 71.729,86.745 C 63.649,86.745 55.995,86.745 53.721000000000004,86.745 C 53.721,83.374 53.721,70.286 53.721,54.308 M 71.729,28.309 L 71.729,50.268 L 53.721,50.268 C 53.721,43.294 53.721,29.883 53.721,28.309 C 55.994,28.309 63.648,28.309 71.729,28.309 M 93.932,50.268 L 75.774,50.268 L 75.774,28.309 C 83.916,28.309 91.646,28.309 93.931,28.309 C 93.932,29.883 93.932,43.294 93.932,50.268 M 96.953,22.24 L 84.915,22.24 L 94.605,18.337999999999997 C 95.65400000000001,17.919999999999998 96.15400000000001,16.738999999999997 95.729,15.702999999999998 C 95.304,14.672999999999998 94.13,14.166999999999998 93.107,14.584999999999997 C 93.107,14.584999999999997 87.612,16.794999999999998 82.205,18.973999999999997 C 86.601,14.615999999999996 91.109,10.138999999999996 91.109,10.138999999999996 C 91.508,9.745999999999995 91.70899999999999,9.221999999999996 91.70899999999999,8.708999999999996 C 91.70899999999999,8.190999999999995 91.50899999999999,7.671999999999996 91.121,7.285999999999996 C 90.335,6.486999999999996 89.06,6.486999999999996 88.262,7.272999999999996 L 75.712,19.722999999999995 L 75.774,2.027999999999995 C 75.774,0.912 74.875,0.0 73.764,0.0 L 73.752,0.0 C 72.64099999999999,0.0 71.74,0.899 71.729,2.01 C 71.729,2.01 71.692,13.705 71.679,19.705 C 67.633,15.641 60.428,8.373 60.428,8.373 C 59.641,7.585999999999999 58.367,7.573999999999999 57.568,8.366999999999999 C 56.782,9.154 56.769,10.433 57.555,11.225999999999999 L 65.385,19.118 L 54.12100000000001,14.622999999999998 C 53.08400000000001,14.210999999999997 51.89800000000001,14.715999999999998 51.49800000000001,15.752999999999997 C 51.07400000000001,16.789999999999996 51.58600000000001,17.969999999999995 52.62300000000001,18.380999999999997 L 62.31200000000001,22.239999999999995 L 50.699,22.239999999999995 C 49.013,22.239999999999995 47.652,23.600999999999996 47.652,25.274999999999995 L 47.652,89.76599999999999 C 47.652,91.452 49.013,92.80099999999999 50.699,92.80099999999999 L 96.953,92.80099999999999 C 98.62700000000001,92.80099999999999 100.0,91.451 100.0,89.76599999999999 L 100.0,25.275 C 100.0,23.602 98.627,22.24 96.953,22.24"/>
	<path d="M 5.058,83.948 C 5.058,83.948 5.071,81.83699999999999 5.071,81.55 C 8.043,81.55 25.000999999999998,81.55 32.893,81.55 C 32.468,82.449 32.131,83.423 31.955000000000002,84.40899999999999 C 31.719,85.75899999999999 31.831000000000003,87.01899999999999 32.143,88.21799999999999 L 9.24,88.143 C 6.931,88.13 5.058,86.245 5.058,83.948 M 36.064,29.602 C 36.064,33.935 36.013,72.159 36.013,76.493 C 32.917,76.493 16.833,76.493 9.54,76.493 L 27.570999999999998,61.382999999999996 L 27.534,29.583999999999996 C 29.171,29.589 34.528,29.595 36.064,29.602 M 38.861,88.231 L 37.674,88.231 C 36.987,87.44399999999999 36.726,86.469 36.937,85.271 C 37.288,83.297 38.71,81.637 39.385,81.4 L 39.385,81.376 C 40.358999999999995,81.02600000000001 41.058,80.114 41.058,79.028 L 41.12,27.086000000000006 C 41.12,25.693000000000005 39.983999999999995,24.564000000000007 38.599,24.557000000000006 C 38.599,24.557000000000006 30.418999999999997,24.538000000000007 27.545999999999996,24.526000000000007 C 27.545999999999996,22.072000000000006 27.570999999999994,18.713000000000008 27.570999999999994,18.713000000000008 C 27.570999999999994,17.695000000000007 26.959999999999994,16.777000000000008 26.009999999999994,16.384000000000007 C 25.072999999999993,15.990000000000007 23.986999999999995,16.203000000000007 23.249999999999993,16.921000000000006 L 5.67,34.372 C 2.598,37.431 0.15000000000000036,43.244 0.1379999999999999,47.602000000000004 L 0.0,83.922 C 0.0,89.017 4.121,93.175 9.216,93.188 L 38.849,93.288 C 40.235,93.288 41.370999999999995,92.16499999999999 41.384,90.767 L 41.384,90.767 C 41.384,89.367 40.26,88.243 38.861,88.231"/>
</svg>
