<?xml version="1.0" ?>
<svg xmlns="http://www.w3.org/2000/svg" xmlns:ev="http://www.w3.org/2001/xml-events" xmlns:xlink="http://www.w3.org/1999/xlink" baseProfile="full" enable-background="new 0 0 99.999 99.998" height="600px" version="1.1" viewBox="0 0 99.999 99.998" width="600px" x="0px" xml:space="preserve" y="0px">
	<defs/>
	<path d="M 50.084,56.699 C 48.241,54.881 48.241,51.902 50.084,50.083999999999996 C 51.902,48.241 54.882000000000005,48.241 56.699000000000005,50.083999999999996 L 66.065,59.425 L 66.065,46.196 C 66.065,43.620999999999995 68.161,41.5 70.761,41.5 C 73.336,41.5 75.457,43.621 75.457,46.196 L 75.457,59.425 L 84.79899999999999,50.083999999999996 C 86.642,48.241 89.59599999999999,48.241 91.439,50.083999999999996 C 93.282,51.901999999999994 93.282,54.879999999999995 91.439,56.699 L 82.098,66.041 L 95.327,66.066 C 97.90299999999999,66.066 99.999,68.162 99.999,70.761 C 99.999,73.336 97.90299999999999,75.457 95.327,75.457 L 82.099,75.457 L 91.44,84.79799999999999 C 93.283,86.64199999999998 93.283,89.59499999999998 91.44,91.439 C 89.597,93.25699999999999 86.643,93.25699999999999 84.8,91.439 L 75.484,82.097 L 75.45899999999999,95.30199999999999 C 75.45899999999999,97.90199999999999 73.338,99.99699999999999 70.76299999999999,99.99699999999999 C 68.16199999999999,99.99699999999999 66.067,97.90099999999998 66.067,95.30199999999999 L 66.067,82.07199999999999 L 56.70099999999999,91.439 C 54.88399999999999,93.25699999999999 51.903999999999996,93.25699999999999 50.08599999999999,91.439 C 48.242999999999995,89.595 48.242999999999995,86.642 50.08599999999999,84.79799999999999 L 59.42799999999999,75.457 L 46.196,75.457 C 43.620999999999995,75.457 41.5,73.336 41.5,70.761 C 41.5,68.161 43.621,66.066 46.196,66.066 L 59.425,66.066 L 50.084,56.699"/>
	<path d="M 44.833,9.386 C 44.833,6.810999999999999 42.736999999999995,4.714999999999999 40.137,4.714999999999999 C 37.537000000000006,4.714999999999999 35.441,6.810999999999999 35.441,9.386 L 35.441,28.801 L 7.997,1.382 C 6.179,-0.4610000000000001 3.2,-0.4610000000000001 1.3819999999999997,1.382 C -0.4610000000000003,3.2 -0.4610000000000003,6.178999999999999 1.3819999999999997,7.997 L 28.801000000000002,35.441 L 9.386,35.441 C 6.810999999999999,35.441 4.714999999999999,37.536 4.714999999999999,40.137 C 4.714999999999999,42.712 6.810999999999999,44.833 9.386,44.833 L 40.111999999999995,44.808 C 41.324,44.808 42.51,44.353 43.44499999999999,43.445 C 44.35399999999999,42.536 44.80799999999999,41.324 44.80799999999999,40.137 L 44.833,9.386"/>
</svg>
