<?xml version="1.0" ?>
<svg xmlns="http://www.w3.org/2000/svg" xmlns:ev="http://www.w3.org/2001/xml-events" xmlns:xlink="http://www.w3.org/1999/xlink" baseProfile="full" enable-background="new -35 -35 115 115" height="571px" version="1.1" viewBox="-35 -35 115 115" width="600px" x="0px" xml:space="preserve" y="0px">
	<defs/>
	<path d="M 34.292,36.742 C 34.292,35.339999999999996 34.192,33.971 33.996,32.629 L 38.339,30.046999999999997 L 38.248,29.634999999999998 C 37.583,26.566999999999997 36.492,23.656 35.047999999999995,20.961 L 34.837999999999994,20.57 L 29.997999999999994,21.679000000000002 C 28.823999999999995,19.784000000000002 27.428999999999995,18.037000000000003 25.851999999999993,16.471000000000004 L 27.825999999999993,11.854000000000003 L 27.520999999999994,11.586000000000002 C 25.220999999999993,9.599000000000002 22.658999999999992,7.919000000000002 19.886999999999993,6.608000000000002 L 19.496999999999993,6.428000000000003 L 16.224999999999994,10.169000000000002 C 14.093999999999994,9.329000000000002 11.841999999999995,8.737000000000002 9.494999999999994,8.429000000000002 L 8.381,3.561 L 7.959,3.532 C 7.223999999999999,3.482 6.475999999999999,3.447 5.7219999999999995,3.447 C 3.3949999999999996,3.447 1.1249999999999991,3.691 -1.0700000000000003,4.144 L -1.4920000000000002,4.226 L -1.9410000000000003,9.207 C -4.191000000000001,9.837000000000002 -6.333,10.736 -8.33,11.860000000000001 L -12.066,8.588000000000001 L -12.431000000000001,8.829 C -14.992,10.503 -17.316000000000003,12.515 -19.324,14.802 L -19.598000000000003,15.118 L -17.017000000000003,19.44 C -18.339000000000002,21.167 -19.473000000000003,23.069000000000003 -20.372000000000003,25.081000000000003 L -25.309000000000005,24.636000000000003 L -25.455000000000005,25.042 C -26.534000000000006,27.897000000000002 -27.223000000000006,30.948 -27.467000000000006,34.118 L -27.499000000000006,34.522000000000006 L -22.850000000000005,36.510000000000005 C -22.855000000000004,36.584 -22.855000000000004,36.660000000000004 -22.855000000000004,36.742000000000004 C -22.855000000000004,38.717000000000006 -22.644000000000005,40.656000000000006 -22.263000000000005,42.517 L -26.522000000000006,45.05200000000001 L -26.414000000000005,45.474000000000004 C -25.571000000000005,48.579 -24.301000000000005,51.495000000000005 -22.654000000000003,54.17100000000001 L -22.441000000000003,54.517 L -17.497000000000003,53.400000000000006 C -16.418000000000003,54.888000000000005 -15.205000000000004,56.28300000000001 -13.861000000000004,57.545 L -15.824000000000005,62.133 L -15.498000000000005,62.408 C -13.032000000000004,64.441 -10.271000000000004,66.137 -7.282000000000005,67.404 L -6.906000000000005,67.562 L -3.574000000000005,63.760999999999996 C -1.9510000000000052,64.32499999999999 -0.23700000000000498,64.741 1.508999999999995,64.999 L 2.620999999999995,69.886 L 3.048999999999995,69.91499999999999 C 3.914999999999995,69.987 4.809999999999995,70.038 5.721999999999995,70.038 C 8.106999999999996,70.038 10.431999999999995,69.77799999999999 12.677999999999995,69.30199999999999 L 13.093999999999996,69.21 L 13.545999999999996,64.21799999999999 C 15.249999999999996,63.73399999999999 16.889999999999997,63.09099999999999 18.458999999999996,62.31399999999999 L 22.254999999999995,65.63399999999999 L 22.610999999999997,65.42499999999998 C 25.394999999999996,63.783999999999985 27.904999999999998,61.756999999999984 30.086,59.41699999999998 L 30.386999999999997,59.10499999999998 L 27.836,54.83199999999998 C 29.023999999999997,53.39299999999998 30.061,51.81799999999998 30.945999999999998,50.15599999999998 L 35.992999999999995,50.61499999999998 L 36.15899999999999,50.23199999999998 C 37.41599999999999,47.40599999999998 38.28999999999999,44.34499999999998 38.71999999999999,41.14999999999998 L 38.770999999999994,40.711999999999975 L 34.208999999999996,38.76499999999997 C 34.26,38.104 34.292,37.428 34.292,36.742 M 14.48,36.742 C 14.48,41.581999999999994 10.56,45.5 5.723000000000001,45.506 C 0.8800000000000008,45.5 -3.0329999999999995,41.582 -3.039999999999999,36.742000000000004 C -3.032999999999999,31.904000000000003 0.878000000000001,27.994000000000007 5.723000000000001,27.980000000000004 C 10.561,27.994 14.48,31.904 14.48,36.742"/>
	<path d="M 71.705,-7.785 L 71.603,-8.155 L 68.146,-8.177999999999999 C 67.661,-9.607 67.004,-10.982 66.219,-12.258 L 68.29299999999999,-15.087 L 68.08099999999999,-15.383 C 66.838,-17.102 65.356,-18.653 63.68399999999999,-19.985 L 63.38299999999999,-20.227 L 60.56199999999999,-18.206 C 59.29099999999999,-19.096 57.88099999999999,-19.83 56.38799999999999,-20.412 L 56.40699999999999,-23.887999999999998 L 56.054,-24.0 C 55.552,-24.147 55.058,-24.291 54.535000000000004,-24.417 C 52.955000000000005,-24.792 51.36900000000001,-24.982000000000003 49.803000000000004,-25.034000000000002 L 49.419000000000004,-25.039 L 48.319,-21.731 C 46.743,-21.658 45.18,-21.398000000000003 43.688,-20.972 L 41.677,-23.790000000000003 L 41.312,-23.655 C 39.297,-22.931 37.393,-21.932000000000002 35.650999999999996,-20.688000000000002 L 35.355,-20.473000000000003 L 36.416999999999994,-17.127000000000002 C 35.279999999999994,-16.183000000000003 34.239999999999995,-15.120000000000003 33.32999999999999,-13.925000000000002 L 30.04399999999999,-15.018000000000002 L 29.83799999999999,-14.691000000000003 C 28.64899999999999,-12.920000000000002 27.68699999999999,-10.958000000000002 27.01199999999999,-8.842000000000002 L 26.90799999999999,-8.497000000000002 L 29.74599999999999,-6.407000000000002 C 29.73099999999999,-6.377000000000002 29.72499999999999,-6.3450000000000015 29.71999999999999,-6.320000000000002 C 29.40199999999999,-4.990000000000002 29.23999999999999,-3.672000000000002 29.193999999999992,-2.363000000000002 L 25.89099999999999,-1.3200000000000023 L 25.90599999999999,-0.9400000000000023 C 25.98899999999999,1.312999999999998 26.383999999999993,3.5089999999999977 27.074999999999992,5.593999999999998 L 27.18999999999999,5.939999999999998 L 30.72799999999999,5.962999999999997 C 31.20799999999999,7.110999999999997 31.786999999999992,8.208999999999998 32.46999999999999,9.256999999999998 L 30.40499999999999,12.055999999999997 L 30.63399999999999,12.356999999999998 C 31.99499999999999,14.135999999999997 33.59199999999999,15.738999999999997 35.42899999999999,17.068999999999996 L 35.72499999999999,17.283999999999995 L 38.585999999999984,15.239999999999995 C 39.569999999999986,15.856999999999996 40.62399999999998,16.388999999999996 41.728999999999985,16.829999999999995 L 41.703999999999986,20.331999999999994 L 42.057999999999986,20.444999999999993 C 42.646999999999984,20.627999999999993 43.24799999999998,20.802999999999994 43.862999999999985,20.950999999999993 C 45.49199999999998,21.331999999999994 47.11499999999999,21.533999999999992 48.722999999999985,21.566999999999993 L 49.094999999999985,21.573999999999995 L 50.19699999999998,18.258999999999993 C 51.393999999999984,18.204999999999995 52.567999999999984,18.032999999999994 53.71499999999998,17.768999999999995 L 55.76499999999998,20.629999999999995 L 56.11899999999998,20.516999999999996 C 58.26499999999998,19.852999999999994 60.30699999999998,18.868999999999996 62.168999999999976,17.621999999999996 L 62.48099999999997,17.409999999999997 L 61.43899999999997,14.101999999999997 C 62.43299999999997,13.329999999999997 63.36399999999997,12.465999999999998 64.20799999999997,11.514999999999997 L 67.55499999999996,12.624999999999996 L 67.77699999999996,12.332999999999997 C 69.09099999999995,10.616999999999997 70.17699999999996,8.670999999999996 70.97699999999996,6.5639999999999965 L 71.11799999999997,6.198999999999996 L 68.33199999999997,4.152999999999997 C 68.46599999999997,3.725999999999997 68.57599999999996,3.2959999999999967 68.68299999999996,2.860999999999997 C 68.90299999999996,1.9229999999999972 69.05299999999997,0.9939999999999971 69.13599999999997,0.07499999999999707 L 72.49599999999997,-0.995000000000003 L 72.49599999999997,-1.359000000000003 C 72.49599999999997,-1.492000000000003 72.50499999999997,-1.6240000000000032 72.50499999999997,-1.763000000000003 C 72.5,-3.813 72.228,-5.841 71.705,-7.785 M 55.198,-1.74 C 55.198,-1.28 55.15,-0.821 55.039,-0.3560000000000001 C 54.385,2.401 51.924,4.268 49.206,4.268 C 48.749,4.268 48.294000000000004,4.210999999999999 47.829,4.099 C 45.065,3.46 43.212,0.9940000000000002 43.212,-1.726 C 43.212,-2.178 43.259,-2.637 43.364000000000004,-3.1029999999999998 C 44.011,-5.864 46.474000000000004,-7.726 49.202000000000005,-7.726 C 49.647000000000006,-7.726 50.112,-7.676 50.57900000000001,-7.565 C 53.331,-6.922 55.198,-4.452 55.198,-1.74"/>
</svg>
