<?xml version="1.0" ?>
<svg xmlns="http://www.w3.org/2000/svg" xmlns:ev="http://www.w3.org/2001/xml-events" xmlns:xlink="http://www.w3.org/1999/xlink" baseProfile="full" enable-background="new 0 0 99.984 77.851" height="468px" version="1.1" viewBox="0 0 99.984 77.851" width="600px" x="0px" xml:space="preserve" y="0px">
	<defs/>
	<path d="M 93.181,62.32 L 93.725,62.138 L 94.088,60.867999999999995 C 94.088,60.867999999999995 80.118,66.854 50.45399999999999,66.854 C 20.790999999999993,66.854 4.642999999999994,54.879999999999995 4.642999999999994,54.879999999999995 L 5.096999999999993,56.87499999999999 C 5.096999999999993,56.87499999999999 5.822999999999993,57.782 10.085999999999993,60.141999999999996 C 10.720999999999993,61.684 11.445999999999993,63.226 12.262999999999993,64.496 C 19.429999999999993,66.401 33.49099999999999,68.941 52.08599999999999,68.941 C 69.686,68.942 87.012,64.226 93.181,62.32" fill="#010101"/>
	<path d="M 52.087,69.759 C 32.13,69.759 18.614000000000004,66.947 12.536000000000001,65.405 C 15.076,69.578 18.16,72.39 19.884,73.842 C 22.333,75.747 26.234,77.833 27.504,77.833 C 30.406000000000002,77.92399999999999 85.651,77.651 85.651,77.651 L 88.282,72.934 L 92.455,63.41 C 85.742,65.404 69.051,69.759 52.087,69.759" fill="#010101"/>
	<path d="M 21.971,55.244 C 21.971,55.244 21.064,25.308 44.013999999999996,0.0 C 55.443999999999996,13.97 65.604,24.492 65.604,24.492 L 66.148,60.143 L 21.971,55.244" fill="#010101"/>
	<path d="M 58.709,3.084 L 57.53,3.084 L 57.348,14.605 C 58.074,15.603 58.618,16.056 59.253,16.874000000000002 L 58.709,3.084" fill="#010101"/>
	<path d="M 17.707,54.337 L 0.199,52.523 C 0.199,52.523 -2.341,35.83200000000001 10.721,23.222000000000005 C 15.529,30.751000000000005 17.252,33.926 17.252,33.926 L 17.707,54.337" fill="#010101"/>
	<path d="M 14.169,22.406 L 13.987,22.406 L 13.896,27.304 C 14.078000000000001,27.485999999999997 14.168000000000001,27.666999999999998 14.259,27.848 L 14.169,22.406" fill="#010101"/>
	<path d="M 59.798,60.324 L 56.532000000000004,59.961999999999996 L 56.532000000000004,65.949 C 57.621,65.949 58.800000000000004,65.858 59.888000000000005,65.858 L 59.798,60.324" fill="#010101"/>
	<path d="M 35.85,61.141 L 26.234,61.141 L 26.234,63.137 C 29.137,63.863 32.403,64.497 35.85,65.042 L 35.85,61.141" fill="#010101"/>
	<path d="M 14.622,54.609 L 13.625,54.518 L 13.534,58.782000000000004 C 13.896,58.964000000000006 14.260000000000002,59.145 14.622,59.327000000000005 L 14.622,54.609" fill="#010101"/>
	<path d="M 69.232,60.144 C 69.232,60.144 67.418,31.025 78.575,15.875 C 88.917,23.767 97.444,30.661 97.444,30.661 L 99.98400000000001,56.150999999999996 L 69.232,60.144" fill="#010101"/>
	<path d="M 86.649,58.691 L 85.288,58.873000000000005 L 84.744,62.955000000000005 C 85.288,62.773 85.742,62.68300000000001 86.195,62.593 L 86.649,58.691" fill="#010101"/>
	<path d="M 91.094,16.963 L 90.823,16.963 L 89.916,23.948 C 90.098,24.039 90.188,24.13 90.369,24.22 L 91.094,16.963" fill="#010101"/>
</svg>
