<?xml version="1.0" ?>
<svg xmlns="http://www.w3.org/2000/svg" xmlns:ev="http://www.w3.org/2001/xml-events" xmlns:xlink="http://www.w3.org/1999/xlink" baseProfile="full" enable-background="new 0 0 100 100" height="600px" version="1.1" viewBox="0 0 100 100" width="74px" x="0px" xml:space="preserve" y="0px">
	<defs/>
	<path clip-path="url(#a)" d="M -126.272,2199.495 C -124.31500000000001,2199.495 -122.729,2197.909 -122.729,2195.9519999999998 C -122.729,2193.9949999999994 -124.315,2192.4069999999997 -126.272,2192.4069999999997 C -128.229,2192.4069999999997 -129.815,2193.995 -129.815,2195.9519999999998 C -129.815,2197.9089999999997 -128.229,2199.495 -126.272,2199.495" fill="#000000"/>
	<path clip-path="url(#a)" d="M -147.532,2217.918 C -144.401,2217.918 -141.863,2215.3810000000003 -141.863,2212.25 C -141.863,2209.1189999999997 -144.401,2206.58 -147.532,2206.58 C -150.663,2206.58 -153.20100000000002,2209.119 -153.20100000000002,2212.25 C -153.20100000000002,2215.381 -150.663,2217.918 -147.532,2217.918" fill="#000000"/>
	<path clip-path="url(#b)" d="M -149.516,2189.715 C -148.185,2189.715 -147.107,2188.635 -147.107,2187.3050000000003 C -147.107,2185.9750000000004 -148.185,2184.8950000000004 -149.516,2184.8950000000004 C -150.84699999999998,2184.8950000000004 -151.92499999999998,2185.9750000000004 -151.92499999999998,2187.3050000000003 C -151.92499999999998,2188.635 -150.847,2189.715 -149.516,2189.715" fill="#000000"/>
	<path d="M 73.762,68.372 C 73.584,69.823 72.349,70.884 70.926,70.884 C 70.808,70.884 70.691,70.878 70.571,70.864 L 58.994,69.441 C 57.426,69.24900000000001 56.308,67.818 56.503,66.25 C 56.697,64.681 58.132,63.575 59.693,63.758 L 71.27,65.18 C 72.839,65.373 73.957,66.802 73.762,68.372 M 94.764,50.55 C 94.764,75.06 74.825,95.0 50.316,95.0 C 25.805,95.0 5.864,75.06 5.864,50.55 C 5.864,26.039999999999996 25.805,6.097999999999999 50.315999999999995,6.097999999999999 C 74.825,6.099 94.764,26.04 94.764,50.55 M 19.267,73.668 L 73.434,19.50200000000001 C 66.976,14.68100000000001 58.974,11.82500000000001 50.316,11.82500000000001 C 28.962000000000003,11.82500000000001 11.589000000000006,29.19600000000001 11.589000000000006,50.55100000000001 C 11.589,59.208 14.446,67.212 19.267,73.668 M 89.039,50.55 C 89.039,41.458999999999996 85.884,33.098 80.62100000000001,26.485999999999997 L 26.249,80.855 C 32.863,86.117 41.224,89.275 50.316,89.275 C 71.667,89.275 89.039,71.901 89.039,50.55 M 58.824,24.67 C 58.296,23.179000000000002 56.664,22.398000000000003 55.17,22.928 L 29.683000000000003,31.969 C 28.192000000000004,32.496 27.412000000000003,34.132 27.942000000000004,35.623000000000005 C 28.357000000000003,36.797000000000004 29.461000000000002,37.529 30.638000000000005,37.529 C 30.956000000000007,37.529 31.279000000000003,37.476000000000006 31.595000000000006,37.364000000000004 L 57.084,28.323000000000004 C 58.574,27.795 59.353,26.159 58.824,24.67 M 78.197,48.105 C 75.396,48.105 73.126,50.376 73.126,53.178 C 73.126,55.977999999999994 75.396,58.248 78.197,58.248 C 80.998,58.248 83.268,55.977 83.268,53.178 C 83.269,50.376 80.999,48.105 78.197,48.105 M 47.768,68.391 C 43.285000000000004,68.391 39.653999999999996,72.025 39.653999999999996,76.50800000000001 C 39.653999999999996,80.99000000000001 43.285,84.62 47.768,84.62 C 52.251000000000005,84.62 55.883,80.99000000000001 55.883,76.50800000000001 C 55.883,72.024 52.251,68.391 47.768,68.391 M 20.754,45.702 C 19.756,44.476 17.952,44.289 16.727,45.285 C 15.499,46.282999999999994 15.314,48.086 16.31,49.312 L 22.904,57.427 C 23.469,58.122 24.295,58.483 25.127,58.483 C 25.762,58.483 26.401,58.272999999999996 26.932,57.840999999999994 C 28.159,56.84499999999999 28.346,55.041999999999994 27.348,53.81399999999999 L 20.754,45.702 M 42.065,38.784 C 40.161,38.784 38.617,40.327999999999996 38.617,42.234 C 38.617,44.138000000000005 40.160999999999994,45.682 42.065,45.682 C 43.97,45.682 45.513999999999996,44.138000000000005 45.513999999999996,42.234 C 45.514,40.328 43.97,38.784 42.065,38.784"/>
	<path d="M -138.445,2204.329 L -130.356,2205.323" fill="#000000" stroke="#FFFFFF" stroke-linecap="round" stroke-linejoin="round" stroke-width="4" x1="-138.445" x2="-130.356" y1="2204.329" y2="2205.323"/>
	<path clip-path="url(#e)" d="M -123.438,2172.211 L -165.036,2213.809" fill="#000000" stroke="#FFFFFF" stroke-width="7" x1="-123.438" x2="-165.036" y1="2172.211" y2="2213.809"/>
	<path d="M -157.499,2182.018 L -139.692,2175.704" fill="#000000" stroke="#FFFFFF" stroke-linecap="round" stroke-linejoin="round" stroke-width="4" x1="-157.499" x2="-139.692" y1="2182.018" y2="2175.704"/>
	<path d="M -165.957,2190.991 L -161.351,2196.659" fill="#000000" stroke="#FFFFFF" stroke-linecap="round" stroke-linejoin="round" stroke-width="4" x1="-165.957" x2="-161.351" y1="2190.991" y2="2196.659"/>
	<path clip-path="url(#g)" cx="-143.752" cy="2193.116" d="M -172.80700000000002,2193.116 A 29.055,29.055 0.0 1,0 -114.69700000000002,2193.116 A 29.055,29.055 0.0 1,0 -172.80700000000002,2193.116" fill="#000000" r="29.055" stroke="#FFFFFF" stroke-width="4"/>
	<path d="M -174.808,2162.061 L -112.698,2162.061 L -112.698,2224.17 L -174.808,2224.17 L -174.808,2162.061" height="62.109" id="h" width="62.11" x="-174.808" y="2162.061"/>
	<path d="M -174.808,2162.061 L -112.698,2162.061 L -112.698,2224.17 L -174.808,2224.17 L -174.808,2162.061" height="62.109" id="f" width="62.11" x="-174.808" y="2162.061"/>
	<path d="M -174.808,2162.061 L -112.698,2162.061 L -112.698,2224.17 L -174.808,2224.17 L -174.808,2162.061" height="62.109" id="d" width="62.11" x="-174.808" y="2162.061"/>
	<path d="M -174.808,2162.061 L -112.698,2162.061 L -112.698,2224.17 L -174.808,2224.17 L -174.808,2162.061" height="62.109" id="c" width="62.11" x="-174.808" y="2162.061"/>
</svg>
