<?xml version="1.0" ?>
<svg xmlns="http://www.w3.org/2000/svg" xmlns:ev="http://www.w3.org/2001/xml-events" xmlns:xlink="http://www.w3.org/1999/xlink" baseProfile="full" enable-background="new 0 0 92.564 100.005" height="600px" version="1.1" viewBox="0 0 92.564 100.005" width="556px" x="0px" xml:space="preserve" y="0px">
	<defs/>
	<path d="M 31.684,63.548 L 31.684,67.96000000000001 C 31.684,70.37800000000001 29.741,72.34400000000001 27.323,72.34400000000001 C 24.927,72.34400000000001 22.984,70.37800000000001 22.984,67.96000000000001 L 22.984,63.54800000000001 L 18.554000000000002,63.54800000000001 L 18.554000000000002,49.243 L 18.554000000000002,49.243 C 18.554000000000002,46.124 20.656000000000002,43.503 23.503,42.712 L 28.61,30.554000000000002 C 29.333,28.768 31.095,27.503 33.152,27.503 L 59.344,27.503 C 61.401,27.503 63.163000000000004,28.769 63.909,30.554000000000002 L 69.016,42.712 C 71.885,43.503 73.98700000000001,46.124 73.98700000000001,49.243 L 73.98700000000001,49.243 L 73.98700000000001,63.549 L 69.53600000000002,63.549 L 69.53600000000002,67.961 C 69.53600000000002,70.379 67.59300000000002,72.345 65.17400000000002,72.345 C 62.75600000000002,72.345 60.813000000000024,70.379 60.813000000000024,67.961 L 60.813000000000024,63.549 L 31.684,63.549 L 31.684,63.548 M 27.231,54.554 C 29.243000000000002,54.554 30.87,52.926 30.87,50.892 C 30.87,48.881 29.243000000000002,47.242000000000004 27.231,47.242000000000004 C 25.220000000000002,47.242000000000004 23.57,48.88100000000001 23.57,50.892 C 23.57,52.926 25.221,54.554 27.231,54.554 M 68.655,50.893 C 68.655,48.882 67.028,47.243 64.994,47.243 C 62.983,47.243 61.333,48.882000000000005 61.333,50.893 C 61.333,52.927 62.983,54.555 64.994,54.555 C 67.028,54.554 68.655,52.926 68.655,50.893 M 64.61,42.463 L 60.248,31.977 C 60.044999999999995,31.435 59.547999999999995,31.051000000000002 58.937,31.051000000000002 L 33.56,31.051000000000002 C 32.972,31.051000000000002 32.453,31.435000000000002 32.272000000000006,31.977 L 27.887000000000008,42.463 L 64.61,42.463"/>
	<path d="M 84.949,7.39 C 84.949,9.497 86.64399999999999,11.187 88.768,11.187 C 90.847,11.187 92.56400000000001,9.498 92.56400000000001,7.389999999999999 C 92.56400000000001,5.304999999999999 90.84700000000001,3.6159999999999988 88.768,3.6159999999999988 C 86.645,3.616 84.949,5.305 84.949,7.39"/>
	<path d="M 7.57,92.458 C 7.57,90.345 5.898000000000001,88.661 3.7740000000000005,88.661 C 1.695,88.661 0.0,90.344 0.0,92.458 C 0.0,94.54899999999999 1.695,96.232 3.774,96.232 C 5.898,96.232 7.57,94.548 7.57,92.458"/>
	<path d="M 17.943,96.548 C 20.045,96.548 21.717000000000002,94.875 21.717000000000002,92.751 C 21.717000000000002,90.66000000000001 20.044000000000004,88.977 17.943,88.977 C 15.864,88.977 14.169,90.661 14.169,92.751 C 14.169,94.875 15.864,96.548 17.943,96.548"/>
	<path d="M 32.09,96.616 C 34.193000000000005,96.616 35.910000000000004,94.922 35.910000000000004,92.819 C 35.910000000000004,90.72800000000001 34.19200000000001,89.045 32.09,89.045 C 30.012000000000004,89.045 28.294000000000004,90.729 28.294000000000004,92.819 C 28.294,94.921 30.012,96.616 32.09,96.616"/>
	<path d="M 60.43,96.616 C 62.532,96.616 64.227,94.922 64.227,92.819 C 64.227,90.72800000000001 62.532000000000004,89.045 60.43000000000001,89.045 C 58.32800000000001,89.045 56.63300000000001,90.729 56.63300000000001,92.819 C 56.633,94.921 58.328,96.616 60.43,96.616"/>
	<path d="M 74.576,96.616 C 76.65499999999999,96.616 78.395,94.922 78.395,92.819 C 78.395,90.72800000000001 76.655,89.045 74.576,89.045 C 72.452,89.045 70.803,90.729 70.803,92.819 C 70.803,94.921 72.452,96.616 74.576,96.616"/>
	<path d="M 88.746,96.57 C 90.892,96.57 92.564,94.898 92.564,92.77399999999999 C 92.564,90.695 90.892,88.99999999999999 88.746,88.99999999999999 C 86.64399999999999,88.99999999999999 84.949,90.69499999999998 84.949,92.77399999999999 C 84.949,94.898 86.645,96.57 88.746,96.57"/>
	<path d="M 7.57,78.22 C 7.57,76.118 5.898000000000001,74.447 3.7740000000000005,74.447 C 1.695,74.447 0.0,76.119 0.0,78.22 C 0.0,80.321 1.695,82.017 3.774,82.017 C 5.898,82.017 7.57,80.322 7.57,78.22"/>
	<path d="M 7.57,63.977 C 7.57,61.870999999999995 5.898000000000001,60.19199999999999 3.797,60.19199999999999 C 1.695,60.192 0.0,61.871 0.0,63.977 C 0.0,66.074 1.695,67.779 3.797,67.779 C 5.898,67.779 7.57,66.074 7.57,63.977"/>
	<path d="M 7.57,49.729 C 7.57,47.667 5.898000000000001,45.938 3.797,45.938 C 1.695,45.938 0.0,47.667 0.0,49.729 C 0.0,51.848 1.695,53.543 3.797,53.543 C 5.898,53.542 7.57,51.847 7.57,49.729"/>
	<path d="M 7.57,35.48 C 7.57,33.395999999999994 5.898000000000001,31.705999999999996 3.797,31.705999999999996 C 1.695,31.706 0.0,33.396 0.0,35.48 C 0.0,37.586999999999996 1.695,39.288 3.797,39.288 C 5.898,39.288 7.57,37.587 7.57,35.48"/>
	<path d="M 7.57,21.265 C 7.57,19.158 5.898000000000001,17.469 3.797,17.469 C 1.695,17.469 0.0,19.158 0.0,21.265 C 0.0,23.316000000000003 1.695,25.039 3.797,25.039 C 5.898,25.04 7.57,23.316 7.57,21.265"/>
	<path d="M 7.57,7.028 C 7.57,4.898 5.898000000000001,3.2309999999999994 3.797,3.2309999999999994 C 1.718,3.231 0.0,4.898 0.0,7.028 C 0.0,9.112 1.718,10.802 3.797,10.802 C 5.898,10.802 7.57,9.113 7.57,7.028"/>
	<path d="M 74.576,3.231 C 72.47399999999999,3.231 70.779,4.92 70.779,7.0280000000000005 C 70.779,9.112 72.47399999999999,10.802 74.576,10.802 C 76.65499999999999,10.802 78.395,9.113 78.395,7.028 C 78.396,4.921 76.655,3.231 74.576,3.231"/>
	<path d="M 60.406,3.231 C 58.327999999999996,3.231 56.632999999999996,4.92 56.632999999999996,7.0280000000000005 C 56.632999999999996,9.112 58.327999999999996,10.802 60.406,10.802 C 62.531,10.802 64.226,9.113 64.226,7.028 C 64.227,4.921 62.531,3.231 60.406,3.231"/>
	<path d="M 32.09,3.231 C 30.012000000000004,3.231 28.294000000000004,4.92 28.294000000000004,7.0280000000000005 C 28.294000000000004,9.112 30.012000000000004,10.802 32.09,10.802 C 34.237,10.802 35.910000000000004,9.113 35.910000000000004,7.028 C 35.91,4.921 34.237,3.231 32.09,3.231"/>
	<path d="M 17.966,3.231 C 15.864,3.231 14.124,4.92 14.124,7.0280000000000005 C 14.124,9.112 15.864,10.802 17.966,10.802 C 20.09,10.802 21.740000000000002,9.113 21.740000000000002,7.028 C 21.74,4.921 20.09,3.231 17.966,3.231"/>
	<path d="M 84.949,21.604 C 84.949,23.711 86.64399999999999,25.4 88.768,25.4 C 90.847,25.4 92.56400000000001,23.711 92.56400000000001,21.604 C 92.56400000000001,19.519 90.84700000000001,17.83 88.768,17.83 C 86.645,17.831 84.949,19.52 84.949,21.604"/>
	<path d="M 84.949,35.842 C 84.949,37.915 86.64399999999999,39.644 88.746,39.644 C 90.82499999999999,39.644 92.564,37.915 92.564,35.842 C 92.564,33.735 90.82499999999999,32.04 88.746,32.04 C 86.645,32.04 84.949,33.734 84.949,35.842"/>
	<path d="M 84.949,50.056 C 84.949,52.152 86.64399999999999,53.881 88.746,53.881 C 90.82499999999999,53.881 92.564,52.152 92.564,50.056 C 92.564,48.004999999999995 90.82499999999999,46.277 88.746,46.277 C 86.645,46.277 84.949,48.005 84.949,50.056"/>
	<path d="M 84.949,64.316 C 84.949,66.423 86.64399999999999,68.095 88.746,68.095 C 90.82499999999999,68.095 92.564,66.423 92.564,64.316 C 92.564,62.209 90.82499999999999,60.519000000000005 88.746,60.519000000000005 C 86.645,60.519 84.949,62.208 84.949,64.316"/>
	<path d="M 84.949,78.537 C 84.949,80.62700000000001 86.64399999999999,82.35600000000001 88.746,82.35600000000001 C 90.82499999999999,82.35600000000001 92.564,80.62700000000001 92.564,78.537 C 92.564,76.48 90.82499999999999,74.75200000000001 88.746,74.75200000000001 C 86.645,74.751 84.949,76.48 84.949,78.537"/>
	<path d="M 53.988,0.0 L 46.848,7.084 L 53.988,14.237 L 47.932,14.237 L 40.813,7.084 L 47.932,0.0 L 53.988,0.0" points="53.988,0 46.848,7.084 53.988,14.237 47.932,14.237 40.813,7.084 47.932,0 "/>
	<path d="M 38.531,85.768 L 45.649,92.865 L 38.531,100.005 L 44.564,100.005 L 51.706,92.865 L 44.564,85.768 L 38.531,85.768" points="38.531,85.768 45.649,92.865 38.531,100.005 44.564,100.005 51.706,92.865 44.564,85.768 "/>
</svg>
