<?xml version="1.0" ?>
<svg xmlns="http://www.w3.org/2000/svg" xmlns:ev="http://www.w3.org/2001/xml-events" xmlns:xlink="http://www.w3.org/1999/xlink" baseProfile="full" enable-background="new 0 0 100 100" height="600px" version="1.1" viewBox="0 0 100 100" width="600px" x="0px" xml:space="preserve" y="0px">
	<defs/>
	<path d="M 50.0,2.5 C 23.767,2.5 2.5,23.767 2.5,50.0 C 2.5,76.233 23.767,97.5 50.0,97.5 C 76.232,97.5 97.5,76.233 97.5,50.0 C 97.5,23.766999999999996 76.232,2.5 50.0,2.5 M 50.0,87.952 C 29.04,87.952 12.048,70.96 12.048,50.0 C 12.048,41.233000000000004 15.022,33.163 20.014,26.737 L 28.976999999999997,35.699999999999996 C 28.974999999999998,35.815 28.968999999999998,35.928 28.968999999999998,36.044 C 28.968999999999998,39.864 30.136,43.068 32.47,45.657 C 34.804,48.245999999999995 38.663,50.644 44.266,52.851 L 47.0,53.955 L 47.0,67.112 C 45.0,66.942 41.275,66.39 37.809,65.457 C 34.343,64.523 32.0,63.448 29.0,62.231 L 29.0,73.436 C 34.0,75.72800000000001 40.0,76.94500000000001 47.0,77.08500000000001 L 47.0,86.0 L 53.0,86.0 L 53.0,76.917 C 58.0,76.422 62.705,74.992 65.893,72.633 L 73.254,79.987 C 66.829,84.979 58.767,87.952 50.0,87.952 M 47.0,40.494 L 41.628,35.122 C 42.055,33.261 44.0,32.096 47.0,31.631 L 47.0,40.494 M 57.816,64.573 C 56.889,65.68 55.0,66.429 53.0,66.815 L 53.0,59.756 L 57.816,64.573 M 79.986,73.263 L 71.24300000000001,64.519 C 71.46600000000001,63.46300000000001 71.58000000000001,62.348000000000006 71.58000000000001,61.17 C 71.58000000000001,58.681000000000004 71.03500000000001,56.502 69.94600000000001,54.634 C 68.85600000000001,52.767 67.12900000000002,51.056 64.793,49.499 C 62.459,47.943 58.0,46.104 53.0,43.981 L 53.0,31.461 C 58.0,31.857999999999997 62.184,32.961 66.598,34.772 L 70.579,24.841 C 65.345,22.521 60.0,21.219 53.0,20.936 L 53.0,15.0 L 47.0,15.0 L 47.0,21.105 C 42.0,21.671 36.887,23.276 33.676,25.922 C 33.466,26.095 33.317,26.272000000000002 33.121,26.452 L 26.71,20.014000000000003 C 33.135,15.022000000000002 41.22,12.049000000000003 49.987,12.049000000000003 C 70.946,12.049000000000003 87.945,29.041000000000004 87.945,50.001000000000005 C 87.945,58.766 84.979,66.837 79.986,73.263"/>
</svg>
