<?xml version="1.0" ?>
<svg xmlns="http://www.w3.org/2000/svg" xmlns:ev="http://www.w3.org/2001/xml-events" xmlns:xlink="http://www.w3.org/1999/xlink" baseProfile="full" enable-background="new 0 0 100 100" height="561px" version="1.1" viewBox="0 0 100 100" width="600px" x="0px" xml:space="preserve" y="0px">
	<defs/>
	<path d="M 193.361,89.152 L 176.55599999999998,38.652 C 176.55599999999998,38.652 159.45399999999998,35.743 157.46999999999997,45.568 L 157.46999999999997,82.20400000000001"/>
	<path d="M 237.195,82.203 L 237.195,45.567 C 235.20999999999998,35.742000000000004 218.107,38.650999999999996 218.107,38.650999999999996 L 201.304,89.15199999999999 M 229.542,70.7 L 218.25,70.7 L 217.25,60.137 L 230.542,60.137 L 229.542,70.7"/>
	<path d="M 177.899,-125.765 C 178.783,-128.358 195.217,-173.538 217.29,-128.406 C 217.29,-128.406 219.493,-110.49700000000001 229.94199999999998,-112.28200000000001 L 204.159,-107.55300000000001 L 205.415,-96.927 L 191.357,-96.927 L 192.474,-107.00500000000001 C 186.76999999999998,-109.42800000000001 172.434,-113.30100000000002 166.428,-111.49900000000001 L 177.899,-125.765"/>
	<path d="M -139.569,138.422 C -139.569,139.754 -140.649,140.833 -141.98,140.833 L -146.176,140.833 C -147.50699999999998,140.833 -148.587,139.754 -148.587,138.422 L -148.587,138.422 C -148.587,137.09 -147.50699999999998,136.011 -146.176,136.011 L -141.98,136.011 C -140.649,136.011 -139.569,137.09 -139.569,138.422 L -139.569,138.422"/>
	<path d="M -91.5,125.875 C -91.5,125.875 -88.491,135.625 -77.496,135.125"/>
	<path d="M 177.69,-88.438 C 161.25,-81.96000000000001 171.96099999999998,-54.289 171.96099999999998,-54.289 L 199.974,-54.278 L 198.534,-77.857 L 177.69,-88.438"/>
	<path d="M 219.195,-88.445 C 235.635,-81.967 224.924,-54.29599999999999 224.924,-54.29599999999999 L 198.397,-54.285999999999994 L 198.533,-77.856 L 219.195,-88.445"/>
	<path d="M -54.454,124.383 L -57.141,123.65299999999999 C -57.141,123.65299999999999 -52.857,121.839 -52.349,121.25699999999999 C -51.840999999999994,120.67599999999999 -51.623,110.72899999999998 -51.623,110.72899999999998 C -51.623,110.72899999999998 -44.870999999999995,100.27399999999999 -36.449,110.72899999999998 L -36.449,118.71499999999999 C -36.449,118.71499999999999 -33.762,123.65299999999999 -32.092999999999996,123.79799999999999 C -30.423999999999996,123.94399999999999 -33.907999999999994,124.38299999999998 -33.907999999999994,124.38299999999998 C -33.907999999999994,124.38299999999998 -32.202999999999996,125.17699999999998 -31.639999999999993,125.17699999999998 C -31.07699999999999,125.17699999999998 -34.773999999999994,130.69599999999997 -37.681,128.95299999999997 L -39.281,125.97399999999998 L -40.007,123.94299999999997 L -42.04,122.63399999999997 C -42.04,122.63399999999997 -44.363,121.61699999999998 -44.944,121.61699999999998 C -45.525000000000006,121.61699999999998 -46.832,121.61699999999998 -46.832,121.61699999999998 L -48.775,121.61699999999998 L -50.317,122.34499999999997 L -50.898,122.92499999999997 L -50.971000000000004,123.36099999999998 L -49.664,125.24999999999997 C -49.664,125.24999999999997 -51.334,129.27099999999996 -52.931000000000004,129.29299999999998 C -52.931000000000004,129.29299999999998 -58.239000000000004,128.355 -56.489000000000004,125.46799999999998 C -54.737,122.579 -54.454,124.383 -54.454,124.383"/>
	<path d="M 105.574,165.869 L 43.283,165.869 C 39.862,165.869 37.088,168.642 37.088,172.065 L 37.088,205.489 C 37.088,208.912 39.862,211.685 43.283,211.685 L 105.574,211.685 C 108.996,211.685 111.769,208.912 111.769,205.489 L 111.769,180.221 L 111.769,172.065 C 111.77,168.643 108.996,165.869 105.574,165.869 M 92.55,201.478 L 56.308,201.478 L 56.308,176.078 L 92.55,176.078 L 92.55,201.478 M 102.152,178.325 C 100.27,178.325 98.745,176.79899999999998 98.745,174.917 C 98.745,173.03500000000003 100.27000000000001,171.51 102.152,171.51 C 104.03399999999999,171.51 105.559,173.035 105.559,174.917 C 105.559,176.799 104.034,178.325 102.152,178.325"/>
	<path d="M 22.694,30.636 L 22.694,53.09 L 66.845,53.09 L 66.845,36.155 L 66.845,30.636000000000003 L 22.694,30.636000000000003 L 22.694,30.636 M 64.117,50.0 L 61.042,50.0 L 61.042,33.178 L 64.117,33.178 L 64.117,50.0"/>
	<path d="M 187.566,50.479 L 197.148,40.792 L 207.458,50.327 L 197.986,79.801 L 187.566,50.479"/>
	<path d="M 186.063,45.872 L 187.203,48.787 L 196.223,39.792" points="187.566,50.479 197.148,40.792 207.458,50.327 197.986,79.801 187.566,50.479 "/>
	<path d="M 208.591,45.872 L 207.637,48.677 L 198.186,39.683" points="186.063,45.872 187.203,48.787 196.223,39.792 "/>
	<path d="M 191.166,-95.966 L 181.533,-90.6 L 214.841,-90.6 L 205.846,-95.966 L 191.166,-95.966" points="208.591,45.872 207.637,48.677 198.186,39.683 "/>
	<path d="M 129.053,174.05 L 129.053,203.505 L 110.77,196.396 L 110.77,181.837 L 129.053,174.05" points="191.166,-95.966 181.533,-90.6 214.841,-90.6 205.846,-95.966 "/>
	<path d="M 84.077,28.064 L 84.077,53.09 L 64.117,46.702 L 64.117,35.21 L 84.077,28.064" points="129.053,174.05 129.053,203.505 110.77,196.396 110.77,181.837 "/>
	<path d="M 27.759,90.576 L 39.267,62.757 L 42.728,68.319 L 31.349,93.144 L 27.759,90.576" points="84.077,28.064 84.077,53.09 64.117,46.702 64.117,35.21 "/>
	<path d="M 64.116,90.576 L 52.608,62.757 L 49.147,68.319 L 60.526,93.144 L 64.116,90.576" points="27.759,90.576 39.267,62.757 42.728,68.319 31.349,93.144 "/>
	<path d="M 177.963,15.819 A 19.364,19.577 0.0 1,0 216.691,15.819 A 19.364,19.577 0.0 1,0 177.963,15.819" points="64.116,90.576 52.608,62.757 49.147,68.319 60.526,93.144 "/>
	<path cx="197.327" cy="15.819" d="M 44.948,17.188 A 14.969,14.818 0.0 1,0 74.886,17.188 A 14.969,14.818 0.0 1,0 44.94799999999999,17.188" rx="19.364" ry="19.577"/>
	<path cx="59.917" cy="17.188" d="M 15.009000000000002,17.188 A 14.969,14.818 0.0 1,0 44.947,17.188 A 14.969,14.818 0.0 1,0 15.009000000000004,17.188" rx="14.969" ry="14.818"/>
	<path cx="29.978" cy="17.188" d="M 38.879000000000005,146.365 A 16.251,16.251 0.0 1,0 71.381,146.365 A 16.251,16.251 0.0 1,0 38.879,146.365" rx="14.969" ry="14.818"/>
	<path cx="55.13" cy="146.365" d="M 76.429,146.365 A 16.251000000000005,16.251000000000005 0.0 1,0 108.93100000000001,146.365 A 16.251000000000005,16.251000000000005 0.0 1,0 76.429,146.365" r="16.251"/>
	<path cx="92.68" cy="146.365" d="M 219.25,61.875 L 228.73,61.875 L 228.73,62.917 L 219.25,62.917 L 219.25,61.875" r="16.251"/>
	<path d="M 38.234,52.09 L 53.427,52.09 L 53.427,68.319 L 38.234,68.319 L 38.234,52.09" height="1.042" width="9.48" x="219.25" y="61.875"/>
	<path d="M 42.728,67.319 L 49.147,67.319 L 49.147,94.284 L 42.728,94.284 L 42.728,67.319" height="16.229" width="15.193" x="38.234" y="52.09"/>
</svg>
