<?xml version="1.0" ?>
<svg xmlns="http://www.w3.org/2000/svg" xmlns:ev="http://www.w3.org/2001/xml-events" xmlns:xlink="http://www.w3.org/1999/xlink" baseProfile="full" enable-background="new 0 0 70.691 100" height="600px" version="1.1" viewBox="0 0 70.691 100" width="425px" x="0px" xml:space="preserve" y="0px">
	<defs/>
	<path d="M 18.337,0.0 L 18.336,0.001 L 18.336,0.0 L 3.957,23.503 L 12.005,23.51 L 12.005,82.609 L 18.336,82.609 L 24.668,82.609 L 24.668,23.51 L 32.716,23.503 L 18.337,0.0" points="18.337,0 18.336,0.001 18.336,0 3.957,23.503 12.005,23.51 12.005,82.609 18.336,82.609 24.668,82.609    24.668,23.51 32.716,23.503 "/>
	<path d="M 52.355,0.0 L 52.355,0.001 L 52.354,0.0 L 37.975,23.503 L 46.023,23.51 L 46.023,82.609 L 52.355,82.609 L 58.686,82.609 L 58.686,23.51 L 66.734,23.503 L 52.355,0.0" points="52.355,0 52.355,0.001 52.354,0 37.975,23.503 46.023,23.51 46.023,82.609 52.355,82.609 58.686,82.609    58.686,23.51 66.734,23.503 "/>
	<path d="M 0.0,87.309 L 70.691,87.309 L 70.691,100.0 L 0.0,100.0 L 0.0,87.309" height="12.691" width="70.691" x="0" y="87.309"/>
</svg>
