<?xml version="1.0" ?>
<svg xmlns="http://www.w3.org/2000/svg" xmlns:ev="http://www.w3.org/2001/xml-events" xmlns:xlink="http://www.w3.org/1999/xlink" baseProfile="full" enable-background="new 0 0 90 90" height="600px" version="1.1" viewBox="0 0 90 90" width="600px" x="0px" xml:space="preserve" y="0px">
	<defs/>
	<path d="M 90.0,45.0 C 90.0,20.1 69.9,0.0 45.0,0.0 C 20.1,0.0 0.0,20.1 0.0,45.0 C 0.0,69.9 20.1,90.0 45.0,90.0 C 69.9,90.0 90.0,69.9 90.0,45.0 M 43.6,56.4 L 28.6,41.4 C 28.2,41.0 28.0,40.5 28.0,40.0 C 28.0,39.5 28.2,39.0 28.6,38.6 C 29.400000000000002,37.800000000000004 30.700000000000003,37.800000000000004 31.400000000000002,38.6 L 45.0,52.1 L 58.5,38.6 C 59.3,37.800000000000004 60.5,37.800000000000004 61.3,38.6 C 62.099999999999994,39.4 62.099999999999994,40.6 61.3,41.4 L 46.3,56.4 C 45.6,57.1 44.4,57.1 43.6,56.4"/>
</svg>
