<?xml version="1.0" ?>
<svg xmlns="http://www.w3.org/2000/svg" xmlns:ev="http://www.w3.org/2001/xml-events" xmlns:xlink="http://www.w3.org/1999/xlink" baseProfile="full" enable-background="new 0 0 90 90" height="600px" version="1.1" viewBox="0 0 90 90" width="600px" x="0px" xml:space="preserve" y="0px">
	<defs/>
	<path d="M 76.8,76.8 C 94.4,59.199999999999996 94.4,30.699999999999996 76.8,13.199999999999996 C 59.199999999999996,-4.400000000000006 30.699999999999996,-4.400000000000006 13.199999999999996,13.199999999999996 C -4.300000000000004,30.799999999999997 -4.400000000000006,59.3 13.199999999999996,76.8 C 30.8,94.4 59.2,94.4 76.8,76.8 M 36.0,52.1 L 36.0,30.9 C 36.0,30.299999999999997 36.2,29.799999999999997 36.6,29.5 C 37.0,29.200000000000003 37.5,28.9 38.0,28.9 C 39.1,28.9 40.0,29.799999999999997 40.0,30.9 L 40.0,50.0 L 59.1,50.0 C 60.2,50.0 61.1,50.9 61.1,52.0 C 61.1,53.1 60.2,54.0 59.1,54.0 L 37.9,54.0 C 36.8,54.0 36.0,53.2 36.0,52.1"/>
</svg>
