<?xml version="1.0" ?>
<svg xmlns="http://www.w3.org/2000/svg" xmlns:ev="http://www.w3.org/2001/xml-events" xmlns:xlink="http://www.w3.org/1999/xlink" baseProfile="full" enable-background="new 0 0 90 90" height="600px" version="1.1" viewBox="0 0 90 90" width="600px" x="0px" xml:space="preserve" y="0px">
	<defs/>
	<path d="M 45.0,90.0 C 69.9,90.0 90.0,69.9 90.0,45.0 C 90.0,20.1 69.9,0.0 45.0,0.0 C 20.1,0.0 0.0,20.1 0.0,45.0 C 0.0,69.9 20.1,90.0 45.0,90.0 M 33.6,43.6 L 48.6,28.6 C 49.0,28.2 49.5,28.0 50.0,28.0 C 50.5,28.0 51.0,28.2 51.4,28.6 C 52.199999999999996,29.400000000000002 52.199999999999996,30.700000000000003 51.4,31.400000000000002 L 37.9,45.0 L 51.4,58.5 C 52.199999999999996,59.3 52.199999999999996,60.5 51.4,61.3 C 50.6,62.099999999999994 49.4,62.099999999999994 48.6,61.3 L 33.6,46.3 C 32.9,45.6 32.9,44.4 33.6,43.6"/>
</svg>
