<?xml version="1.0" ?>
<svg xmlns="http://www.w3.org/2000/svg" xmlns:ev="http://www.w3.org/2001/xml-events" xmlns:xlink="http://www.w3.org/1999/xlink" baseProfile="full" enable-background="new 0 0 90 90" height="523px" version="1.1" viewBox="0 0 90 90" width="600px" x="0px" xml:space="preserve" y="0px">
	<defs/>
	<path d="M 65.0,43.0 L 45.0,52.0 L 25.0,43.0 L 25.0,62.0 C 25.0,68.1 34.1,73.0 45.0,73.0 C 55.9,73.0 65.0,67.9 65.0,62.0 C 65.0,62.0 65.0,43.0 65.0,43.0" fill="#000000"/>
	<path d="M 45.0,17.3 L 13.0,30.8 L 13.0,34.6 L 19.0,37.2 L 19.0,60.6 C 18.0,60.800000000000004 18.0,61.4 18.0,62.0 L 18.0,73.0 L 22.0,73.0 L 22.0,62.0 C 22.0,61.3 22.0,60.8 21.0,60.6 L 21.0,37.9 L 45.0,48.5 L 77.0,34.6 L 77.0,30.8 L 45.0,17.3"/>
</svg>
