<?xml version="1.0" ?>
<svg xmlns="http://www.w3.org/2000/svg" xmlns:ev="http://www.w3.org/2001/xml-events" xmlns:xlink="http://www.w3.org/1999/xlink" baseProfile="full" enable-background="new 0 0 560.494 791.981" height="600px" version="1.1" viewBox="0 0 560.494 791.981" width="438px" x="0px" xml:space="preserve" y="0px">
	<defs/>
	<path d="M 276.16,388.866 C 276.16,388.866 275.906,388.89 275.464,388.895 C 273.969,388.2 263.45,382.448 267.236,359.789 C 267.236,359.789 264.832,355.21999999999997 260.856,354.452 C 260.856,354.452 255.689,384.975 275.266,388.896 C 271.567,388.88300000000004 257.708,387.42900000000003 259.22400000000005,366.214 C 259.22400000000005,366.214 256.201,361.0 251.48400000000004,359.332 C 251.485,359.331 252.225,395.947 276.16,388.866 M 277.198,388.78 C 277.198,388.78 271.29999999999995,374.625 276.881,357.78 C 276.881,357.78 276.375,354.27599999999995 274.07,350.45799999999997 C 274.07,350.458 258.039,373.263 277.198,388.78 M 282.204,389.026 C 281.772,388.934 281.529,388.861 281.529,388.861 C 303.454,400.506 311.955,364.80899999999997 311.955,364.80899999999997 C 306.984,365.513 302.917,370.02099999999996 302.917,370.02099999999996 C 299.89599999999996,391.08899999999994 286.017,389.78 282.397,389.06499999999994 C 302.394,389.0829999999999 303.818,358.18499999999995 303.818,358.18499999999995 C 299.763,358.15599999999995 296.44,362.15599999999995 296.44,362.15599999999995 C 295.334,385.084 283.812,388.641 282.204,389.026 M 280.532,388.574 C 302.58099999999996,377.15700000000004 291.73199999999997,351.676 291.73199999999997,351.676 C 288.667,354.961 287.42499999999995,358.291 287.42499999999995,358.291 C 289.312,375.877 280.532,388.574 280.532,388.574 M 278.791,387.719 C 278.791,387.719 290.549,368.365 283.671,352.803 C 283.671,352.803 269.496,364.726 278.791,387.719" fill="#000000" stroke="#FFFFFF" stroke-width="0.0826"/>
	<path d="M 249.705,421.211 C 255.33800000000002,408.961 268.944,412.218 276.086,419.264 C 267.779,416.246 257.012,416.039 249.705,421.211" fill="#000000" stroke="#FFFFFF" stroke-width="0.0826"/>
	<path d="M 287.321,427.141 C 293.43800000000005,418.95300000000003 303.87800000000004,411.987 314.56,412.47700000000003 C 300.727,403.982 289.566,415.728 287.321,427.141" fill="#000000" stroke="#FFFFFF" stroke-width="0.0826"/>
	<path d="M 286.499,430.866 C 282.05600000000004,422.425 278.728,410.253 279.13,392.615 C 279.13,392.615 278.74399999999997,391.77500000000003 278.163,392.42900000000003 C 278.163,392.42900000000003 276.059,407.264 280.326,422.46900000000005 C 271.992,418.11300000000006 258.124,417.09200000000004 251.55400000000003,421.87600000000003 C 258.461,420.55100000000004 262.28400000000005,427.064 269.747,423.72 C 273.959,421.83500000000004 277.684,422.471 280.91,424.41600000000005 C 282.74600000000004,430.20500000000004 285.55600000000004,435.95900000000006 289.81,440.88000000000005 C 289.81,440.88000000000005 292.747,443.6240000000001 292.603,439.785 C 290.887,437.841 289.171,435.53400000000005 287.56600000000003,432.78900000000004 C 288.922,430.20200000000006 291.72900000000004,428.244 296.57000000000005,427.53400000000005 C 306.16900000000004,426.1290000000001 305.51200000000006,417.33000000000004 313.19700000000006,414.29100000000005 C 303.585,413.727 291.626,421.791 286.499,430.866" fill="#000000" stroke="#FFFFFF" stroke-width="0.0826"/>
	<path d="M 260.025,394.785 C 262.851,395.237 265.905,395.019 268.52599999999995,393.85600000000005 C 270.102,393.15600000000006 272.5679999999999,391.63700000000006 274.6039999999999,391.88400000000007 C 272.9869999999999,390.8420000000001 265.9509999999999,391.48500000000007 262.35799999999995,388.63400000000007 C 256.74099999999993,387.89200000000005 250.56999999999994,390.96600000000007 247.98399999999995,395.90600000000006 C 247.74999999999994,396.3520000000001 251.62899999999996,393.84600000000006 251.80399999999995,393.77900000000005 C 254.507,392.744 257.37,394.361 260.025,394.785" fill="#000000" stroke="#FFFFFF" stroke-width="0.0826"/>
	<path d="M 275.87,392.331 C 275.869,392.333 273.833,393.041 273.833,393.041 C 266.067,398.475 258.32300000000004,395.943 258.32300000000004,395.943 C 256.49100000000004,395.344 254.50800000000004,396.31399999999996 253.48100000000002,397.757 C 253.485,397.758 253.49,397.761 253.496,397.763 C 258.596,399.63399999999996 264.757,400.068 269.665,397.462 C 271.367,396.55899999999997 272.903,395.364 274.285,394.05199999999996 C 274.633,393.723 275.421,392.487 275.87,392.331" fill="#000000" stroke="#FFFFFF" stroke-width="0.0826"/>
	<path d="M 277.659,391.452 C 277.659,391.452 273.339,400.42 262.967,401.198 C 262.968,401.198 275.603,408.466 277.659,391.452" fill="#000000" stroke="#FFFFFF" stroke-width="0.0826"/>
	<path d="M 307.586,401.61 C 306.315,396.214 301.09700000000004,391.798 295.46000000000004,391.214 C 291.25800000000004,393.147 284.14300000000003,391.755 282.66400000000004,391.575 C 283.869,392.118 286.79100000000005,393.408 288.16400000000004,394.849 C 290.11600000000004,396.896 293.32700000000006,397.509 296.182,397.726 C 298.86400000000003,397.932 302.04900000000004,397.026 304.41200000000003,398.659 C 304.565,398.766 307.701,402.097 307.586,401.61" fill="#000000" stroke="#FFFFFF" stroke-width="0.0826"/>
	<path d="M 303.153,401.776 C 303.16,401.776 303.16400000000004,401.776 303.17,401.774 C 302.433,400.174 300.668,398.872 298.754,399.137 C 298.754,399.137 290.659,400.262 284.058,393.551 C 284.058,393.551 282.193,392.496 282.191,392.496 C 282.602,392.728 283.142,394.082 283.42199999999997,394.466 C 284.53,395.999 285.81399999999996,397.445 287.316,398.632 C 291.643,402.057 297.784,402.72 303.153,401.776" fill="#000000" stroke="#FFFFFF" stroke-width="0.0826"/>
	<path d="M 280.135,391.568 C 279.551,408.68899999999996 293.166,403.301 293.166,403.301 C 283.028,401.053 280.135,391.568 280.135,391.568" fill="#000000" stroke="#FFFFFF" stroke-width="0.0826"/>
</svg>
