<?xml version="1.0" ?>
<svg xmlns="http://www.w3.org/2000/svg" xmlns:ev="http://www.w3.org/2001/xml-events" xmlns:xlink="http://www.w3.org/1999/xlink" baseProfile="full" enable-background="new 0 0 100 100" height="600px" version="1.1" viewBox="0 0 100 100" width="287px" x="0px" xml:space="preserve" y="0px">
	<defs/>
	<path d="M 71.006,52.222 L 62.989,23.71 C 62.574999999999996,22.237000000000002 61.230999999999995,21.219 59.701,21.219 L 45.0,21.219 L 45.0,25.0 C 47.984,27.016 49.0,29.016 49.0,33.0 L 47.0,33.0 L 47.0,32.0 L 48.0,32.0 C 48.0,30.047 47.5,27.984 45.0,26.0 L 44.0,26.0 C 41.516,28.016 41.0,30.047 41.0,32.0 L 42.0,32.0 L 42.0,33.0 L 40.0,33.0 C 40.0,29.0 41.0,27.016 44.0,25.0 L 44.0,21.219 L 40.299,21.219 C 38.769,21.219 37.425,22.237000000000002 37.01,23.711000000000002 L 28.994,52.222 C 28.483,54.038000000000004 29.542,55.925000000000004 31.358,56.435 C 33.174,56.946000000000005 35.06,55.888000000000005 35.571,54.072 L 40.207,37.581 L 40.207,90.22200000000001 C 40.207,92.486 42.042,94.322 44.306,94.322 C 46.56999999999999,94.322 48.405,92.486 48.405,90.22200000000001 L 48.405,62.257 L 51.502,62.257 L 51.502,90.222 C 51.502,92.48599999999999 53.338,94.32199999999999 55.602000000000004,94.32199999999999 C 57.86600000000001,94.32199999999999 59.702000000000005,92.48599999999999 59.702000000000005,90.222 L 59.702000000000005,37.258 L 64.43,54.071 C 64.85400000000001,55.577999999999996 66.224,56.562999999999995 67.71600000000001,56.562999999999995 C 68.022,56.562999999999995 68.33300000000001,56.520999999999994 68.64300000000001,56.434 C 70.459,55.924 71.517,54.038 71.006,52.222 M 58.143,27.38 L 56.211,27.38 L 56.211,29.416999999999998 L 55.13,29.416999999999998 L 55.13,27.38 L 53.198,27.38 L 53.198,26.346999999999998 L 55.13,26.346999999999998 L 55.13,24.328999999999997 L 56.211000000000006,24.328999999999997 L 56.211000000000006,26.346999999999998 L 58.14300000000001,26.346999999999998 L 58.14300000000001,27.38 L 58.143,27.38" fill="#000000"/>
	<path d="M 46.277,9.0 C 46.624,8.405 47.262,8.0 48.0,8.0 C 48.738,8.0 49.376,8.405 49.723,9.0 L 55.957,9.0 C 54.666000000000004,7.059 52.46,5.779 49.954,5.779 C 47.448,5.779 45.243,7.06 43.951,9.0 L 46.277,9.0" fill="#000000"/>
	<path d="M 49.723,11.0 C 49.377,11.595 48.739,12.0 48.0,12.0 C 47.261,12.0 46.624,11.595 46.277,11.0 L 43.031,11.0 C 42.85,11.631 42.748,12.296 42.748,12.985 C 42.748,16.965 45.974999999999994,20.192 49.955,20.192 C 53.934999999999995,20.192 57.162,16.965 57.162,12.985 C 57.162,12.296 57.059,11.631 56.879,11.0 L 49.723,11.0" fill="#000000"/>
</svg>
