<?xml version="1.0" ?>
<svg xmlns="http://www.w3.org/2000/svg" xmlns:ev="http://www.w3.org/2001/xml-events" xmlns:xlink="http://www.w3.org/1999/xlink" baseProfile="full" enable-background="new 0 0 100 100" height="600px" version="1.1" viewBox="0 0 100 100" width="498px" x="0px" xml:space="preserve" y="0px">
	<defs/>
	<path d="M 68.998,97.088 C 68.998,97.088 90.712,97.088 94.99900000000001,97.088 C 96.14300000000001,97.088 95.998,95.65899999999999 95.998,95.517 C 95.998,95.375 90.998,53.946 81.284,53.946 C 78.498,53.946 77.497,44.867 77.497,44.867 L 80.998,44.803 L 83.284,44.803 C 83.284,44.803 83.42800000000001,36.803 83.284,36.803 C 83.141,36.803 68.998,36.803 68.998,36.803 L 66.998,36.803 C 66.998,36.803 52.855000000000004,36.803 52.71300000000001,36.803 C 52.571000000000005,36.803 52.71300000000001,44.803 52.71300000000001,44.803 L 54.99900000000001,44.803 L 58.49800000000001,44.867 C 58.49800000000001,44.867 57.49800000000001,53.946 54.71200000000001,53.946 C 44.99900000000001,53.946 39.99800000000001,95.375 39.99800000000001,95.517 C 39.99800000000001,95.65899999999999 39.85500000000001,97.088 40.99800000000001,97.088 C 45.28400000000001,97.088 66.99800000000002,97.088 66.99800000000002,97.088 L 68.998,97.088"/>
	<path d="M 26.801,30.776 C 29.092999999999996,30.776 26.883999999999997,24.424 26.883999999999997,23.847 C 26.883999999999997,23.262 26.895999999999997,8.864 26.895999999999997,8.864 L 26.853999999999996,1.1320000000000006 C 26.853999999999996,1.1320000000000006 34.25899999999999,20.398 36.434,29.243000000000002 C 37.468999999999994,33.447 32.226,38.789 32.226,38.789 C 29.493,41.93 30.826999999999998,43.2 30.826999999999998,43.2 C 30.826999999999998,47.56 36.422,51.641000000000005 36.422,51.641000000000005 L 37.073,97.08800000000001 L 16.53,97.08800000000001 L 17.181,51.641000000000005 C 17.181,51.641000000000005 22.776,47.56 22.776,43.2 C 22.776,43.2 24.108999999999998,41.93 21.377,38.789 C 21.377,38.789 16.134,33.447 17.168999999999997,29.243000000000002 C 19.342999999999996,20.398000000000003 26.748999999999995,1.1320000000000014 26.748999999999995,1.1320000000000014 L 26.706999999999994,8.864 C 26.706999999999994,8.864 26.718999999999994,23.262 26.718999999999994,23.847 C 26.719,24.424 24.509,30.776 26.801,30.776"/>
	<path d="M 52.677,63.278 L 83.322,63.278 L 83.322,78.062 L 52.677,78.062 L 52.677,63.278" fill="#000000" height="14.784" width="30.645" x="52.677" y="63.278"/>
</svg>
