<?xml version="1.0" ?>
<svg xmlns="http://www.w3.org/2000/svg" xmlns:ev="http://www.w3.org/2001/xml-events" xmlns:xlink="http://www.w3.org/1999/xlink" baseProfile="full" enable-background="new 0 0 100 75.897" height="456px" version="1.1" viewBox="0 0 100 75.897" width="600px" x="0px" xml:space="preserve" y="0px">
	<defs/>
	<path d="M 96.728,0.0 L 3.278,0.0 C 1.227,0.0 0.0,1.228 0.0,3.272 L 0.0,63.114 C 0.0,65.16499999999999 2.045,66.386 4.097,66.386 L 13.481000000000002,66.386 L 10.956000000000001,71.08 C 10.553,71.827 10.831000000000001,72.765 11.579,73.167 L 16.310000000000002,75.705 C 17.063000000000002,76.12 17.994000000000003,75.835 18.396,75.088 L 23.085,66.386 L 96.72800000000001,66.386 C 98.76700000000001,66.386 100.00000000000001,65.164 100.00000000000001,63.114 L 100.00000000000001,3.272 C 100.0,1.228 98.767,0.0 96.728,0.0 M 20.316,2.111 C 21.619999999999997,2.111 22.676,3.1660000000000004 22.676,4.470000000000001 C 22.676,5.774000000000001 21.619999999999997,6.835000000000001 20.316,6.835000000000001 C 19.012,6.835000000000001 17.957,5.774000000000001 17.957,4.470000000000001 C 17.957,3.1660000000000004 19.012,2.111 20.316,2.111 M 13.873,2.111 C 15.183,2.111 16.238,3.1660000000000004 16.238,4.470000000000001 C 16.238,5.774000000000001 15.183,6.835000000000001 13.873,6.835000000000001 C 12.568999999999999,6.835000000000001 11.513,5.774000000000001 11.513,4.470000000000001 C 11.513,3.1660000000000004 12.568,2.111 13.873,2.111 M 7.434,2.111 C 8.738,2.111 9.794,3.1660000000000004 9.794,4.470000000000001 C 9.794,5.774000000000001 8.738,6.835000000000001 7.434000000000001,6.835000000000001 C 6.130000000000003,6.835000000000001 5.069,5.774 5.069,4.47 C 5.075,3.166 6.13,2.111 7.434,2.111 M 93.858,61.738 L 25.598,61.738 L 29.221,55.004 L 37.865,59.675999999999995 C 38.327000000000005,59.925 38.89,59.91199999999999 39.353,59.651999999999994 C 39.81,59.39099999999999 40.106,58.904999999999994 40.13,58.382999999999996 L 41.458000000000006,27.216999999999995 C 41.48800000000001,26.635999999999996 41.18000000000001,26.096999999999994 40.67000000000001,25.805999999999994 C 40.12400000000001,25.431999999999995 39.537000000000006,25.550999999999995 39.05700000000001,25.882999999999996 L 13.001,43.716 C 12.562999999999999,44.025 12.312999999999999,44.534 12.343,45.068 C 12.366999999999999,45.614 12.669,46.089 13.143,46.338 L 21.781,50.997 L 15.995,61.727000000000004 L 5.431,61.727000000000004 L 5.431,19.256 L 93.859,19.256 L 93.859,61.738 L 93.858,61.738 M 93.858,15.479 L 5.431,15.479 L 5.431,9.806 L 93.859,9.806 L 93.859,15.479 L 93.858,15.479" fill="#010101"/>
</svg>
