<?xml version="1.0" ?>
<svg xmlns="http://www.w3.org/2000/svg" xmlns:ev="http://www.w3.org/2001/xml-events" xmlns:xlink="http://www.w3.org/1999/xlink" baseProfile="full" enable-background="new 0 0 89.04 151.391" height="600px" version="1.1" viewBox="0 0 89.04 151.391" width="354px" x="0px" xml:space="preserve" y="0px">
	<defs/>
	<path d="M 44.554,128.084 L 71.412,151.391 L 78.055,151.391 L 46.44,42.962 L 42.6,42.962 L 10.985,151.39 L 17.689999999999998,151.39 L 44.554,128.084 M 72.659,147.175 L 47.605000000000004,125.43800000000002 L 62.543000000000006,112.47900000000001 L 72.659,147.175 M 59.872,103.315 L 47.738,93.64 L 55.29,87.604 L 59.872,103.315 M 51.956,76.168 L 47.17700000000001,70.777 L 49.589000000000006,68.049 L 51.956,76.168 M 44.521,50.667 L 48.265,63.510000000000005 L 44.503,67.763 L 40.766,63.54600000000001 L 44.521,50.667 M 39.442,68.084 L 41.833,70.781 L 37.094,76.138 L 39.442,68.084 M 44.507,73.795 L 53.486999999999995,83.924 L 44.53099999999999,91.08300000000001 L 35.54899999999999,83.921 L 44.507,73.795 M 33.751,87.603 L 41.327,93.64399999999999 L 29.151999999999997,103.374 L 33.751,87.603 M 44.534,96.202 L 60.513,108.943 L 44.554,122.789 L 28.595000000000002,108.94200000000001 L 44.534,96.202 M 26.512,112.43 L 41.502,125.436 L 16.359,147.25 L 26.512,112.43" fill="#000000"/>
	<path d="M 62.54,44.52 C 62.54,49.080000000000005 60.819,53.230000000000004 58.019,56.410000000000004 L 56.609,51.57000000000001 C 57.831,49.50000000000001 58.54,47.09 58.54,44.52000000000001 C 58.54,36.790000000000006 52.251,30.50900000000001 44.519,30.50900000000001 C 36.79,30.50900000000001 30.509,36.78900000000001 30.509,44.52000000000001 C 30.509,47.10000000000001 31.209,49.49000000000001 32.429,51.57000000000001 L 31.019000000000002,56.41000000000001 C 28.219,53.23000000000001 26.509,49.08000000000001 26.509,44.52000000000001 C 26.509,34.58900000000001 34.589,26.50900000000001 44.519000000000005,26.50900000000001 C 54.45,26.51 62.54,34.59 62.54,44.52" fill="#000000"/>
	<path d="M 75.79,44.52 C 75.79,55.249 70.351,64.74000000000001 62.09100000000001,70.37 L 60.909000000000006,66.30000000000001 C 67.51,61.32 71.79,53.41 71.79,44.52 C 71.79,29.490000000000002 59.56100000000001,17.259000000000004 44.519000000000005,17.259000000000004 C 29.489000000000004,17.259000000000004 17.249000000000006,29.489000000000004 17.249000000000006,44.52 C 17.249000000000006,53.410000000000004 21.528000000000006,61.32000000000001 28.139000000000006,66.299 L 26.949000000000005,70.369 C 18.689000000000007,64.739 13.250000000000005,55.249 13.250000000000005,44.519 C 13.250000000000005,27.279 27.279000000000003,13.258 44.52,13.258 C 61.761,13.258 75.79,27.28 75.79,44.52" fill="#000000"/>
	<path d="M 62.54,44.52 C 62.54,49.080000000000005 60.819,53.230000000000004 58.019,56.410000000000004 L 56.609,51.57000000000001 C 57.831,49.50000000000001 58.54,47.09 58.54,44.52000000000001 C 58.54,36.790000000000006 52.251,30.50900000000001 44.519,30.50900000000001 C 36.79,30.50900000000001 30.509,36.78900000000001 30.509,44.52000000000001 C 30.509,47.10000000000001 31.209,49.49000000000001 32.429,51.57000000000001 L 31.019000000000002,56.41000000000001 C 28.219,53.23000000000001 26.509,49.08000000000001 26.509,44.52000000000001 C 26.509,34.58900000000001 34.589,26.50900000000001 44.519000000000005,26.50900000000001 C 54.45,26.51 62.54,34.59 62.54,44.52" fill="#000000"/>
	<path d="M 89.04,44.52 C 89.04,61.31 79.68900000000001,75.959 65.93100000000001,83.541 L 64.781,79.591 C 76.881,72.57 85.04100000000001,59.489999999999995 85.04100000000001,44.520999999999994 C 85.04,22.18 66.859,4.0 44.52,4.0 C 22.18100000000001,4.0 4.0,22.18 4.0,44.52 C 4.0,59.49 12.159,72.57000000000001 24.26,79.589 L 23.110000000000003,83.539 C 9.35,75.96 0.0,61.31 0.0,44.52 C 0.0,19.97 19.97,0.0 44.52,0.0 C 69.07000000000001,0.0 89.04,19.97 89.04,44.52" fill="#000000"/>
	<path d="M 62.54,44.52 C 62.54,49.080000000000005 60.819,53.230000000000004 58.019,56.410000000000004 L 56.609,51.57000000000001 C 57.831,49.50000000000001 58.54,47.09 58.54,44.52000000000001 C 58.54,36.790000000000006 52.251,30.50900000000001 44.519,30.50900000000001 C 36.79,30.50900000000001 30.509,36.78900000000001 30.509,44.52000000000001 C 30.509,47.10000000000001 31.209,49.49000000000001 32.429,51.57000000000001 L 31.019000000000002,56.41000000000001 C 28.219,53.23000000000001 26.509,49.08000000000001 26.509,44.52000000000001 C 26.509,34.58900000000001 34.589,26.50900000000001 44.519000000000005,26.50900000000001 C 54.45,26.51 62.54,34.59 62.54,44.52" fill="#000000"/>
	<path d="M 75.79,44.52 C 75.79,55.249 70.351,64.74000000000001 62.09100000000001,70.37 L 60.909000000000006,66.30000000000001 C 67.51,61.32 71.79,53.41 71.79,44.52 C 71.79,29.490000000000002 59.56100000000001,17.259000000000004 44.519000000000005,17.259000000000004 C 29.489000000000004,17.259000000000004 17.249000000000006,29.489000000000004 17.249000000000006,44.52 C 17.249000000000006,53.410000000000004 21.528000000000006,61.32000000000001 28.139000000000006,66.299 L 26.949000000000005,70.369 C 18.689000000000007,64.739 13.250000000000005,55.249 13.250000000000005,44.519 C 13.250000000000005,27.279 27.279000000000003,13.258 44.52,13.258 C 61.761,13.258 75.79,27.28 75.79,44.52" fill="#000000"/>
</svg>
