<?xml version="1.0" ?>
<svg xmlns="http://www.w3.org/2000/svg" xmlns:ev="http://www.w3.org/2001/xml-events" xmlns:xlink="http://www.w3.org/1999/xlink" baseProfile="full" enable-background="new 0 0 100 100" height="418px" version="1.1" viewBox="0 0 100 100" width="600px" x="0px" xml:space="preserve" y="0px">
	<defs/>
	<path d="M 4.0,67.0 L 33.0,67.0 L 33.0,16.0 L 4.0,32.909 L 4.0,67.0 M 8.0,36.07 L 28.0,25.166 L 28.0,45.0 L 23.0,45.0 L 23.0,49.0 L 28.0,49.0 L 28.0,62.0 L 8.0,62.0 L 8.0,36.07"/>
	<path d="M 4.0,75.0 L 33.0,80.0 L 33.0,68.0 L 4.0,68.0 L 4.0,75.0 M 27.25,70.0 C 28.355,70.0 29.25,71.343 29.25,73.0 C 29.25,74.657 28.355,76.0 27.25,76.0 C 26.145,76.0 25.25,74.657 25.25,73.0 C 25.25,71.343 26.145,70.0 27.25,70.0"/>
	<path d="M 67.0,16.0 L 67.0,67.0 L 96.0,67.0 L 96.0,32.909 L 67.0,16.0 M 92.0,62.0 L 72.0,62.0 L 72.0,49.0 L 77.0,49.0 L 77.0,45.0 L 72.0,45.0 L 72.0,25.166 L 92.0,36.07 L 92.0,62.0"/>
	<path d="M 67.0,80.0 L 96.0,75.0 L 96.0,68.0 L 67.0,68.0 L 67.0,80.0 M 73.25,70.0 C 74.355,70.0 75.25,71.343 75.25,73.0 C 75.25,74.657 74.355,76.0 73.25,76.0 C 72.145,76.0 71.25,74.657 71.25,73.0 C 71.25,71.343 72.145,70.0 73.25,70.0"/>
	<path d="M 34.0,67.0 L 38.0,67.0 L 38.0,19.909 L 34.0,16.0 L 34.0,67.0" points="34,67 38,67 38,19.909 34,16  "/>
	<path d="M 34.0,80.0 L 38.0,77.0 L 38.0,68.0 L 34.0,68.0 L 34.0,80.0" points="34,80 38,77 38,68 34,68  "/>
	<path d="M 62.0,67.0 L 66.0,67.0 L 66.0,16.0 L 62.0,19.909 L 62.0,67.0" points="62,67 66,67 66,16 62,19.909  "/>
	<path d="M 62.0,77.0 L 66.0,80.0 L 66.0,68.0 L 62.0,68.0 L 62.0,77.0" points="62,77 66,80 66,68 62,68  "/>
	<path d="M 15.0,45.0 L 21.0,45.0 L 21.0,49.0 L 15.0,49.0 L 15.0,45.0" height="4" width="6" x="15" y="45"/>
	<path d="M 39.0,45.0 L 45.0,45.0 L 45.0,49.0 L 39.0,49.0 L 39.0,45.0" height="4" width="6" x="39" y="45"/>
	<path d="M 47.0,45.0 L 53.0,45.0 L 53.0,49.0 L 47.0,49.0 L 47.0,45.0" height="4" width="6" x="47" y="45"/>
	<path d="M 55.0,45.0 L 61.0,45.0 L 61.0,49.0 L 55.0,49.0 L 55.0,45.0" height="4" width="6" x="55" y="45"/>
	<path d="M 79.0,45.0 L 85.0,45.0 L 85.0,49.0 L 79.0,49.0 L 79.0,45.0" height="4" width="6" x="79" y="45"/>
</svg>
