<?xml version="1.0" ?>
<svg xmlns="http://www.w3.org/2000/svg" xmlns:ev="http://www.w3.org/2001/xml-events" xmlns:xlink="http://www.w3.org/1999/xlink" baseProfile="full" enable-background="new 0 0 100 90.299" height="462px" version="1.1" viewBox="0 0 100 90.299" width="600px" x="0px" xml:space="preserve" y="0px">
	<defs/>
	<path d="M 85.57,12.857 L 11.921,12.857 C 10.177999999999999,12.857 8.764999999999999,14.270999999999999 8.764999999999999,16.014 L 8.764999999999999,17.064 L 8.764999999999999,60.202 C 8.764999999999999,61.943999999999996 10.177,63.357 11.921,63.357 L 12.974,63.357 L 46.495999999999995,63.357 L 46.495999999999995,66.31099999999999 L 22.778,66.31099999999999 C 21.956999999999997,66.31099999999999 21.285999999999998,66.98299999999999 21.285999999999998,67.803 L 21.285999999999998,72.91499999999999 C 21.285999999999998,73.73499999999999 21.956999999999997,74.407 22.778,74.407 L 76.151,74.407 C 76.972,74.407 77.64399999999999,73.735 77.64399999999999,72.91499999999999 L 77.64399999999999,67.803 C 77.64399999999999,66.983 76.972,66.31099999999999 76.151,66.31099999999999 L 50.995,66.31099999999999 L 50.995,63.35699999999999 L 84.517,63.35699999999999 L 85.57,63.35699999999999 C 87.312,63.35699999999999 88.726,61.943999999999996 88.726,60.20199999999999 L 88.726,17.065 L 88.726,16.015 C 88.727,14.271 87.313,12.857 85.57,12.857 M 27.671,71.982 C 26.843,71.982 26.171,71.31 26.171,70.482 C 26.171,69.654 26.843,68.982 27.671,68.982 C 28.499,68.982 29.171,69.654 29.171,70.482 C 29.171,71.31 28.499,71.982 27.671,71.982 M 69.171,68.482 C 70.275,68.482 71.171,69.378 71.171,70.482 C 71.171,71.586 70.275,72.482 69.171,72.482 C 68.06700000000001,72.482 67.171,71.586 67.171,70.482 C 67.171,69.378 68.066,68.482 69.171,68.482 M 60.671,68.982 C 61.499,68.982 62.171,69.654 62.171,70.482 C 62.171,71.31 61.499,71.982 60.671,71.982 C 59.842999999999996,71.982 59.171,71.31 59.171,70.482 C 59.171,69.654 59.843,68.982 60.671,68.982 M 84.518,59.15 L 12.974,59.15 L 12.974,17.065 L 84.51700000000001,17.065 L 84.51700000000001,59.15 L 84.518,59.15" fill="#000000"/>
</svg>
