<?xml version="1.0" ?>
<svg xmlns="http://www.w3.org/2000/svg" xmlns:ev="http://www.w3.org/2001/xml-events" xmlns:xlink="http://www.w3.org/1999/xlink" baseProfile="full" enable-background="new 0 0 80 80" height="600px" version="1.1" viewBox="0 0 80 80" width="598px" x="0px" xml:space="preserve" y="0px">
	<defs/>
	<path d="M 64.622,2.411 L 14.995,2.411 C 8.367999999999999,2.411 2.994999999999999,7.784000000000001 2.994999999999999,14.411 L 2.994999999999999,64.30799999999999 C 2.994999999999999,70.93499999999999 8.367999999999999,76.30799999999999 14.995,76.30799999999999 L 64.622,76.30799999999999 C 71.249,76.30799999999999 76.622,70.93499999999999 76.622,64.30799999999999 L 76.622,14.411 C 76.622,7.783 71.249,2.411 64.622,2.411 M 32.125,63.906 L 28.0,63.906 L 28.0,15.093 L 32.125,15.093 L 32.125,63.906 M 51.125,63.906 L 47.0,63.906 L 47.0,15.093 L 51.125,15.093 L 51.125,63.906"/>
	<path d="M 24.125,63.906 L 24.125,15.093 L 61.0,39.168 L 24.125,63.906" display="inline" fill="#000000" points="24.125,63.906 24.125,15.093 61,39.168  "/>
</svg>
