<?xml version="1.0" ?>
<svg xmlns="http://www.w3.org/2000/svg" xmlns:ev="http://www.w3.org/2001/xml-events" xmlns:xlink="http://www.w3.org/1999/xlink" baseProfile="full" enable-background="new 0 0 100 100" height="600px" version="1.1" viewBox="0 0 100 100" width="600px" x="0px" xml:space="preserve" y="0px">
	<defs/>
	<path d="M 85.36,14.639 C 75.918,5.2 63.362,0.0 50.004,0.0 L 49.943,0.0 C 36.599,0.0 24.056,5.2 14.619,14.642 C 5.183,24.084 -0.009,36.633 0.0,49.968 C -0.009,63.331 5.186,75.894 14.629,85.34800000000001 C 24.069,94.797 36.62,100.0 49.971,100.0 L 49.974,100.0 C 63.339,100.0 75.904,94.798 85.351,85.349 C 94.796,75.903 99.999,63.34 100.0,49.973 C 99.999,36.625 94.801,24.078 85.36,14.639 M 50.004,11.15 C 71.424,11.15 88.852,28.566000000000003 88.852,49.972 C 88.852,58.443 86.126,66.288 81.507,72.68299999999999 L 27.307000000000002,18.434999999999995 C 33.86,13.703999999999995 41.704,11.148999999999996 49.944,11.148999999999996 L 50.004,11.148999999999996 L 50.004,11.15 M 22.517,77.467 C 15.18,70.124 11.144,60.361999999999995 11.152,49.968 C 11.144,41.461000000000006 13.864999999999998,33.365 18.896,26.681000000000004 L 73.257,81.088 C 66.762,85.96 58.699000000000005,88.851 49.974000000000004,88.851 C 39.601,88.851 29.851,84.808 22.517,77.467"/>
</svg>
