<?xml version="1.0" ?>
<svg xmlns="http://www.w3.org/2000/svg" xmlns:ev="http://www.w3.org/2001/xml-events" xmlns:xlink="http://www.w3.org/1999/xlink" baseProfile="full" enable-background="new 0 0 100 100" height="600px" version="1.1" viewBox="0 0 100 100" width="516px" x="0px" xml:space="preserve" y="0px">
	<defs/>
	<path d="M 74.69,56.119 C 71.544,55.07 68.113,53.903999999999996 64.783,52.932 C 64.636,53.219 64.475,53.521 64.31400000000001,53.824000000000005 C 66.885,56.78300000000001 68.254,60.742000000000004 68.97900000000001,63.87200000000001 C 70.14300000000001,63.88400000000001 71.08300000000001,64.82900000000001 71.08300000000001,65.995 C 71.08300000000001,67.16900000000001 70.13100000000001,68.12100000000001 68.95800000000001,68.12100000000001 C 67.78500000000001,68.12100000000001 66.83300000000001,67.16900000000001 66.83300000000001,65.995 C 66.83300000000001,65.223 67.24800000000002,64.554 67.86400000000002,64.182 C 67.20200000000001,61.294000000000004 65.97900000000001,57.667 63.725000000000016,54.908 C 60.415,60.876 54.76,69.027 47.638,71.4 C 40.463,69.00800000000001 34.778,60.681000000000004 31.479,54.688 C 27.918,58.887 26.828,65.318 26.538999999999998,67.656 C 31.1,68.043 35.0,73.233 35.0,79.576 L 35.0,80.0 L 34.0,80.0 L 33.0,80.0 L 32.0,80.0 C 31.724,80.0 31.5,79.776 31.5,79.5 C 31.5,79.224 31.724,79.0 32.0,79.0 L 32.981,79.0 C 32.783,73.527 29.802000000000003,69.164 25.998,69.164 C 22.199,69.164 19.222,73.526 19.020000000000003,79.0 L 20.0,79.0 C 20.276,79.0 20.5,79.224 20.5,79.5 C 20.5,79.776 20.276,80.0 20.0,80.0 L 19.0,80.0 L 18.0,80.0 L 17.0,80.0 L 17.0,79.589 C 17.0,73.28 20.847,68.109 25.368000000000002,67.663 C 25.495,66.56099999999999 25.808000000000003,64.444 26.519000000000002,62.016 C 27.274,59.440999999999995 28.613000000000003,56.138999999999996 30.894000000000002,53.605999999999995 C 30.758000000000003,53.349 30.619000000000003,53.087999999999994 30.493000000000002,52.843999999999994 C 27.163000000000004,53.815999999999995 23.733000000000004,55.084999999999994 20.586000000000002,56.13399999999999 C 8.993,59.998 8.993,95.0 8.993,95.0 L 86.28399999999999,95.0 C 86.284,95.0 86.284,59.983 74.69,56.119 M 75.0,82.0 L 59.0,82.0 L 59.0,80.0 L 69.0,80.0 L 69.0,74.0 L 70.0,74.0 L 70.0,80.0 L 72.0,80.0 L 72.0,78.0 L 71.0,78.0 L 71.0,75.0 L 72.0,75.0 L 72.0,74.0 C 72.0,73.724 72.224,73.5 72.5,73.5 C 72.776,73.5 73.0,73.724 73.0,74.0 L 73.0,75.0 L 73.0,76.0 L 73.0,80.0 L 75.0,80.0 L 75.0,82.0"/>
	<path d="M 71.212,24.838 C 70.4,14.196 57.754,5.0 48.086,5.0 C 37.525999999999996,5.0 24.064,13.631 24.064,24.838 C 24.064,24.838 22.969,43.903000000000006 28.983,51.632000000000005 C 31.432000000000002,51.234 33.861000000000004,50.915000000000006 36.273,50.67100000000001 C 39.463,53.46000000000001 43.388000000000005,55.11000000000001 47.637,55.11000000000001 C 51.875,55.11000000000001 55.792,53.468 58.978,50.69100000000001 C 61.208,50.93200000000001 63.422000000000004,51.24600000000001 65.618,51.63100000000001 C 72.323,44.0 71.212,24.838 71.212,24.838 M 66.961,34.491 C 66.942,34.491 66.904,34.489 66.829,34.48 L 64.865,34.239999999999995 L 64.53699999999999,36.190999999999995 C 62.89499999999999,45.95399999999999 55.78799999999999,53.041 47.63799999999999,53.041 C 39.48799999999999,53.041 32.38099999999999,45.955 30.73999999999999,36.190999999999995 L 30.411999999999992,34.239999999999995 L 28.447999999999993,34.48 C 28.372999999999994,34.489 28.333999999999993,34.491 28.315999999999992,34.491 C 27.28599999999999,34.491 26.13499999999999,32.897 26.13499999999999,30.764 C 26.13499999999999,28.631 27.286999999999992,27.037 28.315999999999992,27.037 C 28.41699999999999,27.037 28.51599999999999,27.051 28.615999999999993,27.079 L 30.188999999999993,27.517 C 30.330999999999992,27.647 30.490999999999993,27.709 30.682999999999993,27.645 C 33.358999999999995,26.753 36.797999999999995,22.56 38.70799999999999,19.993 C 42.18699999999999,21.631999999999998 49.84299999999999,24.967999999999996 53.75699999999999,28.445 C 53.532999999999994,27.2 52.55799999999999,25.378 51.24799999999999,23.522 C 54.52799999999999,25.766 57.471999999999994,28.069 59.42499999999999,29.217999999999996 C 59.29599999999999,28.665999999999997 58.73799999999999,27.470999999999997 57.97899999999999,26.088999999999995 C 60.437999999999995,27.572999999999993 62.87199999999999,29.200999999999993 64.57799999999999,30.763999999999996 C 64.36399999999999,29.574999999999996 63.46499999999999,27.858999999999995 62.24299999999999,26.089999999999996 C 63.08999999999999,26.706999999999997 63.90099999999999,27.248999999999995 64.62699999999998,27.644999999999996 L 66.66099999999999,27.077999999999996 C 66.76099999999998,27.049999999999997 66.85999999999999,27.035999999999994 66.96099999999998,27.035999999999994 C 67.99099999999999,27.035999999999994 69.14199999999998,28.629999999999995 69.14199999999998,30.762999999999995 C 69.143,32.897 67.991,34.491 66.961,34.491"/>
</svg>
