<?xml version="1.0" ?>
<svg xmlns="http://www.w3.org/2000/svg" xmlns:ev="http://www.w3.org/2001/xml-events" xmlns:xlink="http://www.w3.org/1999/xlink" baseProfile="full" enable-background="new 0 0 90 90" height="600px" version="1.1" viewBox="0 0 90 90" width="330px" x="0px" xml:space="preserve" y="0px">
	<defs/>
	<path d="M 66.542,35.892 C 66.626,35.832 66.697,35.762 66.748,35.678000000000004 C 66.94500000000001,35.330000000000005 66.702,34.856 66.179,34.633 C 62.845,33.233000000000004 59.082,32.660000000000004 55.205,33.129000000000005 C 54.601,33.199000000000005 54.208999999999996,33.752 54.344,34.330000000000005 L 35.605,34.330000000000005 C 35.739,33.752 35.348,33.199000000000005 34.742,33.129000000000005 C 30.866999999999997,32.660000000000004 27.104,33.233000000000004 23.769,34.633 C 23.247,34.856 23.002,35.330000000000005 23.201999999999998,35.678000000000004 C 23.256999999999998,35.77 23.337999999999997,35.846000000000004 23.432,35.907000000000004 C 20.101,37.886 17.869,41.519000000000005 17.869,45.67400000000001 C 17.869,51.947 22.953,57.03200000000001 29.226,57.03200000000001 C 31.89,57.03200000000001 34.333999999999996,56.11400000000001 36.269999999999996,54.58300000000001 L 53.724999999999994,54.58300000000001 C 55.66199999999999,56.11400000000001 58.108999999999995,57.03200000000001 60.770999999999994,57.03200000000001 C 67.04299999999999,57.03200000000001 72.12899999999999,51.94700000000001 72.12899999999999,45.67400000000001 C 72.13,41.508 69.887,37.867 66.542,35.892 M 33.972,47.175 L 30.884,47.175 L 30.884,50.263999999999996 L 27.884,50.263999999999996 L 27.884,47.175 L 24.794,47.175 L 24.794,44.174 L 27.884,44.174 L 27.884,41.085 L 30.884,41.085 L 30.884,44.174 L 33.972,44.174 L 33.972,47.175 M 41.545,47.162 L 39.458,48.739 C 39.147,48.974 38.701,48.913 38.467,48.601 C 38.231,48.289 38.292,47.844 38.605,47.609 L 40.692,46.033 C 41.004,45.797000000000004 41.447,45.859 41.684,46.171 C 41.92,46.483 41.859,46.927 41.545,47.162 M 47.43,47.162 L 45.342999999999996,48.739 C 45.029999999999994,48.974 44.586,48.913 44.349999999999994,48.601 C 44.114,48.289 44.178,47.844 44.48799999999999,47.609 L 46.574999999999996,46.033 C 46.88699999999999,45.797000000000004 47.331999999999994,45.859 47.56699999999999,46.171 C 47.802,46.483 47.741,46.927 47.43,47.162 M 55.757,47.441 C 54.652,47.441 53.754999999999995,46.544000000000004 53.754999999999995,45.438 C 53.754999999999995,44.332 54.651999999999994,43.436 55.757,43.436 C 56.864,43.436 57.76,44.332 57.76,45.438 C 57.76,46.544 56.864,47.441 55.757,47.441 M 60.935,51.519 C 59.830000000000005,51.519 58.932,50.622 58.932,49.516 C 58.932,48.41 59.830000000000005,47.513999999999996 60.935,47.513999999999996 C 62.04,47.513999999999996 62.935,48.41 62.935,49.516 C 62.936,50.621 62.04,51.519 60.935,51.519 M 60.947,43.437 C 59.84,43.437 58.944,42.54 58.944,41.434999999999995 C 58.944,40.32899999999999 59.84,39.431999999999995 60.947,39.431999999999995 C 62.052,39.431999999999995 62.948,40.327999999999996 62.948,41.434999999999995 C 62.948,42.539 62.052,43.437 60.947,43.437 M 66.124,47.514 C 65.018,47.514 64.122,46.617000000000004 64.122,45.511 C 64.122,44.405 65.018,43.509 66.124,43.509 C 67.228,43.509 68.12599999999999,44.405 68.12599999999999,45.511 C 68.12599999999999,46.617000000000004 67.229,47.514 66.124,47.514"/>
	<path d="M 210.055,395.395 L 207.448,434.809 L 232.893,436.492 L 232.959,435.493 L 235.5,397.077 L 210.055,395.395" fill="#000000" points="210.055,395.395 207.448,434.809 232.893,436.492 232.959,435.493 235.5,397.077 "/>
	<path d="M 218.416,395.842 L 203.876,432.568 L 227.585,441.955 L 227.954,441.025 L 242.125,405.229 L 218.416,395.842" fill="#000000" points="218.416,395.842 203.876,432.568 227.585,441.955 227.954,441.025 242.125,405.229 "/>
	<path d="M 212.896,394.438 L 206.7,433.449 L 231.883,437.449 L 232.04,436.461 L 238.08,398.438 L 212.896,394.438" fill="#000000" points="212.896,394.438 206.7,433.449 231.883,437.449 232.04,436.461 238.08,398.438 "/>
	<path d="M 210.275,428.322 L 212.417,427.085 L 214.559,428.322 L 214.559,430.795 L 212.417,432.031 L 210.275,430.795 L 210.275,428.322" fill="#000000" points="210.275,428.322 212.417,427.085 214.559,428.322 214.559,430.795 212.417,432.031 210.275,430.795   "/>
	<path d="M 217.001,432.031 L 217.001,420.513" fill="#000000" stroke="#1D1D1B" stroke-miterlimit="10" x1="217.001" x2="217.001" y1="432.031" y2="420.513"/>
	<path d="M 223.001,432.031 L 223.001,401.644" fill="#000000" stroke="#1D1D1B" stroke-miterlimit="10" x1="223.001" x2="223.001" y1="432.031" y2="401.644"/>
	<path d="M 225.876,432.031 L 225.876,401.644" fill="#000000" stroke="#1D1D1B" stroke-miterlimit="10" x1="225.876" x2="225.876" y1="432.031" y2="401.644"/>
	<path d="M 207.559,397.729 L 231.059,397.729 L 231.059,435.229 L 207.559,435.229 L 207.559,397.729" fill="#000000" height="37.5" stroke="#1D1D1B" stroke-miterlimit="10" stroke-width="2" width="23.5" x="207.559" y="397.729"/>
</svg>
