<?xml version="1.0" ?>
<svg xmlns="http://www.w3.org/2000/svg" xmlns:ev="http://www.w3.org/2001/xml-events" xmlns:xlink="http://www.w3.org/1999/xlink" baseProfile="full" enable-background="new 0 0 90 90" height="600px" version="1.1" viewBox="0 0 90 90" width="322px" x="0px" xml:space="preserve" y="0px">
	<defs/>
	<path d="M 68.271,40.959 C 68.271,40.959 67.297,35.196000000000005 64.743,31.163000000000004 C 64.56099999999999,30.876000000000005 64.289,30.582000000000004 63.946,30.299000000000003 C 64.06,30.329000000000004 64.14999999999999,30.331000000000003 64.201,30.297000000000004 C 64.27999999999999,30.239000000000004 64.36,30.183000000000003 64.442,30.129000000000005 C 64.58999999999999,30.037000000000006 64.35799999999999,29.609000000000005 63.837999999999994,29.226000000000006 C 62.33599999999999,28.120000000000005 60.31999999999999,27.383000000000006 58.00299999999999,27.435000000000006 C 57.20499999999999,27.449000000000005 56.526999999999994,27.762000000000008 56.54099999999999,27.996000000000006 C 56.54299999999999,28.124000000000006 56.54899999999999,28.254000000000005 56.55899999999999,28.383000000000006 C 56.55899999999999,28.393000000000008 56.56099999999999,28.403000000000006 56.56499999999999,28.409000000000006 C 54.67399999999999,28.474000000000007 54.82099999999999,30.844000000000005 44.99999999999999,30.844000000000005 C 35.178,30.844000000000005 35.32399999999999,28.475000000000005 33.43399999999999,28.409000000000006 C 33.43699999999999,28.402000000000005 33.44099999999999,28.392000000000007 33.44099999999999,28.383000000000006 C 33.44999999999999,28.254000000000005 33.45699999999999,28.124000000000006 33.45899999999999,27.996000000000006 C 33.47299999999999,27.763000000000005 32.79499999999999,27.449000000000005 31.995999999999988,27.435000000000006 C 29.677999999999987,27.383000000000006 27.66299999999999,28.120000000000005 26.160999999999987,29.226000000000006 C 25.640999999999988,29.610000000000007 25.409999999999986,30.038000000000007 25.556999999999988,30.129000000000005 C 25.639999999999986,30.183000000000003 25.718999999999987,30.239000000000004 25.797999999999988,30.297000000000004 C 25.848999999999986,30.331000000000003 25.939999999999987,30.329000000000004 26.05199999999999,30.299000000000003 C 25.70999999999999,30.582000000000004 25.437999999999988,30.876000000000005 25.256999999999987,31.163000000000004 C 22.701999999999988,35.196000000000005 21.727999999999987,40.959 21.727999999999987,40.959 C 20.332999999999988,46.418000000000006 17.965999999999987,61.386 23.83699999999999,62.498000000000005 C 24.48199999999999,62.618 25.15099999999999,62.581 25.83499999999999,62.397000000000006 L 25.83499999999999,62.40200000000001 C 31.53199999999999,61.40100000000001 31.85299999999999,54.24900000000001 44.965999999999994,54.24900000000001 L 45.03399999999999,54.24900000000001 C 58.14699999999999,54.24900000000001 58.46799999999999,61.40100000000001 64.163,62.40200000000001 L 64.163,62.397000000000006 C 64.847,62.581 65.518,62.618 66.163,62.498000000000005 C 72.032,61.386 69.667,46.418 68.271,40.959 M 56.683,28.526 C 56.679,28.527 56.675,28.527 56.671,28.529 L 56.667,28.516 C 56.673,28.521 56.679,28.524 56.683,28.526 M 49.227,37.261 C 49.227,36.620000000000005 49.884,36.101000000000006 50.693,36.101000000000006 L 50.722,36.101000000000006 C 51.533,36.101000000000006 52.189,36.62100000000001 52.189,37.261 L 52.189,37.283 C 52.189,37.923 51.533,38.443 50.722,38.443 L 50.693,38.443 C 49.884,38.443 49.227,37.922 49.227,37.283 L 49.227,37.261 M 38.09,37.261 C 38.09,36.620000000000005 38.745000000000005,36.101000000000006 39.556000000000004,36.101000000000006 L 39.58500000000001,36.101000000000006 C 40.39500000000001,36.101000000000006 41.05100000000001,36.62100000000001 41.05100000000001,37.261 L 41.05100000000001,37.283 C 41.05100000000001,37.923 40.39500000000001,38.443 39.58500000000001,38.443 L 39.556000000000004,38.443 C 38.745000000000005,38.443 38.09,37.922 38.09,37.283 L 38.09,37.261 M 40.879,47.431 L 38.3,47.431 L 38.3,49.998 C 37.894,50.132999999999996 37.461999999999996,50.208 37.012,50.208 C 36.562000000000005,50.208 36.13,50.132999999999996 35.725,49.998 L 35.725,47.431 L 33.146,47.431 C 33.007,47.021 32.928,46.583 32.928,46.125 C 32.928,45.671 33.004999999999995,45.237 33.141999999999996,44.83 L 33.141999999999996,44.855 L 35.724999999999994,44.855 L 35.724999999999994,42.272999999999996 L 35.66499999999999,42.272999999999996 C 36.08699999999999,42.126 36.538999999999994,42.041 37.01199999999999,42.041 C 37.48599999999999,42.041 37.93699999999999,42.126 38.358999999999995,42.272999999999996 L 38.3,42.272999999999996 L 38.3,44.855 L 40.884,44.855 L 40.884,44.830999999999996 C 41.019,45.236999999999995 41.095,45.671 41.095,46.12499999999999 C 41.095,46.583 41.017,47.021 40.879,47.431 M 38.907,49.741 L 38.907,48.04 L 40.617999999999995,48.04 C 40.42699999999999,48.397999999999996 40.184,48.727 39.898999999999994,49.013 C 39.609,49.304 39.273,49.548 38.907,49.741 M 34.125,49.013 C 33.839,48.727 33.597,48.399 33.405,48.04 L 35.117000000000004,48.04 L 35.117000000000004,49.741 C 34.75,49.548 34.415,49.304 34.125,49.013 M 35.117,42.509 L 35.117,44.25 L 33.387,44.25 C 33.581,43.876 33.829,43.533 34.125,43.236 C 34.415,42.947 34.75,42.702 35.117,42.509 M 39.899,43.236 C 40.195,43.532999999999994 40.443,43.876 40.636,44.25 L 38.907000000000004,44.25 L 38.907000000000004,42.509 C 39.273,42.702 39.609,42.947 39.899,43.236 M 33.332,28.517 L 33.329,28.53 C 33.325,28.528000000000002 33.321,28.528000000000002 33.316,28.527 C 33.321,28.524 33.326,28.521 33.332,28.517 M 29.746,40.322 C 27.831,40.322 26.279999999999998,38.769000000000005 26.279999999999998,36.855000000000004 C 26.279999999999998,34.94200000000001 27.830999999999996,33.39 29.746,33.39 C 31.659,33.39 33.211999999999996,34.942 33.211999999999996,36.855000000000004 C 33.212,38.77 31.659,40.322 29.746,40.322 M 45.18,39.896 C 43.745,39.896 42.581,38.732 42.581,37.298 C 42.581,35.862 43.745000000000005,34.699 45.18000000000001,34.699 C 46.61600000000001,34.699 47.77900000000001,35.861999999999995 47.77900000000001,37.298 C 47.778,38.731 46.615,39.896 45.18,39.896 M 52.492,49.591 C 50.577999999999996,49.591 49.027,48.04 49.027,46.125 C 49.027,44.211 50.578,42.66 52.492000000000004,42.66 C 54.407000000000004,42.66 55.958000000000006,44.211 55.958000000000006,46.125 C 55.958,48.04 54.407,49.591 52.492,49.591 M 56.165,38.675 C 55.231,38.675 54.476,37.916999999999994 54.476,36.986999999999995 C 54.476,36.050999999999995 55.232,35.29599999999999 56.165,35.29599999999999 C 57.098,35.29599999999999 57.855,36.05199999999999 57.855,36.986999999999995 C 57.855,37.917 57.099,38.675 56.165,38.675 M 60.195,42.705 C 59.262,42.705 58.505,41.948 58.505,41.016 C 58.505,40.082 59.263000000000005,39.324999999999996 60.195,39.324999999999996 C 61.129,39.324999999999996 61.884,40.083 61.884,41.016 C 61.885,41.948 61.129,42.705 60.195,42.705 M 60.195,34.645 C 59.262,34.645 58.505,33.889 58.505,32.955000000000005 C 58.505,32.022000000000006 59.263000000000005,31.265000000000004 60.195,31.265000000000004 C 61.129,31.265000000000004 61.884,32.023 61.884,32.955000000000005 C 61.885,33.889 61.129,34.645 60.195,34.645 M 64.226,38.675 C 63.292,38.675 62.536,37.916999999999994 62.536,36.986999999999995 C 62.536,36.050999999999995 63.293,35.29599999999999 64.226,35.29599999999999 C 65.15899999999999,35.29599999999999 65.917,36.05199999999999 65.917,36.986999999999995 C 65.917,37.917 65.159,38.675 64.226,38.675"/>
	<path d="M 210.055,395.395 L 207.448,434.809 L 232.893,436.492 L 232.959,435.493 L 235.5,397.077 L 210.055,395.395" fill="#000000" points="210.055,395.395 207.448,434.809 232.893,436.492 232.959,435.493 235.5,397.077 "/>
	<path d="M 218.416,395.842 L 203.876,432.568 L 227.585,441.955 L 227.954,441.025 L 242.125,405.229 L 218.416,395.842" fill="#000000" points="218.416,395.842 203.876,432.568 227.585,441.955 227.954,441.025 242.125,405.229 "/>
	<path d="M 212.896,394.438 L 206.7,433.449 L 231.883,437.449 L 232.04,436.461 L 238.08,398.438 L 212.896,394.438" fill="#000000" points="212.896,394.438 206.7,433.449 231.883,437.449 232.04,436.461 238.08,398.438 "/>
	<path d="M 210.275,428.322 L 212.417,427.085 L 214.559,428.322 L 214.559,430.795 L 212.417,432.031 L 210.275,430.795 L 210.275,428.322" fill="#000000" points="210.275,428.322 212.417,427.085 214.559,428.322 214.559,430.795 212.417,432.031 210.275,430.795   "/>
	<path d="M 217.001,432.031 L 217.001,420.514" fill="#000000" stroke="#1D1D1B" stroke-miterlimit="10" x1="217.001" x2="217.001" y1="432.031" y2="420.514"/>
	<path d="M 223.001,432.031 L 223.001,401.645" fill="#000000" stroke="#1D1D1B" stroke-miterlimit="10" x1="223.001" x2="223.001" y1="432.031" y2="401.645"/>
	<path d="M 225.876,432.031 L 225.876,401.645" fill="#000000" stroke="#1D1D1B" stroke-miterlimit="10" x1="225.876" x2="225.876" y1="432.031" y2="401.645"/>
	<path d="M 207.559,397.729 L 231.059,397.729 L 231.059,435.229 L 207.559,435.229 L 207.559,397.729" fill="#000000" height="37.5" stroke="#1D1D1B" stroke-miterlimit="10" stroke-width="2" width="23.5" x="207.559" y="397.729"/>
</svg>
