<?xml version="1.0" ?>
<svg xmlns="http://www.w3.org/2000/svg" xmlns:ev="http://www.w3.org/2001/xml-events" xmlns:xlink="http://www.w3.org/1999/xlink" baseProfile="full" enable-background="new 0 0 99.999 92.963" height="558px" version="1.1" viewBox="0 0 99.999 92.963" width="600px" x="0px" xml:space="preserve" y="0px">
	<defs/>
	<path d="M 58.771,63.407 C 61.038000000000004,63.407 62.855000000000004,61.57599999999999 62.855000000000004,59.309999999999995 C 62.855000000000004,57.05 61.038000000000004,55.212999999999994 58.771,55.212999999999994 C 56.504,55.212999999999994 54.663000000000004,57.05 54.663000000000004,59.309999999999995 C 54.663,61.576 56.505,63.407 58.771,63.407 M 99.364,92.943 C 75.083,93.303 49.70700000000001,88.65899999999999 30.28200000000001,73.056 L 30.28200000000001,73.056 C 30.15700000000001,72.945 30.10800000000001,72.795 30.10800000000001,72.61999999999999 C 30.10800000000001,72.24699999999999 30.40700000000001,71.96 30.75500000000001,71.96 L 49.906000000000006,71.985 C 50.827000000000005,71.985 51.599000000000004,71.225 51.599000000000004,70.292 C 51.599000000000004,69.595 51.275000000000006,69.109 50.528000000000006,68.735 L 33.220000000000006,60.473 C 32.89600000000001,60.274 32.672000000000004,59.912 32.672000000000004,59.502 C 32.672000000000004,59.190000000000005 32.797000000000004,58.910000000000004 32.996,58.699000000000005 L 32.996,58.699000000000005 C 32.996,58.699000000000005 54.089,40.05800000000001 99.364,40.46900000000001 L 99.364,92.943"/>
	<path d="M 90.112,0.003 C 75.12,0.171 60.44,6.565 43.979,20.069 C 43.362,19.901 42.012,19.54 42.012,19.54 C 39.397,19.54 37.268,21.657 37.268,24.265 C 37.268,24.265 37.455,25.149 37.567,25.691 C 37.063,26.163999999999998 24.262,38.174 24.262,38.174 L 12.949,48.839 C 11.885,49.804 10.515,50.295 9.077,50.227 C 7.645,50.159 6.3309999999999995,49.537 5.379,48.485 C 4.451,47.457 3.997,46.169 3.997,44.88 C 3.997,43.423 4.582,41.973 5.734,40.921 C 5.734,40.921 6.587,40.448 7.234999999999999,40.080999999999996 C 7.372,41.046 7.77,44.00899999999999 7.77,44.00899999999999 L 16.997,32.254999999999995 L 6.817,35.721 C 4.134,36.642999999999994 3.031,37.992999999999995 2.988,38.05 C -0.7410000000000001,41.425 -1.0340000000000003,47.339 2.415,51.155 C 5.883,54.978 11.803999999999998,55.253 15.620000000000001,51.791000000000004 L 15.72,51.667 L 26.448,41.456 C 26.448,41.456 39.69,28.930000000000003 40.120000000000005,28.518 C 40.761,28.686 42.013000000000005,29.004 42.013000000000005,29.004 C 44.61600000000001,29.004 46.732000000000006,26.881 46.732000000000006,24.266000000000002 C 46.732000000000006,24.266000000000002 46.608000000000004,23.575000000000003 46.514,23.077 C 62.433,9.977 76.366,3.764 90.312,3.602 C 93.176,3.5709999999999997 95.467,3.9509999999999996 99.228,4.754 L 99.999,4.922 L 99.999,1.192 L 99.50099999999999,1.0859999999999999 C 95.616,0.258 93.063,-0.034 90.112,0.003"/>
</svg>
