<?xml version="1.0" ?>
<svg xmlns="http://www.w3.org/2000/svg" xmlns:ev="http://www.w3.org/2001/xml-events" xmlns:xlink="http://www.w3.org/1999/xlink" baseProfile="full" enable-background="new 0 0 100 99.942" height="600px" version="1.1" viewBox="0 0 100 99.942" width="600px" x="0px" xml:space="preserve" y="0px">
	<defs/>
	<path d="M 7.094,53.559 L 15.990000000000002,53.559 C 16.666,53.559 17.289,53.897 17.662000000000003,54.451 C 17.662000000000003,54.451 19.358000000000004,57.011 21.050000000000004,59.552 C 21.988000000000003,51.233 25.257000000000005,22.156 25.257000000000005,22.156 C 25.369000000000003,21.197 26.156000000000006,20.439 27.133000000000006,20.383 C 28.104000000000006,20.323 28.973000000000006,20.971 29.198000000000008,21.916 C 29.198000000000008,21.916 33.45900000000001,39.78 35.47500000000001,48.219 C 36.80200000000001,44.468 38.14300000000001,40.668 38.14300000000001,40.668 C 38.42400000000001,39.874 39.17700000000001,39.333999999999996 40.022000000000006,39.33 C 40.86300000000001,39.327 41.624,39.851 41.913000000000004,40.644999999999996 C 41.913000000000004,40.644999999999996 45.870000000000005,51.392999999999994 46.663000000000004,53.559 C 48.666000000000004,53.559 54.385000000000005,53.559 54.385000000000005,53.559 C 55.059000000000005,53.559 55.685,53.897 56.057,54.451 C 56.057,54.451 57.753,57.011 59.444,59.552 C 60.384,51.233 63.652,22.156 63.652,22.156 C 63.761,21.197 64.548,20.439 65.526,20.383 C 66.497,20.323 67.36999999999999,20.971 67.594,21.916 C 67.594,21.916 71.851,39.772000000000006 73.86699999999999,48.219 C 75.19299999999998,44.468 76.53899999999999,40.668 76.53899999999999,40.668 C 76.81899999999999,39.874 77.56799999999998,39.333999999999996 78.41199999999999,39.33 C 79.255,39.327 80.01899999999999,39.851 80.30499999999999,40.644999999999996 C 80.30499999999999,40.644999999999996 84.26599999999999,51.392999999999994 85.05699999999999,53.559 C 86.439,53.559 90.53799999999998,53.559 92.94899999999998,53.559 L 93.36899999999999,52.757 C 97.201,46.162 100.0,33.949 100.0,25.056 C 100.0,13.708 91.741,0.0 75.647,0.0 C 52.649,0.0 49.693,21.544 49.693,21.544 C 49.693,21.544 46.841,0.105 23.857,0.105 C 8.331,0.105 0.0,13.315 0.0,25.056 C 0.0,35.197 4.44,47.713 6.715,52.855000000000004 L 7.094,53.559"/>
	<path d="M 83.658,57.569 C 82.815,57.569 82.065,57.041000000000004 81.777,56.257000000000005 C 81.777,56.257000000000005 80.001,51.434000000000005 78.461,47.248000000000005 C 77.02199999999999,51.333000000000006 75.389,55.961000000000006 75.389,55.961000000000006 C 75.09299999999999,56.800000000000004 74.28399999999999,57.34400000000001 73.395,57.291000000000004 C 72.50699999999999,57.25000000000001 71.75399999999999,56.624 71.551,55.755 C 71.551,55.755 68.685,43.748000000000005 66.358,33.993 C 64.97500000000001,46.281000000000006 62.81700000000001,65.468 62.81700000000001,65.468 C 62.723000000000006,66.3 62.11200000000001,66.99300000000001 61.29200000000001,67.188 C 60.47100000000001,67.387 59.62000000000001,67.053 59.15200000000001,66.35300000000001 C 59.15200000000001,66.35300000000001 54.29200000000001,59.03800000000001 53.30900000000001,57.56900000000001 C 51.63900000000001,57.56900000000001 45.26400000000001,57.56900000000001 45.26400000000001,57.56900000000001 C 44.42500000000001,57.56900000000001 43.67300000000001,57.04100000000001 43.38700000000001,56.25700000000001 C 43.38700000000001,56.25700000000001 41.611000000000004,51.43400000000001 40.071000000000005,47.24800000000001 C 38.62500000000001,51.33300000000001 36.99100000000001,55.96100000000001 36.99100000000001,55.96100000000001 C 36.69500000000001,56.80000000000001 35.88600000000001,57.344000000000015 34.99700000000001,57.29100000000001 C 34.10900000000001,57.250000000000014 33.358000000000004,56.62400000000001 33.14800000000001,55.75500000000001 C 33.14800000000001,55.75500000000001 30.28600000000001,43.74800000000001 27.96300000000001,34.00800000000001 C 26.580000000000013,46.28500000000001 24.42400000000001,65.46800000000002 24.42400000000001,65.46800000000002 C 24.32800000000001,66.30000000000001 23.719000000000012,66.99300000000002 22.90100000000001,67.18800000000002 C 22.08100000000001,67.38700000000001 21.23100000000001,67.05300000000001 20.75900000000001,66.35300000000002 C 20.75900000000001,66.35300000000002 15.899000000000012,59.038000000000025 14.917000000000012,57.569000000000024 C 14.103000000000012,57.569000000000024 11.521000000000011,57.569000000000024 9.272000000000013,57.569000000000024 C 23.650000000000013,83.11600000000003 49.69400000000001,99.94200000000002 49.69400000000001,99.94200000000002 C 49.69400000000001,99.94200000000002 76.21000000000001,83.11200000000002 90.816,57.569000000000024 L 83.658,57.569000000000024 L 83.658,57.569"/>
</svg>
