<?xml version="1.0" ?>
<svg xmlns="http://www.w3.org/2000/svg" xmlns:ev="http://www.w3.org/2001/xml-events" xmlns:xlink="http://www.w3.org/1999/xlink" baseProfile="full" enable-background="new 0 0 100 27.214" height="164px" version="1.1" viewBox="0 0 100 27.214" width="600px" x="0px" xml:space="preserve" y="0px">
	<defs/>
	<path clip-rule="evenodd" d="M 91.304,27.061 C 93.95400000000001,27.061 96.119,24.892 96.119,22.23 C 96.119,21.922 96.084,21.606 96.023,21.309 L 100.0,21.312 L 100.0,0.0 L 56.8,0.0 L 56.8,19.519 L 54.48,19.519 L 54.48,0.0 L 17.505,0.006 L 17.505,3.73 L 12.39,3.73 C 10.297,3.73 9.0,3.73 8.138000000000002,6.6240000000000006 L 6.698000000000002,12.265 L 3.38,12.265 C 1.7469999999999999,12.265 1.7469999999999999,12.265 1.7469999999999999,13.847000000000001 C 1.7469999999999999,16.367 1.7469999999999999,18.895000000000003 1.7469999999999999,21.416 L 0.0,21.416 L 0.0,23.171 L 6.254,23.171 C 6.571999999999999,25.55 8.084,27.179 10.482,27.179 C 12.852,27.179 14.465,25.511 14.997,23.171 L 17.505,23.171 L 17.505,21.416 L 34.171,21.416 C 34.132,21.64 34.116,22.135 34.116,22.378 C 34.116,25.024 36.263,27.179000000000002 38.906,27.179000000000002 C 41.54,27.179000000000002 43.688,25.024 43.688,22.378 C 43.688,22.075 43.649,21.698 43.594,21.416 L 61.647999999999996,21.42 C 61.586,21.731 61.550999999999995,22.064 61.550999999999995,22.394000000000002 C 61.550999999999995,25.048000000000002 63.709999999999994,27.215000000000003 66.359,27.215000000000003 C 69.008,27.215000000000003 71.16199999999999,25.048000000000002 71.16199999999999,22.394000000000005 C 71.16199999999999,22.068000000000005 71.12899999999999,21.561000000000007 71.068,21.250000000000007 L 86.594,21.298000000000005 C 86.535,21.601000000000006 86.5,21.915000000000006 86.5,22.231000000000005 C 86.499,24.892 88.662,27.061 91.304,27.061" fill-rule="evenodd"/>
</svg>
