<?xml version="1.0" ?>
<svg xmlns="http://www.w3.org/2000/svg" xmlns:ev="http://www.w3.org/2001/xml-events" xmlns:xlink="http://www.w3.org/1999/xlink" baseProfile="full" enable-background="new 0 0 100 100" height="600px" version="1.1" viewBox="0 0 100 100" width="468px" x="0px" xml:space="preserve" y="0px">
	<defs/>
	<path d="M 5.468,97.271 C 5.468,98.777 4.245,100.004 2.734,100.004 L 2.734,100.004 C 1.223,100.004 0.0,98.776 0.0,97.271 L 0.0,2.162 C 0.0,0.6519999999999999 1.223,-0.5720000000000001 2.734,-0.5720000000000001 L 2.734,-0.5720000000000001 C 4.245,-0.5720000000000001 5.468,0.6519999999999999 5.468,2.162 L 5.468,97.271"/>
	<path d="M 78.327,53.34 L 1.408,53.34 L 1.408,1.529 L 78.327,1.529 L 78.327,53.34 M 4.06,50.691 L 75.679,50.691 L 75.679,4.18 L 4.06,4.18 L 4.06,50.691"/>
	<path d="M 5.468,3.925 L 17.185000000000002,3.925 L 17.185000000000002,15.640999999999998 L 5.468,15.640999999999998 L 5.468,3.925" height="11.716" width="11.717" x="5.468" y="3.925"/>
	<path d="M 17.156,15.612 L 28.869999999999997,15.612 L 28.869999999999997,27.329 L 17.156,27.329 L 17.156,15.612" height="11.717" width="11.714" x="17.156" y="15.612"/>
	<path d="M 5.468,27.297 L 17.185000000000002,27.297 L 17.185000000000002,39.014 L 5.468,39.014 L 5.468,27.297" height="11.717" width="11.717" x="5.468" y="27.297"/>
	<path d="M 17.156,38.986 L 28.869999999999997,38.986 L 28.869999999999997,50.702 L 17.156,50.702 L 17.156,38.986" height="11.716" width="11.714" x="17.156" y="38.986"/>
	<path d="M 28.87,3.925 L 40.584,3.925 L 40.584,15.640999999999998 L 28.87,15.640999999999998 L 28.87,3.925" height="11.716" width="11.714" x="28.87" y="3.925"/>
	<path d="M 40.563,15.612 L 52.272000000000006,15.612 L 52.272000000000006,27.329 L 40.563,27.329 L 40.563,15.612" height="11.717" width="11.709" x="40.563" y="15.612"/>
	<path d="M 28.87,27.297 L 40.584,27.297 L 40.584,39.014 L 28.87,39.014 L 28.87,27.297" height="11.717" width="11.714" x="28.87" y="27.297"/>
	<path d="M 40.563,38.986 L 52.272000000000006,38.986 L 52.272000000000006,50.702 L 40.563,50.702 L 40.563,38.986" height="11.716" width="11.709" x="40.563" y="38.986"/>
	<path d="M 52.272,3.925 L 63.992999999999995,3.925 L 63.992999999999995,15.640999999999998 L 52.272,15.640999999999998 L 52.272,3.925" height="11.716" width="11.721" x="52.272" y="3.925"/>
	<path d="M 63.966,15.612 L 75.679,15.612 L 75.679,27.329 L 63.966,27.329 L 63.966,15.612" height="11.717" width="11.713" x="63.966" y="15.612"/>
	<path d="M 52.272,27.297 L 63.992999999999995,27.297 L 63.992999999999995,39.014 L 52.272,39.014 L 52.272,27.297" height="11.717" width="11.721" x="52.272" y="27.297"/>
	<path d="M 63.966,38.986 L 75.679,38.986 L 75.679,50.702 L 63.966,50.702 L 63.966,38.986" height="11.716" width="11.713" x="63.966" y="38.986"/>
</svg>
