<?xml version="1.0" ?>
<svg xmlns="http://www.w3.org/2000/svg" xmlns:ev="http://www.w3.org/2001/xml-events" xmlns:xlink="http://www.w3.org/1999/xlink" baseProfile="full" enable-background="new 0 0 100 100" height="600px" version="1.1" viewBox="0 0 100 100" width="185px" x="0px" xml:space="preserve" y="0px">
	<defs/>
	<path d="M 62.709,22.434 L 62.709,23.324 L 59.477000000000004,23.324 L 59.477000000000004,14.142000000000001 L 61.412000000000006,14.142000000000001 L 61.412000000000006,11.692 L 50.335,5.104 L 39.221000000000004,11.638 L 39.221000000000004,14.087 L 41.163000000000004,14.087 L 41.163000000000004,23.269 L 37.932,23.269 L 37.932,22.378999999999998 L 36.549,22.378999999999998 L 36.549,27.828999999999997 C 36.549,27.828999999999997 36.549,28.718999999999998 37.563,28.718999999999998 L 40.434000000000005,28.718999999999998 L 39.79900000000001,40.706999999999994 C 42.94400000000001,41.782 46.43300000000001,42.346 50.065000000000005,42.346 C 50.066,42.346 50.06700000000001,42.346 50.068000000000005,42.346 C 53.867000000000004,42.346 57.56100000000001,41.70099999999999 60.830000000000005,40.519 L 60.20700000000001,28.774 L 63.089000000000006,28.774 C 64.093,28.774 64.093,27.885 64.093,27.885 L 64.093,22.434 L 62.709,22.434 M 43.312,23.276 L 42.21,23.276 L 42.21,14.09 L 43.312,14.09 L 43.312,23.276 M 46.998,23.276 L 44.352,23.276 L 44.352,14.09 L 46.998,14.09 L 46.998,23.276 M 51.609,38.275 L 49.032000000000004,38.275 L 49.032000000000004,32.32 L 51.609,32.32 L 51.609,38.275 M 52.448,23.273 L 48.038,23.273 L 48.038,14.086 L 52.44799999999999,14.086 L 52.44799999999999,23.273 L 52.448,23.273 M 56.131,23.273 L 53.486,23.273 L 53.486,14.086 L 56.131,14.086 L 56.131,23.273 M 58.274,23.273 L 57.171,23.273 L 57.171,14.086 L 58.274,14.086 L 58.274,23.273"/>
	<path d="M 61.474,52.665 C 57.900999999999996,53.737 54.055,54.308 50.068,54.308 C 50.067,54.308 50.065,54.308 50.064,54.308 C 46.287,54.308 42.599000000000004,53.8 39.156,52.82 L 38.501999999999995,65.14 C 42.092999999999996,66.497 45.967,67.185 50.068,67.185 C 54.346999999999994,67.185 58.394,66.425 62.123999999999995,64.937 L 61.474,52.665 M 51.609,63.973 L 49.032000000000004,63.973 L 49.032000000000004,58.018 L 51.609,58.018 L 51.609,63.973"/>
	<path d="M 48.294,85.708 L 52.346,85.708 L 52.346,95.013 L 63.721,95.013 L 62.851,78.605 C 58.8,79.921 54.518,80.589 50.068,80.589 C 45.788,80.589 41.677,79.976 37.78,78.765 L 36.918,95.013 L 48.294,95.013 L 48.294,85.708"/>
	<path d="M 49.032,45.168 L 51.608999999999995,45.168 L 51.608999999999995,51.124 L 49.032,51.124 L 49.032,45.168" fill="#000000" height="5.956" width="2.577" x="49.032" y="45.168"/>
	<path d="M 49.032,70.864 L 51.608999999999995,70.864 L 51.608999999999995,76.82300000000001 L 49.032,76.82300000000001 L 49.032,70.864" fill="#000000" height="5.959" width="2.577" x="49.032" y="70.864"/>
</svg>
