<?xml version="1.0" ?>
<svg xmlns="http://www.w3.org/2000/svg" xmlns:ev="http://www.w3.org/2001/xml-events" xmlns:xlink="http://www.w3.org/1999/xlink" baseProfile="full" enable-background="new 0 0 100 100" height="600px" version="1.1" viewBox="0 0 100 100" width="450px" x="0px" xml:space="preserve" y="0px">
	<defs/>
	<path d="M 50.861,77.41 C 50.897999999999996,77.316 50.934999999999995,77.22 50.979,77.104 C 51.179,76.529 51.448,75.706 51.704,74.718 C 52.24,72.742 52.686,70.107 52.895,67.468 C 53.006,66.149 53.057,64.827 53.07,63.59 C 53.068,62.352000000000004 52.882,61.194 52.589,60.199000000000005 C 52.299,59.206 51.865,58.374 51.522999999999996,57.793000000000006 C 51.163999999999994,57.211000000000006 50.864,56.87700000000001 50.864,56.87700000000001 L 50.168,56.86900000000001 C 53.588,56.86500000000001 56.351,56.45400000000001 56.351,53.13600000000001 C 56.351,51.28200000000001 55.486,50.45400000000001 54.126999999999995,50.08500000000001 C 54.288,49.67500000000001 54.504999999999995,49.141000000000005 54.775999999999996,48.50300000000001 C 55.449,47.65200000000001 55.928999999999995,46.635000000000005 56.12499999999999,45.504000000000005 C 57.91899999999999,41.697 60.71399999999999,36.476000000000006 64.46,31.605000000000004 C 71.157,22.897000000000006 81.23499999999999,15.446000000000005 76.42599999999999,15.280000000000005 C 71.07199999999999,15.092000000000004 55.80299999999998,15.195000000000004 41.554999999999986,15.277000000000005 C 35.03899999999999,15.316000000000004 28.734999999999985,15.349000000000004 23.691999999999986,15.349000000000004 C 18.956999999999987,15.349000000000004 27.453999999999986,22.494000000000003 34.298999999999985,31.295 C 38.25099999999998,36.375 41.701999999999984,41.983000000000004 43.966999999999985,45.916000000000004 C 44.262999999999984,47.164 44.89199999999998,48.266000000000005 45.758999999999986,49.117000000000004 C 45.95299999999999,49.475 46.11999999999998,49.785000000000004 46.26099999999999,50.04900000000001 C 44.82099999999999,50.401 43.89399999999999,51.217000000000006 43.89399999999999,53.13600000000001 C 43.89399999999999,56.40300000000001 46.57499999999999,56.85000000000001 49.91799999999999,56.86600000000001 L 49.626999999999995,56.86200000000001 C 49.626999999999995,56.86200000000001 49.318999999999996,57.18900000000001 48.94799999999999,57.76200000000001 C 48.59199999999999,58.336000000000006 48.135999999999996,59.15700000000001 47.82399999999999,60.14300000000001 C 47.50899999999999,61.13000000000001 47.29499999999999,62.28300000000001 47.26499999999999,63.522000000000006 C 47.24799999999999,64.759 47.267999999999994,66.08200000000001 47.349,67.402 C 47.495999999999995,70.047 47.882,72.69200000000001 48.37,74.679 C 48.602999999999994,75.672 48.852,76.5 49.041,77.08 C 49.084999999999994,77.204 49.123,77.31099999999999 49.160999999999994,77.413 C 38.525999999999996,77.597 30.325999999999993,80.794 30.325999999999993,84.854 C 30.325999999999993,86.191 31.172999999999995,87.119 32.839999999999996,87.612 C 34.081999999999994,87.979 35.840999999999994,88.142 38.54,88.142 C 40.052,88.142 41.737,88.094 43.548,88.03999999999999 C 45.686,87.97699999999999 47.897000000000006,87.913 50.243,87.913 C 52.598,87.913 54.899,87.97999999999999 56.929,88.03999999999999 C 58.716,88.094 60.372,88.142 61.856,88.142 C 65.756,88.142 69.917,87.88799999999999 69.917,84.854 C 69.916,80.769 61.603,77.554 50.861,77.41" fill="#000000" stroke="#000000" stroke-miterlimit="10"/>
	<path d="M 50.861,77.41 C 50.897999999999996,77.316 50.934999999999995,77.22 50.979,77.104 C 51.179,76.529 51.448,75.706 51.704,74.718 C 52.24,72.742 52.686,70.107 52.895,67.468 C 53.006,66.149 53.057,64.827 53.07,63.59 C 53.068,62.352000000000004 52.882,61.194 52.589,60.199000000000005 C 52.299,59.206 51.865,58.374 51.522999999999996,57.793000000000006 C 51.163999999999994,57.211000000000006 50.864,56.87700000000001 50.864,56.87700000000001 L 50.168,56.86900000000001 C 53.588,56.86500000000001 56.351,56.45400000000001 56.351,53.13600000000001 C 56.351,51.28200000000001 55.486,50.45400000000001 54.126999999999995,50.08500000000001 C 54.288,49.67500000000001 54.504999999999995,49.141000000000005 54.775999999999996,48.50300000000001 C 55.449,47.65200000000001 55.928999999999995,46.635000000000005 56.12499999999999,45.504000000000005 C 57.91899999999999,41.697 60.71399999999999,36.476000000000006 64.46,31.605000000000004 C 71.157,22.897000000000006 81.23499999999999,15.446000000000005 76.42599999999999,15.280000000000005 C 71.07199999999999,15.092000000000004 55.80299999999998,15.195000000000004 41.554999999999986,15.277000000000005 C 35.03899999999999,15.316000000000004 28.734999999999985,15.349000000000004 23.691999999999986,15.349000000000004 C 18.956999999999987,15.349000000000004 27.453999999999986,22.494000000000003 34.298999999999985,31.295 C 38.25099999999998,36.375 41.701999999999984,41.983000000000004 43.966999999999985,45.916000000000004 C 44.262999999999984,47.164 44.89199999999998,48.266000000000005 45.758999999999986,49.117000000000004 C 45.95299999999999,49.475 46.11999999999998,49.785000000000004 46.26099999999999,50.04900000000001 C 44.82099999999999,50.401 43.89399999999999,51.217000000000006 43.89399999999999,53.13600000000001 C 43.89399999999999,56.40300000000001 46.57499999999999,56.85000000000001 49.91799999999999,56.86600000000001 L 49.626999999999995,56.86200000000001 C 49.626999999999995,56.86200000000001 49.318999999999996,57.18900000000001 48.94799999999999,57.76200000000001 C 48.59199999999999,58.336000000000006 48.135999999999996,59.15700000000001 47.82399999999999,60.14300000000001 C 47.50899999999999,61.13000000000001 47.29499999999999,62.28300000000001 47.26499999999999,63.522000000000006 C 47.24799999999999,64.759 47.267999999999994,66.08200000000001 47.349,67.402 C 47.495999999999995,70.047 47.882,72.69200000000001 48.37,74.679 C 48.602999999999994,75.672 48.852,76.5 49.041,77.08 C 49.084999999999994,77.204 49.123,77.31099999999999 49.160999999999994,77.413 C 38.525999999999996,77.597 30.325999999999993,80.794 30.325999999999993,84.854 C 30.325999999999993,86.191 31.172999999999995,87.119 32.839999999999996,87.612 C 34.081999999999994,87.979 35.840999999999994,88.142 38.54,88.142 C 40.052,88.142 41.737,88.094 43.548,88.03999999999999 C 45.686,87.97699999999999 47.897000000000006,87.913 50.243,87.913 C 52.598,87.913 54.899,87.97999999999999 56.929,88.03999999999999 C 58.716,88.094 60.372,88.142 61.856,88.142 C 65.756,88.142 69.917,87.88799999999999 69.917,84.854 C 69.916,80.769 61.603,77.554 50.861,77.41" fill="#000000"/>
	<path d="M 43.503,41.12 C 43.503,44.708 46.412,47.616 49.999,47.616 C 53.587,47.616 56.496,44.708 56.496,41.12 C 56.496,37.532 53.587,34.623 49.999,34.623 C 48.369,34.623 46.881,35.223 45.74,36.214 C 44.369,37.405 43.503,39.161 43.503,41.12" fill="#000000" stroke="#121211" stroke-miterlimit="10"/>
	<path d="M 43.503,41.12 C 43.503,44.708 46.412,47.616 49.999,47.616 C 53.587,47.616 56.496,44.708 56.496,41.12 C 56.496,37.532 53.587,34.623 49.999,34.623 C 48.369,34.623 46.881,35.223 45.74,36.214 C 44.369,37.405 43.503,39.161 43.503,41.12" fill="#000000"/>
	<path d="M 46.599,35.587 L 38.256,14.297 L 59.705,14.175" fill="#000000" stroke="#FDFBFB" stroke-miterlimit="10"/>
	<path d="M 46.599,35.587 L 38.256,14.297 L 59.705,14.175" fill="#000000" points="46.599,35.587 38.256,14.297 59.705,14.175      "/>
	<path d="M 52.72,35.583 L 60.272,14.178" fill="#000000" points="46.599,35.587 38.256,14.297 59.705,14.175      " stroke="#FDFBFB" stroke-miterlimit="10"/>
	<path d="M 52.72,35.583 L 60.272,14.178" fill="#000000" x1="52.72" x2="60.272" y1="35.583" y2="14.178"/>
</svg>
