<?xml version="1.0" ?>
<svg xmlns="http://www.w3.org/2000/svg" xmlns:a="http://ns.adobe.com/AdobeSVGViewerExtensions/3.0/" xmlns:ev="http://www.w3.org/2001/xml-events" xmlns:graph="http://ns.adobe.com/Graphs/1.0/" xmlns:i="http://ns.adobe.com/AdobeIllustrator/10.0/" xmlns:x="http://ns.adobe.com/Extensibility/1.0/" xmlns:xlink="http://www.w3.org/1999/xlink" baseProfile="full" enable-background="new 0 0 100 100" height="228px" version="1.1" viewBox="0 0 100 100" width="600px" x="0px" xml:space="preserve" y="0px">
	<defs/>
	<path d="M 55.995,63.401 L 41.023,63.401 L 41.023,53.003 C 39.631,52.715 38.584,51.481 38.584,50.003 C 38.584,48.525 39.631,47.293 41.023,47.004 L 41.023,36.599 L 52.144000000000005,36.599 L 55.996,36.599 L 59.598,36.599 L 59.598,36.348 C 59.598,34.498 58.098,32.998 56.248,32.998 L 40.771,32.998 C 38.921,32.998 37.42,34.498 37.42,36.348 L 37.42,63.653 C 37.42,65.504 38.92,67.004 40.771,67.004 L 56.247,67.004 C 58.097,67.004 59.597,65.504 59.597,63.653000000000006 L 59.597,63.388000000000005 L 55.995000000000005,63.388000000000005 L 55.995000000000005,63.401 L 55.995,63.401"/>
	<path d="M 85.861,50.003 C 85.861,43.787 80.821,38.748 74.605,38.748 L 42.348,38.748 L 42.348,46.923 L 42.348,47.593 L 45.391999999999996,47.593 C 45.916,47.18000000000001 46.56999999999999,46.923 47.288,46.923 C 48.989999999999995,46.923 50.367999999999995,48.302 50.367999999999995,50.003 C 50.367999999999995,51.705 48.989999999999995,53.084 47.288,53.084 C 46.568999999999996,53.084 45.916,52.827000000000005 45.391999999999996,52.414 L 42.348,52.414 L 42.348,53.084 L 42.348,61.259 L 74.60499999999999,61.259 C 80.821,61.259 85.861,56.22 85.861,50.003 M 63.721,53.084 C 62.019999999999996,53.084 60.63999999999999,51.705000000000005 60.63999999999999,50.003 C 60.63999999999999,48.302 62.019999999999996,46.923 63.721,46.923 C 65.422,46.923 66.801,48.302 66.801,50.003 C 66.801,51.705 65.422,53.084 63.721,53.084"/>
	<path d="M 39.749,50.003 C 39.749,51.01 40.564,51.825 41.571000000000005,51.825 L 48.788000000000004,51.825 C 49.166000000000004,51.314 49.396,50.688 49.396,50.003 C 49.396,49.319 49.166000000000004,48.692 48.788000000000004,48.181 L 41.571000000000005,48.181 C 40.564,48.182 39.749,48.997 39.749,50.003"/>
	<path d="M 5.0,61.259 L 35.973,61.259 L 35.973,38.748 L 5.0,38.748 L 5.0,61.259 M 30.857,46.923 C 32.559,46.923 33.938,48.302 33.938,50.003 C 33.938,51.705 32.559000000000005,53.084 30.857000000000003,53.084 C 29.157000000000004,53.084 27.777,51.705000000000005 27.777,50.003 C 27.777,48.303 29.157,46.923 30.857,46.923 M 14.426,46.923 C 16.128,46.923 17.507,48.302 17.507,50.003 C 17.507,51.705 16.128,53.084 14.426000000000002,53.084 C 12.725000000000001,53.084 11.346000000000002,51.705000000000005 11.346000000000002,50.003 C 11.346,48.303 12.726,46.923 14.426,46.923"/>
	<path d="M 81.455,38.748 C 85.405,40.948 88.081,45.161 88.081,50.003 C 88.081,54.845 85.405,59.058 81.455,61.258 L 95.0,61.258 L 95.0,38.748 L 81.455,38.748"/>
</svg>
