<?xml version="1.0" ?>
<svg xmlns="http://www.w3.org/2000/svg" xmlns:ev="http://www.w3.org/2001/xml-events" xmlns:xlink="http://www.w3.org/1999/xlink" baseProfile="full" enable-background="new 0 0 100 100" height="600px" version="1.1" viewBox="0 0 100 100" width="572px" x="0px" xml:space="preserve" y="0px">
	<defs/>
	<path clip-rule="evenodd" d="M 57.982,14.233 L 57.388999999999996,12.045 L 60.76199999999999,15.992 L 60.76199999999999,17.689 C 63.28399999999999,18.766 65.362,20.394 66.99799999999999,22.575 C 66.27499999999999,22.398 65.60099999999998,22.247999999999998 64.97299999999998,22.125 C 63.719999999999985,21.879 63.304999999999986,21.914 63.72699999999998,22.228 C 64.18999999999998,22.595000000000002 65.04799999999999,24.075000000000003 66.30299999999998,26.665000000000003 C 67.48999999999998,29.159000000000002 68.19799999999998,30.884000000000004 68.42899999999999,31.837000000000003 C 68.60699999999999,32.574000000000005 68.30799999999999,34.80200000000001 67.53099999999999,38.524 C 67.14899999999999,40.391 66.74799999999999,42.177 66.324,43.881 L 65.874,44.616 C 65.71199999999999,45.053 66.00399999999999,45.147 66.753,44.902 C 67.49,44.657000000000004 67.946,44.917 68.123,45.68 C 68.218,46.074 68.238,46.491 68.185,46.926 L 66.794,51.772000000000006 C 65.826,55.057 65.199,56.85000000000001 64.91199999999999,57.151 C 64.61299999999999,57.449000000000005 64.163,57.470000000000006 63.56199999999999,57.211000000000006 C 63.24899999999999,57.13 63.07199999999999,56.925000000000004 63.02999999999999,56.598000000000006 L 63.112999999999985,57.51800000000001 C 63.09899999999998,58.48700000000001 62.98299999999998,59.60600000000001 62.764999999999986,60.87200000000001 C 62.533999999999985,62.141000000000005 61.85799999999999,63.638000000000005 60.74199999999998,65.37 L 58.572999999999986,67.90700000000001 C 58.164999999999985,69.52900000000001 57.90499999999999,70.51500000000001 57.79699999999998,70.87100000000001 C 57.755999999999986,70.87100000000001 57.734999999999985,70.891 57.734999999999985,70.93200000000002 C 57.70899999999998,71.08100000000002 57.72699999999998,71.06200000000001 57.79699999999998,70.87100000000001 C 58.04199999999998,70.88600000000001 59.07899999999998,71.81800000000001 60.90399999999998,73.671 C 61.96799999999998,74.72300000000001 63.01699999999998,75.80600000000001 64.05299999999998,76.924 C 79.46899999999998,82.063 89.50899999999999,85.34 94.17099999999998,86.75900000000001 L 94.17099999999998,94.59000000000002 L 6.333,94.59000000000002 L 6.333,91.40000000000002 C 7.655,91.01800000000001 8.951,90.67700000000002 10.218,90.37900000000002 C 11.281,89.54800000000002 14.369,87.80200000000002 19.48,85.14400000000002 C 21.96,83.83600000000001 24.353,82.60800000000002 26.657,81.46300000000002 C 26.657,81.21700000000003 26.657,80.93900000000002 26.657,80.62600000000002 C 26.657,78.84000000000002 27.372,77.17600000000002 28.803,75.63800000000002 C 29.512,74.87100000000002 30.220000000000002,74.28800000000003 30.93,73.87700000000002 C 31.541999999999998,73.29000000000002 31.986,72.56700000000002 32.258,71.70900000000002 C 32.476000000000006,71.02700000000002 32.701,70.57900000000002 32.933,70.36100000000002 C 32.375,69.01100000000002 31.598,67.94100000000002 30.603,67.14900000000002 C 28.953000000000003,65.81300000000002 27.788,63.503000000000014 27.105,60.219000000000015 C 26.887,59.18100000000002 26.73,58.118000000000016 26.635,57.02900000000002 L 26.573,55.679000000000016 C 25.606,56.02000000000002 24.931,56.13600000000002 24.55,56.027000000000015 C 24.168,55.91800000000001 23.616,54.39800000000002 22.894000000000002,51.46700000000001 C 22.103,48.29100000000001 21.783,45.735000000000014 21.933000000000003,43.799000000000014 C 22.069000000000003,42.01300000000001 22.676000000000002,41.15400000000001 23.752000000000002,41.22300000000001 C 24.284000000000002,41.265000000000015 24.794000000000004,41.48300000000001 25.286,41.87700000000002 C 24.945,40.80000000000002 24.591,39.61400000000002 24.222,38.31900000000002 C 23.487000000000002,35.743000000000016 23.085,33.698000000000015 23.017000000000003,32.18500000000002 C 22.948000000000004,30.740000000000016 23.725,28.552000000000017 25.348000000000003,25.621000000000016 C 25.743000000000002,24.913000000000018 26.267000000000003,23.986000000000015 26.922000000000004,22.840000000000018 C 27.344000000000005,22.03600000000002 27.501000000000005,21.580000000000016 27.392000000000003,21.470000000000017 C 27.216000000000005,21.279000000000018 27.216000000000005,21.035000000000018 27.392000000000003,20.734000000000016 C 27.651000000000003,20.312000000000015 27.795,20.026000000000018 27.822000000000003,19.876000000000015 C 27.889000000000003,19.372000000000014 28.483000000000004,18.840000000000014 29.601000000000003,18.280000000000015 C 30.052000000000003,18.049000000000014 32.212,16.869000000000014 36.082,14.744000000000016 L 36.491,14.150000000000016 L 35.407,13.475000000000016 L 34.650999999999996,12.126000000000015 L 34.05799999999999,10.613000000000016 L 37.43099999999999,11.328000000000015 L 36.67399999999999,11.122000000000016 L 38.023999999999994,10.858000000000017 C 38.35099999999999,10.516000000000016 38.459999999999994,10.346000000000016 38.35099999999999,10.346000000000016 L 38.43299999999999,9.609000000000016 L 39.02499999999999,10.018000000000017 L 39.53699999999999,9.855000000000016 L 40.02799999999999,8.914000000000016 L 40.273999999999994,9.568000000000016 C 40.462999999999994,10.073000000000016 40.669,10.529000000000016 40.88699999999999,10.938000000000017 C 41.077999999999996,11.320000000000016 41.24799999999999,11.545000000000016 41.398999999999994,11.613000000000017 C 41.67099999999999,11.736000000000017 41.888999999999996,11.879000000000017 42.05199999999999,12.042000000000018 C 42.33999999999999,12.315000000000017 42.58399999999999,12.396000000000017 42.788999999999994,12.288000000000018 C 42.88499999999999,12.234000000000018 42.952999999999996,12.152000000000019 42.992999999999995,12.042000000000018 C 42.706999999999994,11.538000000000018 42.419999999999995,11.143000000000018 42.135,10.857000000000017 C 41.972,10.679000000000016 41.821999999999996,10.386000000000017 41.684999999999995,9.977000000000016 L 41.562,9.425000000000017 L 42.992999999999995,10.017000000000017 L 44.26199999999999,11.121000000000016 L 45.773999999999994,11.204000000000017 L 45.099999999999994,10.284000000000017 C 45.099999999999994,9.944000000000017 44.95499999999999,9.631000000000016 44.67099999999999,9.344000000000017 C 44.492999999999995,9.166000000000016 44.76599999999999,9.255000000000017 45.48799999999999,9.609000000000018 C 45.84299999999999,9.787000000000019 46.21799999999999,9.984000000000018 46.61299999999999,10.203000000000017 L 47.45099999999999,10.284000000000017 L 47.980999999999995,10.509000000000016 C 48.376999999999995,10.727000000000016 48.730999999999995,10.959000000000016 49.044999999999995,11.204000000000017 C 49.373999999999995,11.450000000000017 49.596999999999994,11.299000000000017 49.71999999999999,10.754000000000017 C 49.81499999999999,10.072000000000017 49.87699999999999,9.656000000000017 49.90299999999999,9.507000000000017 C 49.93099999999999,9.329000000000017 50.148999999999994,9.179000000000018 50.55799999999999,9.056000000000017 C 50.760999999999996,9.002000000000017 50.958999999999996,8.954000000000017 51.14999999999999,8.913000000000016 L 52.51999999999999,11.204000000000017 C 52.682999999999986,11.477000000000016 53.01699999999999,11.954000000000017 53.52099999999999,12.635000000000016 L 53.829999999999984,12.390000000000017 C 54.03299999999999,12.199000000000016 54.100999999999985,12.001000000000017 54.03299999999999,11.796000000000017 L 53.17499999999999,9.179000000000016 L 53.48199999999999,9.221000000000016 C 53.71399999999999,9.302000000000016 53.92499999999999,9.487000000000016 54.11599999999999,9.773000000000016 C 54.388999999999996,10.209000000000016 55.035999999999994,11.299000000000015 56.05899999999999,13.044000000000015 L 57.22299999999999,15.068000000000016 L 57.982,14.233" display="inline" fill="#000000" fill-rule="evenodd"/>
	<path clip-rule="evenodd" d="M 57.809,20.904 L 57.297999999999995,19.016 L 60.205999999999996,22.419999999999998 L 60.205999999999996,23.883 C 62.382,24.811999999999998 64.17399999999999,26.216 65.585,28.097 C 64.96199999999999,27.945 64.38,27.816000000000003 63.837999999999994,27.709 C 62.757999999999996,27.497 62.39999999999999,27.527 62.763999999999996,27.798 C 63.163,28.113999999999997 63.903,29.391 64.98599999999999,31.624 C 66.008,33.775 66.61899999999999,35.263 66.81899999999999,36.085 C 66.972,36.72 66.71499999999999,38.642 66.04499999999999,41.853 C 65.716,43.463 65.36999999999999,45.003 65.00399999999999,46.473 L 64.615,47.107 C 64.475,47.484 64.72699999999999,47.565 65.374,47.354 C 66.009,47.143 66.40299999999999,47.367 66.55499999999999,48.025 C 66.63699999999999,48.364 66.65499999999999,48.724 66.61,49.099 L 65.411,53.278999999999996 C 64.57600000000001,56.111 64.036,57.657999999999994 63.787,57.916999999999994 C 63.53,58.175 63.141,58.193 62.624,57.968999999999994 C 62.353,57.898999999999994 62.201,57.72299999999999 62.165,57.440999999999995 L 62.236,58.233999999999995 C 62.224,59.068999999999996 62.123999999999995,60.035 61.936,61.126999999999995 C 61.737,62.221 61.153999999999996,63.51199999999999 60.192,65.006 L 58.321,67.194 C 57.967999999999996,68.592 57.745,69.443 57.650999999999996,69.75 C 57.616,69.75 57.596999999999994,69.767 57.596999999999994,69.803 C 57.574999999999996,69.931 57.590999999999994,69.914 57.650999999999996,69.75 C 57.861999999999995,69.763 58.757,70.567 60.330999999999996,72.165 C 61.248999999999995,73.07100000000001 62.153999999999996,74.006 63.047999999999995,74.97000000000001 C 76.341,79.401 85.0,82.229 89.021,83.453 L 89.021,90.206 L 13.265,90.206 L 13.265,87.455 C 14.406,87.125 15.522,86.832 16.615000000000002,86.573 C 17.532000000000004,85.857 20.195,84.35 24.603,82.05799999999999 C 26.743000000000002,80.92999999999999 28.806,79.86999999999999 30.793000000000003,78.88399999999999 C 30.793000000000003,78.67099999999999 30.793000000000003,78.43099999999998 30.793000000000003,78.16099999999999 C 30.793000000000003,76.62099999999998 31.410000000000004,75.18499999999999 32.644000000000005,73.85799999999999 C 33.25600000000001,73.198 33.867000000000004,72.695 34.479000000000006,72.33999999999999 C 35.007000000000005,71.83299999999998 35.39000000000001,71.21099999999998 35.62500000000001,70.46999999999998 C 35.81300000000001,69.88299999999998 36.007000000000005,69.49599999999998 36.20700000000001,69.30799999999998 C 35.726000000000006,68.14399999999998 35.05500000000001,67.22099999999998 34.19800000000001,66.53699999999998 C 32.775000000000006,65.38499999999998 31.770000000000007,63.391999999999975 31.181000000000008,60.56099999999998 C 30.99300000000001,59.665999999999976 30.858000000000008,58.74899999999998 30.776000000000007,57.808999999999976 L 30.723000000000006,56.644999999999975 C 29.889000000000006,56.93899999999997 29.307000000000006,57.03999999999998 28.978000000000005,56.94499999999997 C 28.648000000000007,56.85099999999997 28.172000000000004,55.54099999999997 27.549000000000007,53.01299999999997 C 26.867000000000008,50.27299999999997 26.590000000000007,48.06899999999997 26.720000000000006,46.39999999999997 C 26.838000000000005,44.85899999999997 27.361000000000004,44.11899999999997 28.289000000000005,44.17799999999997 C 28.747000000000003,44.21399999999997 29.188000000000006,44.401999999999965 29.612000000000005,44.74199999999997 C 29.318000000000005,43.81299999999997 29.012000000000004,42.79099999999997 28.695000000000004,41.67399999999997 C 28.061000000000003,39.452999999999975 27.714000000000002,37.68899999999997 27.655000000000005,36.38399999999997 C 27.595000000000006,35.13799999999997 28.266000000000005,33.24999999999997 29.666000000000004,30.72299999999997 C 30.006000000000004,30.11199999999997 30.458000000000006,29.31299999999997 31.023000000000003,28.32499999999997 C 31.387000000000004,27.63199999999997 31.523000000000003,27.23799999999997 31.428000000000004,27.142999999999972 C 31.276000000000003,26.977999999999973 31.276000000000003,26.767999999999972 31.428000000000004,26.508999999999972 C 31.651000000000003,26.14499999999997 31.775000000000006,25.89799999999997 31.798000000000005,25.767999999999972 C 31.856000000000005,25.332999999999974 32.36900000000001,24.87499999999997 33.33200000000001,24.39199999999997 C 33.72100000000001,24.19299999999997 35.58400000000001,23.17599999999997 38.92200000000001,21.34299999999997 L 39.27500000000001,20.82999999999997 L 38.34000000000001,20.24799999999997 L 37.68900000000001,19.08499999999997 L 37.17700000000001,17.77999999999997 L 40.086000000000006,18.39699999999997 L 39.434000000000005,18.21999999999997 L 40.599000000000004,17.99199999999997 C 40.881,17.696999999999967 40.975,17.55099999999997 40.881,17.55099999999997 L 40.952,16.91599999999997 L 41.461999999999996,17.26899999999997 L 41.903,17.12799999999997 L 42.327,16.31599999999997 L 42.539,16.87999999999997 C 42.702,17.31599999999997 42.879000000000005,17.70899999999997 43.067,18.06199999999997 C 43.232,18.391999999999967 43.379,18.58499999999997 43.508,18.64399999999997 C 43.743,18.74999999999997 43.931000000000004,18.87399999999997 44.072,19.01399999999997 C 44.32,19.24999999999997 44.531000000000006,19.319999999999972 44.707,19.22599999999997 C 44.789,19.17999999999997 44.849000000000004,19.10899999999997 44.883,19.01399999999997 C 44.636,18.578999999999972 44.389,18.238999999999972 44.142,17.99299999999997 C 44.001000000000005,17.83999999999997 43.872,17.58699999999997 43.754000000000005,17.23399999999997 L 43.648,16.75799999999997 L 44.883,17.26899999999997 L 45.977000000000004,18.220999999999968 L 47.281000000000006,18.29199999999997 L 46.699,17.5 C 46.699,17.207 46.574999999999996,16.937 46.329,16.689 C 46.175,16.536 46.412,16.612 47.033,16.918 C 47.34,17.070999999999998 47.663000000000004,17.242 48.004,17.43 L 48.727999999999994,17.499 L 49.184999999999995,17.694 C 49.526999999999994,17.881999999999998 49.831999999999994,18.081 50.102,18.293 C 50.385999999999996,18.505 50.57899999999999,18.375 50.684999999999995,17.904999999999998 C 50.766999999999996,17.316999999999997 50.81999999999999,16.958 50.84199999999999,16.83 C 50.86599999999999,16.677 51.05499999999999,16.546999999999997 51.40699999999999,16.441 C 51.58199999999999,16.395 51.752999999999986,16.354 51.91799999999999,16.317999999999998 L 53.099999999999994,18.293 C 53.24099999999999,18.528 53.528999999999996,18.939999999999998 53.962999999999994,19.527 L 54.23,19.316000000000003 C 54.403999999999996,19.151000000000003 54.462999999999994,18.981 54.403999999999996,18.803 L 53.665,16.546 L 53.93,16.582 C 54.13,16.652 54.312,16.811 54.476,17.058 C 54.711999999999996,17.433 55.269999999999996,18.374 56.153,19.879 L 57.157,21.625 L 57.809,20.904" fill="#000000" fill-rule="evenodd"/>
	<path clip-rule="evenodd" d="M 92.173,78.231 C 92.173,85.19399999999999 86.527,90.839 79.565,90.839 L 21.942,90.839 C 14.978,90.839 9.333,85.193 9.333,78.231 L 9.333,20.609 C 9.333,13.645 14.979,8.0 21.942,8.0 L 79.564,8.0 C 86.52699999999999,8.0 92.172,13.645 92.172,20.609 L 92.172,78.231 L 92.173,78.231" fill="#000000" fill-rule="evenodd" stroke="#010101" stroke-miterlimit="10" stroke-width="6"/>
	<path clip-rule="evenodd" d="M 89.332,38.0 L 87.28699999999999,39.589 L 89.993,40.027 L 91.78699999999999,38.584 L 89.332,38.0 M 84.482,40.139 C 81.256,39.407000000000004 77.501,39.407000000000004 73.214,40.139 C 68.929,40.871 65.157,42.040000000000006 61.902,43.645 C 58.644,45.249 57.012,47.331 57.005,49.886 C 56.997,52.052 57.761,54.362 59.296,56.817 C 59.967,57.969 61.332,59.123 63.393,60.276 C 65.45400000000001,61.42900000000001 68.868,61.737 73.637,61.2 C 76.94800000000001,60.436 79.648,59.131 81.736,57.284000000000006 C 83.833,55.43000000000001 85.62,52.294000000000004 87.101,47.876000000000005 C 88.588,43.45 87.716,40.872 84.482,40.139 M 53.457,43.424 C 59.278,40.635 65.451,38.555 71.977,37.182 C 78.833,36.091 85.69,35.663000000000004 92.547,35.896 C 95.172,36.489000000000004 95.691,37.984 94.101,40.385 L 93.715,40.841 C 93.26400000000001,41.293 92.765,41.663000000000004 92.21900000000001,41.951 C 91.77600000000001,42.403 91.40100000000001,43.198 91.09700000000001,44.336 C 90.045,49.198 88.03500000000001,53.358 85.06700000000001,56.818 C 83.018,59.28 80.19300000000001,61.165 76.593,62.474 C 75.456,62.870999999999995 74.39200000000001,63.178999999999995 73.403,63.397 C 72.414,63.608 70.536,63.616 67.77000000000001,63.421 C 61.65300000000001,62.711 57.80800000000001,60.472 56.23400000000001,56.7 C 54.66900000000001,52.929 54.22700000000001,50.318000000000005 54.91300000000001,48.869 C 55.16300000000001,47.888 54.57900000000001,47.459 53.16100000000001,47.584 C 51.345000000000006,47.867000000000004 49.537000000000006,47.867000000000004 47.73700000000001,47.584 C 46.31800000000001,47.456 45.73400000000001,47.885000000000005 45.98400000000001,48.869 C 46.67200000000001,50.315 46.229000000000006,52.926 44.65800000000001,56.7 C 43.086000000000006,60.474000000000004 39.24300000000001,62.715 33.12800000000001,63.42100000000001 C 30.35900000000001,63.611000000000004 28.482000000000006,63.602000000000004 27.495000000000008,63.392 C 26.50800000000001,63.181000000000004 25.44400000000001,62.875 24.30400000000001,62.474000000000004 C 20.707000000000008,61.166000000000004 17.88200000000001,59.281000000000006 15.831000000000008,56.818000000000005 C 12.864000000000008,53.361000000000004 10.854000000000008,49.20100000000001 9.800000000000008,44.336000000000006 C 9.497000000000007,43.19800000000001 9.121000000000008,42.403000000000006 8.673000000000007,41.95100000000001 C 8.129000000000007,41.66300000000001 7.632000000000007,41.293000000000006 7.1820000000000075,40.84100000000001 L 6.796000000000007,40.385000000000005 C 5.2060000000000075,37.983000000000004 5.724000000000007,36.487 8.351000000000008,35.89600000000001 C 15.207000000000008,35.66000000000001 22.064000000000007,36.089000000000006 28.921000000000006,37.18200000000001 C 35.51200000000001,38.57000000000001 41.745000000000005,40.67500000000001 47.620000000000005,43.49900000000001 C 48.612,43.68700000000001 49.587,43.78600000000001 50.543000000000006,43.79700000000001 C 51.364000000000004,43.808000000000014 52.282000000000004,43.70900000000001 53.29500000000001,43.49900000000001 C 53.349,43.473 53.403,43.447 53.457,43.424 M 13.609,39.589 L 11.564,38.0 L 9.109,38.584 L 10.915,40.039 L 13.609,39.589 M 27.681,40.139 C 23.398,39.405 19.641000000000002,39.405 16.409,40.139 C 13.175999999999998,40.875 12.303999999999998,43.454 13.790999999999999,47.876000000000005 C 15.277,52.297000000000004 17.064999999999998,55.431000000000004 19.154999999999998,57.278000000000006 C 21.246,59.127 23.947999999999997,60.43300000000001 27.259999999999998,61.2 C 32.025,61.738 35.452999999999996,61.443000000000005 37.545,60.317 C 39.639,59.191 41.056000000000004,58.024 41.799,56.817 C 43.199,54.363 43.897,52.052 43.891,49.886 C 43.884,47.329 42.251,45.249 38.994,43.645 C 35.737,42.04 31.965,40.872 27.681,40.139" display="inline" fill="#000000" fill-rule="evenodd"/>
	<path clip-rule="evenodd" d="M 34.881,3.315 C 34.87,3.316 34.86,3.316 34.849000000000004,3.315 C 33.892,3.432 33.493,3.881 33.651,4.663 C 33.650000000000006,4.699 33.650000000000006,4.735 33.651,4.7700000000000005 C 33.386,11.207 33.24,17.626 33.213,24.031 C 33.099000000000004,42.864 33.933,61.568999999999996 35.716,80.145 C 35.788000000000004,82.65599999999999 36.416000000000004,84.72399999999999 37.599000000000004,86.351 C 38.940000000000005,88.235 41.024,89.518 43.849000000000004,90.204 C 44.291000000000004,90.30399999999999 44.733000000000004,90.39599999999999 45.176,90.482 C 47.93,90.853 50.669000000000004,90.953 53.394000000000005,90.782 C 55.492000000000004,90.63799999999999 57.57600000000001,90.332 59.644000000000005,89.86099999999999 C 64.894,88.57699999999998 67.605,85.22399999999999 67.77600000000001,79.80199999999999 C 70.171,54.85499999999999 70.855,29.66599999999999 69.83100000000002,4.234999999999999 C 70.02000000000001,3.688999999999999 69.58900000000001,3.3819999999999997 68.53600000000002,3.3149999999999995 C 62.76000000000002,3.6189999999999993 56.963000000000015,3.7839999999999994 51.14700000000002,3.8069999999999995 C 45.746,3.817 40.324,3.654 34.881,3.315 M 32.227,15.77 L 32.805,5.882999999999999 C 32.363,3.4 33.304,2.331 35.63,2.672 L 51.852000000000004,3.079 L 68.07400000000001,2.672 C 70.4,2.33 71.34300000000002,3.4000000000000004 70.89900000000002,5.883 L 71.30600000000001,16.005 C 71.39600000000002,16.342 71.495,18.727999999999998 71.60600000000001,23.163999999999998 C 71.71400000000001,27.598 71.623,33.757 71.328,41.644 L 69.57300000000001,92.57900000000001 C 69.558,94.60400000000001 68.403,95.64500000000001 66.10600000000001,95.703 L 37.599,95.703 C 35.302,95.645 34.145999999999994,94.604 34.132,92.57900000000001 L 32.376999999999995,41.644000000000005 C 32.04899999999999,35.82300000000001 31.884999999999994,29.952000000000005 31.884999999999994,24.031000000000006 C 31.871,21.396 31.985,18.642 32.227,15.77" display="inline" fill="#000000" fill-rule="evenodd"/>
	<path clip-rule="evenodd" d="M 48.985,23.405 C 48.82,23.57 48.731,23.769000000000002 48.717,24.002000000000002 L 48.717,24.023000000000003 C 48.717,24.036000000000005 48.717,24.050000000000004 48.717,24.064000000000004 C 48.717,24.325000000000003 48.807,24.544000000000004 48.985,24.723000000000003 C 49.163,24.902 49.382,24.990000000000002 49.643,24.990000000000002 C 49.904,24.990000000000002 50.123,24.902 50.302,24.723000000000003 C 50.479,24.545 50.569,24.325000000000003 50.569,24.064000000000004 C 50.569,24.037000000000003 50.569,24.016000000000005 50.569,24.002000000000002 C 50.555,23.770000000000003 50.466,23.570000000000004 50.302,23.405 C 50.123,23.227 49.903999999999996,23.137 49.643,23.137 C 49.382000000000005,23.137 49.163,23.227 48.985,23.405 M 45.652,24.495 C 45.57,24.427 45.474000000000004,24.392 45.365,24.392 C 45.255,24.392 45.166000000000004,24.427 45.097,24.495 C 45.013,24.563000000000002 44.973,24.646 44.973,24.742 L 44.973,24.784000000000002 C 44.973,24.893000000000004 45.013,24.982000000000003 45.097,25.051000000000002 C 45.165,25.134 45.254,25.174000000000003 45.365,25.174000000000003 C 45.474000000000004,25.174000000000003 45.57,25.133000000000003 45.652,25.051000000000002 C 45.72,24.982000000000003 45.755,24.893 45.755,24.784000000000002 C 45.755,24.770000000000003 45.755,24.756000000000004 45.755,24.742 C 45.755,24.646 45.721,24.563 45.652,24.495 M 44.006,21.471 C 43.746,21.471 43.527,21.561 43.348,21.739 C 43.183,21.904 43.094,22.102 43.08,22.336000000000002 L 43.08,22.356 C 43.08,22.37 43.08,22.384 43.08,22.398000000000003 C 43.08,22.659000000000002 43.17,22.878000000000004 43.348,23.057000000000002 C 43.528,23.235000000000003 43.746,23.324 44.006,23.324 C 44.267,23.324 44.486,23.235000000000003 44.664,23.057000000000002 C 44.844,22.879 44.932,22.659000000000002 44.932,22.398000000000003 C 44.932,22.370000000000005 44.932,22.350000000000005 44.932,22.336000000000002 C 44.918,22.102 44.830000000000005,21.904000000000003 44.664,21.739 C 44.486,21.561 44.267,21.471 44.006,21.471 M 46.897,21.285 C 46.89,21.31 46.885999999999996,21.337 46.885999999999996,21.367 L 46.885999999999996,21.409000000000002 C 46.885999999999996,21.518000000000004 46.92699999999999,21.608000000000004 47.00899999999999,21.677000000000003 C 47.07699999999999,21.759000000000004 47.166999999999994,21.801000000000002 47.276999999999994,21.801000000000002 C 47.38699999999999,21.801000000000002 47.483999999999995,21.759 47.565999999999995,21.677000000000003 C 47.632999999999996,21.608000000000004 47.66799999999999,21.519000000000002 47.66799999999999,21.409000000000002 C 47.66799999999999,21.395000000000003 47.66799999999999,21.382 47.66799999999999,21.367 C 47.66799999999999,21.334 47.66499999999999,21.303 47.657999999999994,21.275000000000002 L 48.532,21.254 C 48.449999999999996,21.111 48.409,20.950000000000003 48.409,20.770000000000003 C 48.409,20.757 48.409,20.743000000000002 48.409,20.729000000000003 L 48.409,20.708000000000002 C 48.423,20.475 48.513,20.276000000000003 48.677,20.111 C 48.856,19.933 49.075,19.843 49.335,19.843 C 49.595,19.843 49.815,19.932 49.994,20.111 C 50.158,20.276 50.246,20.475 50.261,20.708000000000002 C 50.261,20.722 50.261,20.742 50.261,20.770000000000003 C 50.261,20.937000000000005 50.223000000000006,21.088000000000005 50.148,21.223000000000003 L 52.36000000000001,21.181 C 52.36800000000001,20.939 52.458000000000006,20.734 52.62800000000001,20.564 C 52.80700000000001,20.385 53.02600000000001,20.296 53.287000000000006,20.296 C 53.54600000000001,20.296 53.766000000000005,20.384999999999998 53.94500000000001,20.564 C 54.108000000000004,20.728 54.19800000000001,20.926 54.21200000000001,21.16 L 55.15900000000001,21.16 C 55.17200000000001,20.927 55.262000000000015,20.728 55.426000000000016,20.564 C 55.60500000000002,20.385 55.82400000000002,20.296 56.08400000000002,20.296 C 56.34600000000002,20.296 56.56300000000002,20.384999999999998 56.743000000000016,20.564 C 56.90700000000002,20.729 56.997000000000014,20.927 57.01100000000002,21.16 L 59.52000000000002,21.16 L 59.52000000000002,21.181 C 59.52000000000002,21.195 59.52000000000002,21.209 59.52000000000002,21.223000000000003 C 59.52000000000002,21.400000000000002 59.56200000000002,21.557000000000002 59.64400000000002,21.696 C 59.63100000000002,21.696 59.61700000000002,21.696 59.60300000000002,21.696 C 59.465000000000025,21.696 59.349000000000025,21.744 59.25300000000002,21.841 C 59.157000000000025,21.937 59.10800000000002,22.060000000000002 59.10800000000002,22.211000000000002 C 59.10800000000002,22.348000000000003 59.15700000000002,22.465000000000003 59.25300000000002,22.561000000000003 C 59.34900000000002,22.657000000000004 59.465000000000025,22.706000000000003 59.60300000000002,22.706000000000003 C 59.75300000000002,22.706000000000003 59.877000000000024,22.658000000000005 59.97300000000002,22.561000000000003 C 60.06900000000002,22.465000000000003 60.11800000000002,22.349000000000004 60.11800000000002,22.211000000000002 C 60.11800000000002,22.169 60.114000000000026,22.128000000000004 60.10600000000002,22.087000000000003 C 60.21000000000002,22.129000000000005 60.32400000000003,22.149000000000004 60.447000000000024,22.149000000000004 C 60.70800000000003,22.149000000000004 60.92700000000002,22.060000000000006 61.105000000000025,21.881000000000004 C 61.28300000000003,21.702 61.373000000000026,21.484000000000005 61.373000000000026,21.223000000000003 C 61.373000000000026,21.195000000000004 61.373000000000026,21.175000000000004 61.373000000000026,21.161 L 61.97000000000003,21.161 C 61.989000000000026,20.924000000000003 62.07600000000003,20.724 62.23800000000003,20.565 C 62.416000000000025,20.386000000000003 62.635000000000026,20.297 62.89600000000003,20.297 C 63.15700000000003,20.297 63.376000000000026,20.386 63.55400000000003,20.565 C 63.71800000000003,20.73 63.80800000000003,20.928 63.82200000000003,21.161 L 65.40600000000003,21.161 C 65.95900000000003,21.249000000000002 66.26000000000003,21.455000000000002 66.31200000000004,21.778000000000002 C 66.25200000000004,16.466 66.11500000000004,11.144000000000002 65.90000000000003,5.812000000000003 C 66.07900000000004,5.291000000000003 65.66700000000003,4.997000000000003 64.66500000000003,4.928000000000003 C 59.110000000000035,5.216000000000003 53.53500000000003,5.374000000000002 47.93800000000003,5.4010000000000025 C 42.751,5.417 37.539,5.259 32.3,4.929 L 32.278999999999996,4.929 C 31.344999999999995,5.039000000000001 30.962999999999997,5.471 31.126999999999995,6.2250000000000005 C 31.112999999999996,6.267 31.112999999999996,6.301 31.126999999999995,6.328 C 30.891999999999996,11.921 30.750999999999994,17.503 30.704999999999995,23.076 C 30.729999999999993,22.239 31.076999999999995,21.725 31.743999999999996,21.533 L 41.239999999999995,21.379 C 41.205,21.277 41.187,21.171000000000003 41.187,21.060000000000002 C 41.187,21.046000000000003 41.187,21.032000000000004 41.187,21.018 L 41.187,20.998 C 41.201,20.765 41.291,20.566000000000003 41.455,20.402 C 41.632999999999996,20.223000000000003 41.852,20.134 42.113,20.134 C 42.375,20.134 42.592999999999996,20.223 42.772,20.402 C 42.936,20.567 43.025,20.765 43.039,20.998 C 43.039,21.012 43.039,21.032 43.039,21.060000000000002 C 43.039,21.161 43.025,21.256000000000004 42.998000000000005,21.348000000000003 L 46.897,21.285 M 38.533,22.994 C 38.355000000000004,22.815 38.136,22.726 37.875,22.726 C 37.615,22.726 37.395,22.814999999999998 37.217,22.994 C 37.053,23.158 36.963,23.357 36.949,23.59 L 36.949,23.611 C 36.949,23.625 36.949,23.638 36.949,23.653000000000002 C 36.949,23.763 36.97,23.872000000000003 37.010999999999996,23.982000000000003 C 37.025999999999996,24.037000000000003 37.044999999999995,24.092000000000002 37.07299999999999,24.147000000000002 C 37.114999999999995,24.202 37.163,24.256000000000004 37.217999999999996,24.311000000000003 C 37.395999999999994,24.490000000000002 37.616,24.579000000000004 37.876,24.579000000000004 C 38.137,24.579000000000004 38.355999999999995,24.491000000000003 38.534,24.311000000000003 C 38.602,24.243000000000002 38.658,24.174000000000003 38.699999999999996,24.106000000000005 C 38.726,24.051000000000005 38.74699999999999,23.996000000000006 38.760999999999996,23.941000000000006 C 38.788,23.844000000000005 38.80199999999999,23.749000000000006 38.80199999999999,23.653000000000006 C 38.80199999999999,23.626000000000005 38.80199999999999,23.604000000000006 38.80199999999999,23.591000000000005 C 38.787,23.357 38.699,23.158 38.533,22.994 M 58.655,16.451 C 58.751,16.355 58.868,16.307000000000002 59.005,16.307000000000002 C 59.156000000000006,16.307000000000002 59.28,16.355 59.376000000000005,16.451 C 59.472,16.547 59.519000000000005,16.671 59.519000000000005,16.822 C 59.519000000000005,16.959 59.47200000000001,17.076 59.376000000000005,17.172 C 59.28000000000001,17.268 59.156000000000006,17.316 59.005,17.316 C 58.868,17.316 58.751000000000005,17.269 58.655,17.172 C 58.559000000000005,17.076 58.511,16.959 58.511,16.822 C 58.512,16.67 58.56,16.546 58.655,16.451 M 56.351,18.549 C 56.528999999999996,18.37 56.748,18.281 57.01,18.281 C 57.269999999999996,18.281 57.489,18.369999999999997 57.667,18.549 C 57.846000000000004,18.727 57.936,18.945999999999998 57.936,19.207 C 57.936,19.468000000000004 57.846,19.687 57.667,19.865000000000002 C 57.489000000000004,20.043000000000003 57.27,20.133000000000003 57.010000000000005,20.133000000000003 C 56.748000000000005,20.133000000000003 56.529,20.043000000000003 56.351000000000006,19.865000000000002 C 56.17300000000001,19.687 56.083000000000006,19.468000000000004 56.083000000000006,19.207 C 56.083000000000006,18.945999999999998 56.173,18.728 56.351,18.549 M 52.215,19.434 C 52.313,19.53 52.36000000000001,19.653000000000002 52.36000000000001,19.805 C 52.36000000000001,19.942 52.31300000000001,20.059 52.215,20.155 C 52.11900000000001,20.251 51.997,20.299 51.846000000000004,20.299 C 51.708000000000006,20.299 51.591,20.252 51.496,20.155 C 51.398,20.059 51.351,19.942 51.351,19.805 C 51.351,19.654 51.397999999999996,19.53 51.496,19.434 C 51.591,19.338 51.708000000000006,19.289 51.846000000000004,19.289 C 51.997,19.29 52.119,19.338 52.215,19.434 M 54.438,23.24 C 54.11,23.555 53.93,23.947 53.903000000000006,24.412999999999997 L 53.903000000000006,24.453999999999997 C 53.903000000000006,24.480999999999998 53.903000000000006,24.508999999999997 53.903000000000006,24.535999999999998 C 53.903000000000006,24.58 53.907000000000004,24.624999999999996 53.91400000000001,24.669999999999998 C 53.78600000000001,24.607999999999997 53.64500000000001,24.576999999999998 53.49200000000001,24.576999999999998 C 53.23000000000001,24.576999999999998 53.01300000000001,24.665999999999997 52.83400000000001,24.845 C 52.66900000000001,25.009 52.58100000000001,25.215 52.56500000000001,25.462 C 52.56500000000001,25.476 52.56500000000001,25.489 52.56500000000001,25.503 C 52.56500000000001,25.764 52.655000000000015,25.983 52.83400000000001,26.162 C 53.01300000000001,26.34 53.23000000000001,26.43 53.49200000000001,26.43 C 53.75200000000001,26.43 53.97200000000001,26.341 54.15000000000001,26.162 C 54.262000000000015,26.049 54.338000000000015,25.919 54.37700000000001,25.771 C 54.39800000000001,25.793 54.41900000000001,25.813000000000002 54.43900000000001,25.833000000000002 C 54.78200000000001,26.176000000000002 55.21300000000001,26.347 55.73500000000001,26.347 C 56.24300000000001,26.347 56.67400000000001,26.177 57.031000000000006,25.833000000000002 C 57.15500000000001,25.696 57.258,25.559 57.34100000000001,25.421000000000003 C 57.39600000000001,25.312 57.437000000000005,25.202 57.46500000000001,25.092000000000002 C 57.51900000000001,24.901000000000003 57.546000000000014,24.715000000000003 57.546000000000014,24.536 C 57.546000000000014,24.481 57.546000000000014,24.44 57.546000000000014,24.413 C 57.53800000000001,24.265 57.51400000000002,24.124 57.47400000000001,23.991 C 57.66900000000001,23.961 57.83600000000001,23.875 57.97900000000001,23.733999999999998 C 58.15700000000001,23.555999999999997 58.247000000000014,23.336 58.247000000000014,23.075999999999997 C 58.247000000000014,22.814999999999998 58.15700000000001,22.595999999999997 57.97900000000001,22.417999999999996 C 57.80000000000001,22.238999999999997 57.582000000000015,22.149999999999995 57.320000000000014,22.149999999999995 C 57.05900000000001,22.149999999999995 56.841000000000015,22.238999999999994 56.66300000000001,22.417999999999996 C 56.54200000000001,22.536999999999995 56.46400000000001,22.674999999999997 56.42600000000001,22.828999999999997 C 56.214000000000006,22.746 55.98400000000001,22.705999999999996 55.73700000000001,22.705999999999996 C 55.212,22.706 54.78,22.884 54.438,23.24 M 52.668,22.252 C 52.586,22.183999999999997 52.49,22.148999999999997 52.38,22.148999999999997 C 52.271,22.148999999999997 52.181000000000004,22.182999999999996 52.112,22.252 C 52.057,22.294 52.023,22.348 52.009,22.416999999999998 C 51.996,22.444 51.988,22.471999999999998 51.988,22.499 L 51.988,22.541 C 51.988,22.650000000000002 52.028999999999996,22.740000000000002 52.111,22.808 C 52.178999999999995,22.891 52.269,22.931 52.379,22.931 C 52.489,22.931 52.585,22.89 52.666999999999994,22.808 C 52.73499999999999,22.74 52.770999999999994,22.65 52.770999999999994,22.541 C 52.770999999999994,22.527 52.770999999999994,22.513 52.770999999999994,22.499 C 52.770999999999994,22.471999999999998 52.770999999999994,22.444 52.770999999999994,22.416999999999998 C 52.743,22.349 52.709,22.294 52.668,22.252 M 59.107,20.709 C 59.01,20.805 58.888,20.852999999999998 58.737,20.852999999999998 C 58.599000000000004,20.852999999999998 58.483000000000004,20.805 58.387,20.709 C 58.291,20.613 58.243,20.497 58.243,20.358999999999998 C 58.243,20.208 58.291000000000004,20.084999999999997 58.387,19.988999999999997 C 58.483,19.892999999999997 58.599000000000004,19.843999999999998 58.737,19.843999999999998 C 58.888000000000005,19.843999999999998 59.010000000000005,19.892999999999997 59.107,19.988999999999997 C 59.204,20.084999999999997 59.252,20.208 59.252,20.358999999999998 C 59.252,20.497 59.204,20.613 59.107,20.709 M 29.748,16.903 L 30.304000000000002,7.397999999999998 C 29.879,5.011999999999998 30.783,3.982999999999998 33.02,4.311999999999998 L 48.615,4.702999999999998 L 64.21,4.312 C 66.44699999999999,3.983 67.351,5.0120000000000005 66.92599999999999,7.398 L 67.317,17.128999999999998 C 67.39999999999999,17.458999999999996 67.497,19.755999999999997 67.60499999999999,24.022 C 67.71499999999999,28.273 67.62599999999999,34.192 67.338,41.777 L 65.65,90.743 C 65.63600000000001,92.69099999999999 64.52600000000001,93.692 62.31700000000001,93.74799999999999 L 34.912,93.74799999999999 C 32.705,93.692 31.593999999999998,92.69099999999999 31.58,90.743 L 29.892,41.776999999999994 C 29.576999999999998,36.181 29.419,30.536999999999992 29.419,24.844999999999995 C 29.405,22.308 29.516,19.661 29.748,16.903 M 43.76,27.458 C 43.678,27.389 43.582,27.354999999999997 43.472,27.354999999999997 C 43.362,27.354999999999997 43.273,27.387999999999998 43.204,27.458 C 43.122,27.526999999999997 43.08,27.608999999999998 43.08,27.705 L 43.08,27.746 C 43.08,27.855 43.122,27.945 43.204,28.014 C 43.272,28.096 43.361,28.137 43.472,28.137 C 43.583000000000006,28.137 43.678000000000004,28.096 43.76,28.014 C 43.827999999999996,27.945999999999998 43.861999999999995,27.855999999999998 43.861999999999995,27.746 C 43.861999999999995,27.732 43.861999999999995,27.718999999999998 43.861999999999995,27.705 C 43.861,27.609 43.828,27.527 43.76,27.458 M 47.566,26.346 C 47.456,26.346 47.366,26.381 47.298,26.449 C 47.216,26.518 47.173,26.601000000000003 47.173,26.697000000000003 L 47.173,26.737000000000002 C 47.173,26.847 47.216,26.936000000000003 47.298,27.006 C 47.365,27.088 47.455,27.129 47.566,27.129 C 47.675000000000004,27.129 47.771,27.088 47.853,27.006 C 47.921,26.937 47.957,26.848 47.957,26.737000000000002 C 47.957,26.724 47.957,26.71 47.957,26.697000000000003 C 47.957,26.601000000000003 47.922000000000004,26.518000000000004 47.853,26.449 C 47.771,26.381 47.676,26.346 47.566,26.346 M 38.699,26.388 C 38.699,26.292 38.664,26.21 38.595,26.141000000000002 C 38.513,26.073 38.416,26.038 38.307,26.038 C 38.197,26.038 38.107,26.073 38.039,26.141000000000002 C 37.957,26.21 37.915,26.292 37.915,26.388 L 37.915,26.430000000000003 C 37.915,26.539000000000005 37.957,26.628000000000004 38.039,26.698000000000004 C 38.106,26.780000000000005 38.196,26.821000000000005 38.307,26.821000000000005 C 38.416000000000004,26.821000000000005 38.513000000000005,26.780000000000005 38.595,26.698000000000004 C 38.663,26.629000000000005 38.699,26.540000000000003 38.699,26.430000000000003 C 38.699,26.415 38.699,26.401 38.699,26.388 M 62.358,14.311 C 62.537,14.49 62.632,14.709 62.645999999999994,14.97 C 62.645999999999994,14.984 62.645999999999994,15.004000000000001 62.645999999999994,15.032 C 62.645999999999994,15.334 62.54899999999999,15.58 62.358,15.773 C 62.151999999999994,15.965 61.906,16.061 61.617999999999995,16.061 C 61.330999999999996,16.061 61.089999999999996,15.965 60.897,15.773 C 60.692,15.581 60.589,15.334999999999999 60.589,15.032 C 60.589,15.018 60.589,15.004 60.589,14.99 C 60.603,14.716000000000001 60.705,14.49 60.897,14.311 C 61.089,14.106 61.330999999999996,14.002 61.617999999999995,14.002 C 61.906,14.002 62.152,14.105 62.358,14.311 M 64.375,17.191 C 64.471,17.287 64.519,17.41 64.519,17.561 C 64.519,17.698 64.471,17.815 64.375,17.911 C 64.279,18.007 64.155,18.055 64.005,18.055 C 63.867,18.055 63.751,18.007 63.653999999999996,17.911 C 63.558,17.815 63.51,17.698 63.51,17.561 C 63.51,17.41 63.558,17.287 63.653999999999996,17.191 C 63.751,17.095 63.867,17.047 64.005,17.047 C 64.155,17.047 64.279,17.095 64.375,17.191 M 60.383,18.549 C 60.563,18.37 60.781000000000006,18.281 61.042,18.281 C 61.303,18.281 61.522,18.369999999999997 61.7,18.549 C 61.879000000000005,18.727 61.968,18.945999999999998 61.968,19.207 C 61.968,19.468000000000004 61.879000000000005,19.687 61.7,19.865000000000002 C 61.522000000000006,20.043000000000003 61.303000000000004,20.133000000000003 61.042,20.133000000000003 C 60.781,20.133000000000003 60.563,20.043000000000003 60.383,19.865000000000002 C 60.205000000000005,19.687 60.116,19.468000000000004 60.116,19.207 C 60.116,18.945999999999998 60.205,18.728 60.383,18.549 M 62.955,18.426 C 63.052,18.33 63.168,18.281 63.305,18.281 C 63.456,18.281 63.58,18.328999999999997 63.676,18.426 C 63.772,18.522 63.82,18.645 63.82,18.796 C 63.82,18.934 63.772,19.05 63.676,19.146 C 63.580000000000005,19.242 63.456,19.29 63.305,19.29 C 63.168,19.29 63.052,19.243 62.955,19.146 C 62.859,19.05 62.811,18.934 62.811,18.796 C 62.812,18.646 62.859,18.522 62.955,18.426 M 63.511,22.561 L 63.511,22.582 C 63.511,22.596 63.511,22.61 63.511,22.624000000000002 C 63.511,22.885 63.6,23.104000000000003 63.779,23.283 C 63.957,23.461000000000002 64.177,23.55 64.437,23.55 C 64.69699999999999,23.55 64.916,23.461000000000002 65.096,23.283 C 65.274,23.104000000000003 65.36200000000001,22.885 65.36200000000001,22.624000000000002 C 65.36200000000001,22.596000000000004 65.36200000000001,22.576000000000004 65.36200000000001,22.562 C 65.349,22.329 65.26,22.130000000000003 65.096,21.966 C 64.916,21.787000000000003 64.697,21.698 64.437,21.698 C 64.17699999999999,21.698 63.957,21.787 63.778999999999996,21.966 C 63.613,22.129 63.524,22.328 63.511,22.561 M 61.351,24.001 C 61.089999999999996,24.001 60.871,24.09 60.693,24.268 C 60.528999999999996,24.434 60.439,24.639 60.425,24.885 C 60.425,24.900000000000002 60.425,24.913 60.425,24.927000000000003 C 60.425,25.187000000000005 60.513999999999996,25.406000000000002 60.693,25.584000000000003 C 60.870999999999995,25.763 61.089999999999996,25.852000000000004 61.351,25.852000000000004 C 61.612,25.852000000000004 61.83,25.763000000000005 62.009,25.584000000000003 C 62.188,25.406000000000002 62.277,25.187000000000005 62.277,24.927000000000003 C 62.277,24.900000000000002 62.277,24.879000000000005 62.277,24.865000000000002 C 62.264,24.632 62.174,24.433000000000003 62.009,24.268 C 61.83,24.091 61.611,24.001 61.351,24.001" display="inline" fill="#000000" fill-rule="evenodd"/>
	<path clip-rule="evenodd" d="M 34.708,4.775 C 34.068,4.809 33.756,5.188000000000001 33.772999999999996,5.912000000000001 L 29.25,45.637 C 29.25,45.738 29.258,45.839 29.275,45.94 C 29.898999999999997,53.724 34.506,58.988 43.098,61.733 C 45.592,62.339999999999996 47.882999999999996,62.660999999999994 49.972,62.693999999999996 C 52.061,62.660999999999994 54.344,62.339999999999996 56.82,61.733 C 65.412,58.988 70.019,53.723 70.643,45.94 C 70.66,45.839 70.668,45.738 70.668,45.637 L 66.168,6.115 L 66.19300000000001,5.863 C 66.19300000000001,5.223000000000001 65.882,4.801 65.25800000000001,4.599 L 34.708,4.775 M 32.458,6.595 C 32.626,4.994 33.064,4.151999999999999 33.772,4.068 C 34.461999999999996,3.9669999999999996 34.918,3.9419999999999997 35.135999999999996,3.9919999999999995 L 65.08099999999999,3.9919999999999995 C 65.40099999999998,3.9919999999999995 65.88199999999999,4.127 66.52099999999999,4.396 C 67.14499999999998,4.649 67.45599999999999,5.382 67.45599999999999,6.595 L 72.18299999999999,44.019 C 72.50299999999999,52.964 68.35799999999999,60.275999999999996 59.748999999999995,65.954 C 55.687999999999995,67.639 53.760999999999996,70.696 53.961999999999996,75.127 L 54.06399999999999,85.51299999999999 C 53.928999999999995,87.70299999999999 54.42499999999999,89.202 55.553999999999995,90.011 C 59.73199999999999,90.92099999999999 63.236999999999995,92.22699999999999 66.067,93.928 L 69.857,94.00399999999999 C 70.851,94.59299999999999 70.851,95.30099999999999 69.857,96.127 L 30.058,96.127 C 29.064,95.301 29.064,94.59299999999999 30.058,94.00399999999999 L 33.849,93.928 C 36.678999999999995,92.227 40.18299999999999,90.92099999999999 44.361,90.011 C 45.489,89.202 45.986,87.703 45.852,85.51299999999999 L 45.95399999999999,75.127 C 46.154999999999994,70.696 44.227,67.639 40.166999999999994,65.954 C 31.558999999999994,60.275999999999996 27.413999999999994,52.96499999999999 27.733999999999995,44.01899999999999 L 32.458,6.595" fill="#000000" fill-rule="evenodd"/>
	<path d="M 76.29,47.674 L 23.0,6.337 L 30.471,72.576 L 46.783,63.711 L 62.614,89.407 L 75.771,81.3 L 60.381,56.32 L 76.29,47.674" display="inline" fill="#000000" points="76.29,47.674 23,6.337 30.471,72.576 46.783,63.711 62.614,89.407 75.771,81.3    60.381,56.32  "/>
	<path d="M 76.29,50.674 L 23.0,9.337 L 30.471,75.576 L 46.783,66.711 L 62.614,92.407 L 75.771,84.3 L 60.381,59.32 L 76.29,50.674" display="inline" fill="#000000" points="76.29,50.674 23,9.337    30.471,75.576 46.783,66.711 62.614,92.407 75.771,84.3 60.381,59.32  " stroke="#010101" stroke-miterlimit="10" stroke-width="5"/>
</svg>
