<?xml version="1.0" ?>
<svg xmlns="http://www.w3.org/2000/svg" xmlns:ev="http://www.w3.org/2001/xml-events" xmlns:xlink="http://www.w3.org/1999/xlink" baseProfile="full" enable-background="new 0 0 99.266 100" height="600px" version="1.1" viewBox="0 0 99.266 100" width="596px" x="0px" xml:space="preserve" y="0px">
	<defs/>
	<path d="M 59.165,88.417 C 59.873,88.294 60.582,88.245 61.315,88.245 C 63.539,88.245 65.66499999999999,88.759 67.54599999999999,89.638 C 69.37899999999999,90.44500000000001 71.43199999999999,90.93400000000001 73.582,90.93400000000001 C 75.732,90.93400000000001 77.80999999999999,90.44500000000001 79.643,89.638 C 81.525,88.759 83.651,88.245 85.85,88.245 C 88.07499999999999,88.245 90.19999999999999,88.759 92.082,89.638 C 93.91399999999999,90.44500000000001 95.99199999999999,90.93400000000001 98.11699999999999,90.93400000000001 L 98.11699999999999,100.0 C 95.99199999999999,100.0 93.91399999999999,99.511 92.082,98.681 C 90.199,97.826 88.074,97.312 85.85,97.312 C 83.651,97.312 81.52499999999999,97.826 79.643,98.681 C 77.81,99.511 75.733,100.0 73.582,100.0 C 71.43099999999998,100.0 69.37899999999999,99.511 67.54599999999999,98.681 C 65.66399999999999,97.826 63.53799999999999,97.312 61.31499999999999,97.312 C 59.11599999999999,97.312 56.98899999999999,97.826 55.08299999999999,98.681 C 53.25,99.511 51.198,100.0 49.047,100.0 C 46.895999999999994,100.0 44.842999999999996,99.511 43.01,98.681 C 41.129,97.826 39.001999999999995,97.312 36.778999999999996,97.312 C 34.556,97.312 32.428999999999995,97.826 30.547999999999995,98.681 C 28.714999999999996,99.511 26.661999999999995,100.0 24.535999999999994,100.0 C 22.385999999999996,100.0 20.332999999999995,99.511 18.499999999999993,98.681 C 16.593999999999994,97.826 14.467999999999993,97.312 12.268999999999993,97.312 C 10.043999999999993,97.312 7.918999999999993,97.826 6.036999999999993,98.681 C 4.204,99.511 2.15,100.0 0.0,100.0 L 0.0,90.934 C 2.15,90.934 4.204,90.445 6.036,89.63799999999999 C 7.919,88.75899999999999 10.044,88.24499999999999 12.268,88.24499999999999 C 14.467,88.24499999999999 16.593,88.75899999999999 18.499000000000002,89.63799999999999 C 20.332,90.445 22.385,90.934 24.535000000000004,90.934 C 26.661000000000005,90.934 28.714000000000006,90.445 30.547000000000004,89.63799999999999 C 31.622000000000003,89.14999999999999 32.746,88.75899999999999 33.92,88.538 L 91.104,78.34899999999999 C 92.961,77.90899999999999 95.479,76.61299999999999 96.358,74.38999999999999 C 96.53,73.97399999999999 97.141,73.85199999999999 97.65400000000001,73.87599999999999 C 98.58300000000001,73.925 99.266,74.731 99.266,75.65899999999999 C 99.266,77.12599999999999 98.143,81.231 91.887,82.50299999999999 L 59.165,88.417"/>
	<path d="M 9.555,16.544 C 14.125,16.544 17.839,12.83 17.839,8.26 C 17.839,3.6899999999999995 14.125,0.0 9.555,0.0 C 4.984999999999999,0.0 1.295,3.69 1.295,8.26 C 1.295,12.83 4.985,16.544 9.555,16.544"/>
	<path d="M 33.602,83.407 C 34.017999999999994,85.23899999999999 36.241,86.999 38.562999999999995,86.999 L 38.538999999999994,87.023 C 41.446999999999996,87.023 43.81699999999999,84.67699999999999 43.81699999999999,81.74499999999999 L 43.718999999999994,80.88999999999999 L 37.413999999999994,53.83699999999999 C 36.876,52.10199999999999 35.23799999999999,50.46399999999999 33.553,49.77999999999999 L 33.553,49.77999999999999 L 24.290999999999997,44.207999999999984 L 20.061999999999998,25.976999999999983 L 46.113,25.927999999999983 C 48.24,25.927999999999983 49.951,24.217999999999982 49.951,22.090999999999983 C 49.951,19.964999999999982 48.24,18.229999999999983 46.113,18.229999999999983 L 8.504,18.229999999999983 C 4.74,18.229999999999983 3.0059999999999993,20.91799999999998 3.4449999999999994,23.26399999999998 L 8.771999999999998,47.43299999999998 C 9.186999999999998,49.70599999999998 10.677999999999999,51.61199999999998 12.681999999999999,52.61299999999998 L 12.803999999999998,52.66199999999998 L 28.298,61.77799999999998 L 33.602,83.407"/>
	<path d="M 52.2,23.094 L 98.241,23.094 L 98.241,25.978 L 52.2,25.978 L 52.2,23.094" height="2.884" width="46.041" x="52.2" y="23.094"/>
</svg>
