<?xml version="1.0" ?>
<svg xmlns="http://www.w3.org/2000/svg" xmlns:ev="http://www.w3.org/2001/xml-events" xmlns:xlink="http://www.w3.org/1999/xlink" baseProfile="full" enable-background="new 0 0 100 99.178" height="596px" version="1.1" viewBox="0 0 100 99.178" width="600px" x="0px" xml:space="preserve" y="0px">
	<defs/>
	<path d="M 86.598,45.604 C 94.997,45.604 100.0,50.609 100.0,58.274 L 100.0,94.148 C 100.0,96.926 99.75,99.17699999999999 99.75,99.17699999999999 L 89.783,99.17699999999999 L 61.388,99.17699999999999 L 61.388,64.311 L 59.824,64.311 L 52.704,74.935 C 51.544000000000004,76.515 49.19,77.282 47.315,77.282 L 30.597,77.282 C 27.819000000000003,77.282 25.567,75.032 25.567,72.258 C 25.567,69.488 27.819,67.30199999999999 30.597,67.30199999999999 L 45.802,67.30199999999999 L 56.348,51.35 C 58.879,47.493 63.564,45.654 67.799,45.654 C 67.799,56.871 70.59500000000001,61.618 75.649,61.618 L 75.649,80.265 C 74.229,80.877 73.23,82.291 73.23,83.93900000000001 C 73.23,86.144 74.992,87.91000000000001 77.196,87.91000000000001 C 79.40299999999999,87.91000000000001 81.16799999999999,86.09700000000001 81.16799999999999,83.88400000000001 C 81.16799999999999,82.24000000000001 80.169,80.82700000000001 78.749,80.21800000000002 L 78.749,61.562 C 83.799,61.562 86.598,56.82 86.598,45.604"/>
	<path d="M 83.447,45.604 C 83.358,57.104 81.37,58.617 77.196,58.617 C 73.02799999999999,58.617 71.03699999999999,57.104 70.948,45.604 L 83.447,45.604"/>
	<path d="M 77.127,19.708 C 83.463,19.708 88.59899999999999,24.845 88.59899999999999,31.185 C 88.59899999999999,37.519 83.463,42.659 77.127,42.659 C 70.78999999999999,42.659 65.648,37.519 65.648,31.185 C 65.648,24.845 70.791,19.708 77.127,19.708"/>
	<path d="M 48.926,21.278 C 50.325,21.278 51.465,20.139 51.465,18.735999999999997 C 51.465,17.333 50.325,16.194999999999997 48.926,16.194999999999997 C 47.52,16.194999999999997 46.384,17.331999999999997 46.384,18.735999999999997 C 46.384,20.139 47.52,21.278 48.926,21.278"/>
	<path d="M 30.761,7.27 C 32.759,7.27 34.381,5.6499999999999995 34.381,3.6489999999999996 C 34.381,1.6499999999999995 32.759,0.025999999999999357 30.761,0.025999999999999357 C 28.759,0.025999999999999357 27.137999999999998,1.6499999999999995 27.137999999999998,3.6489999999999996 C 27.138,5.65 28.759,7.27 30.761,7.27"/>
	<path d="M 11.104,7.293 C 13.133,7.293 14.783,5.66 14.783,3.6460000000000004 C 14.783,1.633 13.133,0.0 11.104,0.0 C 9.076,0.0 7.43,1.633 7.43,3.646 C 7.43,5.66 9.076,7.293 11.104,7.293"/>
	<path d="M 45.477,43.209 C 45.477,44.03 46.154999999999994,44.7 46.979,44.7 C 47.8,44.7 48.467999999999996,44.03 48.467999999999996,43.209 L 48.467999999999996,34.295 L 49.63399999999999,34.295 L 49.63399999999999,43.209 C 49.63399999999999,44.03 50.30199999999999,44.7 51.12599999999999,44.7 C 51.94999999999999,44.7 52.62499999999999,44.03 52.62499999999999,43.209 L 52.62499999999999,26.548 L 53.776999999999994,26.548 L 53.776999999999994,32.196999999999996 C 53.776999999999994,32.812 54.272999999999996,33.31099999999999 54.885999999999996,33.31099999999999 C 55.501,33.31099999999999 55.983999999999995,32.81099999999999 55.983999999999995,32.196999999999996 L 55.983999999999995,25.774999999999995 C 55.983999999999995,23.975999999999996 54.39999999999999,22.516999999999996 52.60699999999999,22.516999999999996 C 52.60699999999999,22.516999999999996 45.71199999999999,22.521999999999995 45.684999999999995,22.524999999999995 L 43.455,22.307999999999996 L 40.588,12.315999999999995 C 39.431,8.284999999999997 36.058,8.412999999999995 36.058,8.412999999999995 L 26.761,8.412999999999995 C 26.761,8.412999999999995 23.387999999999998,8.284999999999995 22.230999999999998,12.315999999999995 L 20.729,17.549999999999997 L 19.227,12.315999999999997 C 18.071,8.284999999999997 14.697,8.412999999999997 14.697,8.412999999999997 L 7.506999999999999,8.412999999999997 C 7.506999999999999,8.412999999999997 4.131999999999999,8.284999999999997 2.9749999999999988,12.315999999999997 L 0.082,22.401 C -0.197,23.34 0.265,24.22 1.088,24.458 C 1.911,24.691 2.8150000000000004,24.119999999999997 3.0300000000000002,23.366 L 5.8420000000000005,13.536999999999999 L 7.2170000000000005,13.536999999999999 L 3.104,30.554 L 6.741,30.554 L 6.741,42.641999999999996 C 6.741,43.638999999999996 7.542,44.446999999999996 8.536999999999999,44.446999999999996 C 9.536999999999999,44.446999999999996 10.350999999999999,43.638999999999996 10.350999999999999,42.641999999999996 L 10.350999999999999,30.554 L 11.873,30.554 L 11.873,42.641999999999996 C 11.873,43.638999999999996 12.677,44.446999999999996 13.675999999999998,44.446999999999996 C 14.674999999999997,44.446999999999996 15.482999999999999,43.638999999999996 15.482999999999999,42.641999999999996 L 15.482999999999999,30.554 L 19.058,30.554 L 14.982,13.536999999999999 L 16.355,13.536999999999999 L 19.167,23.366 C 19.359,24.02 19.958000000000002,24.549 20.666,24.488 C 21.374,24.55 22.097,24.02 22.281,23.366 L 25.096,13.536999999999999 L 26.363,13.536999999999999 L 26.363,42.293 C 26.363,43.464999999999996 27.320999999999998,44.415 28.497999999999998,44.415 C 29.668,44.415 30.622999999999998,43.464999999999996 30.622999999999998,42.293 L 30.622999999999998,25.931 L 32.193,25.931 L 32.193,42.293 C 32.193,43.464999999999996 33.144,44.415 34.318,44.415 C 35.492,44.415 36.449999999999996,43.464999999999996 36.449999999999996,42.293 L 36.449999999999996,13.537 L 37.824999999999996,13.537 L 40.43899999999999,23.038 C 40.602999999999994,23.61 41.19499999999999,24.165 41.827999999999996,24.355 L 45.474999999999994,25.376 L 45.474999999999994,43.209 L 45.477,43.209"/>
</svg>
