<?xml version="1.0" ?>
<svg xmlns="http://www.w3.org/2000/svg" xmlns:ev="http://www.w3.org/2001/xml-events" xmlns:xlink="http://www.w3.org/1999/xlink" baseProfile="full" enable-background="new 0 0 99.546 100" height="600px" version="1.1" viewBox="0 0 99.546 100" width="598px" x="0px" xml:space="preserve" y="0px">
	<defs/>
	<path d="M 51.381,38.817 C 54.444,37.837 57.718,39.525 58.699,42.593 C 59.678,45.649 57.986,48.926 54.923,49.911 L 39.098,54.968 C 37.266,55.554 35.257999999999996,55.193000000000005 33.74,54.007000000000005 L 27.194000000000003,48.88400000000001 L 41.407,100.0 L 0.0,100.0 L 0.0,35.061 C 0.0,31.226 3.108,28.116 6.944,28.116 L 17.298,28.116 C 18.776,28.116 20.136,28.586 21.256,29.46 C 21.256,29.46 34.761,40.023 38.489000000000004,42.938 L 51.381,38.817 M 26.09,58.399 L 19.808,58.399 L 19.808,52.11 L 12.312,52.11 L 12.312,58.399 L 6.055,58.399 L 6.055,65.919 L 12.312999999999999,65.919 L 12.312999999999999,72.172 L 19.808999999999997,72.172 L 19.808999999999997,65.919 L 26.090999999999998,65.919 L 26.090999999999998,58.399 L 26.09,58.399"/>
	<path d="M 13.493,24.995 C 20.392,24.995 25.989,19.404 25.989,12.495000000000001 C 25.989,5.599 20.393,0.0 13.493,0.0 C 6.590000000000001,0.0 0.9930000000000003,5.599 0.9930000000000003,12.495 C 0.993,19.404 6.59,24.995 13.493,24.995"/>
	<path d="M 87.033,25.04 C 93.94,25.04 99.547,19.436999999999998 99.547,12.53 C 99.547,5.611999999999999 93.941,0.0030000000000001137 87.033,0.0030000000000001137 C 80.118,0.0030000000000001137 74.516,5.612 74.516,12.53 C 74.516,19.438 80.118,25.04 87.033,25.04"/>
	<path d="M 83.253,28.401 C 78.134,28.401 75.809,30.153 73.862,33.186 L 72.601,35.607 L 65.29,33.47 L 65.59800000000001,31.477 L 48.13,27.564 L 47.644000000000005,29.744 L 44.374,29.017 L 44.864000000000004,26.833 L 43.55200000000001,26.54 L 42.053000000000004,33.232 L 43.355000000000004,33.524 L 43.857000000000006,31.338 L 47.123000000000005,32.069 L 46.635000000000005,34.259 L 64.10300000000001,38.17 L 64.668,36.121 L 71.744,37.259 L 53.51,72.322 C 52.102999999999994,75.141 53.242,78.562 56.065,79.973 C 58.884,81.388 62.311,80.243 63.73,77.42399999999999 L 78.944,47.903999999999996 L 81.43900000000001,47.903999999999996 L 81.43900000000001,99.997 L 99.37200000000001,99.997 L 99.37200000000001,28.401 L 83.253,28.401"/>
</svg>
