<?xml version="1.0" ?>
<svg xmlns="http://www.w3.org/2000/svg" xmlns:ev="http://www.w3.org/2001/xml-events" xmlns:xlink="http://www.w3.org/1999/xlink" baseProfile="full" enable-background="new 0 0 100 100" height="600px" version="1.1" viewBox="0 0 100 100" width="600px" x="0px" xml:space="preserve" y="0px">
	<defs/>
	<path d="M 49.999,87.5 C 50.838,87.5 51.669000000000004,87.447 52.499,87.393 C 52.499,84.13 52.499,79.599 52.499,73.75 C 52.499,60.256 42.499,55.0 42.499,55.0 L 27.501,55.0 C 27.501,55.0 19.568,59.561 18.824,70.812 C 25.558,80.867 37.017,87.5 49.999,87.5"/>
	<path d="M 81.988,36.355 L 70.761,36.355 L 80.939,31.605999999999998 C 81.689,31.256999999999998 82.01299999999999,30.366 81.66499999999999,29.613999999999997 C 81.41099999999999,29.069999999999997 80.86899999999999,28.749999999999996 80.30499999999999,28.749999999999996 C 80.09299999999999,28.749999999999996 79.87799999999999,28.793999999999997 79.67299999999999,28.888999999999996 C 79.67299999999999,28.888999999999996 63.243999999999986,36.586999999999996 63.20999999999999,36.611999999999995 C 62.792999999999985,36.87799999999999 62.499999999999986,37.32299999999999 62.499999999999986,37.85399999999999 C 62.499999999999986,38.38399999999999 62.792999999999985,38.83099999999999 63.20999999999999,39.096999999999994 C 63.243999999999986,39.120999999999995 79.67299999999999,46.81699999999999 79.67299999999999,46.81699999999999 C 79.87799999999999,46.91299999999999 80.09299999999999,46.958999999999996 80.30499999999999,46.958999999999996 C 80.86899999999999,46.958999999999996 81.41099999999999,46.63699999999999 81.66499999999999,46.092999999999996 C 82.014,45.342999999999996 81.689,44.449 80.939,44.101 L 70.761,39.355 L 81.98899999999999,39.355 C 82.81899999999999,39.355 83.49099999999999,38.683 83.49099999999999,37.855 C 83.49,37.023 82.818,36.355 81.988,36.355"/>
	<path d="M 54.999,51.25 C 50.341,48.35 48.087,44.637 47.499,42.5 L 51.249,42.5 L 51.249,32.5 L 29.999000000000002,32.5 C 23.378,32.5 18.751000000000005,38.377 18.751000000000005,45.0 L 27.501000000000005,45.0 L 27.501000000000005,52.5 L 42.499,52.5 C 42.499,49.842 42.04,48.127 42.562000000000005,46.621 C 43.749,50.0 49.922000000000004,53.75 52.499,53.75 C 55.497,53.75 55.712,51.691 54.999,51.25"/>
	<path d="M 49.999,5.0 C 25.187,5.0 5.001,25.186 5.001,50.0 C 5.001,74.812 25.187,95.0 49.998999999999995,95.0 C 74.81299999999999,95.0 94.999,74.812 94.999,50.0 C 94.999,25.186 74.813,5.0 49.999,5.0 M 80.846,75.438 L 57.812,52.402 C 57.788999999999994,52.603 57.751999999999995,52.806000000000004 57.695,53.006 C 57.346000000000004,54.227000000000004 56.288,55.502 54.352000000000004,56.013 L 77.421,79.08 C 70.253,85.842 60.606,90.0 49.999,90.0 C 27.945000000000004,90.0 10.001000000000005,72.056 10.001000000000005,50.0 C 10.001000000000005,39.393 14.159000000000006,29.744 20.919000000000004,22.578 L 28.438000000000002,30.098 C 28.95,30.038 29.469,30.0 29.999,30.0 L 35.411,30.0 L 24.564,19.152 C 31.48,13.438 40.346,10.0 49.999,10.0 C 72.055,10.0 89.999,27.944 89.999,50.0 C 89.999,59.653 86.562,68.518 80.846,75.438"/>
	<path d="M 57.499,37.752 C 57.499,36.509 58.507000000000005,35.5 59.747,35.5 C 59.834,35.5 59.916,35.517 59.999,35.526 L 59.999,32.5 L 53.749,32.5 L 53.749,42.5 L 59.999,42.5 L 59.999,39.975 C 59.916,39.984 59.834,40.0 59.747,40.0 C 58.507,40.0 57.499,38.992 57.499,37.752"/>
</svg>
