<?xml version="1.0" ?>
<svg xmlns="http://www.w3.org/2000/svg" xmlns:ev="http://www.w3.org/2001/xml-events" xmlns:xlink="http://www.w3.org/1999/xlink" baseProfile="full" enable-background="new 0 0 100 100" height="600px" version="1.1" viewBox="0 0 100 100" width="600px" x="0px" xml:space="preserve" y="0px">
	<defs/>
	<path d="M 53.75,39.311 C 52.414,39.311 51.16,39.831 50.215,40.776 L 44.912000000000006,46.079 L 51.982000000000006,53.149 L 57.287000000000006,47.846000000000004 C 58.230000000000004,46.904 58.75000000000001,45.646 58.75000000000001,44.31100000000001 C 58.75000000000001,42.97500000000001 58.230000000000004,41.720000000000006 57.287000000000006,40.77600000000001 C 56.343,39.83 55.088,39.311 53.75,39.311" fill="#000000"/>
	<path d="M 85.0,38.418 C 83.975,37.951 82.283,38.198 81.25,37.168 C 80.52,36.436 80.0,35.244 80.0,34.668 C 80.0,33.418 78.75,32.168 77.5,32.168 L 75.0,32.168 C 75.0,29.07 80.635,30.692999999999998 81.25,29.668 C 81.59,29.105999999999998 81.25,28.418 80.0,28.418 C 79.27,28.418 74.689,28.418 73.75,28.418 C 70.652,28.418 70.0,33.418 70.0,33.418 C 67.935,33.418 67.5,29.668 67.5,29.668 C 63.75,33.418 67.5,35.918 67.5,35.918 C 66.25,37.168 61.25,32.5 51.25,31.25 C 41.25,30.0 30.0,32.5 25.0,35.0 C 22.971,36.014 16.25,40.0 16.25,45.0 C 16.25,48.153999999999996 16.25,56.25 16.25,56.25 L 15.0,60.0 L 18.75,63.75 C 18.828,61.406 18.75,52.5 18.75,47.5 C 18.75,45.0 21.25,43.75 21.25,43.75 C 21.25,43.75 21.25,59.155 21.25,66.25 C 21.25,68.613 26.25,78.75 26.25,78.75 L 31.25,78.75 C 31.25,78.75 28.75,73.613 28.75,71.25 C 28.75,69.526 31.25,66.25 31.25,66.25 C 31.25,66.25 39.66,68.75 41.25,68.75 C 47.5,68.75 57.5,67.5 57.5,67.5 L 58.75,73.75 L 62.5,78.75 L 66.25,78.75 L 63.75,72.5 C 63.75,72.5 64.758,65.957 66.25,65.0 C 73.086,60.613 73.807,57.051 75.0,52.168 C 75.938,48.328 78.709,45.918 80.0,45.918 C 82.065,45.918 83.967,45.701 85.0,44.668 C 86.033,43.635 86.25,39.668 86.25,39.668 C 86.25,39.097 85.645,38.709 85.0,38.418 M 59.055,49.613 L 52.925,55.741 L 47.564,61.104 C 44.637,64.032 39.885,64.032 36.959,61.104 C 34.029,58.174 34.029,53.426 36.959,50.497 L 41.378,46.08 L 41.378,46.077999999999996 L 48.448,39.007999999999996 C 51.378,36.077999999999996 56.126,36.077999999999996 59.055,39.007999999999996 C 60.518,40.473 61.25,42.391999999999996 61.25,44.31099999999999 C 61.25,46.22999999999999 60.518,48.15 59.055,49.613" fill="#000000"/>
	<path d="M 50.0,5.0 C 25.187,5.0 5.0,25.187 5.0,50.0 C 5.0,74.813 25.187,95.0 50.0,95.0 C 74.813,95.0 95.0,74.813 95.0,50.0 C 95.0,25.186999999999998 74.813,5.0 50.0,5.0 M 81.105,75.109 L 70.659,64.882 C 69.825,65.571 68.888,66.268 67.79700000000001,66.97800000000001 C 67.62500000000001,67.25600000000001 67.41700000000002,67.804 67.20600000000002,68.498 L 77.72300000000001,78.795 C 70.526,85.725 60.756,90.0 50.0,90.0 C 27.944,90.0 10.0,72.056 10.0,50.0 C 10.0,39.546 14.035,30.021 20.625,22.887 L 28.794,30.887 C 30.506,30.366 32.436,29.888 34.518,29.492 L 24.242,19.432 C 31.207,13.553 40.194,10.0 50.0,10.0 C 72.056,10.0 90.0,27.944 90.0,50.0 C 90.0,59.504 86.662,68.24 81.105,75.109"/>
</svg>
