<?xml version="1.0" ?>
<svg xmlns="http://www.w3.org/2000/svg" xmlns:ev="http://www.w3.org/2001/xml-events" xmlns:xlink="http://www.w3.org/1999/xlink" baseProfile="full" enable-background="new 0 0 72.976 100" height="600px" version="1.1" viewBox="0 0 72.976 100" width="438px" x="0px" xml:space="preserve" y="0px">
	<defs/>
	<path d="M 45.478,47.563 L 71.803,52.332 L 72.976,45.859 L 46.649,41.09 C 46.454,32.191 39.159,25.010000000000005 30.213,25.010000000000005 C 29.417,25.010000000000005 28.635,25.070000000000004 27.869,25.179000000000006 L 18.838,0.0 L 12.646,2.221 L 21.679000000000002,27.403 C 16.94,30.291999999999998 13.769000000000002,35.51 13.769000000000002,41.455 C 13.769000000000002,45.288 15.090000000000002,48.815999999999995 17.297,51.614999999999995 L 0.0,72.036 L 5.019,76.287 L 22.311,55.873000000000005 C 23.734,56.656000000000006 25.286,57.231 26.924,57.565000000000005 L 26.924,93.422 L 10.479,93.422 L 10.479,100.0 L 49.947,100.0 L 49.947,93.422 L 33.503,93.422 L 33.503,57.568 C 38.962,56.455 43.444,52.628 45.478,47.563 M 26.711,50.678 C 24.595,49.872 22.825,48.357 21.694,46.424 C 20.839,44.964 20.346,43.266 20.346,41.455 C 20.346,38.376999999999995 21.763,35.625 23.978,33.814 C 25.668000000000003,32.432 27.823,31.599 30.168000000000003,31.589 C 30.183000000000003,31.589 30.197000000000003,31.587999999999997 30.213000000000005,31.587999999999997 C 35.11600000000001,31.587999999999997 39.194,35.184 39.952000000000005,39.876999999999995 C 40.035000000000004,40.391 40.07900000000001,40.91799999999999 40.07900000000001,41.455 C 40.07900000000001,43.235 39.60300000000001,44.905 38.775000000000006,46.349 C 37.072,49.31699999999999 33.873000000000005,51.32299999999999 30.213000000000008,51.32299999999999 C 28.98,51.323 27.801,51.093 26.711,50.678"/>
</svg>
