<?xml version="1.0" ?>
<svg xmlns="http://www.w3.org/2000/svg" xmlns:ev="http://www.w3.org/2001/xml-events" xmlns:xlink="http://www.w3.org/1999/xlink" baseProfile="full" enable-background="new 0 0 98.398 100" height="600px" version="1.1" viewBox="0 0 98.398 100" width="591px" x="0px" xml:space="preserve" y="0px">
	<defs/>
	<path d="M 78.131,20.288 C 82.665,20.288 86.35,16.605 86.35,12.075000000000001 C 86.35,7.535000000000001 82.66499999999999,3.8530000000000015 78.131,3.8530000000000015 C 73.59700000000001,3.8530000000000015 69.912,7.536000000000001 69.912,12.075000000000001 C 69.912,16.606 73.597,20.288 78.131,20.288"/>
	<path d="M 97.063,43.004 L 73.911,21.725 C 73.137,20.972 72.238,20.368000000000002 71.245,19.929000000000002 L 53.209,13.503000000000002 L 45.014,1.626 C 44.382000000000005,0.7769999999999999 43.412000000000006,0.17099999999999982 42.273,0.02499999999999991 C 40.117000000000004,-0.21800000000000008 38.176,1.335 37.911,3.492 C 37.812000000000005,4.411 38.032000000000004,5.281 38.492000000000004,6.013 L 46.857000000000006,18.111 C 47.24400000000001,18.619 47.730000000000004,19.009 48.31300000000001,19.275000000000002 L 58.00800000000001,23.103 L 42.05700000000001,31.248 C 39.851000000000006,32.536 38.24900000000001,34.743 37.81300000000001,37.36 L 37.912000000000006,51.931 L 23.184000000000005,58.571999999999996 C 21.510000000000005,59.352 20.321000000000005,61.022999999999996 20.250000000000004,62.985 C 20.200000000000003,64.146 20.558000000000003,65.22 21.174000000000003,66.103 C 16.317000000000004,64.256 13.231000000000003,63.081999999999994 13.231000000000003,63.081999999999994 C 11.741000000000003,62.50999999999999 10.576000000000004,61.297999999999995 10.066000000000003,59.75999999999999 C 9.157000000000002,57.05999999999999 6.222000000000003,55.60499999999999 3.5200000000000022,56.51099999999999 C 0.8170000000000024,57.42199999999999 -0.6379999999999981,60.353999999999985 0.27100000000000213,63.060999999999986 C 1.774000000000002,67.53099999999999 5.168000000000003,71.05999999999999 9.558000000000003,72.73099999999998 L 78.53,98.96 C 82.941,100.64599999999999 87.815,100.268 91.876,97.92899999999999 C 94.351,96.51799999999999 95.197,93.36499999999998 93.77900000000001,90.88999999999999 C 92.36200000000001,88.41099999999999 89.21100000000001,87.564 86.73800000000001,88.98399999999998 C 85.36900000000001,89.77099999999999 83.70700000000001,89.89599999999999 82.20400000000001,89.31099999999998 C 82.2,89.31099999999998 74.92800000000001,86.54599999999998 65.111,82.81299999999997 C 66.882,82.19999999999997 68.227,80.62699999999998 68.482,78.69999999999997 L 71.17099999999999,56.90199999999997 C 71.196,56.80499999999997 71.196,56.70699999999997 71.196,56.60999999999997 C 71.267,55.08599999999997 70.664,53.678999999999974 69.621,52.70399999999997 L 58.03099999999999,42.42699999999997 L 75.487,33.815999999999974 L 91.705,48.75599999999997 C 92.43299999999999,49.458999999999975 93.404,49.888999999999974 94.494,49.888999999999974 C 96.674,49.867999999999974 98.419,48.09999999999997 98.397,45.91499999999998 C 98.398,44.752 97.865,43.708 97.063,43.004 M 60.675,58.308 L 58.372,77.439 C 58.372,77.53599999999999 58.349,77.654 58.349,77.77199999999999 C 58.306,78.76299999999999 58.562,79.692 59.017999999999994,80.496 C 48.20199999999999,76.384 35.72,71.637 26.522999999999996,68.139 C 26.889999999999997,68.047 27.244999999999997,67.925 27.572999999999997,67.762 L 45.62,59.618 C 46.906,58.915 47.873,57.675000000000004 48.189,56.2 L 48.142,47.128 L 60.675,58.308"/>
</svg>
