<?xml version="1.0" ?>
<svg xmlns="http://www.w3.org/2000/svg" xmlns:ev="http://www.w3.org/2001/xml-events" xmlns:xlink="http://www.w3.org/1999/xlink" baseProfile="full" enable-background="new 0 0 100 100" height="600px" version="1.1" viewBox="0 0 100 100" width="599px" x="0px" xml:space="preserve" y="0px">
	<defs/>
	<path d="M 29.515,89.811 C 29.112000000000002,89.811 28.7,89.71300000000001 28.319,89.504 C 24.444,87.387 20.907,84.711 17.802999999999997,81.557 C 16.833999999999996,80.571 16.845999999999997,78.98700000000001 17.83,78.022 C 18.813,77.051 20.395,77.06500000000001 21.365,78.049 C 24.125999999999998,80.85600000000001 27.273,83.23500000000001 30.717999999999996,85.117 C 31.928999999999995,85.781 32.373,87.299 31.711999999999996,88.51 C 31.258,89.34 30.399,89.811 29.515,89.811" fill="#000000"/>
	<path d="M 12.242,72.246 C 11.344000000000001,72.246 10.474,71.75999999999999 10.025,70.908 C 7.9670000000000005,66.992 6.5040000000000004,62.804 5.6770000000000005,58.457 C 5.418,57.102000000000004 6.309,55.793 7.666,55.533 C 9.017,55.275 10.33,56.166000000000004 10.589,57.523 C 11.321,61.38 12.620000000000001,65.101 14.451,68.584 C 15.093,69.807 14.624,71.318 13.401,71.95700000000001 C 13.031,72.152 12.632,72.246 12.242,72.246" fill="#000000"/>
	<path d="M 91.57,60.834 C 91.40899999999999,60.834 91.24499999999999,60.82 91.079,60.785000000000004 C 89.726,60.517 88.84599999999999,59.201 89.116,57.846000000000004 C 89.627,55.28 89.886,52.641000000000005 89.886,50.0 C 89.886,48.707 89.823,47.408 89.69999999999999,46.135 C 89.56799999999998,44.76 90.576,43.539 91.951,43.408 C 93.32799999999999,43.277 94.54599999999999,44.283 94.678,45.656 C 94.815,47.089999999999996 94.886,48.549 94.886,50.0 C 94.886,52.969 94.595,55.938 94.02199999999999,58.822 C 93.784,60.012 92.739,60.834 91.57,60.834" fill="#000000"/>
	<path d="M 7.618,48.051 C 7.53,48.051 7.445,48.047000000000004 7.357,48.037 C 5.982,47.894 4.986000000000001,46.664 5.128,45.293 C 5.587,40.885 6.69,36.588 8.407,32.519999999999996 C 8.944,31.246999999999996 10.411,30.650999999999996 11.683,31.187999999999995 C 12.954,31.722999999999995 13.55,33.19 13.013,34.462999999999994 C 11.488,38.077999999999996 10.508,41.894999999999996 10.100999999999999,45.81099999999999 C 9.966,47.094 8.88,48.051 7.618,48.051" fill="#000000"/>
	<path d="M 89.194,36.311 C 88.211,36.311 87.278,35.729 86.88,34.766 C 85.386,31.139 83.36399999999999,27.756 80.869,24.701999999999998 C 79.995,23.636 80.154,22.057 81.223,21.186 C 82.289,20.315 83.867,20.471 84.739,21.538 C 87.54400000000001,24.972 89.819,28.78 91.50200000000001,32.858000000000004 C 92.02900000000001,34.135000000000005 91.424,35.596000000000004 90.14500000000001,36.124 C 89.834,36.25 89.512,36.311 89.194,36.311" fill="#000000"/>
	<path d="M 17.181,25.354 C 16.617,25.354 16.05,25.163 15.584000000000001,24.776 C 14.522000000000002,23.893 14.378000000000002,22.317 15.259000000000002,21.255 C 18.086000000000002,17.855 21.39,14.893999999999998 25.073,12.453999999999999 C 26.223,11.69 27.776,12.004999999999999 28.538,13.156999999999998 C 29.297,14.306999999999999 28.982,15.859999999999998 27.832,16.622 C 24.556,18.792 21.621000000000002,21.427 19.106,24.45 C 18.612,25.045 17.899,25.354 17.181,25.354" fill="#000000"/>
	<path d="M 73.602,17.229 C 73.12100000000001,17.229 72.635,17.092 72.20700000000001,16.801 C 68.94000000000001,14.601999999999999 65.38400000000001,12.902999999999999 61.63400000000001,11.751999999999999 C 60.31600000000001,11.347999999999999 59.57300000000001,9.947 59.979000000000006,8.626999999999999 C 60.38400000000001,7.308999999999999 61.78300000000001,6.567999999999999 63.101000000000006,6.972999999999999 C 67.322,8.268 71.326,10.18 75.0,12.656 C 76.146,13.427000000000001 76.448,14.98 75.677,16.125 C 75.195,16.842 74.404,17.229 73.602,17.229" fill="#000000"/>
	<path d="M 37.733,11.762 C 36.656,11.762 35.66,11.061 35.336999999999996,9.975000000000001 C 34.943999999999996,8.653000000000002 35.696,7.260000000000002 37.019999999999996,6.868000000000001 C 41.177,5.627 45.506,5.0 49.886,5.0 L 50.059000000000005,5.0 C 51.438,5.0 52.559000000000005,6.119 52.559000000000005,7.5 C 52.559000000000005,8.881 51.43900000000001,10.0 50.059000000000005,10.0 L 49.859,10.0 C 45.992000000000004,10.0 42.142,10.557 38.448,11.66 C 38.208,11.73 37.969,11.762 37.733,11.762" fill="#000000"/>
	<path d="M 48.636,95.0 C 46.426,95.0 44.207,94.838 42.039,94.518 C 40.672000000000004,94.319 39.729,93.047 39.927,91.682 C 40.127,90.315 41.4,89.366 42.766999999999996,89.57300000000001 C 43.876999999999995,89.73700000000001 45.004999999999995,89.85400000000001 46.135999999999996,89.91900000000001 L 46.135999999999996,83.75 C 46.135999999999996,82.369 47.254,81.25 48.635999999999996,81.25 C 50.01499999999999,81.25 51.135999999999996,82.369 51.135999999999996,83.75 L 51.135999999999996,92.5 C 51.136,93.879 50.015,95.0 48.636,95.0" fill="#000000"/>
	<path d="M 91.982,80.512 L 86.199,76.565 C 87.441,74.87 88.572,73.096 89.568,71.237 C 90.217,70.02199999999999 89.76299999999999,68.50699999999999 88.545,67.854 C 87.32900000000001,67.202 85.81400000000001,67.659 85.161,68.874 C 84.251,70.573 83.21600000000001,72.19999999999999 82.07000000000001,73.747 L 76.83900000000001,70.179 C 76.44500000000001,69.909 75.933,69.89 75.51800000000001,70.122 C 75.10600000000001,70.356 74.86200000000001,70.804 74.88300000000001,71.276 L 75.69400000000002,86.315 C 75.71600000000002,86.706 75.91700000000002,87.06099999999999 76.23600000000002,87.28 C 76.45100000000002,87.425 76.69500000000002,87.501 76.94400000000002,87.501 C 77.07600000000002,87.501 77.20800000000001,87.47800000000001 77.33500000000002,87.43900000000001 L 91.66900000000003,82.73200000000001 C 92.12300000000002,82.58400000000002 92.45000000000003,82.19100000000002 92.51900000000002,81.72000000000001 C 92.583,81.25 92.376,80.781 91.982,80.512" fill="#000000"/>
	<path d="M 74.886,30.0 C 49.595,30.0 47.51,46.178 47.393,55.244 C 45.064,48.668 38.578,42.876999999999995 21.136,43.75 C 21.136,43.75 21.136,65.0 42.385999999999996,65.0 C 42.385999999999996,65.0 43.711,58.125 34.364,51.25 C 34.364,51.25 46.135999999999996,53.75 46.135999999999996,67.5 L 46.135999999999996,68.75 L 46.135999999999996,72.5 C 46.135999999999996,73.879 47.254,75.0 48.635999999999996,75.0 C 50.01499999999999,75.0 51.135999999999996,73.879 51.135999999999996,72.5 L 51.135999999999996,68.75 L 51.135999999999996,66.25 L 51.135999999999996,60.0 C 51.135999999999996,42.5 63.635999999999996,38.75 63.635999999999996,38.75 C 54.885999999999996,47.5 54.885999999999996,56.25 54.885999999999996,56.25 C 76.136,56.25 74.886,30.0 74.886,30.0" fill="#000000"/>
</svg>
