<?xml version="1.0" ?>
<svg xmlns="http://www.w3.org/2000/svg" xmlns:ev="http://www.w3.org/2001/xml-events" xmlns:xlink="http://www.w3.org/1999/xlink" baseProfile="full" enable-background="new 0 0 100 58.526" height="352px" version="1.1" viewBox="0 0 100 58.526" width="600px" x="0px" xml:space="preserve" y="0px">
	<defs/>
	<path d="M 98.878,38.354 L 100.0,38.296 C 99.326,27.836 90.632,19.558 80.001,19.558 C 76.70100000000001,19.558 73.592,20.36 70.84700000000001,21.772 L 66.27900000000001,13.724999999999998 L 67.49000000000001,11.038999999999998 C 67.74000000000001,11.087999999999997 67.959,11.113999999999997 68.135,11.113999999999997 C 69.311,11.113999999999997 73.30900000000001,7.483999999999997 72.543,5.5349999999999975 C 72.21300000000001,4.694999999999998 70.284,5.496999999999997 67.87,6.003999999999998 C 67.33200000000001,6.116999999999998 65.677,6.107999999999998 64.718,6.003999999999998 C 62.48500000000001,5.761999999999998 60.524,5.241999999999997 60.153000000000006,6.262999999999998 C 59.70700000000001,7.495999999999999 62.767,9.334999999999997 65.334,10.357999999999997 L 64.68,11.808999999999997 L 32.187,11.808999999999997 L 33.159,9.098999999999997 L 32.894,9.003999999999996 L 34.382999999999996,4.852999999999996 L 34.34,4.838 L 34.34,4.837 C 33.742000000000004,4.630999999999999 32.417,3.96 32.132000000000005,3.194 C 32.069,3.023 32.013000000000005,2.745 32.26500000000001,2.316 C 32.73700000000001,1.5099999999999998 36.75800000000001,1.4819999999999998 40.86900000000001,2.256 L 41.182,0.6 C 39.099000000000004,0.20799999999999996 32.194,-0.8910000000000001 30.813000000000002,1.463 C 30.365000000000002,2.228 30.275000000000002,3.029 30.553,3.7800000000000002 C 30.867,4.627000000000001 31.599,5.2620000000000005 32.29,5.699 L 31.308,8.437 L 31.043,8.341999999999999 L 26.489,21.04 C 24.154,20.087 21.6,19.558 18.923000000000002,19.558 C 17.907000000000004,19.558 16.910000000000004,19.635 15.935000000000002,19.781 L 16.119000000000003,20.89 C 6.998,22.245 0.0,30.106 0.0,39.604 C 0.0,50.055 8.472,58.527 18.923,58.527 C 26.753,58.527 33.471,53.772 36.349,46.992000000000004 L 37.376,47.44500000000001 C 38.400999999999996,45.037000000000006 38.968999999999994,42.38700000000001 38.968999999999994,39.604000000000006 C 38.968999999999994,32.01400000000001 34.748999999999995,25.41100000000001 28.528999999999996,22.007000000000005 L 29.518999999999995,19.247000000000007 L 47.669,39.400000000000006 C 47.019,40.29200000000001 46.626,41.383 46.626,42.572 C 46.626,45.561 49.049,47.985 52.039,47.985 C 52.259,47.985 52.476,47.967 52.688,47.942 L 53.539,51.168 L 52.309000000000005,51.168 L 52.309000000000005,53.415 L 57.104000000000006,53.415 L 57.104000000000006,51.168 L 55.282000000000004,51.168 L 54.31,47.48 C 56.083000000000006,46.657 57.327000000000005,44.903999999999996 57.431000000000004,42.845 L 61.29900000000001,42.435 C 62.666000000000004,51.540000000000006 70.51400000000001,58.526 80.001,58.526 C 90.45100000000001,58.526 98.924,50.054 98.924,39.60300000000001 C 98.924,39.17900000000001 98.90400000000001,38.760000000000005 98.87700000000001,38.342000000000006 C 98.878,38.347 98.878,38.35 98.878,38.354 M 34.476,39.604 C 34.476,48.194 27.512999999999998,55.158 18.923,55.158 C 10.332999999999998,55.158 3.37,48.193 3.37,39.604 C 3.37,31.015 10.333,24.051 18.923000000000002,24.051 C 21.197000000000003,24.051 23.356,24.543999999999997 25.303,25.421 L 22.745,32.553 L 19.736,37.175 C 19.486,37.093999999999994 19.224,37.038999999999994 18.947,37.038999999999994 C 17.529999999999998,37.038999999999994 16.381999999999998,38.187 16.381999999999998,39.602999999999994 C 16.381999999999998,41.019999999999996 17.529999999999998,42.16799999999999 18.947,42.16799999999999 C 20.364,42.16799999999999 21.512,41.01999999999999 21.512,39.602999999999994 C 21.512,39.080999999999996 21.354,38.59499999999999 21.085,38.18899999999999 L 24.21,33.388999999999996 L 26.810000000000002,26.199999999999996 C 31.396,28.905 34.476,33.894 34.476,39.604 M 53.19,37.285 C 52.818,37.20399999999999 52.434,37.159 52.038999999999994,37.159 C 51.852999999999994,37.159 51.67099999999999,37.169 51.49099999999999,37.186 L 50.53799999999999,33.573 L 51.90899999999999,33.573 L 51.90899999999999,31.327 L 47.11399999999999,31.327 L 47.11399999999999,33.573 L 48.79599999999999,33.573 L 49.861999999999995,37.618 C 49.67999999999999,37.698 49.50899999999999,37.796 49.337999999999994,37.894000000000005 L 30.38,16.846 L 31.38,14.057 L 63.663,14.057 L 53.19,37.285 M 60.004,40.879 L 57.262,41.169999999999995 C 56.938,39.967999999999996 56.214,38.931 55.237,38.212999999999994 L 65.422,15.626999999999995 L 69.383,22.603999999999996 C 63.723,26.146999999999995 59.955999999999996,32.434999999999995 59.955999999999996,39.604 C 59.955,40.033 59.976,40.457 60.004,40.879 M 64.448,39.604 C 64.448,34.109 67.30099999999999,29.283 71.60199999999999,26.517 L 77.86599999999999,37.55 C 77.46999999999998,37.961 77.19399999999999,38.483999999999995 77.08599999999998,39.067 L 64.46799999999999,40.407000000000004 C 64.455,40.14 64.448,39.873 64.448,39.604 M 80.001,55.157 C 72.254,55.157 65.833,49.492 64.647,42.08 L 77.26100000000001,40.741 C 77.70700000000001,41.815 78.766,42.571 80.001,42.571 C 81.641,42.571 82.97,41.242999999999995 82.97,39.602999999999994 C 82.97,37.96399999999999 81.641,36.63499999999999 80.001,36.63499999999999 C 79.771,36.63499999999999 79.548,36.66699999999999 79.33200000000001,36.71699999999999 L 73.06700000000001,25.68199999999999 C 75.15400000000001,24.63999999999999 77.50800000000001,24.04999999999999 80.001,24.04999999999999 C 88.59100000000001,24.04999999999999 95.554,31.01399999999999 95.554,39.602999999999994 C 95.554,48.193 88.591,55.157 80.001,55.157"/>
</svg>
