<?xml version="1.0" ?>
<svg xmlns="http://www.w3.org/2000/svg" xmlns:ev="http://www.w3.org/2001/xml-events" xmlns:xlink="http://www.w3.org/1999/xlink" baseProfile="full" enable-background="new 0 0 100 100" height="600px" version="1.1" viewBox="0 0 100 100" width="406px" x="0px" xml:space="preserve" y="0px">
	<defs/>
	<path d="M 41.675,19.211 C 39.751999999999995,24.674999999999997 40.361999999999995,37.551 32.06699999999999,37.846999999999994 C 24.380999999999993,38.12 17.65599999999999,29.499999999999993 17.65599999999999,19.207999999999995 C 17.65599999999999,8.912999999999995 24.106999999999992,0.5699999999999932 32.06699999999999,0.5699999999999932 C 40.024,0.57 46.317,6.022 41.675,19.211"/>
	<path d="M 38.371,47.259 C 38.371,49.437 35.549,51.202 32.068000000000005,51.202 C 28.585000000000004,51.202 25.763000000000005,49.437 25.763000000000005,47.259 C 25.763000000000005,45.085 28.584000000000007,43.319 32.068000000000005,43.319 C 35.548,43.319 38.371,45.085 38.371,47.259"/>
	<path d="M 59.681,66.242 C 61.604,71.706 60.992,84.58200000000001 69.289,84.87700000000001 C 76.974,85.15100000000001 83.699,76.531 83.699,66.23800000000001 C 83.699,55.94400000000002 77.246,47.60000000000001 69.289,47.60000000000001 C 61.329,47.601 55.038,53.053 59.681,66.242"/>
	<path cx="69.289" cy="94.29" d="M 62.984,94.29 A 6.305,3.942 0.0 1,0 75.594,94.29 A 6.305,3.942 0.0 1,0 62.983999999999995,94.29" rx="6.305" ry="3.942"/>
</svg>
