<?xml version="1.0" ?>
<svg xmlns="http://www.w3.org/2000/svg" xmlns:ev="http://www.w3.org/2001/xml-events" xmlns:xlink="http://www.w3.org/1999/xlink" baseProfile="full" enable-background="new 0 0 100 100" height="164px" version="1.1" viewBox="0 0 100 100" width="600px" x="0px" xml:space="preserve" y="0px">
	<defs/>
	<path d="M 74.025,51.581 L 59.87500000000001,51.581 C 59.00300000000001,51.581 58.29600000000001,50.874 58.29600000000001,50.002 C 58.29600000000001,49.13 59.00300000000001,48.423 59.87500000000001,48.423 L 74.025,48.423 C 74.896,48.423 75.604,49.13 75.604,50.002 C 75.604,50.875 74.896,51.581 74.025,51.581"/>
	<path d="M 96.469,51.581 L 82.319,51.581 C 81.447,51.581 80.739,50.874 80.739,50.002 C 80.739,49.13 81.447,48.423 82.319,48.423 L 96.468,48.423 C 97.34,48.423 98.047,49.13 98.047,50.002 C 98.048,50.875 97.341,51.581 96.469,51.581"/>
	<path d="M 54.699,49.777 C 54.692,49.701 54.678999999999995,49.626 54.665,49.550000000000004 C 54.650999999999996,49.476000000000006 54.634,49.404 54.613,49.331 C 54.591,49.258 54.564,49.187000000000005 54.536,49.115 C 54.507,49.042 54.474000000000004,48.972 54.438,48.902 C 54.403000000000006,48.836 54.364000000000004,48.772 54.322,48.708 C 54.277,48.638999999999996 54.229,48.573 54.176,48.507999999999996 C 54.152,48.47899999999999 54.136,48.446999999999996 54.111000000000004,48.419 C 54.082,48.387 54.047000000000004,48.363 54.017,48.333999999999996 C 53.986000000000004,48.303 53.962,48.269 53.93,48.239999999999995 L 41.796,37.344 C 40.822,36.47 39.325,36.551 38.451,37.524 C 37.577,38.498 37.658,39.995000000000005 38.631,40.869 L 46.164,47.633 L 1.574,47.633 L 1.574,52.371 L 46.164,52.371 L 38.906,58.889 C 37.932,59.763000000000005 37.852,61.261 38.726,62.235 C 39.194,62.756 39.839999999999996,63.021 40.49,63.021 C 41.053000000000004,63.021 41.619,62.821 42.072,62.415 L 53.926,51.77 C 53.927,51.769000000000005 53.928000000000004,51.768 53.929,51.767 L 53.931000000000004,51.765 C 53.932,51.764 53.932,51.764 53.93300000000001,51.763 C 53.995000000000005,51.707 54.05500000000001,51.649 54.11200000000001,51.585 C 54.13700000000001,51.557 54.15400000000001,51.523 54.17700000000001,51.495 C 54.230000000000004,51.431 54.278000000000006,51.364999999999995 54.32300000000001,51.296 C 54.36500000000001,51.233 54.40400000000001,51.168 54.43900000000001,51.102 C 54.47500000000001,51.032 54.507000000000005,50.961999999999996 54.537000000000006,50.88999999999999 C 54.565000000000005,50.818999999999996 54.592000000000006,50.74699999999999 54.614000000000004,50.67399999999999 C 54.635000000000005,50.60099999999999 54.652,50.52899999999999 54.666000000000004,50.45499999999999 C 54.681000000000004,50.37899999999999 54.693000000000005,50.30499999999999 54.7,50.227999999999994 C 54.707,50.15299999999999 54.709,50.077999999999996 54.709,50.001999999999995 C 54.709,49.925999999999995 54.706,49.852 54.699,49.777"/>
</svg>
