<?xml version="1.0" ?>
<svg xmlns="http://www.w3.org/2000/svg" xmlns:ev="http://www.w3.org/2001/xml-events" xmlns:xlink="http://www.w3.org/1999/xlink" baseProfile="full" enable-background="new 0 0 100 100" height="214px" version="1.1" viewBox="0 0 100 100" width="600px" x="0px" xml:space="preserve" y="0px">
	<defs/>
	<path d="M 9.083,40.75 L 5.25,44.917 L 3.833,43.5 C 3.833,43.5 3.1660000000000004,42.833 3.833,42.0 C 4.5,41.167 4.4990000000000006,39.083 4.166,38.5 C 3.833,37.917 5.333,36.667 5.333,36.667 L 5.666,34.084 C 5.666,34.084 5.953,33.834 6.3100000000000005,34.084 C 6.667000000000001,34.334 7.25,34.917 7.25,34.917 C 7.25,34.917 7.667,35.0 8.583,34.667 C 9.499,34.334 12.583,33.0 17.166,34.834 C 21.749000000000002,36.668000000000006 24.916,40.251000000000005 32.416,37.667 C 32.416,37.667 39.583,36.333 41.416,40.25 C 41.416,40.25 49.833,38.083 49.583,48.833 L 46.282,47.705999999999996 C 46.282,47.705999999999996 47.166,41.74999999999999 42.666,41.833 C 42.666,41.833 43.748999999999995,45.842999999999996 43.623999999999995,46.437 C 43.498999999999995,47.031 44.217999999999996,50.281 44.217999999999996,50.281 L 46.279999999999994,53.125 L 46.31099999999999,63.906 L 43.84199999999999,63.906 L 43.84199999999999,54.937 C 43.84199999999999,54.937 39.56099999999999,52.406 39.15399999999999,51.437 C 39.15399999999999,51.437 38.51899999999999,51.062 38.22699999999999,51.748999999999995 L 38.83099999999999,56.06099999999999 C 38.83099999999999,56.06099999999999 38.78899999999999,56.519999999999996 38.41399999999999,56.91499999999999 C 38.03899999999999,57.30999999999999 34.871999999999986,63.90399999999999 34.871999999999986,63.90399999999999 L 31.829999999999984,63.90399999999999 L 35.66299999999998,56.68499999999999 C 35.66299999999998,56.68499999999999 36.37099999999998,55.22799999999999 35.78799999999998,54.33099999999999 C 35.204999999999984,53.43399999999999 32.89199999999998,48.89299999999999 32.89199999999998,48.89299999999999 C 32.89199999999998,48.89299999999999 32.47499999999998,48.204999999999984 31.308999999999983,48.89299999999999 C 30.142999999999986,49.58099999999999 24.912999999999982,50.16399999999999 23.912999999999982,50.33099999999999 L 23.829999999999984,63.90399999999999 L 21.0,63.90399999999999 L 21.0,56.0 C 21.0,56.0 17.917,51.0 17.833,50.75 L 14.165999999999999,53.584 C 14.165999999999999,53.584 13.499999999999998,54.75 14.082999999999998,55.5 C 14.665999999999999,56.25 15.415999999999999,57.5 15.415999999999999,57.5 L 14.165999999999999,60.75 L 10.582999999999998,54.167 C 10.582999999999998,54.167 9.582999999999998,53.333 11.165999999999999,52.25 L 15.498999999999999,47.583 C 15.498999999999999,47.583 13.915999999999999,44.583 14.248999999999999,43.25 L 9.083,40.75" fill="#000000" stroke="#010202" stroke-miterlimit="10" stroke-width="0.5"/>
	<path d="M 96.417,46.0 L 96.417,46.0 L 96.417,57.584 L 84.25,57.584 L 83.583,57.584 C 83.583,53.027 79.89,49.334 75.333,49.334 C 70.776,49.334 67.083,53.027 67.083,57.584 L 53.75,57.584 L 53.833,52.75 L 43.934,48.896 L 43.717,46.828 L 53.833,50.417 L 53.833,45.584" fill="#000000" stroke="#010202" stroke-miterlimit="10" stroke-width="0.5"/>
	<path d="M 68.281,37.829 C 68.18700000000001,35.877 66.593,35.937 66.593,35.937 L 66.593,35.125 L 66.593,35.125 C 67.274,34.743 67.666,34.023 67.666,33.187 C 67.666,31.955999999999996 66.66799999999999,30.958 65.437,30.958 C 64.206,30.958 63.208,31.956 63.208,33.187 C 63.208,34.166 63.842,34.986999999999995 64.719,35.288 L 64.719,36.125 C 62.718999999999994,36.25 62.95099999999999,38.031 62.95099999999999,38.031 L 62.95099999999999,40.156 L 59.25,40.156 C 58.094,41.031 59.156,41.717999999999996 59.156,41.717999999999996 C 59.156,41.717999999999996 61.25,41.717999999999996 61.967999999999996,41.717999999999996 C 62.68599999999999,41.717999999999996 62.937,42.156 62.937,42.156 C 62.937,42.156 62.967999999999996,43.0 62.937,43.344 C 62.906,43.688 62.219,44.0 62.219,44.0 C 62.219,44.0 59.688,44.032 58.344,44.0 C 57.0,43.968 56.782000000000004,45.562 56.782000000000004,45.562 L 68.28200000000001,45.562 C 68.326,42.78 68.519,42.775 68.281,37.829" fill="#000000" stroke="#010202" stroke-miterlimit="10" stroke-width="0.5"/>
	<path d="M 69.011,57.584 A 6.322000000000003,6.322000000000003 0.0 1,0 81.655,57.584 A 6.322000000000003,6.322000000000003 0.0 1,0 69.011,57.584" fill="#000000" stroke="#010202" stroke-miterlimit="10" stroke-width="0.5"/>
</svg>
