<?xml version="1.0" ?>
<svg xmlns="http://www.w3.org/2000/svg" xmlns:ev="http://www.w3.org/2001/xml-events" xmlns:xlink="http://www.w3.org/1999/xlink" baseProfile="full" enable-background="new 0 0 72.424 100" height="600px" version="1.1" viewBox="0 0 72.424 100" width="435px" x="0px" xml:space="preserve" y="0px">
	<defs/>
	<path d="M 72.424,67.771 L 72.424,100.0 L 43.196,100.0 L 43.196,84.458 C 43.196,76.488 35.983999999999995,73.878 35.983999999999995,73.878 C 35.983999999999995,73.878 28.769999999999996,76.488 28.769999999999996,84.458 L 28.769999999999996,100.0 L 0.0,100.0 L 0.0,67.771 L 24.255,56.057 L 24.255,24.964 L 36.201,0.0 L 48.16,24.964 L 48.16,56.057 L 72.424,67.771 M 32.087,36.779 L 32.087,43.358000000000004 L 40.282000000000004,43.358000000000004 L 40.282000000000004,36.779 C 40.282000000000004,30.180000000000003 36.18300000000001,28.018000000000004 36.18300000000001,28.018000000000004 C 36.18300000000001,28.018000000000004 32.087,30.18 32.087,36.779"/>
</svg>
