<?xml version="1.0" ?>
<svg xmlns="http://www.w3.org/2000/svg" xmlns:a="http://ns.adobe.com/AdobeSVGViewerExtensions/3.0/" xmlns:ev="http://www.w3.org/2001/xml-events" xmlns:xlink="http://www.w3.org/1999/xlink" baseProfile="full" enable-background="new -4 0 100 100" height="600px" overflow="visible" version="1.1" viewBox="-4 0 100 100" width="547px" x="0px" xml:space="preserve" y="0px">
	<defs/>
	<path d="M 47.981,0.0 C 61.971000000000004,0.0 73.316,11.345 73.316,25.339 C 73.316,39.329 61.971000000000004,50.674 47.981,50.674 C 33.987,50.674 22.641000000000002,39.329 22.641000000000002,25.339 C 22.642,11.345 33.987,0.0 47.981,0.0" fill="#000000"/>
	<path d="M 73.624,55.0 L 22.337,55.0 C 11.403,55.0 0.0,63.59 0.0,74.523 L 0.0,100.0 L 91.0,100.0 L 91.0,74.523 C 91.0,63.59 84.554,55.0 73.624,55.0 M 47.457,93.916 C 38.391,93.916 31.041,86.567 31.041,77.5 C 31.041,68.433 38.391,61.084 47.457,61.084 C 52.527,61.084 57.06,63.388000000000005 60.072,66.998 C 58.103,65.717 55.774,64.94500000000001 53.251000000000005,64.94500000000001 C 46.318000000000005,64.94500000000001 40.69800000000001,70.566 40.69800000000001,77.5 C 40.69800000000001,84.434 46.318000000000005,90.055 53.251000000000005,90.055 C 55.77400000000001,90.055 58.104000000000006,89.284 60.072,88.00200000000001 C 57.06,91.612 52.527,93.916 47.457,93.916 M 62.908,85.225 L 57.114000000000004,81.36399999999999 L 51.32000000000001,85.225 L 54.217000000000006,78.66399999999999 L 48.423,75.0 L 55.184000000000005,75.0 L 57.115,69.206 L 59.045,75.0 L 65.806,75.0 L 60.012,78.664 L 62.908,85.225" fill="#000000"/>
</svg>
