<?xml version="1.0" ?>
<svg xmlns="http://www.w3.org/2000/svg" xmlns:ev="http://www.w3.org/2001/xml-events" xmlns:xlink="http://www.w3.org/1999/xlink" baseProfile="full" enable-background="new 0 0 100 84.268" height="506px" version="1.1" viewBox="0 0 100 84.268" width="600px" x="0px" xml:space="preserve" y="0px">
	<defs/>
	<path d="M 99.921,52.626 C 99.744,51.631 99.10300000000001,50.788999999999994 98.882,49.815 C 98.35000000000001,48.11 98.59400000000001,46.296 98.527,44.546 C 98.43900000000001,34.19 96.005,23.942 91.887,14.448 C 91.158,12.633000000000001 89.741,11.15 89.12,9.291 C 88.724,7.853000000000001 89.807,6.636000000000001 90.227,5.3740000000000006 C 90.293,3.3820000000000006 89.297,1.2570000000000006 87.616,0.17300000000000093 C 85.248,-0.18099999999999905 82.792,0.10700000000000093 80.4,0.15100000000000094 C 76.24000000000001,0.4170000000000009 72.057,0.10700000000000094 67.91900000000001,0.616000000000001 C 68.07400000000001,1.1470000000000011 68.11800000000001,1.767000000000001 68.53900000000002,2.188000000000001 C 69.22600000000001,2.697000000000001 70.13200000000002,2.719000000000001 70.95100000000002,2.852000000000001 C 73.62800000000003,2.985000000000001 76.30600000000003,2.918000000000001 78.98400000000002,3.2060000000000013 C 74.66900000000003,3.450000000000001 70.33100000000002,3.715000000000001 66.01500000000003,3.5600000000000014 C 62.89500000000003,3.6700000000000013 60.79200000000003,0.39500000000000135 57.60500000000003,0.7270000000000012 C 52.82500000000003,0.7270000000000012 48.022000000000034,0.6610000000000011 43.220000000000034,0.7490000000000012 C 41.82500000000003,0.4170000000000012 41.250000000000036,1.8110000000000013 40.476000000000035,2.6080000000000014 C 38.949000000000034,2.3420000000000014 37.35500000000003,2.3420000000000014 35.829000000000036,2.5200000000000014 C 34.146000000000036,3.3830000000000013 32.199000000000034,3.0950000000000015 30.384000000000036,3.3830000000000013 C 29.012000000000036,3.405000000000001 27.884000000000036,4.157000000000002 26.732000000000035,4.800000000000002 C 25.316000000000034,5.618000000000001 23.723000000000035,6.504000000000001 23.170000000000034,8.186000000000002 C 15.8,8.363 8.408,8.097 1.038,8.584 C -0.379,8.85 -0.35599999999999987,11.460999999999999 1.171,11.55 C 8.519,11.816 15.888,11.108 23.236,11.373000000000001 C 24.873,14.338000000000001 28.127000000000002,15.888000000000002 31.336,16.352 C 34.455999999999996,16.684 37.555,17.171 40.697,16.75 C 42.666000000000004,19.694 45.92,21.309 48.664,23.412 C 50.39,24.607 51.94,26.156 53.910000000000004,26.974999999999998 C 55.946000000000005,27.262999999999998 58.005,27.040999999999997 60.040000000000006,27.019 C 64.62100000000001,26.686999999999998 69.226,27.063 73.762,26.509999999999998 C 74.094,26.953 74.315,27.639 74.913,27.772 C 76.107,27.86 77.303,27.418 78.49799999999999,27.660999999999998 C 79.67099999999999,28.169999999999998 80.181,29.607999999999997 80.02499999999999,30.825999999999997 C 79.892,33.193999999999996 80.666,35.54 80.39999999999999,37.907999999999994 C 80.446,38.50599999999999 80.091,39.522999999999996 80.821,39.89999999999999 C 81.728,40.40899999999999 82.724,40.71799999999999 83.655,41.20599999999999 C 84.629,41.691999999999986 86.088,41.691999999999986 86.399,42.953999999999986 C 86.93,45.05699999999999 86.863,47.26999999999999 86.996,49.43799999999999 C 87.506,52.93499999999999 84.208,55.21499999999999 82.94699999999999,58.15899999999999 C 82.72399999999999,59.79699999999999 84.07499999999999,61.123999999999995 85.04899999999999,62.25299999999999 C 86.842,63.11699999999999 88.98899999999999,62.56399999999999 90.869,62.297999999999995 C 91.887,62.25299999999999 93.172,61.455999999999996 94.034,62.31999999999999 C 95.00800000000001,63.29399999999999 95.938,64.33399999999999 96.62400000000001,65.50699999999999 C 97.066,68.22899999999998 96.02600000000001,71.01799999999999 94.543,73.29599999999999 C 93.17200000000001,75.466 91.68900000000001,77.701 89.409,78.984 C 87.30600000000001,80.202 85.07100000000001,81.353 82.613,81.484 C 79.095,81.50699999999999 75.444,81.375 72.19,79.86999999999999 C 73.185,78.89599999999999 74.205,77.94399999999999 75.201,76.948 C 77.878,74.29199999999999 79.317,70.63999999999999 80.047,66.98899999999999 C 80.512,63.64799999999999 79.86999999999999,60.23899999999999 78.741,57.07399999999999 C 77.435,53.75499999999999 75.467,50.52299999999999 72.456,48.53099999999999 C 69.424,46.53999999999999 66.104,44.879999999999995 62.518,44.28199999999999 C 57.052,43.28599999999999 51.453,42.53399999999999 46.296,40.36499999999999 C 41.671,38.81599999999999 37.355,36.51399999999999 33.194,33.990999999999985 C 31.512000000000004,32.75199999999999 29.609,31.555999999999987 28.635,29.630999999999986 C 28.037000000000003,28.524999999999984 27.042,27.594999999999985 26.754,26.333999999999985 C 26.532,24.717999999999986 26.687,23.080999999999985 26.422,21.463999999999984 C 26.024,20.600999999999985 25.227,20.025999999999986 24.63,19.317999999999984 C 24.121,19.671999999999983 23.612,20.047999999999984 23.102999999999998,20.423999999999985 C 21.729999999999997,19.184999999999985 20.491,17.767999999999986 19.096999999999998,16.550999999999984 C 18.764,16.860999999999983 18.432,17.170999999999985 18.122999999999998,17.502999999999986 C 19.339999999999996,18.764999999999986 20.535999999999998,20.069999999999986 21.773999999999997,21.353999999999985 C 20.601,22.194999999999986 19.473,23.102999999999984 18.254999999999995,23.876999999999985 C 17.015999999999995,22.637999999999984 15.886999999999995,21.287999999999986 14.536999999999995,20.136999999999986 C 14.226999999999995,20.269999999999985 13.894999999999996,20.424999999999986 13.584999999999996,20.556999999999988 C 14.425999999999995,22.216999999999988 15.886999999999995,23.41199999999999 17.081999999999994,24.806999999999988 C 16.594999999999995,25.248999999999988 16.129999999999995,25.669999999999987 15.664999999999994,26.11299999999999 C 16.483999999999995,26.820999999999987 17.257999999999996,27.61699999999999 18.231999999999992,28.12699999999999 C 19.80399999999999,28.63599999999999 21.507999999999992,28.524999999999988 23.05699999999999,29.07799999999999 C 24.406999999999993,29.49799999999999 25.22499999999999,30.73799999999999 26.30999999999999,31.556999999999988 C 28.43499999999999,33.216999999999985 30.47099999999999,34.987999999999985 32.727999999999994,36.447999999999986 C 36.93299999999999,39.036999999999985 41.40299999999999,41.22799999999999 46.07299999999999,42.79999999999998 C 50.05599999999999,44.45899999999998 54.327999999999996,45.16699999999998 58.532999999999994,46.030999999999985 C 62.05199999999999,46.539999999999985 65.70299999999999,47.13599999999998 68.78,49.08399999999998 C 76.658,52.84699999999998 80.023,63.58099999999998 76.21600000000001,71.34899999999999 C 75.066,74.04999999999998 72.85300000000001,76.085 70.64000000000001,77.945 C 70.08600000000001,78.41 69.26700000000001,78.03399999999999 68.75800000000001,77.657 C 65.43800000000002,75.136 63.11500000000001,71.615 60.59200000000001,68.363 C 57.71400000000001,64.335 55.436000000000014,59.952 52.823000000000015,55.747 C 51.496000000000016,53.291 49.658000000000015,50.924 46.981000000000016,49.86 C 43.750000000000014,48.599 39.722000000000016,48.488 36.97700000000002,50.923 C 34.87500000000002,53.112 34.01100000000002,56.211 33.72400000000002,59.177 C 33.52500000000002,63.471 34.14400000000002,67.919 36.20300000000002,71.726 C 38.06200000000002,74.824 40.09800000000002,77.967 43.19700000000002,79.981 C 44.680000000000014,80.97699999999999 46.118000000000016,82.127 47.86700000000002,82.592 C 50.32300000000002,83.278 52.80200000000002,84.208 55.39100000000002,84.208 C 58.62200000000002,84.474 61.83100000000002,83.809 64.97400000000002,83.146 C 66.54500000000002,82.81400000000001 67.89600000000002,81.95100000000001 69.37800000000001,81.419 C 70.92800000000001,81.618 72.29900000000002,82.592 73.82600000000002,82.969 C 77.72100000000002,83.964 81.97100000000002,84.38499999999999 85.86600000000001,83.21199999999999 C 89.00900000000001,82.08399999999999 92.17300000000002,80.55699999999999 94.20900000000002,77.83399999999999 C 95.95800000000001,75.55499999999999 97.68400000000001,73.16399999999999 98.48000000000002,70.37499999999999 C 99.25500000000002,68.09699999999998 99.34300000000002,65.66099999999999 99.52100000000002,63.27099999999999 C 99.612,59.73 100.21,56.189 99.921,52.626 M 2.809,9.226 C 3.2520000000000002,9.204 4.1370000000000005,9.138000000000002 4.58,9.116000000000001 C 4.8,9.713 5.0,10.311 5.177,10.93 C 3.938,11.063 3.384,10.067 2.809,9.226 M 7.522,10.51 C 7.168,10.045 6.8580000000000005,9.558 6.548,9.071 C 7.124,9.115 8.253,9.225999999999999 8.828,9.27 C 9.293,9.645999999999999 9.491999999999999,10.222 9.758,10.731 C 9.205,10.665 8.076,10.576 7.522,10.51 M 11.927,10.532 C 11.573,10.001 11.285,9.425 10.975,8.872 C 11.551,8.916 12.657,9.027 13.209999999999999,9.094 C 13.674,9.536 13.895999999999999,10.177999999999999 14.161,10.754 C 13.608,10.687 12.48,10.576 11.927,10.532 M 16.353,10.532 C 15.999000000000002,10.001 15.711000000000002,9.425 15.401000000000002,8.872 C 15.977000000000002,8.916 17.083000000000002,9.027 17.636000000000003,9.094 C 18.1,9.536 18.322000000000003,10.177999999999999 18.587000000000003,10.754 C 18.035,10.687 16.906,10.576 16.353,10.532 M 20.248,10.687 C 19.983,10.155999999999999 19.717000000000002,9.623999999999999 19.474,9.093 C 20.226,9.071 21.001,9.093 21.753,9.115 C 21.974,9.491 22.439,10.222 22.66,10.598 C 21.864,10.621 21.045,10.665 20.248,10.687 M 60.152,81.618 C 56.943,82.10499999999999 53.6,81.907 50.502,80.91 C 45.788000000000004,79.89099999999999 41.937000000000005,76.46199999999999 39.414,72.477 C 36.692,68.715 35.917,63.914 36.139,59.376000000000005 C 36.183,57.184000000000005 36.913000000000004,55.016000000000005 38.131,53.2 C 39.193,51.673 41.296,51.364000000000004 43.0,51.407000000000004 C 45.523,51.386 47.913,52.73500000000001 49.418,54.727000000000004 C 53.157,60.503 56.147,66.789 60.572,72.123 C 62.408,74.977 64.8,77.435 67.388,79.647 C 65.198,80.91 62.63,81.265 60.152,81.618" fill="#050505"/>
	<path d="M 86.687,57.251 C 85.603,57.449999999999996 85.359,59.153999999999996 86.31099999999999,59.663999999999994 C 87.17299999999999,60.526999999999994 88.58999999999999,59.574999999999996 88.568,58.51299999999999 C 88.37,57.738 87.617,56.809 86.687,57.251" fill="#050505"/>
</svg>
