<?xml version="1.0" ?>
<svg xmlns="http://www.w3.org/2000/svg" xmlns:ev="http://www.w3.org/2001/xml-events" xmlns:xlink="http://www.w3.org/1999/xlink" baseProfile="full" enable-background="new 0 0 91.852 100" height="600px" version="1.1" viewBox="0 0 91.852 100" width="304px" x="0px" xml:space="preserve" y="0px">
	<defs/>
	<path d="M 61.28,17.712 C 61.345,17.129 61.385,16.538 61.385,15.937 C 61.385,7.196 54.299,0.10999999999999943 45.559,0.10999999999999943 C 36.894999999999996,0.10999999999999943 29.869,7.069999999999999 29.741999999999997,15.702 L 29.674999999999997,15.702 L 29.674999999999997,20.919 L 53.554,20.919 L 53.554,25.737000000000002 L 29.676,25.737000000000002 L 29.676,30.842000000000002 L 53.555,30.842000000000002 L 53.555,35.660000000000004 L 29.676,35.660000000000004 L 29.676,40.764 L 53.555,40.764 L 53.555,45.581 L 29.676,45.581 L 29.676,56.306000000000004 L 29.741,56.306000000000004 C 29.741,56.368 29.732,56.42700000000001 29.732,56.48800000000001 C 29.732,65.23100000000001 36.818,72.31700000000001 45.56,72.31700000000001 C 54.300000000000004,72.31700000000001 61.386,65.23100000000001 61.386,56.48800000000001 C 61.386,55.88700000000001 61.346000000000004,55.29800000000001 61.281000000000006,54.714000000000006 L 61.281000000000006,17.712 L 61.28,17.712"/>
	<path d="M 70.84,56.357 L 70.84,45.476 C 70.84,43.82 69.498,42.478 67.842,42.478 C 66.18599999999999,42.478 64.844,43.82 64.844,45.476 L 64.844,56.358 C 64.844,66.952 56.224,75.571 45.62899999999999,75.571 C 35.033999999999985,75.571 26.41599999999999,66.952 26.41599999999999,56.358 L 26.41599999999999,45.476 C 26.41599999999999,43.82 25.07399999999999,42.478 23.41799999999999,42.478 C 21.76199999999999,42.478 20.41899999999999,43.82 20.41899999999999,45.476 L 20.41899999999999,56.358 C 20.41899999999999,69.181 30.045999999999992,79.792 42.45099999999999,81.36 L 42.45099999999999,94.005 L 27.139,94.005 L 27.139,100.0 L 64.615,100.0 L 64.615,94.004 L 48.448,94.004 L 48.448,81.405 C 61.026,79.998 70.84,69.305 70.84,56.357"/>
</svg>
