<?xml version="1.0" ?>
<svg xmlns="http://www.w3.org/2000/svg" xmlns:ev="http://www.w3.org/2001/xml-events" xmlns:xlink="http://www.w3.org/1999/xlink" baseProfile="full" enable-background="new 0 0 91.852 100" height="396px" version="1.1" viewBox="0 0 91.852 100" width="600px" x="0px" xml:space="preserve" y="0px">
	<defs/>
	<path d="M 66.028,52.918 L 66.028,47.266999999999996 C 66.028,47.266999999999996 66.028,38.226 56.98700000000001,38.226 L 52.60900000000001,38.226 L 52.60900000000001,31.39 C 52.60900000000001,28.267 50.35000000000001,24.948 46.168000000000006,24.948 L 20.061,24.948 C 16.938,24.948 13.620000000000001,27.205000000000002 13.620000000000001,31.39 L 13.620000000000001,38.227000000000004 L 9.24,38.227000000000004 C 9.24,38.227000000000004 0.1980000000000004,38.227000000000004 0.1980000000000004,47.268 L 0.1980000000000004,76.369 C 0.1980000000000004,76.369 0.1980000000000004,85.40899999999999 9.24,85.40899999999999 L 56.987,85.40899999999999 C 56.987,85.40899999999999 66.028,85.40899999999999 66.028,76.369 L 66.028,71.566 L 75.352,71.566 L 75.352,52.918 L 66.028,52.918 M 20.4,31.729 L 45.828,31.729 L 45.828,38.227 L 20.4,38.227 L 20.4,31.729 M 55.01,61.704 C 55.01,64.756 51.957,64.756 51.957,64.756 L 38.312,64.756 C 35.262,64.756 35.262,61.704 35.262,61.704 L 35.262,53.653 C 35.262,50.602 38.312,50.602 38.312,50.602 L 51.958,50.602 C 55.010999999999996,50.602 55.010999999999996,53.653 55.010999999999996,53.653 L 55.010999999999996,61.704 L 55.01,61.704"/>
	<path d="M 91.873,40.205 L 91.873,82.998 L 78.041,76.083 L 78.041,48.683 L 91.873,40.205" points="91.873,40.205 91.873,82.998 78.041,76.083 78.041,48.683 "/>
</svg>
