<?xml version="1.0" ?>
<svg xmlns="http://www.w3.org/2000/svg" xmlns:ev="http://www.w3.org/2001/xml-events" xmlns:xlink="http://www.w3.org/1999/xlink" baseProfile="full" enable-background="new 0 0 90.34 100" height="600px" version="1.1" viewBox="0 0 90.34 100" width="543px" x="0px" xml:space="preserve" y="0px">
	<defs/>
	<path d="M 81.382,85.761 C 83.98700000000001,82.578 84.9,78.151 83.385,74.008 L 82.01100000000001,70.214 L 90.34,70.214 L 90.34,0.0 L 0.0,0.0 L 0.0,70.213 L 48.582,70.213 L 53.881,84.75 C 55.385,88.89 58.934,91.702 62.974000000000004,92.459 L 65.464,99.99600000000001 L 86.311,100.0 L 81.382,85.761 M 73.803,47.825 C 69.352,49.447 67.05199999999999,54.379000000000005 68.67399999999999,58.833 L 71.88699999999999,67.597 L 2.615,67.597 L 2.615,2.615 L 87.72999999999999,2.615 L 87.72999999999999,67.598 L 81.04299999999999,67.598 L 73.803,47.825"/>
	<path d="M 80.005,35.982 C 60.766999999999996,55.216 29.571999999999996,55.216 10.333999999999989,35.982 L 38.604,7.699 C 42.226,11.327 48.105,11.327 51.727,7.699 L 80.005,35.982 M 59.951,30.237 C 63.029,28.122999999999998 63.818,23.918 61.719,20.827999999999996 C 59.602000000000004,17.749999999999996 55.389,16.957999999999995 52.315,19.067999999999994 C 49.23,21.191999999999993 48.448,25.393999999999995 50.558,28.468999999999994 C 52.664,31.551 56.87,32.336 59.951,30.237 M 52.653,34.214 C 52.515,33.823 52.339,33.449999999999996 52.03,33.128 C 52.03,33.128 46.541000000000004,27.335 45.185,25.91 C 45.275000000000006,24.187 45.489000000000004,19.725 45.489000000000004,19.725 C 45.562000000000005,18.123 44.313,16.75 42.705000000000005,16.678 C 41.101000000000006,16.598000000000003 39.730000000000004,17.837 39.65800000000001,19.449 L 39.31200000000001,26.875 C 39.27000000000001,27.667 39.558000000000014,28.449 40.10100000000001,29.02 L 42.609000000000016,31.669 L 35.079000000000015,36.639 L 35.484000000000016,30.953000000000003 C 35.29000000000001,28.76 33.353000000000016,27.141000000000002 31.171000000000017,27.328000000000003 C 31.171000000000017,27.328000000000003 24.011000000000017,27.823000000000004 21.414000000000016,28.040000000000003 C 19.771000000000015,28.185000000000002 18.543000000000017,29.635 18.692000000000014,31.281000000000002 C 18.830000000000016,32.924 20.286000000000016,34.148 21.925000000000015,34.010000000000005 C 23.737000000000016,33.851000000000006 27.975000000000016,33.706 29.694000000000017,33.56400000000001 C 29.694000000000017,33.56400000000001 28.207000000000015,37.894000000000005 28.51500000000002,40.03200000000001 C 28.709000000000017,41.433000000000014 29.110000000000017,42.84400000000001 29.96400000000002,44.09600000000001 C 32.60700000000002,47.95300000000001 37.88100000000002,48.94200000000001 41.73500000000002,46.296000000000014 C 43.11500000000002,45.35500000000001 49.97400000000002,40.66500000000001 51.264000000000024,39.77900000000001 C 53.079,38.527 53.643,36.131 52.653,34.214"/>
</svg>
