<?xml version="1.0" ?>
<svg xmlns="http://www.w3.org/2000/svg" xmlns:ev="http://www.w3.org/2001/xml-events" xmlns:xlink="http://www.w3.org/1999/xlink" baseProfile="full" enable-background="new 0 0 100 90.481" height="543px" version="1.1" viewBox="0 0 100 90.481" width="600px" x="0px" xml:space="preserve" y="0px">
	<defs/>
	<path d="M 80.775,57.361 L 96.066,57.361 L 96.066,47.111 L 86.147,47.111 L 80.775,57.361"/>
	<path d="M 68.805,42.02 L 68.805,31.748 L 50.367,31.748 L 50.367,42.02 L 68.805,42.02"/>
	<path d="M 60.612,29.696 L 60.612,17.392 L 58.56,17.392 L 58.56,29.695999999999998 L 60.612,29.695999999999998 L 60.612,29.696"/>
	<path d="M 26.119,51.219 L 40.295,7.25 L 60.612,15.379 L 60.612,13.329 L 33.96,0.0 L 8.686,51.222 L 26.119,51.222"/>
	<path d="M 87.603,86.132 C 84.576,86.132 81.698,85.483 79.097,84.324 C 77.66799999999999,83.687 76.32199999999999,82.901 75.082,81.975 C 73.84299999999999,82.901 72.496,83.687 71.067,84.324 C 68.46499999999999,85.482 65.589,86.132 62.56199999999999,86.132 C 59.53499999999998,86.132 56.65899999999999,85.483 54.05699999999999,84.324 C 52.627999999999986,83.687 51.28199999999999,82.901 50.04199999999999,81.975 C 48.801999999999985,82.901 47.45599999999999,83.687 46.027999999999984,84.324 C 43.42599999999999,85.482 40.548999999999985,86.132 37.52299999999998,86.132 C 34.49599999999998,86.132 31.618999999999982,85.483 29.01799999999998,84.324 C 27.58999999999998,83.687 26.24299999999998,82.901 25.00299999999998,81.975 C 23.763999999999978,82.901 22.41699999999998,83.687 20.98899999999998,84.324 C 18.38699999999998,85.482 15.51099999999998,86.132 12.483999999999979,86.132 C 7.810999999999979,86.132 3.4909999999999783,84.595 -2.1316282072803006e-14,82.00200000000001 L -2.1316282072803006e-14,87.18400000000001 C 3.6869999999999785,89.28200000000001 7.947999999999979,90.48200000000001 12.483999999999979,90.48200000000001 C 17.03499999999998,90.48200000000001 21.308999999999976,89.27500000000002 25.003999999999976,87.16400000000002 C 28.698999999999977,89.27500000000002 32.97299999999998,90.48200000000001 37.52399999999997,90.48200000000001 C 42.07399999999997,90.48200000000001 46.348999999999975,89.27500000000002 50.04399999999997,87.16400000000002 C 53.73799999999997,89.27500000000002 58.01299999999997,90.48200000000001 62.563999999999965,90.48200000000001 C 67.11499999999995,90.48200000000001 71.38899999999997,89.27500000000002 75.08399999999996,87.16400000000002 C 78.77899999999995,89.27500000000002 83.05299999999995,90.48200000000001 87.60499999999996,90.48200000000001 C 92.10599999999997,90.48200000000001 96.33499999999997,89.30000000000001 100.00199999999997,87.23200000000001 L 100.00199999999997,82.06300000000002 C 96.524,84.618 92.237,86.132 87.603,86.132"/>
	<path d="M 78.612,61.47 L 75.401,67.611 L 34.529,67.611 L 26.119000000000003,61.470000000000006 L 0.0,61.470000000000006 L 12.91,81.86800000000001 C 15.781,81.81 18.509999999999998,81.17600000000002 20.990000000000002,80.07100000000001 C 22.418000000000003,79.43400000000001 23.765,78.64800000000001 25.004,77.72300000000001 C 26.243000000000002,78.64800000000001 27.59,79.43400000000001 29.019000000000002,80.07100000000001 C 31.62,81.23000000000002 34.497,81.88000000000001 37.524,81.88000000000001 C 40.551,81.88000000000001 43.427,81.23100000000001 46.029,80.07100000000001 C 47.457,79.43400000000001 48.803000000000004,78.64800000000001 50.043000000000006,77.72300000000001 C 51.282000000000004,78.64800000000001 52.629000000000005,79.43400000000001 54.05800000000001,80.07100000000001 C 56.660000000000004,81.23000000000002 59.53600000000001,81.88000000000001 62.56300000000001,81.88000000000001 C 65.59,81.88000000000001 68.46600000000001,81.23100000000001 71.06800000000001,80.07100000000001 C 72.49700000000001,79.43400000000001 73.84300000000002,78.64800000000001 75.08300000000001,77.72300000000001 C 76.32200000000002,78.64800000000001 77.66900000000001,79.43400000000001 79.09800000000001,80.07100000000001 C 81.69900000000001,81.23000000000002 84.57700000000001,81.88000000000001 87.60400000000001,81.88000000000001 C 92.23900000000002,81.88000000000001 96.52600000000001,80.36600000000001 100.00100000000002,77.811 L 100.00100000000002,75.334 L 100.00100000000002,61.47 L 78.612,61.47"/>
</svg>
