<?xml version="1.0" ?>
<svg xmlns="http://www.w3.org/2000/svg" xmlns:ev="http://www.w3.org/2001/xml-events" xmlns:xlink="http://www.w3.org/1999/xlink" baseProfile="full" enable-background="new 0 0 100 99.099" height="595px" version="1.1" viewBox="0 0 100 99.099" width="600px" x="0px" xml:space="preserve" y="0px">
	<defs/>
	<path d="M 28.212,30.225 C 33.589,27.818 36.001,21.505000000000003 33.589,16.130000000000003 C 31.182,10.752000000000002 24.858999999999998,8.344000000000003 19.482,10.752000000000002 C 14.097,13.159000000000002 11.686,19.472 14.1,24.85 C 16.512,30.231 22.834,32.635 28.212,30.225"/>
	<path d="M 43.494,18.484 C 44.089,17.46 43.747,16.151000000000003 42.716,15.545000000000002 C 41.689,14.950000000000001 40.373000000000005,15.299000000000001 39.778,16.323 C 39.175,17.343 39.528,18.662 40.545,19.258 C 41.579,19.853 42.898,19.507 43.494,18.484"/>
	<path d="M 63.308,7.042 C 63.903999999999996,6.019 63.561,4.702999999999999 62.531,4.103999999999999 C 61.504,3.507999999999999 60.184,3.857999999999999 59.589,4.880999999999999 C 58.989,5.903999999999999 59.342999999999996,7.219999999999999 60.36,7.815999999999999 C 61.399,8.419 62.708,8.073 63.308,7.042"/>
	<path d="M 56.703,10.855 C 57.302,9.828000000000001 56.952000000000005,8.522 55.922000000000004,7.923 C 54.895,7.324 53.58200000000001,7.67 52.986000000000004,8.69 C 52.38700000000001,9.722 52.74,11.033999999999999 53.760000000000005,11.637 C 54.791,12.232 56.1,11.886 56.703,10.855"/>
	<path d="M 69.912,3.23 C 70.50800000000001,2.207 70.161,0.895 69.138,0.2879999999999998 C 68.108,-0.30400000000000016 66.79100000000001,0.04499999999999982 66.19300000000001,1.069 C 65.59700000000001,2.096 65.94300000000001,3.409 66.97000000000001,4.004 C 67.997,4.603 69.312,4.257 69.912,3.23"/>
	<path d="M 49.688,15.174 C 50.562000000000005,14.372 50.626000000000005,13.02 49.823,12.142999999999999 C 49.024,11.268999999999998 47.662,11.204999999999998 46.788,12.004 C 45.907,12.806 45.849999999999994,14.165 46.648999999999994,15.035 C 47.456,15.913 48.814,15.977 49.688,15.174"/>
	<path d="M 43.494,22.463 C 44.089,23.490000000000002 43.747,24.803 42.716,25.405 C 41.689,26.001 40.373000000000005,25.655 39.778,24.631 C 39.175,23.608 39.528,22.292 40.545,21.689 C 41.579,21.098 42.898,21.444 43.494,22.463"/>
	<path d="M 56.703,30.096 C 57.302,31.123 56.952000000000005,32.432 55.922000000000004,33.031 C 54.895,33.626999999999995 53.58200000000001,33.284 52.986000000000004,32.257 C 52.38700000000001,31.229999999999997 52.74,29.918 53.760000000000005,29.319 C 54.791,28.72 56.1,29.065 56.703,30.096"/>
	<path d="M 86.234,34.312 C 82.48599999999999,34.312 62.437,34.312 58.785,34.312 C 51.221999999999994,34.312 44.474,40.446 44.474,48.007 C 44.474,51.861999999999995 44.474,78.571 44.474,81.15299999999999 C 44.474,83.743 46.503,85.85 49.084999999999994,85.85 C 51.67399999999999,85.85 53.766999999999996,83.743 53.766999999999996,81.15299999999999 C 53.766999999999996,78.14999999999999 53.766999999999996,51.269999999999996 53.766999999999996,51.269999999999996 L 57.63999999999999,51.269999999999996 L 57.63999999999999,99.09899999999999 L 70.211,99.09899999999999 L 70.211,86.13899999999998 L 74.208,86.13899999999998 L 74.208,99.09899999999999 L 86.786,99.09899999999999 L 86.786,51.27 L 90.69800000000001,51.27 C 90.69800000000001,51.27 90.69800000000001,78.15 90.69800000000001,81.153 C 90.69800000000001,83.74300000000001 92.792,85.85000000000001 95.36600000000001,85.85000000000001 C 97.95500000000001,85.85000000000001 99.99900000000001,83.74300000000001 99.99900000000001,81.153 C 99.99900000000001,78.57100000000001 99.99900000000001,51.86200000000001 99.99900000000001,48.007000000000005 C 100.0,40.445 93.795,34.312 86.234,34.312 M 63.731,39.29 C 62.704,39.888999999999996 61.384,39.543 60.786,38.516 C 60.190000000000005,37.489 60.544000000000004,36.177 61.557,35.580999999999996 C 62.598,34.977999999999994 63.911,35.324 64.509,36.355 C 65.101,37.378 64.759,38.698 63.731,39.29 M 70.336,43.106 C 69.31,43.702 67.993,43.352000000000004 67.395,42.332 C 66.79899999999999,41.301 67.145,39.985 68.172,39.389 C 69.198,38.793000000000006 70.515,39.139 71.113,40.166000000000004 C 71.709,41.19 71.363,42.504 70.336,43.106"/>
	<path d="M 49.688,25.776 C 50.562000000000005,26.579 50.626000000000005,27.931 49.823,28.812 C 49.024,29.682000000000002 47.662,29.746000000000002 46.788,28.951 C 45.907,28.149 45.849999999999994,26.783 46.648999999999994,25.912 C 47.456,25.039 48.814,24.974 49.688,25.776"/>
	<path d="M 52.045,18.74 C 53.076,19.328999999999997 53.426,20.636999999999997 52.841,21.674999999999997 C 52.248000000000005,22.701999999999998 50.933,23.061999999999998 49.905,22.473999999999997 C 48.871,21.889999999999997 48.522,20.573999999999998 49.103,19.545999999999996 C 49.699,18.512 51.015,18.156 52.045,18.74"/>
	<path d="M 72.13,9.818 C 66.225,9.818 61.43899999999999,14.608 61.43899999999999,20.509 C 61.43899999999999,26.411 66.225,31.198 72.13,31.198 C 78.032,31.198 82.821,26.411 82.821,20.509 C 82.821,14.607 78.032,9.818 72.13,9.818 M 66.812,13.459 C 67.408,12.427999999999999 68.716,12.068 69.75,12.66 C 70.777,13.252 71.134,14.557 70.546,15.595 C 69.95400000000001,16.622 68.64200000000001,16.982 67.61000000000001,16.394000000000002 C 66.581,15.802 66.225,14.49 66.812,13.459 M 63.956,22.478 C 62.926,21.886000000000003 62.572,20.57 63.154,19.543000000000003 C 63.749,18.509000000000004 65.061,18.152 66.095,18.744000000000003 C 67.126,19.332000000000004 67.479,20.638 66.883,21.675000000000004 C 66.3,22.706 64.983,23.066 63.956,22.478 M 70.65,27.6 C 70.057,28.631 68.74600000000001,28.988 67.714,28.403000000000002 C 66.684,27.811000000000003 66.327,26.498 66.91499999999999,25.467000000000002 C 67.511,24.436000000000003 68.81899999999999,24.076 69.853,24.668000000000003 C 70.882,25.256 71.238,26.565 70.65,27.6 M 74.516,21.675 C 73.924,22.706 72.61200000000001,23.066000000000003 71.581,22.478 C 70.547,21.886000000000003 70.197,20.57 70.782,19.546000000000003 C 71.378,18.508000000000003 72.69,18.151000000000003 73.72,18.744000000000003 C 74.744,19.333 75.111,20.645 74.516,21.675"/>
	<path d="M 58.461,18.512 C 59.62,18.769000000000002 60.351,19.907 60.098,21.073 C 59.841,22.225 58.693,22.963 57.534,22.71 C 56.376,22.454 55.644,21.301000000000002 55.897,20.149 C 56.164,18.986 57.306,18.252 58.461,18.512"/>
	<path d="M 61.485,27.168 C 62.64,27.428 63.375,28.566 63.122,29.729 C 62.861,30.881 61.713,31.622999999999998 60.558,31.366 C 59.396,31.113 58.668,29.957 58.925,28.805 C 59.182,27.643 60.329,26.912 61.485,27.168"/>
	<path d="M 60.903,10.278 C 62.062,10.538 62.797,11.676 62.541,12.839 C 62.284,13.994 61.135999999999996,14.733 59.977,14.476 C 58.818,14.223 58.089999999999996,13.071000000000002 58.339999999999996,11.919 C 58.604,10.752 59.748,10.021 60.903,10.278"/>
	<path d="M 26.868,60.525 C 27.634999999999998,61.943999999999996 29.125,62.893 30.872999999999998,62.893 C 32.849,62.893 34.55,61.715 35.230999999999995,59.979 L 43.36599999999999,36.105000000000004 C 44.196999999999996,33.669000000000004 42.89099999999999,31.026000000000003 40.45899999999999,30.195000000000004 C 38.01599999999999,29.364000000000004 35.37699999999999,30.673000000000005 34.54999999999999,33.105000000000004 L 29.88899999999999,46.81100000000001 L 24.83999999999999,37.766000000000005 C 23.64499999999999,35.88700000000001 21.82299999999999,34.385000000000005 19.547999999999988,33.62200000000001 C 14.283999999999988,31.864000000000008 8.595999999999988,34.70300000000001 6.837999999999987,39.96300000000001 L 0.7359999999999864,58.22300000000001 C 0.289,59.333 0.0,61.303 0.0,62.337 L 0.0,99.099 L 18.259,99.099 L 18.259,69.013 L 23.28,54.083000000000006 L 26.868,60.525"/>
</svg>
