<?xml version="1.0" ?>
<svg xmlns="http://www.w3.org/2000/svg" xmlns:ev="http://www.w3.org/2001/xml-events" xmlns:graph="http://ns.adobe.com/Graphs/1.0/" xmlns:i="http://ns.adobe.com/AdobeIllustrator/10.0/" xmlns:x="http://ns.adobe.com/Extensibility/1.0/" xmlns:xlink="http://www.w3.org/1999/xlink" baseProfile="full" enable-background="new 0 0 100 100" height="183px" version="1.1" viewBox="0 0 100 100" width="600px" x="0px" xml:space="preserve" y="0px">
	<defs/>
	<path d="M 99.414,44.894 C 98.179,43.896 94.903,43.946999999999996 92.072,44.22 L 92.072,43.629999999999995 C 92.072,38.357 87.779,34.065999999999995 82.507,34.065999999999995 L 64.513,34.065999999999995 C 59.24100000000001,34.065999999999995 54.949000000000005,38.358 54.949000000000005,43.629999999999995 L 54.949000000000005,44.227999999999994 C 51.42100000000001,41.757999999999996 47.822,41.40599999999999 44.35000000000001,45.120999999999995 L 44.35000000000001,43.629999999999995 C 44.35000000000001,38.357 40.06000000000001,34.065999999999995 34.78500000000001,34.065999999999995 L 16.791,34.065999999999995 C 11.518,34.065999999999995 7.226000000000001,38.358 7.226000000000001,43.629999999999995 L 7.226000000000001,43.919999999999995 C 4.590000000000001,43.693999999999996 1.814000000000001,43.745 0.8000000000000007,44.75899999999999 C 0.002000000000000668,45.556999999999995 -0.07699999999999929,48.56199999999999 0.8000000000000007,49.27199999999999 C 1.9040000000000008,50.16499999999999 4.6370000000000005,50.218999999999994 7.226000000000001,50.02599999999999 L 7.226000000000001,54.77299999999999 C 7.226000000000001,60.04499999999999 11.518,64.33699999999999 16.791,64.33699999999999 L 34.785,64.33699999999999 C 40.059999999999995,64.33699999999999 44.349999999999994,60.04499999999999 44.349999999999994,54.77299999999999 L 44.349999999999994,50.98399999999999 C 47.815,47.13599999999999 51.407999999999994,46.383999999999986 54.949,50.40399999999999 L 54.949,54.77199999999999 C 54.949,60.04499999999999 59.241,64.335 64.513,64.335 L 82.507,64.335 C 87.77900000000001,64.335 92.072,60.044999999999995 92.072,54.77199999999999 L 92.072,50.157999999999994 C 94.95,50.471999999999994 98.281,50.541999999999994 99.414,49.407 C 100.214,48.608 100.293,45.603 99.414,44.894 M 9.427,48.473 L 5.023,48.473 C 4.27,48.473 3.6579999999999995,47.863 3.6579999999999995,47.109 C 3.6579999999999995,46.356 4.27,45.744 5.023,45.744 L 9.427,45.744 C 10.18,45.744 10.791,46.355 10.791,47.109 C 10.791,47.862 10.18,48.473 9.427,48.473 M 37.972,54.772 C 37.972,56.528999999999996 36.542,57.96 34.784,57.96 L 16.791,57.96 C 15.033000000000001,57.96 13.603,56.529 13.603,54.772 L 13.603,43.629 C 13.603,41.872 15.033,40.440999999999995 16.791,40.440999999999995 L 34.785,40.440999999999995 C 36.543,40.440999999999995 37.973,41.870999999999995 37.973,43.629 L 37.973,54.772 L 37.972,54.772 M 85.694,54.771 C 85.694,56.529 84.264,57.959 82.506,57.959 L 64.513,57.959 C 62.755,57.959 61.325,56.529 61.325,54.771 L 61.325,43.629 C 61.325,41.872 62.756,40.440999999999995 64.513,40.440999999999995 L 82.507,40.440999999999995 C 84.265,40.440999999999995 85.69500000000001,41.870999999999995 85.69500000000001,43.629 L 85.69500000000001,54.771 L 85.694,54.771 M 95.353,48.473 L 90.949,48.473 C 90.197,48.473 89.585,47.863 89.585,47.109 C 89.585,46.356 90.19699999999999,45.744 90.949,45.744 L 95.353,45.744 C 96.107,45.744 96.71799999999999,46.355 96.71799999999999,47.109 C 96.718,47.862 96.106,48.473 95.353,48.473"/>
</svg>
