<?xml version="1.0" ?>
<svg xmlns="http://www.w3.org/2000/svg" xmlns:ev="http://www.w3.org/2001/xml-events" xmlns:xlink="http://www.w3.org/1999/xlink" baseProfile="full" enable-background="new 0 0 100 100" height="521px" version="1.1" viewBox="0 0 100 100" width="600px" x="0px" xml:space="preserve" y="0px">
	<defs/>
	<path d="M 38.346,7.361 C 44.294,7.361 50.028,7.361 56.05,7.361 C 55.626,8.047 55.349,8.513 55.055,8.968 C 53.784,10.941 53.62,12.995000000000001 54.699,15.084 C 55.811,17.239 57.373999999999995,18.722 59.858999999999995,19.471 C 74.08999999999999,23.761 83.215,33.123 86.467,47.662 C 90.91799999999999,67.562 78.25,87.333 58.11,91.756 C 38.055,96.159 18.153,83.694 13.714999999999996,63.010000000000005 C 9.917999999999996,45.31 19.531999999999996,27.948000000000008 35.584999999999994,21.113000000000007 C 36.236999999999995,20.835000000000008 36.91799999999999,20.625000000000007 37.56399999999999,20.392000000000007 C 38.93699999999999,22.266000000000005 40.15899999999999,24.118000000000006 41.571999999999996,25.811000000000007 C 42.980999999999995,27.500000000000007 44.581999999999994,29.029000000000007 46.17099999999999,30.705000000000005 C 45.715999999999994,30.848000000000006 45.30199999999999,31.024000000000004 44.86899999999999,31.108000000000004 C 35.431999999999995,32.95 27.45499999999999,40.346000000000004 25.465999999999994,50.759 C 22.943999999999996,63.961 31.611999999999995,77.175 45.510999999999996,79.61 C 59.309999999999995,82.029 71.602,72.602 73.983,59.778 C 76.325,47.16 68.56400000000001,35.429 57.499,31.875999999999998 C 54.329,30.857 51.347,29.511999999999997 48.54600000000001,27.65 C 43.351000000000006,24.197 40.37200000000001,19.369999999999997 39.089000000000006,13.384999999999998 C 38.668,11.429 38.192,9.465 38.346,7.361" fill="#000000"/>
	<path d="M 85.639,73.526 C 88.814,78.211 93.164,80.759 99.12299999999999,80.564 C 97.428,85.02399999999999 94.82399999999998,88.696 91.87199999999999,92.30099999999999 C 86.48399999999998,90.92899999999999 81.97299999999998,88.17199999999998 78.14299999999999,84.225 C 78.14299999999999,84.225 80.14499999999998,81.871 82.10399999999998,79.32499999999999 C 83.798,77.121 85.639,73.526 85.639,73.526" fill="#000000"/>
	<path d="M 7.479,91.52 C 5.29,87.803 3.16,84.188 0.877,80.312 C 6.856,80.27199999999999 11.184000000000001,77.743 14.249,72.628 C 15.888,76.711 18.326,80.083 21.251,83.21000000000001 C 17.495,87.44 13.454,90.855 7.479,91.52" fill="#000000"/>
</svg>
