<?xml version="1.0" ?>
<svg xmlns="http://www.w3.org/2000/svg" xmlns:ev="http://www.w3.org/2001/xml-events" xmlns:xlink="http://www.w3.org/1999/xlink" baseProfile="full" enable-background="new 0 0 75.946 100" height="600px" version="1.1" viewBox="0 0 75.946 100" width="456px" x="0px" xml:space="preserve" y="0px">
	<defs/>
	<path d="M 37.973,24.967 C 31.028,24.967 25.387999999999998,19.375 25.387999999999998,12.480999999999998 C 25.388,5.588 31.027,0.0 37.973,0.0 C 44.92,0.0 50.557,5.588 50.557,12.481 C 50.557,19.375 44.92,24.967 37.973,24.967"/>
	<path d="M 75.689,76.671 L 65.78299999999999,42.159000000000006 C 61.81899999999999,28.367000000000004 50.27599999999999,28.797000000000004 50.27599999999999,28.797000000000004 L 25.671,28.797000000000004 C 25.671,28.797000000000004 14.123999999999999,28.366000000000003 10.165999999999999,42.159000000000006 L 0.25599999999999845,76.671 C -0.6900000000000015,79.896 1.0899999999999985,82.35900000000001 3.9089999999999985,83.16600000000001 C 6.720999999999998,83.97400000000002 9.604999999999999,82.55700000000002 10.345999999999998,79.97400000000002 L 19.977999999999998,46.33700000000002 L 24.683999999999997,46.33000000000002 L 9.283,100.0 L 66.66,100.0 L 51.264,46.33 L 55.962,46.336999999999996 L 65.598,79.97399999999999 C 66.338,82.55699999999999 69.219,83.97399999999999 72.038,83.166 C 74.855,82.359 76.638,79.896 75.689,76.671 M 56.575,78.208 C 56.575,88.481 48.246,96.813 37.976,96.813 C 27.697,96.813 19.368,88.481 19.368,78.208 C 19.368,67.929 27.697,59.604 37.976,59.604 C 48.246,59.605 56.575,67.929 56.575,78.208"/>
	<path d="M 41.976,73.68 C 39.74,72.62700000000001 38.79,69.962 39.848,67.727 C 40.906,65.501 43.571,64.548 45.799,65.604 C 48.031,66.664 48.978,69.329 47.924,71.56099999999999 C 46.864,73.787 44.204,74.74 41.976,73.68"/>
	<path d="M 46.139,79.907 C 45.699000000000005,80.843 43.345000000000006,85.803 42.867000000000004,86.79899999999999 C 41.548,89.588 38.209,90.77799999999999 35.415000000000006,89.461 C 34.510000000000005,89.024 33.815000000000005,88.355 33.232000000000006,87.621 C 32.348000000000006,86.505 31.754000000000005,83.52799999999999 31.754000000000005,83.52799999999999 C 30.825000000000006,84.18299999999999 28.451000000000004,85.67899999999999 27.469000000000005,86.37799999999999 C 26.576000000000004,87.00099999999999 25.341000000000005,86.78799999999998 24.712000000000003,85.89599999999999 C 24.078000000000003,85.00299999999999 24.297000000000004,83.76999999999998 25.185000000000002,83.13899999999998 C 26.599000000000004,82.15099999999998 30.518,79.48599999999998 30.518,79.48599999999998 C 31.71,78.64899999999997 33.353,78.92299999999997 34.191,80.11999999999998 L 35.855000000000004,83.50099999999998 L 38.501000000000005,78.15299999999998 L 36.18900000000001,77.47599999999997 C 35.681000000000004,77.33099999999997 35.26200000000001,76.97999999999998 35.016000000000005,76.51199999999997 L 32.748000000000005,72.15799999999997 C 32.255,71.21499999999997 32.621,70.04999999999997 33.568000000000005,69.55999999999997 C 34.50900000000001,69.06399999999998 35.673,69.43599999999998 36.168000000000006,70.37399999999997 C 36.168000000000006,70.37399999999997 37.532000000000004,72.99699999999997 38.05700000000001,74.00699999999996 C 39.30300000000001,74.37199999999996 44.37000000000001,75.84599999999996 44.37000000000001,75.84599999999996 C 44.64400000000001,75.93099999999995 44.875000000000014,76.08699999999996 45.082000000000015,76.26799999999996 C 46.284,77.033 46.765,78.584 46.139,79.907"/>
</svg>
