<?xml version="1.0" ?>
<svg xmlns="http://www.w3.org/2000/svg" xmlns:ev="http://www.w3.org/2001/xml-events" xmlns:xlink="http://www.w3.org/1999/xlink" baseProfile="full" enable-background="new 0 0 99.992 100" height="600px" version="1.1" viewBox="0 0 99.992 100" width="600px" x="0px" xml:space="preserve" y="0px">
	<defs/>
	<path d="M 79.16,68.05 C 69.438,68.05 42.616,54.283 41.663,49.995999999999995 C 38.886,37.497 44.441,0.0 44.441,0.0 L 12.499,0.0 C 12.499,0.0 22.451999999999998,40.508 19.443,55.551 C 18.054000000000002,62.495000000000005 12.499000000000002,74.994 20.832,76.38300000000001 C 20.832,76.38300000000001 30.553,76.38300000000001 33.331,76.38300000000001 C 36.109,76.38300000000001 40.445,75.078 44.441,74.99400000000001 C 51.27,74.85000000000001 58.33,76.38300000000001 62.496,76.38300000000001 L 79.16,76.38300000000001 C 81.462,76.38300000000001 83.327,74.51800000000001 83.327,72.21700000000001 C 83.327,69.915 81.462,68.05 79.16,68.05"/>
	<path d="M 10.322,16.075 C 9.267,16.413 8.168999999999999,16.665 6.943999999999999,16.665 C 4.307999999999999,16.665 2.2269999999999994,15.556 -8.881784197001252e-16,14.738999999999999 L -8.881784197001252e-16,23.072 C 2.226999999999999,23.887999999999998 4.307999999999999,24.997999999999998 6.943999999999999,24.997999999999998 C 8.735999999999999,24.997999999999998 10.268999999999998,24.479999999999997 11.767999999999999,23.894 C 11.305,21.217 10.815,18.583 10.322,16.075"/>
	<path d="M 95.826,16.666 C 91.65899999999999,16.666 88.88199999999999,13.888 84.716,13.888 C 80.54899999999999,13.888 77.77199999999999,16.666 73.606,16.666 C 69.439,16.666 66.66199999999999,13.888 62.495999999999995,13.888 C 58.33,13.888 55.55199999999999,16.666 51.385999999999996,16.666 C 50.166999999999994,16.666 49.07299999999999,16.416 48.020999999999994,16.080000000000002 C 47.74099999999999,18.695 47.474,21.421000000000003 47.239999999999995,24.153000000000002 C 48.526999999999994,24.624000000000002 49.86299999999999,24.998 51.385999999999996,24.998 C 55.55199999999999,24.998 58.33,22.220000000000002 62.495999999999995,22.220000000000002 C 66.66199999999999,22.220000000000002 69.439,24.998 73.606,24.998 C 77.77199999999999,24.998 80.54899999999999,22.220000000000002 84.716,22.220000000000002 C 88.88199999999999,22.220000000000002 91.65899999999999,24.998 95.826,24.998 C 97.35499999999999,24.998 98.698,24.621000000000002 99.99199999999999,24.146 L 99.99199999999999,15.813 C 98.698,16.288 97.355,16.666 95.826,16.666"/>
	<path d="M 0.0,81.946 L 99.992,81.946 L 99.992,100.0 L 0.0,100.0 L 0.0,81.946" height="18.054" width="99.992" y="81.946"/>
</svg>
