<?xml version="1.0" ?>
<svg xmlns="http://www.w3.org/2000/svg" xmlns:ev="http://www.w3.org/2001/xml-events" xmlns:xlink="http://www.w3.org/1999/xlink" baseProfile="full" enable-background="new 0 0 100 61.111" height="367px" version="1.1" viewBox="0 0 100 61.111" width="600px" x="0px" xml:space="preserve" y="0px">
	<defs/>
	<path d="M 41.667,34.723 C 38.603,34.723 36.112,37.214 36.112,40.278999999999996 C 36.112,43.342 38.603,45.833999999999996 41.667,45.833999999999996 C 44.731,45.833999999999996 47.223,43.342999999999996 47.223,40.278999999999996 C 47.222,37.214 44.73,34.723 41.667,34.723"/>
	<path d="M 18.056,34.723 C 14.992,34.723 12.5,37.214 12.5,40.278999999999996 C 12.5,43.342 14.992,45.833999999999996 18.056,45.833999999999996 C 21.12,45.833999999999996 23.612000000000002,43.342999999999996 23.612000000000002,40.278999999999996 C 23.611,37.214 21.12,34.723 18.056,34.723"/>
	<path d="M 69.444,0.0 C 62.057,0.0 55.283,2.622 50.0,6.985 C 44.716,2.622 37.941,0.0 30.555,0.0 C 13.683,0.0 0.0,13.68 0.0,30.556 C 0.0,47.429 13.683,61.112 30.555,61.112 C 37.941,61.112 44.716,58.49 50.0,54.126000000000005 C 55.284,58.49 62.057,61.112 69.445,61.112 C 86.32,61.111 100.0,47.429 100.0,30.556 C 100.0,13.68 86.32,0.0 69.444,0.0 M 69.965,12.5 C 71.49900000000001,12.5 72.74300000000001,13.744 72.74300000000001,15.278 C 72.74300000000001,16.812 71.49900000000001,18.056 69.965,18.056 C 68.432,18.056 67.188,16.812 67.188,15.278 C 67.188,13.744 68.432,12.5 69.965,12.5 M 26.389,12.5 C 27.923,12.5 29.166999999999998,13.744 29.166999999999998,15.278 C 29.166999999999998,16.812 27.923,18.056 26.389,18.056 C 24.855,18.056 23.612,16.812 23.612,15.278 C 23.612,13.744 24.855,12.5 26.389,12.5 M 18.056,48.611 C 13.461000000000002,48.611 9.723,44.873 9.723,40.278 C 9.723,35.682 13.461,31.944 18.056,31.944 C 22.651000000000003,31.944 26.389000000000003,35.682 26.389000000000003,40.278 C 26.389,44.873 22.651,48.611 18.056,48.611 M 31.944,40.973 C 31.944,42.122 31.011,43.056 29.860999999999997,43.056 C 28.711,43.056 27.778,42.122 27.778,40.973 L 27.778,31.25 C 27.778,30.467 28.215,29.793 28.852,29.438 L 28.848,29.43 L 33.494,26.842 L 29.859,23.069 L 27.785000000000004,25.977999999999998 C 27.470000000000002,26.426 26.976000000000003,26.735999999999997 26.388000000000005,26.735999999999997 L 19.444000000000006,26.735999999999997 C 18.485000000000007,26.735999999999997 17.708000000000006,25.959999999999997 17.708000000000006,24.999999999999996 C 17.708000000000006,24.039999999999996 18.485000000000007,23.263999999999996 19.444000000000006,23.263999999999996 L 25.492000000000004,23.263999999999996 L 28.906000000000006,18.448999999999995 C 29.415000000000006,17.856999999999996 30.160000000000007,17.472999999999995 31.003000000000007,17.472999999999995 C 31.790000000000006,17.472999999999995 32.495000000000005,17.802999999999994 33.001000000000005,18.326999999999995 L 33.004000000000005,18.323999999999995 L 39.501000000000005,25.068999999999996 L 39.49700000000001,25.072999999999997 C 39.97800000000001,25.571999999999996 40.278000000000006,26.247999999999998 40.278000000000006,26.995999999999995 C 40.278000000000006,28.155999999999995 39.566,29.146999999999995 38.55500000000001,29.562999999999995 L 31.944000000000006,33.24399999999999 L 31.944000000000006,40.973 L 31.944,40.973 M 41.667,48.611 C 37.072,48.611 33.334,44.873 33.334,40.278 C 33.334,35.682 37.072,31.944 41.667,31.944 C 46.262,31.944 50.0,35.683 50.0,40.278 C 50.0,44.873 46.262,48.611 41.667,48.611 M 81.424,30.556 C 81.424,31.515 80.647,32.292 79.688,32.292 C 78.729,32.292 77.952,31.515 77.952,30.556 L 77.952,27.857 L 75.521,25.668 L 75.521,31.938 L 80.913,45.717 C 80.913,45.717 80.913,45.717 80.91499999999999,45.717 L 80.934,45.769 L 80.93,45.77 C 81.02300000000001,46.006 81.07600000000001,46.260000000000005 81.07600000000001,46.529 C 81.07600000000001,47.678000000000004 80.143,48.612 78.99300000000001,48.612 C 78.111,48.612 77.36000000000001,48.061 77.05600000000001,47.287 L 77.05300000000001,47.288 L 71.83100000000002,33.943999999999996 L 64.13900000000001,47.553999999999995 L 64.13100000000001,47.54899999999999 C 63.77300000000002,48.17999999999999 63.103000000000016,48.61099999999999 62.32500000000002,48.61099999999999 C 61.17500000000002,48.61099999999999 60.24200000000002,47.67699999999999 60.24200000000002,46.52799999999999 C 60.24200000000002,46.154999999999994 60.347000000000016,45.80799999999999 60.52000000000002,45.50699999999999 L 60.51100000000002,45.50299999999999 L 68.57400000000001,31.235999999999994 L 68.57400000000001,26.599999999999994 L 64.35200000000002,31.665999999999993 L 64.33400000000002,31.649999999999995 C 64.01700000000002,32.032999999999994 63.555000000000014,32.291 63.018000000000015,32.291 C 62.05900000000001,32.291 61.283000000000015,31.513999999999996 61.283000000000015,30.554999999999996 C 61.283000000000015,30.131999999999998 61.45200000000001,29.759999999999994 61.70300000000002,29.458999999999996 L 61.68500000000002,29.443999999999996 L 68.62900000000002,21.110999999999997 C 70.43300000000002,19.307 72.48200000000001,18.662 73.90100000000002,19.542999999999996 L 80.84500000000003,25.792999999999996 L 80.83500000000002,25.803999999999995 C 81.18900000000002,26.120999999999995 81.42000000000002,26.570999999999994 81.42000000000002,27.082999999999995 L 81.42000000000002,30.556 L 81.424,30.556"/>
</svg>
