<?xml version="1.0" ?>
<svg xmlns="http://www.w3.org/2000/svg" xmlns:ev="http://www.w3.org/2001/xml-events" xmlns:xlink="http://www.w3.org/1999/xlink" baseProfile="full" enable-background="new 0 0 100 70.833" height="426px" version="1.1" viewBox="0 0 100 70.833" width="600px" x="0px" xml:space="preserve" y="0px">
	<defs/>
	<path d="M 100.0,45.833 C 100.0,43.055 100.0,40.277 98.611,40.277 C 93.055,40.277 86.111,47.221000000000004 81.944,47.221000000000004 L 77.777,47.221000000000004 C 72.164,44.563 65.729,42.537000000000006 59.015,41.149 C 54.95,37.985 49.922,30.554000000000002 48.611000000000004,30.554000000000002 C 47.67100000000001,30.554000000000002 42.281000000000006,35.64 38.893,38.931000000000004 C 20.554,38.627 4.013,43.146 0.0,52.778 C 4.285,62.205 23.379,65.281 43.247,64.299 C 46.055,67.134 50.208,70.83300000000001 52.778,70.83300000000001 C 54.668,70.83300000000001 53.987,66.34100000000001 53.359,63.46400000000001 C 57.013000000000005,63.039000000000016 60.607,62.485000000000014 64.062,61.82400000000001 C 68.38499999999999,63.86800000000001 74.626,66.66600000000001 76.389,66.66600000000001 C 78.09299999999999,66.66600000000001 78.229,61.96900000000001 78.077,58.33300000000001 L 81.944,58.33300000000001 C 86.111,58.33300000000001 93.055,65.27700000000002 98.611,65.27700000000002 C 100.0,65.278 100.0,62.5 100.0,59.722 C 100.0,55.300000000000004 97.223,54.166000000000004 97.223,52.778 C 97.223,51.38999999999999 100.0,50.254 100.0,45.833 M 11.111,52.778 C 9.577,52.778 8.333,51.534 8.333,50.0 C 8.333,48.466 9.577,47.223 11.111,47.223 C 12.645000000000001,47.223 13.888000000000002,48.466 13.888000000000002,50.0 C 13.888000000000002,51.534 12.645,52.778 11.111,52.778"/>
	<path d="M 100.0,1.389 C 98.264,2.083 96.527,2.778 94.444,2.778 C 90.277,2.778 87.5,0.0 83.333,0.0 C 79.167,0.0 76.389,2.778 72.223,2.778 C 68.056,2.778 65.277,0.0 61.111,0.0 C 56.944,0.0 54.167,2.778 50.0,2.778 C 45.833,2.778 43.056,0.0 38.889,0.0 C 34.722,0.0 31.945000000000004,2.778 27.778000000000002,2.778 C 23.611,2.778 20.833,0.0 16.667,0.0 C 12.5,0.0 9.722,2.778 5.556,2.778 C 3.472,2.778 1.736,2.086 0.0,1.392 L 0.0,9.725 C 1.736,10.42 3.472,11.110999999999999 5.556,11.110999999999999 C 9.722999999999999,11.110999999999999 12.5,8.332999999999998 16.667,8.332999999999998 C 20.834000000000003,8.332999999999998 23.612000000000002,11.110999999999999 27.778000000000002,11.110999999999999 C 31.944000000000003,11.110999999999999 34.722,8.332999999999998 38.889,8.332999999999998 C 43.056000000000004,8.332999999999998 45.834,11.110999999999999 50.0,11.110999999999999 C 54.167,11.110999999999999 56.944,8.332999999999998 61.111000000000004,8.332999999999998 C 65.277,8.332999999999998 68.055,11.110999999999999 72.22200000000001,11.110999999999999 C 76.388,11.110999999999999 79.16600000000001,8.332999999999998 83.33200000000001,8.332999999999998 C 87.49900000000001,8.332999999999998 90.27600000000001,11.110999999999999 94.44300000000001,11.110999999999999 C 96.52600000000001,11.110999999999999 98.26200000000001,10.416999999999998 99.99900000000001,9.722 L 99.99900000000001,1.389 L 100.0,1.389"/>
</svg>
