<?xml version="1.0" ?>
<svg xmlns="http://www.w3.org/2000/svg" xmlns:ev="http://www.w3.org/2001/xml-events" xmlns:xlink="http://www.w3.org/1999/xlink" baseProfile="full" enable-background="new 0 0 100 94.45" height="567px" version="1.1" viewBox="0 0 100 94.45" width="600px" x="0px" xml:space="preserve" y="0px">
	<defs/>
	<path d="M 100.0,68.062 C 98.264,68.756 96.527,69.451 94.444,69.451 C 90.277,69.451 87.5,66.67399999999999 83.333,66.67399999999999 C 79.167,66.67399999999999 76.389,69.451 72.222,69.451 C 68.056,69.451 65.27799999999999,66.67399999999999 61.111999999999995,66.67399999999999 C 56.94499999999999,66.67399999999999 54.16799999999999,69.451 50.00099999999999,69.451 C 45.83399999999999,69.451 43.05699999999999,66.67399999999999 38.889999999999986,66.67399999999999 C 34.722999999999985,66.67399999999999 31.945999999999987,69.451 27.778999999999986,69.451 C 23.611999999999988,69.451 20.834999999999987,66.67399999999999 16.667999999999985,66.67399999999999 C 12.500999999999983,66.67399999999999 9.723,69.45 5.556,69.45 C 3.473,69.45 1.7360000000000002,68.759 0.0,68.06400000000001 L 0.0,76.397 C 1.736,77.09100000000001 3.472,77.784 5.556,77.784 C 9.722999999999999,77.784 12.5,75.006 16.667,75.006 C 20.834000000000003,75.006 23.611,77.784 27.778000000000002,77.784 C 31.945,77.784 34.723,75.006 38.889,75.006 C 43.05500000000001,75.006 45.833,77.784 50.0,77.784 C 54.167,77.784 56.944,75.006 61.111000000000004,75.006 C 65.277,75.006 68.055,77.784 72.221,77.784 C 76.388,77.784 79.166,75.006 83.33200000000001,75.006 C 87.49900000000001,75.006 90.27600000000001,77.784 94.44300000000001,77.784 C 96.52600000000001,77.784 98.26200000000001,77.09 99.99900000000001,76.394 L 99.99900000000001,68.062 L 100.0,68.062"/>
	<path d="M 100.0,84.729 C 98.264,85.423 96.527,86.118 94.444,86.118 C 90.277,86.118 87.5,83.33999999999999 83.333,83.33999999999999 C 79.167,83.33999999999999 76.389,86.118 72.222,86.118 C 68.056,86.118 65.27799999999999,83.33999999999999 61.111999999999995,83.33999999999999 C 56.94499999999999,83.33999999999999 54.16799999999999,86.118 50.00099999999999,86.118 C 45.83399999999999,86.118 43.05699999999999,83.33999999999999 38.889999999999986,83.33999999999999 C 34.722999999999985,83.33999999999999 31.945999999999987,86.118 27.778999999999986,86.118 C 23.611999999999988,86.118 20.834999999999987,83.33999999999999 16.667999999999985,83.33999999999999 C 12.500999999999983,83.33999999999999 9.723999999999986,86.118 5.556999999999984,86.118 C 3.473999999999984,86.118 1.7369999999999846,85.42699999999999 0.0009999999999843467,84.731 L 0.0009999999999843467,93.065 C 1.7369999999999843,93.759 3.4729999999999843,94.451 5.556999999999984,94.451 C 9.723999999999984,94.451 12.500999999999983,91.67399999999999 16.667999999999985,91.67399999999999 C 20.834999999999987,91.67399999999999 23.611999999999984,94.451 27.778999999999986,94.451 C 31.945999999999984,94.451 34.72399999999999,91.67399999999999 38.889999999999986,91.67399999999999 C 43.05599999999998,91.67399999999999 45.833,94.45 50.0,94.45 C 54.167,94.45 56.944,91.673 61.111000000000004,91.673 C 65.277,91.673 68.055,94.45 72.221,94.45 C 76.388,94.45 79.166,91.673 83.33200000000001,91.673 C 87.49900000000001,91.673 90.27600000000001,94.45 94.44300000000001,94.45 C 96.52600000000001,94.45 98.26200000000001,93.756 99.99900000000001,93.061 L 99.99900000000001,84.729 L 100.0,84.729"/>
	<path d="M 91.666,52.777 L 91.66499999999999,13.887999999999998 L 73.611,25.0 L 73.611,41.667 L 66.705,41.667 L 66.705,19.387 L 58.332,19.387 L 58.332,0.0 L 36.111,0.0 L 36.111,31.732 L 25.0,31.732 L 25.0,20.833 L 15.972,15.276999999999997 L 6.945,20.833 L 6.945,40.277 L 0.0,40.277 L 0.0,59.731 C 1.736,60.425000000000004 3.472,61.117000000000004 5.556,61.117000000000004 C 9.722999999999999,61.117000000000004 12.5,58.34 16.667,58.34 C 20.834000000000003,58.34 23.611,61.117000000000004 27.778000000000002,61.117000000000004 C 31.945,61.117000000000004 34.723,58.34 38.889,58.34 C 43.05500000000001,58.34 45.833,61.117 50.0,61.117 C 54.167,61.117 56.944,58.339999999999996 61.111000000000004,58.339999999999996 C 65.277,58.339999999999996 68.055,61.117 72.221,61.117 C 76.388,61.117 79.166,58.339999999999996 83.33200000000001,58.339999999999996 C 87.49900000000001,58.339999999999996 90.27600000000001,61.117 94.44300000000001,61.117 C 96.52600000000001,61.117 98.26200000000001,60.422999999999995 99.99900000000001,59.727999999999994 L 99.99900000000001,52.776999999999994 L 91.666,52.776999999999994 L 91.666,52.777"/>
	<path d="M 83.333,66.673 C 79.167,66.673 76.389,69.45 72.222,69.45 C 68.056,69.45 65.27799999999999,66.673 61.111999999999995,66.673 C 56.94499999999999,66.673 54.16799999999999,69.45 50.00099999999999,69.45 C 45.83399999999999,69.45 43.05699999999999,66.673 38.889999999999986,66.673 C 34.722999999999985,66.673 31.945999999999987,69.45 27.778999999999986,69.45 C 23.611999999999988,69.45 20.834999999999987,66.673 16.667999999999985,66.673 C 12.500999999999983,66.673 9.723,69.45 5.556,69.45 C 3.473,69.45 1.7360000000000002,68.759 0.0,68.06400000000001 L 0.0,76.397 C 1.736,77.09100000000001 3.472,77.784 5.556,77.784 C 9.722999999999999,77.784 12.5,75.006 16.667,75.006 C 20.834000000000003,75.006 23.611,77.784 27.778000000000002,77.784 C 31.945,77.784 34.723,75.006 38.889,75.006 C 43.05500000000001,75.006 45.833,77.784 50.0,77.784 C 54.167,77.784 56.944,75.006 61.111000000000004,75.006 C 65.277,75.006 68.055,77.784 72.221,77.784 C 76.388,77.784 79.166,75.006 83.33200000000001,75.006 C 87.49900000000001,75.006 90.27600000000001,77.784 94.44300000000001,77.784 C 96.52600000000001,77.784 98.26200000000001,77.09 99.99900000000001,76.394 L 99.99900000000001,68.061 C 98.263,68.75500000000001 96.52600000000001,69.45 94.44300000000001,69.45 C 90.277,69.45 87.5,66.673 83.333,66.673"/>
</svg>
