<?xml version="1.0" ?>
<svg xmlns="http://www.w3.org/2000/svg" xmlns:ev="http://www.w3.org/2001/xml-events" xmlns:xlink="http://www.w3.org/1999/xlink" baseProfile="full" enable-background="new 0 0 100 76.179" height="458px" version="1.1" viewBox="0 0 100 76.179" width="600px" x="0px" xml:space="preserve" y="0px">
	<defs/>
	<path d="M 67.457,5.195 C 67.457,2.32 69.784,0.0 72.66,0.0 C 75.535,0.0 77.859,2.32 77.859,5.195 C 77.859,8.071 75.535,10.398 72.66,10.398 C 69.784,10.398 67.457,8.071 67.457,5.195"/>
	<path d="M 74.601,11.9 C 74.601,11.9 79.188,11.458 79.188,16.485 C 79.101,16.485 79.188,30.15 79.188,30.15 C 79.188,30.15 79.361,32.443999999999996 76.098,32.971 C 76.189,32.88699999999999 61.637,36.145999999999994 61.637,36.145999999999994 C 61.637,36.145999999999994 60.576,36.236999999999995 60.227000000000004,37.297 C 60.227000000000004,37.381 56.17,52.196 56.17,52.196 C 56.17,52.196 55.732,54.583 52.82,53.87 C 53.087,53.87 49.821,53.695 50.617,50.169 C 50.702,50.26 54.580999999999996,33.94 54.580999999999996,33.94 C 54.580999999999996,33.94 55.022999999999996,30.86 58.63699999999999,30.150999999999996 C 58.727999999999994,30.150999999999996 68.42899999999999,28.210999999999995 68.42899999999999,28.210999999999995 C 68.42899999999999,28.210999999999995 69.30899999999998,27.947999999999993 69.04199999999999,27.242999999999995 C 69.04199999999999,27.154999999999994 67.54699999999998,23.099999999999994 67.54699999999998,23.099999999999994 C 67.54699999999998,23.099999999999994 67.10299999999998,22.390999999999995 66.13799999999998,22.923999999999996 C 66.22599999999997,22.923999999999996 56.433999999999976,27.680999999999997 56.433999999999976,27.680999999999997 C 56.433999999999976,27.680999999999997 53.875999999999976,28.831999999999997 52.82099999999998,26.449999999999996 C 52.90499999999998,26.449999999999996 51.14399999999998,23.804999999999996 53.876999999999974,22.127999999999997 C 53.97199999999997,22.036999999999995 71.15899999999998,12.606999999999996 71.15899999999998,12.606999999999996 C 71.15899999999998,12.606999999999996 72.484,11.809 74.601,11.9"/>
	<path d="M 13.05,48.846 C 5.84,48.846 0.0,54.688 0.0,61.896 C 0.0,69.104 5.84,74.947 13.05,74.947 C 20.259,74.947 26.103,69.105 26.103,61.896 C 26.103,54.687 20.259,48.846 13.05,48.846 M 13.05,67.187 C 10.128,67.187 7.763000000000001,64.82 7.763000000000001,61.897 C 7.763000000000001,58.97 10.127,56.607 13.05,56.607 C 15.975000000000001,56.607 18.342,58.97 18.342,61.897 C 18.343,64.819 15.976,67.187 13.05,67.187"/>
	<path d="M 79.188,34.557 C 67.69500000000001,34.557 58.371,43.881 58.371,55.368 C 58.371,66.87 67.69500000000001,76.18 79.188,76.18 C 90.679,76.18 100.0,66.87 100.0,55.36800000000001 C 100.0,43.881 90.679,34.557 79.188,34.557 M 79.188,63.391 C 74.753,63.391 71.159,59.799 71.159,55.367999999999995 C 71.159,50.93699999999999 74.754,47.348 79.188,47.348 C 83.618,47.348 87.212,50.936 87.212,55.367999999999995 C 87.212,59.79999999999999 83.618,63.391 79.188,63.391"/>
	<path d="M 52.759,29.052 L 46.426,22.719 C 45.991,22.284000000000002 45.228,22.284000000000002 44.793,22.719 L 43.551,23.961000000000002 C 43.334,24.178 43.214,24.468000000000004 43.214,24.777 C 43.214,25.086 43.333999999999996,25.376 43.551,25.593 L 44.872,26.914 C 45.25,27.292 45.25,27.907 44.872,28.286 L 43.873,29.285 C 43.522,29.636 43.132999999999996,29.533 43.007999999999996,29.05 L 42.385,26.671 C 42.227,26.067 41.589999999999996,25.573999999999998 40.964999999999996,25.573999999999998 L 1.454,25.573999999999998 C 1.142,25.573999999999998 0.878,25.694 0.71,25.910999999999998 C 0.5419999999999999,26.128999999999998 0.492,26.415 0.571,26.717 L 5.935,47.227000000000004 C 6.093,47.832 6.7299999999999995,48.324000000000005 7.3549999999999995,48.324000000000005 L 46.866,48.324000000000005 C 47.178,48.324000000000005 47.442,48.205000000000005 47.61,47.987 C 47.778,47.769 47.828,47.483000000000004 47.749,47.181000000000004 L 44.453,34.57600000000001 C 44.314,34.047000000000004 44.524,33.27300000000001 44.911,32.88600000000001 L 47.191,30.60500000000001 C 47.556000000000004,30.24100000000001 48.198,30.24100000000001 48.563,30.60500000000001 L 49.884,31.926000000000013 C 50.318,32.360000000000014 51.082,32.360000000000014 51.516,31.926000000000013 L 52.759,30.683000000000014 C 52.976,30.466000000000015 53.096000000000004,30.176000000000013 53.096000000000004,29.867000000000015 C 53.096000000000004,29.558000000000018 52.976,29.27 52.759,29.052"/>
	<path d="M 49.541,53.98 L 48.599,50.376 C 48.440999999999995,49.772 47.803999999999995,49.278999999999996 47.178999999999995,49.278999999999996 L 22.421,49.278999999999996 C 22.099999999999998,49.278999999999996 21.878999999999998,49.379999999999995 21.797,49.56399999999999 C 21.716,49.748999999999995 21.791,49.980999999999995 22.007,50.217999999999996 L 25.742,54.309 C 26.153000000000002,54.757 26.981,55.122 27.589000000000002,55.122 L 48.657000000000004,55.122 C 48.969,55.122 49.233000000000004,55.003 49.401,54.785 C 49.57,54.568 49.62,54.282 49.541,53.98"/>
</svg>
