<?xml version="1.0" ?>
<svg xmlns="http://www.w3.org/2000/svg" xmlns:ev="http://www.w3.org/2001/xml-events" xmlns:xlink="http://www.w3.org/1999/xlink" baseProfile="full" enable-background="new 0 0 100 100" height="456px" version="1.1" viewBox="0 0 100 100" width="600px" x="0px" xml:space="preserve" y="0px">
	<defs/>
	<path d="M 77.921,47.2 C 77.921,47.2 81.98400000000001,68.833 57.495000000000005,77.289 L 50.0,63.737 L 42.505,77.289 C 18.016,68.833 22.079,47.2 22.079,47.2 L 13.681000000000001,42.101 C 13.141000000000002,44.647999999999996 12.854000000000001,47.29 12.854000000000001,50.0 C 12.854000000000001,70.742 29.485,87.55799999999999 50.0,87.55799999999999 C 70.51599999999999,87.55799999999999 87.146,70.743 87.146,49.99999999999999 C 87.146,47.28999999999999 86.859,44.647999999999996 86.319,42.10099999999999 L 77.921,47.2"/>
	<path d="M 82.078,31.057 C 75.633,19.922 63.682,12.443 50.0,12.443 C 36.319,12.443 24.367,19.922 17.921,31.057000000000002 L 0.5,31.057000000000002 L 14.403,39.246 L 50.0,60.213 L 85.598,39.246 L 99.5,31.057 L 82.078,31.057 M 50.079,49.975 L 25.773,35.573 C 27.211,32.811 29.192999999999998,30.334 31.594,28.258 L 45.469,36.768 L 45.469,21.908 C 46.942,21.679000000000002 48.455,21.558 49.999,21.558 C 51.496,21.558 52.964,21.672 54.394000000000005,21.887999999999998 L 54.394000000000005,36.768 L 68.453,28.299 C 70.836,30.369 72.804,32.836 74.23100000000001,35.583 L 50.079,49.975"/>
</svg>
