<?xml version="1.0" ?>
<svg xmlns="http://www.w3.org/2000/svg" xmlns:ev="http://www.w3.org/2001/xml-events" xmlns:xlink="http://www.w3.org/1999/xlink" baseProfile="full" enable-background="new 0 0 100 100" height="600px" version="1.1" viewBox="0 0 100 100" width="600px" x="0px" xml:space="preserve" y="0px">
	<defs/>
	<path d="M 72.759,58.219 L 65.278,53.232 L 65.278,48.152 L 56.690000000000005,41.583 L 36.11200000000001,34.98 L 36.11200000000001,31.246999999999996 C 36.11200000000001,30.096999999999998 35.17900000000001,29.163999999999994 34.02900000000001,29.163999999999994 C 32.87900000000001,29.163999999999994 31.946000000000012,30.096999999999994 31.946000000000012,31.246999999999993 L 31.946000000000012,39.76199999999999 L 16.60200000000001,46.84499999999999 C 14.861000000000011,47.64799999999999 14.101000000000012,49.71099999999999 14.905000000000012,51.45199999999999 C 15.491000000000012,52.721999999999994 16.74700000000001,53.47099999999999 18.060000000000013,53.47099999999999 C 18.54700000000001,53.47099999999999 19.042000000000012,53.36699999999999 19.513000000000012,53.14899999999999 L 23.19200000000001,51.450999999999986 C 22.83500000000001,52.313999999999986 22.81600000000001,53.31499999999998 23.23800000000001,54.22999999999999 C 23.82400000000001,55.49999999999999 25.08100000000001,56.24899999999999 26.39300000000001,56.24899999999999 C 26.88000000000001,56.24899999999999 27.37500000000001,56.14499999999999 27.84600000000001,55.92799999999999 L 40.13800000000001,50.25399999999999 L 65.727,73.404 C 66.39200000000001,74.006 67.226,74.301 68.056,74.301 C 69.002,74.301 69.947,73.916 70.631,73.157 C 71.918,71.73599999999999 71.807,69.53999999999999 70.386,68.25399999999999 L 60.306,59.13599999999999 L 60.830999999999996,58.61099999999999 L 68.907,63.99599999999999 C 69.5,64.39099999999999 70.169,64.579 70.83,64.579 C 71.953,64.579 73.05499999999999,64.03699999999999 73.722,63.032999999999994 C 74.787,61.439 74.355,59.282 72.759,58.219"/>
	<path d="M 50.0,100.0 L 100.0,99.998 L 100.0,68.055 C 76.389,72.22 50.0,100.0 50.0,100.0"/>
	<path d="M 45.973,96.173 C 46.577999999999996,95.535 54.562,87.20700000000001 65.706,78.934 C 46.154,68.595 21.368,58.333 0.0,58.333 L 0.001,99.99799999999999 L 42.339,99.99799999999999 L 45.973,96.173"/>
	<path d="M 65.277,44.657 L 65.277,41.664 L 73.611,41.664 L 76.389,37.497 L 56.944,23.609 L 56.944,38.285 L 65.277,44.657" points="65.277,44.657 65.277,41.664 73.611,41.664 76.389,37.497 56.944,23.609 56.944,38.285 "/>
	<path cx="86.805" cy="52.082" d="M 80.555,52.082 A 6.25,6.25 0.0 1,0 93.055,52.082 A 6.25,6.25 0.0 1,0 80.555,52.082" r="6.25"/>
	<path cx="88.194" cy="39.583" d="M 86.111,39.583 A 2.083,2.083 0.0 1,0 90.277,39.583 A 2.083,2.083 0.0 1,0 86.111,39.583" r="2.083"/>
	<path cx="88.194" cy="31.25" d="M 86.111,31.25 A 2.083,2.083 0.0 1,0 90.277,31.25 A 2.083,2.083 0.0 1,0 86.111,31.25" r="2.083"/>
	<path cx="85.417" cy="22.917" d="M 83.334,22.917 A 2.083,2.083 0.0 1,0 87.5,22.917 A 2.083,2.083 0.0 1,0 83.334,22.917" r="2.083"/>
	<path cx="81.25" cy="15.972" d="M 79.167,15.972 A 2.083,2.083 0.0 1,0 83.333,15.972 A 2.083,2.083 0.0 1,0 79.167,15.972" r="2.083"/>
	<path cx="74.305" cy="11.805" d="M 72.22200000000001,11.805 A 2.083,2.083 0.0 1,0 76.388,11.805 A 2.083,2.083 0.0 1,0 72.22200000000001,11.805" r="2.083"/>
	<path cx="65.972" cy="11.805" d="M 63.888999999999996,11.805 A 2.083,2.083 0.0 1,0 68.05499999999999,11.805 A 2.083,2.083 0.0 1,0 63.888999999999996,11.805" r="2.083"/>
	<path cx="57.639" cy="14.583" d="M 55.556000000000004,14.583 A 2.0830000000000015,2.0830000000000015 0.0 1,0 59.72200000000001,14.583 A 2.083,2.083 0.0 1,0 55.55600000000001,14.583" r="2.083"/>
	<path cx="50.694" cy="18.75" d="M 48.611000000000004,18.75 A 2.083,2.083 0.0 1,0 52.777,18.75 A 2.083,2.083 0.0 1,0 48.611000000000004,18.75" r="2.083"/>
	<path cx="47.917" cy="11.805" d="M 45.834,11.805 A 2.083,2.083 0.0 1,0 50.0,11.805 A 2.083,2.083 0.0 1,0 45.834,11.805" r="2.083"/>
	<path cx="45.139" cy="4.861" d="M 43.056000000000004,4.861 A 2.0830000000000015,2.0830000000000015 0.0 1,0 47.22200000000001,4.861 A 2.083,2.083 0.0 1,0 43.05600000000001,4.861" r="2.083"/>
	<path cx="38.195" cy="2.083" d="M 36.112,2.083 A 2.0830000000000015,2.0830000000000015 0.0 1,0 40.278000000000006,2.083 A 2.083,2.083 0.0 1,0 36.11200000000001,2.083" r="2.083"/>
	<path cx="31.25" cy="4.861" d="M 29.167,4.861 A 2.083,2.083 0.0 1,0 33.333,4.861 A 2.083,2.083 0.0 1,0 29.166999999999998,4.861" r="2.083"/>
</svg>
