<?xml version="1.0" ?>
<svg xmlns="http://www.w3.org/2000/svg" xmlns:ev="http://www.w3.org/2001/xml-events" xmlns:xlink="http://www.w3.org/1999/xlink" baseProfile="full" enable-background="new 0 0 100 95.139" height="571px" version="1.1" viewBox="0 0 100 95.139" width="600px" x="0px" xml:space="preserve" y="0px">
	<defs/>
	<path d="M 45.833,56.25 C 45.833,55.482 45.211999999999996,54.861 44.443999999999996,54.861 C 43.830999999999996,54.861 43.327,55.263 43.142999999999994,55.815 L 43.12599999999999,55.809999999999995 L 40.66499999999999,63.193999999999996 L 33.33299999999999,63.193999999999996 C 32.56499999999999,63.193999999999996 31.943999999999992,63.815 31.943999999999992,64.583 C 31.943999999999992,65.351 32.56499999999999,65.972 33.33299999999999,65.972 L 42.66699999999999,65.972 L 45.76099999999999,56.69 L 45.743999999999986,56.684 C 45.793,56.546 45.833,56.404 45.833,56.25"/>
	<path d="M 36.111,54.861 L 24.146,54.861 L 20.643,45.277 L 20.624000000000002,45.284 C 20.093000000000004,43.595 18.533,42.36 16.667,42.36 C 15.997000000000002,42.36 15.372000000000002,42.534 14.811000000000002,42.815 L 14.804000000000002,42.800999999999995 C 5.257,47.574 0.0,58.27 0.0,72.917 C 0.0,75.218 1.865,77.083 4.167,77.083 L 16.667,77.083 L 16.667,90.972 C 16.667,93.274 18.532,95.139 20.834000000000003,95.139 C 23.136000000000006,95.139 25.0,93.273 25.0,90.972 L 25.0,72.917 C 25.0,70.615 23.135,68.75 20.833,68.75 L 8.51,68.75 C 9.016,62.761 10.783999999999999,56.3 15.472999999999999,52.294 L 19.738,58.881 L 19.748,58.876 C 20.205000000000002,59.785999999999994 21.136000000000003,60.416999999999994 22.223000000000003,60.416999999999994 L 36.112,60.416999999999994 C 37.646,60.416999999999994 38.889,59.172999999999995 38.889,57.638999999999996 C 38.889,56.105 37.645,54.861 36.111,54.861"/>
	<path d="M 66.667,63.194 L 59.334,63.194 L 56.873000000000005,55.81 L 56.857000000000006,55.815000000000005 C 56.672000000000004,55.263000000000005 56.169000000000004,54.861000000000004 55.55500000000001,54.861000000000004 C 54.787000000000006,54.861000000000004 54.166000000000004,55.482000000000006 54.166000000000004,56.25000000000001 C 54.166000000000004,56.40400000000001 54.206,56.54600000000001 54.254000000000005,56.684000000000005 L 54.237,56.690000000000005 L 57.331,65.97200000000001 L 66.666,65.97200000000001 C 67.434,65.97200000000001 68.05499999999999,65.35100000000001 68.05499999999999,64.58300000000001 C 68.05499999999999,63.81500000000001 67.435,63.194 66.667,63.194"/>
	<path d="M 85.197,42.801 L 85.19,42.815000000000005 C 84.628,42.534000000000006 84.002,42.36000000000001 83.333,42.36000000000001 C 81.469,42.36000000000001 79.907,43.59400000000001 79.377,45.284000000000006 L 79.357,45.27700000000001 L 75.854,54.861000000000004 L 63.889,54.861000000000004 C 62.355000000000004,54.861000000000004 61.112,56.104000000000006 61.112,57.638000000000005 C 61.112,59.172000000000004 62.355000000000004,60.416000000000004 63.889,60.416000000000004 L 77.778,60.416000000000004 C 78.86500000000001,60.416000000000004 79.79700000000001,59.785000000000004 80.254,58.87500000000001 L 80.26400000000001,58.88000000000001 L 84.53000000000002,52.293000000000006 C 89.21800000000002,56.29900000000001 90.98600000000002,62.760000000000005 91.49200000000002,68.74900000000001 L 79.167,68.74900000000001 C 76.865,68.74900000000001 75.0,70.614 75.0,72.91600000000001 L 75.0,90.971 C 75.0,93.27300000000001 76.865,95.138 79.167,95.138 C 81.46900000000001,95.138 83.333,93.27300000000001 83.333,90.971 L 83.333,77.083 L 95.833,77.083 C 98.135,77.083 100.0,75.218 100.0,72.917 C 100.0,58.27 94.743,47.574 85.197,42.801"/>
	<path d="M 50.0,29.167 C 41.958,29.167 35.417,22.625 35.417,14.584000000000001 C 35.417,6.543000000000003 41.958,0.0 50.0,0.0 C 58.042,0.0 64.583,6.542 64.583,14.583 C 64.583,22.624000000000002 58.042,29.167 50.0,29.167 M 50.0,2.778 C 43.491,2.778 38.194,8.073 38.194,14.583 C 38.194,21.093 43.491,26.389 50.0,26.389 C 56.509,26.389 61.806,21.093 61.806,14.583 C 61.806,8.073 56.509,2.778 50.0,2.778"/>
	<path d="M 56.944,9.028 C 56.944,8.26 56.323,7.639 55.555,7.639 C 55.169,7.639 54.823,7.796 54.572,8.048 L 51.388000000000005,11.231 L 51.388000000000005,6.25 C 51.388000000000005,5.482 50.767,4.861 49.999,4.861 C 49.231,4.861 48.61,5.483 48.61,6.25 L 48.61,14.583 C 48.61,15.351 49.231,15.972 49.999,15.972 C 50.384,15.972 50.731,15.815 50.982,15.562999999999999 L 56.535,10.011999999999999 C 56.788,9.76 56.944,9.412 56.944,9.028"/>
	<path d="M 31.944,68.75 L 31.944,77.083 L 37.5,77.083 L 62.5,77.083 L 68.056,77.083 L 68.056,68.75 L 31.944,68.75" points="31.944,68.75 31.944,77.083 37.5,77.083 62.5,77.083 68.056,77.083 68.056,68.75 "/>
	<path cx="27.778" cy="39.583" d="M 21.528,39.583 A 6.25,6.25 0.0 1,0 34.028,39.583 A 6.25,6.25 0.0 1,0 21.528,39.583" r="6.25"/>
	<path cx="72.223" cy="39.583" d="M 65.973,39.583 A 6.25,6.25 0.0 1,0 78.473,39.583 A 6.25,6.25 0.0 1,0 65.973,39.583" r="6.25"/>
</svg>
