<?xml version="1.0" ?>
<svg xmlns="http://www.w3.org/2000/svg" xmlns:ev="http://www.w3.org/2001/xml-events" xmlns:xlink="http://www.w3.org/1999/xlink" baseProfile="full" enable-background="new 0 0 99.94 63.157" height="380px" version="1.1" viewBox="0 0 99.94 63.157" width="600px" x="0px" xml:space="preserve" y="0px">
	<defs/>
	<path d="M 10.892,6.294 C 4.878,6.303 0.015,11.169 0.0,17.19 C 0.015,23.17 4.878,28.032000000000004 10.892,28.031 C 16.881,28.032 21.744999999999997,23.169999999999998 21.732999999999997,17.189999999999998 C 21.745,11.169 16.88,6.303 10.892,6.294 M 10.892,24.084 C 7.06,24.083 3.9659999999999993,20.986 3.9459999999999997,17.189999999999998 C 3.9659999999999997,13.347999999999997 7.06,10.253999999999998 10.892,10.242999999999999 C 14.699,10.253999999999998 17.794,13.347999999999999 17.788,17.189999999999998 C 17.793,20.986 14.699,24.083 10.892,24.084"/>
	<path d="M 45.816,52.016 C 37.518,51.986999999999995 37.518,63.163 45.816,63.157 L 93.884,63.157 C 101.959,63.163999999999994 101.959,51.986999999999995 93.884,52.016 L 45.816,52.016 L 45.816,52.016"/>
	<path d="M 68.101,0.0 L 95.83,0.0 C 99.52,-0.018 99.52,5.269 95.83,5.246 L 68.101,5.246 C 64.527,5.269 64.527,-0.018 68.101,0.0 L 68.101,0.0"/>
	<path d="M 20.084,0.0 L 47.464,0.0 C 51.153999999999996,-0.018 51.153999999999996,5.269 47.464,5.246 L 20.084,5.246 C 16.163,5.269 16.11,-0.018 20.084,0.0 L 20.084,0.0"/>
	<path d="M 99.431,36.175 L 93.884,22.782999999999998 C 91.917,17.872999999999998 87.65,13.277999999999997 79.994,13.291999999999998 L 11.24,13.291999999999998 C 6.8740000000000006,13.276999999999997 5.9350000000000005,18.964999999999996 9.791,20.438 L 41.418,33.027 L 44.216,40.021 C 44.79,42.211 46.569,44.805 50.113,44.819 L 93.132,44.819 C 98.045,44.782 101.391,40.774 99.431,36.175 M 67.501,29.479 L 60.107000000000006,29.479 L 60.107000000000006,17.587 L 67.501,17.587 L 67.501,29.479 M 79.244,29.479 L 71.898,29.479 L 71.898,17.587 L 79.244,17.587 L 79.244,29.479 M 83.74,29.531 L 83.74,18.089 C 86.03699999999999,18.636 88.32799999999999,20.683 89.83699999999999,24.085 L 92.18299999999999,29.531 L 83.74,29.531"/>
	<path d="M 60.056,13.541 L 60.056,3.398 L 55.76,3.398 L 55.76,13.541 L 60.056,13.541 L 60.056,13.541"/>
	<path d="M 66.603,3.697 L 66.603,1.498 L 49.264,1.498 L 49.264,3.697 L 66.603,3.697 L 66.603,3.697"/>
</svg>
