<?xml version="1.0" ?>
<svg xmlns="http://www.w3.org/2000/svg" xmlns:ev="http://www.w3.org/2001/xml-events" xmlns:xlink="http://www.w3.org/1999/xlink" baseProfile="full" enable-background="new 0 0 100 100" height="600px" version="1.1" viewBox="0 0 100 100" width="600px" x="0px" xml:space="preserve" y="0px">
	<defs/>
	<path d="M 34.722,51.389 L 44.444,51.389 L 44.444,44.993 C 42.412000000000006,45.292 38.468,46.145 38.468,46.145 L 34.722,51.389"/>
	<path d="M 50.0,13.889 C 30.054,13.889 13.889000000000003,30.054 13.889000000000003,50.0 C 13.889000000000003,69.946 30.054,86.111 50.0,86.111 C 69.946,86.111 86.111,69.946 86.111,50.0 C 86.111,30.054000000000002 69.946,13.889 50.0,13.889 M 41.521,20.833 C 44.207,20.828 46.534,22.307 47.779,24.499 L 61.631,24.477999999999998 L 65.277,28.122999999999998 L 61.631,31.769999999999996 L 59.808,29.946999999999996 L 57.986,31.769999999999996 L 56.163999999999994,29.946999999999996 L 54.34499999999999,31.769999999999996 L 52.52299999999999,29.946999999999996 L 50.70199999999999,31.769999999999996 L 47.77199999999999,31.747999999999998 C 46.52499999999999,33.936 44.19399999999999,35.412 41.52199999999999,35.415 C 38.49499999999999,35.411 35.90999999999999,33.527 34.837999999999994,30.857999999999997 L 37.029999999999994,30.857999999999997 C 38.53999999999999,30.857999999999997 39.763999999999996,29.631999999999998 39.763999999999996,28.123999999999995 C 39.763999999999996,26.612999999999996 38.538999999999994,25.389999999999993 37.029999999999994,25.389999999999993 L 34.82699999999999,25.389999999999993 C 35.902,22.716 38.49,20.828 41.521,20.833 M 29.861,68.056 C 27.176000000000002,68.056 25.0,65.88 25.0,63.195 C 25.0,60.510000000000005 27.177,58.334 29.861,58.334 C 32.545,58.334 34.722,60.510000000000005 34.722,63.195 C 34.722,65.88 32.545,68.056 29.861,68.056 M 68.75,68.056 C 66.065,68.056 63.889,65.88 63.889,63.195 C 63.889,60.510000000000005 66.066,58.334 68.75,58.334 C 71.434,58.334 73.611,60.510000000000005 73.611,63.195 C 73.611,65.88 71.435,68.056 68.75,68.056 M 75.624,62.5 C 75.271,58.995 72.34899999999999,56.25 68.75,56.25 C 65.15100000000001,56.25 62.229,58.995 61.876,62.5 L 36.735,62.5 C 36.382,58.995 33.46,56.25 29.861,56.25 C 26.262,56.25 23.34,58.995 22.987000000000002,62.5 L 20.833000000000002,62.5 L 20.833000000000002,55.556 L 22.222,51.388999999999996 C 25.0,51.388999999999996 31.457,45.901999999999994 34.722,44.44499999999999 C 36.148,43.80899999999999 38.451,43.23799999999999 40.872,42.778999999999996 C 42.065,42.552 43.282,42.355 44.444,42.190999999999995 C 45.434000000000005,42.05199999999999 46.376000000000005,41.937 47.222,41.852 C 48.379000000000005,41.733999999999995 49.358000000000004,41.666999999999994 50.0,41.666999999999994 L 63.889,50.0 C 63.889,50.0 67.68,50.003 71.498,51.389 C 74.989,52.656000000000006 78.504,55.078 79.167,59.723 C 79.167,59.723 79.167,61.765 79.167,62.5 L 75.624,62.5"/>
	<path d="M 47.222,44.637 L 47.222,51.388 L 60.81,51.388 L 49.267,44.466 C 48.697,44.496 47.997,44.554 47.222,44.637"/>
	<path d="M 95.706,29.764 L 90.51,32.15 C 92.92800000000001,37.614999999999995 94.281,43.65 94.281,50.001 C 94.281,74.417 74.417,94.28 50.0,94.28 C 37.792,94.28 26.729,89.306 18.712,81.288 L 22.222,77.777 L 11.111,77.777 L 11.111,88.888 L 14.670000000000002,85.33000000000001 C 23.722,94.384 36.214,100.0 50.0,100.0 C 77.57,100.0 100.0,77.571 100.0,50.001 C 100.0,42.799 98.458,35.955 95.706,29.764"/>
	<path d="M 4.294,70.236 L 9.49,67.85 C 7.072,62.38499999999999 5.718,56.349 5.718,49.998999999999995 C 5.718,25.583 25.583,5.72 50.0,5.72 C 62.208,5.72 73.271,10.693999999999999 81.288,18.712 L 77.777,22.222 L 88.888,22.222 L 88.888,11.111 L 85.32900000000001,14.669 C 76.277,5.617 63.786,0.0 50.0,0.0 C 22.43,0.0 0.0,22.428 0.0,49.999 C 0.0,57.201 1.542,64.045 4.294,70.236"/>
	<path cx="29.861" cy="63.194" d="M 27.778,63.194 A 2.083,2.083 0.0 1,0 31.944,63.194 A 2.083,2.083 0.0 1,0 27.778,63.194" r="2.083"/>
	<path cx="68.75" cy="63.194" d="M 66.667,63.194 A 2.083,2.083 0.0 1,0 70.833,63.194 A 2.083,2.083 0.0 1,0 66.667,63.194" r="2.083"/>
</svg>
