<?xml version="1.0" ?>
<svg xmlns="http://www.w3.org/2000/svg" xmlns:ev="http://www.w3.org/2001/xml-events" xmlns:xlink="http://www.w3.org/1999/xlink" baseProfile="full" enable-background="new 0 0 100 94.428" height="567px" version="1.1" viewBox="0 0 100 94.428" width="600px" x="0px" xml:space="preserve" y="0px">
	<defs/>
	<path d="M 85.053,50.919 C 83.26599999999999,50.919 81.81099999999999,52.370999999999995 81.81099999999999,54.144999999999996 L 81.81099999999999,66.68 C 83.52099999999999,67.46100000000001 84.559,69.04700000000001 84.559,70.768 C 84.559,71.915 84.101,73.006 83.26599999999999,73.851 L 76.615,81.147 C 76.309,81.533 75.89699999999999,82.126 75.69,82.792 C 75.576,83.145 75.542,83.525 75.53099999999999,84.004 L 73.42699999999999,84.004 C 73.43599999999999,83.337 73.48899999999999,82.754 73.68299999999999,82.15700000000001 C 74.03899999999999,81.007 74.75699999999999,80.07000000000001 75.18299999999999,79.57300000000001 L 81.73299999999999,72.55300000000001 C 82.12899999999999,72.08600000000001 82.34599999999999,71.49000000000001 82.34599999999999,70.87700000000001 C 82.34599999999999,69.459 81.19099999999999,68.308 79.77199999999999,68.308 C 79.097,68.308 78.46199999999999,68.56 77.97999999999999,69.027 L 64.4,82.663 C 62.04800000000001,85.12299999999999 62.20400000000001,87.627 62.20400000000001,89.505 L 62.217000000000006,94.428 L 73.866,94.428 L 73.866,92.356 C 73.866,91.01599999999999 74.127,90.128 75.187,89.13199999999999 L 85.89,77.764 C 87.426,75.97399999999999 88.279,73.68299999999999 88.279,71.31 L 88.279,54.145 C 88.278,52.371 86.834,50.919 85.053,50.919"/>
	<path d="M 21.737,69.026 C 21.25,68.562 20.616,68.30799999999999 19.944999999999997,68.30799999999999 C 18.525,68.30799999999999 17.366999999999997,69.46 17.366999999999997,70.87799999999999 C 17.366999999999997,71.49099999999999 17.584999999999997,72.08499999999998 17.982999999999997,72.55499999999999 L 24.534,79.573 C 24.956999999999997,80.06899999999999 25.674999999999997,81.006 26.032999999999998,82.15599999999999 C 26.224999999999998,82.75399999999999 26.279999999999998,83.336 26.288999999999998,84.00299999999999 L 24.183,84.00299999999999 C 24.174,83.52399999999999 24.14,83.14399999999999 24.026,82.79099999999998 C 23.818,82.12599999999998 23.406,81.53199999999998 23.1,81.14799999999998 L 16.448,73.84999999999998 C 15.613,73.00499999999998 15.156,71.91399999999999 15.156,70.76699999999998 C 15.156,69.04599999999998 16.194,67.45999999999998 17.906,66.67899999999999 L 17.906,54.145 C 17.906,52.372 16.448,50.919000000000004 14.657999999999998,50.919000000000004 C 12.879999999999997,50.919000000000004 11.435999999999998,52.371 11.435999999999998,54.145 L 11.435999999999998,71.31 C 11.435999999999998,73.683 12.289999999999997,75.974 13.824999999999998,77.764 L 24.526999999999997,89.12899999999999 C 25.589,90.12799999999999 25.846999999999998,91.01599999999999 25.846999999999998,92.356 L 25.846999999999998,94.428 L 37.498999999999995,94.428 L 37.51,89.505 C 37.51,87.627 37.663,85.12299999999999 35.318,82.663 L 21.737,69.026"/>
	<path d="M 39.731,31.133 C 39.731,32.865 41.134,34.269999999999996 42.864000000000004,34.269999999999996 C 44.599000000000004,34.269999999999996 46.001000000000005,32.864999999999995 46.001000000000005,31.132999999999996 C 46.001000000000005,29.401999999999994 44.599000000000004,27.993999999999996 42.864000000000004,27.993999999999996 C 41.134,27.995 39.731,29.402 39.731,31.133"/>
	<path d="M 26.366,44.368 C 26.366,45.514 27.298,46.442 28.441,46.442 C 29.587,46.442 30.516,45.514 30.516,44.368 C 30.516,43.221000000000004 29.587,42.296 28.441,42.296 C 27.298,42.296 26.366,43.221 26.366,44.368"/>
	<path d="M 52.995,29.177 C 52.995,31.011 54.474999999999994,32.495 56.309,32.495 C 58.135999999999996,32.495 59.622,31.010999999999996 59.622,29.176999999999996 C 59.622,27.349999999999994 58.136,25.864999999999995 56.309,25.864999999999995 C 54.476,25.865 52.995,27.35 52.995,29.177"/>
	<path d="M 69.356,43.164 C 69.356,44.373000000000005 70.336,45.355000000000004 71.55,45.355000000000004 C 72.759,45.355000000000004 73.739,44.373000000000005 73.739,43.164 C 73.739,41.954 72.759,40.973 71.55000000000001,40.973 C 70.337,40.973 69.356,41.954 69.356,43.164"/>
	<path d="M 65.049,47.877 L 65.039,47.885000000000005 L 68.575,48.901 L 68.575,64.28200000000001 C 68.575,64.99300000000001 69.154,65.56700000000001 69.86500000000001,65.56700000000001 C 70.57400000000001,65.56700000000001 71.15,64.99300000000001 71.15,64.28200000000001 L 71.15,56.6 L 72.161,56.6 L 72.161,64.283 C 72.161,64.994 72.737,65.568 73.44500000000001,65.568 C 74.158,65.568 74.739,64.994 74.739,64.283 L 74.739,49.914 L 75.73100000000001,49.914 L 75.73100000000001,54.779 C 75.73100000000001,55.313 76.162,55.747 76.69000000000001,55.747 C 77.21800000000002,55.747 77.63600000000001,55.313 77.63600000000001,54.778999999999996 L 77.63600000000001,49.242999999999995 C 77.63600000000001,47.690999999999995 76.27000000000001,46.43599999999999 74.72000000000001,46.43599999999999 L 68.81,46.43599999999999 C 68.785,46.43599999999999 67.164,46.288999999999994 66.891,46.26299999999999 C 66.52600000000001,45.13599999999999 64.202,37.90399999999999 63.389,35.37299999999999 C 63.341,35.22099999999999 63.258,35.11499999999999 63.181000000000004,35.00099999999999 C 63.124,34.92799999999999 63.07000000000001,34.85199999999999 63.007000000000005,34.78099999999999 C 62.38400000000001,34.09599999999999 61.47200000000001,33.596999999999994 60.175000000000004,33.596999999999994 L 51.891000000000005,33.596999999999994 C 50.124,33.596999999999994 49.041000000000004,34.501 48.48500000000001,35.58599999999999 C 48.068000000000005,35.42399999999999 47.601000000000006,35.31499999999999 47.04900000000001,35.31499999999999 L 39.208000000000006,35.31499999999999 C 37.980000000000004,35.31499999999999 37.11500000000001,35.78199999999999 36.52400000000001,36.43599999999999 C 36.467000000000006,36.50099999999999 36.41600000000001,36.571999999999996 36.36100000000001,36.641999999999996 C 36.28900000000001,36.748 36.20900000000001,36.852 36.16600000000001,36.992 C 35.39500000000001,39.39 33.19700000000001,46.230999999999995 32.85400000000001,47.302 C 32.591000000000015,47.325 31.060000000000013,47.466 31.035000000000014,47.466 L 25.440000000000015,47.466 C 23.971000000000014,47.466 22.680000000000014,48.651 22.680000000000014,50.122 L 22.680000000000014,55.362 C 22.680000000000014,55.870000000000005 23.075000000000014,56.275 23.576000000000015,56.275 C 24.076000000000015,56.275 24.485000000000014,55.87 24.485000000000014,55.362 L 24.485000000000014,50.757000000000005 L 25.423000000000012,50.757000000000005 L 25.423000000000012,64.35600000000001 C 25.423000000000012,65.02700000000002 25.97400000000001,65.57100000000001 26.645000000000014,65.57100000000001 C 27.317000000000014,65.57100000000001 27.866000000000014,65.02700000000002 27.866000000000014,64.35600000000001 L 27.866000000000014,57.08500000000001 L 28.819000000000013,57.08500000000001 L 28.819000000000013,64.35600000000001 C 28.819000000000013,65.02700000000002 29.364000000000015,65.57100000000001 30.036000000000012,65.57100000000001 C 30.70800000000001,65.57100000000001 31.255000000000013,65.02700000000002 31.255000000000013,64.35600000000001 L 31.255000000000013,49.799 L 34.60500000000001,48.836 L 34.59600000000001,48.827999999999996 C 34.939000000000014,48.70399999999999 35.238000000000014,48.45099999999999 35.37600000000001,48.010999999999996 C 36.29000000000001,45.17399999999999 37.20200000000001,42.336 38.113000000000014,39.498999999999995 L 38.68500000000002,39.498999999999995 L 38.68500000000002,63.80499999999999 C 38.68500000000002,64.817 39.50400000000002,65.636 40.51300000000002,65.636 C 41.52500000000002,65.636 42.34400000000002,64.817 42.34400000000002,63.80499999999999 L 42.34400000000002,49.954 L 43.38800000000002,49.954 L 43.38800000000002,63.805 C 43.38800000000002,64.817 44.20700000000002,65.636 45.21900000000002,65.636 C 46.230000000000025,65.636 47.04900000000002,64.817 47.04900000000002,63.80499999999999 L 47.04900000000002,39.499 L 48.02100000000002,39.499 L 48.02100000000002,47.683 C 48.02100000000002,48.445 48.64000000000002,49.066 49.40200000000002,49.066 C 50.16700000000002,49.066 50.78400000000002,48.445 50.78400000000002,47.683 L 50.78400000000002,38.018 L 51.89000000000002,38.018 L 51.89000000000002,63.704 C 51.89000000000002,64.768 52.75400000000002,65.636 53.82300000000002,65.636 C 54.89000000000002,65.636 55.75600000000002,64.76899999999999 55.75600000000002,63.70399999999999 L 55.75600000000002,49.066 L 56.86000000000002,49.066 L 56.86000000000002,63.704 C 56.86000000000002,64.768 57.72700000000002,65.636 58.79300000000002,65.636 C 59.86400000000002,65.636 60.73000000000002,64.76899999999999 60.73000000000002,63.70399999999999 L 60.73000000000002,38.018 L 61.33400000000002,38.018 C 62.29700000000002,41.018 63.26000000000002,44.012 64.22200000000002,47.012 C 64.373,47.479 64.687,47.746 65.049,47.877"/>
	<path d="M 50.0,12.5 L 86.111,44.444 L 100.0,44.441 L 83.333,29.629 L 83.333,4.169 L 65.277,4.169 L 65.277,13.581 L 50.0,0.0 L 0.0,44.441 L 13.889,44.444 L 50.0,12.5" points="50,12.5 86.111,44.444 100,44.441 83.333,29.629 83.333,4.169 65.277,4.169 65.277,13.581 50,0 0,44.441   13.889,44.444 "/>
</svg>
