<?xml version="1.0" ?>
<svg xmlns="http://www.w3.org/2000/svg" xmlns:cc="http://creativecommons.org/ns#" xmlns:dc="http://purl.org/dc/elements/1.1/" xmlns:ev="http://www.w3.org/2001/xml-events" xmlns:inkscape="http://www.inkscape.org/namespaces/inkscape" xmlns:rdf="http://www.w3.org/1999/02/22-rdf-syntax-ns#" xmlns:sodipodi="http://sodipodi.sourceforge.net/DTD/sodipodi-0.dtd" xmlns:svg="http://www.w3.org/2000/svg" xmlns:xlink="http://www.w3.org/1999/xlink" baseProfile="full" height="600px" version="1.1" viewBox="0 0 80 80" width="78px" x="0px" y="0px">
	<defs/>
	<path d="M 43.501057,13.547264 C 43.501087000000005,12.993352 43.482757,12.439953000000001 43.427857,11.886929 C 43.50865700000001,11.174816 43.50865700000001,10.447552 43.412657,9.7354382 C 43.362157,9.503118200000001 43.245987,9.290999200000002 43.271237000000006,9.048578200000001 C 43.261137000000005,7.735461200000001 43.190437,6.422345200000001 43.215737000000004,5.109228200000001 C 43.205637,4.669839200000001 43.241037000000006,4.225400200000001 43.165237000000005,3.7910612000000015 C 43.023827000000004,3.4375302000000016 42.79655700000001,3.0334942000000016 42.397577000000005,2.9375362000000016 C 41.983437,2.8365272000000017 41.569297000000006,2.7102652000000016 41.140007000000004,2.6900642000000015 C 39.761237,2.5638022000000014 38.377417,2.5688532000000013 36.998647000000005,2.5890552000000016 C 36.37743700000001,2.5940552000000014 35.77643700000001,2.7456192000000015 35.18048700000001,2.8920822000000017 C 34.751197000000005,2.9627922000000018 34.483517000000006,3.3314712000000015 34.20574700000001,3.6243972000000015 C 34.04918700000001,3.9930792000000017 34.15014700000001,4.417317200000001 34.11484700000001,4.806201200000002 C 34.15524700000001,6.240529200000002 34.03404700000001,7.684957200000002 34.20574700000001,9.114233200000001 C 34.17544700000001,9.3011002 34.02897700000001,9.452613200000002 34.02392700000001,9.6546312 C 33.99872700000001,10.20008 33.93302700000001,10.755629 34.054227000000004,11.296027 C 34.114827000000005,11.452591 34.256237000000006,11.553600000000001 34.377447000000004,11.664710000000001 C 34.241087,11.937434000000001 34.049177,12.205107000000002 34.089577000000006,12.528336000000001 C 34.155277000000005,12.755606000000002 34.26633700000001,12.967725000000002 34.326947000000004,13.200046 C 34.210787,13.316206000000001 34.04917700000001,13.417215 34.013817,13.593981000000001 C 33.90270700000001,13.886907 34.155237,14.104076000000001 34.276447000000005,14.341447 C 34.160287000000004,14.498011 34.023917000000004,14.639423 33.93301700000001,14.816189000000001 C 33.93301700000001,15.189922000000001 34.034017000000006,15.568706 33.94311700000001,15.942439000000002 C 33.842107000000006,16.588896000000002 33.872417000000006,17.240404 33.86731700000001,17.886861000000003 C 33.88751700000001,18.866648000000005 33.77641700000001,19.841385000000002 33.862317000000004,20.816121000000003 C 33.912817000000004,21.205006 33.811817000000005,21.58884 33.862317000000004,21.972674 C 33.887617000000006,22.245398 33.973427,22.528223 33.88251700000001,22.795897 C 33.746157000000004,23.245387 34.02392700000001,23.720129 33.83201700000001,24.154467 C 33.705757000000006,24.427191 33.84721700000001,24.715067 33.91781700000001,24.982741 C 33.948117,25.305969 33.77135700000001,25.598895000000002 33.781457,25.917074 C 33.781457,26.674641 33.781457,27.432208 33.852157000000005,28.189775 C 33.882457,30.260459 33.887457000000005,32.331142 33.816757,34.401826 C 33.811757,40.714886 33.826857000000004,47.027946 33.811757,53.341006 C 33.746057,54.457155 33.806757,55.578354 33.705707,56.694506 C 33.720907,57.108636 33.867317,57.507625999999995 33.938027,57.916715999999994 C 34.690537,61.542936 35.443056999999996,65.16915599999999 36.190526999999996,68.79537599999999 C 36.821827,71.901406 37.503637,74.99732599999999 38.089487,78.10840599999999 C 38.074287,78.35082599999998 38.286457,78.46698599999999 38.458177,78.57304599999999 C 38.927867,78.062946 38.872307,77.30032599999998 39.069277,76.67407599999999 C 40.296537,70.32061599999999 41.634907,63.992395999999985 42.932867,57.654085999999985 C 43.059127000000004,56.977325999999984 43.276297,56.31066599999998 43.261147,55.613706999999984 C 43.276347,52.406672999999984 43.230847000000004,49.19458799999998 43.286347,45.98755399999998 C 43.341947,43.53808599999998 43.296447,41.09366999999998 43.311647,38.64420199999998 C 43.331847,37.17957199999998 43.251047,35.71494199999998 43.261147,34.25031299999998 C 43.266147000000004,32.058417999999975 43.256147,29.861472999999975 43.261147,27.669578999999977 C 43.352047,27.063524999999977 43.417717,26.442319999999977 43.372257,25.82616499999998 C 43.346956999999996,25.487784999999977 43.256097,25.14435499999998 43.326757,24.800924999999978 C 43.432817,23.841338999999977 43.276257,22.866602999999976 43.422757,21.912067999999977 C 43.352056999999995,21.073693999999975 43.483357,20.240369999999977 43.463156999999995,19.401995999999976 C 43.437856999999994,18.371703999999976 43.564167,17.341412999999974 43.437856999999994,16.316171999999977 C 43.45045699999999,15.394464999999977 43.50095699999999,14.470449999999976 43.50095699999999,13.547263999999977 L 43.501057,13.547264 M 42.907627000000005,9.9122042 C 42.88242700000001,10.467753 42.857127000000006,11.028353 42.852127,11.583902 C 41.907687,11.538452 40.973357,11.351582 40.028927,11.33138 C 39.054187000000006,11.29603 38.074397000000005,11.22027 37.099667000000004,11.30613 C 36.427957000000006,11.35663 35.751197000000005,11.39199 35.079487,11.432390999999999 C 34.867367,11.376840999999999 34.559287,11.563702999999999 34.680497,11.821275 C 34.695697,11.952587 34.826957,12.033394 34.948177,12.053596 C 35.736047,12.129356000000001 36.518857000000004,12.018246000000001 37.301677,11.967736 C 39.155197,11.846526 41.003657,12.038446 42.842027,12.255612000000001 C 42.857227,12.871767000000002 42.857227,13.487921000000002 42.857227,14.109126000000002 C 41.968347,14.088926 41.084517000000005,13.987916000000002 40.195637000000005,13.932361000000002 C 39.347167000000006,13.897011000000003 38.498687000000004,14.028321000000002 37.655267,13.967711000000001 C 36.746177,13.917201000000002 35.826997,13.891951 34.928017000000004,14.063671000000001 C 34.796707000000005,14.088921000000001 34.67549700000001,14.16468 34.559337000000006,14.230336000000001 C 34.57453700000001,13.922259 34.589637,13.609131000000001 34.614937000000005,13.301054 C 34.796747,13.437416 34.98866700000001,13.583879000000001 35.231087,13.543475 C 35.675527,13.503075 35.801787000000004,12.811160000000001 35.428057,12.588941 C 35.180587,12.36167 34.852307,12.573791 34.614937000000005,12.700050000000001 C 34.625037000000006,11.68491 34.614937000000005,10.674821000000001 34.680637000000004,9.6647312 C 37.423027000000005,9.4223102 40.18057700000001,9.6091712 42.90781700000001,9.9122032 L 42.907627000000005,9.9122042 M 42.862227000000004,16.018196 C 42.786427,17.684843 42.806627000000006,19.351491 42.806627000000006,21.018138999999998 C 40.483427000000006,21.058539 38.160217,20.896928 35.83700700000001,20.861575 C 35.382467000000005,20.866674999999997 34.92287700000001,20.851474999999997 34.468337000000005,20.907024999999997 C 34.513837,19.573707 34.523937000000004,18.240388999999997 34.53903700000001,16.907069999999997 C 34.635037000000004,17.922210999999997 34.60473700000001,18.937350999999996 34.64004700000001,19.952491 C 34.64504700000001,20.114105 34.76125700000001,20.280769999999997 34.93296700000001,20.300970999999997 C 35.064287000000014,20.306070999999996 35.24609700000001,20.245420999999997 35.256197000000014,20.088852999999997 C 35.316797000000015,18.937350999999996 35.29159700000002,17.780797999999997 35.215797000000016,16.629295999999997 C 35.17539700000002,16.285864999999998 34.75620700000002,16.376772999999996 34.55923700000002,16.538385999999996 C 34.56423700000002,16.366670999999997 34.56933700000002,16.028290999999996 34.57443700000002,15.856574999999996 C 35.18049700000002,15.927284999999996 35.78654700000002,15.871724999999996 36.392597000000016,15.836374999999995 C 38.549137000000016,15.755564999999995 40.710737000000016,15.861624999999995 42.86222700000002,16.018190999999995 L 42.862227000000004,16.018196 M 42.857227,14.795987 C 42.852227,14.932349 42.842027,15.215174000000001 42.837027,15.351537 C 41.079467,15.240427 39.316857,15.134367000000001 37.554257,15.154569 C 36.559317,15.169719 35.554277,15.134369 34.579537,15.346486 C 34.574537,15.073762 34.569437,14.795987 34.569437,14.523263 C 34.907817,14.785886 35.372457,14.644474 35.766397,14.639423 C 36.948197,14.533364 38.135056999999996,14.700033000000001 39.321906999999996,14.614173000000001 C 40.503716999999995,14.558623 41.685517,14.684883000000001 42.857226999999995,14.795989 L 42.857227,14.795987 M 42.811727000000005,21.674697000000002 C 42.806727,21.886816000000003 42.801627,22.103985 42.791527,22.316104000000003 C 42.190527,22.331254 41.589517,22.336304000000002 40.988517,22.331254 C 39.842067,22.346404 38.705717,22.144387000000002 37.564317,22.199942 C 36.938057,22.225192 36.306757000000005,22.250442 35.685547,22.184792 C 35.282057,22.164622 34.843057,22.063419000000003 34.469657,22.269392 C 34.476656999999996,22.011241 34.480357,21.752145 34.478657,21.492885 C 37.256406999999996,21.513085 40.029106999999996,21.705004000000002 42.811897,21.674701000000002 L 42.811727000000005,21.674697000000002 M 42.78142700000001,22.987814 C 42.76632700000001,23.103974 42.73602700000001,23.341345 42.72082700000001,23.457505 C 41.867307000000004,23.583767 41.00872700000001,23.659523 40.14510700000001,23.674675 C 39.07945700000001,23.603965000000002 38.01381700000001,23.634275 36.94816700000001,23.669575000000002 C 36.09969700000001,23.709975000000004 35.246167000000014,23.366548 34.41284700000001,23.603915 C 34.435147000000015,23.160564 34.45754700000001,22.717746 34.469647000000016,22.273122 C 34.54844700000002,22.400745 34.510047000000014,22.700163 34.710797000000014,22.745339 C 35.95825700000001,22.952408000000002 37.22592700000001,22.856449 38.488537000000015,22.861500000000003 C 39.917817000000014,22.982710000000004 41.35213700000001,23.002912000000002 42.78141700000002,22.987761000000003 L 42.78142700000001,22.987814 M 42.75622700000001,24.149417 L 42.75622700000001,24.901934 C 41.55926700000001,24.972644 40.36736700000001,25.048397 39.17040700000001,25.098901 C 37.79668700000001,25.144351 36.422967000000014,25.028191000000003 35.05428700000001,24.876681 C 34.80681700000001,24.795871 34.57954700000001,24.917081000000003 34.41288700000001,25.088800000000003 C 34.417887000000015,24.715067 34.417887000000015,24.341334000000003 34.417887000000015,23.972651000000003 C 34.58959700000001,24.068611000000004 34.77646700000002,24.139316 34.968387000000014,24.159518000000002 C 35.84716700000001,24.275678000000003 36.73098700000001,24.371636000000002 37.614817000000016,24.321132000000002 C 37.720877000000016,24.603957 37.88754700000002,24.987791 38.261277000000014,24.906984 C 38.574407000000015,24.881734 38.741067000000015,24.593856000000002 38.756217000000014,24.305981000000003 C 39.59964700000001,24.275681000000002 40.44306700000001,24.386791000000002 41.28649700000001,24.290831000000004 C 41.776387000000014,24.245381000000005 42.26627700000001,24.194871000000003 42.75617700000001,24.149419000000005 L 42.75622700000001,24.149417 M 42.75622700000001,25.568593 L 42.75622700000001,27.432208 C 40.92796700000001,27.669579 39.08454700000001,27.533217 37.25123700000001,27.624125 C 36.28659700000001,27.634225 35.32701700000001,27.513015 34.36742700000001,27.437258 C 34.372427000000016,26.720095 34.41292700000001,26.002931 34.41792700000001,25.285768 C 34.55933700000001,25.412029 34.72600700000001,25.523139 34.92801700000001,25.518088000000002 C 37.523947000000014,25.866569000000002 40.15018700000001,25.785762000000002 42.756217000000014,25.568598 L 42.75622700000001,25.568593 M 42.74612700000001,17.167173 C 42.74641700000001,16.975886999999997 42.74212700000001,16.785232999999998 42.73092700000001,16.593947 C 42.68542700000001,16.301021 42.17537700000001,16.29597 42.12486700000001,16.588847 C 42.02385700000001,17.235305 42.06426700000001,17.896913 42.01375700000001,18.548421 C 42.00365700000001,19.043365 41.93295700000001,19.533258 41.983457000000016,20.028202 C 41.998657000000016,20.220119 42.230927000000015,20.371633 42.40769700000001,20.270624 C 42.64506700000001,20.179714 42.62991700000001,19.871638 42.65516700000001,19.654469000000002 C 42.65516700000001,18.825565 42.74486700000001,17.996028000000003 42.74606700000001,17.167124 L 42.74612700000001,17.167173 M 42.65522700000001,28.13422 L 42.65522700000001,43.543137 C 42.54916700000001,47.512789 42.63502700000001,51.492542 42.59962700000001,55.462194000000004 C 42.58952700000001,55.931886000000006 42.46831700000001,56.38642600000001 42.37740700000001,56.840966 C 42.008727000000015,56.234916 41.655197000000015,55.618758 41.27136700000001,55.022805000000005 C 41.215767000000014,54.92684500000001 41.145097000000014,54.82583700000001 41.129947000000016,54.714727 C 41.15524700000002,48.73499700000001 41.129947000000016,42.755267 41.145147000000016,36.775537 C 41.24114700000001,33.932134 41.17044700000002,31.088732 41.19064700000001,28.24533 C 41.680537000000015,28.204929999999997 42.16538700000001,28.16452 42.65527700000001,28.13422 L 42.65522700000001,28.13422 M 42.609727000000014,9.210192199999998 C 40.008747000000014,8.982922199999997 37.392617000000016,8.740500199999998 34.791637000000016,8.998073199999999 C 34.87243700000002,7.270820199999998 34.80173700000002,5.538516199999998 34.832037000000014,3.811263199999998 C 35.35222700000001,3.4425801999999983 36.00878700000001,3.3769251999999983 36.614837000000016,3.2759161999999984 C 38.170377000000016,3.1850061999999983 39.730967000000014,3.2456161999999984 41.286507000000015,3.361776199999998 C 41.61983700000001,3.427436199999998 41.97336700000002,3.467836199999998 42.281447000000014,3.6244001999999984 C 42.65012700000001,3.8870231999999985 42.528917000000014,4.371866199999999 42.55921700000001,4.755700199999998 C 42.528917000000014,6.240532199999998 42.58451700000001,7.7253631999999985 42.60971700000001,9.210195199999998 L 42.609727000000014,9.210192199999998 M 42.252417000000015,13.261913999999997 C 42.25251700000002,13.211963999999996 42.24441700000001,13.160272999999997 42.22591700000002,13.109137999999998 C 42.170417000000015,12.775807999999998 41.720877000000016,12.563688999999998 41.443097000000016,12.785908999999998 C 41.05926700000001,12.962674999999999 41.114817000000016,13.599030999999998 41.508797000000015,13.730342999999998 C 41.83580700000002,13.902688999999997 42.25171700000001,13.611577999999998 42.25247700000001,13.261913999999997 L 42.252417000000015,13.261913999999997 M 42.23601700000002,57.527826 C 41.37744700000002,61.795455999999994 40.54916700000002,66.068136 39.66028700000002,70.325666 C 39.52897700000002,70.057986 39.392617000000016,69.734756 39.039087000000016,69.709506 C 38.619897000000016,70.467076 38.11990700000002,71.209486 37.433047000000016,71.754936 C 36.513857000000016,67.330746 35.61992700000002,62.896456 34.69569700000002,58.472256 C 34.640197000000015,58.310646 34.624997000000015,58.133876 34.725997000000014,57.992466 C 35.266387000000016,57.143996 35.79668700000001,56.290466 36.33708700000001,55.441992 C 36.89263700000001,55.977336 37.42798700000001,56.522785999999996 37.96837700000001,57.073285999999996 C 38.11484700000001,57.204595999999995 38.25120700000001,57.396516 38.463327000000014,57.421766 C 38.61988700000001,57.391466 38.73604700000001,57.265206 38.862307000000015,57.174296 C 39.518867000000014,56.623796 40.129967000000015,56.027846 40.806727000000016,55.502597 C 41.064307000000014,55.931886 41.32692700000002,56.356126 41.569347000000015,56.795516 C 41.741067000000015,57.083386 41.882477000000016,57.436916 42.236007000000015,57.527826 L 42.23601700000002,57.527826 M 41.754967000000015,16.616673999999996 C 41.745967000000014,16.463321999999994 41.62207700000001,16.331954999999997 41.47844700000002,16.290919999999996 C 41.28653700000002,16.260619999999996 41.09966700000002,16.427281999999995 41.094617000000014,16.624248999999995 C 41.069417000000016,17.568682999999996 41.08961700000001,18.508065999999996 41.08961700000001,19.452499999999993 C 41.109817000000014,19.664618999999995 41.07441700000001,19.891888999999992 41.15531700000001,20.093906999999994 C 41.27147700000001,20.215117999999993 41.47348700000001,20.199966999999994 41.60985700000001,20.265621999999993 C 41.771467000000015,19.866636999999994 41.74116700000001,19.422197999999995 41.75126700000001,18.997959999999992 C 41.74626700000001,18.24039299999999 41.76646700000001,17.482825999999992 41.74116700000001,16.725257999999993 C 41.75256700000001,16.68832799999999 41.75706700000001,16.652067999999993 41.75506700000001,16.616673999999993 L 41.754967000000015,16.616673999999996 M 40.83578700000002,19.893151999999997 C 40.83538700000002,19.834691999999997 40.82678700000002,19.77857 40.81178700000002,19.730274999999995 C 40.72088700000002,18.694932999999995 40.78148700000002,17.649489999999997 40.63501700000002,16.624248999999995 C 40.52390700000002,16.316171999999995 40.05926700000002,16.427281999999995 40.03401700000002,16.725257999999997 C 40.05421700000002,17.760599999999997 40.11981700000002,18.795941999999997 40.15522700000002,19.836333999999997 C 40.180427000000016,20.013099999999998 40.17042700000002,20.295924999999997 40.40269700000002,20.341378999999996 C 40.69814700000002,20.443965999999996 40.83746700000002,20.146477999999995 40.835777000000014,19.893151999999997 L 40.83578700000002,19.893151999999997 M 40.53654700000002,31.144287 C 40.53590700000002,32.112711 40.52644700000002,33.081134 40.48854700000002,34.048294999999996 C 40.47844700000002,39.603787 40.483547000000016,45.159279999999995 40.483547000000016,50.714772999999994 C 40.48854700000002,52.108695999999995 40.37243700000002,53.50261999999999 40.46334700000001,54.901593999999996 C 39.80679700000001,55.487446 39.15023700000001,56.068245999999995 38.47347700000001,56.628845999999996 C 38.00378700000001,56.199555999999994 37.55934700000001,55.74501599999999 37.10480700000001,55.305629999999994 C 37.00880700000001,55.19452 36.862387000000005,55.088460999999995 36.86743700000001,54.92684599999999 C 36.91793700000001,53.48746899999999 36.89273700000001,52.05314099999999 36.897737000000006,50.61376399999999 L 36.897737000000006,28.29583499999999 C 38.10984700000001,28.27563499999999 39.32194700000001,28.21502499999999 40.534057000000004,28.24028499999999 C 40.529057,29.20744499999999 40.537057000000004,30.175868999999988 40.537057000000004,31.14429199999999 L 40.53654700000002,31.144287 M 39.39766700000002,16.639401 C 39.37236700000002,16.508089 39.27140700000002,16.366677 39.11989700000002,16.371727 C 38.84211700000002,16.255567 38.70575700000002,16.558594 38.71585700000002,16.770712 C 38.73105700000002,17.785852 38.65525700000002,18.795942 38.67045700000002,19.806032 C 38.63005700000002,20.01815 38.74615700000002,20.270673 38.97347700000002,20.306026 C 39.15529700000002,20.311026 39.30680700000001,20.134311 39.31185700000002,19.957545 C 39.367457000000016,18.856547 39.39775700000002,17.745449 39.39775700000002,16.639401 L 39.39766700000002,16.639401 M 38.31560700000002,13.111663 C 38.31530700000002,13.060833 38.30660700000002,13.009391 38.28660700000002,12.957624000000001 C 38.22600700000002,12.518235 37.57954700000002,12.442479 37.33712700000002,12.770758 C 37.14520700000001,13.033381 37.24622700000002,13.462669 37.55934700000002,13.588930000000001 C 37.88635700000002,13.770115 38.31778700000002,13.467473000000002 38.31564700000002,13.111663000000002 L 38.31560700000002,13.111663 M 38.08581700000002,16.992932 C 38.08556700000002,16.876634 38.08281700000002,16.760612 38.07981700000002,16.644451 C 38.07481700000002,16.311122 37.54447700000002,16.275769 37.47376700000002,16.588901 C 37.36265700000002,17.104047 37.40806700000002,17.634344 37.36770700000002,18.15454 C 37.35250700000002,18.780796000000002 37.286907000000014,19.412102 37.32730700000002,20.038357 C 37.36260700000002,20.235325 37.62022700000002,20.391889000000003 37.79194700000002,20.245426000000002 C 38.03941700000002,20.063609000000003 37.94345700000002,19.694927000000003 37.99901700000002,19.437354000000003 C 38.01221700000002,18.624232000000003 38.08781700000002,17.807026000000004 38.08611700000002,16.992937 L 38.08581700000002,16.992932 M 36.65527700000002,16.492938 C 36.50880700000002,16.442428 36.36234700000002,16.396977999999997 36.20578700000002,16.381828 C 35.938107000000024,16.553542999999998 36.01386700000002,16.917175 35.98861700000002,17.179799 C 35.99871700000002,18.003021999999998 35.91791700000002,18.831295 35.94311700000002,19.654518 C 35.92291700000002,19.811082 35.97341700000002,20.114109 36.190597000000025,20.109058 C 36.42291700000003,20.220168 36.56432700000003,19.987848 36.58957700000003,19.806032000000002 C 36.67547700000003,18.705034 36.635077000000024,17.593935000000002 36.65527700000003,16.492938000000002 L 36.65527700000002,16.492938 M 36.24618700000002,53.997564 C 36.21088700000002,54.209683 36.30178700000002,54.477356 36.14012700000002,54.654121999999994 C 35.48356700000002,55.436941999999995 35.02397700000002,56.36117599999999 34.43812700000002,57.19954599999999 C 34.49372700000002,55.72986799999999 34.46842700000002,54.25513699999999 34.47342700000002,52.78545599999999 L 34.47342700000002,37.634112999999985 C 34.56942700000002,34.46748199999998 34.50372700000002,31.300850999999984 34.52392700000002,28.129169999999984 C 35.09967700000002,28.139269999999986 35.67037700000002,28.189779999999985 36.24107700000002,28.245329999999985 C 36.24607700000002,36.83109099999999 36.236077000000016,45.41685299999999 36.24607700000002,53.99756399999998 L 36.24618700000002,53.997564" style="opacity:0.97000002;fill:#000000;stroke:#000000;stroke-width:0.0047348"/>
</svg>
