<?xml version="1.0" ?>
<svg xmlns="http://www.w3.org/2000/svg" xmlns:ev="http://www.w3.org/2001/xml-events" xmlns:xlink="http://www.w3.org/1999/xlink" baseProfile="full" enable-background="new 0 0 100 93.905" height="564px" version="1.1" viewBox="0 0 100 93.905" width="600px" x="0px" xml:space="preserve" y="0px">
	<defs/>
	<path d="M 49.637,43.131 C 49.637,38.987 52.997,35.633 57.135,35.633 C 61.269,35.633 64.638,38.987 64.638,43.131 C 64.638,47.262 61.269000000000005,50.631 57.135000000000005,50.631 C 52.997,50.631 49.637,47.262 49.637,43.131"/>
	<path d="M 40.05,35.371 L 14.934,35.371 L 0.0,37.657 L 0.0,50.620999999999995 L 7.537,50.62499999999999 C 6.939,49.657 6.577,48.526999999999994 6.577,47.31199999999999 C 6.577,43.81199999999999 9.422,40.96799999999999 12.921,40.96799999999999 L 26.676000000000002,40.96799999999999 L 37.825,38.63799999999999 L 38.443000000000005,41.59899999999999 L 26.988000000000007,43.99199999999999 L 12.92,43.99199999999999 C 11.086,43.99199999999999 9.600999999999999,45.47699999999999 9.600999999999999,47.31199999999999 C 9.600999999999999,49.12899999999999 11.062999999999999,50.60199999999999 12.876999999999999,50.62499999999999 L 40.11,50.62799999999999 C 44.32,50.59499999999999 47.7,47.20199999999999 47.7,43.007999999999996 C 47.7,38.794 44.291,35.371 40.05,35.371"/>
	<path d="M 53.047,77.418 C 69.803,77.418 83.384,63.83500000000001 83.384,47.07900000000001 C 83.384,30.322000000000006 69.803,16.74000000000001 53.047,16.74000000000001 C 42.093999999999994,16.74000000000001 32.524,22.56900000000001 27.189999999999998,31.27300000000001 L 39.894999999999996,31.27300000000001 C 43.477999999999994,28.27200000000001 48.086,26.46100000000001 53.125,26.46100000000001 C 64.51,26.46100000000001 73.741,35.69300000000001 73.741,47.07900000000001 C 73.741,58.468 64.51,67.7 53.125,67.7 C 49.894,67.7 46.851,66.935 44.129,65.61200000000001 L 29.067,65.61200000000001 C 34.614,72.782 43.28,77.418 53.047,77.418"/>
	<path d="M 53.047,0.0 C 32.287,0.0 14.688,13.483 8.491,32.164 L 14.277,31.263 L 23.665,31.266000000000002 C 29.3,20.814 40.343,13.709 53.047,13.709 C 71.477,13.709 86.41399999999999,28.651 86.41399999999999,47.07899999999999 C 86.41399999999999,65.50999999999999 71.47599999999998,80.448 53.04699999999999,80.448 C 41.47599999999999,80.448 31.28699999999999,74.55199999999999 25.30199999999999,65.606 L 9.959,65.606 C 17.173000000000002,82.252 33.745999999999995,93.905 53.04600000000001,93.905 C 78.978,93.905 100.0,72.885 100.0,46.953 C 100.0,21.023 78.978,0.0 53.047,0.0 M 63.701,10.678 C 63.531,11.356000000000002 62.927,11.808 62.259,11.808 C 62.139,11.808 62.016,11.795 61.897,11.762 C 56.168,10.333 50.083,10.333 44.348,11.762 C 43.551,11.975 42.743,11.476 42.543,10.679 C 42.344,9.882 42.829,9.074 43.63,8.875 C 49.834,7.3260000000000005 56.415000000000006,7.3260000000000005 62.618,8.875 C 63.415,9.073 63.9,9.88 63.701,10.678"/>
	<path d="M 0.023,55.587 L 63.23500000000001,55.587 L 63.23500000000001,61.512 L 0.023,61.512 L 0.023,55.587" height="5.925" width="63.212" x="0.023" y="55.587"/>
</svg>
