<?xml version="1.0" ?>
<svg xmlns="http://www.w3.org/2000/svg" xmlns:ev="http://www.w3.org/2001/xml-events" xmlns:xlink="http://www.w3.org/1999/xlink" baseProfile="full" enable-background="new 0 0 1190.55 841.89" height="600px" version="1.1" viewBox="0 0 1190.55 841.89" width="560px" x="0px" xml:space="preserve" y="0px">
	<defs/>
	<path clip-rule="evenodd" d="M 689.566,466.613 C 700.197,455.329 714.789,458.636 727.7040000000001,455.801 C 725.3270000000001,455.33299999999997 722.9420000000001,455.263 720.6120000000001,454.87399999999997 C 718.9440000000001,454.59599999999995 716.5530000000001,456.25499999999994 715.7110000000001,453.64199999999994 C 714.9610000000001,451.32199999999995 716.5310000000002,449.90399999999994 718.3100000000002,448.50899999999996 C 721.5990000000002,445.93399999999997 723.2990000000002,442.246 721.1640000000002,438.49399999999997 C 718.4310000000003,433.695 717.9350000000002,428.479 716.8380000000002,423.33299999999997 C 716.3840000000002,421.21299999999997 716.2170000000002,418.91799999999995 713.9930000000002,417.53099999999995 C 712.1270000000002,419.68499999999995 711.8810000000002,422.20699999999994 711.2690000000001,424.54699999999997 C 710.0510000000002,429.193 711.7370000000001,435.77299999999997 703.4680000000001,435.49899999999997 C 702.671,435.474 701.6610000000001,436.81699999999995 701.027,437.71599999999995 C 698.3910000000001,441.45399999999995 699.2900000000001,445.94699999999995 703.802,448.787 C 706.3820000000001,450.40799999999996 706.933,452.604 706.813,454.98499999999996 C 706.665,457.87999999999994 703.811,456.292 702.2959999999999,457.032 C 696.7879999999999,459.74699999999996 689.3169999999999,459.024 686.5369999999999,466.49199999999996 C 685.9669999999999,468.02 683.79,467.17799999999994 682.353,467.42799999999994 C 678.847,468.0299999999999 675.1179999999999,466.22399999999993 670.699,468.57199999999995 C 672.617,468.83199999999994 673.524,469.11899999999997 674.414,469.04999999999995 C 683.887,468.32699999999994 693.263,468.9669999999999 702.689,470.17099999999994 C 711.56,471.30099999999993 720.222,473.0199999999999 728.6809999999999,475.87799999999993 C 730.121,476.3639999999999 731.9329999999999,476.9939999999999 732.41,474.88199999999995 C 732.846,472.94999999999993 730.831,473.126 729.6859999999999,472.84899999999993 C 725.637,471.8709999999999 721.5559999999999,471.03299999999996 717.4899999999999,470.12499999999994 C 708.346,468.067 698.993,467.65 689.566,466.613" fill="none" fill-rule="evenodd"/>
	<path clip-rule="evenodd" d="M 666.789,473.612 C 686.856,473.622 705.4549999999999,474.427 723.595,479.48600000000005 C 725.119,479.91200000000003 727.607,482.14000000000004 728.246,479.11600000000004 C 728.737,476.795 725.735,476.896 724.072,476.48900000000003 C 712.653,473.68100000000004 700.999,472.01000000000005 689.306,471.98600000000005 C 682.321,471.977 675.054,470.402 666.789,473.612" fill="none" fill-rule="evenodd"/>
	<path clip-rule="evenodd" d="M 724.17,484.614 C 705.126,478.71799999999996 685.8789999999999,474.81699999999995 665.914,478.33799999999997 C 685.68,477.095 704.908,480.982 724.17,484.614" fill="none" fill-rule="evenodd"/>
	<path clip-rule="evenodd" d="M 659.822,488.713 C 666.159,488.514 672.528,488.343 678.944,488.80600000000004 C 690.108,489.612 701.068,491.34000000000003 711.8009999999999,494.55000000000007 C 713.228,494.97600000000006 715.6089999999999,496.49000000000007 716.151,494.1840000000001 C 716.678,491.9330000000001 713.774,492.3080000000001 712.4169999999999,491.99700000000007 C 706.1639999999999,490.5800000000001 699.8829999999999,489.1530000000001 693.531,488.30100000000004 C 682.335,486.8 671.079,485.823 659.822,488.713" fill="none" fill-rule="evenodd"/>
	<path clip-rule="evenodd" d="M 662.652,483.381 C 681.1310000000001,482.779 699.197,485.058 716.878,490.35799999999995 C 717.9250000000001,490.67299999999994 719.3430000000001,491.33099999999996 719.806,489.87999999999994 C 720.4780000000001,487.75899999999996 718.3280000000001,488.06899999999996 717.3000000000001,487.74899999999997 C 707.86,484.84 698.113,483.42799999999994 688.321,482.58 C 679.778,481.839 671.172,481.547 662.652,483.381" fill="none" fill-rule="evenodd"/>
	<path clip-rule="evenodd" d="M 689.566,466.613 C 698.993,467.65 708.345,468.067 717.49,470.125 C 721.556,471.032 725.6370000000001,471.871 729.686,472.849 C 730.831,473.126 732.845,472.95099999999996 732.4100000000001,474.882 C 731.9330000000001,476.994 730.1220000000001,476.36400000000003 728.681,475.878 C 720.2220000000001,473.02 711.5600000000001,471.301 702.6890000000001,470.171 C 693.2620000000001,468.967 683.8860000000001,468.327 674.4140000000001,469.05 C 673.5240000000001,469.119 672.6170000000001,468.832 670.6990000000001,468.572 C 675.118,466.224 678.8470000000001,468.03000000000003 682.3530000000001,467.428 C 683.7900000000001,467.178 685.9660000000001,468.021 686.537,466.492 C 689.316,459.024 696.788,459.747 702.296,457.03200000000004 C 703.811,456.29200000000003 706.6640000000001,457.88000000000005 706.8130000000001,454.985 C 706.9330000000001,452.60400000000004 706.3820000000001,450.408 703.8020000000001,448.78700000000003 C 699.2890000000001,445.94700000000006 698.3910000000002,441.454 701.0270000000002,437.716 C 701.6620000000001,436.818 702.6720000000001,435.474 703.4680000000002,435.499 C 711.7370000000002,435.77200000000005 710.0510000000002,429.192 711.2690000000002,424.547 C 711.8800000000002,422.20700000000005 712.1260000000002,419.685 713.9930000000003,417.531 C 716.2170000000003,418.918 716.3840000000002,421.214 716.8380000000003,423.333 C 717.9360000000003,428.47900000000004 718.4310000000003,433.69500000000005 721.1640000000003,438.494 C 723.3000000000003,442.24600000000004 721.6000000000004,445.93300000000005 718.3100000000003,448.509 C 716.5320000000003,449.904 714.9610000000002,451.322 715.7110000000002,453.642 C 716.5540000000002,456.255 718.9440000000002,454.596 720.6120000000002,454.874 C 722.9420000000002,455.26300000000003 725.3270000000002,455.333 727.7040000000002,455.80100000000004 C 714.789,458.636 700.197,455.329 689.566,466.613 M 711.093,456.004 C 713.103,455.838 713.918,454.61400000000003 713.673,452.558 C 713.46,450.775 712.297,449.603 710.69,449.751 C 708.166,449.98199999999997 709.226,452.35499999999996 708.8330000000001,453.81699999999995 C 708.351,455.629 709.244,456.259 711.093,456.004" fill-rule="evenodd"/>
	<path clip-rule="evenodd" d="M 666.789,473.612 C 675.054,470.40200000000004 682.321,471.97700000000003 689.307,471.98600000000005 C 700.999,472.00900000000007 712.654,473.68100000000004 724.073,476.48900000000003 C 725.736,476.896 728.7379999999999,476.795 728.247,479.11600000000004 C 727.607,482.14000000000004 725.12,479.91200000000003 723.596,479.48600000000005 C 705.455,474.427 686.856,473.622 666.789,473.612" fill-rule="evenodd"/>
	<path clip-rule="evenodd" d="M 724.17,484.614 C 704.9079999999999,480.98199999999997 685.68,477.09499999999997 665.914,478.33799999999997 C 685.879,474.817 705.126,478.717 724.17,484.614" fill-rule="evenodd"/>
	<path clip-rule="evenodd" d="M 659.822,488.713 C 671.079,485.822 682.335,486.8 693.531,488.30100000000004 C 699.8829999999999,489.15400000000005 706.164,490.58000000000004 712.4169999999999,491.99700000000007 C 713.7739999999999,492.30800000000005 716.6789999999999,491.93300000000005 716.151,494.1840000000001 C 715.6089999999999,496.4910000000001 713.228,494.97600000000006 711.8009999999999,494.55000000000007 C 701.068,491.3400000000001 690.108,489.6120000000001 678.944,488.80600000000004 C 672.528,488.343 666.159,488.514 659.822,488.713" fill-rule="evenodd"/>
	<path clip-rule="evenodd" d="M 662.652,483.381 C 671.172,481.54699999999997 679.778,481.839 688.32,482.58 C 698.113,483.428 707.859,484.84 717.2990000000001,487.74899999999997 C 718.3270000000001,488.06899999999996 720.4770000000001,487.75899999999996 719.8050000000001,489.87999999999994 C 719.3420000000001,491.3299999999999 717.9240000000001,490.67299999999994 716.8770000000001,490.35799999999995 C 699.197,485.058 681.131,482.78 662.652,483.381" fill-rule="evenodd"/>
	<path clip-rule="evenodd" d="M 711.093,456.004 C 709.2439999999999,456.259 708.351,455.629 708.832,453.817 C 709.226,452.354 708.165,449.982 710.689,449.75100000000003 C 712.2959999999999,449.603 713.4599999999999,450.77400000000006 713.6719999999999,452.55800000000005 C 713.918,454.615 713.103,455.838 711.093,456.004" fill="none" fill-rule="evenodd"/>
</svg>
