<?xml version="1.0" ?>
<svg xmlns="http://www.w3.org/2000/svg" xmlns:ev="http://www.w3.org/2001/xml-events" xmlns:xlink="http://www.w3.org/1999/xlink" baseProfile="full" enable-background="new 0 0 100 100" height="139px" version="1.1" viewBox="0 0 100 100" width="600px" x="0px" xml:space="preserve" y="0px">
	<defs/>
	<path d="M 92.774,46.934 C 92.773,46.788 92.763,46.641 92.741,46.457 C 92.724,46.323 92.701,46.19 92.665,46.032000000000004 C 92.227,44.124 90.55300000000001,42.792 88.596,42.792 C 86.638,42.792 84.964,44.124 84.524,46.032000000000004 C 84.491,46.176 84.464,46.323 84.44200000000001,46.50000000000001 C 84.42500000000001,46.653000000000006 84.414,46.80800000000001 84.414,46.979000000000006 C 84.414,47.13700000000001 84.426,47.293000000000006 84.446,47.473000000000006 C 84.465,47.62100000000001 84.491,47.767 84.524,47.912000000000006 C 84.964,49.82000000000001 86.638,51.15200000000001 88.596,51.15200000000001 C 90.553,51.15200000000001 92.226,49.81900000000001 92.666,47.912000000000006 C 92.66799999999999,47.904 92.67,47.89600000000001 92.67099999999999,47.888000000000005 C 92.69999999999999,47.757000000000005 92.725,47.621 92.74799999999999,47.443000000000005 C 92.76499999999999,47.290000000000006 92.77499999999999,47.136 92.76799999999999,47.07300000000001 C 92.77399999999999,47.04100000000001 92.77699999999999,47.004000000000005 92.77699999999999,46.97100000000001 C 92.776,46.958 92.775,46.946 92.774,46.934 M 91.508,46.972 C 91.508,46.974000000000004 91.508,46.977000000000004 91.508,46.980000000000004 C 91.508,47.088 91.50099999999999,47.194 91.48599999999999,47.324000000000005 C 91.47299999999998,47.42100000000001 91.457,47.51500000000001 91.43599999999999,47.606 C 91.434,47.613 91.43299999999999,47.620000000000005 91.431,47.627 C 91.125,48.957 89.959,49.885000000000005 88.596,49.885000000000005 C 87.232,49.885000000000005 86.065,48.956 85.75800000000001,47.627 C 85.73500000000001,47.525000000000006 85.71600000000001,47.423 85.7,47.300000000000004 C 85.688,47.196000000000005 85.68,47.088 85.68,46.964000000000006 C 85.68,46.855000000000004 85.688,46.748000000000005 85.70200000000001,46.627 C 85.71500000000002,46.522000000000006 85.73300000000002,46.419000000000004 85.75700000000002,46.317 C 86.06400000000002,44.987 87.23100000000002,44.059 88.59500000000001,44.059 C 89.95300000000002,44.059 91.11600000000001,44.980999999999995 91.42800000000001,46.303 C 91.42900000000002,46.308 91.43,46.314 91.43100000000001,46.32 C 91.45300000000002,46.418 91.47100000000002,46.519 91.48800000000001,46.643 C 91.50100000000002,46.749 91.50800000000001,46.856 91.50800000000001,46.965 C 91.508,46.966 91.508,46.969 91.508,46.972"/>
	<path d="M 90.252,60.831 L 88.146,60.831 L 82.875,48.871 C 82.855,48.827000000000005 82.822,48.795 82.795,48.758 C 82.804,48.63 82.815,48.503 82.815,48.373000000000005 C 82.815,45.11900000000001 80.167,42.47200000000001 76.913,42.47200000000001 C 76.849,42.47200000000001 76.78399999999999,42.482000000000006 76.723,42.50100000000001 L 67.12,45.533000000000015 C 66.524,43.899000000000015 64.99000000000001,42.792000000000016 63.21000000000001,42.792000000000016 C 61.25300000000001,42.792000000000016 59.57900000000001,44.12400000000002 59.13900000000001,46.02800000000001 C 59.10400000000001,46.174000000000014 59.07800000000001,46.32100000000001 59.05700000000001,46.500000000000014 C 59.040000000000006,46.65300000000001 59.02900000000001,46.808000000000014 59.02900000000001,46.97900000000001 C 59.02900000000001,47.137000000000015 59.04100000000001,47.29300000000001 59.06000000000001,47.472000000000016 C 59.07900000000001,47.62300000000002 59.104000000000006,47.77000000000002 59.13800000000001,47.911000000000016 C 59.579000000000015,49.81900000000002 61.253000000000014,51.15100000000002 63.210000000000015,51.15100000000002 C 64.29600000000002,51.15100000000002 65.33500000000001,50.71500000000002 66.10700000000001,49.97100000000002 L 66.12400000000001,49.98500000000002 L 66.12400000000001,53.47300000000002 L 63.19900000000001,58.58000000000002 L 61.86800000000001,58.804000000000016 L 57.528000000000006,48.957000000000015 C 57.514,48.92500000000002 57.489000000000004,48.90300000000001 57.470000000000006,48.875000000000014 C 57.48400000000001,48.70800000000001 57.495000000000005,48.542000000000016 57.495000000000005,48.372000000000014 C 57.495000000000005,45.118000000000016 54.847,42.47100000000002 51.593,42.47100000000002 C 51.529,42.47100000000002 51.464000000000006,42.481000000000016 51.403000000000006,42.50000000000002 L 41.800000000000004,45.532000000000025 C 41.20400000000001,43.898000000000025 39.67,42.791000000000025 37.89,42.791000000000025 C 35.932,42.791000000000025 34.257,44.123000000000026 33.817,46.03100000000003 C 33.783,46.17700000000003 33.757,46.325000000000024 33.736,46.50300000000003 C 33.72,46.65500000000003 33.708999999999996,46.80800000000003 33.708999999999996,46.97800000000003 C 33.708999999999996,47.135000000000026 33.72,47.28900000000003 33.739,47.46700000000003 C 33.757,47.617000000000026 33.782999999999994,47.764000000000024 33.817,47.91100000000003 C 34.257,49.81900000000003 35.932,51.15100000000003 37.89,51.15100000000003 C 38.975,51.15100000000003 40.014,50.71600000000003 40.787,49.97200000000003 L 40.803,49.98600000000003 L 40.803,53.35800000000003 L 37.811,58.582000000000036 L 36.464,58.80900000000003 L 32.16,49.046000000000035 C 32.135999999999996,48.99200000000003 32.096999999999994,48.95000000000004 32.062,48.906000000000034 C 32.077999999999996,48.73000000000003 32.089,48.55300000000003 32.089,48.37300000000003 C 32.089,45.119000000000035 29.442,42.47200000000004 26.186999999999998,42.47200000000004 C 26.122999999999998,42.47200000000004 26.057999999999996,42.482000000000035 25.996,42.50100000000004 L 15.841,45.70700000000004 C 15.578,45.79000000000004 15.399,46.035000000000046 15.399,46.31100000000004 L 15.399,53.35400000000004 L 12.405999999999999,58.58200000000004 L 8.570999999999998,59.228000000000044 C 8.371999999999998,59.26200000000004 8.200999999999999,59.38800000000004 8.110999999999997,59.56800000000005 L 7.293,61.18 C 7.135,61.492 7.261,61.873 7.573,62.031 C 7.665,62.077 7.7620000000000005,62.099 7.8580000000000005,62.099 C 8.089,62.099 8.313,61.971 8.424000000000001,61.75 L 9.094000000000001,60.423 L 12.909,59.781 C 13.097000000000001,59.749 13.260000000000002,59.635 13.354000000000001,59.47 L 16.329,54.275 L 20.637,54.275 L 19.219,60.628 L 15.144000000000002,59.179 C 14.844000000000001,59.069 14.510000000000002,59.204 14.366000000000001,59.491 L 13.552000000000001,61.104 C 13.394000000000002,61.416 13.520000000000001,61.797 13.832,61.955 C 14.145000000000001,62.111999999999995 14.526,61.986999999999995 14.683,61.675 L 15.246,60.561 L 19.47,62.063 C 19.538999999999998,62.087 19.610999999999997,62.1 19.682,62.1 C 19.788,62.1 19.892999999999997,62.073 19.988,62.021 C 20.147,61.933 20.259999999999998,61.782000000000004 20.3,61.604 L 21.936,54.277 L 26.187,54.277 C 26.611,54.277 27.024,54.230000000000004 27.423000000000002,54.144 L 29.168000000000003,61.611 C 29.235000000000003,61.897 29.490000000000002,62.099999999999994 29.785000000000004,62.099999999999994 L 33.248000000000005,62.099999999999994 C 33.251000000000005,62.099999999999994 33.254000000000005,62.09799999999999 33.258,62.09799999999999 C 33.261,62.09799999999999 33.263000000000005,62.099999999999994 33.266000000000005,62.099999999999994 C 33.28300000000001,62.099999999999994 33.297000000000004,62.087999999999994 33.31400000000001,62.08599999999999 C 33.391000000000005,62.07799999999999 33.46300000000001,62.05999999999999 33.52900000000001,62.02599999999999 C 33.57700000000001,62.00399999999999 33.616000000000014,61.97299999999999 33.65700000000001,61.938999999999986 C 33.68500000000001,61.914999999999985 33.70900000000001,61.886999999999986 33.73300000000001,61.85799999999998 C 33.76500000000001,61.820999999999984 33.808000000000014,61.79699999999998 33.83200000000001,61.75199999999998 L 34.50300000000001,60.42399999999998 L 35.70300000000001,60.22199999999998 L 36.36400000000001,61.72199999999998 C 36.46500000000001,61.95099999999998 36.69300000000001,62.09999999999998 36.94400000000001,62.09999999999998 L 39.50600000000001,62.09999999999998 C 39.790000000000006,62.09999999999998 40.02100000000001,61.90999999999998 40.102000000000004,61.65199999999998 L 40.655,60.56099999999998 L 44.879000000000005,62.06299999999998 C 44.94800000000001,62.08699999999998 45.02,62.09999999999998 45.09100000000001,62.09999999999998 C 45.19700000000001,62.09999999999998 45.30200000000001,62.07299999999998 45.397000000000006,62.02099999999998 C 45.556000000000004,61.93299999999998 45.669000000000004,61.78199999999998 45.709,61.60399999999998 L 47.345000000000006,54.27699999999998 L 51.596000000000004,54.27699999999998 C 52.02,54.27699999999998 52.43300000000001,54.22999999999998 52.831,54.14399999999998 L 54.576,61.610999999999976 C 54.643,61.89699999999998 54.899,62.09999999999997 55.193,62.09999999999997 L 58.656,62.09999999999997 C 58.763999999999996,62.09999999999997 58.861,62.065999999999974 58.951,62.01799999999997 C 58.974000000000004,62.004999999999974 58.993,61.989999999999974 59.015,61.973999999999975 C 59.087,61.92299999999997 59.146,61.860999999999976 59.191,61.784999999999975 C 59.199000000000005,61.77199999999998 59.214000000000006,61.76599999999998 59.221000000000004,61.75299999999998 L 59.892,60.424999999999976 L 61.107000000000006,60.220999999999975 L 61.769000000000005,61.72299999999998 C 61.871,61.95199999999998 62.098000000000006,62.10099999999998 62.349000000000004,62.10099999999998 L 64.912,62.10099999999998 C 65.218,62.10099999999998 65.46100000000001,61.87899999999998 65.52000000000001,61.59199999999998 L 66.04100000000001,60.561999999999976 L 70.26500000000001,62.06399999999998 C 70.33300000000001,62.08799999999998 70.40600000000002,62.10099999999998 70.47700000000002,62.10099999999998 C 70.58300000000001,62.10099999999998 70.68900000000002,62.07399999999998 70.78400000000002,62.02199999999998 C 70.94200000000002,61.933999999999976 71.05500000000002,61.78299999999998 71.09600000000002,61.604999999999976 L 72.73300000000002,54.27799999999998 L 76.91600000000003,54.27799999999998 C 77.36200000000002,54.27799999999998 77.79600000000002,54.22299999999998 78.21500000000003,54.129999999999974 L 79.96400000000003,61.61199999999997 C 80.03100000000002,61.897999999999975 80.28700000000002,62.10099999999997 80.58100000000003,62.10099999999997 L 83.15500000000003,62.10099999999997 C 83.50500000000002,62.10099999999997 83.78900000000003,61.81699999999997 83.78900000000003,61.46699999999997 C 83.78900000000003,61.11699999999997 83.50500000000002,60.83299999999997 83.15500000000003,60.83299999999997 L 81.08300000000003,60.83299999999997 L 79.41900000000003,53.71199999999997 C 80.70800000000003,53.105999999999966 81.74300000000002,52.04999999999997 82.31800000000003,50.74299999999997 L 87.15700000000002,61.721999999999966 C 87.25900000000003,61.950999999999965 87.48600000000002,62.099999999999966 87.73700000000002,62.099999999999966 L 90.25700000000002,62.099999999999966 C 90.60700000000001,62.099999999999966 90.89100000000002,61.81599999999997 90.89100000000002,61.465999999999966 C 90.89100000000002,61.115999999999964 90.602,60.831 90.252,60.831 M 63.208,49.884 C 61.845,49.884 60.678,48.955 60.369,47.622 C 60.346,47.521 60.328,47.42 60.313,47.3 C 60.301,47.196 60.293,47.087999999999994 60.293,46.964 C 60.293,46.855 60.301,46.748 60.314,46.626 C 60.327,46.522999999999996 60.344,46.421 60.369,46.315999999999995 C 60.677,44.986 61.844,44.05799999999999 63.207,44.05799999999999 C 64.437,44.05799999999999 65.502,44.81799999999999 65.924,45.94299999999999 L 63.821000000000005,46.72299999999999 C 63.612,46.800999999999995 63.46000000000001,46.98199999999999 63.419000000000004,47.20199999999999 C 63.379000000000005,47.42199999999999 63.456,47.645999999999994 63.624,47.79299999999999 L 65.147,49.129999999999995 C 64.619,49.61 63.941,49.884 63.208,49.884 M 37.889,49.884 C 36.524,49.884 35.357,48.955 35.050000000000004,47.626 C 35.027,47.525999999999996 35.008,47.425 34.99400000000001,47.303999999999995 C 34.983000000000004,47.19799999999999 34.974000000000004,47.08899999999999 34.974000000000004,46.962999999999994 C 34.974000000000004,46.852999999999994 34.983000000000004,46.74399999999999 34.996,46.620999999999995 C 35.008,46.516999999999996 35.026,46.41499999999999 35.049,46.315999999999995 C 35.356,44.986 36.522999999999996,44.05799999999999 37.888,44.05799999999999 C 39.119,44.05799999999999 40.181999999999995,44.81799999999999 40.605,45.94299999999999 L 38.501,46.72399999999999 C 38.291999999999994,46.80199999999999 38.138999999999996,46.98299999999999 38.099,47.20299999999999 C 38.058,47.42299999999999 38.13699999999999,47.64699999999999 38.303999999999995,47.79399999999999 L 39.827,49.13199999999999 C 39.299,49.61 38.622,49.884 37.889,49.884 M 26.185,53.008 L 16.662999999999997,53.008 L 16.662999999999997,46.775000000000006 L 26.279999999999998,43.739000000000004 C 28.791999999999998,43.790000000000006 30.820999999999998,45.849000000000004 30.820999999999998,48.37200000000001 C 30.820999999999998,50.15100000000001 29.802,51.68200000000001 28.328,52.458000000000006 L 27.444,48.67400000000001 C 27.363,48.333000000000006 27.022,48.12200000000001 26.683,48.20100000000001 C 26.342,48.281000000000006 26.131,48.62100000000001 26.21,48.96200000000001 L 27.132,52.90900000000001 C 26.826,52.973 26.509,53.008 26.185,53.008 M 33.974,59.227 C 33.775,59.260999999999996 33.604,59.385999999999996 33.513999999999996,59.565999999999995 L 32.873999999999995,60.831999999999994 L 30.284999999999997,60.831999999999994 L 28.626999999999995,53.739999999999995 C 29.919999999999995,53.148999999999994 30.961999999999996,52.105999999999995 31.551999999999996,50.812 L 35.172,59.025 L 33.974,59.227 M 44.625,60.628 L 40.55,59.179 C 40.248999999999995,59.069 39.916999999999994,59.205000000000005 39.772999999999996,59.49 L 39.093999999999994,60.832 L 37.355,60.832 L 36.991,60.005 L 38.317,59.782000000000004 C 38.504,59.75000000000001 38.668,59.636 38.762,59.471000000000004 L 41.738,54.276 L 46.046,54.276 L 44.625,60.628 M 51.592,53.008 L 42.068,53.008 L 42.068,49.699000000000005 C 42.068,49.517 41.989,49.34400000000001 41.852999999999994,49.223000000000006 L 39.937999999999995,47.541000000000004 L 41.62499999999999,46.914 L 51.68699999999999,43.738 C 54.19899999999999,43.789 56.22699999999999,45.848 56.22699999999999,48.371 C 56.22699999999999,50.150000000000006 55.20899999999999,51.68 53.73499999999999,52.457 L 52.85099999999999,48.673 C 52.770999999999994,48.332 52.43099999999999,48.122 52.08899999999999,48.2 C 51.74899999999999,48.28 51.53699999999999,48.620000000000005 51.61599999999999,48.961000000000006 L 52.538999999999994,52.90800000000001 C 52.232,52.973 51.916,53.008 51.592,53.008 M 59.362,59.227 C 59.164,59.260999999999996 58.993,59.385999999999996 58.902,59.565999999999995 L 58.262,60.831999999999994 L 55.691,60.831999999999994 L 54.034000000000006,53.739999999999995 C 55.327000000000005,53.148999999999994 56.36800000000001,52.10699999999999 56.959,50.81399999999999 L 60.576,59.022999999999996 L 59.362,59.227 M 70.012,60.628 L 65.937,59.179 C 65.637,59.069 65.303,59.206 65.16,59.49 L 64.481,60.832 L 62.75899999999999,60.832 L 62.39399999999999,60.003 L 63.70399999999999,59.782000000000004 C 63.89099999999999,59.75000000000001 64.05399999999999,59.636 64.148,59.471000000000004 L 67.124,54.276 L 71.43199999999999,54.276 L 70.012,60.628 M 79.114,52.426 L 78.23700000000001,48.675000000000004 C 78.15700000000001,48.334 77.81500000000001,48.124 77.47500000000001,48.202000000000005 C 77.135,48.282000000000004 76.923,48.62200000000001 77.00200000000001,48.96300000000001 L 77.92000000000002,52.89000000000001 C 77.59400000000002,52.96300000000001 77.25800000000001,53.00800000000001 76.91000000000001,53.00800000000001 L 67.39,53.00800000000001 L 67.39,49.69900000000001 C 67.39,49.51700000000001 67.311,49.34300000000001 67.174,49.22300000000001 L 65.259,47.54100000000001 L 66.947,46.91400000000001 L 77.007,43.73800000000001 C 79.519,43.78900000000001 81.54700000000001,45.848000000000006 81.54700000000001,48.37100000000001 C 81.546,50.127 80.555,51.639 79.114,52.426"/>
</svg>
