<?xml version="1.0" ?>
<svg xmlns="http://www.w3.org/2000/svg" xmlns:ev="http://www.w3.org/2001/xml-events" xmlns:xlink="http://www.w3.org/1999/xlink" baseProfile="full" enable-background="new 0 0 100 35.316" height="213px" version="1.1" viewBox="0 0 100 35.316" width="600px" x="0px" xml:space="preserve" y="0px">
	<defs/>
	<path d="M 98.567,0.0 L 39.82,0.0 C 39.086,0.0 38.066,0.42 37.544,0.936 L 26.965,11.414 C 26.502,11.872 25.567,12.344999999999999 24.923000000000002,12.445 L 1.392,16.119 C 0.625,16.239 0.0,16.968 0.0,17.745 L 0.0,27.435000000000002 C 0.0,28.225 0.643,28.869000000000003 1.434,28.869000000000003 L 5.864,28.869000000000003 C 5.864,24.282000000000004 9.582,20.564000000000004 14.169,20.564000000000004 C 18.756,20.564000000000004 22.473,24.282000000000004 22.473,28.869000000000003 L 70.77,28.869000000000003 C 70.77,24.282000000000004 74.48899999999999,20.564000000000004 79.07499999999999,20.564000000000004 C 83.66199999999999,20.564000000000004 87.38,24.282000000000004 87.38,28.869000000000003 L 98.568,28.869000000000003 C 99.358,28.869000000000003 100.001,28.225000000000005 100.001,27.435000000000002 L 100.001,1.433 C 100.0,0.643 99.357,0.0 98.567,0.0 M 55.631,11.847 C 55.631,12.637 54.987,13.28 54.197,13.28 L 31.283,13.28 C 30.73,13.28 30.552,13.049 30.495,12.911 C 30.438000000000002,12.773 30.402,12.484 30.795,12.094 L 38.932,4.019 C 39.453,3.5020000000000002 40.473,3.0810000000000004 41.206,3.0810000000000004 L 54.197,3.0810000000000004 C 54.987,3.0810000000000004 55.631,3.724 55.631,4.514 L 55.631,11.847"/>
	<path cx="14.168" cy="28.868" d="M 7.719999999999999,28.868 A 6.448,6.448 0.0 1,0 20.616,28.868 A 6.448,6.448 0.0 1,0 7.719999999999999,28.868" r="6.448"/>
	<path cx="79.074" cy="28.868" d="M 72.626,28.868 A 6.448,6.448 0.0 1,0 85.522,28.868 A 6.448,6.448 0.0 1,0 72.626,28.868" r="6.448"/>
</svg>
