<?xml version="1.0" ?>
<svg xmlns="http://www.w3.org/2000/svg" xmlns:cc="http://creativecommons.org/ns#" xmlns:dc="http://purl.org/dc/elements/1.1/" xmlns:ev="http://www.w3.org/2001/xml-events" xmlns:inkscape="http://www.inkscape.org/namespaces/inkscape" xmlns:rdf="http://www.w3.org/1999/02/22-rdf-syntax-ns#" xmlns:sodipodi="http://sodipodi.sourceforge.net/DTD/sodipodi-0.dtd" xmlns:svg="http://www.w3.org/2000/svg" xmlns:xlink="http://www.w3.org/1999/xlink" baseProfile="full" height="600px" version="1.1" viewBox="0 0 80 80" width="90px" x="0px" y="0px">
	<defs/>
	<path d="M 37.190155,3.0053697 C 37.989934999999996,2.5991297 38.967445,2.3452297 39.843394999999994,2.6879897 C 40.363884999999996,2.9038097 40.83360499999999,3.1957897 41.265224999999994,3.5512497 C 41.78572499999999,3.9574897 41.620684999999995,4.7953497 42.191964999999996,5.1635097000000005 C 42.610895,5.4300997 43.144085,5.3031497000000005 43.613794999999996,5.404709700000001 C 44.032725,5.442809700000001 44.273934999999994,5.823639700000001 44.565915,6.090239700000001 C 44.857895,6.432999700000001 45.226054999999995,6.724989700000001 45.429174999999994,7.1312198 C 45.581514999999996,7.7405798 45.45457499999999,8.3753298 45.467274999999994,8.997379800000001 C 45.467274999999994,14.583160000000001 45.467274999999994,20.16894 45.467274999999994,25.75471 C 45.45457499999999,26.5545 45.37837499999999,27.36697 45.365714999999994,28.16675 C 45.340315,29.195050000000002 46.36861499999999,29.98213 46.076634999999996,31.04851 C 45.733875,31.69595 45.048345,32.15297 44.312034999999995,32.21644 C 43.855014999999995,32.25454 43.372614999999996,32.026019999999995 43.144104999999996,31.61978 C 43.194905,33.219339999999995 43.169504999999994,34.818909999999995 43.194905,36.41847 C 43.131405,37.104 43.334545,37.789519999999996 43.245705,38.46236 C 43.131445,39.05902 42.775985,39.56682 42.585565,40.13809 C 42.445915,40.92518 42.598265000000005,41.724959999999996 42.509365,42.51204 C 42.382415,44.36551 42.433165,46.23166 42.420465,48.09782 C 42.445865,49.20228 42.331565,50.29405 42.306215,51.39851 C 42.255415,53.40431 42.357015000000004,55.41011 42.217315,57.403220000000005 C 42.141115,58.621930000000006 42.179215,59.840650000000004 42.179215,61.046670000000006 C 42.166515,61.60524000000001 41.950705,62.13843000000001 41.976095,62.697010000000006 C 42.179215,65.03288 42.445805,67.35605000000001 42.674315,69.67923 C 42.433115,71.22801 41.328655,72.43403 40.782775,73.86856 C 40.452705,74.92224 39.779875000000004,75.83628 39.487885,76.90265000000001 C 39.272075,77.42315 39.373635,78.00711000000001 39.170515,78.51491000000001 C 39.043565,76.07748000000001 39.183215000000004,73.64005000000002 39.094315,71.20262000000001 C 39.043515,70.69483000000001 39.233955,70.21242000000001 39.513245000000005,69.80618000000001 C 39.424345,69.69192000000001 39.348215,69.59037000000001 39.259345,69.48881000000002 C 39.157785000000004,69.64114000000002 39.068925,69.80618000000001 38.967365,69.95852000000002 C 38.853105,69.79348000000002 38.738855,69.61576000000002 38.548435,69.50150000000002 C 38.459534999999995,69.86965000000002 38.700775,70.17433000000003 38.827715,70.49171000000003 C 38.903915,70.88525000000003 38.865815,71.30418000000003 38.865815,71.71042000000003 C 38.827715,73.98282000000003 38.954715,76.24252000000003 38.827715,78.51491000000003 C 38.675385,78.21023000000002 38.700775,77.86747000000003 38.611905,77.55010000000003 C 38.383395,76.76301000000002 38.218365,75.93784000000002 37.761345,75.22692000000004 C 37.012344999999996,73.69083000000003 36.441065,72.06588000000004 35.552425,70.58057000000004 C 35.146185,69.97121000000004 35.400085,69.22221000000003 35.450865,68.54938000000004 C 35.603205,67.06407000000004 35.755545,65.56607000000004 35.933275,64.08076000000004 C 36.060225,63.01438000000004 36.237955,61.935310000000044 35.996775,60.86894000000004 C 35.857135,58.58385000000004 36.034875,56.29876000000004 35.882525,54.01367000000004 C 35.730185,51.88091000000004 35.895225,49.74816000000004 35.768265,47.62811000000004 C 35.615925,45.41919000000004 35.742865,43.19757000000004 35.679365,40.98865000000004 C 35.717465,40.29043000000004 35.298514999999995,39.69377000000004 35.095394999999996,39.046320000000044 C 34.765325,38.29732000000004 34.930364999999995,37.45946000000004 34.930364999999995,36.67237000000004 C 34.930364999999995,28.255620000000043 34.930364999999995,19.826170000000044 34.930364999999995,11.409420000000043 C 34.854164999999995,10.063760000000043 34.981165,8.705399800000043 35.082705,7.359729800000044 C 35.235034999999996,6.6234297000000435 35.323904999999996,5.8490297000000435 35.679365,5.176199700000044 C 36.022124999999996,4.363729700000044 36.504535,3.576639700000044 37.190065,3.005369700000044 M 43.232855,9.467089800000045 C 43.042435,10.139930000000044 43.118605,10.850840000000044 43.182055,11.536370000000044 C 43.182055,16.703210000000045 43.194755,21.857370000000046 43.182055,27.024210000000046 C 43.093154999999996,27.823990000000045 43.232855,28.623770000000047 43.194755,29.423550000000045 C 43.334395,29.156960000000044 43.689855,29.055400000000045 43.740635,28.738030000000045 C 43.880275,28.103280000000044 43.778735,27.455840000000045 43.753335,26.808400000000045 C 43.639085,24.472530000000045 43.715235,22.123960000000046 43.689835,19.788090000000047 C 43.727935,18.175830000000047 43.524795000000005,16.576260000000048 43.562885,14.964010000000046 C 43.550185,13.402530000000047 43.588285,11.828350000000047 43.550185,10.266880000000047 C 43.575585,9.949499800000046 43.435935,9.682909800000047 43.232815,9.467089800000046 L 43.232855,9.467089800000045" fill="#000000" stroke="#000000" stroke-width="0.01190151"/>
</svg>
