<?xml version="1.0" ?>
<svg xmlns="http://www.w3.org/2000/svg" xmlns:ev="http://www.w3.org/2001/xml-events" xmlns:xlink="http://www.w3.org/1999/xlink" baseProfile="full" enable-background="new 0 0 100 47.275" height="284px" version="1.1" viewBox="0 0 100 47.275" width="600px" x="0px" xml:space="preserve" y="0px">
	<defs/>
	<path d="M 98.923,19.999 L 90.874,11.876999999999999 L 43.727,11.876999999999999 C 39.696,4.775 32.131,-0.019 23.446,0.0 C 10.507,-0.027 0.029,10.559 0.0,23.599 C 0.029,36.67 10.507,47.255 23.446,47.275 C 32.107,47.260999999999996 39.655,42.482 43.693,35.399 L 53.176,35.399 L 60.688,27.889000000000003 L 66.435,33.638000000000005 L 71.952,28.120000000000005 L 77.621,33.787000000000006 L 83.368,28.043000000000006 L 89.115,33.787000000000006 L 98.92399999999999,23.982000000000006 C 100.341,22.505 100.377,21.469 98.923,19.999 M 13.18,29.808 C 9.722,29.776 6.941,26.962 6.973,23.522 C 6.941,20.034999999999997 9.722,17.223 13.18,17.238999999999997 C 16.581,17.220999999999997 19.362000000000002,20.034999999999997 19.387999999999998,23.522 C 19.363,26.962 16.582,29.775 13.18,29.808" fill="#010101"/>
</svg>
