<?xml version="1.0" ?>
<svg xmlns="http://www.w3.org/2000/svg" xmlns:ev="http://www.w3.org/2001/xml-events" xmlns:xlink="http://www.w3.org/1999/xlink" baseProfile="full" enable-background="new 0 0 566.93 566.93" height="600px" version="1.1" viewBox="0 0 566.93 566.93" width="517px" x="0px" xml:space="preserve" y="0px">
	<defs/>
	<path d="M 404.787,229.549 C 397.56199999999995,229.549 390.734,227.957 384.536,225.191 L 384.536,445.106 C 384.536,450.166 380.432,454.269 375.373,454.269 C 370.32,454.269 366.21,450.165 366.21,445.106 L 366.21,224.271 C 366.21,223.089 366.457,221.957 366.875,220.903 C 358.887,226.32299999999998 349.299,229.54899999999998 338.926,229.54899999999998 C 332.02,229.54899999999998 325.46,228.09099999999998 319.48199999999997,225.54399999999998 L 319.48199999999997,445.106 C 319.48199999999997,450.166 315.378,454.269 310.311,454.269 C 305.25199999999995,454.269 301.156,450.165 301.156,445.106 L 301.156,224.271 C 301.156,222.771 301.552,221.36999999999998 302.196,220.10999999999999 C 293.995,226.02499999999998 283.96200000000005,229.54899999999998 273.06500000000005,229.54899999999998 C 266.47,229.54899999999998 260.2010000000001,228.21899999999997 254.44900000000007,225.90499999999997 L 254.44900000000007,445.106 C 254.44900000000007,450.166 250.33100000000007,454.269 245.27900000000008,454.269 C 240.22000000000008,454.269 236.11600000000007,450.165 236.11600000000007,445.106 L 236.11600000000007,224.271 C 236.11600000000007,223.634 236.18700000000007,223.011 236.31400000000008,222.41 C 228.80700000000007,226.91 220.0610000000001,229.54999999999998 210.67100000000008,229.54999999999998 C 202.94400000000007,229.54999999999998 195.65600000000006,227.74599999999998 189.11800000000008,224.611 L 167.41000000000008,224.611 C 131.69200000000006,224.661 102.68100000000008,253.678 102.63100000000009,289.39 L 102.63100000000009,389.477 C 102.68100000000008,425.18899999999996 131.6920000000001,454.2 167.41000000000008,454.24899999999997 L 191.05700000000007,454.24899999999997 C 196.80900000000008,476.657 217.18100000000007,493.36999999999995 241.32400000000007,493.36999999999995 L 379.3370000000001,493.36999999999995 C 407.9090000000001,493.36999999999995 431.2800000000001,469.99899999999997 431.2800000000001,441.41999999999996 L 431.2800000000001,237.43999999999997 C 431.2800000000001,232.47999999999996 430.5370000000001,227.69599999999997 429.22800000000007,223.14699999999996 C 421.995,227.207 413.674,229.549 404.787,229.549 M 189.379,428.591 L 167.408,428.591 C 145.975,428.556 128.322,410.902 128.286,389.476 L 128.286,289.389 C 128.322,267.956 145.975,250.30900000000003 167.40800000000002,250.274 L 189.37900000000002,250.274 L 189.37900000000002,428.591 L 189.379,428.591"/>
	<path d="M 404.787,215.815 C 393.006,215.815 381.54999999999995,212.259 371.849,205.69 C 352.476,218.826 325.397,218.833 306.002,205.69 C 287.099,218.508 261.03200000000004,218.921 241.86700000000002,206.85 C 232.538,212.73399999999998 221.87400000000002,215.815 210.67000000000002,215.815 C 178.22000000000003,215.815 151.82000000000002,189.415 151.82000000000002,156.965 C 151.82000000000002,125.467 176.692,99.673 207.82800000000003,98.18700000000001 C 215.75300000000004,83.35600000000001 231.37600000000003,73.76100000000001 248.47500000000002,73.76100000000001 C 258.218,73.76100000000001 267.49800000000005,76.76800000000001 275.26700000000005,82.34100000000001 C 283.80100000000004,76.769 293.78800000000007,73.76100000000001 304.06200000000007,73.76100000000001 C 322.66400000000004,73.76100000000001 339.49800000000005,83.31700000000001 349.05600000000004,99.00000000000001 C 357.25000000000006,100.42600000000002 364.98400000000004,103.561 371.862,108.23800000000001 C 381.56300000000005,101.67200000000001 393.01800000000003,98.11600000000001 404.786,98.11600000000001 C 437.235,98.11600000000001 463.635,124.51600000000002 463.635,156.965 C 463.636,189.415 437.236,215.815 404.787,215.815 L 404.787,215.815 M 371.849,185.708 C 373.93,185.708 376.003,186.44 377.673,187.901 C 385.208,194.50300000000001 394.838,198.14000000000001 404.787,198.14000000000001 C 427.493,198.14000000000001 445.96099999999996,179.668 445.96099999999996,156.966 C 445.96099999999996,134.264 427.49299999999994,115.792 404.787,115.792 C 394.846,115.792 385.215,119.429 377.673,126.034 C 374.333,128.949 369.359,128.952 366.019,126.031 C 359.424,120.239 351.351,116.75800000000001 342.669,115.96600000000001 C 339.60499999999996,115.68700000000001 336.909,113.83300000000001 335.551,111.07300000000001 C 329.578,98.959 317.514,91.438 304.06399999999996,91.438 C 295.51599999999996,91.438 287.258,94.57600000000001 280.816,100.276 C 277.30699999999996,103.37899999999999 271.989,103.205 268.68499999999995,99.88 C 263.28999999999996,94.435 256.11499999999995,91.439 248.47699999999995,91.439 C 236.61099999999993,91.439 225.89399999999995,98.943 221.80899999999994,110.112 C 220.47499999999994,113.75999999999999 216.91299999999995,116.148 213.04199999999994,115.89999999999999 C 211.80699999999993,115.829 211.24499999999995,115.794 210.67199999999994,115.794 C 187.96899999999994,115.794 169.49799999999993,134.265 169.49799999999993,156.968 C 169.49799999999993,179.671 187.96999999999994,198.142 210.67199999999994,198.142 C 220.09699999999995,198.142 228.97299999999993,195.025 236.34599999999995,189.12 C 239.57299999999995,186.537 244.16099999999994,186.537 247.38799999999995,189.12 C 254.76799999999994,195.02100000000002 263.64799999999997,198.142 273.066,198.142 C 283.022,198.142 292.65099999999995,194.508 300.181,187.903 C 303.506,184.981 308.502,184.981 311.827,187.903 C 319.355,194.50799999999998 328.978,198.142 338.928,198.142 C 348.876,198.142 358.499,194.508 366.021,187.90699999999998 C 367.688,186.439 369.769,185.708 371.849,185.708 L 371.849,185.708"/>
	<path d="M 266.88,133.644 L 266.88,133.644" x1="266.88" x2="266.88" y1="133.644" y2="133.644"/>
	<path d="M 318.88,137.231 L 320.104,137.231" x1="318.88" x2="320.104" y1="137.231" y2="137.231"/>
</svg>
