<?xml version="1.0" ?>
<svg xmlns="http://www.w3.org/2000/svg" xmlns:ev="http://www.w3.org/2001/xml-events" xmlns:xlink="http://www.w3.org/1999/xlink" baseProfile="full" enable-background="new 0 0 566.93 566.93" height="600px" version="1.1" viewBox="0 0 566.93 566.93" width="532px" x="0px" xml:space="preserve" y="0px">
	<defs/>
	<path d="M 146.696,301.041 L 146.696,453.195 L 433.87699999999995,453.195 L 433.87699999999995,301.041 L 146.696,301.041 M 415.055,334.692 L 294.512,334.692 L 294.512,446.231 L 286.063,446.231 L 286.063,334.692 L 165.513,334.692 L 165.513,326.243 L 415.055,326.243 L 415.055,334.692"/>
	<path d="M 431.105,304.192 L 149.468,304.192 C 147.93599999999998,304.192 146.697,302.95300000000003 146.697,301.421 L 146.697,240.25799999999998 C 146.697,238.72599999999997 147.937,237.487 149.468,237.487 L 431.106,237.487 C 432.638,237.487 433.883,238.726 433.883,240.25799999999998 L 433.883,301.421 C 433.883,302.953 432.638,304.192 431.105,304.192 L 431.105,304.192 M 152.24,298.644 L 428.334,298.644 L 428.334,243.03 L 152.24,243.03 L 152.24,298.644 L 152.24,298.644"/>
	<path d="M 147.801,234.422 C 146.503,234.422 145.351,233.516 145.088,232.194 L 133.101,172.212 C 132.955,171.493 133.107,170.744 133.516,170.13 C 133.92,169.516 134.557,169.095 135.28199999999998,168.94899999999998 L 411.46999999999997,113.79099999999998 C 412.183,113.63899999999998 412.93699999999995,113.80299999999998 413.551,114.19999999999999 C 414.159,114.609 414.586,115.24699999999999 414.733,115.966 L 426.708,175.94799999999998 C 427.007,177.45099999999996 426.036,178.91299999999998 424.533,179.21099999999998 L 148.34500000000003,234.36899999999997 C 148.164,234.404 147.982,234.422 147.801,234.422 L 147.801,234.422 M 139.083,173.849 L 149.982,228.38799999999998 L 420.726,174.31099999999998 L 409.832,119.77299999999998 L 139.083,173.849 L 139.083,173.849"/>
	<path d="M 142.703,206.109 L 155.806,167.68 L 190.855,160.681 L 168.302,227.552 L 147.807,231.65 L 141.813,201.659 L 142.703,206.109" points="142.703,206.109 155.806,167.68 190.855,160.681 168.302,227.552 147.807,231.65 141.813,201.659  "/>
	<path d="M 149.468,270.84 L 169.84,240.258 L 205.585,240.258 L 170.372,301.421 L 149.468,301.421 L 149.468,270.84 L 149.468,270.84" points="149.468,270.84 169.84,240.258 205.585,240.258 170.372,301.421 149.468,301.421 149.468,270.84   "/>
	<path d="M 196.112,301.421 L 231.325,240.258 L 266.427,240.258 L 231.267,301.421 L 196.112,301.421 L 196.112,301.421" points="196.112,301.421 231.325,240.258 266.427,240.258 231.267,301.421 196.112,301.421   "/>
	<path d="M 256.796,301.421 L 291.518,240.258 L 327.263,240.258 L 292.044,301.421 L 256.796,301.421 L 256.796,301.421" points="256.796,301.421 291.518,240.258 327.263,240.258 292.044,301.421 256.796,301.421   "/>
	<path d="M 317.79,301.421 L 353.003,240.258 L 388.099,240.258 L 352.886,301.421 L 317.79,301.421 L 317.79,301.421" points="317.79,301.421 353.003,240.258 388.099,240.258 352.886,301.421 317.79,301.421   "/>
	<path d="M 378.626,301.421 L 413.839,240.258 L 431.105,240.258 L 431.105,271.231 L 413.722,301.421 L 378.626,301.421 L 378.626,301.421" points="378.626,301.421 413.839,240.258 431.105,240.258 431.105,271.231 413.722,301.421 378.626,301.421   "/>
	<path d="M 193.551,222.517 L 216.093,155.641 L 250.516,148.764 L 228.021,215.628 L 193.551,222.517 L 193.551,222.517" points="193.551,222.517 216.093,155.641 250.516,148.764 228.021,215.628 193.551,222.517   "/>
	<path d="M 253.054,210.623 L 275.128,143.852 L 310.177,136.847 L 287.617,203.724 L 253.054,210.623 L 253.054,210.623" points="253.054,210.623 275.128,143.852 310.177,136.847 287.617,203.724 253.054,210.623   "/>
	<path d="M 312.866,198.683 L 335.413,131.807 L 369.837,124.936 L 347.278,191.813 L 312.866,198.683 L 312.866,198.683" points="312.866,198.683 335.413,131.807 369.837,124.936 347.278,191.813 312.866,198.683   "/>
	<path d="M 372.521,186.772 L 395.068,119.89 L 412.014,116.51 L 418.078,146.881 L 406.944,179.896 L 372.521,186.772 L 372.521,186.772" points="372.521,186.772 395.068,119.89 412.014,116.51 418.078,146.881 406.944,179.896 372.521,186.772   "/>
</svg>
