<?xml version="1.0" ?>
<svg xmlns="http://www.w3.org/2000/svg" xmlns:ev="http://www.w3.org/2001/xml-events" xmlns:xlink="http://www.w3.org/1999/xlink" baseProfile="full" enable-background="new 0 0 100 36.583" height="220px" version="1.1" viewBox="0 0 100 36.583" width="600px" x="0px" xml:space="preserve" y="0px">
	<defs/>
	<path d="M 99.743,14.61 L 74.29299999999999,15.283999999999999 L 65.058,0.0 L 33.012,0.582 L 33.012,5.514 L 40.561,5.305000000000001 L 46.726,15.878 L 0.867,16.982 C 0.867,16.982 -0.14500000000000002,16.924 0.018000000000000016,17.889 L 7.125,36.221000000000004 C 7.683,36.338 8.259,36.408 8.852,36.408 C 11.894,36.408 14.546,34.727000000000004 16.099,32.209 C 17.64,34.786 20.345,36.501000000000005 23.427,36.501000000000005 C 26.265,36.501000000000005 28.789,35.036 30.371,32.80200000000001 L 30.294999999999998,32.64000000000001 C 31.865,35.03600000000001 34.471,36.583000000000006 37.42,36.583000000000006 C 40.491,36.583000000000006 43.19,34.88400000000001 44.725,32.313 L 44.702,32.442 C 46.284,34.838 48.89,36.408 51.845,36.408 C 54.961999999999996,36.408 57.696,34.639 59.219,32.011 L 59.196,32.058 C 60.732,34.663 63.454,36.409 66.571,36.409 C 69.595,36.409 72.259,34.728 73.812,32.216 C 75.347,34.787 78.051,36.502 81.134,36.502 C 83.972,36.502 86.496,35.037 88.078,32.803000000000004 L 88.159,32.699000000000005 L 99.65,15.494 C 99.65,15.494 100.372,14.47 99.743,14.61 M 55.275,15.668 L 48.796,5.304 L 63.242999999999995,4.862 L 69.524,15.284 L 55.275,15.668"/>
</svg>
