<?xml version="1.0" ?>
<svg xmlns="http://www.w3.org/2000/svg" xmlns:ev="http://www.w3.org/2001/xml-events" xmlns:xlink="http://www.w3.org/1999/xlink" baseProfile="full" enable-background="new 0 0 100 97.598" height="586px" version="1.1" viewBox="0 0 100 97.598" width="600px" x="0px" xml:space="preserve" y="0px">
	<defs/>
	<path d="M 99.625,20.246 C 99.625,17.360999999999997 97.671,15.012999999999998 95.032,14.229999999999999 L 95.032,0.0 L 91.487,0.0 L 91.487,14.224 C 88.848,15.0 86.88199999999999,17.348 86.88199999999999,20.246000000000002 C 86.88199999999999,23.150000000000002 88.84899999999999,25.485000000000003 91.487,26.255000000000003 L 91.487,37.529 L 91.487,40.608000000000004 L 91.487,43.88100000000001 C 91.487,43.88100000000001 91.43599999999999,45.25200000000001 89.883,45.25200000000001 C 88.22699999999999,45.226000000000006 88.30499999999999,43.88100000000001 88.30499999999999,43.88100000000001 L 88.30499999999999,41.73400000000001 C 88.30499999999999,41.73400000000001 88.22699999999999,39.01700000000001 86.67399999999999,39.01700000000001 C 85.12199999999999,39.01700000000001 85.12199999999999,41.73400000000001 85.12199999999999,41.73400000000001 L 85.12199999999999,43.75200000000001 C 85.12199999999999,43.75200000000001 85.23799999999999,48.82300000000001 89.96099999999998,48.82300000000001 C 94.95299999999999,48.82300000000001 95.03099999999998,43.62200000000001 95.03099999999998,43.62200000000001 L 95.03099999999998,43.596000000000004 L 95.03099999999998,40.608000000000004 L 95.03099999999998,39.715 L 95.03099999999998,26.255000000000003 C 97.671,25.472 99.625,23.144 99.625,20.246 M 93.247,22.962 C 91.747,22.962 90.53,21.746 90.53,20.245 C 90.53,18.757 91.747,17.541 93.247,17.541 C 94.747,17.541 95.964,18.757 95.964,20.245 C 95.964,21.746 94.747,22.962 93.247,22.962"/>
	<path d="M 94.566,76.196 L 99.766,68.875 C 99.766,68.875 63.68600000000001,29.753999999999998 19.107,69.832 L 0.958,59.43 L 8.992,74.785 L 0.0,91.333 L 19.275,82.226 C 65.95,117.024 100.0,81.863 100.0,81.863 L 94.566,76.196 M 86.753,73.764 C 84.45,73.764 82.587,71.875 82.587,69.586 C 82.587,67.27 84.45,65.406 86.753,65.406 C 89.068,65.406 90.944,67.269 90.944,69.58600000000001 C 90.944,71.875 89.068,73.764 86.753,73.764"/>
</svg>
