<?xml version="1.0" ?>
<svg xmlns="http://www.w3.org/2000/svg" xmlns:ev="http://www.w3.org/2001/xml-events" xmlns:xlink="http://www.w3.org/1999/xlink" baseProfile="full" enable-background="new 0 0 100 100" height="600px" version="1.1" viewBox="0 0 100 100" width="600px" x="0px" xml:space="preserve" y="0px">
	<defs/>
	<path d="M 100.0,18.75 L 100.0,18.203 C 100.0,13.879999999999999 99.35,10.416 98.047,7.811999999999999 C 96.744,5.26 94.922,3.3329999999999993 92.578,2.0309999999999997 C 90.234,0.677 87.031,0.0 82.969,0.0 L 80.625,0.0 C 77.084,0.0 74.322,0.625 72.344,1.875 C 70.31299999999999,3.125 68.75,4.452999999999999 67.65599999999999,5.859 C 66.56199999999998,7.265000000000001 65.547,9.218 64.609,11.718 L 64.21799999999999,12.577 C 63.07199999999999,15.65 62.49899999999999,19.66 62.49899999999999,24.608 L 62.49899999999999,43.123999999999995 L 69.29599999999999,45.233 L 90.78,49.921 L 92.968,44.842999999999996 C 94.37400000000001,41.458 95.884,37.446999999999996 97.49900000000001,32.812 C 99.166,28.125 100.0,23.438 100.0,18.75" fill="#010101"/>
	<path d="M 35.781,31.328 L 35.39,30.469 C 34.452,27.969 33.437,26.016000000000002 32.343,24.61 C 31.24900000000001,23.203999999999997 29.687000000000005,21.875999999999998 27.655000000000005,20.625999999999998 C 25.676000000000005,19.375999999999998 22.915000000000006,18.750999999999998 19.374000000000002,18.750999999999998 L 17.03,18.750999999999998 C 12.968,18.750999999999998 9.764000000000001,19.427999999999997 7.421000000000001,20.781999999999996 C 5.077000000000002,22.083999999999996 3.2540000000000013,24.010999999999996 1.9520000000000008,26.562999999999995 C 0.651,29.167 0.0,32.63 0.0,36.953 L 0.0,37.5 C 0.0,42.188 0.833,46.875 2.5,51.562 C 4.115,56.196999999999996 5.625,60.208 7.031,63.592999999999996 L 9.219,68.67099999999999 L 30.703000000000003,63.98299999999999 L 37.5,61.87399999999999 L 37.5,43.359 C 37.5,38.412 36.927,34.401 35.781,31.328" fill="#010101"/>
	<path d="M 79.141,76.562 C 80.287,75.521 81.354,73.931 82.34400000000001,71.79599999999999 L 82.656,71.249 C 83.85300000000001,68.696 84.947,65.884 85.93700000000001,62.81099999999999 L 87.421,58.12299999999999 L 71.405,53.82599999999999 L 60.624,52.263999999999996 L 58.436,57.18599999999999 C 56.977,60.46699999999999 56.248,63.74799999999999 56.248,67.02999999999999 L 56.248,68.43599999999999 C 56.248,70.72699999999999 56.613,72.55099999999999 57.342,73.90499999999999 C 58.019999999999996,75.25899999999999 58.67,76.35199999999999 59.295,77.18599999999999 C 59.92,78.02 60.857,78.90499999999999 62.107,79.842 L 62.185,79.842 C 63.435,80.78 65.257,81.248 67.654,81.248 L 67.966,81.248 C 70.57,81.248 72.80999999999999,80.727 74.68499999999999,79.686 C 76.51,78.697 77.994,77.656 79.141,76.562" fill="#010101"/>
	<path d="M 40.703,95.938 C 41.328,95.104 41.979000000000006,94.01 42.656000000000006,92.657 C 43.385000000000005,91.303 43.75000000000001,89.479 43.75000000000001,87.188 L 43.75000000000001,85.782 C 43.75000000000001,82.50099999999999 43.02100000000001,79.22 41.562000000000005,75.938 L 39.374,71.016 L 28.593000000000004,72.578 L 12.577000000000005,76.875 L 14.061000000000005,81.563 C 15.051000000000005,84.635 16.144000000000005,87.44800000000001 17.342000000000006,90.001 L 17.654000000000007,90.548 C 18.644000000000005,92.683 19.711000000000006,94.273 20.857000000000006,95.31400000000001 C 22.003000000000007,96.408 23.487000000000005,97.44900000000001 25.310000000000006,98.43900000000001 C 27.185000000000006,99.48 29.425000000000004,100.001 32.029,100.001 L 32.341,100.001 C 34.737,100.001 36.56,99.53200000000001 37.81,98.595 L 37.888000000000005,98.595 C 39.141,97.656 40.078,96.771 40.703,95.938" fill="#010101"/>
</svg>
