<?xml version="1.0" ?>
<svg xmlns="http://www.w3.org/2000/svg" xmlns:ev="http://www.w3.org/2001/xml-events" xmlns:xlink="http://www.w3.org/1999/xlink" baseProfile="full" enable-background="new 0 0 100 100" height="600px" version="1.1" viewBox="0 0 100 100" width="600px" x="0px" xml:space="preserve" y="0px">
	<defs/>
	<path d="M 97.344,35.0 C 95.625,29.688 93.178,24.896 90.0,20.625 C 86.875,16.406 83.203,12.76 78.984,9.687 C 74.76499999999999,6.613999999999999 70.053,4.219 64.844,2.5 C 59.635,0.833 54.688,0.0 50.0,0.0 C 45.312,0.0 40.938,0.677 36.875,2.031 L 35.078,2.5780000000000003 C 32.161,3.516 29.791000000000004,4.4270000000000005 27.969,5.312 C 26.094,6.198 24.271,7.24 22.5,8.438 C 20.781,9.636000000000001 19.297,10.73 18.047,11.719000000000001 C 16.797,12.761000000000001 15.521,13.959000000000001 14.219000000000001,15.313 C 12.917000000000002,16.719 11.432000000000002,18.568 9.766000000000002,20.86 L 9.375000000000002,21.407 C 7.5,24.01 5.99,26.458 4.844,28.75 C 3.75,31.094 2.6820000000000004,34.115 1.6410000000000005,37.812 L 1.5630000000000004,37.967999999999996 C 0.521,41.823 0.0,45.833 0.0,50.0 C 0.0,54.166 0.833,58.959 2.5,64.375 C 4.115,69.74 6.016,73.932 8.203,76.953 L 9.453,78.672 C 10.806999999999999,80.547 11.979,82.084 12.969,83.28099999999999 C 13.959,84.42699999999999 15.0,85.52099999999999 16.094,86.562 C 17.240000000000002,87.55199999999999 18.724,88.697 20.547,90.0 L 21.406,90.625 C 23.75,92.291 25.884999999999998,93.594 27.811999999999998,94.531 C 29.738999999999997,95.521 32.239,96.51 35.312,97.5 L 36.873999999999995,97.969 C 40.938,99.322 45.312,100.0 50.0,100.0 C 54.688,100.0 59.635,99.166 64.844,97.5 C 70.053,95.781 74.63499999999999,93.49 78.594,90.625 L 79.61,89.844 C 82.891,87.5 85.391,85.31299999999999 87.11,83.282 C 88.829,81.198 90.26,79.323 91.407,77.657 C 92.50099999999999,75.991 93.542,74.194 94.532,72.26599999999999 C 95.47,70.338 96.432,67.838 97.423,64.76599999999999 L 97.97,63.20399999999999 C 99.322,59.088 100.0,54.688 100.0,50.0 C 100.0,45.312 99.115,40.312 97.344,35.0 M 26.719,48.438 L 62.5,30.469 L 62.5,69.531 L 26.719,51.562 L 26.719,48.438"/>
</svg>
