<?xml version="1.0" ?>
<svg xmlns="http://www.w3.org/2000/svg" xmlns:ev="http://www.w3.org/2001/xml-events" xmlns:xlink="http://www.w3.org/1999/xlink" baseProfile="full" enable-background="new 0 0 100 100" height="600px" version="1.1" viewBox="0 0 100 100" width="600px" x="0px" xml:space="preserve" y="0px">
	<defs/>
	<path d="M 87.031,16.719 C 86.04100000000001,15.573 85.0,14.506 83.906,13.516000000000002 C 82.76,12.526000000000002 81.275,11.381000000000002 79.453,10.078000000000001 L 77.422,8.594000000000001 C 74.244,6.25 70.053,4.219 64.844,2.5 C 59.635,0.833 54.688,0.0 50.0,0.0 C 45.312,0.0 40.365,0.833 35.156,2.5 C 29.948,4.219 25.233999999999998,6.615 21.015,9.687999999999999 C 16.796000000000003,12.760999999999997 13.125,16.406 10.0,20.625 C 6.823,24.896 4.375,29.688 2.656,35.0 C 0.885,40.312 0.0,45.312 0.0,50.0 C 0.0,54.688 0.885,59.688 2.656,65.0 C 4.375,70.312 6.458,74.635 8.906,77.969 L 9.609,78.82799999999999 C 11.588000000000001,81.53699999999999 13.385,83.69699999999999 15.0,85.31199999999998 C 16.562,86.87399999999998 18.594,88.56799999999998 21.094,90.38999999999999 C 23.646,92.21199999999999 25.886000000000003,93.59299999999999 27.813000000000002,94.53099999999999 C 29.740000000000002,95.52099999999999 32.24,96.50999999999999 35.313,97.49999999999999 L 36.875,97.96899999999998 C 40.938,99.322 45.312,100.0 50.0,100.0 C 54.688,100.0 59.062,99.322 63.125,97.969 L 64.922,97.422 C 67.838,96.484 70.209,95.572 72.03099999999999,94.688 C 73.90599999999999,93.803 75.728,92.76 77.49999999999999,91.563 C 79.21899999999998,90.366 80.70299999999999,89.272 81.95299999999999,88.282 C 83.20299999999999,87.241 84.478,86.042 85.78099999999999,84.688 C 87.08399999999999,83.282 88.568,81.432 90.234,79.141 L 90.625,78.59400000000001 C 92.5,75.99000000000001 94.01,73.54100000000001 95.156,71.25000000000001 C 96.25,68.90600000000002 97.31800000000001,65.88500000000002 98.35900000000001,62.18800000000002 L 98.43700000000001,62.03200000000002 C 99.479,58.178 100.0,54.166 100.0,50.0 C 100.0,45.833 99.166,41.042 97.5,35.625 C 95.885,30.259999999999998 93.984,26.067999999999998 91.797,23.047 L 90.547,21.328 C 89.193,19.453 88.021,17.917 87.031,16.719 M 48.438,26.719 L 51.563,26.719 L 69.531,62.5 L 30.469,62.5 L 48.438,26.719"/>
</svg>
