<?xml version="1.0" ?>
<svg xmlns="http://www.w3.org/2000/svg" xmlns:ev="http://www.w3.org/2001/xml-events" xmlns:xlink="http://www.w3.org/1999/xlink" baseProfile="full" enable-background="new 0 0 100 100" height="484px" version="1.1" viewBox="0 0 100 100" width="600px" x="0px" xml:space="preserve" y="0px">
	<defs/>
	<path d="M 50.312,88.75 C 52.187,90.0 54.349,90.625 56.796,90.625 C 59.243,90.625 61.796,89.35 64.452,86.797 L 70.93599999999999,80.469 C 77.86399999999999,73.75 84.582,66.979 91.09199999999998,60.157 L 100.781,50.0 L 91.093,39.844 C 84.583,33.021 77.864,26.25 70.93700000000001,19.532 L 63.98400000000001,12.812999999999999 C 61.64000000000001,10.520999999999999 59.37500000000001,9.374999999999998 57.18700000000001,9.374999999999998 L 56.40600000000001,9.374999999999998 C 54.740000000000016,9.374999999999998 53.38500000000001,9.582999999999998 52.344000000000015,9.999999999999998 C 51.30300000000002,10.416999999999998 50.26100000000002,11.041999999999998 49.219000000000015,11.874999999999998 C 48.125000000000014,12.759999999999998 47.13600000000002,13.749999999999998 46.250000000000014,14.843999999999998 C 45.417000000000016,15.885999999999997 44.792000000000016,16.927 44.375000000000014,17.968999999999998 C 43.95800000000001,19.010999999999996 43.750000000000014,20.313 43.750000000000014,21.874999999999996 C 43.750000000000014,23.436999999999994 43.95800000000001,24.739999999999995 44.375000000000014,25.780999999999995 C 44.844000000000015,26.874999999999996 45.573000000000015,28.020999999999994 46.56300000000002,29.218999999999994 C 47.55300000000002,30.468999999999994 48.90700000000002,31.900999999999993 50.625000000000014,33.51599999999999 L 54.76600000000001,37.49999999999999 L 13.203,37.49999999999999 C 10.651,37.49999999999999 8.645999999999999,37.916999999999994 7.186999999999999,38.74999999999999 C 5.728999999999999,39.63499999999999 4.582999999999999,40.468999999999994 3.748999999999999,41.24999999999999 C 2.967999999999999,42.08299999999999 2.1339999999999995,43.22899999999999 1.2489999999999992,44.687999999999995 C 0.417,46.146 0.0,47.917 0.0,50.0 C 0.0,52.084 0.417,53.854 1.25,55.312 C 2.135,56.771 2.9690000000000003,57.916 3.75,58.75 C 4.583,59.531 5.729,60.365 7.188000000000001,61.25 C 8.646,62.084 10.651,62.5 13.204,62.5 L 54.142,62.5 L 47.423,69.922 C 44.975,72.631 43.751000000000005,75.209 43.751000000000005,77.65599999999999 C 43.751000000000005,80.05199999999999 44.376000000000005,82.187 45.626000000000005,84.062 C 46.927,85.885 48.49,87.447 50.312,88.75"/>
</svg>
