<?xml version="1.0" ?>
<svg xmlns="http://www.w3.org/2000/svg" xmlns:ev="http://www.w3.org/2001/xml-events" xmlns:xlink="http://www.w3.org/1999/xlink" baseProfile="full" enable-background="new 0 0 100 52.083" height="313px" version="1.1" viewBox="0 0 100 52.083" width="600px" x="0px" xml:space="preserve" y="0px">
	<defs/>
	<path d="M 80.192,48.964 C 81.726,48.64 82.963,47.507999999999996 83.42999999999999,46.03 L 93.07199999999999,46.03 L 93.07199999999999,32.292 L 89.27199999999999,18.469 L 50.0,18.469 L 41.313,18.469 L 41.313,16.794 L 52.564,9.229 L 38.839,0.0 L 25.113,9.229 L 36.364,16.794 L 36.364,18.469 L 10.728,18.469 L 6.928,32.292 L 6.928,46.03 L 16.569,46.03 C 17.037,47.508 18.274,48.639 19.808,48.964 L 0.0,48.964 L 0.0,52.082 L 100.0,52.082 L 100.0,48.964 L 80.192,48.964 M 82.356,20.866 L 87.445,20.866 L 90.58699999999999,32.292 L 82.35699999999999,32.292 L 82.35699999999999,20.866 L 82.356,20.866 M 69.922,20.866 L 79.959,20.866 L 79.959,32.292 L 69.922,32.292 L 69.922,20.866 M 78.408,48.964 L 70.58500000000001,48.964 C 71.676,48.737 72.61800000000001,48.108 73.24300000000001,47.229 L 75.75000000000001,47.229 C 76.374,48.108 77.316,48.738 78.408,48.964 M 57.488,20.866 L 67.525,20.866 L 67.525,32.292 L 57.488,32.292 L 57.488,20.866 M 68.82,48.964 L 31.18,48.964 C 32.271,48.737 33.214,48.108 33.838,47.229 L 50.0,47.229 L 66.162,47.229 C 66.786,48.108 67.729,48.738 68.82,48.964 M 44.909,20.866 L 55.092,20.866 L 55.092,32.292 L 44.909,32.292 L 44.909,20.866 M 29.409,9.229 L 38.839,2.8889999999999993 L 48.269,9.229 L 38.839,15.568999999999999 L 29.409,9.229 M 32.475,20.866 L 42.512,20.866 L 42.512,32.292 L 32.475,32.292 L 32.475,20.866 M 20.041,20.866 L 30.078000000000003,20.866 L 30.078000000000003,32.292 L 20.041,32.292 L 20.041,20.866 M 17.644,32.292 L 9.413999999999998,32.292 L 12.554999999999998,20.866 L 17.644,20.866 L 17.644,32.292 M 24.25,47.229 L 26.757,47.229 C 27.381,48.108 28.324,48.738 29.415000000000003,48.964 L 21.592000000000002,48.964 C 22.684,48.738 23.626,48.108 24.25,47.229"/>
</svg>
