<?xml version="1.0" ?>
<svg xmlns="http://www.w3.org/2000/svg" xmlns:ev="http://www.w3.org/2001/xml-events" xmlns:xlink="http://www.w3.org/1999/xlink" baseProfile="full" enable-background="new 0 0 100 100" height="139px" version="1.1" viewBox="0 0 100 100" width="600px" x="0px" xml:space="preserve" y="0px">
	<defs/>
	<path d="M 5.297,63.906 L 0.0,63.906 L 0.0,55.138 L 0.0,51.32 L 0.586,51.32 L 0.586,49.257 L 1.376,49.257 L 1.376,48.861999999999995 L 3.647,48.861999999999995 L 1.651,48.861999999999995 L 3.9210000000000003,48.861999999999995 L 3.9210000000000003,49.257 L 4.713,49.257 L 4.713,51.32 L 5.297,51.32 L 5.297,55.138 L 5.297,63.906 L 0.0,63.906 M 3.233,52.148 L 1.961,52.148 L 1.961,54.877 L 3.233,54.877 L 3.233,52.148" fill="#000000"/>
	<path d="M 100.0,63.853 L 94.703,63.853 L 94.703,55.086 L 94.703,51.269 L 95.287,51.269 L 95.287,49.205 L 96.078,49.205 L 96.078,48.809999999999995 L 98.349,48.809999999999995 L 96.354,48.809999999999995 L 98.624,48.809999999999995 L 98.624,49.205 L 99.416,49.205 L 99.416,51.269 L 100.0,51.269 L 100.0,55.086 L 100.0,63.853 L 94.703,63.853 M 98.063,52.148 L 96.792,52.148 L 96.792,54.877 L 98.063,54.877 L 98.063,52.148" fill="#000000"/>
	<path d="M 7.018,52.629 C 7.018,52.629 28.560000000000002,41.162 50.006,41.208999999999996 C 71.45400000000001,41.254 93.07,52.629 93.07,52.629 L 93.07,62.878 C 93.07,62.878 74.054,44.602000000000004 50.00599999999999,44.578 C 25.958999999999993,44.557 7.017999999999994,62.878 7.017999999999994,62.878 L 7.017999999999994,52.629 L 7.018,52.629 M 7.66,52.903 L 7.66,61.204 C 7.66,61.204 27.075,43.914 50.044,43.914 C 73.014,43.914 92.276,60.929 92.276,60.929 L 92.276,53.041000000000004 C 92.276,53.041000000000004 70.353,41.71300000000001 49.967999999999996,41.71300000000001 C 29.583,41.71300000000001 7.66,52.903 7.66,52.903" fill="#000000"/>
	<path d="M 8.577,52.043 L 8.984,52.043 L 8.984,61.137 L 8.577,61.137 L 8.577,52.043" fill="#000000" height="9.094" width="0.407" x="8.577" y="52.043"/>
	<path d="M 11.419,50.892 L 11.809000000000001,50.892 L 11.809000000000001,58.521 L 11.419,58.521 L 11.419,50.892" fill="#000000" height="7.629" width="0.39" x="11.419" y="50.892"/>
	<path d="M 14.333,49.646 L 14.768,49.646 L 14.768,56.387 L 14.333,56.387 L 14.333,49.646" fill="#000000" height="6.741" width="0.435" x="14.333" y="49.646"/>
	<path d="M 17.394,48.086 L 17.828999999999997,48.086 L 17.828999999999997,55.516 L 17.394,55.516 L 17.394,48.086" fill="#000000" height="7.43" width="0.435" x="17.394" y="48.086"/>
	<path d="M 20.214,47.229 L 20.648999999999997,47.229 L 20.648999999999997,55.516999999999996 L 20.214,55.516999999999996 L 20.214,47.229" fill="#000000" height="8.288" width="0.435" x="20.214" y="47.229"/>
	<path d="M 23.068,46.414 L 23.505000000000003,46.414 L 23.505000000000003,55.517 L 23.068,55.517 L 23.068,46.414" fill="#000000" height="9.103" width="0.437" x="23.068" y="46.414"/>
	<path d="M 25.958,45.472 L 26.395,45.472 L 26.395,55.516000000000005 L 25.958,55.516000000000005 L 25.958,45.472" fill="#000000" height="10.044" width="0.437" x="25.958" y="45.472"/>
	<path d="M 28.881,44.624 L 29.318,44.624 L 29.318,55.517 L 28.881,55.517 L 28.881,44.624" fill="#000000" height="10.893" width="0.437" x="28.881" y="44.624"/>
	<path d="M 31.84,43.988 L 32.277,43.988 L 32.277,55.516 L 31.84,55.516 L 31.84,43.988" fill="#000000" height="11.528" width="0.437" x="31.84" y="43.988"/>
	<path d="M 34.763,43.203 L 35.199999999999996,43.203 L 35.199999999999996,55.517 L 34.763,55.517 L 34.763,43.203" fill="#000000" height="12.314" width="0.437" x="34.763" y="43.203"/>
	<path d="M 37.825,42.699 L 38.261,42.699 L 38.261,55.516999999999996 L 37.825,55.516999999999996 L 37.825,42.699" fill="#000000" height="12.818" width="0.436" x="37.825" y="42.699"/>
	<path d="M 40.749,42.148 L 41.184000000000005,42.148 L 41.184000000000005,55.517 L 40.749,55.517 L 40.749,42.148" fill="#000000" height="13.369" width="0.435" x="40.749" y="42.148"/>
	<path d="M 43.707,41.713 L 44.143,41.713 L 44.143,55.517 L 43.707,55.517 L 43.707,41.713" fill="#000000" height="13.804" width="0.436" x="43.707" y="41.713"/>
	<path d="M 46.802,41.553 L 47.238,41.553 L 47.238,55.358 L 46.802,55.358 L 46.802,41.553" fill="#000000" height="13.805" width="0.436" x="46.802" y="41.553"/>
	<path d="M 49.825,41.553 L 50.263000000000005,41.553 L 50.263000000000005,55.516999999999996 L 49.825,55.516999999999996 L 49.825,41.553" fill="#000000" height="13.964" width="0.438" x="49.825" y="41.553"/>
	<path d="M 90.882,51.973 L 91.28800000000001,51.973 L 91.28800000000001,61.067 L 90.882,61.067 L 90.882,51.973" fill="#000000" height="9.094" width="0.406" x="90.882" y="51.973"/>
	<path d="M 88.055,50.822 L 88.44600000000001,50.822 L 88.44600000000001,58.451 L 88.055,58.451 L 88.055,50.822" fill="#000000" height="7.629" width="0.391" x="88.055" y="50.822"/>
	<path d="M 85.097,49.577 L 85.53399999999999,49.577 L 85.53399999999999,56.318 L 85.097,56.318 L 85.097,49.577" fill="#000000" height="6.741" width="0.437" x="85.097" y="49.577"/>
	<path d="M 82.036,48.017 L 82.47200000000001,48.017 L 82.47200000000001,55.447 L 82.036,55.447 L 82.036,48.017" fill="#000000" height="7.43" width="0.436" x="82.036" y="48.017"/>
	<path d="M 79.215,47.158 L 79.65100000000001,47.158 L 79.65100000000001,55.446 L 79.215,55.446 L 79.215,47.158" fill="#000000" height="8.288" width="0.436" x="79.215" y="47.158"/>
	<path d="M 76.36,46.343 L 76.796,46.343 L 76.796,55.446000000000005 L 76.36,55.446000000000005 L 76.36,46.343" fill="#000000" height="9.103" width="0.436" x="76.36" y="46.343"/>
	<path d="M 73.471,45.402 L 73.908,45.402 L 73.908,55.446 L 73.471,55.446 L 73.471,45.402" fill="#000000" height="10.044" width="0.437" x="73.471" y="45.402"/>
	<path d="M 70.547,44.554 L 70.983,44.554 L 70.983,55.446 L 70.547,55.446 L 70.547,44.554" fill="#000000" height="10.892" width="0.436" x="70.547" y="44.554"/>
	<path d="M 67.589,43.917 L 68.026,43.917 L 68.026,55.446 L 67.589,55.446 L 67.589,43.917" fill="#000000" height="11.529" width="0.437" x="67.589" y="43.917"/>
	<path d="M 64.665,43.132 L 65.10100000000001,43.132 L 65.10100000000001,55.446 L 64.665,55.446 L 64.665,43.132" fill="#000000" height="12.314" width="0.436" x="64.665" y="43.132"/>
	<path d="M 61.604,42.627 L 62.041,42.627 L 62.041,55.446000000000005 L 61.604,55.446000000000005 L 61.604,42.627" fill="#000000" height="12.819" width="0.437" x="61.604" y="42.627"/>
	<path d="M 58.681,42.078 L 59.117,42.078 L 59.117,55.446000000000005 L 58.681,55.446000000000005 L 58.681,42.078" fill="#000000" height="13.368" width="0.436" x="58.681" y="42.078"/>
	<path d="M 55.723,41.643 L 56.16,41.643 L 56.16,55.447 L 55.723,55.447 L 55.723,41.643" fill="#000000" height="13.804" width="0.437" x="55.723" y="41.643"/>
	<path d="M 52.627,41.482 L 53.062000000000005,41.482 L 53.062000000000005,55.286 L 52.627,55.286 L 52.627,41.482" fill="#000000" height="13.804" width="0.435" x="52.627" y="41.482"/>
	<path d="M 10.157,51.801 L 10.593,51.801 L 10.593,58.921 L 10.157,58.921 L 10.157,51.801" fill="#000000" height="7.12" transform="matrix(0.9199 -0.3922 0.3922 0.9199 -20.8793 8.5033)" width="0.436" x="10.157" y="51.801"/>
	<path d="M 13.008,50.316 L 13.443999999999999,50.316 L 13.443999999999999,56.892 L 13.008,56.892 L 13.008,50.316" fill="#000000" height="6.576" transform="matrix(0.9089 -0.4169 0.4169 0.9089 -21.1446 10.3954)" width="0.436" x="13.008" y="50.316"/>
	<path d="M 15.943,48.963 L 16.378,48.963 L 16.378,55.03 L 15.943,55.03 L 15.943,48.963" fill="#000000" height="6.067" transform="matrix(0.8681 -0.4964 0.4964 0.8681 -23.6787 14.8801)" width="0.435" x="15.943" y="48.963"/>
	<path d="M 18.821,47.836 L 19.257,47.836 L 19.257,53.284 L 18.821,53.284 L 18.821,47.836" fill="#000000" height="5.448" transform="matrix(0.8664 -0.4993 0.4993 0.8664 -22.7005 16.2581)" width="0.436" x="18.821" y="47.836"/>
	<path d="M 21.71,46.777 L 22.145,46.777 L 22.145,51.963 L 21.71,51.963 L 21.71,46.777" fill="#000000" height="5.186" transform="matrix(0.8324 -0.5542 0.5542 0.8324 -23.6848 20.4263)" width="0.435" x="21.71" y="46.777"/>
	<path d="M 24.507,45.687 L 24.943,45.687 L 24.943,50.527 L 24.507,50.527 L 24.507,45.687" fill="#000000" height="4.84" transform="matrix(0.7716 -0.6361 0.6361 0.7716 -24.9537 26.7147)" width="0.436" x="24.507" y="45.687"/>
	<path d="M 27.334,44.715 L 27.77,44.715 L 27.77,49.229000000000006 L 27.334,49.229000000000006 L 27.334,44.715" fill="#000000" height="4.514" transform="matrix(0.7188 -0.6953 0.6953 0.7188 -24.9087 32.3661)" width="0.436" x="27.334" y="44.715"/>
	<path d="M 30.314,43.996 L 30.749,43.996 L 30.749,47.971000000000004 L 30.314,47.971000000000004 L 30.314,43.996" fill="#000000" height="3.975" transform="matrix(0.7308 -0.6826 0.6826 0.7308 -23.1686 33.2168)" width="0.435" x="30.314" y="43.996"/>
	<path d="M 33.241,43.16 L 33.677,43.16 L 33.677,47.236999999999995 L 33.241,47.236999999999995 L 33.241,43.16" fill="#000000" height="4.077" transform="matrix(0.6964 -0.7177 0.7177 0.6964 -22.2792 37.7349)" width="0.436" x="33.241" y="43.16"/>
	<path d="M 36.447,42.569 L 36.883,42.569 L 36.883,46.398 L 36.447,46.398 L 36.447,42.569" fill="#000000" height="3.829" transform="matrix(0.6555 -0.7552 0.7552 0.6555 -20.9626 43.0149)" width="0.436" x="36.447" y="42.569"/>
	<path d="M 39.265,42.016 L 39.701,42.016 L 39.701,45.503 L 39.265,45.503 L 39.265,42.016" fill="#000000" height="3.487" transform="matrix(0.6645 -0.7473 0.7473 0.6645 -19.4543 44.1861)" width="0.436" x="39.265" y="42.016"/>
	<path d="M 42.158,41.578 L 42.594,41.578 L 42.594,45.065000000000005 L 42.158,45.065000000000005 L 42.158,41.578" fill="#000000" height="3.487" transform="matrix(0.6149 -0.7886 0.7886 0.6149 -17.8452 50.097)" width="0.436" x="42.158" y="41.578"/>
	<path d="M 45.178,41.318 L 45.614,41.318 L 45.614,44.806999999999995 L 45.178,44.806999999999995 L 45.178,41.318" fill="#000000" height="3.489" transform="matrix(0.6174 -0.7866 0.7866 0.6174 -16.5066 52.1841)" width="0.436" x="45.178" y="41.318"/>
	<path d="M 48.247,40.902 L 48.684,40.902 L 48.684,44.706 L 48.247,44.706 L 48.247,40.902" fill="#000000" height="3.804" transform="matrix(0.6675 -0.7446 0.7446 0.6675 -15.7573 50.3222)" width="0.437" x="48.247" y="40.902"/>
	<path d="M 89.489,51.8 L 89.92500000000001,51.8 L 89.92500000000001,58.921 L 89.489,58.921 L 89.489,51.8" fill="#000000" height="7.121" transform="matrix(-0.9201 -0.3918 0.3918 -0.9201 150.5557 141.44)" width="0.436" x="89.489" y="51.8"/>
	<path d="M 86.637,50.317 L 87.074,50.317 L 87.074,56.892 L 86.637,56.892 L 86.637,50.317" fill="#000000" height="6.575" transform="matrix(-0.9095 -0.4157 0.4157 -0.9095 143.5726 138.4606)" width="0.437" x="86.637" y="50.317"/>
	<path d="M 83.705,48.963 L 84.14,48.963 L 84.14,55.03 L 83.705,55.03 L 83.705,48.963" fill="#000000" height="6.067" transform="matrix(-0.8684 -0.4959 0.4959 -0.8684 131.0139 138.7668)" width="0.435" x="83.705" y="48.963"/>
	<path d="M 80.824,47.837 L 81.261,47.837 L 81.261,53.284000000000006 L 80.824,53.284000000000006 L 80.824,47.837" fill="#000000" height="5.447" transform="matrix(-0.867 -0.4983 0.4983 -0.867 126.1131 134.7802)" width="0.437" x="80.824" y="47.837"/>
	<path d="M 77.938,46.777 L 78.373,46.777 L 78.373,51.963 L 77.938,51.963 L 77.938,46.777" fill="#000000" height="5.186" transform="matrix(-0.8324 -0.5542 0.5542 -0.8324 115.8514 133.7774)" width="0.435" x="77.938" y="46.777"/>
	<path d="M 75.139,45.687 L 75.575,45.687 L 75.575,50.525999999999996 L 75.139,50.525999999999996 L 75.139,45.687" fill="#000000" height="4.839" transform="matrix(-0.7721 -0.6356 0.6356 -0.7721 102.9636 133.1413)" width="0.436" x="75.139" y="45.687"/>
	<path d="M 72.312,44.715 L 72.748,44.715 L 72.748,49.229000000000006 L 72.312,49.229000000000006 L 72.312,44.715" fill="#000000" height="4.514" transform="matrix(-0.7188 -0.6953 0.6953 -0.7188 92.0051 131.1606)" width="0.436" x="72.312" y="44.715"/>
	<path d="M 69.334,43.996 L 69.769,43.996 L 69.769,47.971000000000004 L 69.334,47.971000000000004 L 69.334,43.996" fill="#000000" height="3.975" transform="matrix(-0.7314 -0.682 0.682 -0.7314 89.0569 127.0482)" width="0.435" x="69.334" y="43.996"/>
	<path d="M 66.407,43.16 L 66.842,43.16 L 66.842,47.238 L 66.407,47.238 L 66.407,43.16" fill="#000000" height="4.078" transform="matrix(-0.6952 -0.7188 0.7188 -0.6952 80.4559 124.5114)" width="0.435" x="66.407" y="43.16"/>
	<path d="M 63.199,42.569 L 63.635999999999996,42.569 L 63.635999999999996,46.398 L 63.199,46.398 L 63.199,42.569" fill="#000000" height="3.829" transform="matrix(-0.6574 -0.7535 0.7535 -0.6574 71.5876 121.5146)" width="0.437" x="63.199" y="42.569"/>
	<path d="M 60.382,42.015 L 60.818,42.015 L 60.818,45.503 L 60.382,45.503 L 60.382,42.015" fill="#000000" height="3.488" transform="matrix(-0.6633 -0.7484 0.7484 -0.6633 68.0438 118.1356)" width="0.436" x="60.382" y="42.015"/>
	<path d="M 57.488,41.578 L 57.924,41.578 L 57.924,45.064 L 57.488,45.064 L 57.488,41.578" fill="#000000" height="3.486" transform="matrix(-0.6156 -0.788 0.788 -0.6156 59.0948 115.4663)" width="0.436" x="57.488" y="41.578"/>
	<path d="M 54.469,41.318 L 54.904,41.318 L 54.904,44.806 L 54.469,44.806 L 54.469,41.318" fill="#000000" height="3.488" transform="matrix(-0.6167 -0.7872 0.7872 -0.6167 54.5169 112.6679)" width="0.435" x="54.469" y="41.318"/>
	<path d="M 51.399,40.902 L 51.835,40.902 L 51.835,44.706 L 51.399,44.706 L 51.399,40.902" fill="#000000" height="3.804" transform="matrix(-0.6669 -0.7452 0.7452 -0.6669 54.1425 109.8132)" width="0.436" x="51.399" y="40.902"/>
	<path d="M 4.817,53.571 L 50.288,53.571 L 50.288,55.144999999999996 L 4.817,55.144999999999996 L 4.817,53.571" fill="#000000" height="1.574" width="45.471" x="4.817" y="53.571"/>
	<path d="M 49.781,53.571 L 95.253,53.571 L 95.253,55.144999999999996 L 49.781,55.144999999999996 L 49.781,53.571" fill="#000000" height="1.574" width="45.472" x="49.781" y="53.571"/>
</svg>
