<?xml version="1.0" ?>
<svg xmlns="http://www.w3.org/2000/svg" xmlns:ev="http://www.w3.org/2001/xml-events" xmlns:xlink="http://www.w3.org/1999/xlink" baseProfile="full" enable-background="new 0 0 36.178 100" height="600px" version="1.1" viewBox="0 0 36.178 100" width="218px" x="0px" xml:space="preserve" y="0px">
	<defs/>
	<path d="M 33.395,19.694 L 2.783,19.694 C 2.783,19.694 0.2749999999999999,20.673 0.0,22.477 L 0.0,64.923 L 4.893,64.923 L 4.893,46.636 L 8.747,46.636 L 8.654,100.0 L 15.259,100.0 L 16.085,75.474 L 20.091,75.474 L 20.918,100.0 L 27.523,100.0 L 27.431,46.636 L 31.285,46.636 L 31.285,64.924 L 36.178,64.924 L 36.178,22.478 C 35.902,20.673 33.395,19.694 33.395,19.694"/>
	<path d="M 18.089,16.178 C 13.623999999999999,16.178 9.985,12.569 9.985,8.089 C 9.984,3.593 13.624,0.0 18.089,0.0 C 22.567999999999998,0.0 26.192999999999998,3.593 26.192999999999998,8.089 C 26.193,12.568 22.568,16.178 18.089,16.178"/>
</svg>
