<?xml version="1.0" ?>
<svg xmlns="http://www.w3.org/2000/svg" xmlns:ev="http://www.w3.org/2001/xml-events" xmlns:xlink="http://www.w3.org/1999/xlink" baseProfile="full" enable-background="new 0 0 100 100" height="535px" version="1.1" viewBox="0 0 100 100" width="600px" x="0px" xml:space="preserve" y="0px">
	<defs/>
	<path d="M 98.656,80.699 L 89.281,62.199 C 88.76,60.653 87.691,59.299 86.349,58.315 C 87.558,57.266999999999996 88.337,55.741 88.337,54.021 L 88.337,10.709 C 88.338,7.56 85.776,5.0 82.631,5.0 L 17.367,5.0 C 14.219000000000001,5.0 11.659,7.5600000000000005 11.659,10.709 L 11.659,54.021 C 11.659,55.742000000000004 12.441,57.269 13.648000000000001,58.316 C 12.308000000000002,59.299 11.240000000000002,60.654 10.719000000000001,62.199000000000005 L 1.344,80.698 C 0.7110000000000001,82.57499999999999 0.9580000000000001,88.449 2.024,89.92999999999999 C 3.088,91.41199999999999 4.833,92.26199999999999 6.813,92.26199999999999 L 93.188,92.26199999999999 C 95.167,92.26199999999999 96.913,91.41199999999999 97.977,89.92999999999999 C 99.042,88.449 99.288,82.575 98.656,80.699 M 93.188,85.044 L 6.812,85.044 C 4.897,85.044 3.833,83.559 4.444000000000001,81.74499999999999 L 13.819,63.246999999999986 C 14.433000000000002,61.43499999999999 16.497,59.94999999999999 18.411,59.94999999999999 L 81.587,59.94999999999999 C 83.5,59.94999999999999 85.566,61.43399999999999 86.178,63.246999999999986 L 95.553,81.74499999999999 C 96.165,83.559 95.1,85.044 93.188,85.044 M 14.932,10.709 C 14.932,9.365 16.024,8.273 17.367,8.273 L 82.631,8.273 C 83.973,8.273 85.06700000000001,9.365 85.06700000000001,10.709 L 85.06700000000001,54.021 C 85.06700000000001,55.364000000000004 83.97300000000001,56.456 82.631,56.456 L 17.367,56.456 C 16.025000000000002,56.456 14.932,55.364000000000004 14.932,54.021 L 14.932,10.709"/>
	<path d="M 61.964,72.913 C 61.844,72.085 61.027,71.435 60.109,71.435 L 39.889,71.435 C 38.969,71.435 38.153000000000006,72.084 38.034000000000006,72.914 L 36.37800000000001,79.857 C 36.31600000000001,80.283 36.45400000000001,80.709 36.75800000000001,81.022 C 37.06000000000001,81.33500000000001 37.50600000000001,81.516 37.982000000000006,81.516 L 62.01400000000001,81.516 C 62.49100000000001,81.516 62.93800000000001,81.33500000000001 63.23900000000001,81.022 C 63.54300000000001,80.709 63.680000000000014,80.283 63.61800000000001,79.857 L 61.964,72.913"/>
	<path d="M 20.273,54.055 L 79.726,54.055 C 81.557,54.055 83.05499999999999,52.556 83.05499999999999,50.723 L 83.05499999999999,14.005 C 83.05499999999999,12.174000000000001 81.55699999999999,10.675 79.726,10.675 L 20.273,10.675 C 18.441,10.675 16.942999999999998,12.174000000000001 16.942999999999998,14.005 L 16.942999999999998,50.723000000000006 C 16.943,52.556 18.441,54.055 20.273,54.055"/>
</svg>
