<?xml version="1.0" ?>
<svg xmlns="http://www.w3.org/2000/svg" xmlns:ev="http://www.w3.org/2001/xml-events" xmlns:xlink="http://www.w3.org/1999/xlink" baseProfile="full" enable-background="new 0 0 100 100" height="600px" version="1.1" viewBox="0 0 100 100" width="593px" x="0px" xml:space="preserve" y="0px">
	<defs/>
	<path d="M 78.1,76.6 C 71.8,75.3 64.5,73.69999999999999 57.39999999999999,72.19999999999999 C 67.99999999999999,69.89999999999999 77.19999999999999,67.89999999999999 78.29999999999998,67.49999999999999 C 79.09999999999998,67.19999999999999 79.49999999999999,66.39999999999999 79.29999999999998,65.59999999999998 C 78.99999999999999,64.79999999999998 78.19999999999999,64.39999999999998 77.39999999999998,64.59999999999998 C 76.19999999999997,64.99999999999999 64.19999999999997,67.59999999999998 50.09999999999998,70.59999999999998 C 36.09999999999998,67.59999999999998 23.99999999999998,64.99999999999999 22.79999999999998,64.59999999999998 C 21.99999999999998,64.29999999999998 21.09999999999998,64.79999999999998 20.89999999999998,65.59999999999998 C 20.59999999999998,66.39999999999998 21.09999999999998,67.29999999999998 21.89999999999998,67.49999999999999 C 22.999999999999982,67.89999999999999 32.19999999999998,69.89999999999999 42.79999999999998,72.19999999999999 C 35.59999999999998,73.69999999999999 28.399999999999984,75.29999999999998 22.099999999999984,76.6 C 21.299999999999983,76.8 20.699999999999985,77.6 20.899999999999984,78.39999999999999 C 21.099999999999984,79.1 21.699999999999985,79.6 22.399999999999984,79.6 C 22.499999999999986,79.6 22.599999999999984,79.6 22.699999999999985,79.6 C 25.299999999999986,79.1 37.69999999999999,76.39999999999999 50.09999999999998,73.8 C 62.49999999999998,76.5 74.89999999999998,79.1 77.49999999999997,79.6 C 77.59999999999997,79.6 77.69999999999997,79.6 77.79999999999997,79.6 C 78.49999999999997,79.6 79.09999999999997,79.1 79.29999999999997,78.39999999999999 C 79.4,77.6 78.9,76.7 78.1,76.6"/>
	<path d="M 48.0,65.5 C 63.3,65.5 66.6,56.2 66.6,48.3 C 66.6,40.5 62.99999999999999,33.5 55.49999999999999,26.599999999999998 C 54.99999999999999,26.2 54.29999999999999,26.099999999999998 53.79999999999999,26.4 C 53.19999999999999,26.7 52.89999999999999,27.299999999999997 52.99999999999999,27.9 C 53.599999999999994,33.3 53.199999999999996,36.8 51.79999999999999,38.3 C 51.09999999999999,39.099999999999994 50.09999999999999,39.4 48.59999999999999,39.4 C 47.19999999999999,39.4 46.19999999999999,38.8 45.399999999999984,37.699999999999996 C 43.499999999999986,34.699999999999996 43.999999999999986,28.799999999999997 46.69999999999998,22.499999999999996 C 46.99999999999998,21.899999999999995 46.79999999999998,21.099999999999998 46.29999999999998,20.699999999999996 C 45.79999999999998,20.299999999999997 44.999999999999986,20.199999999999996 44.399999999999984,20.599999999999994 C 35.69999999999999,26.799999999999994 30.399999999999984,37.199999999999996 30.399999999999984,48.3 C 30.5,59.3 36.9,65.5 48.0,65.5 M 55.3,58.5 C 53.4,60.9 50.199999999999996,61.8 48.0,61.8 C 45.8,61.8 43.9,60.9 42.6,59.3 C 41.4,57.8 40.7,55.9 40.6,53.699999999999996 C 42.5,55.49999999999999 44.7,56.3 47.4,56.3 C 50.1,56.3 53.9,56.0 56.9,53.5 C 56.9,55.5 56.4,57.2 55.3,58.5 M 42.0,26.8 C 40.7,32.0 40.9,36.5 42.8,39.4 C 44.099999999999994,41.4 46.099999999999994,42.5 48.5,42.5 C 50.9,42.5 52.7,41.8 53.9,40.4 C 55.5,38.699999999999996 56.199999999999996,35.9 56.199999999999996,31.7 C 61.099999999999994,37.0 63.4,42.5 63.4,48.3 C 63.4,54.099999999999994 61.5,58.0 57.699999999999996,60.3 C 59.199999999999996,58.3 60.599999999999994,54.9 59.199999999999996,49.699999999999996 C 59.099999999999994,49.099999999999994 58.599999999999994,48.699999999999996 57.99999999999999,48.599999999999994 C 57.39999999999999,48.49999999999999 56.79999999999999,48.699999999999996 56.49999999999999,49.199999999999996 C 56.39999999999999,49.3 56.29999999999999,49.4 56.199999999999996,49.599999999999994 C 56.099999999999994,49.699999999999996 55.99999999999999,49.89999999999999 55.8,49.99999999999999 C 54.0,52.29999999999999 51.4,53.29999999999999 47.199999999999996,53.29999999999999 C 44.699999999999996,53.29999999999999 42.9,52.29999999999999 41.199999999999996,49.99999999999999 C 40.99999999999999,49.699999999999996 40.8,49.39999999999999 40.599999999999994,48.99999999999999 C 40.3,48.39999999999999 39.699999999999996,48.099999999999994 38.99999999999999,48.199999999999996 C 38.39999999999999,48.3 37.89999999999999,48.8 37.699999999999996,49.4 C 36.8,53.699999999999996 37.49999999999999,57.8 39.599999999999994,60.7 C 35.49999999999999,58.6 33.3,54.400000000000006 33.3,48.400000000000006 C 33.6,45.1 34.2,34.9 42.0,26.8"/>
</svg>
