<?xml version="1.0" ?>
<svg xmlns="http://www.w3.org/2000/svg" xmlns:ev="http://www.w3.org/2001/xml-events" xmlns:xlink="http://www.w3.org/1999/xlink" baseProfile="full" enable-background="new 0 0 75.381 100" height="600px" version="1.1" viewBox="0 0 75.381 100" width="453px" x="0px" xml:space="preserve" y="0px">
	<defs/>
	<path d="M 59.958,85.201 C 59.958,85.201 60.687999999999995,90.64699999999999 67.597,90.64699999999999 L 67.72999999999999,90.64699999999999 C 74.77199999999999,90.64699999999999 75.38199999999999,85.201 75.38199999999999,85.201 L 75.38199999999999,26.08 C 75.38199999999999,23.169999999999998 69.90899999999999,19.052 69.90899999999999,19.052 L 54.377,8.842 L 54.377,0.0 L 14.561,0.0 L 14.561,94.407 L 0.0,94.407 L 0.0,100.0 L 74.532,100.0 L 74.532,94.407 L 54.377,94.407 L 54.377,43.084 L 58.867000000000004,43.084 C 60.315000000000005,43.084 59.95700000000001,44.28 59.95700000000001,44.28 L 59.95700000000001,85.201 L 59.958,85.201 M 46.844,27.182 L 22.087,27.182 L 22.087,6.297 L 46.844,6.297 L 46.844,27.182 M 59.227,37.864 L 54.376999999999995,37.864 L 54.376999999999995,13.126 L 60.07599999999999,18.201 L 60.07599999999999,25.348 L 63.23799999999999,25.348 L 63.23799999999999,27.899 C 63.23799999999999,28.75 64.44699999999999,29.254 64.44699999999999,29.254 L 70.51899999999999,29.254 L 70.51899999999999,82.024 C 70.51899999999999,82.024 70.99699999999999,85.305 67.728,85.305 L 67.595,85.305 C 64.327,85.305 64.806,82.024 64.806,82.024 L 64.806,44.161 C 64.807,38.09 59.227,37.864 59.227,37.864"/>
</svg>
