<?xml version="1.0" ?>
<svg xmlns="http://www.w3.org/2000/svg" xmlns:ev="http://www.w3.org/2001/xml-events" xmlns:xlink="http://www.w3.org/1999/xlink" baseProfile="full" enable-background="new 0 0 55.242 100" height="600px" version="1.1" viewBox="0 0 55.242 100" width="332px" x="0px" xml:space="preserve" y="0px">
	<defs/>
	<path d="M 44.798,93.287 L 40.28,26.574 L 43.984,26.574 C 45.275,26.574 45.275,25.678 45.275,25.678 L 45.275,20.189 L 43.497,20.189 L 43.497,21.085 L 39.342,21.085 L 39.342,9.102 L 41.827999999999996,9.102 L 41.827999999999996,6.635 L 27.585,0.0 L 13.293,6.58 L 13.293,9.047 L 15.791,9.047 L 15.791,21.03 L 11.636,21.03 L 11.636,20.134 L 9.857,20.134 L 9.857,25.623 C 9.857,25.623 9.857,26.519000000000002 11.161,26.519000000000002 L 14.853,26.519000000000002 L 10.332,93.287 L 0.0,93.287 L 0.0,100.0 L 55.242,100.0 L 55.242,93.287 L 44.798,93.287 M 29.851,76.314 L 39.891,76.314 L 39.891,93.28699999999999 L 29.851,93.28699999999999 L 29.851,76.314"/>
</svg>
