<?xml version="1.0" ?>
<svg xmlns="http://www.w3.org/2000/svg" xmlns:a="http://ns.adobe.com/AdobeSVGViewerExtensions/3.0/" xmlns:ev="http://www.w3.org/2001/xml-events" xmlns:xlink="http://www.w3.org/1999/xlink" baseProfile="full" enable-background="new -2.497 -23 100 100" height="293px" overflow="visible" version="1.1" viewBox="-2.497 -23 100 100" width="600px" x="0px" xml:space="preserve" y="0px">
	<defs/>
	<path d="M 61.503,34.336 C 61.503,36.359 59.862,38.0 57.839,38.0 L 57.167,38.0 C 55.144,38.0 53.503,36.359 53.503,34.336 L 53.503,23.664 C 53.503,21.641000000000002 55.144,20.0 57.167,20.0 L 57.839,20.0 C 59.862,20.0 61.503,21.641 61.503,23.664 L 61.503,34.336" fill="#000000"/>
	<path d="M 32.376,28.288 C 31.159,25.86 30.465999999999998,23.096 30.465999999999998,20.16 C 30.465999999999998,10.59 37.805,2.803000000000001 46.827,2.803000000000001 C 55.848,2.803000000000001 63.187,10.59 63.187,20.16 C 63.187,23.197 62.446999999999996,26.051000000000002 61.150999999999996,28.536 C 61.796,29.194000000000003 62.38999999999999,29.895000000000003 62.931,30.636000000000003 C 64.67399999999999,27.581000000000003 65.67999999999999,23.994000000000003 65.67999999999999,20.160000000000004 C 65.681,9.043 57.223,0.0 46.827,0.0 C 36.431,0.0 27.973,9.043 27.973,20.16 C 27.973,23.875 28.918,27.356 30.563,30.348 C 31.116,29.619 31.721,28.932 32.376,28.288" fill="#000000"/>
	<path d="M 63.503,33.562 C 63.503,34.355999999999995 62.859,35.0 62.066,35.0 L 61.939,35.0 C 61.146,35.0 60.502,34.356 60.502,33.562 L 60.502,26.436999999999998 C 60.502,25.642999999999997 61.146,24.999 61.939,24.999 L 62.066,24.999 C 62.859,24.999 63.503,25.642999999999997 63.503,26.436999999999998 L 63.503,33.562" fill="#000000"/>
	<path d="M 84.52,1.3 C 84.15599999999999,0.935 83.67,0.7350000000000001 83.155,0.7350000000000001 C 82.64,0.7350000000000001 82.152,0.936 81.787,1.3 C 81.42200000000001,1.6640000000000001 81.22200000000001,2.151 81.22200000000001,2.668 C 81.22200000000001,3.185 81.42200000000001,3.668 81.787,4.033 C 92.325,14.573 92.325,31.719 81.787,42.258 C 81.42200000000001,42.623000000000005 81.22200000000001,43.109 81.22200000000001,43.624 C 81.22200000000001,44.141000000000005 81.42200000000001,44.625 81.787,44.991 C 82.152,45.354 82.63900000000001,45.556 83.15400000000001,45.556 C 83.671,45.556 84.15500000000002,45.354 84.519,44.991 C 90.345,39.165 93.55300000000001,31.407 93.55300000000001,23.146 C 93.554,14.884 90.346,7.126 84.52,1.3" fill="#000000"/>
	<path d="M 69.512,8.16 C 69.182,7.83 68.741,7.648 68.274,7.648 C 67.807,7.648 67.368,7.83 67.039,8.16 C 66.708,8.491 66.525,8.93 66.525,9.397 C 66.525,9.863 66.70800000000001,10.303 67.039,10.632 C 74.08800000000001,17.683999999999997 74.08800000000001,29.153999999999996 67.039,36.204 C 66.708,36.535000000000004 66.525,36.975 66.525,37.441 C 66.525,37.909000000000006 66.70800000000001,38.347 67.039,38.676 C 67.368,39.007000000000005 67.807,39.190000000000005 68.273,39.190000000000005 C 68.73899999999999,39.190000000000005 69.181,39.007000000000005 69.511,38.676 C 73.579,34.608000000000004 75.822,29.188000000000002 75.822,23.417 C 75.822,17.648 73.58,12.229 69.512,8.16" fill="#000000"/>
	<path d="M 77.214,4.864 C 76.841,4.493 76.348,4.288 75.822,4.288 C 75.296,4.288 74.801,4.493 74.43,4.864 C 73.661,5.632 73.661,6.88 74.43,7.647 C 78.543,11.761 80.808,17.238 80.808,23.073 C 80.808,28.905 78.543,34.382 74.43,38.495000000000005 C 73.661,39.264 73.661,40.51200000000001 74.43,41.278000000000006 C 74.801,41.651 75.296,41.855000000000004 75.822,41.855000000000004 C 76.348,41.855000000000004 76.84100000000001,41.651 77.214,41.278000000000006 C 82.069,36.42400000000001 84.743,29.957000000000008 84.743,23.073000000000008 C 84.743,16.186 82.069,9.72 77.214,4.864" fill="#000000"/>
	<path d="M 26.516,36.204 C 19.465999999999998,29.154 19.465999999999998,17.683 26.516,10.633 C 27.197999999999997,9.95 27.197999999999997,8.841 26.516,8.158999999999999 C 26.186,7.828999999999999 25.747,7.6469999999999985 25.279999999999998,7.6469999999999985 C 24.813,7.6469999999999985 24.374,7.828999999999999 24.043999999999997,8.158999999999999 C 19.974999999999998,12.227999999999998 17.732999999999997,17.648 17.732999999999997,23.416999999999998 C 17.732999999999997,29.188 19.974999999999998,34.607 24.043999999999997,38.676 C 24.373999999999995,39.007000000000005 24.813999999999997,39.190000000000005 25.279999999999998,39.190000000000005 C 25.746999999999996,39.190000000000005 26.185999999999996,39.007000000000005 26.516,38.676 C 27.198,37.997 27.198,36.887 26.516,36.204" fill="#000000"/>
	<path d="M 11.767,4.033 C 12.133,3.668 12.334,3.1850000000000005 12.334,2.668 C 12.334,2.1510000000000002 12.133,1.6650000000000003 11.767,1.302 C 11.402,0.935 10.917,0.7350000000000001 10.401,0.7350000000000001 C 9.884,0.7350000000000001 9.399,0.9360000000000002 9.033999999999999,1.3 C 3.208,7.126 0.0,14.884 0.0,23.146 C 0.0,31.407 3.208,39.165 9.034,44.991 C 9.399000000000001,45.354 9.884,45.556 10.4,45.556 C 10.917,45.556 11.401,45.354 11.766,44.991 C 12.132,44.625 12.333,44.14 12.333,43.624 C 12.333,43.108000000000004 12.132,42.623000000000005 11.766,42.258 C 1.229,31.719 1.229,14.572 11.767,4.033" fill="#000000"/>
	<path d="M 12.746,23.073 C 12.746,17.238 15.012,11.761000000000001 19.125,7.647 C 19.892,6.8790000000000004 19.892,5.632 19.125,4.864000000000001 C 18.753,4.493 18.259,4.288000000000001 17.733,4.288000000000001 C 17.208000000000002,4.288000000000001 16.713,4.493000000000001 16.342,4.864000000000001 C 11.485999999999999,9.72 8.811999999999998,16.185000000000002 8.811999999999998,23.073 C 8.811999999999998,29.957 11.485999999999997,36.425 16.342,41.278 C 16.714,41.650999999999996 17.208,41.855 17.732999999999997,41.855 C 18.258999999999997,41.855 18.752999999999997,41.650999999999996 19.124999999999996,41.278 C 19.891999999999996,40.510999999999996 19.891999999999996,39.263 19.124999999999996,38.495 C 15.011,34.382 12.746,28.905 12.746,23.073" fill="#000000"/>
	<path d="M 32.503,34.336 C 32.503,36.359 34.144,38.0 36.167,38.0 L 36.839,38.0 C 38.862,38.0 40.503,36.359 40.503,34.336 L 40.503,23.664 C 40.503,21.641000000000002 38.862,20.0 36.839,20.0 L 36.167,20.0 C 34.144,20.0 32.503,21.641 32.503,23.664 L 32.503,34.336" fill="#000000"/>
	<path d="M 30.503,33.562 C 30.503,34.355999999999995 31.147,35.0 31.94,35.0 L 32.067,35.0 C 32.86,35.0 33.504,34.356 33.504,33.562 L 33.504,26.436999999999998 C 33.504,25.642999999999997 32.86,24.999 32.067,24.999 L 31.94,24.999 C 31.147000000000002,24.999 30.503,25.642999999999997 30.503,26.436999999999998 L 30.503,33.562" fill="#000000"/>
</svg>
