<?xml version="1.0" ?>
<svg xmlns="http://www.w3.org/2000/svg" xmlns:ev="http://www.w3.org/2001/xml-events" xmlns:xlink="http://www.w3.org/1999/xlink" baseProfile="full" enable-background="new 0 0 100 85.407" height="513px" version="1.1" viewBox="0 0 100 85.407" width="600px" x="0px" xml:space="preserve" y="0px">
	<defs/>
	<path d="M 100.0,42.672 C 100.0,46.931999999999995 98.33,50.8 95.615,53.67999999999999 C 95.149,59.757999999999996 91.298,64.88799999999999 85.92999999999999,67.201 L 85.92999999999999,67.258 C 79.375,71.07499999999999 75.45599999999999,77.591 74.26299999999999,85.407 L 68.202,85.407 L 68.202,67.275 C 68.242,61.623000000000005 70.02,58.004000000000005 73.746,55.77100000000001 C 75.109,54.98700000000001 76.348,54.09000000000001 77.404,53.09600000000001 C 80.17,54.09000000000001 82.618,56.03800000000001 84.175,58.81000000000001 C 84.499,59.35500000000001 85.078,59.662000000000006 85.652,59.662000000000006 C 85.93,59.662000000000006 86.22,59.59400000000001 86.481,59.440000000000005 C 87.31099999999999,58.98500000000001 87.606,57.952000000000005 87.14,57.13400000000001 L 87.129,57.13400000000001 C 85.385,54.03200000000001 82.733,51.74300000000001 79.72200000000001,50.38000000000001 C 81.26700000000001,48.00500000000001 82.12500000000001,45.17700000000001 82.08500000000001,41.78000000000001 C 82.08500000000001,41.763000000000005 82.108,41.74600000000001 82.108,41.723000000000006 C 82.108,40.18900000000001 81.881,38.696000000000005 81.47200000000001,37.29200000000001 C 85.01100000000001,36.61600000000001 88.129,34.82100000000001 90.424,32.29200000000001 C 91.06,31.59400000000001 91.01400000000001,30.52000000000001 90.31,29.89500000000001 C 89.611,29.26500000000001 88.555,29.32100000000001 87.93,30.00300000000001 C 85.93,32.17900000000001 83.232,33.66700000000001 80.165,34.07600000000001 C 77.7,29.509000000000007 73.116,26.26600000000001 67.74300000000001,25.675000000000008 C 68.10100000000001,22.77800000000001 69.40700000000001,20.19400000000001 71.37200000000001,18.22800000000001 C 72.02000000000001,17.56900000000001 72.02000000000001,16.494000000000007 71.37200000000001,15.841000000000008 C 70.71300000000001,15.176000000000009 69.62200000000001,15.176000000000009 68.96400000000001,15.841000000000008 C 66.44800000000001,18.35900000000001 64.76600000000002,21.721000000000007 64.34600000000002,25.46500000000001 C 58.03500000000002,24.67000000000001 53.173000000000016,19.31300000000001 53.16200000000002,12.791000000000011 C 53.16200000000002,11.86500000000001 52.39500000000002,11.09300000000001 51.48600000000002,11.09300000000001 C 50.52600000000002,11.09300000000001 49.77600000000002,11.86500000000001 49.77600000000002,12.791000000000011 C 49.77600000000002,13.893000000000011 49.884000000000015,14.944000000000011 50.094000000000015,15.97800000000001 C 47.70200000000001,18.04700000000001 44.72600000000001,19.09200000000001 41.744000000000014,19.09200000000001 C 40.27300000000001,19.09200000000001 38.796000000000014,18.83100000000001 37.405000000000015,18.32500000000001 C 37.405000000000015,18.32500000000001 37.38200000000001,18.31900000000001 37.365000000000016,18.31400000000001 C 35.65000000000001,17.69500000000001 34.076000000000015,16.71000000000001 32.713000000000015,15.34700000000001 C 32.06000000000002,14.68800000000001 30.981000000000016,14.68800000000001 30.316000000000017,15.34700000000001 C 29.651000000000018,16.00600000000001 29.651000000000018,17.07600000000001 30.316000000000017,17.74000000000001 C 31.713000000000015,19.13200000000001 33.28700000000002,20.21100000000001 34.96200000000002,20.989000000000008 C 34.62700000000002,25.209000000000007 32.173000000000016,28.839000000000006 28.74200000000002,30.878000000000007 C 26.76000000000002,27.867000000000008 23.77800000000002,25.482000000000006 20.11400000000002,24.317000000000007 C 19.19900000000002,24.03300000000001 18.25100000000002,24.527000000000008 17.96100000000002,25.419000000000008 C 17.71100000000002,26.311000000000007 18.166000000000018,27.26000000000001 19.06900000000002,27.538000000000007 C 21.79000000000002,28.401000000000007 23.97700000000002,30.07700000000001 25.55000000000002,32.21300000000001 C 24.494000000000018,32.49700000000001 23.40900000000002,32.650000000000006 22.256000000000018,32.650000000000006 C 22.256000000000018,32.650000000000006 22.256000000000018,32.650000000000006 22.238000000000017,32.650000000000006 L 22.05,32.650000000000006 C 17.699,32.650000000000006 13.700000000000001,34.383 10.792000000000002,37.218 C 10.104000000000001,37.871 10.088000000000001,38.945 10.764000000000001,39.61000000000001 C 11.087000000000002,39.95100000000001 11.531,40.12100000000001 11.991000000000001,40.12100000000001 C 12.378000000000002,40.12100000000001 12.803,39.96200000000001 13.133000000000001,39.64400000000001 C 15.440000000000001,37.39400000000001 18.586000000000002,36.03700000000001 22.051000000000002,36.03700000000001 L 22.233,36.03700000000001 L 22.238,36.03700000000001 L 22.256,36.03700000000001 C 30.412,36.03700000000001 37.189,29.963000000000015 38.251,22.091000000000015 C 39.41,22.341000000000015 40.568,22.477000000000015 41.744,22.477000000000015 C 45.056,22.477000000000015 48.396,21.449000000000016 51.207,19.415000000000013 C 52.235,21.761000000000013 53.86,23.811000000000014 55.831,25.402000000000015 C 53.82,27.879000000000016 52.639,30.821000000000016 52.327000000000005,33.83100000000002 C 51.480000000000004,33.695000000000014 50.589000000000006,33.621000000000016 49.697,33.621000000000016 C 47.141000000000005,33.621000000000016 44.545,34.228000000000016 42.131,35.51900000000002 C 41.302,35.95700000000002 40.989,36.98400000000002 41.427,37.81400000000002 C 41.734,38.37600000000002 42.33,38.706000000000024 42.938,38.706000000000024 C 43.216,38.706000000000024 43.466,38.64400000000003 43.71,38.501000000000026 C 45.653,37.48400000000002 47.687,37.001000000000026 49.697,37.001000000000026 C 50.594,37.001000000000026 51.480000000000004,37.09800000000003 52.327000000000005,37.279000000000025 C 52.696000000000005,40.71000000000002 54.179,44.06700000000002 56.729000000000006,46.73700000000002 C 57.07000000000001,47.090000000000025 57.507000000000005,47.260000000000026 57.94500000000001,47.260000000000026 C 58.36000000000001,47.260000000000026 58.791000000000004,47.10600000000002 59.12700000000001,46.794000000000025 C 59.82000000000001,46.14100000000003 59.83700000000001,45.078000000000024 59.17800000000001,44.40200000000002 L 59.16700000000001,44.40200000000002 C 56.900000000000006,42.005000000000024 55.70200000000001,38.96100000000002 55.62300000000001,35.88200000000002 C 55.62300000000001,35.83600000000002 55.634000000000015,35.80200000000002 55.62300000000001,35.75100000000002 C 55.62300000000001,35.68900000000002 55.62300000000001,35.62600000000002 55.62300000000001,35.56300000000002 C 55.62300000000001,32.57400000000002 56.65700000000001,29.62000000000002 58.70200000000001,27.246000000000016 C 60.85500000000001,28.320000000000018 63.308000000000014,28.945000000000018 65.90500000000002,28.945000000000018 C 65.90500000000002,28.945000000000018 65.91600000000001,28.950000000000017 65.93300000000002,28.950000000000017 C 65.93300000000002,28.950000000000017 65.94400000000002,28.950000000000017 65.96100000000003,28.950000000000017 C 72.99300000000002,28.973000000000017 78.68500000000003,34.655000000000015 78.71300000000002,41.68600000000002 C 77.37900000000002,41.334000000000024 76.00400000000002,41.15200000000002 74.59500000000003,41.15200000000002 C 72.57900000000002,41.15200000000002 70.53400000000002,41.52100000000002 68.56300000000003,42.334000000000024 C 67.68800000000003,42.69200000000002 67.27300000000002,43.67400000000003 67.62600000000003,44.538000000000025 C 67.98300000000003,45.401000000000025 68.95500000000003,45.822000000000024 69.82400000000003,45.47000000000003 C 71.40300000000002,44.840000000000025 73.01100000000002,44.53300000000003 74.59500000000003,44.53300000000003 C 75.87300000000003,44.53300000000003 77.14000000000003,44.72600000000003 78.32700000000003,45.09500000000003 C 77.91200000000002,46.992000000000026 77.10000000000002,48.514000000000024 75.83900000000003,49.86600000000003 C 75.74200000000003,49.95100000000003 75.65100000000002,50.04800000000003 75.57800000000003,50.16100000000003 C 74.61200000000004,51.11000000000003 73.45300000000003,51.98400000000003 72.02200000000003,52.85300000000003 C 67.12000000000003,55.71600000000003 64.76800000000003,60.90800000000003 64.81900000000003,67.27100000000003 L 64.81900000000003,85.40300000000003 L 59.03600000000003,85.40300000000003 L 59.03600000000003,68.161 C 59.03600000000003,61.828 55.06600000000003,55.822 50.06700000000003,53.686 C 47.681000000000026,52.76 45.193000000000026,51.209 43.38100000000003,49.181 C 40.797000000000025,50.936 37.69500000000003,51.97 34.36000000000003,51.97 C 31.014000000000028,51.97 27.91300000000003,50.952999999999996 25.34600000000003,49.21 C 22.790000000000028,50.891 19.705000000000027,51.874 16.406000000000027,51.874 C 7.333,51.875 0.0,44.524 0.0,35.464 C 0.0,28.692 4.095,22.881 9.958,20.381 C 11.543,13.154 17.944,7.747 25.646,7.747 C 26.055,7.747 26.43,7.781 26.811,7.804 C 29.714,3.561 34.593,0.7770000000000001 40.12,0.7770000000000001 C 42.858,0.7770000000000001 45.425999999999995,1.459 47.681,2.6740000000000004 C 50.225,0.982 53.269,0.0 56.546,0.0 C 60.754999999999995,0.0 64.589,1.642 67.463,4.306 C 68.66699999999999,4.016 69.91099999999999,3.846 71.21199999999999,3.846 C 77.716,3.846 83.33899999999998,7.76 85.85,13.366 C 92.451,15.366 97.256,21.490000000000002 97.256,28.738 C 97.256,30.192 97.063,31.595 96.705,32.93 C 98.762,35.635 100.0,39.009 100.0,42.672"/>
</svg>
