<?xml version="1.0" ?>
<svg xmlns="http://www.w3.org/2000/svg" xmlns:ev="http://www.w3.org/2001/xml-events" xmlns:xlink="http://www.w3.org/1999/xlink" baseProfile="full" enable-background="new 0 0 100 100" height="600px" version="1.1" viewBox="0 0 100 100" width="600px" x="0px" xml:space="preserve" y="0px">
	<defs/>
	<path d="M 80.644,87.982 L 97.236,46.499 C 97.29,46.371 97.324,46.239000000000004 97.34400000000001,46.105000000000004 C 97.35000000000001,46.066 97.35100000000001,46.028000000000006 97.355,45.989000000000004 C 97.36200000000001,45.902 97.363,45.815000000000005 97.357,45.729000000000006 C 97.354,45.68300000000001 97.35,45.638000000000005 97.343,45.592000000000006 C 97.32900000000001,45.50300000000001 97.307,45.416000000000004 97.28,45.330000000000005 C 97.268,45.29600000000001 97.261,45.261 97.249,45.227000000000004 C 97.202,45.109 97.143,44.998000000000005 97.071,44.892 C 97.067,44.886 97.065,44.88 97.06099999999999,44.874 L 67.999,3.358 C 67.98899999999999,3.345 67.996,3.3320000000000003 67.98599999999999,3.318 L 68.0,3.315 L 68.0,4.0 C 68.0,4.0 67.967,4.0 67.963,4.0 C 67.55999999999999,3.0 66.869,2.876 66.211,3.024 C 66.211,3.028 66.207,3.012 66.204,3.012 C 66.201,3.016 66.194,3.0 66.194,3.0 L 66.19,3.0 L 66.187,3.0 L 66.184,3.0 L 66.17999999999999,3.0 L 66.17699999999999,3.0 C 66.17699999999999,3.0 66.17299999999999,3.0 66.16999999999999,3.0 C 66.16699999999999,3.0 66.16699999999999,2.849 66.16299999999998,2.849 L 20.495,15.227 C 20.470000000000002,15.234 20.449,15.208 20.424,15.216000000000001 C 20.337,15.244000000000002 20.252,15.257000000000001 20.171,15.299000000000001 C 20.117,15.326 20.069,15.352000000000002 20.019,15.384000000000002 C 19.968,15.417000000000002 19.918,15.445000000000002 19.872,15.483000000000002 C 19.828,15.519000000000002 19.788,15.556000000000003 19.748,15.596000000000002 C 19.700000000000003,15.644000000000002 19.655,15.694000000000003 19.612000000000002,15.748000000000001 C 19.582,15.787 19.553,15.824000000000002 19.527,15.865000000000002 C 19.481,15.935000000000002 19.443,16.01 19.407,16.088 C 19.396,16.111 19.38,16.130000000000003 19.371,16.154 L 2.911,57.664 C 2.891,57.715 3.0,57.768 3.0,57.82 L 3.0,57.822 C 3.0,58.008 3.0,58.197 3.0,58.384 C 3.0,58.388 3.0,58.388 3.0,58.392 C 3.0,58.392 3.0,58.392 3.0,58.394000000000005 C 3.0,58.394000000000005 3.0,58.394000000000005 3.0,58.398 L 3.0,58.402 L 3.0,58.404 C 3.0,58.478 2.998,58.554 3.012,58.627 C 3.015,58.631 3.0,58.631 3.0,58.633 C 3.0,58.637 3.0,58.637 3.0,58.641000000000005 C 3.0,58.641000000000005 3.0,58.641000000000005 3.0,58.64300000000001 C 3.0,58.64300000000001 3.0,58.64300000000001 3.0,58.647000000000006 L 3.0,58.651 C 3.0,58.651 3.0,58.651 3.0,58.653000000000006 L 3.0,58.657000000000004 C 3.0,58.848000000000006 2.954,59.034000000000006 3.06,59.202000000000005 C 3.06,59.2 3.0300000000000002,59.206 3.0300000000000002,59.206 C 3.0300000000000002,59.21 3.0000000000000004,59.21 3.0000000000000004,59.21 C 3.0000000000000004,59.212 3.0000000000000004,59.212 3.0000000000000004,59.212 L 2.9550000000000005,59.216 C 2.9850000000000003,59.263 2.9910000000000005,59.306000000000004 3.0230000000000006,59.349000000000004 L 32.072,96.708 C 32.074000000000005,96.712 32.072,96.714 32.074000000000005,96.718 C 32.07600000000001,96.72 32.074000000000005,96.72200000000001 32.07600000000001,96.726 C 32.08200000000001,96.734 32.09000000000001,96.74 32.09700000000001,96.747 C 32.12100000000001,96.776 32.14900000000001,96.798 32.17500000000001,96.825 C 32.20200000000001,96.854 32.22800000000001,96.882 32.25700000000001,96.907 C 32.28700000000001,96.934 32.31200000000001,96.969 32.34300000000001,96.99499999999999 C 32.369000000000014,97.01499999999999 32.40000000000001,97.02799999999999 32.427000000000014,97.04799999999999 C 32.46700000000001,97.07499999999999 32.50800000000002,97.10099999999998 32.55000000000001,97.12399999999998 C 32.555000000000014,97.12799999999999 32.56000000000001,97.13199999999998 32.56600000000001,97.13399999999999 C 32.65300000000001,97.18499999999999 32.74200000000001,97.22399999999999 32.83500000000001,97.25699999999999 C 32.87700000000001,97.27099999999999 32.91700000000001,97.288 32.96000000000001,97.3 C 32.98100000000001,97.306 33.001000000000005,97.318 33.022000000000006,97.321 C 33.145,97.348 33.27100000000001,97.364 33.397000000000006,97.364 C 33.496,97.364 33.599000000000004,97.352 33.70100000000001,97.337 L 79.37,89.034 C 79.427,89.024 79.47800000000001,89.013 79.533,88.997 C 79.547,88.992 79.562,89.0 79.575,89.0 C 79.57900000000001,89.0 79.57900000000001,89.0 79.57900000000001,89.0 C 79.60000000000001,89.0 79.61800000000001,88.973 79.63900000000001,88.965 C 79.68,88.95100000000001 79.71900000000001,88.931 79.75900000000001,88.913 C 79.78000000000002,88.90299999999999 79.80300000000001,88.89399999999999 79.82300000000001,88.883 C 79.84,88.87299999999999 79.849,88.868 79.85600000000001,88.866 C 79.87,88.858 79.879,88.845 79.89300000000001,88.838 C 80.03300000000002,88.75999999999999 80.16200000000002,88.66399999999999 80.27300000000001,88.553 C 80.287,88.53699999999999 80.29700000000001,88.51899999999999 80.311,88.505 C 80.42,88.386 80.512,88.253 80.58200000000001,88.107 C 80.58800000000001,88.097 80.59800000000001,88.089 80.60300000000001,88.078 C 80.60700000000001,88.07000000000001 80.611,88.061 80.614,88.052 C 80.616,88.048 80.617,88.046 80.619,88.042 C 80.627,88.021 80.635,88.002 80.644,87.982 M 77.611,84.461 L 48.805,66.453 L 81.21199999999999,41.251000000000005 L 77.611,84.461 M 46.817,63.709 L 35.863,23.542 L 79.681,38.150000000000006 L 46.817,63.709 M 84.668,40.542 L 93.59400000000001,46.494 L 81.69200000000001,76.244 L 84.668,40.542 M 89.128,39.446 L 84.53,36.38 L 78.401,24.123000000000005 L 89.128,39.446 M 79.876,34.645 L 37.807,20.622 L 65.854,6.599 L 79.876,34.645 M 33.268,19.107 L 26.783,16.945 L 50.564,10.458 L 33.268,19.107 M 21.92,18.895 L 30.590000000000003,21.786 L 10.357,47.798 L 21.92,18.895 M 32.652,24.649 L 43.497,64.406 L 7.351,57.178 L 32.652,24.649 M 43.472,67.857 L 32.969,92.363 L 8.462,60.855 L 43.472,67.857 M 46.631,69.09 L 74.457,86.483 L 36.193999999999996,93.44200000000001 L 46.631,69.09"/>
</svg>
