<?xml version="1.0" ?>
<svg xmlns="http://www.w3.org/2000/svg" xmlns:cc="http://creativecommons.org/ns#" xmlns:dc="http://purl.org/dc/elements/1.1/" xmlns:ev="http://www.w3.org/2001/xml-events" xmlns:inkscape="http://www.inkscape.org/namespaces/inkscape" xmlns:rdf="http://www.w3.org/1999/02/22-rdf-syntax-ns#" xmlns:sodipodi="http://sodipodi.sourceforge.net/DTD/sodipodi-0.dtd" xmlns:svg="http://www.w3.org/2000/svg" xmlns:xlink="http://www.w3.org/1999/xlink" baseProfile="full" height="371px" version="1.1" viewBox="0 0 100 100" width="600px" x="0px" y="0px">
	<defs/>
	<path connector-curvature="0" d="M 9.0514103,1008.2959 C 2.335178300000001,1011.0763999999999 -0.8554596700000001,1018.7756999999999 1.923738300000001,1025.4913 C 4.704256300000001,1032.2061999999999 12.403592,1035.3974999999998 19.119165,1032.6182999999999 C 25.833419,1029.8383999999999 29.024717,1022.1377999999999 26.245517999999997,1015.4234999999999 C 23.466319,1008.7072999999999 15.765663999999997,1005.5166999999999 9.051410299999997,1008.2958999999998 L 9.0514103,1008.2959 M 10.809921000000001,1010.0821 C 12.997015000000001,1009.3929999999999 15.261255000000002,1009.4359 17.327027,1010.0921 L 14.790472000000001,1016.2116 C 14.318371,1016.1296 13.833742,1016.1296 13.346476000000001,1016.2116 L 10.809921000000001,1010.0848 L 10.809921000000001,1010.0848 L 10.809921000000001,1010.0821 M 8.897120300000001,1010.8824999999999 C 8.9063203,1010.8725 8.9162403,1010.8725 8.9248103,1010.8694999999999 L 11.469277000000002,1017.0166999999999 C 11.093443000000002,1017.2995999999999 10.771016000000001,1017.6379 10.511888000000003,1018.0169999999999 L 4.393035300000003,1015.4803999999999 C 5.370865300000003,1013.5781999999999 6.908490300000003,1011.9514999999999 8.897117300000003,1010.8826999999999 L 8.897117300000003,1010.8826999999999 L 8.897120300000001,1010.8824999999999 M 19.209497,1010.8675 C 21.085373999999998,1011.8702999999999 22.671132,1013.4317 23.708962999999997,1015.4289 L 17.584176999999997,1017.9641 C 17.323069999999998,1017.6002000000001 17.011852999999995,1017.2850000000001 16.663710999999996,1017.0226 L 19.209496999999995,1010.8675000000001 L 19.209497,1010.8675 M 3.6327972999999982,1017.372 L 9.7813211,1019.9205 C 9.7292311,1020.3331999999999 9.7411011,1020.7584999999999 9.8136311,1021.1798 L 3.6875253,1023.7171 C 3.0182753,1021.5906 3.0334413,1019.391 3.6327952999999997,1017.372 L 3.6327952999999997,1017.372 L 3.6327972999999982,1017.372 M 4.4734802999999985,1025.5955999999999 L 10.620026,1023.0517999999998 C 10.892999999999999,1023.4110999999998 11.213448999999999,1023.7235999999998 11.574777999999998,1023.9781999999998 L 9.028333299999998,1030.1108999999997 C 7.1399282999999985,1029.1250999999997 5.532411299999998,1027.5801999999996 4.4734802999999985,1025.5955999999996 L 4.4734802999999985,1025.5955999999996 L 4.4734802999999985,1025.5955999999999 M 18.334526999999998,1019.8571999999999 L 24.481073,1017.3133999999999 C 25.141091,1019.4872999999999 25.083727,1021.7376999999999 24.425683,1023.7849999999999 L 18.306829999999998,1021.2483999999998 C 18.391229999999997,1020.7940999999998 18.39914,1020.3259999999998 18.334519999999998,1019.8571999999998 L 18.334519999999998,1019.8571999999998 L 18.334526999999998,1019.8571999999999 M 13.462522999999997,1024.7311 C 13.856819999999997,1024.7871 14.259028999999998,1024.7891 14.663215999999997,1024.7318 L 17.207682999999996,1030.8784 C 15.095754999999997,1031.5179 12.913276999999995,1031.4869 10.914099999999996,1030.8784 L 13.462522999999996,1024.7298 L 13.462522999999997,1024.7311 M 17.477359999999997,1023.1098 L 23.626543999999996,1025.6581999999999 C 22.621679999999994,1027.5096999999998 21.075482999999995,1029.0756999999999 19.099383999999993,1030.1028999999999 L 16.563488999999993,1023.9781999999999 C 16.914267999999993,1023.7301999999999 17.220869999999994,1023.4407999999999 17.477359999999994,1023.1098 L 17.477359999999997,1023.1098" fill="#010101"/>
	<path connector-curvature="0" d="M 84.180325,1012.8539 C 78.746939,1015.1033 76.16573299999999,1021.332 78.414086,1026.7648 C 80.663506,1032.1971999999998 86.892219,1034.7789 92.32507199999999,1032.5304999999998 C 97.75685899999999,1030.2816999999998 100.33859999999999,1024.0519 98.090245,1018.6200999999999 C 95.841892,1013.1866999999999 89.612113,1010.6054999999999 84.180325,1012.8538999999998 L 84.180325,1012.8539 M 85.602949,1014.2989 C 87.372294,1013.7414 89.204049,1013.7761 90.875244,1014.3089 L 88.823189,1019.2595 C 88.441262,1019.1935 88.0492,1019.1935 87.655005,1019.2595 L 85.60294900000001,1014.303 L 85.60294900000001,1014.303 L 85.602949,1014.2989 M 84.055506,1014.9464 C 84.06300599999999,1014.9364 84.07097599999999,1014.9364 84.077906,1014.9354000000001 L 86.136363,1019.9084 C 85.83231500000001,1020.1373 85.57147400000001,1020.4109000000001 85.361841,1020.7176000000001 L 80.41173,1018.6656 C 81.202787,1017.1266 82.44671600000001,1015.8107 84.055502,1014.946 L 84.055502,1014.946 L 84.055506,1014.9464 M 92.39814999999999,1014.9334 C 93.91572299999999,1015.7447 95.198591,1017.0079 96.03818899999999,1018.6236 L 91.08327699999998,1020.6746 C 90.87204399999999,1020.3802000000001 90.62027099999999,1020.1252000000001 90.33862699999997,1019.9129 L 92.39814999999997,1014.9334 L 92.39814999999999,1014.9334 M 79.79670399999999,1020.1956 L 84.77081799999999,1022.2572 C 84.72867799999999,1022.5912 84.738278,1022.9352 84.79695799999999,1023.2761 L 79.84097899999999,1025.3286 C 79.299561,1023.6084000000001 79.31182999999999,1021.8289000000001 79.79669899999999,1020.1956 L 79.79669899999999,1020.1956 L 79.79670399999999,1020.1956 M 80.47680999999999,1026.8483 L 85.44932499999999,1024.7904 C 85.67015999999998,1025.0811 85.92940099999998,1025.334 86.221713,1025.5399 L 84.161656,1030.5012 C 82.63395,1029.7038 81.333479,1028.4539 80.47681,1026.8482999999999 L 80.47681,1026.8482999999999 L 80.47680999999999,1026.8483 M 91.69030599999999,1022.2061000000001 L 96.662821,1020.1481000000001 C 97.196771,1021.9068000000001 97.150364,1023.7273000000001 96.618011,1025.3836000000001 L 91.66789899999999,1023.3315000000001 C 91.73617899999999,1022.9640000000002 91.74257899999999,1022.5853000000001 91.690299,1022.2061000000001 L 91.690299,1022.2061000000001 L 91.69030599999999,1022.2061000000001 M 87.748886,1026.1490000000001 C 88.06787,1026.1940000000002 88.393254,1026.1960000000001 88.72023899999999,1026.1490000000001 L 90.778696,1031.1216000000002 C 89.070161,1031.6390000000001 87.30454999999999,1031.6139 85.687229,1031.1216000000002 L 87.748886,1026.1474 L 87.748886,1026.1490000000001 M 90.996864,1024.8374000000001 L 95.971512,1026.8990000000001 C 95.158584,1028.3968000000002 93.90772100000001,1029.6637 92.30907,1030.4948000000002 L 90.257547,1025.5399000000002 C 90.541325,1025.3393000000003 90.789364,1025.1051000000002 90.996864,1024.8374000000001" fill="#010101"/>
	<path d="M 53.042998,973.07812 L 26.824247999999997,978.44286 L 34.042998,1015.2487 L 72.730498,1015.3287 L 80.199248,978.44286 L 53.042998,973.07812 M 33.292998,980.36456 L 45.417998,980.36456 L 45.417998,995.36454 L 35.324248,995.36454 L 33.292998,980.36456 M 47.449248,980.36456 L 59.542998,980.36456 L 59.542998,995.36454 L 47.542998,995.36454 L 47.449248,980.36456 M 61.542998,980.36456 L 73.636748,980.36456 L 71.605498,995.36454 L 61.542998,995.36454 L 61.542998,980.36456" fill="#000000" fill-opacity="1" stroke="none"/>
	<path d="M 12.932331,1004.0915 C 19.325136999999998,1002.9098 25.422392000000002,1007.0194 28.829245,1012.1577 C 35.804427000000004,1019.6308 46.228262,1024.8238 56.619988,1022.9341 C 66.208162,1021.5306999999999 74.50519800000001,1016.0816 82.203459,1010.5337999999999 C 85.634098,1008.4197999999999 89.74900199999999,1006.7376999999999 93.834586,1007.7004999999999" fill="none" stroke="#000000" stroke-dasharray="none" stroke-linecap="butt" stroke-linejoin="miter" stroke-miterlimit="4" stroke-opacity="1" stroke-width="4"/>
	<path d="M 81.353378,998.22687 L 97.142852,998.22687 L 97.142852,1009.9562 L 81.353378,1009.9562 L 81.353378,998.22687" fill="#000000" fill-opacity="1" stroke="none"/>
</svg>
