<?xml version="1.0" ?>
<svg xmlns="http://www.w3.org/2000/svg" xmlns:ev="http://www.w3.org/2001/xml-events" xmlns:xlink="http://www.w3.org/1999/xlink" baseProfile="full" enable-background="new 0 0 100 91.406" height="549px" version="1.1" viewBox="0 0 100 91.406" width="600px" x="0px" xml:space="preserve" y="0px">
	<defs/>
	<path d="M 86.897,48.8 L 86.886,7.142 C 86.88799999999999,7.119000000000001 86.89,7.096 86.892,7.072 L 86.899,7.014 L 86.899,7.002 C 87.071,5.169 86.459,3.2739999999999996 85.057,1.8730000000000002 C 82.56,-0.6239999999999997 78.505,-0.6239999999999997 76.00800000000001,1.8730000000000002 C 75.90400000000001,1.9770000000000003 75.805,2.088 75.709,2.1980000000000004 L 75.696,2.1850000000000005 L 69.603,8.278 C 68.81099999999999,7.49 67.848,6.526000000000001 66.77499999999999,5.4350000000000005 C 64.47599999999998,3.0990000000000006 63.337999999999994,2.5450000000000004 60.892999999999994,3.0830000000000006 C 58.44799999999999,3.6220000000000008 55.507999999999996,6.275 55.507999999999996,6.275 L 63.964,14.731 L 65.327,16.094 L 73.78999999999999,24.556 C 73.78999999999999,24.556 76.443,21.617 76.982,19.171 C 77.52,16.726 76.961,15.581999999999999 74.625,13.283 C 73.937,12.606 73.299,11.972999999999999 72.724,11.399 L 74.828,9.293999999999999 L 78.702,5.419999999999998 L 78.728,5.4449999999999985 C 78.78099999999999,5.376999999999999 78.836,5.309999999999999 78.89999999999999,5.246999999999998 C 79.761,4.385999999999998 81.16099999999999,4.385999999999998 82.02199999999999,5.246999999999998 C 82.41199999999999,5.636999999999998 82.62299999999999,6.1389999999999985 82.65899999999999,6.648999999999998 L 82.65899999999999,7.018999999999998 L 82.65899999999999,48.8 L 50.0,48.8 L 0.0,48.8 C 0.0,48.8 0.601,50.91 6.407,73.28399999999999 C 8.704,82.13499999999999 10.594999999999999,81.87199999999999 15.517,81.91699999999999 L 18.932,81.91699999999999 L 18.919999999999998,81.94399999999999 C 18.924,81.94399999999999 18.927999999999997,81.94399999999999 18.932,81.94399999999999 L 17.328,91.40599999999999 L 22.401,91.40599999999999 L 24.42,81.91699999999999 L 75.578,81.91699999999999 L 77.59700000000001,91.40599999999999 L 82.67000000000002,91.40599999999999 L 81.06600000000002,81.94399999999999 C 81.07000000000002,81.94399999999999 81.07500000000002,81.94399999999999 81.07900000000002,81.94399999999999 L 81.06600000000002,81.91699999999999 L 84.48200000000001,81.91699999999999 C 89.40400000000001,81.87199999999999 91.29500000000002,82.13499999999999 93.59200000000001,73.28399999999999 C 99.398,50.91 100.0,48.8 100.0,48.8 L 86.897,48.8"/>
	<path d="M 52.094,8.162 L 47.5,10.691 L 49.756,12.947 L 54.184,10.29 L 52.094,8.162" points="52.094,8.162 47.5,10.691 49.756,12.947 54.184,10.29 "/>
	<path d="M 56.669,12.813 L 52.553,15.745 L 54.892,18.083 L 58.854,15.037 L 56.669,12.813" points="56.669,12.813 52.553,15.745 54.892,18.083 58.854,15.037 "/>
	<path d="M 60.817,17.025 L 57.345,20.536 L 59.53,22.722 L 63.021,19.268 L 60.817,17.025" points="60.817,17.025 57.345,20.536 59.53,22.722 63.021,19.268 "/>
	<path d="M 64.984,21.269 L 61.983,25.175 L 64.322,27.514 L 67.177,23.499 L 64.984,21.269" points="64.984,21.269 61.983,25.175 64.322,27.514 67.177,23.499 "/>
	<path d="M 69.681,26.042 L 67.119,30.311 L 69.464,32.656 L 71.904,28.304 L 69.681,26.042" points="69.681,26.042 67.119,30.311 69.464,32.656 71.904,28.304 "/>
	<path d="M 44.396,12.405 L 39.483,15.114 L 41.981,17.611 L 46.741,14.75 L 44.396,12.405" points="44.396,12.405 39.483,15.114 41.981,17.611 46.741,14.75 "/>
	<path d="M 49.736,17.745 L 45.282,20.912 L 47.844,23.474 L 52.164,20.173 L 49.736,17.745" points="49.736,17.745 45.282,20.912 47.844,23.474 52.164,20.173 "/>
	<path d="M 54.942,22.951 L 51.15,26.781 L 53.285,28.916 L 57.115,25.124 L 54.942,22.951" points="54.942,22.951 51.15,26.781 53.285,28.916 57.115,25.124 "/>
	<path d="M 59.894,27.902 L 56.593,32.223 L 59.154,34.784 L 62.321,30.33 L 59.894,27.902" points="59.894,27.902 56.593,32.223 59.154,34.784 62.321,30.33 "/>
	<path d="M 65.315,33.325 L 62.455,38.085 L 64.997,40.627 L 67.737,35.746 L 65.315,33.325" points="65.315,33.325 62.455,38.085 64.997,40.627 67.737,35.746 "/>
	<path d="M 36.374,16.821 L 32.538,18.937 L 35.253,21.651 L 38.974,19.421 L 36.374,16.821" points="36.374,16.821 32.538,18.937 35.253,21.651 38.974,19.421 "/>
	<path d="M 42.473,22.919 L 38.993,25.392 L 41.746,28.145 L 45.116,25.564 L 42.473,22.919" points="42.473,22.919 38.993,25.392 41.746,28.145 45.116,25.564 "/>
	<path d="M 48.755,29.202 L 45.792,32.191 L 47.876,34.274 L 50.864,31.312 L 48.755,29.202" points="48.755,29.202 45.792,32.191 47.876,34.274 50.864,31.312 "/>
	<path d="M 54.502,34.95 L 51.922,38.321 L 54.675,41.073 L 57.147,37.594 L 54.502,34.95" points="54.502,34.95 51.922,38.321 54.675,41.073 57.147,37.594 "/>
	<path d="M 60.646,41.092 L 58.415,44.814 L 61.13,47.528 L 63.271,43.718 L 60.646,41.092" points="60.646,41.092 58.415,44.814 61.13,47.528 63.271,43.718 "/>
</svg>
