<?xml version="1.0" ?>
<svg xmlns="http://www.w3.org/2000/svg" xmlns:ev="http://www.w3.org/2001/xml-events" xmlns:xlink="http://www.w3.org/1999/xlink" baseProfile="full" enable-background="new 0 0 100 58.947" height="354px" version="1.1" viewBox="0 0 100 58.947" width="600px" x="0px" xml:space="preserve" y="0px">
	<defs/>
	<path d="M 0.0,14.737 L 0.0,58.947 L 100.0,58.947 L 100.0,14.737000000000002 L 0.0,14.737000000000002 L 0.0,14.737 M 49.925,55.038 C 39.793,55.038 31.578999999999997,46.824 31.578999999999997,36.690999999999995 C 31.578999999999997,26.558999999999997 39.793,18.344999999999995 49.925,18.344999999999995 C 60.056999999999995,18.344999999999995 68.271,26.558999999999997 68.271,36.690999999999995 C 68.271,46.824 60.057,55.038 49.925,55.038"/>
	<path d="M 49.925,20.752 C 58.727999999999994,20.752 65.864,27.889 65.864,36.691 C 65.864,45.495000000000005 58.727000000000004,52.631 49.925000000000004,52.631 C 41.121,52.631 33.98500000000001,45.494 33.98500000000001,36.691 C 33.985,27.889 41.121,20.752 49.925,20.752"/>
	<path d="M 81.418,0.065 L 81.418,13.468 L 99.935,13.468 L 99.935,0.065 L 81.418,0.065 M 97.96,11.494 L 83.393,11.494 L 83.393,2.04 L 97.96,2.04 L 97.96,11.494"/>
	<path d="M 23.374,0.065 L 23.374,13.468 L 50.611999999999995,13.468 L 50.611999999999995,0.065 L 23.374,0.065 M 48.637,11.494 L 25.348,11.494 L 25.348,2.04 L 48.637,2.04 L 48.637,11.494"/>
	<path d="M 0.0,0.0 L 21.353,0.0 L 21.353,13.534 L 0.0,13.534 L 0.0,0.0" height="13.534" width="21.353"/>
	<path d="M 52.632,0.0 L 79.699,0.0 L 79.699,13.534 L 52.632,13.534 L 52.632,0.0" height="13.534" width="27.067" x="52.632"/>
</svg>
