<?xml version="1.0" ?>
<svg xmlns="http://www.w3.org/2000/svg" xmlns:ev="http://www.w3.org/2001/xml-events" xmlns:xlink="http://www.w3.org/1999/xlink" baseProfile="full" enable-background="new 0 0 100.001 92.252" height="554px" version="1.1" viewBox="0 0 100.001 92.252" width="600px" x="0px" xml:space="preserve" y="0px">
	<defs/>
	<path d="M 74.312,15.335 C 78.559,15.335 81.986,11.897 81.986,7.673000000000001 C 81.985,3.438 78.559,0.0 74.312,0.0 C 70.089,0.0 66.64999999999999,3.438 66.64999999999999,7.673 C 66.649,11.896 70.089,15.335 74.312,15.335"/>
	<path d="M 99.987,71.753 C 99.19,70.16 97.28399999999999,70.739 97.28399999999999,70.739 C 93.90499999999999,74.021 88.13799999999999,73.71900000000001 88.13799999999999,73.71900000000001 L 84.99,73.71900000000001 L 92.50699999999999,39.025000000000006 L 94.317,39.321000000000005 L 95.11399999999999,34.33800000000001 L 91.83299999999998,33.44500000000001 L 63.862,13.839 C 63.862,13.839 61.184000000000005,11.764 58.094,14.152000000000001 L 37.004000000000005,26.194000000000003 L 27.448000000000008,40.106 L 28.316000000000006,40.649 L 9.17,72.549 L 6.673,71.04100000000001 L 5.515000000000001,72.89900000000002 L 8.036000000000001,74.43100000000001 L 6.455000000000002,77.061 L 8.591000000000001,78.352 L 10.171000000000001,75.72200000000001 L 12.73,77.26700000000001 L 13.888,75.409 L 11.306000000000001,73.84 L 30.442,41.976 L 31.142,42.411 L 42.484,30.261000000000003 L 52.136,25.785000000000004 C 52.136,25.785000000000004 45.572,35.63 42.181000000000004,49.156000000000006 L 35.665,73.72 L 31.442,73.72 L 29.85,77.42399999999999 L 34.688,77.42399999999999 L 33.215,82.97399999999999 L 1.593,82.97399999999999 L 0.0,86.666 L 62.173,86.666 C 70.837,86.377 70.137,80.983 70.137,80.983 C 69.341,79.402 67.458,79.994 67.458,79.994 C 64.067,83.287 58.3,82.973 58.3,82.973 L 38.96,82.973 L 41.349000000000004,77.423 L 81.66,77.423 L 79.56,87.136 L 76.652,86.485 L 76.146,88.632 L 79.089,89.295 L 78.559,91.733 L 80.972,92.25200000000001 L 81.491,89.83900000000001 L 84.375,90.47900000000001 L 84.882,88.33200000000001 L 81.962,87.68100000000001 L 84.182,77.42500000000001 L 92.025,77.42500000000001 C 100.687,77.11 99.987,71.753 99.987,71.753 M 42.953,73.72 L 52.931000000000004,50.650999999999996 L 65.35900000000001,55.730999999999995 L 66.50500000000001,73.72 L 42.953,73.72 M 82.456,73.72 L 71.898,73.72 L 73.92399999999999,52.545 L 58.192,41.203 C 58.192,41.203 57.71,40.504000000000005 58.504,40.105000000000004 L 70.932,28.775000000000006 L 90.129,38.27100000000001 L 82.456,73.72"/>
</svg>
