<?xml version="1.0" ?>
<svg xmlns="http://www.w3.org/2000/svg" xmlns:ev="http://www.w3.org/2001/xml-events" xmlns:xlink="http://www.w3.org/1999/xlink" baseProfile="full" enable-background="new 0 0 91.969 100" height="600px" version="1.1" viewBox="0 0 91.969 100" width="552px" x="0px" xml:space="preserve" y="0px">
	<defs/>
	<path d="M 1.783,9.116 C 2.966,7.848 4.2829999999999995,7.215 5.7330000000000005,7.215 C 7.171,7.215 8.531,7.849 9.806000000000001,9.116 C 11.080000000000002,10.384 11.722000000000001,12.286999999999999 11.722000000000001,14.822 L 11.722000000000001,36.504 C 10.201,36.671 8.764000000000001,37.308 7.412000000000002,38.405 C 6.059000000000002,39.505 5.383000000000002,40.765 5.383000000000002,42.202 C 5.383000000000002,43.302 5.679000000000002,44.266 6.269000000000002,45.111999999999995 L 13.525000000000002,57.13499999999999 L 13.525000000000002,55.87299999999999 L 6.805,44.775 C 6.213,44.021 5.917,43.224 5.917,42.379999999999995 C 5.917,41.626 6.129,40.934999999999995 6.55,40.300999999999995 C 6.973,39.666999999999994 7.523,39.102999999999994 8.198,38.59499999999999 C 8.875,38.08899999999999 9.615,37.69499999999999 10.417,37.398999999999994 C 11.221,37.102999999999994 11.961,36.95499999999999 12.637,36.95499999999999 C 13.982000000000001,36.95499999999999 15.122,37.56199999999999 16.053,38.75799999999999 L 33.108,62.09 C 34.285,63.779 35.143,65.809 35.693,68.173 C 36.242999999999995,70.541 36.516,72.69800000000001 36.516,74.642 L 36.516,100.0 L 15.328,100.0 L 15.328,76.922 C 15.328,75.738 15.052999999999999,74.642 14.511999999999999,73.625 C 13.961999999999998,72.611 13.566999999999998,71.937 13.320999999999998,71.596 C 10.304999999999998,67.285 7.895999999999998,63.824000000000005 6.093999999999998,61.202000000000005 C 4.289999999999997,58.57900000000001 2.9519999999999977,56.44500000000001 2.0719999999999974,54.79900000000001 C 1.1919999999999975,53.15200000000001 0.6269999999999973,51.79800000000001 0.37299999999999733,50.74000000000001 C 0.12,49.682 0.0,48.565 0.0,47.381 L 0.0,14.822 C 0.0,12.287 0.592,10.384 1.783,9.116 L 1.783,9.116"/>
	<path d="M 91.969,47.381 C 91.969,48.565 91.84299999999999,49.682 91.597,50.74 C 91.35,51.798 90.78,53.151 89.877,54.799 C 88.976,56.445 87.658,58.579 85.939,61.202 C 84.219,63.823 81.881,67.285 78.937,71.596 C 78.606,71.937 78.218,72.61200000000001 77.767,73.625 C 77.318,74.642 77.091,75.738 77.091,76.922 L 77.091,100.0 L 55.903,100.0 L 55.903,74.642 C 55.903,72.699 56.171,70.541 56.719,68.173 C 57.269,65.809 58.128,63.779 59.312,62.09 L 76.119,38.758 C 77.051,37.562000000000005 78.225,36.955000000000005 79.663,36.955000000000005 C 81.101,36.955000000000005 82.55799999999999,37.525000000000006 84.03699999999999,38.659000000000006 C 85.51599999999999,39.793000000000006 86.25699999999999,41.159000000000006 86.25699999999999,42.760000000000005 C 86.25699999999999,43.60300000000001 86.04499999999999,44.27400000000001 85.62299999999999,44.775000000000006 L 78.77499999999999,55.87400000000001 L 78.77499999999999,57.13600000000001 L 86.023,45.113000000000014 C 86.277,44.689000000000014 86.446,44.289000000000016 86.53099999999999,43.90700000000001 C 86.615,43.52800000000001 86.657,43.125000000000014 86.657,42.70400000000001 C 86.657,41.10300000000001 86.023,39.71800000000001 84.756,38.534000000000006 C 83.489,37.35 82.136,36.672000000000004 80.69800000000001,36.50500000000001 L 80.69800000000001,14.822 C 80.69800000000001,12.286999999999999 81.283,10.384 82.453,9.116 C 83.622,7.848 84.911,7.215 86.333,7.215 C 87.75,7.215 89.04599999999999,7.849 90.216,9.116 C 91.38499999999999,10.384 91.969,12.286999999999999 91.969,14.822 L 91.969,47.381 L 91.969,47.381"/>
	<path d="M 26.599,36.053 L 26.599,12.724 L 45.989,24.262 L 45.984,47.127 L 26.599,36.053 L 26.599,36.053" points="26.599,36.053 26.599,12.724 45.989,24.262 45.984,47.127 26.599,36.053 "/>
	<path d="M 65.889,36.053 L 46.503,47.127 L 46.499,24.262 L 65.889,12.724 L 65.889,36.053 L 65.889,36.053" points="65.889,36.053 46.503,47.127 46.499,24.262 65.889,12.724 65.889,36.053 "/>
	<path d="M 46.273,0.0 L 65.603,11.666 L 46.273,23.332 L 26.817,11.666 L 46.273,0.0 L 46.273,0.0" points="46.273,0 65.603,11.666 46.273,23.332 26.817,11.666 46.273,0 "/>
</svg>
