<?xml version="1.0" ?>
<svg xmlns="http://www.w3.org/2000/svg" xmlns:ev="http://www.w3.org/2001/xml-events" xmlns:xlink="http://www.w3.org/1999/xlink" baseProfile="full" enable-background="new 0 0 100 71.444" height="429px" version="1.1" viewBox="0 0 100 71.444" width="600px" x="0px" xml:space="preserve" y="0px">
	<defs/>
	<path d="M 95.587,53.593 L 53.456,28.725 L 53.456,24.49 C 53.456,19.689999999999998 48.219,17.604 48.219,17.604 C 44.829,15.953 45.133,12.389999999999999 45.133,12.389999999999999 C 45.133,8.207999999999998 48.878,6.865999999999999 50.547000000000004,6.865999999999999 C 53.351000000000006,6.865999999999999 56.1,8.421 56.391000000000005,11.975999999999999 C 56.845000000000006,17.555 63.163000000000004,16.136 63.163000000000004,11.656999999999998 C 63.163,7.426 59.3,0.0 50.495,0.0 C 40.976,0.0 38.242999999999995,9.307 38.242999999999995,12.25 C 38.242999999999995,14.47 38.593999999999994,16.52 39.964,18.859 C 42.292,22.836000000000002 46.949999999999996,23.46 46.949999999999996,26.092000000000002 L 46.949999999999996,28.726000000000003 L 4.391,53.686 C 0.19099999999999984,56.165 -0.5670000000000002,61.44 0.3440000000000003,64.64 C 1.2290000000000003,67.744 4.343,71.445 9.948,71.445 L 9.959,71.445 C 9.959,71.445 82.227,71.445 89.515,71.445 C 95.789,71.445 98.652,67.847 99.534,64.741 C 100.444,61.543 100.444,56.584 95.587,53.593 M 89.615,64.463 L 10.073,64.463 C 7.484,64.564 5.884,60.937 8.444,59.336999999999996 L 49.938,35.108999999999995 L 91.214,59.232 C 93.776,61.045 92.387,64.455 89.615,64.463"/>
</svg>
