<?xml version="1.0" ?>
<svg xmlns="http://www.w3.org/2000/svg" xmlns:cc="http://creativecommons.org/ns#" xmlns:dc="http://purl.org/dc/elements/1.1/" xmlns:ev="http://www.w3.org/2001/xml-events" xmlns:inkscape="http://www.inkscape.org/namespaces/inkscape" xmlns:rdf="http://www.w3.org/1999/02/22-rdf-syntax-ns#" xmlns:sodipodi="http://sodipodi.sourceforge.net/DTD/sodipodi-0.dtd" xmlns:svg="http://www.w3.org/2000/svg" xmlns:xlink="http://www.w3.org/1999/xlink" baseProfile="full" enable-background="new 0 0 100 100" height="267px" version="1.1" viewBox="0 0 100 100" width="600px" x="0px" xml:space="preserve" y="0px">
	<defs/>
	<path d="M 50.0,70.455 L 62.121,56.819 L 69.523,63.529 L 73.96,52.997 L 95.885,64.622 L 76.428,35.825 L 61.904,39.981 L 55.736,37.384 L 55.736,29.7 L 52.489,33.596 L 50.0,32.947 L 47.511,33.596 L 44.265,29.7 L 44.265,37.384 L 38.096,39.981 L 23.573,35.825 L 4.115,64.622 L 26.041,52.997 L 30.478,63.529 L 37.88,56.819 L 50.0,70.455" fill="#000000" points="50,70.455 62.121,56.819 69.523,63.529 73.96,52.997 95.885,64.622 76.428,35.825   61.904,39.981 55.736,37.384 55.736,29.7 52.489,33.596 50,32.947 47.511,33.596 44.265,29.7 44.265,37.384 38.096,39.981   23.573,35.825 4.115,64.622 26.041,52.997 30.478,63.529 37.88,56.819 "/>
</svg>
