<?xml version="1.0" ?>
<svg xmlns="http://www.w3.org/2000/svg" xmlns:ev="http://www.w3.org/2001/xml-events" xmlns:xlink="http://www.w3.org/1999/xlink" baseProfile="full" enable-background="new 0 0 100 100" height="369px" version="1.1" viewBox="0 0 100 100" width="600px" x="0px" xml:space="preserve" y="0px">
	<defs/>
	<path d="M 66.666,43.922 L 64.698,43.922 L 64.698,41.952999999999996 C 64.698,40.282999999999994 63.343999999999994,38.928999999999995 61.67399999999999,38.928999999999995 L 56.602999999999994,38.928999999999995 C 54.93299999999999,38.928999999999995 53.577999999999996,40.282999999999994 53.577999999999996,41.952999999999996 L 53.577999999999996,43.922 L 51.608999999999995,43.922 C 49.937999999999995,43.922 48.583999999999996,45.276999999999994 48.583999999999996,46.946999999999996 L 48.583999999999996,52.01499999999999 C 48.583999999999996,53.684999999999995 49.937999999999995,55.038 51.608999999999995,55.038 L 53.577999999999996,55.038 L 53.577999999999996,57.01 C 53.577999999999996,58.68 54.93299999999999,60.033 56.602999999999994,60.033 L 61.67399999999999,60.033 C 63.343999999999994,60.033 64.698,58.679 64.698,57.01 L 64.698,55.038 L 66.666,55.038 C 68.336,55.038 69.69,53.684 69.69,52.01499999999999 L 69.69,46.946999999999996 C 69.69,45.277 68.336,43.922 66.666,43.922 M 66.666,52.016 L 61.674,52.016 L 61.674,57.010999999999996 L 56.603,57.010999999999996 L 56.603,52.016 L 51.609,52.016 L 51.609,46.948 L 56.603,46.948 L 56.603,41.954 L 61.674,41.954 L 61.674,46.948 L 66.666,46.948 L 66.666,52.016" fill="#000000"/>
	<path d="M 96.667,48.403 C 91.666,34.57 77.62100000000001,30.575999999999997 77.02600000000001,30.413 C 76.78300000000002,30.346 76.534,30.304 76.28500000000001,30.272000000000002 C 76.09500000000001,30.227 75.89800000000001,30.196 75.69300000000001,30.196 L 63.247,30.196 L 63.247,27.0 L 95.88499999999999,27.0 C 96.71999999999998,27.0 97.39899999999999,26.323 97.39899999999999,25.487000000000002 C 97.39899999999999,24.652 96.71999999999998,23.975 95.88499999999999,23.975 L 63.247,23.975 L 63.247,23.091 C 63.247,21.699 62.119,20.57 60.726,20.57 C 59.333999999999996,20.57 58.205,21.699 58.205,23.091 L 58.205,23.975 L 25.566,23.975 C 24.730999999999998,23.975 24.054,24.652 24.054,25.487000000000002 C 24.054,26.323 24.730999999999998,27.0 25.566,27.0 L 58.205,27.0 L 58.205,30.196 L 20.082,30.196 C 18.982,26.335 15.43,23.498 11.22,23.498 C 6.1370000000000005,23.498 2.0,27.633000000000003 2.0,32.716 C 2.0,37.801 6.137,41.936 11.22,41.936 C 15.43,41.936 18.982,39.099 20.082,35.238 L 27.667,35.238 L 42.701,60.838 C 42.746,60.914 42.795,60.993 42.845,61.067 C 46.186,66.112 50.077999999999996,68.362 55.704,68.549 L 55.704,74.388 L 45.494,74.388 C 44.102,74.388 42.973,75.519 42.973,76.91000000000001 C 42.973,78.30100000000002 44.102,79.43 45.494,79.43 L 85.36,79.43 C 85.813,79.43 86.256,79.31 86.646,79.078 C 86.854,78.955 88.747,77.792 90.926,75.129 C 91.807,74.051 91.647,72.46300000000001 90.571,71.581 C 89.493,70.702 87.905,70.857 87.023,71.938 C 86.006,73.18 85.09299999999999,73.974 84.562,74.387 L 81.79299999999999,74.387 L 81.79299999999999,68.586 L 91.92699999999999,68.586 C 94.10499999999999,68.586 96.038,67.18599999999999 96.717,65.114 C 97.009,64.227 99.482,56.199 96.667,48.403 M 11.22,35.237 L 16.867,35.237 C 15.899000000000001,37.397000000000006 13.737000000000002,38.911 11.22,38.911 C 7.804,38.911 5.025,36.132000000000005 5.025,32.716 C 5.025,29.302 7.804,26.523000000000003 11.22,26.523000000000003 C 13.737,26.523000000000003 15.899000000000001,28.037000000000003 16.868000000000002,30.197000000000003 L 11.22,30.197000000000003 C 9.828000000000001,30.197000000000003 8.699000000000002,31.325000000000003 8.699000000000002,32.717000000000006 C 8.699,34.109 9.828,35.237 11.22,35.237 M 76.751,74.387 L 60.743,74.387 L 60.743,68.586 L 76.751,68.586 L 76.751,74.387 M 91.926,63.544 L 56.457,63.544 C 52.004,63.544 49.566,62.084999999999994 47.047,58.282 L 33.519,35.261 L 75.693,35.276 C 75.693,35.276 78.626,36.086000000000006 82.096,38.28 L 74.986,38.28 C 74.15100000000001,38.28 73.474,38.959 73.474,39.794000000000004 L 73.474,59.51 C 73.474,60.345 74.15100000000001,61.022 74.986,61.022 L 92.52600000000001,61.022 C 92.243,62.571 91.926,63.544 91.926,63.544 M 92.896,57.998 L 76.499,57.998 L 76.499,55.61 L 87.074,55.61 C 87.90899999999999,55.61 88.587,54.933 88.587,54.098 C 88.587,53.26 87.909,52.583 87.074,52.583 L 76.499,52.583 L 76.499,41.305 L 86.023,41.305 C 88.36699999999999,43.488 90.566,46.359 91.925,50.116 C 92.221,50.936 92.42,51.762 92.578,52.585 L 91.946,52.585 C 91.111,52.585 90.43299999999999,53.262 90.43299999999999,54.1 C 90.43299999999999,54.935 91.11099999999999,55.612 91.946,55.612 L 92.91499999999999,55.612 C 92.945,56.437 92.943,57.245 92.896,57.998" fill="#000000"/>
</svg>
