<?xml version="1.0" ?>
<svg xmlns="http://www.w3.org/2000/svg" xmlns:cc="http://creativecommons.org/ns#" xmlns:dc="http://purl.org/dc/elements/1.1/" xmlns:ev="http://www.w3.org/2001/xml-events" xmlns:inkscape="http://www.inkscape.org/namespaces/inkscape" xmlns:rdf="http://www.w3.org/1999/02/22-rdf-syntax-ns#" xmlns:sodipodi="http://sodipodi.sourceforge.net/DTD/sodipodi-0.dtd" xmlns:svg="http://www.w3.org/2000/svg" xmlns:xlink="http://www.w3.org/1999/xlink" baseProfile="full" height="600px" version="1.1" viewBox="0 0 80 80" width="600px" x="0px" y="0px">
	<defs/>
	<path d="M 38.374608,1.7815159 C 30.073148000000003,1.8401159 21.829875,4.8678759 15.459518000000003,10.192716 C 11.719816000000003,13.317496 8.569931900000004,17.170146000000003 6.298501900000003,21.487116 C 3.5501979000000032,26.808036 2.0066286000000035,32.794066 2.1446716000000032,38.805195999999995 L 39.177765,38.805195999999995 L 39.177765,1.784655899999997 C 38.909915,1.780655899999997 38.642396,1.7796558999999972 38.374608,1.7816558999999972 L 38.374608,1.7815159 M 38.550298000000005,2.3995759000000003 L 38.550298000000005,38.177736 L 2.7721386000000052,38.177736 C 2.734488600000005,33.170546 3.926677900000005,28.213556000000004 5.947120900000005,23.658146000000002 C 10.69077,13.066506 20.805536,5.0223859 32.263081,3.0144859 C 34.333721,2.6505559 36.442009999999996,2.4121259 38.550298,2.3995759 L 38.550298000000005,2.3995759000000003 M 41.398998000000006,4.153345900000001 C 41.24408100000001,4.1529559 41.089578,4.1553459 40.934672000000006,4.156345900000001 C 40.92212200000001,16.329206 40.947222000000004,28.514616 40.934672000000006,40.687466 C 28.749266000000006,40.700066 16.576409000000005,40.674966 4.403552900000008,40.687466 C 4.416102900000008,45.707206 5.3196539000000085,50.752036000000004 7.327547900000008,55.357646 C 9.812316900000008,61.268386 13.928499000000008,66.488906 19.048629000000005,70.354106 C 25.687228000000005,75.411486 34.09528400000001,78.109596 42.44059300000001,77.733116 C 51.97808400000001,77.519776 61.32734400000001,73.303196 67.878094,66.37596599999999 C 70.852294,63.18843599999999 73.349614,59.51147599999999 75.056324,55.48313599999999 C 78.796024,46.89939599999999 78.98426400000001,36.87247599999999 75.721434,28.113035999999987 C 72.232714,18.688485999999987 64.703114,10.832595999999988 55.41660400000001,7.005045899999988 C 51.00355400000001,5.120685899999988 46.20143600000001,4.165355899999988 41.398998000000006,4.153215899999989 L 41.398998000000006,4.153345900000001" fill="#000000" stroke="#000000" stroke-width="0.011765"/>
</svg>
