<?xml version="1.0" ?>
<svg xmlns="http://www.w3.org/2000/svg" xmlns:ev="http://www.w3.org/2001/xml-events" xmlns:xlink="http://www.w3.org/1999/xlink" baseProfile="full" enable-background="new 0 0 100 54.805" height="330px" version="1.1" viewBox="0 0 100 54.805" width="600px" x="0px" xml:space="preserve" y="0px">
	<defs/>
	<path d="M 77.207,27.417 L 76.204,32.244 L 81.163,33.511 L 85.437,25.633000000000003 L 100.0,22.474 L 98.857,17.207 L 93.851,18.292 C 95.42399999999999,14.545000000000002 92.806,13.003000000000002 92.806,13.003000000000002 L 82.312,6.087 L 78.095,9.091999999999999 L 74.011,15.341999999999999 C 74.011,15.341999999999999 72.03699999999999,18.365 73.88499999999999,19.977999999999998 L 74.07699999999998,22.581999999999997 L 24.779,33.273 L 23.876,30.826000000000004 C 24.889000000000003,28.593000000000004 21.84,26.659000000000006 21.84,26.659000000000006 L 15.533999999999999,22.663000000000007 L 10.451999999999998,21.674000000000007 L 3.764,32.316 C 3.764,32.316 2.0169999999999995,34.804 5.003,37.562000000000005 L 0.0,38.648 L 1.142,43.917 L 15.703999999999999,40.759 L 22.858999999999998,46.157 L 26.848,42.949999999999996 L 23.935,38.971999999999994 L 77.207,27.417 M 20.043,34.301 L 14.454999999999998,31.622000000000003 L 15.833999999999998,27.355000000000004 L 21.444,29.998000000000005 L 22.811,33.7 L 20.043,34.301 M 78.814,21.554 L 76.04299999999999,22.156 L 75.75299999999999,18.218 L 79.76699999999998,13.49 L 82.78899999999999,16.8 L 78.814,21.554"/>
	<path d="M 49.999,33.319 L 44.807,37.859 L 44.807,54.804 L 50.0,54.804 L 55.193,54.804 L 55.193,37.859 L 49.999,33.319" points="49.999,33.319 44.807,37.859 44.807,54.804 50,54.804 55.193,54.804 55.193,37.859 "/>
	<path cx="14.466" cy="17.737" d="M 10.201999999999998,17.737 A 4.264,4.264 0.0 1,0 18.729999999999997,17.737 A 4.264,4.264 0.0 1,0 10.201999999999996,17.737" r="4.264"/>
	<path cx="77.027" cy="4.167" d="M 72.763,4.167 A 4.264000000000002,4.264000000000002 0.0 1,0 81.29100000000001,4.167 A 4.264000000000002,4.264000000000002 0.0 1,0 72.763,4.167" r="4.264"/>
</svg>
