<?xml version="1.0" ?>
<svg xmlns="http://www.w3.org/2000/svg" xmlns:ev="http://www.w3.org/2001/xml-events" xmlns:xlink="http://www.w3.org/1999/xlink" baseProfile="full" enable-background="new 0 0 100 100" height="570px" version="1.1" viewBox="0 0 100 100" width="600px" x="0px" xml:space="preserve" y="0px">
	<defs/>
	<path d="M 95.206,46.344 C 92.372,41.163000000000004 89.922,35.759 86.84,30.716 C 81.387,33.958 75.191,37.615 68.927,41.139 C 71.778,46.839000000000006 75.055,52.353 78.20400000000001,57.893 C 81.203,63.168 84.471,68.375 85.83300000000001,74.369 C 88.62500000000001,69.41 91.64800000000001,64.604 94.65800000000002,59.778 C 95.86800000000001,57.839999999999996 97.20000000000002,55.747 97.71700000000001,53.491 C 98.354,50.692 96.457,48.625 95.206,46.344 C 94.285,44.661 95.527,46.93 95.206,46.344"/>
	<path d="M 79.463,66.988 C 74.26599999999999,66.889 69.03699999999999,67.323 63.85699999999999,66.765 L 62.8,66.649 L 62.727999999999994,65.588 C 62.67399999999999,64.776 62.69,63.89999999999999 62.714999999999996,63.00899999999999 C 59.88399999999999,68.13499999999999 56.717999999999996,73.07499999999999 54.032,78.28399999999999 L 55.165,80.439 C 57.493,84.86999999999999 59.884,89.41499999999999 62.447,93.738 C 62.441,92.15 62.49,90.505 62.743,89.01 L 62.948,87.804 L 64.16,87.959 C 69.134,88.602 75.202,88.531 79.285,85.159 C 81.451,83.37100000000001 82.6,80.77000000000001 82.883,78.01100000000001 C 83.317,73.777 81.253,70.62 79.463,66.988 C 77.682,66.955 79.792,67.656 79.463,66.988"/>
	<path d="M 29.599,88.271 C 35.504,88.394 41.41,88.959 47.318,88.795 C 47.222,82.452 47.134,75.258 47.196,68.071 C 40.833,67.706 34.42,67.80199999999999 28.046999999999997,67.776 C 21.979,67.75099999999999 15.836999999999996,67.99199999999999 9.959999999999997,66.189 C 12.871999999999996,71.08099999999999 15.533999999999997,76.094 18.220999999999997,81.107 C 19.299999999999997,83.123 20.450999999999997,85.319 22.150999999999996,86.89 C 24.261,88.837 26.998,88.221 29.599,88.271 C 31.517,88.311 28.931,88.259 29.599,88.271"/>
	<path d="M 19.533,64.341 C 22.206000000000003,59.88199999999999 24.432000000000002,55.13199999999999 27.495,50.916 L 28.122,50.059 L 29.078,50.524 C 29.808,50.881 30.561,51.332 31.320999999999998,51.796 C 28.284999999999997,46.79 25.576999999999998,41.583 22.395999999999997,36.661 L 19.962999999999997,36.571 C 14.960999999999999,36.384 9.828999999999997,36.195 4.802999999999997,36.265 C 6.182999999999997,37.051 7.585999999999997,37.912 8.755999999999997,38.876 L 9.7,39.654 L 8.962,40.628 C 5.928,44.622 2.968,49.919 3.86,55.14 C 4.332,57.909 6.016,60.2 8.269,61.819 C 11.726,64.304 15.491,64.085 19.533,64.341 C 20.448,62.812 18.789,64.293 19.533,64.341"/>
	<path d="M 26.691,10.743 C 23.628999999999998,15.794 20.185,20.625 17.369,25.82 C 22.91,28.912 29.182000000000002,32.435 35.373000000000005,36.086 C 38.873000000000005,30.759999999999998 41.998000000000005,25.159999999999997 45.211000000000006,19.656 C 48.27100000000001,14.415 51.13400000000001,8.975999999999999 55.638000000000005,4.790999999999999 C 49.944,4.863999999999999 44.272000000000006,4.658999999999999 38.587,4.4769999999999985 C 36.30200000000001,4.401999999999998 33.825,4.300999999999998 31.613000000000003,4.9849999999999985 C 28.873,5.838 28.035,8.516 26.691,10.743 C 25.696,12.384 27.035,10.172 26.691,10.743"/>
	<path d="M 52.445,14.004 C 54.968,18.549 57.966,22.854 60.085,27.615000000000002 L 60.513,28.586000000000002 L 59.631,29.183000000000003 C 58.958,29.636000000000003 58.19,30.062000000000005 57.409,30.486000000000004 C 63.262,30.363000000000003 69.125,30.625000000000004 74.979,30.334000000000003 L 76.274,28.273000000000003 C 78.93900000000001,24.035000000000004 81.67,19.687000000000005 84.124,15.301000000000004 C 82.75399999999999,16.103000000000005 81.30499999999999,16.887000000000004 79.88499999999999,17.418000000000003 L 78.74099999999999,17.845000000000002 L 78.26499999999999,16.719 C 76.32499999999999,12.094000000000001 73.22099999999999,6.880000000000001 68.25399999999999,5.040000000000001 C 65.621,4.063000000000001 62.79599999999999,4.3740000000000006 60.26599999999999,5.515000000000001 C 56.384,7.263 54.688,10.633 52.445,14.004 C 53.311,15.562 52.859,13.383 52.445,14.004"/>
</svg>
