<?xml version="1.0" ?>
<svg xmlns="http://www.w3.org/2000/svg" xmlns:ev="http://www.w3.org/2001/xml-events" xmlns:xlink="http://www.w3.org/1999/xlink" baseProfile="full" enable-background="new 0 0 91.852 100" height="580px" version="1.1" viewBox="0 0 91.852 100" width="600px" x="0px" xml:space="preserve" y="0px">
	<defs/>
	<path d="M 32.795,25.579 C 28.799000000000003,25.579 25.563000000000002,22.324 25.563000000000002,18.329 C 25.563000000000002,14.332 28.799000000000003,11.097000000000001 32.795,11.097000000000001 C 36.791000000000004,11.097000000000001 40.045,14.332 40.045,18.329 C 40.045,22.324 36.79,25.579 32.795,25.579"/>
	<path d="M 62.094,30.88 C 60.752,30.802 59.543,31.227 58.793,31.933 L 58.793,31.912 L 57.076,33.524 L 58.555,35.128 C 58.585,35.17 58.623,35.207 58.659,35.244 L 58.763,35.359 L 58.763,35.351 C 59.449,36.049 60.518,36.541 61.760999999999996,36.615 C 63.931999999999995,36.74 65.773,35.557 65.86399999999999,33.975 C 65.956,32.393 64.266,31.005 62.094,30.88"/>
	<path d="M 69.198,58.729 C 69.23299999999999,60.123 69.8,61.339999999999996 70.631,62.06 L 70.606,62.06 L 72.505,63.702000000000005 L 74.118,62.026 C 74.158,61.99400000000001 74.196,61.95 74.234,61.914 L 74.344,61.795 L 74.33999999999999,61.797000000000004 C 75.03499999999998,61.026 75.47599999999998,59.87500000000001 75.44599999999998,58.57900000000001 C 75.38899999999998,56.31900000000001 73.94799999999998,54.51800000000001 72.22099999999999,54.55500000000001 C 70.5,54.599 69.148,56.467 69.198,58.729"/>
	<path d="M 4.657,59.601 C 3.319,59.689 2.168,60.256 1.5100000000000002,61.048 L 1.5070000000000003,61.027 L 0.0,62.84 L 1.668,64.253 C 1.702,64.289 1.7449999999999999,64.319 1.783,64.354 L 1.9,64.452 L 1.897,64.448 C 2.665,65.05499999999999 3.7889999999999997,65.413 5.03,65.335 C 7.2,65.19 8.879000000000001,63.79299999999999 8.777000000000001,62.21099999999999 C 8.674,60.629 6.83,59.462 4.657,59.601"/>
	<path d="M 64.0,24.563 C 63.033,24.057 61.884,23.921 61.092,24.195 L 61.099,24.18 L 59.287,24.801 L 59.849,26.488999999999997 C 59.86,26.528 59.873999999999995,26.566999999999997 59.888999999999996,26.605999999999998 L 59.92699999999999,26.726999999999997 L 59.92699999999999,26.720999999999997 C 60.202999999999996,27.466999999999995 60.831999999999994,28.188999999999997 61.73199999999999,28.658999999999995 C 63.29899999999999,29.476999999999997 65.056,29.213999999999995 65.654,28.071999999999996 C 66.25,26.929 65.568,25.382 64.0,24.563"/>
	<path d="M 76.55,36.343 C 75.582,35.837 74.541,35.74700000000001 73.75099999999999,36.02 L 73.75599999999999,36.005 L 71.94699999999999,36.626000000000005 L 72.508,38.31400000000001 C 72.51599999999999,38.35300000000001 72.53,38.391000000000005 72.54599999999999,38.431000000000004 L 72.583,38.55200000000001 L 72.583,38.54600000000001 C 72.86,39.29200000000001 73.489,40.01400000000001 74.388,40.48400000000001 C 75.956,41.30300000000001 77.71300000000001,41.03800000000001 78.311,39.897000000000006 C 78.909,38.753 78.118,37.161 76.55,36.343"/>
	<path d="M 65.218,20.769 C 65.163,19.808999999999997 65.47,18.939 65.976,18.403999999999996 L 65.959,18.403999999999996 L 67.117,17.176999999999996 L 68.266,18.238999999999997 C 68.29400000000001,18.258999999999997 68.32000000000001,18.285999999999998 68.348,18.313 L 68.429,18.387999999999998 L 68.426,18.383999999999997 C 68.922,18.878999999999998 69.276,19.644 69.324,20.535999999999998 C 69.41199999999999,22.092 68.565,23.407999999999998 67.431,23.470999999999997 C 66.295,23.537 65.306,22.325 65.218,20.769"/>
	<path d="M 78.092,32.961 C 78.042,32.083 78.325,31.287 78.78699999999999,30.794999999999998 L 78.773,30.794999999999998 L 79.833,29.671 L 80.885,30.645 C 80.912,30.663999999999998 80.93400000000001,30.689 80.95700000000001,30.714 L 81.03500000000001,30.781 L 81.02900000000001,30.779 C 81.486,31.231 81.81000000000002,31.932 81.85300000000001,32.749 C 81.933,34.173 81.159,35.378 80.12100000000001,35.436 C 79.08,35.496 78.174,34.387 78.092,32.961"/>
	<path d="M 88.588,36.331 C 89.467,36.29600000000001 90.258,36.588 90.744,37.058 L 90.744,37.044 L 91.852,38.119 L 90.86500000000001,39.159 C 90.84500000000001,39.185 90.819,39.207 90.796,39.231 L 90.72600000000001,39.306000000000004 L 90.73000000000002,39.300000000000004 C 90.27100000000002,39.752 89.56500000000001,40.06400000000001 88.74900000000002,40.097 C 87.32100000000003,40.158 86.12900000000002,39.364000000000004 86.08500000000002,38.326 C 86.039,37.284 87.163,36.394 88.588,36.331"/>
	<path d="M 84.137,30.591 C 84.69,29.907 85.433,29.508000000000003 86.106,29.451 L 86.097,29.444 L 87.634,29.322 L 87.764,30.747999999999998 C 87.76899999999999,30.779999999999998 87.76899999999999,30.816 87.771,30.848999999999997 L 87.783,30.950999999999997 L 87.779,30.945999999999998 C 87.816,31.589999999999996 87.583,32.324999999999996 87.072,32.96 C 86.176,34.072 84.79,34.442 83.979,33.79 C 83.168,33.136 83.241,31.703 84.137,30.591"/>
	<path d="M 75.709,19.937 C 75.655,18.978 75.962,18.107 76.468,17.573 L 76.452,17.573 L 77.608,16.346 L 78.759,17.408 C 78.787,17.429000000000002 78.812,17.456 78.839,17.483 L 78.92099999999999,17.557000000000002 L 78.91699999999999,17.554000000000002 C 79.41499999999999,18.047 79.76899999999999,18.814000000000004 79.817,19.705000000000002 C 79.90299999999999,21.261000000000003 79.05499999999999,22.578000000000003 77.922,22.641000000000002 C 76.787,22.705 75.799,21.493 75.709,19.937"/>
	<path d="M 63.98,55.882 C 63.32,56.579 62.992,57.443999999999996 63.032,58.181 L 63.020999999999994,58.169 L 63.11299999999999,59.854 L 64.675,59.784 C 64.71,59.784 64.749,59.782 64.785,59.775999999999996 L 64.896,59.775999999999996 L 64.89,59.772 C 65.591,59.714999999999996 66.356,59.36 66.968,58.71 C 68.036,57.578 68.239,56.026 67.415,55.246 C 66.589,54.467 65.051,54.75 63.98,55.882"/>
	<path d="M 80.929,55.293 C 81.762,55.771 82.678,55.882 83.382,55.671 L 83.375,55.683 L 84.989,55.191 L 84.55000000000001,53.693000000000005 C 84.54500000000002,53.659000000000006 84.53200000000001,53.623000000000005 84.52100000000002,53.587 L 84.48900000000002,53.479000000000006 L 84.48900000000002,53.48700000000001 C 84.26900000000002,52.82000000000001 83.74300000000002,52.16100000000001 82.96600000000002,51.72100000000001 C 81.61100000000002,50.95200000000001 80.05600000000003,51.12400000000001 79.49600000000002,52.110000000000014 C 78.928,53.1 79.577,54.526 80.929,55.293"/>
	<path d="M 11.827,56.231 C 11.12,55.578 10.254,55.262 9.517,55.31 L 9.527,55.298 L 7.845999999999999,55.414 L 7.932999999999999,56.976 C 7.931999999999999,57.012 7.937999999999999,57.047 7.939999999999999,57.085 L 7.943999999999998,57.195 L 7.943999999999998,57.19 C 8.010999999999997,57.891 8.378999999999998,58.649 9.032999999999998,59.253 C 10.177999999999997,60.309 11.731999999999998,60.493 12.500999999999998,59.659 C 13.278,58.822 12.971,57.288 11.827,56.231"/>
	<path d="M 17.343,68.253 C 18.304,68.237 19.151,67.867 19.648,67.322 L 19.651,67.339 L 20.79,66.095 L 19.648,65.026 C 19.625,65.002 19.595,64.97699999999999 19.567,64.952 L 19.488,64.876 L 19.49,64.88000000000001 C 18.962,64.41900000000001 18.169999999999998,64.12400000000001 17.278,64.14000000000001 C 15.721999999999998,64.16200000000002 14.468999999999998,65.10500000000002 14.488999999999999,66.23900000000002 C 14.505,67.377 15.785,68.275 17.343,68.253"/>
	<path d="M 86.403,41.115 C 87.176,41.688 87.64500000000001,42.481 87.735,43.212 L 87.744,43.2 L 87.945,44.876000000000005 L 86.39299999999999,45.077000000000005 C 86.35899999999998,45.086000000000006 86.32099999999998,45.086000000000006 86.28499999999998,45.09100000000001 L 86.17299999999999,45.10800000000001 L 86.17999999999999,45.10700000000001 C 85.47999999999999,45.17200000000001 84.66699999999999,44.95300000000001 83.951,44.41900000000001 C 82.69999999999999,43.49000000000001 82.23299999999999,41.99600000000001 82.91199999999999,41.08500000000001 C 83.588,40.172 85.151,40.185 86.403,41.115"/>
	<path d="M 5.232,68.513 C 5.219,68.511 5.219,68.513 5.232,68.513 L 5.232,68.513"/>
	<path d="M 23.304,50.564 L 20.616999999999997,53.253 L 20.616999999999997,37.059 L 23.301999999999996,37.059 L 23.302999999999997,37.062999999999995 C 23.302999999999997,37.062999999999995 24.023999999999997,35.37199999999999 24.349999999999998,32.739999999999995 C 24.724999999999998,29.720999999999997 24.386999999999997,27.981999999999996 24.070999999999998,27.084999999999994 C 18.583,27.220999999999993 14.948999999999998,31.862999999999992 14.948999999999998,36.590999999999994 L 14.948999999999998,58.907 L 5.5859999999999985,68.27199999999999 C 5.381999999999999,68.475 5.265999999999998,68.50699999999999 5.230999999999998,68.511 C 5.265999999999998,68.51299999999999 5.381999999999998,68.54299999999999 5.5859999999999985,68.746 C 6.070999999999999,69.232 6.875999999999999,69.255 7.360999999999999,68.746 L 11.933,64.12899999999999 L 11.933,68.442 L 6.7059999999999995,73.714 C 6.409999999999999,74.011 6.409999999999999,74.474 6.7059999999999995,74.77 C 7.0009999999999994,75.071 7.486999999999999,75.071 7.784999999999999,74.77 L 11.933,70.55799999999999 L 11.954,81.48499999999999 C 11.954,81.84299999999999 11.831000000000001,82.72099999999999 12.075000000000001,82.72099999999999 C 12.456000000000001,82.72099999999999 12.751000000000001,82.42299999999999 12.751000000000001,82.06199999999998 L 12.73,76.52399999999999 L 15.563,79.35599999999998 C 15.752,79.54899999999998 16.069,79.54899999999998 16.261,79.35599999999998 C 16.45,79.16599999999998 16.45,78.84999999999998 16.261,78.66099999999999 L 13.405999999999999,75.78299999999999 L 13.405999999999999,62.724 L 15.600999999999999,60.525 C 16.99,62.754 20.616999999999997,62.254 20.616999999999997,58.707 L 20.616999999999997,55.507 L 23.304,52.812 L 23.304,50.564"/>
	<path d="M 33.259,34.668 L 38.528999999999996,27.121 C 38.248,27.093999999999998 37.962999999999994,27.078999999999997 37.675999999999995,27.078999999999997 L 26.671,27.078999999999997 L 32.214,34.668 L 32.214,41.243 L 23.304,41.243 L 23.305,44.283 L 32.213,44.283 L 32.213,46.004000000000005 L 23.305,46.004000000000005 L 23.306,49.045 L 32.213,49.045 L 32.213,53.050000000000004 L 23.306,53.07000000000001 L 23.322,95.76700000000001 C 23.322,98.00800000000001 25.14,99.82600000000001 27.381999999999998,99.82600000000001 C 29.622999999999998,99.82600000000001 31.441,98.00900000000001 31.441,95.76700000000001 L 31.441,61.729 L 34.147999999999996,61.729 L 34.147999999999996,95.767 C 34.147999999999996,98.008 35.964999999999996,99.826 38.205999999999996,99.826 C 40.446,99.826 42.266999999999996,98.009 42.266999999999996,95.767 L 42.266999999999996,53.069 L 33.259,53.049 L 33.259,49.044 L 42.266999999999996,49.044 L 42.266999999999996,46.003 L 33.259,46.003 L 33.259,44.282 L 42.266999999999996,44.282 L 42.266999999999996,41.242 L 33.259,41.242 L 33.259,34.668"/>
	<path d="M 86.373,35.301 C 86.063,34.836 85.73400000000001,35.128 85.33800000000001,35.388000000000005 L 80.66900000000001,40.06 L 80.70400000000001,36.924 C 80.70400000000001,36.608 80.429,36.331 80.11300000000001,36.331 C 79.77400000000002,36.331 79.51900000000002,36.607000000000006 79.51900000000002,36.92400000000001 L 79.51900000000002,40.825 L 69.78,50.843 C 69.809,50.615 69.82600000000001,50.383 69.812,50.14 C 69.762,49.248 69.40899999999999,48.483000000000004 68.91199999999999,47.989000000000004 L 68.91499999999999,47.99 L 68.833,47.918 C 68.807,47.891 68.78,47.862 68.753,47.842999999999996 L 67.603,46.781 L 66.44699999999999,48.007 L 66.46099999999998,48.007 C 65.95599999999999,48.543 65.64899999999999,49.414 65.70499999999998,50.373 C 65.72699999999999,50.762 65.80599999999998,51.129 65.92899999999999,51.461 L 56.86499999999999,51.461 C 56.86499999999999,51.461 60.353999999999985,48.047 62.83999999999999,45.559 L 65.67599999999999,45.559 C 67.21699999999998,45.559 68.58899999999998,44.311 68.59499999999998,42.788999999999994 C 68.60099999999998,41.446999999999996 67.64999999999999,41.175999999999995 67.49099999999999,40.82599999999999 C 68.26199999999999,40.04299999999999 68.01899999999999,40.358999999999995 68.14399999999999,40.230999999999995 C 68.73799999999999,39.66 68.75699999999999,38.72899999999999 68.75699999999999,38.72899999999999 L 68.75699999999999,33.54999999999999 L 76.70599999999999,27.25099999999999 L 83.30199999999999,27.257999999999992 C 83.61999999999999,27.257999999999992 83.847,27.23399999999999 83.847,26.914999999999992 C 83.847,26.621999999999993 83.976,26.42899999999999 83.27499999999999,26.32399999999999 L 77.96799999999999,26.32399999999999 L 83.371,21.943999999999992 C 83.666,21.64699999999999 83.70899999999999,21.203999999999994 83.41199999999999,20.90799999999999 C 83.11599999999999,20.61199999999999 82.62899999999999,20.61199999999999 82.335,20.90799999999999 L 74.40599999999999,27.25099999999999 L 74.40599999999999,18.28599999999999 C 74.40599999999999,17.88499999999999 74.33,17.72799999999999 73.92899999999999,17.72799999999999 C 73.52699999999999,17.72799999999999 73.25399999999999,17.88499999999999 73.25399999999999,18.28599999999999 L 73.25399999999999,28.30699999999999 L 68.749,31.81499999999999 L 68.749,26.02199999999999 C 68.749,25.493999999999993 68.604,25.02999999999999 68.07499999999999,25.02999999999999 C 67.52599999999998,25.02999999999999 67.195,25.24099999999999 67.195,25.77099999999999 L 67.195,37.56699999999999 L 64.785,39.97699999999999 L 54.383,39.97699999999999 C 53.156000000000006,38.74999999999999 46.006,31.623999999999988 44.232,29.849999999999987 C 44.127,29.723999999999986 43.534,29.17399999999999 43.387,29.088999999999988 C 42.657000000000004,28.506999999999987 41.831,28.03699999999999 40.942,27.69399999999999 C 40.703,28.69399999999999 40.541,30.29899999999999 40.842,32.740999999999985 C 41.167,35.371999999999986 42.268,37.173999999999985 42.268,37.173999999999985 L 51.258,44.753999999999984 C 51.765,45.28199999999998 52.485,45.55599999999998 53.225,45.55599999999998 L 59.217,45.55599999999998 L 48.21,56.571 L 49.33,59.065 L 54.974999999999994,53.422 L 77.328,53.422 C 77.962,53.422 78.26100000000001,53.214999999999996 78.26100000000001,52.58 C 78.26100000000001,51.946 77.40400000000001,51.976 76.769,51.976 L 70.361,52.018 L 75.527,46.867000000000004 L 82.732,46.867000000000004 C 83.22,46.867000000000004 83.509,46.903000000000006 83.509,46.418000000000006 C 83.509,45.91100000000001 82.98,45.974000000000004 82.472,45.952000000000005 L 76.259,45.970000000000006 L 85.89,36.37200000000001 C 86.185,36.055 86.67,35.62 86.373,35.301"/>
</svg>
