<?xml version="1.0" ?>
<svg xmlns="http://www.w3.org/2000/svg" xmlns:ev="http://www.w3.org/2001/xml-events" xmlns:xlink="http://www.w3.org/1999/xlink" baseProfile="full" enable-background="new 0 0 74.056 100" height="600px" version="1.1" viewBox="0 0 74.056 100" width="445px" x="0px" xml:space="preserve" y="0px">
	<defs/>
	<path d="M 26.246,7.725 C 26.291999999999998,3.4749999999999996 22.793999999999997,-0.04600000000000026 18.531999999999996,0.0 C 14.176999999999996,-0.046 10.655999999999995,3.475 10.678999999999997,7.725 C 10.655999999999997,12.08 14.176999999999996,15.565999999999999 18.531999999999996,15.578 C 22.794,15.566 26.292,12.081 26.246,7.725 L 26.246,7.725"/>
	<path d="M 48.669,50.395 L 23.721,20.13 C 22.424,18.208 15.196,17.397 12.138,19.852 L 0.0,41.939 L 2.988,60.609 C 6.023,65.485 12.045,60.551 10.354,57.887 L 8.316,44.662 L 13.343,34.989999999999995 L 13.088,58.71 L 2.178,92.786 C 0.02400000000000002,100.014 10.678999999999998,103.025 12.809999999999999,96.06400000000001 L 26.314999999999998,58.43300000000001 L 26.176,39.298 L 19.898,31.874000000000002 C 19.597,31.515 19.643,30.971000000000004 20.014,30.658 C 20.384999999999998,30.357000000000003 20.916999999999998,30.404 21.219,30.762 L 41.974000000000004,55.305 C 45.31,59.869 52.004,55.016 48.669,50.395"/>
	<path d="M 39.125,92.38 L 26.871,61.884 L 21.868,75.899 L 29.026,96.469 C 31.921,103.245 42.09,99.284 39.125,92.38"/>
	<path d="M 71.625,99.376 C 71.648,99.399 71.672,99.43400000000001 71.672,99.44500000000001 C 72.158,100.024 73.01599999999999,100.08200000000001 73.595,99.60700000000001 C 74.104,99.16700000000002 74.198,98.39100000000002 73.85,97.83500000000001 L 50.753,57.738 C 50.73,57.714999999999996 50.707,57.691 50.684,57.657 C 50.221,57.101 49.364,57.019 48.785,57.507 C 48.275,57.946999999999996 48.229,58.687999999999995 48.553999999999995,59.278 L 71.625,99.376"/>
</svg>
