<?xml version="1.0" ?>
<svg xmlns="http://www.w3.org/2000/svg" xmlns:ev="http://www.w3.org/2001/xml-events" xmlns:xlink="http://www.w3.org/1999/xlink" baseProfile="full" enable-background="new 0 0 100 99.305" height="596px" version="1.1" viewBox="0 0 100 99.305" width="600px" x="0px" xml:space="preserve" y="0px">
	<defs/>
	<path d="M 80.556,21.527 C 78.423,21.527 76.375,21.882 74.456,22.517 L 68.852,10.189 L 69.75800000000001,7.6690000000000005 C 72.37400000000001,7.683000000000001 74.88300000000001,7.696000000000001 74.88300000000001,7.696000000000001 L 74.88300000000001,4.168 L 57.68300000000001,4.168 C 55.556000000000004,6.25 62.531000000000006,7.697 63.919000000000004,7.638 C 63.919000000000004,7.638 64.485,7.64 65.339,7.647 L 64.343,10.417 L 31.453000000000003,10.417 C 32.142,8.274000000000001 32.577000000000005,6.917 32.587,6.885999999999999 C 33.418000000000006,4.306999999999999 35.859,4.1739999999999995 36.11000000000001,4.167 L 43.05500000000001,4.167 L 43.05500000000001,0.0 L 36.11000000000001,0.0 C 34.144000000000005,0.0 30.048000000000005,1.173 28.620000000000005,5.607 C 28.614000000000004,5.6290000000000004 26.046000000000006,13.617 23.376000000000005,21.926 C 22.105000000000004,21.665999999999997 20.792000000000005,21.528 19.442000000000004,21.528 C 8.705,21.527 0.0,30.232 0.0,40.971 C 0.0,51.711 8.705,60.417 19.444,60.417 C 30.183999999999997,60.417 38.888999999999996,51.711 38.888999999999996,40.971000000000004 C 38.888999999999996,33.047000000000004 34.13999999999999,26.242000000000004 27.340999999999994,23.213000000000005 C 27.817999999999994,21.728000000000005 28.289999999999996,20.254000000000005 28.746999999999993,18.833000000000006 C 46.98,39.506 47.081,39.608 47.138,39.667 C 50.525999999999996,43.055 53.971,43.055 58.333,43.055 L 61.227,43.055 C 62.266999999999996,52.814 70.521,60.417 80.556,60.417 C 91.29599999999999,60.417 100.0,51.711 100.0,40.971000000000004 C 100.0,30.232 91.296,21.527 80.556,21.527 M 34.723,40.971 C 34.723,49.407999999999994 27.883,56.25 19.444,56.25 C 11.005999999999998,56.25 4.167,49.408 4.167,40.971000000000004 C 4.167,32.535000000000004 11.007,25.694000000000003 19.444,25.694000000000003 C 20.348,25.694000000000003 21.227,25.788000000000004 22.089,25.939000000000004 C 19.651,33.526 17.462,40.33500000000001 17.462,40.33500000000001 L 17.471,40.33800000000001 C 17.406,40.53800000000001 17.362,40.74900000000001 17.362,40.97200000000001 C 17.362,42.12300000000001 18.296,43.05500000000001 19.445,43.05500000000001 C 20.374,43.05500000000001 21.151,42.446000000000005 21.421,41.607000000000006 L 21.429,41.60900000000001 C 21.429,41.60900000000001 23.619,34.80000000000001 26.055,27.21400000000001 C 31.177,29.681 34.723,34.906 34.723,40.971 M 77.319,38.888 L 65.437,38.888 C 66.059,34.332 68.68299999999999,30.423 72.402,28.067999999999998 L 77.319,38.888 M 54.153,38.72 C 52.507,38.5 51.355,37.993 50.147999999999996,36.787 C 49.788999999999994,36.39 37.803999999999995,22.802999999999997 30.555999999999997,14.582999999999998 L 62.840999999999994,14.582999999999998 L 54.153,38.72 M 58.52,38.888 L 66.82900000000001,15.806999999999999 L 70.668,24.250999999999998 C 65.52000000000001,27.302 61.89200000000001,32.647 61.22800000000001,38.888 L 58.52,38.888 M 80.556,56.25 C 72.827,56.25 66.456,50.504 65.437,43.055 L 80.556,43.055 C 81.706,43.055 82.64,42.123 82.64,40.972 C 82.64,40.665 82.568,40.374 82.449,40.113 L 82.453,40.111 L 76.19200000000001,26.336 C 77.575,25.924999999999997 79.039,25.695 80.55600000000001,25.695 C 88.99400000000001,25.695 95.83300000000001,32.536 95.83300000000001,40.972 C 95.833,49.408 88.993,56.25 80.556,56.25"/>
	<path d="M 86.11,71.527 C 83.464,71.527 81.065,72.589 79.312,74.304 L 33.863,74.304 C 30.982,69.32600000000001 25.610999999999997,65.971 19.444,65.971 C 13.279,65.971 7.9079999999999995,69.32600000000001 5.024999999999999,74.304 L 19.444,74.304 L 26.389,82.637 L 19.444,90.971 L 5.025,90.971 C 7.908,95.949 13.279,99.304 19.444000000000003,99.304 C 26.698,99.304 32.853,94.663 35.143,88.194 L 79.312,88.194 C 81.065,89.911 83.463,90.971 86.11,90.971 C 91.48,90.971 95.833,86.619 95.833,81.24900000000001 C 95.833,75.87900000000002 91.48,71.527 86.11,71.527 M 86.11,86.805 C 83.043,86.805 80.555,84.32100000000001 80.555,81.25 C 80.555,78.181 83.042,75.694 86.11000000000001,75.694 C 89.18,75.694 91.66700000000002,78.18 91.66700000000002,81.25 C 91.667,84.32 89.181,86.805 86.11,86.805"/>
</svg>
