<?xml version="1.0" ?>
<svg xmlns="http://www.w3.org/2000/svg" xmlns:ev="http://www.w3.org/2001/xml-events" xmlns:xlink="http://www.w3.org/1999/xlink" baseProfile="full" enable-background="new 0 0 44.445 100" height="600px" version="1.1" viewBox="0 0 44.445 100" width="267px" x="0px" xml:space="preserve" y="0px">
	<defs/>
	<path d="M 35.266,29.141 L 19.468999999999998,24.153 C 18.862999999999996,23.959999999999997 18.055999999999997,22.86 18.055999999999997,22.223 L 18.055999999999997,15.277999999999999 L 25.0,15.277999999999999 L 12.5,0.0 L 0.0,15.277 L 6.945,15.277 L 6.945,22.222 C 6.945,27.71 10.892,33.096000000000004 16.125,34.747 L 31.921,39.736 C 32.528,39.928999999999995 33.333,41.028 33.333,41.666 L 33.333,58.333 C 33.333,58.972 32.528,60.07 31.918,60.263 L 16.128,65.253 C 10.892,66.903 6.945,72.289 6.945,77.777 L 6.945,100.0 L 18.055,100.0 L 18.055,77.777 C 18.055,77.14 18.862,76.04 19.472,75.847 L 35.262,70.859 C 40.496,69.207 44.445,63.82299999999999 44.445,58.333 L 44.445,41.667 C 44.445,36.177 40.497,30.793 35.266,29.141"/>
	<path d="M 18.056,60.273 L 18.056,39.727 L 14.871,38.721999999999994 C 11.754000000000001,37.73799999999999 9.022,35.815999999999995 6.945,33.342999999999996 L 6.945,66.66 C 9.022,64.185 11.754999999999999,62.263 14.872,61.278 L 18.056,60.273"/>
</svg>
