<?xml version="1.0" ?>
<svg xmlns="http://www.w3.org/2000/svg" xmlns:ev="http://www.w3.org/2001/xml-events" xmlns:xlink="http://www.w3.org/1999/xlink" baseProfile="full" enable-background="new 0 0 100 100" height="600px" version="1.1" viewBox="0 0 100 100" width="347px" x="0px" xml:space="preserve" y="0px">
	<defs/>
	<path d="M 42.046,70.668 L 42.046,27.449 C 42.046,26.777 41.503,26.233 40.830999999999996,26.233 C 40.16,26.233 39.61599999999999,26.777 39.61599999999999,27.449 L 39.61599999999999,70.668 C 35.66599999999999,71.256 32.623999999999995,74.664 32.623999999999995,78.77300000000001 C 32.623999999999995,83.30000000000001 36.30499999999999,86.98400000000001 40.83,86.98400000000001 C 45.355000000000004,86.98400000000001 49.039,83.30000000000001 49.039,78.77300000000001 C 49.038,74.664 45.996,71.26 42.046,70.668" fill="#000000"/>
	<path d="M 50.346,63.922 L 50.346,12.79 C 50.346,9.916999999999998 49.337999999999994,7.513999999999999 47.428999999999995,5.8389999999999995 C 45.76499999999999,4.377999999999999 43.507,3.5739999999999994 41.074,3.5739999999999994 C 36.342999999999996,3.5739999999999994 31.316,6.802999999999999 31.316,12.79 L 31.316,63.92 C 26.285,67.15 23.182,72.775 23.182,78.777 C 23.182,88.507 31.098999999999997,96.425 40.831999999999994,96.425 C 50.56399999999999,96.425 58.480999999999995,88.50699999999999 58.480999999999995,78.777 C 58.479,72.775 55.378,67.152 50.346,63.922 M 40.831,93.994 C 32.43900000000001,93.994 25.612000000000002,87.168 25.612000000000002,78.777 C 25.612000000000002,73.396 28.5,68.361 33.147000000000006,65.636 C 33.16700000000001,65.62599999999999 33.181000000000004,65.61099999999999 33.199000000000005,65.59899999999999 C 33.211000000000006,65.591 33.221000000000004,65.58099999999999 33.233000000000004,65.57399999999998 C 33.288000000000004,65.53699999999998 33.339000000000006,65.49399999999999 33.385000000000005,65.44899999999998 C 33.391000000000005,65.44299999999998 33.39600000000001,65.43699999999998 33.40200000000001,65.43099999999998 C 33.45100000000001,65.37999999999998 33.49600000000001,65.32599999999998 33.534000000000006,65.27099999999999 C 33.540000000000006,65.26299999999999 33.543000000000006,65.25299999999999 33.54800000000001,65.24599999999998 C 33.58500000000001,65.18899999999998 33.61800000000001,65.13099999999999 33.64500000000001,65.06799999999998 C 33.65100000000001,65.05399999999999 33.65500000000001,65.04099999999998 33.66100000000001,65.02499999999998 C 33.68300000000001,64.96599999999998 33.70300000000001,64.90799999999997 33.71600000000001,64.84699999999998 C 33.720000000000006,64.82699999999998 33.723000000000006,64.80799999999998 33.726000000000006,64.78799999999998 C 33.73500000000001,64.72699999999998 33.74300000000001,64.66899999999998 33.74400000000001,64.60799999999998 C 33.74400000000001,64.59999999999998 33.74600000000001,64.59199999999997 33.74600000000001,64.58299999999997 L 33.74600000000001,61.51299999999997 L 35.53500000000001,61.51299999999997 C 36.20700000000001,61.51299999999997 36.75100000000001,60.96799999999997 36.75100000000001,60.29599999999997 C 36.75100000000001,59.623999999999974 36.207000000000015,59.08099999999997 35.53500000000001,59.08099999999997 L 33.74600000000001,59.08099999999997 L 33.74600000000001,52.932999999999964 L 35.53500000000001,52.932999999999964 C 36.20700000000001,52.932999999999964 36.75100000000001,52.389999999999965 36.75100000000001,51.715999999999966 C 36.75100000000001,51.045999999999964 36.207000000000015,50.50099999999996 35.53500000000001,50.50099999999996 L 33.74600000000001,50.50099999999996 L 33.74600000000001,44.353999999999964 L 35.53500000000001,44.353999999999964 C 36.20700000000001,44.353999999999964 36.75100000000001,43.80999999999997 36.75100000000001,43.13799999999996 C 36.75100000000001,42.46599999999996 36.207000000000015,41.92299999999996 35.53500000000001,41.92299999999996 L 33.74600000000001,41.92299999999996 L 33.74600000000001,35.77499999999996 L 35.53500000000001,35.77499999999996 C 36.20700000000001,35.77499999999996 36.75100000000001,35.230999999999966 36.75100000000001,34.55899999999996 C 36.75100000000001,33.88799999999996 36.207000000000015,33.34299999999996 35.53500000000001,33.34299999999996 L 33.74600000000001,33.34299999999996 L 33.74600000000001,27.195999999999962 L 35.53500000000001,27.195999999999962 C 36.20700000000001,27.195999999999962 36.75100000000001,26.651999999999962 36.75100000000001,25.980999999999963 C 36.75100000000001,25.308999999999962 36.207000000000015,24.763999999999964 35.53500000000001,24.763999999999964 L 33.74600000000001,24.763999999999964 L 33.74600000000001,18.617999999999963 L 35.53500000000001,18.617999999999963 C 36.20700000000001,18.617999999999963 36.75100000000001,18.07299999999996 36.75100000000001,17.401999999999962 C 36.75100000000001,16.72999999999996 36.207000000000015,16.18599999999996 35.53500000000001,16.18599999999996 L 33.74600000000001,16.18599999999996 L 33.74600000000001,12.79 C 33.74600000000001,8.335999999999999 37.43300000000001,6.004999999999999 41.07400000000001,6.004999999999999 C 42.917000000000016,6.004999999999999 44.60500000000001,6.595999999999999 45.826000000000015,7.666999999999999 C 47.19300000000001,8.866 47.91600000000001,10.637999999999998 47.91600000000001,12.79 L 47.91600000000001,20.474999999999998 L 45.95600000000001,20.474999999999998 C 45.28400000000001,20.474999999999998 44.74000000000001,21.02 44.74000000000001,21.691 C 44.74000000000001,22.363 45.284000000000006,22.907 45.95600000000001,22.907 L 47.91600000000001,22.907 L 47.91600000000001,29.053 L 45.95600000000001,29.053 C 45.28400000000001,29.053 44.74000000000001,29.598000000000003 44.74000000000001,30.27 C 44.74000000000001,30.941 45.284000000000006,31.486 45.95600000000001,31.486 L 47.91600000000001,31.486 L 47.91600000000001,37.632 L 45.95600000000001,37.632 C 45.28400000000001,37.632 44.74000000000001,38.175999999999995 44.74000000000001,38.849 C 44.74000000000001,39.519999999999996 45.284000000000006,40.064 45.95600000000001,40.064 L 47.91600000000001,40.064 L 47.91600000000001,46.212 L 45.95600000000001,46.212 C 45.28400000000001,46.212 44.74000000000001,46.756 44.74000000000001,47.42700000000001 C 44.74000000000001,48.099000000000004 45.284000000000006,48.64300000000001 45.95600000000001,48.64300000000001 L 47.91600000000001,48.64300000000001 L 47.91600000000001,54.79100000000001 L 45.95600000000001,54.79100000000001 C 45.28400000000001,54.79100000000001 44.74000000000001,55.33400000000001 44.74000000000001,56.006000000000014 C 44.74000000000001,56.67800000000002 45.284000000000006,57.22300000000001 45.95600000000001,57.22300000000001 L 47.91600000000001,57.22300000000001 L 47.91600000000001,64.58400000000002 C 47.91600000000001,64.59200000000001 47.91800000000001,64.59800000000001 47.91800000000001,64.60400000000001 C 47.91900000000001,64.67000000000002 47.927000000000014,64.73700000000001 47.93800000000002,64.80300000000001 C 47.942000000000014,64.81700000000001 47.942000000000014,64.82800000000002 47.94600000000002,64.84200000000001 C 47.96000000000002,64.91000000000001 47.98000000000002,64.97700000000002 48.00700000000002,65.04100000000001 C 48.01000000000002,65.049 48.01300000000002,65.05700000000002 48.01600000000002,65.06400000000001 C 48.04500000000002,65.132 48.08000000000002,65.197 48.12200000000002,65.259 C 48.12300000000002,65.261 48.124000000000024,65.263 48.12600000000002,65.265 C 48.16800000000002,65.327 48.21500000000002,65.384 48.27000000000002,65.43900000000001 C 48.27200000000002,65.441 48.27300000000002,65.44500000000001 48.27600000000002,65.447 C 48.32500000000002,65.494 48.38000000000002,65.539 48.43800000000002,65.58 C 48.44600000000002,65.586 48.454000000000015,65.592 48.46100000000002,65.598 C 48.48100000000002,65.612 48.496000000000016,65.625 48.51600000000002,65.637 C 53.16300000000002,68.362 56.05200000000002,73.397 56.05200000000002,78.778 C 56.05,87.168 49.223,93.994 40.831,93.994" fill="#000000"/>
	<path d="M 72.794,56.779 C 71.837,55.931000000000004 70.93299999999999,55.133 70.26599999999999,54.050000000000004 C 70.044,53.691 69.65299999999999,53.472 69.231,53.472 C 68.809,53.472 68.41799999999999,53.691 68.19699999999999,54.048 C 67.52899999999998,55.13 66.62499999999999,55.931000000000004 65.66699999999999,56.778 C 63.77999999999999,58.448 61.64199999999999,60.339999999999996 61.64199999999999,64.514 C 61.64199999999999,68.69999999999999 65.04699999999998,72.104 69.23199999999999,72.104 C 73.41599999999998,72.104 76.82099999999998,68.7 76.82099999999998,64.514 C 76.819,60.344 74.681,58.449 72.794,56.779 M 69.23,69.674 C 66.38600000000001,69.674 64.071,67.36000000000001 64.071,64.516 C 64.071,61.438 65.486,60.18600000000001 67.279,58.60000000000001 C 67.937,58.01800000000001 68.60799999999999,57.42400000000001 69.22999999999999,56.717000000000006 C 69.85099999999998,57.42400000000001 70.523,58.01800000000001 71.18199999999999,58.602000000000004 C 72.97299999999998,60.18600000000001 74.38799999999999,61.438 74.38799999999999,64.516 C 74.389,67.359 72.074,69.674 69.23,69.674" fill="#000000"/>
	<path d="M 61.984,54.289 C 66.169,54.289 69.574,50.885000000000005 69.574,46.7 C 69.574,42.526 67.434,40.634 65.548,38.964000000000006 C 64.59,38.11600000000001 63.687000000000005,37.31700000000001 63.019000000000005,36.23400000000001 C 62.577000000000005,35.51500000000001 61.39300000000001,35.516000000000005 60.949000000000005,36.23400000000001 C 60.282000000000004,37.31700000000001 59.379000000000005,38.11800000000001 58.422000000000004,38.964000000000006 C 56.535000000000004,40.63400000000001 54.397000000000006,42.52700000000001 54.397000000000006,46.7 C 54.396,50.885 57.8,54.289 61.984,54.289 M 60.032,40.785 C 60.69,40.20099999999999 61.363,39.605999999999995 61.983999999999995,38.9 C 62.605,39.606 63.27799999999999,40.201 63.934999999999995,40.784 C 65.728,42.37 67.142,43.622 67.142,46.7 C 67.142,49.544000000000004 64.828,51.857 61.983999999999995,51.857 C 59.139999999999986,51.857 56.82599999999999,49.544 56.82599999999999,46.7 C 56.826,43.622 58.241,42.37 60.032,40.785" fill="#000000"/>
</svg>
