<?xml version="1.0" ?>
<svg xmlns="http://www.w3.org/2000/svg" xmlns:ev="http://www.w3.org/2001/xml-events" xmlns:xlink="http://www.w3.org/1999/xlink" baseProfile="full" enable-background="new 0 0 100 100" height="403px" version="1.1" viewBox="0 0 100 100" width="600px" x="0px" xml:space="preserve" y="0px">
	<defs/>
	<path d="M 83.072,74.15 L 79.769,77.619 C 80.212,78.279 80.44000000000001,79.052 80.417,79.849 C 80.391,80.825 79.99,81.72500000000001 79.289,82.38300000000001 C 78.575,83.06200000000001 77.621,83.41000000000001 76.623,83.36300000000001 C 75.673,83.31800000000001 74.77900000000001,82.92200000000001 74.09400000000001,82.24400000000001 L 64.108,91.28500000000001 C 64.09100000000001,91.30000000000001 64.072,91.305 64.054,91.31700000000001 C 64.994,92.24600000000001 66.063,93.12400000000001 67.194,93.977 C 67.762,94.224 68.312,94.46900000000001 68.895,94.71600000000001 C 74.08,95.51500000000001 78.27499999999999,93.75200000000001 81.602,89.76700000000001 C 82.424,87.83300000000001 83.287,85.91300000000001 84.131,83.992 C 84.6,80.385 83.993,77.205 83.072,74.15"/>
	<path d="M 20.897,17.406 L 26.354,16.994 C 24.04,14.798 19.738,10.745999999999999 19.333,10.559999999999999 C 15.858999999999998,11.543999999999999 8.710999999999999,13.082999999999998 8.669999999999998,13.195999999999998 C 11.707999999999998,16.549 15.060999999999998,19.772 17.718999999999998,23.269 L 20.31,17.808999999999997 C 20.419,17.579 20.644,17.425 20.897,17.406"/>
	<path d="M 82.204,73.007 C 82.265,72.94500000000001 82.336,72.9 82.41,72.863 C 80.85799999999999,70.459 78.785,68.252 77.563,65.717 C 76.95,65.359 76.651,65.775 76.057,65.456 C 76.191,64.268 75.929,63.422000000000004 74.464,63.550000000000004 C 74.821,62.941 74.417,62.623000000000005 74.715,62.044000000000004 C 72.952,62.285000000000004 73.622,61.07600000000001 72.64,60.31700000000001 C 72.94200000000001,59.39500000000001 71.846,60.522000000000006 71.287,59.733000000000004 C 72.06500000000001,58.05200000000001 70.88900000000001,58.217000000000006 69.68900000000001,57.807 C 71.17800000000001,55.485 67.27900000000001,57.005 68.551,54.869 C 67.965,54.592 67.46300000000001,54.489 67.039,54.615 C 66.896,54.015 66.425,53.549 66.617,52.812000000000005 C 66.004,52.452000000000005 65.705,52.859 65.111,52.563 C 66.01700000000001,50.399 62.966,51.533 63.63100000000001,49.476 C 62.315000000000005,49.051 61.290000000000006,48.505 61.69500000000001,47.409 C 60.76800000000001,47.268 59.650000000000006,47.335 60.29800000000001,45.992 C 59.45500000000001,45.29 59.21000000000001,46.079 58.45100000000001,45.583 C 58.48700000000001,44.998999999999995 58.32300000000001,44.509 58.35300000000001,43.923 C 57.36000000000001,44.091 56.19900000000001,43.783 55.67600000000001,43.249 C 54.19300000000001,41.732 34.44500000000001,21.55 30.37200000000001,17.875000000000004 C 30.254000000000012,18.040000000000003 21.41200000000001,18.787000000000003 21.41200000000001,18.787000000000003 C 21.41200000000001,18.787000000000003 17.91600000000001,26.055000000000003 17.81900000000001,26.123000000000005 C 20.76300000000001,29.718000000000004 23.954000000000008,33.194 27.11200000000001,36.685 C 27.66500000000001,38.491 28.14400000000001,39.957 28.86900000000001,41.916000000000004 C 30.45200000000001,42.611000000000004 32.03500000000001,43.30500000000001 33.62300000000001,44.001000000000005 C 37.308000000000014,47.541000000000004 40.27300000000001,51.36000000000001 43.814000000000014,54.952000000000005 C 46.95900000000002,58.78900000000001 51.15000000000001,62.217000000000006 52.856000000000016,66.62400000000001 C 53.670000000000016,66.962 53.603000000000016,67.653 54.747000000000014,67.858 C 54.649000000000015,68.36 54.948000000000015,68.718 54.496000000000016,69.358 C 56.356000000000016,69.67 55.75100000000002,70.937 55.79300000000001,71.962 C 56.69900000000001,72.39200000000001 56.719000000000015,71.696 57.15100000000001,72.551 C 56.10500000000001,73.904 57.65300000000001,74.232 58.10200000000001,74.995 C 57.81200000000001,75.578 57.71400000000001,76.08200000000001 57.84200000000001,76.51100000000001 C 58.975000000000016,76.81400000000001 59.22000000000001,77.47000000000001 58.59800000000001,78.45400000000001 C 58.829000000000015,79.12500000000001 60.20000000000001,79.334 59.856000000000016,80.22600000000001 C 59.51000000000002,80.65600000000002 59.198000000000015,80.62400000000001 59.405000000000015,81.24900000000001 C 60.024000000000015,81.879 61.076000000000015,81.757 60.024000000000015,83.534 C 60.250000000000014,84.20100000000001 61.628000000000014,84.41000000000001 61.27000000000002,85.29700000000001 C 61.12000000000002,85.641 60.972000000000016,85.98400000000001 60.81900000000002,86.32200000000002 C 61.240000000000016,87.78100000000002 62.052000000000014,89.08800000000002 63.10400000000001,90.30100000000002 C 63.12300000000001,90.27900000000001 63.13200000000001,90.25100000000002 63.155000000000015,90.23200000000001 L 73.65800000000002,80.72300000000001 C 73.94500000000002,80.46200000000002 74.38800000000002,80.48300000000002 74.65300000000002,80.76700000000001 L 75.03800000000003,81.18200000000002 C 75.47600000000003,81.64200000000001 76.06400000000002,81.91500000000002 76.68900000000002,81.94600000000001 C 77.32000000000002,81.96400000000001 77.88000000000002,81.76200000000001 78.31400000000002,81.35000000000001 C 78.74100000000003,80.95 78.98300000000002,80.403 79.00000000000003,79.807 C 79.01800000000003,79.164 78.77400000000003,78.545 78.31500000000003,78.06400000000001 C 78.05400000000003,77.79100000000001 78.05300000000003,77.36000000000001 78.31400000000002,77.08600000000001 L 82.204,73.007 M 56.358,62.583 L 49.375,54.919 C 48.416,53.857 48.317,52.318 49.035,51.153 C 48.602999999999994,50.602 48.455999999999996,49.868 48.65,49.17 C 47.498999999999995,49.719 46.052,49.482 45.102,48.473 L 26.283999999999995,28.622999999999998 C 25.109999999999996,27.383 25.130999999999997,25.450999999999997 26.308999999999994,24.331999999999997 C 27.511999999999993,23.205 29.423999999999992,23.290999999999997 30.606999999999992,24.536999999999995 L 49.412,44.39 C 50.28,45.311 50.496,46.606 50.067,47.676 C 50.576,47.506 51.147,47.510000000000005 51.681,47.745000000000005 C 51.957,47.86600000000001 52.196999999999996,48.037000000000006 52.393,48.24400000000001 C 53.557,47.839000000000006 54.906,48.13600000000001 55.79,49.10000000000001 L 62.81,56.81300000000001 L 56.358,62.583 M 69.172,68.494 L 67.44,70.073 C 66.149,71.246 64.331,71.344 63.363,70.294 L 60.175,66.783 L 66.545,60.922000000000004 L 69.767,64.46900000000001 C 70.725,65.513 70.463,67.327 69.172,68.494"/>
	<path d="M -8.75,16.914 L -39.625,16.914 C -40.729,16.914 -41.625,17.810000000000002 -41.625,18.914 L -41.625,47.375 C -41.625,48.479 -40.729,49.375 -39.625,49.375 L -8.75,49.375 C -7.646,49.375 -6.75,48.479 -6.75,47.375 L -6.75,18.914 C -6.75,17.81 -7.646,16.914 -8.75,16.914 M -29.75,39.125 C -33.754,39.125 -37.0,35.879 -37.0,31.875 C -37.0,27.871000000000002 -33.754,24.625 -29.75,24.625 C -25.746000000000002,24.625 -22.5,27.871 -22.5,31.875 C -22.5,35.879000000000005 -25.746,39.125 -29.75,39.125"/>
</svg>
