<?xml version="1.0" ?>
<svg xmlns="http://www.w3.org/2000/svg" xmlns:ev="http://www.w3.org/2001/xml-events" xmlns:xlink="http://www.w3.org/1999/xlink" baseProfile="full" enable-background="new 0 0 100 100" height="600px" version="1.1" viewBox="0 0 100 100" width="539px" x="0px" xml:space="preserve" y="0px">
	<defs/>
	<path d="M 9.614,18.368 L 9.614,81.597 L 70.682,81.597 L 70.682,18.368 L 9.614,18.368 M 67.244,71.825 L 13.05,71.825 L 13.05,22.54 L 67.244,22.54 L 67.244,71.825" fill="#000000"/>
	<path d="M 83.848,88.063 L 57.562,56.485 C 56.314,54.987 54.093999999999994,54.785 52.586,56.03 C 51.092,57.275 50.888999999999996,59.503 52.131,61.002 L 82.937,98.011 L 83.848,88.063 M 58.56,66.697 L 53.050000000000004,60.083000000000006 C 52.252,59.126000000000005 52.38100000000001,57.71600000000001 53.339000000000006,56.918000000000006 C 54.28600000000001,56.123000000000005 55.699000000000005,56.25200000000001 56.49700000000001,57.20700000000001 L 62.00500000000001,63.82900000000001 C 62.793000000000006,64.77600000000001 62.662000000000006,66.197 61.71600000000001,66.98500000000001 C 60.758,67.777 59.347,67.648 58.56,66.697"/>
	<path d="M 49.519,61.218 L 34.833,65.983 L 43.905,53.493 L 43.905,68.935 L 34.833,56.442 L 49.519,61.218" points="49.519,61.218 34.833,65.983 43.905,53.493 43.905,68.935 34.833,56.442 49.519,61.218 "/>
	<path d="M 59.097,43.677 L 46.183,47.878 L 54.165,36.888 L 54.165,50.466 L 46.183,39.483 L 59.097,43.677" points="59.097,43.677 46.183,47.878 54.165,36.888 54.165,50.466 46.183,39.483 59.097,43.677 "/>
	<path d="M 28.217,38.113 L 18.779,41.183 L 24.61,33.15 L 24.61,43.066 L 18.779,35.044 L 28.217,38.113" points="28.217,38.113 18.779,41.183 24.61,33.15 24.61,43.066 18.779,35.044 28.217,38.113 "/>
	<path d="M 28.42,54.955 L 21.487,57.208 L 25.767,51.312 L 25.767,58.599 L 21.487,52.704 L 28.42,54.955" points="28.42,54.955 21.487,57.208 25.767,51.312 25.767,58.599 21.487,52.704 28.42,54.955 "/>
	<path d="M 43.134,45.75 L 29.482,50.192 L 37.92,38.576 L 37.92,52.933 L 29.482,41.318 L 43.134,45.75" points="43.134,45.75 29.482,50.192 37.92,38.576 37.92,52.933 29.482,41.318 43.134,45.75 "/>
	<path d="M 55.884,27.932 L 48.953,30.185 L 53.232,24.289 L 53.232,31.576 L 48.953,25.68 L 55.884,27.932" points="55.884,27.932 48.953,30.185 53.232,24.289 53.232,31.576 48.953,25.68 55.884,27.932 "/>
	<path d="M 31.971,5.787 L 30.282,17.368 L 33.755,17.368 L 34.77,10.411 L 88.396,18.231 L 81.285,66.999 L 71.713,65.603 L 71.713,75.479 L 83.276,77.165 L 92.4,14.6 L 31.971,5.787" fill="#000000" points="31.971,5.787 30.282,17.368 33.755,17.368 34.77,10.411 88.396,18.231 81.285,66.999 71.713,65.603   71.713,75.479 83.276,77.165 92.4,14.6 "/>
	<path d="M 32.63,33.94 L 39.887,23.952 L 39.887,36.297 L 32.63,26.307 L 44.374,30.128 L 32.63,33.94" points="32.63,33.94 39.887,23.952 39.887,36.297 32.63,26.307 44.374,30.128 "/>
</svg>
