<?xml version="1.0" ?>
<svg xmlns="http://www.w3.org/2000/svg" xmlns:ev="http://www.w3.org/2001/xml-events" xmlns:xlink="http://www.w3.org/1999/xlink" baseProfile="full" enable-background="new 0 0 100 77.788" height="467px" version="1.1" viewBox="0 0 100 77.788" width="600px" x="0px" xml:space="preserve" y="0px">
	<defs/>
	<path d="M 24.625,28.022 L 24.596,28.022 L 24.594,31.945 C 25.495,31.341 30.245,28.345 30.852,28.056 L 37.769,28.056 C 40.156,28.056 42.092999999999996,26.122 42.092999999999996,23.734 L 42.092999999999996,14.751000000000001 C 42.092999999999996,12.366000000000001 40.154999999999994,10.432000000000002 37.769,10.432000000000002 L 25.159,10.432000000000002 C 22.772,10.432000000000002 20.835,12.366000000000001 20.835,14.751000000000001 L 20.835,23.734 C 20.833,25.941 22.491,27.757 24.625,28.022"/>
	<path d="M 58.067,17.626 L 64.372,17.626 C 64.979,17.914 70.32,21.667 71.224,22.268 L 71.244,17.588 L 71.212,17.588 C 73.347,17.328 75.0,15.508 75.0,13.305 L 75.0,4.323 C 75.0,1.935 73.066,0.0 70.676,0.0 L 58.067,0.0 C 55.678,0.0 53.743,1.935 53.743,4.323 L 53.743,13.304 C 53.743,15.689 55.679,17.626 58.067,17.626"/>
	<path d="M 95.788,35.453 L 93.402,58.344 L 87.515,58.344 C 89.453,58.344 91.11,57.203 91.891,55.566 C 92.171,54.980000000000004 92.33800000000001,54.332 92.36,53.644000000000005 L 92.36,36.121 C 92.36,32.669000000000004 89.562,29.871000000000002 86.11,29.871000000000002 C 83.477,29.871000000000002 81.237,31.503000000000004 80.315,33.808 L 77.523,38.899 L 68.05499999999999,38.899 C 66.52,38.899 65.27699999999999,40.142 65.27699999999999,41.677 C 65.27699999999999,43.211 66.51999999999998,44.454 68.05499999999999,44.454 L 76.389,44.454 L 79.86,44.454 L 81.352,44.454 L 86.28200000000001,35.453 L 89.45300000000002,35.453 L 82.99900000000002,47.231 L 79.86,47.231 L 79.86,48.621 C 79.86,50.531 78.13,51.075 78.13,51.075 L 72.223,52.730000000000004 L 72.223,47.231 L 66.667,47.231 L 33.333,47.231 L 27.776999999999997,47.231 L 27.776999999999997,54.127 L 22.450999999999997,52.96 C 19.821999999999996,52.426 19.703999999999997,51.395 19.442999999999998,50.375 L 19.442999999999998,50.104 L 17.054,50.729 C 16.636,50.833999999999996 16.13,50.937 15.615999999999998,50.937 C 15.073999999999998,50.937 14.528999999999998,50.821999999999996 14.077999999999998,50.471 C 13.527999999999997,50.041999999999994 13.249999999999998,49.367 13.249999999999998,48.459999999999994 L 13.249999999999998,43.056 L 15.332999999999998,43.056 C 15.332999999999998,43.056 15.338,48.522 15.340999999999998,48.556999999999995 C 15.341999999999997,48.56399999999999 15.348999999999997,48.565999999999995 15.349999999999998,48.57299999999999 C 15.349999999999998,48.584999999999994 15.337999999999997,48.589999999999996 15.337999999999997,48.599999999999994 C 15.337999999999997,48.797999999999995 15.497999999999998,48.958999999999996 15.696999999999997,48.958999999999996 L 25.037999999999997,46.446999999999996 L 27.610999999999997,45.763 L 27.609999999999996,45.756 C 28.503999999999994,45.522 29.164999999999996,44.716 29.164999999999996,43.748 C 29.164999999999996,42.599 28.230999999999995,41.665 27.081999999999994,41.665 C 26.896999999999995,41.665 26.723999999999993,41.696 26.552999999999994,41.742 L 26.551999999999992,41.733999999999995 L 19.44299999999999,43.605 L 19.44299999999999,43.062 C 19.44299999999999,41.989999999999995 19.02799999999999,41.022999999999996 18.36199999999999,40.285 C 17.59899999999999,39.437999999999995 16.504999999999992,38.894999999999996 15.275999999999991,38.894999999999996 C 14.04699999999999,38.894999999999996 12.95299999999999,39.437999999999995 12.18999999999999,40.285 C 11.525999999999991,41.022999999999996 11.108999999999991,41.989999999999995 11.108999999999991,43.062 L 11.108999999999991,54.867999999999995 C 11.108999999999991,56.785999999999994 12.66399999999999,58.340999999999994 14.58199999999999,58.340999999999994 C 14.71499999999999,58.340999999999994 14.84199999999999,58.31699999999999 14.97099999999999,58.300999999999995 L 14.96999999999999,58.321999999999996 L 15.12899999999999,58.340999999999994 L 14.58199999999999,58.340999999999994 L 6.598,58.340999999999994 L 4.212,35.453 L 0.0,35.453 L 2.777,61.893 L 2.777,62.51 L 2.777,77.78699999999999 L 6.944,77.78699999999999 L 6.944,62.511 L 20.834,62.511 L 20.834,77.788 L 25.0,77.788 L 25.0,62.511 L 25.0,59.439 L 26.135,59.566 L 27.777,62.195 L 27.777,77.789 L 33.333,77.789 L 33.333,70.465 C 33.742,70.703 34.213,70.845 34.722,70.845 C 36.256,70.845 37.499,69.6 37.499,68.067 C 37.499,67.52499999999999 37.337,67.026 37.071000000000005,66.59899999999999 L 37.07600000000001,66.59499999999998 L 33.333000000000006,60.60599999999999 L 33.333000000000006,52.789999999999985 L 66.666,52.789999999999985 L 66.666,54.274999999999984 C 65.791,54.453999999999986 65.03099999999999,54.942999999999984 64.53099999999999,55.646999999999984 L 64.526,55.64199999999998 L 52.723,72.308 L 52.728,72.313 C 52.325,72.879 52.083,73.56700000000001 52.083,74.316 C 52.083,76.23400000000001 53.638,77.789 55.556,77.789 C 56.726,77.789 57.754,77.20700000000001 58.384,76.32000000000001 L 58.39,76.32400000000001 L 66.667,64.63700000000001 L 66.667,77.78800000000001 L 72.223,77.78800000000001 L 72.223,60.419 L 75.0,59.995 L 75.0,62.510999999999996 L 75.0,77.788 L 79.167,77.788 L 79.167,62.511 L 93.056,62.511 L 93.056,77.788 L 97.223,77.788 L 97.223,62.511 L 97.223,61.894000000000005 L 100.0,35.453 L 95.788,35.453"/>
	<path cx="83.333" cy="20.843" d="M 76.388,20.843 A 6.945,6.945 0.0 1,0 90.278,20.843 A 6.945,6.945 0.0 1,0 76.388,20.843" r="6.945"/>
	<path cx="15.973" cy="32.649" d="M 11.112000000000002,32.649 A 4.861000000000001,4.861000000000001 0.0 1,0 20.834000000000003,32.649 A 4.861,4.861 0.0 1,0 11.112000000000004,32.649" r="4.861"/>
</svg>
