<?xml version="1.0" ?>
<svg xmlns="http://www.w3.org/2000/svg" xmlns:ev="http://www.w3.org/2001/xml-events" xmlns:xlink="http://www.w3.org/1999/xlink" baseProfile="full" height="600px" version="1.1" viewBox="0 0 100 100" width="464px" x="0px" xml:space="preserve" y="0px">
	<defs/>
	<path d="M 79.552,36.363 L 79.552,31.818 L 70.461,31.818 L 70.461,36.363 L 70.461,50.0 L 75.006,50.0 L 75.006,36.363 L 79.545,36.363 L 79.545,40.909 L 84.09,40.909 L 84.09,36.363 L 79.552,36.363" fill-rule="evenodd" points="79.552,36.363 79.552,31.818 70.461,31.818 70.461,36.363 70.461,50 75.006,50 75.006,36.363    79.545,36.363 79.545,40.909 84.09,40.909 84.09,36.363  "/>
	<path d="M 34.082,86.363 L 34.082,77.272 L 29.537,77.272 L 29.537,68.181 L 24.991,68.181 L 24.991,77.272 L 29.536,77.272 L 29.536,86.363 L 34.082,86.363" fill-rule="evenodd" points="34.082,86.363 34.082,77.272 29.537,77.272 29.537,68.181 24.991,68.181 24.991,77.272    29.536,77.272 29.536,86.363  "/>
	<path d="M 79.545,86.363 L 75.006,86.363 L 75.006,95.454 L 38.646,95.454 L 38.646,86.363 L 34.101,86.363 L 34.101,95.454 L 34.082,95.454 L 34.082,100.0 L 34.101,100.0 L 38.646,100.0 L 75.006,100.0 L 79.537,100.0 L 79.552,100.0 L 79.552,86.363 L 84.09,86.363 L 84.09,72.727 L 79.545,72.727 L 79.545,86.363" fill-rule="evenodd" points="79.545,86.363 75.006,86.363 75.006,95.454 38.646,95.454 38.646,86.363 34.101,86.363    34.101,95.454 34.082,95.454 34.082,100 34.101,100 38.646,100 75.006,100 79.537,100 79.552,100 79.552,86.363 84.09,86.363    84.09,72.727 79.545,72.727  "/>
	<path d="M 15.909,45.454 L 24.982,45.454 L 24.982,40.909 L 15.909,40.909 L 15.891,40.909 L 11.364,40.909 L 11.364,54.545 L 15.891,54.545 L 15.891,59.09 L 20.436,59.09 L 20.436,54.545 L 15.909,54.545 L 15.909,45.454" fill-rule="evenodd" points="15.909,45.454 24.982,45.454 24.982,40.909 15.909,40.909 15.891,40.909 11.364,40.909    11.364,54.545 15.891,54.545 15.891,59.09 20.436,59.09 20.436,54.545 15.909,54.545  "/>
	<path d="M 56.799,45.454 L 61.345,45.454 L 61.345,31.818 L 70.455,31.818 L 70.455,27.272 L 56.819,27.272 L 56.819,31.818 L 56.799,31.818 L 56.799,45.454" fill-rule="evenodd" points="56.799,45.454 61.345,45.454 61.345,31.818 70.455,31.818 70.455,27.272 56.819,27.272    56.819,31.818 56.799,31.818  "/>
	<path d="M 47.746,27.272 L 56.799,27.272 L 56.799,22.727 L 47.746,22.727 L 47.746,4.545 L 43.201,4.545 L 43.201,45.454 L 47.746,45.454 L 47.746,27.272" fill-rule="evenodd" points="47.746,27.272 56.799,27.272 56.799,22.727 47.746,22.727 47.746,4.545 43.201,4.545    43.201,45.454 47.746,45.454  "/>
	<path d="M 29.537,54.545 L 34.082,54.545 L 34.082,4.545 L 29.537,4.545 L 29.537,45.454 L 24.991,45.454 L 24.991,50.0 L 29.537,50.0 L 29.537,54.545" fill-rule="evenodd" points="29.537,54.545 34.082,54.545 34.082,4.545 29.537,4.545 29.537,45.454 24.991,45.454    24.991,50 29.537,50  "/>
	<path d="M 34.101,0.0 L 43.192,0.0 L 43.192,4.545 L 34.101,4.545 L 34.101,0.0" fill-rule="evenodd" height="4.545" width="9.091" x="34.101" y="0"/>
	<path d="M 20.445,59.09 L 24.991,59.09 L 24.991,68.181 L 20.445,68.181 L 20.445,59.09" fill-rule="evenodd" height="9.091" width="4.546" x="20.445" y="59.09"/>
	<path d="M 84.09,40.909 L 88.637,40.909 L 88.637,72.727 L 84.09,72.727 L 84.09,40.909" fill-rule="evenodd" height="31.818" width="4.547" x="84.09" y="40.909"/>
</svg>
