<?xml version="1.0" ?>
<svg xmlns="http://www.w3.org/2000/svg" xmlns:ev="http://www.w3.org/2001/xml-events" xmlns:xlink="http://www.w3.org/1999/xlink" baseProfile="full" enable-background="new -7.283 0 80 100" height="600px" version="1.1" viewBox="-7.283 0 80 100" width="411px" x="0px" xml:space="preserve" y="0px">
	<defs/>
	<path d="M 26.76,32.906 L 26.76,40.844 L 26.76,43.843 L 26.76,47.261 C 29.648000000000003,47.440000000000005 32.93,47.549 36.64,47.549 C 39.741,47.549 42.538,47.471 45.065,47.342 L 45.065,43.760999999999996 L 45.065,40.763999999999996 L 45.065,31.087999999999994 L 60.253,24.835999999999995 C 62.315,23.986999999999995 63.445,21.755999999999993 62.909,19.590999999999994 L 60.083,8.236 C 59.486,5.823 57.052,4.351000000000001 54.632999999999996,4.949000000000001 C 52.22,5.547000000000001 50.748999999999995,7.988000000000001 51.346,10.401 L 53.238,17.990000000000002 L 37.861,24.32 C 37.821,24.337 37.788,24.362000000000002 37.748999999999995,24.38 L 29.396999999999995,24.38 C 29.347999999999995,24.358 29.306999999999995,24.326999999999998 29.256999999999994,24.305999999999997 L 8.879,16.102 C 6.577,15.176 3.9509999999999996,16.29 3.0229999999999997,18.597 C 2.0949999999999998,20.903000000000002 3.211,23.525000000000002 5.518,24.453000000000003 L 25.895,32.657000000000004 C 26.18,32.771 26.47,32.852 26.76,32.906"/>
	<path d="M 39.044,72.155 L 44.257999999999996,52.495000000000005 C 41.81399999999999,52.607000000000006 39.257,52.665000000000006 36.63999999999999,52.665000000000006 C 32.949999999999996,52.665000000000006 29.376999999999995,52.54900000000001 26.07999999999999,52.33200000000001 L 17.90099999999999,69.584 C 17.730999999999987,69.964 17.614999999999988,70.36500000000001 17.55499999999999,70.778 L 14.783999999999988,90.042 C 14.429999999999989,92.502 16.137999999999987,94.782 18.59799999999999,95.138 C 18.814999999999987,95.16900000000001 19.030999999999988,95.18400000000001 19.24399999999999,95.18400000000001 C 21.44699999999999,95.18400000000001 23.37199999999999,93.56700000000001 23.69499999999999,91.32400000000001 L 26.37499999999999,72.68100000000001 L 33.82699999999999,57.05900000000001 L 29.84499999999999,71.82800000000002 C 29.543999999999993,73.02000000000001 29.74599999999999,74.28400000000002 30.40199999999999,75.32600000000002 L 41.58999999999999,93.08200000000002 C 42.444999999999986,94.44000000000003 43.90699999999999,95.18500000000002 45.40199999999999,95.18500000000002 C 46.22099999999999,95.18500000000002 47.05099999999999,94.96100000000001 47.79699999999999,94.49300000000002 C 49.89999999999999,93.16800000000002 50.53099999999999,90.38900000000002 49.20599999999999,88.28400000000002 L 39.044,72.155"/>
	<path d="M 55.532,41.75 C 52.538,41.293 50.016,40.962 46.123,40.764 L 46.123,43.761 C 54.736999999999995,44.199000000000005 58.965999999999994,45.257000000000005 60.914,46.081 C 58.966,46.905 53.679,47.962 45.064,48.401 C 42.538,48.53 39.74,48.608000000000004 36.638999999999996,48.608000000000004 C 32.928999999999995,48.608000000000004 29.646999999999995,48.499 26.758999999999993,48.32000000000001 C 19.002999999999993,47.842000000000006 14.199999999999994,46.858000000000004 12.364999999999993,46.08200000000001 C 14.199999999999992,45.306000000000004 17.943999999999992,44.321000000000005 25.699999999999996,43.84300000000001 L 25.699999999999996,40.84400000000001 C 22.370999999999995,41.04700000000001 20.363999999999997,41.351000000000006 17.746999999999996,41.75000000000001 C 11.349999999999996,42.726000000000006 8.740999999999996,43.98100000000001 8.740999999999996,46.08100000000001 C 8.740999999999996,48.18200000000001 11.349999999999996,49.43600000000001 17.746999999999996,50.41200000000001 C 20.184999999999995,50.78400000000001 23.011999999999997,51.073000000000015 26.078999999999997,51.27500000000001 C 29.375999999999998,51.493000000000016 32.94799999999999,51.60800000000001 36.638999999999996,51.60800000000001 C 39.25599999999999,51.60800000000001 41.812999999999995,51.55000000000001 44.257,51.43800000000001 C 48.465999999999994,51.24900000000001 52.33,50.90000000000001 55.531,50.412000000000006 C 61.927,49.437000000000005 64.537,48.18200000000001 64.537,46.081 C 64.538,43.981 61.929,42.726 55.532,41.75"/>
	<path cx="32.431" cy="15.756" d="M 25.724999999999998,15.756 A 6.706,6.706 0.0 1,0 39.137,15.756 A 6.706,6.706 0.0 1,0 25.725,15.756" r="6.706"/>
</svg>
