<?xml version="1.0" ?>
<svg xmlns="http://www.w3.org/2000/svg" xmlns:ev="http://www.w3.org/2001/xml-events" xmlns:xlink="http://www.w3.org/1999/xlink" baseProfile="full" enable-background="new 0 0 100 100" height="600px" version="1.1" viewBox="0 0 100 100" width="600px" x="0px" xml:space="preserve" y="0px">
	<defs/>
	<path d="M 50.0,0.0 C 22.386,0.0 0.0,22.386 0.0,50.0 C 0.0,77.614 22.386,100.0 50.0,100.0 C 77.614,100.0 100.0,77.614 100.0,50.0 C 100.0,22.385999999999996 77.614,0.0 50.0,0.0 M 50.0,96.0 C 24.595,96.0 4.0,75.404 4.0,50.0 C 4.0,24.595 24.595,4.0 50.0,4.0 C 75.404,4.0 96.0,24.595 96.0,50.0 C 96.0,75.404 75.404,96.0 50.0,96.0"/>
	<path d="M 74.0,45.0 C 71.93299999999999,45.0 69.986,45.495 68.251,46.354 L 64.333,40.298 L 65.767,37.0 L 66.0,37.0 C 67.104,37.0 68.0,36.104 68.0,35.0 C 68.0,33.896 67.104,33.0 66.0,33.0 L 56.0,33.0 C 54.896,33.0 54.0,33.896 54.0,35.0 C 54.0,36.104 54.896,37.0 56.0,37.0 L 62.494,37.0 L 61.842,38.5 L 39.649,38.5 C 40.042,35.736 37.868,34.227000000000004 36.761,33.462 C 36.479000000000006,33.268 36.189,33.067 36.06,32.939 C 35.357,32.236 35.348,31.166 35.637,30.468 C 35.82,30.027 36.205,29.5 37.0,29.5 L 44.0,29.5 C 44.829,29.5 45.5,28.829 45.5,28.0 C 45.5,27.171 44.829,26.5 44.0,26.5 L 37.0,26.5 C 35.143,26.5 33.597,27.555 32.866,29.321 C 32.048,31.295 32.48,33.601 33.94,35.061 C 34.260999999999996,35.382 34.647999999999996,35.649 35.058,35.932 C 36.531,36.949000000000005 36.922,37.42 36.592999999999996,38.469 L 32.651999999999994,46.846000000000004 C 30.704,45.681 28.434,45.0 26.0,45.0 C 18.82,45.0 13.0,50.82 13.0,58.0 C 13.0,65.18 18.82,71.0 26.0,71.0 C 33.18,71.0 39.0,65.18 39.0,58.0 C 39.0,54.359 37.5,51.073 35.088,48.713 L 35.972,46.835 L 52.983000000000004,59.213 C 53.181000000000004,59.358000000000004 53.403000000000006,59.428000000000004 53.629000000000005,59.464 C 53.653000000000006,59.469 53.679,59.471 53.70400000000001,59.475 C 53.75800000000001,59.481 53.81000000000001,59.5 53.864000000000004,59.5 C 53.87800000000001,59.5 53.89000000000001,59.496 53.904,59.495 C 53.92,59.495999999999995 53.934000000000005,59.5 53.95,59.5 L 55.0,59.5 L 61.093,59.5 C 61.838,65.972 67.328,71.0 74.0,71.0 C 81.18,71.0 87.0,65.18 87.0,58.0 C 87.0,50.81999999999999 81.18,45.0 74.0,45.0 M 37.0,58.0 C 37.0,64.075 32.075,69.0 26.0,69.0 C 19.924999999999997,69.0 15.0,64.075 15.0,58.0 C 15.0,51.925 19.925,47.0 26.0,47.0 C 28.13,47.0 30.112000000000002,47.615 31.796,48.664 L 30.9,50.569 C 29.233999999999998,54.136 28.887,54.879000000000005 25.329,56.658 C 24.588,57.029 24.288,57.929 24.658,58.671 C 24.921000000000003,59.196 25.450000000000003,59.5 26.001,59.5 C 26.227,59.5 26.456,59.449 26.671000000000003,59.342 C 31.164,57.096 31.832,55.664 33.618,51.839 L 34.174,50.657 C 35.925,52.605 37.0,55.174 37.0,58.0 M 66.825,49.673 L 71.242,56.5 L 63.114000000000004,56.5 C 63.485,53.781 64.845,51.382 66.825,49.673 M 54.098,56.313 L 37.272,44.071 L 38.481,41.5 L 60.537000000000006,41.5 L 54.098,56.313 M 57.288,56.5 L 62.895999999999994,43.602000000000004 L 65.725,47.974000000000004 C 63.202999999999996,50.05800000000001 61.486999999999995,53.078 61.09199999999999,56.5 L 57.288,56.5 M 74.0,69.0 C 68.435,69.0 63.848,64.863 63.114000000000004,59.5 L 74.0,59.5 C 74.828,59.5 75.5,58.828 75.5,58.0 C 75.5,57.704 75.411,57.43 75.264,57.197 L 75.25999999999999,57.185 L 69.34499999999998,48.044000000000004 C 70.76,47.381 72.334,47.0 74.0,47.0 C 80.075,47.0 85.0,51.925 85.0,58.0 C 85.0,64.075 80.075,69.0 74.0,69.0"/>
</svg>
