<?xml version="1.0" ?>
<svg xmlns="http://www.w3.org/2000/svg" xmlns:ev="http://www.w3.org/2001/xml-events" xmlns:xlink="http://www.w3.org/1999/xlink" baseProfile="full" enable-background="new 0 0 100 100" height="398px" version="1.1" viewBox="0 0 100 100" width="600px" x="0px" xml:space="preserve" y="0px">
	<defs/>
	<path d="M 99.271,46.805 C 99.0,46.604 98.57600000000001,46.805 98.303,46.642 C 98.782,46.087 98.88,45.272000000000006 98.815,44.586000000000006 C 98.608,43.999 98.086,44.455000000000005 97.66199999999999,44.194 C 96.94399999999999,43.542 95.63999999999999,43.77 95.335,42.726 C 94.704,42.138 93.943,41.204 92.942,41.165 C 92.31099999999999,40.289 92.431,38.919 91.70299999999999,38.038 C 90.91999999999999,38.169 91.00699999999999,37.025999999999996 90.39799999999998,36.928999999999995 C 89.67999999999998,36.504999999999995 89.83199999999998,35.205 88.79899999999998,35.364 C 88.30899999999998,34.26 87.00399999999998,34.162 86.62299999999998,32.961 C 85.31799999999997,33.156 85.64399999999998,31.035999999999998 84.28499999999998,31.395 C 83.92699999999998,29.993 82.26299999999998,30.188 82.04499999999999,28.72 C 81.47999999999999,29.012999999999998 81.32699999999998,28.230999999999998 81.10999999999999,27.936999999999998 C 80.31599999999999,27.452999999999996 79.23899999999999,27.583 78.78199999999998,26.473999999999997 C 77.41199999999998,26.995999999999995 77.71699999999998,24.908999999999995 76.59599999999998,25.037999999999997 C 76.03099999999998,24.651999999999997 75.65999999999997,23.836999999999996 74.84499999999997,23.863999999999997 C 74.48699999999997,23.607999999999997 74.05099999999997,22.595999999999997 73.48599999999998,23.183999999999997 C 73.05099999999997,22.791999999999998 72.53999999999998,21.845999999999997 71.87699999999998,22.400999999999996 C 71.33299999999998,21.094999999999995 70.02799999999998,22.139999999999997 69.48399999999998,20.676999999999996 C 68.51599999999998,21.225999999999996 68.21199999999997,19.012999999999995 67.30899999999998,19.958999999999996 C 66.88499999999998,19.599999999999994 66.36299999999999,18.979999999999997 65.85199999999999,19.338999999999995 C 65.42799999999998,18.430999999999994 64.362,19.245999999999995 63.94899999999999,18.332999999999995 C 63.10099999999999,18.783999999999995 62.79699999999999,16.896999999999995 62.07899999999999,18.006999999999994 C 61.306999999999995,18.006999999999994 60.958999999999996,16.668999999999993 60.16499999999999,17.386999999999993 C 59.65299999999999,16.994999999999994 59.142999999999994,16.734999999999992 58.587999999999994,17.223999999999993 C 57.925,17.191999999999993 57.38099999999999,16.114999999999995 56.684999999999995,16.831999999999994 C 55.87,16.146999999999995 54.717,16.962999999999994 53.934,16.146999999999995 C 52.629,16.570999999999994 51.302,16.309999999999995 49.876999999999995,16.374999999999996 C 49.083,17.190999999999995 47.931,16.342999999999996 47.245,17.386999999999997 C 46.027,16.831999999999997 45.974,18.718999999999998 44.788,18.169999999999998 C 43.885,19.311999999999998 42.242999999999995,18.464 41.428,19.828 C 41.123,19.698 40.732,20.122 40.547,20.442 C 40.492,21.062 39.763999999999996,21.003 39.339999999999996,21.225 C 38.97,22.204 37.763,22.954 37.370999999999995,23.802 C 36.587999999999994,24.323999999999998 35.675,24.814 35.401999999999994,25.825 C 34.227999999999994,25.955 34.401999999999994,27.477 33.379999999999995,27.869 C 33.348,28.783 32.29299999999999,28.587 32.141,29.435 C 31.619,29.695999999999998 30.988,30.119999999999997 31.052999999999997,30.837 C 30.650999999999996,31.457 29.345999999999997,31.229 29.747999999999998,32.403 C 29.235999999999997,33.18 28.648999999999997,34.126999999999995 27.833999999999996,34.741 C 28.138999999999996,36.052 26.408999999999995,35.334 26.626999999999995,36.634 C 26.354999999999997,36.96 25.897999999999996,36.862 25.658999999999995,37.319 C 26.137999999999995,38.396 24.690999999999995,38.168 25.082999999999995,39.212 C 24.081999999999994,39.375 24.451999999999995,40.773 23.418999999999993,40.941 C 23.179999999999993,41.463 23.418999999999993,42.502 22.537999999999993,42.502 C 22.145999999999994,43.573 23.505999999999993,43.835 23.723999999999993,44.748000000000005 C 19.307999999999993,47.782000000000004 16.099999999999994,42.008 11.858999999999993,41.720000000000006 C 8.585999999999993,40.736000000000004 5.2249999999999925,39.76800000000001 1.6259999999999923,39.833000000000006 C 1.0179999999999922,40.06100000000001 0.9959999999999923,40.86500000000001 0.8439999999999923,41.333000000000006 C -0.15700000000000758,47.157000000000004 -0.49400000000000777,53.611000000000004 1.1149999999999922,59.440000000000005 C 1.4739999999999922,60.745000000000005 2.169999999999992,61.952000000000005 2.2029999999999923,63.278000000000006 C 8.248999999999992,62.208000000000006 13.707999999999993,58.72200000000001 18.851999999999993,54.916000000000004 C 20.363999999999994,54.035000000000004 22.451999999999995,53.937000000000005 24.081999999999994,54.68300000000001 C 24.146999999999995,55.63400000000001 23.211999999999993,57.03200000000001 24.505999999999993,57.74400000000001 C 24.234999999999992,59.114000000000004 26.256999999999994,58.141000000000005 25.658999999999992,59.702000000000005 C 25.96399999999999,61.132000000000005 27.80099999999999,60.746 27.833999999999993,62.273 C 28.203999999999994,62.953 29.595999999999993,62.703 29.290999999999993,63.899 C 29.64999999999999,64.883 31.052999999999994,64.003 30.986999999999995,65.302 C 32.43299999999999,65.171 31.715999999999994,67.52000000000001 33.379999999999995,67.031 C 33.651999999999994,67.977 34.13099999999999,68.956 35.196,68.983 C 35.858999999999995,69.28200000000001 35.283,70.414 36.184999999999995,70.321 C 36.586999999999996,70.321 37.01199999999999,70.359 37.163999999999994,70.77199999999999 C 37.28399999999999,71.136 37.132,71.75099999999999 37.642999999999994,71.81599999999999 C 38.458999999999996,71.55499999999999 38.675999999999995,72.43599999999999 38.96999999999999,72.89299999999999 C 39.306999999999995,72.99099999999999 39.67699999999999,72.99099999999999 39.98199999999999,73.21899999999998 C 40.187999999999995,74.36099999999998 41.15599999999999,74.75199999999998 42.15699999999999,74.78399999999998 C 42.37499999999999,75.27299999999998 42.33099999999999,76.15399999999998 43.09299999999999,76.02399999999997 C 43.54899999999999,75.99099999999997 43.94099999999999,76.05599999999997 44.27799999999999,76.34399999999997 C 44.21399999999999,76.70299999999996 44.29999999999999,77.09499999999997 44.63699999999999,77.18699999999997 C 45.212999999999994,77.31799999999997 46.18099999999999,76.87199999999997 46.245999999999995,77.80699999999997 C 46.300999999999995,78.75799999999997 47.507999999999996,78.36799999999998 48.11599999999999,78.69399999999997 C 47.974999999999994,80.51499999999997 50.47599999999999,78.60099999999997 50.30299999999999,80.31899999999997 C 50.84599999999999,80.77599999999997 51.93399999999999,79.63399999999997 51.59699999999999,81.03699999999998 C 51.84699999999999,81.46199999999997 52.42299999999999,80.97299999999998 52.84699999999999,81.03699999999998 C 53.021999999999984,81.36299999999997 52.98899999999999,81.81999999999998 53.499999999999986,81.72299999999998 L 54.597999999999985,81.42399999999998 C 54.83699999999998,81.65699999999998 54.66299999999998,82.56599999999997 55.228999999999985,82.11399999999998 L 56.261999999999986,81.59199999999997 C 56.34899999999999,83.12499999999997 57.838999999999984,81.16799999999996 58.131999999999984,82.37499999999997 C 58.80699999999998,82.60399999999997 59.350999999999985,81.33099999999997 59.95899999999998,81.88599999999997 C 60.40499999999998,81.85399999999997 60.82899999999998,81.36399999999996 61.25299999999998,81.10299999999997 C 61.372999999999976,81.72299999999997 61.88399999999998,81.65799999999997 62.28599999999998,81.33199999999997 C 62.64499999999998,80.93999999999997 62.98199999999998,80.54899999999996 63.43899999999998,80.41899999999997 L 63.677999999999976,80.87499999999997 C 64.27599999999998,80.81099999999998 64.64599999999997,79.96199999999997 65.13499999999998,79.70099999999996 L 65.54799999999997,80.25599999999997 C 66.42899999999997,79.57599999999996 67.12499999999997,78.16699999999997 68.31099999999998,78.60299999999997 C 68.84299999999998,78.39599999999997 69.12599999999998,77.18899999999996 69.70299999999997,77.90699999999997 C 70.57299999999998,77.35799999999996 71.09499999999997,75.27499999999996 72.38999999999997,75.86299999999997 C 72.87899999999998,75.01399999999997 73.38999999999997,74.16599999999997 73.91199999999998,73.28499999999997 C 74.05299999999998,73.38399999999997 74.20499999999998,73.80699999999997 74.33599999999998,73.51399999999997 C 75.64099999999999,71.39399999999996 76.69499999999998,69.15399999999997 77.54399999999998,66.80399999999997 C 78.80599999999998,65.69599999999997 80.29499999999999,64.81499999999997 81.68799999999999,63.83499999999997 C 82.13299999999998,64.46099999999997 81.481,65.30399999999997 81.38299999999998,66.02199999999998 C 81.20899999999997,66.73999999999998 80.56799999999998,67.29399999999998 80.80699999999999,68.20799999999997 C 81.50199999999998,68.56599999999997 81.71999999999998,69.67599999999997 82.48199999999999,69.86599999999997 C 83.99399999999999,67.39199999999997 84.37399999999998,64.46199999999997 84.37399999999998,61.32999999999997 L 87.40799999999999,57.97499999999997 L 87.49499999999999,57.485999999999976 C 90.83399999999999,56.049999999999976 93.60699999999999,53.125999999999976 96.48899999999999,50.552999999999976 L 97.207,50.31999999999998 C 98.088,49.30799999999998 99.24,48.91699999999998 100.00099999999999,47.81799999999998 C 99.968,47.354 99.642,46.935 99.271,46.805"/>
</svg>
