<?xml version="1.0" ?>
<svg xmlns="http://www.w3.org/2000/svg" xmlns:ev="http://www.w3.org/2001/xml-events" xmlns:xlink="http://www.w3.org/1999/xlink" baseProfile="full" enable-background="new 0 0 100 100" height="223px" version="1.1" viewBox="0 0 100 100" width="600px" x="0px" xml:space="preserve" y="0px">
	<defs/>
	<path d="M 71.926,39.02 C 71.653,41.017 69.683,42.548 68.09700000000001,43.637 C 66.19300000000001,44.326 64.22300000000001,44.999 62.35300000000001,45.705 C 58.46800000000001,46.875 54.24600000000001,47.477 50.17500000000001,47.97 C 46.19300000000001,48.183 41.83800000000001,48.494 37.921000000000014,47.838 C 37.25400000000001,48.571 36.42200000000001,49.129 35.41600000000001,49.168 C 34.15700000000001,49.025 32.84500000000001,48.971 31.70700000000001,48.555 C 31.783000000000012,48.238 32.24300000000001,48.227 32.494000000000014,47.97 C 32.82200000000002,47.696999999999996 33.381000000000014,47.449999999999996 33.424000000000014,47.051 C 31.105000000000015,46.734 28.709000000000014,46.591 26.510000000000012,45.973 L 25.854000000000013,46.493 C 25.241000000000014,46.821000000000005 25.011000000000013,47.697 24.278000000000013,47.664 C 21.597000000000012,46.476 18.840000000000014,45.443 16.018000000000015,44.644 C 15.865000000000014,44.141 16.433000000000014,43.911 16.466000000000015,43.495 C 15.032000000000016,43.352999999999994 13.775000000000016,42.690999999999995 12.297000000000015,42.751999999999995 C 12.035000000000014,42.86599999999999 11.926000000000014,43.123999999999995 11.609000000000014,43.123999999999995 C 10.361000000000015,43.955 9.355000000000015,45.272999999999996 7.965000000000014,45.848 C 5.427000000000014,46.724 2.9100000000000144,47.796 0.05500000000001393,47.698 C -0.22999999999998605,46.992 0.6780000000000139,46.779 1.018000000000014,46.363 C 2.429000000000014,44.185 4.694000000000014,42.507 6.565000000000014,40.717 C 4.913000000000014,39.552 3.1290000000000138,38.49 1.773000000000014,36.903999999999996 C 1.1160000000000139,35.711999999999996 0.11000000000001386,34.677 0.12100000000001399,33.217 C 0.10000000000001398,33.118 0.16500000000001397,32.958999999999996 0.296000000000014,33.003 C 0.384000000000014,33.047 0.35100000000001397,33.129 0.373000000000014,33.217 C 1.040000000000014,33.835 1.860000000000014,34.092 2.703000000000014,34.321 C 2.724000000000014,34.278 2.791000000000014,34.266 2.779000000000014,34.207 C 2.736000000000014,34.306 2.8340000000000143,34.321 2.8780000000000143,34.382 C 5.361000000000015,35.126 7.725000000000015,36.111 9.935000000000015,37.516999999999996 L 13.885000000000016,37.17699999999999 L 21.281000000000017,36.312999999999995 L 21.554000000000016,36.17099999999999 C 21.838000000000015,36.21499999999999 22.297000000000015,36.257999999999996 22.582000000000015,36.099999999999994 C 25.350000000000016,36.01199999999999 28.063000000000017,35.367 30.810000000000016,35.010999999999996 L 30.941000000000017,34.897 C 30.569000000000017,34.190999999999995 30.055000000000017,33.535 29.497000000000018,32.905 C 29.552000000000017,32.829 29.673000000000016,32.774 29.738000000000017,32.703 C 30.384000000000018,32.747 30.668000000000017,31.959000000000003 31.336000000000016,32.041000000000004 C 31.599000000000018,31.544000000000004 32.20000000000002,31.669000000000004 32.594000000000015,31.357000000000003 C 33.51300000000001,31.084000000000003 34.18100000000002,30.394000000000002 34.94700000000002,29.803000000000004 C 35.29700000000002,29.677000000000003 35.70200000000002,29.464000000000006 35.89800000000002,29.092000000000006 C 36.52200000000002,29.163000000000007 36.56600000000002,28.184000000000005 37.21100000000002,28.430000000000007 C 38.929000000000016,30.093000000000007 39.89200000000002,32.05700000000001 41.06300000000002,33.934000000000005 C 44.213000000000015,33.737 47.496000000000016,33.419000000000004 50.658000000000015,33.934000000000005 L 57.52900000000002,34.792 C 59.73900000000002,35.355000000000004 62.048000000000016,35.64 64.27900000000002,36.144 C 65.41800000000002,36.373 66.57700000000003,36.647 67.68200000000003,36.833 C 68.71000000000004,37.533 70.19900000000003,37.101 71.19400000000003,37.861 C 71.30300000000003,38.189 71.11800000000004,38.620999999999995 71.16200000000003,38.964999999999996 L 71.80800000000004,38.964999999999996 L 71.926,39.02 M 99.901,56.542 L 99.333,56.542 C 99.3,56.241 99.464,55.863 99.365,55.573 C 98.49,54.911 97.18799999999999,55.289 96.291,54.676 C 95.328,54.512 94.31099999999999,54.278 93.315,54.074000000000005 C 91.356,53.632000000000005 89.343,53.385000000000005 87.407,52.892 L 81.389,52.137 C 78.63199999999999,51.689 75.75399999999999,51.968 72.997,52.137 C 71.969,50.496 71.126,48.779 69.627,47.324 C 69.05799999999999,47.11 69.02499999999999,47.964 68.479,47.903999999999996 C 68.315,48.226 67.954,48.418 67.647,48.526999999999994 C 66.98,49.041999999999994 66.38900000000001,49.642999999999994 65.59,49.882999999999996 C 65.251,50.156 64.726,50.047 64.485,50.486 C 63.906,50.409 63.653999999999996,51.098 63.095,51.059999999999995 C 63.03,51.12499999999999 62.931,51.17399999999999 62.876,51.24099999999999 C 63.369,51.78799999999999 63.817,52.361999999999995 64.146,52.97999999999999 L 64.037,53.08399999999999 C 61.61900000000001,53.39599999999999 59.25600000000001,53.95999999999999 56.83800000000001,54.03599999999999 C 56.586000000000006,54.17299999999999 56.18200000000001,54.134999999999984 55.93000000000001,54.09699999999999 L 55.690000000000005,54.222999999999985 L 49.223000000000006,54.97799999999999 L 45.766000000000005,55.27299999999999 C 43.82900000000001,54.04699999999999 41.76200000000001,53.18299999999999 39.584,52.53299999999999 C 39.551,52.47799999999999 39.464000000000006,52.466999999999985 39.508,52.37999999999999 C 39.519000000000005,52.43499999999999 39.453,52.43999999999999 39.442,52.478999999999985 C 38.699,52.28199999999998 37.987,52.05699999999999 37.396,51.515999999999984 C 37.385,51.438999999999986 37.408,51.36799999999998 37.331,51.328999999999986 C 37.222,51.29099999999999 37.156000000000006,51.42799999999998 37.178000000000004,51.515999999999984 C 37.167,52.789999999999985 38.054,53.698999999999984 38.62200000000001,54.737999999999985 C 39.81400000000001,56.127999999999986 41.36800000000001,57.05699999999999 42.812000000000005,58.07499999999999 C 41.182,59.63899999999999 39.202000000000005,61.11099999999999 37.965,63.014999999999986 C 37.669000000000004,63.380999999999986 36.871,63.566999999999986 37.122,64.18499999999999 C 39.617,64.26699999999998 41.827,63.33099999999999 44.037,62.56599999999999 C 45.263,62.06299999999999 46.138,60.90899999999999 47.231,60.18099999999999 C 47.504000000000005,60.18099999999999 47.603,59.95599999999999 47.834,59.85799999999999 C 49.125,59.80299999999999 50.219,60.38299999999999 51.477000000000004,60.50899999999999 C 51.456,60.86999999999999 50.953,61.071999999999996 51.094,61.50999999999999 C 53.556000000000004,62.209999999999994 55.963,63.11799999999999 58.316,64.15299999999999 C 58.95,64.18499999999999 59.158,63.419999999999995 59.694,63.12999999999999 L 60.274,62.67599999999999 C 62.189,63.21799999999999 64.29,63.34399999999999 66.313,63.61699999999999 C 66.281,63.96699999999999 65.789,64.18499999999999 65.503,64.42099999999999 C 65.284,64.64599999999999 64.88,64.65599999999999 64.81400000000001,64.93599999999999 C 65.81,65.297 66.959,65.34599999999999 68.05300000000001,65.472 C 68.93900000000001,65.439 69.66100000000002,64.952 70.25200000000001,64.30699999999999 C 73.67600000000002,64.88099999999999 77.49400000000001,64.61299999999999 80.974,64.42099999999999 C 84.54,63.99399999999999 88.22800000000001,63.46399999999999 91.63000000000001,62.440999999999995 C 93.272,61.82299999999999 94.989,61.23799999999999 96.65200000000002,60.629999999999995 C 98.04200000000002,59.678999999999995 99.75900000000001,58.337999999999994 100.00000000000001,56.592999999999996 L 99.901,56.542"/>
</svg>
