<?xml version="1.0" ?>
<svg xmlns="http://www.w3.org/2000/svg" xmlns:ev="http://www.w3.org/2001/xml-events" xmlns:xlink="http://www.w3.org/1999/xlink" baseProfile="full" enable-background="new 0 0 100 80.555" height="484px" version="1.1" viewBox="0 0 100 80.555" width="600px" x="0px" xml:space="preserve" y="0px">
	<defs/>
	<path d="M 90.63,33.119 L 63.89,22.221 L 37.147,33.119 L 27.777,56.945 L 33.333,56.945 L 33.333,80.555 L 52.777,80.555 L 52.777,58.333 L 75.0,58.333 L 75.0,80.555 L 94.444,80.555 L 94.444,56.94500000000001 L 100.0,56.94500000000001 L 90.63,33.119 M 69.444,47.222 L 58.333,47.222 L 58.333,36.111 L 69.444,36.111 L 69.444,47.222"/>
	<path d="M 33.333,16.667 C 33.333,7.462 25.871,0.0 16.667,0.0 C 7.462,0.0 0.0,7.462 0.0,16.667 L 0.0,80.555 L 10.667,80.555 L 27.778,80.555 L 27.778,62.5 L 19.624,62.5 L 33.334,27.609 L 33.334,16.667 L 33.333,16.667"/>
</svg>
