<?xml version="1.0" ?>
<svg xmlns="http://www.w3.org/2000/svg" xmlns:ev="http://www.w3.org/2001/xml-events" xmlns:xlink="http://www.w3.org/1999/xlink" baseProfile="full" enable-background="new 0 0 83.192 100" height="600px" version="1.1" viewBox="0 0 83.192 100" width="500px" x="0px" xml:space="preserve" y="0px">
	<defs/>
	<path d="M 74.513,62.78 L 74.513,45.967 C 74.513,43.583 76.46600000000001,41.64 78.86500000000001,41.64 C 81.25600000000001,41.64 83.19200000000001,43.583 83.19200000000001,45.967 L 83.19200000000001,68.991 C 83.19200000000001,72.175 82.045,75.247 79.99000000000001,77.649 L 65.631,92.897 C 64.208,94.23700000000001 63.857,95.42500000000001 63.857,97.22500000000001 L 63.857,100.0 L 48.232,100.0 L 48.213,93.396 C 48.213,90.88 48.008,87.52 51.158,84.22200000000001 L 69.375,65.93 C 70.021,65.304 70.875,64.962 71.775,64.962 C 73.68,64.962 75.23100000000001,66.50800000000001 75.23100000000001,68.411 C 75.23100000000001,69.233 74.93900000000001,70.031 74.40800000000002,70.659 L 65.62200000000001,80.07100000000001 C 65.05500000000002,80.73900000000002 64.09100000000001,81.99900000000001 63.61100000000001,83.54200000000002 C 63.35100000000001,84.34000000000002 63.27700000000001,85.12200000000001 63.265000000000015,86.01600000000002 L 66.09000000000002,86.01600000000002 C 66.10300000000002,85.37800000000001 66.15000000000002,84.86700000000002 66.30200000000002,84.39100000000002 C 66.57900000000002,83.49900000000002 67.13000000000002,82.70100000000002 67.54300000000002,82.18800000000002 L 76.46500000000002,72.39900000000002 C 77.58700000000002,71.26900000000002 78.19900000000001,69.80200000000002 78.19900000000001,68.26500000000001 C 78.201,65.954 76.811,63.829 74.513,62.78"/>
	<path d="M 8.678,62.78 L 8.678,45.967 C 8.678,43.583 6.724000000000001,41.64 4.325000000000001,41.64 C 1.935,41.641 0.0,43.583 0.0,45.967 L 0.0,68.991 C 0.0,72.175 1.146,75.247 3.201,77.649 L 17.559,92.895 C 18.983,94.237 19.331,95.425 19.331,97.225 L 19.331,100.0 L 34.959,100.0 L 34.977000000000004,93.396 C 34.977000000000004,90.88 35.18300000000001,87.52 32.034000000000006,84.22200000000001 L 13.819,65.931 C 13.167000000000002,65.306 12.315000000000001,64.965 11.417000000000002,64.965 C 9.511000000000001,64.965 7.959000000000001,66.51100000000001 7.959000000000001,68.413 C 7.959000000000001,69.235 8.251000000000001,70.03399999999999 8.782000000000002,70.661 L 17.571,80.074 C 18.139000000000003,80.741 19.102,81.999 19.581000000000003,83.542 C 19.839000000000002,84.34100000000001 19.912000000000003,85.122 19.928000000000004,86.017 L 17.100000000000005,86.017 C 17.088000000000005,85.378 17.040000000000006,84.86699999999999 16.889000000000006,84.39099999999999 C 16.613000000000007,83.49999999999999 16.061000000000007,82.70299999999999 15.647000000000006,82.19099999999999 L 6.725000000000005,72.39899999999999 C 5.602000000000005,71.26899999999999 4.991000000000005,69.80199999999999 4.991000000000005,68.26499999999999 C 4.99,65.954 6.377,63.829 8.678,62.78"/>
	<path d="M 26.565,16.303 C 28.082,17.314 29.802,18.461000000000002 29.802,19.428 C 29.802,21.083000000000002 28.762999999999998,22.622 27.759999999999998,24.109 C 26.717,25.657000000000004 25.637999999999998,27.257 25.637999999999998,29.142000000000003 L 29.802,29.142000000000003 C 29.802,28.530000000000005 30.518,27.466000000000005 31.213,26.436000000000003 C 32.437,24.619000000000003 33.963,22.357000000000003 33.963,19.428000000000004 C 33.963,16.233000000000004 31.142,14.351000000000004 28.875,12.840000000000003 C 27.357,11.828000000000003 25.637999999999998,10.682000000000004 25.637999999999998,9.715000000000003 C 25.637999999999998,8.393000000000004 26.270999999999997,7.482000000000003 27.302999999999997,6.107000000000003 C 28.417,4.623 29.802,2.776 29.802,0.0 L 25.637999999999998,0.0 C 25.637999999999998,1.322 25.005,2.233 23.971999999999998,3.608 C 22.858999999999998,5.0920000000000005 21.473999999999997,6.939 21.473999999999997,9.715 C 21.475,12.91 24.297,14.791 26.565,16.303"/>
	<path d="M 40.443,16.303 C 41.958999999999996,17.314 43.677,18.461000000000002 43.677,19.428 C 43.677,21.083000000000002 42.641,22.622 41.638,24.109 C 40.594,25.657000000000004 39.515,27.257 39.515,29.142000000000003 L 43.677,29.142000000000003 C 43.677,28.530000000000005 44.396,27.466000000000005 45.088,26.436000000000003 C 46.315,24.619000000000003 47.841,22.357000000000003 47.841,19.428000000000004 C 47.841,16.233000000000004 45.018,14.351000000000004 42.75,12.840000000000003 C 41.234,11.828000000000003 39.515,10.682000000000004 39.515,9.715000000000003 C 39.515,8.393000000000004 40.148,7.482000000000003 41.179,6.107000000000003 C 42.293,4.623 43.677,2.776 43.677,0.0 L 39.515,0.0 C 39.515,1.322 38.882,2.233 37.848,3.608 C 36.736,5.0920000000000005 35.35,6.939 35.35,9.715 C 35.352,12.91 38.174,14.791 40.443,16.303"/>
	<path d="M 54.318,16.303 C 55.836999999999996,17.314 57.555,18.461000000000002 57.555,19.428 C 57.555,21.083000000000002 56.517,22.622 55.514,24.109 C 54.471000000000004,25.657000000000004 53.391000000000005,27.257 53.391000000000005,29.142000000000003 L 57.55500000000001,29.142000000000003 C 57.55500000000001,28.530000000000005 58.272000000000006,27.466000000000005 58.96600000000001,26.436000000000003 C 60.19200000000001,24.619000000000003 61.717000000000006,22.357000000000003 61.717000000000006,19.428000000000004 C 61.717000000000006,16.233000000000004 58.89600000000001,14.351000000000004 56.62700000000001,12.840000000000003 C 55.11000000000001,11.828000000000003 53.39100000000001,10.682000000000004 53.39100000000001,9.715000000000003 C 53.39100000000001,8.393000000000004 54.024000000000015,7.482000000000003 55.05700000000001,6.107000000000003 C 56.169,4.623 57.555,2.776 57.555,0.0 L 53.391,0.0 C 53.391,1.322 52.757999999999996,2.233 51.727,3.608 C 50.614,5.0920000000000005 49.229,6.939 49.229,9.715 C 49.229,12.91 52.051,14.791 54.318,16.303"/>
	<path d="M 72.462,25.957 C 67.00200000000001,28.867 61.544000000000004,31.78 56.083,34.693 L 13.842999999999996,34.693 C 13.842999999999996,44.974 20.769999999999996,52.101 29.105999999999995,55.663 L 29.105999999999995,56.894 C 29.105999999999995,57.661 29.726999999999993,58.282 30.493999999999993,58.282 L 52.69699999999999,58.282 C 53.46499999999999,58.282 54.08599999999999,57.660999999999994 54.08599999999999,56.894 L 54.08599999999999,55.663 C 62.42299999999999,52.101 69.34899999999999,44.974 69.34899999999999,34.693 L 64.922,34.693 C 68.13499999999999,32.977999999999994 71.34899999999999,31.266 74.563,29.551 C 76.932,28.288 74.831,24.694 72.462,25.957"/>
</svg>
