<?xml version="1.0" ?>
<svg xmlns="http://www.w3.org/2000/svg" xmlns:ev="http://www.w3.org/2001/xml-events" xmlns:xlink="http://www.w3.org/1999/xlink" baseProfile="full" enable-background="new 0 0 65.18 100" height="600px" version="1.1" viewBox="0 0 65.18 100" width="392px" x="0px" xml:space="preserve" y="0px">
	<defs/>
	<path d="M 35.479,39.365 C 35.311,39.814 35.202,40.275 35.155,40.744 C 35.102000000000004,41.262 35.116,41.783 35.212,42.299 C 35.27,42.608 35.343,42.916 35.453,43.217 C 35.968,44.609 36.992000000000004,45.716 38.341,46.336 C 39.075,46.674 39.855000000000004,46.844 40.656,46.844 C 41.652,46.844 42.605,46.565 43.437,46.08 C 43.887,45.818 44.3,45.495999999999995 44.663999999999994,45.116 C 44.989,44.777 45.269999999999996,44.391 45.50299999999999,43.971 C 45.56999999999999,43.849999999999994 45.645999999999994,43.733999999999995 45.70399999999999,43.605999999999995 C 45.70399999999999,43.605999999999995 56.782,19.507999999999996 56.806,19.458999999999996 C 56.829,19.406999999999996 57.14,18.484999999999996 57.205999999999996,18.113999999999997 C 57.641,15.685999999999996 56.422999999999995,13.172999999999998 54.07899999999999,12.093999999999998 C 53.346999999999994,11.755999999999998 52.56699999999999,11.585999999999999 51.76599999999999,11.585999999999999 C 50.07799999999999,11.585999999999999 48.50799999999999,12.365999999999998 47.465999999999994,13.637999999999998 C 47.172999999999995,13.996999999999998 46.91499999999999,14.387999999999998 46.717999999999996,14.820999999999998 C 46.718999999999994,14.816999999999998 46.72,14.812999999999999 46.721999999999994,14.809999999999999 L 46.715999999999994,14.822 C 46.714999999999996,14.822999999999999 46.71399999999999,14.825999999999999 46.711999999999996,14.828 L 35.616,38.97 C 35.558,39.099 35.527,39.233 35.479,39.365"/>
	<path d="M 40.476,12.83 C 40.711,13.066 40.864,13.374 40.976,13.711 C 41.239,14.51 41.195,15.533000000000001 40.977,16.57 C 40.864999999999995,17.099 40.714999999999996,17.624 40.535,18.121 C 40.467,18.311999999999998 40.397999999999996,18.505 40.321,18.685 C 40.208,18.959999999999997 40.059,19.279999999999998 39.887,19.618 C 38.383,22.593 34.513,27.592999999999996 25.424,27.903 C 25.419,27.903 25.412,27.904 25.407,27.904 L 21.62,35.79 C 23.986,36.349 28.197000000000003,37.671 31.847,40.519999999999996 L 44.192,13.660999999999994 C 44.394,13.222999999999994 44.512,12.771999999999995 44.593,12.316999999999995 C 45.025000000000006,9.885999999999996 43.81,7.371999999999995 41.466,6.294999999999995 C 40.732,5.958999999999994 39.952,5.786999999999995 39.153,5.786999999999995 C 37.464999999999996,5.786999999999995 35.896,6.5659999999999945 34.855,7.838999999999995 C 34.559,8.197999999999995 34.300999999999995,8.589999999999995 34.101,9.022999999999994 C 34.103,9.018999999999995 34.103,9.016999999999994 34.107,9.012999999999995 L 34.101,9.022999999999994 L 34.098,9.029999999999994 L 32.538,12.424999999999994 L 40.06999999999999,12.424999999999994 L 40.476,12.83"/>
	<path d="M 25.861,12.424 L 27.213,12.424 L 29.481,12.424 L 31.568,7.874999999999999 C 31.768,7.436999999999999 31.887,6.984999999999999 31.967000000000002,6.530999999999999 C 32.400000000000006,4.1019999999999985 31.185000000000002,1.5879999999999992 28.841,0.5099999999999989 C 28.105,0.174 27.327,0.0 26.527,0.0 C 24.839000000000002,0.0 23.269000000000002,0.781 22.228,2.053 C 21.935000000000002,2.412 21.676000000000002,2.804 21.477,3.238 C 21.477,3.2399999999999998 21.473,3.242 21.473,3.2439999999999998 L 17.259999999999998,12.424 L 21.874,12.424 L 25.861,12.424"/>
	<path d="M 65.18,33.276 C 65.18,32.652 64.83200000000001,31.361000000000004 64.81800000000001,31.349000000000004 C 64.03300000000002,29.234 62.01300000000001,27.721000000000004 59.62700000000001,27.721000000000004 C 59.12600000000001,27.721000000000004 58.64800000000001,27.809000000000005 58.18600000000001,27.934000000000005 C 57.38300000000001,28.150000000000006 56.65800000000001,28.541000000000004 56.041000000000004,29.065000000000005 C 55.31700000000001,29.682000000000006 54.759,30.470000000000006 54.426,31.380000000000006 C 54.422000000000004,31.392000000000007 54.42,31.406000000000006 54.414,31.418000000000006 L 47.475,46.40800000000001 L 47.477000000000004,46.40800000000001 C 47.272000000000006,46.85500000000001 47.169000000000004,47.321000000000005 47.145,47.78500000000001 C 47.137,47.95100000000001 47.145,48.11500000000001 47.158,48.27700000000001 C 47.264,49.58200000000001 48.046,50.79500000000001 49.318,51.38000000000001 C 49.922,51.65900000000001 50.573,51.74200000000001 51.208,51.67700000000001 C 52.036,51.59100000000001 52.835,51.245000000000005 53.449999999999996,50.681000000000004 C 53.745,50.410000000000004 53.989,50.081 54.181,49.719 L 57.785999999999994,41.932 L 60.306999999999995,43.095 L 60.556999999999995,42.552 L 56.815,50.695 L 56.809,50.707 C 56.747,50.842 56.672,50.966 56.598,51.093 C 56.443,51.371 56.271,51.641000000000005 56.08,51.892 C 55.689,52.411 55.22,52.859 54.701,53.235 C 53.695,53.967999999999996 52.488,54.418 51.207,54.482 C 51.096000000000004,54.489 50.989,54.503 50.88,54.503 L 50.879000000000005,54.503 C 49.93600000000001,54.503 49.02,54.301 48.156000000000006,53.905 C 46.864000000000004,53.309000000000005 45.87200000000001,52.339 45.220000000000006,51.185 C 44.906000000000006,50.628 44.68300000000001,50.028000000000006 44.54200000000001,49.404 C 44.48900000000001,49.17100000000001 44.44600000000001,48.938 44.41900000000001,48.699000000000005 C 43.98900000000001,48.919000000000004 43.54700000000001,49.111000000000004 43.08200000000001,49.254000000000005 C 42.306000000000004,49.492000000000004 41.489000000000004,49.62200000000001 40.65700000000001,49.62200000000001 C 40.65700000000001,49.62200000000001 40.65700000000001,49.62200000000001 40.65600000000001,49.62200000000001 C 39.69100000000001,49.62200000000001 39.046000000000014,49.45000000000001 38.14500000000001,49.12500000000001 C 38.65700000000001,50.80100000000001 38.97600000000001,52.653000000000006 38.97600000000001,54.75500000000001 L 38.97600000000001,65.281 L 36.19900000000001,65.281 L 36.19900000000001,54.755 C 36.19900000000001,52.234 35.411000000000016,50.099000000000004 34.60100000000001,48.277 C 30.807000000000013,39.732 19.972000000000016,38.254000000000005 19.41900000000001,38.185 L 17.50500000000001,37.945 L 23.65100000000001,25.143 L 24.52600000000001,25.143 C 24.75800000000001,25.143 24.95600000000001,25.114 25.17800000000001,25.108 C 25.71600000000001,25.092000000000002 26.252000000000013,25.075 26.746000000000013,25.024 C 32.04300000000001,24.475 34.94900000000001,22.006 36.485000000000014,19.889000000000003 C 36.618000000000016,19.706000000000003 36.734000000000016,19.522000000000002 36.85100000000001,19.341 C 37.12300000000001,18.915000000000003 37.350000000000016,18.499000000000002 37.54100000000001,18.093 C 37.76000000000001,17.63 37.930000000000014,17.187 38.058000000000014,16.78 C 38.253000000000014,16.152 38.356000000000016,15.606000000000002 38.38600000000002,15.202000000000002 L 15.408,15.202000000000002 C 12.658,15.202000000000002 10.254,16.66 8.908,18.842000000000002 C 8.594,19.352000000000004 8.336,19.898000000000003 8.145999999999999,20.477000000000004 L 0.927999999999999,35.95700000000001 L 0.556999999999999,36.75300000000001 C 0.201,37.635 0.0,38.597 0.0,39.608 C 0.0,40.989999999999995 0.373,42.282999999999994 1.014,43.401999999999994 L 1.795,44.52199999999999 L 19.533,68.01299999999999 L 19.533,99.99699999999999 L 52.864000000000004,99.99699999999999 L 52.864000000000004,100.0 L 55.641000000000005,100.0 L 55.64300000000001,76.39099999999999 L 64.46400000000001,58.43399999999999 C 64.58800000000001,58.21099999999999 64.70700000000001,57.98799999999999 64.80100000000002,57.74699999999999 C 65.03300000000002,57.15299999999999 65.16800000000002,56.51199999999999 65.17900000000002,55.83899999999999 C 65.181,55.805 65.18,33.276 65.18,33.276"/>
	<path d="M 31.578,7.861 L 31.581,7.854 L 31.578,7.861 L 31.573,7.874 L 31.578,7.861" points="31.578,7.861 31.581,7.854 31.578,7.861 31.573,7.874 "/>
	<path d="M 55.551,28.84 L 55.55,28.84 L 55.55,28.841 L 55.551,28.84" points="55.551,28.84 55.55,28.84 55.55,28.841 "/>
	<path d="M 44.949,45.252 L 44.952,45.248 L 44.95,45.249 L 44.949,45.252" points="44.949,45.252 44.952,45.248 44.95,45.249 "/>
	<path d="M 44.954,45.241 L 44.952,45.245 L 44.952,45.246 L 44.954,45.241" points="44.954,45.241 44.952,45.245 44.952,45.246 "/>
</svg>
