<?xml version="1.0" ?>
<svg xmlns="http://www.w3.org/2000/svg" xmlns:ev="http://www.w3.org/2001/xml-events" xmlns:xlink="http://www.w3.org/1999/xlink" baseProfile="full" enable-background="new 0 0 18 18" height="600px" version="1.1" viewBox="0 0 18 18" width="600px" x="0px" xml:space="preserve" y="0px">
	<defs/>
	<path d="M 18.0,9.0 C 18.0,8.662 17.978,8.329 17.941,8.0 L 16.93,8.0 C 16.479,4.383 13.617,1.521 10.0,1.069 L 10.0,0.059 C 9.671,0.022 9.338,0.0 9.0,0.0 C 8.662,0.0 8.329,0.022 8.0,0.059 L 8.0,1.0699999999999998 C 4.383,1.521 1.521,4.383 1.069,8.0 L 0.059,8.0 C 0.022,8.329 0.0,8.662 0.0,9.0 C 0.0,9.338 0.022,9.671 0.059,10.0 L 1.0699999999999998,10.0 C 1.521,13.617 4.383,16.479 8.0,16.931 L 8.0,17.942 C 8.329,17.978 8.662,18.0 9.0,18.0 C 9.338,18.0 9.671,17.978 10.0,17.941 L 10.0,16.93 C 13.616,16.477999999999998 16.479,13.616999999999999 16.931,10.0 L 17.942,10.0 C 17.978,9.672 18.0,9.339 18.0,9.0 M 10.0,14.91 L 10.0,14.0 C 10.0,13.447 9.552,13.0 9.0,13.0 C 8.448,13.0 8.0,13.447 8.0,14.0 L 8.0,14.91 C 5.49,14.488 3.513,12.512 3.091,10.001000000000001 L 4.0,10.0 C 4.553,10.0 5.0,9.552 5.0,9.0 C 5.0,8.448 4.553,8.0 4.0,8.0 L 3.09,8.0 C 3.513,5.49 5.49,3.513 8.0,3.09 L 8.0,4.0 C 8.0,4.552 8.448,5.0 9.0,5.0 C 9.552,5.0 10.0,4.552 10.0,4.0 L 10.0,3.09 C 12.511,3.512 14.488,5.489 14.91,8.0 L 14.0,8.0 C 13.447,8.0 13.0,8.448 13.0,9.0 C 13.0,9.552 13.447,10.0 14.0,10.0 L 14.91,10.001 C 14.487,12.512 12.511,14.488 10.0,14.91"/>
</svg>
