<?xml version="1.0" ?>
<svg xmlns="http://www.w3.org/2000/svg" xmlns:ev="http://www.w3.org/2001/xml-events" xmlns:xlink="http://www.w3.org/1999/xlink" baseProfile="full" enable-background="new 0 0 90 60" height="401px" version="1.1" viewBox="0 0 90 60" width="600px" x="0px" xml:space="preserve" y="0px">
	<defs/>
	<path d="M 90.0,24.0 L 38.0,24.0 L 38.0,0.0 L 26.0,0.0 L 26.0,24.0 L 0.0,24.0 L 0.0,36.0 L 26.0,36.0 L 26.0,60.0 L 38.0,60.0 L 38.0,36.0 L 90.0,36.0 L 90.0,24.0" fill="#FECB00" points="90,24 38,24 38,0 26,0 26,24 0,24 0,36 26,36 26,60 38,60 38,36 90,36 "/>
	<path d="M 0.0,0.0 L 90.0,0.0 L 90.0,60.0 L 0.0,60.0 L 0.0,0.0" fill="#005293" height="60" width="90"/>
</svg>
