<?xml version="1.0" ?>
<svg xmlns="http://www.w3.org/2000/svg" xmlns:ev="http://www.w3.org/2001/xml-events" xmlns:xlink="http://www.w3.org/1999/xlink" baseProfile="full" enable-background="new 0 0 100 97.637" height="586px" version="1.1" viewBox="0 0 100 97.637" width="600px" x="0px" xml:space="preserve" y="0px">
	<defs/>
	<path d="M 98.285,56.082 C 97.672,54.731 97.038,53.335 96.709,52.157000000000004 C 96.418,51.112 96.185,49.98500000000001 95.93900000000001,48.789 C 95.37400000000001,46.04 94.787,43.197 93.39200000000001,41.039 C 91.343,37.868 88.08900000000001,36.315 84.647,34.67 C 81.08500000000001,32.969 75.85400000000001,32.438 72.821,32.954 C 75.332,29.439 79.823,20.57 80.956,16.757 C 82.81,10.514000000000001 83.69,2.809000000000001 81.881,1.248000000000001 C 80.635,0.17400000000000104 79.195,0.44900000000000106 77.2,0.8340000000000012 C 76.558,0.9580000000000012 75.837,1.0970000000000013 75.016,1.2140000000000013 C 73.998,1.3590000000000013 72.56200000000001,1.3170000000000013 70.89800000000001,1.2690000000000012 C 67.33500000000001,1.1650000000000011 62.90200000000001,1.0380000000000011 59.116000000000014,2.596000000000001 C 53.58700000000002,4.871 48.366000000000014,12.165000000000003 47.56600000000002,16.922 C 47.454000000000015,17.589000000000002 47.399000000000015,18.187 47.38600000000002,18.727 C 44.52,15.682 36.358,7.306 29.95,3.637 C 23.031,-0.3250000000000002 20.878999999999998,-0.07399999999999984 19.719,0.06000000000000005 C 19.587,0.07600000000000005 19.471,0.09100000000000005 19.364,0.09100000000000005 C 19.364,0.09100000000000005 19.364,0.09100000000000005 19.364,0.09100000000000005 C 19.364,0.09100000000000005 19.364,0.09100000000000005 19.363,0.09100000000000005 C 18.082,0.09100000000000005 15.431,1.498 15.169,3.4240000000000004 C 15.035,4.412000000000001 15.381,5.165000000000001 15.688,5.829000000000001 C 15.938,6.371 16.174,6.883000000000001 16.169,7.526000000000001 C 16.165,8.186 15.398,9.694 14.722000000000001,11.025 C 13.882000000000001,12.679 13.014000000000001,14.389 12.824000000000002,15.708 C 12.533000000000001,17.733 13.303,19.624 14.468000000000002,22.485 C 14.797000000000002,23.293 15.159000000000002,24.182 15.539000000000001,25.18 C 16.93,28.822 23.397000000000002,36.263 26.045,39.221000000000004 C 26.088,39.345000000000006 26.154000000000003,39.43600000000001 26.229000000000003,39.502 C 26.222,39.576 26.229000000000003,39.669000000000004 26.251,39.767 C 20.542,41.134 9.263000000000002,48.356 5.0169999999999995,51.075 L 4.06,51.685 C 2.8,52.480000000000004 -1.0350000000000001,54.899 0.2679999999999998,57.314 C 0.8219999999999998,58.342 1.4179999999999997,58.285 2.0349999999999997,58.128 C 2.5089999999999995,58.007 3.1559999999999997,57.839 4.584999999999999,58.482 C 5.767999999999999,59.015 7.3919999999999995,60.454 9.11,61.977 C 11.703,64.27499999999999 14.643,66.88 17.598,67.88799999999999 C 22.527,69.568 32.21,68.413 32.620999999999995,68.36299999999999 L 32.785,68.32099999999998 C 33.01199999999999,68.22599999999998 38.358999999999995,65.99699999999999 40.114999999999995,64.40799999999999 C 40.51,64.05199999999999 40.83899999999999,63.704999999999984 41.12499999999999,63.36999999999999 C 40.98799999999999,64.34899999999999 40.85399999999999,65.618 40.745999999999995,67.25399999999999 C 40.388999999999996,72.669 43.632,87.40799999999999 45.937999999999995,92.57399999999998 L 46.090999999999994,92.91599999999998 C 48.01199999999999,97.22599999999998 48.169999999999995,97.57899999999998 50.53999999999999,97.62599999999998 L 50.959999999999994,97.63599999999998 C 50.989,97.63599999999998 51.016999999999996,97.63799999999998 51.04599999999999,97.63799999999998 C 52.88099999999999,97.63799999999998 54.117999999999995,95.94799999999998 55.21199999999999,94.45399999999998 C 55.80199999999999,93.64599999999997 56.35999999999999,92.88499999999998 56.91899999999999,92.49799999999998 C 57.56199999999999,92.05499999999998 57.92199999999999,91.97099999999998 58.37899999999999,91.86299999999997 C 59.06599999999999,91.69999999999997 59.843999999999994,91.51699999999997 61.42499999999999,90.23499999999997 C 63.77399999999999,88.33399999999997 68.151,83.84799999999997 69.67099999999999,79.10299999999997 C 71.091,74.67099999999996 70.18299999999999,65.81699999999996 70.12799999999999,65.34999999999997 C 70.09299999999999,65.21699999999997 69.34099999999998,62.343999999999966 68.35699999999999,60.55899999999997 C 70.76399999999998,61.355999999999966 74.87199999999999,62.593999999999966 78.59399999999998,63.11099999999997 C 83.55599999999998,63.80199999999997 97.62999999999998,64.25599999999997 99.43299999999998,62.61999999999997 C 100.721,61.448 99.592,58.961 98.285,56.082 M 57.422,48.191 C 56.339,49.674 54.153999999999996,50.427 50.928,50.427 C 48.302,50.427 45.965999999999994,49.922 45.867999999999995,49.9 L 44.520999999999994,49.605 L 45.831999999999994,49.177 C 45.86399999999999,49.167 49.05,48.104 49.849999999999994,45.922 C 50.209999999999994,44.940999999999995 50.029999999999994,43.855 49.315,42.693 C 48.559999999999995,41.467 47.629,40.845 46.549,40.845 C 44.374,40.845 42.231,43.277 42.21,43.301 L 41.389,44.242000000000004 L 41.554,43.005 C 41.587,42.757000000000005 42.410000000000004,36.909000000000006 46.553000000000004,34.681000000000004 C 47.74400000000001,34.040000000000006 49.08800000000001,33.715 50.54600000000001,33.715 C 53.656000000000006,33.715 56.83800000000001,35.259 58.11200000000001,37.388000000000005 C 59.726,40.083 60.138,44.47 57.422,48.191"/>
</svg>
