<?xml version="1.0" ?>
<svg xmlns="http://www.w3.org/2000/svg" xmlns:ev="http://www.w3.org/2001/xml-events" xmlns:xlink="http://www.w3.org/1999/xlink" baseProfile="full" enable-background="new 0 0 91.852 100" height="600px" version="1.1" viewBox="0 0 91.852 100" width="598px" x="0px" xml:space="preserve" y="0px">
	<defs/>
	<path d="M 89.885,37.533 L 64.094,11.74 C 61.678,9.324 57.751999999999995,9.324 55.339999999999996,11.738 L 50.842,16.237 L 47.217,12.611999999999998 L 39.792,20.037 L 43.417,23.662 L 43.289,23.791 L 34.219,32.86 L 32.25,30.891 C 31.107,29.749 29.253,29.746 28.106,30.892999999999997 L 12.677,46.32 C 11.948,47.049 11.687,48.068 11.885,49.007 L 0.156,37.277 L 0.156,100.0 L 62.879,100.0 L 52.58,89.701 C 53.519,89.90199999999999 54.539,89.63999999999999 55.268,88.91199999999999 L 70.69800000000001,73.484 C 71.84400000000001,72.338 71.843,70.482 70.69800000000001,69.339 L 68.76400000000001,67.405 L 77.834,58.335 L 77.955,58.212 L 81.697,61.956 L 89.123,54.53 L 85.381,50.788000000000004 L 89.885,46.283 C 92.299,43.871 92.299,39.946 89.885,37.533 M 39.993,33.96 C 41.742000000000004,32.212 44.579,32.212 46.327,33.96 C 48.073,35.708 48.073,38.545 46.327,40.293 C 44.577,42.043 41.741,42.041 39.992999999999995,40.293 C 38.245,38.546 38.244,35.711 39.993,33.96 M 19.852,56.975 C 20.791,57.172000000000004 21.81,56.913000000000004 22.538,56.184000000000005 L 29.183,49.539 L 33.487,53.844 C 32.195,55.287 32.315000000000005,57.606 33.835,59.123000000000005 L 42.502,67.789 C 44.022000000000006,69.31 46.339000000000006,69.432 47.783,68.137 L 52.047000000000004,72.403 L 45.404,79.049 C 44.675000000000004,79.77600000000001 44.413000000000004,80.795 44.612,81.73500000000001 L 19.852,56.975 M 45.814,46.119 L 52.147999999999996,39.786 L 61.836999999999996,49.476 L 55.503,55.81 L 45.814,46.119 M 67.621,61.59 C 65.871,63.34 63.03699999999999,63.336000000000006 61.288999999999994,61.59 C 59.541,59.84 59.53699999999999,57.006 61.288999999999994,55.254000000000005 C 63.03699999999999,53.50600000000001 65.875,53.50600000000001 67.621,55.254000000000005 C 69.371,57.004 69.371,59.84 67.621,61.59 M 75.306,51.65 L 49.972,26.316 L 59.714,16.573999999999998 L 85.048,41.908 L 75.306,51.65"/>
</svg>
