<?xml version="1.0" ?>
<svg xmlns="http://www.w3.org/2000/svg" xmlns:cc="http://creativecommons.org/ns#" xmlns:dc="http://purl.org/dc/elements/1.1/" xmlns:ev="http://www.w3.org/2001/xml-events" xmlns:inkscape="http://www.inkscape.org/namespaces/inkscape" xmlns:rdf="http://www.w3.org/1999/02/22-rdf-syntax-ns#" xmlns:sodipodi="http://sodipodi.sourceforge.net/DTD/sodipodi-0.dtd" xmlns:svg="http://www.w3.org/2000/svg" xmlns:xlink="http://www.w3.org/1999/xlink" baseProfile="full" height="600px" version="1.1" viewBox="0 0 100 100" width="499px" x="0px" y="0px">
	<defs/>
	<path d="M 43.457718,953.69072 C 42.416378,953.69072 41.572198,954.5349000000001 41.572198,955.5762400000001 C 41.572198,956.6175900000001 42.416378,957.4617600000001 43.457718,957.4617600000001 C 43.496118,957.4617600000001 43.537718,957.4517600000001 43.575558,957.4499600000001 L 43.587358,957.5442600000001 L 43.964458,957.5088600000001 L 43.952658,957.3910200000001 C 44.751308,957.1719000000002 45.343227999999996,956.4444200000002 45.343227999999996,955.5762000000001 C 45.343227999999996,954.5348600000001 44.499047999999995,953.69068 43.457708,953.69068 L 43.457718,953.69072 M 43.999808,957.88601 L 43.622698,957.9213100000001 L 43.705198,958.67552 L 44.082308000000005,958.62842 L 43.999808,957.886 L 43.999808,957.88601 M 44.117648,959.00553 L 43.752328000000006,959.04093 L 43.82302800000001,959.79514 L 44.20012800000001,959.75974 L 44.117628,959.00553 L 44.117648,959.00553 M 44.247278,960.1250600000001 L 43.870178,960.1721600000001 L 43.952678000000006,960.9145900000001 L 44.317998,960.8791900000001 L 44.247298,960.1249800000002 L 44.247278,960.1250600000001 M 44.365128,961.25638 L 43.988018,961.29168 L 44.070518,962.04589 L 44.447628,962.01059 L 44.365128,961.25638 M 71.929098,961.5509900000001 C 70.978308,961.64759 70.24390799999999,962.4602500000001 70.24390799999999,963.4365100000001 C 70.24390799999999,964.4778600000001 71.08808799999998,965.3220300000002 72.129438,965.3220300000002 C 73.170778,965.3220300000002 74.014958,964.4778600000002 74.014958,963.4365100000001 C 74.014958,962.3951700000001 73.170778,961.5509900000001 72.129438,961.5509900000001 C 72.06433799999999,961.5509900000001 71.992488,961.5449900000001 71.929098,961.5509900000001 M 44.482968,962.3759100000001 L 44.105868,962.4230100000001 L 44.188368000000004,963.1654400000001 L 44.565468,963.1300400000001 L 44.482968,962.3758400000002 L 44.482968,962.3759100000001 M 44.600818,963.5072200000001 L 44.223707999999995,963.54262 L 44.306208,964.29683 L 44.683318,964.24973 L 44.600818,963.50731 L 44.600818,963.5072200000001 M 44.718658,964.6267500000001 L 44.353338,964.6738500000001 L 44.424038,965.4162800000001 L 44.801138,965.3808800000002 L 44.718638,964.6266700000002 L 44.718658,964.6267500000001 M 71.151318,965.3927400000001 L 70.868488,966.0998100000002 L 71.210238,966.2412300000002 L 71.504858,965.5341500000002 L 71.151318,965.3927400000002 L 71.151318,965.3927400000001 M 44.848288000000004,965.7580600000001 L 44.471188000000005,965.7933600000001 L 44.55368800000001,966.5475700000001 L 44.93078800000001,966.5004700000001 L 44.848288000000004,965.75805 L 44.848288000000004,965.7580600000001 M 70.727078,966.4415600000001 L 70.444248,967.1368500000001 L 70.785998,967.2900500000001 L 71.06882800000001,966.58298 L 70.727078,966.44156 L 70.727078,966.4415600000001 M 44.966138,966.87759 L 44.589028,966.92469 L 44.671528,967.6671100000001 L 45.048638000000004,967.6318100000001 L 44.966138,966.8776000000001 L 44.966138,966.87759 M 70.291048,967.4903800000001 L 70.008218,968.1856700000001 L 70.361758,968.32708 L 70.644588,967.6318 L 70.291048,967.49038 L 70.291048,967.4903800000001 M 45.083978,968.0089 L 44.706878,968.0443 L 44.789378000000006,968.7985 L 45.166478000000005,968.7514 L 45.083978,968.00897 L 45.083978,968.0089 M 69.866808,968.5392 L 69.583978,969.23449 L 69.937518,969.3759100000001 L 70.220338,968.6806200000001 L 69.86680799999999,968.5392 L 69.866808,968.5392 M 45.201828000000006,969.1284300000001 L 44.83650800000001,969.1637300000001 L 44.90720800000001,969.91794 L 45.28431800000001,969.88264 L 45.20181800000001,969.1284300000001 L 45.201828000000006,969.1284300000001 M 69.44256800000001,969.5880300000001 L 69.159738,970.2833100000001 L 69.51326800000001,970.4247300000002 L 69.79609800000001,969.7294400000002 L 69.44256800000001,969.5880300000002 L 69.44256800000001,969.5880300000001 M 45.33145800000001,970.2597400000001 L 44.95434800000001,970.2951400000001 L 45.03684800000001,971.04935 L 45.40216800000001,971.00225 L 45.33146800000001,970.25982 L 45.33145800000001,970.2597400000001 M 69.01831800000001,970.6368500000001 L 68.735498,971.3321300000001 L 69.08902800000001,971.4735500000002 L 69.37185800000002,970.7782600000002 L 69.01831800000002,970.6368500000002 L 69.01831800000001,970.6368500000001 M 45.44929800000001,971.3792700000001 L 45.072198000000014,971.4146700000001 L 45.15469800000002,972.1688700000001 L 45.531798000000016,972.1335700000001 L 45.44929800000001,971.3793600000001 L 45.44929800000001,971.3792700000001 M 68.59407800000001,971.6856700000002 L 68.311248,972.3809600000002 L 68.664788,972.5223700000001 L 68.947618,971.8270800000001 L 68.59407800000001,971.6856700000002 M 45.56714800000001,972.4988000000002 L 45.19003800000001,972.5459000000002 L 45.27253800000001,973.2883200000002 L 45.64964800000001,973.2529200000002 L 45.56714800000001,972.4987100000003 L 45.56714800000001,972.4988000000002 M 68.16983800000001,972.7344900000002 L 68.00485800000001,973.1469500000002 L 67.88700800000001,973.4297800000002 L 68.240548,973.5711900000001 L 68.346608,973.2883600000001 L 68.52337800000001,972.8759100000001 L 68.16983800000001,972.73449 L 68.16983800000001,972.7344900000002 M 45.68498800000001,973.6301100000002 L 45.30788800000001,973.6655100000002 L 45.390388000000016,974.4197200000001 L 45.767488000000014,974.3843200000001 L 45.68498800000001,973.6301100000002 M 67.74559800000002,973.7833100000001 L 67.46276800000001,974.4786000000001 L 67.81629800000002,974.6200100000001 L 68.09912800000002,973.9247300000001 L 67.74559800000002,973.78331 L 67.74559800000002,973.7833100000001 M 26.605868000000015,974.7378600000002 C 25.564518000000014,974.7378600000002 24.720338000000016,975.5820400000002 24.720338000000016,976.6233800000002 C 24.720338000000016,977.6647200000002 25.564518000000017,978.5089000000003 26.605868000000015,978.5089000000003 C 27.647208000000013,978.5089000000003 28.491388000000015,977.6647200000002 28.491388000000015,976.6233800000002 C 28.491388000000015,975.5820400000002 27.647208000000013,974.7378600000002 26.605868000000015,974.7378600000002 M 45.802838000000015,974.7496600000002 L 45.43751800000002,974.7967600000002 L 45.50821800000002,975.5391800000002 L 45.88532800000002,975.5038800000002 L 45.80282800000002,974.7496700000003 L 45.802838000000015,974.7496600000002 M 67.32134800000001,974.8321600000002 L 67.05030800000002,975.5392300000002 L 67.39205800000002,975.6688600000002 L 67.67488800000002,974.9735800000002 L 67.32134800000003,974.8321600000002 L 67.32134800000001,974.8321600000002 M 45.932468000000014,975.8809900000001 L 45.55535800000001,975.9163900000001 L 45.637858000000016,976.6706 L 46.00317800000001,976.6235 L 45.93247800000001,975.88108 L 45.932468000000014,975.8809900000001 M 66.90889800000002,975.8809900000001 L 66.62606800000002,976.5880600000002 L 66.97959800000002,976.7294700000001 L 67.25064800000003,976.0224000000001 L 66.90889800000002,975.8809900000001 M 66.48464800000002,976.9298100000001 L 66.20182800000002,977.6368800000001 L 66.55535800000003,977.7782900000001 L 66.83818800000003,977.07122 L 66.48464800000004,976.9298100000001 L 66.48464800000002,976.9298100000001 M 46.05030800000002,977.0005100000001 L 45.673208000000024,977.0476100000001 L 45.75570800000003,977.7900400000001 L 46.132808000000026,977.7546400000001 L 46.05030800000002,977.0004300000002 L 46.05030800000002,977.0005100000001 M 28.562098000000024,977.5897400000001 L 28.349968000000025,977.8961400000002 L 28.950978000000024,978.3321600000002 L 29.174888000000024,978.0257700000002 L 28.562098000000024,977.5897400000002 L 28.562098000000024,977.5897400000001 M 66.06040800000002,977.9786300000001 L 65.77757800000002,978.6857000000001 L 66.13111800000001,978.8271100000001 L 66.41394800000002,978.12004 L 66.06040800000002,977.9786300000001 M 46.16815800000002,978.13183 L 45.79104800000002,978.16713 L 45.87354800000002,978.92134 L 46.25065800000002,978.87424 L 46.16815800000002,978.13182 L 46.16815800000002,978.13183 M 29.48128800000002,978.24967 L 29.25737800000002,978.5560700000001 L 29.87017800000002,979.0038800000001 L 30.09407800000002,978.69748 L 29.48128800000002,978.24967 M 30.40047800000002,978.90961 L 30.17656800000002,979.216 L 30.78936800000002,979.66381 L 31.01326800000002,979.35742 L 30.40047800000002,978.90961 M 65.63616800000003,979.0392300000001 L 65.36512800000003,979.7345200000001 L 65.71865800000003,979.8759400000001 L 65.98970800000004,979.1688600000001 L 65.63616800000004,979.0392300000001 L 65.63616800000003,979.0392300000001 M 46.28599800000003,979.2513600000001 L 45.90889800000003,979.2984600000001 L 45.99139800000003,980.0408900000001 L 46.36849800000003,980.0054900000001 L 46.28599800000003,979.2512900000002 L 46.28599800000003,979.2513600000001 M 31.307888000000027,979.5813200000001 L 31.095768000000028,979.8877200000002 L 31.70855800000003,980.3237500000001 L 31.920678000000027,980.0173500000001 L 31.307888000000027,979.5813200000001 M 65.22370800000002,980.0880600000002 L 64.94087800000001,980.7833400000002 L 65.29441800000001,980.9247600000002 L 65.57724800000001,980.2294700000002 L 65.22370800000002,980.0880600000003 L 65.22370800000002,980.0880600000002 M 32.22707800000001,980.2412600000001 L 32.00316800000002,980.5476500000001 L 32.61596800000002,980.9954600000001 L 32.83986800000002,980.6890700000001 L 32.22707800000002,980.2412600000001 L 32.22707800000001,980.2412600000001 M 46.40384800000001,980.3826700000001 L 46.038528000000014,980.4179700000001 L 46.109228000000016,981.17218 L 46.48633800000002,981.12508 L 46.403838000000015,980.38266 L 46.40384800000001,980.3826700000001 M 33.146268000000006,980.90119 L 32.922368000000006,981.2075900000001 L 33.535158,981.6554000000001 L 33.759068,981.349 L 33.146268,980.90119 L 33.146268000000006,980.90119 M 64.811248,981.13688 L 64.528428,981.8439500000001 L 64.88195800000001,981.9735800000001 L 65.15299800000001,981.2782900000001 L 64.811248,981.1368800000001 L 64.811248,981.13688 M 46.533478,981.5022 L 46.156368,981.5375 L 46.238868000000004,982.29171 L 46.604188,982.25641 L 46.533488,981.5022 L 46.533478,981.5022 M 34.06545800000001,981.5729 L 33.841558000000006,981.8793000000001 L 34.454348,982.31533 L 34.678258,982.00893 L 34.065458,981.5729 L 34.06545800000001,981.5729 M 64.38700800000001,982.1857 L 64.11596800000001,982.89277 L 64.45771800000001,983.03418 L 64.74054800000002,982.32711 L 64.38700800000002,982.1857 L 64.38700800000001,982.1857 M 34.972868000000005,982.2328 L 34.76074800000001,982.53919 L 35.36175800000001,982.9870099999999 L 35.58565800000001,982.6806099999999 L 34.97286800000001,982.2327999999999 L 34.972868000000005,982.2328 M 46.651318,982.63347 L 46.274218000000005,982.66877 L 46.35671800000001,983.4229799999999 L 46.73381800000001,983.3758799999999 L 46.651318,982.6334499999999 L 46.651318,982.63347 M 35.892058000000006,982.89273 L 35.668158000000005,983.1991300000001 L 36.280948,983.6469400000001 L 36.504858,983.34054 L 35.892058,982.89273 L 35.892058000000006,982.89273 M 63.974548000000006,983.24627 L 63.691728000000005,983.94155 L 64.045258,984.08297 L 64.32808800000001,983.3759 L 63.974548000000006,983.24627 M 36.811248000000006,983.56445 L 36.587348000000006,983.8708399999999 L 37.200138,984.3068699999999 L 37.424048,984.0004699999998 L 36.811248,983.5644499999999 L 36.811248000000006,983.56445 M 46.76916800000001,983.7529999999999 L 46.392058000000006,983.7882999999999 L 46.47455800000001,984.5425099999999 L 46.85166800000001,984.5072099999999 L 46.76916800000001,983.7529999999999 M 37.73044800000001,984.2243799999999 L 37.50653800000001,984.5307799999999 L 38.11932800000001,984.9785899999999 L 38.33145800000001,984.6721899999999 L 37.73044800000001,984.2243799999999 M 63.562098000000006,984.2950799999999 L 63.42067800000001,984.6368299999999 L 63.27926800000001,985.0021499999999 L 63.63279800000001,985.1317799999999 L 63.774218000000005,984.7664599999999 L 63.903848,984.4364899999999 L 63.562098000000006,984.29508 L 63.562098000000006,984.2950799999999 M 17.83818800000001,984.7311199999999 C 16.79684800000001,984.7311199999999 15.95266800000001,985.5753 15.95266800000001,986.6166499999999 C 15.95266800000001,987.6579899999999 16.79684800000001,988.50217 17.83818800000001,988.50217 C 18.76974800000001,988.50217 19.54734800000001,987.8345499999999 19.70013800000001,986.94661 L 19.88869800000001,986.97021 L 19.94759800000001,986.5931099999999 L 19.72368800000001,986.5577099999999 C 19.69158800000001,985.5445 18.85917800000001,984.73111 17.83816800000001,984.73111 L 17.83818800000001,984.7311199999999 M 46.88700800000001,984.87254 L 46.50990800000001,984.91964 L 46.59240800000001,985.66206 L 46.96950800000001,985.62676 L 46.88700800000001,984.87255 L 46.88700800000001,984.87254 M 38.637848000000005,984.88434 L 38.42572800000001,985.19074 L 39.02673800000001,985.63855 L 39.250648000000005,985.33215 L 38.637848000000005,984.88434 M 63.14963800000001,985.34394 L 62.86680800000001,986.05101 L 63.22033800000001,986.19242 L 63.491388000000015,985.4853499999999 L 63.14963800000002,985.34394 L 63.14963800000001,985.34394 M 39.55704800000001,985.55606 L 39.33313800000001,985.86246 L 39.94592800000001,986.29848 L 40.169838000000006,985.9920900000001 L 39.55704800000001,985.5560600000001 L 39.55704800000001,985.55606 M 47.004858000000006,986.00387 L 46.63953800000001,986.03917 L 46.71023800000001,986.79338 L 47.08734800000001,986.75808 L 47.00484800000001,986.00387 L 47.004858000000006,986.00387 M 40.47623800000001,986.21599 L 40.25232800000001,986.5223900000001 L 40.86512800000001,986.9702000000001 L 41.08902800000001,986.6638 L 40.476238000000016,986.21599 L 40.47623800000001,986.21599 M 62.737178000000014,986.40454 L 62.466138000000015,987.11162 L 62.819668000000014,987.24125 L 63.09071800000002,986.53417 L 62.737178000000014,986.40454 M 20.312938000000017,986.65202 L 20.265838000000016,987.02912 L 21.008258000000016,987.13518 L 21.067158000000017,986.75808 L 20.312948000000016,986.65202 L 20.312938000000017,986.65202 M 21.432468000000018,986.817 L 21.385368000000017,987.19411 L 22.127788000000017,987.30017 L 22.186688000000018,986.92306 L 21.432488000000017,986.817 L 21.432468000000018,986.817 M 41.39542800000002,986.8759 L 41.17151800000002,987.18229 L 41.78431800000002,987.6301 L 41.99643800000002,987.32371 L 41.39542800000002,986.8759 M 22.551988000000016,986.98196 L 22.504888000000015,987.35906 L 23.247308000000015,987.46512 L 23.306208000000016,987.0998 L 22.551998000000015,986.98196 L 22.551988000000016,986.98196 M 47.13448800000002,987.1233699999999 L 46.75737800000002,987.1704699999999 L 46.83987800000002,987.91289 L 47.20519800000002,987.8775899999999 L 47.134498000000015,987.12338 L 47.13448800000002,987.1233699999999 M 23.67151800000002,987.1469699999999 L 23.62441800000002,987.5240699999999 L 24.36683800000002,987.6301299999999 L 24.42573800000002,987.2648099999999 L 23.67152800000002,987.1469699999999 L 23.67151800000002,987.1469699999999 M 24.79104800000002,987.3119499999999 L 24.74394800000002,987.6890599999999 L 25.48637800000002,987.7951199999999 L 25.54527800000002,987.4297999999999 L 24.79106800000002,987.3119499999999 L 24.79104800000002,987.3119499999999 M 62.32471800000002,987.45337 L 62.05367800000002,988.16044 L 62.40720800000002,988.30185 L 62.67825800000002,987.5947799999999 L 62.32471800000002,987.45337 M 25.910578000000015,987.4769699999999 L 25.863478000000015,987.85407 L 26.605908000000014,987.9601299999999 L 26.664808000000015,987.5948099999999 L 25.910598000000014,987.4769699999999 L 25.910578000000015,987.4769699999999 M 42.302838000000015,987.5476699999999 L 42.07892800000002,987.85407 L 42.69172800000002,988.2900999999999 L 42.91562800000002,987.9836999999999 L 42.30283800000002,987.5476699999999 L 42.302838000000015,987.5476699999999 M 27.030108000000016,987.6537299999999 L 26.971208000000015,988.0190499999999 L 27.725418000000015,988.1368999999999 L 27.772518000000016,987.7597899999998 L 27.030098000000017,987.6537299999999 L 27.030108000000016,987.6537299999999 M 86.83650800000001,987.7362299999999 C 85.79515800000001,987.7362299999999 84.950978,988.5804099999999 84.950978,989.6217599999999 C 84.950978,989.7273899999999 84.95797800000001,989.8272499999999 84.97457800000001,989.9281499999998 L 84.92747800000001,989.9399499999998 L 84.99817800000001,990.3052699999998 L 85.080678,990.2934699999998 C 85.352438,991.0009299999998 86.033438,991.5072799999998 86.836578,991.5072799999998 C 87.87791800000001,991.5072799999998 88.722098,990.6630999999998 88.722098,989.6217599999998 C 88.722098,988.5804099999998 87.87791800000001,987.7362299999998 86.836578,987.7362299999998 L 86.83650800000001,987.7362299999999 M 28.14963800000001,987.8187299999998 L 28.09073800000001,988.1840499999998 L 28.84493800000001,988.3018899999998 L 28.89203800000001,987.9247899999998 L 28.14961800000001,987.8187299999998 L 28.14963800000001,987.8187299999998 M 29.26916800000001,987.9837099999999 L 29.21026800000001,988.3490299999999 L 29.96447800000001,988.4668699999999 L 30.01157800000001,988.0897699999998 L 29.26915800000001,987.9837099999999 L 29.26916800000001,987.9837099999999 M 30.388698000000012,988.1486899999999 L 30.32979800000001,988.5140099999999 L 31.08400800000001,988.6318599999998 L 31.13110800000001,988.2547499999998 L 30.388688000000013,988.1486899999999 L 30.388698000000012,988.1486899999999 M 43.22202800000001,988.2075899999999 L 42.99811800000001,988.5139799999998 L 43.61091800000001,988.9617899999998 L 43.83481800000001,988.6553999999999 L 43.222028000000016,988.2075899999999 L 43.22202800000001,988.2075899999999 M 47.252328000000006,988.2546899999999 L 46.87522800000001,988.2900899999999 L 46.94592800000001,988.9264499999998 C 46.92582800000001,988.9258199999998 46.90722800000001,988.9264499999998 46.88702800000001,988.9264499999998 C 46.24221800000001,988.9264499999998 45.67147800000001,989.2458399999998 45.33147800000001,989.7395799999998 L 45.048648000000014,989.5392399999998 L 44.836528000000015,989.8456399999999 L 45.154708000000014,990.0695499999999 C 45.11950800000001,990.15145 45.09560800000001,990.24136 45.07220800000001,990.32881 L 44.94257800000001,990.30521 L 44.88367800000001,990.68231 L 45.01330800000001,990.70591 C 45.01130800000001,990.74211 45.00150800000001,990.77521 45.00150800000001,990.81197 C 45.00150800000001,991.8533199999999 45.84568800000001,992.69749 46.88702800000001,992.69749 C 46.98062800000001,992.69749 47.06810800000001,992.68709 47.15807800000001,992.67389 C 47.83505800000001,992.57469 48.40001800000001,992.1137600000001 48.64291800000001,991.49544 L 49.26749800000001,991.73113 L 49.40891800000001,991.3776 L 48.74897800000001,991.13012 C 48.76697800000001,991.02561 48.77257800000001,990.92159 48.77257800000001,990.81194 C 48.77257800000001,989.92704 48.15702800000001,989.18847 47.33486800000001,988.9853400000001 L 47.252368000000004,988.2547000000001 L 47.252328000000006,988.2546899999999 M 47.15802800000001,992.6738799999998 L 47.051958000000006,993.4280899999998 L 47.42906800000001,993.4751899999998 L 47.523368000000005,992.7327699999997 L 47.15804800000001,992.6738699999997 L 47.15802800000001,992.6738799999998 M 31.50818800000001,988.3136199999998 L 31.44928800000001,988.6907199999998 L 32.20349800000001,988.7967799999998 L 32.25059800000001,988.4196799999997 L 31.508168000000012,988.3136199999998 L 31.50818800000001,988.3136199999998 M 32.62771800000001,988.4785999999998 L 32.56881800000001,988.8556999999998 L 33.32302800000001,988.9617599999998 L 33.37012800000001,988.5846599999998 L 32.62769800000001,988.4785999999998 L 32.62771800000001,988.4785999999998 M 61.924018000000004,988.5139999999998 L 61.652968,989.2210699999998 L 61.994728,989.3506999999998 L 62.265768,988.6554199999998 L 61.924018000000004,988.5139999999998 M 33.747248,988.6436299999998 L 33.688348,989.0207399999998 L 34.442558,989.1267999999998 L 34.489658,988.7496899999998 L 33.747228,988.6436299999998 L 33.747248,988.6436299999998 M 34.866778,988.8086199999998 L 34.807877999999995,989.1857199999998 L 35.562087999999996,989.2917799999998 L 35.609187999999996,988.9264599999998 L 34.86676799999999,988.8086199999998 L 34.866778,988.8086199999998 M 44.141188,988.8675199999998 L 43.917278,989.1739099999998 L 44.530078,989.6217299999997 L 44.753978000000004,989.3153299999997 L 44.14118800000001,988.8675199999997 L 44.141188,988.8675199999998 M 35.986308,988.9735799999997 L 35.927408,989.3506799999998 L 36.669828,989.4567399999997 L 36.728728000000004,989.0914199999997 L 35.986308,988.9735799999997 M 37.105838,989.1385599999998 L 37.046938,989.5156699999998 L 37.789367999999996,989.6217299999997 L 37.848268,989.2564099999997 L 37.105847999999995,989.1385599999998 L 37.105838,989.1385599999998 M 38.225367999999996,989.3035399999998 L 38.166467999999995,989.6806499999998 L 38.90889799999999,989.7867099999997 L 38.967797999999995,989.4213899999997 L 38.22537799999999,989.3035399999998 L 38.225367999999996,989.3035399999998 M 39.344888,989.4803099999998 L 39.285987999999996,989.8456299999998 L 40.028417999999995,989.9634799999998 L 40.087317999999996,989.5863699999998 L 39.344888,989.4803099999998 M 61.511557999999994,989.5746099999998 L 61.44085799999999,989.7513799999998 L 61.24052799999999,990.2816799999998 L 61.59405799999999,990.4113099999998 L 61.79439799999999,989.8810099999998 L 61.86509799999999,989.7042399999998 L 61.51155799999999,989.5746099999998 L 61.511557999999994,989.5746099999998 M 40.464417999999995,989.6453099999998 L 40.405517999999994,990.0106299999998 L 41.147937999999996,990.1284699999998 L 41.206838,989.7513699999997 L 40.464408,989.6453099999998 L 40.464417999999995,989.6453099999998 M 41.58394799999999,989.8102899999998 L 41.52504799999999,990.1756099999998 L 42.267467999999994,990.2934499999998 L 42.326367999999995,989.9163499999997 L 41.583937999999996,989.8102899999998 L 41.58394799999999,989.8102899999998 M 42.70347799999999,989.9752699999998 L 42.64457799999999,990.3405899999998 L 43.38699799999999,990.4584399999998 L 43.44589799999999,990.0813299999998 L 42.70347799999999,989.9752699999998 M 84.55027799999999,990.0106699999998 L 83.819638,990.1638599999998 L 83.890338,990.5291799999998 L 84.632758,990.3759899999998 L 84.550258,990.0106699999998 L 84.55027799999999,990.0106699999998 M 43.823007999999994,990.1402899999998 L 43.76410799999999,990.5173999999998 L 44.506527999999996,990.6234599999998 L 44.565428,990.2463599999998 L 43.823007999999994,990.1402899999997 L 43.823007999999994,990.1402899999998 M 83.44253799999998,990.2345899999998 L 82.71189799999999,990.3877899999998 L 82.782598,990.7531099999998 L 83.52502799999999,990.6116999999998 L 83.442528,990.2345899999998 L 83.44253799999998,990.2345899999998 M 82.33478799999999,990.4702799999998 L 81.604148,990.6116999999998 L 81.674848,990.9887999999999 L 82.41726799999999,990.8355999999999 L 82.334768,990.4702799999999 L 82.33478799999999,990.4702799999998 M 61.11088799999999,990.6352599999998 L 60.85162799999999,991.3305499999998 L 61.20515799999999,991.4719599999997 L 61.46441799999999,990.7648899999997 L 61.11088799999999,990.6352599999997 L 61.11088799999999,990.6352599999998 M 81.227048,990.6941599999998 L 80.496408,990.8473599999998 L 80.567108,991.2126799999998 L 81.309528,991.0594799999998 L 81.227028,990.6941599999998 L 81.227048,990.6941599999998 M 80.119298,990.9180599999997 L 79.388668,991.0712599999997 L 79.459368,991.4365799999997 L 80.201798,991.2833799999997 L 80.119298,990.9180599999997 M 79.011558,991.1419699999998 L 78.269138,991.2951699999998 L 78.351638,991.6604899999998 L 79.09405799999999,991.5190699999997 L 79.011558,991.1419699999997 L 79.011558,991.1419699999998 M 77.90381799999999,991.3658699999997 L 77.16138799999999,991.5190699999997 L 77.24388799999998,991.8961799999997 L 77.98631799999998,991.7429799999998 L 77.90381799999999,991.3658699999997 M 49.75061799999999,991.5190699999997 L 49.62098799999999,991.8726099999997 L 50.32805799999999,992.1318699999997 L 50.45768799999999,991.7901199999997 L 49.75061799999999,991.5190699999997 M 76.79606799999999,991.6015699999997 L 76.053648,991.7429899999997 L 76.13614799999999,992.1200899999998 L 76.86678799999999,991.9668899999998 L 76.79608799999998,991.6015699999998 L 76.79606799999999,991.6015699999997 M 60.72199799999999,991.6840699999997 L 60.66309799999999,991.8372599999997 L 60.66309799999999,991.8490599999997 L 60.462757999999994,992.4029299999996 L 60.81628799999999,992.5325599999996 L 61.01662799999999,991.9786899999997 L 61.01662799999999,991.9668899999997 L 61.06372799999999,991.8254799999997 L 60.72197799999999,991.6840699999998 L 60.72199799999999,991.6840699999997 M 75.68832799999998,991.8254799999996 L 74.94589799999999,991.9786799999996 L 75.02839799999998,992.3439999999996 L 75.75903799999998,992.1907999999996 L 75.68833799999997,991.8254799999996 L 75.68832799999998,991.8254799999996 M 50.81121799999998,991.9197799999996 L 50.681587999999984,992.2733099999996 L 51.38866799999998,992.5443599999995 L 51.518287999999984,992.1908199999996 L 50.81121799999998,991.9197799999996 M 74.58057799999997,992.0494099999996 L 73.83815799999998,992.2025999999996 L 73.92065799999997,992.5679199999996 L 74.65129799999997,992.4147299999996 L 74.58059799999997,992.0494099999996 L 74.58057799999997,992.0494099999996 M 73.47283799999997,992.2733099999996 L 72.73041799999997,992.4265099999996 L 72.81291799999997,992.7918299999995 L 73.54355799999996,992.6504199999996 L 73.47285799999996,992.2733099999996 L 73.47283799999997,992.2733099999996 M 51.871827999999965,992.3204099999996 L 51.730417999999965,992.6739399999996 L 52.437487999999966,992.9449899999995 L 52.57889799999997,992.5914499999996 L 51.871827999999965,992.3204099999996 M 72.36509799999996,992.4971799999996 L 71.62266799999996,992.6503799999996 L 71.70516799999996,993.0274799999996 L 72.43580799999995,992.8742799999997 L 72.36510799999995,992.4971799999996 L 72.36509799999996,992.4971799999996 M 52.93243799999996,992.7210799999996 L 52.791017999999966,993.0746199999995 L 53.49808799999997,993.3456599999995 L 53.627717999999966,992.9921299999995 L 52.93243799999997,992.7210799999996 L 52.93243799999996,992.7210799999996 M 71.25734799999996,992.7328799999996 L 70.51492799999997,992.8742899999995 L 70.58562799999997,993.2513999999995 L 71.32805799999997,993.0981999999996 L 71.25735799999997,992.7328799999996 L 71.25734799999996,992.7328799999996 M 60.33310799999997,992.7564799999996 L 60.07384799999997,993.4635499999996 L 60.28596799999997,993.5460499999996 L 60.43916799999997,993.5931499999996 L 60.68663799999997,992.8860799999995 L 60.33310799999997,992.7564499999995 L 60.33310799999997,992.7564799999996 M 60.28600799999997,993.5460399999996 C 60.060427999999966,993.4506399999996 59.815707999999965,993.4046199999996 59.555367999999966,993.4046199999996 C 58.76122799999997,993.4046199999996 58.07731799999996,993.8881299999996 57.799477999999965,994.5830799999995 L 57.151327999999964,994.3355999999995 L 57.021697999999965,994.6891399999995 L 57.693417999999966,994.9483999999995 C 57.674117999999964,995.0564999999996 57.669817999999964,995.1764999999996 57.669817999999964,995.2901499999996 C 57.669817999999964,996.3314799999996 58.513997999999965,997.1756799999996 59.55533799999996,997.1756799999996 C 60.596687999999965,997.1756799999996 61.44085799999996,996.3314799999996 61.44085799999996,995.2901499999996 C 61.44085799999996,994.5091399999995 60.96272799999996,993.8322799999996 60.285977999999965,993.5460399999996 L 60.28600799999997,993.5460399999996 M 70.14964799999997,992.9568099999996 L 69.40721799999997,993.1100099999995 L 69.47791799999997,993.4753299999995 L 70.22033799999997,993.3221299999996 L 70.14963799999997,992.9568099999996 L 70.14964799999997,992.9568099999996 M 53.98129799999997,993.1217999999996 L 53.85166799999997,993.4753299999995 L 54.55873799999997,993.7463799999995 L 54.68836799999997,993.3928399999995 L 53.98129799999997,993.1217999999996 M 69.04189799999997,993.1806999999995 L 68.29947799999998,993.3338999999995 L 68.37017799999998,993.6992199999995 L 69.11259799999998,993.5460199999995 L 69.04189799999997,993.1806999999995 M 67.93415799999997,993.4045999999995 L 67.19173799999997,993.5577999999995 L 67.26243799999997,993.9231199999995 L 68.00486799999997,993.7817099999995 L 67.93416799999997,993.4045999999995 L 67.93415799999997,993.4045999999995 M 55.04189799999997,993.5342299999995 L 54.91226799999997,993.8877699999995 L 55.60755799999997,994.1470299999995 L 55.74896799999997,993.7934899999996 L 55.04189799999997,993.5342299999995 M 66.82641799999996,993.6285299999995 L 66.08398799999996,993.7817299999995 L 66.15468799999996,994.1588299999995 L 66.89710799999996,994.0056299999995 L 66.82640799999996,993.6285299999995 L 66.82641799999996,993.6285299999995 M 47.00486799999996,993.8052999999995 L 46.91056799999996,994.5477199999996 L 47.28766799999996,994.5948199999996 L 47.38196799999996,993.8523999999995 L 47.00486799999996,993.8052999999995 M 65.70688799999996,993.8641999999995 L 64.97624799999997,994.0056099999995 L 65.04694799999997,994.3827199999995 L 65.78937799999997,994.2295199999995 L 65.70687799999997,993.8641999999995 L 65.70688799999996,993.8641999999995 M 56.102507999999965,993.9348999999995 L 55.961097999999964,994.2884299999995 L 56.668167999999966,994.5476899999995 L 56.809577999999966,994.2059399999995 L 56.102507999999965,993.9348999999995 M 64.59913799999997,994.0880999999995 L 63.86849799999997,994.2412999999995 L 63.93919799999997,994.6066099999995 L 64.68161799999997,994.4534199999995 L 64.59911799999998,994.0880999999995 L 64.59913799999997,994.0880999999995 M 63.49139799999997,994.3119999999994 L 62.76075799999997,994.4651999999994 L 62.83145799999997,994.8305199999994 L 63.57387799999997,994.6773199999994 L 63.49137799999997,994.3119999999994 L 63.49139799999997,994.3119999999994 M 62.383647999999965,994.5359099999995 L 61.653007999999964,994.6891099999995 L 61.72370799999997,995.0544299999995 L 62.466137999999965,994.9130099999994 L 62.38363799999996,994.5359099999994 L 62.383647999999965,994.5359099999995 M 46.86344799999996,994.9247999999994 L 46.769147999999966,995.6672199999995 L 47.13446799999996,995.7143199999995 L 47.24052799999996,994.9719299999995 L 46.86341799999996,994.9248299999995 L 46.86344799999996,994.9247999999994 M 46.72203799999996,996.0442799999994 L 46.61597799999996,996.7867799999993 L 46.99307799999996,996.8457799999993 L 47.08737799999996,996.0915799999993 L 46.72205799999996,996.0445799999993 L 46.72203799999996,996.0442799999994 M 46.568837999999964,997.1638799999994 L 46.47453799999997,997.9180799999993 L 46.85164799999997,997.9650799999994 L 46.945947999999966,997.2108799999994 L 46.56884799999997,997.1638799999994 L 46.568837999999964,997.1638799999994 M 59.96782799999996,997.2934799999994 L 59.59072799999996,997.3284799999993 L 59.673227999999966,998.0826799999993 L 60.050327999999965,998.0356799999993 L 59.96782799999996,997.2932799999993 L 59.96782799999996,997.2934799999994 M 46.42742799999996,998.2833799999994 L 46.33312799999997,999.0375799999994 L 46.69844799999996,999.0845799999994 L 46.80450799999996,998.3421799999994 L 46.427407999999964,998.2831799999994 L 46.42742799999996,998.2833799999994 M 60.09745799999996,998.4129799999994 L 59.72034799999996,998.4599799999994 L 59.80284799999996,999.2023799999994 L 60.17994799999996,999.1673799999994 L 60.09744799999996,998.4131799999994 L 60.09745799999996,998.4129799999994 M 46.28600799999996,999.4146799999994 L 46.17994799999996,1000.1570999999994 L 46.55705799999996,1000.2040999999995 L 46.65135799999996,999.4616799999994 L 46.28603799999996,999.4146799999994 L 46.28600799999996,999.4146799999994 M 60.21529799999996,999.5442799999994 L 59.83819799999996,999.5792799999994 L 59.920697999999966,1000.3335999999994 L 60.29780799999997,1000.2865999999993 L 60.215307999999965,999.5440799999993 L 60.21529799999996,999.5442799999994 M 46.13280799999996,1000.5341999999994 L 46.038507999999965,1001.2766999999993 L 46.41560799999996,1001.3236999999993 L 46.50990799999996,1000.5811999999994 L 46.13279799999996,1000.5341999999994 L 46.13280799999996,1000.5341999999994 M 60.34492799999996,1000.6638999999993 L 59.96782799999996,1000.7108999999994 L 60.050327999999965,1001.4532999999993 L 60.42743799999997,1001.4182999999994 L 60.34493799999996,1000.6640999999994 L 60.34492799999996,1000.6638999999993 M 45.99139799999996,1001.6537999999994 L 45.897097999999964,1002.4079999999993 L 46.26241799999996,1002.4549999999994 L 46.36847799999996,1001.7007999999994 L 45.99137799999996,1001.6537999999994 L 45.99139799999996,1001.6537999999994 M 60.46277799999996,1001.7951999999993 L 60.09745799999996,1001.8301999999993 L 60.179957999999964,1002.5843999999993 L 60.54527799999996,1002.5373999999993 L 60.46277799999996,1001.7949999999993 L 60.46277799999996,1001.7951999999993 M 45.84997799999996,1002.7732999999994 L 45.74391799999996,1003.5274999999993 L 46.12102799999996,1003.5744999999994 L 46.21532799999996,1002.8202999999994 L 45.85000799999996,1002.7732999999994 L 45.84997799999996,1002.7732999999994 M 60.592407999999956,1002.9146999999994 L 60.215297999999954,1002.9496999999993 L 60.29779799999996,1003.7038999999993 L 60.674897999999956,1003.6688999999993 L 60.59239799999995,1002.9146999999994 L 60.592407999999956,1002.9146999999994 M 45.696787999999955,1003.8927999999994 L 45.61428799999995,1004.5998999999994 C 45.57808799999995,1004.5998999999994 45.544987999999954,1004.5878999999994 45.50822799999995,1004.5878999999994 C 44.466887999999955,1004.5878999999994 43.62270799999995,1005.4320999999994 43.62270799999995,1006.4733999999994 C 43.62270799999995,1006.8698999999993 43.74358799999995,1007.2421999999995 43.952677999999956,1007.5457999999994 L 43.64627799999995,1007.6635999999994 L 43.77590799999995,1008.0171999999994 L 44.23550799999995,1007.8521999999995 C 44.25190799999995,1007.8671999999995 44.265707999999954,1007.8851999999995 44.282607999999954,1007.8991999999995 L 44.152977999999955,1008.0052999999995 L 44.32974799999995,1008.2173999999994 L 44.31794799999995,1008.2413999999994 L 44.64790799999995,1008.4298999999994 L 44.76575799999995,1008.2177999999994 C 44.99383799999995,1008.3157999999994 45.244237999999946,1008.3591999999994 45.50817799999995,1008.3591999999994 C 46.28918799999995,1008.3591999999994 46.95426799999995,1007.8928999999994 47.24050799999995,1007.2160999999994 L 47.582257999999946,1007.2160999999994 L 47.570457999999945,1006.8389999999994 L 47.35833799999995,1006.8389999999994 C 47.381837999999945,1006.7199999999993 47.39373799999995,1006.5995999999993 47.39373799999995,1006.4736999999993 C 47.39373799999995,1005.5976999999993 46.78923799999995,1004.8706999999994 45.97958799999995,1004.6588999999993 L 46.07388799999995,1003.9517999999994 L 45.69678799999995,1003.8927999999994 L 45.696787999999955,1003.8927999999994 M 60.722037999999955,1004.0341999999994 L 60.34492799999995,1004.0811999999994 L 60.427427999999956,1004.8353999999994 L 60.804527999999955,1004.7883999999993 L 60.72202799999995,1004.0341999999994 L 60.722037999999955,1004.0341999999994 M 60.98129799999995,1004.8708999999993 C 59.93994799999995,1004.8708999999993 59.09577799999995,1005.7150999999993 59.09577799999995,1006.7564999999993 C 59.09577799999995,1007.7977999999993 59.93994799999995,1008.6419999999993 60.98129799999995,1008.6419999999993 C 61.050497999999955,1008.6419999999993 61.12609799999995,1008.6519999999992 61.19341799999995,1008.6419999999993 L 61.44088799999995,1009.2547999999992 L 61.794427999999954,1009.1015999999993 L 61.558737999999956,1008.5476999999993 C 62.22258799999996,1008.3316999999993 62.73115799999996,1007.7671999999993 62.84324799999995,1007.0628999999993 L 63.090727999999956,1007.0978999999993 L 63.137827999999956,1006.7206999999993 L 62.86678799999996,1006.6856999999993 C 62.828587999999954,1005.6779999999993 61.998297999999956,1004.8708999999993 60.98126799999996,1004.8708999999993 L 60.98129799999995,1004.8708999999993 M 58.88364799999995,1006.5560999999993 L 58.129447999999954,1006.5800999999993 L 58.141247999999955,1006.9571999999994 L 58.895457999999955,1006.9331999999994 L 58.883657999999954,1006.5560999999993 L 58.88364799999995,1006.5560999999993 M 57.75233799999995,1006.5800999999993 L 56.99812799999995,1006.6040999999993 L 57.00992799999995,1006.9811999999994 L 57.76413799999995,1006.9571999999994 L 57.75233799999995,1006.5800999999993 M 56.62102799999995,1006.6150999999993 L 55.86681799999995,1006.6270999999992 L 55.87861799999995,1007.0041999999993 L 56.632827999999954,1006.9921999999993 L 56.62102799999995,1006.6150999999993 M 55.489717999999954,1006.6390999999993 L 54.73550799999995,1006.6630999999993 L 54.747307999999954,1007.0401999999993 L 55.501517999999955,1007.0161999999993 L 55.489717999999954,1006.6390999999993 M 54.35839799999995,1006.6740999999993 L 53.60418799999995,1006.6860999999992 L 53.61598799999995,1007.0631999999993 L 54.37019799999995,1007.0511999999993 L 54.35839799999995,1006.6740999999993 M 53.22708799999995,1006.6980999999993 L 52.47287799999995,1006.7100999999992 L 52.48467799999995,1007.0871999999993 L 53.23888799999995,1007.0751999999993 L 53.22708799999995,1006.6980999999993 M 52.09577799999995,1006.7220999999993 L 51.34156799999995,1006.7460999999993 L 51.35336799999995,1007.1231999999993 L 52.107577999999954,1007.0991999999993 L 52.09577799999995,1006.7220999999993 M 50.96445799999995,1006.7570999999992 L 50.21024799999995,1006.7690999999992 L 50.22204799999995,1007.1461999999992 L 50.97625799999995,1007.1341999999993 L 50.96445799999995,1006.7570999999992 M 63.51496799999995,1006.7570999999992 L 63.46786799999995,1007.1341999999993 L 64.22207799999995,1007.2281999999993 L 64.25737799999996,1006.8510999999993 L 63.51495799999996,1006.7570999999992 L 63.51496799999995,1006.7570999999992 M 49.83314799999995,1006.7810999999992 L 49.07893799999995,1006.8050999999992 L 49.09073799999995,1007.1821999999993 L 49.84493799999995,1007.1581999999993 L 49.83313799999995,1006.7810999999992 L 49.83314799999995,1006.7810999999992 M 81.50991799999996,1006.7810999999992 C 80.48077799999996,1006.7810999999992 79.64385799999995,1007.6067999999992 79.62439799999996,1008.6312999999992 L 79.24728799999995,1008.5842999999992 L 79.20018799999995,1008.9495999999992 L 79.64799799999996,1009.0085999999992 C 79.80986799999995,1009.8854999999992 80.58625799999996,1010.5523999999992 81.50995799999995,1010.5523999999992 C 82.55129799999996,1010.5523999999992 83.39547799999995,1009.7081999999992 83.39547799999995,1008.6668999999993 C 83.39547799999995,1007.6254999999993 82.55129799999996,1006.7812999999993 81.50995799999995,1006.7812999999993 L 81.50991799999996,1006.7810999999992 M 48.70183799999996,1006.8050999999992 L 47.94762799999996,1006.8290999999992 L 47.95942799999996,1007.2061999999993 L 48.71363799999996,1007.1821999999993 L 48.70183799999996,1006.8050999999992 M 64.63449799999997,1006.8880999999992 L 64.58739799999996,1007.2651999999993 L 65.34160799999997,1007.3591999999993 L 65.38870799999997,1006.9820999999993 L 64.63449799999997,1006.8880999999992 M 65.75401799999996,1007.0177999999992 L 65.71871799999995,1007.3948999999992 L 66.46114799999995,1007.4888999999993 L 66.50824799999995,1007.1116999999992 L 65.75403799999995,1007.0176999999992 L 65.75401799999996,1007.0177999999992 M 66.88533799999996,1007.1473999999992 L 66.83823799999996,1007.5244999999992 L 67.59244799999996,1007.6184999999992 L 67.62774799999997,1007.2413999999992 L 66.88532799999997,1007.1473999999992 L 66.88533799999996,1007.1473999999992 M 68.00486799999996,1007.2887999999991 L 67.95776799999996,1007.6540999999992 L 68.71197799999996,1007.7480999999992 L 68.75907799999996,1007.3709999999992 L 68.00486799999996,1007.2889999999992 L 68.00486799999996,1007.2887999999991 M 69.12439799999996,1007.4183999999991 L 69.08899799999996,1007.7836999999992 L 69.83142799999996,1007.8776999999992 L 69.87852799999996,1007.5005999999992 L 69.12432799999996,1007.4175999999992 L 69.12439799999996,1007.4183999999991 M 70.25570799999996,1007.5480999999991 L 70.20860799999996,1007.9133999999991 L 70.96281799999996,1008.0073999999992 L 70.99811799999996,1007.6302999999991 L 70.25569799999997,1007.5482999999991 L 70.25570799999996,1007.5480999999991 M 71.37523799999995,1007.677699999999 L 71.33983799999996,1008.0429999999991 L 72.08226799999996,1008.1369999999991 L 72.12936799999996,1007.7598999999991 L 71.37515799999996,1007.6778999999991 L 71.37523799999995,1007.677699999999 M 43.29274799999995,1007.795499999999 L 42.585667999999956,1008.0547999999991 L 42.715297999999954,1008.4082999999991 L 43.42237799999995,1008.1490999999992 L 43.29274799999995,1007.7954999999992 L 43.29274799999995,1007.795499999999 M 72.50654799999995,1007.807499999999 L 72.45944799999995,1008.172799999999 L 73.21365799999995,1008.2667999999991 L 73.24905799999995,1007.889699999999 L 72.50663799999995,1007.807699999999 L 72.50654799999995,1007.807499999999 M 73.62607799999995,1007.9371999999989 L 73.57897799999995,1008.302499999999 L 74.33318799999995,1008.396499999999 L 74.38028799999995,1008.019399999999 L 73.62607799999995,1007.936399999999 L 73.62607799999995,1007.9371999999989 M 74.74560799999995,1008.0667999999989 L 74.71020799999995,1008.432099999999 L 75.45263799999995,1008.526099999999 L 75.49973799999995,1008.148999999999 L 74.74552799999995,1008.066999999999 L 74.74560799999995,1008.0667999999989 M 42.23213799999995,1008.1845999999989 L 41.52506799999995,1008.443899999999 L 41.65469799999995,1008.797399999999 L 42.36176799999995,1008.538199999999 L 42.23213799999995,1008.184599999999 L 42.23213799999995,1008.1845999999989 M 75.87691799999995,1008.1965999999989 L 75.82981799999995,1008.5618999999989 L 76.58402799999995,1008.655899999999 L 76.61932799999995,1008.2787999999989 L 75.87690799999996,1008.1967999999989 L 75.87691799999995,1008.1965999999989 M 43.87018799999995,1008.2555999999988 L 43.30452799999995,1008.7505999999988 L 43.55199799999995,1009.0333999999988 L 44.11765799999995,1008.5384999999987 L 43.87018799999995,1008.2555999999987 L 43.87018799999995,1008.2555999999988 M 76.99644799999996,1008.3265999999988 L 76.94934799999996,1008.6918999999989 L 77.70355799999996,1008.785899999999 L 77.75065799999996,1008.4087999999989 L 76.99644799999996,1008.3267999999989 L 76.99644799999996,1008.3265999999988 M 78.11597799999996,1008.4562999999988 L 78.08057799999996,1008.8215999999989 L 78.82300799999996,1008.9155999999989 L 78.87010799999996,1008.5384999999989 L 78.11589799999996,1008.4554999999989 L 78.11597799999996,1008.4562999999988 M 41.17152799999995,1008.5740999999988 L 40.46445799999995,1008.8333999999988 L 40.59408799999995,1009.1868999999989 L 41.30115799999995,1008.9275999999988 L 41.17152799999995,1008.5740999999988 M 44.129447999999954,1008.5740999999988 L 43.76412799999996,1009.2339999999988 L 44.09408799999996,1009.4225999999987 L 44.459407999999954,1008.7625999999988 L 44.129447999999954,1008.5740999999988 M 40.11092799999995,1008.9629999999988 L 39.40385799999995,1009.2221999999988 L 39.53348799999995,1009.5757999999988 L 40.24055799999995,1009.3164999999988 L 40.11092799999995,1008.9629999999987 L 40.11092799999995,1008.9629999999988 M 43.02169799999995,1008.9979999999988 L 42.44425799999995,1009.4928999999988 L 42.69173799999995,1009.7757999999989 L 43.269177999999954,1009.2807999999989 L 43.02169799999995,1008.9979999999989 L 43.02169799999995,1008.9979999999988 M 39.05031799999995,1009.3514999999989 L 38.343247999999946,1009.6107999999989 L 38.472877999999945,1009.964299999999 L 39.179947999999946,1009.705099999999 L 39.05031799999995,1009.351499999999 L 39.05031799999995,1009.3514999999989 M 61.93583799999995,1009.4575999999988 L 61.58230799999995,1009.5989999999988 L 61.87691799999995,1010.2942999999988 L 62.218667999999944,1010.1528999999988 L 61.93583799999995,1009.4575999999988 M 43.58735799999995,1009.5635999999988 L 43.222037999999955,1010.2235999999988 L 43.551997999999955,1010.4120999999988 L 43.91731799999995,1009.7521999999988 L 43.58735799999995,1009.5635999999988 M 37.97792799999995,1009.7403999999988 L 37.27085799999995,1009.9996999999988 L 37.400487999999946,1010.3649999999989 L 38.11933799999995,1010.0938999999988 L 37.97792799999995,1009.7403999999988 M 42.16142799999995,1009.7403999999988 L 41.59577799999995,1010.2353999999988 L 41.84324799999995,1010.5181999999987 L 42.408907999999954,1010.0231999999987 L 42.16142799999995,1009.7403999999988 M 36.91731799999995,1010.1292999999988 L 36.21024799999995,1010.4002999999988 L 36.33987799999995,1010.7538999999988 L 37.04694799999995,1010.4945999999987 L 36.91731799999995,1010.1292999999987 L 36.91731799999995,1010.1292999999988 M 41.31294799999995,1010.4827999999989 L 40.735507999999946,1010.9777999999989 L 40.982977999999946,1011.2605999999988 L 41.56041799999995,1010.7656999999988 L 41.31294799999995,1010.4827999999987 L 41.31294799999995,1010.4827999999989 M 62.37186799999995,1010.5067999999989 L 62.01832799999995,1010.6482999999988 L 62.301157999999944,1011.3434999999988 L 62.65469799999995,1011.2020999999988 L 62.37186799999995,1010.5067999999989 M 35.85671799999995,1010.5307999999989 L 35.14964799999995,1010.7900999999989 L 35.27927799999995,1011.143599999999 L 35.98634799999995,1010.884399999999 L 35.85671799999995,1010.530799999999 L 35.85671799999995,1010.5307999999989 M 43.03348799999995,1010.5547999999989 L 42.66816799999995,1011.2147999999988 L 42.99812799999995,1011.4032999999988 L 43.36344799999995,1010.7433999999988 L 43.03348799999995,1010.5547999999989 M 34.79610799999995,1010.9201999999989 L 34.089037999999945,1011.1793999999989 L 34.218667999999944,1011.5328999999989 L 34.925737999999946,1011.2736999999989 L 34.79610799999995,1010.9201999999989 M 40.45267799999995,1011.2265999999989 L 39.88701799999995,1011.721499999999 L 40.13449799999995,1012.0042999999989 L 40.70014799999995,1011.5093999999989 L 40.45267799999995,1011.2265999999989 M 33.735507999999946,1011.3085999999989 L 33.028437999999944,1011.5677999999989 L 33.15806799999994,1011.921299999999 L 33.865137999999945,1011.662099999999 L 33.735507999999946,1011.3085999999989 M 42.49139799999995,1011.5441999999989 L 42.114287999999945,1012.2041999999989 L 42.44425799999995,1012.3926999999989 L 42.82135799999995,1011.7327999999989 L 42.49139799999995,1011.5441999999989 M 62.79610799999995,1011.5441999999989 L 62.45435799999995,1011.6973999999989 L 62.737187999999946,1012.3926999999989 L 63.09072799999995,1012.2512999999989 L 62.79610799999995,1011.5441999999989 M 32.67489799999994,1011.6973999999989 L 31.96782799999994,1011.9566999999989 L 32.09745799999994,1012.310199999999 L 32.80452799999994,1012.050999999999 L 32.67489799999994,1011.697399999999 L 32.67489799999994,1011.6973999999989 M 39.604187999999944,1011.9684999999989 L 39.038537999999946,1012.463399999999 L 39.286007999999946,1012.746299999999 L 39.85166799999995,1012.251299999999 L 39.604187999999944,1011.968499999999 L 39.604187999999944,1011.9684999999989 M 31.614287999999945,1012.0862999999989 L 30.907217999999943,1012.345599999999 L 31.036847999999942,1012.699099999999 L 31.743917999999944,1012.439899999999 L 31.614287999999945,1012.086299999999 L 31.614287999999945,1012.0862999999989 M 30.553687999999944,1012.475199999999 L 29.834827999999945,1012.734499999999 L 29.964457999999944,1013.087999999999 L 30.683317999999943,1012.8287999999991 L 30.553687999999944,1012.4751999999991 L 30.553687999999944,1012.475199999999 M 41.93752799999994,1012.5341999999989 L 41.57220799999995,1013.1940999999989 L 41.902167999999946,1013.3708999999989 L 42.26748799999994,1012.7227999999989 L 41.93752799999994,1012.5341999999989 M 63.23213799999994,1012.5931999999989 L 62.87859799999994,1012.7345999999989 L 63.17321799999994,1013.4298999999988 L 63.51496799999994,1013.2884999999989 L 63.23213799999994,1012.5931999999989 M 38.743917999999944,1012.7110999999989 L 38.178267999999946,1013.2059999999989 L 38.425737999999946,1013.4887999999988 L 38.99139799999995,1012.9938999999988 L 38.743917999999944,1012.7110999999989 M 29.481297999999946,1012.8642999999988 L 28.774227999999944,1013.1234999999988 L 28.903857999999943,1013.4770999999988 L 29.610927999999944,1013.2177999999988 L 29.481297999999946,1012.8642999999987 L 29.481297999999946,1012.8642999999988 M 28.420687999999945,1013.2530999999988 L 27.713617999999943,1013.5123999999988 L 27.843247999999942,1013.8658999999989 L 28.550317999999944,1013.6066999999989 L 28.420687999999945,1013.2530999999989 L 28.420687999999945,1013.2530999999988 M 37.89543799999994,1013.4534999999987 L 37.32977799999994,1013.9483999999987 L 37.577257999999944,1014.2312999999988 L 38.14290799999994,1013.7362999999988 L 37.89543799999994,1013.4534999999988 L 37.89543799999994,1013.4534999999987 M 41.383647999999944,1013.5244999999987 L 41.01832799999995,1014.1843999999987 L 41.34829799999995,1014.3611999999987 L 41.71361799999995,1013.7011999999987 L 41.383647999999944,1013.5244999999987 M 27.360087999999944,1013.6422999999987 L 26.653007999999943,1013.9015999999988 L 26.78263799999994,1014.2550999999988 L 27.489717999999943,1013.9958999999989 L 27.360087999999944,1013.6422999999988 L 27.360087999999944,1013.6422999999987 M 63.65637799999995,1013.6422999999987 L 63.31462799999995,1013.7836999999987 L 63.597457999999946,1014.4789999999987 L 63.950987999999946,1014.3375999999987 L 63.65637799999995,1013.6422999999987 M 26.299477999999944,1014.0311999999988 L 25.592407999999942,1014.2904999999988 L 25.72203799999994,1014.6439999999989 L 26.429107999999943,1014.3847999999989 L 26.299477999999944,1014.0311999999989 L 26.299477999999944,1014.0311999999988 M 37.046947999999944,1014.1961999999987 L 36.46950799999994,1014.6910999999988 L 36.716987999999944,1014.9739999999988 L 37.29442799999995,1014.4789999999988 L 37.046947999999944,1014.1961999999988 L 37.046947999999944,1014.1961999999987 M 25.238867999999943,1014.4200999999987 L 24.53179799999994,1014.6793999999987 L 24.66142799999994,1015.0328999999988 L 25.368497999999942,1014.7735999999987 L 25.238867999999943,1014.4200999999987 M 40.841567999999945,1014.5140999999987 L 40.47624799999995,1015.1739999999987 L 40.80620799999995,1015.3507999999987 L 41.171527999999945,1014.6908999999987 L 40.841567999999945,1014.5140999999987 M 64.09240799999995,1014.6908999999987 L 63.75065799999995,1014.8322999999987 L 64.03348799999995,1015.5275999999986 L 64.38701799999996,1015.3861999999987 L 64.09240799999995,1014.6908999999987 M 24.178267999999946,1014.8086999999987 L 23.471197999999944,1015.0679999999987 L 23.600827999999943,1015.4214999999988 L 24.307897999999945,1015.1621999999987 L 24.178267999999946,1014.8086999999987 M 36.186677999999944,1014.9382999999987 L 35.621027999999946,1015.4332999999987 L 35.868497999999946,1015.7160999999986 L 36.43415799999995,1015.2211999999986 L 36.186677999999944,1014.9382999999985 L 36.186677999999944,1014.9382999999987 M 23.117657999999942,1015.1975999999987 L 22.398807999999942,1015.4568999999988 L 22.52843799999994,1015.8103999999988 L 23.24728799999994,1015.5510999999988 L 23.117657999999942,1015.1975999999987 M 40.287687999999946,1015.5039999999988 L 39.922377999999945,1016.1638999999988 L 40.252337999999945,1016.3406999999987 L 40.61765799999994,1015.6807999999987 L 40.28768799999994,1015.5039999999988 L 40.287687999999946,1015.5039999999988 M 22.045267999999947,1015.5869999999987 L 21.338197999999945,1015.8462999999988 L 21.467827999999944,1016.1997999999988 L 22.174897999999946,1015.9404999999988 L 22.045267999999947,1015.5869999999987 M 35.33819799999995,1015.6809999999988 L 34.760757999999946,1016.1758999999988 L 35.008227999999946,1016.4587999999989 L 35.58566799999995,1015.9637999999989 L 35.33819799999995,1015.6809999999989 L 35.33819799999995,1015.6809999999988 M 64.52843799999995,1015.7279999999988 L 64.17489799999996,1015.8811999999988 L 64.46950799999996,1016.5764999999988 L 64.81125799999997,1016.4232999999988 L 64.52843799999997,1015.7279999999988 L 64.52843799999995,1015.7279999999988 M 20.984657999999953,1015.9754999999988 L 20.27758799999995,1016.2346999999987 L 20.40721799999995,1016.5882999999988 L 21.114287999999952,1016.3289999999987 L 20.984657999999953,1015.9754999999986 L 20.984657999999953,1015.9754999999988 M 19.924057999999953,1016.3643999999988 L 19.21698799999995,1016.6235999999988 L 19.34661799999995,1016.9771999999988 L 20.05368799999995,1016.7178999999987 L 19.924057999999953,1016.3643999999987 L 19.924057999999953,1016.3643999999988 M 34.47792799999995,1016.4233999999988 L 33.91226799999995,1016.9182999999988 L 34.15974799999995,1017.2010999999987 L 34.72540799999995,1016.7061999999987 L 34.47792799999995,1016.4233999999988 M 39.73381799999995,1016.4943999999988 L 39.36849799999995,1017.1542999999988 L 39.698467999999956,1017.3310999999987 L 40.06378799999995,1016.6710999999988 L 39.73381799999995,1016.4943999999988 M 18.86344799999995,1016.7535999999988 L 18.156377999999947,1017.0128999999988 L 18.286007999999946,1017.3663999999989 L 18.993077999999947,1017.1071999999989 L 18.86344799999995,1016.7535999999989 L 18.86344799999995,1016.7535999999988 M 64.95267799999995,1016.7775999999988 L 64.61092799999994,1016.9189999999987 L 64.89375799999995,1017.6142999999987 L 65.24728799999995,1017.4728999999987 L 64.95267799999995,1016.7775999999988 M 17.802847999999948,1017.1428999999988 L 17.095777999999946,1017.4021999999989 L 17.225407999999945,1017.7556999999989 L 17.932477999999946,1017.496499999999 L 17.802847999999948,1017.1428999999989 L 17.802847999999948,1017.1428999999988 M 33.62944799999995,1017.1668999999988 L 33.063787999999946,1017.6618999999988 L 33.311257999999945,1017.9446999999988 L 33.87691799999995,1017.4497999999987 L 33.62944799999995,1017.1668999999987 L 33.62944799999995,1017.1668999999988 M 39.191737999999944,1017.4850999999989 L 38.82641799999995,1018.1449999999988 L 39.15637799999995,1018.3217999999988 L 39.521697999999944,1017.6618999999988 L 39.191737999999944,1017.4850999999989 M 16.742237999999944,1017.5320999999989 L 16.035167999999942,1017.7913999999989 L 16.16479799999994,1018.144899999999 L 16.871867999999942,1017.885699999999 L 16.742237999999944,1017.532099999999 L 16.742237999999944,1017.5320999999989 M 65.38870799999995,1017.8266999999988 L 65.03516799999996,1017.9680999999988 L 65.32977799999996,1018.6633999999988 L 65.67152799999997,1018.5219999999988 L 65.38870799999997,1017.8266999999988 L 65.38870799999995,1017.8266999999988 M 32.769177999999954,1017.9086999999988 L 32.20351799999995,1018.4036999999988 L 32.45098799999995,1018.6864999999988 L 33.016647999999954,1018.1915999999987 L 32.769177999999954,1017.9086999999987 L 32.769177999999954,1017.9086999999988 M 15.681627999999954,1017.9206999999988 L 14.974557999999954,1018.1799999999988 L 15.104187999999954,1018.5334999999989 L 15.811257999999954,1018.2742999999989 L 15.681627999999954,1017.9206999999989 L 15.681627999999954,1017.9206999999988 M 30.129447999999954,1017.9326999999987 C 29.178657999999952,1018.0296999999987 28.432477999999954,1018.8419999999987 28.432477999999954,1019.8182999999987 C 28.432477999999954,1020.8595999999986 29.276647999999952,1021.7037999999986 30.317997999999953,1021.7037999999986 C 31.35933799999995,1021.7037999999986 32.20351799999995,1020.8595999999986 32.20351799999995,1019.8182999999987 C 32.20351799999995,1019.5482999999987 32.14071799999995,1019.2843999999986 32.03853799999995,1019.0522999999987 L 32.16816799999995,1018.9343999999987 L 31.920687999999952,1018.6515999999988 L 31.849987999999954,1018.7105999999987 C 31.507597999999952,1018.2358999999988 30.948037999999954,1017.9327999999988 30.318007999999953,1017.9327999999988 C 30.25290799999995,1017.9327999999988 30.192837999999952,1017.9227999999988 30.129457999999953,1017.9327999999988 L 30.129447999999954,1017.9326999999987 M 14.609237999999953,1018.3097999999987 L 13.902167999999953,1018.5690999999988 L 14.031797999999954,1018.9225999999989 L 14.738867999999954,1018.6633999999989 L 14.609237999999953,1018.3097999999989 L 14.609237999999953,1018.3097999999987 M 38.63785799999995,1018.4747999999987 L 38.272537999999955,1019.1229999999987 L 38.60250799999996,1019.3114999999987 L 38.967827999999955,1018.6515999999987 L 38.63785799999995,1018.4747999999987 M 9.223718099999953,1018.4987999999987 C 8.182377699999954,1018.4987999999987 7.338197699999953,1019.3429999999987 7.338197699999953,1020.3842999999987 C 7.338197699999953,1021.4256999999986 8.182377699999954,1022.2698999999986 9.223718099999953,1022.2698999999986 C 10.265067999999953,1022.2698999999986 11.109237999999953,1021.4256999999986 11.109237999999953,1020.3842999999987 C 11.109237999999953,1020.2541999999987 11.099037999999954,1020.1299999999987 11.073937999999954,1020.0071999999986 L 11.557107999999953,1019.8304999999987 L 11.427477999999953,1019.4768999999986 L 10.956097999999953,1019.6536999999986 C 10.669857999999953,1018.9769999999986 10.004777999999952,1018.4987999999986 9.223768099999953,1018.4987999999986 L 9.223718099999953,1018.4987999999987 M 13.548637999999954,1018.6991999999987 L 12.841567999999954,1018.9583999999986 L 12.971197999999955,1019.3118999999987 L 13.678267999999955,1019.0526999999987 L 13.548637999999954,1018.6991999999987 M 65.82472799999996,1018.8758999999986 L 65.47119799999996,1019.0172999999986 L 65.75401799999996,1019.7125999999986 L 66.10755799999995,1019.5711999999986 L 65.82472799999995,1018.8758999999986 L 65.82472799999996,1018.8758999999986 M 12.488027999999964,1019.0879999999986 L 11.780957999999965,1019.3472999999987 L 11.910587999999965,1019.7007999999987 L 12.617657999999965,1019.4415999999987 L 12.488027999999964,1019.0879999999987 L 12.488027999999964,1019.0879999999986 M 38.09577799999997,1019.4533999999986 L 37.73045799999997,1020.1132999999986 L 38.04863799999997,1020.3017999999986 L 38.42573799999997,1019.6418999999986 L 38.09577799999997,1019.4533999999986 M 66.24896799999996,1019.9129999999986 L 65.90721799999996,1020.0543999999986 L 66.19004799999996,1020.7613999999986 L 66.54358799999996,1020.6081999999986 L 66.24896799999996,1019.9129999999986 M 37.54189799999996,1020.4432999999987 L 37.176577999999964,1021.1031999999987 L 37.50654799999997,1021.2916999999986 L 37.871867999999964,1020.6317999999986 L 37.54189799999996,1020.4432999999987 M 66.68499799999996,1020.9617999999987 L 66.33146799999996,1021.1031999999987 L 66.62607799999996,1021.7984999999986 L 66.96782799999997,1021.6570999999986 L 66.68499799999996,1020.9617999999987 M 36.988027999999964,1021.4331999999987 L 36.62270799999997,1022.0930999999987 L 36.95267799999997,1022.2815999999987 L 37.31799799999997,1021.6216999999987 L 36.988027999999964,1021.4331999999987 M 67.12102799999997,1022.0105999999987 L 66.76748799999997,1022.1519999999987 L 67.05031799999998,1022.8472999999987 L 67.40385799999997,1022.7058999999987 L 67.12102799999997,1022.0105999999987 M 36.44593799999997,1022.4230999999987 L 36.08061799999997,1023.0829999999987 L 36.410587999999976,1023.2714999999987 L 36.77590799999997,1022.6115999999987 L 36.44593799999997,1022.4230999999987 M 67.54526799999996,1023.0475999999987 L 67.20351799999996,1023.2007999999987 L 67.48634799999996,1023.8960999999987 L 67.83987799999997,1023.7546999999987 L 67.54526799999996,1023.0475999999987 M 35.892067999999966,1023.4129999999988 L 35.52674799999997,1024.0728999999988 L 35.85671799999997,1024.2613999999987 L 36.22203799999997,1023.6014999999987 L 35.892067999999966,1023.4129999999988 M 67.98129799999997,1024.0964999999987 L 67.62775799999997,1024.2378999999987 L 67.92237799999997,1024.9448999999988 L 68.26412799999997,1024.7916999999989 L 67.98129799999997,1024.0964999999987 M 35.33819799999997,1024.4028999999987 L 34.97287799999997,1025.0627999999988 L 35.302847999999976,1025.2512999999988 L 35.66816799999997,1024.5913999999987 L 35.33819799999997,1024.4028999999987 M 68.40553799999998,1025.1452999999988 L 68.06378799999997,1025.2866999999987 L 68.34661799999998,1025.9819999999988 L 68.70014799999998,1025.8405999999989 L 68.40553799999998,1025.1452999999988 M 34.796107999999975,1025.3927999999987 L 34.43078799999998,1026.0526999999988 L 34.76075799999998,1026.2294999999988 L 35.12607799999998,1025.5694999999987 L 34.796107999999975,1025.3927999999987 M 68.84156799999997,1026.1940999999988 L 68.49981799999996,1026.3354999999988 L 68.78263799999996,1027.0307999999989 L 69.13617799999996,1026.889399999999 L 68.84156799999995,1026.1940999999988 L 68.84156799999997,1026.1940999999988 M 34.242237999999965,1026.3826999999987 L 33.87691799999997,1027.0425999999989 L 34.20688799999997,1027.2193999999988 L 34.57220799999997,1026.5593999999987 L 34.242237999999965,1026.3826999999987 M 69.27758799999997,1027.2310999999988 L 68.92405799999996,1027.3842999999988 L 69.21866799999997,1028.079599999999 L 69.56041799999997,1027.938199999999 L 69.27758799999997,1027.2310999999988 M 33.70014799999996,1027.3725999999988 L 33.334827999999966,1028.032499999999 L 33.66479799999997,1028.2092999999988 L 34.030117999999966,1027.5492999999988 L 33.70014799999996,1027.3725999999988 M 69.70183799999997,1028.2799999999988 L 69.36008799999996,1028.4213999999988 L 69.64290799999996,1029.116699999999 L 69.99644799999996,1028.975199999999 L 69.70183799999995,1028.2799999999988 L 69.70183799999997,1028.2799999999988 M 33.14627799999997,1028.361999999999 L 32.78095799999997,1029.021899999999 L 33.11092799999997,1029.198699999999 L 33.47624799999997,1028.538699999999 L 33.14627799999997,1028.361999999999 M 70.13785799999997,1029.328299999999 L 69.78432799999996,1029.469699999999 L 70.07893799999997,1030.164999999999 L 70.42068799999997,1030.023599999999 L 70.13785799999997,1029.328299999999 M 32.59240799999996,1029.3522999999989 L 32.227087999999966,1030.012199999999 L 32.55705799999997,1030.188999999999 L 32.922377999999966,1029.5290999999988 L 32.59240799999996,1029.3522999999989 M 32.05031799999996,1030.342199999999 L 31.68499799999996,1030.990299999999 L 32.01496799999996,1031.178899999999 L 32.38028799999996,1030.5189999999989 L 32.050317999999955,1030.342199999999 L 32.05031799999996,1030.342199999999 M 70.57388799999995,1030.377199999999 L 70.22034799999996,1030.518599999999 L 70.50317799999996,1031.213899999999 L 70.85671799999996,1031.072499999999 L 70.57388799999995,1030.377199999999 M 31.49644799999995,1031.319899999999 L 31.13112799999995,1031.9798999999991 L 31.46109799999995,1032.168399999999 L 31.82641799999995,1031.508499999999 L 31.49644799999995,1031.319899999999 M 70.99812799999995,1031.413899999999 L 70.65637799999995,1031.567099999999 L 70.93920799999995,1032.2623999999992 L 71.29274799999995,1032.1091999999992 L 70.99812799999995,1031.413899999999 M 30.95435799999995,1032.3095999999991 L 30.57725799999995,1032.9694999999992 L 30.90721799999995,1033.1579999999992 L 31.27253799999995,1032.498099999999 L 30.95435799999995,1032.3095999999991 M 71.43415799999994,1032.462799999999 L 71.08061799999994,1032.604199999999 L 71.37523799999994,1033.2994999999992 L 71.71698799999994,1033.1579999999992 L 71.43415799999994,1032.462799999999 M 28.915637999999937,1033.1697999999992 C 27.33518799999994,1033.1697999999992 26.051997999999937,1034.4411999999993 26.051997999999937,1036.021699999999 C 26.051997999999937,1037.6020999999992 27.33518799999994,1038.885299999999 28.915637999999937,1038.885299999999 C 30.496087999999936,1038.885299999999 31.779277999999938,1037.602099999999 31.779277999999938,1036.021699999999 C 31.779277999999938,1035.0737999999992 31.310707999999938,1034.244499999999 30.600827999999936,1033.723699999999 L 30.730457999999935,1033.4879999999991 L 30.400487999999935,1033.2994999999992 L 30.282637999999935,1033.5115999999991 C 29.877167999999934,1033.2912999999992 29.409527999999934,1033.1697999999992 28.915637999999934,1033.1697999999992 L 28.915637999999937,1033.1697999999992 M 71.87018799999993,1033.5115999999991 L 71.51664799999993,1033.652999999999 L 71.79947799999994,1034.3482999999992 L 72.15300799999994,1034.2068999999992 L 71.87018799999994,1033.5115999999991 L 71.87018799999993,1033.5115999999991 M 72.29442799999993,1034.5603999999992 L 71.95267799999992,1034.7017999999991 L 72.23550799999992,1035.3970999999992 L 72.58903799999993,1035.2556999999993 L 72.29442799999993,1034.5603999999992 M 72.73045799999993,1035.5973999999992 L 72.37691799999993,1035.7388999999991 L 72.67152799999994,1036.4458999999993 L 73.01327799999994,1036.2926999999993 L 72.73045799999994,1035.5973999999992 L 72.73045799999993,1035.5973999999992 M 73.15469799999993,1036.6462999999992 L 72.81294799999992,1036.7876999999992 L 73.09577799999992,1037.4829999999993 L 73.44930799999993,1037.3414999999993 L 73.15469799999993,1036.6462999999992 M 73.59072799999993,1037.6950999999992 L 73.23718799999993,1037.8364999999992 L 73.53179799999994,1038.5317999999993 L 73.87354799999994,1038.3903999999993 L 73.59072799999994,1037.6950999999992 L 73.59072799999993,1037.6950999999992 M 74.02674799999993,1038.7320999999993 L 73.67321799999992,1038.8852999999992 L 73.96782799999993,1039.5805999999993 L 74.30957799999993,1039.4391999999993 L 74.02674799999993,1038.7320999999993 M 74.45098799999992,1039.7808999999993 L 74.10923799999992,1039.9223999999992 L 74.39206799999992,1040.6293999999994 L 74.74560799999992,1040.4761999999994 L 74.45098799999992,1039.7808999999993 M 74.88701799999993,1040.8297999999993 L 74.53348799999992,1040.9711999999993 L 74.82809799999993,1041.6664999999994 L 75.16984799999993,1041.5250999999994 L 74.88701799999993,1040.8297999999993 M 75.32304799999993,1041.8785999999993 L 74.96950799999993,1042.0199999999993 L 75.25233799999994,1042.7152999999994 L 75.60587799999993,1042.5738999999994 L 75.32304799999993,1041.8785999999993 M 75.74728799999993,1042.9155999999994 L 75.40553799999992,1043.0687999999993 L 75.68836799999993,1043.7640999999994 L 76.04189799999993,1043.6226999999994 L 75.74728799999993,1042.9155999999994 M 76.18331799999993,1043.9643999999994 L 75.82977799999993,1044.1058999999993 L 76.12439799999993,1044.8128999999994 L 76.46614799999993,1044.6596999999995 L 76.18331799999993,1043.9643999999994 M 76.60755799999993,1045.0132999999994 L 76.26580799999992,1045.1546999999994 L 76.54863799999993,1045.8499999999995 L 76.90216799999993,1045.7085999999995 L 76.60755799999993,1045.0132999999994 M 78.17489799999993,1045.8263999999995 C 77.66867799999993,1045.8263999999995 77.18813799999992,1045.9541999999994 76.77253799999993,1046.1798999999994 L 76.70183799999992,1046.2038999999993 L 76.71363799999992,1046.2278999999992 C 75.83562799999991,1046.7346999999993 75.24057799999991,1047.6749999999993 75.24057799999991,1048.7615999999991 C 75.24057799999991,1050.381499999999 76.55501799999992,1051.695899999999 78.17491799999992,1051.695899999999 C 79.79481799999992,1051.695899999999 81.10925799999993,1050.381499999999 81.10925799999993,1048.7615999999991 C 81.10925799999993,1047.1416999999992 79.79481799999992,1045.8272999999992 78.17491799999992,1045.8272999999992 L 78.17489799999993,1045.8263999999995" display="inline" fill="#000000" fill-opacity="1" marker="none" overflow="visible" stroke="none" style="text-indent:0;text-transform:none;direction:ltr;block-progression:tb;baseline-shift:baseline;color:#000000;enable-background:accumulate;" visibility="visible"/>
</svg>
