<?xml version="1.0" ?>
<svg xmlns="http://www.w3.org/2000/svg" xmlns:cc="http://creativecommons.org/ns#" xmlns:dc="http://purl.org/dc/elements/1.1/" xmlns:ev="http://www.w3.org/2001/xml-events" xmlns:inkscape="http://www.inkscape.org/namespaces/inkscape" xmlns:rdf="http://www.w3.org/1999/02/22-rdf-syntax-ns#" xmlns:sodipodi="http://sodipodi.sourceforge.net/DTD/sodipodi-0.dtd" xmlns:svg="http://www.w3.org/2000/svg" xmlns:xlink="http://www.w3.org/1999/xlink" baseProfile="full" height="494px" version="1.1" viewBox="0 0 100 100" width="600px" x="0px" y="0px">
	<defs/>
	<path d="M 31.993286,963.10397 C 31.079126000000002,963.10397 30.338056,963.84504 30.338056,964.7592 C 30.338056,965.2111299999999 30.520336,965.62951 30.813936,965.9282 L 30.482886,966.2799399999999 L 30.720826,966.50754 L 31.072566,966.14545 C 31.334505999999998,966.31931 31.655345999999998,966.41443 31.993285999999998,966.41443 C 32.907446,966.41443 33.648516,965.67336 33.648516,964.7592000000001 C 33.648516,963.84504 32.907446,963.1039700000001 31.993286,963.1039700000001 L 31.993286,963.10397 M 33.245056,966.01097 L 32.965736,966.18683 L 33.327816,966.74547 L 33.596796,966.56961 L 33.245056,966.01097 M 30.255295999999998,966.51788 L 29.800106,966.99376 L 30.038045999999998,967.2316999999999 L 30.493235999999996,966.74547 L 30.255295999999998,966.51788 M 33.783006,966.84893 L 33.503686,967.0248 L 33.865766,967.58344 L 34.145086,967.39722 L 33.783006,966.84893 M 29.572516,967.24204 L 29.106976,967.7179199999999 L 29.344915999999998,967.94552 L 29.810456,967.46964 L 29.572516,967.24204 M 34.320956,967.6765399999999 L 34.041636000000004,967.85241 L 34.403716,968.4110499999999 L 34.683036,968.2351799999999 L 34.320956,967.6765399999999 M 28.879386000000004,967.9558599999999 L 28.517306000000005,968.33863 C 28.237876000000004,968.1232 27.893946000000003,967.9972399999999 27.513816000000006,967.9972399999999 C 26.599666000000006,967.9972399999999 25.858586000000006,968.7383199999999 25.858586000000006,969.6524699999999 C 25.858586000000006,970.5666299999999 26.599666000000006,971.3076999999998 27.513816000000006,971.3076999999998 C 27.677716000000007,971.3076999999998 27.829866000000006,971.2692999999998 27.979356000000006,971.2248999999998 L 28.051756000000005,971.4007699999999 L 28.362116000000004,971.2766299999998 L 28.289716000000006,971.1007599999998 C 28.809096000000004,970.8214899999998 29.169066000000004,970.2834299999998 29.169066000000004,969.6524299999998 C 29.169066000000004,969.2379099999997 29.007036000000003,968.8565799999998 28.755256000000003,968.5661899999998 L 29.117336,968.1834199999997 L 28.879396000000003,967.9558199999997 L 28.879386000000004,967.9558599999999 M 34.858906000000005,968.5144999999999 L 34.579586000000006,968.6903699999999 L 34.941666000000005,969.2490099999999 L 35.220986,969.0627999999999 L 34.858906000000005,968.5144999999999 M 46.29034600000001,968.9283099999999 C 45.376186000000004,968.9283099999999 44.635116000000004,969.6693799999999 44.635116000000004,970.5835399999999 C 44.635116000000004,971.1870499999999 44.959486000000005,971.7116299999999 45.442036,972.0008299999998 L 45.235136000000004,972.4146399999998 L 45.524796,972.5594699999998 L 45.742046,972.1456599999998 C 45.914986,972.2069599999998 46.096396,972.2387599999998 46.290346,972.2387599999998 C 47.204496,972.2387599999998 47.945576,971.4976899999998 47.945576,970.5835299999999 C 47.945576,969.6693699999998 47.204496000000006,968.9282999999999 46.290346,968.9282999999999 L 46.29034600000001,968.9283099999999 M 35.39685600000001,969.3421199999999 L 35.127886000000004,969.5283299999999 L 35.47961600000001,970.0766299999999 L 35.758936000000006,969.9007599999999 L 35.39685600000001,969.3421199999999 M 35.945156000000004,970.1800799999999 L 35.665836000000006,970.3559499999999 L 36.027916000000005,970.9145899999999 L 36.29688600000001,970.7283699999998 L 35.945156000000004,970.1800799999999 M 25.910316,970.4387099999999 L 25.320636,970.7490599999999 L 25.475816000000002,971.0387299999999 L 26.065496000000003,970.7283699999999 L 25.910316,970.4387099999999 M 25.030976000000003,970.9042399999998 L 24.451646000000004,971.2145999999998 L 24.606826000000005,971.5146099999998 L 25.186156000000004,971.1939099999998 L 25.030976000000003,970.9042399999998 M 36.48310600000001,971.0076899999998 L 36.20378600000001,971.1939099999998 L 36.56586600000001,971.7421999999998 L 36.845186000000005,971.5663299999998 L 36.48310600000001,971.0076899999998 M 24.151636000000007,971.3697799999998 L 23.572306000000008,971.6904799999998 L 23.727476000000006,971.9801399999998 L 24.306806000000005,971.6697899999998 L 24.151636000000007,971.3697799999998 M 28.486266000000008,971.5766799999998 L 28.175916000000008,971.7008199999998 L 28.42419600000001,972.3215299999998 L 28.73455600000001,972.1973899999998 L 28.486266000000008,971.5766799999998 M 23.282636000000007,971.8456499999998 L 22.692966000000006,972.1560099999997 L 22.848136000000004,972.4456799999997 L 23.437816000000005,972.1353199999998 L 23.282636000000004,971.8456499999998 L 23.282636000000007,971.8456499999998 M 37.02105600000001,971.8456499999998 L 36.74173600000001,972.0215199999998 L 37.10381600000001,972.5801599999998 L 37.38313600000001,972.4042899999997 L 37.02105600000001,971.8456499999998 M 22.403296000000008,972.3111899999998 L 21.813616000000007,972.6215399999998 L 21.979146000000007,972.9112099999998 L 22.558476000000006,972.6008499999998 L 22.403296000000005,972.3111899999998 L 22.403296000000008,972.3111899999998 M 28.85869600000001,972.5077499999998 L 28.54833600000001,972.6318899999998 L 28.79662600000001,973.2422599999998 L 29.09663600000001,973.1181099999998 L 28.858696000000013,972.5077499999998 L 28.85869600000001,972.5077499999998 M 37.55900600000001,972.6732699999998 L 37.27968600000001,972.8594799999997 L 37.64176600000001,973.4181199999997 L 37.92108600000001,973.2319099999997 L 37.55900600000001,972.6732699999998 M 45.07995600000001,972.7042699999997 L 44.77994600000001,973.2939399999997 L 45.06960600000001,973.4491199999997 L 45.37996600000001,972.8594399999996 L 45.07995600000001,972.7042699999996 L 45.07995600000001,972.7042699999997 M 21.52395600000001,972.7766699999997 L 20.94462600000001,973.0870299999997 L 21.09980600000001,973.3766899999997 L 21.67913600000001,973.0663399999997 L 21.52395600000001,972.7766699999997 M 18.69971600000001,973.0352999999998 C 17.78555600000001,973.0352999999998 17.04448600000001,973.7763699999998 17.04448600000001,974.6905299999997 C 17.04448600000001,975.2834399999997 17.35185600000001,975.8051599999998 17.82037600000001,976.0974799999998 L 17.70657600000001,976.5009399999998 L 18.027276000000008,976.5837399999998 L 18.120376000000007,976.2423499999998 C 18.299336000000007,976.3085499999997 18.497726000000007,976.3457999999997 18.699706000000006,976.3457999999997 C 19.613866000000005,976.3457999999997 20.354936000000006,975.6047299999997 20.354936000000006,974.6905699999998 C 20.354936000000006,973.7764099999997 19.613866000000005,973.0353399999998 18.699706000000006,973.0353399999998 L 18.69971600000001,973.0352999999998 M 20.65495600000001,973.2422099999998 L 20.065286000000008,973.5525599999997 L 20.220456000000006,973.8422299999997 L 20.810136000000007,973.5318699999998 L 20.654956000000006,973.2422099999998 L 20.65495600000001,973.2422099999998 M 29.220776000000008,973.4284199999997 L 28.910426000000008,973.5525599999997 L 29.15870600000001,974.1629299999997 L 29.46906600000001,974.0387799999997 L 29.220776000000008,973.4284199999997 M 38.096956000000006,973.5112199999998 L 37.82797600000001,973.6870899999998 L 38.179716000000006,974.2457299999998 L 38.459036000000005,974.0698599999997 L 38.096956000000006,973.5112199999998 M 44.62476600000001,973.5940199999998 L 44.32475600000001,974.1836999999998 L 44.61442600000001,974.3285299999998 L 44.92477600000001,973.7388499999997 L 44.62476600000001,973.5940199999998 M 29.59320600000001,974.3492199999997 L 29.28284600000001,974.4733599999997 L 29.53113600000001,975.0837299999997 L 29.84148600000001,974.9595899999997 L 29.59320600000001,974.3492199999997 M 38.64524600000001,974.3492199999997 L 38.36592600000001,974.5250899999998 L 38.72800600000001,975.0837299999997 L 38.99698600000001,974.8975199999998 L 38.64524600000001,974.3492199999997 M 44.169576000000006,974.4733599999997 L 43.869566000000006,975.0630399999998 L 44.169576000000006,975.2182199999997 L 44.46958600000001,974.6285399999997 L 44.169576000000006,974.4733599999997 M 39.18319600000001,975.1768399999997 L 38.90387600000001,975.3630499999997 L 39.26595600000001,975.9113399999997 L 39.54527600000001,975.7354799999997 L 39.18319600000001,975.1768399999997 M 29.955286000000008,975.2699399999998 L 29.655276000000008,975.3940899999998 L 29.90355600000001,976.0044499999998 L 30.20356600000001,975.8803099999998 L 29.955286000000008,975.2699399999998 M 43.714386000000005,975.3527399999998 L 43.414376000000004,975.9424199999999 L 43.714386000000005,976.0975999999998 L 44.014396000000005,975.5079199999998 L 43.714386000000005,975.3527399999998 M 39.721146000000005,976.0148399999998 L 39.441826000000006,976.1906999999998 L 39.803906000000005,976.7493499999997 L 40.083226,976.5631299999997 L 39.721146000000005,976.0148399999997 L 39.721146000000005,976.0148399999998 M 30.327716000000002,976.1906999999998 L 30.017356000000003,976.3148499999998 L 30.265646000000004,976.9252099999998 L 30.575996000000004,976.8114199999998 L 30.327716000000002,976.1906999999998 M 43.269546000000005,976.2423999999997 L 42.959196000000006,976.8320799999998 L 43.259206000000006,976.9769099999997 L 43.559216000000006,976.3872299999997 L 43.269546000000005,976.2423999999997 M 17.623816000000005,976.8217299999998 L 17.458296000000004,977.4631299999998 L 17.778996000000003,977.5459299999998 L 17.944516000000004,976.9045299999998 L 17.623816000000005,976.8217299999998 M 40.25909600000001,976.8424299999998 L 39.97977600000001,977.0286499999999 L 40.34185600000001,977.5769399999998 L 40.621176000000006,977.4010699999998 L 40.25909600000001,976.8424299999998 M 30.700136000000008,977.1114099999999 L 30.389786000000008,977.2355499999999 L 30.63806600000001,977.8562599999999 L 30.94842600000001,977.7321199999999 L 30.700136000000008,977.1114099999999 M 42.814356000000004,977.1217099999999 L 42.514346,977.7113899999999 L 42.804016000000004,977.8665699999999 L 43.104026000000005,977.2768899999999 L 42.814356000000004,977.1217099999999 M 41.82121600000001,977.6596599999999 C 41.50027600000001,977.6596599999999 41.205926000000005,977.7498599999999 40.95222600000001,977.9079499999999 L 40.80739600000001,977.6803499999999 L 40.52807600000001,977.8562199999999 L 40.693596000000014,978.1148499999999 C 40.372706000000015,978.4167399999999 40.16598600000001,978.8395499999999 40.16598600000001,979.3148899999999 C 40.16598600000001,980.2290499999999 40.90706600000001,980.9701199999998 41.821216000000014,980.9701199999998 C 42.73537600000002,980.9701199999998 43.47644600000002,980.2290499999998 43.47644600000002,979.3148899999999 C 43.47644600000002,978.4007399999999 42.73537600000002,977.6596599999999 41.821216000000014,977.6596599999999 L 41.82121600000001,977.6596599999999 M 17.375536000000007,977.7837999999999 L 17.199666000000008,978.4252099999999 L 17.520366000000006,978.5080099999999 L 17.696236000000006,977.8666099999999 L 17.375536000000007,977.7838099999999 L 17.375536000000007,977.7837999999999 M 31.06222600000001,978.0320899999999 L 30.76220600000001,978.1562299999999 L 31.01049600000001,978.77694 L 31.31050600000001,978.6528 L 31.06222600000001,978.0320899999999 M 17.116906000000007,978.74591 L 16.951376000000007,979.38731 L 17.272076000000006,979.47011 L 17.437606000000006,978.82871 L 17.116906000000007,978.74591 M 31.434646000000008,978.96316 L 31.124296000000008,979.07695 L 31.37257600000001,979.69766 L 31.68293600000001,979.57352 L 31.434646000000008,978.96316 M 16.86861600000001,979.7080100000001 L 16.69274600000001,980.34941 L 17.01344600000001,980.43221 L 17.18931600000001,979.7908100000001 L 16.86861600000001,979.7080100000001 M 31.80707600000001,979.8838800000001 L 31.49671600000001,980.0080200000001 L 31.74500600000001,980.6183900000001 L 32.05535600000001,980.4942400000001 L 31.80707600000001,979.8838800000001 M 57.26659600000001,980.0494000000001 C 56.352436000000004,980.0494000000001 55.61135600000001,980.7904700000001 55.61135600000001,981.7046300000001 C 55.61135600000001,982.6187900000001 56.352436000000004,983.35986 57.26659600000001,983.35986 C 57.42999600000001,983.35986 57.59336600000001,983.3315600000001 57.74246600000001,983.28746 L 57.825266000000006,983.55643 L 58.14596600000001,983.4633299999999 L 58.05286600000001,983.15298 C 58.57223600000001,982.8737 58.92186600000001,982.33565 58.92186600000001,981.7046499999999 C 58.92186600000001,980.7904899999999 58.18078600000001,980.0494199999999 57.266636000000005,980.0494199999999 L 57.26659600000001,980.0494000000001 M 16.609986000000006,980.6597700000001 L 16.444466000000006,981.3011700000001 L 16.765166000000004,981.3839700000001 L 16.930686000000005,980.75291 L 16.609986000000006,980.65981 L 16.609986000000006,980.6597700000001 M 32.16915600000001,980.8046 L 31.869146000000008,980.9287400000001 L 32.10708600000001,981.53911 L 32.41744600000001,981.41497 L 32.169156000000015,980.8046 L 32.16915600000001,980.8046 M 16.36170600000001,981.6218700000001 L 16.19617600000001,982.26327 L 16.506536000000008,982.34607 L 16.682406000000007,981.7046700000001 L 16.36170600000001,981.6218700000001 M 32.54158600000001,981.72532 L 32.23122600000001,981.84946 L 32.479516000000004,982.45983 L 32.789866,982.33569 L 32.541586,981.72532 L 32.54158600000001,981.72532 M 33.32781600000001,982.27362 C 32.41365600000001,982.27362 31.672586000000013,983.0146900000001 31.672586000000013,983.92885 C 31.672586000000013,984.84301 32.41365600000001,985.58408 33.32781600000001,985.58408 C 34.241976000000015,985.58408 34.983046000000016,984.8430099999999 34.983046000000016,983.92885 C 34.983046000000016,983.01469 34.241976000000015,982.27362 33.32781600000001,982.27362 M 16.103076000000012,982.58397 L 15.937546000000012,983.22538 L 16.25825600000001,983.30818 L 16.42377600000001,982.66677 L 16.103076000000012,982.58397 M 3.016405500000012,982.93571 C 2.102245500000012,982.93571 1.3611755000000119,983.67678 1.3611755000000119,984.5909399999999 C 1.3611755000000119,985.5051 2.102245500000012,986.2461699999999 3.016405500000012,986.2461699999999 C 3.9305655000000117,986.2461699999999 4.671635500000011,985.5050999999999 4.671635500000011,984.5909399999999 C 4.671635500000011,983.6767799999999 3.9305655000000113,982.93571 3.0164055000000114,982.93571 L 3.016405500000012,982.93571 M 15.854786000000011,983.54608 L 15.761686000000012,983.90816 C 15.64693600000001,983.8829599999999 15.532256000000011,983.85646 15.409946000000012,983.85646 C 14.636616000000013,983.85646 13.988196000000013,984.3914199999999 13.806446000000012,985.1082299999999 L 13.785746000000012,985.1082299999999 L 13.775446000000011,985.2116799999999 C 13.75734600000001,985.3096799999998 13.754746000000011,985.4084199999999 13.754746000000011,985.5116899999999 C 13.754746000000011,986.42585 14.495816000000012,987.1669199999999 15.409976000000011,987.1669199999999 C 16.32413600000001,987.1669199999999 17.06520600000001,986.4258499999999 17.06520600000001,985.5116899999999 C 17.06520600000001,984.8343399999999 16.65473600000001,984.25753 16.07206600000001,984.0012899999999 L 16.17551600000001,983.6288699999999 L 15.854816000000008,983.5460699999999 L 15.854786000000011,983.54608 M 58.23903600000001,983.7736699999999 L 57.91833600000001,983.86677 L 58.10455600000001,984.50817 L 58.42525600000001,984.4150699999999 L 58.23903600000001,983.7736699999999 M 4.8785455000000155,984.44611 L 4.847545500000016,984.77715 L 5.509635500000016,984.81855 L 5.540635500000016,984.4875099999999 L 4.8785455000000155,984.44611 M 5.871675500000015,984.51851 L 5.840675500000016,984.84956 L 6.502765800000016,984.90126 L 6.523465800000015,984.57021 L 5.871715500000016,984.51851 L 5.871675500000015,984.51851 M 6.854475800000015,984.59091 L 6.833775800000016,984.92196 L 7.495865800000016,984.97366 L 7.5165658000000155,984.64262 L 6.854475800000015,984.59092 L 6.854475800000015,984.59091 M 7.847615800000016,984.66331 L 7.826915800000016,984.99435 L 8.478665800000016,985.04605 L 8.509665800000016,984.715 L 7.847575800000016,984.6633 L 7.847615800000016,984.66331 M 58.51835600000001,984.72541 L 58.19765600000001,984.8185100000001 L 58.39421600000001,985.45992 L 58.70457600000001,985.36682 L 58.51835600000001,984.72542 L 58.51835600000001,984.72541 M 8.840745800000015,984.73571 L 8.809745800000014,985.06676 L 9.471835800000013,985.11846 L 9.502835800000014,984.78741 L 8.840735800000013,984.73571 L 8.840745800000015,984.73571 M 9.823545800000014,984.80811 L 9.802845800000014,985.1391600000001 L 10.464936000000014,985.19086 L 10.485636000000014,984.85982 L 9.823545800000014,984.80812 L 9.823545800000014,984.80811 M 10.816686000000015,984.8909100000001 L 10.795986000000015,985.2219600000001 L 11.458086000000016,985.26336 L 11.478786000000015,984.93231 L 10.816696000000016,984.8909100000001 L 10.816686000000015,984.8909100000001 M 11.809816000000016,984.9633100000001 L 11.789116000000016,985.2943500000001 L 12.440866000000016,985.3357500000001 L 12.471866000000016,985.0150500000001 L 11.809766000000016,984.9633500000001 L 11.809816000000016,984.9633100000001 M 12.802956000000016,985.0357100000001 L 12.771956000000015,985.3667600000001 L 13.434046000000015,985.4184600000001 L 13.454746000000014,985.0874100000001 L 12.802996000000014,985.0357100000001 L 12.802956000000016,985.0357100000001 M 33.069186000000016,985.5840100000001 L 33.04848600000002,986.2461000000002 L 33.379536000000016,986.2565000000002 L 33.400236000000014,985.5944000000002 L 33.069186000000016,985.5841000000001 L 33.069186000000016,985.5840100000001 M 58.79767600000002,985.6771100000002 L 58.48732600000002,985.7702100000002 L 58.67353600000002,986.4116100000002 L 58.99423600000002,986.3185100000002 L 58.797676000000024,985.6771100000002 L 58.79767600000002,985.6771100000002 M 33.038156000000015,986.5771400000002 L 33.027856000000014,987.2392300000002 L 33.35890600000001,987.2495300000003 L 33.36920600000001,986.5874400000002 L 33.03816600000001,986.5771400000002 L 33.038156000000015,986.5771400000002 M 59.08734600000001,986.6288400000002 L 58.76664600000001,986.7219400000002 L 58.95285600000001,987.3633400000002 L 59.27355600000001,987.2702400000002 L 59.08734600000001,986.6288300000002 L 59.08734600000001,986.6288400000002 M 33.36919600000001,987.3840400000001 C 32.45504600000001,987.3840400000001 31.71396600000001,988.1251200000002 31.71396600000001,989.0392700000001 C 31.71396600000001,989.7664800000001 32.18960600000001,990.3791700000002 32.84159600000001,990.6014000000001 L 32.78989600000001,991.1910700000001 L 33.12094600000001,991.22207 L 33.17264600000001,990.68412 C 33.23824600000001,990.69212 33.30152600000001,990.69442 33.369206000000005,990.69442 C 34.28336600000001,990.69442 35.02443600000001,989.95335 35.02443600000001,989.0391900000001 C 35.02443600000001,988.1250400000001 34.28336600000001,987.3839600000001 33.369206000000005,987.3839600000001 L 33.36919600000001,987.3840400000001 M 59.36666600000001,987.5806000000001 L 59.04596600000001,987.6840500000001 L 59.242526000000005,988.3151100000001 L 59.552876000000005,988.2220100000001 L 59.366666,987.5806100000001 L 59.36666600000001,987.5806000000001 M 59.65632600000001,988.5323600000002 L 59.335626000000005,988.6358100000001 L 59.521846000000004,989.2668700000002 L 59.842546000000006,989.1737700000001 L 59.65632600000001,988.5323700000001 L 59.65632600000001,988.5323600000002 M 59.935646000000006,989.4841200000002 L 59.614946,989.5875700000001 L 59.801166,990.2186200000001 L 60.121866000000004,990.12552 L 59.935646000000006,989.4841200000001 L 59.935646000000006,989.4841200000002 M 60.214966000000004,990.4358700000001 L 59.904616000000004,990.5393300000002 L 60.09082600000001,991.1703800000001 L 60.40118600000001,991.0772800000001 L 60.21496600000001,990.4358700000001 L 60.214966000000004,990.4358700000001 M 60.504636000000005,991.3876300000002 L 60.183936,991.4910800000001 L 60.370146000000005,992.1221400000002 L 60.69084600000001,992.0290400000001 L 60.504636000000005,991.3876400000001 L 60.504636000000005,991.3876300000002 M 32.769176,991.5221200000002 L 32.707076,992.1842100000002 L 33.038126,992.2152100000002 L 33.100226,991.5531100000002 L 32.769176,991.5221100000002 L 32.769176,991.5221200000002 M 60.783956,992.3393900000002 L 60.463256,992.4428400000002 L 60.659816,993.0739000000002 L 60.970166,992.9808000000002 L 60.783955999999996,992.3394000000002 L 60.783956,992.3393900000002 M 32.68641600000001,992.5152600000002 L 32.62431600000001,993.1773500000003 L 32.955366000000005,993.1980500000003 L 33.007066,992.5359600000003 L 32.686366,992.5152600000002 L 32.68641600000001,992.5152600000002 M 61.06327600000001,993.3014900000003 L 60.752916000000006,993.3945900000003 L 60.939136000000005,994.0256500000004 L 61.25983600000001,993.9325500000003 L 61.06327600000001,993.3014900000003 M 32.59330600000001,993.4980500000003 L 32.541606000000016,994.1601400000003 L 32.87264600000002,994.1911400000002 L 32.924346000000014,993.5290500000002 L 32.59329600000002,993.4980500000003 L 32.59330600000001,993.4980500000003 M 61.35294600000002,994.2532500000002 L 61.032246000000015,994.3463500000003 L 61.21845600000002,994.9774000000002 L 61.53915600000002,994.8843000000002 L 61.35294600000002,994.2532400000001 L 61.35294600000002,994.2532500000002 M 32.51054600000002,994.4911900000002 L 32.45884600000002,995.1532800000002 L 32.789886000000024,995.1842800000002 L 32.84158600000002,994.5221800000002 L 32.51053600000002,994.4911800000002 L 32.51054600000002,994.4911900000002 M 61.632266000000016,995.2050100000002 L 61.31156600000001,995.2981100000003 L 61.508116000000015,995.9291700000003 L 61.81847600000002,995.8360700000003 L 61.632266000000016,995.2050200000003 L 61.632266000000016,995.2050100000002 M 32.42778600000001,995.4843300000002 L 32.376086000000015,996.1464200000003 L 32.70713600000001,996.1671200000003 L 32.75883600000001,995.5050300000003 L 32.42778600000001,995.4843300000002 M 61.911586000000014,996.1567600000002 L 61.60122600000001,996.2498600000002 L 61.787436000000014,996.8809200000003 L 62.10814600000001,996.7878200000002 L 61.911586000000014,996.1567600000002 M 32.34502600000002,996.4671200000001 L 32.29332600000002,997.1292100000002 L 32.614026000000024,997.1602100000001 L 32.676126000000025,996.4981200000001 L 32.34508600000002,996.4671200000001 L 32.34502600000002,996.4671200000001 M 62.20124600000002,997.1085200000001 L 61.88054600000002,997.2016200000002 L 62.06675600000002,997.8326800000002 L 62.38746600000002,997.7395800000002 L 62.20124600000002,997.1085200000001 M 32.26226600000002,997.4602600000001 L 32.21056600000002,998.04993 C 32.15496600000002,998.04393 32.10217600000002,998.04993 32.04504600000002,998.04993 C 31.13088600000002,998.04993 30.38981600000002,998.79101 30.38981600000002,999.7051700000001 C 30.38981600000002,1000.6193000000001 31.13088600000002,1001.3604 32.04504600000002,1001.3604 C 32.95920600000002,1001.3604 33.700276000000024,1000.6193000000001 33.700276000000024,999.7051700000001 C 33.700276000000024,998.9629400000001 33.20432600000002,998.34271 32.531266000000024,998.1327000000001 L 32.593366000000024,997.4912900000002 L 32.26232600000002,997.4602900000002 L 32.26226600000002,997.4602600000001 M 62.48056600000002,998.06028 L 62.159866000000015,998.1533800000001 L 62.35642600000001,998.78443 L 62.666786000000016,998.69133 L 62.48056600000002,998.06027 L 62.48056600000002,998.06028 M 62.759886000000016,999.0120400000001 L 62.449536000000016,999.1051400000001 L 62.63574600000002,999.7362000000002 L 62.95644600000002,999.6431000000001 L 62.75988600000002,999.0120500000002 L 62.759886000000016,999.0120400000001 M 63.04955600000002,999.9638000000001 L 62.728856000000015,1000.0569000000002 L 62.91506600000002,1000.6880000000001 L 63.23576600000002,1000.5950000000001 L 63.04955600000002,999.9639100000002 L 63.04955600000002,999.9638000000001 M 63.328876000000015,1000.9155000000001 L 63.00817600000001,1001.0085 L 63.20473600000001,1001.6396 L 63.51508600000001,1001.5466 L 63.32887600000001,1000.9155000000001 L 63.328876000000015,1000.9155000000001 M 32.965736000000014,1001.2259 L 32.665726000000014,1001.3707 L 32.955396000000015,1001.9604 L 33.255406000000015,1001.8156 L 32.965736000000014,1001.2259 M 63.61853600000001,1001.8673 L 63.29783600000001,1001.9603 L 63.34953600000001,1002.1361999999999 C 62.665186000000006,1002.3392999999999 62.159836000000006,1002.9583999999999 62.159836000000006,1003.7085999999999 C 62.159836000000006,1003.8228999999999 62.168836000000006,1003.9422999999999 62.190836000000004,1004.05 L 61.93220600000001,1004.1845 L 62.07703600000001,1004.4844999999999 L 62.29428600000001,1004.3706999999999 C 62.54861600000001,1004.9579 63.13443600000001,1005.3639 63.815026,1005.3639 C 64.729186,1005.3639 65.470256,1004.6228 65.470256,1003.7085999999999 C 65.470256,1002.7945 64.72918600000001,1002.0533999999999 63.815026,1002.0533999999999 C 63.768526,1002.0533999999999 63.726026000000005,1002.0633999999999 63.680536000000004,1002.0633999999999 L 63.618436,1001.8667999999999 L 63.61853600000001,1001.8673 M 33.400236000000014,1002.1156 L 33.11056600000001,1002.2604 L 33.400236000000014,1002.8501 L 33.700246000000014,1002.7053 L 33.400236000000014,1002.1156 M 33.84507600000001,1003.0052999999999 L 33.54506600000001,1003.1501 L 33.84507600000001,1003.7398 L 34.134746000000014,1003.5949999999999 L 33.84507600000001,1003.0052999999999 M 34.28991600000001,1003.8949999999999 L 33.98990600000001,1004.0397999999999 L 34.27957600000001,1004.6294999999999 L 34.57958600000001,1004.4845999999999 L 34.28991600000001,1003.8949999999999 M 65.47032600000001,1004.3190999999998 L 65.30480600000001,1004.6087999999999 L 65.88413600000001,1004.9294999999998 L 66.04965600000001,1004.6397999999998 L 65.47032600000001,1004.3190999999998 M 61.632266000000016,1004.3290999999998 L 61.042586000000014,1004.6290999999998 L 61.197766000000016,1004.9291999999998 L 61.787436000000014,1004.6290999999998 L 61.632266000000016,1004.3290999999998 M 34.72441600000002,1004.7842999999998 L 34.43475600000002,1004.9291999999998 L 34.72441600000002,1005.5187999999998 L 35.02442600000002,1005.3739999999998 L 34.72441600000002,1004.7842999999998 M 60.75291600000002,1004.7842999999998 L 60.16324600000002,1005.0842999999998 L 60.30807600000002,1005.3739999999998 L 60.89775600000002,1005.0739999999998 L 60.75291600000002,1004.7842999999998 M 66.33932600000001,1004.8052999999998 L 66.17380600000001,1005.0949999999998 L 66.75313600000001,1005.4156999999998 L 66.90830600000001,1005.1259999999997 L 66.33932600000001,1004.8052999999998 M 59.863236000000015,1005.2294999999998 L 59.27355600000001,1005.5294999999998 L 59.428736000000015,1005.8294999999997 L 60.018416000000016,1005.5294999999998 L 59.863236000000015,1005.2294999999998 M 67.19797600000001,1005.2914999999998 L 67.04279600000001,1005.5810999999998 L 67.62212600000001,1005.9017999999998 L 67.77730600000001,1005.6121999999998 L 67.19797600000001,1005.2914999999998 M 35.169266000000015,1005.6741999999998 L 34.869256000000014,1005.8190999999998 L 35.169266000000015,1006.4087999999998 L 35.469276000000015,1006.2638999999998 L 35.169266000000015,1005.6741999999998 M 58.983896000000016,1005.6841999999998 L 58.383876000000015,1005.9842999999998 L 58.53904600000001,1006.2738999999998 L 59.128726000000015,1005.9738999999998 L 58.983896000000016,1005.6841999999998 M 68.06697600000001,1005.7771999999998 L 67.91179600000001,1006.0668999999998 L 68.480776,1006.3875999999998 L 68.64630600000001,1006.0978999999998 L 68.06697600000001,1005.7771999999998 M 70.35325600000002,1005.8291999999998 C 69.87227600000001,1005.8291999999998 69.43494600000001,1006.0395999999998 69.13252600000001,1006.3671999999998 L 68.93596600000001,1006.2636999999997 L 68.770446,1006.5430999999998 L 68.93596600000001,1006.6360999999997 C 68.785026,1006.8856999999997 68.69802600000001,1007.1713999999997 68.69802600000001,1007.4843999999997 C 68.69802600000001,1008.3984999999997 69.43910600000001,1009.1395999999997 70.35325600000002,1009.1395999999997 C 71.20338600000002,1009.1395999999997 71.90418600000001,1008.5058999999998 71.99814600000002,1007.6808999999997 L 72.21539600000003,1007.7018999999997 L 72.24639600000003,1007.3708999999997 L 71.99811600000004,1007.3498999999997 C 71.92801600000004,1006.5002999999997 71.22092600000003,1005.8290999999997 70.35322600000003,1005.8290999999997 L 70.35325600000002,1005.8291999999998 M 58.094206000000014,1006.1292999999998 L 57.50452600000001,1006.4292999999998 L 57.649366000000015,1006.7292999999997 L 58.23903600000001,1006.4292999999998 L 58.094206000000014,1006.1292999999998 M 78.33974600000002,1006.4499999999998 C 77.53640600000001,1006.4499999999998 76.87645600000002,1007.0149999999999 76.72589600000002,1007.7740999999999 L 76.52933600000001,1007.7530999999999 L 76.49833600000001,1008.0841999999999 L 76.68454600000001,1008.1051999999999 C 76.68454600000001,1009.0192999999998 77.425616,1009.7603999999999 78.33977600000001,1009.7603999999999 C 79.25393600000001,1009.7603999999999 79.99500600000002,1009.0192999999999 79.99500600000002,1008.1051999999999 C 79.99500600000002,1007.1909999999998 79.25393600000002,1006.4499999999998 78.33977600000001,1006.4499999999998 L 78.33974600000002,1006.4499999999998 M 35.61410600000002,1006.5637999999998 L 35.31409600000002,1006.7085999999998 L 35.61410600000002,1007.2982999999998 L 35.90376600000002,1007.1533999999998 L 35.61410600000002,1006.5637999999998 M 57.20451600000002,1006.5847999999997 L 56.61484600000002,1006.8847999999997 L 56.77002600000002,1007.1743999999997 L 57.35969600000002,1006.8743999999997 L 57.20451600000002,1006.5847999999997 M 56.32517600000002,1007.0295999999997 L 55.73550600000002,1007.3295999999997 L 55.88033600000002,1007.6295999999996 L 56.47001600000002,1007.3295999999997 L 56.32517600000002,1007.0295999999997 M 72.57747600000002,1007.4019999999997 L 72.54647600000001,1007.7330999999997 L 73.20857600000001,1007.7950999999997 L 73.23957600000001,1007.4639999999997 L 72.57748600000001,1007.4019999999997 L 72.57747600000002,1007.4019999999997 M 36.04860600000002,1007.4539999999997 L 35.75893600000002,1007.5988999999997 L 36.04860600000002,1008.1884999999997 L 36.34861600000002,1008.0436999999997 L 36.04860600000002,1007.4539999999997 M 55.43549600000002,1007.4849999999997 L 54.84581600000002,1007.7849999999996 L 55.00099600000002,1008.0746999999997 L 55.59066600000002,1007.7746999999997 L 55.43549600000002,1007.4849999999997 M 73.56026600000003,1007.4949999999997 L 73.53956600000002,1007.8260999999997 L 74.19131600000003,1007.8780999999997 L 74.22231600000003,1007.5469999999997 L 73.56022600000003,1007.4949999999997 L 73.56026600000003,1007.4949999999997 M 74.55340600000002,1007.5779999999996 L 74.52240600000002,1007.9090999999996 L 75.18450600000001,1007.9710999999996 L 75.21550600000002,1007.6399999999996 L 74.55341600000001,1007.5779999999996 L 74.55340600000002,1007.5779999999996 M 75.54654600000002,1007.6709999999996 L 75.51554600000001,1008.0020999999996 L 76.17764600000001,1008.0540999999996 L 76.19834600000002,1007.7333999999996 L 75.54659600000001,1007.6713999999996 L 75.54654600000002,1007.6709999999996 M 54.54580600000002,1007.9296999999996 L 53.95612600000002,1008.2296999999995 L 54.11130600000002,1008.5192999999995 L 54.70098600000002,1008.2296999999995 L 54.54580600000002,1007.9296999999996 M 36.49344600000002,1008.3434999999996 L 36.19343600000002,1008.4882999999996 L 36.49344600000002,1009.0779999999996 L 36.79345600000002,1008.9330999999996 L 36.49344600000002,1008.3434999999996 M 53.66646600000002,1008.3744999999996 L 53.07678600000002,1008.6744999999995 L 53.22162600000002,1008.9744999999995 L 53.81129600000002,1008.6744999999995 L 53.66646600000002,1008.3744999999996 M 52.77677600000002,1008.8295999999996 L 52.18710600000002,1009.1296999999996 L 52.34227600000002,1009.4192999999996 L 52.93195600000002,1009.1192999999996 L 52.77677600000002,1008.8295999999996 M 36.93828600000002,1009.2330999999996 L 36.63827600000002,1009.3778999999996 L 36.93828600000002,1009.9675999999996 L 37.22795600000002,1009.8227999999996 L 36.93828600000002,1009.2330999999996 M 51.89743600000002,1009.2740999999996 L 51.30776600000002,1009.5740999999996 L 51.45259600000002,1009.8740999999995 L 52.04226600000002,1009.5740999999996 L 51.89743600000002,1009.2740999999996 M 77.30522600000002,1009.5947999999996 L 76.92245600000003,1010.1327999999996 L 77.19142600000002,1010.3189999999996 L 77.57420600000002,1009.7809999999996 L 77.30522600000002,1009.5947999999996 M 51.00774600000002,1009.7292999999996 L 50.41807600000002,1010.0292999999996 L 50.56290600000002,1010.3189999999996 L 51.16292600000002,1010.0189999999997 L 51.00774600000002,1009.7292999999996 M 37.37278600000002,1010.1223999999996 L 37.08312600000002,1010.2672999999996 L 37.37278600000002,1010.8568999999997 L 37.67279600000002,1010.7120999999996 L 37.37278600000002,1010.1223999999996 M 50.11806600000002,1010.1743999999997 L 49.52838600000002,1010.4743999999996 L 49.68356600000002,1010.7743999999996 L 50.27324600000002,1010.4743999999996 L 50.11806600000002,1010.1743999999997 M 76.73624600000002,1010.4019999999997 L 76.35346600000003,1010.9399999999997 L 76.62244600000002,1011.1364999999997 L 77.00521600000002,1010.5881999999997 L 76.73624600000002,1010.4019999999997 M 49.23872600000002,1010.6295999999998 L 48.64904600000002,1010.9295999999997 L 48.79387600000002,1011.2192999999997 L 49.38355600000002,1010.9192999999998 L 49.23872600000002,1010.6295999999998 M 75.36033600000002,1010.7330999999998 C 74.44617600000002,1010.7330999999998 73.70509600000001,1011.4740999999998 73.70509600000001,1012.3882999999998 C 73.70509600000001,1013.3023999999998 74.44617600000001,1014.0434999999999 75.36033600000002,1014.0434999999999 C 76.27448600000002,1014.0434999999999 77.01556600000002,1013.3023999999999 77.01556600000002,1012.3882999999998 C 77.01556600000002,1011.4740999999998 76.27448600000002,1010.7330999999998 75.36033600000002,1010.7330999999998 M 37.817636000000014,1011.0123999999998 L 37.51761600000001,1011.1571999999999 L 37.817636000000014,1011.7468999999999 L 38.117646000000015,1011.6020999999998 L 37.817636000000014,1011.0123999999998 M 48.34903600000001,1011.0743999999999 L 47.75935600000001,1011.3743999999998 L 47.91453600000001,1011.6743999999998 L 48.504216000000014,1011.3743999999998 L 48.34903600000001,1011.0743999999999 M 47.46969600000001,1011.5295999999998 L 46.88001600000001,1011.8191999999998 L 47.024856000000014,1012.1191999999998 L 47.61452600000001,1011.8191999999998 L 47.46969600000001,1011.5295999999998 M 38.262476000000014,1011.9019999999998 L 37.96246600000001,1012.0467999999998 L 38.262476000000014,1012.6364999999998 L 38.55213600000001,1012.4916999999998 L 38.262476000000014,1011.9019999999998 M 46.58000600000001,1011.9739999999998 L 45.99033600000001,1012.2739999999998 L 46.13516600000001,1012.5636999999998 L 46.724846000000014,1012.2636999999999 L 46.58000600000001,1011.9739999999998 M 45.69032600000001,1012.4187999999998 L 45.10064600000001,1012.7188999999998 L 45.25582600000001,1013.0188999999998 L 45.84549600000001,1012.7188999999998 L 45.69032600000001,1012.4187999999998 M 77.015566,1012.7188999999998 L 76.932766,1013.0395999999998 L 77.574176,1013.2050999999998 L 77.656976,1012.8946999999998 L 77.015576,1012.7188999999998 L 77.015566,1012.7188999999998 M 38.69697600000001,1012.7908999999999 L 38.407306000000005,1012.9356999999999 L 38.69697600000001,1013.5253999999999 L 38.99698600000001,1013.3804999999999 L 38.69697600000001,1012.7908999999999 M 44.810976000000004,1012.8738999999998 L 44.221306000000006,1013.1738999999998 L 44.366136000000004,1013.4634999999997 L 44.955816000000006,1013.1634999999998 L 44.810976000000004,1012.8738999999998 M 77.977666,1012.9772999999998 L 77.894866,1013.2979999999998 L 78.525916,1013.4634999999997 L 78.619016,1013.1427999999997 L 77.977616,1012.9772999999998 L 77.977666,1012.9772999999998 M 78.939766,1013.2358999999998 L 78.846666,1013.5565999999998 L 79.488066,1013.7221999999998 L 79.57086600000001,1013.4014999999998 L 78.939806,1013.2358999999998 L 78.939766,1013.2358999999998 M 43.921296000000005,1013.3188999999998 L 43.331616000000004,1013.6189999999998 L 43.486796000000005,1013.9189999999998 L 44.07647600000001,1013.6189999999998 L 43.921296000000005,1013.3188999999998 M 79.891526,1013.4844999999998 L 79.808726,1013.8051999999998 L 80.450126,1013.9809999999998 L 80.532926,1013.6602999999998 L 79.891526,1013.4844999999998 M 39.141816,1013.6809999999998 L 38.841806,1013.8258999999998 L 38.883206,1013.9088999999998 C 38.311916000000004,1014.1697999999998 37.921106,1014.7501999999998 37.921106,1015.4192999999998 C 37.921106,1015.7905999999998 38.045616,1016.1258999999998 38.252146,1016.4019999999998 L 37.983176,1016.5882999999998 L 38.179736,1016.8675999999998 L 38.479746,1016.6502999999998 C 38.772036,1016.9100999999998 39.154565999999996,1017.0744999999998 39.576336,1017.0744999999998 C 40.490496,1017.0744999999998 41.231566,1016.3333999999999 41.231566,1015.4192999999998 C 41.231566,1015.3049999999998 41.212266,1015.1855999999998 41.190166,1015.0778999999998 L 41.417756,1014.9640999999998 L 41.262575999999996,1014.6743999999998 L 41.097055999999995,1014.7573999999997 C 40.843805999999994,1014.1677999999997 40.25869599999999,1013.7642999999997 39.57631599999999,1013.7642999999997 C 39.45051599999999,1013.7642999999997 39.32165599999999,1013.7792999999997 39.20388599999999,1013.8052999999998 L 39.14178599999999,1013.6810999999998 L 39.141816,1013.6809999999998 M 80.85362599999999,1013.7429999999998 L 80.77082599999999,1014.0636999999998 L 81.41222599999999,1014.2395999999998 L 81.495026,1013.9188999999998 L 80.85362599999999,1013.7429999999998 M 43.04195599999999,1013.7739999999998 L 42.44193599999999,1014.0739999999997 L 42.59710599999999,1014.3636999999998 L 43.18678599999999,1014.0636999999998 L 43.04195599999999,1013.7739999999998 M 81.81573599999999,1014.0015999999998 L 81.73293599999998,1014.3222999999998 L 82.36399599999999,1014.4877999999998 L 82.45709599999999,1014.1670999999998 L 81.81569599999999,1014.0015999999998 L 81.81573599999999,1014.0015999999998 M 42.15226599999999,1014.2188999999998 L 41.56258599999999,1014.5188999999998 L 41.70742599999999,1014.8188999999998 L 42.29709599999999,1014.5188999999998 L 42.15226599999999,1014.2188999999998 M 82.777836,1014.2598999999999 L 82.68473599999999,1014.5805999999999 L 83.32613599999999,1014.7460999999998 L 83.408936,1014.4253999999999 L 82.777886,1014.2598999999999 L 82.777836,1014.2598999999999 M 83.72959599999999,1014.5080999999999 L 83.64679599999998,1014.8288999999999 L 84.28820599999997,1015.0046999999998 L 84.37100599999998,1014.6839999999999 L 83.72960599999998,1014.5080999999999 L 83.72959599999999,1014.5080999999999 M 84.691696,1014.7667999999999 L 84.60889599999999,1015.0874999999999 L 85.25029599999999,1015.2632999999998 L 85.333096,1014.9425999999999 L 84.691696,1014.7667999999999 M 85.653796,1015.0253999999999 L 85.570996,1015.3460999999999 L 86.202056,1015.5115999999998 L 86.295156,1015.1908999999998 L 85.653756,1015.0253999999999 L 85.653796,1015.0253999999999 M 86.615896,1015.2839999999999 L 86.522796,1015.6046999999999 L 87.164196,1015.7702999999999 L 87.24699600000001,1015.4495999999999 L 86.615936,1015.2839999999999 L 86.615896,1015.2839999999999 M 87.567656,1015.5322999999999 L 87.484856,1015.8529999999998 L 88.126256,1016.0288999999998 L 88.209056,1015.7081999999998 L 87.567656,1015.5322999999999 M 88.529756,1015.7909999999998 L 88.446956,1016.1116999999998 L 89.088356,1016.2874999999998 L 89.17115600000001,1015.9667999999998 L 88.52974600000002,1015.7909999999998 L 88.529756,1015.7909999999998 M 89.491866,1016.0495999999998 L 89.409066,1016.3702999999998 L 90.040116,1016.5357999999998 L 90.133216,1016.2254999999998 L 89.491816,1016.0495999999998 L 89.491866,1016.0495999999998 M 90.45396600000001,1016.3081999999998 L 90.360866,1016.6288999999998 L 91.002276,1016.7943999999998 L 91.085076,1016.4736999999998 L 90.454016,1016.3081999999998 L 90.45396600000001,1016.3081999999998 M 91.405726,1016.5667999999998 L 91.322926,1016.8771999999998 L 91.964326,1017.0530999999997 L 92.047126,1016.7323999999998 L 91.405726,1016.5667999999997 L 91.405726,1016.5667999999998 M 37.714176,1016.7840999999999 L 37.176226,1017.1564999999998 L 37.362446,1017.4254999999998 L 37.900396,1017.0530999999999 L 37.714176,1016.7840999999999 M 92.36782600000001,1016.8150999999998 L 92.285026,1017.1357999999998 L 92.926426,1017.3116999999997 L 93.00922600000001,1016.9909999999998 L 92.36782600000001,1016.8150999999998 M 97.70595,1016.9495999999998 C 97.06233,1016.9495999999998 96.51073,1017.3131999999998 96.23693,1017.8495999999998 L 96.20593,1017.8395999999998 L 96.12312999999999,1018.1602999999998 C 96.08422999999999,1018.3010999999998 96.05072999999999,1018.4519999999998 96.05072999999999,1018.6051999999997 C 96.05072999999999,1019.5192999999997 96.79179999999998,1020.2603999999998 97.70595999999999,1020.2603999999998 C 98.62011999999999,1020.2603999999998 99.36119,1019.5192999999998 99.36119,1018.6051999999997 C 99.36119,1017.6909999999997 98.62012,1016.9498999999997 97.70595999999999,1016.9498999999997 L 97.70595,1016.9495999999998 M 38.583176,1017.0736999999998 L 38.231436,1017.6219999999998 L 38.500416,1017.8081999999998 L 38.862496,1017.2495999999999 L 38.583176,1017.0736999999999 L 38.583176,1017.0736999999998 M 93.329926,1017.0736999999998 L 93.247126,1017.3943999999998 L 93.878186,1017.5702999999997 L 93.971286,1017.2495999999998 L 93.32987600000001,1017.0736999999998 L 93.329926,1017.0736999999998 M 94.292036,1017.3323999999998 L 94.19893599999999,1017.6530999999998 L 94.840336,1017.8185999999997 L 94.923136,1017.4978999999997 L 94.292086,1017.3323999999998 L 94.292036,1017.3323999999998 M 36.896905999999994,1017.3423999999998 L 36.35895599999999,1017.7250999999998 L 36.54517599999999,1017.9940999999998 L 37.09346599999999,1017.6216999999998 L 36.896905999999994,1017.3423999999998 M 95.243786,1017.5905999999998 L 95.160986,1017.9112999999998 L 95.802386,1018.0768999999998 L 95.885186,1017.7561999999998 L 95.24377600000001,1017.5905999999998 L 95.243786,1017.5905999999998 M 38.045226,1017.9009999999997 L 37.683146,1018.4595999999997 L 37.962466,1018.6354999999996 L 38.324546,1018.0768999999997 L 38.045226,1017.9009999999997 M 36.079636,1017.9109999999997 L 35.541686,1018.2937999999997 L 35.727906,1018.5626999999997 L 36.276196,1018.1799999999997 L 36.079636,1017.9109999999997 M 35.272716,1018.4799999999997 L 34.724416000000005,1018.8523999999996 L 34.910636000000004,1019.1316999999997 L 35.458926000000005,1018.7489999999997 L 35.272716,1018.4799999999997 M 37.507276000000005,1018.7282999999996 L 37.145196000000006,1019.2868999999996 L 37.424516000000004,1019.4730999999996 L 37.786596,1018.9144999999996 L 37.507276000000005,1018.7282999999996 M 34.455446,1019.0385999999996 L 33.907146000000004,1019.4213999999996 L 34.093366,1019.6903999999996 L 34.641656000000005,1019.3178999999997 L 34.455446,1019.0385999999996 M 36.958976,1019.5661999999996 L 36.607245999999996,1020.1248999999997 L 36.876216,1020.3006999999997 L 37.238296,1019.7420999999997 L 36.958976,1019.5661999999998 L 36.958976,1019.5661999999996 M 33.638176,1019.6071999999997 L 33.089876000000004,1019.9899999999997 L 33.276096,1020.2589999999997 L 33.824386000000004,1019.8864999999997 L 33.638176,1019.6071999999997 M 32.820906,1020.1761999999997 L 32.272606,1020.5485999999996 L 32.469166,1020.8279999999996 L 33.007116,1020.4451999999997 L 32.820906,1020.1761999999997 M 97.29213999999999,1020.3727999999996 L 97.09557999999998,1021.0037999999996 L 97.40593999999999,1021.1072999999997 L 97.61283999999999,1020.4761999999997 L 97.29213999999999,1020.3727999999998 L 97.29213999999999,1020.3727999999996 M 36.42102599999999,1020.3937999999996 L 36.05894599999999,1020.9523999999996 L 36.33826599999999,1021.1282999999995 L 36.70034599999999,1020.5799999999995 L 36.42102599999999,1020.3937999999995 L 36.42102599999999,1020.3937999999996 M 32.00363599999999,1020.7454999999997 L 31.465685999999994,1021.1178999999996 L 31.651895999999994,1021.3972999999996 L 32.189845999999996,1021.0144999999997 L 32.00363599999999,1020.7454999999997 M 35.883075999999996,1021.2316999999997 L 35.520996,1021.7799999999997 L 35.800315999999995,1021.9661999999997 L 36.162395999999994,1021.4075999999998 L 35.883075999999996,1021.2316999999998 L 35.883075999999996,1021.2316999999997 M 31.186365999999996,1021.3036999999997 L 30.648415999999997,1021.6864999999997 L 30.834625999999997,1021.9554999999997 L 31.372575999999995,1021.5830999999997 L 31.186365999999996,1021.3036999999997 M 96.99212999999999,1021.3246999999997 L 96.79556999999998,1021.9557999999996 L 97.10592999999999,1022.0591999999996 L 97.31282999999999,1021.4177999999996 L 96.99212999999999,1021.3247999999996 L 96.99212999999999,1021.3246999999997 M 30.369095999999985,1021.8729999999997 L 29.831145999999986,1022.2557999999997 L 30.017355999999985,1022.5247999999997 L 30.565655999999986,1022.1522999999997 L 30.369095999999985,1021.8729999999997 M 35.33478599999999,1022.0591999999997 L 34.97270599999999,1022.6178999999997 L 35.25202599999999,1022.7936999999997 L 35.614105999999985,1022.2454999999998 L 35.33478599999999,1022.0591999999998 L 35.33478599999999,1022.0591999999997 M 96.69211999999999,1022.2660999999997 L 96.49555999999998,1022.8971999999997 L 96.80591999999999,1023.0006999999997 L 97.01281999999999,1022.3695999999998 L 96.69211999999999,1022.2660999999997 M 29.56216599999999,1022.4419999999997 L 29.01387599999999,1022.8143999999996 L 29.200085999999988,1023.0937999999996 L 29.74838599999999,1022.7109999999997 L 29.56216599999999,1022.4419999999997 M 34.79683599999999,1022.8971999999997 L 34.43475599999999,1023.4454999999997 L 34.71407599999999,1023.6316999999997 L 35.07615599999999,1023.0730999999997 L 34.79683599999999,1022.8971999999998 L 34.79683599999999,1022.8971999999997 M 28.74489599999999,1023.0109999999996 L 28.19660599999999,1023.3833999999996 L 28.382815999999988,1023.6626999999996 L 28.93111599999999,1023.2799999999996 L 28.74489599999999,1023.0109999999996 M 96.39211,1023.2178999999996 L 96.19555,1023.8489999999996 L 96.50591,1023.9523999999996 L 96.71281,1023.3213999999996 L 96.39211,1023.2178999999995 L 96.39211,1023.2178999999996 M 27.927626000000004,1023.5695999999997 L 27.379336000000002,1023.9523999999997 L 27.565546,1024.2213999999997 L 28.113846000000002,1023.8489999999997 L 27.927626000000004,1023.5695999999997 M 34.258886000000004,1023.7247999999997 L 33.896806000000005,1024.2834999999998 L 34.176126000000004,1024.4592999999998 L 34.52785600000001,1023.9109999999997 L 34.258886000000004,1023.7247999999997 M 27.110356000000003,1024.1385999999998 L 26.562066,1024.5213999999999 L 26.758626000000003,1024.7903999999999 L 27.296576,1024.4075999999998 L 27.110356000000003,1024.1385999999998 M 96.09210000000002,1024.1595999999997 L 95.89553600000002,1024.7906999999998 L 96.20590000000003,1024.8940999999998 L 96.41280000000003,1024.2630999999997 L 96.09210000000003,1024.1595999999997 L 96.09210000000002,1024.1595999999997 M 33.71058600000001,1024.5630999999996 L 33.348506000000015,1025.1113999999995 L 33.62782600000001,1025.2975999999996 L 33.98990600000001,1024.7389999999996 L 33.71058600000001,1024.5630999999996 M 26.293086000000013,1024.7078999999997 L 25.74479600000001,1025.0802999999996 L 25.941356000000013,1025.3596999999995 L 26.479306000000012,1024.9768999999994 L 26.293086000000013,1024.7078999999994 L 26.293086000000013,1024.7078999999997 M 95.79208600000001,1025.1113999999995 L 95.595526,1025.7423999999996 L 95.90588600000001,1025.8458999999996 L 96.11279,1025.2147999999995 L 95.792086,1025.1113999999995 L 95.79208600000001,1025.1113999999995 M 25.47581600000001,1025.2768999999996 L 24.93786600000001,1025.6492999999996 L 25.12408600000001,1025.9182999999996 L 25.662036000000008,1025.5458999999996 L 25.47581600000001,1025.2768999999996 M 33.17263600000001,1025.3906999999997 L 32.81055600000001,1025.9492999999998 L 33.08987600000001,1026.1251999999997 L 33.45195600000001,1025.5768999999998 L 33.17263600000001,1025.3906999999997 M 24.658546000000012,1025.8354999999997 L 24.120596000000013,1026.2182999999998 L 24.306806000000012,1026.4872999999998 L 24.855106000000013,1026.1148999999998 L 24.658546000000012,1025.8355 L 24.658546000000012,1025.8354999999997 M 95.49207600000001,1026.0527999999997 L 95.295516,1026.6838999999998 L 95.60587600000001,1026.7872999999997 L 95.81277600000001,1026.1561999999997 L 95.49207600000001,1026.0527999999997 M 32.63468600000001,1026.2286999999997 L 32.27260600000001,1026.7769999999996 L 32.55192600000001,1026.9631999999997 L 32.90366600000001,1026.4044999999996 L 32.63468600000001,1026.2286999999997 M 23.841276000000008,1026.4044999999996 L 23.30332600000001,1026.7872999999997 L 23.489536000000008,1027.0562999999997 L 24.03783600000001,1026.6734999999996 L 23.841276000000008,1026.4044999999996 M 23.034356000000006,1026.9734999999996 L 22.486056000000005,1027.3458999999996 L 22.672266000000004,1027.6252999999995 L 23.220566000000005,1027.2424999999994 L 23.034356000000006,1026.9734999999994 L 23.034356000000006,1026.9734999999996 M 95.192066,1027.0044999999996 L 94.99550599999999,1027.6355999999996 L 95.30585599999999,1027.7389999999996 L 95.51276599999998,1027.1079999999995 L 95.19206599999998,1027.0044999999996 L 95.192066,1027.0044999999996 M 32.08639599999999,1027.0564999999995 L 31.724315999999995,1027.6151999999995 L 32.00363599999999,1027.7909999999995 L 32.36571599999999,1027.2426999999996 L 32.08639599999999,1027.0564999999995 M 22.217085999999995,1027.5426999999995 L 21.668785999999994,1027.9151999999995 L 21.854995999999993,1028.1840999999995 L 22.403295999999994,1027.8116999999995 L 22.217085999999995,1027.5426999999995 M 31.548445999999995,1027.8944999999994 L 31.186365999999996,1028.4427999999994 L 31.465685999999994,1028.6289999999995 L 31.827765999999993,1028.0702999999994 L 31.548445999999995,1027.8944999999994 M 94.892056,1027.9464999999993 L 94.69549599999999,1028.5774999999994 L 95.016196,1028.6809999999994 L 95.212756,1028.0498999999993 L 94.892056,1027.9464999999993 M 21.399816,1028.1016999999993 L 20.851516,1028.4843999999994 L 21.048076000000002,1028.7533999999994 L 21.586026,1028.3809999999994 L 21.399816,1028.1016999999995 L 21.399816,1028.1016999999993 M 20.582546,1028.6705999999992 L 20.034246,1029.0533999999993 L 20.230806,1029.3223999999993 L 20.768756,1028.9395999999992 L 20.582546,1028.6705999999992 M 31.010496,1028.7225999999991 L 30.648416,1029.2812999999992 L 30.917386,1029.4570999999992 L 31.279466,1028.9087999999992 L 31.010496,1028.7225999999991 M 94.592046,1028.898499999999 L 94.39548599999999,1029.5295999999992 L 94.716186,1029.6329999999991 L 94.912746,1029.001999999999 L 94.592046,1028.898499999999 M 19.765276,1029.2398999999991 L 19.227326,1029.612299999999 L 19.413536,1029.891599999999 L 19.951486,1029.508899999999 L 19.765276,1029.239899999999 L 19.765276,1029.2398999999991 M 30.462196,1029.560599999999 L 30.100116,1030.108899999999 L 30.379436,1030.2950999999991 L 30.741515999999997,1029.736499999999 L 30.462196,1029.560599999999 M 18.948006,1029.808899999999 L 18.410056,1030.181299999999 L 18.596266,1030.450299999999 L 19.144556,1030.077899999999 L 18.948006000000003,1029.808899999999 L 18.948006,1029.808899999999 M 94.292036,1029.849899999999 L 94.09547599999999,1030.480899999999 L 94.416176,1030.5738999999992 L 94.612736,1029.942899999999 L 94.292036,1029.849899999999 M 18.130736,1030.367099999999 L 17.592786,1030.7498999999991 L 17.778996,1031.0188999999991 L 18.327286,1030.6464999999992 L 18.130736000000002,1030.3670999999993 L 18.130736,1030.367099999999 M 29.924245999999997,1030.388099999999 L 29.562165999999998,1030.946799999999 L 29.841485999999996,1031.122599999999 L 30.203565999999995,1030.563999999999 L 29.924245999999997,1030.388099999999 M 93.992026,1030.7915999999989 L 93.878226,1031.174399999999 C 93.750626,1031.142399999999 93.622446,1031.122399999999 93.485106,1031.122399999999 C 92.570946,1031.122399999999 91.829876,1031.863499999999 91.829876,1032.777599999999 C 91.829876,1033.691799999999 92.57094599999999,1034.432799999999 93.485106,1034.432799999999 C 94.399266,1034.432799999999 95.140336,1033.691799999999 95.140336,1032.777599999999 C 95.140336,1032.1185999999989 94.746066,1031.554199999999 94.18857600000001,1031.287899999999 L 94.31272600000001,1030.894799999999 L 93.99202600000001,1030.791299999999 L 93.992026,1030.7915999999989 M 17.32380599999999,1030.936399999999 L 16.77551599999999,1031.319199999999 L 16.961725999999988,1031.588199999999 L 17.51001599999999,1031.205399999999 L 17.32380599999999,1030.936399999999 M 29.375955999999988,1031.2157999999988 L 29.02421599999999,1031.7743999999989 L 29.293195999999988,1031.960599999999 L 29.655275999999986,1031.401999999999 L 29.375955999999988,1031.2157999999988 M 16.50653599999999,1031.5053999999989 L 15.95824599999999,1031.8777999999988 L 16.14445599999999,1032.1571999999987 L 16.692745999999993,1031.7743999999986 L 16.506535999999993,1031.5053999999986 L 16.50653599999999,1031.5053999999989 M 28.83800599999999,1032.0536999999988 L 28.47592599999999,1032.6123999999988 L 28.75524599999999,1032.7881999999988 L 29.117325999999988,1032.2295999999988 L 28.83800599999999,1032.0536999999988 M 15.68926599999999,1032.0746999999988 L 15.14097599999999,1032.4470999999987 L 15.33752599999999,1032.7160999999987 L 15.87547599999999,1032.3436999999988 L 15.68926599999999,1032.0746999999988 M 14.871995999999989,1032.6333999999988 L 14.323705999999989,1033.016099999999 L 14.52025599999999,1033.285099999999 L 15.05820599999999,1032.912699999999 L 14.871995999999989,1032.633399999999 L 14.871995999999989,1032.6333999999988 M 26.80000599999999,1032.7988999999989 C 25.49338599999999,1032.7988999999989 24.430955999999988,1033.861299999999 24.430955999999988,1035.1678999999988 C 24.430955999999988,1036.4744999999987 25.493385999999987,1037.5369999999987 26.80000599999999,1037.5369999999987 C 28.106625999999988,1037.5369999999987 29.158705999999988,1036.4744999999987 29.158705999999988,1035.1678999999988 C 29.158705999999988,1034.4618999999989 28.85255599999999,1033.8323999999989 28.36212599999999,1033.3988999999988 L 28.57937599999999,1033.0678999999989 L 28.30005599999999,1032.8815999999988 L 28.10349599999999,1033.1919999999989 C 27.72972599999999,1032.9447999999988 27.28168599999999,1032.7988999999989 26.80000599999999,1032.7988999999989 M 11.509805999999989,1032.9953999999989 C 10.180105999999988,1032.9953999999989 9.099375799999988,1034.0761999999988 9.099375799999988,1035.4058999999988 C 9.099375799999988,1036.7355999999988 10.180105999999988,1037.8162999999988 11.509805999999989,1037.8162999999988 C 12.839515999999989,1037.8162999999988 13.90989599999999,1036.7355999999988 13.90989599999999,1035.4058999999988 C 13.90989599999999,1034.0761999999988 12.839515999999989,1032.9953999999989 11.509805999999989,1032.9953999999989 M 14.054725999999988,1033.2022999999988 L 13.516775999999988,1033.5850999999989 L 13.702985999999989,1033.8540999999989 L 14.240935999999989,1033.4712999999988 L 14.054725999999988,1033.2022999999988 M 93.00922599999998,1034.6506999999988 L 92.88508599999999,1035.3023999999987 L 93.20578599999999,1035.3643999999986 L 93.34027599999999,1034.7126999999987 L 93.00922599999998,1034.6506999999988 M 92.82301599999998,1035.6230999999989 L 92.68852599999998,1036.274899999999 L 93.01957599999999,1036.3368999999989 L 93.14371599999998,1035.695499999999 L 92.82301599999998,1035.623499999999 L 92.82301599999998,1035.6230999999989 M 92.62645599999998,1036.6058999999989 L 92.50231599999998,1037.2472999999989 L 92.82301599999998,1037.3192999999987 L 92.94715599999998,1036.6675999999989 L 92.62645599999998,1036.605599999999 L 92.62645599999998,1036.6058999999989 M 92.42989599999997,1037.578399999999 L 92.30575599999997,1038.2300999999989 L 92.62645599999998,1038.2920999999988 L 92.76094599999998,1037.6403999999989 L 92.42989599999997,1037.578399999999 M 92.24368599999997,1038.550799999999 L 92.10919599999997,1039.2025999999992 L 92.44024599999997,1039.264599999999 L 92.56438599999997,1038.612799999999 L 92.24368599999997,1038.550799999999 M 92.04712599999996,1039.5232999999992 L 91.92298599999997,1040.174999999999 L 92.24368599999997,1040.236999999999 L 92.37817599999997,1039.5851999999988 L 92.04712599999996,1039.523199999999 L 92.04712599999996,1039.5232999999992 M 91.67469599999997,1040.3818999999992 C 90.76054599999996,1040.3818999999992 90.01946599999997,1041.1229999999991 90.01946599999997,1042.037099999999 C 90.01946599999997,1042.951299999999 90.76054599999996,1043.692399999999 91.67469599999997,1043.692399999999 C 92.58885599999996,1043.692399999999 93.32992599999997,1042.951299999999 93.32992599999997,1042.037099999999 C 93.32992599999997,1041.1229999999991 92.58885599999998,1040.3818999999992 91.67469599999997,1040.3818999999992" display="inline" fill="#000000" fill-opacity="1" marker="none" overflow="visible" stroke="none" style="text-indent:0;text-transform:none;direction:ltr;block-progression:tb;baseline-shift:baseline;color:#000000;enable-background:accumulate;" visibility="visible"/>
</svg>
