<?xml version="1.0" ?>
<svg xmlns="http://www.w3.org/2000/svg" xmlns:cc="http://creativecommons.org/ns#" xmlns:dc="http://purl.org/dc/elements/1.1/" xmlns:ev="http://www.w3.org/2001/xml-events" xmlns:inkscape="http://www.inkscape.org/namespaces/inkscape" xmlns:rdf="http://www.w3.org/1999/02/22-rdf-syntax-ns#" xmlns:sodipodi="http://sodipodi.sourceforge.net/DTD/sodipodi-0.dtd" xmlns:svg="http://www.w3.org/2000/svg" xmlns:xlink="http://www.w3.org/1999/xlink" baseProfile="full" height="600px" version="1.1" viewBox="0 0 100 100" width="497px" x="0px" y="0px">
	<defs/>
	<path d="M 34.706578,953.04014 C 32.757258,953.04014 31.177028,954.62038 31.177028,956.56968 C 31.177028,958.5189999999999 32.757258,960.0992299999999 34.706578,960.0992299999999 C 35.793748,960.0992299999999 36.761428,959.60376 37.408878,958.8308 L 37.445678,958.8675999999999 L 37.813338,958.4264099999999 L 37.739838,958.3712099999999 C 38.053267999999996,957.8439599999999 38.236177999999995,957.2275699999999 38.236177999999995,956.5696699999999 C 38.236177999999995,954.6203699999999 36.655947999999995,953.0401299999999 34.706638,953.0401299999999 L 34.706578,953.04014 M 16.856638,957.4520699999999 C 14.907328,957.4520699999999 13.327098,959.0323099999999 13.327098,960.9816099999999 C 13.327098,962.9309299999999 14.907328,964.5111599999999 16.856638,964.5111599999999 C 17.676718,964.5111599999999 18.426588,964.2266399999999 19.025838,963.75745 L 19.136138,963.9045199999999 L 19.595708,963.5368599999999 L 19.448648,963.35303 C 20.020747999999998,962.72572 20.386187999999997,961.89753 20.386187999999997,960.98161 C 20.386187999999997,959.03231 18.805957999999997,957.45207 16.856637999999997,957.45207 L 16.856638,957.4520699999999 M 38.272888,958.7940299999999 L 37.886838000000004,959.2536099999999 L 38.787608000000006,960.0073099999998 L 39.17364800000001,959.5477399999999 L 38.27288800000001,958.7940299999999 L 38.272888,958.7940299999999 M 39.614848,959.93378 L 39.247188,960.37497 L 40.147958,961.1286799999999 L 40.515618,960.6874899999999 L 39.614848,959.93378 M 42.795108,960.1911399999999 C 41.251908,960.1911399999999 40.000887999999996,961.44216 40.000887999999996,962.9853699999999 C 40.000887999999996,964.5285699999998 41.25190799999999,965.7795899999999 42.795108,965.7795899999999 C 43.186658,965.7795899999999 43.559827999999996,965.7043899999999 43.898098,965.5589899999999 L 44.449588,966.4781399999998 L 44.945927999999995,966.1840199999998 L 44.412817999999994,965.2648599999998 C 45.12542799999999,964.7584999999998 45.589338,963.9261199999997 45.589338,962.9853699999998 C 45.589338,961.4421599999997 44.338318,960.1911399999998 42.795108,960.1911399999998 L 42.795108,960.1911399999999 M 19.963378,963.9964299999999 L 19.522178,964.3640899999999 L 20.257498000000002,965.2648599999999 L 20.717078,964.8971999999999 L 19.963378000000002,963.9964299999999 L 19.963378,963.9964299999999 M 21.084737999999998,965.35678 L 20.643548,965.72444 L 21.397247999999998,966.6252099999999 L 21.838447999999996,966.2575499999999 L 21.084737999999994,965.35678 L 21.084737999999998,965.35678 M 45.258438,966.68036 L 44.743718,966.9928699999999 L 45.350358,968.00394 L 45.846698,967.69142 L 45.258438000000005,966.68036 L 45.258438,966.68036 M 22.224487999999997,966.7171599999999 L 21.764908,967.0848199999999 L 22.518618,967.9855899999999 L 22.959808,967.6179299999999 L 22.224487999999997,966.7171599999999 M 23.345847999999997,968.07751 L 22.886277999999997,968.44517 L 23.639977999999996,969.3459399999999 L 24.099557999999995,968.9782799999999 L 23.345847999999993,968.07751 L 23.345847999999997,968.07751 M 46.15920799999999,968.20619 L 45.644487999999996,968.50032 L 46.251127999999994,969.51139 L 46.747468,969.21726 L 46.159208,968.20619 L 46.15920799999999,968.20619 M 11.488787999999992,969.01504 C 10.177647999999992,969.01504 9.117377799999993,970.07531 9.117377799999993,971.3864599999999 C 9.117377799999993,972.6976099999999 10.177647999999992,973.7578699999999 11.488787999999992,973.7578699999999 C 12.799937999999992,973.7578699999999 13.860197999999993,972.6976099999999 13.860197999999993,971.3864599999999 C 13.860197999999993,970.07531 12.799937999999994,969.01504 11.488787999999992,969.01504 M 24.467217999999992,969.43785 L 24.007637999999993,969.80551 L 24.632667999999992,970.55922 C 24.338527999999993,970.83668 24.127877999999992,971.1816299999999 23.989257999999992,971.57029 L 23.014957999999993,971.47839 L 22.959857999999993,972.06665 L 23.860627999999995,972.15855 C 23.850427999999994,972.25165 23.823827999999995,972.33847 23.823827999999995,972.4343 C 23.823827999999995,973.79389 24.880307999999996,974.90544 26.213627999999996,975.00793 L 26.232027999999996,975.30205 L 26.820287999999998,975.28365 L 26.801887999999998,974.98952 C 27.686307999999997,974.85456 28.418598,974.27458 28.768867999999998,973.4821099999999 L 29.081377999999997,973.61079 L 29.301978,973.0593 L 28.934317999999998,972.91224 C 28.964118,972.75513 28.989417999999997,972.60008 28.989417999999997,972.43428 C 28.989417999999997,971.0070999999999 27.842967999999995,969.84227 26.415787999999996,969.84227 C 25.939027999999997,969.84227 25.493987999999995,969.9847599999999 25.110597999999996,970.20993 L 24.467187999999997,969.4378399999999 L 24.467217999999992,969.43785 M 47.05997799999999,969.73198 L 46.54524799999999,970.02611 L 47.15189799999999,971.03718 L 47.64823799999999,970.74305 L 47.059977999999994,969.73198 L 47.05997799999999,969.73198 M 14.227867999999987,970.65113 L 14.172767999999987,971.22101 L 15.349277999999988,971.33131 L 15.404377999999987,970.76143 L 14.227867999999987,970.65113 M 15.992637999999987,970.8165799999999 L 15.937537999999988,971.3864599999999 L 17.114047999999986,971.51514 L 17.169147999999986,970.92688 L 15.992637999999985,970.8165799999999 L 15.992637999999987,970.8165799999999 M 17.757407999999987,970.9820299999999 L 17.702307999999988,971.5702899999999 L 18.860437999999988,971.6805899999999 L 18.915537999999987,971.09233 L 17.757407999999987,970.9820299999999 M 19.50379799999999,971.1474799999999 L 19.44869799999999,971.7357299999999 L 20.62520799999999,971.8460299999999 L 20.68030799999999,971.2577799999999 L 19.50379799999999,971.1474799999999 M 47.96074799999999,971.2393799999999 L 47.44601799999999,971.5335099999999 L 48.05265799999999,972.5629599999999 L 48.549007999999986,972.2504499999999 L 47.96074799999999,971.2393799999999 M 21.268567999999988,971.3128799999998 L 21.21336799999999,971.9011399999998 L 22.37149799999999,972.0114399999999 L 22.426697999999988,971.4231799999999 L 21.268567999999988,971.3128799999998 M 33.97124799999999,972.5813099999998 C 32.938937999999986,972.5813099999998 32.05058799999999,973.1952899999998 31.63660799999999,974.0703399999998 L 31.47115799999999,973.9968399999998 L 31.232177999999987,974.5299499999998 L 31.434387999999988,974.6218499999998 C 31.39758799999999,974.7955499999998 31.37928799999999,974.9886799999998 31.37928799999999,975.1733399999997 C 31.37928799999999,976.6005099999998 32.544127999999986,977.7469699999997 33.97129799999999,977.7469699999997 C 35.04167799999999,977.7469699999997 35.95041799999999,977.0935099999997 36.34271799999999,976.1660299999996 L 37.46407799999999,976.4233899999996 L 37.592757999999996,975.8535199999995 L 36.526548,975.5961499999995 C 36.549848,975.4565499999995 36.563348,975.3195699999995 36.563348,975.1733399999995 C 36.563348,973.7461699999994 35.398517999999996,972.5813299999995 33.971337999999996,972.5813299999995 L 33.97124799999999,972.5813099999998 M 48.86151799999999,972.7651399999997 L 48.34678799999999,973.0592699999997 L 48.95342799999999,974.0703399999998 L 49.44977799999999,973.7762099999998 L 48.86151799999999,972.7651399999997 M 29.85344799999999,973.2982499999997 L 29.614467999999988,973.8497399999997 L 30.69906799999999,974.3093199999996 L 30.91966799999999,973.7578299999997 L 29.85344799999999,973.2982499999997 M 49.74389799999999,974.2725499999997 L 49.247557999999984,974.5850699999996 L 49.85419799999998,975.5961299999997 L 50.350537999999986,975.2836199999997 L 49.74389799999999,974.2725499999997 M 50.64466799999999,975.7983499999997 L 50.14832799999999,976.0924799999997 L 50.75496799999999,977.1035399999997 L 51.251307999999995,976.8094099999997 L 50.644667999999996,975.7983499999997 L 50.64466799999999,975.7983499999997 M 26.83862799999999,975.8718499999997 L 26.25037799999999,975.8902499999997 L 26.28717799999999,977.0667699999997 L 26.87543799999999,977.0483699999996 L 26.83863799999999,975.8718599999996 L 26.83862799999999,975.8718499999997 M 38.162587999999985,975.9821499999997 L 38.03390799999998,976.5520199999997 L 39.173647999999986,976.8093799999997 L 39.302337999999985,976.2395099999997 L 38.162587999999985,975.9821499999997 M 39.872207999999986,976.3681899999997 L 39.74352799999998,976.9564499999997 L 40.90165799999998,977.2138099999996 L 41.030337999999986,976.6439399999996 L 39.872207999999986,976.3681899999996 L 39.872207999999986,976.3681899999997 M 41.600217999999984,976.7726199999997 L 41.471527999999985,977.3424899999998 L 42.611277999999984,977.6182399999998 L 42.73995799999999,977.0299799999998 L 41.600217999999984,976.7726199999998 L 41.600217999999984,976.7726199999997 M 52.464587999999985,976.7910199999998 C 51.03741799999999,976.7910199999998 49.872587999999986,977.9374699999997 49.872587999999986,979.3646499999998 C 49.872587999999986,980.7918199999998 51.03741799999999,981.9566599999997 52.464587999999985,981.9566599999997 C 53.891767999999985,981.9566599999997 55.038217999999986,980.7918199999997 55.038217999999986,979.3646499999998 C 55.038217999999986,977.9374699999997 53.891767999999985,976.7910199999998 52.464587999999985,976.7910199999998 M 43.328217999999985,977.1770599999998 L 43.18115799999998,977.7469399999998 L 44.33928799999998,978.0042999999997 L 44.467967999999985,977.4344299999997 L 43.328217999999985,977.1770599999996 L 43.328217999999985,977.1770599999998 M 45.03784799999998,977.5631099999997 L 44.909157999999984,978.1329799999997 L 46.04890799999998,978.4087299999998 L 46.177587999999986,977.8388499999998 L 45.03784799999998,977.5631099999997 M 26.875397999999983,977.6366099999997 L 26.287137999999985,977.6550099999997 L 26.323937999999984,978.8315299999997 L 26.912197999999982,978.8131299999997 L 26.875397999999983,977.6366099999997 M 46.765847999999984,977.9675099999997 L 46.61878799999998,978.5373799999998 L 47.77691799999998,978.7947399999997 L 47.90559799999998,978.2248699999997 L 46.765847999999984,977.9675099999997 M 48.475467999999985,978.3535499999997 L 48.34678799999998,978.9234199999997 L 49.48653799999998,979.1991699999998 L 49.63360799999998,978.6292999999997 L 48.47546799999998,978.3535499999997 L 48.475467999999985,978.3535499999997 M 26.930547999999984,979.4013799999997 L 26.342287999999982,979.4197799999997 L 26.37908799999998,980.5962899999997 L 26.96733799999998,980.5778899999997 L 26.93053799999998,979.4013699999997 L 26.930547999999984,979.4013799999997 M 55.369117999999986,979.8425799999997 L 55.258817999999984,980.4124499999997 L 56.416947999999984,980.6330499999997 L 56.527247999999986,980.0631699999997 L 55.369117999999986,979.8425799999997 M 57.09711799999999,980.1734699999996 L 56.986817999999985,980.7433499999996 L 58.144947999999985,980.9639399999996 L 58.25524799999999,980.3756799999996 L 57.09711799999999,980.1734699999996 M 58.843507999999986,980.4859799999996 L 58.73320799999998,981.0742399999996 L 59.89133799999998,981.2948399999996 L 59.983237999999986,980.7065799999996 L 58.84348799999999,980.4859799999996 L 58.843507999999986,980.4859799999996 M 60.57151799999998,980.8168799999996 L 60.46121799999998,981.4051299999996 L 61.61934799999998,981.6073499999997 L 61.72964799999998,981.0374699999996 L 60.57151799999998,980.8168799999996 M 62.299517999999985,981.1477699999996 L 62.18921799999998,981.7176499999996 L 63.347357999999986,981.9382399999996 L 63.457647999999985,981.3683699999996 L 62.299517999999985,981.1477699999996 M 26.96730799999998,981.1661699999996 L 26.379057999999983,981.1845699999997 L 26.415857999999982,982.3610799999997 L 27.004117999999984,982.3426799999996 L 26.967317999999985,981.1661699999996 L 26.96730799999998,981.1661699999996 M 78.09055799999999,981.4051399999996 C 76.78636799999998,981.4051399999996 75.71150799999998,982.3738799999996 75.53530799999999,983.6294899999996 L 74.45070799999999,983.4272799999995 L 74.34041799999999,984.0155399999995 L 75.49854799999999,984.2361299999995 L 75.51694799999999,984.1442299999995 C 75.59564799999998,985.5005899999995 76.71446799999998,986.5707899999995 78.09057799999998,986.5707899999995 C 79.51774799999998,986.5707899999995 80.68257799999998,985.4243299999995 80.68257799999998,983.9971599999996 C 80.68257799999998,982.5699899999995 79.51774799999998,981.4051499999996 78.09057799999998,981.4051499999996 L 78.09055799999999,981.4051399999996 M 64.04590799999998,981.4786399999996 L 63.93560799999998,982.0485099999996 L 65.09373799999999,982.2691099999996 L 65.18563799999998,981.6992299999996 L 64.04588799999998,981.4786399999996 L 64.04590799999998,981.4786399999996 M 65.77391799999998,981.8095299999995 L 65.66361799999999,982.3794099999996 L 66.82174799999999,982.5999999999996 L 66.93204799999998,982.0117499999996 L 65.77391799999998,981.8095299999995 M 53.91684799999998,982.0852799999996 L 53.36535799999998,982.3058699999996 L 53.80655799999998,983.3904699999996 L 54.33965799999998,983.1882599999996 L 53.91684799999998,982.0852799999996 M 67.50191799999997,982.1220799999995 L 67.39161799999998,982.7103399999995 L 68.54975799999998,982.9309399999995 L 68.66004799999999,982.3426799999995 L 67.50191799999999,982.1220799999995 L 67.50191799999997,982.1220799999995 M 69.24830799999998,982.4529799999996 L 69.13800799999999,983.0412399999996 L 70.29614799999999,983.2434499999996 L 70.38804799999998,982.6735699999996 L 69.24829799999998,982.4529799999996 L 69.24830799999998,982.4529799999996 M 70.97631799999998,982.7838699999995 L 70.86601799999998,983.3537499999995 L 72.02414799999998,983.5743399999996 L 72.13444799999998,983.0044699999995 L 70.97631799999998,982.7838699999995 M 27.02245799999998,982.9309399999995 L 26.43420799999998,982.9493399999996 L 26.47100799999998,984.1258599999995 L 27.04088799999998,984.1074599999995 L 27.02248799999998,982.9309499999995 L 27.02245799999998,982.9309399999995 M 72.70431799999997,983.1147699999995 L 72.59402799999997,983.6846399999995 L 73.75215799999997,983.9052399999995 L 73.86245799999996,983.3353599999995 L 72.70431799999996,983.1147699999995 L 72.70431799999997,983.1147699999995 M 54.560257999999976,983.7214099999994 L 54.008767999999975,983.9419999999994 L 54.449957999999974,985.0449899999994 L 55.001447999999975,984.8243899999994 L 54.560257999999976,983.7214099999994 M 27.059227999999976,984.6957099999994 L 26.470967999999978,984.7141099999994 L 26.507767999999977,985.8906299999994 L 27.096027999999976,985.8722299999994 L 27.059227999999976,984.6957199999994 L 27.059227999999976,984.6957099999994 M 55.20366799999998,985.3758799999994 L 54.67055799999998,985.5780999999994 L 55.09336799999998,986.6810799999994 L 55.64485799999998,986.4604799999994 L 55.20366799999998,985.3758799999994 M 27.11437799999998,986.4604799999994 L 26.526117999999983,986.4788799999994 L 26.544517999999982,987.6553999999994 L 27.13277799999998,987.6369999999994 L 27.11437799999998,986.4604799999994 M 55.86545799999998,987.0119699999993 L 55.31396799999998,987.2325699999993 L 55.73677799999998,988.3171699999994 L 56.28826799999998,988.0965699999994 L 55.86545799999998,987.0119699999993 M 27.151137999999982,988.2252499999994 L 26.562887999999983,988.2436499999994 L 26.599687999999983,989.4201599999994 L 27.187947999999984,989.4017599999994 L 27.151147999999985,988.2252399999994 L 27.151137999999982,988.2252499999994 M 56.50885799999998,988.6480599999994 L 55.95736799999998,988.8686599999994 L 56.39856799999998,989.9532299999994 L 56.93166799999998,989.7510299999994 L 56.50885799999998,988.6480599999994 M 27.206287999999983,989.9900299999994 L 26.618037999999984,990.0080299999994 L 26.636437999999984,991.1845299999994 L 27.224697999999982,991.1665299999994 L 27.206297999999983,989.9900299999994 L 27.206287999999983,989.9900299999994 M 57.15226799999998,990.2841299999993 L 56.60077799999998,990.5047299999993 L 57.041967999999976,991.6077299999993 L 57.59345799999998,991.3871299999993 L 57.15226799999998,990.2841299999993 M 27.243057999999976,991.7548299999993 L 26.65479799999998,991.7728299999993 L 26.691597999999978,992.9493299999993 L 27.279857999999976,992.9313299999993 L 27.243057999999976,991.7548299999993 M 57.814057999999974,991.9386299999993 L 57.26256799999997,992.1592299999993 L 57.68537799999997,993.2438299999993 L 58.23686799999997,993.0232299999993 L 57.814057999999974,991.9386299999993 M 26.709947999999976,993.5195299999993 L 26.728347999999976,994.5674299999994 C 25.777137999999976,994.8769299999993 25.092257999999976,995.7556299999994 25.092257999999976,996.8101299999994 C 25.092257999999976,998.1213299999994 26.152527999999975,999.1815299999994 27.463677999999977,999.1815299999994 C 27.743727999999976,999.1815299999994 28.004677999999977,999.1235299999994 28.254147999999976,999.0345299999993 L 28.640187999999977,999.6227299999994 L 29.136527999999977,999.2918299999993 L 28.787257999999976,998.7771299999994 C 29.418757999999976,998.3505299999994 29.835087999999978,997.6296299999993 29.835087999999978,996.8101299999994 C 29.835087999999978,995.4990299999994 28.77481799999998,994.4387299999994 27.463677999999977,994.4387299999994 C 27.413077999999977,994.4387299999994 27.366477999999976,994.4537299999994 27.316607999999977,994.4567299999994 L 27.298207999999978,993.5192299999994 L 26.709947999999976,993.5192299999994 L 26.709947999999976,993.5195299999993 M 58.45746799999998,993.5745299999993 L 57.905977999999976,993.7951299999993 L 58.347167999999975,994.8797299999993 L 58.880277999999976,994.6775299999994 L 58.45746799999998,993.5745299999994 L 58.45746799999998,993.5745299999993 M 59.10086799999998,995.2106299999994 L 58.549377999999976,995.4312299999993 L 58.990567999999975,996.5342299999993 L 59.54206799999997,996.3136299999993 L 59.10086799999997,995.2106299999994 L 59.10086799999998,995.2106299999994 M 59.74427799999998,996.8651299999993 L 59.21116799999998,997.0673299999993 L 59.63397799999998,998.1703299999992 L 60.18546799999998,997.9497299999992 L 59.74427799999998,996.8651299999992 L 59.74427799999998,996.8651299999993 M 60.40606799999998,998.5012299999994 L 59.85457799999998,998.7218299999994 L 60.29576799999998,999.8064299999994 L 60.82887799999998,999.5858299999994 L 60.40606799999998,998.5012299999994 M 29.449027999999984,999.7880299999994 L 28.952677999999985,1000.1188999999994 L 29.596087999999984,1001.0931999999993 L 30.092427999999984,1000.7806999999993 L 29.449027999999984,999.7880299999994 M 61.04947799999998,1000.1372999999994 L 60.49797799999998,1000.3578999999994 L 60.939177999999984,1001.4424999999994 L 61.490667999999985,1001.2402999999995 L 61.049477999999986,1000.1372999999995 L 61.04947799999998,1000.1372999999994 M 30.40493799999998,1001.2769999999994 L 29.90859799999998,1001.5895999999993 L 30.55200799999998,1002.5821999999994 L 31.04834799999998,1002.2696999999994 L 30.40493799999998,1001.2769999999994 M 61.69287799999998,1001.7733999999994 L 61.15976799999998,1001.9939999999993 L 61.58257799999998,1003.0969999999993 L 62.13406799999998,1002.8763999999993 L 61.69287799999998,1001.7733999999994 M 31.36085799999998,1002.7660999999994 L 30.86451799999998,1003.0785999999994 L 31.50792799999998,1004.0712999999994 L 32.00426799999998,1003.7403999999993 L 31.360857999999983,1002.7660999999994 L 31.36085799999998,1002.7660999999994 M 62.354667999999975,1003.4278999999993 L 61.803177999999974,1003.6300999999993 L 62.22598799999997,1004.7330999999992 L 62.777477999999974,1004.5124999999992 L 62.354667999999975,1003.4278999999992 L 62.354667999999975,1003.4278999999993 M 32.31677799999997,1004.2366999999994 L 31.82043799999997,1004.5675999999994 L 32.463837999999974,1005.5418999999994 L 32.960187999999974,1005.2293999999994 L 32.31677799999997,1004.2366999999994 M 62.99807799999997,1005.0638999999993 L 62.44658799999997,1005.2844999999993 L 62.88777799999997,1006.3690999999993 L 63.42088799999997,1006.1484999999993 L 62.99807799999997,1005.0638999999993 M 33.27269799999997,1005.7256999999993 L 32.77635799999997,1006.0381999999993 L 33.41975799999997,1007.0308999999993 L 33.91609799999998,1006.7183999999993 L 33.27269799999998,1005.7256999999993 L 33.27269799999997,1005.7256999999993 M 63.64147799999997,1006.6999999999992 L 63.08998799999997,1006.9205999999992 L 63.53118799999997,1008.0235999999992 L 64.08267799999997,1007.8029999999992 L 63.64147799999997,1006.6999999999992 M 34.22861799999997,1007.2147999999993 L 33.73226799999997,1007.5272999999993 L 34.37567799999997,1008.5199999999993 L 34.87201799999997,1008.2073999999993 L 34.22861799999997,1007.2147999999993 M 64.30326799999997,1008.3544999999992 L 63.75177799999997,1008.5566999999992 L 64.17458799999997,1009.6596999999991 L 64.72607799999997,1009.4390999999991 L 64.30326799999997,1008.3544999999991 L 64.30326799999997,1008.3544999999992 M 35.18452799999997,1008.6853999999993 L 34.68818799999997,1009.0162999999993 L 35.33159799999997,1010.0089999999993 L 35.827937999999975,1009.6780999999993 L 35.18452799999997,1008.6853999999993 M 64.94667799999996,1009.9905999999993 L 64.39518799999996,1010.2111999999993 L 64.83637799999997,1011.2957999999993 L 65.36948799999996,1011.0751999999993 L 64.94667799999996,1009.9905999999993 M 36.140447999999964,1010.1743999999993 L 35.64410799999996,1010.4868999999993 L 36.28751799999996,1011.4795999999993 L 36.78385799999997,1011.1670999999993 L 36.140447999999964,1010.1743999999993 M 65.59008799999997,1011.6266999999993 L 65.03859799999996,1011.8472999999993 L 65.47978799999997,1012.9318999999994 L 66.03127799999997,1012.7296999999994 L 65.59008799999997,1011.6266999999995 L 65.59008799999997,1011.6266999999993 M 37.09636799999997,1011.6636999999994 L 36.61840799999997,1011.9761999999994 L 37.11474799999996,1012.7482999999994 L 37.13314799999996,1012.7662999999994 L 37.13314799999996,1012.7842999999995 L 37.15154799999996,1012.8392999999994 C 36.469247999999965,1013.2562999999994 36.01179799999996,1014.0215999999995 36.01179799999996,1014.8797999999994 C 36.01179799999996,1015.9937999999994 36.77848799999996,1016.9216999999994 37.813337999999966,1017.1776999999994 L 37.813337999999966,1017.2146999999994 L 38.162617999999966,1017.2326999999995 C 38.236217999999965,1017.2426999999994 38.307847999999964,1017.2506999999995 38.38320799999997,1017.2506999999995 C 38.642557999999966,1017.2506999999995 38.88491799999997,1017.1986999999995 39.118537999999965,1017.1219999999995 L 39.394277999999964,1017.7653999999995 L 39.927387999999965,1017.5080999999996 L 39.65163799999996,1016.8829999999996 C 40.313827999999965,1016.4617999999996 40.75462799999996,1015.7221999999996 40.75462799999996,1014.8792999999996 C 40.75462799999996,1013.5680999999996 39.69435799999996,1012.4894999999996 38.38320799999996,1012.4894999999996 C 38.14351799999996,1012.4894999999996 37.92116799999996,1012.5524999999996 37.703037999999964,1012.6181999999995 L 37.64793799999996,1012.5078999999995 L 37.62953799999996,1012.4708999999995 L 37.62953799999996,1012.4528999999994 L 37.09642799999996,1011.6623999999995 L 37.09636799999997,1011.6636999999994 M 66.23348799999997,1013.2629999999994 L 65.70038799999996,1013.4835999999993 L 66.12319799999996,1014.5865999999993 L 66.67468799999996,1014.3659999999993 L 66.23348799999997,1013.2629999999994 M 66.89527799999996,1014.9174999999993 L 66.34378799999996,1015.1196999999993 L 66.43568799999996,1015.3402999999993 C 65.70757799999996,1015.7457999999992 65.20401799999996,1016.5066999999992 65.20401799999996,1017.3991999999993 C 65.20401799999996,1018.6217999999992 66.14855799999997,1019.6034999999993 67.33645799999996,1019.7338999999993 L 67.46513799999997,1020.9103999999993 L 68.05338799999997,1020.8373999999993 L 67.90632799999997,1019.7343999999994 C 69.06801799999997,1019.5797999999994 69.96522799999997,1018.6036999999993 69.96522799999997,1017.3996999999994 C 69.96522799999997,1016.0885999999994 68.90496799999997,1015.0282999999994 67.59381799999997,1015.0282999999994 C 67.37663799999997,1015.0282999999994 67.16864799999998,1015.0652999999994 66.96879799999996,1015.1202999999994 L 66.89529799999997,1014.9180999999994 L 66.89527799999996,1014.9174999999993 M 37.79492799999996,1017.8035999999994 L 37.77652799999996,1018.9800999999994 L 38.36478799999996,1018.9980999999995 L 38.38318799999996,1017.8215999999994 L 37.79493799999996,1017.8035999999994 L 37.79492799999996,1017.8035999999994 M 40.18471799999996,1018.0425999999994 L 39.65160799999996,1018.2999999999994 L 40.12956799999996,1019.3661999999994 L 40.662677999999964,1019.1271999999993 L 40.18471799999996,1018.0425999999993 L 40.18471799999996,1018.0425999999994 M 37.75815799999996,1019.5683999999994 L 37.72135799999996,1020.7448999999995 L 38.30961799999996,1020.7448999999995 L 38.34641799999996,1019.5683999999994 L 37.75815799999996,1019.5683999999994 M 69.30345799999996,1019.5683999999994 L 68.78873799999997,1019.8624999999994 L 69.35860799999996,1020.8919999999994 L 69.87333799999996,1020.5978999999994 L 69.30345799999996,1019.5683999999994 M 40.92003799999996,1019.6603999999994 L 40.386937999999965,1019.8993999999994 L 40.864887999999965,1020.9655999999994 L 41.397997999999966,1020.7265999999994 L 40.92003799999996,1019.6603999999994 M 70.14907799999996,1021.1126999999994 L 69.63435799999996,1021.4067999999994 L 70.20422799999996,1022.4361999999994 L 70.71895799999996,1022.1604999999994 L 70.14907799999996,1021.1126999999993 L 70.14907799999996,1021.1126999999994 M 41.65536799999996,1021.2596999999995 L 41.12225799999996,1021.4986999999995 L 41.60021799999996,1022.5648999999995 L 42.13331799999996,1022.3258999999995 L 41.65536799999996,1021.2596999999995 M 37.70300799999996,1021.3146999999994 L 37.66620799999996,1022.4911999999995 L 38.254457999999964,1022.5091999999995 L 38.291257999999964,1021.3326999999995 L 37.702997999999965,1021.3146999999994 L 37.70300799999996,1021.3146999999994 M 68.12694799999997,1021.4249999999995 L 67.53868799999996,1021.4799999999994 L 67.66736799999997,1022.6564999999995 L 68.25562799999997,1022.5834999999995 L 68.12694799999997,1021.4253999999995 L 68.12694799999997,1021.4249999999995 M 70.99469799999997,1022.6750999999995 L 70.47997799999997,1022.9507999999995 L 71.04984799999997,1023.9802999999995 L 71.56457799999997,1023.7044999999995 L 70.99469799999997,1022.6750999999995 M 42.39068799999997,1022.8588999999995 L 41.85757799999997,1023.1162999999995 L 42.33553799999997,1024.1824999999994 L 42.86864799999997,1023.9250999999995 L 42.39068799999997,1022.8588999999995 M 37.64785799999997,1023.0794999999995 L 37.61105799999997,1024.2559999999994 L 38.199307999999974,1024.2739999999994 L 38.23610799999997,1023.0974999999994 L 37.647847999999975,1023.0794999999994 L 37.64785799999997,1023.0794999999995 M 68.32915799999998,1023.1714999999995 L 67.74089799999997,1023.2454999999994 L 67.88796799999997,1024.4035999999994 L 68.45783799999997,1024.3305999999993 L 68.32915799999996,1023.1724999999993 L 68.32915799999998,1023.1714999999995 M 71.84031799999998,1024.2192999999995 L 71.32559799999999,1024.4950999999994 L 71.89546799999998,1025.5244999999993 L 72.41019799999998,1025.2487999999994 L 71.84031799999998,1024.2192999999993 L 71.84031799999998,1024.2192999999995 M 43.126007999999985,1024.4766999999995 L 42.57451799999998,1024.7156999999995 L 43.07085799999999,1025.7818999999995 L 43.60396799999999,1025.5428999999995 L 43.126007999999985,1024.4766999999995 M 37.59270799999999,1024.8442999999995 L 37.55590799999999,1026.0208999999995 L 38.14415799999999,1026.0388999999996 L 38.18095799999999,1024.8623999999995 L 37.59269799999999,1024.8443999999995 L 37.59270799999999,1024.8442999999995 M 68.53136799999999,1024.9172999999996 L 67.94311799999998,1024.9902999999997 L 68.09017799999998,1026.1668999999997 L 68.67843799999999,1026.0938999999996 L 68.53136799999999,1024.9172999999996 M 72.70431799999999,1025.7629999999997 L 72.18959799999999,1026.0386999999996 L 72.74108799999999,1027.0681999999997 L 73.25581799999999,1026.7923999999998 L 72.70431799999999,1025.763 L 72.70431799999999,1025.7629999999997 M 43.861327999999986,1026.0754999999997 L 43.309837999999985,1026.3144999999997 L 43.80617799999999,1027.3806999999997 L 44.33928799999999,1027.1416999999997 L 43.861327999999986,1026.0754999999997 M 37.53755799999999,1026.6085999999998 L 37.50075799999999,1027.7850999999998 L 38.08901799999999,1027.8030999999999 L 38.12581799999999,1026.6265999999998 L 37.53755799999999,1026.6085999999998 M 68.733588,1026.6825999999999 L 68.163708,1026.7376 L 68.292388,1027.9141 L 68.88064800000001,1027.8410999999999 L 68.73358800000001,1026.6829999999998 L 68.733588,1026.6825999999999 M 73.549938,1027.3075999999999 L 73.035218,1027.6017 L 73.605088,1028.6312 L 74.119818,1028.3371 L 73.549938,1027.3075999999999 M 44.578267999999994,1027.6752999999999 L 44.045157999999994,1027.9142 L 44.54149799999999,1028.9987999999998 L 45.07460799999999,1028.7414999999999 L 44.578267999999994,1027.6752999999999 M 37.48240799999999,1028.3737999999998 L 37.44560799999999,1029.5502999999999 L 38.03386799999999,1029.5683 L 38.07066799999999,1028.3917999999999 L 37.48240799999999,1028.3737999999998 M 68.95417799999998,1028.4288 L 68.36592799999998,1028.5018 L 68.49460799999999,1029.66 L 69.08285799999999,1029.587 L 68.95417799999998,1028.4288 M 74.39555799999998,1028.8516 L 73.88083799999998,1029.1458 L 74.45070799999998,1030.1752 L 74.96543799999998,1029.8810999999998 L 74.39555799999998,1028.8515999999997 L 74.39555799999998,1028.8516 M 45.31358799999998,1029.2744 L 44.78047799999998,1029.5318 L 45.27681799999998,1030.598 L 45.80992799999998,1030.359 L 45.31358799999998,1029.2744 M 37.427267999999984,1030.1384 L 37.390467999999984,1031.315 L 37.97872799999998,1031.333 L 38.01552799999998,1030.1564 L 37.42727799999998,1030.1384 L 37.427267999999984,1030.1384 M 69.15639799999998,1030.1754 L 68.56813799999998,1030.2484000000002 L 68.71519799999997,1031.4250000000002 L 69.28507799999997,1031.352 L 69.15639799999997,1030.1754 L 69.15639799999998,1030.1754 M 75.24117799999998,1030.3960000000002 L 74.72645799999998,1030.6902000000002 L 75.29632799999997,1031.7196000000001 L 75.81105799999997,1031.4439000000002 L 75.24117799999998,1030.3960000000002 M 46.048907999999976,1030.8924000000002 L 45.515797999999975,1031.1314000000002 L 46.012147999999975,1032.1976000000002 L 46.54524799999997,1031.9586000000002 L 46.04890799999997,1030.8924000000002 L 46.048907999999976,1030.8924000000002 M 37.37211799999997,1031.9034000000001 L 37.35371799999997,1033.0800000000002 L 37.94197799999997,1033.0980000000002 L 37.96037799999997,1031.9215000000002 L 37.37212799999997,1031.9035000000001 L 37.37211799999997,1031.9034000000001 M 69.35860799999998,1031.9404000000002 L 68.77034799999997,1031.9954000000002 L 68.91741799999997,1033.1720000000003 L 69.50566799999997,1033.0990000000002 L 69.35860799999998,1031.9408 L 69.35860799999998,1031.9404000000002 M 76.08679799999997,1031.9584000000002 L 75.57207799999998,1032.2342 L 76.14194799999997,1033.2636 L 76.65667799999997,1032.9879 L 76.08679799999997,1031.9584 L 76.08679799999997,1031.9584000000002 M 46.78422799999997,1032.4916000000003 L 46.25112799999997,1032.7305000000003 L 46.74746799999997,1033.8151000000003 L 47.28057799999997,1033.5578000000003 L 46.78422799999997,1032.4916000000003 M 76.95080799999997,1033.5026000000003 L 76.43607799999997,1033.7784000000001 L 76.98756799999997,1034.8078 L 77.50229799999997,1034.5321000000001 L 76.95080799999997,1033.5026 L 76.95080799999997,1033.5026000000003 M 37.33534799999997,1033.6681000000003 L 37.29854799999997,1034.8446000000004 L 37.88680799999997,1034.8626000000004 L 37.923607999999966,1033.6861000000004 L 37.33534799999997,1033.6681000000003 M 69.56081799999997,1033.6861000000004 L 68.99094799999997,1033.7591000000004 L 69.11962799999998,1034.9172000000005 L 69.70788799999998,1034.8622000000005 L 69.56081799999998,1033.6857000000005 L 69.56081799999997,1033.6861000000004 M 47.51955799999997,1034.0905000000002 L 46.98644799999997,1034.3479000000002 L 47.48278799999997,1035.4141000000002 L 48.01589799999997,1035.1751000000002 L 47.519557999999975,1034.0905000000002 L 47.51955799999997,1034.0905000000002 M 77.79642799999996,1035.0464000000002 L 77.28169799999996,1035.3222 L 77.83318799999996,1036.3516 L 78.36629799999996,1036.0759 L 77.79642799999996,1035.0464 L 77.79642799999996,1035.0464000000002 M 37.28019799999996,1035.4325000000001 L 37.243397999999964,1036.6090000000002 L 37.831647999999966,1036.6270000000002 L 37.868447999999965,1035.4505000000001 L 37.28018799999997,1035.4325000000001 L 37.28019799999996,1035.4325000000001 M 69.78141799999997,1035.4325000000001 L 69.19315799999997,1035.5055000000002 L 69.32183799999997,1036.6820000000002 L 69.91009799999998,1036.6090000000002 L 69.78141799999997,1035.4325000000001 M 48.25487799999998,1035.7082 L 47.721767999999976,1035.9472 L 48.21810799999997,1037.0134 L 48.75121799999997,1036.7744 L 48.25487799999998,1035.7082 M 78.64204799999997,1036.5906 L 78.12731799999997,1036.8663 L 78.69719799999997,1037.9142 L 79.21191799999997,1037.62 L 78.64204799999997,1036.5906 M 37.22504799999997,1037.1972 L 37.18824799999997,1038.3737 L 37.776497999999975,1038.3917000000001 L 37.813297999999975,1037.2152 L 37.22503799999998,1037.1972 L 37.22504799999997,1037.1972 M 69.98362799999998,1037.1972 L 69.39537799999998,1037.2522000000001 L 69.54243799999998,1038.4287000000002 L 70.13069799999998,1038.3557 L 69.98362799999998,1037.1976 L 69.98362799999998,1037.1972 M 48.99019799999998,1037.3075000000001 L 48.45708799999998,1037.5465000000002 L 48.953427999999974,1038.6127000000001 L 49.486537999999975,1038.3737 L 48.99019799999998,1037.3075000000001 M 80.31489799999997,1038.0980000000002 C 80.05344799999997,1038.0980000000002 79.78996799999997,1038.1540000000002 79.56119799999998,1038.2451 L 79.48769799999998,1038.1348 L 78.97296799999998,1038.4289 L 79.04646799999998,1038.5576 C 78.60087799999998,1038.9231000000002 78.31114799999997,1039.4804000000001 78.31114799999997,1040.1017000000002 C 78.31114799999997,1041.2026 79.21405799999998,1042.0871000000002 80.31489799999997,1042.0871000000002 C 80.83304799999998,1042.0871000000002 81.28400799999997,1041.8781000000001 81.63847799999998,1041.554 L 82.11643799999997,1041.9768000000001 L 82.50248799999997,1041.5356000000002 L 82.02452799999998,1041.1128 C 82.20359799999997,1040.8138000000001 82.30026799999997,1040.4756000000002 82.30026799999997,1040.1017000000002 C 82.30026799999997,1039.0009000000002 81.41574799999998,1038.0980000000002 80.31489799999997,1038.0980000000002 M 49.72551799999997,1038.9068000000002 L 49.19240799999997,1039.1642000000002 L 49.688747999999975,1040.2304000000001 L 50.221857999999976,1039.9731000000002 L 49.72551799999998,1038.9068000000002 L 49.72551799999997,1038.9068000000002 M 70.18584799999996,1038.9438000000002 L 69.59758799999996,1039.0178000000003 L 69.74464799999996,1040.1760000000004 L 70.33290799999996,1040.1210000000003 L 70.18584799999996,1038.9445000000003 L 70.18584799999996,1038.9438000000002 M 37.16989799999997,1038.9618000000003 L 37.13309799999997,1040.1384000000003 L 37.72134799999997,1040.1564000000003 L 37.75814799999997,1038.9798000000003 L 37.16988799999997,1038.9618000000003 L 37.16989799999997,1038.9618000000003 M 50.46083799999997,1040.5244000000002 L 49.927727999999966,1040.7634000000003 L 50.40568799999997,1041.8296000000003 L 50.95717799999997,1041.5906000000002 L 50.46083799999997,1040.5244000000002 M 70.40643799999997,1040.6899000000003 L 69.81818799999996,1040.7629000000004 L 69.87328799999996,1041.3143000000005 C 69.15787799999995,1041.6169000000004 68.65999799999996,1042.3086000000005 68.65999799999996,1043.1343000000004 C 68.65999799999996,1044.2351000000003 69.54452799999996,1045.1380000000004 70.64536799999996,1045.1380000000004 C 71.74620799999997,1045.1380000000004 72.63073799999997,1044.2351000000003 72.63073799999997,1043.1343000000004 C 72.63073799999997,1042.0334000000005 71.74620799999997,1041.1489000000004 70.64536799999996,1041.1489000000004 C 70.58276799999996,1041.1489000000004 70.52266799999997,1041.1619000000003 70.46153799999996,1041.1669000000004 L 70.40643799999997,1040.6889000000003 L 70.40643799999997,1040.6899000000003 M 37.11474799999996,1040.7269000000003 L 37.077947999999964,1041.9034000000004 L 37.66620799999996,1041.9214000000004 L 37.70300799999996,1040.7449000000004 L 37.11474799999996,1040.7269000000003 M 82.94367799999996,1041.9218000000003 L 82.55763799999997,1042.3629000000003 L 83.44001799999997,1043.1534000000004 L 83.82606799999996,1042.7122000000004 L 82.94367799999996,1041.9218000000003 M 51.19615799999996,1042.1240000000003 L 50.663057999999964,1042.3629000000003 L 51.049097999999965,1043.2453000000003 C 50.573587999999965,1043.6096000000002 50.27700799999997,1044.1810000000003 50.27700799999997,1044.8263000000002 C 50.27700799999997,1045.9271 51.161537999999965,1046.8116000000002 52.26237799999997,1046.8116000000002 C 53.36321799999997,1046.8116000000002 54.24774799999997,1045.9271000000003 54.24774799999997,1044.8263000000002 C 54.24774799999997,1043.7254000000003 53.363217999999975,1042.8225000000002 52.26237799999997,1042.8225000000002 C 52.02251799999997,1042.8225000000002 51.79519799999997,1042.8735000000001 51.58220799999997,1042.9512000000002 L 51.196157999999976,1042.1240000000003 L 51.19615799999996,1042.1240000000003 M 37.059597999999966,1042.4916000000003 L 37.022797999999966,1043.6681000000003 L 37.611057999999964,1043.6861000000004 L 37.647857999999964,1042.5096000000003 L 37.059597999999966,1042.4916000000003 M 84.26725799999997,1043.0983000000003 L 83.88120799999997,1043.5395000000003 L 84.74521799999997,1044.3299000000004 L 85.14963799999997,1043.8887000000004 L 84.26725799999997,1043.0983000000003 M 37.00445799999997,1044.2564000000004 L 36.96765799999997,1045.4329000000005 L 37.55591799999997,1045.4509000000005 L 37.59271799999997,1044.2744000000005 L 37.00446799999997,1044.2564000000004 L 37.00445799999997,1044.2564000000004 M 85.59083799999996,1044.2744000000005 L 85.18640799999996,1044.7156000000004 L 86.06879799999996,1045.4877000000004 L 86.45483799999995,1045.0465000000004 L 85.59083799999995,1044.2744000000005 L 85.59083799999996,1044.2744000000005 M 88.18284799999996,1044.8259000000005 C 87.08199799999997,1044.8259000000005 86.19747799999996,1045.7104000000004 86.19747799999996,1046.8113000000005 C 86.19747799999996,1047.9121000000005 87.08199799999996,1048.8150000000005 88.18284799999996,1048.8150000000005 C 89.28368799999997,1048.8150000000005 90.18659799999996,1047.9121000000005 90.18659799999996,1046.8113000000005 C 90.18659799999996,1045.7104000000006 89.28368799999996,1044.8259000000005 88.18284799999996,1044.8259000000005 M 36.96768799999997,1046.0208000000005 L 36.93088799999997,1047.1054000000004 C 36.005287999999965,1047.2776000000003 35.294797999999965,1048.0785000000003 35.294797999999965,1049.0540000000003 C 35.294797999999965,1050.1548000000003 36.19770799999996,1051.0394000000003 37.29854799999997,1051.0394000000003 C 38.399387999999966,1051.0394000000003 39.28391799999997,1050.1548000000003 39.28391799999997,1049.0540000000003 C 39.28391799999997,1048.0285000000003 38.51504799999997,1047.1978000000004 37.51914799999997,1047.0870000000002 L 37.53754799999997,1046.0392000000002 L 36.96767799999997,1046.0212000000001 L 36.96768799999997,1046.0208000000005" display="inline" fill="#000000" fill-opacity="1" marker="none" overflow="visible" stroke="none" style="text-indent:0;text-transform:none;direction:ltr;block-progression:tb;baseline-shift:baseline;color:#000000;enable-background:accumulate;" visibility="visible"/>
</svg>
