<?xml version="1.0" ?>
<svg xmlns="http://www.w3.org/2000/svg" xmlns:ev="http://www.w3.org/2001/xml-events" xmlns:graph="http://ns.adobe.com/Graphs/1.0/" xmlns:i="http://ns.adobe.com/AdobeIllustrator/10.0/" xmlns:x="http://ns.adobe.com/Extensibility/1.0/" xmlns:xlink="http://www.w3.org/1999/xlink" baseProfile="full" enable-background="new 0 0 100 100" height="600px" version="1.1" viewBox="0 0 100 100" width="177px" x="0px" xml:space="preserve" y="0px">
	<defs/>
	<path d="M 59.068,35.986 C 58.902,34.532 57.864999999999995,31.043 57.283,29.839 C 56.702,28.634 54.25,24.148 53.255,22.320999999999998 C 52.372,20.705 52.276,16.43 52.265,15.458999999999998 C 52.632,15.403999999999998 52.915,15.068999999999997 52.915,14.664999999999997 C 52.915,14.289999999999997 52.673,13.974999999999998 52.346,13.886999999999997 C 52.672999999999995,13.831999999999997 52.915,13.636999999999997 52.915,13.404999999999998 C 52.915,13.168999999999997 52.667,12.970999999999998 52.332,12.919999999999998 C 52.637,12.761999999999999 52.859,12.282999999999998 52.859,11.714999999999998 C 52.859,11.106999999999998 52.603,10.599999999999998 52.263000000000005,10.480999999999998 C 52.60300000000001,10.410999999999998 52.859,10.109999999999998 52.859,9.748999999999999 C 52.859,9.335 52.525,9.0 52.111,9.0 L 43.555,9.0 C 43.142,9.0 42.807,9.335 42.807,9.748 C 42.807,10.109 43.063,10.41 43.403,10.479999999999999 C 43.062999999999995,10.598999999999998 42.807,11.104999999999999 42.807,11.713999999999999 C 42.807,12.280999999999999 43.029,12.759999999999998 43.335,12.918999999999999 C 43.001,12.969999999999999 42.752,13.168 42.752,13.403999999999998 C 42.752,13.636999999999999 42.994,13.831999999999999 43.321000000000005,13.885999999999997 C 42.99400000000001,13.973999999999997 42.752,14.287999999999997 42.752,14.663999999999998 C 42.752,15.004999999999997 42.954,15.295999999999998 43.237,15.412999999999998 C 43.228,16.287999999999997 43.142,20.679 42.247,22.320999999999998 C 41.249,24.147999999999996 38.799,28.633999999999997 38.217,29.839 C 37.635,31.044 36.597,34.533 36.431,35.986 C 36.265,37.44 36.099,44.294 36.099,44.294 L 36.099,79.684 C 36.099,79.684 36.141,83.62899999999999 36.473,84.462 C 36.806,85.291 37.221,88.281 47.439,88.407 L 48.063,88.407 C 58.282000000000004,88.28099999999999 58.696,85.291 59.029,84.462 C 59.362,83.629 59.403000000000006,79.684 59.403000000000006,79.684 L 59.403000000000006,44.294 C 59.402,44.294 59.236,37.44 59.068,35.986"/>
</svg>
