<?xml version="1.0" ?>
<svg xmlns="http://www.w3.org/2000/svg" xmlns:ev="http://www.w3.org/2001/xml-events" xmlns:sketch="http://www.bohemiancoding.com/sketch/ns" xmlns:xlink="http://www.w3.org/1999/xlink" baseProfile="full" height="600px" version="1.1" viewBox="0 0 329 331" width="600px" x="0px" y="0px">
	<defs/>
	<path d="M 323.5,165.5 C 323.5,77.6867248 252.313275,6.5 164.5,6.5 C 76.6867248,6.5 5.5,77.6867248 5.5,165.5 C 5.5,253.313275 76.6867248,324.5 164.5,324.5 C 252.313275,324.5 323.5,253.313275 323.5,165.5 M 25.5,165.5 C 25.5,88.7324198 87.7324198,26.5 164.5,26.5 C 241.26758,26.5 303.5,88.7324198 303.5,165.5 C 303.5,242.26758 241.26758,304.5 164.5,304.5 C 87.7324198,304.5 25.5,242.26758 25.5,165.5" fill="#000000" sketch:type="MSShapeGroup"/>
	<path d="M 165.0,217.5 C 125.598534,217.5 89.5509486,195.846838 68.5803856,160.628091 L 68.5803861,171.371908 C 89.5509427,136.153165 125.598532,114.5 165.0,114.5 C 204.401469,114.5 240.449058,136.153166 261.41962,171.371918 L 261.419614,160.628091 C 240.449051,195.846838 204.401466,217.5 165.0,217.5 M 282.661819,166.000001 L 279.463184,160.628092 C 254.799624,119.207179 212.003026,93.5 165.0,93.5 C 117.996975,93.5 75.2003773,119.207178 50.5368162,160.628092 L 47.338181,166.000001 L 50.5368167,171.371909 C 75.2003842,212.792826 117.996978,238.5 165.0,238.5 C 212.003022,238.5 254.799616,212.792826 279.463183,171.371909 L 282.661819,166.000001" fill="#000000" sketch:type="MSShapeGroup"/>
	<path d="M 218.5,165.5 C 218.5,135.676624 194.323376,111.5 164.5,111.5 C 134.676624,111.5 110.5,135.676624 110.5,165.5 C 110.5,195.323376 134.676624,219.5 164.5,219.5 C 194.323376,219.5 218.5,195.323376 218.5,165.5 M 131.5,165.5 C 131.5,147.274603 146.274603,132.5 164.5,132.5 C 182.725397,132.5 197.5,147.274603 197.5,165.5 C 197.5,183.725397 182.725397,198.5 164.5,198.5 C 146.274603,198.5 131.5,183.725397 131.5,165.5" fill="#000000" sketch:type="MSShapeGroup"/>
	<path d="M 275.021479,68.9883208 L 282.4461,61.5636994 L 267.596858,46.7144573 L 260.172237,54.1390786 L 52.9852378,261.326083 L 45.5606168,268.750704 L 60.4098594,283.599947 L 67.8344805,276.175325 L 275.021479,68.9883208" fill="#000000" sketch:type="MSShapeGroup"/>
</svg>
