<?xml version="1.0" ?>
<svg xmlns="http://www.w3.org/2000/svg" xmlns:cc="http://creativecommons.org/ns#" xmlns:dc="http://purl.org/dc/elements/1.1/" xmlns:ev="http://www.w3.org/2001/xml-events" xmlns:inkscape="http://www.inkscape.org/namespaces/inkscape" xmlns:rdf="http://www.w3.org/1999/02/22-rdf-syntax-ns#" xmlns:sodipodi="http://sodipodi.sourceforge.net/DTD/sodipodi-0.dtd" xmlns:svg="http://www.w3.org/2000/svg" xmlns:xlink="http://www.w3.org/1999/xlink" baseProfile="full" height="563px" version="1.1" viewBox="0 0 100 100" width="600px" x="0px" y="0px">
	<defs/>
	<path d="M 35.433275,955.37573 C 34.634485000000005,955.37573 33.991845000000005,956.03553 33.991845000000005,956.8343199999999 C 33.991845000000005,957.63311 34.634485000000005,958.2757499999999 35.433275,958.2757499999999 C 36.232065,958.2757499999999 36.874705,957.6331099999999 36.874705,956.8343199999999 C 36.874705,956.0355299999999 36.232065,955.37573 35.433275,955.37573 M 33.906045,957.89823 L 33.185335,958.72191 L 33.597165000000004,959.08226 L 34.317885000000004,958.25859 L 33.906045000000006,957.89823 L 33.906045,957.89823 M 32.807815,959.13374 L 32.087105,959.95742 L 32.498935,960.31777 L 33.219655,959.4941 L 32.807815000000005,959.13374 L 32.807815,959.13374 M 31.726744999999998,960.36925 L 31.091824999999996,961.07281 C 30.932234999999995,961.01221 30.757894999999998,960.96985 30.577034999999995,960.96985 C 29.778244999999995,960.96985 29.135604999999995,961.61249 29.135604999999995,962.4112799999999 C 29.135604999999995,962.8192099999999 29.292944999999996,963.1950899999999 29.564604999999993,963.4580299999999 L 29.290044999999992,964.0586299999999 L 29.787674999999993,964.2988599999999 L 30.045074999999994,963.7669099999998 C 30.208804999999995,963.8312099999998 30.390484999999995,963.8698699999999 30.577034999999995,963.8698699999999 C 31.375824999999995,963.8698699999999 32.01846499999999,963.2100699999999 32.01846499999999,962.4112799999999 C 32.01846499999999,961.9953599999999 31.853364999999993,961.6283799999999 31.572304999999993,961.36453 L 32.13858499999999,960.72961 L 31.72674499999999,960.36925 L 31.726744999999998,960.36925 M 29.049805,964.55626 L 28.586485,965.55153 L 29.084125,965.7917699999999 L 29.547445,964.7964999999999 L 29.049805,964.55626 M 28.346255,966.04917 L 27.882935,967.04444 L 28.380575,967.26752 L 28.843885,966.28941 L 28.346255,966.04917 M 27.642695,967.54208 L 27.162215,968.5201900000001 L 27.659855,968.76043 L 28.140335,967.76516 L 27.642695,967.54208 M 26.613105,968.7089500000001 C 25.814315,968.7089500000001 25.154515,969.3687500000001 25.154515,970.16754 C 25.154515,970.9663300000001 25.814315,971.60897 26.613105,971.60897 C 26.772865,971.60897 26.915575,971.57097 27.059265,971.52317 L 27.162215,971.78057 L 27.677015,971.57465 L 27.556895,971.24861 C 27.859675,970.9834999999999 28.054535,970.6016 28.054535,970.16754 C 28.054535,969.36875 27.411895,968.7089500000001 26.613105,968.7089500000001 M 27.865775,972.0894400000001 L 27.350975,972.2953600000001 L 27.745655,973.3077900000001 L 28.260455,973.11904 L 27.865775,972.0894400000001 M 28.449205,973.6338300000001 L 27.934414999999998,973.8225900000001 L 28.329095,974.8521800000001 L 28.843885,974.6634200000001 L 28.449205,973.6338300000001 M 29.032645,975.1782200000001 L 28.517844999999998,975.3669800000001 L 28.912525,976.3965700000001 L 29.410165,976.2078100000001 L 29.032645,975.1782200000001 M 29.616084999999998,976.7226100000001 L 29.101284999999997,976.9113700000001 L 29.307204999999996,977.4776400000002 C 28.724054999999996,977.6641000000002 28.294774999999998,978.1882500000002 28.294774999999998,978.8332700000002 C 28.294774999999998,979.4723000000002 28.715294999999998,980.0147300000002 29.290045,980.2060600000002 L 29.049805,980.8238200000002 L 29.547445,981.0125700000002 L 29.839154999999998,980.2747000000002 C 30.588745,980.2207000000002 31.194785,979.5966200000001 31.194785,978.8332700000002 C 31.194785,978.0815100000002 30.606865,977.4791400000001 29.873475,977.4090000000002 L 29.616084999999998,976.7226100000003 L 29.616084999999998,976.7226100000001 M 28.843884999999997,981.3386100000001 L 28.449204999999996,982.3510400000001 L 28.964004999999997,982.5569600000001 L 29.358684999999998,981.5273700000001 L 28.843884999999997,981.3386100000001 M 28.243294999999996,982.8658400000002 L 27.848614999999995,983.8954300000001 L 28.363414999999996,984.0841900000001 L 28.758084999999998,983.0717600000002 L 28.243294999999996,982.8658400000002 M 27.659854999999997,984.4102300000002 L 27.265174999999996,985.4226600000002 L 27.779974999999997,985.6285800000002 L 28.174654999999998,984.5989900000002 L 27.659854999999997,984.4102300000002 M 27.059264999999996,985.9374600000002 L 26.664584999999995,986.9670500000002 L 27.179374999999997,987.1558100000002 L 27.574054999999998,986.1433700000002 L 27.059264999999996,985.9374600000002 M 26.475824999999997,987.4818400000003 L 26.081144999999996,988.4942800000002 L 26.578784999999996,988.7001900000002 L 26.990624999999998,987.6706000000003 L 26.475824999999997,987.4818400000003 M 25.875224999999997,989.0090700000003 L 25.480554999999995,990.0386600000003 L 25.995344999999997,990.2445800000003 L 26.390024999999998,989.2149900000003 L 25.875224999999997,989.0090700000003 M 25.274634999999996,990.5534600000003 L 24.879954999999995,991.5830500000003 L 25.394754999999996,991.7718100000003 L 25.789434999999997,990.7422200000003 L 25.274634999999996,990.5534600000003 M 24.691194999999997,992.0806900000003 L 24.296524999999995,993.1102800000003 L 24.811314999999997,993.3162000000003 L 25.205994999999998,992.2866100000003 L 24.691194999999997,992.0806900000003 M 24.090604999999996,993.6250800000004 L 23.695924999999995,994.6546700000004 L 24.210724999999996,994.8434300000004 L 24.605394999999998,993.8138300000004 L 24.090604999999996,993.6250800000004 M 23.507164999999997,995.1694600000004 L 23.472865,995.2552600000004 C 23.405365,995.2452600000004 23.337145,995.2380600000004 23.266955,995.2380600000004 C 22.468165,995.2380600000004 21.825525,995.8807000000004 21.825525,996.6794900000003 C 21.825525,997.4782800000004 22.468165,998.1380800000003 23.266955,998.1380800000003 C 24.065735,998.1380800000003 24.725535,997.4782800000003 24.725535,996.6794900000003 C 24.725535,996.1441500000003 24.419965,995.6940600000004 23.987665,995.4439800000004 L 24.021965,995.3581800000004 L 23.507165,995.1694200000004 L 23.507164999999997,995.1694600000004 M 22.305974999999997,998.2410800000005 L 21.911304999999995,999.2535100000005 L 22.426094999999997,999.4594300000005 L 22.820774999999998,998.4298400000005 L 22.305974999999997,998.2410800000005 M 21.722544999999997,999.7683100000005 L 21.327864999999996,1000.7979000000005 L 21.825504999999996,1000.9867000000005 L 22.220174999999998,999.9742300000005 L 21.722544999999997,999.7683100000005 M 21.121944999999997,1001.3127000000005 L 20.727264999999996,1002.3251000000005 L 21.242064999999997,1002.5310000000005 L 21.636744999999998,1001.5015000000005 L 21.121944999999997,1001.3127000000005 M 20.521354999999996,1002.8399000000005 L 20.126674999999995,1003.8695000000005 L 20.641474999999996,1004.0582000000005 L 21.036144999999998,1003.0458000000006 L 20.521354999999996,1002.8399000000005 M 19.697674999999997,1004.3156000000005 C 18.898884999999996,1004.3156000000005 18.239084999999996,1004.9583000000005 18.239084999999996,1005.7571000000005 C 18.239084999999996,1006.5559000000005 18.898884999999996,1007.1985000000005 19.697674999999997,1007.1985000000005 C 20.496464999999997,1007.1985000000005 21.139104999999997,1006.5559000000005 21.139104999999997,1005.7571000000005 C 21.139104999999997,1004.9583000000005 20.496464999999997,1004.3156000000005 19.697674999999997,1004.3156000000005 M 18.753884999999997,1007.4559000000005 L 18.359204999999996,1008.4855000000005 L 18.874004999999997,1008.6742000000005 L 19.268684999999998,1007.6447000000005 L 18.753884999999997,1007.4559000000005 M 18.170444999999997,1009.0003000000005 L 17.792934999999996,1010.0299000000005 L 18.290564999999997,1010.2186000000005 L 18.685245,1009.1890000000005 L 18.170444999999997,1009.0003000000005 M 17.587014999999997,1010.5447000000005 L 17.209494999999997,1011.5743000000004 L 17.724294999999998,1011.7630000000005 L 18.101815,1010.7334000000005 L 17.587014999999997,1010.5447000000005 M 17.003574999999998,1012.0891000000005 L 16.626064999999997,1013.1015000000004 L 17.140855,1013.3074000000005 L 17.518375,1012.2778000000005 L 17.003574999999998,1012.0891000000005 M 16.420144999999998,1013.6163000000005 L 16.042624999999997,1014.6459000000004 L 16.557425,1014.8518000000005 L 16.934935,1013.8222000000005 L 16.420144999999998,1013.6163000000005 M 15.853864999999997,1015.1607000000005 L 15.459194999999998,1016.1903000000004 L 15.973984999999997,1016.3790000000005 L 16.368664999999996,1015.3494000000005 L 15.853864999999997,1015.1607000000005 M 15.270434999999997,1016.7051000000005 L 14.875754999999998,1017.7347000000004 L 15.390554999999997,1017.9234000000005 L 15.785224999999997,1016.8938000000005 L 15.270434999999997,1016.7051000000005 M 14.686994999999998,1018.2495000000005 L 14.292314999999999,1019.2790000000005 L 14.807114999999998,1019.4678000000005 L 15.201794999999997,1018.4382000000005 L 14.686994999999998,1018.2495000000005 M 14.103564999999998,1019.7938000000005 L 13.708884999999999,1020.8063000000005 L 14.223684999999998,1021.0122000000006 L 14.618354999999998,1019.9826000000006 L 14.103564999999998,1019.7938000000006 L 14.103564999999998,1019.7938000000005 M 13.520124999999998,1021.3211000000005 L 13.125445,1022.3507000000004 L 13.640244999999998,1022.5566000000005 L 14.034924999999998,1021.5270000000005 L 13.520124999999998,1021.3211000000005 M 12.936694999999999,1022.8655000000005 L 12.559174999999998,1023.8950000000004 L 13.056804999999997,1024.0838000000003 L 13.451484999999996,1023.0714000000004 L 12.936694999999997,1022.8655000000003 L 12.936694999999999,1022.8655000000005 M 12.353254999999999,1024.4098000000004 L 12.010055,1025.3536000000004 C 11.879434999999999,1025.3146000000004 11.741415,1025.3016000000005 11.598225,1025.3016000000005 C 10.799434999999999,1025.3016000000005 10.156794999999999,1025.9443000000006 10.156794999999999,1026.7431000000004 C 10.156794999999999,1027.2700000000004 10.439305,1027.7257000000004 10.860344999999999,1027.9786000000004 L 10.654424999999998,1028.4247000000003 L 11.152064999999999,1028.6650000000002 L 11.392304999999999,1028.1673000000003 C 11.459805,1028.1773000000003 11.528024999999998,1028.1843000000003 11.598225,1028.1843000000003 C 12.397005,1028.1843000000003 13.056804999999999,1027.5417000000004 13.056804999999999,1026.7429000000004 C 13.056804999999999,1026.2826000000005 12.825574999999999,1025.8752000000004 12.490535,1025.6104000000005 L 12.868055,1024.5979000000004 L 12.353255,1024.4092000000005 L 12.353254999999999,1024.4098000000004 M 35.484755,1026.5205000000003 C 34.466205,1026.5205000000003 33.626055,1027.2767000000003 33.477055,1028.2537000000002 L 32.722015,1028.2877000000003 L 32.756315,1028.8368000000003 L 33.477035,1028.8028000000002 C 33.601545,1029.8071000000002 34.446655,1030.5874000000001 35.484735,1030.5874000000001 C 36.608455,1030.5874000000001 37.509595,1029.6862 37.509595,1028.5625000000002 C 37.509595,1027.4388000000001 36.608455,1026.5205000000003 35.484735,1026.5205000000003 L 35.484755,1026.5205000000003 M 27.779975,1026.7093000000002 C 26.710415,1026.7093000000002 25.840915,1027.5788000000002 25.840915,1028.6483000000003 C 25.840915,1029.7179000000003 26.710414999999998,1030.5874000000003 27.779975,1030.5874000000003 C 28.727385,1030.5874000000003 29.516965,1029.9074000000003 29.684725,1029.0087000000003 L 30.559875,1028.9567000000004 L 30.525575000000003,1028.4076000000005 L 29.701905000000004,1028.4596000000004 C 29.602705000000004,1027.4830000000004 28.782705000000004,1026.7093000000004 27.779995000000003,1026.7093000000004 L 27.779975,1026.7093000000002 M 41.851065,1027.4471000000003 C 40.959145,1027.4471000000003 40.214124999999996,1028.0447000000004 39.963485,1028.8542000000002 L 39.311405,1028.7513000000001 L 39.242805000000004,1029.3004 L 39.860565,1029.3864 C 39.860105000000004,1029.4034000000001 39.860565,1029.4204000000002 39.860565,1029.4384 C 39.860565,1030.535 40.754465,1031.4289 41.851105000000004,1031.4289 C 42.947745000000005,1031.4289 43.841655,1030.535 43.841655,1029.4384 C 43.841655,1028.3418 42.947745000000005,1027.4479 41.851105000000004,1027.4479 L 41.851065,1027.4471000000003 M 32.172905,1028.3223000000003 L 31.074665,1028.3743000000002 L 31.108964999999998,1028.9234000000001 L 32.207204999999995,1028.8724000000002 L 32.17290499999999,1028.3233000000002 L 32.172905,1028.3223000000003 M 37.681215,1028.5282000000002 L 37.612615000000005,1029.0602000000001 L 38.693695000000005,1029.2146 L 38.779495000000004,1028.6826 L 37.681265,1028.5282000000002 L 37.681215,1028.5282000000002 M 10.414185000000003,1028.9229000000003 L 9.950874500000003,1029.9182000000003 L 10.448505000000003,1030.1584000000003 L 10.911825000000002,1029.1631000000002 L 10.414185000000002,1028.9229000000003 L 10.414185000000003,1028.9229000000003 M 44.201965,1029.3176000000003 L 44.167665,1029.8495000000003 L 45.265895,1029.9355000000003 L 45.300195,1029.3864000000003 L 44.201965,1029.3174000000004 L 44.201965,1029.3176000000003 M 45.849315000000004,1029.4377000000004 L 45.815015,1029.9696000000004 L 46.896085,1030.0556000000004 L 46.947585,1029.5065000000004 L 45.849354999999996,1029.4375000000005 L 45.849315000000004,1029.4377000000004 M 47.49666500000001,1029.5578000000005 L 47.44516500000001,1030.1069000000005 L 48.54339500000001,1030.1759000000004 L 48.57769500000001,1029.6268000000005 L 47.496625000000016,1029.5578000000005 L 47.49666500000001,1029.5578000000005 M 49.12684500000001,1029.6779000000006 L 49.09254500000001,1030.2270000000005 L 50.190785000000005,1030.2960000000005 L 50.22508500000001,1029.7469000000006 L 49.12684500000001,1029.6779000000006 M 50.77419500000001,1029.7980000000007 L 50.73989500000001,1030.3472000000006 L 51.83812500000001,1030.4162000000006 L 51.872425000000014,1029.8670000000006 L 50.77419500000001,1029.7980000000007 M 68.08850500000001,1029.7980000000007 C 67.38956500000002,1029.7980000000007 66.79909500000001,1030.3058000000008 66.66423500000002,1030.9649000000006 L 65.56600500000002,1030.8789000000006 L 65.51450500000001,1031.4280000000006 L 66.61273500000001,1031.5140000000006 L 66.62993500000002,1031.2909000000006 C 66.64833500000002,1032.0737000000006 67.30132500000002,1032.6981000000007 68.08852500000002,1032.6981000000007 C 68.53991500000002,1032.6981000000007 68.93867500000002,1032.4901000000007 69.20391500000002,1032.1661000000008 L 69.52995500000003,1032.3892000000008 L 69.83882500000003,1031.9259000000009 L 69.46131500000003,1031.668500000001 C 69.50011500000002,1031.537800000001 69.52991500000003,1031.3998000000008 69.52991500000003,1031.2566000000008 C 69.52991500000003,1030.4578000000008 68.88727500000003,1029.798000000001 68.08848500000003,1029.798000000001 L 68.08850500000001,1029.7980000000007 M 52.42154500000001,1029.9182000000008 L 52.38724500000001,1030.4673000000007 L 53.468315000000004,1030.5363000000007 L 53.519815,1029.9872000000007 L 52.421585,1029.9182000000008 L 52.42154500000001,1029.9182000000008 M 54.06889500000001,1030.0383000000008 L 54.017395000000015,1030.5874000000008 L 55.115625000000016,1030.6564000000008 L 55.14992500000002,1030.1073000000008 L 54.06885500000002,1030.0383000000008 L 54.06889500000001,1030.0383000000008 M 25.99534500000001,1030.158400000001 L 25.17167500000001,1030.879100000001 L 25.53203500000001,1031.290900000001 L 26.35570500000001,1030.570200000001 L 25.99534500000001,1030.158400000001 M 55.69907500000001,1030.158400000001 L 55.664775000000006,1030.707500000001 L 56.763015,1030.7765000000009 L 56.797315000000005,1030.227400000001 L 55.699085000000004,1030.158400000001 L 55.69907500000001,1030.158400000001 M 57.34642500000001,1030.278500000001 L 57.31212500000001,1030.827600000001 L 58.41035500000001,1030.896600000001 L 58.44465500000001,1030.364700000001 L 57.34642500000001,1030.278700000001 L 57.34642500000001,1030.278500000001 M 58.993775000000014,1030.3986000000011 L 58.942275000000016,1030.947800000001 L 60.04050500000002,1031.016800000001 L 60.092005000000015,1030.484800000001 L 58.993775000000014,1030.398800000001 L 58.993775000000014,1030.3986000000011 M 9.710634500000012,1030.4156000000012 L 9.247314500000012,1031.4109000000012 L 9.744954500000013,1031.6511000000012 L 10.208275000000013,1030.655900000001 L 9.710634500000014,1030.4156000000012 L 9.710634500000012,1030.4156000000012 M 60.64112500000001,1030.5186000000012 L 60.58962500000001,1031.0677000000012 L 61.68785500000001,1031.1537000000012 L 61.722155000000015,1030.6046000000013 L 60.64108500000002,1030.5186000000012 L 60.64112500000001,1030.5186000000012 M 62.27130500000001,1030.6387000000013 L 62.23700500000001,1031.1878000000013 L 63.33523500000001,1031.2738000000013 L 63.36953500000001,1030.7247000000013 L 62.27130500000001,1030.6387000000013 M 63.918655000000015,1030.7588000000014 L 63.88435500000001,1031.3079000000014 L 64.98258500000001,1031.3939000000014 L 65.01688500000002,1030.8448000000014 L 63.918655000000015,1030.7588000000014 M 24.742675000000013,1031.2393000000013 L 23.919005000000013,1031.9429000000014 L 24.279365000000013,1032.3719000000015 L 25.103035000000013,1031.6511000000014 L 24.742675000000013,1031.2393000000013 M 9.024244500000012,1031.9085000000014 L 8.560924500000013,1032.9038000000014 L 9.058564500000013,1033.1441000000013 L 9.521874500000013,1032.1488000000013 L 9.024244500000012,1031.9085000000014 M 85.780325,1031.9085000000014 C 84.98153500000001,1031.9085000000014 84.33889500000001,1032.5683000000013 84.33889500000001,1033.3671000000013 C 84.33889500000001,1033.6062000000013 84.390595,1033.8205000000014 84.493335,1034.0192000000013 L 84.287415,1034.1052000000013 L 84.51049499999999,1034.6028000000013 L 84.85369499999999,1034.4484000000014 C 85.10638499999999,1034.6644000000013 85.421855,1034.8088000000014 85.78032499999999,1034.8088000000014 C 85.83892499999999,1034.8088000000014 85.895135,1034.7988000000014 85.95192499999999,1034.7918000000013 L 86.02052499999999,1034.9462000000012 L 86.518155,1034.7403000000013 L 86.46665499999999,1034.6202000000012 C 86.917515,1034.3752000000013 87.22169499999998,1033.9167000000011 87.22169499999998,1033.3675000000012 C 87.22169499999998,1032.5687000000012 86.57905499999998,1031.9089000000013 85.78026499999999,1031.9089000000013 L 85.780325,1031.9085000000014 M 70.284965,1032.2346000000014 L 69.976085,1032.6979000000013 L 70.885565,1033.3157000000012 L 71.194435,1032.8695000000012 L 70.284965,1032.2346000000011 L 70.284965,1032.2346000000014 M 23.507165,1032.3036000000013 L 22.666335,1033.0243000000014 L 23.026695,1033.4361000000015 L 23.867525,1032.7326000000014 L 23.507165,1032.3036000000013 M 71.64059499999999,1033.1787000000013 L 71.33171499999999,1033.6249000000014 L 72.24119499999999,1034.2598000000014 L 72.55006499999999,1033.7965000000015 L 71.64059499999999,1033.1787000000015 L 71.64059499999999,1033.1787000000013 M 20.57283499999999,1033.2817000000014 C 19.63865499999999,1033.2817000000014 18.89116499999999,1034.0463000000013 18.89116499999999,1034.9805000000013 C 18.89116499999999,1035.2548000000013 18.946864999999992,1035.5065000000013 19.06276499999999,1035.7356000000013 L 18.753884999999993,1035.9072000000012 L 19.028444999999994,1036.3876000000012 L 19.371644999999994,1036.1817000000012 C 19.677734999999995,1036.4878000000012 20.105744999999995,1036.6622000000011 20.572834999999994,1036.6622000000011 C 21.507004999999992,1036.6622000000011 22.271654999999996,1035.9147000000012 22.271654999999996,1034.980500000001 C 22.271654999999996,1034.719800000001 22.205354999999997,1034.480300000001 22.100054999999994,1034.259800000001 L 22.614854999999995,1033.796500000001 L 22.254494999999995,1033.384700000001 L 21.791184999999995,1033.796500000001 C 21.483864999999994,1033.480500000001 21.048464999999997,1033.2817000000011 20.572834999999994,1033.2817000000011 L 20.57283499999999,1033.2817000000014 M 8.32068449999999,1033.4018000000015 L 7.857364499999989,1034.3971000000015 L 8.355004499999989,1034.6373000000015 L 8.818324499999989,1033.6421000000014 L 8.320684499999988,1033.4018000000015 L 8.32068449999999,1033.4018000000015 M 73.01338499999999,1034.1054000000015 L 72.68734499999998,1034.5687000000014 L 73.59681499999998,1035.1864000000014 L 73.90569499999998,1034.7403000000015 L 73.01338499999999,1034.1054000000015 M 83.78978499999998,1034.3113000000014 L 82.77734499999998,1034.7574000000013 L 83.00042499999998,1035.2722000000012 L 84.01285499999997,1034.8261000000014 L 83.78978499999997,1034.3113000000014 L 83.78978499999998,1034.3113000000014 M 7.6171344999999775,1034.8947000000014 L 7.153814499999977,1035.8900000000015 L 7.651454499999977,1036.1302000000014 L 8.114764499999977,1035.1350000000014 L 7.617134499999977,1034.8947000000014 L 7.6171344999999775,1034.8947000000014 M 82.27971499999998,1034.9807000000014 L 81.28444499999998,1035.4269000000015 L 81.50751499999998,1035.9245000000014 L 82.50279499999998,1035.4955000000014 L 82.27971499999998,1034.9807000000014 M 74.36901499999998,1035.0497000000014 L 74.04297499999997,1035.4959000000015 L 74.95244499999997,1036.1136000000015 L 75.26132499999997,1035.6675000000016 L 74.36901499999998,1035.0497000000016 L 74.36901499999998,1035.0497000000014 M 86.72411499999998,1035.2556000000013 L 86.22648499999998,1035.4616000000012 L 86.63831499999998,1036.4740000000013 L 87.15311499999997,1036.2681000000014 L 86.72411499999997,1035.2556000000013 L 86.72411499999998,1035.2556000000013 M 80.76964499999998,1035.6503000000014 L 79.77437499999998,1036.0965000000015 L 79.99745499999997,1036.5941000000014 L 80.99272499999998,1036.1480000000015 L 80.76964499999998,1035.6503000000016 L 80.76964499999998,1035.6503000000014 M 77.40631499999998,1035.8391000000013 C 76.95699499999998,1035.8391000000013 76.55619499999997,1036.0496000000012 76.29091499999998,1036.3710000000012 L 75.72464499999998,1035.9764000000011 L 75.39860499999998,1036.439700000001 L 76.01636499999998,1036.8687000000011 C 75.97756499999998,1036.999300000001 75.94776499999998,1037.1373000000012 75.94776499999998,1037.2805000000012 C 75.94776499999998,1038.0793000000012 76.60756499999998,1038.7219000000011 77.40635499999998,1038.7219000000011 C 78.20513499999997,1038.7219000000011 78.84777499999997,1038.0793000000012 78.84777499999997,1037.2805000000012 C 78.84777499999997,1037.2215000000012 78.83737499999997,1037.1657000000012 78.83057499999997,1037.1089000000013 L 79.49981499999997,1036.8172000000013 L 79.27673499999997,1036.3196000000014 L 78.65898499999997,1036.5941000000014 C 78.41405499999998,1036.1433000000013 77.95547499999998,1035.8391000000013 77.40631499999998,1035.8391000000013 M 18.273404999999975,1036.1823000000013 L 17.329614999999976,1036.7314000000013 L 17.604174999999977,1037.2119000000012 L 18.547964999999976,1036.6627000000012 L 18.273404999999975,1036.1823000000013 M 6.913574499999976,1036.3882000000012 L 6.450264499999976,1037.3835000000013 L 6.947894499999976,1037.6237000000012 L 7.411214499999977,1036.6284000000012 L 6.913574499999977,1036.3882000000012 L 6.913574499999976,1036.3882000000012 M 87.35903499999998,1036.7829000000013 L 86.84423499999998,1036.9888000000012 L 87.27323499999999,1038.0012000000013 L 87.77086499999999,1037.7953000000014 L 87.35903499999999,1036.7829000000013 L 87.35903499999998,1036.7829000000013 M 16.849134999999976,1037.0059000000012 L 15.888184999999975,1037.5551000000012 L 16.162744999999976,1038.035500000001 L 17.123694999999977,1037.4864000000011 L 16.849134999999976,1037.0059000000012 M 15.424874999999975,1037.8296000000012 L 14.463914999999975,1038.3787000000011 L 14.738474999999974,1038.859200000001 L 15.699424999999975,1038.310100000001 L 15.424874999999975,1037.8296000000012 M 6.227184499999975,1037.880600000001 L 5.763864499999975,1038.8759000000011 L 6.261504499999974,1039.099000000001 L 6.724814499999974,1038.120900000001 L 6.227184499999974,1037.880600000001 L 6.227184499999975,1037.880600000001 M 87.97678499999998,1038.2925000000012 L 87.47915499999998,1038.515500000001 L 87.89098499999997,1039.5280000000012 L 88.40578499999997,1039.3220000000013 L 87.97678499999996,1038.2925000000012 L 87.97678499999998,1038.2925000000012 M 14.000604999999979,1038.6528000000012 L 13.039644999999979,1039.2019000000012 L 13.314204999999978,1039.682400000001 L 14.275154999999979,1039.133300000001 L 14.000604999999979,1038.6528000000012 M 5.523624499999979,1039.3735000000013 L 5.060314499999979,1040.3688000000013 L 5.557944499999979,1040.5919000000013 L 6.02126449999998,1039.5966000000012 L 5.52362449999998,1039.3735000000013 L 5.523624499999979,1039.3735000000013 M 12.576334999999979,1039.4765000000014 L 11.615384999999979,1040.0256000000013 L 11.889934999999978,1040.5061000000012 L 12.850894999999978,1039.9570000000012 L 12.576334999999979,1039.4765000000014 M 88.61170499999997,1039.8197000000014 L 88.09690499999998,1040.0256000000013 L 88.50874499999998,1041.0552000000014 L 89.02354499999997,1040.8321000000014 L 88.61170499999997,1039.8197000000014 M 11.134904999999975,1040.3002000000013 L 10.191114999999975,1040.8493000000012 L 10.465664999999975,1041.3298000000011 L 11.409464999999974,1040.7806000000012 L 11.134904999999975,1040.3002000000013 M 4.820074499999975,1040.8664000000012 L 4.356754499999974,1041.8617000000013 L 4.854394499999974,1042.0848000000012 L 5.317704499999974,1041.0895000000012 L 4.820074499999974,1040.8664000000012 L 4.820074499999975,1040.8664000000012 M 9.710634499999975,1041.1238000000012 L 8.766844499999975,1041.6729000000012 L 9.041404499999974,1042.153400000001 L 9.985194499999974,1041.604300000001 L 9.710634499999975,1041.1238000000012 M 89.22945499999997,1041.3469000000011 L 88.73182499999997,1041.552800000001 L 89.14365499999997,1042.5653000000011 L 89.65845499999996,1042.3593000000012 L 89.22945499999996,1041.3469000000011 L 89.22945499999997,1041.3469000000011 M 8.286364499999976,1041.9475000000011 L 7.3425744999999765,1042.496600000001 L 7.617134499999977,1042.977100000001 L 8.560924499999977,1042.428000000001 L 8.286364499999978,1041.9475000000011 L 8.286364499999976,1041.9475000000011 M 97.26027499999998,1041.9645000000012 C 96.46148499999998,1041.9645000000012 95.80168499999998,1042.607100000001 95.80168499999998,1043.405900000001 C 95.80168499999998,1043.556600000001 95.84478499999997,1043.6984000000011 95.88748499999998,1043.8349000000012 L 94.97801499999998,1043.9379000000013 L 95.02951499999999,1044.4698000000012 L 96.12774499999999,1044.3669000000011 L 96.11054499999999,1044.280900000001 C 96.37482499999999,1044.6267000000012 96.79145499999998,1044.864300000001 97.26025499999999,1044.864300000001 C 98.05904499999998,1044.864300000001 98.70168499999998,1044.2045000000012 98.70168499999998,1043.4057000000012 C 98.70168499999998,1042.6069000000011 98.05904499999998,1041.9643000000012 97.26025499999999,1041.9643000000012 L 97.26027499999998,1041.9645000000012 M 4.11651449999998,1042.3592000000012 L 3.6532044999999798,1043.3545000000013 L 4.15083449999998,1043.5775000000012 L 4.61415449999998,1042.5823000000012 L 4.1165144999999805,1042.3592000000012 L 4.11651449999998,1042.3592000000012 M 6.86209449999998,1042.7710000000013 L 5.91830449999998,1043.3201000000013 L 6.19286449999998,1043.8006000000012 L 7.13665449999998,1043.2515000000012 L 6.86209449999998,1042.7710000000013 M 89.86437499999998,1042.8740000000014 L 89.34957499999999,1043.0799000000013 L 89.48685499999999,1043.4059000000013 C 89.244885,1043.6645000000012 89.092175,1044.0020000000013 89.092175,1044.3840000000014 C 89.092175,1045.1828000000014 89.734825,1045.8426000000013 90.533605,1045.8426000000013 C 91.183505,1045.8426000000013 91.74119499999999,1045.4030000000014 91.923555,1044.8130000000012 L 92.850195,1044.7101000000011 L 92.798695,1044.1610000000012 L 91.975015,1044.2470000000012 C 91.904915,1043.5136000000011 91.28534499999999,1042.9428000000012 90.533585,1042.9428000000012 C 90.325445,1042.9428000000012 90.128975,1043.0008000000012 89.950155,1043.0801000000013 L 89.86435499999999,1042.8742000000013 L 89.86437499999998,1042.8740000000014 M 2.7094044999999767,1043.2858000000015 C 1.5992244999999767,1043.2858000000015 0.7017045499999766,1044.1833000000015 0.7017045499999766,1045.2935000000016 C 0.7017045499999766,1046.4037000000017 1.5992244999999765,1047.3012000000017 2.7094044999999767,1047.3012000000017 C 3.8195844999999764,1047.3012000000017 4.717114499999976,1046.4037000000017 4.717114499999976,1045.2935000000016 C 4.717114499999976,1044.1833000000015 3.819584499999976,1043.2858000000015 2.7094044999999762,1043.2858000000015 L 2.7094044999999767,1043.2858000000015 M 5.4378244999999765,1043.5947000000015 L 4.476874499999976,1044.1438000000014 L 4.751434499999976,1044.6243000000013 L 5.712384499999976,1044.0752000000014 L 5.437824499999976,1043.5947000000015 L 5.4378244999999765,1043.5947000000015 M 94.42889499999998,1043.9894000000015 L 93.33066499999998,1044.1095000000016 L 93.39926499999999,1044.6586000000016 L 94.48033499999998,1044.5385000000015 L 94.42883499999998,1043.9894000000015 L 94.42889499999998,1043.9894000000015" display="inline" fill="#000000" fill-opacity="1" marker="none" overflow="visible" stroke="none" style="text-indent:0;text-transform:none;direction:ltr;block-progression:tb;baseline-shift:baseline;color:#000000;enable-background:accumulate;" visibility="visible"/>
</svg>
