<?xml version="1.0" ?>
<svg xmlns="http://www.w3.org/2000/svg" xmlns:cc="http://creativecommons.org/ns#" xmlns:dc="http://purl.org/dc/elements/1.1/" xmlns:ev="http://www.w3.org/2001/xml-events" xmlns:inkscape="http://www.inkscape.org/namespaces/inkscape" xmlns:rdf="http://www.w3.org/1999/02/22-rdf-syntax-ns#" xmlns:sodipodi="http://sodipodi.sourceforge.net/DTD/sodipodi-0.dtd" xmlns:svg="http://www.w3.org/2000/svg" xmlns:xlink="http://www.w3.org/1999/xlink" baseProfile="full" height="600px" version="1.1" viewBox="0 0 100 100" width="206px" x="0px" y="0px">
	<defs/>
	<path d="M 61.904612,953.35001 C 60.969338,953.35001 60.219898,954.09944 60.219898,955.03471 C 60.219898,955.92781 60.905628,956.65522 61.782329,956.71942 L 61.782329,956.76022 L 62.217098,956.78742 L 62.217098,956.70592 C 63.007684,956.56301 63.602897,955.86657 63.602897,955.03479 C 63.602897,954.0995200000001 62.839883,953.35009 61.904612,953.35009 L 61.904612,953.35001 M 41.742501000000004,955.51024 C 40.951244,955.51024 40.315935,956.15913 40.315935,956.95039 C 40.315935,957.7416499999999 40.951244,958.37695 41.742501000000004,958.37695 C 42.533759,958.37695 43.18265100000001,957.7416499999999 43.18265100000001,956.95039 C 43.18265100000001,956.15913 42.533759,955.51024 41.742501000000004,955.51024 M 61.755155,957.19494 L 61.700845,958.06447 L 62.135603,958.09167 L 62.189903,957.22213 L 61.755135,957.19493 L 61.755155,957.19494 M 61.687195,958.4992199999999 L 61.632895000000005,959.36875 L 62.067651000000005,959.39595 L 62.121971,958.5264199999999 L 61.687202,958.4992199999999 L 61.687195,958.4992199999999 M 42.408204,958.5128199999999 L 41.973445,958.5808199999999 L 42.1093,959.4367499999998 L 42.544067,959.3687499999999 L 42.408204,958.5128199999999 M 42.611999999999995,959.80351 L 42.177232,959.87151 L 42.313095999999994,960.72746 L 42.74786399999999,960.65946 L 42.611999999999995,959.80351 M 61.60567999999999,959.80351 L 61.564919999999994,960.6730299999999 L 61.99967999999999,960.7002299999999 L 62.04043999999999,959.83071 L 61.60567999999999,959.80351 M 42.81579699999999,961.09421 L 42.381027999999986,961.14851 L 42.51689299999999,962.01804 L 42.93806799999999,961.9500400000001 L 42.81579699999999,961.0941 L 42.81579699999999,961.09421 M 61.53774899999999,961.10781 L 61.49698899999999,961.97732 L 61.931746999999994,962.00452 L 61.97250699999999,961.1349899999999 L 61.537738999999995,961.1077899999999 L 61.53774899999999,961.10781 M 43.006001999999995,962.37133 L 42.58482599999999,962.4393299999999 L 42.72068999999999,963.3088499999999 L 43.14186399999999,963.2408499999999 L 43.006001999999995,962.37133 M 61.469815,962.4121299999999 L 61.429055,963.28166 L 61.863811,963.29526 L 61.904571,962.4257299999999 L 61.469801,962.4121299999999 L 61.469815,962.4121299999999 M 43.20979799999999,963.66207 L 42.788622999999994,963.73007 L 42.910895,964.58602 L 43.345661,964.51802 L 43.20979799999999,963.66207 M 61.401883999999995,963.71637 L 61.347584,964.5859 L 61.782342,964.5995 L 61.836652,963.7299800000001 L 61.401883,963.7163800000001 L 61.401883999999995,963.71637 M 43.413594999999994,964.95272 L 42.97882599999999,965.02072 L 43.11469099999999,965.87666 L 43.549459999999996,965.80866 L 43.413594999999994,964.95272 M 61.333951,965.00702 L 61.279631,965.87654 L 61.71439,965.90374 L 61.76869,965.03422 L 61.333922,965.00702 L 61.333951,965.00702 M 43.617380999999995,966.24337 L 43.18262299999999,966.31137 L 43.318487999999995,967.16731 L 43.753246,967.0993100000001 L 43.617380999999995,966.24337 M 61.26601699999999,966.31137 L 61.21172699999999,967.18089 L 61.64648599999999,967.20809 L 61.68724599999999,966.3385599999999 L 61.26606899999999,966.3113599999999 L 61.26601699999999,966.31137 M 43.82117799999999,967.53414 L 43.38641999999999,967.60214 L 43.52228499999999,968.45809 L 43.94345899999999,968.39009 L 43.82117799999999,967.53414 M 61.18450499999999,967.61564 L 61.14374499999999,968.48517 L 61.578501999999986,968.51237 L 61.619261999999985,967.64284 L 61.18450499999999,967.61564 M 44.01139199999999,968.82483 L 43.590215999999984,968.89283 L 43.726080999999986,969.74876 L 44.14725699999999,969.68076 L 44.01139199999999,968.82483 M 61.11657199999999,968.91993 L 61.07581199999999,969.78945 L 61.51057099999999,969.81665 L 61.55133099999999,968.94713 L 61.11656199999999,968.91993 L 61.11657199999999,968.91993 M 44.215188999999995,970.1155200000001 L 43.79401299999999,970.16962 L 43.916284999999995,971.0391500000001 L 44.351043,970.9711500000001 L 44.215188999999995,970.1152000000001 L 44.215188999999995,970.1155200000001 M 61.04863999999999,970.2242100000001 L 60.99432999999999,971.0937400000001 L 61.42908899999999,971.1209400000001 L 61.48338899999999,970.2514100000001 L 61.048619999999985,970.2242100000001 L 61.04863999999999,970.2242100000001 M 44.418975999999994,971.39263 L 43.98421799999999,971.46063 L 44.12008199999999,972.3301600000001 L 44.55483999999999,972.2621600000001 L 44.418975999999994,971.39263 M 60.980706999999995,971.52849 L 60.926407,972.3980200000001 L 61.361165,972.4116200000001 L 61.415485,971.5421100000001 L 60.980715999999994,971.5285100000001 L 60.980706999999995,971.52849 M 44.622772999999995,972.6833300000001 L 44.18801499999999,972.75133 L 44.32387799999999,973.6072700000001 L 44.758635999999996,973.5392700000001 L 44.622772999999995,972.6833300000001 M 60.912774999999996,972.8327800000001 L 60.858475,973.7023100000001 L 61.293233,973.7158100000001 L 61.347543,972.8462800000001 L 60.912775,972.8326800000001 L 60.912774999999996,972.8327800000001 M 44.82656899999999,973.9740400000001 L 44.39181099999999,974.04204 L 44.52766599999999,974.89797 L 44.94885199999999,974.82997 L 44.82656899999999,973.9740400000001 M 60.83126099999999,974.1234900000001 L 60.79050099999999,974.99301 L 61.22525799999999,975.02021 L 61.26601799999999,974.15068 L 60.83126099999999,974.1234900000001 M 45.016772999999986,975.2647400000001 L 44.595596999999984,975.3327400000001 L 44.73146099999998,976.18867 L 45.15263799999998,976.12067 L 45.016772999999986,975.2647400000001 M 60.76332799999999,975.4277700000001 L 60.72256799999999,976.2973000000002 L 61.15732599999999,976.3245000000002 L 61.19808599999999,975.4549700000001 L 60.76332799999999,975.4277700000001 M 45.22056999999999,976.5554400000001 L 44.799393999999985,976.6234400000001 L 44.92167699999999,977.4793800000001 L 45.35643499999999,977.4113800000001 L 45.22056999999999,976.5554400000001 M 60.69539599999999,976.73206 L 60.65463599999999,977.60158 L 61.08939499999999,977.62878 L 61.13015499999999,976.75927 L 60.69539599999999,976.73206 M 45.42436699999999,977.84614 L 44.98960799999999,977.91414 L 45.12547299999999,978.77009 L 45.560230999999995,978.70209 L 45.42436699999999,977.84614 M 60.62746399999999,978.03635 L 60.57314399999999,978.9058699999999 L 61.00790299999999,978.9330699999999 L 61.06220299999999,978.0635399999999 L 60.62743599999999,978.0363399999999 L 60.62746399999999,978.03635 M 45.62816199999999,979.12325 L 45.19339499999999,979.19125 L 45.32925799999999,980.0607699999999 L 45.76402799999999,979.99277 L 45.62816199999999,979.12325 M 60.55953199999999,979.34063 L 60.50522199999999,980.2101600000001 L 60.93997999999999,980.2373600000001 L 60.99427999999999,979.3678400000001 L 60.55951199999999,979.3406400000001 L 60.55953199999999,979.34063 M 45.83195899999999,980.4139600000001 L 45.39719099999999,980.4819600000001 L 45.53305499999999,981.33789 L 45.96782499999999,981.28359 L 45.83195899999999,980.41407 L 45.83195899999999,980.4139600000001 M 60.47801599999999,980.6449200000001 L 60.43725599999999,981.51444 L 60.87201299999999,981.52804 L 60.91277299999999,980.67209 L 60.47801399999999,980.64489 L 60.47801599999999,980.6449200000001 M 46.02216499999999,981.7046600000001 L 45.600988999999984,981.7726600000001 L 45.736851999999985,982.62859 L 46.15802799999999,982.56059 L 46.02216499999999,981.7046600000001 M 60.41008499999999,981.9492100000001 L 60.36932499999999,982.8187400000002 L 60.80408599999999,982.8323400000002 L 60.84484599999999,981.9628100000001 L 60.41008499999999,981.9492100000001 M 46.225959999999986,982.9953600000001 L 45.804785999999986,983.0633600000001 L 45.940648999999986,983.9193100000001 L 46.36182499999999,983.8513100000001 L 46.225959999999986,982.9953600000001 M 60.355735999999986,983.1855600000001 C 59.625118999999984,983.1855600000001 59.03786799999999,983.7728200000001 59.03786799999999,984.5034400000001 C 59.03786799999999,985.0446400000001 59.36041799999999,985.50773 59.82586899999999,985.71262 L 59.52697599999999,986.52779 L 59.93455899999999,986.67725 L 60.23346399999999,985.8620699999999 L 60.09759899999999,985.8077699999999 C 60.18373899999999,985.8254699999999 60.26440799999999,985.8349699999999 60.355735999999986,985.8349699999999 C 61.08636199999999,985.8349699999999 61.68719499999999,985.2341199999998 61.68719499999999,984.5034999999999 C 61.68719499999999,983.7728799999999 61.08636199999999,983.18562 60.355735999999986,983.18562 L 60.355735999999986,983.1855600000001 M 46.42975699999999,984.2860500000002 L 45.99498899999999,984.3540500000001 L 46.13085299999999,985.2100000000002 L 46.56562299999999,985.1420000000002 L 46.42975699999999,984.2860500000002 M 46.63355399999999,985.5767500000002 L 46.19878599999999,985.6447500000002 L 46.33464999999999,986.5006900000002 L 46.76940899999999,986.4326900000002 L 46.63355399999999,985.5767500000002 M 46.83734099999999,986.8674600000002 L 46.402582999999986,986.9354600000001 L 46.53844799999999,987.7913900000001 L 46.97320599999999,987.7233900000001 L 46.83734099999999,986.8674600000002 M 59.37751799999999,986.9354600000001 L 59.065043999999986,987.7506400000002 L 59.47262399999999,987.9001000000002 L 59.78511199999999,987.0849100000001 L 59.37751799999999,986.9354600000001 M 47.02755399999999,988.1446500000002 L 46.60637899999999,988.2126500000002 L 46.74224399999999,989.0821600000002 L 47.163419999999995,989.0141600000002 L 47.02755399999999,988.1446500000002 M 58.91558599999999,988.1582500000002 L 58.61669299999999,988.9734300000002 L 59.02427499999999,989.1228800000002 L 59.32317899999999,988.3077000000002 L 58.91558599999999,988.1582500000002 M 58.46723499999999,989.3810200000001 L 58.16834199999999,990.1962000000002 L 58.57593399999999,990.3456500000002 L 58.87482699999999,989.5304600000002 L 58.46723499999999,989.3810200000001 M 47.23135099999999,989.4353200000002 L 46.81017599999999,989.5033200000001 L 46.946040999999994,990.3592700000002 L 47.367217,990.3049700000001 L 47.231351,989.4354400000001 L 47.23135099999999,989.4353200000002 M 58.005301999999986,990.6037500000001 L 57.70640799999999,991.4189400000001 L 58.11399099999999,991.5683900000001 L 58.41289599999999,990.7532000000001 L 58.005301999999986,990.6037500000001 M 47.435138999999985,990.7260300000002 L 47.00038099999998,990.7940300000001 L 47.13624499999998,991.6499700000002 L 47.57100299999998,991.5819700000002 L 47.435138999999985,990.7260300000002 M 57.55695199999998,991.8265300000002 L 57.25805699999998,992.6417100000002 L 57.66565199999998,992.7911500000002 L 57.96454499999998,991.9759700000002 L 57.55695199999998,991.8265300000002 M 47.63893599999998,992.0167300000002 L 47.20417799999998,992.0847300000001 L 47.34004099999998,992.9406600000001 L 47.77479999999998,992.8726600000001 L 47.63893599999998,992.0167300000002 M 57.10861099999998,993.0493000000001 L 56.796123999999985,993.8644700000001 L 57.203707999999985,994.0139200000001 L 57.516193999999984,993.1987500000001 L 57.10861099999998,993.0493000000001 M 47.842731999999984,993.3074400000002 L 47.40797399999998,993.3754400000001 L 47.53024499999998,994.1498600000001 C 46.80590099999998,994.3789000000002 46.266717999999976,995.0480600000001 46.266717999999976,995.8481500000001 C 46.266717999999976,996.8270400000001 47.057660999999975,997.6128300000001 48.03294699999998,997.6279600000001 L 48.08725699999998,998.1034900000002 L 48.52202499999998,998.0488900000001 L 48.46771499999998,997.5869100000001 C 49.26139999999998,997.4037500000001 49.853524999999976,996.69725 49.853524999999976,995.8479100000001 C 49.853524999999976,994.8595600000001 49.04845399999998,994.05451 48.06012199999998,994.05451 C 48.02672199999998,994.05451 47.99793199999998,994.06631 47.96505199999998,994.06811 L 47.842768999999976,993.30727 L 47.842731999999984,993.3074400000002 M 56.64666699999998,994.2720600000001 L 56.34777399999998,995.0872400000002 L 56.75536699999998,995.2366900000002 L 57.054260999999975,994.4215200000002 L 56.64666699999998,994.2720600000001 M 56.19832599999998,995.4948300000001 L 56.18477599999998,995.5491300000001 C 56.096745999999975,995.5243300000001 56.00905899999998,995.5083300000001 55.913058999999976,995.5083300000001 C 55.349179999999976,995.5083300000001 54.89407299999998,995.9634300000001 54.89407299999998,996.5273000000001 C 54.89407299999998,996.8727500000001 55.06628499999998,997.17132 55.32884299999998,997.35607 L 55.28808299999998,997.4103700000001 L 55.65490899999998,997.6277100000001 L 55.70921899999998,997.5321100000001 C 55.775708999999985,997.5457100000001 55.84252999999998,997.5457100000001 55.913015999999985,997.5457100000001 C 56.476883999999984,997.5457100000001 56.93198899999999,997.0905200000001 56.93198899999999,996.5266600000001 C 56.93198899999999,996.2129700000002 56.787773999999985,995.9395200000001 56.56515299999999,995.7522400000001 L 56.60591299999999,995.6435500000001 L 56.19832899999999,995.4940900000001 L 56.19832599999998,995.4948300000001 M 55.05707099999998,997.7772900000001 L 54.79893399999998,998.1713100000001 C 54.662669999999984,998.1041100000001 54.51288699999998,998.0626900000001 54.350583999999984,998.0626900000001 C 53.786715999999984,998.0626900000001 53.33161099999998,998.5177500000001 53.33161099999998,999.0816300000001 C 53.33161099999998,999.6455000000001 53.786715999999984,1000.1005100000001 54.350583999999984,1000.1005100000001 C 54.91445199999998,1000.1005100000001 55.369557999999984,999.6455000000001 55.369557999999984,999.0816300000001 C 55.369557999999984,998.8453800000001 55.28689799999999,998.6296200000002 55.15217899999998,998.4566100000002 L 55.423906999999986,998.0082900000002 L 55.05707099999998,997.7772900000001 M 48.57639399999998,998.4702700000001 L 48.14163599999998,998.5248700000002 L 48.25032599999998,999.3943200000002 L 48.68508399999998,999.3395200000002 L 48.57639399999998,998.4702700000001 M 48.73943299999998,999.7745000000001 L 48.30466499999998,999.8291000000002 L 48.41335299999998,1000.6850100000001 L 48.84812299999998,1000.6300100000002 L 48.73943299999998,999.7745000000001 M 53.997338999999975,1000.2093100000001 L 53.98378899999997,1000.6713100000001 C 53.462621999999975,1000.7173100000001 53.04633999999997,1001.15701 53.04633999999997,1001.6903100000001 C 53.04633999999997,1002.2541100000001 53.51502799999997,1002.7091100000001 54.07889599999997,1002.7091100000001 C 54.64276499999997,1002.7091100000001 55.09786699999997,1002.2541100000001 55.09786699999997,1001.6903100000001 C 55.09786699999997,1001.2478100000001 54.812053999999975,1000.8809100000001 54.41855799999997,1000.7391100000001 L 54.43210799999997,1000.2229100000001 L 53.99734699999997,1000.2089100000001 L 53.997338999999975,1000.2093100000001 M 48.902462999999976,1001.0652100000001 L 48.467704999999974,1001.12021 L 48.57639399999997,1001.9761100000001 L 49.01115099999997,1001.9211100000001 L 48.902462999999976,1001.0652100000001 M 49.065501999999974,1002.3559100000001 L 48.63074399999997,1002.4109100000001 L 48.73943299999997,1003.28051 L 49.17419199999997,1003.2255100000001 L 49.065501999999974,1002.3559100000001 M 53.236503999999975,1002.4519100000001 L 52.73381299999998,1003.1585100000001 L 53.08705699999997,1003.4165100000001 L 53.589746999999974,1002.7101100000001 L 53.236503999999975,1002.4519100000001 M 52.489258999999976,1003.5117100000001 L 51.986557999999974,1004.2316100000002 L 52.339811999999974,1004.4762100000002 L 52.842501999999975,1003.7698100000001 L 52.489258999999976,1003.5117100000001 M 49.228541999999976,1003.6476100000001 L 48.79377299999997,1003.70261 L 48.902462999999976,1004.5721100000001 L 49.33723199999998,1004.5171100000001 L 49.228541999999976,1003.6476100000001 M 51.687664999999974,1004.40821 C 51.14250499999997,1004.40821 50.69765099999997,1004.83501 50.668690999999974,1005.37291 L 50.138824999999976,1005.4951100000001 C 49.98997799999997,1005.21541 49.71712399999998,1005.0140100000001 49.39157099999998,1004.96531 L 49.39157099999998,1004.95131 L 49.33726099999998,1004.95131 C 49.305330999999974,1004.95131 49.27486099999998,1004.95131 49.24219099999998,1004.95131 C 48.67832199999998,1004.95131 48.22321599999998,1005.40641 48.22321599999998,1005.97031 C 48.22321599999998,1006.53421 48.67832199999998,1006.98941 49.24219099999998,1006.98941 C 49.26561099999998,1006.98941 49.28715099999998,1006.98941 49.310150999999976,1006.98941 L 49.364450999999974,1007.75021 L 49.799208999999976,1007.72321 L 49.744898999999975,1006.85371 C 50.05317299999997,1006.67791 50.26118199999998,1006.35081 50.26118199999998,1005.97061 C 50.26118199999998,1005.9476099999999 50.26228199999998,1005.92561 50.26118199999998,1005.90261 L 50.750290999999976,1005.80661 C 50.90246699999997,1006.1791099999999 51.26038699999997,1006.44511 51.68774999999997,1006.44511 C 52.25161799999997,1006.44511 52.70672199999997,1005.98991 52.70672199999997,1005.42611 C 52.70672199999997,1004.86221 52.25161799999997,1004.40711 51.68774999999997,1004.40711 L 51.687664999999974,1004.40821 M 49.826338999999976,1008.15821 L 49.39157099999998,1008.1852100000001 L 49.445870999999975,1009.0546100000001 L 49.88062899999998,1009.0276100000001 L 49.82631899999998,1008.15821 L 49.826338999999976,1008.15821 M 49.90785899999997,1009.4624100000001 L 49.47310099999997,1009.4894100000001 L 49.52740099999997,1010.3590100000001 L 49.96216899999997,1010.3320100000001 L 49.90786899999997,1009.4624100000001 L 49.90785899999997,1009.4624100000001 M 49.98937899999997,1010.7667100000001 L 49.55462099999997,1010.7937100000001 L 49.60892099999997,1011.6632100000002 L 50.043679999999966,1011.6362100000001 L 49.98937899999997,1010.7667100000001 M 50.07088899999997,1012.0710100000001 L 49.63611999999997,1012.0980100000002 L 49.70408999999997,1012.9541100000001 L 50.13885799999997,1012.9271100000001 L 50.07088899999997,1012.0710100000001 M 50.16595899999997,1013.3618100000001 L 49.73120099999997,1013.3888100000001 L 49.78551099999997,1014.2584100000001 L 50.22026899999997,1014.2314100000001 L 50.16595899999997,1013.3618100000001 M 50.24747899999997,1014.6660100000001 L 49.81270999999997,1014.6930100000002 L 49.867029999999964,1015.5625100000002 L 50.30178699999996,1015.5355100000002 L 50.247486999999964,1014.6660100000001 L 50.24747899999997,1014.6660100000001 M 50.32899899999997,1015.9702100000002 L 49.894240999999965,1015.9972100000002 L 49.94854099999996,1016.8666100000003 L 50.383309999999966,1016.8396100000002 L 50.328999999999965,1015.9701100000002 L 50.32899899999997,1015.9702100000002 M 50.410518999999965,1017.2746100000002 L 49.97576199999997,1017.3016100000002 L 50.030061999999965,1018.1712100000002 L 50.46481999999997,1018.1442100000002 L 50.410518999999965,1017.2746100000002 M 50.26107299999997,1018.3750100000002 C 49.69720499999997,1018.3750100000002 49.242099999999965,1018.8301100000002 49.242099999999965,1019.3940100000002 C 49.242099999999965,1019.9579100000002 49.69720499999997,1020.4131100000002 50.26107299999997,1020.4131100000002 C 50.82494099999997,1020.4131100000002 51.28004699999997,1019.9579100000002 51.28004699999997,1019.3940100000002 C 51.28004699999997,1018.8301100000002 50.82494099999997,1018.3750100000002 50.26107299999997,1018.3750100000002 M 50.53280199999997,1020.7527100000002 L 50.111625999999966,1020.8077100000002 L 50.233898999999965,1021.6635100000002 L 50.65507399999996,1021.6085100000003 L 50.53280199999996,1020.7525100000003 L 50.53280199999997,1020.7527100000002 M 50.72300599999997,1022.0434100000002 L 50.28824799999997,1022.0984100000002 L 50.410518999999965,1022.9544100000002 L 50.845288999999966,1022.8994100000002 L 50.72300599999997,1022.0434100000002 M 50.89962799999997,1023.3341100000002 L 50.47845199999997,1023.3891100000002 L 50.60073399999997,1024.24501 L 51.02190999999997,1024.19001 L 50.89962799999997,1023.3341100000002 M 51.08984299999997,1024.6249100000002 L 50.65507399999997,1024.6799100000003 L 50.77735599999997,1025.5493100000003 L 51.21211399999997,1025.4813100000003 L 51.08984299999997,1024.6254100000003 L 51.08984299999997,1024.6249100000002 M 34.66397499999997,1025.8068100000003 C 34.100105999999975,1025.8068100000003 33.64500199999997,1026.2753100000002 33.64500199999997,1026.8392100000003 C 33.64500199999997,1027.4031100000004 34.10010599999997,1027.8584100000003 34.66397499999997,1027.8584100000003 C 34.90019899999997,1027.8584100000003 35.11594999999997,1027.7754100000002 35.28894699999997,1027.6408100000003 L 35.411218999999974,1027.7495100000003 L 35.69653099999997,1027.4235100000003 L 35.56066599999997,1027.3148100000003 C 35.63745599999997,1027.1715100000004 35.68294899999997,1027.0133100000003 35.68294899999997,1026.8392100000003 C 35.68294899999997,1026.2753100000002 35.22784299999997,1025.8068100000003 34.66397499999997,1025.8068100000003 M 51.26646399999997,1025.9154100000003 L 50.84528899999997,1025.9704100000004 L 50.96755999999997,1026.8399100000004 L 51.40232799999997,1026.7719100000004 L 51.26646399999997,1025.9154100000003 M 51.25291399999997,1027.0430100000003 C 50.68904599999997,1027.0430100000003 50.22035799999997,1027.4982100000004 50.22035799999997,1028.0622100000003 C 50.22035799999997,1028.6259100000002 50.68904599999997,1029.0947100000003 51.25291399999997,1029.0947100000003 C 51.32340399999997,1029.0947100000003 51.390249999999966,1029.0807100000004 51.45671099999997,1029.0677100000003 L 51.57899399999997,1029.3938100000003 L 51.98657599999997,1029.2579100000003 L 51.86430399999997,1028.8911100000003 C 52.11303999999997,1028.7049100000002 52.27189899999997,1028.3969100000002 52.27189899999997,1028.0625100000002 C 52.27189899999997,1027.4985100000001 51.81679199999997,1027.0433100000002 51.25291399999997,1027.0433100000002 L 51.25291399999997,1027.0430100000003 M 36.022651999999965,1027.6952100000003 L 35.750922999999965,1028.0349100000003 L 36.416653999999966,1028.5919100000003 L 36.68838199999997,1028.2658100000003 L 36.022651999999965,1027.6952100000003 M 37.028032999999965,1028.5377100000003 L 36.742721999999965,1028.8772100000003 L 37.40845199999997,1029.4344100000003 L 37.69376299999997,1029.0947100000003 L 37.028032999999965,1028.5377100000003 M 38.01984199999997,1029.3800100000003 L 37.73453099999997,1029.7197100000003 L 38.40025999999997,1030.2766100000003 L 38.685571999999965,1029.9370100000003 L 38.01984199999997,1029.3800100000003 M 52.13603399999997,1029.6653100000003 L 51.72844099999997,1029.8148100000003 L 52.01375099999997,1030.6299100000003 L 52.43492699999997,1030.4804100000003 L 52.13603399999997,1029.6653100000003 M 39.01164099999997,1030.2223100000003 L 38.73991099999997,1030.5619100000004 L 39.405640999999974,1031.1190100000003 L 39.67737099999997,1030.7794100000003 L 39.01164099999997,1030.2223100000003 M 52.57079199999997,1030.8881100000003 L 52.16319899999997,1031.0375100000003 L 52.46210299999997,1031.8526100000004 L 52.86969599999997,1031.7168100000004 L 52.57079199999997,1030.8881100000003 M 40.01703099999997,1031.0647100000003 L 39.73171999999997,1031.3908100000003 L 40.39744999999997,1031.9613100000004 L 40.68276099999997,1031.6217100000003 L 40.01703099999997,1031.0647100000003 M 41.00882999999997,1031.9070100000004 L 40.72351899999997,1032.2331100000004 L 41.38924899999997,1032.8037100000004 L 41.67455999999997,1032.4642100000003 L 41.00882999999997,1031.9070100000004 M 53.01914299999997,1032.1244100000004 L 52.59796699999997,1032.2604100000003 L 52.89685999999997,1033.0890100000004 L 53.30445299999997,1032.9395100000004 L 53.01914299999997,1032.1244100000004 M 42.000628999999975,1032.7494100000004 L 41.728910999999975,1033.0755100000003 L 42.394639999999974,1033.6462100000003 L 42.66635899999997,1033.3065100000003 L 42.000628999999975,1032.7494100000004 M 53.45390099999997,1033.3473100000003 L 53.04631699999997,1033.4966100000004 L 53.33162899999997,1034.3118100000004 L 53.739211999999974,1034.1624100000004 L 53.45390099999997,1033.3473100000003 M 43.00601999999997,1033.5918100000004 L 42.72070799999997,1033.9178100000004 L 43.38643799999998,1034.4884100000004 L 43.67174899999998,1034.1488100000004 L 43.00601999999997,1033.5918100000004 M 43.997817999999974,1034.4342100000003 L 43.712506999999974,1034.7602100000004 L 44.37823699999998,1035.3308100000004 L 44.66354799999998,1034.9912100000004 L 43.997817999999974,1034.4342100000003 M 53.888669999999976,1034.5835100000004 L 53.48107599999997,1034.7195100000004 L 53.76638699999997,1035.5482100000004 L 54.187562999999976,1035.3988100000004 L 53.888669999999976,1034.5835100000004 M 44.98962699999998,1035.2765100000004 L 44.71789799999998,1035.6026100000004 L 45.38362799999998,1036.1596100000004 L 45.65535699999998,1035.8335100000004 L 44.98962699999998,1035.2765100000004 M 54.32342799999998,1035.8064100000004 L 53.91584399999998,1035.9558100000004 L 54.214737999999976,1036.7710100000004 L 54.62233199999998,1036.6214100000004 L 54.32342799999998,1035.8064100000004 M 45.99500799999998,1036.1188100000004 L 45.70969699999998,1036.4448100000004 L 46.375425999999976,1037.0019100000004 L 46.660737999999974,1036.6759100000004 L 45.99500799999998,1036.1188100000004 M 46.98681699999998,1036.9611100000004 L 46.71508799999998,1037.2872100000004 L 47.36723499999998,1037.8442100000004 L 47.65254599999998,1037.5182100000004 L 46.98681699999998,1036.9611100000004 M 54.75819699999998,1037.0291100000004 L 54.35060199999998,1037.1785100000004 L 54.64949699999998,1037.9937100000004 L 55.05708999999998,1037.8579100000004 L 54.75819699999998,1037.0291100000004 M 47.99219699999998,1037.8035100000004 L 47.70688599999998,1038.1295100000004 L 48.37261599999999,1038.6866100000004 L 48.64434499999999,1038.3605100000004 L 47.99219699999998,1037.8035100000004 M 55.206535999999986,1038.2655100000004 L 54.798951999999986,1038.4148100000004 L 55.08426399999998,1039.2302100000004 L 55.49185699999998,1039.0806100000004 L 55.206535999999986,1038.2655100000004 M 48.98400599999999,1038.6324100000004 L 48.69869499999999,1038.9719100000004 L 49.36442499999999,1039.5290100000004 L 49.64973599999999,1039.2029100000004 L 48.98400599999999,1038.6324100000004 M 49.97580499999999,1039.4746100000004 L 49.70407499999999,1039.8143100000004 L 50.356222999999986,1040.3713100000004 L 50.64153499999998,1040.0452100000005 L 49.97580499999999,1039.4746100000004 M 55.64130499999999,1039.4886100000003 L 55.233710999999985,1039.6381100000003 L 55.519021999999985,1040.4532100000004 L 55.926616999999986,1040.3173100000004 L 55.64130499999999,1039.4886100000003 M 50.98119599999999,1040.3173100000004 L 50.69588399999999,1040.6570100000004 L 51.361613999999996,1041.2141100000003 L 51.633334,1040.8881100000003 L 50.98119599999999,1040.3173100000004 M 56.04888899999999,1040.5212100000003 C 55.48501899999999,1040.5212100000003 55.02991499999999,1040.9762100000003 55.02991499999999,1041.5401100000004 C 55.02991499999999,1041.7985100000003 55.12970499999999,1042.0396100000003 55.288060999999985,1042.2195100000004 L 55.09784599999998,1042.4368100000004 L 55.42392599999998,1042.7221100000004 L 55.64130499999998,1042.4776100000004 C 55.76787299999998,1042.5336100000004 55.90145699999998,1042.5736100000004 56.04888899999998,1042.5736100000004 C 56.612766999999984,1042.5736100000004 57.06787199999998,1042.1050100000004 57.06787199999998,1041.5412100000003 C 57.06787199999998,1040.9773100000002 56.61276699999998,1040.5221100000003 56.04888899999998,1040.5221100000003 L 56.04888899999999,1040.5212100000003 M 51.972993999999986,1041.1597100000004 L 51.687682999999986,1041.4994100000004 L 52.35341299999999,1042.0564100000004 L 52.63872399999999,1041.7304100000003 L 51.972993999999986,1041.1597100000004 M 52.964792999999986,1042.0020100000004 L 52.693074999999986,1042.3417100000004 L 53.35880499999999,1042.8988100000004 L 53.63052299999999,1042.5592100000003 L 52.964792999999986,1042.0020100000004 M 54.13322299999999,1042.5592100000003 C 53.569355999999985,1042.5592100000003 53.114249999999984,1043.0142100000003 53.114249999999984,1043.5781100000004 C 53.114249999999984,1043.7255100000004 53.139569999999985,1043.8591100000003 53.19576999999998,1043.9857100000004 L 52.46210799999998,1044.1895100000004 L 52.57079699999998,1044.6108100000004 L 53.413148999999976,1044.3661100000004 L 53.38593899999998,1044.2701100000004 C 53.57236199999998,1044.4706100000003 53.83786099999998,1044.5962100000004 54.13319399999998,1044.5962100000004 C 54.69705999999998,1044.5962100000004 55.15216799999998,1044.1411100000005 55.15216799999998,1043.5772100000004 C 55.15216799999998,1043.4191100000003 55.107627999999984,1043.2760100000003 55.04347799999998,1043.1425100000004 L 55.13854799999998,1043.0465100000004 L 54.81247999999998,1042.7612100000003 L 54.78526999999998,1042.8022100000003 C 54.607725999999985,1042.6529100000002 54.38330899999998,1042.5577100000003 54.13313499999998,1042.5577100000003 L 54.13322299999999,1042.5592100000003 M 52.04092699999999,1044.3118100000004 L 51.19857499999999,1044.5427100000004 L 51.32084599999999,1044.9639100000004 L 52.16319899999999,1044.7194100000004 L 52.04092699999999,1044.3118100000004 M 50.77739899999999,1044.6650100000004 L 49.94862999999999,1044.8960100000004 L 50.070911999999986,1045.3171100000004 L 50.899670999999984,1045.0726100000004 L 50.77739899999999,1044.6650100000004 M 49.52745399999999,1045.0184100000004 L 48.68510199999999,1045.2492100000004 L 48.807385,1045.6704100000004 L 49.649736,1045.4394100000004 L 49.52745399999999,1045.0184100000004 M 48.27751999999999,1045.3715100000004 L 47.43515799999999,1045.6025100000004 L 47.55743899999999,1046.0237100000004 L 48.38620899999999,1045.7928100000004 L 48.27751999999999,1045.3715100000004 M 47.01398099999999,1045.7247100000004 L 46.18522199999999,1045.9557100000004 L 46.29391199999999,1046.3770100000004 L 47.13626299999999,1046.1460100000004 L 47.01398099999999,1045.7247100000004 M 45.764046999999984,1046.0781100000004 L 44.921694999999985,1046.3090100000004 L 45.04396699999999,1046.7301100000004 L 45.88631799999999,1046.4992100000004 L 45.764046999999984,1046.0781100000004 M 44.50051899999998,1046.4313100000004 L 43.671748999999984,1046.6623100000004 L 43.79403199999999,1047.0833100000004 L 44.622790999999985,1046.8524100000004 L 44.50051899999998,1046.4313100000004 M 43.25057299999998,1046.7845100000004 L 42.40822199999998,1047.0154100000004 L 42.53049399999998,1047.4365100000005 L 43.372855999999985,1047.2056100000004 L 43.25057299999998,1046.7845100000004 M 42.00062899999998,1047.1377100000004 L 41.158276999999984,1047.3687100000004 L 41.28055999999999,1047.7898100000004 L 42.10931799999999,1047.5589100000004 L 42.00062899999998,1047.1377100000004 M 40.73710099999998,1047.4909100000004 L 39.90834199999998,1047.7354100000005 L 40.01703099999998,1048.1432100000004 L 40.859383999999984,1047.9121100000004 L 40.73710099999998,1047.4909100000004 M 39.48716599999998,1047.8442100000004 L 38.64481499999998,1048.0887100000004 L 38.76708699999998,1048.4962100000005 L 39.60943799999998,1048.2654100000004 L 39.48716599999998,1047.8442100000004 M 38.237220999999984,1048.1974100000004 L 37.39486999999998,1048.4420100000004 L 37.517141999999986,1048.8495100000005 L 38.34591099999999,1048.6185100000005 L 38.237220999999984,1048.1974100000004 M 36.97369399999998,1048.5507100000004 L 36.14492399999998,1048.7952100000005 L 36.253613999999985,1049.2164100000005 L 37.09596599999998,1048.9718100000005 L 36.97369399999998,1048.5507100000004 M 35.72374799999998,1048.9039100000005 L 34.88139699999998,1049.1485100000004 L 35.00367899999998,1049.5696100000005 L 35.832437999999975,1049.3252100000004 L 35.72374799999998,1048.9039100000005 M 34.460220999999976,1049.2571100000005 L 33.631451999999975,1049.5016100000005 L 33.74015199999997,1049.9229100000005 L 34.582502999999974,1049.6783100000005 L 34.460220999999976,1049.2571100000005 M 31.077220999999977,1049.3121100000005 C 30.51335399999998,1049.3121100000005 30.044665999999978,1049.7672100000004 30.044665999999978,1050.3311100000005 C 30.044665999999978,1050.8950100000006 30.51335399999998,1051.3500100000006 31.077220999999977,1051.3500100000006 C 31.641099999999977,1051.3500100000006 32.096205999999974,1050.8950100000006 32.096205999999974,1050.3311100000005 C 32.096205999999974,1049.7672100000004 31.641099999999973,1049.3121100000005 31.077220999999973,1049.3121100000005 L 31.077220999999977,1049.3121100000005 M 33.21027599999998,1049.6246100000005 L 32.36792399999998,1049.8555100000005 L 32.49020599999998,1050.2766100000006 L 33.33255799999998,1050.0321100000006 L 33.21027599999998,1049.6246100000005" display="inline" fill="#000000" fill-opacity="1" marker="none" overflow="visible" stroke="none" style="text-indent:0;text-transform:none;direction:ltr;block-progression:tb;baseline-shift:baseline;color:#000000;enable-background:accumulate;" visibility="visible"/>
</svg>
