<?xml version="1.0" ?>
<svg xmlns="http://www.w3.org/2000/svg" xmlns:cc="http://creativecommons.org/ns#" xmlns:dc="http://purl.org/dc/elements/1.1/" xmlns:ev="http://www.w3.org/2001/xml-events" xmlns:inkscape="http://www.inkscape.org/namespaces/inkscape" xmlns:rdf="http://www.w3.org/1999/02/22-rdf-syntax-ns#" xmlns:sodipodi="http://sodipodi.sourceforge.net/DTD/sodipodi-0.dtd" xmlns:svg="http://www.w3.org/2000/svg" xmlns:xlink="http://www.w3.org/1999/xlink" baseProfile="full" height="544px" version="1.1" viewBox="0 0 100 100" width="600px" x="0px" y="0px">
	<defs/>
	<path d="M 45.172493,956.64835 C 44.115931,956.64835 43.25676,957.48892 43.25676,958.54548 C 43.25676,959.60205 44.115931,960.46122 45.172493,960.46122 C 45.264683000000005,960.46122 45.344179000000004,960.45522 45.432884,960.44262 L 45.693275,961.53998 L 46.269855,961.39118 L 45.990865,960.27522 C 46.635242,959.96744 47.088226999999996,959.3072099999999 47.088226999999996,958.54548 C 47.088226999999996,957.48892 46.22905599999999,956.64835 45.172492999999996,956.64835 L 45.172493,956.64835 M 46.41865,961.96776 L 45.84207,962.11656 L 46.13966,963.26972 L 46.71624,963.12092 L 46.41865,961.96776 M 86.537454,963.12092 C 85.17273399999999,963.12092 84.063744,964.22992 84.063744,965.5946399999999 C 84.063744,966.9593699999999 85.172734,968.0683499999999 86.537454,968.0683499999999 C 87.115804,968.0683499999999 87.641604,967.8618099999999 88.062604,967.5289699999998 L 88.17420399999999,967.6219699999998 L 88.56478399999999,967.1755799999999 L 88.47178399999999,967.1011799999999 C 88.79923399999998,966.6819899999999 89.01116399999998,966.1677699999999 89.01116399999998,965.5946299999999 C 89.01116399999998,964.2299099999999 87.90217399999997,963.12091 86.53744399999998,963.12091 L 86.537454,963.12092 M 46.865035,963.6975 L 46.288455,963.8463 L 46.586044,964.99946 L 47.162624,964.85066 L 46.865035,963.6975 M 47.311419,965.42724 L 46.734839,965.57604 L 47.01383,966.7292 L 47.59041,966.5803999999999 L 47.311419,965.42724 M 83.859154,966.98959 L 82.836184,967.58477 L 83.115174,968.10555 L 84.156744,967.51037 L 83.859154,966.98959 M 47.739204,967.15698 L 47.162624,967.30578 L 47.460214,968.45894 L 48.036794,968.3101399999999 L 47.739204,967.15698 M 89.01117400000001,967.5847699999999 L 88.62058400000001,968.0125499999999 L 89.49475400000001,968.81233 L 89.90394400000001,968.36594 L 89.01117400000001,967.58477 L 89.01117400000001,967.5847699999999 M 82.31540400000002,967.88236 L 81.27384400000001,968.45894 L 81.57143400000001,968.9797199999999 L 82.61299400000001,968.3845399999999 L 82.31540400000002,967.88236 M 80.75305400000002,968.75653 L 79.73009400000002,969.33311 L 80.00908400000002,969.85389 L 81.05064400000002,969.2773099999999 L 80.75305400000002,968.75653 M 90.35032400000001,968.77513 L 89.94114400000001,969.20291 L 90.83391400000001,970.00269 L 91.224494,969.5563000000001 L 90.350324,968.7751300000001 L 90.35032400000001,968.77513 M 48.185589000000014,968.88672 L 47.609009000000015,969.03552 L 47.906599000000014,970.18868 L 48.483179000000014,970.0398799999999 L 48.185589000000014,968.88672 M 79.209314,969.6306999999999 L 78.167744,970.20728 L 78.465334,970.7280599999999 L 79.488304,970.1514799999999 L 79.209314,969.6306999999999 M 91.670884,969.9654899999999 L 91.280294,970.4118699999999 L 92.154464,971.1930399999999 L 92.563654,970.7652599999999 L 91.670884,969.9654899999999 M 77.646964,970.50487 L 76.605404,971.10005 L 76.90299399999999,971.62083 L 77.944554,971.0256499999999 L 77.646964,970.50487 M 48.631973,970.61646 L 48.055393,970.76526 L 48.334384,971.91842 L 48.910964,971.7696199999999 L 48.631973,970.61646 M 92.991431,971.15585 L 92.60084400000001,971.60223 L 93.49361100000002,972.4019999999999 L 93.88420100000002,971.95562 L 92.99143100000002,971.15585 L 92.991431,971.15585 M 76.10322400000001,971.37904 L 75.061654,971.9742200000001 L 75.359244,972.495 L 76.382214,971.89982 L 76.10322400000001,971.37904 M 74.54087400000002,972.2718100000001 L 73.49931400000001,972.8483900000001 L 73.79690400000001,973.36917 L 74.83846400000002,972.79259 L 74.54087400000002,972.2718100000001 M 49.059759000000014,972.34621 L 48.483179000000014,972.4950100000001 L 48.780768000000016,973.64817 L 49.357348000000016,973.49937 L 49.059759000000014,972.34621 M 94.33058100000002,972.34621 L 93.92140100000002,972.7926 L 94.81417100000002,973.59237 L 95.20475100000002,973.14599 L 94.33058100000001,972.3462099999999 L 94.33058100000002,972.34621 M 96.82290100000003,973.10879 C 95.59024100000003,973.10879 94.59097100000002,974.10806 94.59097100000002,975.34071 C 94.59097100000002,976.3118499999999 95.21296100000002,977.13555 96.07892100000002,977.4424399999999 L 96.02312100000002,977.70283 L 96.59970100000002,977.8516199999999 L 96.67410100000002,977.5540299999999 C 96.72480100000003,977.5570299999999 96.77140100000003,977.5726299999999 96.82290100000002,977.5726299999999 C 98.05556100000001,977.5726299999999 99.05482100000002,976.5733699999998 99.05482100000002,975.34071 C 99.05482100000002,974.1080599999999 98.05556100000001,973.10879 96.82290100000002,973.10879 L 96.82290100000003,973.10879 M 72.97852400000002,973.14599 L 71.95556400000002,973.72257 L 72.23455400000002,974.24335 L 73.27611400000002,973.6667699999999 L 72.97852400000002,973.14599 M 71.43478400000002,974.02016 L 70.39321400000003,974.6153400000001 L 70.69080400000003,975.13612 L 71.73237400000002,974.54094 L 71.43478400000002,974.02016 M 49.50614300000002,974.07596 L 48.92956300000002,974.2247600000001 L 49.22715300000002,975.37792 L 49.80373300000002,975.22912 L 49.50614300000002,974.07596 M 69.87243400000003,974.89434 L 68.84947400000003,975.4895100000001 L 69.12846400000002,976.0103000000001 L 70.17002400000003,975.4151200000001 L 69.87243400000003,974.8943400000002 L 69.87243400000003,974.89434 M 68.32869400000003,975.7871 L 67.28712400000003,976.36368 L 67.58471400000003,976.8844700000001 L 68.60768400000003,976.30789 L 68.32869400000004,975.7871 L 68.32869400000003,975.7871 M 49.95252800000003,975.8057 L 49.37594800000003,975.9545 L 49.65493800000003,977.10766 L 50.23151800000003,976.95886 L 49.95252800000003,975.8057 M 66.76634400000003,976.66127 L 65.72478400000003,977.23785 L 66.02237400000003,977.75864 L 67.06393400000003,977.18206 L 66.76634400000003,976.66127 M 65.22259400000003,977.53544 L 64.18103400000003,978.13062 L 64.47862400000002,978.6328100000001 L 65.50158400000002,978.05623 L 65.22259400000003,977.53544 M 50.38031300000003,977.55404 L 49.80373300000003,977.6842399999999 L 50.10132200000003,978.8373999999999 L 50.67790200000003,978.7072 L 50.38031300000003,977.55404 M 95.87433100000003,978.27942 L 95.59534100000003,979.4325799999999 L 96.17192100000004,979.5813699999999 L 96.45091100000003,978.4282099999999 L 95.87433100000003,978.27942 M 63.66025400000002,978.4096099999999 L 62.61868400000002,979.00479 L 62.91627400000002,979.5255699999999 L 63.95784400000002,978.9303999999998 L 63.66025400000002,978.4096099999998 L 63.66025400000002,978.4096099999999 M 50.826697000000024,979.28378 L 50.250117000000024,979.4139799999999 L 50.547707000000024,980.5671399999999 L 51.124287000000024,980.4369399999999 L 50.826697000000024,979.28378 M 62.09790400000003,979.30238 L 61.07494400000003,979.87896 L 61.35393400000003,980.39974 L 62.39549400000003,979.8045699999999 L 62.09790400000003,979.3023799999999 L 62.09790400000003,979.30238 M 95.46514100000003,980.02776 L 95.16755100000003,981.1809199999999 L 95.76273100000003,981.3111099999999 L 96.04172100000002,980.1579499999999 L 95.46514100000002,980.02776 L 95.46514100000003,980.02776 M 60.55416400000003,980.1765499999999 L 59.51259400000003,980.7531299999999 L 59.81018400000003,981.2739099999999 L 60.85175400000003,980.6973299999999 L 60.55416400000003,980.1765499999999 M 51.27308200000003,981.0135199999999 L 50.67790200000003,981.1437199999998 L 50.97549200000003,982.3154799999998 L 51.55207200000003,982.1666799999997 L 51.27308200000003,981.0135199999997 L 51.27308200000003,981.0135199999999 M 58.99181400000003,981.0507199999998 L 57.968854000000036,981.6458999999999 L 58.247844000000036,982.1480799999998 L 59.28940400000003,981.5714999999998 L 58.99181400000003,981.0507199999998 M 95.03736100000003,981.7574999999998 L 94.75837100000004,982.9106599999998 L 95.33495100000005,983.0594499999997 L 95.61394100000004,981.8876899999998 L 95.03736100000003,981.7574999999998 M 57.44806400000003,981.9248899999998 L 56.406504000000034,982.5200699999998 L 56.70409400000003,983.0408499999998 L 57.72705400000003,982.4456699999997 L 57.44806400000003,981.9248899999998 M 51.70086700000003,982.7432599999997 L 51.12428700000003,982.8920599999998 L 51.328880000000034,983.6732299999998 C 50.58515600000003,983.9624099999997 50.064124000000035,984.6685999999997 50.064124000000035,985.5145699999997 C 50.064124000000035,986.6151499999997 50.95366700000004,987.5232999999997 52.05425500000003,987.5232999999997 C 52.366706000000036,987.5232999999997 52.64661300000003,987.4282999999997 52.90982500000003,987.3001099999997 L 53.15161700000003,987.9138799999997 L 53.70959700000003,987.6906899999997 L 53.41200800000003,986.9653199999997 C 53.79545800000003,986.6021099999997 54.04438600000003,986.0844199999997 54.04438600000003,985.5145699999997 C 54.04438600000003,985.1996799999997 53.95124600000003,984.9237599999997 53.82119300000003,984.6589999999998 L 54.62096600000003,984.2126099999998 L 54.34197500000003,983.6918299999999 L 53.48640500000003,984.1568099999998 C 53.12334600000003,983.7748899999998 52.62281200000003,983.5244399999998 52.05425500000003,983.5244399999998 C 52.004075000000036,983.5244399999998 51.954715000000036,983.5393399999998 51.90546000000003,983.5430399999998 L 51.70086700000003,982.7432599999997 M 55.88572400000003,982.8176599999997 L 54.84415800000003,983.3942399999997 L 55.14174800000003,983.9150199999997 L 56.18331400000003,983.3198399999997 L 55.88572400000003,982.8176599999997 M 94.60957100000003,983.4872399999997 L 94.33058100000004,984.6403999999997 L 94.90716100000004,984.7891899999996 L 95.18615100000004,983.6360299999997 L 94.60957100000003,983.4872399999997 M 94.18179100000003,985.2169799999997 L 93.90280100000004,986.3701399999997 L 94.47938100000005,986.5189299999996 L 94.75837100000004,985.3657699999997 L 94.18179100000003,985.2169799999997 M 49.71073600000003,986.4073399999997 L 48.68777100000003,987.0397099999998 L 49.003960000000035,987.5418999999998 L 50.026925000000034,986.9095199999998 L 49.71073600000003,986.4073399999999 L 49.71073600000003,986.4073399999997 M 93.77260100000004,986.9653199999998 L 93.47501100000004,988.1184799999997 L 94.05159100000004,988.2486699999997 L 94.34918100000004,987.0955099999998 L 93.77260100000004,986.9653199999998 M 48.185589000000036,987.3372999999998 L 47.181224000000036,987.9696799999998 L 47.47881300000004,988.4718599999998 L 48.50177800000004,987.8580899999997 L 48.185589000000036,987.3372999999997 L 48.185589000000036,987.3372999999998 M 53.91419000000003,988.2486699999998 L 53.374809000000035,988.4718599999999 L 53.82119300000004,989.5692299999998 L 54.36057500000004,989.3460299999998 L 53.91419000000004,988.2486699999998 L 53.91419000000003,988.2486699999998 M 46.66044200000003,988.2858699999998 L 45.65607700000003,988.8996499999998 L 45.97226600000003,989.4204299999998 L 46.97663100000003,988.7880499999998 L 46.66044200000003,988.2858699999998 M 93.34482100000002,988.6950599999998 L 93.06583100000003,989.8482199999997 L 93.64241100000004,989.9970099999997 L 93.92140100000003,988.8252499999998 L 93.34482100000002,988.6950599999998 M 45.15389400000002,989.2158399999997 L 44.13093000000002,989.8482199999997 L 44.44711900000002,990.3503999999997 L 45.45148400000002,989.7180199999997 L 45.15389400000002,989.2158399999997 M 54.58376700000002,989.9040099999997 L 54.025786000000025,990.1272099999998 L 54.472171000000024,991.2245699999997 L 55.030151000000025,991.0013799999997 L 54.58376700000002,989.9040099999997 M 43.628747000000025,990.1458099999998 L 42.605782000000026,990.7781799999998 L 42.92197100000003,991.2803699999998 L 43.94493600000003,990.6665899999998 L 43.628747000000025,990.1458099999999 L 43.628747000000025,990.1458099999998 M 92.91703100000002,990.4247999999998 L 92.63804400000002,991.5779599999997 L 93.21462100000002,991.7267499999997 L 93.49361100000002,990.5735899999997 L 92.91703100000001,990.4247999999998 L 92.91703100000002,990.4247999999998 M 42.10360000000002,991.0943699999998 L 41.09923500000002,991.7081499999998 L 41.396824000000024,992.2289299999998 L 42.41978900000002,991.5965599999997 L 42.10360000000002,991.0943699999997 L 42.10360000000002,991.0943699999998 M 55.25334400000002,991.5593599999997 L 54.69536300000002,991.7825499999998 L 55.14174800000002,992.8799099999998 L 55.69972400000002,992.6567199999997 L 55.25334400000002,991.5593599999997 M 92.19166400000002,991.7081499999997 C 91.01770400000002,991.7081499999997 90.07133400000002,992.6731199999997 90.07133400000002,993.8470799999997 C 90.07133400000002,994.1258999999997 90.12253400000002,994.3842799999996 90.22013400000002,994.6282499999996 L 89.62495400000002,994.8328399999997 L 89.82954400000001,995.4094199999997 L 90.53632400000001,995.1490299999997 C 90.92571400000001,995.6393499999997 91.51689400000001,995.9673999999997 92.191664,995.9673999999997 C 93.365621,995.9673999999997 94.33058100000001,995.0210399999996 94.33058100000001,993.8470799999997 C 94.33058100000001,992.6731199999997 93.365621,991.7081499999997 92.191664,991.7081499999997 L 92.19166400000002,991.7081499999997 M 7.490201000000013,991.8755499999997 C 6.140148000000013,991.8755499999997 5.053685000000013,992.9620099999997 5.053685000000013,994.3120599999997 C 5.053685000000013,995.6621099999998 6.140148000000013,996.7671799999997 7.490201000000013,996.7671799999997 C 8.324411000000014,996.7671799999997 9.057815000000014,996.3448499999997 9.498931000000013,995.7070099999997 L 10.038312000000014,995.8744099999998 L 10.224306000000013,995.3164299999997 L 9.777921000000013,995.1676299999997 C 9.877841000000013,994.9008599999997 9.926716000000013,994.6137199999997 9.926716000000013,994.3120599999997 C 9.926716000000013,992.9620099999997 8.840253000000013,991.8755499999997 7.490201000000013,991.8755499999997 M 40.57845300000001,992.0243399999997 L 39.57408800000001,992.6567199999997 L 39.89027700000001,993.1588999999997 L 40.89464200000001,992.5265199999997 L 40.57845300000001,992.0243399999997 M 39.07190500000001,992.9543099999997 L 38.048941000000006,993.5866899999997 L 38.36513000000001,994.0888699999997 L 39.36949500000001,993.4750899999997 L 39.07190500000001,992.9543099999997 M 55.90432400000001,993.2146999999998 L 55.36494000000001,993.4378899999998 L 55.792724000000014,994.5352499999998 L 56.350704000000015,994.3120599999997 L 55.90432400000002,993.2146999999998 L 55.90432400000001,993.2146999999998 M 37.54675800000001,993.9028799999998 L 36.52379300000001,994.5166499999998 L 36.83998200000001,995.0188399999998 L 37.86294700000001,994.4050599999998 L 37.54675800000001,993.9028799999999 L 37.54675800000001,993.9028799999998 M 36.021611000000014,994.8328399999998 L 35.017246000000014,995.4652199999998 L 35.314835000000016,995.9673999999998 L 36.337800000000016,995.3350299999997 L 36.021611000000014,994.8328399999997 L 36.021611000000014,994.8328399999998 M 56.57389400000001,994.8700399999998 L 56.01591400000001,995.0932299999998 L 56.46230400000001,996.1905999999998 L 57.02028400000001,995.9859999999998 L 56.57389400000001,994.8700399999998 M 89.06697400000002,995.0374399999998 L 87.95101400000001,995.4466199999998 L 88.15560400000001,996.0045999999999 L 89.27156400000001,995.5954199999999 L 89.06697400000002,995.0374399999998 M 10.78228700000001,995.5024199999998 L 10.59629300000001,996.0603999999998 L 11.73085400000001,996.4323899999998 L 11.91684700000001,995.8744099999998 L 10.782287000000009,995.5024199999998 L 10.78228700000001,995.5024199999998 M 87.39302400000001,995.6326199999997 L 86.25846400000002,996.0417999999997 L 86.46306400000002,996.5997799999998 L 87.57902400000002,996.2091999999998 L 87.39302400000001,995.6326199999997 M 34.49646400000001,995.7628099999997 L 33.49209900000001,996.3951899999997 L 33.80828800000001,996.8973699999997 L 34.81265300000001,996.2835899999997 L 34.49646400000001,995.7628099999997 M 12.47482800000001,996.0603999999997 L 12.288834000000008,996.6183799999998 L 13.423395000000008,996.9903699999998 L 13.609388000000008,996.4137899999997 L 12.474828000000008,996.0603999999997 L 12.47482800000001,996.0603999999997 M 85.70048400000002,996.2463899999997 L 84.58452400000002,996.6369799999997 L 84.78911400000001,997.1949599999997 L 85.90508400000002,996.8043799999997 L 85.70048400000002,996.2463899999997 M 57.24347400000002,996.5253899999997 L 56.68549400000002,996.7485799999997 L 57.13187400000002,997.8645399999997 L 57.689864000000014,997.6413499999996 L 57.24347400000001,996.5253899999997 L 57.24347400000002,996.5253899999997 M 14.185968000000024,996.5997899999996 L 13.999975000000024,997.1763699999997 L 15.134536000000024,997.5483599999997 L 15.320529000000024,996.9717799999996 L 14.185968000000024,996.5997899999996 M 32.98991600000002,996.7113899999996 L 31.96695200000002,997.3251699999996 L 32.28314100000002,997.8273499999996 L 33.28750600000002,997.2135699999995 L 32.98991600000002,996.7113899999996 M 84.02654400000003,996.8415799999996 L 82.91058400000003,997.2321699999995 L 83.09657400000003,997.8087499999996 L 84.23113400000003,997.3995599999996 L 84.02654400000003,996.8415799999996 M 15.878510000000034,997.1577699999996 L 15.692516000000033,997.7343499999996 L 16.827077000000035,998.0877399999996 L 17.013070000000035,997.5297599999996 L 15.878510000000034,997.1577699999996 M 82.33400400000004,997.4367599999996 L 81.21804400000003,997.8459499999996 L 81.42263400000003,998.4039299999996 L 82.53859400000003,997.9947399999996 L 82.33400400000004,997.4367599999996 M 31.464769000000032,997.6413599999996 L 30.441804000000033,998.2551399999996 L 30.757993000000035,998.7759199999996 L 31.780958000000034,998.1435399999996 L 31.464769000000032,997.6413599999996 M 17.571051000000033,997.7157599999996 L 17.38505700000003,998.2737399999996 L 18.519618000000033,998.6457299999996 L 18.705612000000034,998.0877499999996 L 17.571051000000033,997.7157599999996 M 26.777732000000032,998.0319499999996 C 25.622116000000034,998.0319499999996 24.657197000000032,998.8579899999996 24.43421300000003,999.9476899999996 L 24.35981300000003,999.9290899999996 L 24.17382000000003,1000.4870999999996 L 24.41561200000003,1000.5610999999996 C 24.48468200000003,1001.8198999999995 25.501697000000032,1002.8115999999995 26.77773000000003,1002.8115999999995 C 28.09843300000003,1002.8115999999995 29.17704600000003,1001.7515999999996 29.17704600000003,1000.4308999999995 C 29.17704600000003,999.1101699999995 28.09843300000003,998.0315499999995 26.77773000000003,998.0315499999995 L 26.777732000000032,998.0319499999996 M 80.66006400000003,998.0319499999996 L 79.54410400000003,998.4411399999996 L 79.74869400000003,998.9991199999996 L 80.86465400000003,998.6085299999996 L 80.66006400000003,998.0319499999996 M 57.89445400000004,998.1807499999996 L 57.35507400000004,998.4039399999997 L 57.782854000000036,999.5198999999997 L 58.34083400000004,999.2967099999996 L 57.89445400000004,998.1807499999996 M 19.282192000000038,998.2737499999996 L 19.096198000000037,998.8317399999996 L 20.212159000000035,999.2037199999996 L 20.398153000000036,998.6271399999996 L 19.282192000000038,998.2737499999996 M 29.939622000000035,998.5713399999996 L 28.916657000000036,999.2037199999996 L 29.232846000000038,999.7058999999996 L 30.255811000000037,999.0921299999995 L 29.939622000000035,998.5713399999995 L 29.939622000000035,998.5713399999996 M 78.98612400000003,998.6457399999996 L 77.85156400000004,999.0363299999996 L 78.05615400000003,999.5943099999996 L 79.17211400000004,999.2037199999996 L 78.98612400000003,998.6457399999996 M 20.97473300000003,998.8131399999996 L 20.788739000000028,999.3897199999997 L 21.92330000000003,999.7430999999997 L 22.10929400000003,999.1851199999996 L 20.97473300000003,998.8131399999996 M 72.56934400000003,999.2037199999996 C 71.52745400000003,999.2037199999996 70.67220400000004,1000.0589999999996 70.67220400000004,1001.1008999999997 C 70.67220400000004,1001.1398999999997 70.68840400000003,1001.1738999999997 70.69080400000004,1001.2124999999996 L 69.66784400000004,1001.4170999999997 L 69.79804400000005,1002.0121999999997 L 70.80240400000005,1001.7889999999996 C 71.07953400000005,1002.4860999999996 71.77349400000006,1002.9793999999996 72.56934400000006,1002.9793999999996 C 73.61123400000005,1002.9793999999996 74.44787400000006,1002.1427999999996 74.44787400000006,1001.1008999999996 C 74.44787400000006,1000.0589999999995 73.61123400000005,999.2037199999995 72.56934400000006,999.2037199999995 L 72.56934400000003,999.2037199999996 M 77.29357400000004,999.2409199999996 L 76.17761400000003,999.6315099999996 L 76.38221400000003,1000.2080999999996 L 77.49817400000003,999.7988999999995 L 77.29357400000004,999.2409199999995 L 77.29357400000004,999.2409199999996 M 22.667274000000035,999.3711199999996 L 22.481281000000035,999.9290999999996 L 23.615841000000035,1000.3010999999996 L 23.801835000000036,999.7430999999996 L 22.667274000000035,999.3711199999996 M 75.61963400000003,999.8360999999995 L 74.48507400000004,1000.2452999999996 L 74.68967400000004,1000.8032999999996 L 75.82423400000003,1000.3940999999995 L 75.61963400000003,999.8360999999995 M 58.56402400000003,999.8546999999995 L 58.00604400000003,1000.0592999999996 L 58.45243400000003,1001.1752999999995 L 59.01041400000003,1000.9520999999995 L 58.56402400000003,999.8546999999995 M 59.233604000000035,1001.5099999999995 L 58.675624000000035,1001.7331999999996 L 58.75002400000003,1001.9191999999996 C 57.910804000000034,1002.2984999999995 57.33647400000003,1003.1331999999996 57.33647400000003,1004.1139999999996 C 57.33647400000003,1004.7815999999996 57.60568400000003,1005.3874999999996 58.04324400000003,1005.8250999999996 L 57.950244000000026,1005.9180999999995 L 58.396624000000024,1006.3272999999996 L 58.526824000000026,1006.1970999999996 C 58.886084000000025,1006.4085999999996 59.30730400000002,1006.5318999999996 59.75437400000003,1006.5318999999996 C 61.08975400000003,1006.5318999999996 62.17229400000003,1005.4492999999997 62.17229400000003,1004.1139999999996 C 62.17229400000003,1003.9469999999995 62.14869400000003,1003.7877999999996 62.11649400000003,1003.6303999999996 L 62.228094000000034,1003.6113999999995 L 62.09789400000003,1003.0347999999996 L 61.930504000000035,1003.0717999999996 C 61.538534000000034,1002.2653999999995 60.711264000000035,1001.6953999999996 59.754374000000034,1001.6953999999996 C 59.60646400000003,1001.6953999999996 59.467174000000036,1001.7253999999996 59.326594000000036,1001.7513999999996 L 59.23359400000003,1001.5096999999996 L 59.233604000000035,1001.5099999999995 M 69.09126400000004,1001.5469999999996 L 67.91950400000003,1001.7887999999996 L 68.04970400000003,1002.3839999999996 L 69.20286400000003,1002.1235999999996 L 69.09126400000004,1001.5469999999996 M 67.34292400000004,1001.9189999999995 L 66.17116400000003,1002.1607999999995 L 66.30136400000004,1002.7559999999995 L 67.47312400000004,1002.4955999999995 L 67.34292400000004,1001.9189999999995 M 65.59458400000004,1002.2909999999995 L 64.42282400000003,1002.5327999999995 L 64.55302400000004,1003.1279999999995 L 65.72478400000004,1002.8675999999995 L 65.59458400000004,1002.2909999999995 M 63.84624400000004,1002.6629999999994 L 62.69308400000004,1002.9047999999995 L 62.804684000000044,1003.4999999999994 L 63.97644400000004,1003.2395999999994 L 63.84624400000004,1002.6629999999994 M 57.55966400000004,1006.3642999999994 L 56.74129400000004,1007.2383999999994 L 57.18767400000004,1007.6475999999994 L 57.98744400000004,1006.7734999999994 L 57.55966400000004,1006.3642999999994 M 56.35070400000004,1007.6847999999994 L 55.55093300000004,1008.5589999999994 L 55.978714000000046,1008.9681999999995 L 56.797094000000044,1008.0753999999995 L 56.35070400000004,1007.6847999999995 L 56.35070400000004,1007.6847999999994 M 55.14174800000004,1009.0053999999994 L 54.34197500000004,1009.8795999999994 L 54.78836000000004,1010.2886999999994 L 55.58813200000004,1009.3959999999994 L 55.141748000000035,1009.0053999999994 L 55.14174800000004,1009.0053999999994 M 53.93278900000004,1010.3258999999995 L 53.133017000000045,1011.2000999999995 L 53.579402000000044,1011.5906999999994 L 54.37917400000004,1010.7164999999994 L 53.93278900000004,1010.3258999999995 M 52.74243100000004,1011.6464999999995 L 51.94265900000004,1012.5206999999995 L 52.37044400000004,1012.9111999999994 L 53.17021600000004,1012.0370999999994 L 52.74243100000004,1011.6464999999995 M 51.533473000000036,1012.9483999999995 L 50.733700000000034,1013.8411999999995 L 51.16148600000003,1014.2317999999995 L 51.97985700000003,1013.3575999999995 L 51.53347300000003,1012.9483999999994 L 51.533473000000036,1012.9483999999995 M 50.324515000000034,1014.2689999999996 L 49.52474200000003,1015.1617999999995 L 49.97112700000003,1015.5523999999995 L 50.77089900000003,1014.6781999999995 L 50.32451500000003,1014.2689999999994 L 50.324515000000034,1014.2689999999996 M 49.13415600000003,1015.5894999999996 L 48.315784000000036,1016.4636999999996 L 48.762169000000036,1016.8728999999996 L 49.56194100000003,1015.9986999999996 L 49.13415600000003,1015.5894999999996 M 47.92519800000003,1016.9100999999996 L 47.12542600000003,1017.7842999999996 L 47.55321100000003,1018.1934999999996 L 48.35298300000003,1017.3192999999997 L 47.92519800000003,1016.9100999999996 M 46.71624000000003,1018.2306999999996 L 45.91646800000003,1019.1047999999996 L 46.36285200000003,1019.5139999999997 L 47.16262400000003,1018.6397999999997 L 46.71624000000003,1018.2306999999997 L 46.71624000000003,1018.2306999999996 M 44.205327000000025,1018.7141999999997 C 43.060720000000025,1018.7141999999997 42.14079900000002,1019.6341999999996 42.14079900000002,1020.7787999999997 C 42.14079900000002,1021.5328999999997 42.54292600000002,1022.2016999999997 43.14516400000002,1022.5642999999997 L 42.624382000000026,1023.3640999999997 L 43.12656400000002,1023.6988999999996 L 43.72174400000002,1022.7874999999997 C 43.87991300000002,1022.8264999999997 44.03525400000002,1022.8614999999996 44.205327000000025,1022.8614999999996 C 45.349934000000026,1022.8614999999996 46.28845500000003,1021.9229999999997 46.28845500000003,1020.7783999999997 C 46.28845500000003,1019.6337999999997 45.349934000000026,1018.7137999999997 44.205327000000025,1018.7137999999997 L 44.205327000000025,1018.7141999999997 M 42.289593000000025,1023.8662999999997 L 41.63861600000003,1024.8705999999997 L 42.14079900000003,1025.1867999999997 L 42.79177600000003,1024.2009999999998 L 42.289593000000025,1023.8662999999998 L 42.289593000000025,1023.8662999999997 M 41.322427000000026,1025.3727999999996 L 40.67145000000003,1026.3585999999996 L 41.173632000000026,1026.6933999999997 L 41.82461000000003,1025.6889999999996 L 41.322427000000026,1025.3727999999996 M 40.33666100000003,1026.8607999999997 L 39.68568400000003,1027.8650999999998 L 40.18786600000003,1028.1812999999997 L 40.83884400000003,1027.1954999999998 L 40.33666100000003,1026.8607999999997 M 39.36949500000003,1028.3486999999998 L 38.71851700000003,1029.3530999999998 L 39.22070000000003,1029.6879 L 39.87167700000003,1028.6834999999999 L 39.36949500000003,1028.3486999999998 M 38.38372900000003,1029.8552999999997 L 37.75135100000003,1030.8409999999997 L 38.23493400000003,1031.1757999999998 L 38.88591100000003,1030.1713999999997 L 38.38372900000003,1029.8552999999997 M 37.41656200000003,1031.3431999999998 L 36.76558500000003,1032.3475999999998 L 37.26776800000003,1032.6637999999998 L 37.91874500000003,1031.6779999999999 L 37.41656200000003,1031.3431999999998 M 36.44939600000003,1032.8496999999998 L 35.79841900000003,1033.8354999999997 L 36.282002000000034,1034.1702999999998 L 36.93297900000003,1033.1658999999997 L 36.44939600000003,1032.8496999999998 M 35.46363000000003,1034.3376999999998 L 34.81265300000003,1035.3420999999998 L 35.31483500000003,1035.6582999999998 L 35.96581300000003,1034.6725 L 35.46363000000003,1034.3376999999998 M 34.49646400000003,1035.8256 L 33.84548600000003,1036.83 L 34.32907000000003,1037.1648 L 34.98004700000003,1036.1604 L 34.496464000000024,1035.8256 L 34.49646400000003,1035.8256 M 3.416942000000031,1037.1462 C 2.110912900000031,1037.1462 1.0548239000000308,1038.2023 1.0548239000000308,1039.5083 C 1.0548239000000308,1040.8144 2.110912900000031,1041.8704 3.416942000000031,1041.8704 C 4.641702000000031,1041.8704 5.658442000000031,1040.9431 5.779060000000031,1039.7501 L 6.244044000000032,1039.8061 L 6.3184440000000315,1039.2109 L 5.760464000000032,1039.1369 C 5.577561000000032,1038.0129 4.592680000000032,1037.1468 3.4169450000000317,1037.1468 L 3.416942000000031,1037.1462 M 33.51069800000003,1037.3321999999998 L 32.859721000000036,1038.3179999999998 L 33.361903000000034,1038.6526999999999 L 34.012881000000036,1037.6483999999998 L 33.51069800000003,1037.3321999999998 M 30.757993000000035,1038.6898999999999 C 28.998968000000033,1038.6898999999999 27.564880000000034,1040.0533999999998 27.428709000000033,1041.7774 L 26.405744000000034,1041.6471999999999 L 26.331344000000033,1042.2423999999999 L 27.428706000000034,1042.3911999999998 C 27.608528000000035,1044.0706999999998 29.030813000000034,1045.3856999999998 30.757990000000035,1045.3856999999998 C 32.60697600000003,1045.3856999999998 34.105874000000036,1043.8867999999998 34.105874000000036,1042.0377999999998 C 34.105874000000036,1040.9828999999997 33.62215400000004,1040.0475999999999 32.859718000000036,1039.4338999999998 L 33.04571100000004,1039.1548999999998 L 32.54352900000004,1038.8200999999997 L 32.35753500000004,1039.0990999999997 C 31.88316200000004,1038.8413999999996 31.33579800000004,1038.6898999999996 30.757990000000042,1038.6898999999996 L 30.757993000000035,1038.6898999999999 M 6.895021000000035,1039.2850999999998 L 6.839221000000036,1039.8802999999998 L 8.010981000000037,1040.0104999999999 L 8.085381000000037,1039.4338999999998 L 6.895022000000037,1039.2850999999998 L 6.895021000000035,1039.2850999999998 M 8.680559000000036,1039.4896999999999 L 8.606159000000035,1040.0848999999998 L 9.777918000000035,1040.2336999999998 L 9.852318000000036,1039.6384999999998 L 8.680558000000037,1039.4896999999999 L 8.680559000000036,1039.4896999999999 M 10.447498000000037,1039.7128999999998 L 10.373098000000036,1040.3080999999997 L 11.563456000000036,1040.4382999999998 L 11.619256000000036,1039.8616999999997 L 10.447497000000036,1039.7128999999998 L 10.447498000000037,1039.7128999999998 M 12.214437000000038,1039.9360999999997 L 12.140037000000037,1040.5126999999998 L 13.330396000000036,1040.6614999999997 L 13.404796000000037,1040.0662999999997 L 12.214437000000036,1039.9360999999997 L 12.214437000000038,1039.9360999999997 M 13.999975000000038,1040.1406999999997 L 13.925575000000038,1040.7358999999997 L 15.097335000000037,1040.8846999999996 L 15.171735000000037,1040.2894999999996 L 13.999976000000038,1040.1406999999997 L 13.999975000000038,1040.1406999999997 M 15.766914000000039,1040.3638999999996 L 15.692514000000038,1040.9590999999996 L 16.88287300000004,1041.0892999999996 L 16.93867300000004,1040.4940999999997 L 15.76691400000004,1040.3638999999996 L 15.766914000000039,1040.3638999999996 M 17.53385200000004,1040.5684999999996 L 17.459452000000038,1041.1636999999996 L 18.64981100000004,1041.3124999999995 L 18.72421100000004,1040.7172999999996 L 17.53385200000004,1040.5684999999996 M 19.30079100000004,1040.7916999999995 L 19.244991000000038,1041.3868999999995 L 20.41675000000004,1041.5169999999996 L 20.49115000000004,1040.9404999999997 L 19.30079100000004,1040.7916999999998 L 19.30079100000004,1040.7916999999995 M 21.08632900000004,1040.9962999999996 L 21.011929000000038,1041.5913999999996 L 22.18368800000004,1041.7401999999995 L 22.25808800000004,1041.1450999999995 L 21.08632900000004,1040.9962999999996 M 22.85326800000004,1041.2194999999995 L 22.77886800000004,1041.8145999999995 L 23.96922700000004,1041.9633999999994 L 24.04362700000004,1041.3682999999994 L 22.85326900000004,1041.2194999999995 L 22.85326800000004,1041.2194999999995 M 24.62020600000004,1041.4426999999994 L 24.545806000000038,1042.0191999999993 L 25.73616500000004,1042.1679999999992 L 25.81056500000004,1041.5727999999992 L 24.62020600000004,1041.4426999999991 L 24.62020600000004,1041.4426999999994" display="inline" fill="#000000" fill-opacity="1" marker="none" overflow="visible" stroke="none" style="text-indent:0;text-transform:none;direction:ltr;block-progression:tb;baseline-shift:baseline;color:#000000;enable-background:accumulate;" visibility="visible"/>
</svg>
