<?xml version="1.0" ?>
<svg xmlns="http://www.w3.org/2000/svg" xmlns:cc="http://creativecommons.org/ns#" xmlns:dc="http://purl.org/dc/elements/1.1/" xmlns:ev="http://www.w3.org/2001/xml-events" xmlns:inkscape="http://www.inkscape.org/namespaces/inkscape" xmlns:rdf="http://www.w3.org/1999/02/22-rdf-syntax-ns#" xmlns:sodipodi="http://sodipodi.sourceforge.net/DTD/sodipodi-0.dtd" xmlns:svg="http://www.w3.org/2000/svg" xmlns:xlink="http://www.w3.org/1999/xlink" baseProfile="full" height="600px" version="1.1" viewBox="0 0 100 100" width="367px" x="0px" y="0px">
	<defs/>
	<path d="M 37.90735,953.51227 L 37.90735,975.3870599999999 L 35.690220000000004,975.39506 L 29.327170000000002,1031.9966 L 23.613820000000004,1031.9966 C 23.613820000000004,1039.5823 26.233670000000004,1045.0697 30.297660000000004,1048.8159 C 30.740550000000002,1048.8609000000001 31.210460000000005,1048.8889000000001 31.706710000000005,1048.8889000000001 C 35.51832,1048.8889000000001 37.801770000000005,1047.3621 37.801770000000005,1047.3621 C 37.801770000000005,1047.3621 40.089270000000006,1048.8889000000001 43.90088,1048.8889000000001 C 47.71249,1048.8889000000001 50.0,1047.3621 50.0,1047.3621 C 50.0,1047.3621 52.2875,1048.8889000000001 56.099109999999996,1048.8889000000001 C 59.91072,1048.8889000000001 62.19821999999999,1047.3621 62.19821999999999,1047.3621 C 62.19821999999999,1047.3621 64.48572999999999,1048.8889000000001 68.29733999999999,1048.8889000000001 C 68.48307999999999,1048.8889000000001 68.66305,1048.8889000000001 68.84146999999999,1048.8769000000002 C 72.94299999999998,1045.1294000000003 75.59028999999998,1039.6233000000002 75.59028999999998,1031.9967000000001 L 70.30330999999998,1031.9967000000001 L 64.13921999999998,975.2814400000002 L 61.29675999999998,975.2936400000002 L 61.29675999999998,953.5122500000002 L 37.90734999999998,953.5122500000002 L 37.90735,953.51227 M 40.50617,956.11109 L 49.08229,956.11109 L 49.08229,957.94245 C 46.45555,958.07275 44.4044,959.18144 44.4044,960.52909 L 43.19839,966.56324 C 42.321400000000004,966.87851 41.805580000000006,967.2627399999999 41.805580000000006,967.67586 C 41.805580000000006,968.64419 44.633430000000004,969.4449099999999 48.33512,969.59655 C 48.314420000000005,969.68855 48.302620000000005,969.78658 48.302620000000005,969.88486 C 48.302620000000005,970.6025 48.88439,971.18427 49.602030000000006,971.18427 C 50.319680000000005,971.18427 50.90144000000001,970.6025 50.90144000000001,969.88486 C 50.90144000000001,969.78656 50.88964000000001,969.68859 50.86894000000001,969.59655 C 54.57063000000001,969.4449099999999 57.398480000000006,968.64419 57.398480000000006,967.67586 C 57.398480000000006,967.2627399999999 56.88266000000001,966.8785099999999 56.00567000000001,966.56324 L 54.79966000000001,960.52909 C 54.79966000000001,959.22627 52.88246000000001,958.14675 50.38166000000001,957.95869 L 50.38166000000001,956.1110900000001 L 58.69789000000001,956.1110900000001 L 58.69789000000001,973.0034500000002 L 40.50613000000001,973.0034500000002 L 40.50613000000001,956.1110900000001 L 40.50617,956.11109 M 40.424969999999995,978.72086 L 61.296769999999995,978.72086 L 62.80732999999999,991.98704 L 40.424969999999995,978.72086 M 38.34996999999999,980.54816 L 63.18090999999999,995.2680600000001 L 63.29460999999999,996.2466800000001 L 35.53592999999999,1005.2532000000001 L 38.34996999999999,980.54816 M 63.59509999999999,998.8820400000001 L 66.42132,1023.6968 L 35.09331999999999,1009.1109 L 35.21107999999999,1008.0876000000001 L 63.59509999999999,998.8820400000001 M 34.76439999999999,1012.0020000000001 L 66.78678,1026.9087 L 67.14411999999999,1030.0475999999999 L 50.00812999999999,1030.0475999999999 L 32.70970999999999,1030.0475999999999 L 34.76439999999999,1012.0019999999998 L 34.76439999999999,1012.0020000000001 M 25.554819999999985,1048.6414 A 0.67639095,0.67639095 0.0 0,0 25.510119999999986,1048.6414 A 0.67639095,0.67639095 0.0 0,0 25.156849999999988,1048.7916 A 0.67639095,0.67639095 0.0 0,0 25.14884999999999,1048.7916 C 24.97327999999999,1048.9054 23.04618999999999,1050.106 19.71567999999999,1050.1479 L 19.71567999999999,1051.5001 C 22.748349999999988,1051.4631 24.82204999999999,1050.5095999999999 25.591459999999987,1050.0910999999999 C 26.373289999999987,1050.5168999999999 28.510479999999987,1051.5041999999999 31.645899999999987,1051.5041999999999 C 34.777079999999984,1051.5041999999999 36.915739999999985,1050.5178999999998 37.700349999999986,1050.0910999999999 C 38.482179999999985,1050.5168999999999 40.61936999999999,1051.5041999999999 43.75479999999999,1051.5041999999999 C 46.885969999999986,1051.5041999999999 49.02463999999999,1050.5178999999998 49.80923999999999,1050.0910999999999 C 50.59340999999999,1050.5177999999999 52.73183999999999,1051.5041999999999 55.86368999999999,1051.5041999999999 C 58.99485999999999,1051.5041999999999 61.12946999999999,1050.5178999999998 61.91407999999999,1050.0910999999999 C 62.69823999999999,1050.5177999999999 64.83667,1051.5041999999999 67.96851999999998,1051.5041999999999 C 71.09969999999998,1051.5041999999999 73.23835999999999,1050.5178999999998 74.02296999999999,1050.0910999999999 C 74.75704999999999,1050.4904999999999 76.67698999999999,1051.3799 79.48861999999998,1051.492 L 79.48861999999998,1050.1357 C 76.38194999999999,1050.0044 74.59653999999998,1048.8743 74.45745999999998,1048.7835 C 74.45693999999999,1048.7831 74.44945999999999,1048.7835 74.44945999999999,1048.7835 A 0.67639095,0.67639095 0.0 0,0 74.05151999999998,1048.6373 A 0.67639095,0.67639095 0.0 0,0 73.94187999999998,1048.6373 A 0.67639095,0.67639095 0.0 0,0 73.58859999999999,1048.7876 A 0.67639095,0.67639095 0.0 0,0 73.58059999999999,1048.7876 C 73.40191999999999,1048.9034000000001 71.40879,1050.1479000000002 67.96875999999999,1050.1479000000002 C 64.49904,1050.1479000000002 62.49644999999999,1048.8759000000002 62.348809999999986,1048.7795 C 62.348289999999984,1048.7791000000002 62.34480999999999,1048.7795 62.34480999999999,1048.7795 A 0.67639095,0.67639095 0.0 0,0 61.94280999999999,1048.6333000000002 A 0.67639095,0.67639095 0.0 0,0 61.83316999999999,1048.6333000000002 A 0.67639095,0.67639095 0.0 0,0 61.47988999999999,1048.7835000000002 A 0.67639095,0.67639095 0.0 0,0 61.47188999999999,1048.7835000000002 C 61.29320999999999,1048.8993000000003 59.30413999999999,1050.1439000000003 55.864119999999986,1050.1439000000003 C 52.39439999999998,1050.1439000000003 50.38773999999999,1048.8718000000003 50.240099999999984,1048.7754000000002 C 50.23957999999998,1048.7750000000003 50.236099999999986,1048.7754000000002 50.236099999999986,1048.7754000000002 A 0.67639095,0.67639095 0.0 0,0 49.838149999999985,1048.6292000000003 A 0.67639095,0.67639095 0.0 0,0 49.728509999999986,1048.6292000000003 A 0.67639095,0.67639095 0.0 0,0 49.375239999999984,1048.7795000000003 A 0.67639095,0.67639095 0.0 0,0 49.36723999999998,1048.7795000000003 C 49.18855999999998,1048.8953000000004 47.195419999999984,1050.1398000000004 43.75539999999998,1050.1398000000004 C 40.28567999999998,1050.1398000000004 38.27902999999998,1048.8678000000004 38.13137999999998,1048.7713000000003 C 38.13085999999998,1048.7710000000004 38.12737999999998,1048.7713000000003 38.12737999999998,1048.7713000000003 A 0.67639095,0.67639095 0.0 0,0 37.72943999999998,1048.6252000000004 A 0.67639095,0.67639095 0.0 0,0 37.619799999999984,1048.6252000000004 A 0.67639095,0.67639095 0.0 0,0 37.266519999999986,1048.7754000000004 A 0.67639095,0.67639095 0.0 0,0 37.25851999999998,1048.7754000000004 C 37.07983999999998,1048.8912000000005 35.08670999999998,1050.1357000000005 31.646679999999982,1050.1357000000005 C 28.173699999999982,1050.1357000000005 26.17091999999998,1048.8615000000004 26.026729999999983,1048.7673000000004 C 26.02620999999998,1048.7670000000005 26.02272999999998,1048.7673000000004 26.02272999999998,1048.7673000000004 A 0.67639095,0.67639095 0.0 0,0 25.62072999999998,1048.6211000000005 A 0.67639095,0.67639095 0.0 0,0 25.55572999999998,1048.6211000000005 L 25.554819999999985,1048.6414" fill="#000000" stroke="none"/>
</svg>
