<?xml version="1.0" ?>
<svg xmlns="http://www.w3.org/2000/svg" xmlns:cc="http://creativecommons.org/ns#" xmlns:dc="http://purl.org/dc/elements/1.1/" xmlns:ev="http://www.w3.org/2001/xml-events" xmlns:inkscape="http://www.inkscape.org/namespaces/inkscape" xmlns:rdf="http://www.w3.org/1999/02/22-rdf-syntax-ns#" xmlns:sodipodi="http://sodipodi.sourceforge.net/DTD/sodipodi-0.dtd" xmlns:svg="http://www.w3.org/2000/svg" xmlns:xlink="http://www.w3.org/1999/xlink" baseProfile="full" height="97px" version="1.1" viewBox="0 0 80 80" width="600px" x="0px" y="0px">
	<defs/>
	<path d="M 8.620657,38.106879 C 7.369723,38.762857 5.966235999999999,39.037452 4.745811999999999,39.754450999999996 C 3.1287512999999993,40.593492 1.420158499999999,41.874936 1.221839699999999,43.84286899999999 C 0.9167337999999989,45.41416399999999 1.877817299999999,46.893927999999995 3.144006599999999,47.717713999999994 C 4.090452999999999,48.32427599999999 5.094391999999999,48.815439999999995 6.134043999999999,49.216545999999994 C 8.908083,49.13431599999999 10.546270999999999,48.05976 10.584776,48.034260999999994 C 10.589376,48.03076099999999 10.595086,48.025760999999996 10.600026,48.02282099999999 C 10.603026,48.01952099999999 10.604326,48.01822099999999 10.607626,48.015221 C 10.609226,48.01362099999999 10.609826,48.00912099999999 10.611426,48.007621 C 10.635406,47.997821 10.662036,47.996341 10.687706,48.000021000000004 C 10.689306,47.999995000000006 10.693706,47.999995000000006 10.695306,48.000021000000004 C 10.698506,47.999917 10.699806,47.999917 10.702906,48.000021000000004 C 10.704506,47.999995000000006 10.708906,47.999995000000006 10.710506,48.000021000000004 C 10.713706,48.001521000000004 10.715006,48.002121 10.718106,48.003821 C 10.719706,48.003796 10.720306,48.003796 10.721906,48.003821 C 10.725106,48.003718 10.730206,48.003718 10.733346000000001,48.003821 C 10.738246,48.006721 10.744026000000002,48.011821000000005 10.748596000000001,48.015261 C 10.753496,48.018161 10.755496,48.019461 10.760036000000001,48.022861 C 10.763236000000001,48.024361 10.768336000000001,48.028760999999996 10.771476000000002,48.030460999999995 C 10.771584000000002,48.030533 10.775076000000002,48.034161 10.775276000000002,48.034260999999994 C 10.778476000000001,48.035760999999994 10.783576000000002,48.03636099999999 10.786716000000002,48.03806099999999 C 10.851086000000002,48.08043099999999 12.604996000000002,49.22034699999999 15.561623,49.22034699999999 C 18.539465,49.22034699999999 20.307865,48.06076099999999 20.347971,48.03424799999999 C 20.348093000000002,48.03413199999999 20.351671,48.03054799999999 20.351771,48.03044799999999 C 20.353371,48.02884799999999 20.357771,48.02434799999999 20.359371,48.022847999999996 C 20.359386999999998,48.02283 20.363170999999998,48.022847999999996 20.363170999999998,48.022847999999996 C 20.366170999999998,48.01954799999999 20.367471,48.01824799999999 20.370770999999998,48.015248 C 20.372370999999998,48.013647999999996 20.376770999999998,48.009147999999996 20.378370999999998,48.007648 C 20.381570999999997,48.007544 20.382870999999998,48.007544 20.385970999999998,48.007648 C 20.407080999999998,47.999348000000005 20.432031,47.997948 20.454621,48.00004800000001 C 20.456221,48.000023000000006 20.456820999999998,48.000023000000006 20.458420999999998,48.00004800000001 C 20.461620999999997,47.999944000000006 20.462920999999998,47.999944000000006 20.466020999999998,48.00004800000001 C 20.467620999999998,48.000023000000006 20.472020999999998,48.000023000000006 20.473620999999998,48.00004800000001 C 20.476820999999997,48.00154800000001 20.478120999999998,48.002148000000005 20.481220999999998,48.003848000000005 C 20.482820999999998,48.00382200000001 20.483420999999996,48.00382200000001 20.485020999999996,48.003848000000005 C 20.493220999999995,48.006348 20.504070999999996,48.011448 20.511720999999998,48.015288000000005 C 20.516620999999997,48.018188 20.518621,48.019488 20.523160999999998,48.022888 C 20.523160999999998,48.022888 20.534450999999997,48.030388 20.534601,48.030488 C 20.539500999999998,48.033387999999995 20.545281,48.034687999999996 20.549851,48.038087999999995 C 20.614221,48.08045799999999 22.368131,49.220372999999995 25.324758,49.220372999999995 C 28.302599999999998,49.220372999999995 30.071008,48.060787999999995 30.111106,48.034273999999996 C 30.111563999999998,48.034029999999994 30.126356,48.022844 30.126356,48.022844 C 30.129356,48.019543999999996 30.130656000000002,48.018243999999996 30.133956,48.015244 C 30.135556,48.013644 30.139956,48.009144 30.141556,48.007644000000006 C 30.144756,48.007540000000006 30.146056,48.007540000000006 30.149156,48.007644000000006 C 30.170266,47.99934400000001 30.195226,47.997944000000004 30.217806000000003,48.00004400000001 C 30.219406000000003,48.00001800000001 30.220006,48.00001800000001 30.221606,48.00004400000001 C 30.224806,47.99994000000001 30.226106,47.99994000000001 30.229206,48.00004400000001 C 30.230806,48.00001800000001 30.235206,48.00001800000001 30.236806,48.00004400000001 C 30.240006,48.00154400000001 30.241306,48.00214400000001 30.244406,48.00384400000001 C 30.246006,48.00381800000001 30.246606,48.00381800000001 30.248206,48.00384400000001 C 30.253006,48.00514400000001 30.258776,48.00584400000001 30.263456,48.007644000000006 C 30.266656,48.009144000000006 30.271756,48.013544 30.274896000000002,48.015244 C 30.279796,48.018144 30.281796000000003,48.019444 30.286336000000002,48.022844 C 30.286336000000002,48.022844 30.297626,48.030344 30.297776000000002,48.030443999999996 C 30.302676,48.03334399999999 30.308456000000003,48.03464399999999 30.313036000000004,48.03804399999999 C 30.377406000000004,48.08041399999999 32.131316000000005,49.22032899999999 35.087942000000005,49.22032899999999 C 38.065785000000005,49.22032899999999 39.8342,48.06074399999999 39.87429,48.034229999999994 C 39.874748000000004,48.03398599999999 39.88955,48.0228 39.88955,48.0228 C 39.89255,48.019499999999994 39.89385,48.01819999999999 39.897149999999996,48.0152 C 39.89875,48.0136 39.90315,48.0091 39.90474999999999,48.007600000000004 C 39.90794999999999,48.007496 39.90924999999999,48.007496 39.91234999999999,48.007600000000004 C 39.93345999999999,47.999300000000005 39.95841999999999,47.9979 39.98099999999999,48.00000000000001 C 39.98259999999999,47.99997400000001 39.98319999999999,47.99997400000001 39.984799999999986,48.00000000000001 C 39.987999999999985,47.99989600000001 39.989299999999986,47.99989600000001 39.99239999999998,48.00000000000001 C 39.993999999999986,47.99997400000001 39.99839999999998,47.99997400000001 39.99999999999998,48.00000000000001 C 40.00319999999998,48.00150000000001 40.00449999999998,48.002100000000006 40.007599999999975,48.003800000000005 C 40.00919999999998,48.00377400000001 40.00979999999998,48.00377400000001 40.01139999999997,48.003800000000005 C 40.019599999999976,48.0063 40.03044999999997,48.0114 40.03809999999997,48.01523 C 40.04299999999997,48.01813 40.04499999999997,48.01943 40.04953999999997,48.02283 C 40.04953999999997,48.02283 40.060829999999974,48.03033 40.06097999999997,48.030429999999996 C 40.06587999999997,48.03332999999999 40.07165999999997,48.03462999999999 40.076229999999974,48.03802999999999 C 40.14059999999997,48.08039999999999 41.894509999999975,49.22031499999999 44.85113699999997,49.22031499999999 C 47.828978999999975,49.22031499999999 49.59739399999997,48.06072999999999 49.63748499999997,48.034215999999994 C 49.63794199999997,48.03397199999999 49.65273499999997,48.022785999999996 49.65273499999997,48.022785999999996 C 49.65573499999997,48.01948599999999 49.65703499999997,48.01818599999999 49.66033499999997,48.015186 C 49.66193499999997,48.013586 49.66633499999997,48.009085999999996 49.667934999999964,48.007586 C 49.671134999999964,48.007482 49.672434999999965,48.007482 49.67553499999996,48.007586 C 49.69664499999996,47.999286000000005 49.72159499999996,47.997886 49.74418499999996,47.99998600000001 C 49.74578499999996,47.99996000000001 49.74638499999996,47.99996000000001 49.74798499999996,47.99998600000001 C 49.75118499999996,47.99988200000001 49.75248499999996,47.99988200000001 49.755584999999954,47.99998600000001 C 49.75718499999996,47.99996000000001 49.761584999999954,47.99996000000001 49.76318499999995,47.99998600000001 C 49.76638499999995,48.00148600000001 49.76768499999995,48.002086000000006 49.77078499999995,48.003786000000005 C 49.77238499999995,48.00376000000001 49.77298499999995,48.00376000000001 49.774584999999945,48.003786000000005 C 49.78278499999995,48.006286 49.793634999999945,48.011386 49.80128499999994,48.015216 C 49.80618499999994,48.018116 49.808184999999945,48.019416 49.81272499999994,48.022816 C 49.81272499999994,48.022816 49.824014999999946,48.030316 49.824164999999944,48.030415999999995 C 49.82906499999994,48.03331599999999 49.834844999999945,48.03461599999999 49.83942499999994,48.03801599999999 C 49.90379499999994,48.08038599999999 51.65770499999994,49.22030099999999 54.61433199999994,49.22030099999999 C 57.59217399999994,49.22030099999999 59.36058899999994,48.06071599999999 59.40067999999994,48.03420199999999 C 59.40113799999994,48.03395799999999 59.41592999999994,48.022771999999996 59.41592999999994,48.022771999999996 C 59.41892999999994,48.01947199999999 59.42022999999994,48.01817199999999 59.423529999999936,48.015172 C 59.42512999999994,48.013571999999996 59.429529999999936,48.009071999999996 59.43112999999993,48.007572 C 59.43432999999993,48.007469 59.43562999999993,48.007469 59.43872999999993,48.007572 C 59.45983999999993,47.999272000000005 59.484789999999926,47.997872 59.50737999999993,47.99997200000001 C 59.50897999999993,47.99994600000001 59.50957999999993,47.99994600000001 59.511179999999925,47.99997200000001 C 59.514379999999925,47.999868000000006 59.515679999999925,47.999868000000006 59.51877999999992,47.99997200000001 C 59.520379999999925,47.99994600000001 59.52477999999992,47.99994600000001 59.52637999999992,47.99997200000001 C 59.52957999999992,48.00147200000001 59.53087999999992,48.002072000000005 59.533979999999914,48.003772000000005 C 59.53557999999992,48.00374600000001 59.536179999999916,48.00374600000001 59.53777999999991,48.003772000000005 C 59.545979999999915,48.006272 59.55682999999991,48.011372 59.56447999999991,48.015202 C 59.56937999999991,48.018102 59.57137999999991,48.019402 59.57591999999991,48.022802 C 59.57591999999991,48.022802 59.587209999999914,48.030302 59.58735999999991,48.030401999999995 C 59.59225999999991,48.03330199999999 59.59803999999991,48.03460199999999 59.60261999999991,48.03800199999999 C 59.666989999999906,48.08037199999999 61.42089999999991,49.22028699999999 64.3775259999999,49.22028699999999 C 67.35536899999991,49.22028699999999 69.1237829999999,48.06070199999999 69.16387399999991,48.03418799999999 C 69.1643319999999,48.03394399999999 69.1791339999999,48.022757999999996 69.1791339999999,48.022757999999996 C 69.1821339999999,48.01945799999999 69.1834339999999,48.01815799999999 69.1867339999999,48.015158 C 69.1883339999999,48.013557999999996 69.1927339999999,48.009057999999996 69.1943339999999,48.007558 C 69.1975339999999,48.007455 69.19883399999989,48.007455 69.2019339999999,48.007558 C 69.22304399999989,47.999258000000005 69.24799399999989,47.997858 69.2705839999999,47.99995800000001 C 69.2721839999999,47.99993200000001 69.2727839999999,47.99993200000001 69.2743839999999,47.99995800000001 C 69.2775839999999,47.999854000000006 69.27888399999989,47.999854000000006 69.2819839999999,47.99995800000001 C 69.28358399999989,47.99993200000001 69.2879839999999,47.99993200000001 69.28958399999989,47.99995800000001 C 69.2927839999999,48.00145800000001 69.29408399999988,48.002058000000005 69.29718399999989,48.003758000000005 C 69.29878399999988,48.003733000000004 69.29938399999989,48.003733000000004 69.30098399999989,48.003758000000005 C 69.30918399999989,48.006258 69.32003399999988,48.011358 69.32768399999989,48.015198000000005 C 69.3325839999999,48.018098 69.3345839999999,48.019398 69.33912399999988,48.022798 C 69.33912399999988,48.022798 69.35041399999989,48.030298 69.35056399999988,48.030398 C 69.35546399999988,48.033297999999995 69.36124399999987,48.034597999999995 69.36581399999987,48.037997999999995 C 69.42604399999988,48.07763799999999 70.96406199999987,49.080234 73.58390199999987,49.20884099999999 C 73.79135299999987,49.12316099999999 73.99780099999987,49.03439999999999 74.20174199999987,48.93805999999999 C 75.48318599999986,48.282081999999996 76.79514099999987,47.39727499999999 77.35958699999986,46.009043999999996 C 77.98505399999986,44.331016999999996 77.37484699999986,42.43935999999999 76.18492999999987,41.18842599999999 C 74.78144299999987,39.739172999999994 72.84402099999987,39.06794099999999 71.07440699999987,38.213643999999995 C 69.94551499999987,39.723918 69.06070799999986,41.676595999999996 67.13854099999986,42.347829 C 64.31631199999987,43.461465 61.20423199999986,43.430954 58.22944999999986,43.797081 C 50.372974999999855,44.178464 42.50124399999986,43.919124 34.62951299999986,43.9954 C 28.46637399999986,44.01065 22.27272599999986,44.102186999999994 16.14009799999986,43.278400999999995 C 14.49252599999986,43.019060999999994 12.73816799999986,42.82074299999999 11.33468099999986,41.798638 C 10.144767999999859,40.807044 9.39725899999986,39.418811999999996 8.61923899999986,38.106857 L 8.620657,38.106879" fill="#010101" stroke="#010101" stroke-width="0.01430184"/>
	<path d="M 69.260445,49.382946 C 69.260445,49.382946 71.09108,50.603368999999994 74.142139,50.603368999999994 C 77.193197,50.603368999999994 79.023832,49.382946 79.023832,49.382946 M 59.497057999999996,49.382946 C 59.497057999999996,49.382946 61.327693,50.603368999999994 64.378751,50.603368999999994 C 67.42980999999999,50.603368999999994 69.26044499999999,49.382946 69.26044499999999,49.382946 M 49.73366999999999,49.382946 C 49.73366999999999,49.382946 51.56430499999999,50.603368999999994 54.61536399999999,50.603368999999994 C 57.66642199999999,50.603368999999994 59.497057999999996,49.382946 59.497057999999996,49.382946 M 39.970282999999995,49.382946 C 39.970282999999995,49.382946 41.800917999999996,50.603368999999994 44.851977,50.603368999999994 C 47.903034999999996,50.603368999999994 49.73367,49.382946 49.73367,49.382946 M 30.206895999999997,49.382946 C 30.206895999999997,49.382946 32.037530999999994,50.603368999999994 35.088589,50.603368999999994 C 38.139648,50.603368999999994 39.970283,49.382946 39.970283,49.382946 M 20.443508,49.382946 C 20.443508,49.382946 22.274144,50.603368999999994 25.325202,50.603368999999994 C 28.376261,50.603368999999994 30.206896,49.382946 30.206896,49.382946 M 10.680121,49.382946 C 10.680121,49.382946 12.510756,50.603368999999994 15.561815,50.603368999999994 C 18.612873,50.603368999999994 20.443508,49.382946 20.443508,49.382946 M 0.9167338000000029,49.382946 C 0.9167338000000029,49.382946 2.7473689000000032,50.603368999999994 5.798427000000003,50.603368999999994 C 8.849486000000002,50.603368999999994 10.680121000000003,49.382946 10.680121000000003,49.382946" fill="none" stroke="#000000" stroke-dasharray="none" stroke-linecap="round" stroke-linejoin="miter" stroke-miterlimit="4" stroke-opacity="1" stroke-width="1.09280002"/>
</svg>
