<?xml version="1.0" ?>
<svg xmlns="http://www.w3.org/2000/svg" xmlns:ev="http://www.w3.org/2001/xml-events" xmlns:xlink="http://www.w3.org/1999/xlink" baseProfile="full" enable-background="new 0 0 100 58.84" height="354px" version="1.1" viewBox="0 0 100 58.84" width="600px" x="0px" xml:space="preserve" y="0px">
	<defs/>
	<path clip-rule="evenodd" d="M 82.369,23.536 C 80.128,23.536 77.846,23.984 75.753,24.806 C 75.721,24.843 75.721,24.843 75.721,24.843 C 73.70100000000001,21.072 71.685,17.297 69.668,13.526 C 70.22800000000001,12.142 70.789,10.796 71.31200000000001,9.451 C 73.89200000000001,9.451 75.98500000000001,7.323 75.98500000000001,4.746 C 75.98500000000001,4.708 75.98500000000001,4.708 75.98500000000001,4.708 C 70.49200000000002,4.708 65.00000000000001,4.708 59.509000000000015,4.708 C 58.90600000000001,4.708 58.35200000000002,5.2700000000000005 58.35200000000002,5.907 C 58.35200000000002,6.428 58.68400000000002,6.877 59.20800000000002,7.027 C 61.63500000000002,7.6610000000000005 64.06800000000003,8.297 66.49200000000002,8.891 C 65.81800000000001,10.459 65.18200000000002,11.993 64.55300000000003,13.526 C 53.831000000000024,13.526 43.10700000000003,13.526 32.42100000000003,13.526 C 32.42100000000003,13.526 33.02100000000003,11.546 33.132000000000026,11.131 C 33.318000000000026,10.422 33.431000000000026,10.162 33.431000000000026,9.413 C 33.431000000000026,7.734 32.38700000000003,6.688000000000001 30.931000000000026,5.866 C 30.893000000000026,5.83 30.855000000000025,5.7909999999999995 30.855000000000025,5.7909999999999995 C 30.701000000000025,5.683 30.591000000000026,5.489 30.591000000000026,5.305999999999999 C 30.591000000000026,5.006999999999999 30.893000000000026,4.706999999999999 31.191000000000027,4.706999999999999 C 31.601000000000028,4.706999999999999 31.978000000000026,4.706999999999999 32.34700000000003,4.706999999999999 C 34.33100000000003,4.706999999999999 36.30800000000003,4.706999999999999 38.25100000000003,4.706999999999999 C 38.25100000000003,3.140999999999999 38.25100000000003,1.5709999999999988 38.25100000000003,-8.881784197001252e-16 C 36.082000000000036,-8.881784197001252e-16 33.91600000000003,-8.881784197001252e-16 31.790000000000035,-8.881784197001252e-16 C 31.191000000000034,-8.881784197001252e-16 30.591000000000033,-8.881784197001252e-16 29.994000000000035,-8.881784197001252e-16 C 27.419000000000036,0.03999999999999911 25.326000000000036,2.168999999999999 25.326000000000036,4.744999999999999 C 25.326000000000036,6.650999999999999 26.484000000000037,8.366999999999999 28.242000000000036,9.114999999999998 C 28.277000000000037,9.114999999999998 28.314000000000036,9.114999999999998 28.314000000000036,9.114999999999998 C 28.537000000000035,9.227999999999998 28.651000000000035,9.412999999999998 28.651000000000035,9.676999999999998 C 28.651000000000035,9.711999999999998 28.651000000000035,9.749999999999998 28.651000000000035,9.787999999999998 C 28.651000000000035,9.825 28.651000000000035,9.825 28.651000000000035,9.825 C 27.156000000000034,14.831 25.665000000000035,19.836 24.167000000000037,24.804 C 24.132000000000037,24.767 24.095000000000038,24.732 24.057000000000038,24.732 C 21.481000000000037,23.72 20.435000000000038,23.535 17.667000000000037,23.535 C 7.917,23.536 0.0,31.454 0.0,41.206 C 0.0,50.92 7.917,58.84 17.665,58.84 C 27.38,58.84 35.302,50.92 35.302,41.206 C 35.302,35.641000000000005 32.836,30.632000000000005 28.463,27.233000000000004 C 28.426000000000002,27.158000000000005 28.389,27.121000000000006 28.389,27.083000000000006 C 28.611,26.451000000000004 28.8,25.815000000000005 28.988,25.216000000000005 C 35.71,29.848000000000006 42.433,34.44500000000001 49.119,39.040000000000006 C 49.119,39.075 49.119,39.114000000000004 49.119,39.114000000000004 C 48.931,39.82000000000001 48.823,40.493 48.823,41.206 C 48.823,45.09 51.996,48.268 55.883,48.268 C 56.963,48.268 57.188,48.192 58.199000000000005,47.855000000000004 C 58.68300000000001,48.787000000000006 59.165000000000006,49.722 59.65800000000001,50.617000000000004 C 58.87400000000001,50.617000000000004 58.11800000000001,50.617000000000004 57.379000000000005,50.617000000000004 C 57.379000000000005,51.403000000000006 57.379000000000005,52.188 57.379000000000005,52.973000000000006 C 58.199000000000005,52.973000000000006 59.01500000000001,52.973000000000006 59.83800000000001,52.973000000000006 C 60.21300000000001,53.346000000000004 60.665000000000006,53.53300000000001 61.18500000000001,53.53300000000001 C 61.67100000000001,53.53300000000001 62.15500000000001,53.30900000000001 62.49400000000001,52.93700000000001 C 63.168000000000006,52.93700000000001 63.80500000000001,52.93700000000001 64.441,52.93700000000001 C 64.441,52.146000000000015 64.441,51.36200000000001 64.441,50.61700000000001 C 63.462,50.61700000000001 62.531000000000006,50.61700000000001 61.595,50.61700000000001 C 60.997,49.42300000000001 60.400999999999996,48.22900000000001 59.838,47.03100000000001 C 61.301,46.06500000000001 62.267,44.680000000000014 62.721000000000004,42.960000000000015 C 62.759,42.960000000000015 62.759,42.960000000000015 62.759,42.960000000000015 C 63.463,42.960000000000015 64.135,42.960000000000015 64.808,42.960000000000015 C 65.70500000000001,51.99900000000002 73.287,58.84000000000002 82.367,58.84000000000002 C 92.07600000000001,58.84000000000002 99.998,50.920000000000016 99.998,41.20600000000002 C 100.0,31.454 92.078,23.536 82.369,23.536 M 29.977,41.206 C 29.977,48.004000000000005 24.45,53.533 17.649,53.533 C 10.817,53.533 5.285,48.004000000000005 5.285,41.206 C 5.285,34.367000000000004 10.817,28.837000000000003 17.649,28.837000000000003 C 19.404,28.837000000000003 21.088,29.212000000000003 22.621000000000002,29.886000000000003 C 22.655,29.925000000000004 22.696,29.925000000000004 22.696,29.925000000000004 C 22.209000000000003,31.491000000000003 21.724,33.065000000000005 21.238000000000003,34.632000000000005 C 20.565000000000005,36.64900000000001 18.885,38.182 16.867000000000004,39.565000000000005 C 16.754000000000005,39.638000000000005 16.683000000000003,39.711000000000006 16.607000000000003,39.748000000000005 C 16.160000000000004,40.08500000000001 15.857000000000003,40.608000000000004 15.857000000000003,41.20700000000001 C 15.857000000000003,42.141000000000005 16.683000000000003,42.961000000000006 17.649000000000004,42.961000000000006 C 17.728000000000005,42.961000000000006 17.909000000000006,42.961000000000006 17.987000000000005,42.93000000000001 C 21.351000000000006,41.99100000000001 24.747000000000007,39.224000000000004 25.792000000000005,35.93600000000001 C 26.131000000000004,34.89600000000001 26.430000000000007,33.849000000000004 26.730000000000004,32.839000000000006 C 26.764000000000003,32.87500000000001 26.764000000000003,32.87500000000001 26.764000000000003,32.87500000000001 C 28.784,35.077 29.977,37.994 29.977,41.206 M 74.506,31.646 C 74.545,31.607 74.545,31.568 74.545,31.568 C 75.968,34.221000000000004 77.34400000000001,36.834 78.72800000000001,39.447 C 75.852,39.447 72.97800000000001,39.447 70.13600000000001,39.447 C 70.13600000000001,39.414 70.13600000000001,39.373000000000005 70.13600000000001,39.373000000000005 C 70.583,36.236 72.045,33.661 74.506,31.646 M 30.204,21.036 C 30.539,19.914 30.876,18.791 31.174,17.671 C 41.78,17.671 52.357,17.671 62.924,17.671 C 60.689,23.163 58.446,28.653 56.242,34.144 C 56.199999999999996,34.144 56.163,34.144 56.163,34.144 C 56.053,34.144 55.942,34.144 55.867,34.144 C 55.153999999999996,34.144 54.369,34.257999999999996 53.696999999999996,34.486 C 53.623,34.519999999999996 53.586999999999996,34.519999999999996 53.54599999999999,34.519999999999996 C 53.065999999999995,33.586 52.61699999999999,32.684999999999995 52.166999999999994,31.790999999999997 C 52.913999999999994,31.790999999999997 53.663999999999994,31.790999999999997 54.37,31.790999999999997 C 54.37,31.007999999999996 54.37,30.223999999999997 54.37,29.434999999999995 C 53.546,29.434999999999995 52.730999999999995,29.434999999999995 51.905,29.434999999999995 C 51.873000000000005,29.397999999999996 51.873000000000005,29.397999999999996 51.873000000000005,29.397999999999996 C 51.531000000000006,29.030999999999995 51.04600000000001,28.836999999999996 50.56400000000001,28.836999999999996 C 50.07300000000001,28.836999999999996 49.629000000000005,29.029999999999998 49.291000000000004,29.397999999999996 C 49.25600000000001,29.434999999999995 49.25600000000001,29.434999999999995 49.25600000000001,29.434999999999995 C 48.583000000000006,29.434999999999995 47.94400000000001,29.434999999999995 47.31300000000001,29.434999999999995 C 47.31300000000001,30.223999999999997 47.31300000000001,31.007999999999996 47.31300000000001,31.790999999999997 C 48.284000000000006,31.790999999999997 49.25600000000001,31.790999999999997 50.19100000000001,31.790999999999997 C 50.787000000000006,32.988 51.38400000000001,34.184 51.94800000000001,35.339999999999996 C 51.75900000000001,35.45099999999999 51.611000000000004,35.56099999999999 51.458000000000006,35.672 C 44.364,30.78 37.264,25.889 30.204,21.036 M 55.868,45.916 C 53.287,45.916 51.160000000000004,43.778999999999996 51.160000000000004,41.205999999999996 C 51.160000000000004,38.590999999999994 53.286,36.498 55.868,36.498 C 58.447,36.498 60.57,38.590999999999994 60.57,41.205999999999996 C 60.57,43.779 58.447,45.916 55.868,45.916 M 64.793,39.373 C 64.793,39.373 64.793,39.373 64.793,39.413999999999994 C 64.12,39.413999999999994 63.410000000000004,39.413999999999994 62.706,39.413999999999994 C 62.332,38.025999999999996 61.695,36.98 60.649,35.97299999999999 C 60.649,35.97299999999999 60.61,35.934999999999995 60.569,35.90399999999999 C 62.888000000000005,30.11299999999999 65.239,24.28499999999999 67.595,18.45699999999999 C 69.05199999999999,21.25599999999999 70.54599999999999,24.05799999999999 72.045,26.861999999999988 C 72.045,26.861999999999988 72.002,26.861999999999988 71.962,26.89799999999999 C 67.822,29.925 65.32,34.294 64.793,39.373 M 82.352,53.533 C 76.22800000000001,53.533 71.033,49.088 70.13600000000001,43.036 C 70.13600000000001,42.998000000000005 70.13600000000001,42.96 70.13600000000001,42.96 C 74.20700000000001,42.96 78.28200000000001,42.96 82.352,42.96 C 83.289,42.96 84.108,42.14 84.108,41.206 C 84.108,40.943000000000005 84.068,40.684000000000005 83.997,40.46 C 82.052,36.799 80.11,33.175 78.203,29.55 C 79.476,29.102 80.968,28.837 82.352,28.837 C 89.15,28.837 94.715,34.367 94.715,41.206 C 94.715,48.004 89.15,53.533 82.352,53.533" fill-rule="evenodd"/>
</svg>
