<?xml version="1.0" ?>
<svg xmlns="http://www.w3.org/2000/svg" xmlns:ev="http://www.w3.org/2001/xml-events" xmlns:graph="http://ns.adobe.com/Graphs/1.0/" xmlns:i="http://ns.adobe.com/AdobeIllustrator/10.0/" xmlns:x="http://ns.adobe.com/Extensibility/1.0/" xmlns:xlink="http://www.w3.org/1999/xlink" baseProfile="full" enable-background="new 0 0 100 100" height="600px" version="1.1" viewBox="0 0 100 100" width="600px" x="0px" xml:space="preserve" y="0px">
	<defs/>
	<path d="M 51.989,94.398 C 62.961,93.952 72.906,89.539 80.43299999999999,82.55 L 51.989,94.398"/>
	<path d="M 19.678,82.37 C 27.278,89.509 37.379000000000005,94.00500000000001 48.531000000000006,94.40400000000001 L 82.891,80.08800000000001 C 90.053,72.32 94.478,62.0 94.661,50.646 L 19.678,82.37"/>
	<path d="M 18.633,81.371 L 94.66199999999999,49.202 C 94.574,43.672 93.47899999999998,38.39 91.55199999999999,33.525 L 9.5,68.089 C 11.729,73.065 14.833,77.563 18.633,81.371"/>
	<path d="M 49.364,5.405 C 37.590999999999994,5.609 26.933999999999997,10.378 19.086,18.024 L 49.364,5.405"/>
	<path d="M 80.562,17.402 C 73.17999999999999,10.494 63.45099999999999,6.069000000000001 52.696,5.4620000000000015 L 16.806,20.417 C 10.001,28.103 5.818,38.154 5.64,49.185 L 80.562,17.402"/>
	<path d="M 5.639,50.637 C 5.731,56.378 6.904,61.854 8.971,66.87 L 91.051,32.294000000000004 C 88.797,27.071000000000005 85.578,22.363000000000007 81.611,18.402000000000005 L 5.639,50.637"/>
</svg>
