<?xml version="1.0" ?>
<svg xmlns="http://www.w3.org/2000/svg" xmlns:ev="http://www.w3.org/2001/xml-events" xmlns:xlink="http://www.w3.org/1999/xlink" baseProfile="full" enable-background="new 0 0 100 100" height="600px" version="1.1" viewBox="0 0 100 100" width="451px" x="0px" xml:space="preserve" y="0px">
	<defs/>
	<path d="M 56.251,33.75 L 56.251,28.75 L 56.251,10.0 L 20.0,10.0 L 20.0,89.997 L 80.0,89.997 L 80.0,33.75 L 61.251,33.75 L 56.251,33.75 M 30.0,20.001 L 44.999,20.001 L 44.999,38.751000000000005 L 30.0,38.751000000000005 L 30.0,20.001 M 70.0,74.999 L 30.0,74.999 L 30.0,69.999 L 70.0,69.999 L 70.0,74.999 M 70.0,64.999 L 30.0,64.999 L 30.0,60.0 L 70.0,60.0 L 70.0,64.999 M 70.0,55.0 L 30.0,55.0 L 30.0,50.0 L 70.0,50.0 L 70.0,55.0"/>
	<path d="M 61.251,10.001 L 61.251,28.751 L 80.0,28.751 L 61.251,10.001" points="61.251,10.001 61.251,28.751 80,28.751  "/>
</svg>
