<?xml version="1.0" ?>
<svg xmlns="http://www.w3.org/2000/svg" xmlns:ev="http://www.w3.org/2001/xml-events" xmlns:xlink="http://www.w3.org/1999/xlink" baseProfile="full" enable-background="new 0 0 100 100" height="600px" version="1.1" viewBox="0 0 100 100" width="600px" x="0px" xml:space="preserve" y="0px">
	<defs/>
	<path d="M 60.0,75.0 L 60.0,100.0 L 75.0,100.0 L 85.0,95.0 L 85.0,80.0 L 75.0,75.0 L 60.0,75.0 M 80.039,91.772 L 73.32000000000001,95.043 L 65.0,95.043 L 65.0,80.0 L 73.32,80.0 L 80.03899999999999,83.647 L 80.03899999999999,91.772 L 80.039,91.772"/>
	<path d="M 77.5,25.0 L 60.0,25.0 L 60.0,0.0 L 40.002,0.0 L 40.002,25.0 L 22.5,25.0 L 50.002,50.0 L 77.5,25.0" points="77.5,25 60,25 60,0 40.002,0 40.002,25 22.5,25 50.002,50  "/>
	<path d="M 45.002,85.0 L 25.0,85.0 L 25.0,75.0 L 20.0,75.0 L 20.0,100.0 L 25.0,100.0 L 25.0,90.0 L 45.002,90.0 L 45.002,100.0 L 50.002,100.0 L 50.002,75.0 L 45.002,75.0 L 45.002,85.0" points="45.002,85 25,85 25,75 20,75 20,100 25,100 25,90 45.002,90 45.002,100 50.002,100 50.002,75 45.002,75  "/>
	<path d="M 0.0,55.0 L 100.0,55.0 L 100.0,65.0 L 0.0,65.0 L 0.0,55.0" height="10" width="100" y="55"/>
</svg>
