<?xml version="1.0" ?>
<svg xmlns="http://www.w3.org/2000/svg" xmlns:ev="http://www.w3.org/2001/xml-events" xmlns:xlink="http://www.w3.org/1999/xlink" baseProfile="full" enable-background="new 0 0 100 100" height="600px" version="1.1" viewBox="0 0 100 100" width="600px" x="0px" xml:space="preserve" y="0px">
	<defs/>
	<path d="M 2.5,100.0 L 7.5,100.0 L 7.5,90.0 L 27.5,90.0 L 27.5,75.0 L 2.5,75.0 L 2.5,100.0 M 7.5,80.0 L 22.5,80.0 L 22.5,85.0 L 7.5,85.0 L 7.5,80.0"/>
	<path d="M 37.498,75.0 L 37.498,100.0 L 52.498,100.0 L 62.498,95.0 L 62.498,80.0 L 52.498,75.0 L 37.498,75.0 M 57.541,91.953 L 50.821999999999996,95.039 L 42.497,95.039 L 42.497,80.0 L 50.822,80.0 L 57.541000000000004,83.203 L 57.541000000000004,91.953 L 57.541,91.953"/>
	<path d="M 49.998,50.0 L 77.498,25.0 L 59.998,25.0 L 59.998,0.0 L 39.998,0.0 L 39.998,25.0 L 22.5,25.0 L 49.998,50.0" points="49.998,50 77.498,25 59.998,25 59.998,0 39.998,0 39.998,25 22.5,25  "/>
	<path d="M 72.498,100.0 L 77.498,100.0 L 77.498,90.0 L 87.498,90.0 L 87.498,85.0 L 77.498,85.0 L 77.498,80.0 L 97.498,80.0 L 97.498,75.0 L 72.498,75.0 L 72.498,100.0" points="72.498,100 77.498,100 77.498,90 87.498,90 87.498,85 77.498,85 77.498,80 97.498,80 97.498,75 72.498,75  "/>
	<path d="M 0.0,55.0 L 99.998,55.0 L 99.998,65.0 L 0.0,65.0 L 0.0,55.0" height="10" width="99.998" y="55"/>
</svg>
