<?xml version="1.0" ?>
<svg xmlns="http://www.w3.org/2000/svg" xmlns:ev="http://www.w3.org/2001/xml-events" xmlns:xlink="http://www.w3.org/1999/xlink" baseProfile="full" enable-background="new 0 0 100 100" height="594px" version="1.1" viewBox="0 0 100 100" width="600px" x="0px" xml:space="preserve" y="0px">
	<defs/>
	<path d="M 82.493,44.231 C 82.90299999999999,42.688 83.128,41.135000000000005 83.196,39.592 L 94.495,36.545 L 91.14500000000001,24.123 L 79.83600000000001,27.17 C 78.16600000000001,24.553 75.93,22.297 73.24400000000001,20.598000000000003 L 76.253,9.29 L 63.822,5.985 L 60.814,17.288 C 57.63,17.439 54.574,18.284 51.82,19.72 L 43.528999999999996,11.457999999999998 L 34.446999999999996,20.573999999999998 L 42.738,28.830999999999996 C 42.035,30.197999999999997 41.459,31.652999999999995 41.049,33.205999999999996 C 40.639,34.748999999999995 40.414,36.30199999999999 40.346,37.834999999999994 L 29.04,40.892 L 32.399,53.313 L 43.705,50.256 C 45.375,52.873 47.611,55.144 50.297,56.838 L 47.288999999999994,68.147 L 59.721,71.458 L 62.729,60.153999999999996 C 65.913,60.00299999999999 68.969,59.153 71.722,57.708 L 80.01299999999999,65.984 L 89.095,56.858 L 80.804,48.596 C 81.507,47.243 82.083,45.778 82.493,44.231 M 59.086,48.811 C 56.391,48.088 54.135,46.37 52.738,43.958 C 51.332,41.546 50.961,38.724 51.674,36.028 C 52.894999999999996,31.458 57.035,28.264 61.762,28.264 C 62.660000000000004,28.264 63.569,28.391 64.457,28.625 C 67.15199999999999,29.338 69.40799999999999,31.066 70.80399999999999,33.483 C 72.21,35.89 72.58099999999999,38.702999999999996 71.859,41.403 C 70.648,45.967 66.499,49.161 61.782,49.161 C 60.883,49.162 59.975,49.045 59.086,48.811" opacity="0.98"/>
	<path d="M 35.57,69.064 L 40.326,64.19099999999999 L 34.974000000000004,58.95699999999999 L 30.211000000000006,63.83999999999999 C 28.561000000000007,62.999999999999986 26.764000000000006,62.56099999999999 24.957000000000008,62.511999999999986 L 23.111000000000008,55.93999999999998 L 15.904000000000007,57.960999999999984 L 17.750000000000007,64.52799999999999 C 16.998000000000008,65.011 16.29500000000001,65.588 15.641000000000007,66.252 C 14.987000000000005,66.916 14.430000000000007,67.64399999999999 13.961000000000007,68.39999999999999 L 7.350000000000008,66.71999999999998 L 5.5040000000000076,73.97599999999998 L 12.106000000000009,75.66499999999999 C 12.213000000000008,77.46199999999999 12.702000000000009,79.249 13.571000000000009,80.87899999999999 L 8.815000000000008,85.752 L 14.176000000000009,90.991 L 18.942000000000007,86.113 C 20.583000000000006,86.943 22.380000000000006,87.383 24.186000000000007,87.446 L 26.032000000000007,94.013 L 33.24900000000001,91.982 L 31.40300000000001,85.419 C 32.14500000000001,84.93599999999999 32.85800000000001,84.35499999999999 33.50000000000001,83.695 C 34.15400000000001,83.026 34.711000000000006,82.303 35.18900000000001,81.54199999999999 L 41.79100000000001,83.222 L 43.637000000000015,75.967 L 37.03500000000001,74.28699999999999 C 36.938,72.482 36.449,70.695 35.57,69.064 M 24.577,81.456 C 22.868000000000002,81.456 21.266000000000002,80.803 20.046000000000003,79.611 C 17.487000000000002,77.111 17.439000000000004,73.0 19.939000000000004,70.441 C 21.169000000000004,69.181 22.810000000000002,68.49300000000001 24.578000000000003,68.49300000000001 C 26.277000000000005,68.49300000000001 27.889000000000003,69.14200000000001 29.099000000000004,70.334 C 30.339000000000002,71.545 31.033000000000005,73.166 31.062000000000005,74.89500000000001 C 31.082000000000004,76.63300000000001 30.427000000000003,78.26400000000001 29.216000000000005,79.504 C 27.985,80.764 26.335,81.456 24.577,81.456" opacity="0.98"/>
</svg>
