<?xml version="1.0" ?>
<svg xmlns="http://www.w3.org/2000/svg" xmlns:ev="http://www.w3.org/2001/xml-events" xmlns:xlink="http://www.w3.org/1999/xlink" baseProfile="full" enable-background="new 0 0 100 100" height="600px" version="1.1" viewBox="0 0 100 100" width="600px" x="0px" xml:space="preserve" y="0px">
	<defs/>
	<path d="M 72.071,10.781 C 72.071,10.781 72.06099999999999,10.781 72.06099999999999,10.771 C 71.07499999999999,10.214 70.059,9.697000000000001 69.03399999999999,9.218 C 69.005,9.198 68.975,9.189 68.946,9.179 C 67.92999999999999,8.700000000000001 66.895,8.271 65.841,7.87 C 65.80199999999999,7.86 65.773,7.8500000000000005 65.734,7.831 C 65.216,7.636 64.699,7.460000000000001 64.17099999999999,7.284000000000001 C 64.13199999999999,7.264000000000001 64.083,7.255000000000001 64.03399999999999,7.235 C 63.51599999999999,7.069 62.998999999999995,6.9030000000000005 62.47099999999999,6.756 C 62.46099999999999,6.746 62.441999999999986,6.746 62.441999999999986,6.746 C 61.914999999999985,6.590000000000001 61.386999999999986,6.453 60.84999999999999,6.3260000000000005 C 60.771999999999984,6.297000000000001 60.69399999999999,6.277 60.60599999999999,6.258000000000001 C 60.078999999999986,6.131000000000001 59.54199999999999,6.014000000000001 59.00399999999999,5.906000000000001 L 58.99399999999999,5.896000000000001 C 58.46699999999999,5.798000000000001 57.93899999999999,5.7010000000000005 57.41199999999999,5.613 C 57.31399999999999,5.593000000000001 57.22599999999999,5.5840000000000005 57.12899999999999,5.564 C 56.60199999999999,5.476 56.07399999999999,5.408 55.54699999999999,5.339 C 55.45899999999999,5.329000000000001 55.38099999999999,5.319000000000001 55.29299999999999,5.3100000000000005 C 54.80499999999999,5.251 54.315999999999995,5.203 53.82799999999999,5.164000000000001 C 53.749999999999986,5.154000000000001 53.67199999999999,5.144000000000001 53.59399999999999,5.144000000000001 C 53.05699999999999,5.105000000000001 52.52999999999999,5.066000000000001 51.99199999999999,5.046000000000001 C 51.87499999999999,5.036000000000001 51.75799999999999,5.036000000000001 51.63999999999999,5.036000000000001 C 51.095,5.02 50.548,5.0 50.001,5.0 C 49.61,5.0 49.22,5.01 48.839,5.02 C 48.722,5.02 48.614,5.029999999999999 48.497,5.029999999999999 C 48.224,5.039999999999999 47.96,5.049999999999999 47.686,5.058999999999999 C 47.53,5.068999999999999 47.364,5.078999999999999 47.198,5.087999999999999 C 46.983,5.107999999999999 46.759,5.116999999999999 46.544,5.137 C 46.358,5.146999999999999 46.172999999999995,5.1659999999999995 45.997,5.186 C 45.802,5.196 45.606,5.215 45.411,5.235 C 45.206,5.255 45.001000000000005,5.284000000000001 44.796,5.303 C 44.63,5.3229999999999995 44.454,5.342 44.288,5.362 C 44.062999999999995,5.391 43.839,5.421 43.623999999999995,5.45 C 43.467999999999996,5.479 43.321,5.4990000000000006 43.175,5.518 C 42.940999999999995,5.547 42.705999999999996,5.596 42.471999999999994,5.635 C 42.334999999999994,5.654999999999999 42.19899999999999,5.6739999999999995 42.062,5.702999999999999 C 41.827999999999996,5.741999999999999 41.583,5.7909999999999995 41.349,5.84 C 41.221999999999994,5.859999999999999 41.095,5.879 40.967999999999996,5.9079999999999995 C 40.724,5.957 40.47,6.015 40.226,6.063999999999999 C 40.109,6.092999999999999 39.992,6.1129999999999995 39.884,6.1419999999999995 C 39.63,6.201 39.376,6.2589999999999995 39.132,6.327999999999999 C 39.025,6.356999999999999 38.907,6.377 38.8,6.406 C 38.546,6.473999999999999 38.282,6.542999999999999 38.019,6.611 C 37.931,6.64 37.833,6.67 37.736,6.689 C 37.471999999999994,6.767 37.199,6.845 36.934999999999995,6.933 C 36.846999999999994,6.952999999999999 36.769,6.982 36.681,7.0009999999999994 C 36.407999999999994,7.0889999999999995 36.134,7.177 35.861,7.265 C 35.782999999999994,7.294 35.714999999999996,7.314 35.635999999999996,7.343 C 35.36299999999999,7.431 35.07899999999999,7.538 34.806,7.636 C 34.738,7.656 34.669,7.675 34.601,7.704 C 34.318,7.811 34.035,7.919 33.751,8.026 C 33.692,8.046 33.644,8.065 33.585,8.084999999999999 C 33.292,8.202 33.009,8.318999999999999 32.716,8.437 C 32.667,8.456999999999999 32.618,8.475999999999999 32.579,8.495999999999999 C 32.286,8.623 31.991,8.749999999999998 31.703,8.876999999999999 C 31.663999999999998,8.896999999999998 31.62,8.915999999999999 31.581,8.935999999999998 C 31.283,9.062999999999999 30.99,9.199999999999998 30.701999999999998,9.335999999999999 C 30.668,9.355999999999998 30.628999999999998,9.374999999999998 30.598999999999997,9.384999999999998 C 30.295999999999996,9.530999999999999 30.002999999999997,9.677999999999997 29.709999999999997,9.823999999999998 C 29.680999999999997,9.843999999999998 29.650999999999996,9.852999999999998 29.621999999999996,9.872999999999998 C 29.328999999999997,10.018999999999998 29.030999999999995,10.175999999999998 28.732999999999997,10.331999999999997 C 28.712999999999997,10.341999999999997 28.693999999999996,10.360999999999997 28.664999999999996,10.370999999999997 C 28.371999999999996,10.526999999999997 28.068999999999996,10.692999999999996 27.775999999999996,10.858999999999996 C 27.755999999999997,10.868999999999996 27.741999999999997,10.878999999999996 27.726999999999997,10.887999999999996 C 27.423999999999996,11.063999999999997 27.125999999999998,11.239999999999997 26.828999999999997,11.414999999999996 C 26.818999999999996,11.424999999999995 26.808999999999997,11.434999999999995 26.808999999999997,11.434999999999995 C 26.496,11.620999999999995 26.203999999999997,11.805999999999996 25.910999999999998,11.991999999999996 L 25.881999999999998,12.001999999999995 C 25.584,12.196999999999996 25.290999999999997,12.382999999999996 25.002999999999997,12.577999999999996 C 24.992999999999995,12.587999999999996 24.982999999999997,12.587999999999996 24.978999999999996,12.597999999999995 C 24.685999999999996,12.792999999999996 24.392999999999997,12.988999999999995 24.104999999999997,13.193999999999996 L 24.094999999999995,13.203999999999995 C 23.801999999999996,13.408999999999995 23.518999999999995,13.613999999999995 23.230999999999995,13.828999999999995 L 23.225999999999996,13.828999999999995 C 22.937999999999995,14.043999999999995 22.654999999999994,14.258999999999995 22.375999999999994,14.482999999999995 L 22.365999999999993,14.482999999999995 C 22.087999999999994,14.697999999999995 21.808999999999994,14.921999999999995 21.53099999999999,15.146999999999995 L 21.525999999999993,15.156999999999995 C 21.252999999999993,15.381999999999994 20.978999999999992,15.605999999999995 20.705999999999992,15.840999999999994 L 20.705999999999992,15.840999999999994 C 20.436999999999994,16.074999999999996 20.168999999999993,16.309999999999995 19.904999999999994,16.543999999999993 L 19.904999999999994,16.553999999999995 C 19.640999999999995,16.787999999999997 19.377999999999993,17.032999999999994 19.123999999999995,17.266999999999996 C 19.113999999999994,17.276999999999997 19.113999999999994,17.276999999999997 19.113999999999994,17.276999999999997 C 18.854999999999993,17.520999999999997 18.605999999999995,17.764999999999997 18.351999999999993,18.008999999999997 C 18.351999999999993,18.019 18.34199999999999,18.019 18.34199999999999,18.019 L 18.34199999999999,18.019 C 14.654999999999992,21.671 11.59399999999999,25.948999999999998 9.342999999999991,30.695 C 9.30899999999999,30.763 9.26999999999999,30.841 9.235999999999992,30.92 C 9.093999999999992,31.213 8.966999999999992,31.506 8.830999999999992,31.809 C 8.791999999999993,31.907 8.747999999999992,31.995 8.703999999999992,32.092 C 8.581999999999992,32.385 8.459999999999992,32.668 8.342999999999991,32.951 C 8.303999999999991,33.049 8.264999999999992,33.146 8.22599999999999,33.244 C 8.1,33.555 7.982,33.867 7.86,34.18 C 7.836,34.248 7.806,34.317 7.782,34.385 C 7.494,35.166 7.23,35.957 6.981,36.757999999999996 C 6.957,36.836 6.9319999999999995,36.92399999999999 6.9079999999999995,37.001999999999995 C 6.8149999999999995,37.315 6.7219999999999995,37.617 6.635,37.92999999999999 C 6.606,38.056999999999995 6.576,38.17399999999999 6.537,38.29099999999999 C 6.469,38.57399999999999 6.391,38.85699999999999 6.322,39.14099999999999 C 6.293,39.267999999999994 6.259,39.39499999999999 6.224,39.53199999999999 C 6.156000000000001,39.80499999999999 6.097,40.09799999999999 6.034,40.38199999999999 C 6.01,40.49899999999999 5.9799999999999995,40.62599999999999 5.951,40.75299999999999 C 5.883,41.084999999999994 5.819,41.416999999999994 5.755999999999999,41.748999999999995 C 5.7459999999999996,41.827 5.726999999999999,41.894999999999996 5.717,41.974 C 5.638999999999999,42.38399999999999 5.571,42.794 5.512,43.214 C 5.497,43.292 5.483,43.379999999999995 5.473,43.458 C 5.4239999999999995,43.79 5.385,44.122 5.341,44.454 C 5.3260000000000005,44.591 5.307,44.727000000000004 5.292,44.874 C 5.258,45.147000000000006 5.229,45.421 5.204,45.704 C 5.189,45.86 5.18,46.017 5.16,46.173 C 5.140000000000001,46.437000000000005 5.121,46.71 5.101,46.984 C 5.091,47.14 5.081,47.297000000000004 5.072,47.453 C 5.0520000000000005,47.736000000000004 5.043,48.029 5.033,48.322 C 5.0280000000000005,48.459 5.023000000000001,48.586000000000006 5.018000000000001,48.722 C 5.003000000000001,49.152 4.998000000000001,49.572 4.998000000000001,50.001000000000005 C 4.998000000000001,74.855 25.144000000000002,95.001 50.0,95.001 C 74.854,95.001 95.0,74.855 95.0,50.001000000000005 C 95.001,33.174 85.753,18.496 72.071,10.781 M 85.978,32.549 L 83.097,34.131 L 84.24,37.041 L 83.732,39.032999999999994 L 86.642,39.248 L 86.134,36.006 L 85.079,34.443 L 86.339,33.916 L 86.339,33.311 C 88.02799999999999,36.993 89.181,40.957 89.689,45.127 L 86.58399999999999,44.551 L 84.77699999999999,43.008 L 83.87899999999999,43.516000000000005 L 85.16799999999999,46.61200000000001 L 87.22899999999998,45.58700000000001 L 89.92399999999998,47.62800000000001 L 89.92399999999998,47.65700000000001 L 81.94499999999998,52.41300000000001 L 77.81399999999998,44.28800000000001 L 76.95499999999998,44.43400000000001 L 81.17399999999998,54.09200000000001 L 85.30499999999998,52.158000000000015 L 84.01599999999998,56.670000000000016 L 79.88499999999998,60.41000000000002 L 80.51999999999998,65.94700000000002 L 78.20599999999999,67.75400000000002 L 73.95799999999998,75.75200000000002 L 69.69999999999999,76.52300000000002 L 65.96,67.50000000000003 L 66.85799999999999,63.379000000000026 L 64.54399999999998,56.15200000000003 L 56.67299999999998,56.67000000000003 L 52.28799999999998,52.41200000000003 L 53.05899999999998,45.459000000000024 L 57.316999999999986,40.29300000000002 L 65.56899999999999,38.88700000000002 L 66.08699999999999,41.06500000000002 L 69.43699999999998,43.26200000000002 L 70.72599999999998,41.45500000000002 L 75.85299999999998,42.76400000000002 L 77.18099999999998,41.97300000000002 L 77.75699999999998,40.03900000000002 L 74.22199999999998,39.453000000000024 L 73.07899999999998,37.46100000000003 L 72.23899999999998,37.041000000000025 L 71.50699999999998,39.55100000000002 L 69.94399999999997,37.569000000000024 L 70.04199999999997,35.90900000000003 L 67.95199999999997,34.22900000000003 L 66.70199999999997,33.60400000000003 L 66.80899999999997,35.27400000000003 L 69.42599999999997,37.04200000000003 L 68.05899999999997,38.62400000000003 L 66.18399999999997,36.10400000000003 L 64.83599999999997,34.541000000000025 L 61.69099999999997,36.10400000000003 L 59.502999999999965,39.56100000000003 L 56.16299999999997,39.03400000000003 L 55.95799999999997,34.85400000000003 L 60.22599999999997,35.16700000000003 L 58.87799999999997,32.97900000000003 L 58.03799999999997,31.202000000000027 L 61.279999999999966,30.157000000000025 L 63.047999999999966,27.764000000000024 L 64.51299999999996,27.657000000000025 L 64.2,26.299 L 65.138,25.049 L 65.87,27.128999999999998 L 69.94200000000001,27.235999999999997 L 71.08500000000001,24.305999999999997 L 72.65700000000001,24.842999999999996 L 72.13000000000001,22.860999999999997 L 74.56200000000001,22.069999999999997 L 73.81000000000002,21.180999999999997 L 71.61300000000001,21.805999999999997 L 70.84200000000001,19.930999999999997 L 70.72500000000001,19.920999999999996 L 70.793,19.783999999999995 L 70.471,18.992999999999995 L 71.35000000000001,18.367999999999995 L 72.034,16.638999999999996 C 77.989,20.586 82.833,26.084 85.978,32.549 M 81.524,70.557 L 81.631,66.37700000000001 L 84.453,64.18900000000001 L 84.873,66.269 L 83.203,71.27900000000001 L 81.524,70.557 M 47.462,12.813 L 48.819,15.586 L 46.876000000000005,19.238 L 46.769000000000005,21.123 L 44.88400000000001,22.285 L 44.659000000000006,27.265 L 41.876000000000005,26.581 L 36.42700000000001,12.372 C 39.44500000000001,11.288 42.62800000000001,10.546 45.92900000000001,10.204 L 47.462,12.813 M 71.515,16.309 L 71.29,16.28 L 69.94200000000001,17.950000000000003 L 68.79,20.450000000000003 L 70.05000000000001,21.807000000000002 L 68.79,25.147000000000002 L 66.92500000000001,25.879 L 65.87,22.539 L 63.682,23.789 L 62.637,23.174000000000003 L 62.735,19.932000000000002 L 64.62,18.467000000000002 L 66.183,14.610000000000003 L 67.34500000000001,13.965000000000003 C 68.79,14.658 70.177,15.449 71.515,16.309 M 57.218,24.648 L 55.333000000000006,24.648 L 55.440000000000005,22.666 L 57.00300000000001,20.781 L 56.90500000000001,19.326 L 58.565000000000005,18.174 L 61.38700000000001,23.594 L 60.65500000000001,24.746000000000002 L 58.04800000000001,25.889000000000003 L 58.04800000000001,22.139000000000003 L 57.218,24.648 M 27.348,17.061 L 30.209,16.758 L 30.209,22.979 L 25.287,23.956 L 24.305999999999997,26.583 L 29.057,31.660999999999998 L 30.209,31.494999999999997 L 31.015,25.107999999999997 L 34.132,24.941999999999997 L 35.431,28.545999999999996 L 37.071999999999996,27.559999999999995 L 40.675999999999995,35.586999999999996 L 35.59799999999999,37.882 L 31.67499999999999,40.010999999999996 L 28.56499999999999,44.269 L 28.56499999999999,46.397999999999996 L 27.41299999999999,46.553999999999995 L 26.60199999999999,44.26899999999999 L 22.17799999999999,44.922999999999995 L 21.19699999999999,47.696 L 22.33999999999999,49.346 L 23.980999999999987,48.028 L 25.616999999999987,48.193999999999996 L 24.801999999999985,50.517999999999994 L 26.764999999999986,50.654999999999994 L 27.413999999999987,53.105999999999995 L 28.736999999999988,53.544999999999995 L 29.713999999999988,51.952999999999996 L 36.26399999999999,52.617 L 40.67799999999999,55.888 L 41.34199999999999,58.515 L 47.07399999999999,61.288000000000004 L 43.79299999999999,68.007 L 40.52199999999999,68.495 L 40.023999999999994,71.122 L 33.315,76.845 L 30.211999999999996,82.743 L 32.494,85.19399999999999 L 29.777,84.49099999999999 C 29.357,84.24699999999999 28.942,83.98299999999999 28.532,83.72899999999998 L 27.414,80.94599999999998 L 31.188000000000002,65.70199999999998 L 28.07,62.93 L 26.6,57.041 L 28.363,54.169999999999995 L 26.761,54.413999999999994 L 24.471,51.464999999999996 L 22.508,50.479 L 17.918,48.848 L 14.152999999999999,42.958999999999996 L 11.863,38.70099999999999 L 11.863,37.93 C 14.579,29.375 20.102,22.061 27.348,17.061"/>
	<path d="M 74.532,37.148 L 77.677,36.631 L 79.962,37.246 L 80.909,35.693 L 75.47,32.871 L 73.81,35.801 L 74.532,37.148" points="74.532,37.148 77.677,36.631 79.962,37.246 80.909,35.693 75.47,32.871 73.81,35.801  "/>
</svg>
