<?xml version="1.0" ?>
<svg xmlns="http://www.w3.org/2000/svg" xmlns:ev="http://www.w3.org/2001/xml-events" xmlns:xlink="http://www.w3.org/1999/xlink" baseProfile="full" enable-background="new 0 0 100 100" height="600px" version="1.1" viewBox="0 0 100 100" width="600px" x="0px" xml:space="preserve" y="0px">
	<defs/>
	<path d="M 69.707,52.598 L 75.01,47.3 L 80.313,52.598 L 95.0,37.915 L 85.156,28.076 L 85.156,28.076 C 81.504,31.728 75.57600000000001,31.728 71.924,28.076 C 68.272,24.419 68.272,18.496000000000002 71.924,14.844000000000001 L 71.924,14.844000000000001 L 62.08,5.0 L 47.405,19.678 L 52.705,24.991 L 47.405,30.294 L 42.102000000000004,24.991 L 5.0,62.09 L 14.844,71.934 L 14.844,71.934 C 18.496,68.277 24.418999999999997,68.277 28.072,71.934 C 31.721999999999998,75.586 31.721999999999998,81.50399999999999 28.072,85.166 L 37.913,95.0 L 75.01,57.905 L 69.707,52.598 M 51.301,34.199 L 56.602000000000004,28.891 L 61.905,34.199 L 56.602000000000004,39.501999999999995 L 51.301,34.199 M 60.508,43.398 L 65.811,38.095000000000006 L 71.114,43.398 L 65.811,48.701 L 60.508,43.398"/>
</svg>
