<?xml version="1.0" ?>
<svg xmlns="http://www.w3.org/2000/svg" xmlns:ev="http://www.w3.org/2001/xml-events" xmlns:xlink="http://www.w3.org/1999/xlink" baseProfile="full" enable-background="new 0 0 100 100" height="600px" version="1.1" viewBox="0 0 100 100" width="234px" x="0px" xml:space="preserve" y="0px">
	<defs/>
	<path d="M 35.0,95.0 L 65.0,95.0 C 66.4,95.0 67.5,93.9 67.5,92.5 L 67.5,49.0 C 67.5,42.6 65.6,36.4 62.1,31.1 C 59.1,26.6 57.5,21.400000000000002 57.5,16.0 L 57.5,7.5 C 57.5,6.1 56.4,5.0 55.0,5.0 L 45.0,5.0 C 43.6,5.0 42.5,6.1 42.5,7.5 L 42.5,16.0 C 42.5,21.4 40.9,26.6 37.9,31.1 C 34.4,36.4 32.5,42.6 32.5,49.0 L 32.5,92.5 C 32.5,93.9 33.6,95.0 35.0,95.0 M 37.5,49.0 C 37.5,43.6 39.1,38.4 42.1,33.9 C 45.6,28.599999999999998 47.5,22.4 47.5,16.0 L 47.5,10.0 L 52.5,10.0 L 52.5,16.0 C 52.5,22.4 54.4,28.6 57.9,33.9 C 60.9,38.4 62.5,43.599999999999994 62.5,49.0 L 62.5,90.0 L 37.5,90.0 L 37.5,49.0"/>
</svg>
