<?xml version="1.0" ?>
<svg xmlns="http://www.w3.org/2000/svg" xmlns:ev="http://www.w3.org/2001/xml-events" xmlns:xlink="http://www.w3.org/1999/xlink" baseProfile="full" enable-background="new 0 0 100 54.085" height="325px" version="1.1" viewBox="0 0 100 54.085" width="600px" x="0px" xml:space="preserve" y="0px">
	<defs/>
	<path d="M 82.383,18.853 C 79.304,18.853 76.40899999999999,19.652 73.88799999999999,21.046000000000003 C 72.30099999999999,18.666000000000004 70.71499999999999,16.286 69.12799999999999,13.906000000000002 C 69.83899999999998,12.684000000000003 70.55099999999999,11.463000000000003 71.26199999999999,10.241000000000003 C 72.28599999999999,10.693000000000003 73.31099999999999,11.144000000000004 74.33599999999998,11.595000000000002 C 75.08399999999999,11.925000000000002 76.01599999999999,11.550000000000002 76.01599999999999,10.631000000000002 C 76.01599999999999,8.909000000000002 76.01599999999999,7.188000000000002 76.01599999999999,5.466000000000002 C 76.01599999999999,5.160000000000002 75.90199999999999,4.933000000000002 75.743,4.758000000000002 C 75.723,4.732000000000002 75.708,4.705000000000002 75.68499999999999,4.6800000000000015 C 75.66199999999999,4.659000000000002 75.63499999999999,4.643000000000002 75.60999999999999,4.624000000000001 C 75.43399999999998,4.464000000000001 75.20699999999998,4.350000000000001 74.89999999999999,4.350000000000001 C 70.99099999999999,4.350000000000001 67.083,4.350000000000001 63.17299999999999,4.350000000000001 C 62.13499999999999,4.350000000000001 61.55099999999999,5.964000000000001 62.60899999999999,6.4300000000000015 C 64.58099999999999,7.298000000000002 66.54899999999999,8.166000000000002 68.51899999999999,9.034000000000002 C 67.79299999999999,10.281000000000002 67.068,11.528000000000002 66.341,12.775000000000002 C 55.22299999999999,12.775000000000002 44.10699999999999,12.775000000000002 32.989999999999995,12.775000000000002 C 34.001,11.268000000000002 35.093999999999994,9.500000000000002 34.270999999999994,8.004000000000001 C 33.80199999999999,7.151000000000002 33.37299999999999,6.279000000000002 32.95099999999999,5.402000000000001 C 32.62599999999999,4.730000000000001 32.343999999999994,4.042000000000001 32.105999999999995,3.335000000000001 C 32.05,3.182000000000001 32.032,3.067000000000001 32.038999999999994,2.976000000000001 L 34.364999999999995,2.976000000000001 C 36.318999999999996,2.976000000000001 38.272999999999996,2.976000000000001 40.227,2.976000000000001 C 41.032999999999994,2.976000000000001 41.839,2.976000000000001 42.645999999999994,2.976000000000001 C 44.56499999999999,2.976000000000001 44.56499999999999,-0.0009999999999990017 42.645999999999994,-0.0009999999999990017 C 39.32099999999999,-0.0009999999999990017 35.99699999999999,-0.0009999999999990017 32.67099999999999,-0.0009999999999990017 C 30.629999999999992,-0.0009999999999990017 28.95799999999999,-0.0029999999999990017 28.86799999999999,2.396000000000001 C 28.786999999999992,4.555000000000001 30.481999999999992,7.1850000000000005 31.441999999999993,9.024000000000001 C 31.46999999999999,9.077000000000002 31.49299999999999,9.115 31.518999999999995,9.16 C 31.272999999999996,9.591 31.025999999999996,10.021 30.780999999999995,10.451 C 28.863999999999994,13.804 26.945999999999994,17.157 25.028999999999996,20.509 C 22.772999999999996,19.457 20.266999999999996,18.852 17.616999999999997,18.852 C 7.903,18.853 0.0,26.756 0.0,36.469 C 0.0,46.182 7.903,54.085 17.617,54.085 C 27.33,54.085 35.233000000000004,46.182 35.233000000000004,36.469 C 35.233000000000004,30.469 32.212,25.165 27.616000000000003,21.983 C 28.395000000000003,20.621000000000002 29.174000000000003,19.258 29.952,17.897 C 36.52,23.214 43.087,28.532999999999998 49.655,33.849999999999994 C 48.973,34.748999999999995 48.553000000000004,35.858999999999995 48.553000000000004,37.074 C 48.553000000000004,40.037 50.955000000000005,42.44 53.918000000000006,42.44 C 54.09,42.44 54.254000000000005,42.405 54.422000000000004,42.388 L 54.42400000000001,42.415 L 65.417,41.15 C 67.475,48.594 74.292,54.085 82.382,54.085 C 92.09700000000001,54.085 99.99900000000001,46.182 99.99900000000001,36.469 C 100.0,26.756 92.098,18.853 82.383,18.853 M 32.256,36.469 C 32.256,44.54 25.689,51.109 17.616,51.109 C 9.543,51.109 2.975999999999999,44.541000000000004 2.975999999999999,36.469 C 2.975999999999999,28.397000000000002 9.543,21.829 17.616,21.829 C 19.728,21.829 21.733,22.288 23.548000000000002,23.097 C 21.516000000000002,26.650000000000002 19.484,30.203000000000003 17.451,33.757000000000005 C 16.022000000000002,33.84400000000001 14.887,35.019000000000005 14.887,36.46900000000001 C 14.887,37.97700000000001 16.109,39.19800000000001 17.616,39.19800000000001 C 19.122,39.19800000000001 20.345,37.977000000000004 20.345,36.46900000000001 C 20.345,36.02300000000001 20.227,35.60800000000001 20.037,35.23600000000001 C 22.067,31.68400000000001 24.098,28.13300000000001 26.128,24.583000000000013 C 29.832,27.242 32.256,31.574 32.256,36.469 M 73.073,25.181 C 74.91399999999999,27.944000000000003 76.75699999999999,30.707 78.598,33.471000000000004 L 68.245,32.732000000000006 C 69.04,29.732 70.747,27.103 73.073,25.181 M 65.23,32.516 L 58.57300000000001,32.04 C 61.53600000000001,26.948999999999998 64.49900000000001,21.857999999999997 67.46400000000001,16.767 C 68.78300000000002,18.746 70.10200000000002,20.725 71.42200000000001,22.704 C 68.361,25.145 66.138,28.58 65.23,32.516 M 55.264,31.805 L 53.919000000000004,31.709 C 53.287000000000006,31.709 52.688,31.839 52.124,32.039 C 45.419000000000004,26.61 38.713,21.181 32.008,15.751000000000001 C 42.875,15.751000000000001 53.74,15.751000000000001 64.608,15.751000000000001 C 61.493,21.104 58.378,26.454 55.264,31.805 M 82.383,51.109 C 75.821,51.109 70.253,46.767 68.39999999999999,40.807 L 82.383,39.198 C 83.89,39.198 85.112,37.977000000000004 85.112,36.469 C 85.112,34.963 83.89,33.74 82.383,33.74 L 82.35,33.738 C 80.082,30.338 77.815,26.936 75.547,23.534 C 77.59,22.45 79.914,21.83 82.383,21.83 C 90.45599999999999,21.83 97.023,28.397 97.023,36.47 C 97.023,44.541 90.457,51.109 82.383,51.109"/>
</svg>
