<?xml version="1.0" ?>
<svg xmlns="http://www.w3.org/2000/svg" xmlns:ev="http://www.w3.org/2001/xml-events" xmlns:xlink="http://www.w3.org/1999/xlink" baseProfile="full" enable-background="new 0 0 100 83.034" height="499px" version="1.1" viewBox="0 0 100 83.034" width="600px" x="0px" xml:space="preserve" y="0px">
	<defs/>
	<path d="M 60.66,82.674 L 76.75999999999999,82.674 C 81.19399999999999,82.674 81.36399999999999,75.852 76.75999999999999,75.852 L 68.50699999999999,75.852 L 84.2,60.159 C 87.679,56.68 82.759,51.644999999999996 79.062,55.341 L 63.604,70.843 L 63.604,62.675000000000004 C 63.627,58.242000000000004 56.748999999999995,58.071000000000005 56.738,62.675000000000004 L 56.738,78.67500000000001 C 56.737,81.062 58.341,82.674 60.66,82.674 L 60.66,82.674"/>
	<path d="M 0.0,73.671 L 18.203,73.671 L 18.203,55.144 L 36.289,55.144 L 36.289,36.492 L 54.661,36.492 L 54.661,18.187 L 72.907,18.187 L 72.907,0.0 L 100.0,0.0 L 100.0,9.279 L 81.989,9.279 L 81.989,27.534 L 63.722,27.534 L 63.722,46.046 L 45.491,46.046 L 45.491,64.461 L 27.187,64.461 L 27.187,83.034 L 0.0,83.034 L 0.0,73.671 L 0.0,73.671" points="0,73.671 18.203,73.671 18.203,55.144 36.289,55.144 36.289,36.492 54.661,36.492 54.661,18.187 72.907,18.187    72.907,0 100,0 100,9.279 81.989,9.279 81.989,27.534 63.722,27.534 63.722,46.046 45.491,46.046 45.491,64.461 27.187,64.461    27.187,83.034 0,83.034 0,73.671 "/>
</svg>
