<?xml version="1.0" ?>
<svg xmlns="http://www.w3.org/2000/svg" xmlns:cc="http://creativecommons.org/ns#" xmlns:dc="http://purl.org/dc/elements/1.1/" xmlns:ev="http://www.w3.org/2001/xml-events" xmlns:inkscape="http://www.inkscape.org/namespaces/inkscape" xmlns:rdf="http://www.w3.org/1999/02/22-rdf-syntax-ns#" xmlns:sodipodi="http://sodipodi.sourceforge.net/DTD/sodipodi-0.dtd" xmlns:svg="http://www.w3.org/2000/svg" xmlns:xlink="http://www.w3.org/1999/xlink" baseProfile="full" height="600px" version="1.1" viewBox="0 0 100 100" width="404px" x="0px" y="0px">
	<defs/>
	<path d="M 49.6873,953.03677 L 48.55798,957.38895 L 44.06711,957.25026 L 47.85133,959.66741 L 46.33896,963.90071 L 48.83536,961.84019 L 38.40069,979.91594 C 38.72855,980.4214999999999 39.238429999999994,981.06422 40.02533,981.7387 C 41.731049999999996,983.20074 44.68342,984.71721 49.80618,984.71721 C 52.24163,984.71721 55.92474,983.69484 58.92661,982.65009 C 60.131049999999995,982.2309 61.21884,981.81381 62.103229999999996,981.46133 L 50.724169999999994,961.7477299999999 L 53.365849999999995,963.79504 L 51.721399999999996,959.60797 L 55.43297,957.0785500000001 L 50.94871,957.34932 L 49.6873,953.03677 M 55.30089,975.80151 C 55.639030000000005,975.9658900000001 55.723020000000005,976.64169 55.77639,977.53182 C 55.803689999999996,977.98694 55.55642,978.5488700000001 55.08955,978.5488700000001 C 54.622690000000006,978.5488700000001 54.45555,977.7387900000001 54.45555,977.2808600000001 C 54.45555,976.85819 55.131820000000005,975.9658900000001 55.30089,975.8015100000001 L 55.30089,975.80151 M 44.734140000000004,976.22418 C 45.072280000000006,976.3885600000001 44.70244,976.3812200000001 45.20964,977.53182 C 45.39355,977.94902 44.989670000000004,978.5488700000001 44.522800000000004,978.5488700000001 C 44.05594000000001,978.5488700000001 43.84116,977.65853 44.10013000000001,977.2808600000001 C 44.776410000000006,976.2946300000001 44.565070000000006,976.3885600000001 44.73414000000001,976.22418 L 44.734140000000004,976.22418 M 43.46613000000001,979.1828700000001 L 45.579480000000004,979.1828700000001 L 45.612480000000005,984.2483100000001 C 45.612480000000005,984.2483100000001 44.873430000000006,984.0823 44.50958000000001,983.9775300000001 C 44.159380000000006,983.8767000000001 43.472710000000006,983.6341100000001 43.472710000000006,983.6341100000001 L 43.46571000000001,979.1828700000001 L 43.46613000000001,979.1828700000001 M 54.032880000000006,979.1828700000001 L 56.14623,979.1828700000001 L 56.15943,983.4095700000001 C 56.15943,983.4095700000001 55.44588,983.6351300000001 55.09615,983.7331800000002 C 54.74642,983.8312800000002 54.059290000000004,983.9973500000002 54.059290000000004,983.9973500000002 L 54.03289,979.1828700000002 L 54.032880000000006,979.1828700000001 M 37.52233000000001,981.4349100000001 L 27.46410800000001,998.85684 L 35.50144000000001,998.85684 L 34.78158000000001,1000.072 C 36.22008000000001,1000.2484 37.95779000000001,1000.4338 39.82720000000001,1000.5673 C 44.71363000000001,1000.9163000000001 50.49627000000001,1000.8658 53.73569000000001,999.57009 C 59.67787000000001,997.19322 66.21481000000001,992.71168 67.90834000000001,991.5195500000001 L 62.91555000000001,982.8680300000001 C 61.97708000000001,983.2437300000001 60.78846000000001,983.6983400000001 59.45494000000001,984.16245 C 56.384600000000006,985.23104 52.668760000000006,986.32203 49.80618000000001,986.32203 C 44.36219000000001,986.32203 40.97451000000001,984.6684700000001 38.981870000000015,982.9604800000001 C 38.377510000000015,982.4424700000001 37.89549000000002,981.91947 37.52233000000002,981.4349100000001 L 37.52233000000001,981.4349100000001 M 57.202900000000014,990.59496 C 57.54104000000002,990.7593400000001 57.41370000000001,991.2238 57.88974000000001,992.32527 C 58.07062000000001,992.74379 57.669770000000014,993.3423200000001 57.202900000000014,993.3423200000001 C 56.73604000000002,993.3423200000001 56.479090000000014,992.7346800000001 56.56890000000001,992.2856400000001 C 56.78023000000001,991.22897 57.03384000000001,990.7593400000001 57.202900000000014,990.59496 M 37.760080000000016,992.70831 C 38.09822000000002,992.87269 38.32276000000002,993.03706 38.82997000000002,994.1876599999999 C 39.013880000000015,994.6048599999999 38.610000000000014,995.1981 38.14313000000002,995.1981 C 37.67626000000002,995.1981 36.83292000000002,994.75078 37.12608000000002,994.3989899999999 C 38.18275000000002,993.1309799999999 37.59102000000002,992.8726899999999 37.76008000000002,992.7083099999999 L 37.760080000000016,992.70831 M 46.596530000000016,992.72811 C 46.93467000000002,992.8924900000001 47.05882000000002,993.13097 47.27016000000002,994.61032 C 47.33466000000002,995.06167 47.063400000000016,995.19809 46.596530000000016,995.19809 C 46.129660000000015,995.19809 45.74318000000002,994.5653199999999 46.002150000000015,994.18765 C 46.67842000000002,993.20142 46.42746000000002,992.89249 46.596530000000016,992.72811 M 68.72066000000001,992.91964 C 66.85907,994.2289499999999 60.41721000000001,998.62118 54.330070000000006,1001.0559 C 50.52499000000001,1002.5779 44.68421000000001,1002.5274 39.708330000000004,1002.1719999999999 C 37.491620000000005,1002.0135999999999 35.477340000000005,1001.7834999999999 33.896620000000006,1001.5776 L 30.343547000000004,1007.6071999999999 C 31.565661000000006,1008.1876 33.039860000000004,1008.8716 34.64289000000001,1009.5818999999999 C 38.967600000000004,1011.4982999999999 44.24476000000001,1013.5957999999999 47.851330000000004,1014.3170999999999 C 52.94288,1015.3353999999998 60.30476,1014.8339999999998 66.34314,1014.0463999999998 C 68.67975,1013.7415999999998 70.81183,1013.4023999999998 72.55771,1013.0952999999998 L 64.17035,998.8568299999998 L 72.14825,998.8568299999998 L 68.72066000000001,992.9196399999998 L 68.72066000000001,992.91964 M 56.14623000000001,993.97631 L 58.25958000000001,993.97631 L 58.25958000000001,997.35767 C 58.25958000000001,997.35767 57.561730000000004,997.73631 57.20951000000001,997.91243 C 56.85728000000001,998.08854 56.14623000000001,998.41435 56.14623000000001,998.41435 L 56.14623000000001,993.97631 M 37.08645000000001,995.8321 L 39.19980000000001,995.8321 L 39.23940000000001,1000.3163 L 37.11284000000001,1000.1314 L 37.08644000000001,995.8321 L 37.08645000000001,995.8321 M 45.539850000000015,995.8321 L 47.65320000000001,995.8321 L 47.686200000000014,1000.5607 C 47.686200000000014,1000.5607 46.97579000000001,1000.6117 46.622920000000015,1000.6267 C 46.270040000000016,1000.6417 45.566240000000015,1000.6467 45.566240000000015,1000.6467 L 45.53984000000001,995.83221 L 45.539850000000015,995.8321 M 42.409450000000014,1003.0635 C 42.620790000000014,1003.2749 42.324950000000015,1002.9694999999999 42.83212000000001,1004.1202 C 43.01603000000001,1004.5373999999999 42.87632000000001,1006.0222 42.409450000000014,1006.0222 C 41.94259000000002,1006.0222 41.516480000000016,1005.5546 41.77545000000001,1005.1769 C 42.451720000000016,1004.1907 42.24039000000001,1003.2279000000001 42.409450000000014,1003.0635000000001 L 42.409450000000014,1003.0635 M 61.429600000000015,1005.8109 C 61.654040000000016,1006.3922 61.66815000000001,1006.5047999999999 62.274940000000015,1007.2901999999999 C 62.553680000000014,1007.6510999999999 61.896470000000015,1008.1356 61.429600000000015,1008.1356 C 60.96274000000002,1008.1356 60.53663000000002,1007.4566 60.795600000000015,1007.0789 C 61.47187000000002,1006.0926999999999 61.26054000000001,1005.9753 61.429600000000015,1005.8109 M 41.35278000000001,1006.6561999999999 L 43.46613000000001,1006.6561999999999 L 43.479330000000004,1012.9301999999999 C 43.479330000000004,1012.9301999999999 42.76939,1012.7168999999999 42.416050000000006,1012.5867999999999 C 42.06271,1012.4567 41.359370000000006,1012.1509 41.359370000000006,1012.1509 L 41.35237000000001,1006.6562 L 41.35278000000001,1006.6561999999999 M 60.37293000000001,1008.7695999999999 L 62.48628000000001,1008.7695999999999 L 62.506080000000004,1014.2906999999999 C 62.506080000000004,1014.2906999999999 61.795030000000004,1014.3916999999999 61.442800000000005,1014.4227999999999 C 61.09058,1014.4537999999999 60.39273000000001,1014.4757999999999 60.39273000000001,1014.4757999999999 L 60.37293000000001,1008.7697 L 60.37293000000001,1008.7695999999999 M 29.52462400000001,1009.0006999999998 L 24.92808800000001,1016.8002999999999 L 31.12284500000001,1016.8002999999999 L 20.58911600000001,1033.2448 C 26.523365000000013,1033.0562 42.107290000000006,1032.4683 49.58164000000001,1031.2370999999998 L 49.674040000000005,1031.2241 C 58.66306,1029.7259999999999 67.73385,1024.9402 72.07555,1022.4008999999999 L 68.48946000000001,1016.8004999999998 L 74.74366,1016.8004999999998 L 73.42942000000001,1014.5682999999998 C 71.56213000000001,1014.9054999999998 69.19900000000001,1015.2931999999998 66.55443000000001,1015.6381999999998 C 60.44105000000001,1016.4355999999998 53.00948000000001,1016.9907999999998 47.53428000000001,1015.8956999999998 C 43.643130000000006,1015.1174999999998 38.35664000000001,1012.9902999999998 33.989030000000014,1011.0548999999999 C 32.31326600000001,1010.3122999999998 30.782670000000014,1009.6004999999999 29.524574000000015,1009.0008999999999 L 29.52462400000001,1009.0006999999998 M 63.54295000000001,1018.9796999999999 C 63.881090000000015,1019.1440999999999 63.72259000000001,1019.2819999999998 64.22979000000001,1020.4325999999999 C 64.4137,1020.8497999999998 64.00982,1021.4496999999999 63.54295000000001,1021.4496999999999 C 63.076090000000015,1021.4496999999999 62.64998000000001,1020.9819999999999 62.90895000000001,1020.6042999999999 C 63.585220000000014,1019.6180999999998 63.12028000000001,1019.1205999999999 63.54295000000001,1018.9796999999999 M 62.486280000000015,1022.0836999999999 L 64.59963000000002,1022.0836999999999 L 64.61283000000002,1026.0726 C 64.61283000000002,1026.0726 63.90949000000002,1026.432 63.55615000000002,1026.5944 C 63.20282000000002,1026.7567 62.49287000000002,1027.0435 62.49287000000002,1027.0435 L 62.48587000000002,1022.0837 L 62.486280000000015,1022.0836999999999 M 48.69667000000001,1023.3714999999999 C 49.034810000000014,1023.5358999999999 48.87631000000001,1023.6803999999998 49.38351000000001,1024.831 C 49.567420000000006,1025.2482 49.16354000000001,1025.8415 48.69667000000001,1025.8415 C 48.22980000000001,1025.8415 47.856530000000014,1024.786 48.11550000000001,1024.4084 C 48.791770000000014,1023.4221 48.527600000000014,1023.5359000000001 48.69667000000001,1023.3715000000001 L 48.69667000000001,1023.3714999999999 M 72.94736,1023.7611999999998 C 68.55396,1026.3482 59.31255,1031.2465999999997 49.93826,1032.8088999999998 C 41.72938,1034.1770999999997 24.43935,1034.7498999999998 19.539044999999998,1034.8892999999998 L 16.837919999999997,1039.1028 L 45.57948,1039.1028 L 45.57948,1051.0366 L 54.03288,1051.0366 L 54.03288,1039.1028 L 82.77444,1039.1028 L 72.94736,1023.7611999999999 L 72.94736,1023.7611999999998 M 31.842705000000002,1024.6856999999998 C 32.180841,1024.8500999999997 32.180841,1025.1795999999997 32.688045,1026.3301999999999 C 32.871950000000005,1026.7474 32.309571000000005,1027.1556999999998 31.842705000000002,1027.1556999999998 C 31.375838,1027.1556999999998 30.738393000000002,1026.7078999999999 30.997365000000002,1026.3301999999999 C 31.673637000000003,1025.3439999999998 31.673637000000003,1024.8500999999999 31.842705000000002,1024.6856999999998 M 47.64,1026.4754999999998 L 49.75335,1026.4754999999998 L 49.79295,1030.9597999999999 C 49.79295,1030.9597999999999 49.08412,1031.1089 48.72967,1031.1644999999999 C 48.37522,1031.2205 47.66639,1031.29 47.66639,1031.29 L 47.63999,1026.4755 L 47.64,1026.4754999999998 M 30.78603,1027.7896999999998 L 32.89938,1027.7896999999998 L 32.95218,1032.2673999999997 C 32.95218,1032.2673999999997 32.238972,1032.3443999999997 31.882299999999997,1032.3663999999997 C 31.525625999999995,1032.3883999999996 30.812416999999996,1032.4063999999996 30.812416999999996,1032.4063999999996 L 30.785996999999995,1027.7899999999995 L 30.78603,1027.7896999999998" fill="#000000" fill-opacity="1" stroke="none"/>
</svg>
