<?xml version="1.0" ?>
<svg xmlns="http://www.w3.org/2000/svg" xmlns:cc="http://creativecommons.org/ns#" xmlns:dc="http://purl.org/dc/elements/1.1/" xmlns:ev="http://www.w3.org/2001/xml-events" xmlns:rdf="http://www.w3.org/1999/02/22-rdf-syntax-ns#" xmlns:svg="http://www.w3.org/2000/svg" xmlns:xlink="http://www.w3.org/1999/xlink" baseProfile="full" height="313px" version="1.1" viewBox="0 0 100 100" width="600px" x="0px" y="0px">
	<defs/>
	<path d="M 59.70441,977.53861 L 59.70441,985.7738999999999 C 58.71542,985.8813399999999 57.776250000000005,986.2671899999999 57.192640000000004,986.9114 C 57.10224,987.0111999999999 57.109440000000006,987.20722 57.14114000000001,987.3849299999999 C 50.63790000000001,988.0845999999999 43.23060000000001,989.4383999999999 38.19481900000001,989.8864 C 31.73577800000001,990.461 26.73462900000001,991.8365 21.16320200000001,982.0165499999999 C 20.49355900000001,981.98105 19.90293700000001,981.9573499999999 19.351437000000008,981.94445 L 19.351437000000008,980.83268 L 20.17496600000001,980.83268 L 20.17496600000001,980.00915 L 17.70437800000001,980.00915 L 17.70437800000001,980.83268 L 18.52790800000001,980.83268 L 18.52790800000001,981.9341499999999 C 17.55202700000001,981.9361499999999 16.76945300000001,981.9907499999999 16.160261000000013,982.1143 C 15.286415000000012,984.11101 17.232694000000013,1001.0567 17.585996000000012,1010.4798 L 16.880849000000012,1010.4798 L 16.880849000000012,1009.6561999999999 L 16.05731900000001,1009.6561999999999 L 16.05731900000001,1010.4798 L 16.05731900000001,1011.3032999999999 L 16.05731900000001,1012.1267999999999 L 16.880849000000012,1012.1267999999999 L 16.880849000000012,1011.3032999999999 L 17.611731000000013,1011.3032999999999 C 17.633251000000012,1012.0622999999999 17.643441000000013,1012.7707999999999 17.637461000000012,1013.3982 C 17.852012000000013,1013.6019 18.20868300000001,1013.6752 18.59996100000001,1013.6812 L 19.269079000000012,1020.3620999999999 L 7.822020000000013,1020.3620999999999 L 1.233820000000013,1028.5974999999999 L 99.23382000000001,1028.5974999999999 L 93.46911000000001,1020.3621999999998 L 75.35147,1020.3621999999998 L 75.35147,1012.9503999999998 C 75.35147,1012.0378999999998 74.61688000000001,1011.3032999999998 73.70441000000001,1011.3032999999998 L 72.66985000000001,1011.3032999999998 C 72.63945000000001,1009.1391999999998 72.52476000000001,1006.8126999999998 72.24779000000001,1004.4061999999998 C 72.19569000000001,1003.9531999999998 72.14799000000001,1003.5087999999998 72.10367000000001,1003.0679999999998 L 74.26029000000001,1003.0679999999998 C 74.31659,1005.2922999999997 74.52794000000002,1007.1834999999998 75.35147,1007.1856999999998 C 76.99853,1007.1856999999998 77.01911000000001,1004.1694999999997 77.01911000000001,1004.1694999999997 L 78.52206000000001,1004.1284999999997 C 79.03563000000001,1005.1555999999997 79.46911000000001,1006.3622999999997 80.29264,1006.3622999999997 C 83.58676000000001,1006.3622999999997 83.18014000000001,993.9629999999996 83.18014000000001,993.9629999999996 C 83.18014000000001,993.9629999999996 83.58676000000001,982.4799599999997 80.29264,981.6564299999997 C 78.64558000000001,981.6564299999997 78.64558000000001,984.1270199999997 78.64558000000001,984.1270199999997 L 76.99853000000002,984.1270199999997 C 76.17500000000001,984.1270199999997 76.93803000000001,982.7443499999997 75.69117000000001,982.3306999999996 C 74.44011000000002,982.4229999999997 74.14192000000001,985.6511099999997 74.07500000000002,989.0681999999996 L 70.34338000000001,989.0681999999996 C 69.87792000000002,988.1102999999996 69.22238000000002,987.5256399999996 68.25367000000001,987.3902599999996 C 66.89518000000001,987.0377099999996 65.10688000000002,986.9213599999996 63.05000000000001,986.9630499999996 C 63.04800000000001,986.8258099999996 63.02240000000001,986.6967299999997 62.947060000000015,986.6284899999996 C 62.345140000000015,986.0831999999996 61.453780000000016,985.7967299999996 60.527940000000015,985.7534899999996 L 60.527940000000015,977.5387899999996 L 59.70441000000002,977.5387899999996 L 59.70441,977.53861 M 74.775,995.6562 C 76.36688000000001,995.6562 77.65735000000001,996.9467 77.65735000000001,998.5386 C 77.65735000000001,1000.1305 76.36688000000001,1001.4209999999999 74.775,1001.4209999999999 C 73.18312,1001.4209999999999 71.89264,1000.1305 71.89264,998.5386 C 71.89264,996.9467 73.18312,995.6562 74.775,995.6562 M 74.6875,997.7562 C 74.23267,997.7562 73.86397,998.125 73.86397,998.5798000000001 C 73.86397,999.0346000000001 74.23267,999.4033000000001 74.6875,999.4033000000001 C 75.14232,999.4033000000001 75.51103,999.0346000000001 75.51103,998.5798000000001 C 75.51103,998.1250000000001 75.14232000000001,997.7562 74.6875,997.7562 M 69.91617,997.7972000000001 C 70.59840999999999,997.7972000000001 71.15146999999999,998.3503000000001 71.15146999999999,999.0325000000001 C 71.15146999999999,999.2630000000001 71.08636999999999,999.4758000000002 70.97646999999999,999.6605000000002 L 68.92793999999999,998.2914000000002 C 69.15328,997.9911000000002 69.51181999999999,997.7973000000002 69.91617,997.7973000000002 L 69.91617,997.7972000000001 M 68.83529,998.4355 L 70.88382,999.7995000000001 C 70.65756,1000.0852000000001 70.30896,1000.2678000000001 69.91617,1000.2678000000001 C 69.23393999999999,1000.2678000000001 68.68087999999999,999.7148000000001 68.68087999999999,999.0325 C 68.68087999999999,998.8153 68.73677999999998,998.6129000000001 68.83528999999999,998.4355 L 68.83529,998.4355 M 38.467644,998.77 C 47.79598,998.804 57.7264,1000.3335999999999 58.06764,1002.234 C 59.746719999999996,1007.0045 56.88097,1015.6037 55.0,1020.3620000000001 L 20.174996,1020.3620000000001 L 20.174996,1016.1723000000001 C 20.276345,1016.2173 20.386591,1016.2443000000001 20.504408,1016.2443000000001 C 20.95923,1016.2443000000001 21.327938000000003,1015.8756000000001 21.327938000000003,1015.4207 C 21.327938000000003,1014.9659 20.95923,1014.5972 20.504408,1014.5972 C 20.386591000000003,1014.5972 20.276345000000003,1014.6192000000001 20.174996,1014.6642 L 20.174996,1014.5150000000001 L 21.765438,1014.5150000000001 C 21.907518,1014.7623000000001 22.170015,1014.9319000000002 22.475732,1014.9319000000002 C 22.930554,1014.9319000000002 23.299261,1014.5632000000002 23.299261,1014.1083000000001 C 23.299261,1013.6535000000001 22.930554,1013.2848000000001 22.475732,1013.2848000000001 C 22.172516,1013.2848000000001 21.913521,1013.4474000000001 21.770585,1013.6914000000002 L 20.174996,1013.6914000000002 L 20.174996,1013.4598000000002 C 20.334132,1013.4188000000001 20.468379,1013.3828000000002 20.468379,1013.3828000000002 C 20.468379,1013.3828000000002 20.499409,1011.7795000000002 20.802937999999997,1011.0563000000002 C 21.721574999999998,1008.8675000000002 22.769622999999996,1008.4590000000002 23.947791,1006.3982000000002 C 24.898536999999997,1004.7353000000002 26.086325,999.9382000000002 28.405144,999.4857000000002 C 31.261344,998.9730000000002 34.817424,998.7572000000001 38.467644,998.7703000000001 L 38.467644,998.77 M 21.080879,1000.1854999999999 C 22.672757999999998,1000.1854999999999 23.963231999999998,1001.4759999999999 23.963231999999998,1003.0677999999999 C 23.963231999999998,1004.6596999999999 22.672757999999998,1005.9501999999999 21.080878999999996,1005.9501999999999 C 19.488999999999997,1005.9501999999999 18.198525999999994,1004.6596999999999 18.198525999999994,1003.0677999999999 C 18.198525999999994,1001.4759999999999 19.488999999999994,1000.1854999999999 21.080878999999996,1000.1854999999999 L 21.080879,1000.1854999999999 M 20.998528999999998,1001.4208 C 20.844333,1001.4208 20.697426999999998,1001.4428 20.555881999999997,1001.4828 L 21.832351999999997,1004.4887 C 22.320098999999995,1004.2027 22.645587999999996,1003.6743 22.645587999999996,1003.0681 C 22.645587999999996,1002.1583999999999 21.908174999999996,1001.4209999999999 20.998528999999998,1001.4209999999999 L 20.998528999999998,1001.4208 M 20.108088,1001.6833 C 19.653731999999998,1001.9765 19.35147,1002.4869 19.35147,1003.0678 C 19.35147,1003.9775000000001 20.088883,1004.7149000000001 20.998528999999998,1004.7149000000001 C 21.128597,1004.7149000000001 21.252890999999998,1004.6969 21.374263999999997,1004.6689 L 20.108087999999995,1001.6836 L 20.108088,1001.6833 M 68.76323,1004.7149000000001 C 69.90029,1004.7149000000001 70.82206,1005.6367 70.82206,1006.7737000000001 C 70.82206,1007.9108000000001 69.90029,1008.8326000000001 68.76323,1008.8326000000001 C 67.62616999999999,1008.8326000000001 66.70441,1007.9108000000001 66.70441,1006.7737000000001 C 66.70441,1005.6367000000001 67.62617,1004.7149000000001 68.76323,1004.7149000000001" fill="#000000" fill-opacity="1" stroke="none"/>
</svg>
