<?xml version="1.0" ?>
<svg xmlns="http://www.w3.org/2000/svg" xmlns:ev="http://www.w3.org/2001/xml-events" xmlns:xlink="http://www.w3.org/1999/xlink" baseProfile="full" enable-background="new 0 0 100 82" height="492px" version="1.1" viewBox="0 0 100 82" width="600px" x="0px" xml:space="preserve" y="0px">
	<defs/>
	<path d="M 0.006,0.055 L 99.994,0.055 L 99.994,81.944 L 0.006,81.944 L 0.006,0.055 M 95.686,4.599 L 4.597,4.599 L 4.597,76.908 M 90.949,59.75 L 68.268,59.75 L 68.268,68.841 L 90.952,68.841 L 90.952,59.75 L 90.949,59.75 M 9.141,27.871 L 18.231,27.871 L 18.231,37.028 L 27.321,37.028 L 27.321,27.871 L 36.412,27.871 L 36.412,18.781 L 27.320999999999998,18.781 L 27.320999999999998,9.758 L 18.230999999999998,9.758 L 18.230999999999998,18.781 L 9.140999999999998,18.781 L 9.140999999999998,27.871 L 9.141,27.871" fill="#000000"/>
</svg>
