<?xml version="1.0" ?>
<svg xmlns="http://www.w3.org/2000/svg" xmlns:ev="http://www.w3.org/2001/xml-events" xmlns:xlink="http://www.w3.org/1999/xlink" baseProfile="full" enable-background="new 0 0 99.854 100" height="600px" version="1.1" viewBox="0 0 99.854 100" width="600px" x="0px" xml:space="preserve" y="0px">
	<defs/>
	<path d="M 47.077,12.5 C 47.077,9.432 41.521,0.0 41.521,0.0 C 41.521,0.0 35.965,9.432 35.965,12.5 C 35.965,15.568 38.452000000000005,18.056 41.521,18.056 C 44.589,18.056 47.077,15.568 47.077,12.5"/>
	<path d="M 37.354,47.221 C 37.354,44.153 31.799,34.721 31.799,34.721 C 31.799,34.721 26.243,44.153 26.243,47.221 C 26.243,50.288999999999994 28.729999999999997,52.776999999999994 31.799,52.776999999999994 C 34.867,52.776 37.354,50.289 37.354,47.221"/>
	<path d="M 27.632,12.5 C 27.632,9.432 22.077,0.0 22.077,0.0 C 22.077,0.0 16.521,9.432 16.521,12.5 C 16.521,15.568 19.008000000000003,18.056 22.077,18.056 C 25.145,18.056 27.632,15.568 27.632,12.5"/>
	<path d="M 66.521,12.5 C 66.521,9.432 60.965,0.0 60.965,0.0 C 60.965,0.0 55.41,9.432 55.41,12.5 C 55.41,15.568 57.897,18.056 60.965999999999994,18.056 C 64.035,18.056 66.521,15.568 66.521,12.5"/>
	<path d="M 56.799,47.221 C 56.799,44.153 51.243,34.721 51.243,34.721 C 51.243,34.721 45.688,44.153 45.688,47.221 C 45.688,50.288999999999994 48.176,52.776999999999994 51.243,52.776999999999994 C 54.312,52.776 56.799,50.289 56.799,47.221"/>
	<path d="M 41.521,87.5 C 38.458,87.5 35.965,85.009 35.965,81.944 C 35.965,79.409 39.584,72.834 40.309000000000005,71.543 L 41.52,69.385 L 42.731,71.543 C 43.457,72.834 47.076,79.409 47.076,81.944 C 47.077,85.009 44.584,87.5 41.521,87.5 M 41.521,75.156 C 40.034,78.042 38.743,81.0 38.743,81.944 C 38.743,83.47500000000001 39.989000000000004,84.72200000000001 41.521,84.72200000000001 C 43.053,84.72200000000001 44.299,83.47500000000001 44.299,81.944 C 44.299,81.0 43.009,78.042 41.521,75.156"/>
	<path d="M 91.521,87.499 C 88.457,87.499 85.965,85.00699999999999 85.965,81.943 C 85.965,79.408 89.584,72.833 90.31,71.541 L 91.521,69.384 L 92.732,71.541 C 93.458,72.833 97.077,79.408 97.077,81.943 C 97.077,85.007 94.585,87.499 91.521,87.499 M 91.521,75.154 C 90.033,78.041 88.743,80.999 88.743,81.943 C 88.743,83.474 89.99,84.72 91.521,84.72 C 93.052,84.72 94.298,83.474 94.298,81.943 C 94.299,80.999 93.009,78.041 91.521,75.154"/>
	<path d="M 95.688,52.777 L 95.688,11.11 L 77.633,11.11 L 77.633,11.111 L 74.641,11.111 L 64.248,91.667 L 41.521,91.665 L 18.795,91.667 L 8.402,11.111 L 0.0,11.111 L 11.468,100.0 L 41.521,99.999 L 71.575,100.0 L 81.968,19.443 L 87.354,19.443 L 87.354,52.777 L 83.188,52.777 L 91.521,62.5 L 99.854,52.777 L 95.688,52.777" points="95.688,52.777 95.688,11.11 77.633,11.11 77.633,11.111 74.641,11.111 64.248,91.667 41.521,91.665 18.795,91.667   8.402,11.111 0,11.111 11.468,100 41.521,99.999 71.575,100 81.968,19.443 87.354,19.443 87.354,52.777 83.188,52.777 91.521,62.5   99.854,52.777 "/>
	<path d="M 37.354,25.694 L 45.687,25.694 L 45.687,29.860999999999997 L 37.354,29.860999999999997 L 37.354,25.694" height="4.167" width="8.333" x="37.354" y="25.694"/>
	<path d="M 16.521,25.694 L 26.243000000000002,25.694 L 26.243000000000002,29.860999999999997 L 16.521,29.860999999999997 L 16.521,25.694" height="4.167" width="9.722" x="16.521" y="25.694"/>
	<path d="M 56.799,25.694 L 66.522,25.694 L 66.522,29.860999999999997 L 56.799,29.860999999999997 L 56.799,25.694" height="4.167" width="9.723" x="56.799" y="25.694"/>
	<path d="M 37.354,59.027 L 45.687,59.027 L 45.687,63.194 L 37.354,63.194 L 37.354,59.027" height="4.167" width="8.333" x="37.354" y="59.027"/>
	<path d="M 20.688,59.027 L 26.244,59.027 L 26.244,63.194 L 20.688,63.194 L 20.688,59.027" height="4.167" width="5.556" x="20.688" y="59.027"/>
	<path d="M 56.799,59.027 L 62.355,59.027 L 62.355,63.194 L 56.799,63.194 L 56.799,59.027" height="4.167" width="5.556" x="56.799" y="59.027"/>
</svg>
