<?xml version="1.0" ?>
<svg xmlns="http://www.w3.org/2000/svg" xmlns:ev="http://www.w3.org/2001/xml-events" xmlns:xlink="http://www.w3.org/1999/xlink" baseProfile="full" enable-background="new 0 0 100 100" height="600px" version="1.1" viewBox="0 0 100 100" width="600px" x="0px" xml:space="preserve" y="0px">
	<defs/>
	<path d="M 100.0,90.277 C 98.264,90.972 96.527,91.667 94.444,91.667 C 90.277,91.667 87.5,88.889 83.333,88.889 C 79.167,88.889 76.389,91.667 72.223,91.667 C 68.056,91.667 65.27799999999999,88.889 61.111999999999995,88.889 C 56.94499999999999,88.889 54.16799999999999,91.667 50.00099999999999,91.667 C 45.83399999999999,91.667 43.05699999999999,88.889 38.889999999999986,88.889 C 34.722999999999985,88.889 31.945999999999987,91.667 27.778999999999986,91.667 C 23.611999999999984,91.667 20.834999999999987,88.889 16.667999999999985,88.889 C 12.500999999999985,88.889 9.723999999999986,91.667 5.556999999999984,91.667 C 3.473999999999984,91.667 1.7379999999999844,90.97500000000001 0.0009999999999843467,90.28 L 0.0009999999999843467,98.614 C 1.736,99.309 3.472,100.0 5.556,100.0 C 9.722999999999999,100.0 12.5,97.223 16.667,97.223 C 20.834000000000003,97.223 23.612000000000002,100.0 27.778000000000002,100.0 C 31.944000000000003,100.0 34.722,97.223 38.889,97.223 C 43.056,97.223 45.833,100.0 50.0,100.0 C 54.167,100.0 56.944,97.223 61.111000000000004,97.223 C 65.277,97.223 68.055,100.0 72.22200000000001,100.0 C 76.388,100.0 79.16600000000001,97.223 83.33200000000001,97.223 C 87.49900000000001,97.223 90.27600000000001,100.0 94.44300000000001,100.0 C 96.52600000000001,100.0 98.26200000000001,99.306 99.99900000000001,98.611 L 99.99900000000001,90.277 L 100.0,90.277"/>
	<path d="M 90.277,12.5 L 81.944,26.389 L 72.22200000000001,30.555999999999997 L 69.444,54.167 L 68.055,68.056 L 50.0,73.611 L 31.944,68.055 L 27.777,41.66600000000001 L 20.833000000000002,36.11100000000001 L 13.888000000000002,20.833000000000013 L 0.0,18.056 L 0.0,81.94800000000001 C 1.736,82.64200000000001 3.472,83.334 5.556,83.334 C 9.722999999999999,83.334 12.5,80.557 16.667,80.557 C 20.834000000000003,80.557 23.612000000000002,83.334 27.778000000000002,83.334 C 31.944000000000003,83.334 34.722,80.557 38.889,80.557 C 43.056000000000004,80.557 45.834,83.334 50.0,83.334 C 54.167,83.334 56.944,80.557 61.111000000000004,80.557 C 65.277,80.557 68.055,83.334 72.22200000000001,83.334 C 76.388,83.334 79.16600000000001,80.557 83.33200000000001,80.557 C 87.49900000000001,80.557 90.27600000000001,83.334 94.44300000000001,83.334 C 96.52600000000001,83.334 98.26200000000001,82.64 99.99900000000001,81.94500000000001 L 99.99900000000001,12.5 L 90.277,12.5"/>
	<path d="M 61.868,34.614 L 66.376,30.342999999999996 L 60.417,28.191999999999997 L 60.417,21.59 L 61.868,22.113 L 66.376,17.842 L 60.417,15.690999999999999 L 60.417,0.0 L 39.583,0.0 L 39.583,8.172 L 34.338,6.2780000000000005 L 35.049,12.448 L 39.583,14.083 L 39.583,20.672 L 34.338,18.778000000000002 L 35.049,24.948 L 39.583,26.583000000000002 L 39.583,33.172000000000004 L 34.338,31.278000000000006 L 35.049,37.44800000000001 L 39.583,39.083000000000006 L 39.583,45.696000000000005 L 34.338,43.80200000000001 L 35.049,49.97200000000001 L 39.583,51.607000000000006 L 39.583,59.11200000000001 L 50.0,69.444 L 60.414,59.114000000000004 L 61.868,59.63700000000001 L 66.376,55.36600000000001 L 60.417,53.215 L 60.417,46.59 L 61.868,47.11300000000001 L 66.376,42.842000000000006 L 60.417,40.691 L 60.417,34.09 L 61.868,34.614 M 43.75,4.167 L 56.25,4.167 L 56.25,14.188 L 43.75,9.677 L 43.75,4.167 M 43.75,15.584 L 56.25,20.089 L 56.25,26.686999999999998 L 43.75,22.176 L 43.75,15.584 M 50.0,63.553 L 43.75,57.387 L 43.75,53.109 L 56.082,57.552 L 50.0,63.553 M 56.25,51.712 L 43.75,47.201 L 43.75,40.585 L 56.25,45.09 L 56.25,51.712 M 56.25,39.188 L 43.75,34.677 L 43.75,28.085 L 56.25,32.59 L 56.25,39.188"/>
</svg>
