<?xml version="1.0" ?>
<svg xmlns="http://www.w3.org/2000/svg" xmlns:ev="http://www.w3.org/2001/xml-events" xmlns:xlink="http://www.w3.org/1999/xlink" baseProfile="full" enable-background="new 0 0 100 100" height="600px" version="1.1" viewBox="0 0 100 100" width="600px" x="0px" xml:space="preserve" y="0px">
	<defs/>
	<path d="M 98.611,58.719 L 98.611,13.889000000000003 C 98.611,12.355000000000002 97.369,11.112000000000002 95.833,11.112000000000002 L 45.833,11.112000000000002 C 44.299,11.112000000000002 43.055,12.356000000000002 43.055,13.889000000000003 L 43.055,30.645000000000003 L 41.301,27.937000000000005 L 38.657000000000004,23.751000000000005 C 37.162000000000006,21.365000000000006 34.587,19.444000000000003 30.554000000000002,19.444000000000003 L 9.722,19.444000000000003 C 2.778,19.444 0.0,25.0 0.0,29.167 L 0.0,54.862 C 0.0,56.78 1.554,58.334 3.472,58.334 C 5.39,58.334 6.944,56.78 6.944,54.862 L 6.944,30.556 L 9.722,30.556 L 9.722,95.139 C 9.722,97.824 11.898,100.0 14.582999999999998,100.0 C 17.267999999999997,100.0 19.444,97.823 19.444,95.139 L 19.444,58.333 L 22.221999999999998,58.333 L 22.221999999999998,95.139 C 22.221999999999998,97.824 24.397999999999996,100.0 27.083,100.0 C 29.767999999999997,100.0 31.944,97.823 31.944,95.139 L 31.944,30.556 L 34.722,30.556 L 43.055,43.422 L 43.055,58.718999999999994 C 42.227,59.19799999999999 41.665,60.083999999999996 41.665,61.10999999999999 C 41.665,62.64399999999999 42.908,63.88799999999999 44.442,63.88799999999999 L 45.833,63.88799999999999 L 95.833,63.88799999999999 L 97.223,63.88799999999999 C 98.758,63.88799999999999 100.0,62.64399999999999 100.0,61.10999999999999 C 100.0,60.084 99.438,59.198 98.611,58.719 M 52.016,50.86 C 53.623999999999995,49.814 54.08,47.666 53.036,46.057 L 52.806000000000004,45.702000000000005 L 66.328,24.881000000000004 C 66.74600000000001,24.235000000000003 66.56400000000001,23.377000000000002 65.922,22.959000000000003 C 65.277,22.542 64.417,22.723000000000003 64.0,23.368000000000002 L 51.152,43.148 L 45.833,34.934000000000005 L 45.833,13.889 L 95.833,13.889 L 95.833,58.333 L 45.833,58.333 L 45.833,47.71 L 47.211,49.838 C 48.256,51.447 50.406,51.904 52.016,50.86"/>
	<path d="M 79.167,54.167 C 85.303,54.167 90.277,49.191 90.277,43.056 C 90.277,36.919999999999995 79.167,18.055999999999997 79.167,18.055999999999997 C 79.167,18.055999999999997 68.056,36.92 68.056,43.056 C 68.056,49.191 73.03,54.167 79.167,54.167 M 73.611,40.278 L 77.777,40.278 L 77.777,36.111 L 80.555,36.111 L 80.555,40.278 L 84.72200000000001,40.278 L 84.72200000000001,43.056 L 80.555,43.056 L 80.555,47.223 L 77.777,47.223 L 77.777,43.056 L 73.611,43.056 L 73.611,40.278"/>
	<path cx="20.833" cy="8.333" d="M 12.499999999999998,8.333 A 8.333,8.333 0.0 1,0 29.165999999999997,8.333 A 8.333,8.333 0.0 1,0 12.499999999999996,8.333" r="8.333"/>
</svg>
