<?xml version="1.0" ?>
<svg xmlns="http://www.w3.org/2000/svg" xmlns:ev="http://www.w3.org/2001/xml-events" xmlns:xlink="http://www.w3.org/1999/xlink" baseProfile="full" enable-background="new 0 0 100 100" height="600px" version="1.1" viewBox="0 0 100 100" width="600px" x="0px" xml:space="preserve" y="0px">
	<defs/>
	<path d="M 65.771,59.034 C 65.771,58.727 65.667,58.467999999999996 65.414,58.24 C 65.172,58.025 64.793,57.855000000000004 64.477,57.686 C 64.15100000000001,57.516 63.87500000000001,57.357 63.856,57.165 C 63.856,57.153999999999996 63.856,57.153999999999996 63.856,57.144 C 63.856,56.907 64.212,56.623 64.71900000000001,56.294 C 65.00200000000001,56.102999999999994 65.35000000000001,55.888 65.88700000000001,55.965999999999994 L 63.97100000000002,54.971 C 64.80300000000001,54.157 66.10800000000002,52.934 66.10800000000002,51.87 C 66.10800000000002,51.699 66.07700000000001,51.528999999999996 66.00300000000001,51.372 C 65.44500000000001,50.148 62.530000000000015,49.322 61.100000000000016,49.82 L 60.521000000000015,47.036 C 62.11100000000002,46.946 64.00400000000002,46.878 65.72000000000001,46.629000000000005 C 67.436,46.38000000000001 68.97300000000001,45.961000000000006 69.85700000000001,45.147000000000006 C 72.16200000000002,43.008 69.84600000000002,38.175000000000004 69.84600000000002,32.913000000000004 C 69.84600000000002,30.559000000000005 70.31000000000002,28.137000000000004 71.83400000000002,25.817000000000004 C 75.16000000000001,20.758000000000003 83.59100000000002,16.242000000000004 86.08500000000002,15.892000000000003 L 86.08500000000002,11.444000000000003 L 50.099,11.444000000000003 L 14.114,11.444000000000003 L 14.114,15.892000000000003 C 16.619,16.243000000000002 25.039,20.758000000000003 28.365000000000002,25.817000000000004 C 29.902,28.137000000000004 30.354000000000003,30.570000000000004 30.354000000000003,32.913000000000004 C 30.354000000000003,38.176 28.039,43.008 30.342000000000002,45.147000000000006 C 31.227000000000004,45.961000000000006 32.764,46.38 34.489000000000004,46.629000000000005 C 36.205000000000005,46.87800000000001 38.099000000000004,46.946000000000005 39.678000000000004,47.036 L 39.1,49.82 C 37.679,49.322 34.752,50.148 34.196,51.372 C 34.122,51.528999999999996 34.091,51.699 34.091,51.87 C 34.091,52.931999999999995 35.397,54.155 36.229,54.971 L 34.324,55.965999999999994 C 34.861,55.88799999999999 35.198,56.102999999999994 35.492,56.294 C 35.976,56.622 36.346,56.894999999999996 36.346,57.132 C 36.346,57.144 36.346,57.153999999999996 36.346,57.165 C 36.324999999999996,57.357 36.05,57.518 35.736,57.686 C 35.409,57.855 35.029999999999994,58.025 34.788999999999994,58.24 C 34.535999999999994,58.468 34.431999999999995,58.727000000000004 34.431999999999995,59.034 C 34.431999999999995,60.232 36.147,61.919 36.63099999999999,63.107 C 36.72699999999999,63.356 36.77799999999999,63.583 36.77799999999999,63.786 C 36.77799999999999,65.802 32.39999999999999,66.118 28.894999999999992,67.068 C 24.093999999999994,68.37 20.93799999999999,70.859 20.93799999999999,73.949 C 20.93799999999999,73.983 20.93799999999999,74.007 20.93799999999999,74.03999999999999 C 20.958999999999993,75.20599999999999 21.432999999999993,76.44999999999999 22.231999999999992,77.63999999999999 C 23.02199999999999,78.817 24.135999999999992,79.94899999999998 25.461999999999993,80.85499999999999 C 26.692999999999994,81.692 28.092999999999993,82.34799999999998 29.08299999999999,82.34799999999998 C 29.78799999999999,82.34799999999998 30.292999999999992,82.01999999999998 30.36699999999999,81.17099999999998 C 30.37799999999999,81.07899999999998 30.37799999999999,80.97899999999998 30.37799999999999,80.87599999999998 C 30.37799999999999,78.98499999999997 29.15699999999999,75.23899999999998 34.10499999999999,72.12799999999997 L 50.10299999999999,72.12799999999997 L 66.10099999999998,72.12799999999997 C 71.04699999999998,75.23899999999998 69.82799999999999,78.98499999999997 69.82799999999999,80.87599999999998 C 69.82799999999999,80.97899999999997 69.82799999999999,81.07899999999998 69.83899999999998,81.17099999999998 C 69.91199999999998,82.01999999999998 70.41699999999999,82.34799999999998 71.12199999999999,82.34799999999998 C 72.12199999999999,82.34799999999998 73.52199999999999,81.69199999999998 74.74299999999998,80.85499999999999 C 76.06899999999997,79.94899999999998 77.18399999999998,78.817 77.97399999999998,77.63999999999999 C 78.77399999999997,76.45199999999998 79.24599999999998,75.20599999999999 79.26799999999997,74.03999999999999 C 79.26799999999997,74.00699999999999 79.26799999999997,73.98299999999999 79.26799999999997,73.949 C 79.26799999999997,70.859 76.11099999999998,68.37 71.31099999999998,67.068 C 67.80599999999998,66.118 63.42699999999998,65.79899999999999 63.42699999999998,63.786 C 63.42699999999998,63.583 63.48099999999998,63.356 63.57399999999998,63.107 C 64.056,61.918 65.771,60.232 65.771,59.034"/>
	<path d="M 0.063,0.0 L 100.146,0.0 L 100.146,100.0 L 0.063,100.0 L 0.063,0.0" fill="none" height="100" width="100.083" x="0.063"/>
</svg>
