<?xml version="1.0" ?>
<svg xmlns="http://www.w3.org/2000/svg" xmlns:ev="http://www.w3.org/2001/xml-events" xmlns:xlink="http://www.w3.org/1999/xlink" baseProfile="full" enable-background="new 0 0 100 100" height="391px" version="1.1" viewBox="0 0 100 100" width="600px" x="0px" xml:space="preserve" y="0px">
	<defs/>
	<path d="M 3.185,75.802 C 2.1260000000000003,75.802 1.1350000000000002,75.278 0.54,74.40100000000001 C -0.05599999999999994,73.52400000000002 -0.17799999999999994,72.40800000000002 0.21500000000000002,71.42200000000001 C 0.744,70.09300000000002 13.477,38.872000000000014 38.525000000000006,38.872000000000014 C 60.28800000000001,38.872000000000014 78.909,38.844000000000015 86.623,38.83000000000001 L 82.16,17.166 L 26.714999999999996,17.075 C 24.948999999999998,17.072 23.519999999999996,15.638 23.522999999999996,13.872 C 23.525999999999996,12.108 24.956999999999997,10.68 26.719999999999995,10.68 C 26.721999999999994,10.68 26.722999999999995,10.68 26.724999999999994,10.68 L 84.77099999999999,10.776 C 86.28699999999999,10.778 87.59099999999998,11.844 87.89799999999998,13.328 L 99.94699999999997,71.814 C 100.13999999999997,72.75299999999999 99.89999999999998,73.732 99.29499999999997,74.476 C 98.68999999999997,75.222 97.77899999999997,75.655 96.81999999999998,75.657 L 3.19,75.802 C 3.188,75.802 3.187,75.802 3.185,75.802 M 87.939,45.221 C 81.21,45.233 61.63999999999999,45.26499999999999 38.522999999999996,45.26499999999999 C 22.830999999999996,45.26499999999999 12.431999999999995,61.397999999999996 8.239999999999995,69.398 L 92.89099999999999,69.267 L 87.939,45.221"/>
	<path cx="56.352" cy="56.587" d="M 51.775999999999996,56.587 A 4.5760000000000005,4.5760000000000005 0.0 1,0 60.928,56.587 A 4.5760000000000005,4.5760000000000005 0.0 1,0 51.775999999999996,56.587" r="4.576"/>
</svg>
