<?xml version="1.0" ?>
<svg xmlns="http://www.w3.org/2000/svg" xmlns:ev="http://www.w3.org/2001/xml-events" xmlns:xlink="http://www.w3.org/1999/xlink" baseProfile="full" enable-background="new 2.667 2.667 100 100" height="587px" version="1.1" viewBox="2.667 2.667 100 100" width="600px" x="0px" xml:space="preserve" y="0px">
	<defs/>
	<path d="M 12.5,42.499 C 12.5,42.712 12.5,44.061 12.5,51.0 L 93.5,51.0 C 93.5,44.062 93.5,42.712 93.5,42.499 L 12.5,42.499" display="inline" fill="#000000"/>
	<path d="M 67.217,91.545 C 91.311,85.586 93.318,64.261 93.484,54.0 L 12.516,54.0 C 12.683,64.261 14.69,85.586 38.784,91.545 C 23.431,91.784 12.5,92.401 12.5,93.125 C 12.5,94.057 30.632,94.813 53.0,94.813 C 75.368,94.813 93.5,94.057 93.5,93.125 C 93.5,92.401 82.569,91.785 67.217,91.545" display="inline" fill="#000000"/>
	<path d="M 43.517,29.015 C 46.87,23.21 52.5,16.833 52.5,16.833 C 48.574,16.833 43.698,20.377 43.517,29.015" display="inline" fill="#000000"/>
	<path d="M 61.5,38.5 C 61.5,36.333 54.703,36.88 49.449,37.529 C 54.691,40.449 61.5,41.037 61.5,38.5" display="inline" fill="#000000"/>
	<path d="M 43.5,38.25 C 43.896,38.311 46.416,37.903 49.449,37.529 C 46.169,35.702000000000005 43.5,32.964000000000006 43.5,29.500000000000004 C 43.5,29.332000000000004 43.514,29.179000000000002 43.517,29.015000000000004 C 40.92,33.512 39.689,37.666 43.5,38.25" display="inline" fill="#000000"/>
	<path d="M 52.25,22.875 C 52.25,26.875 53.153,30.77 58.938,23.875 C 60.289,22.265 60.626000000000005,20.904 60.39,19.689 C 58.745,22.372 52.25,22.875 52.25,22.875" display="inline" fill="#000000"/>
	<path d="M 60.39,19.689 C 61.056,18.603 60.93,17.162 59.25,15.25 C 58.527,14.426 54.335,8.972999999999999 54.335,8.972999999999999 C 52.594,13.305 59.616,15.702 60.39,19.689" display="inline" fill="#000000"/>
	<path d="M 91.073,86.509 C 91.08699999999999,86.407 91.104,86.309 91.104,86.204 L 91.104,51.993 L 90.735,51.993 C 88.631,66.166 74.14699999999999,66.517 72.095,51.993 L 71.586,51.993 C 69.482,66.166 54.997,66.517 52.944,51.993 L 52.436,51.993 C 50.332,66.166 35.846000000000004,66.517 33.793,51.993 L 33.285,51.993 C 31.180999999999997,66.166 16.694999999999997,66.517 14.642999999999997,51.993 L 14.234999999999998,51.993 L 14.234999999999998,86.20400000000001 C 14.234999999999998,86.308 14.253999999999998,86.40700000000001 14.265999999999998,86.50900000000001 L 8.75,86.50900000000001 L 8.75,88.64400000000002 L 16.677,88.64400000000002 L 88.666,88.64400000000002 L 96.583,88.64400000000002 L 96.583,86.50900000000001 L 91.073,86.50900000000001 L 91.073,86.509" fill="#000000"/>
	<path d="M 33.287,41.018 L 33.795,41.018 C 35.848,55.542 50.333,55.191 52.438,41.018 L 52.946000000000005,41.018 C 54.999,55.542 69.483,55.191 71.58800000000001,41.018 L 72.09700000000001,41.018 C 74.14900000000002,55.542 88.63300000000001,55.191 90.73700000000001,41.018 L 91.10600000000001,41.018 L 91.10600000000001,38.643 L 91.10600000000001,36.204 L 91.10600000000001,27.667 C 91.10600000000001,26.32 90.01400000000001,25.228 88.668,25.228 L 56.481,25.228 C 56.943000000000005,24.499000000000002 57.225,23.656000000000002 57.225,22.745 C 57.225,21.992 57.029,21.288 56.705,20.652 C 64.005,17.572000000000003 73.227,18.572000000000003 71.148,17.359 C 69.554,16.429000000000002 63.101,15.936000000000002 55.986,19.615000000000002 C 55.035,18.554000000000002 53.632,17.866000000000003 52.041999999999994,17.866000000000003 C 49.17999999999999,17.866000000000003 46.858,20.050000000000004 46.858,22.744000000000003 C 46.858,23.655000000000005 47.13999999999999,24.497000000000003 47.602999999999994,25.227000000000004 L 16.677,25.227000000000004 C 15.33,25.227000000000004 14.238,26.319000000000003 14.238,27.666000000000004 L 14.238,36.203 L 14.238,38.642 L 14.238,41.017 L 14.645999999999999,41.017 C 16.697,55.542 31.183,55.19 33.287,41.018" fill="#000000"/>
</svg>
