<?xml version="1.0" ?>
<svg xmlns="http://www.w3.org/2000/svg" xmlns:ev="http://www.w3.org/2001/xml-events" xmlns:xlink="http://www.w3.org/1999/xlink" baseProfile="full" enable-background="new 0 0 60.086 76.918" height="600px" version="1.1" viewBox="0 0 60.086 76.918" width="469px" x="0px" xml:space="preserve" y="0px">
	<defs/>
	<path d="M 53.85,3.485 C 52.252,2.324 50.538000000000004,1.35 48.922000000000004,0.7199999999999998 C 47.298,0.11099999999999977 45.794000000000004,-0.24400000000000022 44.367000000000004,0.19699999999999973 C 43.849000000000004,0.36699999999999977 43.351000000000006,0.6899999999999997 42.996,1.1529999999999996 C 40.395,4.488 26.6,20.917 22.308,26.812 C 18.032,32.689 7.409,48.729 7.402,48.739 L 8.013,49.144999999999996 L 7.999,49.165 L 25.566,61.519 L 26.676,62.357 C 26.683,62.344 38.259,46.976 42.367,40.983000000000004 C 46.491,34.967000000000006 57.373,16.482000000000003 59.647999999999996,12.913000000000004 C 60.209999999999994,12.032000000000004 60.169,10.988000000000003 59.86899999999999,10.128000000000004 C 59.043,7.806 56.622,5.539 53.85,3.485 M 57.613,11.623 C 55.29,15.271 44.398,33.76 40.38,39.622 C 37.218,44.234 29.424000000000003,54.673 26.192,58.983999999999995 L 10.719,48.101 C 13.692,43.632999999999996 20.957,32.763999999999996 24.256999999999998,28.232 C 28.438,22.485999999999997 42.230999999999995,6.045999999999999 44.897,2.6359999999999992 C 44.949,2.575999999999999 44.992999999999995,2.5339999999999994 45.134,2.483999999999999 C 45.522,2.3209999999999993 46.69,2.416999999999999 48.048,2.966999999999999 C 49.409,3.494999999999999 50.986000000000004,4.382 52.432,5.436999999999999 C 55.016000000000005,7.276 57.204,9.613 57.583,10.895 C 57.734,11.368 57.673,11.523 57.613,11.623"/>
	<path d="M 7.091,51.403 L 6.704000000000001,52.104 C 6.704000000000001,52.104 8.602,56.25 7.769,59.487 C 7.097,62.098 6.684,64.685 3.2969999999999997,69.271 C 3.2969999999999997,69.271 3.5229999999999997,69.47 3.8489999999999998,69.745 L 0.0,75.527 L 4.926,76.921 L 5.155,76.611 L 8.05,72.686 L 8.702,73.10700000000001 C 11.895,68.38300000000001 14.197,67.13100000000001 16.434,65.62800000000001 C 19.208000000000002,63.76300000000001 23.749000000000002,64.17100000000002 23.749000000000002,64.17100000000002 L 24.281000000000002,63.572000000000024 L 7.091,51.403 M 4.44,75.5 L 1.9590000000000005,74.797 L 4.413,71.11099999999999 L 6.489000000000001,72.72099999999999 L 4.44,75.5 M 10.133,61.446 C 8.883,65.956 5.494999999999999,70.202 5.494999999999999,70.202 L 4.35,69.315 C 6.348,67.057 9.003,61.059999999999995 9.207999999999998,59.003 C 9.473999999999998,56.318 8.434999999999999,53.065 8.434999999999999,53.065 L 9.963,54.143 C 9.962,54.143 11.521,56.426 10.133,61.446"/>
	<path d="M 16.093,44.985 L 16.997,44.985 L 16.997,67.862 L 16.093,67.862 L 16.093,44.985" height="22.877" transform="matrix(-0.5753 0.8179 -0.8179 -0.5753 72.214 75.3546)" width="0.904" x="16.093" y="44.985"/>
</svg>
