<?xml version="1.0" ?>
<svg xmlns="http://www.w3.org/2000/svg" xmlns:ev="http://www.w3.org/2001/xml-events" xmlns:xlink="http://www.w3.org/1999/xlink" baseProfile="full" enable-background="new 0 0 100 100" height="600px" version="1.1" viewBox="0 0 100 100" width="534px" x="0px" xml:space="preserve" y="0px">
	<defs/>
	<path d="M 26.216,4.131 L 46.234,4.202 L 29.736,81.192 C 29.736,81.192 37.734,80.752 41.284,81.02699999999999 C 44.473,81.192 62.512,83.28199999999998 67.185,83.55599999999998 C 71.899,84.23199999999999 86.654,83.55599999999998 90.22800000000001,81.63099999999999 C 90.23400000000001,81.57599999999998 87.769,89.75299999999999 87.32900000000001,90.30399999999999 C 86.433,91.47399999999999 84.01400000000001,97.08299999999998 71.14500000000001,96.314 C 58.27600000000001,95.545 43.11500000000001,92.72399999999999 36.735000000000014,92.28399999999999 C 30.355000000000018,91.844 9.612,93.366 8.731,93.916 C 8.489,94.098 22.105,32.802 26.215000000000003,11.405000000000001 C 27.041,7.886 26.216,4.131 26.216,4.131" display="inline"/>
	<path d="M 73.482,96.826 C 72.725,96.827 71.929,96.80199999999999 71.119,96.753 C 63.363,96.289 54.729,95.076 47.791,94.101 C 43.199,93.455 39.233,92.898 36.705999999999996,92.724 C 35.958,92.672 34.974,92.64500000000001 33.778999999999996,92.64500000000001 C 25.200999999999997,92.64500000000001 10.082999999999995,93.867 8.961999999999996,94.293 L 8.878999999999996,94.355 L 8.52,94.356 L 8.387,94.192 C 8.215,93.978 8.215,93.978 9.542,87.78399999999999 C 10.347,84.026 11.488,78.76299999999999 12.809999999999999,72.66799999999999 C 17.215999999999998,52.34799999999999 23.249,24.517999999999994 25.784,11.321999999999996 C 26.579,7.9279999999999955 25.794,4.260999999999996 25.785999999999998,4.224999999999995 L 25.668999999999997,3.688999999999995 L 46.777,3.762999999999995 L 30.286,80.723 C 31.650000000000002,80.656 35.189,80.496 38.161,80.496 C 39.47,80.496 40.533,80.527 41.318,80.588 C 42.818,80.66499999999999 47.638,81.172 52.739999999999995,81.70899999999999 C 58.641999999999996,82.32999999999998 64.744,82.972 67.21199999999999,83.11699999999999 L 67.24799999999999,83.121 C 68.37499999999999,83.283 70.18199999999999,83.372 72.33399999999999,83.372 C 79.085,83.372 87.54699999999998,82.576 90.01999999999998,81.244 L 91.17399999999998,80.624 L 90.63699999999997,81.795 C 90.61699999999998,81.858 90.55499999999998,82.058 90.46399999999997,82.357 C 88.37899999999998,89.125 87.88999999999997,90.309 87.67199999999997,90.581 C 87.60999999999997,90.664 87.52199999999996,90.796 87.41999999999997,90.95 C 86.359,92.556 83.54,96.826 73.482,96.826 M 33.779,91.766 C 34.99400000000001,91.766 35.999,91.792 36.766000000000005,91.846 C 39.325,92.022 43.30500000000001,92.58200000000001 47.913000000000004,93.23 C 54.836000000000006,94.203 63.452000000000005,95.414 71.171,95.876 C 71.96400000000001,95.924 72.741,95.94800000000001 73.482,95.947 C 83.066,95.947 85.697,91.964 86.686,90.464 C 86.796,90.29599999999999 86.89200000000001,90.152 86.98,90.038 C 87.11200000000001,89.843 87.62,88.585 89.525,82.414 C 85.795,83.745 77.269,84.252 72.334,84.252 C 70.12,84.252 68.32600000000001,84.163 67.142,83.99499999999999 C 64.643,83.847 58.544999999999995,83.20499999999998 52.648999999999994,82.585 C 47.55799999999999,82.05 42.748999999999995,81.54299999999999 41.26199999999999,81.467 C 40.48799999999999,81.407 39.44899999999999,81.377 38.16199999999999,81.377 C 34.43599999999999,81.377 29.80699999999999,81.62899999999999 29.760999999999992,81.63199999999999 L 29.185999999999993,81.663 L 45.69,4.639 L 26.747,4.572 C 26.945,5.752 27.307,8.679 26.645,11.504999999999999 C 24.112,24.694 18.076999999999998,52.53 13.67,72.855 C 11.494,82.891 9.718,91.083 9.274000000000001,93.33600000000001 C 12.804,92.701 26.822,91.766 33.779,91.766" display="inline"/>
	<path d="M 78.493,54.454 C 74.485,61.016 71.351,64.342 69.172,64.342 C 68.484,64.342 67.899,63.99 67.481,63.324999999999996 C 66.86399999999999,62.346 66.73299999999999,60.882 66.892,60.455 C 66.625,58.26 74.091,23.165 74.698,20.321999999999996 L 60.98499999999999,20.176999999999996 L 60.04699999999999,23.613999999999997 L 59.92099999999999,23.339 C 59.898999999999994,23.29 57.51499999999999,18.278 50.34599999999999,18.564 C 43.18199999999999,18.627 36.17099999999999,23.057000000000002 30.60099999999999,31.039 C 25.60799999999999,38.196 22.396999999999988,47.383 22.014999999999986,55.616 C 21.773999999999987,60.78 22.678999999999988,65.231 24.62999999999999,68.487 C 26.809999999999988,72.125 30.18599999999999,74.202 34.66199999999999,74.65899999999999 C 35.30199999999999,74.77499999999999 35.94999999999999,74.835 36.596999999999994,74.835 C 39.901999999999994,74.835 45.15899999999999,73.268 51.431,65.80199999999999 C 51.565999999999995,65.64099999999999 51.665,65.52199999999999 51.727999999999994,65.454 L 51.89999999999999,65.58999999999999 C 51.67099999999999,65.93399999999998 51.92099999999999,67.19699999999999 52.73799999999999,68.722 C 53.520999999999994,70.187 56.53199999999999,74.964 62.35699999999999,74.964 C 67.16799999999999,74.964 72.46099999999998,71.679 78.091,65.198 C 77.695,59.868 78.239,55.914 78.493,54.454 M 56.22,37.122 C 55.818999999999996,42.462 53.844,49.263999999999996 51.067,54.812 C 48.03,60.878 44.608000000000004,64.39699999999999 41.678,64.39699999999999 C 41.678,64.39699999999999 41.678,64.39699999999999 41.678,64.39699999999999 C 41.147999999999996,64.39699999999999 40.629,64.246 40.134,64.026 L 40.106,63.989 C 37.874,62.059999999999995 37.624,57.855 37.807,54.675999999999995 C 38.04,50.623 39.142,45.69499999999999 40.828,41.16499999999999 C 43.272000000000006,34.59899999999999 47.474000000000004,27.580999999999992 51.93900000000001,27.580999999999992 C 52.05400000000001,27.580999999999992 52.17100000000001,27.584999999999994 52.287000000000006,27.593999999999994 C 55.254,28.041 56.648,31.423 56.22,37.122" display="none"/>
	<path d="M 55.642,50.683 C 55.21,52.075 54.048,55.153 52.43,57.877 C 50.038,61.903000000000006 47.513,63.812000000000005 44.964,63.52 C 44.126999999999995,63.347 43.485,62.919000000000004 43.045,62.247 C 41.462,59.826 42.594,54.452 43.794000000000004,48.763999999999996 C 44.044000000000004,47.574 44.304,46.343999999999994 44.540000000000006,45.13399999999999 C 46.093,37.160999999999994 49.541000000000004,21.880999999999993 49.89900000000001,20.295999999999992 L 35.05700000000001,20.07999999999999 L 27.707000000000008,53.20799999999999 C 27.695000000000007,53.25499999999999 26.613000000000007,57.62499999999999 26.925000000000008,62.31099999999999 C 27.34200000000001,68.56899999999999 29.910000000000007,72.383 34.55600000000001,73.64599999999999 C 35.87900000000001,73.96999999999998 37.21600000000001,74.13499999999999 38.52900000000001,74.13499999999999 C 46.494000000000014,74.13499999999999 51.396000000000015,68.216 51.60000000000001,67.963 L 51.63300000000001,67.922 L 51.75800000000001,67.91499999999999 L 51.79600000000001,67.973 C 52.01200000000001,68.337 50.01400000000001,76.661 49.47200000000001,77.654 C 49.42500000000001,77.74199999999999 49.37300000000001,77.84 49.32000000000001,77.943 C 48.64000000000001,79.251 47.20900000000001,81.993 42.55400000000001,81.89099999999999 C 40.13600000000001,81.83699999999999 38.58500000000001,81.65199999999999 37.21700000000001,81.49 C 35.993000000000016,81.344 34.93500000000002,81.219 33.539000000000016,81.219 C 33.29400000000002,81.219 33.039000000000016,81.222 32.771000000000015,81.232 C 28.978000000000016,81.35 25.961000000000016,83.398 24.530000000000015,85.115 C 23.087000000000014,86.84599999999999 21.330000000000016,92.88 20.957000000000015,94.201 C 21.763000000000016,93.75399999999999 24.527000000000015,92.31899999999999 27.367000000000015,92.011 C 27.823000000000015,91.99499999999999 28.545000000000016,91.98899999999999 29.523000000000014,91.98899999999999 C 35.046000000000014,91.98899999999999 47.27500000000001,92.22899999999998 47.39800000000001,92.23199999999999 C 47.40500000000001,92.23199999999999 47.51100000000001,92.23799999999999 47.70700000000001,92.23799999999999 C 49.67200000000001,92.23799999999999 59.715,91.57999999999998 64.45100000000001,78.55499999999998 C 68.465,64.18599999999998 76.858,22.74699999999998 77.397,20.079999999999977 L 62.555,20.079999999999977 C 62.222,21.668 57.539,44.076 55.642,50.683" display="inline"/>
	<path d="M 62.376,19.856 L 62.355999999999995,19.943 C 62.306999999999995,20.181 57.38499999999999,43.811 55.42999999999999,50.619 C 55.38999999999999,50.746 51.416999999999994,63.327 45.46399999999999,63.327 C 45.30599999999999,63.327 45.14699999999999,63.318 44.99799999999999,63.303 C 44.21999999999999,63.14 43.63999999999999,62.754999999999995 43.22799999999999,62.123999999999995 C 41.69399999999999,59.779999999999994 42.81799999999999,54.449999999999996 44.00799999999999,48.806999999999995 C 44.258999999999986,47.617 44.51799999999999,46.385999999999996 44.75399999999999,45.17399999999999 C 46.38499999999999,36.80299999999999 50.105999999999995,20.375999999999994 50.142999999999994,20.21099999999999 L 50.172999999999995,20.07899999999999 L 34.88,19.855 L 27.493000000000002,53.155 C 27.482000000000003,53.199 26.393,57.598 26.706000000000003,62.319 C 27.123000000000005,68.593 29.818000000000005,72.583 34.502,73.85600000000001 C 35.845,74.185 37.2,74.352 38.53,74.352 C 45.815,74.352 50.57,69.465 51.576,68.32900000000001 C 51.361,69.80600000000001 49.835,76.528 49.28,77.54700000000001 C 49.231,77.635 49.18,77.73400000000001 49.125,77.83900000000001 C 48.415,79.20400000000001 47.071,81.76800000000001 42.56,81.66900000000001 C 40.152,81.61500000000001 38.607,81.43200000000002 37.244,81.27000000000001 C 35.797,81.09800000000001 34.577,80.95300000000002 32.766,81.00800000000001 C 28.9,81.13000000000001 25.823,83.21900000000001 24.363,84.971 C 22.717,86.947 20.758,94.095 20.675,94.399 L 20.603,94.663 L 20.838,94.52199999999999 C 20.87,94.502 24.082,92.58599999999998 27.384,92.228 C 27.829,92.21199999999999 28.55,92.20599999999999 29.525,92.20599999999999 C 35.046,92.20599999999999 47.274,92.445 47.391,92.44699999999999 C 47.391,92.44699999999999 47.503,92.45499999999998 47.708999999999996,92.45499999999998 C 49.699,92.45499999999998 59.873,91.78899999999999 64.66199999999999,78.61999999999998 C 68.79499999999999,63.827999999999975 77.55399999999999,20.425999999999974 77.64099999999999,19.988999999999976 L 77.66799999999999,19.857999999999976 L 62.376,19.857999999999976 L 62.376,19.856 M 64.452,78.552 C 59.716,91.575 49.673,92.23500000000001 47.708,92.23500000000001 C 47.513,92.23500000000001 47.406,92.22900000000001 47.399,92.22800000000001 C 47.276,92.22600000000001 35.046,91.986 29.524,91.986 C 28.546,91.986 27.823,91.99300000000001 27.368000000000002,92.00800000000001 C 24.528000000000002,92.31700000000001 21.764000000000003,93.751 20.958000000000002,94.19800000000001 C 21.331000000000003,92.87700000000001 23.087000000000003,86.84400000000001 24.531000000000002,85.111 C 25.962000000000003,83.394 28.979000000000003,81.34700000000001 32.772000000000006,81.22800000000001 C 33.040000000000006,81.21900000000001 33.29500000000001,81.215 33.540000000000006,81.215 C 34.93600000000001,81.215 35.99400000000001,81.34100000000001 37.218,81.486 C 38.586000000000006,81.64800000000001 40.137,81.834 42.55500000000001,81.88600000000001 C 47.209,81.989 48.641000000000005,79.245 49.321000000000005,77.93900000000001 C 49.37500000000001,77.83500000000001 49.426,77.73700000000001 49.473000000000006,77.65 C 50.01500000000001,76.65700000000001 52.014,68.334 51.797000000000004,67.96900000000001 L 51.75900000000001,67.91000000000001 L 51.63400000000001,67.918 L 51.601000000000006,67.959 C 51.397000000000006,68.211 46.49600000000001,74.131 38.53000000000001,74.131 C 37.217000000000006,74.131 35.88000000000001,73.966 34.55700000000001,73.642 C 29.91100000000001,72.37899999999999 27.34300000000001,68.565 26.92600000000001,62.306999999999995 C 26.614000000000008,57.62 27.69600000000001,53.251 27.70800000000001,53.20399999999999 L 35.05800000000001,20.075999999999993 L 49.900000000000006,20.291999999999994 C 49.54200000000001,21.876999999999995 46.09400000000001,37.157 44.541000000000004,45.129999999999995 C 44.30500000000001,46.339999999999996 44.04600000000001,47.56999999999999 43.795,48.76 C 42.596000000000004,54.448 41.464,59.821999999999996 43.046,62.242999999999995 C 43.486,62.91499999999999 44.129,63.343999999999994 44.966,63.516 C 47.514,63.808 50.039,61.9 52.431,57.873 C 54.049,55.149 55.211,52.071 55.643,50.678999999999995 C 57.54,44.071999999999996 62.223,21.663999999999994 62.556,20.072999999999993 L 77.39999999999999,20.072999999999993 C 76.859,22.744 68.466,64.183 64.452,78.552" display="inline"/>
	<path d="M 75.764,8.931 C 75.589,9.610999999999999 74.384,14.302 73.952,15.960999999999999 C 73.571,17.427 72.407,18.599999999999998 71.967,19.043999999999997 C 79.628,18.847999999999995 81.557,16.241999999999997 82.488,14.983999999999998 C 82.549,14.902999999999999 82.605,14.826999999999998 82.658,14.756999999999998 C 83.26,13.769999999999998 85.21000000000001,9.777999999999999 85.622,8.930999999999997 L 75.764,8.931 L 75.764,8.931" display="inline"/>
	<path d="M 75.594,8.711 L 75.57199999999999,8.794 C 75.57199999999999,8.794 74.20499999999998,14.115 73.73899999999999,15.906 C 73.37299999999999,17.317 72.237,18.461000000000002 71.80899999999998,18.891000000000002 C 71.61899999999999,19.083000000000002 71.58799999999998,19.113000000000003 71.61099999999999,19.188000000000002 L 71.63199999999999,19.252000000000002 L 71.70799999999998,19.269000000000002 L 71.72099999999999,19.269000000000002 C 79.69899999999998,19.122000000000003 81.70199999999998,16.415000000000003 82.666,15.114 C 82.725,15.034 82.78,14.96 82.839,14.881 C 83.521,13.762 85.8,9.068000000000001 85.896,8.869 L 85.973,8.711 L 75.594,8.711 L 75.594,8.711 M 82.658,14.758 C 82.605,14.827 82.549,14.904 82.488,14.985 C 81.556,16.243 79.628,18.849 71.967,19.044999999999998 C 72.407,18.601 73.571,17.427999999999997 73.952,15.961999999999998 C 74.384,14.302999999999997 75.589,9.611999999999998 75.764,8.931999999999999 L 75.764,8.931999999999999 L 85.622,8.931999999999999 C 85.21,9.778 83.26,13.771 82.658,14.758" display="inline"/>
	<path d="M 58.805,18.938 C 58.409,18.938 58.004,18.942999999999998 57.608,18.955 C 52.477,19.412 47.348,21.267999999999997 43.538999999999994,24.049 C 40.489,26.277 36.788999999999994,30.177999999999997 36.486,36.118 C 36.046,44.753 44.135,51.026 48.968999999999994,54.773 C 50.791,56.186 52.111,57.209 52.471999999999994,57.939 C 53.925,59.644 54.26299999999999,62.054 53.32899999999999,64.082 C 52.38399999999999,66.14099999999999 50.37899999999999,67.321 47.830999999999996,67.321 C 46.95399999999999,67.321 46.013999999999996,67.181 45.032999999999994,66.905 L 45.00999999999999,66.895 C 40.26899999999999,64.29299999999999 38.49499999999999,63.31999999999999 36.42199999999999,63.31999999999999 C 35.79999999999999,63.31999999999999 35.13099999999999,63.40899999999999 34.25399999999999,63.60699999999999 C 31.06399999999999,64.327 28.59699999999999,68.675 28.24299999999999,69.97399999999999 C 29.880999999999993,72.99399999999999 36.04999999999999,75.09799999999998 43.27599999999999,75.09799999999998 C 51.79699999999999,75.09799999999998 59.27599999999999,72.24999999999999 63.27899999999999,67.47999999999999 C 66.463,63.68199999999999 67.55199999999999,58.76399999999999 66.51499999999999,52.862999999999985 C 63.368999999999986,45.847999999999985 59.08499999999999,42.664999999999985 55.64599999999999,40.106999999999985 C 53.094999999999985,38.210999999999984 51.08199999999999,36.71299999999999 50.237999999999985,34.27899999999998 C 49.56499999999998,32.33699999999998 49.73699999999999,30.569999999999983 50.73299999999998,29.16999999999998 C 51.90499999999998,27.522999999999982 54.22199999999998,26.458999999999982 56.62999999999998,26.458999999999982 C 57.30599999999998,26.458999999999982 57.93899999999998,26.543999999999983 58.512999999999984,26.712999999999983 C 59.076999999999984,26.932999999999982 59.698999999999984,27.267999999999983 60.35499999999998,27.620999999999984 C 61.911999999999985,28.457999999999984 63.67499999999998,29.406999999999986 65.54399999999998,29.407999999999983 C 65.54599999999998,29.407999999999983 65.54599999999998,29.407999999999983 65.54599999999998,29.407999999999983 C 66.66299999999998,29.407999999999983 67.67699999999998,29.071999999999985 68.64599999999997,28.378999999999984 C 72.11099999999998,25.903999999999982 73.24999999999997,22.447999999999983 73.41899999999997,21.870999999999984 C 73.09699999999997,21.705999999999985 71.77399999999997,21.060999999999986 69.61599999999997,20.424999999999983 C 67.322,19.746 63.58,18.938 58.805,18.938"/>
	<path d="M 73.604,21.718 C 73.59,21.71 72.198,20.957 69.688,20.216 C 67.37700000000001,19.533 63.612,18.718 58.803000000000004,18.718 C 58.405,18.718 58.002,18.724 57.594,18.736 C 52.418,19.196 47.249,21.068 43.409,23.872 C 38.979,27.107 36.51,31.337 36.266,36.108000000000004 C 35.821,44.857000000000006 43.967,51.173 48.833999999999996,54.946000000000005 C 50.574999999999996,56.297000000000004 51.95099999999999,57.36300000000001 52.281,58.04900000000001 L 52.295,58.07200000000001 C 53.703,59.71300000000001 54.029,62.03600000000001 53.131,63.99000000000001 C 52.223,65.96700000000001 50.291,67.10100000000001 47.833,67.10100000000001 C 46.98,67.10100000000001 46.062999999999995,66.96500000000002 45.107,66.69700000000002 C 40.471,64.15300000000002 38.55,63.100000000000016 36.423,63.100000000000016 C 35.783,63.100000000000016 35.101,63.19000000000002 34.206,63.39200000000002 C 30.644000000000002,64.19600000000001 28.262000000000004,68.99400000000001 28.020000000000003,69.96100000000001 L 28.008000000000003,70.00200000000001 L 28.029000000000003,70.03900000000002 C 29.673000000000002,73.14700000000002 35.943000000000005,75.31700000000002 43.277,75.31700000000002 C 51.864000000000004,75.31700000000002 59.403000000000006,72.44000000000003 63.446,67.62100000000002 C 66.678,63.767000000000024 67.78399999999999,58.785000000000025 66.729,52.81100000000002 L 66.721,52.78500000000002 C 63.551,45.70900000000002 59.241,42.50400000000002 55.778000000000006,39.93000000000002 C 53.257000000000005,38.05600000000002 51.266000000000005,36.57600000000002 50.446000000000005,34.20600000000002 C 49.79900000000001,32.33400000000002 49.96000000000001,30.637000000000018 50.91400000000001,29.298000000000016 C 52.04500000000001,27.707000000000015 54.28900000000001,26.679000000000016 56.63100000000001,26.679000000000016 C 57.28500000000001,26.679000000000016 57.897000000000006,26.762000000000015 58.44200000000001,26.922000000000015 C 58.98500000000001,27.134000000000015 59.60000000000001,27.466000000000015 60.25300000000001,27.816000000000013 C 61.83100000000001,28.666000000000015 63.620000000000005,29.628000000000014 65.546,29.628000000000014 L 65.546,29.628000000000014 C 66.71000000000001,29.628000000000014 67.76700000000001,29.278000000000013 68.775,28.558000000000014 C 72.613,25.817000000000014 73.64800000000001,21.881000000000014 73.658,21.842000000000013 L 73.679,21.759000000000015 L 73.604,21.718 M 68.648,28.379 C 67.679,29.071 66.664,29.408 65.548,29.408 C 65.546,29.408 65.546,29.408 65.546,29.408 C 63.67700000000001,29.408 61.913000000000004,28.459 60.357000000000006,27.621000000000002 C 59.699000000000005,27.267000000000003 59.080000000000005,26.933000000000003 58.513000000000005,26.713 C 57.941,26.544 57.306000000000004,26.459 56.632000000000005,26.459 C 54.22200000000001,26.459 51.907000000000004,27.523 50.73500000000001,29.169999999999998 C 49.739000000000004,30.569999999999997 49.56700000000001,32.336999999999996 50.24000000000001,34.278999999999996 C 51.08100000000001,36.712999999999994 53.09700000000001,38.211 55.64600000000001,40.107 C 59.08700000000001,42.665 63.36900000000001,45.849 66.51500000000001,52.863 C 67.55400000000002,58.763999999999996 66.46400000000001,63.683 63.27900000000002,67.48 C 59.277000000000015,72.251 51.79900000000002,75.098 43.277000000000015,75.098 C 36.051000000000016,75.098 29.882000000000016,72.994 28.244000000000014,69.974 C 28.598000000000013,68.675 31.065000000000015,64.327 34.256000000000014,63.607000000000006 C 35.13300000000002,63.409000000000006 35.801000000000016,63.32000000000001 36.423000000000016,63.32000000000001 C 38.496000000000016,63.32000000000001 40.271000000000015,64.29400000000001 45.012000000000015,66.89500000000001 L 45.03400000000001,66.90500000000002 C 46.01400000000001,67.18100000000001 46.95600000000001,67.32100000000001 47.83300000000001,67.32100000000001 C 50.381000000000014,67.32100000000001 52.38300000000001,66.141 53.33100000000001,64.08200000000001 C 54.26500000000001,62.05500000000001 53.92700000000001,59.644000000000005 52.47400000000001,57.93900000000001 C 52.113000000000014,57.20900000000001 50.79200000000001,56.18600000000001 48.97000000000001,54.77300000000001 C 44.137000000000015,51.02600000000001 36.04700000000001,44.753000000000014 36.48700000000001,36.11800000000001 C 36.79100000000001,30.17900000000001 40.49000000000001,26.277000000000008 43.54100000000001,24.049000000000007 C 47.34900000000001,21.268000000000008 52.47900000000001,19.41100000000001 57.610000000000014,18.955000000000005 C 58.006000000000014,18.944000000000006 58.411000000000016,18.938000000000006 58.805000000000014,18.938000000000006 C 63.582000000000015,18.938000000000006 67.32500000000002,19.746000000000006 69.61900000000001,20.424000000000007 C 71.77700000000002,21.061000000000007 73.09900000000002,21.705000000000005 73.42400000000002,21.870000000000008 C 73.252,22.448 72.113,25.904 68.648,28.379"/>
</svg>
