<?xml version="1.0" ?>
<svg xmlns="http://www.w3.org/2000/svg" xmlns:ev="http://www.w3.org/2001/xml-events" xmlns:xlink="http://www.w3.org/1999/xlink" baseProfile="full" enable-background="new 0 0 92.431 100" height="600px" version="1.1" viewBox="0 0 92.431 100" width="555px" x="0px" xml:space="preserve" y="0px">
	<defs/>
	<path d="M 62.757,30.226 C 62.757,30.276 62.756,30.326 62.757,30.375999999999998 L 59.649,31.566 L 62.958,31.98 C 63.149,32.835 63.47,33.633 63.91,34.361 L 61.818,36.943 L 64.887,35.652 C 65.468,36.282000000000004 66.15,36.814 66.906,37.232 L 66.38000000000001,40.527 L 68.385,37.883 C 69.14,38.119 69.944,38.247 70.77900000000001,38.247 C 70.82900000000001,38.247 70.879,38.248 70.92800000000001,38.247 L 72.11800000000001,41.354 L 72.53200000000001,38.045 C 73.385,37.855000000000004 74.186,37.519 74.91300000000001,37.081 L 77.507,39.186 L 76.203,36.103 C 76.83500000000001,35.521 77.37700000000001,34.854 77.796,34.098 L 81.078,34.624 L 78.434,32.619 L 78.434,32.607 C 78.66799999999999,31.854 78.797,31.056 78.797,30.226 C 78.797,30.176 78.797,30.125999999999998 78.797,30.076 L 81.904,28.886 L 78.595,28.471999999999998 C 78.404,27.615 78.085,26.807999999999996 77.643,26.077999999999996 L 79.735,23.495999999999995 L 76.667,24.786999999999995 C 76.08500000000001,24.157999999999994 75.404,23.625999999999994 74.648,23.208999999999996 L 75.17399999999999,19.912999999999997 L 73.169,22.556999999999995 C 72.413,22.319999999999997 71.61,22.205999999999996 70.776,22.205999999999996 C 70.725,22.205999999999996 70.67399999999999,22.204999999999995 70.625,22.205999999999996 L 69.436,19.097999999999995 L 69.021,22.406999999999996 C 68.168,22.597999999999995 67.367,22.920999999999996 66.641,23.358999999999995 L 64.046,21.253999999999994 L 65.35000000000001,24.336999999999996 C 64.72200000000001,24.916999999999994 64.176,25.588999999999995 63.75800000000001,26.341999999999995 L 60.47500000000001,25.815999999999995 L 63.12000000000001,27.820999999999994 C 63.11800000000001,27.824999999999996 63.12000000000001,27.829999999999995 63.12000000000001,27.833999999999996 C 62.885,28.585 62.757,29.395 62.757,30.226" fill="#010101"/>
	<path d="M 12.231,11.779 L 12.231,100.0 L 92.431,100.0 L 92.431,11.779 L 12.231,11.779 M 88.421,79.949 L 16.241,79.949 L 16.241,15.79 L 88.422,15.79 L 88.422,79.949 L 88.421,79.949" fill="#010101"/>
	<path d="M 30.677,46.266 L 56.743,46.266 L 56.743,50.275 L 63.083,50.275 L 43.91,30.226 L 24.737,50.275 L 30.677,50.275 L 30.677,46.266" fill="#010101" points="30.677,46.266 56.743,46.266 56.743,50.275 63.083,50.275 43.91,30.226 24.737,50.275    30.677,50.275 "/>
	<path d="M 4.235,8.446 L 76.291,4.235 L 76.641,10.175 L 80.651,10.175 L 80.063,0.0 L 0.0,4.674 L 5.15,92.744 L 10.626,92.418 L 10.626,72.344 L 7.983,72.494 L 4.235,8.446" fill="#010101" points="4.235,8.446 76.291,4.235 76.641,10.175 80.651,10.175 80.063,0 0,4.674 5.15,92.744 10.626,92.418    10.626,72.344 7.983,72.494 "/>
	<path d="M 55.94,73.534 L 55.94,47.068 L 31.479,47.068 L 31.479,73.534 L 40.702,73.534 L 40.702,62.306 L 46.717,62.306 L 46.717,73.534 L 55.94,73.534" fill="#010101" points="55.94,73.534 55.94,47.068 31.479,47.068 31.479,73.534 40.702,73.534 40.702,62.306 46.717,62.306    46.717,73.534 "/>
	<path d="M 86.818,70.325 L 56.743,70.325 L 56.743,74.335 L 30.677,74.335 L 30.677,70.325 L 18.647,70.325 L 18.647,78.346 L 86.818,78.346 L 86.818,70.325" fill="#010101" points="86.818,70.325 56.743,70.325 56.743,74.335 30.677,74.335 30.677,70.325 18.647,70.325    18.647,78.346 86.818,78.346 "/>
</svg>
