<?xml version="1.0" ?>
<svg xmlns="http://www.w3.org/2000/svg" xmlns:ev="http://www.w3.org/2001/xml-events" xmlns:xlink="http://www.w3.org/1999/xlink" baseProfile="full" enable-background="new 0 0 100 100" height="600px" version="1.1" viewBox="0 0 100 100" width="600px" x="0px" xml:space="preserve" y="0px">
	<defs/>
	<path d="M 60.0,49.775 C 60.0,45.492 62.033,42.086999999999996 65.371,40.617 C 68.711,39.147 72.475,39.937 75.383,42.587999999999994 C 76.316,43.43699999999999 77.131,43.84499999999999 77.98299999999999,43.44799999999999 C 78.857,43.041 79.0,41.545 79.0,40.615 L 79.0,24.657 C 79.0,22.524 77.416,21.0 75.282,21.0 L 59.428,21.0 C 58.498,21.0 56.933,21.331 56.519,22.222 C 56.107,23.108 56.536,24.21 57.394999999999996,25.153000000000002 C 60.038,28.051000000000002 60.773999999999994,32.007000000000005 59.318999999999996,35.311 C 57.855,38.632 54.417,41.0 50.122,41.0 L 50.046,41.0 L 49.996,41.0 C 45.713,41.0 42.308,38.583 40.838,35.246 C 39.368,31.906000000000002 40.159,27.951 42.809,25.044000000000004 C 43.659,24.111000000000004 44.065999999999995,23.083000000000006 43.669,22.232000000000003 C 43.261,21.357 41.765,21.0 40.835,21.0 L 24.877,21.0 C 22.744,21.0 21.0,22.524 21.0,24.657 L 21.0,40.510999999999996 C 21.0,41.440999999999995 21.417,43.00599999999999 22.308,43.42099999999999 C 23.194,43.83299999999999 24.34,43.40299999999999 25.282,42.54399999999999 C 28.18,39.90199999999999 32.072,39.16599999999999 35.376,40.62099999999999 C 38.697,42.084 41.0,45.523 41.0,49.818 L 41.0,49.894 L 41.0,49.943999999999996 C 41.0,54.226 38.67,57.632 35.332,59.102 C 31.992,60.571999999999996 28.082,59.782 25.174,57.131 C 24.242,56.28 23.149,55.874 22.297,56.27 C 21.422,56.679 21.0,58.175 21.0,59.105 L 21.0,75.062 C 21.0,77.195 22.744,79.0 24.877,79.0 L 75.282,79.0 C 77.416,79.0 79.0,77.195 79.0,75.062 L 79.0,59.208 C 79.0,58.278 78.787,56.713 77.896,56.298 C 77.011,55.886 75.967,56.316 75.024,57.176 C 72.128,59.818000000000005 68.581,60.553000000000004 65.277,59.099000000000004 C 61.956,57.636 60.0,54.197 60.0,49.901 L 60.0,49.825 L 60.0,49.775"/>
</svg>
