<?xml version="1.0" ?>
<svg xmlns="http://www.w3.org/2000/svg" xmlns:ev="http://www.w3.org/2001/xml-events" xmlns:xlink="http://www.w3.org/1999/xlink" baseProfile="full" enable-background="new 0 0 100 99.978" height="600px" version="1.1" viewBox="0 0 100 99.978" width="600px" x="0px" xml:space="preserve" y="0px">
	<defs/>
	<path d="M 99.137,62.488 C 99.019,61.802 99.551,60.458 99.34,59.711 C 99.074,58.766 97.824,57.91 97.929,56.934 C 98.033,55.958 98.589,56.933 99.97800000000001,54.157 C 99.97800000000001,54.157 94.423,54.156 91.647,55.544999999999995 C 90.32900000000001,56.20399999999999 87.48100000000001,59.711 87.48100000000001,59.711 L 94.423,65.265 C 95.812,63.876 96.88,65.341 97.2,65.265 C 97.931,65.093 99.614,64.6 99.977,63.876 C 100.159,63.514 99.207,62.889 99.137,62.488"/>
	<path d="M 9.109,51.378 L 3.6420000000000003,48.231 L 3.6370000000000005,48.241 C 3.2800000000000002,48.035 2.8710000000000004,47.908 2.4300000000000006,47.908 C 1.088,47.907 0.0,48.995 0.0,50.337 C 0.0,51.237 0.497,52.013000000000005 1.224,52.434000000000005 L 1.218,52.443000000000005 L 8.332,56.540000000000006 L 8.332,62.834 L 8.332,70.818 L 8.332,85.399 C 8.332,87.315 9.886000000000001,88.87 11.804,88.87 C 13.721,88.87 15.275,87.315 15.275,85.399 L 15.275,70.818 L 15.823,70.818 L 25.478,87.163 L 25.489,87.15599999999999 C 26.093,88.17699999999999 27.195,88.86899999999999 28.467000000000002,88.86899999999999 C 30.385,88.86899999999999 31.939000000000004,87.31399999999998 31.939000000000004,85.39799999999998 C 31.939000000000004,84.75199999999998 31.751000000000005,84.15599999999998 31.446000000000005,83.63899999999998 L 31.457000000000004,83.63199999999998 L 23.888000000000005,70.81699999999998 L 43.048,70.81699999999998 L 45.825,70.81699999999998 L 45.825,85.39799999999998 C 45.825,87.31399999999998 47.379000000000005,88.86899999999999 49.297000000000004,88.86899999999999 C 51.214000000000006,88.86899999999999 52.768,87.31399999999998 52.768,85.39799999999998 L 52.768,70.108 C 53.607,69.47500000000001 54.157000000000004,68.48 54.157000000000004,67.34700000000001 L 54.157000000000004,56.933 L 43.04900000000001,51.379 L 9.109,51.379 L 9.109,51.378"/>
	<path d="M 86.068,61.099 L 77.737,63.876 C 72.899,65.88 65.24,68.042 65.24,79.151 L 65.24,84.886 C 64.859,84.618 64.50999999999999,84.309 64.19399999999999,83.95599999999999 C 63.07699999999999,82.69899999999998 62.46299999999999,80.993 62.46299999999999,79.14999999999999 C 62.46299999999999,77.04199999999999 62.755999999999986,74.86999999999999 63.014999999999986,72.952 C 63.48999999999999,69.42099999999999 63.86699999999998,66.632 62.442999999999984,65.003 C 61.78899999999998,64.254 60.86199999999998,63.875 59.685999999999986,63.875 C 58.917999999999985,63.875 58.29699999999998,64.496 58.29699999999998,65.264 C 58.29699999999998,66.032 58.917999999999985,66.65299999999999 59.685999999999986,66.65299999999999 C 60.02399999999999,66.65299999999999 60.24899999999999,66.713 60.35199999999998,66.832 C 60.945999999999984,67.512 60.58199999999998,70.20599999999999 60.262999999999984,72.583 C 59.99199999999998,74.586 59.685999999999986,76.857 59.685999999999986,79.151 C 59.685999999999986,81.675 60.54999999999998,84.036 62.12099999999999,85.801 C 63.90499999999999,87.809 66.42399999999999,88.869 69.40399999999998,88.869 C 69.40399999999998,88.869 69.40499999999999,88.869 69.40699999999998,88.869 L 79.12699999999998,88.869 L 80.51599999999998,88.869 L 83.29299999999998,88.869 C 84.06099999999998,88.869 84.68099999999998,88.248 84.68099999999998,87.48 C 84.68099999999998,86.712 84.06099999999998,86.09100000000001 83.29299999999998,86.09100000000001 L 81.90399999999998,86.09100000000001 L 81.90399999999998,81.23200000000001 C 81.90399999999998,79.90900000000002 81.37199999999999,78.71200000000002 80.51499999999999,77.83600000000001 L 80.51499999999999,77.76000000000002 L 83.29199999999999,77.76000000000002 C 84.67999999999999,77.76000000000002 85.82,79.17200000000003 86.06799999999998,80.53700000000002 C 86.37199999999999,82.21000000000002 88.43399999999998,86.83900000000003 88.94299999999998,87.96300000000002 C 88.95999999999998,88.00600000000003 88.97999999999999,88.04500000000002 88.99899999999998,88.08700000000002 C 89.03299999999999,88.15900000000002 89.05599999999998,88.21100000000001 89.05599999999998,88.21100000000001 L 89.07399999999998,88.19600000000001 C 89.31799999999998,88.59200000000001 89.73599999999999,88.86800000000001 90.23499999999999,88.86800000000001 L 91.62399999999998,88.86800000000001 C 92.39199999999998,88.86800000000001 93.01299999999998,88.24700000000001 93.01299999999998,87.47900000000001 C 93.01299999999998,86.71100000000001 92.39199999999998,86.09000000000002 91.62399999999998,86.09000000000002 C 90.23499999999999,84.70200000000001 90.23499999999999,76.37000000000002 90.23499999999999,76.37000000000002 L 93.01199999999999,66.65000000000002 L 86.068,61.099"/>
	<path d="M 49.989,0.0 L 0.0,24.346 L 0.0,36.768 L 49.989,12.497 L 99.978,36.768 L 99.978,24.346 L 49.989,0.0" points="49.989,0 0,24.346 0,36.768 49.989,12.497 99.978,36.768 99.978,24.346 "/>
	<path d="M 43.046,31.938 L 43.046,48.602 L 54.154,54.156 L 54.154,48.602 L 62.486,48.602 L 65.264,43.047 L 43.046,31.938" points="43.046,31.938 43.046,48.602 54.154,54.156 54.154,48.602 62.486,48.602 65.264,43.047  "/>
	<path d="M 69.401,88.87 L 56.932,88.87 L 0.0,88.87 L 0.0,99.978 L 99.978,99.977 L 99.978,88.87 L 69.401,88.87" points="69.401,88.87 56.932,88.87 0,88.87 0,99.978 99.978,99.977 99.978,88.87 "/>
</svg>
