<?xml version="1.0" ?>
<svg xmlns="http://www.w3.org/2000/svg" xmlns:ev="http://www.w3.org/2001/xml-events" xmlns:xlink="http://www.w3.org/1999/xlink" baseProfile="full" enable-background="new 0 0 100 100" height="600px" version="1.1" viewBox="0 0 100 100" width="600px" x="0px" xml:space="preserve" y="0px">
	<defs/>
	<path d="M 8.333,25.0 C 8.333,24.531 8.365,24.069 8.403,23.611 L 0.0,23.611 L 0.0,26.388 L 8.404,26.388 C 8.366,25.931 8.333,25.469 8.333,25.0"/>
	<path d="M 14.244,12.28 L 7.926,5.962 L 5.962,7.926 L 12.28,14.244 C 12.878,13.536 13.536,12.878 14.244,12.28"/>
	<path d="M 25.0,8.333 C 25.469,8.333 25.931,8.365 26.389,8.403 L 26.389,0.0 L 23.612,0.0 L 23.612,8.404 C 24.069,8.366 24.531,8.333 25.0,8.333"/>
	<path d="M 37.72,14.243 L 43.282,8.681000000000001 L 41.318,6.7170000000000005 L 35.756,12.279 C 36.464,12.878 37.12,13.535 37.72,14.243"/>
	<path d="M 35.756,37.72 L 41.318,43.282 L 43.282,41.318 L 37.72,35.756 C 37.122,36.464 36.464,37.122 35.756,37.72"/>
	<path d="M 41.596,23.611 C 41.63399999999999,24.069 41.666,24.53 41.666,25.0 C 41.666,25.47 41.634,25.931 41.596,26.389 L 50.0,26.389 L 50.0,23.612 L 41.596,23.612 L 41.596,23.611"/>
	<path d="M 25.0,41.667 C 24.531,41.667 24.069,41.635000000000005 23.611,41.597 L 23.611,50.0 L 26.388,50.0 L 26.388,41.596000000000004 C 25.931,41.634 25.469,41.667 25.0,41.667"/>
	<path d="M 12.28,35.756 L 5.962,42.074 L 7.926,44.038 L 14.244,37.72 C 13.536,37.122 12.878,36.464 12.28,35.756"/>
	<path d="M 8.333,75.0 L 2.778,75.0 C 1.245,75.0 0.0,76.242 0.0,77.778 L 0.0,88.88900000000001 L 11.111,88.88900000000001 L 11.111,77.778 C 11.111,76.242 9.867,75.0 8.333,75.0"/>
	<path d="M 30.555,58.333 L 25.0,58.333 C 23.466,58.333 22.222,59.574999999999996 22.222,61.111 L 22.222,88.888 L 33.333,88.888 L 33.332,61.111000000000004 C 33.333,59.576 32.088,58.333 30.555,58.333"/>
	<path d="M 52.778,63.889 L 47.222,63.889 C 45.689,63.889 44.444,65.132 44.444,66.667 L 44.445,88.88900000000001 L 55.556,88.88900000000001 L 55.556,66.667 C 55.556,65.131 54.311,63.889 52.778,63.889"/>
	<path d="M 75.0,43.056 L 69.444,43.056 C 67.911,43.056 66.666,44.297999999999995 66.666,45.833999999999996 L 66.667,88.889 L 77.778,88.889 L 77.778,45.833999999999996 C 77.778,44.298 76.533,43.056 75.0,43.056"/>
	<path d="M 97.222,9.722 L 91.666,9.722 C 90.133,9.722 88.88799999999999,10.965 88.88799999999999,12.5 L 88.88799999999999,88.889 L 100.0,88.889 L 100.0,12.5 C 100.0,10.965 98.755,9.722 97.222,9.722"/>
	<path cx="25" cy="25" d="M 11.111,25.0 A 13.889,13.889 0.0 1,0 38.888999999999996,25.0 A 13.889,13.889 0.0 1,0 11.110999999999997,25.0" r="13.889"/>
	<path d="M 0.0,94.444 L 100.0,94.444 L 100.0,100.0 L 0.0,100.0 L 0.0,94.444" height="5.556" width="100" y="94.444"/>
</svg>
