<?xml version="1.0" ?>
<svg xmlns="http://www.w3.org/2000/svg" xmlns:ev="http://www.w3.org/2001/xml-events" xmlns:xlink="http://www.w3.org/1999/xlink" baseProfile="full" enable-background="new 0 0 100 100" height="600px" version="1.1" viewBox="0 0 100 100" width="600px" x="0px" xml:space="preserve" y="0px">
	<defs/>
	<path d="M 8.333,75.0 L 2.778,75.0 C 1.245,75.0 0.0,76.242 0.0,77.778 L 0.0,88.88900000000001 L 11.111,88.88900000000001 L 11.111,77.778 C 11.111,76.242 9.867,75.0 8.333,75.0"/>
	<path d="M 30.555,58.333 L 25.0,58.333 C 23.466,58.333 22.222,59.574999999999996 22.222,61.111 L 22.222,88.888 L 33.333,88.888 L 33.332,61.111000000000004 C 33.333,59.576 32.088,58.333 30.555,58.333"/>
	<path d="M 52.778,63.889 L 47.222,63.889 C 45.689,63.889 44.444,65.132 44.444,66.667 L 44.445,88.88900000000001 L 55.556,88.88900000000001 L 55.556,66.667 C 55.556,65.131 54.311,63.889 52.778,63.889"/>
	<path d="M 75.0,43.056 L 69.444,43.056 C 67.911,43.056 66.666,44.297999999999995 66.666,45.833999999999996 L 66.667,88.889 L 77.778,88.889 L 77.778,45.833999999999996 C 77.778,44.298 76.533,43.056 75.0,43.056"/>
	<path d="M 97.222,9.722 L 91.666,9.722 C 90.133,9.722 88.88799999999999,10.965 88.88799999999999,12.5 L 88.88799999999999,88.889 L 100.0,88.889 L 100.0,12.5 C 100.0,10.965 98.755,9.722 97.222,9.722"/>
	<path d="M 20.833,29.276 L 20.833,25.0 L 16.665999999999997,25.0 L 16.665999999999997,32.084 C 19.836,32.729000000000006 22.221999999999998,35.531000000000006 22.221999999999998,38.889 C 22.221999999999998,42.725 19.113,45.834 15.277999999999999,45.834 C 11.443999999999999,45.834 8.334,42.725 8.334,38.889 C 8.334,35.531000000000006 10.719999999999999,32.729 13.889,32.086000000000006 L 13.889,5.56 L 13.889999999999999,5.56 L 13.889,5.556 C 13.889,4.789 14.511,4.167 15.277999999999999,4.167 C 16.044999999999998,4.167 16.666999999999998,4.79 16.666999999999998,5.556 L 16.666999999999998,5.56 L 16.666999999999998,5.56 L 16.666999999999998,8.334 L 20.833999999999996,8.334 L 20.833999999999996,5.556 C 20.833,2.487 18.345,0.0 15.278,0.0 C 12.211000000000002,0.0 9.722,2.487 9.722,5.556 L 9.722,29.277 C 6.404999999999999,31.199 4.1659999999999995,34.78 4.1659999999999995,38.889 C 4.167,45.025 9.141,50.0 15.278,50.0 C 21.415,50.0 26.389000000000003,45.025 26.389000000000003,38.888999999999996 C 26.389,34.779 24.151,31.198 20.833,29.276"/>
	<path d="M 0.0,94.444 L 100.0,94.444 L 100.0,100.0 L 0.0,100.0 L 0.0,94.444" height="5.556" width="100" y="94.444"/>
	<path d="M 16.667,18.056 L 20.834000000000003,18.056 L 20.834000000000003,22.223 L 16.667,22.223 L 16.667,18.056" height="4.167" width="4.167" x="16.667" y="18.056"/>
	<path d="M 16.667,11.111 L 20.834000000000003,11.111 L 20.834000000000003,15.278 L 16.667,15.278 L 16.667,11.111" height="4.167" width="4.167" x="16.667" y="11.111"/>
</svg>
