<?xml version="1.0" ?>
<svg xmlns="http://www.w3.org/2000/svg" xmlns:ev="http://www.w3.org/2001/xml-events" xmlns:xlink="http://www.w3.org/1999/xlink" baseProfile="full" enable-background="new 0 0 100 97.629" height="586px" version="1.1" viewBox="0 0 100 97.629" width="600px" x="0px" xml:space="preserve" y="0px">
	<defs/>
	<path d="M 77.28,6.2 L 60.693,4.575 L 60.693,4.573 C 60.916999999999994,2.2840000000000003 59.242,0.2450000000000001 56.952,0.020000000000000462 C 54.663,-0.20499999999999954 52.623,1.4720000000000004 52.399,3.7610000000000006 L 52.04,3.726 L 34.43,2.0 L 33.752,8.911999999999999 L 35.135000000000005,9.046999999999999 L 29.858000000000004,62.907 L 43.056000000000004,62.907 L 54.167,40.684999999999995 L 51.389,57.352 L 58.333000000000006,57.352 L 57.00300000000001,62.31099999999999 L 71.578,64.39399999999999 L 76.60300000000001,13.109999999999992 L 77.98500000000001,13.245999999999992 L 78.66200000000002,6.334999999999992 L 77.28,6.2 M 48.065,47.994 L 38.388999999999996,47.045 L 39.607,34.605000000000004 L 49.284,35.55500000000001 L 48.065,47.994 M 50.097,27.26 L 40.422,26.312 L 41.64,13.872000000000002 L 51.316,14.820000000000002 L 50.097,27.26 M 66.034,49.754 L 56.358000000000004,48.805 L 57.578,36.365 L 67.254,37.314 L 66.034,49.754 M 68.066,29.02 L 58.39,28.072 L 59.609,15.632 L 69.284,16.58 L 68.066,29.02"/>
	<path d="M 55.866,66.478 L 54.167,72.63 L 59.723,72.63 L 56.944,87.908 L 65.277,87.908 L 67.328,93.003 L 99.981,97.629 L 100.0,97.629 L 100.0,72.63 L 55.866,66.478" points="55.866,66.478 54.167,72.63 59.723,72.63 56.944,87.908 65.277,87.908 67.328,93.003 99.981,97.629 100,97.629    100,72.63  "/>
	<path d="M 47.223,79.575 L 41.667,79.575 L 47.223,67.075 L 0.0,67.075 L 0.0,92.076 L 43.376,92.076 L 47.223,79.575" points="47.223,79.575 41.667,79.575 47.223,67.075 0,67.075 0,92.076 43.376,92.076  "/>
</svg>
