<?xml version="1.0" ?>
<svg xmlns="http://www.w3.org/2000/svg" xmlns:ev="http://www.w3.org/2001/xml-events" xmlns:xlink="http://www.w3.org/1999/xlink" baseProfile="full" enable-background="new 0 0 100 80.556" height="484px" version="1.1" viewBox="0 0 100 80.556" width="600px" x="0px" xml:space="preserve" y="0px">
	<defs/>
	<path d="M 8.202,67.599 C 7.478,67.676 6.749,67.74300000000001 6.013999999999999,67.8 C 6.748,67.741 7.479,67.679 8.202,67.599"/>
	<path d="M 0.0,68.056 C 1.439,68.056 2.853,68.00699999999999 4.252,67.92999999999999 C 2.853,68.004 1.439,68.056 0.0,68.056"/>
	<path d="M 11.598,67.139 C 11.283000000000001,67.191 10.969000000000001,67.243 10.65,67.288 C 10.968,67.242 11.283,67.19 11.598,67.139"/>
	<path d="M 94.444,16.858 L 94.444,9.722 L 97.22200000000001,9.722 L 84.722,0.0 L 72.222,9.722 L 75.0,9.722 L 75.0,18.904 C 70.848,19.698 67.252,20.772 65.278,22.222 C 65.278,22.222 52.778000000000006,72.22200000000001 0.0,72.22200000000001 L 0.0,80.555 L 100.0,80.555 L 100.0,16.667 C 100.0,16.667 97.782,16.697 94.444,16.858"/>
	<path d="M 44.444,41.667 C 40.277,41.667 37.5,38.89 33.333,38.89 C 29.165999999999997,38.89 26.387999999999998,41.667 22.221999999999998,41.667 C 18.055999999999997,41.667 15.277999999999999,38.89 11.110999999999997,38.89 C 6.943999999999997,38.89 4.165999999999997,41.667 -3.552713678800501e-15,41.667 L -3.552713678800501e-15,45.834 C 4.166999999999996,45.834 6.943999999999996,43.056000000000004 11.110999999999997,43.056000000000004 C 15.277999999999997,43.056000000000004 18.054999999999996,45.834 22.221999999999998,45.834 C 26.389,45.834 29.165999999999997,43.056000000000004 33.333,43.056000000000004 C 37.5,43.056000000000004 40.277,45.834 44.444,45.834 C 46.135000000000005,45.834 47.595,45.370000000000005 49.014,44.826 C 50.469,42.967 51.756,41.105000000000004 52.916000000000004,39.285 C 50.07,40.035 47.666,41.667 44.444,41.667"/>
	<path d="M 44.518,49.995 C 44.494,49.995 44.471000000000004,50.0 44.445,50.0 C 40.278,50.0 37.501,47.222 33.334,47.222 C 29.167,47.222 26.389000000000003,50.0 22.223000000000003,50.0 C 18.057000000000002,50.0 15.279000000000003,47.222 11.112000000000002,47.222 C 6.944,47.222 4.167,50.0 0.0,50.0 L 0.0,54.167 C 4.167,54.167 6.944,51.39 11.111,51.39 C 15.278,51.39 18.055,54.167 22.222,54.167 C 26.389000000000003,54.167 29.166,51.39 33.333,51.39 C 36.186,51.39 38.394999999999996,52.678 40.836999999999996,53.497 C 42.098,52.389 43.329,51.229 44.518,49.995"/>
	<path d="M 33.333,55.556 C 29.165999999999997,55.556 26.387999999999998,58.333999999999996 22.221999999999998,58.333999999999996 C 18.055999999999997,58.333999999999996 15.277999999999999,55.556 11.110999999999997,55.556 C 6.943999999999997,55.556 4.165999999999997,58.333999999999996 -3.552713678800501e-15,58.333999999999996 L -3.552713678800501e-15,62.5 C 4.166999999999996,62.5 6.943999999999996,59.722 11.110999999999997,59.722 C 15.277999999999997,59.722 18.054999999999996,62.5 22.221999999999998,62.5 C 25.938999999999997,62.5 28.574999999999996,60.335 32.054,59.863 C 33.869,58.794 35.628,57.625 37.327,56.35 C 36.087,55.906 34.797,55.556 33.333,55.556"/>
	<path d="M 6.014,67.799 C 6.748,67.742 7.478,67.67500000000001 8.202,67.59800000000001 C 9.025,67.50700000000002 9.843,67.40700000000001 10.651,67.287 C 10.969,67.242 11.283,67.18900000000001 11.599,67.138 C 13.786,66.78500000000001 15.923,66.33500000000001 17.999000000000002,65.774 C 15.793000000000003,64.963 13.721000000000004,63.889 11.112000000000002,63.889 C 6.945000000000002,63.889 4.167000000000002,66.666 0.0010000000000012221,66.666 L 0.0010000000000012221,68.05499999999999 C 1.4400000000000013,68.05499999999999 2.8540000000000014,68.00299999999999 4.253000000000001,67.92899999999999 C 4.845,67.897 5.428,67.845 6.014,67.799"/>
	<path d="M 6.014,67.799 C 5.428,67.84500000000001 4.845000000000001,67.897 4.252000000000001,67.929 C 4.846,67.898 5.427,67.844 6.014,67.799"/>
	<path d="M 10.65,67.288 C 9.842,67.407 9.024000000000001,67.508 8.201,67.599 C 9.026,67.51 9.841,67.405 10.65,67.288"/>
</svg>
