<?xml version="1.0" ?>
<svg xmlns="http://www.w3.org/2000/svg" xmlns:ev="http://www.w3.org/2001/xml-events" xmlns:xlink="http://www.w3.org/1999/xlink" baseProfile="full" enable-background="new 0 0 94.445 100" height="600px" version="1.1" viewBox="0 0 94.445 100" width="567px" x="0px" xml:space="preserve" y="0px">
	<defs/>
	<path d="M 19.445,61.111 L 19.445,68.05499999999999 L 69.445,68.05499999999999 L 69.445,61.11099999999999 C 69.445,54.974 64.47,50.0 58.334,50.0 L 30.556,50.0 C 24.42,50.0 19.445,54.974 19.445,61.111"/>
	<path d="M 94.445,100.0 C 94.445,100.0 88.889,90.277 88.889,77.779 L 88.889,5.556 L 56.863,5.556 C 56.914,6.0120000000000005 56.945,6.475 56.945,6.945 C 56.945,9.514 56.165,11.901 54.832,13.889 L 80.556,13.889 L 80.556,72.223 L 8.334,72.223 L 8.334,13.889 L 34.058,13.889 C 32.725,11.901 31.945999999999998,9.514 31.945999999999998,6.944999999999999 C 31.945999999999998,6.475999999999999 31.976999999999997,6.012 32.027,5.555999999999999 L 0.0,5.555999999999999 L 0.0,77.77799999999999 C 0.0,87.991 2.694,91.42 6.193,91.569 L 6.193,91.581 L 94.445,100.0 M 21.962,80.816 L 73.769,94.528 L 13.357000000000006,88.775 C 17.95,85.588 21.962,80.816 21.962,80.816"/>
	<path cx="44.445" cy="6.944" d="M 37.501,6.944 A 6.944,6.944 0.0 1,0 51.388999999999996,6.944 A 6.944,6.944 0.0 1,0 37.501,6.944" r="6.944"/>
	<path cx="44.445" cy="34.722" d="M 33.334,34.722 A 11.111,11.111 0.0 1,0 55.556000000000004,34.722 A 11.111,11.111 0.0 1,0 33.334,34.722" r="11.111"/>
</svg>
