<?xml version="1.0" ?>
<svg xmlns="http://www.w3.org/2000/svg" xmlns:ev="http://www.w3.org/2001/xml-events" xmlns:xlink="http://www.w3.org/1999/xlink" baseProfile="full" clip-rule="evenodd" fill-rule="evenodd" height="345px" style="shape-rendering:geometricPrecision;text-rendering:geometricPrecision;image-rendering:optimizeQuality;" version="1.1" viewBox="0 0 65.4087 37.5627" width="600px" x="0px" xml:space="preserve" y="0px">
	<defs/>
	<path class="fil0" d="M 2.84696,3.07074 C 2.9388096000000004,3.6246289999999997 3.0275830000000004,4.18249 3.110395,4.74315 C 3.754099,9.099969999999999 4.0397739999999995,13.62686 2.622802,17.78705 C 1.3552220000000001,21.50873 0.19586199999999998,25.10203 0.4240919999999999,29.01255 C 0.3878915999999999,29.823769000000002 0.13515199999999994,30.2497 0.07798799999999989,31.086570000000002 C 0.04334919999999989,31.593801000000003 0.02172359999999989,32.09038 0.009278299999999892,32.49062 C -0.025029200000000106,33.5569 0.03473689999999989,33.84418 0.2153122999999999,34.64428 C 0.2924923999999999,34.990715 0.44093729999999987,35.121273 0.6617362999999998,35.238865000000004 C 2.9778963,36.539385 8.228516299999999,37.127535 11.7810363,36.981215000000006 C 12.6444503,36.945629800000006 13.4064063,36.914208800000004 13.9811663,36.909808000000005 C 13.98859566,36.909949962000006 13.9961197,36.909997283 14.0036437,36.90971335850001 C 16.859683699999998,36.80328935850001 20.9430437,36.741393358500005 24.8849437,36.773051358500005 C 28.1077237,36.79898315850001 31.2437137,36.887993358500005 33.5443037,37.0671973585 L 33.5443510207,37.066629509500004 C 35.9665610207,37.311419509500006 37.867431020699996,37.446047509500005 39.7555810207,37.5113495095 C 41.6378610207,37.5764628095 43.5059910207,37.5722986095 45.8679110207,37.5397893095 C 49.0636210207,37.5789709095 52.726581020699996,37.0794533095 56.0272110207,36.3719593095 C 59.7646510207,35.5708193095 63.0568510207,34.4965393095 64.6963210207,33.6307593095 C 65.1691020207,33.3975623095 65.2593900207,33.0637623095 65.3209550207,32.7242363095 C 65.4030092207,32.0025953095 65.4399670207,31.2445663095 65.37646222069999,30.4142763095 C 65.3112542207,29.5626923095 65.14066322069999,28.6360563095 64.80515922069999,27.596376309500002 C 64.70465022069999,27.2983503095 64.51077722069999,26.870618309500003 64.0798272207,26.575146309500003 C 61.759127220699995,24.902456309500003 58.6238372207,25.2709363095 55.9211172207,25.311256309500003 C 55.463242220699996,25.323749009500002 54.9437072207,25.380060709500004 54.4476872207,25.397569309500003 L 54.4423873007,25.389335499500003 C 54.3470360007,25.392979199500004 54.2517323007,25.396386289500004 54.1563803007,25.399414799500004 C 53.7043723007,25.303968899500003 52.7410203007,25.085536799500005 51.923740300700004,24.899376799500004 C 51.174511300700004,24.728737799500003 50.7339503007,25.449858799500003 50.6062403007,26.135396799500004 C 50.601271620700004,26.179452399500004 50.5930378007,26.222466999500003 50.585371900700004,26.266049799500003 C 50.4308699007,27.0193487995 49.728250900700004,27.532679799500002 48.942581900700006,27.419399799500003 C 48.15691590070001,27.306113799500004 47.626071900700005,26.5633207995 47.7277619007,25.761379799500002 C 47.8480509007,24.8131197995 47.6793528007,23.8216597995 46.215251900700004,23.334769799500002 C 45.775547900700005,23.188595799500003 45.382122900700004,23.025339799500003 44.988651900700006,22.856214799500002 C 43.77913190070001,22.3362547995 43.00804190070001,22.532209799500002 42.29478190070001,24.256714799500003 C 42.27817230070001,24.297836499500004 42.25867620070001,24.337065399500002 42.239605900700006,24.376956799500004 C 41.88834390070001,25.061025799500005 41.07362590070001,25.366717799500005 40.347295900700004,25.046450799500004 C 39.620969900700004,24.726183799500003 39.2599159007,23.849950799500004 39.598586900700006,23.116240799500005 C 40.191799900700005,21.831290799500007 40.531041900700004,20.822560799500003 39.0771599007,20.001780799500004 C 38.7520189007,19.818270799500006 38.4565009007,19.611195799500003 38.149294900700006,19.426786799500004 C 37.09262490070001,18.792452799500005 36.262854900700006,18.235486799500002 34.93285490070001,19.750507799500003 L 34.33192890070001,20.491881799500003 C 34.304908800700005,20.527041099500003 34.275617200700005,20.559597799500004 34.246562300700006,20.592911799500005 C 33.7248513007,21.157873799500006 32.846622300700005,21.224785799500005 32.24404230070001,20.730946799500003 C 31.61865130070001,20.218462799500003 31.52727530070001,19.296136799500005 32.03985330070001,18.6707467995 C 32.20088530070001,18.4742707995 32.35997830070001,18.276186799500003 32.52257230070001,18.080940799500002 C 33.311409300700014,17.133626799500004 33.88640230070001,15.996600799500001 32.195065300700016,14.384390799500002 C 31.055675300700017,13.298280799500002 30.315765300700015,12.817700799500003 28.425495300700014,14.385999709500002 L 27.796697300700014,14.914288709500003 C 27.763525500700013,14.943674909500002 27.728602800700013,14.970079909500003 27.693727300700015,14.997289309500003 C 27.074299300700016,15.452988309500002 26.199337300700016,15.352053309500002 25.701377300700017,14.752877309500002 C 25.184587300700016,14.131035309500003 25.269859300700016,13.208137309500003 25.891796300700015,12.691347309500003 C 26.212962300700017,12.424458309500002 26.523764300700016,12.144603309500003 26.854489300700017,11.889544309500003 C 28.82141930070002,10.372444309500004 27.748094300700018,9.139684309500003 26.977381300700017,8.293594309500003 C 26.073460300700017,7.301278309500003 25.42526130070002,6.491814309500003 23.416831300700018,8.004890309500004 L 22.67096230070002,8.608419309500004 C 22.63726990070002,8.637190309500005 22.60182670070002,8.662980109500005 22.56647830070002,8.689527009500004 C 21.93876830070002,9.133727009500005 21.06579830070002,9.016655009500004 20.57895830070002,8.408394009500004 C 20.073762300700018,7.777135009500004 20.17602230070002,6.855994009500003 20.80737530070002,6.350744009500003 C 21.25602330070002,5.991722009500003 21.68465430070002,5.606152009500003 22.15189530070002,5.271454009500003 C 23.67477530070002,4.180614009500003 22.37804130070002,1.766594009500003 21.51060430070002,0.7469740095000033 C 20.69957430070002,-0.20630199049999676 20.20251430070002,-0.13967499049999677 19.13974430070002,0.34938500950000323 C 18.30126830070002,0.7352380095000033 17.258504300700018,1.5495350095000033 16.69293430070002,2.4777750095000033 C 14.62710430070002,5.463995009500003 11.569144300700021,2.2632230095000034 8.58613430070002,1.8473210095000034 C 6.843024300700021,1.6042340095000034 1.8661643007000208,0.2850710095000035 2.8469343007000205,3.0708010095000033 L 2.84696,3.07074 M 2.067966,30.22884 C 3.758876,30.544990000000002 6.449206,31.89122 10.685736,31.8015 C 17.319586,31.661052 24.484735999999998,30.73092 31.719935999999997,31.701369 C 43.181535999999994,33.238679 49.77523599999999,32.567859 55.188235999999996,30.122369 C 55.723338999999996,30.0435327 56.043274,29.170181 55.930178,28.760669 C 55.720594,27.970223 55.419351,27.146319 55.099699,26.523349 C 55.0427248,26.159736 55.514797,26.174075 55.99231,26.153916 C 59.674380000000006,26.053407 61.561530000000005,25.934679 63.306580000000004,27.099857999999998 C 63.708759,27.368356 63.872915000000006,27.574153999999997 63.977683000000006,27.912591999999997 C 64.26974700000001,28.855646999999998 64.42699300000001,29.695781999999998 64.48623900000001,30.469941999999996 C 64.63728700000001,32.443692 64.35558600000002,32.88623199999999 62.87231900000001,33.47978199999999 C 61.16640900000001,34.16243099999999 58.70023900000001,34.89008199999999 55.87168900000001,35.496351999999995 C 52.61185900000001,36.19508999999999 49.00336900000001,36.68841199999999 45.87148900000001,36.64946199999999 L 45.86268734000001,36.64946199999999 L 45.861078430000006,36.64946199999999 C 43.51254843000001,36.68178209999999 41.654408430000004,36.54403099999999 39.778988430000005,36.47910699999999 C 34.74306843000001,36.30472999999999 30.116758430000004,35.92479199999999 24.890788430000008,35.88277099999999 C 20.55142843000001,35.84794289999999 16.07455843000001,35.91300899999999 11.751688430000009,36.09093499999999 C 8.780138430000008,36.21330599999999 4.833398430000009,35.81406099999999 2.4126084300000095,35.00180499999999 C 1.2649884300000094,34.61675599999999 1.1906884300000096,34.54260499999999 1.1132784300000094,33.39786499999999 C 1.0507204300000095,32.47421199999999 1.0449473300000094,31.08009499999999 1.2790434300000093,30.66556499999999 C 1.4965294300000094,30.28023199999999 1.8360554300000094,30.21653899999999 2.0679744300000094,30.22884199999999 L 2.067966,30.22884 M 13.641366,9.97344 C 9.989766,9.97344 7.029616,12.93359 7.029616,16.58519 C 7.029616,20.23674 9.989766,23.19689 13.641366,23.19689 C 17.292915999999998,23.19689 20.253066,20.23674 20.253066,16.58519 C 20.253066,12.93359 17.292916,9.97344 13.641366000000001,9.97344 L 13.641366,9.97344"/>
</svg>
