<?xml version="1.0" ?>
<svg xmlns="http://www.w3.org/2000/svg" xmlns:ev="http://www.w3.org/2001/xml-events" xmlns:xlink="http://www.w3.org/1999/xlink" baseProfile="full" enable-background="new 0 0 100 67.681" height="407px" version="1.1" viewBox="0 0 100 67.681" width="600px" x="0px" xml:space="preserve" y="0px">
	<defs/>
	<path d="M 96.043,67.681 C 94.01700000000001,67.681 92.061,67.221 90.33000000000001,66.455 C 88.56200000000001,65.631 86.56000000000002,65.148 84.46400000000001,65.148 C 82.37900000000002,65.148 80.37600000000002,65.63 78.59800000000001,66.455 C 76.87800000000001,67.221 74.92300000000002,67.681 72.89700000000002,67.681 C 70.89500000000002,67.681 68.93900000000002,67.221 67.20800000000003,66.455 C 65.41700000000003,65.631 63.416000000000025,65.148 61.34200000000003,65.148 C 59.257000000000026,65.148 57.254000000000026,65.63 55.477000000000025,66.455 C 53.733000000000025,67.221 51.80100000000002,67.681 49.776000000000025,67.681 C 47.75000000000003,67.681 45.79500000000002,67.221 44.07400000000003,66.455 C 42.29600000000003,65.631 40.29300000000003,65.148 38.20800000000003,65.148 C 36.111000000000026,65.148 34.108000000000025,65.63 32.33000000000003,66.455 C 30.611000000000026,67.221 28.656000000000027,67.681 26.629000000000026,67.681 C 24.603000000000026,67.681 22.672000000000025,67.221 20.952000000000027,66.455 C 19.149000000000026,65.631 17.148000000000028,65.148 15.086000000000027,65.148 C 12.990000000000027,65.148 10.987000000000027,65.63 9.220000000000027,66.455 C 7.465000000000027,67.221 5.533000000000028,67.681 3.5080000000000275,67.681 L 3.5080000000000275,59.141 C 5.533000000000028,59.141 7.466000000000028,58.681 9.220000000000027,57.915 C 10.987000000000027,57.091 12.990000000000027,56.608 15.086000000000027,56.608 C 17.148000000000028,56.608 19.149000000000026,57.089999999999996 20.952000000000027,57.915 C 22.672000000000025,58.681 24.603000000000026,59.141 26.629000000000026,59.141 C 28.656000000000027,59.141 30.611000000000026,58.681 32.33000000000003,57.915 C 34.10900000000002,57.091 36.111000000000026,56.608 38.20800000000003,56.608 C 40.29300000000003,56.608 42.29500000000003,57.089999999999996 44.07400000000003,57.915 C 45.794000000000025,58.681 47.75000000000003,59.141 49.776000000000025,59.141 C 51.80100000000002,59.141 53.733000000000025,58.681 55.477000000000025,57.915 C 57.254000000000026,57.091 59.257000000000026,56.608 61.34200000000003,56.608 C 63.416000000000025,56.608 65.41700000000003,57.089999999999996 67.20800000000003,57.915 C 68.93900000000002,58.681 70.89600000000003,59.141 72.89700000000002,59.141 C 74.92300000000002,59.141 76.87800000000001,58.681 78.59800000000001,57.915 C 80.37600000000002,57.091 82.37900000000002,56.608 84.46400000000001,56.608 C 86.561,56.608 88.56300000000002,57.089999999999996 90.33000000000001,57.915 C 92.06000000000002,58.681 94.01700000000001,59.141 96.043,59.141 L 96.043,67.681"/>
	<path d="M 75.24,15.593 C 74.969,16.053 73.42699999999999,18.692 73.42699999999999,18.692 C 73.42699999999999,18.692 73.097,19.363 72.04799999999999,19.363 L 66.77099999999999,19.363 L 63.755999999999986,10.41 C 63.990999999999985,10.364 64.23799999999999,10.316 64.40299999999999,10.293 C 66.288,9.950999999999999 66.93599999999999,9.950999999999999 68.338,10.668999999999999 C 68.338,10.668999999999999 74.345,13.767999999999999 74.758,14.002999999999998 C 75.265,14.25 75.582,14.992 75.24,15.593 M 60.812,10.987 L 63.65,19.362000000000002 L 42.66,19.362000000000002 C 42.20099999999999,19.362000000000002 41.718999999999994,19.091 41.718999999999994,18.372000000000003 L 41.718999999999994,17.242000000000004 C 41.718999999999994,16.629000000000005 41.977,16.252000000000006 42.53099999999999,15.981000000000005 C 43.166999999999994,15.687000000000005 46.971999999999994,14.168000000000005 49.26899999999999,13.566000000000006 C 53.414,12.53 57.76,11.587 60.812,10.987 M 42.2,43.698 L 45.604,34.522 L 69.186,34.522 L 72.59,43.662 L 42.2,43.698 M 99.081,43.615 L 75.31,43.638000000000005 L 71.882,34.45 C 74.61500000000001,34.014 79.775,33.190000000000005 82.74300000000001,32.342000000000006 C 84.02600000000001,32.01200000000001 85.33500000000001,30.681000000000004 85.71100000000001,29.916000000000004 L 92.79,19.126000000000005 L 92.79,32.637 C 92.79,34.156 95.05300000000001,34.156 95.05300000000001,32.637 L 95.05300000000001,18.691 L 96.01800000000001,18.691 C 98.72700000000002,18.691 98.72700000000002,14.626999999999999 96.01800000000001,14.626999999999999 L 95.05300000000001,14.626999999999999 L 95.05300000000001,1.14 C 95.05300000000001,-0.3800000000000001 92.79,-0.3800000000000001 92.79,1.14 L 92.79,14.627 L 92.13000000000001,14.627 C 89.71600000000001,14.391 78.37200000000001,13.178 76.18200000000002,12.048 C 73.98000000000002,10.893 71.67000000000002,9.586 69.51500000000001,8.479 C 67.53600000000002,7.488999999999999 66.38200000000002,7.560999999999999 64.23800000000001,7.924999999999999 C 63.02500000000001,8.159999999999998 55.887000000000015,9.491 48.972000000000016,11.245999999999999 C 40.433000000000014,13.402 29.890000000000015,18.372999999999998 29.890000000000015,18.372999999999998 L 17.840000000000014,18.419999999999998 C 15.083000000000014,17.619 14.000000000000014,12.459999999999997 12.798000000000014,10.186999999999998 L 9.761,4.062 C 9.537,3.555 8.983,3.402 8.452,3.378 L 0.7720000000000002,2.918 C -0.3819999999999997,2.8480000000000003 0.05400000000000027,3.814 0.2180000000000002,4.367 L 5.484,25.015 C 6.037,27.324 9.242,29.527 11.491,29.763 L 42.504999999999995,34.522000000000006 L 42.894999999999996,34.522000000000006 L 39.491,43.69800000000001 L 15.108,43.72100000000001 C 14.507000000000001,43.72100000000001 14.024000000000001,44.05000000000001 14.024000000000001,44.628000000000014 L 14.024000000000001,46.183000000000014 C 14.024000000000001,46.83000000000001 14.413,47.26700000000002 15.108,47.47900000000001 C 17.109,48.08000000000001 23.129,49.72900000000001 30.315,51.48300000000001 C 30.563000000000002,51.38900000000001 30.821,51.34200000000001 31.069000000000003,51.22400000000001 C 33.342000000000006,50.16400000000001 35.745000000000005,49.63400000000001 38.207,49.63400000000001 C 40.668,49.63400000000001 43.083,50.16400000000001 45.309,51.20000000000001 C 46.711,51.84800000000001 48.254999999999995,52.16600000000001 49.774,52.16600000000001 C 51.293000000000006,52.16600000000001 52.79,51.84900000000001 54.191,51.22400000000001 C 56.417,50.18800000000001 58.903000000000006,49.63400000000001 61.34,49.63400000000001 C 63.755,49.63400000000001 66.24000000000001,50.18800000000001 68.431,51.20000000000001 C 69.857,51.84800000000001 71.39999999999999,52.16600000000001 72.896,52.16600000000001 C 74.416,52.16600000000001 75.958,51.84900000000001 77.313,51.22400000000001 C 79.563,50.18800000000001 82.025,49.63400000000001 84.46300000000001,49.63400000000001 C 86.772,49.63400000000001 89.09200000000001,50.141000000000005 91.212,51.06000000000001 C 97.137,49.104000000000006 99.233,47.50200000000001 99.233,47.50200000000001 C 99.69200000000001,47.12500000000001 99.99900000000001,46.73600000000001 99.99900000000001,46.13500000000001 L 99.99900000000001,44.533000000000015 C 100.0,43.934 99.67,43.615 99.081,43.615"/>
</svg>
