<?xml version="1.0" ?>
<svg xmlns="http://www.w3.org/2000/svg" xmlns:cc="http://creativecommons.org/ns#" xmlns:dc="http://purl.org/dc/elements/1.1/" xmlns:ev="http://www.w3.org/2001/xml-events" xmlns:inkscape="http://www.inkscape.org/namespaces/inkscape" xmlns:rdf="http://www.w3.org/1999/02/22-rdf-syntax-ns#" xmlns:sodipodi="http://sodipodi.sourceforge.net/DTD/sodipodi-0.dtd" xmlns:svg="http://www.w3.org/2000/svg" xmlns:xlink="http://www.w3.org/1999/xlink" baseProfile="full" height="545px" version="1.1" viewBox="0 0 80 80" width="600px" x="0px" y="0px">
	<defs/>
	<path d="M 23.552538,5.1401762 C 29.247297,5.3666662 34.974412,5.4637362 40.669169999999994,5.4960962 C 40.57209999999999,9.7671662 40.57209999999999,14.038236 40.53974399999999,18.276946000000002 C 41.38101499999999,18.374046000000003 41.769293999999995,19.215286000000003 42.416425999999994,19.603566 C 43.09591399999999,19.765346 43.807759,19.571166 44.454890999999996,19.409426 C 45.231449,19.409426 45.03730899999999,20.541906 45.619727999999995,20.833116 C 46.00800699999999,20.865516 46.396285999999996,20.865516 46.78456499999999,20.897816 C 47.33462599999999,21.253746 48.014115,21.318455999999998 48.66124599999999,21.286096 C 49.17895199999999,21.383196 50.020222999999994,22.224436 50.214361999999994,21.253796 C 50.76442399999999,21.383216 51.249773,21.350896000000002 51.767478,21.156696 C 51.282129999999995,21.771466 51.864548,22.256816 52.446966999999994,22.353886 C 52.414607,22.903945999999998 52.83524599999999,23.130446 53.28823799999999,23.292226 C 53.64415999999999,22.903945999999998 54.03243899999999,22.515666 54.388361999999994,22.095036 C 54.485431999999996,22.289176 54.64721399999999,22.612736 54.711926999999996,22.806876 C 54.90606699999999,22.806876 55.294346,22.774576 55.488485,22.774576 C 55.520844999999994,22.936356 55.520844999999994,23.259916 55.520844999999994,23.421706 C 56.07090699999999,23.259916 56.588612,23.065776 57.073961,22.774576 C 56.879821,23.389346 57.138670999999995,23.874696 57.688736,24.101195999999998 C 57.915231999999996,23.486416 58.238797999999996,22.871646 58.562363999999995,22.289226 C 58.62707399999999,22.483366 58.78885999999999,22.806926 58.885929999999995,23.001065999999998 C 59.371278,23.130495999999997 59.95369699999999,23.389346 60.309619,22.839285999999998 C 60.892038,23.324635999999998 61.539169,23.971766 62.348084,23.907055999999997 C 63.092285,23.583485999999997 63.642347,22.871646 64.515975,22.871646 C 65.195463,23.033426 65.842595,22.806946 66.392657,22.483365999999997 C 67.266284,23.001065999999998 68.139912,22.871646 68.884114,22.192155999999997 C 69.304749,22.418645999999995 69.693028,22.645145999999997 70.113664,22.871646 C 71.052005,23.907055999999997 72.605121,23.842336 73.737601,24.586536 C 74.35237599999999,24.554136 74.967151,24.521836 75.581926,24.457116 C 75.549566,27.660415999999998 75.905492,30.831356 75.937849,34.034666 C 75.840779,34.908286000000004 76.649693,35.393636 77.135042,35.976056 C 77.620391,36.396696 77.393895,37.108536 77.458608,37.658596 C 78.00867,38.143946 78.429306,38.758726 78.526375,39.502926 C 79.788282,40.408906 79.497073,42.220876000000004 78.81758500000001,43.418076 C 78.396949,44.097556 78.461662,44.938826 78.235166,45.683036 C 79.108794,46.944936 78.235166,48.400986 77.36153800000001,49.404036000000005 C 77.58803400000001,49.662896 77.84688700000001,49.921746000000006 78.073383,50.18059600000001 C 76.358484,49.630536000000006 75.09657700000001,51.53957600000001 73.381679,51.21600600000001 C 73.47874900000001,51.34543600000001 73.70524400000001,51.636646000000006 73.80231400000001,51.76606600000001 C 73.543462,51.70136600000001 72.99340000000001,51.50721600000001 72.734547,51.41014600000001 C 72.83161700000001,51.60428600000001 73.058113,51.92785600000001 73.187539,52.08963600000001 C 72.313911,51.345436000000014 72.249198,52.866196000000016 71.699136,53.28682600000001 C 70.760795,53.99867600000001 69.887168,54.807586000000015 68.948827,55.551786000000014 C 67.363354,56.522486000000015 65.810238,57.75203600000001 63.83648699999999,57.75203600000001 C 63.804126999999994,57.557896000000014 63.73941699999999,57.16961600000001 63.67470399999999,56.97547600000001 C 63.25406799999999,57.234336000000006 62.83343299999999,57.49318600000001 62.41279699999999,57.78439600000001 C 62.08923099999999,57.719696000000006 61.73330899999999,57.68729600000001 61.40974299999999,57.622606000000005 C 61.539168999999994,58.205026000000004 62.02451799999999,58.52859600000001 62.50986699999999,58.852166000000004 C 61.83037899999999,59.078656 60.92439399999999,59.984646000000005 60.536114999999995,58.88456600000001 C 59.694843999999996,59.466986000000006 60.08312299999999,60.69653600000001 59.888983999999994,61.57016600000001 C 59.727200999999994,61.44073600000001 59.338922,61.181886000000006 59.14478199999999,61.08481600000001 C 59.20949199999999,61.24659600000001 59.30656499999999,61.57016600000001 59.37127799999999,61.73194600000001 C 58.88592999999999,62.055516000000004 58.40058099999999,62.443796000000006 58.17408499999999,62.99385600000001 C 57.624022999999994,63.802766000000005 56.91217799999999,64.64403600000001 57.07396099999999,65.647096 C 56.94453499999999,65.711796 56.75039499999999,65.84123600000001 56.65332499999999,65.905946 C 56.718034999999986,66.294226 56.81510799999999,66.682506 56.879820999999986,67.103136 C 56.81511099999999,66.84428600000001 56.62096899999999,66.29422600000001 56.55625599999998,66.035376 C 55.68262799999999,66.520726 56.45918599999998,67.426706 56.00619399999999,68.106196 C 55.87676699999999,68.235616 55.65027099999999,68.526826 55.52084499999999,68.688616 C 55.48848499999999,68.94746599999999 55.48848499999999,69.465166 55.45613499999999,69.724026 C 56.42683199999999,70.403516 56.038552999999986,71.69777599999999 56.58861499999999,72.60375599999999 C 57.10631999999999,73.54209599999999 57.04160699999999,74.99814599999999 58.36822699999999,75.22464599999999 C 57.62402599999999,75.22464599999999 56.87982399999999,75.48349599999999 56.62097199999999,76.227696 C 56.07090999999999,75.871776 55.52084799999999,75.45113599999999 55.067855999999985,74.965786 C 53.611809999999984,74.480436 51.89691099999998,75.192286 50.667360999999985,74.189236 C 49.890802999999984,73.606816 48.82303499999998,73.63916599999999 48.04647699999998,73.08910599999999 C 47.464058999999985,72.70082599999999 46.75221399999998,72.53904599999998 46.040368999999984,72.44197599999998 C 45.39323799999998,71.11535599999998 45.199097999999985,69.49752599999998 43.937190999999984,68.55918599999998 C 43.937190999999984,68.07383599999999 43.90483099999999,67.58848599999999 43.90483099999999,67.10313599999998 C 43.160628999999986,66.45600599999997 43.77540399999999,65.35588599999998 43.290055999999986,64.57932599999998 C 42.64292399999999,64.32047599999999 41.93107899999998,64.09397599999998 41.47808699999999,63.51155599999998 C 40.92802499999999,62.734995999999974 40.66917199999999,61.764305999999976 39.924970999999985,61.14952599999998 C 39.439621999999986,60.66417599999998 38.72777699999998,60.34061599999998 38.501280999999985,59.69348599999998 C 38.01593299999998,57.94622599999998 36.689312999999984,56.55489599999998 36.365746999999985,54.77528599999998 C 35.45976299999999,53.51337599999998 34.262568999999985,52.47796599999998 32.968305999999984,51.63669599999998 C 32.51531399999998,51.15134599999998 32.127034999999985,50.60128599999998 31.771111999999984,50.01886599999998 C 30.315065999999984,50.01886599999998 28.923732999999984,49.63058599999998 27.467686999999984,49.695295999999985 C 27.079407999999983,49.50115599999999 26.691128999999982,49.27466599999998 26.270492999999984,49.080525999999985 C 26.076353999999984,49.27466599999998 25.882213999999983,49.46880599999999 25.720430999999984,49.695295999999985 C 25.105655999999982,49.824725999999984 24.490880999999984,49.921795999999986 23.908462999999983,50.08357599999999 C 23.326043999999982,51.15134599999999 22.808338999999982,52.28382599999998 22.355346999999984,53.44866599999999 C 21.805284999999984,53.86929599999999 21.319935999999984,54.35464599999999 20.931656999999984,54.93706599999999 C 20.543377999999983,54.904665999999985 20.155098999999982,54.83996599999999 19.799176999999982,54.710565999999986 C 18.440199999999983,53.739865999999985 17.016509999999982,52.86624599999998 15.431037999999983,52.380895999999986 C 14.783905999999984,51.636695999999986 14.072060999999984,51.05427599999999 13.230789999999983,50.60128599999999 C 12.421875999999983,49.46880599999999 11.645317999999984,48.07746599999999 12.001239999999983,46.621425999999985 C 11.742386999999983,46.16842599999998 11.451177999999983,45.74779599999999 11.159968999999982,45.29480599999999 C 10.998185999999983,44.64767599999999 10.901115999999982,43.87111599999999 10.351053999999982,43.41812599999999 C 9.412713999999982,42.382705999999985 7.827240999999981,42.18856599999999 7.083039999999982,40.959015999999984 C 6.630046999999982,40.11774599999998 5.7240629999999815,39.69711599999999 5.174000999999982,38.92055599999998 C 4.623938999999982,38.014575999999984 3.264962999999982,38.014575999999984 2.941396999999982,36.914445999999984 C 2.6501879999999822,35.97610599999999 1.8736299999999821,35.426045999999985 1.000001999999982,35.03776599999998 C 1.000001999999982,34.843625999999986 1.032361999999982,34.390635999999986 1.0647119999999821,34.164135999999985 C 5.465206999999983,34.390635999999986 9.865702999999982,34.71419599999999 14.298554999999983,34.87598599999998 C 16.85472499999998,34.87598599999998 19.443250999999982,35.264265999999985 22.03177799999998,35.07012599999998 C 22.096487999999983,35.00542599999998 22.290629999999982,34.81126599999998 22.35534399999998,34.746555999999984 C 22.54948299999998,32.54630599999999 22.48476999999998,30.378415999999984 22.581839999999982,28.178165999999983 C 22.93776199999998,23.033475999999983 23.164257999999982,17.85641599999998 23.26132799999998,12.679365999999984 C 23.45546699999998,10.187905999999984 23.52018099999998,7.664096199999984 23.55253699999998,5.140286199999984 L 23.552538,5.1401762" fill="#000000" stroke="none"/>
</svg>
