<?xml version="1.0" ?>
<svg xmlns="http://www.w3.org/2000/svg" xmlns:cc="http://creativecommons.org/ns#" xmlns:dc="http://purl.org/dc/elements/1.1/" xmlns:ev="http://www.w3.org/2001/xml-events" xmlns:inkscape="http://www.inkscape.org/namespaces/inkscape" xmlns:rdf="http://www.w3.org/1999/02/22-rdf-syntax-ns#" xmlns:sodipodi="http://sodipodi.sourceforge.net/DTD/sodipodi-0.dtd" xmlns:svg="http://www.w3.org/2000/svg" xmlns:xlink="http://www.w3.org/1999/xlink" baseProfile="full" height="84px" version="1.1" viewBox="0 0 80 80" width="600px" x="0px" y="0px">
	<defs/>
	<path d="M 40.388091,1.0264275 C 41.434011000000005,0.9297275 42.48872,0.9649275 43.53464,0.9561275 C 43.60495,1.36042749 43.095178000000004,1.63289749 43.279752,2.04598749 C 43.147913,2.1602474899999997 42.998496,2.25693749 42.84029,2.32724749 C 42.576613,2.43271749 42.409617000000004,2.67002749 42.189886,2.8282374900000002 C 42.154726000000004,2.90733749 42.128356000000004,2.98643749 42.101996,3.06554749 C 41.961369,3.08314749 41.785584,3.0479474900000003 41.671324,3.16224749 C 41.539485,3.36439749 41.442803,3.59291749 41.24944,3.75112749 C 41.24944,3.86538749 41.24944,3.97964749 41.24064,4.08511749 C 41.11759,4.10271749 40.994541,4.10271749 40.871491,4.12901749 C 40.757231,4.2784274899999994 40.607814,4.4014774899999995 40.511133,4.55968749 C 40.440823,4.74425749 40.467183,4.93762749 40.475973,5.13098749 C 40.317766000000006,5.27161749 40.168349000000006,5.42981749 40.02772100000001,5.59681749 C 39.96619100000001,5.939597490000001 40.04530100000001,6.38784749 40.40565900000001,6.52847749 C 40.739650000000005,6.67789749 40.91543500000001,7.03824749 41.26700400000001,7.1525074900000005 C 41.49552500000001,7.21400749 41.592206000000004,7.44255749 41.65373100000001,7.644707490000001 C 41.978933000000005,7.679907490000001 42.29534600000001,7.732607490000001 42.61175800000001,7.732607490000001 C 42.74359700000001,8.277547490000002 43.33247600000001,8.506067490000001 43.57857500000001,8.98947749 C 43.67525500000001,9.00707749 43.78072800000001,9.033377490000001 43.87740900000001,9.050977490000001 C 43.868609000000006,9.17402749 43.85103900000001,9.297077490000001 43.84224900000001,9.42012749 C 43.99166700000001,9.47282749 44.13229400000001,9.54317749 44.28171200000001,9.59590749 C 44.43991800000001,9.87716749 44.75633100000001,9.93868749 45.02879700000001,10.04416799 C 45.230950000000014,9.87716749 45.49462700000001,9.912327490000001 45.74072600000001,9.90353749 C 46.04834900000001,9.84203749 46.44386500000001,9.72774749 46.69875300000001,9.97383749 C 47.305211000000014,10.44845799 47.19974000000001,11.30101799 47.463417000000014,11.95141799 C 47.63041300000001,12.100837989999999 47.814987000000016,12.24146799 48.008350000000014,12.37329799 C 48.02593000000002,12.63697799 48.10503000000001,12.89186799 48.21050300000002,13.129177989999999 C 48.201703000000016,13.164377989999998 48.18413300000002,13.23464799 48.17534300000002,13.269807989999999 C 48.36870600000002,13.304907989999998 48.54449100000002,13.401647989999999 48.69390800000002,13.524697989999998 C 48.76421800000002,14.262987989999997 48.80816800000002,15.036447989999997 49.15973800000002,15.70442799 C 49.37946900000002,15.774727989999999 49.625568000000015,15.86262799 49.74861700000002,16.082367989999998 C 49.86287700000002,16.275727989999996 50.00350500000002,16.46908799 50.196869000000014,16.60092799 C 50.205669000000015,16.723977989999998 50.144129000000014,16.873397989999997 50.240819000000016,16.97007799 C 50.45176100000002,17.23375799 50.69786000000001,17.47984799 50.86485500000001,17.77868799 C 50.93516500000001,18.13904799 51.119743000000014,18.46424799 51.234003000000016,18.80702799 C 51.29553300000001,18.938867990000002 51.33947400000002,19.11464799 51.48889100000002,19.16738799 C 51.68225500000002,19.184987990000003 51.94593200000001,19.097087990000002 52.051403000000015,19.31680799 C 52.27992300000002,19.74747799 52.66665000000001,20.046307990000003 53.044587000000014,20.34514799 C 53.22916100000001,20.50334799 53.50162800000001,20.42424799 53.694991000000016,20.57366799 C 54.18718900000002,20.97796799 54.83759300000001,21.23285799 55.17158400000002,21.81294799 C 55.303423000000016,22.06783799 55.55831100000002,22.22604799 55.804409000000014,22.340307990000003 C 55.94503700000001,22.647927990000003 55.98898300000001,22.973127990000002 56.059297000000015,23.289537990000003 C 56.173558000000014,23.544427990000003 56.41086700000002,23.720217990000002 56.53391700000002,23.975097990000002 C 56.569077000000014,24.159677990000002 56.57786700000002,24.344247990000003 56.604227000000016,24.528827990000003 C 56.727277000000015,24.739767990000004 56.982165000000016,24.818867990000005 57.20189600000002,24.889187990000003 C 57.28978600000002,25.161647990000002 57.58862300000002,25.240757990000002 57.80835400000002,25.064967990000003 C 58.045663000000026,25.355017990000004 58.43239000000002,25.442907990000002 58.731224000000026,25.653847990000003 C 58.90700900000002,25.829627990000002 59.06521500000002,26.022997990000004 59.23221100000003,26.198777990000004 C 59.44315300000003,26.418507990000002 59.51346700000003,26.726137990000005 59.689252000000025,26.963447990000002 C 59.90898300000003,27.068917990000003 60.146292000000024,27.148017990000003 60.36602300000003,27.26227799 C 60.497862000000026,27.39411799 60.59454400000003,27.56111799 60.656068000000026,27.74568799 C 60.62090800000003,27.92146799 60.48028300000003,28.11483799 60.57696800000003,28.29940799 C 60.52423800000003,28.325807989999998 60.40997200000003,28.396107989999997 60.357237000000026,28.43124799 C 60.46270800000003,28.58066799 60.40118700000003,28.79160799 60.515443000000026,28.94102799 C 60.44513300000003,28.95002799 60.31329100000003,28.95862799 60.242977000000025,28.95862799 C 60.304497000000026,29.08166799 60.339657000000024,29.21350799 60.366026000000026,29.34534799 C 60.629704000000025,29.512347990000002 60.928538000000025,29.68812799 61.077955000000024,29.97817799 C 61.26252900000002,29.925477989999997 61.50862800000002,29.85512799 61.622888000000025,30.074877989999997 C 61.552578000000025,30.171577989999996 61.350421000000026,30.250657989999997 61.43831400000003,30.400077989999996 C 61.534994000000026,30.443977989999997 61.631677000000025,30.470377989999996 61.737148000000026,30.496777989999995 C 61.710778000000026,30.672567989999994 61.66683800000003,30.848347989999994 61.54378500000003,30.988977989999995 C 61.77230500000003,31.243867989999995 62.07992900000003,31.410857989999997 62.29966000000003,31.683327989999995 C 62.48423400000003,31.753627989999995 62.58091500000003,31.498757989999994 62.76548900000003,31.525117989999995 C 62.79185900000003,31.665747989999996 62.83579900000003,31.806377989999994 62.89732800000003,31.947007989999996 C 62.83580800000003,32.043707989999994 62.69517500000003,32.140367989999994 62.73912200000003,32.27220799 C 62.79185200000003,32.60619799 63.09948100000003,32.79076799 63.32800100000003,33.001717989999996 C 63.58288900000003,33.256597989999996 63.960826000000026,33.291757989999994 64.25966100000002,33.46754798999999 C 64.47939200000002,33.59059798999999 64.71670100000003,33.652117989999994 64.96280000000002,33.652117989999994 C 65.24405600000001,34.02126798999999 65.60441500000002,34.320097989999994 66.00872000000001,34.53982798999999 C 66.27239700000001,34.706827989999994 66.58881000000001,34.83866798999999 66.72943800000002,35.13749798999999 C 66.74701800000001,35.427547989999994 66.62396700000002,35.708797989999994 66.58881000000001,35.998847989999994 C 66.68549000000002,36.35041799 66.922801,36.640457989999994 67.08100700000001,36.974447989999994 C 67.07220700000002,37.079927989999995 67.00190700000002,37.176607989999994 66.94038000000002,37.25570799 C 67.03706000000003,37.29960799 67.13374300000002,37.29090799 67.23042500000003,37.27330799 C 67.26558500000003,37.59850799 67.51168000000003,37.80944799 67.71383300000002,38.02917799 C 67.86325000000002,38.30164799 67.66988300000003,38.591687990000004 67.66109300000002,38.87294799 C 67.70504300000002,39.09267799 67.80172100000003,39.29482799 67.85445700000002,39.52334799 C 67.83687700000003,39.75186799 67.74019700000002,39.98039799 67.72261800000003,40.21769799 C 67.81050800000003,40.314397989999996 67.89840300000003,40.402277989999995 67.97750600000002,40.49895799 C 68.03903600000002,40.65716799 67.98630600000001,40.83294799 67.94234600000001,40.98236799 C 67.98629600000001,41.00876799 68.07418500000001,41.07026799 68.12692000000001,41.09662799 C 68.00387100000002,41.22846799 67.92476800000001,41.38666799 67.836875,41.54487799 C 67.968714,41.922817990000006 68.36423,42.09859799 68.62790700000001,42.38864799 C 68.87400600000001,42.617167990000006 69.225576,42.62595799 69.55077800000001,42.617167990000006 C 69.76171900000001,42.599567990000004 69.76171900000001,42.863267990000004 69.84961200000001,43.00388799 C 69.91114200000001,43.232407990000006 70.15723500000001,43.32030799 70.350599,43.39940799 C 70.368179,43.48730799 70.394549,43.57519799 70.42090900000001,43.66308799 C 70.623061,43.87402799 70.78126800000001,44.14649799 71.053734,44.27832799 C 70.88673800000001,44.49806799 70.68458600000001,44.85841799 70.921895,45.09572799 C 71.000995,45.19242799 71.088891,45.27151799 71.185573,45.35061799 C 71.22073300000001,45.587927990000004 71.25588300000001,45.84281799 71.387725,46.04496799 C 71.51077500000001,46.15043799 71.668981,46.185597990000005 71.818398,46.22954799 C 71.827198,46.43169799 71.774448,46.66021799 71.91507800000001,46.81842799 C 72.01175800000001,46.94147799 72.06449500000001,47.090887990000006 72.10844100000001,47.23151799 C 71.85355300000002,47.44245799 71.61624400000001,47.71492799 71.53714000000001,48.04012799 C 71.58988000000001,48.42685799 72.187544,48.567487990000004 72.08207300000001,48.99815799 C 72.00297300000001,49.376097990000005 72.15238300000001,49.74523799 72.13481300000001,50.12317799 C 72.486383,50.175877990000004 72.67974600000001,50.50990799 73.00494800000001,50.60658799 C 73.27741400000001,50.69448799 73.47077800000001,50.46595799 73.69929800000001,50.36927799 C 74.05086800000001,50.71205799 74.49033000000001,50.931787990000004 74.797953,51.32730799 C 75.18468,51.45914799 75.58898500000001,51.57340799 75.99329,51.652507990000004 C 76.03724,51.92497799 76.02845,52.223807990000005 75.817505,52.434747990000005 C 75.545039,52.707217990000004 75.246205,53.102727990000005 74.806743,53.014837990000004 C 74.77158299999999,52.95333799 74.71006299999999,52.83905799 74.674904,52.77752799 C 74.53427599999999,52.839027990000005 74.36728,52.86542799 74.26181,52.988467990000004 C 74.13875999999999,53.102727990000005 74.19149999999999,53.29609799000001 74.156339,53.44550799 C 74.340913,53.480707990000006 74.507908,53.559767990000005 74.692482,53.56855799 C 74.472751,53.92891799 74.10360299999999,54.16622799 73.866294,54.50900799 C 73.611406,54.28048799 73.277414,54.14864799 72.925845,54.16622799 C 73.057683,54.46506799 72.85553499999999,54.693587990000005 72.73248099999999,54.94847799 C 72.91705499999999,55.00997799 73.242257,54.91327799 73.29499299999999,55.150627990000004 C 73.15436499999998,55.37035799 72.99615899999999,55.58129799 72.87310899999999,55.809817990000006 C 72.69732399999998,56.18775799000001 72.18754799999998,56.27564799 72.05570999999999,56.697527990000005 C 71.686562,56.741427990000005 71.34378099999999,56.58326799 70.974633,56.565697990000004 C 70.974633,56.723897990000005 70.930683,56.94362799 71.115261,57.03152799 C 71.35257,57.233677990000004 71.651405,57.11062799 71.915082,57.08422799 C 71.827192,57.55005799 72.029342,58.033467990000005 71.84477199999999,58.48171799 C 71.68656599999998,58.82449799 71.63382999999999,59.23759799 71.326207,59.49247799 C 71.22952699999999,59.36942799 71.01858299999999,59.23759799 70.877955,59.36942799 C 70.667013,59.54521799 70.376968,59.554007989999995 70.104502,59.53642799 C 70.12208199999999,59.65947799 70.12208199999999,59.77373799 70.095702,59.89678799 C 70.42090400000001,59.94948799 70.772473,59.98468799 71.053729,59.78252799 C 71.132829,59.87922799 71.220725,59.96709799 71.28224900000001,60.072567989999996 C 71.071308,60.512037989999996 70.85157600000001,60.942707989999995 70.570321,61.347007989999994 C 70.3418,61.62826799 70.18359400000001,61.95346798999999 70.016598,62.278667989999995 C 69.849603,62.542347989999996 69.875971,62.876337989999996 69.849603,63.175177989999995 C 69.823233,63.359747989999995 70.060545,63.37732799 70.183594,63.44763799 C 70.148434,63.693737989999995 69.919917,63.86073799 69.919917,64.11562799 C 69.911117,64.52871798999999 69.752921,64.91544798999999 69.700186,65.31974799 C 69.155253,65.29334799 68.821261,65.84710799 68.689423,66.31293799 C 68.601533,66.53266799 68.364221,66.55902798999999 68.162068,66.58539798999999 C 68.091758,66.97212798999999 68.214808,67.36763798999999 68.100548,67.74557798999999 C 68.047808,67.99167798999999 67.986287,68.22898799 67.933552,68.47508798999999 C 67.775346,68.49268799 67.61713900000001,68.48408798999999 67.458933,68.48408798999999 C 67.318305,68.76533798999999 66.92278900000001,68.87959799 66.870054,69.18722799 C 67.160099,69.24872798999999 67.450144,69.31027799 67.696242,69.47726799 C 67.748982,69.31027799 67.942341,69.23116799 67.977498,69.06417799 C 68.206019,69.29269799000001 68.126915,69.63547799 68.135705,69.91673799 C 68.135705,70.36498799 67.933552,70.76049799 67.84566,71.18238799 C 67.78412999999999,71.56910798999999 67.44135399999999,71.83278799 67.397408,72.22830798999999 C 67.247991,72.66776798999999 67.362248,73.12480799 67.538036,73.53789798999999 C 67.30072700000001,73.54689798999999 67.107363,73.42363798999999 66.931578,73.28300798999999 C 66.623955,73.27400798999999 66.342699,73.38848798999999 66.043865,73.42363798999999 C 65.73624099999999,73.39723799 65.446196,73.22148798999999 65.129784,73.30058798999998 C 64.989156,73.19511798999999 64.82216,73.17753798999998 64.655165,73.20388798999998 C 64.602425,73.08962798999998 64.523326,72.97536798999998 64.373909,72.98415798999999 C 64.08386399999999,72.94025798999999 63.78503,72.99315798999999 63.503774,72.91385798999998 C 63.266464,72.72927798999999 63.073101,72.42165798999999 62.73911,72.51833798999998 C 62.624849999999995,72.37770798999998 62.510588999999996,72.15797798999998 62.299648,72.21950798999998 C 61.851396,72.30740798999999 61.324042,72.19310798999999 61.121888999999996,71.73609798999998 C 60.796687,71.86793798999997 60.506642,71.60425798999998 60.181439999999995,71.67459798999998 C 60.16385999999999,71.95585798999998 60.13748999999999,72.26347798999998 59.900183999999996,72.45684798999999 C 59.794712999999994,72.26347798999998 59.566193,72.21953798999999 59.37282999999999,72.17558798999998 C 59.42555999999999,72.38652798999998 59.42555999999999,72.60625798999999 59.40798999999999,72.82598798999999 C 59.30251899999999,72.84358798999999 59.19704799999999,72.86988798999998 59.091576999999994,72.89628798999999 C 59.065206999999994,73.07206799 59.056416999999996,73.25664798999999 59.08277699999999,73.43242799 C 59.13551699999999,73.74005799 58.85425699999999,73.99493799 58.924569999999996,74.30256799 C 59.056408999999995,74.73323799 59.293718999999996,75.12875799 59.478292999999994,75.53305799 C 59.61892099999999,75.91978799 59.381612999999994,76.29772799 59.41677299999999,76.68444799000001 C 59.52224399999999,77.41395799000001 59.02125699999999,78.06435799 59.10914999999999,78.79386799000001 C 59.17945999999999,79.02238799000001 59.02125999999999,79.21574799000001 58.82789399999999,79.32121799000001 C 58.502691999999996,79.42669799000001 58.203858,79.18059799000001 57.88744499999999,79.18938799000001 C 57.58861099999999,79.17178799000001 57.307354999999994,79.10148799000001 57.017309999999995,79.04875799000001 C 56.79757899999999,78.96085799000001 56.753632999999994,78.70597799000001 56.67452899999999,78.51260799 C 56.472376999999994,78.06435799 56.82394699999999,77.58094799000001 56.67452899999999,77.12390799 C 56.61300899999999,76.99207799000001 56.489954999999995,76.92175799 56.37569499999999,76.86023799 C 56.25264599999999,76.52624799 56.11201799999999,76.13072799 56.393274999999996,75.83189799 C 55.742870999999994,75.82289799 55.092467,75.77919799 54.450852,75.70884799 C 52.754528,75.63854798999999 51.058203999999996,75.43637799 49.353091,75.39242799 C 48.825737,75.33972799 48.298382,75.27816799 47.762239,75.24301799 C 46.329592,75.19031799 44.896946,75.06722798999999 43.455510000000004,74.97054799 C 42.972101,74.97954799 42.497482000000005,74.90024799 42.014074,74.86507799 C 40.414432,74.82117799000001 38.823579,74.63655799 37.223937,74.56623799 C 36.635058,74.50473799000001 36.046178,74.55723799 35.466088,74.46953799 C 32.917208,74.31133799000001 30.368327999999998,74.18828799 27.819447,74.03007799000001 C 26.588953,74.01247799000001 25.35846,73.87186799000001 24.127966,73.88944799000001 C 23.169938000000002,73.81034799000001 22.203121,73.74881799 21.245094,73.72245799000001 C 20.401327000000002,73.62575799000001 19.557560000000002,73.70485799000001 18.713792,73.57303799 C 18.538007,73.29177799 18.327066000000002,73.01052799 18.028231,72.86110799000001 C 17.720608000000002,72.34254799000001 17.69424,71.71850799 17.676662,71.12962799 C 17.685462,70.61984799 17.263567000000002,70.29464799 17.035047,69.88155799 C 16.938367,69.71455799 17.105356999999998,69.42451799 16.88563,69.35419799 C 16.824109999999997,69.33659799 16.718633999999998,69.30149799 16.665899,69.28389799 C 16.736209,68.76532799 16.674699,68.22918799 16.428589,67.77214799 C 16.305539999999997,67.56120799 16.314328999999997,67.31510798999999 16.217647,67.09537798999999 C 16.06823,66.90200798999999 15.866078,66.73501798999999 15.786973999999999,66.48891798999999 C 15.734233999999999,66.27797799 15.496929,66.23402798999999 15.356302,66.10218798999999 C 15.303562,65.98792798999999 15.277201999999999,65.87366798999999 15.242040999999999,65.75940798999999 C 15.154150999999999,65.48694798999999 15.435405,65.21447798999999 15.285991,64.95958798999999 C 15.154152,64.71348798999999 15.06626,64.44102799 15.101417,64.15976798999999 C 15.189307,64.13336799 15.285991,64.10706798999999 15.382672,64.08066799 C 15.417831999999999,63.904877989999996 15.461772,63.73788799 15.488142999999999,63.56209799 C 15.505723,63.307207989999995 15.417833,63.06111799 15.409042999999999,62.79743799 C 15.567248999999999,62.40191799 15.584827999999998,61.97124799 15.725456,61.56693799 C 15.725456,61.364787989999996 15.637566,61.16263799 15.672716,60.96048799 C 15.839711999999999,60.59133799 16.077021,60.23976799 16.050653999999998,59.82666799 C 16.006704,59.65967799 15.927603999999999,59.51025799 15.874868999999999,59.35205799 C 15.830918999999998,59.097167989999996 15.874868999999999,58.82469799 15.804559,58.56980799 C 15.716669,58.42039799 15.567248999999999,58.29734799 15.514514,58.130347990000004 C 15.417834000000001,57.743617990000004 15.031106,57.523887990000006 14.881689,57.163527990000006 C 14.855319,56.94379799000001 15.004738,56.73285799000001 14.934429,56.521917990000006 C 14.864119,56.284607990000005 14.890479,56.020927990000004 14.723487,55.83635799 C 14.785017,55.537517990000005 14.837747,55.229897990000005 14.732287000000001,54.93985799 C 14.609238000000001,54.61464799 14.846548000000002,54.29823799 14.767447,53.97303799 C 14.855337,53.95543799 14.952021,53.929037990000005 15.048703000000001,53.91153799 C 15.057503000000002,53.64786799 15.242066000000001,53.45449799 15.400273000000002,53.26992799 C 15.505744000000002,53.14687799 15.461793000000002,52.96230799 15.461793000000002,52.81288799 C 15.505743000000002,52.79528799 15.602420000000002,52.75138799 15.655156000000002,52.73378799 C 15.628786000000002,52.434947990000005 15.751836,52.16248799 15.857308000000002,51.890017990000004 C 15.874888000000002,51.63512799 15.822148000000002,51.37144799000001 15.866108000000002,51.10777799 C 15.883688000000003,50.87046799 15.980368000000002,50.62436799 15.883688000000003,50.39584799 C 15.857318000000003,50.21126799 15.672746000000004,49.94759799 15.883688000000003,49.81575799 C 16.112208000000003,49.683917990000005 16.200101000000004,49.42902799 16.367097,49.24445799 C 16.569249000000003,49.086247990000004 16.824137,49.02472799 17.061447,48.94561799 C 17.105397,48.82256799 17.140547,48.699517990000004 17.228442,48.59404799 C 17.36907,48.48857799 17.571223,48.48857799 17.703061,48.38310799 C 17.870057000000003,48.17216799 17.966739,47.92606799 18.168891000000002,47.75906799 C 17.843689,47.530547989999995 17.650326000000003,47.11745799 17.246021000000002,47.00319799 C 17.017500000000002,46.91529799 16.771402000000002,46.85377799 16.569249000000003,46.713147989999996 C 16.402253,46.51099798999999 16.630769000000004,46.33521799 16.736245000000004,46.18579799 C 16.964765000000003,45.904537989999994 16.947187000000003,45.526607989999995 16.955976000000003,45.192617989999995 C 17.140550000000005,45.09591799 17.149339000000005,44.92014799 17.070236000000005,44.74435799 C 16.938397000000005,44.70045799 16.797769000000006,44.65645799 16.692298000000005,44.568577989999994 C 16.604408000000003,44.24337798999999 16.692298000000005,43.88301798999999 16.569249000000003,43.55781799 C 16.367097,43.03924799 15.945213000000003,42.66130799 15.567275000000002,42.27458798999999 C 15.391491000000002,41.95816798999999 15.400280000000002,41.571447989999996 15.198127000000003,41.25503798999999 C 15.215707000000004,41.14077798999999 15.259647000000003,41.03529798999999 15.294807000000002,40.92103798999999 C 14.969605000000001,40.71009798999999 14.846556000000001,40.32337798999999 14.881713000000003,39.94543798999999 C 14.925663000000004,39.743287989999985 14.749874000000004,39.62902798999999 14.661981000000003,39.47960798999999 C 14.644401000000002,39.321397989999994 14.661981000000003,39.16319798999999 14.688351000000003,39.00498798999999 C 14.494988000000003,38.84677798999999 14.266468000000003,38.68857798999999 14.196154000000003,38.43368798999999 C 14.204954000000004,38.24910798999999 14.231314000000003,38.055747989999986 14.284044000000003,37.871177989999985 C 14.152205000000004,37.79207798999999 13.985210000000004,37.721757989999986 13.967631000000003,37.554757989999985 C 13.844582000000003,36.842837989999985 13.721533000000003,36.13090798999998 13.572115000000002,35.427767989999985 C 13.405120000000002,34.232427989999984 13.123864000000001,33.06345798999998 12.983236000000002,31.868117989999984 C 12.807451000000002,31.173767989999984 12.789873000000002,30.453057989999984 12.622877,29.749917989999986 C 12.403146000000001,27.974487989999986 12.00763,26.216637989999985 11.761532,24.441207989999988 C 11.585747000000001,23.83475798999999 11.585747000000001,23.19313798999999 11.436330000000002,22.57789798999999 C 11.383590000000002,22.20874798999999 11.295702000000002,21.84838798999999 11.251755000000001,21.47923798999999 C 11.155075000000002,20.72336798999999 10.970500000000001,19.99385798999999 10.908975000000002,19.23797798999999 C 10.495881000000002,17.46255798999999 10.364042000000001,15.63438798999999 9.9773153,13.85896798999999 C 9.907001300000001,13.059147989999989 9.6696918,12.29447798999999 9.581799400000001,11.503447989999989 C 9.344489900000001,10.43994798999999 9.186283500000002,9.358867489999989 8.940184700000001,8.29537748999999 C 8.571036500000002,5.948647489999989 8.078839000000002,3.6282874899999893 7.780004700000001,1.272767489999989 C 8.8874493,1.290367489999989 10.003683,1.290367489999989 11.119917000000001,1.290367489999989 C 11.910949,1.3079674899999891 12.70198,1.2288674899999892 13.493012,1.246467489999989 C 14.020367,1.264067489999989 14.547721,1.2374674899999891 15.066287,1.2112674899999891 C 17.184494,1.2112674899999891 19.293912,1.2022674899999892 21.40333,1.2022674899999892 C 21.7549,1.2022674899999892 22.097681,1.1143674899999891 22.440461,1.1495674899999893 C 23.26665,1.2462674899999893 24.092838999999998,1.1759674899999892 24.919027,1.2022674899999892 C 25.595799,1.2286674899999892 26.263782,1.0967974899999893 26.940553,1.1932674899999893 C 29.928896,1.2022674899999892 32.917238,1.2108674899999894 35.90558,1.1756674899999893 C 36.169258,1.1492674899999893 36.424146,1.0438274899999893 36.696612,1.0526174899999892 C 37.927106,1.0790174899999891 39.1576,1.0262174899999892 40.388094,1.0262174899999892 L 40.388091,1.0264275" fill="#000000" stroke="#000000" stroke-width="0.00823991"/>
	<path d="M 569.4,75.1 C 572.3,73.6 569.4,78.39999999999999 569.4,75.1" fill="#000000" stroke="#000000" stroke-width="0.09375"/>
</svg>
