<?xml version="1.0" ?>
<svg xmlns="http://www.w3.org/2000/svg" xmlns:ev="http://www.w3.org/2001/xml-events" xmlns:graph="http://ns.adobe.com/Graphs/1.0/" xmlns:i="http://ns.adobe.com/AdobeIllustrator/10.0/" xmlns:x="http://ns.adobe.com/Extensibility/1.0/" xmlns:xlink="http://www.w3.org/1999/xlink" baseProfile="full" enable-background="new 0 0 100 100" height="443px" version="1.1" viewBox="0 0 100 100" width="600px" x="0px" xml:space="preserve" y="0px">
	<defs/>
	<path d="M 74.05,67.585 C 72.747,68.88799999999999 70.637,68.89 69.334,67.585 L 64.277,62.52799999999999 C 62.974000000000004,61.22899999999999 62.974000000000004,59.11399999999999 64.277,57.81499999999999 L 64.277,57.81499999999999 C 65.58,56.51199999999999 67.68900000000001,56.51199999999999 68.992,57.81299999999999 L 74.049,62.86999999999999 C 75.352,64.173 75.352,66.284 74.05,67.585 L 74.05,67.585"/>
	<path d="M 68.166,73.47 C 66.863,74.773 64.608,74.628 63.129,73.148 L 55.985,66.002 C 54.505,64.523 54.359,62.267999999999994 55.663,60.965999999999994 L 55.663,60.965999999999994 C 56.964,59.663999999999994 59.221,59.809 60.69799999999999,61.288999999999994 L 67.845,68.42999999999999 C 69.326,69.91 69.469,72.167 68.166,73.47 L 68.166,73.47"/>
	<path d="M 62.283,79.353 C 60.982,80.65599999999999 58.725,80.511 57.245000000000005,79.03099999999999 L 51.132000000000005,72.91499999999999 C 49.65200000000001,71.43499999999999 49.508,69.17999999999999 50.81,67.877 L 50.81,67.877 C 52.111000000000004,66.576 54.366,66.72 55.847,68.198 L 61.963,74.31299999999999 C 63.44,75.793 63.584,78.05 62.283,79.353 L 62.283,79.353"/>
	<path d="M 49.395,74.067 L 49.228,74.23599999999999 C 49.311,74.216 49.392,74.18599999999999 49.476,74.172 C 49.445,74.14 49.423,74.102 49.395,74.067"/>
	<path d="M 56.402,85.233 C 55.099000000000004,86.536 52.844,86.391 51.363,84.911 L 48.546,82.094 C 47.066,80.61399999999999 46.923,78.359 48.224,77.056 L 48.224,77.056 C 49.528999999999996,75.753 51.782,75.89699999999999 53.262,77.377 L 56.079,80.19399999999999 C 57.561,81.676 57.706,83.929 56.402,85.233 L 56.402,85.233"/>
	<path d="M 63.066,28.185 L 52.961,28.189 C 52.839,28.189 52.724,28.21 52.604,28.22 L 39.427,28.22 C 37.706,28.22 35.309,29.223 34.101,30.45 L 18.311,46.485 C 17.103,47.711 17.111,49.71 18.326999999999998,50.927 L 25.633,58.232 C 26.849,59.449 28.841,59.449 30.057,58.232 L 51.564,36.724999999999994 C 52.351,35.937 53.636,35.24699999999999 54.912,34.85399999999999 L 63.066,34.855999999999995 C 65.159,34.85699999999999 66.855,33.364 66.855,31.521999999999995 C 66.855,29.68 65.159,28.185 63.066,28.185"/>
	<path d="M 34.254,23.347 L 28.38,14.427000000000001 C 27.162,13.209000000000001 25.171,13.209000000000001 23.951999999999998,14.427000000000001 L 2.949,35.024 C 1.7309999999999999,36.241 1.7309999999999999,38.232 2.949,39.449 L 12.276,45.324 C 13.494,46.541 15.485,46.541 16.703,45.324 L 34.254,27.773 C 35.473,26.556 35.473,24.564 34.254,23.347 M 10.769,40.953 C 9.669,40.953 8.776,40.061 8.776,38.96 C 8.776,37.859 9.669,36.967 10.769,36.967 C 11.869,36.967 12.762,37.859 12.762,38.96 C 12.762,40.061 11.868,40.953 10.769,40.953"/>
	<path d="M 67.157,28.693 L 84.709,46.244 C 85.927,47.461 87.918,47.461 89.137,46.244 L 98.464,40.369 C 99.682,39.150999999999996 99.682,37.161 98.464,35.943 L 77.459,15.347 C 76.24000000000001,14.129999999999999 74.25,14.129999999999999 73.031,15.347 L 67.15700000000001,24.267 C 65.939,25.484 65.939,27.476 67.157,28.693 M 88.651,39.88 C 88.651,38.779 89.544,37.887 90.643,37.887 C 91.742,37.887 92.636,38.779 92.636,39.88 C 92.636,40.981 91.74199999999999,41.873000000000005 90.643,41.873000000000005 C 89.54400000000001,41.873000000000005 88.651,40.98 88.651,39.88"/>
	<path d="M 83.049,46.532 L 68.852,32.336 C 68.65700000000001,33.513999999999996 68.066,34.619 67.125,35.446 C 66.029,36.411 64.588,36.943 63.068,36.943 L 55.245,36.940999999999995 C 54.349,37.254999999999995 53.506,37.733999999999995 53.04,38.199999999999996 L 31.532,59.708 C 30.738,60.501999999999995 29.724,60.989999999999995 28.63,61.156 L 28.307,61.475 C 27.003999999999998,62.778 27.003999999999998,64.887 28.307,66.19 C 29.607999999999997,67.493 31.721,67.495 33.022,66.19 L 45.4,53.843 C 45.568999999999996,53.67400000000001 45.803,53.568000000000005 46.062,53.568000000000005 C 46.580999999999996,53.568000000000005 47.0,53.987 47.0,54.505 C 47.0,54.764 46.896,54.999 46.725,55.17 L 46.732,55.177 L 32.122,69.789 C 30.642,71.269 30.498,73.522 31.8,74.827 C 33.101,76.128 35.358000000000004,75.984 36.837,74.504 L 51.464000000000006,59.910000000000004 C 51.635000000000005,59.739000000000004 51.86800000000001,59.633 52.127,59.633 C 52.647000000000006,59.633 53.065000000000005,60.054 53.065000000000005,60.571000000000005 C 53.065000000000005,60.830000000000005 52.959,61.065000000000005 52.788000000000004,61.23500000000001 L 52.792,61.23700000000001 L 38.479,75.55 C 37.0,77.03 36.857,79.285 38.158,80.588 C 39.461,81.89099999999999 41.716,81.747 43.196,80.267 L 45.421,78.042 C 45.633,77.131 46.059,76.274 46.751,75.581 C 47.431999999999995,74.901 48.291,74.452 49.229,74.236 L 49.396,74.06700000000001 C 48.492,73.04400000000001 47.932,71.786 47.847,70.462 C 47.748000000000005,68.925 48.292,67.444 49.336,66.4 C 50.292,65.44600000000001 51.586,64.918 52.982,64.905 C 52.808,64.346 52.688,63.771 52.688,63.189 C 52.688,61.77 53.221000000000004,60.457 54.192,59.488 C 55.157000000000004,58.522999999999996 56.47,57.99 57.889,57.99 C 59.098000000000006,57.99 60.300000000000004,58.392 61.32,59.107 C 61.526,58.065 62.037,57.105 62.805,56.338 C 63.827,55.316 65.188,54.751 66.636,54.751 C 68.08399999999999,54.751 69.445,55.315 70.469,56.339999999999996 L 74.634,60.504 L 83.05,51.929 C 84.533,50.446 84.533,48.017 83.049,46.532"/>
</svg>
