<?xml version="1.0" ?>
<svg xmlns="http://www.w3.org/2000/svg" xmlns:cc="http://creativecommons.org/ns#" xmlns:dc="http://purl.org/dc/elements/1.1/" xmlns:ev="http://www.w3.org/2001/xml-events" xmlns:inkscape="http://www.inkscape.org/namespaces/inkscape" xmlns:rdf="http://www.w3.org/1999/02/22-rdf-syntax-ns#" xmlns:sodipodi="http://sodipodi.sourceforge.net/DTD/sodipodi-0.dtd" xmlns:svg="http://www.w3.org/2000/svg" xmlns:xlink="http://www.w3.org/1999/xlink" baseProfile="full" height="600px" version="1.1" viewBox="0 0 56.666641 100" width="341px" x="0px" y="0px">
	<defs/>
	<path d="M 29.344265,950.3542 L 29.344265,954.68755 L 9.0109395,967.02086 L 2.6776096999999996,967.02086 L 2.6776096999999996,970.35426 L 11.01094,970.35426 L 11.01094,1030.3543 C 11.01094,1037.0211 21.010935,1037.0211 21.010935,1030.3543 L 21.010935,1007.0208 C 21.010935,1003.6874 26.010933,1003.6874 26.010933,1007.0208 L 26.010933,1030.3543 C 26.010933,1032.9329 27.509445000000003,1034.4995 29.344265,1035.0834 L 29.344265,1050.3542 L 32.677596,1050.3542 L 32.677596,1035.0834 C 34.512415000000004,1034.4995 36.010928,1032.9329 36.010928,1030.3543 L 36.010928,1007.0208 C 36.010928,1003.6874 41.010926,1003.6874 41.010926,1007.0208 L 41.010926,1030.3543 C 41.010926,1037.0211 51.010920999999996,1037.0211 51.010920999999996,1030.3543 L 51.010920999999996,970.35426 L 59.344251,970.35426 L 59.344251,967.02086 L 53.01092,967.02086 L 32.677595999999994,954.68755 L 32.677595999999994,950.3542 L 29.344264999999993,950.3542 L 29.344265,950.3542 M 29.344265,958.02092 L 29.344265,967.0208600000001 L 14.34427,967.0208600000001 L 29.344265,958.02092 M 32.677596,958.02092 L 47.677588,967.0208600000001 L 32.677596,967.0208600000001 L 32.677596,958.02092" fill="#000000" fill-opacity="1" stroke="none"/>
</svg>
