<?xml version="1.0" ?>
<svg xmlns="http://www.w3.org/2000/svg" xmlns:cc="http://creativecommons.org/ns#" xmlns:dc="http://purl.org/dc/elements/1.1/" xmlns:ev="http://www.w3.org/2001/xml-events" xmlns:inkscape="http://www.inkscape.org/namespaces/inkscape" xmlns:rdf="http://www.w3.org/1999/02/22-rdf-syntax-ns#" xmlns:sodipodi="http://sodipodi.sourceforge.net/DTD/sodipodi-0.dtd" xmlns:svg="http://www.w3.org/2000/svg" xmlns:xlink="http://www.w3.org/1999/xlink" baseProfile="full" height="600px" version="1.1" viewBox="0 0 80 80" width="600px" x="0px" y="0px">
	<defs/>
	<path d="M 37.675298,0.77628751 C 42.654568,0.55605755 47.681718,1.1401575 52.431177999999996,2.6626676 C 54.595248,3.3616775999999997 56.701857999999994,4.2617776 58.66484799999999,5.4108376 C 59.97668799999999,6.2056076 61.28853799999999,6.9908076 62.56207799999999,7.843027599999999 C 65.56879799999999,9.9113376 68.221218,12.477578 70.500188,15.321507999999998 C 72.798318,18.222887999999998 74.761298,21.401967999999997 76.245498,24.791697999999997 C 77.442438,27.453687999999996 78.409568,30.230597999999997 78.850048,33.122398 C 79.031978,34.175708 79.060708,35.248168 79.146888,36.311048 C 79.26178800000001,37.239878 79.26178800000001,38.168698 79.319248,39.097528 C 79.395848,40.409378 79.156458,41.711648 79.137308,43.023488 C 79.166008,43.377788 79.213908,43.732078 79.166008,44.086378 C 78.534018,50.013618 76.43697800000001,55.749358 73.324938,60.824388 C 71.754548,63.304448 69.925628,65.621718 67.866888,67.709188 C 66.124148,69.490228 64.209038,71.127648 62.121578,72.487368 C 60.771428,73.349168 59.402128,74.153508 57.946647999999996,74.82379800000001 C 56.883767999999996,75.28341800000001 55.878338,75.85795800000001 54.796307999999996,76.279278 C 53.522757999999996,76.81550800000001 52.19175799999999,77.217678 50.870338,77.619848 C 49.28080799999999,78.089048 47.643387999999995,78.376318 46.025127999999995,78.70188800000001 C 45.47931799999999,78.82636800000002 44.914367999999996,78.87424800000001 44.358988,78.95084800000001 C 43.372707999999996,79.10405800000001 42.367278,79.065758 41.361847999999995,79.10405800000001 C 40.433018,79.11405800000001 39.51376799999999,79.13275800000001 38.584948,79.11405800000001 C 37.024137999999994,79.02785800000001 35.463328,78.86509800000002 33.93123799999999,78.53952800000002 C 29.842497999999992,77.94584800000001 25.839927999999993,76.70102800000002 22.210807999999993,74.70931800000002 C 20.448907999999992,73.78049800000002 18.763617999999994,72.70803800000003 17.135777999999995,71.55897800000002 C 14.224817999999996,69.57683800000002 11.696877999999995,67.10635800000003 9.446638499999995,64.41563800000003 C 8.374178499999996,63.06548800000003 7.330448799999996,61.69618800000003 6.449498799999995,60.22155800000003 C 5.769638799999996,59.15867800000003 5.310008799999995,57.98088800000003 4.735478799999996,56.86054800000003 C 3.8928287999999958,55.17525800000003 3.2129687999999956,53.40378800000003 2.6192887999999956,51.61316800000003 C 0.8861187999999955,46.30832800000003 0.42648879999999556,40.60131800000003 1.1542287999999956,35.06665800000003 C 1.3553187999999956,33.41009800000003 1.5659787999999957,31.74395800000003 2.044758799999996,30.135268000000032 C 2.686318799999996,27.683938000000033 3.519388799999996,25.270908000000034 4.697178799999996,23.011078000000033 C 5.233408799999996,21.862018000000035 5.798358799999996,20.722528000000032 6.506948799999996,19.659648000000033 C 7.043178799999996,18.74039800000003 7.608138799999996,17.849878000000032 8.259268499999996,16.997658000000033 C 9.044458499999996,15.858168000000033 9.906258499999996,14.766558000000034 10.815937999999996,13.722828000000034 C 11.447917999999996,13.042968000000034 12.118207999999996,12.410978000000034 12.769337999999996,11.750268000000034 C 15.057887999999995,9.413837600000035 17.700737999999994,7.422127600000034 20.592537999999998,5.890047600000034 C 21.119197999999997,5.621937600000034 21.626697999999998,5.325087600000034 22.153347999999998,5.047397600000034 C 26.826207999999998,2.251347500000034 32.284248,1.0544075000000337 37.675267999999996,0.7767175100000339 M 38.728578,4.970797600000034 C 37.589088,5.076127600000034 36.430458,5.1335776000000335 35.290968,5.248487600000034 C 33.040718,5.602787600000034 30.800048,6.071987600000034 28.664707999999997,6.857177600000034 C 27.237947999999996,7.326377600000034 25.868657999999996,7.929637600000033 24.508927999999997,8.552047600000034 C 24.125908,8.743557600000033 23.733307999999997,8.925487600000034 23.407747999999998,9.203177600000034 C 23.819488,9.672377600000035 24.068458,10.256488000000033 24.384448,10.783138000000033 C 25.351578,12.573758000000034 26.232518,14.393108000000034 27.247528,16.155008000000034 C 29.813768,20.703378000000036 32.303408,25.299628000000034 34.927098,29.819278000000033 C 35.922948,31.52371800000003 36.842198,33.26646800000003 37.818908,34.98047800000003 C 37.885908,35.07627800000003 37.924238,35.191148000000034 38.029568,35.24859800000004 C 38.326408,35.19109800000004 38.594518,35.06665800000004 38.872208,34.97090800000004 C 38.920108,33.62075800000004 38.900908,32.261038000000035 38.939208,30.910888000000035 C 39.054118,25.309208000000034 39.159448,19.707528000000035 39.226478,14.105848000000034 C 39.322278,11.070408000000034 39.245678,8.025387600000034 39.427558,4.999527600000034 C 39.197748,4.980427600000034 38.967938,4.951627600000034 38.728547999999996,4.970827600000034 M 41.141577999999996,4.970827600000034 C 41.256488,6.004987600000034 41.170277999999996,7.039137600000034 41.170277999999996,8.073297600000034 C 41.074478,11.807748000000034 41.036218,15.542208000000034 40.959618,19.276658000000033 C 40.892618,24.476168000000033 40.729798,29.675678000000033 40.701077999999995,34.875178000000034 C 41.036218,34.93267800000003 41.371357999999994,35.00923800000003 41.716077999999996,35.066688000000035 C 44.387648,30.441718000000034 47.001768,25.778438000000037 49.874427999999995,21.268368000000034 C 50.803247999999996,19.765008000000034 51.70334799999999,18.242498000000033 52.622597999999996,16.739148000000036 C 53.675908,15.044278000000036 54.710068,13.339838000000036 55.763368,11.644968000000036 C 56.242148,10.917228000000035 56.615588,10.122458000000035 57.142248,9.423447600000035 C 54.403648000000004,7.719007600000035 51.301178,6.7135776000000345 48.179558,5.928377600000035 C 46.752808,5.621967600000035 45.316478000000004,5.401727600000035 43.870578,5.181487600000034 C 42.970478,5.057007600000034 42.060798000000005,4.942097600000034 41.141548,4.970827600000034 M 17.308078000000002,13.607948000000036 C 14.789718000000002,15.800748000000036 12.644798000000002,18.405288000000034 10.815878000000001,21.191758000000036 C 10.691388000000002,21.364118000000037 10.595638000000001,21.565208000000034 10.499878,21.756718000000035 C 17.269778000000002,25.902918000000035 24.030088,30.058698000000035 30.886167999999998,34.06125800000004 C 32.523578,34.999668000000035 34.170567999999996,35.90933800000004 35.807987999999995,36.83816800000004 C 36.05694799999999,36.65622800000004 36.25803799999999,36.43598800000004 36.459118,36.21575800000004 C 34.275898,32.17488800000004 31.987347999999997,28.191468000000036 29.746677999999996,24.188898000000037 C 27.898607999999996,20.789588000000037 25.916467999999995,17.457308000000037 24.097117999999995,14.038848000000037 C 23.388527999999994,12.746148000000037 22.622487999999993,11.472608000000037 21.913897999999996,10.170338000000037 C 20.286067999999997,11.185338000000037 18.744407999999996,12.343978000000035 17.308077999999995,13.607948000000036 M 58.626447999999996,10.352268000000036 C 58.415788,10.917228000000035 58.042348,11.386428000000036 57.726347999999994,11.903508000000036 C 55.57185799999999,15.245368000000036 53.47481799999999,18.635098000000035 51.38735799999999,22.034408000000035 C 49.405227999999994,25.213478000000034 47.490117999999995,28.430858000000036 45.63246799999999,31.686538000000034 C 44.856847999999985,33.10370800000003 44.01420799999999,34.473008000000036 43.286467999999985,35.91891800000003 C 43.554577999999985,36.139148000000034 43.82269799999999,36.36896800000003 44.071657999999985,36.617928000000035 C 44.36849799999999,36.493448000000036 44.64618799999999,36.32108800000003 44.92387799999999,36.148728000000034 C 48.15082799999999,34.30064800000003 51.36820799999999,32.44299800000003 54.62388799999999,30.623648000000035 C 58.34875799999999,28.555338000000035 62.131087999999984,26.582778000000033 65.87511799999999,24.543198000000036 C 67.31144799999998,23.786728000000036 68.71904799999999,22.963238000000036 70.18410799999998,22.235498000000035 C 68.51796799999998,19.496898000000037 66.58370799999999,16.892348000000034 64.19940799999998,14.728288000000035 C 62.93543799999998,13.588798000000034 61.661887999999976,12.458888000000034 60.27343799999998,11.472608000000035 C 59.72763799999998,11.089588000000035 59.21055799999998,10.658688000000035 58.626447999999975,10.352268000000034 M 9.5806285,23.298378 C 9.369968499999999,23.671818 9.1784585,24.064418 8.9965285,24.447438 C 8.3549685,25.845467999999997 7.7038285,27.243488 7.2058988,28.708548 C 6.5164688,30.652378 5.9515088,32.653658 5.6355188,34.693248 C 5.4440088,35.928487999999994 5.2333488,37.173308 5.3195288,38.427698 C 6.4877388,38.427698 7.646378799999999,38.523498 8.8145885,38.571338 C 11.074407999999998,38.695817999999996 13.343808,38.734117999999995 15.613208,38.781997999999994 C 19.050818,38.90647799999999 22.498008,38.98307799999999 25.945197999999998,39.069258 C 28.693368,39.145858 31.431967999999998,39.270348 34.180147999999996,39.346948 C 34.323778,39.327748 34.505717999999995,39.394847999999996 34.62061799999999,39.279948 C 34.74509799999999,39.002258 34.79297799999999,38.705417999999995 34.888738,38.418158 C 33.155567999999995,37.383998 31.384097999999994,36.416868 29.641347999999997,35.401868 C 22.919327999999997,31.428028 16.216468,27.406308 9.580628499999996,23.298408000000002 M 65.367618,26.908378000000003 C 61.958738,28.737298000000003 58.54026799999999,30.527928000000003 55.169687999999994,32.404728000000006 C 51.77995799999999,34.28152800000001 48.428518,36.23493800000001 45.05793799999999,38.15003800000001 C 45.12493799999999,38.46602800000001 45.239867999999994,38.76287800000001 45.31647799999999,39.07886800000001 C 46.19742799999999,39.11716800000001 47.08794799999999,39.098068000000005 47.96889799999999,39.10756800000001 C 50.39150799999999,39.165068000000005 52.82368799999999,39.05966800000001 55.246287999999986,39.06926800000001 C 57.61144799999999,39.04056800000001 59.967027999999985,39.088468000000006 62.332177999999985,39.09796800000001 C 64.88884799999998,39.11716800000001 67.44550799999999,39.20329800000001 69.99259799999999,39.37565800000001 C 71.68746799999998,39.45225800000001 73.37275799999999,39.65334800000001 75.05804799999999,39.787408000000006 C 75.06804799999999,37.613758000000004 75.00064799999998,35.430538000000006 74.53139799999998,33.295198000000006 C 74.12921799999998,31.466278000000006 73.61214799999998,29.646928000000006 72.95142799999998,27.885028000000005 C 72.39604799999998,26.496578000000007 71.78321799999998,25.117708000000007 71.05547799999998,23.796288000000004 C 69.16909799999998,24.859168000000004 67.25399799999998,25.855018000000005 65.36761799999998,26.908328000000004 M 39.48498799999998,39.22244800000001 C 38.92960799999998,39.385228000000005 38.89129799999998,40.13212800000001 39.12111799999998,40.56301800000001 C 39.408377999999985,41.15670800000001 40.27017799999998,41.30990800000001 40.77767799999998,40.90773800000001 C 41.045797999999984,40.69707800000001 41.09366799999998,40.31405800000001 41.02664799999998,39.99806800000001 C 40.89258799999998,39.34692800000001 40.07866799999998,38.983058000000014 39.48498799999998,39.222448000000014 M 5.424858799999981,40.160848000000016 C 5.376958799999981,44.22086800000002 6.162168799999981,48.271318000000015 7.617648799999982,52.05364800000002 C 8.192178499999981,53.489978000000015 8.785858499999982,54.92630800000002 9.561478499999982,56.26687800000002 C 13.181027999999982,54.20813800000002 16.82929799999998,52.21642800000002 20.448847999999984,50.16726800000002 C 23.321507999999984,48.58730800000002 26.175007999999984,46.97861800000002 29.018937999999984,45.33162800000002 C 30.953197999999986,44.24959800000002 32.91617799999999,43.205868000000024 34.869587999999986,42.14297800000002 C 34.79298799999999,41.81741800000002 34.706797999999985,41.49184800000002 34.60146799999998,41.16627800000002 C 30.321207999999984,40.97476800000002 26.021797999999983,40.85028800000002 21.73196799999998,40.76410800000002 C 19.17530799999998,40.72580800000002 16.628217999999983,40.601328000000024 14.07154799999998,40.553448000000024 C 11.18931799999998,40.467248000000026 8.307088499999981,40.34278800000003 5.4248587999999796,40.16084800000002 M 45.383507999999985,40.92688800000002 C 45.316507999999985,41.27160800000002 45.16326799999999,41.60675800000002 45.17284799999999,41.96104800000002 C 45.689917999999984,42.39194800000002 46.31232799999999,42.67920800000002 46.85813799999999,43.07180800000002 C 48.67748799999999,44.20171800000002 50.477687999999986,45.35077800000002 52.31618799999999,46.43281800000002 C 53.69505799999999,47.21800800000002 55.02605799999999,48.06065800000002 56.39535799999999,48.86499800000002 C 59.440367999999985,50.63646800000002 62.44708799999999,52.46539800000002 65.49209799999998,54.22728800000002 C 67.14866799999999,55.20399800000002 68.79565799999999,56.19027800000002 70.47136799999998,57.11909800000002 C 71.17995799999998,55.74979800000002 71.80236799999999,54.342198000000025 72.44392799999999,52.94416800000002 C 73.25784799999998,51.076948000000016 73.86110799999999,49.12353800000002 74.30157799999999,47.13182800000002 C 74.684598,45.28375800000002 75.01974799999999,43.41652800000002 74.95271799999999,41.52057800000002 C 72.941858,41.52057800000002 70.95014799999998,41.25245800000002 68.93928799999999,41.16627800000002 C 66.67946799999999,40.98434800000002 64.410068,40.96519800000002 62.14066799999999,40.93646800000002 C 59.047777999999994,40.93646800000002 55.94530799999999,40.85986800000002 52.85240799999999,40.90776800000002 C 50.36277799999999,40.965268000000016 47.87313799999999,40.90776800000002 45.38350799999999,40.92686800000002 M 43.75566799999999,44.01018800000002 C 43.65033799999999,44.12509800000002 43.75566799999999,44.28787800000002 43.80356799999999,44.40278800000002 C 45.23031799999999,46.85411800000002 46.63791799999999,49.30545800000002 48.016797999999994,51.785518000000025 C 48.897738,53.365478000000024 49.730807999999996,54.974158000000024 50.60218799999999,56.563698000000024 C 52.431107999999995,59.94385800000002 54.31748799999999,63.285718000000024 56.29961799999999,66.57969800000002 C 56.92202799999999,67.60427800000002 57.47740799999999,68.66715800000003 58.109397999999985,69.69173800000002 C 59.78510799999999,68.62885800000001 61.460827999999985,67.55639800000002 62.964187999999986,66.26369800000002 C 64.03663799999998,65.35402800000001 65.05164799999999,64.37732800000002 65.98046799999999,63.32401800000002 C 66.813538,62.376038000000015 67.74236799999998,61.51423800000002 68.48925799999999,60.480088000000016 C 68.958458,59.819378000000015 69.48511799999999,59.177818000000016 69.82982799999999,58.44049800000002 C 69.667048,58.48839800000002 69.48511799999999,58.67988800000002 69.31275799999999,58.54582800000002 C 68.76694799999999,58.23941800000002 68.23071799999998,57.91384800000002 67.69448799999999,57.57870800000002 C 64.70692799999999,55.77850800000002 61.70021799999999,54.00703800000002 58.73179799999999,52.17810800000002 C 57.170987999999994,51.16310800000002 55.51442799999999,50.30130800000002 53.94403799999999,49.29587800000002 C 52.191717999999995,48.25214800000002 50.420247999999994,47.227568000000026 48.67750799999999,46.14552800000002 C 47.23159799999999,45.23585800000002 45.77611799999999,44.33575800000002 44.32063799999999,43.42607800000002 C 44.11955799999999,43.598438000000016 43.91846799999999,43.78994800000002 43.755687999999985,44.01018800000002 M 28.951927999999985,47.46694800000002 C 25.830307999999985,49.27672800000002 22.670387999999985,51.019468000000025 19.520037999999985,52.78136800000002 C 19.347677999999984,52.86756800000002 19.204047999999986,53.01117800000002 19.127447999999987,53.19311800000002 C 18.868907999999987,53.17401800000002 18.619947999999987,53.26011800000002 18.409277999999986,53.39419800000002 C 16.101577999999986,54.69646800000002 13.784307999999985,55.97001800000002 11.476607999999986,57.27228800000002 C 11.160607999999986,57.473368000000015 10.720137999999986,57.56912800000002 10.490327999999986,57.86596800000002 C 10.902067999999986,58.57455800000002 11.371277999999986,59.24484800000002 11.802167999999986,59.93427800000001 C 13.535337999999985,62.40476800000001 15.651527999999985,64.58798800000001 17.920927999999986,66.56053800000001 C 19.098717999999984,67.527668 20.353107999999985,68.408618 21.645807999999985,69.193808 C 22.746997999999984,67.50851800000001 23.771577999999984,65.756198 24.853607999999983,64.051758 C 25.993097999999982,62.280288000000006 27.103857999999985,60.48008800000001 28.205037999999984,58.679888000000005 C 30.148867999999982,55.481668000000006 32.092697999999984,52.283438000000004 33.99822799999998,49.056488 C 34.907907999999985,47.543558000000004 35.731397999999984,45.982748 36.62192799999998,44.450668 C 36.363387999999986,44.192128 36.07611799999998,43.962308 35.80800799999998,43.703768000000004 C 33.49072799999998,44.891138000000005 31.20217799999998,46.155108000000006 28.95192799999998,47.466948 M 41.10326799999998,45.436938000000005 C 41.01706799999998,47.696768000000006 41.04576799999998,49.956588 40.98835799999998,52.216408 C 40.94045799999998,54.706048 40.959657999999976,57.195678 40.854307999999975,59.685318 C 40.806407999999976,61.954718 40.76810799999998,64.214538 40.74897799999997,66.483938 C 40.71067799999997,69.174658 40.768077999999974,71.86537799999999 40.738977999999975,74.556108 C 42.44341799999997,74.536908 44.128707999999975,74.297568 45.81400799999997,74.10605799999999 C 48.31321799999997,73.74218799999998 50.774127999999976,73.110198 53.148857999999976,72.23882799999998 C 54.326637999999974,71.78877799999998 55.475707999999976,71.29084799999998 56.576887999999975,70.66843799999998 C 55.41824799999998,68.71503799999998 54.26918799999998,66.75205799999998 53.12012799999997,64.78906799999999 C 51.15714799999997,61.361037999999986 49.270767999999975,57.894697999999984 47.40353799999997,54.409207999999985 C 45.72782799999997,51.25885799999998 43.88932799999997,48.194687999999985 42.11784799999997,45.10179799999999 C 41.77313799999997,45.187997999999986 41.43798799999997,45.312457999999985 41.102847999999966,45.43693799999999 M 31.80501799999997,56.171097999999986 C 29.91863799999997,59.33102799999999 27.965227999999968,62.45264799999999 25.99267799999997,65.56468799999999 C 25.03511799999997,67.05846799999999 24.22120799999997,68.64800799999999 23.08171799999997,70.01730799999999 C 25.32238799999997,71.39617799999999 27.77371799999997,72.36330799999999 30.26335799999997,73.16764799999999 C 31.23048799999997,73.48364799999999 32.216767999999966,73.65600799999999 33.19346799999997,73.90496799999998 C 35.06069799999997,74.27841799999999 36.956647999999966,74.57525799999998 38.87174799999997,74.55610799999998 C 38.929247999999966,71.12806799999998 38.87174799999997,67.70002799999997 38.94834799999997,64.27199799999998 C 39.044147999999964,62.68245799999998 39.01534799999997,61.09291799999998 39.09197799999997,59.50338799999998 C 39.13027799999997,57.09992799999998 39.19730799999997,54.70604799999998 39.21645799999997,52.31216799999998 C 39.23555799999997,50.04276799999998 39.302657999999965,47.782947999999976 39.28345799999997,45.51354799999998 C 38.92916799999997,45.41774799999998 38.55571799999997,45.36991799999998 38.201427999999964,45.28373799999998 C 36.152267999999964,48.96073799999998 33.97861799999996,52.561127999999975 31.804977999999963,56.17109799999998 L 31.80501799999997,56.171097999999986" fill="#000000" stroke="none"/>
</svg>
