<?xml version="1.0" ?>
<svg xmlns="http://www.w3.org/2000/svg" xmlns:cc="http://creativecommons.org/ns#" xmlns:dc="http://purl.org/dc/elements/1.1/" xmlns:ev="http://www.w3.org/2001/xml-events" xmlns:inkscape="http://www.inkscape.org/namespaces/inkscape" xmlns:rdf="http://www.w3.org/1999/02/22-rdf-syntax-ns#" xmlns:sodipodi="http://sodipodi.sourceforge.net/DTD/sodipodi-0.dtd" xmlns:svg="http://www.w3.org/2000/svg" xmlns:xlink="http://www.w3.org/1999/xlink" baseProfile="full" height="600px" version="1.1" viewBox="0 0 80 80" width="530px" x="0px" y="0px">
	<defs/>
	<path d="M 40.225,1.2663617 C 22.109035000000002,1.6181267 21.644070000000003,6.8568316000000005 20.775000000000002,7.2913616 C 18.173410000000004,8.1710116 17.532870000000003,12.686281000000001 16.725,15.466361000000001 C 15.81455,17.411421 15.47084,19.636841 14.250000000000002,21.416361000000002 C 12.035940000000002,22.099201 9.042440000000003,21.271301 7.325000000000002,23.216361000000003 C 6.435240000000002,24.106121 5.841400000000002,25.308451 5.8000000000000025,26.591361000000003 C 5.758620000000002,29.384801000000003 6.084460000000003,32.143611 6.250000000000003,34.916361 C 6.436230000000003,37.130421 6.494700000000003,39.463531 7.5500000000000025,41.491361000000005 C 8.253540000000003,42.939812 8.998160000000002,44.417061000000004 9.950000000000003,45.741361000000005 C 11.688139000000003,47.479501000000006 14.164400000000004,48.003292 16.275000000000002,49.141361 C 17.20615,49.720741000000004 18.56547,50.003292 19.000000000000004,51.141361 C 20.593300000000003,54.762481 22.085160000000002,58.428852000000006 23.575000000000003,62.091361000000006 C 24.00953,63.08458100000001 24.526630000000004,64.117141 25.375000000000004,64.841361 C 26.595840000000003,65.731121 26.891310000000004,67.26275100000001 27.450000000000003,68.566361 C 28.670833000000002,71.649492 29.848090000000003,74.748772 31.400000000000002,77.666361 C 32.744989000000004,79.425221 35.188554,79.366361 37.175000000000004,79.366361 C 40.71335500000001,79.262901 44.303028000000005,79.61213099999999 47.800000000000004,78.991361 C 49.165681000000006,78.92929099999999 50.144773,77.816501 50.6,76.616361 C 51.924298,73.036621 52.996396000000004,69.391792 54.300000000000004,65.791361 C 54.920765,64.61191199999999 55.907696,63.653580999999996 56.425000000000004,62.391360999999996 C 58.018294000000004,58.749540999999994 59.454092,55.029720999999995 61.275000000000006,51.491361 C 61.833688,50.498141 63.077470000000005,50.309512 64.05000000000001,49.916360999999995 C 66.03644600000001,49.130061 68.21616800000001,48.649280999999995 69.97500000000001,47.366361 C 71.11306700000002,45.959300999999996 71.98869800000001,44.351040999999995 72.775,42.716361 C 73.954451,40.357461 74.02238700000001,37.627881 74.25,35.041361 C 74.43623,32.496232 74.83708,29.982191 74.775,27.416361000000002 C 74.547386,25.512692 73.449369,23.487131 71.525,22.866361 C 69.848937,21.976601000000002 67.63983400000001,22.632892000000002 66.15,21.391361 C 65.487852,19.570451 65.040609,17.637272 64.275,15.816361 C 63.571467000000005,14.264451000000001 64.000072,12.45966 63.400000000000006,10.866361000000001 C 63.027542,9.8938312 62.563842,8.9682016 62.15,8.0163616 C 60.784319,7.6645916 58.816883,1.8043566 40.225,1.2663617 M 63.325,17.041361 C 63.904379000000006,18.551890999999998 64.393079,20.102380999999998 64.60000000000001,21.716361 C 63.89646700000001,20.412761 63.44145600000001,18.990651999999997 62.80000000000001,17.666361 C 62.98622900000001,17.459440999999998 63.13877000000001,17.248281 63.32500000000001,17.041361 L 63.325,17.041361 M 41.225,17.216361 C 43.720989,17.208561 46.218674,17.530941 48.65,18.141361 C 49.208687999999995,19.465652 49.896468,20.745521 50.6,21.966361 C 44.433743,21.573232 38.241257000000004,21.949961 32.075,21.991360999999998 C 32.530227000000004,20.708450999999997 33.043006000000005,19.408741 33.85,18.291361 C 36.250288000000005,17.567135999999998 38.729011,17.22412 41.225,17.216361 M 17.3,17.741360999999998 C 18.06561,19.334660999999997 16.761300000000002,20.933441 15.975000000000001,22.216361 C 16.16123,20.664451 16.72062,19.189811 17.3,17.741360999999998 M 50.325,18.516360999999996 C 52.249370000000006,19.116440999999995 54.117015,19.887830999999995 56.0,20.591360999999996 C 56.68284,20.818940999999995 57.430083,21.056900999999996 58.175,20.891360999999996 C 59.664834,20.746520999999998 60.607623999999994,19.485420999999995 61.724999999999994,18.616360999999998 C 62.15953499999999,19.650961 62.573232999999995,20.715370999999998 62.925,21.791361 C 59.386644,21.791361 55.834047999999996,21.813740999999997 52.275,22.041361 C 51.633542999999996,20.861911999999997 50.945765,19.695821 50.324999999999996,18.516361 L 50.325,18.516360999999996 M 31.85,18.716360999999996 C 31.332697000000003,19.833740999999996 30.766456,20.940360999999996 30.125,22.016360999999996 C 26.048645,22.016360999999996 21.951349999999998,22.032760999999997 17.875,21.991360999999998 C 18.22677,21.101601 18.62323,20.206120999999996 18.975,19.316360999999997 C 19.968220000000002,20.123351999999997 20.93432,21.192210999999997 22.3,21.316360999999997 C 23.50015,21.254291 24.586930000000002,20.631051999999997 25.725,20.341360999999996 C 27.77352,19.803371999999996 29.842863,19.399200999999994 31.85,18.716360999999996 M 13.0,23.191360999999993 C 13.20693,23.998350999999992 13.674150000000001,24.79729199999999 13.55,25.666360999999995 C 13.15685,28.646031999999995 13.018930000000001,31.666000999999994 13.350000000000001,34.666360999999995 C 13.453460000000002,35.638892 13.289690000000002,36.61021099999999 13.000000000000002,37.541360999999995 C 14.055300000000003,38.700120999999996 14.977540000000001,39.98514099999999 15.350000000000001,41.516360999999996 C 15.825920000000002,42.902730999999996 15.567200000000001,44.388611 15.650000000000002,45.81636099999999 C 16.187990000000003,46.043980999999995 16.7327,46.297360999999995 17.250000000000004,46.56636099999999 C 15.160100000000003,46.27667199999999 12.550150000000004,46.34850099999999 11.350000000000003,44.34136099999999 C 9.922250400000003,42.08592099999999 8.482800000000003,39.668420999999995 8.400000000000002,36.916360999999995 C 8.110309600000003,33.233160999999996 7.573230000000002,29.520251999999996 7.9250000000000025,25.816360999999993 C 8.276769600000003,24.885211999999992 8.694700000000003,23.722430999999993 9.750000000000002,23.391360999999993 C 10.825990000000001,23.287900999999994 11.90332,23.21206099999999 13.000000000000002,23.191360999999993 L 13.0,23.191360999999993 M 65.075,23.566360999999993 C 66.461374,27.580631999999994 66.39407,31.973620999999994 65.525,36.09136099999999 L 64.9,36.09136099999999 C 65.748378,31.97362099999999 65.757841,27.70478099999999 65.075,23.566360999999993 M 67.2,23.716360999999992 C 68.793295,23.81982099999999 70.72400900000001,23.59722099999999 71.8,25.066360999999993 C 73.33121799999999,27.032110999999993 72.624152,29.794531999999993 72.5,32.09136099999999 C 71.982696,35.857330999999995 72.46837,40.00992099999999 70.275,43.34136099999999 C 69.302469,44.78981199999999 68.710598,47.11636099999999 66.60000000000001,47.11636099999999 C 65.29639600000002,47.36466099999999 63.97860500000001,47.51805199999999 62.67500000000001,47.76636099999999 C 63.21299600000001,46.93867099999999 64.18615700000001,46.42682099999999 64.60000000000001,45.51636099999999 C 64.99315100000001,44.27484099999999 64.70254200000001,42.90358099999999 65.075,41.64136099999999 C 65.385382,40.54468099999999 65.85508300000001,39.48112099999999 66.60000000000001,38.59136099999999 C 67.034535,37.99129099999999 67.701767,37.29836099999999 67.35000000000001,36.49136099999999 C 66.77062400000001,34.83599199999999 67.38362000000001,33.09242099999999 67.42500000000001,31.41636099999999 C 67.56984500000002,28.85053199999999 67.15862000000001,26.28219199999999 67.20000000000002,23.716360999999992 L 67.2,23.716360999999992 M 63.575,23.74136099999999 C 64.278531,27.71425099999999 64.555299,31.81416099999999 63.5,35.76636099999999 C 61.575631,35.10421199999999 59.527829,34.83356099999999 57.5,34.91636099999999 C 55.968782,35.164670999999984 54.934679,36.78620099999999 53.3,36.64136099999999 C 44.547225,36.88969099999999 35.777778,37.13020099999999 27.025,36.71636099999999 C 25.452399999999997,37.08881199999999 24.96568,35.193980999999994 23.599999999999998,34.96636099999999 C 21.427319999999998,34.71806099999999 19.00367,34.53776099999999 17.099999999999998,35.84136099999999 C 16.375799999999998,31.97193099999999 16.305929999999996,27.99009199999999 17.174999999999997,24.141360999999993 C 24.810399999999998,23.955100999999992 32.439600999999996,24.20259099999999 40.074999999999996,24.016360999999993 C 47.89662799999999,23.64387199999999 55.732679999999995,24.113820999999994 63.574999999999996,23.741360999999994 L 63.575,23.74136099999999 M 15.800000000000004,24.06636099999999 C 15.055100000000005,28.16340099999999 14.877470000000004,32.41501099999999 15.850000000000005,36.49136099999999 L 15.025000000000006,36.49136099999999 C 14.424930000000005,32.37363099999999 14.273170000000006,28.192711999999993 15.225000000000005,24.11636099999999 C 15.369850000000005,24.09566099999999 15.655160000000006,24.08706099999999 15.800000000000004,24.06636099999999 M 53.075,38.566360999999986 C 53.261229,38.566360999999986 53.613771,38.591360999999985 53.800000000000004,38.591360999999985 C 52.91023800000001,40.41227099999998 52.063916000000006,42.27822099999999 51.050000000000004,44.01636099999998 C 51.56730400000001,42.13337099999998 52.433544000000005,40.38726099999998 53.075,38.56636099999998 L 53.075,38.566360999999986 M 26.6,38.76636099999999 C 27.551840000000002,38.76636099999999 28.523161,38.77066099999999 29.475,38.79136099999999 C 30.571683,42.12279199999999 32.013699,45.356470999999985 32.800000000000004,48.79136099999999 C 29.634103000000003,46.24623099999999 28.669212000000005,42.097791999999984 26.600000000000005,38.76636099999999 L 26.6,38.76636099999999 M 31.1,38.76636099999999 C 33.914131000000005,38.849130999999986 36.71087,39.01636099999999 39.525000000000006,39.01636099999999 C 38.614546000000004,41.76842099999999 37.40960700000001,44.38069199999999 36.37500000000001,47.09136099999999 C 36.10600300000001,47.93973199999999 35.29922500000001,48.377520999999994 34.57500000000001,48.791360999999995 C 33.70593100000001,45.356472 32.19668400000001,42.139180999999994 31.10000000000001,38.766360999999996 L 31.1,38.76636099999999 M 51.425,38.76636099999999 C 50.100702999999996,41.99433099999999 48.925143999999996,45.30131099999999 47.724999999999994,48.59136099999999 C 46.959391,48.09475199999999 45.89830599999999,47.838891999999994 45.64999999999999,46.86636099999999 C 44.57400899999999,44.238460999999994 43.621683999999995,41.59857199999999 42.52499999999999,38.99136099999999 C 45.48397599999999,38.76374099999999 48.44533199999999,38.74566099999999 51.42499999999999,38.76636099999999 L 51.425,38.76636099999999 M 41.175,39.34136099999999 C 41.961301999999996,41.327800999999994 42.709391,43.32992099999999 43.474999999999994,45.31636099999999 C 44.03368699999999,46.72343099999999 44.404163999999994,48.32744099999999 45.62499999999999,49.34136099999999 C 42.355641999999996,49.87935199999999 39.03574199999999,50.293980999999995 35.724999999999994,50.06636099999999 C 36.36645599999999,49.445600999999996 37.26461799999999,49.00612099999999 37.574999999999996,48.11636099999999 C 38.87860499999999,45.24015199999999 39.809318999999995,42.19687199999999 41.175,39.34136099999999 M 52.9,65.666361 C 51.555011,69.390941 50.448449,73.183161 49.0,76.866361 C 48.606849,73.431471 48.231074,70.026261 47.9,66.59136099999999 C 49.576063,66.36375199999999 51.244628,66.018121 52.9,65.666361 M 27.9,65.866361 C 29.845063999999997,66.197431 31.784246999999997,66.534432 33.75,66.741361 C 33.253387,70.362481 33.536229,74.020241 33.35,77.641361 C 32.95685,77.248211 32.548306000000004,76.83797100000001 32.300000000000004,76.341361 C 30.644629000000005,72.92716100000001 29.327761000000002,69.363331 27.900000000000006,65.86636100000001 L 27.9,65.866361 M 46.45,66.916361 C 46.656922,70.516791 47.173233,74.06593099999999 47.525000000000006,77.666361 C 43.324496,77.93538099999999 39.121196000000005,77.89136099999999 34.900000000000006,77.89136099999999 C 35.003460000000004,74.249541 34.555083,70.54179099999999 35.300000000000004,66.94136099999999 C 35.40346100000001,67.21036099999999 35.571539,67.77667199999999 35.675000000000004,68.06636099999999 C 38.92366500000001,68.14912099999998 42.201334,67.79391099999998 45.45,68.16636099999998 C 45.53277,67.77321099999998 45.642230000000005,67.35520099999998 45.725,66.94136099999999 C 45.952613,66.94136099999999 46.201695,66.91636099999998 46.45,66.91636099999998 L 46.45,66.916361" fill="#000000" stroke="none"/>
</svg>
