<?xml version="1.0" ?>
<svg xmlns="http://www.w3.org/2000/svg" xmlns:ev="http://www.w3.org/2001/xml-events" xmlns:graph="http://ns.adobe.com/Graphs/1.0/" xmlns:i="http://ns.adobe.com/AdobeIllustrator/10.0/" xmlns:x="http://ns.adobe.com/Extensibility/1.0/" xmlns:xlink="http://www.w3.org/1999/xlink" baseProfile="full" enable-background="new 0 0 100 100" height="600px" version="1.1" viewBox="0 0 100 100" width="600px" x="0px" xml:space="preserve" y="0px">
	<defs/>
	<path d="M 50.0,100.0 C 77.614,100.0 99.999,77.614 99.999,50.0 C 99.999,22.386 77.614,0.0 50.0,0.0 C 22.386,0.0 0.001,22.386 0.001,50.0 C 0.001,77.614 22.386,100.0 50.0,100.0 M 49.679,15.666 C 54.275000000000006,15.666 57.400000000000006,19.159 57.400000000000006,23.664 C 57.400000000000006,28.445 53.99900000000001,31.753 49.679,31.753 C 45.45,31.753 42.048,28.444 42.048,23.664 C 42.048,18.976 45.45,15.666 49.679,15.666 M 37.544,80.475 C 42.967999999999996,80.475 43.428,79.648 43.428,72.84599999999999 L 43.428,51.792 C 43.428,44.99 43.061,44.53 37.544,44.53 L 37.544,40.854 C 43.151999999999994,40.485 49.126999999999995,39.013999999999996 55.471,36.349 L 57.034,37.175999999999995 L 57.034,72.93599999999999 C 57.034,79.64699999999999 57.585,80.47399999999999 62.457,80.47399999999999 L 62.457,84.33299999999998 L 37.544,84.33299999999998 L 37.544,80.475" fill="#000000"/>
</svg>
