<?xml version="1.0" ?>
<svg xmlns="http://www.w3.org/2000/svg" xmlns:ev="http://www.w3.org/2001/xml-events" xmlns:xlink="http://www.w3.org/1999/xlink" baseProfile="full" enable-background="new 0 0 100 100" height="561px" version="1.1" viewBox="0 0 100 100" width="600px" x="0px" xml:space="preserve" y="0px">
	<defs/>
	<path clip-rule="evenodd" d="M 88.085,89.0 C 85.46199999999999,89.0 80.735,89.0 77.77799999999999,89.0 C 75.41399999999999,89.0 74.97099999999999,88.268 74.63799999999999,87.21 C 72.36899999999999,80.398 67.154,74.012 59.46699999999999,73.788 C 58.84899999999999,73.875 57.69299999999999,74.204 56.70399999999999,75.416 C 56.70099999999999,75.416 56.69799999999999,75.402 56.69599999999999,75.384 C 55.13999999999999,77.103 53.14399999999999,78.415 50.88699999999999,79.144 C 50.40899999999999,80.93 48.782999999999994,82.248 46.84599999999999,82.248 C 44.92299999999999,82.248 43.30599999999999,80.949 42.81499999999999,79.183 C 40.51699999999999,78.465 38.48399999999999,77.147 36.90299999999999,75.409 C 36.901999999999994,75.412 36.90099999999999,75.418 36.89999999999999,75.418 C 35.81099999999999,74.08200000000001 34.517999999999994,73.82000000000001 33.965999999999994,73.771 L 23.725,73.771 C 23.174000000000003,73.821 21.881,74.083 20.792,75.418 C 20.788,75.418 20.784000000000002,75.39200000000001 20.782,75.35300000000001 C 20.391,75.76100000000001 19.886,76.07900000000001 19.316,76.21100000000001 L 12.572,77.796 C 10.736999999999998,78.227 9.145,77.34800000000001 9.145,75.801 L 9.145,56.711 C 9.145,55.164 10.737,54.285 12.572,54.717 L 19.316,56.301 C 19.89,56.436 20.398,56.756 20.79,57.168 C 20.791,57.165 20.791999999999998,57.156 20.793,57.156 C 20.831,57.202 20.87,57.244 20.909,57.289 C 20.916999999999998,57.297000000000004 20.924,57.307 20.932,57.315000000000005 C 22.139999999999997,58.678000000000004 23.546,58.80500000000001 23.907999999999998,58.81400000000001 L 34.031,58.81400000000001 C 34.378,58.806000000000004 35.684,58.69100000000001 36.857,57.48100000000001 C 36.873,57.46200000000001 36.89,57.44700000000001 36.906,57.42800000000001 C 36.987,57.34100000000001 37.068,57.253000000000014 37.147,57.15600000000001 C 37.147999999999996,57.15600000000001 37.15,57.16200000000001 37.150999999999996,57.16800000000001 C 38.675,55.57800000000001 40.586,54.365000000000016 42.733999999999995,53.680000000000014 C 43.09199999999999,51.731000000000016 44.79599999999999,50.253000000000014 46.849,50.253000000000014 C 48.916,50.253000000000014 50.629,51.753000000000014 50.97,53.72100000000002 C 53.077,54.41600000000002 54.954,55.621000000000016 56.452999999999996,57.19000000000002 C 56.455,57.170000000000016 56.458,57.15700000000002 56.461,57.15700000000002 C 57.698,58.673000000000016 59.199999999999996,58.80500000000002 59.576,58.81500000000002 L 59.7,58.81500000000002 C 59.917,58.81500000000002 60.125,58.83500000000002 60.325,58.86700000000002 C 75.022,59.56900000000002 86.773,72.35900000000002 89.635,86.78800000000001 C 89.931,88.323 89.211,89.0 88.085,89.0 M 49.25,44.253 L 49.25,46.473 C 49.25,47.849 48.133,48.966 46.757,48.966 C 45.379999999999995,48.966 44.263999999999996,47.849000000000004 44.263999999999996,46.473 L 44.263999999999996,44.253 C 44.263999999999996,42.877 45.379999999999995,41.76 46.757,41.76 C 48.133,41.76 49.25,42.876 49.25,44.253 M 54.826,41.676 L 54.826,41.698 L 50.446,41.698 C 49.815,40.226 48.352999999999994,39.195 46.649,39.195 C 44.946,39.195 43.485,40.227000000000004 42.853,41.698 L 39.27,41.698 L 39.27,41.693 C 34.687000000000005,41.64 30.987000000000002,37.913 30.987000000000002,33.318 C 30.987000000000002,29.000999999999998 34.251000000000005,25.448999999999998 38.445,24.99 C 38.511,21.320999999999998 40.933,18.229 44.263,17.162999999999997 L 44.263,16.298 C 44.263,14.921999999999999 45.379,13.804999999999998 46.756,13.804999999999998 C 48.132,13.804999999999998 49.249,14.920999999999998 49.249,16.298 L 49.249,17.121 C 52.639,18.148 55.119,21.267 55.190000000000005,24.976 C 59.443000000000005,25.378999999999998 62.772000000000006,28.957 62.772000000000006,33.317 C 62.772,37.799 59.251,41.448 54.826,41.676 M 39.37,29.258 C 37.128,29.258 35.311,31.075 35.311,33.317 C 35.311,35.559 37.128,37.376 39.37,37.376 C 41.611,37.376 43.428999999999995,35.559 43.428999999999995,33.317 C 43.428999999999995,31.075000000000003 41.611,29.258 39.37,29.258 M 46.82,21.083 C 44.579,21.083 42.761,22.898999999999997 42.761,25.142 C 42.761,27.383 44.578,29.201 46.82,29.201 C 49.062,29.201 50.879,27.384 50.879,25.142 C 50.879,22.899 49.062,21.083 46.82,21.083 M 54.385,29.258 C 52.144,29.258 50.326,31.075 50.326,33.317 C 50.326,35.559 52.143,37.376 54.385,37.376 C 56.626999999999995,37.376 58.443999999999996,35.559 58.443999999999996,33.317 C 58.443999999999996,31.075000000000003 56.627,29.258 54.385,29.258" fill-rule="evenodd"/>
</svg>
