<?xml version="1.0" ?>
<svg xmlns="http://www.w3.org/2000/svg" xmlns:cc="http://creativecommons.org/ns#" xmlns:dc="http://purl.org/dc/elements/1.1/" xmlns:ev="http://www.w3.org/2001/xml-events" xmlns:inkscape="http://www.inkscape.org/namespaces/inkscape" xmlns:rdf="http://www.w3.org/1999/02/22-rdf-syntax-ns#" xmlns:sodipodi="http://sodipodi.sourceforge.net/DTD/sodipodi-0.dtd" xmlns:svg="http://www.w3.org/2000/svg" xmlns:xlink="http://www.w3.org/1999/xlink" baseProfile="full" height="402px" version="1.1" viewBox="0 0 80 80" width="600px" x="0px" y="0px">
	<defs/>
	<path d="M 40.284625,11.819348 C 38.560789,11.831978 37.099154999999996,13.035812 37.110568,14.593074 L 37.110568,15.050595999999999 L 37.568089,15.050595999999999 L 38.511728,15.022006 L 38.511728,17.309615 C 25.064769,17.565123 17.882783999999997,23.760771000000002 14.177284999999998,29.948651 C 10.427678999999998,36.210185 10.145373999999997,42.444716 10.145373999999997,42.444716 L 10.116783999999997,42.816453 L 10.488519999999998,42.930833 C 10.488519999999998,42.930833 28.796974999999996,47.506052 40.942318,47.506052 C 51.917733,47.506052 70.195121,42.930833 70.195121,42.930833 L 70.50966700000001,42.845053 L 70.538257,42.501912 C 70.538257,42.501912 70.814946,36.527094999999996 67.335604,30.406177999999997 C 63.891995,24.348115 56.708062,18.151288 42.171903,17.3668 L 42.171903,14.993406000000002 L 43.058352,14.993406000000002 L 43.515873,14.993406000000002 L 43.515873,14.535884000000003 C 43.504422999999996,12.972909000000003 42.00505,11.806741000000002 40.284625,11.819348000000003 L 40.284625,11.819348 M 40.284625,12.734392 C 41.360045,12.726492 42.092554,13.341457 42.372068999999996,14.078362 L 41.714380999999996,14.078362 L 41.256859,14.078362 L 41.256859,14.535884 L 41.256859,17.795727 L 41.256859,18.224654 L 41.685786,18.253254000000002 C 56.286236,18.920497 63.191696,24.982205 66.534941,30.8637 C 69.717667,36.462807 69.60992900000001,41.592142 69.594618,42.10158 C 68.963905,42.257888 51.470079,46.591013 40.942313,46.591013 C 29.253127,46.591013 11.785229999999999,42.266827 11.117607999999997,42.10158 C 11.153737999999997,41.514341 11.518362999999997,36.164243 14.949352999999997,30.434773 C 18.571968,24.385305 25.484471999999997,18.307698000000002 38.969249999999995,18.196064 L 39.42677199999999,18.196064 L 39.42677199999999,17.738542 L 39.42677199999999,14.564483999999998 L 39.42677199999999,14.106962 L 38.969249999999995,14.106962 L 38.254372,14.135551999999999 C 38.516321,13.386773999999999 39.209956,12.742266999999998 40.284625,12.734392" display="inline" fill="#000000" fill-opacity="1" marker="none" overflow="visible" stroke="none" style="text-indent:0;text-transform:none;direction:ltr;block-progression:tb;baseline-shift:baseline;color:#000000;enable-background:accumulate;" visibility="visible"/>
	<path d="M 8.751483,43.806135 C 8.751483,43.806135 24.32178,48.78668 40.496908000000005,49.210127 C 56.35508,49.625276 72.0,44.0 72.0,44.0 C 72.0,44.0 72.95299,47.04853 77.57362499999999,49.69479 C 80.02722399999999,51.099976 77.45245899999999,58.176392 77.45245899999999,58.176392 C 77.45245899999999,58.176392 65.505517,63.420319 40.13341099999999,63.62885 C 15.17886699999999,63.833948 1.4524589999999904,57.570562 1.4524589999999904,57.570562 C 1.4524589999999904,57.570562 0.49024169999999034,50.712454 2.9355274999999903,49.452458 C 7.600852,47.04853 8.751483,43.806135 8.751483,43.806135" fill="#000000" stroke="none"/>
</svg>
