<?xml version="1.0" ?>
<svg xmlns="http://www.w3.org/2000/svg" xmlns:ev="http://www.w3.org/2001/xml-events" xmlns:xlink="http://www.w3.org/1999/xlink" baseProfile="full" enable-background="new 0 0 100 100" height="600px" version="1.1" viewBox="0 0 100 100" width="201px" x="0px" xml:space="preserve" y="0px">
	<defs/>
	<path d="M 54.0,67.5 L 54.0,31.5 C 54.0,29.015 51.985,27.0 49.5,27.0 L 49.5,27.0 C 47.015,27.0 45.0,29.015 45.0,31.5 L 45.0,36.0 L 45.0,81.0 C 45.0,85.971 49.028999999999996,90.0 54.0,90.0 L 54.0,90.0 C 58.971000000000004,90.0 63.0,85.971 63.0,81.0 L 63.0,78.0 L 63.0,21.0 C 63.0,14.373000000000001 57.627,9.0 51.0,9.0 L 48.0,9.0 C 41.373,9.0 36.0,14.373000000000001 36.0,21.0 L 36.0,90.0" fill="none" stroke="#000000" stroke-miterlimit="10" stroke-width="3"/>
	<path d="M 63.0,27.0 L 63.0,27.0 L 63.0,27.0 L 63.0,27.0 L 63.0,27.0 L 63.0,27.0 L 63.0,27.0 L 63.0,27.0 L 63.0,27.0" fill="none" points="63,27 63,27 63,27 63,27 63,27 63,27 63,27   63,27 " stroke="#000000" stroke-miterlimit="10" stroke-width="3"/>
</svg>
