<?xml version="1.0" ?>
<svg xmlns="http://www.w3.org/2000/svg" xmlns:ev="http://www.w3.org/2001/xml-events" xmlns:xlink="http://www.w3.org/1999/xlink" baseProfile="full" enable-background="new 0 0 100 70" height="425px" version="1.1" viewBox="0 0 100 70" width="600px" x="0px" xml:space="preserve" y="0px">
	<defs/>
	<path d="M 42.997,62.661 L 50.0,69.665 L 57.003,62.66100000000001 C 55.212,60.867 52.735,59.76 50.0,59.76 C 47.264,59.76 44.789,60.867 42.997,62.661"/>
	<path d="M 29.0,48.665 L 35.995,55.656 C 39.579,52.074 44.531,49.856 49.998999999999995,49.856 C 55.465999999999994,49.856 60.419999999999995,52.074 64.005,55.656 L 71.0,48.665 C 65.621,43.282 58.191,39.951 50.0,39.951 C 41.808,39.951 34.379,43.282 29.0,48.665"/>
	<path d="M 14.999,34.664 L 21.988,41.649 C 29.157,34.481 39.061,30.048 50.0,30.048 C 60.941,30.048 70.843,34.480999999999995 78.012,41.649 L 85.001,34.664 C 76.034,25.695 63.652,20.143 50.0,20.143 C 36.347,20.143 23.967,25.695 14.999,34.664"/>
	<path d="M 50.0,0.335 C 30.887,0.335 13.554000000000002,8.109 1.0,20.663 L 7.98,27.646 C 18.736,16.89 33.592,10.24 50.0,10.24 C 66.40899999999999,10.24 81.265,16.89 92.017,27.646 L 99.0,20.663 C 86.444,8.109 69.113,0.335 50.0,0.335"/>
</svg>
