<?xml version="1.0" ?>
<svg xmlns="http://www.w3.org/2000/svg" xmlns:ev="http://www.w3.org/2001/xml-events" xmlns:xlink="http://www.w3.org/1999/xlink" baseProfile="full" enable-background="new 0 0 100 100" height="399px" version="1.1" viewBox="0 0 100 100" width="600px" x="0px" xml:space="preserve" y="0px">
	<defs/>
	<path d="M 66.067,43.77 C 65.886,45.015 65.607,46.338 65.193,47.694 C 64.92099999999999,48.584 64.571,49.541000000000004 64.123,50.525000000000006 C 72.69300000000001,45.025000000000006 78.236,37.956 80.31200000000001,35.02400000000001 C 82.93500000000002,31.32100000000001 82.09000000000002,28.442000000000007 81.68500000000002,27.059000000000008 C 81.64000000000001,26.90600000000001 81.60100000000001,26.774000000000008 81.57200000000002,26.660000000000007 C 81.21800000000002,25.270000000000007 80.00500000000002,24.931000000000008 79.27900000000001,24.729000000000006 C 79.21400000000001,24.710000000000008 79.13900000000001,24.690000000000005 79.06900000000002,24.668000000000006 C 79.34400000000002,24.194000000000006 79.40400000000001,23.756000000000007 79.24500000000002,23.363000000000007 C 79.01400000000002,22.792000000000005 78.42000000000002,22.622000000000007 78.29400000000003,22.592000000000006 C 78.21100000000003,22.571000000000005 77.56500000000003,22.411000000000005 76.91300000000003,22.411000000000005 C 76.13400000000003,22.411000000000005 75.59800000000003,22.639000000000006 75.32000000000002,23.088000000000005 C 75.04300000000002,23.536000000000005 75.08100000000002,24.121000000000006 75.43300000000002,24.825000000000003 C 75.88800000000002,25.736000000000004 76.77700000000002,26.180000000000003 77.56000000000002,26.573000000000004 C 79.07000000000002,27.328000000000003 80.26200000000001,27.925000000000004 78.93000000000002,31.538000000000004 C 77.412,35.661 71.212,40.511 66.067,43.77"/>
	<path d="M 88.732,35.471 C 89.755,32.913 91.726,30.242999999999995 93.309,28.097999999999995 C 93.66,27.622999999999994 93.991,27.173999999999996 94.286,26.761999999999997 C 95.874,24.537999999999997 99.71000000000001,19.103999999999996 99.749,19.048999999999996 L 100.0,18.694 L 98.626,16.862 L 98.381,16.826999999999998 C 98.358,16.823999999999998 98.291,16.816 98.193,16.816 C 97.758,16.816 96.648,16.967 95.711,18.372999999999998 C 95.491,18.701999999999998 95.429,19.014999999999997 95.52499999999999,19.301999999999996 C 95.66999999999999,19.733999999999995 96.088,19.879999999999995 96.36599999999999,19.976999999999997 C 96.40799999999999,19.991999999999997 96.46099999999998,20.009999999999998 96.50799999999998,20.028999999999996 C 96.37199999999999,20.306999999999995 95.80099999999999,21.096999999999998 93.41899999999998,23.062999999999995 C 89.58199999999998,26.227999999999994 87.56499999999998,29.668999999999997 85.94299999999998,32.43599999999999 C 84.79999999999998,34.38499999999999 83.81299999999999,36.068999999999996 82.48699999999998,37.20599999999999 C 81.62699999999998,37.94299999999999 81.20299999999997,38.70799999999999 80.71299999999998,39.59399999999999 C 79.34799999999998,42.05699999999999 77.36399999999998,45.636999999999986 62.90799999999998,52.82799999999999 C 61.24999999999998,55.55099999999999 58.74699999999998,58.25799999999999 54.96599999999998,60.17399999999999 C 55.73599999999998,60.681999999999995 57.06999999999998,61.70499999999999 58.39399999999998,63.40999999999999 C 58.815999999999974,63.95499999999999 59.254999999999974,64.59599999999999 59.678999999999974,65.338 C 61.58799999999997,64.262 63.34399999999997,63.163999999999994 64.47399999999998,62.437999999999995 L 64.56399999999998,62.38099999999999 C 67.56899999999997,60.45499999999999 69.55499999999998,59.07999999999999 71.00599999999997,58.07599999999999 C 74.86499999999997,55.403999999999996 74.86499999999997,55.403999999999996 80.56499999999997,54.434999999999995 C 82.83799999999997,54.04599999999999 84.81299999999997,53.85099999999999 86.43299999999996,53.85099999999999 C 88.31299999999996,53.85099999999999 89.32199999999996,54.108999999999995 89.98999999999997,54.28099999999999 C 90.33999999999996,54.370999999999995 90.61699999999996,54.44099999999999 90.89399999999996,54.44299999999999 C 91.17599999999996,54.49999999999999 92.05199999999996,55.33399999999999 92.40999999999997,56.465999999999994 C 92.66699999999997,57.27799999999999 92.55799999999996,57.931 92.08899999999997,58.39999999999999 C 91.21999999999997,59.26899999999999 90.75899999999997,59.39999999999999 90.56199999999997,59.39999999999999 C 90.38699999999997,59.39999999999999 90.25299999999997,59.294999999999995 90.04999999999997,59.12099999999999 L 90.00599999999997,59.08399999999999 C 89.86499999999997,58.96499999999999 89.68299999999998,58.90599999999999 89.46499999999997,58.90599999999999 C 88.63599999999998,58.90599999999999 85.97399999999998,60.108999999999995 85.84099999999998,61.58399999999999 C 85.75199999999998,62.569999999999986 86.66299999999998,63.24599999999999 88.54999999999998,63.58999999999999 C 88.93199999999999,63.65799999999999 89.31399999999998,63.69399999999999 89.68399999999998,63.69399999999999 C 91.83799999999998,63.69399999999999 93.72399999999999,62.47699999999999 94.72799999999998,60.435999999999986 C 95.92899999999997,57.996999999999986 95.62399999999998,55.01399999999999 93.95099999999998,52.83799999999999 C 92.33299999999998,50.73399999999999 90.89499999999998,49.951999999999984 88.64599999999999,49.951999999999984 C 87.46399999999998,49.951999999999984 86.06299999999999,50.164999999999985 84.28899999999999,50.43399999999998 C 82.82,50.65699999999998 80.99299999999998,50.93399999999998 78.79799999999999,51.161999999999985 C 76.07499999999999,51.442999999999984 73.51899999999999,52.204999999999984 71.30199999999999,53.106999999999985 C 75.133,50.59599999999998 78.222,47.96599999999999 80.482,45.80299999999998 C 85.378,41.113 88.099,37.055 88.732,35.471"/>
	<path d="M 24.663,76.193 C 27.673000000000002,71.672 29.445,69.49799999999999 30.506,68.437 C 29.944,68.611 29.466,68.853 28.948,69.113 C 27.765,69.707 26.424,70.383 23.687,70.383 C 20.603,70.383 16.074,69.49799999999999 9.918000000000001,67.688 C 9.063,68.008 8.364,68.26 8.161000000000001,68.293 C 7.029000000000002,68.301 3.4010000000000016,68.813 1.1750000000000016,71.039 C 0.2760000000000016,71.937 -0.11099999999999843,72.82000000000001 0.02700000000000169,73.664 C 0.20100000000000168,74.736 1.1710000000000016,75.285 1.3150000000000017,75.361 C 1.4420000000000017,75.431 2.645000000000002,76.07600000000001 3.931000000000002,76.07600000000001 C 4.786000000000001,76.07600000000001 5.495000000000002,75.801 6.038000000000002,75.25800000000001 C 6.180000000000002,75.11500000000001 6.608000000000002,74.89300000000001 7.237000000000002,74.61500000000001 C 6.6880000000000015,75.34200000000001 6.458000000000002,76.066 6.554000000000002,76.775 C 6.734000000000002,78.107 8.011000000000003,78.796 8.065000000000001,78.82600000000001 L 8.282000000000002,78.941 L 8.517000000000001,78.87100000000001 C 8.782000000000002,78.79100000000001 15.049000000000001,76.9 19.23,74.64800000000001 C 19.243000000000002,74.64000000000001 19.258,74.632 19.272000000000002,74.62500000000001 C 17.588,75.60400000000001 16.209000000000003,76.54100000000001 15.905000000000001,76.92000000000002 C 15.424000000000001,77.52400000000002 14.814000000000002,77.66800000000002 13.106000000000002,77.82200000000002 C 12.202000000000002,77.90400000000001 11.747000000000002,78.31400000000002 11.525000000000002,78.64200000000001 C 11.028000000000002,79.376 11.273000000000001,80.25900000000001 11.302000000000001,80.35700000000001 L 11.439000000000002,80.81400000000001 L 11.915000000000003,80.783 C 11.936000000000003,80.781 14.060000000000002,80.64 15.968000000000004,80.64 C 17.050000000000004,80.64 17.875000000000004,80.687 18.354000000000003,80.775 C 18.468000000000004,80.795 18.589000000000002,80.804 18.714000000000002,80.804 C 19.785000000000004,80.804 21.209000000000003,80.034 22.739000000000004,79.146 C 23.341,78.203 23.993,77.199 24.663,76.193"/>
	<path d="M 53.959,59.773 C 61.106,56.462 63.852000000000004,50.295 64.897,45.704 C 65.852,41.508 65.57600000000001,37.713 65.221,36.293 C 64.09400000000001,38.702 60.67100000000001,38.814 60.338,38.818 C 51.075,39.765 46.775,42.775999999999996 44.8,45.135999999999996 C 42.702,47.641999999999996 42.732,49.91499999999999 42.733,49.93899999999999 C 42.738,50.150999999999996 42.576,50.330999999999996 42.364,50.34599999999999 C 42.151999999999994,50.36299999999999 41.964999999999996,50.20799999999999 41.937999999999995,49.99699999999999 C 41.93299999999999,49.956999999999994 41.416,45.946999999999996 39.336999999999996,41.99999999999999 C 36.629999999999995,36.86099999999999 32.668,34.21199999999999 27.558999999999997,34.12199999999999 C 23.276999999999997,45.06899999999999 32.622,54.52799999999999 33.811,55.32299999999999 C 33.977,55.43399999999999 34.035,55.648999999999994 33.948,55.82899999999999 C 33.861000000000004,56.00899999999999 33.656,56.096999999999994 33.467,56.03399999999999 C 33.397,56.01299999999999 33.031,56.06499999999999 31.076,54.66899999999999 C 29.118000000000002,53.87999999999999 27.094,53.47999999999999 25.057000000000002,53.47999999999999 C 19.323,53.47999999999999 14.482000000000003,56.58899999999999 11.431000000000003,59.19699999999999 C 8.182000000000002,61.97399999999999 6.257000000000002,64.77299999999998 5.926000000000003,65.61699999999999 C 14.208000000000002,68.28699999999999 20.019000000000002,69.58399999999999 23.689000000000004,69.58399999999999 C 26.236000000000004,69.58399999999999 27.434000000000005,68.98199999999999 28.591000000000005,68.39999999999999 C 29.571000000000005,67.90799999999999 30.498000000000005,67.44099999999999 32.07900000000001,67.377 C 32.08500000000001,67.375 32.09000000000001,67.375 32.09600000000001,67.375 C 32.29200000000001,67.375 32.46100000000001,67.52 32.49000000000001,67.715 C 32.52000000000001,67.916 32.39400000000001,68.11 32.19700000000001,68.16 C 31.74900000000001,68.279 30.18300000000001,69.34 25.32800000000001,76.63499999999999 C 23.66000000000001,79.14299999999999 22.10100000000001,81.639 21.15100000000001,83.184 C 22.64000000000001,82.461 25.35000000000001,81.649 30.01800000000001,81.649 C 30.711000000000013,81.649 31.43800000000001,81.669 32.180000000000014,81.70400000000001 C 32.402000000000015,81.71600000000001 32.625000000000014,81.72000000000001 32.84200000000001,81.72000000000001 C 36.59300000000001,81.72000000000001 39.62900000000001,80.15400000000001 41.86500000000001,77.06600000000002 C 43.54400000000001,74.74600000000002 44.11300000000001,72.41000000000001 44.11800000000001,72.38600000000002 C 44.16600000000001,72.18300000000002 44.36400000000001,72.05200000000002 44.56900000000001,72.08500000000002 C 44.77500000000001,72.11800000000002 44.92100000000001,72.30400000000002 44.90400000000001,72.51100000000002 C 44.77500000000001,74.05400000000003 45.25900000000001,75.43500000000003 46.34300000000001,76.61500000000002 C 50.15500000000001,80.76900000000002 60.28800000000001,81.56000000000003 63.80700000000001,81.71100000000003 C 62.78200000000001,80.77700000000003 61.36500000000001,78.99600000000002 61.42400000000001,76.32200000000003 C 61.562000000000005,70.15600000000003 59.52400000000001,66.18100000000003 57.788000000000004,63.93500000000003 C 55.908,61.49700000000003 53.967000000000006,60.50300000000003 53.947,60.49400000000003 C 53.81,60.42400000000003 53.725,60.28300000000003 53.727000000000004,60.13100000000003 C 53.73,59.975 53.82,59.838 53.959,59.773 M 45.266,61.889 C 44.376,62.543000000000006 44.628,62.131 44.448,62.739000000000004 C 44.268,63.348000000000006 44.94,64.186 44.191,64.51400000000001 C 43.44200000000001,64.84200000000001 41.991,64.983 40.258,64.51400000000001 C 38.526,64.04500000000002 36.372,62.03200000000001 37.402,60.72100000000001 C 38.432,59.41000000000001 37.496,58.006000000000014 38.479,57.58400000000001 C 39.461999999999996,57.16400000000001 40.36,58.62500000000001 41.17,58.02000000000001 C 41.17,58.02000000000001 42.744,57.13100000000001 43.728,57.66800000000001 C 44.712,58.20500000000002 43.996,58.89500000000001 44.959,59.551000000000016 C 45.922000000000004,60.20700000000002 46.156,61.232 45.266,61.889"/>
</svg>
