<?xml version="1.0" ?>
<svg xmlns="http://www.w3.org/2000/svg" xmlns:ev="http://www.w3.org/2001/xml-events" xmlns:xlink="http://www.w3.org/1999/xlink" baseProfile="full" enable-background="new 0 0 100 100" height="594px" version="1.1" viewBox="0 0 100 100" width="600px" x="0px" xml:space="preserve" y="0px">
	<defs/>
	<path d="M 99.812,80.355 C 98.829,74.21600000000001 94.88499999999999,72.128 91.626,71.477 C 90.647,66.26100000000001 84.555,33.836000000000006 82.259,23.652 C 88.669,23.519000000000002 93.845,18.273000000000003 93.845,11.832 C 93.846,5.308 88.539,0.0 82.014,0.0 C 75.48899999999999,0.0 70.182,5.308 70.182,11.833 C 70.182,12.592 70.261,13.332 70.398,14.051 C 70.313,14.118 70.253,14.168000000000001 70.253,14.168000000000001 L 33.753,45.022 C 33.341,44.955999999999996 32.899,44.908 32.393,44.908 C 27.908,44.908 20.903,47.823 14.111,52.515 C 9.471,55.72 5.509,59.349000000000004 2.9570000000000007,62.734 C -0.7389999999999994,67.637 -0.30299999999999905,70.419 0.7140000000000009,71.888 C 1.1460000000000008,72.51400000000001 1.931000000000001,73.217 3.298000000000001,73.57900000000001 C 6.232000000000001,77.02600000000001 17.409000000000002,88.171 32.087,78.034 C 45.498000000000005,68.769 40.965,56.13900000000001 38.343,51.05800000000001 C 42.416000000000004,48.08100000000001 56.45,37.81100000000001 66.97500000000001,29.945000000000007 L 58.341,66.71 C 54.686,67.872 51.043,74.231 48.892,80.556 C 46.588,87.323 46.064,93.652 47.558,96.68299999999999 C 48.178,97.943 49.04,98.455 49.653999999999996,98.663 C 49.986,98.776 50.336,98.832 50.69499999999999,98.832 C 51.297999999999995,98.832 51.904999999999994,98.657 52.50999999999999,98.36399999999999 C 56.33399999999999,99.15199999999999 67.35399999999998,100.252 71.51299999999999,88.026 C 74.88699999999999,78.103 69.27099999999999,72.565 65.139,69.965 L 65.24,69.995 C 65.24,69.995 70.72699999999999,52.387 75.073,37.969 L 83.98299999999999,71.98 C 82.69599999999998,74.06 82.34499999999998,78.376 83.11599999999999,83.18 C 84.00999999999999,88.75 86.29799999999999,94.37 89.39699999999999,94.37 C 89.46199999999999,94.37 89.722,94.349 89.78599999999999,94.34 C 90.27699999999999,94.26100000000001 90.99199999999999,93.98700000000001 91.61399999999999,93.13000000000001 C 91.66199999999999,93.06500000000001 91.69899999999998,92.97200000000001 91.74499999999999,92.90100000000001 C 94.583,92.004 101.192,88.971 99.812,80.355 M 50.568,95.974 C 50.419999999999995,95.924 50.251,95.726 50.105999999999995,95.429 C 49.141999999999996,93.474 49.339999999999996,88.052 51.580999999999996,81.471 C 54.230999999999995,73.681 57.934,69.36500000000001 59.62,69.36500000000001 C 59.623999999999995,69.36500000000001 59.628,69.36500000000001 59.632,69.36500000000001 C 59.921,69.462 60.666999999999994,70.39000000000001 60.641999999999996,73.468 C 60.62,76.4 59.9,80.092 58.616,83.867 C 55.962,91.676 52.248,95.994 50.697,95.994 L 50.568,95.974 M 72.21,11.833 C 72.21,6.4270000000000005 76.607,2.029 82.014,2.029 C 87.42099999999999,2.029 91.818,6.427 91.818,11.833 C 91.818,17.239 87.42099999999999,21.637 82.014,21.637 C 81.931,21.637 81.856,21.614 81.773,21.612000000000002 C 81.681,21.264000000000003 81.6,20.971000000000004 81.541,20.802000000000003 C 81.167,19.742000000000004 80.913,19.109 80.64399999999999,18.734 C 81.90599999999999,16.758000000000003 81.621,14.931000000000001 79.16099999999999,12.472000000000001 C 77.19599999999998,10.507000000000001 74.26299999999999,11.617 72.30599999999998,12.753000000000002 C 72.273,12.445 72.21,12.147 72.21,11.833 M 75.445,19.059 C 74.5,18.199 73.72699999999999,17.167 73.17399999999999,15.998000000000001 C 74.085,15.804 75.145,15.965000000000002 75.57499999999999,16.378 C 76.085,16.795 75.938,18.098 75.445,19.059 M 71.41,17.051 C 72.03399999999999,18.311999999999998 72.86999999999999,19.445 73.88,20.404 C 72.807,20.908 71.553,21.185 70.42399999999999,20.186 C 69.849,19.221 70.544,17.924 71.41,17.051 M 5.387,64.566 C 7.747999999999999,61.434000000000005 11.460999999999999,58.043000000000006 15.841000000000001,55.018 C 22.055,50.724000000000004 28.552,47.95 32.393,47.95 C 33.443,47.95 34.202,48.178000000000004 34.476,48.574000000000005 C 35.698,50.345000000000006 31.386,57.126000000000005 21.847,63.717000000000006 C 15.636000000000001,68.009 9.14,70.78200000000001 5.297000000000001,70.78200000000001 C 4.2490000000000006,70.78200000000001 3.4910000000000005,70.55600000000001 3.2170000000000005,70.15800000000002 C 2.729,69.453 3.211,67.45 5.387,64.566 M 89.643,91.702 C 89.51,91.885 89.416,91.934 89.401,91.93599999999999 L 89.39699999999999,93.154 L 89.39699999999999,91.93599999999999 C 88.67599999999999,91.93599999999999 86.48499999999999,88.826 85.52,82.79599999999999 C 84.807,78.353 85.18599999999999,74.85799999999999 85.949,73.434 L 86.882,73.238 C 87.83500000000001,74.151 89.44,77.097 90.232,82.042 C 90.995,86.796 90.512,90.5 89.643,91.702"/>
</svg>
