<?xml version="1.0" ?>
<svg xmlns="http://www.w3.org/2000/svg" xmlns:cc="http://creativecommons.org/ns#" xmlns:dc="http://purl.org/dc/elements/1.1/" xmlns:ev="http://www.w3.org/2001/xml-events" xmlns:inkscape="http://www.inkscape.org/namespaces/inkscape" xmlns:rdf="http://www.w3.org/1999/02/22-rdf-syntax-ns#" xmlns:sodipodi="http://sodipodi.sourceforge.net/DTD/sodipodi-0.dtd" xmlns:svg="http://www.w3.org/2000/svg" xmlns:xlink="http://www.w3.org/1999/xlink" baseProfile="full" height="600px" version="1.1" viewBox="0 0 80 80" width="252px" x="0px" y="0px">
	<defs/>
	<path d="M 159.23621,0.7795276 C 189.38976,-6.2007877 194.20865,38.905514000000004 174.25984,53.149609 C 147.47244,71.929138 121.42912999999999,23.314961999999998 146.16141,6.4488191999999955 C 149.95274999999998,3.5078741999999954 154.55904999999998,1.6653543999999956 159.23621,0.7795275999999953 L 159.23621,0.7795276" fill="#000000" fill-opacity="1" fill-rule="nonzero" stroke="none"/>
	<path d="M 246.61416,8.0433075 C 280.87794,4.7480318 298.38188,45.673231 291.68503,74.444886 C 282.3307,111.29528 237.15353,101.12599 218.94094,77.527563 C 187.01574,51.838585 212.70472,12.22441 246.61416,8.0433075" fill="#000000" fill-opacity="1" fill-rule="nonzero" stroke="none"/>
	<path d="M 105.37795,29.161419 C 142.47637,27.496063999999997 141.27165,94.996068 102.72046999999999,87.696855 C 76.925194,79.122052 72.60236,31.25197 105.37795,29.161419" fill="#000000" fill-opacity="1" fill-rule="nonzero" stroke="none"/>
	<path d="M 55.381888,73.062996 C 90.106296,68.740161 94.216532,131.95276 57.472439,127.91339 C 35.858266,121.8189 34.122046,79.937012 55.381888,73.062996" fill="#000000" fill-opacity="1" fill-rule="nonzero" stroke="none"/>
	<path d="M 175.49999,85.925202 C 213.12991,81.17717 248.27952,106.61812 269.68109,135.38977 C 291.18897,171.53151 282.82676,217.84253 267.02360999999996,254.58663 C 253.02754999999996,287.04332 228.36612999999997,312.98033000000004 203.45668999999995,337.18112 C 183.82676999999995,366.98033000000004 178.40550999999996,405.99215000000004 185.70471999999995,440.64569 C 195.66140999999996,474.20081 213.69683999999995,505.55908 215.22045999999995,541.31105 C 219.15353999999994,580.28743 220.96061999999995,621.74413 206.71652999999995,658.84256 C 190.24014999999994,693.03547 143.11416999999994,712.66539 110.30314999999995,688.81894 C 74.267714,667.73626 60.909447,621.88586 68.811021,582.55515 C 73.842517,516.47247 60.059053,450.99215 49.110234,386.14963 C 38.338581,353.3386 34.334644,318.75592 25.688975,285.44883 C 19.27559,250.19293 14.031496,209.87009 37.452755,179.36221 C 74.278374,135.87456 123.78647,92.195913 175.49999,85.925202" fill="#000000" fill-opacity="1" fill-rule="nonzero" stroke="none"/>
	<path d="M 20.374015,126.77953 C 57.224407,121.71261 43.724408,188.50395 10.877952,170.14962 C -8.078739899999999,160.08662 -0.3188976300000004,128.97638 20.374015,126.77953" fill="#000000" fill-opacity="1" fill-rule="nonzero" stroke="none"/>
</svg>
