<?xml version="1.0" ?>
<svg xmlns="http://www.w3.org/2000/svg" xmlns:cc="http://creativecommons.org/ns#" xmlns:dc="http://purl.org/dc/elements/1.1/" xmlns:ev="http://www.w3.org/2001/xml-events" xmlns:inkscape="http://www.inkscape.org/namespaces/inkscape" xmlns:rdf="http://www.w3.org/1999/02/22-rdf-syntax-ns#" xmlns:sodipodi="http://sodipodi.sourceforge.net/DTD/sodipodi-0.dtd" xmlns:svg="http://www.w3.org/2000/svg" xmlns:xlink="http://www.w3.org/1999/xlink" baseProfile="full" height="302px" version="1.1" viewBox="0 0 80 80" width="600px" x="0px" y="0px">
	<defs/>
	<path d="M 61.326645,16.464859 C 61.556839,16.246776 62.071747,15.86514 62.071747,15.86514 C 62.071747,15.86514 62.338291000000005,16.246776 62.471563,16.440629 C 62.120207,16.773804000000002 61.750687000000006,17.088809 61.399331000000004,17.415929000000002 C 61.526548000000005,17.676413000000004 61.690111,17.924782 61.78097700000001,18.209501000000003 C 62.023286000000006,18.797105000000002 61.84760700000001,19.469521000000004 61.50837800000001,19.978373000000005 C 61.07827100000001,20.517517000000005 60.38769100000001,20.784056000000003 59.727385000000005,20.929443000000006 C 59.224593000000006,21.050600000000006 58.103530000000006,20.831203000000006 58.103530000000006,20.831203000000006 C 58.103530000000006,20.831203000000006 51.750477000000004,26.723221000000006 48.629532000000005,29.519386000000004 C 48.629532000000005,29.519386000000004 48.902131000000004,29.979778000000003 48.962706000000004,30.240262000000005 C 49.035406,30.585552000000003 48.841556000000004,30.900557000000006 48.647701000000005,31.167101000000006 C 48.320582,31.645669000000005 47.86625000000001,32.05154 47.66028800000001,32.608853 C 47.35133900000001,33.341845000000006 47.33922000000001,34.159648000000004 47.11508200000001,34.916869000000005 C 47.03633200000001,35.189469 46.848546000000006,35.419667000000004 46.61834400000001,35.583225000000006 C 46.62444400000001,35.86793900000001 46.660754000000004,36.152658 46.660754000000004,36.43737300000001 C 46.612284,37.06738300000001 46.260938,37.64893200000001 46.303343000000005,38.297112000000006 C 46.357863,38.80596500000001 46.436615,39.357223000000005 46.781912000000005,39.76309500000001 C 46.824312000000006,39.18760600000001 46.83038200000001,38.612117000000005 46.848552000000005,38.03056800000001 C 47.86625600000001,37.93969800000001 48.89002300000001,37.95181800000001 49.907726000000004,38.03666800000001 C 50.071290000000005,38.175995000000015 49.992536,38.43647900000001 50.01677,38.618217000000016 C 50.00462,41.09585000000001 50.156097,43.56742400000002 50.022870000000005,46.038997000000016 C 49.441329,46.038997000000016 48.85978000000001,46.051127000000015 48.284290000000006,46.069277000000014 C 48.284290000000006,46.117747000000016 48.284290000000006,46.20860500000001 48.284290000000006,46.25707000000001 C 51.443267000000006,47.04257000000001 58.22006900000001,48.59510500000001 60.617935,45.62099400000001 C 61.132848,44.99704500000001 61.690162,44.34886000000001 61.871895,43.53711700000001 C 62.029397,42.67691400000001 61.774975000000005,41.78036000000001 61.272175000000004,41.07765900000001 C 60.460433,39.799464000000015 59.460897,38.65454600000001 58.546173,37.44904800000001 C 57.370965000000005,35.77709700000001 55.941328000000006,34.27476800000001 54.990253,32.45137500000001 C 54.245146000000005,30.918756000000013 54.130050000000004,29.131708000000014 54.457170000000005,27.465818000000013 C 54.52987,27.053891000000014 54.54198,26.563209000000015 54.905447,26.278494000000013 C 55.396124,25.848393000000012 55.971618,25.52732800000001 56.498641,25.145687000000013 C 60.544005,22.52162900000001 65.226823,20.711072000000012 69.795478,19.784549000000013 C 70.32856100000001,19.730029000000012 70.849529,19.336277000000013 71.394732,19.493779000000014 C 71.25540000000001,20.057153000000014 71.09184300000001,20.632642000000015 70.776838,21.123319000000013 C 70.51635399999999,21.601887000000012 70.013556,21.862371000000014 69.6198,22.213721000000014 C 69.18969799999999,22.595362000000012 68.765652,22.977003000000014 68.353725,23.376814000000014 C 67.572268,24.212792000000015 67.29361399999999,25.388000000000012 67.25120799999999,26.502633000000014 C 67.16639799999999,27.683901000000013 67.45111599999998,28.846994000000013 67.87515799999998,29.937396000000014 C 68.32949499999998,31.282222000000015 69.33508599999999,32.330218000000016 70.21346399999999,33.40850500000001 C 70.91010999999999,34.28082300000001 71.71579299999999,35.05622000000001 72.49725,35.84979300000001 C 78.161493,41.10628000000001 79.225927,47.23782700000001 78.488394,54.41084100000001 C 78.433874,54.76824600000001 77.725112,54.96815400000001 77.725112,54.96815400000001 L 0.42780662,55.1074 C 0.42780662,55.1074 0.47626662000000003,54.041229 0.62771362,53.526316 C 0.88819862,52.981117000000005 1.1910876,52.454089 1.5303236,51.951291000000005 C 1.8877326,51.40003300000001 2.5601466,51.218300000000006 3.0992886,50.921471000000004 C 4.0200726,50.382327000000004 4.9772006,49.91588 5.9827916000000005,49.564524000000006 C 5.782888600000001,48.752782 5.237685600000001,48.092487000000006 4.783353600000001,47.407956000000006 C 4.492579600000001,46.983909000000004 4.2744996,46.51746200000001 3.947378600000001,46.123706000000006 C 3.426409600000001,45.47552100000001 3.075058600000001,44.70618400000001 2.560146600000001,44.058004000000004 C -1.1592795999999992,36.475532 13.829947,36.273950000000006 17.341138,38.908888000000005 C 18.068070000000002,39.538898 18.480001,40.44756700000001 18.782891,41.344121 C 19.170586999999998,42.616256 18.534522,43.906561 17.837875999999998,44.942442 C 17.425945,45.705724 16.711129,46.299388 16.450644999999998,47.141416 C 16.965557999999998,47.123276 17.41989,46.838526 17.874222,46.620447999999996 C 18.964624,46.063134 19.982329,45.384659 21.012155,44.724363 C 22.320636,43.948966 23.54431,43.052412 24.840675,42.252784999999996 C 25.391933,41.883258999999995 26.046173,41.719702 26.645893,41.447101999999994 C 31.416814000000002,40.077968999999996 34.130825,36.201806999999995 37.562017,32.626971 C 38.331354,31.694070999999997 39.300599,30.967135 40.185038,30.155392 C 40.845338999999996,29.604134 41.505632,29.04076 42.232571,28.574313 C 42.474879,28.41075 42.723246,28.259308 42.929215,28.053345 C 43.171523,27.695934 43.238161,27.253717 43.468354,26.890247 C 45.248568999999996,24.063228 48.239262,20.88028 51.809925,21.577574 C 52.161274999999996,21.692670999999997 52.597437,21.868349 52.700418,22.268159999999998 C 52.748888,22.492297999999998 52.476279999999996,22.577105 52.336953,22.667970999999998 C 51.373758,23.110193 50.337879,23.400966999999998 49.43527,23.958281 C 48.738626000000004,24.491364 48.066215,25.151665 47.799671000000004,26.011868 C 47.75726100000001,26.684283 47.793571,27.362754 47.605824000000005,28.023054 C 47.71486300000001,28.101803999999998 47.817848000000005,28.186611999999997 47.92688400000001,28.271423 C 48.550838000000006,27.726225 49.144498000000006,27.144675999999997 49.76239300000001,26.587356999999997 C 50.25913100000001,26.139084999999998 50.68317700000001,25.618111999999996 51.22232100000001,25.218300999999997 C 51.428284000000005,25.157720999999995 51.84627000000001,25.188020999999996 51.84627000000001,25.188020999999996 C 51.84627000000001,25.188020999999996 58.453046000000015,19.340187999999998 61.32669700000001,16.464815999999995 M 44.47995600000001,36.921935999999995 C 43.93475800000001,37.715503999999996 43.104842000000005,38.218301 42.402139000000005,38.848310999999995 C 42.22646100000001,39.308702999999994 42.153772000000004,39.841787 42.341559000000004,40.314294 C 42.438479,40.550548 42.735316000000005,40.56266299999999 42.941281000000004,40.611129 C 43.001861000000005,40.405159999999995 43.068494,40.193137 43.135132000000006,39.987173999999996 C 43.48648000000001,39.987173999999996 43.862064000000004,39.962964 44.177068000000006,40.156791 C 44.492073000000005,39.859961999999996 44.710157,39.460146 44.74044000000001,39.023989 C 44.807080000000006,38.315228 44.74654000000001,37.582237 44.479955000000004,36.921936 M 44.092261,42.97366 C 44.068041,43.234144 44.043791,43.494633 44.025621,43.761172 C 43.849943,43.803582 43.674274000000004,43.852042000000004 43.498596,43.894444 C 44.098314,44.160989 44.601110999999996,44.597145 45.188715,44.88792 C 45.727858000000005,45.202925 46.273061,45.52399 46.884897,45.687547 C 46.903027,44.766763000000005 46.860677,43.845984 46.818257,42.925199 C 45.927767,43.137223 45.000925,42.943399 44.092257000000004,42.973669 L 44.092261,42.97366" fill="#000000" stroke="none"/>
</svg>
