<?xml version="1.0" ?>
<svg xmlns="http://www.w3.org/2000/svg" xmlns:cc="http://creativecommons.org/ns#" xmlns:dc="http://purl.org/dc/elements/1.1/" xmlns:ev="http://www.w3.org/2001/xml-events" xmlns:inkscape="http://www.inkscape.org/namespaces/inkscape" xmlns:rdf="http://www.w3.org/1999/02/22-rdf-syntax-ns#" xmlns:sodipodi="http://sodipodi.sourceforge.net/DTD/sodipodi-0.dtd" xmlns:svg="http://www.w3.org/2000/svg" xmlns:xlink="http://www.w3.org/1999/xlink" baseProfile="full" height="536px" version="1.1" viewBox="0 0 80 80" width="600px" x="0px" y="0px">
	<defs/>
	<path d="M 66.881683,4.9754349 C 65.234224,5.1340384 63.541512,4.9950149 61.894074999999994,5.1416892 C 60.810835999999995,5.1754232 59.751993999999996,5.1744602 58.66875499999999,5.2081942 C 58.13840299999999,5.265226200000001 57.61435099999999,5.252034200000001 57.07272099999999,5.274699200000001 C 54.66926299999999,5.2972612 52.238810999999984,5.4183427 49.82406299999999,5.4077026 C 48.32331099999999,5.5317936 46.83596699999999,5.495590600000001 45.33521599999999,5.5407051 C 43.800606999999985,5.68804 42.24796299999999,5.5715611 40.71336499999999,5.7069584 C 39.42700399999999,5.7406924 38.13135399999999,5.7296244000000005 36.856281999999986,5.740154400000001 C 35.38937699999999,5.864245500000001 33.934091999999985,5.839427400000001 32.46718699999999,5.873156900000001 C 30.77460299999999,6.0198011000000005 29.072409999999987,5.892736900000001 27.379825999999987,6.039410200000001 C 26.341700999999986,6.073144200000001 25.292372999999987,6.0721822 24.254258999999987,6.105915200000001 C 23.48694899999999,6.184971200000001 22.727267999999988,6.138469200000001 21.959958999999987,6.172420200000001 C 20.00784799999999,6.172420200000001 18.071219999999986,6.328033800000001 16.107831999999988,6.305422800000001 C 14.539365999999987,6.418874800000001 12.932720999999988,6.415815800000002 11.352976999999989,6.438425800000002 C 9.344443099999989,6.6077438000000015 7.343132499999989,6.435225800000002 5.334597499999989,6.637930800000002 C 5.097639499999989,6.852319800000002 4.8851859999999885,7.133690800000002 4.603081599999989,7.302944800000002 C 4.637024599999989,7.494776800000002 4.554987599999989,7.799843800000002 4.769335199999989,7.901456800000003 C 5.107854199999989,8.059453800000004 5.483560699999989,8.021957800000003 5.833358299999989,8.100962800000003 C 5.901030299999989,8.597466800000003 6.282769699999989,8.947594800000003 6.564874199999989,9.331238800000003 C 7.083925899999989,10.087269000000003 7.485254099999989,10.966269000000004 7.462643599999989,11.891544000000003 C 7.451364599999989,12.354182000000003 7.555958599999989,12.848611000000004 7.296389999999989,13.254823000000004 C 7.093278699999989,13.615900000000003 6.789361699999989,13.901951000000004 6.6313755999999895,14.285596000000004 C 6.428264199999989,14.308146000000004 6.14511709999999,14.270066000000003 6.06611329999999,14.518351000000003 C 5.94199499999999,14.687605000000003 5.995356299999989,14.949951000000002 6.23236689999999,14.983861000000003 C 8.25218099999999,15.581906000000004 10.29743499999999,16.114854 12.317247999999989,16.712898000000003 C 12.81373199999999,16.904093000000003 13.339007999999989,16.712898000000003 13.84678099999999,16.712898000000003 C 16.13741099999999,16.690348000000004 18.43905299999999,16.591733 20.72968199999999,16.546645 C 39.348063999999994,16.027593000000003 57.97251099999999,15.524885000000001 76.59089399999999,15.017112000000001 C 76.97455899999999,15.028412000000001 77.21724099999999,14.698884000000001 77.521914,14.518351000000001 C 78.052255,14.191111000000001 78.295597,13.564295000000001 78.41968299999999,12.988818 C 78.41968299999999,12.108669 78.610271,11.24216 78.48619299999999,10.362011 C 78.40649299999998,9.7414088 78.46481299999999,9.1318728 78.41968299999999,8.4999708 C 78.250418,8.1501759 77.967857,7.8635379 77.82117,7.5024509 C 77.663184,7.1300849 77.495877,6.6741939 77.089655,6.5049289 C 76.627017,6.222878 76.067894,6.3511789 75.560121,6.2721739 C 72.942263,5.8659517 70.330809,5.4481202 67.712951,5.0418979 C 67.430858,4.996784 67.163767,4.9527364 66.881683,4.9753924 L 66.881683,4.9754349 M 6.764378499999992,8.1675049 C 8.231282899999993,8.359337900000002 9.708530399999992,8.5189719 11.186723999999991,8.699515900000002 C 11.434959999999991,8.834923900000001 11.516825999999991,9.127571900000001 11.652233999999991,9.3645299 C 10.377163,9.3538859 9.1254458,9.1003229 7.8616523,8.9987729 C 7.3425899,9.0094159 7.1254653,8.4496089 6.7643785,8.1675049 L 6.764378499999992,8.1675049 M 8.027906199999993,9.9630439 C 9.359402999999993,10.019433900000001 10.664522999999994,10.30503 11.984740999999993,10.395303 C 12.176552999999993,10.846661000000001 12.403295999999992,11.262694 12.550002999999993,11.725331 C 11.150802999999993,11.589923 9.748325199999993,11.363181 8.360412899999993,11.160069 C 8.2250051,10.776414 8.1294563,10.357966 8.0279062,9.9630439 L 8.027906199999993,9.9630439 M 8.3604129,12.12434 C 9.7596145,12.237126 11.150803,12.520955 12.550003,12.656351 L 12.550003,13.986381000000002 L 8.327162000000001,13.188363 C 8.349827,12.838566 8.37238,12.474148 8.360358,12.12434 L 8.3604129,12.12434 M 7.894903,14.052882 C 9.4295008,14.312408 10.960183,14.624029 12.483502000000001,14.917401 C 12.359410000000002,15.188227 12.272708000000002,15.477247 12.283998000000002,15.78192 C 10.715532000000003,15.364417999999999 9.108293800000002,14.992319 7.562395800000002,14.518391999999999 C 7.675182200000002,14.360426999999998 7.7933419000000015,14.210847 7.894903000000002,14.052881999999999 L 7.894903,14.052882" fill="#000000" stroke="none"/>
	<path d="M 78.25343,15.050404 C 77.98896699999999,15.092214 77.74194299999999,15.413757 77.521914,15.549165 C 77.014141,16.023038 76.280497,15.858529 75.659874,15.914922 C 54.705737,16.490399 33.441917,16.77117 12.487758,17.43692 C 9.6455962,16.651511 7.0620509,15.484875 4.1428044,14.664164 C 4.1710004000000005,14.788287 3.4850173,15.149652999999999 3.8286188,15.513838999999999 C 4.1722203,15.878025 5.5454071,16.24503 5.5341018,16.380432 C 5.5115448,16.989777 5.7663248000000005,17.566648 5.8001076000000005,18.175971999999998 C 5.8345826,19.044819999999998 5.665242600000001,19.922628999999997 5.766909600000001,20.802777999999996 C 5.800638600000001,21.209000999999997 5.945005800000001,21.615542999999995 5.899912400000001,22.033054999999997 C 5.098369300000001,22.327792 3.584950600000001,22.503092 3.584950600000001,22.503092 L 3.234963,23.161693 C 3.234963,23.161693 8.3871201,24.087151 10.688016,24.493608 C 17.097255999999998,25.599415999999998 23.486406,26.702786999999997 29.906934,27.752178999999998 C 30.753225999999998,27.966600999999997 31.620948,27.686849 32.46724,27.619176 C 47.553768,25.712191999999998 62.656904999999995,23.807037 77.75472199999999,21.900053 C 78.03682699999999,21.866213 78.38408099999998,21.794395 78.519489,21.501043 C 79.00469399999999,20.496776 79.414853,19.426081 79.55026099999999,18.308974 C 79.55026099999999,17.744775999999998 79.583991,17.188664 79.55026099999999,16.613187 C 79.31330299999999,16.060278 78.91442199999999,15.568263 78.519489,15.116905 C 78.42361899999999,15.057635 78.34163699999999,15.036465 78.25348299999999,15.050405 L 78.25343,15.050404 M 6.3653698,16.679689 L 9.8234449,17.810213 L 7.8616523,17.710513 L 6.5981248,17.57751 L 6.3653698,16.67974 L 6.3653698,16.679689 M 29.707376,18.042968 L 30.638397,19.506 L 17.105354,18.475228 L 29.707376,18.042968 M 6.7311278,18.57498 C 7.9385069,18.58562 9.1480773,18.728742 10.355457000000001,18.807735 C 16.606731000000003,19.304219 22.857601000000003,19.840763000000003 29.108864,20.337268 C 29.718187,20.404948 30.32833,20.448193000000003 30.937653,20.436968 C 31.039161,20.730352 31.059338,21.030087 31.070657,21.334738 C 29.299079,21.244398 27.544068,20.982663000000002 25.783791,20.835977 C 22.319641,20.4749 18.884995,20.13304 15.409567,19.771952 C 12.53217,19.501148 9.6417739,19.155681 6.7643785,18.907434 C 6.7537382,18.783342 6.7422468,18.699045 6.7311809,18.574926 L 6.7311278,18.57498 M 6.6646258000000005,19.805257 C 14.834154000000002,20.64027 23.012171,21.486009000000003 31.170408,22.332312 C 31.238087999999998,22.670820000000003 31.292105999999997,23.013286 31.303411999999998,23.363084 C 23.088758999999996,22.358816 14.846027999999997,21.397344 6.6313751,20.370519 C 6.6420151,20.189965 6.664573099999999,19.985811 6.664573099999999,19.805257 L 6.6646258000000005,19.805257 M 6.7976289,21.368041 C 8.1291154,21.435721 9.4229783,21.664892000000002 10.754465,21.8003 C 17.569938,22.624013 24.376908999999998,23.459697 31.203659,24.260853 C 31.191688999999997,24.576804 31.139608999999997,24.865251 31.004154999999997,25.158623000000002 C 30.281981,25.135963000000004 29.565020999999998,24.971589 28.842857999999996,24.892617 C 21.767881,23.88835 14.681924,22.904319 7.5956465,21.900053 C 7.324842,21.877387 7.0571551,21.812797 6.7976292,21.733798 C 6.7869892,21.643468 6.7976292,21.458312 6.7976289,21.368041 M 6.5316231,22.73132 C 6.926546,22.73132 7.3117329,22.75207 7.6953984,22.83102 C 15.312006,23.902980999999997 22.922038,24.995658 30.538645000000002,26.05634 C 30.403237,26.315866 30.285727,26.583551999999997 30.172886000000002,26.854357999999998 C 22.285454,25.646976999999996 14.385805000000001,24.296760999999996 6.498372700000001,23.066815 C 6.295261300000001,23.021704999999997 6.509012700000001,22.844106999999997 6.531569700000001,22.731267 L 6.5316231,22.73132" fill="#000000" stroke="none"/>
	<path d="M 74.994859,22.73132 C 74.148578,22.69748 73.33605800000001,22.907012 72.50105500000001,22.997326 C 58.88141000000001,24.881722 45.28879200000001,26.765532 31.66916900000001,28.649949 C 31.33065000000001,28.695169 30.97690600000001,28.783611 30.638397000000012,28.749648999999998 C 28.246207,28.208018 25.837737,27.8597 23.42299,27.419619 C 15.826883,26.328509 9.4852534,24.7936 2.7077905,23.496033 C 2.2789573,23.563713 2.2243835,24.225145 2.6080915,24.360553 C 3.2963974,24.653935999999998 4.0691761,24.71202 4.8026391,24.892564 C 4.904147,25.851685 5.510342100000001,26.660002 5.6006564,27.619123000000002 C 5.6570494,28.172043000000002 5.8233033,28.695500000000003 5.76691,29.248409000000002 C 5.6540704,29.778760000000002 5.4575454,30.291534000000002 5.4011521,30.844443000000002 C 4.9046683,31.182962000000003 4.1798877,31.004089 3.6721146,31.376454000000003 C 3.5706068,31.602134000000003 3.5455916,31.950633000000003 3.8051175,32.074719 C 4.0646433,32.221406 4.354281,32.283661 4.6363856000000006,32.373976 C 6.216130000000001,32.87046 7.8114942,33.351803 9.3912385,33.837008 C 13.340583,34.89769 17.279130000000002,35.935143999999994 21.228496,36.995825999999994 C 21.420328,37.05285599999999 21.623898,37.140671999999995 21.827009,37.09552599999999 C 22.58304,36.93755099999999 23.353999,36.864633999999995 24.121309,36.76301899999999 C 33.98342,35.56691899999999 43.852339,34.334790999999996 53.71445,33.13868999999999 C 60.733013,32.26984099999999 67.754874,31.47040799999999 74.762157,30.54513499999999 C 75.134523,30.53382499999999 75.402189,30.26257199999999 75.560174,29.94662099999999 C 75.85354600000001,29.35986599999999 76.335049,28.80614799999999 76.39144300000001,28.11783199999999 C 76.44720300000002,27.19255699999999 76.43719300000001,26.28329599999999 76.35824300000002,25.35802199999999 C 76.25673900000001,24.647135999999993 75.83103400000002,24.00616799999999 75.56023000000002,23.36297699999999 C 75.42482200000002,23.11474099999999 75.32219700000002,22.75382399999999 74.99496700000002,22.73121399999999 L 74.994859,22.73132 M 5.7336061,25.092122 C 11.070884,26.107667 16.389937,27.201536 21.727204,28.25094 C 22.291391,28.30733 22.652212,28.808999 22.990731,29.215211 C 17.924279,28.267369 12.861613,27.28153 7.7951508,26.322399 C 7.2309526,26.232062 6.6748409,26.068277 6.0993641,26.023142 C 5.9752776,25.707191 5.8464352,25.408073 5.7336061,25.092122 M 6.4318712,27.020664 C 11.870709999999999,28.013652 17.307869,29.097423 22.757976,30.11298 C 22.91594,30.135650000000002 23.065521,30.11298 23.223485999999998,30.11298 C 23.246145999999996,30.586896 23.256686,31.080124 23.256686,31.542761 C 21.631814,31.136549 20.004986,30.883758999999998 18.368828,30.545239 C 14.780559,29.834355 11.183861,29.116799 7.5955933,28.417194 C 7.2570744,28.349521 6.9365906,28.285999 6.5980716,28.184439 C 6.5754079,27.789505 6.4769964,27.415607 6.4318181,27.020664 L 6.4318712,27.020664 M 6.797629199999999,29.18196 C 8.6256205,29.61075 10.477979,29.89559 12.317248,30.279233 C 15.758832,30.956272000000002 19.205363,31.63049 22.658223999999997,32.307528000000005 C 22.827477999999996,32.363918000000005 23.020980999999995,32.28613800000001 23.190234999999998,32.24102800000001 C 23.167575,32.624672000000004 23.113094999999998,33.03243700000001 23.090535,33.40480300000001 C 18.012794,32.310268 12.961417,31.185563 7.8949552,30.079734 C 7.4661645,30.000674 7.0602185,29.892104 6.6314278,29.846979 C 6.6651568,29.6213 6.6848418,29.396366 6.7976814,29.181965 L 6.797629199999999,29.18196 M 6.298868399999999,30.744744 C 6.795362899999999,30.778474 7.287973599999999,30.909189 7.761900099999999,31.010749 C 12.794505,32.093989 17.825122999999998,33.186081 22.857727999999998,34.26932 C 22.778678,34.7094 22.627983999999998,35.159876 22.45872,35.566099 C 21.025672,35.193733 19.602424,34.851873 18.169376,34.502075 C 17.007134,34.219981999999995 15.817726,34.021212 14.678051,33.637557 C 11.890937,32.779996 9.0972593,31.901571 6.2988684,31.044 L 6.298868399999999,30.744744" fill="#000000" stroke="none"/>
	<path d="M 74.529349,31.343257 C 74.160686,31.360707 73.795982,31.450923 73.432075,31.47626 C 56.793627,33.873578 21.826955999999996,37.893648999999996 21.826955999999996,37.893648999999996 C 21.826955999999996,37.893648999999996 15.160914999999996,36.29246499999999 11.685484999999996,35.333344 C 11.425958999999997,35.254394 11.100654999999996,35.284603999999995 10.953968999999997,35.532847999999994 C 10.796003999999996,36.040620999999994 11.185520999999998,36.47742399999999 11.253224999999997,36.96262899999999 C 11.320904999999996,37.69607099999999 11.199704999999996,38.43501299999999 11.086970999999997,39.15717599999999 C 10.737173999999996,39.37156699999999 10.226666999999997,39.36136299999999 9.989698199999996,39.722438999999994 C 16.996981999999996,41.629422999999996 23.985581999999994,43.634947999999994 31.004154999999997,45.50806399999999 C 31.218545,45.56382399999999 31.443500999999998,45.57520399999999 31.669168999999997,45.54126399999999 C 45.853002,42.66387999999999 60.024299,39.81800199999999 74.196842,36.92932799999999 C 74.828744,36.82781999999999 75.06784,36.15100599999999 75.327366,35.66580099999999 C 75.631953,34.72924699999999 75.492949,33.73212999999999 75.52687,32.772986999999986 C 75.50432,32.434468999999986 75.6088,32.02430899999999 75.360617,31.742215999999985 C 75.23649900000001,31.584250999999984 75.07564,31.433520999999985 74.89510700000001,31.343206999999985 C 74.770975,31.326286999999986 74.65223300000001,31.337906999999987 74.52934900000001,31.343206999999985 L 74.529349,31.343257 M 12.117743999999995,36.397366000000005 C 14.126278999999995,36.927697 16.094339999999995,37.507589 18.102874999999994,38.026652000000006 C 16.207179999999994,37.59786100000001 14.345946999999994,37.169337000000006 12.450250999999994,36.763125 C 12.247138999999994,36.752485 12.151589999999995,36.589189000000005 12.117743999999995,36.397366000000005 M 12.150993999999995,37.627643000000006 C 17.409290999999996,38.789886 22.675523999999996,40.01194900000001 27.945086999999994,41.18547100000001 C 29.411991999999994,41.512710000000006 30.855988999999994,41.91218800000001 32.334182999999996,42.182992000000006 C 32.322213,42.510222000000006 32.303853,42.831908000000006 32.134677999999994,43.114012 C 25.544895999999994,41.353725000000004 18.973542999999992,39.620697 12.383748999999995,37.860398 C 12.270961999999994,37.826458 12.196139999999994,37.729138000000006 12.150993999999995,37.627643000000006 M 29.773877,37.860398 C 29.996726,37.844438000000004 30.245261,37.859802 30.538643999999998,37.893598000000004 C 31.407493,38.029005000000005 32.110907999999995,38.775747 32.20118,39.655886 C 30.474749,39.306089 26.016545,38.45886 26.016545,38.45886 C 26.016545,38.45886 28.485749000000002,38.171233 29.042361,37.960099 C 29.335745,37.926259 29.551028,37.876359 29.773877,37.860399 L 29.773877,37.860398 M 12.084491999999997,38.758168000000005 C 13.506271999999997,39.074119 14.896854999999997,39.505644000000004 16.307335,39.855441000000006 C 21.441502,41.22079600000001 26.546279999999996,42.60250500000001 31.669168,43.94528100000001 C 31.567660999999998,44.204806000000005 31.398491,44.64653500000001 31.037405,44.47729100000001 C 24.707159,42.68314600000001 18.37021,40.89609800000001 12.051241000000001,39.090675000000005 C 12.051241000000001,39.011615000000006 12.072521000000002,38.837161 12.084441000000002,38.758168000000005 L 12.084491999999997,38.758168000000005 M 24.553514,38.857868 C 24.553514,38.857868 29.501103999999998,39.971932 31.403162000000002,40.45390200000001 C 31.696535,40.532962000000005 31.996270000000003,40.59758800000001 32.300932,40.62015600000001 C 32.312902,40.82326700000001 32.322852000000005,41.01555700000001 32.334132000000004,41.218669000000006 C 29.140796000000005,40.57549900000001 25.962549000000003,39.76766000000001 22.757924000000003,39.09062300000001 C 23.818606000000003,38.88751100000001 24.553463000000004,38.85786800000001 24.553463000000004,38.85786800000001 L 24.553514,38.857868" fill="#000000" stroke="none"/>
	<path d="M 68.510968,38.558664 C 68.29092800000001,38.576974 68.060344,38.635274 67.845954,38.691666 C 55.74965,41.275678 43.665732000000006,43.855073 31.56941700000001,46.439083999999994 C 31.29861300000001,46.495473999999994 31.01964700000001,46.36247399999999 30.771400000000007,46.306081999999996 C 23.764117,44.297557 16.730977,42.362121 9.7236923,40.387453 C 9.2836238,40.308501 9.0177349,39.950523 8.825923,39.589435 C 8.284292899999999,39.555595000000004 7.760218999999999,39.621465 7.2298886,39.689135 C 5.6050083,39.835821 3.9781915,40.007959 2.3420325,40.154645 C 1.9358205000000002,40.188485 1.3700901,40.157845 1.1782573000000003,40.620155000000004 C 1.0993063000000003,40.94738400000001 1.3955202000000002,41.171713000000004 1.6437674000000002,41.31842 C 2.5577633000000004,41.871329 3.4456479,42.483270000000005 4.3370759,43.047457 C 4.3145189,43.837336 4.1814625,44.618382000000004 4.1708222,45.408259 C 4.1708222,45.712921 4.1161322,46.034607 4.0711232,46.339279 C 3.6084859,46.373118999999996 3.1704808,46.460445 2.7078434999999996,46.505531999999995 C 2.4483176999999996,46.573212 2.1123312,46.556492 1.9430769999999997,46.80478899999999 C 1.7624697999999996,47.019178999999994 1.8397603999999996,47.323117999999994 2.042776,47.46980299999999 C 2.7310925,48.056569999999994 3.4937949,48.58951799999999 4.1708221000000005,49.198840999999994 C 4.554476900000001,49.571206999999994 4.9503361,49.913661999999995 5.367848100000001,50.22961299999999 C 6.3156905000000005,50.85022599999999 7.169728600000001,51.63609199999999 8.0611569,52.324408999999996 C 9.5393395,53.475362999999994 10.938221,54.709906 12.450251000000002,55.81573399999999 C 12.901610000000002,56.22194599999999 13.340211000000002,56.66174999999999 13.780280000000001,57.07926199999999 C 14.017249000000001,57.33876699999999 14.406628000000001,57.212796999999995 14.711302000000002,57.17896199999999 C 17.001920000000002,56.77273999999999 19.303583000000003,56.38816899999999 21.5942,55.98193599999999 C 23.24166,55.62085999999999 24.911783,55.35558799999999 26.581809,55.050915999999994 C 27.698895,54.825236999999994 28.833718,54.72081299999999 29.973382,54.58540599999999 C 44.721402,52.11424399999999 59.448811,49.63036699999999 74.196842,47.17049499999999 C 74.546639,47.11410499999999 74.98117500000001,47.077384999999985 75.12786200000001,46.704984999999986 C 75.47771300000001,45.666859999999986 75.63845500000001,44.56290399999999 75.593372,43.47966499999998 C 75.514422,43.03958499999998 75.406902,42.61167799999998 75.294115,42.18288699999998 C 75.158719,41.56228499999998 74.80077100000001,41.02872999999998 74.496098,40.48709999999998 C 74.360691,40.216294999999974 74.06863700000001,40.10059399999998 73.797833,40.021589999999975 C 72.251946,39.55895199999998 70.721881,39.098974999999975 69.175983,38.625059999999976 C 68.96159300000001,38.55174999999998 68.731008,38.540259999999975 68.510968,38.558549999999975 L 68.510968,38.558664 M 73.764582,41.118969 L 73.997338,41.584479 L 37.321792,46.505586 L 36.390772000000005,46.671839 L 36.29107200000001,46.705039 L 36.257872000000006,46.705039 C 36.059326000000006,46.731958999999996 19.721975000000008,48.935327 14.013138000000005,49.664353 C 14.001168000000005,49.517666999999996 13.946628000000006,49.198843 13.946628000000006,49.198843 L 35.65935,46.339281 L 35.692550000000004,46.339281 L 73.764626,41.118916999999996 L 73.764582,41.118969 M 5.2015945,43.579522 C 8.024277999999999,45.480048 10.479713,46.779455 12.949012,48.766634999999994 C 13.242395,49.646784 12.955411999999999,49.40474 13.215018,50.296167999999994 C 10.416627,48.253786999999996 7.9560627,46.618818999999995 5.135093100000001,44.610294999999994 C 5.236707300000001,44.15894599999999 5.179143100000001,44.042159999999996 5.2015951000000005,43.579522 L 5.2015945,43.579522 M 5.0685917,45.607817 L 13.348019999999998,51.426693 C 13.348019999999998,51.426693 13.481023999999998,53.184778 13.481023999999998,53.421736 C 10.693910999999998,51.334218 5.002090199999998,46.904595 5.002090199999998,46.904595 L 5.068592199999998,45.607817 L 5.0685917,45.607817" fill="#000000" stroke="none"/>
	<path d="M 67.347193,49.065892 C 67.144082,49.078522 66.93486200000001,49.143132 66.74868000000001,49.165592 C 57.653879,50.677633 48.55591700000001,52.17565999999999 39.44983800000001,53.687689999999996 C 37.949087000000006,53.91336999999999 32.804173000000006,54.815203 31.30341200000001,54.984469 C 43.42374000000001,54.41612 55.79810500000001,53.691542 68.01220800000002,52.856421999999995 C 68.13629900000002,53.082100999999994 68.16902300000001,52.973344999999995 68.07871800000001,53.255430999999994 C 68.07871800000001,53.469820999999996 67.837675,53.520776999999995 67.67971000000001,53.55468799999999 C 61.022224000000016,53.904484999999994 54.34222300000002,54.18932399999999 47.696027000000015,54.65196099999999 C 45.91316100000002,54.753468999999996 44.15876700000001,54.939375999999996 42.375911000000016,54.98446899999999 C 41.191111000000014,55.17624799999999 39.98092300000002,54.95009899999999 38.78483300000001,55.01766899999999 C 35.726905000000016,55.17563299999999 32.698813000000015,55.31392499999999 29.64088500000001,55.48317899999999 C 27.56465700000001,55.53956899999999 25.53188300000001,56.021074999999996 23.48950100000001,56.314446999999994 C 20.57824900000001,56.79965299999999 17.644515000000013,57.292272999999994 14.74456200000001,57.77747899999999 C 14.507604000000011,57.81120899999999 14.261292000000012,57.90037399999999 14.01304500000001,57.84397899999999 C 13.358591000000011,57.40390899999999 12.16302300000001,56.56569299999999 11.48598500000001,56.14819099999999 C 8.86893540000001,56.36302799999999 6.49634510000001,56.58404699999999 3.67206610000001,56.61370099999999 C 3.3673725,56.500862 3.648977,56.296687 3.7052632,56.048439 C 6.1244473,55.838156 8.5285227,55.746119 11.219926,55.61618 C 9.0308538,53.833332 6.8698764,52.023099 4.6695298,50.262811 C 4.4551291,50.0597 3.9047632,50.145755 3.9047632,50.495566 C 3.5888122,52.007596 3.1341126,53.472373 2.8407402,54.984412999999996 C 2.8634032,55.92096599999999 2.6506205,56.874171999999994 2.7410411999999997,57.81072399999999 C 3.0005669999999998,58.905263999999995 3.2587629,59.963466999999994 3.4393062999999997,61.069295 C 3.4844212999999997,61.373957 3.6209138,61.823421999999994 4.0045686,61.800810999999996 C 6.9835139999999996,61.721861 9.9700674,61.547838999999996 12.949012,61.435053999999994 C 31.715167,61.20419199999999 52.19740899999999,59.45098999999999 68.510968,59.440009999999994 C 68.634315,59.082722 68.831452,58.390680999999994 68.876726,58.010228999999995 C 68.83161600000001,57.321912999999995 68.975256,56.670252 69.04298,55.98193499999999 C 68.98648,54.639148999999996 68.73004,53.279422999999994 68.876726,51.925346999999995 C 68.718762,51.47399899999999 68.681425,50.990857999999996 68.444467,50.56206699999999 C 68.207498,50.14457699999999 68.071037,49.672107999999994 67.879205,49.23203799999999 C 67.726868,49.07970199999999 67.550304,49.05309099999999 67.347193,49.06578499999999 L 67.347193,49.065892 M 70.07375300000001,55.350277999999996 C 69.89884800000002,55.367197999999995 69.74244700000001,55.430077999999995 69.674743,55.616282999999996 C 69.665143,56.612804999999994 69.689743,57.45642599999999 69.541741,58.44259399999999 C 70.218778,58.295908999999995 70.89299700000001,58.25612399999999 71.570034,58.14333899999999 C 72.066518,58.08694899999999 72.55853400000001,57.95447499999999 73.06631700000001,57.97708399999999 C 73.14537700000001,58.19147499999999 73.20942900000001,58.41642999999999 73.26582100000002,58.64209899999999 C 73.01757400000001,58.75499199999999 72.77186000000002,58.80782099999999 72.50105500000002,58.84160399999999 C 71.32643700000003,58.97979899999999 70.49114700000003,59.17105699999999 69.30898600000002,59.30711399999999 L 68.97647800000001,60.13838099999999 L 61.72782200000002,60.37113699999999 C 61.72782200000002,60.37113699999999 30.864310000000017,64.517879 13.38127100000002,66.88827799999999 C 13.12174600000002,66.94466799999998 12.807721000000019,66.84794799999999 12.64975500000002,66.62227199999998 C 12.63778500000002,66.43044999999998 12.64975500000002,66.02375899999998 12.64975500000002,66.02375899999998 L 58.07024200000002,60.27138399999998 L 14.345542000000023,62.066923999999986 C 14.345542000000023,62.066923999999986 12.565633000000023,62.109053999999986 11.685485000000023,62.23317699999998 C 10.997168000000023,62.289566999999984 10.279007000000023,62.232176999999986 9.590689800000023,62.29967699999998 C 8.733119100000023,62.42444699999998 7.8547149000000225,62.31988699999998 6.997133500000023,62.43267999999998 C 6.647336000000023,62.477049999999984 6.304869400000023,62.47651999999999 5.966361100000023,62.465879999999984 C 4.858884400000023,62.45453999999999 5.092848300000023,62.49704999999999 4.294844000000023,62.50844999999998 C 6.269522000000023,65.73564099999999 9.001805800000025,70.33315399999998 10.953916000000024,73.57162599999998 C 11.190874000000024,73.93270199999998 11.369481000000025,74.35294799999998 11.685432000000024,74.66889899999998 C 12.424762000000024,75.04787999999998 13.269524000000024,74.98241199999998 14.079484000000024,74.83514399999999 C 33.972950000000026,72.01417399999998 53.87106500000002,69.21044199999999 73.76453000000002,66.38946099999998 C 74.04661400000002,66.35562099999999 74.29533900000003,66.17279399999998 74.36304300000002,65.89069999999998 C 74.57744400000001,65.11211299999998 74.75844500000002,64.34173799999998 74.96155600000002,63.56314999999998 C 75.05189600000001,63.26977799999998 75.03986600000002,62.95875299999998 74.99475600000001,62.66538099999998 C 74.82550200000001,61.67239199999998 74.75430800000001,60.66578299999998 74.56249700000001,59.67281599999998 C 74.34809600000001,58.91678499999998 74.034698,58.167796999999986 73.79773,57.411765999999986 C 73.75262000000001,57.174807999999985 73.568582,57.03657099999999 73.36547,56.946255999999984 C 72.428907,56.46105099999998 71.497684,55.957757999999984 70.57241,55.44997399999998 C 70.437002,55.365383999999985 70.248553,55.33323799999998 70.073649,55.350273999999985 L 70.07375300000001,55.350277999999996 M 8.7594222,62.931442 C 9.0189474,62.965171999999995 9.3881953,62.838131999999995 9.557438999999999,63.097694999999995 C 10.290890999999998,64.101963 10.895616999999998,65.19761899999999 11.685484999999998,66.156762 C 11.820891999999999,66.517838 11.718034999999999,66.914921 11.751984999999998,67.287286 C 10.747722999999997,65.83168099999999 9.752393999999997,64.387047 8.759422199999998,62.931442 L 8.7594222,62.931442 M 7.925083399999999,63.082083 C 9.1775978,64.95519999999999 10.355191,66.855178 11.618983,68.717017 C 11.889787,69.11195 11.841056,69.595686 11.818487,70.047045 C 11.378418,69.573115 11.11554,68.981337 10.754465,68.451007 C 9.851747399999999,67.051806 8.975152699999999,65.649327 8.061157,64.261416 C 7.8354773,63.889052 7.5879749,63.477945999999996 7.3961422,63.083023 C 7.5702741,63.010813 7.7706954,63.082358 7.9250834,63.082083 L 7.925083399999999,63.082083 M 6.786080799999999,63.123653 C 8.410950699999999,65.685098 10.160357999999999,68.760468 11.785238,71.31062299999999 C 11.830347999999999,71.468588 11.873657999999999,72.20538099999999 11.884938,72.374646 C 11.286892,71.528365 10.819849,70.616689 10.255652,69.74784 C 9.3078086,68.280935 8.4104328,66.792399 7.4625906,65.325494 C 7.1804861,64.851567 6.4764305,63.554049 6.2620405,63.034997 C 6.7167095,63.08163699999999 6.5494032,63.083617 6.786080800000001,63.123656999999994 L 6.786080799999999,63.123653" fill="#000000" stroke="none"/>
</svg>
