<?xml version="1.0" ?>
<svg xmlns="http://www.w3.org/2000/svg" xmlns:cc="http://creativecommons.org/ns#" xmlns:dc="http://purl.org/dc/elements/1.1/" xmlns:ev="http://www.w3.org/2001/xml-events" xmlns:inkscape="http://www.inkscape.org/namespaces/inkscape" xmlns:rdf="http://www.w3.org/1999/02/22-rdf-syntax-ns#" xmlns:sodipodi="http://sodipodi.sourceforge.net/DTD/sodipodi-0.dtd" xmlns:svg="http://www.w3.org/2000/svg" xmlns:xlink="http://www.w3.org/1999/xlink" baseProfile="full" height="584px" version="1.1" viewBox="0 0 80 80" width="600px" x="0px" y="0px">
	<defs/>
	<path d="M 67.784078,51.635674 C 71.670582,54.124079 75.051722,57.700348000000005 76.410786,62.206134000000006 C 77.343389,65.034864 77.666706,68.219087 76.490326,71.014646 C 75.470055,73.135178 73.343907,74.514717 71.18812199999999,75.262723 C 69.651163,75.71043599999999 68.633123,76.989285 67.730785,78.214013 C 68.489947,76.16137599999999 70.48868999999999,75.031251 72.311238,73.999809 C 74.279194,72.954589 75.84501300000001,70.898871 75.85486300000001,68.58928 C 75.99642200000001,65.529303 74.704019,62.592261 73.10270600000001,60.038346000000004 C 71.02704600000001,56.713793 67.62343100000001,54.585261 64.19110100000002,52.882344 C 60.06573400000002,50.787686 55.51460200000002,49.84671 51.311720000000015,48.026944 C 48.95024400000001,47.05972 46.665213000000016,45.942834 44.467233000000014,44.606265 C 41.766205000000014,42.924659 38.85287500000001,41.461694 36.593468000000016,39.11254 C 35.93121600000001,38.635885 35.498319000000016,37.710269000000004 34.653441000000015,37.492601 C 33.81707500000002,37.455341 32.999786000000014,37.528481 32.17296800000001,37.546421 C 32.05395400000001,38.56747 31.914775000000013,39.603362000000004 31.655678000000012,40.603167 C 30.359453000000013,41.372583 29.008519000000014,42.196706999999996 27.821712000000012,42.856705 C 28.71190000000001,41.667044 29.609429000000013,41.276526 29.609429000000013,41.276526 L 28.908763000000015,40.759905999999994 L 25.277327000000014,42.092727999999994 C 25.277327000000014,42.092727999999994 26.910473000000014,41.10553699999999 27.910040000000013,40.375553999999994 C 26.669375000000013,39.578278 25.08684900000001,39.49952999999999 23.826009000000013,38.71712899999999 C 25.081615000000014,38.943363999999995 26.336131000000012,39.29484299999999 27.649080000000012,39.261047999999995 C 26.98791100000001,38.65915699999999 26.321432000000012,38.092279999999995 25.660262000000014,37.49039 C 26.519954000000013,37.728249999999996 27.348859000000015,38.051023 28.177763000000013,38.373796 C 28.101403000000012,37.932244 28.025046000000014,37.490694 27.94867800000001,37.049149 C 28.270368000000012,36.345481 29.87290300000001,33.897056 28.74578300000001,33.29616 C 26.19577600000001,29.20098 21.52632600000001,27.65499 18.50714300000001,23.936542000000003 C 17.30874500000001,24.632662000000003 15.99679900000001,25.132418 14.622263000000011,25.336018000000003 C 13.464279000000012,25.411228 12.763618000000012,26.487402000000003 11.91123000000001,27.146411000000004 C 12.211681000000011,26.582857000000004 12.52698500000001,26.039465000000003 12.86245800000001,25.481212000000003 C 12.773301,25.360186 12.630039,25.1235 12.5409,25.002491 C 11.063446,24.93968 9.5509632,24.87155 8.0586598,24.788575 C 9.4883804,24.575424 10.927649,24.417457 12.362681,24.169276 C 11.182528,23.32744 9.931238,22.600223 8.8572337,21.649075 C 10.090502,22.140659 11.287681,22.752178 12.531576000000001,23.1737 C 12.073165000000001,22.297996 11.594584000000001,21.437149 11.191375,20.551898 C 11.876943,21.229152000000003 12.527498000000001,21.901095 13.233236000000002,22.563489 C 13.362783000000002,22.06359 13.457320000000001,21.55839 13.601725000000002,21.078655 C 13.841522000000001,21.742053000000002 14.061138000000001,22.420319000000003 14.260601000000001,23.113429 C 14.923990000000002,22.873639 15.607568,22.618994 16.256115,22.359035 C 15.946345,21.093809 15.732102000000001,19.789331999999998 15.216431000000002,18.582463999999998 C 14.381282,17.237573 12.593919,17.091927 11.358564,16.259636 C 8.8442885,15.000512 6.9234373,12.899763 4.940998,10.968837 C 4.2352515,10.306432 3.9339597,9.1016767 4.4986561,8.4733446 C 6.117498899999999,6.672074200000001 9.2665781,7.844642500000001 11.746908999999999,8.9732196 C 14.759011999999998,10.02121 16.846446999999998,12.559265 19.594205,14.050878 C 20.347635999999998,14.989266 21.310440999999997,14.311138000000001 22.179752999999998,14.012998000000001 C 22.046041999999996,13.831484000000001 21.763762999999997,13.448288000000002 21.630052,13.266775 C 20.973039999999997,13.346295000000001 20.33088,13.445977000000001 19.659015999999998,13.505337 C 19.911685999999996,13.257035 20.144112999999997,13.023494000000001 20.396776,12.775182000000001 C 19.537076,12.53733 18.672064,12.33449 17.817686,12.061601000000001 C 18.660438999999997,11.938593000000001 19.497897,11.850600000000002 20.34066,11.727585000000001 C 19.670971,10.945282 18.986517,10.142754000000002 18.337054,9.345568100000001 C 19.298586999999998,9.9750887 20.199623,10.64919 21.166482,11.2437 C 20.756953,9.927508600000001 20.332568,8.5911743 19.983542,7.2304133 C 20.758178,8.6198799 21.417117,10.063457 22.17691,11.432755 C 22.524074,10.679204 22.821366,9.9001854 23.153679999999998,9.1264716 C 23.180089999999996,10.133737 23.08655,11.1049 23.007886,12.096231 C 23.729566,12.653561999999999 24.486269999999998,13.216192999999999 25.207943999999998,13.773513999999999 C 24.258974,14.597064999999999 23.315274999999996,15.385527999999999 22.366282999999996,16.209052 C 25.340974999999997,19.2758 26.862464999999997,23.537482 30.296793999999995,26.172306 C 31.694494999999996,27.351687 33.081582,28.601122999999998 34.499452999999995,29.765662 C 34.403062999999996,28.156575999999998 34.12625799999999,26.555958 34.545702999999996,24.971349 C 33.959888,24.345051 33.36877,23.753778 32.74263,23.157202 C 33.173556,23.150902000000002 33.589622999999996,23.124412000000003 34.02586,23.083062 C 33.484625,22.517277 32.958245000000005,21.971651 32.417005,21.405855000000003 C 33.155696000000006,21.732864000000003 33.868902000000006,22.109748000000003 34.612902000000005,22.401728000000002 C 33.89660800000001,21.218177 33.195182,20.054805 32.478888000000005,18.871254 C 33.44674500000001,19.931712 34.399742,20.972 35.38776800000001,22.0176 C 36.948122000000005,21.179302 36.54872500000001,19.672979 36.54872500000001,19.672979 C 36.54872500000001,19.672979 37.613602000000014,21.280218 36.46292500000001,22.252308000000003 C 36.63266100000001,22.905082000000004 36.48900500000001,22.374441000000004 36.673600000000015,23.047387000000004 C 37.93982600000002,23.203580000000002 38.919395000000016,21.985952000000005 38.919395000000016,21.985952000000005 C 38.919395000000016,21.985952000000005 38.043748000000015,23.935949000000004 36.86666800000002,23.900779000000004 C 36.52688600000002,24.960006000000003 36.13430800000002,27.254605000000005 36.55022700000002,28.410519000000004 C 37.20170100000002,30.139620000000004 37.15898700000002,32.193402000000006 38.38363800000002,33.686948 C 40.22805300000002,35.937323 42.22319100000002,38.13892 44.70451900000002,39.733444 C 47.86827400000002,41.789775999999996 51.19975400000002,43.566967999999996 54.59706200000002,45.264581 C 59.08969400000002,47.182032 63.790392000000026,48.790639999999996 67.78405300000003,51.635689 L 67.784078,51.635674" fill="#000000" stroke="none"/>
</svg>
