<?xml version="1.0" ?>
<svg xmlns="http://www.w3.org/2000/svg" xmlns:ev="http://www.w3.org/2001/xml-events" xmlns:xlink="http://www.w3.org/1999/xlink" baseProfile="full" enable-background="new 0 0 100 100" height="153px" version="1.1" viewBox="0 0 100 100" width="600px" x="0px" xml:space="preserve" y="0px">
	<defs/>
	<path clip-rule="evenodd" d="M 87.621,50.473 L 52.409,50.473 L 52.409,51.757 C 52.847,51.76 53.14,51.763 53.071,51.763 C 53.440999999999995,51.763 53.925999999999995,51.958999999999996 54.266,52.11 C 54.722,52.311 61.897,55.339 62.465999999999994,55.685 C 63.035,56.03 62.66499999999999,56.606 62.465999999999994,57.154 C 62.266999999999996,57.702000000000005 61.72599999999999,59.226000000000006 61.55499999999999,59.601000000000006 C 61.38399999999999,59.976000000000006 61.24199999999999,60.062000000000005 60.70099999999999,60.062000000000005 C 60.23599999999999,60.062000000000005 52.48499999999999,60.062000000000005 50.32699999999999,60.062000000000005 C 50.32699999999999,60.062000000000005 50.11899999999999,60.062000000000005 49.767999999999994,60.062000000000005 C 47.60999999999999,60.062000000000005 39.858999999999995,60.062000000000005 39.392999999999994,60.062000000000005 C 38.852,60.062000000000005 38.709999999999994,59.976000000000006 38.538999999999994,59.601000000000006 C 38.367999999999995,59.226000000000006 37.82699999999999,57.702000000000005 37.62799999999999,57.154 C 37.428999999999995,56.606 37.05899999999999,56.03 37.62799999999999,55.685 C 38.196999999999996,55.338 45.37199999999999,52.311 45.82799999999999,52.11 C 46.16799999999999,51.96 46.65399999999999,51.763 47.02399999999999,51.763 C 46.93999999999998,51.763 47.380999999999986,51.759 47.966999999999985,51.754 L 47.966999999999985,50.473 L 12.562,50.473 C 11.145999999999999,50.473 10.0,49.312 10.0,47.879 L 10.0,42.343999999999994 C 10.0,40.910999999999994 11.147,39.74999999999999 12.562,39.74999999999999 L 87.621,39.74999999999999 C 89.036,39.74999999999999 90.18299999999999,40.91199999999999 90.18299999999999,42.343999999999994 L 90.18299999999999,47.87899999999999 C 90.184,49.312 89.036,50.473 87.621,50.473 M 30.778,42.341 C 29.352,42.341 28.195,43.511 28.195,44.956 C 28.195,46.400000000000006 29.351,47.571000000000005 30.778,47.571000000000005 C 32.205,47.571000000000005 33.361,46.400000000000006 33.361,44.956 C 33.361,43.511 32.205,42.341 30.778,42.341 M 38.464,44.421 C 38.172,44.421 37.934999999999995,44.661 37.934999999999995,44.957 C 37.934999999999995,45.253 38.172,45.493 38.464,45.493 C 38.756,45.493 38.993,45.253 38.993,44.957 C 38.993,44.661 38.757,44.421 38.464,44.421 M 45.982,42.341 C 44.555,42.341 43.399,43.511 43.399,44.956 C 43.399,46.400000000000006 44.555,47.571000000000005 45.982,47.571000000000005 C 47.408,47.571000000000005 48.565,46.400000000000006 48.565,44.956 C 48.565,43.511 47.409,42.341 45.982,42.341 M 53.84,42.341 C 52.414,42.341 51.258,43.511 51.258,44.956 C 51.258,46.400000000000006 52.414,47.571000000000005 53.84,47.571000000000005 C 55.267,47.571000000000005 56.423,46.400000000000006 56.423,44.956 C 56.423,43.511 55.267,42.341 53.84,42.341" fill-rule="evenodd"/>
</svg>
