<?xml version="1.0" ?>
<svg xmlns="http://www.w3.org/2000/svg" xmlns:cc="http://creativecommons.org/ns#" xmlns:dc="http://purl.org/dc/elements/1.1/" xmlns:ev="http://www.w3.org/2001/xml-events" xmlns:inkscape="http://www.inkscape.org/namespaces/inkscape" xmlns:rdf="http://www.w3.org/1999/02/22-rdf-syntax-ns#" xmlns:sodipodi="http://sodipodi.sourceforge.net/DTD/sodipodi-0.dtd" xmlns:svg="http://www.w3.org/2000/svg" xmlns:xlink="http://www.w3.org/1999/xlink" baseProfile="full" height="600px" version="1.1" viewBox="0 0 80 80" width="514px" x="0px" y="0px">
	<defs/>
	<path d="M 64.625,1.0 C 64.165573,1.045464 63.69632,1.1981169 63.28125,1.34375 C 61.881225,1.8349787 60.193087,2.5426025 59.6875,3.9375 C 58.470284,7.295655 61.04694,11.003518 62.3125,14.34375 C 62.579133,15.047696 62.975246,15.686337 63.34375,16.34375 L 64.1875,16.15625 L 64.40625,16.625 L 63.59375,16.8125 C 63.65463,16.930062 63.725466,17.06745 63.78125,17.1875 C 64.323735,18.354571 65.25,20.75 65.25,20.75 L 66.09375,20.5625 C 66.09375,20.5625 67.262348,22.841795 67.625,24.0625 C 68.975082,25.990949 72.94182,27.548065 75.111521,29.200979 L 69.96875,33.34375 L 68.21875,31.625 L 68.625,31.3125 C 68.625,31.3125 67.048673,29.78228 65.75,28.09375 L 65.125,28.5625 L 64.78125,28.21875 L 65.4375,27.71875 C 64.903591,26.983095 64.436564,26.214381 64.21875,25.5625 C 63.767066,24.074604 63.789375,19.777371 61.5625,19.0 C 60.96508,18.791445 60.100451,19.335256 59.90625,19.9375 C 59.639825,20.763739 61.0,22.3125 61.0,22.3125 L 60.875,22.40625 C 60.875,22.40625 59.335191,20.725955 59.78125,19.84375 C 59.85184,19.704172 59.284836,19.86887 59.0625,19.78125 C 57.77557,19.273059 57.11828,17.248081 55.84375,17.1875 C 54.96501,17.14571 54.130521,17.79273 53.5,18.40625 C 52.436628999999996,19.440956 51.215494,20.803109 51.34375,22.28125 C 51.474839,23.792171 52.2663,25.054331 53.3125,26.21875 C 50.806284,25.779888 47.851037,26.47629 45.28125,26.59375 C 44.529281,26.62806 43.801964,26.791911 43.0625,26.9375 L 42.96875,28.0625 L 42.4375,28.0625 L 42.53125,27.03125 C 42.400566,27.05248 42.287702,27.07809 42.15625,27.09375 C 40.878299,27.246061 38.3125,27.375 38.3125,27.375 L 38.21875,28.125 C 36.677908,28.15997 35.007923,28.19816 33.53125,28.09375 L 22.5,25.3125 C 19.097261,25.204663 15.134841,25.21875 11.5,25.21875 C 10.810025,25.21875 10.25,26.197235 10.25,27.40625 L 10.25,61.25 C 10.25,62.156759 10.552693,62.91958 11.0,63.25 L 11.0,79.40625 L 8.03125,97.28125 C 7.956125,97.736587 8.4562625,98.202163 9.125,98.3125 L 13.15625,98.96875 C 13.824975,99.079125 14.393612000000001,98.799087 14.46875,98.34375 L 17.46875,80.28125 C 17.47045,80.27099 17.46765,80.26026 17.46875,80.25 C 17.49972,80.17651 17.53125,80.111693 17.53125,80.03125 L 17.53125,71.65625 L 19.21875,80.1875 L 16.78125,97.375 C 16.71625,97.831913 17.203975,98.279625 17.875,98.375 L 21.90625,98.96875 C 22.577281,99.06413 23.185059,98.7694 23.25,98.3125 L 25.78125,80.46875 C 25.84518,80.338982 25.87055,80.198932 25.84375,80.0625 C 25.471075,73.931692 22.565116,62.170972 22.71875,61.25 L 22.71875,45.28125 L 24.3125,48.71875 C 25.99358,49.830389 28.128754999999998,48.433255 30.03125,47.84375 L 30.1875,48.15625 C 30.1875,48.15625 32.647008,47.484586 33.90625,47.21875 C 34.035771,47.19139 34.181914,47.14682 34.3125,47.125 L 34.0625,46.5625 L 34.5625,46.40625 L 34.84375,47.0625 C 35.59083,46.9631 36.339289,46.8963 37.0625,46.6875 C 40.494359,45.696941 44.980303,45.519264 46.9375,42.53125 C 47.750464,41.29011 47.321556,39.508659 46.875,38.09375 C 46.610218,37.254788 46.199989,36.285611 45.40625,35.90625 C 44.255017,35.356018 42.686631,36.849375 41.3125,36.6875 C 41.075083,36.65953 40.660125,36.249885 40.65625,36.40625 C 40.631329,37.3945 38.5,38.125 38.5,38.125 L 38.40625,37.96875 C 38.40625,37.96875 40.343362,37.260139 40.5,36.40625 C 40.614169,35.783851 40.093695,34.911738 39.46875,34.8125 C 37.139272,34.442577 35.133707,38.247196 34.03125,39.34375 C 33.530691,39.814743 32.787382,40.26117 31.96875,40.65625 L 32.3125,41.40625 L 31.8125,41.5625 L 31.5,40.84375 C 29.55654,41.715911 27.4375,42.3125 27.4375,42.3125 L 27.6875,42.84375 L 27.625,42.875 L 22.90625,32.75 C 22.534444,32.22007 22.71875,31.418647 22.71875,30.75 C 25.910078,31.764332 29.701329,32.662871 32.9375,33.40625 L 37.65625,33.34375 L 37.59375,33.8125 C 37.59375,33.8125 39.785699,33.703862 41.90625,33.90625 L 41.96875,33.28125 L 42.46875,33.28125 L 42.40625,33.9375 C 43.308369,34.048987 44.187276,34.24579 44.8125,34.53125 C 46.208531,35.216041 49.318674,38.16038 51.40625,37.0625 C 51.966299,36.767966 52.151607,35.771596 51.84375,35.21875 C 51.421391,34.460284 49.375,34.40625 49.375,34.40625 L 49.40625,34.21875 C 49.40625,34.21875 51.690523,34.25951 52.03125,35.1875 C 52.08515,35.334333 52.315368,34.790174 52.53125,34.6875 C 53.78077,34.093232 55.742466,35.015557 56.65625,34.125 C 57.286275,33.510994 57.362191,32.442059 57.34375,31.5625 C 57.33178,30.991584 57.28831,30.383098 57.1875,29.78125 C 57.497325000000004,30.055289 57.810186,30.347637 58.09375,30.625 C 58.631839,31.151403 59.264081,31.558654 59.875,32.0 L 60.40625,31.59375 L 60.75,31.9375 L 60.28125,32.3125 C 60.385925,32.39357 60.49262,32.477066 60.59375,32.5625 C 61.576937,33.392978 63.4375,35.1875 63.4375,35.1875 L 63.78125,34.9375 L 68.875,39.9375 C 69.010923,40.07117 69.26496,40.247187 69.5,40.27303 C 69.758107,40.30141 70.067194,40.205239999999996 70.25,40.0625 L 77.375,34.5 L 77.375,60.5625 C 76.908228,66.743923 75.18492,73.186524 73.96875,79.375 C 73.94226,79.509852 73.96899,79.652798 74.03125,79.78125 L 76.5625,97.625 C 76.62744,98.0819 77.235215,98.376625 77.90625,98.28125 L 81.9375,97.71875 C 82.608529,97.62337 83.096175,97.175663 83.03125,96.71875 L 80.59375,79.46875 L 82.28125,70.875 L 82.28125,79.34375 C 82.28125,79.41741 82.31763,79.494568 82.34375,79.5625 C 82.34485,79.57276 82.34205,79.58349 82.34375,79.59375 C 82.35647,79.62281 82.3579,79.65988 82.375,79.6875 L 85.34375,97.6875 C 85.41888,98.142837 86.01877,98.422875 86.6875,98.3125 L 90.6875,97.625 C 91.356238,97.51465 91.856375,97.08035 91.78125,96.625 L 88.8125,78.71875 L 88.8125,62.6875 C 89.395413,62.50446 89.84375,61.638167 89.84375,60.5625 L 89.84375,26.75 C 89.84375,25.540984 89.283716,24.5625 88.59375,24.5625 C 85.787884,24.65123 79.651738,24.261303 78.222377,24.837161 L 72.1875,21.46875 L 71.3125,19.46875 L 71.5625,19.40625 C 71.5625,19.40625 70.780176,17.359464 70.3125,15.28125 L 69.5625,15.4375 L 69.375,15.0 L 70.1875,14.8125 C 70.012684,13.920491 69.923307,13.026767 70.0,12.34375 C 70.216286,10.80393 72.036825,6.9234387 70.34375,5.28125 C 69.889534,4.84069 68.898316,4.972875 68.46875,5.4375 C 67.879399,6.0749287 68.46875,8.03125 68.46875,8.03125 L 68.28125,8.0625 C 68.28125,8.0625 67.599139,5.893876199999999 68.375,5.28125 C 68.497775,5.18435 67.914831,5.1105325 67.75,4.9375 C 66.796377,3.9349712 67.068224,1.8099775 65.9375,1.21875 C 65.547707,1.014925 65.084427,0.95453641 64.625,1.0 M 83.625,7.65625 C 79.105232,7.65625 75.4375,11.32398 75.4375,15.84375 C 75.4375,20.363521 79.105232,24.0 83.625,24.0 C 88.14478,24.0 91.8125,20.363521 91.8125,15.84375 C 91.8125,11.323979999999999 88.14478,7.65625 83.625,7.65625 M 16.1875,8.3125 C 11.667725,8.3125 8.03125,11.980229 8.03125,16.5 C 8.03125,21.019771 11.667725,24.6875 16.1875,24.6875 C 20.707269,24.6875 24.375,21.019771 24.375,16.5 C 24.375,11.980229 20.707269,8.3125 16.1875,8.3125" fill="#000000" fill-opacity="1" stroke="none" transform="scale(0.8,0.8)"/>
</svg>
