<?xml version="1.0" ?>
<svg xmlns="http://www.w3.org/2000/svg" xmlns:ev="http://www.w3.org/2001/xml-events" xmlns:xlink="http://www.w3.org/1999/xlink" baseProfile="full" enable-background="new 0 0 100 100" height="600px" version="1.1" viewBox="0 0 100 100" width="600px" x="0px" xml:space="preserve" y="0px">
	<defs/>
	<path d="M 50.0,0.0 C 22.386,0.0 0.0,22.386 0.0,50.0 C 0.0,77.614 22.386,100.0 50.0,100.0 C 77.614,100.0 100.0,77.614 100.0,50.0 C 100.0,22.385999999999996 77.614,0.0 50.0,0.0 M 47.557,89.203 C 46.126000000000005,90.029 44.791000000000004,90.443 43.551,90.443 C 42.535000000000004,90.443 41.661,89.992 40.929,89.089 C 40.196000000000005,88.187 39.829,86.89 39.829,85.198 C 39.829,82.755 40.824,77.83099999999999 42.817,70.425 C 46.748,55.915 48.714,47.175 48.714,44.20399999999999 C 48.714,42.775999999999996 48.169,42.06099999999999 47.079,42.06099999999999 C 45.875,42.06099999999999 42.887,43.69599999999999 38.113,46.965999999999994 L 36.985,44.71099999999999 C 46.272999999999996,37.75699999999999 52.379,34.27899999999999 55.301,34.27899999999999 C 56.199000000000005,34.27899999999999 56.891000000000005,34.53199999999999 57.379000000000005,35.03999999999999 C 57.865,35.54699999999999 58.109,36.28999999999999 58.109,37.26699999999999 C 58.109,39.63499999999999 57.244,44.07199999999999 55.515,50.575999999999986 C 51.111000000000004,67.15399999999998 48.91,77.20899999999999 48.91,80.74199999999999 C 48.91,82.02099999999999 49.492999999999995,82.66 50.659,82.66 C 52.013,82.66 55.039,80.969 59.739999999999995,77.584 L 60.867,79.783 C 55.492,84.109 51.054,87.248 47.557,89.203 M 61.127,22.37 C 59.867000000000004,23.799 58.43,24.513 56.815000000000005,24.513 C 55.499,24.513 54.409000000000006,24.072000000000003 53.544000000000004,23.188000000000002 C 52.679,22.305000000000003 52.24700000000001,21.093000000000004 52.24700000000001,19.551000000000002 C 52.24700000000001,17.634 52.925000000000004,15.942000000000002 54.27600000000001,14.476000000000003 C 55.63000000000001,13.010000000000003 57.13300000000001,12.277000000000003 58.78800000000001,12.277000000000003 C 60.10400000000001,12.277000000000003 61.13800000000001,12.691000000000003 61.89000000000001,13.518000000000002 C 62.64200000000001,14.345000000000002 63.01700000000001,15.529000000000003 63.01700000000001,17.070000000000004 C 63.016,19.175 62.387,20.942 61.127,22.37"/>
</svg>
