<?xml version="1.0" ?>
<svg xmlns="http://www.w3.org/2000/svg" xmlns:cc="http://creativecommons.org/ns#" xmlns:dc="http://purl.org/dc/elements/1.1/" xmlns:ev="http://www.w3.org/2001/xml-events" xmlns:inkscape="http://www.inkscape.org/namespaces/inkscape" xmlns:rdf="http://www.w3.org/1999/02/22-rdf-syntax-ns#" xmlns:sodipodi="http://sodipodi.sourceforge.net/DTD/sodipodi-0.dtd" xmlns:svg="http://www.w3.org/2000/svg" xmlns:xlink="http://www.w3.org/1999/xlink" baseProfile="full" enable-background="new 0 0 77.031 100" height="600px" version="1.1" viewBox="0 0 77.031 100" width="463px" x="0px" xml:space="preserve" y="0px">
	<defs/>
	<path d="M 0.84375,1.15625 L 0.84375,99.15625 L 76.34375,99.15625 L 76.34375,29.71875 L 48.8125,1.15625 L 0.84375,1.15625 M 8.78125,9.09375 L 44.15625,9.09375 L 44.15625,33.34375 L 68.40625,33.34375 L 68.40625,91.21875 L 8.78125,91.21875 L 8.78125,9.09375 M 11.34375,13.28125 L 11.34375,13.65625 L 11.34375,86.1875 L 11.34375,87.3125 L 11.34375,87.6875 L 11.625,87.6875 L 12.4375,87.6875 L 63.59375,87.6875 L 63.625,87.6875 L 63.8125,87.6875 L 65.96875,87.6875 L 66.25,87.6875 L 66.25,87.3125 L 66.25,87.125 L 66.25,86.1875 L 66.25,84.6875 L 66.25,84.28125 L 65.96875,84.28125 L 65.15625,84.28125 L 64.875,84.28125 L 64.875,84.6875 L 64.875,85.8125 L 64.09375,85.8125 L 64.09375,38.59375 L 64.09375,38.1875 L 63.8125,38.1875 L 54.8125,38.1875 L 54.53125,38.1875 L 54.53125,38.59375 L 54.53125,85.8125 L 53.0625,85.8125 L 53.0625,84.6875 L 53.0625,84.28125 L 52.78125,84.28125 L 51.96875,84.28125 L 51.6875,84.28125 L 51.6875,84.6875 L 51.6875,85.8125 L 50.84375,85.8125 L 50.84375,45.1875 L 50.84375,44.8125 L 50.5625,44.8125 L 41.5625,44.8125 L 41.28125,44.8125 L 41.28125,45.1875 L 41.28125,85.8125 L 39.875,85.8125 L 39.875,84.6875 L 39.875,84.28125 L 39.59375,84.28125 L 38.78125,84.28125 L 38.5,84.28125 L 38.5,84.6875 L 38.5,85.8125 L 37.59375,85.8125 L 37.59375,29.71875 L 37.59375,29.34375 L 37.3125,29.34375 L 28.28125,29.34375 L 28.03125,29.34375 L 28.03125,29.71875 L 28.03125,85.8125 L 26.6875,85.8125 L 26.6875,84.6875 L 26.6875,84.28125 L 26.40625,84.28125 L 25.59375,84.28125 L 25.3125,84.28125 L 25.3125,84.6875 L 25.3125,85.8125 L 24.34375,85.8125 L 24.34375,61.84375 L 24.34375,61.4375 L 24.0625,61.4375 L 15.03125,61.4375 L 14.75,61.4375 L 14.75,61.84375 L 14.75,85.8125 L 12.71875,85.8125 L 12.71875,79.0625 L 13.65625,79.0625 L 13.9375,79.0625 L 13.9375,78.6875 L 13.9375,77.53125 L 13.9375,77.15625 L 13.65625,77.15625 L 12.71875,77.15625 L 12.71875,68.40625 L 13.65625,68.40625 L 13.9375,68.40625 L 13.9375,68.03125 L 13.9375,66.875 L 13.9375,66.5 L 13.65625,66.5 L 12.71875,66.5 L 12.71875,57.78125 L 13.65625,57.78125 L 13.9375,57.78125 L 13.9375,57.375 L 13.9375,56.25 L 13.9375,55.84375 L 13.65625,55.84375 L 12.71875,55.84375 L 12.71875,47.125 L 13.65625,47.125 L 13.9375,47.125 L 13.9375,46.71875 L 13.9375,45.59375 L 13.9375,45.1875 L 13.65625,45.1875 L 12.71875,45.1875 L 12.71875,36.46875 L 13.65625,36.46875 L 13.9375,36.46875 L 13.9375,36.09375 L 13.9375,34.9375 L 13.9375,34.5625 L 13.65625,34.5625 L 12.71875,34.5625 L 12.71875,25.8125 L 13.65625,25.8125 L 13.9375,25.8125 L 13.9375,25.4375 L 13.9375,24.28125 L 13.9375,23.90625 L 13.65625,23.90625 L 12.71875,23.90625 L 12.71875,15.1875 L 13.65625,15.1875 L 13.9375,15.1875 L 13.9375,14.8125 L 13.9375,13.65625 L 13.9375,13.28125 L 13.65625,13.28125 L 12.4375,13.28125 L 11.9375,13.28125 L 11.90625,13.28125 L 11.625,13.28125 L 11.34375,13.28125 M 50.125,13.9375 L 63.0625,27.375 L 50.125,27.375 L 50.125,13.9375" fill="#000000" stroke="none" transform="translate(0,-1.1489008e-6)"/>
</svg>
