<?xml version="1.0" ?>
<svg xmlns="http://www.w3.org/2000/svg" xmlns:ev="http://www.w3.org/2001/xml-events" xmlns:xlink="http://www.w3.org/1999/xlink" baseProfile="full" enable-background="new 0 0 34.709 100" height="600px" version="1.1" viewBox="0 0 34.709 100" width="209px" x="0px" xml:space="preserve" y="0px">
	<defs/>
	<path d="M 27.945,35.308 L 27.945,29.622 C 28.059,29.418 28.119,29.207 28.119,28.993 C 28.119,27.075 23.378,25.520999999999997 17.529,25.520999999999997 C 11.68,25.520999999999997 6.939,27.074999999999996 6.939,28.993 C 6.939,29.208 6.999,29.418 7.112,29.622 L 7.112,35.308 C 6.998,35.512 6.939,35.723 6.939,35.937 C 6.939,36.067 6.961,36.196 7.003,36.323 C 6.961,36.766 6.939,37.217 6.939,37.674 C 6.939,41.241 8.278,44.449 10.411,46.672 L 10.411,97.743 C 10.411,98.98899999999999 13.52,100.0 17.355,100.0 C 21.19,100.0 24.299,98.989 24.299,97.743 L 24.299,72.396 L 26.381999999999998,72.396 L 26.381999999999998,56.771 L 24.299,56.771 L 24.299,47.019 C 26.633,44.79 28.118,41.431 28.118,37.674 C 28.118,37.217 28.096999999999998,36.766999999999996 28.054,36.323 C 28.096999999999998,36.197 28.118,36.068 28.118,35.937 C 28.119,35.723 28.059,35.512 27.945,35.308 M 17.355,31.424 C 12.657,31.424 8.848,30.297 8.848,28.906 C 8.848,27.514999999999997 12.657,26.387999999999998 17.355,26.387999999999998 C 22.053,26.387999999999998 25.862000000000002,27.514999999999997 25.862000000000002,28.906 C 25.862000000000002,30.297 22.053,31.424 17.355,31.424" fill="#000000"/>
	<path d="M 18.397,0.694 L 18.397,19.792 L 18.397,20.486 L 17.008,20.486 L 17.008,19.792 L 17.008,0.694 L 17.008,0.0 L 18.397,0.0 L 18.397,0.694" fill="#000000" points="18.397,0.694 18.397,19.792 18.397,20.486 17.008,20.486 17.008,19.792 17.008,0.694 17.008,0   18.397,0 "/>
	<path d="M 26.748,1.894 L 21.804,20.34 L 21.625,21.011 L 20.283,20.652 L 20.462,19.981 L 25.406,1.535 L 25.585,0.864 L 26.927,1.223 L 26.748,1.894" fill="#000000" points="26.748,1.894 21.804,20.34 21.625,21.011 20.283,20.652 20.462,19.981 25.406,1.535 25.585,0.864   26.927,1.223 "/>
	<path d="M 34.363,5.272 L 24.814,21.811 L 24.466,22.413 L 23.264,21.718 L 23.611,21.117 L 33.16,4.578 L 33.507,3.977 L 34.709,4.671 L 34.363,5.272" fill="#000000" points="34.363,5.272 24.814,21.811 24.466,22.413 23.264,21.718 23.611,21.117 33.16,4.578 33.507,3.977   34.709,4.671 "/>
	<path d="M 9.478,1.535 L 14.421,19.981 L 14.601,20.652 L 13.259,21.011 L 13.079,20.34 L 8.136,1.894 L 7.957,1.223 L 9.298,0.864 L 9.478,1.535" fill="#000000" points="9.478,1.535 14.421,19.981 14.601,20.652 13.259,21.011 13.079,20.34 8.136,1.894 7.957,1.223   9.298,0.864 "/>
	<path d="M 1.55,4.578 L 11.099,21.117 L 11.446,21.718 L 10.243,22.413 L 9.896,21.811 L 0.347,5.272 L 0.0,4.671 L 1.203,3.977 L 1.55,4.578" fill="#000000" points="1.55,4.578 11.099,21.117 11.446,21.718 10.243,22.413 9.896,21.811 0.347,5.272 0,4.671   1.203,3.977 "/>
</svg>
