<?xml version="1.0" ?>
<svg xmlns="http://www.w3.org/2000/svg" xmlns:ev="http://www.w3.org/2001/xml-events" xmlns:xlink="http://www.w3.org/1999/xlink" baseProfile="full" enable-background="new 0 0 78.174 100" height="600px" version="1.1" viewBox="0 0 78.174 100" width="470px" x="0px" xml:space="preserve" y="0px">
	<defs/>
	<path d="M 42.834,73.401 C 44.584,72.223 45.731,70.244 45.731,68.002 C 45.731,64.392 42.756,61.464999999999996 39.086,61.464999999999996 C 35.416,61.464999999999996 32.441,64.392 32.441,68.002 C 32.441,70.423 33.779,72.536 35.768,73.666 L 33.845,91.01599999999999 L 39.315,90.82799999999999 L 44.784,91.01599999999999 L 42.834,73.401 M 37.957,0.0 L 40.607,0.0 C 55.738,0.0 68.00999999999999,12.268 68.00999999999999,27.401 L 68.00999999999999,45.924 C 74.18799999999999,46.269999999999996 78.17299999999999,46.585 78.17299999999999,46.585 L 78.17299999999999,98.62299999999999 C 78.17299999999999,98.62299999999999 58.11099999999999,99.99999999999999 38.850999999999985,99.99999999999999 C 19.025,100.0 0.0,98.623 0.0,98.623 L 0.0,46.585 C 0.0,46.585 4.16,46.252 10.553,45.894 L 10.553,27.401 C 10.553,12.265 22.823,0.0 37.957,0.0 M 17.002,29.364 L 17.002,45.568 C 23.474,45.274 31.143,45.031 38.809,45.031 C 46.840999999999994,45.031 54.87,45.29 61.56099999999999,45.596 L 61.56099999999999,29.364 C 61.56099999999999,16.795 51.690999999999995,6.531000000000002 39.282,5.903000000000002 C 26.872,6.531 17.002,16.792 17.002,29.364"/>
	<path d="M 42.834,73.401 C 44.584,72.223 45.731,70.244 45.731,68.002 C 45.731,64.392 42.756,61.464999999999996 39.086,61.464999999999996 C 35.416,61.464999999999996 32.441,64.392 32.441,68.002 C 32.441,70.423 33.779,72.536 35.768,73.666 L 33.845,91.01599999999999 L 39.315,90.82799999999999 L 44.784,91.01599999999999 L 42.834,73.401 M 37.957,0.0 L 40.607,0.0 C 55.738,0.0 68.00999999999999,12.268 68.00999999999999,27.401 L 68.00999999999999,45.924 C 74.18799999999999,46.269999999999996 78.17299999999999,46.585 78.17299999999999,46.585 L 78.17299999999999,98.62299999999999 C 78.17299999999999,98.62299999999999 58.11099999999999,99.99999999999999 38.850999999999985,99.99999999999999 C 19.025,100.0 0.0,98.623 0.0,98.623 L 0.0,46.585 C 0.0,46.585 4.16,46.252 10.553,45.894 L 10.553,27.401 C 10.553,12.265 22.823,0.0 37.957,0.0 M 17.002,29.364 L 17.002,45.568 C 23.474,45.274 31.143,45.031 38.809,45.031 C 46.840999999999994,45.031 54.87,45.29 61.56099999999999,45.596 L 61.56099999999999,29.364 C 61.56099999999999,16.795 51.690999999999995,6.531000000000002 39.282,5.903000000000002 C 26.872,6.531 17.002,16.792 17.002,29.364"/>
</svg>
