<?xml version="1.0" ?>
<svg xmlns="http://www.w3.org/2000/svg" xmlns:cc="http://creativecommons.org/ns#" xmlns:dc="http://purl.org/dc/elements/1.1/" xmlns:ev="http://www.w3.org/2001/xml-events" xmlns:inkscape="http://www.inkscape.org/namespaces/inkscape" xmlns:rdf="http://www.w3.org/1999/02/22-rdf-syntax-ns#" xmlns:sodipodi="http://sodipodi.sourceforge.net/DTD/sodipodi-0.dtd" xmlns:svg="http://www.w3.org/2000/svg" xmlns:xlink="http://www.w3.org/1999/xlink" baseProfile="full" height="582px" version="1.1" viewBox="0 0 80 80" width="600px" x="0px" y="0px">
	<defs/>
	<path d="M 45.945377,1.3728946 C 44.541057,1.3728946 43.187587,2.0601646000000002 41.931877,3.1709845999999997 C 41.003467,3.9922546 40.118127,5.0523846 39.283587,6.2854448 C 25.272776999999998,9.0150948 23.360346999999997,24.291755000000002 23.014236999999998,36.360085 C 26.337186999999997,35.835825 39.83107699999999,33.781735 46.839986999999994,33.840545 C 53.501636999999995,33.896445 66.14858699999999,35.943745 70.314987,36.648665 C 67.855147,25.241215 69.757397,8.427794800000001 52.387407,6.145594800000001 C 51.524917,4.988234600000001 50.687137,3.9798246000000015 49.830127000000005,3.1887446000000015 C 48.62593700000001,2.0771846000000016 47.351877,1.3728946000000015 45.94537700000001,1.3728946000000015 L 45.945377,1.3728946 M 45.945377,2.3518546000000002 C 47.025117,2.3518546000000002 48.059707,2.8906846 49.164167,3.9101946000000005 C 50.020067,4.700254600000001 50.900647,5.774324600000001 51.827996999999996,7.037974800000001 C 48.116347,6.095864800000001 43.844626999999996,6.118584800000001 39.927336999999994,7.0956748 C 40.77969699999999,5.8021246 41.67667699999999,4.7046646 42.582286999999994,3.9035146000000003 C 43.726257,2.8915746 44.863446999999994,2.3518346 45.94537699999999,2.3518346 L 45.945377,2.3518546000000002 M 49.845667,13.082645 C 50.479746999999996,13.082645 50.993337,13.627635 50.993337,14.301355 C 50.993337,14.975064999999999 50.479746999999996,15.522274999999999 49.845667,15.522274999999999 C 49.211587,15.522274999999999 48.697997,14.975064999999999 48.697997,14.301355 C 48.697997,13.627635 49.211587,13.082645 49.845667,13.082645 M 42.813157,13.224725 C 43.447247,13.224725 43.960826999999995,13.771935 43.960826999999995,14.445644999999999 C 43.960826999999995,15.119354999999999 43.447247,15.664344999999999 42.813157,15.664344999999999 C 42.179077,15.664344999999999 41.665487,15.119354999999999 41.665487,14.445644999999999 C 41.665487,13.771935 42.179086999999996,13.224725 42.813157,13.224725 M 27.520546999999997,15.295845 L 27.354056999999997,18.010735 L 28.774766999999997,18.414745 L 27.152046999999996,21.662405 L 28.978986999999996,24.910055 L 26.543806999999997,27.447355 L 26.947826999999997,32.317725 L 25.020986999999998,30.541835000000003 L 23.484847,32.470895000000006 C 23.827247,29.186565000000005 23.678936999999998,27.668025000000007 24.601426999999997,23.615875000000006 C 25.188767,21.036105000000006 26.466157,17.738385000000008 27.520546999999997,15.295845000000007 L 27.520546999999997,15.295845 M 46.455946999999995,34.690754999999996 C 39.32672699999999,34.706754999999994 26.068936999999995,36.73305499999999 22.989816999999995,37.21917499999999 C 22.857826999999997,40.68458499999999 13.495346999999995,46.781814999999995 16.698736999999994,45.408224999999995 C 18.968086999999993,44.435174999999994 22.130216999999995,43.171234999999996 26.166436999999995,42.038484999999994 C 24.694276999999996,45.025915 23.864436999999995,48.388374999999996 23.864436999999995,51.943484999999995 C 23.864436999999995,54.886664999999994 24.432556999999996,57.69705499999999 25.462736999999997,60.272394999999996 L 15.076016999999997,62.880734999999994 L 15.300226999999996,63.773115 L 15.737536999999996,65.202705 C 15.803136999999996,65.41673499999999 15.662036999999996,65.637795 15.662036999999996,65.637795 L 14.829586999999997,65.846465 C 14.733586999999996,65.870565 14.611086999999996,65.71728499999999 14.556546999999997,65.500165 L 13.983816999999997,63.535594999999994 L 13.892816999999997,63.17818499999999 L 11.730676999999996,63.71983499999999 L 11.113546999999997,63.87523499999999 C 11.088346999999997,63.88123499999999 11.069646999999996,63.89923499999999 11.053646999999996,63.92633499999999 C 11.053646999999996,63.926394999999985 11.051646999999996,63.92833499999999 11.051646999999996,63.92833499999999 C 7.764076999999995,65.11945499999999 5.845977199999996,68.62846499999999 6.716267199999995,72.092975 C 7.644776999999996,75.789215 11.395546999999995,78.033925 15.091786999999995,77.105415 C 18.788066999999995,76.17690499999999 21.030516999999996,72.428345 20.102016999999996,68.732115 C 19.983406999999996,68.25999499999999 19.818256999999996,67.81027499999999 19.613646999999997,67.389095 L 28.220036999999998,65.226955 C 32.305676999999996,70.779325 38.885327,74.383865 46.307446999999996,74.383865 C 58.701347,74.383865 68.747997,64.33723499999999 68.747997,51.943315 C 68.747997,48.545024999999995 67.991257,45.324475 66.639127,42.437884999999994 C 72.185017,43.913034999999994 76.618737,45.228424999999994 78.399937,44.69770499999999 C 81.71202699999999,43.71084499999999 71.58558699999999,38.98577499999999 70.561617,37.545314999999995 C 66.750837,36.898025 53.614777,34.74968499999999 46.835767,34.69280499999999 C 46.711337,34.691804999999995 46.584717,34.68980499999999 46.456177,34.69080499999999 L 46.455946999999995,34.690754999999996 M 16.538906999999995,48.365075 L 14.687546999999995,58.44101499999999 L 15.100436999999996,58.547574999999995 L 17.657716999999995,48.571524999999994 L 16.538906999999995,48.365075 M 10.745076999999995,48.806835 L 9.661786999999995,49.153125 L 12.776246999999994,58.913845 L 13.253516999999995,58.618605 L 10.745076999999995,48.80683500000001 L 10.745076999999995,48.806835 M 4.027787199999995,52.913575 L 3.3307571999999954,53.812615 L 11.435456999999996,60.079265 L 11.830586999999996,59.633075 L 4.027787199999996,52.913574999999994 L 4.027787199999995,52.913575 M 0.9133272199999953,59.084775 L 0.6624772199999953,60.194705 L 10.658506999999997,62.441195 L 10.705106999999996,61.886235 L 0.9133172199999962,59.084775 L 0.9133272199999953,59.084775" fill="#000000" fill-opacity="1" stroke="none"/>
</svg>
