<?xml version="1.0" ?>
<svg xmlns="http://www.w3.org/2000/svg" xmlns:cc="http://creativecommons.org/ns#" xmlns:dc="http://purl.org/dc/elements/1.1/" xmlns:ev="http://www.w3.org/2001/xml-events" xmlns:inkscape="http://www.inkscape.org/namespaces/inkscape" xmlns:rdf="http://www.w3.org/1999/02/22-rdf-syntax-ns#" xmlns:sodipodi="http://sodipodi.sourceforge.net/DTD/sodipodi-0.dtd" xmlns:svg="http://www.w3.org/2000/svg" xmlns:xlink="http://www.w3.org/1999/xlink" baseProfile="full" height="600px" version="1.1" viewBox="0 0 80 80" width="403px" x="0px" y="0px">
	<defs/>
	<path d="M 32.889554,0.70391366 C 31.281504999999996,0.70271366 30.636015999999998,2.2524987000000003 30.636015999999998,2.2524987000000003 L 32.161488,2.1715987 C 32.161488,2.1715987 32.574585,1.5926317 32.877997,1.6168817 C 33.127911,1.6368617 33.435754,1.9919247 33.525167,2.0098067 C 33.614577000000004,2.0276967 35.327997,2.1253727 35.327997,2.1253727 C 35.327997,2.1253727 34.515001000000005,0.7051316599999997 32.889554000000004,0.7039106599999998 L 32.889554,0.70391366 M 32.866443999999994,1.8595737 C 32.52587199999999,1.9635037000000002 32.523070999999995,2.2142947 32.28861299999999,2.3218377 L 31.44498099999999,2.4258477000000003 C 31.44498099999999,2.4258477000000003 29.29842899999999,3.4642517 28.49804799999999,5.0607527 C 28.01351299999999,6.0272437 27.75328499999999,7.7022957000000005 27.63130199999999,9.1286777 C 27.509319999999992,10.555060000000001 27.51573599999999,11.728914000000001 27.51573599999999,11.728914000000001 C 28.89515699999999,11.814914000000002 30.46534399999999,11.876938 32.26549999999999,11.867593000000001 C 34.89155499999999,11.853963000000002 37.29327899999999,11.588265000000002 39.33814199999999,11.243537000000002 C 39.33814199999999,11.243537000000002 39.33812299999999,11.232177000000002 39.33814199999999,11.231977000000002 C 39.341441999999994,11.198217000000003 39.63222899999999,8.225979700000002 38.45983999999999,5.6616937000000025 C 37.29134599999999,3.1059277000000023 34.64616099999999,2.3218347000000024 34.64616099999999,2.3218347000000024 C 34.831506999999995,2.3394247000000026 33.49315899999999,2.217716700000002 33.36337799999999,2.2178257000000023 C 33.27673799999999,2.2035557000000026 33.25767799999999,1.9870057000000023 32.86644399999999,1.8595707000000024 L 32.866443999999994,1.8595737 M 35.420452999999995,2.2409417 C 36.324825,2.6518867 37.92810299999999,3.6038407 38.79498099999999,5.4999037 C 39.96016399999999,8.0484277 39.747764999999994,10.859347 39.71950999999999,11.174197 C 42.03426499999999,10.764467 43.843596999999995,10.268158 44.873754999999996,9.9491967 C 44.01689699999999,5.9724567 41.573634999999996,2.5131756999999997 35.420452999999995,2.2409416999999996 L 35.420452999999995,2.2409417 M 30.763141999999995,2.3911777 C 24.042029999999997,2.8659997 21.883379999999995,6.7165887 21.540971999999996,11.023961 C 21.990507999999995,11.116891 23.960012999999996,11.488179 27.145925,11.705801 C 27.145720999999998,11.671341 27.139825,10.528376 27.261491,9.105564699999999 C 27.385012,7.661201699999999 27.626608,5.957146699999999 28.162906,4.887403699999998 C 28.763117,3.6901776999999987 30.004592,2.8309586999999983 30.763142,2.3911776999999983 L 30.763141999999995,2.3911777 M 44.931535,10.168773 C 42.937068999999994,10.788517 38.110521999999996,12.068382 32.265496999999996,12.098725 C 26.042335999999995,12.131035 22.220058999999996,11.400329 21.517855999999995,11.255093 C 21.470905999999996,11.986119 21.476545999999995,12.734033 21.517855999999995,13.473961000000001 C 21.517855999999995,13.473961000000001 27.312078999999994,14.792092 32.866440999999995,14.306037000000002 C 38.42080299999999,13.819982000000001 45.208893999999994,12.133395000000002 45.208893999999994,12.133395000000002 C 45.151863999999996,11.471778000000002 45.061040999999996,10.816819000000002 44.931535,10.168773000000002 L 44.931535,10.168773 M 45.359128999999996,12.480093 C 45.359128999999996,12.480093 37.672521999999994,14.492996999999999 33.733185999999996,14.733630999999999 C 29.617927999999996,14.985010999999998 26.745602999999996,15.035953999999998 21.390732999999997,13.878442 C 19.509966999999996,15.931798 17.879841999999996,17.352118 15.057713999999997,18.917122 C 14.823420999999998,19.047048 15.134243999999997,19.505 15.346628999999997,19.668301 C 15.946634999999997,20.129642 18.408561999999996,20.360694 21.506299,20.407923 C 21.511398999999997,20.551316 21.507699,20.691452 21.517858999999998,20.835518 C 21.999000999999996,27.660658 27.92503,32.803924 34.750170999999995,32.322782000000004 C 41.57531099999999,31.841640000000005 46.718576999999996,25.915611000000006 46.23743499999999,19.090471000000004 C 46.20785499999999,18.670883000000003 46.14596499999999,18.259922000000003 46.07564299999999,17.853914000000003 C 46.09428299999999,17.849614000000003 46.114782999999996,17.846614000000002 46.13342299999999,17.842354000000004 C 46.26224899999999,17.641679000000003 46.399947999999995,17.428928000000003 46.514790999999995,17.172072000000004 C 46.69594299999999,16.766906000000002 46.952808,15.786728000000004 47.161961,14.930090000000003 C 47.277912,14.455182000000004 47.301366,14.339105000000004 47.36998,14.040232000000003 C 47.112885999999996,13.841976000000003 46.824574,13.628689000000003 46.595687,13.450845000000003 C 46.550326999999996,13.659299000000003 46.466412,14.055562000000002 46.295215,14.756741000000003 C 46.084623,15.619278000000003 45.827617,16.588891000000004 45.613376,17.068062000000005 C 45.443909000000005,17.447092000000005 45.249523,17.760476000000004 45.070215000000005,18.015703000000006 L 44.53861200000001,18.108153000000005 C 44.736855000000006,17.861746000000004 45.040304000000006,17.449979000000006 45.278234000000005,16.917823000000006 C 45.45938700000001,16.512658000000005 45.727808,15.532480000000005 45.936961000000004,14.675842000000006 C 46.129408000000005,13.887626000000006 46.249146,13.303023000000007 46.272102000000004,13.196597000000006 C 45.90629800000001,12.910882000000006 45.35913,12.480087000000006 45.35913,12.480087000000006 L 45.359128999999996,12.480093 M 47.693563,14.29448 C 47.628133,14.580221 47.615033,14.634198 47.520213999999996,15.022546 C 47.309622,15.885083 47.05261599999999,16.831583000000002 46.838375,17.310754 C 46.771575,17.460148999999998 46.703854,17.60511 46.630356,17.738348 C 48.120925,17.375704 49.266143,16.996757 49.831535,16.628913999999998 C 50.008623,16.51371 50.176069000000005,16.15176 50.004884000000004,16.027970999999997 C 49.213489,15.455684999999997 48.432884,14.861860999999998 47.693563000000005,14.294479999999997 L 47.693563,14.29448 M 54.615969,17.414763 C 54.280206,17.414763 53.989464,17.617086 53.876347,17.911697 L 50.652054,17.911697 C 50.133733,17.911697 49.702004,18.293535 49.623516,18.789999 L 49.623516,18.847779000000003 L 49.623516,23.701553000000004 C 49.623516,23.717773000000005 49.614116,23.732153000000004 49.611956,23.747783000000005 L 49.611956,23.817123000000006 C 49.611956,24.390994000000006 50.078179,24.857217000000006 50.65205,24.857217000000006 L 51.565022000000006,24.857217000000006 C 51.62938200000001,24.646743000000004 51.696301000000005,24.409561000000007 51.73837100000001,24.244717000000005 C 51.786111000000005,24.057671000000006 51.83787100000001,23.869499000000005 51.86549300000001,23.678443000000005 C 51.881963000000006,23.564541000000006 51.88212300000001,23.446759000000004 51.88860300000001,23.331745000000005 L 51.72681000000001,23.308635000000006 C 51.72301000000001,23.308850000000007 51.71911000000001,23.308850000000007 51.715250000000005,23.308635000000006 C 51.707150000000006,23.305735000000006 51.69932000000001,23.301835000000008 51.69214,23.297075000000007 C 51.687940000000005,23.293475000000008 51.68414,23.289675000000006 51.68058,23.285515000000007 C 51.67638,23.28191500000001 51.672579999999996,23.278115000000007 51.669019999999996,23.273955000000008 C 51.66482,23.27035500000001 51.66101999999999,23.266555000000007 51.65745999999999,23.26239500000001 C 51.65265999999999,23.255195000000008 51.648759999999996,23.247425000000007 51.64589999999999,23.23928500000001 C 51.63999999999999,23.228535000000008 51.63609999999999,23.21673500000001 51.63433999999999,23.20461500000001 C 51.63412499999999,23.200815000000013 51.63412499999999,23.19691500000001 51.63433999999999,23.19305500000001 L 51.703679999999984,22.58055500000001 C 51.70547999999999,22.56843500000001 51.70937999999998,22.55663500000001 51.71523999999999,22.545885000000013 C 51.718139999999984,22.537785000000014 51.722039999999986,22.52995500000001 51.72679999999999,22.522775000000014 C 51.73039999999999,22.518575000000013 51.73419999999999,22.514775000000014 51.73835999999999,22.511215000000014 C 51.73835999999999,22.511215000000014 52.08852699999999,22.221869000000016 52.593548999999996,22.176074000000014 C 52.646989,22.037598000000013 52.782925,21.933385000000015 52.940247,21.933385000000015 C 53.140485,21.933385000000015 53.303742,22.092938000000014 53.310058,22.291640000000015 C 53.709872,22.456629000000014 53.934115,22.742347000000017 53.934115,22.742347000000017 C 53.938314999999996,22.745947000000015 53.942115,22.749747000000017 53.945675,22.753907000000016 C 53.949875,22.757507000000015 53.953675000000004,22.761307000000016 53.957235000000004,22.765467000000015 C 53.963135,22.776217000000017 53.955435,22.788017000000014 53.957235000000004,22.800137000000014 C 53.95797400000001,22.807837000000013 53.95797400000001,22.815577000000015 53.957235000000004,22.823247000000013 L 53.88789500000001,23.435747000000013 C 53.88489500000001,23.443847000000012 53.89269500000001,23.451677000000014 53.88789500000001,23.458857000000013 C 53.88489500000001,23.46695700000001 53.88109500000001,23.474787000000013 53.876335000000005,23.48196700000001 C 53.872635,23.486167000000012 53.86893500000001,23.48996700000001 53.864775,23.49352700000001 C 53.861075,23.497727000000012 53.857375000000005,23.50152700000001 53.853215,23.50508700000001 C 53.849515,23.50928700000001 53.845815,23.51308700000001 53.841654999999996,23.51664700000001 C 53.834455,23.52144700000001 53.826674999999994,23.52534700000001 53.81854499999999,23.52820700000001 C 53.807114999999996,23.530107000000008 53.79530499999999,23.530107000000008 53.783874999999995,23.52820700000001 L 53.575874999999996,23.50509700000001 C 53.571675,23.55022700000001 53.570274999999995,23.57404700000001 53.56431499999999,23.60910700000001 C 53.535284999999995,23.78015700000001 53.481064999999994,23.94973700000001 53.43719299999999,24.117597000000007 C 53.37238299999999,24.365582000000007 53.27442799999999,24.704377000000008 53.22917399999999,24.85722000000001 L 54.673748999999994,24.85722000000001 L 51.01030599999999,39.788357000000005 L 44.68884299999999,37.419247000000006 C 44.811646999999994,35.433044 44.25520499999999,35.060840000000006 42.41219199999999,34.356748 C 45.01560699999999,33.965548000000005 47.91952999999999,33.661291000000006 49.42705099999999,32.334343000000004 C 50.486132999999995,31.402120000000004 51.82699999999999,29.136303000000005 52.35087199999999,27.503682000000005 C 52.705069999999985,26.399840000000005 52.95910099999999,25.475132000000006 53.12516399999999,24.857220000000005 L 53.136723999999994,24.857220000000005 C 53.193563999999995,24.661265000000004 53.22426399999999,24.556947000000005 53.26384699999999,24.406512000000006 C 53.31430699999999,24.214714000000008 53.37062199999999,24.024423000000006 53.402525999999995,23.828682000000008 C 53.42031599999999,23.719632000000008 53.41968599999999,23.590045000000007 53.425636,23.493541000000008 L 52.038844,23.343305000000008 C 52.035143999999995,23.39349500000001 52.033243999999996,23.421215000000007 52.027283999999995,23.45887100000001 C 52.00010399999999,23.630230000000008 51.944033999999995,23.79950100000001 51.900161,23.967361000000007 C 51.892160999999994,23.99810100000001 51.886790999999995,24.02409100000001 51.877050999999994,24.059811000000007 C 51.792151,24.37120300000001 51.64964199999999,24.844718000000007 51.64591899999999,24.857217000000006 C 51.64586899999999,24.857387000000006 51.64591899999999,24.868777000000005 51.64591899999999,24.868777000000005 C 51.62621899999999,24.952317000000004 51.611318999999995,24.993892000000006 51.58813899999999,25.088352000000004 L 51.50723899999999,25.377267000000003 C 51.38248999999999,25.866443000000004 51.23396399999999,26.427982000000004 51.03341799999999,27.052975000000004 C 50.51709199999999,28.662078000000005 49.72904199999999,30.492065000000004 48.79143699999999,31.317362000000003 C 47.293809999999986,32.635600000000004 44.45644999999999,33.512277000000005 41.811247999999985,34.056277 C 36.469115999999985,33.315131 30.775570999999985,33.594013000000004 25.308417999999985,33.594013000000004 C 22.223047999999984,33.594013000000004 19.738134999999986,36.07892700000001 19.738134999999986,39.164297000000005 L 19.738134999999986,73.533637 C 19.738134999999986,76.619007 22.223047999999984,79.103917 25.308417999999985,79.103917 L 39.60393699999999,79.103917 C 42.68930599999999,79.103917 45.17421999999999,76.619007 45.17421999999999,73.533637 L 44.88530499999999,47.750856999999996 L 53.483417999999986,50.824906999999996 C 54.71975999999999,51.126796999999996 55.950499999999984,50.864906999999995 56.92728599999999,50.212407 C 57.36612299999999,49.992187 57.72990199999999,49.650887 57.97893699999999,49.218537 C 57.98413699999999,49.209537 57.996946999999984,49.204536999999995 58.00204699999999,49.195437 C 58.33888599999999,48.741557 59.14396499999999,46.119687 59.51596199999999,44.526567 C 61.022622,38.074123 62.382,24.857226 62.382,24.857226 L 65.167142,24.857226 L 65.167142,17.911707 L 57.146857999999995,17.911707 C 57.033747999999996,17.617086 56.743005999999994,17.414763 56.407242999999994,17.414763 L 54.61596899999999,17.414763 L 54.615969,17.414763 M 65.791206,17.484103 C 65.667841,17.484103 65.57163,17.591871 65.57163,17.715235 L 65.57163,17.923254 C 65.56393,17.922653 65.55601,17.924654 65.54852,17.923254 L 65.54852,24.845659 C 65.55601999999999,24.844259 65.56396,24.84626 65.57163,24.845659 L 65.57163,25.053678 C 65.57163,25.177042 65.66784,25.273254 65.791206,25.273254 L 67.27045100000001,25.273254 C 67.39381100000001,25.273254 67.49002600000001,25.177044000000002 67.49002600000001,25.053678 L 67.49002600000001,17.715235 C 67.49002600000001,17.591871 67.39380600000001,17.484103 67.27045100000001,17.484103 L 65.791206,17.484103 M 48.745214000000004,19.414055 C 48.027876000000006,19.414055 47.43931800000001,19.991056 47.43931800000001,20.708395000000003 L 47.43931800000001,21.552027000000002 C 47.43931800000001,22.269366 48.027876000000006,22.846367 48.745214000000004,22.846367 L 49.18436500000001,22.846367 L 49.18436500000001,19.414055 L 48.745214000000004,19.414055 M 52.582007000000004,22.395659000000002 C 52.203357000000004,22.434139000000002 51.940236000000006,22.607951000000003 51.900167,22.638348 L 51.853937,23.112169 L 53.702994000000004,23.308631000000002 L 53.749224000000005,22.846367 C 53.72008400000001,22.812217 53.54276900000001,22.612663 53.25229,22.488112 C 53.18878,22.600282 53.078364,22.673018000000003 52.940262000000004,22.673018000000003 C 52.76730500000001,22.673018000000003 52.622438,22.556061000000003 52.582007000000004,22.395659000000002" fill="#000000" fill-opacity="1" stroke="none"/>
</svg>
