<?xml version="1.0" ?>
<svg xmlns="http://www.w3.org/2000/svg" xmlns:cc="http://creativecommons.org/ns#" xmlns:dc="http://purl.org/dc/elements/1.1/" xmlns:ev="http://www.w3.org/2001/xml-events" xmlns:inkscape="http://www.inkscape.org/namespaces/inkscape" xmlns:rdf="http://www.w3.org/1999/02/22-rdf-syntax-ns#" xmlns:sodipodi="http://sodipodi.sourceforge.net/DTD/sodipodi-0.dtd" xmlns:svg="http://www.w3.org/2000/svg" xmlns:xlink="http://www.w3.org/1999/xlink" baseProfile="full" height="600px" version="1.1" viewBox="0 0 80 80" width="595px" x="0px" y="0px">
	<defs/>
	<path d="M 51.195807,1.9143994 C 39.596792,1.7967478 28.799226,9.1815983 25.055985,20.809587 C 23.441755999999998,25.82402 23.364107,30.952334 24.553296,35.712834 C 24.553296,35.712834 23.517048,42.741334 23.204652,44.817025 C 23.129252,45.174393 23.219352,45.630543 23.894203,45.557576 C 27.599929,45.067079 28.959216,45.175213 28.959216,45.175213 C 32.235007,49.689935 36.874587000000005,53.211377999999996 42.590956000000006,55.051570999999996 C 56.902328,59.658638 72.255442,51.798401 76.86251,37.48703 C 81.469576,23.175659 73.579772,7.8521143 59.268399,3.2450464 C 56.585017,2.3812211 53.872503,1.9415498 51.195807,1.9143994 M 35.228042,28.58648 C 35.247732,28.58538 35.267492000000004,28.58538 35.287182,28.58648 C 35.565855,28.57103 35.833472,28.810501000000002 35.848954,29.089171 C 35.864433999999996,29.367843 35.624992,29.635486 35.346322,29.650997 L 29.461905,30.538095000000002 C 29.168737,30.620735000000003 28.829089000000003,30.392759 28.794503000000002,30.090137000000002 C 28.759923000000004,29.787515000000003 29.039372000000004,29.48879 29.343625000000003,29.503148000000003 L 35.168902,28.61605 C 35.187972,28.60497 35.207732,28.595090000000003 35.228042,28.58648 M 13.61242,37.013911 C 13.094679,37.060371 12.577359,37.230056 12.133924,37.5166 C 11.099245,38.185202999999994 10.631851000000001,39.382174 10.980696,40.355314 L 9.7978986,38.492408 C 9.3830916,37.853159 8.631856599999999,37.540946 7.8462826,37.575739999999996 C 7.728452600000001,37.58094 7.611135600000001,37.58434 7.4914436,37.605309999999996 C 7.1323726,37.668139999999994 6.7888376,37.834103999999996 6.4564956,38.04885899999999 C 5.2744236,38.812704999999994 4.8461504,40.249447999999994 5.5102576,41.271981999999994 L 5.5693976,41.33112199999999 C 5.6138576,41.230076 5.6239876,41.20145599999999 5.6581076,41.12413299999999 C 5.7598516,40.893573999999994 5.8256336,40.591373999999995 6.0129466,40.32574499999999 C 6.3655856,39.91380899999999 6.8353916,39.54210899999999 7.1957446,39.26122699999999 C 8.5432556,38.81127599999999 9.212513600000001,38.69243799999999 10.418867,40.030044999999994 C 10.679679,40.317260999999995 11.069406,40.887572999999996 11.069406,40.887572999999996 L 11.246826,41.12413299999999 C 11.246826,41.12413299999999 11.355786,40.412220999999995 11.512955,40.11875499999999 C 12.500516,38.666791999999994 13.647048,38.085871999999995 15.297907,38.728967999999995 C 15.845653,39.05301599999999 16.221856,39.542995 16.628554,40.030044999999994 L 16.658124,40.059614999999994 L 27.06674,56.263938 L 25.115125,52.212857 L 15.741456,37.841869 C 15.326093,37.202333 14.475323,36.936471 13.61242,37.013911 M 14.115109,38.758537 C 13.642610000000001,38.779036999999995 13.168757000000001,38.945113 12.725322,39.231655999999994 C 11.690641,39.90026099999999 11.223247,41.067657999999994 11.572095000000001,42.04079999999999 L 10.389298,40.207464 C 9.9744866,39.568243 9.2232556,39.255999 8.4376816,39.290796 C 7.9663356,39.311666 7.4614476,39.448008 7.0183246,39.734345 C 5.8362516,40.49819 5.4375506,41.964504999999996 6.1016566,42.987038 L 7.3435936,44.879514 C 6.6032896,44.120307 5.2955846,44.019175 4.2387508,44.702094 C 3.0566773,45.46594 2.6279322,46.931527 3.2925129,47.954787 L 7.1366046,53.839204 L 7.0774646,53.898344 C 6.7901666,53.734547 6.4471305999999995,53.657678000000004 6.1016566,53.632215 C 6.0900666,53.629915000000004 6.0821566,53.604065000000006 6.0720866000000004,53.602645 C 6.023096600000001,53.596745000000006 5.946827600000001,53.599545 5.8946676,53.602645 C 5.4850046,53.607745 5.0523063,53.72205 4.6527299,53.927914 C 4.6399558999999995,53.933214 4.635697899999999,53.951924 4.6231599,53.957484 C 4.5575009,53.986384 4.4735616,54.009064 4.4161703,54.046194 C 4.3383043,54.096574 4.2816645,54.136254 4.2091808,54.194044 C 4.136197800000001,54.250324 4.0677712,54.309501 4.002191300000001,54.371463 C 3.9338353000000006,54.436043 3.884643900000001,54.537644 3.8247717000000008,54.608022999999996 C 3.4551513000000007,55.042379999999994 3.246725600000001,55.571377 3.2629429000000005,56.175228999999995 C 3.2770779000000005,56.701491 3.4402490000000006,57.26865599999999 3.8247717000000003,57.860716 L 13.81941,73.23708 C 16.954317,78.05934400000001 23.757911999999997,80.475243 30.615133,76.04622400000001 C 37.470465,71.614298 39.022153,63.79727400000001 35.168902,57.86071500000001 L 29.521045,49.16715400000001 C 28.495408,47.58796500000001 27.165553000000003,48.15674100000001 26.150073,48.694035000000014 C 24.725752999999997,49.566113000000016 25.233404999999998,51.917158000000015 25.233404999999998,51.917158000000015 L 26.209211999999997,53.89834300000001 L 26.090932999999996,53.75049400000001 L 28.101687999999996,57.83114500000001 L 28.131257999999995,57.890285000000006 L 28.308677999999997,58.126844000000006 L 28.870505999999995,59.309641000000006 L 28.811365999999996,59.339211000000006 L 16.066724999999998,39.704775000000005 C 15.651362999999998,39.065237 14.902607999999997,38.724368000000005 14.115108999999999,38.758537000000004 L 14.115109,38.758537 M 4.889289400000001,42.543488999999994 C 4.4658981,42.587028999999994 4.043664000000001,42.730945999999996 3.647352200000001,42.98703799999999 C 2.465278700000001,43.75088399999999 2.036533500000001,45.21647499999999 2.7011143000000013,46.23973099999999 L 2.7602543000000015,46.32844099999999 C 2.8309263000000016,46.01430499999999 2.9504458000000016,45.64315599999999 3.1150935000000013,45.38220299999999 C 3.7545772000000013,44.53016799999999 4.558603100000001,43.94764999999999 5.717247800000001,43.90370699999999 C 5.9583558000000005,43.90520699999999 6.2465128000000005,43.98261699999999 6.4860658,44.05155599999999 C 6.533285800000001,44.06514599999999 6.5324558,44.06812599999999 6.5747758,44.08112599999999 L 5.5102578,42.57306 C 5.3053708,42.54276 5.1038386,42.52148 4.8892896,42.54349 L 4.889289400000001,42.543488999999994 M 27.15545,46.38758 C 26.594133,46.45093 26.028201999999997,46.678395 25.558674,46.978979 C 23.292063,48.270596000000005 24.375875999999998,50.556941 24.375875999999998,50.556941 L 24.848995,51.355329000000005 C 24.894215,50.251377000000005 24.712743,49.350425 26.209211999999997,48.309626 C 27.277763999999998,47.832393 28.233641,47.789662 28.722656999999998,48.102636000000004 C 29.206198999999998,48.41211800000001 29.723139,49.025719 29.964593999999998,49.492423 C 29.967294,49.497723 29.961893999999997,49.516633 29.964593999999998,49.521993 L 35.849011,58.659103 C 35.525092,57.800605000000004 35.246331,56.770891 34.725353,55.968239000000004 L 29.166206,47.245108 C 28.607733,46.512726 27.877136,46.306083 27.15545,46.38758 M 5.2145587,51.887588 C 5.096728400000001,51.892788 4.9780039,51.924628 4.859719500000001,51.946728 C 4.5048462,52.012938 4.157228700000001,52.145875000000004 3.8247718000000006,52.360707 C 2.7867795000000006,53.031448 2.3367168000000005,54.231884 2.9376737000000004,55.58383 C 3.0160807000000003,55.253144 3.1309275000000003,54.851314 3.2925129,54.578452 C 3.516954,54.199422 3.8247916,53.920854 4.179611,53.691354 C 4.484545600000001,53.494119 4.8455193,53.387741999999996 5.1554188000000005,53.306945 C 5.4341216,53.234285 5.750279600000001,53.117253 6.1016566,53.159095 C 6.2316406,53.174575 6.3548576,53.257225 6.4860656,53.306945 L 5.5398276,51.917158 C 5.4312236,51.907958 5.325770599999999,51.882648 5.2145586999999995,51.887588 L 5.2145587,51.887588" fill="#000000"/>
</svg>
