<?xml version="1.0" ?>
<svg xmlns="http://www.w3.org/2000/svg" xmlns:ev="http://www.w3.org/2001/xml-events" xmlns:xlink="http://www.w3.org/1999/xlink" baseProfile="full" enable-background="new 0 0 100 100" height="600px" version="1.1" viewBox="0 0 100 100" width="234px" x="0px" xml:space="preserve" y="0px">
	<defs/>
	<path d="M 66.522,29.699 C 66.581,29.66 66.616,29.621000000000002 66.616,29.580000000000002 C 66.616,28.971000000000004 59.626,28.476000000000003 51.001,28.476000000000003 C 42.373999999999995,28.476000000000003 35.382999999999996,28.970000000000002 35.382999999999996,29.580000000000002 C 35.382999999999996,29.621000000000002 35.416999999999994,29.66 35.477,29.699 C 35.395999999999994,29.740000000000002 35.339,29.805000000000003 35.339,29.884 L 35.339,91.081 C 35.339,91.159 35.396,91.224 35.477,91.26400000000001 C 35.416999999999994,91.30400000000002 35.382999999999996,91.34400000000001 35.382999999999996,91.385 C 35.382999999999996,91.995 42.373999999999995,92.488 51.001,92.488 C 59.626,92.488 66.616,91.996 66.616,91.385 C 66.616,91.34400000000001 66.583,91.304 66.522,91.266 C 66.604,91.224 66.661,91.16000000000001 66.661,91.081 L 66.661,29.884 C 66.661,29.806 66.604,29.74 66.522,29.699 M 62.296,68.5 C 62.296,70.203 60.915,71.585 59.211999999999996,71.585 L 42.788,71.585 C 41.083,71.585 39.702999999999996,70.20299999999999 39.702999999999996,68.5 L 39.702999999999996,38.832 C 39.702999999999996,37.129 41.083999999999996,35.748 42.788,35.748 L 59.211999999999996,35.748 C 60.915,35.748 62.296,37.129 62.296,38.832 L 62.296,68.5"/>
	<path d="M 60.812,27.762 C 60.919,27.762 61.007,27.753 61.007,27.741 L 61.007,21.982 C 61.007,21.974999999999998 60.98,21.97 60.939,21.965 C 60.96,21.947 60.978,21.929 60.978,21.91 C 60.978,21.519 56.511,21.205000000000002 51.001000000000005,21.205000000000002 C 45.489000000000004,21.205000000000002 41.022000000000006,21.519000000000002 41.022000000000006,21.91 C 41.022000000000006,21.929 41.04200000000001,21.947 41.06100000000001,21.965 C 41.02000000000001,21.97 40.99400000000001,21.975 40.99400000000001,21.982 L 40.99400000000001,27.741 C 40.99400000000001,27.754 41.08200000000001,27.762 41.18800000000001,27.762 L 60.812,27.762"/>
	<path d="M 57.728,20.58 C 57.802,20.58 57.863,20.567999999999998 57.863,20.552999999999997 L 57.863,17.374 L 60.766999999999996,17.374 C 60.778999999999996,17.374 60.788,17.363999999999997 60.791,17.352999999999998 C 60.314,17.304 59.934999999999995,16.782999999999998 59.934999999999995,16.128999999999998 C 59.934999999999995,15.474999999999998 60.315,14.953999999999997 60.791,14.904999999999998 C 60.788999999999994,14.893999999999998 60.778999999999996,14.882999999999997 60.766999999999996,14.882999999999997 L 57.863,14.882999999999997 L 57.863,13.017999999999997 C 57.863,13.008999999999997 57.842999999999996,13.001999999999997 57.816,12.996999999999996 C 57.830000000000005,12.973999999999997 57.843,12.948999999999996 57.843,12.924999999999997 C 57.843,12.415999999999997 54.779,12.001999999999997 50.999,12.001999999999997 C 47.222,12.001999999999997 44.155,12.415999999999997 44.155,12.924999999999997 C 44.155,12.948999999999996 44.171,12.973999999999997 44.184000000000005,12.997999999999998 C 44.155,13.001999999999997 44.13700000000001,13.008999999999997 44.13700000000001,13.017999999999997 L 44.13700000000001,20.552999999999997 C 44.13700000000001,20.568999999999996 44.19800000000001,20.58 44.272000000000006,20.58 L 57.728,20.58"/>
	<path d="M 60.794,17.35 C 60.794,17.352 60.791,17.351000000000003 60.791,17.353 C 60.814,17.355 60.833999999999996,17.372 60.858,17.372 C 61.367999999999995,17.372 61.782,16.815 61.782,16.13 C 61.782,15.444999999999997 61.367999999999995,14.887999999999998 60.858,14.887999999999998 C 60.834999999999994,14.887999999999998 60.814,14.903999999999998 60.791,14.905999999999999 C 60.791999999999994,14.906999999999998 60.794,14.906999999999998 60.794,14.908 L 60.794,17.35"/>
	<path d="M 59.935,16.129 C 59.935,16.782 60.315000000000005,17.304000000000002 60.791000000000004,17.353 C 60.791000000000004,17.352 60.794000000000004,17.352 60.794000000000004,17.35 L 60.794000000000004,14.908000000000001 C 60.794000000000004,14.907000000000002 60.792,14.907000000000002 60.791000000000004,14.906 C 60.314,14.954 59.935,15.476 59.935,16.129"/>
	<path d="M 53.767,44.122 L 53.765,44.117 L 51.013,41.352999999999994 L 48.247,44.129999999999995 L 48.245,44.13399999999999 C 47.513,44.85099999999999 47.053999999999995,45.846999999999994 47.047999999999995,46.95099999999999 C 47.047999999999995,46.95399999999999 47.047999999999995,46.95799999999999 47.047999999999995,46.96099999999999 C 47.04599999999999,48.05299999999999 47.486,49.038999999999994 48.19799999999999,49.75299999999999 C 48.910999999999994,50.465999999999994 49.898999999999994,50.907 50.99099999999999,50.903999999999996 C 53.172999999999995,50.898999999999994 54.94799999999999,49.126 54.95199999999999,46.943 C 54.95199999999999,46.937999999999995 54.94999999999999,46.934999999999995 54.94999999999999,46.931999999999995 C 54.95,45.83 54.497,44.836 53.767,44.122"/>
</svg>
