<?xml version="1.0" ?>
<svg xmlns="http://www.w3.org/2000/svg" xmlns:cc="http://creativecommons.org/ns#" xmlns:dc="http://purl.org/dc/elements/1.1/" xmlns:ev="http://www.w3.org/2001/xml-events" xmlns:inkscape="http://www.inkscape.org/namespaces/inkscape" xmlns:rdf="http://www.w3.org/1999/02/22-rdf-syntax-ns#" xmlns:sodipodi="http://sodipodi.sourceforge.net/DTD/sodipodi-0.dtd" xmlns:svg="http://www.w3.org/2000/svg" xmlns:xlink="http://www.w3.org/1999/xlink" baseProfile="full" height="600px" version="1.1" viewBox="0 0 80 80" width="600px" x="0px" y="0px">
	<defs/>
	<path d="M 40.222998,3.1036613 C 19.925970999999997,3.1036613 3.403661299999996,19.625971999999997 3.403661299999996,39.922998 C 3.403661299999996,60.220023999999995 19.925970999999997,76.696339 40.222998,76.696339 C 60.52002399999999,76.696339 76.996339,60.220023999999995 76.996339,39.92299799999999 C 76.996339,19.625971999999994 60.52002400000001,3.1036612999999917 40.222998000000004,3.1036612999999917 L 40.222998,3.1036613 M 40.222998,7.335240300000001 C 58.23589799999999,7.335240300000001 72.787757,21.910098 72.787757,39.922998 C 72.787757,57.935897999999995 58.235898,72.487757 40.222998,72.487757 C 22.210098,72.487757 7.6352402999999995,57.935898 7.6352402999999995,39.922998 C 7.6352402999999995,21.910098 22.210098000000002,7.335240300000002 40.222998,7.335240300000002 L 40.222998,7.335240300000001 M 19.709038999999997,15.614416 L 22.238787,22.904691 C 22.392705,22.331977 22.659433999999997,21.796443 22.997712,21.340847 L 36.819336,38.221167 C 36.52355,38.75114 36.336384,39.341959 36.336384,39.991991 C 36.336384,42.024197 37.983812,43.671625 40.016018,43.671625 C 40.404677,43.671625 40.76823,43.599325 41.119908,43.487643 L 53.837643,59.034096 L 55.355492,63.380663999999996 C 55.867129,61.476903 57.524033,60.100104 59.472082,60.0 L 55.585469,57.700229 L 42.91373,42.222769 C 43.3962,41.600333 43.695652,40.840478 43.695652,39.991991 C 43.695652,37.959785 42.048224000000005,36.312357 40.016018,36.312357 C 39.43327,36.312357 38.895874,36.462157 38.406178000000004,36.703317999999996 L 24.699542,19.960984 C 25.213682000000002,19.717606 25.764005,19.554416 26.355378,19.524027 L 19.709039,15.614416 L 19.709038999999997,15.614416" display="inline" fill="#000000" fill-opacity="1" marker="none" overflow="visible" stroke="none" style="text-indent:0;text-transform:none;direction:ltr;block-progression:tb;baseline-shift:baseline;color:#000000;enable-background:accumulate;" visibility="visible"/>
</svg>
