<?xml version="1.0" ?>
<svg xmlns="http://www.w3.org/2000/svg" xmlns:ev="http://www.w3.org/2001/xml-events" xmlns:xlink="http://www.w3.org/1999/xlink" baseProfile="full" enable-background="new 0 0 100 141" height="600px" version="1.1" viewBox="0 0 100 141" width="426px" x="0px" xml:space="preserve" y="0px">
	<defs/>
	<path d="M 11.605,4.016 L 97.63300000000001,4.016 L 97.63300000000001,4.195 C 92.56500000000001,12.018 89.703,16.195999999999998 89.048,16.734 L 66.065,16.734 C 69.224,20.437 71.371,24.944000000000003 72.503,30.258000000000003 L 97.006,30.258000000000003 C 97.303,30.318 97.452,30.437 97.452,30.616000000000003 C 91.967,38.856 89.16499999999999,42.975 89.047,42.975 L 73.13,42.975 C 72.773,47.215 70.74499999999999,52.321 67.04899999999999,58.29 C 62.15999999999999,64.321 57.480999999999995,68.231 53.00899999999999,70.023 C 44.66199999999999,74.024 36.67399999999999,76.023 29.042999999999992,76.023 L 29.042999999999992,76.202 C 29.042999999999992,76.8 46.30199999999999,97.31 80.82,137.732 L 58.017,137.732 C 24.393,98.505 7.581,78.801 7.581,78.622 L 7.581,66.71 L 7.760000000000001,66.262 C 10.74,66.68 14.228000000000002,66.889 18.223,66.889 C 37.061,66.889 48.775999999999996,60.769 53.368,48.528999999999996 C 54.083000000000006,46.736999999999995 54.440000000000005,44.88699999999999 54.440000000000005,42.976 L 3.289,42.976 C 3.0500000000000003,42.976 2.931,42.857 2.931,42.618 C 8.594000000000001,34.378 11.485,30.258000000000003 11.605,30.258000000000003 L 52.20399999999999,30.258000000000003 L 52.20399999999999,30.079000000000004 C 49.87899999999999,25.363000000000003 45.376999999999995,21.691000000000003 38.70099999999999,19.063000000000002 C 33.92999999999999,17.511000000000003 29.63799999999999,16.734 25.82399999999999,16.734 L 3.11,16.734 L 3.11,16.286 C 8.594,8.106 11.426,4.016 11.605,4.016"/>
</svg>
