<?xml version="1.0" ?>
<svg xmlns="http://www.w3.org/2000/svg" xmlns:ev="http://www.w3.org/2001/xml-events" xmlns:xlink="http://www.w3.org/1999/xlink" baseProfile="full" enable-background="new 0 0 100 100" height="600px" version="1.1" viewBox="0 0 100 100" width="429px" x="0px" xml:space="preserve" y="0px">
	<defs/>
	<path d="M 48.169,61.672 C 48.169,62.248 48.589,62.793 49.080999999999996,63.309 C 49.571,63.822 50.0,64.271 52.0,64.652 L 52.0,58.847 C 51.0,58.993 49.814,59.343 49.226,59.894 C 48.638,60.447 48.169,61.039 48.169,61.672"/>
	<path d="M 53.0,67.268 L 53.0,73.913 C 54.0,73.833 54.535,73.64699999999999 55.062,73.36 C 55.589,73.071 56.068999999999996,72.665 56.373999999999995,72.137 C 56.678,71.61 56.861,71.098 56.861,70.604 C 56.861,69.905 56.471,69.256 55.916,68.657 C 55.36,68.055 55.0,67.594 53.0,67.268"/>
	<path d="M 72.539,54.405 C 70.768,50.556 68.572,49.208 65.034,47.347 C 59.336000000000006,44.349000000000004 50.763000000000005,48.037 49.798,39.683 C 49.418,36.382 49.877,32.661 50.756,29.496000000000002 C 51.857,25.536 51.781,23.089000000000002 50.72,19.055 C 50.158,16.929 49.536,14.725999999999999 49.507999999999996,12.555 C 49.489999999999995,11.068999999999999 49.751,9.597 50.504,8.171 C 46.992,10.292 44.83,10.306 42.702999999999996,14.361 C 40.513,18.54 38.119,22.877000000000002 33.78999999999999,25.235 C 30.260999999999992,27.16 26.818999999999992,26.336 23.099999999999994,26.828 C 20.990999999999993,27.105999999999998 18.967999999999996,27.98 16.932999999999993,28.384 C 21.43499999999999,29.402 23.76299999999999,32.339 27.417999999999992,34.743 C 31.290999999999993,37.286 35.49399999999999,37.913000000000004 39.82999999999999,39.222 C 41.154999999999994,39.621 44.33699999999999,41.201 44.70899999999999,42.57 C 44.89299999999999,43.253 44.10299999999999,45.61 43.96299999999999,46.309 C 43.131999999999984,50.495 38.74299999999999,51.339 35.73699999999999,53.861999999999995 C 31.185999999999986,57.681 28.97999999999999,63.114999999999995 28.66899999999999,69.06299999999999 C 28.35299999999999,75.07099999999998 30.47899999999999,82.61599999999999 35.93199999999999,85.73599999999999 C 43.99299999999999,90.34899999999999 52.27199999999999,91.66699999999999 61.16099999999999,88.84299999999999 C 70.20199999999998,85.972 75.55699999999999,77.28099999999999 75.63099999999999,67.90499999999999 C 75.666,63.332 74.451,58.557 72.539,54.405 M 58.019,73.039 C 57.544,73.857 56.693999999999996,74.529 55.719,75.057 C 54.98,75.453 54.0,75.689 53.0,75.762 L 53.0,79.0 L 52.0,79.0 L 52.0,75.762 C 51.0,75.729 50.603,75.647 50.133,75.512 C 49.662000000000006,75.379 49.1,75.16 48.622,74.856 C 48.143,74.55099999999999 47.625,74.16499999999999 47.153999999999996,73.69399999999999 C 46.821,73.35399999999998 46.361999999999995,72.82699999999998 45.818,72.112 L 47.376999999999995,71.18799999999999 C 48.025,72.14499999999998 48.842999999999996,72.82699999999998 49.486999999999995,73.231 C 50.132,73.637 51.0,73.889 52.0,73.984 L 52.0,66.72 C 50.0,66.324 49.731,65.929 49.098,65.53999999999999 C 48.19,64.97899999999998 47.445,64.38199999999999 47.04,63.74499999999999 C 46.634,63.10799999999999 46.388,62.43599999999999 46.388,61.73099999999999 C 46.388,61.00099999999999 46.591,60.277999999999984 47.041,59.56499999999999 C 47.491,58.84999999999999 48.363,58.25399999999999 49.32899999999999,57.77599999999999 C 49.977,57.453 51.0,57.213 52.0,57.059 L 52.0,56.0 L 53.0,56.0 L 53.0,57.059 C 54.0,57.311 55.248,57.659 55.986,58.102 C 56.724,58.543 57.495,59.178 58.168,60.006 L 56.79,61.029 C 56.116,60.291000000000004 55.388999999999996,59.761 54.827999999999996,59.445 C 54.269,59.129 54.0,58.941 53.0,58.885 L 53.0,65.213 C 54.0,65.524 55.096000000000004,65.838 55.68,66.15799999999999 C 56.629,66.68499999999999 57.418,67.314 57.918,68.04899999999999 C 58.418,68.78099999999999 58.698,69.60799999999999 58.698,70.52199999999999 C 58.698,71.381 58.493,72.221 58.019,73.039"/>
</svg>
