<?xml version="1.0" ?>
<svg xmlns="http://www.w3.org/2000/svg" xmlns:cc="http://creativecommons.org/ns#" xmlns:dc="http://purl.org/dc/elements/1.1/" xmlns:ev="http://www.w3.org/2001/xml-events" xmlns:inkscape="http://www.inkscape.org/namespaces/inkscape" xmlns:rdf="http://www.w3.org/1999/02/22-rdf-syntax-ns#" xmlns:sodipodi="http://sodipodi.sourceforge.net/DTD/sodipodi-0.dtd" xmlns:svg="http://www.w3.org/2000/svg" xmlns:xlink="http://www.w3.org/1999/xlink" baseProfile="full" height="600px" version="1.1" viewBox="0 0 80 80" width="58px" x="0px" y="0px">
	<defs/>
	<path d="M 3.71875,3.78125 L 19.03125,49.3125 C 19.03125,49.3125 19.633684,50.895243 20.764144,51.345805 L 20.057483,48.355839 C 19.820436,47.946646 19.616986,47.486534 19.40625,46.9375 C 18.79167,45.336322 18.615372999999998,43.878375 19.03125,43.71875 C 19.447128,43.559124 20.29167,44.742572 20.90625,46.34375 C 21.351974,47.505001 21.574175,48.542237 21.492928,49.100822 L 22.03125,51.375 C 23.841968,50.633428 22.78125,47.875 22.78125,47.875 L 4.0,3.96875 L 3.71875,3.78125" fill="#000000" stroke="none" transform="scale(0.8,0.8)"/>
	<path d="M 2.0265904,975.77421 C 1.4602315,975.77421 0.9891803699999999,976.25471 0.9891803699999999,976.8117100000001 L 0.9891803699999999,1025.1872 C 0.9891803699999999,1025.7441000000001 1.4603061,1026.2246 2.0265904,1026.2246 L 97.961842,1026.2246 C 98.528127,1026.2246 98.98918,1025.7441000000001 98.98918,1025.1872 L 98.98918,976.8117100000001 C 98.98918,976.25471 98.52820100000001,975.77421 97.961842,975.77421 L 2.0265904000000035,975.77421 L 2.0265904,975.77421 M 2.5100436999999998,977.29511 L 97.47838899999999,977.29511 L 97.47838899999999,1024.7138 L 2.510043699999997,1024.7138 L 2.510043699999997,977.29511 L 2.5100436999999998,977.29511" display="inline" fill="#000000" fill-opacity="1" marker="none" overflow="visible" stroke="none" style="text-indent:0;text-transform:none;direction:ltr;block-progression:tb;baseline-shift:baseline;color:#000000;enable-background:accumulate;" visibility="visible"/>
	<path d="M 4.0107631,976.52961 L 4.0107631,982.65341 A 0.75925387,0.75925387 0.0 0,0 4.4841444,983.34831 L 49.807885,1001.6994 A 0.75925387,0.75925387 0.0 0,0 50.381986,1001.6994 L 95.504288,983.34831 A 0.75925387,0.75925387 0.0 0,0 95.977669,982.65341 L 95.977669,976.52961 L 94.456806,976.52961 L 94.456806,982.13971 L 50.089899,1000.1786000000001 L 5.521554500000001,982.13971 L 5.521554500000001,976.52961 L 4.0107631,976.52961" display="inline" fill="#000000" fill-opacity="1" marker="none" overflow="visible" stroke="none" style="text-indent:0;text-transform:none;direction:ltr;block-progression:tb;baseline-shift:baseline;color:#000000;enable-background:accumulate;" visibility="visible"/>
	<path d="M 28.28125,65.84375 L 14.90625,68.0625 L 9.0,79.5625 L 28.34375,89.5 L 34.25,78.03125 L 31.0,71.40625 C 30.255095,71.027979 29.591745,70.479847 28.90625,70.0 C 28.28482,69.469118 27.913039,69.074765 27.303682,68.431776 C 27.18659,68.422894 27.111021,68.400935 27.0,68.34375 C 26.555915,68.115011 26.396261,67.569085 26.625,67.125 C 26.853739,66.680916 27.399666,66.490011 27.84375,66.71875 C 28.247697,66.926814 28.427119,67.372204 28.284344,67.789604 C 28.284344,67.789604 28.828419,68.401675 29.139078,68.673422 C 29.7151,69.156619 30.03125,69.375 30.03125,69.375 L 28.28125,65.84375 M 15.46875,68.65625 L 20.125,77.125 L 10.15625,78.96875 L 15.46875,68.65625 M 24.75,69.03125 C 25.37964,69.02425 25.98674,69.202494 26.625,69.53125 C 27.163876,69.808815 27.593267,70.168314 27.90625,70.59375 C 28.21784,71.021893 28.383289,71.466154 28.40625,71.96875 C 28.42699,72.46996 28.32978,72.948 28.09375,73.40625 C 27.812403,73.952471 27.376817,74.35492 26.8125,74.625 C 26.102818,74.963563 25.442132,74.965416 24.78125,74.625 C 24.603752,74.53359 24.464465,74.453493 24.40625,74.34375 C 24.3494,74.2347 24.34175,74.104533 24.375,73.96875 C 23.997466,74.083287 23.642167,74.0448 23.3125,73.875 C 22.95615,73.69145 22.733364,73.427314 22.625,73.0625 C 22.517925,72.695171 22.5725,72.311521 22.78125,71.90625 C 23.041884,71.400244 23.409063,71.019421 23.90625,70.75 C 24.510472,70.420971 25.088831,70.380077 25.625,70.65625 C 26.006486,70.852746 26.21912,71.145676 26.25,71.53125 L 26.5,71.21875 L 27.34375,71.65625 L 25.6875,73.71875 C 25.582138,73.849194 25.52201,73.926018 25.5,73.96875 C 25.47141,74.02424 25.45805,74.084502 25.46875,74.125 C 25.47855,74.165 25.49721,74.16996 25.53125,74.1875 C 25.635663,74.24128 25.804092,74.26125 26.03125,74.21875 C 26.33328,74.17052 26.631647,74.046291 26.90625,73.84375 C 27.183499,73.639396 27.37957,73.388227 27.53125,73.09375 C 27.802241,72.567634 27.853587,72.022756 27.65625,71.46875 C 27.455155,70.91917 26.996005,70.47706 26.3125,70.125 C 25.730892,69.825425 25.183556,69.68772 24.65625,69.71875 C 24.132887,69.74545 23.648298,69.895406 23.21875,70.21875 C 22.794364,70.541573 22.458668,70.940462 22.21875,71.40625 C 21.9866,71.856957 21.90151,72.356949 21.9375,72.84375 C 21.97586,73.33496 22.145339,73.741654 22.46875,74.125 C 22.794615,74.506429 23.250109,74.85142 23.78125,75.125 C 24.292478,75.388324 24.743521,75.546603 25.1875,75.59375 C 25.630124,75.6402 26.064447,75.57725 26.4375,75.40625 L 27.09375,75.75 C 26.655618,76.075284 26.165291,76.26028 25.59375,76.28125 C 24.940024,76.301225 24.228748,76.125364 23.5,75.75 C 22.791164,75.384892 22.265349,74.9412 21.875,74.4375 C 21.482135,73.932513 21.261827,73.376709 21.25,72.78125 C 21.2395,72.186487 21.404759,71.611428 21.6875,71.0625 C 21.996846,70.460971 22.414571,69.967641 22.96875,69.59375 C 23.52028,69.221676 24.120395,69.035274 24.75,69.03125 M 25.09375,71.1875 C 24.991501,71.179 24.896798,71.1875 24.78125,71.21875 C 24.551122,71.28175 24.309169,71.432769 24.09375,71.65625 C 23.87833,71.879733 23.73007,72.077261 23.625,72.28125 C 23.484873,72.553299 23.45669,72.783992 23.5,72.96875 C 23.54603,73.154902 23.617674,73.290745 23.78125,73.375 C 23.90325,73.43785 24.049314,73.4739 24.1875,73.46875 C 24.291412,73.467933 24.405268,73.45609 24.53125,73.40625 C 24.71198,73.33371 24.913541,73.178368 25.125,72.96875 C 25.335354,72.761742 25.482206,72.560306 25.59375,72.34375 C 25.718238,72.102058 25.765935,71.87425 25.71875,71.6875 C 25.67403,71.498832 25.577369,71.36939 25.40625,71.28125 C 25.31431,71.23389 25.195999,71.19596 25.09375,71.1875 M 22.3125,77.40625 L 27.40625,88.3125 L 10.53125,79.59375 L 22.3125,77.40625 M 33.4375,77.90625 L 28.125,88.21875 L 23.84375,79.03125 L 33.4375,77.90625" fill="#000000" stroke="none" transform="scale(0.8,0.8)"/>
	<path d="M 61.625,38.5 C 57.098976,38.52063 54.419549,40.882341 52.8125,44.1875 C 51.205451,47.492659 50.57302,51.750696 50.0,56.0 C 49.42698,60.249304 48.905091,64.461885 47.53125,67.53125 C 46.529491,69.769329 45.162306,71.383816 42.96875,72.09375 C 42.96875,72.09375 42.766168,72.369044 42.78125,72.6875 C 42.79616,73.002325 42.885932,73.083304 42.96875,73.15625 C 45.554201,72.363901 47.33434,70.402124 48.4375,67.9375 C 49.90838,64.651335 50.427642,60.369394 51.0,56.125 C 51.572358,51.880606 52.219583,47.708282 53.71875,44.625 C 55.217917,41.541718 57.486286,39.550391 61.6875,39.53125 C 65.330491,39.51465 69.127584,42.251614000000004 72.625,46.375 C 72.625,46.375 72.903366,46.3814 73.125,46.09375 C 73.346633,45.806121 73.25,45.53125 73.25,45.53125 C 69.680146,41.347775 65.749235,38.498717 61.6875,38.5 L 61.625,38.5 M 20.4375,45.65625 C 20.252113,45.65285 20.031054,45.793101 19.9375,45.9375 C 19.84395,46.081899 19.822275,46.198656 19.8125,46.3125 C 19.77414,46.759051 19.89872,47.334236 20.15625,48.25 C 20.15915,48.26112 20.15335,48.27005 20.15625,48.28125 C 21.385714,53.094628 22.153177,59.308086 24.71875,64.40625 C 24.989286,64.943845 25.465614,65.616159 25.78125,66.125 L 26.8125,65.96875 C 26.488307,65.449305 25.90504,64.55648 25.625,64.0 C 23.165806,59.113226 22.385451,52.919361 21.125,48.0 C 21.09969,47.91033 21.1156,47.92699 21.09375,47.84375 C 21.225889,48.034076 21.17896,47.93975 21.3125,48.125 C 21.3125,48.125 21.22268,47.616702 21.125,47.28125 C 20.955181,46.698082 20.53125,45.75 20.53125,45.75 C 20.47321,45.7364 20.517217,45.65769 20.4375,45.65625 M 75.625,48.59375 L 77.28125,52.875 C 79.963535,57.141047 82.141343,61.602474 84.34375,66.53125 C 85.911564,70.039868 87.313003,73.536609 88.5625,76.8125 C 88.5625,76.8125 88.824119,76.938627 89.147432,76.75835 C 89.470745,76.57808 89.5,76.375 89.5,76.375 C 88.248014,73.096506 86.818063,69.602925 85.25,66.09375 C 82.449921,59.827441 79.193185,53.573515 75.625,48.59375 M 23.1875,49.03125 C 23.363393,49.561269 23.27179,49.707275 23.21875,50.0625 C 23.1846,50.291216 23.0,50.75 23.0,50.75 C 24.819105,53.956042 26.713466,57.822146000000004 27.21875,58.71875 L 28.125,58.1875 C 27.65364,57.351094 25.346303,52.873515 23.4375,49.5625 C 23.288124,49.303392 23.329974,49.272997 23.1875,49.03125 M 27.34375,66.8125 C 27.199725,66.79032 26.999601,66.86176 26.875,67.0625 C 26.729292,67.255522 26.697189,67.40565 26.75,67.625 C 29.493233,71.085605 33.66593,73.479384 40.15625,73.5 C 40.679495,73.5017 41.183870999999996,73.47123 41.65625,73.40625 L 41.90625,72.34375 C 41.361498,72.43978 40.793906,72.502026 40.15625,72.5 C 33.74989,72.47965 29.890315,70.2036 27.34375,66.8125 M 90.41905,79.15625 C 90.44033999999999,80.187487 90.4611,81.218758 90.48155,82.25 C 92.85781899999999,88.95968 94.34375,93.78125 94.34375,93.78125 L 95.3125,93.5 C 95.3125,93.5 93.411737,87.300972 90.41905,79.15625" display="inline" fill="#000000" fill-opacity="1" marker="none" overflow="visible" stroke="none" style="text-indent:0;text-transform:none;direction:ltr;block-progression:tb;baseline-shift:baseline;color:#000000;enable-background:accumulate;" transform="scale(0.8,0.8)" visibility="visible"/>
	<path d="M 55.90625,70.59375 L 46.625,70.96875 C 46.625,70.96875 46.051569,71.623206 45.533416,71.970916 C 45.073698,72.327236 44.458432,72.667328 44.458432,72.667328 C 44.489512000000005,72.96077 44.339738000000004,73.143287 44.09375,73.34375 C 43.706516,73.659318 43.159318,73.605984 42.84375,73.21875 C 42.528184,72.831516 42.581516,72.253066 42.96875,71.9375 C 43.162367,71.779716 43.394899,71.718441 43.625,71.741905 C 43.865527,71.66800500000001 44.06828,71.513369 44.288215,71.398155 C 44.625611,71.173639 44.71875,71.0625 44.71875,71.0625 L 42.34375,71.15625 L 39.03125,84.34375 L 47.1875,94.34375 L 64.0625,80.59375 L 55.90625,70.59375 M 55.46875,71.28125 L 62.78125,80.25 L 52.625,80.53125 L 55.46875,71.28125 M 46.90625,73.34375 C 47.284655,73.311591 47.647615,73.365056 48.0,73.5 C 48.467686,73.681415 48.861864,73.975424 49.1875,74.375 C 49.575646,74.851296 49.79061,75.406015 49.8125,76.03125 C 49.83904,76.817106 49.576286,77.43663 49.0,77.90625 C 48.845238,78.032385 48.686365,78.115525 48.5625,78.125 C 48.439813,78.1335 48.329909,78.08477 48.21875,78.0 C 48.17276,78.391836 48.00621,78.703236 47.71875,78.9375 C 47.408017,79.190723 47.065209,79.296557 46.6875,79.25 C 46.308001,79.20126 45.975486,79.009639 45.6875,78.65625 C 45.327931,78.215021 45.11063,77.719691 45.0625,77.15625 C 45.00254,76.470867 45.219968,75.943501 45.6875,75.5625 C 46.02015,75.291415 46.352996,75.217871 46.71875,75.34375 L 46.53125,74.96875 L 47.28125,74.34375 L 48.5,76.71875 C 48.57742,76.867484 48.625884,76.962739 48.65625,77.0 C 48.69568,77.04839 48.73985,77.05611 48.78125,77.0625 C 48.82181,77.0695 48.84531,77.0554 48.875,77.03125 C 48.96604,76.95705 49.04187,76.81895 49.09375,76.59375 C 49.17032,76.297634 49.16963,75.988934 49.09375,75.65625 C 49.017313,75.320416 48.896755,75.00678 48.6875,74.75 C 48.313641,74.291236 47.836695,74.04066 47.25,74.0 C 46.665859,73.96455 46.064755,74.2018 45.46875,74.6875 C 44.961598,75.100791 44.619916,75.56678 44.4375,76.0625 C 44.252693,76.552875 44.219142,77.039493 44.34375,77.5625 C 44.469936,78.080568 44.70026,78.562591 45.03125,78.96875 C 45.351524,79.361759 45.758171,79.619577 46.21875,79.78125 C 46.684317,79.942511 47.144312,79.955637 47.625,79.8125 C 48.104911,79.666346 48.568105,79.40868 49.03125,79.03125 C 49.477032,78.667971 49.810499,78.294334 50.03125,77.90625 C 50.250819,77.519129 50.351304999999996,77.129056 50.34375,76.71875 L 50.96875,76.21875 C 51.0917,76.750401 51.02183,77.280257 50.8125,77.8125 C 50.5694,78.419672 50.135455,78.982151 49.5,79.5 C 48.881906,80.0037 48.274017,80.343635 47.65625,80.5 C 47.036298,80.658155 46.456759,80.633512 45.90625,80.40625 C 45.35691,80.178043 44.890069,79.822405 44.5,79.34375 C 44.072357,78.819676 43.777344,78.219954 43.65625,77.5625 C 43.535763,76.908201 43.59567,76.297436 43.84375,75.71875 C 44.089111,75.138842 44.505948,74.609799 45.0625,74.15625 C 45.532391,73.773324 46.016155,73.522999 46.53125,73.40625 C 46.660505,73.37765 46.780115,73.35447 46.90625,73.34375 M 46.40625,75.875 C 46.32088,75.89817 46.230856,75.9392 46.15625,76.0 C 45.995911,76.130664 45.910125,76.325691 45.875,76.5625 C 45.84072,76.79862 45.8813,77.056939 46.0,77.34375 C 46.1187,77.630562 46.230045,77.853375 46.375,78.03125 C 46.568319,78.268471 46.782088,78.403316 46.96875,78.4375 C 47.157775,78.46975 47.326114,78.4287 47.46875,78.3125 C 47.575138,78.22581 47.636963,78.128716 47.6875,78.0 C 47.7283,77.90443 47.74531,77.79165 47.75,77.65625 C 47.7557,77.461592 47.70132,77.215137 47.59375,76.9375 C 47.488125,76.661919 47.372635,76.407583 47.21875,76.21875 C 47.047003,76.008001 46.846287,75.906429 46.65625,75.875 C 46.56084,75.85778 46.491617,75.85183 46.40625,75.875 M 62.5625,80.96875 L 47.84375,92.96875 L 50.5625,81.28125 L 62.5625,80.96875 M 49.40625,83.15625 L 47.125,93.03125 L 39.78125,84.03125 L 49.40625,83.15625" fill="#000000" stroke="none" transform="scale(0.8,0.8)"/>
	<path d="M 58.825,35.2 L 57.783787,35.284158 L 58.275,35.825 C 58.31635,35.84094 58.36092,35.85085 58.4,35.875 C 58.739934999999996,36.085107 58.835107,36.535064 58.625,36.875 C 58.414894,37.214934 57.964935,37.310106 57.625,37.1 C 57.377774,36.947195 57.267891,36.670609 57.3,36.4 L 57.3,36.375 L 56.414109,35.434158 L 48.0,36.15 L 42.575,44.925 L 57.375,54.074999999999996 L 62.8,45.3 L 58.825,35.2 M 48.425000000000004,36.650000000000006 L 51.6,43.675000000000004 L 43.55,44.525000000000006 L 48.425000000000004,36.650000000000006 M 55.400000000000006,37.525000000000006 C 55.52322000000001,37.5155 55.649398000000005,37.516000000000005 55.775000000000006,37.525000000000006 C 56.277618000000004,37.55865000000001 56.78642800000001,37.723023000000005 57.275000000000006,38.025000000000006 C 57.687495000000006,38.279956000000006 58.00188500000001,38.59118300000001 58.22500000000001,38.95 C 58.44683400000001,39.31089 58.53800100000001,39.697715 58.525000000000006,40.1 C 58.510310000000004,40.501042 58.416802000000004,40.874222 58.2,41.225 C 57.941569,41.643119 57.566912,41.944756 57.1,42.125 C 56.512884,42.35081 55.955887000000004,42.312687 55.45,42.0 C 55.314130000000006,41.91603 55.239592,41.816154 55.2,41.725 C 55.16145,41.63448 55.164970000000004,41.531225 55.2,41.425000000000004 C 54.891753,41.49282 54.602352,41.45597000000001 54.35,41.300000000000004 C 54.077223000000004,41.131401000000004 53.913695000000004,40.89771700000001 53.85,40.6 C 53.78749,40.300360000000005 53.858200000000004,39.985224 54.050000000000004,39.675000000000004 C 54.289404000000005,39.287665000000004 54.611670000000004,39.008901 55.025000000000006,38.825 C 55.527412000000005,38.600228 55.964577000000006,38.621319 56.37500000000001,38.875 C 56.667018000000006,39.055491 56.824397000000005,39.290554 56.82500000000001,39.6 L 57.05000000000001,39.375 L 57.70000000000001,39.775 L 56.25000000000001,41.3 C 56.15784000000001,41.39747 56.095217000000005,41.467288999999994 56.07500000000001,41.5 C 56.04874000000001,41.54247 56.04399000000001,41.59203 56.05000000000001,41.625 C 56.05530000000001,41.6575 56.073940000000015,41.65889 56.10000000000001,41.675 C 56.179930000000006,41.72439 56.31617800000001,41.74474 56.50000000000001,41.724999999999994 C 56.74389600000001,41.70535999999999 56.968374000000004,41.61945899999999 57.20000000000001,41.474999999999994 C 57.43385900000001,41.329291 57.61067500000001,41.150414999999995 57.75000000000001,40.925 C 57.99891800000001,40.522271999999994 58.072869000000004,40.104155 57.95000000000001,39.65 C 57.82386100000001,39.19914 57.49820500000001,38.798384 56.97500000000001,38.475 C 56.52979400000001,38.199827 56.09749600000001,38.05811 55.67500000000001,38.050000000000004 C 55.25591800000001,38.03868000000001 54.862741000000014,38.14387000000001 54.500000000000014,38.37500000000001 C 54.141407000000015,38.606027000000005 53.84537500000001,38.918451000000005 53.625000000000014,39.275000000000006 C 53.411760000000015,39.620005000000006 53.30162900000001,39.984500000000004 53.30000000000001,40.37500000000001 C 53.29998800000001,40.76916400000001 53.44094500000001,41.124103000000005 53.67500000000001,41.45000000000001 C 53.91113200000001,41.77452100000001 54.21842600000001,42.07370500000001 54.625000000000014,42.32500000000001 C 55.01633200000001,42.56687500000001 55.398834000000015,42.70973100000001 55.750000000000014,42.77500000000001 C 56.10012900000002,42.839630000000014 56.416809000000015,42.81314000000001 56.725000000000016,42.70000000000001 L 57.250000000000014,43.02500000000001 C 56.880291000000014,43.25713800000001 56.48215200000001,43.36889200000001 56.02500000000001,43.350000000000016 C 55.502364000000014,43.32520000000002 54.95783700000001,43.14478800000001 54.40000000000001,42.80000000000002 C 53.85740400000001,42.46463100000002 53.42994400000001,42.07606000000002 53.15000000000001,41.65000000000002 C 52.86813100000001,41.22275700000002 52.74733400000001,40.77565500000002 52.77500000000001,40.30000000000002 C 52.80369000000001,39.824981000000015 52.940289000000014,39.370190000000015 53.20000000000001,38.95000000000002 C 53.48420700000001,38.489516000000016 53.85970500000001,38.138672000000014 54.32500000000001,37.875000000000014 C 54.67230100000001,37.678210000000014 55.03034000000001,37.55351800000001 55.40000000000001,37.52500000000001 L 55.400000000000006,37.525000000000006 M 55.675000000000004,39.275000000000006 C 55.487532,39.31091000000001 55.310742000000005,39.410197000000004 55.12500000000001,39.575 C 54.939263000000004,39.739823 54.796513000000004,39.893852 54.70000000000001,40.050000000000004 C 54.57128800000001,40.258247000000004 54.50196900000001,40.424943000000006 54.52500000000001,40.575 C 54.55011000000001,40.726336 54.62479000000001,40.847605 54.750000000000014,40.925000000000004 C 54.84338000000002,40.982730000000004 54.939467000000015,41.020500000000006 55.05000000000001,41.025000000000006 C 55.13293000000001,41.030800000000006 55.24641800000001,41.00694000000001 55.35000000000001,40.97500000000001 C 55.49865600000001,40.92838000000001 55.66828500000001,40.82900800000001 55.85000000000001,40.67500000000001 C 56.03067000000001,40.52300200000001 56.17254200000001,40.36576800000001 56.275000000000006,40.20000000000001 C 56.389348000000005,40.01499100000001 56.425996000000005,39.85188700000001 56.400000000000006,39.70000000000001 C 56.376090000000005,39.54673800000001 56.30599000000001,39.43096000000001 56.175000000000004,39.35000000000001 C 56.034246,39.263000000000005 55.86321,39.23954900000001 55.675000000000004,39.275000000000006 M 53.325,44.050000000000004 L 56.7,53.050000000000004 L 43.775000000000006,45.050000000000004 L 53.325,44.050000000000004 M 62.175000000000004,45.150000000000006 L 57.300000000000004,53.025000000000006 L 54.45,45.425000000000004 L 62.175000000000004,45.150000000000006" fill="#000000" stroke="none"/>
	<path d="M 77.21875,71.15625 L 66.96875,78.96875 L 80.15625,96.28125 L 90.40625,88.4375 L 90.28125,74.875 L 88.875,74.46875 L 89.15625,75.21875 C 89.269472,75.27809 89.386001,75.360393 89.46875,75.46875 C 89.771933,75.865755 89.709506,76.446816 89.3125,76.75 C 88.915498,77.053181 88.334433,76.959504 88.03125,76.5625 C 87.803863,76.264747 87.79411,75.868452 87.96875,75.5625 L 87.40625,74.0625 L 77.21875,71.15625 M 77.46875,71.90625 L 78.0625,81.5625 L 68.25,78.9375 L 77.46875,71.90625 M 84.3125,75.9375 C 84.789565,75.9319 85.259577,76.050327 85.6875,76.25 C 86.259372,76.513549 86.751751,76.929404 87.1875,77.5 C 87.555396,77.981749 87.805825,78.481476 87.90625,79.0 C 88.00425,79.520374 87.94468,80.00482 87.75,80.46875 C 87.553911,80.930476 87.25341,81.312144 86.84375,81.625 C 86.355435,81.997914 85.781865,82.185362 85.15625,82.1875 C 84.369949,82.1893 83.763689,81.903328 83.3125,81.3125 C 83.191312,81.153829 83.130559,80.999101 83.125,80.875 C 83.1204,80.7521 83.1617,80.639654 83.25,80.53125 C 82.859814,80.472912 82.537569,80.294717 82.3125,80.0 C 82.069215,79.681427 81.972789,79.344801 82.03125,78.96875 C 82.09195,78.590983 82.325179,78.245428 82.6875,77.96875 C 83.139863,77.623292 83.622819,77.436564 84.1875,77.40625 C 84.874434,77.36796 85.415204,77.583165 85.78125,78.0625 C 86.041696,78.403544 86.106114,78.763404 85.96875,79.125 L 86.34375,78.9375 L 86.9375,79.71875 L 84.53125,80.84375 C 84.38015,80.916438 84.288201,80.970821 84.25,81.0 C 84.20039,81.03787 84.16394,81.08383 84.15625,81.125 C 84.14785,81.16531 84.16425,81.18831 84.1875,81.21875 C 84.25879,81.31209 84.401551,81.409783 84.625,81.46875 C 84.91855,81.55464 85.227585,81.53409 85.5625,81.46875 C 85.90058,81.40295 86.205491,81.294794 86.46875,81.09375 C 86.93909,80.734564 87.222085,80.272619 87.28125,79.6875 C 87.33513,79.10477 87.122888,78.486044 86.65625,77.875 C 86.259178,77.35505 85.802212,77.010479 85.3125,76.8125 C 84.828206,76.612296 84.339181,76.548219 83.8125,76.65625 C 83.290706,76.766012 82.822657,76.994499 82.40625,77.3125 C 82.003325,77.620204 81.707385,78.013508 81.53125,78.46875 C 81.355367,78.928994 81.340866,79.390034 81.46875,79.875 C 81.599676,80.359286 81.824884,80.837669 82.1875,81.3125 C 82.536523,81.769531 82.90033,82.110856 83.28125,82.34375 C 83.661245,82.575436 84.058408,82.71335 84.46875,82.71875 L 84.9375,83.3125 C 84.402231,83.4186 83.869117,83.35103 83.34375,83.125 C 82.744555,82.862853 82.216275,82.40149 81.71875,81.75 C 81.234817,81.116309 80.918029,80.497396 80.78125,79.875 C 80.64275,79.250363 80.69297,78.668059 80.9375,78.125 C 81.182943,77.583141 81.540516,77.12476 82.03125,76.75 C 82.568565,76.33912 83.1828,76.069024 83.84375,75.96875 C 84.008194,75.94381 84.153478,75.93937 84.3125,75.9375 M 84.40625,78.21875 C 84.274678,78.23475 84.145207,78.25772 84.0,78.3125 C 83.709583,78.422088 83.463614,78.548234 83.28125,78.6875 C 83.038043,78.873233 82.91506,79.064509 82.875,79.25 C 82.8368,79.437912 82.85712,79.603765 82.96875,79.75 C 83.05203,79.859075 83.154194,79.945429 83.28125,80.0 C 83.3755,80.04377 83.4898,80.05357 83.625,80.0625 C 83.81938,80.07438 84.062854,80.03626 84.34375,79.9375 C 84.622529,79.84063 84.868901,79.741595 85.0625,79.59375 C 85.278566,79.428742 85.400085,79.25145 85.4375,79.0625 C 85.47796,78.872874 85.4293,78.684229 85.3125,78.53125 C 85.186965,78.366863 85.016833,78.261331 84.78125,78.21875 C 84.66379,78.19789 84.537822,78.20275 84.40625,78.21875 M 68.3125,79.6875 L 79.90625,82.78125 L 79.84375,94.78125 L 68.3125,79.6875 M 80.59375,84.875 L 89.75,87.96875 L 80.53125,95.0 L 80.59375,84.875" fill="#000000" stroke="none" transform="scale(0.8,0.8)"/>
</svg>
