<?xml version="1.0" ?>
<svg xmlns="http://www.w3.org/2000/svg" xmlns:ev="http://www.w3.org/2001/xml-events" xmlns:xlink="http://www.w3.org/1999/xlink" baseProfile="full" enable-background="new 0 0 100.001 90.465" height="543px" version="1.1" viewBox="0 0 100.001 90.465" width="600px" x="0px" xml:space="preserve" y="0px">
	<defs/>
	<path d="M 16.543,34.736 L 39.518,58.31099999999999 L 39.518,90.362 L 39.336,90.362 L 39.336,90.466 L 20.495,90.466 L 20.495,76.63 L 1.27,51.23 C 0.501,50.283 0.0,49.118 0.0,47.841 L 0.0,8.812 C 0.0,5.757999999999999 2.48,3.270999999999999 5.547,3.270999999999999 C 8.594,3.270999999999999 11.081,5.757999999999999 11.081,8.812 L 11.081,31.351 C 9.74,31.644 8.463999999999999,32.207 7.442,33.205999999999996 C 4.506,36.08 4.434,40.8 7.299,43.743 L 17.787,54.527 L 19.212999999999997,53.132 L 8.711,42.376 C 6.615,40.205 6.66,36.733999999999995 8.809000000000001,34.619 C 9.486,33.984 10.280000000000001,33.532 11.133000000000001,33.291 C 12.045000000000002,33.031 12.988000000000001,33.017999999999994 13.893,33.206999999999994 C 14.916,33.46 15.827,33.984 16.543,34.736" fill="#010101"/>
	<path d="M 83.464,34.736 L 60.477,58.311 L 60.477,90.362 L 60.659,90.362 L 60.659,90.466 L 79.513,90.466 L 79.513,76.63 L 98.73,51.23 C 99.5,50.282999999999994 100.001,49.117999999999995 100.001,47.839999999999996 L 100.001,8.812 C 100.001,5.757999999999999 97.522,3.270999999999999 94.45400000000001,3.270999999999999 C 91.40700000000001,3.270999999999999 88.92,5.757999999999999 88.92,8.812 L 88.92,31.351 C 90.268,31.644 91.537,32.207 92.561,33.205999999999996 C 95.50200000000001,36.08 95.57600000000001,40.8 92.709,43.742999999999995 L 82.214,54.527 L 80.78099999999999,53.133 L 91.28899999999999,42.375 C 93.38699999999999,40.204 93.33999999999999,36.733 91.18499999999999,34.618 C 90.52099999999999,33.983000000000004 89.70599999999999,33.531 88.86099999999999,33.29 C 87.963,33.03 87.011,33.016999999999996 86.10699999999999,33.205999999999996 C 85.091,33.46 84.18,33.984 83.464,34.736" fill="#010101"/>
	<path d="M 33.781,30.211 L 38.42,30.211 L 30.514,45.317 L 47.508,45.317 L 47.508,52.088 L 52.717,52.088 L 52.717,45.317 L 69.486,45.317 L 61.58,30.211 L 66.219,30.211 L 56.229,15.105 L 60.867,15.105 L 50.165,0.0 L 39.132,15.105 L 43.772,15.105 L 33.781,30.211" fill="#010101" points="33.781,30.211 38.42,30.211 30.514,45.317 47.508,45.317 47.508,52.088    52.717,52.088 52.717,45.317 69.486,45.317 61.58,30.211 66.219,30.211 56.229,15.105 60.867,15.105 50.165,0 39.132,15.105    43.772,15.105 "/>
</svg>
