<?xml version="1.0" ?>
<svg xmlns="http://www.w3.org/2000/svg" xmlns:cc="http://creativecommons.org/ns#" xmlns:dc="http://purl.org/dc/elements/1.1/" xmlns:ev="http://www.w3.org/2001/xml-events" xmlns:inkscape="http://www.inkscape.org/namespaces/inkscape" xmlns:rdf="http://www.w3.org/1999/02/22-rdf-syntax-ns#" xmlns:sodipodi="http://sodipodi.sourceforge.net/DTD/sodipodi-0.dtd" xmlns:svg="http://www.w3.org/2000/svg" xmlns:xlink="http://www.w3.org/1999/xlink" baseProfile="full" height="600px" version="1.1" viewBox="0 0 80 80" width="406px" x="0px" y="0px">
	<defs/>
	<path d="M 49.0,0.90625 C 44.252286,0.90625 40.40625,4.7522856 40.40625,9.5 C 40.40625,14.247714 44.252286,18.09375 49.0,18.09375 C 53.747714,18.09375 57.59375,14.247714 57.59375,9.5 C 57.59375,4.7522856 53.747714,0.90625 49.0,0.90625 M 39.84375,19.25 C 38.573767,19.25 37.5625,20.261261 37.5625,21.53125 L 37.5625,48.4375 C 37.994374,48.214604 38.50145,48.130458 39.0,48.28125 L 42.53125,49.375 C 43.284092,49.602693 43.78595,50.264632 43.875,51.0 L 47.15625,53.78125 C 47.17938,53.77355 47.19516,53.75688 47.21875,53.75 L 50.75,52.71875 C 51.458788,52.512413 52.203455,52.75275 52.6875,53.25 L 54.6875,52.5625 C 54.792374,52.10181 55.050171,51.691022 55.46875,51.40625 L 58.5,49.34375 C 58.829587,49.119411 59.220707,49.000791 59.59375,49.0 C 59.904619,48.999341 60.19475,49.0763 60.46875,49.21875 L 60.46875,21.53125 C 60.46875,20.261261 59.457489,19.25 58.1875,19.25 L 39.84375,19.25 M 33.03125,19.8125 C 32.078758,19.8125 31.3125,20.578758 31.3125,21.53125 L 31.3125,49.25 L 30.34375,49.25 C 30.088324,49.25 29.872534,49.440221 29.75,49.625 C 29.627463,49.809779 29.5625,50.038728 29.5625,50.28125 L 29.5625,51.21875 C 29.5625,51.461163 29.6277,51.689995 29.75,51.875 C 29.8723,52.060005 30.087567,52.1875 30.34375,52.1875 L 31.3125,52.1875 L 31.3125,52.5 C 31.3125,53.452492 32.078758,54.21875 33.03125,54.21875 L 35.3125,54.21875 C 36.264992,54.21875 37.03125,53.452492 37.03125,52.5 L 37.03125,52.1875 L 37.5625,52.1875 L 37.5625,57.0625 C 37.5625,57.922868 38.024486,58.664348 38.71875,59.0625 C 38.70272,59.15715 38.6875,59.275645 38.6875,59.375 L 38.6875,97.1875 C 38.6875,98.139992 39.453758,98.90625 40.40625,98.90625 L 46.15625,98.90625 C 47.108742,98.90625 47.875,98.139992 47.875,97.1875 L 47.875,59.375 L 50.15625,59.375 L 50.15625,97.1875 C 50.15625,98.139992 50.922508,98.90625 51.875,98.90625 L 57.59375,98.90625 C 58.546242,98.90625 59.3125,98.139992 59.3125,97.1875 L 59.3125,59.375 C 59.3125,59.27564 59.29728,59.157154 59.28125,59.0625 C 59.988788,58.668118 60.46875,57.932739 60.46875,57.0625 L 60.46875,52.6875 L 57.65625,54.59375 C 56.938733,55.081873 55.989555,55.01799 55.34375,54.5 L 53.09375,55.3125 C 52.875342,55.833783 52.42484,56.26814 51.84375,56.4375 L 48.3125,57.46875 C 47.291859,57.765875 46.203522,57.176775 45.90625,56.15625 C 45.83192,55.901116 45.81404,55.624439 45.84375,55.375 C 45.84505,55.36445 45.84235,55.35427 45.84375,55.34375 L 42.90625,52.875 C 42.462998,53.123384 41.929976,53.220907 41.40625,53.0625 L 38.4375,52.15625 C 38.657038,52.13287 38.827789,52.040406 38.9375,51.875 C 39.02647,51.740861 39.046082,51.577343 39.0625,51.40625 L 41.6875,52.1875 C 41.822927,52.22842 41.963972,52.2332 42.09375,52.21875 L 41.9375,52.0625 C 41.509532,51.6993 41.45433,51.026 41.8125,50.59375 C 41.946802,50.431656 42.122969,50.33529 42.3125,50.28125 C 42.2893,50.27245 42.27415,50.25731 42.25,50.25 L 38.75,49.1875 C 38.614567,49.14658 38.473941,49.14326 38.34375,49.15625 C 38.229963,49.16761 38.130945,49.20306 38.03125,49.25 L 37.03125,49.25 L 37.03125,21.53125 C 37.03125,20.578758 36.264992,19.8125 35.3125,19.8125 L 33.03125,19.8125 M 62.78125,19.8125 C 61.828758,19.8125 61.03125,20.578758 61.03125,21.53125 L 61.03125,49.53125 L 59.84375,49.53125 C 59.588324,49.53125 59.372539,49.659027 59.25,49.84375 C 59.21408,49.89789 59.21429,49.969314 59.1875,50.03125 C 59.13566,50.05453 59.079714,50.06082 59.03125,50.09375 L 56.1875,52.03125 L 56.4375,51.9375 C 56.966435,51.7496 57.555869,52.03564 57.75,52.5625 C 57.876591,52.906034 57.77644,53.261922 57.5625,53.53125 L 59.40625,52.25 C 59.525271,52.350715 59.664649,52.4375 59.84375,52.4375 L 61.03125,52.4375 L 61.03125,52.5 C 61.03125,53.452492 61.828758,54.21875 62.78125,54.21875 L 65.0625,54.21875 C 66.014992,54.21875 66.78125,53.452492 66.78125,52.5 L 66.78125,52.4375 L 67.8125,52.4375 C 68.068682,52.4375 68.283599,52.309914 68.40625,52.125 C 68.5289,51.940086 68.59375,51.680228 68.59375,51.4375 L 68.59375,50.5 C 68.59375,50.257267 68.52914,50.028381 68.40625,49.84375 C 68.283363,49.659119 68.067926,49.53125 67.8125,49.53125 L 66.78125,49.53125 L 66.78125,21.53125 C 66.78125,20.578758 66.014992,19.8125 65.0625,19.8125 L 62.78125,19.8125 M 30.34375,49.9375 L 38.34375,49.9375 C 38.34075,49.95025 38.35695,49.97287 38.375,50.0 C 38.4111,50.05426 38.4375,50.156581 38.4375,50.28125 L 38.4375,51.21875 C 38.4375,51.3432 38.41134,51.445217 38.375,51.5 C 38.35683,51.52739 38.34079,51.52833 38.34375,51.53125 L 30.34375,51.53125 C 30.35644,51.53125 30.34865,51.55469 30.3125,51.5 C 30.27635,51.445312 30.25,51.343525 30.25,51.21875 L 30.25,50.28125 C 30.25,50.156263 30.27658,50.054168 30.3125,50.0 C 30.34842,49.94584 30.35569,49.9375 30.34375,49.9375 M 59.84375,50.1875 L 67.8125,50.1875 C 67.80062,50.1875 67.8077,50.1958 67.84375,50.25 C 67.87985,50.30424 67.9375,50.375545 67.9375,50.5 L 67.9375,51.4375 C 67.9375,51.56195 67.88009,51.66397 67.84375,51.71875 C 67.80741,51.77352 67.79981,51.75 67.8125,51.75 L 59.84375,51.75 C 59.85644,51.75 59.84865,51.77344 59.8125,51.71875 C 59.77635,51.66406 59.71875,51.562268 59.71875,51.4375 L 59.71875,50.5 C 59.71875,50.375225 59.77659,50.304143 59.8125,50.25 C 59.84841,50.19586 59.85569,50.1875 59.84375,50.1875 M 42.59375,51.125 C 42.56264,51.1277 42.52508,51.15731 42.5,51.1875 C 42.44969,51.2479 42.47145,51.29325 42.53125,51.34375 L 42.875,51.625 C 42.89539,51.58055 42.92289,51.54831 42.9375,51.5 C 42.95003,51.45859 42.9304,51.41627 42.9375,51.375 L 42.6875,51.15625 C 42.658037,51.132 42.624864,51.122328 42.59375,51.125 M 43.71875,52.03125 C 43.6845,52.10638 43.63655,52.181223 43.59375,52.25 L 46.21875,54.5 C 46.2703,54.42764 46.31381,54.346175 46.375,54.28125 L 43.71875,52.03125 M 56.75,52.78125 L 55.5625,53.1875 C 55.57994,53.27163 55.61612,53.357168 55.65625,53.4375 L 56.8125,53.03125 C 56.89186,53.0047 56.933738,52.9175 56.90625,52.84375 C 56.87906,52.77013 56.82379,52.75475 56.75,52.78125 M 54.6875,53.5 L 53.15625,54.03125 C 53.18387,54.12606 53.17487,54.217336 53.1875,54.3125 L 54.78125,53.75 C 54.74802,53.67008 54.709365,53.58239 54.6875,53.5 M 51.25,53.5625 C 51.18167,53.57498 51.099175,53.60525 51.03125,53.625 L 47.9375,54.53125 C 48.189365,54.904459 48.20433,55.390231 47.90625,55.75 C 47.657795,56.049827 47.264911,56.13874 46.90625,56.0625 C 47.124164,56.481677 47.587023,56.700772 48.0625,56.5625 L 50.75,55.78125 C 50.526064,55.665696 50.310787,55.468654 50.21875,55.21875 C 50.024626,54.691887 50.31477,54.094162 50.84375,53.90625 L 51.625,53.625 C 51.55918,53.60304 51.507747,53.57025 51.4375,53.5625 C 51.37247,53.5553 51.318325,53.55002 51.25,53.5625 M 52.28125,54.34375 L 51.15625,54.75 C 51.0839,54.77622 51.06679,54.86375 51.09375,54.9375 C 51.12089,55.01075 51.17626,55.0265 51.25,55.0 L 52.3125,54.625 C 52.3169,54.52591 52.3074,54.445812 52.28125,54.34375 M 47.0625,54.90625 C 47.00681,54.96209 46.946665,55.027085 46.90625,55.09375 L 47.03125,55.1875 C 47.09387,55.24225 47.168838,55.24825 47.21875,55.1875 C 47.26905,55.12674 47.24732,55.05075 47.1875,55.0 L 47.0625,54.90625" fill="#000000" fill-opacity="1" stroke="none" transform="matrix(1.7448969,0,0,1.7448969,369.48004,461.78015)"/>
	<path d="M 13.327099,14.849946 L 29.049674000000003,14.582465999999998 C 29.527922000000004,14.572045999999999 29.452830000000002,13.312655999999999 29.845647000000003,13.027884999999998 C 30.029230000000002,12.895357999999998 31.654325000000004,12.889806999999998 32.531093000000006,12.503562999999998 L 32.457043000000006,11.951331999999997 C 32.42365300000001,11.703461999999996 30.118257000000007,11.839413999999998 30.066024000000006,11.614689999999998 C 29.884164000000006,10.830874999999997 29.801933000000005,10.368455999999998 29.618802000000006,10.574994999999998 C 29.557852000000008,11.234350999999998 29.378351000000006,11.503204999999998 29.258821000000005,11.504983999999997 C 25.072705000000006,11.568763999999996 13.178183000000004,11.782545999999996 13.178183000000004,11.782545999999996 L 13.327099,14.849946" fill="#000000" fill-opacity="1" stroke="none"/>
	<path d="M 5.9001736,11.455322 L 13.368842999999998,11.455322 C 13.886047999999999,11.455322 14.302423999999998,11.871699000000001 14.302423999999998,12.388907000000001 L 14.302423999999998,26.859457 C 14.302423999999998,27.376659999999998 13.886047999999999,27.793042 13.368842999999998,27.793042 L 5.900173599999999,27.793042 C 5.382970599999998,27.793042 4.966594599999999,27.37666 4.966594599999999,26.859457 L 4.966594599999999,12.388907 C 4.966594599999999,11.871699 5.382970599999998,11.455321999999999 5.900173599999999,11.455321999999999 L 5.9001736,11.455322" fill="#000000" fill-opacity="1" stroke="none"/>
	<path d="M 13.135445,7.487604 C 13.135445,9.421118 11.568022000000001,10.98854 9.634506600000002,10.98854 C 7.700990600000002,10.98854 6.133567600000002,9.421118 6.133567600000002,7.487604000000001 C 6.133567600000002,5.554087000000001 7.700990600000002,3.9866650000000012 9.634506600000002,3.9866650000000012 C 11.568022000000003,3.9866650000000012 13.135445,5.554087000000001 13.135445,7.487604000000001 L 13.135445,7.487604" fill="#000000" fill-opacity="1" stroke="none"/>
	<path d="M 10.801492,27.092846 L 13.135451,27.092846 C 13.523355,27.092846 13.835639,27.405131 13.835639,27.793034000000002 L 13.835639,43.197151000000005 C 13.835639,43.585061 13.523355,43.897341000000004 13.135451,43.897341000000004 L 10.801492,43.897341000000004 C 10.413587999999999,43.897341000000004 10.101305,43.585061 10.101305,43.197151000000005 L 10.101305,27.793034000000006 C 10.101305,27.405131000000004 10.413588,27.092846000000005 10.801492,27.092846000000005 L 10.801492,27.092846" fill="#000000" fill-opacity="1" stroke="none"/>
	<path d="M 6.1335736,27.092846 L 8.4675326,27.092846 C 8.8554366,27.092846 9.1677206,27.405131 9.1677206,27.793034000000002 L 9.1677206,43.197151000000005 C 9.1677206,43.585061 8.8554366,43.897341000000004 8.4675326,43.897341000000004 L 6.1335736,43.897341000000004 C 5.7456706,43.897341000000004 5.4333866,43.585061 5.4333866,43.197151000000005 L 5.4333866,27.793034000000006 C 5.4333866,27.405131000000004 5.7456706,27.092846000000005 6.1335736,27.092846000000005 L 6.1335736,27.092846" fill="#000000" fill-opacity="1" stroke="none"/>
	<path d="M 3.0705797,11.632746 L 4.0041627,11.632746 C 4.3920667,11.632746 4.7043507,11.945027 4.7043507,12.332934 L 4.7043507,24.936309 C 4.7043507,25.324212000000003 4.3920667,25.636497000000002 4.0041627,25.636497000000002 L 3.0705797,25.636497000000002 C 2.6826757,25.636497000000002 2.3703917,25.324212000000003 2.3703917,24.936309 L 2.3703917,12.332934000000002 C 2.3703917,11.945027000000001 2.6826757,11.632746000000001 3.0705796999999997,11.632746000000001 L 3.0705797,11.632746" fill="#000000" fill-opacity="1" stroke="none"/>
	<path d="M 22.073589,27.642379 L 28.375277999999998,27.642379 C 28.892483,27.642379 29.30886,28.058757 29.30886,28.575964999999997 L 29.30886,43.046515 C 29.30886,43.563718 28.892483,43.9801 28.375277999999998,43.9801 L 22.073589,43.9801 C 21.556385,43.9801 21.140009999999997,43.563718 21.140009999999997,43.046515 L 21.140009999999997,28.575965 C 21.140009999999997,28.058757 21.556384999999995,27.642379 22.073589,27.642379" fill="#000000" fill-opacity="1" stroke="none"/>
	<path d="M 28.725372,23.674662 C 28.725372,24.641421 28.842074,27.175589000000002 28.842074,27.175589000000002 C 28.842074,27.175589000000002 28.800654,27.175589000000002 28.726279,27.175589000000002 C 28.651909000000003,27.175589000000002 28.507096,26.942191 28.375281,26.942191 C 28.243469,26.942191 28.124656,27.175593000000003 27.952337,27.175593000000003 C 27.780018,27.175593000000003 27.637589,26.942191 27.441698,26.942191 C 27.245804999999997,26.942191 26.996451999999998,27.175593000000003 26.793920999999997,27.175597 C 26.591392999999997,27.175597 26.700350999999998,26.942191 26.508114999999997,26.942191 C 26.315880999999997,26.942191 25.822449999999996,27.175602 25.657443999999998,27.175602 C 25.492437999999996,27.175602 25.228585,26.942191 25.10774,26.942191 C 24.986894,26.942191 24.95643,27.175602 24.791424,27.175602 C 24.626417,27.175602 24.36639,26.942191 24.174155,26.942191 C 23.98192,26.942191 23.857477,27.175597 23.654949,27.175597 C 23.452417999999998,27.175593 23.203066999999997,26.942191 23.007177,26.942191 C 22.811284999999998,26.942191 22.668854999999997,27.175593000000003 22.496536,27.175593000000003 C 22.324216999999997,27.175593000000003 22.205406,26.942191 22.073591999999998,26.942191 C 21.941779999999998,26.942191 21.796967,27.175589000000002 21.722596,27.175589000000002 C 21.648226,27.175589000000002 21.606802,27.175589000000002 21.606802,27.175589000000002 C 21.606802,27.175589000000002 21.723495,24.641421 21.723495,23.674662 C 21.723495,21.741149 23.290919,20.173723000000003 25.224434,20.173723000000003 C 27.157949,20.173723000000003 28.725372,21.741149000000004 28.725372,23.674662" fill="#000000" fill-opacity="1" stroke="none"/>
	<path d="M 26.510751,43.321161 L 28.144517,43.321161 C 28.532421,43.321161 28.844705,43.633441999999995 28.844705,44.021348999999994 L 28.844705,59.42537899999999 C 28.844705,59.813278999999994 28.532421,60.125558999999996 28.144517,60.125558999999996 L 26.510751,60.125558999999996 C 26.122847,60.125558999999996 25.810563,59.813278999999994 25.810563,59.42537899999999 L 25.810563,44.021348999999994 C 25.810563,43.633441999999995 26.122847,43.321161 26.510751,43.321161" fill="#000000" fill-opacity="1" stroke="none"/>
	<path d="M 22.314682,43.259275 L 23.948458000000002,43.259275 C 24.336362,43.259275 24.648646000000003,43.571560000000005 24.648646000000003,43.959463 L 24.648646000000003,59.363539 C 24.648646000000003,59.751449 24.336362,60.063729 23.948458000000002,60.063729 L 22.314682,60.063729 C 21.926778000000002,60.063729 21.614494,59.751449 21.614494,59.363539 L 21.614494,43.959463 C 21.614494,43.57156 21.926778,43.259275 22.314682,43.259275" fill="#000000" fill-opacity="1" stroke="none"/>
	<path d="M 19.272843,27.875777 L 20.206426,27.875777 C 20.59433,27.875777 20.906614,28.188062 20.906614,28.575965 L 20.906614,40.012361999999996 C 20.906614,40.40026399999999 20.59433,40.71254999999999 20.206426,40.71254999999999 L 19.272843,40.71254999999999 C 18.884939000000003,40.71254999999999 18.572655,40.40026399999999 18.572655,40.012361999999996 L 18.572655,28.575964999999997 C 18.572655,28.188061999999995 18.884939000000003,27.875776999999996 19.272843,27.875776999999996 L 19.272843,27.875777" fill="#000000" fill-opacity="1" stroke="none"/>
	<path d="M 29.308864,39.545571 L 30.942633,48.881406 L 19.506234,48.881406 L 21.14001,39.545570999999995 L 29.308864,39.545571" fill="#000000" stroke="none"/>
	<path d="M 38.642706,46.270167 L 46.111376,46.270167 C 46.628581,46.270167 47.044957,46.686544 47.044957,47.203752 L 47.044957,61.674302 C 47.044957,62.191505 46.628581,62.607887 46.111376,62.607887 L 38.642706,62.607887 C 38.125502999999995,62.607887 37.709126999999995,62.191505 37.709126999999995,61.674302 L 37.709126999999995,47.203751999999994 C 37.709126999999995,46.686544 38.125502999999995,46.270166999999994 38.642706,46.270166999999994 L 38.642706,46.270167" fill="#000000" fill-opacity="1" stroke="none"/>
	<path d="M 45.877978,42.302449 C 45.877978,44.235963000000005 44.310555,45.803385000000006 42.377038999999996,45.803385000000006 C 40.443523,45.803385000000006 38.876099999999994,44.235963000000005 38.876099999999994,42.302449 C 38.876099999999994,40.368932 40.44352299999999,38.80151 42.377038999999996,38.80151 C 44.310554999999994,38.80151 45.877978,40.368932 45.877978,42.302449" fill="#000000" fill-opacity="1" stroke="none"/>
	<path d="M 43.544025,61.907691 L 45.877984,61.907691 C 46.265888,61.907691 46.578171999999995,62.219976 46.578171999999995,62.607879 L 46.578171999999995,78.011996 C 46.578171999999995,78.399906 46.265888,78.712186 45.877984,78.712186 L 43.544025,78.712186 C 43.156121,78.712186 42.843838,78.399906 42.843838,78.011996 L 42.843838,62.607879 C 42.843838,62.219975999999996 43.156121,61.907691 43.544025,61.907691" fill="#000000" fill-opacity="1" stroke="none"/>
	<path d="M 38.876106,61.907691 L 41.210065,61.907691 C 41.597969,61.907691 41.910253,62.219976 41.910253,62.607879 L 41.910253,78.011996 C 41.910253,78.399906 41.597969,78.712186 41.210065,78.712186 L 38.876106,78.712186 C 38.488203,78.712186 38.175919,78.399906 38.175919,78.011996 L 38.175919,62.607879 C 38.175919,62.219975999999996 38.488203,61.907691 38.876106,61.907691" fill="#000000" fill-opacity="1" stroke="none"/>
	<path d="M 35.813112,46.657514 L 36.746694999999995,46.657514 C 37.134598999999994,46.657514 37.44688299999999,46.969795 37.44688299999999,47.357701999999996 L 37.44688299999999,59.961076999999996 C 37.44688299999999,60.34898 37.134598999999994,60.66126499999999 36.746694999999995,60.66126499999999 L 35.813112,60.66126499999999 C 35.425208,60.66126499999999 35.112924,60.34897999999999 35.112924,59.961076999999996 L 35.112924,47.357701999999996 C 35.112924,46.969795 35.425208,46.657514 35.813112,46.657514" fill="#000000" fill-opacity="1" stroke="none"/>
	<path d="M 29.266296,31.562901 L 42.839383,23.622988 C 43.251129,23.379482 42.568359,22.318573 42.771163,21.877812 C 42.866223,21.67231 44.279971,20.870894999999997 44.854858,20.104467999999997 L 44.519626,19.659425999999996 C 44.369023000000006,19.459742999999996 42.426221000000005,20.708283999999995 42.270540000000004,20.538011999999995 C 41.727822,19.943960999999994 41.42948200000001,19.581212999999995 41.371100000000006,19.851002999999995 C 41.64117300000001,20.455590999999995 41.6165,20.777916999999995 41.513187,20.838057999999997 C 37.895724,22.945567999999998 27.632945,28.962272 27.632945,28.962272 L 29.266296,31.562901" fill="#000000" fill-opacity="1" stroke="none"/>
	<path d="M 46.945108,49.339436 L 53.797578,35.186184 C 54.003978000000004,34.754641 52.846087000000004,34.253651 52.769096000000005,33.774618 C 52.73362600000001,33.550991999999994 53.461609,32.098071999999995 53.51232,31.141340999999997 L 52.986049,30.958363999999996 C 52.749762000000004,30.876373999999995 51.831321,32.99528599999999 51.607193,32.940549 C 50.825605,32.749344 50.375803000000005,32.614177999999995 50.477545,32.870779 C 51.03854,33.22256 51.197537,33.504025 51.145213999999996,33.611509999999996 C 49.314114999999994,37.376442 44.140249,48.088887 44.140249,48.088887 L 46.945108,49.339436" fill="#000000" fill-opacity="1" stroke="none"/>
</svg>
