<?xml version="1.0" ?>
<svg xmlns="http://www.w3.org/2000/svg" xmlns:cc="http://creativecommons.org/ns#" xmlns:dc="http://purl.org/dc/elements/1.1/" xmlns:ev="http://www.w3.org/2001/xml-events" xmlns:inkscape="http://www.inkscape.org/namespaces/inkscape" xmlns:rdf="http://www.w3.org/1999/02/22-rdf-syntax-ns#" xmlns:sodipodi="http://sodipodi.sourceforge.net/DTD/sodipodi-0.dtd" xmlns:svg="http://www.w3.org/2000/svg" xmlns:xlink="http://www.w3.org/1999/xlink" baseProfile="full" height="600px" version="1.1" viewBox="0 0 80 80" width="240px" x="0px" y="0px">
	<defs/>
	<path d="M 49.0,0.90625 C 44.252286,0.90625 40.40625,4.7522856 40.40625,9.5 C 40.40625,14.247714 44.252286,18.09375 49.0,18.09375 C 53.747714,18.09375 57.59375,14.247714 57.59375,9.5 C 57.59375,4.7522856 53.747714,0.90625 49.0,0.90625 M 39.84375,19.25 C 38.573767,19.25 37.5625,20.261261 37.5625,21.53125 L 37.5625,48.4375 C 37.994374,48.214604 38.50145,48.130458 39.0,48.28125 L 42.53125,49.375 C 43.284092,49.602693 43.78595,50.264632 43.875,51.0 L 47.15625,53.78125 C 47.17938,53.773547 47.195157,53.756876 47.21875,53.75 L 50.75,52.71875 C 51.458788,52.512413 52.203455,52.752747 52.6875,53.25 L 54.6875,52.5625 C 54.792374,52.10181 55.050171,51.691022 55.46875,51.40625 L 58.5,49.34375 C 58.829587,49.119411 59.220707,49.000791 59.59375,49.0 C 59.904619,48.999341 60.19475,49.076302 60.46875,49.21875 L 60.46875,21.53125 C 60.46875,20.261261 59.457489,19.25 58.1875,19.25 L 39.84375,19.25 M 33.03125,19.8125 C 32.078758,19.8125 31.3125,20.578758 31.3125,21.53125 L 31.3125,49.25 L 30.34375,49.25 C 30.088324,49.25 29.872534,49.440221 29.75,49.625 C 29.627463,49.809779 29.5625,50.038728 29.5625,50.28125 L 29.5625,51.21875 C 29.5625,51.461163 29.6277,51.689995 29.75,51.875 C 29.8723,52.060005 30.087567,52.1875 30.34375,52.1875 L 31.3125,52.1875 L 31.3125,52.5 C 31.3125,53.452492 32.078758,54.21875 33.03125,54.21875 L 35.3125,54.21875 C 36.264992,54.21875 37.03125,53.452492 37.03125,52.5 L 37.03125,52.1875 L 37.5625,52.1875 L 37.5625,57.0625 C 37.5625,57.922868 38.024486,58.664348 38.71875,59.0625 C 38.702723,59.157154 38.6875,59.275645 38.6875,59.375 L 38.6875,97.1875 C 38.6875,98.139992 39.453758,98.90625 40.40625,98.90625 L 46.15625,98.90625 C 47.108742,98.90625 47.875,98.139992 47.875,97.1875 L 47.875,59.375 L 50.15625,59.375 L 50.15625,97.1875 C 50.15625,98.139992 50.922508,98.90625 51.875,98.90625 L 57.59375,98.90625 C 58.546242,98.90625 59.3125,98.139992 59.3125,97.1875 L 59.3125,59.375 C 59.3125,59.275645 59.297277,59.157154 59.28125,59.0625 C 59.988788,58.668118 60.46875,57.932739 60.46875,57.0625 L 60.46875,52.6875 L 57.65625,54.59375 C 56.938733,55.081873 55.989555,55.01799 55.34375,54.5 L 53.09375,55.3125 C 52.875342,55.833783 52.42484,56.26814 51.84375,56.4375 L 48.3125,57.46875 C 47.291859,57.765875 46.203522,57.176775 45.90625,56.15625 C 45.831918,55.901116 45.814042,55.624439 45.84375,55.375 C 45.845007,55.364447 45.84232,55.354268 45.84375,55.34375 L 42.90625,52.875 C 42.462998,53.123384 41.929976,53.220907 41.40625,53.0625 L 38.4375,52.15625 C 38.657038,52.132868 38.827789,52.040406 38.9375,51.875 C 39.026472,51.740861 39.046082,51.577343 39.0625,51.40625 L 41.6875,52.1875 C 41.822927,52.228419 41.963972,52.233202 42.09375,52.21875 L 41.9375,52.0625 C 41.509532,51.6993 41.45433,51.026 41.8125,50.59375 C 41.946802,50.431656 42.122969,50.33529 42.3125,50.28125 C 42.289297,50.272459 42.274146,50.257312 42.25,50.25 L 38.75,49.1875 C 38.614567,49.146584 38.473941,49.143255 38.34375,49.15625 C 38.229963,49.167607 38.130945,49.203058 38.03125,49.25 L 37.03125,49.25 L 37.03125,21.53125 C 37.03125,20.578758 36.264992,19.8125 35.3125,19.8125 L 33.03125,19.8125 M 62.78125,19.8125 C 61.828758,19.8125 61.03125,20.578758 61.03125,21.53125 L 61.03125,49.53125 L 59.84375,49.53125 C 59.588324,49.53125 59.372539,49.659027 59.25,49.84375 C 59.214084,49.897893 59.214287,49.969314 59.1875,50.03125 C 59.13566,50.054527 59.079714,50.060817 59.03125,50.09375 L 56.1875,52.03125 L 56.4375,51.9375 C 56.966435,51.7496 57.555869,52.035637 57.75,52.5625 C 57.876591,52.906034 57.776442,53.261922 57.5625,53.53125 L 59.40625,52.25 C 59.525271,52.350715 59.664649,52.4375 59.84375,52.4375 L 61.03125,52.4375 L 61.03125,52.5 C 61.03125,53.452492 61.828758,54.21875 62.78125,54.21875 L 65.0625,54.21875 C 66.014992,54.21875 66.78125,53.452492 66.78125,52.5 L 66.78125,52.4375 L 67.8125,52.4375 C 68.068682,52.4375 68.283599,52.309914 68.40625,52.125 C 68.5289,51.940086 68.59375,51.680228 68.59375,51.4375 L 68.59375,50.5 C 68.59375,50.257267 68.529137,50.028381 68.40625,49.84375 C 68.283363,49.659119 68.067926,49.53125 67.8125,49.53125 L 66.78125,49.53125 L 66.78125,21.53125 C 66.78125,20.578758 66.014992,19.8125 65.0625,19.8125 L 62.78125,19.8125 M 30.34375,49.9375 L 38.34375,49.9375 C 38.340722,49.950248 38.35695,49.972869 38.375,50.0 C 38.4111,50.054263 38.4375,50.156581 38.4375,50.28125 L 38.4375,51.21875 C 38.4375,51.3432 38.411338,51.445217 38.375,51.5 C 38.356831,51.527394 38.340794,51.528333 38.34375,51.53125 L 30.34375,51.53125 C 30.356437,51.53125 30.348687,51.554688 30.3125,51.5 C 30.27635,51.445312 30.25,51.343525 30.25,51.21875 L 30.25,50.28125 C 30.25,50.156263 30.276575,50.054168 30.3125,50.0 C 30.348425,49.945838 30.355688,49.9375 30.34375,49.9375 M 59.84375,50.1875 L 67.8125,50.1875 C 67.800625,50.1875 67.807688,50.195763 67.84375,50.25 C 67.87985,50.304237 67.9375,50.375545 67.9375,50.5 L 67.9375,51.4375 C 67.9375,51.56195 67.880088,51.66397 67.84375,51.71875 C 67.807412,51.773525 67.799813,51.75 67.8125,51.75 L 59.84375,51.75 C 59.856438,51.75 59.848688,51.773438 59.8125,51.71875 C 59.77635,51.664062 59.71875,51.562268 59.71875,51.4375 L 59.71875,50.5 C 59.71875,50.375225 59.776587,50.304143 59.8125,50.25 C 59.848413,50.195863 59.855687,50.1875 59.84375,50.1875 M 42.59375,51.125 C 42.562636,51.127672 42.525081,51.157313 42.5,51.1875 C 42.449687,51.2479 42.47145,51.29325 42.53125,51.34375 L 42.875,51.625 C 42.895393,51.580553 42.922887,51.548314 42.9375,51.5 C 42.950033,51.458593 42.930399,51.416271 42.9375,51.375 L 42.6875,51.15625 C 42.658037,51.132 42.624864,51.122328 42.59375,51.125 M 43.71875,52.03125 C 43.684502,52.106384 43.636548,52.181223 43.59375,52.25 L 46.21875,54.5 C 46.270298,54.427644 46.313806,54.346175 46.375,54.28125 L 43.71875,52.03125 M 56.75,52.78125 L 55.5625,53.1875 C 55.579944,53.271631 55.616119,53.357168 55.65625,53.4375 L 56.8125,53.03125 C 56.891862,53.0047 56.933738,52.9175 56.90625,52.84375 C 56.87906,52.770125 56.823787,52.75475 56.75,52.78125 M 54.6875,53.5 L 53.15625,54.03125 C 53.183871,54.126063 53.174874,54.217336 53.1875,54.3125 L 54.78125,53.75 C 54.74802,53.67008 54.709365,53.58239 54.6875,53.5 M 51.25,53.5625 C 51.181675,53.57498 51.099175,53.605247 51.03125,53.625 L 47.9375,54.53125 C 48.189365,54.904459 48.20433,55.390231 47.90625,55.75 C 47.657795,56.049827 47.264911,56.13874 46.90625,56.0625 C 47.124164,56.481677 47.587023,56.700772 48.0625,56.5625 L 50.75,55.78125 C 50.526064,55.665696 50.310787,55.468654 50.21875,55.21875 C 50.024626,54.691887 50.314769,54.094162 50.84375,53.90625 L 51.625,53.625 C 51.559182,53.603041 51.507747,53.570247 51.4375,53.5625 C 51.372474,53.555329 51.318325,53.55002 51.25,53.5625 M 52.28125,54.34375 L 51.15625,54.75 C 51.0839,54.776225 51.066788,54.86375 51.09375,54.9375 C 51.120894,55.01075 51.176262,55.0265 51.25,55.0 L 52.3125,54.625 C 52.316905,54.52591 52.307447,54.445812 52.28125,54.34375 M 47.0625,54.90625 C 47.006812,54.962092 46.946665,55.027085 46.90625,55.09375 L 47.03125,55.1875 C 47.093868,55.24225 47.168838,55.24825 47.21875,55.1875 C 47.26905,55.126738 47.247325,55.05075 47.1875,55.0 L 47.0625,54.90625" fill="#000000" fill-opacity="1" stroke="none" transform="matrix(1.7448969,0,0,1.7448969,369.48004,461.78015)"/>
</svg>
