<?xml version="1.0" ?>
<svg xmlns="http://www.w3.org/2000/svg" xmlns:ev="http://www.w3.org/2001/xml-events" xmlns:xlink="http://www.w3.org/1999/xlink" baseProfile="full" enable-background="new 0 0 100 83.077" height="499px" version="1.1" viewBox="0 0 100 83.077" width="600px" x="0px" xml:space="preserve" y="0px">
	<defs/>
	<path d="M 0.0,73.687 L 18.232,73.687 L 18.232,55.184 L 36.298,55.184 L 36.298,36.519 L 54.694,36.519 L 54.694,18.23 L 72.924,18.23 L 72.924,0.0 L 100.0,0.0 L 100.0,9.279 L 81.984,9.279 L 81.984,27.567 L 63.755,27.567 L 63.755,46.068 L 45.524,46.068 L 45.524,64.46 L 27.184,64.46 L 27.184,83.077 L 0.0,83.077 L 0.0,73.687 L 0.0,73.687" points="0,73.687 18.232,73.687 18.232,55.184 36.298,55.184 36.298,36.519 54.694,36.519 54.694,18.23 72.924,18.23    72.924,0 100,0 100,9.279 81.984,9.279 81.984,27.567 63.755,27.567 63.755,46.068 45.524,46.068 45.524,64.46 27.184,64.46    27.184,83.077 0,83.077 0,73.687 "/>
</svg>
