<svg xmlns:dc="http://purl.org/dc/elements/1.1/" xmlns:cc="http://creativecommons.org/ns#" xmlns:rdf="http://www.w3.org/1999/02/22-rdf-syntax-ns#" xmlns:svg="http://www.w3.org/2000/svg" xmlns="http://www.w3.org/2000/svg" xmlns:sodipodi="http://sodipodi.sourceforge.net/DTD/sodipodi-0.dtd" xmlns:inkscape="http://www.inkscape.org/namespaces/inkscape" viewBox="0 0 80 80" version="1.1" x="0px" y="0px"><path style="" d="m 45.570043,2.2580932 c -0.275705,0.016968 -0.548047,0.1488865 -0.746302,0.3731506 l -5.895777,6.6793937 -0.07464,0.074635 c -0.249226,0.144508 -0.447781,0.361703 -0.447781,0.6716725 l 0,65.450595 -15.858895,0 c -0.352765,0 -0.634356,0.281591 -0.634356,0.634356 0,0.352766 0.281591,0.634357 0.634356,0.634357 l 16.418621,0 c 0.05958,0 0.09463,-0.02215 0.149261,-0.03732 0.0424,0.0066 0.06764,0.03732 0.111945,0.03732 l 0.52241,0 c 0.463388,0 0.820932,-0.357545 0.820932,-0.820932 l 0,-0.858246 2.089642,-0.970191 c 1.292655,1.793896 3.38113,3.008753 5.746518,3.097148 4.075344,0.152298 7.497287,-3.014514 7.649585,-7.089858 0.147538,-3.94799 -2.826008,-7.26924 -6.716709,-7.61227 l 0,-6.828655 0,-0.29852 -0.261206,-0.186575 -8.50783,-5.933093 0,-38.583761 5.858463,-6.6420791 C 46.824797,3.6006879 46.802187,2.9158063 46.353658,2.5192986 46.129394,2.3210441 45.845747,2.2411206 45.570043,2.2580932 z m -5.000217,48.4349338 7.574955,5.298738 0,6.492818 c -3.718283,0.256135 -6.723653,3.281653 -6.865969,7.089859 l 0,0.261205 c 0,1.169893 0.295303,2.260195 0.783616,3.246409 l -1.492602,0.708987 0,-23.098016 z m 8.097365,16.605198 c 1.41742,0 2.574738,1.120003 2.574738,2.537422 0,1.417419 -1.157318,2.574739 -2.574738,2.574739 -1.417419,0 -2.574738,-1.15732 -2.574738,-2.574739 0,-1.417419 1.157319,-2.537422 2.574738,-2.537422 z" fill="#000000" fill-opacity="1" stroke="none"></path></svg>