<svg xmlns:dc="http://purl.org/dc/elements/1.1/" xmlns:cc="http://creativecommons.org/ns#" xmlns:rdf="http://www.w3.org/1999/02/22-rdf-syntax-ns#" xmlns:svg="http://www.w3.org/2000/svg" xmlns="http://www.w3.org/2000/svg" xmlns:sodipodi="http://sodipodi.sourceforge.net/DTD/sodipodi-0.dtd" xmlns:inkscape="http://www.inkscape.org/namespaces/inkscape" viewBox="0 0 80 80" version="1.1" x="0px" y="0px"><path style="" d="m 44.606804,16.497526 c -6.395635,0 -11.612887,4.940932 -12.094392,11.213143 -0.013,4.834085 -0.07178,11.27337 -0.06078,16.105599 l -29.2331804,0 0,16.591805 2.1879303,0 0,0.03038 c 0,0.96263 0.7694816,1.732112 1.7321115,1.732112 l 4.2846976,0 c 0.962629,0 1.732111,-0.769482 1.732111,-1.732112 l 0,-0.03038 37.498695,0 0,0.03038 c 0,0.96263 0.769481,1.732112 1.732111,1.732112 l 4.284697,0 c 0.96263,0 1.732112,-0.769482 1.732112,-1.732112 l 0,-0.03038 2.674137,0 0,-2.765302 2.795688,0 1.002802,-2.613362 c 0.124675,-0.100445 0.240279,-0.204681 0.303879,-0.364655 L 75.967138,27.528341 c 0.196402,-0.494012 -0.05296,-1.049503 -0.546982,-1.245904 L 74.47813,25.917782 c -0.123502,-0.0491 -0.240006,-0.09372 -0.364654,-0.09116 -0.373944,0.0077 -0.733949,0.23725 -0.88125,0.607759 l -0.425431,1.063577 -0.850862,0 c -0.875368,0 0.02451,-0.297915 -0.972414,1.944827 0,0 -4.193533,13.613789 -5.165945,15.558617 C 64.84516,46.94623 61.92792,46.94623 61.92792,44.028991 l 0,-4.862068 c -0.972414,-1.944827 -1.944828,-1.944827 -2.917242,0 l 0,4.649352 -2.248706,0 C 56.782612,38.208453 56.769072,32.4194 56.701202,27.710677 56.219693,21.438458 51.00244,16.497526 44.606804,16.497526 z M 44.424477,26.52554 c 1.074098,0 1.944827,0.87073 1.944827,1.944827 0,1.074097 -0.870729,1.944827 -1.944827,1.944827 -1.074098,0 -1.944827,-0.87073 -1.944827,-1.944827 0,-1.074097 0.870729,-1.944827 1.944827,-1.944827 z m 0,4.740516 0.03038,0.516594 -0.395043,0.03039 -0.03038,-0.516594 0.395043,-0.03038 z m 0.243104,0 0.395042,0.03038 0,0.516596 -0.42543,-0.03039 0.03039,-0.516593 z m -0.881251,0.06077 0.09116,0.486206 -0.425431,0.06077 -0.06077,-0.486206 0.395043,-0.06077 z m 1.519396,0 0.425432,0.06077 -0.09116,0.486206 -0.395042,-0.06077 0.06077,-0.486206 z m -2.127155,0.09116 0.09116,0.486206 -0.395043,0.09116 -0.121552,-0.486206 0.425431,-0.09116 z m 2.765302,0 0.395042,0.121551 -0.12155,0.486207 -0.395044,-0.121552 0.121552,-0.486206 z m -3.403447,0.151939 0.182327,0.486206 -0.395043,0.121553 -0.182328,-0.45582 0.395044,-0.151939 z m 4.011205,0.03038 0.395043,0.121553 -0.151939,0.486206 -0.395043,-0.151939 0.151939,-0.45582 z m -4.618963,0.212717 0.212714,0.455818 -0.364654,0.182328 -0.212715,-0.45582 0.364655,-0.182326 z m 5.257109,0.03038 0.334268,0.15194 -0.182328,0.455819 -0.395043,-0.15194 0.243103,-0.455819 z m -5.83448,0.243103 0.273491,0.425431 -0.364655,0.212716 -0.243103,-0.425431 0.334267,-0.212716 z m 6.381463,0.03038 0.364654,0.212716 -0.27349,0.455818 -0.334267,-0.243102 0.243103,-0.425432 z m -6.928445,0.334268 0.303879,0.395043 -0.334268,0.243103 -0.273491,-0.42543 0.30388,-0.212716 z m 7.475428,0.03038 0.334267,0.212715 -0.30388,0.425431 -0.334266,-0.243103 0.303879,-0.395043 z m -7.992024,0.364655 0.364656,0.334267 -0.334268,0.303879 -0.303879,-0.395042 0.273491,-0.243104 z m 8.508618,0.03039 0.30388,0.27349 -0.334268,0.364656 -0.303879,-0.273491 0.334267,-0.364655 z m -8.964436,0.395043 0.364655,0.334267 -0.273492,0.303879 -0.364655,-0.334266 0.273492,-0.30388 z m 9.420256,0.03038 0.27349,0.303879 -0.364655,0.334267 -0.27349,-0.30388 0.364655,-0.334266 z m -9.845687,0.455818 0.395043,0.303879 -0.243104,0.334267 -0.395043,-0.303879 0.243104,-0.334267 z m 10.271117,0.06077 0.243104,0.303878 -0.395044,0.30388 -0.243103,-0.334268 0.395043,-0.27349 z m -10.635772,0.455818 0.425431,0.273491 -0.212716,0.364656 -0.42543,-0.273492 0.212715,-0.364655 z m 11.000427,0.06077 0.212715,0.334268 0,0.03038 -0.334266,0.182327 -0.09116,0.06077 0,-0.03038 -0.03038,0 -0.182329,-0.334268 0.425431,-0.243104 z m -11.334694,0.516595 0.455818,0.212716 -0.151939,0.364655 -0.455819,-0.212716 0.15194,-0.364655 z m 5.652153,0 c 0.952956,-0.0806 1.937532,0.29341 2.582973,1.093966 0.721061,0.894348 0.824587,2.084341 0.395043,3.069179 l 5.652153,7.01961 c 0.417092,0.51733 0.335003,1.284631 -0.182327,1.701724 l -0.243103,0.182328 c -0.51733,0.417091 -1.284632,0.335001 -1.701724,-0.182328 l -3.342671,-4.163145 -0.06077,0.03038 -0.212716,0.09116 -0.212716,-0.455818 0.15194,-0.06077 -1.975215,-2.461421 c -1.057827,0.21748 -2.192718,-0.134548 -2.917239,-1.03319 -1.032705,-1.280888 -0.825071,-3.160828 0.455818,-4.193533 0.480333,-0.387265 1.038787,-0.589784 1.61056,-0.638146 z m 5.98642,0.03038 0.182328,0.334268 0,0.03038 0,0.03039 -0.455819,0.182326 0,-0.03038 -0.182328,-0.334268 0.455819,-0.212716 z m -11.881676,0.546983 0.486205,0.182327 -0.182326,0.364656 -0.455819,-0.182329 0.15194,-0.364654 z m 12.155168,0.06077 0.121552,0.334267 0.03038,0.03039 0,0.03038 -0.486207,0.121552 -0.15194,-0.364655 0.486208,-0.15194 z m -12.367884,0.546983 0.486206,0.121551 -0.09116,0.395043 -0.486206,-0.121551 0.09116,-0.395043 z m 12.550211,0.06077 0.09116,0.364656 0.03039,0 0,0.03038 0,0.03038 -0.516595,0.06077 0,-0.03038 -0.09116,-0.334267 0.486208,-0.121553 z m -12.671763,0.577372 0.486207,0.06078 -0.06077,0.42543 -0.486207,-0.09116 0.06077,-0.395043 z m 12.823702,0.03038 0.06077,0.395044 0,0.03038 0,0.03038 -0.425432,0 -0.09116,0.03039 0,-0.03039 -0.06077,-0.364655 0.516594,-0.09116 z m -12.914865,0.607759 0.486205,0 0,0.425431 -0.516593,-0.03039 0.03039,-0.395042 z m 12.975642,0.03038 0.03038,0.42543 0.364655,0 -0.546982,0.668535 -0.698921,-0.607758 0.364655,-0.03038 0,-0.425432 0.486206,-0.03038 z m -12.489437,0.57737 0.03038,0.395043 -0.516595,0.03038 0,-0.395043 0.486206,-0.03039 z m 0.03038,0.607759 0.06077,0.395043 -0.486207,0.09116 -0.06077,-0.42543 0.486208,-0.06077 z m 0.121551,0.57737 0.09116,0.395043 -0.486206,0.121552 -0.09116,-0.395042 0.486206,-0.121553 z m 0.151939,0.577371 0.15194,0.395043 -0.486207,0.151939 -0.151939,-0.395043 0.486206,-0.151939 z m 0.212716,0.546982 0.182328,0.364655 -0.45582,0.212716 -0.182327,-0.364655 0.455819,-0.212716 z m 0.273492,0.516595 0.212715,0.364656 -0.425431,0.243103 -0.243103,-0.334268 0.455819,-0.273491 z m 0.303879,0.516595 0.243102,0.334266 -0.395042,0.273492 -0.243103,-0.303879 0.395043,-0.303879 z m 0.395043,0.455819 0.243102,0.303879 -0.364655,0.334266 -0.27349,-0.273491 0.395043,-0.364654 z m 0.395042,0.42543 0.273492,0.273492 0.03039,0 -0.15194,0.212715 -0.182327,0.15194 -0.303879,-0.273492 0.334267,-0.364655 z m 0.455819,0.395044 0.303879,0.212715 0,0.03038 -0.273491,0.395043 -0.03038,0 -0.30388,-0.243104 0.30388,-0.395043 z m 0.486208,0.334267 0.303878,0.182326 0.03038,0.03039 -0.212716,0.425431 -0.06077,0 0,-0.03038 -0.303879,-0.182327 0.243105,-0.425431 z m 0.516594,0.303879 0.303879,0.151939 0.03039,0 0.03038,0 -0.182327,0.486207 -0.06077,-0.03038 -0.03039,0 -0.303879,-0.15194 0.212714,-0.455819 z m 4.983619,0.151939 0.212716,0.455819 -0.15194,0.06077 -0.243104,0.09116 -0.182327,-0.486207 0.243103,-0.06077 0,-0.03039 0.121552,-0.03038 z m -4.436636,0.06077 0.334266,0.121552 0.03039,0 -0.121552,0.486207 -0.06077,0 -0.364654,-0.121552 0.182327,-0.486207 z m 3.889653,0.121552 0.151939,0.486207 -0.121551,0.03038 -0.303879,0.09116 -0.121552,-0.486206 0.273491,-0.09116 0.03039,0 0.09116,-0.03038 z m -3.342672,0.09116 0.334268,0.06077 0.03039,0 0.03038,0.03038 -0.06077,0.486207 -0.06077,0 -0.03038,0 0,-0.03038 -0.364655,-0.06077 0.12155,-0.486208 z m 2.765302,0.06077 0.12155,0.486208 -0.09116,0.03038 -0.03038,0 -0.303879,0.06077 -0.09116,-0.516594 0.303879,-0.03039 0.03039,0 0.06077,-0.03038 z m -2.157543,0.06077 0.334268,0.03038 0.03038,0 -0.03038,0.516594 -0.03038,0 -0.03038,0 -0.364655,-0.06077 0.09116,-0.486206 z m 1.489008,0.03038 0.06077,0 0.03038,0 0.06077,0.516594 -0.06077,0 -0.03038,0 -0.334268,0 -0.03038,-0.486206 0.303879,-0.03039 z m -0.911637,0.03039 0.364655,0 0.03038,0 0,0.516594 -0.03038,0 -0.364655,-0.03038 0,-0.486205 z m 7.809695,2.03599 c -0.249085,-0.02672 -0.518879,0.04306 -0.729309,0.212715 -0.420864,0.339318 -0.46087,0.946594 -0.121553,1.367458 0.339317,0.420862 0.946593,0.491257 1.367457,0.151939 0.420863,-0.339317 0.491257,-0.946594 0.15194,-1.367457 -0.169659,-0.210432 -0.419451,-0.337935 -0.668535,-0.364655 z m -46.4327433,0.638147 35.0068853,0 0,0.972413 -35.0068853,0 0,-0.972413 z m 37.9241263,4.37586 0,1.944827 3.889654,0 0,1.944827 -3.889654,0 0,1.944828 -2.917241,-2.917241 2.917241,-2.917241 z m -34.7637826,1.428232 0.1215518,0.577371 -0.3038792,0.06077 -0.091163,-0.57737 0.2734912,-0.06077 z m 6.9284466,0 0.09116,0.577371 -0.303879,0.06077 -0.09116,-0.57737 0.303879,-0.06077 z m -5.8952571,0.06077 0.03038,0 0.03039,0.03038 0.03039,0 0.2431041,0.09116 -0.2431041,0.57737 -0.243103,-0.121552 0.06077,-0.121552 0.09117,-0.455819 z m 6.8980571,0 0.03038,0 0.03038,0.03038 0.03039,0 0.243104,0.09116 -0.243104,0.57737 -0.243104,-0.121552 0.06077,-0.121552 0.09116,-0.455819 z m -9.1467634,0.425431 0.2734914,0.395042 0.091163,0.09116 -0.030389,0.03038 -0.1519395,0.151939 -0.4254309,-0.425431 0.1823275,-0.212715 0.030387,0 0.030388,-0.03038 z m 6.8980584,0 0.273491,0.395042 0.09116,0.09116 0,0.03038 -0.182327,0.151939 -0.425431,-0.425431 0.182327,-0.212715 0.03039,0 0.03038,-0.03038 z m -3.494612,0.303879 0.121553,0.121551 0.03039,0.03038 0.06077,0.121553 -0.486207,0.334267 -0.06078,-0.121552 -0.09117,-0.09116 0.425431,-0.395043 z m 6.89806,0 0.12155,0.121551 0.03038,0.03038 0.06077,0.121553 -0.486207,0.334267 -0.06077,-0.121552 -0.09116,-0.09116 0.425431,-0.395043 z m -11.1219802,0.790085 0.5773704,0.243104 -0.060776,0.09116 0,0.03038 -0.030388,0 0,0.09116 -0.6077584,-0.121551 0.030387,-0.121553 0.030387,-0.03038 0,-0.03038 0.060776,-0.151941 z m 6.8980582,0 0.57737,0.243104 -0.06077,0.09116 0,0.03038 -0.03038,0.09116 -0.577371,-0.121551 0.03039,-0.121553 0,-0.03038 0,-0.03038 0.06077,-0.151941 z m -2.035991,0.395043 0.03039,0.303879 0,0.03039 0,0.03038 -0.27349,0 -0.121552,0 -0.182327,0.03039 0,-0.03039 0,-0.03038 -0.06077,-0.212716 0.607758,-0.121552 z m 6.898058,0 0.03038,0.303879 0.03038,0.03039 0,0.03038 -0.30388,0 -0.121551,0 -0.182327,0.03039 0,-0.03039 0,-0.03038 -0.06077,-0.212716 0.607759,-0.121552 z m -11.3043065,0.820474 0.030387,0.212716 0,0.03038 0.030388,0.03039 -0.1215517,0.03038 -0.4558188,0.182328 0,-0.03038 -0.030387,-0.03038 0,-0.03038 -0.060776,-0.273492 0.6077583,-0.12155 z m 6.8980585,0 0.03039,0.212716 0.03038,0.03038 0,0.03039 -0.121552,0.03038 -0.455819,0.182328 0,-0.03038 -0.03039,-0.03038 0,-0.03038 -0.06077,-0.273492 0.607758,-0.12155 z m -3.129957,0.303879 0.546984,0.243103 -0.121552,0.273492 -0.577371,-0.212716 0.151939,-0.303879 z m 6.89806,0 0.546981,0.243103 -0.12155,0.273492 -0.546984,-0.212716 0.121553,-0.303879 z M 7.5335355,56.001799 7.715863,56.214515 7.2904322,56.639946 7.0777168,56.42723 7.5335355,56.001799 z m 3.0084045,0 0.425431,0.425431 -0.212711,0.21274 -0.425431,-0.425431 0.212715,-0.212716 z m 3.889654,0 0.182328,0.212716 -0.425432,0.425431 -0.212714,-0.212716 0.455818,-0.425431 z m 3.008404,0 0.425431,0.425431 -0.212716,0.212716 -0.42543,-0.425431 0.212715,-0.212716 z m -9.0252127,0.607759 0.030387,0.03038 0.030387,0 0.1519396,0.03038 -0.1215516,0.607757 -0.2127155,-0.06077 -0.030387,0 -0.030387,0 -0.060776,-0.06077 0.2431034,-0.546981 z m 1.2155166,0 0.243103,0.546982 -0.121552,0.06077 -0.03039,0 -0.03038,0 -0.151939,0.06077 -0.121552,-0.607758 0.121552,0 0.03038,-0.03038 0.03039,0 0.03039,-0.03038 z m 5.6825421,0 0.03038,0.03038 0.03039,0 0.151939,0.03038 -0.121552,0.607757 -0.212715,-0.06077 -0.03038,0 -0.03038,0 -0.06077,-0.06077 0.243105,-0.546981 z m 1.215516,0 0.243104,0.546982 -0.121552,0.06077 -0.03038,0 -0.03038,0 -0.15194,0.06077 -0.121552,-0.607758 0.121552,0 0.03038,-0.03038 0.03038,0 0.03038,-0.03038 z" fill="#000000" fill-opacity="1" stroke="none"></path></svg>