<svg xmlns="http://www.w3.org/2000/svg" xmlns:xlink="http://www.w3.org/1999/xlink" version="1.1" x="0px" y="0px" viewBox="0 0 100 100" enable-background="new 0 0 100 100" xml:space="preserve"><g><rect x="-192" width="185" height="99"></rect><rect y="-36" width="100" height="30"></rect><text transform="matrix(1 0 0 1 66 -19.5)" fill="#000000" font-family="'Helvetica'" font-size="2.4">http://thenounproject.com</text><text transform="matrix(1 0 0 1 7.166 -24.5)"><tspan x="0" y="0" fill="#000000" font-family="'Helvetica-Bold'" font-size="6.1578">The Noun Project</tspan><tspan x="1.12" y="4.8" fill="#000000" font-family="'Helvetica-Bold'" font-size="4">Icon Template</tspan></text><text transform="matrix(1 0 0 1 -178.5 10.5)" fill="#000000" font-family="'Helvetica-Bold'" font-size="6.1578">Reminders</text><line fill="#000000" stroke="#FFFFFF" stroke-miterlimit="10" x1="8" y1="-14.5" x2="18" y2="-14.5"></line><line fill="#000000" stroke="#FFFFFF" stroke-miterlimit="10" x1="-179" y1="16.5" x2="-162" y2="16.5"></line><g><g><g><rect x="-170.802" y="31.318" fill="#000000" width="8.721" height="8.642"></rect><path fill="#000000" d="M-164.455,42.312h4.747v-4.703h-4.747V42.312z M-159.266,42.749h-5.63V37.17h5.63V42.749      L-159.266,42.749z M-166.221,44.062h8.279v-8.203h-8.279V44.062L-166.221,44.062z M-157.5,44.5h-9.163v-9.079h9.163V44.5      L-157.5,44.5z"></path><polygon fill="#000000" points="-166.149,44.133 -166.292,43.991 -158.013,35.787 -157.871,35.929     "></polygon></g></g></g><rect x="-179" y="58" fill="none" width="35" height="32.5"></rect><text transform="matrix(1 0 0 1 -179 60.1299)"><tspan x="0" y="0" fill="#000000" font-family="'Helvetica-Bold'" font-size="3">Strokes</tspan><tspan x="0" y="5" fill="#000000" font-family="'Helvetica'" font-size="2.4">Try to keep strokes at 4px</tspan><tspan x="0" y="10" fill="#000000" font-family="'Helvetica'" font-size="2.4">Minimum stroke weight is 2px</tspan><tspan x="0" y="14.5" fill="#000000" font-family="'Helvetica'" font-size="2.4">For thicker strokes use even </tspan><tspan x="0" y="17.5" fill="#000000" font-family="'Helvetica'" font-size="2.4">numbers: 6px, 8px etc.</tspan><tspan x="0" y="22" fill="#000000" font-family="'Helvetica-Bold'" font-size="2.4">Remember to expand strokes </tspan><tspan x="0" y="25" fill="#000000" font-family="'Helvetica-Bold'" font-size="2.4">before saving as an SVG </tspan></text><rect x="-136.5" y="58" fill="none" width="35" height="32.5"></rect><text transform="matrix(1 0 0 1 -136.5 60.1299)"><tspan x="0" y="0" fill="#000000" font-family="'Helvetica-Bold'" font-size="3">Size</tspan><tspan x="0" y="5" fill="#000000" font-family="'Helvetica'" font-size="2.4">Cannot be wider or taller than </tspan><tspan x="0" y="8.5" fill="#000000" font-family="'Helvetica'" font-size="2.4">100px (artboard size)</tspan><tspan x="0" y="13.5" fill="#000000" font-family="'Helvetica'" font-size="2.4">Scale your icon to fill as much of </tspan><tspan x="0" y="16.5" fill="#000000" font-family="'Helvetica'" font-size="2.4">the artboard as possible</tspan></text><rect x="-94" y="58" fill="none" width="35" height="32.5"></rect><text transform="matrix(1 0 0 1 -94 60.1299)"><tspan x="0" y="0" fill="#000000" font-family="'Helvetica-Bold'" font-size="3">Ungroup</tspan><tspan x="0" y="5" fill="#000000" font-family="'Helvetica'" font-size="2.4">If your design has more than one </tspan><tspan x="0" y="8" fill="#000000" font-family="'Helvetica'" font-size="2.4">shape, make sure to ungroup</tspan></text><rect x="-50" y="58" fill="none" width="35" height="32.5"></rect><text transform="matrix(1 0 0 1 -50 60.1299)"><tspan x="0" y="0" fill="#000000" font-family="'Helvetica-Bold'" font-size="3">Save as</tspan><tspan x="0" y="5" fill="#000000" font-family="'Helvetica'" font-size="2.4">Save as .SVG and make sure “Use </tspan><tspan x="0" y="8" fill="#000000" font-family="'Helvetica'" font-size="2.4">Artboards” is checked</tspan></text><text transform="matrix(1.0074 0 0 1 -125.542 30.5933)" fill="#000000" font-family="'Helvetica'" font-size="2.5731">100px</text><text transform="matrix(1.0074 0 0 1 -41 39)" fill="#000000" font-family="'Helvetica-Bold'" font-size="5.1462">.SVG</text><rect x="-126.514" y="34.815" fill="#000000" width="10.261" height="10.185"></rect><rect x="-126.477" y="31.766" fill="#000000" width="0.522" height="2.337"></rect><rect x="-116.813" y="31.766" fill="#000000" width="0.523" height="2.337"></rect><rect x="-127" y="32.337" fill="#000000" width="11.233" height="0.572"></rect><g><rect x="-83.805" y="33.844" fill="#000000" width="10.305" height="10.156"></rect><rect x="-76.809" y="28.707" fill="#000000" width="3.308" height="3.261"></rect></g><rect x="-178.5" y="22.5" fill="#000000" stroke="#FFFFFF" stroke-miterlimit="10" width="30" height="30"></rect><rect x="-136.5" y="22.5" fill="#000000" stroke="#FFFFFF" stroke-miterlimit="10" width="30" height="30"></rect><rect x="-93.5" y="22.5" fill="#000000" stroke="#FFFFFF" stroke-miterlimit="10" width="30" height="30"></rect><rect x="-49.5" y="22.5" fill="#000000" stroke="#FFFFFF" stroke-miterlimit="10" width="30" height="30"></rect></g><g><g><path fill="#000000" d="M97.794,47.086c-0.06,0-0.121-0.003-0.182-0.011C97.461,47.057,82.286,45.236,65.99,45l-0.255-0.002    c-2.368,0-4.786,0.462-7.346,0.952c-2.4,0.459-4.883,0.934-7.356,1.001l-0.229,0.003c-1.435,0-2.967-0.355-4.589-0.731    c-1.825-0.423-3.712-0.86-5.67-0.86l-0.351,0.005c-14.5,0.401-37.721,0.935-37.953,0.94c-0.746,0.02-1.373-0.5-1.509-1.221    s0.27-1.436,0.959-1.688c1.342-0.49,32.965-12.004,40.929-12.004c0.212,0,0.408,0.007,0.59,0.022    c2.386,0.188,3.792,0.355,4.921,0.49c1.457,0.173,2.336,0.278,4.228,0.278c1.409,0,2.898-0.213,4.339-0.419    c1.618-0.232,3.146-0.447,4.42-0.349c8.761,0.656,36.104,12.295,37.264,12.791c0.687,0.293,1.054,1.047,0.86,1.768    C99.064,46.637,98.465,47.086,97.794,47.086z M40.545,42.362c2.301,0,4.451,0.498,6.348,0.938c1.45,0.336,2.82,0.653,3.911,0.653    l0.147-0.002c2.231-0.061,4.487-0.492,6.875-0.949c2.585-0.494,5.257-1.005,7.909-1.005L66.033,42    c8.069,0.117,15.866,0.619,21.736,1.103c-8.929-3.546-21.709-8.308-26.876-8.695c-1.001-0.073-2.329,0.121-3.77,0.328    c-1.473,0.21-3.142,0.45-4.765,0.45c-2.07,0-3.07-0.119-4.583-0.299c-1.104-0.131-2.477-0.295-4.803-0.479    c-0.109-0.008-0.227-0.012-0.354-0.012c-4.634,0-19.451,4.688-31.07,8.693c8.124-0.193,19.899-0.48,28.561-0.72    C40.256,42.364,40.401,42.362,40.545,42.362z"></path></g><g><path fill="#000000" d="M63.048,68.607c-0.079,0-0.156-0.002-0.231-0.006c-3.915-0.192-5.685-0.318-6.742-0.393    c-1.41-0.101-1.703-0.121-4.432-0.121c-2.119,0-3.262,0.093-4.585,0.2c-1.497,0.121-3.194,0.259-6.646,0.315    C34.92,68.602,6.922,49.816,1.365,46.05c-0.539-0.365-0.78-1.035-0.6-1.659c0.181-0.625,0.744-1.062,1.394-1.082    c0.244-0.008,24.567-0.77,37.975-0.941l0.35-0.002c3.406,0,6.082,0.647,8.035,1.119c1.035,0.25,1.929,0.466,2.474,0.466    c0.798,0,2.304-0.245,4.048-0.528c3.386-0.55,8.023-1.304,13.147-1.304h0.149c13.373,0.039,29.474,1.958,29.635,1.978    c0.604,0.073,1.104,0.503,1.266,1.089c0.162,0.586-0.045,1.212-0.525,1.585C95.832,49.006,70.356,68.607,63.048,68.607z     M51.643,65.088c2.834,0,3.182,0.024,4.644,0.128c1.113,0.079,2.795,0.198,6.679,0.39l0.083,0.002    c4.313,0,20.096-10.813,30.857-18.936c-5.516-0.565-16.231-1.525-25.575-1.552h-0.142c-4.882,0-9.381,0.731-12.666,1.265    c-1.949,0.316-3.489,0.567-4.53,0.567c-0.902,0-1.907-0.243-3.179-0.55c-1.908-0.461-4.282-1.035-7.33-1.035l-0.312,0.002    c-9.812,0.125-25.493,0.568-33.255,0.798c14.777,9.846,30.581,19.437,33.44,19.438c3.36-0.055,5.006-0.188,6.458-0.306    C48.203,65.186,49.402,65.088,51.643,65.088z"></path></g><g><path fill="#000000" d="M73.582,51.038c-0.392,0-0.763-0.231-0.923-0.616c-1.596-3.827-5.048-5.738-5.082-5.757    c-0.485-0.264-0.665-0.871-0.401-1.356c0.265-0.485,0.873-0.664,1.356-0.401c0.167,0.091,4.108,2.273,5.973,6.744    c0.213,0.51-0.028,1.095-0.538,1.308C73.841,51.013,73.711,51.038,73.582,51.038z"></path></g><g><path fill="#000000" d="M75.509,62.283c-0.024,0-0.05-0.001-0.074-0.003c-0.551-0.04-0.965-0.52-0.924-1.07    c0.036-0.487,0.144-0.874,0.238-1.216c0.124-0.449,0.215-0.774,0.132-1.279c-0.09-0.545,0.279-1.06,0.824-1.148    c0.547-0.094,1.06,0.279,1.148,0.824c0.155,0.939-0.029,1.604-0.178,2.138c-0.08,0.289-0.149,0.539-0.171,0.828    C76.466,61.883,76.027,62.283,75.509,62.283z"></path></g><g><path fill="#000000" d="M22.6,48.6c-0.073,0-0.148-0.008-0.222-0.025c-0.539-0.122-0.876-0.658-0.754-1.196    c0.756-3.333,3.244-4.074,3.35-4.104c0.531-0.15,1.085,0.158,1.235,0.689c0.149,0.527-0.153,1.075-0.676,1.231    c-0.083,0.027-1.479,0.513-1.958,2.625C23.468,48.286,23.056,48.6,22.6,48.6z"></path></g><g><path fill="#000000" d="M34.614,58.18c-0.043,0-0.087-0.003-0.131-0.009c-0.547-0.071-0.933-0.573-0.862-1.121    c0.283-2.157,0.879-4.188,1.772-6.035c0.241-0.498,0.839-0.704,1.336-0.465c0.497,0.241,0.705,0.839,0.465,1.336    c-0.8,1.654-1.335,3.479-1.589,5.424C35.539,57.813,35.108,58.18,34.614,58.18z"></path></g></g></svg>