<svg xmlns:dc="http://purl.org/dc/elements/1.1/" xmlns:cc="http://creativecommons.org/ns#" xmlns:rdf="http://www.w3.org/1999/02/22-rdf-syntax-ns#" xmlns:svg="http://www.w3.org/2000/svg" xmlns="http://www.w3.org/2000/svg" xmlns:sodipodi="http://sodipodi.sourceforge.net/DTD/sodipodi-0.dtd" xmlns:inkscape="http://www.inkscape.org/namespaces/inkscape" viewBox="0 0 80 80" version="1.1" x="0px" y="0px"><path style="text-indent:0;text-transform:none;direction:ltr;block-progression:tb;baseline-shift:baseline;color:#000000;enable-background:accumulate;" d="M 55.945405,0.64620306 C 56.671262,0.77560476 57.213806,1.5541171 57.085003,2.2802071 53.575753,15.363949 53.372591,30.757339 50.728585,43.48981 l -2.08e-4,0.04349 0.233394,33.788114 c 0.0087,0.738003 -0.654623,1.417545 -1.392602,1.426347 -0.737996,0.01144 -1.417631,-0.654179 -1.426787,-1.3921 L 47.907885,43.875819 22.446554,43.786143 22.327389,77.617131 c 0.0072,0.744707 -0.669863,1.427289 -1.414676,1.424654 -0.744783,-0.0026 -1.41772,-0.689922 -1.404571,-1.434581 l 0.124141,-35.240619 c -0.01866,-0.543207 0.30777,-1.083201 0.797554,-1.318891 -0.289239,-0.291261 -0.482071,-0.702123 -0.480527,-1.146886 0.0031,-0.889752 0.701704,-1.583372 1.591412,-1.580253 l 3.964594,0.01399 0.02992,-8.501895 -2.598982,-0.0091 c -0.74477,0.01142 -1.427355,-0.66979 -1.424737,-1.414681 0.0026,-0.744831 0.689995,-1.417749 1.434663,-1.40456 l 27.487672,0.09682 3.877296,-25.2278229 c 0.09005,-0.7075604 0.79072,-1.28053674 1.502049,-1.22814254 0.04379,1.87e-5 0.08809,2.933e-4 0.132069,4.618e-4 z M 49.98346,29.919376 l -21.628916,-0.07618 -0.02995,8.501859 20.35145,0.07169 z" fill="#000000" fill-opacity="1" stroke="none" marker="none" visibility="visible" display="inline" overflow="visible"></path></svg>