<svg xmlns:dc="http://purl.org/dc/elements/1.1/" xmlns:cc="http://creativecommons.org/ns#" xmlns:rdf="http://www.w3.org/1999/02/22-rdf-syntax-ns#" xmlns:svg="http://www.w3.org/2000/svg" xmlns="http://www.w3.org/2000/svg" xmlns:sodipodi="http://sodipodi.sourceforge.net/DTD/sodipodi-0.dtd" xmlns:inkscape="http://www.inkscape.org/namespaces/inkscape" viewBox="0 0 80 80" version="1.1" x="0px" y="0px"><path style="text-indent:0;text-transform:none;direction:ltr;block-progression:tb;baseline-shift:baseline;color:#000000;enable-background:accumulate;" d="m 43.28125,9.0625 -0.40625,0.21875 2.15625,5.40625 -1.875,1.4375 0,0.03125 -2.375,2.53125 -0.0625,0.0625 0.03125,0.125 0.4375,1.9375 L 41.25,21 l 0.1875,0 4.125,-0.40625 c 0.08971,0.299382 1.418457,4.631125 3.0625,7.9375 0.820317,1.649758 1.541922,4.606714 2.0625,7.125 0.510301,2.46857 0.831776,4.419536 0.84375,4.5 8e-5,5.4e-4 -5.4e-5,0.03089 0,0.03125 l -0.5625,2.03125 -0.09375,0.375 0.375,-0.125 3.21875,-0.90625 0,0.03125 3.25,-0.75 0.34375,-0.0625 L 57.84375,40.5 56.625,39.03125 54.5625,30.625 c 0.528444,0.203811 2.544925,0.914703 4.96875,0.5 2.531603,-0.433145 4.583227,-2.194191 4.96875,-2.53125 l 1.90625,7.375 L 65.75,38.34375 65.625,38.6875 66,38.625 69.40625,38 l 0.03125,0 2.78125,-0.875 0.3125,-0.09375 -0.1875,-0.25 -1.09375,-1.4375 c 0,0 -0.354334,-3.115702 -0.9375,-6.5625 -0.291583,-1.723399 -0.635985,-3.520563 -1.03125,-5.0625 -0.395265,-1.541937 -0.836352,-2.795681 -1.34375,-3.5 l 0,-0.03125 C 66.962819,18.870003 65.646683,18.273061 64.375,18.03125 63.103317,17.789439 61.869342,17.918494 60.96875,18 59.67674,18.119097 56.942501,18.79858 54.5,19.46875 c -2.325455,0.638056 -4.153213,1.192811 -4.34375,1.25 L 47.75,14.65625 47.71875,14.625 l 0,-0.03125 L 43.3125,9.125 43.28125,9.0625 z m 0.5625,1.40625 3.46875,4.34375 2.46875,6.28125 0.09375,0.1875 0.1875,-0.0625 c 0,0 2.126183,-0.644026 4.5625,-1.3125 2.436317,-0.668474 5.188498,-1.359378 6.375,-1.46875 0.897957,-0.08127 2.117636,-0.195954 3.3125,0.03125 1.194864,0.227204 2.380654,0.782644 3.28125,2 0.42327,0.587541 0.859828,1.852934 1.25,3.375 0.390172,1.522066 0.740918,3.315242 1.03125,5.03125 0.580665,3.432016 0.9375,6.53125 0.9375,6.53125 l 0,0.0625 0.03125,0.0625 0.96875,1.28125 -2.46875,0.75 -0.03125,0 -3.0625,0.5625 0.625,-2.09375 0,-0.0625 0,-0.0625 -2.03125,-7.75 -0.09375,-0.34375 -0.28125,0.25 c 0,0 -2.444777,2.182467 -5.03125,2.625 -2.601506,0.445103 -5.09375,-0.625 -5.09375,-0.625 l -0.4375,-0.15625 0.125,0.4375 2.1875,8.875 0,0.0625 0.0625,0.03125 1,1.1875 -2.90625,0.65625 -0.03125,0 -2.84375,0.8125 0.46875,-1.6875 0,-0.03125 0,-0.0625 c 0,0 -0.32035,-2.093064 -0.84375,-4.625 C 50.6016,33.030564 49.866319,30.086026 49,28.34375 47.328054,24.98126 45.9375,20.28125 45.9375,20.28125 L 45.875,20.09375 45.71875,20.125 41.59375,20.53125 41.21875,18.875 43.4375,16.5 43.46875,16.46875 45.4375,14.9375 45.5625,14.84375 45.5,14.6875 43.84375,10.46875 z" fill="#000000" fill-opacity="1" stroke="none" marker="none" visibility="visible" display="inline" overflow="visible"></path><path style="" d="m 65.415362,30.323759 c -0.03048,-0.007 -0.109993,0.04059 -0.204646,0.105705 l 1.276547,4.921987 c 0.08158,-0.06696 0.173821,-0.12832 0.273369,-0.179321 0.499667,-0.256019 0.862776,0.636116 1.097534,0.515831 0.203853,-0.104449 0.908197,-1.126186 1.017232,-1.101083 0.518711,0.119429 0.545545,0.732216 0.559491,0.728924 0.228568,-0.05395 1.016125,-1.956903 1.271691,-0.874149 l 0.141165,0.598068 c 0.0045,0.01913 0.04949,-0.04047 0.11346,-0.127236 -0.06618,-0.57035 -0.325774,-2.651606 -0.772279,-5.399753 -0.116636,-0.05962 -0.162099,-0.154611 -0.302414,-0.186916 -0.146319,-0.03369 -0.694398,0.331202 -0.801024,0.375615 -0.428653,0.178554 -1.198747,0.132781 -1.586348,0.331384 -0.139321,0.07139 -0.386707,0.375938 -0.597138,0.32749 -0.120831,-0.02783 0.04704,-0.284804 -0.07379,-0.312625 -0.115591,-0.02661 -0.923507,0.404523 -1.16802,0.462236 -0.370052,0.08735 -0.085,-0.149355 -0.244835,-0.186156 z M 51.19369,33.72359 c -0.130372,0.05003 -0.473539,0.371438 -0.544287,0.429813 -0.0217,0.0179 -0.04454,0.01731 -0.06476,0.02963 0.386232,1.70225 0.702867,3.335969 0.899584,4.480023 0.134514,-0.09475 0.279876,-0.204623 0.369276,-0.259357 0.395466,-0.242124 0.252671,0.564261 0.906137,0.130517 0.161328,-0.107082 0.633192,-0.602745 0.837664,-0.585158 0.61392,0.0528 0.1398,0.677372 0.585918,0.780085 0.223205,0.05138 1.076345,-0.88447 1.235641,-0.966089 0.473921,-0.242823 0.280315,0.43432 0.404147,0.435549 0.09501,9.44e-4 0.209167,-0.08815 0.327739,-0.192155 l -1.218969,-4.92122 c -0.146486,-0.0025 -0.267346,-0.03218 -0.318282,-0.01098 -0.312193,0.130041 -0.70372,0.607699 -1.027958,0.630074 -0.376955,0.026 -0.08751,-0.296797 -0.372064,-0.299622 -0.394933,-0.004 -0.846403,0.529822 -1.217493,0.617412 -0.75445,0.178074 -0.450252,-0.107108 -0.75831,-0.294554 -0.0086,-0.0052 -0.02535,-0.01112 -0.04399,-0.004 z" fill="#000000" stroke="none"></path><path style="" d="m 52.920792,24.261274 c -0.310174,0.0732 -0.871166,0.523442 -1.123106,0.652531 -0.280131,0.143526 -0.582715,0.03538 -0.671686,0.07245 -0.312194,0.130041 -0.706927,0.594106 -1.031166,0.616482 -0.376956,0.026 -0.07073,-0.286409 -0.355264,-0.289238 -0.394932,-0.004 -0.859996,0.533029 -1.231085,0.620618 -0.75445,0.178076 -0.439866,-0.123914 -0.747926,-0.311353 -0.02108,-0.01284 -0.08412,0.03087 -0.153484,0.07928 0.372443,0.929926 0.776153,1.869158 1.20384,2.729292 0.251329,0.505452 0.485545,1.127939 0.714589,1.811593 0.20863,-0.18181 0.453565,-0.397482 0.597898,-0.385068 0.61392,0.0528 0.1398,0.677374 0.585918,0.780086 0.223205,0.05138 1.073136,-0.898063 1.232433,-0.979681 0.47392,-0.242824 0.266722,0.437528 0.390554,0.438754 0.280149,0.0028 0.708502,-0.690771 1.031167,-0.61648 0.212472,0.04891 -0.02324,1.062007 0.558392,0.298692 0.08699,-0.114175 0.06807,-0.277766 0.208443,-0.393593 0.154583,-0.127553 -0.121784,0.473783 0.08662,0.366995 0.172423,-0.08836 1.036972,-1.006619 1.140494,-0.94363 0.182262,0.110906 0.112799,0.477914 0.150788,0.638846 0.03319,0.140586 0.258421,-0.495987 0.483501,-0.444164 0.554641,0.127699 -0.467938,1.190893 0.675996,0.371381 0.219065,-0.156945 1.102503,-1.089079 1.321923,-1.086902 0.22882,0.0022 0.213437,0.810604 0.274046,0.796298 0.41801,-0.09867 0.366004,-1.04068 0.745383,-1.036917 0.199954,0.002 -0.05815,1.130019 0.485703,0.416298 0.570985,-0.74934 -0.751728,0.688842 0.289998,-0.412843 0.128347,-0.151699 0.19747,-0.329162 0.375519,-0.476076 0.167992,-0.138609 0.685324,0.529977 0.730537,0.602453 0.440029,0.705371 0.261869,-0.63409 0.873714,-0.49322 0.193417,0.04453 0.332459,0.53541 0.40018,0.479533 0.371201,-0.306287 0.611618,-0.821251 1.122005,-1.082762 0.499668,-0.256021 0.862779,0.636114 1.097532,0.51583 0.203858,-0.104448 0.904989,-1.139777 1.014025,-1.114675 0.518712,0.119428 0.548782,0.745802 0.5627,0.742516 0.22857,-0.05395 1.002533,-1.953696 1.258099,-0.870941 l 0.137956,0.584475 c 0.01481,0.06276 0.352337,-0.552461 1.017232,-1.101084 0.187479,-0.154697 0.798949,0.466729 0.825683,0.579996 0.02277,0.09651 0.189068,-0.108418 0.37721,-0.347327 -0.411489,-2.01381 -0.886245,-3.871118 -1.414162,-5.018653 -0.274042,0.05149 -0.793884,0.473005 -1.309601,0.409561 -0.247796,-0.03049 -0.256908,-0.196521 -0.443994,-0.239595 -0.146319,-0.03369 -0.691195,0.344795 -0.797817,0.389206 -0.428658,0.178556 -1.19875,0.132783 -1.586348,0.331383 -0.139327,0.07139 -0.400305,0.379149 -0.610731,0.330699 -0.120844,-0.02782 0.04384,-0.298397 -0.077,-0.326218 -0.115591,-0.02661 -0.906704,0.414906 -1.151221,0.47262 -0.370053,0.08735 -0.08498,-0.149354 -0.244835,-0.186155 -0.09667,-0.02226 -0.658035,0.473702 -0.752141,0.521922 -0.384482,0.197008 -0.372982,-0.171463 -0.54311,-0.173151 -0.346442,-0.0034 -0.843948,0.49392 -1.119137,0.608546 -0.289839,0.120725 -0.388052,-0.08125 -0.494226,-0.02685 -0.408861,0.209494 -0.767008,0.611276 -1.345482,0.561524 -0.165856,-0.01426 -0.04933,-0.26314 -0.316765,-0.126124 -0.179626,0.09204 -0.633956,0.726591 -1.13273,0.611754 -0.120513,-0.02775 -0.461854,-0.421925 -0.485701,-0.416297 -0.0647,0.01527 -0.608425,0.553764 -0.964892,0.471692 -0.152368,-0.03508 -0.141639,-0.252373 -0.267293,-0.281303 -0.123689,-0.02849 -0.637622,0.420263 -0.68342,0.448303 -0.240967,0.147525 -0.725247,0.118079 -0.861223,0.05977 -0.100743,-0.04319 0.100095,-0.267569 -0.05453,-0.231071 z" fill="#000000" stroke="none"></path><path style="" d="m 48.336609,16.876964 c -0.299498,0.163036 -0.661541,0.433972 -0.850496,0.530789 -0.280129,0.143533 -0.582716,0.03539 -0.671688,0.07244 -0.312194,0.130041 -0.703718,0.607699 -1.027956,0.630075 -0.376955,0.02602 -0.07391,-0.300009 -0.358473,-0.302831 -0.394933,-0.004 -0.859996,0.53303 -1.231086,0.62062 -0.75445,0.178074 -0.45025,-0.107108 -0.75831,-0.294554 -0.06863,-0.04175 -0.507418,0.359131 -0.588271,0.425845 -0.356993,0.294564 -0.510319,-0.216852 -0.539143,-0.217138 -0.173852,-0.0017 -1.013076,0.706873 -1.227118,0.576635 -0.01649,-0.01006 -0.02985,-0.10167 -0.04491,-0.190295 l -0.07911,0.09042 0.46199,1.957314 4.304423,-0.427647 c 0,0 0.338695,1.142842 0.87914,2.691135 0.340776,-0.224994 0.888696,-0.806469 1.014194,-0.870772 0.473922,-0.242824 0.280316,0.43432 0.404148,0.435548 0.280148,0.0028 0.705294,-0.704363 1.027958,-0.630074 0.212472,0.04891 -0.02324,1.062008 0.558391,0.298692 0.08699,-0.114174 0.05448,-0.274559 0.19485,-0.390384 0.154584,-0.127553 -0.121797,0.473784 0.08662,0.366996 0.172426,-0.08834 1.050565,-1.009827 1.154087,-0.946838 0.182261,0.110906 0.112798,0.477912 0.150789,0.638845 0.03317,0.140586 0.258421,-0.495988 0.483499,-0.444166 0.554642,0.127699 -0.467936,1.190895 0.675998,0.371383 0.219065,-0.156945 1.08891,-1.08587 1.30833,-1.083694 0.228819,0.0022 0.230247,0.820986 0.290855,0.806681 0.418009,-0.09866 0.349201,-1.051065 0.728583,-1.047302 0.199951,0.002 -0.04455,1.12681 0.499293,0.413089 0.570986,-0.749339 -0.751727,0.688843 0.289998,-0.412841 0.128347,-0.1517 0.200678,-0.315572 0.378728,-0.462485 0.167991,-0.138607 0.682115,0.516386 0.727329,0.58886 0.440029,0.705371 0.248275,-0.630881 0.860122,-0.49001 0.193416,0.04453 0.349259,0.545794 0.416981,0.489916 0.371201,-0.306289 0.594816,-0.831635 1.105203,-1.093147 0.499668,-0.25602 0.862779,0.636114 1.097533,0.515831 0.203857,-0.104448 0.908195,-1.126185 1.017232,-1.101084 0.518714,0.119429 0.545573,0.732211 0.559492,0.728925 0.228571,-0.05395 1.016126,-1.956905 1.271691,-0.87415 l 0.141165,0.598068 c 0.01481,0.06276 0.349129,-0.566052 1.014024,-1.114675 0.187479,-0.154697 0.785356,0.469935 0.812091,0.583203 0.02415,0.102305 0.223769,-0.12795 0.425163,-0.387345 -1.533261,-0.546757 -3.175174,-0.420197 -4.308141,-0.317659 -2.478513,0.228467 -10.992155,2.795405 -10.992155,2.795405 l -1.63586,-4.134042 c -0.0094,0.005 -0.01759,0.0012 -0.02719,0.0065 z" fill="#000000" stroke="none"></path><path style="" d="m 43.098889,9.21642 1.894626,4.8048 c 0.342382,-0.235727 0.874693,-0.818287 0.997393,-0.881155 0.118489,-0.06071 0.187718,-0.0569 0.23749,-0.02735 L 43.098889,9.216423 z m 3.189534,3.968219 c 0.06055,0.142181 0.01757,0.393433 0.09304,0.39418 0.05301,5.27e-4 0.108617,-0.02877 0.170285,-0.06889 l -0.263325,-0.325288 z" fill="#000000" stroke="none"></path><path style="text-indent:0;text-transform:none;direction:ltr;block-progression:tb;baseline-shift:baseline;color:#000000;enable-background:accumulate;" d="m 57.15625,7.6875 -0.3125,0.53125 -7.5,12.28125 0.6875,0.40625 7.15625,-11.75 6.5,9.375 0.65625,-0.4375 -6.8125,-9.90625 -0.375,-0.5 z" fill="#000000" fill-opacity="1" stroke="none" marker="none" visibility="visible" display="inline" overflow="visible"></path><path style="text-indent:0;text-transform:none;direction:ltr;block-progression:tb;baseline-shift:baseline;color:#000000;enable-background:accumulate;" d="M 70.71875 0.3125 C 70.793911 4.9935927 70.875 10.133478 70.875 10.5 L 71.875 10.5 C 71.875 10.028738 71.773002 4.9632291 71.6875 0.3125 L 70.71875 0.3125 z " transform="scale(0.8,0.8)" fill="#000000" fill-opacity="1" stroke="none" marker="none" visibility="visible" display="inline" overflow="visible"></path><path d="m 15.626999,53.945937 c -0.553533,0 -1.012668,0.444019 -1.012668,0.997555 l 0,8.615243 0,0.01512 c 0.0082,1.481088 1.19195,2.675259 2.660145,2.675259 1.4682,0 2.667032,-1.194171 2.675259,-2.675259 3e-5,-0.0051 0,-0.01001 0,-0.01512 l 0,-8.615243 c 0,-0.553536 -0.444014,-0.997555 -0.997553,-0.997555 l -3.325183,0 z" style="" fill="#000000" fill-opacity="1" stroke="none"></path><path d="m 17.274476,61.367137 c -1.473297,0 -2.660145,1.202179 -2.660145,2.690375 l 0,12.862404 c 0,0.553541 0.459135,0.997555 1.012668,0.997555 l 3.325183,0 c 0.553539,0 0.997553,-0.444014 0.997553,-0.997555 l 0,-12.862404 c 0,-1.488196 -1.201957,-2.690375 -2.675259,-2.690375 z" style="" fill="#000000" fill-opacity="1" stroke="none"></path><path d="m 8.6883977,31.7413 10.6577253,0 c 0.738052,0 1.332213,0.59417 1.332213,1.332218 l 0,20.649365 c 0,0.738047 -0.594161,1.332217 -1.332213,1.332217 l -10.6577253,0 c -0.738045,0 -1.332212,-0.59417 -1.332212,-1.332217 l 0,-20.649365 c 0,-0.738048 0.594167,-1.332218 1.332212,-1.332218 z" style="" fill="#000000" fill-opacity="1" stroke="none"></path><path style="" d="m 14.025,21.075 c -2.422658,0 -4.4434008,1.736601 -4.9,4.025 0.39712,-0.03792 1.608934,-0.161378 3.35,-0.425 1.97261,-0.298682 4.251146,-0.750493 5.725,-1.325 -0.890887,-1.369926 -2.419083,-2.275 -4.175,-2.275 z" fill="#000000" fill-opacity="1" stroke="none"></path><path style="" d="m 9.05,26.475 c 0.199304,2.576508 2.347364,4.6 4.975,4.6 2.193694,0 4.053379,-1.408776 4.725,-3.375 l -9.7,-1.225 z" fill="#000000" fill-opacity="1" stroke="none"></path><path style="" d="m 9.0276027,54.060709 c -0.553535,0 -1.01267,0.444019 -1.01267,0.997555 l 0,8.615243 0,0.0151 c 0.0082,1.481089 1.191944,2.67526 2.6601453,2.67526 1.468202,0 2.667032,-1.194171 2.675261,-2.67526 3e-5,-0.0051 0,-0.01001 0,-0.0151 l 0,-8.615243 c 0,-0.553536 -0.444022,-0.997555 -0.997555,-0.997555 l -3.3251813,0 z" fill="#000000" fill-opacity="1" stroke="none"></path><path style="" d="m 10.675078,61.481909 c -1.4732973,0 -2.6601453,1.202181 -2.6601453,2.690376 l 0,12.862405 c 0,0.553535 0.459135,0.997555 1.01267,0.997555 l 3.3251813,0 c 0.553533,0 0.997555,-0.44402 0.997555,-0.997555 l 0,-12.862405 c 0,-1.488195 -1.201963,-2.690376 -2.675261,-2.690376 z" fill="#000000" fill-opacity="1" stroke="none"></path><path style="" d="m 19.637665,34.947691 c -0.07063,-0.54901 -0.567668,-0.932749 -1.116681,-0.862123 l -8.7397125,1.124288 -0.04497,0.0058 c -0.887337,0.137923 -1.5071599,0.959363 -1.3918986,1.855348 0.1152599,0.895983 0.9228076,1.533831 1.8161601,1.442658 0.01471,-0.0015 0.03024,-0.0039 0.04497,-0.0058 l 8.739712,-1.124289 c 0.549013,-0.07062 0.93275,-0.56767 0.862124,-1.116681 l -0.169703,-1.319201 z" fill="#000000" fill-opacity="1" stroke="none"></path><path style="" d="m 18.275381,38.41892 c 0.249168,0.862246 1.137076,1.368179 2.000719,1.152458 0.01987,-0.0051 0.03822,-0.011 0.0581,-0.01677 l 8.247552,-2.383345 c 0.531777,-0.153674 0.835075,-0.703506 0.681405,-1.235282 L 28.893902,34.65819 c -0.153673,-0.531775 -0.703504,-0.835077 -1.235281,-0.681406 l -8.247553,2.383345 c -0.01987,0.0058 -0.03854,0.01049 -0.0581,0.01677 -0.845587,0.278209 -1.326763,1.179771 -1.077594,2.042017 z" fill="#000000" fill-opacity="1" stroke="none"></path><path d="m 19.981819,37.257118 c 0.397318,0.385417 1.025181,0.375868 1.410595,-0.02145 l 6.135389,-6.324838 0.03157,-0.03254 c 0.608117,-0.660746 0.581096,-1.689449 -0.06732,-2.318441 -0.64841,-0.628988 -1.677473,-0.624735 -2.319415,0.0032 -0.01058,0.01035 -0.02123,0.02189 -0.03157,0.03254 l -6.135389,6.324839 c -0.385414,0.397315 -0.375867,1.025181 0.02145,1.410593 l 0.954692,0.926096 z" style="" fill="#000000" fill-opacity="1" stroke="none"></path><path d="m 25.692683,30.891798 c 0.773733,0.454897 1.766377,0.211992 2.245316,-0.538387 0.01105,-0.0173 0.02017,-0.03425 0.03065,-0.05212 l 4.351515,-7.400687 c 0.280599,-0.477159 0.122869,-1.085 -0.354307,-1.365575 l -1.146585,-0.674182 c -0.477155,-0.280596 -1.084995,-0.122867 -1.365571,0.354307 l -4.351516,7.400688 c -0.0105,0.01784 -0.02085,0.03406 -0.03065,0.05212 -0.422887,0.783336 -0.152554,1.768908 0.621151,2.223837 z" style="" fill="#000000" fill-opacity="1" stroke="none"></path><path style="text-indent:0;text-transform:none;direction:ltr;block-progression:tb;baseline-shift:baseline;color:#000000;enable-background:accumulate;" d="M 33.925,2.925 A 0.80008,0.80008 0 0 0 33.25,3.6 L 27.2,36.425 a 0.80008,0.80008 0 1 0 1.575,0.275 l 6.05,-32.825 a 0.80008,0.80008 0 0 0 -0.9,-0.95 z" fill="#000000" fill-opacity="1" stroke="none" marker="none" visibility="visible" display="inline" overflow="visible"></path><path style="text-indent:0;text-transform:none;direction:ltr;block-progression:tb;baseline-shift:baseline;color:#000000;enable-background:accumulate;" d="m 7.6586727,22.8 -0.2,0.25 -1.525,1.8 -0.175,0.2 0.25,0.1 1.6,0.7 c -0.1264596,0.521462 -0.4086427,0.744251 -0.825,0.925 -0.4560787,0.197992 -1.0508604,0.314174 -1.575,0.65 l -0.325,0.225 0.35,0.125 2.125,0.875 0.175,0.1 0.075,-0.2 0.85,-2.125 10.3500003,1.325 0.2,0.025 0.025,-0.2 c 0,0 0.13229,-0.834523 0.125,-1.775 -0.0036,-0.470238 -0.04171,-0.954911 -0.15,-1.4 -0.108286,-0.445089 -0.300913,-0.85343 -0.625,-1.1 l -0.075,-0.075 -0.125,0.05 c -1.459012,0.614242 -3.884638,1.087274 -5.95,1.4 -1.98288,0.300237 -3.4972867,0.438069 -3.6250003,0.45 l -0.825,-2.025 -0.125,-0.3 z m -0.1,0.75 0.75,1.875 0.05,0.15 0.15,-0.025 c 0,0 1.6970773,-0.160373 3.7750003,-0.475 2.022263,-0.3062 4.357677,-0.754665 5.9,-1.375 0.184575,0.168156 0.335892,0.433737 0.425,0.8 0.09679,0.397856 0.146503,0.873915 0.15,1.325 0.0062,0.795632 -0.07739,1.340619 -0.1,1.5 L 8.3336727,26 l -0.15,-0.025 -0.05,0.15 -0.8,2.1 -1.5,-0.625 c 0.3566947,-0.15043 0.7287714,-0.288842 1.1,-0.45 0.5147923,-0.223481 0.9778936,-0.610094 1.1,-1.375 l 0.025,-0.15 -0.125,-0.05 -1.525,-0.675 1.15,-1.35 z" fill="#000000" fill-opacity="1" fill-rule="nonzero" stroke="none" marker="none" visibility="visible" display="inline" overflow="visible"></path></svg>