<svg xmlns:dc="http://purl.org/dc/elements/1.1/" xmlns:cc="http://creativecommons.org/ns#" xmlns:rdf="http://www.w3.org/1999/02/22-rdf-syntax-ns#" xmlns:svg="http://www.w3.org/2000/svg" xmlns="http://www.w3.org/2000/svg" xmlns:sodipodi="http://sodipodi.sourceforge.net/DTD/sodipodi-0.dtd" xmlns:inkscape="http://www.inkscape.org/namespaces/inkscape" viewBox="0 0 80 80" version="1.1" x="0px" y="0px"><path style="" d="m 40,28 6.091904,-4.873523 0,48.73523 -6.091904,0 z" fill="#000000" fill-opacity="1" stroke="none"></path><rect style="" width="18.275711" height="2.4367614" x="33.908096" y="71.86171" fill="#000000" fill-opacity="1" stroke="none"></rect><path style="" d="m 31.561288,32.508045 0.78227,0.934079 1.564538,1.86816 23.351999,-19.55675 -1.56454,-1.86816 -21.483838,17.992209 -0.782269,-0.934079 -1.86816,1.564541 z" fill="#000000" fill-opacity="1" stroke="none"></path><path style="text-indent:0;text-transform:none;direction:ltr;block-progression:tb;baseline-shift:baseline;color:#000000;enable-background:accumulate;" d="m 32.72779,3.1374177 c -0.894796,-0.00158 -1.70675,0.6298309 -1.90372,1.5610503 -0.225109,1.0642507 0.449127,2.1415259 1.484902,2.3606127 1.035776,0.2190843 2.059355,-0.4967996 2.284464,-1.5610503 0.225109,-1.0642507 -0.411053,-2.103454 -1.446828,-2.3225383 -0.129471,-0.027389 -0.29099,-0.037855 -0.418818,-0.038074 z m 2.017943,1.1803063 c 0.169707,0.3734118 0.244608,0.8200117 0.152298,1.2564552 -0.09233,0.4364434 -0.340892,0.7933705 -0.647265,1.0660831 1.726779,0.2106459 3.839778,0.4722541 5.406564,0.4949672 2.956573,0.3748251 5.797383,0.7326976 8.376368,1.4849015 3.571553,1.0417022 6.815889,2.795347 9.78512,6.358425 l 0.913786,-0.761488 C 55.609932,10.469861 52.115099,8.5683632 48.376368,7.4778991 45.641839,6.6803275 42.729789,6.2983822 39.733479,5.9168487 z" fill="#000000" fill-opacity="1" stroke="none" marker="none" visibility="visible" display="inline" overflow="visible"></path></svg>