<svg xmlns:dc="http://purl.org/dc/elements/1.1/" xmlns:cc="http://creativecommons.org/ns#" xmlns:rdf="http://www.w3.org/1999/02/22-rdf-syntax-ns#" xmlns:svg="http://www.w3.org/2000/svg" xmlns="http://www.w3.org/2000/svg" xmlns:sodipodi="http://sodipodi.sourceforge.net/DTD/sodipodi-0.dtd" xmlns:inkscape="http://www.inkscape.org/namespaces/inkscape" viewBox="0 0 80 80" version="1.1" x="0px" y="0px"><g transform="matrix(-0.39962881,0.91667705,-0.91667705,-0.39962881,106.12774,22.121293)" style="" stroke="none" fill="#000000"><path style="text-indent:0;text-transform:none;direction:ltr;block-progression:tb;baseline-shift:baseline;color:#000000;enable-background:accumulate;" d="M 12,23.84375 12,23.9375 12,56 l 0,0.125 0.125,0 19.875,0 0.125,0 0,-0.125 0,-32.0625 0,-0.09375 -0.125,0 -19.875,0 -0.125,0 z m 0.21875,0.21875 19.65625,0 0,31.8125 -19.65625,0 0,-31.8125 z" fill="#000000" fill-opacity="1" stroke="none" marker="none" visibility="visible" display="inline" overflow="visible"></path><path transform="scale(0.8,0.8)" style="" d="m 15,30 5,0 0,5 -5,0 z" fill="#000000" stroke="none"></path><path style="" d="m 12,32 4,0 0,4 -4,0 z" fill="#000000" stroke="none"></path><path style="" d="m 12,39.999992 4,0 0,4 -4,0 z" fill="#000000" stroke="none"></path><path style="" d="m 12,47.999985 4,0 0,4 -4,0 z" fill="#000000" stroke="none"></path><path style="" d="m 16,44 4,0 0,4 -4,0 z" fill="#000000" stroke="none"></path><path style="" d="m 16,36.000008 4,0 0,4 -4,0 z" fill="#000000" stroke="none"></path><path style="" d="m 16,28.00001 4,0 0,4 -4,0 z" fill="#000000" stroke="none"></path><path style="" d="m 16,51.999992 4,0 0,4 -4,0 z" fill="#000000" stroke="none"></path><path style="" d="m 20.000002,24 4,0 0,4 -4,0 z" fill="#000000" stroke="none"></path><path style="" d="m 20.000002,32 4,0 0,4 -4,0 z" fill="#000000" stroke="none"></path><path style="" d="m 20.000002,39.999992 4,0 0,4 -4,0 z" fill="#000000" stroke="none"></path><path style="" d="m 20.000002,47.999985 4,0 0,4 -4,0 z" fill="#000000" stroke="none"></path><path style="" d="m 24.000002,44 4,0 0,4 -4,0 z" fill="#000000" stroke="none"></path><path style="" d="m 24.000002,36.000008 4,0 0,4 -4,0 z" fill="#000000" stroke="none"></path><path style="" d="m 24.000002,28.00001 4,0 0,4 -4,0 z" fill="#000000" stroke="none"></path><path style="" d="m 24.000002,51.999992 4,0 0,4 -4,0 z" fill="#000000" stroke="none"></path><path style="" d="m 28.000004,24 4,0 0,4 -4,0 z" fill="#000000" stroke="none"></path><path style="" d="m 28.000004,32 4,0 0,4 -4,0 z" fill="#000000" stroke="none"></path><path style="" d="m 28.000004,39.999992 4,0 0,4 -4,0 z" fill="#000000" stroke="none"></path><path style="" d="m 28.000004,47.999985 4,0 0,4 -4,0 z" fill="#000000" stroke="none"></path></g><g transform="matrix(0.39962881,0.91667705,0.91667705,-0.39962881,-25.660474,22.121293)" style="" stroke="none" fill="#000000"><path style="text-indent:0;text-transform:none;direction:ltr;block-progression:tb;baseline-shift:baseline;color:#000000;enable-background:accumulate;" d="M 12,23.84375 12,23.9375 12,56 l 0,0.125 0.125,0 19.875,0 0.125,0 0,-0.125 0,-32.0625 0,-0.09375 -0.125,0 -19.875,0 -0.125,0 z m 0.21875,0.21875 19.65625,0 0,31.8125 -19.65625,0 0,-31.8125 z" fill="#000000" fill-opacity="1" stroke="none" marker="none" visibility="visible" display="inline" overflow="visible"></path><path transform="scale(0.8,0.8)" style="" d="m 15,30 5,0 0,5 -5,0 z" fill="#000000" stroke="none"></path><path style="" d="m 12,32 4,0 0,4 -4,0 z" fill="#000000" stroke="none"></path><path style="" d="m 12,39.999992 4,0 0,4 -4,0 z" fill="#000000" stroke="none"></path><path style="" d="m 12,47.999985 4,0 0,4 -4,0 z" fill="#000000" stroke="none"></path><path style="" d="m 16,44 4,0 0,4 -4,0 z" fill="#000000" stroke="none"></path><path style="" d="m 16,36.000008 4,0 0,4 -4,0 z" fill="#000000" stroke="none"></path><path style="" d="m 16,28.00001 4,0 0,4 -4,0 z" fill="#000000" stroke="none"></path><path style="" d="m 16,51.999992 4,0 0,4 -4,0 z" fill="#000000" stroke="none"></path><path style="" d="m 20.000002,24 4,0 0,4 -4,0 z" fill="#000000" stroke="none"></path><path style="" d="m 20.000002,32 4,0 0,4 -4,0 z" fill="#000000" stroke="none"></path><path style="" d="m 20.000002,39.999992 4,0 0,4 -4,0 z" fill="#000000" stroke="none"></path><path style="" d="m 20.000002,47.999985 4,0 0,4 -4,0 z" fill="#000000" stroke="none"></path><path style="" d="m 24.000002,44 4,0 0,4 -4,0 z" fill="#000000" stroke="none"></path><path style="" d="m 24.000002,36.000008 4,0 0,4 -4,0 z" fill="#000000" stroke="none"></path><path style="" d="m 24.000002,28.00001 4,0 0,4 -4,0 z" fill="#000000" stroke="none"></path><path style="" d="m 24.000002,51.999992 4,0 0,4 -4,0 z" fill="#000000" stroke="none"></path><path style="" d="m 28.000004,24 4,0 0,4 -4,0 z" fill="#000000" stroke="none"></path><path style="" d="m 28.000004,32 4,0 0,4 -4,0 z" fill="#000000" stroke="none"></path><path style="" d="m 28.000004,39.999992 4,0 0,4 -4,0 z" fill="#000000" stroke="none"></path><path style="" d="m 28.000004,47.999985 4,0 0,4 -4,0 z" fill="#000000" stroke="none"></path></g><path transform="matrix(0.91712892,-0.39859069,0.39859069,0.91712892,0,0)" style="" d="m 23.55007,21.256069 2.406189,0 0,52 -2.406189,0 z" fill="#000000" fill-opacity="1" stroke="none"></path><path transform="matrix(0.9159952,0.40118923,-0.40118923,0.9159952,0,0)" style="" d="m 47.877575,-10.953096 2.406189,0 0,52 -2.406189,0 z" fill="#000000" fill-opacity="1" stroke="none"></path></svg>