<svg xmlns="http://www.w3.org/2000/svg" xmlns:xlink="http://www.w3.org/1999/xlink" version="1.1" x="0px" y="0px" viewBox="0 0 97.6 50.5" enable-background="new 0 0 97.6 50.5" xml:space="preserve"><g><path d="M45.9,9.4L48,4.5L33.7,7V1.4l-12.1,8l0,0l-2-4.7l-7.9,11.4l-3.5-3.5L4.7,26.5L0,24.8l1.7,8.9h23c0.5-0.9,1.1-1.8,1.9-2.7   c2-1.9,4.4-2.9,7.1-2.9c2.8,0,5.1,1,7,2.9c0.8,0.8,1.5,1.7,2,2.6c0,0.101,0,0.101,0,0.101h11.2V33.6h-0.2V24.9h11.2l2.6-1.101   l-11.7-7.7l3.8-3.7L45.9,9.4z"></path><path d="M87.8,16.5L82.2,13l-8.5,8.1L87.8,16.5z"></path><path d="M74.5,0L71,19.1l9.6-18.4L74.5,0z"></path><path d="M55.2,26.4v2.5C60.6,28.6,65,27.7,68.7,26.4H55.2z"></path><path d="M93.4,26.9c-1.7,2.699-3.801,5-6.101,6.8h10.3v-7.3H93.7C93.6,26.5,93.5,26.7,93.4,26.9z"></path><path d="M83.8,26.4C83.6,26.6,83.4,26.8,83.2,27c0,0,0,0,0,0.1c-2.9,2.801-6.7,5-11.2,6.601h11.8c2.9-1.7,5.4-4.2,7.5-7.3H83.8z"></path><path d="M73.3,26.4c-0.5,0.3-1,0.6-1.6,0.8c-4.101,2.1-9.601,3.3-16.5,3.7v0.5V32.6V33.7l0,0h8.5C71,32.5,76.8,30,81,26.4H73.3z"></path><path d="M97.6,37.9v-3H0v3H97.6z"></path><path d="M97.6,50.5V39.3H0v11.2H97.6z"></path></g></svg>