<svg xmlns:dc="http://purl.org/dc/elements/1.1/" xmlns:cc="http://creativecommons.org/ns#" xmlns:rdf="http://www.w3.org/1999/02/22-rdf-syntax-ns#" xmlns:svg="http://www.w3.org/2000/svg" xmlns="http://www.w3.org/2000/svg" xmlns:sodipodi="http://sodipodi.sourceforge.net/DTD/sodipodi-0.dtd" xmlns:inkscape="http://www.inkscape.org/namespaces/inkscape" viewBox="0 0 80 80" version="1.1" x="0px" y="0px"><path style="text-indent:0;text-transform:none;direction:ltr;block-progression:tb;baseline-shift:baseline;color:#000000;enable-background:accumulate;" d="m 38.626714,4.7984428 c -5.331483,0.099355 -10.233289,2.9917862 -14.052382,7.8056592 0.293545,0.21857 0.541702,0.394176 0.856319,0.625771 3.935668,-4.9532027 8.947731,-7.6803244 14.337819,-7.3555447 5.117342,0.3083442 9.784504,3.3215392 13.404657,8.2667527 l 0.911206,-0.526963 C 50.311725,8.4203968 45.360276,5.1533635 39.834338,4.8203989 l -0.03291,0 C 39.407523,4.7975183 39.016356,4.791178 38.626736,4.7984393 z M 58.798568,51.098965 c -1.945249,5.819469 -5.279159,11.767612 -8.359068,15.431162 -2.331064,2.772793 -4.227996,5.097381 -6.224766,6.663903 -1.994027,1.564371 -4.053045,2.393922 -6.894451,2.250577 -0.0043,-3.15e-4 -0.0066,3.19e-4 -0.01097,0 -2.983297,-0.240882 -4.856812,-0.96549 -6.477266,-2.404275 -1.622604,-1.440687 -3.005421,-3.6539 -4.7866,-6.883473 -0.854464,-1.549291 -1.794825,-3.330416 -2.733628,-5.258665 l -1.097838,0.175654 c 0.999767,2.063577 2.005358,3.949048 2.90928,5.588019 1.792598,3.25028 3.206533,5.571043 5.006162,7.168912 1.799629,1.597868 3.974596,2.41674 7.103044,2.667757 l 0.01097,0 0.01097,0 c 3.084845,0.158412 5.469689,-0.792544 7.608043,-2.470145 2.138354,-1.677602 4.054065,-4.052735 6.37846,-6.817602 3.194723,-3.800117 6.424107,-9.212201 8.409478,-15.227076 z" fill="#000000" fill-opacity="1" stroke="none" marker="none" visibility="visible" display="inline" overflow="visible"></path><path style="" d="m 33.508737,47.836049 c 0.122959,-3.133694 2.890019,-5.579121 6.180397,-5.462013 3.290378,0.117108 5.858082,2.752405 5.735111,5.886099 -0.12296,3.133694 -2.890019,5.57912 -6.180398,5.462011 -3.203802,-0.114026 -5.739279,-2.620684 -5.739267,-5.674054" fill="#000000" stroke="none"></path><path style="" d="m 26.319897,51.390878 c -0.780821,-0.0021 -1.481448,0.169682 -1.87731,0.757511 -0.95938,1.42465 0.232494,3.667731 1.361329,4.962248 3.108451,3.564698 8.320803,5.875388 13.04237,5.598996 5.721236,-0.334908 15.504259,-2.874146 14.908699,-8.574149 -0.167361,-1.601715 -2.99012,-1.449171 -4.599957,-1.493066 -3.553737,-0.09689 -6.757429,2.896439 -10.308742,2.733629 -3.611268,-0.165559 -6.597561,-3.300374 -10.187977,-3.721686 -0.703864,-0.0826 -1.557581,-0.261381 -2.338412,-0.263483 z m 2.689718,4.083974 c 0,0 4.933834,3.384163 10.209937,3.326462 5.360737,-0.05863 10.220915,-2.71167 10.220915,-2.71167 l 0.175654,0.307396 c 0,0 -4.922591,2.695721 -10.396569,2.755585 -5.427767,0.05936 -10.407549,-3.381356 -10.407549,-3.381356 l 0.197612,-0.296417 z" fill="#000000" stroke="none"></path><path style="text-indent:0;text-transform:none;direction:ltr;block-progression:tb;baseline-shift:baseline;color:#000000;enable-background:accumulate;" d="m 29.393861,26.206371 -0.559898,0.07685 -0.867298,0.131741 -0.494032,0.06586 0.04388,0.49403 0.461093,5.489213 c -0.400513,0.201718 -1.372934,0.709591 -2.020034,1.273497 -1.020312,0.88914 -2.327423,2.832433 -2.327423,2.832433 l -0.219572,0.318374 0.230552,0.296418 c 0,0 0.296781,0.388438 0.680653,0.83436 0.383884,0.445922 0.840041,0.952369 1.306443,1.273497 0.497738,0.342707 1.190951,0.607655 1.789482,0.823382 0.364864,0.13151 0.470415,0.157711 0.669684,0.219569 l -0.186633,1.602849 -0.735563,2.612866 -0.450112,1.569915 1.273502,-1.010015 2.360362,-1.866333 0.230541,-0.175655 -0.03291,-0.285439 -0.197612,-2.250577 5.983234,-1.163713 0.592838,-0.109784 -0.186633,-0.570879 c 0,0 -0.258851,-0.774412 -0.658705,-1.690677 -0.399855,-0.916264 -0.913378,-1.973674 -1.591871,-2.623843 -0.761932,-0.730117 -1.994038,-1.266515 -3.062985,-1.679699 -0.877674,-0.33925 -1.367175,-0.476178 -1.613829,-0.548921 l -0.373269,-5.368445 z m 1.657737,7.476308 c 1.019127,0.393924 2.197059,0.967004 2.711668,1.46013 0.431181,0.413177 0.971863,1.405225 1.350349,2.272534 0.246205,0.564165 0.304043,0.755821 0.406205,1.042951 l -5.840519,1.119799 c -0.322273,0.140841 -0.531084,0.02742 -0.867298,-0.109785 0,0 -0.466873,-0.136651 -1.031971,-0.340331 -0.565109,-0.203679 -1.235134,-0.487229 -1.547962,-0.702619 -0.28148,-0.193811 -0.759102,-0.678847 -1.119798,-1.097842 -0.219638,-0.255138 -0.272442,-0.329828 -0.384246,-0.472072 0.308803,-0.430609 1.276289,-1.754429 1.921229,-2.316448 0.52538,-0.457842 2.118829,-1.295454 2.118829,-1.295454 0.689319,-0.517122 1.697828,0.21444 2.283514,0.439137 z" fill="#000000" fill-opacity="1" stroke="none" marker="none" visibility="visible" display="inline" overflow="visible"></path><path style="text-indent:0;text-transform:none;direction:ltr;block-progression:tb;baseline-shift:baseline;color:#000000;enable-background:accumulate;" d="m 48.671977,26.656486 -0.04388,0.472072 -0.581857,6.521185 c -0.144788,0.05834 -0.229906,0.08409 -0.505001,0.208591 -0.438409,0.198414 -0.943783,0.4462 -1.31741,0.735554 -0.753706,0.583682 -1.592189,1.548332 -2.272535,2.393297 -0.680358,0.844964 -1.185676,1.558937 -1.185676,1.558937 l -0.307399,0.439136 0.428165,0.307397 c 1.519487,1.064226 3.033205,2.352613 5.511172,2.832432 l 0.230541,3.227658 0.03291,0.406201 0.395226,0.07685 1.372297,0.241525 0.669685,0.131741 -0.05484,-0.680662 -0.219572,-3.030046 c 2.194348,-1.228446 3.270886,-2.304868 4.083971,-3.304506 l 0.142721,-0.175653 -0.03294,-0.219569 c 0,0 -0.07227,-0.582716 -0.21957,-1.273497 -0.147294,-0.690782 -0.339148,-1.49171 -0.73555,-2.074923 -0.459699,-0.676334 -1.269378,-1.253528 -1.976127,-1.723613 -0.571251,-0.379969 -0.890397,-0.550756 -1.064898,-0.647727 l -0.592838,-5.950307 -0.05485,-0.472072 -0.472072,0 -0.746531,0 z m 2.832433,7.948381 c 0.663137,0.441078 1.419562,1.039304 1.690676,1.438174 0.207814,0.305748 0.445485,1.062093 0.581858,1.701654 0.108262,0.507771 0.132492,0.773303 0.153695,0.933167 -2.382091,2.226014 -3.361543,2.597296 -4.951275,2.514059 -2.247702,-0.319689 -3.557159,-1.374136 -5.03909,-2.448188 0.179624,-0.245467 0.357121,-0.494163 0.834359,-1.086865 0.660011,-0.819706 1.504888,-1.77017 2.096881,-2.228619 0.211927,-0.164123 0.699959,-0.418771 1.108818,-0.603813 0.40886,-0.185045 0.746532,-0.318376 0.746532,-0.318376 1.462746,-0.410979 0.697699,-0.543133 2.777546,0.09881 z" fill="#000000" fill-opacity="1" stroke="none" marker="none" visibility="visible" display="inline" overflow="visible"></path><path style="" d="m 22.01819,44.002471 c 0.698127,-1.677622 2.124786,-2.644358 3.186537,-2.159262 1.061763,0.485098 1.356537,2.238329 0.658398,3.915951 -0.698127,1.677624 -2.124786,2.644357 -3.186537,2.15926 -1.033814,-0.472331 -1.344942,-2.151917 -0.704269,-3.801899" fill="#000000" fill-opacity="1" stroke="none"></path><path style="" d="m 56.335414,45.832159 c 0.891885,1.584001 0.791148,3.331908 -0.225003,3.904061 -1.016153,0.572155 -2.562921,-0.24811 -3.454811,-1.83211 -0.891878,-1.584 -0.791141,-3.331907 0.225002,-3.904062 1.016154,-0.572153 2.562926,0.248112 3.454812,1.832111 z" fill="#000000" fill-opacity="1" stroke="none"></path><path style="text-indent:0;text-transform:none;direction:ltr;block-progression:tb;baseline-shift:baseline;color:#000000;enable-background:accumulate;" d="m 61.261722,10.253909 c -1.161802,0 -2.139318,0.632831 -2.810193,1.518151 -0.540356,-0.333086 -1.104787,-0.646022 -1.776559,-0.646022 -2.056085,0 -3.714623,1.791241 -3.714623,3.940731 0,1.276953 0.652013,2.345942 1.550451,3.068602 -0.04027,0.102309 -0.08968,0.21875 -0.129204,0.355312 -3.6e-5,1.24e-4 0.0023,0.01998 0,0.0323 -0.0054,0.02876 -0.03227,0.06429 -0.0323,0.0646 -0.0023,0.01199 -1.3e-5,0.03243 0,0.0323 4e-5,-4.44e-4 -5.17e-4,0.01613 0,0.0323 0.0011,0.03425 -1.15e-4,0.06367 0,0.0646 -0.01377,0.05727 -0.05324,0.101885 -0.0646,0.161505 1.67e-4,-8.83e-4 -5.18e-4,0.10638 0,0.129205 4.58e-4,0.0062 -4.1e-5,0.03184 0,0.0323 -0.03052,0.200281 -0.0646,0.399863 -0.0646,0.61372 0,0.184185 0.01872,0.360593 0.0323,0.484516 1.48e-4,0.0013 -0.01456,0.03096 0,0.129204 0.01299,0.08885 0.04203,0.187529 0.0646,0.29071 0.01261,0.05665 0.04081,0.140974 0.0646,0.226108 0.04105,0.149279 0.08115,0.265105 0.129204,0.387612 0.06361,0.162186 0.117768,0.312089 0.193806,0.452215 0.08308,0.153105 0.198342,0.29139 0.29071,0.419914 0.08858,0.123255 0.17333,0.261028 0.29071,0.387613 0.118661,0.127964 0.237676,0.225292 0.355311,0.323011 0.0375,0.03114 0.08885,0.06518 0.129205,0.0969 -0.02495,0.178661 -0.0646,0.359568 -0.0646,0.549118 0,1.170879 0.519092,2.180095 1.292042,2.907097 -0.142388,0.417514 -0.290709,0.8215 -0.290709,1.292042 0,1.642997 0.95489,3.031563 2.325677,3.61772 -0.771685,0.726133 -1.324344,1.704999 -1.324344,2.874796 0,1.10639 0.465009,2.058404 1.162838,2.777892 -0.419421,0.640738 -0.807526,1.329408 -0.807526,2.164171 0,1.275846 0.652353,2.343698 1.550451,3.068602 -0.692664,0.720499 -1.162838,1.677432 -1.162838,2.777892 0,1.052412 0.426156,1.96819 1.065935,2.680989 -0.566004,0.693756 -0.969032,1.53493 -0.969032,2.519483 0,1.035893 0.01643,1.893195 0.637807,2.601118 -1.30549,0.618217 -1.865248,1.91075 -1.865248,3.503785 0,0.342575 0.0845,0.655358 0.161505,0.969032 -0.680943,0.718798 -1.162838,1.655372 -1.162838,2.745591 0,2.151533 1.658537,3.94073 3.714623,3.94073 1.150328,0 2.104772,-0.616262 2.777892,-1.485849 0.450839,0.204355 0.938697,0.387613 1.453548,0.387613 1.888087,0 3.34797,-1.544822 3.585419,-3.456215 1.860153,-0.218176 3.32701,-1.83848 3.32701,-3.843827 0,-0.339895 -0.118307,-0.65017 -0.193806,-0.969032 1.911875,-0.167802 3.423913,-1.834114 3.423913,-3.876128 0,-0.390813 -0.12663,-0.744983 -0.226107,-1.098237 0.757627,-0.489256 1.324344,-1.184369 1.324344,-2.067268 0,-0.218351 -0.0685,-0.412091 -0.129205,-0.613721 0.887972,-0.722344 1.518151,-1.800044 1.518151,-3.068601 0,-0.857681 -0.334319,-1.609658 -0.775226,-2.261075 0.895558,-0.722953 1.51815,-1.793934 1.51815,-3.068602 0,-1.077377 -0.496697,-1.966315 -1.162838,-2.680989 1.431223,-0.555387 2.519483,-1.833583 2.519483,-3.520817 0,-1.081547 -0.492309,-1.998206 -1.162838,-2.713289 0.962324,-0.718746 1.647354,-1.805619 1.647354,-3.133204 0,-1.432417 -0.778835,-2.604073 -1.873462,-3.294709 0.273872,-0.551249 0.516817,-1.145202 0.516817,-1.80886 0,-2.151535 -1.626237,-3.940731 -3.682322,-3.940731 -0.115049,0 -0.213568,0.05246 -0.32301,0.0646 -0.08439,-2.074474 -1.648705,-3.779225 -3.650021,-3.779225 -0.427459,0 -0.810104,0.179948 -1.19514,0.323011 -0.438665,-1.635577 -1.72648,-2.939398 -3.423913,-2.939398 -0.689388,0 -1.258008,0.360934 -1.80886,0.710624 -0.671153,-0.848378 -1.641336,-1.453536 -2.777894,-1.453536 z m 0,1.065936 c 0.89337,0 1.679275,0.493365 2.164171,1.259742 l 0.323011,0.516817 0.484516,-0.419914 c 0.455219,-0.395285 0.997243,-0.613721 1.615054,-0.613721 1.332296,0 2.450236,1.075931 2.616386,2.519484 l 0.0969,0.775226 0.710623,-0.387613 c 0.358518,-0.200101 0.758415,-0.29071 1.19514,-0.29071 1.442388,0 2.616386,1.253469 2.616386,2.874795 0,0.11056 0.01656,0.248031 0,0.387613 l -0.0969,0.775226 0.742925,-0.226107 c 0.234498,-0.06965 0.481386,-0.0969 0.710623,-0.0969 1.442385,0 2.648688,1.253468 2.648688,2.874796 0,0.625325 -0.212043,1.209865 -0.516817,1.679655 l -0.323011,0.516817 0.549119,0.258409 c 0.940425,0.428963 1.647354,1.431372 1.647354,2.648688 0,1.168567 -0.637182,2.161327 -1.51815,2.616386 l -0.742925,0.387613 0.646022,0.484516 c 0.661712,0.520336 1.098236,1.382917 1.098236,2.357978 0,1.493364 -1.017206,2.696511 -2.293376,2.874796 l -1.292043,0.161505 1.065935,0.775226 c 0.699028,0.514381 1.162839,1.384169 1.162839,2.390279 0,1.101378 -0.550933,2.033047 -1.356645,2.519483 l -0.549118,0.323011 0.419914,0.484516 c 0.457271,0.516501 0.742924,1.216913 0.742924,2.002667 0,1.068388 -0.520512,1.988951 -1.292042,2.487182 l -0.387613,0.258409 0.193806,0.419913 c 0.08174,0.169614 0.129204,0.339873 0.129204,0.516818 0,0.535076 -0.376154,1.052855 -1.065935,1.388946 l -0.452215,0.193806 0.193807,0.452215 c 0.131057,0.34511 0.193806,0.740126 0.193806,1.130538 0,1.623371 -1.208506,2.874795 -2.648688,2.874795 -0.0675,0 -0.162344,0.01562 -0.290709,0 l -0.90443,-0.129204 0.355311,0.839827 c 0.162856,0.371812 0.258409,0.807837 0.258409,1.259742 0,1.623371 -1.206301,2.874795 -2.648688,2.874795 -0.02915,0 -0.02574,1.39e-4 -0.0323,0 l -0.549118,0 0,0.516817 c -0.02809,1.595939 -1.190929,2.842495 -2.616387,2.842495 -0.472269,0 -0.945559,-0.122944 -1.324344,-0.355312 l -0.452215,-0.29071 -0.258408,0.452215 c -0.478847,0.796042 -1.277558,1.324344 -2.196473,1.324344 -1.442388,0 -2.648688,-1.28577 -2.648688,-2.907096 0,-0.917506 0.374019,-1.704148 0.969032,-2.228774 l 0.258409,-0.226108 -0.0969,-0.32301 c -0.09087,-0.293762 -0.129205,-0.614051 -0.129205,-0.936731 0,-1.420389 0.914814,-2.581044 2.09957,-2.842494 l 1.065935,-0.226108 -0.839828,-0.678322 c -0.65164,-0.520376 -1.098236,-1.389733 -1.098236,-2.357979 0,-0.870405 0.356803,-1.637606 0.90443,-2.164171 l 0.419914,-0.387613 -0.452215,-0.387613 c -0.605566,-0.523546 -1.001333,-1.3328 -1.001333,-2.261075 0,-0.996732 0.480776,-1.875052 1.162838,-2.390279 l 0.646022,-0.484516 -0.710624,-0.387613 c -0.847476,-0.469464 -1.453548,-1.444987 -1.453548,-2.584086 0,-0.760244 0.246788,-1.42603 0.678322,-1.938064 l 0.355312,-0.419914 -0.387613,-0.323011 c -0.610583,-0.525073 -1.033634,-1.331505 -1.033634,-2.261074 0,-1.163125 0.641693,-2.158224 1.51815,-2.616387 0,0 0.457776,-0.367792 0.409468,-0.607041 -0.04755,-0.235481 -0.603274,-0.394292 -0.603274,-0.394292 -1.289196,-0.166656 -2.325677,-1.372455 -2.325677,-2.874796 0,-0.448143 0.09128,-0.847718 0.258409,-1.22744 l 0.193806,-0.387613 -0.323011,-0.258409 c -0.656759,-0.51928 -1.098239,-1.352054 -1.098239,-2.325681 0,-0.222799 0.01713,-0.458566 0.0646,-0.678322 l 0.0646,-0.355312 -0.29071,-0.193806 c -0.08847,-0.05545 -0.190867,-0.143172 -0.290709,-0.226108 -0.09967,-0.08279 -0.183408,-0.145228 -0.258409,-0.226107 -0.0718,-0.07743 -0.150549,-0.185577 -0.226107,-0.29071 -0.07558,-0.105166 -0.137742,-0.187397 -0.193807,-0.29071 -0.06084,-0.112109 -0.118627,-0.245978 -0.161505,-0.355311 -0.04281,-0.10916 -0.07089,-0.196095 -0.0969,-0.29071 -0.01034,-0.03685 -0.01713,-0.09336 -0.0323,-0.161505 -0.0136,-0.06214 -0.02049,-0.112939 -0.0323,-0.193807 0.0017,0.01149 -0.02252,-0.04265 -0.0323,-0.129204 -0.01555,-0.141812 0,-0.265318 0,-0.355312 0,-0.194548 -0.0035,-0.39008 0.0323,-0.581419 0.0064,-0.03374 0.02427,-0.06229 0.0323,-0.0969 0.01297,-0.05592 0.01608,-0.104844 0.0323,-0.161506 2.8e-5,-9.8e-5 -0.0016,-0.02406 0,-0.0323 -8.3e-5,2.9e-4 0.02701,-0.03645 0.0323,-0.0646 0.0016,-0.0083 -9e-6,-0.0322 0,-0.0323 0.0183,-0.05212 0.03932,-0.09727 0.0646,-0.161505 0.02819,-0.07188 0.08213,-0.13175 0.129204,-0.226108 l 0.193807,-0.452215 -0.387613,-0.258408 c -0.80618,-0.486282 -1.388946,-1.417417 -1.388946,-2.519484 0,-1.62337 1.206303,-2.874795 2.648688,-2.874795 0.596565,0 1.134294,0.208892 1.582752,0.581419 l 0.484516,0.387613 0.323011,-0.516817 c 0.476132,-0.810998 1.271571,-1.324344 2.196473,-1.324344 z" fill="#000000" fill-opacity="1" stroke="none" marker="none" visibility="visible" display="inline" overflow="visible"></path><path style="text-indent:0;text-transform:none;direction:ltr;block-progression:tb;baseline-shift:baseline;color:#000000;enable-background:accumulate;" d="m 18.495104,10.253909 c -1.136554,0 -2.074442,0.605156 -2.745591,1.453549 -0.556323,-0.359627 -1.141094,-0.710624 -1.841161,-0.710624 -1.698463,0 -2.986168,1.302318 -3.423913,2.939398 -0.376704,-0.13612 -0.7461636,-0.323011 -1.1628391,-0.323011 -2.0013094,0 -3.5979395,1.704751 -3.6823221,3.779225 -0.1024269,-0.01064 -0.1833997,-0.0646 -0.2907096,-0.0646 -2.0560785,0 -3.7146231,1.789197 -3.7146231,3.940731 0,0.653438 0.2830867,1.231494 0.5491182,1.776558 -1.1167652,0.684977 -1.90576315,1.87751 -1.90576315,3.327011 0,1.321472 0.69266337,2.413472 1.64735455,3.133204 -0.670525,0.715082 -1.16283849,1.631741 -1.16283849,2.713289 0,1.670747 1.11065449,2.920942 2.51948349,3.488516 -0.6761727,0.71619 -1.1305375,1.62675 -1.1305375,2.71329 0,1.259943 0.6081023,2.312248 1.4858493,3.036301 -0.45028,0.655492 -0.7429247,1.425771 -0.7429247,2.293376 0,1.266838 0.5999521,2.346132 1.4858493,3.068601 -0.060706,0.20162 -0.1292043,0.395357 -0.1292043,0.613721 0,0.880534 0.5699835,1.577893 1.3243439,2.067268 -0.099202,0.352793 -0.1938064,0.708003 -0.1938064,1.098237 0,2.053395 1.4964786,3.724928 3.4239134,3.876128 -0.076062,0.319977 -0.1938064,0.627879 -0.1938064,0.969032 0,2.016727 1.4513187,3.641295 3.3270107,3.843827 0.238135,1.910601 1.697881,3.456215 3.585419,3.456215 0.512383,0 0.972122,-0.185138 1.421247,-0.387613 0.673121,0.869586 1.659862,1.485849 2.810193,1.485849 2.056088,0 3.682322,-1.789198 3.682322,-3.94073 0,-1.105138 -0.465225,-2.056938 -1.162838,-2.777892 0.07234,-0.304452 0.161505,-0.605268 0.161505,-0.936731 0,-1.596082 -0.983793,-2.8398 -2.293376,-3.456215 0.621373,-0.707922 1.065935,-1.612795 1.065935,-2.648688 0,-0.9866 -0.400918,-1.825157 -0.969032,-2.519483 0.639782,-0.712799 1.098237,-1.628577 1.098237,-2.680989 0,-1.102897 -0.499745,-2.057055 -1.19514,-2.777892 0.898101,-0.724904 1.550451,-1.792755 1.550451,-3.068602 0,-0.834059 -0.356449,-1.523741 -0.775225,-2.164171 0.690014,-0.718501 1.162838,-1.67852 1.162838,-2.777892 0,-1.174369 -0.579648,-2.148439 -1.356645,-2.874796 1.370783,-0.586157 2.357978,-1.974722 2.357978,-3.61772 0,-0.481758 -0.141871,-0.898498 -0.290709,-1.324344 0.75537,-0.726062 1.259741,-1.719075 1.259741,-2.874795 0,-0.189558 -0.03964,-0.370449 -0.0646,-0.549118 0.04034,-0.03171 0.09171,-0.06577 0.129205,-0.0969 0.117668,-0.09774 0.236679,-0.195106 0.355311,-0.323011 0.117335,-0.126546 0.234398,-0.264285 0.323011,-0.387613 0.09233,-0.128473 0.175295,-0.266687 0.258409,-0.419914 0.0761,-0.140231 0.162529,-0.290292 0.226107,-0.452215 0.048,-0.122465 0.08815,-0.238439 0.129204,-0.387612 0.02373,-0.08514 0.01974,-0.169886 0.0323,-0.226108 0.02263,-0.103343 0.05164,-0.201937 0.0646,-0.29071 0.01179,-0.07718 -6.35e-4,-0.107601 0,-0.129204 1.59e-4,-0.0054 -1.84e-4,-0.03044 0,-0.0323 0.01357,-0.1193 0.0323,-0.28013 0.0323,-0.452215 0,-0.225132 -0.03114,-0.436326 -0.0646,-0.646021 5.03e-4,-0.02252 -1.65e-4,-0.130088 0,-0.129205 -0.01136,-0.0596 -0.05082,-0.1042 -0.0646,-0.161505 -1.03e-4,8.12e-4 -10e-4,-0.03135 0,-0.0646 -0.0052,-0.02034 0.0054,-0.0446 0,-0.0646 3e-5,3.1e-4 -0.0268,-0.03598 -0.0323,-0.0646 l 0,-0.0323 c -0.03959,-0.136887 -0.05683,-0.253365 -0.0969,-0.355312 0.895917,-0.722839 1.51815,-1.793722 1.51815,-3.068602 0,-2.14949 -1.626235,-3.940731 -3.682322,-3.940731 -0.674096,0 -1.267269,0.310836 -1.80886,0.646022 -0.664568,-0.876999 -1.629461,-1.507354 -2.777892,-1.518151 -0.01089,-1.02e-4 -0.02137,0 -0.0323,0 z m 0,1.065936 c 0.9249,0 1.752643,0.513347 2.228774,1.324344 l 0.29071,0.516817 0.484516,-0.387613 c 0.448454,-0.372526 1.018487,-0.581419 1.615053,-0.581419 1.442389,0 2.616387,1.251425 2.616387,2.874795 0,1.102067 -0.550468,2.033202 -1.356645,2.519484 l -0.419914,0.258408 0.226108,0.452215 c 0.04698,0.09406 0.06862,0.154013 0.0969,0.226108 0.02535,0.06448 0.04631,0.109426 0.0646,0.161505 3.78e-4,0.0082 -1.4e-5,0.03216 0,0.0323 0.0055,0.02871 0.03238,0.06489 0.0323,0.0646 0.0024,0.01252 -3.6e-5,0.03218 0,0.0323 0.02624,0.09155 0.04779,0.170146 0.0646,0.258409 0.03587,0.191528 0.0646,0.387013 0.0646,0.581419 0,0.08986 -0.01681,0.213144 -0.0323,0.355312 -0.0078,0.07854 -0.0014,0.10663 0,0.0969 l 0,0.0323 c -0.01182,0.08095 -0.05103,0.131826 -0.0646,0.193807 l 0.0323,0 c -0.01531,0.06858 -0.05433,0.124663 -0.0646,0.161505 -0.02607,0.09472 -0.0541,0.181508 -0.0969,0.29071 -0.04303,0.109594 -0.100728,0.243307 -0.161505,0.355311 -0.05597,0.103188 -0.118188,0.185493 -0.193807,0.29071 -0.07549,0.105057 -0.154277,0.213241 -0.226107,0.29071 -0.07507,0.08094 -0.158765,0.143338 -0.258409,0.226107 -0.09992,0.08298 -0.169966,0.17067 -0.258408,0.226108 l -0.323011,0.193806 0.0646,0.355312 c 0.04749,0.219742 0.0969,0.455537 0.0969,0.678322 0,0.973626 -0.441485,1.806401 -1.098236,2.325677 l -0.323011,0.258409 0.161505,0.387613 c 0.167123,0.379721 0.258409,0.779294 0.258409,1.22744 0,1.50234 -1.036491,2.708141 -2.325677,2.874796 -0.571083,0.161542 -0.665932,0.678102 -0.193806,1.001333 0.876454,0.458163 1.51815,1.453263 1.51815,2.616387 0,0.929567 -0.390756,1.736 -1.001333,2.261074 l -0.419914,0.323011 0.355312,0.419914 c 0.431535,0.512033 0.710623,1.177818 0.710623,1.938064 0,1.139101 -0.606068,2.114622 -1.453548,2.584086 l -0.710624,0.387613 0.646022,0.484516 c 0.682058,0.515227 1.130537,1.39355 1.130537,2.390279 0,0.928273 -0.395764,1.737529 -1.001333,2.261075 l -0.452215,0.387613 0.419914,0.387613 c 0.547627,0.526566 0.90443,1.293768 0.90443,2.164171 0,0.968246 -0.414299,1.837603 -1.065935,2.357979 l -0.872129,0.678322 1.065935,0.226108 c 1.184749,0.26145 2.131871,1.422106 2.131871,2.842494 0,0.32266 -0.07065,0.642931 -0.161506,0.936731 l -0.0969,0.32301 0.258409,0.226108 c 0.595012,0.524625 1.001333,1.311266 1.001333,2.228774 0,1.621327 -1.206298,2.907096 -2.648688,2.907096 -0.91892,0 -1.749924,-0.5283 -2.228774,-1.324344 l -0.258408,-0.452215 -0.452215,0.29071 c -0.378786,0.232368 -0.819779,0.355312 -1.292043,0.355312 -1.425461,0 -2.620599,-1.246557 -2.648688,-2.842495 l 0,-0.516817 -0.516817,0 c -0.007,1.43e-4 -0.03576,0 -0.0646,0 -1.44239,0 -2.6486884,-1.251425 -2.6486884,-2.874795 0,-0.451945 0.095528,-0.888 0.2584089,-1.259742 L 10.290629,53.34353 9.3538979,53.472734 c -0.1284311,0.01562 -0.2232391,0 -0.2907096,0 -1.4401839,0 -2.6486878,-1.251425 -2.6486878,-2.874795 0,-0.390408 0.095049,-0.785424 0.2261075,-1.130538 L 6.8021164,49.015194 6.3822024,48.821388 C 5.6924148,48.485297 5.3162671,47.967519 5.3162671,47.432442 c 0,-0.176924 0.04746,-0.347176 0.1292043,-0.516818 L 5.6392778,46.495711 5.251665,46.237302 C 4.4801393,45.739072 3.9273211,44.818509 3.9273211,43.75012 c 0,-0.785756 0.2856484,-1.486168 0.7429246,-2.002667 L 5.0901596,41.262937 4.5733425,40.939926 c -0.8057187,-0.486436 -1.388946,-1.418104 -1.388946,-2.519483 0,-1.006112 0.4961103,-1.875898 1.1951396,-2.390279 L 5.4131703,35.254938 4.1211275,35.093433 C 2.8449642,34.91515 1.8277515,33.712 1.8277515,32.218637 c 0,-0.975059 0.4365312,-1.837642 1.0982364,-2.357978 L 3.5720093,29.376143 2.8613858,28.98853 C 1.9804245,28.533471 1.3432355,27.540709 1.3432355,26.372144 c 0,-1.217312 0.6746315,-2.219725 1.6150535,-2.648688 L 3.5074072,23.465047 3.1843965,22.94823 C 2.8796219,22.47844 2.6998804,21.8939 2.6998804,21.268575 c 0,-1.621325 1.2063115,-2.874796 2.6486878,-2.874796 0.2292499,0 0.443812,0.02726 0.6783225,0.0969 l 0.7752257,0.226107 -0.096903,-0.775226 c -0.016548,-0.139505 -0.032301,-0.276972 -0.032301,-0.387613 0,-1.621325 1.2063114,-2.874795 2.6486878,-2.874795 0.4367249,0 0.8366128,0.09061 1.1951398,0.29071 l 0.678322,0.387613 0.0969,-0.775226 c 0.166152,-1.443552 1.284095,-2.519484 2.616386,-2.519484 0.617812,0 1.192126,0.218432 1.647355,0.613721 l 0.452215,0.419914 0.323011,-0.516817 c 0.484889,-0.766375 1.270806,-1.259742 2.164171,-1.259742 z" fill="#000000" fill-opacity="1" stroke="none" marker="none" visibility="visible" display="inline" overflow="visible"></path></svg>