<svg xmlns="http://www.w3.org/2000/svg" xmlns:xlink="http://www.w3.org/1999/xlink" version="1.1" x="0px" y="0px" viewBox="0 0 100 100" enable-background="new 0 0 100 100" xml:space="preserve"><g><path fill="#000000" d="M79.214,38.73c-3.025,0.014-5.896,0.663-8.481,1.847l-2.637-4.852h24.029c0.571,0,1.033-0.462,1.033-1.032   c0-0.571-0.462-1.035-1.033-1.035H66.974l-1.868-3.437l1.981-6.937l3.307-0.017c0.81-0.005,1.462-1.021,1.457-1.829   c-0.003-0.813-0.663-1.822-1.473-1.819l-11.156,0.051c-0.809,0.005-1.462,1.022-1.457,1.832c0.004,0.81,0.664,1.82,1.474,1.817   l4.793-0.021l-1.615,4.871l-30.85,0.142l0.568-2.224c0.093-0.435-0.015-0.614-0.294-0.958c-0.281-0.344-0.701-0.464-1.145-0.462   l-7.615,0.042c-0.811,0.004-1.466,0.414-1.461,1.224c0.004,0.809,0.661,1.212,1.473,1.209l5.795-0.034L28.32,30.05   c-0.003,0.004-0.002,0.149-0.002,0.151l-0.899,4.278l-2.644,11.095V30.366c0-0.784-0.637-1.42-1.421-1.42s-1.42,0.636-1.42,1.42   v15.39H1.475c-0.012,0-0.021,0.002-0.033,0.004c-0.378-0.007-0.757,0.134-1.039,0.425c-0.548,0.562-0.535,1.463,0.026,2.009   l8.903,8.662c-1.793,2.449-2.855,5.464-2.855,8.726c0,8.159,6.639,14.799,14.798,14.799c8.161,0,14.8-6.64,14.8-14.799   c0-6.428-4.12-11.91-9.856-13.948l3.227-13.963l24.113,24.741c0.027,0.026,0.06,0.049,0.088,0.075   c0.033,0.028,0.066,0.058,0.104,0.086c0.05,0.035,0.104,0.066,0.158,0.099c0.036,0.018,0.073,0.038,0.107,0.055   c0.064,0.028,0.129,0.049,0.196,0.069c0.031,0.008,0.064,0.021,0.096,0.027c0.102,0.021,0.204,0.031,0.309,0.031   c0.033,0,0.074-0.003,0.106-0.005l4.128-0.327c1.497,9.993,10.16,17.654,20.553,17.606c11.409-0.054,20.649-9.384,20.597-20.792   C99.947,47.929,90.622,38.677,79.214,38.73z M32.716,65.581c0,6.308-5.132,11.44-11.441,11.44c-6.309,0-11.439-5.133-11.439-11.44   c0-2.351,0.711-4.537,1.932-6.356l8.188,7.969c0.164,0.338,0.456,0.612,0.84,0.744c0.159,0.058,0.324,0.083,0.482,0.083   c0.607-0.003,1.173-0.385,1.381-0.988l2.796-12.1C29.703,56.605,32.716,60.746,32.716,65.581z M20.453,63.713l-6.82-6.638   c2.027-1.823,4.708-2.936,7.643-2.936c0.487,0,0.966,0.034,1.437,0.092L20.453,63.713z M21.275,50.781   c-3.877,0-7.409,1.502-10.051,3.95l-6.307-6.135h18.437c0.277,0,0.534-0.082,0.753-0.221l-0.612,2.572   C22.77,50.84,22.03,50.781,21.275,50.781z M30.943,31.964l30.63-0.141l-0.64,2.216H30.522L30.943,31.964z M30.522,34.04v0.534   l-0.09-0.092L30.522,34.04z M53.897,58.402L36.761,40.936h22.181L53.897,58.402z M58.795,59.538c0,0.021,0,0.043,0,0.063   l-2.104,0.159l7.301-25.467l4.277,7.733C62.508,45.728,58.761,52.197,58.795,59.538z M69.797,45.036l7.143,13.124L62.04,59.334   C62.077,53.373,65.152,48.115,69.797,45.036z M79.388,76.714c-8.593,0.039-15.768-6.236-17.119-14.458l17.153-1.352   c0.496-0.04,0.938-0.327,1.174-0.763c0.239-0.438,0.237-0.965,0-1.399L72.369,43.63c2.101-0.923,4.42-1.446,6.859-1.458   c9.523-0.043,17.306,7.667,17.351,17.191C96.624,68.886,88.912,76.67,79.388,76.714z"></path></g></svg>