<svg xmlns="http://www.w3.org/2000/svg" xmlns:xlink="http://www.w3.org/1999/xlink" version="1.1" x="0px" y="0px" viewBox="0 0 100 100" enable-background="new 0 0 100 100" xml:space="preserve"><g><g><path d="M55.071,2.212c-2.947-2.949-7.731-2.949-10.681,0L2.21,44.396c-2.947,2.948-2.947,7.729,0.002,10.678L44.926,97.79    c2.949,2.947,7.729,2.947,10.679,0l42.184-42.182c2.948-2.949,2.948-7.732,0-10.68L55.071,2.212z M93.546,51.366L51.362,93.547    c-0.376,0.375-0.804,0.454-1.099,0.454c-0.293,0-0.721-0.079-1.096-0.454L6.454,50.831c-0.377-0.377-0.455-0.805-0.455-1.098    s0.078-0.721,0.453-1.095L48.633,6.455C49.01,6.079,49.438,6,49.73,6s0.721,0.079,1.096,0.453l42.72,42.718    c0.375,0.375,0.453,0.804,0.453,1.096C93.999,50.562,93.921,50.99,93.546,51.366z"></path><path d="M52.998,55.454V36.589l5.694,2.112l0.008-0.008c0.146,0.082,0.306,0.14,0.485,0.14c0.563,0,1.021-0.457,1.021-1.021    c0-0.195-0.055-0.377-0.149-0.531l-9.111-15.081c-0.111-0.293-0.354-0.508-0.657-0.6c-0.08-0.028-0.164-0.045-0.253-0.051    c-0.013,0-0.024-0.007-0.037-0.007c-0.004,0-0.007,0.001-0.011,0.001c-0.003,0-0.006-0.001-0.01-0.001    c-0.014,0-0.024,0.007-0.037,0.007c-0.089,0.006-0.173,0.023-0.253,0.051c-0.303,0.092-0.546,0.307-0.657,0.6l-9.111,15.081    c-0.095,0.154-0.149,0.336-0.149,0.531c0,0.563,0.457,1.021,1.021,1.021c0.18,0,0.339-0.059,0.485-0.14l0.008,0.008l5.715-2.12V75    h6V63.914l12.134-12.063l-4.23-4.254L52.998,55.454z"></path></g></g></svg>