<svg xmlns="http://www.w3.org/2000/svg" xmlns:xlink="http://www.w3.org/1999/xlink" version="1.1" x="0px" y="0px" viewBox="0 0 100 100" enable-background="new 0 0 100 100" xml:space="preserve"><g><path d="M57.678,91.987c0,2.219-1.799,4.021-4.02,4.021l0,0c-2.221,0-4.021-1.802-4.021-4.021V71.084   c0-2.221,1.8-4.019,4.021-4.019l0,0c2.221,0,4.02,1.798,4.02,4.019V91.987z"></path><path d="M56.355,63.279c-1.616,1.521-4.16,1.445-5.681-0.171l0,0c-1.523-1.618-1.445-4.161,0.171-5.684l27.899-27.005   c1.616-1.521,4.158-1.445,5.682,0.172l0,0c1.524,1.617,1.446,4.161-0.172,5.682L56.355,63.279z"></path><path d="M48.924,41.288c-1.614,1.523-4.159,1.443-5.682-0.172l0,0c-1.522-1.618-1.445-4.16,0.172-5.682L78.264,1.479   c1.613-1.521,4.16-1.446,5.681,0.171l0,0c1.522,1.617,1.444,4.161-0.171,5.683L48.924,41.288z"></path><path d="M4.102,42.376c-2.219-0.031-3.994-1.856-3.963-4.075l0,0c0.032-2.222,1.856-3.993,4.076-3.962l38.83,0.002   c2.219,0.03,3.994,1.856,3.963,4.076l0,0c-0.031,2.22-1.857,3.993-4.077,3.963L4.102,42.376z"></path><path d="M49.638,71.084l8.04,0.807l0.32-19.619l1.408-2.932c-2.652,0.4-2.533-1.367-2.533-1.367s-3.698-9.447-1.667-12.806   L41.84,42.38c0,0-1.55,15.642,0.311,18.578c1.86,2.929,6.21,3.874,6.806,5.564C49.638,68.457,49.638,71.084,49.638,71.084z"></path><line stroke="#000000" stroke-width="3" stroke-linecap="round" stroke-miterlimit="10" x1="2" y1="97.401" x2="98" y2="97.401"></line><path d="M72.872,66.525c0,3.717-3.015,6.729-6.733,6.729s-6.732-3.012-6.732-6.729c0-3.721,3.014-6.736,6.732-6.736   S72.872,62.805,72.872,66.525z"></path></g></svg>