<svg xmlns:dc="http://purl.org/dc/elements/1.1/" xmlns:cc="http://creativecommons.org/ns#" xmlns:rdf="http://www.w3.org/1999/02/22-rdf-syntax-ns#" xmlns:svg="http://www.w3.org/2000/svg" xmlns="http://www.w3.org/2000/svg" xmlns:sodipodi="http://sodipodi.sourceforge.net/DTD/sodipodi-0.dtd" xmlns:inkscape="http://www.inkscape.org/namespaces/inkscape" viewBox="0 0 80 80" version="1.1" x="0px" y="0px"><path d="m 28.867827,41.762684 c -0.589494,0 -1.078458,0.472866 -1.078458,1.062363 l 0,9.174947 0,0.016 c 0.0089,1.577313 1.269389,2.849065 2.832967,2.849065 1.563584,0 2.8403,-1.271752 2.849062,-2.849065 3.3e-5,-0.0055 0,-0.0107 0,-0.016 l 0,-9.174947 c 0,-0.589497 -0.47286,-1.062363 -1.062361,-1.062363 l -3.54121,0 z" style="" fill="#000000" fill-opacity="1" stroke="none"></path><path d="m 30.622336,49.666016 c -1.569015,0 -2.832967,1.280281 -2.832967,2.865159 l 0,13.698038 c 0,0.589497 0.488964,1.062361 1.078458,1.062361 l 3.54121,0 c 0.589501,0 1.062361,-0.472864 1.062361,-1.062361 l 0,-13.698038 c 0,-1.584878 -1.280043,-2.865159 -2.849062,-2.865159 z" style="" fill="#000000" fill-opacity="1" stroke="none"></path><path d="m 21.478447,18.115481 11.350127,0 c 0.785998,0 1.418761,0.632769 1.418761,1.418766 l 0,21.990891 c 0,0.785997 -0.632763,1.418767 -1.418761,1.418767 l -11.350127,0 c -0.785994,0 -1.418763,-0.63277 -1.418763,-1.418767 l 0,-21.990891 c 0,-0.785997 0.632769,-1.418766 1.418763,-1.418766 z" style="" fill="#000000" fill-opacity="1" stroke="none"></path><path d="m 32.473892,12.085745 c 0,2.938361 -2.382017,5.320375 -5.320376,5.320375 -2.938365,0 -5.320375,-2.382014 -5.320375,-5.320375 0,-2.9383623 2.38201,-5.320373 5.320375,-5.320373 2.938359,0 5.320376,2.3820107 5.320376,5.320373 z" style="" fill="#000000" fill-opacity="1" stroke="none"></path><path style="" d="m 21.839689,41.884913 c -0.589495,0 -1.078459,0.472864 -1.078459,1.062363 l 0,9.174947 0,0.016 c 0.0088,1.577313 1.269382,2.849065 2.832967,2.849065 1.563584,0 2.8403,-1.271752 2.849062,-2.849065 3.3e-5,-0.0055 0,-0.0107 0,-0.016 l 0,-9.174947 c 0,-0.589499 -0.472867,-1.062363 -1.062361,-1.062363 l -3.541209,0 z" fill="#000000" fill-opacity="1" stroke="none"></path><path style="" d="m 23.594197,49.788245 c -1.569013,0 -2.832967,1.280281 -2.832967,2.865159 l 0,13.698038 c 0,0.589497 0.488964,1.062361 1.078459,1.062361 l 3.541209,0 c 0.589494,0 1.062361,-0.472864 1.062361,-1.062361 l 0,-13.698038 c 0,-1.584878 -1.28005,-2.865159 -2.849062,-2.865159 z" fill="#000000" fill-opacity="1" stroke="none"></path><path style="" d="m 17.268311,18.464649 c -0.589495,0 -1.062362,0.472865 -1.062362,1.062362 l 0,9.432491 3.541208,0 0,-9.432491 c 0,-0.589497 -0.472867,-1.062362 -1.062363,-1.062362 l -1.416483,0 z m -1.062362,11.009939 0,9.207142 c 0,0.589497 0.472867,1.062361 1.062362,1.062361 l 1.416483,0 c 0.589496,0 1.062363,-0.472864 1.062363,-1.062361 l 0,-9.207142 -3.541208,0 z" fill="#000000" fill-opacity="1" stroke="none"></path><path d="m 52.732736,50.584909 c -1.265893,0 -2.29305,1.025175 -2.301784,2.301787 -3.9e-5,0.0055 0,0.0107 0,0.016 l 0,13.488783 c 0,0.58953 0.472827,1.062363 1.062361,1.062363 l 2.478846,0 c 0.589527,0 1.062362,-0.472833 1.062362,-1.062363 l 0,-13.488783 c 0,-0.0055 3.9e-5,-0.0107 0,-0.016 -0.0088,-1.276612 -1.035894,-2.301787 -2.301785,-2.301787 z" style="" fill="#000000" fill-opacity="1" stroke="none"></path><path d="m 51.493313,41.925046 c -0.589496,0 -1.062361,0.472865 -1.062361,1.062361 0.0197,3.120154 -0.03491,6.292832 0.016,9.384203 0.02589,1.261465 1.046736,2.269592 2.301785,2.269592 1.271312,0 2.301785,-1.033716 2.301785,-2.317881 -0.03245,-3.075418 -0.01601,-6.231753 -0.01601,-9.335914 0,-0.589496 -0.472868,-1.062361 -1.062362,-1.062361 z" style="" fill="#000000" fill-opacity="1" stroke="none"></path><path d="m 44.747736,18.188378 9.57667,0 c 0.786001,0 1.418763,0.632769 1.418763,1.418767 l 0,21.99089 c 0,0.785997 -0.632762,1.418768 -1.418763,1.418768 l -9.57667,0 c -0.785994,0 -1.418762,-0.632771 -1.418762,-1.418768 l 0,-21.99089 c 0,-0.785998 0.632768,-1.418767 1.418762,-1.418767 z" style="" fill="#000000" fill-opacity="1" stroke="none"></path><path d="m 54.856449,12.158645 c 0,1.46918 0.17735,5.320356 0.17735,5.320356 0,0 -0.06296,0 -0.17597,0 -0.11302,0 -0.333091,-0.354695 -0.533415,-0.354695 -0.20031,0 -0.380873,0.3547 -0.642748,0.3547 -0.261869,0 -0.478321,-0.3547 -0.776014,-0.3547 -0.297699,0 -0.676642,0.354704 -0.984429,0.354708 -0.307777,0 -0.142189,-0.354708 -0.434334,-0.354708 -0.292143,0 -1.04201,0.354713 -1.292765,0.354713 -0.250764,0 -0.651738,-0.354713 -0.835384,-0.354713 -0.183661,0 -0.229948,0.354713 -0.480711,0.354713 -0.250761,0 -0.645922,-0.354713 -0.938058,-0.354713 -0.292145,0 -0.481259,0.354708 -0.789041,0.354708 -0.307787,-4e-6 -0.686723,-0.354708 -0.984416,-0.354708 -0.2977,0 -0.514151,0.3547 -0.77602,0.3547 -0.261877,0 -0.442432,-0.3547 -0.642749,-0.3547 -0.200316,0 -0.420387,0.354695 -0.533409,0.354695 -0.113032,0 -0.175969,0 -0.175969,0 0,0 0.177331,-3.851176 0.177331,-5.320356 0,-2.9383623 2.382008,-5.320374 5.320373,-5.320374 2.938361,0 5.320377,2.3820117 5.320377,5.320374 z" style="" fill="#000000" fill-opacity="1" stroke="none"></path><path style="" d="m 46.358562,50.584909 c -1.265893,0 -2.293049,1.025176 -2.301787,2.301787 -3.8e-5,0.0055 0,0.0107 0,0.016 l 0,13.488783 c 0,0.58953 0.472836,1.062363 1.062364,1.062363 l 2.478846,0 c 0.589525,0 1.062361,-0.472833 1.062361,-1.062363 l 0,-13.488783 c 0,-0.0055 3.8e-5,-0.0107 0,-0.016 -0.0088,-1.276611 -1.035893,-2.301787 -2.301784,-2.301787 z" fill="#000000" fill-opacity="1" stroke="none"></path><path style="" d="m 45.119139,41.925046 c -0.589496,0 -1.062364,0.472865 -1.062364,1.062361 0.0197,3.120154 -0.0349,6.292832 0.016,9.384203 0.02589,1.261465 1.046736,2.269592 2.301784,2.269592 1.271315,0 2.301787,-1.033716 2.301787,-2.317881 -0.03246,-3.075416 -0.016,-6.231753 -0.016,-9.335914 0,-0.589496 -0.472867,-1.062361 -1.062361,-1.062361 z" fill="#000000" fill-opacity="1" stroke="none"></path><path style="" d="m 40.524259,18.535832 c -0.589489,-0.0035 -1.081207,0.466549 -1.084658,1.056037 l -0.04951,8.466561 -3.74e-4,0.0644 c 0.02923,0.951832 0.800461,1.710931 1.760584,1.71655 0.959611,0.0055 1.739416,-0.745135 1.780558,-1.695833 6.45e-4,-0.02245 0.01638,-0.04162 0.01656,-0.06429 l 0.04951,-8.466562 c 0.0031,-0.589487 -0.466641,-1.065111 -1.05613,-1.068559 l -1.416458,-0.0083 z" fill="#000000" fill-opacity="1" stroke="none"></path><path style="" d="m 41.571268,26.937714 c -0.950694,-0.247118 -1.927555,0.313479 -2.174673,1.264173 L 37.298759,36.2716 c -0.148297,0.57054 0.205975,1.151205 0.776518,1.299507 l 1.370927,0.356347 c 0.570536,0.148303 1.147155,-0.190394 1.295451,-0.760935 l 2.097836,-8.069712 c 0.247124,-0.950693 -0.317529,-1.911979 -1.268224,-2.159094 z" fill="#000000" fill-opacity="1" stroke="none"></path><path d="m 55.743181,36.277651 2.482832,14.187664 -17.37989,0 2.482851,-14.187664 z" style="" fill="#000000" stroke="none"></path><path d="m 7.8333757,32.271351 c -1.72562,0 -3.124515,1.398894 -3.124515,3.124515 0,0.0022 -5e-6,0.0044 0,0.0064 -0.0022,1.34e-4 -0.0043,-1.57e-4 -0.0064,0 -0.02877,0.985096 -0.09363,1.654505 -0.182261,2.297819 -0.08371,0.273168 -0.5533018,-0.01953 -0.9699028,-0.227829 0.193323,0.962085 0.5454988,1.253999 1.0349968,1.256316 0.407768,-0.0147 0.879208,-0.38836 0.839713,-1.256316 1.51e-4,-0.02723 -3.78e-4,-0.06269 0,-0.09112 0.573082,0.694416 1.437819,1.139147 2.408478,1.139147 0.964043,0 1.822313,-0.439871 2.3954643,-1.126127 3.77e-4,0.02424 -1.29e-4,0.05475 0,0.07811 -0.0395,0.867956 0.438455,1.24161 0.846224,1.256316 0.489498,-0.0023 0.835164,-0.294231 1.028483,-1.256316 -0.4166,0.208293 -0.886189,0.500997 -0.969898,0.227829 -0.08611,-0.624961 -0.152148,-1.280213 -0.182264,-2.219707 7.55e-4,-0.02847 0.0064,-0.05596 0.0064,-0.08463 0,-1.725623 -1.3988953,-3.124515 -3.1245153,-3.124515 z" style="" fill="#000000" fill-opacity="1" stroke="none"></path><path style="" d="m 17.268311,18.464649 c -0.589495,0 -1.062362,0.472865 -1.062362,1.062362 l 0,9.384203 0,0.0483 c 0.02511,0.956003 0.808548,1.722315 1.770604,1.722315 0.962056,0 1.745519,-0.766312 1.770604,-1.722315 4.12e-4,-0.01564 0,-0.03246 0,-0.0483 l 0,-9.384203 c 0,-0.589497 -0.472867,-1.062362 -1.062363,-1.062362 l -1.416483,0 z" fill="#000000" fill-opacity="1" stroke="none"></path><path style="" d="m 17.976553,27.76837 c -0.955837,0 -1.735971,0.758842 -1.770604,1.706218 -6.44e-4,0.02184 0,0.04236 0,0.06438 l 0,9.142756 c 0,0.589497 0.472867,1.062361 1.062362,1.062361 l 1.416483,0 c 0.589496,0 1.062363,-0.472864 1.062363,-1.062361 l 0,-9.142756 c 0,-0.02204 6.44e-4,-0.04254 0,-0.06438 -0.03464,-0.947376 -0.814768,-1.706218 -1.770604,-1.706218 z" fill="#000000" fill-opacity="1" stroke="none"></path><path d="m 35.578294,18.464649 c -0.5895,0 -1.062362,0.472865 -1.062362,1.062362 l 0,9.384203 0,0.0483 c 0.02512,0.956003 0.808548,1.722315 1.770604,1.722315 0.962051,0 1.74552,-0.766312 1.770604,-1.722315 4.13e-4,-0.01564 0,-0.03246 0,-0.0483 l 0,-9.384203 c 0,-0.589497 -0.472868,-1.062362 -1.062362,-1.062362 l -1.416484,0 z" style="" fill="#000000" fill-opacity="1" stroke="none"></path><path d="m 36.058681,27.792106 c -0.934846,0.199323 -1.539724,1.104028 -1.37613,2.037839 0.0037,0.02151 0.0088,0.0414 0.01342,0.06297 l 1.905652,8.942165 c 0.122769,0.576587 0.68392,0.940496 1.260487,0.817624 l 1.385404,-0.295248 c 0.576542,-0.122964 0.940491,-0.683921 0.817624,-1.260486 l -1.905657,-8.942169 c -0.0045,-0.02155 -0.0081,-0.04177 -0.01341,-0.06297 C 37.914745,28.172459 36.99354,27.592875 36.058683,27.7921 z" style="" fill="#000000" fill-opacity="1" stroke="none"></path><path d="m 57.251427,18.535832 c -0.589489,-0.0035 -1.08121,0.466549 -1.084654,1.056037 l -0.04951,8.466561 -3.79e-4,0.0644 c 0.02923,0.951832 0.800461,1.710931 1.760591,1.71655 0.959604,0.0055 1.739415,-0.745135 1.780558,-1.695833 6.43e-4,-0.02245 0.01638,-0.04162 0.01656,-0.06429 l 0.04951,-8.466562 c 0.0034,-0.589487 -0.46664,-1.065111 -1.056129,-1.068559 l -1.416459,-0.0083 z" style="" fill="#000000" fill-opacity="1" stroke="none"></path><path d="m 57.927437,26.874167 c -0.982286,3.34e-4 -1.786429,0.788928 -1.786095,1.771214 l 0.0026,8.337936 c 2.06e-4,0.589498 0.489325,1.062196 1.07882,1.061994 l 1.416484,-4.85e-4 c 0.589501,-2e-4 1.062201,-0.473227 1.062,-1.062725 l -0.0026,-8.337935 c -3.35e-4,-0.982287 -0.788924,-1.770336 -1.771211,-1.769999 z" style="" fill="#000000" fill-opacity="1" stroke="none"></path><path style="" d="m 71.495898,51.584088 c -0.345181,0 -0.607935,0.292582 -0.607935,0.676957 l 0,5.995904 c 2.7e-4,0.0532 -0.0041,0.109138 0,0.16118 -0.0055,0.06246 0,0.129275 0,0.193417 l 0,8.929384 c 0,0.384375 0.262754,0.676957 0.607935,0.676957 l 2.084348,0 c 0.345186,0 0.636883,-0.292582 0.636883,-0.676957 l 0,-8.929384 c 0,-0.06459 -0.02323,-0.130536 -0.02895,-0.193417 0.0043,-0.05267 0.02868,-0.10732 0.02895,-0.16118 l 0,-5.995904 c 0,-0.384375 -0.291697,-0.676957 -0.636883,-0.676957 l -2.084348,0 z" fill="#000000" fill-opacity="1" stroke="none"></path><path style="" d="m 66.332987,36.114022 7.400714,0 c 0.512501,0 0.925087,0.412589 0.925087,0.925089 l 0,14.338898 c 0,0.5125 -0.412586,0.925092 -0.925087,0.925092 l -7.400714,0 c -0.512499,0 -0.925088,-0.412592 -0.925088,-0.925092 l 0,-14.338898 c 0,-0.5125 0.412589,-0.925089 0.925088,-0.925089 z" fill="#000000" fill-opacity="1" stroke="none"></path><path style="" d="m 73.502436,32.182403 c 0,1.915924 -1.553165,3.469087 -3.469088,3.469087 -1.915926,0 -3.469088,-1.553163 -3.469088,-3.469087 0,-1.915924 1.553162,-3.469086 3.469088,-3.469086 1.915923,0 3.469088,1.553162 3.469088,3.469086 z" fill="#000000" fill-opacity="1" stroke="none"></path><path style="" d="m 66.487231,51.598678 c -0.345181,0 -0.636884,0.324816 -0.636884,0.709193 l 0,5.995904 c 2.91e-4,0.05862 0.024,0.103968 0.02895,0.16118 -0.0046,0.0575 -0.02895,0.102279 -0.02895,0.161181 l 0,8.929384 c 0,0.384375 0.291703,0.709193 0.636884,0.709193 l 2.084348,0 c 0.345182,0 0.607935,-0.324818 0.607935,-0.709193 l 0,-8.929384 c 0,-0.05823 0.0046,-0.104316 0,-0.161181 0.0049,-0.05658 -2.89e-4,-0.103219 0,-0.16118 l 0,-5.995904 c 0,-0.384377 -0.262753,-0.709193 -0.607935,-0.709193 l -2.084348,0 z" fill="#000000" fill-opacity="1" stroke="none"></path><path d="m 66.471114,36.342389 c -0.316835,-0.217619 -0.74555,-0.138033 -0.963169,0.178803 l -3.464289,5.043721 -0.01783,0.02597 c -0.339419,0.523096 -0.201244,1.224176 0.315831,1.57933 0.517076,0.355154 1.221057,0.232511 1.587458,-0.272053 0.006,-0.0082 0.01199,-0.01745 0.01783,-0.02596 l 3.464289,-5.043721 c 0.21762,-0.316836 0.138033,-0.745551 -0.178804,-0.963171 l -0.761316,-0.52291 z" style="" fill="#000000" fill-opacity="1" stroke="none"></path><path d="m 63.752382,43.048701 c 0.44839,-0.43287 0.470699,-1.142147 0.05791,-1.602252 -0.0095,-0.01049 -0.01918,-0.01987 -0.02916,-0.03021 l -4.140496,-4.288932 c -0.266965,-0.276536 -0.702937,-0.284213 -0.979473,-0.01725 l -0.664482,0.641483 c -0.276538,0.266967 -0.284215,0.702938 -0.01725,0.979474 l 4.140489,4.288932 c 0.01,0.01031 0.01896,0.02025 0.02916,0.03021 0.445291,0.428731 1.154908,0.431415 1.603298,-0.0015 z" style="" fill="#000000" fill-opacity="1" stroke="none"></path><path style="" d="m 75.526623,36.341692 c -0.384377,0 -0.692699,0.308326 -0.692699,0.6927 l 0,6.118858 0,0.0315 c 0.01638,0.623351 0.527203,1.123015 1.154499,1.123015 0.627295,0 1.138146,-0.499664 1.154503,-1.123015 2.68e-4,-0.01019 0,-0.02117 0,-0.0315 l 0,-3.059429 0,-3.059429 c 0,-0.384374 -0.308328,-0.6927 -0.692701,-0.6927 z" fill="#000000" fill-opacity="1" stroke="none"></path><path style="" d="m 75.983005,42.407913 c -0.623237,0.0048 -1.128137,0.50344 -1.145996,1.121336 -4.02e-4,0.01418 2.1e-4,0.02761 3.2e-4,0.04197 l 0.04556,5.961388 c 0.0028,0.384373 0.313615,0.690342 0.69799,0.687404 l 0.923594,-0.007 c 0.384371,-0.003 0.690339,-0.313617 0.687405,-0.697989 l -0.04556,-5.961391 c -1.08e-4,-0.01432 2.94e-4,-0.02773 -3.19e-4,-0.04197 -0.02728,-0.617548 -0.53976,-1.108453 -1.162993,-1.103692 z" fill="#000000" fill-opacity="1" stroke="none"></path><path style="" d="m 65.474364,49.335047 c 0,0.199526 -0.733615,7.906553 -0.733615,7.906553 l 4.903016,-0.08014 0.419715,-2.888124 0.249409,2.743493 4.788643,0.04988 -0.498817,-7.532135 z" fill="#000000" stroke="none"></path><path style="" d="m 77.046918,31.577162 -10.457001,0.09976 c 0.301288,-4.247832 6.814447,-4.276963 7.299845,-0.199527" fill="#000000" stroke="#000000" stroke-width="1.03155351px" stroke-linecap="round" stroke-linejoin="round" stroke-opacity="1"></path><path style="" d="m 9.7528487,57.771584 c -0.731778,0 -1.325548,0.592625 -1.330597,1.330598 -2.2e-5,0.0032 0,0.0062 0,0.0093 l 0,7.79749 c 0,0.34079 0.273328,0.614122 0.614121,0.614122 l 1.4329523,0 c 0.34079,0 0.614122,-0.273332 0.614122,-0.614122 l 0,-7.79749 c 0,-0.0032 2.2e-5,-0.0062 0,-0.0093 -0.005,-0.737973 -0.598822,-1.330598 -1.3305983,-1.330598 z" fill="#000000" fill-opacity="1" stroke="none"></path><path style="" d="m 9.0363727,52.765558 c -0.340771,0 -0.614121,0.273349 -0.614121,0.614121 0.01135,1.803674 -0.02018,3.63771 0.0093,5.424746 0.01497,0.729218 0.605089,1.311988 1.330598,1.311988 0.7349103,0 1.3305973,-0.597562 1.3305973,-1.339903 -0.01876,-1.777814 -0.0093,-3.602402 -0.0093,-5.396831 0,-0.340772 -0.273352,-0.614121 -0.614122,-0.614121 z" fill="#000000" fill-opacity="1" stroke="none"></path><path style="" d="m 5.1369437,39.04405 5.5360063,0 c 0.454365,0 0.820146,0.365787 0.820146,0.82015 l 0,12.712322 c 0,0.454363 -0.365781,0.820149 -0.820146,0.820149 l -5.5360063,0 c -0.454362,0 -0.820147,-0.365786 -0.820147,-0.820149 l 0,-12.712322 c 0,-0.454363 0.365785,-0.82015 0.820147,-0.82015 z" fill="#000000" fill-opacity="1" stroke="none"></path><path d="m 6.0681167,57.771584 c -0.731778,0 -1.325548,0.592625 -1.330598,1.330598 -2.4e-5,0.0032 0,0.0062 0,0.0093 l 0,7.79749 c 0,0.34079 0.273333,0.614122 0.614122,0.614122 l 1.432952,0 c 0.340787,0 0.614121,-0.273332 0.614121,-0.614122 l 0,-7.79749 c 0,-0.0032 2.3e-5,-0.0062 0,-0.0093 -0.005,-0.737973 -0.598821,-1.330598 -1.330597,-1.330598 z" style="" fill="#000000" fill-opacity="1" stroke="none"></path><path d="m 5.3516407,52.765558 c -0.340771,0 -0.614122,0.273349 -0.614122,0.614121 0.01135,1.803674 -0.02018,3.63771 0.0093,5.424746 0.01497,0.729218 0.605088,1.311988 1.330596,1.311988 0.734911,0 1.330599,-0.597562 1.330599,-1.339903 -0.01876,-1.777811 -0.0093,-3.602402 -0.0093,-5.396831 0,-0.340772 -0.273352,-0.614121 -0.614121,-0.614121 z" style="" fill="#000000" fill-opacity="1" stroke="none"></path><path d="m 2.6954689,39.244904 c -0.340767,-0.0021 -0.625015,0.269698 -0.62701,0.610466 l -0.02863,4.894283 -2.16e-4,0.03723 c 0.01689,0.550228 0.462724,0.989042 1.017745,0.99229 0.554724,0.0032 1.005508,-0.430742 1.0292898,-0.980314 3.73e-4,-0.01297 0.0094,-0.02406 0.0095,-0.03716 l 0.02863,-4.894283 c 0.0018,-0.340765 -0.2697528,-0.615711 -0.6105198,-0.617704 l -0.818815,-0.0048 z" style="" fill="#000000" fill-opacity="1" stroke="none"></path><path d="m 3.0862479,44.065063 c -0.567832,1.94e-4 -1.032686,0.456058 -1.032492,1.023891 l 0.0015,4.819928 c 1.2e-4,0.340772 0.282866,0.614026 0.62364,0.613909 l 0.818829,-2.8e-4 c 0.340771,-1.16e-4 0.6140288,-0.273561 0.6139088,-0.614333 l -0.0015,-4.819928 C 4.1099447,44.520418 3.6540789,44.064869 3.0862479,44.065063 z" style="" fill="#000000" fill-opacity="1" stroke="none"></path><path style="" d="m 11.493104,49.500956 1.505799,7.143342 -10.0468311,0 1.3647248,-7.143342 z" fill="#000000" stroke="none"></path><path style="" d="m 9.9026682,40.046064 c -0.2186179,0.261406 -0.1900624,0.653652 0.071418,0.872186 l 3.7554218,3.138731 0.02857,0.02388 c 0.435006,0.337352 1.057245,0.27304 1.413185,-0.152831 0.355711,-0.425671 0.308187,-1.049574 -0.100406,-1.417877 -0.0098,-0.0086 -0.01259,-0.02257 -0.0226,-0.03099 l -3.755421,-3.138731 c -0.261531,-0.218462 -0.64651,-0.184094 -0.865046,0.07738 l -0.525118,0.628277 z" fill="#000000" fill-opacity="1" stroke="none"></path><path style="" d="m 13.961944,43.914905 c 0.471089,0.317033 1.111301,0.198593 1.428335,-0.272495 l 2.691191,-3.998649 c 0.190261,-0.282714 0.108377,-0.667305 -0.174331,-0.857563 l -0.679322,-0.457171 c -0.282714,-0.190261 -0.662108,-0.116104 -0.852369,0.166614 l -2.691192,3.998649 c -0.317034,0.471087 -0.193399,1.103582 0.277689,1.420615 z" fill="#000000" fill-opacity="1" stroke="none"></path></svg>