<?xml version="1.0" encoding="utf-8"?><!DOCTYPE svg PUBLIC "-//W3C//DTD SVG 1.1//EN" "http://www.w3.org/Graphics/SVG/1.1/DTD/svg11.dtd"><svg version="1.1" xmlns:sodipodi="http://sodipodi.sourceforge.net/DTD/sodipodi-0.dtd" xmlns:svg="http://www.w3.org/2000/svg" xmlns:dc="http://purl.org/dc/elements/1.1/" xmlns:inkscape="http://www.inkscape.org/namespaces/inkscape" xmlns:cc="http://creativecommons.org/ns#" xmlns:rdf="http://www.w3.org/1999/02/22-rdf-syntax-ns#" xmlns="http://www.w3.org/2000/svg" xmlns:xlink="http://www.w3.org/1999/xlink" x="0px" y="0px" viewBox="0 8.223 100 83.555" enable-background="new 0 8.223 100 83.555" xml:space="preserve"><path d="M7.812,8.223C3.542,8.223,0,11.766,0,16.035v47.188
	c0,4.27,3.542,7.812,7.812,7.812h11.172l0.234,13.047l0.156,7.695l5.547-5.352l16.016-15.391h51.25c4.271,0,7.812-3.543,7.812-7.812
	V16.035c0-4.27-3.542-7.812-7.812-7.812H7.812z M7.812,14.941h84.375c0.657,0,1.094,0.436,1.094,1.094v47.188
	c0,0.657-0.437,1.094-1.094,1.094H39.57h-1.328l-0.977,0.938L25.82,76.27l-0.195-8.672l-0.039-3.281h-3.32H7.812
	c-0.658,0-1.094-0.437-1.094-1.094V16.035C6.719,15.377,7.155,14.941,7.812,14.941z"></path><path d="M51.146,20.402c-3.758,0-7.086,0.75-10,2.292
	c-2.92,1.528-5.2,3.821-6.875,6.875c-1.683,3.068-2.537,6.389-2.535,9.931c0,3.231,0.748,6.215,2.222,8.958
	c1.482,2.742,3.732,4.807,6.771,6.216c3.024,1.408,6.625,2.117,10.798,2.117c4.291,0,7.943-0.841,10.938-2.5
	c2.61-1.468,4.54-3.442,5.799-6.006h-4.027c-1.326,1.689-3.072,2.905-5.243,3.75c-2.179,0.846-4.768,1.285-7.778,1.285
	c-3.127,0-5.937-0.499-8.368-1.493c-2.424-1.009-4.304-2.598-5.66-4.792c-1.334-2.18-2.014-4.604-2.014-7.257
	c0-2.743,0.604-5.397,1.805-7.917c1.224-2.535,3.011-4.489,5.382-5.868c2.379-1.408,5.291-2.118,8.715-2.118
	c4.024,0,7.157,1.049,9.41,3.125c2.246,2.105,3.368,4.714,3.368,7.812c0,1.734-0.415,3.384-1.216,5c-0.792,1.6-1.8,2.906-3.09,3.854
	c-0.955,0.742-1.747,1.111-2.361,1.111c-0.199,0-0.38-0.08-0.521-0.243c-0.147-0.163-0.209-0.368-0.209-0.695
	c0-0.251,0.065-0.807,0.243-1.667l2.882-13.576h-5l-0.485,2.083c-1.068-1.72-2.72-2.569-4.966-2.569c-3.157,0-5.754,1.5-7.778,4.479
	c-1.667,2.445-2.5,5.146-2.5,8.125c0,2.386,0.705,4.311,2.083,5.764c1.378,1.438,3.11,2.153,5.208,2.153
	c1.941,0,3.657-0.715,5.139-2.153c0.171,0.711,0.55,1.261,1.076,1.632c0.533,0.371,1.316,0.521,2.361,0.521
	c3.891,0,7.057-1.62,9.548-4.896c1.979-2.609,2.986-5.534,2.986-8.75c0-2.699-0.646-5.183-1.944-7.465
	c-1.311-2.284-3.219-4.033-5.694-5.278C57.142,21.013,54.318,20.402,51.146,20.402z M49.549,31.514c1.007,0,1.84,0.41,2.5,1.181
	c0.667,0.756,1.007,1.84,1.007,3.264c0,1.275-0.246,2.665-0.729,4.132c-0.481,1.482-1.068,2.597-1.736,3.368
	c-0.466,0.534-0.941,0.928-1.423,1.181c-0.631,0.355-1.295,0.521-2.014,0.521c-0.963,0-1.771-0.355-2.431-1.111
	c-0.645-0.756-0.972-1.94-0.972-3.542c0-1.201,0.228-2.576,0.694-4.132c0.467-1.557,1.163-2.732,2.083-3.577
	C47.453,31.953,48.466,31.514,49.549,31.514z"></path></svg>