<?xml version="1.0" encoding="utf-8"?><!DOCTYPE svg PUBLIC "-//W3C//DTD SVG 1.1//EN" "http://www.w3.org/Graphics/SVG/1.1/DTD/svg11.dtd"><svg version="1.1" xmlns:sodipodi="http://sodipodi.sourceforge.net/DTD/sodipodi-0.dtd" xmlns:svg="http://www.w3.org/2000/svg" xmlns:dc="http://purl.org/dc/elements/1.1/" xmlns:inkscape="http://www.inkscape.org/namespaces/inkscape" xmlns:cc="http://creativecommons.org/ns#" xmlns:rdf="http://www.w3.org/1999/02/22-rdf-syntax-ns#" xmlns="http://www.w3.org/2000/svg" xmlns:xlink="http://www.w3.org/1999/xlink" x="0px" y="0px" viewBox="0 21.875 100 56.25" enable-background="new 0 21.875 100 56.25" xml:space="preserve"><path d="M51.312,21.875c-13.089,0-23.688,10.597-23.687,23.688
	c0,0.295,0.083,0.579,0.093,0.875c-0.296-0.02-0.576-0.093-0.875-0.093c-7.045,0-12.781,5.705-12.781,12.75
	c0,0.086,0.028,0.194,0.031,0.281c-1.004-0.302-2.053-0.531-3.156-0.531C4.897,58.844,0,63.744,0,69.781
	c0,6.043,4.897,8.344,10.938,8.344h34.375h18.75H81.25c10.353,0,18.75-8.39,18.75-18.75c0-10.36-8.396-18.75-18.75-18.75
	c-2.338,0-4.53,0.47-6.594,1.25C72.875,30.553,63.137,21.875,51.312,21.875L51.312,21.875z M57.157,32.656l-5,15.875h10.781
	L42.906,71.406l4.312-16.781H37.062L57.157,32.656L57.157,32.656z"></path></svg>