<?xml version="1.0" encoding="utf-8"?><!DOCTYPE svg PUBLIC "-//W3C//DTD SVG 1.1//EN" "http://www.w3.org/Graphics/SVG/1.1/DTD/svg11.dtd"><svg version="1.1" xmlns="http://www.w3.org/2000/svg" xmlns:xlink="http://www.w3.org/1999/xlink" x="0px" y="0px" viewBox="0 0 100 70.051" enable-background="new 0 0 100 70.051" xml:space="preserve"><path fill="#010101" d="M68.214,13.972l-0.63,0.394c-0.128-0.24-0.257-0.48-0.416-0.712c-1.254-1.81-3.162-2.792-4.818-2.646
	c0.018-1.29-0.471-2.721-1.482-3.937c-1.475-1.773-3.579-2.563-5.256-2.147c0.074-0.266,0.115-0.541,0.117-0.824h-0.001
	c0.016-2.24-2.387-4.089-5.334-4.101h-0.036c-2.932,0.006-5.32,1.801-5.335,4.029c-0.001,0.123,0.032,0.237,0.045,0.357
	c-1.475,0.092-3.071,0.969-4.196,2.48l-0.022,0.03c-0.975,1.325-1.373,2.84-1.238,4.158c-1.464,0.034-3.079,0.831-4.267,2.267
	l-0.023,0.028c-0.202,0.248-0.376,0.507-0.537,0.77l-0.839-0.576L0,63.004l8.097,5.556l33.945-49.461l-0.607-0.417
	c0.056-0.062,0.118-0.113,0.172-0.178c1.107-1.339,1.592-2.926,1.464-4.302c1.509-0.048,3.162-0.923,4.32-2.479
	c0.901-1.21,1.329-2.587,1.298-3.825c0.528,0.136,1.083,0.229,1.669,0.231c1.051,0.004,2.027-0.23,2.857-0.625
	c-0.3,1.474,0.165,3.278,1.398,4.761l0.023,0.028c1.314,1.562,3.12,2.343,4.678,2.206c-0.052,1.215,0.331,2.572,1.167,3.779
	l0.021,0.03c0.081,0.115,0.176,0.21,0.261,0.318l-0.878,0.548l31.787,50.875L100,64.848L68.214,13.972z M36.287,15.149
	c0.13-0.26,0.281-0.517,0.478-0.757l0.023-0.028c1.087-1.314,2.76-1.69,3.757-0.86s0.927,2.543-0.161,3.858
	c-0.109,0.132-0.228,0.248-0.348,0.361L36.287,15.149z M46.112,10.645c-1.019,1.369-2.692,1.858-3.73,1.081
	c-1.032-0.773-1.042-2.494-0.036-3.861l0.021-0.029c1.019-1.369,2.67-1.83,3.708-1.052S47.131,9.276,46.112,10.645z M50.466,6.46
	c-1.707-0.007-3.094-1.062-3.085-2.359c0.01-1.29,1.388-2.319,3.085-2.323h0.036c1.707,0.007,3.057,1.062,3.048,2.359
	S52.173,6.467,50.466,6.46z M55.93,11.068l-0.023-0.028c-1.091-1.313-1.149-3.026-0.149-3.852c0.999-0.826,2.67-0.44,3.761,0.872
	s1.173,3.054,0.174,3.88C58.696,12.762,57.022,12.367,55.93,11.068z M61.898,17.202l-0.021-0.03c-0.971-1.403-0.88-3.115,0.188-3.85
	c1.069-0.735,2.699-0.204,3.671,1.199c0.168,0.242,0.293,0.495,0.399,0.751l-3.85,2.404C62.149,17.531,62.019,17.373,61.898,17.202z
	"></path></svg>