<svg xmlns:dc="http://purl.org/dc/elements/1.1/" xmlns:cc="http://creativecommons.org/ns#" xmlns:rdf="http://www.w3.org/1999/02/22-rdf-syntax-ns#" xmlns:svg="http://www.w3.org/2000/svg" xmlns="http://www.w3.org/2000/svg" xmlns:sodipodi="http://sodipodi.sourceforge.net/DTD/sodipodi-0.dtd" xmlns:inkscape="http://www.inkscape.org/namespaces/inkscape" viewBox="0 0 80 80" version="1.1" x="0px" y="0px"><path style="" d="M 33.546952,48.93917 C 33.104348,49.52931 22.481826,47.906425 20.85894,58.676481 18.679004,64.187836 30.249902,84.672629 44.907149,76.675753 51.651072,72.996322 59.810855,58.443848 52.136365,49.52931 49.384268,46.044297 46.010676,43.208617 40.038493,44.218049 36.940258,44.365585 33.546952,48.93917 33.546952,48.93917 z" fill="#000000" stroke="none"></path><path style="" d="m 47.120174,22.235331 c 0.547919,-7.011314 3.108414,-10.340925 7.524286,-11.212661 12.752675,-0.467299 17.114063,10.917591 17.409132,11.655267 2.9444,6.793283 1.778744,9.969324 0.295071,13.720756 -11.525111,17.76432 -31.212062,6.57924 -32.015099,-3.54084 -0.881008,-4.1084 4.484701,-7.107364 6.78661,-10.622522 z" fill="#000000" stroke="none"></path><path style="text-indent:0;text-transform:none;direction:ltr;block-progression:tb;baseline-shift:baseline;color:#000000;enable-background:accumulate;" d="m 14.512133,5.6398294 c -0.616674,0.4765204 -0.864905,1.1697716 -0.975,1.85 -0.110095,0.6802284 -0.09766,1.4190129 0,2.25 0.195327,1.6619746 0.721405,3.6970986 1.475,6.0249996 4.989842,13.476887 9.481728,22.450904 18.65,35.85 0.551623,0.561148 1.07664,0.990501 1.65,1.3 0.57336,0.309499 1.335277,0.529041 2.075,0.2 l -0.975,-2.2 c 0.1901,-0.08456 0.274781,0.02134 0.05,-0.1 -0.224781,-0.121337 -0.62227,-0.439453 -1.075,-0.9 -7.794262,-10.33078 -15.333318,-25.978898 -18.075,-34.875 -0.725842,-2.242169 -1.212058,-4.188585 -1.375,-5.5749996 -0.08147,-0.6932074 -0.07952,-1.2381427 -0.025,-1.575 0.05452,-0.3368573 0.141003,-0.4010026 0.075,-0.35 z" fill="#000000" fill-opacity="1" stroke="none" marker="none" visibility="visible" display="inline" overflow="visible"></path><path style="text-indent:0;text-transform:none;direction:ltr;block-progression:tb;baseline-shift:baseline;color:#000000;enable-background:accumulate;" d="m 16.337133,6.5398294 -2.175,1 c 8.012212,16.7788316 22.091671,17.4524416 36.475,15.9999996 l -0.25,-2.4 c -16.994585,0.951881 -27.003541,0.684613 -34.05,-14.5999996 z" fill="#000000" fill-opacity="1" stroke="none" marker="none" visibility="visible" display="inline" overflow="visible"></path><path style="" d="m 13.739298,10.084514 c 0.61262,0.266356 3.582496,-1.3983727 3.582496,-1.3983727 0,0 -0.998837,-5.5934892 -2.090899,-5.7266675 -1.864496,-0.2130853 -3.276187,0.7768735 -3.915443,1.6558504 -0.266356,2.5570236 2.423846,5.4691898 2.423846,5.4691898 z" fill="#000000" stroke="none"></path></svg>