<?xml version="1.0" encoding="utf-8"?><!DOCTYPE svg PUBLIC "-//W3C//DTD SVG 1.1//EN" "http://www.w3.org/Graphics/SVG/1.1/DTD/svg11.dtd"><svg version="1.1" xmlns="http://www.w3.org/2000/svg" xmlns:xlink="http://www.w3.org/1999/xlink" x="0px" y="0px" viewBox="0 0 100 100" enable-background="new 0 0 100 100" xml:space="preserve"><path fill="#010101" d="M50,0C22.386,0,0,22.386,0,50c0,27.615,22.386,50,50,50c27.615,0,50-22.385,50-50C100,22.386,77.615,0,50,0z
	 M50,94.444C25.454,94.444,5.556,74.547,5.556,50C5.556,25.454,25.454,5.556,50,5.556c24.547,0,44.444,19.898,44.444,44.444
	C94.444,74.547,74.547,94.444,50,94.444z"></path><path fill="#010101" d="M50,25.208c7.13,0,13.429,4.221,17.209,10.667l8.451-0.02C71.154,24.421,61.356,16.493,50,16.493
	C34.376,16.493,21.701,31.5,21.701,50S34.376,83.507,50,83.507c11.156,0,20.81-7.651,25.417-18.763l-8.334-0.408
	C63.29,70.663,57.052,74.792,50,74.792c-11.562,0-20.938-11.101-20.938-24.792S38.438,25.208,50,25.208z"></path></svg>