<svg xmlns:dc="http://purl.org/dc/elements/1.1/" xmlns:cc="http://creativecommons.org/ns#" xmlns:rdf="http://www.w3.org/1999/02/22-rdf-syntax-ns#" xmlns:svg="http://www.w3.org/2000/svg" xmlns="http://www.w3.org/2000/svg" xmlns:sodipodi="http://sodipodi.sourceforge.net/DTD/sodipodi-0.dtd" xmlns:inkscape="http://www.inkscape.org/namespaces/inkscape" viewBox="0 0 80 80" version="1.1" x="0px" y="0px"><path style="" d="m 40,0.745048 c -21.653349,0 -39.2,17.483951 -39.2,39.13738 0.164715,10.070908 3.593008,20.526378 5.761022,30.621086 0.973783,4.533975 3.754043,8.391055 8.391055,8.391055 l 21.040255,0 c 1.318022,0.134256 2.654319,0.187859 4.007668,0.187859 1.353349,0 2.689646,-0.0536 4.007668,-0.187859 l 21.040255,0 c 4.637012,0 7.417272,-3.85708 8.391055,-8.391055 C 75.60699,60.408804 79.035285,49.953336 79.2,39.882428 79.2,18.228999 61.653349,0.745048 40,0.745048 z M 38.684984,36 c 0.444617,-0.01404 0.873557,0.0048 1.315016,0 0.441459,0.0048 0.870399,-0.01403 1.315016,0 10.277303,0.324453 24.518352,2.983206 34.691374,9.267732 -1.087463,4.711476 -4.070288,18.785942 -4.070288,18.785942 L 40,63.991054 8.063898,64.053674 c 0,0 -2.982825,-14.074466 -4.070288,-18.785942 C 14.166632,38.983206 28.407681,36.324453 38.684984,36 z" fill="#000000" fill-opacity="1" stroke="none"></path></svg>