<?xml version="1.0" encoding="utf-8"?><!DOCTYPE svg PUBLIC "-//W3C//DTD SVG 1.1//EN" "http://www.w3.org/Graphics/SVG/1.1/DTD/svg11.dtd"><svg version="1.1" xmlns:rdf="http://www.w3.org/1999/02/22-rdf-syntax-ns#" xmlns:cc="http://creativecommons.org/ns#" xmlns:sodipodi="http://sodipodi.sourceforge.net/DTD/sodipodi-0.dtd" xmlns:dc="http://purl.org/dc/elements/1.1/" xmlns:inkscape="http://www.inkscape.org/namespaces/inkscape" xmlns:svg="http://www.w3.org/2000/svg" xmlns="http://www.w3.org/2000/svg" xmlns:xlink="http://www.w3.org/1999/xlink" x="0px" y="0px" viewBox="-2.978 15.046 100 72.043" enable-background="new -2.978 15.046 100 72.043" xml:space="preserve"><path fill="none" d="M44.835,51.957l0.264-0.071c6.257-1.754,10.527-5.82,9.634-9.156c-0.681-2.541-4.167-3.956-8.559-3.777
	c-1.464,0.06-3.021,0.314-4.614,0.741c-6.374,1.708-10.805,5.815-9.897,9.204C32.57,52.284,38.461,53.665,44.835,51.957z"></path><path d="M-2.978,33.956l67.583,39.015l32.417-18.719L29.104,15.046L-2.978,33.956z M41.56,39.693
	c1.594-0.427,3.15-0.682,4.614-0.741c4.392-0.179,7.878,1.236,8.559,3.777c0.894,3.336-3.377,7.402-9.634,9.156l-0.264,0.071
	c-6.374,1.708-12.265,0.327-13.172-3.06C30.755,45.509,35.186,41.401,41.56,39.693z"></path><polygon points="97.022,59.19 94.368,57.66 64.605,74.849 -0.348,37.34 -2.978,38.894 64.605,77.909 "></polygon><polygon points="64.605,82.499 97.022,63.78 94.368,62.25 64.605,79.438 -0.348,41.93 -2.978,43.483 "></polygon><polygon points="64.605,87.089 97.022,68.37 94.368,66.841 64.605,84.028 -0.348,46.521 -2.978,48.073 "></polygon></svg>