<svg xmlns:dc="http://purl.org/dc/elements/1.1/" xmlns:cc="http://creativecommons.org/ns#" xmlns:rdf="http://www.w3.org/1999/02/22-rdf-syntax-ns#" xmlns:svg="http://www.w3.org/2000/svg" xmlns="http://www.w3.org/2000/svg" xmlns:sodipodi="http://sodipodi.sourceforge.net/DTD/sodipodi-0.dtd" xmlns:inkscape="http://www.inkscape.org/namespaces/inkscape" viewBox="0 0 80 80" version="1.1" x="0px" y="0px"><path style="color:#000000;enable-background:accumulate;" d="M 58.575925,22.433953 48.284502,27.910512 14.339393,26.014139 1.9301049,32.780083 0.80750429,38.211043 17.100384,43.642002 c 0,0 36.612848,2.760991 37.167183,2.760991 l 2.366563,-0.667492 0,-19.417957 22.33065,0 0,-3.883591 z m -0.970898,4.854489 0,19.417956 0.970898,0 c 4.459663,-5.263174 15.477303,-3.384691 16.505264,6.796285 l 2.912693,0 0,-1.122601 -0.879876,0 c -0.264556,0 -0.485449,-0.190552 -0.485449,-0.455107 l 0,-6.219815 c 0,-0.264556 0.220893,-0.485448 0.485449,-0.485448 l 0.879876,0 0,-8.222291 -5.825387,-8.738081 0.485449,0 c 0.268938,0 0.485448,-0.21651 0.485448,-0.485449 0,-0.268938 -0.21651,-0.485449 -0.485448,-0.485449 z m 2.912695,2.912694 7.767182,0 0,6.796285 -7.767182,0 z m 9.708977,0 1.152942,0 4.672446,6.796285 -5.825388,0 z M 14.309053,43.156554 c 0,0 -0.127425,2.300633 -1.152942,2.245201 l -0.637151,0.03034 c -0.173369,0.0074 -0.303405,0.160221 -0.303405,0.333747 l 0,3.489164 c 0,0.173525 0.129879,0.333746 0.303405,0.333746 l 1.122601,0 c 0.173525,0 0.303405,-0.160221 0.303405,-0.333746 0.791892,-1.731119 2.532038,-3.665129 5.218576,-4.399381 l -0.03034,-0.54613 -2.15418,-0.121363 z m 0.728173,0.788854 c 0.344418,0 0.637152,0.262392 0.637152,0.606811 0,0.344418 -0.292734,0.637152 -0.637152,0.637152 -0.344418,0 -0.60681,-0.292734 -0.60681,-0.637152 0,-0.344419 0.262392,-0.606811 0.60681,-0.606811 z m 7.221053,0.910217 c -4.929012,0 -8.920123,3.991111 -8.920123,8.920124 0,4.929012 3.991111,8.920123 8.920123,8.920123 4.929013,0 8.920124,-3.991111 8.920124,-8.920123 0,-4.929013 -3.991111,-8.920124 -8.920124,-8.920124 z m 43.022909,0 c -4.929011,0 -8.920123,3.99111 -8.920123,8.920124 0,4.929012 3.991111,8.920123 8.920123,8.920123 4.929013,0 8.920125,-3.99111 8.920125,-8.920123 0,-4.929013 -3.991112,-8.920124 -8.920125,-8.920124 z m 11.923839,0.515789 c -0.216906,0 -0.394427,0.17752 -0.394427,0.394428 l 0,6.037771 c 0,0.216906 0.177521,0.394426 0.394427,0.394426 l 1.60805,0 c 0.216907,0 0.394427,-0.17752 0.394427,-0.394426 l 0,-6.037771 c 0,-0.216908 -0.17752,-0.394428 -0.394427,-0.394428 z m -37.925695,2.245201 c -1.038002,0 -1.881115,0.843114 -1.881115,1.881115 l 0,4.91517 c 0,1.037999 0.843113,1.850774 1.881115,1.850774 l 9.678637,0 c 1.038001,0 1.850774,-0.812775 1.850774,-1.850774 l 0,-4.91517 c 0,-1.038001 -0.812773,-1.881115 -1.850774,-1.881115 z m 9.071826,0.940557 c 0.627607,0 1.122601,0.525335 1.122601,1.152942 0,0.627607 -0.494994,1.122601 -1.122601,1.122601 -0.627607,0 -1.122601,-0.494994 -1.122601,-1.122601 0,-0.627607 0.494994,-1.152942 1.122601,-1.152942 z m -26.092879,1.243964 c 2.201357,0 4.004953,1.773257 4.004953,3.974613 0,2.201355 -1.803595,4.004953 -4.004953,4.004953 -2.201356,0 -3.974614,-1.803598 -3.974614,-4.004953 0,-2.201356 1.773258,-3.974613 3.974614,-3.974613 z m 43.022909,0 c 2.201359,0 4.004955,1.773257 4.004955,3.974613 0,2.201355 -1.803596,4.004953 -4.004955,4.004953 -2.201356,0 -3.974612,-1.803598 -3.974612,-4.004953 0,-2.201356 1.773256,-3.974613 3.974612,-3.974613 z" fill="#000000" stroke="none" marker="none" visibility="visible" display="inline" overflow="visible"></path></svg>