<?xml version="1.0" encoding="utf-8"?><!DOCTYPE svg PUBLIC "-//W3C//DTD SVG 1.1//EN" "http://www.w3.org/Graphics/SVG/1.1/DTD/svg11.dtd"><svg version="1.1" xmlns="http://www.w3.org/2000/svg" xmlns:xlink="http://www.w3.org/1999/xlink" x="0px" y="0px" viewBox="-0.001 12.746 100 74.509" enable-background="new -0.001 12.746 100 74.509" xml:space="preserve"><path d="M94.117,12.746H5.882c-3.92,0-5.883,1.962-5.883,5.883v68.626h5.883V18.628h19.055l-7.18,41.316
	c-3.275-0.305-6.387,1.791-7.259,5.075c-0.972,3.664,1.211,7.421,4.874,8.392c3.663,0.972,7.421-1.21,8.392-4.873
	c0.872-3.283-0.794-6.646-3.789-8.006L35.11,18.628h4.101l3.758,42.951c-3.244,0.547-5.716,3.369-5.716,6.769
	c0,3.787,3.073,6.862,6.864,6.862c3.789,0,6.862-3.075,6.862-6.862c0-3.399-2.471-6.222-5.715-6.768l3.758-42.952h3.905
	l3.768,43.045c-3.243,0.546-5.716,3.369-5.716,6.767c0,3.789,3.075,6.862,6.862,6.862c3.789,0,6.863-3.073,6.863-6.862
	c0-3.397-2.472-6.221-5.716-6.767l3.766-43.045h3.89l3.775,43.138c-3.242,0.548-5.715,3.369-5.715,6.767
	c0,3.79,3.073,6.862,6.862,6.862s6.862-3.072,6.862-6.862c0-3.397-2.473-6.219-5.716-6.767l3.775-43.138c4.615,0,6.28,0,6.285,0
	c3.009,0,6.734,0,11.343,0v68.626h5.882V18.628C99.999,14.706,98.038,12.746,94.117,12.746z M21.272,51.17l5.655-32.542h6.098
	L21.272,51.17z M44.118,52.196L41.18,18.628h5.874L44.118,52.196z M57.842,52.29l-2.945-33.662h5.891L57.842,52.29z M71.567,52.385
	l-2.953-33.756h3.155c-0.019,0,1.16,0,2.751,0L71.567,52.385z"></path></svg>