<?xml version="1.0" encoding="utf-8"?><!DOCTYPE svg PUBLIC "-//W3C//DTD SVG 1.1//EN" "http://www.w3.org/Graphics/SVG/1.1/DTD/svg11.dtd"><svg version="1.1" xmlns="http://www.w3.org/2000/svg" xmlns:xlink="http://www.w3.org/1999/xlink" x="0px" y="0px" viewBox="0.213 0.612 99.999 100" enable-background="new 0.213 0.612 99.999 100" xml:space="preserve"><path d="M21.91,50.611c0-5.982-4.868-10.849-10.849-10.849c-5.983,0-10.848,4.866-10.848,10.849c0,5.981,4.865,10.85,10.848,10.85
	C17.042,61.461,21.91,56.593,21.91,50.611z M11.061,59.217c-4.744,0-8.605-3.859-8.605-8.605c0-4.745,3.861-8.604,8.605-8.604
	c4.745,0,8.604,3.859,8.604,8.604C19.666,55.357,15.806,59.217,11.061,59.217z"></path><path d="M89.362,39.763c-5.982,0-10.85,4.866-10.85,10.849c0,5.981,4.867,10.85,10.85,10.85c5.981,0,10.85-4.868,10.85-10.85
	C100.212,44.629,95.344,39.763,89.362,39.763z"></path><path d="M77.896,67.447c-5.981,0-10.851,4.866-10.851,10.847c0,5.983,4.869,10.851,10.851,10.851c5.98,0,10.85-4.867,10.85-10.851
	C88.746,72.313,83.877,67.447,77.896,67.447z M77.896,86.899c-0.306,0-0.605-0.018-0.903-0.048c3.042-1.646,5.113-4.854,5.113-8.558
	c0-3.699-2.071-6.91-5.111-8.555c0.296-0.032,0.596-0.049,0.901-0.049c4.745,0,8.604,3.861,8.604,8.604
	C86.5,83.042,82.642,86.899,77.896,86.899z"></path><path d="M77.896,33.777c5.98,0,10.85-4.867,10.85-10.848c0-5.984-4.869-10.849-10.85-10.849c-5.984,0-10.851,4.865-10.851,10.849
	C67.046,28.91,71.912,33.777,77.896,33.777z M77.896,14.324c0.304,0,0.604,0.015,0.902,0.048c-3.039,1.644-5.113,4.855-5.113,8.557
	c0,3.7,2.069,6.912,5.111,8.556c-0.296,0.031-0.596,0.048-0.9,0.048c-4.746,0-8.605-3.857-8.605-8.604S73.15,14.324,77.896,14.324z"></path><path d="M22.528,12.08c-5.981,0-10.85,4.866-10.85,10.848c0,5.981,4.868,10.849,10.85,10.849c5.981,0,10.849-4.868,10.849-10.849
	C33.377,16.946,28.509,12.08,22.528,12.08z M21.916,31.501c-4.46-0.317-7.993-4.037-7.993-8.574c0-4.538,3.532-8.256,7.991-8.574
	c3.054,1.641,5.132,4.863,5.132,8.574C27.046,26.637,24.965,29.862,21.916,31.501z"></path><path d="M22.528,67.447c-5.983,0-10.85,4.865-10.85,10.847c0,5.983,4.867,10.851,10.85,10.851c5.981,0,10.849-4.867,10.849-10.851
	C33.377,72.312,28.509,67.447,22.528,67.447z M23.142,86.87c-3.054-1.641-5.132-4.864-5.132-8.576c0-3.707,2.078-6.931,5.132-8.571
	c4.459,0.316,7.991,4.036,7.991,8.571C31.133,82.832,27.602,86.549,23.142,86.87z"></path><path d="M50.213,78.913c-5.983,0-10.85,4.868-10.85,10.849c0,5.982,4.867,10.85,10.85,10.85c5.981,0,10.848-4.867,10.848-10.85
	C61.061,83.781,56.194,78.913,50.213,78.913z M50.213,98.367v-17.21c4.745,0,8.604,3.86,8.604,8.604
	C58.817,94.509,54.958,98.367,50.213,98.367z"></path><path d="M50.213,0.612c-5.984,0-10.85,4.867-10.85,10.85c0,5.981,4.865,10.848,10.85,10.848c5.981,0,10.848-4.867,10.848-10.848
	C61.061,5.479,56.194,0.612,50.213,0.612z M50.213,20.065c-4.746,0-8.605-3.858-8.605-8.604s3.859-8.605,8.605-8.605V20.065z"></path></svg>