<svg xmlns:dc="http://purl.org/dc/elements/1.1/" xmlns:cc="http://creativecommons.org/ns#" xmlns:rdf="http://www.w3.org/1999/02/22-rdf-syntax-ns#" xmlns:svg="http://www.w3.org/2000/svg" xmlns="http://www.w3.org/2000/svg" xmlns:sodipodi="http://sodipodi.sourceforge.net/DTD/sodipodi-0.dtd" xmlns:inkscape="http://www.inkscape.org/namespaces/inkscape" viewBox="0 0 80 80" version="1.1" x="0px" y="0px"><path style="color:#000000;enable-background:accumulate;" d="m 39.091799,8.0388005 c -5.988852,0 -11.450616,0.6197528 -15.4,1.6 -1.974691,0.4901235 -3.5541,1.0780345 -4.7,1.7499995 -1.1459,0.671966 -1.9,1.444465 -1.9,2.4 0,0.803084 0.511416,1.509564 1.35,2.1 0.838585,0.590437 2.019894,1.141178 3.475,1.6 2.790624,0.879936 6.688824,1.481097 11.1,1.8 -1.240706,4.60386 -2.723333,6.713804 -5.9,11.925 -0.03458,0.05673 -0.06502,0.06749 -0.1,0.125 l 0.575,0.525 c 0.05697,-0.04069 0.04393,-0.08457 0.1,-0.125 3.280616,-2.365627 5.09492,-4.296926 6.45,-6.2 1.344392,-1.888063 2.314332,-3.737556 4.025,-6 0.298179,0.0013 0.62752,0 0.925,0 5.988573,0 11.369562,-0.601141 15.325,-1.575 1.97772,-0.486928 3.601696,-1.055528 4.75,-1.725 1.148304,-0.669471 1.925,-1.493899 1.925,-2.45 0,-0.9561 -0.776808,-1.728132 -1.925,-2.4 -1.148192,-0.671867 -2.772232,-1.259896 -4.75,-1.7499995 -3.955535,-0.9802048 -9.336148,-1.6 -15.325,-1.6 z m 0,0.825 c 5.935172,0 11.286541,0.617612 15.15,1.5749995 1.931731,0.478695 3.486321,1.042216 4.525,1.65 1.03868,0.607785 1.5,1.181288 1.5,1.7 0,0.518713 -0.461432,1.144507 -1.5,1.75 -1.038567,0.605494 -2.593222,1.199382 -4.525,1.675 -3.863556,0.951236 -9.214549,1.525 -15.15,1.525 -0.375869,0 -0.788645,0.0045 -1.15,0 l -0.175,0 -0.125,0.15 c -1.835516,2.395944 -2.812774,4.322 -4.15,6.2 -1.02912,1.445297 -2.537121,2.952616 -4.575,4.625 2.3918,-3.861879 3.922452,-6.337413 5.025,-10.675 l 0.15,-0.45 -0.5,-0.05 c -4.604684,-0.299657 -8.611684,-0.937909 -11.425,-1.825 -1.406656,-0.443544 -2.520756,-0.961548 -3.25,-1.475 -0.729244,-0.513452 -1.025,-1.013723 -1.025,-1.45 0,-0.519277 0.463717,-1.092314 1.5,-1.7 1.036284,-0.607685 2.571444,-1.171327 4.5,-1.65 3.857112,-0.9573451 9.264829,-1.5749995 15.2,-1.5749995 z m 37.975,7.8999995 -0.175,0.05 -2.125,0.425 -0.2,0.05 0.025,0.175 0,0.025 0,0.025 c 0.166175,1.577221 0.436,2.993704 0.7,4.525 -0.183999,-0.134386 -0.411232,-0.225 -0.65,-0.225 -0.636713,0 -1.15,0.561662 -1.15,1.25 0,0.688339 0.513287,1.25 1.15,1.25 0.636714,0 1.175,-0.561661 1.175,-1.25 0,-0.02556 0.0014,-0.04982 0,-0.075 l -0.075,-0.475 -0.425,-3.275 2.05,-0.65 0.175,-0.075 -0.05,-0.2 -0.35,-1.35 -0.075,-0.2 z m -66.4,4.775 c -5.7356778,0 -10.39999969,4.639322 -10.39999969,10.375 0,5.735679 4.66432189,10.4 10.39999969,10.4 4.233229,0 7.857616,-2.542158 9.475,-6.175 l -4.85,-1.125 5.55,-1.025 c 0.13514,-0.668553 0.2,-1.3666 0.2,-2.075 0,-5.735678 -4.639321,-10.375 -10.375,-10.375 z m 39.8,0.25 c -5.718646,0 -10.34756,4.612877 -10.375,10.325 -0.0081,-2.28e-4 -0.01696,-1.78e-4 -0.025,0 -0.05428,0 -0.0994,0.02887 -0.15,0.05 -0.128867,0.05408 -4.235604,2.558448 -4.375,2.55 -0.139471,-0.0084 -0.289447,-0.336976 -0.425,-0.375 -0.441872,-0.126749 -0.552546,-0.05448 -0.7,0.3 -0.05536,0.132664 -0.09718,0.797256 -0.225,0.875 -3.2961,1.993346 -7.608255,4.521442 -10.55,6.5 -1.468692,0.990336 -3.075,1.932051 -3.075,3.625 0.179989,5.131782 11.422081,5.294438 15.6,6.025 l 0,19.5 10.05,0 3.625,-23.65 1.3,0 1.8,23.65 10.875,0 0,-19.45 c 0.09055,0.0032 0.189043,0.0027 0.325,-0.025 5.248456,-0.631655 16.688496,-1.779207 15.725,-6.05 0,-1.692949 -1.606306,-2.634664 -3.075,-3.625 -2.941744,-1.978558 -7.2539,-4.506654 -10.55,-6.5 -0.127821,-0.07774 -0.16964,-0.742336 -0.225,-0.875 -0.147453,-0.354472 -0.258128,-0.426749 -0.7,-0.3 -0.135552,0.03802 -0.285528,0.366552 -0.425,0.375 -0.1289,0.0078 -3.396787,-1.984806 -4.025,-2.35 0.0013,-0.06781 0,-0.131872 0,-0.2 0,-5.735678 -4.664321,-10.375 -10.4,-10.375 z m 21.5,2.025 -0.2,0.05 -2.1,0.425 -0.2,0.05 0.025,0.2 0.3,1.875 0.05,0.275 0.375,2.475 c -0.18927,-0.147168 -0.42406,-0.25 -0.675,-0.25 -0.636713,0 -1.15,0.561662 -1.15,1.25 0,0.688339 0.513287,1.25 1.15,1.25 0.636714,0 1.15,-0.561661 1.15,-1.25 -0.04094,-0.185038 -0.02366,-0.304324 -0.05,-0.5 l -0.4,-3.125 2.025,-0.9 0.175,-0.1 -0.05,-0.15 -0.375,-1.375 -0.05,-0.2 z m 7.1,0 -0.2,0.05 -2.1,0.425 -0.2,0.05 0.025,0.175 0,0.025 0,0.025 c 0.139585,1.611253 0.424507,3.017724 0.7,4.575 -0.183999,-0.134386 -0.411232,-0.225 -0.65,-0.225 -0.636713,0 -1.15,0.561662 -1.15,1.25 0,0.688339 0.513287,1.25 1.15,1.25 0.636714,0 1.15,-0.561661 1.15,-1.25 -0.02063,-0.108204 -0.05285,-0.211388 -0.075,-0.325 l -0.425,-3.525 2.075,-0.675 0.175,-0.075 -0.05,-0.175 -0.375,-1.375 -0.05,-0.2 z m -32.525,5.375 c 0.77359,0 1.391324,0.586889 1.45,1.35 l 0.425,0 0,0.525 -5.525,-0.075 0,-0.525 2.2,0.025 c 0.0871,-0.730827 0.695687,-1.3 1.45,-1.3 z m 8.075,0 c 0.77359,0 1.391324,0.586889 1.45,1.35 l 0.45,0 -0.025,0.525 -5.525,-0.075 0,-0.525 2.2,0.025 c 0.0871,-0.730827 0.695687,-1.3 1.45,-1.3 z m -7.65,0.125 c -0.239961,0 -0.45,0.194839 -0.45,0.45 0,0.255162 0.210039,0.475 0.45,0.475 0.239962,0 0.425,-0.219838 0.425,-0.475 0,-0.255161 -0.185038,-0.45 -0.425,-0.45 z m 8.075,0 c -0.239961,0 -0.425,0.194839 -0.425,0.45 0,0.255162 0.185039,0.475 0.425,0.475 0.239962,0 0.425,-0.219838 0.425,-0.475 0,-0.255161 -0.185038,-0.45 -0.425,-0.45 z m -14.875,4.05 c 0.598859,5.163527 4.974184,9.175 10.3,9.175 5.223052,0 9.541904,-3.856177 10.275,-8.875 1.198231,0.725411 3.206919,1.889088 3.125,1.95 -0.865401,0.181675 -1.044936,0.582044 -1,1.4 -0.686296,0.02958 -0.968964,0.597228 -0.7,1.1 -0.690568,0.1183 -1.072214,0.887788 -0.75,1.35 -1.16416,0.594455 0.02758,1.681464 1.05,2.3 l 3.675,2.225 c -2.271781,-0.474847 -3.426642,-0.841454 -4.675,-1.125 l -22.95,0 c -1.723784,0.343808 -2.139,0.884323 -4.225,1.125 l 3.675,-2.225 c 1.022424,-0.618536 2.23916,-1.705545 1.075,-2.3 0.322215,-0.462212 -0.08443,-1.2317 -0.775,-1.35 0.268965,-0.502772 0.0113,-1.070424 -0.675,-1.1 0.04494,-0.817956 -0.134598,-1.218325 -1,-1.4 -0.09716,-0.07224 2.651611,-1.663918 3.575,-2.25 z m 10.05,3.3 c 0.739964,0 1.35,0.689577 1.35,1.55 0,0.860424 -0.610036,1.575 -1.35,1.575 -0.739964,0 -1.325,-0.714576 -1.325,-1.575 0,-0.860423 0.585036,-1.55 1.325,-1.55 z m -45.3499997,5.875 c -1.6891571,0 -3.05,1.360844 -3.05,3.05 l 0,24.475 c 0,0.393371 0.090517,0.755363 0.225,1.1 l 17.5999997,0 c 0.134484,-0.344637 0.2,-0.70663 0.2,-1.1 l 0,-24.475 c 0,-1.689156 -1.360842,-3.05 -3.05,-3.05 l -11.9249997,0 z m 42.3249997,1.075 6.75,0 -2.375,3.15 -2.05,0.125 -2.325,-3.275 z" fill="#000000" fill-opacity="1" fill-rule="nonzero" stroke="none" marker="none" visibility="visible" display="inline" overflow="visible"></path></svg>