<?xml version="1.0" encoding="utf-8"?><!DOCTYPE svg PUBLIC "-//W3C//DTD SVG 1.1//EN" "http://www.w3.org/Graphics/SVG/1.1/DTD/svg11.dtd"><svg version="1.1" xmlns="http://www.w3.org/2000/svg" xmlns:xlink="http://www.w3.org/1999/xlink" x="0px" y="0px" viewBox="0 -1 100 100" enable-background="new 0 -1 100 100" xml:space="preserve"><path d="M60.458,59.179l39.127-4.03C99.832,53.128,100,51.085,100,49c0-27.615-22.387-50-50-50C22.386-1,0,21.385,0,49
	c0,27.612,22.386,50,50,50c10.386,0,20.029-3.17,28.023-8.591L60.458,59.179z M73.148,23.15c4.603,0,8.334,3.731,8.334,8.334
	c0,4.6-3.731,8.333-8.334,8.333c-4.602,0-8.333-3.733-8.333-8.333C64.815,26.881,68.547,23.15,73.148,23.15z"></path></svg>