<svg xmlns="http://www.w3.org/2000/svg" xmlns:xlink="http://www.w3.org/1999/xlink" version="1.1" x="0px" y="0px" viewBox="0 0 100 100" enable-background="new 0 0 100 100" xml:space="preserve"><g><g><path fill="#000000" stroke="#E30613" stroke-width="0.5" stroke-miterlimit="10" d="M49.295,2.969"></path></g><g><path fill="#000000" d="M49.295,99.219c-4.419,0-13.34-0.458-15.741-2.182c-0.563-0.224-3.654-1.694-4.38-7.254    c-0.375-4.494-0.027-44.374-0.013-46.069c0-0.038,0.12-4.342,2.047-5.431l0.492,0.871c-1.153,0.65-1.507,3.6-1.54,4.58    c-0.003,0.402-0.361,41.517,0.008,45.942c0.693,5.308,3.662,6.399,3.788,6.443l0.143,0.076c1.927,1.474,10.343,2.022,15.196,2.022    c4.853,0,13.27-0.549,15.196-2.022l0.146-0.077c0.123-0.043,3.092-1.135,3.787-6.465c0.366-4.403,0.009-45.518,0.005-45.932    c-0.033-0.969-0.387-3.918-1.539-4.568l0.492-0.871c1.927,1.089,2.047,5.393,2.047,5.436c0.015,1.69,0.362,41.57-0.011,46.042    c-0.728,5.58-3.819,7.053-4.382,7.276C62.636,98.762,53.714,99.219,49.295,99.219z"></path></g><g><path fill="#000000" d="M49.295,41.969c10.045,0,18.188-1.203,18.188-2.688c0-0.917-3.108-2.108-7.854-2.885    c-1.584,1.947-6.495,3.072-10.334,3.072s-8.75-1.125-10.334-3.072c-4.745,0.776-7.854,1.968-7.854,2.885    C31.107,40.766,39.25,41.969,49.295,41.969z"></path><path fill="#000000" d="M49.295,42.469c-0.763,0-18.688-0.036-18.688-3.188c0-1.827,5.785-2.972,8.273-3.379l0.285-0.047    l0.183,0.225c1.471,1.809,6.212,2.889,9.946,2.889s8.476-1.08,9.946-2.889l0.183-0.225l0.286,0.047    c2.487,0.407,8.272,1.552,8.272,3.379C67.982,42.433,50.058,42.469,49.295,42.469z"></path></g><g><path fill="#000000" d="M49.295,37.969c0,0,6.873-0.006,9.438-3.188v-9.188c-3.438,3.5-9.438,3.313-9.438,3.313    s-6,0.188-9.438-3.313v9.188C42.422,37.963,49.295,37.969,49.295,37.969z"></path><path fill="#000000" d="M49.295,38.469L49.295,38.469c-0.291,0-7.143-0.044-9.826-3.373c-0.072-0.09-0.111-0.2-0.111-0.314v-9.188    c0-0.203,0.123-0.386,0.311-0.463c0.188-0.076,0.403-0.032,0.547,0.112c2.957,3.013,7.949,3.165,8.919,3.165l0.146-0.002    l0.177,0.002c0.97,0,5.962-0.152,8.92-3.165c0.142-0.144,0.356-0.188,0.546-0.112c0.188,0.077,0.311,0.26,0.311,0.463v9.188    c0,0.114-0.039,0.225-0.11,0.314C56.438,38.425,49.586,38.469,49.295,38.469z"></path></g><g><path fill="#000000" d="M49.295,27.344c-0.252,0-6.184-0.031-7.686-2.691c-0.046-0.082-0.068-0.176-0.064-0.27    c0.042-0.889,1.094-21.78,7.652-23.092c0.064-0.013,0.131-0.013,0.195,0c6.559,1.312,7.61,22.203,7.651,23.092    c0.005,0.094-0.018,0.188-0.063,0.27C55.479,27.313,49.547,27.344,49.295,27.344z"></path></g></g></svg>