<svg xmlns:dc="http://purl.org/dc/elements/1.1/" xmlns:cc="http://creativecommons.org/ns#" xmlns:rdf="http://www.w3.org/1999/02/22-rdf-syntax-ns#" xmlns:svg="http://www.w3.org/2000/svg" xmlns="http://www.w3.org/2000/svg" xmlns:sodipodi="http://sodipodi.sourceforge.net/DTD/sodipodi-0.dtd" xmlns:inkscape="http://www.inkscape.org/namespaces/inkscape" viewBox="0 0 80 80" version="1.1" x="0px" y="0px"><path style="" d="M 26.625,8.125 29.59375,30.65625 29.6875,30.625 c 0.464323,1.740924 1.635252,3.145028 3.15625,3.9375 C 33.790143,33.55634 34.862274,33.014102 36,32.75 c -0.832941,0.718841 -2.334125,1.281648 -2.34375,2.1875 0.930583,0.328067 1.956054,0.436144 3,0.28125 3.421005,-0.507587 5.757587,-3.703995 5.25,-7.125 C 41.787284,27.291952 41.506051,26.537738 41.125,25.875 l 0.125,-0.0625 z m 16.457912,26.204931 c -2.994659,0.469818 -4.762793,1.21814 -7.285374,1.598738 -0.218879,0.09631 -1.043976,0.47598 -1.32469,1.331406 -2.256588,7.179117 -3.059005,14.24076 -4.191598,21.646175 -0.105638,0.685749 0.345486,1.331861 1.03125,1.4375 l 1.65625,0.25 c 0.08572,0.0132 0.166807,0.0352 0.25,0.03125 l -2.40625,3.34375 0,0.03125 c -0.441369,0.62159 -0.641088,1.327299 -0.625,2.03125 -0.06859,0.495151 -0.04118,1.021812 0.125,1.53125 l 3.84375,11.75 -1.34375,9 1.4375,0.21875 0.90625,-6.125 0.15625,0.46875 c 0.215169,0.659635 0.934116,1.02767 1.59375,0.8125 l 1.25,-0.40625 -1.125,12.40625 1.9375,0.1875 L 40.1875,82.59375 40.875,82.375 c 0.383872,-0.125226 0.624367,-0.399413 0.75,-0.75 0.888292,0.09699 1.82678,0.125 2.8125,0.125 1.15622,0 2.259938,-0.05569 3.28125,-0.1875 L 48.1875,86.75 49.84375,86.59375 49.375,81.28125 c 0.53081,-0.115249 1.019812,-0.256373 1.46875,-0.40625 0.510227,-0.170338 0.958934,-0.352338 1.34375,-0.5625 l 2.34375,13.4375 1.9375,-0.3125 -5.0625,-28.90625 C 53.596329,64.005911 55,63.264643 55,62.40625 c 0.0072,-0.297026 0.01329,-0.528205 0,-0.84375 0,-1.238242 -2.877351,-2.288275 -6.90625,-2.6875 l -3.5,-23.09375 C 44.45519,34.866565 43.624263,34.24792 43.082912,34.329931 z M 36.34375,47.1875 37.5,54.84375 c -1.145436,1.446098 -2.058059,2.680232 -3.03125,4.03125 0.777621,-3.869224 1.0096,-7.937433 1.875,-11.6875 z M 38.5,64.71875 c 0.422219,0.0812 0.878254,0.155021 1.34375,0.21875 L 39.125,72.90625 c -0.754451,-2.352821 -1.916821,-6.412517 -1.916821,-6.412517 z m 10.96875,0.1875 2.0625,11.8125 c -0.223701,-0.09463 -0.434762,-0.196874 -0.6875,-0.28125 -0.576251,-0.19238 -1.229942,-0.365702 -1.9375,-0.5 L 47.9375,65.0625 c 0.520968,-0.05034 1.050483,-0.08558 1.53125,-0.15625 z m -7.6875,0.21875 c 0.880379,0.06485 1.793069,0.125 2.75,0.125 0.603672,0 1.175681,-0.03499 1.75,-0.0625 l 0.9375,10.53125 c -0.883499,-0.095 -1.806081,-0.15625 -2.78125,-0.15625 -1.286263,0 -2.515848,0.08841 -3.625,0.25 z m 2.65625,10.75 c 0.988703,0 1.92783,0.05526 2.8125,0.15625 l 0.4375,5.1875 c -1.003308,0.134748 -2.099397,0.25 -3.25,0.25 -0.955053,0 -1.863409,-0.09298 -2.71875,-0.1875 0.0089,-0.152419 0.01918,-0.314148 -0.03125,-0.46875 l -1.03125,-3.21875 0.125,-1.4375 C 41.889645,75.983192 43.123548,75.875 44.4375,75.875 z m 4.5,0.40625 c 0.584048,0.118455 1.117456,0.247241 1.59375,0.40625 0.415326,0.138655 0.77586,0.306731 1.09375,0.46875 l 0.46875,2.71875 c -0.40336,0.269419 -0.915681,0.534061 -1.5625,0.75 -0.365421,0.121995 -0.757006,0.213856 -1.1875,0.3125 z" transform="scale(0.8,0.8)" fill="#000000" fill-opacity="1" stroke="none"></path></svg>