<svg xmlns:dc="http://purl.org/dc/elements/1.1/" xmlns:cc="http://creativecommons.org/ns#" xmlns:rdf="http://www.w3.org/1999/02/22-rdf-syntax-ns#" xmlns:svg="http://www.w3.org/2000/svg" xmlns="http://www.w3.org/2000/svg" xmlns:sodipodi="http://sodipodi.sourceforge.net/DTD/sodipodi-0.dtd" xmlns:inkscape="http://www.inkscape.org/namespaces/inkscape" viewBox="0 0 80 80" version="1.1" x="0px" y="0px"><path style="text-indent:0;text-transform:none;direction:ltr;block-progression:tb;baseline-shift:baseline;color:#000000;enable-background:accumulate;" d="M 32.375 47.5625 C 30.695622 47.5625 29.34375 48.927206 29.34375 50.625 C 29.34375 52.319111 30.695957 53.6875 32.375 53.6875 C 34.051027 53.6875 35.40625 52.319111 35.40625 50.625 C 35.40625 48.927206 34.051028 47.5625 32.375 47.5625 z M 12.6875 52.65625 C 11.869075 52.65625 11.21875 53.325771 11.21875 54.15625 C 11.21875 54.9874 11.869075 55.65625 12.6875 55.65625 L 23.28125 55.65625 L 18.8125 60.15625 C 18.174571 60.819294 17.84375 61.563139 17.84375 62.53125 C 17.84375 63.464199 18.231606 64.299799 18.84375 64.90625 L 25.59375 71.8125 L 25.59375 77.34375 C 25.59375 78.387541 26.43199 79.25 27.46875 79.25 C 28.41342 79.25 29.34375 78.130696 29.34375 77.34375 L 29.34375 69.625 C 29.34375 69.086528 29.108648 68.595251 28.75 68.25 L 24.28125 63.71875 L 30.21875 57.71875 C 31.338558 56.303251 30.75 54.59375 30.75 54.59375 C 30.133169 52.71814 28.03125 52.65625 28.03125 52.65625 L 12.6875 52.65625 z M 17.5 65.3125 L 8.65625 74.28125 C 7.9821552 74.82508 7.7580888 75.761824 8.15625 76.5625 C 8.6203808 77.476696 9.7188399 77.843484 10.625 77.375 C 10.747563 77.308362 10.863935 77.240638 10.96875 77.15625 L 20.0625 67.9375 L 17.875 65.75 C 17.735024 65.612034 17.622228 65.471564 17.5 65.3125 z M 4.1875 73.75 L 3.375 74.5625 L 9.21875 80.5 C 10.478869 81.485524 11.78125 79.75 11.78125 79.75 L 10.96875 78.9375 L 10.53125 79.375 C 10.093909 79.8177 9.71875 79.34375 9.71875 79.34375 L 4.1875 73.75 z M 32.1875 78.6875 L 32.1875 79.3125 C 32.1875 79.940719 31.59375 79.875 31.59375 79.875 L 23.75 79.875 L 23.75 81.03125 L 32.03125 81.03125 C 33.614854 80.827649 33.34375 78.6875 33.34375 78.6875 L 32.1875 78.6875 z M 0.375 81.375 L 0.375 83.5625 L 54.0625 82.1875 L 55.03125 81.65625 L 0.375 81.375 z M 60 81.5 L 59.78125 81.625 C 58.811064 82.110093 58.138889 82.3125 57.5 82.3125 C 57.020833 82.3125 56.534544 82.199076 55.90625 81.9375 C 55.89836 81.934215 55.882931 81.940831 55.875 81.9375 L 54.8125 82.5 C 55.830018 83.00676 56.646301 83.3125 57.5 83.3125 C 58.292076 83.3125 59.080486 83.002284 60 82.5625 C 60.919514 83.002284 61.707924 83.3125 62.5 83.3125 C 63.292076 83.3125 64.080486 83.002284 65 82.5625 C 65.919514 83.002284 66.707924 83.3125 67.5 83.3125 C 68.292076 83.3125 69.080486 83.002284 70 82.5625 C 70.919514 83.002284 71.707924 83.3125 72.5 83.3125 C 73.292076 83.3125 74.080486 83.002284 75 82.5625 C 75.919514 83.002284 76.707924 83.3125 77.5 83.3125 C 78.292076 83.3125 79.080486 83.002284 80 82.5625 C 80.919514 83.002284 81.707924 83.3125 82.5 83.3125 C 83.292076 83.3125 84.080486 83.002284 85 82.5625 C 85.919514 83.002284 86.707924 83.3125 87.5 83.3125 C 88.292076 83.3125 89.080486 83.002284 90 82.5625 C 90.919514 83.002284 91.707924 83.3125 92.5 83.3125 C 93.292076 83.3125 94.080486 83.002284 95 82.5625 C 95.924488 82.99532 96.710438 83.310529 97.5 83.3125 C 98.35838 83.314625 99.188578 83.015087 100.21875 82.5 L 99.78125 81.625 C 98.811422 82.109912 98.137166 82.31409 97.5 82.3125 C 96.862834 82.310875 96.199813 82.103941 95.21875 81.625 L 95 81.5 L 94.78125 81.625 C 93.811064 82.110093 93.138889 82.3125 92.5 82.3125 C 91.861111 82.3125 91.188936 82.110093 90.21875 81.625 L 90 81.5 L 89.78125 81.625 C 88.811064 82.110093 88.138889 82.3125 87.5 82.3125 C 86.861111 82.3125 86.188936 82.110093 85.21875 81.625 L 85 81.5 L 84.78125 81.625 C 83.811064 82.110093 83.138889 82.3125 82.5 82.3125 C 81.861111 82.3125 81.188936 82.110093 80.21875 81.625 L 80 81.5 L 79.78125 81.625 C 78.811064 82.110093 78.138889 82.3125 77.5 82.3125 C 76.861111 82.3125 76.188936 82.110093 75.21875 81.625 L 75 81.5 L 74.78125 81.625 C 73.811064 82.110093 73.138889 82.3125 72.5 82.3125 C 71.861111 82.3125 71.188936 82.110093 70.21875 81.625 L 70 81.5 L 69.78125 81.625 C 68.811064 82.110093 68.138889 82.3125 67.5 82.3125 C 66.861111 82.3125 66.188936 82.110093 65.21875 81.625 L 65 81.5 L 64.78125 81.625 C 63.811064 82.110093 63.138889 82.3125 62.5 82.3125 C 61.861111 82.3125 61.188936 82.110093 60.21875 81.625 L 60 81.5 z " transform="scale(0.8,0.8)" fill="#000000" fill-opacity="1" stroke="none" marker="none" visibility="visible" display="inline" overflow="visible"></path></svg>