<svg xmlns="http://www.w3.org/2000/svg" xmlns:xlink="http://www.w3.org/1999/xlink" version="1.1" x="0px" y="0px" viewBox="0 0 100 100" enable-background="new 0 0 100 100" xml:space="preserve"><g><path fill-rule="evenodd" clip-rule="evenodd" d="M16.211,36.041l0.739-0.316l0.523-0.42l0.212-0.422v-0.316l-0.107-0.21   l-0.105-0.103l-0.418-0.212h-0.739l-0.841,0.314l-0.634,0.21l-0.524,0.424l-0.212,0.423v0.104L14,35.725l0.105,0.107l0.212,0.209   l0.419,0.213h0.738L16.211,36.041 M93.053,82.075l-0.104-1.58l-0.211-0.844l-0.633-2.424l-0.631-3.158l-0.527-3.373l-0.213-3.158   l-0.102-3.371v-3.158l0.631-6.531L92,51.21l0.105-0.736l0.525-3.056l0.107-3.053l0.211-1.581l0.523,4.319l0.633,4.423v0.422   l0.318,2.635l0.523,2.529l0.738,2.525l0.736,2.002l0.422,0.422l0.42,0.209h0.525l0.633-0.209l0.736-0.316l0.633-0.633L100,60.796   v-0.422l-0.104-0.42l-0.842-2.002l-0.107-0.525l-0.842-2.949l-0.525-2.951l-0.316-3.052l-0.314-2.951v-4.741l-0.211-2.212   l-0.529-2.212l-0.523-2.104l-0.633-1.266l-0.842-2.319l-1.051-2.212l-1.369-2.104l-1.158-1.58l-1.367-1.793l-1.369-1.58   l-1.684-1.263l-1.793-1.266l-1.787-0.946l-1.896-0.842l-1.789-0.633l-1.684-0.422l-1.789-0.107h-0.736l-3.158-0.104l-3.051,0.104   l-2.951,0.107l-1.684,0.21H63.58l-3.158,0.315l-3.16,0.213h-3.26l-0.842-0.107l-1.896-0.209l-1.894-0.529l-1.056-0.42l-1.999-0.526   l-2.001-0.212l-1.999-0.104l-1.999,0.212l-2.001,0.421l-1.58,0.422v0.104v-0.104l-6.735,1.896l-1.056,0.42l-2.632,0.736   l-2.525,0.422l-2.633,0.422h-2.208l-1.053,0.317l-1.158,0.419l-0.843,0.739l-0.736,0.842l-0.21,0.212l-1.58,2.212L12,26.772   l-1.263,2.421l-1.053,2.529l-0.84,2.634l-0.526,2.002L7.79,39.31l-0.526,3.053l-0.212,3.056v3.057l0.212,3.157l0.209,3.055   l0.632,3.053l0.634,2.951l0.736,2.848l0.631,2.104v0.105l0.529,0.846l0.312,1.051v0.949l-0.209,1.053l-0.102,0.314l-0.634,0.529   l-0.527,0.42l-0.843,0.316l-0.733-0.107l-0.739-0.209l-0.631-0.527l-0.209-0.209l-1.053-1.158l-0.317-0.529l-0.527-0.422   l-0.526-0.312l-0.631-0.107H2.737l-0.526,0.107l-0.317,0.207l-0.945,0.74l-0.736,0.736L0,69.96v0.736l0.107,0.635l0.105,0.105   l0.631,1.475l0.105,0.105v-0.105l0.841,1.477l0.527,0.523l1.053,0.949l1.157,0.633l1.158,0.422l1.263,0.312H7.79l1.684-0.105   l1.472-0.418l1.58-0.527l1.37-0.949l0.736-0.422l0.843-0.736l0.841-1.053l0.634-1.162l0.311-1.158l0.212-0.418l-0.104-2.215   l-0.314-2.316l-0.422-2.105l-0.317-1.053l-0.421-2.215l-0.102-2.213l0.102-2.209v-0.316l0.316-1.371l0.422-1.262l0.736-1.264   l0.843-1.054l1.158-0.948l1.263-0.632l1.053-0.422l0.421-0.107l0.945-0.102l0.949-0.423l0.844-0.634l0.523-0.524l1.475-1.158   l1.05-0.739l0.529-0.212h0.523l0.527,0.107l0.425,0.314l0.207,0.529l0.104,0.207l0.317,2.951l0.317,3.055v3.057l-0.212,3.053   l-0.422,3.055l-0.523,3.055l-0.105,0.316l-3.685,14.854l-0.21,0.42l-0.212,0.213l-0.314,0.209h-0.108l-0.523,0.213l-0.526,0.316   l-0.424,0.42l-0.207,0.631v2.635l0.207,0.418l0.317,0.318l0.529,0.211h6.944l0.529-0.107l0.422-0.209l0.317-0.42l0.102-0.316   l3.054-9.691l2.313-6.533L40,63.96l0.841-1.898l0.634-2.107l0.418-2.107v-0.107l0.527-3.791v-0.105l1.894,10.117l1.263,4.949   l0.634,2.738l1.792,7.689v0.42l-0.108,0.316l-0.209,0.318l-0.105,0.104l-0.421,0.42l-0.422,0.529l-0.105,0.527v2.104l0.314,0.529   l0.422,0.42l0.421,0.209l0.524,0.107h6.527l0.525-0.107l0.422-0.209l0.314-0.42l0.109-0.422v-0.422l-0.633-5.582l-0.316-3.791   v-3.691l0.213-3.684l0.209-3.793L56,61.112l0.316-1.264l0.105-1.369l-0.209-1.264l-0.314-1.264l-0.318-0.738l2.525,0.949   l2.633,0.949l2.633,0.627l2.736,0.529l2.422,0.211l-0.74,4.213l-0.418,4.32l-0.635,8.428v3.262l-0.104,0.531l-0.211,0.629   l-0.418,0.422l-0.426,0.211l-0.314,0.42l-0.418,0.529l-0.107,0.527v1.682l0.107,0.422l0.207,0.529l0.422,0.42l0.422,0.209   l0.525,0.107h6.314l0.527-0.107l0.316-0.209l0.318-0.42l0.207-0.422l1.156-6.848l0.844-4.211l0.949-4.215l1.158-4.213l0.631-2.426   l0.84,3.266l0.84,3.373l1.162,3.053l1.266,3.162l1.469,3.055l0.316,0.633l0.105,0.422v0.629l-0.105,0.529l-0.316,0.523   l-0.311,0.422l-0.213,0.529v2.209l0.316,0.529l0.314,0.42l0.525,0.209l0.525,0.107h6.107l0.42-0.107l0.422-0.209l0.422-0.842   l0.104-0.316V82.075z M29.898,37.729l-0.422-0.107h-0.425l-0.209,0.107l-0.314,0.317l-0.21,0.102L28.21,38.57v0.317l0.422,0.629   l0.21,0.107l2.525,1.158l1.056,0.527l0.84,0.212h0.948l0.844-0.212l0.841-0.317l0.634-0.629l0.628-0.739l0.212-0.844l0.21-0.946   l-0.105-0.526l-0.317-2.212l-0.736-2.212l-0.843-2.215l-0.945-1.999l-1.266-2.003l-1.263-1.79l-1.475-1.053l-0.945-0.317   l-0.945-0.104l-0.951,0.104l-0.419,0.212l-1.684,0.632l-0.84,0.844v0.736l0.102,0.21l0.212,0.317l0.314,0.102l0.422,0.107   l0.421-0.107l0.209-0.102l1.37-0.739h0.209l0.526-0.104h0.631l0.634,0.209l0.418,0.317l0.105,0.107l1.368,1.787l1.157,2.005   l0.951,2l0.737,2.106l0.526,2.212l0.314,1.264l-0.104,0.526l-0.422,0.844l-0.422,0.317l-0.422,0.104h-0.628l-0.317-0.104   l-2.315-1.057L29.898,37.729z"></path></g></svg>