<?xml version="1.0" encoding="utf-8"?><!DOCTYPE svg PUBLIC "-//W3C//DTD SVG 1.1//EN" "http://www.w3.org/Graphics/SVG/1.1/DTD/svg11.dtd"><svg version="1.1" xmlns="http://www.w3.org/2000/svg" xmlns:xlink="http://www.w3.org/1999/xlink" x="0px" y="0px" viewBox="0 0 100 99.864" enable-background="new 0 0 100 99.864" xml:space="preserve"><path fill="#231F20" d="M50.021,25.999c14.979,0,27.164,12.187,27.164,27.165c0,14.98-12.186,27.166-27.164,27.166
	c-14.979,0-27.166-12.188-27.166-27.166C22.854,38.185,35.041,25.999,50.021,25.999 M50.021,20.565
	c-18.006,0-32.599,14.595-32.599,32.598c0,18.005,14.593,32.6,32.599,32.6c18.001,0,32.597-14.595,32.597-32.6
	C82.617,35.161,68.021,20.565,50.021,20.565"></path><path fill="#231F20" d="M36.437,65.388c2.175,5.562,7.247,9.508,13.582,9.508c6.332,0,11.406-3.945,13.582-9.508H36.437z"></path><path fill="#231F20" d="M35.078,52.144c-0.674,0-1.311-0.402-1.576-1.066c-0.348-0.871,0.074-1.857,0.945-2.207l6.791-2.715
	c0.873-0.354,1.86,0.073,2.207,0.945c0.351,0.868-0.075,1.857-0.944,2.206l-6.792,2.716C35.503,52.108,35.287,52.144,35.078,52.144"></path><path fill="#231F20" d="M31.003,48.409c-0.522,0-1.042-0.197-1.44-0.596c-0.797-0.795-0.797-2.087,0-2.883
	c1.233-1.231,7.625-7.387,12.306-7.387c1.125,0,2.037,0.912,2.037,2.037s-0.912,2.037-2.037,2.037c-2.228,0-6.852,3.623-9.426,6.194
	C32.046,48.211,31.523,48.409,31.003,48.409"></path><path fill="#231F20" d="M64.96,52.144c-0.21,0-0.424-0.036-0.632-0.121l-6.79-2.716c-0.87-0.351-1.296-1.339-0.946-2.206
	c0.347-0.869,1.336-1.298,2.207-0.946l6.793,2.716c0.866,0.35,1.292,1.336,0.943,2.207C66.27,51.742,65.634,52.144,64.96,52.144"></path><path fill="#231F20" d="M69.034,48.409c-0.521,0-1.043-0.197-1.44-0.593c-2.574-2.575-7.204-6.197-9.425-6.197
	c-1.129,0-2.038-0.912-2.038-2.037c0-1.124,0.909-2.036,2.038-2.036c4.682,0,11.071,6.154,12.306,7.387
	c0.796,0.796,0.796,2.086,0,2.883C70.077,48.211,69.555,48.409,69.034,48.409"></path></svg>