<svg xmlns="http://www.w3.org/2000/svg" xmlns:xlink="http://www.w3.org/1999/xlink" version="1.0" x="0px" y="0px" viewBox="0 0 100 100" enable-background="new 0 0 100 100" xml:space="preserve"><g><rect x="-192" width="185" height="99"></rect><rect y="-36" width="100" height="30"></rect><text transform="matrix(1 0 0 1 66 -19.5)" fill="#000000" font-family="'Helvetica'" font-size="2.4">http://thenounproject.com</text><text transform="matrix(1 0 0 1 7.166 -24.5)"><tspan x="0" y="0" fill="#000000" font-family="'Helvetica-Bold'" font-size="6.1578">The Noun Project</tspan><tspan x="1.12" y="4.8" fill="#000000" font-family="'Helvetica-Bold'" font-size="4">Icon Template</tspan></text><text transform="matrix(1 0 0 1 -178.5 10.5)" fill="#000000" font-family="'Helvetica-Bold'" font-size="6.1578">Reminders</text><line fill="#000000" stroke="#FFFFFF" stroke-miterlimit="10" x1="8" y1="-14.5" x2="18" y2="-14.5"></line><line fill="#000000" stroke="#FFFFFF" stroke-miterlimit="10" x1="-179" y1="16.5" x2="-162" y2="16.5"></line><g><g><g><rect x="-170.802" y="31.318" fill="#000000" width="8.721" height="8.642"></rect><path fill="#000000" d="M-164.455,42.312h4.747v-4.703h-4.747V42.312z M-159.266,42.749h-5.63V37.17h5.63V42.749      L-159.266,42.749z M-166.221,44.062h8.279v-8.203h-8.279V44.062L-166.221,44.062z M-157.5,44.5h-9.163v-9.079h9.163V44.5      L-157.5,44.5z"></path><polygon fill="#000000" points="-166.149,44.133 -166.292,43.991 -158.013,35.787 -157.871,35.929     "></polygon></g></g></g><rect x="-179" y="58" fill="none" width="35" height="32.5"></rect><text transform="matrix(1 0 0 1 -179 60.1299)"><tspan x="0" y="0" fill="#000000" font-family="'Helvetica-Bold'" font-size="3">Strokes</tspan><tspan x="0" y="5" fill="#000000" font-family="'Helvetica'" font-size="2.4">Try to keep strokes at 4px</tspan><tspan x="0" y="10" fill="#000000" font-family="'Helvetica'" font-size="2.4">Minimum stroke weight is 2px</tspan><tspan x="0" y="14.5" fill="#000000" font-family="'Helvetica'" font-size="2.4">For thicker strokes use even </tspan><tspan x="0" y="17.5" fill="#000000" font-family="'Helvetica'" font-size="2.4">numbers: 6px, 8px etc.</tspan><tspan x="0" y="22" fill="#000000" font-family="'Helvetica-Bold'" font-size="2.4">Remember to expand strokes </tspan><tspan x="0" y="25" fill="#000000" font-family="'Helvetica-Bold'" font-size="2.4">before saving as an SVG </tspan></text><rect x="-136.5" y="58" fill="none" width="35" height="32.5"></rect><text transform="matrix(1 0 0 1 -136.5 60.1299)"><tspan x="0" y="0" fill="#000000" font-family="'Helvetica-Bold'" font-size="3">Size</tspan><tspan x="0" y="5" fill="#000000" font-family="'Helvetica'" font-size="2.4">Cannot be wider or taller than </tspan><tspan x="0" y="8.5" fill="#000000" font-family="'Helvetica'" font-size="2.4">100px (artboard size)</tspan><tspan x="0" y="13.5" fill="#000000" font-family="'Helvetica'" font-size="2.4">Scale your icon to fill as much of </tspan><tspan x="0" y="16.5" fill="#000000" font-family="'Helvetica'" font-size="2.4">the artboard as possible</tspan></text><rect x="-94" y="58" fill="none" width="35" height="32.5"></rect><text transform="matrix(1 0 0 1 -94 60.1299)"><tspan x="0" y="0" fill="#000000" font-family="'Helvetica-Bold'" font-size="3">Ungroup</tspan><tspan x="0" y="5" fill="#000000" font-family="'Helvetica'" font-size="2.4">If your design has more than one </tspan><tspan x="0" y="8" fill="#000000" font-family="'Helvetica'" font-size="2.4">shape, make sure to ungroup</tspan></text><rect x="-50" y="58" fill="none" width="35" height="32.5"></rect><text transform="matrix(1 0 0 1 -50 60.1299)"><tspan x="0" y="0" fill="#000000" font-family="'Helvetica-Bold'" font-size="3">Save as</tspan><tspan x="0" y="5" fill="#000000" font-family="'Helvetica'" font-size="2.4">Save as .SVG and make sure </tspan><tspan x="0" y="8" fill="#000000" font-family="'Helvetica'" font-size="2.4">“Use Artboards” is checked</tspan></text><text transform="matrix(1.0074 0 0 1 -125.542 30.5933)" fill="#000000" font-family="'Helvetica'" font-size="2.5731">100px</text><text transform="matrix(1.0074 0 0 1 -41 39)" fill="#000000" font-family="'Helvetica-Bold'" font-size="5.1462">.SVG</text><rect x="-126.514" y="34.815" fill="#000000" width="10.261" height="10.185"></rect><rect x="-126.477" y="31.766" fill="#000000" width="0.522" height="2.337"></rect><rect x="-116.813" y="31.766" fill="#000000" width="0.523" height="2.337"></rect><rect x="-127" y="32.337" fill="#000000" width="11.233" height="0.572"></rect><g><rect x="-83.805" y="33.844" fill="#000000" width="10.305" height="10.156"></rect><rect x="-76.809" y="28.707" fill="#000000" width="3.308" height="3.261"></rect></g><rect x="-178.5" y="22.5" fill="#000000" stroke="#FFFFFF" stroke-miterlimit="10" width="30" height="30"></rect><rect x="-136.5" y="22.5" fill="#000000" stroke="#FFFFFF" stroke-miterlimit="10" width="30" height="30"></rect><rect x="-93.5" y="22.5" fill="#000000" stroke="#FFFFFF" stroke-miterlimit="10" width="30" height="30"></rect><rect x="-49.5" y="22.5" fill="#000000" stroke="#FFFFFF" stroke-miterlimit="10" width="30" height="30"></rect></g><g><g><path d="M37.384,52.37c3.001-1.876,4.268-6.66,2.486-11.021c-1.782-4.362-14.305-9.521-14.305-9.521s-0.281,11.209,0.985,16.556    c0.945,3.988,3.6,5.296,6.217,5.296C34.488,53.681,36.193,53.115,37.384,52.37z M29.014,47.8    c-0.729-3.077-0.908-8.41-0.938-12.046c0.863,0.42,1.822,0.908,2.794,1.441c5.6,3.069,6.525,4.796,6.654,5.111    c0.65,1.592,0.804,3.332,0.431,4.9c-0.322,1.357-1.02,2.456-1.915,3.016c-0.716,0.448-1.953,0.926-3.275,0.926    C30.748,51.148,29.556,50.084,29.014,47.8z"></path><path d="M83.909,25.355C83.909,25.355,76.452,2,50,2S16.091,25.355,16.091,25.355s-4.925,29.576-0.984,41.534    c3.939,11.961,7.318,26.78,33.7,32.11h2.387c26.382-5.33,29.762-20.149,33.7-32.11C88.834,54.932,83.909,25.355,83.909,25.355z     M83.874,55.472c-0.762-0.092-1.444-0.373-1.871-0.641c-0.648-0.405-1.155-1.203-1.389-2.188c-0.27-1.137-0.159-2.399,0.313-3.554    c0.074-0.182,0.519-1.014,2.747-2.47C83.855,49.871,83.924,52.831,83.874,55.472z M16.326,46.632    c2.211,1.448,2.653,2.276,2.727,2.458c0.472,1.155,0.583,2.417,0.313,3.554c-0.233,0.984-0.74,1.782-1.389,2.188    c-0.423,0.265-1.097,0.545-1.851,0.639C16.077,52.833,16.144,49.877,16.326,46.632z M81.786,68.659    c-1.845,5.74-3.751,11.55-8.108,16.694C68.728,91.197,61.29,95,50.945,97h-1.891c-10.344-2-17.782-5.803-22.732-11.646    c-4.357-5.145-6.265-11.018-8.109-16.758c-0.229-0.714-0.466-1.42-0.702-2.134c-0.723-2.197-1.168-5.279-1.331-9.168    c1.044-0.104,2.041-0.458,2.771-0.914c2.177-1.36,3.096-4.825,1.803-7.989c-0.524-1.285-2.334-2.662-4.297-3.848    c0.056-0.807,0.117-1.627,0.186-2.466c0.654-7.973,1.714-14.844,1.915-16.104c0.336-0.943,2.239-5.9,6.596-10.764    c2.785-3.107,6.022-5.578,9.625-7.344C39.284,5.654,44.406,4.532,50,4.532c5.594,0,10.716,1.122,15.222,3.332    c3.603,1.767,6.841,4.238,9.625,7.345c4.362,4.87,6.266,9.834,6.597,10.762c0.2,1.26,1.26,8.133,1.914,16.107    c0.068,0.835,0.13,1.652,0.186,2.455c-1.971,1.189-3.791,2.573-4.316,3.861c-1.292,3.164-0.373,6.634,1.803,7.994    c0.734,0.459,1.738,0.823,2.789,0.923c-0.162,3.889-0.606,6.984-1.329,9.181C82.253,67.207,82.017,67.945,81.786,68.659z"></path><path d="M60.131,41.349c-1.782,4.362-0.517,9.146,2.485,11.021c1.19,0.745,2.895,1.311,4.616,1.311    c2.617,0,5.272-1.309,6.217-5.296c1.269-5.347,0.986-16.556,0.986-16.556S61.912,36.987,60.131,41.349z M70.985,47.8    c-0.541,2.285-1.733,3.349-3.753,3.349c-1.321,0-2.559-0.478-3.273-0.926c-0.896-0.56-1.593-1.658-1.916-3.016    c-0.371-1.568-0.218-3.308,0.432-4.9c0.129-0.315,1.056-2.042,6.655-5.111c0.972-0.533,1.93-1.021,2.795-1.441    C71.894,39.39,71.714,44.723,70.985,47.8z"></path><path d="M51.193,51.995L50,51.386l-1.194,0.609C44.468,53.59,38.65,58.421,35.742,62.36c-2.908,3.94-5.347,12.428-4.503,15.195    s4.55,4.878,7.786,6.66C42.261,85.998,50,90.642,50,90.642s7.738-4.644,10.975-6.426s6.941-3.893,7.786-6.66    s-1.596-11.255-4.504-15.195C61.35,58.421,55.531,53.59,51.193,51.995z M40.479,62.313c0.047-0.608,2.673-3.125,4.033-4.25    C45.873,56.936,48.171,57,48.171,57h0.635h2.387h0.636c0,0,2.298-0.064,3.657,1.063c1.361,1.125,3.987,3.602,4.034,4.212    c0.047,0.609,0.234,2.168,0,2.778S59.052,66,58.066,66s-6.873,0-6.873,0h-2.387c0,0-5.888,0-6.874,0    c-0.985,0-1.219-0.318-1.453-0.932C40.245,64.461,40.432,62.923,40.479,62.313z M61.303,80.088    c-0.985,0.423-4.55,0.027-4.55,0.027L51.193,80h-2.387l-5.56,0.115c0,0-3.564,0.222-4.549-0.201s-2.955-1.742-1.735-4.743    c1.22-3.002,3.518-2.866,4.456-2.584c0.938,0.281,2.439,0.151,4.08,0.199C47.14,72.832,48.806,72,48.806,72h2.387    c0,0,1.668,0.855,3.309,0.809c1.642-0.048,3.143-0.205,4.081-0.488c0.938-0.279,3.236-0.22,4.455,2.782    C64.258,78.104,62.288,79.666,61.303,80.088z"></path></g></g></svg>