<svg xmlns="http://www.w3.org/2000/svg" xmlns:xlink="http://www.w3.org/1999/xlink" version="1.1" x="0px" y="0px" viewBox="0 0 100 100" enable-background="new 0 0 100 100" xml:space="preserve"><g><path fill-rule="evenodd" clip-rule="evenodd" fill="#000000" d="M92.375,66.072l6.608-9.782l-0.139-0.007   c0.751-1.128,1.155-2.452,1.155-3.811c0-3.783-3.074-6.857-6.864-6.857H53.75v-1.269v-0.132c1.328,0,2.414-1.079,2.414-2.414h0.124   v-1.777l27.705-3.174l-0.256-3.054L56.288,34.94h-0.124c0-1.984-1.573-3.609-3.555-3.679v-0.004H25.668v0.004   c-0.045-0.004-0.086-0.004-0.128-0.004c-2.033,0-3.686,1.649-3.686,3.683v6.86c0,1.335,1.141,2.414,2.545,2.414v0.132v1.269H12.58   h0.007h-0.132c-2.074,0-4.031,0.938-5.332,2.542l-0.131,0.124l-5.72,8.894l-0.056-0.027C0.422,58.364,0,59.789,0,61.242   c0,4.139,3.361,7.5,7.497,7.5h79.415c2.137,0,4.143-0.996,5.446-2.687L92.375,66.072z"></path></g></svg>