<svg xmlns="http://www.w3.org/2000/svg" xmlns:xlink="http://www.w3.org/1999/xlink" version="1.1" x="0px" y="0px" viewBox="0 0 100 100" enable-background="new 0 0 100 100" xml:space="preserve"><path d="M6.798,43.464c0-4.328,3.848-4.356,3.848-10.176c0-3.004-1.342-4.931-1.757-13.291c-0.009-0.187-0.721-0.324-0.755-0.149  c-0.048,0.246,0.258,13.473,0.201,13.809c-0.041,0.246-0.766,0.268-0.821-0.018c-0.05-0.255-0.479-13.289-0.52-13.731  c-0.034-0.37-0.756-0.262-0.875-0.147c0,0-0.018,13.793-0.038,13.938c-0.033,0.239-0.822,0.248-0.87,0  C5.184,33.555,5.173,19.76,5.173,19.76c-0.119-0.114-0.84-0.222-0.875,0.147c-0.041,0.442-0.47,13.476-0.52,13.731  c-0.055,0.286-0.78,0.264-0.821,0.018C2.9,33.321,3.207,20.094,3.158,19.847c-0.034-0.175-0.746-0.038-0.755,0.149  c-0.415,8.36-1.757,10.287-1.757,13.291c0,5.82,3.847,5.848,3.848,10.176c0,3.669,0.025,15.654,0,16.219  C4.258,64.898,2.256,70.7,2.256,75.549c0,4.104,3.302,4.104,3.302,4.104l0,0c0,0,0.034,0,0.088-0.002  c0.055,0.002,0.088,0.002,0.088,0.002l0,0c0,0,3.302,0,3.302-4.104c0-4.851-2.002-10.648-2.239-15.867  C6.773,59.118,6.798,47.132,6.798,43.464z"></path><path d="M99.441,33.579c0-4.918-2.183-13.639-6-13.639l0,0c-3.818,0-6,8.72-6,13.639c0,5.814,4.901,5.888,4.901,10.211  c0,3.665,0.025,15.64,0,16.2c-0.243,5.212-2.31,11.005-2.31,15.852c0,4.1,3.406,4.1,3.406,4.1l0,0c0,0,3.406,0,3.406-4.1  c0-4.847-2.066-10.64-2.31-15.852c-0.024-0.562,0-12.536,0-16.2C94.539,39.467,99.441,39.394,99.441,33.579z"></path><path d="M49.667,13.667c-19.33,0-35,15.67-35,35s15.67,35,35,35s35-15.67,35-35S68.997,13.667,49.667,13.667z M49.667,73.667  c-13.807,0-25-11.192-25-25c0-13.807,11.193-25,25-25c13.808,0,25,11.193,25,25C74.667,62.475,63.475,73.667,49.667,73.667z"></path><circle cx="49.667" cy="48.667" r="23.5"></circle></svg>