<svg xmlns="http://www.w3.org/2000/svg" xmlns:xlink="http://www.w3.org/1999/xlink" version="1.1" x="0px" y="0px" viewBox="0 0 100 100" enable-background="new 0 0 100 100" xml:space="preserve"><g><path fill="#000000" d="M37.545,50.915c0,0,2.743,1.022,4.211,0.469c-1.602-7.775-2.606-17.479-2.606-17.479l-1.021-0.372   c0,0-11.524,5.358-13.314,14.333c1.641,0.938,4.309,1.166,4.309,1.166c0.469,12.431,4.134,26.274,28.524,22.991   c0.938,0,0-1.407,0-1.407C41.39,71.057,37.131,55.857,37.545,50.915z"></path><path fill="#000000" d="M41.856,28.066c-0.938,0,0,1.408,0,1.408c16.257-0.441,20.518,14.757,20.102,19.7   c0,0-2.741-1.022-4.21-0.469c1.604,7.775,2.607,17.479,2.607,17.479l1.02,0.373c0,0,11.525-5.358,13.314-14.334   c-1.642-0.938-4.31-1.164-4.31-1.164C69.912,38.628,66.248,24.783,41.856,28.066z"></path><path fill="#000000" d="M95,48.045h-5.49C88.497,27.683,72.113,11.3,51.752,10.287v-5.49c0-1.104-0.896-2-2-2c-1.104,0-2,0.896-2,2   v5.49C27.39,11.3,11.007,27.683,9.994,48.045h-5.49c-1.104,0-2,0.896-2,2c0,1.104,0.896,2,2,2h5.49   C11.007,72.407,27.39,88.79,47.752,89.803v5.49c0,1.104,0.896,2,2,2c1.104,0,2-0.896,2-2v-5.49   C72.113,88.79,88.497,72.407,89.51,52.045H95c1.104,0,2-0.896,2-2C97,48.941,96.104,48.045,95,48.045z M51.752,85.795v-1.766   c0-1.104-0.896-2-2-2c-1.104,0-2,0.896-2,2v1.766C29.596,84.79,15.007,70.2,14.002,52.045h1.765c1.104,0,2-0.896,2-2   c0-1.104-0.896-2-2-2h-1.765c1.004-18.156,15.594-32.745,33.75-33.75v1.765c0,1.104,0.896,2,2,2c1.104,0,2-0.896,2-2v-1.765   c18.155,1.004,32.745,15.594,33.75,33.75h-1.766c-1.104,0-2,0.896-2,2c0,1.104,0.896,2,2,2h1.766   C84.497,70.2,69.907,84.79,51.752,85.795z"></path></g></svg>