<svg xmlns="http://www.w3.org/2000/svg" xmlns:xlink="http://www.w3.org/1999/xlink" version="1.1" x="0px" y="0px" viewBox="0 0 100 100" enable-background="new 0 0 100 100" xml:space="preserve"><path d="M39.228,33.021c0,0,1.67-0.997,2.788-0.811s22.896,5.957,24.385,7.26c1.49,1.303,1.863,1.862,0,2.792  c-1.861,0.931-2.979,1.117-3.351,2.792c-0.316,1.429-0.535,4.224-1.534,5.136c-0.038,0.034-0.419-0.018-1.808-0.239  c-2.353-0.375-16.877-2.625-16.877-2.625s0.121-1.199-0.67-4.724C40.899,36.977,39.228,33.021,39.228,33.021z"></path><path d="M4.336,39.917c0,0,1.008-1.377,3.242-1.004c2.233,0.372,5.026,0.931,10.61,2.792c5.584,1.861,18.494,6.074,19.725,7.543  c2.31,2.756,0.594,8.681-0.894,10.356c-1.49,1.675-2.235,2.115-5.242,2.018c-2.999-0.096-3.931-1.196-3.931-1.196  s0.129-6.528,0.117-6.733c-0.012-0.204-0.076-0.276-0.076-0.276s2.406,0.768,3.304,0.895c1.948,0.274,3.7-0.89,4.445-1.449  c0.744-0.559,1.382-1.787,0.049-0.919c-1.374,0.895-2.954,1.85-4.628,1.478c-1.318-0.293-24.525-7.247-26.515-9.491  C2.69,41.839,4.336,39.917,4.336,39.917z"></path><path d="M18.101,50.249c0,0,8.743,2.696,9.082,2.946c0.293,0.218,0.224,0.299,0.224,0.895c0,0.448-0.096,9.957-0.134,14.74  c-0.013,1.577-0.021,2.64-0.015,2.695c0.036,0.404,0.021,2.119,1.152,2.238c0.991,0.104,10.77-4.548,10.77-4.548l2.162,0.694  c0,0-11.55,6.012-12.817,5.64c-1.267-0.373-8.494-3.354-9.015-4.098c-0.521-0.746-0.82-1.416-0.895-3.428  c-0.062-1.678-0.377-14.384-0.447-17.31C18.157,50.322,18.101,50.249,18.101,50.249z"></path><path d="M8.556,46.862c0,0,3.122,1.261,4.46,1.7c1.337,0.438,4.244,1.406,4.244,1.406s0.264,0.1,0.255,0.444  c-0.004,0.109,0.329,12.545,0.329,12.545s-1.838,0.148-2.061-0.82c-0.224-0.969,0.148-2.534-0.298-2.98  c-0.447-0.447-3.502-0.224-4.172-1.193C10.642,56.996,8.556,53.866,8.556,46.862z"></path><path d="M84.843,95.582c-1.672-1.464-7.107-1.15-7.63-3.241c-0.12-0.482-0.192-1.366-0.232-2.439l-12.185-9.299  c0,0,0.396,9.647-0.128,11.739c-0.521,2.09-5.958,1.776-7.63,3.241c-1.672,1.463,6.056,3.449,13.903,3.449  S86.517,97.045,84.843,95.582z"></path><path d="M26.964,79.71c1.202-1.052,5.111-0.827,5.486-2.331c0.087-0.346,0.202-2.029,0.23-2.801c0,0,0.895-0.376,4.619-2.204  c3.726-1.828,4.041-2.044,4.041-2.044s-0.133,5.998,0.129,7.05c0.376,1.504,4.284,1.278,5.488,2.331  c1.202,1.053-4.354,2.48-9.998,2.48C31.318,82.191,25.762,80.763,26.964,79.71z"></path><path d="M37.92,31.652c-1.303-3.909-4.095-12.472-3.909-14.892c0.186-2.419-0.931-8.19-1.676-11.913  c-0.744-3.724-5.399-3.351-6.515-3.403C24.703,1.392,8.881,1.682,7.392,1.496C6.478,1.381,5.563,1.408,4.52,2.091  C5.13,2.29,5.72,2.582,6.228,2.986c0.328,0.26,0.621,0.564,0.867,0.897C7.34,4.215,7.541,4.576,7.703,4.948  c0.325,0.745,0.554,1.442,0.679,2.22c0.063,0.39,0.168,1.025,0.221,1.414c0.055,0.388-0.168,0.587-0.255,0.205  C8.261,8.403,8.169,7.717,8.075,7.338c-0.188-0.756-0.38-1.542-0.741-2.211c-0.18-0.334-0.393-0.646-0.638-0.925  C6.452,3.923,5.961,3.483,5.655,3.28C5.352,3.078,4.993,2.744,4.169,2.815c-0.823,0.072-1.303,0.643-1.79,1.307  C0.331,6.915,7.247,38.238,7.247,38.238c3.522,0.347,10.202,2.537,15.787,4.398c5.585,1.861,14.882,4.962,15.791,6.652  c0.17,0.316,3.191-1.622,3.191-1.622C42.016,41.704,38.788,34.254,37.92,31.652z M31.21,34.97c-0.109-0.268-0.843-2.121-1.214-3.266  c-0.371-1.144-0.662-2.283-0.876-3.474c-0.054-0.298-0.442-3.767-0.442-3.767c-0.117-1.033-0.231-1.982-0.281-3.029  c-0.755,0.38-1.525,0.623-2.328,0.901c-0.398,0.142-0.804,0.263-1.211,0.375c-0.409,0.109-0.821,0.21-1.237,0.289  c-0.416,0.08-0.834,0.146-1.255,0.198c-0.209,0.026-0.421,0.049-0.631,0.067c-0.213,0.017-0.426,0.028-0.64,0.033  c-0.853,0.019-1.707-0.055-2.541-0.213c-0.417-0.077-0.831-0.171-1.24-0.278c-0.409-0.106-0.812-0.23-1.213-0.358  c-0.211-0.068-0.422-0.139-0.631-0.211c0.5,0.79,0.909,1.634,1.242,2.498c0.431,1.12,0.828,2.294,1.074,3.458  c0.49,2.333,1.284,9.224,1.316,9.397c0.031,0.173-0.189,0.361-0.267,0.047c-0.079-0.314-0.716-4.657-0.903-5.824  c-0.187-1.167-0.281-2.418-0.562-3.562c-0.283-1.143-0.63-2.268-1.087-3.344c-0.457-1.074-1.025-2.097-1.744-3.002  c0,0,0.003,0,0.007,0c-0.85-0.312-1.708-0.545-2.56-0.85c-0.21-0.075-0.146-0.264,0.079-0.204c1.398,0.368,2.747,0.902,4.129,1.291  c0.402,0.113,0.805,0.216,1.209,0.311c0.404,0.096,0.81,0.179,1.218,0.245c0.817,0.13,1.641,0.205,2.463,0.178  c0.205-0.006,0.41-0.019,0.614-0.037c0.208-0.017,0.412-0.037,0.618-0.06c0.412-0.048,0.822-0.109,1.229-0.184  c0.407-0.076,0.814-0.158,1.216-0.257c0.403-0.098,0.802-0.213,1.2-0.332c0.397-0.121,0.79-0.254,1.181-0.399  c0.392-0.143,0.779-0.296,1.162-0.459c0.446-0.188,0.944-0.48,1.382-0.689c0.316-0.152,0.423,0.012,0.125,0.189  c-0.218,0.129-0.564,0.334-0.786,0.456c0.003,1.131,0.086,2.172,0.177,3.309c0,0,0.297,3.271,0.34,3.564  c0.173,1.176,0.561,2.361,0.894,3.508c0.329,1.147,1.011,3.222,1.096,3.364C31.617,34.991,31.32,35.237,31.21,34.97z"></path><g><path d="M95.507,70.557c-1.346-0.937-20.247-13.508-21.31-14.082c-0.891-0.482-1.341-0.671-2.458-0.224   c-0.638,0.256-17.895,6.804-20.565,9.239c-0.817,0.747-0.521,3.577-0.521,3.577s26.377,20.267,27.568,21.086   c0.345,0.237,0.652,0.367,0.935,0.416c0.015-0.004,0.028-0.01,0.045-0.017c0.042-0.018,0.085-0.041,0.125-0.067   c0.079-0.053,0.148-0.119,0.205-0.199c0.115-0.158,0.182-0.374,0.198-0.613c0.018-0.239-0.009-0.496-0.062-0.754   c-0.026-0.129-0.061-0.254-0.098-0.393c-0.036-0.135-0.073-0.27-0.112-0.403c-0.079-0.265-0.167-0.521-0.276-0.765   c-0.109-0.245-0.241-0.476-0.395-0.702c-0.308-0.449-0.685-0.867-1.072-1.276c-0.78-0.816-1.604-1.601-2.441-2.371   c-0.666-0.613-1.729-1.435-2.413-2.029c-0.175-0.152-0.041-0.316,0.158-0.211c0.219,0.167,1.635,1.236,2.493,2.045   c0.831,0.781,1.653,1.494,2.494,2.272c0.42,0.392,0.836,0.796,1.2,1.266c0.184,0.234,0.349,0.488,0.489,0.756   s0.255,0.544,0.354,0.819c0.052,0.138,0.099,0.275,0.146,0.412c0.044,0.133,0.092,0.281,0.129,0.428   c0.076,0.297,0.128,0.607,0.122,0.938c-0.005,0.165-0.022,0.335-0.067,0.505c-0.006,0.021-0.014,0.043-0.019,0.065   c0.207-0.135,0.412-0.305,0.62-0.495c0.819-0.745,6.332-5.96,8.047-7.376c1.713-1.416,4.387-3.136,5.961-4.024   c1.363-0.771,2.309-2.011,2.309-2.011C98.487,74.208,97.222,71.749,95.507,70.557z"></path><path d="M79.091,90.587L79.091,90.587C79.087,90.587,79.088,90.587,79.091,90.587z"></path></g><path d="M27.74,68.833c-0.017,2.039-0.018,2.578-0.015,2.663c0.002,0.041,0.005,0.091,0.01,0.151  c0.044,0.749,0.169,1.616,0.748,1.683c0.718-0.003,6.222-2.462,10.142-4.317l-6.64-2.102l-4.244,1.777  C27.741,68.737,27.74,68.786,27.74,68.833z"></path><path d="M68.387,52.674c-0.897-0.262-5.358-1.582-8.569-2.012c-1.349-0.181-16.895-2.722-17.121-2.514  c-0.313,0.29-1.976,1.188-3.262,1.869c-0.058,0.031-0.197,0.061-0.249,0.061c0.529,1.291,0.679,2.982,0.377,4.859  c-0.33,2.064-1.149,4.121-2.035,5.118c-1.508,1.696-2.446,2.26-5.031,2.26c-0.229,0-0.473-0.004-0.742-0.013  c-2.131-0.068-3.333-0.62-3.935-1.022l-0.096,3.789c0,0,14.891,4.769,17.291,5.402c0.031-0.91,0.093-1.814,0.058-2.726  c-0.018-0.466-0.048-0.933-0.104-1.392c-0.06-0.458-0.232-0.874-0.44-1.264c-0.205-0.398-0.483-0.703-0.827-1.01  s-0.86-0.542-1.262-0.781c-0.657-0.39-1.286-0.643-2.066-0.987c-0.459-0.184-0.271-0.478,0.138-0.321  c0.859,0.328,1.836,0.829,2.136,0.986c0.419,0.222,0.911,0.48,1.285,0.781c0.373,0.301,0.701,0.723,0.951,1.151  c0.061,0.107,0.117,0.216,0.167,0.334c0.047,0.112,0.087,0.233,0.121,0.35c0.067,0.234,0.117,0.471,0.158,0.707  c0.083,0.472,0.138,0.945,0.181,1.417c0.084,0.947,0.129,1.89,0.144,2.842c0,0,0.14,0.001,0.256-0.003  c1.209-0.046,3.662-0.963,3.699-1.417c0.075-0.894-0.307-3.526,0.521-4.396c2.073-2.175,20.119-9.016,20.119-9.016  S70.175,53.195,68.387,52.674z"></path></svg>