<svg xmlns="http://www.w3.org/2000/svg" xmlns:xlink="http://www.w3.org/1999/xlink" version="1.1" x="0px" y="0px" viewBox="0 0 100 100" enable-background="new 0 0 100 100" xml:space="preserve"><g><rect x="-192" width="185" height="99"></rect><rect y="-36" width="100" height="30"></rect><text transform="matrix(1 0 0 1 66 -19.5)" fill="#000000" font-family="'Helvetica'" font-size="2.4">http://thenounproject.com</text><text transform="matrix(1 0 0 1 7.166 -24.5)"><tspan x="0" y="0" fill="#000000" font-family="'Helvetica-Bold'" font-size="6.1578">The Noun Project</tspan><tspan x="1.12" y="4.8" fill="#000000" font-family="'Helvetica-Bold'" font-size="4">Icon Template</tspan></text><text transform="matrix(1 0 0 1 -178.5 10.5)" fill="#000000" font-family="'Helvetica-Bold'" font-size="6.1578">Reminders</text><line fill="#000000" stroke="#FFFFFF" stroke-miterlimit="10" x1="8" y1="-14.5" x2="18" y2="-14.5"></line><line fill="#000000" stroke="#FFFFFF" stroke-miterlimit="10" x1="-179" y1="16.5" x2="-162" y2="16.5"></line><g><g><g><rect x="-170.802" y="31.318" fill="#000000" width="8.721" height="8.642"></rect><path fill="#000000" d="M-164.455,42.312h4.747v-4.703h-4.747V42.312z M-159.266,42.749h-5.63V37.17h5.63V42.749      L-159.266,42.749z M-166.221,44.062h8.279v-8.203h-8.279V44.062L-166.221,44.062z M-157.5,44.5h-9.163v-9.079h9.163V44.5      L-157.5,44.5z"></path><polygon fill="#000000" points="-166.149,44.133 -166.292,43.991 -158.013,35.787 -157.871,35.929     "></polygon></g></g></g><rect x="-179" y="58" fill="none" width="35" height="32.5"></rect><text transform="matrix(1 0 0 1 -179 60.1572)"><tspan x="0" y="0" fill="#000000" font-family="'Helvetica-Bold'" font-size="3">Strokes</tspan><tspan x="0" y="5" fill="#000000" font-family="'Helvetica'" font-size="2.4">Try to keep strokes at 4px</tspan><tspan x="0" y="10" fill="#000000" font-family="'Helvetica'" font-size="2.4">Minimum stroke weight is 2px</tspan><tspan x="0" y="14.5" fill="#000000" font-family="'Helvetica'" font-size="2.4">For thicker strokes use even </tspan><tspan x="0" y="17.5" fill="#000000" font-family="'Helvetica'" font-size="2.4">numbers: 6px, 8px etc.</tspan><tspan x="0" y="22" fill="#000000" font-family="'Helvetica-Bold'" font-size="2.4">Remember to expand strokes </tspan><tspan x="0" y="25" fill="#000000" font-family="'Helvetica-Bold'" font-size="2.4">before saving as an SVG </tspan></text><rect x="-136.5" y="58" fill="none" width="35" height="32.5"></rect><text transform="matrix(1 0 0 1 -136.5 60.1572)"><tspan x="0" y="0" fill="#000000" font-family="'Helvetica-Bold'" font-size="3">Size</tspan><tspan x="0" y="5" fill="#000000" font-family="'Helvetica'" font-size="2.4">Cannot be wider or taller than </tspan><tspan x="0" y="8.5" fill="#000000" font-family="'Helvetica'" font-size="2.4">100px (artboard size)</tspan><tspan x="0" y="13.5" fill="#000000" font-family="'Helvetica'" font-size="2.4">Scale your icon to fill as much of </tspan><tspan x="0" y="16.5" fill="#000000" font-family="'Helvetica'" font-size="2.4">the artboard as possible</tspan></text><rect x="-94" y="58" fill="none" width="35" height="32.5"></rect><text transform="matrix(1 0 0 1 -94 60.1572)"><tspan x="0" y="0" fill="#000000" font-family="'Helvetica-Bold'" font-size="3">Ungroup</tspan><tspan x="0" y="5" fill="#000000" font-family="'Helvetica'" font-size="2.4">If your design has more than one </tspan><tspan x="0" y="8" fill="#000000" font-family="'Helvetica'" font-size="2.4">shape, make sure to ungroup</tspan></text><rect x="-50" y="58" fill="none" width="35" height="32.5"></rect><text transform="matrix(1 0 0 1 -50 60.1572)"><tspan x="0" y="0" fill="#000000" font-family="'Helvetica-Bold'" font-size="3">Save as</tspan><tspan x="0" y="5" fill="#000000" font-family="'Helvetica'" font-size="2.4">Save as .SVG and make sure </tspan><tspan x="0" y="8" fill="#000000" font-family="'Helvetica'" font-size="2.4">“Use Artboards” is checked</tspan></text><text transform="matrix(1.0074 0 0 1 -125.542 30.5933)" fill="#000000" font-family="'Helvetica'" font-size="2.5731">100px</text><text transform="matrix(1.0074 0 0 1 -41 39)" fill="#000000" font-family="'Helvetica-Bold'" font-size="5.1462">.SVG</text><rect x="-126.514" y="34.815" fill="#000000" width="10.261" height="10.185"></rect><rect x="-126.477" y="31.766" fill="#000000" width="0.522" height="2.337"></rect><rect x="-116.812" y="31.766" fill="#000000" width="0.523" height="2.337"></rect><rect x="-127" y="32.337" fill="#000000" width="11.233" height="0.572"></rect><g><rect x="-83.805" y="33.844" fill="#000000" width="10.305" height="10.156"></rect><rect x="-76.809" y="28.707" fill="#000000" width="3.308" height="3.261"></rect></g><rect x="-178.5" y="22.5" fill="#000000" stroke="#FFFFFF" stroke-miterlimit="10" width="30" height="30"></rect><rect x="-136.5" y="22.5" fill="#000000" stroke="#FFFFFF" stroke-miterlimit="10" width="30" height="30"></rect><rect x="-93.5" y="22.5" fill="#000000" stroke="#FFFFFF" stroke-miterlimit="10" width="30" height="30"></rect><rect x="-49.5" y="22.5" fill="#000000" stroke="#FFFFFF" stroke-miterlimit="10" width="30" height="30"></rect></g><g><path d="M61.008,1.305c-7.916-0.377-14.4-0.377-19.83-0.15c-6.182,0.15-10.932,3.016-10.932,8.52c0,27.445,0,48.934,0,73.966   c0,9.425,3.543,13.646,10.631,14.777c1.961,0.377,3.996,0.377,5.881,0.527c4.373,0.151,8.596,0,12.893-0.527   c7.389-1.357,10.104-5.881,10.104-12.969c0-25.032,0-49.234,0-75.247C69.754,4.773,66.287,1.606,61.008,1.305z M46.457,8.342h6.861   c0.828,0,0.828,1.207-0.152,1.131h-6.559C45.703,9.473,45.777,8.342,46.457,8.342z M35.825,14.35h28.2v34.531h-28.2V14.35z    M34.021,56.854c0-1.284,0.999-2.426,2.426-2.426h3.354c1.428,0,2.496,1.142,2.496,2.426v5.707c0,1.284-1.068,2.283-2.496,2.283   h-3.354c-1.427,0-2.426-0.999-2.426-2.283V56.854z M43.867,88.479c0,1.071-0.785,1.855-1.713,1.855h-6.491   c-0.856,0-1.642-0.784-1.642-1.855v-1.284c0-0.927,0.785-1.641,1.642-1.641h6.491c0.928,0,1.713,0.714,1.713,1.641V88.479z    M43.938,82.701c0,0.998-0.713,1.783-1.639,1.783h-6.636c-0.999,0-1.783-0.785-1.783-1.783v-1.427c0-1.071,0.784-1.856,1.783-1.856   h6.636c0.926,0,1.639,0.785,1.639,1.856V82.701z M43.938,76.565c0,0.927-0.713,1.854-1.639,1.854h-6.636   c-0.999,0-1.783-0.928-1.783-1.854v-1.427c0-0.999,0.784-1.784,1.783-1.784h6.636c0.926,0,1.639,0.785,1.639,1.784V76.565z    M43.938,70.501c0,1.07-0.713,1.855-1.639,1.855h-6.636c-0.999,0-1.783-0.785-1.783-1.855v-1.427c0-0.928,0.784-1.783,1.783-1.783   h6.636c0.926,0,1.639,0.855,1.639,1.783V70.501z M50.904,95.778h-1.959c-0.83-0.076-0.68-1.206,0-1.206h1.959   C51.658,94.572,51.809,95.702,50.904,95.778z M54.997,88.622c0,0.928-0.785,1.783-1.713,1.783h-6.635   c-0.999,0-1.784-0.855-1.784-1.783v-1.428c0-0.999,0.785-1.783,1.784-1.783h6.635c0.928,0,1.713,0.784,1.713,1.783V88.622z    M54.997,82.701c0,0.998-0.785,1.783-1.713,1.783h-6.635c-0.999,0-1.784-0.785-1.784-1.783v-1.427c0-1.071,0.785-1.856,1.784-1.856   h6.635c0.928,0,1.713,0.785,1.713,1.856V82.701z M54.997,76.565c0,0.927-0.785,1.854-1.713,1.854h-6.635   c-0.999,0-1.784-0.928-1.784-1.854v-1.427c0-0.999,0.785-1.784,1.784-1.784h6.635c0.928,0,1.713,0.785,1.713,1.784V76.565z    M54.997,70.501c0,1.07-0.785,1.855-1.713,1.855h-6.635c-0.999,0-1.784-0.785-1.784-1.855v-1.427c0-0.928,0.785-1.783,1.784-1.783   h6.635c0.928,0,1.713,0.855,1.713,1.783V70.501z M55.639,61.134c0,2.212-1.998,4.139-4.138,4.139h-2.996   c-2.354,0-4.139-1.927-4.139-4.139v-2.996c0-2.282,1.784-4.138,4.139-4.138h2.996c2.14,0,4.138,1.855,4.138,4.138V61.134z    M65.982,88.479c0,1.071-0.784,1.855-1.854,1.855h-6.351c-0.998,0-1.783-0.784-1.783-1.855v-1.284c0-0.927,0.785-1.641,1.783-1.641   h6.351c1.069,0,1.854,0.714,1.854,1.641V88.479z M65.982,82.701c0,0.998-0.784,1.783-1.712,1.783h-6.564   c-0.926,0-1.854-0.785-1.854-1.783v-1.427c0-1.071,0.928-1.856,1.854-1.856h6.564c0.928,0,1.712,0.785,1.712,1.856V82.701z    M65.982,76.565c0,0.927-0.784,1.854-1.712,1.854h-6.564c-0.926,0-1.854-0.928-1.854-1.854v-1.427c0-0.999,0.928-1.784,1.854-1.784   h6.564c0.928,0,1.712,0.785,1.712,1.784V76.565z M65.982,70.501c0,1.07-0.784,1.855-1.712,1.855h-6.564   c-0.926,0-1.854-0.785-1.854-1.855v-1.427c0-0.928,0.928-1.783,1.854-1.783h6.564c0.928,0,1.712,0.855,1.712,1.783V70.501z    M66.196,62.561c0,1.284-1.14,2.283-2.425,2.283h-3.496c-1.284,0-2.497-0.999-2.497-2.283v-5.707c0-1.284,1.213-2.426,2.497-2.426   h3.496c1.285,0,2.425,1.142,2.425,2.426V62.561z"></path></g></svg>