<svg xmlns:x="http://ns.adobe.com/Extensibility/1.0/" xmlns:i="http://ns.adobe.com/AdobeIllustrator/10.0/" xmlns:graph="http://ns.adobe.com/Graphs/1.0/" xmlns="http://www.w3.org/2000/svg" xmlns:xlink="http://www.w3.org/1999/xlink" version="1.1" x="0px" y="0px" viewBox="0 0 100 100" enable-background="new 0 0 100 100" xml:space="preserve"><metadata><sfw xmlns="http://ns.adobe.com/SaveForWeb/1.0/"><slices></slices><sliceSourceBounds bottomLeftOrigin="true" width="58.865" height="69.486" y="-84" x="20.135"></sliceSourceBounds></sfw></metadata><g><g><path fill="#000000" d="M29.442,70.867l7.812,1.164c0,0,0.499,6.983-3.988,11.969l-3.658-3.573l-7.065,0.582    C22.542,81.009,29.442,77.019,29.442,70.867z"></path></g><path fill="#000000" d="M77.044,23.421L65.786,78.554l-36.644-4.176l-7.966-6.376l39.932,5.359l11.223-54.11l-42.39-4.737   l-9.723,53.36l-0.084,0.543l8.496,6.832c0.075,0.057,0.162,0.094,0.256,0.103l38.65,4.407l0.047-0.401l0.075,0.015L79,23.805   L77.044,23.421z M32.956,18.796l34.366,4.072l-1.636,7.83l-34.034-3.813L32.956,18.796z"></path></g></svg>