<svg xmlns:x="http://ns.adobe.com/Extensibility/1.0/" xmlns:i="http://ns.adobe.com/AdobeIllustrator/10.0/" xmlns:graph="http://ns.adobe.com/Graphs/1.0/" xmlns="http://www.w3.org/2000/svg" xmlns:xlink="http://www.w3.org/1999/xlink" version="1.1" x="0px" y="0px" viewBox="0 0 100 100" enable-background="new 0 0 100 100" xml:space="preserve"><metadata><sfw xmlns="http://ns.adobe.com/SaveForWeb/1.0/"><slices></slices><sliceSourceBounds height="135" width="292" y="-99" x="-192" bottomLeftOrigin="true"></sliceSourceBounds></sfw></metadata><g><rect x="-192" width="185" height="99"></rect><rect y="-36" width="100" height="30"></rect><text transform="matrix(1 0 0 1 66 -19.5)" fill="#000000" font-family="'Helvetica'" font-size="2.4">http://thenounproject.com</text><text transform="matrix(1 0 0 1 7.166 -24.5)"><tspan x="0" y="0" fill="#000000" font-family="'Helvetica-Bold'" font-size="6.1578">The Noun Project</tspan><tspan x="1.12" y="4.8" fill="#000000" font-family="'Helvetica-Bold'" font-size="4">Icon Template</tspan></text><text transform="matrix(1 0 0 1 -178.5 10.5)" fill="#000000" font-family="'Helvetica-Bold'" font-size="6.1578">Reminders</text><line fill="#000000" stroke="#FFFFFF" stroke-miterlimit="10" x1="8" y1="-14.5" x2="18" y2="-14.5"></line><line fill="#000000" stroke="#FFFFFF" stroke-miterlimit="10" x1="-179" y1="16.5" x2="-162" y2="16.5"></line><g><g><g><rect x="-170.802" y="31.318" fill="#000000" width="8.721" height="8.642"></rect><path fill="#000000" d="M-164.455,42.312h4.747v-4.703h-4.747V42.312z M-159.266,42.749h-5.63V37.17h5.63V42.749      L-159.266,42.749z M-166.221,44.062h8.279v-8.203h-8.279V44.062L-166.221,44.062z M-157.5,44.5h-9.163v-9.079h9.163V44.5      L-157.5,44.5z"></path><polygon fill="#000000" points="-166.149,44.133 -166.292,43.991 -158.013,35.787 -157.871,35.929     "></polygon></g></g></g><rect x="-179" y="58" fill="none" width="35" height="32.5"></rect><text transform="matrix(1 0 0 1 -179 60.1572)"><tspan x="0" y="0" fill="#000000" font-family="'Helvetica-Bold'" font-size="3">Strokes</tspan><tspan x="0" y="5" fill="#000000" font-family="'Helvetica'" font-size="2.4">Try to keep strokes at 4px</tspan><tspan x="0" y="10" fill="#000000" font-family="'Helvetica'" font-size="2.4">Minimum stroke weight is 2px</tspan><tspan x="0" y="14.5" fill="#000000" font-family="'Helvetica'" font-size="2.4">For thicker strokes use even </tspan><tspan x="0" y="17.5" fill="#000000" font-family="'Helvetica'" font-size="2.4">numbers: 6px, 8px etc.</tspan><tspan x="0" y="22" fill="#000000" font-family="'Helvetica-Bold'" font-size="2.4">Remember to expand strokes </tspan><tspan x="0" y="25" fill="#000000" font-family="'Helvetica-Bold'" font-size="2.4">before saving as an SVG </tspan></text><rect x="-136.5" y="58" fill="none" width="35" height="32.5"></rect><text transform="matrix(1 0 0 1 -136.5 60.1572)"><tspan x="0" y="0" fill="#000000" font-family="'Helvetica-Bold'" font-size="3">Size</tspan><tspan x="0" y="5" fill="#000000" font-family="'Helvetica'" font-size="2.4">Cannot be wider or taller than </tspan><tspan x="0" y="8.5" fill="#000000" font-family="'Helvetica'" font-size="2.4">100px (artboard size)</tspan><tspan x="0" y="13.5" fill="#000000" font-family="'Helvetica'" font-size="2.4">Scale your icon to fill as much of </tspan><tspan x="0" y="16.5" fill="#000000" font-family="'Helvetica'" font-size="2.4">the artboard as possible</tspan></text><rect x="-94" y="58" fill="none" width="35" height="32.5"></rect><text transform="matrix(1 0 0 1 -94 60.1572)"><tspan x="0" y="0" fill="#000000" font-family="'Helvetica-Bold'" font-size="3">Ungroup</tspan><tspan x="0" y="5" fill="#000000" font-family="'Helvetica'" font-size="2.4">If your design has more than one </tspan><tspan x="0" y="8" fill="#000000" font-family="'Helvetica'" font-size="2.4">shape, make sure to ungroup</tspan></text><rect x="-50" y="58" fill="none" width="35" height="32.5"></rect><text transform="matrix(1 0 0 1 -50 60.1572)"><tspan x="0" y="0" fill="#000000" font-family="'Helvetica-Bold'" font-size="3">Save as</tspan><tspan x="0" y="5" fill="#000000" font-family="'Helvetica'" font-size="2.4">Save as .SVG and make sure </tspan><tspan x="0" y="8" fill="#000000" font-family="'Helvetica'" font-size="2.4">“Use Artboards” is checked</tspan></text><text transform="matrix(1.0074 0 0 1 -125.542 30.5933)" fill="#000000" font-family="'Helvetica'" font-size="2.5731">100px</text><text transform="matrix(1.0074 0 0 1 -41 39)" fill="#000000" font-family="'Helvetica-Bold'" font-size="5.1462">.SVG</text><rect x="-126.514" y="34.815" fill="#000000" width="10.261" height="10.185"></rect><rect x="-126.477" y="31.766" fill="#000000" width="0.522" height="2.337"></rect><rect x="-116.812" y="31.766" fill="#000000" width="0.523" height="2.337"></rect><rect x="-127" y="32.337" fill="#000000" width="11.233" height="0.572"></rect><g><rect x="-83.805" y="33.844" fill="#000000" width="10.305" height="10.156"></rect><rect x="-76.809" y="28.707" fill="#000000" width="3.308" height="3.261"></rect></g><rect x="-178.5" y="22.5" fill="#000000" stroke="#FFFFFF" stroke-miterlimit="10" width="30" height="30"></rect><rect x="-136.5" y="22.5" fill="#000000" stroke="#FFFFFF" stroke-miterlimit="10" width="30" height="30"></rect><rect x="-93.5" y="22.5" fill="#000000" stroke="#FFFFFF" stroke-miterlimit="10" width="30" height="30"></rect><rect x="-49.5" y="22.5" fill="#000000" stroke="#FFFFFF" stroke-miterlimit="10" width="30" height="30"></rect></g><g><path d="M91.438,56.173c-0.395-0.179-0.403-0.27-0.833-0.317L78,52.938v-5.547c0-0.943-3.93-3.412-7.951-4.814l4.479-0.914   l0.109-0.177c0.092-0.079,2.187-1.982,2.187-5.404c0-3.559-3.062-5.349-3.371-5.486c-0.252-0.112-0.53-0.155-0.53-0.155   l-25.681,4.956L47.229,35.4c-2.035,0.074-3.774,1.522-4.54,3.563c-0.488-0.006-0.701-0.021-1.193-0.021   C21.749,38.942,6,43.037,6,48.233v6.452c0,5.196,15.369,9.409,35.117,9.409c10.473,0,19.921-1.185,26.611-3.074l20.115,4.817   C88.196,65.934,88.527,66,88.9,66c1.918,0,3.711-1.259,4.592-3.208C94.672,60.185,93.741,57.216,91.438,56.173z M72.7,32.638   c0.615,0.444,1.932,1.636,1.932,3.427c0,1.936-0.936,3.183-1.332,3.621l-15.564,3.23l-0.062,0.015l-5.688,1.207   c0.254-0.528,0.545-1.172,0.659-1.785c0,0,0.167-0.814,0.147-1.447c-0.029-0.958-0.084-1.036-0.352-1.867s-0.939-1.549-1.591-2.222   L72.7,32.638z M44.456,40.709c0.003-0.03,0.007-0.061,0.011-0.09c0.027-0.186,0.063-0.366,0.111-0.54   c0.004-0.018,0.01-0.036,0.016-0.054c0.107-0.372,0.257-0.717,0.445-1.025c0.543-0.886,1.391-1.46,2.346-1.46   c0.036,0,0.072,0.006,0.108,0.007c0.987,0.046,1.854,0.702,2.366,1.679c0.071,0.133,0.132,0.275,0.188,0.419   c0.012,0.031,0.022,0.062,0.033,0.094c0.106,0.292,0.183,0.603,0.227,0.929c0.005,0.039,0.008,0.078,0.014,0.117   c0.018,0.164,0.029,0.331,0.029,0.501c0,0.177-0.015,0.35-0.035,0.521c-0.019,0.158-0.046,0.312-0.079,0.463   c-0.269,1.243-1.027,2.234-2.003,2.603c-0.27,0.103-0.554,0.159-0.849,0.159c-1.426,0-2.618-1.275-2.902-2.969   c-0.042-0.251-0.065-0.51-0.065-0.776C44.417,41.089,44.433,40.898,44.456,40.709z M42.33,54.723   c-17.619,0-31.901-2.839-31.901-6.339s14.275-6.338,31.887-6.34c0.142,1.268,0.672,2.856,1.645,3.594   c-0.26-0.008,0.04-0.252-1.08-0.252C39.035,45.385,36.168,46,36,47l0,0v1.068c0,0.911,3.048,1.647,7,1.647s7-0.736,7-1.647v-0.677   v-0.383l0.028-0.039l13.92-2.99c5.738,1.146,9.463,2.691,9.463,4.438C73.411,51.917,59.948,54.723,42.33,54.723z M85.126,59.014   c-0.463,1.023-0.602,2.129-0.439,3.176l-12.201-2.911l-3.17-0.756c-0.246-0.509-0.557-1.429-0.15-2.326   c0.477-1.054,1.246-1.57,1.656-1.782l6.096,1.367l8.961,2.008C85.585,58.157,85.329,58.566,85.126,59.014z M90.896,61.625   c-0.473,1.043-1.529,1.699-2.363,1.489l0.002-0.006l-0.127-0.031c-0.025-0.009-0.055-0.011-0.08-0.021   c-0.516-0.234-0.725-0.743-0.805-1.025c-0.16-0.567-0.094-1.241,0.182-1.85c0.41-0.903,1.309-1.541,1.98-1.539   c0.494,0.001,0.688,0.198,0.688,0.198C91.077,59.259,91.421,60.464,90.896,61.625z"></path></g></svg>