<?xml version="1.0" encoding="utf-8"?><!DOCTYPE svg PUBLIC "-//W3C//DTD SVG 1.1//EN" "http://www.w3.org/Graphics/SVG/1.1/DTD/svg11.dtd"><svg version="1.1" xmlns="http://www.w3.org/2000/svg" xmlns:xlink="http://www.w3.org/1999/xlink" x="0px" y="0px" viewBox="0.144 0.145 99.809 100" enable-background="new 0.144 0.145 99.809 100" xml:space="preserve"><g><path d="M92.967,0.145H7.128c-3.857,0-6.984,3.128-6.984,6.983V79.19c0,3.858,17.097,20.954,20.954,20.954h71.87
		c3.857,0,6.985-3.127,6.985-6.982V7.128C99.952,3.271,96.824,0.145,92.967,0.145z M19.255,24.975c-3.856,0-6.983-3.127-6.983-6.984
		V17.7c0-3.856,3.128-6.984,6.983-6.984c3.858,0,6.983,3.128,6.983,6.984v0.291C26.238,21.848,23.113,24.975,19.255,24.975z
		 M79.075,78.971H45.447V65.43c0-3.858-3.127-6.983-6.984-6.983s-6.984,3.127-6.984,6.983v13.541h-9.901V47.511h57.498V78.971z"></path></g></svg>