<svg xmlns="http://www.w3.org/2000/svg" xmlns:xlink="http://www.w3.org/1999/xlink" version="1.1" x="0px" y="0px" viewBox="0 0 100 100" enable-background="new 0 0 100 100" xml:space="preserve"><g><path d="M33.105,72.577c1.435,0,2.869-0.548,3.964-1.643l24.05-24.05l-0.033,9.337C61.075,59.318,63.574,62,66.671,62   c0.008,0,0.014,0,0.021,0c3.085,0,5.596-2.649,5.606-5.737l0.085-22.867c0-0.007-0.003-0.052-0.003-0.059s0.003-0.033,0.003-0.04   c0-0.196-0.041-0.388-0.061-0.577c-0.019-0.182-0.019-0.37-0.055-0.545c-0.044-0.202-0.117-0.394-0.181-0.587   c-0.049-0.154-0.082-0.317-0.145-0.466c-0.082-0.195-0.197-0.372-0.299-0.555c-0.074-0.131-0.134-0.271-0.216-0.396   c-0.118-0.172-0.261-0.323-0.397-0.483c-0.096-0.114-0.181-0.24-0.287-0.348c-0.143-0.143-0.31-0.26-0.466-0.389   c-0.123-0.098-0.232-0.207-0.361-0.295c-0.164-0.111-0.345-0.191-0.518-0.285c-0.145-0.076-0.281-0.17-0.435-0.234   c-0.181-0.076-0.378-0.119-0.567-0.179c-0.161-0.048-0.314-0.114-0.481-0.147c-0.2-0.041-0.408,0.109-0.613,0.089   c-0.17-0.017-0.331,0.1-0.506,0.1c-0.006,0-0.014,0-0.02,0c-0.008,0-0.014,0-0.021,0l-22.79-0.069   c-3.097,0.012-5.596,2.459-5.585,5.555C38.392,36.576,40.899,39,43.987,39c0.007,0,0.014,0,0.022,0l9.182-0.039L29.142,63.01   c-2.189,2.189-2.189,5.738,0,7.926C30.237,72.03,31.672,72.577,33.105,72.577z"></path><path d="M90,15.606C90,12.51,87.49,10,84.394,10H15.606C12.51,10,10,12.51,10,15.606v68.787C10,87.49,12.51,90,15.606,90h68.787   C87.49,90,90,87.49,90,84.394V15.606z M79,79H21V21h58V79z"></path></g></svg>