<svg xmlns="http://www.w3.org/2000/svg" xmlns:xlink="http://www.w3.org/1999/xlink" version="1.1" x="0px" y="0px" viewBox="0 0 100 100" enable-background="new 0 0 100 100" xml:space="preserve"><g><path d="M79.456,11H22.544C19.482,11,17,13.482,17,16.544v67.912C17,87.518,19.482,90,22.544,90h56.912   C82.518,90,85,87.518,85,84.456V16.544C85,13.482,82.518,11,79.456,11z M74,79H28V22h46V79z"></path><path d="M36.921,55h27.722c3.062,0,5.544-2.439,5.544-5.5c0-3.062-2.482-5.5-5.544-5.5H36.921c-3.062,0-5.544,2.438-5.544,5.5   C31.377,52.561,33.859,55,36.921,55z"></path><path d="M36.921,39h27.722c3.062,0,5.544-2.438,5.544-5.5S67.704,28,64.643,28H36.921c-3.062,0-5.544,2.438-5.544,5.5   S33.859,39,36.921,39z"></path><path d="M68.73,64.576c-0.082,0-0.138,0.012-0.217,0.027c-0.187-1.204-0.638-2.317-1.314-3.27c0.06-0.044,0.125-0.087,0.179-0.141   c0.518-0.518,0.521-1.354,0.004-1.868l-0.021-0.024c-0.518-0.517-1.352-0.517-1.868,0c-0.055,0.054-0.102,0.116-0.145,0.176   c-1.025-0.721-2.233-1.198-3.542-1.349C61.794,57.412,61.211,57,60.49,57h-0.032c-0.731,0-1.321,0.418-1.321,1.148   c0,0.072,0.011,0.056,0.021,0.126c-1.202,0.205-2.312,0.648-3.254,1.344c-0.005-0.003-0.008-0.03-0.011-0.036   c-0.517-0.515-1.354-0.525-1.868-0.011l-0.023,0.019c-0.518,0.515-0.518,1.349,0,1.865c0.019,0.02,0.04,0.028,0.059,0.044   c-0.631,0.942-1.061,2.034-1.227,3.204c0.026-0.005,0.08-0.01,0.113-0.012C52.231,64.701,52,65.286,52,66.009v0.035   c0,0.728,0.232,1.318,0.963,1.318c0.076,0-0.029-0.009,0.047-0.021c0.17,1.267,0.56,2.436,1.269,3.432   c-0.02,0.017-0.086,0.03-0.103,0.047c-0.517,0.517-0.54,1.353-0.022,1.867l0.011,0.024c0.518,0.518,1.349,0.518,1.865,0   c0.021-0.021,0.032-0.046,0.054-0.07c0.934,0.649,2.015,1.097,3.185,1.28c-0.011,0.065-0.022,0.408-0.022,0.476   c0,0.731,0.593,1.604,1.32,1.604h0.036c0.728,0,1.32-0.872,1.32-1.604c0-0.057-0.011-0.25-0.016-0.305   c1.27-0.162,2.441-0.707,3.442-1.41c0.044,0.062,0.09,0.086,0.146,0.144c0.515,0.514,1.351,0.495,1.868-0.019l0.021-0.033   c0.517-0.514,0.517-1.354,0-1.871c-0.055-0.054-0.113-0.104-0.174-0.147c0.724-1.018,1.205-2.22,1.362-3.521   c0.07,0.01,0.085,0.02,0.157,0.02c0.729,0,1.27-0.593,1.27-1.321v-0.035C70,65.17,69.459,64.576,68.73,64.576z M61.802,58   c-0.003,0-0.005,0-0.008,0C61.796,58,61.799,58,61.802,58z"></path></g></svg>