<svg xmlns="http://www.w3.org/2000/svg" xmlns:xlink="http://www.w3.org/1999/xlink" version="1.1" x="0px" y="0px" viewBox="0 0 100 100" enable-background="new 0 0 100 100" xml:space="preserve"><g><rect x="-192" width="185" height="99"></rect><rect y="-36" width="100" height="30"></rect><text transform="matrix(1 0 0 1 66 -19.5)" fill="#000000" font-family="'Helvetica'" font-size="2.4">http://thenounproject.com</text><text transform="matrix(1 0 0 1 7.166 -24.5)"><tspan x="0" y="0" fill="#000000" font-family="'Helvetica-Bold'" font-size="6.1578">The Noun Project</tspan><tspan x="1.12" y="4.8" fill="#000000" font-family="'Helvetica-Bold'" font-size="4">Icon Template</tspan></text><text transform="matrix(1 0 0 1 -178.5 10.5)" fill="#000000" font-family="'Helvetica-Bold'" font-size="6.1578">Reminders</text><line fill="#000000" stroke="#FFFFFF" stroke-miterlimit="10" x1="8" y1="-14.5" x2="18" y2="-14.5"></line><line fill="#000000" stroke="#FFFFFF" stroke-miterlimit="10" x1="-179" y1="16.5" x2="-162" y2="16.5"></line><g><g><g><rect x="-170.802" y="31.318" fill="#000000" width="8.721" height="8.642"></rect><path fill="#000000" d="M-164.455,42.312h4.747v-4.703h-4.747V42.312z M-159.266,42.749h-5.63V37.17h5.63V42.749      L-159.266,42.749z M-166.221,44.062h8.279v-8.203h-8.279V44.062L-166.221,44.062z M-157.5,44.5h-9.163v-9.079h9.163V44.5      L-157.5,44.5z"></path><polygon fill="#000000" points="-166.149,44.133 -166.292,43.991 -158.013,35.787 -157.871,35.929     "></polygon></g></g></g><rect x="-179" y="58" fill="none" width="35" height="32.5"></rect><text transform="matrix(1 0 0 1 -179 60.1299)"><tspan x="0" y="0" fill="#000000" font-family="'Helvetica-Bold'" font-size="3">Strokes</tspan><tspan x="0" y="5" fill="#000000" font-family="'Helvetica'" font-size="2.4">Try to keep strokes at 4px</tspan><tspan x="0" y="10" fill="#000000" font-family="'Helvetica'" font-size="2.4">Minimum stroke weight is 2px</tspan><tspan x="0" y="14.5" fill="#000000" font-family="'Helvetica'" font-size="2.4">For thicker strokes use even </tspan><tspan x="0" y="17.5" fill="#000000" font-family="'Helvetica'" font-size="2.4">numbers: 6px, 8px etc.</tspan><tspan x="0" y="22" fill="#000000" font-family="'Helvetica-Bold'" font-size="2.4">Remember to expand strokes </tspan><tspan x="0" y="25" fill="#000000" font-family="'Helvetica-Bold'" font-size="2.4">before saving as an SVG </tspan></text><rect x="-136.5" y="58" fill="none" width="35" height="32.5"></rect><text transform="matrix(1 0 0 1 -136.5 60.1299)"><tspan x="0" y="0" fill="#000000" font-family="'Helvetica-Bold'" font-size="3">Size</tspan><tspan x="0" y="5" fill="#000000" font-family="'Helvetica'" font-size="2.4">Cannot be wider or taller than </tspan><tspan x="0" y="8.5" fill="#000000" font-family="'Helvetica'" font-size="2.4">100px (artboard size)</tspan><tspan x="0" y="13.5" fill="#000000" font-family="'Helvetica'" font-size="2.4">Scale your icon to fill as much of </tspan><tspan x="0" y="16.5" fill="#000000" font-family="'Helvetica'" font-size="2.4">the artboard as possible</tspan></text><rect x="-94" y="58" fill="none" width="35" height="32.5"></rect><text transform="matrix(1 0 0 1 -94 60.1299)"><tspan x="0" y="0" fill="#000000" font-family="'Helvetica-Bold'" font-size="3">Ungroup</tspan><tspan x="0" y="5" fill="#000000" font-family="'Helvetica'" font-size="2.4">If your design has more than one </tspan><tspan x="0" y="8" fill="#000000" font-family="'Helvetica'" font-size="2.4">shape, make sure to ungroup</tspan></text><rect x="-50" y="58" fill="none" width="35" height="32.5"></rect><text transform="matrix(1 0 0 1 -50 60.1299)"><tspan x="0" y="0" fill="#000000" font-family="'Helvetica-Bold'" font-size="3">Save as</tspan><tspan x="0" y="5" fill="#000000" font-family="'Helvetica'" font-size="2.4">Save as .SVG and make sure </tspan><tspan x="0" y="8" fill="#000000" font-family="'Helvetica'" font-size="2.4">“Use Artboards” is checked</tspan></text><text transform="matrix(1.0074 0 0 1 -125.542 30.5933)" fill="#000000" font-family="'Helvetica'" font-size="2.5731">100px</text><text transform="matrix(1.0074 0 0 1 -41 39)" fill="#000000" font-family="'Helvetica-Bold'" font-size="5.1462">.SVG</text><rect x="-126.514" y="34.815" fill="#000000" width="10.261" height="10.185"></rect><rect x="-126.477" y="31.766" fill="#000000" width="0.522" height="2.337"></rect><rect x="-116.813" y="31.766" fill="#000000" width="0.523" height="2.337"></rect><rect x="-127" y="32.337" fill="#000000" width="11.233" height="0.572"></rect><g><rect x="-83.805" y="33.844" fill="#000000" width="10.305" height="10.156"></rect><rect x="-76.809" y="28.707" fill="#000000" width="3.308" height="3.261"></rect></g><rect x="-178.5" y="22.5" fill="#000000" stroke="#FFFFFF" stroke-miterlimit="10" width="30" height="30"></rect><rect x="-136.5" y="22.5" fill="#000000" stroke="#FFFFFF" stroke-miterlimit="10" width="30" height="30"></rect><rect x="-93.5" y="22.5" fill="#000000" stroke="#FFFFFF" stroke-miterlimit="10" width="30" height="30"></rect><rect x="-49.5" y="22.5" fill="#000000" stroke="#FFFFFF" stroke-miterlimit="10" width="30" height="30"></rect></g><g><path d="M81.361,29.72l-4.486-0.554c0.06-1.022,0.068-2.032,0.03-3.025l1.017,0.278c0.069,0.019,0.14,0.028,0.208,0.028   c0.345,0,0.66-0.229,0.756-0.577c0.114-0.417-0.132-0.849-0.549-0.963l-0.77-0.21l2.062-0.932c0.395-0.179,0.569-0.643,0.391-1.038   c-0.179-0.395-0.644-0.569-1.037-0.391l-2.315,1.048c-0.13-0.964-0.309-1.904-0.535-2.815l3.675-3.057   c0.333-0.277,0.379-0.771,0.102-1.104c-0.277-0.333-0.771-0.379-1.104-0.102l-3.016,2.509l0.348-1.753   c0.084-0.425-0.191-0.837-0.617-0.922c-0.329-0.065-0.649,0.088-0.816,0.358c-0.171-0.363-0.352-0.715-0.539-1.058l0,0   c0.199-0.385,0.049-0.858-0.336-1.057l-0.431-0.224c-0.073-0.111-0.148-0.22-0.224-0.329l2.581-1.468   c0.377-0.214,0.509-0.693,0.294-1.069c-0.214-0.376-0.691-0.508-1.069-0.294l-2.769,1.575c-0.851-1.004-1.796-1.862-2.819-2.557   l2.265-1.019c0.396-0.178,0.571-0.642,0.394-1.037s-0.642-0.571-1.036-0.394l-3.573,1.485C67.384,9.025,68,8.999,67,8.973v-0.69   c0-0.433-0.066-0.784-0.5-0.784c-0.433,0-0.5,0.351-0.5,0.784v0.109c0-0.053-0.372-0.107-0.555-0.151   c-1.067-0.26-2.262-0.522-3.469-0.675l0.59-2.916c0.086-0.425-0.19-0.838-0.615-0.925c-0.425-0.086-0.839,0.188-0.925,0.613   l-0.63,3.104c-0.124-0.004-0.41-0.01-0.533-0.01C58.889,7.43,58,7.547,57,7.782V4.493c0-0.433-0.566-0.784-1-0.784   c-0.433,0-1,0.351-1,0.784v3.925c0,0.004,0.362,0.009,0.354,0.014l-1.078-0.704c-0.378-0.21-0.762-0.074-0.971,0.305   c-0.211,0.378-0.027,0.856,0.352,1.066l0.636,0.341c-1.238,1.114-2.206,2.704-2.946,4.804l-4.717-2.72   c-0.375-0.216-0.852-0.087-1.068,0.288c-0.216,0.375-0.085,0.855,0.29,1.071l4.85,2.792l-1.263,0.505   c-0.402,0.161-0.598,0.617-0.437,1.02c0.123,0.307,0.417,0.493,0.728,0.493c0.097,0,0.195-0.018,0.291-0.056l0.474-0.189   c-0.193,0.945-0.357,1.958-0.489,3.047L46.52,19.18c-0.405-0.153-0.857,0.052-1.01,0.457c-0.153,0.405,0.052,0.857,0.457,1.01   l3.87,1.459c-0.002,0.023-0.005,0.045-0.007,0.069l-0.96,0.792c-0.334,0.276-0.381,0.77-0.105,1.104   c0.155,0.188,0.379,0.285,0.605,0.285c0.109,0,0.217-0.025,0.319-0.071c-0.018,0.481-0.023,0.961-0.016,1.439   c-0.282-0.118-0.618-0.066-0.851,0.16c-0.311,0.302-0.318,0.798-0.016,1.109l0.989,1.018c0.01,0.106,0.021,0.213,0.032,0.32   l-3.856,1.432c-0.406,0.151-0.613,0.602-0.462,1.008c0.118,0.316,0.417,0.511,0.735,0.511c0.091,0,0.183-0.016,0.272-0.049   l3.513-1.304c0.198,1.3,0.473,2.577,0.807,3.822L47.94,35.15c-0.39,0.188-0.553,0.657-0.365,1.047   c0.188,0.39,0.658,0.554,1.047,0.365l2.801-1.283C51.561,35.719,51,36.154,52,36.584v0.056c0,0.204-0.065,0.389,0.063,0.528   c0.301,0.824,0.549,1.629,0.887,2.413l-3.672,0.597c-0.427,0.07-0.735,0.474-0.665,0.901s0.465,0.716,0.892,0.646l4.045-0.665   c0.007,0.015,0.012,0.03,0.019,0.045l-0.604,1.516c-0.159,0.403,0.036,0.858,0.438,1.019c0.096,0.038,0.192,0.056,0.289,0.056   c0.312,0,0.606-0.187,0.729-0.494l0.083-0.209c0.276,0.529,0.558,1.044,0.84,1.545l-3.467,1.02   c-0.416,0.122-0.653,0.558-0.531,0.974s0.559,0.653,0.974,0.531l3.838-1.129c0.063,0.104,0.126,0.209,0.188,0.313l-0.1,0.819   c-0.053,0.43,0.253,0.821,0.684,0.873c0.032,0.004,0.063,0.006,0.096,0.006c0.122,0,0.238-0.031,0.343-0.083   c0.272,0.416,0.541,0.815,0.805,1.197c-0.42,0.015-0.757,0.358-0.757,0.781c0,0.186,0.065,0.356,0.173,0.491L55.6,51.198   c-0.193,0.084-0.334,0.238-0.409,0.419l-0.13-1.456c-0.038-0.432-0.422-0.749-0.851-0.711c-0.431,0.039-0.749,0.419-0.711,0.851   l0.411,4.614l-1.408-0.847c-0.37-0.224-0.853-0.104-1.076,0.268c-0.223,0.371-0.103,0.853,0.269,1.076l1.069,0.643   c-0.836,0.763-1.549,1.546-2.144,2.284l-3.046-0.889c-0.417-0.121-0.851,0.117-0.973,0.533c-0.041,0.139-0.038,0.279-0.004,0.411   c-0.968-0.664-2.047-1.386-3.169-2.102c-0.002-0.001-0.003-0.002-0.006-0.004l2.111-2.474c0.281-0.329,0.242-0.824-0.087-1.105   c-0.33-0.281-1.063-0.242-1.345,0.088L42,54.979v-1.285c0-0.433-0.066-0.784-0.5-0.784S41,53.262,41,53.694v1.352   c-1-0.126-0.711-0.243-1.058-0.353c0.024-0.229-0.435-0.465-0.609-0.639C39.077,53.798,39,53.757,38,53.93v-2.013   c0-0.433-0.066-0.784-0.5-0.784S37,51.484,37,51.917v2.121c0-0.069-0.741-0.13-1.162-0.179c0.002-0.201-0.033-0.404-0.186-0.56   c-0.291-0.294-0.737-0.309-1.047-0.044l0.126-1.663c0.03-0.433-0.291-0.807-0.723-0.837c-0.433-0.03-0.804,0.296-0.834,0.728   l-0.153,2.216c-1.063,0.004-2.112,0.078-3.119,0.218l-0.674-2.577c-0.11-0.419-0.538-0.669-0.957-0.561   c-0.419,0.11-0.67,0.538-0.56,0.957l0.534,2.041l-0.127-0.084c-0.361-0.238-0.848-0.139-1.086,0.223   c-0.13,0.198-0.157,0.433-0.097,0.645c-0.508,0.155-0.973,0.323-1.391,0.501l-0.712-2.017c-0.145-0.408-0.592-0.622-1-0.478   c-0.409,0.144-0.623,0.592-0.479,1l0.625,1.769c-0.222,0.033-0.429,0.161-0.555,0.367c-0.123,0.201-0.141,0.435-0.076,0.644   c-0.85,0.693-1.309,1.409-1.552,2.016c-0.016,0.041-0.026,0.084-0.042,0.125l-3.073,0.21c-0.432,0.029-0.758,0.403-0.729,0.836   c0.03,0.432,0.404,0.761,0.836,0.729l2.692-0.184l-0.249,0.35c-0.25,0.354-0.167,0.843,0.186,1.094   c0.138,0.098,0.296,0.145,0.453,0.145c0.021,0,0.042-0.006,0.063-0.007c0.069,0.145,0.145,0.287,0.231,0.429   c0.19,0.313,0.462,0.624,0.797,0.932l-0.801,0.25c-0.414,0.13-0.644,0.569-0.515,0.982c0.105,0.335,0.414,0.551,0.749,0.551   c0.077,0,0.156-0.012,0.233-0.036l1.633-0.51c0.055,0.171,0.167,0.323,0.331,0.426c0.263,0.165,0.585,0.152,0.832-0.002   c0.944,0.507,1.997,0.975,3.054,1.383c-0.18,0.267-0.187,0.626,0.014,0.9c0.153,0.21,0.392,0.321,0.633,0.321   c0.161,0,0.323-0.049,0.462-0.151l0.622-0.454c1.401,0.456,2.708,0.78,3.659,0.916c0.409,0.06,0.839,0.128,1.285,0.201l-1.31,1.412   c-0.294,0.317-0.276,0.813,0.042,1.108c0.151,0.141,0.342,0.209,0.533,0.209c0.21,0,0.42-0.084,0.575-0.25l2.012-2.168   c0.055,0.009,0.109,0.018,0.164,0.026l0.382,0.896c0.17,0.399,0.632,0.584,1.029,0.414c0.398-0.17,0.583-0.631,0.414-1.029   l-0.002-0.004c0.59,0.079,1.168,0.142,1.728,0.182L40.58,68.78c-0.256,0.35-0.182,0.84,0.167,1.097   c0.14,0.104,0.303,0.152,0.465,0.152c0.241,0,0.478-0.11,0.632-0.318l0.744-1.01c-0.009,0.317,0.175,0.622,0.486,0.748l3.784,1.534   c0.101,0.896,0.252,1.822,0.443,2.755c-0.287-0.107-0.623-0.039-0.845,0.198c-0.296,0.316-0.28,0.813,0.036,1.108l1.442,1.351   c0.029,0.105,0.059,0.211,0.088,0.316l-2.369,0.737c-0.414,0.128-0.645,0.567-0.516,0.98c0.104,0.337,0.414,0.552,0.748,0.552   c0.077,0,0.156-0.012,0.233-0.035l1.619-0.504c-0.213,0.348-0.128,0.805,0.208,1.045c0.138,0.1,0.298,0.147,0.456,0.147   c0.168,0,0.333-0.058,0.47-0.161c0.086,0.255,0.173,0.505,0.26,0.751l-3.465,1.01c-0.416,0.121-0.655,0.556-0.534,0.972   c0.122,0.416,0.556,0.655,0.972,0.534l3.537-1.031l-0.216,0.601c-0.146,0.408,0.065,0.857,0.473,1.004   c0.087,0.031,0.177,0.046,0.265,0.046c0.063,0,0.125-0.01,0.186-0.024c0.459,1.054,0.879,1.883,1.195,2.375   c1.422,2.212,2.246,4.97,2.254,4.996c0.005,0.016,0.013,0.03,0.019,0.046c-6.998,0.482-13.156,2.542-13.445,2.641   c-0.41,0.14-0.63,0.584-0.491,0.994c0.139,0.41,0.584,0.521,0.995,0.382C40.953,94.742,48.686,92,56.44,92c0.04,0,0.08,0,0.12,0   c7.781,0,21.341,4.173,21.478,4.214c0.075,0.023,0.152,0.089,0.227,0.089c0.337,0,0.648-0.191,0.751-0.531   c0.125-0.414-0.109-0.838-0.524-0.963c-0.474-0.144-9.844-2.943-17.59-3.871c0.1-0.206,0.157-0.433,0.157-0.677   c0-0.058-0.003-0.114-0.009-0.17c0.015-0.226,0.162-1.35,1.612-2.386l0.229-0.162c0.276-0.195,0.61-0.433,0.984-0.709l1.24,1.473   c0.154,0.185,0.376,0.279,0.6,0.279c0.179,0,0.357-0.06,0.505-0.184c0.331-0.279,0.374-0.773,0.095-1.105l-0.925-1.099l0.224,0.029   c0.428,0.057,0.823-0.247,0.879-0.677c0.031-0.245-0.057-0.477-0.216-0.643c0.255-0.224,0.516-0.461,0.779-0.708   c0.027,0.003,0.093,0.008,0.122,0.008c0.434,0,0.822-0.351,0.822-0.783v-0.07c0-0.015-0.01-0.028,0.004-0.043l1.969,1.18   c0.126,0.074,0.254,0.109,0.39,0.109c0.268,0,0.524-0.137,0.671-0.384c0.221-0.373,0.096-0.854-0.277-1.074l-1.697-1.007   c0.951-1.083,1.884-2.317,2.723-3.709l2.055,1.113c0.119,0.064,0.245,0.095,0.372,0.095c0.278,0,0.548-0.148,0.69-0.41   c0.206-0.381,0.064-0.857-0.316-1.063l-1.001-0.542c0.184-0.144,0.301-0.477,0.301-0.727c0-0.434-0.351-0.893-0.784-0.893h-0.142   c0.276,0,0.532-1.104,0.763-1.746c0.142,0.113,0.314,0.229,0.491,0.229c0.152,0,0.308-0.017,0.442-0.11   c0.357-0.245,0.448-0.72,0.203-1.077l-0.052-0.067l1.715,0.551c0.413,0.131,0.854-0.095,0.985-0.507   c0.132-0.413-0.096-0.854-0.509-0.985l-2.46-0.783c0.223-1.038,0.381-2.125,0.454-3.268c0.01-0.149,0.012-0.293,0.019-0.44   l0.132,0.035c0.067,0.018,0.135,0.026,0.201,0.026c0.348,0,0.665-0.232,0.758-0.583c0.095-0.358-0.074-0.726-0.388-0.893   l1.839-0.87c0.392-0.186,0.559-0.653,0.373-1.045c-0.185-0.391-0.652-0.559-1.044-0.373l-1.927,0.912   c-0.084-0.931-0.229-1.807-0.426-2.625l3.661-1.632c0.396-0.177,0.573-0.64,0.396-1.036c-0.177-0.396-0.639-0.573-1.035-0.396   l-3.367,1.501l0.004-0.01c0.139-0.41-0.081-0.855-0.491-0.995c-0.004-0.001-0.009-0.002-0.014-0.003   c-0.192-0.459-0.399-0.896-0.618-1.31c0.381-0.102,0.635-0.47,0.575-0.868c-0.026-0.188-0.118-0.349-0.248-0.467l2.476-1.864   c0.346-0.261,0.415-0.752,0.155-1.098c-0.262-0.347-0.753-0.416-1.099-0.154l-3.164,2.383c-0.743-1.003-1.524-1.821-2.251-2.473   c0.295-0.213,0.41-0.61,0.256-0.956l-0.513-1.142l3.01,1.069c0.409,0.145,0.857-0.068,1.002-0.477s-0.068-0.856-0.477-1.002   l-3.075-1.091c0.317-0.539,0.651-1.125,0.995-1.754c0.146,0.198,0.38,0.318,0.628,0.318c0.069,0,0.139-0.009,0.208-0.028   c0.418-0.115,0.663-0.546,0.549-0.964l-0.294-1.073l4.166,1.989c0.391,0.187,0.859,0.021,1.045-0.37   c0.188-0.391,0.021-0.859-0.369-1.045l-4.29-2.047c0.354-0.748,0.706-1.53,1.049-2.343l0.4,0.415c0.153,0.16,0.359,0.24,0.564,0.24   c0.195,0,0.392-0.073,0.544-0.22c0.312-0.301,0.32-0.693,0.021-1.005L74.368,42h3.896c0.434,0,0.784-0.567,0.784-1   s-0.351-1-0.784-1h-3.771c0.283,0,0.553-1.499,0.801-2.333c0.154,0.195,0.382,0.355,0.614,0.355c0.164,0,0.329-0.023,0.47-0.128   c0.347-0.26,0.417-0.738,0.157-1.084l-0.396-0.521l3.048,0.469c0.425,0.066,0.827-0.227,0.894-0.654   c0.064-0.428-0.229-0.828-0.657-0.893l-3.332-0.509c0.174-0.79,0.327-1.589,0.451-2.397c0.006-0.04,0.011-0.079,0.017-0.119   l0.167,0.169c0.153,0.155,0.355,0.233,0.559,0.233c0.198,0,0.397-0.075,0.551-0.226c0.308-0.304,0.311-0.801,0.007-1.109   l-0.437-0.442l3.764,0.464c0.43,0.053,0.821-0.252,0.874-0.682C82.097,30.165,81.791,29.773,81.361,29.72z M60.024,10.567   c1.509,0,3.205,0.364,4.665,0.72c6.547,1.597,10.31,10.549,8.754,20.663C72.026,41.155,66.697,50,65.114,52h-0.913   c-2.245-3-12.223-15.156-11.341-28.244C53.635,12.271,56.761,10.567,60.024,10.567z M55.255,52.343   c0.146,0.227,0.397,0.358,0.659,0.358c0.104,0,0.211-0.021,0.313-0.065l3.443-1.503c0.254,0.337,0.495,0.649,0.723,0.938   c-1.895,0.387-3.555,1.102-4.985,1.982L55.255,52.343z M49.62,59.682c-0.138,0.201-0.264,0.393-0.38,0.574   c-0.46-0.333-1.012-0.727-1.635-1.163L49.62,59.682z M24.845,60.46c-0.275-0.453-0.209-0.75-0.136-0.934   c0.118-0.296,0.726-1.321,3.584-2.097c1.434-0.39,3.099-0.595,4.814-0.595c3.342,0,6.57,0.785,8.634,2.102   c2.552,1.628,4.926,3.323,6.16,4.223l-0.485,1.569c-0.091-0.002-0.185-0.003-0.284-0.003c-0.73,0-2.196,0.079-3.802,0.614   c-0.226,0.075-0.655,0.165-1.422,0.165c-1.501,0-3.443-0.329-5.321-0.647c-0.8-0.136-1.555-0.263-2.275-0.366   C30.994,64.018,25.506,61.549,24.845,60.46z M44.52,68.344c0.044-0.037,0.084-0.079,0.121-0.126   c0.836-0.241,1.605-0.321,2.102-0.346c-0.025,0.438-0.03,0.896-0.016,1.365L44.52,68.344z M71.86,68.088   c-0.629,9.738-8.273,15.142-10.786,16.926l-0.235,0.307C59.19,86.498,58.464,88,58.148,89h-1.717c-0.419-1-1.179-3.17-2.248-4.834   c-1.444-2.246-5.203-12.576-4.161-17.178l1.167-3.757C51.672,62.273,55.596,55,63.493,55h2.039   C66.904,56,72.412,59.524,71.86,68.088z"></path></g></svg>