<svg xmlns="http://www.w3.org/2000/svg" xmlns:xlink="http://www.w3.org/1999/xlink" version="1.1" x="0px" y="0px" viewBox="0 0 100 100" enable-background="new 0 0 100 100" xml:space="preserve"><g><rect x="-192" width="185" height="99"></rect><rect y="-36" width="100" height="30"></rect><text transform="matrix(1 0 0 1 66 -19.5)" fill="#000000" font-family="'Helvetica'" font-size="2.4">http://thenounproject.com</text><text transform="matrix(1 0 0 1 7.166 -24.5)"><tspan x="0" y="0" fill="#000000" font-family="'Helvetica-Bold'" font-size="6.1578">The Noun Project</tspan><tspan x="1.12" y="4.8" fill="#000000" font-family="'Helvetica-Bold'" font-size="4">Icon Template</tspan></text><text transform="matrix(1 0 0 1 -178.5 10.5)" fill="#000000" font-family="'Helvetica-Bold'" font-size="6.1578">Reminders</text><line fill="#000000" stroke="#FFFFFF" stroke-miterlimit="10" x1="8" y1="-14.5" x2="18" y2="-14.5"></line><line fill="#000000" stroke="#FFFFFF" stroke-miterlimit="10" x1="-179" y1="16.5" x2="-162" y2="16.5"></line><g><g><g><rect x="-170.802" y="31.318" fill="#000000" width="8.721" height="8.642"></rect><path fill="#000000" d="M-164.455,42.312h4.747v-4.703h-4.747V42.312z M-159.266,42.749h-5.63V37.17h5.63V42.749      L-159.266,42.749z M-166.221,44.062h8.279v-8.203h-8.279V44.062L-166.221,44.062z M-157.5,44.5h-9.163v-9.079h9.163V44.5      L-157.5,44.5z"></path><polygon fill="#000000" points="-166.149,44.133 -166.292,43.991 -158.013,35.787 -157.871,35.929     "></polygon></g></g></g><rect x="-179" y="58" fill="none" width="35" height="32.5"></rect><text transform="matrix(1 0 0 1 -179 60.1299)"><tspan x="0" y="0" fill="#000000" font-family="'Helvetica-Bold'" font-size="3">Strokes</tspan><tspan x="0" y="5" fill="#000000" font-family="'Helvetica'" font-size="2.4">Try to keep strokes at 4px</tspan><tspan x="0" y="10" fill="#000000" font-family="'Helvetica'" font-size="2.4">Minimum stroke weight is 2px</tspan><tspan x="0" y="14.5" fill="#000000" font-family="'Helvetica'" font-size="2.4">For thicker strokes use even </tspan><tspan x="0" y="17.5" fill="#000000" font-family="'Helvetica'" font-size="2.4">numbers: 6px, 8px etc.</tspan><tspan x="0" y="22" fill="#000000" font-family="'Helvetica-Bold'" font-size="2.4">Remember to expand strokes </tspan><tspan x="0" y="25" fill="#000000" font-family="'Helvetica-Bold'" font-size="2.4">before saving as an SVG </tspan></text><rect x="-136.5" y="58" fill="none" width="35" height="32.5"></rect><text transform="matrix(1 0 0 1 -136.5 60.1299)"><tspan x="0" y="0" fill="#000000" font-family="'Helvetica-Bold'" font-size="3">Size</tspan><tspan x="0" y="5" fill="#000000" font-family="'Helvetica'" font-size="2.4">Cannot be wider or taller than </tspan><tspan x="0" y="8.5" fill="#000000" font-family="'Helvetica'" font-size="2.4">100px (artboard size)</tspan><tspan x="0" y="13.5" fill="#000000" font-family="'Helvetica'" font-size="2.4">Scale your icon to fill as much of </tspan><tspan x="0" y="16.5" fill="#000000" font-family="'Helvetica'" font-size="2.4">the artboard as possible</tspan></text><rect x="-94" y="58" fill="none" width="35" height="32.5"></rect><text transform="matrix(1 0 0 1 -94 60.1299)"><tspan x="0" y="0" fill="#000000" font-family="'Helvetica-Bold'" font-size="3">Ungroup</tspan><tspan x="0" y="5" fill="#000000" font-family="'Helvetica'" font-size="2.4">If your design has more than one </tspan><tspan x="0" y="8" fill="#000000" font-family="'Helvetica'" font-size="2.4">shape, make sure to ungroup</tspan></text><rect x="-50" y="58" fill="none" width="35" height="32.5"></rect><text transform="matrix(1 0 0 1 -50 60.1299)"><tspan x="0" y="0" fill="#000000" font-family="'Helvetica-Bold'" font-size="3">Save as</tspan><tspan x="0" y="5" fill="#000000" font-family="'Helvetica'" font-size="2.4">Save as .SVG and make sure </tspan><tspan x="0" y="8" fill="#000000" font-family="'Helvetica'" font-size="2.4">“Use Artboards” is checked</tspan></text><text transform="matrix(1.0074 0 0 1 -125.542 30.5933)" fill="#000000" font-family="'Helvetica'" font-size="2.5731">100px</text><text transform="matrix(1.0074 0 0 1 -41 39)" fill="#000000" font-family="'Helvetica-Bold'" font-size="5.1462">.SVG</text><rect x="-126.514" y="34.815" fill="#000000" width="10.261" height="10.185"></rect><rect x="-126.477" y="31.766" fill="#000000" width="0.522" height="2.337"></rect><rect x="-116.813" y="31.766" fill="#000000" width="0.523" height="2.337"></rect><rect x="-127" y="32.337" fill="#000000" width="11.233" height="0.572"></rect><g><rect x="-83.805" y="33.844" fill="#000000" width="10.305" height="10.156"></rect><rect x="-76.809" y="28.707" fill="#000000" width="3.308" height="3.261"></rect></g><rect x="-178.5" y="22.5" fill="#000000" stroke="#FFFFFF" stroke-miterlimit="10" width="30" height="30"></rect><rect x="-136.5" y="22.5" fill="#000000" stroke="#FFFFFF" stroke-miterlimit="10" width="30" height="30"></rect><rect x="-93.5" y="22.5" fill="#000000" stroke="#FFFFFF" stroke-miterlimit="10" width="30" height="30"></rect><rect x="-49.5" y="22.5" fill="#000000" stroke="#FFFFFF" stroke-miterlimit="10" width="30" height="30"></rect></g><g><path fill="#000000" d="M88.609,19.633c-2.49-1.82-5.432-2.782-8.508-2.782c-0.021,0-0.042,0.001-0.063,0.001   c0.525-0.931,0.726-2.003,0.56-3.077c-0.196-1.263-0.873-2.375-1.905-3.129c-0.825-0.604-1.801-0.923-2.822-0.923   c-1.522,0-2.968,0.733-3.866,1.961c-0.755,1.032-1.063,2.296-0.866,3.559c0.196,1.264,0.873,2.375,1.905,3.13   c0.088,0.064,0.179,0.124,0.271,0.182c-1.897,1.01-3.575,2.436-4.871,4.208c-0.048,0.065-0.089,0.136-0.121,0.209l-8.813,19.989   c-0.32,0.451-0.595,0.921-0.828,1.403c-1.273-0.313-2.603-0.481-3.971-0.481c-2.443,0-4.763,0.532-6.856,1.48l-1.663-3.323   c-0.036-0.072-0.08-0.141-0.131-0.204c-2.273-2.811-5.652-4.423-9.271-4.423c-1.2,0-2.39,0.185-3.526,0.539   c0.466-1.823,0.305-3.812-0.597-5.616L28.067,15.25c-0.021-0.078-0.05-0.154-0.088-0.226c-0.483-0.931-1.08-1.775-1.763-2.528   c1.889-0.641,3.253-2.427,3.253-4.53c0-2.639-2.147-4.786-4.787-4.786c-2.639,0-4.786,2.147-4.786,4.786   c0,0.314,0.032,0.62,0.09,0.917c-0.84-0.186-1.707-0.286-2.592-0.286c-1.895,0-3.79,0.464-5.481,1.343   c-2.825,1.466-4.909,3.945-5.869,6.98c-0.96,3.035-0.681,6.261,0.786,9.085c0.037,0.072,0.082,0.14,0.134,0.202l11.333,13.59   c1.416,2.628,4.136,4.255,7.131,4.255h0c0.232,0,0.465-0.014,0.696-0.034c-0.624,1.254-1.027,2.623-1.18,4.059   c-0.334,3.164,0.583,6.271,2.584,8.745c0.051,0.063,0.108,0.12,0.171,0.171l11.544,9.233l4.291,19.542   c0.067,6.104,5.054,11.05,11.174,11.05c6.119,0,11.105-4.945,11.173-11.05l5.481-24.964c0.018-0.079,0.026-0.159,0.026-0.24   c0-1.018-0.097-2.013-0.272-2.98c1.602-0.658,3.022-1.735,4.083-3.146l16.376-14.459c0.062-0.053,0.116-0.113,0.163-0.179   C96.437,33.377,95.032,24.331,88.609,19.633z M73.814,13.009c0.478-0.652,1.246-1.042,2.056-1.042c0.542,0,1.06,0.17,1.498,0.49   c0.549,0.401,0.908,0.992,1.013,1.663c0.104,0.671-0.06,1.343-0.46,1.892c-0.478,0.652-1.246,1.042-2.057,1.042   c-0.541,0-1.059-0.169-1.498-0.491c-0.548-0.4-0.907-0.991-1.012-1.663C73.25,14.229,73.414,13.558,73.814,13.009z M24.683,5.424   c1.402,0,2.543,1.141,2.543,2.543s-1.141,2.543-2.543,2.543S22.14,9.369,22.14,7.967S23.281,5.424,24.683,5.424z M25.428,41.81   C25.428,41.81,25.428,41.81,25.428,41.81c-2.197,0-4.189-1.209-5.2-3.157c-0.038-0.072-0.083-0.14-0.134-0.202L8.767,24.867   c-1.144-2.267-1.352-4.844-0.584-7.27c0.779-2.463,2.472-4.476,4.764-5.666c1.393-0.724,2.89-1.09,4.448-1.09   c3.59,0,6.85,1.956,8.538,5.113l4.595,17.08c0.021,0.078,0.05,0.154,0.088,0.226c1.074,2.069,0.782,4.487-0.54,6.233   c-0.5,0.661-1.145,1.228-1.925,1.639c-0.011,0.006-0.021,0.013-0.033,0.019C27.276,41.588,26.371,41.81,25.428,41.81z    M38.054,60.806l0.425,1.938L29.2,55.32c-1.573-1.993-2.292-4.477-2.024-7.006c0.215-2.033,1.049-3.903,2.382-5.399   c0.352-0.395,0.736-0.765,1.155-1.104c0.295-0.238,0.601-0.456,0.916-0.656c1.542-0.98,3.305-1.496,5.16-1.496   c2.899,0,5.608,1.274,7.452,3.499l1.635,3.268c-4.708,2.952-7.847,8.185-7.847,14.14C38.028,60.646,38.037,60.727,38.054,60.806z    M63.666,85.404c-0.018,0.079-0.026,0.16-0.026,0.241c0,4.924-4.007,8.931-8.931,8.931c-4.925,0-8.931-4.007-8.931-8.931   c0-0.081-0.009-0.162-0.026-0.241l-3.68-16.762l-0.806-3.672l-0.993-4.524c0.041-5.029,2.668-9.45,6.611-12.004   c0.626-0.405,1.286-0.764,1.973-1.07c1.791-0.797,3.77-1.244,5.853-1.244c1.11,0,2.19,0.13,3.23,0.369   c0.739,0.17,1.458,0.396,2.15,0.675c3.91,1.577,6.975,4.815,8.316,8.838c0.235,0.706,0.42,1.437,0.544,2.187   c0.121,0.733,0.189,1.484,0.195,2.25L63.666,85.404z M89.999,38.38L73.627,52.835c-0.061,0.054-0.115,0.113-0.162,0.178   c-0.758,1.036-1.765,1.843-2.904,2.37c-1.545-4.713-5.135-8.504-9.717-10.324c0.161-0.299,0.343-0.591,0.549-0.873   c0.047-0.065,0.088-0.135,0.12-0.209l8.812-19.983c2.291-3.07,5.938-4.899,9.777-4.899c2.597,0,5.08,0.813,7.184,2.35   C92.678,25.388,93.882,32.961,89.999,38.38z"></path></g></svg>