<svg xmlns="http://www.w3.org/2000/svg" xmlns:xlink="http://www.w3.org/1999/xlink" version="1.1" x="0px" y="0px" viewBox="0 0 100 100" enable-background="new 0 0 100 100" xml:space="preserve"><g><path fill-rule="evenodd" clip-rule="evenodd" fill="#000000" d="M96.842,63.041h3.159v7.971h-3.159v7.809H84.383v-7.809h-7.804   v7.809H64.115v-7.809h-7.804v7.809H43.853v-7.809h-7.972v7.809H23.589v-7.809h-7.976v7.809H3.321v-7.809H0v-7.971h3.321V41.443H0   v-7.809h3.321v-4.482l6.146-7.973l6.146,7.973v4.482h7.976v-4.482l6.15-7.973l6.142,7.973v4.482h7.972v-4.482l6.146-7.973   l6.313,7.973v4.482h7.804v-4.482l6.146-7.973l6.317,7.973v4.482h7.804v-4.482l6.146-7.973l6.312,7.973v4.482h3.159v7.809h-3.159   V63.041V41.443V63.041z M23.589,41.443h-7.976v21.598h7.976V41.443z M43.853,41.443h-7.972v21.598h7.972V41.443z M64.115,41.443   h-7.804v21.598h7.804V41.443z M84.383,41.443h-7.804v21.598h7.804V41.443z"></path></g></svg>