<svg xmlns="http://www.w3.org/2000/svg" xmlns:xlink="http://www.w3.org/1999/xlink" version="1.1" x="0px" y="0px" viewBox="0 0 100 100" enable-background="new 0 0 100 100" xml:space="preserve"><g><path fill-rule="evenodd" clip-rule="evenodd" d="M50.004,28.388l-7.885,5.849l7.885,5.421l7.877-5.421L50.004,28.388z    M13.305,47.115L13.305,47.115c0-0.699,0.568-1.27,1.273-1.27l4.15,0.083c0.705,0,1.271,0.533,1.271,1.187v20   c0,0.657-0.566,1.191-1.271,1.191h-4.15c-0.705,0-1.273-0.534-1.273-1.191V47.115z M21.697,47.115L21.697,47.115   c0-0.699,0.531-1.27,1.186-1.27l4.15,0.083c0.656,0,1.191,0.533,1.191,1.187v20c0,0.657-0.535,1.191-1.191,1.191h-4.15   c-0.654,0-1.186-0.534-1.186-1.191V47.115z M80,47.115L80,47.115c0-0.699,0.57-1.27,1.273-1.27l4.154,0.083   c0.701,0,1.266,0.533,1.266,1.187v20c0,0.657-0.564,1.191-1.266,1.191h-4.154c-0.703,0-1.273-0.534-1.273-1.191V47.115z    M71.695,47.115L71.695,47.115c0-0.699,0.531-1.27,1.188-1.27c0.029,0,0.055,0,0.084,0.005l4.154,0.083   c0.621,0.046,1.1,0.561,1.1,1.182v20c0,0.625-0.479,1.141-1.1,1.187h-4.154c-0.029,0-0.055,0.005-0.084,0.005   c-0.656,0-1.188-0.534-1.188-1.191V47.115z M55.424,53.813L55.424,53.813c0,0.699-0.568,1.27-1.271,1.27h-8.305   c-0.699,0-1.27-0.57-1.27-1.27v-6.698c0-0.699,0.57-1.27,1.27-1.27l8.305,0.083c0.703,0,1.271,0.533,1.271,1.187V53.813z    M41.865,53.813L41.865,53.813c0,0.699-0.57,1.27-1.273,1.27l-8.301-0.005c-0.031,0.005-0.059,0.005-0.086,0.005   c-0.656,0-1.186-0.57-1.186-1.27v-6.698c0-0.699,0.529-1.27,1.186-1.27c0.027,0,0.055,0,0.086,0.005l8.301,0.078   c0.703,0,1.273,0.533,1.273,1.187V53.813z M68.986,53.813L68.986,53.813c0,0.699-0.574,1.27-1.275,1.27l-8.301-0.005   c-0.031,0.005-0.059,0.005-0.088,0.005c-0.654,0-1.186-0.57-1.186-1.27v-6.698c0-0.699,0.531-1.27,1.186-1.27   c0.029,0,0.057,0,0.088,0.005l8.301,0.078c0.701,0,1.275,0.533,1.275,1.187V53.813z M89.578,53.813L89.578,53.813   c0,0.699,0.57,1.27,1.271,1.27h4.068c0.889,0,1.611-0.759,1.611-1.696c0-0.143-0.02-0.29-0.059-0.433l-1.432-6.184   c-0.156-0.548-0.656-0.925-1.225-0.925H90.85c-0.701,0-1.271,0.57-1.271,1.27V53.813z M10.426,53.813L10.426,53.813   c0,0.699-0.57,1.27-1.273,1.27h-4.07H5c-0.887,0-1.609-0.759-1.609-1.696c0-0.143,0.02-0.29,0.053-0.433l1.52-6.184   c0.156-0.548,0.656-0.925,1.223-0.925h2.967c0.703,0,1.273,0.57,1.273,1.27V53.813z M100,70.086h-8.303v1.691h-5.004l-0.082,0.005   c-0.047,1.756-1.459,3.168-3.217,3.214c-0.029,0.005-0.062,0.005-0.086,0.005c-1.795,0-3.258-1.431-3.305-3.219L80,71.777h-4.998   l-0.088,0.005c-0.043,1.756-1.457,3.168-3.217,3.214c-0.029,0.005-0.059,0.005-0.086,0.005c-1.791,0-3.256-1.431-3.305-3.219   H31.609c-0.047,1.788-1.514,3.219-3.303,3.219c-1.791,0-3.258-1.431-3.305-3.219L25,71.777h-5l-0.084,0.005   c-0.047,1.788-1.514,3.219-3.307,3.219c-1.791,0-3.256-1.431-3.301-3.219l-0.004-0.005H8.307v-1.691H0V55.083l2.871-11.526   c0.271-1.095,1.256-1.862,2.383-1.862h24.744h8.309l1.172-1.2c0.318-0.317,0.752-0.497,1.201-0.497h1.016h1.609h5.002l-8.303-5.761   l7.881-5.849v-2.542c0-0.47,0.379-0.847,0.846-0.847h2.541c0.471,0,0.848,0.377,0.848,0.847v2.542l7.885,5.849l-8.309,5.761h5   h1.611h1.016c0.449,0,0.883,0.18,1.199,0.497l1.174,1.2H70h24.75c1.123,0,2.107,0.768,2.383,1.862L100,55.083V70.086z"></path></g></svg>