<?xml version="1.0" encoding="utf-8"?><!DOCTYPE svg PUBLIC "-//W3C//DTD SVG 1.1//EN" "http://www.w3.org/Graphics/SVG/1.1/DTD/svg11.dtd"><svg version="1.1" xmlns="http://www.w3.org/2000/svg" xmlns:xlink="http://www.w3.org/1999/xlink" x="0px" y="0px" viewBox="8.635 0.001 82.728 100" enable-background="new 8.635 0.001 82.728 100" xml:space="preserve"><g><path d="M62.46,48.254c-2.583,3.248,1.615,0.789-1.019,3.982c1.93-0.272,3.771-1.25,5.895-1.424
		c3.436-0.281,6.557,1.131,9.351,1.832c1.041-0.856,1.39-2.407,2.029-3.661c2.682-0.089,5.041,2.321,6.914,0.61
		c0.602,0.888,1.499,1.483,1.621,2.846c1.791,1.045,3.736,1.992,4.064,4.065c0.432,2.655-2.168,6.943-5.894,6.504
		c-1.121-0.135-1.894-0.827-3.045-1.425c-0.313,3.928,1.522,6.062,3.045,8.539c0.86,1.395,2.237,2.896,2.44,4.471
		c0.631,4.917-1.856,11.947-4.674,13.821v2.439c-1.604,2.088-5.764,3.033-7.928,0.811c-0.109-1.26,1.506-0.798,2.031-1.422
		c0.798-1.573,2.191-2.549,3.25-3.864c0.244-1.126,0.102-2.315,0.207-3.454c0.176-1.859,1.059-3.678,1.016-5.08
		c-0.056-1.845-1.507-3.727-2.236-5.282c-0.602-1.285-1.875-4.242-3.047-4.472c-1.162-0.227-2.214,0.841-3.456,1.42
		c-3.504,1.648-6.873,2.86-11.178,3.456c-0.307,0.44-1.808-1.227-2.035-1.219c-0.256,0.011-3.049,2.361-3.656,2.643
		c-3.047,1.41-6.021,1.968-9.758,2.845c-1.562,0.367-3.675,0.638-4.674,1.423c-2.208,1.737-2.904,7.871-3.048,11.179
		c-0.085,1.971,0.066,3.762,0,5.487c0.25,0.931-0.712,0.644-0.813,1.22c0.08,1.434,0.016,2.727-0.61,3.457
		c-1.685-0.145-3.635-0.025-4.671-0.812c-3.072,1.771-8.371-0.908-9.959-3.252c0.73-1.445,2.538-1.218,4.065-0.611
		c0.975-0.377,1.634-1.073,2.437-1.626c1.422-3.48,2.304-8.2,2.846-13.005c0.266-2.344,0.394-4.771,1.424-6.099
		c1.741-2.242,5.298-2.354,7.314-4.676c-2.949,0.21-5.535-0.095-7.52,1.016c-1.44,0.807-2.371,2.267-3.659,3.455
		c-3.582,3.307-6.834,6.792-11.384,9.35c-0.787,0.127-0.834,0.17-1.419-0.202c-1.32,0.803-2.779,2.479-4.475,2.234
		c-0.93-0.696-1.403-1.848-1.424-3.457c-0.199-0.766-1.079-0.94-1.422-1.621c-1.249-2.486-1.124-7.949,1.422-7.727
		c1.989,0.177,1.541,3.004,3.049,4.064c2.96-2.317,5.822-5.449,8.944-8.331c2.928-2.705,6.324-5.924,9.96-7.116
		c0.181-0.058,0.605-0.2,0.61-0.2c5.114-0.898,10.704,1.319,15.646,0.811c2.938-0.299,5.038-1.498,6.709-3.86
		c-3.659-1.024-7.092-2.306-10.161-4.471c-0.858-0.604-1.899-1.896-2.644-2.032c-1.116-0.203-2.158,0.76-3.253,0.814
		c-0.919,0.309-0.436-0.781-0.811-1.019c-1.203,0.765-1.767,2.165-3.862,2.032c-1.416-3.269,2.903-5.345,5.486-5.69
		c2.599-0.348,3.908,0.465,6.099,1.219c3.44,1.184,7.74,2.761,11.381,3.458c0.166,0.037,0.201,0.203,0.406,0.199
		c1.577-2.398-0.082-4.107-0.082-4.107l-2.561-5.646V23.579c-7.812,6.645-23.98,21.949-23.98,21.949L29.938,0.001
		c0,0,7.649,1.078,11.587,0c-0.335,8.914-0.33,16.649-0.409,25.203c7.116-6.188,14.477-13.916,21.947-20.528l0.24,0.305L63.68,4.88
		v39.848c0,0-3.615,2.259-1.613,2.002l2.73-0.626L62.46,48.254z"></path><polygon points="60.245,44.485 69.695,41.826 60.245,56.016 50.285,41.826 	"></polygon><polygon points="60.245,44.485 69.695,41.826 60.245,56.016 50.285,41.826 	"></polygon></g></svg>