<svg xmlns="http://www.w3.org/2000/svg" xmlns:xlink="http://www.w3.org/1999/xlink" version="1.1" x="0px" y="0px" viewBox="0 0 100 100" enable-background="new 0 0 100 100" xml:space="preserve"><g><path fill-rule="evenodd" clip-rule="evenodd" d="M44.985,43.41l1.207-2.538C28.539,45.343,14.028,57.918,7.134,74.967   l12.458,15.239c8.581-1.574,11.362-2.663,18.86-7.138c-0.722-3.745-0.961-6.891-0.961-10.758   C37.49,62.152,40.025,52.237,44.985,43.41 M77.023,38.937l11.129-6.045c2.896-1.574,4.714-4.596,4.714-7.858   c0-4.96-3.995-8.948-8.948-8.948c-2.663,0-5.202,1.207-6.895,3.264l-8.102,9.673c-0.964,1.089-2.05,2.178-3.142,3.267   c0.36,3.867,1.567,7.734,3.503,11.122l0.485,0.847c1.574-1.571,2.539-2.3,3.385-2.903C74,40.629,74.728,40.146,77.023,38.937    M66.987,44.739c5.077,9.312,7.137,16.931,7.137,27.571c0,10.64-2.06,18.256-7.137,27.564L47.284,100   c-4.72-8.466-7.137-18.021-7.137-27.689c0-9.676,2.417-19.228,7.137-27.689c3.743-6.652,4.831-14.269,3.503-21.645L48.37,10.644   c-0.367-1.813-0.125,0-0.125-1.695C48.245,3.995,52.233,0,57.078,0c4.949,0,8.944,3.995,8.944,8.948   c0,1.695,0.243-0.118-0.121,1.695l-2.417,12.454C62.027,30.471,63.241,37.969,66.987,44.739"></path></g></svg>