<svg xmlns="http://www.w3.org/2000/svg" xmlns:xlink="http://www.w3.org/1999/xlink" version="1.1" x="0px" y="0px" viewBox="0 0 100 100" enable-background="new 0 0 100 100" xml:space="preserve"><g><g><path fill="#000000" d="M97.3,73.55c-0.01-5.574-4.959-10.54-4.959-10.54c-5.718-0.408-12.931,3.404-15.815,5.09    c0.438-0.016,0.892-0.027,1.368-0.027C82.814,68.072,89.893,69.101,97.3,73.55z"></path><path fill="#000000" d="M94.492,73.334c-6.873-3.547-13.265-4.198-17.606-4.067c-2.828,0.085-4.786,0.498-5.436,0.652    c-1.043,1.939-1.589,4.514-1.871,6.444c1.646-0.312,4.718-0.72,8.702-0.459c5.195,0.339,12.912,1.937,20.824,7.477    c0.808-3.18,0.876-5.792,0.874-6.62C98.136,75.39,96.299,74.265,94.492,73.334z"></path><path fill="#000000" d="M23.623,30.403c1.93-0.283,4.502-0.829,6.438-1.867C30.508,26.625,33.126,13,23.22,0    c-0.031,0-0.063,0-0.1,0c-1.082,0-3.583,0.099-6.546,0.833c5.566,7.928,7.168,15.665,7.507,20.868    C24.34,25.688,23.933,28.758,23.623,30.403z"></path><path fill="#000000" d="M69.733,77.549c-0.114,0.022-0.215,0.042-0.314,0.062c-0.097,0.891-0.124,1.47-0.125,1.487l-0.017,0.376    l-0.349,0.145c-0.432,0.181-0.888,0.271-1.358,0.271c-4.191,0-8.88-7.128-13.845-14.675c-2.865-4.354-5.574-8.468-8.032-10.926    c-2.458-2.458-6.572-5.167-10.929-8.033c-8.371-5.506-16.276-10.709-14.403-15.205l0.145-0.347l0.376-0.017    c0.018,0,0.598-0.028,1.49-0.126c0.02-0.099,0.04-0.2,0.062-0.316c0.7-3.769,2.048-16.13-6.881-28.798    c-0.066-0.094-0.137-0.187-0.203-0.281C9.388,2.947,2.157,7.414,0.6,18.561l-0.046,0.163c-0.07,0.158-6.692,16.507,28.707,51.933    C54.793,96.188,70.312,99.999,77.29,99.999c2.645,0,3.958-0.566,3.972-0.57l0.158-0.046c11.063-1.549,15.537-8.842,17.343-14.786    c-0.074-0.055-0.15-0.112-0.227-0.165C85.863,75.5,73.499,76.85,69.733,77.549z"></path></g></g></svg>