<svg xmlns="http://www.w3.org/2000/svg" xmlns:xlink="http://www.w3.org/1999/xlink" version="1.1" x="0px" y="0px" viewBox="0 0 100 100" enable-background="new 0 0 100 100" xml:space="preserve"><g><path fill="#000000" d="M49.538,94.347c-22.884,0-41.501-18.617-41.501-41.501c0-22.884,18.618-41.502,41.501-41.502   c22.884,0,41.501,18.618,41.501,41.502C91.039,75.729,72.422,94.347,49.538,94.347z M49.538,16.344   c-20.127,0-36.501,16.375-36.501,36.502c0,20.127,16.375,36.501,36.501,36.501c20.127,0,36.501-16.374,36.501-36.501   C86.039,32.718,69.665,16.344,49.538,16.344z"></path></g><g><path fill="#000000" d="M57.076,59.685c0,0,4.465,13.872,8.401,20.102c0,0,3.896,1.748,2.148,6.816c0,0,19.053,0.206,20.913-29.204   c0,0-11.299-2.958-14.445-8.201c0,0,4.371-3.496,3.846-6.468c0,0-6.059-0.699-6.875,2.622c0,0-8.981-5.191-13.988-2.683   c0,0-8.853,1.017-9.376-0.685c0,0-11.886,3.192,0,12.283C47.7,54.267,57.95,56.524,57.076,59.685z"></path></g><g><path fill="#000000" d="M55.817,57.386c0,0-10.536-4.341-11.402-3.023c0,0-1.993-1.517,1.564-1.517"></path></g><g><path fill="#000000" d="M11.888,42.161l10.115,3.856c0,0,1.998,7.938,5.681,8.389l6.307-1.361c0,0,0-1.467-2.599-1.516L28,51.918   c0,0-0.413-9.714-3.372-11.042c-0.248-0.111-0.513-0.164-0.796-0.147c-3.684,0.217-7.801-5.2-7.801-5.2L11.888,42.161z"></path></g><g><polygon fill="#000000" points="30,48.252 30,50.696 32.389,50.035 31.628,48.734  "></polygon></g><g><polygon fill="#000000" points="34,49.474 34,51.918 32.893,51.257 33.226,49.957  "></polygon></g><g><polygon fill="#000000" points="36.435,48.991 36.435,50.696 35.333,50.234 35.663,49.328  "></polygon></g><g><path fill="#000000" d="M50.583,54.588c0,0,5.417,5.086,9.417,5.086c2,0,0,0.799,0,0.799S55.98,52.859,50.583,54.588z"></path></g><g><rect x="48.163" y="14.765" transform="matrix(0.8206 0.5715 -0.5715 0.8206 39.7229 -18.81)" fill="#000000" width="3.324" height="78.211"></rect></g></svg>