<?xml version="1.0" encoding="utf-8"?><!DOCTYPE svg PUBLIC "-//W3C//DTD SVG 1.1//EN" "http://www.w3.org/Graphics/SVG/1.1/DTD/svg11.dtd"><svg version="1.1" xmlns="http://www.w3.org/2000/svg" xmlns:xlink="http://www.w3.org/1999/xlink" x="0px" y="0px" viewBox="0 21.875 100 56.25" enable-background="new 0 21.875 100 56.25" xml:space="preserve"><path d="M51.312,21.875c-5.184,0-9.975,1.68-13.875,4.5h27.687C61.246,23.555,56.482,21.875,51.312,21.875z"></path><path d="M33,30.5c-1.135,1.375-2.102,2.891-2.906,4.5h42.312c-0.807-1.614-1.771-3.121-2.906-4.5H33z"></path><path d="M28.5,39.125c-0.41,1.451-0.686,2.95-0.812,4.5h63.718c-2.932-1.897-6.403-3-10.156-3c-2.34,0-4.568,0.47-6.625,1.25
	c-0.15-0.948-0.368-1.843-0.625-2.75H28.5z"></path><path d="M21.062,47.75c-2.041,1.037-3.774,2.58-5,4.5h82.532c-0.668-1.626-1.551-3.141-2.625-4.5H21.062z"></path><path d="M14.344,56.375c-0.192,0.879-0.282,1.814-0.282,2.75c0,0.087,0.032,0.163,0.032,0.25c-1.008-0.302-2.054-0.531-3.156-0.531
	c-2.363,0-4.557,0.758-6.344,2.031h95.344c0.039-0.499,0.062-0.991,0.062-1.5c0-1.025-0.092-2.02-0.25-3H14.344L14.344,56.375z"></path><path d="M1.094,65C0.428,66.366,0.041,67.889,0,69.5h97.031c0.893-1.385,1.589-2.896,2.094-4.5H1.094L1.094,65z"></path><path d="M0.844,73.625c1.66,3.193,5.562,4.5,10.094,4.5H81.25c4.652,0,8.91-1.698,12.188-4.5H0.844z"></path></svg>