<?xml version="1.0" encoding="utf-8"?><!DOCTYPE svg PUBLIC "-//W3C//DTD SVG 1.1//EN" "http://www.w3.org/Graphics/SVG/1.1/DTD/svg11.dtd"><svg version="1.1" xmlns="http://www.w3.org/2000/svg" xmlns:xlink="http://www.w3.org/1999/xlink" x="0px" y="0px" viewBox="-0.001 15 100 70" enable-background="new -0.001 15 100 70" xml:space="preserve"><rect x="33.469" y="15" width="3.125" height="11.938"></rect><rect x="15.519" y="22.732" transform="matrix(0.5291 0.8485 -0.8485 0.5291 30.7337 -6.7899)" width="11.932" height="3.13"></rect><polygon points="53.344,20.25 50.594,18.719 44.812,29.156 47.562,30.688 "></polygon><polygon points="14.938,38.625 16.438,35.875 6.062,30.094 4.531,32.844 "></polygon><polygon points="6.062,30.094 6.062,30.094 6.062,30.094 "></polygon><path d="M84.811,54.656c-1.203,0-2.334,0.197-3.437,0.469c-2.147-7.959-9.313-13.875-17.937-13.875c-3.692,0-7.108,1.081-10,2.938
	C50.988,36.3,43.689,30.562,35.03,30.562c-10.675,0-19.312,8.695-19.312,19.407c0,9.055,6.173,16.619,14.531,18.75
	c-3.104,1.594-5.25,4.819-5.25,8.531c0,2.641,1.214,4.854,3.062,6.094c1.508,1.012,3.31,1.457,5.219,1.594V85h1.313h1.812h22.75
	h13.375h12.281c8.363,0,15.188-6.823,15.188-15.188S93.175,54.656,84.811,54.656z M84.811,81.438H72.529H59.154H34.593
	c-1.933,0-3.553-0.405-4.532-1.062c-0.978-0.657-1.5-1.449-1.5-3.125c0-3.348,2.681-6.031,6.032-6.031
	c0.554,0,1.13,0.126,1.75,0.312l2.281,0.688v-2.406v-0.188c0-4.066,3.246-7.312,7.313-7.312c-0.059,0,0.097,0.035,0.5,0.062l2,0.125
	l-0.094-2c-0.022-0.488-0.063-0.646-0.063-0.531c0-8.384,6.767-15.157,15.158-15.157c7.564,0,13.762,5.572,14.905,12.813
	l0.312,2.156L80.718,59c1.3-0.493,2.669-0.781,4.093-0.781c6.437,0,11.627,5.159,11.627,11.594S91.246,81.438,84.811,81.438z"></path><polygon points="65.843,33.656 64.249,30.938 53.968,36.906 55.529,39.625 "></polygon><rect x="-0.001" y="47.5" width="11.906" height="3.125"></rect><polygon points="3.499,65 5.124,67.656 15.218,61.312 13.561,58.656 "></polygon><polygon points="16.249,79.406 18.968,80.906 24.749,70.469 21.999,68.938 "></polygon></svg>