<svg xmlns="http://www.w3.org/2000/svg" xmlns:xlink="http://www.w3.org/1999/xlink" version="1.1" x="0px" y="0px" viewBox="0 0 100 100" enable-background="new 0 0 100 100" xml:space="preserve"><path d="M82.445,38.771L58.906,15.232c-0.692-0.69-1.461-1.25-2.278-1.7c0.002-0.005,0.008-0.005,0.008-0.016  c0.724-1.443,1.119-3.313,1.119-5.263c0-3.771-1.414-6.865-3.606-7.888C53.63,0.123,53.086-0.002,52.528,0  c-3.031,0-5.229,3.474-5.224,8.252c-0.002,1.794,0.326,3.43,0.898,4.763c-1.248,0.487-2.424,1.211-3.432,2.219l-4.195,4.198  c-3.906,3.903-3.906,10.231-0.003,14.132L23.505,50.638c-6.567,6.565-8.245,12.273-8.807,17.761  c-0.563,5.489,2.323,13.627,6.409,18.091l2.516,2.747c4.086,4.464,12.938,10.589,16.82,10.761c3.877,0.172,9.133-5.789,9.776-9.443  c0.638-3.648-2.729-8.294-2.729-11.28c0-2.982,3.502-8.925,7.781-13.203l8.906-8.906c0.833,0.82,1.773,1.466,2.778,1.935  c3.701,1.724,8.24,1.06,11.292-1.995l4.195-4.197C86.349,49.002,86.349,42.677,82.445,38.771z M52.528,4.651  c0.347,0.542,0.826,1.75,0.826,3.602s-0.479,3.057-0.826,3.602c-0.349-0.544-0.825-1.75-0.825-3.602S52.18,5.193,52.528,4.651z   M27.8,77.078c-0.672,0.666-1.669,0.81-2.479,0.432c-0.229-0.106-0.445-0.255-0.635-0.447c-0.852-0.862-0.849-2.256,0.016-3.112  c2.391-2.364,3.604-4.906,3.604-7.544c0-4.487-3.477-8.061-3.513-8.094c-0.862-0.854-0.87-2.25-0.016-3.112  c0.856-0.864,2.247-0.87,3.112-0.019c0.198,0.198,4.82,4.844,4.82,11.225C32.706,70.263,31.055,73.854,27.8,77.078z M79.33,49.794  l-4.195,4.198c-1.658,1.656-4.197,2.104-6.32,1.114c-0.588-0.273-1.125-0.648-1.591-1.117L43.688,30.453  c-2.182-2.18-2.182-5.729,0-7.909l4.198-4.195c1.656-1.656,4.198-2.109,6.323-1.117c0.584,0.271,1.12,0.646,1.586,1.117  L79.33,41.883c1.058,1.055,1.639,2.461,1.639,3.956S80.388,48.737,79.33,49.794z"></path></svg>