<svg xmlns="http://www.w3.org/2000/svg" xmlns:xlink="http://www.w3.org/1999/xlink" version="1.1" x="0px" y="0px" viewBox="0 0 100 100" enable-background="new 0 0 100 100" xml:space="preserve"><g><g><path d="M61.521,28.942c-1.116-0.251-2.192-0.378-3.197-0.378c-2.075,0-3.664,0.552-4.475,1.555    c-0.626,0.776-0.803,1.829-0.522,3.13c1.517,7.069,4.078,10.222,8.305,10.222c5.445,0,7.642-1.744,7.833-6.219    C69.6,34.128,67.584,30.304,61.521,28.942z M61.757,42c-3.46,0-5.455-2.58-6.615-7.985c-0.767-3.573,2.787-4.546,6.614-3.686    c4.527,1.017,6.385,3.932,6.269,6.634C67.865,40.661,65.912,42,61.757,42z"></path><path d="M43.743,28.564c-1.005,0-2.081,0.127-3.197,0.378c-6.062,1.361-8.079,5.186-7.943,8.311    c0.191,4.475,2.388,6.219,7.833,6.219c4.227,0,6.788-3.153,8.305-10.222c0.28-1.301,0.104-2.354-0.522-3.13    C47.407,29.117,45.818,28.564,43.743,28.564z M46.925,34.015C45.765,39.42,43.77,42,40.31,42c-4.155,0-6.108-1.339-6.268-5.037    c-0.116-2.702,1.741-5.617,6.269-6.634C44.138,29.469,47.691,30.441,46.925,34.015z"></path><path d="M51,4.004c-13.785,0-25,11.219-25,25.004c0,7.623,3.439,14.453,8.838,19.038c0,0,8.163,5.955,8.163,16.955h16    c0-11,8.161-16.954,8.161-16.954C72.561,43.462,76,36.625,76,29.002C76,15.217,64.785,4.004,51,4.004z M49.719,33.459    c-1.635,7.616-4.497,11.012-9.283,11.012c-5.976,0-8.617-2.146-8.833-7.176c-0.146-3.367,2.053-7.831,8.725-9.329    c1.188-0.267,2.337-0.402,3.416-0.402c2.418,0,4.233,0.666,5.252,1.926C49.821,30.513,50.064,31.848,49.719,33.459z M60.757,10.6    c0.245,0.118,6.031,2.966,8.209,8.758l-1.873,0.704c-1.898-5.051-7.152-7.635-7.205-7.661L60.757,10.6z M56.753,8.499    c0.584,0,1.058,0.474,1.058,1.058s-0.474,1.058-1.058,1.058s-1.058-0.474-1.058-1.058S56.169,8.499,56.753,8.499z M61.631,44.472    c-4.786,0-7.648-3.396-9.283-11.012c-0.346-1.611-0.103-2.947,0.724-3.969c1.019-1.26,2.834-1.926,5.252-1.926    c1.079,0,2.229,0.135,3.416,0.402c6.672,1.498,8.87,5.961,8.725,9.329C70.248,42.326,67.606,44.472,61.631,44.472z"></path><rect x="35" y="73" width="32" height="8"></rect><rect x="43" y="67" width="16" height="4"></rect></g></g></svg>