<svg xmlns="http://www.w3.org/2000/svg" xmlns:xlink="http://www.w3.org/1999/xlink" version="1.1" x="0px" y="0px" viewBox="0 0 100 100" enable-background="new 0 0 100 100" xml:space="preserve"><g><rect x="-192" width="185" height="99"></rect><rect y="-36" width="100" height="30"></rect><text transform="matrix(1 0 0 1 66 -19.5)" fill="#000000" font-family="'HelveticaNeueLTPro-Ex'" font-size="2.4">http://thenounproject.com</text><text transform="matrix(1 0 0 1 7.166 -24.5)" fill="#000000" font-family="'HelveticaNeueLTPro-Ex'" font-size="6.1578">The Noun Project</text><text transform="matrix(1 0 0 1 8.2861 -19.7002)" fill="#000000" font-family="'HelveticaNeueLTPro-Ex'" font-size="4">Icon Template</text><text transform="matrix(1 0 0 1 -178.5 10.5)" fill="#000000" font-family="'HelveticaNeueLTPro-Ex'" font-size="6.1578">Reminders</text><line fill="#000000" stroke="#FFFFFF" stroke-miterlimit="10" x1="8" y1="-14.5" x2="18" y2="-14.5"></line><line fill="#000000" stroke="#FFFFFF" stroke-miterlimit="10" x1="-179" y1="16.5" x2="-162" y2="16.5"></line><g><g><g><rect x="-170.802" y="31.318" fill="#000000" width="8.721" height="8.642"></rect><path fill="#000000" d="M-164.455,42.312h4.747v-4.703h-4.747V42.312z M-159.266,42.749h-5.63V37.17h5.63V42.749      L-159.266,42.749z M-166.221,44.062h8.279v-8.203h-8.279V44.062L-166.221,44.062z M-157.5,44.5h-9.163v-9.079h9.163V44.5      L-157.5,44.5z"></path><polygon fill="#000000" points="-166.149,44.133 -166.292,43.991 -158.013,35.787 -157.871,35.929     "></polygon></g></g></g><rect x="-179" y="58" fill="none" width="35" height="32.5"></rect><text transform="matrix(1 0 0 1 -179 60.1299)" fill="#000000" font-family="'HelveticaNeueLTPro-Ex'" font-size="3">Strokes</text><text transform="matrix(1 0 0 1 -179 65.1299)" fill="#000000" font-family="'HelveticaNeueLTPro-Ex'" font-size="2.4">Try to keep strokes at 4px</text><text transform="matrix(1 0 0 1 -179 70.1299)" fill="#000000" font-family="'HelveticaNeueLTPro-Ex'" font-size="2.4">Minimum stroke weight is 2px</text><text transform="matrix(1 0 0 1 -179 74.6299)" fill="#000000" font-family="'HelveticaNeueLTPro-Ex'" font-size="2.4">For thicker strokes use even </text><text transform="matrix(1 0 0 1 -179 77.6299)" fill="#000000" font-family="'HelveticaNeueLTPro-Ex'" font-size="2.4">numbers: 6px, 8px etc.</text><text transform="matrix(1 0 0 1 -179 82.1299)" fill="#000000" font-family="'HelveticaNeueLTPro-Ex'" font-size="2.4">Remember to expand strokes </text><text transform="matrix(1 0 0 1 -179 85.1299)" fill="#000000" font-family="'HelveticaNeueLTPro-Ex'" font-size="2.4">before saving as an SVG </text><rect x="-136.5" y="58" fill="none" width="35" height="32.5"></rect><text transform="matrix(1 0 0 1 -136.5 60.1299)" fill="#000000" font-family="'HelveticaNeueLTPro-Ex'" font-size="3">Size</text><text transform="matrix(1 0 0 1 -136.5 65.1299)" fill="#000000" font-family="'HelveticaNeueLTPro-Ex'" font-size="2.4">Cannot be wider or taller than </text><text transform="matrix(1 0 0 1 -136.5 68.6299)" fill="#000000" font-family="'HelveticaNeueLTPro-Ex'" font-size="2.4">100px (artboard size)</text><text transform="matrix(1 0 0 1 -136.5 73.6299)" fill="#000000" font-family="'HelveticaNeueLTPro-Ex'" font-size="2.4">Scale your icon to fill as much of </text><text transform="matrix(1 0 0 1 -136.5 76.6299)" fill="#000000" font-family="'HelveticaNeueLTPro-Ex'" font-size="2.4">the artboard as possible</text><rect x="-94" y="58" fill="none" width="35" height="32.5"></rect><text transform="matrix(1 0 0 1 -94 60.1299)" fill="#000000" font-family="'HelveticaNeueLTPro-Ex'" font-size="3">Ungroup</text><text transform="matrix(1 0 0 1 -94 65.1299)" fill="#000000" font-family="'HelveticaNeueLTPro-Ex'" font-size="2.4">If your design has more than one </text><text transform="matrix(1 0 0 1 -94 68.1299)" fill="#000000" font-family="'HelveticaNeueLTPro-Ex'" font-size="2.4">shape, make sure to ungroup</text><rect x="-50" y="58" fill="none" width="35" height="32.5"></rect><text transform="matrix(1 0 0 1 -50 60.1299)" fill="#000000" font-family="'HelveticaNeueLTPro-Ex'" font-size="3">Save as</text><text transform="matrix(1 0 0 1 -50 65.1299)" fill="#000000" font-family="'HelveticaNeueLTPro-Ex'" font-size="2.4">Save as .SVG and make sure “Use </text><text transform="matrix(1 0 0 1 -50 68.1299)" fill="#000000" font-family="'HelveticaNeueLTPro-Ex'" font-size="2.4">Artboards” is checked</text><text transform="matrix(1.0074 0 0 1 -125.542 30.5938)" fill="#000000" font-family="'HelveticaNeueLTPro-Ex'" font-size="2.5731">100px</text><text transform="matrix(1.0074 0 0 1 -41 39)" fill="#000000" font-family="'HelveticaNeueLTPro-Ex'" font-size="5.1462">.SVG</text><rect x="-126.514" y="34.815" fill="#000000" width="10.261" height="10.185"></rect><rect x="-126.477" y="31.766" fill="#000000" width="0.522" height="2.337"></rect><rect x="-116.813" y="31.766" fill="#000000" width="0.523" height="2.337"></rect><rect x="-127" y="32.337" fill="#000000" width="11.233" height="0.572"></rect><g><rect x="-83.805" y="33.844" fill="#000000" width="10.305" height="10.156"></rect><rect x="-76.809" y="28.707" fill="#000000" width="3.308" height="3.261"></rect></g><rect x="-178.5" y="22.5" fill="#000000" stroke="#FFFFFF" stroke-miterlimit="10" width="30" height="30"></rect><rect x="-136.5" y="22.5" fill="#000000" stroke="#FFFFFF" stroke-miterlimit="10" width="30" height="30"></rect><rect x="-93.5" y="22.5" fill="#000000" stroke="#FFFFFF" stroke-miterlimit="10" width="30" height="30"></rect><rect x="-49.5" y="22.5" fill="#000000" stroke="#FFFFFF" stroke-miterlimit="10" width="30" height="30"></rect></g><g><g><path d="M40.066,44.816c0.568,1.755-0.396,3.637-2.151,4.206L12.492,57.24c-1.754,0.566-3.638-0.396-4.205-2.15l0,0    c-0.567-1.756,0.396-3.639,2.15-4.206l25.422-8.219C37.616,42.098,39.499,43.062,40.066,44.816L40.066,44.816z"></path></g><g><path d="M64.6,27.029c1.101,1.481,0.791,3.572-0.688,4.672L42.457,47.627c-1.481,1.1-3.573,0.79-4.672-0.691l0,0    c-1.1-1.481-0.79-3.573,0.691-4.672L59.93,26.338C61.41,25.239,63.5,25.548,64.6,27.029L64.6,27.029z"></path></g><g><path d="M40.86,57.57c2.174-0.398,4.26,1.041,4.659,3.215l5.779,31.49c0.397,2.174-1.041,4.26-3.215,4.658l0,0    c-2.173,0.397-4.259-1.039-4.658-3.214L37.646,62.23C37.248,60.057,38.687,57.971,40.86,57.57L40.86,57.57z"></path></g><g><path d="M36.397,57.57c-2.175-0.398-4.26,1.041-4.659,3.215l-5.78,31.49c-0.398,2.174,1.041,4.26,3.214,4.658l0,0    c2.174,0.397,4.259-1.039,4.658-3.214l5.78-31.489C40.009,60.057,38.57,57.971,36.397,57.57L36.397,57.57z"></path></g><g><polygon points="47.046,72.424 29.805,72.424 29.805,46.553 47.046,43.694   "></polygon></g><g><path d="M24.177,46.604c0,0,13.357-4.03,24.155-11.684c10.799-7.654-9.478,13.062-9.478,13.062L24.177,46.604z"></path></g><g><circle cx="32.991" cy="31.009" r="9.991"></circle></g><polygon points="70.093,30.567 78.613,39.087 80.527,37.172 72.008,28.652 80.529,20.131 78.613,18.217 70.093,26.737    61.572,18.217 59.659,20.131 68.18,28.652 59.659,37.172 61.572,39.087  "></polygon><g><polygon points="67,23.654 67,27 73.67,27 78,22.67 78,18.84 76,20.84 76,23 73.84,23 70.093,26.747   "></polygon><polygon points="84,23 84,4 78.279,4 76.564,4 70,4 70,23 67.408,23 70.093,25.685 72.777,23 72,23 72,6 76,6 76,19.777     78,17.777 78,6 82,6 82,23 78.729,23 74.729,27 87,27 87,23   "></polygon></g></g></svg>