<svg xmlns="http://www.w3.org/2000/svg" xmlns:xlink="http://www.w3.org/1999/xlink" version="1.1" x="0px" y="0px" viewBox="0 0 100 100" enable-background="new 0 0 100 100" xml:space="preserve"><g><g><path fill="none" stroke="#000000" stroke-miterlimit="10" d="M33.89,51.26c1.06,0.146,2.078,0.435,3.044,0.844    c-0.01,0.246-0.033,0.493-0.033,0.742c0,6.197,3.512,11.473,8.446,13.554c-0.055,1.181-0.227,2.327-0.522,3.418    c-6.389-2.4-11.007-9.093-11.007-16.972C33.817,52.311,33.848,51.783,33.89,51.26z"></path><path fill="none" stroke="#000000" stroke-miterlimit="10" d="M50.006,34.915c4.021,0,7.695,1.643,10.528,4.337    c-0.612,0.916-1.311,1.756-2.097,2.49c-2.278-2.127-5.218-3.41-8.432-3.41c-3.213,0-6.151,1.283-8.433,3.41    c-0.785-0.734-1.484-1.574-2.097-2.49C42.312,36.558,45.986,34.915,50.006,34.915z"></path><path fill="none" stroke="#000000" stroke-miterlimit="10" d="M55.187,69.817c-0.295-1.091-0.466-2.237-0.521-3.418    c4.935-2.08,8.447-7.356,8.447-13.554c0-0.249-0.023-0.496-0.034-0.742c0.965-0.409,1.985-0.697,3.045-0.844    c0.041,0.523,0.072,1.051,0.072,1.586C66.195,60.725,61.577,67.417,55.187,69.817z"></path><path stroke="#000000" stroke-miterlimit="10" d="M67.737,83.585c-7.393,0-13.613-5.492-15.553-12.988    c-0.279-1.082-0.473-2.202-0.564-3.356c-0.041-0.522-0.072-1.051-0.072-1.587c0-7.894,4.611-14.581,11.009-16.975    c0.963-0.359,1.966-0.62,2.999-0.773c0.715-0.108,1.439-0.184,2.182-0.184c8.94,0,16.19,8.03,16.19,17.932    c0,0.33-0.03,0.65-0.046,0.979l2.896,2.338c0.152-1.08,0.232-2.189,0.232-3.317c0-11.77-8.645-21.345-19.272-21.345    c-1.078,0-2.135,0.102-3.165,0.293c2.928-3.747,4.557-8.622,4.557-13.954c0-7.348-4.629-13.836-8.629-17.678v4.338    c3,3.284,5.545,8.035,5.545,13.34c0,4.196-1.237,8.049-3.419,11.105c-0.647,0.905-1.331,1.736-2.119,2.487    c-2.833,2.698-6.492,4.336-10.52,4.336s-7.695-1.638-10.527-4.336c-0.79-0.751-1.507-1.582-2.153-2.487    c-2.182-3.057-3.849-6.909-3.849-11.105c0-5.305,2.042-10.056,5.042-13.34V12.97c-4,3.842-8.123,10.33-8.123,17.678    c0,5.332,1.956,10.207,4.885,13.954c-1.03-0.191-1.998-0.293-3.076-0.293c-10.627,0-19.229,9.575-19.229,21.345    c0,1.455,0.154,2.879,0.407,4.253l2.815-2.266c-0.066-0.653-0.101-1.315-0.101-1.987c0-9.901,7.253-17.932,16.193-17.932    c0.741,0,1.468,0.075,2.184,0.184c1.034,0.153,2.034,0.414,2.997,0.773c6.396,2.394,11.011,9.081,11.011,16.975    c0,0.536-0.031,1.064-0.072,1.587c-0.091,1.154-0.285,2.274-0.564,3.356c-1.938,7.496-8.161,12.988-15.553,12.988    c-0.497,0-0.985-0.033-1.471-0.083l-3.452,2.788c1.573,0.461,3.221,0.71,4.923,0.71c7.949,0,14.789-5.358,17.731-12.985    C52.948,81.642,59.788,87,67.737,87c2.042,0,4.011-0.358,5.858-1.012l-3.282-2.651C69.473,83.485,68.616,83.585,67.737,83.585z"></path><path stroke="#000000" stroke-miterlimit="10" d="M41.573,41.742c2.281-2.127,5.22-3.41,8.433-3.41    c3.214,0,6.153,1.283,8.432,3.41c0.786-0.734,1.484-1.574,2.097-2.49c-2.833-2.694-6.508-4.337-10.528-4.337    c-4.02,0-7.694,1.643-10.529,4.337C40.089,40.168,40.788,41.008,41.573,41.742z"></path><path stroke="#000000" stroke-miterlimit="10" d="M44.824,69.817c0.296-1.091,0.468-2.237,0.522-3.418    c-4.935-2.081-8.446-7.356-8.446-13.554c0-0.249,0.023-0.496,0.033-0.742c-0.966-0.409-1.984-0.697-3.044-0.844    c-0.042,0.523-0.072,1.051-0.072,1.586C33.817,60.725,38.436,67.417,44.824,69.817z"></path><path stroke="#000000" stroke-miterlimit="10" d="M63.078,52.104c0.011,0.246,0.034,0.493,0.034,0.742    c0,6.197-3.513,11.474-8.447,13.554c0.056,1.181,0.227,2.327,0.521,3.418c6.391-2.4,11.009-9.093,11.009-16.972    c0-0.535-0.031-1.062-0.072-1.586C65.063,51.406,64.043,51.694,63.078,52.104z"></path></g></g></svg>