<svg xmlns="http://www.w3.org/2000/svg" xmlns:xlink="http://www.w3.org/1999/xlink" version="1.1" x="0px" y="0px" viewBox="0 0 100 100" enable-background="new 0 0 100 100" xml:space="preserve"><g><rect x="-192" width="185" height="99"></rect><rect y="-36" width="100" height="30"></rect><text transform="matrix(1 0 0 1 66 -19.5)" fill="#000000" font-family="'Helvetica'" font-size="2.4">http://thenounproject.com</text><text transform="matrix(1 0 0 1 7.166 -24.5)"><tspan x="0" y="0" fill="#000000" font-family="'Helvetica-Bold'" font-size="6.1578">The Noun Project</tspan><tspan x="1.12" y="4.8" fill="#000000" font-family="'Helvetica-Bold'" font-size="4">Icon Template</tspan></text><text transform="matrix(1 0 0 1 -178.5 10.5)" fill="#000000" font-family="'Helvetica-Bold'" font-size="6.1578">Reminders</text><line fill="#000000" stroke="#FFFFFF" stroke-miterlimit="10" x1="8" y1="-14.5" x2="18" y2="-14.5"></line><line fill="#000000" stroke="#FFFFFF" stroke-miterlimit="10" x1="-179" y1="16.5" x2="-162" y2="16.5"></line><g><g><g><rect x="-170.802" y="31.318" fill="#000000" width="8.721" height="8.642"></rect><path fill="#000000" d="M-164.455,42.312h4.747v-4.703h-4.747V42.312z M-159.266,42.749h-5.63V37.17h5.63V42.749      L-159.266,42.749z M-166.221,44.062h8.279v-8.203h-8.279V44.062L-166.221,44.062z M-157.5,44.5h-9.163v-9.079h9.163V44.5      L-157.5,44.5z"></path><polygon fill="#000000" points="-166.149,44.133 -166.292,43.991 -158.013,35.787 -157.871,35.929     "></polygon></g></g></g><rect x="-179" y="58" fill="none" width="35" height="32.5"></rect><text transform="matrix(1 0 0 1 -179 60.1299)"><tspan x="0" y="0" fill="#000000" font-family="'Helvetica-Bold'" font-size="3">Strokes</tspan><tspan x="0" y="5" fill="#000000" font-family="'Helvetica'" font-size="2.4">Try to keep strokes at 4px</tspan><tspan x="0" y="10" fill="#000000" font-family="'Helvetica'" font-size="2.4">Minimum stroke weight is 2px</tspan><tspan x="0" y="14.5" fill="#000000" font-family="'Helvetica'" font-size="2.4">For thicker strokes use even </tspan><tspan x="0" y="17.5" fill="#000000" font-family="'Helvetica'" font-size="2.4">numbers: 6px, 8px etc.</tspan><tspan x="0" y="22" fill="#000000" font-family="'Helvetica-Bold'" font-size="2.4">Remember to expand strokes </tspan><tspan x="0" y="25" fill="#000000" font-family="'Helvetica-Bold'" font-size="2.4">before saving as an SVG </tspan></text><rect x="-136.5" y="58" fill="none" width="35" height="32.5"></rect><text transform="matrix(1 0 0 1 -136.5 60.1299)"><tspan x="0" y="0" fill="#000000" font-family="'Helvetica-Bold'" font-size="3">Size</tspan><tspan x="0" y="5" fill="#000000" font-family="'Helvetica'" font-size="2.4">Cannot be wider or taller than </tspan><tspan x="0" y="8.5" fill="#000000" font-family="'Helvetica'" font-size="2.4">100px (artboard size)</tspan><tspan x="0" y="13.5" fill="#000000" font-family="'Helvetica'" font-size="2.4">Scale your icon to fill as much of </tspan><tspan x="0" y="16.5" fill="#000000" font-family="'Helvetica'" font-size="2.4">the artboard as possible</tspan></text><rect x="-94" y="58" fill="none" width="35" height="32.5"></rect><text transform="matrix(1 0 0 1 -94 60.1299)"><tspan x="0" y="0" fill="#000000" font-family="'Helvetica-Bold'" font-size="3">Ungroup</tspan><tspan x="0" y="5" fill="#000000" font-family="'Helvetica'" font-size="2.4">If your design has more than one </tspan><tspan x="0" y="8" fill="#000000" font-family="'Helvetica'" font-size="2.4">shape, make sure to ungroup</tspan></text><rect x="-50" y="58" fill="none" width="35" height="32.5"></rect><text transform="matrix(1 0 0 1 -50 60.1299)"><tspan x="0" y="0" fill="#000000" font-family="'Helvetica-Bold'" font-size="3">Save as</tspan><tspan x="0" y="5" fill="#000000" font-family="'Helvetica'" font-size="2.4">Save as .SVG and make sure “Use </tspan><tspan x="0" y="8" fill="#000000" font-family="'Helvetica'" font-size="2.4">Artboards” is checked</tspan></text><text transform="matrix(1.0074 0 0 1 -125.542 30.5933)" fill="#000000" font-family="'Helvetica'" font-size="2.5731">100px</text><text transform="matrix(1.0074 0 0 1 -41 39)" fill="#000000" font-family="'Helvetica-Bold'" font-size="5.1462">.SVG</text><rect x="-126.514" y="34.815" fill="#000000" width="10.261" height="10.185"></rect><rect x="-126.477" y="31.766" fill="#000000" width="0.522" height="2.337"></rect><rect x="-116.813" y="31.766" fill="#000000" width="0.523" height="2.337"></rect><rect x="-127" y="32.337" fill="#000000" width="11.233" height="0.572"></rect><g><rect x="-83.805" y="33.844" fill="#000000" width="10.305" height="10.156"></rect><rect x="-76.809" y="28.707" fill="#000000" width="3.308" height="3.261"></rect></g><rect x="-178.5" y="22.5" fill="#000000" stroke="#FFFFFF" stroke-miterlimit="10" width="30" height="30"></rect><rect x="-136.5" y="22.5" fill="#000000" stroke="#FFFFFF" stroke-miterlimit="10" width="30" height="30"></rect><rect x="-93.5" y="22.5" fill="#000000" stroke="#FFFFFF" stroke-miterlimit="10" width="30" height="30"></rect><rect x="-49.5" y="22.5" fill="#000000" stroke="#FFFFFF" stroke-miterlimit="10" width="30" height="30"></rect></g><g><path d="M55.521,71.987c1.089,0,2.043-0.151,2.75-0.311c-0.011-0.011-0.023-0.018-0.033-0.029   c-0.644-0.712-0.861-1.986-0.664-3.897c0.019-0.2,0.051-0.487,0.09-0.852c0.38-3.523,1.538-14.246,1.389-22.028   c-0.125-6.619-3.161-14.203-6.675-22.984c-1.003-2.504-2.04-5.095-3.058-7.785c-2.85-7.535-2.514-11.048-1.729-12.667   c0.014-0.028,0.028-0.049,0.042-0.076c-0.674,0.202-1.328,0.478-1.949,0.847c-6.437,3.828-9.212,13.815-9.703,15.779   c-0.54,2.162,0.677,3.328,2.521,5.091c0.92,0.88,1.964,1.88,2.972,3.187c3.125,4.054,2.822,7.654,2.091,16.348l-0.02,0.241   c-0.672,7.993-1.51,17.939,3.597,24.857C49.75,71.245,53.137,71.987,55.521,71.987z"></path><path d="M60.097,16.523c1.657,2.128,2.64,1.472,2.678,1.442l0.85-0.556c-0.608-0.496-1.191-1.072-1.716-1.737   c-0.845-1.072-1.458-2.248-1.81-3.41l-1.048,0.689C58.916,13.277,58.561,14.551,60.097,16.523z"></path><path d="M56.75,8.741l-2.188,2.598l1.432,5.261l4.3,4.386l4.553,0.689l1.48-2.749c-0.619-0.194-1.242-0.505-1.852-0.899   l-1.121,0.734c-0.103,0.075-0.468,0.305-1.037,0.305c-0.083,0-0.169-0.005-0.26-0.016c-0.905-0.108-1.827-0.754-2.736-1.923   c-2.208-2.834-1.119-4.693-1.071-4.771l0.057-0.095l1.549-1.019l0.022,0.035c-0.02-0.117-0.058-0.237-0.071-0.353   c-0.048-0.408-0.056-0.796-0.027-1.163L56.75,8.741z"></path><path d="M61.559,8.019c-0.636,0.592-0.92,1.564-0.775,2.792c0.165,1.396,0.839,2.905,1.899,4.251   c1.303,1.654,3.015,2.797,4.532,3.072C65.375,13.742,63.447,10.467,61.559,8.019z"></path><path d="M67.631,19.164c-0.101-0.009-0.2-0.013-0.301-0.025l-1.78,3.308c-0.086,0.162-0.254,0.259-0.434,0.259   c-0.024,0-0.049-0.002-0.073-0.006l-5.06-0.765c-0.106-0.016-0.204-0.066-0.278-0.142l-4.506-4.595   c-0.059-0.06-0.101-0.134-0.124-0.216l-1.531-5.634c-0.043-0.157-0.005-0.323,0.1-0.447l2.57-3.052   c0.132-0.154,0.342-0.214,0.534-0.149l3.213,1.085c0.19-0.623,0.52-1.145,0.974-1.548c-4.5-5.428-8.69-6.253-10.798-6.253   c-0.333,0-0.659,0.028-0.983,0.064c-0.395,0.229-2.902,2.164,1.087,12.704c1.014,2.683,2.048,5.268,3.051,7.769   c3.549,8.871,6.615,16.532,6.744,23.331c0.15,7.844-1.012,18.613-1.394,22.152c-0.039,0.361-0.069,0.647-0.091,0.848   c-0.203,1.986,0.114,2.802,0.416,3.137c0.157,0.174,0.367,0.253,0.625,0.275c0.719-0.502,4.352-3.395,6.946-12.101   c3.219-10.798,6.173-26.1,1.979-37.684C68.226,20.673,67.93,19.909,67.631,19.164z"></path><path d="M67.875,18.191c0.605,0,1.118-0.163,1.525-0.484c1.552-1.223,1.092-4.508-1.008-7.171c-1.503-1.907-3.55-3.138-5.214-3.138   c-0.605,0-1.118,0.162-1.523,0.482c-0.729,0.575-1.047,1.611-0.893,2.921c0.165,1.396,0.839,2.905,1.899,4.251   C64.164,16.959,66.21,18.191,67.875,18.191z"></path><path d="M56.404,74.488l0.278-1.571c-0.234,0.019-0.645,0.041-1.141,0.041c-0.742,0-1.772-0.056-2.619-0.312L52.864,74.1   c0.75,0.419,1.644,0.507,2.266,0.507c0.7,0,1.223-0.108,1.229-0.108L56.404,74.488z"></path><path d="M54.804,78.779c0.077,0,0.143-0.005,0.209-0.009c0.077-0.399,0.15-0.774,0.213-1.111l-1.872,0.063   c0,0-0.047,0.32-0.128,0.819c0.208,0.068,0.476,0.137,0.859,0.188C54.342,78.762,54.583,78.779,54.804,78.779z"></path><path d="M54.249,83.529c0.163-1.48,0.41-2.89,0.638-4.1c-0.03,0.001-0.051,0.006-0.083,0.006c-0.25,0-0.519-0.02-0.806-0.058   c-0.357-0.047-0.645-0.11-0.882-0.181c-0.06,0.348-0.127,0.729-0.202,1.134c-0.261,1.401-0.888,5.288-0.632,7.989   c0.245,2.587,0.65,5.187,2.712,11.093c0,0,0.539,0.205,1.149-0.053c0.59-0.25,0.697-0.711,0.697-0.711s-1.889-4.313-2.507-7.854   C53.807,87.772,53.997,85.812,54.249,83.529z"></path><path d="M52.811,77.052l-0.081,1.284c0.108,0.081,0.46,0.295,1.355,0.413c0.257,0.033,0.498,0.051,0.719,0.051   c0.448,0,0.716-0.073,0.85-0.125l0.18-1.281c-0.216,0.021-0.497,0.043-0.817,0.043C54.414,77.437,53.587,77.362,52.811,77.052z"></path><path d="M56.08,75.228c-0.238,0.028-0.561,0.055-0.929,0.055c-0.813,0-1.535-0.127-2.152-0.38l-0.107,1.347   c0.107,0.088,0.437,0.287,1.3,0.401c0.28,0.036,0.55,0.056,0.801,0.056c0.465,0,0.782-0.064,0.957-0.112L56.08,75.228z"></path></g></svg>