<svg xmlns="http://www.w3.org/2000/svg" xmlns:xlink="http://www.w3.org/1999/xlink" version="1.1" x="0px" y="0px" viewBox="0 0 100 100" enable-background="new 0 0 100 100" xml:space="preserve"><path d="M92.082,62.244c-3.818-1.697-9.485-6.069-17.875-7.572c0-0.587-0.024-0.587-0.024-1.114  c3.134-0.577,6.725-1.741,8.424-2.511c1.908-0.868,2.903-1.598,2.903-1.598c-0.78-2.94-1.217-6.225-1.217-9.689  c0-12.6-5.761-22.813-12.869-22.813c-1.048,0-2.064,0.227-3.038,0.645c-0.976-0.418-1.991-0.645-3.039-0.645  c-7.106,0-12.869,10.214-12.869,22.813c0,3.465-0.435,6.749-1.213,9.689c0,0,0.988,0.749,2.911,1.629  c1.656,0.76,5.181,1.818,8.229,2.387c0,0.789-0.001,0.728-0.001,1.231c-2.846,0.522-5.366,1.377-7.614,2.338  c-3.809-1.837-9.335-5.889-17.354-7.325c2.146-2.296,3.771-5.888,5.439-10.143c0.969-2.465,0.802-4.567,0.802-7.56  c0-2.21,0.417-5.758-0.132-7.707c-1.85-6.589-6.526-8.407-12.004-8.407c-5.483,0-10.165,1.826-12.011,8.426  c-0.544,1.944-0.127,5.484-0.127,7.688c0,3-0.162,5.109,0.809,7.579c1.683,4.274,3.283,7.86,5.42,10.148  c-8.323,1.53-13.945,5.87-17.741,7.562C0.04,60.796,0,64.63,0,64.63v6.512l36.772-0.006v4.968L100,76.097v-6.505  C100,69.592,99.964,65.747,92.082,62.244z M56.143,30.942c0.005-0.071,0.015-0.141,0.021-0.252c0.001-0.001,0.003-0.003,0.005-0.005  c3.729-3.446,7.911-5.362,12.305-5.362c4.33,0,8.407,1.899,12.142,5.229c0.004,0.004,0.009,0.007,0.012,0.01  c0,0.123-0.013,0.192-0.013,0.271c-3.784-2.139-7.87-2.734-12.141-2.734C64.134,28.099,59.979,28.732,56.143,30.942z"></path></svg>