<svg xmlns="http://www.w3.org/2000/svg" xmlns:xlink="http://www.w3.org/1999/xlink" version="1.1" x="0px" y="0px" viewBox="0 0 100 100" enable-background="new 0 0 100 100" xml:space="preserve"><g><rect x="-192" width="185" height="99"></rect><rect y="-36" width="100" height="30"></rect><text transform="matrix(1 0 0 1 66 -19.5)" fill="#000000" font-family="'Helvetica'" font-size="2.4">http://thenounproject.com</text><text transform="matrix(1 0 0 1 7.166 -24.5)"><tspan x="0" y="0" fill="#000000" font-family="'Helvetica-Bold'" font-size="6.1578">The Noun Project</tspan><tspan x="1.12" y="4.8" fill="#000000" font-family="'Helvetica-Bold'" font-size="4">Icon Template</tspan></text><text transform="matrix(1 0 0 1 -178.5 10.5)" fill="#000000" font-family="'Helvetica-Bold'" font-size="6.1578">Reminders</text><line fill="#000000" stroke="#FFFFFF" stroke-miterlimit="10" x1="8" y1="-14.5" x2="18" y2="-14.5"></line><line fill="#000000" stroke="#FFFFFF" stroke-miterlimit="10" x1="-179" y1="16.5" x2="-162" y2="16.5"></line><g><g><g><rect x="-170.802" y="31.318" fill="#000000" width="8.721" height="8.642"></rect><path fill="#000000" d="M-164.455,42.312h4.747v-4.703h-4.747V42.312z M-159.266,42.749h-5.63V37.17h5.63V42.749      L-159.266,42.749z M-166.221,44.062h8.279v-8.203h-8.279V44.062L-166.221,44.062z M-157.5,44.5h-9.163v-9.079h9.163V44.5      L-157.5,44.5z"></path><polygon fill="#000000" points="-166.149,44.133 -166.292,43.991 -158.013,35.787 -157.871,35.929     "></polygon></g></g></g><rect x="-179" y="58" fill="none" width="35" height="32.5"></rect><text transform="matrix(1 0 0 1 -179 60.1299)"><tspan x="0" y="0" fill="#000000" font-family="'Helvetica-Bold'" font-size="3">Strokes</tspan><tspan x="0" y="5" fill="#000000" font-family="'Helvetica'" font-size="2.4">Try to keep strokes at 4px</tspan><tspan x="0" y="10" fill="#000000" font-family="'Helvetica'" font-size="2.4">Minimum stroke weight is 2px</tspan><tspan x="0" y="14.5" fill="#000000" font-family="'Helvetica'" font-size="2.4">For thicker strokes use even </tspan><tspan x="0" y="17.5" fill="#000000" font-family="'Helvetica'" font-size="2.4">numbers: 6px, 8px etc.</tspan><tspan x="0" y="22" fill="#000000" font-family="'Helvetica-Bold'" font-size="2.4">Remember to expand strokes </tspan><tspan x="0" y="25" fill="#000000" font-family="'Helvetica-Bold'" font-size="2.4">before saving as an SVG </tspan></text><rect x="-136.5" y="58" fill="none" width="35" height="32.5"></rect><text transform="matrix(1 0 0 1 -136.5 60.1299)"><tspan x="0" y="0" fill="#000000" font-family="'Helvetica-Bold'" font-size="3">Size</tspan><tspan x="0" y="5" fill="#000000" font-family="'Helvetica'" font-size="2.4">Cannot be wider or taller than </tspan><tspan x="0" y="8.5" fill="#000000" font-family="'Helvetica'" font-size="2.4">100px (artboard size)</tspan><tspan x="0" y="13.5" fill="#000000" font-family="'Helvetica'" font-size="2.4">Scale your icon to fill as much of </tspan><tspan x="0" y="16.5" fill="#000000" font-family="'Helvetica'" font-size="2.4">the artboard as possible</tspan></text><rect x="-94" y="58" fill="none" width="35" height="32.5"></rect><text transform="matrix(1 0 0 1 -94 60.1299)"><tspan x="0" y="0" fill="#000000" font-family="'Helvetica-Bold'" font-size="3">Ungroup</tspan><tspan x="0" y="5" fill="#000000" font-family="'Helvetica'" font-size="2.4">If your design has more than one </tspan><tspan x="0" y="8" fill="#000000" font-family="'Helvetica'" font-size="2.4">shape, make sure to ungroup</tspan></text><rect x="-50" y="58" fill="none" width="35" height="32.5"></rect><text transform="matrix(1 0 0 1 -50 60.1299)"><tspan x="0" y="0" fill="#000000" font-family="'Helvetica-Bold'" font-size="3">Save as</tspan><tspan x="0" y="5" fill="#000000" font-family="'Helvetica'" font-size="2.4">Save as .SVG and make sure “Use </tspan><tspan x="0" y="8" fill="#000000" font-family="'Helvetica'" font-size="2.4">Artboards” is checked</tspan></text><text transform="matrix(1.0074 0 0 1 -125.542 30.5933)" fill="#000000" font-family="'Helvetica'" font-size="2.5731">100px</text><text transform="matrix(1.0074 0 0 1 -41 39)" fill="#000000" font-family="'Helvetica-Bold'" font-size="5.1462">.SVG</text><rect x="-126.514" y="34.815" fill="#000000" width="10.261" height="10.185"></rect><rect x="-126.477" y="31.766" fill="#000000" width="0.522" height="2.337"></rect><rect x="-116.813" y="31.766" fill="#000000" width="0.523" height="2.337"></rect><rect x="-127" y="32.337" fill="#000000" width="11.233" height="0.572"></rect><g><rect x="-83.805" y="33.844" fill="#000000" width="10.305" height="10.156"></rect><rect x="-76.809" y="28.707" fill="#000000" width="3.308" height="3.261"></rect></g><rect x="-178.5" y="22.5" fill="#000000" stroke="#FFFFFF" stroke-miterlimit="10" width="30" height="30"></rect><rect x="-136.5" y="22.5" fill="#000000" stroke="#FFFFFF" stroke-miterlimit="10" width="30" height="30"></rect><rect x="-93.5" y="22.5" fill="#000000" stroke="#FFFFFF" stroke-miterlimit="10" width="30" height="30"></rect><rect x="-49.5" y="22.5" fill="#000000" stroke="#FFFFFF" stroke-miterlimit="10" width="30" height="30"></rect></g><g><path fill="#000000" d="M5.385,40.256"></path><g><path fill="#000000" d="M85.699,45.714c0-2.116,0.047-6.003,0-7.098s-3.947-1.874-3.947-1.874v-3.11    c-0.385-0.692-2.14-0.643-2.266-0.639c-0.006,0-0.021-0.001-0.041-0.001c-0.022,0-0.035,0.001-0.043,0.001    c-0.126-0.004-1.881-0.053-2.266,0.639v3.11c0,0-3.9,0.779-3.948,1.874c-0.046,1.094,0,4.981,0,7.098    c0,1.148,1.477,2.511,1.477,2.511s-1.477,9.82-1.477,11.764s0,8.534,0,8.534s1.022,2.485,6.214,2.552    c0.015,0,0.029-0.001,0.043-0.001s0.027,0.001,0.041,0.001c5.192-0.066,6.213-2.552,6.213-2.552s0-6.591,0-8.534    s-1.475-11.764-1.475-11.764S85.699,46.863,85.699,45.714z"></path></g><g><path fill="#000000" d="M50.14,0.279c-27.537,0-49.86,22.323-49.86,49.86c0,27.538,22.323,49.86,49.86,49.86    C77.678,100,100,77.678,100,50.14C100,22.603,77.678,0.279,50.14,0.279z M50.043,94.54c-24.521,0-44.399-19.879-44.399-44.399    c0-14.844,7.287-27.984,18.475-36.044l19.553,31.47h-14.36c-1.079-0.418-2.25-0.652-3.475-0.652c-5.31,0-9.63,4.321-9.63,9.63    c0,2.982,1.363,5.653,3.498,7.42c0.166,0.236,0.354,0.463,0.566,0.676l0.911,0.909h-3.079c-2.782,0-5.058,1.747-5.058,3.88    c0,2.135,2.276,3.878,5.058,3.878h13.17l-0.021-0.023c1.208-0.048,2.397-0.513,3.31-1.424c1.944-1.945,1.926-5.146-0.043-7.111    l-2.095-2.095l9.299,0.066v5.53c0,2.779,1.744,5.057,3.877,5.057c2.134-0.002,3.877-2.277,3.877-5.06V55.681v-0.397l0.329,0.154    L70.88,89.353C64.666,92.661,57.575,94.54,50.043,94.54z M18.789,59.217c-0.89-1.34-1.411-2.945-1.411-4.672    c0-4.664,3.795-8.46,8.46-8.46c1.213,0,2.365,0.259,3.41,0.721v10.669l-1.906-1.904c-1.968-1.968-5.167-1.986-7.112-0.041    C19.223,56.536,18.743,57.882,18.789,59.217z M75.535,86.494L58.92,59.754l1.983,0.94c1.825,0.862,4.003,0.086,4.866-1.738    c0.863-1.823,0.086-4.001-1.737-4.866l-12.231-5.794l-1.647-2.653c1.542,1.148,3.452,1.829,5.522,1.829    c5.111,0,9.255-4.146,9.255-9.257c0-5.113-4.144-9.257-9.255-9.257c-5.113,0-9.257,4.144-9.257,9.257    c0,0.569,0.053,1.123,0.152,1.664L28.739,11.18c6.324-3.466,13.583-5.438,21.304-5.438c24.521,0,44.4,19.878,44.4,44.399    C94.443,65.174,86.968,78.461,75.535,86.494z"></path></g></g></svg>