<svg xmlns="http://www.w3.org/2000/svg" xmlns:xlink="http://www.w3.org/1999/xlink" version="1.1" x="0px" y="0px" viewBox="0 0 100 100" enable-background="new 0 0 100 100" xml:space="preserve"><g><path d="M53.285,1.987c-17.469,0-31.63,31.661-31.63,57.762c0,26.104,14.161,36.766,31.63,36.766   c17.47,0,31.632-10.661,31.632-36.766C84.917,33.648,70.755,1.987,53.285,1.987z M26.556,43.485c0.432,0,0.782,0.648,0.782,1.446   s-0.35,1.446-0.782,1.446c-0.431,0-0.781-0.648-0.781-1.446S26.125,43.485,26.556,43.485z M23.685,61.016   c0-1.565,0.686-2.834,1.531-2.834c0.846,0,1.532,1.269,1.532,2.834s-0.686,2.833-1.532,2.833   C24.371,63.849,23.685,62.581,23.685,61.016z M26.771,72.217c-0.562,0.107-1.083-0.148-1.245-0.989   c-0.161-0.84,0.1-1.944,0.661-2.053c0.563-0.107,1.213,0.823,1.374,1.662C27.724,71.679,27.334,72.109,26.771,72.217z    M28.488,36.022c0.366-1.539,1.646-3.208,2.676-2.963c1.031,0.246,1.422,2.313,1.057,3.852c-0.367,1.541-1.352,1.971-2.383,1.727   C28.807,38.391,28.121,37.564,28.488,36.022z M31.537,52.274c0,0.856-0.464,1.205-1.037,1.205c-0.572,0-1.036-0.349-1.036-1.205   c0-0.854,0.464-1.892,1.036-1.892C31.073,50.383,31.537,51.42,31.537,52.274z M31.561,83.392c-0.729,0.393-1.56,0.265-2.146-0.826   c-0.585-1.09-0.704-2.729,0.025-3.121c0.729-0.393,2.032,0.612,2.617,1.703C32.643,82.237,32.291,83,31.561,83.392z M33.704,66.813   c-1.041,0.193-2.004-0.285-2.293-1.843c-0.289-1.557,0.206-3.602,1.247-3.794c1.042-0.193,2.237,1.538,2.525,3.095   C35.473,65.826,34.746,66.62,33.704,66.813z M34.521,45.438c-0.572,0-1.036-0.349-1.036-1.205c0-0.855,0.464-1.892,1.036-1.892   c0.573,0,1.037,1.037,1.037,1.892C35.558,45.089,35.094,45.438,34.521,45.438z M39.371,51.466c-0.27-1.572,0.256-3.623,1.307-3.804   c1.052-0.181,2.232,1.578,2.501,3.149s-0.473,2.359-1.523,2.54C40.604,53.532,39.641,53.036,39.371,51.466z M45.244,76.265   c-0.572,0-1.036-0.35-1.036-1.205c0-0.854,0.464-1.892,1.036-1.892c0.573,0,1.037,1.037,1.037,1.892   C46.28,75.915,45.816,76.265,45.244,76.265z M44.504,68.414c-1.301,0-2.356-0.794-2.356-2.74c0-1.944,1.055-4.304,2.356-4.304   c1.301,0,2.357,2.359,2.357,4.304C46.861,67.62,45.805,68.414,44.504,68.414z M48.835,47.157c0-1.461,0.792-3.233,1.77-3.233   c0.979,0,1.772,1.772,1.772,3.233c0,1.463-0.793,2.06-1.772,2.06C49.627,49.217,48.835,48.62,48.835,47.157z M51.945,76.265   c-0.572,0-1.036-0.35-1.036-1.205c0-0.854,0.464-1.892,1.036-1.892s1.037,1.037,1.037,1.892   C52.982,75.915,52.518,76.265,51.945,76.265z M55.966,65.733c-1.632,0-2.957-0.997-2.957-3.439c0-2.439,1.325-5.4,2.957-5.4   c1.634,0,2.958,2.961,2.958,5.4C58.924,64.736,57.6,65.733,55.966,65.733z M72.749,65.099c-1.044,0-1.893-0.637-1.893-2.201   c0-1.562,0.849-3.457,1.893-3.457c1.048,0,1.895,1.896,1.895,3.457C74.644,64.462,73.797,65.099,72.749,65.099z M80.519,73.015   c-0.293,1.558-1.256,2.034-2.298,1.839c-1.039-0.196-1.765-0.991-1.472-2.548c0.292-1.554,1.492-3.281,2.531-3.088   C80.322,69.414,80.811,71.46,80.519,73.015z M81.187,58.81c-1.333,0.096-2.473-0.64-2.614-2.635   c-0.143-1.992,0.766-4.485,2.097-4.581c1.336-0.096,2.59,2.245,2.732,4.237C83.544,57.824,82.521,58.716,81.187,58.81z"></path></g></svg>