<svg xmlns="http://www.w3.org/2000/svg" xmlns:xlink="http://www.w3.org/1999/xlink" version="1.1" x="0px" y="0px" viewBox="0 0 100 100" enable-background="new 0 0 100 100" xml:space="preserve"><g><path fill="#000000" d="M67.016,5.813h-7.914V2.127c0-0.438-0.356-0.794-0.795-0.794H46.142c-0.439,0-0.795,0.357-0.795,0.794   v3.686h-7.915c-1.068,0-1.934,0.864-1.934,1.932v89.321c0,1.065,0.866,1.934,1.934,1.934h29.583c1.067,0,1.934-0.864,1.934-1.934   V7.745C68.949,6.677,68.084,5.813,67.016,5.813z M51.96,76.677V56.544l-3.804,3.44l3.804-28.738v20.707l4.331-2.746L51.96,76.677z"></path><path fill="#000000" stroke="#010101" stroke-width="2" stroke-miterlimit="10" d="M206.369,5.918h-7.877V2.25   c0-0.436-0.354-0.791-0.793-0.791h-12.106c-0.437,0-0.79,0.355-0.79,0.791v3.668h-7.878c-1.062,0-1.925,0.861-1.925,1.923v18.478   h33.293V7.842C208.293,6.779,207.434,5.918,206.369,5.918z"></path><path fill="#000000" d="M175.002,96.743v0.266c0,0.916,0.859,1.658,1.923,1.658C175.861,98.667,175.002,97.807,175.002,96.743z"></path><path fill="#000000" d="M206.369,98.667c1.062,0,1.924-0.742,1.924-1.658v-0.266C208.293,97.807,207.434,98.667,206.369,98.667z"></path><path fill="#000000" stroke="#020202" stroke-width="2" stroke-miterlimit="10" d="M175.002,96.743   c0,1.062,0.859,1.924,1.923,1.924h29.445c1.062,0,1.923-0.86,1.923-1.924V26.319h-33.291V96.743L175.002,96.743z"></path><polygon fill="#000000" points="191.384,31.232 187.598,59.834 191.384,56.412 191.384,76.449 195.695,49.109 191.384,51.842  "></polygon><path fill="#000000" stroke="#010101" stroke-width="2" stroke-miterlimit="10" d="M345.518,5.812h-7.914V2.127   c0-0.438-0.355-0.794-0.795-0.794h-12.164c-0.438,0-0.795,0.356-0.795,0.794v3.685h-7.914c-1.068,0-1.936,0.865-1.936,1.933v89.321   c0,1.066,0.865,1.934,1.936,1.934h29.582c1.067,0,1.935-0.865,1.935-1.934V7.745C347.451,6.678,346.585,5.812,345.518,5.812z"></path><path fill="#000000" stroke="#020202" stroke-width="2" stroke-miterlimit="10" d="M314,50.166v47.715   c0,0.617,0.865,1.119,1.936,1.119h29.582c1.067,0,1.935-0.502,1.935-1.119V50.166H314z"></path><polygon fill="#000000" points="330.461,31.247 326.657,59.982 330.461,56.545 330.461,76.677 334.793,49.208 330.461,50.058  "></polygon><polyline fill="#000000" points="334.793,49.208 333.279,50.166 330.461,50.166 330.461,31.247 327.958,50.166 334.643,50.166  "></polyline><path fill="#000000" stroke="#010101" stroke-width="2" stroke-miterlimit="10" d="M479.661,5.786h-7.867V2.123   c0-0.435-0.354-0.79-0.791-0.79h-12.092c-0.438,0-0.79,0.354-0.79,0.79v3.664h-7.867c-1.061,0-1.921,0.86-1.921,1.921v88.79   c0,1.061,0.86,1.922,1.921,1.922h29.407c1.062,0,1.923-0.859,1.923-1.922V7.707C481.584,6.646,480.724,5.786,479.661,5.786z"></path><path fill="#000000" stroke="#020202" stroke-width="2" stroke-miterlimit="10" d="M448.333,73.686v24.166   c0,0.313,0.86,0.567,1.921,0.567h29.407c1.062,0,1.923-0.254,1.923-0.567V73.686H448.333z"></path><polygon fill="#000000" points="464.695,31.068 460.914,59.635 464.695,56.216 464.695,76.229 469.001,48.923 464.695,51.652  "></polygon><polyline fill="#000000" points="465.098,73.678 469.001,48.923 464.695,51.652 464.695,31.068 460.914,59.635 464.695,56.216    464.695,73.686  "></polyline><path fill="#000000" stroke="#010101" stroke-width="2" stroke-miterlimit="10" d="M618.087,5.767h-7.833V2.12   c0-0.434-0.352-0.787-0.787-0.787h-12.039c-0.435,0-0.788,0.353-0.788,0.787v3.647h-7.833c-1.058,0-1.914,0.856-1.914,1.913v88.407   c0,1.058,0.856,1.914,1.914,1.914h29.28c1.057,0,1.913-0.856,1.913-1.914V7.679C620,6.623,619.144,5.767,618.087,5.767z"></path><polygon fill="#000000" points="603.186,30.94 599.421,59.383 603.186,55.979 603.186,75.904 607.473,48.717 603.186,51.436  "></polygon></g></svg>