<svg xmlns="http://www.w3.org/2000/svg" xmlns:xlink="http://www.w3.org/1999/xlink" version="1.1" x="0px" y="0px" viewBox="0 0 100 100" enable-background="new 0 0 100 100" xml:space="preserve"><g><rect x="-192" width="185" height="99"></rect><rect y="-36" width="100" height="30"></rect><text transform="matrix(1 0 0 1 66 -19.5)" fill="#000000" font-family="'Helvetica'" font-size="2.4">http://thenounproject.com</text><text transform="matrix(1 0 0 1 7.166 -24.5)"><tspan x="0" y="0" fill="#000000" font-family="'Helvetica-Bold'" font-size="6.1578">The Noun Project</tspan><tspan x="1.12" y="4.8" fill="#000000" font-family="'Helvetica-Bold'" font-size="4">Icon Template</tspan></text><text transform="matrix(1 0 0 1 -178.5 10.5)" fill="#000000" font-family="'Helvetica-Bold'" font-size="6.1578">Reminders</text><line fill="#000000" stroke="#FFFFFF" stroke-miterlimit="10" x1="8" y1="-14.5" x2="18" y2="-14.5"></line><line fill="#000000" stroke="#FFFFFF" stroke-miterlimit="10" x1="-179" y1="16.5" x2="-162" y2="16.5"></line><g><g><g><rect x="-170.802" y="31.318" fill="#000000" width="8.721" height="8.642"></rect><path fill="#000000" d="M-164.455,42.312h4.747v-4.703h-4.747V42.312z M-159.266,42.749h-5.63V37.17h5.63V42.749      L-159.266,42.749z M-166.221,44.062h8.279v-8.203h-8.279V44.062L-166.221,44.062z M-157.5,44.5h-9.163v-9.079h9.163V44.5      L-157.5,44.5z"></path><polygon fill="#000000" points="-166.149,44.133 -166.292,43.991 -158.013,35.787 -157.871,35.929     "></polygon></g></g></g><rect x="-179" y="58" fill="none" width="35" height="32.5"></rect><text transform="matrix(1 0 0 1 -179 60.1572)"><tspan x="0" y="0" fill="#000000" font-family="'Helvetica-Bold'" font-size="3">Strokes</tspan><tspan x="0" y="5" fill="#000000" font-family="'Helvetica'" font-size="2.4">Try to keep strokes at 4px</tspan><tspan x="0" y="10" fill="#000000" font-family="'Helvetica'" font-size="2.4">Minimum stroke weight is 2px</tspan><tspan x="0" y="14.5" fill="#000000" font-family="'Helvetica'" font-size="2.4">For thicker strokes use even </tspan><tspan x="0" y="17.5" fill="#000000" font-family="'Helvetica'" font-size="2.4">numbers: 6px, 8px etc.</tspan><tspan x="0" y="22" fill="#000000" font-family="'Helvetica-Bold'" font-size="2.4">Remember to expand strokes </tspan><tspan x="0" y="25" fill="#000000" font-family="'Helvetica-Bold'" font-size="2.4">before saving as an SVG </tspan></text><rect x="-136.5" y="58" fill="none" width="35" height="32.5"></rect><text transform="matrix(1 0 0 1 -136.5 60.1572)"><tspan x="0" y="0" fill="#000000" font-family="'Helvetica-Bold'" font-size="3">Size</tspan><tspan x="0" y="5" fill="#000000" font-family="'Helvetica'" font-size="2.4">Cannot be wider or taller than </tspan><tspan x="0" y="8.5" fill="#000000" font-family="'Helvetica'" font-size="2.4">100px (artboard size)</tspan><tspan x="0" y="13.5" fill="#000000" font-family="'Helvetica'" font-size="2.4">Scale your icon to fill as much of </tspan><tspan x="0" y="16.5" fill="#000000" font-family="'Helvetica'" font-size="2.4">the artboard as possible</tspan></text><rect x="-94" y="58" fill="none" width="35" height="32.5"></rect><text transform="matrix(1 0 0 1 -94 60.1572)"><tspan x="0" y="0" fill="#000000" font-family="'Helvetica-Bold'" font-size="3">Ungroup</tspan><tspan x="0" y="5" fill="#000000" font-family="'Helvetica'" font-size="2.4">If your design has more than one </tspan><tspan x="0" y="8" fill="#000000" font-family="'Helvetica'" font-size="2.4">shape, make sure to ungroup</tspan></text><rect x="-50" y="58" fill="none" width="35" height="32.5"></rect><text transform="matrix(1 0 0 1 -50 60.1572)"><tspan x="0" y="0" fill="#000000" font-family="'Helvetica-Bold'" font-size="3">Save as</tspan><tspan x="0" y="5" fill="#000000" font-family="'Helvetica'" font-size="2.4">Save as .SVG and make sure </tspan><tspan x="0" y="8" fill="#000000" font-family="'Helvetica'" font-size="2.4">“Use Artboards” is checked</tspan></text><text transform="matrix(1.0074 0 0 1 -125.542 30.5933)" fill="#000000" font-family="'Helvetica'" font-size="2.5731">100px</text><text transform="matrix(1.0074 0 0 1 -41 39)" fill="#000000" font-family="'Helvetica-Bold'" font-size="5.1462">.SVG</text><rect x="-126.514" y="34.815" fill="#000000" width="10.261" height="10.185"></rect><rect x="-126.477" y="31.766" fill="#000000" width="0.522" height="2.337"></rect><rect x="-116.812" y="31.766" fill="#000000" width="0.523" height="2.337"></rect><rect x="-127" y="32.337" fill="#000000" width="11.233" height="0.572"></rect><g><rect x="-83.805" y="33.844" fill="#000000" width="10.305" height="10.156"></rect><rect x="-76.809" y="28.707" fill="#000000" width="3.308" height="3.261"></rect></g><rect x="-178.5" y="22.5" fill="#000000" stroke="#FFFFFF" stroke-miterlimit="10" width="30" height="30"></rect><rect x="-136.5" y="22.5" fill="#000000" stroke="#FFFFFF" stroke-miterlimit="10" width="30" height="30"></rect><rect x="-93.5" y="22.5" fill="#000000" stroke="#FFFFFF" stroke-miterlimit="10" width="30" height="30"></rect><rect x="-49.5" y="22.5" fill="#000000" stroke="#FFFFFF" stroke-miterlimit="10" width="30" height="30"></rect></g><g><g><g><path fill-rule="evenodd" clip-rule="evenodd" fill="#000000" d="M38.314,5.534c1.093-1.531,3.075-1.331,3.075-1.331l8.736,8.555     l0.362-0.011l0.362,0.011l8.779-8.555c0,0,1.938-0.2,3.032,1.331C63.756,7.067,63.1,2,60.692,2h-20.41     C37.877,2,37.221,7.067,38.314,5.534z M50.487,4.222l7.718,0.003l-7.583,6.773v-0.043l-0.135,0.154l-0.135-0.154v0.043     l-7.367-6.773L50.487,4.222z M68.451,37.322c0,0-10.702-1.957-18.606-2.125v-0.008c-0.043,0-0.089,0.003-0.135,0.003     c-0.043,0-0.089-0.003-0.135-0.003v0.008c-7.902,0.167-16.965,2.125-16.965,2.125v22.712l16.965,0.03h0.27l18.606-0.03V37.322z      M30.286,31.091c0,0,7.945-1.474,19.424-1.512c11.479,0.038,21.025,1.512,21.025,1.512s-0.097-11.67-0.097-13.871     c0-2.198,1.493-4.187,1.493-4.187s-10.812,0-21.509-0.005v-0.003c-0.046,0.003-0.089,0.003-0.135,0.003     c-0.043,0-0.089,0-0.135-0.003v0.003c-10.696,0.005-21.416,0.005-21.416,0.005s1.49,1.989,1.49,4.187     C30.426,19.421,30.286,31.091,30.286,31.091z M63.829,16.427c0-0.202,0.164-0.364,0.367-0.364h3.239     c0.202,0,0.364,0.162,0.364,0.364v1.38c0,0.202-0.162,0.367-0.364,0.367h-3.239c-0.203,0-0.367-0.165-0.367-0.367V16.427z      M50.409,15.004c1.118,0.076,2.003,0.996,2.003,2.133c0,1.139-0.886,2.06-2.003,2.135c-1.118-0.076-2.003-0.996-2.003-2.135     C48.406,16,49.291,15.08,50.409,15.004z M33.074,16.427c0-0.202,0.165-0.364,0.367-0.364h3.24c0.203,0,0.367,0.162,0.367,0.364     v1.38c0,0.202-0.165,0.367-0.367,0.367h-3.24c-0.202,0-0.367-0.165-0.367-0.367V16.427z M30.469,25.592     c0,0,7.999-2.818,19.24-2.929c11.242,0.111,20.841,2.929,20.841,2.929v1.682c0,0-9.532-3.094-20.706-3.229V24.04     c-0.046,0.003-0.089,0.003-0.135,0.003s-0.089,0-0.135-0.003v0.005c-11.171,0.135-19.105,3.229-19.105,3.229V25.592z      M30.831,96.005h3.447l3.807-6.579h-1.914L30.831,96.005z M62.803,89.426l3.81,6.579h3.444l-5.34-6.579H62.803z M65.778,66.968     c0,0.645,0.523,1.166,1.166,1.166c0.646,0,1.166-0.521,1.166-1.166c0-0.646-0.521-1.167-1.166-1.167     C66.302,65.801,65.778,66.322,65.778,66.968z M76.795,23.225l-2.969-2.624l-1.088-4.775c0,0-0.713-0.907-0.517-1.272     c-0.069-0.024-0.631,1.364-0.631,1.364s-0.217,5.21-0.206,5.418c0,0.011,0.006,0.03,0.017,0.054     c-0.014-0.003-0.027-0.005-0.04-0.005v46.107c0,1.936-1.566,3.501-3.502,3.501l-18.015,0.217h-0.27l-16.338-0.217     c-1.933,0-3.499-1.565-3.499-3.501V21.384c-0.014,0-0.027,0.002-0.041,0.005c0.011-0.024,0.016-0.043,0.016-0.054     c0.011-0.208,0.011-5.418,0.011-5.418s-0.777-1.388-0.848-1.364c0.194,0.365-1.417,1.272-1.417,1.272l-0.397,4.775l-2.84,2.624     l0.021,3.156c-0.002,0.075-0.011,0.154-0.011,0.232l1.099,53.073c0,2.899,2.352,5.251,5.251,5.251h5.2v1.328h0.008v0.78h1.463     v-0.78l3.507,0.043v-1.371h9.084l10.415,0.173v1.371h3.461v0.78h1.464v-0.78h0.008v-1.371l5.113-0.173     c2.899,0,5.251-2.352,5.251-5.251l1.142-53.073c0-0.078-0.008-0.157-0.011-0.232L76.795,23.225z M32.777,66.968     c0,0.645,0.524,1.166,1.167,1.166c0.645,0,1.166-0.521,1.166-1.166c0-0.646-0.521-1.167-1.166-1.167     C33.301,65.801,32.777,66.322,32.777,66.968z M42.28,68.35v-2.765h-4.147v2.765H42.28z M61.804,68.35v-2.765h-4.319v2.765H61.804     z"></path></g></g></g></svg>