<svg xmlns="http://www.w3.org/2000/svg" xmlns:xlink="http://www.w3.org/1999/xlink" version="1.1" x="0px" y="0px" viewBox="0 0 100 100" enable-background="new 0 0 100 100" xml:space="preserve"><g><rect fill="none" width="100" height="100"></rect><circle cx="63.461" cy="59.615" r="5.626"></circle><circle cx="36.539" cy="59.615" r="5.626"></circle><path d="M50.15,4.581c-17.733,0-45.968,20.418-45.968,44.615c0,22.28,9.842,30.317,14.572,34.181   c0.603,0.492,1.124,0.917,1.415,1.208c0.72,0.72,1.68,1.099,2.653,1.099c0.296,0,0.592-0.04,0.884-0.11   c7.781,9.5,21.283,13.926,26.294,13.926c5.039,0,18.612-4.424,26.437-13.919c0.914,0.211,1.891,0.082,2.73-0.408   C84.198,82.235,95.9,72.852,95.9,49.196C95.9,22.375,68.364,4.581,50.15,4.581z M50,92.575c-4.09,0-20.551-5.84-24.33-17.521   c-1.073-7.77-2.006-15.066-1.135-20.574c1.661-10.499,7.066-15.384,9.553-16.039c0.942,0.79,2.658,2.85,3.842,4.272   c3.739,4.492,7.606,9.136,12.07,9.136c4.442,0,8.246-4.592,11.925-9.033c1.206-1.456,2.953-3.565,3.918-4.36   c2.045,0.674,7.649,5.149,9.526,16.033c0.857,4.986-0.084,14.197-0.953,20.847C70.322,87.337,52.947,92.575,50,92.575z    M82.387,72.016c0.731-6.509,1.22-13.877,0.373-18.8c-1.854-10.749-9.023-22.351-17.375-22.351c-3.299,0-5.789,3.006-9.236,7.167   c-1.665,2.011-4.713,5.69-6.151,6.278c-1.471-0.59-4.596-4.344-6.304-6.396c-3.408-4.093-5.87-7.05-9.079-7.05   c-6.852,0-15.266,8.395-17.488,22.443c-0.853,5.396-0.333,11.652,0.517,18.33c-3.142-4.328-5.961-11.103-5.961-22.442   c0-19.139,23.998-37.115,38.468-37.115c15.402,0,38.25,15.585,38.25,37.115C88.4,60.222,85.569,67.414,82.387,72.016z"></path><path d="M98.379,12.323c-2.726-4.733-4.663-8.167-4.667-8.173c-1.044-1.85-3.391-2.505-5.239-1.46   c-1.851,1.043-2.504,3.389-1.46,5.239c0,0,1.952,3.461,4.701,8.235c0.575,0.996,1.362,2.36-1.518,4.843   c-2.821,2.43-6.501,5.639-6.501,5.639l5.055,5.798c0,0,3.66-3.191,6.468-5.609C101.919,21.057,100.073,15.262,98.379,12.323z"></path><path d="M92.127,9.315c-3.207,1.765-7.64-0.496-8.391-1.844c-0.743-1.356,1.247-3.888,4.455-5.657   c3.203-1.769,6.411-2.1,7.158-0.747C96.098,2.419,95.335,7.546,92.127,9.315z"></path><path d="M9.806,21.009c-2.881-2.485-2.094-3.849-1.519-4.847c2.748-4.772,4.701-8.233,4.701-8.233   c1.043-1.85,0.39-4.196-1.46-5.239C9.677,1.645,7.331,2.299,6.288,4.15c-0.004,0.007-1.941,3.44-4.666,8.171   c-1.696,2.94-3.541,8.736,3.162,14.516c2.805,2.415,6.462,5.605,6.465,5.607l5.056-5.797C16.305,26.646,12.625,23.437,9.806,21.009   z"></path><path d="M7.873,9.315c3.208,1.765,7.64-0.496,8.391-1.844c0.744-1.356-1.247-3.888-4.455-5.657c-3.204-1.769-6.412-2.1-7.159-0.747   C3.902,2.419,4.665,7.546,7.873,9.315z"></path></g></svg>