<svg xmlns="http://www.w3.org/2000/svg" xmlns:xlink="http://www.w3.org/1999/xlink" version="1.1" x="0px" y="0px" viewBox="0 0 100 100" enable-background="new 0 0 100 100" xml:space="preserve"><g><rect x="-192" width="185" height="99"></rect><rect y="-36" width="100" height="30"></rect><text transform="matrix(1 0 0 1 66 -19.5)" fill="#000000" font-family="'Helvetica'" font-size="2.4">http://thenounproject.com</text><text transform="matrix(1 0 0 1 7.166 -24.5)"><tspan x="0" y="0" fill="#000000" font-family="'Helvetica-Bold'" font-size="6.1578">The Noun Project</tspan><tspan x="1.12" y="4.8" fill="#000000" font-family="'Helvetica-Bold'" font-size="4">Icon Template</tspan></text><text transform="matrix(1 0 0 1 -178.5 10.5)" fill="#000000" font-family="'Helvetica-Bold'" font-size="6.1578">Reminders</text><line fill="#000000" stroke="#FFFFFF" stroke-miterlimit="10" x1="8" y1="-14.5" x2="18" y2="-14.5"></line><line fill="#000000" stroke="#FFFFFF" stroke-miterlimit="10" x1="-179" y1="16.5" x2="-162" y2="16.5"></line><g><g><g><rect x="-170.802" y="31.318" fill="#000000" width="8.721" height="8.642"></rect><path fill="#000000" d="M-164.455,42.312h4.747v-4.703h-4.747V42.312z M-159.266,42.749h-5.63V37.17h5.63V42.749      L-159.266,42.749z M-166.221,44.062h8.279v-8.203h-8.279V44.062L-166.221,44.062z M-157.5,44.5h-9.163v-9.079h9.163V44.5      L-157.5,44.5z"></path><polygon fill="#000000" points="-166.149,44.133 -166.292,43.991 -158.013,35.787 -157.871,35.929     "></polygon></g></g></g><rect x="-179" y="58" fill="none" width="35" height="32.5"></rect><text transform="matrix(1 0 0 1 -179 60.1572)"><tspan x="0" y="0" fill="#000000" font-family="'Helvetica-Bold'" font-size="3">Strokes</tspan><tspan x="0" y="5" fill="#000000" font-family="'Helvetica'" font-size="2.4">Try to keep strokes at 4px</tspan><tspan x="0" y="10" fill="#000000" font-family="'Helvetica'" font-size="2.4">Minimum stroke weight is 2px</tspan><tspan x="0" y="14.5" fill="#000000" font-family="'Helvetica'" font-size="2.4">For thicker strokes use even </tspan><tspan x="0" y="17.5" fill="#000000" font-family="'Helvetica'" font-size="2.4">numbers: 6px, 8px etc.</tspan><tspan x="0" y="22" fill="#000000" font-family="'Helvetica-Bold'" font-size="2.4">Remember to expand strokes </tspan><tspan x="0" y="25" fill="#000000" font-family="'Helvetica-Bold'" font-size="2.4">before saving as an SVG </tspan></text><rect x="-136.5" y="58" fill="none" width="35" height="32.5"></rect><text transform="matrix(1 0 0 1 -136.5 60.1572)"><tspan x="0" y="0" fill="#000000" font-family="'Helvetica-Bold'" font-size="3">Size</tspan><tspan x="0" y="5" fill="#000000" font-family="'Helvetica'" font-size="2.4">Cannot be wider or taller than </tspan><tspan x="0" y="8.5" fill="#000000" font-family="'Helvetica'" font-size="2.4">100px (artboard size)</tspan><tspan x="0" y="13.5" fill="#000000" font-family="'Helvetica'" font-size="2.4">Scale your icon to fill as much of </tspan><tspan x="0" y="16.5" fill="#000000" font-family="'Helvetica'" font-size="2.4">the artboard as possible</tspan></text><rect x="-94" y="58" fill="none" width="35" height="32.5"></rect><text transform="matrix(1 0 0 1 -94 60.1572)"><tspan x="0" y="0" fill="#000000" font-family="'Helvetica-Bold'" font-size="3">Ungroup</tspan><tspan x="0" y="5" fill="#000000" font-family="'Helvetica'" font-size="2.4">If your design has more than one </tspan><tspan x="0" y="8" fill="#000000" font-family="'Helvetica'" font-size="2.4">shape, make sure to ungroup</tspan></text><rect x="-50" y="58" fill="none" width="35" height="32.5"></rect><text transform="matrix(1 0 0 1 -50 60.1572)"><tspan x="0" y="0" fill="#000000" font-family="'Helvetica-Bold'" font-size="3">Save as</tspan><tspan x="0" y="5" fill="#000000" font-family="'Helvetica'" font-size="2.4">Save as .SVG and make sure </tspan><tspan x="0" y="8" fill="#000000" font-family="'Helvetica'" font-size="2.4">“Use Artboards” is checked</tspan></text><text transform="matrix(1.0074 0 0 1 -125.542 30.5933)" fill="#000000" font-family="'Helvetica'" font-size="2.5731">100px</text><text transform="matrix(1.0074 0 0 1 -41 39)" fill="#000000" font-family="'Helvetica-Bold'" font-size="5.1462">.SVG</text><rect x="-126.514" y="34.815" fill="#000000" width="10.261" height="10.185"></rect><rect x="-126.477" y="31.766" fill="#000000" width="0.522" height="2.337"></rect><rect x="-116.812" y="31.766" fill="#000000" width="0.523" height="2.337"></rect><rect x="-127" y="32.337" fill="#000000" width="11.233" height="0.572"></rect><g><rect x="-83.805" y="33.844" fill="#000000" width="10.305" height="10.156"></rect><rect x="-76.809" y="28.707" fill="#000000" width="3.308" height="3.261"></rect></g><rect x="-178.5" y="22.5" fill="#000000" stroke="#FFFFFF" stroke-miterlimit="10" width="30" height="30"></rect><rect x="-136.5" y="22.5" fill="#000000" stroke="#FFFFFF" stroke-miterlimit="10" width="30" height="30"></rect><rect x="-93.5" y="22.5" fill="#000000" stroke="#FFFFFF" stroke-miterlimit="10" width="30" height="30"></rect><rect x="-49.5" y="22.5" fill="#000000" stroke="#FFFFFF" stroke-miterlimit="10" width="30" height="30"></rect></g><g><g><path fill="#000000" d="M50,8.197c1.074,0,2.148,0.014,2.577,0.041c1.896,0.119,1.638,10.479,3.501,10.851    c1.685,0.336,8.203,2.657,9.685,3.525c0.091,0.054,0.197,0.078,0.317,0.078c1.889,0,7.108-6.254,8.977-6.254    c0.142,0,0.264,0.036,0.362,0.114c0.682,0.524,3.338,2.708,3.949,3.312c1.35,1.338-5.445,9.051-4.295,10.563    c1.041,1.367,4.607,7.298,5.154,8.927c0.222,0.658,1.739,0.796,3.593,0.796c1.326,0,2.826-0.071,4.147-0.071    c1.887,0,3.411,0.143,3.555,0.837c0.175,0.841,0.823,4.219,0.895,5.076c0.157,1.893-9.973,3.434-10.079,5.332    c-0.096,1.714-1.163,8.551-1.79,10.151c-0.692,1.769,8.545,6.781,7.647,8.456c-0.404,0.758-2.085,3.76-2.576,4.464    c-0.141,0.2-0.41,0.287-0.774,0.287c-2.125,0-7.496-2.918-9.634-2.918c-0.334,0-0.589,0.07-0.74,0.236    c-1.163,1.265-6.403,5.776-7.896,6.626c-1.65,0.938,2.176,10.659,0.424,11.394c-0.792,0.332-4.018,1.526-4.844,1.763    c-0.048,0.015-0.097,0.021-0.146,0.021c-1.824,0-4.932-9.027-6.772-9.027c-0.028,0-0.056,0.002-0.083,0.007    c-0.849,0.132-3.001,0.195-5.153,0.195s-4.305-0.063-5.154-0.195c-0.027-0.005-0.055-0.007-0.083-0.007    c-1.841,0-4.949,9.027-6.772,9.027c-0.05,0-0.098-0.007-0.146-0.021c-0.825-0.236-4.051-1.431-4.842-1.763    c-1.753-0.734,2.073-10.455,0.421-11.394c-1.493-0.85-6.733-5.361-7.896-6.626c-0.151-0.166-0.406-0.236-0.74-0.236    c-2.137,0-7.509,2.918-9.634,2.918c-0.365,0-0.633-0.087-0.774-0.287c-0.492-0.704-2.172-3.706-2.577-4.464    c-0.896-1.675,8.341-6.688,7.648-8.456c-0.626-1.601-1.693-8.438-1.79-10.151c-0.107-1.898-10.236-3.438-10.08-5.332    c0.071-0.857,0.721-4.235,0.895-5.076c0.144-0.694,1.669-0.837,3.555-0.837c1.322,0,2.821,0.071,4.147,0.071    c1.855,0,3.372-0.138,3.593-0.796c0.547-1.628,4.114-7.56,5.153-8.927c1.151-1.512-5.644-9.225-4.293-10.563    c0.61-0.604,3.267-2.788,3.948-3.312c0.1-0.078,0.223-0.114,0.364-0.114c1.867,0,7.087,6.254,8.976,6.254    c0.12,0,0.226-0.024,0.317-0.078c1.482-0.869,8.001-3.189,9.686-3.525c1.864-0.372,1.604-10.732,3.5-10.851    C47.852,8.21,48.926,8.197,50,8.197 M50,1.448c-0.801,0-2.255,0.007-2.998,0.054c-1.645,0.102-5.638,0.96-7.188,6.698    c-0.371,1.375-0.608,2.927-0.837,4.427c-0.042,0.275-0.092,0.603-0.146,0.942c-1.372,0.457-2.884,1-4.257,1.538    c-0.255-0.223-0.499-0.438-0.704-0.618c-2.923-2.575-5.447-4.8-8.927-4.8c-1.647,0-3.198,0.526-4.486,1.519    c-0.493,0.381-3.578,2.875-4.575,3.861c-1.148,1.139-3.554,4.356-1.098,9.664c0.599,1.292,1.411,2.629,2.196,3.924    c0.147,0.241,0.322,0.53,0.501,0.831c-0.746,1.205-1.567,2.588-2.289,3.901c-0.305-0.006-0.614-0.014-0.924-0.021    c-0.762-0.02-1.523-0.038-2.237-0.038c-1.56,0-2.704,0.087-3.71,0.281c-5.05,0.974-6.216,4.791-6.454,5.938    c-0.009,0.044-0.884,4.354-1.012,5.883c-0.164,1.987,0.317,5.669,5.381,8.049c1.289,0.604,2.769,1.108,4.2,1.594    c0.27,0.093,0.593,0.202,0.927,0.318c0.205,1.399,0.465,2.983,0.753,4.449c-0.262,0.211-0.515,0.413-0.729,0.583    c-1.191,0.95-2.421,1.931-3.43,2.939c-4.302,4.311-2.906,8.255-2.106,9.751c0.02,0.036,2.114,3.883,2.995,5.143    c1.408,2.018,3.707,3.174,6.308,3.174c2.328,0,4.719-0.931,7.25-1.916c0.265-0.103,0.582-0.226,0.911-0.352    c1.064,0.945,2.284,1.986,3.44,2.916c-0.065,0.335-0.13,0.656-0.184,0.924c-0.3,1.49-0.61,3.031-0.732,4.453    c-0.518,5.991,3.012,8.14,4.554,8.786c0.841,0.354,4.376,1.678,5.587,2.026c0.654,0.188,1.33,0.283,2.01,0.283    c4.91,0,7.238-4.255,9.291-8.008c0.135-0.244,0.294-0.538,0.462-0.838c0.782,0.015,1.561,0.021,2.256,0.021    c0.695,0,1.473-0.007,2.255-0.021c0.167,0.302,0.329,0.594,0.463,0.838c2.055,3.753,4.382,8.008,9.291,8.008    c0.678,0,1.353-0.096,2.005-0.283c1.214-0.347,4.751-1.673,5.594-2.026c1.541-0.646,5.07-2.797,4.553-8.788    c-0.122-1.42-0.433-2.961-0.732-4.451c-0.054-0.271-0.119-0.592-0.184-0.926c1.154-0.928,2.374-1.969,3.439-2.914    c0.329,0.126,0.646,0.249,0.911,0.352c2.532,0.985,4.923,1.916,7.25,1.916c2.6,0,4.898-1.156,6.307-3.172    c0.885-1.269,2.978-5.112,2.996-5.148c0.799-1.49,2.197-5.435-2.106-9.744c-1.008-1.012-2.24-1.992-3.431-2.944    c-0.214-0.168-0.466-0.37-0.729-0.581c0.288-1.466,0.55-3.05,0.754-4.449c0.334-0.116,0.658-0.226,0.928-0.318    c1.431-0.485,2.91-0.989,4.199-1.594c5.063-2.381,5.545-6.062,5.381-8.046c-0.127-1.526-1.005-5.848-1.014-5.89    c-0.236-1.142-1.402-4.96-6.452-5.934c-1.006-0.194-2.149-0.281-3.71-0.281c-0.714,0-1.475,0.018-2.237,0.038    c-0.31,0.007-0.618,0.015-0.924,0.021c-0.721-1.313-1.542-2.696-2.289-3.901c0.18-0.3,0.355-0.589,0.503-0.831    c0.784-1.294,1.596-2.632,2.194-3.924c0.818-1.769,2.35-6.249-1.098-9.664c-1-0.989-4.082-3.481-4.578-3.864    c-1.284-0.99-2.836-1.516-4.482-1.516c-3.481,0-6.005,2.225-8.927,4.8c-0.206,0.181-0.449,0.396-0.704,0.617    c-1.374-0.537-2.885-1.08-4.257-1.537c-0.054-0.339-0.104-0.667-0.146-0.942c-0.229-1.5-0.466-3.052-0.839-4.427    c-1.55-5.737-5.543-6.596-7.188-6.698C52.255,1.455,50.801,1.448,50,1.448L50,1.448z"></path></g><g><path fill="#000000" d="M50,71.211c-11.696,0-21.211-9.515-21.211-21.211c0-11.696,9.516-21.211,21.211-21.211    c11.696,0,21.211,9.516,21.211,21.211C71.211,61.696,61.696,71.211,50,71.211z M50,35.537c-7.975,0-14.462,6.488-14.462,14.463    c0,7.976,6.487,14.463,14.462,14.463c7.975,0,14.463-6.487,14.463-14.463C64.463,42.025,57.975,35.537,50,35.537z"></path></g></g></svg>