<svg xmlns="http://www.w3.org/2000/svg" xmlns:xlink="http://www.w3.org/1999/xlink" version="1.1" x="0px" y="0px" viewBox="0 0 100 100" enable-background="new 0 0 100 100" xml:space="preserve"><g><path fill-rule="evenodd" clip-rule="evenodd" d="M81.403,24.651c2.074,3.602,4.2,7.175,6.199,10.816   c1.508,2.749,2.761,5.644,4.315,8.365c1.121,1.957,0.516,3.118-1.166,4.246c-3.791,2.538-7.515,5.182-11.289,7.749   c-2.674,1.819-3.166,1.662-4.132-1.385c-1.816-5.709-3.579-11.432-5.365-17.149c-0.138-0.438-0.305-0.868-1-1.23   c0.404,3.65,0.778,7.307,1.224,10.951c1.829,14.987,3.687,29.967,5.512,44.956c0.462,3.834,0.275,4.127-3.699,4.724   c-4.952,0.742-9.927,1.316-14.892,1.964c-0.036-0.301-0.075-0.605-0.111-0.904c3.578-0.409,7.156-0.804,10.729-1.227   c7.743-0.914,7.668-0.912,6.64-8.646C73.19,79.032,72.11,70.168,71.07,61.3c-1.508-12.824-2.942-25.655-4.421-38.483   c-0.078-0.693-0.288-1.372-0.437-2.06c-0.271,0.005-0.546,0.013-0.817,0.018c0,2.75,0,5.497,0,8.245   c-0.24,0.009-0.486,0.02-0.729,0.029c-0.383-2.684-0.767-5.367-1.146-8.046c-0.439-0.011-0.878-0.02-1.314-0.029   c-0.342,2.755-0.685,5.511-1.025,8.27c-0.15-0.002-0.296-0.004-0.446-0.004c0-1.955,0.092-3.917-0.042-5.865   c-0.053-0.844-0.566-1.658-0.869-2.487c-0.76,0.602-1.963,1.057-2.205,1.82c-1.553,4.915-5.147,5.851-9.709,5.649   c-2.127-0.092-3.235-0.627-3.857-2.77c-0.629-2.175-1.524-4.444-4.739-5.172c0,3.203,0,6.08,0,8.958   c-0.33,0.024-0.662,0.044-0.992,0.066c-0.099-1.357-0.204-2.711-0.299-4.07c-0.101-1.451-0.192-2.9-0.288-4.349   c-0.325-0.022-0.655-0.042-0.979-0.063c-0.44,2.667-0.882,5.333-1.324,8c-0.2,0.003-0.396,0.007-0.591,0.011   c0-2.634,0-5.268,0-7.903c-0.337-0.002-0.671-0.006-1.005-0.006c-0.213,1.467-0.424,2.935-0.637,4.406   c-0.255-0.015-0.504-0.026-0.759-0.041c0-4.756,0-9.515,0-14.882c-1.183,0.86-1.75,1.266-2.12,1.535   c-0.374-0.82-0.732-1.596-1.086-2.373c-0.691,0.515-1.658,0.881-2.038,1.567c-5.198,9.402-10.385,18.807-15.438,28.29   c-3.71,6.966-3.615,7.002,2.958,11.373c2.133,1.418,4.218,2.905,6.328,4.361c-0.097,0.116-0.193,0.226-0.292,0.34   c-4.054-2.638-8.09-5.299-12.167-7.895c-1.605-1.018-1.104-2.175-0.442-3.415c4.981-9.288,9.963-18.58,14.95-27.865   c0.226-0.417,0.541-0.794,0.704-1.234c2.949-8.103,9.71-11.447,17.244-13.798c0.479-0.15,1.125-0.098,1.596,0.096   c4.591,1.879,9.247,1.599,14.013,0.799c1.675-0.28,3.532-0.02,5.211,0.383c7.835,1.889,12.662,7.226,15.933,14.26   c1.192,2.563,2.404,5.115,3.604,7.672c-0.697-0.989-1.472-1.937-2.08-2.977c-1.961-3.354-3.776-6.803-5.831-10.1   c-0.967-1.561-2.358-3.414-3.415,0.081c-0.055,0.18-0.426,0.453-0.501,0.411c-1.962-1.113-1.694,0.826-1.665,1.471   c0.257,5.924-0.055,11.999,1.203,17.721c1.662,7.564,4.582,14.851,6.986,22.251c0.278,0.854,0.695,1.665,1.137,2.714   c4.687-3.253,9.134-6.247,13.43-9.44c0.521-0.385,0.578-1.975,0.262-2.78c-0.753-1.933-1.899-3.71-2.82-5.581   C85.853,33.834,83.638,29.24,81.403,24.651z M46.28,26.324c6.782,1.515,7.711,1.115,10.185-3.804   c2.091-4.156,4.175-8.312,6.245-12.478c2.707-5.445,2.704-5.451-3.087-7.221c-0.159-0.05-0.363,0.05-0.976,0.148   C54.666,10.488,50.566,18.228,46.28,26.324z M45.602,26.283c1.33-2.837,2.425-5.011,3.349-7.252   c0.255-0.62,0.238-1.559-0.049-2.161c-2.078-4.358-4.195-8.702-6.479-12.953c-0.337-0.629-1.711-1.165-2.458-1.012   c-1.504,0.308-2.907,1.121-4.578,1.82C38.804,11.933,42.065,18.818,45.602,26.283z M57.402,3.656c-4.979,0-9.297,0-13.879,0   c2.091,4.266,4.14,8.437,6.515,13.266C52.703,12.122,55.003,7.983,57.402,3.656z M41.053,19.395   c-2.291-4.864-4.25-9.094-6.302-13.275c-0.146-0.293-1.288-0.495-1.405-0.335c-0.382,0.537-0.741,1.274-0.699,1.908   c0.22,3.196,0.471,6.4,0.941,9.568c0.117,0.777,0.996,1.907,1.687,2.038C36.878,19.6,38.579,19.395,41.053,19.395z M59.397,19.387   c2.396,0,3.982,0.15,5.516-0.074c0.608-0.088,1.471-0.942,1.573-1.559c0.56-3.344,0.946-6.72,1.317-10.092   c0.049-0.475-0.299-0.991-0.466-1.489c-0.563,0.213-1.438,0.265-1.646,0.662C63.668,10.713,61.751,14.651,59.397,19.387z"></path><path fill-rule="evenodd" clip-rule="evenodd" d="M21.043,55.297c2.193,1.259,2.848-0.262,3.382-1.905   c2.641-8.136,5.264-16.276,7.905-24.41c0.079-0.248,0.242-0.468,0.908-0.662c-0.119,1.212-0.191,2.432-0.378,3.635   c-2.637,16.8-5.286,33.601-7.94,50.397c-0.504,3.191-0.996,6.383-1.579,9.56c-0.413,2.262,0.176,3.753,2.658,4.064   c5.069,0.641,10.143,1.276,15.196,2.084c-5.898,0.335-11.733-0.194-17.424-1.823c-0.675-0.192-1.511-1.71-1.399-2.481   c1.959-13.252,4.054-26.484,6.115-39.722c0.842-5.414,1.667-10.832,2.104-16.356c-1.865,5.568-3.716,11.144-5.607,16.705   c-1.117,3.281-1.354,3.331-4.231,1.253C20.85,55.522,20.946,55.413,21.043,55.297z"></path><path fill-rule="evenodd" clip-rule="evenodd" d="M43.291,96.755c3.903,0,7.8,0,11.704,0c0,0.083,0,0.167,0,0.252   c-3.903,0-7.801,0-11.704,0C43.291,96.922,43.291,96.838,43.291,96.755z"></path></g></svg>