<svg xmlns="http://www.w3.org/2000/svg" xmlns:xlink="http://www.w3.org/1999/xlink" version="1.1" x="0px" y="0px" viewBox="0 0 100 100" enable-background="new 0 0 100 100" xml:space="preserve"><g><rect x="-192" width="185" height="99"></rect><rect y="-36" width="100" height="30"></rect><text transform="matrix(1 0 0 1 66 -19.5)" fill="#000000" font-family="'Helvetica'" font-size="2.4">http://thenounproject.com</text><text transform="matrix(1 0 0 1 7.166 -24.5)"><tspan x="0" y="0" fill="#000000" font-family="'Helvetica-Bold'" font-size="6.1578">The Noun Project</tspan><tspan x="1.12" y="4.8" fill="#000000" font-family="'Helvetica-Bold'" font-size="4">Icon Template</tspan></text><text transform="matrix(1 0 0 1 -178.5 10.5)" fill="#000000" font-family="'Helvetica-Bold'" font-size="6.1578">Reminders</text><line fill="#000000" stroke="#FFFFFF" stroke-miterlimit="10" x1="8" y1="-14.5" x2="18" y2="-14.5"></line><line fill="#000000" stroke="#FFFFFF" stroke-miterlimit="10" x1="-179" y1="16.5" x2="-162" y2="16.5"></line><g><g><g><rect x="-170.802" y="31.318" fill="#000000" width="8.721" height="8.642"></rect><path fill="#000000" d="M-164.455,42.312h4.747v-4.703h-4.747V42.312z M-159.266,42.749h-5.63V37.17h5.63V42.749      L-159.266,42.749z M-166.221,44.062h8.279v-8.203h-8.279V44.062L-166.221,44.062z M-157.5,44.5h-9.163v-9.079h9.163V44.5      L-157.5,44.5z"></path><polygon fill="#000000" points="-166.149,44.133 -166.292,43.991 -158.013,35.787 -157.871,35.929     "></polygon></g></g></g><rect x="-179" y="58" fill="none" width="35" height="32.5"></rect><text transform="matrix(1 0 0 1 -179 60.1572)"><tspan x="0" y="0" fill="#000000" font-family="'Helvetica-Bold'" font-size="3">Strokes</tspan><tspan x="0" y="5" fill="#000000" font-family="'Helvetica'" font-size="2.4">Try to keep strokes at 4px</tspan><tspan x="0" y="10" fill="#000000" font-family="'Helvetica'" font-size="2.4">Minimum stroke weight is 2px</tspan><tspan x="0" y="14.5" fill="#000000" font-family="'Helvetica'" font-size="2.4">For thicker strokes use even </tspan><tspan x="0" y="17.5" fill="#000000" font-family="'Helvetica'" font-size="2.4">numbers: 6px, 8px etc.</tspan><tspan x="0" y="22" fill="#000000" font-family="'Helvetica-Bold'" font-size="2.4">Remember to expand strokes </tspan><tspan x="0" y="25" fill="#000000" font-family="'Helvetica-Bold'" font-size="2.4">before saving as an SVG </tspan></text><rect x="-136.5" y="58" fill="none" width="35" height="32.5"></rect><text transform="matrix(1 0 0 1 -136.5 60.1572)"><tspan x="0" y="0" fill="#000000" font-family="'Helvetica-Bold'" font-size="3">Size</tspan><tspan x="0" y="5" fill="#000000" font-family="'Helvetica'" font-size="2.4">Cannot be wider or taller than </tspan><tspan x="0" y="8.5" fill="#000000" font-family="'Helvetica'" font-size="2.4">100px (artboard size)</tspan><tspan x="0" y="13.5" fill="#000000" font-family="'Helvetica'" font-size="2.4">Scale your icon to fill as much of </tspan><tspan x="0" y="16.5" fill="#000000" font-family="'Helvetica'" font-size="2.4">the artboard as possible</tspan></text><rect x="-94" y="58" fill="none" width="35" height="32.5"></rect><text transform="matrix(1 0 0 1 -94 60.1572)"><tspan x="0" y="0" fill="#000000" font-family="'Helvetica-Bold'" font-size="3">Ungroup</tspan><tspan x="0" y="5" fill="#000000" font-family="'Helvetica'" font-size="2.4">If your design has more than one </tspan><tspan x="0" y="8" fill="#000000" font-family="'Helvetica'" font-size="2.4">shape, make sure to ungroup</tspan></text><rect x="-50" y="58" fill="none" width="35" height="32.5"></rect><text transform="matrix(1 0 0 1 -50 60.1572)"><tspan x="0" y="0" fill="#000000" font-family="'Helvetica-Bold'" font-size="3">Save as</tspan><tspan x="0" y="5" fill="#000000" font-family="'Helvetica'" font-size="2.4">Save as .SVG and make sure </tspan><tspan x="0" y="8" fill="#000000" font-family="'Helvetica'" font-size="2.4">“Use Artboards” is checked</tspan></text><text transform="matrix(1.0074 0 0 1 -125.542 30.5933)" fill="#000000" font-family="'Helvetica'" font-size="2.5731">100px</text><text transform="matrix(1.0074 0 0 1 -41 39)" fill="#000000" font-family="'Helvetica-Bold'" font-size="5.1462">.SVG</text><rect x="-126.514" y="34.815" fill="#000000" width="10.261" height="10.185"></rect><rect x="-126.477" y="31.766" fill="#000000" width="0.522" height="2.337"></rect><rect x="-116.812" y="31.766" fill="#000000" width="0.523" height="2.337"></rect><rect x="-127" y="32.337" fill="#000000" width="11.233" height="0.572"></rect><g><rect x="-83.805" y="33.844" fill="#000000" width="10.305" height="10.156"></rect><rect x="-76.809" y="28.707" fill="#000000" width="3.308" height="3.261"></rect></g><rect x="-178.5" y="22.5" fill="#000000" stroke="#FFFFFF" stroke-miterlimit="10" width="30" height="30"></rect><rect x="-136.5" y="22.5" fill="#000000" stroke="#FFFFFF" stroke-miterlimit="10" width="30" height="30"></rect><rect x="-93.5" y="22.5" fill="#000000" stroke="#FFFFFF" stroke-miterlimit="10" width="30" height="30"></rect><rect x="-49.5" y="22.5" fill="#000000" stroke="#FFFFFF" stroke-miterlimit="10" width="30" height="30"></rect></g><g><g><path d="M85.037,31H40.12c-3.054,0-5.815,2.439-6.151,5.494l-3.033,27.739C30.6,67.287,32.813,70,35.866,70h44.918    c3.053,0,5.812-2.736,6.149-5.791l3.032-27.59C90.302,33.564,88.09,31,85.037,31z M84.571,34L69.46,45.46l-6.167-5.9    c-0.358-0.336-0.731-0.572-1.242-0.572c-0.953,0-1.826,0.763-2.014,1.694C59.997,41.048,59.455,46,59.455,46s-3.382,0-6.185,0    L40.106,34H84.571z M84.044,64.154C83.883,65.615,82.564,67,81.103,67H36.185c-1.462,0-2.519-1.385-2.358-2.846l3.032-27.61    c0.057-0.514,0.262-1.039,0.562-1.445L49.259,45.97c-0.837,0.16-1.54,0.854-1.667,1.714c-0.002,0-0.556,5.017-0.554,5.018    c-0.078,0.979,0.634,1.758,1.615,1.768c0.542,0,9.858,0.001,9.858,0.001s-0.595,5.333-0.588,5.333    c-0.007,0.921,0.704,1.64,1.648,1.64c0.55,0,0.949-0.219,1.438-0.629l11.712-9.185c0.467-0.335,0.806-0.853,0.87-1.44    c0.066-0.595-0.165-1.118-0.57-1.453l-1.754-1.664l15.594-11.932c0.178,0.387,0.266,0.926,0.214,1.403L84.044,64.154z"></path><path d="M29.475,39H11.083c-0.829,0-1.5,0.671-1.5,1.5s0.671,1.5,1.5,1.5h18.391c0.829,0,1.5-0.671,1.5-1.5S30.303,39,29.475,39z"></path><path d="M28.609,47H15.411c-0.829,0-1.5,0.671-1.5,1.5c0,0.828,0.671,1.5,1.5,1.5h13.198c0.829,0,1.5-0.672,1.5-1.5    C30.109,47.671,29.438,47,28.609,47z"></path><path d="M27.744,56h-8.005c-0.829,0-1.5,0.672-1.5,1.5s0.671,1.5,1.5,1.5h8.005c0.829,0,1.5-0.672,1.5-1.5S28.572,56,27.744,56z"></path></g></g></svg>