<svg xmlns="http://www.w3.org/2000/svg" xmlns:xlink="http://www.w3.org/1999/xlink" version="1.1" x="0px" y="0px" viewBox="0 0 100 100" enable-background="new 0 0 100 100" xml:space="preserve"><g><path d="M30.086,45.76c0,0-0.105,8.09,3.939,10.476c4.628,2.734,11.979,0.019,12.241-2.697   C43.679,52.118,34.646,48.558,30.086,45.76z"></path><path d="M69.914,45.76c0,0,0.105,8.09-3.939,10.476c-4.628,2.734-11.979,0.019-12.241-2.697   C56.321,52.118,65.354,48.558,69.914,45.76z"></path><path d="M61.538,72.176c-2.914-5.627-5.524-0.901-11.538-0.901c-6.01,0-8.752-4.5-11.538,0.901   c-1.601,3.095,4,10.216,11.538,10.216S62.905,74.819,61.538,72.176z M55.77,75.181c-0.166,0-1.409-0.466-1.924-1.202   c-0.24,0.938-1.382,2.043-1.742,2.043s-1.923-1.382-2.224-2.043c-0.364,0.887-1.562,2.043-1.882,2.043s-1.499-1.363-1.724-2.283   c-0.812,0.788-1.853,1.442-2.164,1.442s-1.9-3.043-1.803-3.587c1.983,0.42,3.884,1.783,7.692,1.783s6.693-1.292,7.692-1.783   C57.212,73.336,55.935,75.181,55.77,75.181z"></path><path d="M99.399,65.047c0-24.727-9.541-32.362-9.541-32.362s6.333,2.915,9.721,7.993C84.157,1.284,53.839,0.474,50,0.533   c-3.839-0.06-34.157,0.751-49.579,40.145c3.388-5.078,9.72-7.993,9.72-7.993s-9.54,7.636-9.54,32.362   c3.223-4.124,4.12-3.944,4.12-3.944s-6.449,18.097-0.176,37.981c2.253-0.704,18.854-5.573,27.372-7.918   c5.763,4.962,12.355,8.065,18.083,8.065c5.616,0,12.187-2.967,18.101-8.061c8.523,2.347,25.103,7.209,27.354,7.913   c6.272-19.885-0.177-37.981-0.177-37.981S96.177,60.923,99.399,65.047z M79.616,60.655c-1.632,0-2.98,1.274-3.072,2.903   C75.916,74.68,63.25,93.077,50,93.077c-13.323,0-25.967-18.398-26.543-29.52c-0.084-1.636-1.422-2.917-3.06-2.917   c-1.375-0.094-5.781-3.832-5.781-7.85c0-3.724,1.725-6.753,3.845-6.753c1.63,0,2.978-1.271,3.072-2.899   c0.089-1.542,0.248-3.005,0.471-4.35c0.019-0.112,0.015-0.222,0.021-0.333c0.678-4.138,2.175-11.415,4.815-15.899   c1.339,1.443,3.458,3.697,6.209,6.516l-1.988,1.988c-0.901,0.901-0.901,2.362,0,3.264C31.511,34.774,32.102,35,32.692,35   s1.181-0.226,1.632-0.676l1.967-1.967c1.381,1.384,2.871,2.857,4.457,4.4l-1.995,1.995c-0.901,0.901-0.901,2.362,0,3.264   c0.451,0.45,1.041,0.676,1.632,0.676s1.181-0.226,1.632-0.676l2.057-2.058c1.421,1.354,2.899,2.743,4.435,4.163   c0.444,0.41,1.005,0.613,1.566,0.613c0.621,0,1.241-0.249,1.695-0.741c0.865-0.936,0.808-2.396-0.128-3.261   c-1.49-1.377-2.924-2.726-4.304-4.038l2.371-2.371c0.901-0.901,0.901-2.362,0-3.264c-0.901-0.9-2.362-0.9-3.264,0l-2.434,2.434   c-1.587-1.544-3.078-3.018-4.457-4.4l2.462-2.462c0.901-0.901,0.901-2.362,0-3.264c-0.901-0.9-2.362-0.9-3.264,0l-2.44,2.44   c-3.016-3.091-5.252-5.482-6.509-6.847c5.236-5.199,9.299-6.909,12.681-6.909c3.32,0,0.563,6.795,7.286,7.103   c0,0.008,0.004,0.02,0.004,0.03c0.083,0,0.143-0.015,0.226-0.015s0.143,0.015,0.226,0.015c0-0.011,0.004-0.022,0.004-0.03   c6.723-0.308,3.966-7.103,7.286-7.103c3.685,0,8.173,2.018,14.111,8.38c3.44,3.688,5.358,12.317,6.225,17.38   c0.009,0.076,0.005,0.151,0.02,0.228c0.294,1.577,0.494,3.292,0.596,5.095c0.093,1.629,1.44,2.903,3.072,2.903   c1.778,0,3.846,2.949,3.846,6.753C85.385,56.691,81.684,60.655,79.616,60.655z"></path></g></svg>