<svg xmlns="http://www.w3.org/2000/svg" xmlns:xlink="http://www.w3.org/1999/xlink" version="1.1" x="0px" y="0px" viewBox="0 0 100 100" enable-background="new 0 0 100 100" xml:space="preserve"><g><g><g><path d="M41.552,41.977V26.164h16.254v15.812h15.812v16.234H57.806v15.812H41.552V58.211H25.759V41.977H41.552z M57.164,47.636     c-1.023-1.686-3.09-2.247-4.836-1.846c-1.325,0.341-2.087,1.003-2.629,2.367l-0.04-0.181c-1.826-2.97-5.217-2.047-6.281-1.264     c-0.822,0.562-1.465,1.484-1.666,2.749c-0.301,1.906,0.542,3.11,1.666,4.094c0.923,0.803,2.067,1.465,2.91,2.247     c0.682,0.622,1.505,1.405,2.167,2.147c0.662,0.763,1.164,1.484,1.204,1.986c0.08-0.983,2.067-3.07,3.492-4.374     c0.702-0.643,1.605-1.204,2.428-1.847c0.622-0.481,1.184-0.983,1.585-1.605c0.501-0.763,0.763-1.686,0.562-2.89     C57.625,48.619,57.425,48.077,57.164,47.636z"></path></g></g></g></svg>