<svg xmlns="http://www.w3.org/2000/svg" xmlns:xlink="http://www.w3.org/1999/xlink" version="1.1" x="0px" y="0px" viewBox="0 0 100 100" enable-background="new 0 0 100 100" xml:space="preserve"><g><g><g><g><g><path d="M72.891,39.762c0.36,2.568,0.181,4.756-0.401,6.662c-2.81-3.19-6.883-5.178-11.438-5.178       c-8.448,0-15.311,6.863-15.311,15.291c0,5.037,2.448,9.532,6.221,12.301c-2.107,2.729-3.672,5.318-3.773,6.964       c-0.121-1.666-1.666-4.114-3.712-6.662c-2.027-2.569-4.555-5.218-6.642-7.265c-2.588-2.629-6.06-4.816-8.93-7.525       c-3.432-3.291-6-7.344-5.077-13.806c0.642-4.254,2.568-7.305,5.077-9.251c3.291-2.568,13.666-5.699,19.264,4.314l0.1,0.603       c1.686-4.596,4.013-6.823,8.067-7.967c5.378-1.385,11.679,0.502,14.81,6.181C71.967,35.929,72.569,37.715,72.891,39.762z"></path><path d="M61.532,45.781c6.342,0,11.458,5.117,11.458,11.458c0,6.321-5.116,11.438-11.458,11.438       c-6.321,0-11.458-5.117-11.458-11.438C50.074,50.898,55.211,45.781,61.532,45.781z M68.496,54.992h-4.154v-4.154h-4.274v4.154       h-4.153v4.274h4.153v4.153h4.274v-4.153h4.154V54.992z"></path></g></g></g></g></g></svg>