<svg xmlns="http://www.w3.org/2000/svg" xmlns:xlink="http://www.w3.org/1999/xlink" version="1.1" x="0px" y="0px" viewBox="0 0 100 100" enable-background="new 0 0 100 100" xml:space="preserve"><path d="M57.414,31.438c5.198-3.38,7.276,1.192,7.998,5.143l0.012,0.014c0.374,1.982,0.679,4.382,0.875,7.126  c-1.693,6.033-3.246,9.374-6.032,12.577c-1.566,1.817-3.065,3.55-4.284,5.671c-3.05,5.421-2.191,7.875-2.093,12.099l-18.178,0.336  c0.084-0.223,0.167-0.399,0.25-0.594c0.529-1.224,1.068-2.499,0-3.938c-1.706-2.414-2.578-7.197-1.358-11.745  c0.985-4.215,5.639-7.067,9.414-7.458c11.664-1.207,14.724-11.08,14.724-11.812C58.824,38.813,57.29,32.27,57.414,31.438z"></path><path d="M58.973,37.417c-1.208,0.734-4.351,1.502-4.822,1.559c-0.581,0.096-1.803-0.458-2.649-1.33  c-0.219-0.444-0.443-0.915-0.637-1.373c-0.083-0.195-0.164-0.39-0.235-0.583c0.277-1.123,1.371-2.051,3.273-2.744  c0.649-0.251,4.677-2.283,5.329-2.462C59.315,30.775,58.931,37.153,58.973,37.417z"></path><path d="M54.361,40.35c0.68-0.084,1.483-0.39,2.427-0.903c0.192,1.346,0.096,2.067-1.263,2.828c-0.499,0.166-0.79,0.111-0.998,0.015  c-0.583-0.263-1-0.998-1.359-1.566c-0.07-0.138-0.138-0.25-0.207-0.361c-0.043-0.083-0.099-0.164-0.156-0.249  c0.432,0.166,0.861,0.264,1.234,0.264C54.167,40.376,54.29,40.361,54.361,40.35z"></path><path d="M50.607,41.816c0.311,1.622,0.387,2.426-1.228,3.256c-0.606,0.189-0.918,0.115-1.165,0.014  c-0.634-0.286-1.118-1.001-1.522-1.562c-0.077-0.131-0.171-0.258-0.25-0.357c-0.558-0.859-1.382-2.151-2.079-3.514  c-0.902-1.706-1.647-3.512-1.664-4.688c-0.014-0.891,0.917-2.324,2.315-2.954c0.746-0.329,1.46-0.359,2.188-0.042  c1.57,0.817,2.316,2.796,2.703,4.774c0.233,1.175,0.357,2.364,0.436,3.312c0.032,0.314,0.063,0.615,0.109,0.902  C50.499,41.259,50.543,41.545,50.607,41.816z"></path><path d="M39.353,46.794c-0.093-0.117-0.156-0.244-0.232-0.357c-0.537-0.777-1.244-1.922-1.905-3.171  c-0.474-0.889-0.919-1.807-1.261-2.681c-0.337-0.889-0.551-1.704-0.551-2.338c-0.03-0.889,0.906-2.322,2.275-2.952  c0.75-0.33,1.442-0.36,2.164-0.06c1.676,0.892,2.412,3.084,2.75,5.191c0.215,1.032,0.292,2.079,0.384,2.909  c0.016,0.305,0.063,0.618,0.076,0.891c0.046,0.316,0.109,0.602,0.155,0.876c0.322,1.604,0.401,2.438-1.215,3.254  c-0.568,0.202-0.907,0.115-1.136,0C40.228,48.084,39.735,47.367,39.353,46.794z"></path><path d="M33.284,50.673c-0.403-0.543-0.948-1.322-1.457-2.196c-1.029-1.685-2.036-3.698-2.095-4.999  c-0.078-0.828,0.659-2.271,1.815-3.034c0.624-0.414,1.228-0.51,1.848-0.32c1.63,0.681,2.331,3.031,2.723,5.144  c0.139,0.726,0.245,1.429,0.312,2.026c0.043,0.283,0.075,0.554,0.119,0.824c0.044,0.27,0.118,0.536,0.188,0.79  c0.318,1.447,0.432,2.219-0.914,3.193c-0.472,0.248-0.776,0.213-0.983,0.142c-0.548-0.173-1-0.794-1.354-1.275  C33.402,50.852,33.335,50.749,33.284,50.673z"></path></svg>