<svg xmlns="http://www.w3.org/2000/svg" xmlns:xlink="http://www.w3.org/1999/xlink" version="1.1" x="0px" y="0px" viewBox="0 0 58.333 100" enable-background="new 0 0 58.333 100" xml:space="preserve"><path d="M37.697,26.919c4.07-2.371,6.747-6.389,6.747-10.947c0-2.961-1.142-5.683-3.049-7.886l1.582-6.247l-0.011-0.01  c0.049-0.14,0.089-0.283,0.089-0.441C43.055,0.621,42.434,0,41.667,0c-0.238,0-0.453,0.076-0.651,0.183l-0.012-0.011l-7.271,3.205  c-1.44-0.388-2.975-0.6-4.565-0.6s-3.125,0.211-4.566,0.6L17.33,0.172l-0.013,0.011C17.12,0.076,16.906,0,16.667,0  c-0.767,0-1.389,0.621-1.389,1.389c0,0.158,0.041,0.301,0.089,0.441l-0.011,0.01l1.583,6.247c-1.907,2.203-3.049,4.925-3.049,7.886  c0,4.559,2.677,8.577,6.748,10.947C-6.221,30.512,4.641,51.626,9.722,54.167l4.167-2.778c0,0-7.443-13.655,3.504-5.73  c2.669,0.854,6.465,1.564,11.773,1.564c5.311,0,9.106-0.71,11.775-1.565c10.946-7.922,3.502,5.731,3.502,5.731l4.167,2.778  C53.692,51.626,64.555,30.512,37.697,26.919z M34.722,9.722c0.768,0,1.389,0.621,1.389,1.389c0,0.768-0.621,1.389-1.389,1.389  s-1.389-0.621-1.389-1.389C33.333,10.343,33.955,9.722,34.722,9.722z M29.167,13.889c3.068,0,5.556,2.488,5.556,5.556  c0,3.068-2.487,5.556-5.556,5.556c-3.068,0-5.556-2.487-5.556-5.556C23.611,16.376,26.099,13.889,29.167,13.889z M23.611,9.722  c0.767,0,1.389,0.621,1.389,1.389c0,0.768-0.622,1.389-1.389,1.389s-1.389-0.621-1.389-1.389  C22.222,10.343,22.844,9.722,23.611,9.722z"></path><path d="M26.389,17.361c-0.767,0-1.389,0.621-1.389,1.389v1.389c0,0.768,0.622,1.389,1.389,1.389s1.389-0.621,1.389-1.389V18.75  C27.778,17.982,27.156,17.361,26.389,17.361z"></path><path d="M31.944,17.361c-0.768,0-1.389,0.621-1.389,1.389v1.389c0,0.768,0.621,1.389,1.389,1.389c0.769,0,1.39-0.621,1.39-1.389  V18.75C33.333,17.982,32.712,17.361,31.944,17.361z"></path><path d="M7.671,91.734c1.194,1.722,2.051,2.71,2.051,2.71S13.889,100,29.167,100c15.277,0,19.444-5.556,19.444-5.556  s0.857-0.988,2.051-2.71c-5.144,2.082-12.451,4.099-21.495,4.099C20.122,95.833,12.815,93.816,7.671,91.734z"></path><path d="M17.544,52.289l-0.717,0.479c3.609,0.828,7.738,1.398,12.34,1.398c4.602,0,8.73-0.57,12.34-1.398l-0.718-0.479l1.217-2.229  c0.383-0.704,0.738-1.459,1.059-2.19C40.052,49.011,35.605,50,29.167,50s-10.885-0.989-13.897-2.131  c0.319,0.731,0.675,1.487,1.058,2.19L17.544,52.289z"></path><g><path d="M30.506,83.235c1.541-0.276,2.413-1.386,2.413-3.141c0-1.341-1.26-2.168-2.413-2.65V83.235z"></path><path d="M53.974,52.724c-1.297,1.842-2.755,3.244-4.121,3.928l-1.441,0.722l-1.342-0.896l-2.417-1.611   c-4.33,1.195-9.523,2.078-15.486,2.078s-11.156-0.883-15.487-2.078l-2.417,1.611l-1.341,0.896l-1.442-0.722   c-1.366-0.684-2.824-2.086-4.121-3.928C2.107,57.143,0,62.979,0,69.444c0,7.11,2.546,13.478,5.033,18.015   c4.694,2.37,13.101,5.597,24.133,5.597c11.052,0,19.441-3.218,24.127-5.586c2.488-4.536,5.04-10.91,5.04-18.025   C58.333,62.979,56.225,57.143,53.974,52.724z M37.208,80.095c0,4.145-2.719,7.118-6.702,7.471v2.178h-2.679v-2.281   c-4.895-0.694-6.703-4.126-6.703-7.367h4.289c0,0.656,0.006,2.414,2.414,3.011v-6.431c-2.606-0.759-6.703-2.993-6.703-7.304   c0-4.145,2.716-7.118,6.703-7.469v-2.18h2.679v2.281c4.894,0.694,6.702,4.126,6.702,7.367h-4.289c0-0.656-0.007-2.414-2.413-3.011   v6.432C33.111,73.552,37.208,75.784,37.208,80.095z"></path><path d="M25.414,69.371c0,1.342,1.259,2.17,2.414,2.651v-5.793C26.285,66.507,25.414,67.615,25.414,69.371z"></path></g></svg>