<?xml version="1.0" encoding="utf-8"?><!DOCTYPE svg PUBLIC "-//W3C//DTD SVG 1.1//EN" "http://www.w3.org/Graphics/SVG/1.1/DTD/svg11.dtd"><svg version="1.1" xmlns:rdf="http://www.w3.org/1999/02/22-rdf-syntax-ns#" xmlns:dc="http://purl.org/dc/elements/1.1/" xmlns:cc="http://creativecommons.org/ns#" xmlns:svg="http://www.w3.org/2000/svg" xmlns:sodipodi="http://sodipodi.sourceforge.net/DTD/sodipodi-0.dtd" xmlns:inkscape="http://www.inkscape.org/namespaces/inkscape" xmlns="http://www.w3.org/2000/svg" xmlns:xlink="http://www.w3.org/1999/xlink" x="0px" y="0px" viewBox="-33.495 -33.447 100 99.854" enable-background="new -33.495 -33.447 100 99.854" xml:space="preserve"><path d="M14.152-33.417c-1.133,0.191-2.036,1.055-2.272,2.177c-0.052,0.187-0.083,0.377-0.095,0.568l-2.556,9.278
	c-1.037,0.195-2.109,0.392-3.124,0.663c-1.22,0.329-2.345,0.803-3.503,1.231l-7.857-7.006c-0.883-0.799-2.176-0.951-3.219-0.378
	c-3.225,1.825-6.21,4.007-8.899,6.438c-0.896,0.816-1.165,2.117-0.663,3.219l4.45,9.467c-1.444,1.743-2.754,3.614-3.881,5.586
	l-10.603-0.379c-1.234-0.044-2.349,0.727-2.746,1.894c-1.28,3.413-2.139,6.955-2.651,10.603c-0.174,1.228,0.481,2.423,1.609,2.935
	l9.373,4.354c0.028,2.237,0.236,4.479,0.663,6.722l-8.331,6.627c-0.956,0.731-1.335,1.988-0.947,3.124
	c1.247,3.523,2.924,6.71,4.828,9.751c0.639,1.021,1.859,1.515,3.03,1.231l10.035-2.651c1.468,1.704,3.114,3.23,4.829,4.639
	l-2.178,10.509c-0.223,1.16,0.308,2.337,1.326,2.935c3.142,1.85,6.532,3.408,10.035,4.544c1.157,0.37,2.42-0.053,3.124-1.041
	L9.892,55.1c2.235,0.373,4.512,0.497,6.816,0.474l4.921,9.372c0.574,1.054,1.755,1.627,2.936,1.42
	c1.544-0.263,3.073-0.526,4.639-0.946c2.023-0.541,3.981-1.225,5.869-1.988c1.166-0.438,1.899-1.598,1.799-2.84L35.83,48.757
	c-0.131-1.541-1.485-2.687-3.029-2.556c-1.542,0.13-2.687,1.485-2.557,3.029l0,0l0.853,9.656c-1.101,0.391-2.172,0.831-3.313,1.136
	c-0.723,0.195-1.459,0.319-2.178,0.474l-4.733-8.899c-0.532-0.946-1.565-1.503-2.651-1.42c-3.103,0.187-6.138-0.106-9.086-0.757
	c-1.12-0.261-2.284,0.189-2.935,1.136l-5.585,7.952c-1.789-0.678-3.518-1.464-5.207-2.366l1.988-9.751
	c0.2-1.039-0.203-2.101-1.041-2.746c-2.457-1.822-4.655-4.003-6.532-6.438c-0.7-0.875-1.855-1.248-2.935-0.946l-9.277,2.461
	c-0.953-1.668-1.821-3.396-2.556-5.207l7.763-6.153c0.839-0.684,1.207-1.79,0.947-2.84c-0.732-3.083-1.072-6.112-0.947-9.088
	c0.01-1.093-0.62-2.092-1.609-2.556l-8.709-4.166c0.355-1.897,0.92-3.762,1.515-5.585l9.846,0.284
	c1.072,0.028,2.065-0.561,2.556-1.515c1.364-2.713,3.127-5.292,5.207-7.574c0.747-0.826,0.933-2.015,0.473-3.029l-4.071-8.71
	c1.5-1.241,3.062-2.362,4.733-3.408l7.29,6.532c0.826,0.749,2.015,0.935,3.03,0.474c1.467-0.627,2.935-1.083,4.544-1.515
	c1.423-0.38,2.875-0.762,4.26-0.947c1.081-0.16,1.969-0.938,2.272-1.988l2.556-9.372c1.909,0.031,3.788,0.104,5.679,0.378
	l1.42,9.846c0.163,1.082,0.94,1.97,1.988,2.272c2.926,0.879,5.739,2.144,8.331,3.787c0.946,0.638,2.18,0.638,3.124,0l7.857-5.585
	c1.485,1.257,2.861,2.634,4.165,4.071l-5.111,8.331c-0.595,0.923-0.595,2.108,0,3.03c1.65,2.509,3.023,5.244,3.976,8.236
	c0.319,1.08,1.252,1.862,2.367,1.988l9.562,0.757c0.322,1.932,0.595,3.861,0.662,5.775l-9.372,3.125
	c-1.041,0.349-1.78,1.274-1.894,2.366c-0.357,3.068-1.207,6.095-2.366,8.899c-0.408,1.053-0.148,2.248,0.662,3.029l8.426,8.426
	c1.101,1.101,2.879,1.101,3.977,0c1.101-1.098,1.101-2.876,0-3.977l-7.385-7.289c0.764-2.143,1.326-4.364,1.704-6.627l10.035-3.313
	c1.143-0.344,1.938-1.367,1.988-2.557c0.032-3.603-0.355-7.329-1.136-10.981c-0.261-1.182-1.255-2.062-2.462-2.177L52.586,3.221
	c-0.808-2.145-1.798-4.136-2.935-6.059l5.586-9.088c0.627-1.004,0.55-2.293-0.189-3.219c-2.357-2.852-5.089-5.346-7.952-7.573
	c-0.965-0.753-2.308-0.792-3.313-0.093l-8.521,5.963c-1.932-1.092-3.952-2.083-6.059-2.84l-1.515-10.508
	c-0.166-1.197-1.083-2.152-2.272-2.367c-3.526-0.654-7.242-0.988-10.98-0.852C14.341-33.421,14.247-33.421,14.152-33.417z"></path><path d="M18.979-1.04c-2.402-0.337-4.9-0.285-7.383,0.379C1.663,2.002-4.225,12.318-1.563,22.249
	c2.661,9.935,12.883,15.917,22.814,13.254c1.509-0.319,2.476-1.799,2.159-3.308c-0.319-1.512-1.805-2.476-3.313-2.159
	c-0.089,0.021-0.178,0.044-0.267,0.071c-7.008,1.878-14.12-2.27-15.997-9.278C1.954,13.824,6.101,6.614,13.11,4.735
	c7.01-1.877,14.122,2.271,15.998,9.278c0.911,3.39,0.42,6.798-1.136,9.656c-0.758,1.361-0.27,3.077,1.088,3.835
	c1.361,0.757,3.077,0.271,3.835-1.089c2.216-4.062,2.898-9.016,1.609-13.822C32.511,5.144,26.191-0.025,18.979-1.04z"></path></svg>