<svg xmlns:dc="http://purl.org/dc/elements/1.1/" xmlns:cc="http://creativecommons.org/ns#" xmlns:rdf="http://www.w3.org/1999/02/22-rdf-syntax-ns#" xmlns:svg="http://www.w3.org/2000/svg" xmlns="http://www.w3.org/2000/svg" xmlns:sodipodi="http://sodipodi.sourceforge.net/DTD/sodipodi-0.dtd" xmlns:inkscape="http://www.inkscape.org/namespaces/inkscape" viewBox="0 0 80 80" version="1.1" x="0px" y="0px"><path style="text-indent:0;text-transform:none;direction:ltr;block-progression:tb;baseline-shift:baseline;color:#000000;enable-background:accumulate;" d="m 8.3520229,64.876879 -0.95,0.05 0,6.45 -2.75,0 0,-6.325 -0.975,0.05 0,6.375 c 0,0.454209 0.3957913,0.85 0.85,0.85 l 3,0 c 0.4542087,0 0.825,-0.395791 0.825,-0.85 l 0,-6.6 z" fill="#000000" fill-opacity="1" fill-rule="nonzero" stroke="none" marker="none" visibility="visible" display="inline" overflow="visible"></path><path style="text-indent:0;text-transform:none;direction:ltr;block-progression:tb;baseline-shift:baseline;color:#000000;enable-background:accumulate;" d="m 64.002023,21.376879 c -7.626331,0.09897 -13.571573,2.370255 -18.45,5.8 -5.58199,3.924379 -9.792606,9.327361 -13.8,14.55 -4.007394,5.222638 -7.789335,10.295222 -12.4,13.65 -4.610665,3.354777 -10.0123364,5.016687 -17.4750001,3.5 l -0.075,0 -0.025,0 c -0.4452374,0 -0.84999999,0.393092 -0.84999999,0.85 l 0,4.95 c 0,0.439678 0.39135139,0.772867 0.82499999,0.8 0.00834,5.22e-4 -0.0084,0.02473 0,0.025 0.011015,5.84e-4 0.013991,-5.75e-4 0.025,0 8.7572661,0.457559 15.4793741,-1.989239 21.0250001,-5.85 5.552597,-3.865615 9.925765,-9.138443 14.125,-14.25 4.199235,-5.111557 8.212423,-10.064488 12.95,-13.425 4.333194,-3.073671 9.266292,-4.804417 15.6,-4.125 l -0.125,-0.925 c -6.454838,-0.639578 -11.575544,1.111595 -16,4.25 -4.89063,3.469077 -8.954731,8.54327 -13.15,13.65 -4.195269,5.106729 -8.535648,10.280628 -13.95,14.05 -5.393435,3.754809 -11.852097,6.131232 -20.3750001,5.7 l 0,-4.725 c 7.5868792,1.491167 13.2896181,-0.279477 18.0250001,-3.725 4.777068,-3.475855 8.597975,-8.584359 12.6,-13.8 4.002025,-5.215641 8.192109,-10.530443 13.625,-14.35 4.960998,-3.487795 10.941658,-5.753806 18.875,-5.65 l 0.35,-0.95 c -0.457383,-0.0094 -0.904306,-0.0058 -1.35,0 z" fill="#000000" fill-opacity="1" fill-rule="nonzero" stroke="none" marker="none" visibility="visible" display="inline" overflow="visible"></path><path style="text-indent:0;text-transform:none;direction:ltr;block-progression:tb;baseline-shift:baseline;color:#000000;enable-background:accumulate;" d="m 65.058759,21.073914 c -0.450631,0.0569 -0.788309,0.492164 -0.731413,0.942796 l 6.271001,49.668183 c 0.05689,0.450632 0.492163,0.788309 0.942795,0.731413 l 2.914363,-0.367961 c 0.450631,-0.0569 0.788309,-0.492164 0.731413,-0.942795 l -6.271,-49.668184 c -0.0569,-0.450631 -0.492164,-0.788309 -0.942796,-0.731413 l -2.914363,0.367961 z m 0.245365,0.945462 2.697336,-0.34056 6.243599,49.451157 -2.697336,0.34056 -6.243599,-49.451157 z" fill="#000000" fill-opacity="1" fill-rule="nonzero" stroke="none" marker="none" visibility="visible" display="inline" overflow="visible"></path><path style="text-indent:0;text-transform:none;direction:ltr;block-progression:tb;baseline-shift:baseline;color:#000000;enable-background:accumulate;" d="m 65.102023,10.676879 c -0.252289,0.007 -0.498197,0.02482 -0.75,0.05 -2.014426,0.201399 -3.983951,0.990397 -5.475,2.35 -1.491049,1.359602 -2.483268,3.312995 -2.5,5.75 l 0,0.025 0.025,5.024617 0.975,0 -0.075,-5.024617 0,-0.025 c 0.02358,-2.170773 0.890898,-3.856305 2.2,-5.05 1.315864,-1.199861 3.092296,-1.91677 4.925,-2.1 1.832704,-0.183231 3.72705,0.162149 5.2,1.05 1.47295,0.88785 2.560641,2.283304 2.9,4.3 l -0.025,0 5.8,39.65 -5.175,1.075 0.15,0.95 5.65,-1.175 0.475,-0.1 -0.1,-0.425 -5.875,-40.125 c -0.383371,-2.278249 -1.645548,-3.962676 -3.325,-4.975 -1.469521,-0.885783 -3.233976,-1.274003 -5,-1.225 z" fill="#000000" fill-opacity="1" stroke="none" marker="none" visibility="visible" display="inline" overflow="visible"></path><path style="text-indent:0;text-transform:none;direction:ltr;block-progression:tb;baseline-shift:baseline;color:#000000;enable-background:accumulate;" d="m 57.119614,23.233429 c -1.073544,0 -1.953982,0.880428 -1.953982,1.953982 0,1.073553 0.880438,1.953982 1.953982,1.953982 1.073544,0 1.953982,-0.880429 1.953982,-1.953982 0,-1.073554 -0.880438,-1.953982 -1.953982,-1.953982 z m 0,0.947385 c 0.561539,0 1.006597,0.445058 1.006597,1.006597 0,0.561539 -0.445058,1.006596 -1.006597,1.006596 -0.561539,0 -1.006597,-0.445057 -1.006597,-1.006596 0,-0.561539 0.445058,-1.006597 1.006597,-1.006597 z" fill="#000000" fill-opacity="1" fill-rule="nonzero" stroke="none" marker="none" visibility="visible" display="inline" overflow="visible"></path><path style="text-indent:0;text-transform:none;direction:ltr;block-progression:tb;baseline-shift:baseline;color:#000000;enable-background:accumulate;" d="m 71.09354,57.338388 c -0.748227,0 -1.361866,0.613632 -1.361866,1.361866 0,0.748234 0.613639,1.361867 1.361866,1.361867 0.748228,0 1.361867,-0.613633 1.361867,-1.361867 0,-0.748234 -0.613639,-1.361866 -1.361867,-1.361866 z m 0,0.660299 c 0.391376,0 0.701568,0.310192 0.701568,0.701567 0,0.391376 -0.310192,0.701568 -0.701568,0.701568 -0.391375,0 -0.701567,-0.310192 -0.701567,-0.701568 0,-0.391375 0.310192,-0.701567 0.701567,-0.701567 z" fill="#000000" fill-opacity="1" fill-rule="nonzero" stroke="none" marker="none" visibility="visible" display="inline" overflow="visible"></path><path style="text-indent:0;text-transform:none;direction:ltr;block-progression:tb;baseline-shift:baseline;color:#000000;enable-background:accumulate;" d="m 70.14615,49.522448 c -0.748227,0 -1.361866,0.613632 -1.361866,1.361866 0,0.748234 0.613639,1.361867 1.361866,1.361867 0.748228,0 1.361867,-0.613633 1.361867,-1.361867 0,-0.748234 -0.613639,-1.361866 -1.361867,-1.361866 z m 0,0.660299 c 0.391376,0 0.701568,0.310192 0.701568,0.701567 0,0.391376 -0.310192,0.701568 -0.701568,0.701568 -0.391375,0 -0.701567,-0.310192 -0.701567,-0.701568 0,-0.391375 0.310192,-0.701567 0.701567,-0.701567 z" fill="#000000" fill-opacity="1" fill-rule="nonzero" stroke="none" marker="none" visibility="visible" display="inline" overflow="visible"></path><path style="text-indent:0;text-transform:none;direction:ltr;block-progression:tb;baseline-shift:baseline;color:#000000;enable-background:accumulate;" d="m 69.08034,41.706548 c -0.748227,0 -1.361866,0.613632 -1.361866,1.361866 0,0.748234 0.613639,1.361867 1.361866,1.361867 0.748228,0 1.361867,-0.613633 1.361867,-1.361867 0,-0.748234 -0.613639,-1.361866 -1.361867,-1.361866 z m 0,0.660299 c 0.391376,0 0.701568,0.310192 0.701568,0.701567 0,0.391376 -0.310192,0.701568 -0.701568,0.701568 -0.391375,0 -0.701567,-0.310192 -0.701567,-0.701568 0,-0.391375 0.310192,-0.701567 0.701567,-0.701567 z" fill="#000000" fill-opacity="1" fill-rule="nonzero" stroke="none" marker="none" visibility="visible" display="inline" overflow="visible"></path><path style="text-indent:0;text-transform:none;direction:ltr;block-progression:tb;baseline-shift:baseline;color:#000000;enable-background:accumulate;" d="m 68.01454,33.416908 c -0.748227,0 -1.361866,0.613632 -1.361866,1.361866 0,0.748234 0.613639,1.361867 1.361866,1.361867 0.748228,0 1.361867,-0.613633 1.361867,-1.361867 0,-0.748234 -0.613639,-1.361866 -1.361867,-1.361866 z m 0,0.660299 c 0.391376,0 0.701568,0.310192 0.701568,0.701567 0,0.391376 -0.310192,0.701568 -0.701568,0.701568 -0.391375,0 -0.701567,-0.310192 -0.701567,-0.701568 0,-0.391375 0.310192,-0.701567 0.701567,-0.701567 z" fill="#000000" fill-opacity="1" fill-rule="nonzero" stroke="none" marker="none" visibility="visible" display="inline" overflow="visible"></path><path style="text-indent:0;text-transform:none;direction:ltr;block-progression:tb;baseline-shift:baseline;color:#000000;enable-background:accumulate;" d="m 67.06715,25.600988 c -0.748227,0 -1.361866,0.613632 -1.361866,1.361866 0,0.748234 0.613639,1.361867 1.361866,1.361867 0.748228,0 1.361867,-0.613633 1.361867,-1.361867 0,-0.748234 -0.613639,-1.361866 -1.361867,-1.361866 z m 0,0.660299 c 0.391376,0 0.701568,0.310192 0.701568,0.701567 0,0.391376 -0.310192,0.701568 -0.701568,0.701568 -0.391375,0 -0.701567,-0.310192 -0.701567,-0.701568 0,-0.391375 0.310192,-0.701567 0.701567,-0.701567 z" fill="#000000" fill-opacity="1" fill-rule="nonzero" stroke="none" marker="none" visibility="visible" display="inline" overflow="visible"></path></svg>