<svg xmlns="http://www.w3.org/2000/svg" xmlns:xlink="http://www.w3.org/1999/xlink" version="1.1" x="0px" y="0px" viewBox="0 0 100 56.816" enable-background="new 0 0 100 56.816" xml:space="preserve"><path d="M90.812,35.701c0.172-2.226-4.938-4.259-7.266-4.314c-8.475-0.205-16.946-0.41-25.42-0.615L35.631,10.834l-3.834,1.958  l12.982,17.217c-8.147-0.102-29.679,0.076-32.376,0.011c-2.322-0.056,12.362,7.708,16.123,8.394c0,0,30.455,0.913,43.948,1.239  c3.47,0.084,6.938,0.167,10.406,0.251C85.202,39.958,90.625,38.116,90.812,35.701z"></path><polygon points="11.562,18.873 8.756,20.06 11.998,28.583 21.115,28.644 "></polygon><path d="M53.668,40.566"></path></svg>