<svg xmlns="http://www.w3.org/2000/svg" xmlns:xlink="http://www.w3.org/1999/xlink" version="1.1" x="0px" y="0px" viewBox="0 0 100 100" enable-background="new 0 0 100 100" xml:space="preserve"><g><path d="M50,7.428C26.488,7.428,7.428,26.488,7.428,50S26.488,92.572,50,92.572S92.572,73.512,92.572,50S73.512,7.428,50,7.428z    M49.914,43.544c3.613,0,6.542,2.928,6.542,6.541s-2.929,6.541-6.542,6.541c-3.611,0-6.54-2.929-6.54-6.541   S46.303,43.544,49.914,43.544z M13,50c0,0,0-0.012,0-0.044c0-14.015,7.143-26.239,18.461-32.783l12.24,21.566   c-3.911,2.242-6.783,6.34-6.783,11.26H13z M49.906,87.84c-6.877,0-13.324-1.833-18.881-5.037L43.418,61.34   c1.912,1.107,4.129,1.742,6.496,1.742c2.388,0,4.623-0.646,6.546-1.77l12.386,21.454C63.275,85.993,56.806,87.84,49.906,87.84z    M62.913,50c0-4.92-2.615-8.964-6.501-11.212l12.092-21.6C79.789,23.741,87,35.935,87,49.925C87,49.956,87,50,87,50H62.913z"></path><polygon fill="#000000" points="49.945,50.031 49.914,50.085 49.978,50.085  "></polygon></g></svg>