<svg xmlns="http://www.w3.org/2000/svg" xmlns:xlink="http://www.w3.org/1999/xlink" version="1.1" x="0px" y="0px" viewBox="0 0 100 100" enable-background="new 0 0 100 100" xml:space="preserve"><g><path fill="#000000" d="M96.648,19.518l-9.645,60.617c-0.548,3.434-3.803,5.798-7.237,5.251l-32.698-5.202   c-3.437-0.548-5.799-3.803-5.252-7.238L51.46,12.33c0.547-3.435,3.802-5.798,7.237-5.251l11.691,1.859   c-0.007,0.104-0.016,0.207-0.016,0.312c0,2.665,2.16,4.825,4.824,4.825c2.254,0,4.136-1.544,4.671-3.629l11.526,1.834   C94.833,12.827,97.196,16.084,96.648,19.518z M46.556,83.401c-2.521-0.4-4.738-1.765-6.244-3.842   c-1.506-2.074-2.114-4.607-1.714-7.127l9.599-60.334l-21.021,2.367c-3.458,0.389-5.965,3.534-5.577,6.991l1.006,8.93   c1.576,0.038,2.841,1.325,2.841,2.908c0,1.362-0.934,2.5-2.196,2.82l5.216,46.336c0.39,3.456,3.533,5.965,6.992,5.576l23.519-2.649   L46.556,83.401z M25.227,82.813l-5.533-49.159l0.29-0.073l-0.299-0.008l-1.093-9.702l-11.17,3.521   c-3.316,1.046-5.176,4.616-4.129,7.931l16.513,52.319c1.047,3.317,4.614,5.174,7.935,4.129l3.516-1.109   C28.032,89.403,25.637,86.443,25.227,82.813z"></path></g></svg>