<svg xmlns="http://www.w3.org/2000/svg" xmlns:xlink="http://www.w3.org/1999/xlink" version="1.1" x="0px" y="0px" viewBox="0 0 100 100" enable-background="new 0 0 100 100" xml:space="preserve"><g><path d="M22,20.166C22,21.731,20.731,23,19.166,23H9.834C8.269,23,7,21.731,7,20.166v-3.331C7,15.269,8.269,14,9.834,14h9.331   C20.731,14,22,15.269,22,16.834V20.166z"></path><g><path fill="#000000" d="M21.518,20.033c-0.484,3.599-6.688,2.467-9.265,2.467c-1.197,0-2.461,0.161-3.597-0.319    c-1.64-0.692-1.261-4.566-1.073-5.967c0.362-2.693,7.409-1.714,9.163-1.714c1.197,0,2.461-0.161,3.597,0.319    c1.626,0.686,1.156,3.987,1.156,5.347c0,0.645,1,0.645,1,0c0-1.448,0.435-3.862-0.533-5.115c-1.282-1.66-2.834-1.55-4.72-1.55    c-3.277,0-10.103-1.461-10.729,3.202c-0.217,1.611-0.199,3.64,0.437,5.147C7.682,23.57,9.772,23.5,11.292,23.5    c3.32,0,10.552,1.544,11.189-3.202C22.567,19.668,21.604,19.396,21.518,20.033z"></path></g></g><g><path d="M99,66.274C99,67.985,97.73,69,96.165,69H3.835C2.269,69,1,67.985,1,66.274V21.099C1,19.387,2.269,18,3.835,18h92.33   C97.73,18,99,19.387,99,21.099V66.274z"></path><g><path fill="#000000" d="M98.518,66.142c-0.718,3.7-7.935,2.358-10.238,2.358c-6.453,0-12.906,0-19.36,0    c-15.785,0-31.571,0-47.357,0c-5.035,0-10.07,0-15.105,0c-0.854,0-1.709,0-2.564,0c-3.097,0-2.392-4.279-2.392-5.949    c0-13.487,0-26.973,0-40.459c0-4.555,4.63-3.592,7.52-3.592c5.86,0,11.72,0,17.581,0c15.889,0,31.778,0,47.667,0    c5.731,0,11.462,0,17.193,0c3.125,0,7.039-0.699,7.039,3.936c0,13.558,0,27.116,0,40.674c0,1.055,0,2.109,0,3.164    c0,0.645,1,0.645,1,0c0-12.452,0-24.903,0-37.355c0-3.425,1.156-8.797-1.979-11.107c-1.533-1.129-5.92-0.312-7.563-0.312    c-27.438,0-54.878,0-82.318,0c-2.031,0-6.363-0.645-6.899,2.26C-0.052,24.05,0.5,28.767,0.5,33.107c0,7.914,0,15.828,0,23.742    c0,2.734-1.295,9.511,0.977,11.783C3.029,70.185,7.116,69.5,9.02,69.5c5.86,0,11.72,0,17.581,0c15.889,0,31.778,0,47.667,0    c5.885,0,11.769,0,17.653,0c3.011,0,6.816,0.744,7.562-3.093C99.604,65.777,98.641,65.509,98.518,66.142z"></path></g></g><ellipse stroke="#FFFFFF" stroke-width="3" stroke-miterlimit="10" cx="67.949" cy="49.75" rx="16.017" ry="15.725" fill="#000000"></ellipse><rect x="84" y="23" fill="#000000" width="7" height="4"></rect></svg>