<svg xmlns="http://www.w3.org/2000/svg" xmlns:xlink="http://www.w3.org/1999/xlink" version="1.1" x="0px" y="0px" viewBox="0 0 100 100" enable-background="new 0 0 100 100" xml:space="preserve"><g><path fill="#000000" d="M71.796,75.127c0,0,0.405-0.526,1.078-1.477c-7.035-2.605-14.546-3.976-22.267-3.976   c-8.072,0-15.909,1.502-23.218,4.344c0.512,0.715,0.815,1.107,0.815,1.107c0.737,0.841,1.467,1.626,2.188,2.36L15.907,99.146h8.615   l11.422-16.818c8.127,5.962,14.057,5.51,14.057,5.51s5.928,0.452,14.054-5.51l11.422,16.818h8.616L69.606,77.488   C70.329,76.755,71.059,75.969,71.796,75.127z"></path><path fill="#000000" d="M50.607,67.946c8.081,0,15.935,1.467,23.277,4.242c5.803-8.575,20.674-33.758,4.683-46.185   c0,0-6.115-3.701-7.712-11.739c0,0-0.047-0.221-0.146-0.575C68.852,6.018,61.098,1.124,50,0.854   C38.901,1.125,31.147,6.019,29.291,13.689c-0.099,0.354-0.146,0.575-0.146,0.575c-1.598,8.038-7.712,11.739-7.712,11.739   c-16.229,12.61-0.671,38.362,4.935,46.556C33.984,69.54,42.173,67.946,50.607,67.946z M63.001,40.112h-6.408   c-1.494,0-2.707-1.213-2.707-2.708c0-1.496,1.213-2.709,2.707-2.709h6.408c1.496,0,2.708,1.213,2.708,2.709   C65.709,38.899,64.496,40.112,63.001,40.112z M34.777,20.771v-3.163c0-3.989,3.132-7.222,6.995-7.222h16.455   c3.864,0,6.995,3.232,6.995,7.222v3.163v0.79c0,1.806-1.417,3.268-3.166,3.268h-3.829H41.772h-3.829   c-1.749,0-3.167-1.462-3.167-3.268V20.771z M37.002,34.696h6.406c1.495,0,2.709,1.213,2.709,2.709c0,1.495-1.214,2.708-2.709,2.708   h-6.406c-1.495,0-2.708-1.213-2.708-2.708C34.292,35.909,35.507,34.696,37.002,34.696z"></path></g></svg>