<svg xmlns="http://www.w3.org/2000/svg" xmlns:xlink="http://www.w3.org/1999/xlink" version="1.1" viewBox="0 0 100.009 91.661" overflow="visible" enable-background="new 0 0 100.009 91.661" xml:space="preserve" x="0px" y="0px"><path fill="#000000" d="M89.014,37.368c4.288-1.158,8.104-2.715,10.995-4.577V6.861C93.477,2.661,82.242,0,71.458,0  C61.419,0,52.355,2.312,45.875,6.026C30.582,7.493,15.288,8.962,0,10.43v18.772c15.274,1.467,30.554,2.934,45.834,4.401  c5.873,3.377,13.88,5.594,22.815,5.982l0.844,2.473l2.018-0.688l0.711-0.242l0.241,0.711l1.166,3.434l0.241,0.71l-0.71,0.241  l-2.012,0.685l1.207,3.538l1.923-0.654l0.708-0.241l0.243,0.708l1.173,3.426l0.243,0.71l-0.711,0.243l-1.925,0.657l7.214,21.143  l15.442-5.271L87.585,44.55c-0.015-0.064-0.026-0.121-0.042-0.188C86.597,40.404,87.777,38.385,89.014,37.368z"></path><polygon fill="#000000" points="94.894,81.27 89.083,83.254 86.818,76.63 92.635,74.647 "></polygon><polygon fill="#000000" points="96.569,91.661 93.88,83.786 91.542,84.586 93.957,91.661 "></polygon><polygon fill="#000000" points="74.794,53.771 70.875,55.11 70.032,52.641 73.951,51.307 "></polygon><polygon fill="#000000" points="71.951,45.333 68.031,46.673 67.188,44.203 71.107,42.869 "></polygon></svg>