<svg xmlns="http://www.w3.org/2000/svg" xmlns:xlink="http://www.w3.org/1999/xlink" version="1.1" x="0px" y="0px" viewBox="0 0 100 100" enable-background="new 0 0 100 100" xml:space="preserve"><g><path d="M96,4v92H4V4H96 M100,0H0v100h100V0L100,0z"></path><polygon points="86,70 70,86 86,86  "></polygon><g><polygon points="14,30 30,14 14,14   "></polygon></g><polygon points="70,14 86,30 86,14  "></polygon><g><polygon points="30,86 14,70 14,86   "></polygon></g><path d="M70,30H60v4h10V30L70,30z M50,30H40v4h10V30L50,30z M34,30h-4v10h4V30L34,30z M34,50h-4v10h4V50L34,50z M40,66H30v4h10V66   L40,66z M60,66H50v4h10V66L60,66z M70,60h-4v10h4V60L70,60z M70,40h-4v10h4V40L70,40z"></path></g></svg>