<svg xmlns="http://www.w3.org/2000/svg" xmlns:xlink="http://www.w3.org/1999/xlink" version="1.1" x="0px" y="0px" viewBox="0 0 100 100" enable-background="new 0 0 100 100" xml:space="preserve"><path d="M25.555,29.445C14.221,29.445,5,38.666,5,50s9.221,20.555,20.555,20.555S46.109,61.334,46.109,50  S36.889,29.445,25.555,29.445z M25.555,68.274C15.478,68.274,7.28,60.076,7.28,50c0-10.077,8.198-18.275,18.275-18.275  c8.092,0,14.961,5.291,17.358,12.591c-1.631-1.959-4.087-3.207-6.835-3.207c-4.911,0-8.892,3.981-8.892,8.891  s3.98,8.892,8.892,8.892c2.748,0,5.204-1.248,6.834-3.207C40.516,62.984,33.646,68.274,25.555,68.274z"></path><path d="M74.445,29.445c-11.334,0-20.555,9.221-20.555,20.555s9.221,20.555,20.555,20.555S95,61.334,95,50  S85.779,29.445,74.445,29.445z M74.445,68.274c-8.09,0-14.959-5.29-17.357-12.589c1.631,1.958,4.086,3.206,6.834,3.206  c4.91,0,8.892-3.981,8.892-8.892s-3.981-8.891-8.892-8.891c-2.748,0-5.203,1.248-6.834,3.206c2.397-7.3,9.267-12.59,17.357-12.59  c10.076,0,18.274,8.198,18.274,18.275C92.72,60.076,84.521,68.274,74.445,68.274z"></path></svg>