<?xml version="1.0" encoding="utf-8"?><!DOCTYPE svg PUBLIC "-//W3C//DTD SVG 1.1//EN" "http://www.w3.org/Graphics/SVG/1.1/DTD/svg11.dtd"><svg version="1.1" xmlns="http://www.w3.org/2000/svg" xmlns:xlink="http://www.w3.org/1999/xlink" x="0px" y="0px" viewBox="5.796 -0.198 87.674 100" enable-background="new 5.796 -0.198 87.674 100" xml:space="preserve"><g><path d="M86.452,49.828l4.37,2.828H71.806l-7.946-16.52l4.493,2.915l9.861-15.19c0,0,4.035-5.241,3.286-8.157L93.151,36.51
		c0,0,0.875,1.56-0.271,3.329L86.452,49.828z"></path><polygon points="78.664,61.63 61.083,50.089 37.393,86.264 32.955,83.379 41,99.802 59.975,99.802 55.479,96.972 	"></polygon><path d="M50.575,25.813l0.196-20.529l19.431,0.187c0,0,6.83-0.7,9.1,6.963c0,0,1.568,4.081-2.161,9.863l-2.346,3.57L50.575,25.813z
		"></path><path d="M35.506,5.006l-0.059-5.205l10.511,15.848l-9.374,15.756l-0.058-5.354l-18.105,0.177c0,0-6.603-0.462-8.615,1.771
		L20.703,6.79c0,0,0.819-1.592,2.922-1.617L35.506,5.006z"></path><path d="M35.325,48.177L18.109,59.362L7.523,43.068c0,0-4.357-5.302,0.771-11.432c0,0,2.535-3.563,9.415-3.652l4.274-0.021
		L35.325,48.177z"></path></g></svg>