<svg xmlns="http://www.w3.org/2000/svg" xmlns:xlink="http://www.w3.org/1999/xlink" version="1.1" x="0px" y="0px" viewBox="0 0 100 100" enable-background="new 0 0 100 100" xml:space="preserve"><g><rect x="-192" width="185" height="99"></rect><rect y="-36" width="100" height="30"></rect><text transform="matrix(1 0 0 1 66 -19.5)" fill="#000000" font-family="'Helvetica'" font-size="2.4">http://thenounproject.com</text><text transform="matrix(1 0 0 1 7.166 -24.5)"><tspan x="0" y="0" fill="#000000" font-family="'Helvetica-Bold'" font-size="6.1578">The Noun Project</tspan><tspan x="1.12" y="4.8" fill="#000000" font-family="'Helvetica-Bold'" font-size="4">Icon Template</tspan></text><text transform="matrix(1 0 0 1 -178.5 10.5)" fill="#000000" font-family="'Helvetica-Bold'" font-size="6.1578">Reminders</text><line fill="#000000" stroke="#FFFFFF" stroke-miterlimit="10" x1="8" y1="-14.5" x2="18" y2="-14.5"></line><line fill="#000000" stroke="#FFFFFF" stroke-miterlimit="10" x1="-179" y1="16.5" x2="-162" y2="16.5"></line><g><g><g><rect x="-170.802" y="31.318" fill="#000000" width="8.721" height="8.642"></rect><path fill="#000000" d="M-164.455,42.312h4.747v-4.703h-4.747V42.312z M-159.266,42.749h-5.63V37.17h5.63V42.749      L-159.266,42.749z M-166.221,44.062h8.279v-8.203h-8.279V44.062L-166.221,44.062z M-157.5,44.5h-9.163v-9.079h9.163V44.5      L-157.5,44.5z"></path><polygon fill="#000000" points="-166.149,44.133 -166.292,43.991 -158.013,35.787 -157.871,35.929     "></polygon></g></g></g><rect x="-179" y="58" fill="none" width="35" height="32.5"></rect><text transform="matrix(1 0 0 1 -179 60.1572)"><tspan x="0" y="0" fill="#000000" font-family="'Helvetica-Bold'" font-size="3">Strokes</tspan><tspan x="0" y="5" fill="#000000" font-family="'Helvetica'" font-size="2.4">Try to keep strokes at 4px</tspan><tspan x="0" y="10" fill="#000000" font-family="'Helvetica'" font-size="2.4">Minimum stroke weight is 2px</tspan><tspan x="0" y="14.5" fill="#000000" font-family="'Helvetica'" font-size="2.4">For thicker strokes use even </tspan><tspan x="0" y="17.5" fill="#000000" font-family="'Helvetica'" font-size="2.4">numbers: 6px, 8px etc.</tspan><tspan x="0" y="22" fill="#000000" font-family="'Helvetica-Bold'" font-size="2.4">Remember to expand strokes </tspan><tspan x="0" y="25" fill="#000000" font-family="'Helvetica-Bold'" font-size="2.4">before saving as an SVG </tspan></text><rect x="-136.5" y="58" fill="none" width="35" height="32.5"></rect><text transform="matrix(1 0 0 1 -136.5 60.1572)"><tspan x="0" y="0" fill="#000000" font-family="'Helvetica-Bold'" font-size="3">Size</tspan><tspan x="0" y="5" fill="#000000" font-family="'Helvetica'" font-size="2.4">Cannot be wider or taller than </tspan><tspan x="0" y="8.5" fill="#000000" font-family="'Helvetica'" font-size="2.4">100px (artboard size)</tspan><tspan x="0" y="13.5" fill="#000000" font-family="'Helvetica'" font-size="2.4">Scale your icon to fill as much of </tspan><tspan x="0" y="16.5" fill="#000000" font-family="'Helvetica'" font-size="2.4">the artboard as possible</tspan></text><rect x="-94" y="58" fill="none" width="35" height="32.5"></rect><text transform="matrix(1 0 0 1 -94 60.1572)"><tspan x="0" y="0" fill="#000000" font-family="'Helvetica-Bold'" font-size="3">Ungroup</tspan><tspan x="0" y="5" fill="#000000" font-family="'Helvetica'" font-size="2.4">If your design has more than one </tspan><tspan x="0" y="8" fill="#000000" font-family="'Helvetica'" font-size="2.4">shape, make sure to ungroup</tspan></text><rect x="-50" y="58" fill="none" width="35" height="32.5"></rect><text transform="matrix(1 0 0 1 -50 60.1572)"><tspan x="0" y="0" fill="#000000" font-family="'Helvetica-Bold'" font-size="3">Save as</tspan><tspan x="0" y="5" fill="#000000" font-family="'Helvetica'" font-size="2.4">Save as .SVG and make sure </tspan><tspan x="0" y="8" fill="#000000" font-family="'Helvetica'" font-size="2.4">“Use Artboards” is checked</tspan></text><text transform="matrix(1.0074 0 0 1 -125.542 30.5933)" fill="#000000" font-family="'Helvetica'" font-size="2.5731">100px</text><text transform="matrix(1.0074 0 0 1 -41 39)" fill="#000000" font-family="'Helvetica-Bold'" font-size="5.1462">.SVG</text><rect x="-126.514" y="34.815" fill="#000000" width="10.261" height="10.185"></rect><rect x="-126.477" y="31.766" fill="#000000" width="0.522" height="2.337"></rect><rect x="-116.812" y="31.766" fill="#000000" width="0.523" height="2.337"></rect><rect x="-127" y="32.337" fill="#000000" width="11.233" height="0.572"></rect><g><rect x="-83.805" y="33.844" fill="#000000" width="10.305" height="10.156"></rect><rect x="-76.809" y="28.707" fill="#000000" width="3.308" height="3.261"></rect></g><rect x="-178.5" y="22.5" fill="#000000" stroke="#FFFFFF" stroke-miterlimit="10" width="30" height="30"></rect><rect x="-136.5" y="22.5" fill="#000000" stroke="#FFFFFF" stroke-miterlimit="10" width="30" height="30"></rect><rect x="-93.5" y="22.5" fill="#000000" stroke="#FFFFFF" stroke-miterlimit="10" width="30" height="30"></rect><rect x="-49.5" y="22.5" fill="#000000" stroke="#FFFFFF" stroke-miterlimit="10" width="30" height="30"></rect></g><g><path fill="#000000" d="M91.3,53.158c-4.172-4.271-7.84-5.526-13.867-2.211c-2.172,1.193-3.914,3.049-5.236,4.984   c-1.016,0.553-2.035,0.471-2.963-0.057c-0.375-0.471-0.734-0.912-1.064-1.312c-0.197-0.725-0.164-1.215-0.035-1.654   c2.359-1.633,4.277-3.539,5.242-4.827c1.357-1.809,2.271-4.769,2.498-5.9c0.227-1.131,0.312-4.271,0.201-5.552   c-0.115-1.281-0.582-4.093-0.781-5.805c-0.225-1.949-0.525-7.297,0-8.692c0.354-0.926,1.283-2.676,1.625-3.165   c0.336-0.491,0.234-1.018-0.668-1.119c-0.906-0.1-4.395-0.162-6.004,0.139c0,0-2.377,2.751-2.148,9.006   c0.102,2.753-0.182,5.38-0.414,6.796c-0.098,0.604-0.609,2.489-1.758,3.091c-1.188,0.619-2.912,0.601-3.549-1.206   c-0.467-5.918-0.867-12.337-0.979-13.064c-0.094-0.595-0.289-1.274-0.475-1.839l0,0c0-0.449-0.146-0.854-0.402-1.223   c0.01-0.001,0.021-0.001,0.031-0.002c1.76-0.416,1.936-1.194,1.959-2.111c0.014-0.603-1.025-1.244-0.914-2.141   c0.146-1.198-0.455-4.25-3.018-6.51c-1.926-1.701-5.055-2.513-8.258-2.811c-0.097-0.728-0.042-1.538,0.077-1.753   c0.251-0.452,0.866-0.914,0.866-1.771C51.266,1.355,49.394,0,46.73,0s-4.792,1.355-4.792,2.46c0,0.857,0.574,1.407,0.798,1.709   c0.16,0.216,0.16,1.171,0.006,1.947c-2.693,0.319-5.878,0.994-7.284,2.424c-2.396,2.436-3.466,5.627-3.466,6.833   s-0.858,1.414-0.668,2.312c0.432,2.043,1.194,1.929,1.823,1.872c-0.003,0.007-0.006,0.015-0.009,0.024h-0.023   c0,0-0.703,1.722-0.904,3.028c-0.201,1.307-1.336,21.004-2.11,23.113c-0.976,2.658-1.307,5.025-3.115,7.035   c-1.809,2.01-7.778,8.73-9.447,13.465c-1.876,5.326-2.713,10.854-1.205,14.672c1.507,3.818,10.451,17.988,29.644,17.988h1.653   c9.87,0,17.028-3.748,21.86-7.906C91.28,80.82,94.212,68.305,94.767,65.117C95.368,61.652,95.007,56.955,91.3,53.158z    M77.433,80.795c-0.041,0-0.08-0.008-0.117-0.014c1.438-3.852-0.062-11.205-1.246-14.559c-0.383-1.09-1.193-2.518-2.191-4.043l0,0   c-0.064-2.439,4.559-8.998,9.232-8.596c2.658,0.229,6.701,2.895,7.537,7.564C92.454,71.248,79.593,80.795,77.433,80.795z"></path></g></svg>