<svg xmlns="http://www.w3.org/2000/svg" xmlns:xlink="http://www.w3.org/1999/xlink" version="1.1" x="0px" y="0px" viewBox="0 0 566.93 566.93" enable-background="new 0 0 566.93 566.93" xml:space="preserve"><path fill="#000000" d="M284.579,335.501l65.098,0.014l-0.002-64.278h0.145v-0.47l96.389-0.135c1.54-8.051,2.349-16.226,2.349-24.45  c0-90.42-87.847-155.675-184.909-155.675c-97.67,0-184.908,65.749-184.908,155.675c0,31.896,11.385,63.211,31.537,87.512  c0.851,28.475-15.754,69.316-30.713,99.07c40.093-7.314,97.091-23.471,122.938-39.449c29.171,7.164,56.717,9.158,82.084,7.002  L284.579,335.501z"></path><polygon fill="#000000" points="490.023,410.89 425.005,410.89 425.005,475.907 374.789,475.907 374.789,410.89 309.773,410.89   309.773,360.677 374.791,360.677 374.791,295.66 425.008,295.66 425.008,360.677 490.025,360.677 490.025,410.89 "></polygon></svg>