<svg xmlns="http://www.w3.org/2000/svg" xmlns:xlink="http://www.w3.org/1999/xlink" version="1.1" x="0px" y="0px" viewBox="0 0 100 100" enable-background="new 0 0 100 100" xml:space="preserve"><defs><rect id="b" width="100" height="100"></rect></defs><clipPath id="a"><use xlink:href="#b" overflow="visible"></use></clipPath><g clip-path="url(#a)"><rect x="-192" width="185" height="99"></rect><rect y="-36" width="100" height="30"></rect><text transform="matrix(1 0 0 1 66 -19.5)" fill="#000000" font-family="'Helvetica'" font-size="2.4">http://thenounproject.com</text><text transform="matrix(1 0 0 1 7.166 -24.5)" fill="#000000" font-family="'Helvetica-Bold'" font-size="6.1578">The Noun Project</text><text transform="matrix(1 0 0 1 8.2861 -19.7002)" fill="#000000" font-family="'Helvetica-Bold'" font-size="4">Icon Template</text><text transform="matrix(1 0 0 1 -178.5 10.5)" fill="#000000" font-family="'Helvetica-Bold'" font-size="6.1578">Reminders</text><line fill="#000000" stroke="#FFFFFF" stroke-miterlimit="10" x1="8" y1="-14.5" x2="18" y2="-14.5"></line><line fill="#000000" stroke="#FFFFFF" stroke-miterlimit="10" x1="-179" y1="16.5" x2="-162" y2="16.5"></line><g><g><g><rect x="-170.802" y="31.318" fill="#000000" width="8.721" height="8.642"></rect><path fill="#000000" d="M-164.455,42.312h4.747v-4.703h-4.747V42.312z M-159.266,42.749h-5.63V37.17h5.63V42.749      L-159.266,42.749z M-166.221,44.062h8.279v-8.203h-8.279V44.062L-166.221,44.062z M-157.5,44.5h-9.163v-9.079h9.163V44.5      L-157.5,44.5z"></path><polygon fill="#000000" points="-166.149,44.133 -166.292,43.991 -158.013,35.787 -157.871,35.929     "></polygon></g></g></g><rect x="-179" y="58" fill="none" width="35" height="32.5"></rect><text transform="matrix(1 0 0 1 -179 60.1543)" fill="#000000" font-family="'Helvetica-Bold'" font-size="3">Strokes</text><text transform="matrix(1 0 0 1 -179 65.1543)" fill="#000000" font-family="'Helvetica'" font-size="2.4">Try to keep strokes at 4px</text><text transform="matrix(1 0 0 1 -179 70.1543)" fill="#000000" font-family="'Helvetica'" font-size="2.4">Minimum stroke weight is 2px</text><text transform="matrix(1 0 0 1 -179 74.6543)" fill="#000000" font-family="'Helvetica'" font-size="2.4">For thicker strokes use even </text><text transform="matrix(1 0 0 1 -179 77.6543)" fill="#000000" font-family="'Helvetica'" font-size="2.4">numbers: 6px, 8px etc.</text><text transform="matrix(1 0 0 1 -179 82.1543)" fill="#000000" font-family="'Helvetica-Bold'" font-size="2.4">Remember to expand strokes </text><text transform="matrix(1 0 0 1 -179 85.1543)" fill="#000000" font-family="'Helvetica-Bold'" font-size="2.4">before saving as an SVG </text><rect x="-136.5" y="58" fill="none" width="35" height="32.5"></rect><text transform="matrix(1 0 0 1 -136.5 60.1543)" fill="#000000" font-family="'Helvetica-Bold'" font-size="3">Size</text><text transform="matrix(1 0 0 1 -136.5 65.1543)" fill="#000000" font-family="'Helvetica'" font-size="2.4">Cannot be wider or taller than </text><text transform="matrix(1 0 0 1 -136.5 68.6543)" fill="#000000" font-family="'Helvetica'" font-size="2.4">100px (artboard size)</text><text transform="matrix(1 0 0 1 -136.5 73.6543)" fill="#000000" font-family="'Helvetica'" font-size="2.4">Scale your icon to fill as much of </text><text transform="matrix(1 0 0 1 -136.5 76.6543)" fill="#000000" font-family="'Helvetica'" font-size="2.4">the artboard as possible</text><rect x="-94" y="58" fill="none" width="35" height="32.5"></rect><text transform="matrix(1 0 0 1 -94 60.1543)" fill="#000000" font-family="'Helvetica-Bold'" font-size="3">Ungroup</text><text transform="matrix(1 0 0 1 -94 65.1543)" fill="#000000" font-family="'Helvetica'" font-size="2.4">If your design has more than one </text><text transform="matrix(1 0 0 1 -94 68.1543)" fill="#000000" font-family="'Helvetica'" font-size="2.4">shape, make sure to ungroup</text><rect x="-50" y="58" fill="none" width="35" height="32.5"></rect><text transform="matrix(1 0 0 1 -50 60.1543)" fill="#000000" font-family="'Helvetica-Bold'" font-size="3">Save as</text><text transform="matrix(1 0 0 1 -50 65.1543)" fill="#000000" font-family="'Helvetica'" font-size="2.4">Save as .SVG and make sure </text><text transform="matrix(1 0 0 1 -50 68.1543)" fill="#000000" font-family="'Helvetica'" font-size="2.4">“Use Artboards” is checked</text><text transform="matrix(1.0074 0 0 1 -125.542 30.5938)" fill="#000000" font-family="'Helvetica'" font-size="2.5731">100px</text><text transform="matrix(1.0074 0 0 1 -41 39)" fill="#000000" font-family="'Helvetica-Bold'" font-size="5.1462">.SVG</text><rect x="-126.514" y="34.815" fill="#000000" width="10.261" height="10.185"></rect><rect x="-126.477" y="31.766" fill="#000000" width="0.522" height="2.337"></rect><rect x="-116.813" y="31.766" fill="#000000" width="0.523" height="2.337"></rect><rect x="-127" y="32.337" fill="#000000" width="11.233" height="0.572"></rect><g><rect x="-83.805" y="33.844" fill="#000000" width="10.305" height="10.156"></rect><rect x="-76.809" y="28.707" fill="#000000" width="3.308" height="3.261"></rect></g><rect x="-178.5" y="22.5" fill="#000000" stroke="#FFFFFF" stroke-miterlimit="10" width="30" height="30"></rect><rect x="-136.5" y="22.5" fill="#000000" stroke="#FFFFFF" stroke-miterlimit="10" width="30" height="30"></rect><rect x="-93.5" y="22.5" fill="#000000" stroke="#FFFFFF" stroke-miterlimit="10" width="30" height="30"></rect><rect x="-49.5" y="22.5" fill="#000000" stroke="#FFFFFF" stroke-miterlimit="10" width="30" height="30"></rect></g><path clip-path="url(#a)" fill="#000000" d="M25.75,66.852c1.306,1.44,2.73,2.774,4.263,3.979V100h36.668V89.484h0.039  L47.98,69.57V47.061h-3.72c-0.979,0-1.775,0.797-1.775,1.775v5.275c0,7.021-5.712,12.738-12.732,12.738H25.75V66.852z"></path><path clip-path="url(#a)" fill="#000000" d="M74.092,89.316c6.518-0.982,11.521-6.592,11.521-13.389v-9.604h4.611  c1.524,0,2.774-1.25,2.774-2.771c0-0.387-0.067-0.752-0.207-1.075l-7.181-18.083c0,0-0.342-3.453-0.771-6.568H67.545  c-0.105,5.109-4.297,9.234-9.434,9.234h-4.65V67.4L74.092,89.316z M77.174,51.245c-2.119,0-3.85-1.717-3.85-3.844  c0-2.113,1.729-3.83,3.85-3.83c2.104,0,3.822,1.717,3.822,3.83C80.996,49.526,79.275,51.245,77.174,51.245z"></path><path clip-path="url(#a)" fill="#000000" d="M16.149,61.366h5.563h8.039c4.006,0,7.254-3.248,7.254-7.257v-5.274  c0-4.006,3.248-7.256,7.256-7.256c5.293,0,11.877,0,13.85,0c2.187,0,3.959-1.771,3.959-3.957v-1.32c0-2.188,1.771-3.957,3.957-3.957  h17.685h7.306C83.766,0.683,58.779,1.343,51.369,1.343C28.732,1.343,1.309,19.317,16.149,61.366z"></path><g clip-path="url(#a)"><g><g><path fill="#000000" d="M54.033,37.729c4.514,0,4.514-7,0-7S49.52,37.729,54.033,37.729L54.033,37.729z"></path></g></g><g><g><path fill="#000000" d="M84.994,31.821c4.514,0,4.514-7,0-7S80.48,31.821,84.994,31.821L84.994,31.821z"></path></g></g><g><g><path fill="#000000" d="M61.559,27.427c4.517,0,4.514-7,0-7S57.045,27.427,61.559,27.427L61.559,27.427z"></path></g></g><g><g><path fill="#000000" d="M51.219,18.88c4.516,0,4.516-7,0-7C46.705,11.88,46.705,18.88,51.219,18.88L51.219,18.88z"></path></g></g><g><g><path fill="#000000" d="M64.352,18.54c4.515,0,4.515-7,0-7C59.838,11.54,59.838,18.54,64.352,18.54L64.352,18.54z"></path></g></g><g><g><path fill="#000000" d="M47.861,27.614c4.514,0,4.514-7,0-7C43.348,20.614,43.348,27.614,47.861,27.614L47.861,27.614z"></path></g></g><g><g><path fill="#000000" d="M41.254,36.567c4.515,0,4.515-7,0-7C36.741,29.567,36.741,36.567,41.254,36.567L41.254,36.567z"></path></g></g><g><g><path fill="#000000" d="M33.825,43.276c4.514,0,4.514-7.002,0-7.002C29.311,36.274,29.311,43.276,33.825,43.276L33.825,43.276z"></path></g></g><g><g><path fill="#000000" d="M30.278,57.561c4.514,0,4.514-7,0-7C25.764,50.561,25.764,57.561,30.278,57.561L30.278,57.561z"></path></g></g><g><g><path fill="#000000" d="M19.696,58.089c4.514,0,4.514-7,0-7C15.182,51.089,15.182,58.089,19.696,58.089L19.696,58.089z"></path></g></g><g><g><path fill="#000000" d="M24.417,37.206c4.514,0,4.514-7,0-7C19.902,30.206,19.902,37.206,24.417,37.206L24.417,37.206z"></path></g></g><g><g><path fill="#000000" d="M32.385,11c4.514,0,4.515-7,0-7C27.872,4,27.872,11,32.385,11L32.385,11z"></path></g></g><g><g><path fill="#000000" d="M32.22,28.3c4.514,0,4.514-7,0-7C27.706,21.3,27.706,28.3,32.22,28.3L32.22,28.3z"></path></g></g><g><g><path fill="#000000" d="M16.385,32c4.515,0,4.515-7,0-7C11.872,25,11.872,32,16.385,32L16.385,32z"></path></g></g><g><g><path fill="#000000" d="M22.385,20c4.514,0,4.514-7,0-7C17.871,13,17.872,20,22.385,20L22.385,20z"></path></g></g><g><g><path fill="#000000" d="M71.635,10.099c4.514,0,4.514-7,0-7S67.121,10.099,71.635,10.099L71.635,10.099z"></path></g></g><g><g><path fill="#000000" d="M82.162,20.294c4.516,0,4.516-7,0-7C77.648,13.294,77.648,20.294,82.162,20.294L82.162,20.294z"></path></g></g><g><g><path fill="#000000" d="M73.088,29.792c4.514,0,4.514-7,0-7S68.574,29.792,73.088,29.792L73.088,29.792z"></path></g></g><g><g><path fill="#000000" d="M45.711,7c4.516,0,4.516-7,0-7C41.198,0,41.198,7,45.711,7L45.711,7z"></path></g></g><g><g><path fill="#000000" d="M59.221,6.634c4.514,0,4.514-7,0-7C54.705-0.366,54.705,6.634,59.221,6.634L59.221,6.634z"></path></g></g><g><g><path fill="#000000" d="M17.254,46.948c4.515,0,4.515-7.002,0-7.002C12.741,39.946,12.741,46.948,17.254,46.948L17.254,46.948z"></path></g></g><g><g><path fill="#000000" d="M39.768,18.313c4.514,0,4.514-7,0-7S35.254,18.313,39.768,18.313L39.768,18.313z"></path></g></g></g></svg>