<svg xmlns="http://www.w3.org/2000/svg" xmlns:xlink="http://www.w3.org/1999/xlink" version="1.1" x="0px" y="0px" viewBox="0 0 60 70.217" enable-background="new 0 0 60 70.217" xml:space="preserve"><path d="M30,70.217c3.496,0,6.445-2.511,7.382-5.629H22.619C23.556,67.707,26.505,70.217,30,70.217z"></path><path d="M59.561,60.515c-8.844,0-10.701-13.438-10.701-24.707c0-3.094-0.299-5.915-0.867-8.479  c-0.583,0.122-1.188,0.187-1.807,0.187c-4.869,0-8.816-3.947-8.816-8.816c0-1.875,0.59-3.611,1.589-5.04  c-0.646-0.372-1.354-0.75-2.126-1.118c0.77-1.253,1.223-2.722,1.223-4.297C38.053,3.698,34.354,0,29.809,0  c-4.545,0-8.244,3.698-8.244,8.244c0,1.627,0.48,3.141,1.297,4.42c-1.367,0.675-2.552,1.402-3.473,2.062  c-0.527,0.415-1.05,0.859-1.561,1.366C13.39,20.497,11.14,27.13,11.14,35.808c0.001,11.271-1.856,24.707-10.699,24.707H0v3h60v-3  H59.561z M29.809,10.487c-1.237,0-2.244-1.006-2.244-2.244C27.565,7.005,28.572,6,29.809,6c1.237,0,2.244,1.006,2.244,2.244  C32.053,9.482,31.046,10.487,29.809,10.487z"></path><path d="M46.186,11.02c4.24,0,7.678,3.438,7.678,7.679c0,4.241-3.438,7.679-7.678,7.679c-4.242,0-7.68-3.438-7.68-7.679  C38.506,14.458,41.943,11.02,46.186,11.02z M47.729,17.207v-4.003h-3.088v4.003h-4.002v3.088h4.002v4.001h3.088v-4.001h4v-3.088  H47.729z"></path></svg>