<svg xmlns="http://www.w3.org/2000/svg" xmlns:xlink="http://www.w3.org/1999/xlink" version="1.0" x="0px" y="0px" viewBox="0 0 100 100" enable-background="new 0 0 100 100" xml:space="preserve"><g><g><rect x="25.085" y="35.415" fill="#000000" width="50" height="4.171"></rect><rect x="25.085" y="47.915" fill="#000000" width="50" height="4.171"></rect><rect x="25.085" y="60.415" fill="#000000" width="50" height="4.171"></rect><rect x="25.085" y="72.915" fill="#000000" width="50" height="4.171"></rect><rect x="25.085" y="85.415" fill="#000000" width="50" height="4.171"></rect><path fill="#000000" d="M91.062,16.675h-3.477V0h-75v16.675H8.909c-4.854,0-8.824,3.969-8.824,8.824v49.013    c0,4.858,3.969,8.824,8.824,8.824h3.676V100h75V83.335h3.505c4.854,0,8.824-3.965,8.824-8.824V25.498    C99.915,20.644,95.911,16.675,91.062,16.675z M16.75,4.165h66.671v12.51H16.75V4.165z M83.421,95.835H16.75V29.165h66.671V95.835z    "></path></g></g></svg>