<svg xmlns="http://www.w3.org/2000/svg" xmlns:xlink="http://www.w3.org/1999/xlink" version="1.0" x="0px" y="0px" viewBox="0 0 100 100" enable-background="new 0 0 100 100" xml:space="preserve"><g><path fill="#000000" d="M89.827,59.388c13.564-13.566,13.561-35.645-0.003-49.211C76.251-3.394,54.179-3.389,40.613,10.174   c-11.684,11.684-13.302,29.684-4.849,43.12L2.265,86.79c-3.013,3.016-3.023,7.923,0,10.946s7.931,3.013,10.946,0l33.496-33.499   C60.143,72.69,78.143,71.072,89.827,59.388z M51.559,48.442c-7.535-7.535-7.535-19.789,0-27.321   c7.533-7.535,19.784-7.535,27.319,0.002c7.535,7.533,7.535,19.786,0.003,27.319C71.348,55.977,59.095,55.975,51.559,48.442z"></path></g></svg>