<svg xmlns="http://www.w3.org/2000/svg" xmlns:xlink="http://www.w3.org/1999/xlink" version="1.0" x="0px" y="0px" viewBox="0 0 100 100" enable-background="new 0 0 100 100" xml:space="preserve"><g><path fill="#000000" d="M71.59,62.272c7.031-7.039,7.031-18.49-0.008-25.525c-7.039-7.039-18.481-7.035-25.521,0   c-6.055,6.059-6.901,15.393-2.515,22.363L26.172,76.481c-1.562,1.567-1.562,4.11,0,5.68c1.571,1.567,4.118,1.562,5.68,0   l17.375-17.375C56.193,69.169,65.527,68.331,71.59,62.272z M51.741,56.592c-3.906-3.906-3.906-10.262,0-14.168   s10.262-3.906,14.168,0s3.906,10.262,0,14.168C62.004,60.502,55.648,60.498,51.741,56.592z"></path><path fill="#000000" d="M66.667,0h-1.603H60.14h-1.807H21.907c-6.339,0-11.491,5.155-11.491,11.491v77.018   c0,6.335,5.151,11.491,11.491,11.491h56.185c6.339,0,11.491-5.155,11.491-11.491V29.167v-2.706v-4.142v-1.485L66.667,0z    M66.667,8.333l14.583,12.5H69.824c-1.741,0-3.158-1.416-3.158-3.158V8.333z M81.25,88.509c0,1.741-1.416,3.158-3.158,3.158H21.907   c-1.741,0-3.157-1.416-3.157-3.158V11.491c0-1.741,1.416-3.158,3.157-3.158h36.426v1.278v8.065c0,6.335,5.151,11.491,11.491,11.491   H81.25V88.509z"></path></g></svg>