<svg xmlns="http://www.w3.org/2000/svg" xmlns:xlink="http://www.w3.org/1999/xlink" version="1.1" x="0px" y="0px" viewBox="0 0 100 36.688" enable-background="new 0 0 100 36.688" xml:space="preserve"><path d="M99.885,25.508c-0.611-3.476-2.05-5.779-4.271-6.847c-3.128-1.503-6.353,0.169-6.71,0.365  c-0.77,0.422-1.156,1.312-0.938,2.163s0.983,1.446,1.862,1.446c0.943,0,1.853,0.366,2.211,0.891  c0.255,0.373,0.246,0.917-0.026,1.615c-0.229,0.587-1.132,1.182-2.633,1.189c-1.429-0.006-9.058-0.748-15.35-16.384  c-1.889-4.693-4.915-7.772-8.993-9.149C59.678-1.011,53.762,0.612,50,2.134c-3.761-1.521-9.676-3.144-15.037-1.335  c-4.078,1.376-7.104,4.455-8.993,9.149c-6.263,15.563-13.818,16.384-15.329,16.384c-0.008,0-0.015,0-0.021,0  c-1.5-0.008-2.404-0.603-2.632-1.189c-0.272-0.698-0.281-1.242-0.026-1.615c0.358-0.524,1.267-0.891,2.21-0.891  c0.878,0,1.646-0.595,1.863-1.446s-0.169-1.741-0.939-2.163c-0.358-0.195-3.581-1.871-6.709-0.365  c-2.223,1.067-3.66,3.371-4.271,6.847c-0.778,4.426,2.425,8.301,8.359,10.111c10.197,3.107,28.725-0.024,36.109-16.637  c2.367-5.326,3.37-5.556,5.408-5.556c0.002,0,0.005,0,0.008,0c2.044,0.001,3.047,0.226,5.417,5.556  c5.755,12.944,18.273,17.706,28.346,17.705c2.854,0,5.513-0.382,7.764-1.068C97.46,33.809,100.663,29.934,99.885,25.508z"></path></svg>