<svg xmlns="http://www.w3.org/2000/svg" xmlns:xlink="http://www.w3.org/1999/xlink" version="1.1" x="0px" y="0px" viewBox="0 0 100 16.408" enable-background="new 0 0 100 16.408" xml:space="preserve"><path d="M99.951,8.566c-0.207-0.89-1.019-1.513-1.925-1.488c-0.014,0-0.699,0.019-1.888,0.019c-5.487,0-24.151-0.399-33.901-5.526  C60.256,0.528,58.364,0,56.614,0C53.863,0,51.47,1.356,50,3.681C48.53,1.356,46.137,0,43.386,0c-1.751,0-3.643,0.528-5.622,1.57  C28.013,6.697,9.35,7.097,3.862,7.097c-1.188,0-1.873-0.018-1.888-0.019C1.068,7.052,0.256,7.677,0.05,8.566  c-0.206,0.891,0.243,1.803,1.074,2.183c6.933,3.174,20.95,5.658,31.911,5.658c0,0,0,0,0,0c8.523,0,14.222-1.402,16.966-4.161  c2.744,2.759,8.44,4.161,16.964,4.161c10.962,0,24.979-2.484,31.912-5.658C99.708,10.37,100.156,9.458,99.951,8.566z"></path></svg>