<svg xmlns="http://www.w3.org/2000/svg" xmlns:xlink="http://www.w3.org/1999/xlink" version="1.1" x="0px" y="0px" viewBox="0 0 100 15.374" enable-background="new 0 0 100 15.374" xml:space="preserve"><path d="M98.442,2.496C98.167,2.395,91.596,0,84.396,0c-3.564,0-6.71,0.591-9.35,1.758c-1.637,0.724-3.156,1.061-4.782,1.061  c-2.058,0-4.267-0.522-7.063-1.185c-1.532-0.363-3.27-0.774-5.233-1.155c-3.174-0.617-6.023,0.1-7.97,1.828  c-1.945-1.728-4.795-2.445-7.97-1.828c-1.963,0.381-3.7,0.792-5.234,1.155c-2.796,0.662-5.005,1.185-7.063,1.185  c-1.625,0-3.145-0.337-4.782-1.061C22.309,0.591,19.164,0,15.6,0C8.399,0,1.829,2.395,1.553,2.496  C0.385,2.927-0.249,4.184,0.092,5.381s1.554,1.93,2.77,1.68c0.014-0.003,1.415-0.283,3.7-0.283c3.642,0,9.271,0.694,15.4,4  c5.417,2.921,11.614,4.597,17.003,4.597c0,0,0,0,0.001,0c4.557,0,8.313-1.212,11.032-3.495c2.72,2.283,6.476,3.495,11.033,3.495  c5.389,0,11.585-1.676,17.002-4.597c6.131-3.306,11.759-4,15.4-4c2.285,0,3.687,0.28,3.692,0.281c1.222,0.262,2.435-0.47,2.78-1.669  C100.252,4.191,99.613,2.928,98.442,2.496z"></path></svg>