<svg xmlns="http://www.w3.org/2000/svg" xmlns:xlink="http://www.w3.org/1999/xlink" version="1.1" x="0px" y="0px" viewBox="0 0 100 22.011" enable-background="new 0 0 100 22.011" xml:space="preserve"><path d="M99.012,0.251c-0.761-0.431-1.72-0.297-2.335,0.323c-0.101,0.1-10.053,10-20.3,10.001c-0.922,0-1.831-0.082-2.701-0.244  c-3.352-0.622-6.204-1.18-8.63-1.654C59.468,7.587,56.1,6.929,53.981,6.929c-2.277,0-3.434,0.854-3.981,1.945  c-0.548-1.09-1.704-1.945-3.981-1.945c-2.119,0-5.486,0.658-11.064,1.749c-2.426,0.474-5.279,1.032-8.629,1.654  c-0.871,0.162-1.78,0.244-2.702,0.244c-10.248,0-20.2-9.901-20.3-10.001C2.708-0.046,1.75-0.179,0.988,0.251  c-0.762,0.43-1.143,1.316-0.929,2.166c0.123,0.491,3.143,12.077,13.282,15.829c6.75,2.499,13.05,3.766,18.725,3.766  c10.161,0,16.322-4.122,17.934-8.648c1.612,4.526,7.773,8.648,17.935,8.648c0.001,0,0.001,0,0.001,0  c5.675,0,11.974-1.267,18.724-3.766C96.798,14.493,99.818,2.908,99.941,2.417C100.154,1.567,99.774,0.681,99.012,0.251z"></path></svg>