<svg xmlns="http://www.w3.org/2000/svg" xmlns:xlink="http://www.w3.org/1999/xlink" version="1.1" x="0px" y="0px" viewBox="0 0 100 25.066" enable-background="new 0 0 100 25.066" xml:space="preserve"><path d="M99.689,9.397c-0.467-0.722-1.362-1.042-2.182-0.79c-0.028,0.009-2.963,0.9-6.841,0.9c-4.88,0-8.979-1.344-12.178-3.995  C74.261,2.009,68.312,0,62.169,0c-4.992,0-9.216,1.327-11.024,3.464c-0.417,0.492-0.797,0.981-1.144,1.467  c-0.347-0.486-0.728-0.975-1.144-1.467C47.049,1.327,42.825,0,37.833,0C31.69,0,25.741,2.009,21.512,5.513  c-3.2,2.65-7.297,3.995-12.178,3.995c-3.877,0-6.812-0.891-6.837-0.899C1.678,8.35,0.783,8.672,0.312,9.394  c-0.47,0.721-0.403,1.668,0.164,2.316c0.186,0.213,4.621,5.172,13.061,5.279c-0.242,0.578-0.655,1.113-1.36,1.308  c-1.886,0.521-1.852,1.896-1.796,2.307c0.16,1.182,1.075,1.781,2.719,1.781c1.352,0,5.952-0.398,9.812-1.926  c-0.029,0.026-0.059,0.055-0.089,0.081c-1.17,1.016-0.941,2.073-0.789,2.483c0.24,0.641,0.899,1.327,2.03,1.327  c1.266,0,5.786-1.589,9.367-3.473c-0.125,0.308-0.25,0.533-0.371,0.646c-0.762,0.488-1.082,1.445-0.762,2.296  c0.285,0.76,1.009,1.246,1.799,1.246c0.105,0,0.212-0.008,0.319-0.026C35.684,24.827,45.309,23.066,50,17.95  c4.692,5.116,14.317,6.877,15.586,7.089c0.108,0.019,0.218,0.027,0.325,0.027c0.043,0,0.086-0.001,0.127-0.004  c0.269-0.016,0.522-0.087,0.75-0.202c0.419-0.208,0.761-0.566,0.935-1.028c0.205-0.547,0.154-1.131-0.11-1.61  c-0.165-0.3-0.407-0.554-0.701-0.729c-0.111-0.121-0.227-0.333-0.341-0.615c3.581,1.885,8.101,3.473,9.367,3.473  c1.131-0.001,1.79-0.688,2.03-1.328c0.152-0.409,0.379-1.468-0.79-2.482c-0.03-0.026-0.059-0.055-0.089-0.081  c3.859,1.527,8.46,1.926,9.812,1.926c1.645,0,2.559-0.6,2.72-1.781c0.054-0.411,0.089-1.786-1.796-2.306  c-0.712-0.197-1.127-0.73-1.368-1.309c8.444-0.104,12.881-5.065,13.068-5.279C100.092,11.062,100.157,10.119,99.689,9.397z"></path></svg>