<svg xmlns="http://www.w3.org/2000/svg" xmlns:xlink="http://www.w3.org/1999/xlink" version="1.1" x="0px" y="0px" viewBox="0 0 100 100" enable-background="new 0 0 100 100" xml:space="preserve"><g><path fill="#000000" d="M79.738,16.858L59.119,4.906c-3.252-1.886-7.412-0.767-9.291,2.5l-2.97,5.166h-7.947   c-8.564,0-15.25,0-15.25,0c-3.756,0-6.802,3.058-6.802,6.83V37.21h65.3v-1.073c0-2.584-1.14-3.923-2.986-4.633l3.056-5.314   C84.105,22.922,82.993,18.744,79.738,16.858z M75.001,25.78c-1.294,2.212-2.419,3.218-4.782,1.928c-2.371-1.295-15.943-9-15.943-9   s-1.782-1.385-1.273-3.536l2.23-3.857c0,0,0.9-1.794,3.826,0c3.137,1.924,16.264,9.643,16.264,9.643S77.132,22.142,75.001,25.78z    M21.791,9.221h17.004c2.537,0,4.592-2.064,4.592-4.61C43.387,2.065,41.332,0,38.795,0H21.791C19.255,0,17.2,2.064,17.2,4.61   C17.2,7.156,19.255,9.221,21.791,9.221z M16.859,93.171c0,3.772,3.045,6.829,6.802,6.829h51.696c3.758,0,6.803-3.057,6.803-6.829   c0,0,0-0.894,0-2.474h-65.3L16.859,93.171L16.859,93.171z M16.859,87.209h65.3V40.698h-65.3V87.209z"></path></g></svg>