<svg xmlns="http://www.w3.org/2000/svg" xmlns:xlink="http://www.w3.org/1999/xlink" version="1.1" x="0px" y="0px" viewBox="0 0 100 100" enable-background="new 0 0 100 100" xml:space="preserve"><circle fill="none" stroke="#000000" stroke-width="2" stroke-miterlimit="10" cx="50.858" cy="49.629" r="44.627"></circle><path d="M50.858,11.633c-20.985,0-37.996,17.011-37.996,37.996c0,20.984,17.011,37.994,37.996,37.994  c20.983,0,37.994-17.01,37.994-37.994C88.853,28.644,71.842,11.633,50.858,11.633z M69,75H35V25h34V75z"></path><rect x="38" y="29" width="28" height="18"></rect><rect x="38" y="50" width="7" height="6"></rect><rect x="38" y="58" width="7" height="6"></rect><rect x="38" y="67" width="7" height="5"></rect><rect x="48" y="50" width="8" height="6"></rect><rect x="48" y="58" width="8" height="6"></rect><rect x="48" y="67" width="8" height="5"></rect><rect x="59" y="50" width="7" height="6"></rect><rect x="59" y="58" width="7" height="6"></rect><rect x="59" y="67" width="7" height="5"></rect></svg>