<svg xmlns="http://www.w3.org/2000/svg" xmlns:xlink="http://www.w3.org/1999/xlink" version="1.1" x="0px" y="0px" viewBox="0 0 100 100" enable-background="new 0 0 100 100" xml:space="preserve"><path fill="#000000" d="M3.541,36.5"></path><path d="M11.486,35H-1v14h23.384c0,0-0.544-15.391,14.166-23.693c14.711-8.302,31.737,3.966,32.01,4.362  c0.272,0.395,9.398-8.822,9.398-8.822s-18.797-17.477-41-10.054C21.927,15.818,14.699,26,11.486,35z"></path><path d="M87.766,61H99V47H76.868c0,0,0.546,15.453-14.166,23.754c-14.71,8.303-31.737-3.936-32.009-4.33  c-0.273-0.396-9.399,8.837-9.399,8.837s18.797,17.423,41,10C77.326,80.235,84.553,70,87.766,61z"></path><ellipse cx="49.927" cy="47.867" rx="12.911" ry="12.124"></ellipse></svg>