<?xml version="1.0" encoding="utf-8"?><!DOCTYPE svg PUBLIC "-//W3C//DTD SVG 1.1//EN" "http://www.w3.org/Graphics/SVG/1.1/DTD/svg11.dtd"><svg version="1.1" xmlns="http://www.w3.org/2000/svg" xmlns:xlink="http://www.w3.org/1999/xlink" x="0px" y="0px" viewBox="0 0 100 63.171" enable-background="new 0 0 100 63.171" xml:space="preserve"><g><g><path fill="#010101" d="M24.332,35.409c-0.077-4.014,0.588-7.271-0.66-11.143c-1.562-4.846-7.473-1.739-8.979-0.572
			c-1.364,1.06-5.699,5.779-7.958,10.337c-1.845,3.718-2.101,7.512,0.842,11.183c0.627,0.783,2.318,2.714,3.054,3.261
			c0,0,3.018,3.611,4.825,6.015c2.155,2.871,3.62,6.524,5.237,7.569c2.592,1.673,4.78,1.088,7.292-0.709
			c1.737-1.24,2.968-3.078,3.167-5.308c0.41-4.633-2.096-7.22-4.1-11.01C26.153,43.331,24.364,37.159,24.332,35.409"></path><path fill="#010101" d="M8.179,26.217c1.38-1.107-0.383-4.822-2.652-3.676c-0.687,0.289-1.062,0.694-1.299,1.399
			C3.663,25.626,6.652,27.442,8.179,26.217"></path><path fill="#010101" d="M10.041,22.675c1.32,0.425,2.167-0.407,2.707-1.011c0.673-0.754,0.077-4.121-1.907-3.973
			c-1.125,0.083-1.656,0.42-2.15,1.256C7.901,20.275,8.797,22.272,10.041,22.675"></path><path fill="#010101" d="M19.819,18.647c2.806-1.287,2.286-8.82-1.325-9.222c-1.398-0.155-3.471,0.975-3.471,0.975
			C10.949,12.906,13.901,21.359,19.819,18.647"></path><path fill="#010101" d="M4.523,31.104c0.536-0.25,0.997-0.5,1.056-1.085c0.098-0.99-0.868-3.486-3.012-2.666
			C-0.292,28.444,3.028,31.796,4.523,31.104"></path><path fill="#010101" d="M1.699,32.384c-0.896,0.068-1.557,0.676-1.687,1.524C-0.185,35.17,1.98,36.34,2.979,35.47
			c0.27-0.231,0.393-0.418,0.51-0.746C3.883,33.638,2.895,32.292,1.699,32.384"></path><path fill="#010101" d="M86.03,24.494c-1.426-1.265-7.118-4.757-9.001-0.028c-1.5,3.779-1.054,7.074-1.397,11.075
			c-0.149,1.743-2.343,7.78-3.355,9.42c-2.251,3.649-4.924,6.061-4.822,10.713c0.048,2.234,1.154,4.151,2.808,5.505
			c2.385,1.96,4.527,2.694,7.229,1.196c1.68-0.932,3.385-4.483,5.727-7.204c1.963-2.279,5.216-5.68,5.216-5.68
			c0.769-0.495,2.587-2.31,3.264-3.049c3.185-3.469,3.179-7.272,1.587-11.102C91.328,30.64,87.321,25.641,86.03,24.494"></path><path fill="#010101" d="M92.36,27.445c1.44,1.324,4.544-0.291,4.093-2.009c-0.19-0.721-0.538-1.148-1.203-1.484
			C93.062,22.658,91.059,26.248,92.36,27.445"></path><path fill="#010101" d="M88.105,22.599c0.499,0.637,1.285,1.524,2.634,1.187c1.266-0.318,2.293-2.25,1.597-3.629
			c-0.439-0.866-0.947-1.238-2.062-1.398C88.301,18.48,87.483,21.801,88.105,22.599"></path><path fill="#010101" d="M81.248,19.116c5.726,3.1,9.235-5.136,5.336-7.911c0,0-1.994-1.264-3.399-1.2
			C79.556,10.163,78.535,17.647,81.248,19.116"></path><path fill="#010101" d="M94.7,31.41c0.021,0.59,0.465,0.871,0.983,1.153c1.443,0.792,4.979-2.333,2.2-3.611
			C95.799,27.994,94.667,30.418,94.7,31.41"></path><path fill="#010101" d="M99.996,35.664c-0.077-0.854-0.696-1.503-1.586-1.633c-1.184-0.172-2.259,1.106-1.938,2.215
			c0.096,0.333,0.201,0.528,0.459,0.779C97.868,37.957,100.108,36.936,99.996,35.664"></path><path fill="#010101" d="M40.013,36.169c1.283,0.672,6.033,2.025,6.168-2.511c0.105-3.625-1.003-6.291-1.744-9.774
			c-0.322-1.52-0.292-7.253,0-8.925c0.652-3.723,1.896-6.521,0.691-10.432c-0.578-1.88-1.804-3.191-3.266-3.874
			c-2.11-0.988-3.757-1.006-5.239,1.022c-0.923,1.262-1.227,4.751-2.167,7.716c-0.787,2.483-2.184,6.278-2.184,6.278
			c-0.406,0.638-1.209,2.687-1.493,3.501c-1.332,3.833-0.402,7.054,1.623,9.852C34.885,32.454,38.849,35.561,40.013,36.169"></path><path fill="#010101" d="M34.976,35.797c-1.303-0.569-3.054,1.27-2.339,2.345c0.3,0.451,0.641,0.661,1.177,0.737
			C35.621,39.254,36.153,36.313,34.976,35.797"></path><path fill="#010101" d="M39.041,38.126c-0.493-0.322-1.244-0.746-2.089-0.195c-0.795,0.517-1.045,2.087-0.243,2.87
			c0.505,0.492,0.94,0.628,1.748,0.474C39.877,41,39.656,38.528,39.041,38.126"></path><path fill="#010101" d="M44.573,38.902c-4.664-0.78-5.134,5.706-1.801,6.691c0,0,1.668,0.401,2.618,0.025
			C47.845,44.655,46.784,39.272,44.573,38.902"></path><path fill="#010101" d="M32.433,33.625c-0.152-0.401-0.523-0.488-0.945-0.562c-1.183-0.202-2.875,2.775-0.663,3.001
			C32.483,36.233,32.689,34.299,32.433,33.625"></path><path fill="#010101" d="M27.793,31.953c0.253,0.568,0.832,0.867,1.473,0.749c0.855-0.163,1.291-1.294,0.81-1.98
			c-0.145-0.209-0.264-0.314-0.5-0.429C28.714,29.875,27.416,31.104,27.793,31.953"></path><path fill="#010101" d="M67.598,29.023c2.025-2.798,2.955-6.019,1.621-9.852c-0.283-0.816-1.088-2.865-1.491-3.501
			c0,0-1.396-3.796-2.186-6.278c-0.939-2.965-1.242-6.454-2.164-7.716c-1.485-2.029-3.13-2.012-5.241-1.022
			c-1.462,0.683-2.686,1.994-3.264,3.874c-1.204,3.911,0.036,6.709,0.689,10.432c0.292,1.672,0.32,7.406,0,8.925
			c-0.739,3.485-1.85,6.15-1.744,9.774c0.137,4.536,4.888,3.183,6.167,2.511C61.152,35.561,65.114,32.454,67.598,29.023"></path><path fill="#010101" d="M66.187,38.879c0.533-0.076,0.874-0.286,1.175-0.737c0.715-1.075-1.035-2.914-2.337-2.345
			C63.846,36.313,64.377,39.254,66.187,38.879"></path><path fill="#010101" d="M61.543,41.272c0.805,0.155,1.24,0.02,1.747-0.474c0.804-0.783,0.554-2.353-0.243-2.87
			c-0.845-0.549-1.596-0.124-2.091,0.196C60.345,38.526,60.122,41,61.543,41.272"></path><path fill="#010101" d="M54.609,45.619c0.949,0.376,2.616-0.025,2.616-0.025c3.335-0.985,2.864-7.472-1.799-6.691
			C53.215,39.272,52.153,44.655,54.609,45.619"></path><path fill="#010101" d="M69.174,36.065c2.211-0.224,0.521-3.203-0.659-3c-0.424,0.073-0.795,0.161-0.947,0.562
			C67.311,34.299,67.515,36.233,69.174,36.065"></path><path fill="#010101" d="M70.422,30.292c-0.233,0.114-0.354,0.221-0.499,0.429c-0.481,0.686-0.043,1.817,0.811,1.98
			c0.643,0.121,1.22-0.181,1.475-0.749C72.583,31.104,71.286,29.875,70.422,30.292"></path></g></g></svg>