<svg xmlns="http://www.w3.org/2000/svg" xmlns:xlink="http://www.w3.org/1999/xlink" version="1.1" x="0px" y="0px" viewBox="0 0 100 100" enable-background="new 0 0 100 100" xml:space="preserve"><path d="M8.951,72.232H0v17.625c0,5.4,4.854,9.809,10.818,9.809h78.355c5.963,0,10.826-4.408,10.826-9.807V72.232h-8.958v15.756  c0,1.975-1.776,3.582-3.96,3.582H12.901c-2.189,0-3.951-1.607-3.951-3.582V72.232z M49.996,0.333L0,16.093v8.696L49.996,9.037  L100,24.789v-8.696L49.996,0.333z M31.45,24.789c-0.04,0.061-1.733,2.467-3.463,5.704c-0.867,1.622-1.74,3.453-2.425,5.342  c-0.668,1.894-1.172,3.834-1.18,5.812c0,0.625,0.052,1.256,0.183,1.881c0.377,1.782,1.163,3.365,2.049,4.942  c1.332,2.346,2.935,4.684,4.155,7.061c1.227,2.381,2.044,4.734,2.04,7.068c0,0.631-0.057,1.268-0.183,1.922  c-0.694,3.66-2.959,7.096-5.13,9.561c-1.076,1.227-2.121,2.215-2.873,2.885c-0.38,0.326-0.687,0.59-0.894,0.756L23.494,77.9  l-0.057,0.047l3.163,4.266c0.096-0.078,2.357-1.754,4.884-4.633c2.515-2.885,5.359-6.975,6.354-12.053  c0.19-0.99,0.279-1.969,0.279-2.928c-0.02-4.773-2.124-8.779-4.109-12.147c-1.005-1.687-2-3.23-2.771-4.598  c-0.781-1.363-1.308-2.558-1.479-3.412l-0.069-0.796c-0.007-1.005,0.313-2.475,0.87-4.013c0.833-2.325,2.156-4.822,3.261-6.685  c0.554-0.941,1.051-1.728,1.411-2.273l0.418-0.625l0.144-0.204L31.45,24.789 M50.664,24.789c-0.035,0.061-1.733,2.463-3.46,5.701  c-0.864,1.619-1.743,3.449-2.416,5.337c-0.673,1.894-1.18,3.835-1.187,5.813c0.003,0.627,0.055,1.26,0.186,1.896  c0.375,1.77,1.16,3.357,2.044,4.935c1.328,2.349,2.935,4.688,4.155,7.065c1.229,2.387,2.048,4.738,2.041,7.076  c0,0.629-0.056,1.256-0.18,1.91c-0.699,3.66-2.961,7.098-5.134,9.561c-1.076,1.229-2.117,2.215-2.874,2.885  c-0.375,0.336-0.687,0.59-0.894,0.758l-0.23,0.178l-0.056,0.045l3.165,4.266c0.096-0.078,2.356-1.754,4.88-4.633  c2.515-2.885,5.353-6.975,6.358-12.045c0.19-0.996,0.274-1.977,0.274-2.928c-0.018-4.773-2.121-8.783-4.11-12.152  c-1.005-1.686-2.002-3.229-2.771-4.596c-0.776-1.367-1.303-2.559-1.474-3.412l-0.071-0.811c-0.008-1.008,0.313-2.475,0.871-4.013  c0.83-2.326,2.153-4.816,3.258-6.687c0.55-0.931,1.048-1.721,1.405-2.263l0.42-0.63l0.143-0.198L50.664,24.789 M69.887,24.789  c-0.04,0.061-1.734,2.463-3.461,5.701c-0.866,1.619-1.742,3.449-2.414,5.337c-0.676,1.894-1.181,3.835-1.189,5.813  c0.003,0.627,0.057,1.26,0.186,1.896c0.377,1.77,1.161,3.357,2.047,4.935c1.335,2.346,2.934,4.684,4.154,7.065  c1.231,2.377,2.048,4.73,2.045,7.064c0,0.633-0.057,1.268-0.183,1.922c-0.698,3.66-2.967,7.098-5.138,9.551  c-1.081,1.238-2.121,2.225-2.874,2.895c-0.38,0.328-0.687,0.59-0.894,0.758l-0.235,0.178l-0.058,0.045l3.166,4.266  c0.096-0.078,2.355-1.754,4.883-4.633c2.515-2.885,5.357-6.975,6.363-12.045c0.19-0.996,0.277-1.977,0.277-2.936  c-0.021-4.773-2.124-8.779-4.113-12.147c-1.005-1.687-2.002-3.23-2.771-4.598c-0.778-1.363-1.303-2.554-1.476-3.407l-0.071-0.811  c-0.008-1.008,0.315-2.475,0.872-4.013c0.83-2.326,2.153-4.816,3.258-6.687c0.548-0.931,1.049-1.721,1.405-2.263l0.42-0.63  l0.144-0.198L69.887,24.789"></path></svg>