<svg xmlns="http://www.w3.org/2000/svg" xmlns:xlink="http://www.w3.org/1999/xlink" version="1.1" x="0px" y="0px" viewBox="0 0 100 100" enable-background="new 0 0 100 100" xml:space="preserve"><path d="M100,56.009c0,1.035-0.83,1.874-1.868,1.88H87.964v34.234c0,1.028-0.836,1.861-1.861,1.864h-12.22H56.019h-2.206  c0,0-1.935-1.065-3.808-3.256c-1.871-2.188-2.57-4.377-2.57-4.377s2.57-0.045,3.616-0.195c15.444-2.19,19.262-14.367,19.262-23.839  c0-14.798-19.131-23.268-19.131-23.268c0,7.71-10.812,16.56-10.812,16.56s-10.681,7.617-10.681,16.18  c0,10.376,10.681,13.8,10.681,13.8c-0.833-2.667-0.815-8.435,0.687-11.229c1.389-2.57,4.858-5.805,7.91-9.138  c3.049-3.329,3.741-6.566,3.741-6.566s1.755,3.723-0.314,7.208c-2.801,4.724-8.136,6.707-8.975,14.874  c-0.69,6.707,3.036,11.425,4.791,13.247h-1.352H26.564H13.9c-1.032-0.003-1.862-0.836-1.868-1.864V57.889H1.864  c-0.488-0.003-0.958-0.198-1.306-0.543c-0.738-0.727-0.745-1.91-0.012-2.646L48.677,6.565c0.299-0.302,0.69-0.493,1.111-0.542  c0.568-0.063,1.135,0.137,1.538,0.542L76.05,31.293v-4.392c0.006-1.028,0.836-1.861,1.868-1.864h7.94  c1.031,0.003,1.861,0.836,1.867,1.864v16.064L99.456,54.7C99.805,55.048,99.993,55.518,100,56.009z"></path></svg>