<?xml version="1.0" encoding="utf-8"?><!DOCTYPE svg PUBLIC "-//W3C//DTD SVG 1.1//EN" "http://www.w3.org/Graphics/SVG/1.1/DTD/svg11.dtd"><svg version="1.1" xmlns="http://www.w3.org/2000/svg" xmlns:xlink="http://www.w3.org/1999/xlink" x="0px" y="0px" viewBox="0 0 96.462 100" enable-background="new 0 0 96.462 100" xml:space="preserve"><g transform="translate(0,-952.36218)"><path fill="#010101" d="M21.962,1010.249
		c-11.095,8.127-19.246,21.214-21.962,36.635h11.217c-0.54-1.556-0.799-3.338-0.663-5.254l0.047-0.142l0.047-0.144L21.962,1010.249
		L21.962,1010.249z M59.827,954.918c1.583,2.294,2.472,5.363,2.131,8.993l-0.048,0.142l-0.046,0.095l-30.057,82.736h64.656
		c-3.832-21.782-18.466-39.1-37.298-44.019c9.012-4.079,15.354-13.069,15.572-23.618C74.958,968.58,68.82,959.303,59.827,954.918
		L59.827,954.918z M51.62,952.775c-2.788,0.012-5.766,1.501-8.142,4.97l-3.455,9.514l-0.757,2.13l-1.136-1.94
		c0,0-0.379-0.631-0.852-1.183c-0.236-0.276-0.479-0.541-0.663-0.663c-0.046-0.031-0.067-0.036-0.095-0.048
		c0,0.007-0.092,0.042-0.236,0.331c-0.159,0.319-0.332,0.82-0.426,1.326c-0.189,1.011-0.189,1.987-0.189,1.987l0.189,9.183v0.236
		l-0.047,0.189l-23.051,63.33c-0.304,5.082,2.372,8.455,5.822,9.703c3.452,1.249,7.656,0.35,10.602-3.738l30.72-84.347
		c0.477-5.638-2.137-9.273-5.539-10.507C53.505,952.937,52.558,952.772,51.62,952.775L51.62,952.775z M45.723,952.362
		c-13.226,1.243-23.716,12.197-23.998,25.795c-0.133,6.409,2.07,12.291,5.774,16.945l6.153-16.945l-0.189-9.087v-0.047
		c0,0,0.004-1.128,0.237-2.367c0.116-0.62,0.267-1.288,0.568-1.894c0.301-0.605,0.831-1.246,1.657-1.467
		c0.719-0.193,1.301,0.08,1.751,0.379c0.372,0.247,0.675,0.55,0.947,0.852l2.84-7.81v-0.095l0.095-0.142
		C42.773,954.67,44.204,953.335,45.723,952.362z"></path></g></svg>