<svg xmlns="http://www.w3.org/2000/svg" xmlns:xlink="http://www.w3.org/1999/xlink" version="1.1" x="0px" y="0px" viewBox="0 0 100 100" enable-background="new 0 0 100 100" xml:space="preserve"><path d="M13,29l6,11c0,0,8-6,13-7s11,1,11,5s-2,10-19,7l5,15c0,0,13-6,17,6c0.316,0.948,1,11-10,13S10,80,6,49c0,0-3.5,28,13,38  s33,4,35-13c0,0,0-13-5-16c0,0,12,5,18-6c6-11,9-13,15-12s7,19,2,25s-21,12-25-4c0,0-4,14,5,21s28,2,29-21c1-23-14-30-21-29  s-13,7-15,12s-6,13-12,10c-6-3-6-2-6-2s8-4,10-11s-1-21-15-20S13,29,13,29z"></path><path d="M43,8c0,0,5,14,18,13s16-9,16-9l8,9c0,0-13,13-27,9S42,10.999,43,8z"></path><circle cx="61" cy="11" r="7"></circle></svg>