<svg xmlns="http://www.w3.org/2000/svg" xmlns:xlink="http://www.w3.org/1999/xlink" version="1.1" x="0px" y="0px" viewBox="0 0 72 72" enable-background="new 0 0 72 72" xml:space="preserve"><path fill="#000000" d="M18.996,11.042c0.059-0.239,0.091-0.49,0.091-0.75c0-1.501-0.954-6.317-0.954-6.317S17.709,4.54,17.15,5.344  c-0.209-0.399-0.349-0.649-0.349-0.649s-0.333,0.596-0.744,1.416c-0.353-0.339-0.589-0.551-0.589-0.551s-0.953,3.232-0.953,4.733  c0,0.258,0.032,0.507,0.089,0.746c-1.573,0.8-2.652,2.429-2.652,4.314c0,2.675,2.169,4.845,4.843,4.845  c2.675,0,4.843-2.169,4.843-4.845C21.638,13.471,20.563,11.844,18.996,11.042z"></path><path fill="#000000" d="M20.863,21.179c3.38,0,4.75,2.787,5.261,4.321l4.153,13.647c0.827,2.937-2.907,4.152-3.797,1.292  l-3.736-12.532h-1.088l6.476,22.292h-5.966V67.58c0,2.962-4.457,2.948-4.457,0V50.084h-1.818l0.003,17.47  c0,2.988-4.476,2.988-4.476,0l-0.001-17.354H5.432l6.426-22.292h-1.005L7.116,40.484c-0.89,2.74-4.657,1.614-3.794-1.322L7.47,25.5  c0.444-1.558,1.806-4.321,5.217-4.321H20.863z"></path><circle fill="#000000" cx="53.867" cy="15.589" r="4.858"></circle><path fill="#000000" d="M66.656,4.875l0.01-0.23c0.044-0.937-0.694-1.488-1.531-1.629c-0.154-0.033-0.312-0.043-0.471-0.037  c-0.902,0.015-1.778,0.5-1.826,1.491l-0.177,3.896l-0.343,7.3c0,0-0.099,0.312-0.366,0.813l-4.482,4.482  c-0.271,0.166-0.56,0.328-0.86,0.488l-5.282,0.002c-0.309-0.164-0.604-0.329-0.881-0.498l-4.482-4.483  c-0.269-0.501-0.367-0.814-0.367-0.814l-0.344-7.299L45.076,4.46c-0.045-0.993-0.922-1.477-1.825-1.492  c-0.158-0.006-0.316,0.005-0.472,0.038c-0.838,0.141-1.573,0.693-1.529,1.629l0.009,0.232c-0.008,0.087-0.012,0.179-0.012,0.273  l0.256,11.638c0.351,3.001,4.274,5.596,6.165,9.216l0.193,1.562v0.593l0.01,0.012l-0.005,39.395c0,1.502,1.22,2.722,2.723,2.722  c0.113,0,0.226-0.007,0.333-0.021c1.386-0.128,2.47-1.294,2.47-2.71l-0.006-22.843h1.144l-0.008,22.852  c0,1.502,1.222,2.722,2.724,2.722c0.113,0,0.225-0.007,0.333-0.021c1.386-0.128,2.472-1.294,2.472-2.71l-0.004-32.896h-0.03v-6.776  l0.231-1.871c1.892-3.621,5.814-6.215,6.164-9.217l0.257-11.638C66.668,5.055,66.663,4.964,66.656,4.875z"></path></svg>