<?xml version="1.0" encoding="utf-8"?><!DOCTYPE svg PUBLIC "-//W3C//DTD SVG 1.1//EN" "http://www.w3.org/Graphics/SVG/1.1/DTD/svg11.dtd"><svg version="1.1" xmlns="http://www.w3.org/2000/svg" xmlns:xlink="http://www.w3.org/1999/xlink" x="0px" y="0px" viewBox="0 0 100 84.735" enable-background="new 0 0 100 84.735" xml:space="preserve"><path d="M0,59.196C0,73.3,22.385,84.735,50,84.735c27.615,0,50-11.435,50-25.54c0-4.593-2.384-8.899-6.539-12.623
	c0.327,1.104,0.514,2.224,0.514,3.375c0,12.404-19.693,22.459-43.975,22.459c-24.282,0-43.975-10.056-43.975-22.459
	c0-1.151,0.186-2.271,0.513-3.375C2.385,50.295,0,54.602,0,59.196z"></path><path d="M21.828,53.832c26.948-12.125-2.014-31.636,9.395-45.205C13.033,23.347,26.486,39.313,21.828,53.832z"></path><path d="M68.688,53.832c26.949-12.125-2.015-31.636,9.395-45.205C59.895,23.347,73.346,39.313,68.688,53.832z"></path><path d="M45.202,56.622C75.814,41.433,42.914,16.996,55.874,0C35.212,18.438,50.494,38.436,45.202,56.622z"></path></svg>