<svg xmlns="http://www.w3.org/2000/svg" xmlns:xlink="http://www.w3.org/1999/xlink" version="1.1" x="0px" y="0px" viewBox="0 0 91.672 100" enable-background="new 0 0 91.672 100" xml:space="preserve"><g><path fill="#000000" d="M54.169,100c0-10.352,8.396-18.747,18.752-18.747c10.356,0,18.751,8.396,18.751,18.747"></path></g><g><circle fill="#000000" cx="18.751" cy="66.669" r="10.417"></circle></g><g><path fill="#000000" d="M0,100c0-10.352,8.397-18.747,18.751-18.747c10.358,0,18.751,8.396,18.751,18.747"></path></g><path fill="#000000" d="M68.753,51.812L53.539,41.668h-3.536c-5.296,0-8.333-3.035-8.333-8.334V8.333  C41.669,3.039,44.707,0,50.002,0h33.336c5.294,0,8.334,3.039,8.334,8.333v25.001c0,5.299-3.04,8.334-8.334,8.334H68.753V51.812z   M50.002,4.166c-2.999,0-4.167,1.168-4.167,4.167v25.001c0,2.999,1.168,4.167,4.167,4.167H54.8l9.786,6.527v-6.527h18.752  c2.999,0,4.167-1.168,4.167-4.167V8.333c0-2.999-1.168-4.167-4.167-4.167H50.002z"></path><path fill="#000000" d="M50.002,45.835c-2.792,0-5.213-0.676-7.169-1.893l-9.499,6.336v-6.527H16.667  c-2.999,0-4.167-1.167-4.167-4.166V12.5c0-2.999,1.168-4.167,4.167-4.167h20.834c0-1.514,0.245-2.885,0.618-4.167H16.667  c-5.296,0-8.333,3.04-8.333,8.334v27.085c0,5.298,3.038,8.333,8.333,8.333h12.5v10.145l15.215-10.145h1.453  c2.58,0,4.613-0.732,6.031-2.083H50.002z"></path><path fill="#000000" d="M79.171,14.583h-6.25c0-4.029,0-6.25-4.168-6.25h-4.167c-4.167,0-4.167,2.222-4.167,6.25h-6.25  c0,0-2.083,0-2.083,2.083c0,2.083,0,14.584,0,14.584s0,2.083,2.083,2.083s25.002,0,25.002,0s2.084,0,2.084-2.083  c0-2.084,0-14.584,0-14.584S81.255,14.583,79.171,14.583z M64.586,14.583c0-0.781,0-1.539,0.019-2.083h4.13  c0.019,0.545,0.019,1.302,0.019,2.083H64.586z"></path><path fill="#000000" d="M27.084,33.424c-1.15,0-2.083-0.932-2.083-2.083v-4.257c0-1.152,0.933-2.083,2.083-2.083  c3.761,0,4.167-2.914,4.167-4.167c0-2.295-1.869-4.167-4.167-4.167c-2.298,0-4.167,1.872-4.167,4.167  c0,1.152-0.933,2.083-2.083,2.083c-1.151,0-2.083-0.932-2.083-2.083c0-4.594,3.739-8.333,8.333-8.333  c4.595,0,8.334,3.739,8.334,8.333c0,4.252-2.438,7.317-6.25,8.123v2.385C29.168,32.492,28.235,33.424,27.084,33.424z"></path><circle fill="#000000" cx="27.085" cy="37.501" r="2.083"></circle><g><circle fill="#000000" cx="72.921" cy="66.669" r="10.417"></circle></g></svg>