<svg xmlns="http://www.w3.org/2000/svg" xmlns:xlink="http://www.w3.org/1999/xlink" version="1.1" x="0px" y="0px" viewBox="0 0 68.748 100" enable-background="new 0 0 68.748 100" xml:space="preserve"><path fill="#000000" d="M60.416,0H8.333C3.737,0,0,3.737,0,8.333v83.333C0,96.261,3.737,100,8.333,100h52.083  c4.597,0,8.332-3.739,8.332-8.334V8.333C68.748,3.737,65.013,0,60.416,0z M64.582,91.666c0,2.295-1.869,4.167-4.166,4.167H8.333  c-2.297,0-4.167-1.872-4.167-4.167V8.333c0-2.297,1.87-4.167,4.167-4.167h52.083c2.297,0,4.166,1.87,4.166,4.167V91.666z"></path><circle fill="#000000" cx="35.417" cy="89.583" r="4.167"></circle><path fill="#000000" d="M58.333,8.333H10.417c-1.151,0-2.083,0.933-2.083,2.084V81.25c0,1.151,0.932,2.083,2.083,2.083h47.917  c1.151,0,2.083-0.932,2.083-2.083V10.417C60.416,9.266,59.484,8.333,58.333,8.333z M56.25,79.167h-37.5V12.5h20.833v22.917  l6.25-6.25l6.25,6.25V12.5h4.167V79.167z"></path></svg>