<svg xmlns="http://www.w3.org/2000/svg" xmlns:xlink="http://www.w3.org/1999/xlink" version="1.1" x="0px" y="0px" viewBox="0 0 100 91.668" enable-background="new 0 0 100 91.668" xml:space="preserve"><path fill="#000000" d="M33.333,58.334h62.5V43.75h-37.28c2.495-4.296,3.947-9.268,3.947-14.583C62.5,13.084,49.416,0,33.333,0  C17.25,0,4.167,13.084,4.167,29.167C4.167,45.25,17.25,58.334,33.333,58.334z M55.644,47.916h0.606v6.252h-7.971  C51.065,52.495,53.561,50.39,55.644,47.916z M68.75,54.168h-8.333v-6.252h8.333V54.168z M72.917,47.916h8.333v6.252h-8.333V47.916z   M91.667,54.168h-6.25v-6.252h6.25V54.168z M33.333,4.167c13.785,0,25,11.215,25,25c0,13.786-11.215,25.001-25,25.001  c-13.785,0-25-11.216-25-25.001C8.333,15.382,19.548,4.167,33.333,4.167z"></path><path fill="#000000" d="M97.917,62.501H2.083C0.933,62.501,0,63.433,0,64.584v25c0,1.151,0.933,2.084,2.083,2.084h95.833  c1.151,0,2.083-0.933,2.083-2.084v-25C100,63.433,99.068,62.501,97.917,62.501z M95.833,87.501H4.167V66.668h10.417v10.416h4.167  V66.668h12.5v6.25h4.167v-6.25h12.5v10.416h4.167V66.668h12.5v6.25h4.167v-6.25h12.5v12.5h4.167v-12.5h10.416V87.501z"></path><path fill="#000000" d="M33.333,22.917c4.595,0,8.333-3.738,8.333-8.333c0-4.595-3.738-8.333-8.333-8.333  C28.738,6.25,25,9.988,25,14.583C25,19.178,28.738,22.917,33.333,22.917z M33.333,10.417c2.298,0,4.167,1.869,4.167,4.167  c0,2.298-1.869,4.167-4.167,4.167c-2.298,0-4.167-1.869-4.167-4.167C29.167,12.285,31.035,10.417,33.333,10.417z"></path><path fill="#000000" d="M33.333,35.417c-4.595,0-8.333,3.738-8.333,8.333c0,4.595,3.738,8.334,8.333,8.334  c4.595,0,8.333-3.739,8.333-8.334C41.667,39.155,37.928,35.417,33.333,35.417z M33.333,47.918c-2.298,0-4.167-1.87-4.167-4.168  s1.869-4.167,4.167-4.167c2.298,0,4.167,1.869,4.167,4.167S35.631,47.918,33.333,47.918z"></path><path fill="#000000" d="M47.917,37.5c4.596,0,8.333-3.738,8.333-8.333c0-4.595-3.737-8.333-8.333-8.333  c-4.595,0-8.333,3.739-8.333,8.333C39.583,33.762,43.322,37.5,47.917,37.5z M47.917,25c2.298,0,4.167,1.869,4.167,4.167  s-1.868,4.167-4.167,4.167c-2.298,0-4.167-1.869-4.167-4.167S45.619,25,47.917,25z"></path><path fill="#000000" d="M27.083,29.167c0-4.595-3.739-8.333-8.333-8.333s-8.333,3.739-8.333,8.333c0,4.595,3.739,8.333,8.333,8.333  S27.083,33.762,27.083,29.167z M14.583,29.167c0-2.298,1.869-4.167,4.167-4.167s4.167,1.869,4.167,4.167s-1.869,4.167-4.167,4.167  S14.583,31.464,14.583,29.167z"></path><circle fill="#000000" cx="33.333" cy="29.167" r="4.167"></circle></svg>