<svg xmlns="http://www.w3.org/2000/svg" xmlns:xlink="http://www.w3.org/1999/xlink" version="1.1" x="0px" y="0px" viewBox="0 0 100 100" enable-background="new 0 0 100 100" xml:space="preserve"><g><path fill="#000000" d="M91.275,31.958H59v62.689h32.275c2.057,0,3.725-1.666,3.725-3.724V35.683   C95,33.626,93.332,31.958,91.275,31.958z"></path><path fill="#000000" d="M42.242,31.958H8.724C6.667,31.958,5,33.626,5,35.683v55.241c0,2.058,1.667,3.724,3.724,3.724h33.518   V31.958z"></path></g><path fill="#000000" d="M46.456,27.499c-2.747,4.064-10.374,3.71-17.036-0.793c-6.662-4.501-9.496-15.428-8.077-18.341  c1.053-2.165,11.362-0.879,18.024,3.624C46.028,16.49,49.202,23.435,46.456,27.499z"></path><path fill="#000000" d="M53.696,29.411c-3.832-3.063-2.868-10.637,2.153-16.917c5.023-6.281,16.14-8.23,18.93-6.585  c2.074,1.225-0.032,11.398-5.054,17.678C64.704,29.868,57.527,32.472,53.696,29.411z"></path></svg>