<svg xmlns:dc="http://purl.org/dc/elements/1.1/" xmlns:cc="http://creativecommons.org/ns#" xmlns:rdf="http://www.w3.org/1999/02/22-rdf-syntax-ns#" xmlns:svg="http://www.w3.org/2000/svg" xmlns="http://www.w3.org/2000/svg" xmlns:sodipodi="http://sodipodi.sourceforge.net/DTD/sodipodi-0.dtd" xmlns:inkscape="http://www.inkscape.org/namespaces/inkscape" viewBox="0 0 80 80" version="1.1" x="0px" y="0px"><path style="text-indent:0;text-transform:none;direction:ltr;block-progression:tb;baseline-shift:baseline;color:#000000;enable-background:accumulate;" d="M 40.875,7.53125 40.65625,7.6875 9.03125,30.28125 8,31 l 1.25,0 4.125,0 0,44.78125 0,0.40625 0.40625,0 54.21875,0 0.40625,0 0,-0.40625 0,-44.78125 4.09375,0 1.25,0 -1,-0.71875 L 41.125,7.6875 40.875,7.53125 z m 0,0.96875 30.34375,21.6875 -3.21875,0 -0.40625,0 0,0.40625 0,44.78125 -53.40625,0 0,-44.78125 0,-0.40625 -0.40625,0 -3.21875,0 L 40.875,8.5 z" fill="#000000" fill-opacity="1" stroke="none" marker="none" visibility="visible" display="inline" overflow="visible"></path><path style="text-indent:0;text-transform:none;direction:ltr;block-progression:tb;baseline-shift:baseline;color:#000000;enable-background:accumulate;" d="m 22,28 0,0.78125 0,47 1.625,0 0,-46.1875 34.53125,0 0,46.1875 1.59375,0 0,-47 L 59.75,28 58.96875,28 22.8125,28 22,28 z" fill="#000000" fill-opacity="1" stroke="none" marker="none" visibility="visible" display="inline" overflow="visible"></path><path style="text-indent:0;text-transform:none;direction:ltr;block-progression:tb;baseline-shift:baseline;color:#000000;enable-background:accumulate;" d="m 21,28 0,1.59375 39.75,0 L 60.75,28 21,28 z" fill="#000000" fill-opacity="1" stroke="none" marker="none" visibility="visible" display="inline" overflow="visible"></path><path style="text-indent:0;text-transform:none;direction:ltr;block-progression:tb;baseline-shift:baseline;color:#000000;enable-background:accumulate;" d="m 40.875,10.21875 -0.21875,0.1875 -28,19.875 0.4375,0.65625 L 40.875,11.21875 68.65625,30.9375 69.125,30.28125 l -28,-19.875 -0.25,-0.1875 z" fill="#000000" fill-opacity="1" stroke="none" marker="none" visibility="visible" display="inline" overflow="visible"></path><path style="text-indent:0;text-transform:none;direction:ltr;block-progression:tb;baseline-shift:baseline;color:#000000;enable-background:accumulate;" d="m 24.59375,30.1875 a 0.40004001,0.40004001 0 0 0 -0.375,0.40625 l 0,43.375 A 0.40004001,0.40004001 0 0 0 24.625,74.375 l 15.34375,0 A 0.40004001,0.40004001 0 0 0 40.375,73.96875 l 0,-43.375 A 0.40004001,0.40004001 0 0 0 39.96875,30.1875 l -15.34375,0 a 0.40004001,0.40004001 0 0 0 -0.03125,0 z m 0.4375,0.8125 14.5625,0 0,42.5625 -14.5625,0 0,-42.5625 z" fill="#000000" fill-opacity="1" stroke="none" marker="none" visibility="visible" display="inline" overflow="visible"></path><path style="text-indent:0;text-transform:none;direction:ltr;block-progression:tb;baseline-shift:baseline;color:#000000;enable-background:accumulate;" d="m 41.75,30.1875 a 0.40004004,0.40004004 0 0 0 -0.375,0.40625 l 0,43.375 a 0.40004004,0.40004004 0 0 0 0.40625,0.40625 l 15.375,0 a 0.40004004,0.40004004 0 0 0 0.40625,-0.40625 l 0,-43.375 A 0.40004004,0.40004004 0 0 0 57.15625,30.1875 l -15.375,0 a 0.40004004,0.40004004 0 0 0 -0.03125,0 z M 42.1875,31 56.75,31 l 0,42.5625 -14.5625,0 0,-42.5625 z" fill="#000000" fill-opacity="1" stroke="none" marker="none" visibility="visible" display="inline" overflow="visible"></path><path style="text-indent:0;text-transform:none;direction:ltr;block-progression:tb;baseline-shift:baseline;color:#000000;enable-background:accumulate;" d="m 25.53125,52.78125 0,0.8125 13.53125,0 0,-0.8125 -13.53125,0 z" fill="#000000" fill-opacity="1" stroke="none" marker="none" visibility="visible" display="inline" overflow="visible"></path><path style="text-indent:0;text-transform:none;direction:ltr;block-progression:tb;baseline-shift:baseline;color:#000000;enable-background:accumulate;" d="m 42.6875,52.78125 0,0.8125 13.5625,0 0,-0.8125 -13.5625,0 z" fill="#000000" fill-opacity="1" stroke="none" marker="none" visibility="visible" display="inline" overflow="visible"></path><path style="text-indent:0;text-transform:none;direction:ltr;block-progression:tb;baseline-shift:baseline;color:#000000;enable-background:accumulate;" d="m 13.78125,70.84375 0,0.8125 9.03125,0 0,-0.8125 -9.03125,0 z" fill="#000000" fill-opacity="1" stroke="none" marker="none" visibility="visible" display="inline" overflow="visible"></path><path style="text-indent:0;text-transform:none;direction:ltr;block-progression:tb;baseline-shift:baseline;color:#000000;enable-background:accumulate;" d="m 13.78125,66.34375 0,0.78125 9.03125,0 0,-0.78125 -9.03125,0 z" fill="#000000" fill-opacity="1" stroke="none" marker="none" visibility="visible" display="inline" overflow="visible"></path><path style="text-indent:0;text-transform:none;direction:ltr;block-progression:tb;baseline-shift:baseline;color:#000000;enable-background:accumulate;" d="m 13.78125,61.8125 0,0.8125 9.03125,0 0,-0.8125 -9.03125,0 z" fill="#000000" fill-opacity="1" stroke="none" marker="none" visibility="visible" display="inline" overflow="visible"></path><path style="text-indent:0;text-transform:none;direction:ltr;block-progression:tb;baseline-shift:baseline;color:#000000;enable-background:accumulate;" d="m 13.78125,57.3125 0,0.78125 9.03125,0 0,-0.78125 -9.03125,0 z" fill="#000000" fill-opacity="1" stroke="none" marker="none" visibility="visible" display="inline" overflow="visible"></path><path style="text-indent:0;text-transform:none;direction:ltr;block-progression:tb;baseline-shift:baseline;color:#000000;enable-background:accumulate;" d="m 13.78125,52.78125 0,0.8125 9.03125,0 0,-0.8125 -9.03125,0 z" fill="#000000" fill-opacity="1" stroke="none" marker="none" visibility="visible" display="inline" overflow="visible"></path><path style="text-indent:0;text-transform:none;direction:ltr;block-progression:tb;baseline-shift:baseline;color:#000000;enable-background:accumulate;" d="m 13.78125,48.28125 0,0.78125 9.03125,0 0,-0.78125 -9.03125,0 z" fill="#000000" fill-opacity="1" stroke="none" marker="none" visibility="visible" display="inline" overflow="visible"></path><path style="text-indent:0;text-transform:none;direction:ltr;block-progression:tb;baseline-shift:baseline;color:#000000;enable-background:accumulate;" d="m 13.78125,43.75 0,0.8125 9.03125,0 0,-0.8125 -9.03125,0 z" fill="#000000" fill-opacity="1" stroke="none" marker="none" visibility="visible" display="inline" overflow="visible"></path><path style="text-indent:0;text-transform:none;direction:ltr;block-progression:tb;baseline-shift:baseline;color:#000000;enable-background:accumulate;" d="m 13.78125,39.25 0,0.78125 9.03125,0 0,-0.78125 -9.03125,0 z" fill="#000000" fill-opacity="1" stroke="none" marker="none" visibility="visible" display="inline" overflow="visible"></path><path style="text-indent:0;text-transform:none;direction:ltr;block-progression:tb;baseline-shift:baseline;color:#000000;enable-background:accumulate;" d="m 13.78125,34.71875 0,0.8125 9.03125,0 0,-0.8125 -9.03125,0 z" fill="#000000" fill-opacity="1" stroke="none" marker="none" visibility="visible" display="inline" overflow="visible"></path><path style="text-indent:0;text-transform:none;direction:ltr;block-progression:tb;baseline-shift:baseline;color:#000000;enable-background:accumulate;" d="m 13.78125,30.1875 0,0.8125 9.03125,0 0,-0.8125 -9.03125,0 z" fill="#000000" fill-opacity="1" stroke="none" marker="none" visibility="visible" display="inline" overflow="visible"></path><path style="text-indent:0;text-transform:none;direction:ltr;block-progression:tb;baseline-shift:baseline;color:#000000;enable-background:accumulate;" d="m 58.96875,70.84375 0,0.8125 9.03125,0 0,-0.8125 -9.03125,0 z" fill="#000000" fill-opacity="1" stroke="none" marker="none" visibility="visible" display="inline" overflow="visible"></path><path style="text-indent:0;text-transform:none;direction:ltr;block-progression:tb;baseline-shift:baseline;color:#000000;enable-background:accumulate;" d="m 58.96875,66.34375 0,0.78125 9.03125,0 0,-0.78125 -9.03125,0 z" fill="#000000" fill-opacity="1" stroke="none" marker="none" visibility="visible" display="inline" overflow="visible"></path><path style="text-indent:0;text-transform:none;direction:ltr;block-progression:tb;baseline-shift:baseline;color:#000000;enable-background:accumulate;" d="m 58.96875,61.8125 0,0.8125 9.03125,0 0,-0.8125 -9.03125,0 z" fill="#000000" fill-opacity="1" stroke="none" marker="none" visibility="visible" display="inline" overflow="visible"></path><path style="text-indent:0;text-transform:none;direction:ltr;block-progression:tb;baseline-shift:baseline;color:#000000;enable-background:accumulate;" d="m 58.96875,57.3125 0,0.78125 9.03125,0 0,-0.78125 -9.03125,0 z" fill="#000000" fill-opacity="1" stroke="none" marker="none" visibility="visible" display="inline" overflow="visible"></path><path style="text-indent:0;text-transform:none;direction:ltr;block-progression:tb;baseline-shift:baseline;color:#000000;enable-background:accumulate;" d="m 58.96875,52.78125 0,0.8125 9.03125,0 0,-0.8125 -9.03125,0 z" fill="#000000" fill-opacity="1" stroke="none" marker="none" visibility="visible" display="inline" overflow="visible"></path><path style="text-indent:0;text-transform:none;direction:ltr;block-progression:tb;baseline-shift:baseline;color:#000000;enable-background:accumulate;" d="m 58.96875,48.28125 0,0.78125 9.03125,0 0,-0.78125 -9.03125,0 z" fill="#000000" fill-opacity="1" stroke="none" marker="none" visibility="visible" display="inline" overflow="visible"></path><path style="text-indent:0;text-transform:none;direction:ltr;block-progression:tb;baseline-shift:baseline;color:#000000;enable-background:accumulate;" d="m 58.96875,43.75 0,0.8125 9.03125,0 0,-0.8125 -9.03125,0 z" fill="#000000" fill-opacity="1" stroke="none" marker="none" visibility="visible" display="inline" overflow="visible"></path><path style="text-indent:0;text-transform:none;direction:ltr;block-progression:tb;baseline-shift:baseline;color:#000000;enable-background:accumulate;" d="m 58.96875,39.25 0,0.78125 9.03125,0 0,-0.78125 -9.03125,0 z" fill="#000000" fill-opacity="1" stroke="none" marker="none" visibility="visible" display="inline" overflow="visible"></path><path style="text-indent:0;text-transform:none;direction:ltr;block-progression:tb;baseline-shift:baseline;color:#000000;enable-background:accumulate;" d="m 58.96875,34.71875 0,0.8125 9.03125,0 0,-0.8125 -9.03125,0 z" fill="#000000" fill-opacity="1" stroke="none" marker="none" visibility="visible" display="inline" overflow="visible"></path><path style="text-indent:0;text-transform:none;direction:ltr;block-progression:tb;baseline-shift:baseline;color:#000000;enable-background:accumulate;" d="m 58.96875,30.1875 0,0.8125 9.03125,0 0,-0.8125 -9.03125,0 z" fill="#000000" fill-opacity="1" stroke="none" marker="none" visibility="visible" display="inline" overflow="visible"></path><path style="text-indent:0;text-transform:none;direction:ltr;block-progression:tb;baseline-shift:baseline;color:#000000;enable-background:accumulate;" d="m 19.4375,25.6875 0,0.78125 43.125,0 0,-0.78125 -43.125,0 z" fill="#000000" fill-opacity="1" stroke="none" marker="none" visibility="visible" display="inline" overflow="visible"></path><path style="text-indent:0;text-transform:none;direction:ltr;block-progression:tb;baseline-shift:baseline;color:#000000;enable-background:accumulate;" d="m 25.53125,21.15625 0,0.8125 30.71875,0 0,-0.8125 -30.71875,0 z" fill="#000000" fill-opacity="1" stroke="none" marker="none" visibility="visible" display="inline" overflow="visible"></path><path style="text-indent:0;text-transform:none;direction:ltr;block-progression:tb;baseline-shift:baseline;color:#000000;enable-background:accumulate;" d="m 31.84375,16.65625 0,0.78125 18.0625,0 0,-0.78125 -18.0625,0 z" fill="#000000" fill-opacity="1" stroke="none" marker="none" visibility="visible" display="inline" overflow="visible"></path><path style="text-indent:0;text-transform:none;direction:ltr;block-progression:tb;baseline-shift:baseline;color:#000000;enable-background:accumulate;" d="M 40.75,7.8 A 0.80008,0.80008 0 0 0 40.425,7.95 L 25.4,18.675 c -4.129786,2.949836 -7.867534,5.620272 -10.6,7.575 -1.366233,0.977364 -2.480162,1.773155 -3.25,2.325 -0.384919,0.275922 -0.694618,0.502229 -0.9,0.65 -0.102691,0.07389 -0.170155,0.135261 -0.225,0.175 -0.02742,0.01987 -0.0584,0.03781 -0.075,0.05 -0.0083,0.0061 -0.01682,-0.0061 -0.025,0 -0.0041,0.0031 -0.01731,0.019 -0.025,0.025 -0.0077,0.006 -0.07475,0.04975 -0.075,0.05 -0.04084,0.04083 -0.124719,0.17451 -0.125,0.175 -2.81e-4,4.9e-4 -0.09993,0.299513 -0.1,0.3 -7.04e-5,4.87e-4 0.02486,0.324515 0.025,0.325 1.38e-4,4.85e-4 0.124657,0.249519 0.125,0.25 3.43e-4,4.81e-4 0.08694,0.09172 0.125,0.125 0.03806,0.03328 0.07125,0.05675 0.1,0.075 0.05751,0.03649 0.09173,0.06141 0.125,0.075 0.133063,0.05436 0.177466,0.06722 0.225,0.075 0.09507,0.01556 0.179511,0.01893 0.275,0.025 0.190977,0.01214 0.42265,0 0.7,0 l 0.975,0 a 0.80008,0.80008 0 0 0 0.45,-0.15 L 27.05,20.925 c 3.828394,-2.718222 7.338377,-5.189638 9.9,-7 1.280812,-0.905181 2.318545,-1.661209 3.05,-2.175 0.334054,-0.234647 0.580018,-0.414278 0.775,-0.55 0.08831,0.05315 0.142973,0.09025 0.275,0.175 0.472518,0.303305 1.217162,0.800232 2.3,1.55 2.165677,1.499536 5.691973,3.996982 11.15,7.875 l 14.025,9.95 a 0.80008,0.80008 0 0 0 0.425,0.15 l 1.05,0.025 1.075,0.05 a 0.80008,0.80008 0 0 0 0.475,-1.45 L 57.025,19.15 C 49.03257,13.442195 42.151422,8.5150536 41.925,8.35 l -0.55,-0.4 A 0.80008,0.80008 0 0 0 40.75,7.8 z" fill="#000000" fill-opacity="1" stroke="none" marker="none" visibility="visible" display="inline" overflow="visible"></path></svg>