<svg xmlns="http://www.w3.org/2000/svg" xmlns:xlink="http://www.w3.org/1999/xlink" version="1.1" x="0px" y="0px" viewBox="0 0 100 100" enable-background="new 0 0 100 100" xml:space="preserve"><g><g><path d="M84.501,90.049H15.834c-8.638,0-15.667-7.593-15.667-16.925V34.182c0-9.333,7.029-16.925,15.667-16.925h16.557    c1.341-2.91,2.009-3.945,2.484-4.546C38.574,8.05,43.562,8.05,46.863,8.05c0.119,0.001,3.133,0.042,6.785-0.01l0.426-0.002    c2.192,0,8.858,0,12.05,6.008c0.465,0.876,1.006,1.951,1.616,3.211h16.762c8.64,0,15.667,7.592,15.667,16.925v38.942    C100.168,82.456,93.141,90.049,84.501,90.049z M15.834,25.818c-3.918,0-7.106,3.752-7.106,8.364v38.942    c0,4.611,3.188,8.364,7.106,8.364h68.667c3.919,0,7.106-3.753,7.106-8.364V34.182c0-4.612-3.188-8.364-7.106-8.364H62.306    l-1.154-2.47c-1.027-2.204-1.924-4.033-2.59-5.287c-0.251-0.474-0.775-1.462-4.488-1.462L53.768,16.6    c-3.806,0.053-6.963,0.009-6.963,0.01c-3.16,0-4.243,0.187-5.221,1.42c-0.03,0.046-0.651,0.975-2.488,5.21l-1.118,2.578H15.834z"></path></g><g><path d="M50.168,77.737c-13.51,0-24.501-10.993-24.501-24.499c0-13.512,10.991-24.503,24.501-24.503    c13.51,0,24.502,10.991,24.502,24.503C74.67,66.744,63.678,77.737,50.168,77.737z M50.168,37.296c-8.79,0-15.94,7.15-15.94,15.942    c0,8.788,7.15,15.938,15.94,15.938s15.941-7.149,15.941-15.938C66.109,44.446,58.958,37.296,50.168,37.296z"></path></g></g></svg>