<svg xmlns="http://www.w3.org/2000/svg" xmlns:xlink="http://www.w3.org/1999/xlink" version="1.1" x="0px" y="0px" viewBox="0 0 100 100" enable-background="new 0 0 100 100" xml:space="preserve"><g><path d="M88.844,52.861c-0.732-14.075-12.447-25.1-26.572-25.1c-1.202,0-2.44,0.088-3.627,0.249   c-4.852-6.231-12.437-10.25-20.927-10.25c-14.125,0-25.772,11.025-26.504,25.1l-0.008,29.38l8.617-8.434   c4.861,4.438,11.267,6.949,17.876,6.949c1.213,0,2.405-0.089,3.575-0.248c5.008,6.437,12.732,10.249,20.921,10.249   c6.609,0,13.171-2.511,18.031-6.949L89,82.24V52.965L88.844,52.861z M21.286,59.635l-1.498-1.491L15,62.729V43.017   C16,31.093,25.62,21.76,37.598,21.76c12.405,0,22.547,10.092,22.547,22.498c0,12.405-10.067,22.497-22.471,22.497   C31.393,66.754,25.589,64.226,21.286,59.635z M61.583,56h12.895c-0.742,6-5.968,10.736-12.282,10.736   c-2.619,0-5.101-0.747-7.184-2.241C57.746,62.13,59.997,59,61.583,56z M85,72.73l-4.84-4.585l-1.474,1.49   c-4.304,4.592-10.171,7.12-16.452,7.12c-6.303,0-12.302-2.662-16.534-7.232c2.465-0.78,4.766-1.911,6.862-3.335   c2.723,2.206,6.295,3.411,9.854,3.411C70.893,69.599,78,62.703,78,54.227V53H62.8c0.444-1,0.789-2.809,1.024-4.206   c0.701,1.069,1.906,1.709,3.28,1.709c2.167,0,3.924-1.791,3.924-3.958s-1.757-3.941-3.924-3.941c-1.164,0-2.198,0.508-2.916,1.312   c-0.057-4.375-1.176-8.502-3.116-12.124c0.374-0.018,0.903-0.03,1.278-0.03C74.327,31.763,84,41.094,85,53.018V72.73z"></path><path d="M51.572,41.641c-0.829,0-1.5,0.671-1.5,1.5c0,6.823-5.55,12.373-12.373,12.373c-6.823,0-12.373-5.55-12.373-12.373   c0-0.829-0.671-1.5-1.5-1.5s-1.5,0.671-1.5,1.5c0,8.477,6.896,15.373,15.373,15.373s15.373-6.896,15.373-15.373   C53.072,42.312,52.4,41.641,51.572,41.641z"></path><circle cx="31.409" cy="35.425" r="3.924"></circle><path d="M38.772,39h7.971c0.829,0,1.5-0.671,1.5-1.5s-0.671-1.5-1.5-1.5h-2.504l0.851-0.573c0.712-0.423,0.947-1.377,0.524-2.09   c-0.423-0.712-1.343-0.965-2.056-0.541l-5.553,3.286c-0.581,0.345-0.86,1.099-0.681,1.751C37.504,38.485,38.096,39,38.772,39z"></path></g></svg>