<svg xmlns="http://www.w3.org/2000/svg" xmlns:xlink="http://www.w3.org/1999/xlink" version="1.1" x="0px" y="0px" viewBox="0 0 100 100" enable-background="new 0 0 100 100" xml:space="preserve"><g><path fill="#000000" d="M72.542,42.936C71.029,38.417,66,32.459,60,29.552v7.017c6,3.425,6.761,9.395,6.826,9.733l0.275,2.267   l2.202,0.315c0.556,0.078,13.528,2.204,13.528,12.701C82.832,72.394,75.777,75,74.195,76H25.464c-1.622-1-8.237-2.675-8.237-10.306   c0-9.294,9.449-10.628,10.48-10.737L31,54.581v-2.909c0-1.94,3-13.102,13-16.479v-6.725C31,31.281,25.686,42.44,24.423,48.944   c-5.672,1.428-13.527,6.035-13.527,16.55c0,10.938,8.933,15.543,13.698,16.449L75.048,82l0.337-0.081   c4.781-1.106,13.977-6.822,13.977-20.534C89.361,49.781,79.389,44.514,72.542,42.936z"></path><path fill="#000000" d="M58.127,44C57.062,44,56,42.56,56,41.492V20.614C56,19.547,55.286,18,54.221,18h-5.825   C47.327,18,47,19.547,47,20.614v20.865C47,42.547,45.952,44,44.88,44h-1.812c-1.072,0-1.604,0.466-1.075,1.394l8.281,14.456   c0.528,0.925,1.381,0.859,1.925-0.062l8.556-14.356C61.296,44.511,60.864,44,59.796,44H58.127z"></path></g></svg>