<svg xmlns="http://www.w3.org/2000/svg" xmlns:xlink="http://www.w3.org/1999/xlink" version="1.1" x="0px" y="0px" viewBox="0 0 100 100" enable-background="new 0 0 100 100" xml:space="preserve"><g><path d="M87.217,65.278L11.586,44.905c-1.314-0.353-2.649,0.422-3.001,1.727c-0.352,1.305,0.422,2.648,1.727,3l38.401,10.344   L34.078,80.708H63.45L48.84,60.01l37.103,9.994c0.213,0.058,0.428,0.086,0.638,0.086c1.08,0,2.067-0.719,2.363-1.812   C89.295,66.973,88.521,65.63,87.217,65.278z"></path><path d="M19.428,36.912h-3.147c0,2.38,1.328,4.896,4.917,5.409v1.672h1.967v-1.601c2.925-0.257,4.917-2.439,4.917-5.48   c0-3.163-3.006-4.8-4.917-5.357v-4.72c1.766,0.438,1.77,1.727,1.77,2.209h3.147c0-2.378-1.326-4.896-4.917-5.408v-1.673h-1.967   v1.599c-2.922,0.259-4.917,2.44-4.917,5.482c0,3.162,3.007,4.802,4.917,5.358v4.718C19.435,38.685,19.428,37.393,19.428,36.912z    M23.166,34.968c0.847,0.352,1.77,0.961,1.77,1.944c0,1.289-0.638,2.102-1.77,2.304V34.968z M19.428,29.044   c0-1.289,0.64-2.102,1.771-2.306v4.251C20.353,30.637,19.428,30.028,19.428,29.044z"></path><polygon points="78.261,30.53 78.261,18.292 66.022,18.292 66.022,30.53 53.783,30.53 53.783,42.769 66.022,42.769 66.022,55.008    78.261,55.008 78.261,42.769 90.5,42.769 90.5,30.53  "></polygon></g></svg>