<svg xmlns="http://www.w3.org/2000/svg" xmlns:xlink="http://www.w3.org/1999/xlink" version="1.1" x="0px" y="0px" viewBox="0 0 97.717 100" enable-background="new 0 0 97.717 100" xml:space="preserve"><path d="M1.389,100c-0.123,0-0.247-0.018-0.371-0.05c-0.739-0.206-1.172-0.971-0.967-1.709L26.975,1.018  c0.205-0.739,0.968-1.17,1.708-0.967c0.739,0.205,1.172,0.97,0.967,1.708L2.727,98.982C2.556,99.597,1.998,100,1.389,100z"></path><path d="M69.404,100c-0.122,0-0.247-0.018-0.371-0.05c-0.737-0.206-1.172-0.971-0.967-1.709L94.99,1.018  c0.205-0.739,0.969-1.17,1.709-0.967c0.737,0.205,1.172,0.97,0.967,1.708L70.742,98.982C70.571,99.597,70.015,100,69.404,100z"></path><circle cx="31.089" cy="70.792" r="6.94"></circle><path d="M50.435,39.088c-8.162,0-12.924,4.761-17.004,10.883c0,0,3.399-1.361,5.441-1.361s5.441,1.361,5.441,1.361  s2.428-0.968,4.82-1.27v13.961c0.446-0.117,0.905-0.198,1.388-0.198s0.942,0.081,1.389,0.198V48.723  c2.335,0.325,4.646,1.248,4.646,1.248s3.399-1.361,5.441-1.361c2.041,0,5.44,1.361,5.44,1.361  C63.358,43.849,58.597,39.088,50.435,39.088z"></path><path d="M53.298,68.016c0-1.533-1.243-2.776-2.776-2.776c-1.533,0-2.776,1.243-2.776,2.776c0,6.889-5.604,12.492-12.493,12.492  H19.984c-2.3,0-4.164,1.864-4.164,4.164v15.27h5.552V88.837h2.776v11.104h13.88v-9.717c0.351-3.066,3.392-5.083,4.972-5.938  c0.309-0.147,0.621-0.287,0.918-0.452c0.012-0.006,0.034-0.014,0.034-0.014l-0.014,0.002C49.512,80.749,53.298,74.818,53.298,68.016  z"></path><path d="M19.084,75.002L39.367,1.759c0.205-0.739-0.229-1.504-0.968-1.708c-0.729-0.2-1.502,0.228-1.708,0.967L15.973,75.833  C16.937,75.394,17.983,75.103,19.084,75.002z"></path><path d="M36.591,46.872l0.438-1.583c-0.731,0.802-1.43,1.655-2.103,2.557c0.11,0.026,0.219,0.045,0.328,0.045  C35.861,47.89,36.42,47.486,36.591,46.872z"></path><path d="M49.083,1.759c0.205-0.739-0.229-1.504-0.968-1.708c-0.731-0.2-1.502,0.228-1.708,0.967L35.99,38.637  c1.086-0.886,2.262-1.699,3.546-2.402L49.083,1.759z"></path><path d="M58.8,1.759c0.205-0.739-0.229-1.504-0.968-1.708c-0.732-0.2-1.502,0.228-1.708,0.967L47.051,33.78  c0.941-0.13,1.919-0.209,2.944-0.227L58.8,1.759z"></path><path d="M68.517,1.759c0.204-0.739-0.229-1.504-0.968-1.708c-0.733-0.2-1.504,0.228-1.708,0.967l-9.228,33.322  c0.919,0.249,1.795,0.551,2.633,0.899L68.517,1.759z"></path><path d="M78.233,1.759c0.204-0.739-0.229-1.504-0.968-1.708c-0.735-0.2-1.504,0.228-1.708,0.967L65.094,38.805  c0.813,0.678,1.574,1.395,2.288,2.138L78.233,1.759z"></path><path d="M86.981,0.05c-0.728-0.2-1.502,0.228-1.708,0.967L72.419,47.434l2.036,3.053L87.949,1.759  C88.154,1.02,87.721,0.255,86.981,0.05z"></path></svg>