<svg xmlns="http://www.w3.org/2000/svg" xmlns:xlink="http://www.w3.org/1999/xlink" version="1.1" x="0px" y="0px" viewBox="0 0 100 100" enable-background="new 0 0 100 100" xml:space="preserve"><rect x="23" y="19" width="2" height="70"></rect><polygon points="24,21 28,24 24,11 20,24 "></polygon><polygon points="24,71 28,77 28,88 24,85 20,88 20,77 "></polygon><rect x="57" y="19" width="2" height="70"></rect><polygon points="58,21 62,24 58,11 54,24 "></polygon><polygon points="62,84 58,88 54,84 58,72 "></polygon><rect x="74" y="19" width="2" height="70"></rect><polygon points="79,84 75,88 71,84 75,72 "></polygon><path d="M75,21l4,3c-3-4-4-13-4-13s-1,9-4,13L75,21z"></path><rect x="40" y="19" width="2" height="70"></rect><path d="M41,21l4,3c-3-4-4-13-4-13s-1,9-4,13L41,21z"></path><polygon points="43,84 43,83 45,84.75 45,82.75 43,81 43,80 45,81.75 45,79.75 43,78 43,77 45,78.75 45,77 41,73 37,77 37,78.75   39,77 39,78 37,79.75 37,81.75 39,80 39,81 37,82.75 37,84.75 39,83 39,84 37,85.75 37,88 41,85 45,88 45,85.75 "></polygon></svg>