<svg xmlns="http://www.w3.org/2000/svg" xmlns:xlink="http://www.w3.org/1999/xlink" version="1.1" x="0px" y="0px" viewBox="0 0 100 100" enable-background="new 0 0 100 100" xml:space="preserve"><g><path d="M95.656,10.259l1.547-6.789l-2.897-2.897l-8.315,8.797c-3.26-2.707-6.02-4.148-6.791-3.377L73.42,8.881   c-0.384-0.01-0.733,0.026-1.038,0.118L72.233,8.85L54.299,26.784l0,0L6.015,75.068l0.309,0.309   c0.107,0.106-0.193,0.713-0.183,1.082l-2.933,5.823c-1.021,1.021,1.809,5.549,6.347,10.088c4.538,4.539,9.035,7.401,10.056,6.379   l5.844-2.954c0.384,0.01,0.996-0.29,1.103-0.183l0.149,0.149l17.934-17.934l30.35-30.35l17.934-17.934l-0.309-0.309   c0.088-0.301,0.123-0.644,0.113-1.012l2.898-5.788c0.854-0.854-1.003-4.15-4.287-7.861L95.656,10.259z M73.613,46.097l-30.35,30.35   L27.531,92.178c-0.911-2.856-3.584-6.87-7.249-10.535c-3.937-3.937-8.45-6.874-10.849-7.235l15.895-15.895l30.35-30.35   l15.592-15.592c0.911,2.856,3.584,6.87,7.249,10.536c3.936,3.937,8.107,6.532,10.848,7.235L73.613,46.097z"></path><line x1="51" y1="15" x2="51" y2="15"></line><rect x="-1" y="-23" fill="none" width="73" height="23"></rect><text transform="matrix(1 0 0 1 -1 -8.0903)" font-family="'MyriadPro-Regular'" font-size="21">Marker</text></g></svg>