<svg xmlns="http://www.w3.org/2000/svg" xmlns:xlink="http://www.w3.org/1999/xlink" version="1.1" x="0px" y="0px" viewBox="1111.413 -92.21 100 50.042" enable-background="new 1111.413 -92.21 100 50.042" xml:space="preserve"><path d="M1160.578-56.475L1160.578-56.475c-4.012,0-7.263-2.108-8.921-5.783c-1.408-3.124-1.528-6.462-0.343-9.404  c0.983-2.439,2.801-4.34,4.987-5.214c1.861-0.744,3.646-1.121,5.307-1.121c2.979,0,7.07,1.198,9.644,6.906  c0.997,2.208,1.015,5.296,0.043,7.864c-0.944,2.495-2.703,4.382-5.088,5.456C1164.303-56.911,1162.407-56.475,1160.578-56.475z   M1161.608-70.008c-0.63,0-1.44,0.19-2.342,0.55c-0.332,0.175-1.338,1.675-0.327,3.917c0.358,0.796,0.788,1.078,1.639,1.078l0,0  c0.68,0,1.491-0.204,2.348-0.59c1.348-0.607,1.098-2.589,1.027-2.794C1163.13-69.668,1162.516-70.008,1161.608-70.008z"></path><path d="M1211.413-50.808l-15.467-16.545c4.439-5.84,11.806-14.444,11.896-14.548l3.248-3.791l-7.582-6.498l-3.249,3.791  c-0.337,0.395-6.375,7.448-10.972,13.336c-9.268-11.756-19.113-17.391-29.333-16.752c-11.948,0.756-20.885,10.075-25.66,16.471  c-4.758-5.788-11.918-12.964-12.29-13.335l-3.53-3.53l-7.06,7.06l3.529,3.53c2.764,2.765,10.219,10.49,13.357,14.814  c-2.609,2.952-6.032,5.976-8.931,8.534c-1.75,1.544-3.26,2.878-4.427,4.045l-3.53,3.531l7.062,7.06l3.529-3.531  c0.946-0.947,2.35-2.185,3.974-3.618c2.636-2.326,5.659-5.001,8.361-7.842c4.787,6.394,13.705,15.656,25.615,16.41  c0.526,0.033,1.051,0.05,1.576,0.05c9.795,0,19.248-5.82,28.156-17.307l14.432,15.485L1211.413-50.808z M1160.612-52.181  c-9.477-0.582-16.938-10.244-19.962-14.826c3.035-4.565,10.541-14.249,19.935-14.844c7.192-0.453,14.697,4.551,22.282,14.838  C1175.29-56.737,1167.785-51.731,1160.612-52.181z"></path></svg>