<svg xmlns="http://www.w3.org/2000/svg" xmlns:xlink="http://www.w3.org/1999/xlink" version="1.1" x="0px" y="0px" viewBox="37.374 -119.249 93.306 100" enable-background="new 37.374 -119.249 93.306 100" xml:space="preserve"><g><g><path d="M82.378-100.217c-6.316,0-7.579,5.558-7.579,5.558s-1.012-5.558-7.579-5.558c-4.186,0-7.579,3.393-7.579,7.58    c0,9.896,13.812,21.518,15.158,21.518c1.853,0,15.159-11.748,15.159-21.518C89.958-96.824,86.563-100.217,82.378-100.217z"></path></g><path d="M126.76-71.161c0.431,1.857,1.607,3.979,2.669,3.723c1.726-0.417,1.252-4.104,0.974-5.59   c-1.23-6.582-4.298-11.348-9.023-13.778c-2.01-1.033-7.11-0.841-9.092,0c-2.734,1.162-4.825,6.832-5.674,6.221   c-0.663-0.478-1.427-2.774-2.461-5.059c-0.623-1.376-1.768-3.19-3.108-2.494c-1.339,0.698-1.213,2.59-0.515,3.93   c0,0,2.299,4.583,3.453,6.458c1.697,2.755,4.194,2.284,4.887,1.062c0.452-0.797,1.85-3.643,2.119-3.076   c0.684,1.438-0.843,24.269-0.615,31.879c0.045,1.509,0.949,2.779,2.188,2.779c1.511,0,2.261-1.316,2.324-2.826   c0.552-13.288-0.07-16.453,1.847-16.453c1.822,0,1.195,3.146,1.39,16.682c0.021,1.502,0.768,2.597,2.267,2.597   c0.008,0,0.017,0,0.023,0c1.511-0.013,2.454-1.223,2.449-2.734c-0.023-6.587-1.607-30.853-0.9-31.911   C123.307-81.772,126.164-73.733,126.76-71.161z"></path><path d="M102.674-76.092v9.394H46.755v-38.233h55.918v14.795c1.289,0.42,2.405,1.637,3.319,3.659   c0.258,0.569,0.496,1.132,0.723,1.676v-22.152v-5.053c0-1.116-0.904-2.021-2.021-2.021H81.406v-3.201   c0-1.116-0.905-2.021-2.021-2.021h-9.172c-1.116,0-2.021,0.905-2.021,2.021v3.201H44.734c-1.116,0-2.021,0.905-2.021,2.021v5.053   v42.275c0,1.116,0.905,2.021,2.021,2.021h59.961c1.116,0,2.021-0.905,2.021-2.021v-9.043   C105.185-73.818,103.751-74.657,102.674-76.092z"></path><path d="M121.168-94.668c0-1.902-1.902-4.279-5.23-4.279c-2.89,0-4.277,2.338-4.277,5.229c0,2.854,2.853,4.278,4.277,4.278   C117.364-89.439,121.168-88.964,121.168-94.668z"></path><path d="M51.596-35.787c0-2.171-2.171-4.885-5.97-4.885c-3.299,0-4.882,2.668-4.882,5.969c0,3.257,3.254,4.884,4.882,4.884   S51.596-29.275,51.596-35.787z"></path><path d="M73.998-35.787c0-2.171-2.171-4.885-5.971-4.885c-3.298,0-4.881,2.668-4.881,5.969c0,3.257,3.254,4.884,4.881,4.884   C69.656-29.819,73.998-29.275,73.998-35.787z"></path><path d="M94.788-35.787c0-2.171-2.171-4.885-5.97-4.885c-3.299,0-4.882,2.668-4.882,5.969c0,3.257,3.254,4.884,4.882,4.884   S94.788-29.275,94.788-35.787z"></path><path d="M61.666-42.229c0-2.014-2.014-4.533-5.538-4.533c-3.061,0-4.53,2.476-4.53,5.539c0,3.023,3.021,4.532,4.53,4.532   S61.666-36.188,61.666-42.229z"></path><path d="M84.067-43.918c0-2.014-2.014-4.533-5.539-4.533c-3.061,0-4.53,2.476-4.53,5.539c0,3.022,3.021,4.532,4.53,4.532   S84.067-37.876,84.067-43.918z"></path><path d="M105.597-43.366c0-2.014-2.014-4.533-5.538-4.533c-3.061,0-4.53,2.476-4.53,5.538c0,3.023,3.02,4.532,4.53,4.532   C101.568-37.829,105.597-37.325,105.597-43.366z"></path><path d="M116.45-35.787c0-2.171-2.172-4.885-5.97-4.885c-3.299,0-4.884,2.668-4.884,5.969c0,3.257,3.255,4.884,4.884,4.884   C112.108-29.819,116.45-29.275,116.45-35.787z"></path><path d="M54.965-22.654c0-3.36-3.938-6.084-8.795-6.084s-8.795,2.724-8.795,6.084v3.406h17.591V-22.654z"></path><path d="M77.368-22.654c0-3.36-3.938-6.084-8.796-6.084c-4.858,0-8.796,2.724-8.796,6.084v3.406h17.592V-22.654z"></path><path d="M98.157-22.654c0-3.36-3.938-6.084-8.795-6.084s-8.795,2.724-8.795,6.084v3.406h17.59V-22.654z"></path><path d="M119.82-22.654c0-3.36-3.938-6.084-8.797-6.084c-4.858,0-8.796,2.724-8.796,6.084v3.406h17.593V-22.654z"></path></g></svg>