<svg xmlns="http://www.w3.org/2000/svg" xmlns:xlink="http://www.w3.org/1999/xlink" version="1.1" x="0px" y="0px" viewBox="0 0 100 100" enable-background="new 0 0 100 100" xml:space="preserve"><g><polygon points="19.403,54.406 19.412,54.508 19.291,54.504 17.957,70.713 19.798,70.773 20.274,64.986 20.737,70.615    22.578,70.555 21.244,54.346  "></polygon><polygon points="16.026,54.445 15.909,54.414 10.801,69.854 12.576,70.346 14.399,64.832 13.526,70.412 15.329,70.787    17.845,54.719 16.042,54.346  "></polygon><polygon points="25.348,54.406 25.356,54.508 25.235,54.504 23.901,70.713 25.742,70.773 26.218,64.986 26.681,70.615    28.522,70.555 27.188,54.346  "></polygon><polygon points="31.292,54.406 31.3,54.51 31.179,54.506 29.846,70.715 31.687,70.773 32.163,64.988 32.626,70.615 34.467,70.555    33.133,54.346  "></polygon><polygon points="37.237,54.408 37.245,54.51 37.124,54.506 35.791,70.715 37.631,70.775 38.107,64.988 38.57,70.617 40.411,70.557    39.078,54.348  "></polygon><polygon points="43.181,54.408 43.189,54.51 43.068,54.506 41.734,70.715 43.576,70.775 44.052,64.988 44.515,70.617    46.355,70.557 45.022,54.348  "></polygon><polygon points="49.125,54.408 49.134,54.512 49.013,54.508 47.679,70.717 49.52,70.777 49.996,64.988 50.459,70.617    52.301,70.557 50.966,54.348  "></polygon><polygon points="55.07,54.41 55.078,54.512 54.957,54.508 53.623,70.717 55.465,70.777 55.94,64.99 56.404,70.619 58.244,70.559    56.91,54.35  "></polygon><polygon points="61.015,54.41 61.023,54.512 60.901,54.508 59.567,70.717 61.409,70.777 61.885,64.99 62.349,70.619 64.188,70.559    62.855,54.35  "></polygon><polygon points="66.959,54.41 66.967,54.512 66.846,54.51 65.512,70.717 67.354,70.777 67.83,64.99 68.292,70.619 70.134,70.559    68.8,54.35  "></polygon><polygon points="72.903,54.412 72.911,54.514 72.791,54.51 71.457,70.719 73.297,70.779 73.773,64.992 74.236,70.619    76.078,70.559 74.744,54.352  "></polygon><polygon points="78.848,54.412 78.856,54.514 78.734,54.51 77.401,70.719 79.242,70.779 79.718,64.992 80.182,70.621    82.021,70.561 80.688,54.352  "></polygon><polygon points="83.29,54.709 83.317,54.807 83.197,54.826 84.903,71 86.724,70.717 86.114,64.941 87.616,70.387 89.414,69.984    85.088,54.307  "></polygon><path d="M87.4,43.133H30.578c10.623-8.995,24.849-12.837,38.721-10.21c2.204,0.412,4.602-0.758,5.372-2.854   c0.771-2.088-0.777-4.433-3.482-4.943c-18.772-3.555-38.092,2.861-51.008,16.942c-0.31,0.337-0.562,0.695-0.761,1.064h-1.128   c-2.54,0-4.6,2.059-4.6,4.599c0,2.541,2.06,4.6,4.6,4.6H87.4c2.54,0,4.6-2.059,4.6-4.6C92,45.192,89.94,43.133,87.4,43.133z"></path></g></svg>