<svg xmlns="http://www.w3.org/2000/svg" xmlns:xlink="http://www.w3.org/1999/xlink" version="1.1" x="0px" y="0px" viewBox="0 0 100 100" enable-background="new 0 0 100 100" xml:space="preserve"><g><g><path fill="#000000" d="M0.314,0.874c25.872-0.004,51.744,0,77.614-0.001c0.003,0.437,0.043,0.885-0.021,1.319    c-12.394-0.008-24.786,0-37.18-0.005c-0.156,0.005-0.312-0.017-0.462,0.032c0.013,1.064,0.006,2.127,0.003,3.19    c0.966,0.02,1.941-0.004,2.911,0.01c0.005,0.869-0.003,1.738,0.003,2.606c1.564,0.015,3.132-0.032,4.697-0.016    c14.285,0,28.572,0.001,42.855,0c1.598,0.049,3.264-0.101,4.715-0.829c-0.595-0.658-1.256-1.255-1.871-1.898    c0.295-0.328,0.606-0.64,0.933-0.932c0.693,0.671,1.357,1.369,2.052,2.036c0.736-0.683,1.084-1.713,1.063-2.703    c0.783-0.01,1.565-0.013,2.346,0.001c0.119,1.503-0.382,3.061-1.404,4.174c-0.072,0.099-0.222,0.169-0.242,0.293    c0.577,0.598,1.183,1.167,1.754,1.771c-0.28,0.33-0.596,0.641-0.924,0.925c-0.646-0.612-1.258-1.264-1.9-1.882    c-1.233,0.738-2.641,1.139-4.056,1.323c-1.654,0.227-3.327,0.14-4.989,0.156c-7.295,0.001-14.585,0-21.88,0.001    c-2.409,0.185-4.774,1.432-6.094,3.483c-0.884,1.35-1.309,2.954-1.423,4.549c-0.052,0.605-0.002,1.215-0.058,1.82    c-0.167,2.745-1.364,5.412-3.304,7.362c-1.818,1.857-4.283,3.065-6.864,3.356c-0.51,0.067-1.022,0.063-1.535,0.093    c0.003,0.514,0.003,1.026-0.002,1.542c0.131,0.045,0.271,0.026,0.407,0.031c1.835-0.003,3.67,0,5.507-0.001    c0,0.443,0,0.888,0,1.334c-9.236,0-18.468,0-27.706,0c0-0.446,0-0.89,0-1.334c1.835,0.002,3.667-0.002,5.505,0.001    c0.137-0.003,0.277,0.015,0.407-0.031c-0.004-0.516-0.004-1.027-0.002-1.542c-1.436-0.017-2.877-0.227-4.224-0.746    c-2.604-0.967-4.828-2.917-6.131-5.371c-0.842-1.57-1.308-3.337-1.352-5.12c-0.072-2.397,0.625-4.815,1.98-6.796    c1.793-2.666,4.746-4.519,7.932-4.948c0.901-0.145,1.813-0.098,2.722-0.105c0.979-0.002,1.959,0.002,2.946-0.002    c0.006-0.869-0.006-1.738,0.003-2.606c0.973-0.014,1.949,0.003,2.922-0.007c0.005-1.071,0.003-2.141,0.003-3.211    c-1.14-0.031-2.278-0.004-3.417-0.012c-11.411,0-22.82-0.002-34.23,0C0.292,1.751,0.314,1.311,0.314,0.874z M28.972,11.909    c-1.491,0.452-2.854,1.339-3.821,2.565c-1.246,1.592-1.867,3.629-1.898,5.636c3.091,0.014,6.185,0.012,9.276,0    c0.008-1.901,0-3.799,0.003-5.701c-0.012-0.998,0.026-1.999-0.018-2.995C31.318,11.416,30.114,11.549,28.972,11.909z     M41.01,12.938c-0.006,1.354,0,2.709-0.003,4.065c-1.349,0.009-2.701-0.012-4.047,0.011c0.009,1.647,0,3.297,0.003,4.945    c1.349,0.009,2.695-0.009,4.044,0.009c0.003,1.342-0.003,2.689,0.003,4.035c1.658,0.012,3.315,0.012,4.979,0    c0.003-1.346-0.005-2.69,0-4.035c1.346-0.018,2.695,0,4.044-0.009c0.002-1.648-0.007-3.298,0.002-4.945    c-1.348-0.022-2.697,0-4.046-0.011c-0.005-1.354,0.003-2.711-0.003-4.064C44.325,12.936,42.667,12.936,41.01,12.938z     M33.476,31.102c-0.015,0.525-0.011,1.049-0.001,1.573c3.654,0.017,7.313,0,10.97,0.009c0.113-0.002,0.229,0.008,0.338-0.032    c-0.005-0.515-0.003-1.028-0.003-1.542C41.01,31.093,37.243,31.108,33.476,31.102z"></path></g></g><path d="M0,89.991C0,89.991,0.973,100,10.147,100s9.87-10.009,19.878-10.009S39.64,100,49.846,100  c10.205,0,10.483-10.009,20.213-10.009S80.347,100,90.911,100c10.563,0,9.313-10.009,9.313-10.009v-5.978  c0,0-0.069,5.908-10.078,5.908c-10.008,0-10.216-9.852-20.156-9.852c-9.938,0-9.684,9.964-19.855,9.964  c-10.169,0-9.753-9.964-19.97-9.964s-10.217,9.964-20.087,9.964C0.208,90.034,0,84.187,0,84.187V89.991z"></path><path d="M0,76.956c0,0,0.973,10.009,10.147,10.009s9.87-10.009,19.878-10.009s9.615,10.009,19.821,10.009  c10.205,0,10.483-10.009,20.213-10.009s10.287,10.009,20.852,10.009c10.563,0,9.313-10.009,9.313-10.009v-5.978  c0,0-0.069,5.908-10.078,5.908c-10.008,0-10.216-9.852-20.156-9.852c-9.938,0-9.684,9.964-19.855,9.964  c-10.169,0-9.753-9.964-19.97-9.964s-10.217,9.964-20.087,9.964C0.208,76.999,0,71.151,0,71.151V76.956z"></path><g><rect x="45.954" y="66.168" transform="matrix(-1 0.0025 -0.0025 -1 99.4644 147.1111)" fill="#000000" width="7.371" height="14.899"></rect><circle fill="#000000" cx="49.611" cy="62.507" r="3.107"></circle><rect x="53.984" y="63.928" transform="matrix(0.359 0.9334 -0.9334 0.359 98.0376 -8.9189)" fill="#000000" width="3.055" height="5.967"></rect><rect x="57.845" y="60.251" transform="matrix(0.914 0.4057 -0.4057 0.914 30.7592 -18.6493)" fill="#000000" width="3.055" height="5.967"></rect><path fill="#000000" d="M56.828,65.246c0.344-0.773,1.249-1.122,2.018-0.777c0.772,0.341,1.12,1.246,0.777,2.016   c-0.345,0.772-1.247,1.121-2.02,0.777C56.833,66.92,56.483,66.016,56.828,65.246z"></path><circle fill="#000000" cx="60.531" cy="60.643" r="1.529"></circle><polygon fill="#000000" points="45.99,69.267 46.809,66.328 41.214,64.696 40.396,67.634  "></polygon><polygon fill="#000000" points="39.644,67.018 42.246,65.531 39.422,60.318 36.815,61.805  "></polygon><path fill="#000000" d="M42.178,65.441c-0.401-0.739-1.311-1.004-2.027-0.592c-0.719,0.41-0.979,1.342-0.579,2.078   c0.401,0.738,1.307,1.003,2.029,0.592C42.318,67.109,42.581,66.177,42.178,65.441z"></path><ellipse transform="matrix(-0.0192 0.9998 -0.9998 -0.0192 100.0929 24.1887)" fill="#000000" cx="38.182" cy="61.191" rx="1.529" ry="1.491"></ellipse></g><path fill="#000000" stroke="#010101" stroke-width="1.5" stroke-miterlimit="10" d="M42.246,34.016c0,0,1.01,13.087,9.933,19.151"></path></svg>