<svg xmlns="http://www.w3.org/2000/svg" xmlns:xlink="http://www.w3.org/1999/xlink" version="1.1" x="0px" y="0px" viewBox="0 0 100 100" enable-background="new 0 0 100 100" xml:space="preserve"><path d="M49.996,1C22.936,1,1,22.937,1,49.997s21.936,48.995,48.996,48.995c27.062,0,48.996-21.935,48.996-48.995S77.058,1,49.996,1  z M26.286,26.286c6.333-6.333,14.754-9.82,23.71-9.82c6.927,0,13.532,2.087,19.1,5.962L19.397,63.747  c-1.92-4.268-2.932-8.932-2.932-13.75C16.465,41.041,19.954,32.62,26.286,26.286z M73.706,73.706  c-6.334,6.334-14.753,9.821-23.71,9.821c-7.802,0-15.196-2.647-21.16-7.517l50.61-42.075c2.664,4.87,4.081,10.356,4.081,16.062  C83.527,58.953,80.04,67.372,73.706,73.706z"></path></svg>