<svg xmlns="http://www.w3.org/2000/svg" xmlns:xlink="http://www.w3.org/1999/xlink" version="1.1" x="0px" y="0px" viewBox="0 0 100 100" enable-background="new 0 0 100 100" xml:space="preserve"><path d="M97.475,84c-11.369,0-22.091-1.789-31.496-5.287c1.587-2.252,3.208-5.337,2.974-8.732  c-0.445-6.443-7.406-11.161-7.406-11.161s-5.318,5.64-4.873,12.082c0.109,1.585,0.558,3.083,1.171,4.425  c-4.899-2.505-9.298-5.456-13.072-8.777c2.814-2.141,7.911-6.78,9.214-13.094c1.825-8.849-4.496-17.63-4.496-17.63  s-10.545,5.305-12.37,14.154c-0.682,3.305-0.05,6.638,1.009,9.516c-3.47-4.524-5.914-9.488-7.113-14.741  c2.481-3.363,6.511-10.05,5.468-16.896c-1.483-9.732-12.656-16.102-12.656-16.102s-7.377,9.197-5.893,18.93  c1.024,6.719,6.003,11.937,8.988,14.523c0.564,2.62,1.411,5.195,2.535,7.718c-2.583-2.6-6.121-5.198-10.339-5.85  c-9.106-1.409-17.932,6.777-17.932,6.777s6.14,9.17,15.246,10.579c7.295,1.129,14.279-3.064,16.77-4.777  c2.802,4.157,6.361,7.993,10.616,11.459c-2.512-0.581-5.301-0.754-7.977,0.065c-7.813,2.392-11.697,12.335-11.697,12.335  s8.443,4.948,16.256,2.556c5.685-1.74,9.47-6.886,11.11-9.561c5.523,3.335,11.683,5.79,18.382,7.798  C78.63,86.928,87.91,88,97.475,88H99v-4H97.475z"></path></svg>