<svg xmlns="http://www.w3.org/2000/svg" xmlns:xlink="http://www.w3.org/1999/xlink" version="1.1" x="0px" y="0px" viewBox="0 0 100 100" enable-background="new 0 0 100 100" xml:space="preserve"><polygon points="34.76,32.356 25.419,32.356 25.419,45.329 12.446,45.329 12.446,54.671 25.419,54.671 25.419,67.644 34.76,67.644   34.76,54.671 47.734,54.671 47.734,45.33 34.76,45.33 "></polygon><rect x="52.267" y="45.33" width="35.288" height="9.341"></rect><path d="M50,1C22.982,1,1,22.982,1,50s21.982,49,49,49s49-21.982,49-49S77.018,1,50,1z M50,93.504  C26.012,93.504,6.496,73.988,6.496,50S26.012,6.496,50,6.496S93.504,26.012,93.504,50S73.988,93.504,50,93.504z"></path></svg>