<?xml version="1.0" encoding="utf-8"?><!DOCTYPE svg PUBLIC "-//W3C//DTD SVG 1.1//EN" "http://www.w3.org/Graphics/SVG/1.1/DTD/svg11.dtd"><svg version="1.1" xmlns="http://www.w3.org/2000/svg" xmlns:xlink="http://www.w3.org/1999/xlink" x="0px" y="0px" viewBox="0 0 58.156 100" enable-background="new 0 0 58.156 100" xml:space="preserve"><path fill="#010101" d="M51.905,30.35c-3.488,0-6.255-2.828-6.255-6.314V10.94h0.18C45.706,4.686,40.756,0,34.666,0
	c-6.094,0-11.043,4.686-11.167,10.94h0.265v13.096c0,3.488-3.098,6.291-6.584,6.291h-4.372c-3.487,0-6.314,3.126-6.314,6.253H2.122
	C0.786,36.579,0,37.757,0,39.093v21.372c0,1.334,0.786,2.378,2.122,2.378h4.372c0,3.753,2.827,6.255,6.314,6.255h4.372
	c3.486,0,6.584,2.936,6.584,6.424v12.964h-0.265c-0.002,0-0.005,0.227-0.005,0.304c0,6.171,5.001,11.211,11.172,11.211
	c6.168,0,11.17-5.059,11.17-11.229c0-0.076-0.006-0.285-0.006-0.285h-0.18V75.521c0-3.488,2.767-6.313,6.255-6.313
	c3.485,0,6.251-2.829,6.251-6.315V36.665C58.156,33.177,55.39,30.35,51.905,30.35z M17.509,64.097h-6.254v-1.254h6.254V64.097z
	 M17.509,59.718h-6.254v-1.25h6.254V59.718z M17.509,55.339h-6.254V54.09h6.254V55.339z M17.509,50.964h-6.254v-1.252h6.254V50.964z
	 M17.509,46.585h-6.254v-1.25h6.254V46.585z M17.509,42.208h-6.254v-1.25h6.254V42.208z M17.509,37.831h-6.254v-1.251h6.254V37.831z
	 M34.632,95.333c-4.023,0-7.286-3.096-7.286-7.475h2.429c0,3.126,2.116,5.192,4.619,5.192v0.025c2.503,0,4.976-2.169,4.976-4.846
	l2.488-0.097C41.858,92.158,38.656,95.333,34.632,95.333z M33.254,88.621c0-0.807,0.652-1.459,1.458-1.459
	c0.803,0,1.455,0.652,1.455,1.459c0,0.802-0.652,1.454-1.455,1.454C33.907,90.075,33.254,89.423,33.254,88.621z M41.898,80.354
	H27.515v-1.25h14.383V80.354z M41.898,75.353H27.515V74.1h14.383V75.353z M41.898,70.974H27.515v-1.249h14.383V70.974z
	 M41.898,65.973H27.515v-1.254h14.383V65.973z M41.898,60.967H27.515v-1.249h14.383V60.967z M41.898,56.592H27.515v-1.253h14.383
	V56.592z M41.898,51.587H27.515v-1.25h14.383V51.587z M41.898,46.585H27.515v-1.25h14.383V46.585z M41.898,41.583H27.515v-1.251
	h14.383V41.583z M41.898,37.205H27.515v-1.25h14.383V37.205z M41.898,32.202H27.515v-1.251h14.383V32.202z M41.898,27.199H27.515
	v-1.25h14.383V27.199z M41.898,22.822H27.515v-1.251h14.383V22.822z M41.898,17.819H27.515v-1.25h14.383V17.819z M33.097,10.993
	c0-0.804,0.652-1.458,1.454-1.458c0.807,0,1.459,0.652,1.459,1.458s-0.652,1.458-1.459,1.458
	C33.75,12.451,33.097,11.798,33.097,10.993z M39.489,11.564v0.002c0-3.127-2.592-5.032-5.095-5.032V6.518
	c-2.503,0-4.738,2.179-4.738,4.857l-2.369,0.016c0-4.024,3.292-7.208,7.316-7.208s7.315,3.629,7.315,7.381H39.489z M53.781,55.966
	h-4.378v-1.25h4.378V55.966z M53.781,52.84h-4.378v-1.253h4.378V52.84z M53.781,49.711h-4.378v-1.25h4.378V49.711z M53.781,46.585
	h-4.378v-1.25h4.378V46.585z M53.781,43.459h-4.378v-1.251h4.378V43.459z"></path></svg>