<svg xmlns="http://www.w3.org/2000/svg" xmlns:xlink="http://www.w3.org/1999/xlink" version="1.1" x="0px" y="0px" viewBox="0 0 99.818 100" enable-background="new 0 0 99.818 100" xml:space="preserve"><g><path fill="#000000" d="M93.152,0H53.331c-3.676,0-6.666,2.99-6.666,6.667v24.446c0,3.676,2.99,6.666,6.666,6.666h1.398   c-0.749,2.27-2.202,5.447-4.762,6.983c-0.879,0.525-1.285,1.585-0.981,2.562c0.289,0.935,1.152,1.566,2.123,1.566   c0.043,0,0.086-0.002,0.132-0.004c0.622-0.037,14.654-0.988,19.173-11.107H93.45c0.138,0,0.273-0.013,0.403-0.037   c3.348-0.352,5.965-3.19,5.965-6.629V6.668C99.818,2.995,96.829,0.004,93.152,0z M95.375,31.113c0,1.226-0.996,2.222-2.223,2.222   H68.89c-0.967,0-1.822,0.623-2.116,1.543c-1.474,4.59-5.784,7-9.531,8.252c1.929-3.477,2.512-6.992,2.55-7.224   c0.102-0.642-0.082-1.297-0.504-1.792c-0.423-0.496-1.039-0.779-1.69-0.779h-4.267c-1.226,0-2.222-0.996-2.222-2.222V6.667   c0-1.227,0.996-2.223,2.222-2.223l39.821,0.003c1.227,0,2.223,0.996,2.223,2.222V31.113z"></path><circle fill="#000000" cx="29.999" cy="47.779" r="11.111"></circle><path fill="#000000" d="M82.22,87.779c0-3.069-2.487-5.557-5.556-5.557H76.54l-2.191-7.304c-0.352-1.175-1.588-1.839-2.767-1.492   c-1.176,0.354-1.843,1.593-1.491,2.768l1.808,6.028H61.664L49.999,66.667c-1.049-1.399-2.695-2.223-4.445-2.223H19.745L11.11,50.63   V27.78c0-3.069-2.487-5.556-5.555-5.556C2.486,22.224,0,24.71,0,27.78v24.444c0,1.041,0.293,2.062,0.844,2.943l9.155,21.639v10.974   V100h37.777V82.223l6.666,8.888c1.05,1.4,2.695,2.224,4.445,2.224h16.346l1.525,5.081C77.047,99.379,77.93,100,78.887,100   c0.211,0,0.426-0.03,0.638-0.094c1.176-0.353,1.843-1.592,1.491-2.767l-1.4-4.67C81.175,91.485,82.22,89.76,82.22,87.779z"></path></g></svg>