<svg xmlns="http://www.w3.org/2000/svg" xmlns:xlink="http://www.w3.org/1999/xlink" version="1.1" x="0px" y="0px" viewBox="0 0 100 89.598" enable-background="new 0 0 100 89.598" xml:space="preserve"><g><g><path fill="#000000" d="M77.083,39.584v-4.167H75c-2.333,0-5.124-1.283-8.081-2.247c-4.896-1.596-10.39-3.387-14.836-0.905    c-4.447-2.468-9.916-0.638-14.797,0.999c-2.972,0.995-5.778,2.153-8.119,2.153h-2.083v4.167H25v27.083l20.833-4.624v0.69    c0,1.15,0.932,1.851,2.083,1.851h8.472c1.151,0,2.083-0.7,2.083-1.851v-0.656l20.695,4.59V39.584H77.083z M31.25,39.209    c2.409-0.336,4.916-1.177,7.359-1.995c4.381-1.465,8.518-2.816,11.391-1.287v21.146c-4.028-1.133-8.64,0.282-12.826,1.579    c-2.091,0.649-4.102,1.274-5.924,1.577V42.527V39.209z M54.167,35.924c2.896-1.554,7.058-0.228,11.461,1.208    c2.42,0.789,4.904,1.598,7.289,1.926v3.47v17.547c-1.823-0.303-3.833-0.928-5.925-1.578c-4.187-1.296-8.795-2.694-12.825-1.562    V35.924z"></path></g></g><path fill="#000000" d="M93.562,55.388c-2.919-6.422-7.129-10.932-12.312-13.319v4.712c3.487,2.121,6.351,5.559,8.521,10.333  c0.475,1.047,1.701,1.516,2.759,1.033C93.576,57.672,94.039,56.437,93.562,55.388z"></path><path fill="#000000" d="M49.289,29.132C44.71,18.219,37.736,10.058,29.91,7.208c-6.527-2.383-13.081-0.923-18.944,4.209  c-0.867,0.758-0.953,2.075-0.196,2.938c0.759,0.87,2.075,0.952,2.939,0.198c4.719-4.13,9.688-5.285,14.774-3.432  c6.293,2.292,12.123,8.993,16.231,17.972c0.736-0.091,1.473-0.171,2.206-0.171C47.742,28.923,48.53,28.999,49.289,29.132z"></path><path fill="#000000" d="M21.786,45.311c-7.056,3.447-11.57,10.512-13.42,20.996c-0.201,1.132,0.556,2.213,1.689,2.411  c0.122,0.023,0.244,0.032,0.365,0.032c0.993,0,1.872-0.709,2.048-1.72c1.538-8.716,5.066-14.6,10.449-17.569v-4.637  C22.538,44.984,22.157,45.129,21.786,45.311z"></path><path fill="#000000" d="M58.466,29.011c4.284-7.844,11.16-11.858,20.538-11.858c1.151,0,2.083-0.933,2.083-2.083  c0-1.153-0.932-2.083-2.083-2.083c-11.788,0-20.549,5.655-25.383,16.344c1.063-0.274,2.189-0.429,3.386-0.429  C57.491,28.901,57.979,28.971,58.466,29.011z"></path><circle fill="#000000" cx="10.417" cy="75.016" r="4.167"></circle><path fill="#000000" d="M16.667,87.096c0-3.45-2.796-6.25-6.25-6.25c-3.453,0-6.25,2.8-6.25,6.25v2.502h12.5V87.096z"></path><circle fill="#000000" cx="93.75" cy="64.584" r="4.167"></circle><path fill="#000000" d="M100,76.666c0-3.45-2.797-6.25-6.25-6.25s-6.25,2.8-6.25,6.25v2.5H100V76.666z"></path><circle fill="#000000" cx="89.583" cy="4.167" r="4.167"></circle><path fill="#000000" d="M95.833,16.249c0-3.45-2.797-6.25-6.25-6.25s-6.25,2.8-6.25,6.25v2.5h12.5V16.249z"></path><circle fill="#000000" cx="6.25" cy="20.836" r="4.167"></circle><path fill="#000000" d="M12.5,32.917c0-3.45-2.797-6.25-6.25-6.25S0,29.467,0,32.917v2.5h12.5V32.917z"></path></svg>