<svg xmlns="http://www.w3.org/2000/svg" xmlns:xlink="http://www.w3.org/1999/xlink" version="1.1" x="0px" y="0px" viewBox="0 0 87.63 100" enable-background="new 0 0 87.63 100" xml:space="preserve"><path fill="#000000" d="M29.167,26.707c-0.46,0-0.912-0.153-1.282-0.441c-0.506-0.395-0.802-1.001-0.802-1.642V3.79  c0-0.897,0.574-1.692,1.424-1.975C28.729,1.739,34.011,0,39.127,0c3.294,0,5.875,0.729,7.67,2.163  c0.495,0.395,0.783,0.995,0.783,1.627v20.833c0,0.751-0.402,1.442-1.056,1.813c-0.655,0.37-1.455,0.36-2.1-0.026  c-0.749-0.45-2.274-0.985-5.298-0.985c-4.529,0-9.408,1.207-9.457,1.219C29.504,26.687,29.335,26.707,29.167,26.707z M31.25,5.351  v16.708c3.167-0.582,8.718-1.144,12.164-0.405V4.932c-1.042-0.502-2.5-0.765-4.287-0.765C36.151,4.167,33.014,4.877,31.25,5.351z"></path><path fill="#000000" d="M45.498,26.707c-0.354,0-0.708-0.09-1.025-0.271c-0.655-0.371-1.058-1.062-1.058-1.813V3.79  c0-0.632,0.287-1.23,0.781-1.627C45.992,0.729,48.572,0,51.866,0c5.116,0,10.398,1.739,10.62,1.815  c0.85,0.283,1.425,1.078,1.425,1.975v20.833c0,0.641-0.296,1.247-0.803,1.642c-0.506,0.396-1.164,0.533-1.785,0.38  c-0.049-0.012-4.945-1.221-9.457-1.221c-3.021,0-4.547,0.535-5.296,0.985C46.24,26.607,45.87,26.707,45.498,26.707z M51.866,21.259  c2.895,0,5.849,0.427,7.878,0.799V5.351c-1.769-0.474-4.914-1.184-7.878-1.184c-1.787,0-3.244,0.263-4.285,0.765v16.722  C48.817,21.389,50.242,21.259,51.866,21.259z"></path><circle fill="#000000" cx="10.417" cy="77.083" r="6.25"></circle><path fill="#000000" d="M28.937,54.179c-6.181,0.698-9.926-1.53-10.803-6.409c-0.71-3.955,0.732-8.262,2.773-10.646  c-0.185,1.007,0.354,2.021,1.351,2.352c0.22,0.073,0.441,0.108,0.659,0.108c0.873,0,1.685-0.551,1.976-1.424l2.083-6.25  c0.213-0.635,0.105-1.334-0.285-1.878c-0.393-0.543-1.021-0.865-1.69-0.865h-6.25c-1.152,0-2.083,0.932-2.083,2.083  s0.932,2.083,2.083,2.083h0.039c-3.613,3.233-5.782,9.47-4.757,15.173c1.271,7.073,7.011,10.729,15.365,9.814  c7.564-0.839,12.447,1.594,13.053,6.517c0.128,1.056,1.027,1.829,2.065,1.829c0.083,0,0.169-0.005,0.256-0.017  c1.142-0.141,1.953-1.178,1.813-2.322C45.695,57.072,38.78,53.079,28.937,54.179z"></path><path fill="#000000" d="M53.556,33.944l-4.167-4.167c-0.444-0.447-1.076-0.663-1.7-0.598c-0.63,0.069-1.191,0.419-1.53,0.954  l-3.149,4.954c-0.619,0.971-0.332,2.258,0.641,2.875c0.346,0.22,0.732,0.325,1.115,0.325c0.689,0,1.363-0.342,1.76-0.966  l0.329-0.517c0.46,2.293,0.446,5.235-1.086,7.216c-2.519,3.247-8.329,2.804-12.76,1.859c-10.702-2.287-18.457-1.141-23.049,3.394  c-3.668,3.621-4.973,9.202-3.668,15.72c0.197,0.99,1.068,1.674,2.041,1.674c0.134,0,0.273-0.013,0.411-0.041  c1.127-0.226,1.859-1.322,1.634-2.452c-0.59-2.949-1.048-8.423,2.508-11.936c3.489-3.44,10.146-4.222,19.252-2.285  c8.152,1.742,13.84,0.603,16.924-3.383c2.119-2.734,2.485-6.268,2.1-9.314c0.78,0.391,1.744,0.285,2.396-0.366  C54.37,36.076,54.37,34.757,53.556,33.944z"></path><path fill="#000000" d="M73.36,35.335c0.69-0.155,1.294-0.623,1.531-1.343c0.365-1.093-0.225-2.273-1.315-2.635l-6.25-2.083  c-0.746-0.252-1.575-0.055-2.132,0.502c-0.558,0.558-0.753,1.384-0.502,2.132l2.083,6.25c0.29,0.873,1.102,1.424,1.975,1.424  c0.218,0,0.439-0.035,0.659-0.108c0.519-0.173,0.914-0.537,1.158-0.983c6.985,8.999,6.093,17.592,4.474,25.681  c-0.226,1.13,0.505,2.227,1.633,2.452c0.139,0.028,0.275,0.041,0.412,0.041c0.972,0,1.843-0.684,2.04-1.674  C80.903,56.115,81.938,45.898,73.36,35.335z"></path><path fill="#000000" d="M20.833,95.833c-0.002-5.751-4.661-10.414-10.417-10.414C4.661,85.419,0.002,90.082,0,95.833l0,0v0.003V100  h20.573h0.26V95.833L20.833,95.833z"></path><circle fill="#000000" cx="43.75" cy="77.083" r="6.25"></circle><path fill="#000000" d="M54.167,95.833c-0.003-5.751-4.66-10.414-10.417-10.414c-5.756,0-10.415,4.663-10.417,10.414l0,0v0.003V100  h20.573h0.261V95.833L54.167,95.833z"></path><circle fill="#000000" cx="77.213" cy="77.083" r="6.25"></circle><path fill="#000000" d="M87.63,95.833c-0.003-5.751-4.661-10.414-10.417-10.414s-10.414,4.663-10.417,10.414l0,0v0.003V100H87.37  h0.261V95.833L87.63,95.833z"></path></svg>