<svg xmlns="http://www.w3.org/2000/svg" xmlns:xlink="http://www.w3.org/1999/xlink" version="1.1" x="0px" y="0px" viewBox="0 0 95.833 100" enable-background="new 0 0 95.833 100" xml:space="preserve"><circle fill="#000000" cx="14.583" cy="62.503" r="6.25"></circle><path fill="#000000" d="M25,81.254c0-5.752-4.666-10.421-10.421-10.421c-5.75,0-10.413,4.669-10.413,10.421l10.543,2.336L25,81.254z  "></path><path fill="#000000" d="M14.583,100c-0.439,0-0.879-0.139-1.249-0.418c-1.482-1.109-4.675-1.749-8.756-1.749  c-1.353,0-2.287,0.073-2.326,0.078c-0.581,0.042-1.153-0.153-1.58-0.545C0.244,96.97,0,96.415,0,95.833V81.166  c0-1.115,0.879-2.032,1.994-2.081c0,0,0.442-0.021,1.176-0.021c2.966,0,8.098,0.292,11.539,2.08c3.413-1.788,8.425-2.08,11.32-2.08  c0.718,0,1.147,0.021,1.147,0.021c1.112,0.052,1.991,0.969,1.991,2.081v14.667c0,0.582-0.244,1.137-0.671,1.533  c-0.427,0.392-0.985,0.587-1.583,0.545c-0.037-0.005-0.971-0.078-2.323-0.078c-4.081,0-7.274,0.64-8.756,1.749  C15.462,99.861,15.022,100,14.583,100z M4.578,93.666c3.084,0,7.127,0.336,10.005,1.812c3.011-1.543,7.39-1.844,10.417-1.809V83.246  c-3.361,0.096-7.238,0.659-9.042,2.011c-0.741,0.556-1.758,0.556-2.499,0c-1.814-1.359-5.821-1.921-9.293-2.011v10.423  C4.299,93.666,4.438,93.666,4.578,93.666z"></path><circle fill="#000000" cx="14.583" cy="6.252" r="6.25"></circle><path fill="#000000" d="M25,25.004c0-5.751-4.666-10.42-10.421-10.42c-5.75,0-10.413,4.669-10.413,10.42l10.543,2.336L25,25.004z"></path><path fill="#000000" d="M14.583,43.75c-0.439,0-0.879-0.138-1.249-0.417c-1.482-1.111-4.675-1.75-8.756-1.75  c-1.353,0-2.287,0.073-2.326,0.078c-0.581,0.042-1.153-0.153-1.58-0.545C0.244,40.721,0,40.165,0,39.583V24.917  c0-1.115,0.879-2.032,1.994-2.081c0,0,0.442-0.021,1.176-0.021c2.966,0,8.098,0.291,11.539,2.079  c3.413-1.788,8.425-2.079,11.32-2.079c0.718,0,1.147,0.021,1.147,0.021c1.112,0.051,1.991,0.968,1.991,2.081v14.667  c0,0.582-0.244,1.137-0.671,1.532c-0.427,0.393-0.985,0.588-1.583,0.545c-0.037-0.004-0.971-0.078-2.323-0.078  c-4.081,0-7.274,0.639-8.756,1.75C15.462,43.612,15.022,43.75,14.583,43.75z M4.578,37.417c3.084,0,7.127,0.336,10.005,1.811  c3.011-1.542,7.39-1.839,10.417-1.809V26.996c-3.361,0.095-7.238,0.659-9.042,2.01c-0.741,0.558-1.758,0.558-2.499,0  c-1.814-1.359-5.821-1.92-9.293-2.01v10.422C4.299,37.417,4.438,37.417,4.578,37.417z"></path><path fill="#000000" d="M94.959,81.638L80.376,71.222c-0.635-0.458-1.468-0.513-2.165-0.158c-0.693,0.358-1.128,1.072-1.128,1.854  v4.166h-31.25c-1.151,0-2.083,0.933-2.083,2.084V87.5c0,1.151,0.932,2.083,2.083,2.083h31.25v4.167c0,0.781,0.435,1.495,1.128,1.853  c0.302,0.155,0.63,0.23,0.955,0.23c0.427,0,0.851-0.13,1.21-0.388l14.583-10.417c0.548-0.391,0.874-1.022,0.874-1.695  S95.507,82.028,94.959,81.638z"></path><path fill="#000000" d="M94.959,29.555L80.376,19.139c-0.635-0.456-1.468-0.513-2.165-0.159c-0.693,0.358-1.128,1.072-1.128,1.854  V25h-31.25c-1.151,0-2.083,0.932-2.083,2.083v8.333c0,1.152,0.932,2.083,2.083,2.083h31.25v4.167c0,0.781,0.435,1.496,1.128,1.854  c0.302,0.155,0.63,0.23,0.955,0.23c0.427,0,0.851-0.13,1.21-0.389l14.583-10.417c0.548-0.391,0.874-1.021,0.874-1.695  S95.507,29.946,94.959,29.555z"></path></svg>