<svg xmlns="http://www.w3.org/2000/svg" xmlns:xlink="http://www.w3.org/1999/xlink" version="1.1" x="0px" y="0px" viewBox="5 5 90 90" enable-background="new 5 5 90 90" xml:space="preserve"><g><path fill="#000000" d="M7.942,60.363c0.846,0,1.533-0.687,1.533-1.534c0-0.3-0.09-0.582-0.24-0.818l8.451-8.803   c0.225,0.13,0.487,0.207,0.767,0.207c0.447,0,0.848-0.193,1.128-0.498l8.048,4.411c-0.034,0.126-0.053,0.257-0.053,0.393   c0,0.848,0.687,1.534,1.533,1.534c0.847,0,1.533-0.687,1.533-1.534c0-0.326-0.104-0.628-0.278-0.876l8.403-9.588   c0.211,0.109,0.451,0.174,0.706,0.174c0.847,0,1.533-0.687,1.533-1.534c0-0.084-0.009-0.166-0.022-0.247l7.65-3.26   c0.279,0.373,0.723,0.614,1.225,0.614c0.618,0,1.149-0.366,1.391-0.893l7.745,1.493c0.008,0.838,0.69,1.516,1.532,1.516   c0.845,0,1.531-0.687,1.531-1.533c0-0.357-0.122-0.686-0.327-0.946l8.954-17.514c0.113,0.026,0.23,0.042,0.351,0.042   c0.361,0,0.691-0.125,0.955-0.333l8.012,6.207c-0.086,0.191-0.134,0.4-0.134,0.622c0,0.848,0.687,1.534,1.533,1.534   s1.532-0.686,1.532-1.534c0-0.378-0.138-0.724-0.366-0.992l8.915-12.333c0.178,0.072,0.373,0.113,0.575,0.113   c0.848,0,1.534-0.686,1.534-1.533s-0.687-1.533-1.534-1.533s-1.532,0.687-1.532,1.533c0,0.379,0.137,0.725,0.365,0.992   l-8.913,12.333c-0.179-0.072-0.374-0.113-0.576-0.113c-0.361,0-0.691,0.125-0.953,0.333l-8.013-6.207   c0.086-0.191,0.134-0.401,0.134-0.623c0-0.847-0.686-1.533-1.534-1.533c-0.845,0-1.531,0.686-1.531,1.533   c0,0.463,0.205,0.877,0.529,1.158l-8.891,17.391c-0.188-0.083-0.397-0.13-0.616-0.13c-0.597,0-1.112,0.341-1.365,0.838   l-7.773-1.497c-0.04-0.812-0.709-1.456-1.529-1.456c-0.846,0-1.533,0.686-1.533,1.533c0,0.084,0.009,0.166,0.022,0.247l-7.65,3.259   c-0.279-0.372-0.723-0.614-1.225-0.614c-0.846,0-1.533,0.687-1.533,1.533c0,0.327,0.104,0.63,0.278,0.878l-8.404,9.586   c-0.211-0.11-0.451-0.172-0.706-0.172c-0.447,0-0.848,0.192-1.129,0.498l-8.048-4.411c0.033-0.126,0.053-0.258,0.053-0.395   c0-0.846-0.687-1.533-1.533-1.533c-0.847,0-1.533,0.687-1.533,1.533c0,0.302,0.088,0.583,0.239,0.82l-8.45,8.803   c-0.226-0.131-0.488-0.207-0.767-0.207c-0.848,0-1.533,0.687-1.533,1.531C6.41,59.677,7.095,60.363,7.942,60.363z"></path><path fill="#000000" d="M92.059,66.326c-0.886,0-1.605,0.721-1.605,1.605c0,0.125,0.016,0.246,0.044,0.364l-7.854,3.864   c-0.296-0.359-0.741-0.589-1.241-0.589c-0.886,0-1.606,0.72-1.606,1.604c0,0.068,0.007,0.133,0.015,0.197l-7.444,2.733   c-0.289-0.425-0.777-0.706-1.33-0.706c-0.683,0-1.266,0.432-1.497,1.034l-7.458-0.897c-0.179-0.692-0.807-1.206-1.554-1.206   c-0.798,0-1.458,0.583-1.585,1.347l-7.563,1.586c-0.214-0.635-0.814-1.095-1.521-1.095c-0.538,0-1.014,0.268-1.305,0.675   l-7.741-4.142c0.167-0.255,0.267-0.559,0.267-0.885c0-0.886-0.721-1.606-1.606-1.606c-0.846,0-1.54,0.658-1.6,1.489l-7.161-1.461   c-0.024-0.866-0.733-1.561-1.604-1.561c-0.885,0-1.606,0.719-1.606,1.606c0,0.089,0.009,0.174,0.023,0.261l-7.771,3.229   c-0.292-0.405-0.766-0.671-1.302-0.671c-0.886,0-1.606,0.721-1.606,1.606c0,0.355,0.118,0.683,0.314,0.949L8.68,85.583   C8.458,85.467,8.208,85.4,7.942,85.4c-0.886,0-1.606,0.721-1.606,1.606c0,0.885,0.72,1.605,1.606,1.605   c0.885,0,1.605-0.721,1.605-1.605c0-0.355-0.118-0.683-0.313-0.95l8.481-9.921c0.221,0.114,0.472,0.181,0.738,0.181   c0.885,0,1.605-0.722,1.605-1.606c0-0.091-0.009-0.177-0.023-0.264l7.772-3.226c0.291,0.403,0.766,0.668,1.302,0.668   c0.646,0,1.203-0.384,1.458-0.936l7.443,1.521c0.25,0.559,0.812,0.949,1.463,0.949c0.279,0,0.542-0.072,0.771-0.196l8.031,4.296   c-0.013,0.082-0.022,0.167-0.022,0.253c0,0.885,0.721,1.606,1.606,1.606c0.811,0,1.48-0.604,1.589-1.385l7.545-1.585   c0.202,0.654,0.813,1.131,1.534,1.131c0.769,0,1.412-0.545,1.569-1.269l7.342,0.885c0.077,0.813,0.766,1.454,1.598,1.454   c0.887,0,1.606-0.721,1.606-1.606c0-0.074-0.006-0.146-0.016-0.22l7.435-2.729c0.286,0.438,0.78,0.725,1.341,0.725   c0.885,0,1.605-0.722,1.605-1.606c0-0.124-0.016-0.245-0.044-0.361l7.854-3.865c0.295,0.359,0.74,0.589,1.24,0.589   c0.886,0,1.606-0.72,1.606-1.606C93.665,67.047,92.944,66.326,92.059,66.326z"></path><path fill="#000000" d="M7.942,72.403c0.855,0,1.551-0.697,1.551-1.552c0-0.085-0.009-0.169-0.022-0.251l7.739-3.278   c0.283,0.381,0.734,0.628,1.244,0.628c0.82,0,1.492-0.641,1.545-1.447l7.688-1.327c0.239,0.55,0.787,0.936,1.423,0.936   c0.855,0,1.551-0.695,1.551-1.551c0-0.272-0.071-0.529-0.196-0.752l8.148-7.496c0.246,0.166,0.543,0.262,0.861,0.262   c0.855,0,1.551-0.696,1.551-1.552c0-0.004,0-0.009,0-0.014l7.551-1.903c0.239,0.552,0.787,0.938,1.424,0.938   c0.841,0,1.524-0.67,1.549-1.503l7.549-0.978c0.235,0.557,0.787,0.949,1.43,0.949c0.855,0,1.55-0.696,1.55-1.552   c0-0.099-0.01-0.197-0.028-0.291l7.695-3.777c0.279,0.419,0.755,0.695,1.292,0.695c0.855,0,1.553-0.695,1.553-1.55   c0-0.371-0.13-0.71-0.348-0.976l8.423-9.339c0.218,0.119,0.471,0.188,0.738,0.188c0.855,0,1.55-0.697,1.55-1.552   c0-0.072-0.006-0.141-0.014-0.21l7.852-3.077c0.281,0.4,0.744,0.663,1.269,0.663c0.855,0,1.553-0.697,1.553-1.552   c0-0.855-0.697-1.551-1.553-1.551c-0.854,0-1.552,0.696-1.552,1.551c0,0.071,0.008,0.142,0.017,0.21l-7.853,3.078   c-0.281-0.4-0.745-0.663-1.269-0.663c-0.855,0-1.552,0.696-1.552,1.551c0,0.324,0.101,0.625,0.271,0.874l-8.462,9.385   c-0.19-0.083-0.401-0.131-0.623-0.131c-0.854,0-1.549,0.696-1.549,1.552c0,0.055,0.002,0.11,0.008,0.165l-7.749,3.804   c-0.285-0.362-0.725-0.596-1.219-0.596c-0.815,0-1.484,0.632-1.547,1.433l-7.585,0.98c-0.249-0.52-0.78-0.881-1.396-0.881   c-0.818,0-1.49,0.639-1.546,1.443l-7.607,1.918c-0.261-0.494-0.778-0.829-1.373-0.829c-0.854,0-1.55,0.694-1.55,1.549   c0,0.273,0.071,0.53,0.195,0.754l-8.147,7.496c-0.247-0.166-0.543-0.264-0.862-0.264c-0.82,0-1.492,0.641-1.545,1.448l-7.688,1.327   c-0.239-0.55-0.787-0.936-1.423-0.936c-0.855,0-1.552,0.694-1.552,1.55c0,0.086,0.009,0.17,0.023,0.253l-7.74,3.276   c-0.282-0.38-0.733-0.626-1.242-0.626c-0.855,0-1.552,0.694-1.552,1.55C6.391,71.706,7.087,72.403,7.942,72.403z"></path></g></svg>