<svg xmlns="http://www.w3.org/2000/svg" xmlns:xlink="http://www.w3.org/1999/xlink" version="1.1" x="0px" y="0px" viewBox="0 0 100 100" enable-background="new 0 0 100 100" xml:space="preserve"><path d="M84.646,77.156c-0.332-1.157-1.392-1.955-2.596-1.955H28.123c-1.58-3.7-5.252-6.301-9.523-6.301  c-5.707,0-10.35,4.644-10.35,10.351s4.643,10.351,10.35,10.351c4.577,0,8.462-2.989,9.825-7.114  c2.098,2.416,3.542,5.914,4.153,10.195c0.189,1.331,1.329,2.318,2.672,2.318h37.801c1.3,0,2.417-0.933,2.655-2.211  c0.017-0.087,1.704-8.805,7.775-12.6C84.503,79.553,84.979,78.313,84.646,77.156z M18.599,84.201c-2.729,0-4.95-2.222-4.95-4.95  c0-2.729,2.22-4.95,4.95-4.95s4.95,2.221,4.95,4.95C23.549,81.979,21.329,84.201,18.599,84.201z"></path><path d="M51.549,31.085C51.548,31.085,51.548,31.085,51.549,31.085c-3.456,0-6.744-1.82-8.379-4.638  c-1.367-2.356-1.364-5.085,0.009-7.487c2.771-4.849,0.751-10.221,0.73-10.275c-0.393-1.019-0.136-2.182,0.655-2.935  c0.792-0.753,1.958-0.961,2.955-0.518c1.114,0.495,10.958,5.042,13.493,12.109c0.932,2.597,0.768,5.282-0.475,7.766  C58.639,28.906,55.361,31.085,51.549,31.085z M50.041,12.86c0.046,2.593-0.423,5.715-2.174,8.778  c-0.421,0.738-0.429,1.404-0.027,2.099c0.655,1.128,2.214,1.947,3.708,1.948c0,0,0,0,0.001,0c1.742,0,3.18-1.035,4.159-2.993  c0.59-1.181,0.661-2.302,0.222-3.527C55.083,16.804,52.518,14.552,50.041,12.86z"></path><path d="M51.823,38.3c-1.492,0-2.701-1.209-2.701-2.7v-6.3c0-1.491,1.209-2.7,2.701-2.7c1.491,0,2.699,1.209,2.699,2.7v6.3  C54.522,37.091,53.314,38.3,51.823,38.3z"></path><path d="M38.403,77.9c-1.491,0-2.7-1.208-2.7-2.699c0-0.764,0.062-2.103,0.146-3.956c0.32-7.007,0.988-21.585-0.846-27.666  c-1.142-3.786-0.781-6.631,1.072-8.458c2.737-2.698,7.169-1.47,8.031-1.195c0.797,0.253,1.487,0.501,2.112,0.726  c3.444,1.238,4.064,1.462,14.372-4.946c3.356-2.086,7.613-4.208,10.775-2.059c3.796,2.58,2.634,8.996,1.289,16.425  c-0.221,1.219-0.444,2.451-0.645,3.666c-1.564,9.509-0.791,26.267-0.782,26.435c0.07,1.489-1.079,2.754-2.569,2.825  c-1.498,0.06-2.754-1.079-2.825-2.569c-0.033-0.71-0.808-17.501,0.849-27.567c0.205-1.243,0.433-2.504,0.658-3.751  c0.647-3.572,1.717-9.479,0.978-10.949c-0.387,0.001-1.74,0.182-4.876,2.132c-11.522,7.164-13.595,7.403-19.05,5.441  c-0.569-0.205-1.197-0.431-1.921-0.661c-1.143-0.363-2.369-0.313-2.606-0.104c-0.001,0.003-0.409,0.672,0.309,3.051  c2.101,6.963,1.43,21.604,1.07,29.471c-0.079,1.715-0.141,3.069-0.141,3.71C41.103,76.692,39.894,77.9,38.403,77.9z"></path></svg>