<svg xmlns="http://www.w3.org/2000/svg" xmlns:xlink="http://www.w3.org/1999/xlink" version="1.1" x="0px" y="0px" viewBox="0 0 100 100" enable-background="new 0 0 100 100" xml:space="preserve"><path d="M94.255,6.115c-0.957-1.006-2.521-1.121-3.616-0.267c-2.099,1.638-5.912,2.504-11.026,2.504  c-4.268,0-7.882-0.625-7.918-0.631C70.446,7.5,69.211,8.18,68.729,9.354c-4.24,10.321-14.001,12.312-14.403,12.39  c-1.277,0.235-2.206,1.346-2.212,2.644c0,0.113-0.068,8.848-2.114,16.209c-2.041-7.356-2.114-16.097-2.115-16.21  c-0.006-1.297-0.935-2.409-2.212-2.643c-0.101-0.019-10.124-1.973-14.403-12.39c-0.482-1.173-1.719-1.854-2.965-1.633  c-0.036,0.006-3.65,0.631-7.918,0.631c-5.114,0-8.927-0.866-11.026-2.504C8.267,4.994,6.703,5.109,5.745,6.115  C4.787,7.12,4.749,8.688,5.655,9.74c3.764,4.366,4.096,14.671,3.907,18.273c-0.064,1.219,0.697,2.331,1.857,2.71  c10.606,3.469,13.311,13.057,13.417,13.452c0.319,1.221,1.415,2.062,2.704,2.016c0.024,0,0.433-0.014,1.13-0.014  c3.18,0,14.014,0.282,19.916,3.911c0.122,0.075,0.25,0.137,0.379,0.191c0.033,0.013,0.066,0.023,0.1,0.035  c0.117,0.044,0.235,0.079,0.355,0.105c0.041,0.009,0.081,0.018,0.122,0.025c0.152,0.026,0.305,0.044,0.458,0.044  c0.007,0,0.01-0.001,0.019,0c0.012,0,0.023-0.003,0.035-0.003c0.137-0.003,0.274-0.018,0.41-0.042  c0.068-0.011,0.134-0.025,0.201-0.041c0.069-0.018,0.138-0.041,0.207-0.064c0.235-0.079,0.461-0.178,0.663-0.315  c5.927-3.563,16.638-3.845,19.797-3.845c0.697,0,1.106,0.013,1.13,0.014c1.248,0.053,2.374-0.795,2.701-2.005  c0.11-0.407,2.814-9.995,13.42-13.463c1.161-0.38,1.923-1.492,1.856-2.712c-0.194-3.597,0.13-13.891,3.907-18.271  C95.251,8.688,95.213,7.12,94.255,6.115z M15.026,26.301c0.097-5.638-0.733-9.985-1.766-13.174c2.098,0.416,4.477,0.625,7.127,0.625  c2.704,0,5.139-0.221,6.769-0.417c4.312,8.562,11.729,11.943,15.388,13.14c0.102,2.333,0.383,6.354,1.157,10.645L23.792,18.627  c-1.093-1.015-2.801-0.954-3.815,0.14c-1.015,1.092-0.953,2.801,0.14,3.816l20.709,19.238c-4.463-0.82-8.803-1.014-11.47-1.04  C27.915,37.239,23.99,29.99,15.026,26.301z M84.974,26.301c-8.964,3.689-12.889,10.938-14.33,14.48  c-2.667,0.026-7.007,0.22-11.47,1.04l20.709-19.238c1.093-1.015,1.155-2.724,0.14-3.816c-1.015-1.093-2.724-1.155-3.815-0.14  L56.3,37.121c0.773-4.292,1.055-8.312,1.157-10.645c3.66-1.197,11.076-4.578,15.388-13.14c1.63,0.196,4.065,0.417,6.769,0.417  c2.65,0,5.029-0.209,7.127-0.625C85.708,16.316,84.877,20.663,84.974,26.301z"></path><circle cx="60.8" cy="59.488" r="9"></circle><circle cx="50" cy="77.488" r="9"></circle><circle cx="39.2" cy="59.488" r="9"></circle></svg>