<svg xmlns="http://www.w3.org/2000/svg" xmlns:xlink="http://www.w3.org/1999/xlink" version="1.1" x="0px" y="0px" viewBox="0 0 100 100" enable-background="new 0 0 100 100" xml:space="preserve"><circle cx="45.299" cy="24.795" r="1.8"></circle><circle cx="52.501" cy="24.795" r="1.8"></circle><path d="M48.45,95.012c-15.14,0-27.457-10.5-27.457-23.405c0-6.567,3.136-12.678,8.688-17.091c-0.978-2.088-1.487-4.328-1.487-6.593  c0-5.639,3.164-10.899,8.288-14.125c-1.29-2.122-1.996-4.58-1.996-7.095c0-7.505,6.062-13.61,13.513-13.61  s13.513,6.105,13.513,13.61c0,2.515-0.706,4.973-1.996,7.095c5.124,3.227,8.288,8.487,8.288,14.125c0,2.082-0.427,4.147-1.248,6.084  c5.897,4.417,9.35,10.842,9.35,17.6C75.907,84.512,63.59,95.012,48.45,95.012z M48,18.494c-4.473,0-8.111,3.682-8.111,8.208  c0,2.3,0.925,4.435,2.606,6.011c0.67,0.628,0.974,1.555,0.807,2.459c-0.167,0.903-0.781,1.66-1.631,2.009  c-4.98,2.042-8.074,6.158-8.074,10.741c0,2.062,0.626,4.031,1.86,5.851c0.406,0.599,0.555,1.337,0.413,2.047  s-0.564,1.333-1.17,1.729c-5.277,3.45-8.304,8.574-8.304,14.057c0,9.927,9.894,18.004,22.055,18.004s22.055-8.077,22.055-18.004  c0-5.711-3.229-10.963-8.86-14.411c-0.616-0.377-1.055-0.985-1.22-1.688c-0.164-0.703-0.041-1.443,0.344-2.054  c1.084-1.722,1.633-3.583,1.633-5.531c0-4.583-3.094-8.699-8.074-10.741c-0.85-0.349-1.464-1.106-1.631-2.009  c-0.167-0.904,0.137-1.831,0.807-2.459c1.681-1.577,2.606-3.711,2.606-6.011C56.111,22.176,52.473,18.494,48,18.494z"></path><path d="M63.175,15.125c-0.37-0.923-1.417-1.372-2.34-1.003c-1.08,0.432-2.397,0.796-3.799,1.103  c0.235-2.191,0.906-5.275,1.691-7.895c0.164-0.545,0.06-1.135-0.28-1.591c-0.34-0.457-0.875-0.726-1.445-0.726H38.998  c-0.579,0-1.122,0.278-1.46,0.748c-0.338,0.469-0.431,1.072-0.248,1.622c0.825,2.479,1.869,6.775,1.743,9.363  c-3.696-0.338-5.012-1.294-5.115-1.374c-0.705-0.653-1.809-0.635-2.494,0.05c-0.703,0.703-0.703,1.843,0,2.546  c0.47,0.469,2.933,2.502,10.302,2.502c1.18,0,2.493-0.055,3.938-0.174h9.771c0.006,0,0.012,0,0.018,0  c0.867,0,1.591-0.613,1.762-1.43c1.8-0.371,3.537-0.831,4.958-1.399C63.095,17.095,63.544,16.047,63.175,15.125z"></path><path d="M53.646,29.325l-4.451-1.766c-0.239-0.095-0.505-0.083-0.734,0.032c-0.884,0.442-1.341,1.015-1.36,1.703  c-0.027,0.995,0.904,1.578,1.091,1.685c0.136,0.078,0.29,0.119,0.446,0.119h4.764c0.006-0.001,0.011,0,0.018,0  c0.497,0,0.9-0.403,0.9-0.9C54.319,29.777,54.033,29.425,53.646,29.325z"></path><path d="M17.395,57.424c-0.23,0-0.465-0.03-0.698-0.092c-1.441-0.385-2.298-1.864-1.914-3.305c1.448-5.429,4.026-9.242,7.663-11.334  c4.443-2.555,8.69-1.506,9.16-1.378c1.439,0.393,2.287,1.877,1.895,3.317c-0.39,1.43-1.859,2.275-3.292,1.901  c-0.775-0.192-7.437-1.503-10.208,8.886C19.68,56.626,18.588,57.424,17.395,57.424z"></path><path d="M78.605,57.424c-1.194,0-2.286-0.798-2.608-2.005c-1.063-3.989-2.792-6.695-5.137-8.044  c-2.511-1.444-5.022-0.856-5.045-0.849c-1.439,0.388-2.924-0.456-3.316-1.895c-0.392-1.439,0.456-2.924,1.895-3.317  c0.47-0.128,4.716-1.178,9.16,1.378c3.637,2.092,6.215,5.905,7.663,11.334c0.384,1.441-0.472,2.92-1.914,3.305  C79.07,57.395,78.836,57.424,78.605,57.424z"></path><circle cx="48" cy="47.301" r="3.601"></circle><circle cx="48" cy="57.203" r="3.601"></circle></svg>