<svg xmlns="http://www.w3.org/2000/svg" xmlns:xlink="http://www.w3.org/1999/xlink" version="1.1" x="0px" y="0px" viewBox="0 0 100 100" enable-background="new 0 0 100 100" xml:space="preserve"><path d="M48.912,94.5c-19.048,0-34.545-15.497-34.545-34.546c0-19.048,15.497-34.545,34.545-34.545s34.546,15.497,34.546,34.545  C83.458,79.003,67.96,94.5,48.912,94.5z M48.912,30.863c-16.041,0-29.091,13.051-29.091,29.091c0,16.041,13.05,29.092,29.091,29.092  c16.041,0,29.091-13.051,29.091-29.092C78.003,43.914,64.952,30.863,48.912,30.863z"></path><path d="M48.992,84.5c-1.004,0-1.818-0.814-1.818-1.818s0.814-1.818,1.818-1.818c11.529,0,20.91-9.379,20.91-20.909  c0-1.004,0.813-1.817,1.818-1.817c1.004,0,1.817,0.813,1.817,1.817C73.537,73.489,62.526,84.5,48.992,84.5z"></path><path d="M58.936,15.573c-10.909-3.967-19.847-0.097-20.222,0.071c-0.985,0.438-1.62,1.414-1.62,2.492v10.909  c0,1.506,1.221,2.727,2.728,2.727c1.506,0,2.727-1.221,2.727-2.727v-0.137l12.741-0.637c0.073,1.441,1.254,2.591,2.714,2.591  c1.507,0,2.728-1.221,2.728-2.727v-10C60.73,16.989,60.013,15.965,58.936,15.573z"></path><path d="M53.459,18.137c-0.107,0-0.216-0.01-0.326-0.029c-0.987-0.18-1.643-1.125-1.464-2.111l0,0  c0.23-1.294,0.568-5.371-0.863-7.081c-0.28-0.335-0.78-0.778-1.894-0.778c-1.113,0-1.614,0.443-1.894,0.778  c-1.432,1.71-1.094,5.787-0.863,7.081c0.177,0.987-0.479,1.933-1.467,2.11c-0.992,0.178-1.932-0.477-2.111-1.463  c-0.123-0.68-1.126-6.733,1.646-10.057c1.14-1.365,2.761-2.087,4.688-2.087S52.46,5.222,53.6,6.587  c2.773,3.323,1.771,9.377,1.646,10.057C55.087,17.521,54.321,18.137,53.459,18.137z"></path></svg>