<svg xmlns="http://www.w3.org/2000/svg" xmlns:xlink="http://www.w3.org/1999/xlink" version="1.1" x="0px" y="0px" viewBox="0 0 100 100" enable-background="new 0 0 100 100" xml:space="preserve"><g><g><path d="M47.699,33.34c-4.264,0-7.736-4.061-7.736-9.054c0-4.993,3.471-9.053,7.736-9.053c4.268,0,7.738,4.061,7.738,9.053    C55.438,29.279,51.967,33.34,47.699,33.34z M47.699,17.988c-2.746,0-4.981,2.826-4.981,6.299c0,3.473,2.235,6.299,4.981,6.299    c2.75,0,4.984-2.826,4.984-6.299C52.684,20.813,50.449,17.988,47.699,17.988z"></path></g><g><path d="M43.411,94.999c-1.054,0-2.031-0.408-2.751-1.146c-0.549-0.565-1.196-1.585-1.151-3.224    c0.031-1.139,0.083-2.831,0.146-4.909c0.319-10.377,1.153-37.551,0.463-41.086c-0.633-0.312-2.496-0.68-3.888-0.954    c-1.634-0.323-3.484-0.688-5.135-1.2c-2.891-0.895-7.984-11.743-8.132-17.326c-0.087-3.229,1.32-4.431,2.515-4.871    c0.26-0.096,0.531-0.146,0.804-0.146c2.367,0,3.751,3.404,5.503,7.712c0.893,2.193,2.387,5.864,3.241,6.233    c2.021,0.533,4.681,0.607,7.25,0.607c0.855,0,1.732-0.01,2.618-0.02c0.788-0.008,1.581-0.016,2.38-0.019    c1.163-0.003,2.204-0.014,3.142-0.024c0.885-0.011,1.682-0.019,2.399-0.019c4.494,0,6.553,0.303,8.869,3.36    c0.072,0.097,7.404,9.887,7.465,13.86c0.042,2.718-1.08,8.786-3.467,11.207c-0.92,0.937-1.837,1.131-2.441,1.131    c-0.224,0-0.445-0.025-0.666-0.075c-0.828-0.188-1.494-0.651-1.926-1.342c-1.063-1.702-0.437-4.362,0.168-6.935    c0.317-1.35,0.678-2.88,0.557-3.526c-0.125-0.555-1.26-2.269-2.679-4.195c0.241,10.261,0.866,36.247,1.18,42.543    c0.082,1.629-0.529,2.632-1.057,3.186c-0.721,0.758-1.742,1.175-2.877,1.175c-1.91,0-4.055-1.254-4.27-3.58    c-0.647-6.979-0.793-12.609-0.901-16.722c-0.098-3.862-0.194-7.549-0.764-8.758c-0.855,2.871-1.382,12.16-1.68,17.394    c-0.174,3.081-0.324,5.742-0.499,7.23C47.471,93.611,45.289,94.999,43.411,94.999z M26.268,22.953    c-0.305,0.216-0.488,0.708-0.542,1.464c-0.356,4.976,4.773,14.659,6.244,15.455c1.449,0.444,3.225,0.794,4.792,1.105    c3.255,0.643,5.219,1.031,5.829,2.352c0.766,1.658,0.715,13.17-0.183,42.476c-0.065,2.072-0.117,3.765-0.148,4.9    c-0.014,0.537,0.115,0.962,0.374,1.228c0.658,0.678,2.226,0.28,2.454-1.686c0.166-1.407,0.314-4.031,0.486-7.069    c0.961-16.972,1.639-20.403,4.029-20.403c3.618,0.132,3.717,4.049,3.919,11.852c0.105,4.073,0.249,9.653,0.888,16.539    c0.069,0.744,0.935,1.079,1.527,1.079c0.215,0,0.617-0.042,0.881-0.318c0.281-0.297,0.319-0.788,0.303-1.149    c-0.394-7.892-1.271-46.421-1.278-46.809c-0.014-0.589,0.349-1.122,0.902-1.325c0.555-0.203,1.174-0.032,1.545,0.425    c1.627,2.007,5.444,6.873,5.789,8.719c0.228,1.216-0.147,2.812-0.583,4.661c-0.386,1.639-0.967,4.117-0.51,4.846    c0.023,0.038,0.05,0.079,0.199,0.113c0.14,0.022,0.311-0.074,0.534-0.303c1.582-1.606,2.714-6.708,2.674-9.232    c-0.03-2.049-4.105-8.539-6.908-12.24c-1.492-1.971-2.364-2.268-6.671-2.268c-0.709,0-1.494,0.008-2.372,0.019    c-0.943,0.009-1.992,0.021-3.161,0.024c-0.791,0.002-1.581,0.011-2.359,0.019c-0.896,0.01-1.782,0.019-2.648,0.019    c-2.755,0-5.627-0.085-7.971-0.705c-2-0.529-3.228-3.329-5.069-7.853C28.418,26.891,27.087,23.617,26.268,22.953z"></path></g><g><path d="M47.613,28.722c-1.3,0-2.378-0.601-2.943-1.122c-0.374-0.343-0.396-0.924-0.052-1.297    c0.342-0.372,0.919-0.395,1.293-0.056c0.176,0.156,1.731,1.442,3.621-0.165c0.387-0.327,0.966-0.279,1.293,0.106    c0.329,0.387,0.28,0.967-0.105,1.294C49.642,28.398,48.568,28.722,47.613,28.722z"></path></g><g><line fill="none" x1="42.226" y1="13.12" x2="39.026" y2="8.154"></line><path d="M42.227,14.038c-0.302,0-0.597-0.148-0.773-0.421l-3.199-4.965c-0.275-0.426-0.151-0.995,0.274-1.269    c0.427-0.276,0.994-0.152,1.27,0.274l3.2,4.965c0.274,0.427,0.151,0.995-0.274,1.27C42.569,13.991,42.397,14.038,42.227,14.038z"></path></g><g><line fill="none" x1="38.164" y1="17.57" x2="32.599" y2="15.233"></line><path d="M38.164,18.488c-0.12,0-0.239-0.023-0.355-0.072l-5.565-2.337c-0.468-0.196-0.688-0.734-0.491-1.202    c0.196-0.469,0.738-0.688,1.201-0.49l5.566,2.336c0.469,0.197,0.688,0.734,0.491,1.203C38.863,18.277,38.523,18.488,38.164,18.488    z"></path></g><g><line fill="none" x1="48.3" y1="11.148" x2="48.947" y2="5.918"></line><path d="M48.301,12.066c-0.038,0-0.076-0.001-0.114-0.007c-0.503-0.062-0.861-0.521-0.798-1.024l0.648-5.231    c0.062-0.503,0.519-0.858,1.024-0.798c0.503,0.062,0.86,0.52,0.798,1.024l-0.648,5.23C49.154,11.726,48.758,12.066,48.301,12.066z    "></path></g><g><line fill="none" x1="54.593" y1="13.786" x2="58.495" y2="10.445"></line><path d="M54.593,14.704c-0.258,0-0.516-0.109-0.696-0.321c-0.331-0.385-0.286-0.965,0.099-1.295l3.902-3.341    c0.386-0.328,0.965-0.285,1.295,0.1c0.33,0.385,0.285,0.965-0.101,1.295l-3.902,3.341C55.018,14.632,54.803,14.704,54.593,14.704z    "></path></g><g><line fill="none" x1="58.287" y1="19.737" x2="63.812" y2="17.841"></line><path d="M58.287,20.655c-0.382,0-0.738-0.24-0.87-0.62c-0.163-0.48,0.093-1.002,0.571-1.167l5.526-1.896    c0.48-0.167,1.002,0.091,1.167,0.57c0.164,0.479-0.093,1.002-0.571,1.166l-5.526,1.896C58.486,20.638,58.386,20.655,58.287,20.655    z"></path></g></g></svg>