<svg xmlns="http://www.w3.org/2000/svg" xmlns:xlink="http://www.w3.org/1999/xlink" version="1.1" x="0px" y="0px" viewBox="0 0 100 100" enable-background="new 0 0 100 100" xml:space="preserve"><g><path d="M93.768,21.258L78.242,5.732C77.453,4.942,76.379,4.5,75.263,4.5H9.211C6.884,4.5,5,6.384,5,8.711v81.579   C5,92.616,6.884,94.5,9.211,94.5h81.579c2.326,0,4.211-1.884,4.211-4.211V24.237C95,23.121,94.558,22.047,93.768,21.258z    M63.421,12.921v27.758H31.842V12.921H63.421z M86.579,86.079H13.421V12.921h10v31.968c0,2.326,1.884,4.211,4.211,4.211h40   c2.326,0,4.211-1.884,4.211-4.211V12.921h1.674l13.063,13.063V86.079z"></path></g><g><path d="M53.593,36.134c-2.325,0-4.211-1.885-4.211-4.211V21.682c0-2.325,1.885-4.211,4.211-4.211c2.325,0,4.211,1.885,4.211,4.211   v10.242C57.803,34.249,55.918,36.134,53.593,36.134z"></path></g></svg>