<svg xmlns="http://www.w3.org/2000/svg" xmlns:xlink="http://www.w3.org/1999/xlink" xml:space="preserve" version="1.0" style="shape-rendering:geometricPrecision;text-rendering:geometricPrecision;image-rendering:optimizeQuality;" viewBox="0 0 100 100" x="0px" y="0px" fill-rule="evenodd" clip-rule="evenodd"><defs><style type="text/css">
   
    .fil0 {fill:black}
   
  </style></defs><g><path class="fil0" d="M69 14c0,-5 -4,-9 -10,-9 -5,0 -9,4 -9,9 0,5 4,10 9,10 6,0 10,-5 10,-10zm-20 55l-7 9c1,2 3,4 4,6 4,3 9,6 14,6 6,0 11,-3 15,-6 3,-4 6,-9 6,-15 0,-4 -2,-7 -4,-11l-1 10 0 1 -5 0 -22 0zm-10 14l-4 6 -1 1 -1 0 -19 0 0 -5 6 0c-1,-1 -1,-2 -1,-4 0,-1 0,-1 0,-2l0 0 14 -19 0 0c0,-1 1,-2 3,-2l15 -4c0,0 2,-1 2,-3l2 -11 -5 6 -18 0c0,0 0,0 -1,0l0 0 0 0c-1,0 -2,-2 -2,-3 0,-1 0,-1 0,-1l-7 -12 9 -11 10 16 -4 4 8 0 6 -7c2,-2 4,-5 8,-5 0,0 0,0 0,0l0 0 5 0c4,0 8,4 8,8l-2 22c0,1 0,2 -1,3 -1,2 -3,4 -6,4l8 0 3 -31 6 0 -2 18 1 0c4,5 7,11 7,18 0,8 -3,14 -7,19 -5,4 -11,7 -19,7 -7,0 -13,-3 -18,-7 -1,-2 -2,-3 -3,-5zm-13 2l5 0 14 -19 -6 1 -12 17 0 0c0,0 0,1 -1,1z"></path></g></svg>