<svg xmlns="http://www.w3.org/2000/svg" xmlns:xlink="http://www.w3.org/1999/xlink" version="1.1" x="0px" y="0px" viewBox="0 0 100 100" enable-background="new 0 0 100 100" xml:space="preserve"><path d="M49.999,44.905c-2.81,0-5.095,2.285-5.095,5.094c0,2.812,2.285,5.097,5.095,5.097c2.81,0,5.097-2.285,5.097-5.097  C55.096,47.19,52.809,44.905,49.999,44.905z M50,52.066c-1.142,0-2.068-0.924-2.068-2.066c0-1.142,0.927-2.068,2.068-2.068  c1.141,0,2.066,0.927,2.066,2.068C52.066,51.145,51.143,52.066,50,52.066z"></path><path d="M49.999,8.946C27.362,8.946,8.946,27.363,8.946,50c0,22.637,18.416,41.055,41.053,41.055  c22.638,0,41.056-18.418,41.056-41.055C91.055,27.362,72.637,8.946,49.999,8.946z M89.625,51.118  c-0.177,6.343-1.843,12.319-4.674,17.587L57.494,51.922L89.625,51.118z M57.494,47.906l27.391-16.742  c2.846,5.25,4.531,11.215,4.735,17.547L57.494,47.906z M83.667,29.086L55.486,44.429l15.332-28.158  C76.023,19.495,80.43,23.89,83.667,29.086z M49.998,44.554c2.958,0,5.363,2.404,5.363,5.359c0,2.957-2.405,5.362-5.363,5.362  c-2.956,0-5.36-2.405-5.36-5.362C44.638,46.958,47.042,44.554,49.998,44.554z M31.27,15.06c5.249-2.825,11.205-4.492,17.528-4.683  l-0.803,32.045L31.27,15.06z M51.207,10.377c6.32,0.19,12.275,1.859,17.523,4.684L52.01,42.419L51.207,10.377z M47.995,57.406  l0.807,32.217c-6.355-0.189-12.342-1.873-17.612-4.725L47.995,57.406z M52.012,57.408l16.801,27.488  c-5.27,2.853-11.254,4.535-17.607,4.727L52.012,57.408z M29.185,16.268l15.332,28.163L16.332,29.086  C19.571,23.89,23.977,19.493,29.185,16.268z M10.379,48.712c0.203-6.332,1.889-12.298,4.736-17.549l27.393,16.743L10.379,48.712z   M42.507,51.923L15.048,68.707c-2.83-5.266-4.496-11.245-4.673-17.589L42.507,51.923z M16.25,70.788L44.516,55.4l-15.4,28.287  C23.896,80.439,19.483,76.018,16.25,70.788z M70.887,83.688L55.486,55.4l28.262,15.387C80.518,76.016,76.104,80.438,70.887,83.688z"></path><path d="M50,5.026c-24.799,0-44.974,20.176-44.974,44.975c0,24.798,20.175,44.974,44.974,44.974s44.975-20.176,44.975-44.974  C94.975,25.202,74.799,5.026,50,5.026z M50,91.32C27.216,91.32,8.68,72.783,8.68,50C8.68,27.216,27.216,8.68,50,8.68  c22.783,0,41.32,18.536,41.32,41.32C91.32,72.783,72.783,91.32,50,91.32z"></path></svg>