<svg xmlns="http://www.w3.org/2000/svg" xmlns:xlink="http://www.w3.org/1999/xlink" version="1.1" x="0px" y="0px" viewBox="0 0 100 100" enable-background="new 0 0 100 100" xml:space="preserve"><path d="M41.749,90.948l0.025-0.084l0.111-0.048l-0.042-0.016l-0.109-0.069l-0.25,0.085l-0.126-0.004l-0.082-0.081l0.032,0.099  l0.067,0.11l0.088,0.089l0.098,0.035l0.15-0.035L41.749,90.948z M95,20.348l-1.51-3.633l-0.076-0.006l-0.1-0.055l-0.071-0.078  l-0.132-0.188l-0.179-0.135l-0.403-0.148L92.345,16l-0.109-0.224l0.077-0.556l-0.054-0.222l-0.102-0.031L91.95,15.18l-0.13,0.042  l-0.124,0.003l-0.063,0.011l-0.062,0.02l-0.054,0.042l-0.064,0.119l-0.04,0.04l-0.106,0.019l-0.1-0.018l-0.097-0.001l-0.205,0.146  l-0.084,0.001l-0.09-0.032l-0.112-0.024l-0.13,0.016l-0.262,0.071l-0.133-0.009l-0.155-0.139l-0.057-0.241l-0.021-0.283  l-0.053-0.262l-0.136-0.248l-0.158-0.092l-0.429-0.027l-0.175-0.08l-0.17-0.166l-0.124-0.219l-0.032-0.231l0.04-0.111l0.073-0.069  l0.275-0.179l0.04-0.035l0.029-0.053l0.004-0.075l-0.045-0.123l0.005-0.073l0.074-0.09l0.101-0.046l0.07-0.057l-0.013-0.121  l-0.058-0.092l-0.139-0.175l-0.043-0.103l-0.002-0.273l0.104-0.546l-0.06-0.285l-0.565-1.079l-0.14-0.174L88.011,9.58l-0.344-0.244  l-0.438-0.213l-0.441-0.088l-0.346,0.132l-0.034,0.066l-0.017,0.072l-0.035,0.047l-0.338-0.015l-0.118-0.169l-0.04-0.259  l-0.01-0.283l-0.039-0.266L85.72,8.154L85.57,8.005l-0.209-0.09l-0.658-0.139l-0.188-0.105l-0.158-0.143l-0.079-0.045l-0.103-0.021  L83.7,7.53l-0.208,0.001l-0.191,0.051l-0.099,0.042l-0.079,0.058L83.067,7.77l-0.048,0.2l-0.034,0.065l-0.074,0.03L82.879,8  l-0.031-0.21l-0.044-0.084l-0.16-0.243l-0.176-0.146L82.06,7.309L81.91,7.174l-0.079-0.109l-0.086-0.02l-0.202,0.081l-0.357,0.091  l-0.108,0.056l0.029,0.041l0.011,0.048l-0.007,0.05l-0.022,0.053l-0.037,0.221L80.962,7.71l-0.109-0.097l-0.101-0.148l-0.02-0.021  l-0.02-0.018l-0.109-0.034L80.484,7.4l-0.23,0.063l-0.145,0.12l-0.463,0.294L79.375,8.1l-0.133,0.049l-0.366-0.046l-0.091,0.023  l-0.079,0.061L78.67,8.283l-0.027,0.237L78.59,8.59l-0.327,0.108l-0.162-0.001l-0.164-0.063l-0.165-0.042l-0.455-0.288l-0.171-0.07  l-0.34-0.063l-0.738-0.032l-0.727,0.124l-0.18-0.028l-0.172-0.025l-0.367,0.05l-0.267-0.02l-0.278,0.098l-0.079,0.01l-0.082-0.011  l-0.163-0.043l-0.175-0.019l-0.83,0.088l-0.089,0.034l-0.136,0.092l-0.064,0.031l-0.075-0.004l-0.172-0.07l-0.138,0.034L71.938,8.55  l-0.16,0.046L71.287,8.62l-0.464-0.068l-0.368,0.026l-0.357,0.085l-0.269,0.139l-0.35,0.294l-0.115,0.031L69.108,9.11l-0.228,0.076  l-0.246,0.015l-0.49,0.112l-0.245,0.104l-0.089,0.063l-0.021,0.088l0.083,0.133l0.04,0.113l-0.098,0.057l-0.322,0.045l-0.141,0.045  l-0.064,0.036l-0.049,0.059l0.009,0.057l0.022,0.059l-0.007,0.063l-0.089,0.085l-0.229,0.056l-0.114,0.064l-0.091,0.093  l-0.263,0.151l-0.076,0.063l-0.068,0.071l-0.071,0.062l-0.09,0.033l-0.359,0.024l-0.114,0.073l0.009,0.218l0.095,0.187l0.015,0.094  l-0.066,0.076l-0.087,0.032l-0.087,0.005l-0.083-0.033l-0.163-0.175l-0.319-0.216l-0.112-0.047l-0.104,0.012l-0.055,0.06  l-0.064,0.212l-0.047,0.11l-0.046,0.073l-0.139,0.138l-0.027,0.104l0.057,0.105l0.032,0.091l-0.108,0.059l-0.134,0.027l-0.104,0.039  l-0.093,0.063l-0.424,0.474l-0.113,0.088l-0.351,0.124l-0.029,0.044L63.12,13.12l-0.039,0.063l-0.052,0.038l-0.168,0.081  l-0.218,0.142l-0.029,0.05l-0.029,0.146l-0.028,0.063l-0.179,0.182l-0.053,0.105l0.029,0.128l0.06,0.056l0.2,0.11l0.077,0.06  l0.144,0.153l0.149,0.063l0.155,0.034l0.162,0.069l0.082,0.098l0.023,0.224l0.06,0.104l0.251,0.179l0.08,0.104l0.186,0.334  l0.035,0.101l0.007,0.068l-0.005,0.059v0.062l0.025,0.077l0.032,0.047l0.082,0.064l0.035,0.038l0.07,0.119l0.026,0.121l-0.033,0.124  l-0.101,0.129l-0.07,0.137l0.053,0.115l0.112,0.091l0.306,0.149l0.09,0.068l0.052,0.101l-0.003,0.131l-0.038,0.122l-0.024,0.129  l0.033,0.151l0.071,0.104l0.075,0.083l0.047,0.093l-0.009,0.132l-0.056,0.1l-0.271,0.236l-0.17,0.222l-0.009,0.183l0.099,0.172  l0.308,0.354l0.17,0.137l0.022,0.092l-0.048,0.132l-0.14,0.216l-0.384,0.268l-0.144,0.18l-0.009,0.296l0.03,0.068l-0.009,0.063  l-0.038,0.055l-0.061,0.043l0,0h-0.002v0.001l-0.043,0.071l-0.049,0.157l-0.039,0.07l-0.055,0.048l-0.749,0.305l-0.196,0.151  l-0.104,0.207l-0.085,0.229l-0.292,0.418l-0.075,0.075l-0.214,0.112l-0.392,0.318l-0.058,0.079l-0.008,0.102l0.042,0.151  l0.021,0.139l-0.019,0.164l-0.059,0.135l-0.103,0.049l-0.226-0.035l-0.117,0.001l-0.095,0.044l-0.065,0.119l-0.007,0.147l0.03,0.15  l0.054,0.125l0.114,0.173l0.159,0.191l0.171,0.166l0.395,0.221l0.025,0.165l-0.163,0.467l-0.001,0.121l0.054,0.233l0.016,0.135  L62.004,26.7l-0.033,0.089l-0.157,0.178l-0.06,0.133l0.004,0.109l0.02,0.106l-0.026,0.125l-0.089,0.083l-0.27,0.057l-0.115,0.04  l-0.063,0.09l-0.065,0.061l-0.078,0.025l-0.103-0.008l-0.151-0.048l-0.055,0.015l-0.023,0.086l-0.1,0.196l-0.393,0.074l-0.752-0.008  l-0.744,0.107l-0.17-0.006l-0.459-0.099l-0.449-0.02l-0.101-0.029l-0.191-0.097l-0.313-0.029l-1.201-0.421l-0.187-0.014  l-0.296,0.046l-0.147,0.051l-0.093,0.095l-0.012,0.104l0.019,0.101l-0.011,0.099l-0.099,0.102l-0.072,0.097l0.033,0.099l0.163,0.162  l0.049,0.088l0.074,0.253l0.049,0.105l0.133,0.194l0.049,0.1l0.04,0.13l0.058,0.128l0.084,0.052l0.217,0.03l0.299,0.128l0.235-0.041  l0.056,0.071l0.047,0.263l0.033,0.104l0.024,0.034l0.05,0.042l0.093,0.044l0.042,0.031l0.022,0.043l-0.004,0.161l-0.114,0.419  l-0.009,0.125l0.021,0.128l0.049,0.119l0.077,0.101l0.044,0.029l0.154,0.051l0.039,0.035l0.041,0.106l0.029,0.049l0.292,0.329  l0.088,0.206l-0.039,0.218l-0.941,0.792l-0.108,0.062l-0.121-0.01l-0.133-0.045l-0.065,0.025l-0.186,0.353l-0.042,0.06l-0.068,0.029  l-0.16-0.014l-0.056,0.012l-0.417,0.253l-0.233,0.018l-0.371-0.186l-0.216,0.036l-0.262,0.188l-0.101,0.024l-0.051-0.01  l-0.047-0.021l-0.052-0.017l-0.18,0.035l-0.114-0.004l-0.225,0.03l-0.185,0.12l-0.147,0.187l-0.106,0.226l0.103,0.714l-0.054,0.19  l-0.033,0.031l-0.143,0.108l-0.137,0.19l-0.188,0.141l-0.061,0.089l0.009,0.128l0.029,0.053l0.041,0.043l0.048,0.032l0.047,0.02  l0.039,0.029l0.014,0.05l0.01,0.114l0.058,0.218l-0.019,0.08l-0.068,0.129l-0.291,0.439l-0.098,0.082l-0.23,0.081l-0.112,0.071  l-0.169,0.212l-0.104,0.248l-0.027,0.271l0.059,0.282l0.143,0.365l0.021,0.138l-0.005,0.143l-0.038,0.279l-0.004,0.276l-0.042,0.275  l-0.005,0.142l0.108,0.618l0.176,0.495l0.015,0.085l-0.034,0.06l-0.265,0.199l-0.151,0.164l-0.609,0.938l-0.078,0.089l-0.084,0.054  l-0.074,0.117l-0.175,0.16l-0.2,0.144l-0.149,0.063l-0.2-0.015l-0.19,0.061l-0.351,0.181l-0.222,0.026l-0.146-0.104l-0.257-0.37  L48.66,42.93l-0.042-0.096l-0.018-0.262l-0.035-0.08l-0.071-0.04l-0.313-0.057l-0.324-0.185l-0.187-0.072l-0.124,0.001l-0.132,0.046  l-0.239,0.129l-0.108,0.084l0.019,0.063l0.098,0.043l0.121,0.02l0.333-0.008l0.107,0.015l0.051,0.059l-0.072,0.082l-0.119,0.071  l-0.097,0.03l-0.206-0.033l-0.582-0.209l-0.221-0.018l-0.22,0.011l-0.121-0.018l-0.068-0.068l-0.058-0.086l-0.141-0.116  l-0.123-0.067l-0.143-0.05l-0.114,0.009l-0.071,0.085l-0.117,0.278l-0.063,0.111l-0.184,0.169l-0.026,0.06l-0.019,0.136  l-0.031,0.046l-0.291,0.163l-0.095,0.075l-0.062,0.088l-0.062,0.033l-0.225,0.012L44.1,43.355l-0.075,0.003l-0.155,0.076  l-0.343,0.386l-0.303,0.212l-0.168,0.068l-0.172,0.018l-0.36-0.08l-0.175,0.004l-0.071,0.115l0.04,0.096l0.081,0.099l0.072,0.112  l0.033,0.253l0.08,0.098l0.111,0.069l0.109,0.03l0.461-0.062l0.202,0.065l0.025,0.271l-0.058,0.12l-0.086,0.04l-0.224-0.009  l-0.091,0.027l-0.077,0.055l-0.071,0.067l-0.354,0.228l-0.103,0.038l-0.297,0.056l-0.205,0.088l-0.33,0.045l-0.385,0.163  l-0.103,0.02l-0.355-0.032l-0.288,0.015l-0.092-0.012l-0.114-0.04l-0.202-0.112l-0.11-0.033l-0.111,0.005l-0.213,0.053l-0.112-0.002  l-0.128-0.022l-0.068-0.023l-0.043-0.033l-0.008-0.052l0.022-0.039l0.031-0.04l0.014-0.053l-0.012-0.145l-0.039-0.089l-0.082-0.044  l-0.326,0.008l-0.208,0.06l-0.374,0.184l-0.166,0.145l-0.13,0.148l-0.143,0.109L37.64,46.11l-0.135,0.094l-0.188,0.728l-0.106,0.147  l-0.521,0.537l-0.126,0.057l-0.751,0.152l-0.094,0.051l-0.051,0.089l-0.546,2.067l-0.017,0.28l0.095,0.255l0.135,0.173l0.042,0.082  l0.031,0.131l0.013,0.132l-0.104,0.847l0.013,0.387l-0.024,0.123l-0.358,0.729l-0.082,0.241l-0.014,0.102l0.033,0.086l0.196,0.136  l0.229,0.232l0.17,0.132l0.046,0.061l-0.021,0.028l-0.047,0.017l-0.033,0.019l-0.114,0.197l-0.147,0.194l-0.442,0.317l-0.474,0.139  l-0.322,0.094l-0.322,0.095l-0.323,0.094l-0.321,0.095l-0.322,0.094l-0.323,0.094l-0.322,0.094l-0.323,0.094l-0.322,0.096  l-0.323,0.094L30.7,56.104l-0.322,0.095l-0.322,0.094l-0.646,0.188l-0.322,0.093l-0.806,0.235l-0.276-0.009l-0.924-0.168  l-0.757-0.006l-1.146-0.009l-1.499,0.446l-0.195,0.1l-0.127,0.164l-0.202,0.395l-0.152,0.061l-0.633-0.271l-1.022-0.197L20.13,57.08  l-0.848,0.08l-0.272,0.025l-0.272,0.025l-0.273,0.026l-0.271,0.025l-0.271,0.024l-0.273,0.026l-0.272,0.025l-0.271,0.026  l-0.272,0.025l-0.272,0.025l-0.272,0.026l-0.272,0.025l-0.272,0.024l-0.272,0.026l-0.271,0.025l-0.272,0.025l-0.854,0.08  l-0.572-0.108l-0.527-0.169l-0.462-0.148l-0.463-0.147l-0.463-0.149l-0.462-0.149l-0.462-0.146l-0.464-0.149l-0.462-0.149  l-0.462-0.146L8.81,56.036l-0.463-0.149l-0.463-0.147l-0.462-0.15L6.96,55.441l-0.462-0.148l-0.463-0.149l-0.463-0.149l-0.396-0.127  L5,54.787l0.448,0.529l0.294,0.347l0.362,0.434l0.419,0.498l0.435,0.52l0.457,0.543l0.108,0.088l0.117,0.047l0.098,0.069l0.051,0.16  l-0.011,0.124l-0.065,0.223v0.124l0.053,0.129l0.177,0.195l0.071,0.108l0.018,0.07l0.015,0.158l0.028,0.072l0.06,0.066l0.05,0.019  l0.052,0.006l0.061,0.032l0.057,0.09l0.029,0.107l0.042,0.092l0.096,0.04l0.054,0.044l0.017,0.055l-0.02,0.058L8.52,59.889  l-0.04,0.04l-0.016,0.038l0.013,0.037l0.043,0.033l0.071,0.033l0.063,0.049l0.049,0.065l0.234,0.538l0.032,0.122l0.014,0.106  l0.028,0.095l0.16,0.179l0.159,0.348l0.161,0.196l0.573,0.519l0.23,0.299l0.353,0.326l0.176,0.203l0.103,0.056l0.332,0.092  l0.266,0.153l0.167,0.053l0.37,0.03l0.177,0.038l0.462,0.206l0.734,0.149l0.153,0.079l0.064,0.076l0.048,0.084l0.058,0.076  l0.09,0.051l0.093,0.031l0.058,0.036l0.038,0.063l0.036,0.11l0.081,0.136l0.351,0.379l0.113,0.07l0.908-0.185l0.123,0.075  l0.027,0.219l-0.081,0.645l-0.089,0.712l0.102,0.433l0.146,0.601l0.034,0.371l0.046,0.504l0.027,0.313l0.054,0.576l0.03,0.324  l-0.034,0.259l-0.292,0.654l0.108,0.132l0.028,0.067l-0.011,0.102l-0.025,0.089l-0.033,0.069l-0.056,0.041l-0.088,0.005l0.24,0.214  l0.084,0.046l0.044-0.002l0.076-0.044l0.039-0.007l0.045,0.016l0.13,0.07l0.176,0.039l0.151-0.008l0.323-0.064l0.144-0.022  l0.291-0.089l0.148-0.008l0.092,0.009l0.071-0.001l0.304-0.097h0.057l0.069,0.026l0.144,0.131l0.063,0.039l0.138,0.051l0.051,0.031  l0.059,0.064l0.08,0.117l0.188,0.418l-0.095-0.038l-0.122,0.001l-0.108,0.047L18.36,72.13l-0.021,0.063l-0.059,0.084l-0.024,0.062  l-0.008,0.074l0.028,0.7l0.05,0.115l0.069,0.101l0.047,0.1l-0.018,0.113l-0.083,0.075l-0.227,0.037l-0.091,0.048l-0.041,0.098  l-0.044,0.897l-0.059,0.248l-0.125,0.121l-0.056-0.002l-0.043-0.022l-0.04-0.029L17.57,74.99l-0.054-0.005l-0.162,0.036  l-0.219-0.006l-0.217-0.034l-0.502-0.012l-0.435-0.01l-0.379-0.011l-0.061,0.019l-0.042,0.056l-0.058,0.105l-0.037,0.028  l-0.041,0.022l-0.049,0.019l-0.171,0.038l-0.048-0.003l-0.063-0.031l-0.059-0.011l-0.048,0.028l-0.044,0.047l-0.047,0.036  l-0.113,0.039l-0.93,0.099l-0.052,0.015l-0.044,0.034l-0.045,0.081L13.621,75.6l-0.057,0.015l-0.117-0.007l-0.053,0.007  l-0.046,0.021l-0.071,0.053l-0.046,0.024l-0.108,0.044l-0.048,0.03l-0.035,0.047l-0.011,0.054l0.017,0.041l0.021,0.034L13.073,76  l-0.058,0.107l-0.175,0.172l-0.04,0.076l0.031,0.141l0.054,0.114l0.005,0.088l-0.12,0.063l-0.208-0.028l-0.247-0.088l-0.209-0.027  l-0.095,0.15l-0.02,0.151l-0.051,0.063l-0.23,0.039l-0.113,0.035l-0.104,0.051l-0.199,0.133l-0.67,0.188l-0.135,0.105l-0.08,0.166  l-0.048,0.19l-0.051,0.375l-0.044,0.33l-0.053,0.383l-0.07,0.511l-0.059,0.429l-0.031,0.108l-0.084,0.102l-0.097,0.022l-0.107-0.002  l-0.117,0.028l-0.117,0.161l0.027,0.226l0.062,0.242l-0.017,0.212L9.57,81.063l-0.082,0.082l-0.033,0.06l-0.019,0.088L9.413,81.65  l-0.032,0.524l-0.04,0.607l-0.033,0.516l-0.173,0.511l0.133,0.009l0.066-0.022l0.055,0.002l0.089,0.021l0.182-0.007l0.063,0.007  l0.046,0.021l0.027,0.031l0.034,0.024l0.065,0.012l0.032,0.013l0.073,0.057l0.029,0.01l0.03-0.015l0.049-0.054l0.017-0.011  l0.038-0.014l0.031-0.016l0.021,0.018l0.003,0.091l-0.021,0.065l-0.073,0.104l-0.018,0.063l-0.005,0.08l-0.016,0.041l-0.058,0.067  l-0.096,0.077l-0.021,0.052l0.04,0.083l-0.057,0.064l0.026,0.066L9.989,84.8l0.06,0.021l0.091-0.015l0.144-0.062l0.091-0.01  l0.132,0.072l0.067,0.003l0.056-0.176l0.05-0.053l0.02-0.052L10.64,84.45l0.121-0.038l0.234-0.108l0.121-0.023l0.475,0.037  l0.248,0.06l0.121,0.011l0.052-0.048l-0.135-0.186l-0.051-0.032l-0.007-0.075l0.018-0.084l0.02-0.058l0.135-0.116l0.236-0.081  l0.26-0.046l0.207-0.011l0.127,0.026l0.125,0.062l0.118,0.085l0.104,0.102l0.021,0.049l0.005,0.068l-0.007,0.133l-0.016,0.072  l-0.039,0.012l-0.049-0.004l-0.049,0.024l-0.017,0.015l-0.021,0.015l-0.021,0.021l-0.018,0.033l0.133,0.06l0.213,0.039l0.201-0.01  l0.101-0.089l-0.066-0.02l-0.182-0.031l-0.056-0.032l-0.017-0.092l0.039-0.097l0.065-0.084l0.062-0.062l0.106-0.079l0.159-0.086  l0.169-0.045l0.141,0.044l0.11-0.047l-0.12-0.056l-0.016-0.085l0.068-0.075l0.128-0.032l0.718-0.059l0.784,0.016l0.954,0.209  l0.474,0.046l0.129-0.024l0.345-0.188l0.172-0.037l0.19,0.018l0.366,0.102l0.261,0.114l0.095,0.016l0.381-0.046l0.19,0.032  l0.32,0.144l0.177,0.032l0.033-0.011l0.028-0.029l0.021-0.039l0.014-0.047l0.006-0.04l-0.011-0.016l-0.027-0.02l-0.169-0.204  l-0.042-0.079l-0.025-0.1l0.088,0.03l0.058-0.043l0.082-0.154l0.15-0.17l0.093-0.071l0.102-0.054l0.178-0.058l0.364-0.058  l0.376-0.01l0.373,0.063l0.564,0.206l0.208,0.039l0.143-0.059l0.097,0.038l0.099-0.005l0.206-0.033h0.098l0.04-0.011l0.071-0.114  l-0.101-0.21l-0.07-0.105L22.725,82.5l-0.077,0.082l-0.054,0.034l-0.042-0.029l-0.04-0.108l-0.03,0.019l-0.083,0.023l0.073-0.077  l0.309-0.152l0.062,0.054l0.14-0.013l0.255-0.062l0.073,0.002l0.057,0.012l0.024,0.027l-0.024,0.09l-0.056,0.021l-0.13-0.026h-0.063  l-0.068,0.009l-0.056,0.031L22.971,82.5l0.021,0.077l0.05,0.046l0.051,0.032l0.029,0.033l-0.019,0.107l-0.049,0.109l-0.001,0.086  l0.496,0.104l0.338,0.013l0.046,0.03l0.07,0.08l0.053,0.015l0.24,0.024l0.235,0.057l0.122,0.069l0.192,0.188l0.121,0.038  l0.049-0.007l0.108-0.027l0.07-0.008l0.066-0.025l0.08-0.129l0.066-0.054l0.104-0.003l0.156,0.035l0.153,0.054l0.098,0.06  l0.095,0.142l-0.004,0.104l-0.147,0.233h0.083l0.14,0.041l0.08,0.004l0.263-0.078l0.045-0.005l-0.007-0.068l-0.071-0.04  l-0.092-0.026l-0.062-0.031l-0.029-0.063l-0.003-0.073l0.032-0.158l0.055-0.134l0.098-0.127l0.125-0.103l0.143-0.059l0.35-0.027  l0.177,0.02l0.122,0.053l0.159-0.071l0.172,0.008l0.333,0.063h0.341l0.094,0.014l0.171,0.055l0.158,0.021l0.141,0.036l0.065-0.001  l0.084-0.02l0.056-0.025l0.043-0.046l0.128-0.225l0.118-0.139l0.151-0.062l0.183,0.096l0.115-0.073l0.127-0.052l0.148-0.031  l0.182-0.011l-0.047,0.097l-0.025,0.032l0.102,0.027l0.122-0.034l0.13-0.054l0.119-0.026l0.113,0.014l0.787,0.221l0.124,0.016  l0.107-0.018l0.294-0.146l0.229-0.042l0.193-0.108l0.132-0.04l0.19-0.094l0.128-0.013l0.239,0.007l0.445-0.067l0.357-0.102  l0.502-0.005l0.154-0.037l0.18-0.072l0.18-0.049l0.148,0.033l0.185-0.046l0.265,0.06l0.431,0.195l0.158,0.133l0.103,0.067  l0.08,0.013l0.073-0.097l-0.075-0.099l-0.226-0.143l0.193-0.167l-0.091-0.075l-0.108-0.017l-0.106,0.029l-0.077,0.063l-0.063-0.062  l-0.081-0.134l-0.048-0.056l-0.065-0.03l-0.074-0.021l-0.061-0.032l-0.023-0.065l-0.066-0.044l-0.15-0.004l-0.168,0.025  l-0.116,0.042l-0.007,0.028l0.007,0.044l0.004,0.04l-0.021,0.017l-0.031,0.002l-0.024,0.008l-0.02,0.012l-0.018,0.017l-0.082,0.1  l-0.059,0.051l-0.07,0.021l-0.441,0.078l-0.148,0.002l0.031-0.059l0.054-0.067l0.063-0.056l0.059-0.024l0.032-0.032l0.102-0.218  l0.064-0.103l0.09-0.096l0.113-0.07l0.199-0.041l0.048-0.029l0.033-0.03l0.021-0.015l0.068,0.002l0.115,0.034l0.066,0.009  l0.196-0.021l0.111-0.039l0.095-0.068l-0.017,0.134l0.084,0.069l0.136,0.012l0.138-0.044l0.04,0.094l0.187,0.203l0.028,0.068  l0.021,0.077l0.035,0.045l0.072-0.023l0.009,0.027l0.017,0.027l0.012,0.028l0.102-0.06l0.059,0.159l0.052,0.215l0.074,0.107  l0.128,0.081l0.022,0.162l-0.066,0.124l-0.142-0.036L36.68,82.81l0.071,0.098l0.191,0.118l0.295,0.287l0.063,0.047l0.081,0.04  l0.2,0.183l0.041,0.049l0.021,0.113l0.087,0.191l0.005,0.133l-0.031,0.099L37.6,84.304l-0.05,0.102l-0.028,0.115l-0.014,0.365  l-0.088,0.467l0.001,0.233l0.129,0.071v0.041l-0.153,0.076l-0.112,0.127l-0.015,0.119l0.142,0.052l0.065-0.012l0.14-0.055  l0.293-0.034l0.057-0.024l0.128,0.07l0.138-0.028l0.147-0.048l0.156,0.006l0.118,0.073l0.104,0.09l0.106,0.071l0.134,0.016  l-0.028-0.047l-0.013-0.047l-0.001-0.11h0.042l0.044,0.063l0.079,0.068l0.099,0.052l0.1,0.021l0.227,0.173l0.104,0.046l-0.049-0.132  l0.041-0.045l0.104,0.037l0.063-0.004l0.06-0.021l0.098-0.013l0.049,0.021l0.043,0.05l0.032,0.063l0.031,0.13l0.049,0.014  l0.203-0.042l0.061-0.031l0.051-0.006l0.067,0.055l0.058,0.084l-0.014,0.046l-0.157,0.082l-0.137,0.099l-0.135,0.134l-0.104,0.157  l-0.041,0.169l0.015,0.117l0.044,0.021l0.071-0.021l0.098-0.012l0.103,0.022l0.083,0.041l0.159,0.103l-0.087,0.039l-0.104,0.009  l-0.104-0.015l-0.089-0.033l0.009,0.087l0.019,0.089l0.034,0.085l0.053,0.075l0.125,0.016l0.023,0.044l-0.11,0.102l0.109,0.119  l0.089,0.127l0.057,0.139l0.01,0.158l0.083-0.049l0.038-0.032l0.034-0.044l-0.072,0.271l-0.011,0.157l0.063,0.07l0.234-0.001  l0.097,0.023l0.109,0.06l-0.144-0.016l-0.171,0.022l-0.109,0.08l0.038,0.161l-0.021,0.026l-0.03,0.064l-0.025,0.041l0.052,0.068  l0.021,0.049l0.006,0.301l0.012,0.079l0.026,0.078l0.146,0.257l0.059,0.15l0.023,0.197l0.07,0.094l0.165,0.025l0.316-0.021  l0.148,0.036l0.121,0.061l0.114,0.013l0.13-0.109l-0.019,0.092l-0.055,0.06l-0.154,0.103l-0.077-0.026l-0.056,0.063l-0.095,0.208  l0.069,0.033l0.236,0.049l-0.035,0.135l-0.016,0.097l0.011,0.061l0.056,0.015l0.061-0.03l0.06-0.043l0.055-0.024l-0.046,0.062  l-0.065,0.135l-0.044,0.053l-0.056,0.032l-0.04,0.003l-0.04-0.004l-0.054,0.01l0.07,0.05l0.309,0.073l-0.06-0.054l-0.032-0.067  l0.014-0.05l0.078,0.007l0.063,0.058l0.044,0.074l0.048,0.028l0.076-0.079l0.006,0.109l0.057,0.075l0.083,0.025l0.082-0.04  l0.045-0.106l0.004-0.251l0.068-0.104l0.006,0.02l-0.003,0.017l0.007,0.01l0.025-0.002v0.038l-0.032,0.075l-0.044,0.341l-0.023,0.06  l-0.024,0.046l-0.021,0.05l-0.008,0.073l0.013,0.056l0.035,0.01l0.048-0.007l0.057,0.006l0.204,0.051l0.123,0.012l0.092-0.021  l0.064-0.082l-0.016-0.086l-0.057-0.076l-0.067-0.049l0.303,0.136l0.164,0.051l0.16,0.02l0.042-0.084l0.056-0.398l0.033-0.136  l0.046,0.055l0.006,0.225l0.025,0.092l0.081-0.086l0.048-0.028l0.043,0.011l0.033,0.05l-0.007,0.079l0.029,0.062l0.039,0.015  l0.05-0.002l0.046,0.006l0.02,0.041l0.021,0.063l0.052,0.042l0.062,0.025l0.056,0.016l0.008-0.02l0.054-0.027l0.061-0.009  l0.029,0.032l0.007,0.052l0.017,0.072l0.024,0.066l0.032,0.034l0.059-0.036l0.063-0.107l0.103-0.223l-0.068-0.139l-0.155-0.526  l0.059,0.025l0.132,0.085l0.087-0.013l-0.012,0.072l-0.042,0.16l0.03,0.139l0.074,0.121l0.087,0.095l0.078,0.063v0.037h-0.078  l-0.036,0.024l-0.043,0.104l-0.004,0.028l0.004,0.112l-0.017,0.025l-0.079,0.06l-0.017,0.042l0.049,0.125l0.106,0.088l0.094-0.004  l0.021-0.148l0.156,0.155l0.103,0.082l0.047-0.01l-0.016-0.109l-0.059-0.174l-0.005-0.108l0.03-0.12l0.1-0.236l0.021-0.12  l-0.011-0.028l-0.047-0.079l-0.015-0.038l-0.005-0.061l0.005-0.188l0.143,0.373l0.132-0.203l0.043-0.029l0.1-0.044l0.038-0.024  l0.017-0.002l0.056,0.011l0.022-0.002l0.02-0.021l-0.013-0.023l-0.024-0.021l-0.01-0.012l0.007-0.038l-0.004-0.055l0.014-0.054  l0.049-0.041l0.058-0.011l0.021,0.024l0.013,0.048l0.033,0.056l0.079,0.035l0.076-0.032l0.065-0.072l0.051-0.079l-0.007-0.043  l-0.021-0.061l0.003-0.051l0.067-0.013l0.035,0.024l0.021,0.049l0.007,0.056v0.048l0.176-0.127l0.256-0.04l0.646,0.004l0.547,0.004  l0.434,0.003l0.003-0.84l0.004-0.635l0.001-0.486l0.119-0.253l0.288,0.013l0.08,0.125l0.034,0.352l0.105,0.083l0.056-0.045  l0.174-0.322l0.019-0.05l0.01-0.05l0.028-0.036l0.077-0.007l0.05,0.021l0.05,0.041l0.04,0.05l0.107,0.194l0.077,0.079l0.102,0.011  l0.149-0.056l0.227-0.125l0.106-0.02l0.134,0.04l0.313,0.152l0.103,0.021l0.221-0.032l0.413-0.152l1.569,0.042l0.162,0.073  l0.435,0.46l0.245,0.121l0.303,0.037l1.125-0.017l0.246-0.054l0.2-0.169l0.061-0.11l0.135-0.377l0.058-0.099l0.066-0.037  l0.194-0.019l0.319-0.106l0.114-0.007l0.109-0.023L57.4,88.96l0.106-0.051l0.306-0.018l0.097-0.037l0.254-0.18l0.579-0.139  l0.234,0.005l0.069,0.146l-0.033,0.063l-0.097,0.063l-0.029,0.038l-0.006,0.067l0.054,0.213l0.027,0.241l0.041,0.087l0.096,0.091  l0.204,0.101l0.743,0.06l0.114-0.032l0.208-0.107l0.114-0.042l0.096-0.021l0.035-0.041l-0.073-0.101l-0.019-0.107l0.085-0.108  l0.341-0.229l0.104-0.034l0.105,0.008l0.121,0.053l0.108,0.005l0.059-0.045l0.039-0.068l0.061-0.068l0.267-0.096l0.054-0.057  l-0.044-0.15l-0.193-0.063l-0.224-0.037l-0.126-0.073l-0.017-0.044l-0.007-0.045l0.003-0.046l0.007-0.048l0.014-0.121l0.019-0.042  l0.008-0.04l-0.006-0.038l-0.021-0.034L61.17,87.74l-0.017-0.173l0.044-0.189l0.08-0.146l0.366-0.18l0.114-0.081l-0.149-0.232  l-0.187-0.532l-0.335-0.522l-0.154-0.319l-0.12-0.337l-0.188-0.84l-0.063-0.146l-0.095-0.122l-0.351-0.304l-0.186-0.209  l-0.065-0.121l-0.025-0.145l-0.044-0.152l-0.224-0.243l-0.089-0.128l-0.042-0.213l0.034-0.701l0.024-0.538l-0.021-0.25l-0.119-0.164  l-0.222-0.046l-0.211,0.062L58.72,80.86l-0.219,0.046l-0.651,0.018l-0.313-0.068l-0.217-0.078l-0.086-0.063l-0.08-0.143l-0.114-0.34  l-0.104-0.126l-0.228-0.199l-0.219-0.26l-0.177-0.296l-0.104-0.31l-0.001-0.094l0.048-0.318l0.006-0.22l0.025-0.103l0.297-0.497  l0.083-0.228l0.026-0.226l-0.042-0.248l-0.009-0.12l0.031-0.12l0.05-0.128l0.019-0.106l-0.019-0.244l0.032-0.508l-0.026-0.228  l-0.158-0.2l-0.2-0.109l-0.209-0.055l-1.336,0.055l-0.24-0.093l-0.4-0.357l-0.228-0.152l-0.861-0.355l-0.173-0.194l-0.044-0.255  l0.116-0.737l0.121-0.764l0.149-0.469l0.227-0.391l0.504-0.506l0.357-0.251l0.652-0.622l0.334-0.542l0.476-0.459l0.129-0.185  l0.411-1.203l0.061-0.114l0.539-0.558l0.383-0.276l0.312-0.346l0.101-0.069l0.098-0.03l0.215-0.034l0.215-0.085l0.106-0.027  l0.117,0.016l0.163,0.053l0.156,0.08l0.141,0.109l0.182,0.213l0.156,0.128l0.068,0.077l0.047,0.128l-0.022,0.231l0.017,0.121  l0.172,0.397l0.215,0.313l0.286,0.195l0.389,0.052l0.455-0.102l0.632-0.314l0.685-0.339l0.42-0.144l0.472-0.102l0.48-0.042  l0.44,0.036l0.465-0.037l0.782-0.239l0.885-0.271l0.074-0.06l0.032-0.095l0.063-0.766l0.03-0.114l0.063-0.126l0.443-0.58  l0.683-0.562l0.216-0.228l0.154-0.271l0.112-0.3l0.326-1.264l0.133-0.262l0.412-0.504l0.152-0.106l0.797-0.414l0.737-0.387  l0.635-0.33l0.716-0.374l0.092-0.065l0.069-0.093l0.18-0.438l0.143-0.238l0.347-0.466l0.434-0.837l0.271-0.528l0.306-0.591  l0.289-0.935l0.235-0.773l0.238-0.778l0.084-0.096l0.957-0.447l1.011-0.229l0.214-0.121l0.923-0.772l0.025-0.186l-0.08-0.28  l-0.125-0.272l-0.113-0.167l-0.274-0.149l0.018-0.025l0.035-0.1l0.09-0.095l0.109-0.059l0.104,0.011l-0.01-0.042l-0.014-0.091  l-0.012-0.041l0.094,0.03l0.069-0.011l0.056-0.045l0.28-0.397l0.035-0.084l0.048-0.051l0.22-0.063l0.073-0.081l0.022-0.156  l-0.018-0.12l-0.007-0.11l0.058-0.122l0.082-0.099l0.076-0.072l0.086-0.059l0.117-0.059l0.13-0.026l0.043-0.035l0.018-0.091  l0.018-0.052l0.081-0.062l0.037-0.13l0.042-0.052l0.091-0.08l0.114-0.171l0.047-0.046l0.083-0.063l0.042-0.047l-0.005-0.046  l-0.051-0.127l0.02-0.027l0.109-0.034l0.113-0.086l0.063-0.115l-0.04-0.115l0.036-0.068l0.047-0.058l0.059-0.039l0.071-0.015  l0.063,0.005l0.145,0.042l0.119,0.01l0.044-0.052l0.022-0.09l0.062-0.111l0.096-0.089l0.094-0.047l0.105-0.018l0.121-0.003  l0.111-0.038l0.086-0.089l0.077-0.103l0.086-0.079l0.001-0.133l0.084-0.114l0.12-0.09l0.321-0.175l-0.048-0.061l-0.103-0.093  l-0.082-0.05l-0.112-0.003l-0.242,0.044l-0.091-0.04l-0.074-0.092l-0.049-0.081l-0.028-0.092l-0.019-0.125l0.015-0.131l0.09-0.257  l0.002-0.29l0.038-0.148l0.219-0.557l0.067-0.112l0.091-0.114l0.065-0.104l0.028-0.121l-0.013-0.123l-0.169-0.257l-0.16-0.614  l-0.313-0.569l-0.055-0.073l0.018-0.021l0.06-0.104l0.012-0.009l0.044-0.021l0.016-0.015l0.013-0.029l0.015-0.077l0.011-0.031  l0.043-0.061l0.024-0.021l0.01-0.029l0.003-0.086l0.019-0.144l0.055-0.104l0.083-0.088l0.418-0.325l0.092-0.034l0.07-0.055  l0.158-0.301l0.358,0.074l0.115-0.025l0.104-0.169l0.049-0.229l0.097-0.142l0.246,0.091l0.089-0.112l0.109-0.02l0.126,0.014  l0.135-0.017l0.067-0.037l0.035-0.045l0.023-0.056l0.044-0.063l0.053-0.028l0.136,0.011l0.055-0.004l-0.042-0.185l0.101-0.021  l0.342,0.13l0.045,0.003l0.048-0.021l0.06-0.061l0.049-0.021l0.127,0.036l0.072,0.008l-0.008-0.149l0.127-0.124l0.171-0.088  l0.13-0.044l0.073-0.013l0.176,0.013l0.019-0.07l0.057-0.224l0.045-0.109l0.179-0.205l0.06-0.128l-0.034-0.148l-0.145-0.185  l-0.538-0.442l-0.189-0.112l-0.389-0.095l-0.188-0.115l-0.206-0.171l-0.174-0.07l-0.183,0.019l-0.235,0.095l-0.231,0.024  l-0.381-0.194l-0.217,0.015l-0.198,0.065l-0.214,0.012l-0.198-0.068l-0.149-0.177l-0.167-0.458l-0.016-0.131l0.042-0.119  l0.061-0.114l0.045-0.112l0.007-0.131l-0.041-0.266l-0.001-0.145l0.04-0.146l0.142-0.276l0.036-0.141l-0.021-0.147l-0.074-0.062  l-0.101,0.021l-0.099,0.101l-0.055,0.128l-0.022,0.112l-0.044,0.1l-0.114,0.082l-0.109,0.035l-0.294,0.048l-0.111-0.005l-0.091-0.05  l-0.161-0.164l-0.093-0.049l-0.111,0.01l-0.18,0.109l-0.104,0.028l-0.119-0.022l-0.096-0.063l-0.07-0.096l-0.055-0.124l0.091-0.136  l0.061-0.123l0.017-0.138l-0.069-0.337l-0.013-0.334l-0.059-0.146l-0.153-0.097l-0.517-0.087l-0.207-0.119l-0.307-0.426  l-0.182-0.184l-0.201-0.143l-0.15-0.155l-0.077-0.205l0.019-0.29l0.056-0.116l0.089-0.062l0.209-0.083l0.092-0.068l0.072-0.079  l0.061-0.094l0.054-0.11l0.17-0.481l0.119-0.506L78.853,30.8l-0.298-0.239L78.2,30.368l-0.264-0.226l-0.048-0.092l-0.028-0.098  l-0.014-0.103l0.014-0.194l0.018-0.086l0.024-0.083l0.034-0.079l0.191-0.343l0.13-0.121l0.599-0.104l0.196-0.09l0.193-0.139  l0.151-0.15l0.126-0.192l0.055-0.215l-0.069-0.215l-0.174-0.123l-0.202,0.007l-0.21,0.051l-0.199,0.011L78.43,27.68l-0.113-0.007  l-0.38,0.099l-0.171-0.034L77.6,27.616l-0.124-0.176l-0.052-0.2l0.049-0.203l0.131-0.137l0.333-0.177l0.104-0.1l0.016-0.135  l-0.042-0.146l-0.077-0.128l-0.124-0.331l-0.094-0.115l-0.167-0.017l-0.158,0.017l-0.143-0.021l-0.135-0.053l-0.138-0.081  l-0.12-0.13l-0.043-0.161l0.027-0.168l0.092-0.151l0.06-0.044l0.138-0.075l0.049-0.054l0.027-0.081l0.007-0.252v-0.002l0.091-0.152  l0.267-0.188l0.082-0.135l-0.002-0.189l-0.046-0.175l0.013-0.155l0.161-0.137l0.075-0.036l0.881-0.152l0.146-0.074l0.416-0.309  l0.355-0.143l0.351-0.03l0.352,0.06l1.403,0.513l1.96,0.395l0.517-0.027l0.364-0.078l0.203,0.002l0.133,0.088l0.081,0.127l0.088,0.1  l0.222,0.163l0.229,0.112l1.462,0.396l0.245,0.01l0.32-0.078L87.7,24.4l0.235,0.032l0.104-0.027l0.112-0.093l0.321-0.333  l0.363-0.273l0.149-0.047l0.04-0.022l0.073-0.092l0.115-0.195l0.09-0.081l0.192-0.042l0.353,0.151l0.186-0.005l0.593-0.155  l0.767-0.444l0.212-0.082l0.214,0.035l0.242,0.179l0.087,0.033l0.096,0.003l0.481-0.104l0.071-0.039l0.508-0.486l0.053-0.129  l-0.022-0.361l0.046-0.155l0.136-0.106l0.193-0.067l0.198-0.018l0.15,0.043l0.146,0.094l0.084,0.017l0.071-0.055l0.104-0.119  l0.336-0.27l0.085-0.114l0.037-0.211l-0.046-0.186l-0.021-0.164l0.108-0.141L95,20.348z"></path></svg>