<svg xmlns="http://www.w3.org/2000/svg" xmlns:xlink="http://www.w3.org/1999/xlink" version="1.1" x="0px" y="0px" viewBox="0 0 48 48" enable-background="new 0 0 48 48" xml:space="preserve"><g><path d="M47,46c0.552,0,1,0.447,1,1s-0.448,1-1,1H1c-0.553,0-1-0.447-1-1s0.447-1,1-1h7.5h26H47z"></path><path d="M8.5,46c1.758,0,3.203-1.308,3.449-2.998H17h14.051C31.297,44.692,32.742,46,34.5,46s3.203-1.308,3.449-2.998H44   c1.654,0,3-1.346,3-3v-2V28.001c0-1.654-1.346-3-3-3H17h-0.605c-0.526,0.016-1.035,0.182-1.473,0.481L1.198,34.901   c-0.89,0.611-1.296,1.656-1.153,2.658C0.023,37.705,0,37.85,0,38.002v2c0,1.654,1.346,3,3,3h2.051C5.297,44.692,6.742,46,8.5,46z    M15,33H7.502L14,28.54l1-0.687V33z M21,33h-4v-5.999h2.111H21V33z M27,33h-4v-5.999h4V33z M33,42.5   c0-0.822,0.665-1.49,1.485-1.498h0.029C35.335,41.01,36,41.678,36,42.5c0,0.177-0.036,0.344-0.093,0.502   C35.7,43.582,35.15,44,34.5,44s-1.2-0.418-1.407-0.998C33.036,42.844,33,42.677,33,42.5z M8.5,39c-1.392,0-2.586,0.822-3.15,2.002   H3c-0.551,0-1-0.449-1-1v-0.205V39h2c0.553,0,1-0.447,1-1s-0.447-1-1-1H2.029c0.039-0.177,0.141-0.34,0.302-0.451l2.255-1.548   L4.588,35H15v6h2v-6h10v6h2V27.001h15c0.551,0,1,0.449,1,1v7.185V37h-1c-0.553,0-1,0.447-1,1s0.447,1,1,1h1v1.002   c0,0.551-0.449,1-1,1h-6.35C37.086,39.822,35.892,39,34.5,39s-2.586,0.822-3.15,2.002H17h-2.816H11.65   C11.086,39.822,9.892,39,8.5,39z M7,42.5c0-0.822,0.665-1.49,1.485-1.498h0.029C9.335,41.01,10,41.678,10,42.5   c0,0.177-0.036,0.344-0.093,0.502C9.7,43.582,9.15,44,8.5,44s-1.2-0.418-1.407-0.998C7.036,42.844,7,42.677,7,42.5z"></path><path d="M30,30v3c0,1.103,0.896,2,2,2h10c1.104,0,2-0.897,2-2v-3c0-1.104-0.896-2-2-2H32C30.896,28,30,28.896,30,30z M38,30h4v3h-4   V30z M31.998,33L32,30h4v3H31.998z"></path><path d="M19,36c0.553,0,1,0.447,1,1v2c0,0.553-0.447,1-1,1s-1-0.447-1-1v-2C18,36.447,18.447,36,19,36z"></path><path d="M13,36c0.553,0,1,0.447,1,1v2c0,0.553-0.447,1-1,1s-1-0.447-1-1v-2C12,36.447,12.447,36,13,36z"></path></g></svg>