<svg xmlns="http://www.w3.org/2000/svg" xmlns:xlink="http://www.w3.org/1999/xlink" version="1.1" x="0px" y="0px" viewBox="0 0 48 48" enable-background="new 0 0 48 48" xml:space="preserve"><g><path d="M47,46.208H36H10H1c-0.552,0-1,0.448-1,1s0.448,1,1,1h46c0.553,0,1-0.448,1-1S47.553,46.208,47,46.208z"></path><path d="M13.066,14.08c-0.207,1.223,0.074,2.453,0.793,3.464c0.719,1.011,1.789,1.681,3.012,1.887   c0.262,0.044,0.521,0.066,0.779,0.066c2.271,0,4.194-1.627,4.573-3.87c0.427-2.525-1.28-4.926-3.806-5.353   C15.844,9.84,13.488,11.583,13.066,14.08z M15.038,14.413c0.216-1.277,1.31-2.204,2.603-2.204c0.146,0,0.295,0.013,0.445,0.038   c1.437,0.243,2.408,1.61,2.166,3.048c-0.24,1.421-1.57,2.419-3.049,2.165c-0.695-0.117-1.305-0.499-1.713-1.074   C15.081,15.81,14.92,15.109,15.038,14.413z"></path><path d="M11,45.208h24c0,0.552,0.447,1,1,1s1-0.448,1-1h7c0.606,0,1.87,0,3.965-7.739C47.988,37.385,48,37.297,48,37.208   c0-1.395-0.96-2.56-2.251-2.894c-0.586-1.798-2.257-3.106-4.249-3.106c-0.001,0-0.002,0.001-0.003,0.001c0-0.001,0-0.001,0-0.001   v-27c0-0.552-0.447-1-1-1c0,0-6.36,0-6.478,0c-1.539,0-5.054,1.583-5.054,1.583c-0.781,0.781-0.781,2.047,0,2.828l2.121,2.122   c0.391,0.391,0.902,0.585,1.414,0.585s1.023-0.195,1.414-0.585c0,0,1.277-2.84,1.534-4.532h4.048v24.333L39,28.99   c-0.714-0.488-1.569-0.782-2.5-0.782c-0.837,0-1.612,0.245-2.284,0.645c-1.642-2.206-4.261-3.645-7.216-3.645   c-0.017,0-0.033,0.003-0.051,0.003c-0.251-2.246-2.138-4.003-4.449-4.003c-0.863,0-1.662,0.256-2.348,0.679   c-1.079-1.037-2.541-1.679-4.152-1.679c-0.833,0-1.618,0.187-2.339,0.496c-0.729-0.237-2.334-0.891-2.334-0.891l1.09-2.881   c0.261-0.688,0.236-1.436-0.066-2.106c-0.303-0.668-0.847-1.18-1.534-1.438c-0.262-0.1-0.536-0.158-0.815-0.174   c-1.205-0.069-2.302,0.644-2.729,1.772L5.21,20.44c-0.26,0.688-0.237,1.434,0.065,2.104c0.303,0.67,0.849,1.182,1.537,1.442   l1.788,0.676c-2.41,0.887-4.209,3.042-4.54,5.669C2.309,30.756,1,32.327,1,34.208c0,0.245,0.035,0.481,0.082,0.713   C0.426,35.472,0,36.287,0,37.208c0,0.089,0.012,0.177,0.035,0.261C2.13,45.208,3.394,45.208,4,45.208h5c0,0.552,0.447,1,1,1   S11,45.76,11,45.208z M32.394,8.219l-1.906-1.906c1.019-0.422,2.162-0.825,2.912-1.005C33.228,6.021,32.847,7.13,32.394,8.219z    M40.942,33.275c0.18-0.041,0.365-0.067,0.558-0.067c0.814,0,1.531,0.396,1.988,1H39.51C39.859,33.748,40.36,33.409,40.942,33.275z    M7.518,22.114c-0.389-0.146-0.584-0.579-0.437-0.966l2.061-5.454c0.119-0.313,0.425-0.503,0.745-0.484   c0.073,0.004,0.149,0.02,0.224,0.047c0.387,0.146,0.583,0.58,0.437,0.966l-1.798,4.752c0,0,1.576,0.599,2.919,1.109   c-0.357,0.376-0.671,0.792-0.922,1.251L7.518,22.114z M4.113,32.425C4.382,32.291,4.68,32.208,5,32.208h1c0.553,0,1-0.448,1-1   c0-0.51-0.387-0.914-0.88-0.976c0.393-1.966,1.921-3.525,3.885-3.924c0.005,0.307,0.04,0.605,0.091,0.899h0.019   c0.083,0.405,0.4,0.739,0.832,0.816c0.557,0.101,1.086-0.265,1.198-0.816h0.004c-0.001-0.002-0.001-0.004-0.001-0.007   c0.001-0.006,0.006-0.011,0.007-0.018c0.043-0.242-0.142-0.805-0.144-0.873C12.01,26.275,12,26.243,12,26.208   c0-0.667,0.18-1.288,0.471-1.842c0.669-1.276,1.991-2.158,3.529-2.158c1.052,0,2.003,0.416,2.717,1.082   c0.287,0.267,0.529,0.578,0.726,0.918h0.019c-0.003,0.032-0.019,0.061-0.019,0.094c0,0.604,0.489,1.094,1.094,1.094   s1.094-0.49,1.094-1.094c0-0.033-0.029-0.181-0.046-0.225c-0.028-0.133-0.202-0.506-0.236-0.574   c0.347-0.182,0.734-0.294,1.152-0.294c1.205,0,2.192,0.864,2.426,2v0.015C24.41,25.263,24,25.682,24,26.208s0.41,0.945,0.926,0.985   v0.015H27c2.381,0,4.486,1.197,5.751,3.02c-0.112,0.169-0.209,0.349-0.296,0.532c-0.057,0.092-0.096,0.188-0.124,0.295   c-0.02,0.053-0.03,0.153-0.03,0.153c-0.005,0.043-0.025,0.081-0.025,0.125c0,0.621,0.503,1.125,1.125,1.125   s1.125-0.504,1.125-1.125c0-0.044,0.424-0.599,0.699-0.764c0.375-0.224,0.808-0.361,1.275-0.361c1.148,0,2.108,0.782,2.4,1.84   c-0.745,0.531-1.312,1.284-1.621,2.16H3C3,33.426,3.456,32.753,4.113,32.425z M4.269,43.208c-0.555-0.722-1.575-3.607-2.263-6.111   c0.056-0.499,0.48-0.889,0.994-0.889h42c0.514,0,0.938,0.39,0.994,0.889c-0.688,2.504-1.708,5.39-2.263,6.111H4.269z"></path><circle cx="28" cy="10.208" r="1"></circle><circle cx="26" cy="12.208" r="1"></circle><circle cx="24" cy="14.208" r="1"></circle><circle cx="30" cy="12.208" r="1"></circle><circle cx="29" cy="15.208" r="1"></circle><circle cx="28" cy="18.208" r="1"></circle><circle cx="26" cy="8.208" r="1"></circle><circle cx="23" cy="9.208" r="1"></circle><path d="M2,12.208c1.105,0,2-0.896,2-2c0-0.114,0-0.441,0-0.5V5.826l1.447-0.724c0.494-0.247,0.694-0.848,0.447-1.342   C5.646,3.267,5.047,3.067,4.553,3.313l-2,1C2.214,4.483,2,4.829,2,5.208v3c-1.105,0-2,0.896-2,2S0.895,12.208,2,12.208z"></path><path d="M8,9.208c1.105,0,2-0.896,2-2c0-0.114,0-0.441,0-0.5V3.055l4-0.667v1.819c-1.105,0-2,0.896-2,2s0.895,2,2,2s2-0.896,2-2   c0-0.114,0-0.441,0-0.5v-4.5c0-0.294-0.129-0.573-0.354-0.763c-0.224-0.189-0.52-0.271-0.811-0.223l-6,1   C8.354,1.302,8,1.719,8,2.208v3c-1.105,0-2,0.896-2,2S6.895,9.208,8,9.208z"></path><path d="M23.5,29.208c-0.913,0-1.737,0.358-2.357,0.934C20.242,28.855,18.769,28,17.08,28c-2.334,0-4.268,1.621-4.813,3.789   c-0.053,0.109-0.106,0.43-0.106,0.435c0,0.562,0.454,1.016,1.016,1.016s1.016-0.454,1.016-1.016l0.008-0.016   C14.55,30.939,15.701,30,17.08,30s2.53,0.939,2.881,2.208c0,0,0,0.04,0,0.062c0,0.587,0.476,1.062,1.062,1.062   s1.062-0.476,1.062-1.062c0-0.022,0.006-0.062,0.006-0.062c0.207-0.581,0.757-1,1.408-1c0.64,0,1.178,0.407,1.394,0.972   c0,0.588,0.457,1.153,1.044,1.153S27,32.857,27,32.271c0-0.197-0.068-0.372-0.162-0.53C26.416,30.283,25.092,29.208,23.5,29.208z"></path></g></svg>