<svg xmlns="http://www.w3.org/2000/svg" xmlns:xlink="http://www.w3.org/1999/xlink" version="1.1" x="0px" y="0px" viewBox="0 0 48 48" enable-background="new 0 0 48 48" xml:space="preserve"><g><path d="M26,17h7c0.553,0,1-0.448,1-1s-0.447-1-1-1h-7c-0.553,0-1,0.448-1,1S25.447,17,26,17z"></path><path d="M39.22,19.219c0.479-0.532,0.78-1.229,0.78-2c0-1.654-1.346-3-3-3v-3.6c0-2.426-1.974-4.4-4.4-4.4H20.4   c-2.427,0-4.4,1.974-4.4,4.4v2.1h-2.75c-0.623,0-1.233,0.215-1.72,0.604c0,0-0.153,0.114-0.163,0.122l-0.464,0.379l-10.536,8.62   c-0.428,0.351-0.491,0.98-0.142,1.407c0.198,0.242,0.485,0.367,0.775,0.367c0.223,0,0.446-0.074,0.632-0.226l4.127-3.377   l1.827-1.495l4.584-3.75l0.61-0.488c0.133-0.105,0.299-0.164,0.469-0.164h7c0.414,0,0.75,0.336,0.75,0.75s-0.336,0.75-0.75,0.75H18   h-2h-2c-0.553,0-1,0.447-1,1s0.447,1,1,1h2c0,3.309-2.691,6-6,6c-0.553,0-1,0.447-1,1c0,0.553,0.447,1,1,1   c2.39,0,4.533-1.059,6-2.726v6.726h-3c-0.082,0-0.163,0.01-0.242,0.031l-12,4.969c-0.536,0.135-0.862,0.678-0.728,1.213   c0.113,0.455,0.521,0.758,0.969,0.758c0.08,0,0.162-0.01,0.243-0.031l11.881-4.939H16v5.6c0,2.428,1.974,4.4,4.4,4.4H32.6   c2.427,0,4.4-1.973,4.4-4.4v-5.6c1.654,0,3-1.346,3-3c0-0.771-0.301-1.467-0.78-2c0.479-0.531,0.78-1.229,0.78-2   c0-0.771-0.301-1.467-0.78-2c0.479-0.532,0.78-1.229,0.78-2S39.699,19.751,39.22,19.219z M26.5,40.219c-0.553,0-1-0.447-1-1   s0.447-1,1-1s1,0.447,1,1S27.053,40.219,26.5,40.219z M35,31.219v5H18v-18h2.25c1.517,0,2.75-1.233,2.75-2.75   s-1.233-2.75-2.75-2.75H18v-1.5h17V31.219z M37,30.219v-2c0.552,0,1,0.449,1,1S37.552,30.219,37,30.219z M37,26.219v-2   c0.552,0,1,0.449,1,1C38,25.77,37.552,26.219,37,26.219z M37,22.219v-2c0.552,0,1,0.449,1,1S37.552,22.219,37,22.219z M37,18.219   v-2c0.552,0,1,0.449,1,1S37.552,18.219,37,18.219z"></path><path d="M22.293,19.293L21,20.586l-0.293-0.293c-0.391-0.391-1.023-0.391-1.414,0s-0.391,1.023,0,1.414l1,1   C20.488,22.902,20.744,23,21,23s0.512-0.098,0.707-0.293l2-2c0.391-0.391,0.391-1.023,0-1.414S22.684,18.902,22.293,19.293z"></path><path d="M22.293,24.293L21,25.586l-0.293-0.293c-0.391-0.391-1.023-0.391-1.414,0s-0.391,1.023,0,1.414l1,1   C20.488,27.902,20.744,28,21,28s0.512-0.098,0.707-0.293l2-2c0.391-0.391,0.391-1.023,0-1.414S22.684,23.902,22.293,24.293z"></path><path d="M26,27h7c0.553,0,1-0.447,1-1s-0.447-1-1-1h-7c-0.553,0-1,0.447-1,1S25.447,27,26,27z"></path><path d="M26,22h7c0.553,0,1-0.448,1-1s-0.447-1-1-1h-7c-0.553,0-1,0.448-1,1S25.447,22,26,22z"></path><path d="M26,32h7c0.553,0,1-0.447,1-1s-0.447-1-1-1h-7c-0.553,0-1,0.447-1,1S25.447,32,26,32z"></path><path d="M21,29c-1.103,0-2,0.896-2,2s0.897,2,2,2s2-0.896,2-2S22.103,29,21,29z M21,31.666c-0.368,0-0.667-0.299-0.667-0.666   s0.299-0.666,0.667-0.666s0.667,0.299,0.667,0.666S21.368,31.666,21,31.666z"></path></g></svg>