<?xml version="1.0" encoding="utf-8"?><!DOCTYPE svg PUBLIC "-//W3C//DTD SVG 1.1//EN" "http://www.w3.org/Graphics/SVG/1.1/DTD/svg11.dtd"><svg version="1.1" xmlns="http://www.w3.org/2000/svg" xmlns:xlink="http://www.w3.org/1999/xlink" x="0px" y="0px" viewBox="0 0 100 87.766" enable-background="new 0 0 100 87.766" xml:space="preserve"><path fill="#010101" d="M93.225,0c0,0-71.603,11.066-92.383,62.114C23.655,15.585,93.225,0,93.225,0z"></path><path fill="#010101" d="M97.516,1.129C91.44,6.962,84.852,13.224,78.073,19.612c0.021-0.22,0.033-0.442,0.033-0.669
	c0-3.781-3.065-6.849-6.849-6.849c-3.782,0-6.849,3.066-6.849,6.849c0,3.783,3.066,6.85,6.849,6.85c0.087,0,0.171-0.01,0.257-0.014
	c-2.087,1.958-4.182,3.917-6.275,5.872c0.158-0.578,0.25-1.186,0.25-1.814c0-3.783-3.066-6.85-6.848-6.85
	c-3.783,0-6.85,3.066-6.85,6.85c0,3.782,3.066,6.849,6.85,6.849c0.457,0,0.903-0.047,1.336-0.132
	c-1.968,1.829-3.928,3.648-5.873,5.448c0.078-0.413,0.123-0.837,0.123-1.272c0-3.783-3.066-6.849-6.849-6.849
	c-3.782,0-6.849,3.065-6.849,6.849c0,3.782,3.066,6.85,6.849,6.85c0.247,0,0.49-0.016,0.73-0.04
	c-2.017,1.856-4.008,3.687-5.964,5.479c0.093-0.45,0.143-0.917,0.143-1.395c0-3.782-3.067-6.85-6.849-6.85
	c-3.782,0-6.849,3.066-6.849,6.85s3.067,6.849,6.849,6.849c0.267,0,0.529-0.019,0.788-0.048c-2.062,1.877-4.072,3.7-6.016,5.457
	c0.089-0.441,0.137-0.897,0.137-1.365c0-3.783-3.067-6.849-6.849-6.849c-3.783,0-6.849,3.065-6.849,6.849
	c0,3.782,3.066,6.85,6.849,6.85c0.219,0,0.435-0.014,0.649-0.033c-2.055,1.837-4.006,3.57-5.837,5.187
	c0.059-0.361,0.098-0.73,0.098-1.109c0-3.782-3.067-6.85-6.849-6.85c-3.782,0-6.849,3.067-6.849,6.85s3.066,6.849,6.849,6.849
	c0.059,0,0.115-0.007,0.173-0.009C8.173,83.3,5.437,85.543,3.78,86.736c7.68,2.26,18.354,0.581,25.524-2.936
	c11.972-5.872,39.393-36.096,54.887-47.433C93.451,29.59,100,16.715,100,9.938C100,3.163,97.516,1.129,97.516,1.129z"></path><path fill="#010101" d="M2.676,73.407c0-4.897,3.984-8.883,8.882-8.883c1.243,0,2.422,0.266,3.496,0.729
	c-0.281-0.864-0.438-1.784-0.438-2.74c0-4.896,3.984-8.882,8.882-8.882c1.241,0,2.42,0.262,3.494,0.725
	c-0.28-0.861-0.436-1.779-0.436-2.734c0-4.897,3.984-8.882,8.882-8.882c1.243,0,2.422,0.268,3.496,0.731
	c-0.281-0.865-0.438-1.785-0.438-2.743c0-4.896,3.984-8.882,8.882-8.882c0.957,0,1.872,0.168,2.733,0.451
	c-0.225-0.783-0.354-1.606-0.354-2.461c0-4.897,3.984-8.882,8.883-8.882c1.569,0,3.041,0.416,4.321,1.135
	c-0.373-0.98-0.586-2.037-0.586-3.146c0-4.896,3.983-8.882,8.882-8.882c2.059,0,3.949,0.709,5.456,1.889
	C87.891,3.747,94.128,0.677,94.128,0.677s-48.902,14.118-75.894,41.11C-0.287,60.308-1.643,68.438,1.068,86.057
	c1.639-1.971,3.26-3.895,4.867-5.782C3.947,78.645,2.676,76.171,2.676,73.407z"></path></svg>