<svg xmlns:dc="http://purl.org/dc/elements/1.1/" xmlns:cc="http://creativecommons.org/ns#" xmlns:rdf="http://www.w3.org/1999/02/22-rdf-syntax-ns#" xmlns:svg="http://www.w3.org/2000/svg" xmlns="http://www.w3.org/2000/svg" xmlns:sodipodi="http://sodipodi.sourceforge.net/DTD/sodipodi-0.dtd" xmlns:inkscape="http://www.inkscape.org/namespaces/inkscape" version="1.1" x="0px" y="0px" viewBox="0 0 100 100.00896"><g transform="translate(-123.12485,-347.64058)"><path style="text-indent:0;text-transform:none;direction:ltr;block-progression:tb;baseline-shift:baseline;color:#000000;enable-background:accumulate;" d="m 133.85848,352.64058 c -3.12684,0 -5.73363,2.60679 -5.73363,5.73363 l 0,78.5417 c 0,3.12685 2.60679,5.73363 5.73363,5.73363 l 78.53274,0 c 3.12685,0 5.73363,-2.60678 5.73363,-5.73363 l 0,-78.5417 c 0,-3.12684 -2.60678,-5.73363 -5.73363,-5.73363 l -78.53274,0 z m 0,5.73363 78.53274,0 0,78.5417 -78.53274,0 0,-78.5417 z" fill="#000000" fill-opacity="1" stroke="none" marker="none" visibility="visible" display="inline" overflow="visible"></path><path style="text-indent:0;text-transform:none;direction:ltr;block-progression:tb;baseline-shift:baseline;color:#000000;enable-background:accumulate;" d="m 133.01635,353.48271 -4.04937,4.05833 42.13318,42.13319 4.04938,-4.05834 -42.13319,-42.13318 z" fill="#000000" fill-opacity="1" stroke="none" marker="none" visibility="visible" display="inline" overflow="visible"></path><path style="text-indent:0;text-transform:none;direction:ltr;block-progression:tb;baseline-shift:baseline;color:#000000;enable-background:accumulate;" d="m 130.99166,395.61589 0,8.60044 84.26638,0 0,-8.60044 -84.26638,0 z" fill="#000000" fill-opacity="1" stroke="none" marker="none" visibility="visible" display="inline" overflow="visible"></path><path style="text-indent:0;text-transform:none;direction:ltr;block-progression:tb;baseline-shift:baseline;color:#000000;enable-background:accumulate;" d="m 133.65519,354.06932 a 4.1059093,4.1059093 0 0 0 -4.10549,4.1055 l 0,6.77407 a 4.1059093,4.1059093 0 0 0 4.10549,4.1055 c 5.95982,0 10.87957,-4.91976 10.87957,-10.87957 a 4.1059093,4.1059093 0 0 0 -4.10549,-4.1055 l -6.77408,0 z" fill="#000000" fill-opacity="1" fill-rule="nonzero" stroke="none" marker="none" visibility="visible" display="inline" overflow="visible"></path><path style="text-indent:0;text-transform:none;direction:ltr;block-progression:tb;baseline-shift:baseline;color:#000000;enable-background:accumulate;" d="m 135.04104,358.92069 a 0.71677484,0.71677484 0 0 0 -0.63608,0.72566 l 0,14.30719 a 0.71677484,0.71677484 0 1 0 1.43341,0 l 0,-14.30719 a 0.71677484,0.71677484 0 0 0 -0.79733,-0.72566 z" fill="#000000" fill-opacity="1" stroke="none" marker="none" visibility="visible" display="inline" overflow="visible"></path><path style="text-indent:0;text-transform:none;direction:ltr;block-progression:tb;baseline-shift:baseline;color:#000000;enable-background:accumulate;" d="m 135.0052,358.19503 a 1.4335497,1.4335497 0 0 0 -1.26319,1.81864 l 5.0438,18.83137 a 1.4335497,1.4335497 0 1 0 2.76827,-0.74358 l -5.0438,-18.83137 a 1.4335497,1.4335497 0 0 0 -1.50508,-1.07506 z" fill="#000000" fill-opacity="1" stroke="none" marker="none" visibility="visible" display="inline" overflow="visible"></path><g transform="matrix(0.27691284,0.07419857,0.07419857,-0.27691284,-422.50608,402.96429)" style="" stroke="#000000" stroke-opacity="1"><path d="m 1825.3987,645.55209 62.5353,16.75628" style="" fill="none" stroke="#000000" stroke-width="5" stroke-linecap="round" stroke-linejoin="miter" stroke-miterlimit="4" stroke-opacity="1" stroke-dasharray="none"></path><path d="m 1839.7333,649.39301 67.9973,2e-5" style="" fill="none" stroke="#000000" stroke-width="10" stroke-linecap="round" stroke-linejoin="miter" stroke-miterlimit="4" stroke-opacity="1" stroke-dasharray="none"></path></g><path style="text-indent:0;text-transform:none;direction:ltr;block-progression:tb;baseline-shift:baseline;color:#000000;enable-background:accumulate;" d="m 197.05378,364.46618 c -0.57048,0.0335 -1.17978,0.27882 -1.6305,0.71671 -0.44368,0.43102 -0.71144,1.04958 -0.72566,1.62154 -0.0142,0.57196 0.17098,1.06751 0.40314,1.52299 0.46432,0.91097 1.17738,1.71403 1.85447,2.4995 0.67709,0.78548 1.31971,1.55813 1.59466,2.09636 0.13748,0.26911 0.17186,0.4607 0.17022,0.53753 -0.002,0.0768 0.0114,0.0622 -0.0985,0.17022 -0.11746,0.1153 -0.16155,0.13366 -0.3046,0.14334 -0.14306,0.01 -0.38681,-0.0292 -0.70775,-0.1523 -0.64188,-0.2463 -1.52476,-0.81134 -2.42783,-1.41549 -0.90307,-0.60415 -1.83483,-1.24959 -2.83098,-1.6305 -0.49807,-0.19046 -1.02346,-0.31887 -1.59466,-0.27772 -0.5712,0.0411 -1.17568,0.29942 -1.62154,0.74357 -0.43756,0.4359 -0.69488,1.05043 -0.69879,1.62155 -0.004,0.57111 0.19066,1.07256 0.43002,1.52299 0.47873,0.90086 1.20282,1.69036 1.89031,2.46367 0.68749,0.7733 1.33391,1.52485 1.61258,2.05156 0.13934,0.26335 0.18013,0.45202 0.17918,0.51961 -8.6e-4,0.0676 0.0185,0.0469 -0.0896,0.1523 -0.11476,0.1119 -0.15455,0.12692 -0.28668,0.13438 -0.13214,0.007 -0.37033,-0.0354 -0.68087,-0.16126 -0.62109,-0.25175 -1.46667,-0.8259 -2.3472,-1.44236 -0.88053,-0.61647 -1.79635,-1.27476 -2.77723,-1.6753 -0.49044,-0.20026 -1.00812,-0.34004 -1.57675,-0.31355 -0.56862,0.0265 -1.17504,0.26023 -1.6305,0.68982 -0.45282,0.4271 -0.72857,1.03811 -0.75253,1.61259 -0.024,0.57447 0.14181,1.08653 0.36731,1.54987 0.45099,0.92667 1.16886,1.74866 1.83655,2.55325 0.66768,0.80459 1.2844,1.58551 1.54987,2.13219 0.13273,0.27334 0.16474,0.46943 0.16126,0.54649 -0.003,0.0771 0.0179,0.0705 -0.0986,0.17917 -0.11621,0.10851 -0.16023,0.11998 -0.29564,0.12543 -0.13541,0.005 -0.37142,-0.0407 -0.68087,-0.17022 -0.61889,-0.25907 -1.45998,-0.83878 -2.32928,-1.46028 -0.86931,-0.6215 -1.77027,-1.27874 -2.74139,-1.68425 -0.48557,-0.20276 -1.00079,-0.34725 -1.56779,-0.32252 -0.567,0.0247 -1.1683,0.26182 -1.62154,0.68983 -0.45114,0.42601 -0.73235,1.02962 -0.75254,1.60362 -0.0202,0.574 0.15572,1.08218 0.38523,1.54091 0.45902,0.91746 1.17943,1.73201 1.85447,2.52638 0.67503,0.79437 1.30431,1.57139 1.57674,2.11427 0.13622,0.27145 0.17254,0.46121 0.17022,0.53753 -0.002,0.0763 0.0227,0.0716 -0.0896,0.17918 -0.11656,0.11164 -0.16644,0.11804 -0.3046,0.12542 -0.13815,0.007 -0.3756,-0.0348 -0.68982,-0.16126 -0.62846,-0.25301 -1.48975,-0.82857 -2.37408,-1.44236 -0.88433,-0.6138 -1.79475,-1.2625 -2.77723,-1.65738 -0.49123,-0.19744 -1.01681,-0.3362 -1.5857,-0.3046 -0.56889,0.0316 -1.17096,0.27307 -1.62154,0.70775 -0.89156,0.86012 -0.97086,2.12269 -0.73462,3.19828 0.23623,1.0756 0.75539,2.13475 1.3259,3.1087 1.14102,1.94792 2.54429,3.5656 2.54429,3.5656 l 1.57675,-1.35277 c 0,0 -1.30274,-1.52382 -2.32033,-3.261 -0.50879,-0.8686 -0.93723,-1.7904 -1.09297,-2.49951 -0.15574,-0.7091 -0.0785,-1.04025 0.14334,-1.25423 0.11615,-0.11205 0.15906,-0.12679 0.29564,-0.13438 0.13659,-0.008 0.37642,0.0353 0.68983,0.16126 0.62682,0.25194 1.4898,0.81964 2.37408,1.43341 0.88428,0.61376 1.79427,1.2706 2.77722,1.66633 0.49148,0.19787 1.01681,0.33497 1.58571,0.3046 0.5689,-0.0304 1.16926,-0.27457 1.62154,-0.70774 0.44844,-0.4295 0.71722,-1.03896 0.73462,-1.61259 0.0174,-0.57363 -0.15487,-1.08189 -0.38523,-1.54091 -0.46071,-0.91805 -1.1795,-1.7321 -1.85447,-2.52638 -0.67496,-0.79428 -1.30668,-1.56554 -1.57674,-2.10531 -0.13503,-0.26989 -0.1728,-0.4554 -0.17022,-0.52857 0.003,-0.0732 -0.0151,-0.0629 0.0985,-0.17022 0.11557,-0.10914 0.15371,-0.11962 0.28668,-0.12542 0.13296,-0.006 0.37268,0.0326 0.68087,0.16126 0.61637,0.25738 1.46005,0.83883 2.32928,1.46028 0.86923,0.62145 1.76057,1.28639 2.73243,1.69321 0.48593,0.20341 1.00977,0.34535 1.57675,0.32252 0.56698,-0.0228 1.17464,-0.25523 1.6305,-0.68087 0.45474,-0.4246 0.72657,-1.03788 0.75254,-1.61258 0.026,-0.57471 -0.14242,-1.0778 -0.36731,-1.54091 -0.44979,-0.92625 -1.15986,-1.74861 -1.8276,-2.55326 -0.66774,-0.80465 -1.29167,-1.59222 -1.55883,-2.14115 -0.13357,-0.27447 -0.16456,-0.46718 -0.16125,-0.54649 0.003,-0.0793 -0.0169,-0.0792 0.0985,-0.18813 0.11665,-0.11002 0.16522,-0.11893 0.3046,-0.12542 0.13938,-0.006 0.37555,0.0329 0.68983,0.16125 0.62855,0.25667 1.48437,0.83471 2.36512,1.45133 0.88074,0.61661 1.78961,1.26965 2.76826,1.66633 0.48933,0.19835 1.00815,0.34565 1.57675,0.31356 0.5686,-0.0321 1.17389,-0.28022 1.62154,-0.7167 0.44173,-0.4307 0.70861,-1.04974 0.7167,-1.62154 0.008,-0.57181 -0.18296,-1.06402 -0.42106,-1.51404 -0.47619,-0.90003 -1.2027,-1.69024 -1.8903,-2.46367 -0.68761,-0.77343 -1.33024,-1.5292 -1.61258,-2.06052 -0.14118,-0.26566 -0.17968,-0.4562 -0.17918,-0.52857 5.7e-4,-0.0724 -0.0254,-0.0646 0.0806,-0.17021 0.11657,-0.11613 0.16477,-0.12431 0.3046,-0.13439 0.13983,-0.0101 0.38848,0.0213 0.70774,0.14335 0.63852,0.24416 1.50694,0.8114 2.40992,1.41548 0.90297,0.60409 1.8338,1.24788 2.83097,1.6305 0.49859,0.19132 1.03235,0.32534 1.60363,0.28668 0.57128,-0.0386 1.17216,-0.29348 1.62154,-0.73462 0.44164,-0.43356 0.70454,-1.04092 0.7167,-1.61258 0.0122,-0.57166 -0.17036,-1.07627 -0.40314,-1.53195 -0.46558,-0.91137 -1.1864,-1.7141 -1.86343,-2.4995 -0.67703,-0.78541 -1.30358,-1.55145 -1.57675,-2.0874 -0.13659,-0.26798 -0.17207,-0.463 -0.17022,-0.53753 0.002,-0.0745 -0.0214,-0.0624 0.0896,-0.17022 0.11602,-0.11271 0.15589,-0.12616 0.29564,-0.13438 0.13975,-0.008 0.3901,0.0356 0.70775,0.16126 0.63529,0.25139 1.4986,0.82211 2.39199,1.43341 0.89339,0.6113 1.81594,1.25934 2.8041,1.64841 0.49408,0.19454 1.0153,0.33291 1.58571,0.29564 0.57041,-0.0373 1.17608,-0.29219 1.62154,-0.73462 l -1.46028,-1.4782 c -0.11474,0.11396 -0.16073,0.12557 -0.29564,0.13439 -0.13491,0.009 -0.37469,-0.0282 -0.68983,-0.1523 -0.63028,-0.24817 -1.49875,-0.82221 -2.392,-1.43341 -0.89324,-0.6112 -1.8144,-1.25678 -2.8041,-1.64842 -0.49484,-0.19582 -1.01522,-0.33813 -1.5857,-0.3046 z" fill="#000000" fill-opacity="1" stroke="none" marker="none" visibility="visible" display="inline" overflow="visible"></path></g></svg>