<svg xmlns="http://www.w3.org/2000/svg" xmlns:xlink="http://www.w3.org/1999/xlink" version="1.1" x="0px" y="0px" viewBox="0 0 100 100" enable-background="new 0 0 100 100" xml:space="preserve"><g><path d="M24.49,17.967c0,0-5.134,0.976-4.067,2.986C21.584,23.139,21.975,19.922,24.49,17.967z"></path><path fill="#000000" d="M21.157,22.146L21.157,22.146c-0.551,0-0.899-0.522-1.14-0.977c-0.248-0.466-0.266-0.948-0.051-1.395   c0.727-1.515,4.061-2.188,4.438-2.26c0.209-0.039,0.418,0.069,0.505,0.263c0.088,0.194,0.031,0.423-0.137,0.554   c-0.956,0.742-1.587,1.681-2.096,2.435C22.138,21.567,21.748,22.146,21.157,22.146z M22.924,18.865   c-0.961,0.332-1.881,0.793-2.128,1.309c-0.087,0.181-0.077,0.355,0.034,0.564c0.175,0.329,0.288,0.441,0.334,0.477   c0.167-0.099,0.501-0.595,0.749-0.963C22.188,19.844,22.516,19.356,22.924,18.865z"></path></g><ellipse fill="#000000" cx="33.704" cy="21.031" rx="6.396" ry="7.292"></ellipse><path fill="#000000" d="M21.436,15.801c0.426,0,0.968-0.116,1.595-0.251c1.1-0.237,2.526-0.545,4.066-0.381  c0.02,0.002,0.039,0.003,0.059,0.002c0.275-0.01,0.469-0.203,0.469-0.46c0-0.197-0.124-0.365-0.297-0.431  c-0.473-0.301-3.098-1.913-4.958-1.913c-1.015,0-1.713,0.488-1.965,1.374c-0.227,0.795-0.21,1.306,0.054,1.656  C20.763,15.801,21.27,15.801,21.436,15.801z"></path><path fill="#000000" d="M40.045,15.163c0.062,0,0.125-0.013,0.184-0.039c1.415-0.616,2.844-0.75,3.993-0.858  c1.2-0.112,2.067-0.194,2.372-0.829c0.262-0.547-0.081-1.188-0.409-1.686c-0.365-0.554-0.891-0.847-1.521-0.847  c-2.039,0-4.68,3.147-4.974,3.505c-0.135,0.165-0.139,0.4-0.011,0.57C39.767,15.098,39.904,15.163,40.045,15.163z"></path><path fill="#000000" d="M42.488,16.326c-0.207,0.048-0.354,0.231-0.357,0.444s0.142,0.399,0.348,0.451  c1.174,0.295,2.13,0.901,2.898,1.387c0.664,0.42,1.144,0.724,1.593,0.724c0.897,0,0.978-1.073,1.004-1.425  c0.035-0.459-0.099-0.866-0.386-1.174c-0.45-0.485-1.239-0.721-2.412-0.721C43.869,16.012,42.543,16.313,42.488,16.326z   M46.97,18.863L46.97,18.863v0.008V18.863z"></path><path fill="#000000" d="M78.553,44.277v-6.049c1.571,0.427,2.704,1.546,2.704,2.869c0,0.763,0.618,1.382,1.381,1.382  c0.763,0,1.381-0.619,1.381-1.382c0-2.809-2.351-5.16-5.466-5.705v-1.853c0-0.763-0.618-1.381-1.381-1.381s-1.381,0.618-1.381,1.381  v1.853c-3.116,0.545-5.466,2.896-5.466,5.705c0,2.81,2.35,5.16,5.466,5.705v6.05c-1.571-0.427-2.704-1.546-2.704-2.869  c0-0.763-0.619-1.381-1.381-1.381c-0.763,0-1.381,0.618-1.381,1.381c0,2.809,2.35,5.16,5.466,5.705v1.491  c0,0.763,0.618,1.381,1.381,1.381s1.381-0.618,1.381-1.381v-1.491c3.116-0.545,5.466-2.896,5.466-5.705S81.668,44.822,78.553,44.277  z M73.086,41.097c0-1.323,1.132-2.442,2.704-2.869v5.738C74.219,43.539,73.086,42.42,73.086,41.097z M78.553,52.852v-5.738  c1.571,0.427,2.704,1.546,2.704,2.869C81.256,51.306,80.124,52.425,78.553,52.852z"></path><path fill="#000000" d="M68.087,56.05c-0.642-0.205-1.336,0.084-1.646,0.682l-1.428,2.762l-14.698-3.811  c0.219-0.6,0.254-1.237-0.008-1.804c-3.164-6.846-6.562-18.146-11.933-21.778c-3.495-2.364-10.478-2.739-14.698-2.705  c-3.577,0.028-11.388,0.771-13.797,3.783C8.017,35.508,8.519,41.351,8.96,44.96L6.9,44.426c-1.228-0.319-2.487,0.42-2.807,1.651  c-0.319,1.23,0.42,2.487,1.651,2.806l14.896,3.862c-0.178,1.436-0.271,2.712-0.23,3.697c0.189,4.562,3.999,13.078,3.815,17.641  c-0.126,3.137-2.15,6.002-3.192,9.334c-1.078,3.45,4.312,4.312,5.713,0.431c0.904-2.504,3.352-6.645,3.667-9.702  c0.344-3.338-1.987-12.349-1.379-13.224c1.222-1.762,8.858,8.474,9.2,12.3c0.263,2.942-2.111,7.626-2.762,10.626  c-0.795,3.666,5.134,3.774,6.073,0.432c0.64-2.275,3.322-8.205,2.727-11.058c-0.924-4.431-6.879-11.701-8.086-15.739  c-0.069-0.233-0.13-0.489-0.187-0.756l26.846,6.961l-2.054,3.973c-0.192,0.371-0.206,0.809-0.038,1.19  c0.168,0.382,0.5,0.668,0.902,0.777c0.165,0.045,4.096,1.097,8.961,1.097c0,0,0.001,0,0.001,0c5.138,0,9.325-1.155,12.444-3.432  c0.473-0.345,0.677-0.951,0.509-1.512C83.305,64.894,81.308,60.248,68.087,56.05z M37.371,40.05  c2.06-0.818,5.025,8.951,6.961,14.082l-8.757-2.27C35.534,46.609,36.425,40.425,37.371,40.05z M14.372,37.004  c1.489-1.825,9.196-2.812,9.305-1.464c0.101,1.243-1.312,7.131-2.315,12.636l-6.635-1.72C14.234,43.018,12.867,38.848,14.372,37.004  z"></path></svg>