<svg xmlns="http://www.w3.org/2000/svg" xmlns:xlink="http://www.w3.org/1999/xlink" version="1.1" x="0px" y="0px" viewBox="0 0 100 100" enable-background="new 0 0 100 100" xml:space="preserve"><path d="M46.095,28.479c-0.063,0-0.129-0.007-0.193-0.021c-1.34-0.287-2.594-0.992-3.628-2.041c-0.356-0.363-0.353-0.947,0.01-1.305  c0.363-0.357,0.945-0.351,1.304,0.01c0.78,0.793,1.713,1.322,2.7,1.533c0.497,0.106,0.815,0.596,0.708,1.094  C46.903,28.183,46.521,28.479,46.095,28.479z M48.829,28.393c-0.402,0-0.772-0.266-0.887-0.672  c-0.138-0.491,0.148-0.999,0.638-1.137c0.972-0.273,1.879-0.856,2.624-1.689c0.34-0.38,0.925-0.41,1.302-0.071  c0.379,0.339,0.411,0.922,0.072,1.301c-0.979,1.095-2.19,1.867-3.499,2.234C48.995,28.382,48.911,28.393,48.829,28.393z   M41.377,24.422c-0.349,0-0.683-0.197-0.839-0.535c-0.56-1.214-0.869-2.532-0.92-3.918c-0.019-0.509,0.379-0.937,0.888-0.954  c0.466-0.043,0.937,0.378,0.954,0.887c0.042,1.141,0.295,2.221,0.753,3.213c0.213,0.462,0.012,1.01-0.451,1.224  C41.637,24.396,41.505,24.422,41.377,24.422z M53.344,24.094c-0.118,0-0.236-0.022-0.352-0.069  c-0.471-0.194-0.694-0.733-0.501-1.204c0.419-1.012,0.63-2.104,0.63-3.243c0-0.499-0.041-0.996-0.123-1.478  c-0.086-0.501,0.251-0.978,0.754-1.062c0.501-0.085,0.978,0.252,1.062,0.753c0.1,0.583,0.15,1.184,0.15,1.787  c0,1.383-0.258,2.71-0.769,3.947C54.05,23.88,53.706,24.094,53.344,24.094z M40.83,18.118c-0.075,0-0.152-0.01-0.229-0.029  c-0.493-0.126-0.791-0.627-0.665-1.12c0.345-1.352,0.968-2.608,1.8-3.634c0.322-0.394,0.903-0.454,1.297-0.134  c0.396,0.321,0.455,0.902,0.135,1.297c-0.666,0.819-1.166,1.831-1.446,2.926C41.616,17.841,41.241,18.118,40.83,18.118z   M53.043,16.252c-0.335,0-0.658-0.183-0.82-0.502c-0.518-1.007-1.236-1.851-2.081-2.437c-0.417-0.29-0.521-0.865-0.23-1.283  c0.29-0.419,0.863-0.522,1.284-0.23c1.09,0.759,2.013,1.834,2.667,3.11c0.232,0.452,0.054,1.008-0.399,1.24  C53.328,16.22,53.185,16.252,53.043,16.252z M44.562,13.079c-0.331,0-0.65-0.179-0.816-0.491c-0.238-0.449-0.066-1.007,0.384-1.245  c1.291-0.685,2.722-0.935,4.136-0.723c0.503,0.076,0.851,0.546,0.774,1.049c-0.076,0.504-0.543,0.845-1.049,0.775  c-1.024-0.154-2.058,0.028-2.999,0.527C44.855,13.045,44.707,13.079,44.562,13.079z"></path><path d="M54.152,90.547c-0.752,0-1.484-0.255-2.12-0.736c-0.405-0.308-0.485-0.886-0.178-1.291c0.309-0.404,0.886-0.485,1.292-0.178  c0.682,0.518,1.525,0.466,2.157-0.146c0.366-0.354,0.949-0.346,1.303,0.021c0.354,0.365,0.345,0.948-0.021,1.303  C55.902,90.183,55.038,90.547,54.152,90.547z M40.272,90.547c-1.426-0.001-2.693-0.971-3.393-2.594  c-0.201-0.469,0.015-1.01,0.482-1.212c0.465-0.196,1.01,0.015,1.211,0.482c0.43,0.999,1.096,1.548,1.828,1.474  c0.515-0.056,0.961,0.313,1.015,0.818c0.054,0.506-0.312,0.96-0.818,1.015C40.49,90.542,40.381,90.547,40.272,90.547z M42.632,88.95  c-0.15,0-0.303-0.037-0.444-0.115c-0.445-0.246-0.607-0.807-0.361-1.252c0.296-0.536,0.476-1.225,0.52-1.99  c0.019-0.325,0.055-0.744,0.106-1.24c0.053-0.506,0.502-0.86,1.012-0.823c0.507,0.053,0.875,0.506,0.823,1.012  c-0.048,0.464-0.083,0.854-0.102,1.157c-0.06,1.055-0.312,1.989-0.746,2.775C43.271,88.778,42.957,88.95,42.632,88.95z   M51.188,87.677c-0.415,0-0.793-0.283-0.895-0.705c-0.097-0.402-0.16-0.832-0.185-1.274c-0.038-0.658-0.112-1.518-0.21-2.521  c-0.05-0.507,0.32-0.958,0.827-1.007c0.516-0.045,0.957,0.321,1.007,0.827c0.102,1.032,0.178,1.917,0.216,2.596  c0.02,0.334,0.065,0.651,0.136,0.946c0.12,0.495-0.184,0.992-0.679,1.112C51.334,87.668,51.261,87.677,51.188,87.677z   M57.174,87.348c-0.067,0-0.136-0.007-0.204-0.022c-0.496-0.112-0.808-0.605-0.696-1.103l0.029-0.136  c0.139-0.714,0.25-1.848,0.331-3.376c0.028-0.508,0.466-0.897,0.971-0.871c0.508,0.028,0.898,0.462,0.871,0.971  c-0.088,1.635-0.206,2.82-0.363,3.622l-0.04,0.197C57.975,87.058,57.595,87.348,57.174,87.348z M37.131,85.82  c-0.465,0-0.864-0.35-0.916-0.821c-0.104-0.954-0.195-2.21-0.27-3.735c-0.024-0.508,0.367-0.94,0.876-0.966  c0.498-0.038,0.94,0.366,0.966,0.876c0.072,1.488,0.16,2.707,0.261,3.625c0.055,0.506-0.31,0.96-0.816,1.017  C37.198,85.818,37.164,85.82,37.131,85.82z M43.701,82.618c-0.039,0-0.079-0.003-0.119-0.009c-0.505-0.065-0.861-0.528-0.795-1.032  c0.144-1.107,0.314-2.352,0.499-3.668c0.07-0.503,0.524-0.86,1.042-0.784c0.504,0.071,0.855,0.537,0.784,1.042  c-0.184,1.309-0.354,2.546-0.498,3.647C44.554,82.279,44.158,82.618,43.701,82.618z M50.524,81.253c-0.464,0-0.863-0.349-0.915-0.82  c-0.127-1.149-0.27-2.387-0.419-3.662c-0.06-0.506,0.303-0.963,0.809-1.022c0.509-0.062,0.963,0.304,1.022,0.809  c0.149,1.278,0.293,2.521,0.42,3.674c0.057,0.506-0.31,0.962-0.815,1.018C50.592,81.251,50.558,81.253,50.524,81.253z   M57.663,80.918c-0.01,0-0.018,0-0.025,0c-0.51-0.014-0.911-0.438-0.897-0.945c0.03-1.136,0.05-2.367,0.061-3.671  c0.005-0.507,0.416-0.915,0.922-0.915c0.003,0,0.006,0,0.008,0c0.509,0.005,0.919,0.421,0.914,0.93  c-0.011,1.316-0.03,2.561-0.062,3.704C58.57,80.521,58.159,80.918,57.663,80.918z M36.756,79.375c-0.495,0-0.904-0.394-0.921-0.893  c-0.036-1.162-0.065-2.403-0.089-3.698c-0.009-0.51,0.396-0.93,0.904-0.939c0.007,0,0.012,0,0.018,0  c0.501,0,0.913,0.401,0.922,0.905c0.023,1.288,0.053,2.521,0.089,3.675c0.016,0.509-0.385,0.935-0.893,0.95  C36.776,79.375,36.766,79.375,36.756,79.375z M44.59,76.216c-0.043,0-0.087-0.003-0.131-0.009c-0.505-0.073-0.854-0.539-0.782-1.043  l0.524-3.656c0.074-0.504,0.534-0.85,1.044-0.781c0.503,0.072,0.854,0.54,0.781,1.044l-0.524,3.654  C45.436,75.885,45.041,76.216,44.59,76.216z M49.783,74.834c-0.461,0-0.859-0.345-0.915-0.813c-0.146-1.234-0.291-2.472-0.43-3.669  c-0.058-0.506,0.305-0.963,0.811-1.021c0.513-0.061,0.962,0.304,1.021,0.81c0.138,1.195,0.284,2.432,0.43,3.664  c0.06,0.505-0.302,0.964-0.808,1.023C49.854,74.832,49.819,74.834,49.783,74.834z M57.732,74.465c-0.508,0-0.921-0.412-0.921-0.921  c-0.001-1.194-0.008-2.427-0.019-3.683c-0.004-0.51,0.405-0.926,0.914-0.93c0.002,0,0.005,0,0.008,0  c0.506,0,0.917,0.407,0.922,0.913c0.011,1.261,0.017,2.5,0.018,3.698C58.654,74.052,58.242,74.465,57.732,74.465L57.732,74.465z   M36.627,72.923c-0.505,0-0.916-0.405-0.921-0.911c-0.013-1.206-0.022-2.443-0.027-3.695c-0.002-0.509,0.408-0.924,0.918-0.926  c0.001,0,0.003,0,0.004,0c0.508,0,0.92,0.411,0.922,0.919c0.005,1.246,0.014,2.479,0.026,3.682c0.006,0.51-0.403,0.927-0.911,0.932  C36.634,72.923,36.63,72.923,36.627,72.923z M45.503,69.819c-0.043,0-0.086-0.002-0.13-0.009c-0.504-0.071-0.855-0.537-0.784-1.041  c0.185-1.315,0.355-2.554,0.499-3.649c0.065-0.505,0.522-0.866,1.032-0.795c0.505,0.065,0.861,0.528,0.795,1.032  c-0.144,1.102-0.314,2.347-0.5,3.669C46.35,69.486,45.955,69.819,45.503,69.819z M49.042,68.416c-0.465,0-0.863-0.349-0.915-0.82  c-0.15-1.368-0.28-2.625-0.377-3.691c-0.045-0.508,0.329-0.955,0.836-1.001c0.526-0.052,0.955,0.328,1.001,0.835  c0.094,1.058,0.224,2.302,0.372,3.655c0.056,0.506-0.31,0.962-0.815,1.018C49.109,68.414,49.075,68.416,49.042,68.416z   M57.686,68.01c-0.505,0-0.915-0.405-0.922-0.909c-0.017-1.225-0.035-2.458-0.057-3.688c-0.01-0.508,0.396-0.929,0.905-0.938  c0.472,0.014,0.928,0.396,0.938,0.905c0.021,1.233,0.041,2.47,0.057,3.695c0.007,0.51-0.4,0.927-0.909,0.935  C57.693,68.01,57.688,68.01,57.686,68.01z M36.595,66.456c-0.509,0-0.922-0.402-0.922-0.912c0-1.247,0.003-2.476,0.009-3.693  c0.002-0.508,0.415-0.917,0.922-0.917c0,0,0.002,0,0.004,0c0.509,0.003,0.919,0.417,0.917,0.926  c-0.005,1.215-0.008,2.441-0.008,3.666C37.517,66.034,37.104,66.456,36.595,66.456z M66.57,63.249c-0.039,0-0.077-0.003-0.117-0.008  c-1.6-0.203-2.883-1.497-3.195-3.218c-0.09-0.501,0.242-0.981,0.742-1.072c0.508-0.091,0.981,0.243,1.072,0.743  c0.193,1.07,0.95,1.634,1.613,1.718c0.505,0.065,0.862,0.526,0.799,1.031C67.425,62.908,67.027,63.249,66.57,63.249z M26.903,63.137  c-0.149,0-0.302-0.036-0.442-0.113c-0.764-0.418-1.763-1.415-2.183-3.778c-0.089-0.502,0.245-0.979,0.746-1.068  c0.508-0.091,0.98,0.245,1.068,0.746c0.319,1.797,0.983,2.336,1.254,2.484c0.447,0.244,0.61,0.805,0.366,1.251  C27.545,62.964,27.229,63.137,26.903,63.137z M47.256,62.499l-0.925-0.011l-0.917-0.092c0-0.001,0.008-0.082,0.008-0.083  c0.229-2.308,1.376-2.984,2.322-2.812c0.583,0.11,1.069,0.539,1.376,1.207c0.213,0.464,0.009,1.011-0.453,1.223  c-0.445,0.202-0.96,0.026-1.19-0.391C47.393,61.736,47.301,62.046,47.256,62.499z M29.308,62.438c-0.18,0-0.363-0.053-0.523-0.163  c-0.418-0.289-0.523-0.863-0.234-1.282c0.249-0.361,0.387-0.862,0.387-1.41c0-0.128-0.007-0.26-0.022-0.396  c-0.038-0.347-0.057-0.704-0.057-1.071l0.002-0.19c0.008-0.504,0.419-0.907,0.922-0.907c0.004,0,0.009,0,0.014,0  c0.509,0.009,0.916,0.427,0.908,0.937l-0.002,0.161c0,0.299,0.015,0.59,0.046,0.87c0.022,0.205,0.033,0.405,0.033,0.598  c0,0.932-0.247,1.781-0.713,2.458C29.888,62.299,29.6,62.438,29.308,62.438z M68.894,62.064c-0.167,0-0.337-0.045-0.488-0.141  c-0.432-0.271-0.562-0.84-0.292-1.271c0.311-0.495,0.497-1.208,0.539-2.062c0.011-0.22,0.016-0.442,0.016-0.666l-0.004-0.328  c-0.012-0.51,0.392-0.932,0.9-0.943c0.509-0.005,0.931,0.392,0.943,0.9l0.003,0.371c0,0.254-0.004,0.507-0.017,0.758  c-0.059,1.185-0.334,2.177-0.818,2.949C69.5,61.911,69.2,62.064,68.894,62.064z M57.576,61.552c-0.5,0-0.912-0.4-0.922-0.902  c-0.025-1.251-0.052-2.484-0.08-3.688c-0.012-0.509,0.392-0.932,0.9-0.943c0.5-0.003,0.932,0.392,0.943,0.9  c0.027,1.204,0.055,2.44,0.08,3.692c0.01,0.51-0.395,0.93-0.903,0.94C57.589,61.552,57.583,61.552,57.576,61.552z M36.621,60.013  c-0.002,0-0.005,0-0.006,0c-0.51-0.004-0.92-0.42-0.916-0.928c0.009-1.264,0.021-2.501,0.034-3.694  c0.005-0.509,0.43-0.947,0.933-0.911c0.509,0.006,0.916,0.423,0.911,0.933c-0.014,1.19-0.025,2.425-0.034,3.686  C37.539,59.604,37.127,60.013,36.621,60.013z M64.087,58.021c-0.465,0-0.863-0.349-0.915-0.82c-0.106-0.97-0.363-2.125-0.762-3.432  c-0.148-0.487,0.125-1.002,0.612-1.15c0.487-0.152,1.002,0.126,1.15,0.612c0.433,1.417,0.712,2.684,0.831,3.768  c0.056,0.506-0.31,0.962-0.815,1.018C64.154,58.019,64.12,58.021,64.087,58.021z M24.921,57.256c-0.494,0-0.902-0.392-0.92-0.891  c-0.011-0.296-0.015-0.593-0.015-0.891c0.001-0.94,0.05-1.92,0.146-2.912c0.049-0.507,0.489-0.874,1.006-0.828  c0.507,0.049,0.878,0.499,0.828,1.006c-0.091,0.935-0.137,1.854-0.138,2.735c0,0.275,0.005,0.551,0.014,0.827  c0.019,0.508-0.38,0.935-0.89,0.952C24.942,57.256,24.932,57.256,24.921,57.256z M30.125,56.12c-0.065,0-0.13-0.006-0.195-0.021  c-0.498-0.106-0.813-0.598-0.707-1.096c0.246-1.139,0.616-2.369,1.101-3.659c0.18-0.479,0.71-0.717,1.187-0.539  c0.477,0.179,0.718,0.711,0.54,1.187c-0.453,1.206-0.798,2.35-1.024,3.401C30.932,55.825,30.55,56.12,30.125,56.12z M69.322,55.745  c-0.445,0-0.837-0.323-0.909-0.776c-0.173-1.082-0.427-2.228-0.776-3.5c-0.135-0.49,0.153-0.997,0.645-1.133  c0.484-0.137,0.998,0.152,1.133,0.645c0.368,1.339,0.636,2.549,0.819,3.698c0.08,0.503-0.264,0.975-0.766,1.055  C69.418,55.741,69.37,55.745,69.322,55.745z M57.432,55.096c-0.499,0-0.909-0.397-0.922-0.898l-0.091-3.69  c-0.013-0.508,0.39-0.932,0.899-0.943c0.521,0.028,0.932,0.391,0.943,0.898l0.092,3.69c0.011,0.508-0.392,0.932-0.899,0.943  C57.445,55.096,57.438,55.096,57.432,55.096z M36.689,53.555c-0.004,0-0.008,0-0.013,0c-0.509-0.007-0.916-0.425-0.909-0.934  c0.019-1.321,0.038-2.562,0.058-3.692c0.009-0.509,0.436-0.902,0.938-0.906c0.508,0.01,0.914,0.43,0.905,0.938  c-0.02,1.128-0.04,2.365-0.058,3.686C37.604,53.151,37.192,53.555,36.689,53.555z M62.381,51.807c-0.369,0-0.718-0.223-0.859-0.588  c-0.424-1.095-0.906-2.216-1.435-3.331c-0.218-0.46-0.021-1.01,0.439-1.228c0.461-0.219,1.01-0.02,1.228,0.439  c0.546,1.155,1.047,2.317,1.487,3.453c0.184,0.474-0.053,1.009-0.527,1.192C62.604,51.787,62.492,51.807,62.381,51.807z   M25.428,50.833c-0.053,0-0.106-0.004-0.161-0.015c-0.501-0.088-0.836-0.565-0.747-1.067c0.21-1.189,0.484-2.426,0.815-3.675  c0.131-0.492,0.639-0.782,1.128-0.654c0.491,0.13,0.785,0.635,0.654,1.128c-0.318,1.197-0.581,2.383-0.783,3.521  C26.256,50.519,25.867,50.833,25.428,50.833z M32.261,50.04c-0.131,0-0.263-0.028-0.389-0.086c-0.461-0.216-0.661-0.764-0.445-1.226  c0.53-1.137,1.137-2.294,1.751-3.346c0.258-0.441,0.823-0.587,1.262-0.33c0.439,0.257,0.587,0.821,0.33,1.261  c-0.587,1.004-1.166,2.108-1.673,3.194C32.94,49.843,32.608,50.04,32.261,50.04z M67.716,49.502c-0.386,0-0.746-0.244-0.875-0.631  c-0.342-1.029-0.745-2.153-1.231-3.436c-0.182-0.476,0.059-1.008,0.533-1.188c0.478-0.184,1.009,0.058,1.189,0.533  c0.497,1.308,0.908,2.455,1.259,3.509c0.16,0.482-0.101,1.005-0.584,1.166C67.911,49.486,67.812,49.502,67.716,49.502z   M57.271,48.639c-0.499,0-0.909-0.397-0.922-0.899c-0.036-1.464-0.065-2.719-0.082-3.697c-0.009-0.51,0.396-0.93,0.905-0.938  c0.093-0.004,0.184,0.011,0.27,0.035c-0.187-0.26-0.334-0.438-0.439-0.542c-0.363-0.356-0.369-0.939-0.013-1.303  c0.355-0.364,0.94-0.37,1.304-0.013c0.71,0.695,1.672,2.366,2.183,3.301c0.244,0.446,0.079,1.006-0.367,1.251  c-0.446,0.243-1.008,0.079-1.251-0.367c-0.273-0.5-0.521-0.931-0.745-1.298c0.018,0.95,0.045,2.146,0.079,3.526  c0.013,0.509-0.39,0.932-0.898,0.944C57.286,48.639,57.278,48.639,57.271,48.639z M36.8,47.1c-0.007,0-0.013,0-0.021,0  c-0.509-0.011-0.912-0.433-0.901-0.941c0.014-0.68,0.028-1.297,0.042-1.827c-0.304,0.166-0.688,0.153-0.986-0.065  c-0.411-0.302-0.499-0.878-0.198-1.289c1.03-1.404,1.546-1.689,2.04-1.689c0.001,0,0.003,0,0.005,0c0.518,0,1.045,0.393,1.045,1.143  c0,0.014-0.002,0.084-0.002,0.096c-0.018,0.267-0.054,1.37-0.103,3.672C37.71,46.7,37.3,47.1,36.8,47.1z M27.009,44.583  c-0.094,0-0.19-0.015-0.284-0.046c-0.483-0.156-0.749-0.676-0.593-1.16c0.376-1.164,0.805-2.351,1.271-3.524  c0.188-0.474,0.725-0.703,1.197-0.517c0.474,0.188,0.704,0.725,0.517,1.197c-0.452,1.138-0.866,2.285-1.23,3.411  C27.76,44.335,27.397,44.583,27.009,44.583z M65.473,43.447c-0.368,0-0.716-0.222-0.858-0.587c-0.555-1.421-0.973-2.502-1.296-3.46  c-0.159-0.471,0.077-1,0.543-1.175c0.462-0.177,0.979,0.032,1.169,0.491c0.012,0.026,0.033,0.089,0.042,0.117  c0.304,0.896,0.713,1.958,1.26,3.357c0.186,0.473-0.05,1.008-0.524,1.193C65.698,43.428,65.585,43.447,65.473,43.447z   M29.441,38.624c-0.176,0-0.354-0.051-0.512-0.157c-0.423-0.282-0.536-0.855-0.253-1.278c0.709-1.058,1.69-1.993,2.916-2.781  c0.43-0.274,0.999-0.151,1.273,0.276c0.275,0.429,0.151,0.998-0.276,1.273c-1.012,0.652-1.814,1.411-2.382,2.258  C30.03,38.48,29.738,38.624,29.441,38.624z M62.772,37.64c-0.251,0-0.502-0.103-0.684-0.303c-0.672-0.744-1.574-1.411-2.685-1.982  c-0.453-0.233-0.63-0.789-0.396-1.241c0.232-0.453,0.788-0.633,1.241-0.397c1.308,0.674,2.387,1.476,3.208,2.384  c0.341,0.378,0.312,0.962-0.066,1.303C63.215,37.562,62.993,37.64,62.772,37.64z M34.557,34.86c-0.367,0-0.714-0.221-0.857-0.582  c-0.188-0.473,0.044-1.009,0.518-1.196c1.097-0.436,2.333-0.805,3.676-1.097c0.501-0.109,0.988,0.207,1.098,0.705  c0.108,0.497-0.208,0.988-0.705,1.097c-1.244,0.271-2.385,0.61-3.39,1.009C34.785,34.84,34.67,34.86,34.557,34.86z M57.272,34.405  c-0.095,0-0.192-0.014-0.287-0.046c-1.045-0.341-2.208-0.628-3.456-0.852c-0.501-0.09-0.835-0.568-0.745-1.069  s0.567-0.837,1.069-0.745c1.333,0.238,2.579,0.547,3.705,0.915c0.484,0.158,0.748,0.679,0.589,1.162  C58.021,34.159,57.66,34.405,57.272,34.405z M40.816,33.338c-0.456,0-0.853-0.337-0.912-0.802c-0.067-0.504,0.288-0.968,0.794-1.033  c1.175-0.155,2.438-0.265,3.752-0.328c0.501-0.035,0.94,0.367,0.965,0.877c0.024,0.509-0.368,0.94-0.876,0.965  c-1.265,0.061-2.476,0.166-3.602,0.313C40.896,33.335,40.856,33.338,40.816,33.338z M50.951,33.145c-0.03,0-0.062-0.002-0.093-0.005  c-1.534-0.152-2.8-0.185-3.593-0.185c-0.509,0-0.921-0.413-0.921-0.922c0-0.51,0.412-0.922,0.921-0.922  c0.835,0,2.167,0.033,3.776,0.194c0.507,0.051,0.876,0.502,0.825,1.009C51.82,32.79,51.419,33.145,50.951,33.145z"></path></svg>