<svg xmlns:dc="http://purl.org/dc/elements/1.1/" xmlns:cc="http://creativecommons.org/ns#" xmlns:rdf="http://www.w3.org/1999/02/22-rdf-syntax-ns#" xmlns:svg="http://www.w3.org/2000/svg" xmlns="http://www.w3.org/2000/svg" xmlns:sodipodi="http://sodipodi.sourceforge.net/DTD/sodipodi-0.dtd" xmlns:inkscape="http://www.inkscape.org/namespaces/inkscape" version="1.1" x="0px" y="0px" viewBox="0 0 100 100" enable-background="new 0 0 100 99.864" xml:space="preserve"><path style="" d="m 49.984375,17.40625 c -18.003,0 -32.59375,14.59075 -32.59375,32.59375 0,18.007 14.59075,32.59375 32.59375,32.59375 18.004,0 32.625,-14.58675 32.625,-32.59375 0,-18.003 -14.621,-32.59375 -32.625,-32.59375 z m 0,5.40625 c 14.979,0 27.1875,12.2115 27.1875,27.1875 0,14.983 -12.2095,27.15625 -27.1875,27.15625 -14.978,0 -27.15625,-12.17425 -27.15625,-27.15625 0,-14.977 12.17725,-27.1875 27.15625,-27.1875 z M 38.453125,39.125 c -2.626,0 -4.75,2.122 -4.75,4.75 0,2.628 2.124,4.75 4.75,4.75 2.626,0 4.75,-2.122 4.75,-4.75 0,-2.628 -2.124,-4.75 -4.75,-4.75 z m 23.09375,0 c -2.626,0 -4.75,2.122 -4.75,4.75 0,2.628 2.124,4.75 4.75,4.75 2.626,0 4.75,-2.122 4.75,-4.75 0,-2.628 -2.124,-4.75 -4.75,-4.75 z m -24.65625,19.75 c 0.662751,5.93786 4.538076,11.04814 10.65625,12.6875 6.118174,1.63936 12.021802,-0.84574 15.5625,-5.65625 L 36.890625,58.875 z" fill="#000000"></path></svg>