<svg xmlns="http://www.w3.org/2000/svg" xmlns:xlink="http://www.w3.org/1999/xlink" version="1.1" x="0px" y="0px" viewBox="0 0 100 100" enable-background="new 0 0 100 100" xml:space="preserve"><circle cx="38.199" cy="47.166" r="5.14"></circle><circle cx="51.014" cy="47.166" r="5.14"></circle><circle cx="65.036" cy="47.166" r="5.14"></circle><path d="M50.246,6.342c-23.292,0-42.173,18.881-42.173,42.173c0,23.292,18.881,42.173,42.173,42.173  c23.291,0,42.173-18.881,42.173-42.173C92.419,25.223,73.537,6.342,50.246,6.342z M50.246,78.931c-7.504,0-14.364-2.74-19.649-7.268  l-10.273,1.514l3.726-9.398c-2.561-4.438-4.032-9.584-4.032-15.077c0-16.696,13.534-30.23,30.229-30.23s30.23,13.534,30.23,30.23  S66.941,78.931,50.246,78.931z"></path></svg>