<svg xmlns="http://www.w3.org/2000/svg" xmlns:xlink="http://www.w3.org/1999/xlink" version="1.1" x="0px" y="0px" viewBox="0 0 100 100" enable-background="new 0 0 100 100" xml:space="preserve"><g><path fill="#000000" d="M75.711,72.546c-1.234-0.511-3.44-0.901-6.193,0.841c-0.814-0.046-4.008-0.31-4.619-2.751   c-0.378-1.511-0.436-3.038-0.377-4.302c6.455-0.58,11.039-2.928,12.799-9.97c0.906-3.625-0.996-11.476-4.528-13.548   c-0.667-2.173-1.906-4.163-3.66-5.798c-1.896-1.767-4.302-2.911-6.933-3.343c2.676-2.881,4.3-6.605,4.3-10.676   c0-0.029-0.005-0.058-0.005-0.087c2.931-1.188,5.005-4.062,5.005-7.413c0-4.411-3.589-8-8-8c-1.9,0-3.646,0.669-5.02,1.779   C55.622,7.526,52.19,6.5,48.5,6.5s-7.122,1.026-9.98,2.779C37.146,8.169,35.4,7.5,33.5,7.5c-4.411,0-8,3.589-8,8   c0,3.352,2.074,6.225,5.005,7.413c0,0.029-0.005,0.058-0.005,0.087c0,4.028,1.588,7.721,4.215,10.589   c-2.879,0.341-5.523,1.521-7.57,3.43c-1.691,1.577-2.909,3.481-3.593,5.562c-0.071,0.022-0.144,0.039-0.212,0.072   c-3.706,1.816-5.724,9.994-4.795,13.711c1.571,6.283,5.385,8.834,10.773,9.723c0.31,1.913,0.562,3.919,0.476,4.761   c-0.239,2.341-2.81,2.546-3.561,2.554c-2.763-1.758-4.976-1.366-6.213-0.855c-3.008,1.244-4.972,5.024-4.776,9.192   c0.199,4.227,2.56,7.439,6.315,8.595c1.917,0.59,3.747,0.846,5.491,0.846c7.454,0,13.319-4.679,17.466-7.986   c1.414-1.128,2.76-2.201,3.62-2.602c0.851,0.402,2.166,1.486,3.547,2.625c4.937,4.071,12.399,10.22,22.489,7.117   c3.756-1.155,6.117-4.368,6.315-8.595C80.683,77.57,78.719,73.79,75.711,72.546z M71.83,52.637   c0.948-1.109,1.485-2.348,1.535-3.576c0.006-0.168,0.012-0.374,0.015-0.605c0.946,2.386,1.452,5.495,1.031,7.181   c-1.201,4.804-3.758,7.006-9.5,7.651c-0.941,0.105-1.974,0.168-3.094,0.194c-0.185,0.004-0.377,0.006-0.566,0.009   c-0.233,0.002-0.454,0.01-0.694,0.01h-0.063c-0.479,0-0.934-0.03-1.366-0.082c-0.652-0.077-1.248-0.211-1.786-0.386   C55.208,62.339,54,60.975,54,59.641c0.001-1.572,1.877-3.158,6.066-3.158c0.239,0,0.483,0.006,0.735,0.017   c0.301,0.013,0.597,0.019,0.886,0.019c0,0,0,0,0.001,0c1.022,0,1.982-0.086,2.888-0.23c1.119-0.18,2.149-0.455,3.075-0.815   C69.447,54.773,70.857,53.775,71.83,52.637z M63.5,10.5c2.757,0,5,2.243,5,5c0,1.784-0.947,3.343-2.358,4.228   c-0.731-3.319-2.558-6.273-5.111-8.549C61.762,10.759,62.598,10.5,63.5,10.5z M28.5,15.5c0-2.757,2.243-5,5-5   c0.902,0,1.738,0.259,2.469,0.679c-2.553,2.275-4.379,5.229-5.111,8.549C29.447,18.843,28.5,17.284,28.5,15.5z M33.528,23.499   C33.521,23.332,33.5,23.168,33.5,23c0-0.864,0.1-1.708,0.273-2.527c0.583-2.754,2.093-5.213,4.233-7.103   c0.752-0.663,1.585-1.25,2.478-1.761C42.806,10.28,45.551,9.5,48.5,9.5s5.694,0.78,8.016,2.109   c0.893,0.511,1.726,1.098,2.478,1.761c2.14,1.89,3.65,4.349,4.233,7.103C63.4,21.292,63.5,22.136,63.5,23   c0,0.168-0.021,0.332-0.028,0.499c-0.163,3.981-2.232,7.532-5.431,9.91c0.83-1.319,1.305-2.817,1.305-4.409   c0-5.238-5.09-9.5-11.346-9.5S36.654,23.762,36.654,29c0,0.979,0.178,1.924,0.508,2.812C35,29.563,33.658,26.671,33.528,23.499z    M56.346,29c0,3.584-3.744,6.5-8.346,6.5s-8.346-2.916-8.346-6.5s3.744-6.5,8.346-6.5S56.346,25.416,56.346,29z M29.19,39.213   c1.894-1.766,4.468-2.737,7.249-2.737c0.65,0,1.303,0.063,1.951,0.166c2.021,0.321,3.989,1.123,5.668,2.329   c0.277,0.199,0.549,0.404,0.81,0.625l3.275,2.769l3.263-2.77c0.168-0.142,0.347-0.27,0.522-0.403   c1.984-1.51,4.403-2.455,6.852-2.667c0.353-0.03,0.705-0.049,1.057-0.049c2.821,0,5.329,0.946,7.25,2.738   c2.112,1.968,3.275,4.582,3.276,7.361c0,1.492-0.344,2.933-0.98,4.256c-1.259,1.351-3.759,2.687-7.694,2.687   c-0.248,0-0.501-0.005-0.759-0.017c-6.895-0.271-9.928,2.937-9.93,6.138c-0.001,2.117,1.356,4.316,3.933,5.638l-6.608,6.16   c-0.084,0.077-0.283,0.084-0.373-0.001l-6.756-6.298c2.407-1.333,3.671-3.454,3.67-5.499c-0.002-3.202-3.034-6.42-9.93-6.138   c-0.257,0.012-0.511,0.017-0.759,0.017c-3.252,0-5.523-0.913-6.926-1.992c-0.874-1.504-1.34-3.192-1.339-4.946   C25.912,43.8,27.076,41.184,29.19,39.213z M28.793,62.931c-4.242-0.94-6.3-3.145-7.338-7.295c-0.421-1.686,0.085-4.795,1.031-7.181   c0.003,0.232,0.009,0.438,0.016,0.605c0.065,1.62,0.962,3.261,2.553,4.591c1.008,0.843,2.294,1.561,3.835,2.066   c0.879,0.288,1.845,0.501,2.882,0.636c1.028,0.134,2.122,0.194,3.293,0.146c4.675-0.2,6.801,1.479,6.802,3.142   c0,1.27-1.096,2.567-3.041,3.288c-0.518,0.191-1.096,0.34-1.73,0.438c-0.537,0.083-1.108,0.133-1.722,0.134l-0.34-0.004   c-1.137-0.006-2.182-0.047-3.147-0.124C30.743,63.281,29.716,63.135,28.793,62.931z M73.29,87.466   c-8.546,2.632-14.992-2.685-19.699-6.564c-2.027-1.671-3.628-2.991-5.09-3.356c-0.239-0.061-0.488-0.061-0.728,0   c-1.44,0.359-2.987,1.594-5.128,3.302c-4.901,3.909-11.612,9.259-20.205,6.619c-3.594-1.105-4.135-4.473-4.201-5.868   c-0.133-2.835,1.125-5.534,2.927-6.28c1.58-0.651,3.611,0.268,5.723,2.591c0.558,0.614,1.507,0.659,2.119,0.102   c0.613-0.558,0.658-1.507,0.101-2.119c-0.007-0.008-0.014-0.015-0.021-0.022c1.753-0.671,3.42-2.068,3.69-4.716   c0.109-1.069-0.108-2.988-0.371-4.734c0.934,0.056,1.899,0.082,2.902,0.082c0,0,0.066,0,0.066,0   c0.942-0.001,1.809-0.093,2.617-0.245l7.909,7.372c0.6,0.562,1.394,0.873,2.234,0.873c0.839,0,1.633-0.309,2.234-0.869l7.842-7.311   c0.71,0.114,1.467,0.179,2.276,0.18c0,0,0.066,0,0.066,0c0.325,0,0.639-0.008,0.957-0.013c-0.046,1.445,0.045,3.152,0.477,4.877   c0.681,2.724,2.774,3.974,4.619,4.548c-0.539,0.613-0.493,1.546,0.114,2.098c0.612,0.557,1.562,0.513,2.119-0.102   c2.112-2.323,4.143-3.241,5.723-2.591c1.802,0.746,3.06,3.445,2.927,6.28C77.425,82.993,76.884,86.36,73.29,87.466z"></path><path fill="#000000" d="M44.368,26c0,0.828,0.672,1.5,1.5,1.5H46c0.106,0,0.314,0.104,0.527,0.242   c-0.014,0.078-0.026,0.157-0.027,0.239c-0.002,0.047-0.046,0.852-0.605,1.297c-0.641,0.509-1.768,0.418-2.601,0.251   c-0.812-0.169-1.602,0.365-1.765,1.177c-0.163,0.812,0.364,1.603,1.177,1.765c2.147,0.431,3.866,0.132,5.106-0.885   c0.065-0.054,0.128-0.108,0.188-0.163c0.06,0.055,0.123,0.109,0.188,0.163c0.874,0.716,1.984,1.075,3.314,1.075   c0.559,0,1.156-0.063,1.792-0.19c0.812-0.162,1.339-0.952,1.177-1.765c-0.162-0.812-0.953-1.339-1.765-1.177   c-0.834,0.167-1.96,0.258-2.601-0.251C49.536,28.825,49.5,28,49.5,28c0-0.001,0-0.003,0-0.004v-0.001c0-0.001,0-0.001,0-0.002   s0-0.002,0-0.003s0-0.003,0-0.005c0-0.001,0-0.001,0-0.002c-0.001-0.086-0.013-0.169-0.028-0.251C49.793,27.53,50.027,27.5,50,27.5   c0.829,0,1.5-0.672,1.5-1.5s-0.671-1.5-1.5-1.5h-4.132C45.04,24.5,44.368,25.172,44.368,26z"></path><path fill="#000000" d="M39.321,19.581c0.217,0.11,0.448,0.162,0.676,0.162c0.101,0,0.199-0.021,0.296-0.04   c0.432-0.088,0.824-0.353,1.042-0.772c0.177-0.341,0.834-1.283,1.734-1.544c0.602-0.174,1.271-0.04,2.043,0.41   c0.716,0.416,1.634,0.175,2.051-0.543c0.417-0.716,0.174-1.634-0.542-2.051c-1.885-1.097-3.446-0.979-4.425-0.687   c-0.261,0.078-0.502,0.179-0.732,0.289c-1.8,0.861-2.7,2.56-2.807,2.773C38.29,18.316,38.587,19.206,39.321,19.581z"></path><path fill="#000000" d="M51.32,17.797c0.772-0.449,1.441-0.583,2.043-0.41c0.898,0.261,1.554,1.2,1.733,1.542   c0.264,0.521,0.791,0.821,1.338,0.821c0.093,0,0.187-0.015,0.28-0.032c0.132-0.025,0.264-0.063,0.39-0.126   c0.741-0.371,1.041-1.271,0.671-2.013c-0.095-0.19-0.828-1.555-2.256-2.46c-0.381-0.242-0.8-0.458-1.283-0.603   c-0.979-0.292-2.54-0.41-4.425,0.687c-0.716,0.417-0.959,1.335-0.542,2.051C49.686,17.972,50.604,18.213,51.32,17.797z"></path></g></svg>