<svg xmlns="http://www.w3.org/2000/svg" xmlns:xlink="http://www.w3.org/1999/xlink" version="1.1" x="0px" y="0px" viewBox="0 0 100 100" enable-background="new 0 0 100 100" xml:space="preserve"><g><g><path fill="#000000" d="M51.242,67.27C51.05,67.146,32,54.807,26.276,50.033c-3.032-2.527-4.806-6.221-4.996-10.401    c-0.216-4.777,1.688-9.663,5.13-13.104c3.249-3.249,7.742-5.112,12.326-5.112c4.494,0,8.452,1.78,11.146,5.012    c4.772,5.724,17.112,24.774,17.236,24.965c0.246,0.381,0.651,0.63,1.101,0.677c0.456,0.053,0.899-0.11,1.219-0.431l6.742-6.742    c0.495-0.494,0.582-1.265,0.21-1.857c-0.518-0.827-12.744-20.309-17.994-26.086c-5.213-5.737-12.489-8.896-20.488-8.896    c-7.82,0-15.496,3.135-21.103,8.616c-0.019,0.017-0.037,0.035-0.055,0.053l-0.176,0.176c-0.018,0.017-0.034,0.035-0.05,0.052    c-5.684,5.808-8.819,13.769-8.608,21.874c0.2,7.691,3.356,14.695,8.886,19.72c5.777,5.25,25.259,17.476,26.086,17.994    c0.246,0.153,0.521,0.229,0.796,0.229c0.388,0,0.771-0.149,1.061-0.439l6.742-6.742c0.32-0.32,0.479-0.769,0.431-1.219    S51.623,67.516,51.242,67.27z M10.916,38.75c-0.191-7.355,2.678-14.579,7.864-19.81c5.053-5.009,12.026-7.883,19.129-7.883    c7.143,0,13.63,2.811,18.268,7.914c1.678,1.846,4.167,5.26,6.75,9.007l-4.711,4.71c-2.325-3.342-4.52-6.372-6.029-8.183    c-3.274-3.928-8.051-6.091-13.451-6.091c-5.375,0-10.64,2.184-14.481,6.025c-3.993,3.993-6.225,9.722-5.971,15.327    c0.228,5.033,2.384,9.497,6.071,12.57c1.811,1.51,4.841,3.705,8.183,6.03l-4.711,4.711c-3.747-2.584-7.159-5.072-9.006-6.751    C13.902,51.858,11.094,45.616,10.916,38.75z"></path><path fill="#000000" d="M89.362,85.805L77.33,80.852l4.689-6.675c0.278-0.396,0.348-0.901,0.188-1.357s-0.529-0.808-0.993-0.944    l-15.333-4.506c-0.795-0.231-1.628,0.223-1.862,1.017c-0.234,0.795,0.221,1.629,1.016,1.862l13.326,3.916l-4.565,6.498    c-0.262,0.373-0.34,0.845-0.212,1.282s0.447,0.794,0.869,0.967l13.768,5.667c0.187,0.077,0.38,0.113,0.57,0.113    c0.59,0,1.149-0.35,1.388-0.929C90.494,86.996,90.128,86.12,89.362,85.805z"></path></g></g></svg>