<svg xmlns="http://www.w3.org/2000/svg" xmlns:xlink="http://www.w3.org/1999/xlink" version="1.1" x="0px" y="0px" viewBox="0 0 100 100" enable-background="new 0 0 100 100" xml:space="preserve"><path d="M84.164,47.83c-1.236,1.619-4.768,1.597-7.428,1.383c-3.803-0.274-4.293,0.052-5.324-2.429  c-0.986-2.313-1.245-6.932-2.373-9.299c-0.516-1.072-1.858-2.57-3.033-3.229c-3.201-1.779-11.607-2.162-15.961-2.11  s-12.761,0.331-15.961,2.11c-1.175,0.66-2.518,2.158-3.033,3.229c-1.128,2.368-1.387,6.986-2.374,9.299  c-1.031,2.481-1.521,2.155-5.323,2.429c-2.661,0.214-6.193,0.236-7.429-1.383c-1.626-2.1-0.242-11.085,0.883-13.311  s11.737-8.887,33.237-8.887s32.111,6.662,33.236,8.887S85.791,45.73,84.164,47.83z M63.295,42.216v-6.07h-6.618l-0.31,5.26  l-12.75-0.085l-0.198-5.174h-6.512l-0.211,0.3v5.958L23.658,55.505L23.05,69.143h53.99l-0.496-13.638L63.295,42.216z"></path></svg>