<svg xmlns="http://www.w3.org/2000/svg" xmlns:xlink="http://www.w3.org/1999/xlink" version="1.1" x="0px" y="0px" viewBox="0 0 100 100" enable-background="new 0 0 100 100" xml:space="preserve"><g><circle cx="79.6" cy="57.7" r="6.2"></circle><circle cx="25.8" cy="57.7" r="6.2"></circle><path d="M94,54.1c0-0.1,0-0.1-0.1-0.2c-0.3-0.3-0.6-0.4-1-0.6c-0.1,0-0.4-1.6-0.5-1.9c-0.1-0.3-0.5-1.5-0.7-1.7   c0,0-0.1-0.1-0.1-0.2c0-0.2-0.1-0.4-0.3-0.6c-0.2-0.1-0.5-0.2-0.7-0.4c-0.1-0.1-0.3-0.1-0.4-0.4c-0.1-0.4-0.2-0.7-0.3-1.1   c0-0.1-0.1-0.2-0.1-0.3c0-0.1-0.1-0.1-0.2-0.1c0,0-0.1,0-0.1,0.1c0.1,0.4,0.2,0.8,0.2,1.3c0,0.1-0.1,0.2-0.2,0.2c0,0,0,0,0,0   c-0.3-0.1-1.4-0.4-1.7-0.5c-0.4-0.1-16.2-3-16.5-3c-0.3,0-0.6,0.1-0.9,0.2c-0.5,0.1-1,0-1.4-0.3c-0.4-0.3-12-6.4-13.5-6.9   c-3.2-1-8.7-1.3-11.2-1.4c-2.9-0.1-8.7-0.2-11.5,0.3c-4.9,0.7-16.4,6-16.9,6.3c-0.2,0.1-0.5,0.2-0.7,0.2c-0.2,0-0.4,0-0.6,0   c-0.6,0.1-4,0.7-6.2,0.6c-0.2,0-0.5,0-0.7,0c-0.2,0-0.3,0.2-0.4,0.3c0,0.4-0.2,4.1-0.2,5.1c0,0.2,0.1,0.7,0.1,0.8   c-0.1,0.2-0.9,1-1.1,1.2c-0.2,0.2-0.3,0.4-0.3,0.7c0,0.3,0.4,2.8,0.5,3.1c0.1,0.3,0.2,0.6,0,0.9c-0.2,0.4-0.1,0.8,0.4,0.9   c0.3,0.1,2,0.4,2.2,0.5c0.3,0.1,0.7,0.2,1,0.4c0.2,0.1,5.1,0.9,7.4,1.2c0.5,0.1,1-0.3,1-0.9c0-0.1,0-0.2,0-0.3   c0-4.1,3.3-7.4,7.4-7.4c4.1,0,7.4,3.3,7.4,7.4c0,0.1,0,0.2,0,0.3c0,0,0,0,0,0c0,0.4,0.1,0.9,0.1,1.3c0,0.4,0.2,0.5,0.6,0.5   c1.1,0,37.5,0.3,37.9,0.3c0.1,0,0.4-0.2,0.4-0.4c0-0.2,0-0.5,0.1-0.7c0,0,0,0,0,0c-0.1-0.4-0.1-0.8-0.1-1.2c0-4,3.1-7.2,7.1-7.4   c0,0,0,0,0,0c0,0,0,0,0,0c0.1,0,1,0,1.4,0.1c3.6,0.5,6.4,3.6,6.4,7.3c0,0.7-0.1,1.4-0.3,2c-0.1,0.3,0,0.4,0.4,0.4   c0.6,0,1.4-0.1,1.7-0.1c0,0,2.1-0.4,2.4-0.6c0.5-0.3,1.1-0.6,1.6-1.1c0.1-0.2,0.2-0.4,0-0.6c-0.2-0.1-0.3-0.3-0.5-0.4   c-0.1-0.1-0.1-0.3,0-0.4c0.3-0.1,0.7-0.3,1.1-0.4c0.4-0.1,0.5-0.2,0.5-0.6C94.1,56,94,54.7,94,54.1z M34.3,44.4   c-0.2,0-0.3-0.1-0.3-0.3c0-0.4,0-0.7,0-1.1c0-0.6-0.2-3.4-0.3-3.9c0-0.2,0.1-0.2,0.2-0.3c0.3-0.1,3.4-0.9,8.8-0.8   c0.1,0,0.2,0,0.3,0c0.3,0,0.5,0.2,0.5,0.5c0.1,1.4,0.3,5.1,0.4,6c0,0.1-0.1,0.2-0.2,0.2C42.6,44.7,34.8,44.4,34.3,44.4z M61,44.1   c-0.2,0.2-0.3,0.5-0.3,0.7c0,0.3,0,0.6,0,0.9c0,0.1-0.1,0.2-0.2,0.2c0,0,0,0,0,0c-0.7,0-12-0.8-12.4-0.8c-0.2,0-0.3-0.1-0.4-0.3   c-0.1-0.3-1-4.3-1.3-5.9c-0.1-0.3,0.2-0.7,0.5-0.6c3.5,0.1,6.3,0.6,8.4,1.5c3.3,1.3,5.3,2.9,5.8,4.1C61.1,43.8,61.1,44,61,44.1z"></path></g></svg>