<svg xmlns="http://www.w3.org/2000/svg" xmlns:xlink="http://www.w3.org/1999/xlink" version="1.1" x="0px" y="0px" viewBox="0 0 90 90" enable-background="new 0 0 90 90" xml:space="preserve"><path fill="#000000" d="M46.979,12.502L45.52,29.721l-0.056,0.225l-0.899-8.096v-0.478l-0.096-0.096l-0.576-8.943L39.574,1.958  l11.723-0.056L46.979,12.502z M44.851,33.602l0.09,0.722l-0.068,53.153l-17.757-0.716l-0.39-57.709L15.441,59.949l-7.732-2.578  l17.19-47.876l-0.073-0.59l12.315-3.866l-1.997,6.959l4.936,1.009l-1.122,3.029L44.851,33.602z M39.952,57.195h-9.734v1.391h9.734  V57.195z M83.44,57.371l-7.733,2.578L64.169,29.052l-0.395,57.709l-17.756,0.716l0.091-53.203l-0.017-0.481l6.27-17.645  l-1.401-3.197l4.991-1.402l-1.978-6.44l12.091,3.796L66.01,9.353c0.066-0.155,0.104-0.239,0.104-0.239L83.44,57.371z M59.977,57.195  h-9.734v1.391h9.734V57.195z M53.966,5.106l0.009,0.003l-0.012-0.07L53.966,5.106z"></path></svg>