<?xml version="1.0" encoding="utf-8"?><!DOCTYPE svg PUBLIC "-//W3C//DTD SVG 1.1//EN" "http://www.w3.org/Graphics/SVG/1.1/DTD/svg11.dtd"><svg version="1.1" xmlns="http://www.w3.org/2000/svg" xmlns:xlink="http://www.w3.org/1999/xlink" x="0px" y="0px" viewBox="0 0 100 99.355" enable-background="new 0 0 100 99.355" xml:space="preserve"><path fill="#010101" d="M0,0v38.238c1.741,0.734,3.595,1.357,5.55,1.839L2.355,93.094H0v6.261h100v-6.261h-7.876
	l-4.015-0.912l-5.842,0.912l-4.017-0.912l-12.96,0.912l-8.579-2.065l-8.214,2.065l-6.024-0.912l-8.579,0.912l-6.572-0.912
	l-8.479,0.912l-3.549-51.791c0.117,0.001,0.237,0,0.355,0c16.433,0,29.751-9.075,29.751-20.265c0-1.083-0.147-2.125-0.387-3.163
	c4.856-1.55,8.974-3.628,11.972-6.002c3.13,4.11,9.406,5.713,15.392,3.518c7.06-2.59,11.04-9.474,8.938-15.392H0z"></path><path fill="#010101" d="M63.544,58.945l-1.903,1.604l2.011,3.478c-1.383-0.893-3.324-1.096-5.167-0.378
	c-1.43,0.557-2.507,1.573-3.124,2.739c1.168,1.548,3.464,2.113,5.621,1.274c1.5-0.584,2.558-1.719,3.019-3.01l1.107,1.957
	c-0.184,0.054-0.37,0.111-0.553,0.182c-3.24,1.262-4.826,4.948-3.545,8.236c1.278,3.288,4.938,4.934,8.18,3.672
	c1.591-0.619,2.783-1.823,3.435-3.276l0.111,0.996l1.634-1.051l-1.001-0.615c0.261-0.064,0.519-0.133,0.774-0.232
	c3.241-1.262,4.826-4.948,3.547-8.236c-1.279-3.289-4.94-4.934-8.182-3.672c-1.358,0.528-2.439,1.464-3.129,2.638L63.544,58.945
	L63.544,58.945z"></path><polygon fill="#010101" points="67.635,17.038 67.452,21.564 71.324,21.564 71.507,17.038 "></polygon><rect x="67.635" y="25.557" fill="#010101" width="3.872" height="4.01"></rect><rect x="67.635" y="33.559" fill="#010101" width="3.872" height="4.01"></rect><rect x="67.635" y="41.562" fill="#010101" width="3.872" height="4.527"></rect><polygon fill="#010101" points="67.817,49.168 67.635,53.757 71.507,53.757 71.689,49.168 "></polygon><rect x="67.635" y="57.567" fill="#010101" width="3.872" height="4.13"></rect></svg>