<svg xmlns="http://www.w3.org/2000/svg" xmlns:xlink="http://www.w3.org/1999/xlink" version="1.1" x="0px" y="0px" viewBox="0 0 100 100" enable-background="new 0 0 100 100" xml:space="preserve"><g><path d="M73.333,77.926V34.377c0,0,2.055-1.272,2.055-2.109c0-0.238-0.085-5.017-2.65-9.264c-1.868-3.094-5.019-4.527-5.113-4.837   c-0.094-0.311-0.146-1.5-0.146-1.5c0-0.921,1.281-0.465,1.281-1.257c0-0.833-1.273-0.243-1.273-1.345   c0-0.819,1.143-0.914,1.143-0.914c0.331,0,0.704-0.151,0.704-0.693V7.99c0-0.386-0.184-0.601-0.357-0.668   C64.729,5.662,57.833,5.008,50,5.008S35.501,5.539,30.941,7.322c-0.173,0.068-0.608,0.283-0.608,0.668v4.468   c0,0.542,0.448,0.693,0.779,0.693c0,0,1.217,0.095,1.217,0.914c0,1.102-1.276,0.511-1.276,1.345c0,0.792,1.277,0.336,1.277,1.257   c0,0-0.061,1.189-0.155,1.5c-0.094,0.311-3.264,1.744-5.132,4.837c-2.564,4.247-2.688,9.026-2.688,9.264   c0,0.836,1.979,2.109,1.979,2.109v43.549c0,0-1.995,0.866-1.995,1.85c0,0,0.308,5.285,2.101,8.73C28.533,92.529,34.74,95,49.87,95   s21.41-2.471,23.504-6.494c1.793-3.445,2.027-8.73,2.027-8.73C75.401,78.792,73.333,77.926,73.333,77.926z"></path></g></svg>