<svg xmlns="http://www.w3.org/2000/svg" xmlns:xlink="http://www.w3.org/1999/xlink" version="1.1" x="0px" y="0px" viewBox="0 0 90 90" enable-background="new 0 0 90 90" xml:space="preserve"><g><circle cx="37.673" cy="78.012" r="6.364"></circle><circle cx="73.627" cy="78.012" r="6.364"></circle><path d="M24.758,18.271L21.76,7.149h-3.333H15.74H8.486c-1.885,0-3.412,1.618-3.412,3.614c0,1.997,1.527,3.615,3.412,3.615h7.735   L31.31,70.337l0.03-0.007h48.65v-7.229H36.845l-1.702-6.312H79.99v-0.112l4.918-34.229L24.758,18.271z M76.483,37.167H63.467   l1.062-9.93l13.249,0.909L76.483,37.167z M44.926,37.167l-2.575-11.451L61.071,27l-1.089,10.167H44.926z M59.719,39.616   l-1.17,10.934H47.937l-2.458-10.934H59.719z M38.745,25.467l2.631,11.699H29.853l-3.381-12.54L38.745,25.467z M33.461,50.55   l-2.948-10.934h11.413l2.459,10.934H33.461z M62.034,50.55l1.171-10.934h12.928L74.565,50.55H62.034z"></path></g></svg>