<svg xmlns="http://www.w3.org/2000/svg" xmlns:xlink="http://www.w3.org/1999/xlink" version="1.1" x="0px" y="0px" viewBox="0 0 100 100" enable-background="new 0 0 100 100" xml:space="preserve"><path d="M93,83.35L72.904,63.254c4.119-5.989,6.535-13.232,6.535-21.033C79.439,21.697,62.742,5,42.22,5C21.697,5,5,21.697,5,42.221  c0,20.522,16.697,37.22,37.22,37.22c7.801,0,15.045-2.417,21.034-6.534L83.35,93.002C84.682,94.334,86.428,95,88.176,95  c1.746,0,3.492-0.666,4.824-1.998C95.666,90.336,95.666,86.015,93,83.35z M15.92,42.221c0-14.502,11.798-26.3,26.3-26.3  c14.502,0,26.299,11.798,26.299,26.3c0,14.501-11.797,26.3-26.299,26.3C27.718,68.521,15.92,56.722,15.92,42.221z"></path></svg>