<svg xmlns="http://www.w3.org/2000/svg" xmlns:xlink="http://www.w3.org/1999/xlink" version="1.1" x="0px" y="0px" viewBox="0 0 100 100" enable-background="new 0 0 100 100" xml:space="preserve"><path d="M36.199,5.347L2.235,54.197v44.854h95.42V58.092L36.199,5.347z M70.146,93.396H56.259l-4.504-6.007l5.577-5.383  l-15.219-6.19l-7.187-11.188l-6.007,11.188l-6.158,4.792v12.789h-3.576V73.05l8.225-8.639l9.796-14.178l12.866,12.663l20.367,12.408  l-3.043,9.582L70.146,93.396z M51.575,92.267H25.882V82.02l5.516-4.293l3.772-7.024l4.804,7.478l11.913,4.848l-4.2,4.052  L51.575,92.267z M88.203,94.524H73.967L70.85,84.88l3.477-10.947l-22.15-13.494L36.711,45.218L24.879,62.383l-8.996,9.448v22.693  h-3.392V64.152l11.144-13.248L39.17,30.241l20.892,17.35L88.324,67.5l-1.552,15.046L88.203,94.524z M94.204,95.758h-2.345  L90.278,82.52l1.71-16.574L62.299,45.037L38.57,25.332l-17.71,23.562L9.005,62.982v32.775H5.687V55.19l31.177-44.844l57.34,49.212  V95.758z"></path></svg>