<svg xmlns:x="http://ns.adobe.com/Extensibility/1.0/" xmlns:i="http://ns.adobe.com/AdobeIllustrator/10.0/" xmlns:graph="http://ns.adobe.com/Graphs/1.0/" xmlns="http://www.w3.org/2000/svg" xmlns:xlink="http://www.w3.org/1999/xlink" version="1.1" x="0px" y="0px" viewBox="0 0 100 97.943" enable-background="new 0 0 100 97.943" xml:space="preserve"><metadata><sfw xmlns="http://ns.adobe.com/SaveForWeb/1.0/"><slices></slices><sliceSourceBounds width="90.079" height="84.45" x="375.461" y="556.833" bottomLeftOrigin="true"></sliceSourceBounds></sfw></metadata><path d="M95.04,76.558l-0.006-1.006c-0.177-29.142-11.776-31.256-18.707-32.52c-1.171-0.213-2.183-0.398-3.014-0.675  c-10.293-3.428-14.792-11.553-19.143-19.41C48.792,13.234,43.23,3.189,26.832,3.189c-1.195,0-2.453,0.054-3.738,0.16  C12.926,4.185,4.793,12.783,4.963,22.514c0.107,6.095,0.001,52.573,0,53.042l-0.002,1.002h0.206v11.081h89.666V76.558H95.04z   M92.833,85.639H7.167v-8.543H9.31v6.005h1.871v-6.005h1.403v6.005h1.87v-6.005h3.58v6.005h1.87v-6.005h1.403v6.005h1.87v-6.005  h1.619v6.005h1.871v-6.005h4.354v6.005h1.87v-6.005h1.401v6.005h1.871v-6.005h3.58v6.005h1.871v-6.005h1.403v6.005h1.87v-6.005  h1.619v6.005h1.871v-6.005h3.602v6.005h1.87v-6.005h1.403v6.005h1.869v-6.005h3.58v6.005h1.871v-6.005h1.401v6.005h1.869v-6.005  h1.62v6.005h1.871v-6.005h3.665v6.005h1.87v-6.005h1.403v6.005h1.869v-6.005h3.581v6.005h1.87v-6.005h1.401v6.005h1.87v-6.005h1.618  v6.005h1.872v-6.005h2.48V85.639z"></path></svg>