<svg xmlns:x="http://ns.adobe.com/Extensibility/1.0/" xmlns:i="http://ns.adobe.com/AdobeIllustrator/10.0/" xmlns:graph="http://ns.adobe.com/Graphs/1.0/" xmlns="http://www.w3.org/2000/svg" xmlns:xlink="http://www.w3.org/1999/xlink" version="1.1" x="0px" y="0px" viewBox="0 0 100 100" enable-background="new 0 0 100 100" xml:space="preserve"><metadata><sfw xmlns="http://ns.adobe.com/SaveForWeb/1.0/"><slices></slices><sliceSourceBounds width="90.82" height="90.821" x="4.61" y="-95.668" bottomLeftOrigin="true"></sliceSourceBounds></sfw></metadata><path d="M50.021,4.847c-25.04,0-45.41,20.371-45.41,45.41c0,25.04,20.371,45.411,45.41,45.411c25.04,0,45.41-20.371,45.41-45.411  C95.431,25.217,75.061,4.847,50.021,4.847z M50.021,92.238c-23.15,0-41.982-18.832-41.982-41.981S26.87,8.275,50.021,8.275  c23.149,0,41.981,18.832,41.981,41.981S73.17,92.238,50.021,92.238z"></path><path d="M48.333,23.281h2.621c0.676,0,1.224-0.548,1.224-1.224v-7.689c0-0.676-0.548-1.224-1.224-1.224h-2.621  c-0.676,0-1.224,0.548-1.224,1.224v7.689C47.109,22.733,47.658,23.281,48.333,23.281z"></path><path d="M20.543,47.174h-7.689c-0.676,0-1.224,0.548-1.224,1.224v2.621c0,0.676,0.548,1.224,1.224,1.224h7.689  c0.676,0,1.224-0.548,1.224-1.224v-2.621C21.768,47.723,21.22,47.174,20.543,47.174z"></path><path d="M25.724,22.697c-0.479-0.479-1.253-0.479-1.732,0l-1.558,1.558c-0.477,0.479-0.477,1.253,0,1.732l6.06,6.058  c0.478,0.479,1.253,0.479,1.73,0l1.56-1.558c0.478-0.478,0.478-1.253,0-1.732L25.724,22.697z"></path><path d="M84.983,47.174h-7.688c-0.676,0-1.225,0.548-1.225,1.224v2.621c0,0.676,0.549,1.224,1.225,1.224h7.688  c0.676,0,1.225-0.548,1.225-1.224v-2.621C86.208,47.723,85.659,47.174,84.983,47.174z"></path><path d="M69.541,32.045c0.479,0.479,1.254,0.479,1.73,0l6.06-6.058c0.478-0.479,0.478-1.253-0.001-1.732l-1.557-1.558  c-0.479-0.479-1.253-0.479-1.731,0l-6.06,6.059c-0.477,0.479-0.477,1.254,0,1.732L69.541,32.045z"></path><path d="M29.994,68.231c-0.477-0.478-1.253-0.478-1.731,0l-6.059,6.059c-0.478,0.479-0.478,1.255,0,1.731l1.557,1.558  c0.479,0.479,1.254,0.479,1.732,0l6.06-6.059c0.477-0.479,0.477-1.252,0-1.73L29.994,68.231z"></path><path d="M71.504,68.231c-0.48-0.478-1.255-0.478-1.731,0l-1.558,1.559c-0.478,0.479-0.478,1.252,0,1.73l6.058,6.059  c0.479,0.479,1.253,0.479,1.73,0l1.56-1.558c0.478-0.477,0.478-1.253,0-1.731L71.504,68.231z"></path><path d="M53.628,43.813c-3.5-1.857-7.843-0.526-9.701,2.975c-1.857,3.5-0.525,7.846,2.975,9.701  c2.268,1.204,4.886,1.062,6.958-0.135l25.431,9.2L57.416,49.651C57.246,47.265,55.896,45.017,53.628,43.813z"></path></svg>