<svg xmlns="http://www.w3.org/2000/svg" xmlns:xlink="http://www.w3.org/1999/xlink" version="1.1" x="0px" y="0px" viewBox="0 0 100 100" enable-background="new 0 0 100 100" xml:space="preserve"><g><polygon fill="#000000" points="68.2,3 32.1,3 50.15,17.47  "></polygon><polygon fill="#000000" points="32.1,97 68.2,97 50.15,82.53  "></polygon><path fill="#000000" d="M74.393,11.771l-6.019,4.825c12.179,6.68,19.701,19.278,19.701,33.231c0,13.953-7.522,26.552-19.701,33.231   l6.019,4.825c12.99-8.251,20.906-22.44,20.906-38.056C95.299,34.212,87.383,20.023,74.393,11.771z"></path><path fill="#000000" d="M12.224,49.827c0-13.952,7.522-26.551,19.701-33.231l-6.019-4.825C12.916,20.023,5,34.212,5,49.827   c0,15.616,7.916,29.805,20.906,38.056l6.019-4.825C19.746,76.378,12.224,63.78,12.224,49.827z"></path><polygon fill="#000000" points="43,76 43,24 38,24 38,41.167 29.325,49.827 38,58.487 38,76  "></polygon><polygon fill="#000000" points="57,24 57,76 62,76 62,58.487 70.675,49.827 62,41.167 62,24  "></polygon></g></svg>