<svg xmlns="http://www.w3.org/2000/svg" xmlns:xlink="http://www.w3.org/1999/xlink" version="1.1" x="0px" y="0px" viewBox="0 0 324.097 520.488" enable-background="new 0 0 324.097 520.488" xml:space="preserve"><g><polygon points="263.78,281.396 260.706,282.041 230.958,288.274 206.42,306.209 203.884,308.063 200.814,307.401 171.103,300.997    141.391,307.401 138.321,308.063 135.785,306.209 111.247,288.274 81.499,282.041 78.425,281.396 76.862,278.671 73.142,272.185    0,479.839 80.371,435.804 115.403,520.488 166.104,376.546 200.847,491.967 239.76,408.995 318.007,456.701 264.736,279.728  "></polygon><path d="M171.104,45.155c-59,0-107,48-107,107s48,107,107,107s107-48,107-107S230.104,45.155,171.104,45.155z"></path><path d="M313.896,138.828l3.513-32.53l-21.963-24.252l-10.021-31.146l-29.928-13.222L233.674,13.3l-32.72,0.093L171.103,0   l-29.852,13.394L108.532,13.3L86.708,37.677L56.78,50.899L46.758,82.046l-21.963,24.252l3.514,32.53l-10.2,31.088l16.44,28.289   l3.327,32.549l26.525,19.156l16.278,28.383l32.023,6.71l26.416,19.308l31.984-6.895l31.984,6.895l26.416-19.308l32.023-6.71   l16.278-28.383l26.524-19.156l3.327-32.549l16.441-28.289L313.896,138.828z M171.104,265.155c-62.309,0-113-50.691-113-113   s50.691-113,113-113s113,50.691,113,113S233.412,265.155,171.104,265.155z"></path></g></svg>