<svg xmlns="http://www.w3.org/2000/svg" xmlns:xlink="http://www.w3.org/1999/xlink" version="1.1" x="0px" y="0px" viewBox="0 0 180 172" enable-background="new 0 0 180 172" xml:space="preserve"><g><g><polygon points="105.318,128.498 119.758,149.715 106.791,127.479   "></polygon><path d="M54.167,52.341c2.224,4.131,4.824,7.78,4.824,7.78l3.838,5.686l6.117-3.022l-5.836-9.94c0,0-2.833-4.488-2.838-4.486    c-2.89-3.948-7.101-8.865-8.721-6.557c-1.223,1.739,0.056,5.475,1.878,9.121L54.167,52.341z M53.658,44.895    c0.735-0.941,2.981,0.997,5.019,4.33c2.037,3.334,3.093,6.799,2.359,7.74c-0.734,0.942-2.981-0.995-5.018-4.329    C53.981,49.303,52.924,45.836,53.658,44.895z"></path></g><path d="M120.508,103.299c0.721,0.02,1.704,6.645,0.278,7.76c-1.427,1.115-35.679,23.047-35.679,23.047s-2.23,1.4-3.624,0.701   c-1.393-0.701-3.902-3.152-2.787-4.551C79.811,128.854,119.786,103.277,120.508,103.299"></path><path d="M51.495,89.609c-0.739,0.014-3.652-5.729-2.249-6.929c0.702-0.6,9.538-6.875,18.199-12.999   C76.105,63.558,83.2,58.193,83.2,58.193s3.602-2.14,5.062-1.5c1.458,0.639,4.625,4.206,3.554,5.678S52.234,89.593,51.495,89.609"></path><path d="M70.052,132.576c-0.893,0.164-2.089-1.148-2.945-2.629c-0.741-1.283-0.841-2.283-0.654-2.965   c0.402-1.473,53.39-31.515,55.564-31.553c0.786-0.015,1.078,2.094,1.078,2.094S71.719,132.268,70.052,132.576"></path><path d="M61.998,118.602c-0.896,0.148-2.069-1.184-2.899-2.68c-0.718-1.295-0.801-2.297-0.602-2.977   c0.428-1.467,53.933-30.579,56.106-30.579c0.785,0,1.041,2.113,1.041,2.113S63.67,118.322,61.998,118.602"></path><path d="M54.763,106.705c-0.896,0.15-2.069-1.184-2.899-2.678c-0.718-1.295-0.801-2.297-0.602-2.977   c0.428-1.467,53.932-30.579,56.106-30.579c0.786,0,1.041,2.113,1.041,2.113S56.436,106.428,54.763,106.705"></path><path d="M118.278,86.66c0.896-0.149,2.069,1.184,2.899,2.679c0.718,1.295,0.801,2.297,0.602,2.978   c-0.428,1.466-53.932,30.577-56.106,30.577c-0.786,0-1.041-2.111-1.041-2.111S116.606,86.938,118.278,86.66"></path><path d="M103.143,60.908c0.896-0.149,2.069,1.184,2.899,2.679c0.718,1.295,0.801,2.297,0.603,2.977   c-0.429,1.466-53.933,30.578-56.106,30.578c-0.786,0-1.041-2.113-1.041-2.113S101.471,61.186,103.143,60.908"></path><path d="M111.84,73.28c0.896-0.149,2.068,1.184,2.898,2.679c0.719,1.295,0.801,2.297,0.603,2.978   c-0.429,1.466-53.932,30.578-56.106,30.578c-0.786,0-1.041-2.113-1.041-2.113S110.168,73.559,111.84,73.28"></path></g></svg>