<?xml version="1.0" encoding="utf-8"?><!DOCTYPE svg PUBLIC "-//W3C//DTD SVG 1.1//EN" "http://www.w3.org/Graphics/SVG/1.1/DTD/svg11.dtd"><svg version="1.1" xmlns="http://www.w3.org/2000/svg" xmlns:xlink="http://www.w3.org/1999/xlink" x="0px" y="0px" viewBox="0 0 100 99.756" enable-background="new 0 0 100 99.756" xml:space="preserve"><path fill="#010101" d="M48.646,0.015C40.584,0.221,32.46,2.381,24.995,6.691C1.106,20.483-7.097,51.116,6.695,75.003
	c0.71,1.367,2.394,1.898,3.76,1.188c1.365-0.71,1.897-2.394,1.187-3.759c-0.038-0.074-0.08-0.146-0.125-0.215
	C-0.769,50.937,6.503,23.806,27.782,11.52s48.41-5.015,60.696,16.265c12.286,21.279,5.02,48.41-16.285,60.724
	c-0.039,0.021-0.076,0.041-0.111,0.063c-7.835,5-18.46,6.645-27.178,4.926c-8.719-1.717-15.13-6.388-16.355-13.915
	c-0.319-1.969,0.603-7.964,2.621-14.913c2.018-6.948,4.953-15.151,8.021-22.968c3.068-7.818,6.272-15.266,8.829-20.739
	c0.849-1.818,1.476-3,2.146-4.313c0.569,1.672,1.131,3.318,1.861,5.721c2.008,6.622,4.49,15.556,6.843,24.537
	c2.323,8.867,4.516,17.759,6.028,24.571c-0.213-0.297-0.363-0.557-0.586-0.857c-4.665-6.301-11.75-13.552-22-15.735
	c-1.507-0.319-2.988,0.643-3.308,2.149c-0.32,1.506,0.64,2.984,2.144,3.308c8.279,1.764,14.416,7.833,18.683,13.596
	c2.134,2.881,3.77,5.642,5.002,7.693c0.617,1.025,1.117,1.851,1.639,2.563c0.262,0.357,0.482,0.69,1.024,1.115
	c0.271,0.213,0.638,0.488,1.331,0.635c0.693,0.146,1.781-0.056,2.425-0.552c1.362-1.046,1.134-1.788,1.185-2.236
	c0.051-0.447,0.043-0.8,0.021-1.19c-0.043-0.784-0.159-1.683-0.334-2.781c-0.352-2.196-0.946-5.141-1.715-8.62
	c-1.539-6.96-3.78-16.041-6.147-25.073c-2.366-9.033-4.855-18.005-6.897-24.739c-1.021-3.367-1.924-6.164-2.67-8.188
	c-0.373-1.012-0.699-1.821-1.038-2.502c-0.169-0.34-0.315-0.638-0.613-1.024c-0.148-0.193-0.326-0.418-0.711-0.696
	c-0.384-0.279-1.146-0.7-2.181-0.537c-1.403,0.222-1.585,0.741-1.86,1.031c-0.275,0.291-0.463,0.549-0.662,0.836
	c-0.398,0.576-0.802,1.263-1.268,2.111c-0.932,1.696-2.083,4.018-3.394,6.823c-2.621,5.609-5.858,13.133-8.969,21.059
	c-3.11,7.926-6.088,16.242-8.181,23.45c-2.094,7.208-3.482,13.009-2.774,17.366c1.668,10.257,10.607,16.481,20.787,18.486
	c10.143,1.999,21.914,0.215,31.15-5.637c0.025-0.017,0.051-0.033,0.077-0.049c0.008,0,0.019-0.011,0.026-0.013
	c23.828-13.849,31.995-44.418,18.224-68.272C83.826,8.575,66.383-0.438,48.646,0.015L48.646,0.015z"></path></svg>