<svg xmlns="http://www.w3.org/2000/svg" xmlns:xlink="http://www.w3.org/1999/xlink" version="1.1" x="0px" y="0px" viewBox="0 0 177 177" enable-background="new 0 0 177 177" xml:space="preserve"><g><rect x="-1389.266" y="-55.658" display="none" fill="#000000" width="429.944" height="210.966"></rect><polygon display="none" fill="#000000" points="-1173.242,26.947 -1175.347,26.947 -1175.347,26.291  "></polygon></g><g><g><g><path d="M91.519,129.541h-6.038c-0.156,0-0.283,0.127-0.283,0.283v3.774c0,0.156,0.127,0.283,0.283,0.283h6.038     c0.156,0,0.283-0.127,0.283-0.283v-3.774C91.802,129.668,91.675,129.541,91.519,129.541z"></path><path d="M164.166,38.685H12.834c-2.188,0-3.963,1.774-3.963,3.963v91.705c0,2.188,1.774,3.963,3.963,3.963h151.331     c2.188,0,3.963-1.774,3.963-3.963V42.648C168.128,40.459,166.354,38.685,164.166,38.685z M88.5,42.459     c0.521,0,0.943,0.422,0.943,0.943s-0.422,0.943-0.943,0.943s-0.943-0.422-0.943-0.943S87.979,42.459,88.5,42.459z      M92.368,133.598c0,0.468-0.381,0.849-0.849,0.849h-6.038c-0.468,0-0.849-0.381-0.849-0.849v-3.774     c0-0.468,0.381-0.849,0.849-0.849h6.038c0.468,0,0.849,0.381,0.849,0.849V133.598z M158.505,126.05     c0,0.313-0.253,0.566-0.566,0.566H18.873c-0.313,0-0.566-0.253-0.566-0.566V48.875c0-0.313,0.253-0.566,0.566-0.566h139.066     c0.313,0,0.566,0.253,0.566,0.566V126.05z"></path></g></g></g></svg>