<svg xmlns="http://www.w3.org/2000/svg" xmlns:xlink="http://www.w3.org/1999/xlink" version="1.1" x="0px" y="0px" viewBox="0 0 100 100" enable-background="new 0 0 100 100" xml:space="preserve"><path fill="#000000" d="M68.094,57.634c2.142-3.41,3.384-7.436,3.384-11.75c0-12.221-9.941-22.164-22.163-22.164  s-22.164,9.942-22.164,22.164s9.943,22.164,22.164,22.164c4.323,0,8.362-1.249,11.775-3.399c0.052,0.057,0.1,0.115,0.154,0.17  l9.092,9.092c0.972,0.971,2.242,1.455,3.514,1.455s2.543-0.484,3.513-1.455c1.94-1.941,1.94-5.085,0-7.025l-9.091-9.092  C68.215,57.737,68.153,57.688,68.094,57.634z M49.315,61.838c-8.797,0-15.955-7.156-15.955-15.954  c0-8.796,7.157-15.953,15.955-15.953c8.796,0,15.954,7.156,15.954,15.953C65.269,54.682,58.111,61.838,49.315,61.838z"></path><path fill="#000000" d="M57.309,42.78H52.42v-4c0-1.714-1.391-3.105-3.105-3.105c-1.716,0-3.105,1.391-3.105,3.105v4h-4.89  c-1.715,0-3.104,1.39-3.104,3.104s1.39,3.105,3.104,3.105h4.89v5.779c0,1.715,1.389,3.105,3.105,3.105  c1.714,0,3.105-1.391,3.105-3.105v-5.779h4.889c1.715,0,3.105-1.39,3.105-3.105S59.023,42.78,57.309,42.78z"></path><path fill="#000000" d="M93.699,22.567c-0.004-0.025-0.007-0.05-0.013-0.075c-0.018-0.115-0.043-0.229-0.073-0.341  c-0.005-0.02-0.01-0.039-0.016-0.058c-0.037-0.125-0.08-0.248-0.135-0.37c-0.012-0.024-0.024-0.047-0.035-0.072  c-0.028-0.059-0.055-0.121-0.088-0.179c-0.02-0.034-0.04-0.064-0.06-0.096c-0.02-0.032-0.039-0.062-0.06-0.092  c-0.064-0.102-0.135-0.198-0.21-0.29c-0.006-0.007-0.012-0.015-0.018-0.022c-0.087-0.102-0.18-0.197-0.277-0.286  c-0.017-0.017-0.037-0.033-0.056-0.05c-0.088-0.074-0.177-0.146-0.271-0.21c-0.019-0.013-0.036-0.026-0.055-0.039  c-0.112-0.074-0.226-0.138-0.345-0.196c-0.008-0.004-0.014-0.009-0.021-0.013L50.657,0.339c-0.848-0.407-1.837-0.407-2.687,0  L6.662,20.179c-0.006,0.003-0.012,0.008-0.019,0.011c-0.121,0.058-0.237,0.124-0.349,0.199c-0.018,0.011-0.033,0.024-0.051,0.036  c-0.095,0.065-0.187,0.137-0.274,0.212c-0.019,0.017-0.039,0.033-0.057,0.05c-0.097,0.089-0.19,0.184-0.276,0.285  c-0.007,0.008-0.013,0.019-0.021,0.027c-0.075,0.09-0.142,0.184-0.207,0.282c-0.02,0.032-0.04,0.064-0.06,0.098  c-0.019,0.032-0.04,0.061-0.058,0.094c-0.032,0.057-0.058,0.116-0.086,0.174c-0.013,0.027-0.027,0.053-0.039,0.079  c-0.054,0.12-0.098,0.242-0.135,0.366c-0.006,0.021-0.011,0.043-0.017,0.065c-0.03,0.109-0.054,0.22-0.072,0.333  c-0.004,0.026-0.009,0.054-0.013,0.081c-0.018,0.133-0.029,0.267-0.029,0.4c0,0.003,0,0.005,0,0.008v51.035  c0,1.127,0.612,2.169,1.6,2.716l41.31,22.905c0,0.001,0.002,0.002,0.004,0.002c0.107,0.061,0.221,0.114,0.339,0.161  c0.02,0.008,0.04,0.015,0.059,0.022c0.093,0.035,0.188,0.066,0.285,0.093c0.031,0.009,0.061,0.017,0.093,0.023  c0.089,0.023,0.18,0.038,0.272,0.053c0.031,0.004,0.061,0.01,0.091,0.013c0.119,0.015,0.24,0.023,0.362,0.023  s0.242-0.009,0.361-0.023c0.031-0.003,0.06-0.009,0.091-0.013c0.091-0.015,0.182-0.029,0.272-0.053  c0.032-0.007,0.062-0.015,0.093-0.023c0.097-0.026,0.192-0.058,0.285-0.093c0.02-0.008,0.041-0.015,0.059-0.022  c0.118-0.047,0.23-0.101,0.34-0.161c0.002,0,0.004-0.001,0.005-0.002l41.308-22.905c0.987-0.547,1.6-1.589,1.6-2.716V22.978  c0-0.002-0.001-0.004-0.001-0.005C93.728,22.838,93.717,22.702,93.699,22.567z M87.52,72.185l-35.1,19.463V76.651  c0-1.715-1.391-3.104-3.105-3.104c-1.716,0-3.105,1.39-3.105,3.104v14.996L11.111,72.185V28.25l10.599,5.878  c0.477,0.264,0.994,0.39,1.502,0.39c1.091,0,2.151-0.578,2.719-1.6c0.832-1.5,0.29-3.39-1.209-4.221l-9.957-5.52l34.55-16.593  l34.549,16.593l-9.956,5.52c-1.501,0.831-2.042,2.721-1.21,4.221c0.567,1.021,1.626,1.6,2.718,1.6c0.51,0,1.027-0.126,1.504-0.39  l10.6-5.878V72.185z"></path></svg>