<svg xmlns="http://www.w3.org/2000/svg" xmlns:xlink="http://www.w3.org/1999/xlink" version="1.1" x="0px" y="0px" viewBox="0 0 95 95" enable-background="new 0 0 95 95" xml:space="preserve"><g><defs><rect id="b" x="5.851" y="0.001" width="84.374" height="94.682"></rect></defs><clipPath id="a"><use xlink:href="#b" overflow="visible"></use></clipPath><path clip-path="url(#a)" d="M46.841,83.972c0,0-0.343,6.545-9.223,6.545c-12.297,0-24.254-21.42-24.254-33.617   c0-12.198,7.516-24.099,17.763-24.099c10.248,0,15.713,10.71,15.713,10.71V83.972z M86.463,39.644   c-13.664-24.991-39.282-7.438-39.282-7.438s-10.929-4.462-17.078-4.462c-6.148,0-24.251,5.951-24.251,30.048   c0,24.099,22.545,36.892,32.107,36.892c9.562,0,9.565-5.652,9.565-5.652s-0.343,5.652,12.639,5.652   C73.143,94.683,100.126,64.633,86.463,39.644"></path><path clip-path="url(#a)" fill="#000000" d="M32.921,59.465c0,0.924-2.352,1.674-5.252,1.674s-5.251-0.75-5.251-1.674   s2.352-1.674,5.251-1.674S32.921,58.541,32.921,59.465"></path><path clip-path="url(#a)" d="M48.292,24.545c0,0-0.769-20.975,21.263-24.544C72.375,21.421,48.292,24.545,48.292,24.545"></path><path clip-path="url(#a)" fill="#000000" d="M46.756,30.793c0,0-13.579-21.644-23.058-23.652   c-2.306,2.677-2.817,4.463-2.817,4.463S34.714,15.843,46.756,30.793"></path><path clip-path="url(#a)" fill="#000000" d="M35.079,47.166c-0.407,0.852-2.909,0.757-5.586-0.213   c-2.679-0.97-4.518-2.448-4.111-3.302c0.408-0.853,2.909-0.759,5.586,0.212C33.646,44.833,35.487,46.312,35.079,47.166"></path><path clip-path="url(#a)" fill="#000000" d="M37.618,71.495c0.418,0.849-1.403,2.346-4.067,3.342   c-2.666,0.996-5.166,1.116-5.584,0.268c-0.418-0.849,1.403-2.347,4.067-3.343C34.7,70.767,37.199,70.646,37.618,71.495"></path></g></svg>