<svg xmlns="http://www.w3.org/2000/svg" xmlns:xlink="http://www.w3.org/1999/xlink" version="1.0" x="0px" y="0px" viewBox="0 0 100 100" enable-background="new 0 0 100 100" xml:space="preserve"><rect x="29.252" y="12.226" width="5.396" height="48.567"></rect><rect x="13.063" y="39.207" width="10.793" height="5.396"></rect><rect x="34.648" y="6.829" width="10.793" height="5.396"></rect><rect x="7.667" y="44.604" width="5.396" height="10.793"></rect><rect x="23.856" y="44.604" width="5.396" height="5.396"></rect><rect x="13.063" y="55.396" width="5.396" height="5.396"></rect><rect x="83.215" y="33.811" width="5.396" height="5.396"></rect><rect x="50.837" y="28.415" width="26.982" height="5.396"></rect><rect x="18.459" y="60.793" width="5.396" height="10.793"></rect><rect x="87.937" y="38.533" width="5.396" height="27.656"></rect><rect x="83.215" y="66.189" width="5.396" height="10.793"></rect><rect x="77.819" y="33.811" width="5.396" height="10.793"></rect><rect x="67.026" y="33.811" width="5.396" height="10.793"></rect><rect x="45.441" y="12.226" width="5.396" height="32.378"></rect><rect x="50.837" y="55.396" width="5.396" height="21.585"></rect><rect x="61.63" y="55.396" width="5.396" height="21.585"></rect><rect x="72.423" y="55.396" width="5.396" height="21.585"></rect><rect x="34.648" y="81.703" width="5.396" height="11.467"></rect><rect x="77.819" y="76.982" width="5.396" height="11.467"></rect><rect x="40.045" y="87.774" width="26.982" height="5.396"></rect><rect x="23.856" y="71.585" width="5.396" height="5.396"></rect><rect x="29.252" y="76.982" width="5.396" height="5.396"></rect><rect x="67.026" y="82.378" width="5.396" height="5.396"></rect><rect x="72.423" y="87.774" width="10.793" height="5.396"></rect></svg>