<svg xmlns="http://www.w3.org/2000/svg" xmlns:xlink="http://www.w3.org/1999/xlink" version="1.0" x="0px" y="0px" viewBox="0 0 90 79.578" enable-background="new 0 0 90 79.578" xml:space="preserve"><path d="M50.209,0C29.477,0.004,12.458,15.857,10.597,36.108L8.088,33.6c-1.85-1.852-4.85-1.852-6.7,0  c-1.85,1.847-1.85,4.846,0,6.697l11.367,11.368c0.895,0.894,2.083,1.388,3.352,1.388c1.263,0,2.452-0.494,3.347-1.388l11.371-11.368  c1.847-1.852,1.847-4.851,0-6.697c-1.851-1.852-4.851-1.852-6.698,0l-1.985,1.983c2.054-13.69,13.807-24.189,28.068-24.212  c15.693,0.025,28.393,12.725,28.421,28.418c-0.028,15.692-12.728,28.393-28.421,28.419c-9.419,0-17.732-4.564-22.927-11.619  c-1.858-2.528-5.417-3.076-7.945-1.216c-2.532,1.859-3.076,5.415-1.215,7.945c7.22,9.85,18.927,16.26,32.086,16.26  C72.187,79.572,89.993,61.765,90,39.789C89.993,17.812,72.187,0.004,50.209,0z"></path></svg>