<svg xmlns="http://www.w3.org/2000/svg" xmlns:xlink="http://www.w3.org/1999/xlink" version="1.0" x="0px" y="0px" viewBox="0 0 90 90" style="enable-background:new 0 0 90 90;" xml:space="preserve"><path d="M55.8,84.9H34.1c-2.3,0-4.1-1.8-4.1-4.1V59.9H9.1c-2.3,0-4.1-1.8-4.1-4.1V34.1C5,31.8,6.8,30,9.1,30H30V9.1  C30,6.8,31.8,5,34.1,5h21.7c2.3,0,4.1,1.8,4.1,4.1V30h20.9c2.3,0,4.1,1.8,4.1,4.1v21.7c0,2.3-1.8,4.1-4.1,4.1H59.9v20.9  C59.9,83,58.1,84.9,55.8,84.9z M9.1,31.4c-1.5,0-2.6,1.2-2.6,2.6v21.7c0,1.5,1.2,2.6,2.6,2.6h22.3v22.3c0,1.5,1.2,2.6,2.6,2.6h21.7  c1.5,0,2.6-1.2,2.6-2.6V58.4h22.3c1.5,0,2.6-1.2,2.6-2.6V34.1c0-1.5-1.2-2.6-2.6-2.6H58.4V9.1c0-1.5-1.2-2.6-2.6-2.6H34.1  c-1.5,0-2.6,1.2-2.6,2.6v22.3H9.1z"></path></svg>