<svg xmlns="http://www.w3.org/2000/svg" xmlns:xlink="http://www.w3.org/1999/xlink" version="1.1" x="0px" y="0px" viewBox="0 0 100 100" enable-background="new 0 0 100 100" xml:space="preserve"><path fill="#000000" d="M39.239,89.438c0,0-0.075-0.208-0.255-0.595c-0.183-0.386-0.473-0.948-0.917-1.642  c-0.443-0.691-1.045-1.512-1.871-2.364c-0.826-0.845-1.879-1.724-3.198-2.461c-1.318-0.734-2.909-1.307-4.701-1.564  c-0.896-0.129-1.832-0.179-2.818-0.159c-1.02,0.022-2.09-0.017-3.19-0.155c-1.101-0.146-2.24-0.369-3.384-0.851  c-0.568-0.245-1.143-0.558-1.664-1.024c-0.13-0.118-0.256-0.245-0.372-0.386c-0.06-0.069-0.118-0.141-0.171-0.218l-0.04-0.056  c-0.019-0.026-0.019-0.023-0.05-0.072l-0.06-0.096c-0.115-0.195-0.182-0.343-0.252-0.513c-0.068-0.164-0.125-0.327-0.174-0.489  c-0.196-0.651-0.292-1.292-0.365-1.938c-0.067-0.646-0.099-1.294-0.107-1.947c-0.012-1.311,0.049-2.631,0.255-4.013  c0.055-0.349,0.116-0.697,0.226-1.085c0.031-0.099,0.06-0.197,0.106-0.312c0.049-0.118,0.089-0.234,0.229-0.43  c0.026-0.041,0.093-0.115,0.151-0.171l0.059-0.054l0.119-0.104c0.078-0.065,0.151-0.124,0.224-0.182l0.395-0.309  c0.056-0.044,0.105-0.086,0.135-0.116c0.03-0.023,0.038-0.054-0.019,0.034c-0.029,0.054-0.091,0.167-0.088,0.372  c0.004,0.1,0.028,0.205,0.069,0.292c0.036,0.083,0.084,0.147,0.118,0.185c0.044,0.048,0.056,0.061,0.088,0.083  c0.012,0.012,0.035,0.025,0.04,0.027c0.003,0.004,0.015,0.009,0.012,0.009c-0.002,0-0.004,0-0.006-0.001l-0.022-0.008l-0.094-0.034  l-0.125-0.047c-0.075-0.031-0.148-0.068-0.221-0.104c-0.072-0.037-0.124-0.073-0.187-0.112c-0.238-0.154-0.456-0.363-0.622-0.598  c-0.167-0.231-0.283-0.483-0.363-0.726c-0.079-0.242-0.123-0.479-0.149-0.701l-0.008-0.083c0,0.026-0.008-0.129-0.008-0.135  c0.007-0.25,0.038-0.312,0.058-0.407c0.046-0.16,0.09-0.268,0.132-0.371c0.168-0.393,0.328-0.693,0.479-1.008  c0.15-0.309,0.289-0.608,0.404-0.9c0.115-0.288,0.202-0.578,0.234-0.801c0.016-0.111,0.015-0.2,0.007-0.244  c-0.01-0.044-0.013-0.021,0.007,0.006c0.02,0.03,0.033,0.033-0.011,0.014l-0.461-0.158c-0.358-0.127-0.717-0.26-1.075-0.404  c-0.716-0.291-1.434-0.617-2.149-1.037c-0.358-0.212-0.715-0.449-1.068-0.742c-0.35-0.293-0.708-0.64-1.005-1.154  c-0.144-0.259-0.27-0.565-0.322-0.917c-0.056-0.348-0.025-0.729,0.075-1.06c0.1-0.333,0.257-0.617,0.426-0.85  c0.082-0.117,0.182-0.234,0.257-0.318l0.092-0.106l0.075-0.088c0.443-0.537,0.891-1.158,1.325-1.777  c0.87-1.249,1.713-2.556,2.522-3.894c0.404-0.669,0.798-1.348,1.175-2.034c0.376-0.685,0.74-1.378,1.059-2.071  c0.158-0.345,0.304-0.691,0.421-1.021c0.058-0.165,0.109-0.325,0.144-0.467c0.035-0.136,0.055-0.277,0.049-0.294  c-0.001,0.001,0-0.003,0,0.001c-0.001,0.008,0,0.016,0.001,0.024c0.001,0.005,0.002,0.036,0.008,0.052  c0.009,0.036,0.005,0.016-0.004-0.016l-0.079-0.269c-0.055-0.179-0.115-0.363-0.178-0.554c-0.127-0.385-0.27-0.801-0.392-1.27  c-0.119-0.468-0.214-1-0.211-1.564c0-0.564,0.106-1.145,0.29-1.668c0.045-0.131,0.096-0.259,0.149-0.383  c0.02-0.048-0.026,0.062,0.006-0.019c0.007-0.019,0.025-0.064,0.016-0.048c-0.005,0.001-0.011,0.032,0.001-0.021  c0.033-0.138,0.071-0.334,0.108-0.53c0.076-0.414,0.152-0.826,0.229-1.241c0.32-1.695,0.752-3.419,1.341-5.101  c0.592-1.683,1.335-3.335,2.251-4.906c0.918-1.571,2.007-3.058,3.251-4.416c2.487-2.72,5.584-4.896,8.941-6.413  c3.358-1.529,6.942-2.462,10.537-2.998l1.351-0.178l0.677-0.073l0.339-0.037l0.168-0.017l0.182-0.016l0.659-0.056l0.33-0.026  l0.345-0.022c0.459-0.031,0.919-0.059,1.371-0.072c1.814-0.075,3.634-0.05,5.446,0.089c3.624,0.261,7.214,0.992,10.619,2.194  c0.853,0.298,1.69,0.631,2.516,0.994c0.825,0.358,1.635,0.751,2.426,1.172c0.795,0.419,1.567,0.872,2.32,1.354  c0.754,0.479,1.488,0.985,2.195,1.523c2.839,2.14,5.3,4.733,7.188,7.649c0.943,1.46,1.745,2.998,2.381,4.588  c0.631,1.593,1.095,3.242,1.357,4.911c0.545,3.346,0.178,6.715-0.726,9.75c-0.905,3.046-2.316,5.762-3.788,8.244  c-1.48,2.482-3.018,4.768-4.349,7.016c-1.335,2.245-2.461,4.462-3.199,6.68c-0.75,2.214-1.08,4.423-1.033,6.51  c0.037,2.141,0.133,4.129,0.442,5.922c0.157,0.894,0.376,1.739,0.645,2.529c0.27,0.791,0.585,1.527,0.916,2.214  c0.662,1.375,1.364,2.559,1.978,3.586c0.617,1.025,1.164,1.886,1.606,2.584c0.892,1.394,1.366,2.137,1.366,2.137  s-0.133-0.177-0.389-0.52c-0.254-0.343-0.636-0.851-1.122-1.52s-1.086-1.494-1.771-2.482c-0.683-0.988-1.455-2.14-2.208-3.509  c-0.374-0.684-0.741-1.426-1.067-2.234c-0.323-0.807-0.601-1.683-0.816-2.61c-0.435-1.856-0.6-3.896-0.74-6.048  c-0.151-2.208,0.098-4.604,0.792-6.994c0.684-2.396,1.802-4.76,3.085-7.107c1.283-2.352,2.744-4.695,4.1-7.163  c1.355-2.46,2.621-5.055,3.372-7.854c0.375-1.393,0.622-2.842,0.705-4.296c0.009-0.182,0.022-0.346,0.026-0.549l0.006-0.292  l0.004-0.146l-0.001-0.12c0.001-0.366-0.013-0.733-0.033-1.101c-0.043-0.735-0.135-1.473-0.271-2.207  c-0.272-1.47-0.71-2.928-1.299-4.344c-0.595-1.416-1.341-2.786-2.215-4.09c-1.761-2.6-4.018-4.937-6.639-6.859  c-2.62-1.925-5.582-3.452-8.731-4.541c-3.15-1.089-6.484-1.732-9.869-1.976c-1.691-0.124-3.396-0.144-5.103-0.071  c-0.43,0.015-0.849,0.043-1.268,0.071l-0.315,0.02l-0.329,0.028l-0.659,0.056l-1.265,0.136l-1.27,0.169  c-3.377,0.495-6.688,1.357-9.734,2.735c-3.043,1.374-5.807,3.274-8.026,5.669c-2.226,2.387-3.886,5.245-4.995,8.284  c-0.554,1.524-0.97,3.086-1.292,4.686c-0.082,0.41-0.163,0.82-0.244,1.229c-0.042,0.214-0.086,0.428-0.156,0.695  c-0.011,0.047-0.049,0.178-0.084,0.28c-0.022,0.065-0.025,0.068-0.037,0.099l-0.053,0.126c-0.03,0.066-0.057,0.132-0.081,0.197  c-0.192,0.521-0.202,0.993-0.044,1.668c0.079,0.333,0.195,0.702,0.319,1.101c0.062,0.2,0.125,0.408,0.187,0.623l0.087,0.324  c0.004,0.017,0.014,0.047,0.032,0.134c0.013,0.066,0.029,0.146,0.035,0.203c0.005,0.059,0.011,0.119,0.013,0.178  c0.003,0.056,0.001,0.102,0,0.153c-0.011,0.396-0.079,0.658-0.144,0.917c-0.07,0.254-0.147,0.481-0.229,0.699  c-0.165,0.438-0.344,0.837-0.53,1.227c-0.75,1.547-1.599,2.944-2.469,4.314c-0.873,1.365-1.771,2.683-2.712,3.961  c-0.476,0.642-0.946,1.268-1.497,1.9l-0.114,0.129l-0.1,0.108c-0.054,0.059-0.079,0.086-0.108,0.126  c-0.058,0.072-0.085,0.129-0.098,0.163c-0.011,0.032-0.014,0.041-0.012,0.067c0,0.026,0.013,0.079,0.051,0.152  c0.076,0.148,0.251,0.356,0.473,0.547c0.222,0.194,0.487,0.381,0.767,0.556c0.566,0.353,1.195,0.659,1.836,0.936  c0.321,0.138,0.647,0.269,0.976,0.394l0.244,0.091l0.128,0.047l0.086,0.031c0.037,0.016,0.073,0.029,0.108,0.044  c0.289,0.127,0.614,0.339,0.851,0.66c0.239,0.318,0.356,0.694,0.391,1.007c0.034,0.317,0.01,0.589-0.033,0.833  c-0.086,0.486-0.239,0.88-0.395,1.248c-0.159,0.368-0.332,0.705-0.502,1.026c-0.165,0.317-0.343,0.637-0.458,0.884  c-0.026,0.058-0.047,0.113-0.052,0.12c-0.001-0.01,0.008,0.014,0.012-0.147c-0.001,0.035-0.005-0.075-0.001-0.007l0.003,0.049  c0.011,0.126,0.028,0.232,0.053,0.321c0.053,0.18,0.11,0.256,0.199,0.326c0.011,0.008,0.028,0.023,0.032,0.025  c0.004,0.001,0.008,0.005,0.011,0.01l0.113,0.047c0.062,0.024-0.022-0.005,0.026,0.013l0.099,0.037  c0.072,0.03,0.146,0.062,0.236,0.115c0.043,0.023,0.101,0.063,0.147,0.098c0.064,0.052,0.112,0.088,0.184,0.168  c0.062,0.069,0.133,0.169,0.19,0.29c0.056,0.127,0.093,0.273,0.096,0.416c0.006,0.291-0.086,0.487-0.157,0.614  c-0.144,0.236-0.256,0.328-0.351,0.418c-0.097,0.086-0.179,0.149-0.258,0.208c-0.139,0.102-0.279,0.202-0.417,0.302l-0.173,0.131  l-0.074,0.059c-0.011,0.009-0.043,0.037-0.035,0.03c0.029-0.025,0.064-0.071,0.068-0.077c0.04-0.059,0.011-0.021-0.004,0.017  c-0.019,0.04-0.04,0.101-0.06,0.16c-0.082,0.252-0.151,0.559-0.208,0.86c-0.227,1.229-0.334,2.501-0.365,3.721  c-0.014,0.612-0.004,1.216,0.038,1.804c0.042,0.584,0.115,1.156,0.244,1.667c0.032,0.129,0.068,0.252,0.11,0.366  c0.039,0.108,0.095,0.235,0.125,0.298l0.055,0.097L17.88,77.2c0.028,0.047,0.061,0.093,0.096,0.138  c0.067,0.09,0.146,0.178,0.23,0.261c0.337,0.337,0.776,0.616,1.244,0.845c0.945,0.455,1.99,0.725,3.01,0.907  c1.027,0.182,2.038,0.27,3.026,0.296c0.506,0.015,1.019,0.041,1.511,0.095c0.495,0.055,0.977,0.128,1.446,0.221  c1.877,0.371,3.521,1.066,4.857,1.904c1.337,0.839,2.371,1.81,3.16,2.73c0.791,0.922,1.348,1.792,1.753,2.517  c0.406,0.728,0.653,1.314,0.811,1.713C39.179,89.225,39.239,89.438,39.239,89.438z"></path><g><g><g><g><g><path fill="#000000" d="M64.95,29.17c2.071,1.58,3.138,3.964,2.996,6.723c-0.319,4.637-6.656,10.525-12.574,15.691       c-0.708,0.618-1.938,1.676-2.363,2.062c-0.492-0.445-1.923-1.721-2.811-2.474c-5.941-5.03-12.299-10.771-12.611-15.258       c-0.142-2.781,0.925-5.166,2.997-6.745c2.205-1.685,5.343-2.2,7.99-1.327c1.781,0.596,3.251,1.699,4.19,3.071       c0.945-1.373,2.414-2.483,4.195-3.071C59.598,26.97,62.736,27.492,64.95,29.17z M65.718,35.757       c0.125-2.54-1.081-4.017-2.124-4.807c-1.641-1.244-3.966-1.632-5.934-0.983c-2.021,0.671-4.896,4.353-4.896,4.353       s-2.87-3.682-4.899-4.353c-1.959-0.648-4.293-0.261-5.933,0.983c-1.036,0.79-2.244,2.267-2.118,4.831       c0.276,3.907,8.081,10.51,11.83,13.686c0.513,0.432,0.983,0.834,1.394,1.184c0.261-0.23,0.553-0.483,0.865-0.752       C57.646,46.634,65.435,39.835,65.718,35.757z"></path></g></g></g></g></g></svg>