<svg xmlns="http://www.w3.org/2000/svg" xmlns:xlink="http://www.w3.org/1999/xlink" version="1.1" x="0px" y="0px" viewBox="0 0 100 100" enable-background="new 0 0 100 100" xml:space="preserve"><path d="M44.948,22.849c1.175-0.369,1.83-1.621,1.461-2.796c-0.37-1.177-1.622-1.831-2.797-1.461  c-1.177,0.369-1.831,1.62-1.462,2.798C42.52,22.565,43.772,23.217,44.948,22.849z M57.564,30.379  c1.24-0.775,1.621-2.409,0.846-3.651c-0.773-1.241-2.41-1.619-3.652-0.845c-1.24,0.774-1.619,2.409-0.844,3.652  C54.688,30.776,56.324,31.153,57.564,30.379z M34.208,39.189c0.213,1.482,0.536,2.793,0.872,3.826  c1.073,3.293,3.669,6.245,3.743,6.316c3.794,3.791,6.29,5.528,10.562,5.528c4.617,0,7.792-0.9,12.126-7.1  c0.215-0.308,0.4-0.552,0.582-0.728c0.77-1.152,1.529-2.54,2.088-4.134c0.369-1.091,0.65-2.367,0.881-3.716  c1.85-0.271,3.295-2.475,3.295-5.178c0-2.311-1.061-4.253-2.521-4.945c0.512-3.082,0.666-6.392,0.574-7.271  c-0.189-1.919,0.021-6.96-4.473-8.925c-3.037-1.166-5.066-0.253-4.934-0.072c0,0-1.285-3.13-5.633-3.631  c-1.65-0.191-3.082-0.083-4.282-0.087c-2.04-0.003-4.268,0.587-6.192,1.166c-1.479,0.443-3.587,1.23-4.647,2.473  c-1.454,1.7-1.576,3.943-1.075,6.014c-1.822,0.388-2.488,2.221-2.4,3.823c0.189,3.492,1.015,6.306,0.889,6.343  c-1.655,0.506-2.896,2.596-2.896,5.104C30.768,36.77,32.291,39.018,34.208,39.189z M51.758,25.162  c0.004-0.006,0.006-0.007,0.012-0.012c0.053-0.08,0.111-0.159,0.172-0.237c0.297-0.438,0.182-0.925-0.066-1.405  c-0.246-0.483-0.383-0.743-0.059-0.947c0.322-0.201,0.104-0.065,0.625-0.389c0.547-0.342,0.316-0.198,0.643-0.401  c0.324-0.202,0.498,0.034,0.822,0.468c0.326,0.437,0.713,0.753,1.242,0.678c0.01-0.002,0.014,0.001,0.023,0  c0.094-0.018,0.189-0.033,0.281-0.045c0.52-0.102,0.783-0.527,0.945-1.042c0.166-0.517,0.254-0.797,0.629-0.71  c0.369,0.087,0.119,0.026,0.719,0.166c0.002,0,0.002-0.001,0.002,0.001c0.006,0.001,0.01,0.001,0.016,0.001  c0.598,0.141,0.35,0.083,0.719,0.167c0.373,0.088,0.328,0.376,0.25,0.915c-0.076,0.538-0.027,1.036,0.398,1.356  c0.006,0.004,0.008,0.008,0.012,0.012c0.08,0.053,0.154,0.111,0.23,0.167c0,0,0,0,0.002,0.001c0.438,0.301,0.928,0.186,1.408-0.063  c0.484-0.247,0.744-0.384,0.947-0.059c0.203,0.323,0.064,0.103,0.391,0.627c0.002,0.001,0.004,0.002,0.004,0.004  c0.004,0.003,0.004,0.005,0.006,0.009c0.326,0.523,0.189,0.305,0.391,0.626c0.203,0.325-0.033,0.499-0.469,0.826  c-0.436,0.325-0.752,0.71-0.676,1.237c0.002,0.012-0.002,0.017-0.002,0.028c0.018,0.094,0.033,0.186,0.045,0.278  c0.102,0.521,0.525,0.781,1.041,0.947c0.518,0.166,0.797,0.255,0.711,0.627c-0.086,0.371-0.027,0.118-0.164,0.721  c-0.002,0.001-0.002,0.004-0.002,0.006c-0.002,0.003-0.002,0.005-0.002,0.01c-0.141,0.6-0.084,0.348-0.168,0.717  c-0.088,0.373-0.377,0.331-0.914,0.252c-0.539-0.079-1.035-0.029-1.355,0.397c-0.006,0.007-0.01,0.007-0.014,0.012  c-0.053,0.081-0.111,0.154-0.168,0.231c-0.301,0.44-0.186,0.928,0.064,1.411c0.248,0.482,0.383,0.744,0.059,0.946  c-0.322,0.201-0.105,0.065-0.627,0.39c-0.002,0.002-0.002,0.004-0.006,0.006l-0.01,0.003c-0.521,0.327-0.305,0.19-0.625,0.393  c-0.324,0.203-0.5-0.036-0.824-0.47c-0.324-0.435-0.711-0.751-1.238-0.676c-0.012,0.002-0.016-0.001-0.027,0  c-0.094,0.02-0.188,0.032-0.283,0.045c-0.518,0.104-0.777,0.527-0.943,1.04c-0.166,0.516-0.254,0.797-0.627,0.712  c-0.371-0.086-0.119-0.027-0.719-0.166c-0.004-0.001-0.004-0.002-0.008-0.001c-0.004,0-0.006-0.002-0.01-0.002  c-0.6-0.141-0.35-0.083-0.721-0.167c-0.371-0.087-0.326-0.377-0.25-0.916c0.078-0.535,0.027-1.034-0.398-1.354  c-0.006-0.004-0.006-0.007-0.01-0.012c-0.084-0.054-0.16-0.113-0.238-0.174c-0.439-0.295-0.922-0.179-1.404,0.068  c-0.484,0.248-0.744,0.384-0.949,0.058c-0.2-0.322-0.064-0.102-0.39-0.625c-0.003-0.005-0.006-0.01-0.009-0.015  c-0.326-0.523-0.188-0.304-0.391-0.627c-0.204-0.323,0.034-0.499,0.47-0.822c0.435-0.326,0.753-0.711,0.676-1.24  c-0.002-0.008,0.001-0.013,0.001-0.022c-0.019-0.097-0.036-0.193-0.048-0.292c-0.104-0.515-0.525-0.773-1.037-0.938  c-0.518-0.168-0.798-0.255-0.711-0.629c0.085-0.37,0.026-0.118,0.167-0.718c0.001-0.007,0.001-0.011,0.004-0.017  c0.138-0.6,0.081-0.349,0.167-0.72c0.086-0.372,0.376-0.329,0.914-0.25C50.939,25.636,51.436,25.587,51.758,25.162z M39.002,21.312  c0.424-0.174,0.764-0.421,0.813-0.868c0.001-0.007,0.004-0.01,0.005-0.016c0.005-0.084,0.013-0.167,0.023-0.25  c0.022-0.441-0.266-0.742-0.648-0.983c-0.386-0.245-0.596-0.377-0.446-0.663c0.147-0.282,0.046-0.09,0.287-0.551  c0.002-0.005,0.003-0.009,0.006-0.014c0.242-0.458,0.14-0.266,0.288-0.55c0.149-0.286,0.377-0.188,0.799-0.011  c0.422,0.179,0.837,0.243,1.189-0.039c0.003-0.003,0.006-0.003,0.011-0.006c0.061-0.054,0.126-0.104,0.19-0.154  c0.334-0.297,0.343-0.716,0.244-1.161c-0.099-0.447-0.155-0.688,0.153-0.785c0.305-0.094,0.097-0.029,0.592-0.187  c0.517-0.162,0.298-0.093,0.606-0.19c0.308-0.095,0.4,0.134,0.573,0.557c0.172,0.423,0.421,0.764,0.867,0.815  c0.009,0,0.012,0.003,0.021,0.005c0.079,0.005,0.159,0.012,0.238,0.021c0.444,0.028,0.748-0.261,0.99-0.646  c0.247-0.386,0.377-0.595,0.663-0.446c0.284,0.147,0.092,0.047,0.551,0.288c0.001,0,0.002,0,0.003,0.001  c0.004,0.001,0.006,0.002,0.011,0.004c0.458,0.243,0.267,0.139,0.55,0.289c0.285,0.149,0.188,0.376,0.012,0.798  c-0.178,0.422-0.242,0.838,0.037,1.189c0.004,0.005,0.004,0.008,0.008,0.014c0.052,0.06,0.101,0.122,0.15,0.185c0,0,0,0,0.001,0  c0.296,0.338,0.717,0.346,1.163,0.246c0.447-0.1,0.688-0.156,0.784,0.152c0.095,0.308,0.031,0.098,0.187,0.593  c0.001,0.002,0.001,0.002,0.001,0.006c0.002,0.003,0.002,0.005,0.003,0.007c0.154,0.497,0.089,0.288,0.186,0.594  c0.095,0.307-0.135,0.397-0.557,0.572c-0.423,0.173-0.764,0.42-0.814,0.866c0,0.011-0.004,0.013-0.006,0.023  c-0.005,0.079-0.012,0.157-0.022,0.236c-0.028,0.445,0.264,0.748,0.649,0.991c0.386,0.246,0.595,0.378,0.446,0.662  c-0.148,0.283-0.046,0.092-0.287,0.552c-0.001,0.002-0.001,0.003-0.002,0.003c-0.002,0.003-0.002,0.006-0.004,0.009  c-0.242,0.46-0.14,0.267-0.288,0.553c-0.15,0.284-0.376,0.186-0.799,0.01c-0.421-0.176-0.837-0.242-1.189,0.038  c-0.005,0.004-0.008,0.004-0.013,0.008c-0.06,0.052-0.121,0.104-0.186,0.151c-0.338,0.295-0.347,0.717-0.247,1.164  c0.101,0.445,0.155,0.687-0.152,0.783c-0.306,0.096-0.097,0.03-0.593,0.187c-0.002,0.002-0.003,0.002-0.005,0.002  c-0.003,0-0.005,0.001-0.009,0.003c-0.495,0.155-0.288,0.09-0.592,0.185c-0.309,0.095-0.4-0.133-0.574-0.556  c-0.172-0.423-0.42-0.765-0.866-0.815c-0.009,0-0.013-0.003-0.02-0.004c-0.082-0.006-0.163-0.014-0.243-0.023  c-0.442-0.026-0.746,0.265-0.988,0.648c-0.244,0.388-0.376,0.595-0.661,0.446c-0.285-0.149-0.092-0.047-0.552-0.287  c-0.001-0.002-0.002-0.002-0.004-0.003c-0.003,0-0.005-0.002-0.008-0.004c-0.459-0.24-0.267-0.14-0.552-0.288  c-0.283-0.151-0.187-0.376-0.01-0.799c0.176-0.421,0.241-0.837-0.038-1.189c-0.004-0.003-0.004-0.005-0.006-0.01  c-0.054-0.062-0.107-0.128-0.157-0.192c-0.296-0.335-0.715-0.345-1.159-0.245c-0.446,0.1-0.687,0.156-0.784-0.152  c-0.095-0.305-0.03-0.097-0.185-0.592c-0.002-0.007-0.003-0.011-0.004-0.014c-0.156-0.495-0.09-0.288-0.187-0.594  C38.349,21.576,38.579,21.486,39.002,21.312z M94.551,39.57c-0.693-0.641-2.176-1.507-3.602-1.113  c-0.346,0.095-0.689,0.263-1.018,0.527c-0.008,0.007-0.02,0.017-0.029,0.026c-0.322,0.262-0.689,0.606-1.086,1.015  c-1.061-0.344-2.33-0.356-3.414,0.6c-1.926,1.697-4.439,6.604-5.5,8.963c-0.266,0.588-0.604,1.268-0.977,1.971  c-0.322,0.608-0.674,1.231-1.025,1.831c-0.314,0.169-0.619,0.375-0.904,0.625c-1.23,1.084-2.574,3.256-3.766,5.173l-0.291,0.466  c-2.029,2.306-4.51,3.088-6.451,3.512c-2.305,0.504-6.555,2.472-8.58,4.252c-1.844,1.626-5.904,6.279-6.398,8.125  c-0.09,0.339-0.211,0.715-0.352,1.149c-0.193,0.599-0.43,1.335-0.684,2.281c-0.153,0.572-0.312,1.225-0.475,1.972  c-0.161-0.748-0.321-1.4-0.476-1.972c-0.252-0.946-0.489-1.682-0.682-2.281c-0.14-0.435-0.261-0.81-0.352-1.149  c-0.495-1.846-4.557-6.499-6.4-8.125c-2.024-1.781-6.273-3.749-8.579-4.252c-1.942-0.424-4.423-1.206-6.452-3.512l-0.29-0.466  c-1.189-1.917-2.537-4.088-3.767-5.173c-0.284-0.25-0.589-0.456-0.902-0.625c-0.355-0.6-0.705-1.223-1.026-1.831  c-0.375-0.703-0.714-1.382-0.979-1.971c-1.058-2.359-3.57-7.266-5.497-8.963c-1.086-0.956-2.353-0.943-3.415-0.6  c-0.396-0.409-0.761-0.753-1.085-1.015c-0.008-0.009-0.021-0.019-0.028-0.026c-0.328-0.265-0.672-0.432-1.018-0.527  c-1.428-0.394-2.909,0.472-3.601,1.113L5,39.985l0.243,0.56c0.072,0.165,0.663,1.522,1.444,3.319  c1.653,3.797,4.168,9.559,4.483,10.198c0.172,0.35,0.322,0.736,0.466,1.111c0.234,0.611,0.458,1.186,0.781,1.636  c0.418,0.578,4.328,6.719,4.752,7.42c0.089,0.148,0.24,0.565,0.372,0.933c0.428,1.198,0.963,2.687,1.986,3.323  c0.599,0.375,1.771,1.56,3.25,3.058c0.994,1.01,2.124,2.154,3.434,3.419c1.487,1.434,2.923,2.504,4.189,3.449  c1.698,1.267,3.038,2.268,3.929,3.656c0.46,0.717,0.605,2.675,0.57,5.094c-0.016,1.177-0.073,2.491-0.164,3.795  c0.585-0.04,29.942-0.04,30.528,0c-0.09-1.304-0.148-2.619-0.166-3.795c-0.033-2.418,0.111-4.377,0.572-5.094  c0.891-1.388,2.232-2.389,3.93-3.656c1.266-0.945,2.701-2.016,4.188-3.449c1.312-1.265,2.443-2.409,3.436-3.419  c1.479-1.499,2.648-2.683,3.25-3.058c1.021-0.636,1.557-2.125,1.984-3.323c0.133-0.367,0.283-0.785,0.373-0.933  c0.422-0.701,4.334-6.842,4.75-7.42c0.324-0.45,0.547-1.025,0.781-1.636c0.146-0.375,0.295-0.761,0.469-1.111  c0.312-0.639,2.83-6.401,4.482-10.198c0.779-1.797,1.373-3.155,1.443-3.319L95,39.985L94.551,39.57z M13.459,41.917  c1.365,1.205,3.337,4.758,4.566,7.31c0.185,0.382,0.352,0.742,0.498,1.066c0.312,0.697,0.751,1.565,1.246,2.477l-2.882-3.248  c-0.111-0.162-0.224-0.329-0.343-0.501c-0.185-0.571-0.397-1.122-0.623-1.661c-0.956-2.287-2.225-4.296-3.435-5.825  C12.82,41.546,13.156,41.651,13.459,41.917z M48.98,89.085h-12.4c0.033-0.857,0.052-1.716,0.049-2.478  c-0.009-2.41-0.228-4.504-0.848-5.472c-1.06-1.652-2.586-2.788-4.351-4.106c-1.225-0.914-2.613-1.949-4.021-3.309  c-1.296-1.25-2.417-2.386-3.406-3.386c-1.681-1.705-2.792-2.831-3.564-3.312c-0.512-0.319-0.991-1.648-1.276-2.442  c-0.19-0.529-0.34-0.946-0.517-1.242c-0.448-0.738-4.381-6.914-4.828-7.537c-0.196-0.269-0.378-0.745-0.574-1.25  c-0.158-0.408-0.323-0.833-0.526-1.249c-0.302-0.614-2.961-6.706-4.913-11.192c-0.249-0.573-0.486-1.12-0.708-1.628  c0.498-0.31,1.286-0.646,1.888-0.159c0.019,0.015,0.04,0.032,0.058,0.05c0.166,0.137,0.346,0.298,0.54,0.486  c0.193,0.187,0.396,0.396,0.608,0.628c0.185,0.2,0.374,0.419,0.569,0.652c0.597,0.716,1.23,1.578,1.84,2.548  c0.91,1.449,1.761,3.146,2.343,4.974l0.037,0.118l0.071,0.103c1.229,1.82,2.091,3.007,2.681,3.777  c-0.108,0.085-0.213,0.178-0.312,0.277c-1.45,1.456-1.018,2.523,1.474,6.436c0.404,0.752,0.664,1.384,0.873,1.893  c0.137,0.334,0.256,0.625,0.386,0.882c0.095,0.187,0.195,0.48,0.291,0.763c0.2,0.595,0.39,1.157,0.756,1.501  c0.055,0.053,0.159,0.144,0.313,0.284c2.249,2.01,3.605,3.394,4.036,4.113c0.892,1.487,2.641,3.018,2.713,3.083l1.133-1.299  c-0.02-0.017-1.28-1.125-2.087-2.25c-0.103-0.14-0.197-0.281-0.281-0.42c-0.694-1.162-2.697-3.02-4.366-4.513  c-0.116-0.104-0.217-0.194-0.263-0.238c-0.088-0.12-0.235-0.553-0.324-0.814c-0.114-0.339-0.233-0.69-0.384-0.989  c-0.099-0.198-0.206-0.457-0.331-0.759c-0.226-0.552-0.508-1.238-0.959-2.079l-0.015-0.028l-0.017-0.026  c-2.356-3.695-2.186-3.867-1.729-4.325c0.063-0.066,0.13-0.121,0.199-0.176c0.044-0.032,0.088-0.062,0.131-0.091  c0.193-0.126,0.397-0.21,0.608-0.26c0.431-0.1,0.886-0.054,1.315,0.102c0.354,0.128,0.686,0.328,0.97,0.579  c0.566,0.498,1.219,1.362,1.867,2.324c0.543,0.805,1.085,1.678,1.573,2.463l0.334,0.536l0.036,0.059  c-0.001,0,0.044,0.053,0.044,0.053c2.396,2.75,5.386,3.66,7.426,4.106c2.059,0.448,6.002,2.273,7.807,3.863  c1.952,1.719,5.55,6.061,5.872,7.275c0.104,0.383,0.23,0.778,0.379,1.235c0.248,0.771,0.546,1.702,0.86,2.984  c0.263,1.078,0.538,2.405,0.803,4.106c0.038,0.253,0.077,0.558,0.114,0.903V89.085z M81.475,50.293  c0.146-0.325,0.316-0.684,0.498-1.066c1.232-2.552,3.203-6.105,4.568-7.31c0.301-0.266,0.639-0.371,0.971-0.382  c-1.207,1.528-2.477,3.538-3.434,5.825c-0.225,0.54-0.438,1.09-0.625,1.661c-0.117,0.173-0.229,0.339-0.342,0.501L80.23,52.77  C80.725,51.858,81.166,50.99,81.475,50.293z M92.195,42.111c-1.951,4.486-4.611,10.578-4.912,11.192  c-0.205,0.416-0.369,0.84-0.527,1.249c-0.195,0.504-0.379,0.98-0.572,1.25c-0.449,0.623-4.383,6.799-4.832,7.537  c-0.176,0.296-0.326,0.713-0.516,1.242c-0.285,0.794-0.76,2.124-1.273,2.442c-0.775,0.481-1.887,1.606-3.566,3.312  c-0.988,1-2.107,2.136-3.406,3.386c-1.408,1.36-2.797,2.396-4.02,3.309c-1.768,1.318-3.291,2.454-4.35,4.106  c-0.623,0.967-0.842,3.062-0.85,5.472c-0.004,0.762,0.016,1.621,0.049,2.478H51.018v-3.87c0.039-0.345,0.078-0.65,0.117-0.903  c0.262-1.701,0.537-3.028,0.801-4.106c0.316-1.282,0.613-2.212,0.861-2.984c0.15-0.457,0.275-0.853,0.377-1.235  c0.324-1.214,3.92-5.556,5.873-7.275c1.805-1.589,5.748-3.415,7.807-3.863c2.041-0.446,5.031-1.356,7.428-4.106  c0,0,0.045-0.053,0.043-0.053l0.039-0.059l0.332-0.536c0.486-0.786,1.029-1.659,1.572-2.463c0.65-0.961,1.303-1.826,1.869-2.324  c0.281-0.25,0.615-0.451,0.969-0.579c0.428-0.155,0.883-0.202,1.312-0.102c0.213,0.05,0.418,0.134,0.611,0.26  c0.043,0.029,0.086,0.06,0.131,0.091c0.068,0.055,0.137,0.11,0.199,0.176c0.457,0.458,0.627,0.629-1.73,4.325l-0.018,0.026  L79.6,59.534c-0.453,0.841-0.734,1.527-0.961,2.079c-0.125,0.302-0.23,0.561-0.332,0.759c-0.15,0.299-0.268,0.65-0.383,0.989  c-0.09,0.261-0.234,0.694-0.322,0.814c-0.047,0.044-0.146,0.134-0.264,0.238c-1.668,1.493-3.674,3.351-4.365,4.513  c-0.084,0.14-0.18,0.281-0.279,0.42c-0.807,1.125-2.07,2.232-2.088,2.25l1.131,1.299c0.072-0.066,1.822-1.597,2.717-3.083  c0.43-0.719,1.787-2.103,4.035-4.113c0.154-0.14,0.256-0.231,0.311-0.284c0.365-0.345,0.557-0.906,0.758-1.501  c0.096-0.283,0.195-0.576,0.289-0.763c0.131-0.258,0.25-0.548,0.385-0.882c0.211-0.509,0.473-1.141,0.875-1.893  c2.49-3.913,2.926-4.98,1.473-6.436c-0.098-0.099-0.203-0.191-0.312-0.277c0.594-0.77,1.455-1.957,2.684-3.777l0.07-0.103  l0.037-0.118c0.582-1.829,1.434-3.525,2.342-4.974c0.609-0.97,1.244-1.832,1.84-2.548c0.195-0.233,0.387-0.452,0.57-0.652  c0.213-0.232,0.414-0.442,0.607-0.628c0.195-0.188,0.375-0.349,0.541-0.486c0.02-0.018,0.041-0.035,0.057-0.05  c0.604-0.487,1.391-0.151,1.889,0.159C92.684,40.992,92.445,41.539,92.195,42.111z"></path></svg>