<svg xmlns="http://www.w3.org/2000/svg" xmlns:xlink="http://www.w3.org/1999/xlink" version="1.1" x="0px" y="0px" viewBox="0 0 100 100" enable-background="new 0 0 100 100" xml:space="preserve"><path d="M41.085,26.172c0.117,0.824,0.273,1.56,0.484,2.126c0.947,2.695,3.356,4.058,3.356,4.058s0.156,2.747-0.083,3.391  l5.123,2.776l4.662-2.656l0.171-3.271c0,0,1.988-1.666,2.934-4.364c0.205-0.605,0.361-1.316,0.488-2.063  c1.029-0.152,1.829-1.375,1.829-2.877c0-1.284-0.587-2.362-1.399-2.745c0.286-1.713,0.371-3.551,0.321-4.04  c-0.107-1.066,0.012-3.864-2.485-4.956c-1.688-0.646-2.815-0.141-2.741-0.04c0,0-0.713-1.738-3.129-2.018  c-0.917-0.105-1.712-0.045-2.377-0.047c-1.133-0.003-2.369,0.325-3.438,0.646c-0.821,0.246-1.992,0.684-2.582,1.373  c-0.806,0.946-0.875,2.191-0.596,3.341c-1.013,0.216-1.382,1.233-1.333,2.125c0.105,1.938,0.562,3.501,0.493,3.523  c-0.918,0.28-1.608,1.442-1.608,2.834C39.174,24.83,40.021,26.077,41.085,26.172z M62.092,52.951v-3.129h-5.826v3.129H62.092z   M57.107,38.553l-4.455,5.368l-2.292-4.033v13.063h4.854V48.77h7.931v4.181h2.93c1.756-0.357,3.082-1.857,3.202-3.688  c-0.351-2.529-0.894-5.536-1.546-6.16c-1.161-1.111-1.867-2.965-8.039-3.877C58.516,39.053,57.717,38.827,57.107,38.553z   M56.718,37.374l-0.639-1.051l-4.882,2.908l1.62,2.848L56.718,37.374z M42.951,37.374l3.902,4.705l1.619-2.848l-4.883-2.908  L42.951,37.374z M33.476,52.951h15.832V39.89l-2.292,4.033l-4.456-5.374c-0.592,0.357-1.343,0.591-2.926,0.825  c-6.172,0.91-6.829,2.618-7.993,3.729c-0.651,0.624-1.098,3.628-1.366,6.156C30.394,51.092,31.719,52.594,33.476,52.951z   M94.55,39.182c-0.693-0.641-2.175-1.507-3.601-1.113c-0.346,0.095-0.689,0.263-1.018,0.528c-0.009,0.008-0.02,0.017-0.031,0.025  c-0.321,0.263-0.687,0.605-1.083,1.015c-1.062-0.344-2.33-0.357-3.417,0.599c-1.925,1.697-4.438,6.604-5.499,8.963  c-0.265,0.589-0.604,1.269-0.975,1.971c-0.325,0.608-0.675,1.23-1.028,1.83c-0.315,0.171-0.618,0.376-0.903,0.626  c-1.231,1.085-2.578,3.256-3.767,5.172l-0.291,0.468c-2.029,2.305-4.511,3.087-6.451,3.511c-2.307,0.504-6.557,2.473-8.581,4.253  c-1.845,1.628-5.906,6.278-6.399,8.125c-0.09,0.339-0.21,0.713-0.351,1.149c-0.193,0.6-0.428,1.335-0.685,2.282  c-0.151,0.571-0.312,1.224-0.475,1.972c-0.16-0.748-0.32-1.4-0.474-1.972c-0.253-0.947-0.489-1.683-0.683-2.282  c-0.14-0.437-0.26-0.811-0.352-1.149c-0.495-1.847-4.556-6.497-6.4-8.125c-2.025-1.78-6.273-3.749-8.579-4.253  c-1.942-0.424-4.423-1.206-6.452-3.511l-0.29-0.468c-1.189-1.916-2.537-4.087-3.768-5.172c-0.284-0.25-0.589-0.455-0.902-0.626  c-0.355-0.6-0.705-1.222-1.027-1.83c-0.374-0.702-0.714-1.382-0.979-1.971c-1.058-2.359-3.57-7.266-5.496-8.963  c-1.086-0.957-2.353-0.943-3.415-0.599c-0.396-0.41-0.762-0.752-1.085-1.015c-0.008-0.009-0.022-0.018-0.029-0.025  c-0.328-0.266-0.671-0.433-1.017-0.528c-1.428-0.394-2.909,0.472-3.601,1.113L5,39.597l0.243,0.561  c0.072,0.164,0.662,1.521,1.443,3.319c1.654,3.796,4.168,9.559,4.484,10.199c0.172,0.35,0.322,0.736,0.466,1.11  c0.234,0.61,0.458,1.185,0.781,1.636c0.417,0.578,4.328,6.719,4.752,7.42c0.089,0.146,0.24,0.564,0.372,0.933  c0.428,1.198,0.963,2.687,1.985,3.321c0.599,0.377,1.771,1.559,3.25,3.059c0.994,1.01,2.124,2.154,3.435,3.42  c1.487,1.434,2.922,2.504,4.188,3.449c1.698,1.266,3.038,2.268,3.93,3.655c0.46,0.717,0.606,2.676,0.571,5.095  c-0.017,1.176-0.074,2.49-0.165,3.796c0.586-0.042,29.942-0.042,30.528,0c-0.089-1.306-0.147-2.62-0.166-3.796  c-0.032-2.419,0.111-4.378,0.573-5.095c0.889-1.388,2.23-2.39,3.927-3.655c1.269-0.945,2.703-2.016,4.189-3.449  c1.312-1.266,2.442-2.41,3.437-3.42c1.477-1.5,2.646-2.682,3.249-3.059c1.021-0.635,1.556-2.123,1.985-3.321  c0.133-0.368,0.282-0.786,0.372-0.933c0.422-0.701,4.334-6.842,4.749-7.42c0.325-0.451,0.547-1.025,0.783-1.636  c0.145-0.374,0.294-0.761,0.467-1.11c0.313-0.64,2.831-6.402,4.483-10.199c0.781-1.797,1.373-3.155,1.442-3.319L95,39.597  L94.55,39.182z M13.459,41.529c1.365,1.204,3.336,4.757,4.566,7.31c0.185,0.382,0.351,0.741,0.497,1.066  c0.312,0.697,0.752,1.567,1.246,2.477l-2.882-3.247c-0.111-0.163-0.224-0.33-0.343-0.503c-0.184-0.569-0.397-1.12-0.624-1.66  c-0.956-2.287-2.225-4.296-3.434-5.826C12.82,41.158,13.156,41.265,13.459,41.529z M48.98,88.697H36.58  c0.032-0.856,0.052-1.717,0.049-2.477c-0.01-2.41-0.228-4.506-0.848-5.473c-1.06-1.652-2.586-2.789-4.351-4.105  c-1.225-0.916-2.613-1.949-4.022-3.31c-1.295-1.25-2.417-2.387-3.405-3.388c-1.682-1.704-2.792-2.83-3.564-3.309  c-0.513-0.32-0.991-1.65-1.276-2.444c-0.19-0.528-0.341-0.947-0.517-1.241c-0.448-0.738-4.381-6.914-4.829-7.537  c-0.195-0.27-0.377-0.744-0.574-1.25c-0.158-0.408-0.322-0.832-0.526-1.248c-0.302-0.613-2.961-6.706-4.913-11.193  c-0.249-0.573-0.486-1.12-0.708-1.627c0.498-0.309,1.287-0.645,1.888-0.158c0.019,0.014,0.041,0.032,0.059,0.049  c0.166,0.137,0.345,0.297,0.541,0.486c0.192,0.186,0.396,0.396,0.608,0.627c0.185,0.2,0.374,0.419,0.569,0.651  c0.597,0.717,1.23,1.579,1.84,2.549c0.91,1.449,1.761,3.146,2.343,4.974l0.037,0.12l0.071,0.102c1.229,1.82,2.09,3.007,2.681,3.777  c-0.108,0.087-0.213,0.177-0.313,0.277c-1.45,1.455-1.017,2.523,1.475,6.436c0.404,0.752,0.664,1.384,0.872,1.895  c0.138,0.334,0.257,0.623,0.387,0.882c0.096,0.186,0.195,0.479,0.291,0.761c0.199,0.597,0.39,1.158,0.756,1.504  c0.055,0.053,0.159,0.145,0.313,0.283c2.249,2.01,3.605,3.394,4.036,4.113c0.892,1.484,2.641,3.018,2.713,3.082l1.133-1.299  c-0.02-0.017-1.279-1.123-2.086-2.246c-0.103-0.141-0.196-0.283-0.28-0.423c-0.694-1.161-2.697-3.021-4.366-4.513  c-0.117-0.104-0.217-0.194-0.264-0.238c-0.087-0.119-0.234-0.553-0.323-0.814c-0.114-0.338-0.233-0.691-0.385-0.988  c-0.099-0.199-0.206-0.458-0.331-0.76c-0.226-0.551-0.507-1.236-0.958-2.078l-0.015-0.029l-0.018-0.027  c-2.356-3.693-2.186-3.865-1.728-4.322c0.064-0.064,0.13-0.123,0.199-0.176c0.044-0.032,0.087-0.064,0.131-0.092  c0.193-0.126,0.397-0.21,0.608-0.262c0.43-0.099,0.886-0.051,1.315,0.104c0.354,0.127,0.686,0.328,0.969,0.578  c0.566,0.498,1.219,1.362,1.868,2.322c0.543,0.807,1.085,1.68,1.572,2.464l0.334,0.537l0.037,0.06  c-0.001-0.001,0.044,0.052,0.044,0.052c2.396,2.75,5.386,3.661,7.427,4.107c2.059,0.448,6.002,2.272,7.807,3.862  c1.952,1.721,5.55,6.061,5.873,7.274c0.103,0.384,0.229,0.778,0.378,1.236c0.248,0.771,0.545,1.7,0.86,2.982  c0.263,1.079,0.539,2.407,0.802,4.107c0.039,0.254,0.077,0.558,0.116,0.905V88.697z M81.474,49.905  c0.146-0.325,0.316-0.684,0.499-1.066c1.23-2.553,3.202-6.106,4.568-7.31c0.302-0.265,0.638-0.372,0.971-0.384  c-1.208,1.53-2.477,3.54-3.435,5.826c-0.224,0.54-0.437,1.09-0.624,1.66c-0.119,0.174-0.229,0.34-0.341,0.503l-2.882,3.247  C80.725,51.473,81.166,50.602,81.474,49.905z M92.195,41.723c-1.95,4.487-4.612,10.58-4.913,11.193  c-0.205,0.416-0.367,0.84-0.527,1.248c-0.195,0.506-0.379,0.98-0.572,1.25c-0.449,0.623-4.382,6.799-4.832,7.537  c-0.175,0.294-0.326,0.713-0.516,1.241c-0.285,0.794-0.762,2.124-1.274,2.444c-0.773,0.479-1.886,1.604-3.565,3.309  c-0.987,1.001-2.109,2.138-3.406,3.388c-1.408,1.36-2.797,2.394-4.021,3.31c-1.766,1.316-3.29,2.453-4.35,4.105  c-0.622,0.967-0.841,3.062-0.85,5.473c-0.003,0.76,0.016,1.62,0.048,2.477H51.019V84.83c0.037-0.348,0.076-0.651,0.117-0.905  c0.263-1.7,0.537-3.028,0.8-4.107c0.315-1.282,0.613-2.212,0.862-2.982c0.149-0.458,0.274-0.853,0.377-1.236  c0.323-1.214,3.919-5.554,5.871-7.274c1.808-1.59,5.75-3.414,7.808-3.862c2.041-0.446,5.03-1.357,7.427-4.107  c0,0,0.045-0.053,0.044-0.052l0.038-0.06l0.332-0.537c0.487-0.784,1.029-1.657,1.573-2.464c0.651-0.96,1.303-1.824,1.87-2.322  c0.282-0.25,0.616-0.451,0.97-0.578c0.425-0.154,0.881-0.202,1.312-0.104c0.213,0.052,0.417,0.136,0.61,0.262  c0.041,0.027,0.086,0.06,0.13,0.092c0.069,0.053,0.136,0.111,0.2,0.176c0.457,0.457,0.628,0.629-1.729,4.322l-0.018,0.027  l-0.013,0.029c-0.453,0.842-0.733,1.527-0.96,2.078c-0.125,0.302-0.229,0.561-0.332,0.76c-0.15,0.297-0.266,0.65-0.383,0.988  c-0.088,0.262-0.233,0.695-0.321,0.814c-0.049,0.044-0.148,0.135-0.265,0.238c-1.668,1.492-3.672,3.352-4.364,4.513  c-0.083,0.14-0.18,0.282-0.28,0.423c-0.808,1.123-2.07,2.229-2.088,2.246l1.129,1.299c0.075-0.064,1.825-1.598,2.717-3.082  c0.431-0.72,1.787-2.104,4.037-4.113c0.155-0.139,0.255-0.23,0.311-0.283c0.366-0.346,0.555-0.907,0.757-1.504  c0.096-0.282,0.194-0.575,0.288-0.761c0.131-0.259,0.25-0.548,0.386-0.882c0.213-0.511,0.472-1.143,0.874-1.895  c2.492-3.912,2.925-4.98,1.474-6.436c-0.099-0.101-0.204-0.19-0.312-0.277c0.592-0.77,1.455-1.957,2.684-3.777l0.068-0.102  l0.039-0.12c0.58-1.828,1.432-3.524,2.341-4.974c0.609-0.97,1.244-1.832,1.839-2.549c0.195-0.232,0.387-0.451,0.571-0.651  c0.209-0.232,0.414-0.442,0.607-0.627c0.193-0.189,0.373-0.349,0.542-0.486c0.018-0.017,0.039-0.036,0.056-0.049  c0.603-0.487,1.391-0.151,1.888,0.158C92.684,40.604,92.445,41.15,92.195,41.723z"></path></svg>