<svg xmlns="http://www.w3.org/2000/svg" xmlns:xlink="http://www.w3.org/1999/xlink" version="1.1" x="0px" y="0px" viewBox="0 0 100 100" enable-background="new 0 0 100 100" xml:space="preserve"><path d="M46.155,52.161c0,2.125,1.723,3.848,3.847,3.848c2.125,0,3.848-1.723,3.848-3.848s-1.722-3.847-3.848-3.847  C47.878,48.313,46.155,50.036,46.155,52.161z M42.187,40.357l7.998-12.81L5,52.238v4.816l37.187-20.319V40.357z M82.848,68.194  H55.365v-5.099c0-2.962-2.399-5.362-5.362-5.362c-2.961,0-5.363,2.4-5.363,5.362v5.099H17.389V52.848l-0.002,0.001v0.108  l-7.091,13.331l2.834-1.637v5.674h0.012v2.128h73.965v-4.277h-4.258V68.194z M95,56.887l-7.998-12.811v3.661L52.704,28.996v4.835  l4.962,2.712l35.502,19.398l1.816,0.993l-0.12-0.162L95,56.887z"></path></svg>