<svg xmlns="http://www.w3.org/2000/svg" xmlns:xlink="http://www.w3.org/1999/xlink" version="1.1" x="0px" y="0px" viewBox="0 0 100 100" enable-background="new 0 0 100 100" xml:space="preserve"><path d="M67.572,52.209H60.74c-0.764,0-1.385,0.619-1.385,1.382v15.001c0,0.764,0.621,1.385,1.385,1.385h6.832  c0.764,0,1.383-0.621,1.383-1.385V53.591C68.955,52.828,68.336,52.209,67.572,52.209z M67.912,39.057h-0.436v-5.408H62.58v-7.938  c0-1.863-1.51-3.371-3.373-3.371H29.18c-1.865,0-3.374,1.508-3.374,3.371v38.128h28.353v9.733c0,3.393,2.748,6.14,6.141,6.14h7.613  c3.391,0,6.139-2.747,6.143-6.14V45.2C74.051,41.808,71.303,39.059,67.912,39.057z M28.399,61.242v-7.197  c0.368,0.301,0.81,0.868,1.461,1.5c0.708,0.693,1.86,1.395,3.353,1.375c2.03,0.033,3.269-1.253,3.931-2.061  c0.359-0.416,0.645-0.738,0.891-0.91c0.251-0.174,0.412-0.248,0.806-0.258c1.065,0.047,1.238,0.342,1.912,1.124  c0.307,0.381,0.651,0.868,1.205,1.315c0.549,0.453,1.367,0.8,2.277,0.789c0.897,0.006,1.688-0.326,2.264-0.739  c0.868-0.624,1.41-1.362,1.913-1.829c0.519-0.482,0.812-0.65,1.276-0.66c0.327,0.012,0.423,0.065,0.634,0.219  c0.313,0.228,0.696,0.842,1.304,1.553c0.507,0.607,1.387,1.271,2.532,1.424l0.001,4.355H28.399z M54.157,45.2v9.013  c-0.078-0.036-0.152-0.08-0.231-0.135c-0.343-0.234-0.716-0.81-1.286-1.502c-0.536-0.679-1.564-1.504-2.952-1.48  c-1.882,0.012-2.975,1.259-3.697,2.025c-0.378,0.408-0.706,0.744-0.98,0.935c-0.286,0.192-0.474,0.265-0.775,0.269  c-0.352-0.011-0.444-0.066-0.657-0.217c-0.312-0.227-0.707-0.863-1.384-1.592c-0.662-0.729-1.835-1.447-3.354-1.42  c-0.927-0.01-1.75,0.319-2.331,0.754c-0.877,0.657-1.34,1.397-1.8,1.828c-0.474,0.432-0.732,0.623-1.496,0.646  c-0.983-0.023-1.316-0.39-2.071-1.188c-0.357-0.389-0.752-0.863-1.328-1.287c-0.379-0.281-0.866-0.516-1.414-0.645L28.4,25.711  c0-0.428,0.348-0.774,0.779-0.776h30.027c0.43,0.002,0.779,0.349,0.779,0.776V39.09C56.742,39.257,54.158,41.913,54.157,45.2z   M71.459,73.572c-0.004,1.957-1.59,3.541-3.547,3.547h-7.613c-1.957-0.006-3.543-1.59-3.545-3.547L56.752,45.2  c0.004-1.958,1.59-3.545,3.547-3.548h7.613c1.957,0.003,3.543,1.59,3.547,3.548V73.572z M82.881,5.693l-0.715,0.47l-4.02,2.632  l-4.795-3.079l-4.881,3.085l-4.904-3.085l-4.914,3.089l-4.928-3.086l-4.931,3.086l-4.936-3.086l-4.93,3.082l-4.933-3.079  l-4.93,3.083l-4.92-3.075l-5.212,3.093L12.475,5v90h75.051V9.043L82.881,5.693z M85.039,92.514H14.962V9.36l3.968,2.352l5.186-3.072  l4.951,3.095l4.93-3.085l4.936,3.085l4.929-3.081l4.934,3.081l4.929-3.081l4.934,3.086l4.91-3.083l4.906,3.086l4.869-3.08  l4.818,3.095l4.654-3.047l2.225,1.604V92.514z"></path></svg>