<svg xmlns="http://www.w3.org/2000/svg" xmlns:xlink="http://www.w3.org/1999/xlink" version="1.1" x="0px" y="0px" viewBox="0 0 100 100" enable-background="new 0 0 100 100" xml:space="preserve"><path d="M93.5,93.5c-1,1-2.3,1.5-3.6,1.5c-1.3,0-2.6-0.5-3.6-1.5L63.8,71c2.7-2.1,5.1-4.5,7.2-7.2l22.6,22.6  C95.5,88.3,95.5,91.5,93.5,93.5z M72.8,38.9c0,18.7-15.2,33.9-33.9,33.9S5,57.6,5,38.9S20.2,5,38.9,5S72.8,20.2,72.8,38.9z M66,38.9  c0-14.9-12.2-27.1-27.1-27.1S11.8,23.9,11.8,38.9C11.8,53.8,23.9,66,38.9,66S66,53.8,66,38.9z M38.9,16.9c-12.1,0-22,9.9-22,22  c0,0.9,0.8,1.7,1.7,1.7s1.7-0.8,1.7-1.7c0-10.3,8.4-18.6,18.6-18.6c0.9,0,1.7-0.8,1.7-1.7C40.6,17.6,39.8,16.9,38.9,16.9z"></path></svg>