<svg xmlns="http://www.w3.org/2000/svg" xmlns:xlink="http://www.w3.org/1999/xlink" version="1.0" x="0px" y="0px" viewBox="0 0 100 100" style="enable-background:new 0 0 100 100;" xml:space="preserve"><style type="text/css">

	.st0{fill:#1D1D1B;}

</style><path class="st0" d="M94.1,83.5L65.5,54.9c-0.5-0.5-1.2-0.5-1.7,0l-0.3,0.3c0,0,0,0,0,0l-2.8-2.8c7.8-11.7,6.5-27.7-3.8-38  c-5.7-5.7-13.3-8.8-21.3-8.8c-8,0-15.6,3.1-21.3,8.8c-11.7,11.7-11.7,30.9,0,42.6c5.7,5.7,13.3,8.8,21.3,8.8c6,0,11.8-1.8,16.7-5  l2.7,2.7c0,0,0,0,0,0L54.8,64c-0.5,0.5-0.5,1.2,0,1.7l28.5,28.5c0.2,0.2,0.5,0.3,0.8,0.3c0.3,0,0.6-0.1,0.8-0.3l9.1-9.1  C94.5,84.7,94.5,83.9,94.1,83.5z M19.3,52.1c-9-9-9-23.7,0-32.7c4.4-4.4,10.2-6.8,16.3-6.8c6.2,0,12,2.4,16.3,6.8c9,9,9,23.7,0,32.7  c-4.4,4.4-10.2,6.8-16.3,6.8C29.5,58.9,23.7,56.5,19.3,52.1z M84.2,91.7L57.3,64.8l7.4-7.4l26.9,26.9L84.2,91.7z"></path></svg>