<?xml version="1.0" encoding="utf-8"?><!DOCTYPE svg PUBLIC "-//W3C//DTD SVG 1.1//EN" "http://www.w3.org/Graphics/SVG/1.1/DTD/svg11.dtd"><svg version="1.1" xmlns="http://www.w3.org/2000/svg" xmlns:xlink="http://www.w3.org/1999/xlink" x="0px" y="0px" viewBox="0 0 99.593 100" enable-background="new 0 0 99.593 100" xml:space="preserve"><path fill="#010101" d="M71.953,24.053l8.759-10.511l1.752,1.752L71.953,24.053z"></path><path fill="#010101" d="M80.85,0c-8.358,0-15.104,6.787-15.104,15.146c0,6.689,4.308,12.34,10.323,14.343v3.088
	c-6.426-1.337-14.047-2.2-22.297-2.412c0.702-0.912,1.143-2.038,1.143-3.3c0-2.948-2.283-5.374-5.119-5.374
	c-2.836,0-5.119,2.424-5.119,5.374c0,1.262,0.438,2.388,1.142,3.3c-18.964,0.486-34.668,4.393-40.023,9.646H3.85
	c-2.116,0-3.85,1.777-3.85,3.977c0,2.199,1.734,3.977,3.85,3.977h91.893c2.115,0,3.851-1.778,3.851-3.977
	c0-2.199-1.735-3.977-3.851-3.977h-1.946c-1.721-1.688-4.545-3.227-8.165-4.569v-5.754c6.017-2.002,10.365-7.654,10.365-14.343
	C95.997,6.787,89.208,0,80.85,0z M80.85,2.369c7.039,0,12.777,5.737,12.777,12.777c0,7.039-5.738,12.735-12.777,12.735
	s-12.734-5.696-12.734-12.735C68.116,8.106,73.811,2.369,80.85,2.369z"></path><path fill="#010101" d="M95.609,51.626H3.984C1.423,51.626,0,53.049,0,55.609c0,2.562,1.423,3.984,3.984,3.984
	l3.983,1.992V88.05c0,6.376,5.575,11.95,11.951,11.95h59.754c6.378,0,11.952-5.574,11.952-11.95V61.586l3.983-1.992
	c2.562,0,3.984-1.423,3.984-3.984C99.594,53.049,98.17,51.626,95.609,51.626L95.609,51.626z"></path></svg>