<svg xmlns="http://www.w3.org/2000/svg" xmlns:xlink="http://www.w3.org/1999/xlink" version="1.1" x="0px" y="0px" viewBox="0 0 100 100" enable-background="new 0 0 100 100" xml:space="preserve"><rect fill="none" width="100" height="100"></rect><path d="M90.437,68.019l-4.779-8.272c-0.64-1.109-2.057-1.491-3.161-0.846c-1.104,0.64-1.483,2.052-0.843,3.161l4.781,8.271  c0.786,1.365,0.986,2.582,0.547,3.345c-0.435,0.76-1.591,1.196-3.166,1.196l-29.792,0.005c-0.075,0-0.139,0.04-0.21,0.044V60.511  c0-0.467-0.281-0.89-0.713-1.068c-0.436-0.183-0.933-0.083-1.263,0.249l-16.667,16.67c-0.22,0.218-0.34,0.511-0.34,0.818  c0,0.306,0.12,0.599,0.34,0.816l16.667,16.667C52.059,94.883,52.356,95,52.655,95c0.149,0,0.301-0.027,0.445-0.088  c0.432-0.179,0.713-0.602,0.713-1.067V79.462c0.071,0.005,0.135,0.044,0.21,0.044l29.792-0.008c3.271,0,5.888-1.282,7.176-3.511  C92.275,73.757,92.078,70.853,90.437,68.019z M51.499,91.052L37.619,77.18l13.88-13.877V91.052z M28.362,44.71  c0.068-0.125,0.085-0.264,0.129-0.393l12.514,7.225c0.181,0.104,0.381,0.156,0.582,0.156c0.247,0,0.494-0.081,0.701-0.239  c0.374-0.284,0.535-0.765,0.413-1.217l-6.093-22.77c-0.081-0.298-0.276-0.552-0.54-0.704c-0.264-0.156-0.584-0.195-0.877-0.117  l-22.772,6.103c-0.45,0.12-0.784,0.503-0.845,0.965c-0.061,0.462,0.164,0.921,0.567,1.151l12.489,7.217  c-0.088,0.105-0.203,0.186-0.276,0.31L9.56,68.028c-1.634,2.831-1.837,5.736-0.55,7.967c1.29,2.23,3.904,3.506,7.178,3.506l0,0  l9.558-0.003c1.278,0,2.312-1.038,2.312-2.313c0-1.277-1.036-2.312-2.314-2.312l0,0l-9.555,0.005l0,0  c-1.576,0-2.733-0.435-3.171-1.196c-0.442-0.76-0.239-1.979,0.55-3.343L28.362,44.71z M34.67,29.187l5.077,18.958L15.714,34.264  L34.67,29.187z M39.447,20.897c1.102,0.638,2.521,0.256,3.159-0.848l4.774-8.277c1.576-2.731,3.664-2.731,5.241-0.002l14.84,25.704  c0.057,0.095,0.135,0.171,0.2,0.254l-12.484,7.205c-0.403,0.234-0.628,0.689-0.566,1.15c0.059,0.467,0.394,0.851,0.845,0.968  l22.771,6.108c0.095,0.026,0.197,0.041,0.298,0.041c0.2,0,0.403-0.051,0.579-0.156c0.264-0.153,0.462-0.403,0.54-0.701l6.103-22.768  c0.12-0.452-0.044-0.933-0.41-1.219c-0.374-0.284-0.88-0.32-1.282-0.083l-12.48,7.2c-0.041-0.103-0.044-0.212-0.104-0.31  L56.628,9.458C54.991,6.622,52.575,5,50.001,5c-2.575,0-4.991,1.625-6.628,4.461l-4.774,8.277  C37.961,18.843,38.34,20.26,39.447,20.897z M77.705,50.628l-18.956-5.084l24.04-13.875L77.705,50.628z M90.437,68.019l-4.779-8.272  c-0.64-1.109-2.057-1.491-3.161-0.846c-1.104,0.64-1.483,2.052-0.843,3.161l4.781,8.271c0.786,1.365,0.986,2.582,0.547,3.345  c-0.435,0.76-1.591,1.196-3.166,1.196l-29.792,0.005c-0.075,0-0.139,0.04-0.21,0.044V60.511c0-0.467-0.281-0.89-0.713-1.068  c-0.436-0.183-0.933-0.083-1.263,0.249l-16.667,16.67c-0.22,0.218-0.34,0.511-0.34,0.818c0,0.306,0.12,0.599,0.34,0.816  l16.667,16.667C52.059,94.883,52.356,95,52.655,95c0.149,0,0.301-0.027,0.445-0.088c0.432-0.179,0.713-0.602,0.713-1.067V79.462  c0.071,0.005,0.135,0.044,0.21,0.044l29.792-0.008c3.271,0,5.888-1.282,7.176-3.511C92.275,73.757,92.078,70.853,90.437,68.019z   M51.499,91.052L37.619,77.18l13.88-13.877V91.052z M28.362,44.71c0.068-0.125,0.085-0.264,0.129-0.393l12.514,7.225  c0.181,0.104,0.381,0.156,0.582,0.156c0.247,0,0.494-0.081,0.701-0.239c0.374-0.284,0.535-0.765,0.413-1.217l-6.093-22.77  c-0.081-0.298-0.276-0.552-0.54-0.704c-0.264-0.156-0.584-0.195-0.877-0.117l-22.772,6.103c-0.45,0.12-0.784,0.503-0.845,0.965  c-0.061,0.462,0.164,0.921,0.567,1.151l12.489,7.217c-0.088,0.105-0.203,0.186-0.276,0.31L9.56,68.028  c-1.634,2.831-1.837,5.736-0.55,7.967c1.29,2.23,3.904,3.506,7.178,3.506l0,0l9.558-0.003c1.278,0,2.312-1.038,2.312-2.313  c0-1.277-1.036-2.312-2.314-2.312l0,0l-9.555,0.005l0,0c-1.576,0-2.733-0.435-3.171-1.196c-0.442-0.76-0.239-1.979,0.55-3.343  L28.362,44.71z M34.67,29.187l5.077,18.958L15.714,34.264L34.67,29.187z M39.447,20.897c1.102,0.638,2.521,0.256,3.159-0.848  l4.774-8.277c1.576-2.731,3.664-2.731,5.241-0.002l14.84,25.704c0.057,0.095,0.135,0.171,0.2,0.254l-12.484,7.205  c-0.403,0.234-0.628,0.689-0.566,1.15c0.059,0.467,0.394,0.851,0.845,0.968l22.771,6.108c0.095,0.026,0.197,0.041,0.298,0.041  c0.2,0,0.403-0.051,0.579-0.156c0.264-0.153,0.462-0.403,0.54-0.701l6.103-22.768c0.12-0.452-0.044-0.933-0.41-1.219  c-0.374-0.284-0.88-0.32-1.282-0.083l-12.48,7.2c-0.041-0.103-0.044-0.212-0.104-0.31L56.628,9.458C54.991,6.622,52.575,5,50.001,5  c-2.575,0-4.991,1.625-6.628,4.461l-4.774,8.277C37.961,18.843,38.34,20.26,39.447,20.897z M77.705,50.628l-18.956-5.084  l24.04-13.875L77.705,50.628z"></path></svg>