<svg xmlns="http://www.w3.org/2000/svg" xmlns:xlink="http://www.w3.org/1999/xlink" version="1.1" x="0px" y="0px" viewBox="0 0 100 100" enable-background="new 0 0 100 100" xml:space="preserve"><rect fill="none" width="100" height="100"></rect><path d="M93.646,15.507h-14.55c-0.747,0-1.354,0.604-1.354,1.354v8.12H64.548c-0.747,0-1.352,0.604-1.352,1.354v6.428H50.002  c-0.747,0-1.352,0.604-1.352,1.352v7.105H35.452c-0.75,0-1.354,0.607-1.354,1.354v6.598H20.902c-0.747,0-1.352,0.604-1.352,1.352  v6.257H6.354C5.604,56.781,5,57.391,5,58.135v25.004c0,0.749,0.604,1.354,1.354,1.354h14.548h14.55h14.55h14.545h14.548h14.55  c0.75,0,1.354-0.604,1.354-1.354V16.861C95,16.112,94.396,15.507,93.646,15.507z M7.708,59.489H19.55v22.295H7.708V59.489z   M22.256,58.135v-6.257h11.842v29.906H22.256V58.135z M36.804,50.524v-6.596h11.847v37.856H36.804V50.524z M51.356,42.574v-7.105  h11.84v46.315h-11.84V42.574z M65.902,34.115v-6.428h11.839v54.098H65.902V34.115z M92.292,81.784H80.449V26.335v-8.12h11.843  V81.784z"></path></svg>