<svg xmlns="http://www.w3.org/2000/svg" xmlns:xlink="http://www.w3.org/1999/xlink" version="1.1" x="0px" y="0px" viewBox="0 0 90 90" enable-background="new 0 0 90 90" xml:space="preserve"><path d="M83.751,75.262L70.809,62.319c3.789-5.552,6.009-12.257,6.009-19.471c0-19.098-15.538-34.636-34.636-34.636  S7.545,23.75,7.545,42.849c0,19.098,15.538,34.636,34.636,34.636c7.214,0,13.918-2.22,19.471-6.009l12.942,12.942L83.751,75.262z   M20.494,42.849c0-11.958,9.729-21.688,21.687-21.688s21.687,9.729,21.687,21.688c0,11.959-9.729,21.688-21.687,21.688  S20.494,54.808,20.494,42.849z"></path></svg>