<svg xmlns="http://www.w3.org/2000/svg" xmlns:xlink="http://www.w3.org/1999/xlink" xmlns:sketch="http://www.bohemiancoding.com/sketch/ns" viewBox="0 0 171 171" version="1.1" x="0px" y="0px"><title>search</title><description>Created with Sketch.</description><g stroke="none" stroke-width="1" fill="none" fill-rule="evenodd" sketch:type="MSPage"><path d="M93.4644661,101.517947 C108.381928,97.9203309 119.464466,84.486632 119.464466,68.4644661 C119.464466,49.6867837 104.242149,34.4644661 85.4644661,34.4644661 C66.6867837,34.4644661 51.4644661,49.6867837 51.4644661,68.4644661 C51.4644661,85.5435091 64.0573112,99.6813338 80.4644661,102.099405 L80.4644661,136.464466 L93.4644661,136.464466 L93.4644661,101.517947 Z M85.9644661,89.4644661 C97.286304,89.4644661 106.464466,80.286304 106.464466,68.9644661 C106.464466,57.6426282 97.286304,48.4644661 85.9644661,48.4644661 C74.6426282,48.4644661 65.4644661,57.6426282 65.4644661,68.9644661 C65.4644661,80.286304 74.6426282,89.4644661 85.9644661,89.4644661 Z" fill="#000000" sketch:type="MSShapeGroup" transform="translate(85.464466, 85.464466) rotate(-45.000000) translate(-85.464466, -85.464466) "></path></g></svg>