<svg xmlns="http://www.w3.org/2000/svg" xmlns:xlink="http://www.w3.org/1999/xlink" version="1.1" x="0px" y="0px" viewBox="0 0 100 100" enable-background="new 0 0 100 100" xml:space="preserve"><path fill-rule="evenodd" clip-rule="evenodd" d="M49.656,4.531c-25.405,0-46,20.595-46,46c0,25.405,20.595,46,46,46  c25.405,0,46-20.595,46-46C95.656,25.126,75.062,4.531,49.656,4.531z M55.01,91.503c-0.108-0.643-0.217-1.296-0.325-1.934  c-0.465-2.738-0.93-5.485-1.395-8.224c-0.565-3.335-1.132-6.675-1.697-10.01c-0.434-2.552-0.866-5.105-1.299-7.657  c-0.093-0.55-0.187-1.101-0.28-1.651c-0.02-0.119,0.001-0.207,0.022-0.331c0.111-0.651,0.221-1.303,0.332-1.954  c0.183-1.078,0.365-2.155,0.548-3.233c0.002-0.016,0.001-0.047,0.01-0.061c0.117-0.023,0.118-0.104,0.167-0.212  c0.065-0.147,0.131-0.294,0.197-0.44c0.033-0.074,0.066-0.22,0.125-0.279c0.148-0.05,0.34-0.196,0.488-0.13  c0.135,0.06,0.269,0.119,0.402,0.179c0.127,0.057,0.253,0.113,0.38,0.17c0.094,0.042,0.295-0.079,0.33-0.171  c1.017,0.718,2.033,1.436,3.05,2.153c0.471,0.333,0.942,0.666,1.413,0.998c0.076,0.055,0.111,0.106,0.166,0.184  c1.014,1.428,2.028,2.856,3.043,4.284c1.848,2.602,3.695,5.203,5.543,7.805c1.87,2.633,3.74,5.266,5.611,7.898  c1.025,1.445,2.052,2.891,3.079,4.335C69.267,87.598,62.449,90.54,55.01,91.503z M8.688,55.904c0.112-0.02,0.224-0.038,0.336-0.058  c2.184-0.37,4.367-0.741,6.551-1.111c3.277-0.557,6.555-1.112,9.833-1.669c2.992-0.508,5.983-1.015,8.974-1.522  c1.324-0.225,2.648-0.449,3.973-0.674c0.052-0.009,0.135,0.022,0.186,0.031c0.202,0.034,0.404,0.069,0.606,0.103  c0.645,0.109,1.29,0.219,1.934,0.328c0.96,0.163,1.92,0.326,2.879,0.488c-0.043,0.053-0.086,0.105-0.129,0.158  c-0.017,0.021,0.066,0.347,0.094,0.355c0.142,0.049,0.283,0.098,0.425,0.146c0.159,0.055,0.318,0.108,0.477,0.163  c0.108,0.037,0.263,0.367,0.227,0.477c-0.066,0.201-0.104,0.486-0.227,0.658c-0.101,0.143-0.202,0.284-0.303,0.427  c-0.878,1.236-1.755,2.473-2.633,3.709c-0.113,0.16-0.235,0.432-0.398,0.547c-0.121,0.085-0.241,0.171-0.361,0.256  c-0.627,0.445-1.255,0.892-1.883,1.337c-2.306,1.637-4.611,3.273-6.917,4.91c-2.754,1.955-5.508,3.91-8.261,5.864  c-2.06,1.463-4.12,2.925-6.18,4.387c-0.296,0.21-0.592,0.421-0.888,0.63C12.611,70.187,9.656,63.357,8.688,55.904z M44.383,9.549  c0.103,0.606,0.206,1.213,0.309,1.82c0.456,2.685,0.912,5.371,1.367,8.056c0.566,3.338,1.133,6.675,1.7,10.013  c0.442,2.609,0.885,5.218,1.328,7.828c0.102,0.6,0.203,1.199,0.305,1.799c0.015,0.089,0.029,0.152,0.014,0.24  c-0.091,0.536-0.182,1.071-0.272,1.606c-0.246,1.448-0.492,2.896-0.737,4.344c-0.111-0.076-0.223-0.151-0.334-0.227  c-0.096-0.065-0.261-0.233-0.377-0.255c-0.056,0.02-0.324,0.086-0.338,0.143c-0.013,0.053-0.025,0.106-0.039,0.159  c-0.047,0.198-0.095,0.396-0.143,0.595c-0.037,0.153-0.121,0.403-0.308,0.271c-0.167-0.12-0.336-0.239-0.503-0.357  c-1.26-0.895-2.521-1.79-3.781-2.685c-0.195-0.138-0.389-0.276-0.583-0.415c-0.042-0.03-0.114-0.062-0.145-0.104  c-0.068-0.097-0.137-0.194-0.206-0.291c-0.419-0.59-0.837-1.18-1.256-1.77c-1.607-2.264-3.214-4.527-4.821-6.792  c-1.958-2.757-3.915-5.515-5.873-8.272c-1.498-2.11-2.995-4.219-4.492-6.329c-0.261-0.367-0.522-0.735-0.783-1.103  C30.083,13.442,36.922,10.499,44.383,9.549z M49.656,9.215c1.627,0,3.23,0.097,4.808,0.28c-0.204,1.202-0.408,2.404-0.611,3.606  c-0.518,3.046-1.034,6.092-1.552,9.139c-0.545,3.214-1.091,6.428-1.636,9.643c-0.315,1.857-0.63,3.714-0.945,5.572  c-0.013,0.075-0.025,0.15-0.038,0.226c-0.23-1.357-0.46-2.714-0.691-4.071c-0.518-3.051-1.036-6.102-1.553-9.152  c-0.546-3.216-1.091-6.431-1.637-9.646c-0.301-1.774-0.602-3.548-0.903-5.321C46.459,9.311,48.046,9.215,49.656,9.215z   M90.64,45.262c-0.075,0.013-0.15,0.026-0.226,0.039c-2.175,0.369-4.35,0.738-6.523,1.106c-3.276,0.556-6.552,1.112-9.827,1.668  c-2.996,0.508-5.992,1.017-8.988,1.525c-1.336,0.227-2.672,0.454-4.008,0.68c-0.07,0.012-0.181-0.03-0.249-0.042  c-0.257-0.043-0.515-0.087-0.771-0.131c-0.789-0.134-1.578-0.268-2.367-0.402c-0.732-0.124-1.466-0.249-2.199-0.373  c-0.188-0.032-0.375-0.063-0.562-0.096c-0.075-0.013-0.06,0.004-0.084-0.09c-0.016-0.06-0.113-0.274-0.086-0.324  c0.033-0.06,0.066-0.12,0.099-0.179c0.078-0.141,0.155-0.282,0.232-0.422c0.036-0.067,0.142-0.191,0.147-0.269  c-0.021-0.046-0.12-0.316-0.166-0.323c-0.064-0.01-0.13-0.019-0.195-0.028c-0.132-0.019-0.264-0.038-0.396-0.057  c0.706-0.994,1.411-1.988,2.117-2.982c0.384-0.541,0.769-1.083,1.152-1.624c0.074-0.104,0.131-0.208,0.234-0.282  c1.33-0.944,2.66-1.889,3.99-2.833c2.567-1.822,5.134-3.644,7.7-5.466c2.661-1.889,5.322-3.777,7.982-5.666  c1.582-1.123,3.163-2.245,4.744-3.368C86.759,30.988,89.691,37.814,90.64,45.262z M55.753,49.903  c1.256,0.213,2.513,0.427,3.769,0.64c-0.781,0.132-1.562,0.265-2.344,0.397c-0.517,0.088-1.033,0.176-1.55,0.263  c-0.156,0.027-0.312,0.053-0.468,0.079c-0.118,0.021-0.118,0.034-0.198-0.072c0.017-0.125-0.021-0.394,0.078-0.476  c0.103-0.086,0.206-0.173,0.309-0.26c0.106-0.088,0.212-0.177,0.318-0.266C55.793,50.102,55.771,50.084,55.753,49.903z   M53.946,47.324c-0.139-0.186-0.145-0.195-0.116-0.408c0.024-0.188,0.051-0.377,0.075-0.566c0.031-0.23,0.023-0.228-0.17-0.399  c-0.116-0.103-0.293-0.008-0.438,0.025c1.079-0.766,2.157-1.532,3.236-2.297C55.672,44.893,54.809,46.109,53.946,47.324z   M54.405,54.307c0.212,0.298,0.424,0.597,0.637,0.896c0.541,0.762,1.082,1.524,1.623,2.287c-0.679-0.482-1.357-0.964-2.037-1.446  c-0.41-0.291-0.82-0.583-1.23-0.874c-0.095-0.066-0.188-0.133-0.282-0.2c-0.072-0.051-0.007-0.322-0.003-0.408  c0.1-0.083,0.249-0.304,0.383-0.298c0.125,0.005,0.25,0.01,0.375,0.016C53.945,54.281,54.362,54.245,54.405,54.307z M82.04,24.875  c-0.986,0.7-1.973,1.4-2.959,2.101c-2.526,1.793-5.053,3.586-7.579,5.379c-2.65,1.882-5.301,3.763-7.952,5.645  c-1.499,1.063-2.998,2.128-4.497,3.192c-0.049,0.035-0.099,0.07-0.147,0.105c0.8-1.128,1.601-2.256,2.401-3.383  c1.796-2.529,3.591-5.059,5.387-7.588c1.882-2.651,3.764-5.302,5.646-7.954c0.997-1.403,1.993-2.808,2.989-4.211  C77.814,20.134,80.067,22.388,82.04,24.875z M74.892,17.818c-0.003,0.003-0.005,0.006-0.007,0.009  c-0.457,0.643-0.913,1.286-1.37,1.93c-1.649,2.324-3.3,4.649-4.949,6.973c-1.954,2.752-3.907,5.504-5.861,8.256  c-1.441,2.032-2.884,4.063-4.326,6.096c-0.274,0.387-0.55,0.774-0.824,1.161c-0.101,0.141-0.319,0.24-0.457,0.338  c-0.587,0.417-1.175,0.833-1.762,1.25c-0.928,0.659-1.855,1.316-2.783,1.976c-0.027,0.02-0.133,0.123-0.169,0.12  c-0.186-0.109-0.202-0.572-0.249-0.771c-0.016-0.063-0.021-0.202-0.062-0.254c-0.168-0.071-0.279-0.168-0.432-0.065  c-0.223,0.151-0.445,0.302-0.668,0.453c-0.202-1.188-0.403-2.376-0.604-3.564c-0.118-0.692-0.235-1.384-0.353-2.075  c-0.025-0.149-0.089-0.324-0.063-0.476c0.262-1.542,0.523-3.085,0.785-4.629c0.522-3.079,1.045-6.159,1.567-9.239  c0.549-3.235,1.099-6.47,1.647-9.706c0.341-2.009,0.682-4.018,1.022-6.027c0.001-0.006,0.002-0.013,0.003-0.02  C62.417,10.512,69.235,13.449,74.892,17.818z M49.892,44.428c-0.105-0.003-0.322-0.055-0.389,0.041  c-0.067,0.097-0.134,0.194-0.202,0.291c-0.074,0.107-0.247,0.481-0.382,0.502c0.254-1.497,0.508-2.994,0.762-4.492  c0.251,1.48,0.502,2.961,0.753,4.442C50.254,44.951,50.073,44.689,49.892,44.428z M50.417,56.362  c-0.073,0.432-0.147,0.863-0.22,1.295c-0.154,0.908-0.309,1.815-0.463,2.724c-0.143-0.841-0.285-1.682-0.428-2.523  c-0.079-0.465-0.158-0.93-0.236-1.396c-0.005-0.028-0.056-0.199-0.034-0.222c0.151-0.149,0.302-0.299,0.453-0.448  c0.112,0.005,0.396-0.05,0.474,0.027c0.091,0.09,0.182,0.18,0.273,0.27C50.331,56.185,50.439,56.229,50.417,56.362z M45.555,46.633  c0.018,0.131,0.035,0.263,0.053,0.395c0.022,0.165-0.098,0.245-0.194,0.379c-0.886-1.249-1.772-2.497-2.659-3.745  c1.069,0.759,2.138,1.518,3.207,2.276c-0.069-0.016-0.138-0.032-0.207-0.048c-0.102,0.089-0.276,0.172-0.257,0.318  C45.517,46.35,45.536,46.491,45.555,46.633z M45.895,54.264c0.021-0.001,0.065-0.011,0.085-0.003  c0.053,0.052,0.327,0.243,0.33,0.307c0.007,0.144,0.015,0.287,0.022,0.431c0.003,0.065-0.166,0.144-0.213,0.178  c-0.219,0.155-0.437,0.31-0.656,0.465c-0.891,0.633-1.782,1.266-2.673,1.897c0.767-1.08,1.534-2.161,2.301-3.241  C45.36,54.286,45.627,54.274,45.895,54.264z M26.152,21.165c1.79,2.522,3.581,5.045,5.372,7.568  c1.887,2.659,3.774,5.318,5.662,7.977c1.086,1.53,2.172,3.06,3.258,4.589c0.042,0.06,0.085,0.119,0.126,0.179  c-1.121-0.796-2.243-1.593-3.365-2.389c-2.523-1.791-5.045-3.582-7.568-5.372c-2.659-1.887-5.317-3.774-7.976-5.662  c-1.474-1.046-2.948-2.093-4.422-3.139c1.986-2.511,4.258-4.785,6.767-6.774C24.721,19.149,25.437,20.157,26.152,21.165z   M16.922,25.324c0.229,0.163,0.458,0.325,0.688,0.488c1.975,1.402,3.95,2.804,5.925,4.207c2.743,1.947,5.486,3.894,8.229,5.841  c2.369,1.682,4.738,3.363,7.108,5.045c0.687,0.488,1.375,0.976,2.062,1.464c0.273,0.194,0.506,0.333,0.698,0.604  c1.084,1.527,2.168,3.055,3.252,4.582c-0.149,0.021-0.297,0.043-0.445,0.064c-0.144,0.021-0.279,0.269-0.208,0.399  c0.085,0.155,0.17,0.309,0.255,0.463c0.052,0.095,0.179,0.245,0.194,0.353c-0.038,0.116-0.058,0.448-0.199,0.472  c-0.048,0.008-0.096,0.016-0.144,0.024c-0.229,0.039-0.457,0.078-0.686,0.116c-1.522,0.258-3.044,0.517-4.566,0.774  c-0.209,0.036-0.532,0.158-0.746,0.122c-0.131-0.022-0.262-0.044-0.394-0.067c-0.736-0.125-1.473-0.25-2.209-0.375  c-2.762-0.469-5.525-0.938-8.288-1.406c-3.333-0.565-6.664-1.131-9.997-1.696c-2.521-0.428-5.042-0.855-7.563-1.283  c-0.407-0.069-0.815-0.138-1.223-0.208C9.609,37.843,12.545,30.999,16.922,25.324z M43.73,50.186  c0.089,0.075,0.178,0.149,0.267,0.224c0.141,0.119,0.283,0.237,0.423,0.355c0.005,0.085,0.116,0.628-0.11,0.591  c-0.122-0.021-0.243-0.042-0.365-0.062c-0.516-0.087-1.032-0.175-1.548-0.263c-0.833-0.141-1.665-0.282-2.498-0.424  c1.254-0.212,2.509-0.426,3.764-0.639C43.652,50.106,43.636,50.107,43.73,50.186z M12.25,46.44c3.05,0.517,6.1,1.035,9.15,1.553  c3.215,0.545,6.429,1.091,9.644,1.637c1.85,0.314,3.699,0.628,5.549,0.942c0.072,0.012,0.144,0.024,0.216,0.036  c-1.356,0.23-2.713,0.46-4.069,0.69c-3.049,0.518-6.099,1.035-9.148,1.553c-3.214,0.546-6.428,1.091-9.642,1.636  c-1.775,0.302-3.549,0.603-5.325,0.903c-0.187-1.594-0.286-3.214-0.286-4.858c0-1.593,0.093-3.164,0.269-4.709  C9.823,46.028,11.037,46.234,12.25,46.44z M17.322,76.251c0.991-0.703,1.98-1.406,2.971-2.109c2.523-1.791,5.046-3.581,7.569-5.372  c2.659-1.888,5.317-3.774,7.976-5.662c1.53-1.085,3.06-2.172,4.59-3.258c0.06-0.042,0.119-0.084,0.179-0.127  c-0.796,1.122-1.593,2.244-2.389,3.366c-1.79,2.521-3.581,5.044-5.371,7.566c-1.887,2.658-3.774,5.316-5.661,7.974  c-1.032,1.454-2.063,2.907-3.095,4.36C21.583,81.012,19.312,78.748,17.322,76.251z M24.5,83.305  c0.444-0.625,0.889-1.252,1.333-1.877c1.64-2.311,3.28-4.62,4.919-6.931c1.954-2.753,3.908-5.505,5.862-8.258  c1.458-2.054,2.915-4.106,4.373-6.159c0.289-0.408,0.579-0.815,0.868-1.223c0.096-0.135,0.281-0.221,0.413-0.313  c0.6-0.426,1.199-0.852,1.798-1.277c0.621-0.44,1.241-0.881,1.862-1.321c0.152-0.108,0.304-0.216,0.456-0.323  c0.105-0.075,0.195,0.173,0.288,0.133c0.137-0.061,0.274-0.12,0.412-0.18c0.154-0.066,0.308-0.134,0.462-0.201  c0.094-0.041,0.44,0.094,0.483,0.188c0.129,0.29,0.259,0.58,0.389,0.87c0.03,0.067,0.119-0.018,0.135,0.075  c0.013,0.076,0.026,0.152,0.039,0.229c0.048,0.283,0.096,0.565,0.144,0.848c0.24,1.409,0.478,2.816,0.717,4.226  c0.049,0.291-0.066,0.624-0.115,0.911c-0.373,2.194-0.745,4.389-1.117,6.582c-0.557,3.282-1.114,6.563-1.67,9.846  c-0.507,2.988-1.014,5.977-1.521,8.965c-0.193,1.137-0.386,2.272-0.579,3.409C37,90.585,30.169,87.663,24.5,83.305z M44.964,91.581  c0.2-1.178,0.399-2.354,0.599-3.531c0.517-3.047,1.034-6.093,1.551-9.14c0.546-3.214,1.091-6.429,1.637-9.643  c0.315-1.857,0.63-3.715,0.945-5.572c0.013-0.075,0.025-0.15,0.038-0.225c0.23,1.356,0.461,2.713,0.691,4.07  c0.518,3.051,1.035,6.102,1.554,9.152c0.546,3.216,1.091,6.432,1.637,9.646c0.295,1.741,0.591,3.482,0.887,5.223  c-1.59,0.187-3.206,0.284-4.846,0.284C48.069,91.847,46.504,91.755,44.964,91.581z M73.269,79.986  c-1.79-2.522-3.581-5.045-5.372-7.568c-1.888-2.658-3.774-5.317-5.662-7.977c-1.086-1.529-2.172-3.06-3.258-4.59  c-0.042-0.06-0.085-0.118-0.127-0.178c1.122,0.796,2.244,1.592,3.365,2.388c2.522,1.791,5.045,3.581,7.567,5.372  c2.657,1.887,5.316,3.773,7.975,5.66c1.437,1.021,2.874,2.04,4.311,3.061c-1.978,2.498-4.237,4.762-6.732,6.743  C74.646,81.928,73.957,80.957,73.269,79.986z M82.385,75.746c-0.046-0.033-0.093-0.066-0.14-0.1  c-1.783-1.266-3.567-2.532-5.351-3.798c-2.706-1.921-5.412-3.842-8.118-5.763c-2.486-1.765-4.973-3.529-7.458-5.294  c-1.125-0.798-2.249-1.597-3.373-2.395c-0.052-0.036-0.095-0.131-0.131-0.182c-0.15-0.213-0.302-0.425-0.452-0.638  c-0.467-0.656-0.933-1.313-1.398-1.971c-0.406-0.571-0.812-1.143-1.217-1.714c-0.076-0.106-0.15-0.212-0.226-0.317  c-0.063-0.089-0.084-0.252-0.117-0.354c-0.015-0.044-0.056-0.115-0.054-0.162c0.04-0.072,0.144-0.382,0.212-0.405  c0.258-0.088,0.515-0.176,0.772-0.264c0.164-0.057,0.166-0.045,0.22-0.229c0.06-0.212-0.006-0.236-0.139-0.398  c1.218-0.206,2.435-0.413,3.651-0.619c0.611-0.104,1.223-0.208,1.835-0.312c0.115-0.02,0.175-0.026,0.285-0.007  c1.674,0.284,3.347,0.567,5.021,0.852c3.126,0.53,6.253,1.061,9.38,1.592c3.198,0.543,6.397,1.085,9.597,1.628  c1.817,0.309,3.635,0.617,5.451,0.926C89.685,63.265,86.752,70.087,82.385,75.746z M87.17,54.711  c-3.051-0.518-6.101-1.036-9.15-1.554c-3.215-0.545-6.429-1.091-9.644-1.636c-1.85-0.314-3.699-0.628-5.55-0.942  c-0.071-0.012-0.144-0.024-0.215-0.037c1.355-0.23,2.712-0.46,4.068-0.69c3.05-0.518,6.099-1.035,9.148-1.553  c3.214-0.545,6.427-1.091,9.641-1.636c1.743-0.295,3.486-0.592,5.229-0.888c0.179,1.561,0.273,3.146,0.273,4.755  c0,1.616-0.096,3.21-0.276,4.778C89.521,55.109,88.345,54.91,87.17,54.711z"></path></svg>