<svg xmlns="http://www.w3.org/2000/svg" xmlns:xlink="http://www.w3.org/1999/xlink" version="1.1" x="0px" y="0px" viewBox="0 0 100 100" enable-background="new 0 0 100 100" xml:space="preserve"><path fill="#000000" stroke="#FFFFFF" stroke-width="0.2924" stroke-miterlimit="10" d="M60.938,38.969  c0.026-0.456,0.071-0.912,0.071-1.374c0-0.832-0.044-1.65-0.125-2.458l5.413-0.469c-0.133-1.48-0.355-2.958-0.715-4.41l-5.352,1.284  c-0.303-1.188-0.664-2.353-1.131-3.465l5.114-2.076c-0.562-1.38-1.213-2.73-1.979-4.004l-4.812,2.849  c-0.627-1.039-1.31-2.042-2.079-2.972l4.34-3.538c-0.941-1.147-1.966-2.234-3.062-3.239l-3.809,4.18  c-0.898-0.809-1.842-1.566-2.851-2.234l3.149-4.695c-1.235-0.83-2.539-1.559-3.883-2.204l-2.432,5.143  c-1.089-0.511-2.211-0.957-3.375-1.307l1.633-5.439C43.627,8.104,42.16,7.8,40.687,7.578l-0.809,5.644  c-1.154-0.167-2.325-0.281-3.526-0.281c-0.021,0-0.049,0.005-0.07,0.005l-0.029-5.671c-1.48,0.007-2.965,0.13-4.439,0.347  l0.867,5.622c-1.208,0.181-2.395,0.427-3.541,0.774L27.455,8.63c-1.422,0.451-2.812,1.006-4.156,1.648l2.469,5.077  c-1.174,0.559-2.306,1.191-3.367,1.92l-3.207-4.573c-1.224,0.85-2.373,1.799-3.451,2.824l3.834,4.035  c-0.885,0.827-1.719,1.708-2.479,2.655l-4.348-3.393c-0.913,1.172-1.749,2.408-2.477,3.711l4.771,2.693  c-0.606,1.051-1.146,2.144-1.599,3.285l-5.074-1.934c-0.523,1.393-0.973,2.827-1.276,4.286l5.258,1.146  c-0.274,1.203-0.465,2.438-0.561,3.7l-5.331-0.253c-0.072,1.216-0.092,2.821,0.046,4.27l5.272-0.429  c0.086,1.24,0.252,2.46,0.517,3.645l-5.101,1.194c0.34,1.454,0.785,2.886,1.348,4.271l4.826-1.931  c0.449,1.156,0.978,2.273,1.584,3.337l-4.447,2.604c0.756,1.281,1.589,2.521,2.527,3.672l3.99-3.215  c0.769,0.969,1.609,1.873,2.516,2.717l-3.459,3.75c1.096,1.002,2.262,1.934,3.49,2.771l2.844-4.189  c1.087,0.748,2.244,1.393,3.445,1.959l-2.142,4.584c1.349,0.643,2.759,1.154,4.185,1.584l1.426-4.828  c1.178,0.348,2.394,0.594,3.635,0.771l-0.688,5l1.112,0.137l1.288,0.099c0.507,0.03,0.67,0.028,0.938,0.037l0.381,0.012l0.443,0.008  l0.277-0.008l-0.055-5.041c1.26-0.014,2.488-0.143,3.693-0.338l0.795,5.009c1.473-0.231,2.93-0.589,4.354-1.032l-1.538-4.834  c1.188-0.385,2.328-0.869,3.429-1.42l2.26,4.582c1.34-0.652,2.62-1.426,3.847-2.268l-2.931-4.222  c1.008-0.711,1.959-1.498,2.848-2.351l3.542,3.767c1.09-1.017,2.093-2.116,3.011-3.284l-4.095-3.232  c0.747-0.975,1.437-1.988,2.036-3.068l4.555,2.604c0.736-1.291,1.389-2.641,1.922-4.031l-4.955-1.919  c0.426-1.143,0.791-2.312,1.043-3.526l5.209,1.162c0.174-0.724,0.291-1.461,0.408-2.196l0.143-1.108  c0.045-0.365,0.072-0.84,0.104-1.256L60.938,38.969z M36.342,59.71c-12.405,0-22.461-10.056-22.461-22.461  s10.056-22.461,22.461-22.461c12.405,0,22.461,10.056,22.461,22.461S48.747,59.71,36.342,59.71z"></path><path fill="#000000" stroke="#FFFFFF" stroke-width="0.2924" stroke-miterlimit="10" d="M36.342,15.304  c-12.145,0-21.99,9.845-21.99,21.99c0,12.145,9.845,21.99,21.99,21.99c12.145,0,21.99-9.845,21.99-21.99  C58.332,25.149,48.487,15.304,36.342,15.304z M36.342,58.859c-11.885,0-21.52-9.634-21.52-21.52s9.635-21.52,21.52-21.52  c11.885,0,21.52,9.635,21.52,21.52S48.227,58.859,36.342,58.859z"></path><path fill="#000000" stroke="#FFFFFF" stroke-width="0.2924" stroke-miterlimit="10" d="M36.342,16.338  c-11.625,0-21.049,9.424-21.049,21.049s9.424,21.048,21.049,21.048c11.625,0,21.049-9.423,21.049-21.048  S47.967,16.338,36.342,16.338z M36.341,58.012c-11.364,0-20.577-9.213-20.577-20.578s9.212-20.577,20.577-20.577  c11.365,0,20.577,9.213,20.577,20.577S47.706,58.012,36.341,58.012z"></path><path fill="#000000" stroke="#FFFFFF" stroke-width="0.2924" stroke-miterlimit="10" d="M36.341,17.373  c-11.104,0-20.107,9.002-20.107,20.107s9.002,20.107,20.107,20.107c11.105,0,20.106-9.002,20.106-20.107  S47.446,17.373,36.341,17.373z M36.341,57.159c-10.844,0-19.635-8.791-19.635-19.635s8.791-19.635,19.635-19.635  c10.844,0,19.636,8.791,19.636,19.635S47.185,57.159,36.341,57.159z"></path><path fill="#000000" stroke="#FFFFFF" stroke-width="0.2924" stroke-miterlimit="10" d="M36.341,18.406  c-10.584,0-19.165,8.581-19.165,19.165c0,10.585,8.581,19.166,19.165,19.166s19.165-8.581,19.165-19.166  C55.506,26.986,46.925,18.406,36.341,18.406z M51.652,30.868l-2.811,1.14c0.255,0.613,0.451,1.25,0.617,1.905l2.945-0.708  c0.193,0.796,0.316,1.61,0.391,2.426l-2.975,0.255c0.047,0.444,0.067,0.894,0.067,1.351c0,0.255-0.021,0.503-0.034,0.752  l2.967,0.167c-0.02,0.24-0.035,0.502-0.059,0.702l-0.078,0.609c-0.065,0.404-0.129,0.808-0.227,1.207l-2.86-0.636  c-0.14,0.664-0.338,1.308-0.573,1.933l2.721,1.056c-0.293,0.767-0.647,1.505-1.056,2.215l-2.501-1.429  c-0.328,0.592-0.708,1.153-1.121,1.686l2.254,1.773c-0.504,0.644-1.058,1.251-1.658,1.807l-1.943-2.068  c-0.491,0.469-1.012,0.899-1.566,1.292l1.61,2.317c-0.674,0.463-1.376,0.887-2.11,1.245l-1.24-2.519  c-0.607,0.304-1.231,0.57-1.885,0.781l0.846,2.656c-0.783,0.244-1.584,0.438-2.393,0.564L38.543,50.6  c-0.662,0.104-1.338,0.176-2.025,0.184l0.025,2.77l-0.152,0.006l-0.244-0.006l-0.208-0.008c-0.147-0.004-0.235,0-0.516-0.02  l-0.708-0.051l-0.61-0.078l0.38-2.748c-0.685-0.096-1.352-0.229-1.998-0.422l-0.781,2.654c-0.787-0.235-1.56-0.521-2.299-0.873  l1.174-2.519c-0.66-0.312-1.297-0.665-1.896-1.073l-1.56,2.296c-0.676-0.461-1.316-0.971-1.918-1.521l1.896-2.062  c-0.496-0.461-0.958-0.957-1.379-1.494l-2.191,1.769c-0.516-0.633-0.978-1.312-1.391-2.017l2.445-1.433  c-0.336-0.584-0.625-1.197-0.871-1.835l-2.652,1.063c-0.311-0.762-0.553-1.547-0.738-2.348l2.797-0.656  c-0.141-0.649-0.233-1.32-0.278-2.003l-2.897,0.238c-0.072-0.796-0.066-1.68-0.027-2.346l2.933,0.138  c0.052-0.692,0.153-1.372,0.31-2.032l-2.894-0.63c0.169-0.802,0.417-1.589,0.704-2.357l2.788,1.066  c0.249-0.63,0.543-1.228,0.88-1.805l-2.623-1.483c0.398-0.716,0.857-1.396,1.361-2.039l2.388,1.865  c0.418-0.521,0.875-1.005,1.365-1.457l-2.11-2.219c0.594-0.563,1.223-1.084,1.896-1.552l1.762,2.51  c0.583-0.4,1.205-0.746,1.85-1.054l-1.354-2.789c0.736-0.355,1.499-0.658,2.281-0.907l0.927,2.962  c0.628-0.193,1.28-0.329,1.944-0.427l-0.477-3.09c0.809-0.118,1.625-0.186,2.438-0.19l0.015,3.116c0.015,0,0.026-0.003,0.042-0.003  c0.661,0,1.305,0.063,1.938,0.153l0.445-3.099c0.811,0.123,1.613,0.289,2.397,0.53l-0.896,2.988  c0.643,0.192,1.258,0.436,1.854,0.717l1.336-2.826c0.737,0.354,1.45,0.756,2.133,1.209l-1.729,2.58  c0.551,0.369,1.07,0.785,1.563,1.228l2.093-2.294c0.604,0.553,1.164,1.147,1.686,1.78L46.779,28.6  c0.424,0.512,0.795,1.063,1.143,1.633l2.643-1.564C50.986,29.37,51.341,30.109,51.652,30.868z"></path><path fill="#000000" d="M83.738,75.585c0.018-0.299,0.047-0.599,0.047-0.903c0-0.545-0.031-1.082-0.084-1.617l3.566-0.308  c-0.091-0.978-0.236-1.946-0.474-2.901L83.271,70.7c-0.196-0.781-0.436-1.548-0.742-2.279l3.367-1.364  c-0.373-0.908-0.799-1.798-1.305-2.638l-3.164,1.875c-0.418-0.683-0.861-1.344-1.369-1.955l2.855-2.325  c-0.619-0.757-1.295-1.472-2.016-2.132l-2.504,2.748c-0.597-0.528-1.213-1.026-1.877-1.469l2.067-3.091  c-0.812-0.543-1.668-1.024-2.553-1.45l-1.601,3.383c-0.719-0.332-1.455-0.627-2.223-0.856l1.076-3.58  c-0.941-0.285-1.906-0.484-2.877-0.635l-0.531,3.717c-0.758-0.109-1.529-0.187-2.32-0.187c-0.018,0-0.031,0-0.047,0l-0.021-3.729  c-0.971,0.004-1.948,0.086-2.916,0.228l0.566,3.703c-0.791,0.118-1.574,0.278-2.33,0.51l-1.104-3.543  c-0.938,0.293-1.853,0.658-2.733,1.082l1.622,3.341c-0.771,0.368-1.518,0.784-2.214,1.266l-2.111-3.01  c-0.805,0.559-1.562,1.186-2.271,1.856l2.524,2.653c-0.586,0.543-1.133,1.125-1.635,1.748l-2.857-2.231  c-0.604,0.772-1.15,1.584-1.631,2.44l3.142,1.773c-0.401,0.689-0.756,1.41-1.052,2.158l-3.34-1.271  c-0.344,0.92-0.642,1.858-0.844,2.821l3.463,0.755c-0.184,0.793-0.309,1.604-0.369,2.434l-3.51-0.166  c-0.048,0.801-0.059,1.854,0.032,2.812l3.47-0.284c0.057,0.817,0.166,1.623,0.34,2.399l-3.354,0.787  c0.224,0.954,0.517,1.897,0.886,2.809l3.178-1.271c0.295,0.764,0.643,1.494,1.043,2.197l-2.928,1.715  c0.497,0.842,1.045,1.656,1.666,2.416l2.623-2.115c0.506,0.639,1.062,1.232,1.655,1.789L54.225,89  c0.721,0.66,1.485,1.271,2.299,1.826l1.867-2.76c0.715,0.492,1.479,0.916,2.27,1.289l-1.407,3.018  c0.888,0.422,1.812,0.76,2.751,1.041l0.939-3.176c0.772,0.229,1.572,0.393,2.391,0.504l-0.455,3.293l0.732,0.088l0.85,0.064  c0.332,0.022,0.439,0.021,0.615,0.022l0.252,0.008l0.291,0.007l0.182-0.007l-0.033-3.315c0.83-0.008,1.64-0.094,2.43-0.223  l0.525,3.293c0.969-0.15,1.928-0.386,2.863-0.677l-1.012-3.183c0.783-0.254,1.531-0.571,2.256-0.938l1.486,3.019  c0.881-0.43,1.723-0.937,2.529-1.49l-1.929-2.777c0.666-0.469,1.291-0.984,1.875-1.545l2.332,2.477  c0.715-0.666,1.377-1.393,1.981-2.158l-2.696-2.129c0.493-0.641,0.944-1.312,1.34-2.02l2.996,1.713  c0.485-0.852,0.916-1.736,1.267-2.652l-3.263-1.264c0.28-0.754,0.521-1.521,0.688-2.32l3.426,0.765  c0.113-0.476,0.191-0.963,0.269-1.444l0.097-0.729c0.026-0.24,0.047-0.551,0.065-0.824L83.738,75.585z M68.283,86.466  c-2.271,0-4.113-1.841-4.113-4.112s1.842-4.113,4.113-4.113s4.113,1.842,4.113,4.113S70.555,86.466,68.283,86.466z"></path></svg>