<svg xmlns="http://www.w3.org/2000/svg" xmlns:xlink="http://www.w3.org/1999/xlink" version="1.1" baseProfile="basic" x="0px" y="0px" viewBox="0 0 100 100" xml:space="preserve"><symbol id="a" viewBox="0 0 100 100"><path fill="#000000" d="M7,8H-8V4V-8H8V8H7z M-2,6h1V5h-1V6z M-4,6h1V5h-1V6z M-6,6h1V5h-1V6z M6-6H-6V4H6V-6z"></path><polygon fill="#000000" points="5,1 -2,1 -2,3 5,3  "></polygon><polygon fill="#000000" points="5,-5 -2,-5 -2,0 5,0  "></polygon><polygon fill="#000000" points="-3,-5 -5,-5 -5,3 -3,3  "></polygon></symbol><use xlink:href="#a" width="16" height="16" x="-8" y="-8" transform="matrix(6.2028 0 0 -6.2028 49.6665 50.334)" overflow="visible"></use></svg>