<svg xmlns="http://www.w3.org/2000/svg" xmlns:xlink="http://www.w3.org/1999/xlink" version="1.1" x="0px" y="0px" viewBox="0 0 100 100" enable-background="new 0 0 100 100" xml:space="preserve"><path fill-rule="evenodd" clip-rule="evenodd" d="M18.438,74.467c-1.222,2.158-0.646,3.955-0.431,4.82L5.917,58.488  c-1.366-2.012-1.006-3.311-0.215-4.533l6.188-10.651L5.416,39.49h20.797L36.79,57.625l-6.477-3.74L18.438,74.467L18.438,74.467z   M29.667,88.641l0.432,0.074h17.558V67.557H24.629l-4.464,7.701C18.584,78.207,20.383,87.707,29.667,88.641L29.667,88.641z   M87.236,67.629H63.561v-7.486L53.126,78.352l10.363,17.99l0.071-7.484h12.307c1.438,0.145,2.806-0.217,3.814-2.447l11.946-20.795  C91.05,66.189,89.755,67.557,87.236,67.629L87.236,67.629z M93.929,50.789l-0.142-0.434l-8.781-15.183L66.727,45.75L78.17,65.686  h8.923C90.401,65.615,97.741,59.279,93.929,50.789L93.929,50.789z M46.866,11.498l11.801,20.581l-6.404,3.741l20.94-0.072  l10.363-18.062l-6.477,3.741l-6.117-10.65c-0.648-1.368-1.655-2.303-4.102-2.088L42.98,8.762C43.77,8.979,45.57,9.338,46.866,11.498  L46.866,11.498z M28.947,14.158l-0.216,0.361l-8.779,15.184L38.23,40.282l11.514-19.935l-4.462-7.699  C43.555,9.769,34.417,6.604,28.947,14.158L28.947,14.158z"></path></svg>