<?xml version="1.0" encoding="utf-8"?><!DOCTYPE svg PUBLIC "-//W3C//DTD SVG 1.1//EN" "http://www.w3.org/Graphics/SVG/1.1/DTD/svg11.dtd"><svg version="1.1" xmlns="http://www.w3.org/2000/svg" xmlns:xlink="http://www.w3.org/1999/xlink" x="0px" y="0px" viewBox="0 0 91.668 100" enable-background="new 0 0 91.668 100" xml:space="preserve"><polygon fill="#010101" points="0,33.334 45.834,16.667 91.668,33.334 91.668,41.667 45.834,25.001 0,41.667 "></polygon><polygon fill="#010101" points="0,16.667 45.834,0 91.668,16.667 91.668,25.001 45.834,8.333 0,25.001 "></polygon><path fill="#010101" d="M16.667,66.667C7.462,66.667,0,74.129,0,83.335C0,92.539,7.462,100,16.667,100
	c9.204,0,16.667-7.461,16.667-16.665C33.333,74.129,25.871,66.667,16.667,66.667z M16.667,95.836c-6.904,0-12.5-5.597-12.5-12.501
	c0-6.903,5.597-12.5,12.5-12.5s12.5,5.597,12.5,12.5C29.167,90.239,23.571,95.836,16.667,95.836z"></path><path fill="#010101" d="M75.001,66.667c-9.206,0-16.667,7.462-16.667,16.668c0,9.204,7.461,16.665,16.667,16.665
	c9.204,0,16.667-7.461,16.667-16.665C91.668,74.129,84.205,66.667,75.001,66.667z M75.001,95.836c-6.903,0-12.5-5.597-12.5-12.501
	c0-6.903,5.597-12.5,12.5-12.5c6.904,0,12.501,5.597,12.501,12.5C87.502,90.239,81.905,95.836,75.001,95.836z"></path><path fill="#010101" d="M76.801,84.366c0.032-0.057,0.065-0.112,0.095-0.174c0.026-0.061,0.046-0.127,0.069-0.189
	c0.021-0.062,0.043-0.127,0.06-0.191c0.014-0.062,0.021-0.125,0.03-0.189c0.011-0.075,0.02-0.147,0.023-0.225
	c0-0.021,0.005-0.041,0.005-0.062c0-0.041-0.009-0.078-0.011-0.12c-0.005-0.077-0.011-0.15-0.023-0.228
	c-0.011-0.065-0.028-0.129-0.044-0.194c-0.019-0.064-0.036-0.128-0.062-0.192c-0.026-0.071-0.059-0.14-0.093-0.207
	c-0.02-0.036-0.03-0.073-0.05-0.107L62.83,58.334l4.249-7.283c0.58-0.994,0.243-2.27-0.751-2.85
	c-0.435-0.253-0.922-0.322-1.382-0.247c-0.118-0.021-0.238-0.036-0.361-0.036H56.25c-1.15,0-2.082,0.933-2.082,2.083
	s0.932,2.083,2.082,2.083h5.402l-2.432,4.166H34.877l4.863-8.332h1.928c1.149,0,2.082-0.933,2.082-2.084
	c0-1.15-0.933-2.083-2.082-2.083H31.25c-1.149,0-2.082,0.933-2.082,2.083c0,1.151,0.933,2.084,2.082,2.084h3.665L14.868,82.286
	c-0.58,0.992-0.244,2.269,0.75,2.849c0.33,0.191,0.691,0.284,1.047,0.284c0.716,0,1.415-0.37,1.801-1.034L31.25,62.47l12.785,21.915
	c0.014,0.024,0.032,0.046,0.048,0.071c0.018,0.028,0.036,0.056,0.056,0.082c0.014,0.02,0.025,0.04,0.041,0.06
	c0.052,0.069,0.107,0.131,0.167,0.191c0.005,0.007,0.013,0.016,0.02,0.023c0.018,0.018,0.038,0.034,0.058,0.052
	c0.018,0.018,0.038,0.032,0.057,0.05c0.052,0.043,0.105,0.088,0.163,0.127c0.021,0.017,0.044,0.029,0.068,0.045
	c0.018,0.011,0.034,0.021,0.052,0.032c0.007,0.006,0.015,0.011,0.021,0.015c0.004,0.004,0.005,0.004,0.009,0.007
	c0.057,0.032,0.116,0.06,0.175,0.086c0.007,0.004,0.014,0.008,0.021,0.011c0.013,0.006,0.027,0.015,0.041,0.02
	c0.004,0.002,0.009,0.006,0.015,0.006c0.043,0.018,0.089,0.032,0.134,0.047c0.041,0.014,0.082,0.03,0.125,0.041
	c0.009,0.002,0.018,0.003,0.025,0.005c0.016,0.004,0.03,0.006,0.046,0.009c0.027,0.006,0.054,0.011,0.081,0.017
	c0.125,0.023,0.249,0.039,0.374,0.039h0.002c0.002,0,0.002,0,0.002,0c0.003,0,0.005-0.002,0.007-0.002h29.153
	c0.003,0,0.005,0.002,0.007,0.002c0.125,0,0.249-0.016,0.374-0.039c0.027-0.006,0.054-0.011,0.082-0.017
	c0.117-0.026,0.231-0.059,0.346-0.107c0.013-0.005,0.025-0.014,0.04-0.02c0.069-0.032,0.14-0.064,0.207-0.104
	c0.019-0.011,0.032-0.025,0.051-0.036c0.064-0.041,0.123-0.086,0.184-0.132c0.049-0.04,0.101-0.079,0.146-0.122
	c0.05-0.047,0.093-0.099,0.138-0.15c0.043-0.05,0.09-0.101,0.127-0.154C76.734,84.484,76.767,84.426,76.801,84.366z M71.374,81.251
	H49.461L60.417,62.47L71.374,81.251z M45.834,79.199L34.877,60.418h21.912L45.834,79.199z"></path></svg>