<svg xmlns="http://www.w3.org/2000/svg" xmlns:xlink="http://www.w3.org/1999/xlink" version="1.1" x="0px" y="0px" viewBox="0 0 90 90" enable-background="new 0 0 90 90" xml:space="preserve"><path fill="#000000" d="M29.3,65L29.3,65l-0.1-0.2c0,0,0-0.1,0-0.1c0,0,0-0.1,0-0.1l-0.1-0.2c-3.2,1-5.8,1.8-7.3,2.3  c-0.6,0.2-1.3,0.3-2,0.4l0.6,1.6l0,0c0.1,0.2,0.2,0.5,0.3,0.7c1.1,2,3.9,2.6,6.3,1.4C29.2,69.6,30.2,67,29.3,65z M28.4,68  c-0.1,0.1-0.4,0.1-0.5,0c-0.7-0.8-2.4-0.4-3.1-0.2c-1,0.3-1.6,1.2-1.7,1.9c0,0.2-0.2,0.3-0.3,0.3c0,0,0,0-0.1,0  c-0.2,0-0.3-0.2-0.3-0.4c0.2-1,0.9-2.1,2.2-2.5c1-0.3,2.9-0.7,3.9,0.4C28.5,67.6,28.5,67.9,28.4,68z"></path><path fill="#000000" d="M78.5,48.5L78.5,48.5l-0.1-0.2c0,0,0-0.1,0-0.1c0,0,0-0.1,0-0.1l-0.5-1c-0.5,0.2-1.1,0.5-1.7,0.7  c-0.9,0.3-3.5,1.3-7.2,2.7l0.6,1.7l0,0c0.1,0.2,0.2,0.5,0.3,0.7c1.1,2,3.9,2.6,6.3,1.4C78.4,53.1,79.4,50.5,78.5,48.5z M77.6,51.5  c-0.1,0.1-0.4,0.1-0.5,0c-0.7-0.8-2.4-0.4-3.1-0.2c-1,0.3-1.6,1.2-1.7,1.9c0,0.2-0.2,0.3-0.3,0.3c0,0,0,0-0.1,0  c-0.2,0-0.3-0.2-0.3-0.4c0.2-1,0.9-2.1,2.2-2.5c1-0.3,2.9-0.7,3.9,0.4C77.8,51.1,77.7,51.4,77.6,51.5z"></path><path d="M83.9,24c-0.5-0.9-1.2-2-2-3.2c-0.4-0.6-0.8-1.1-1.2-1.6c-0.3-0.3-0.6-0.6-1-0.9c-0.4-0.3-0.9-0.5-1.5-0.5  c-2.6,0-6.4,2.6-9.2,4.4c-1,0.7-1.9,1.3-2.6,1.7c-0.6,0.4-1.1,0.8-1.7,1l-0.1,0.1c-1.2,0.6-2.3,0.9-3.3,1.2  c-0.6,0.2-1.2,0.4-1.8,0.6c-2.2,0.9-4.3,1.6-6.6,2.4c-6,1.9-29.1,10.4-33,12.4c-1,0.5-2.1,1-3,1.4c-2.6,1.2-5,2.3-7.6,4.5l-1,0.8  C4.4,51.5,1,54.3,1.9,58.6c0.8,3.9,8.1,7.7,15.1,7.7c0,0,0,0,0,0c1.6,0,3.1-0.2,4.5-0.6c8.8-2.3,50.4-17.3,54.3-18.8  c4-1.6,6.2-3,8.5-5.3c2.4-2.4,3.5-4.4,3.9-6.8C88.7,32,85.2,26.2,83.9,24z M15.1,54c-0.2-0.2-0.3-0.5-0.2-0.8c0-0.3,0.2-0.5,0.4-0.7  c0.4-0.4,1.1-0.3,1.5,0.1c0.4,0.4,0.3,1.1-0.1,1.5c-0.2,0.2-0.4,0.2-0.7,0.2C15.6,54.4,15.3,54.2,15.1,54z M18.2,58.2  c-0.2,0.2-0.4,0.2-0.7,0.2c-0.3,0-0.6-0.1-0.8-0.4c-0.4-0.4-0.3-1.1,0.1-1.5c0.4-0.4,1.1-0.3,1.5,0.1C18.7,57.2,18.6,57.8,18.2,58.2  z M21.4,51.6c-0.4-0.4-0.3-1.1,0.1-1.5c0.4-0.4,1.1-0.3,1.5,0.1c0.4,0.4,0.3,1.1-0.1,1.5c-0.2,0.2-0.4,0.2-0.7,0.2  C21.9,52,21.6,51.9,21.4,51.6z M24.4,55.7C24.2,55.9,24,56,23.7,56c-0.3,0-0.6-0.1-0.8-0.4c-0.2-0.2-0.3-0.5-0.2-0.8  c0-0.3,0.2-0.5,0.4-0.7c0.4-0.4,1.1-0.3,1.5,0.1c0.2,0.2,0.3,0.5,0.2,0.8C24.8,55.3,24.6,55.6,24.4,55.7z M64.8,36.2  c-0.2-0.2-0.3-0.5-0.3-0.8c0-0.3,0.2-0.5,0.4-0.7c0.4-0.4,1.1-0.3,1.5,0.1c0.2,0.2,0.3,0.5,0.3,0.8c0,0.3-0.2,0.5-0.4,0.7  c-0.2,0.2-0.4,0.3-0.7,0.3C65.3,36.6,65,36.5,64.8,36.2z M67.9,40.4c-0.2,0.2-0.4,0.3-0.7,0.3c-0.3,0-0.6-0.1-0.8-0.4  c-0.2-0.2-0.3-0.5-0.3-0.8c0-0.3,0.2-0.5,0.4-0.7c0.4-0.4,1.1-0.3,1.5,0.1C68.4,39.4,68.3,40,67.9,40.4z M71.1,33.8  c-0.2-0.2-0.3-0.5-0.3-0.8c0-0.3,0.2-0.5,0.4-0.7c0.4-0.4,1.1-0.3,1.5,0.1c0.2,0.2,0.3,0.5,0.3,0.8c0,0.3-0.2,0.5-0.4,0.7  c-0.2,0.2-0.4,0.3-0.7,0.3C71.6,34.2,71.3,34,71.1,33.8z M74.1,37.9c-0.2,0.2-0.4,0.3-0.7,0.3c-0.3,0-0.6-0.1-0.8-0.4  c-0.2-0.2-0.3-0.5-0.3-0.8c0-0.3,0.2-0.5,0.4-0.7c0.4-0.4,1.1-0.3,1.5,0.1C74.6,36.9,74.5,37.5,74.1,37.9z"></path></svg>