<svg xmlns="http://www.w3.org/2000/svg" xmlns:xlink="http://www.w3.org/1999/xlink" version="1.1" x="0px" y="0px" viewBox="0 0 421 275" enable-background="new 0 0 421 275" xml:space="preserve"><polyline fill="none" stroke="#000000" stroke-miterlimit="10" points="210,274.5 0.5,274.5 0.5,0.5 210,0.5 "></polyline><polyline fill="none" stroke="#000000" stroke-miterlimit="10" points="210,0.5 420.5,0.5 420.5,274.5 210,274.5 "></polyline><g><g><g><g><g><g><rect x="192.501" y="1" fill="none" width="14.998" height="13.7"></rect></g><rect x="199.031" y="11.145" fill-rule="evenodd" clip-rule="evenodd" fill="#000000" width="1.5" height="2.543"></rect><rect x="199.031" y="6.584" fill-rule="evenodd" clip-rule="evenodd" fill="#000000" width="1.5" height="2.543"></rect><rect x="199.031" y="2.038" fill-rule="evenodd" clip-rule="evenodd" fill="#000000" width="1.5" height="2.543"></rect></g></g><g><g><g><rect x="192.501" y="14.7" fill="none" width="14.998" height="13.7"></rect></g><rect x="199.031" y="24.845" fill-rule="evenodd" clip-rule="evenodd" fill="#000000" width="1.5" height="2.543"></rect><rect x="199.031" y="20.284" fill-rule="evenodd" clip-rule="evenodd" fill="#000000" width="1.5" height="2.543"></rect><rect x="199.031" y="15.738" fill-rule="evenodd" clip-rule="evenodd" fill="#000000" width="1.5" height="2.543"></rect></g></g><g><g><g><rect x="192.501" y="28.4" fill="none" width="14.998" height="13.7"></rect></g><rect x="199.031" y="38.545" fill-rule="evenodd" clip-rule="evenodd" fill="#000000" width="1.5" height="2.543"></rect><rect x="199.031" y="33.984" fill-rule="evenodd" clip-rule="evenodd" fill="#000000" width="1.5" height="2.543"></rect><rect x="199.031" y="29.438" fill-rule="evenodd" clip-rule="evenodd" fill="#000000" width="1.5" height="2.543"></rect></g></g><g><g><g><rect x="192.501" y="42.1" fill="none" width="14.998" height="13.7"></rect></g><rect x="199.031" y="52.245" fill-rule="evenodd" clip-rule="evenodd" fill="#000000" width="1.5" height="2.543"></rect><rect x="199.031" y="47.684" fill-rule="evenodd" clip-rule="evenodd" fill="#000000" width="1.5" height="2.543"></rect><rect x="199.031" y="43.138" fill-rule="evenodd" clip-rule="evenodd" fill="#000000" width="1.5" height="2.543"></rect></g></g><g><g><g><rect x="192.501" y="55.8" fill="none" width="14.998" height="13.7"></rect></g><rect x="199.031" y="65.945" fill-rule="evenodd" clip-rule="evenodd" fill="#000000" width="1.5" height="2.543"></rect><rect x="199.031" y="61.384" fill-rule="evenodd" clip-rule="evenodd" fill="#000000" width="1.5" height="2.543"></rect><rect x="199.031" y="56.838" fill-rule="evenodd" clip-rule="evenodd" fill="#000000" width="1.5" height="2.543"></rect></g></g><g><g><g><rect x="192.501" y="69.5" fill="none" width="14.998" height="13.7"></rect></g><rect x="199.031" y="79.645" fill-rule="evenodd" clip-rule="evenodd" fill="#000000" width="1.5" height="2.543"></rect><rect x="199.031" y="75.084" fill-rule="evenodd" clip-rule="evenodd" fill="#000000" width="1.5" height="2.543"></rect><rect x="199.031" y="70.538" fill-rule="evenodd" clip-rule="evenodd" fill="#000000" width="1.5" height="2.543"></rect></g></g><g><g><g><rect x="192.501" y="83.2" fill="none" width="14.998" height="13.7"></rect></g><rect x="199.031" y="93.345" fill-rule="evenodd" clip-rule="evenodd" fill="#000000" width="1.5" height="2.543"></rect><rect x="199.031" y="88.784" fill-rule="evenodd" clip-rule="evenodd" fill="#000000" width="1.5" height="2.543"></rect><rect x="199.031" y="84.238" fill-rule="evenodd" clip-rule="evenodd" fill="#000000" width="1.5" height="2.543"></rect></g></g><g><g><g><rect x="192.501" y="96.9" fill="none" width="14.998" height="13.7"></rect></g><rect x="199.031" y="107.045" fill-rule="evenodd" clip-rule="evenodd" fill="#000000" width="1.5" height="2.543"></rect><rect x="199.031" y="102.484" fill-rule="evenodd" clip-rule="evenodd" fill="#000000" width="1.5" height="2.543"></rect><rect x="199.031" y="97.938" fill-rule="evenodd" clip-rule="evenodd" fill="#000000" width="1.5" height="2.543"></rect></g></g><g><g><g><rect x="192.501" y="110.6" fill="none" width="14.998" height="13.7"></rect></g><rect x="199.031" y="120.745" fill-rule="evenodd" clip-rule="evenodd" fill="#000000" width="1.5" height="2.543"></rect><rect x="199.031" y="116.184" fill-rule="evenodd" clip-rule="evenodd" fill="#000000" width="1.5" height="2.543"></rect><rect x="199.031" y="111.638" fill-rule="evenodd" clip-rule="evenodd" fill="#000000" width="1.5" height="2.543"></rect></g></g><g><g><g><rect x="192.501" y="124.3" fill="none" width="14.998" height="13.7"></rect></g><rect x="199.031" y="134.445" fill-rule="evenodd" clip-rule="evenodd" fill="#000000" width="1.5" height="2.543"></rect><rect x="199.031" y="129.884" fill-rule="evenodd" clip-rule="evenodd" fill="#000000" width="1.5" height="2.543"></rect><rect x="199.031" y="125.338" fill-rule="evenodd" clip-rule="evenodd" fill="#000000" width="1.5" height="2.543"></rect></g></g><g><g><g><rect x="192.501" y="138" fill="none" width="14.998" height="13.7"></rect></g><rect x="199.031" y="148.145" fill-rule="evenodd" clip-rule="evenodd" fill="#000000" width="1.5" height="2.543"></rect><rect x="199.031" y="143.584" fill-rule="evenodd" clip-rule="evenodd" fill="#000000" width="1.5" height="2.543"></rect><rect x="199.031" y="139.038" fill-rule="evenodd" clip-rule="evenodd" fill="#000000" width="1.5" height="2.543"></rect></g></g><g><g><g><rect x="192.501" y="151.7" fill="none" width="14.998" height="13.7"></rect></g><rect x="199.031" y="161.845" fill-rule="evenodd" clip-rule="evenodd" fill="#000000" width="1.5" height="2.543"></rect><rect x="199.031" y="157.284" fill-rule="evenodd" clip-rule="evenodd" fill="#000000" width="1.5" height="2.543"></rect><rect x="199.031" y="152.738" fill-rule="evenodd" clip-rule="evenodd" fill="#000000" width="1.5" height="2.543"></rect></g></g><g><g><g><rect x="192.501" y="165.4" fill="none" width="14.998" height="13.7"></rect></g><rect x="199.031" y="175.545" fill-rule="evenodd" clip-rule="evenodd" fill="#000000" width="1.5" height="2.543"></rect><rect x="199.031" y="170.984" fill-rule="evenodd" clip-rule="evenodd" fill="#000000" width="1.5" height="2.543"></rect><rect x="199.031" y="166.438" fill-rule="evenodd" clip-rule="evenodd" fill="#000000" width="1.5" height="2.543"></rect></g></g><g><g><g><rect x="192.501" y="179.1" fill="none" width="14.998" height="13.7"></rect></g><rect x="199.031" y="189.245" fill-rule="evenodd" clip-rule="evenodd" fill="#000000" width="1.5" height="2.543"></rect><rect x="199.031" y="184.684" fill-rule="evenodd" clip-rule="evenodd" fill="#000000" width="1.5" height="2.543"></rect><rect x="199.031" y="180.138" fill-rule="evenodd" clip-rule="evenodd" fill="#000000" width="1.5" height="2.543"></rect></g></g><g><g><g><rect x="192.501" y="192.8" fill="none" width="14.998" height="13.7"></rect></g><rect x="199.031" y="202.945" fill-rule="evenodd" clip-rule="evenodd" fill="#000000" width="1.5" height="2.543"></rect><rect x="199.031" y="198.384" fill-rule="evenodd" clip-rule="evenodd" fill="#000000" width="1.5" height="2.543"></rect><rect x="199.031" y="193.838" fill-rule="evenodd" clip-rule="evenodd" fill="#000000" width="1.5" height="2.543"></rect></g></g><g><g><g><rect x="192.501" y="206.5" fill="none" width="14.998" height="13.7"></rect></g><rect x="199.031" y="216.645" fill-rule="evenodd" clip-rule="evenodd" fill="#000000" width="1.5" height="2.543"></rect><rect x="199.031" y="212.084" fill-rule="evenodd" clip-rule="evenodd" fill="#000000" width="1.5" height="2.543"></rect><rect x="199.031" y="207.538" fill-rule="evenodd" clip-rule="evenodd" fill="#000000" width="1.5" height="2.543"></rect></g></g><g><g><g><rect x="192.501" y="220.2" fill="none" width="14.998" height="13.7"></rect></g><rect x="199.031" y="230.345" fill-rule="evenodd" clip-rule="evenodd" fill="#000000" width="1.5" height="2.543"></rect><rect x="199.031" y="225.784" fill-rule="evenodd" clip-rule="evenodd" fill="#000000" width="1.5" height="2.543"></rect><rect x="199.031" y="221.238" fill-rule="evenodd" clip-rule="evenodd" fill="#000000" width="1.5" height="2.543"></rect></g></g><g><g><g><rect x="192.501" y="233.9" fill="none" width="14.998" height="13.7"></rect></g><rect x="199.031" y="244.045" fill-rule="evenodd" clip-rule="evenodd" fill="#000000" width="1.5" height="2.543"></rect><rect x="199.031" y="239.484" fill-rule="evenodd" clip-rule="evenodd" fill="#000000" width="1.5" height="2.543"></rect><rect x="199.031" y="234.938" fill-rule="evenodd" clip-rule="evenodd" fill="#000000" width="1.5" height="2.543"></rect></g></g><g><g><g><rect x="192.501" y="247.6" fill="none" width="14.998" height="13.7"></rect></g><rect x="199.031" y="257.745" fill-rule="evenodd" clip-rule="evenodd" fill="#000000" width="1.5" height="2.543"></rect><rect x="199.031" y="253.184" fill-rule="evenodd" clip-rule="evenodd" fill="#000000" width="1.5" height="2.543"></rect><rect x="199.031" y="248.638" fill-rule="evenodd" clip-rule="evenodd" fill="#000000" width="1.5" height="2.543"></rect></g></g><g><g><g><rect x="192.501" y="261.3" fill="none" width="14.998" height="13.7"></rect></g><rect x="199.031" y="271.445" fill-rule="evenodd" clip-rule="evenodd" fill="#000000" width="1.5" height="2.543"></rect><rect x="199.031" y="266.884" fill-rule="evenodd" clip-rule="evenodd" fill="#000000" width="1.5" height="2.543"></rect><rect x="199.031" y="262.338" fill-rule="evenodd" clip-rule="evenodd" fill="#000000" width="1.5" height="2.543"></rect></g></g></g></g></g><g><g><g><g><g><g><rect x="212.501" y="1" fill="none" width="14.998" height="13.7"></rect></g><rect x="219.031" y="11.145" fill-rule="evenodd" clip-rule="evenodd" fill="#000000" width="1.5" height="2.543"></rect><rect x="219.031" y="6.584" fill-rule="evenodd" clip-rule="evenodd" fill="#000000" width="1.5" height="2.543"></rect><rect x="219.031" y="2.038" fill-rule="evenodd" clip-rule="evenodd" fill="#000000" width="1.5" height="2.543"></rect></g></g><g><g><g><rect x="212.501" y="14.7" fill="none" width="14.998" height="13.7"></rect></g><rect x="219.031" y="24.845" fill-rule="evenodd" clip-rule="evenodd" fill="#000000" width="1.5" height="2.543"></rect><rect x="219.031" y="20.284" fill-rule="evenodd" clip-rule="evenodd" fill="#000000" width="1.5" height="2.543"></rect><rect x="219.031" y="15.738" fill-rule="evenodd" clip-rule="evenodd" fill="#000000" width="1.5" height="2.543"></rect></g></g><g><g><g><rect x="212.501" y="28.4" fill="none" width="14.998" height="13.7"></rect></g><rect x="219.031" y="38.545" fill-rule="evenodd" clip-rule="evenodd" fill="#000000" width="1.5" height="2.543"></rect><rect x="219.031" y="33.984" fill-rule="evenodd" clip-rule="evenodd" fill="#000000" width="1.5" height="2.543"></rect><rect x="219.031" y="29.438" fill-rule="evenodd" clip-rule="evenodd" fill="#000000" width="1.5" height="2.543"></rect></g></g><g><g><g><rect x="212.501" y="42.1" fill="none" width="14.998" height="13.7"></rect></g><rect x="219.031" y="52.245" fill-rule="evenodd" clip-rule="evenodd" fill="#000000" width="1.5" height="2.543"></rect><rect x="219.031" y="47.684" fill-rule="evenodd" clip-rule="evenodd" fill="#000000" width="1.5" height="2.543"></rect><rect x="219.031" y="43.138" fill-rule="evenodd" clip-rule="evenodd" fill="#000000" width="1.5" height="2.543"></rect></g></g><g><g><g><rect x="212.501" y="55.8" fill="none" width="14.998" height="13.7"></rect></g><rect x="219.031" y="65.945" fill-rule="evenodd" clip-rule="evenodd" fill="#000000" width="1.5" height="2.543"></rect><rect x="219.031" y="61.384" fill-rule="evenodd" clip-rule="evenodd" fill="#000000" width="1.5" height="2.543"></rect><rect x="219.031" y="56.838" fill-rule="evenodd" clip-rule="evenodd" fill="#000000" width="1.5" height="2.543"></rect></g></g><g><g><g><rect x="212.501" y="69.5" fill="none" width="14.998" height="13.7"></rect></g><rect x="219.031" y="79.645" fill-rule="evenodd" clip-rule="evenodd" fill="#000000" width="1.5" height="2.543"></rect><rect x="219.031" y="75.084" fill-rule="evenodd" clip-rule="evenodd" fill="#000000" width="1.5" height="2.543"></rect><rect x="219.031" y="70.538" fill-rule="evenodd" clip-rule="evenodd" fill="#000000" width="1.5" height="2.543"></rect></g></g><g><g><g><rect x="212.501" y="83.2" fill="none" width="14.998" height="13.7"></rect></g><rect x="219.031" y="93.345" fill-rule="evenodd" clip-rule="evenodd" fill="#000000" width="1.5" height="2.543"></rect><rect x="219.031" y="88.784" fill-rule="evenodd" clip-rule="evenodd" fill="#000000" width="1.5" height="2.543"></rect><rect x="219.031" y="84.238" fill-rule="evenodd" clip-rule="evenodd" fill="#000000" width="1.5" height="2.543"></rect></g></g><g><g><g><rect x="212.501" y="96.9" fill="none" width="14.998" height="13.7"></rect></g><rect x="219.031" y="107.045" fill-rule="evenodd" clip-rule="evenodd" fill="#000000" width="1.5" height="2.543"></rect><rect x="219.031" y="102.484" fill-rule="evenodd" clip-rule="evenodd" fill="#000000" width="1.5" height="2.543"></rect><rect x="219.031" y="97.938" fill-rule="evenodd" clip-rule="evenodd" fill="#000000" width="1.5" height="2.543"></rect></g></g><g><g><g><rect x="212.501" y="110.6" fill="none" width="14.998" height="13.7"></rect></g><rect x="219.031" y="120.745" fill-rule="evenodd" clip-rule="evenodd" fill="#000000" width="1.5" height="2.543"></rect><rect x="219.031" y="116.184" fill-rule="evenodd" clip-rule="evenodd" fill="#000000" width="1.5" height="2.543"></rect><rect x="219.031" y="111.638" fill-rule="evenodd" clip-rule="evenodd" fill="#000000" width="1.5" height="2.543"></rect></g></g><g><g><g><rect x="212.501" y="124.3" fill="none" width="14.998" height="13.7"></rect></g><rect x="219.031" y="134.445" fill-rule="evenodd" clip-rule="evenodd" fill="#000000" width="1.5" height="2.543"></rect><rect x="219.031" y="129.884" fill-rule="evenodd" clip-rule="evenodd" fill="#000000" width="1.5" height="2.543"></rect><rect x="219.031" y="125.338" fill-rule="evenodd" clip-rule="evenodd" fill="#000000" width="1.5" height="2.543"></rect></g></g><g><g><g><rect x="212.501" y="138" fill="none" width="14.998" height="13.7"></rect></g><rect x="219.031" y="148.145" fill-rule="evenodd" clip-rule="evenodd" fill="#000000" width="1.5" height="2.543"></rect><rect x="219.031" y="143.584" fill-rule="evenodd" clip-rule="evenodd" fill="#000000" width="1.5" height="2.543"></rect><rect x="219.031" y="139.038" fill-rule="evenodd" clip-rule="evenodd" fill="#000000" width="1.5" height="2.543"></rect></g></g><g><g><g><rect x="212.501" y="151.7" fill="none" width="14.998" height="13.7"></rect></g><rect x="219.031" y="161.845" fill-rule="evenodd" clip-rule="evenodd" fill="#000000" width="1.5" height="2.543"></rect><rect x="219.031" y="157.284" fill-rule="evenodd" clip-rule="evenodd" fill="#000000" width="1.5" height="2.543"></rect><rect x="219.031" y="152.738" fill-rule="evenodd" clip-rule="evenodd" fill="#000000" width="1.5" height="2.543"></rect></g></g><g><g><g><rect x="212.501" y="165.4" fill="none" width="14.998" height="13.7"></rect></g><rect x="219.031" y="175.545" fill-rule="evenodd" clip-rule="evenodd" fill="#000000" width="1.5" height="2.543"></rect><rect x="219.031" y="170.984" fill-rule="evenodd" clip-rule="evenodd" fill="#000000" width="1.5" height="2.543"></rect><rect x="219.031" y="166.438" fill-rule="evenodd" clip-rule="evenodd" fill="#000000" width="1.5" height="2.543"></rect></g></g><g><g><g><rect x="212.501" y="179.1" fill="none" width="14.998" height="13.7"></rect></g><rect x="219.031" y="189.245" fill-rule="evenodd" clip-rule="evenodd" fill="#000000" width="1.5" height="2.543"></rect><rect x="219.031" y="184.684" fill-rule="evenodd" clip-rule="evenodd" fill="#000000" width="1.5" height="2.543"></rect><rect x="219.031" y="180.138" fill-rule="evenodd" clip-rule="evenodd" fill="#000000" width="1.5" height="2.543"></rect></g></g><g><g><g><rect x="212.501" y="192.8" fill="none" width="14.998" height="13.7"></rect></g><rect x="219.031" y="202.945" fill-rule="evenodd" clip-rule="evenodd" fill="#000000" width="1.5" height="2.543"></rect><rect x="219.031" y="198.384" fill-rule="evenodd" clip-rule="evenodd" fill="#000000" width="1.5" height="2.543"></rect><rect x="219.031" y="193.838" fill-rule="evenodd" clip-rule="evenodd" fill="#000000" width="1.5" height="2.543"></rect></g></g><g><g><g><rect x="212.501" y="206.5" fill="none" width="14.998" height="13.7"></rect></g><rect x="219.031" y="216.645" fill-rule="evenodd" clip-rule="evenodd" fill="#000000" width="1.5" height="2.543"></rect><rect x="219.031" y="212.084" fill-rule="evenodd" clip-rule="evenodd" fill="#000000" width="1.5" height="2.543"></rect><rect x="219.031" y="207.538" fill-rule="evenodd" clip-rule="evenodd" fill="#000000" width="1.5" height="2.543"></rect></g></g><g><g><g><rect x="212.501" y="220.2" fill="none" width="14.998" height="13.7"></rect></g><rect x="219.031" y="230.345" fill-rule="evenodd" clip-rule="evenodd" fill="#000000" width="1.5" height="2.543"></rect><rect x="219.031" y="225.784" fill-rule="evenodd" clip-rule="evenodd" fill="#000000" width="1.5" height="2.543"></rect><rect x="219.031" y="221.238" fill-rule="evenodd" clip-rule="evenodd" fill="#000000" width="1.5" height="2.543"></rect></g></g><g><g><g><rect x="212.501" y="233.9" fill="none" width="14.998" height="13.7"></rect></g><rect x="219.031" y="244.045" fill-rule="evenodd" clip-rule="evenodd" fill="#000000" width="1.5" height="2.543"></rect><rect x="219.031" y="239.484" fill-rule="evenodd" clip-rule="evenodd" fill="#000000" width="1.5" height="2.543"></rect><rect x="219.031" y="234.938" fill-rule="evenodd" clip-rule="evenodd" fill="#000000" width="1.5" height="2.543"></rect></g></g><g><g><g><rect x="212.501" y="247.6" fill="none" width="14.998" height="13.7"></rect></g><rect x="219.031" y="257.745" fill-rule="evenodd" clip-rule="evenodd" fill="#000000" width="1.5" height="2.543"></rect><rect x="219.031" y="253.184" fill-rule="evenodd" clip-rule="evenodd" fill="#000000" width="1.5" height="2.543"></rect><rect x="219.031" y="248.638" fill-rule="evenodd" clip-rule="evenodd" fill="#000000" width="1.5" height="2.543"></rect></g></g><g><g><g><rect x="212.501" y="261.3" fill="none" width="14.998" height="13.7"></rect></g><rect x="219.031" y="271.445" fill-rule="evenodd" clip-rule="evenodd" fill="#000000" width="1.5" height="2.543"></rect><rect x="219.031" y="266.884" fill-rule="evenodd" clip-rule="evenodd" fill="#000000" width="1.5" height="2.543"></rect><rect x="219.031" y="262.338" fill-rule="evenodd" clip-rule="evenodd" fill="#000000" width="1.5" height="2.543"></rect></g></g></g></g></g></svg>