<svg xmlns="http://www.w3.org/2000/svg" xmlns:xlink="http://www.w3.org/1999/xlink" version="1.1" x="0px" y="0px" viewBox="0 0 421 275" enable-background="new 0 0 421 275" xml:space="preserve"><polyline fill="none" stroke="#000000" stroke-miterlimit="10" points="210,249.5 0.5,249.5 0.5,18.5 210,18.5 "></polyline><polyline fill="none" stroke="#000000" stroke-miterlimit="10" points="210,18.5 420.5,18.5 420.5,249.5 210,249.5 "></polyline><g><g><g><g><g><g><rect x="189.001" y="18.921" fill="none" width="14.998" height="13.563"></rect></g><rect x="195.531" y="28.965" fill-rule="evenodd" clip-rule="evenodd" fill="#000000" width="1.5" height="2.518"></rect><rect x="195.531" y="24.449" fill-rule="evenodd" clip-rule="evenodd" fill="#000000" width="1.5" height="2.518"></rect><rect x="195.531" y="19.948" fill-rule="evenodd" clip-rule="evenodd" fill="#000000" width="1.5" height="2.518"></rect></g></g><g><g><g><rect x="189.001" y="32.484" fill="none" width="14.998" height="13.563"></rect></g><rect x="195.531" y="42.528" fill-rule="evenodd" clip-rule="evenodd" fill="#000000" width="1.5" height="2.518"></rect><rect x="195.531" y="38.013" fill-rule="evenodd" clip-rule="evenodd" fill="#000000" width="1.5" height="2.518"></rect><rect x="195.531" y="33.512" fill-rule="evenodd" clip-rule="evenodd" fill="#000000" width="1.5" height="2.518"></rect></g></g><g><g><g><rect x="189.001" y="46.048" fill="none" width="14.998" height="13.563"></rect></g><rect x="195.531" y="56.092" fill-rule="evenodd" clip-rule="evenodd" fill="#000000" width="1.5" height="2.518"></rect><rect x="195.531" y="51.576" fill-rule="evenodd" clip-rule="evenodd" fill="#000000" width="1.5" height="2.518"></rect><rect x="195.531" y="47.075" fill-rule="evenodd" clip-rule="evenodd" fill="#000000" width="1.5" height="2.518"></rect></g></g><g><g><g><rect x="189.001" y="59.611" fill="none" width="14.998" height="13.563"></rect></g><rect x="195.531" y="69.655" fill-rule="evenodd" clip-rule="evenodd" fill="#000000" width="1.5" height="2.518"></rect><rect x="195.531" y="65.14" fill-rule="evenodd" clip-rule="evenodd" fill="#000000" width="1.5" height="2.518"></rect><rect x="195.531" y="60.639" fill-rule="evenodd" clip-rule="evenodd" fill="#000000" width="1.5" height="2.518"></rect></g></g><g><g><g><rect x="189.001" y="73.175" fill="none" width="14.998" height="13.563"></rect></g><rect x="195.531" y="83.218" fill-rule="evenodd" clip-rule="evenodd" fill="#000000" width="1.5" height="2.518"></rect><rect x="195.531" y="78.703" fill-rule="evenodd" clip-rule="evenodd" fill="#000000" width="1.5" height="2.518"></rect><rect x="195.531" y="74.202" fill-rule="evenodd" clip-rule="evenodd" fill="#000000" width="1.5" height="2.518"></rect></g></g><g><g><g><rect x="189.001" y="86.738" fill="none" width="14.998" height="13.563"></rect></g><rect x="195.531" y="96.782" fill-rule="evenodd" clip-rule="evenodd" fill="#000000" width="1.5" height="2.518"></rect><rect x="195.531" y="92.267" fill-rule="evenodd" clip-rule="evenodd" fill="#000000" width="1.5" height="2.518"></rect><rect x="195.531" y="87.766" fill-rule="evenodd" clip-rule="evenodd" fill="#000000" width="1.5" height="2.518"></rect></g></g><g><g><g><rect x="189.001" y="100.302" fill="none" width="14.998" height="13.563"></rect></g><rect x="195.531" y="110.345" fill-rule="evenodd" clip-rule="evenodd" fill="#000000" width="1.5" height="2.518"></rect><rect x="195.531" y="105.83" fill-rule="evenodd" clip-rule="evenodd" fill="#000000" width="1.5" height="2.518"></rect><rect x="195.531" y="101.329" fill-rule="evenodd" clip-rule="evenodd" fill="#000000" width="1.5" height="2.518"></rect></g></g><g><g><g><rect x="189.001" y="113.865" fill="none" width="14.998" height="13.563"></rect></g><rect x="195.531" y="123.909" fill-rule="evenodd" clip-rule="evenodd" fill="#000000" width="1.5" height="2.518"></rect><rect x="195.531" y="119.393" fill-rule="evenodd" clip-rule="evenodd" fill="#000000" width="1.5" height="2.518"></rect><rect x="195.531" y="114.893" fill-rule="evenodd" clip-rule="evenodd" fill="#000000" width="1.5" height="2.518"></rect></g></g><g><g><g><rect x="189.001" y="127.429" fill="none" width="14.998" height="13.563"></rect></g><rect x="195.531" y="137.472" fill-rule="evenodd" clip-rule="evenodd" fill="#000000" width="1.5" height="2.518"></rect><rect x="195.531" y="132.957" fill-rule="evenodd" clip-rule="evenodd" fill="#000000" width="1.5" height="2.518"></rect><rect x="195.531" y="128.456" fill-rule="evenodd" clip-rule="evenodd" fill="#000000" width="1.5" height="2.518"></rect></g></g><g><g><g><rect x="189.001" y="140.992" fill="none" width="14.998" height="13.563"></rect></g><rect x="195.531" y="151.036" fill-rule="evenodd" clip-rule="evenodd" fill="#000000" width="1.5" height="2.518"></rect><rect x="195.531" y="146.52" fill-rule="evenodd" clip-rule="evenodd" fill="#000000" width="1.5" height="2.518"></rect><rect x="195.531" y="142.02" fill-rule="evenodd" clip-rule="evenodd" fill="#000000" width="1.5" height="2.518"></rect></g></g><g><g><g><rect x="189.001" y="154.556" fill="none" width="14.998" height="13.563"></rect></g><rect x="195.531" y="164.599" fill-rule="evenodd" clip-rule="evenodd" fill="#000000" width="1.5" height="2.518"></rect><rect x="195.531" y="160.084" fill-rule="evenodd" clip-rule="evenodd" fill="#000000" width="1.5" height="2.518"></rect><rect x="195.531" y="155.583" fill-rule="evenodd" clip-rule="evenodd" fill="#000000" width="1.5" height="2.518"></rect></g></g><g><g><g><rect x="189.001" y="168.119" fill="none" width="14.998" height="13.564"></rect></g><rect x="195.531" y="178.163" fill-rule="evenodd" clip-rule="evenodd" fill="#000000" width="1.5" height="2.518"></rect><rect x="195.531" y="173.647" fill-rule="evenodd" clip-rule="evenodd" fill="#000000" width="1.5" height="2.518"></rect><rect x="195.531" y="169.147" fill-rule="evenodd" clip-rule="evenodd" fill="#000000" width="1.5" height="2.518"></rect></g></g><g><g><g><rect x="189.001" y="181.683" fill="none" width="14.998" height="13.563"></rect></g><rect x="195.531" y="191.726" fill-rule="evenodd" clip-rule="evenodd" fill="#000000" width="1.5" height="2.518"></rect><rect x="195.531" y="187.211" fill-rule="evenodd" clip-rule="evenodd" fill="#000000" width="1.5" height="2.518"></rect><rect x="195.531" y="182.71" fill-rule="evenodd" clip-rule="evenodd" fill="#000000" width="1.5" height="2.518"></rect></g></g><g><g><g><rect x="189.001" y="195.246" fill="none" width="14.998" height="13.563"></rect></g><rect x="195.531" y="205.29" fill-rule="evenodd" clip-rule="evenodd" fill="#000000" width="1.5" height="2.518"></rect><rect x="195.531" y="200.774" fill-rule="evenodd" clip-rule="evenodd" fill="#000000" width="1.5" height="2.518"></rect><rect x="195.531" y="196.274" fill-rule="evenodd" clip-rule="evenodd" fill="#000000" width="1.5" height="2.518"></rect></g></g><g><g><g><rect x="189.001" y="208.81" fill="none" width="14.998" height="13.563"></rect></g><rect x="195.531" y="218.853" fill-rule="evenodd" clip-rule="evenodd" fill="#000000" width="1.5" height="2.518"></rect><rect x="195.531" y="214.338" fill-rule="evenodd" clip-rule="evenodd" fill="#000000" width="1.5" height="2.518"></rect><rect x="195.531" y="209.837" fill-rule="evenodd" clip-rule="evenodd" fill="#000000" width="1.5" height="2.518"></rect></g></g><g><g><g><rect x="189.001" y="222.373" fill="none" width="14.998" height="13.564"></rect></g><rect x="195.531" y="232.417" fill-rule="evenodd" clip-rule="evenodd" fill="#000000" width="1.5" height="2.518"></rect><rect x="195.531" y="227.901" fill-rule="evenodd" clip-rule="evenodd" fill="#000000" width="1.5" height="2.518"></rect><rect x="195.531" y="223.401" fill-rule="evenodd" clip-rule="evenodd" fill="#000000" width="1.5" height="2.518"></rect></g></g><g><g><g><rect x="189.001" y="235.937" fill="none" width="14.998" height="13.563"></rect></g><rect x="195.531" y="245.98" fill-rule="evenodd" clip-rule="evenodd" fill="#000000" width="1.5" height="2.518"></rect><rect x="195.531" y="241.465" fill-rule="evenodd" clip-rule="evenodd" fill="#000000" width="1.5" height="2.518"></rect><rect x="195.531" y="236.964" fill-rule="evenodd" clip-rule="evenodd" fill="#000000" width="1.5" height="2.518"></rect></g></g></g></g></g><g><g><g><g><g><g><rect x="207.001" y="18.921" fill="none" width="14.998" height="13.563"></rect></g><rect x="213.531" y="28.965" fill-rule="evenodd" clip-rule="evenodd" fill="#000000" width="1.5" height="2.518"></rect><rect x="213.531" y="24.449" fill-rule="evenodd" clip-rule="evenodd" fill="#000000" width="1.5" height="2.518"></rect><rect x="213.531" y="19.948" fill-rule="evenodd" clip-rule="evenodd" fill="#000000" width="1.5" height="2.518"></rect></g></g><g><g><g><rect x="207.001" y="32.484" fill="none" width="14.998" height="13.563"></rect></g><rect x="213.531" y="42.528" fill-rule="evenodd" clip-rule="evenodd" fill="#000000" width="1.5" height="2.518"></rect><rect x="213.531" y="38.013" fill-rule="evenodd" clip-rule="evenodd" fill="#000000" width="1.5" height="2.518"></rect><rect x="213.531" y="33.512" fill-rule="evenodd" clip-rule="evenodd" fill="#000000" width="1.5" height="2.518"></rect></g></g><g><g><g><rect x="207.001" y="46.048" fill="none" width="14.998" height="13.563"></rect></g><rect x="213.531" y="56.092" fill-rule="evenodd" clip-rule="evenodd" fill="#000000" width="1.5" height="2.518"></rect><rect x="213.531" y="51.576" fill-rule="evenodd" clip-rule="evenodd" fill="#000000" width="1.5" height="2.518"></rect><rect x="213.531" y="47.075" fill-rule="evenodd" clip-rule="evenodd" fill="#000000" width="1.5" height="2.518"></rect></g></g><g><g><g><rect x="207.001" y="59.611" fill="none" width="14.998" height="13.563"></rect></g><rect x="213.531" y="69.655" fill-rule="evenodd" clip-rule="evenodd" fill="#000000" width="1.5" height="2.518"></rect><rect x="213.531" y="65.14" fill-rule="evenodd" clip-rule="evenodd" fill="#000000" width="1.5" height="2.518"></rect><rect x="213.531" y="60.639" fill-rule="evenodd" clip-rule="evenodd" fill="#000000" width="1.5" height="2.518"></rect></g></g><g><g><g><rect x="207.001" y="73.175" fill="none" width="14.998" height="13.563"></rect></g><rect x="213.531" y="83.218" fill-rule="evenodd" clip-rule="evenodd" fill="#000000" width="1.5" height="2.518"></rect><rect x="213.531" y="78.703" fill-rule="evenodd" clip-rule="evenodd" fill="#000000" width="1.5" height="2.518"></rect><rect x="213.531" y="74.202" fill-rule="evenodd" clip-rule="evenodd" fill="#000000" width="1.5" height="2.518"></rect></g></g><g><g><g><rect x="207.001" y="86.738" fill="none" width="14.998" height="13.563"></rect></g><rect x="213.531" y="96.782" fill-rule="evenodd" clip-rule="evenodd" fill="#000000" width="1.5" height="2.518"></rect><rect x="213.531" y="92.267" fill-rule="evenodd" clip-rule="evenodd" fill="#000000" width="1.5" height="2.518"></rect><rect x="213.531" y="87.766" fill-rule="evenodd" clip-rule="evenodd" fill="#000000" width="1.5" height="2.518"></rect></g></g><g><g><g><rect x="207.001" y="100.302" fill="none" width="14.998" height="13.563"></rect></g><rect x="213.531" y="110.345" fill-rule="evenodd" clip-rule="evenodd" fill="#000000" width="1.5" height="2.518"></rect><rect x="213.531" y="105.83" fill-rule="evenodd" clip-rule="evenodd" fill="#000000" width="1.5" height="2.518"></rect><rect x="213.531" y="101.329" fill-rule="evenodd" clip-rule="evenodd" fill="#000000" width="1.5" height="2.518"></rect></g></g><g><g><g><rect x="207.001" y="113.865" fill="none" width="14.998" height="13.563"></rect></g><rect x="213.531" y="123.909" fill-rule="evenodd" clip-rule="evenodd" fill="#000000" width="1.5" height="2.518"></rect><rect x="213.531" y="119.393" fill-rule="evenodd" clip-rule="evenodd" fill="#000000" width="1.5" height="2.518"></rect><rect x="213.531" y="114.893" fill-rule="evenodd" clip-rule="evenodd" fill="#000000" width="1.5" height="2.518"></rect></g></g><g><g><g><rect x="207.001" y="127.429" fill="none" width="14.998" height="13.563"></rect></g><rect x="213.531" y="137.472" fill-rule="evenodd" clip-rule="evenodd" fill="#000000" width="1.5" height="2.518"></rect><rect x="213.531" y="132.957" fill-rule="evenodd" clip-rule="evenodd" fill="#000000" width="1.5" height="2.518"></rect><rect x="213.531" y="128.456" fill-rule="evenodd" clip-rule="evenodd" fill="#000000" width="1.5" height="2.518"></rect></g></g><g><g><g><rect x="207.001" y="140.992" fill="none" width="14.998" height="13.563"></rect></g><rect x="213.531" y="151.036" fill-rule="evenodd" clip-rule="evenodd" fill="#000000" width="1.5" height="2.518"></rect><rect x="213.531" y="146.52" fill-rule="evenodd" clip-rule="evenodd" fill="#000000" width="1.5" height="2.518"></rect><rect x="213.531" y="142.02" fill-rule="evenodd" clip-rule="evenodd" fill="#000000" width="1.5" height="2.518"></rect></g></g><g><g><g><rect x="207.001" y="154.556" fill="none" width="14.998" height="13.563"></rect></g><rect x="213.531" y="164.599" fill-rule="evenodd" clip-rule="evenodd" fill="#000000" width="1.5" height="2.518"></rect><rect x="213.531" y="160.084" fill-rule="evenodd" clip-rule="evenodd" fill="#000000" width="1.5" height="2.518"></rect><rect x="213.531" y="155.583" fill-rule="evenodd" clip-rule="evenodd" fill="#000000" width="1.5" height="2.518"></rect></g></g><g><g><g><rect x="207.001" y="168.119" fill="none" width="14.998" height="13.564"></rect></g><rect x="213.531" y="178.163" fill-rule="evenodd" clip-rule="evenodd" fill="#000000" width="1.5" height="2.518"></rect><rect x="213.531" y="173.647" fill-rule="evenodd" clip-rule="evenodd" fill="#000000" width="1.5" height="2.518"></rect><rect x="213.531" y="169.147" fill-rule="evenodd" clip-rule="evenodd" fill="#000000" width="1.5" height="2.518"></rect></g></g><g><g><g><rect x="207.001" y="181.683" fill="none" width="14.998" height="13.563"></rect></g><rect x="213.531" y="191.726" fill-rule="evenodd" clip-rule="evenodd" fill="#000000" width="1.5" height="2.518"></rect><rect x="213.531" y="187.211" fill-rule="evenodd" clip-rule="evenodd" fill="#000000" width="1.5" height="2.518"></rect><rect x="213.531" y="182.71" fill-rule="evenodd" clip-rule="evenodd" fill="#000000" width="1.5" height="2.518"></rect></g></g><g><g><g><rect x="207.001" y="195.246" fill="none" width="14.998" height="13.563"></rect></g><rect x="213.531" y="205.29" fill-rule="evenodd" clip-rule="evenodd" fill="#000000" width="1.5" height="2.518"></rect><rect x="213.531" y="200.774" fill-rule="evenodd" clip-rule="evenodd" fill="#000000" width="1.5" height="2.518"></rect><rect x="213.531" y="196.274" fill-rule="evenodd" clip-rule="evenodd" fill="#000000" width="1.5" height="2.518"></rect></g></g><g><g><g><rect x="207.001" y="208.81" fill="none" width="14.998" height="13.563"></rect></g><rect x="213.531" y="218.853" fill-rule="evenodd" clip-rule="evenodd" fill="#000000" width="1.5" height="2.518"></rect><rect x="213.531" y="214.338" fill-rule="evenodd" clip-rule="evenodd" fill="#000000" width="1.5" height="2.518"></rect><rect x="213.531" y="209.837" fill-rule="evenodd" clip-rule="evenodd" fill="#000000" width="1.5" height="2.518"></rect></g></g><g><g><g><rect x="207.001" y="222.373" fill="none" width="14.998" height="13.564"></rect></g><rect x="213.531" y="232.417" fill-rule="evenodd" clip-rule="evenodd" fill="#000000" width="1.5" height="2.518"></rect><rect x="213.531" y="227.901" fill-rule="evenodd" clip-rule="evenodd" fill="#000000" width="1.5" height="2.518"></rect><rect x="213.531" y="223.401" fill-rule="evenodd" clip-rule="evenodd" fill="#000000" width="1.5" height="2.518"></rect></g></g><g><g><g><rect x="207.001" y="235.937" fill="none" width="14.998" height="13.563"></rect></g><rect x="213.531" y="245.98" fill-rule="evenodd" clip-rule="evenodd" fill="#000000" width="1.5" height="2.518"></rect><rect x="213.531" y="241.465" fill-rule="evenodd" clip-rule="evenodd" fill="#000000" width="1.5" height="2.518"></rect><rect x="213.531" y="236.964" fill-rule="evenodd" clip-rule="evenodd" fill="#000000" width="1.5" height="2.518"></rect></g></g></g></g></g></svg>