<svg xmlns="http://www.w3.org/2000/svg" xmlns:xlink="http://www.w3.org/1999/xlink" version="1.1" x="0px" y="0px" viewBox="0 0 1024 768" enable-background="new 0 0 1024 768" xml:space="preserve"><g><path d="M569.661,486.305l-15.636-37.525c-13.939,7.634-29.937,11.981-46.948,11.981c-16.934,0-32.863-4.301-46.756-11.873   l-15.828,41.149l29.898,41.103l-64.934,126.113l94.817,56.049l100.424-56.049l-64.927-126.106L569.661,486.305z"></path><path d="M347.372,431.186l-12.188-29.245c-10.867,5.952-23.332,9.339-36.595,9.339c-13.202,0-25.613-3.356-36.442-9.254   l-12.334,32.072l23.301,32.033l-50.604,98.289l73.897,43.684l78.267-43.684L324.07,466.13L347.372,431.186z"></path><path d="M350.013,351.713c-16.266-27.318-25.644-59.228-25.644-93.327c0-37.125,11.098-71.639,30.121-100.462   c-16.428-9.623-35.489-15.237-55.903-15.237c-61.225,0-110.861,49.636-110.861,110.861s49.636,110.861,110.861,110.861   C317.166,364.408,334.638,359.785,350.013,351.713z"></path><path d="M774.188,434.097l-12.334-32.072c-10.829,5.898-23.24,9.254-36.442,9.254c-13.263,0-25.728-3.387-36.595-9.339   l-12.188,29.245l23.301,34.944l-50.604,98.289l78.267,43.684l73.897-43.684l-50.604-98.289L774.188,434.097z"></path><path d="M725.404,142.679c-20.413,0-39.475,5.614-55.903,15.237c19.023,28.831,30.121,63.345,30.121,100.462   c0,34.107-9.37,66.01-25.643,93.327c15.375,8.072,32.847,12.695,51.418,12.695c61.225,0,110.861-49.636,110.861-110.861   C836.265,192.315,786.629,142.679,725.404,142.679z"></path><path d="M507.077,116.137c-78.559,0-142.249,63.683-142.249,142.249s63.683,142.249,142.249,142.249   c78.559,0,142.249-63.69,142.249-142.249S585.636,116.137,507.077,116.137z M533.78,196.186c11.796,0,21.358,9.562,21.358,21.358   c0,11.796-9.562,21.358-21.358,21.358s-21.358-9.562-21.358-21.358C512.43,205.747,521.992,196.186,533.78,196.186z    M472.847,196.186c11.796,0,21.358,9.562,21.358,21.358c0,11.796-9.562,21.358-21.358,21.358s-21.358-9.562-21.358-21.358   C451.489,205.747,461.051,196.186,472.847,196.186z M507.077,347.098c-48.284,0-87.567-39.283-87.567-87.575   c0-6.666,5.399-12.065,12.065-12.065c6.666,0,12.065,5.399,12.065,12.065c0,34.982,28.454,63.444,63.437,63.444   s63.444-28.454,63.444-63.444c0-6.666,5.399-12.065,12.065-12.065c6.666,0,12.065,5.399,12.065,12.065   C594.644,307.814,555.361,347.098,507.077,347.098z"></path></g></svg>