<svg xmlns="http://www.w3.org/2000/svg" xmlns:xlink="http://www.w3.org/1999/xlink" version="1.1" x="0px" y="0px" viewBox="-121.5 -121.5 50 50" enable-background="new -121.5 -121.5 50 50" xml:space="preserve"><polygon points="-101.4,-112.4 -111.9,-105.1 -115,-99.2 -108.8,-97.3 -104.5,-98.9 -102.9,-102.1 -96.7,-109.6 "></polygon><path d="M-97.7-111.2c-0.5-0.3-2.4-1.9-2.4-1.9l2.4-0.5l3.4,1.2l4.4,0l1.6,1.8v3.2l-7.5-2.1L-97.7-111.2z"></path><path d="M-103.6-98.9c0.6,0.1,1.8-3.1,1.8-3.1l5.6-6.7l8.6,5.2l-10.6,5.7l-4.4,2.8l-4.9-2.2L-103.6-98.9z"></path><path d="M-112.2-93.5l-1.2,1.2c0,0,0.6,2.1,0.6,2.4c0,0.3,0.6,1.3,0.6,1.3l1.2,0.9l1.8,0.5c0,0,0.7,0.5,1.1,0  c0.4-0.5,1.2-6.6,1.2-6.6l3.3-1.2l-3.1-0.6l-2-1.2L-112.2-93.5z"></path><path d="M-103.6-94.3l-1.2,0.8l-2.2,9.9h-1.4c0,0,0.7,1.5,1.1,1.5s3.8,0,3.8,0l4,0.5l1.3,1h4.8l5.1-1.3l2.5-1.2l3.7-1.6l0.9-2.3  l-3.8,2.3l0.3-1.4l1.7-1.2l2.7-3.8l2.1-3.7l-1.2-3.3l-2.8-2.3l-2.3,4.9l-0.9-1.6H-90l-5.8,0.5L-103.6-94.3z"></path><polygon points="-96.3,-98.3 -87.1,-103.2 -86.4,-104 -86.4,-105.2 -85.2,-102.9 -83.7,-103.9 -82.1,-101.7 -84.1,-98.3   -84.7,-98.3 -97.1,-97.3 "></polygon><polygon points="-93.4,-108 -87.5,-106.9 -87.5,-105.6 "></polygon></svg>