<svg xmlns="http://www.w3.org/2000/svg" xmlns:xlink="http://www.w3.org/1999/xlink" version="1.1" x="0px" y="0px" viewBox="0 0 100 100" enable-background="new 0 0 100 100" xml:space="preserve"><g><path fill="#000000" d="M16.118,4.5v91.001h67.765V4.5H16.118z M81.947,93.565H18.269V6.222h63.679V93.565z"></path><rect x="57.388" y="88.197" fill="#000000" width="19.483" height="0.394"></rect><rect x="35.948" y="19.314" fill="#000000" width="28.104" height="0.568"></rect><polygon fill="#000000" points="61.763,86.966 59.741,85.421 61.699,83.927 61.576,83.766 59.574,85.294 57.574,83.766    57.451,83.927 59.408,85.421 57.388,86.966 57.51,87.125 59.574,85.549 61.64,87.125  "></polygon></g><g><path fill="#000000" d="M63.687,87.125c0,0,2.28-3.265,2.908-4.271c0.18-0.29-0.808,4.053-0.778,4.074   c0.057,0.041,0.152,0.229,1.354-0.702c0.186,0.436,0.357,0.671,0.41,0.662c0.122-0.02,1.012-0.039,1.525-0.217   c0.515-0.178,1.609-1.131,1.7-1.052c0.092,0.079-0.217,1.189,0.04,1.309c0.258,0.118,1.922-0.661,1.922-0.661   s0.135,0.107,0.371,0.186c0.237,0.079,3.659,0.14,3.659,0.14l0.909-0.653l-3.645,0.103c0,0-0.396-0.311-0.706-0.546   c-0.256-0.193-1.275,0.669-1.384,0.72c-1.143,0.543-0.609-0.732-0.782-1.351c-0.219-0.782-0.681,0.146-0.997,0.481   c-0.316,0.337-0.831,0.89-1.028,0.91c-0.198,0.019-0.909,0.453-1.166-0.021c-0.258-0.474-0.142-0.574-0.419-0.555   c-0.276,0.021-1.084,0.693-1.084,0.693s1.086-4.954,0.988-5.023c-0.644-0.456-4.094,5.498-4.094,5.498L63.687,87.125z"></path><rect x="41.417" y="9.391" fill="none" width="17.167" height="9.923"></rect><text transform="matrix(1 0 0 1 41.9585 17.5269)" fill="#000000" font-family="'Calibri-Light'" font-size="12">ED.</text></g></svg>