<svg xmlns="http://www.w3.org/2000/svg" xmlns:xlink="http://www.w3.org/1999/xlink" version="1.1" x="0px" y="0px" viewBox="0 0 100 100" enable-background="new 0 0 100 100" xml:space="preserve"><g><g><path fill="none" d="M5.28,69.205c0-12.616,0-25.233,0-37.85c30.093,0,60.186,0,90.28,0c0,12.617,0,25.234,0,37.85    C65.466,69.205,35.374,69.205,5.28,69.205z M78.101,40.33c-0.234,1.412-0.465,2.498-0.584,3.597    c-0.135,1.239-0.729,1.787-1.987,2.061c-10.034,2.19-20.053,4.456-30.073,6.71c-6.252,1.406-12.478,2.948-18.122,6.099    c-1.663,0.929-3.306,2.197-4.438,3.702c-1.754,2.331-0.718,4.965,2.07,5.879c1.087,0.356,2.289,0.52,3.436,0.509    c15.957-0.153,30.61-4.829,44.211-12.981c1.648-0.988,3.444-2.272,4.33-3.882c1.74-3.168,4.498-4.491,7.617-5.53    c0.485-0.162,0.954-0.384,1.416-0.606c3.187-1.533,5.859-3.667,7.667-6.748c0.575-0.979,0.965-2.065,1.44-3.102    c-0.183-0.153-0.363-0.306-0.543-0.459c-3.298,5.443-8.271,8.13-14.017,9.289c0.338-3.938,0.692-7.739,0.956-11.546    c0.036-0.513-0.269-1.342-0.645-1.51c-0.404-0.18-1.216,0.094-1.603,0.444c-0.603,0.544-1.071,0.573-1.738,0.218    c-0.354-0.188-0.802-0.213-1.212-0.277c-3.327-0.52-6.245,3.223-6.09,6.123c0.112,2.081-1.368,2.575-2.685,3.871    c-0.047-0.945-0.128-1.528-0.095-2.105c0.062-1.119,0.257-2.234,0.255-3.351c0-0.546-0.174-1.372-0.536-1.562    c-0.391-0.205-1.159,0.069-1.646,0.343c-0.889,0.502-1.675,1.184-2.535,1.741c-0.73,0.472-1.299,0.509-1.411-0.62    c-0.102-1.037-0.845-1.016-1.551-0.694c-0.405,0.184-0.784,0.536-1.044,0.905c-1.37,1.939-2.699,3.907-4.038,5.867    c-0.313,0.457-0.615,0.92-0.922,1.381c-0.115-0.055-0.228-0.11-0.341-0.166c0.108-1.248,0.26-2.494,0.302-3.743    c0.017-0.512-0.051-1.268-0.369-1.482c-0.311-0.209-1.073-0.002-1.492,0.258c-0.791,0.493-1.421,0.545-2.311,0.125    c-1.786-0.845-3.514-0.613-5.078,0.718c-1.963,1.672-2.588,3.797-2.346,6.28c0.156,1.601-0.61,2.912-2.161,3.316    c-0.602,0.157-1.534-0.066-1.978-0.48c-0.316-0.294-0.262-1.278-0.034-1.809c0.549-1.282,1.278-2.489,1.969-3.707    c1.533-2.702,2.412-5.562,2.161-8.701c-0.092-1.155-0.035-2.46-1.431-2.921c-1.374-0.454-2.637,0.103-3.304,1.234    c-1.267,2.148-2.522,4.359-3.349,6.697c-0.995,2.814-0.667,5.815-0.336,8.753c0.115,1.022-0.307,1.824-1.25,2.091    c-0.789,0.224-1.954,0.461-2.438,0.065c-0.564-0.461-0.809-1.622-0.755-2.451c0.064-0.99,0.655-1.935,0.892-2.93    c0.136-0.574,0.025-1.208,0.025-1.962c-0.524,0.195-0.667,0.219-0.777,0.293c-1.795,1.195-1.716,1.167-2.464-0.821    c-0.194-0.515-1.093-1.155-1.58-1.089c-1.032,0.14-0.875,1.179-0.541,1.802c0.721,1.338,0.465,2.516-0.275,3.677    c-0.679,1.065-1.418,2.092-2.198,3.234c-2.205-2.88-4.313-3.596-6.231-2.159c-0.73,0.547-1.359,1.454-1.645,2.324    c-0.547,1.668,0.273,3.062,1.612,4.209c-2.753,0.87-5.381-0.034-6.106-1.958c-0.869-2.306,0.181-5.308,2.245-6.689    c1.608-1.077,3.382-1.213,5.227-1.24c0.465-0.007,0.925-0.365,1.387-0.561c-0.436-0.204-0.855-0.524-1.311-0.589    c-1.06-0.152-2.186-0.045-2.636-1.378c-0.527-1.562,0.154-2.991,1.763-3.589c1.719-0.64,2.921-0.044,3.598,1.662    c0.151,0.38,0.727,0.904,1.001,0.848c0.372-0.076,0.936-0.679,0.902-1.002c-0.098-0.933-0.236-1.993-0.755-2.722    c-1.095-1.54-3.555-1.955-5.501-1.182c-2.169,0.862-3.372,2.474-3.206,4.565c0.074,0.93,0.466,1.835,0.663,2.564    c-1.784,0.997-3.613,1.845-5.243,2.979c-1.562,1.087-2.633,2.625-2.717,4.668c-0.133,3.244,2.087,6.159,5.448,6.821    c4.313,0.85,8.052-0.513,10.77-3.853c1.744-2.145,2.925-4.753,4.298-7.188c0.421-0.747,0.793-1.254,1.824-0.67    c-0.135,0.479-0.259,0.961-0.409,1.435c-0.295,0.935-0.667,1.85-0.895,2.8c-0.531,2.217,0.65,3.591,2.871,3.114    c1.376-0.296,2.701-0.985,3.946-1.681c0.794-0.444,1.347-0.711,2.243-0.17c0.622,0.376,1.509,0.447,2.27,0.424    c2.167-0.065,3.494-1.558,4.846-3.006c0.279-0.3,0.897-0.642,1.179-0.525c2.099,0.865,3.931,0.321,5.68-0.877    c0.605-0.416,1.081-0.91,1.975-0.345c0.317,0.201,1.358-0.243,1.706-0.68c1.273-1.607,2.394-3.337,3.576-5.018    c0.255-0.364,0.523-0.718,0.785-1.077c0.166,0.061,0.331,0.121,0.495,0.181c-0.223,0.942-0.394,1.902-0.685,2.823    c-0.255,0.799-0.591,1.61,0.489,1.964c0.964,0.315,1.856,0.203,2.224-1.005c0.365-1.205,0.724-2.419,1.206-3.581    c0.275-0.666,0.726-1.295,1.227-1.817c0.223-0.234,0.847-0.331,1.134-0.185c0.229,0.117,0.319,0.7,0.302,1.067    c-0.034,0.743-0.322,1.495-0.25,2.217c0.069,0.715,0.271,1.759,0.75,2.004c0.584,0.299,1.663,0.153,2.271-0.22    c1.488-0.911,2.829-2.062,4.24-3.125C73.431,43.066,75.581,41.571,78.101,40.33z"></path><path fill-rule="evenodd" clip-rule="evenodd" d="M78.101,40.33c-2.52,1.242-4.67,2.736-7.007,0.625    c-1.411,1.063-2.752,2.215-4.24,3.125c-0.608,0.373-1.688,0.519-2.271,0.22c-0.479-0.245-0.681-1.289-0.75-2.004    c-0.072-0.723,0.216-1.474,0.25-2.217c0.018-0.368-0.072-0.95-0.302-1.067c-0.287-0.146-0.911-0.049-1.134,0.185    c-0.501,0.522-0.951,1.151-1.227,1.817c-0.482,1.161-0.841,2.375-1.206,3.581c-0.367,1.208-1.26,1.321-2.224,1.005    c-1.08-0.354-0.744-1.165-0.489-1.964c0.291-0.921,0.462-1.88,0.685-2.823c-0.164-0.06-0.329-0.12-0.495-0.181    c-0.262,0.359-0.53,0.713-0.785,1.077c-1.183,1.681-2.303,3.411-3.576,5.018c-0.348,0.438-1.389,0.881-1.706,0.68    c-0.894-0.565-1.37-0.071-1.975,0.345c-1.749,1.198-3.582,1.742-5.68,0.877c-0.281-0.116-0.899,0.226-1.179,0.525    c-1.353,1.449-2.679,2.941-4.846,3.006c-0.761,0.023-1.648-0.048-2.27-0.424c-0.896-0.541-1.449-0.274-2.243,0.17    c-1.245,0.695-2.569,1.385-3.946,1.681c-2.221,0.478-3.402-0.896-2.871-3.114c0.228-0.95,0.6-1.865,0.895-2.8    c0.149-0.474,0.273-0.957,0.409-1.435c-1.031-0.584-1.403-0.077-1.824,0.67c-1.373,2.435-2.554,5.043-4.298,7.188    c-2.718,3.34-6.457,4.702-10.77,3.853c-3.361-0.662-5.581-3.577-5.448-6.821c0.084-2.044,1.155-3.581,2.717-4.668    c1.63-1.134,3.458-1.982,5.243-2.979c-0.197-0.729-0.589-1.634-0.663-2.564c-0.166-2.092,1.036-3.703,3.206-4.565    c1.946-0.773,4.406-0.358,5.501,1.182c0.519,0.729,0.657,1.79,0.755,2.722c0.034,0.323-0.53,0.926-0.902,1.002    c-0.275,0.056-0.851-0.468-1.001-0.848c-0.677-1.706-1.879-2.302-3.598-1.662c-1.608,0.598-2.29,2.027-1.763,3.589    c0.45,1.333,1.576,1.226,2.636,1.378c0.456,0.065,0.875,0.385,1.311,0.589c-0.462,0.196-0.922,0.554-1.387,0.561    c-1.845,0.026-3.619,0.163-5.227,1.24c-2.063,1.381-3.113,4.384-2.245,6.689c0.725,1.924,3.353,2.828,6.106,1.958    c-1.339-1.147-2.159-2.541-1.612-4.209c0.286-0.871,0.915-1.777,1.645-2.324c1.918-1.438,4.027-0.721,6.231,2.159    c0.78-1.142,1.52-2.169,2.198-3.234c0.74-1.161,0.996-2.339,0.275-3.677c-0.334-0.623-0.491-1.662,0.541-1.802    c0.487-0.066,1.386,0.574,1.58,1.089c0.748,1.988,0.669,2.016,2.464,0.821c0.11-0.074,0.252-0.098,0.777-0.293    c0,0.755,0.111,1.388-0.025,1.962c-0.237,0.995-0.828,1.939-0.892,2.93c-0.054,0.829,0.191,1.99,0.755,2.451    c0.485,0.396,1.65,0.159,2.438-0.065c0.943-0.267,1.365-1.069,1.25-2.091c-0.331-2.938-0.659-5.939,0.336-8.753    c0.827-2.338,2.082-4.549,3.349-6.697c0.667-1.131,1.93-1.688,3.304-1.234c1.396,0.461,1.339,1.766,1.431,2.921    c0.25,3.138-0.628,5.999-2.161,8.701c-0.691,1.218-1.419,2.425-1.969,3.707c-0.228,0.531-0.282,1.514,0.034,1.809    c0.444,0.414,1.376,0.637,1.978,0.48c1.551-0.404,2.317-1.715,2.161-3.316c-0.242-2.483,0.382-4.608,2.346-6.28    c1.563-1.331,3.292-1.563,5.078-0.718c0.89,0.421,1.52,0.368,2.311-0.125c0.419-0.26,1.182-0.467,1.492-0.258    c0.318,0.214,0.386,0.97,0.369,1.482c-0.042,1.25-0.193,2.496-0.302,3.743c0.113,0.055,0.226,0.11,0.341,0.166    c0.307-0.46,0.608-0.924,0.922-1.381c1.339-1.96,2.668-3.928,4.038-5.867c0.26-0.369,0.639-0.721,1.044-0.905    c0.706-0.322,1.449-0.343,1.551,0.694c0.112,1.129,0.681,1.092,1.411,0.62c0.86-0.557,1.646-1.239,2.535-1.741    c0.486-0.274,1.255-0.548,1.646-0.343c0.362,0.191,0.536,1.016,0.536,1.562c0.002,1.117-0.193,2.232-0.255,3.351    c-0.033,0.577,0.048,1.161,0.095,2.105c1.316-1.296,2.797-1.79,2.685-3.871c-0.155-2.899,2.763-6.642,6.09-6.123    c0.41,0.064,0.858,0.089,1.212,0.277c0.667,0.354,1.136,0.326,1.738-0.218c0.387-0.35,1.198-0.625,1.603-0.444    c0.376,0.167,0.681,0.997,0.645,1.51c-0.264,3.807-0.618,7.608-0.956,11.546c5.745-1.159,10.719-3.846,14.017-9.289    c0.18,0.153,0.36,0.306,0.543,0.459c-0.476,1.037-0.865,2.124-1.44,3.102c-1.808,3.081-4.48,5.215-7.667,6.748    c-0.462,0.223-0.931,0.445-1.416,0.606c-3.119,1.039-5.877,2.362-7.617,5.53c-0.886,1.609-2.682,2.894-4.33,3.882    c-13.602,8.152-28.255,12.828-44.211,12.981c-1.147,0.011-2.349-0.152-3.436-0.509c-2.788-0.914-3.824-3.548-2.07-5.879    c1.132-1.505,2.775-2.773,4.438-3.702c5.644-3.15,11.87-4.692,18.122-6.099c10.021-2.254,20.039-4.52,30.073-6.71    c1.259-0.274,1.853-0.822,1.987-2.061C77.636,42.828,77.866,41.741,78.101,40.33z M76.018,49.337    c-0.631,0.145-1.032,0.235-1.433,0.331c-7.308,1.737-14.596,3.553-21.925,5.191c-7.207,1.611-14.343,3.416-21.102,6.458    c-1.311,0.59-2.592,1.299-3.759,2.132c-0.622,0.443-0.971,1.271-1.443,1.925c0.75,0.264,1.483,0.617,2.256,0.762    c0.676,0.126,1.397,0.051,2.095,0.009c8.286-0.504,16.398-1.956,24.264-4.634c5.392-1.837,10.71-3.873,15.529-6.991    C72.583,53.173,74.432,51.564,76.018,49.337z M37.213,45.864c2.478-3.2,3.884-6.737,3.735-10.757    c-0.231-0.074-0.463-0.148-0.695-0.222C37.542,37.993,37.609,42.003,37.213,45.864z M50.553,42.698    c-0.021-1.265-0.715-2.106-1.739-2.11c-1.405-0.006-2.8,1.749-2.769,3.484c0.022,1.237,0.749,2.116,1.753,2.123    C49.197,46.203,50.583,44.445,50.553,42.698z M77.692,36.587c0.076-1.18-0.479-2.022-1.382-2.093    c-1.146-0.091-2.391,1.31-2.436,2.791c-0.032,1.018,0.207,1.911,1.449,1.989C76.466,39.344,77.6,38.023,77.692,36.587z     M18.504,53.133c0.958-0.11,1.641-0.63,1.725-1.738c0.08-1.052-0.722-1.917-1.768-1.902c-1.106,0.016-1.727,0.64-1.834,1.709    C16.523,52.219,17.39,53.113,18.504,53.133z"></path><path fill-rule="evenodd" clip-rule="evenodd" fill="none" d="M76.018,49.337c-1.586,2.227-3.435,3.835-5.517,5.182    c-4.819,3.118-10.138,5.154-15.529,6.991c-7.866,2.678-15.978,4.13-24.264,4.634c-0.698,0.042-1.419,0.117-2.095-0.009    c-0.772-0.145-1.506-0.498-2.256-0.762c0.472-0.654,0.821-1.481,1.443-1.925c1.167-0.833,2.448-1.542,3.759-2.132    c6.758-3.042,13.895-4.847,21.102-6.458c7.329-1.639,14.617-3.454,21.925-5.191C74.985,49.573,75.387,49.482,76.018,49.337z"></path><path fill-rule="evenodd" clip-rule="evenodd" fill="none" d="M37.213,45.864c0.396-3.861,0.328-7.871,3.04-10.979    c0.231,0.074,0.463,0.148,0.695,0.222C41.097,39.127,39.691,42.664,37.213,45.864z"></path><path fill-rule="evenodd" clip-rule="evenodd" fill="none" d="M50.553,42.698c0.029,1.747-1.356,3.505-2.755,3.497    c-1.004-0.007-1.73-0.886-1.753-2.123c-0.032-1.735,1.363-3.49,2.769-3.484C49.838,40.592,50.532,41.433,50.553,42.698z"></path><path fill-rule="evenodd" clip-rule="evenodd" fill="none" d="M77.692,36.587c-0.093,1.436-1.227,2.757-2.368,2.686    c-1.242-0.078-1.481-0.971-1.449-1.989c0.045-1.481,1.289-2.882,2.436-2.791C77.213,34.565,77.769,35.407,77.692,36.587z"></path><path fill-rule="evenodd" clip-rule="evenodd" fill="none" d="M18.504,53.133c-1.114-0.02-1.98-0.914-1.878-1.931    c0.108-1.07,0.729-1.693,1.834-1.709c1.046-0.015,1.848,0.85,1.768,1.902C20.145,52.503,19.461,53.022,18.504,53.133z"></path></g></g></svg>