<svg xmlns="http://www.w3.org/2000/svg" xmlns:xlink="http://www.w3.org/1999/xlink" version="1.1" x="0px" y="0px" viewBox="0 0 100 100" enable-background="new 0 0 100 100" xml:space="preserve"><g><path fill-rule="evenodd" clip-rule="evenodd" fill="#000000" d="M18.496,50.761c0-0.262-0.138-0.502-0.364-0.632l-6.021-3.465   c-0.102-0.06-0.216-0.091-0.332-0.096c-0.01,0-0.054,0-0.062,0c-0.115,0.005-0.229,0.036-0.333,0.096l-6.021,3.465   C5.14,50.259,5,50.5,5,50.761l0.013,9.331c0,0.13,0.067,0.25,0.182,0.314c0.112,0.066,0.25,0.066,0.361,0l3.578-2.049   c0.226-0.135,0.364-0.372,0.364-0.631v-4.359c0-0.26,0.138-0.5,0.363-0.63l1.523-0.878c0.114-0.064,0.238-0.098,0.365-0.098   c0.124,0,0.251,0.033,0.361,0.098l1.523,0.878c0.225,0.13,0.363,0.37,0.363,0.63v4.359c0,0.259,0.14,0.498,0.365,0.631l3.577,2.049   c0.112,0.066,0.252,0.066,0.364,0c0.111-0.064,0.18-0.185,0.18-0.314L18.496,50.761z"></path><path fill-rule="evenodd" clip-rule="evenodd" fill="#000000" d="M50.646,37.936c-0.113-0.063-0.25-0.062-0.361,0.004   c-0.111,0.065-0.18,0.185-0.18,0.313v9.24c0,0.091-0.049,0.175-0.127,0.221c-0.079,0.045-0.176,0.045-0.255,0l-1.508-0.869   c-0.225-0.129-0.501-0.129-0.727,0l-6.023,3.476c-0.226,0.13-0.364,0.37-0.364,0.63v6.954c0,0.26,0.139,0.5,0.364,0.631   l6.023,3.479c0.225,0.13,0.502,0.13,0.728,0l6.024-3.479c0.225-0.131,0.363-0.371,0.363-0.631V40.571   c0-0.264-0.143-0.507-0.373-0.635L50.646,37.936z M50.087,55.619c0,0.065-0.035,0.125-0.092,0.158l-2.068,1.191   c-0.056,0.033-0.125,0.033-0.182,0l-2.068-1.191c-0.056-0.033-0.091-0.093-0.091-0.158v-2.387c0-0.065,0.035-0.125,0.091-0.158   l2.068-1.194c0.056-0.032,0.125-0.032,0.182,0l2.067,1.194c0.057,0.033,0.092,0.093,0.092,0.158V55.619z"></path><path fill-rule="evenodd" clip-rule="evenodd" fill="#000000" d="M72.194,53.17c0.224-0.131,0.361-0.37,0.361-0.629v-1.686   c0-0.26-0.138-0.499-0.362-0.629l-5.984-3.475c-0.226-0.131-0.503-0.131-0.729-0.001l-6.021,3.476   c-0.225,0.131-0.363,0.37-0.363,0.63v6.953c0,0.262,0.141,0.502,0.367,0.632l5.983,3.409c0.221,0.126,0.491,0.128,0.714,0.005   l3.619-2.012c0.114-0.064,0.186-0.186,0.187-0.315c0.001-0.132-0.068-0.253-0.183-0.318l-6.06-3.479   c-0.112-0.064-0.182-0.186-0.182-0.314v-2.179c0-0.13,0.069-0.251,0.182-0.315l1.886-1.087c0.112-0.065,0.251-0.065,0.363,0   l1.887,1.087c0.112,0.064,0.182,0.186,0.182,0.315v1.714c0,0.131,0.069,0.25,0.183,0.315c0.112,0.065,0.251,0.064,0.363-0.001   L72.194,53.17z"></path><path fill-rule="evenodd" clip-rule="evenodd" fill="#000000" d="M29.448,46.714c0.225-0.13,0.502-0.13,0.727,0l6.022,3.475   c0.225,0.13,0.364,0.37,0.364,0.631v6.956c0,0.26-0.139,0.5-0.363,0.631l-6.022,3.478c-0.225,0.13-0.502,0.13-0.728,0l-6.021-3.478   c-0.225-0.131-0.363-0.371-0.363-0.631v-6.957c0-0.26,0.139-0.5,0.364-0.63L29.448,46.714z"></path><path fill="#000000" d="M83.888,61.983c-0.208,0-0.414-0.055-0.596-0.159l-1.896-1.122c-0.283-0.158-0.145-0.215-0.051-0.247   c0.377-0.131,0.454-0.161,0.856-0.391c0.042-0.023,0.098-0.014,0.142,0.012l1.456,0.864c0.053,0.029,0.128,0.029,0.176,0   l5.68-3.278c0.053-0.029,0.087-0.09,0.087-0.152v-6.555c0-0.064-0.034-0.123-0.089-0.156l-5.677-3.275   c-0.052-0.031-0.122-0.031-0.175,0l-5.675,3.276c-0.056,0.032-0.09,0.093-0.09,0.155v6.555c0,0.062,0.034,0.121,0.089,0.151   l1.556,0.898c0.845,0.423,1.361-0.075,1.361-0.574v-6.471c0-0.091,0.073-0.163,0.165-0.163h0.72c0.091,0,0.165,0.072,0.165,0.163   v6.471c0,1.126-0.613,1.772-1.682,1.772c-0.328,0-0.587,0-1.309-0.355l-1.488-0.857c-0.368-0.213-0.596-0.609-0.596-1.035v-6.555   c0-0.426,0.228-0.822,0.596-1.035l5.679-3.281c0.359-0.203,0.837-0.203,1.193,0l5.679,3.281c0.367,0.213,0.597,0.609,0.597,1.035   v6.555c0,0.426-0.229,0.821-0.597,1.035l-5.679,3.279C84.304,61.929,84.098,61.983,83.888,61.983z"></path><path fill="#000000" d="M85.642,57.469c-2.485,0-3.006-1.142-3.006-2.098c0-0.092,0.073-0.164,0.164-0.164h0.734   c0.082,0,0.15,0.059,0.163,0.139c0.111,0.748,0.441,1.125,1.944,1.125c1.196,0,1.705-0.271,1.705-0.905   c0-0.366-0.144-0.638-2.003-0.819c-1.554-0.154-2.515-0.497-2.515-1.74c0-1.146,0.965-1.829,2.585-1.829   c1.819,0,2.719,0.632,2.833,1.985c0.005,0.047-0.012,0.092-0.043,0.127c-0.031,0.033-0.074,0.053-0.12,0.053h-0.737   c-0.076,0-0.144-0.055-0.159-0.129c-0.177-0.786-0.607-1.037-1.773-1.037c-1.307,0-1.458,0.455-1.458,0.795   c0,0.414,0.179,0.534,1.942,0.768c1.745,0.23,2.574,0.557,2.574,1.783C88.473,56.76,87.441,57.469,85.642,57.469z"></path><g><path fill="#000000" d="M93.472,46.653v0.168h-0.478v1.246h-0.192v-1.246h-0.477v-0.168H93.472z"></path><path fill="#000000" d="M93.643,46.653h0.274l0.406,1.195l0.404-1.195H95v1.414h-0.183v-0.834c0-0.029,0-0.077,0.001-0.143    c0.002-0.068,0.003-0.14,0.003-0.216l-0.404,1.193h-0.189l-0.407-1.193v0.042c0,0.035,0,0.088,0.002,0.16    c0.002,0.07,0.004,0.123,0.004,0.156v0.834h-0.184V46.653z"></path></g><path fill-rule="evenodd" clip-rule="evenodd" fill="#000000" d="M65.756,52.844c0.043-0.025,0.097-0.025,0.14,0l1.156,0.667   c0.043,0.024,0.069,0.071,0.069,0.12v1.335c0,0.05-0.026,0.097-0.069,0.121l-1.156,0.667c-0.043,0.024-0.097,0.024-0.14,0   l-1.154-0.667c-0.043-0.024-0.07-0.071-0.07-0.121v-1.335c0-0.049,0.027-0.096,0.07-0.12L65.756,52.844z"></path></g></svg>