<svg xmlns="http://www.w3.org/2000/svg" xmlns:xlink="http://www.w3.org/1999/xlink" version="1.1" x="0px" y="0px" viewBox="0 0 100 100" enable-background="new 0 0 100 100" xml:space="preserve"><path fill="#000000" d="M92.77,78.195H9.347c-3.911-0.313-2.845-5.152-2.845-5.152h89.555C96.057,73.043,97.057,78.076,92.77,78.195  z"></path><path fill="#000000" d="M74.613,21.805H27.91c-11.099,0-11.099,0-11.099,7.863v33.09c0,7.862,0,7.862,11.099,7.862h46.703  c11.101,0,11.101,0,11.101-7.862v-33.09C85.714,21.805,85.714,21.805,74.613,21.805z M79.639,67.055h-56.75v-40.25h56.75V67.055z"></path><rect x="25.195" y="29.43" fill="#000000" width="31.5" height="2.25"></rect><rect x="25.195" y="33.68" fill="#000000" width="31.5" height="2.25"></rect><rect x="25.195" y="38.18" fill="#000000" width="31.5" height="2.25"></rect><rect x="25.195" y="42.43" fill="#000000" width="52.135" height="2.25"></rect><rect x="25.195" y="46.93" fill="#000000" width="52.135" height="2.25"></rect><rect x="25.195" y="51.215" fill="#000000" width="52.135" height="2.25"></rect><rect x="25.195" y="55.715" fill="#000000" width="52.135" height="2.25"></rect><rect x="25.195" y="59.305" fill="#000000" width="52.135" height="2.25"></rect><rect x="59.417" y="29.43" fill="#000000" width="17.913" height="11"></rect><path d="M95.671,3.713c-1.318-0.969-3.536,0.607-3.536,0.607L42.23,52.264c-1.019-0.159-2.154-0.23-3.408-0.23  c-6.673,0-7.461,1.28-14.915,8.254c-0.164,0.153-2.541,3.321-2.995,3.446c-3.5,0.962-4.008,2.833-8.282,5.184  c-2.863,1.574,7.435,4.126,10.702,4.126c2.354,0,10.312-0.463,13.416-0.251c6.662,0.454,12.083-5.41,12.083-12.083  c0-0.138-0.01-0.261-0.013-0.395L95.291,7.408C95.291,7.408,96.957,4.658,95.671,3.713z"></path></svg>