<svg xmlns="http://www.w3.org/2000/svg" xmlns:xlink="http://www.w3.org/1999/xlink" version="1.1" x="0px" y="0px" viewBox="0 0 500 500" enable-background="new 0 0 500 500" xml:space="preserve"><g><path fill="#000000" d="M76.998,253.18c-3.692,9.574-43.854,99.326,27.829,133.816c15.858,7.139,49.887-0.061,54.306-32.848   c4.406-32.799,7.875-183.314,182.199-290.057C341.331,64.092,118.458,124.703,76.998,253.18z M94.306,352.799   c-5.91,4.252-11.366-2.906-11.975-3.621c-8.513-8.955-3.629-29.525-3.629-29.525c0.95,18.686,12.897,25.553,15.34,27.342   C96.484,348.785,95.574,351.836,94.306,352.799z"></path></g><g><path fill="#000000" d="M436.401,285.412c-3.816-82.155-125.13-153.441-125.13-153.441c85.396,90.635,63.354,179.666,60.695,199.65   c-2.647,19.98,16.203,29.656,26.668,28C446.289,350.814,437.042,291.631,436.401,285.412z M419.041,336.832   c-0.609,0.717-6.063,7.875-11.974,3.621c-1.269-0.963-2.179-4.014,0.262-5.803c2.444-1.791,14.391-8.656,15.342-27.343   C422.671,307.308,427.555,327.877,419.041,336.832z"></path></g><g><path fill="#000000" d="M328.444,222.212c-1.351-29.073-44.28-54.299-44.28-54.299c30.219,32.073,22.419,63.579,21.479,70.65   c-0.938,7.07,5.733,10.495,9.437,9.908C331.942,245.355,328.671,224.413,328.444,222.212z M322.301,240.408   c-0.216,0.253-2.146,2.786-4.237,1.281c-0.449-0.341-0.771-1.421,0.093-2.054c0.864-0.634,5.092-3.063,5.429-9.676   C323.585,229.96,325.313,237.238,322.301,240.408z"></path></g></svg>