<svg xmlns="http://www.w3.org/2000/svg" xmlns:xlink="http://www.w3.org/1999/xlink" version="1.1" x="0px" y="0px" viewBox="0 0 80 80" enable-background="new 0 0 80 80" xml:space="preserve"><g><path fill="#000000" d="M67.732,23.935L67.732,23.935l-7.373-0.001c0,0-4.258,0-6.641,0c-3.621-0.263-3.686-3.686-3.686-3.686   L49.936,6.232C37.017,6.218,19.317,6.233,19.317,6.233s-4.855,0.211-5.571,5.571c0,2.878,0,57.381,0,57.381S14.152,74,18.639,74.71   c3.162,0.045,44.218,0,44.218,0s4.892-1.166,4.892-5.524C67.749,66.189,67.732,39.892,67.732,23.935z M19.484,33.249   c0-4.514,2.904-8.344,6.942-9.742c-1.289-1.008-2.136-2.562-2.136-4.327c0-3.045,2.47-5.512,5.513-5.512   c3.043,0,5.513,2.467,5.513,5.512c0,1.764-0.846,3.319-2.136,4.327c4.037,1.399,6.943,5.228,6.943,9.742H19.484z"></path><line fill="#000000" stroke="#FFFFFF" stroke-width="0.6922" stroke-miterlimit="10" x1="43.65" y1="23.459" x2="62.018" y2="23.459"></line><line fill="#000000" stroke="#FFFFFF" stroke-width="0.6922" stroke-miterlimit="10" x1="43.65" y1="28.754" x2="62.018" y2="28.754"></line><line fill="#000000" stroke="#FFFFFF" stroke-width="0.6922" stroke-miterlimit="10" x1="43.65" y1="26.107" x2="62.018" y2="26.107"></line><line fill="#000000" stroke="#FFFFFF" stroke-width="0.993" stroke-miterlimit="10" x1="19.487" y1="49.77" x2="62.012" y2="49.77"></line><line fill="#000000" stroke="#FFFFFF" stroke-width="0.993" stroke-miterlimit="10" x1="19.489" y1="43.479" x2="62.014" y2="43.479"></line><line fill="#000000" stroke="#FFFFFF" stroke-width="0.993" stroke-miterlimit="10" x1="19.487" y1="56.551" x2="62.012" y2="56.551"></line><line fill="#000000" stroke="#FFFFFF" stroke-width="0.993" stroke-miterlimit="10" x1="19.487" y1="63.505" x2="62.012" y2="63.505"></line></g></svg>