<svg xmlns="http://www.w3.org/2000/svg" xmlns:xlink="http://www.w3.org/1999/xlink" version="1.0" x="0px" y="0px" viewBox="0 0 26 24.001" style="enable-background:new 0 0 26 24.001;" xml:space="preserve"><g><path d="M8.267,20.791C7.003,19.779,7.93,17,7.93,17H3.144l1.625,6c0.127,0.551,0.68,1,1.231,1h2   C9.615,24.049,10.092,22.252,8.267,20.791z"></path><path d="M11,11v1c3.845,0,4.964-0.925,4.964-0.925L16,9.059C16,9.059,14.866,11,11,11z"></path><path d="M21.5,0c-0.686,0-1.334,0.422-1.916,1.156C17.486,3.369,14.822,8,8,8H3c-1.656,0-3,1.344-3,3v2c0,1.656,1.344,3,3,3h5   c6.644,0,9.182,3.535,10.963,5.905C19.686,23.225,20.559,24,21.5,24c2.482,0,4.5-5.373,4.5-12S23.982,0,21.5,0z M3,12   c0-1.987,1.487-2,1.487-2H8v2H3z M17.285,17.063C15.6,15.67,13.296,14.457,10,14.104v-4.23c3.253-0.419,5.596-1.835,7.339-3.36   C17.131,8.061,17,9.878,17,12C17,13.932,17.108,15.61,17.285,17.063z M21.5,21.976c-0.635-0.375-1.916-2.729-2.35-6.976H20   c1.656,0,3-1.344,3-3s-1.344-3-3-3h-0.85c0.434-4.247,1.715-6.601,2.35-6.976C22.272,2.48,24,5.851,24,12S22.272,21.52,21.5,21.976   z"></path></g></svg>