<svg xmlns="http://www.w3.org/2000/svg" xmlns:xlink="http://www.w3.org/1999/xlink" version="1.0" x="0px" y="0px" viewBox="0 0 22 26" style="enable-background:new 0 0 22 26;" xml:space="preserve"><path d="M20.627,12.628C21.918,3.755,16.778,0,11,0C5.227,0-0.08,3.722,1.354,12.604C0.529,13.274,0,14.443,0,15.84  c0,1.871,1.793,3.477,3.181,3.987C4.482,24.155,9.222,26,11,26c1.773,0,6.492-1.834,7.809-6.135C20.353,19.375,22,17.624,22,15.84  C22,14.492,21.45,13.313,20.627,12.628z M16.617,8.97L16.617,8.97l-5.323,7.854c-0.191,0.282-0.491,0.469-0.788,0.469  c-0.298,0-0.629-0.162-0.838-0.371L5.916,13.17c-0.255-0.256-0.255-0.671,0-0.926l0.927-0.929c0.256-0.253,0.672-0.253,0.926,0  l2.44,2.44l4.239-6.257c0.202-0.298,0.611-0.375,0.91-0.173l1.085,0.736C16.741,8.263,16.819,8.671,16.617,8.97z"></path></svg>