<svg xmlns="http://www.w3.org/2000/svg" xmlns:xlink="http://www.w3.org/1999/xlink" version="1.0" x="0px" y="0px" viewBox="0 0 26 26" style="enable-background:new 0 0 26 26;" xml:space="preserve"><path d="M22,3h-1V2c0-1.159-0.841-2-2-2H4C2.841,0,2,0.841,2,2v19c0,1.159,0.841,2,2,2h1v1c0,1.159,0.841,2,2,2h15  c1.159,0,2-0.841,2-2V5C24,3.841,23.159,3,22,3z M6,21H4V2h15v19H6z M22,24H7v-1h12c1.159,0,2-0.841,2-2V5h1V24z M12.8,16  c0,0.718-0.582,1.3-1.3,1.3c-0.718,0-1.3-0.582-1.3-1.3s0.582-1.3,1.3-1.3C12.218,14.7,12.8,15.282,12.8,16z M10,5h3l-0.4,8h-2.2  L10,5z"></path></svg>