<svg xmlns="http://www.w3.org/2000/svg" xmlns:xlink="http://www.w3.org/1999/xlink" version="1.0" x="0px" y="0px" viewBox="0 0 26 26" style="enable-background:new 0 0 26 26;" xml:space="preserve"><path d="M22,16c-1.987,0-4,1.043-4,3.035c0,1.185,0.479,1.877,0.882,2.25c0.888,0.822,2.061,0.759,2.194,0.747  c0.545-0.041,0.947-0.513,0.914-1.058c-0.033-0.546-0.513-0.988-1.053-0.938c0-0.003-0.451,0.016-0.702-0.225  C20.079,19.663,20,19.402,20,19.035C20,18.416,21.034,18,22,18c1.421,0,2,0.579,2,2c0,2.889-2.76,3.035-3.313,3.035  c-0.609,0-3.651-0.192-3.651-4c0-3.778,6.098-5.042,6.16-5.055c0.417-0.083,0.736-0.422,0.795-0.843  c0.059-0.421-0.156-0.834-0.534-1.028L12.598,6.552c-0.099-0.074-0.196-0.146-0.298-0.226L6.669,1.257C6.485,1.091,6.247,1,6,1  C3.127,1,0.035,2.749,0.035,6.588c0,3.396,2.286,5.335,2.384,5.416c0.038,0.031,0.078,0.06,0.119,0.085l4.045,2.462  c-0.232,4.423-5.19,4.341-6.43,4.392c0,0,2.152,1.256,4.091,1.166C3.477,21.507,1,23,1,23c2.74,0,8.837-0.58,8.893-5.746  l0.256,0.235c0.053,0.052,0.103,0.098,0.156,0.151c-0.001-0.004-0.001-0.007-0.002-0.011l5.963,5.461  c0.057,0.052,0.117,0.096,0.18,0.132c1.225,1.364,2.99,1.812,4.241,1.812C22.66,25.035,26,23.975,26,20C26,17.495,24.505,16,22,16z   M2.035,6.588c0-2.972,2.585-3.484,3.6-3.571l3.98,3.582c-2.43,1.331-3.064,3.732-3.163,5.531l-2.798-1.703  C3.376,10.17,2.035,8.815,2.035,6.588z M15.035,19.035c0,0.073,0.001,0.146,0.003,0.219L9.826,14.48  c-0.031-3.122,1.536-4.746,2.983-5.574l7.555,3.868C18.083,13.693,15.035,15.569,15.035,19.035z"></path></svg>