<svg xmlns="http://www.w3.org/2000/svg" xmlns:xlink="http://www.w3.org/1999/xlink" version="1.0" x="0px" y="0px" viewBox="0 0 26 26" style="enable-background:new 0 0 26 26;" xml:space="preserve"><g><path d="M13.8,17c0.3-2.3,0.9-4.9,0.9-5.3c0-0.5-0.2-0.9-0.5-1.2C13.9,10.2,13.5,10,13,10s-0.9,0.2-1.2,0.5s-0.4,0.7-0.4,1.2   c0,0.5,0.7,3,0.9,5.3H13.8z"></path><path d="M13,19c-0.4,0-0.8,0.1-1.1,0.4c-0.3,0.3-0.4,0.7-0.4,1.1c0,0.5,0.1,0.8,0.4,1.1c0.3,0.3,0.7,0.4,1.1,0.4s0.8-0.1,1.1-0.4   c0.3-0.3,0.4-0.7,0.4-1.1c0-0.4-0.1-0.8-0.4-1.1C13.8,19.1,13.4,19,13,19z"></path><path d="M7,5c0.6,0,1-0.4,1-1V1c0-0.6-0.4-1-1-1C6.4,0,6,0.4,6,1v3C6,4.6,6.4,5,7,5z"></path><path d="M23,2h-2v2c0,1.1-0.9,2-2,2c-1.1,0-2-0.9-2-2V2H9v2c0,1.1-0.9,2-2,2C5.9,6,5,5.1,5,4V2H3C1.3,2,0,3.3,0,5v18   c0,1.7,1.3,3,3,3h20c1.7,0,3-1.3,3-3V5C26,3.3,24.7,2,23,2z M24,23c0,0.6-0.4,1-1,1H3c-0.6,0-1-0.4-1-1V8h22V23z"></path><path d="M19,5c0.6,0,1-0.4,1-1V1c0-0.6-0.4-1-1-1s-1,0.4-1,1v3C18,4.6,18.4,5,19,5z"></path></g></svg>