<svg xmlns="http://www.w3.org/2000/svg" xmlns:xlink="http://www.w3.org/1999/xlink" version="1.0" x="0px" y="0px" viewBox="0 0 26 26" style="enable-background:new 0 0 26 26;" xml:space="preserve"><g><path d="M24,0H2C0.897,0,0,0.897,0,2v22c0,1.103,0.897,2,2,2h22c1.103,0,2-0.897,2-2V2C26,0.897,25.103,0,24,0z M2,24V2h22   l0.002,22H2z"></path><rect x="4" y="4" width="18" height="13"></rect><rect x="15" y="19" width="7" height="2"></rect><path d="M4,19v2h1.695c0.213,0.574,0.937,1,1.805,1c0.868,0,1.592-0.426,1.805-1H11v-2h0H4z"></path></g></svg>