<svg xmlns="http://www.w3.org/2000/svg" xmlns:xlink="http://www.w3.org/1999/xlink" version="1.0" x="0px" y="0px" viewBox="0 0 26 17" style="enable-background:new 0 0 26 17;" xml:space="preserve"><g><path d="M3,16c0,0.551,0.449,1,1,1h2c0.551,0,1-0.449,1-1v-1H3V16z"></path><path d="M19,16c0,0.551,0.449,1,1,1h2c0.551,0,1-0.449,1-1v-1h-4V16z"></path><path d="M23,0H3C1.343,0,0,1.344,0,3v8c0,1.656,1.343,3,3,3h20c1.657,0,3-1.344,3-3V3C26,1.344,24.657,0,23,0z M10.5,10h-7   C3.224,10,3,9.776,3,9.5S3.224,9,3.5,9h7C10.776,9,11,9.224,11,9.5S10.776,10,10.5,10z M10.5,8h-7C3.224,8,3,7.776,3,7.5   S3.224,7,3.5,7h7C10.776,7,11,7.224,11,7.5S10.776,8,10.5,8z M10.5,6h-7C3.224,6,3,5.776,3,5.5C3,5.224,3.224,5,3.5,5h7   C10.776,5,11,5.224,11,5.5C11,5.776,10.776,6,10.5,6z M19,12.059c-2.793,0-5.059-2.265-5.059-5.059   c0-2.794,2.266-5.059,5.059-5.059c2.793,0,5.059,2.265,5.059,5.059C24.059,9.794,21.793,12.059,19,12.059z"></path><circle cx="19" cy="7" r="2.813"></circle></g></svg>