<svg xmlns="http://www.w3.org/2000/svg" xmlns:xlink="http://www.w3.org/1999/xlink" version="1.1" x="0px" y="0px" viewBox="0 0 90 90" enable-background="new 0 0 90 90" xml:space="preserve"><path d="M79.7,14.1H10.3c-2.8,0-5.1,2.3-5.1,5.1v45c0,2.3,1.5,4.2,3.5,4.8c0.3-1.4,1.5-2.4,3-2.4h4c1.5,0,2.8,1.1,3.1,2.6h0.1  c0.2-1.5,1.5-2.6,3.1-2.6h4c1.5,0,2.8,1.1,3.1,2.6h1c0.3-1.5,1.7-2.6,3.3-2.6h23.4c1.6,0,3,1.1,3.3,2.6h1c0.2-1.5,1.5-2.6,3.1-2.6h4  c1.5,0,2.8,1.1,3.1,2.6H71c0.2-1.5,1.5-2.6,3.1-2.6h4c1.5,0,2.7,1.1,3,2.5c2.2-0.6,3.8-2.5,3.8-4.9v-45  C84.8,16.4,82.5,14.1,79.7,14.1z M80.8,63.1c0,0.9-0.8,1.7-1.7,1.7H10.9c-0.9,0-1.7-0.8-1.7-1.7V20.3c0-0.9,0.8-1.7,1.7-1.7h68.2  c0.9,0,1.7,0.8,1.7,1.7V63.1z"></path><path d="M87,72.8c0-1.1-0.9-2.1-2.1-2.1H5.1c-1.1,0-2.1,0.9-2.1,2.1v1c0,1.1,0.9,2.1,2.1,2.1h79.9c1.1,0,2.1-0.9,2.1-2.1V72.8z"></path><path d="M56.5,68H33.2c-1.1,0-1.9,0.8-2,1.9h27.4C58.5,68.8,57.6,68,56.5,68z"></path><path d="M67.8,68h-4c-1,0-1.7,0.8-1.7,1.7c0,0,0,0.1,0,0.1h7.4c0,0,0-0.1,0-0.1C69.6,68.8,68.8,68,67.8,68z"></path><path d="M79.7,69.7c0-1-0.8-1.7-1.7-1.7h-4c-1,0-1.7,0.8-1.7,1.7c0,0,0,0.1,0,0.1h7.4C79.7,69.8,79.7,69.8,79.7,69.7z"></path><path d="M15.7,68h-4c-1,0-1.7,0.8-1.7,1.7c0,0,0,0.1,0,0.1h7.4c0,0,0-0.1,0-0.1C17.4,68.8,16.6,68,15.7,68z"></path><path d="M25.8,68h-4c-1,0-1.7,0.8-1.7,1.7c0,0,0,0.1,0,0.1h7.4c0,0,0-0.1,0-0.1C27.6,68.8,26.8,68,25.8,68z"></path></svg>