<svg xmlns="http://www.w3.org/2000/svg" xmlns:xlink="http://www.w3.org/1999/xlink" version="1.1" x="0px" y="0px" viewBox="0 0 960 1200" enable-background="new 0 0 960 1200" xml:space="preserve"><g><path fill-rule="evenodd" clip-rule="evenodd" d="M172.662,159.806c0,6.808-5.568,12.378-12.377,12.378H41.84   c-6.806,0-12.377-5.57-12.377-12.378V41.36c0-6.808,5.571-12.377,12.377-12.377h118.445c6.809,0,12.377,5.569,12.377,12.377   V159.806z"></path><path fill="#000000" d="M101.063,163.113c-34.492,0-62.622-28.133-62.622-62.623c0-34.492,28.13-62.625,62.622-62.625   s62.625,28.133,62.625,62.625C163.688,134.98,135.555,163.113,101.063,163.113z"></path><g><path fill-rule="evenodd" clip-rule="evenodd" d="M94.529,128.42c-5.24-5.243-13.735-5.243-18.973,0    c-5.242,5.24-5.242,13.732,0,18.976c5.237,5.24,13.732,5.24,18.973,0S99.77,133.661,94.529,128.42z"></path><path fill-rule="evenodd" clip-rule="evenodd" d="M50.581,84.472c-0.45-0.453-0.933-0.85-1.428-1.221    c-2.48,7.403-3.33,15.229-2.54,22.927c1.438-0.65,2.789-1.549,3.971-2.73C55.824,98.208,55.821,89.712,50.581,84.472z"></path><circle fill-rule="evenodd" clip-rule="evenodd" cx="63.067" cy="115.934" r="13.417"></circle><path fill-rule="evenodd" clip-rule="evenodd" d="M116.5,150.392c-5.236-5.24-13.731-5.24-18.971,0    c-1.264,1.263-2.216,2.72-2.872,4.272c7.833,0.876,15.81,0.059,23.353-2.453C117.564,151.573,117.071,150.959,116.5,150.392z"></path><path fill-rule="evenodd" clip-rule="evenodd" d="M139.246,62.091c-21.256-21.259-55.722-21.259-76.98,0    c-5.617,5.617-9.735,12.16-12.384,19.132c0.532,0.755,1.132,1.474,1.805,2.146c5.106,5.105,12.741,6.139,18.874,3.101    c-3.039,6.133-2.009,13.768,3.098,18.874c5.108,5.105,12.74,6.136,18.873,3.097c-3.039,6.133-2.008,13.768,3.101,18.877    c5.106,5.105,12.744,6.136,18.877,3.097c-3.038,6.133-2.008,13.768,3.098,18.877c0.81,0.811,1.687,1.519,2.612,2.126    c6.933-2.649,13.439-6.756,19.027-12.344C160.504,117.816,160.504,83.35,139.246,62.091z M77.976,79.052    c1.827-3.685,2.186-7.915,1.067-11.813c3.191,1.158,6.637,1.427,9.947,0.801c-0.629,3.307-0.36,6.752,0.798,9.945    C85.89,76.87,81.664,77.224,77.976,79.052z M99.953,101.025c1.824-3.688,2.182-7.914,1.063-11.812    c3.193,1.159,6.639,1.428,9.945,0.8c-0.626,3.308-0.357,6.753,0.802,9.946C107.867,98.844,103.639,99.198,99.953,101.025z     M121.924,123c1.828-3.688,2.182-7.917,1.066-11.813c3.193,1.159,6.639,1.428,9.945,0.801c-0.627,3.308-0.361,6.752,0.801,9.945    C129.838,120.818,125.612,121.172,121.924,123z"></path></g></g><text transform="matrix(1 0 0 1 213.6714 116.3525)" stroke="#FFFFFF" stroke-miterlimit="10" font-family="'BebasNeue'" font-size="84.4061" fill="#000000">TECNO - ZACHÍN</text><text transform="matrix(1 0 0 1 218.7539 159.1841)" font-family="'HelveticaNeueLTStd-Bd'" font-size="33.8776" letter-spacing="6">FADU - UBA -2015</text></svg>