<svg xmlns="http://www.w3.org/2000/svg" xmlns:xlink="http://www.w3.org/1999/xlink" version="1.1" x="0px" y="0px" viewBox="0 0 85.04 85.04" enable-background="new 0 0 85.04 85.04" xml:space="preserve"><g><path d="M76.416,36.416c-4.113-0.231-6.51-0.824-11.977-1.101c-8.133-0.405-11.727,0.522-14.84,1.907   c-1.975,0.878-4.365,3.146-6.738,3.423v-0.011c-2.338-0.334-4.685-2.551-6.623-3.412c-3.117-1.385-6.71-2.312-14.84-1.907   c-5.469,0.276-8.211,0.879-11.978,1.101c-0.005,0-0.477,1.784-0.137,3.144c0.319,1.292,1.123,1.724,1.671,3.571   c0.509,1.7,0.962,4.748,3.113,8.58c2.542,4.525,6.687,5.633,11.347,5.763c3.449,0.102,5.728-0.355,8.165-1.931   c2.291-1.479,3.12-3.202,4.05-5.467c0.531-1.286,1.067-2.619,1.755-3.828s1.638-2.337,3.035-2.702   c0.153-0.04,0.292-0.02,0.441-0.044v-0.009c0.183,0.021,0.355,0.002,0.556,0.053c1.395,0.364,2.346,1.493,3.034,2.702   c0.686,1.209,1.225,2.542,1.754,3.828c0.93,2.265,1.762,3.987,4.051,5.467c2.439,1.575,4.719,2.032,8.164,1.931   c4.658-0.13,8.805-1.237,11.346-5.763c2.154-3.832,2.605-6.88,3.115-8.58c0.551-1.848,1.35-2.279,1.672-3.571   C76.891,38.2,76.42,36.416,76.416,36.416z M36.583,47.713c-0.658,2.426-1.595,5.2-3.827,6.631   c-1.946,1.244-4.231,1.596-6.491,1.628c-0.069,0-0.141,0-0.21,0c-2.905,0-6.347-0.542-8.562-2.581   c-1.872-1.723-3.28-4.261-3.893-6.729c-0.513-2.06-0.871-4.751,0.193-6.685c0.962-1.74,5.508-2.393,7.833-2.522   c4.676-0.266,12.66-0.011,14.941,3.008C38.206,42.625,37.293,45.094,36.583,47.713z M72.236,46.662   c-0.613,2.468-2.021,5.006-3.893,6.729c-2.217,2.039-5.656,2.581-8.562,2.581c-0.068,0-0.141,0-0.209,0   c-2.262-0.032-4.545-0.384-6.492-1.628c-2.232-1.431-3.17-4.205-3.826-6.631c-0.711-2.619-1.625-5.088,0.014-7.25   c2.281-3.019,10.264-3.273,14.941-3.008c2.326,0.13,6.869,0.782,7.832,2.522C73.105,41.911,72.748,44.603,72.236,46.662z"></path></g></svg>