<svg xmlns="http://www.w3.org/2000/svg" xmlns:xlink="http://www.w3.org/1999/xlink" version="1.1" x="0px" y="0px" viewBox="0 0 560.494 791.981" enable-background="new 0 0 560.494 791.981" xml:space="preserve"><g><g><g><path stroke="#FFFFFF" stroke-width="0.0826" d="M276.16,388.866c0,0-0.254,0.024-0.696,0.029     c-1.495-0.695-12.014-6.447-8.228-29.106c0,0-2.404-4.569-6.38-5.337c0,0-5.167,30.523,14.41,34.444     c-3.699-0.013-17.558-1.467-16.042-22.682c0,0-3.023-5.214-7.74-6.882C251.485,359.331,252.225,395.947,276.16,388.866z      M277.198,388.78c0,0-5.898-14.155-0.317-31c0,0-0.506-3.504-2.811-7.322C274.07,350.458,258.039,373.263,277.198,388.78z      M282.204,389.026c-0.432-0.092-0.675-0.165-0.675-0.165c21.925,11.645,30.426-24.052,30.426-24.052     c-4.971,0.704-9.038,5.212-9.038,5.212c-3.021,21.068-16.9,19.759-20.52,19.044c19.997,0.018,21.421-30.88,21.421-30.88     c-4.055-0.029-7.378,3.971-7.378,3.971C295.334,385.084,283.812,388.641,282.204,389.026z M280.532,388.574     c22.049-11.417,11.2-36.898,11.2-36.898c-3.065,3.285-4.307,6.615-4.307,6.615C289.312,375.877,280.532,388.574,280.532,388.574z      M278.791,387.719c0,0,11.758-19.354,4.88-34.916C283.671,352.803,269.496,364.726,278.791,387.719z" fill="#000000"></path></g></g><path stroke="#FFFFFF" stroke-width="0.0826" d="M249.705,421.211c5.633-12.25,19.239-8.993,26.381-1.947   C267.779,416.246,257.012,416.039,249.705,421.211z" fill="#000000"></path><path stroke="#FFFFFF" stroke-width="0.0826" d="M287.321,427.141c6.117-8.188,16.557-15.154,27.239-14.664   C300.727,403.982,289.566,415.728,287.321,427.141z" fill="#000000"></path><path stroke="#FFFFFF" stroke-width="0.0826" d="M286.499,430.866c-4.443-8.441-7.771-20.613-7.369-38.251   c0,0-0.386-0.84-0.967-0.186c0,0-2.104,14.835,2.163,30.04c-8.334-4.356-22.202-5.377-28.772-0.593   c6.907-1.325,10.73,5.188,18.193,1.844c4.212-1.885,7.937-1.249,11.163,0.696c1.836,5.789,4.646,11.543,8.9,16.464   c0,0,2.937,2.744,2.793-1.095c-1.716-1.944-3.432-4.251-5.037-6.996c1.356-2.587,4.163-4.545,9.004-5.255   c9.599-1.405,8.942-10.204,16.627-13.243C303.585,413.727,291.626,421.791,286.499,430.866z" fill="#000000"></path><path stroke="#FFFFFF" stroke-width="0.0826" d="M260.025,394.785c2.826,0.452,5.88,0.234,8.501-0.929   c1.576-0.7,4.042-2.219,6.078-1.972c-1.617-1.042-8.653-0.399-12.246-3.25c-5.617-0.742-11.788,2.332-14.374,7.272   c-0.234,0.446,3.645-2.06,3.82-2.127C254.507,392.744,257.37,394.361,260.025,394.785z" fill="#000000"></path><path stroke="#FFFFFF" stroke-width="0.0826" d="M275.87,392.331c-0.001,0.002-2.037,0.71-2.037,0.71   c-7.766,5.434-15.51,2.902-15.51,2.902c-1.832-0.599-3.815,0.371-4.842,1.814c0.004,0.001,0.009,0.004,0.015,0.006   c5.1,1.871,11.261,2.305,16.169-0.301c1.702-0.903,3.238-2.098,4.62-3.41C274.633,393.723,275.421,392.487,275.87,392.331z" fill="#000000"></path><path stroke="#FFFFFF" stroke-width="0.0826" d="M277.659,391.452c0,0-4.32,8.968-14.692,9.746   C262.968,401.198,275.603,408.466,277.659,391.452z" fill="#000000"></path><path stroke="#FFFFFF" stroke-width="0.0826" d="M307.586,401.61c-1.271-5.396-6.489-9.812-12.126-10.396   c-4.202,1.933-11.317,0.541-12.796,0.361c1.205,0.543,4.127,1.833,5.5,3.274c1.952,2.047,5.163,2.66,8.018,2.877   c2.682,0.206,5.867-0.7,8.23,0.933C304.565,398.766,307.701,402.097,307.586,401.61z" fill="#000000"></path><path stroke="#FFFFFF" stroke-width="0.0826" d="M303.153,401.776c0.007,0,0.011,0,0.017-0.002c-0.737-1.6-2.502-2.902-4.416-2.637   c0,0-8.095,1.125-14.696-5.586c0,0-1.865-1.055-1.867-1.055c0.411,0.232,0.951,1.586,1.231,1.97   c1.108,1.533,2.392,2.979,3.894,4.166C291.643,402.057,297.784,402.72,303.153,401.776z" fill="#000000"></path><path stroke="#FFFFFF" stroke-width="0.0826" d="M280.135,391.568c-0.584,17.121,13.031,11.733,13.031,11.733   C283.028,401.053,280.135,391.568,280.135,391.568z" fill="#000000"></path></g></svg>