<svg xmlns="http://www.w3.org/2000/svg" xmlns:xlink="http://www.w3.org/1999/xlink" version="1.1" x="0px" y="0px" viewBox="0 0 100 100" enable-background="new 0 0 100 100" xml:space="preserve"><g><path d="M25.337,41.969c1.054,4.545,2.85,6.896,4.564,8.102c0.564,2.236,1.825,5.528,4.424,9.051l-0.003,0.002   c0.006,0.004,0.03,0.035,0.034,0.04c0.148,0.203,0.251,0.396,0.412,0.597c0,0,1.866,2.163,4.475,4.164   c1.265,0.945,2.734,1.859,4.399,2.567c0.013,0.003,0.025,0.011,0.04,0.016c0.544,0.231,1.139,0.391,1.721,0.572   c0.85,0.22,1.656,0.394,2.4,0.513c0.374,0.057,0.737,0.137,1.128,0.162c0.142,0.019,0.294,0.037,0.434,0.053   c0.205,0.009,0.403,0.016,0.608,0.016c3.719,0,7.342-1.38,10.838-4.046c0,0,3.608-3.34,5.162-5.256   c2.307-3.286,3.491-6.343,4.022-8.448c1.71-1.206,3.509-3.556,4.563-8.102c0.613-2.635,1.072-5.962-0.817-8.346   c-0.048-0.057-0.094-0.112-0.138-0.169c1.693-16.694-9.007-25.128-15.291-27.324l-0.092-0.029l-0.089-0.026   C55.767,5.363,53.486,5,51.362,5c-0.496,0-0.967,0.022-1.417,0.057C49.484,5.019,49.009,5,48.535,5   c-2.127,0-4.408,0.363-6.777,1.075L41.67,6.104l-0.087,0.028c-6.287,2.195-16.985,10.63-15.292,27.321   c-0.047,0.057-0.094,0.113-0.136,0.169C24.263,36.006,24.723,39.333,25.337,41.969z M30.359,35.908   c0.366,0,0.664,0.149,0.664,0.149c-0.01-0.044-0.01-0.078-0.016-0.118l0.155,0.142l1.774,5.513c0,0-1.19-15.478,7.144-16.668   c0,0,28.244,10.007,29.198,8.204c-0.1,0.95-0.21,1.904-0.406,2.927c0,0,0.301-0.149,0.666-0.149   c0.782,0.001,1.849,0.696,0.829,5.082c-1.312,5.643-3.544,5.989-4.071,5.989c-0.075,0-0.112-0.006-0.112-0.006   s-0.281,5.291-5.15,10.995c-0.002,0.044-0.006,0.093-0.009,0.136c-3.788,3.854-7.652,5.723-11.527,5.577   c-4.819-0.201-8.626-3.487-10.518-5.479c0-0.029-0.006-0.074-0.006-0.103c-4.968-5.756-5.259-11.126-5.259-11.126   s-0.044,0.006-0.115,0.006c-0.53,0-2.759-0.347-4.07-5.989C28.511,36.603,29.578,35.908,30.359,35.908z"></path><path d="M93.183,82.664c-3.941-10.386-10.61-12.814-15.977-13.772c-4.481-0.804-10.067-2.472-12.043-3.56L54.651,82.939   l-1.575-6.902c1.85-1.067,3.107-3.041,3.107-5.334c0-0.253-0.044-0.495-0.075-0.743c-1.89,0.527-3.925,0.828-6.058,0.828   c-2.17,0-4.238-0.313-6.154-0.853c-0.031,0.255-0.077,0.505-0.077,0.769c0,2.292,1.258,4.267,3.106,5.334l-1.575,6.905   L34.825,65.341c-1.984,1.079-7.554,2.749-12.03,3.551c-5.37,0.958-12.038,3.387-15.975,13.77c-0.67,1.767-0.431,3.681,0.652,5.252   C11.518,93.77,32.834,95,49.998,95c17.171,0,38.484-1.23,42.527-7.088C93.61,86.341,93.849,84.427,93.183,82.664z"></path><path d="M47.229,54.223c0,0,2.026-0.798,2.771-2.778c0.744,1.98,2.771,2.778,2.771,2.778c7.694,3.09,10.858-2.967,10.858-2.967   c0.242-0.409,0.214-0.791,0.08-0.882c-0.216-0.144-0.715,0.366-0.715,0.366c-0.986,0.859-2.41,1.136-2.41,1.136   c-2.916,0.5-5.21-2.064-5.21-2.064c-1.543-1.535-2.695-1.974-3.544-1.903c-1.032,0.085-1.56,0.505-1.829,0.943   c-0.271-0.438-0.799-0.857-1.831-0.943c-0.849-0.071-2.002,0.368-3.542,1.903c0,0-2.295,2.564-5.209,2.064   c0,0-1.426-0.276-2.412-1.136c0,0-0.5-0.51-0.715-0.366c-0.134,0.091-0.163,0.473,0.079,0.882   C36.37,51.256,39.535,57.313,47.229,54.223z"></path></g></svg>