<svg xmlns="http://www.w3.org/2000/svg" xmlns:xlink="http://www.w3.org/1999/xlink" version="1.1" x="0px" y="0px" viewBox="0 0 90 90" enable-background="new 0 0 90 90" xml:space="preserve"><polygon fill="#000000" points="210.055,395.395 207.448,434.809 232.893,436.492 232.959,435.493 235.5,397.077 "></polygon><polygon fill="#000000" points="218.416,395.842 203.876,432.568 227.585,441.955 227.954,441.025 242.125,405.229 "></polygon><polygon fill="#000000" points="212.896,394.438 206.7,433.449 231.883,437.449 232.04,436.461 238.08,398.438 "></polygon><rect x="207.559" y="397.729" fill="#000000" stroke="#1D1D1B" stroke-width="2" stroke-miterlimit="10" width="23.5" height="37.5"></rect><line fill="#000000" stroke="#1D1D1B" stroke-miterlimit="10" x1="217.001" y1="432.031" x2="217.001" y2="420.513"></line><line fill="#000000" stroke="#1D1D1B" stroke-miterlimit="10" x1="223.001" y1="432.031" x2="223.001" y2="401.644"></line><line fill="#000000" stroke="#1D1D1B" stroke-miterlimit="10" x1="225.876" y1="432.031" x2="225.876" y2="401.644"></line><polygon fill="#000000" points="210.275,428.322 212.417,427.085 214.559,428.322 214.559,430.795 212.417,432.031 210.275,430.795   "></polygon><text transform="matrix(0 -1 1 0 213.5005 430.2695)" fill="#000000" font-family="'Futura-CondensedMedium'" font-size="3.4893">A</text><path d="M45.029,27.354c-12,0-26.864,3.721-26.58,15.042c0.234,9.353,7.473,15.609,11.705,14.57c2.052-0.504,3.49-2.691,4.174-5.848  c1.185-1.416,3.313-2.554,5.953-3.182c3.558-0.586,6.442-0.559,9.431,0.004c2.656,0.634,4.793,1.785,5.968,3.216  c0.687,3.134,2.121,5.308,4.166,5.81c4.231,1.039,11.484-5.218,11.705-14.57C71.824,30.785,57.145,27.354,45.029,27.354z   M30.114,44.779c-2.814,0-5.094-2.282-5.094-5.095s2.28-5.093,5.094-5.093c2.812,0,5.093,2.28,5.093,5.093  S32.926,44.779,30.114,44.779z M64.13,33.626c0.969,0,1.754,0.785,1.754,1.754c0,0.967-0.785,1.753-1.754,1.753  c-0.969,0-1.753-0.786-1.753-1.753C62.377,34.411,63.162,33.626,64.13,33.626z M54.263,32.862l3.662-1.6  c0.175-0.078,0.392,0.023,0.48,0.227c0.087,0.205,0.018,0.433-0.158,0.509l-3.662,1.603c-0.176,0.077-0.393-0.026-0.481-0.23  C54.015,33.167,54.086,32.939,54.263,32.862z M51.799,40.65c0-1.052,0.852-1.904,1.903-1.904c1.053,0,1.904,0.853,1.904,1.904  c0,1.051-0.852,1.903-1.904,1.903C52.65,42.554,51.799,41.701,51.799,40.65z M56.705,47.921c-1.274,0-2.306-1.033-2.306-2.305  c0-1.273,1.032-2.307,2.306-2.307c1.272,0,2.304,1.033,2.304,2.307C59.009,46.888,57.978,47.921,56.705,47.921z M57.225,37.775  c0-1.016,0.825-1.839,1.839-1.839c1.015,0,1.838,0.823,1.838,1.839c0,1.017-0.823,1.838-1.838,1.838  C58.05,39.613,57.225,38.792,57.225,37.775z M62.066,45.046c-1.273,0-2.305-1.031-2.305-2.305c0-1.274,1.032-2.307,2.305-2.307  c1.273,0,2.305,1.032,2.305,2.307C64.371,44.015,63.339,45.046,62.066,45.046z M67.321,42.554c-1.273,0-2.308-1.032-2.308-2.306  c0-1.272,1.035-2.306,2.308-2.306c1.271,0,2.305,1.033,2.305,2.306C69.626,41.521,68.592,42.554,67.321,42.554z"></path></svg>