<svg xmlns="http://www.w3.org/2000/svg" xmlns:xlink="http://www.w3.org/1999/xlink" version="1.1" x="0px" y="0px" viewBox="0 0 90 90" enable-background="new 0 0 90 90" xml:space="preserve"><polygon fill="#000000" points="210.055,395.395 207.448,434.809 232.893,436.492 232.959,435.493 235.5,397.077 "></polygon><polygon fill="#000000" points="218.416,395.842 203.876,432.568 227.585,441.955 227.954,441.025 242.125,405.229 "></polygon><polygon fill="#000000" points="212.896,394.438 206.7,433.449 231.883,437.449 232.04,436.461 238.08,398.438 "></polygon><rect x="207.559" y="397.729" fill="#000000" stroke="#1D1D1B" stroke-width="2" stroke-miterlimit="10" width="23.5" height="37.5"></rect><line fill="#000000" stroke="#1D1D1B" stroke-miterlimit="10" x1="217.001" y1="432.031" x2="217.001" y2="420.514"></line><line fill="#000000" stroke="#1D1D1B" stroke-miterlimit="10" x1="223.001" y1="432.031" x2="223.001" y2="401.645"></line><line fill="#000000" stroke="#1D1D1B" stroke-miterlimit="10" x1="225.876" y1="432.031" x2="225.876" y2="401.645"></line><polygon fill="#000000" points="210.275,428.322 212.417,427.085 214.559,428.322 214.559,430.795 212.417,432.031 210.275,430.795   "></polygon><text transform="matrix(0 -1 1 0 213.501 430.2695)" fill="#000000" font-family="'Futura-CondensedMedium'" font-size="3.4893">A</text><path d="M69.682,42.2c-0.203-0.836-0.406-1.582-0.609-2.246c0-0.016,0.002-0.029,0.002-0.045c0-2.929-1.518-5.5-3.809-6.978v-0.987  c0-1.983-1.85-3.592-4.133-3.592h-0.975c-2.281,0-4.131,1.608-4.131,3.592v1.164c-0.164,0.114-0.324,0.234-0.479,0.361H34.453  c-0.156-0.127-0.315-0.247-0.48-0.361v-1.164c0-1.983-1.849-3.592-4.131-3.592h-0.974c-2.283,0-4.133,1.608-4.133,3.592v0.987  c-2.291,1.478-3.809,4.049-3.809,6.978c0,0.016,0,0.029,0,0.045c-0.201,0.664-0.404,1.41-0.607,2.246  c-2.371,9.725-3.258,17.2,2.645,19.297c2.881,1.023,6.62-3.266,9.258-9.78c1.038,1.312,2.641,2.153,4.441,2.153  c2.382,0,4.419-1.474,5.255-3.558h6.162c0.836,2.084,2.875,3.558,5.258,3.558c1.799,0,3.402-0.842,4.441-2.153  c2.637,6.515,6.377,10.804,9.258,9.78C72.939,59.4,72.051,51.925,69.682,42.2z M27.641,35.792h2.831v2.141l-1.448,1.447  l-1.383-1.447V35.792z M26.867,41.589h-2.14v-2.833h2.14l1.45,1.383L26.867,41.589z M30.472,44.452h-2.831v-2.14l1.383-1.449  l1.448,1.449V44.452z M31.246,41.589l-1.45-1.45l1.45-1.383h2.14v2.833H31.246z M36.98,51.042c-1.984,0-3.594-1.607-3.594-3.594  c0-1.984,1.61-3.593,3.594-3.593c1.985,0,3.594,1.608,3.594,3.593C40.574,49.435,38.965,51.042,36.98,51.042z M41.305,40.863h-2.37  V39.38h2.37V40.863z M48.482,40.863V39.38l2.701,0.759L48.482,40.863z M53.125,51.042c-1.986,0-3.594-1.607-3.594-3.594  c0-1.984,1.607-3.593,3.594-3.593s3.594,1.608,3.594,3.593C56.719,49.435,55.111,51.042,53.125,51.042z M56.721,41.826  c-0.955,0-1.727-0.773-1.727-1.727c0-0.954,0.771-1.727,1.727-1.727c0.953,0,1.727,0.772,1.727,1.727  C58.447,41.053,57.674,41.826,56.721,41.826z M60.838,45.945c-0.955,0-1.727-0.774-1.727-1.728s0.771-1.727,1.727-1.727  c0.953,0,1.727,0.773,1.727,1.727S61.791,45.945,60.838,45.945z M60.838,37.709c-0.955,0-1.727-0.772-1.727-1.726  c0-0.954,0.771-1.729,1.727-1.729c0.953,0,1.727,0.774,1.727,1.729C62.564,36.937,61.791,37.709,60.838,37.709z M64.955,41.826  c-0.953,0-1.727-0.772-1.727-1.727s0.773-1.727,1.727-1.727s1.727,0.772,1.727,1.727S65.908,41.826,64.955,41.826z"></path></svg>