<svg xmlns="http://www.w3.org/2000/svg" xmlns:xlink="http://www.w3.org/1999/xlink" version="1.1" x="0px" y="0px" viewBox="0 0 90 90" enable-background="new 0 0 90 90" xml:space="preserve"><polygon fill="#000000" points="210.055,395.395 207.448,434.809 232.893,436.492 232.959,435.493 235.5,397.077 "></polygon><polygon fill="#000000" points="218.416,395.842 203.876,432.568 227.585,441.955 227.954,441.025 242.125,405.229 "></polygon><polygon fill="#000000" points="212.896,394.438 206.7,433.449 231.883,437.449 232.04,436.461 238.08,398.438 "></polygon><rect x="207.559" y="397.729" fill="#000000" stroke="#1D1D1B" stroke-width="2" stroke-miterlimit="10" width="23.5" height="37.5"></rect><line fill="#000000" stroke="#1D1D1B" stroke-miterlimit="10" x1="217.001" y1="432.031" x2="217.001" y2="420.514"></line><line fill="#000000" stroke="#1D1D1B" stroke-miterlimit="10" x1="223.001" y1="432.031" x2="223.001" y2="401.645"></line><line fill="#000000" stroke="#1D1D1B" stroke-miterlimit="10" x1="225.876" y1="432.031" x2="225.876" y2="401.645"></line><polygon fill="#000000" points="210.275,428.322 212.417,427.085 214.559,428.322 214.559,430.795 212.417,432.031 210.275,430.795   "></polygon><text transform="matrix(0 -1 1 0 213.501 430.2695)" fill="#000000" font-family="'Futura-CondensedMedium'" font-size="3.4893">A</text><path d="M60.141,25.599c0,0-0.686,1.238-1.315,1.301l-1.034-1.071c0,0-7.178,2.833-12.79,2.833c-5.614,0-12.79-2.833-12.79-2.833  l-1.036,1.071c-0.63-0.062-1.313-1.301-1.313-1.301c-9.223,3.324-15.088,40.343-2.753,38.753l6.825-8.746c0,0,0-0.006-0.001-0.008  c3.16,2.004,6.967,3.176,11.068,3.176c4.1,0,7.907-1.172,11.067-3.176c0,0.002-0.001,0.008-0.001,0.008l6.825,8.746  C75.227,65.941,69.362,28.923,60.141,25.599z M26.628,37.021c0-1.649,1.34-2.988,2.99-2.988c1.651,0,2.989,1.339,2.989,2.988  c0,1.652-1.338,2.991-2.989,2.991C27.968,40.012,26.628,38.673,26.628,37.021z M33.389,51.965c-2.138,0-3.872-1.732-3.872-3.871  s1.734-3.872,3.872-3.872c2.139,0,3.872,1.733,3.872,3.872S35.527,51.965,33.389,51.965z M41.896,53.43  c-0.863,0-1.564-0.525-1.564-1.174s0.701-1.172,1.564-1.172c0.865,0,1.565,0.523,1.565,1.172S42.761,53.43,41.896,53.43z   M58.417,29.97c0.513-0.185,1.145,0.27,1.411,1.012s0.067,1.493-0.447,1.678c-0.512,0.184-1.143-0.271-1.409-1.012  C57.705,30.904,57.904,30.154,58.417,29.97z M56.355,33.18c0.764-0.274,1.703,0.398,2.1,1.504c0.396,1.104,0.1,2.221-0.664,2.495  s-1.702-0.4-2.098-1.502C55.296,34.571,55.594,33.454,56.355,33.18z M56.227,37.807c0.763-0.273,1.701,0.4,2.099,1.504  c0.396,1.104,0.099,2.221-0.665,2.496c-0.763,0.272-1.703-0.399-2.099-1.504C55.166,39.199,55.462,38.081,56.227,37.807z   M48.219,53.43c-0.865,0-1.564-0.525-1.564-1.174s0.699-1.172,1.564-1.172c0.863,0,1.564,0.523,1.564,1.172  S49.082,53.43,48.219,53.43z M56.664,51.084c-1.649,0-2.988-1.34-2.988-2.99s1.339-2.989,2.988-2.989c1.651,0,2.99,1.339,2.99,2.989  S58.315,51.084,56.664,51.084z M61.57,44.07c-0.762,0.275-1.701-0.399-2.098-1.505c-0.396-1.104-0.1-2.22,0.664-2.493  c0.763-0.274,1.702,0.399,2.1,1.504C62.631,42.681,62.334,43.797,61.57,44.07z M61.768,39.493c-0.764,0.272-1.703-0.4-2.1-1.505  c-0.396-1.104-0.1-2.222,0.664-2.495c0.763-0.274,1.701,0.398,2.099,1.503C62.826,38.101,62.529,39.219,61.768,39.493z   M63.242,34.858c-0.512,0.184-1.144-0.269-1.408-1.011c-0.268-0.743-0.069-1.495,0.445-1.679c0.513-0.183,1.145,0.27,1.41,1.011  C63.957,33.924,63.757,34.675,63.242,34.858z"></path></svg>