<svg xmlns="http://www.w3.org/2000/svg" xmlns:xlink="http://www.w3.org/1999/xlink" version="1.1" x="0px" y="0px" viewBox="0 0 90 90" enable-background="new 0 0 90 90" xml:space="preserve"><polygon fill="#000000" points="210.055,395.395 207.448,434.809 232.893,436.492 232.959,435.493 235.5,397.077 "></polygon><polygon fill="#000000" points="218.416,395.842 203.876,432.568 227.585,441.955 227.954,441.025 242.125,405.229 "></polygon><polygon fill="#000000" points="212.896,394.438 206.7,433.449 231.883,437.449 232.04,436.461 238.08,398.438 "></polygon><rect x="207.559" y="397.729" fill="#000000" stroke="#1D1D1B" stroke-width="2" stroke-miterlimit="10" width="23.5" height="37.5"></rect><line fill="#000000" stroke="#1D1D1B" stroke-miterlimit="10" x1="217.001" y1="432.031" x2="217.001" y2="420.513"></line><line fill="#000000" stroke="#1D1D1B" stroke-miterlimit="10" x1="223.001" y1="432.031" x2="223.001" y2="401.644"></line><line fill="#000000" stroke="#1D1D1B" stroke-miterlimit="10" x1="225.876" y1="432.031" x2="225.876" y2="401.644"></line><polygon fill="#000000" points="210.275,428.322 212.417,427.085 214.559,428.322 214.559,430.795 212.417,432.031 210.275,430.795   "></polygon><text transform="matrix(0 -1 1 0 213.5005 430.2695)" fill="#000000" font-family="'Futura-CondensedMedium'" font-size="3.4893">A</text><path d="M70.724,36.169c0-3.269-1.66-6.149-4.183-7.846c0.063-0.475-0.141-1.039-0.524-1.324c-2.804-2.051-5.97-2.891-9.232-2.203  c-0.019,0.003-0.039,0.01-0.057,0.016c-1.425-2.351-4.007-3.922-6.956-3.922H40.23c-2.949,0-5.532,1.571-6.956,3.922  c-0.019-0.006-0.038-0.013-0.057-0.016c-3.262-0.688-6.428,0.152-9.233,2.203c-0.383,0.285-0.586,0.85-0.523,1.324  c-2.524,1.696-4.185,4.577-4.185,7.846c0,1.161,0.211,2.274,0.595,3.302c-0.379,1.792-0.595,3.843-0.595,6.021  c0,7.01,2.227,12.692,4.971,12.692c2.635,0,4.789-5.238,4.957-11.859l0.011,0.03c5.324-0.409,6.523,1.268,6.531,1.279  C38.178,58.11,41.552,69.11,45,69.11c3.449,0,6.823-11,9.254-21.476c0.007-0.012,1.208-1.688,6.53-1.279l0.012-0.03  c0.168,6.621,2.323,11.859,4.958,11.859c2.746,0,4.97-5.683,4.97-12.692c0-2.179-0.214-4.229-0.593-6.021  C70.514,38.443,70.724,37.33,70.724,36.169z M32.849,38.562h-3.053v3.057h-2.967v-3.057h-3.055v-2.967h3.055v-3.054h2.967v3.054  h3.053V38.562z M45,37.079c1.112,0,2.014,0.901,2.014,2.013c0,1.112-0.901,2.013-2.014,2.013c-1.111,0-2.013-0.9-2.013-2.013  C42.987,37.98,43.889,37.079,45,37.079z M45,52.763c-1.392,0-2.52-1.127-2.52-2.52c0-1.391,1.128-2.518,2.52-2.518  c1.392,0,2.52,1.127,2.52,2.518C47.521,51.636,46.393,52.763,45,52.763z M55.132,40.83c-1.111,0-2.013-0.9-2.013-2.013  c0-1.111,0.901-2.013,2.013-2.013c1.112,0,2.012,0.901,2.012,2.013C57.144,39.93,56.244,40.83,55.132,40.83z M58.856,44.69  c-1.112,0-2.013-0.9-2.013-2.013c0-1.111,0.9-2.012,2.013-2.012c1.111,0,2.012,0.9,2.012,2.012  C60.868,43.79,59.967,44.69,58.856,44.69z M59.67,37.083c-0.792,0-1.434-0.641-1.434-1.434c0-0.792,0.642-1.432,1.434-1.432  c0.793,0,1.433,0.64,1.433,1.432C61.103,36.442,60.463,37.083,59.67,37.083z M63.087,40.501c-0.79,0-1.433-0.642-1.433-1.434  s0.643-1.434,1.433-1.434c0.792,0,1.434,0.642,1.434,1.434S63.88,40.501,63.087,40.501z M63.087,33.666  c-0.79,0-1.433-0.642-1.433-1.435c0-0.79,0.643-1.433,1.433-1.433c0.792,0,1.434,0.643,1.434,1.433  C64.521,33.024,63.88,33.666,63.087,33.666z M66.505,37.083c-0.791,0-1.433-0.641-1.433-1.434c0-0.792,0.642-1.432,1.433-1.432  c0.792,0,1.435,0.64,1.435,1.432C67.94,36.442,67.297,37.083,66.505,37.083z"></path></svg>