<svg xmlns="http://www.w3.org/2000/svg" xmlns:xlink="http://www.w3.org/1999/xlink" version="1.1" x="0px" y="0px" viewBox="0 0 100 100" enable-background="new 0 0 100 100" xml:space="preserve"><path d="M45.874,92.034c0,0-62.562-39.362-37.238-69.879c24.106-29.051,38.401,7.377,38.401,7.377s15.064-29.32,35.598-11.129  C120.996,52.387,45.874,92.034,45.874,92.034z"></path><path stroke="#FFFFFF" stroke-miterlimit="10" d="M42.793,85.592c0,0-53.017-32.115-30.226-59.581  C34.263-0.135,46.854,36.292,46.854,36.292S60.687,6.263,79.166,22.634C113.691,53.219,42.793,85.592,42.793,85.592z" fill="#000000"></path><path fill="none" d="M0,55.979c0,0,3.664-11.605,19.821-12.253c16.157-0.645,32.962,12.253,50.628,10.965  c17.667-1.293,19.176-12.253,19.176-12.253"></path><text transform="matrix(1.2712 -0.4123 0.3085 0.9512 10.8345 45.4722)" fill="#000000" font-family="'OldEnglishTextMT'" font-size="6.6199">c</text><text transform="matrix(1.3117 -0.2557 0.1913 0.9815 13.4961 44.5859)" fill="#000000" font-family="'OldEnglishTextMT'" font-size="6.6199">e</text><text transform="matrix(1.3314 -0.1153 0.0863 0.9963 16.8301 43.9502)" fill="#000000" font-family="'OldEnglishTextMT'" font-size="6.6199">c</text><text transform="matrix(1.3364 -0.0041 0.0031 1 19.6689 43.7065)" fill="#000000" font-family="'OldEnglishTextMT'" font-size="6.6199">i</text><text transform="matrix(1.3334 0.0903 -0.0676 0.9977 22.064 43.7017)" fill="#000000" font-family="'OldEnglishTextMT'" font-size="6.6199"></text><text transform="matrix(1.3208 0.2038 -0.1525 0.9883 24.209 43.7998)" fill="#000000" font-family="'OldEnglishTextMT'" font-size="6.6199">n</text><text transform="matrix(1.3033 0.2957 -0.2213 0.9752 28.5864 44.5137)" fill="#000000" font-family="'OldEnglishTextMT'" font-size="6.6199">’</text><text transform="matrix(1.2885 0.3547 -0.2654 0.9641 30.9546 45.0415)" fill="#000000" font-family="'OldEnglishTextMT'" font-size="6.6199">e</text><text transform="matrix(1.2732 0.4062 -0.304 0.9527 34.2803 45.9561)" fill="#000000" font-family="'OldEnglishTextMT'" font-size="6.6199">s</text><text transform="matrix(1.2643 0.4332 -0.3242 0.946 38.0605 47.1738)" fill="#000000" font-family="'OldEnglishTextMT'" font-size="6.6199">t</text><text transform="matrix(1.2607 0.4436 -0.3319 0.9433 40.4009 47.9771)" fill="#000000" font-family="'OldEnglishTextMT'" font-size="6.6199"></text><text transform="matrix(1.2598 0.4461 -0.3338 0.9426 42.5278 48.7275)" fill="#000000" font-family="'OldEnglishTextMT'" font-size="6.6199">p</text><text transform="matrix(1.265 0.4312 -0.3227 0.9465 46.2598 50.0547)" fill="#000000" font-family="'OldEnglishTextMT'" font-size="6.6199">a</text><text transform="matrix(1.2765 0.3956 -0.296 0.9552 50.0166 51.3408)" fill="#000000" font-family="'OldEnglishTextMT'" font-size="6.6199">s</text><text transform="matrix(1.2897 0.3504 -0.2622 0.965 53.9482 52.5449)" fill="#000000" font-family="'OldEnglishTextMT'" font-size="6.6199"></text><text transform="matrix(1.3061 0.2832 -0.2119 0.9773 56.2676 53.2051)" fill="#000000" font-family="'OldEnglishTextMT'" font-size="6.6199">u</text><text transform="matrix(1.3269 0.1593 -0.1192 0.9929 60.9609 54.2207)" fill="#000000" font-family="'OldEnglishTextMT'" font-size="6.6199">n</text><text transform="matrix(1.3358 0.0397 -0.0297 0.9996 65.71 54.7324)" fill="#000000" font-family="'OldEnglishTextMT'" font-size="6.6199"></text><text transform="matrix(1.3348 -0.0665 0.0498 0.9988 68.2012 54.8125)" fill="#000000" font-family="'OldEnglishTextMT'" font-size="6.6199">c</text><text transform="matrix(1.3217 -0.1976 0.1479 0.989 71.4531 54.6582)" fill="#000000" font-family="'OldEnglishTextMT'" font-size="6.6199">o</text><text transform="matrix(1.2844 -0.3691 0.2762 0.9611 75.7666 53.9844)" fill="#000000" font-family="'OldEnglishTextMT'" font-size="6.6199">e</text><text transform="matrix(1.1869 -0.6143 0.4597 0.8881 79.7578 52.8467)" fill="#000000" font-family="'OldEnglishTextMT'" font-size="6.6199">u</text><text transform="matrix(0.9736 -0.9155 0.685 0.7285 84.4561 50.2349)" fill="#000000" font-family="'OldEnglishTextMT'" font-size="6.6199">r</text></svg>