<svg xmlns="http://www.w3.org/2000/svg" xmlns:xlink="http://www.w3.org/1999/xlink" version="1.1" x="0px" y="0px" viewBox="0 0 100 100" enable-background="new 0 0 100 100" xml:space="preserve"><g><ellipse cx="49.924" cy="55.736" rx="8.459" ry="8.446"></ellipse><path d="M90.029-0.384H10c-5.523,0-10,4.478-10,10v79.978c0,5.523,4.477,10,10,10h80.029c5.527,0,10.006-4.477,10.006-10V9.616   C100.035,4.094,95.557-0.384,90.029-0.384z M15.002,29.256c-0.457-1.062,0.074-4.327,0.986-5.618   c0.914-1.291,6.377-5.696,8.885-6.912c2.508-1.214,5.402,0.912,5.402,0.912l4.639,6c-7.299,2.428-14.518,11.691-14.518,11.691   S15.459,30.319,15.002,29.256z M49.924,83.141c-15.457,0-27.979-12.527-27.979-27.962c0-14.697,11.363-26.734,25.799-27.846v-4.249   h-4.818v-7.015h13.458v7.015h-4.283v4.249c14.432,1.111,25.801,13.148,25.801,27.846C77.902,70.613,65.375,83.141,49.924,83.141z    M85.035,29.258c-0.457,1.062-5.398,6.073-5.398,6.073s-7.223-9.264-14.521-11.691l4.639-6c0,0,2.895-2.128,5.404-0.914   c2.508,1.219,7.975,5.623,8.887,6.914C84.959,24.929,85.49,28.194,85.035,29.258z"></path></g></svg>