<svg xmlns="http://www.w3.org/2000/svg" xmlns:xlink="http://www.w3.org/1999/xlink" version="1.1" x="0px" y="0px" viewBox="0 0 100 100" enable-background="new 0 0 100 100" xml:space="preserve"><path fill="#000000" stroke="#000000" stroke-miterlimit="10" d="M-19.309-17.621"></path><g><g><path fill="#000000" d="M50.861,77.41c0.037-0.094,0.074-0.19,0.118-0.306c0.2-0.575,0.469-1.398,0.725-2.386    c0.536-1.976,0.982-4.611,1.191-7.25c0.111-1.319,0.162-2.641,0.175-3.878c-0.002-1.238-0.188-2.396-0.481-3.391    c-0.29-0.993-0.724-1.825-1.066-2.406c-0.359-0.582-0.659-0.916-0.659-0.916l-0.696-0.008c3.42-0.004,6.183-0.415,6.183-3.733    c0-1.854-0.865-2.682-2.224-3.051c0.161-0.41,0.378-0.944,0.649-1.582c0.673-0.851,1.153-1.868,1.349-2.999    c1.794-3.807,4.589-9.028,8.335-13.899c6.697-8.708,16.775-16.159,11.966-16.325c-5.354-0.188-20.623-0.085-34.871-0.003    c-6.516,0.039-12.82,0.072-17.863,0.072c-4.735,0,3.762,7.145,10.607,15.946c3.952,5.08,7.403,10.688,9.668,14.621    c0.296,1.248,0.925,2.35,1.792,3.201c0.194,0.358,0.361,0.668,0.502,0.932c-1.44,0.352-2.367,1.168-2.367,3.087    c0,3.267,2.681,3.714,6.024,3.73l-0.291-0.004c0,0-0.308,0.327-0.679,0.9c-0.356,0.574-0.812,1.395-1.124,2.381    c-0.315,0.987-0.529,2.14-0.559,3.379c-0.017,1.237,0.003,2.56,0.084,3.88c0.147,2.645,0.533,5.29,1.021,7.277    c0.233,0.993,0.482,1.821,0.671,2.401c0.044,0.124,0.082,0.231,0.12,0.333c-10.635,0.184-18.835,3.381-18.835,7.441    c0,1.337,0.847,2.265,2.514,2.758c1.242,0.367,3.001,0.53,5.7,0.53c1.512,0,3.197-0.048,5.008-0.102    c2.138-0.063,4.349-0.127,6.695-0.127c2.355,0,4.656,0.067,6.686,0.127c1.787,0.054,3.443,0.102,4.927,0.102    c3.9,0,8.061-0.254,8.061-3.288C69.916,80.769,61.603,77.554,50.861,77.41z"></path><path fill="#000000" stroke="#121211" stroke-miterlimit="10" d="M50.861,77.41c0.037-0.094,0.074-0.19,0.118-0.306    c0.2-0.575,0.469-1.398,0.725-2.386c0.536-1.976,0.982-4.611,1.191-7.25c0.111-1.319,0.162-2.641,0.175-3.878    c-0.002-1.238-0.188-2.396-0.481-3.391c-0.29-0.993-0.724-1.825-1.066-2.406c-0.359-0.582-0.659-0.916-0.659-0.916l-0.696-0.008    c3.42-0.004,6.183-0.415,6.183-3.733c0-1.854-0.865-2.682-2.224-3.051c0.161-0.41,0.378-0.944,0.649-1.582    c0.673-0.851,1.153-1.868,1.349-2.999c1.794-3.807,4.589-9.028,8.335-13.899c6.697-8.708,16.775-16.159,11.966-16.325    c-5.354-0.188-20.623-0.085-34.871-0.003c-6.516,0.039-12.82,0.072-17.863,0.072c-4.735,0,3.762,7.145,10.607,15.946    c3.952,5.08,7.403,10.688,9.668,14.621c0.296,1.248,0.925,2.35,1.792,3.201c0.194,0.358,0.361,0.668,0.502,0.932    c-1.44,0.352-2.367,1.168-2.367,3.087c0,3.267,2.681,3.714,6.024,3.73l-0.291-0.004c0,0-0.308,0.327-0.679,0.9    c-0.356,0.574-0.812,1.395-1.124,2.381c-0.315,0.987-0.529,2.14-0.559,3.379c-0.017,1.237,0.003,2.56,0.084,3.88    c0.147,2.645,0.533,5.29,1.021,7.277c0.233,0.993,0.482,1.821,0.671,2.401c0.044,0.124,0.082,0.231,0.12,0.333    c-10.635,0.184-18.835,3.381-18.835,7.441c0,1.337,0.847,2.265,2.514,2.758c1.242,0.367,3.001,0.53,5.7,0.53    c1.512,0,3.197-0.048,5.008-0.102c2.138-0.063,4.349-0.127,6.695-0.127c2.355,0,4.656,0.067,6.686,0.127    c1.787,0.054,3.443,0.102,4.927,0.102c3.9,0,8.061-0.254,8.061-3.288C69.916,80.769,61.603,77.554,50.861,77.41z"></path></g><g><g><g><g><path fill="#000000" d="M43.503,41.12c0,3.588,2.909,6.496,6.496,6.496c3.588,0,6.497-2.908,6.497-6.496       s-2.909-6.497-6.497-6.497c-1.63,0-3.118,0.6-4.259,1.591C44.369,37.405,43.503,39.161,43.503,41.12z"></path><path fill="#000000" stroke="#FDFBFB" stroke-miterlimit="10" d="M43.503,41.12c0,3.588,2.909,6.496,6.496,6.496       c3.588,0,6.497-2.908,6.497-6.496s-2.909-6.497-6.497-6.497c-1.63,0-3.118,0.6-4.259,1.591       C44.369,37.405,43.503,39.161,43.503,41.12z"></path></g><g><polyline fill="#000000" points="46.599,35.587 38.256,14.297 59.705,14.175      "></polyline><polyline fill="#000000" stroke="#FDFBFB" stroke-miterlimit="10" points="46.599,35.587 38.256,14.297 59.705,14.175      "></polyline></g></g><g><line fill="#000000" x1="52.72" y1="35.583" x2="60.272" y2="14.178"></line><line fill="#000000" stroke="#FDFBFB" stroke-miterlimit="10" x1="52.72" y1="35.583" x2="60.272" y2="14.178"></line></g></g></g></g></svg>