<svg xmlns="http://www.w3.org/2000/svg" xmlns:xlink="http://www.w3.org/1999/xlink" version="1.1" x="0px" y="0px" viewBox="0 0 100 100" enable-background="new 0 0 100 100" xml:space="preserve"><g><path d="M25,43.943c1.394,0,2.634-0.497,4.072-1.072c1.674-0.669,3.572-1.428,5.928-1.428s4.254,0.759,5.928,1.428   c1.438,0.575,2.678,1.072,4.072,1.072s2.634-0.497,4.072-1.072c1.674-0.669,3.572-1.428,5.928-1.428s4.254,0.759,5.928,1.428   c1.438,0.575,2.678,1.072,4.072,1.072s2.634-0.497,4.072-1.072c1.674-0.669,3.572-1.428,5.928-1.428s4.254,0.759,5.928,1.428   c1.008,0.403,1.919,0.757,2.853,0.939l3.72-16.117H73.75v-3.128c0.085,0.003,0.173,0.016,0.259,0.016   c4.331,0,6.216-4.438,6.607-6.785c0.031-0.181-0.021-0.366-0.14-0.506c-0.117-0.141-0.293-0.221-0.476-0.221   c-2.034,0-3.555,0.427-4.697,1.064c-0.503-2.49-2.241-4.497-2.334-4.602c-0.117-0.134-0.288-0.212-0.466-0.212   c-0.001,0-0.002,0-0.002,0c-0.178,0-0.349,0.076-0.466,0.21c-1.346,1.514-2.117,3.058-2.314,4.606   c-1.145-0.644-2.672-1.078-4.719-1.078c-0.183,0-0.359,0.081-0.476,0.221c-0.12,0.14-0.171,0.326-0.14,0.506   c0.392,2.346,2.276,6.784,6.607,6.785h0.001c0.084,0,0.172-0.012,0.258-0.016v3.141h-17.5v-3.279   c0.454,0.1,0.898,0.154,1.323,0.154c3.623,0,5.21-3.697,5.542-5.652c0.032-0.182-0.039-0.367-0.159-0.508   c-0.117-0.142-0.312-0.222-0.497-0.222c-3.828,0-5.487,1.825-6.21,3.393v-4.751c0.786-0.229,1.479-0.615,2.047-1.201   c1.872-1.929,1.8-5.08,1.796-5.212c-0.006-0.185-0.093-0.356-0.235-0.47c-0.143-0.115-0.331-0.162-0.512-0.125   c-3.965,0.785-5.596,2.874-5.596,5.374v2.643c-0.725-1.569-2.393-3.4-6.252-3.4c-0.183,0.001-0.358,0.082-0.476,0.222   c-0.117,0.142-0.168,0.327-0.137,0.508c0.332,1.955,1.919,5.651,5.542,5.652c0.425,0,0.869-0.054,1.323-0.154v7.029H28.787   c0.132-4.352,0.593-6.165,0.859-6.521c0.081-0.083,0.128-0.183,0.181-0.281c0.179,0.007,0.371,0.036,0.544,0.036   c8.901,0,9.004-9.389,9.004-9.484c0-0.166-0.066-0.325-0.183-0.442s-0.276-0.183-0.442-0.183c-3.979,0-6.925,1.062-8.752,3.157   c-1.452,1.665-1.851,3.59-1.938,4.873C27.8,17.153,26.5,12.806,20,12.806c-0.183,0-0.359,0.081-0.476,0.221   c-0.12,0.14-0.171,0.326-0.14,0.506c0.392,2.346,2.276,6.784,6.607,6.785h0.001c0.433,0,0.887-0.055,1.349-0.143   c-0.432,0.903-0.926,2.865-1.057,7.518H15l3.284,14.233c0.954,0.271,1.826,0.618,2.644,0.945   C22.366,43.447,23.606,43.943,25,43.943z"></path><path d="M55,43.943c-3.75,0-6.25,2.5-10,2.5s-6.25-2.5-10-2.5s-6.25,2.5-10,2.5s-6.25-2.5-10-2.5s-6.25,2.5-10,2.5v7.5   c3.75,0,6.25-2.5,10-2.5s6.25,2.5,10,2.5s6.25-2.5,10-2.5s6.25,2.5,10,2.5s6.25-2.5,10-2.5s6.25,2.5,10,2.5s6.25-2.5,10-2.5   s6.25,2.5,10,2.5s6.25-2.5,10-2.5v-7.5c-3.75,0-6.25,2.5-10,2.5s-6.25-2.5-10-2.5s-6.25,2.5-10,2.5S58.75,43.943,55,43.943z"></path><path d="M83.633,76.878c-0.714-1.043-3.796,2.025-5.061,2.025c-1.012,0-3.965-2.025-8.098-2.025c-6.074,0-9.11,2.573-9.11,4.05   c0,1.476,3.036,4.048,9.11,4.048c4.133,0,7.086-2.024,8.098-2.024c1.265,0,4.347,3.069,5.061,2.024   c0.549-0.801-1.013-2.403-1.013-4.048C82.62,79.283,84.182,77.68,83.633,76.878z M66.576,81.719c-0.688,0-1.25-0.559-1.25-1.249   c0-0.69,0.562-1.25,1.25-1.25c0.692,0,1.25,0.56,1.25,1.25C67.826,81.16,67.268,81.719,66.576,81.719z"></path><path d="M57.496,61.878c-0.714-1.043-3.795,2.025-5.06,2.025c-1.013,0-3.965-2.025-8.098-2.025c-6.074,0-9.111,2.573-9.111,4.05   c0,1.476,3.037,4.048,9.111,4.048c4.133,0,7.085-2.024,8.098-2.024c1.265,0,4.346,3.069,5.06,2.024   c0.55-0.801-1.012-2.403-1.012-4.048C56.484,64.283,58.046,62.68,57.496,61.878z M40.439,66.719c-0.688,0-1.25-0.559-1.25-1.249   c0-0.69,0.562-1.25,1.25-1.25c0.692,0,1.25,0.56,1.25,1.25C41.689,66.16,41.132,66.719,40.439,66.719z"></path><path d="M38.746,81.878c-0.714-1.043-3.795,2.025-5.06,2.025c-1.013,0-3.965-2.025-8.098-2.025c-6.074,0-9.111,2.573-9.111,4.05   c0,1.476,3.037,4.048,9.111,4.048c4.133,0,7.085-2.024,8.098-2.024c1.265,0,4.346,3.069,5.06,2.024   c0.55-0.801-1.012-2.403-1.012-4.048C37.734,84.283,39.296,82.68,38.746,81.878z M21.689,86.719c-0.688,0-1.25-0.559-1.25-1.249   c0-0.69,0.562-1.25,1.25-1.25c0.692,0,1.25,0.56,1.25,1.25C22.939,86.16,22.382,86.719,21.689,86.719z"></path></g></svg>