<svg xmlns="http://www.w3.org/2000/svg" xmlns:xlink="http://www.w3.org/1999/xlink" version="1.1" x="0px" y="0px" viewBox="0 0 100 100" enable-background="new 0 0 100 100" xml:space="preserve"><g><path d="M46.543,47.5c0-11.25-10-16.25-10-16.25H21.545c0,0-10.002,5-10.002,16.25v45c0,1.381,1.118,2.5,2.5,2.5h30   c1.382,0,2.5-1.119,2.5-2.5C46.543,90.793,46.543,55.675,46.543,47.5z"></path><path d="M76.03,12.605H64.803L74.98,7.856c0.75-0.349,1.074-1.24,0.725-1.992C75.451,5.32,74.91,5,74.346,5   c-0.213,0-0.428,0.044-0.633,0.139c0,0-16.428,7.698-16.462,7.723c-0.417,0.266-0.71,0.711-0.71,1.242   c0,0.53,0.293,0.977,0.71,1.243c0.034,0.024,16.462,7.72,16.462,7.72c0.205,0.096,0.42,0.142,0.633,0.142   c0.564,0,1.105-0.322,1.359-0.866c0.35-0.75,0.025-1.644-0.725-1.992l-10.178-4.746H76.03c0.83,0,1.501-0.672,1.501-1.5   C77.531,13.273,76.86,12.605,76.03,12.605z"></path><path d="M49.041,27.5c-4.658-2.9-6.912-6.613-7.5-8.75h0.41h3.34v-0.195V8.75h-9.803h-3.535h-7.072h-0.84   c-0.84,0-1.648,0.097-2.42,0.275c-5.301,1.23-8.828,6.442-8.828,12.225h8.75v7.5h14.998c0-2.127-0.286-3.645-0.135-4.94   c0.037-0.323,0.093-0.637,0.197-0.938c1.123,3.198,6.712,6.724,9.49,7.092C46.25,29.984,46.404,30,46.541,30   C49.539,30,49.754,27.941,49.041,27.5z"></path><path d="M51.541,14.002c0-1.243,1.008-2.252,2.248-2.252c0.088,0,0.168,0.017,0.252,0.026V8.75h-6.25v10h6.25v-2.525   c-0.084,0.01-0.164,0.025-0.252,0.025C52.549,16.25,51.541,15.242,51.541,14.002z"></path><polygon points="78.13,64.348 78.13,37.5 61.609,37.5 61.609,64.348 51.281,64.348 69.865,85 88.457,64.348  "></polygon></g></svg>