<svg xmlns="http://www.w3.org/2000/svg" xmlns:xlink="http://www.w3.org/1999/xlink" version="1.1" x="0px" y="0px" viewBox="0 0 100 100" enable-background="new 0 0 100 100" xml:space="preserve"><g><path fill="#000000" d="M53.75,39.311c-1.336,0-2.59,0.52-3.535,1.465l-5.303,5.303l7.07,7.07l5.305-5.303   c0.943-0.942,1.463-2.2,1.463-3.535c0-1.336-0.52-2.591-1.463-3.535C56.343,39.83,55.088,39.311,53.75,39.311z"></path><path fill="#000000" d="M85,38.418c-1.025-0.467-2.717-0.22-3.75-1.25c-0.73-0.732-1.25-1.924-1.25-2.5c0-1.25-1.25-2.5-2.5-2.5H75   c0-3.098,5.635-1.475,6.25-2.5c0.34-0.562,0-1.25-1.25-1.25c-0.73,0-5.311,0-6.25,0c-3.098,0-3.75,5-3.75,5   c-2.065,0-2.5-3.75-2.5-3.75c-3.75,3.75,0,6.25,0,6.25c-1.25,1.25-6.25-3.418-16.25-4.668S30,32.5,25,35   c-2.029,1.014-8.75,5-8.75,10c0,3.154,0,11.25,0,11.25L15,60l3.75,3.75c0.078-2.344,0-11.25,0-16.25c0-2.5,2.5-3.75,2.5-3.75   s0,15.405,0,22.5c0,2.363,5,12.5,5,12.5h5c0,0-2.5-5.137-2.5-7.5c0-1.724,2.5-5,2.5-5s8.41,2.5,10,2.5   c6.25,0,16.25-1.25,16.25-1.25l1.25,6.25l3.75,5h3.75l-2.5-6.25c0,0,1.008-6.543,2.5-7.5c6.836-4.387,7.557-7.949,8.75-12.832   c0.938-3.84,3.709-6.25,5-6.25c2.065,0,3.967-0.217,5-1.25s1.25-5,1.25-5C86.25,39.097,85.645,38.709,85,38.418z M59.055,49.613   l-6.13,6.128l-5.361,5.363c-2.927,2.928-7.679,2.928-10.605,0c-2.93-2.93-2.93-7.678,0-10.607l4.419-4.417v-0.002l7.07-7.07   c2.93-2.93,7.678-2.93,10.607,0c1.463,1.465,2.195,3.384,2.195,5.303S60.518,48.15,59.055,49.613z"></path><path d="M50,5C25.187,5,5,25.187,5,50s20.187,45,45,45s45-20.187,45-45S74.813,5,50,5z M81.105,75.109L70.659,64.882   c-0.834,0.689-1.771,1.386-2.862,2.096c-0.172,0.278-0.38,0.826-0.591,1.52l10.517,10.297C70.526,85.725,60.756,90,50,90   c-22.056,0-40-17.944-40-40c0-10.454,4.035-19.979,10.625-27.113l8.169,8c1.712-0.521,3.642-0.999,5.724-1.395L24.242,19.432   C31.207,13.553,40.194,10,50,10c22.056,0,40,17.944,40,40C90,59.504,86.662,68.24,81.105,75.109z"></path></g></svg>