<?xml version="1.0" encoding="utf-8"?><!DOCTYPE svg PUBLIC "-//W3C//DTD SVG 1.1//EN" "http://www.w3.org/Graphics/SVG/1.1/DTD/svg11.dtd"><svg version="1.1" xmlns="http://www.w3.org/2000/svg" xmlns:xlink="http://www.w3.org/1999/xlink" x="0px" y="0px" viewBox="0 0 96.769 100" enable-background="new 0 0 96.769 100" xml:space="preserve"><polygon fill="#010101" points="37.21,65.818 47.302,75.911 32.367,80.381 "></polygon><path fill="#010101" d="M88.958,16.492l-19.369,19.37v-9.594c0,0,0-10.989-10.989-10.989c0,0-5.223,0-11.539,0
	c0.194-0.874,0.306-1.776,0.306-2.707C47.366,5.64,41.727,0,34.793,0S22.22,5.64,22.22,12.572c0,0.93,0.108,1.834,0.301,2.707
	c-4.095,0-11.533,0-11.533,0S0,15.279,0,26.268v62.743C0,89.011,0,100,10.988,100h47.611c0,0,10.989,0,10.989-10.989V51.48
	l27.181-27.179L88.958,16.492z M34.793,8.2c2.411,0,4.372,1.962,4.372,4.374s-1.961,4.372-4.372,4.372
	c-2.411,0-4.373-1.961-4.373-4.372S32.382,8.2,34.793,8.2z M58.015,47.435L42.033,63.418l7.808,7.809l8.175-8.175v26.286H11.57
	V25.493h14.616L20.733,36.71l28.857,0.07L43.64,25.493h14.376L58.015,47.435L58.015,47.435z"></path></svg>