<svg xmlns:dc="http://purl.org/dc/elements/1.1/" xmlns:cc="http://creativecommons.org/ns#" xmlns:rdf="http://www.w3.org/1999/02/22-rdf-syntax-ns#" xmlns:svg="http://www.w3.org/2000/svg" xmlns="http://www.w3.org/2000/svg" xmlns:sodipodi="http://sodipodi.sourceforge.net/DTD/sodipodi-0.dtd" xmlns:inkscape="http://www.inkscape.org/namespaces/inkscape" viewBox="0 0 80 80" version="1.1" x="0px" y="0px"><path style="opacity:0.97000002;fill:#000000;stroke:#000000;stroke-width:0.0047348" d="m 43.501057,13.547264 c 3e-5,-0.553912 -0.0183,-1.107311 -0.0732,-1.660335 0.0808,-0.712113 0.0808,-1.439377 -0.0152,-2.1514908 -0.0505,-0.23232 -0.16667,-0.444439 -0.14142,-0.68686 -0.0101,-1.313117 -0.0808,-2.626233 -0.0555,-3.93935 -0.0101,-0.439389 0.0253,-0.883828 -0.0505,-1.318167 -0.14141,-0.353531 -0.36868,-0.757567 -0.76766,-0.853525 -0.41414,-0.101009 -0.82828,-0.227271 -1.25757,-0.247472 -1.37877,-0.126262 -2.76259,-0.121211 -4.14136,-0.101009 -0.62121,0.005 -1.22221,0.156564 -1.81816,0.303027 -0.42929,0.07071 -0.69697,0.439389 -0.97474,0.732315 -0.15656,0.368682 -0.0556,0.79292 -0.0909,1.181804 0.0404,1.434328 -0.0808,2.878756 0.0909,4.308032 -0.0303,0.186867 -0.17677,0.33838 -0.18182,0.540398 -0.0252,0.5454488 -0.0909,1.1009978 0.0303,1.6413958 0.0606,0.156564 0.20201,0.257573 0.32322,0.368683 -0.13636,0.272724 -0.32827,0.540397 -0.28787,0.863626 0.0657,0.22727 0.17676,0.439389 0.23737,0.67171 -0.11616,0.11616 -0.27777,0.217169 -0.31313,0.393935 -0.11111,0.292926 0.14142,0.510095 0.26263,0.747466 -0.11616,0.156564 -0.25253,0.297976 -0.34343,0.474742 0,0.373733 0.101,0.752517 0.0101,1.12625 -0.10101,0.646457 -0.0707,1.297965 -0.0758,1.944422 0.0202,0.979787 -0.0909,1.954524 -0.005,2.92926 0.0505,0.388885 -0.0505,0.772719 0,1.156553 0.0253,0.272724 0.11111,0.555549 0.0202,0.823223 -0.13636,0.44949 0.14141,0.924232 -0.0505,1.35857 -0.12626,0.272724 0.0152,0.5606 0.0858,0.828274 0.0303,0.323228 -0.14646,0.616154 -0.13636,0.934333 0,0.757567 0,1.515134 0.0707,2.272701 0.0303,2.070684 0.0353,4.141367 -0.0354,6.212051 -0.005,6.31306 0.0101,12.62612 -0.005,18.93918 -0.0657,1.116149 -0.005,2.237348 -0.10605,3.3535 0.0152,0.41413 0.16161,0.81312 0.23232,1.22221 0.75251,3.62622 1.50503,7.25244 2.2525,10.87866 0.6313,3.10603 1.31311,6.20195 1.89896,9.31303 -0.0152,0.24242 0.19697,0.35858 0.36869,0.46464 0.46969,-0.5101 0.41413,-1.27272 0.6111,-1.89897 1.22726,-6.35346 2.56563,-12.68168 3.86359,-19.01999 0.12626,-0.67676 0.34343,-1.34342 0.32828,-2.040379 0.0152,-3.207034 -0.0303,-6.419119 0.0252,-9.626153 0.0556,-2.449468 0.0101,-4.893884 0.0253,-7.343352 0.0202,-1.46463 -0.0606,-2.92926 -0.0505,-4.393889 0.005,-2.191895 -0.005,-4.38884 0,-6.580734 0.0909,-0.606054 0.15657,-1.227259 0.11111,-1.843414 -0.0253,-0.33838 -0.11616,-0.68181 -0.0455,-1.02524 0.10606,-0.959586 -0.0505,-1.934322 0.096,-2.888857 -0.0707,-0.838374 0.0606,-1.671698 0.0404,-2.510072 -0.0253,-1.030292 0.10101,-2.060583 -0.0253,-3.085824 0.0126,-0.921707 0.0631,-1.845722 0.0631,-2.768908 z m -0.59343,-3.6350598 c -0.0252,0.5555488 -0.0505,1.1161488 -0.0555,1.6716978 -0.94444,-0.04545 -1.87877,-0.23232 -2.8232,-0.252522 -0.97474,-0.03535 -1.95453,-0.11111 -2.92926,-0.02525 -0.67171,0.0505 -1.34847,0.08586 -2.02018,0.126261 -0.21212,-0.05555 -0.5202,0.131312 -0.39899,0.388884 0.0152,0.131312 0.14646,0.212119 0.26768,0.232321 0.78787,0.07576 1.57068,-0.03535 2.3535,-0.08586 1.85352,-0.12121 3.70198,0.07071 5.54035,0.287876 0.0152,0.616155 0.0152,1.232309 0.0152,1.853514 -0.88888,-0.0202 -1.77271,-0.12121 -2.66159,-0.176765 -0.84847,-0.03535 -1.69695,0.09596 -2.54037,0.03535 -0.90909,-0.05051 -1.82827,-0.07576 -2.72725,0.09596 -0.13131,0.02525 -0.25252,0.101009 -0.36868,0.166665 0.0152,-0.308077 0.0303,-0.621205 0.0556,-0.929282 0.18181,0.136362 0.37373,0.282825 0.61615,0.242421 0.44444,-0.0404 0.5707,-0.732315 0.19697,-0.954534 -0.24747,-0.227271 -0.57575,-0.01515 -0.81312,0.111109 0.0101,-1.01514 0,-2.025229 0.0657,-3.0353188 2.74239,-0.242421 5.49994,-0.05556 8.22718,0.247472 z m -0.0454,6.1059918 c -0.0758,1.666647 -0.0556,3.333295 -0.0556,4.999943 -2.3232,0.0404 -4.64641,-0.121211 -6.96962,-0.156564 -0.45454,0.0051 -0.91413,-0.0101 -1.36867,0.04545 0.0455,-1.333318 0.0556,-2.666636 0.0707,-3.999955 0.096,1.015141 0.0657,2.030281 0.10101,3.045421 0.005,0.161614 0.12121,0.328279 0.29292,0.34848 0.13132,0.0051 0.31313,-0.05555 0.32323,-0.212118 0.0606,-1.151502 0.0354,-2.308055 -0.0404,-3.459557 -0.0404,-0.343431 -0.45959,-0.252523 -0.65656,-0.09091 0.005,-0.171715 0.0101,-0.510095 0.0152,-0.681811 0.60606,0.07071 1.21211,0.01515 1.81816,-0.0202 2.15654,-0.08081 4.31814,0.02525 6.46963,0.181816 z m -0.005,-1.222209 c -0.005,0.136362 -0.0152,0.419187 -0.0202,0.55555 -1.75756,-0.11111 -3.52017,-0.21717 -5.28277,-0.196968 -0.99494,0.01515 -1.99998,-0.0202 -2.97472,0.191917 -0.005,-0.272724 -0.0101,-0.550499 -0.0101,-0.823223 0.33838,0.262623 0.80302,0.121211 1.19696,0.11616 1.1818,-0.106059 2.36866,0.06061 3.55551,-0.02525 1.18181,-0.05555 2.36361,0.07071 3.53532,0.181816 z m -0.0455,6.87871 c -0.005,0.212119 -0.0101,0.429288 -0.0202,0.641407 -0.601,0.01515 -1.20201,0.0202 -1.80301,0.01515 -1.14645,0.01515 -2.2828,-0.186867 -3.4242,-0.131312 -0.62626,0.02525 -1.25756,0.0505 -1.87877,-0.01515 -0.40349,-0.02017 -0.84249,-0.121373 -1.21589,0.0846 0.007,-0.258151 0.0107,-0.517247 0.009,-0.776507 2.77775,0.0202 5.55045,0.212119 8.33324,0.181816 z m -0.0303,1.313117 c -0.0151,0.11616 -0.0454,0.353531 -0.0606,0.469691 -0.85352,0.126262 -1.7121,0.202018 -2.57572,0.21717 -1.06565,-0.07071 -2.13129,-0.0404 -3.19694,-0.0051 -0.84847,0.0404 -1.702,-0.303027 -2.53532,-0.06566 0.0223,-0.443351 0.0447,-0.886169 0.0568,-1.330793 0.0788,0.127623 0.0404,0.427041 0.24115,0.472217 1.24746,0.207069 2.51513,0.11111 3.77774,0.116161 1.42928,0.12121 2.8636,0.141412 4.29288,0.126261 z m -0.0252,1.161603 0,0.752517 c -1.19696,0.07071 -2.38886,0.146463 -3.58582,0.196967 -1.37372,0.04545 -2.74744,-0.07071 -4.11612,-0.22222 -0.24747,-0.08081 -0.47474,0.0404 -0.6414,0.212119 0.005,-0.373733 0.005,-0.747466 0.005,-1.116149 0.17171,0.09596 0.35858,0.166665 0.5505,0.186867 0.87878,0.11616 1.7626,0.212118 2.64643,0.161614 0.10606,0.282825 0.27273,0.666659 0.64646,0.585852 0.31313,-0.02525 0.47979,-0.313128 0.49494,-0.601003 0.84343,-0.0303 1.68685,0.08081 2.53028,-0.01515 0.48989,-0.04545 0.97978,-0.09596 1.46968,-0.141412 z m 0,1.419176 0,1.863615 c -1.82826,0.237371 -3.67168,0.101009 -5.50499,0.191917 -0.96464,0.0101 -1.92422,-0.11111 -2.88381,-0.186867 0.005,-0.717163 0.0455,-1.434327 0.0505,-2.15149 0.14141,0.126261 0.30808,0.237371 0.51009,0.23232 2.59593,0.348481 5.22217,0.267674 7.8282,0.05051 z m -0.0101,-8.40142 c 2.9e-4,-0.191286 -0.004,-0.38194 -0.0152,-0.573226 -0.0455,-0.292926 -0.55555,-0.297977 -0.60606,-0.0051 -0.10101,0.646458 -0.0606,1.308066 -0.11111,1.959574 -0.0101,0.494944 -0.0808,0.984837 -0.0303,1.479781 0.0152,0.191917 0.24747,0.343431 0.42424,0.242422 0.23737,-0.09091 0.22222,-0.398986 0.24747,-0.616155 0,-0.828904 0.0897,-1.658441 0.0909,-2.487345 z m -0.0909,10.967047 0,15.408917 c -0.10606,3.969652 -0.0202,7.949405 -0.0556,11.919057 -0.0101,0.469692 -0.13131,0.924232 -0.22222,1.378772 -0.36868,-0.60605 -0.72221,-1.222208 -1.10604,-1.818161 -0.0556,-0.09596 -0.12627,-0.196968 -0.14142,-0.308078 0.0253,-5.97973 0,-11.95946 0.0152,-17.93919 0.096,-2.843403 0.0253,-5.686805 0.0455,-8.530207 0.48989,-0.0404 0.97474,-0.08081 1.46463,-0.11111 z m -0.0455,-18.9240278 c -2.60098,-0.22727 -5.21711,-0.469692 -7.81809,-0.212119 0.0808,-1.727253 0.0101,-3.459557 0.0404,-5.18681 0.52019,-0.368683 1.17675,-0.434338 1.7828,-0.535347 1.55554,-0.09091 3.11613,-0.0303 4.67167,0.08586 0.33333,0.06566 0.68686,0.10606 0.99494,0.262624 0.36868,0.262623 0.24747,0.747466 0.27777,1.1313 -0.0303,1.484832 0.0253,2.969663 0.0505,4.454495 z m -0.35731,4.0517218 c 10e-5,-0.04995 -0.008,-0.101641 -0.0265,-0.152776 -0.0555,-0.33333 -0.50504,-0.545449 -0.78282,-0.323229 -0.38383,0.176766 -0.32828,0.813122 0.0657,0.944434 0.32701,0.172346 0.74292,-0.118765 0.74368,-0.468429 z m -0.0164,44.265912 c -0.85857,4.26763 -1.68685,8.54031 -2.57573,12.79784 -0.13131,-0.26768 -0.26767,-0.59091 -0.6212,-0.61616 -0.41919,0.75757 -0.91918,1.49998 -1.60604,2.04543 -0.91919,-4.42419 -1.81312,-8.85848 -2.73735,-13.28268 -0.0555,-0.16161 -0.0707,-0.33838 0.0303,-0.47979 0.54039,-0.84847 1.07069,-1.702 1.61109,-2.550474 0.55555,0.535344 1.0909,1.080794 1.63129,1.631294 0.14647,0.13131 0.28283,0.32323 0.49495,0.34848 0.15656,-0.0303 0.27272,-0.15656 0.39898,-0.24747 0.65656,-0.5505 1.26766,-1.14645 1.94442,-1.671699 0.25758,0.429289 0.5202,0.853529 0.76262,1.292919 0.17172,0.28787 0.31313,0.6414 0.66666,0.73231 z m -0.48105,-40.911152 c -0.009,-0.153352 -0.13289,-0.284719 -0.27652,-0.325754 -0.19191,-0.0303 -0.37878,0.136362 -0.38383,0.333329 -0.0252,0.944434 -0.005,1.883817 -0.005,2.828251 0.0202,0.212119 -0.0152,0.439389 0.0657,0.641407 0.11616,0.121211 0.31817,0.10606 0.45454,0.171715 0.16161,-0.398985 0.13131,-0.843424 0.14141,-1.267662 -0.005,-0.757567 0.0152,-1.515134 -0.0101,-2.272702 0.0114,-0.03693 0.0159,-0.07319 0.0139,-0.108584 z m -0.91918,3.276478 c -4e-4,-0.05846 -0.009,-0.114582 -0.024,-0.162877 -0.0909,-1.035342 -0.0303,-2.080785 -0.17677,-3.106026 -0.11111,-0.308077 -0.57575,-0.196967 -0.601,0.101009 0.0202,1.035342 0.0858,2.070684 0.12121,3.111076 0.0252,0.176766 0.0152,0.459591 0.24747,0.505045 0.29545,0.102587 0.43477,-0.194901 0.43308,-0.448227 z m -0.29924,11.251135 c -6.4e-4,0.968424 -0.0101,1.936847 -0.048,2.904008 -0.0101,5.555492 -0.005,11.110985 -0.005,16.666478 0.005,1.393923 -0.11111,2.787847 -0.0202,4.186821 -0.65655,0.585852 -1.31311,1.166652 -1.98987,1.727252 -0.46969,-0.42929 -0.91413,-0.88383 -1.36867,-1.323216 -0.096,-0.11111 -0.24242,-0.217169 -0.23737,-0.378784 0.0505,-1.439377 0.0253,-2.873705 0.0303,-4.313082 l 0,-22.317929 c 1.21211,-0.0202 2.42421,-0.08081 3.63632,-0.05555 -0.005,0.96716 0.003,1.935584 0.003,2.904007 z m -1.13888,-14.504886 c -0.0253,-0.131312 -0.12626,-0.272724 -0.27777,-0.267674 -0.27778,-0.11616 -0.41414,0.186867 -0.40404,0.398985 0.0152,1.01514 -0.0606,2.02523 -0.0454,3.03532 -0.0404,0.212118 0.0757,0.464641 0.30302,0.499994 0.18182,0.005 0.33333,-0.171715 0.33838,-0.348481 0.0556,-1.100998 0.0859,-2.212096 0.0859,-3.318144 z m -1.08206,-3.527738 c -3e-4,-0.05083 -0.009,-0.102272 -0.029,-0.154039 -0.0606,-0.439389 -0.70706,-0.515145 -0.94948,-0.186866 -0.19192,0.262623 -0.0909,0.691911 0.22222,0.818172 0.32701,0.181185 0.75844,-0.121457 0.7563,-0.477267 z m -0.22979,3.881269 c -2.5e-4,-0.116298 -0.003,-0.23232 -0.006,-0.348481 -0.005,-0.333329 -0.53534,-0.368682 -0.60605,-0.05555 -0.11111,0.515146 -0.0657,1.045443 -0.10606,1.565639 -0.0152,0.626256 -0.0808,1.257562 -0.0404,1.883817 0.0353,0.196968 0.29292,0.353532 0.46464,0.207069 0.24747,-0.181817 0.15151,-0.550499 0.20707,-0.808072 0.0132,-0.813122 0.0888,-1.630328 0.0871,-2.444417 z m -1.43054,-0.499994 c -0.14647,-0.05051 -0.29293,-0.09596 -0.44949,-0.11111 -0.26768,0.171715 -0.19192,0.535347 -0.21717,0.797971 0.0101,0.823223 -0.0707,1.651496 -0.0455,2.474719 -0.0202,0.156564 0.0303,0.459591 0.24748,0.45454 0.23232,0.11111 0.37373,-0.12121 0.39898,-0.303026 0.0859,-1.100998 0.0455,-2.212097 0.0657,-3.313094 z m -0.40909,37.504626 c -0.0353,0.212119 0.0556,0.479792 -0.10606,0.656558 -0.65656,0.78282 -1.11615,1.707054 -1.702,2.545424 0.0556,-1.469678 0.0303,-2.944409 0.0353,-4.41409 l 0,-15.151343 c 0.096,-3.166631 0.0303,-6.333262 0.0505,-9.504943 0.57575,0.0101 1.14645,0.06061 1.71715,0.11616 0.005,8.585761 -0.005,17.171523 0.005,25.752234 z"></path></svg>