<svg xmlns="http://www.w3.org/2000/svg" xmlns:xlink="http://www.w3.org/1999/xlink" version="1.1" x="0px" y="0px" viewBox="0 0 100 100" enable-background="new 0 0 100 100" xml:space="preserve"><path d="M74.3,25.2l-3.7,35.9c-0.2,1.6-1.5,2.8-3.1,2.8c-1.6,0-2.9-1.2-3.1-2.8l-3.8-37.3c-0.2-1.8,1.2-3.8,3.1-3.8h7.6  c0.1,0,0.2,0.4,0.3,0.4C65.9,11.5,58.3,5.3,49.5,5.3C29.4,5.3,15.2,39,15.2,59.2s14.1,36.8,34.2,36.8s34.2-16.6,34.2-36.7  C83.7,49.3,80.3,36,74.3,25.2z M67.6,75.4c-2.4,0-4.3-1.9-4.3-4.3c0-2.4,1.9-4.3,4.3-4.3s4.3,1.9,4.3,4.3  C71.9,73.5,70,75.4,67.6,75.4z"></path></svg>