<svg xmlns="http://www.w3.org/2000/svg" xmlns:xlink="http://www.w3.org/1999/xlink" version="1.1" x="0px" y="0px" viewBox="0 0 100 100" enable-background="new 0 0 100 100" xml:space="preserve"><path d="M50,0c-25.437,0-37.04,50.003-37.04,66.604C12.959,85.05,29.541,100,50,100c20.459,0,37.042-14.95,37.042-33.396  C87.041,52.016,74.159,0,50,0z M39.488,34.323c-3.556,0-6.437-1.577-6.437-3.521s2.881-3.52,6.437-3.52  c3.561,0,6.446,1.576,6.446,3.52S43.048,34.323,39.488,34.323z M60.513,34.323c-3.561,0-6.447-1.577-6.447-3.521  s2.887-3.52,6.447-3.52c3.555,0,6.44,1.576,6.44,3.52S64.067,34.323,60.513,34.323z"></path></svg>