<svg xmlns="http://www.w3.org/2000/svg" xmlns:xlink="http://www.w3.org/1999/xlink" version="1.1" x="0px" y="0px" viewBox="0 0 100 100" enable-background="new 0 0 100 100" xml:space="preserve"><g><defs><rect id="b" x="11.5" y="2.5" width="75.87" height="95"></rect></defs><clipPath id="a"><use xlink:href="#b" overflow="visible"></use></clipPath><path clip-path="url(#a)" fill="#000000" d="M73.521,37.336c0-0.964-0.781-1.745-1.745-1.745H27.095   c-0.964,0-1.745,0.781-1.745,1.745c0,0.963,0.781,1.744,1.745,1.744h44.681C72.74,39.08,73.521,38.299,73.521,37.336    M73.521,50.001c0-0.964-0.781-1.745-1.745-1.745H27.095c-0.964,0-1.745,0.781-1.745,1.745c0,0.963,0.781,1.744,1.745,1.744h44.681   C72.74,51.745,73.521,50.964,73.521,50.001 M73.521,62.664c0-0.964-0.781-1.745-1.745-1.745H27.095   c-0.964,0-1.745,0.781-1.745,1.745c0,0.963,0.781,1.745,1.745,1.745h44.681C72.74,64.409,73.521,63.627,73.521,62.664    M73.521,75.329c0-0.964-0.781-1.745-1.745-1.745H27.095c-0.964,0-1.745,0.781-1.745,1.745c0,0.963,0.781,1.744,1.745,1.744h44.681   C72.74,77.073,73.521,76.292,73.521,75.329 M83.881,88.578c0,5.108-4.502,5.422-5.41,5.433H20.395   c-5.087,0-5.395-4.532-5.405-5.433V11.422c0-5.112,4.51-5.423,5.405-5.433h39.232l0.021,0.021v15.308   c0,0.478,0.066,1.032,0.168,1.609H27.095c-0.964,0-1.745,0.781-1.745,1.745c0,0.963,0.781,1.744,1.745,1.744h34.066   c1.298,2.062,3.558,3.792,7.38,3.792H83.75l0.131,0.131V88.578z M80.275,26.72H68.541c-5.086,0-5.394-4.507-5.404-5.401V9.514   L80.275,26.72z M87.37,88.578V28.9L63.137,4.569V4.454h-0.113L61.077,2.5H20.395c-3.076,0-8.894,1.864-8.894,8.922v77.156   c0,3.086,1.859,8.922,8.894,8.922h58.082C81.553,97.5,87.37,95.635,87.37,88.578"></path></g></svg>