<svg xmlns="http://www.w3.org/2000/svg" xmlns:xlink="http://www.w3.org/1999/xlink" version="1.1" x="0px" y="0px" viewBox="0 0 100 100" enable-background="new 0 0 100 100" xml:space="preserve"><g><path d="M75.1,38.6c-0.7-0.5-1.7-0.3-2.1,0.5c-0.9,1.5-2.7,1.5-5.4,1.4c-2.7-0.1-6.1-0.2-8,2.7c-0.4,0.6-0.4,1.2-0.2,1.8   c0.4,0.9,1.2,1.2,2.1,1.5c-1,0.3-2.4,0.1-4.2-0.1c-2.9-0.3-6.5-0.8-8.5,2.4c-0.4,0.6-0.4,1.2-0.2,1.8c0.3,0.8,1,1.1,1.8,1.3   c-1.4,0.2-3.2-0.1-5-0.4c14.2-20.6,8.3-37,8-37.7c-0.2-0.5-0.7-0.9-1.3-1c-0.6-0.1-1.1,0.2-1.4,0.7L30.4,43.9c0,0,0,0,0,0l-3.6,2.6   c-2.9,2.2-3.6,6.3-1.4,9.3l21.3,28.7c1.2,1.7,3.2,2.7,5.3,2.7c1.4,0,2.8-0.5,4-1.3l4.1-3c1.4-1.1,2.4-2.6,2.6-4.4s-0.2-3.5-1.2-4.9   L47.6,54.8c2.9,0.3,5.7,0,7.2-2.3c0.4-0.6,0.4-1.2,0.2-1.8c-0.4-0.9-1.2-1.2-2.1-1.4c1-0.2,2.3-0.1,4.1,0.1   c2.9,0.3,6.6,0.8,8.6-2.4c0.4-0.6,0.4-1.2,0.2-1.8c-0.4-0.9-1.3-1.2-2.3-1.5c1-0.3,2.3-0.3,4-0.2c2.7,0.1,6.2,0.2,8.1-2.8   C76,40,75.8,39,75.1,38.6z M51.3,18.1c0.9,5.4,1.2,17.2-8,31l-3-4.1c-1.2-1.6-3.1-2.6-5-2.7L51.3,18.1z M59.8,78.1   c-0.1,0.9-0.6,1.8-1.4,2.3l-4.1,3c-0.6,0.5-1.4,0.7-2.1,0.7c-1.1,0-2.2-0.5-2.9-1.4L28,54c-1.2-1.6-0.8-3.8,0.7-5l4.1-3   c0.6-0.5,1.4-0.7,2.1-0.7c1.1,0,2.2,0.5,2.9,1.4l21.3,28.7C59.7,76.2,59.9,77.2,59.8,78.1z"></path><path d="M52.4,79.2c0.3,0.4,0.8,0.6,1.2,0.6c0.3,0,0.6-0.1,0.9-0.3c0.7-0.5,0.8-1.4,0.4-2.1l-5.1-7.1c-0.5-0.7-1.4-0.8-2.1-0.4   c-0.7,0.5-0.8,1.4-0.4,2.1L52.4,79.2z"></path></g></svg>