<svg xmlns:dc="http://purl.org/dc/elements/1.1/" xmlns:cc="http://creativecommons.org/ns#" xmlns:rdf="http://www.w3.org/1999/02/22-rdf-syntax-ns#" xmlns:svg="http://www.w3.org/2000/svg" xmlns="http://www.w3.org/2000/svg" xmlns:sodipodi="http://sodipodi.sourceforge.net/DTD/sodipodi-0.dtd" xmlns:inkscape="http://www.inkscape.org/namespaces/inkscape" viewBox="0 0 80 80" version="1.1" x="0px" y="0px"><path style="" d="m 35.838405,4.5960746 c -6.75913,0.0524 -13.5108,2.1312 -19.03419,6.0492204 -8.1931096,5.56251 -13.6049596,14.93764 -14.4856896,24.78791 -0.34766,3.83581 0.0232,7.72957 0.92708,11.47267 1.9237,7.5905 6.53594,14.48569 12.9096496,19.06316 0.26653,0.18542 0.48672,-0.0927 0.64896,-0.27812 6.40846,-8.85365 12.82852,-17.68413 19.26017,-26.51461 0.3013,-0.46354 0.53307,-0.97343 0.44036,-1.54127 -0.0232,-11.00913 0,-22.01825 -0.0116,-33.0389604 -0.218,-0.003 -0.43671,-0.002 -0.65475,0 z m 0.0753,0.56784 c 0.0116,10.6267004 -0.0232,21.2649904 0.0116,31.8916904 -0.0695,0.53307 0.12747,1.17044 -0.23178,1.63399 -6.478,8.87683 -12.89805,17.80001 -19.38764,26.66525 -7.4050896,-5.38867 -12.3418096,-13.98738 -13.3036596,-23.08439 -1.15885,-9.16655 1.87735,-18.71551 7.9729196,-25.63388 6.14194,-7.1849002 15.48231,-11.4842504 24.93857,-11.4726604 z m 8.28871,1.97584 c -0.13579,9.6e-4 -0.27269,0.003 -0.4085,0.006 0,10.7425904 -0.0116,21.4851704 0.0116,32.2277604 -0.0348,0.82279 0.11589,1.74987 -0.48672,2.42201 -5.14532,7.05742 -10.27904,14.13803 -15.42436,21.19546 -1.29792,1.84258 -2.71172,3.61563 -3.89375,5.52774 4.80925,3.49974 10.51081,5.78268 16.42097,6.44323 4.27618,0.49831 8.62189,0.0463 12.77059,-1.03138 7.40508,-2.028 14.08009,-6.61706 18.5185,-12.89806 4.89037,-6.65183 7.20808,-15.181 6.25782,-23.39728 -0.78802,-8.03087 -4.57748,-15.74884 -10.49923,-21.24182 -6.20567,-5.88626 -14.71223,-9.3136004 -23.26691,-9.2534604 z" fill="#000000" stroke="#000000" stroke-width="0.01086427"></path></svg>