<svg xmlns="http://www.w3.org/2000/svg" xmlns:xlink="http://www.w3.org/1999/xlink" version="1.1" x="0px" y="0px" viewBox="0 0 100 100" enable-background="new 0 0 100 100" xml:space="preserve"><path d="M83.072,74.15l-3.303,3.469c0.443,0.66,0.671,1.433,0.648,2.23c-0.026,0.976-0.427,1.876-1.128,2.534  c-0.714,0.679-1.668,1.027-2.666,0.98c-0.95-0.045-1.844-0.441-2.529-1.119l-9.986,9.041c-0.017,0.015-0.036,0.02-0.054,0.032  c0.94,0.929,2.009,1.807,3.14,2.66c0.568,0.247,1.118,0.492,1.701,0.739c5.185,0.799,9.38-0.964,12.707-4.949  c0.822-1.934,1.685-3.854,2.529-5.775C84.6,80.385,83.993,77.205,83.072,74.15z"></path><path d="M20.897,17.406l5.457-0.412c-2.314-2.196-6.616-6.248-7.021-6.434c-3.474,0.984-10.622,2.523-10.663,2.636  c3.038,3.353,6.391,6.576,9.049,10.073l2.591-5.46C20.419,17.579,20.644,17.425,20.897,17.406z"></path><path d="M82.204,73.007c0.061-0.062,0.132-0.107,0.206-0.144c-1.552-2.404-3.625-4.611-4.847-7.146  c-0.613-0.358-0.912,0.058-1.506-0.261c0.134-1.188-0.128-2.034-1.593-1.906c0.357-0.609-0.047-0.927,0.251-1.506  c-1.763,0.241-1.093-0.968-2.075-1.727c0.302-0.922-0.794,0.205-1.353-0.584c0.778-1.681-0.398-1.516-1.598-1.926  c1.489-2.322-2.41-0.802-1.138-2.938c-0.586-0.277-1.088-0.38-1.512-0.254c-0.143-0.6-0.614-1.066-0.422-1.803  c-0.613-0.36-0.912,0.047-1.506-0.249c0.906-2.164-2.145-1.03-1.48-3.087c-1.316-0.425-2.341-0.971-1.936-2.067  c-0.927-0.141-2.045-0.074-1.397-1.417c-0.843-0.702-1.088,0.087-1.847-0.409c0.036-0.584-0.128-1.074-0.098-1.66  c-0.993,0.168-2.154-0.14-2.677-0.674c-1.483-1.517-21.231-21.699-25.304-25.374c-0.118,0.165-8.96,0.912-8.96,0.912  s-3.496,7.268-3.593,7.336c2.944,3.595,6.135,7.071,9.293,10.562c0.553,1.806,1.032,3.272,1.757,5.231  c1.583,0.695,3.166,1.389,4.754,2.085c3.685,3.54,6.65,7.359,10.191,10.951c3.145,3.837,7.336,7.265,9.042,11.672  c0.814,0.338,0.747,1.029,1.891,1.234c-0.098,0.502,0.201,0.86-0.251,1.5c1.86,0.312,1.255,1.579,1.297,2.604  c0.906,0.43,0.926-0.266,1.358,0.589c-1.046,1.353,0.502,1.681,0.951,2.444c-0.29,0.583-0.388,1.087-0.26,1.516  c1.133,0.303,1.378,0.959,0.756,1.943c0.231,0.671,1.602,0.88,1.258,1.772c-0.346,0.43-0.658,0.398-0.451,1.023  c0.619,0.63,1.671,0.508,0.619,2.285c0.226,0.667,1.604,0.876,1.246,1.763c-0.15,0.344-0.298,0.687-0.451,1.025  c0.421,1.459,1.233,2.766,2.285,3.979c0.019-0.022,0.028-0.05,0.051-0.069l10.503-9.509c0.287-0.261,0.73-0.24,0.995,0.044  l0.385,0.415c0.438,0.46,1.026,0.733,1.651,0.764c0.631,0.018,1.191-0.184,1.625-0.596c0.427-0.4,0.669-0.947,0.686-1.543  c0.018-0.643-0.226-1.262-0.685-1.743c-0.261-0.273-0.262-0.704-0.001-0.978L82.204,73.007z M56.358,62.583l-6.983-7.664  c-0.959-1.062-1.058-2.601-0.34-3.766c-0.432-0.551-0.579-1.285-0.385-1.983c-1.151,0.549-2.598,0.312-3.548-0.697l-18.818-19.85  c-1.174-1.24-1.153-3.172,0.025-4.291c1.203-1.127,3.115-1.041,4.298,0.205L49.412,44.39c0.868,0.921,1.084,2.216,0.655,3.286  c0.509-0.17,1.08-0.166,1.614,0.069c0.276,0.121,0.516,0.292,0.712,0.499c1.164-0.405,2.513-0.108,3.397,0.856l7.02,7.713  L56.358,62.583z M69.172,68.494l-1.732,1.579c-1.291,1.173-3.109,1.271-4.077,0.221l-3.188-3.511l6.37-5.861l3.222,3.547  C70.725,65.513,70.463,67.327,69.172,68.494z"></path><path d="M-8.75,16.914h-30.875c-1.104,0-2,0.896-2,2v28.461c0,1.104,0.896,2,2,2H-8.75c1.104,0,2-0.896,2-2V18.914  C-6.75,17.81-7.646,16.914-8.75,16.914z M-29.75,39.125c-4.004,0-7.25-3.246-7.25-7.25s3.246-7.25,7.25-7.25s7.25,3.246,7.25,7.25  S-25.746,39.125-29.75,39.125z"></path></svg>