<svg xmlns="http://www.w3.org/2000/svg" xmlns:xlink="http://www.w3.org/1999/xlink" version="1.1" x="0px" y="0px" viewBox="0 0 100 100" enable-background="new 0 0 100 100" xml:space="preserve"><path fill="#000000" d="M9.614,18.368v63.229h61.068V18.368H9.614z M67.244,71.825H13.05V22.54h54.194V71.825z"></path><polygon fill="#000000" points="31.971,5.787 30.282,17.368 33.755,17.368 34.77,10.411 88.396,18.231 81.285,66.999 71.713,65.603   71.713,75.479 83.276,77.165 92.4,14.6 "></polygon><polygon points="32.63,33.94 39.887,23.952 39.887,36.297 32.63,26.307 44.374,30.128 "></polygon><polyline points="49.519,61.218 34.833,65.983 43.905,53.493 43.905,68.935 34.833,56.442 49.519,61.218 "></polyline><polyline points="59.097,43.677 46.183,47.878 54.165,36.888 54.165,50.466 46.183,39.483 59.097,43.677 "></polyline><polyline points="28.217,38.113 18.779,41.183 24.61,33.15 24.61,43.066 18.779,35.044 28.217,38.113 "></polyline><polyline points="28.42,54.955 21.487,57.208 25.767,51.312 25.767,58.599 21.487,52.704 28.42,54.955 "></polyline><polyline points="43.134,45.75 29.482,50.192 37.92,38.576 37.92,52.933 29.482,41.318 43.134,45.75 "></polyline><polyline points="55.884,27.932 48.953,30.185 53.232,24.289 53.232,31.576 48.953,25.68 55.884,27.932 "></polyline><path d="M83.848,88.063L57.562,56.485c-1.248-1.498-3.468-1.7-4.976-0.455c-1.494,1.245-1.697,3.473-0.455,4.972l30.806,37.009  L83.848,88.063z M58.56,66.697l-5.51-6.614c-0.798-0.957-0.669-2.367,0.289-3.165c0.947-0.795,2.36-0.666,3.158,0.289l5.508,6.622  c0.788,0.947,0.657,2.368-0.289,3.156C60.758,67.777,59.347,67.648,58.56,66.697z"></path></svg>