<svg xmlns="http://www.w3.org/2000/svg" xmlns:xlink="http://www.w3.org/1999/xlink" version="1.1" x="0px" y="0px" viewBox="0 0 100 100" enable-background="new 0 0 100 100" xml:space="preserve"><g><path d="M50,0C22.386,0,0,22.386,0,50s22.386,50,50,50s50-22.386,50-50S77.614,0,50,0z M50,96C24.595,96,4,75.404,4,50   C4,24.595,24.595,4,50,4c25.404,0,46,20.595,46,46C96,75.404,75.404,96,50,96z"></path><path d="M74,45c-2.067,0-4.014,0.495-5.749,1.354l-3.918-6.056L65.767,37H66c1.104,0,2-0.896,2-2s-0.896-2-2-2H56   c-1.104,0-2,0.896-2,2s0.896,2,2,2h6.494l-0.652,1.5H39.649c0.393-2.764-1.781-4.273-2.888-5.038   c-0.282-0.194-0.572-0.395-0.701-0.523c-0.703-0.703-0.712-1.773-0.423-2.471C35.82,30.027,36.205,29.5,37,29.5h7   c0.829,0,1.5-0.671,1.5-1.5s-0.671-1.5-1.5-1.5h-7c-1.857,0-3.403,1.055-4.134,2.821c-0.818,1.974-0.386,4.28,1.074,5.74   c0.321,0.321,0.708,0.588,1.118,0.871c1.473,1.017,1.864,1.488,1.535,2.537l-3.941,8.377C30.704,45.681,28.434,45,26,45   c-7.18,0-13,5.82-13,13s5.82,13,13,13s13-5.82,13-13c0-3.641-1.5-6.927-3.912-9.287l0.884-1.878l17.011,12.378   c0.198,0.145,0.42,0.215,0.646,0.251c0.024,0.005,0.05,0.007,0.075,0.011c0.054,0.006,0.106,0.025,0.16,0.025   c0.014,0,0.026-0.004,0.04-0.005c0.016,0.001,0.03,0.005,0.046,0.005H55h6.093C61.838,65.972,67.328,71,74,71c7.18,0,13-5.82,13-13   S81.18,45,74,45z M37,58c0,6.075-4.925,11-11,11s-11-4.925-11-11s4.925-11,11-11c2.13,0,4.112,0.615,5.796,1.664L30.9,50.569   c-1.666,3.567-2.013,4.31-5.571,6.089c-0.741,0.371-1.041,1.271-0.671,2.013c0.263,0.525,0.792,0.829,1.343,0.829   c0.226,0,0.455-0.051,0.67-0.158c4.493-2.246,5.161-3.678,6.947-7.503l0.556-1.182C35.925,52.605,37,55.174,37,58z M66.825,49.673   l4.417,6.827h-8.128C63.485,53.781,64.845,51.382,66.825,49.673z M54.098,56.313L37.272,44.071l1.209-2.571h22.056L54.098,56.313z    M57.288,56.5l5.608-12.898l2.829,4.372c-2.522,2.084-4.238,5.104-4.633,8.526H57.288z M74,69c-5.565,0-10.152-4.137-10.886-9.5H74   c0.828,0,1.5-0.672,1.5-1.5c0-0.296-0.089-0.57-0.236-0.803l-0.004-0.012l-5.915-9.141C70.76,47.381,72.334,47,74,47   c6.075,0,11,4.925,11,11S80.075,69,74,69z"></path></g></svg>