<svg xmlns:dc="http://purl.org/dc/elements/1.1/" xmlns:cc="http://creativecommons.org/ns#" xmlns:rdf="http://www.w3.org/1999/02/22-rdf-syntax-ns#" xmlns:svg="http://www.w3.org/2000/svg" xmlns="http://www.w3.org/2000/svg" xmlns:sodipodi="http://sodipodi.sourceforge.net/DTD/sodipodi-0.dtd" xmlns:inkscape="http://www.inkscape.org/namespaces/inkscape" viewBox="0 0 80 80" version="1.1" x="0px" y="0px"><path style="" d="m 45.89376,31.97652 c -0.722965,1.98726 -0.403899,4.86534 -0.167822,9.28417 0.567866,-0.007 1.141044,-0.007 1.718181,0.01 0.02706,-2.44497 0.343879,-7.13951 -1.550359,-9.29416 z m -0.645317,1.70819 c -0.375185,0.52281 -0.735707,1.08644 -1.298625,1.42249 -1.01127,0.65953 -2.173459,1.03817 -3.346457,1.28065 -1.299818,0.26532 -2.596189,0.54804 -3.917852,0.67528 -3.531225,0.35195 -7.054421,0.75156 -10.58879,1.07486 -4.488982,0.34114 -13.445765,1.29663 -13.445765,1.29663 l 0.04196,1.24668 c 0,0 3.359019,-0.13405 5.030673,-0.24174 2.532296,-0.16113 5.59974,-0.32804 8.39711,-0.26972 -0.03893,0.37665 -0.07023,0.80112 -0.0979,1.17876 0.150492,0.0303 0.450873,0.0376 0.601363,0.0679 0.129823,-0.44236 0.202451,-0.90097 0.265719,-1.36056 2.654728,-0.16647 5.426968,-0.12505 8.30321,-0.21976 1.599298,0.005 3.204306,0.0677 4.806911,0.16382 1.509722,0.18435 3.082729,0.30546 4.435304,1.04889 0.338225,0.21707 0.748175,0.18538 1.126807,0.20179 -0.183693,-1.38905 -0.321465,-2.77323 -0.391585,-4.16359 -0.05821,-1.13971 0.113615,-2.26468 0.07792,-3.4024 z m -32.779297,5.66201 -1.376543,0.10389 0.02997,1.37054 1.406511,-0.0539 -0.05994,-1.42049 z m -1.532378,0.29368 c 0,0 -4.466879,0.2865 -5.823473,0.3596 C 0,40.489535 0.32914593,47.2 6.0172367,47.2 14.062909,47.40738 31.037488,46.86076 31.037488,46.86076 l 0.11388,-1.22071 c 0,0 -0.875549,-0.0371 -1.314609,-0.0759 -0.05578,-0.20347 -0.201786,-0.60336 -0.201786,-0.60336 l -0.895052,0.1918 c 0,0 6.39e-4,0.28347 0,0.41955 -0.518536,0.0904 -1.021094,0.15201 -1.554355,0.0879 -0.618386,-0.0122 -1.424342,1.111 -2.25761,-0.008 -0.405124,0.0266 -0.803596,0.11122 -1.20872,0.13785 -5.774927,0.0657 -11.433795,0.432959 -17.8000213,0.285379 C 2.4,46.4 1.1489649,41.6 5.358674,41.12283 7.2053431,40.71332 8.9860213,40.822213 10.930775,40.71726 z m 12.480787,0.87508 c -0.384638,0.82264 -0.604668,1.85337 -0.04595,2.65718 1.394233,-0.98928 4.820391,-1.31685 6.756846,-0.59536 -0.23802,-0.49387 -0.10941,-0.94159 0.02797,-1.33659 -2.092856,0.19847 -4.802652,0.77889 -6.738866,-0.72523 z m 53.217656,0.58538 c -0.02832,5e-4 -0.05719,0.002 -0.08591,0.004 -14.148131,0.36096 -28.732192,0.31855 -43.643795,0.21977 -0.534093,0.01 -1.079497,-0.0861 -1.608297,-0.008 -0.511458,0.44753 -0.235807,0.85473 -0.01199,1.14679 0.715807,-0.82789 0.907665,-0.6998 2.319544,-0.0559 1.256428,-0.0309 2.521581,0.0254 3.779998,-0.028 -2.123832,1.81484 0.752746,4.37138 2.773065,3.73205 0.191796,-0.0639 0.02597,0 0.217769,-0.25573 -3.516277,0.5754 -4.656107,-3.89896 -0.641321,-3.48431 12.109741,0.0499 24.49032,-0.44298 36.990838,-0.10988 1.043011,0.13747 1.603704,1.37742 1.400521,2.32953 -0.02934,0.52499 -0.521873,0.91873 -0.837117,1.27665 0.530606,0.22271 1.127421,0.56404 1.714185,0.27771 -0.09848,-0.49089 0.09889,-1.0484 0.191797,-1.52239 0.03895,-0.7624 -0.04734,-1.58669 -0.46551,-2.24762 -0.520083,-0.64494 -1.215565,-1.2902 -2.093784,-1.27465 z M 30.338228,41.2527 c -0.191797,0.19179 -0.314729,0.90631 -0.06393,1.34258 0.383594,0 0.260986,-0.0488 0.895053,-0.0639 -0.447527,-0.57539 -0.383594,-0.95898 -0.06393,-1.21471 -0.173007,-0.0323 -0.583916,-0.0194 -0.767188,-0.0639 z m 1.876014,0.7552 c -0.200909,-0.0109 -0.356561,0.0907 -0.62334,0.27371 0.602138,0.82548 0.917029,2.96286 0.917029,2.96286 l 0.73722,-0.30368 c 0,0 -0.341737,-1.78885 -0.409567,-2.69115 -0.281326,-0.15634 -0.465079,-0.23328 -0.621342,-0.24174 z m -4.16559,0.32765 c -0.141273,0.003 -0.237748,0.012 -0.237748,0.012 l 0.929017,2.67716 0.867082,-0.1858 C 29.46898,44.16965 29.149487,42.90296 28.893758,42.45543 28.644701,42.34481 28.284107,42.33075 28.048652,42.33556 z m -1.546363,0.004 -0.639323,0.0639 c 0,0 -0.182777,2.11804 -0.335644,3.14267 -0.122682,0.0402 -0.292017,0.0615 -0.409567,0.10789 0.413233,0.58953 1.36056,0.10788 1.36056,0.10788 l 0.02397,-3.42237 z m 20.86591,0.11987 c -0.42764,0.0247 -0.860996,0.0333 -1.288636,0.0579 0.145663,0.53476 0.324105,1.08227 0.725233,1.48642 0.389748,-0.43076 0.469666,-0.9967 0.563403,-1.54436 z m -1.686215,0.0719 c 0,0 0.383594,0.89506 0.703256,1.15079 -0.191797,-0.3836 -0.383594,-0.70326 -0.447527,-1.15079 z m 34.087912,1.15079 c -0.146194,0.0495 -0.296326,0.0916 -0.441536,0.12986 0.01474,0.15446 0.03109,0.29819 0.05195,0.44752 0.184093,-0.0291 0.372437,-0.0526 0.551416,-0.0879 l -0.16183,-0.48946 z m -43.146322,0.95698 c -0.02187,0.24768 -0.06145,0.75341 -0.06593,0.99695 -1.020174,-0.0106 -2.034278,0.1709 -3.056764,0.0579 -0.06091,-0.2096 -0.193795,-0.61735 -0.193795,-0.61735 l -0.759196,0.30168 0.0979,1.38653 c 0,0 2.952846,0.0406 4.427313,0.046 1.189874,-0.0481 2.377344,0.11278 3.566225,0.0759 9.673729,0.0525 20.200681,0.0112 30.633565,0.016 1.551286,0.0349 3.094759,-0.0497 4.639095,0.0639 0.584719,0.10452 0.818046,0.20766 1.210712,0.48548 0.218393,-0.22465 0.457359,-0.42392 0.697265,-0.63532 -0.856578,-0.45004 -1.794484,-0.67552 -2.719124,-0.93302 -0.477127,-0.12154 -0.984507,-0.0411 -1.466441,-0.0439 -10.540725,0.0767 -21.790026,0.0898 -33.130928,0.016 -0.127865,0.1918 -0.127865,0.25573 -0.25573,0.31967 -1.278646,0.57539 -2.905188,-0.3291 -3.624163,-1.53638 z m 2.109767,0.53144 c -0.233707,-0.002 -0.4671,0.0376 -0.695264,0.0919 0.321166,0.34604 1.953931,0.52944 2.337525,0.46551 1.141861,-0.0183 2.237631,0 2.237631,0 l 0,-0.40357 c 0,0 -1.008131,0.0258 -1.546363,0.018 -0.645679,-0.0116 -1.283367,2e-4 -1.913974,-0.11788 -0.139378,-0.0357 -0.279331,-0.0527 -0.419555,-0.0539 z m 36.305564,0.12986 -0.002,0.40557 c 0,0 1.520458,0.37602 2.121761,0.63333 0.422982,0.15648 0.831299,0.36746 1.276645,0.46351 0.268202,0.0464 0.411551,-0.24123 0.557406,-0.41556 -0.24651,0.0293 -0.50137,0.0977 -0.751204,0.036 -1.046796,-0.41577 -3.202606,-1.12281 -3.202606,-1.12281 z m -42.654842,0.17182 -1.02092,0.17581 -0.101892,1.19074 1.216712,-0.046 -0.0939,-1.3206 z" fill="#000000" stroke="#000000" stroke-width="0.00749207"></path></svg>