<svg xmlns="http://www.w3.org/2000/svg" xmlns:xlink="http://www.w3.org/1999/xlink" version="1.1" x="0px" y="0px" viewBox="0 0 100 75.053" enable-background="new 0 0 100 75.053" xml:space="preserve"><path d="M97.97,32.132c-0.205-4.417,0.002-17.685,0.002-17.685c0-2.924-2.145-5.243-3.426-6.629  c-0.142-0.152-0.275-0.295-0.395-0.43l-4.299-4.301L86.165,0l-1.796,1.796l3.089,3.688l0.773,0.773v8.614  c0,1.801,1.413,3.272,3.188,3.377c0,0.078,0,0.156,0,0.234c1.115,0.343,1.264,1.654,2.734,1.642  c0.025-0.625,0.055-1.254,0.065-1.865h0.364c0,0-0.193,10.5,0.006,13.993c0.348,6.113,2.671,16.191,2.431,19.358  c-0.179,2.35-3.528,2.482-4.481,1.178c-3.523-4.821,0.77-20.813-1.373-26.992c-0.211-0.606-0.744-0.949-1.796-1.172  c-5.102-1.084-11.095-0.879-19.179-0.879c-3.372,0-6.847,0.043-10.205,0.089c-3.358,0.044-6.829,0.088-10.198,0.088  c-8.718,0-18.722-0.269-27.087-2.25c0.503-1.01,0.859-2.942,0.578-4.167c-0.211-0.927-0.715-1.255-1.099-1.368l-0.333-0.099  l-0.131,0.324c-0.703,1.716-1.322,1.716-1.524,1.716c-0.656,0-1.476-0.703-2.346-1.449c-1.011-0.868-2.159-1.849-3.443-2.049  l-0.069-0.012l-0.069,0.013c-0.728,0.151-1.943,0.08-3.104-0.015c-0.68-0.056-1.382-0.114-2.024-0.114  c-1.024,0-2.272,0.124-2.854,1.081l-0.253,0.417l0.865,0.281c2.485,0.804,4.837,1.564,6.174,3.328  C11.554,21.111,10,22.629,8.497,24.1c-1.886,1.845-3.667,3.587-5.26,5.281c-0.275,0.294-0.676,0.568-1.099,0.863  c-1.071,0.739-2.406,1.657-2.09,3.337l0.056,0.139c1.496,2.297,4.828,2.609,7.891,2.609c1.163,0,2.394-0.053,3.582-0.1  c2.008-0.084,4.152-0.146,5.683-0.026c0.732,0.729,1.517,1.488,2.337,2.273c5.251,5.05,11.788,11.333,12.915,19.823  c0.435,3.285,0.389,6.174-0.489,10.602c-0.002,0-0.004,0-0.006,0l-1.207,5.5c0.152,0.562,0.854,0.982,2.252,0.293  c0.802,0.021,1.449-0.033,1.977-0.172c1.934-0.508,1.809-2.066,1.721-3.203c-0.045-0.574-0.091-1.119,0.058-1.547  c0.105-0.311,0.806-3.523,1.097-5.275c0.145-0.869,0.203-1.768,0.259-2.635c0.112-1.727,0.219-3.365,0.961-4.566  c3.158,3.213,5.377,9.629,3.43,16.078l0.016-0.006L42.561,73.4c0.003,0.502,0.495,1.006,1.812,0.734  c0.664,0.195,1.213,0.289,1.683,0.289c1.723,0,1.839-2.963,1.839-2.963c-0.231-5.703-0.664-8.99-1.153-14.328  c-0.098-1.068-0.194-2.137-0.291-3.205c1.48-0.266,2.98-0.512,4.48-0.758c3.762-0.617,7.65-1.256,11.17-2.206  c2.281,3.407,4.539,7.468,4.418,11.911c-0.027,1.096-0.383,2.076-0.756,3.113l-1.569,3.068l-2.206,4.316  c0.002,0.5,0.494,1.004,1.811,0.734c0.664,0.195,1.213,0.289,1.682,0.289c1.724,0,1.961-1.324,2.135-2.291  c0.088-0.486,0.17-0.951,0.387-1.275c0.156-0.236,0.279-0.506,0.426-0.754c0.857-1.432,1.605-3.006,2.252-4.447  c0.421-0.939,0.818-1.826,1.207-2.564c0.514-0.971,0.904-1.998,1.283-2.994c0.631-1.652,1.229-3.221,2.316-4.432  c4.117,2.365,6.473,8.121,5.595,14.455c-0.198,1.426-0.997,3.307-0.997,3.307c0.004,0.502,0.496,1.006,1.812,0.734  c0.662,0.195,1.213,0.289,1.682,0.289c0.687,0,1.135-0.211,1.439-0.525l0.006-0.002c0.002-0.002,0.004-0.008,0.006-0.01  c0.45-0.475,0.971-5.061,0.889-6.836c-0.039-0.85-0.08-1.73-0.072-2.615c0.027-2.984,0.107-6.162,0.197-9.529  c0.213-8.286,0.436-16.855-0.199-22.981c-0.111-1.071-0.429-2.077-0.707-2.962c-0.018-0.055-0.037-0.109-0.053-0.166  c1.18-0.061,2.481-0.184,2.797,0.557c0.624,1.464,0.291,12.772,0.291,13.081c-0.037,3.516-0.259,10.052,2.354,13.007  c1.582,1.789,6.783,2.195,8.596-1.268C101.54,49.546,98.229,37.794,97.97,32.132z M94.228,15.753h-0.519  c-0.274-1.418-0.979-2.407-2.646-2.434c0,0.803,0,1.605,0,2.408c-0.371-0.09-0.646-0.423-0.646-0.821v-3.268V8.833l0.887,0.888  c0.123,0.136,0.256,0.281,0.398,0.435c1.064,1.152,2.525,2.73,2.525,4.328V15.753z"></path></svg>