<svg xmlns="http://www.w3.org/2000/svg" xmlns:xlink="http://www.w3.org/1999/xlink" version="1.1" x="0px" y="0px" viewBox="0 0 100 100" enable-background="new 0 0 100 100" xml:space="preserve"><g><path d="M3.312,53.918l-1.104-0.695L1.8,52.879L1.247,52.19L0.416,50.67l-0.137-0.968L0,49.014l0.279-0.623l0.208-0.76l0.273-0.76   l0.688-1.312l0.486-0.416l1.033-0.412l0.695-0.068l2.071,0.688l2.481,1.039l0.143-1.591l0.065-0.968l0.486-1.033l0.896-0.691   l1.176-0.208l1.929-0.62l1.455-0.14l1.585-0.068l2.695-0.208l2.208,0.137l4.631-1.172l2.689-0.553l1.864-0.348l2.279-0.064   l2.072-0.208h2.279l2.28-0.14l2-0.412l3.04-0.552l3.384-0.141l1.384-0.067l1.792,0.208l2.695,0.204l2.488-0.068l1.584,0.068   l1.729-0.204h3.247l2.624,0.272l4.56,0.071c0,0,2.48,0.272,3.312,0.828c0.831,0.552,3.871,2.764,3.871,2.764   s4.137,0.344,4.969,0.412c0.831,0.068,3.592,0.828,4.007,0.899c0.416,0.068,3.937,0.137,5.04,0.273   c1.104,0.14,3.177,0.831,3.657,0.968c0.487,0.14,2.903,0.483,3.734,0.76c0.825,0.279,2,0.831,1.929,1.244   c-0.064,0.412-0.552,0.899-1.032,1.172c-0.487,0.279-1.936,1.107-1.936,1.107c-0.137,0.276-0.416,0.62-0.416,0.62   s1.104,0,1.52-0.068c0.416-0.068,1.247-0.552,1.247-0.552s0.481,0.068,0.481,0.483c0,0.413-0.137,1.449-0.208,1.933   c-0.065,0.484-1.241,1.725-1.448,2.348c-0.208,0.624-0.345,1.384-0.345,1.384s0.182-1.721,0.929-2.91   c0.754-1.191,0.572-1.786,0.572-1.786s-0.442,0.903-3.079,1.864c-2.644,0.955-6.138,2.381-7.021,2.589   c-0.883,0.207-8.833,2.718-8.833,2.718s-0.591,2.149-1.162,3.033c-0.572,0.877-1.501,2.072-1.864,2.38   c-0.364,0.309-0.624,0.881-0.624,0.881l-0.155-0.208l-0.416,0.363v-0.775l-0.253-0.261c0,0,0.824-1.763,0.98-1.916   c0.156-0.155,0.052-0.672,0.052-0.672s0.156-0.468,0.728-0.831c0.565-0.36,0.721-0.929,0.721-0.929   c0-0.208-0.616-0.156-0.616-0.156s-2.8,1.24-5.495,1.448c-2.689,0.208-8.495,0.156-9.528,0c-1.039-0.155-3.728-0.312-4.455-0.312   c-0.722,0-1.501,0.208-1.501,0.208s-0.883,0.052-1.292-0.312c-0.416-0.361-0.987-0.309-0.987-0.309s-0.884,0.62-1.656,1.191   c-0.779,0.568-1.604,0.877-1.604,0.877s-11.035,0.208-13.106-0.309c-2.072-0.517-7.664-1.556-9.067-1.607   c-1.396-0.052-7.872-1.656-8.489-1.864c-0.623-0.208-1.662-0.412-1.662-0.412s-2.072-0.725-2.793-0.725   c-0.728,0-1.247-0.363-2.021-0.468c-0.779-0.104-3.884-1.14-3.884-1.14c-1.091-0.155-2.332-1.088-2.332-1.088L3.312,53.918z"></path></g></svg>