<svg xmlns="http://www.w3.org/2000/svg" xmlns:xlink="http://www.w3.org/1999/xlink" version="1.1" x="0px" y="0px" viewBox="0 0 100 100" enable-background="new 0 0 100 100" xml:space="preserve"><g><path d="M99.271,46.805c-0.271-0.201-0.695,0-0.968-0.163c0.479-0.555,0.577-1.37,0.512-2.056   c-0.207-0.587-0.729-0.131-1.153-0.392c-0.718-0.652-2.022-0.424-2.327-1.468c-0.631-0.588-1.392-1.522-2.393-1.561   c-0.631-0.876-0.511-2.246-1.239-3.127c-0.783,0.131-0.696-1.012-1.305-1.109c-0.718-0.424-0.566-1.724-1.599-1.565   c-0.49-1.104-1.795-1.202-2.176-2.403c-1.305,0.195-0.979-1.925-2.338-1.566c-0.358-1.402-2.022-1.207-2.24-2.675   c-0.565,0.293-0.718-0.489-0.935-0.783c-0.794-0.484-1.871-0.354-2.328-1.463c-1.37,0.522-1.065-1.565-2.186-1.436   c-0.565-0.386-0.936-1.201-1.751-1.174c-0.358-0.256-0.794-1.268-1.359-0.68c-0.435-0.392-0.946-1.338-1.609-0.783   c-0.544-1.306-1.849-0.261-2.393-1.724c-0.968,0.549-1.272-1.664-2.175-0.718c-0.424-0.359-0.946-0.979-1.457-0.62   c-0.424-0.908-1.49-0.093-1.903-1.006c-0.848,0.451-1.152-1.436-1.87-0.326c-0.772,0-1.12-1.338-1.914-0.62   c-0.512-0.392-1.022-0.652-1.577-0.163c-0.663-0.032-1.207-1.109-1.903-0.392c-0.815-0.685-1.968,0.131-2.751-0.685   c-1.305,0.424-2.632,0.163-4.057,0.228c-0.794,0.816-1.946-0.032-2.632,1.012c-1.218-0.555-1.271,1.332-2.457,0.783   c-0.903,1.142-2.545,0.294-3.36,1.658c-0.305-0.13-0.696,0.294-0.881,0.614c-0.055,0.62-0.783,0.561-1.207,0.783   c-0.37,0.979-1.577,1.729-1.969,2.577c-0.783,0.522-1.696,1.012-1.969,2.023c-1.174,0.13-1,1.652-2.022,2.044   c-0.032,0.914-1.087,0.718-1.239,1.566c-0.522,0.261-1.153,0.685-1.088,1.402c-0.402,0.62-1.707,0.392-1.305,1.566   c-0.512,0.777-1.099,1.724-1.914,2.338c0.305,1.311-1.425,0.593-1.207,1.893c-0.272,0.326-0.729,0.228-0.968,0.685   c0.479,1.077-0.968,0.849-0.576,1.893c-1.001,0.163-0.631,1.561-1.664,1.729c-0.239,0.522,0,1.561-0.881,1.561   c-0.392,1.071,0.968,1.333,1.186,2.246c-4.416,3.034-7.624-2.74-11.865-3.028c-3.273-0.984-6.634-1.952-10.233-1.887   c-0.608,0.228-0.63,1.032-0.782,1.5c-1.001,5.824-1.338,12.278,0.271,18.107c0.359,1.305,1.055,2.512,1.088,3.838   c6.046-1.07,11.505-4.556,16.649-8.362c1.512-0.881,3.6-0.979,5.23-0.233c0.065,0.951-0.87,2.349,0.424,3.061   c-0.271,1.37,1.751,0.397,1.153,1.958c0.305,1.43,2.142,1.044,2.175,2.571c0.37,0.68,1.762,0.43,1.457,1.626   c0.359,0.984,1.762,0.104,1.696,1.403c1.446-0.131,0.729,2.218,2.393,1.729c0.272,0.946,0.751,1.925,1.816,1.952   c0.663,0.299,0.087,1.431,0.989,1.338c0.402,0,0.827,0.038,0.979,0.451c0.12,0.364-0.032,0.979,0.479,1.044   c0.816-0.261,1.033,0.62,1.327,1.077c0.337,0.098,0.707,0.098,1.012,0.326c0.206,1.142,1.174,1.533,2.175,1.565   c0.218,0.489,0.174,1.37,0.936,1.24c0.456-0.033,0.848,0.032,1.185,0.32c-0.064,0.359,0.022,0.751,0.359,0.843   c0.576,0.131,1.544-0.315,1.609,0.62c0.055,0.951,1.262,0.561,1.87,0.887c-0.141,1.821,2.36-0.093,2.187,1.625   c0.543,0.457,1.631-0.685,1.294,0.718c0.25,0.425,0.826-0.064,1.25,0c0.175,0.326,0.142,0.783,0.653,0.686l1.098-0.299   c0.239,0.233,0.065,1.142,0.631,0.69l1.033-0.522c0.087,1.533,1.577-0.424,1.87,0.783c0.675,0.229,1.219-1.044,1.827-0.489   c0.446-0.032,0.87-0.522,1.294-0.783c0.12,0.62,0.631,0.555,1.033,0.229c0.359-0.392,0.696-0.783,1.153-0.913l0.239,0.456   c0.598-0.064,0.968-0.913,1.457-1.174l0.413,0.555c0.881-0.68,1.577-2.089,2.763-1.653c0.532-0.207,0.815-1.414,1.392-0.696   c0.87-0.549,1.392-2.632,2.687-2.044c0.489-0.849,1-1.697,1.522-2.578c0.141,0.099,0.293,0.522,0.424,0.229   c1.305-2.12,2.359-4.36,3.208-6.71c1.262-1.108,2.751-1.989,4.144-2.969c0.445,0.626-0.207,1.469-0.305,2.187   c-0.174,0.718-0.815,1.272-0.576,2.186c0.695,0.358,0.913,1.468,1.675,1.658c1.512-2.474,1.892-5.404,1.892-8.536l3.034-3.355   l0.087-0.489c3.339-1.436,6.112-4.36,8.994-6.933l0.718-0.233c0.881-1.012,2.033-1.403,2.794-2.502   C99.968,47.354,99.642,46.935,99.271,46.805z"></path></g></svg>