<svg xmlns="http://www.w3.org/2000/svg" xmlns:xlink="http://www.w3.org/1999/xlink" version="1.1" x="0px" y="0px" viewBox="0 0 100 100" enable-background="new 0 0 100 100" xml:space="preserve"><path d="M44,20c0-4.418,8.953-8,20-8c11.045,0,20,3.582,20,8s-8.955,8-20,8C52.953,28,44,24.418,44,20z M64,68  c-1.371,0-2.707-0.055-4-0.16v8c1.293,0.105,2.629,0.16,4,0.16c11.045,0,20-3.582,20-8v-8C84,64.418,75.045,68,64,68z M64,44  c-1.375,0-2.719-0.056-4.016-0.162C59.984,43.893,60,43.945,60,44v7.84c1.293,0.105,2.629,0.16,4,0.16c11.045,0,20-3.582,20-8v-8  C84,40.418,75.045,44,64,44z M64,32c-11.047,0-20-3.582-20-8v8c0,0.241,0.038,0.479,0.09,0.714  c6.549,1.174,11.77,3.724,14.275,6.959C60.154,39.883,62.041,40,64,40c11.045,0,20-3.582,20-8v-8C84,28.418,75.045,32,64,32z M64,56  c-1.371,0-2.707-0.055-4-0.16v8c1.293,0.105,2.629,0.16,4,0.16c11.045,0,20-3.582,20-8v-8C84,52.418,75.045,56,64,56z"></path><path d="M56,44c0,4.418-8.955,8-20,8c-11.046,0-20-3.582-20-8s8.954-8,20-8C47.045,36,56,39.582,56,44z M36,56  c-11.046,0-20-3.582-20-8v8c0,4.418,8.954,8,20,8c11.045,0,20-3.582,20-8v-8C56,52.418,47.045,56,36,56z M36,68  c-11.046,0-20-3.582-20-8v8c0,4.418,8.954,8,20,8c11.045,0,20-3.582,20-8v-8C56,64.418,47.045,68,36,68z M36,80  c-11.046,0-20-3.582-20-8v8c0,4.418,8.954,8,20,8c11.045,0,20-3.582,20-8v-8C56,76.418,47.045,80,36,80z"></path></svg>