<svg xmlns="http://www.w3.org/2000/svg" xmlns:xlink="http://www.w3.org/1999/xlink" version="1.1" x="0px" y="0px" viewBox="0 0 48 48" enable-background="new 0 0 48 48" xml:space="preserve"><path fill="#000000" d="M6.783,24.421l0.551,0.861l0.568-0.861h1.053l-1.106,1.573l1.148,1.646h-1.07l-0.629-0.886l-0.61,0.886  H5.653L6.777,26l-1.064-1.579H6.783z"></path><path fill="#000000" d="M10.283,24.421l0.551,0.861l0.568-0.861h1.053l-1.106,1.573l1.148,1.646h-1.07l-0.629-0.886l-0.61,0.886  H9.153L10.277,26l-1.064-1.579H10.283z"></path><path fill="#000000" d="M13.782,24.421l0.551,0.861l0.568-0.861h1.053l-1.106,1.573l1.148,1.646h-1.07l-0.629-0.886l-0.61,0.886  h-1.034L13.776,26l-1.064-1.579H13.782z"></path><path fill="#000000" d="M16.343,26.239v-0.795h2.13v0.795H16.343z"></path><path fill="#000000" d="M19.957,24.421l0.551,0.861l0.568-0.861h1.053l-1.106,1.573l1.148,1.646h-1.07l-0.629-0.886l-0.61,0.886  h-1.034L19.951,26l-1.064-1.579H19.957z"></path><path fill="#000000" d="M23.456,24.421l0.551,0.861l0.568-0.861h1.053l-1.106,1.573l1.148,1.646H24.6l-0.629-0.886l-0.61,0.886  h-1.034L23.45,26l-1.064-1.579H23.456z"></path><path fill="#000000" d="M26.017,26.239v-0.795h2.13v0.795H26.017z"></path><path fill="#000000" d="M29.63,24.421l0.551,0.861l0.568-0.861h1.053l-1.106,1.573l1.148,1.646h-1.07l-0.629-0.886l-0.61,0.886H28.5  L29.624,26l-1.064-1.579H29.63z"></path><path fill="#000000" d="M33.13,24.421l0.551,0.861l0.568-0.861h1.053l-1.106,1.573l1.148,1.646h-1.07l-0.629-0.886l-0.61,0.886H32  L33.124,26l-1.064-1.579H33.13z"></path><path fill="#000000" d="M36.63,24.421l0.551,0.861l0.568-0.861h1.053l-1.106,1.573l1.148,1.646h-1.07l-0.629-0.886l-0.61,0.886H35.5  L36.624,26l-1.064-1.579H36.63z"></path><path fill="#000000" d="M40.129,24.421l0.551,0.861l0.568-0.861h1.053l-1.106,1.573l1.148,1.646h-1.07l-0.629-0.886l-0.61,0.886  h-1.034L40.123,26l-1.064-1.579H40.129z"></path><g><rect x="5.55" y="33.025" fill="#000000" width="36.9" height="1.939"></rect></g><path fill="#000000" d="M44.732,9.854h-0.005H3.272H3.268c-1.431,0-2.596,1.165-2.596,2.596v8.09v17.928  c0,1.431,1.165,2.596,2.596,2.596h41.465c1.431,0,2.596-1.165,2.596-2.596V20.959v-8.51C47.328,11.019,46.163,9.854,44.732,9.854z   M44.732,39.123H3.268c-0.362,0-0.656-0.294-0.656-0.656v-18.77c5.808-2.471,13.219-3.839,20.982-3.839  c8.174,0,15.874,1.495,21.795,4.198v18.41C45.389,38.829,45.095,39.123,44.732,39.123z"></path></svg>