<?xml version="1.0" encoding="utf-8"?><!DOCTYPE svg PUBLIC "-//W3C//DTD SVG 1.1//EN" "http://www.w3.org/Graphics/SVG/1.1/DTD/svg11.dtd"><svg version="1.1" xmlns="http://www.w3.org/2000/svg" xmlns:xlink="http://www.w3.org/1999/xlink" x="0px" y="0px" viewBox="0 0 100 97.637" enable-background="new 0 0 100 97.637" xml:space="preserve"><path d="M98.285,56.082c-0.613-1.351-1.247-2.747-1.576-3.925c-0.291-1.045-0.524-2.172-0.77-3.368
	c-0.565-2.749-1.152-5.592-2.547-7.75c-2.049-3.171-5.303-4.724-8.745-6.369c-3.562-1.701-8.793-2.232-11.826-1.716
	c2.511-3.515,7.002-12.384,8.135-16.197c1.854-6.243,2.734-13.948,0.925-15.509c-1.246-1.074-2.686-0.799-4.681-0.414
	c-0.642,0.124-1.363,0.263-2.184,0.38c-1.018,0.145-2.454,0.103-4.118,0.055c-3.563-0.104-7.996-0.231-11.782,1.327
	c-5.529,2.275-10.75,9.569-11.55,14.326c-0.112,0.667-0.167,1.265-0.18,1.805C44.52,15.682,36.358,7.306,29.95,3.637
	c-6.919-3.962-9.071-3.711-10.231-3.577c-0.132,0.016-0.248,0.031-0.355,0.031c0,0,0,0,0,0c0,0,0,0-0.001,0
	c-1.281,0-3.932,1.407-4.194,3.333c-0.134,0.988,0.212,1.741,0.519,2.405c0.25,0.542,0.486,1.054,0.481,1.697
	c-0.004,0.66-0.771,2.168-1.447,3.499c-0.84,1.654-1.708,3.364-1.898,4.683c-0.291,2.025,0.479,3.916,1.644,6.777
	c0.329,0.808,0.691,1.697,1.071,2.695c1.391,3.642,7.858,11.083,10.506,14.041c0.043,0.124,0.109,0.215,0.184,0.281
	c-0.007,0.074,0,0.167,0.022,0.265c-5.709,1.367-16.988,8.589-21.234,11.308l-0.957,0.61c-1.26,0.795-5.095,3.214-3.792,5.629
	c0.554,1.028,1.15,0.971,1.767,0.814c0.474-0.121,1.121-0.289,2.55,0.354c1.183,0.533,2.807,1.972,4.525,3.495
	c2.593,2.298,5.533,4.903,8.488,5.911c4.929,1.68,14.612,0.525,15.023,0.475l0.164-0.042c0.227-0.095,5.574-2.324,7.33-3.913
	c0.395-0.356,0.724-0.703,1.01-1.038c-0.137,0.979-0.271,2.248-0.379,3.884c-0.357,5.415,2.886,20.154,5.192,25.32l0.153,0.342
	c1.921,4.31,2.079,4.663,4.449,4.71l0.42,0.01c0.029,0,0.057,0.002,0.086,0.002c1.835,0,3.072-1.69,4.166-3.184
	c0.59-0.808,1.148-1.569,1.707-1.956c0.643-0.443,1.003-0.527,1.46-0.635c0.687-0.163,1.465-0.346,3.046-1.628
	c2.349-1.901,6.726-6.387,8.246-11.132c1.42-4.432,0.512-13.286,0.457-13.753c-0.035-0.133-0.787-3.006-1.771-4.791
	c2.407,0.797,6.515,2.035,10.237,2.552c4.962,0.691,19.036,1.145,20.839-0.491C100.721,61.448,99.592,58.961,98.285,56.082z
	 M57.422,48.191c-1.083,1.483-3.268,2.236-6.494,2.236c-2.626,0-4.962-0.505-5.06-0.527l-1.347-0.295l1.311-0.428
	c0.032-0.01,3.218-1.073,4.018-3.255c0.36-0.981,0.18-2.067-0.535-3.229c-0.755-1.226-1.686-1.848-2.766-1.848
	c-2.175,0-4.318,2.432-4.339,2.456l-0.821,0.941l0.165-1.237c0.033-0.248,0.856-6.096,4.999-8.324
	c1.191-0.641,2.535-0.966,3.993-0.966c3.11,0,6.292,1.544,7.566,3.673C59.726,40.083,60.138,44.47,57.422,48.191z"></path></svg>