<svg xmlns="http://www.w3.org/2000/svg" xmlns:xlink="http://www.w3.org/1999/xlink" version="1.1" x="0px" y="0px" viewBox="0 0 100 100" enable-background="new 0 0 100 100" xml:space="preserve"><g><rect x="-192" width="185" height="99"></rect><rect y="-36" width="100" height="30"></rect><text transform="matrix(1 0 0 1 66 -19.5)" fill="#000000" font-family="'Helvetica'" font-size="2.4">http://thenounproject.com</text><text transform="matrix(1 0 0 1 7.166 -24.5)"><tspan x="0" y="0" fill="#000000" font-family="'Helvetica-Bold'" font-size="6.1578">The Noun Project</tspan><tspan x="1.12" y="4.8" fill="#000000" font-family="'Helvetica-Bold'" font-size="4">Icon Template</tspan></text><text transform="matrix(1 0 0 1 -178.5 10.5)" fill="#000000" font-family="'Helvetica-Bold'" font-size="6.1578">Reminders</text><line fill="#000000" stroke="#FFFFFF" stroke-miterlimit="10" x1="8" y1="-14.5" x2="18" y2="-14.5"></line><line fill="#000000" stroke="#FFFFFF" stroke-miterlimit="10" x1="-179" y1="16.5" x2="-162" y2="16.5"></line><g><g><g><rect x="-170.802" y="31.318" fill="#000000" width="8.721" height="8.642"></rect><path fill="#000000" d="M-164.455,42.312h4.747v-4.703h-4.747V42.312z M-159.266,42.749h-5.63V37.17h5.63V42.749      L-159.266,42.749z M-166.221,44.062h8.279v-8.203h-8.279V44.062L-166.221,44.062z M-157.5,44.5h-9.163v-9.079h9.163V44.5      L-157.5,44.5z"></path><polygon fill="#000000" points="-166.149,44.133 -166.292,43.991 -158.013,35.787 -157.871,35.929     "></polygon></g></g></g><rect x="-179" y="58" fill="none" width="35" height="32.5"></rect><text transform="matrix(1 0 0 1 -179 60.1572)"><tspan x="0" y="0" fill="#000000" font-family="'Helvetica-Bold'" font-size="3">Strokes</tspan><tspan x="0" y="5" fill="#000000" font-family="'Helvetica'" font-size="2.4">Try to keep strokes at 4px</tspan><tspan x="0" y="10" fill="#000000" font-family="'Helvetica'" font-size="2.4">Minimum stroke weight is 2px</tspan><tspan x="0" y="14.5" fill="#000000" font-family="'Helvetica'" font-size="2.4">For thicker strokes use even </tspan><tspan x="0" y="17.5" fill="#000000" font-family="'Helvetica'" font-size="2.4">numbers: 6px, 8px etc.</tspan><tspan x="0" y="22" fill="#000000" font-family="'Helvetica-Bold'" font-size="2.4">Remember to expand strokes </tspan><tspan x="0" y="25" fill="#000000" font-family="'Helvetica-Bold'" font-size="2.4">before saving as an SVG </tspan></text><rect x="-136.5" y="58" fill="none" width="35" height="32.5"></rect><text transform="matrix(1 0 0 1 -136.5 60.1572)"><tspan x="0" y="0" fill="#000000" font-family="'Helvetica-Bold'" font-size="3">Size</tspan><tspan x="0" y="5" fill="#000000" font-family="'Helvetica'" font-size="2.4">Cannot be wider or taller than </tspan><tspan x="0" y="8.5" fill="#000000" font-family="'Helvetica'" font-size="2.4">100px (artboard size)</tspan><tspan x="0" y="13.5" fill="#000000" font-family="'Helvetica'" font-size="2.4">Scale your icon to fill as much of </tspan><tspan x="0" y="16.5" fill="#000000" font-family="'Helvetica'" font-size="2.4">the artboard as possible</tspan></text><rect x="-94" y="58" fill="none" width="35" height="32.5"></rect><text transform="matrix(1 0 0 1 -94 60.1572)"><tspan x="0" y="0" fill="#000000" font-family="'Helvetica-Bold'" font-size="3">Ungroup</tspan><tspan x="0" y="5" fill="#000000" font-family="'Helvetica'" font-size="2.4">If your design has more than one </tspan><tspan x="0" y="8" fill="#000000" font-family="'Helvetica'" font-size="2.4">shape, make sure to ungroup</tspan></text><rect x="-50" y="58" fill="none" width="35" height="32.5"></rect><text transform="matrix(1 0 0 1 -50 60.1572)"><tspan x="0" y="0" fill="#000000" font-family="'Helvetica-Bold'" font-size="3">Save as</tspan><tspan x="0" y="5" fill="#000000" font-family="'Helvetica'" font-size="2.4">Save as .SVG and make sure </tspan><tspan x="0" y="8" fill="#000000" font-family="'Helvetica'" font-size="2.4">“Use Artboards” is checked</tspan></text><text transform="matrix(1.0074 0 0 1 -125.542 30.5933)" fill="#000000" font-family="'Helvetica'" font-size="2.5731">100px</text><text transform="matrix(1.0074 0 0 1 -41 39)" fill="#000000" font-family="'Helvetica-Bold'" font-size="5.1462">.SVG</text><rect x="-126.514" y="34.815" fill="#000000" width="10.261" height="10.185"></rect><rect x="-126.477" y="31.766" fill="#000000" width="0.522" height="2.337"></rect><rect x="-116.812" y="31.766" fill="#000000" width="0.523" height="2.337"></rect><rect x="-127" y="32.337" fill="#000000" width="11.233" height="0.572"></rect><g><rect x="-83.805" y="33.844" fill="#000000" width="10.305" height="10.156"></rect><rect x="-76.809" y="28.707" fill="#000000" width="3.308" height="3.261"></rect></g><rect x="-178.5" y="22.5" fill="#000000" stroke="#FFFFFF" stroke-miterlimit="10" width="30" height="30"></rect><rect x="-136.5" y="22.5" fill="#000000" stroke="#FFFFFF" stroke-miterlimit="10" width="30" height="30"></rect><rect x="-93.5" y="22.5" fill="#000000" stroke="#FFFFFF" stroke-miterlimit="10" width="30" height="30"></rect><rect x="-49.5" y="22.5" fill="#000000" stroke="#FFFFFF" stroke-miterlimit="10" width="30" height="30"></rect></g><g><path d="M92.9,51.291l-0.188-0.106c-0.01-0.005-1.004-0.547-0.952-1.586l0.006-0.1l-0.006-0.1c-0.05-1.01,0.878-1.545,0.955-1.588   l0.185-0.104c0.238-0.152,5.832-3.791,6.64-9.274c0.418-2.84-0.483-5.577-2.678-8.134c-2.94-3.428-6.746-5.166-11.312-5.166   c-3.276,0-6.669,0.897-9.958,2.287c-1.22,0-2.133-0.286-2.688-0.877c-0.857-0.914-0.911-2.495-0.856-3.09   c1.337-3.324,2.15-6.74,2.025-10.023c-0.162-4.273-1.896-7.857-5.152-10.65c-2.146-1.841-4.437-2.774-6.811-2.774   c-6.215,0-10.423,6.461-10.6,6.736l-0.091,0.216C51.397,6.998,50.874,8,49.821,8c-0.001,0-0.002,0-0.003,0L49.63,7.938l-0.1-0.025   c-0.967,0-1.492-0.96-1.499-0.972l-0.106-0.193c-0.176-0.275-4.384-6.74-10.598-6.74c-2.374,0-4.665,0.932-6.811,2.773   c-3.256,2.793-4.99,6.375-5.153,10.649c-0.127,3.344,0.72,6.823,2.101,10.205c0.009,1.251-0.276,2.187-0.877,2.752   c-0.849,0.798-2.275,0.9-2.95,0.866c-3.161-1.291-6.407-2.121-9.548-2.121c-4.566,0-8.372,1.738-11.312,5.165   c-2.194,2.559-3.095,5.295-2.677,8.135c0.807,5.483,6.4,9.122,6.637,9.274l0.158,0.091C7,47.855,7.929,48.39,7.878,49.398   l-0.005,0.101L7.878,49.6c0.051,1.011-0.875,1.542-0.952,1.585l-0.189,0.106c-0.237,0.152-5.83,3.79-6.637,9.274   c-0.418,2.84,0.483,5.644,2.677,8.202C5.716,72.195,9.522,74,14.089,74c0.001,0,0.001,0,0.003,0c3.168,0,6.444-0.91,9.631-2.221   c-4.994,4.289-11.52,11.886-14.819,23.042c-0.313,1.06,0.292,2.155,1.351,2.47c0.189,0.055,0.38,0.073,0.568,0.073   c0.863-0.001,1.66-0.566,1.917-1.437c3.258-11.019,10.12-18.317,14.465-21.901c0.124,0.505,0.159,0.993,0.155,1.351   c-1.319,3.3-2.12,6.688-1.996,9.946c0.163,4.273,1.897,7.856,5.153,10.649c2.146,1.841,4.438,2.773,6.811,2.773   c6.212,0,10.421-6.459,10.597-6.733l0.091-0.094C48.039,91.879,48.562,91,49.614,91c0.001,0,0.002,0,0.003,0l0.189-0.061   l0.101-0.038c0.965,0,1.49,0.929,1.497,0.94l0.105,0.179c0.177,0.274,4.386,6.729,10.6,6.729c2.373,0,4.665-0.936,6.811-2.776   c3.257-2.793,4.99-6.377,5.152-10.65c0.123-3.229-0.695-6.613-2.027-9.919c-0.036-1.331,0.254-2.313,0.88-2.901   c0.786-0.738,2.062-0.883,2.787-0.873c3.252,1.359,6.602,2.236,9.838,2.236c4.566,0,8.372-1.737,11.312-5.166   c2.195-2.558,3.096-5.295,2.678-8.135C98.732,55.081,93.139,51.443,92.9,51.291z M29.361,13.581   c0.121-3.158,1.351-5.699,3.761-7.767c1.4-1.201,2.815-1.81,4.206-1.81c3.774,0,6.815,4.284,7.19,4.835   c0.659,1.217,2.41,3.113,5.2,3.041c0.063,0.002,0.125,0.003,0.188,0.003c0,0,0,0,0.001,0c2.661,0,4.365-1.854,5.01-3.042   c0.373-0.545,3.44-4.837,7.192-4.837c1.392,0,2.807,0.608,4.206,1.81c2.41,2.067,3.64,4.608,3.76,7.767   c0.365,9.568-9.83,22.41-15.913,28.491c-1.418,1.419-2.871,2.111-4.444,2.117c-1.573-0.006-3.026-0.698-4.445-2.118   C39.191,35.99,28.996,23.146,29.361,13.581z M14.09,70c-3.394,0-6.101-1.301-8.277-3.836c-1.423-1.66-1.998-3.308-1.758-4.97   c0.497-3.435,4.26-6.124,4.779-6.478c1.239-0.668,3.135-2.444,3.042-5.21c0.092-2.762-1.802-4.533-3.04-5.203   c-0.511-0.351-4.278-3.042-4.78-6.452c-0.245-1.666,0.329-3.286,1.756-4.949c2.176-2.536,4.883-3.771,8.276-3.771   c9.519,0,22.066,10.008,27.98,15.921c1.421,1.422,2.114,2.877,2.118,4.44c-0.004,1.573-0.697,3.095-2.118,4.517   C36.157,59.926,23.612,70,14.092,70C14.092,70,14.09,70,14.09,70z M70.075,85.17c-0.12,3.159-1.35,5.699-3.759,7.767   c-1.4,1.2-2.816,1.81-4.207,1.81c-3.774,0-6.816-4.282-7.192-4.833c-0.66-1.217-2.416-3.104-5.199-3.041   c-2.772-0.1-4.539,1.822-5.199,3.039c-0.375,0.546-3.441,4.835-7.191,4.835c-1.391,0-2.807-0.609-4.207-1.811   c-2.41-2.066-3.64-4.606-3.761-7.765c-0.365-9.567,9.83-22.41,15.913-28.491c1.419-1.421,2.875-2.114,4.439-2.118   c1.574,0.004,3.03,0.697,4.45,2.12C60.245,62.76,70.44,75.601,70.075,85.17z M93.827,66.097c-2.177,2.536-4.885,3.77-8.277,3.77   c-9.521,0-22.067-10.008-27.979-15.922c-1.421-1.421-2.114-2.877-2.118-4.439c0.004-1.574,0.697-3.03,2.117-4.451   c5.914-5.913,18.463-15.921,27.98-15.921c3.394,0,6.101,1.233,8.277,3.771c1.423,1.658,1.997,3.271,1.757,4.934   c-0.496,3.437-4.268,6.111-4.782,6.462c-1.236,0.67-3.131,2.438-3.04,5.2c-0.091,2.765,1.803,4.531,3.04,5.2   c0.531,0.361,4.287,3.032,4.782,6.462C95.824,62.823,95.25,64.438,93.827,66.097z"></path></g></svg>