<svg xmlns="http://www.w3.org/2000/svg" xmlns:xlink="http://www.w3.org/1999/xlink" version="1.1" x="0px" y="0px" viewBox="0 0 100 100" enable-background="new 0 0 100 100" xml:space="preserve"><g><path d="M41.123,68.425c-3.833-0.664-7.779-1.348-10.318-2.266c-4.209-1.621-1.831-4.028,0-4.59   c1.221-0.332,2.52-0.576,3.794-0.703c0.952-0.098,1.646-0.938,1.558-1.885c-0.088-0.957-0.928-1.646-1.885-1.563   c-3.984,0.381-9.258,1.953-11.436,4.541c-0.117,0.132-0.195,0.283-0.264,0.43c-0.415,0.498-0.64,1.162-0.566,1.855   c0.239,2.227,2.002,4.131,5.391,5.83c3.008,1.509,7.803,2.339,12.881,3.213c2.539,0.439,5.137,0.894,7.419,1.431   c3.369,1.553-0.176,3.916-2.781,4.893c-8.619,2.456-23.213,1.538-28.116-2.642c-1.45-1.24-3.633-1.074-4.873,0.386   c-1.245,1.45-1.069,3.638,0.381,4.878c0.4,0.342,0.85,0.664,1.313,0.967c5.439,4.399,12.881,6.797,21.182,6.797   c0.098,0,0.195,0,0.293,0c7.881-0.049,15.413-2.324,19.651-5.928c1.25-1.064,5.049-4.297,4.014-8.066   C57.463,71.247,49.894,69.943,41.123,68.425z"></path><path d="M88.557,14.942l-3.496-3.496c-1.934-1.929-5.068-1.929-6.992,0L53.596,35.915l10.488,10.488l24.473-24.469   C90.48,20.004,90.48,16.874,88.557,14.942z"></path><polygon points="46.604,42.904 43.989,56.013 57.092,53.396  "></polygon></g></svg>