<svg xmlns="http://www.w3.org/2000/svg" xmlns:xlink="http://www.w3.org/1999/xlink" version="1.1" x="0px" y="0px" viewBox="0 0 100 100" enable-background="new 0 0 100 100" xml:space="preserve"><g><path d="M36.471,36.327c6.055-6.026,6.055-15.792,0-21.807c-6.055-6.025-15.876-6.025-21.931,0c-6.055,6.016-6.055,15.781,0,21.807   C20.595,42.342,30.417,42.342,36.471,36.327z"></path><polygon points="65.612,28.914 57.194,20.066 59.519,40.995 25.224,62.498 35.993,73.201 69.323,53.064  "></polygon><path d="M89.489,78.914l-5.615-6.113c-0.605,2.148-2.168,4.609-4.375,6.797c-2.256,2.236-4.668,3.73-6.777,4.326l6.133,5.566   c1.318,1.309,4.766,0.01,7.705-2.91C89.489,83.66,90.808,80.232,89.489,78.914z"></path><path d="M81.657,70.945c0-0.293-0.049-0.527-0.137-0.703l-0.615-0.674l-0.4-0.4l0.02-0.02l-9.355-10.195l-15.586,9.424   l14.609,13.252c1.191,0.439,4.404-0.684,7.539-3.799C80.446,75.135,81.657,72.43,81.657,70.945z"></path><path d="M51.521,14.275l-5.811,3.782c0.85,2.332,1.299,4.812,1.299,7.361c0,5.732-2.236,11.114-6.309,15.157   c-4.063,4.043-9.453,6.26-15.193,6.26c-1.65,0-3.271-0.186-4.844-0.547l0.811,12.48l0.112,0.107l32.62-20.449L51.521,14.275z"></path></g></svg>