<svg xmlns="http://www.w3.org/2000/svg" xmlns:xlink="http://www.w3.org/1999/xlink" version="1.1" x="0px" y="0px" viewBox="0 0 100 100" enable-background="new 0 0 100 100" xml:space="preserve"><g><path opacity="0.98" d="M82.493,44.231c0.41-1.543,0.635-3.096,0.703-4.639l11.299-3.047l-3.35-12.422l-11.309,3.047   c-1.67-2.617-3.906-4.873-6.592-6.572L76.253,9.29L63.822,5.985l-3.008,11.303c-3.184,0.151-6.24,0.996-8.994,2.432l-8.291-8.262   l-9.082,9.116l8.291,8.257c-0.703,1.367-1.279,2.822-1.689,4.375c-0.41,1.543-0.635,3.096-0.703,4.629L29.04,40.892l3.359,12.421   l11.306-3.057c1.67,2.617,3.906,4.888,6.592,6.582l-3.008,11.309l12.432,3.311l3.008-11.304c3.184-0.151,6.24-1.001,8.993-2.446   l8.291,8.276l9.082-9.126l-8.291-8.262C81.507,47.243,82.083,45.778,82.493,44.231z M59.086,48.811   c-2.695-0.723-4.951-2.441-6.348-4.853c-1.406-2.412-1.777-5.234-1.064-7.93c1.221-4.57,5.361-7.764,10.088-7.764   c0.898,0,1.807,0.127,2.695,0.361c2.695,0.713,4.951,2.441,6.347,4.858c1.406,2.407,1.777,5.22,1.055,7.92   c-1.211,4.564-5.36,7.758-10.077,7.758C60.883,49.162,59.975,49.045,59.086,48.811z"></path><path opacity="0.98" d="M35.57,69.064l4.756-4.873l-5.352-5.234l-4.763,4.883c-1.65-0.84-3.447-1.279-5.254-1.328l-1.846-6.572   l-7.207,2.021l1.846,6.567c-0.752,0.483-1.455,1.06-2.109,1.724s-1.211,1.392-1.68,2.148l-6.611-1.68l-1.846,7.256l6.602,1.689   c0.107,1.797,0.596,3.584,1.465,5.214l-4.756,4.873l5.361,5.239l4.766-4.878c1.641,0.83,3.438,1.27,5.244,1.333l1.846,6.567   l7.217-2.031l-1.846-6.563c0.742-0.483,1.455-1.064,2.097-1.724c0.654-0.669,1.211-1.392,1.689-2.153l6.602,1.68l1.846-7.255   l-6.602-1.68C36.938,72.482,36.449,70.695,35.57,69.064z M24.577,81.456c-1.709,0-3.311-0.653-4.531-1.845   c-2.559-2.5-2.607-6.611-0.107-9.17c1.23-1.26,2.871-1.948,4.639-1.948c1.699,0,3.311,0.649,4.521,1.841   c1.24,1.211,1.934,2.832,1.963,4.561c0.02,1.738-0.635,3.369-1.846,4.609C27.985,80.764,26.335,81.456,24.577,81.456z"></path></g></svg>