<svg xmlns="http://www.w3.org/2000/svg" xmlns:xlink="http://www.w3.org/1999/xlink" version="1.1" x="0px" y="0px" viewBox="0 0 100 100" enable-background="new 0 0 100 100" xml:space="preserve"><g><g><path fill="none" d="M51.4,91.9c-2.6,0-4.8-0.1-6.7-0.3c-5.9-0.5-9.5-1.5-11.1-2.1C33,89.4,33,89.3,33,89.2c0,0,0,0.2,0.5,0.3    c-0.3,0.3-0.7,0.7-0.7,1.2c0,0,0,0,0,0c4.5,1.9,15.6,2.2,20.1,2.2c0,0,0,0,0,0c1.4,0,2.4,0,2.5,0c5.7-0.3,21-1.5,24.4-3.7    c0.1-0.1,0.2-0.2,0.2-0.4c0-0.3,0-0.4,0-0.6C68.1,91.1,58.5,91.9,51.4,91.9z"></path><path fill="none" d="M81,88L81,88c0,0-0.1,0-0.1,0C80.9,88,81,88,81,88z"></path><polygon fill="none" points="41,79.4 41.2,77.7 39,6.7 33.3,8.5 35.3,57.9 36,77.4 36,79.1 36.1,84.1 41,84.5   "></polygon><path fill="none" d="M67.2,83.6c-0.1-0.2-0.2-0.8-0.2-1.4l-24.4,3.9c-0.6,0.5-2.2,1.7-5.9,2.3c-0.3,0.1-0.6,0.1-0.8,0.2    c2,0.5,4.9,1,8.8,1.4c6.8,0.6,17.7,0.5,32.4-2.8c-0.8-0.1-1.8-0.3-3.1-0.4c-0.5-0.1-1.1-0.2-1.6-0.4l-3.8-1.4    C68.1,84.7,67.5,84.2,67.2,83.6z"></path><path fill="none" d="M20.8,28.7c-0.5,1.7-1.6,4.2-2.4,5.6c-1.3,2.4-3.8,3.7-6,4.9c-1.8,1-3.4,1.9-4.2,3.1    C6.4,45.2,6.7,55.6,6.9,60c0,1.6,0.9,3.1,2.4,3.9c8.2,4.7,16.6,14,18.9,16.7c0.2,0.2,0.5,0.4,0.7,0.5l5.7,2.4L31.7,9.4    C29.4,11.1,24.3,16.2,20.8,28.7z M19.7,56.7l-9.8,3.6c-0.2,0.1-0.4,0-0.5-0.2l-0.3-0.9c-0.1-0.2,0-0.4,0.2-0.5l9.8-3.6    c0.2-0.1,0.4,0,0.5,0.2l0.3,0.9C20,56.4,19.9,56.7,19.7,56.7z M19.7,50.3l-9.8,3.6c-0.2,0.1-0.4,0-0.5-0.2l-0.3-0.9    c-0.1-0.2,0-0.4,0.2-0.5l9.8-3.6c0.2-0.1,0.4,0,0.5,0.2l0.3,0.9C20,50,19.9,50.2,19.7,50.3z M19.7,43.8l-9.8,3.6    c-0.2,0.1-0.4,0-0.5-0.2l-0.3-0.9c-0.1-0.2,0-0.4,0.2-0.5l9.8-3.6c0.2-0.1,0.4,0,0.5,0.2l0.3,0.9C20,43.6,19.9,43.8,19.7,43.8z"></path><path fill="none" d="M88.5,62.4l-2.1-37.1L48,16.2L50,66.5l36.8-2.1c1.3,0,1.6-0.2,1.7-0.3c0.1-0.1,0.1-0.9,0.1-1.6L88.5,62.4z"></path><path fill="none" d="M87.4,70.8c-0.3,0-0.8,0.6-0.8,1.6s0.5,1.6,0.8,1.6c0.3,0,0.8-0.6,0.8-1.6S87.7,70.8,87.4,70.8z"></path><path fill="none" d="M90.8,21.6c-0.1-0.9-0.7-1.7-1.6-2L40.7,6.7l2.2,70.9l0.1,1.7l-1,0.1l1-0.1l0.1,4.8c-0.7,0.2-1.2,0.2-1.5,0.4    c0.3-0.2,0.8-0.3,1.5-0.4l0,0.1l0-0.2c7.9-1.8,39.7-6.2,49-7.4c0.4-0.1,1.2-0.8,1.2-1.5c0-0.7,0.1-1.6,0.1-2.6c0-0.5,0-1.1,0-1.7    C93.3,58.3,91.5,30.7,90.8,21.6z M87.4,75.7c-1.4,0-2.5-1.4-2.5-3.3s1.1-3.3,2.5-3.3c1.4,0,2.5,1.4,2.5,3.3S88.8,75.7,87.4,75.7z     M89.7,65.5c-0.6,0.6-1.5,1-2.9,1L49.5,69h0c-0.6,0-1.1-0.9-1.2-1.5l-2-51.7c0-0.4,0.1-0.7,0.4-1c0.3-0.3,0.8-0.5,1.2-0.4    l39.3,9.3c0.5,0.1,0.9,0.6,0.9,1.1v0l2.2,37.5l0,0.3C90.3,63.9,90.3,64.9,89.7,65.5z"></path><path fill="#000000" d="M92.5,21.4c-0.1-1.7-1.3-3.1-2.9-3.5L40.5,4.9c-0.5-0.1-1.1-0.1-1.6,0l-5,1.6c-0.4,0.1-0.8,0.3-1.2,0.5    c-0.6,0.2-1.4,0.6-1.6,0.7c-2.3,1.6-8.1,6.7-12,20.6c-0.4,1.6-1.5,3.9-2.2,5.2c-1.1,1.9-3.3,3.1-5.4,4.3c-2,1.1-3.8,2.1-4.8,3.7    C5,44.3,4.9,52.1,5.2,60.1c0.1,2.2,1.3,4.2,3.2,5.3c8.2,4.6,16.8,14.4,18.5,16.3c0.4,0.4,0.8,0.8,1.4,1l6.6,2.9    c0.2,0.1,0.4,0.1,0.6,0.2c1,0.1,3.7,0.3,3.7,0.3c-0.7,0.2-1.6,0.5-2.7,0.7c-1.5,0.3-2.7,0.5-3.6,0.9c0,0-0.1,0.1-0.1,0.1l0,0    c-1.2,0.6-1.7,1.5-1.7,3c0,0.7,0.4,1.4,1.1,1.6c4.6,2,15,2.3,20.8,2.3c0,0,0,0,0,0c1.5,0,2.5,0,2.5,0l0,0c0.8,0,20.8-1.1,25.2-4    c0.6-0.4,0.9-1,1-1.7c0.1-1.2-0.3-2-1.2-2.6c0,0-0.1,0-0.1,0c-1.1-0.7-3.1-1-6.2-1.4c-0.4-0.1-0.8-0.1-1.2-0.3l-3.8-1.4    c-0.2-0.1-0.4-0.2-0.5-0.4c0-0.3-0.1-0.9,0.2-1.1l0.5-0.4c9.4-1.4,18.5-2.4,22.7-3c1.9-0.3,2.7-1.4,2.8-3.1    C95.6,66.4,93.3,31.8,92.5,21.4z M28.9,81.1c-0.3-0.1-0.5-0.3-0.7-0.5c-2.4-2.7-10.8-12-18.9-16.7c-1.4-0.8-2.3-2.3-2.4-3.9    c-0.1-4.4-0.4-14.8,1.3-17.7c0.7-1.2,2.4-2.2,4.2-3.1c2.2-1.2,4.7-2.6,6-4.9c0.8-1.4,1.9-3.8,2.4-5.6c3.5-12.5,8.6-17.6,10.9-19.3    l2.9,74.2L28.9,81.1z M36.1,84.1l-0.1-5l0-1.7l-0.7-19.5L33.3,8.5L39,6.7l2.2,71L41,79.4l0,5.1L36.1,84.1z M80,88.8    c0,0.1-0.1,0.3-0.2,0.4c-3.3,2.2-18.7,3.4-24.4,3.7c-0.1,0-1,0-2.5,0c0,0,0,0,0,0c-4.6,0-15.7-0.2-20.1-2.2c0,0,0,0,0,0    c0-0.5,0.4-0.8,0.7-1.2C33,89.4,33,89.3,33,89.2c0,0,0,0.2,0.5,0.3c1.6,0.5,5.2,1.6,11.1,2.1c1.9,0.2,4.1,0.3,6.7,0.3    c7.1,0,16.7-0.8,28.6-3.7C80,88.4,80,88.6,80,88.8z M81,88c0,0-0.1,0-0.1,0C80.9,88,81,88,81,88L81,88z M72.5,86.3    c0.5,0.2,1,0.3,1.6,0.4c1.3,0.2,2.3,0.3,3.1,0.4c-14.7,3.3-25.7,3.4-32.4,2.8c-3.8-0.3-6.8-0.9-8.8-1.4c0.3,0,0.5-0.1,0.8-0.2    c3.6-0.6,5.3-1.8,5.9-2.3l24.4-3.9c-0.1,0.6,0,1.2,0.2,1.4c0.3,0.6,0.8,1.1,1.4,1.3L72.5,86.3z M93.4,72.7c0,1,0,1.9-0.1,2.6    c0,0.7-0.8,1.4-1.2,1.5c-9.3,1.3-41.1,5.6-49,7.4l0,0.2l0-0.1c-0.7,0.2-1.2,0.2-1.5,0.4c0.3-0.2,0.8-0.3,1.5-0.4l-0.1-4.8l-1,0.1    l1-0.1l-0.1-1.7L40.7,6.7l48.5,12.9c0.9,0.2,1.6,1,1.6,2c0.6,9.1,2.5,36.8,2.6,49.4C93.4,71.5,93.4,72.1,93.4,72.7z"></path><path fill="#000000" d="M90.2,62.3L88,24.8v0c0-0.5-0.4-1-0.9-1.1l-39.3-9.3c-0.4-0.1-0.9,0-1.2,0.4c-0.3,0.3-0.4,0.6-0.4,1    l2,51.7c0,0.6,0.5,1.5,1.2,1.5h0l37.4-2.5c1.3,0,2.3-0.4,2.9-1c0.6-0.7,0.6-1.7,0.5-2.9L90.2,62.3z M88.5,64.2    c-0.1,0.1-0.4,0.2-1.7,0.3L50,66.5L48,16.2l38.4,9.1l2.1,37.1l0,0.2C88.6,63.3,88.6,64,88.5,64.2z"></path><path fill="#000000" d="M87.4,69.1c-1.4,0-2.5,1.4-2.5,3.3s1.1,3.3,2.5,3.3c1.4,0,2.5-1.4,2.5-3.3S88.8,69.1,87.4,69.1z     M87.4,73.9c-0.3,0-0.8-0.6-0.8-1.6s0.5-1.6,0.8-1.6c0.3,0,0.8,0.6,0.8,1.6S87.7,73.9,87.4,73.9z"></path><path fill="#000000" d="M19.6,48.9c-0.1-0.2-0.3-0.3-0.5-0.2l-9.8,3.6c-0.2,0.1-0.3,0.3-0.2,0.5l0.3,0.9c0.1,0.2,0.3,0.3,0.5,0.2    l9.8-3.6c0.2-0.1,0.3-0.3,0.2-0.5L19.6,48.9z"></path><path fill="#000000" d="M19.6,55.3c-0.1-0.2-0.3-0.3-0.5-0.2l-9.8,3.6C9.1,58.8,9,59,9.1,59.2l0.3,0.9c0.1,0.2,0.3,0.3,0.5,0.2    l9.8-3.6c0.2-0.1,0.3-0.3,0.2-0.5L19.6,55.3z"></path><path fill="#000000" d="M19.6,42.4c-0.1-0.2-0.3-0.3-0.5-0.2l-9.8,3.6c-0.2,0.1-0.3,0.3-0.2,0.5l0.3,0.9c0.1,0.2,0.3,0.3,0.5,0.2    l9.8-3.6c0.2-0.1,0.3-0.3,0.2-0.5L19.6,42.4z"></path></g></g></svg>