<svg xmlns="http://www.w3.org/2000/svg" xmlns:xlink="http://www.w3.org/1999/xlink" version="1.1" x="0px" y="0px" viewBox="0 0 90 90" style="enable-background:new 0 0 90 90;" xml:space="preserve"><g><g><path d="M68.6,28.2"></path></g></g><g><path d="M83.6,9.3H6.4C2.9,9.3,0,12.1,0,15.6v59.9c0,3.5,2.8,6.3,6.3,6.3h77.2c3.5,0,6.3-2.8,6.3-6.3V15.6   C90,12.1,87.1,9.3,83.6,9.3z M83.4,75.7H6.6V15.5h76.8V75.7z"></path><path d="M47.3,43c0,1-0.8,1.8-1.7,1.8H13.3c-0.9,0-1.7-0.8-1.7-1.8l0,0c0-1,0.8-1.8,1.7-1.8h32.3C46.6,41.2,47.3,42.1,47.3,43   L47.3,43z"></path><path d="M78.6,42.6c0,0.6-0.5,1.2-1.1,1.2h-21c-0.6,0-1.1-0.5-1.1-1.2l0,0c0-0.6,0.5-1.2,1.1-1.2h21C78.1,41.4,78.6,42,78.6,42.6   L78.6,42.6z"></path><path d="M78.6,46.7c0,0.6-0.5,1.2-1.1,1.2h-21c-0.6,0-1.1-0.5-1.1-1.2l0,0c0-0.6,0.5-1.2,1.1-1.2h21C78.1,45.5,78.6,46,78.6,46.7   L78.6,46.7z"></path><path d="M78.6,58.2c0,0.6-0.5,1.2-1.1,1.2h-21c-0.6,0-1.1-0.5-1.1-1.2l0,0c0-0.6,0.5-1.2,1.1-1.2h21C78.1,57.1,78.6,57.6,78.6,58.2   L78.6,58.2z"></path><path d="M78.6,62.3c0,0.6-0.5,1.2-1.1,1.2h-21c-0.6,0-1.1-0.5-1.1-1.2l0,0c0-0.6,0.5-1.2,1.1-1.2h21C78.1,61.1,78.6,61.6,78.6,62.3   L78.6,62.3z"></path><path d="M78.6,66.3c0,0.6-0.5,1.2-1.1,1.2h-21c-0.6,0-1.1-0.5-1.1-1.2l0,0c0-0.6,0.5-1.2,1.1-1.2h21C78.1,65.2,78.6,65.7,78.6,66.3   L78.6,66.3z"></path><path d="M47.3,49.8c0,1-0.8,1.8-1.7,1.8H13.3c-0.9,0-1.7-0.8-1.7-1.8l0,0c0-1,0.8-1.8,1.7-1.8h32.3C46.6,48,47.3,48.8,47.3,49.8   L47.3,49.8z"></path><path d="M47.3,56.5c0,1-0.8,1.8-1.7,1.8H13.3c-0.9,0-1.7-0.8-1.7-1.8l0,0c0-1,0.8-1.8,1.7-1.8h32.3C46.6,54.8,47.3,55.6,47.3,56.5   L47.3,56.5z"></path><path d="M47.3,67.5c0,1-0.8,1.8-1.7,1.8H13.3c-0.9,0-1.7-0.8-1.7-1.8l0,0c0-1,0.8-1.8,1.7-1.8h32.3C46.6,65.7,47.3,66.5,47.3,67.5   L47.3,67.5z"></path><rect x="11.4" y="20.1" width="67.4" height="14.8"></rect><rect x="51.9" y="40.1" width="1.1" height="29.8"></rect></g></svg>