<svg xmlns="http://www.w3.org/2000/svg" xmlns:xlink="http://www.w3.org/1999/xlink" version="1.1" x="0px" y="0px" viewBox="0 0 100 100" enable-background="new 0 0 100 100" xml:space="preserve"><g><ellipse fill="#000000" cx="50.734" cy="15.299" rx="11.405" ry="4.618"></ellipse><g><path fill="#000000" d="M62.121,16.797v0.042c0-0.006,0.003-0.014,0.003-0.021C62.124,16.811,62.121,16.805,62.121,16.797z"></path><path fill="#000000" d="M62.121,16.839C62.092,19.38,57,21.436,50.719,21.436c-6.086,0-11.042-1.93-11.373-4.361v10.299    c-0.012,0.085,0.027,0.255,0.027,0.342c0,1.463,1.667,2.738,4.273,3.56v2.568c-0.007,0.052,0.018,0.157,0.018,0.212    c0,1.586,3.14,2.82,7.059,2.82c3.862,0,6.996-1.25,7.087-2.803h0.01v-0.058c0-0.003,0-0.009,0-0.012c0-0.004,0-0.009,0-0.014    v-2.749c2.549-0.824,4.205-2.081,4.29-3.497h0.012v-0.092c0-0.007,0.003-0.014,0.003-0.021c0-0.007-0.003-0.014-0.003-0.021    V16.839z"></path><path fill="#000000" d="M62.114,16.746c0,0.017,0.007,0.035,0.007,0.052v-0.052H62.114z"></path></g><path fill="#000000" d="M54.027,87.541c0,1.819-1.475,3.292-3.294,3.292l0,0c-1.819,0-3.293-1.473-3.293-3.292V44.745   c0-1.819,1.475-3.293,3.293-3.293l0,0c1.819,0,3.294,1.474,3.294,3.293V87.541z"></path><path fill="#000000" d="M34.662,77.541c-0.447,1.464-1.998,2.29-3.464,1.842l0,0c-1.465-0.447-2.29-1.998-1.843-3.463l10.54-34.492   c0.449-1.466,1.999-2.291,3.464-1.843l0,0c1.466,0.449,2.291,1.999,1.842,3.465L34.662,77.541z"></path><path fill="#000000" d="M66.806,77.541c0.445,1.464,1.996,2.29,3.463,1.842l0,0c1.466-0.447,2.29-1.998,1.843-3.463l-10.54-34.492   c-0.448-1.466-1.998-2.291-3.463-1.843l0,0c-1.466,0.449-2.292,1.999-1.843,3.465L66.806,77.541z"></path></g></svg>