<svg xmlns="http://www.w3.org/2000/svg" xmlns:xlink="http://www.w3.org/1999/xlink" version="1.1" x="0px" y="0px" viewBox="0 0 100 100" enable-background="new 0 0 100 100" xml:space="preserve"><path d="M100,90.277c-1.736,0.695-3.473,1.39-5.556,1.39c-4.167,0-6.944-2.778-11.111-2.778c-4.166,0-6.944,2.778-11.11,2.778  c-4.167,0-6.945-2.778-11.111-2.778c-4.167,0-6.944,2.778-11.111,2.778c-4.167,0-6.944-2.778-11.111-2.778  c-4.167,0-6.944,2.778-11.111,2.778s-6.944-2.778-11.111-2.778c-4.167,0-6.944,2.778-11.111,2.778c-2.083,0-3.819-0.692-5.556-1.387  v8.334C1.736,99.309,3.472,100,5.556,100c4.167,0,6.944-2.777,11.111-2.777c4.167,0,6.945,2.777,11.111,2.777  s6.944-2.777,11.111-2.777C43.056,97.223,45.833,100,50,100c4.167,0,6.944-2.777,11.111-2.777c4.166,0,6.944,2.777,11.111,2.777  c4.166,0,6.944-2.777,11.11-2.777c4.167,0,6.944,2.777,11.111,2.777c2.083,0,3.819-0.694,5.556-1.389V90.277z"></path><path d="M84.723,12.5l-5.556,20.833l-8.334,6.944l-1.389,13.889l-1.389,9.722c0,0-11.111,8.334-18.056,8.334  c-11.111,0-11.111,1.39-15.278-2.778c-2.195-2.196-4.397-11.474-5.556-16.667l-8.333-5.555L9.722,18.056H0v63.892  c1.736,0.694,3.472,1.386,5.556,1.386c4.167,0,6.944-2.777,11.111-2.777c4.167,0,6.945,2.777,11.111,2.777s6.944-2.777,11.111-2.777  c4.167,0,6.945,2.777,11.111,2.777c4.167,0,6.944-2.777,11.111-2.777c4.166,0,6.944,2.777,11.111,2.777  c4.166,0,6.944-2.777,11.11-2.777c4.167,0,6.944,2.777,11.111,2.777c2.083,0,3.819-0.694,5.556-1.389V12.5H84.723z"></path><path d="M52.083,43.316V12.398l4.404-2.202c0.561-0.281,0.966-0.799,1.103-1.412l1.389-6.25c0.136-0.617-0.013-1.263-0.409-1.755  C58.173,0.286,57.576,0,56.944,0H50h-6.944c-0.632,0-1.229,0.286-1.625,0.78c-0.396,0.493-0.546,1.138-0.409,1.755l1.389,6.25  c0.136,0.613,0.541,1.131,1.102,1.412l4.404,2.202v30.917l-9.028,1.128l1.389,12.5c0,4.167,9.722,9.723,9.722,9.723  s9.723-5.556,9.723-9.723l1.389-12.5L52.083,43.316z M46.263,6.913l-0.61-2.747H50h4.347l-0.61,2.747L50,8.781L46.263,6.913z"></path></svg>