<svg xmlns="http://www.w3.org/2000/svg" xmlns:xlink="http://www.w3.org/1999/xlink" version="1.1" x="0px" y="0px" viewBox="0 0 100 97.223" enable-background="new 0 0 100 97.223" xml:space="preserve"><path d="M93.693,89.603c0-4.21-7.582-15.992-7.582-15.992s-7.696,11.782-7.696,15.992c0,4.207,3.421,7.62,7.639,7.62  C90.272,97.223,93.693,93.81,93.693,89.603z"></path><g><path d="M38.889,23.611H23.611V8.333h4.167V0H0v8.333h4.167v23.611c0,6.137,4.975,11.111,11.111,11.111h23.611v4.167h8.333V19.445   h-8.333V23.611z"></path><path d="M95.833,58.334V34.723c0-6.136-4.974-11.111-11.11-11.111H61.111v-4.167h-8.334v27.778h8.334v-4.167h15.277v15.278h-4.166   v8.333H100v-8.333H95.833z"></path></g></svg>