<svg xmlns="http://www.w3.org/2000/svg" xmlns:xlink="http://www.w3.org/1999/xlink" version="1.1" x="0px" y="0px" viewBox="0 0 100 100" enable-background="new 0 0 100 100" xml:space="preserve"><path d="M65.771,59.034c0-0.307-0.104-0.566-0.357-0.794c-0.242-0.215-0.621-0.385-0.937-0.554c-0.326-0.17-0.602-0.329-0.621-0.521  c0-0.011,0-0.011,0-0.021c0-0.237,0.356-0.521,0.863-0.85c0.283-0.191,0.631-0.406,1.168-0.328l-1.916-0.995  c0.832-0.814,2.137-2.037,2.137-3.101c0-0.171-0.031-0.341-0.105-0.498c-0.558-1.224-3.473-2.05-4.903-1.552l-0.579-2.784  c1.59-0.09,3.483-0.158,5.199-0.407s3.253-0.668,4.137-1.482c2.305-2.139-0.011-6.972-0.011-12.234c0-2.354,0.464-4.776,1.988-7.096  c3.326-5.059,11.757-9.575,14.251-9.925v-4.448H50.099H14.114v4.448c2.505,0.351,10.925,4.866,14.251,9.925  c1.537,2.32,1.989,4.753,1.989,7.096c0,5.263-2.315,10.095-0.012,12.234c0.885,0.814,2.422,1.233,4.147,1.482  c1.716,0.249,3.61,0.317,5.189,0.407L39.1,49.82c-1.421-0.498-4.348,0.328-4.904,1.552c-0.074,0.157-0.105,0.327-0.105,0.498  c0,1.062,1.306,2.285,2.138,3.101l-1.905,0.995c0.537-0.078,0.874,0.137,1.168,0.328c0.484,0.328,0.854,0.601,0.854,0.838  c0,0.012,0,0.022,0,0.033c-0.021,0.192-0.296,0.353-0.61,0.521c-0.327,0.169-0.706,0.339-0.947,0.554  c-0.253,0.228-0.357,0.487-0.357,0.794c0,1.198,1.715,2.885,2.199,4.073c0.096,0.249,0.147,0.476,0.147,0.679  c0,2.016-4.378,2.332-7.883,3.282c-4.801,1.302-7.957,3.791-7.957,6.881c0,0.034,0,0.058,0,0.091c0.021,1.166,0.495,2.41,1.294,3.6  c0.79,1.177,1.904,2.309,3.23,3.215c1.231,0.837,2.631,1.493,3.621,1.493c0.705,0,1.21-0.328,1.284-1.177  c0.011-0.092,0.011-0.192,0.011-0.295c0-1.891-1.221-5.637,3.727-8.748h15.998h15.998c4.946,3.111,3.727,6.857,3.727,8.748  c0,0.103,0,0.203,0.011,0.295c0.073,0.849,0.578,1.177,1.283,1.177c1,0,2.4-0.656,3.621-1.493c1.326-0.906,2.441-2.038,3.231-3.215  c0.8-1.188,1.272-2.434,1.294-3.6c0-0.033,0-0.057,0-0.091c0-3.09-3.157-5.579-7.957-6.881c-3.505-0.95-7.884-1.269-7.884-3.282  c0-0.203,0.054-0.43,0.147-0.679C64.056,61.918,65.771,60.232,65.771,59.034z"></path><rect x="0.063" fill="none" width="100.083" height="100"></rect></svg>