<svg xmlns="http://www.w3.org/2000/svg" xmlns:xlink="http://www.w3.org/1999/xlink" version="1.1" x="0px" y="0px" viewBox="0 0 100 100" enable-background="new 0 0 100 100" xml:space="preserve"><g><rect x="-606" width="185" height="99"></rect><rect x="-414" y="-36" width="100" height="30"></rect><text transform="matrix(1 0 0 1 -348 -19.5)" fill="#000000" font-family="'Helvetica'" font-size="2.4">http://thenounproject.com</text><text transform="matrix(1 0 0 1 -406.834 -24.5)"><tspan x="0" y="0" fill="#000000" font-family="'Helvetica-Bold'" font-size="6.1578">The Noun Project</tspan><tspan x="1.12" y="4.8" fill="#000000" font-family="'Helvetica-Bold'" font-size="4">Icon Template</tspan></text><text transform="matrix(1 0 0 1 -592.5 10.5)" fill="#000000" font-family="'Helvetica-Bold'" font-size="6.1578">Reminders</text><line fill="#000000" stroke="#FFFFFF" stroke-miterlimit="10" x1="-406" y1="-14.5" x2="-396" y2="-14.5"></line><line fill="#000000" stroke="#FFFFFF" stroke-miterlimit="10" x1="-593" y1="16.5" x2="-576" y2="16.5"></line><g><g><g><rect x="-584.802" y="31.318" fill="#000000" width="8.721" height="8.642"></rect><path fill="#000000" d="M-578.455,42.312h4.747v-4.703h-4.747V42.312z M-573.266,42.749h-5.63V37.17h5.63V42.749      L-573.266,42.749z M-580.221,44.062h8.279v-8.203h-8.279V44.062L-580.221,44.062z M-571.5,44.5h-9.163v-9.079h9.163V44.5      L-571.5,44.5z"></path><polygon fill="#000000" points="-580.149,44.133 -580.292,43.991 -572.013,35.787 -571.871,35.929     "></polygon></g></g></g><rect x="-593" y="58" fill="none" width="35" height="32.5"></rect><text transform="matrix(1 0 0 1 -593 60.1572)"><tspan x="0" y="0" fill="#000000" font-family="'Helvetica-Bold'" font-size="3">Strokes</tspan><tspan x="0" y="5" fill="#000000" font-family="'Helvetica'" font-size="2.4">Try to keep strokes at 4px</tspan><tspan x="0" y="10" fill="#000000" font-family="'Helvetica'" font-size="2.4">Minimum stroke weight is 2px</tspan><tspan x="0" y="14.5" fill="#000000" font-family="'Helvetica'" font-size="2.4">For thicker strokes use even </tspan><tspan x="0" y="17.5" fill="#000000" font-family="'Helvetica'" font-size="2.4">numbers: 6px, 8px etc.</tspan><tspan x="0" y="22" fill="#000000" font-family="'Helvetica-Bold'" font-size="2.4">Remember to expand strokes </tspan><tspan x="0" y="25" fill="#000000" font-family="'Helvetica-Bold'" font-size="2.4">before saving as an SVG </tspan></text><rect x="-550.5" y="58" fill="none" width="35" height="32.5"></rect><text transform="matrix(1 0 0 1 -550.5 60.1572)"><tspan x="0" y="0" fill="#000000" font-family="'Helvetica-Bold'" font-size="3">Size</tspan><tspan x="0" y="5" fill="#000000" font-family="'Helvetica'" font-size="2.4">Cannot be wider or taller than </tspan><tspan x="0" y="8.5" fill="#000000" font-family="'Helvetica'" font-size="2.4">100px (artboard size)</tspan><tspan x="0" y="13.5" fill="#000000" font-family="'Helvetica'" font-size="2.4">Scale your icon to fill as much of </tspan><tspan x="0" y="16.5" fill="#000000" font-family="'Helvetica'" font-size="2.4">the artboard as possible</tspan></text><rect x="-508" y="58" fill="none" width="35" height="32.5"></rect><text transform="matrix(1 0 0 1 -508 60.1572)"><tspan x="0" y="0" fill="#000000" font-family="'Helvetica-Bold'" font-size="3">Ungroup</tspan><tspan x="0" y="5" fill="#000000" font-family="'Helvetica'" font-size="2.4">If your design has more than one </tspan><tspan x="0" y="8" fill="#000000" font-family="'Helvetica'" font-size="2.4">shape, make sure to ungroup</tspan></text><rect x="-464" y="58" fill="none" width="35" height="32.5"></rect><text transform="matrix(1 0 0 1 -464 60.1572)"><tspan x="0" y="0" fill="#000000" font-family="'Helvetica-Bold'" font-size="3">Save as</tspan><tspan x="0" y="5" fill="#000000" font-family="'Helvetica'" font-size="2.4">Save as .SVG and make sure </tspan><tspan x="0" y="8" fill="#000000" font-family="'Helvetica'" font-size="2.4">“Use Artboards” is checked</tspan></text><text transform="matrix(1.0074 0 0 1 -539.542 30.5933)" fill="#000000" font-family="'Helvetica'" font-size="2.5731">100px</text><text transform="matrix(1.0074 0 0 1 -455 39)" fill="#000000" font-family="'Helvetica-Bold'" font-size="5.1462">.SVG</text><rect x="-540.514" y="34.815" fill="#000000" width="10.261" height="10.185"></rect><rect x="-540.477" y="31.766" fill="#000000" width="0.522" height="2.337"></rect><rect x="-530.812" y="31.766" fill="#000000" width="0.523" height="2.337"></rect><rect x="-541" y="32.337" fill="#000000" width="11.233" height="0.572"></rect><g><rect x="-497.805" y="33.844" fill="#000000" width="10.305" height="10.156"></rect><rect x="-490.809" y="28.707" fill="#000000" width="3.308" height="3.261"></rect></g><rect x="-592.5" y="22.5" fill="#000000" stroke="#FFFFFF" stroke-miterlimit="10" width="30" height="30"></rect><rect x="-550.5" y="22.5" fill="#000000" stroke="#FFFFFF" stroke-miterlimit="10" width="30" height="30"></rect><rect x="-507.5" y="22.5" fill="#000000" stroke="#FFFFFF" stroke-miterlimit="10" width="30" height="30"></rect><rect x="-463.5" y="22.5" fill="#000000" stroke="#FFFFFF" stroke-miterlimit="10" width="30" height="30"></rect></g><g><path fill="#000000" d="M-414,23.886v5.878v18.649c14.713,0,37.475,8.95,37.475,27.701h25.051   c0-18.751,22.762-27.701,37.475-27.701V29.764v-5.878H-414z M-410.851,32.914h7.484v13.625c-2.507-0.567-5.028-0.975-7.484-1.156   V32.914z M-400.217,32.914h6.298v16.673c-2.025-0.868-4.141-1.614-6.298-2.237V32.914z M-390.77,51.056V32.914h6.299V55.04   c-1.133-0.872-2.338-1.708-3.637-2.499C-388.962,52.021-389.853,51.528-390.77,51.056z M-381.321,57.767V32.914h6.298v34.233   C-376.345,63.729-378.458,60.584-381.321,57.767z M-371.874,32.914h6.299v40.051h-6.299V32.914z M-362.426,32.914h6.299v40.051   h-6.299V32.914z M-352.978,67.146V32.914h6.299v24.853C-349.542,60.584-351.655,63.729-352.978,67.146z M-343.529,55.04V32.914   h6.299v18.142c-0.917,0.473-1.808,0.966-2.661,1.485C-341.19,53.332-342.396,54.168-343.529,55.04z M-334.081,32.914h6.299V47.35   c-2.158,0.623-4.273,1.369-6.299,2.237V32.914z M-317.149,45.383c-2.456,0.181-4.978,0.589-7.483,1.156V32.914h7.483V45.383z"></path><path fill="#000000" d="M-176.817,56.425c-0.392-0.139-1.339-2.202-1.339-6.425c0-4.262,0.965-6.325,1.349-6.428   c0.511-0.077,0.863-0.553,0.786-1.064c-0.075-0.504-0.55-0.855-1.044-0.789c-0.006,0-0.013,0.001-0.019,0.002   c-0.537,0-2.15-2.133-3.325-6.21c-1.105-3.84-0.786-5.874-0.468-6.074c0.466-0.223,0.663-0.781,0.44-1.247   c-0.176-0.367-0.554-0.568-0.942-0.527c-0.116,0.008-0.233,0.037-0.345,0.09c-1.233,0-4.739-3.87-6.498-7.679   c-0.939-2.031-0.798-2.838-0.71-2.942c0.004-0.003,0.008-0.006,0.012-0.01c0,0,0,0,0-0.001c0.369-0.351,0.391-0.935,0.044-1.311   c-0.34-0.369-0.906-0.404-1.287-0.084c-0.012,0.01-0.023,0.02-0.034,0.03c-0.015,0.011-0.091,0.04-0.249,0.04   c-2.062,0-7.337-3.82-9.252-6.701c-0.658-0.991-0.557-1.347-0.557-1.348c0.002-0.003,0.004-0.006,0.005-0.009   c0.254-0.445,0.103-1.012-0.341-1.271c-0.435-0.254-0.989-0.118-1.259,0.303c-0.007,0.011-0.014,0.022-0.02,0.033   c-0.008,0.008-0.209,0.208-1.059,0.208c-2.972,0-8.78-2.363-10.535-4.285c-0.377-0.413-0.378-0.609-0.378-0.609   c0-0.001,0-0.002,0-0.004c0.001-0.005,0.003-0.01,0.004-0.016c0,0,0-0.001,0-0.001c0.104-0.496-0.206-0.987-0.702-1.103   c-0.487-0.115-0.979,0.177-1.113,0.657c-0.003,0.013-0.007,0.027-0.01,0.041c-0.094,0.249-1.37,0.931-4.663,0.931   c-4.551,0-8.013-1.222-8.158-1.88c0-0.001,0-0.003,0-0.005c0,0,0,0,0-0.001s0-0.001,0-0.002c-0.041-0.51-0.477-0.898-0.997-0.86   c-0.5,0.035-0.881,0.455-0.871,0.95c0.001,0.016,0.002,0.032,0.003,0.048c-0.064,0.958-5.622,3.301-10.348,3.301   c-1.608,0-2.134-0.341-2.185-0.429c-0.001-0.002-0.001-0.003-0.002-0.005c-0.001-0.002-0.003-0.005-0.004-0.008   c0,0,0.001-0.001,0-0.002c-0.001-0.001-0.001-0.001-0.001-0.002c0,0-0.001,0-0.001,0c-0.192-0.47-0.727-0.702-1.203-0.519   c-0.467,0.181-0.707,0.695-0.55,1.166c0.005,0.014,0.01,0.028,0.015,0.043c0.002,0.015,0.023,0.293-0.486,0.935   c-1.908,2.403-7.688,5.59-10.14,5.59c-0.332,0-0.479-0.066-0.502-0.087c-0.001-0.001-0.001-0.002-0.002-0.003   c-0.001,0-0.001-0.002-0.002-0.002c-0.002-0.003-0.005-0.005-0.007-0.008c-0.323-0.394-0.902-0.458-1.304-0.142   c-0.393,0.31-0.47,0.87-0.184,1.273c0.01,0.013,0.02,0.026,0.029,0.04c0.053,0.095,0.081,0.724-0.725,2.118   c-2.045,3.536-6.396,7.323-7.917,7.323c-0.061,0-0.094-0.009-0.097-0.01s-0.003-0.003-0.005-0.003c0,0-0.001,0-0.001,0   c-0.002-0.001-0.005-0.003-0.008-0.005c-0.425-0.281-0.998-0.171-1.288,0.25c-0.283,0.412-0.192,0.97,0.2,1.27   c0.014,0.01,0.027,0.021,0.041,0.03c0.195,0.188,0.351,1.648-0.867,4.725c-1.576,3.981-3.903,6.863-4.705,6.863   c-0.001,0-0.003-0.001-0.004-0.001h-0.001l-0.001,0l0,0c-0.497-0.149-1.015,0.127-1.166,0.617c-0.148,0.476,0.102,0.98,0.562,1.152   c0.018,0.006,0.035,0.012,0.053,0.018c0.367,0.186,0.99,2.322,0.36,6.529c-0.635,4.244-1.868,6.118-2.271,6.185   c-0.517,0-0.938,0.418-0.938,0.935c0,0.498,0.387,0.904,0.877,0.933c0.02,0.001,0.039,0.002,0.058,0.002   c0.409,0.072,1.641,1.947,2.274,6.185c0.63,4.211,0.005,6.348-0.358,6.528c-0.493,0.152-0.769,0.677-0.615,1.17   c0.086,0.279,0.291,0.488,0.543,0.59c0.192,0.078,0.414,0.094,0.629,0.026c0.799,0,3.126,2.88,4.701,6.858   c1.222,3.083,1.064,4.546,0.871,4.728c-0.002,0.002-0.005,0.003-0.007,0.005s-0.005,0.003-0.008,0.006l0,0   c-0.414,0.296-0.518,0.869-0.229,1.29c0.281,0.412,0.832,0.526,1.252,0.273c0.016-0.01,0.032-0.02,0.047-0.031   c0.01-0.003,0.041-0.011,0.1-0.011c1.521,0,5.87,3.785,7.915,7.319c0.811,1.4,0.778,2.03,0.728,2.12   c-0.32,0.404-0.252,0.994,0.153,1.314c0.391,0.309,0.951,0.257,1.277-0.111c0.012-0.014,0.024-0.028,0.036-0.043   c0.027-0.023,0.175-0.089,0.503-0.089c2.451,0,8.231,3.188,10.14,5.591c0.521,0.656,0.487,0.933,0.487,0.933   c-0.001,0.004-0.003,0.007-0.004,0.01c-0.179,0.479,0.06,1.017,0.538,1.202c0.466,0.179,0.986-0.037,1.189-0.486   c0.007-0.016,0.014-0.032,0.021-0.049c0.055-0.092,0.582-0.431,2.186-0.431c4.725,0,10.283,2.342,10.348,3.301   c-0.035,0.514,0.353,0.962,0.867,0.998c0.022,0.001,0.045,0.002,0.066,0.002c0.469,0,0.868-0.35,0.927-0.816   c0.002-0.018,0.004-0.036,0.005-0.055c0.148-0.661,3.61-1.882,8.159-1.882c3.294,0,4.57,0.683,4.661,0.93   c0.001,0.002,0.001,0.002,0.001,0.004c0.119,0.5,0.621,0.812,1.123,0.694c0.487-0.113,0.795-0.587,0.708-1.074   c-0.003-0.016-0.007-0.031-0.01-0.049c0-0.012,0.011-0.208,0.378-0.609c1.756-1.923,7.564-4.285,10.535-4.285   c0.862,0,1.058,0.205,1.058,0.205c0.002,0.004,0.004,0.007,0.005,0.009c0.001,0.001,0.002,0.004,0.004,0.005   c0.264,0.437,0.829,0.582,1.271,0.324c0.434-0.254,0.589-0.8,0.358-1.24c-0.007-0.013-0.014-0.025-0.021-0.038   c-0.004-0.015-0.092-0.374,0.556-1.35c1.915-2.881,7.189-6.701,9.253-6.701c0.159,0,0.235,0.029,0.248,0.039   c0.38,0.35,0.971,0.325,1.321-0.056c0.349-0.379,0.324-0.971-0.055-1.32c-0.089-0.107-0.229-0.915,0.709-2.944   c1.759-3.808,5.262-7.675,6.535-7.675c0.001,0,0.002,0,0.002,0c0.003,0.002,0.007,0.003,0.01,0.005   c-0.003,0.001,0.002,0.001,0.003,0.001c0.463,0.213,1.015,0.017,1.235-0.445c0.217-0.452,0.037-0.991-0.399-1.227   c-0.013-0.008-0.026-0.014-0.04-0.021c-0.319-0.202-0.639-2.233,0.466-6.068c1.174-4.082,2.789-6.216,3.324-6.217   c0.027,0.004,0.055,0.008,0.082,0.009c0.025,0.002,0.052,0.003,0.074,0.002c0.515-0.003,0.93-0.421,0.93-0.936   C-176,56.876-176.356,56.482-176.817,56.425z M-182.582,34.572c0.396,1.747,1.535,5.433,3.145,7.512l-7.629,1.143l-0.001-0.008   c-1.3,0.2-2.947-2.154-3.586-4.969c-0.479-2.107-0.234-3.867,0.578-4.385l7.037-3.381   C-183.112,31.755-182.882,33.25-182.582,34.572z M-198.615,75.223c-0.025,0-0.052,0.004-0.078,0.005   c0.025-0.028,0.053-0.055,0.078-0.082C-198.613,75.17-198.616,75.198-198.615,75.223z M-211.628,82.275   c-0.924,0.253-1.84,0.618-2.678,1.062c-2.32,0.812-4.748,1.384-7.26,1.689c-0.199-0.009-0.4-0.017-0.607-0.017   c-0.877,0-1.76,0.089-2.599,0.257c-0.343,0.01-0.685,0.026-1.03,0.026c-2.151,0-4.257-0.207-6.303-0.582   c-0.994-0.354-2.045-0.588-3.033-0.696c-2.508-0.698-4.906-1.664-7.157-2.875c-0.65-0.464-1.355-0.876-2.078-1.216   c-2.591-1.633-4.955-3.596-7.035-5.83c-0.131-0.146-0.265-0.29-0.402-0.43c-5.64-6.265-9.08-14.568-9.08-23.665   c0-9.096,3.44-17.399,9.08-23.664c0.138-0.141,0.272-0.285,0.404-0.432c2.079-2.234,4.442-4.196,7.033-5.829   c0.723-0.339,1.428-0.752,2.079-1.216c2.251-1.211,4.648-2.177,7.156-2.875c0.988-0.109,2.039-0.342,3.033-0.697   c2.046-0.375,4.151-0.582,6.303-0.582c0.347,0,0.688,0.017,1.032,0.027c0.839,0.167,1.72,0.256,2.596,0.256   c0.207,0,0.408-0.007,0.607-0.017c2.511,0.306,4.94,0.877,7.261,1.689c0.838,0.445,1.754,0.81,2.678,1.063   c2.492,1.112,4.835,2.502,6.982,4.14c0.461,0.43,0.962,0.838,1.488,1.204c7.604,6.479,12.445,16.145,12.445,26.931   s-4.841,20.451-12.445,26.931c-0.526,0.367-1.027,0.774-1.488,1.204C-206.793,79.773-209.136,81.164-211.628,82.275z    M-248.889,78.99c-0.009,0.002-0.02,0.001-0.028,0.002c0-0.008-0.003-0.018-0.003-0.026   C-248.91,78.975-248.898,78.982-248.889,78.99z M-256.417,29.203c-0.006-0.03-0.006-0.065-0.013-0.095   c0.031-0.005,0.062-0.014,0.094-0.02C-256.362,29.127-256.391,29.164-256.417,29.203z M-261.16,39.184   c-0.021-0.039-0.035-0.083-0.058-0.12c0.037-0.018,0.072-0.04,0.108-0.059C-261.127,39.064-261.142,39.125-261.16,39.184z    M-262.758,50.109c-0.035-0.035-0.065-0.076-0.102-0.109c0.036-0.033,0.066-0.075,0.102-0.109   c-0.001,0.037-0.003,0.073-0.003,0.109S-262.759,50.072-262.758,50.109z M-261.16,60.816c0.019,0.059,0.033,0.119,0.051,0.179   c-0.036-0.019-0.071-0.041-0.108-0.059C-261.195,60.898-261.181,60.854-261.16,60.816z M-256.417,70.797   c0.026,0.039,0.055,0.076,0.08,0.114c-0.03-0.006-0.062-0.016-0.093-0.021C-256.423,70.861-256.423,70.828-256.417,70.797z    M-248.92,21.035c0-0.009,0.003-0.019,0.003-0.028c0.009,0.001,0.02,0.001,0.029,0.002   C-248.898,21.018-248.909,21.026-248.92,21.035z M-192.424,34.054c-0.029-0.063-0.058-0.128-0.088-0.191   c0.046,0.016,0.091,0.035,0.137,0.049C-192.394,33.957-192.406,34.007-192.424,34.054z M-198.615,24.855   c-0.025-0.027-0.053-0.054-0.078-0.082c0.026,0,0.053,0.004,0.078,0.004C-198.616,24.803-198.613,24.83-198.615,24.855z    M-192.424,65.946c0.018,0.047,0.03,0.097,0.049,0.143c-0.046,0.013-0.091,0.033-0.137,0.048   C-192.481,66.074-192.453,66.01-192.424,65.946z M-189.23,55.362c0.037,0.051,0.069,0.108,0.108,0.157   c-0.05,0.034-0.095,0.079-0.144,0.114C-189.252,55.544-189.244,55.452-189.23,55.362z M-189.23,44.638   c-0.014-0.09-0.021-0.182-0.035-0.272c0.049,0.036,0.094,0.081,0.144,0.115C-189.161,44.529-189.193,44.587-189.23,44.638z    M-190.285,20.004c1.003,2.572,3.854,6.964,6.453,8.786l-6.942,3.336l-0.01-0.02c-1.443,0.69-4.392-2.082-5.543-5.036   c-0.552-1.411-0.565-2.551-0.049-3.074l5.688-5.239C-190.592,19.145-190.459,19.56-190.285,20.004z M-201.448,9.816   c1.625,2.689,6.312,6.492,9.505,7.556l-5.666,5.217l-0.004-0.005c-0.236,0.218-0.562,0.323-0.998,0.323   c-0.976,0-2.253-0.541-3.444-1.357c-0.479-0.328-0.943-0.703-1.369-1.103c-0.636-0.596-1.187-1.251-1.565-1.912   c-0.247-0.431-0.592-1.18-0.453-1.794L-201.448,9.816z M-216.132,11.915l1.751-7.484c2.529,2.275,8.227,4.384,11.317,4.443   l-3.836,6.649l-0.046-0.027c-0.382,0.654-1.423,0.751-2.01,0.751c-0.64,0-1.34-0.107-2.045-0.291   c-0.888-0.231-1.784-0.587-2.576-1.021c-0.868-0.476-1.612-1.044-2.086-1.641C-216.064,12.786-216.222,12.322-216.132,11.915z    M-220.325,4.49c1.366,0,2.886-0.107,4.118-0.463l-1.744,7.45l-0.002,0c-0.203,0.871-1.633,1.5-3.563,1.618   c-0.215,0.013-0.431,0.025-0.657,0.025c-0.827,0-1.629-0.092-2.359-0.25c-1.606-0.347-2.845-1.021-3.169-1.792l-0.552-7.949   C-225.887,4.199-222.136,4.49-220.325,4.49z M-240.696,6.038c3.209,0,8.118-1.208,10.574-2.827l0.531,7.663l-0.063,0.004   c0.024,0.364-0.147,0.746-0.511,1.135c-0.531,0.57-1.411,1.08-2.436,1.464c-0.903,0.339-1.918,0.579-2.91,0.669   c-0.29,0.026-0.579,0.041-0.86,0.041c-1.548,0-2.632-0.413-2.899-1.105l-0.003,0.001l-2.754-7.127   C-241.626,6.011-241.183,6.038-240.696,6.038z M-243.766,6.648l2.758,7.137c0.2,0.565-0.13,1.231-0.448,1.695   c-0.426,0.621-1.061,1.23-1.795,1.77c-0.632,0.465-1.337,0.877-2.052,1.201c-1.006,0.457-2.026,0.74-2.872,0.74   c-0.655,0-1.119-0.166-1.379-0.494l-0.004,0.003l-4.735-5.992C-251.074,12.162-245.894,9.207-243.766,6.648z M-255.936,14.321   c0.074-0.153,0.126-0.294,0.186-0.44l4.745,6.004c0.532,0.72,0.005,2.015-0.251,2.543c-0.352,0.725-0.851,1.445-1.422,2.101   c-0.181,0.208-0.367,0.408-0.56,0.6c-1.261,1.257-2.736,2.157-3.791,2.157c-0.278,0-0.506-0.063-0.695-0.194l-0.005,0.006   l-6.284-4.314C-261.053,21.312-257.273,17.084-255.936,14.321z M-265.587,26.802c0.292-0.94,0.458-1.755,0.525-2.469l6.312,4.333   c0.672,0.508,0.756,1.962,0.205,3.737c-0.92,2.967-3.121,5.552-4.514,5.122l-0.003,0.008l-7.276-2.258   C-268.255,33.283-266.329,29.197-265.587,26.802z M-270.949,43.211c0.176-1.16,0.519-4.012,0.072-6.145l7.332,2.274   c1.021,0.406,1.521,2.634,1.139,5.152c-0.389,2.564-1.563,4.572-2.676,4.572v0.008h-7.612   C-271.64,47.18-271.124,44.365-270.949,43.211z M-270.949,56.789c-0.174-1.15-0.688-3.952-1.735-5.845h7.68   c1.089,0.089,2.219,2.059,2.599,4.564c0.39,2.574-0.14,4.851-1.206,5.182l0.001,0.004l-7.263,2.227   C-270.432,60.789-270.773,57.946-270.949,56.789z M-265.587,73.2c-0.743-2.4-2.674-6.497-4.762-8.484l7.322-2.246   c1.394-0.384,3.567,2.184,4.481,5.128c0.561,1.806,0.467,3.285-0.237,3.769l0.004,0.005l-6.282,4.312   C-265.126,74.966-265.293,74.146-265.587,73.2z M-255.745,86.131c-0.062-0.15-0.114-0.295-0.19-0.452   c-1.336-2.758-5.104-6.977-8.062-8.455l6.312-4.333c0.183-0.116,0.397-0.177,0.658-0.177c1.054,0,2.53,0.9,3.79,2.157   c0.193,0.192,0.381,0.394,0.562,0.601c0.57,0.657,1.069,1.376,1.421,2.101c0.259,0.535,0.8,1.856,0.235,2.571l0.004,0.003   L-255.745,86.131z M-243.773,93.343c-2.131-2.554-7.292-5.498-10.507-6.048l4.753-6.016c0.264-0.31,0.716-0.47,1.353-0.47   c0.846,0,1.866,0.283,2.872,0.74c0.714,0.324,1.42,0.736,2.052,1.2c0.734,0.541,1.369,1.149,1.795,1.771   c0.244,0.356,0.496,0.832,0.51,1.289L-243.773,93.343z M-230.183,96.746c-2.476-1.598-7.333-2.783-10.514-2.783   c-0.491,0-0.939,0.027-1.343,0.082l2.688-7.159l0.081,0.032c0.268-0.692,1.352-1.105,2.899-1.105c0.281,0,0.57,0.015,0.86,0.041   c0.992,0.091,2.007,0.33,2.91,0.669c1.024,0.385,1.904,0.895,2.436,1.464c0.363,0.39,0.535,0.771,0.511,1.136l0,0L-230.183,96.746z    M-220.324,95.511c-1.828,0-5.632,0.296-7.995,1.39l0.53-7.652c0.066-0.901,1.427-1.721,3.255-2.116   c0.73-0.158,1.533-0.251,2.361-0.251c0.227,0,0.443,0.012,0.658,0.025c1.929,0.118,3.358,0.747,3.562,1.618l0.128-0.03l1.641,7.487   C-217.42,95.62-218.95,95.511-220.324,95.511z M-214.363,95.554l-1.75-7.98c0.064-0.271,0.208-0.561,0.451-0.867   c0.473-0.597,1.218-1.164,2.085-1.641c0.793-0.435,1.689-0.79,2.577-1.021c0.705-0.185,1.406-0.292,2.045-0.292   c0.578,0,1.595,0.098,1.99,0.727l3.882,6.649C-206.171,91.194-211.831,93.289-214.363,95.554z M-201.459,90.2l-3.874-6.638   l0.003-0.002c-0.379-0.648,0.05-1.592,0.34-2.096c0.379-0.66,0.93-1.315,1.565-1.912c0.426-0.4,0.89-0.774,1.369-1.103   c1.191-0.816,2.469-1.357,3.444-1.357c0.436,0,0.762,0.106,0.998,0.324l0.046-0.052l5.625,5.263   C-195.141,83.692-199.842,87.51-201.459,90.2z M-190.285,79.996c-0.174,0.444-0.307,0.859-0.401,1.246l-5.873-5.495   c-0.315-0.594-0.241-1.604,0.232-2.817c1.14-2.922,4.031-5.66,5.491-5.053l6.986,3.345   C-186.444,73.052-189.284,77.431-190.285,79.996z M-182.582,65.429c-0.301,1.329-0.532,2.832-0.453,4.108l-6.945-3.323l0.003-0.007   c-0.896-0.429-1.174-2.262-0.676-4.456c0.588-2.59,2.055-4.788,3.272-4.964l7.927,1.152   C-181.056,60.021-182.187,63.688-182.582,65.429z M-186.797,54.982l0.007-0.051c-1.138-0.17-1.994-2.29-1.994-4.932   c0-2.58,0.818-4.658,1.916-4.912l7.694-1.153c-0.765,2.036-0.854,4.896-0.854,6.064c0,1.174,0.09,4.054,0.863,6.092   L-186.797,54.982z"></path><path fill="#000000" d="M-39.553,56.863L-38,55.967l-0.183-0.805c-0.033-0.143-0.826-3.584-3.522-10.715   c-4.025-10.648-10.579-13.563-22.86-15.752c-12.312-2.195-41.832,0.475-50.974,1.86c-8.312,1.259-13.332,3.875-14.92,7.772   c-1.336,3.28-6.872,14.359-6.928,14.47L-138,54.025l2.059,0.551l-0.29,0.528l0.948,0.547c0.055,0.031,1.367,0.782,2.992,1.188   c0.916,0.229,1.809,0.329,2.419,0.373l0.759,2.039h1.431v0.551l1.925,1.116l0.116,0.059c2.212,0.961,8.193,3.597,9.289,4.254   c0.438,0.263,1.099,0.659,1.765,0.226c0.013-0.009,0.026-0.018,0.04-0.027c0.233,0.47,0.753,0.67,0.981,0.758   c1.214,0.467,9.11,2.965,11.423,3.524c0.438,0.105,1.029,0.249,1.485,0.026c0.137,0.138,0.329,0.262,0.6,0.352l0.303,0.103   c0.951,0.325,1.934,0.661,5.024,1.095c3.064,0.43,7.164,0.786,9.071,0.85c0.052,0.001,0.114,0.003,0.185,0.003   c0.276,0,0.676-0.031,0.989-0.243c0.194,0.144,0.454,0.24,0.791,0.24h6.498c2.31,0,4.359-0.145,5.855-0.25   c0.817-0.058,1.522-0.107,2.012-0.115c0.493-0.008,0.87-0.123,1.128-0.343c0.357,0.12,0.718,0.097,0.91,0.084   c1.117-0.074,2.506-0.26,3.848-0.438c0.388-0.052,0.771-0.104,1.141-0.151c1.592-0.204,4.582-0.881,5.564-1.103l0.156-0.035   c0.105-0.024,0.346-0.078,0.582-0.233c0.253,0.017,0.541-0.033,0.867-0.148c0.083-0.029,8.452-3.071,10.731-5.351l0.454-0.453   l-0.163-0.622c-0.007-0.025-0.064-0.245-0.16-0.594c1.383-0.449,3.698-1.352,5.046-2.698l0.5-0.5l-0.237-0.667   C-38.971,58.496-39.2,57.854-39.553,56.863z M-57.632,67.727c-1.205,0.271-3.641,0.808-4.958,0.977   c-0.373,0.048-0.76,0.1-1.15,0.152c-1.109,0.148-2.246,0.299-3.204,0.384c-0.22-1.618-0.358-2.991-0.434-4.152   c0.103,0.11,0.247,0.18,0.407,0.18c0.012,0,0.022,0,0.034-0.001c3.749-0.228,5.187-2.085,5.281-3.748   c0.055-0.952,0.047-2.058,0.03-2.837c2.111,1.262,3.315,5.127,4.294,8.581c-0.093,0.098-0.177,0.207-0.242,0.334   C-57.596,67.641-57.615,67.684-57.632,67.727z M-44.906,60.237c-0.123-0.392-0.255-0.799-0.395-1.208   c-0.591-1.733-0.575-3.807-0.42-4.777c0.098-0.61-0.317-1.184-0.929-1.281c-0.605-0.097-1.184,0.317-1.281,0.928   c-0.176,1.102-0.267,3.573,0.513,5.854c0.236,0.694,0.455,1.397,0.637,2.009c0.006,0.046,0.009,0.092,0.021,0.138   c0.021,0.083,0.053,0.159,0.089,0.232c0.081,0.277,0.153,0.531,0.212,0.74c-1.679,1.253-5.541,2.921-7.979,3.877   c-0.038-0.154-0.077-0.31-0.116-0.468c-0.342-1.372-0.735-2.957-1.022-4.546c1.927-0.492,3.708-1.412,3.809-4.658   c0.009-0.309-0.233-0.567-0.542-0.576c-0.31-0.013-0.567,0.232-0.577,0.542c-0.079,2.578-1.386,3.195-2.87,3.583   c-0.265-1.828-0.338-3.598,0.034-4.986c0.16-0.597-0.194-1.211-0.791-1.371c-0.597-0.159-1.211,0.195-1.37,0.792   c-0.576,2.149-0.338,4.768,0.148,7.338c-0.954-2.386-2.203-4.386-4.042-5.036c-0.106-0.133-0.271-0.216-0.46-0.209   c-0.064,0.003-0.124,0.02-0.181,0.041c-0.345-0.058-0.707-0.074-1.091-0.039c-0.309,0.029-0.534,0.302-0.506,0.609   c0.029,0.308,0.305,0.534,0.609,0.505c0.226-0.021,0.442-0.016,0.652,0.012c0.021,0.735,0.044,2.08-0.019,3.172   c-0.086,1.51-1.708,2.543-4.231,2.695c-0.172,0.011-0.318,0.099-0.413,0.227c-0.212-4.595,0.642-5.514,0.976-5.693   c0.545-0.292,0.75-0.97,0.458-1.515s-0.971-0.749-1.516-0.457c-1.975,1.06-2.351,4.404-2.145,8.139   c-0.947-3.733-2.795-4.884-4.722-6.08l-0.175-0.108c-0.262-0.164-0.607-0.083-0.771,0.18c-0.163,0.262-0.083,0.607,0.18,0.771   l0.175,0.108c0.686,0.425,1.344,0.834,1.943,1.363c0.075,1.363-0.132,2.293-0.637,2.825c-0.75,0.791-2.186,0.759-3.849,0.723   c-0.352-0.008-0.709-0.016-1.067-0.016c-0.31,0-0.56,0.25-0.56,0.56c0,0.309,0.25,0.56,0.56,0.56c0.351,0,0.699,0.008,1.043,0.016   c0.34,0.007,0.677,0.015,1.006,0.015c1.462,0,2.789-0.147,3.679-1.086c0.523-0.552,0.825-1.331,0.923-2.351   c0.89,1.314,1.528,3.283,1.735,6.642c-0.201,0.141-0.375,0.336-0.464,0.626c-0.264,0.018-0.548,0.038-0.855,0.06   c-1.545,0.109-3.468,0.244-5.698,0.244h-4.713c-0.103-0.203-0.257-0.352-0.445-0.463c-0.05-4.151,0.03-8.63,2.651-10.117   c0.27-0.152,0.363-0.494,0.211-0.763s-0.493-0.363-0.763-0.211c-3.106,1.763-3.267,6.427-3.223,10.806   c-0.329-0.026-0.678-0.029-1.024-0.029c-0.077,0-0.153,0.001-0.229,0.001c0.298-4.415,0.233-9.215-0.479-10.759   c-0.259-0.562-0.925-0.806-1.485-0.548c-0.562,0.259-0.806,0.924-0.547,1.485c0.378,0.819,0.656,5.002,0.214,10.522   c-2.062-0.137-5.033-0.422-7.39-0.753c-1.411-0.197-2.342-0.371-3.024-0.53c-0.054-0.233-0.188-0.406-0.387-0.549   c1.243-5.137,2.5-9.243,5.209-11.613c0.232-0.204,0.256-0.557,0.053-0.789c-0.204-0.232-0.557-0.257-0.79-0.053   c-2.92,2.555-4.242,6.774-5.521,12.033c-0.294-0.075-0.624-0.146-0.995-0.227c-0.122-0.025-0.239-0.05-0.355-0.074   c1.067-4.271,1.384-7.773,0.859-9.722c-0.161-0.598-0.775-0.951-1.372-0.79c-0.597,0.16-0.95,0.774-0.789,1.371   c0.097,0.36,0.157,0.865,0.168,1.504c-3.427,0.654-5.511-2.009-5.604-2.132c-0.187-0.247-0.537-0.296-0.783-0.109   c-0.247,0.187-0.296,0.537-0.11,0.783c0.025,0.033,2.07,2.681,5.45,2.681c0.327,0,0.669-0.029,1.021-0.083   c-0.096,1.601-0.437,3.775-1.155,6.521c-2.608-0.721-7.776-2.35-9.661-2.996c-0.22-0.615-0.927-0.872-1.524-1.081   c1.543-5.604,2.602-10.398,1.363-13.062c-0.261-0.561-0.927-0.803-1.487-0.542c-0.56,0.261-0.803,0.926-0.542,1.486   c0.435,0.935,0.403,2.536,0.14,4.37c-2.217-0.042-3.82-1.36-4.19-2.47c-0.098-0.293-0.414-0.452-0.707-0.354   c-0.294,0.098-0.452,0.414-0.354,0.708c0.537,1.608,2.536,3.112,5.071,3.224c-0.386,2.127-1.001,4.434-1.528,6.328   c-2.293-1.152-7.789-3.547-8.723-3.953l-0.754-0.437v-0.117c0.508-1.02,2.469-4.979,2.979-6.398c0.66-1.833,0.452-5.1,0.019-6.544   c-0.178-0.592-0.801-0.928-1.394-0.75c-0.592,0.177-0.928,0.801-0.75,1.393c0.324,1.08,0.465,3.821,0.034,5.095   c-1.729-0.538-2.755-1.859-3.115-2.661c-0.127-0.282-0.46-0.408-0.74-0.281c-0.282,0.127-0.407,0.458-0.28,0.74   c0.572,1.272,1.894,2.635,3.713,3.24c-0.647,1.471-1.746,3.709-2.278,4.784h-0.301l-0.388-1.039l0.382-4.383   c0.054-0.615-0.402-1.158-1.018-1.211c-0.607-0.055-1.158,0.402-1.212,1.018l-0.31,3.548c-0.472-0.048-1.058-0.131-1.646-0.278   c-0.548-0.137-1.058-0.324-1.467-0.498c1.474-3.105,4.102-9.712,4.102-11.13c0-0.415-0.229-0.776-0.564-0.971   c0.55-1.18,1.008-2.199,1.291-2.896c1.252-3.072,5.811-5.287,13.183-6.404c2.222-0.336,5.658-0.75,9.755-1.151   c-0.012,0.015-0.025,0.029-0.037,0.045c-0.171,0.257-0.102,0.605,0.155,0.776c2.371,1.581,13.164,4.563,21.045,6.741   c3.444,0.952,6.164,1.704,6.883,1.987c1.533,0.605,3.039,2.821,3.778,4.043c-0.031,0-0.06,0.006-0.091,0.006   c-1.904,0-7.925-1.234-11.909-2.051c-1.674-0.343-2.996-0.614-3.727-0.739c-0.303-0.051-0.593,0.153-0.646,0.458   c-0.052,0.305,0.152,0.594,0.458,0.646c0.712,0.122,2.092,0.404,3.689,0.732c4.269,0.875,10.116,2.074,12.134,2.074   c0.284,0,0.556-0.021,0.821-0.057c0.074,0.035,0.154,0.057,0.236,0.057c0.087,0,0.175-0.021,0.258-0.063   c0.059-0.031,0.108-0.072,0.151-0.118c1.4-0.352,2.629-1.179,4.087-2.161c0.814-0.549,1.738-1.171,2.816-1.794   c0.269-0.155,0.359-0.497,0.205-0.765c-0.154-0.268-0.497-0.359-0.764-0.205c-1.112,0.642-2.054,1.276-2.883,1.835   c-1.371,0.924-2.461,1.655-3.638,1.975c-0.669-1.167-2.513-4.103-4.567-4.914c-0.774-0.306-3.384-1.027-6.996-2.025   c-7.313-2.021-18.333-5.066-20.667-6.56c12.563-1.199,30.789-2.229,39.697-0.642c13.09,2.333,17.836,5.549,21.159,14.34   c0.15,0.399,0.293,0.782,0.433,1.158c-0.29-0.372-0.793-0.537-1.26-0.368c-0.581,0.21-0.882,0.852-0.672,1.434   c0.792,2.185,2.191,6.102,3.162,8.823c-0.029,0.233,0.011,0.478,0.138,0.698c0.056,0.096,0.124,0.178,0.201,0.251   c0.186,0.521,0.346,0.97,0.467,1.311C-42.342,59.29-43.824,59.882-44.906,60.237z"></path><g><path d="M92.598,88.684l-4.116,4.114c-1.912,1.909-6.43,3.589-9.669,3.589H21.188c-3.239,0-7.757-1.68-9.669-3.589l-4.116-4.114    c-0.707-0.707-1.851-0.707-2.555,0c-0.706,0.704-0.706,1.847,0,2.554l4.117,4.117c2.605,2.605,7.974,4.645,12.223,4.645h57.625    c4.249,0,9.617-2.039,12.223-4.645l4.117-4.117c0.706-0.707,0.706-1.85,0-2.554C94.448,87.977,93.305,87.977,92.598,88.684z"></path><path d="M25.825,49.764c0.225,0.092,0.454,0.136,0.685,0.136c0.71,0,1.387-0.423,1.671-1.122c0.38-0.92-0.062-1.977-0.985-2.355    c-4.388-1.799-6.086-5.515-6.738-8.315c-1.019-4.374-0.101-9.425,2.186-12.007l0.823-0.927    c4.577-5.13,10.272-11.512,10.474-23.333c0.016-0.998-0.777-1.821-1.777-1.839c-1.01,0.021-1.819,0.778-1.836,1.776    c-0.179,10.479-5.159,16.062-9.558,20.989l-0.835,0.937c-3.05,3.449-4.281,9.707-2.995,15.228    C18.13,44.055,21.288,47.905,25.825,49.764z"></path><path d="M77.353,26.1c2.285,2.582,3.206,7.633,2.188,12.007c-0.653,2.801-2.352,6.517-6.739,8.315    c-0.923,0.379-1.364,1.436-0.985,2.355c0.287,0.699,0.961,1.122,1.674,1.122c0.228,0,0.46-0.044,0.683-0.136    c4.539-1.858,7.691-5.709,8.889-10.833c1.284-5.521,0.049-11.778-3.001-15.228l-0.834-0.937    c-4.394-4.927-9.377-10.51-9.556-20.989c-0.016-0.998-0.858-1.762-1.836-1.776c-0.997,0.018-1.793,0.841-1.776,1.839    c0.2,11.821,5.896,18.203,10.473,23.333L77.353,26.1z"></path><path d="M98.19,82.53h-6.657c-0.663-2.996-2.795-6.869-5.642-11.018c2.454,0.839,4.813,2.226,6.138,3.765l4.493,5.222    c0.357,0.414,0.861,0.628,1.37,0.628c0.417,0,0.837-0.146,1.179-0.438c0.756-0.65,0.842-1.793,0.189-2.549l-4.493-5.219    c-2.573-2.99-7.654-5.382-12.053-5.785C74.639,56.54,63.808,45.587,61.931,43.713c-1.379-1.378-3.234-2.605-5.184-3.545    c0.49-0.298,1.023-0.647,1.608-1.043c1.582,1.057,4.683,1.522,9.122-1.56c0.723-0.499,1.303-1.078,1.763-1.649    c-0.347,0.84-1.153,1.825-2.451,2.673c-0.834,0.547-1.069,1.669-0.522,2.503c0.347,0.53,0.924,0.817,1.514,0.817    c0.339,0,0.683-0.095,0.989-0.292c3.082-2.021,4.724-5,4.176-7.6c-0.403-1.935-1.977-3.31-4.203-3.683    c-2.814-0.471-5.874,1.191-8.106,2.823c-0.753,0.518-1.436,0.994-2.053,1.422c-4.91,3.419-5.422,3.773-8.586,3.773    c-3.16,0-3.672-0.354-8.585-3.773c-0.637-0.443-1.347-0.937-2.135-1.479c-2.227-1.614-5.246-3.229-8.022-2.767    c-2.227,0.373-3.797,1.748-4.203,3.683c-0.547,2.6,1.094,5.579,4.176,7.6c0.307,0.197,0.65,0.292,0.989,0.292    c0.59,0,1.167-0.287,1.514-0.817c0.547-0.834,0.314-1.956-0.522-2.503c-1.298-0.848-2.104-1.833-2.451-2.673    c0.46,0.571,1.04,1.15,1.761,1.649c4.444,3.082,7.54,2.616,9.124,1.56c0.588,0.396,1.119,0.745,1.611,1.043    c-1.952,0.939-3.805,2.167-5.184,3.545c-1.877,1.874-12.708,12.827-20.784,23.423c-4.396,0.403-9.479,2.795-12.053,5.782    L0.736,78.14c-0.649,0.756-0.563,1.898,0.192,2.549c0.759,0.649,1.898,0.563,2.549-0.189l4.493-5.222    c1.324-1.539,3.684-2.926,6.138-3.765c-2.847,4.148-4.979,8.021-5.642,11.018H1.81c-1,0-1.81,0.807-1.81,1.809    c0,0.997,0.81,1.804,1.81,1.804h48.188H98.19c1,0,1.81-0.807,1.81-1.804C100,83.337,99.19,82.53,98.19,82.53z M51.807,82.53V60.24    c0-0.997-0.81-1.805-1.81-1.805c-0.996,0-1.807,0.808-1.807,1.805v22.29H12.155c2.329-8.006,17.794-25.587,28.468-36.261    c2.295-2.291,6.674-4.301,9.374-4.301c2.706,0,7.086,2.01,9.38,4.301C70.051,56.941,85.519,74.521,87.845,82.53H51.807z"></path></g></g></svg>