<svg xmlns="http://www.w3.org/2000/svg" xmlns:xlink="http://www.w3.org/1999/xlink" version="1.1" x="0px" y="0px" viewBox="0 0 69.625 77.854" enable-background="new 0 0 69.625 77.854" xml:space="preserve"><g><rect x="16.093" y="44.985" transform="matrix(-0.5753 0.8179 -0.8179 -0.5753 72.2138 75.3542)" width="0.904" height="22.877"></rect><path d="M53.85,3.485c-1.599-1.16-3.312-2.135-4.929-2.765c-1.623-0.609-3.127-0.964-4.555-0.523   c-0.518,0.171-1.015,0.493-1.371,0.956C40.394,4.488,26.6,20.917,22.308,26.812C18.032,32.689,7.409,48.729,7.402,48.74   l0.611,0.405l-0.014,0.021l17.567,12.354l1.11,0.838c0.007-0.013,11.583-15.381,15.691-21.374   c4.125-6.016,15.006-24.501,17.281-28.069c0.562-0.881,0.521-1.926,0.221-2.785C59.042,7.806,56.623,5.539,53.85,3.485z    M57.614,11.623C55.291,15.271,44.399,33.76,40.38,39.622c-3.162,4.611-10.957,15.051-14.188,19.361L10.719,48.101   c2.973-4.467,10.238-15.337,13.538-19.869C28.438,22.486,42.23,6.046,44.896,2.636c0.053-0.06,0.096-0.102,0.238-0.152   c0.387-0.163,1.556-0.066,2.914,0.483c1.361,0.528,2.938,1.415,4.384,2.47c2.583,1.839,4.772,4.176,5.151,5.458   C57.735,11.368,57.673,11.523,57.614,11.623z"></path><path d="M7.091,51.403l-0.387,0.701c0,0,1.898,4.146,1.065,7.383c-0.672,2.611-1.085,5.198-4.472,9.784   c0,0,0.226,0.199,0.552,0.474L0,75.527l4.926,1.394l0.229-0.31l2.895-3.924l0.652,0.42c3.193-4.723,5.495-5.976,7.732-7.479   c2.774-1.865,7.315-1.457,7.315-1.457l0.532-0.599L7.091,51.403z M4.44,75.5l-2.481-0.702l2.454-3.687l2.076,1.61L4.44,75.5z    M10.133,61.446c-1.25,4.511-4.638,8.757-4.638,8.757L4.35,69.315c1.998-2.258,4.653-8.255,4.858-10.312   c0.266-2.685-0.773-5.938-0.773-5.938l1.528,1.078C9.962,54.143,11.521,56.426,10.133,61.446z"></path><polygon points="69.625,77.854 4.925,76.919 5.71,75.759 69.599,75.554  "></polygon></g></svg>