<svg xmlns="http://www.w3.org/2000/svg" xmlns:xlink="http://www.w3.org/1999/xlink" version="1.1" x="0px" y="0px" viewBox="0 0 97.223 100" enable-background="new 0 0 97.223 100" xml:space="preserve"><circle cx="18.056" cy="8.333" r="8.333"></circle><path d="M26.389,19.446l-8.333-0.001l-8.333,0.001C2.778,19.446,0,25,0,29.167v25c0,1.534,1.244,2.778,2.778,2.778  c1.534,0,2.778-1.244,2.778-2.778V30.556h1.389c1.389,0.001,4.812-0.478,5.555,2.779c0.92,4.024,0.427,12.58,0,13.888  c-1.077,3.293-4.167,4.167-4.167,6.944v42.361c0,1.918,1.554,3.472,3.472,3.472s3.472-1.554,3.472-3.472V58.333h2.778h2.778v38.194  c0,1.918,1.554,3.472,3.472,3.472s3.472-1.554,3.472-3.472V54.167c0-2.778-3.089-3.651-4.167-6.944  c-0.427-1.308-0.919-9.863,0-13.888c0.743-3.256,4.167-2.777,5.556-2.779h1.389v23.611c0,1.534,1.244,2.778,2.778,2.778  s2.778-1.244,2.778-2.778v-25C36.111,25,33.333,19.446,26.389,19.446z"></path><path d="M95.139,37.5c-2.878,0-6.473,1.547-9.874,3.502c-0.001,0-0.003-0.001-0.004-0.001c-0.023,0.014-0.045,0.029-0.068,0.042  c-0.6,0.344-1.191,0.702-1.775,1.067c-0.067,0.042-0.133,0.085-0.199,0.126c-0.56,0.354-1.107,0.711-1.639,1.069  c-0.018,0.011-0.037,0.023-0.055,0.035h0.001c-2.099,1.414-3.956,2.816-5.284,3.864c2.069-0.033,3.916-0.14,5.535-0.3  c1.52-0.963,3.227-1.952,4.985-2.81c0.004,0.001,0.008,0.002,0.011,0.002c0.668-0.326,1.343-0.629,2.019-0.909  c0.087-0.037,0.175-0.068,0.262-0.103c0.555-0.223,1.109-0.422,1.66-0.6c1.539-0.498,3.046-0.819,4.426-0.819  c1.15,0,2.084-0.933,2.084-2.083C97.223,38.433,96.289,37.5,95.139,37.5z"></path><path d="M92.846,43.335c-1.187,0.255-2.494,0.681-3.918,1.292c1.414,0.415,2.327,0.848,2.663,1.206  c-0.998,1.064-6.969,2.778-16.591,2.778c-9.622,0-15.592-1.713-16.588-2.778c0.996-1.065,6.966-2.778,16.588-2.778  c1.537,0,2.969,0.047,4.313,0.125c1.172-0.826,2.426-1.663,3.729-2.466c-3.771-0.41-7.221-0.437-8.042-0.437  c-1.99,0-19.444,0.156-19.444,5.556c0,6.944,6.944,11.111,8.333,12.501l0,0C63.892,62.383,73.864,62.5,75,62.5  c1.138,0,11.108-0.117,11.111-4.166l0,0c1.389-1.39,8.333-5.557,8.333-12.501C94.445,44.83,93.84,44.008,92.846,43.335z"></path></svg>