<svg xmlns:dc="http://purl.org/dc/elements/1.1/" xmlns:cc="http://creativecommons.org/ns#" xmlns:rdf="http://www.w3.org/1999/02/22-rdf-syntax-ns#" xmlns:svg="http://www.w3.org/2000/svg" xmlns="http://www.w3.org/2000/svg" xmlns:sodipodi="http://sodipodi.sourceforge.net/DTD/sodipodi-0.dtd" xmlns:inkscape="http://www.inkscape.org/namespaces/inkscape" viewBox="0 0 80 80" version="1.1" x="0px" y="0px"><path style="text-indent:0;text-transform:none;direction:ltr;block-progression:tb;baseline-shift:baseline;color:#000000;enable-background:accumulate;" d="m 39.367789,0.67658225 c -1.335634,-0.01 -2.63383,0.1642 -3.881294,0.34930005 -0.0078,0.001 -0.0159,0 -0.02369,0 -3.451637,0.4209 -6.710536,1.763 -9.583332,3.6 l -0.01776,0.012 -0.0148,0.012 c -0.676985,0.4749 -1.26701,0.9681 -1.853311,1.3856 l -0.003,0 c -1.645314,1.1781 -2.925196,2.7034 -4.053007,4.2424997 -0.0082,0.011 -0.01845,0.021 -0.02665,0.033 l 0.003,0 c -1.000353,1.2555 -1.663554,2.6454 -2.329956,3.9227 l -0.01776,0.033 -0.01184,0.035 c -0.970267,2.313 -1.627351,4.7671 -1.95989,7.2415 l -0.003,0.03 -0.003,0.03 c -0.292823,4.2753 0.357402,8.6756 2.238183,12.5972 0.0038,0.01 0.008,0.016 0.01184,0.024 0.886131,1.982 1.951452,3.8157 2.889507,5.6547 l 0.003,0.01 0.003,0.01 c 1.357513,2.5429 2.819359,4.9742 3.943466,7.5139 0.0021,0.01 0.0038,0.01 0.0059,0.015 0.475349,1.1284 0.758528,2.358 0.864484,3.603 l 0,0.015 0.003,0.012 c 0.140701,1.2224 0.123151,2.691 0.778628,4.1211 0.01012,0.028 0.02216,0.053 0.03257,0.08 0.568481,1.4907 1.54396,2.5266 2.051668,3.5734 0.133499,0.3436 0.114031,0.7657 0.02961,1.353 -0.08603,0.5984 -0.248303,1.3407 -0.05033,2.1849 0.146903,0.6264 0.496142,0.9731 0.680929,1.2227 0.04796,0.065 0.0555,0.082 0.07993,0.1214 -0.102489,0.065 -0.226063,0.1363 -0.378952,0.2842 -0.173338,0.1676 -0.382957,0.4647 -0.420399,0.8378 -0.04065,0.4051 0.117815,0.7666 0.272371,0.9888 0.101467,0.1459 0.200671,0.2485 0.290135,0.3375 -0.09204,0.069 -0.187887,0.1492 -0.278293,0.2606 -0.209622,0.2581 -0.338964,0.6342 -0.346385,0.9977 -0.01378,0.6749 0.393599,1.1923 0.710534,1.4773 -0.08872,0.065 -0.184814,0.1425 -0.290135,0.2517 -0.184895,0.1915 -0.403096,0.5328 -0.411517,0.9414 -0.01349,0.6544 0.421663,1.0504 0.639481,1.2405 0.15391,0.1343 0.236721,0.2282 0.257568,0.2398 0.0045,0.021 0.02863,0.1607 0.04737,0.4648 0.01981,0.3214 0.06194,0.844 0.444084,1.3086 0.0024,0 0.0035,0.01 0.0059,0.01 0.454397,0.5568 0.943713,0.9297 1.290804,1.2848 l 0.003,0.01 0.0059,0.01 c 0.582155,0.5761 1.247731,0.923 1.811863,1.2553 0.564132,0.3323 1.017333,0.6421 1.278962,0.9889 l 0.04441,0.056 0.05033,0.05 c -0.02127,-0.02 0.09755,0.2184 0.254608,0.6307 0.07853,0.2061 0.18032,0.4541 0.393754,0.7105 0.213434,0.2564 0.575672,0.4963 0.971064,0.5655 l 0.02961,0.01 0.0296,0 c 2.043701,0.2151 4.120641,0.2159 6.163886,-0.03 l 0,-0.01 c 0.354972,-0.028 0.723405,-0.2004 0.923695,-0.4175 0.236309,-0.2561 0.320672,-0.496 0.390794,-0.6898 0.135477,-0.3745 0.293078,-0.6138 0.142106,-0.4766 0.871159,-0.8451 1.862608,-1.498 2.930955,-2.3685 l 0.0059,0 0.0059,-0.01 c 0.392352,-0.3294 1.039407,-0.6801 1.672716,-1.1428 0.63331,-0.4626 1.327326,-1.1207 1.474356,-2.1197 0.0605,-0.4113 -0.0897,-0.7923 -0.24277,-1.0273 -0.15308,-0.2351 -0.31136,-0.3812 -0.429274,-0.5004 -0.0094,-0.01 -0.0089,-0.01 -0.01776,-0.018 0.118134,-0.085 0.267414,-0.1919 0.432244,-0.3701 0.17854,-0.193 0.38273,-0.5182 0.39968,-0.9148 0.0175,-0.4096 -0.17019,-0.7594 -0.33751,-0.9681 -0.11198,-0.1396 -0.21367,-0.235 -0.3079,-0.3168 0.0693,-0.05 0.11946,-0.072 0.20132,-0.1509 0.17818,-0.1715 0.39885,-0.4879 0.42336,-0.8793 0.0258,-0.4118 -0.15798,-0.7747 -0.32862,-0.9918 -0.17064,-0.2172 -0.335,-0.3454 -0.45889,-0.45 -0.0086,-0.01 -0.0066,-0.01 -0.0148,-0.015 0.02454,-0.022 0.02446,-0.025 0.05329,-0.05 0.1302,-0.112 0.29886,-0.2513 0.47369,-0.4678 0.17484,-0.2164 0.36538,-0.5534 0.37303,-0.9622 0.007,-0.385 -0.15817,-0.7114 -0.31086,-0.9177 -0.15269,-0.2064 -0.29954,-0.3365 -0.40855,-0.4382 -0.007,-0.01 -0.005,-0.01 -0.0118,-0.012 0.011,-0.011 0.005,-0.01 0.0178,-0.021 0.21305,-0.1966 0.66845,-0.5089 0.78454,-1.2079 0.12004,-0.7227 -0.15334,-1.2932 -0.34046,-1.6964 -0.0703,-0.1515 -0.11898,-0.2664 -0.16579,-0.3819 0.16545,-0.1168 0.33802,-0.2579 0.50625,-0.453 l 0.006,-0.01 0.006,-0.01 c 0.82345,-0.9942 1.54777,-2.1115 2.05462,-3.3425 l 0.0118,-0.027 0.009,-0.024 c 0.75796,-2.2089 0.42027,-4.3439 0.83784,-6.081 l 0.003,-0.01 0,-0.01 c 0.46832,-2.1334 1.67116,-4.1048 2.75628,-6.2556 l 0.003,0 0,0 c 0.54605,-1.1012 1.19596,-2.1958 1.79113,-3.3751 0.002,0 0.004,-0.01 0.006,-0.012 1.55424,-2.9763 3.35205,-6.0225 4.17142,-9.5211 0.002,-0.01 0.004,-0.014 0.006,-0.021 1.72664,-6.7371 0.31211,-14.2007 -3.91979,-19.7617997 -0.007,-0.01 -0.0164,-0.019 -0.0237,-0.03 -1.66305,-2.3726 -3.89822,-4.2336 -6.24382,-5.7553 l 0,0 c -1.44808,-0.9413 -3.005964,-1.4752 -4.437867,-2.0517 l -0.003,0 -0.003,0 c -2.00485,-0.7919 -4.101113,-1.17120005 -6.16093,-1.40330005 l -0.003,0 -0.003,0 c -0.45592,-0.049 -0.907955,-0.072 -1.355946,-0.074 z m -0.0089,1.82070005 c 0.394288,10e-4 0.785124,0.021 1.172382,0.062 l 0,0 c 1.971749,0.2224 3.906006,0.5822 5.687235,1.2849 l 0,0 c 1.486025,0.5983 2.919493,1.1059 4.124063,1.8888 l 0.003,0 c 2.22945,1.4464 4.28419,3.1775 5.76421,5.2993997 l 0.0118,0.015 0.0118,0.018 c 3.89331,5.0976 5.21749,12.0464 3.62076,18.2519 l -0.003,0.012 -0.003,0.01 c -0.73557,3.1575 -2.4339,6.0881 -4.02045,9.1274 l -0.003,0.01 -0.003,0.01 c -0.55803,1.1069 -1.21186,2.2044 -1.80002,3.3898 -9.9e-4,0 -0.002,0 -0.003,0.01 -1.03404,2.0487 -2.34469,4.1472 -2.90135,6.6642 -10e-4,0.01 -0.005,0.012 -0.006,0.018 l 0.003,0 c -0.52239,2.191 -0.2272,4.2302 -0.78751,5.8797 -0.41889,1.0047 -1.0274,1.9571 -1.743765,2.8244 -0.08535,0.099 -0.302017,0.2269 -0.654284,0.447 l -0.441123,0.2754 0.01184,0.5181 c 0.01568,0.6899 0.299484,1.1857 0.467769,1.5483 0.145714,0.314 0.18686,0.4793 0.189475,0.5744 -0.0247,0.025 -0.08359,0.1027 -0.21612,0.225 -0.235605,0.2174 -0.722938,0.6134 -0.734219,1.35 -0.0059,0.3848 0.15816,0.709 0.310858,0.9148 0.152699,0.2058 0.299773,0.3337 0.408558,0.4352 0.0034,0 0.0026,0 0.0059,0.01 -0.03229,0.029 -0.03616,0.036 -0.07697,0.071 -0.131383,0.113 -0.301925,0.2514 -0.47665,0.4707 -0.174725,0.2194 -0.360726,0.564 -0.361188,0.9741 -4.74e-4,0.4087 0.190599,0.746 0.361188,0.9533 0.130221,0.1582 0.240988,0.2427 0.346386,0.3315 -0.07235,0.051 -0.126542,0.077 -0.213161,0.1599 -0.178049,0.1709 -0.400382,0.4852 -0.42632,0.8763 -0.02722,0.4105 0.155312,0.7705 0.322701,0.9829 0.135616,0.1722 0.262619,0.2793 0.37007,0.3701 -0.106599,0.077 -0.219244,0.1533 -0.358228,0.299 -0.177824,0.1865 -0.38474,0.4983 -0.417439,0.8912 -0.03414,0.4102 0.127166,0.7639 0.281253,0.9888 0.154088,0.2249 0.309146,0.3701 0.42336,0.4855 0.06953,0.07 0.08458,0.091 0.118423,0.1303 -0.08755,0.2388 -0.299068,0.4756 -0.701653,0.7697 -0.481868,0.3521 -1.152311,0.7017 -1.761533,1.2109 -0.0032,0 -0.0057,0.01 -0.0089,0.01 -0.972756,0.7915 -2.013848,1.4717 -3.031613,2.4573 -0.0026,0 -0.0063,0 -0.0089,0.01 l 0.003,0 c -0.498895,0.4774 -0.508843,0.8808 -0.571388,1.1043 -1.797272,0.2035 -3.630823,0.2046 -5.444469,0.024 -0.01484,-0.027 -0.02935,-0.042 -0.06513,-0.1361 -0.0947,-0.2486 -0.183691,-0.7207 -0.600993,-1.1813 l 0.003,0 c -0.01962,-0.026 -0.04213,-0.046 -0.06217,-0.071 -0.0107,-0.014 -0.02175,-0.025 -0.03257,-0.039 -0.51083,-0.6255 -1.145711,-1.0169 -1.711204,-1.35 -0.599892,-0.3534 -1.129266,-0.659 -1.456595,-0.9829 -0.461029,-0.4699 -0.892453,-0.8131 -1.172382,-1.1576 l -0.0059,-0.01 -0.003,0 c 0.01,0.012 -0.0173,-0.019 -0.03257,-0.2665 -0.01526,-0.2476 0.01449,-0.666 -0.222042,-1.1635 -0.146327,-0.3077 -0.315354,-0.4742 -0.464808,-0.6009 0.09342,-0.067 0.196725,-0.1451 0.310859,-0.2606 0.184143,-0.1862 0.404326,-0.5115 0.426321,-0.9177 0.02244,-0.4146 -0.201436,-0.8354 -0.405597,-1.0422 -0.204161,-0.2067 -0.371497,-0.2977 -0.473689,-0.37 -0.05866,-0.041 -0.0596,-0.03 -0.07994,-0.035 0.07819,-0.034 0.161959,-0.063 0.328623,-0.1806 0.214342,-0.1511 0.507051,-0.5275 0.538821,-0.9237 0.03243,-0.4045 -0.132436,-0.758 -0.287174,-0.977 -0.12617,-0.1785 -0.243717,-0.2952 -0.346385,-0.3938 0.07472,-0.052 0.133356,-0.083 0.225002,-0.1687 0.171722,-0.1607 0.385004,-0.44 0.438163,-0.8082 0.104591,-0.7246 -0.275348,-1.2493 -0.512177,-1.5691 -0.236828,-0.3199 -0.368375,-0.5397 -0.37303,-0.5596 -0.08323,-0.3549 -0.01328,-0.8585 0.07993,-1.5069 0.09322,-0.6484 0.196592,-1.4679 -0.153949,-2.324 l -0.0089,-0.024 -0.01184,-0.024 c -0.680617,-1.4261 -1.632552,-2.4343 -2.030954,-3.5202 l -0.0148,-0.041 -0.01776,-0.039 c -0.459224,-0.9636 -0.488422,-2.2194 -0.645402,-3.597 -7.58e-4,-0.01 -0.0022,-0.018 -0.003,-0.027 -0.122708,-1.4124 -0.444122,-2.8224 -1.00363,-4.1448 l -0.003,-0.01 -0.003,-0.01 c -1.184255,-2.6792 -2.671291,-5.1481 -3.999716,-7.6353 -0.0026,-0.01 -0.0062,-0.01 -0.0089,-0.015 -0.969608,-1.8995 -2.017335,-3.7117 -2.851019,-5.5807 l -0.0059,-0.012 -0.0059,-0.012 c -1.724706,-3.5848 -2.341855,-7.6687 -2.072392,-11.6735 0.31168,-2.3017 0.921082,-4.5857 1.817784,-6.7293 0.682382,-1.3099 1.302952,-2.5796 2.134563,-3.6149 l 0.01184,-0.018 0.01184,-0.015 c 1.082229,-1.4798997 2.257418,-2.8583997 3.668133,-3.8693997 0.0011,-8e-4 0.0018,0 0.003,0 0.660373,-0.4705 1.246293,-0.9568 1.835547,-1.3707 0.0021,0 0.0038,0 0.0059,-0.01 2.683017,-1.7101 5.692877,-2.9333 8.813587,-3.3099 l 0.01184,0 0.01184,0 c 1.232255,-0.1831 2.446783,-0.3362 3.629646,-0.3316 z" fill="#000000" fill-opacity="1" stroke="none" marker="none" visibility="visible" display="inline" overflow="visible"></path><path style="text-indent:0;text-transform:none;direction:ltr;block-progression:tb;baseline-shift:baseline;color:#000000;enable-background:accumulate;" d="m 29.153857,57.357682 -0.378952,1.8568 c 0,0 6.552048,1.3539 10.127484,1.44 3.500346,0.084 9.959323,-0.9308 9.959323,-0.9308 l -0.288951,-1.8734 c 0,0 -6.570342,0.9831 -9.625372,0.9095 -3.130119,-0.075 -9.793532,-1.4021 -9.793532,-1.4021 z" fill="#000000" fill-opacity="1" stroke="none" marker="none" visibility="visible" display="inline" overflow="visible"></path><path style="text-indent:0;text-transform:none;direction:ltr;block-progression:tb;baseline-shift:baseline;color:#000000;enable-background:accumulate;" d="m 47.900122,71.082782 c 0,0 -1.453529,0.4571 -3.285037,0.9237 -1.831508,0.4666 -4.06585,0.9307 -5.414272,0.9592 -1.344274,0.029 -3.59106,-0.3396 -5.435588,-0.7271 -1.844528,-0.3875 -3.31109,-0.7816 -3.31109,-0.7816 l -0.492637,1.8285 c 0,0 1.515067,0.4084 3.415302,0.8076 1.900234,0.3992 4.161232,0.8011 5.864277,0.765 1.707192,-0.036 3.953925,-0.5354 5.840592,-1.0161 1.886667,-0.4806 3.386881,-0.9521 3.386881,-0.9521 l -0.568428,-1.8071 z" fill="#000000" fill-opacity="1" stroke="none" marker="none" visibility="visible" display="inline" overflow="visible"></path><path style="text-indent:0;text-transform:none;direction:ltr;block-progression:tb;baseline-shift:baseline;color:#000000;enable-background:accumulate;" d="m 47.694067,67.556182 c 0,0 -5.998387,0.8505 -8.848521,0.9118 -2.856047,0.062 -8.898259,-0.5329 -8.898259,-0.5329 l -0.189476,1.8877 c 0,0 5.966069,0.6057 9.127998,0.5376 3.156017,-0.068 9.078261,-0.9284 9.078261,-0.9284 l -0.270003,-1.8758 z" fill="#000000" fill-opacity="1" stroke="none" marker="none" visibility="visible" display="inline" overflow="visible"></path><path style="text-indent:0;text-transform:none;direction:ltr;block-progression:tb;baseline-shift:baseline;color:#000000;enable-background:accumulate;" d="m 48.169533,64.713482 c 0,0 -6.00194,0.8505 -8.852074,0.9118 -2.856048,0.061 -8.896482,-0.5299 -8.896482,-0.5299 l -0.189476,1.8858 c 0,0 5.965476,0.6069 9.127406,0.5389 3.156016,-0.068 9.080037,-0.9296 9.080037,-0.9296 l -0.269411,-1.877 z" fill="#000000" fill-opacity="1" stroke="none" marker="none" visibility="visible" display="inline" overflow="visible"></path><path style="text-indent:0;text-transform:none;direction:ltr;block-progression:tb;baseline-shift:baseline;color:#000000;enable-background:accumulate;" d="m 47.753278,61.874282 c 0,0 -5.998387,0.8505 -8.848521,0.9118 -2.856047,0.062 -8.898259,-0.5305 -8.898259,-0.5305 l -0.189476,1.8853 c 0,0 5.96607,0.6057 9.127999,0.5376 3.156016,-0.068 9.078261,-0.9284 9.078261,-0.9284 l -0.270004,-1.8758 z" fill="#000000" fill-opacity="1" stroke="none" marker="none" visibility="visible" display="inline" overflow="visible"></path></svg>