<svg xmlns:dc="http://purl.org/dc/elements/1.1/" xmlns:cc="http://creativecommons.org/ns#" xmlns:rdf="http://www.w3.org/1999/02/22-rdf-syntax-ns#" xmlns:svg="http://www.w3.org/2000/svg" xmlns="http://www.w3.org/2000/svg" xmlns:sodipodi="http://sodipodi.sourceforge.net/DTD/sodipodi-0.dtd" xmlns:inkscape="http://www.inkscape.org/namespaces/inkscape" viewBox="0 0 80 80" version="1.1" x="0px" y="0px"><path d="m 40.388091,1.0264275 c 1.04592,-0.0967 2.100629,-0.0615 3.146549,-0.0703 0.07031,0.40429999 -0.439462,0.67676999 -0.254888,1.08985999 -0.131839,0.11426 -0.281256,0.21095 -0.439462,0.28126 -0.263677,0.10547 -0.430673,0.34278 -0.650404,0.50099 -0.03516,0.0791 -0.06153,0.1582 -0.08789,0.23731 -0.140627,0.0176 -0.316412,-0.0176 -0.430672,0.0967 -0.131839,0.20215 -0.228521,0.43067 -0.421884,0.58888 0,0.11426 0,0.22852 -0.0088,0.33399 -0.12305,0.0176 -0.246099,0.0176 -0.369149,0.0439 -0.11426,0.14941 -0.263677,0.27246 -0.360358,0.43067 -0.07031,0.18457 -0.04395,0.37794 -0.03516,0.5713 -0.158207,0.14063 -0.307624,0.29883 -0.448252,0.46583 -0.06153,0.34278 0.01758,0.79103 0.377938,0.93166 0.333991,0.14942 0.509776,0.50977 0.861345,0.62403 0.228521,0.0615 0.325202,0.29005 0.386727,0.4922 0.325202,0.0352 0.641615,0.0879 0.958027,0.0879 0.131839,0.54494 0.720718,0.77346 0.966817,1.25687 0.09668,0.0176 0.202153,0.0439 0.298834,0.0615 -0.0088,0.12305 -0.02637,0.2461 -0.03516,0.36915 0.149418,0.0527 0.290045,0.12305 0.439463,0.17578 0.158206,0.28126 0.474619,0.34278 0.747085,0.4482605 0.202153,-0.1670005 0.46583,-0.1318405 0.711929,-0.1406305 0.307623,-0.0615 0.703139,-0.17579 0.958027,0.0703 0.606458,0.4746205 0.500987,1.3271805 0.764664,1.9775805 0.166996,0.14942 0.35157,0.29005 0.544933,0.42188 0.01758,0.26368 0.09668,0.51857 0.202153,0.75588 -0.0088,0.0352 -0.02637,0.10547 -0.03516,0.14063 0.193363,0.0351 0.369148,0.13184 0.518565,0.25489 0.07031,0.73829 0.11426,1.51175 0.46583,2.17973 0.219731,0.0703 0.46583,0.1582 0.588879,0.37794 0.11426,0.19336 0.254888,0.38672 0.448252,0.51856 0.0088,0.12305 -0.05274,0.27247 0.04395,0.36915 0.210942,0.26368 0.457041,0.50977 0.624036,0.80861 0.07031,0.36036 0.254888,0.68556 0.369148,1.02834 0.06153,0.13184 0.105471,0.30762 0.254888,0.36036 0.193364,0.0176 0.457041,-0.0703 0.562512,0.14942 0.22852,0.43067 0.615247,0.7295 0.993184,1.02834 0.184574,0.1582 0.457041,0.0791 0.650404,0.22852 0.492198,0.4043 1.142602,0.65919 1.476593,1.23928 0.131839,0.25489 0.386727,0.4131 0.632825,0.52736 0.140628,0.30762 0.184574,0.63282 0.254888,0.94923 0.114261,0.25489 0.35157,0.43068 0.47462,0.68556 0.03516,0.18458 0.04395,0.36915 0.07031,0.55373 0.12305,0.21094 0.377938,0.29004 0.597669,0.36036 0.08789,0.27246 0.386727,0.35157 0.606458,0.17578 0.237309,0.29005 0.624036,0.37794 0.92287,0.58888 0.175785,0.17578 0.333991,0.36915 0.500987,0.54493 0.210942,0.21973 0.281256,0.52736 0.457041,0.76467 0.219731,0.10547 0.45704,0.18457 0.676771,0.29883 0.131839,0.13184 0.228521,0.29884 0.290045,0.48341 -0.03516,0.17578 -0.175785,0.36915 -0.0791,0.55372 -0.05273,0.0264 -0.166996,0.0967 -0.219731,0.13184 0.105471,0.14942 0.04395,0.36036 0.158206,0.50978 -0.07031,0.009 -0.202152,0.0176 -0.272466,0.0176 0.06152,0.12304 0.09668,0.25488 0.123049,0.38672 0.263678,0.167 0.562512,0.34278 0.711929,0.63283 0.184574,-0.0527 0.430673,-0.12305 0.544933,0.0967 -0.07031,0.0967 -0.272467,0.17578 -0.184574,0.3252 0.09668,0.0439 0.193363,0.0703 0.298834,0.0967 -0.02637,0.17579 -0.07031,0.35157 -0.193363,0.4922 0.22852,0.25489 0.536144,0.42188 0.755875,0.69435 0.184574,0.0703 0.281255,-0.18457 0.465829,-0.15821 0.02637,0.14063 0.07031,0.28126 0.131839,0.42189 -0.06152,0.0967 -0.202153,0.19336 -0.158206,0.3252 0.05273,0.33399 0.360359,0.51856 0.588879,0.72951 0.254888,0.25488 0.632825,0.29004 0.93166,0.46583 0.219731,0.12305 0.45704,0.18457 0.703139,0.18457 0.281256,0.36915 0.641615,0.66798 1.04592,0.88771 0.263677,0.167 0.58009,0.29884 0.720718,0.59767 0.01758,0.29005 -0.105471,0.5713 -0.140628,0.86135 0.09668,0.35157 0.333991,0.64161 0.492197,0.9756 -0.0088,0.10548 -0.0791,0.20216 -0.140627,0.28126 0.09668,0.0439 0.193363,0.0352 0.290045,0.0176 0.03516,0.3252 0.281255,0.53614 0.483408,0.75587 0.149417,0.27247 -0.04395,0.56251 -0.05274,0.84377 0.04395,0.21973 0.140628,0.42188 0.193364,0.6504 -0.01758,0.22852 -0.11426,0.45705 -0.131839,0.69435 0.08789,0.0967 0.175785,0.18458 0.254888,0.28126 0.06153,0.15821 0.0088,0.33399 -0.03516,0.48341 0.04395,0.0264 0.131839,0.0879 0.184574,0.11426 -0.123049,0.13184 -0.202152,0.29004 -0.290045,0.44825 0.131839,0.37794 0.527355,0.55372 0.791032,0.84377 0.246099,0.22852 0.597669,0.23731 0.922871,0.22852 0.210941,-0.0176 0.210941,0.2461 0.298834,0.38672 0.06153,0.22852 0.307623,0.31642 0.500987,0.39552 0.01758,0.0879 0.04395,0.17579 0.07031,0.26368 0.202152,0.21094 0.360359,0.48341 0.632825,0.61524 -0.166996,0.21974 -0.369148,0.58009 -0.131839,0.8174 0.0791,0.0967 0.166996,0.17579 0.263678,0.25489 0.03516,0.23731 0.07031,0.4922 0.202152,0.69435 0.12305,0.10547 0.281256,0.14063 0.430673,0.18458 0.0088,0.20215 -0.04395,0.43067 0.09668,0.58888 0.09668,0.12305 0.149417,0.27246 0.193363,0.41309 -0.254888,0.21094 -0.492197,0.48341 -0.571301,0.80861 0.05274,0.38673 0.650404,0.52736 0.544933,0.95803 -0.0791,0.37794 0.07031,0.74708 0.05274,1.12502 0.35157,0.0527 0.544933,0.38673 0.870135,0.48341 0.272466,0.0879 0.46583,-0.14063 0.69435,-0.23731 0.35157,0.34278 0.791032,0.56251 1.098655,0.95803 0.386727,0.13184 0.791032,0.2461 1.195337,0.3252 0.04395,0.27247 0.03516,0.5713 -0.175785,0.78224 -0.272466,0.27247 -0.5713,0.66798 -1.010762,0.58009 -0.03516,-0.0615 -0.09668,-0.17578 -0.131839,-0.23731 -0.140628,0.0615 -0.307624,0.0879 -0.413094,0.21094 -0.12305,0.11426 -0.07031,0.30763 -0.105471,0.45704 0.184574,0.0352 0.351569,0.11426 0.536143,0.12305 -0.219731,0.36036 -0.588879,0.59767 -0.826188,0.94045 -0.254888,-0.22852 -0.58888,-0.36036 -0.940449,-0.34278 0.131838,0.29884 -0.07031,0.52736 -0.193364,0.78225 0.184574,0.0615 0.509776,-0.0352 0.562512,0.20215 -0.140628,0.21973 -0.298834,0.43067 -0.421884,0.65919 -0.175785,0.37794 -0.685561,0.46583 -0.817399,0.88771 -0.369148,0.0439 -0.711929,-0.11426 -1.081077,-0.13183 0,0.1582 -0.04395,0.37793 0.140628,0.46583 0.237309,0.20215 0.536144,0.0791 0.799821,0.0527 -0.08789,0.46583 0.11426,0.94924 -0.07031,1.39749 -0.158206,0.34278 -0.210942,0.75588 -0.518565,1.01076 -0.09668,-0.12305 -0.307624,-0.25488 -0.448252,-0.12305 -0.210942,0.17579 -0.500987,0.18458 -0.773453,0.167 0.01758,0.12305 0.01758,0.23731 -0.0088,0.36036 0.325202,0.0527 0.676771,0.0879 0.958027,-0.11426 0.0791,0.0967 0.166996,0.18457 0.22852,0.29004 -0.210941,0.43947 -0.430673,0.87014 -0.711928,1.27444 -0.228521,0.28126 -0.386727,0.60646 -0.553723,0.93166 -0.166995,0.26368 -0.140627,0.59767 -0.166995,0.89651 -0.02637,0.18457 0.210942,0.20215 0.333991,0.27246 -0.03516,0.2461 -0.263677,0.4131 -0.263677,0.66799 -0.0088,0.41309 -0.166996,0.79982 -0.219731,1.20412 -0.544933,-0.0264 -0.878925,0.52736 -1.010763,0.99319 -0.08789,0.21973 -0.325202,0.24609 -0.527355,0.27246 -0.07031,0.38673 0.05274,0.78224 -0.06152,1.16018 -0.05274,0.2461 -0.114261,0.48341 -0.166996,0.72951 -0.158206,0.0176 -0.316413,0.009 -0.474619,0.009 -0.140628,0.28125 -0.536144,0.39551 -0.588879,0.70314 0.290045,0.0615 0.58009,0.12305 0.826188,0.29004 0.05274,-0.16699 0.246099,-0.2461 0.281256,-0.41309 0.228521,0.22852 0.149417,0.5713 0.158207,0.85256 0,0.44825 -0.202153,0.84376 -0.290045,1.26565 -0.06153,0.38672 -0.404306,0.6504 -0.448252,1.04592 -0.149417,0.43946 -0.03516,0.8965 0.140628,1.30959 -0.237309,0.009 -0.430673,-0.11426 -0.606458,-0.25489 -0.307623,-0.009 -0.588879,0.10548 -0.887713,0.14063 -0.307624,-0.0264 -0.597669,-0.20215 -0.914081,-0.12305 -0.140628,-0.10547 -0.307624,-0.12305 -0.474619,-0.0967 -0.05274,-0.11426 -0.131839,-0.22852 -0.281256,-0.21973 -0.290045,-0.0439 -0.588879,0.009 -0.870135,-0.0703 -0.23731,-0.18458 -0.430673,-0.4922 -0.764664,-0.39552 -0.11426,-0.14063 -0.228521,-0.36036 -0.439462,-0.29883 -0.448252,0.0879 -0.975606,-0.0264 -1.177759,-0.48341 -0.325202,0.13184 -0.615247,-0.13184 -0.940449,-0.0615 -0.01758,0.28126 -0.04395,0.58888 -0.281256,0.78225 -0.105471,-0.19337 -0.333991,-0.23731 -0.527354,-0.28126 0.05273,0.21094 0.05273,0.43067 0.03516,0.6504 -0.105471,0.0176 -0.210942,0.0439 -0.316413,0.0703 -0.02637,0.17578 -0.03516,0.36036 -0.0088,0.53614 0.05274,0.30763 -0.22852,0.56251 -0.158207,0.87014 0.131839,0.43067 0.369149,0.82619 0.553723,1.23049 0.140628,0.38673 -0.09668,0.76467 -0.06152,1.15139 0.105471,0.72951 -0.395516,1.37991 -0.307623,2.10942 0.07031,0.22852 -0.08789,0.42188 -0.281256,0.52735 -0.325202,0.10548 -0.624036,-0.14062 -0.940449,-0.13183 -0.298834,-0.0176 -0.58009,-0.0879 -0.870135,-0.14063 -0.219731,-0.0879 -0.263677,-0.34278 -0.342781,-0.53615 -0.202152,-0.44825 0.149418,-0.93166 0,-1.3887 -0.06152,-0.13183 -0.184574,-0.20215 -0.298834,-0.26367 -0.123049,-0.33399 -0.263677,-0.72951 0.01758,-1.02834 -0.650404,-0.009 -1.300808,-0.0527 -1.942423,-0.12305 -1.696324,-0.0703 -3.392648,-0.27247 -5.097761,-0.31642 -0.527354,-0.0527 -1.054709,-0.11426 -1.590852,-0.14941 -1.432647,-0.0527 -2.865293,-0.17579 -4.306729,-0.27247 -0.483409,0.009 -0.958028,-0.0703 -1.441436,-0.10547 -1.599642,-0.0439 -3.190495,-0.22852 -4.790137,-0.29884 -0.588879,-0.0615 -1.177759,-0.009 -1.757849,-0.0967 -2.54888,-0.1582 -5.09776,-0.28125 -7.646641,-0.43946 -1.230494,-0.0176 -2.460987,-0.15821 -3.691481,-0.14063 -0.958028,-0.0791 -1.924845,-0.14063 -2.882872,-0.16699 -0.843767,-0.0967 -1.687534,-0.0176 -2.531302,-0.14942 -0.175785,-0.28126 -0.386726,-0.56251 -0.685561,-0.71193 -0.307623,-0.51856 -0.333991,-1.1426 -0.351569,-1.73148 0.0088,-0.50978 -0.413095,-0.83498 -0.641615,-1.24807 -0.09668,-0.167 0.07031,-0.45704 -0.149417,-0.52736 -0.06152,-0.0176 -0.166996,-0.0527 -0.219731,-0.0703 0.07031,-0.51857 0.0088,-1.05471 -0.23731,-1.51175 -0.123049,-0.21094 -0.11426,-0.45704 -0.210942,-0.67677 -0.149417,-0.19337 -0.351569,-0.36036 -0.430673,-0.60646 -0.05274,-0.21094 -0.290045,-0.25489 -0.430672,-0.38673 -0.05274,-0.11426 -0.0791,-0.22852 -0.114261,-0.34278 -0.08789,-0.27246 0.193364,-0.54493 0.04395,-0.79982 -0.131839,-0.2461 -0.219731,-0.51856 -0.184574,-0.79982 0.08789,-0.0264 0.184574,-0.0527 0.281255,-0.0791 0.03516,-0.17579 0.0791,-0.34278 0.105471,-0.51857 0.01758,-0.25489 -0.07031,-0.50098 -0.0791,-0.76466 0.158206,-0.39552 0.175785,-0.82619 0.316413,-1.2305 0,-0.20215 -0.08789,-0.4043 -0.05274,-0.60645 0.166996,-0.36915 0.404305,-0.72072 0.377938,-1.13382 -0.04395,-0.16699 -0.12305,-0.31641 -0.175785,-0.47461 -0.04395,-0.25489 0,-0.52736 -0.07031,-0.78225 -0.08789,-0.14941 -0.23731,-0.27246 -0.290045,-0.43946 -0.09668,-0.38673 -0.483408,-0.60646 -0.632825,-0.96682 -0.02637,-0.21973 0.123049,-0.43067 0.05274,-0.64161 -0.07031,-0.23731 -0.04395,-0.50099 -0.210942,-0.68556 0.06153,-0.29884 0.11426,-0.60646 0.0088,-0.8965 -0.123049,-0.32521 0.114261,-0.64162 0.03516,-0.96682 0.08789,-0.0176 0.184574,-0.044 0.281256,-0.0615 0.0088,-0.26367 0.193363,-0.45704 0.35157,-0.64161 0.105471,-0.12305 0.06152,-0.30762 0.06152,-0.45704 0.04395,-0.0176 0.140627,-0.0615 0.193363,-0.0791 -0.02637,-0.29884 0.09668,-0.5713 0.202152,-0.84377 0.01758,-0.25489 -0.03516,-0.51857 0.0088,-0.78224 0.01758,-0.23731 0.11426,-0.48341 0.01758,-0.71193 -0.02637,-0.18458 -0.210942,-0.44825 0,-0.58009 0.22852,-0.13184 0.316413,-0.38673 0.483409,-0.5713 0.202152,-0.15821 0.45704,-0.21973 0.69435,-0.29884 0.04395,-0.12305 0.0791,-0.2461 0.166995,-0.35157 0.140628,-0.10547 0.342781,-0.10547 0.474619,-0.21094 0.166996,-0.21094 0.263678,-0.45704 0.46583,-0.62404 -0.325202,-0.22852 -0.518565,-0.64161 -0.92287,-0.75587 -0.228521,-0.0879 -0.474619,-0.14942 -0.676772,-0.29005 -0.166996,-0.20215 0.06152,-0.37793 0.166996,-0.52735 0.22852,-0.28126 0.210942,-0.65919 0.219731,-0.99318 0.184574,-0.0967 0.193363,-0.27247 0.11426,-0.44826 -0.131839,-0.0439 -0.272467,-0.0879 -0.377938,-0.17578 -0.08789,-0.3252 0,-0.68556 -0.123049,-1.01076 -0.202152,-0.51857 -0.624036,-0.89651 -1.001974,-1.28323 -0.175784,-0.31642 -0.166995,-0.70314 -0.369148,-1.01955 0.01758,-0.11426 0.06152,-0.21974 0.09668,-0.334 -0.325202,-0.21094 -0.448251,-0.59766 -0.413094,-0.9756 0.04395,-0.20215 -0.131839,-0.31641 -0.219732,-0.46583 -0.01758,-0.15821 0,-0.31641 0.02637,-0.47462 -0.193363,-0.15821 -0.421883,-0.31641 -0.492197,-0.5713 0.0088,-0.18458 0.03516,-0.37794 0.08789,-0.56251 -0.131839,-0.0791 -0.298834,-0.14942 -0.316413,-0.31642 -0.123049,-0.71192 -0.246098,-1.42385 -0.395516,-2.12699 -0.166995,-1.19534 -0.448251,-2.36431 -0.588879,-3.55965 -0.175785,-0.69435 -0.193363,-1.41506 -0.360359,-2.1182 -0.219731,-1.77543 -0.615247,-3.53328 -0.861345,-5.30871 -0.175785,-0.60645 -0.175785,-1.24807 -0.325202,-1.86331 -0.05274,-0.36915 -0.140628,-0.72951 -0.184575,-1.09866 -0.09668,-0.75587 -0.281255,-1.48538 -0.34278,-2.24126 -0.413094,-1.77542 -0.544933,-3.60359 -0.9316597,-5.37901 -0.070314,-0.79982 -0.3076235,-1.56449 -0.3955159,-2.35552 -0.2373095,-1.0635 -0.3955159,-2.1445805 -0.6416147,-3.2080705 -0.3691482,-2.34673 -0.8613457,-4.66709 -1.16018,-7.02261 1.1074446,0.0176 2.2236783,0.0176 3.3399123,0.0176 0.791032,0.0176 1.582063,-0.0615 2.373095,-0.0439 0.527355,0.0176 1.054709,-0.009 1.573275,-0.0352 2.118207,0 4.227625,-0.009 6.337043,-0.009 0.35157,0 0.694351,-0.0879 1.037131,-0.0527 0.826189,0.0967 1.652378,0.0264 2.478566,0.0527 0.676772,0.0264 1.344755,-0.10547 2.021526,-0.009 2.988343,0.009 5.976685,0.0176 8.965027,-0.0176 0.263678,-0.0264 0.518566,-0.13184 0.791032,-0.12305 1.230494,0.0264 2.460988,-0.0264 3.691482,-0.0264 z" style="" fill="#000000" stroke="#000000" stroke-width="0.00823991"></path><path d="m 569.4,75.1 c 2.9,-1.5 0,3.3 0,0 z" style="" fill="#000000" stroke="#000000" stroke-width="0.09375"></path></svg>