<svg xmlns:dc="http://purl.org/dc/elements/1.1/" xmlns:cc="http://creativecommons.org/ns#" xmlns:rdf="http://www.w3.org/1999/02/22-rdf-syntax-ns#" xmlns:svg="http://www.w3.org/2000/svg" xmlns="http://www.w3.org/2000/svg" xmlns:xlink="http://www.w3.org/1999/xlink" xmlns:sodipodi="http://sodipodi.sourceforge.net/DTD/sodipodi-0.dtd" xmlns:inkscape="http://www.inkscape.org/namespaces/inkscape" viewBox="0 0 80 80" version="1.1" x="0px" y="0px"><path style="" d="m 71.484745,16.747034 c -0.04456,0.0032 -0.106416,0.01708 -0.15,0.025 -2.863984,0.521104 -5.183816,1.775 -8.875,1.775 -5.32352,0 -7.675496,-0.6 -9.45,-0.6 -1.532672,0 -9.107292,1.202496 -10.05,1.2 -3.77083,-0.01 -7.108497,-1.2 -7.7,-1.2 -0.591502,0 -4.725983,1.2 -8.275,1.2 -3.549017,0 -8.283497,-1.2 -8.875,-1.2 -0.591503,0 -4.742485,1.2 -7.7,1.2 -3.0335255,0 -6.8240805,-1.998384 -8.8749995,-2.375 -0.02178,-0.004 -0.02854,-8e-4 -0.05,0 -0.321911,0.0082 -0.60836403,0.475 -0.85000003,0.475 l 6.47500003,17.6 c 2.006183,0.33744 5.1564595,0.82768 6.2749995,0.85 0.251043,0.008 0.480263,-0.0106 0.725,-0.025 l -0.7,-2.15 0.55,-0.2 0.75,2.3 c 1.974304,-0.2732 3.735084,-1.143024 5.175,-1.575 2.327636,-0.698288 8.072757,2.14556 11.075,1.675 l -0.275,-0.625 0.55,-0.225 0.325,0.725 c 1.393167,-0.4012 1.482435,-1.118648 3.1,-1.55 2.261001,-0.602928 8.168575,1.65 10.65,1.65 0.05065,0 0.100962,0.008 0.15,0 l -0.15,-1.175 0.6,-0.075 0.15,1.225 c 2.264421,-0.17848 2.635059,-1.15 5.175,-1.15 4.295544,0 4.60388,0.97016 6.025,1.15 l 0,-0.575 0.6,0 0,0.6 c 1.171064,-0.072 2.963688,-1.160104 7.975,-1.075 l 6.1,-17.275 c 0.157712,-0.509224 -0.13792,-0.620576 -0.45,-0.6 z m -50.575,17.775 c -0.353175,0.0064 -0.692279,0.03343 -1.025,0.1 -1.852393,0.370512 -3.27521,1.19852 -5,1.525 l 0.375,1.125 -0.55,0.175 -0.4,-1.2 c -0.298341,0.0336 -0.601013,0.0532 -0.925,0.05 -1.302443,-0.0144 -4.1824305,-0.46452 -6.0249995,-0.775 l 2.7749995,7.875 c 0.159772,-0.3328 0.350907,-0.65784 0.575,-1 0.0051,-0.0088 0.0198,-0.0162 0.025,-0.025 0.0031,-0.008 -0.0031,-0.0202 0,-0.025 0.177783,-0.30264 0.373522,-0.59992 0.6,-0.9 0.008,-0.012 0.0169,-0.038 0.025,-0.05 0.277937,-0.40016 0.56035,-0.76396 0.875,-1.125 l 0.025,-0.025 c 0.237119,-0.25512 0.469678,-0.46668 0.675,-0.675 0.827961,-0.84496 1.79995,-1.56868 2.85,-2.125 l 0,-0.025 c 0.137536,-0.0704 0.296767,-0.1548 0.475,-0.25 0.01337,-0.008 0.03661,-0.017 0.05,-0.025 1.716599,-1.01552 3.656952,-1.42756 5.55,-1.525 l 0.05,0.8 -0.025,-0.8 c 0.44125,-0.0192 0.882503,-0.016 1.325,0 1.327492,0.0504 2.648989,0.26604 3.925,0.675 0.776453,0.25088 1.529438,0.57816 2.25,1 l 0.025,0 c 0.439285,0.26608 0.873328,0.52276 1.325,0.825 l 0.025,0.025 c 0.698068,0.48024 1.341399,1.02444 1.925,1.625 l 16.025,0 0,-4.2 c -0.730055,0.27904 -1.396869,0.5802 -2.575,0.675 l 0.275,2.3 -0.575,0.075 -0.3,-2.35 c -0.07216,0 -0.149284,5.6e-4 -0.225,0 -2.428041,-0.0184 -8.371037,-2.25772 -10.65,-1.65 -1.583269,0.422208 -1.277572,0.94844 -2.875,1.475 l 1.125,2.55 -0.525,0.225 -1.175,-2.625 c -0.03222,0.008 -0.06662,0.017 -0.1,0.025 -2.554528,0.63856 -6.785984,-1.811048 -10.2,-1.75 z m 44.8,0.5 c -0.111528,0.0752 -0.220752,0.14576 -0.275,0.2 -2.899368,-0.0528 -4.285032,0.15608 -5.125,0.4 l 0,4.15 3.7,0 1.7,-4.75 z m -14.475,0.075 c -0.747305,0 -1.302113,0.09724 -1.775,0.225 l 0,4.45 10.1,0 0,-3.875 c -0.486832,0.20224 -0.864536,0.3848 -1.7,0.4 l 0,2.95 -0.6,0 0,-2.975 c -1.736096,-0.15816 -2.210632,-1.175 -6.025,-1.175 z m -1.9,0.25 c -0.182058,0.0528 -0.359685,0.11372 -0.525,0.175 l 0,4.25 0.525,0 0,-4.425 z m 10.875,0.3 c -0.202944,0.0632 -0.39388,0.13664 -0.55,0.2 l 0,3.925 0.55,0 0,-4.125 z m 5.325,0.65 -2.9,8.25 7.65,0.025 0,-8.275 -4.75,0 z m -16.425,0.35 c 0.098,0 0.175,0.07676 0.175,0.175 0,0.098 -0.077,0.175 -0.175,0.175 -0.098,0 -0.175,-0.07676 -0.175,-0.175 0,-0.098 0.077,-0.175 0.175,-0.175 z m 10.825,0.05 c 0.09801,0 0.175,0.07676 0.175,0.175 0,0.098 -0.07698,0.175 -0.175,0.175 -0.098,0 -0.175,-0.07676 -0.175,-0.175 0,-0.098 0.07699,-0.175 0.175,-0.175 z m -37.475,0.2 c -1.334156,0.0104 -2.671373,0.24736 -3.925,0.7 -0.564124,0.20656 -1.121825,0.44028 -1.65,0.725 -0.350969,0.19384 -0.718355,0.3482 -1.05,0.575 -0.460734,0.2948 -0.880767,0.64544 -1.3,1 -0.834389,0.74256 -1.597636,1.579 -2.2,2.525 -0.349807,0.52936 -0.671603,1.05508 -0.95,1.625 -0.182458,0.35816 -0.336481,0.7486 -0.475,1.125 l -8.7749995,0 0,0.575 8.5749995,0 c -0.204833,0.67528 -0.345105,1.37364 -0.425,2.075 -0.08863,0.4908 -0.137842,1.00232 -0.15,1.5 0.0031,0.29576 0.03784,0.57948 0.05,0.875 0.02203,0.31968 0.01659,0.63752 0.075,0.95 0.0298,0.176 0.03004,0.35244 0.075,0.525 0.119495,0.51184 0.235081,1.02372 0.4,1.525 0.140939,0.41664 0.291843,0.84992 0.475,1.25 0.144691,0.34024 0.343277,0.64124 0.5,0.975 0.227583,0.45672 0.487483,0.90372 0.775,1.325 0.453219,0.65112 0.991045,1.23772 1.575,1.775 0.684582,0.6348 1.445253,1.19948 2.25,1.675 1.645788,0.9408 3.482233,1.55688 5.375,1.7 0.113246,0.012 0.237517,-0.0146 0.35,-0.025 0.417736,-0.008 0.833202,0.0626 1.25,0.025 0.295065,-0.0272 0.580487,-0.05464 0.875,-0.1 0.337468,-0.0376 0.691531,-0.05692 1.025,-0.125 0.916118,-0.16848 1.789448,-0.49296 2.625,-0.9 1.064392,-0.5056 2.049029,-1.16508 2.95,-1.925 0.882855,-0.7532 1.671132,-1.6228 2.3,-2.6 0.258779,-0.41376 0.509869,-0.84964 0.75,-1.275 0.346518,-0.636 0.598703,-1.3044 0.8,-2 0.438072,-1.52664 0.568851,-3.14228 0.45,-4.725 -0.141171,-1.71312 -0.564307,-3.44008 -1.5,-4.9 -0.09355,-0.16496 -0.184483,-0.31004 -0.275,-0.475 -0.515956,-0.90544 -1.183912,-1.71948 -1.95,-2.425 -0.216673,-0.2008 -0.427408,-0.40552 -0.65,-0.6 -0.341112,-0.27928 -0.704628,-0.56128 -1.075,-0.8 -0.277616,-0.19888 -0.552156,-0.36332 -0.85,-0.525 -0.345232,-0.21512 -0.729027,-0.39056 -1.1,-0.55 -0.730814,-0.35272 -1.488483,-0.59484 -2.275,-0.775 -0.516708,-0.13664 -1.070757,-0.17724 -1.6,-0.225 -0.442187,-0.044 -0.880281,-0.0782 -1.325,-0.075 z m 0.3,1.425 c 0.09961,-0.0096 0.200463,0 0.3,0 0.29861,8e-4 0.603723,0.0382 0.9,0.075 0.652298,0.08064 1.299555,0.22452 1.925,0.425 0.471183,0.14408 0.923747,0.33444 1.375,0.525 0.1237,0.0544 0.254088,0.13664 0.375,0.2 -1.242499,2.15232 -2.476009,4.3216 -3.675,6.5 -0.305991,0.56464 -0.5878,1.13824 -0.9,1.7 -0.09236,-0.028 -0.185397,-0.0382 -0.275,-0.075 -0.03782,-0.0352 -0.01729,-0.1044 -0.025,-0.15 -0.0026,-0.87544 0.0026,-1.74948 0,-2.625 -0.0063,-1.098 -0.006,-2.20464 0,-3.3 -0.007,-0.7228 -0.01748,-1.42952 0,-2.15 0.0038,-0.37232 0.01144,-0.75316 0,-1.125 z m -0.55,0.05 c -0.02969,0.9192 -0.02583,1.83176 -0.025,2.75 0.0098,0.81424 -0.01304,1.63592 0,2.45 0.01458,1.36624 0.0191,2.73576 0,4.1 -0.102596,0.0368 -0.197119,0.07264 -0.3,0.1 -0.357419,-0.61136 -0.711645,-1.21996 -1.075,-1.825 -0.552066,-0.88904 -1.093985,-1.80112 -1.625,-2.7 -0.687671,-1.132 -1.359276,-2.26808 -2.05,-3.4 0.41908,-0.25992 0.873462,-0.45304 1.325,-0.65 1.189631,-0.50032 2.457279,-0.80052 3.75,-0.825 z m 37.675,0.5 0.05,0 c 0.09801,0 0.175,0.07668 0.175,0.175 0,0.098 -0.07698,0.175 -0.175,0.175 -0.098,0 -0.175,-0.07676 -0.175,-0.175 0,-0.08576 0.04412,-0.15844 0.125,-0.175 z m -10.775,0.025 c 0.098,0 0.175,0.07668 0.175,0.175 0,0.098 -0.077,0.175 -0.175,0.175 -0.098,0 -0.175,-0.07676 -0.175,-0.175 0,-0.098 0.077,-0.175 0.175,-0.175 z m -20.975,0.925 c 0.0619,0.0288 0.11892,0.037 0.175,0.075 0.904826,0.55488 1.752398,1.21992 2.475,2 0.416378,0.4448 0.811003,0.91684 1.15,1.425 -0.407553,0.23832 -0.820461,0.51176 -1.225,0.75 -1.070217,0.61256 -2.111144,1.27848 -3.175,1.9 -1.252017,0.7524 -2.485202,1.51552 -3.75,2.25 -0.07208,-0.0616 -0.139661,-0.12256 -0.2,-0.2 0.279615,-0.53032 0.542331,-1.06968 0.825,-1.6 1.206803,-2.22144 2.471633,-4.40464 3.725,-6.6 z m 4.65,0.075 c 0.184043,0.19384 0.377743,0.39752 0.55,0.6 l 15.375,0 0,-0.6 -15.925,0 z m 16.025,0 0,0.6 0.525,0 0,-0.6 -0.525,0 z m 0.65,0 0,0.6 10.1,0 0,-0.6 -10.1,0 z m 10.2,0 0,0.6 0.55,0 0,-0.6 -0.55,0 z m 0.65,0 0,0.6 3.45,0 0.225,-0.6 -3.675,0 z m 0.8,0.1 c 0.09801,0 0.175,0.07676 0.175,0.175 0,0.098 -0.07699,0.2 -0.175,0.2 -0.098,0 -0.175,-0.10176 -0.175,-0.2 0,-0.098 0.07699,-0.175 0.175,-0.175 z m -12.025,0.025 c 0.098,0 0.2,0.07676 0.2,0.175 0,0.098 -0.101997,0.175 -0.2,0.175 -0.098,0 -0.175,-0.07676 -0.175,-0.175 0,-0.098 0.077,-0.175 0.175,-0.175 z m 3.85,0 c 0.098,0 0.2,0.07676 0.2,0.175 0,0.098 -0.101992,0.175 -0.2,0.175 -0.09801,0 -0.175,-0.07676 -0.175,-0.175 0,-0.098 0.07698,-0.175 0.175,-0.175 z m 5.775,0 c 0.098,0 0.175,0.07676 0.175,0.175 0,0.098 -0.07699,0.2 -0.175,0.2 -0.09801,0 -0.175,-0.10176 -0.175,-0.2 0,-0.098 0.07698,-0.175 0.175,-0.175 z m -42.075,0.15 c 0.09673,0.0704 0.132893,0.20136 0.2,0.3 0.437095,0.72176 0.862905,1.45324 1.3,2.175 0.04478,0.0656 0.07878,0.14252 0.075,0.225 0.05864,0.0224 0.09588,0.071 0.125,0.125 0.591653,0.98544 1.168381,1.97416 1.775,2.95 0.439578,0.70344 0.874387,1.39908 1.275,2.125 -0.07966,0.08784 -0.145232,0.1902 -0.225,0.275 -0.496357,-0.2684 -1.009539,-0.52528 -1.5,-0.8 -1.045746,-0.57488 -2.088008,-1.16264 -3.125,-1.75 -0.03206,-0.0184 -0.04294,-0.0316 -0.075,-0.05 l 1.65,0 0,-0.575 -2.675,0 c -0.208238,-0.12176 -0.418626,-0.251 -0.625,-0.375 -0.553088,-0.32768 -1.127817,-0.641 -1.675,-0.975 0.237253,-0.41912 0.503717,-0.81568 0.8,-1.2 0.605621,-0.74168 1.280661,-1.44916 2.05,-2.025 0.215221,-0.14392 0.428499,-0.287 0.65,-0.425 z m 16.8,0.425 0,0.025 c 0.05942,0.0712 0.116918,0.12752 0.175,0.2 0.812058,1.02528 1.49465,2.16572 2.025,3.375 10e-4,0 0.02396,0 0.025,0 0.419298,0.93368 0.760956,1.93552 0.925,3 0.01854,0.10952 0.03818,0.22204 0.05,0.325 l 7.7,0 c 0.03893,-0.08208 0.05795,-0.16936 0.1,-0.25 0.146594,-0.31408 0.306295,-0.60944 0.5,-0.9 0.146588,-0.25128 0.297027,-0.49204 0.475,-0.725 0.214642,-0.31144 0.451331,-0.61472 0.7,-0.9 0.172747,-0.18584 0.371999,-0.36936 0.55,-0.55 0.601987,-0.61456 1.29443,-1.13768 2.05,-1.55 l 0,-2.05 -15.275,0 z m 15.375,0.025 0,1.975 c 0.133813,-0.0688 0.26583,-0.15428 0.4,-0.225 0.03919,-0.0232 0.08542,-0.0526 0.125,-0.075 l 0,-1.675 -0.525,0 z m 0.65,0 0,1.625 c 1.222587,-0.66776 2.616792,-0.97872 4,-1.05 1.36112,-0.06 2.726704,0.10876 4.025,0.525 0.591544,0.19104 1.163416,0.43584 1.7,0.75 0.116528,0.0704 0.258392,0.15412 0.375,0.225 l 0,-2.075 -10.1,0 z m 10.2,0 0,2.125 c 0.179208,0.10968 0.375048,0.23456 0.55,0.35 l 0,-2.475 -0.55,0 z m 0.65,0 0,2.55 c 0.704632,0.49216 1.342624,1.09608 1.9,1.75 l 1.525,-4.3 -3.425,0 z m -6.45,1 c -0.161104,6.4e-4 -0.31412,0.0138 -0.475,0.025 -1.393392,0.072 -2.81721,0.37736 -4.025,1.1 -0.136119,0.072 -0.263877,0.13064 -0.4,0.2 -0.747445,0.39592 -1.433481,0.92108 -2.025,1.525 -0.168305,0.1708 -0.336651,0.34932 -0.5,0.525 -0.235118,0.26976 -0.447045,0.53044 -0.65,0.825 -0.168286,0.22024 -0.311391,0.4624 -0.45,0.7 -0.183144,0.27472 -0.336391,0.55304 -0.475,0.85 -0.304416,0.58408 -0.509189,1.2164 -0.675,1.85 -0.0651,0.21872 -0.113528,0.4506 -0.15,0.675 l -5.225,0 0,1.775 5.05,0 c -0.01489,1.0532 0.148233,2.09976 0.475,3.1 0.153453,0.4628 0.307208,0.9144 0.525,1.35 0.148511,0.2896 0.274268,0.60028 0.45,0.875 0.227695,0.38112 0.497809,0.75096 0.775,1.1 0.581629,0.69544 1.247611,1.33768 2,1.85 0.420744,0.29704 0.844601,0.55992 1.3,0.8 0.938021,0.51472 1.968184,0.84656 3.025,1 0.396,0.08416 0.796568,0.12768 1.2,0.15 0.240064,0.008 0.484928,-8e-4 0.725,0 0.259872,-0.0096 0.52008,-0.0132 0.775,-0.05 0.143552,-0.02 0.28392,-0.043 0.425,-0.075 0.418264,-0.08416 0.83916,-0.15372 1.25,-0.275 0.341544,-0.104 0.695832,-0.21144 1.025,-0.35 0.279672,-0.10888 0.55028,-0.2562 0.825,-0.375 0.376192,-0.1732 0.726024,-0.37728 1.075,-0.6 0.539544,-0.35144 1.024552,-0.7646 1.475,-1.225 0.53212,-0.53952 1.019104,-1.13404 1.425,-1.775 0.80436,-1.31176 1.33664,-2.793 1.5,-4.325 0.0124,-0.0916 0.0072,-0.1834 0,-0.275 0.004,-0.25808 0.04136,-0.51764 0.05,-0.775 l 14.875,0 0,-1.775 -15,0 c -8e-4,-0.008 8e-4,-0.0194 0,-0.025 -0.113848,-0.74744 -0.36564,-1.462 -0.675,-2.15 -0.383624,-0.87616 -0.906008,-1.70008 -1.5,-2.45 -0.589056,-0.73512 -1.272864,-1.39036 -2.05,-1.925 -0.329176,-0.22024 -0.66092,-0.41956 -1,-0.625 -0.507368,-0.29696 -1.065672,-0.54436 -1.625,-0.725 -1.074144,-0.34432 -2.197312,-0.50384 -3.325,-0.5 z m -0.2,1.1 c 0.06184,-0.008 0.1156,-0.008 0.175,0 -0.04696,0.78208 -0.0252,1.59044 -0.05,2.375 -0.01736,1.44784 -0.04532,2.87716 -0.075,4.325 -0.0099,0.34896 -0.01292,0.70104 -0.025,1.05 -0.07176,0.0248 -0.123288,0.0598 -0.2,0.075 -0.0272,-0.0152 -0.05764,-0.0502 -0.075,-0.075 -0.252456,-0.44304 -0.467608,-0.88444 -0.725,-1.325 -0.678152,-1.16816 -1.336709,-2.3494 -2,-3.525 -0.262356,-0.45536 -0.500031,-0.9372 -0.75,-1.4 -0.08167,-0.13608 -0.143593,-0.27872 -0.25,-0.4 0.08413,-0.072 0.200995,-0.12548 0.3,-0.175 0.351439,-0.16088 0.706223,-0.30372 1.075,-0.425 0.551912,-0.20296 1.118376,-0.3334 1.7,-0.425 0.294536,-0.0296 0.605472,-0.0478 0.9,-0.075 z m 0.625,0 c 0.2376,-0.008 0.467344,0.018 0.7,0.05 0.37372,0.0568 0.756224,0.1208 1.125,0.2 0.80684,0.20296 1.59216,0.45952 2.3,0.9 -0.136128,0.18072 -0.226248,0.38692 -0.35,0.575 -0.272248,0.43808 -0.527752,0.88692 -0.8,1.325 -0.237608,0.38856 -0.48492,0.78644 -0.725,1.175 -0.74248,1.16576 -1.40948,2.35456 -2.1,3.55 -0.0891,-0.0152 -0.188376,-0.0348 -0.275,-0.05 0.0072,-1.34392 0.05772,-2.68108 0.075,-4.025 0.01976,-0.9652 0.0252,-1.93472 0.05,-2.9 0,-0.26728 0.02952,-0.53272 0,-0.8 z m -22.05,1.075 c 0.09155,0.10088 0.160257,0.22992 0.225,0.35 0.211407,0.42664 0.411701,0.85048 0.575,1.3 0.270828,0.672 0.440202,1.3872 0.575,2.1 0.04778,0.36152 0.08028,0.7134 0.125,1.075 0.0086,0.076 0.0042,0.15164 0,0.225 -0.964879,-0.028 -1.932925,0.0258 -2.9,0.025 -1.78362,0.0336 -3.565932,0.0574 -5.35,0.075 -0.430113,0 -0.844805,0.0274 -1.275,0.025 -0.03322,-0.08744 -0.07882,-0.18108 -0.1,-0.275 0.01724,-0.0344 0.04512,-0.0276 0.075,-0.05 0.535987,-0.32768 1.092238,-0.64132 1.625,-0.975 1.412854,-0.87936 2.852447,-1.71364 4.275,-2.575 0.550856,-0.34032 1.114535,-0.64964 1.675,-0.975 0.164535,-0.10576 0.329675,-0.18932 0.475,-0.325 z m 17.075,0.275 c 0.183155,0.33656 0.391853,0.66584 0.575,1 0.47025,0.88352 0.97232,1.74644 1.45,2.625 0.579136,1.03456 1.160696,2.05552 1.725,3.1 -0.05192,0.0568 -0.08564,0.10296 -0.15,0.15 -0.423224,-0.24008 -0.851784,-0.45744 -1.275,-0.7 -1.772077,-1.03448 -3.525192,-2.1034 -5.275,-3.175 0.02475,-0.0496 0.04284,-0.10544 0.075,-0.15 0.472716,-0.72024 1.024086,-1.4082 1.675,-1.975 0.371264,-0.32664 0.779251,-0.61268 1.2,-0.875 z m 9.5,0.05 c 0.150976,0.0792 0.28392,0.17604 0.425,0.275 0.358864,0.25496 0.673296,0.55552 1,0.85 0.616272,0.55936 1.119344,1.21716 1.55,1.925 -0.37868,0.18808 -0.75376,0.40448 -1.125,0.6 -0.96772,0.5272 -1.937232,1.04044 -2.9,1.575 -0.841496,0.47024 -1.665936,0.94732 -2.5,1.425 -0.07176,0.0448 -0.148272,0.09284 -0.225,0.125 -0.06432,-0.064 -0.130688,-0.11804 -0.2,-0.175 0.188096,-0.37368 0.399512,-0.73376 0.6,-1.1 0.480144,-0.84152 0.987672,-1.67832 1.5,-2.5 0.539544,-0.87864 1.068136,-1.73624 1.625,-2.6 0.08167,-0.13368 0.195552,-0.254 0.25,-0.4 z m -45.925,0.175 c 0.441287,0.3448 0.945649,0.58964 1.425,0.875 l -1.85,0 c 0.126772,-0.29904 0.26263,-0.59204 0.425,-0.875 z m -0.65,1.45 3.1,0 c 0.681296,0.39808 1.360883,0.79196 2.05,1.175 1.170279,0.65656 2.334587,1.30876 3.525,1.925 -0.02396,0.1136 -0.04805,0.23624 -0.075,0.35 -0.722148,0.028 -1.427493,0.034 -2.15,0.05 -0.762147,0.0176 -1.534654,0.013 -2.3,0.025 -0.506677,-0.0088 -1.018106,0.0184 -1.525,0 -1.09182,0.0088 -2.183341,0.0598 -3.275,0.075 -0.02485,-0.60936 0.04941,-1.202 0.15,-1.8 0.06966,-0.31336 0.133909,-0.63904 0.225,-0.95 0.08287,-0.28624 0.175074,-0.5688 0.275,-0.85 z m 33.875,1.725 c 1.715168,1.06176 3.462572,2.09788 5.2,3.125 0.450448,0.26232 0.90204,0.50772 1.35,0.775 -0.02472,0.0744 -0.04284,0.15324 -0.075,0.225 -0.02968,0.0296 -0.06284,-0.0048 -0.1,0 -0.71032,-0.02 -1.414685,-0.0308 -2.125,-0.05 -0.89099,-0.0224 -1.786485,-0.043 -2.675,-0.075 -0.586577,-0.012 -1.165921,-0.043 -1.75,-0.075 -0.301953,-0.012 -0.598049,-0.025 -0.9,-0.025 -0.02226,-0.32424 0.02549,-0.65572 0.075,-0.975 0.08168,-0.5272 0.221792,-1.02252 0.4,-1.525 0.128694,-0.37864 0.309168,-0.76364 0.475,-1.125 0.04703,-0.09896 0.07055,-0.17852 0.125,-0.275 z m 15.9,0.125 c 0.188096,0.34152 0.356456,0.6912 0.5,1.05 0.170784,0.45544 0.29604,0.92736 0.4,1.4 0.121272,0.55192 0.127552,1.11316 0.125,1.675 -0.435616,-0.0344 -0.861944,-0.08024 -1.3,-0.1 -0.658368,-0.0448 -1.314184,-0.0702 -1.975,-0.075 -0.611312,0 -1.21368,-0.0072 -1.825,0 -0.62616,0 -1.273832,0.0152 -1.9,0 -0.227688,0 -0.447304,0.008 -0.675,0 -0.01976,-0.08168 -0.05764,-0.16832 -0.075,-0.25 0.871184,-0.49496 1.748848,-0.98996 2.625,-1.475 0.871184,-0.48512 1.743904,-0.95228 2.625,-1.425 0.487568,-0.27232 0.987432,-0.5252 1.475,-0.8 z m -26.75,0.275 0,1.775 8.275,0 0,-1.775 -8.275,0 z m -12.65,1.175 c 0.107727,0 0.214224,0.0658 0.25,0.175 0.082,0.18656 -0.04406,0.42596 -0.25,0.475 -0.0999,0.024 -0.205322,0.0332 -0.275,-0.05 -0.132981,-0.1576 -0.111146,-0.4528 0.075,-0.55 0.05058,-0.0288 0.135365,-0.0484 0.2,-0.05 z m 11.15,0.35 c 0.01814,0.29224 0.0058,0.58732 -0.025,0.875 -0.05593,0.4624 -0.116449,0.91788 -0.2,1.375 -0.219353,1.00128 -0.509321,2.01168 -1.025,2.9 -0.227653,-0.1608 -0.488679,-0.27972 -0.725,-0.425 -0.549795,-0.31864 -1.100226,-0.63136 -1.65,-0.95 -0.487494,-0.27784 -0.987406,-0.54404 -1.475,-0.825 -1.463634,-0.87008 -2.97677,-1.66996 -4.475,-2.475 0.01491,-0.11024 0.03502,-0.21772 0.05,-0.325 1.65525,-0.0416 3.319407,-0.0454 4.975,-0.075 1.189393,-0.012 2.385417,-0.0194 3.575,-0.025 0.329147,-0.0104 0.646966,-0.0012 0.975,-0.05 z m -12.875,0.375 c 0.04289,0.10544 0.09418,0.21612 0.125,0.325 -0.967088,0.59408 -1.938704,1.21076 -2.925,1.775 -1.091113,0.62848 -2.178106,1.2666 -3.25,1.925 -0.613534,0.38496 -1.214596,0.76208 -1.825,1.15 -0.208876,-0.3444 -0.370221,-0.70452 -0.525,-1.075 -0.300589,-0.74728 -0.534721,-1.50808 -0.675,-2.3 -0.07746,-0.53448 -0.176982,-1.08268 -0.2,-1.625 0.856694,-0.0176 1.718198,-0.0606 2.575,-0.075 0.722506,-0.016 1.452208,-0.0178 2.175,-0.025 0.793463,0.0096 1.582111,-0.0154 2.375,-0.025 0.719851,0 1.429888,-0.0556 2.15,-0.05 z m 3.05,0.625 c 0.467335,0.21744 0.916344,0.46704 1.375,0.7 1.054453,0.55936 2.093743,1.12532 3.125,1.725 1.102415,0.6312 2.215214,1.27196 3.3,1.925 0.167671,0.09552 0.318131,0.21356 0.5,0.275 -0.09181,0.18896 -0.23341,0.34756 -0.35,0.525 -0.300327,0.4516 -0.649694,0.86156 -1,1.275 -0.665425,0.78008 -1.469643,1.44288 -2.325,2 -0.245961,-0.4592 -0.520164,-0.90024 -0.775,-1.35 -0.685854,-1.17168 -1.355205,-2.35964 -2.05,-3.525 -0.610948,-1.0184 -1.230182,-2.01604 -1.85,-3.025 -0.05758,-0.08672 -0.107478,-0.1818 -0.15,-0.275 0.07682,-0.08168 0.132527,-0.16248 0.2,-0.25 z m -2.6,0.2 c 0.01061,0 0.01562,0.0178 0.025,0.025 0.0717,0.0496 0.143153,0.11268 0.2,0.175 -0.275285,0.47216 -0.549635,0.93088 -0.825,1.4 -0.327333,0.56528 -0.634945,1.13208 -0.95,1.7 -0.304627,0.50968 -0.567217,1.0682 -0.875,1.575 -0.553056,0.96272 -1.081252,1.93144 -1.625,2.9 -0.101397,0.17392 -0.207813,0.34828 -0.3,0.525 -0.041,0.056 0.03311,0.09872 0.05,0.15 -0.238062,-0.10248 -0.460108,-0.25712 -0.675,-0.4 -0.336476,-0.2276 -0.615128,-0.51916 -0.925,-0.775 -0.34436,-0.28528 -0.674959,-0.5926 -0.975,-0.925 -0.426177,-0.46584 -0.770285,-0.97704 -1.125,-1.5 0.319929,-0.2112 0.654967,-0.41684 0.975,-0.625 1.029016,-0.66312 2.06704,-1.2848 3.125,-1.9 0.497389,-0.29296 1.005753,-0.57916 1.5,-0.875 0.775876,-0.4632 1.533762,-0.94684 2.3,-1.425 0.0271,-0.012 0.06818,-0.0274 0.1,-0.025 z m 1.9,0.375 c 0.642572,1.05408 1.319454,2.08944 1.95,3.15 0.630378,1.0544 1.234493,2.13296 1.85,3.2 0.353734,0.59008 0.668198,1.185 1.025,1.775 -0.413482,0.24456 -0.838529,0.4596 -1.275,0.65 -0.55433,0.22752 -1.121812,0.40408 -1.7,0.55 -0.675055,0.17032 -1.383069,0.23176 -2.075,0.25 0.02616,-0.53776 0.09225,-1.08476 0.1,-1.625 0.02988,-0.8124 0.01873,-1.63608 0,-2.45 -0.02048,-0.75288 -0.01774,-1.49744 -0.05,-2.25 -0.02018,-0.7712 -0.09463,-1.5534 -0.1,-2.325 -0.0058,-0.28048 -0.0034,-0.54428 0,-0.825 0.09981,-0.0272 0.175095,-0.07552 0.275,-0.1 z m -1.2,0.075 c 0.112675,-0.008 0.214603,0.0324 0.325,0.05 0.03072,0.79224 0.03233,1.58316 0.075,2.375 0.04558,0.984 0.06971,1.9906 0.1,2.975 0.01308,0.72256 0.01073,1.42896 -0.025,2.15 -0.0078,0.6408 -0.06969,1.285 -0.05,1.925 -0.602786,0.04 -1.208029,-0.0464 -1.8,-0.15 -0.63824,-0.12064 -1.247734,-0.3092 -1.85,-0.55 -0.451273,-0.19048 -0.907229,-0.36284 -1.35,-0.575 0.279214,-0.5424 0.580357,-1.08812 0.875,-1.625 0.530978,-0.9864 1.065978,-1.93852 1.6,-2.925 0.242602,-0.44368 0.513571,-0.87836 0.75,-1.325 0.326366,-0.59576 0.658163,-1.18484 1,-1.775 0.119609,-0.1776 0.217922,-0.3812 0.35,-0.55 z m 31.95,0.5 c 0.125528,0.008 0.249008,0.09876 0.275,0.225 0.01728,0.08168 -0.0057,0.19552 -0.075,0.25 -0.131168,0.10392 -0.350752,0.0536 -0.425,-0.1 -0.05936,-0.11136 -0.04354,-0.308 0.1,-0.35 0.0384,-0.0152 0.08315,-0.0282 0.125,-0.025 z m -8.925,0.275 c 0.744981,0.0472 1.480035,0.07784 2.225,0.1 0.660826,0.0128 1.314185,0.0404 1.975,0.05 1.108792,0.0224 2.218672,0.05008 3.325,0.1 0.0272,0.08416 0.05524,0.16592 0.075,0.25 -0.504888,0.27472 -1.025048,0.54532 -1.525,0.825 -0.735059,0.42568 -1.457496,0.8416 -2.2,1.25 -0.935536,0.5296 -1.889457,1.04292 -2.825,1.575 -0.200469,-0.34648 -0.351496,-0.7038 -0.5,-1.075 -0.376197,-0.9776 -0.562438,-2.02556 -0.55,-3.075 z m 12.25,0.175 0.6,0 c 0.600256,4e-4 1.20044,0.025 1.8,0.025 0.586568,0.008 1.165904,0.0028 1.75,0.05 0.519736,0.0224 1.030248,0.1 1.55,0.1 0.01728,0.49 -0.05098,0.97232 -0.15,1.45 -0.113848,0.5148 -0.289632,1.01736 -0.5,1.5 -0.165824,0.36136 -0.316856,0.72108 -0.5,1.075 -0.433128,-0.24008 -0.871832,-0.49752 -1.3,-0.75 -0.78704,-0.45536 -1.53796,-0.91716 -2.325,-1.375 -0.35392,-0.20792 -0.7186,-0.42204 -1.075,-0.625 -0.475192,-0.27968 -0.929776,-0.58292 -1.4,-0.875 -0.141088,-0.10144 -0.31636,-0.18864 -0.45,-0.3 -0.0024,-0.0916 0.05764,-0.16088 0.075,-0.25 0.643504,-0.008 1.281528,-0.0058 1.925,-0.025 z m -2.2,0.675 c 0.3762,0.23512 0.75128,0.46488 1.125,0.7 0.450448,0.27968 0.89708,0.53024 1.35,0.8 0.405896,0.25992 0.846568,0.4876 1.25,0.75 0.767232,0.47272 1.527816,0.93464 2.3,1.4 0.1386,0.08656 0.283928,0.1708 0.425,0.25 0.04456,0.0344 0.08294,-0.013 0.125,-0.025 -0.0891,0.19056 -0.20372,0.3542 -0.325,0.525 -0.19304,0.26728 -0.43468,0.47996 -0.65,0.725 -0.240072,0.27224 -0.5228,0.53988 -0.8,0.775 -0.38856,0.33416 -0.81688,0.60028 -1.25,0.875 -0.163344,-0.26488 -0.289112,-0.5352 -0.45,-0.8 -0.512312,-0.85136 -1.002272,-1.72632 -1.475,-2.6 -0.225224,-0.41088 -0.447312,-0.8166 -0.675,-1.225 -0.3564,-0.64096 -0.731232,-1.2664 -1.1,-1.9 -0.0124,-0.0296 -0.0272,-0.07064 0,-0.1 0.04208,-0.0568 0.09803,-0.10544 0.15,-0.15 z m -2.2,0.05 c 0.06928,0.0672 0.133168,0.13312 0.2,0.2 -0.230168,0.396 -0.439872,0.80896 -0.675,1.2 -0.492512,0.83408 -0.997568,1.64836 -1.5,2.475 -0.284614,0.46528 -0.580468,0.94216 -0.875,1.4 -0.279664,0.44056 -0.540358,0.8894 -0.825,1.325 -0.334107,-0.20296 -0.645583,-0.425 -0.95,-0.675 -0.586572,-0.50984 -1.127039,-1.08644 -1.575,-1.725 -0.111378,-0.17816 -0.243573,-0.34188 -0.35,-0.525 0.05941,-0.0768 0.168319,-0.098 0.25,-0.15 0.596468,-0.33656 1.20353,-0.66344 1.8,-1 0.05444,-0.0344 0.108172,-0.0548 0.175,-0.05 0.0198,-0.0472 0.05546,-0.10276 0.1,-0.125 0.81427,-0.45544 1.643156,-0.90724 2.45,-1.375 0.581616,-0.33904 1.176048,-0.66812 1.775,-0.975 z m 1.625,0.375 c 0.457856,0.79944 0.941856,1.58576 1.375,2.4 0.482616,0.90088 0.967624,1.78892 1.475,2.675 0.296992,0.50736 0.575536,1.02012 0.875,1.525 -0.284616,0.16088 -0.570576,0.28368 -0.875,0.4 -0.613792,0.2252 -1.254024,0.40592 -1.9,0.5 -0.4356,0.0496 -0.859456,0.0948 -1.3,0.1 0.0072,-0.69544 -0.0104,-1.37956 0,-2.075 0.0048,-0.58656 0.01268,-1.16344 0.025,-1.75 0.02736,-0.64352 0.0126,-1.30648 0.025,-1.95 0.0148,-0.58408 0.0026,-1.16592 0.025,-1.75 0.08661,-0.032 0.185888,-0.05236 0.275,-0.075 z m -1.025,0.05 c 0.09158,0.0224 0.208424,0.0252 0.3,0.05 0.0048,0.58656 -0.01996,1.16336 -0.025,1.75 -0.0048,0.61872 -0.01532,1.2538 -0.025,1.875 -0.01976,0.4108 -0.02528,0.81412 -0.05,1.225 -0.01976,0.886 -0.01004,1.76392 -0.025,2.65 -0.494976,0.008 -0.967392,-0.0532 -1.45,-0.15 -0.252464,-0.064 -0.525024,-0.11832 -0.775,-0.2 -0.64348,-0.20784 -1.270868,-0.4436 -1.85,-0.8 0.294527,-0.35392 0.502506,-0.76392 0.75,-1.15 0.509841,-0.80432 1.012448,-1.63328 1.5,-2.45 0.561832,-0.93312 1.120352,-1.8496 1.65,-2.8 z" fill="#000000" fill-opacity="1" stroke="none"></path><g transform="matrix(0.8,0,0,0.8,19.558763,-12.635926)" style="" fill="#ff0000"><g transform="translate(0,-952.36217)" style="opacity:0.37000002;fill:#ff0000;display:none"><path d="m 590,472.36218 -20,70 60,0 0,-70 z" style="" fill="#ff0000" stroke="#000000" stroke-width="1px" stroke-linecap="butt" stroke-linejoin="miter" stroke-opacity="1"></path></g></g></svg>