<svg xmlns="http://www.w3.org/2000/svg" xmlns:xlink="http://www.w3.org/1999/xlink" version="1.1" x="0px" y="0px" viewBox="0 0 100 100" enable-background="new 0 0 100 100" xml:space="preserve"><g><rect x="-192" width="185" height="99"></rect><rect y="-36" width="100" height="30"></rect><text transform="matrix(1 0 0 1 66 -19.5)" fill="#000000" font-family="'Helvetica'" font-size="2.4">http://thenounproject.com</text><text transform="matrix(1 0 0 1 7.166 -24.5)"><tspan x="0" y="0" fill="#000000" font-family="'Helvetica-Bold'" font-size="6.1578">The Noun Project</tspan><tspan x="1.12" y="4.8" fill="#000000" font-family="'Helvetica-Bold'" font-size="4">Icon Template</tspan></text><text transform="matrix(1 0 0 1 -178.5 10.5)" fill="#000000" font-family="'Helvetica-Bold'" font-size="6.1578">Reminders</text><line fill="#000000" stroke="#FFFFFF" stroke-miterlimit="10" x1="8" y1="-14.5" x2="18" y2="-14.5"></line><line fill="#000000" stroke="#FFFFFF" stroke-miterlimit="10" x1="-179" y1="16.5" x2="-162" y2="16.5"></line><g><g><g><rect x="-170.802" y="31.318" fill="#000000" width="8.721" height="8.642"></rect><path fill="#000000" d="M-164.455,42.312h4.747v-4.703h-4.747V42.312z M-159.266,42.749h-5.63V37.17h5.63V42.749      L-159.266,42.749z M-166.221,44.062h8.279v-8.203h-8.279V44.062L-166.221,44.062z M-157.5,44.5h-9.163v-9.079h9.163V44.5      L-157.5,44.5z"></path><polygon fill="#000000" points="-166.149,44.133 -166.292,43.991 -158.013,35.787 -157.871,35.929     "></polygon></g></g></g><rect x="-179" y="58" fill="none" width="35" height="32.5"></rect><text transform="matrix(1 0 0 1 -179 60.1572)"><tspan x="0" y="0" fill="#000000" font-family="'Helvetica-Bold'" font-size="3">Strokes</tspan><tspan x="0" y="5" fill="#000000" font-family="'Helvetica'" font-size="2.4">Try to keep strokes at 4px</tspan><tspan x="0" y="10" fill="#000000" font-family="'Helvetica'" font-size="2.4">Minimum stroke weight is 2px</tspan><tspan x="0" y="14.5" fill="#000000" font-family="'Helvetica'" font-size="2.4">For thicker strokes use even </tspan><tspan x="0" y="17.5" fill="#000000" font-family="'Helvetica'" font-size="2.4">numbers: 6px, 8px etc.</tspan><tspan x="0" y="22" fill="#000000" font-family="'Helvetica-Bold'" font-size="2.4">Remember to expand strokes </tspan><tspan x="0" y="25" fill="#000000" font-family="'Helvetica-Bold'" font-size="2.4">before saving as an SVG </tspan></text><rect x="-136.5" y="58" fill="none" width="35" height="32.5"></rect><text transform="matrix(1 0 0 1 -136.5 60.1572)"><tspan x="0" y="0" fill="#000000" font-family="'Helvetica-Bold'" font-size="3">Size</tspan><tspan x="0" y="5" fill="#000000" font-family="'Helvetica'" font-size="2.4">Cannot be wider or taller than </tspan><tspan x="0" y="8.5" fill="#000000" font-family="'Helvetica'" font-size="2.4">100px (artboard size)</tspan><tspan x="0" y="13.5" fill="#000000" font-family="'Helvetica'" font-size="2.4">Scale your icon to fill as much of </tspan><tspan x="0" y="16.5" fill="#000000" font-family="'Helvetica'" font-size="2.4">the artboard as possible</tspan></text><rect x="-94" y="58" fill="none" width="35" height="32.5"></rect><text transform="matrix(1 0 0 1 -94 60.1572)"><tspan x="0" y="0" fill="#000000" font-family="'Helvetica-Bold'" font-size="3">Ungroup</tspan><tspan x="0" y="5" fill="#000000" font-family="'Helvetica'" font-size="2.4">If your design has more than one </tspan><tspan x="0" y="8" fill="#000000" font-family="'Helvetica'" font-size="2.4">shape, make sure to ungroup</tspan></text><rect x="-50" y="58" fill="none" width="35" height="32.5"></rect><text transform="matrix(1 0 0 1 -50 60.1572)"><tspan x="0" y="0" fill="#000000" font-family="'Helvetica-Bold'" font-size="3">Save as</tspan><tspan x="0" y="5" fill="#000000" font-family="'Helvetica'" font-size="2.4">Save as .SVG and make sure </tspan><tspan x="0" y="8" fill="#000000" font-family="'Helvetica'" font-size="2.4">“Use Artboards” is checked</tspan></text><text transform="matrix(1.0074 0 0 1 -125.542 30.5933)" fill="#000000" font-family="'Helvetica'" font-size="2.5731">100px</text><text transform="matrix(1.0074 0 0 1 -41 39)" fill="#000000" font-family="'Helvetica-Bold'" font-size="5.1462">.SVG</text><rect x="-126.514" y="34.815" fill="#000000" width="10.261" height="10.185"></rect><rect x="-126.477" y="31.766" fill="#000000" width="0.522" height="2.337"></rect><rect x="-116.812" y="31.766" fill="#000000" width="0.523" height="2.337"></rect><rect x="-127" y="32.337" fill="#000000" width="11.233" height="0.572"></rect><g><rect x="-83.805" y="33.844" fill="#000000" width="10.305" height="10.156"></rect><rect x="-76.809" y="28.707" fill="#000000" width="3.308" height="3.261"></rect></g><rect x="-178.5" y="22.5" fill="#000000" stroke="#FFFFFF" stroke-miterlimit="10" width="30" height="30"></rect><rect x="-136.5" y="22.5" fill="#000000" stroke="#FFFFFF" stroke-miterlimit="10" width="30" height="30"></rect><rect x="-93.5" y="22.5" fill="#000000" stroke="#FFFFFF" stroke-miterlimit="10" width="30" height="30"></rect><rect x="-49.5" y="22.5" fill="#000000" stroke="#FFFFFF" stroke-miterlimit="10" width="30" height="30"></rect></g><g><g><g><path fill-rule="evenodd" clip-rule="evenodd" fill="#000000" d="M59.327,0c1.105,0,2.18,0.232,3.227,0.696     C69.76,4.467,75.659,11.688,80.25,22.361l-5.491,2.002h-0.087c-0.117-0.173-0.263-0.348-0.436-0.522     c-1.57-1.507-3.43-2.262-5.58-2.262h-8.718c-2.15,0-3.981,0.754-5.493,2.262c-0.522,0.522-0.987,1.103-1.395,1.74     c-0.115-0.059-0.233-0.086-0.349-0.086h-5.404c-0.116,0-0.233,0.027-0.349,0.086c-0.407-0.637-0.872-1.218-1.395-1.74     c-1.512-1.507-3.342-2.262-5.493-2.262h-8.718c-2.15,0-4.01,0.754-5.579,2.262c-0.175,0.174-0.32,0.349-0.436,0.522h-0.088     l-5.492-2.002C24.398,11.688,30.298,4.467,37.446,0.696C38.551,0.232,39.625,0,40.673,0H59.327z M73.538,25.841l0.087,0.088     c0.756,0.985,1.134,2.145,1.134,3.48v1.74c0,1.683-0.582,3.104-1.744,4.263c-1.221,1.218-2.673,1.828-4.358,1.828h-8.718     c-1.686,0-3.109-0.61-4.272-1.828c-1.221-1.159-1.83-2.58-1.83-4.263v-1.74c0-0.985,0.202-1.855,0.609-2.61     c0.291-0.639,0.698-1.219,1.221-1.741c1.163-1.16,2.587-1.74,4.272-1.74h8.718c1.686,0,3.138,0.58,4.358,1.74     C73.247,25.291,73.422,25.552,73.538,25.841z M80.861,24.015l0.087-0.087c9.124,20.651,12.06,38.575,8.804,53.772     c-3.195,15.371-10.635,22.796-22.316,22.274H32.564c-11.682,0.521-19.121-6.903-22.317-22.274     c-3.254-15.197-0.32-33.122,8.805-53.772l0.087,0.087l5.23,1.915c-0.581,1.043-0.872,2.202-0.872,3.48v1.74     c0,2.145,0.756,3.974,2.267,5.481c1.569,1.567,3.428,2.35,5.579,2.35h8.718c2.15,0,3.981-0.783,5.493-2.35     c1.568-1.507,2.353-3.336,2.353-5.481v-1.74c0-0.754-0.086-1.48-0.26-2.175h4.706c-0.174,0.695-0.26,1.42-0.26,2.175v1.74     c0,2.145,0.784,3.974,2.353,5.481c1.512,1.567,3.343,2.35,5.493,2.35h8.718c2.15,0,4.01-0.783,5.58-2.35     c1.51-1.507,2.266-3.336,2.266-5.481v-1.74c0-1.278-0.291-2.437-0.871-3.48L80.861,24.015z M46.164,29.41v1.74     c0,1.683-0.61,3.104-1.831,4.263c-1.163,1.218-2.586,1.828-4.272,1.828h-8.718c-1.685,0-3.138-0.61-4.359-1.828     c-1.162-1.159-1.744-2.58-1.744-4.263v-1.74c0-1.335,0.378-2.495,1.134-3.48l0.087-0.088c0.116-0.289,0.29-0.55,0.522-0.782     c1.221-1.16,2.674-1.74,4.359-1.74h8.718c1.686,0,3.109,0.58,4.272,1.74c0.523,0.522,0.93,1.102,1.221,1.741     C45.961,27.555,46.164,28.424,46.164,29.41z"></path><path fill-rule="evenodd" clip-rule="evenodd" fill="#000000" stroke="#FFFFFF" stroke-width="0.1" stroke-linecap="round" stroke-linejoin="round" stroke-miterlimit="3" d="     M40.673,0c-1.047,0-2.122,0.232-3.227,0.696 M62.554,0.696C61.507,0.232,60.433,0,59.327,0"></path></g></g></g></svg>