<svg xmlns:dc="http://purl.org/dc/elements/1.1/" xmlns:cc="http://creativecommons.org/ns#" xmlns:rdf="http://www.w3.org/1999/02/22-rdf-syntax-ns#" xmlns:svg="http://www.w3.org/2000/svg" xmlns="http://www.w3.org/2000/svg" xmlns:sodipodi="http://sodipodi.sourceforge.net/DTD/sodipodi-0.dtd" xmlns:inkscape="http://www.inkscape.org/namespaces/inkscape" viewBox="0 0 80 80" version="1.1" x="0px" y="0px"><path style="" d="m 2.5703116,26.961948 5.8323003,0 0,40.826106 -5.8323003,0 z" fill="#000000" fill-opacity="1" stroke="none"></path><path style="" d="m 29.53125,52.78125 c -0.336853,0.01914 -0.617557,0.112374 -0.9375,0.3125 0.114513,0.465292 0.0625,1.061865 0.0625,1.5625 0,1.525686 -0.600235,2.903764 -1.53125,3.96875 l 0,4.25 0,7.28125 0,0.46875 0,4.53125 0,2.34375 c 0,1.537636 1.212363,2.78125 2.75,2.78125 l 57.59375,0 c 1.537636,0 2.774579,-1.178106 2.78125,-2.78125 0,0 0.0012,-1.744315 0,-2.34375 l 0,-4.53125 0,-0.46875 0,-7.28125 c 0.0022,-0.499196 0.04394,-1.452202 -0.218762,-1.71875 -1.595725,-1.62007 -4.539371,-1.562941 -6.8125,-1.625 -1.537064,-0.04196 -2.012229,-2.1578 -3.8125,-4.09375 C 71.378424,53.76024 29.875,52.78125 29.875,52.78125 c -0.135391,-0.0072 -0.231466,-0.0064 -0.34375,0 z M 8.6875,62.875 l 0,7.28125 18,0 0,-7.28125 z m 82.254116,0 0.08839,7.270201 1.844995,0.01105 0,-7.28125 z m -82.254116,7.75 0,4.53125 18,0 0,-4.53125 z m 82.309359,-0.01105 0.08839,4.464959 1.789752,0.07734 0,-4.53125 z" transform="scale(0.8,0.8)" fill="#000000" fill-opacity="1" stroke="none"></path><path style="" d="m 72.499343,38.626549 5.8323,0 0,29.161505 -5.8323,0 z" fill="#000000" fill-opacity="1" stroke="none"></path><path style="" d="m 11.387281,44.246718 c -1.5731716,0 -2.8432477,1.270075 -2.8432477,2.843246 l 0,0.145808 c 0,1.573171 1.2700761,2.843246 2.8432477,2.843246 l 5.978108,0 c 1.424931,0 2.56187,-1.040965 2.770343,-2.405824 -0.819359,0.529003 -1.795411,0.874846 -2.843247,0.874846 -2.573699,0 -4.691636,-1.857113 -5.139715,-4.301322 l -0.765489,0 z" fill="#000000" fill-opacity="1" stroke="none"></path><path style="" d="m 21.65625,48 c -3.422409,0 -6.1875,2.796341 -6.1875,6.21875 0,3.422409 2.765091,6.1875 6.1875,6.1875 3.42241,0 6.1875,-2.765091 6.1875,-6.1875 C 27.84375,50.796341 25.07866,48 21.65625,48 z" transform="scale(0.8,0.8)" fill="#000000" fill-opacity="1" stroke="none"></path><path transform="matrix(0.47192428,0,0,0.5216005,10.642608,14.018817)" style="" d="m 26.870058,32.471302 c 0,1.85499 -1.662058,3.358757 -3.712311,3.358757 -2.050252,0 -3.71231,-1.503767 -3.71231,-3.358757 0,-1.85499 1.662058,-3.358757 3.71231,-3.358757 2.050253,0 3.712311,1.503767 3.712311,3.358757 z" fill="none" stroke="#000000" stroke-width="0.96746683" stroke-miterlimit="4"></path><path style="" d="m 27.103585,51.223332 c -1.09824,1.89322 -2.253281,2.625058 -3.54487,2.45824 1.500992,1.07168 2.898315,-0.509136 3.871027,-1.87116 z" transform="scale(0.8,0.8)" fill="#ffffff" stroke="none"></path><g style="" transform="matrix(0.10115392,0,0,0.10115392,18.878209,10.094548)" overflow="visible"><path d="m 49.001,22.768 c -1.641,0 -2.97,-1.329 -2.97,-2.97 V 2.97 c 0,-1.64 1.329,-2.97 2.97,-2.97 1.64,0 2.969,1.33 2.969,2.97 v 16.829 c 0,1.64 -1.329,2.969 -2.969,2.969 z" style="" fill="#000000"></path><path d="m 49.001,98 c -1.641,0 -2.97,-1.329 -2.97,-2.97 V 78.203 c 0,-1.64 1.329,-2.97 2.97,-2.97 1.64,0 2.969,1.33 2.969,2.97 v 16.828 c 0,1.64 -1.329,2.969 -2.969,2.969 z" style="" fill="#000000"></path><path d="M 95.032,51.968 H 78.203 c -1.64,0 -2.97,-1.328 -2.97,-2.969 0,-1.64 1.33,-2.97 2.97,-2.97 h 16.829 c 1.64,0 2.97,1.33 2.97,2.97 -10e-4,1.641 -1.331,2.969 -2.97,2.969 z" style="" fill="#000000"></path><path d="M 19.798,51.968 H 2.969 C 1.329,51.968 0,50.64 0,49 0,47.36 1.329,46.03 2.969,46.03 h 16.829 c 1.64,0 2.97,1.33 2.97,2.97 0,1.64 -1.33,2.968 -2.97,2.968 z" style="" fill="#000000"></path><path d="m 81.549,84.519 c -0.76,0 -1.52,-0.29 -2.1,-0.87 L 67.55,71.75 c -1.16,-1.16 -1.16,-3.039 0,-4.198 1.159,-1.16 3.039,-1.16 4.199,0 l 11.9,11.898 c 1.16,1.16 1.16,3.04 0,4.199 -0.579,0.58 -1.34,0.87 -2.1,0.87 z" style="" fill="#000000"></path><path d="m 28.353,31.321 c -0.759,0 -1.519,-0.29 -2.099,-0.87 l -11.9,-11.899 c -1.16,-1.159 -1.16,-3.039 0,-4.199 1.16,-1.16 3.04,-1.16 4.2,0 l 11.9,11.899 c 1.16,1.159 1.16,3.04 0,4.2 -0.581,0.579 -1.341,0.869 -2.101,0.869 z" style="" fill="#000000"></path><path d="m 16.454,84.521 c -0.76,0 -1.52,-0.29 -2.1,-0.87 -1.16,-1.159 -1.16,-3.039 0,-4.199 L 26.253,67.553 c 1.16,-1.16 3.039,-1.16 4.199,0 1.16,1.159 1.16,3.038 0,4.198 l -11.899,11.9 c -0.578,0.58 -1.339,0.87 -2.099,0.87 z" style="" fill="#000000"></path><path d="m 69.652,31.324 c -0.76,0 -1.521,-0.29 -2.1,-0.87 -1.16,-1.159 -1.16,-3.041 0,-4.2 l 11.899,-11.9 c 1.16,-1.161 3.04,-1.161 4.199,0 1.16,1.159 1.16,3.04 0,4.199 l -11.899,11.9 c -0.58,0.581 -1.339,0.871 -2.099,0.871 z" style="" fill="#000000"></path><path d="M 49.001,68.362 C 38.326,68.362 29.64,59.676 29.64,49 c 0,-10.675 8.686,-19.361 19.361,-19.361 10.676,0 19.361,8.686 19.361,19.361 0,10.676 -8.685,19.362 -19.361,19.362 z m 0,-32.783 c -7.401,0 -13.422,6.02 -13.422,13.421 0,7.4 6.021,13.422 13.422,13.422 7.401,0 13.421,-6.021 13.421,-13.422 0,-7.401 -6.02,-13.421 -13.421,-13.421 z" style="" fill="#000000"></path></g><path style="" d="m 23.98689,6.99248 c -3.366958,0 -6.271302,1.6324384 -7.825,4.05 -0.0821,-0.0045 -0.166735,-0.025 -0.25,-0.025 -2.392141,0 -4.325,1.890501 -4.325,4.225 0,2.334499 1.932859,4.225 4.325,4.225 0.193659,0 0.388067,-0.02596 0.575,-0.05 1.242281,1.642536 3.164423,2.848501 5.4,3.325 -0.424963,0.406076 -0.7,0.955348 -0.7,1.575 0,1.239302 1.053056,2.25 2.35,2.25 1.296944,0 2.35,-1.010698 2.35,-2.25 0,-0.551352 -0.229765,-1.034338 -0.575,-1.425 4.360842,-0.567379 7.725,-3.907482 7.725,-7.925 0,-4.415948 -4.060989,-7.975 -9.05,-7.975 z" fill="none" stroke="#000000" stroke-width="0.56141651" stroke-linecap="round" stroke-linejoin="round" stroke-miterlimit="4" stroke-opacity="1" stroke-dasharray="none" stroke-dashoffset="0"></path></svg>