<svg xmlns:dc="http://purl.org/dc/elements/1.1/" xmlns:cc="http://creativecommons.org/ns#" xmlns:rdf="http://www.w3.org/1999/02/22-rdf-syntax-ns#" xmlns:svg="http://www.w3.org/2000/svg" xmlns="http://www.w3.org/2000/svg" xmlns:sodipodi="http://sodipodi.sourceforge.net/DTD/sodipodi-0.dtd" xmlns:inkscape="http://www.inkscape.org/namespaces/inkscape" viewBox="0 0 80 80" version="1.1" x="0px" y="0px"><path d="m 12.693964,1.2498273 c 0.35234,-0.0725 0.72541,-0.32126002 1.08812,-0.17617 0.34198,0.12435 0.66323,0.2798 0.99485,0.43524 1.5959,0.99485 3.26434,1.90679 4.71516,3.11927 1.49227,1.26428 3.03636,2.49748 4.32137,3.97939 2.24877,2.5907497 3.96903,5.6271097 5.11932,8.8499997 0.25908,0.71505 0.37307,1.47155 0.48706,2.21768 2.50785,0.98449 4.99497,2.05188 7.22302,3.56487 0.48706,0.34198 1.10884,0.33162 1.58554,0.68396 1.2021,0.77723 2.24877,1.76171 3.2747,2.7462 3.65814,3.3887 7.16084,6.93284 10.80861,10.33191 0.58033,0.61142 1.52336,0.80831 2.24877,0.32125 1.72026,-1.05702 3.81359,-1.34719 5.80328,-1.21247 2.63221,0.39379 4.91207,1.90679 7.05721,3.39906 2.27986,1.69954 4.46645,3.54415 6.24889,5.7722 1.27465,1.64771 2.25913,3.62705 2.33167,5.73073 0.17617,1.61663 -0.51815,3.15036 -1.2332,4.54936 -0.37306,0.77723 -1.22283,1.09848 -1.92751,1.49227 -1.63736,0.91195 -3.67887,0.88086 -5.40949,0.26944 -3.21253,-1.1192 -6.08308,-3.04672 -8.70492,-5.1815 -1.55445,-1.26428 -2.95346,-2.88091 -4.94315,-3.48197 -0.76686,-0.32125 -1.09848,-1.10884 -1.513,-1.77207 -0.53888,-0.82904 0.12436,-2.02078 -0.68396,-2.73583 -1.02593,-1.10884 -2.18659,-2.10369 -3.28507,-3.13999 -2.21768,-2.00006 -4.20738,-4.24883 -6.61159,-6.03127 -3.14077,-3.10703 -6.11904,-5.33288 -8.53911,-7.43027 -0.0616,-0.14049 0.0414,-0.30053 0.0622,-0.45597 -1.30573,-0.43525 -2.66329,-0.70468 -4.02084,-0.88086 -0.11399,1.40937 -0.11399,2.81874 0.0104,4.22811 0.60106,0.43524 0.58033,1.26429 0.87049,1.8757 0.78759,1.97934 2.04152,3.74105 3.1089,5.5753 2.69438,4.69444 5.46131,9.35779 8.34222,13.93823 0.58033,1.0363 2.00006,0.61142 2.78765,1.35755 0.88085,0.74614 1.48191,1.89643 1.38864,3.07782 -0.15545,1.04666 0.61142,1.8757 1.09848,2.72546 1.9586,2.95346 3.44051,6.20744 4.35246,9.62723 0.45597,2.05188 0.77722,4.29028 -0.0415,6.30071 -0.48706,1.3161 -1.46118,2.38349 -2.38349,3.40942 -0.73577,0.63215 -1.77207,0.70469 -2.66329,0.96376 -1.63735,0.37307 -3.28507,-0.14508 -4.77734,-0.80831 -1.26429,-0.70469 -2.47676,-1.57518 -3.37834,-2.72547 -1.97933,-2.32131 -3.55451,-4.9846 -4.76698,-7.78261 -0.99485,-2.44567 -1.93788,-4.97424 -2.06224,-7.63754 0.0311,-1.28501 0.33162,-2.53893 0.73578,-3.7514 0.41452,-1.72026 2.22804,-2.60111 2.95345,-4.1452 0.0415,-0.33162 -0.18653,-0.62178 -0.30052,-0.91195 -2.9431,-5.15041 -6.12454,-10.15574 -9.02618,-15.31651 -0.23835,-0.4767 -0.4767,-0.94303 -0.65287,-1.43009 -0.19689,-0.54924 0.0207,-1.13993 -0.0725,-1.69954 -0.56996,-2.20732 -1.47154,-4.34209 -1.77207,-6.62195 -0.16581,-0.6736 -0.16581,-1.4301 -0.54924,-2.03115 -0.31089,-0.23835 -0.72541,-0.31089 -1.07775,-0.49743 -0.60106,-0.31089 -1.20211,-0.65286 -1.81353,-0.95339 -0.45597,-0.23835 -1.00521,-0.23835 -1.41973,-0.5596 -3.20216,-2.33168 -6.04163,-5.26441 -7.91733,-8.77746 -1.0673897,-1.89643 -1.9171497,-3.9379399 -2.4249397,-6.0623597 -0.1969,-0.84977 -0.50779,-1.68917 -0.50779,-2.57002 0.10363,-0.22799 0.32125,-0.38343 0.48706,-0.55961 1.5959,1.01558 4.5804497,3.33689 4.5804497,3.33689 l 4.76698,3.1192597 -2.93273,-6.6012297 c 0,0 -1.08812,-1.97933 -1.44046,-3.05708 m 11.96927,16.9642297 c -1.05703,0.12435 -1.7099,1.37828 -1.28501,2.34204 0.26943,0.58032 0.87049,1.08811 1.55445,1.02593 0.91194,0.12436 1.83425,-0.73577 1.76171,-1.65808 0.0933,-1.05702 -1.00522,-1.9586 -2.03115,-1.70989 m 34.30153,21.65867 c -1.21247,0 -2.2695,0.96376 -2.5493,2.12441 -0.22799,1.13993 0.35234,2.2695 0.99485,3.17108 1.53372,1.96897 3.31616,3.75141 5.28513,5.27477 1.89643,1.47155 3.93794,2.87055 6.3007,3.45088 1.48191,0.1969 2.93273,-0.99485 3.07781,-2.47676 0.24872,-2.24877 -1.23319,-4.15556 -2.76692,-5.60638 -2.06223,-1.90679 -4.17629,-3.82395 -6.6945,-5.11932 -1.08811,-0.64251 -2.37312,-0.96376 -3.64777,-0.81868 m -21.34778,16.89169 c -0.78759,0.18653 -1.45082,0.77722 -1.80316,1.50263 -0.71505,1.48191 -0.80832,3.2229 -0.46634,4.80844 0.49743,2.12441 1.54409,4.06229 2.52857,5.97945 1.10884,1.78243 2.19696,3.61668 3.79286,5.01569 1.05703,0.65287 2.37313,1.24356 3.62705,0.81868 1.21247,-0.40416 2.34204,-1.40937 2.41458,-2.7462 0.31089,-1.8757 -0.45597,-3.69959 -1.07775,-5.41985 -0.58033,-1.60626 -1.44046,-3.07781 -2.27986,-4.55972 -0.98449,-1.62699 -2.13478,-3.16071 -3.5027,-4.47681 -0.46633,-0.37307 -0.96375,-0.76687 -1.54408,-0.94304 -0.5596,-0.0933 -1.12957,-0.0518 -1.68917,0.0207 z" style="" fill="#000000" stroke="none"></path></svg>