<svg xmlns:dc="http://purl.org/dc/elements/1.1/" xmlns:cc="http://creativecommons.org/ns#" xmlns:rdf="http://www.w3.org/1999/02/22-rdf-syntax-ns#" xmlns:svg="http://www.w3.org/2000/svg" xmlns="http://www.w3.org/2000/svg" xmlns:sodipodi="http://sodipodi.sourceforge.net/DTD/sodipodi-0.dtd" xmlns:inkscape="http://www.inkscape.org/namespaces/inkscape" viewBox="0 0 80 80" version="1.1" x="0px" y="0px"><path style="" d="m 27.232398,1.8465667 c -1.21e-4,0.2467368 0,0.592664 0,0.8 0.565481,1.9718884 2.3,0.8 2.3,0.8 l 1.775,-1.6 z m 5.025,0 -1.75,1.575 2.225,1.425 3.3,-3 z m 5.7,0 -1.275,1.15 4.8,4.35 2.225,-1.425 -4.525,-4.075 z m 2.2,0 1.025,0.925 1.475,-0.925 z m 4.05,0 c -0.889387,0.5963928 -2.1,1.325 -2.1,1.325 l 2.225,2 c 0,0 1.450561,0.979408 1.925,-0.675 0,-0.6874183 -9.6e-4,-1.6888372 0,-2.65 l -0.225,0 c -0.538738,0.380972 -1.195638,0.3332348 -1.725,0 z m -8.275,1.525 -5.125,4.625 2.225,1.4 4.8,-4.325 z m -8.35,1.05 c 0.0014,1.02798 0,2.0857011 0,2.825 0.47265,1.654408 1.925,0.7 1.925,0.7 l 2.225,-2 c 0,0 -1.257404,-0.773124 -2.15,-1.375 -0.61375,0.412329 -1.413044,0.446418 -2,-0.15 z m 11,1.075 -1.9,1.7 4.8,4.3500003 2.225,-1.425 z m 7.975,0.725 c -0.58693,0.5964191 -1.361252,0.5623311 -1.975,0.15 -0.892772,0.6018771 -2.175,1.375 -2.175,1.375 l 2.225,2 c 0,0 1.450563,0.9544063 1.925,-0.7 0,-0.7392992 -0.0014,-1.7970192 0,-2.825 z m -10.625,1.35 -5.125,4.6000003 2.225,1.425 4.8,-4.3500003 z m -8.35,1.025 c 0.0014,1.0279808 0,2.1107013 0,2.8500003 0.47265,1.654407 1.925,0.675 1.925,0.675 l 2.225,-2 c 0,0 -1.257404,-0.7481259 -2.15,-1.3500003 -0.61375,0.4123288 -1.413044,0.42142 -2,-0.175 z m 10.675,0.975 -1.875,1.7000003 4.8,4.35 2.225,-1.425 z m 8.3,0.8500003 c -0.58693,0.596419 -1.361252,0.56233 -1.975,0.15 -0.892772,0.601876 -2.175,1.375 -2.175,1.375 l 2.225,2 c 0,0 1.45056,0.954407 1.925,-0.7 0,-0.739299 -0.0014,-1.797019 0,-2.825 z m -10.925,1.225 -5.125,4.625 2.225,1.4 4.775,-4.325 z m -8.4,0.55 c 0.0017,1.225252 0,2.518821 0,3.4 0.565481,1.971889 2.3,0.8 2.3,0.8 l 2.65,-2.375 c 0,0 -1.510908,-0.907608 -2.575,-1.625 -0.731534,0.491459 -1.675628,0.510876 -2.375,-0.2 z m 11.35,1.925 -1.9,1.7 4.8,4.35 2.225,-1.425 z m 7.675,0.375 c -0.586931,0.596419 -1.386251,0.562339 -2,0.15 -0.892771,0.601885 -2.15,1.375 -2.15,1.375 l 2.225,2 c 0,0 1.450561,0.954407 1.925,-0.7 0,-0.739299 -0.0014,-1.797029 0,-2.825 z m -10.325,1.7 -5.125,4.625 2.225,1.425 4.8,-4.35 z m -8.35,1.05 c 0.0014,1.027971 0,2.085689 0,2.825 0.472649,1.654407 1.925,0.7 1.925,0.7 l 2.225,-2 c 0,0 -1.257404,-0.773115 -2.15,-1.375 -0.61375,0.41233 -1.413044,0.44642 -2,-0.15 z m 11,1.075 -1.9,1.7 4.8,4.35 2.225,-1.425 z m 7.975,0.725 c -0.586929,0.596417 -1.361251,0.562329 -1.975,0.15 -0.892771,0.601885 -2.175,1.375 -2.175,1.375 l 2.225,2 c 0,0 1.450561,0.954398 1.925,-0.7 0,-0.739309 -0.0014,-1.79702 0,-2.825 z m -10.625,1.35 -5.125,4.625 2.225,1.4 4.8,-4.325 z m -8.35,1.05 c 0.0014,1.027982 0,2.085701 0,2.825 0.472649,1.654409 1.925,0.7 1.925,0.7 l 2.225,-2 c 0,0 -1.257404,-0.773125 -2.15,-1.375 -0.61375,0.412329 -1.413044,0.44642 -2,-0.15 z m 10.675,0.95 -1.875,1.7 4.8,4.35 2.225,-1.425 z m 8.3,0.85 c -0.586929,0.59642 -1.361251,0.562329 -1.975,0.15 -0.892772,0.601875 -2.175,1.375 -2.175,1.375 l 2.225,2 c 0,0 1.45056,0.954408 1.925,-0.7 0,-0.7393 -0.0014,-1.797018 0,-2.825 z m -10.925,1.225 -5.125,4.625 2.225,1.4 4.775,-4.325 z m -8.4,0.575 c 0.0017,1.225244 0,2.49383 0,3.375 0.565481,1.97189 2.3,0.825 2.3,0.825 l 2.65,-2.4 c 0,0 -1.510908,-0.907617 -2.575,-1.625 -0.731533,0.491451 -1.675629,0.535867 -2.375,-0.175 z m 11.35,1.925 -1.9,1.675 4.8,4.35 2.225,-1.425 z m 7.675,0.35 c -0.58693,0.596419 -1.386252,0.562329 -2,0.15 -0.892772,0.601875 -2.15,1.375 -2.15,1.375 l 2.225,2 c 0,0 1.450562,0.95441 1.925,-0.7 0,-0.739299 -0.0014,-1.797018 0,-2.825 z m -10.325,1.7 -5.125,4.625 2.225,1.425 4.8,-4.35 z m -8.35,1.05 c 0.0014,1.027971 0,2.085701 0,2.825 0.47265,1.654409 1.925,0.7 1.925,0.7 l 2.225,-2 c 0,0 -1.257404,-0.773115 -2.15,-1.375 -0.61375,0.412339 -1.413044,0.446419 -2,-0.15 z m 11,1.075 -1.9,1.7 4.8,4.35 2.225,-1.425 z m 7.975,0.725 c -0.586931,0.59642 -1.361251,0.562329 -1.975,0.15 -0.892771,0.601885 -2.175,1.375 -2.175,1.375 l 2.225,2 c 0,0 1.450561,0.979409 1.925,-0.675 0,-0.739309 -0.0014,-1.822028 0,-2.85 z m -10.625,1.35 -5.125,4.625 2.225,1.425 4.8,-4.35 z m -8.35,1.05 c 0.0014,1.02798 0,2.085689 0,2.825 0.47265,1.654398 1.925,0.7 1.925,0.7 l 2.225,-2 c 0,0 -1.257404,-0.773114 -2.15,-1.375 -0.61375,0.412329 -1.413044,0.446428 -2,-0.15 z m 10.675,1.075 -1.875,1.7 4.8,4.35 2.225,-1.425 z m 8.3,0.725 c -0.586931,0.596417 -1.361251,0.562329 -1.975,0.15 -0.892772,0.601886 -2.175,1.375 -2.175,1.375 l 2.225,2 c 0,0 1.45056,0.954408 1.925,-0.7 0,-0.739299 -0.0014,-1.79702 0,-2.825 z m -10.925,1.35 -5.125,4.625 2.225,1.4 4.775,-4.325 z m -8.4,0.45 c 0.0017,1.225252 0,2.493832 0,3.375 0.565481,1.9719 2.3,0.825 2.3,0.825 l 2.65,-2.4 c 0,0 -1.510908,-0.907619 -2.575,-1.625 -0.731534,0.49146 -1.675629,0.535876 -2.375,-0.175 z m 11.35,2.05 -1.9,1.675 4.8,4.35 2.225,-1.425 z m 7.675,0.35 c -0.586929,0.59642 -1.386251,0.562329 -2,0.15 -0.892771,0.601875 -2.15,1.375 -2.15,1.375 l 2.225,2 c 0,0 1.450561,0.954409 1.925,-0.7 0,-0.739299 -0.0014,-1.797018 0,-2.825 z m -10.325,1.7 -5.125,4.625 2.225,1.425 4.8,-4.35 z m -8.35,1.05 c 0.0014,1.027983 0,2.085701 0,2.825 0.47265,1.654409 1.925,0.7 1.925,0.7 l 2.225,-2 c 0,0 -1.257404,-0.773123 -2.15,-1.375 -0.61375,0.412329 -1.413044,0.44642 -2,-0.15 z m 11,1.075 -1.9,1.7 4.8,4.35 2.225,-1.425 z m 7.975,0.725 c -0.586929,0.596419 -1.361251,0.562329 -1.975,0.15 -0.892771,0.601885 -2.175,1.375 -2.175,1.375 l 2.225,2 c 0,0 1.450561,0.979409 1.925,-0.675 0,-0.739308 -0.0014,-1.822028 0,-2.85 z m -10.625,1.35 -5.125,4.625 2.225,1.425 4.8,-4.35 z m -8.35,1.05 c 0.0014,1.027981 0,2.085701 0,2.825 0.472649,1.654409 1.925,0.7 1.925,0.7 l 2.225,-2 c 0,0 -1.257404,-0.773114 -2.15,-1.375 -0.61375,0.412329 -1.413044,0.446417 -2,-0.15 z m 10.675,0.975 -1.875,1.675 4.8,4.35 2.225,-1.425 z m 8.3,0.825 c -0.58693,0.596417 -1.361252,0.562329 -1.975,0.15 -0.892772,0.601885 -2.175,1.375 -2.175,1.375 l 2.225,2 c 0,0 1.45056,0.954408 1.925,-0.7 0,-0.7393 -0.0014,-1.797019 0,-2.825 z m -10.925,1.225 -5.125,4.625 2.225,1.425 4.775,-4.35 z m -8.4,0.575 c 0.0017,1.225243 0,2.493831 0,3.375 0.565481,1.971892 2.3,0.825 2.3,0.825 l 2.65,-2.375 c 0,0 -1.510908,-0.932619 -2.575,-1.65 -0.731533,0.49145 -1.675629,0.535865 -2.375,-0.175 z m 11.35,1.925 -1.9,1.7 4.8,4.325 2.225,-1.4 z m 7.675,0.35 c -0.586931,0.596418 -1.386251,0.562329 -2,0.15 -0.892771,0.601876 -2.15,1.375 -2.15,1.375 l 2.225,2 c 0,0 1.450561,0.979408 1.925,-0.675 0,-0.739299 -0.0014,-1.82202 0,-2.85 z m -10.325,1.7 -5.125,4.625 2.225,1.425 4.8,-4.35 z m -8.35,1.05 c 0.0014,1.027987 0,2.110703 0,2.85 0.472649,1.654408 1.925,0.675 1.925,0.675 l 2.225,-2 c 0,0 -1.257404,-0.748119 -2.15,-1.35 -0.61375,0.412325 -1.413044,0.421421 -2,-0.175 z m 11,1.1 -1.9,1.7 4.8,4.325 2.225,-1.4 z m 7.975,0.7 c -0.586929,0.596424 -1.361251,0.587339 -1.975,0.175 -0.892771,0.601883 -2.175,1.35 -2.175,1.35 l 2.225,2 c 0,0 1.450561,0.979408 1.925,-0.675 0,-0.739297 -0.0014,-1.822025 0,-2.85 z m -10.625,1.35 -5.125,4.625 2.225,1.425 4.8,-4.35 z m -8.35,1.05 c 0.0014,1.027976 0,2.110691 0,2.85 0.472649,1.654408 1.925,0.675 1.925,0.675 l 2.225,-2 c 0,0 -1.257404,-0.773104 -2.15,-1.375 -0.61375,0.41234 -1.413044,0.446424 -2,-0.15 z m 10.675,0.975 -1.875,1.7 4.8,4.325 2.225,-1.4 z m 8.3,0.825 c -0.58693,0.596423 -1.361252,0.562327 -1.975,0.15 -0.892772,0.601883 -2.175,1.375 -2.175,1.375 l 2.225,2 c 0,0 1.45056,0.979396 1.925,-0.675 0,-0.739309 -0.0014,-1.822011 0,-2.85 z m -10.925,1.225 -5.125,4.625 2.225,1.425 4.775,-4.35 z m -8.4,0.575 c 0.0017,1.225245 0,2.493821 0,3.375 0.565481,1.971895 2.3,0.825 2.3,0.825 l 2.65,-2.375 c 0,0 -1.510908,-0.932614 -2.575,-1.65 -0.731533,0.49147 -1.675629,0.535873 -2.375,-0.175 z m 11.35,1.925 -1.9,1.7 4.8,4.35 2.225,-1.425 z m 7.675,0.35 c -0.586931,0.596411 -1.386251,0.587327 -2,0.175 -0.892771,0.601884 -2.15,1.35 -2.15,1.35 l 2.225,2 c 0,0 1.450561,0.979409 1.925,-0.675 0,-0.739296 -0.0014,-1.822024 0,-2.85 z m -10.325,1.725 -5.125,4.625 2.225,1.4 4.8,-4.325 z m -8.35,1.025 c 0.0014,1.027988 0,2.110704 0,2.85 0.472649,1.654421 1.925,0.7 1.925,0.7 l 2.225,-2.025 c 0,0 -1.257404,-0.748116 -2.15,-1.35 -0.61375,0.412327 -1.413044,0.421424 -2,-0.175 z m 11,1.1 -1.9,1.7 4.8,4.325 2.225,-1.4 z m 7.975,0.725 c -0.58693,0.596424 -1.361251,0.562327 -1.975,0.15 -0.892771,0.601871 -2.175,1.375 -2.175,1.375 l 2.225,2 c 0,0 1.450561,0.954396 1.925,-0.7 0,-0.739309 -0.0014,-1.797024 0,-2.825 z m -10.625,1.35 -5.125,4.6 1.45,0.925 1.325,0 4.25,-3.85 z m -8.35,1.025 c 0.0014,1.027989 0,2.110703 0,2.85 0.472649,1.654408 1.925,0.675 1.925,0.675 l 2.225,-2 c 0,0 -1.257404,-0.748117 -2.15,-1.35 -0.61375,0.412327 -1.413044,0.421424 -2,-0.175 z m 10.675,0.975 -1.875,1.7 2.025,1.825 3.775,0 z m 8.3,0.825 c -0.58693,0.596423 -1.361252,0.587327 -1.975,0.175 -0.892772,0.601871 -2.175,1.35 -2.175,1.35 l 1.3,1.175 2.85,0 c -1.28e-4,-0.732323 -0.0014,-1.726128 0,-2.7 z m -10.925,1.25 -1.625,1.45 3.25,0 z m -8.4,0.55 c 4.5e-4,0.324329 -6.8e-5,0.576973 0,0.9 l 3.475,0 c -0.375692,-0.238102 -0.751458,-0.465018 -1.1,-0.7 -0.731533,0.49147 -1.675629,0.510873 -2.375,-0.2 z" fill="#000000" stroke="none"></path></svg>