<svg xmlns:dc="http://purl.org/dc/elements/1.1/" xmlns:cc="http://creativecommons.org/ns#" xmlns:rdf="http://www.w3.org/1999/02/22-rdf-syntax-ns#" xmlns:svg="http://www.w3.org/2000/svg" xmlns="http://www.w3.org/2000/svg" xmlns:sodipodi="http://sodipodi.sourceforge.net/DTD/sodipodi-0.dtd" xmlns:inkscape="http://www.inkscape.org/namespaces/inkscape" viewBox="0 0 80 80" version="1.1" x="0px" y="0px"><path style="" d="m 34.443707,17.416056 8.416757,0 c 0.690795,0 1.246923,0.556128 1.246923,1.246929 l 0,19.327367 c 0,0.6908 -0.556128,1.24693 -1.246923,1.24693 l -8.416757,0 c -0.690795,0 -1.246918,-0.55613 -1.246918,-1.24693 l 0,-19.327367 c 0,-0.690801 0.556123,-1.246929 1.246918,-1.246929 z" fill="#000000" fill-opacity="1" stroke="none"></path><path style="" d="m 43.328062,12.116635 c 0,1.291236 0.155869,4.675959 0.155869,4.675959 0,0 -0.05534,0 -0.154658,0 -0.09933,0 -0.292749,-0.311734 -0.468803,-0.311734 -0.176054,0 -0.334748,0.31174 -0.5649,0.31174 -0.230157,0 -0.420392,-0.31174 -0.682029,-0.31174 -0.261643,0 -0.594687,0.31174 -0.865191,0.311745 -0.270504,0 -0.124979,-0.311745 -0.381732,-0.311745 -0.256759,0 -0.915803,0.311751 -1.136188,0.311751 -0.22039,0 -0.572799,-0.311751 -0.734203,-0.311751 -0.161409,0 -0.202096,0.311751 -0.422486,0.311751 -0.220385,0 -0.567689,-0.311751 -0.824443,-0.311751 -0.256759,0 -0.422967,0.311745 -0.693471,0.311745 -0.270504,-5e-6 -0.603549,-0.311745 -0.865186,-0.311745 -0.261642,0 -0.451877,0.31174 -0.682029,0.31174 -0.230157,0 -0.388845,-0.31174 -0.564899,-0.31174 -0.176055,0 -0.36947,0.311734 -0.468803,0.311734 -0.09933,0 -0.154659,0 -0.154659,0 0,0 0.155858,-3.384723 0.155858,-4.675959 0,-2.5824683 2.093509,-4.6759763 4.675977,-4.6759763 2.582473,0 4.675976,2.093508 4.675976,4.6759763 z" fill="#000000" fill-opacity="1" stroke="none"></path><path style="" d="m 40.370137,38.357182 2.182113,0 c 0.518102,0 0.935195,0.4171 0.935195,0.9352 l 0,20.57415 c 0,0.5181 -0.417093,0.9352 -0.935195,0.9352 l -2.182113,0 c -0.518101,0 -0.935195,-0.4171 -0.935195,-0.9352 l 0,-20.57415 c 0,-0.5181 0.417094,-0.9352 0.935195,-0.9352 z" fill="#000000" fill-opacity="1" stroke="none"></path><path style="" d="m 34.765722,38.274522 2.182125,0 c 0.518101,0 0.935195,0.4171 0.935195,0.9352 l 0,20.57422 c 0,0.5181 -0.417094,0.9352 -0.935195,0.9352 l -2.182125,0 c -0.518101,0 -0.935195,-0.4171 -0.935195,-0.9352 l 0,-20.57422 c 0,-0.5181 0.417094,-0.9352 0.935195,-0.9352 z" fill="#000000" fill-opacity="1" stroke="none"></path><path style="" d="m 45.354322,17.727789 1.246929,0 c 0.518096,0 0.935195,0.417099 0.935195,0.935196 l 0,15.274847 c 0,0.5181 -0.417099,0.9352 -0.935195,0.9352 l -1.246929,0 c -0.518096,0 -0.935196,-0.4171 -0.935196,-0.9352 l 0,-15.274847 c 0,-0.518097 0.4171,-0.935196 0.935196,-0.935196 z" fill="#000000" fill-opacity="1" stroke="none"></path><path style="" d="m 30.702931,17.727789 1.246929,0 c 0.518096,0 0.935195,0.417099 0.935195,0.935196 l 0,15.274847 c 0,0.5181 -0.417099,0.9352 -0.935195,0.9352 l -1.246929,0 c -0.518096,0 -0.935189,-0.4171 -0.935189,-0.9352 l 0,-15.274847 c 0,-0.518097 0.417093,-0.935196 0.935189,-0.935196 z" fill="#000000" fill-opacity="1" stroke="none"></path><path style="" d="m 44.107393,33.314372 2.182118,12.46927 -15.274852,0 2.18213,-12.46927 z" fill="#000000" stroke="none"></path><path d="m 30.06616,5.7498647 c -0.320623,0.01862 -0.636052,0.09184 -0.961983,0.212203 -1.738288,0.641908 -3.456119,2.623057 -4.300633,5.5314053 l 0,0.01415 -0.01415,0 c -2.257272,8.688048 -0.755406,17.185012 0.282936,25.506712 1.038343,8.3217 1.624077,16.45382 -2.390812,24.50229 -0.23512,0.49667 -0.327731,0.84464 -0.31123,1.1176 0.0083,0.13648 0.04629,0.26596 0.155615,0.35367 0.109321,0.0877 0.251802,0.10065 0.367817,0.0849 0.232025,-0.0315 0.431274,-0.16552 0.650754,-0.33952 0.213209,-0.16904 0.416154,-0.37174 0.580019,-0.60831 0.006,-0.006 0.02224,-0.022 0.02829,-0.0283 0.704919,-0.7428 1.246363,-1.55477 1.725912,-2.29178 -0.271919,0.81403 -0.344175,1.10158 -0.848809,2.4191 -0.916906,2.39391 -2.125956,5.17051 -3.267916,6.66316 -0.29929,0.38642 -0.436921,0.68618 -0.367817,0.97613 0.03458,0.14497 0.148604,0.27479 0.26879,0.33952 0.120185,0.0647 0.244655,0.0839 0.381964,0.0849 0.549225,0.004 1.236404,-0.30735 1.655178,-0.84881 0.544262,-0.7037 1.431126,-1.89978 2.037142,-2.71619 -0.425055,1.58958 -1.944395,7.17982 -3.183035,10.56768 l 0,0.0141 c -0.10528,0.35431 -0.157958,0.69857 -0.169762,0.99028 -0.01177,0.29171 0.009,0.53758 0.141469,0.73563 0.06623,0.099 0.179687,0.19309 0.31123,0.21221 0.131543,0.0191 0.266775,-0.0309 0.381964,-0.099 0.230373,-0.13619 0.444471,-0.39127 0.721488,-0.80637 l 0.01415,-0.0142 0.01415,-0.0141 C 36.261149,45.258402 36.701019,19.118608 36.701019,19.118608 l 0,-0.141468 -0.127322,-0.07073 c 0,0 -1.183534,-0.606055 -2.419106,-1.55615 -1.235572,-0.950095 -2.494667,-2.246758 -2.702042,-3.480117 -0.218591,-1.300076 -0.220962,-2.228226 0.02829,-2.970832 0.249255,-0.742606 0.765365,-1.3375763 1.641031,-1.9522613 l 0.113174,-0.08488 -0.02829,-0.141468 c -0.299771,-1.27993 -0.876639,-2.14631 -1.612737,-2.603019 -0.368049,-0.228359 -0.780016,-0.343514 -1.20248,-0.367818 -0.105614,-0.0061 -0.2185,-0.0062 -0.325377,0 z m 0.04244,0.438552 c 0.0909,-0.0062 0.180746,-0.0051 0.26879,0 0.352171,0.01969 0.686709,0.122885 0.990277,0.31123 0.581259,0.360641 1.056055,1.094448 1.343948,2.206903 -0.824901,0.609066 -1.401254,1.23848 -1.669324,2.0371423 -0.285795,0.851463 -0.252453,1.864007 -0.02829,3.197181 0.246703,1.467251 1.58682,2.785842 2.857657,3.763053 1.205762,0.927172 2.261788,1.452867 2.376666,1.51371 -0.0063,0.34611 -0.525374,26.131186 -12.689697,58.864916 -0.258298,0.38706 -0.46371,0.61029 -0.580019,0.67904 -0.04697,0.0278 -0.06553,0.0137 -0.07073,0.0142 -0.02858,-0.0427 -0.08057,-0.20949 -0.07073,-0.4527 0.0098,-0.2432 0.05956,-0.568 0.155615,-0.89125 l -0.01415,0 c 1.380882,-3.78148 3.266092,-10.89087 3.42353,-11.48721 l 0.09903,0.0283 c 0,0 2.079746,-6.99522 2.758629,-11.34575 0.366324,-2.3475 0.413535,-7.00522 0.381964,-11.0911 -0.03158,-4.08588 -0.155615,-7.5827 -0.155615,-7.5827 l -0.438551,0.0142 c 0,0 0.109955,3.48964 0.141468,7.56855 0.03152,4.07889 -0.01466,8.75729 -0.367817,11.02037 -0.623835,3.99776 -2.428058,10.13264 -2.673749,10.96378 l -0.05659,-0.0283 c 0,0 -2.009057,2.73146 -2.730336,3.66402 -0.307999,0.39824 -0.969012,0.68142 -1.315654,0.67905 -0.08666,-4.5e-4 -0.155129,-0.0269 -0.183909,-0.0424 -0.0288,-0.0155 -0.02309,-0.007 -0.02829,-0.0283 -0.01035,-0.0436 0.01947,-0.26812 0.282937,-0.60832 1.210973,-1.58285 2.415994,-4.36739 3.338649,-6.77632 0.889813,-2.32317 1.471626,-4.19349 1.51371,-4.32893 l 0.02829,0 c 0,0 0.01301,-0.0931 0.01415,-0.099 0.05444,-0.28714 1.386422,-7.34429 1.414682,-11.67112 0.02807,-4.30192 -0.990277,-11.07696 -0.990277,-11.07696 l -0.438552,0.0707 c 0,0 1.003728,6.77862 0.976131,11.00623 -0.02767,4.23509 -1.374381,11.29894 -1.428829,11.58624 -0.08741,0.17059 -1.201982,2.32914 -2.744483,3.94697 l -0.01415,0.0283 c -0.13586,0.20032 -0.34087,0.39285 -0.523433,0.53758 -0.182562,0.14473 -0.361406,0.24416 -0.438551,0.25464 -0.03859,0.005 -0.02829,-0.0114 -0.01415,0 0.01415,0.0114 0.0034,0.0136 0,-0.0424 -0.0068,-0.11209 0.06242,-0.41128 0.282936,-0.8771 4.07712,-8.17321 3.473515,-16.41984 2.433254,-24.75694 -1.039582,-8.331606 -2.517636,-16.75753 -0.297083,-25.322801 0.0017,-0.0057 -0.0017,-0.0085 0,-0.01415 0.815388,-2.7926383 2.495951,-4.6671543 4.031843,-5.2343223 0.28855,-0.106554 0.576126,-0.179415 0.848809,-0.198055 z" style="text-indent:0;text-transform:none;direction:ltr;block-progression:tb;baseline-shift:baseline;color:#000000;enable-background:accumulate;" fill="#000000" fill-opacity="1" stroke="none" marker="none" visibility="visible" display="inline" overflow="visible"></path><path d="m 47.608215,5.7498647 c -0.422463,0.02433 -0.83443,0.139459 -1.202479,0.367818 -0.736099,0.456709 -1.312966,1.323089 -1.612737,2.603014 l -0.02829,0.141468 0.113174,0.08488 c 0.875666,0.614685 1.377629,1.2096553 1.626885,1.9522613 0.249255,0.742606 0.261031,1.670756 0.04244,2.970832 -0.207375,1.233359 -1.46647,2.530022 -2.702042,3.480117 -1.235572,0.950095 -2.433253,1.55615 -2.433253,1.55615 l -0.113174,0.07073 0,0.141468 c 0,0 0.439869,26.139794 12.732136,59.190294 l 0.01415,0.0141 0.01415,0.0142 c 0.277011,0.4151 0.491109,0.67018 0.721487,0.80637 0.11519,0.0681 0.250422,0.11815 0.381965,0.099 0.131548,-0.0191 0.244994,-0.11318 0.31123,-0.21221 0.13247,-0.19805 0.153266,-0.44392 0.141468,-0.73563 -0.01183,-0.29171 -0.06448,-0.63597 -0.169762,-0.99028 l 0,-0.0141 c -1.238639,-3.38786 -2.757973,-8.9781 -3.183034,-10.56768 0.606016,0.81641 1.478733,2.01249 2.022995,2.71619 0.418774,0.54146 1.120094,0.85277 1.669324,0.84881 0.137309,-0.001 0.261779,-0.0201 0.381965,-0.0849 0.120191,-0.0647 0.234237,-0.19455 0.268789,-0.33952 0.0691,-0.28995 -0.06853,-0.58971 -0.367817,-0.97613 -1.14196,-1.49265 -2.351015,-4.26925 -3.267915,-6.66316 -0.504634,-1.31752 -0.576891,-1.60507 -0.848809,-2.4191 0.479548,0.73701 1.020992,1.54898 1.725911,2.29178 0.0061,0.006 0.0081,0.0219 0.01415,0.0283 0.163866,0.23657 0.380957,0.43927 0.594167,0.60831 0.219479,0.174 0.418729,0.308 0.650753,0.33952 0.116016,0.0158 0.258497,0.003 0.367818,-0.0849 0.109321,-0.0877 0.147364,-0.21719 0.155615,-0.35367 0.01652,-0.27296 -0.0761,-0.62093 -0.31123,-1.1176 -4.01489,-8.04847 -3.429155,-16.18059 -2.390813,-24.50229 1.038343,-8.3217 2.540209,-16.818664 0.282937,-25.506712 l -0.01415,0 0,-0.01415 C 52.351705,8.5850967 50.633873,6.6039477 48.895586,5.9620397 48.461013,5.8015577 48.030689,5.7255047 47.608225,5.7498367 z m 0.01415,0.438552 c 0.352171,-0.01969 0.732862,0.05596 1.117599,0.198055 1.535892,0.567168 3.216455,2.441684 4.031843,5.2343223 0.0017,0.0057 -0.0017,0.0085 0,0.01415 2.220553,8.565271 0.742493,16.991195 -0.297083,25.322801 -1.040261,8.3371 -1.643866,16.58373 2.433253,24.75694 0.22052,0.46582 0.28971,0.76501 0.282936,0.8771 -0.0034,0.056 -0.01415,0.0538 0,0.0424 0.01415,-0.0114 0.02445,0.005 -0.01415,0 -0.07714,-0.0105 -0.255995,-0.10991 -0.438551,-0.25464 -0.182556,-0.14473 -0.387572,-0.33726 -0.523432,-0.53758 l -0.01415,-0.0283 c -1.585496,-1.66293 -2.743866,-3.93237 -2.772777,-3.98941 -0.07729,-0.40896 -1.373129,-7.34764 -1.400535,-11.5438 -0.02761,-4.22761 0.976131,-11.00623 0.976131,-11.00623 l -0.438551,-0.0707 c 0,0 -1.018362,6.77504 -0.990278,11.07696 0.02886,4.41599 1.428829,11.77015 1.428829,11.77015 l 0.02829,0 c 0.0421,0.13544 0.623897,2.00576 1.513709,4.32893 0.922661,2.40893 2.127676,5.19347 3.338649,6.77632 0.263488,0.3402 0.29332,0.56475 0.282937,0.60832 -0.0051,0.0218 -0.01364,0.0128 -0.04244,0.0283 -0.0288,0.0155 -0.0831,0.0419 -0.169762,0.0424 -0.346648,0.002 -1.007655,-0.28081 -1.315654,-0.67905 -0.721278,-0.93256 -2.730336,-3.66402 -2.730336,-3.66402 l -0.05659,0.0283 c -0.245691,-0.83114 -2.049914,-6.96602 -2.673749,-10.96378 -0.353144,-2.26308 -0.39933,-6.94148 -0.367817,-11.02037 0.03152,-4.07891 0.141468,-7.56855 0.141468,-7.56855 l -0.438551,-0.0142 c 0,0 -0.138192,3.49682 -0.169762,7.5827 -0.03158,4.08588 0.02977,8.7436 0.396111,11.0911 0.678883,4.35053 2.75863,11.34575 2.75863,11.34575 l 0.09903,-0.0283 c 0.157437,0.59634 2.042648,7.70573 3.42353,11.48721 l -0.02829,0 c 0.09605,0.32325 0.159921,0.64805 0.169762,0.89125 0.0098,0.24321 -0.04216,0.41003 -0.07073,0.4527 -0.0051,-4.5e-4 -0.02377,0.0136 -0.07073,-0.0142 -0.116303,-0.0687 -0.335862,-0.29198 -0.594166,-0.67904 C 42.262654,45.348822 41.757737,19.563746 41.751433,19.217636 c 0.114878,-0.06084 1.170904,-0.586538 2.376665,-1.51371 1.270837,-0.977211 2.610954,-2.295802 2.857657,-3.763053 0.22416,-1.333174 0.257501,-2.345718 -0.02829,-3.197181 -0.268071,-0.7986623 -0.844424,-1.4280763 -1.669325,-2.0371423 0.287894,-1.112455 0.762695,-1.846262 1.343948,-2.206903 0.303568,-0.188345 0.638106,-0.291538 0.990277,-0.31123 z" style="text-indent:0;text-transform:none;direction:ltr;block-progression:tb;baseline-shift:baseline;color:#000000;enable-background:accumulate;" fill="#000000" fill-opacity="1" stroke="none" marker="none" visibility="visible" display="inline" overflow="visible"></path><path d="m 39.713663,0.8512177 c -1.7874,-0.0361 -3.403221,0.145367 -4.661524,0.506043 -0.628792,0.180123 -1.173433,0.401028 -1.624972,0.716994 -0.455193,0.318083 -0.906771,0.819022 -0.920675,1.501645 -0.01381,0.682324 0.417043,1.201795 0.859052,1.537788 0.439564,0.334799 0.975163,0.567814 1.594726,0.772761 1.242526,0.411758 2.849814,0.657963 4.637197,0.694049 1.787275,0.03639 3.413112,-0.144292 4.671443,-0.505296 0.627355,-0.179613 1.171968,-0.390701 1.624722,-0.707256 0.455302,-0.318049 0.896846,-0.819429 0.910744,-1.502053 0.01381,-0.682323 -0.407128,-1.201065 -0.849013,-1.537685 -0.438308,-0.333684 -0.973629,-0.576427 -1.594584,-0.782201 -1.242407,-0.411717 -2.859813,-0.658392 -4.647116,-0.694789 z m -0.0065,0.319961 c 1.762043,0.03576 3.357821,0.275914 4.557539,0.672783 0.60021,0.198559 1.09613,0.436407 1.495375,0.740586 0.395596,0.300875 0.735375,0.729727 0.724368,1.274781 -0.01115,0.54536 -0.368004,0.959964 -0.775477,1.244835 -0.409924,0.286734 -0.914881,0.495014 -1.523975,0.669111 -1.214824,0.348351 -2.819125,0.523314 -4.58115,0.487573 -1.761919,-0.036046 -3.347828,-0.275495 -4.547507,-0.672693 -0.601511,-0.199006 -1.097629,-0.427098 -1.495539,-0.730474 -0.395591,-0.301214 -0.74539,-0.730162 -0.734384,-1.275216 0.01115,-0.545355 0.378059,-0.959856 0.785499,-1.2444 0.41122,-0.287633 0.916448,-0.504968 1.524133,-0.679217 1.214844,-0.348006 2.809077,-0.523421 4.57112,-0.487669 z m -0.02597,1.279817 c -1.654737,-0.03367 -3.150819,0.147422 -4.190118,0.445342 -0.520835,0.149221 -0.920007,0.325847 -1.150216,0.486696 -0.240756,0.201892 -0.226434,0.305469 -0.0089,0.441432 0.223418,0.170197 0.615149,0.362662 1.129516,0.532724 1.026386,0.339987 2.513805,0.58144 4.168564,0.615115 1.654861,0.03333 3.160852,-0.14732 4.200151,-0.44524 0.398533,-0.137541 0.847661,-0.277487 1.170565,-0.50537 0.179234,-0.126054 0.168805,-0.297728 0.01822,-0.402958 -0.386008,-0.24706 -0.807278,-0.434551 -1.15912,-0.552501 C 42.83348,2.7262537 41.336,2.4846877 39.681263,2.4510247 z m -0.0065,0.319956 c 1.627688,0.0331 3.108622,0.26888 4.089024,0.593216 0.450576,0.149905 0.763934,0.319865 0.951181,0.449354 -0.191791,0.12203 -0.510575,0.289336 -0.968859,0.420675 -0.992793,0.284617 -2.481932,0.459647 -4.109744,0.426872 -1.627705,-0.033104 -3.098589,-0.268444 -4.078986,-0.593114 -0.452269,-0.150499 -0.764297,-0.329819 -0.950921,-0.459432 0.192295,-0.121849 0.512131,-0.279649 0.968593,-0.410597 0.992773,-0.284283 2.472026,-0.460043 4.099714,-0.426974 z" style="text-indent:0;text-transform:none;direction:ltr;block-progression:tb;baseline-shift:baseline;color:#000000;enable-background:accumulate;" fill="#000000" fill-opacity="1" fill-rule="nonzero" stroke="none" marker="none" visibility="visible" display="inline" overflow="visible"></path></svg>