<svg xmlns:dc="http://purl.org/dc/elements/1.1/" xmlns:cc="http://creativecommons.org/ns#" xmlns:rdf="http://www.w3.org/1999/02/22-rdf-syntax-ns#" xmlns:svg="http://www.w3.org/2000/svg" xmlns="http://www.w3.org/2000/svg" xmlns:xlink="http://www.w3.org/1999/xlink" xmlns:sodipodi="http://sodipodi.sourceforge.net/DTD/sodipodi-0.dtd" xmlns:inkscape="http://www.inkscape.org/namespaces/inkscape" viewBox="0 0 80 80" version="1.1" x="0px" y="0px"><g style="" display="none"><path style="" d="m 17.301549,39.547156 2.119953,-0.889012 0.205157,1.778025 1.84641,-1.025784" transform="scale(0.8,0.8)" fill="none" stroke="#000000" stroke-width="1px" stroke-linecap="butt" stroke-linejoin="miter" stroke-opacity="1"></path></g><g><g transform="matrix(0.12495011,0,0,0.12495011,9.3329805,-2.8482952)"><path d="m 190,45 c 22.3,-12.3 48.5,-15.9 73.7,-14.6 14.1,1.9 28.8,4.2 41.2,11.7 2.5,2 6.3,3.4 7.1,6.8 3.1,10.3 5,21.3 2.9,32 -1.5,9.3 -5.1,18.1 -8.1,27 -11.2,-1.5 -22.6,-2.5 -33.9,-3.4 -33.9,-0.3 -69.2,6.1 -97.6,25.6 -4.8,-12.2 -9.9,-24.5 -11.8,-37.5 -1.1,-6.7 0.4,-13.6 3.3,-19.6 2.7,-5.4 4.3,-11.5 7.8,-16.5 3.7,-5.5 9.9,-8.3 15.4,-11.5 z" style="" fill="#000000" stroke="#000000" stroke-width="0.09375"></path><path d="m 316.2,51.8 c 14.6,28.7 27.9,58.2 39.9,88.1 5.8,12.2 8.5,25.5 6.7,39 -6,45.1 -27.1,86.2 -47.7,126.2 -26.1,47.5 -50.9,95.8 -76.2,143.9 -14.2,25.7 -28.3,51.5 -42.8,77 -9.4,17 -18.4,34.1 -28.5,50.6 -14,22.9 -27.2,46.2 -42.1,68.6 -7.9,-18.3 -15.3,-37 -25.4,-54.3 -7.7,-12.7 -15.5,-25.3 -22.6,-38.3 -3,-6.3 2.7,-11.6 5.3,-16.7 18.9,-33 35.8,-67 53.7,-100.5 15.5,-28.2 29.4,-57.3 46.1,-84.9 11.6,-23.1 24.2,-45.8 36.2,-68.7 14.1,-23.9 24.8,-49.7 40,-73 10,-15.4 18.5,-31.7 27.2,-47.8 6.5,-12.7 13.1,-25.5 18.3,-38.8 9.8,-21.7 19.3,-46.4 11.9,-70.4 z" style="" fill="#000000" stroke="#000000" stroke-width="0.09375"></path><path d="m 153.2,95.1 c 2.9,-11.5 5.6,-24.1 14.5,-32.6 -3,6.7 -6.4,13.3 -7.5,20.6 -1.4,12.4 3,24.2 7.2,35.6 2.9,7.1 4.5,14.7 8.6,21.3 13.4,22.5 28.4,44 41.1,67 5.7,10.4 12.5,20.4 17.8,31.1 1.8,3 -0.6,6.2 -1.8,8.9 -15.8,30.5 -31.5,61 -48.2,90.9 -10.7,-22.7 -19.4,-46.3 -29.4,-69.3 -3.9,-8.9 -6.4,-18.4 -9.7,-27.5 -5,-14.2 -9.8,-28.8 -9.9,-44.1 -1.1,-12.6 1.7,-25.1 3.5,-37.5 3.2,-21.7 9,-43 13.8,-64.4 z" style="" fill="#000000" stroke="#000000" stroke-width="0.09375"></path><path d="m 276.1,385.1 c 6,-10.9 11,-22.4 17.8,-32.8 30.1,60.2 59.2,120.9 88.1,181.7 1.7,3.7 3.8,7.9 2,12 -3.8,8.9 -8.8,17.3 -13.1,26 -15.3,28.2 -27.6,58.1 -44.6,85.5 -19.6,-42.3 -37.1,-85.6 -56.9,-127.9 -9.4,-21.4 -20,-42.2 -29.3,-63.7 -2.5,-4.4 -1.9,-9.8 0.9,-13.9 11.8,-22.3 23.4,-44.6 35.1,-66.9 z" style="" fill="#000000" stroke="#000000" stroke-width="0.09375"></path></g></g></svg>