<?xml version="1.0" encoding="utf-8"?><!DOCTYPE svg PUBLIC "-//W3C//DTD SVG 1.1//EN" "http://www.w3.org/Graphics/SVG/1.1/DTD/svg11.dtd"><svg version="1.1" xmlns="http://www.w3.org/2000/svg" xmlns:xlink="http://www.w3.org/1999/xlink" x="0px" y="0px" viewBox="0 0 100 99.076" enable-background="new 0 0 100 99.076" xml:space="preserve"><path d="M44.211,16.411c4.53,0.002,8.208-3.676,8.207-8.208C52.42,3.664,48.741-0.01,44.211,0c-4.538-0.01-8.216,3.664-8.205,8.203
	C35.996,12.735,39.674,16.413,44.211,16.411z"></path><polygon points="92.373,99.076 100,57.615 94.158,57.615 87.45,93.283 77.313,93.283 70.507,57.615 64.62,57.615 72.438,99.076 "></polygon><polygon points="4.055,56.613 8.447,61.008 12.838,56.613 8.447,52.271 "></polygon><rect x="3.572" y="63.953" width="5.986" height="5.982"></rect><path d="M9.896,41.171h14.769c1.149,0.018,2.556-0.412,3.379-1.643l5.598-8.012l0.049,62.698c0.016,6.258,9.24,6.201,9.218-0.145
	l0.048-36.486h1.786v36.439c-0.02,6.377,9.311,6.537,9.317,0.193V31.226h1.642v22.495c-0.022,5.404,7.302,5.404,7.286,0.096V29.249
	c0.016-6.631-4.904-10.525-10.088-10.522H38.276c-3.465-0.002-5.979,1.369-8.109,4.393l-7.386,10.764H9.992
	C4.82,33.882,5.108,41.189,9.896,41.171z"></path><polygon points="8.738,48.361 4.344,44.019 0,48.361 4.344,52.754 "></polygon></svg>