<svg xmlns="http://www.w3.org/2000/svg" viewBox="0.0 0.0 24.0 24.0" height="200px" width="200px"><path fill="none" stroke="black" stroke-width=".3" stroke-opacity="1.0"  filling="0" d="M5.76732063293457 7.990824222564697 L5.76732063293457 7.990824222564697 C6.539947986602783 7.780428409576416 7.387887477874756 7.974046230316162 8.162328720092773 8.177663803100586 L8.162328720092773 8.177663803100586 C7.657827854156494 8.794678688049316 7.257559299468994 9.496177673339844 6.901320457458496 10.209144592285156 L6.901320457458496 10.209144592285156 C6.398612976074219 9.54813003540039 5.874392986297607 8.814348220825195 5.76732063293457 7.990824222564697 L5.76732063293457 7.990824222564697"></path>
<path fill="none" stroke="black" stroke-width=".3" stroke-opacity="1.0"  filling="0" d="M6.654000282287598 12.780407905578613 L6.654000282287598 12.780407905578613 C7.705491542816162 13.644207000732422 8.782695770263672 14.447851181030273 9.895803451538086 15.19823932647705 C11.0089111328125 15.948627471923828 12.157920837402344 16.64575958251953 13.353023529052734 17.29653549194336 L13.353023529052734 17.29653549194336 C11.610584259033203 17.480365753173828 10.17737865447998 17.193431854248047 9.05900764465332 16.43949317932129 C7.94063663482666 15.685552597045898 7.1371002197265625 14.464605331420898 6.654000282287598 12.780407905578613 L6.654000282287598 12.780407905578613"></path>
<path fill="none" stroke="black" stroke-width=".3" stroke-opacity="1.0"  filling="0" d="M17.428512573242188 12.915191650390625 L17.428512573242188 12.915191650390625 C17.996017456054688 13.489301681518555 19.55469512939453 15.18680191040039 20.327165603637695 16.637998580932617 C21.09963607788086 18.089195251464844 21.085901260375977 19.29408836364746 18.508583068847656 18.882986068725586 C17.87303924560547 18.781612396240234 17.249996185302734 18.600704193115234 16.6417179107666 18.390491485595703 C14.458160400390625 17.635883331298828 12.158729553222656 16.444482803344727 10.025544166564941 15.00641918182373 C7.892359733581543 13.568355560302734 5.925421714782715 11.883631706237793 4.4068522453308105 10.142379760742188 C3.9838318824768066 9.657327651977539 3.5824310779571533 9.147608757019043 3.250070571899414 8.596466064453125 C1.9023098945617676 6.361518859863281 3.014082908630371 5.896842002868652 4.649056434631348 6.068587303161621 C6.284030437469482 6.24033260345459 8.442205429077148 7.048499584197998 9.187248229980469 7.3592400550842285 L9.187248229980469 7.3592400550842285 C11.423563957214355 6.38521671295166 13.516012191772461 6.5550007820129395 15.033315658569336 7.577892780303955 C16.55061912536621 8.600784301757812 17.492778778076172 10.476783752441406 17.428512573242188 12.915191650390625 L17.428512573242188 12.915191650390625"></path>
<path fill="none" stroke="black" stroke-width=".3" stroke-opacity="1.0"  filling="0" d="M18.12554359436035 16.32259178161621 L18.12554359436035 16.32259178161621 C17.32204246520996 16.532066345214844 16.445354461669922 16.321392059326172 15.644135475158691 16.103351593017578 L15.644135475158691 16.103351593017578 C16.17139434814453 15.50558090209961 16.671499252319336 14.871298789978027 17.054183959960938 14.172096252441406 L17.054183959960938 14.172096252441406 C17.53337860107422 14.813777923583984 18.03082847595215 15.527348518371582 18.12554359436035 16.32259178161621 L18.12554359436035 16.32259178161621"></path></svg>