<svg xmlns="http://www.w3.org/2000/svg" viewBox="0.0 0.0 24.0 24.0" height="200px" width="200px"><path fill="none" stroke="black" stroke-width=".3" stroke-opacity="1.0"  filling="0" d="M11.05860710144043 1.327183723449707 L11.058608055114746 1.3270759582519531 C11.495502471923828 1.5080429315567017 12.034907341003418 1.535592794418335 12.369292259216309 1.8699768781661987 C13.018603324890137 2.5192861557006836 12.556693077087402 3.752798557281494 13.016463279724121 4.54766845703125 C13.115106582641602 4.718207836151123 13.400052070617676 4.457576274871826 13.591846466064453 4.412530422210693 L13.591846466064453 4.412530422210693 C13.42175006866455 4.620302677154541 12.479695320129395 6.155350685119629 12.479695320129395 4.366171360015869 L12.479695320129395 4.366171360015869 C12.006001472473145 4.588860511779785 11.582038879394531 5.035655498504639 11.058612823486328 5.034238338470459 C10.531761169433594 5.032811641693115 10.106074333190918 4.58371639251709 9.629804611206055 4.358455181121826 L9.629804611206055 4.358455181121826 C9.629804611206055 6.119050979614258 8.714225769042969 4.651134490966797 8.517651557922363 4.412530422210693 L8.517651557922363 4.412530422210693 C8.709446907043457 4.457576274871826 8.997220993041992 4.719813346862793 9.093036651611328 4.54766845703125 C9.314715385437012 4.149394512176514 9.165120124816895 3.6389007568359375 9.201162338256836 3.1845169067382812 L9.201162338256836 3.1845169067382812 C9.202447891235352 3.1845169067382812 9.203734397888184 3.1845169067382812 9.2050199508667 3.1845169067382812 L9.2050199508667 3.1845169067382812 C9.2050199508667 1.7327969074249268 10.03138256072998 1.7526711225509644 11.05860710144043 1.327183723449707 L11.05860710144043 1.327183723449707"></path>
<path fill="none" stroke="black" stroke-width=".3" stroke-opacity="1.0"  filling="0" d="M17.780824661254883 3.863140106201172 L17.780824661254883 3.863140106201172 C17.807519912719727 3.8797359466552734 17.834217071533203 3.896331787109375 17.860912322998047 3.9129276275634766 L18.490779876708984 6.235416889190674 L19.287309646606445 7.081748008728027 C19.296846389770508 7.120326042175293 19.28318214416504 7.168601989746094 19.25484275817871 7.196459770202637 L17.382564544677734 7.702958583831787 C17.34389877319336 7.693488597869873 17.307422637939453 7.658830642700195 17.29598617553711 7.620700359344482 L17.555721282958984 6.490845203399658 L16.925857543945312 4.166182518005371 C16.941730499267578 4.138045787811279 16.957603454589844 4.109909534454346 16.97347640991211 4.081772804260254 L17.776500701904297 3.8653221130371094 C17.777942657470703 3.8646020889282227 17.77938461303711 3.863882064819336 17.780826568603516 3.863162040710449 L17.780826568603516 3.863162040710449"></path>
<path fill="none" stroke="black" stroke-width=".3" stroke-opacity="1.0"  filling="0" d="M17.74403190612793 4.016842365264893 L18.363073348999023 6.289551258087158 C18.36812400817871 6.298932075500488 18.3731746673584 6.308313369750977 18.378225326538086 6.317694187164307 L19.105493545532227 7.0925726890563965 L17.45832061767578 7.538464069366455 L17.694250106811523 6.503834247589111 C17.694250106811523 6.49301290512085 17.694250106811523 6.482191562652588 17.694250106811523 6.471370220184326 L17.075206756591797 4.198660850524902 L17.744033813476562 4.016842365264893"></path>
<path fill="none" stroke="black" stroke-width=".3" stroke-opacity="1.0"  filling="0" d="M17.8500919342041 4.488699913024902 L17.8500919342041 4.488699913024902 C17.979961395263672 4.575279712677002 18.10982894897461 4.66185998916626 18.23969841003418 4.748439788818359 L18.386884689331055 5.220294952392578 C18.305355072021484 5.375417232513428 18.223827362060547 5.530539512634277 18.142297744750977 5.685661792755127 L17.189924240112305 5.980031967163086 L16.87174415588379 4.78306770324707 L17.77649688720703 4.503847599029541 C17.801029205322266 4.498798370361328 17.825559616088867 4.493749141693115 17.8500919342041 4.488699913024902 L17.8500919342041 4.488699913024902"></path>
<path fill="none" stroke="black" stroke-width=".3" stroke-opacity="1.0"  filling="0" d="M17.005943298339844 4.531991958618164 L17.270008087158203 6.224684238433838 C15.855021476745605 6.682711601257324 14.442107200622559 7.143805027008057 13.034111976623535 7.622941493988037 L12.815499305725098 7.646701335906982 L13.073073387145996 11.590396881103516 L14.31765365600586 16.66394805908203 L11.005990982055664 16.63797378540039 L10.971359252929688 10.484314918518066 L11.878278732299805 5.142375469207764 C13.736377716064453 5.317707538604736 15.124845504760742 5.107725143432617 16.90854263305664 4.566622257232666 L17.005943298339844 4.531991958618164"></path>
<path fill="none" stroke="black" stroke-width=".3" stroke-opacity="1.0"  filling="0" d="M16.869579315185547 4.765755653381348 L17.137975692749023 6.079594612121582 C15.749651908874512 6.528868198394775 14.36353874206543 6.98163366317749 12.982166290283203 7.45188570022583 L12.625025749206543 7.4865264892578125 L12.895584106445312 11.618534088134766 L14.088210105895996 16.484302520751953 L11.1834716796875 16.460491180419922 L11.148839950561523 10.510324478149414 L11.9453706741333 5.328548908233643 C12.550704956054688 5.384825706481934 13.156039237976074 5.441102981567383 13.761373519897461 5.497379779815674 L13.77652359008789 5.497379779815674 C14.814573287963867 5.285441875457764 15.854848861694336 5.07041597366333 16.869571685791016 4.765781879425049 L16.869571685791016 4.765781879425049"></path>
<path fill="none" stroke="black" stroke-width=".3" stroke-opacity="1.0"  filling="0" d="M10.469198226928711 5.133724689483643 L11.103391647338867 10.441039085388184 L10.317684173583984 5.328526973724365 C9.484673500061035 5.412208557128906 8.35948657989502 5.043507099151611 7.832855224609375 5.694328784942627 C7.254093170166016 6.409574031829834 7.650120258331299 7.525465965270996 7.573431491851807 8.442340850830078 C7.480370044708252 9.554965019226074 7.345449447631836 10.611499786376953 7.211648464202881 11.709429740905762 L8.551464080810547 11.81115436553955 L9.183494567871094 7.441063404083252 L9.6402006149292 7.4865403175354 L9.36748218536377 11.627217292785645 L8.174851417541504 16.48215675354004 L11.077425956726074 16.46050453186035 L11.08824634552002 14.711599349975586 L11.25707721710205 16.64015769958496 L7.945415019989014 16.661813735961914 L9.189992904663086 11.59259033203125 L9.4475679397583 7.646730899810791 L8.705148696899414 12.00383472442627 L7.02334451675415 11.780860900878906 C7.222260475158691 10.141767501831055 6.678336143493652 5.9188947677612305 8.406450271606445 5.339354038238525 L8.408610343933105 5.339354038238525 C9.06733512878418 5.273697376251221 9.726058959960938 5.208040237426758 10.384783744812012 5.142383575439453 L10.469199180603027 5.133716106414795"></path>
<path fill="none" stroke="black" stroke-width=".3" stroke-opacity="1.0"  filling="0" d="M17.57265853881836 6.768404960632324 L18.88471221923828 6.779582977294922 L19.219707489013672 7.114574909210205 L17.371662139892578 7.628233432769775 L17.57265853881836 6.768404960632324"></path>
<path fill="none" stroke="black" stroke-width=".3" stroke-opacity="1.0"  filling="0" d="M7.285243034362793 11.772195816040039 L8.512506484985352 11.904226303100586 L8.486532211303711 12.142317771911621 C8.35016918182373 12.251262664794922 8.213807106018066 12.360207557678223 8.077444076538086 12.469152450561523 L7.586105823516846 12.412882804870605 C7.4771599769592285 12.276518821716309 7.3682146072387695 12.140154838562012 7.259268760681152 12.003790855407715 L7.285243034362793 11.772195816040039"></path>
<path fill="none" stroke="black" stroke-width=".3" stroke-opacity="1.0"  filling="0" d="M9.328516006469727 16.560062408447266 L10.934563636779785 16.564355850219727 L10.934563636779785 22.092456817626953 C10.811187744140625 22.215831756591797 10.687811851501465 22.33920669555664 10.564435958862305 22.462581634521484 L9.69864273071289 22.462581634521484 C9.57526683807373 22.33920669555664 9.451891899108887 22.215831756591797 9.328516006469727 22.092456817626953 L9.328516006469727 16.560035705566406"></path>
<path fill="none" stroke="black" stroke-width=".3" stroke-opacity="1.0"  filling="0" d="M11.549277305603027 16.566551208496094 L13.157489776611328 16.568710327148438 L13.157489776611328 22.12493896484375 C13.033391952514648 22.248313903808594 12.909295082092285 22.371688842773438 12.785197257995605 22.49506378173828 L11.921568870544434 22.49506378173828 C11.79747200012207 22.371688842773438 11.67337417602539 22.248313903808594 11.549277305603027 22.12493896484375 L11.549277305603027 16.566543579101562"></path></svg>