<svg xmlns="http://www.w3.org/2000/svg" viewBox="0.0 0.0 24.0 24.0" height="200px" width="200px"><path fill="none" stroke="black" stroke-width=".3" stroke-opacity="1.0"  filling="0" d="M11.896967887878418 1.2000007629394531 L12.875231742858887 1.2000007629394531 L12.875231742858887 5.339208126068115 L11.896967887878418 4.886688232421875 L11.896967887878418 1.2000007629394531"></path>
<path fill="none" stroke="black" stroke-width=".3" stroke-opacity="1.0"  filling="0" d="M13.030967712402344 3.886608123779297 L13.030967712402344 3.886608123779297 C13.655878067016602 3.4083809852600098 17.364418029785156 3.382559299468994 16.617431640625 4.796400547027588 C16.30130386352539 5.394744396209717 15.276236534118652 4.610520839691162 14.61143970489502 4.484037399291992 C13.532505989074707 4.27876091003418 13.673893928527832 4.714103698730469 13.303559303283691 5.547216415405273 L13.030535697937012 5.421072483062744 L13.030967712402344 3.886608123779297"></path>
<path fill="none" stroke="black" stroke-width=".3" stroke-opacity="1.0"  filling="0" d="M14.316600799560547 6.17836856842041 L14.316600799560547 6.17836856842041 C14.496020317077637 6.666132926940918 14.699776649475098 7.241752624511719 13.905983924865723 7.065912246704102 L10.66144847869873 5.5660080909729 C10.54904556274414 5.259955883026123 10.766022682189941 4.790683746337891 11.072063446044922 4.678248405456543 L14.316600799560547 6.17836856842041"></path>
<path fill="none" stroke="black" stroke-width=".3" stroke-opacity="1.0"  filling="0" d="M14.111400604248047 8.346359252929688 L14.111400604248047 8.346359252929688 C14.043000221252441 8.331239700317383 13.974600791931152 8.316119194030762 13.906200408935547 8.300999641418457 L10.661664009094238 6.801096439361572 C10.549239158630371 6.4949822425842285 10.766210556030273 6.025668144226074 11.072279930114746 5.913120269775391 L14.316816329956055 7.412807941436768 C14.426630973815918 7.7119140625 14.379783630371094 8.174620628356934 14.111400604248047 8.346359252929688 L14.111400604248047 8.346359252929688"></path>
<path fill="none" stroke="black" stroke-width=".3" stroke-opacity="1.0"  filling="0" d="M14.111400604248047 9.581448554992676 L14.111400604248047 9.581448554992676 C14.043000221252441 9.566328048706055 13.974600791931152 9.55120849609375 13.906200408935547 9.536087989807129 L10.661664009094238 8.036184310913086 C10.549272537231445 7.730058193206787 10.766178131103516 7.260666847229004 11.072279930114746 7.1482086181640625 L14.316816329956055 8.648111343383789 C14.42663860321045 8.94714069366455 14.379724502563477 9.409747123718262 14.111400604248047 9.581448554992676 L14.111400604248047 9.581448554992676"></path>
<path fill="none" stroke="black" stroke-width=".3" stroke-opacity="1.0"  filling="0" d="M14.316600799560547 9.883200645446777 L14.316600799560547 9.883200645446777 C14.496062278747559 10.37096118927002 14.700356483459473 10.947098731994629 13.906200408935547 10.771175384521484 L10.66144847869873 9.271056175231934 C10.549013137817383 8.965015411376953 10.766056060791016 8.495821952819824 11.072063446044922 8.383296012878418 L14.316600799560547 9.883200645446777"></path>
<path fill="none" stroke="black" stroke-width=".3" stroke-opacity="1.0"  filling="0" d="M14.435400009155273 12.485568046569824 L14.435400009155273 12.485568046569824 C15.054443359375 13.629480361938477 15.774473190307617 14.886871337890625 16.21919059753418 16.19607925415039 C16.663908004760742 17.50528907775879 16.83331298828125 18.866315841674805 16.351104736328125 20.21750259399414 C15.832791328430176 21.669857025146484 14.658974647521973 22.477039337158203 13.341438293457031 22.6971435546875 C12.023900985717773 22.917247772216797 10.562644958496094 22.55027198791504 9.469451904296875 21.654308319091797 C8.034937858581543 20.47860336303711 7.369808197021484 18.72130584716797 7.325976371765137 16.909896850585938 C7.288472652435303 15.360013961791992 7.929445266723633 14.16201114654541 8.740554809570312 13.044495582580566 C9.551665306091309 11.926980018615723 10.532913208007812 10.889951705932617 11.175960540771484 9.662015914916992 L12.079704284667969 10.080192565917969 C11.439353942871094 11.237992286682129 10.515467643737793 12.223834991455078 9.741706848144531 13.28228759765625 C8.967945098876953 14.340740203857422 8.344308853149414 15.47180461883545 8.30445671081543 16.920047760009766 C8.250473022460938 18.881845474243164 9.441883087158203 20.932695388793945 11.334720611572266 21.603574752807617 C12.856396675109863 22.14290428161621 14.928569793701172 21.61176109313965 15.427271842956543 19.897174835205078 C15.926153182983398 18.18197250366211 15.444721221923828 16.47124481201172 14.670585632324219 14.822015762329102 C13.896450996398926 13.172785758972168 12.829612731933594 11.585051536560059 12.15768051147461 10.11583137512207 L13.501848220825195 10.737479209899902 C13.813032150268555 11.320175170898438 14.124216079711914 11.902872085571289 14.435400009155273 12.485568046569824 L14.435400009155273 12.485568046569824"></path></svg>