<svg xmlns="http://www.w3.org/2000/svg" viewBox="0.0 0.0 24.0 24.0" height="200px" width="200px"><path fill="none" stroke="black" stroke-width=".3" stroke-opacity="1.0"  filling="0" d="M16.475088119506836 1.4509925842285156 L16.475088119506836 1.4509925842285156 C16.48703956604004 1.4928245544433594 16.498992919921875 1.5346565246582031 16.510944366455078 1.5764884948730469 L12.536543846130371 7.677840232849121 C12.473832130432129 7.664160251617432 12.41111946105957 7.650480270385742 12.348407745361328 7.636800289154053 L16.349807739257812 1.4870643615722656 C16.39156723022461 1.4750404357910156 16.43332862854004 1.4630165100097656 16.475088119506836 1.4509925842285156 L16.475088119506836 1.4509925842285156"></path>
<path fill="none" stroke="black" stroke-width=".3" stroke-opacity="1.0"  filling="0" d="M7.018392086029053 1.4967851638793945 L10.941816329956055 7.659912109375 C10.878816604614258 7.675896167755127 10.815815925598145 7.691879749298096 10.752816200256348 7.707863807678223 L6.86352014541626 1.5974397659301758 C6.876358509063721 1.5372241735458374 6.958155632019043 1.4840445518493652 7.018392086029053 1.4967851638793945 L7.018392086029053 1.4967851638793945"></path>
<path fill="none" stroke="black" stroke-width=".3" stroke-opacity="1.0"  filling="0" d="M12.536543846130371 7.840703964233398 L12.536543846130371 7.840703964233398 C13.371530532836914 8.111579895019531 14.173540115356445 8.574021339416504 14.796768188476562 9.192215919494629 L8.604911804199219 9.192215919494629 C9.693220138549805 8.10364055633545 10.977893829345703 7.498910903930664 12.536543846130371 7.840703964233398 L12.536543846130371 7.840703964233398"></path>
<path fill="none" stroke="black" stroke-width=".3" stroke-opacity="1.0"  filling="0" d="M20.70523452758789 9.407999992370605 L20.70523452758789 9.407999992370605 C20.97148895263672 9.674112319946289 21.23774528503418 9.940223693847656 21.503999710083008 10.20633602142334 L21.503999710083008 15.78680419921875 L21.503999710083008 21.367271423339844 C21.23774528503418 21.628847122192383 20.97148895263672 21.890422821044922 20.70523452758789 22.15199851989746 L14.901745796203613 22.152000427246094 L9.098257064819336 22.152000427246094 L3.294767379760742 22.15199851989746 C3.0285117626190186 21.890422821044922 2.762255907058716 21.628847122192383 2.496000289916992 21.367271423339844 L2.496000289916992 15.78680419921875 L2.496000289916992 10.20633602142334 C2.762255907058716 9.940223693847656 3.0285117626190186 9.674112319946289 3.294767379760742 9.407999992370605 L9.098257064819336 9.408000946044922 L14.901745796203613 9.408000946044922 L20.70523452758789 9.407999992370605"></path>
<path fill="none" stroke="black" stroke-width=".3" stroke-opacity="1.0"  filling="0" d="M18.91027069091797 12.304773330688477 L18.91027069091797 12.304773330688477 C19.626310348510742 10.572546005249023 19.626487731933594 14.036972999572754 18.91027069091797 12.304819107055664 L18.91027069091797 12.304819107055664"></path>
<path fill="none" stroke="black" stroke-width=".3" stroke-opacity="1.0"  filling="0" d="M18.91027069091797 13.389524459838867 L18.91027069091797 13.389524459838867 C19.626310348510742 11.657296180725098 19.626487731933594 15.121724128723145 18.91027069091797 13.389570236206055 L18.91027069091797 13.389570236206055"></path>
<path fill="none" stroke="black" stroke-width=".3" stroke-opacity="1.0"  filling="0" d="M19.694782257080078 14.496960639953613 L19.694782257080078 14.496960639953613 C18.770944595336914 15.419778823852539 18.771230697631836 13.573407173156738 19.694782257080078 14.496960639953613 L19.694782257080078 14.496960639953613"></path>
<path fill="none" stroke="black" stroke-width=".3" stroke-opacity="1.0"  filling="0" d="M18.606361389160156 16.634281158447266 L18.606361389160156 16.634281158447266 C18.866273880004883 16.004079818725586 19.99825096130371 15.524752616882324 19.998260498046875 16.6342716217041 C19.99827003479004 17.743793487548828 18.866287231445312 17.264497756958008 18.606361389160156 16.63429069519043 L18.606361389160156 16.63429069519043"></path>
<path fill="none" stroke="black" stroke-width=".3" stroke-opacity="1.0"  filling="0" d="M18.606361389160156 18.956928253173828 L18.606361389160156 18.956928253173828 C18.866273880004883 18.32672691345215 19.99825096130371 17.84739875793457 19.998260498046875 18.956918716430664 C19.99827003479004 20.066442489624023 18.866287231445312 19.58714485168457 18.606361389160156 18.956937789916992 L18.606361389160156 18.956937789916992"></path>
<path fill="none" stroke="black" stroke-width=".3" stroke-opacity="1.0"  filling="0" d="M20.20800018310547 19.864126205444336 L20.20800018310547 19.864126205444336 C20.130311965942383 19.978750228881836 20.052621841430664 20.09337615966797 19.974933624267578 20.20800018310547 L18.629472732543945 20.20800018310547 C18.507648468017578 20.09337615966797 18.38582420349121 19.978750228881836 18.263999938964844 19.864126205444336 L18.263999938964844 15.788639068603516 L18.263999938964844 11.713151931762695 C18.38582420349121 11.592767715454102 18.507648468017578 11.472383499145508 18.629472732543945 11.351999282836914 L19.974933624267578 11.351999282836914 C20.052621841430664 11.472383499145508 20.130311965942383 11.592767715454102 20.20800018310547 11.713151931762695 L20.20800018310547 15.788639068603516 L20.20800018310547 19.864126205444336"></path>
<path fill="none" stroke="black" stroke-width=".3" stroke-opacity="1.0"  filling="0" d="M16.361040115356445 20.148815155029297 L16.361040115356445 20.148815155029297 C14.551101684570312 20.505237579345703 12.684929847717285 20.422853469848633 10.847208023071289 20.425512313842773 C9.712089538574219 20.427154541015625 7.799281120300293 20.416702270507812 6.630699157714844 20.37359046936035 C5.933410167694092 20.34786605834961 5.0397796630859375 20.645315170288086 4.54951286315918 20.148815155029297 C3.857132911682129 19.4476318359375 4.066446304321289 16.570938110351562 4.065024375915527 15.811967849731445 C4.063564777374268 15.032959938049316 3.8341081142425537 12.126363754272461 4.54951286315918 11.40556812286377 C5.064441680908203 10.886758804321289 5.992605209350586 11.15116024017334 6.722418308258057 11.110079765319824 C7.877195358276367 11.04507827758789 9.761503219604492 11.00679874420166 10.8934326171875 11.013526916503906 C11.72640323638916 11.018477439880371 15.497720718383789 10.655405044555664 16.361040115356445 11.40556812286377 C16.935951232910156 11.90512466430664 16.68532371520996 12.899737358093262 16.734031677246094 13.659808158874512 C16.870182037353516 15.784395217895508 16.950389862060547 18.085222244262695 16.361040115356445 20.148815155029297 L16.361040115356445 20.148815155029297"></path></svg>