<svg xmlns="http://www.w3.org/2000/svg" viewBox="0.0 0.0 24.0 24.0" height="200px" width="200px"><path fill="none" stroke="black" stroke-width=".3" stroke-opacity="1.0"  filling="0" d="M14.126945495605469 -1.7573356628417969 L14.776616096496582 -1.7573356628417969 L14.776616096496582 5.262664318084717 L14.776616096496582 12.28266429901123 L14.126945495605469 12.28266429901123 L14.126945495605469 5.262664318084717 L14.126945495605469 -1.7573356628417969"></path>
<path fill="none" stroke="black" stroke-width=".3" stroke-opacity="1.0"  filling="0" d="M7.558518409729004 6.939138412475586 L8.208189964294434 6.939138412475586 L8.208189964294434 13.959137916564941 L8.208189964294434 20.979137420654297 L7.558518409729004 20.979137420654297 L7.558518409729004 13.959137916564941 L7.558518409729004 6.939138412475586"></path>
<path fill="none" stroke="black" stroke-width=".3" stroke-opacity="1.0"  filling="0" d="M4.439999580383301 7.637812614440918 L9.873749732971191 7.637812614440918 L9.873749732971191 11.995780944824219 L9.873749732971191 16.353750228881836 L4.439999580383301 16.353750228881836 L4.439999580383301 11.995780944824219 L4.439999580383301 7.637812614440918"></path>
<path fill="none" stroke="black" stroke-width=".3" stroke-opacity="1.0"  filling="0" d="M4.439999580383301 7.637812614440918 L9.873749732971191 7.637812614440918 L9.873749732971191 11.995780944824219 L9.873749732971191 16.353750228881836 L4.439999580383301 16.353750228881836 L4.439999580383301 11.995780944824219 L4.439999580383301 7.637812614440918"></path>
<path fill="none" stroke="black" stroke-width=".3" stroke-opacity="1.0"  filling="0" d="M6.600000381469727 7.679999828338623 L7.680000305175781 7.679999828338623 L7.680000305175781 8.760000228881836 L6.600000381469727 8.760000228881836 L6.600000381469727 7.679999828338623"></path>
<path fill="none" stroke="black" stroke-width=".3" stroke-opacity="1.0"  filling="0" d="M6.600000381469727 7.679999828338623 L7.680000305175781 7.679999828338623 L7.680000305175781 8.760000228881836 L6.600000381469727 8.760000228881836 L6.600000381469727 7.679999828338623"></path>
<path fill="none" stroke="black" stroke-width=".3" stroke-opacity="1.0"  filling="0" d="M8.760001182556152 7.679999828338623 L9.840001106262207 7.679999828338623 L9.840001106262207 8.760000228881836 L8.760001182556152 8.760000228881836 L8.760001182556152 7.679999828338623"></path>
<path fill="none" stroke="black" stroke-width=".3" stroke-opacity="1.0"  filling="0" d="M8.760001182556152 7.679999828338623 L9.840001106262207 7.679999828338623 L9.840001106262207 8.760000228881836 L8.760001182556152 8.760000228881836 L8.760001182556152 7.679999828338623"></path>
<path fill="none" stroke="black" stroke-width=".3" stroke-opacity="1.0"  filling="0" d="M4.499062538146973 7.696875095367432 L9.806249618530273 7.696875095367432 L9.806249618530273 11.991562843322754 L9.806249618530273 16.286251068115234 L4.499062538146973 16.286251068115234 L4.499062538146973 11.991562843322754 L4.499062538146973 7.696875095367432"></path>
<path fill="none" stroke="black" stroke-width=".3" stroke-opacity="1.0"  filling="0" d="M4.499062538146973 7.696875095367432 L9.806249618530273 7.696875095367432 L9.806249618530273 11.991562843322754 L9.806249618530273 16.286251068115234 L4.499062538146973 16.286251068115234 L4.499062538146973 11.991562843322754 L4.499062538146973 7.696875095367432"></path>
<path fill="none" stroke="black" stroke-width=".3" stroke-opacity="1.0"  filling="0" d="M5.519999980926514 8.760002136230469 L6.600000381469727 8.760002136230469 L6.600000381469727 9.84000301361084 L5.519999980926514 9.84000301361084 L5.519999980926514 8.760002136230469"></path>
<path fill="none" stroke="black" stroke-width=".3" stroke-opacity="1.0"  filling="0" d="M5.519999980926514 8.760002136230469 L6.600000381469727 8.760002136230469 L6.600000381469727 9.84000301361084 L5.519999980926514 9.84000301361084 L5.519999980926514 8.760002136230469"></path>
<path fill="none" stroke="black" stroke-width=".3" stroke-opacity="1.0"  filling="0" d="M7.680000305175781 8.760002136230469 L8.760000228881836 8.760002136230469 L8.760000228881836 9.84000301361084 L7.680000305175781 9.84000301361084 L7.680000305175781 8.760002136230469"></path>
<path fill="none" stroke="black" stroke-width=".3" stroke-opacity="1.0"  filling="0" d="M7.680000305175781 8.760002136230469 L8.760000228881836 8.760002136230469 L8.760000228881836 9.84000301361084 L7.680000305175781 9.84000301361084 L7.680000305175781 8.760002136230469"></path>
<path fill="none" stroke="black" stroke-width=".3" stroke-opacity="1.0"  filling="0" d="M5.249999523162842 9.300000190734863 L6.600000381469727 9.300000190734863 L6.600000381469727 10.649999618530273 L5.249999523162842 10.649999618530273 L5.249999523162842 9.300000190734863"></path>
<path fill="none" stroke="black" stroke-width=".3" stroke-opacity="1.0"  filling="0" d="M5.249999523162842 9.300000190734863 L6.600000381469727 9.300000190734863 L6.600000381469727 10.649999618530273 L5.249999523162842 10.649999618530273 L5.249999523162842 9.300000190734863"></path>
<path fill="none" stroke="black" stroke-width=".3" stroke-opacity="1.0"  filling="0" d="M4.439999580383301 9.84000015258789 L5.519999980926514 9.84000015258789 L5.519999980926514 10.920000076293945 L4.439999580383301 10.920000076293945 L4.439999580383301 9.84000015258789"></path>
<path fill="none" stroke="black" stroke-width=".3" stroke-opacity="1.0"  filling="0" d="M4.439999580383301 9.84000015258789 L5.519999980926514 9.84000015258789 L5.519999980926514 10.920000076293945 L4.439999580383301 10.920000076293945 L4.439999580383301 9.84000015258789"></path>
<path fill="none" stroke="black" stroke-width=".3" stroke-opacity="1.0"  filling="0" d="M6.600000381469727 9.84000015258789 L7.680000305175781 9.84000015258789 L7.680000305175781 10.920000076293945 L6.600000381469727 10.920000076293945 L6.600000381469727 9.84000015258789"></path>
<path fill="none" stroke="black" stroke-width=".3" stroke-opacity="1.0"  filling="0" d="M6.600000381469727 9.84000015258789 L7.680000305175781 9.84000015258789 L7.680000305175781 10.920000076293945 L6.600000381469727 10.920000076293945 L6.600000381469727 9.84000015258789"></path>
<path fill="none" stroke="black" stroke-width=".3" stroke-opacity="1.0"  filling="0" d="M8.760001182556152 9.84000015258789 L9.840001106262207 9.84000015258789 L9.840001106262207 10.920000076293945 L8.760001182556152 10.920000076293945 L8.760001182556152 9.84000015258789"></path>
<path fill="none" stroke="black" stroke-width=".3" stroke-opacity="1.0"  filling="0" d="M8.760001182556152 9.84000015258789 L9.840001106262207 9.84000015258789 L9.840001106262207 10.920000076293945 L8.760001182556152 10.920000076293945 L8.760001182556152 9.84000015258789"></path>
<path fill="none" stroke="black" stroke-width=".3" stroke-opacity="1.0"  filling="0" d="M5.519999980926514 10.920001983642578 L6.600000381469727 10.920001983642578 L6.600000381469727 12.000001907348633 L5.519999980926514 12.000001907348633 L5.519999980926514 10.920001983642578"></path>
<path fill="none" stroke="black" stroke-width=".3" stroke-opacity="1.0"  filling="0" d="M5.519999980926514 10.920001983642578 L6.600000381469727 10.920001983642578 L6.600000381469727 12.000001907348633 L5.519999980926514 12.000001907348633 L5.519999980926514 10.920001983642578"></path>
<path fill="none" stroke="black" stroke-width=".3" stroke-opacity="1.0"  filling="0" d="M7.680000305175781 10.920001983642578 L8.760000228881836 10.920001983642578 L8.760000228881836 12.000001907348633 L7.680000305175781 12.000001907348633 L7.680000305175781 10.920001983642578"></path>
<path fill="none" stroke="black" stroke-width=".3" stroke-opacity="1.0"  filling="0" d="M7.680000305175781 10.920001983642578 L8.760000228881836 10.920001983642578 L8.760000228881836 12.000001907348633 L7.680000305175781 12.000001907348633 L7.680000305175781 10.920001983642578"></path>
<path fill="none" stroke="black" stroke-width=".3" stroke-opacity="1.0"  filling="0" d="M4.439999580383301 11.999998092651367 L5.519999980926514 11.999998092651367 L5.519999980926514 13.079998016357422 L4.439999580383301 13.079998016357422 L4.439999580383301 11.999998092651367"></path>
<path fill="none" stroke="black" stroke-width=".3" stroke-opacity="1.0"  filling="0" d="M4.439999580383301 11.999998092651367 L5.519999980926514 11.999998092651367 L5.519999980926514 13.079998016357422 L4.439999580383301 13.079998016357422 L4.439999580383301 11.999998092651367"></path>
<path fill="none" stroke="black" stroke-width=".3" stroke-opacity="1.0"  filling="0" d="M6.600000381469727 11.999998092651367 L7.680000305175781 11.999998092651367 L7.680000305175781 13.079998016357422 L6.600000381469727 13.079998016357422 L6.600000381469727 11.999998092651367"></path>
<path fill="none" stroke="black" stroke-width=".3" stroke-opacity="1.0"  filling="0" d="M6.600000381469727 11.999998092651367 L7.680000305175781 11.999998092651367 L7.680000305175781 13.079998016357422 L6.600000381469727 13.079998016357422 L6.600000381469727 11.999998092651367"></path>
<path fill="none" stroke="black" stroke-width=".3" stroke-opacity="1.0"  filling="0" d="M8.760001182556152 11.999998092651367 L9.840001106262207 11.999998092651367 L9.840001106262207 13.079998016357422 L8.760001182556152 13.079998016357422 L8.760001182556152 11.999998092651367"></path>
<path fill="none" stroke="black" stroke-width=".3" stroke-opacity="1.0"  filling="0" d="M8.760001182556152 11.999998092651367 L9.840001106262207 11.999998092651367 L9.840001106262207 13.079998016357422 L8.760001182556152 13.079998016357422 L8.760001182556152 11.999998092651367"></path>
<path fill="none" stroke="black" stroke-width=".3" stroke-opacity="1.0"  filling="0" d="M5.519999980926514 13.079999923706055 L6.600000381469727 13.079999923706055 L6.600000381469727 14.15999984741211 L5.519999980926514 14.15999984741211 L5.519999980926514 13.079999923706055"></path>
<path fill="none" stroke="black" stroke-width=".3" stroke-opacity="1.0"  filling="0" d="M5.519999980926514 13.079999923706055 L6.600000381469727 13.079999923706055 L6.600000381469727 14.15999984741211 L5.519999980926514 14.15999984741211 L5.519999980926514 13.079999923706055"></path>
<path fill="none" stroke="black" stroke-width=".3" stroke-opacity="1.0"  filling="0" d="M7.680000305175781 13.079999923706055 L8.760000228881836 13.079999923706055 L8.760000228881836 14.15999984741211 L7.680000305175781 14.15999984741211 L7.680000305175781 13.079999923706055"></path>
<path fill="none" stroke="black" stroke-width=".3" stroke-opacity="1.0"  filling="0" d="M7.680000305175781 13.079999923706055 L8.760000228881836 13.079999923706055 L8.760000228881836 14.15999984741211 L7.680000305175781 14.15999984741211 L7.680000305175781 13.079999923706055"></path>
<path fill="none" stroke="black" stroke-width=".3" stroke-opacity="1.0"  filling="0" d="M4.439999580383301 14.159996032714844 L5.519999980926514 14.159996032714844 L5.519999980926514 15.239995956420898 L4.439999580383301 15.239995956420898 L4.439999580383301 14.159996032714844"></path>
<path fill="none" stroke="black" stroke-width=".3" stroke-opacity="1.0"  filling="0" d="M4.439999580383301 14.159996032714844 L5.519999980926514 14.159996032714844 L5.519999980926514 15.239995956420898 L4.439999580383301 15.239995956420898 L4.439999580383301 14.159996032714844"></path>
<path fill="none" stroke="black" stroke-width=".3" stroke-opacity="1.0"  filling="0" d="M6.600000381469727 14.159996032714844 L7.680000305175781 14.159996032714844 L7.680000305175781 15.239995956420898 L6.600000381469727 15.239995956420898 L6.600000381469727 14.159996032714844"></path>
<path fill="none" stroke="black" stroke-width=".3" stroke-opacity="1.0"  filling="0" d="M6.600000381469727 14.159996032714844 L7.680000305175781 14.159996032714844 L7.680000305175781 15.239995956420898 L6.600000381469727 15.239995956420898 L6.600000381469727 14.159996032714844"></path>
<path fill="none" stroke="black" stroke-width=".3" stroke-opacity="1.0"  filling="0" d="M8.760001182556152 14.159996032714844 L9.840001106262207 14.159996032714844 L9.840001106262207 15.239995956420898 L8.760001182556152 15.239995956420898 L8.760001182556152 14.159996032714844"></path>
<path fill="none" stroke="black" stroke-width=".3" stroke-opacity="1.0"  filling="0" d="M8.760001182556152 14.159996032714844 L9.840001106262207 14.159996032714844 L9.840001106262207 15.239995956420898 L8.760001182556152 15.239995956420898 L8.760001182556152 14.159996032714844"></path>
<path fill="none" stroke="black" stroke-width=".3" stroke-opacity="1.0"  filling="0" d="M5.519999980926514 15.239997863769531 L6.600000381469727 15.239997863769531 L6.600000381469727 16.319997787475586 L5.519999980926514 16.319997787475586 L5.519999980926514 15.239997863769531"></path>
<path fill="none" stroke="black" stroke-width=".3" stroke-opacity="1.0"  filling="0" d="M5.519999980926514 15.239997863769531 L6.600000381469727 15.239997863769531 L6.600000381469727 16.319997787475586 L5.519999980926514 16.319997787475586 L5.519999980926514 15.239997863769531"></path>
<path fill="none" stroke="black" stroke-width=".3" stroke-opacity="1.0"  filling="0" d="M7.680000305175781 15.239997863769531 L8.760000228881836 15.239997863769531 L8.760000228881836 16.319997787475586 L7.680000305175781 16.319997787475586 L7.680000305175781 15.239997863769531"></path>
<path fill="none" stroke="black" stroke-width=".3" stroke-opacity="1.0"  filling="0" d="M7.680000305175781 15.239997863769531 L8.760000228881836 15.239997863769531 L8.760000228881836 16.319997787475586 L7.680000305175781 16.319997787475586 L7.680000305175781 15.239997863769531"></path></svg>