<svg xmlns="http://www.w3.org/2000/svg" viewBox="0.0 0.0 24.0 24.0" height="200px" width="200px"><path fill="none" stroke="black" stroke-width=".3" stroke-opacity="1.0"  filling="0" d="M14.080127716064453 1.5195837020874023 L14.080127716064453 1.5195837020874023 C15.971193313598633 1.9159784317016602 17.263572692871094 2.8642725944519043 17.84708595275879 4.137803554534912 C18.430601119995117 5.411334991455078 18.305252075195312 7.01010274887085 17.360862731933594 8.70744514465332 L17.360862731933594 8.70744514465332 C17.722841262817383 11.56514835357666 16.590974807739258 13.264564514160156 13.923528671264648 14.219705581665039 L13.923528671264648 14.219705581665039 C13.36239242553711 14.997570037841797 12.78820514678955 15.776033401489258 12.106989860534668 16.451231002807617 L12.106989860534668 16.451231002807617 C12.149123191833496 18.5961971282959 12.320930480957031 20.133102416992188 13.398924827575684 22.01047134399414 L13.398924827575684 22.01047134399414 C13.1144380569458 22.033960342407227 12.829952239990234 22.05744743347168 12.545465469360352 22.080936431884766 L10.376578330993652 22.080936431884766 C10.079041481018066 22.060056686401367 9.78150463104248 22.0391788482666 9.483967781066895 22.018299102783203 L9.483967781066895 22.018299102783203 C10.141023635864258 20.606067657470703 10.423959732055664 19.17087173461914 10.528399467468262 17.70720672607422 C10.632840156555176 16.243541717529297 10.558784484863281 14.751409530639648 10.50185775756836 13.225305557250977 L10.50185775756836 13.225305557250977 C10.154731750488281 12.763340950012207 9.807604789733887 12.301376342773438 9.460478782653809 11.839411735534668 L9.460478782653809 11.839411735534668 C8.050287246704102 11.519864082336426 7.557658672332764 11.6287202835083 6.507962226867676 10.523837089538574 C4.891833782196045 8.822742462158203 4.93268346786499 6.841710090637207 5.885739803314209 5.362343788146973 C6.8387956619262695 3.88297700881958 8.704058647155762 2.905276298522949 10.73675537109375 3.2108449935913086 L10.73675537109375 3.2108449935913086 C11.690011024475098 2.403914213180542 12.866691589355469 1.8152308464050293 14.080127716064453 1.5195837020874023 L14.080127716064453 1.5195837020874023"></path>
<path fill="none" stroke="black" stroke-width=".3" stroke-opacity="1.0"  filling="0" d="M12.216608047485352 14.149235725402832 L12.216608047485352 14.149235725402832 C12.650748252868652 14.204313278198242 13.087386131286621 14.293159484863281 13.52420425415039 14.266683578491211 L13.52420425415039 14.266683578491211 C13.099196434020996 14.828453063964844 12.62414836883545 15.353639602661133 12.122649192810059 15.848326683044434 L12.122649192810059 15.848326683044434 C12.153968811035156 15.281963348388672 12.185288429260254 14.715599060058594 12.216608047485352 14.149235725402832 L12.216608047485352 14.149235725402832"></path></svg>