<svg xmlns="http://www.w3.org/2000/svg" viewBox="0.0 0.0 24.0 24.0" height="200px" width="200px"><path fill="none" stroke="black" stroke-width=".3" stroke-opacity="1.0"  filling="0" d="M14.821059226989746 1.6380748748779297 L14.821059226989746 1.6380748748779297 C16.176292419433594 1.8792457580566406 16.697418212890625 2.695995807647705 17.941513061523438 1.6300296783447266 L17.941513061523438 1.6300296783447266 C17.83458137512207 2.0791738033294678 17.72052764892578 2.6360244750976562 17.32176971435547 2.8687400817871094 L17.32176971435547 2.8687400817871094 C17.610380172729492 2.665297508239746 17.898988723754883 2.461854934692383 18.187599182128906 2.2584123611450195 L18.187599182128906 2.2584123611450195 C18.037410736083984 2.57183837890625 18.034446716308594 3.0188584327697754 17.737035751342773 3.198690414428711 C17.411283493041992 3.3956596851348877 16.975839614868164 3.2137279510498047 16.59524154663086 3.2212467193603516 L16.59524154663086 3.2212467193603516 C16.14485740661621 5.029433250427246 15.697450637817383 4.9098944664001465 13.890827178955078 4.552187442779541 L13.890827178955078 4.552187442779541 C14.084097862243652 4.3946332931518555 14.622191429138184 4.277537822723389 14.470640182495117 4.079524517059326 C14.277288436889648 3.826896905899048 13.834479331970215 4.068488121032715 13.516399383544922 4.062970161437988 L13.516399383544922 4.062970161437988 C13.042318344116211 2.9391958713531494 13.65939712524414 1.814948558807373 14.821059226989746 1.6380748748779297 L14.821059226989746 1.6380748748779297"></path>
<path fill="none" stroke="black" stroke-width=".3" stroke-opacity="1.0"  filling="0" d="M9.738975524902344 2.009537696838379 L9.738975524902344 2.009537696838379 C11.172882080078125 2.5268197059631348 11.731644630432129 2.9371893405914307 11.385174751281738 4.519937992095947 L11.385174751281738 4.519937992095947 C10.425033569335938 4.284732341766357 9.876335144042969 4.370725154876709 10.827784538269043 5.15718936920166 L10.827784538269043 5.15718936920166 C9.291961669921875 5.665840148925781 6.818088054656982 4.385375022888184 8.518190383911133 2.566762924194336 C8.823663711547852 2.2399957180023193 9.332047462463379 2.195279359817505 9.738975524902344 2.009537696838379 L9.738975524902344 2.009537696838379"></path>
<path fill="none" stroke="black" stroke-width=".3" stroke-opacity="1.0"  filling="0" d="M7.763064384460449 5.121336936950684 L9.923626899719238 5.633092403411865 C9.978832244873047 5.804459571838379 10.034038543701172 5.975827217102051 10.08924388885498 6.1471943855285645 L8.470229148864746 13.124259948730469 C8.345388412475586 13.252981185913086 8.220547676086426 13.381702423095703 8.095706939697266 13.51042366027832 L5.93514347076416 12.998669624328613 C5.879938125610352 12.827301025390625 5.824733257293701 12.655933380126953 5.769527912139893 12.484564781188965 L7.388542652130127 5.507500648498535 C7.513383388519287 5.378779411315918 7.638223648071289 5.250058174133301 7.763064384460449 5.121336936950684 L7.763064384460449 5.121336936950684"></path>
<path fill="none" stroke="black" stroke-width=".3" stroke-opacity="1.0"  filling="0" d="M14.531840324401855 5.313209056854248 L16.3544921875 4.714945316314697 C16.49251937866211 4.831699371337891 16.63054656982422 4.948452949523926 16.768573760986328 5.065207004547119 L19.00152587890625 11.86804485321045 C18.959537506103516 12.043886184692383 18.917551040649414 12.2197265625 18.87556266784668 12.395567893981934 L17.052913665771484 12.993830680847168 C16.914886474609375 12.877077102661133 16.776859283447266 12.760324478149414 16.638832092285156 12.643570899963379 L14.405879974365234 5.840732574462891 C14.447866439819336 5.664891242980957 14.489853858947754 5.489050388336182 14.531840324401855 5.313209056854248 L14.531840324401855 5.313209056854248"></path>
<path fill="none" stroke="black" stroke-width=".3" stroke-opacity="1.0"  filling="0" d="M13.090889930725098 5.680649280548096 L13.090889930725098 5.680649280548096 C12.858282089233398 5.536074638366699 12.6256742477417 5.391499996185303 12.39306640625 5.246925354003906 L11.796406745910645 2.5985870361328125 C11.885290145874023 2.460376501083374 11.974172592163086 2.3221657276153564 12.063055992126465 2.183955192565918 L12.519954681396484 2.0810251235961914 C12.661250114440918 2.1673800945281982 12.802546501159668 2.253734827041626 12.943841934204102 2.340089797973633 L13.540499687194824 4.988426208496094 C13.390629768371582 5.219167232513428 13.24075984954834 5.449908256530762 13.090889930725098 5.680649280548096 L13.090889930725098 5.680649280548096"></path>
<path fill="none" stroke="black" stroke-width=".3" stroke-opacity="1.0"  filling="0" d="M15.971722602844238 5.927340507507324 L15.818714141845703 6.36998987197876 C15.671499252319336 6.442967891693115 15.524285316467285 6.515945911407471 15.377070426940918 6.588923931121826 L12.771830558776855 5.687913417816162 C11.733635902404785 5.00539493560791 12.735811233520508 4.777230262756348 13.136252403259277 4.569399833679199 L15.761308670043945 5.477262020111084 C15.831442832946777 5.627286911010742 15.901577949523926 5.777311325073242 15.971712112426758 5.9273362159729 L15.971712112426758 5.9273362159729"></path>
<path fill="none" stroke="black" stroke-width=".3" stroke-opacity="1.0"  filling="0" d="M10.009324073791504 9.569624900817871 L10.009324073791504 9.569624900817871 C9.790143966674805 9.402917861938477 9.39605712890625 9.330682754516602 9.361055374145508 9.057541847229004 L8.977036476135254 6.065983772277832 C9.076943397521973 5.936659812927246 9.176849365234375 5.807335376739502 9.276756286621094 5.678011417388916 L9.735878944396973 5.624196529388428 C9.865533828735352 5.7266130447387695 9.99518871307373 5.829029560089111 10.12484359741211 5.931446075439453 L10.508842468261719 8.923006057739258 C10.543780326843262 9.193117141723633 10.17984390258789 9.357242584228516 10.009329795837402 9.569623947143555 L10.009329795837402 9.569623947143555"></path>
<path fill="none" stroke="black" stroke-width=".3" stroke-opacity="1.0"  filling="0" d="M18.87967300415039 11.59678840637207 L18.87967300415039 11.59678840637207 C19.206527709960938 13.22708511352539 19.55790138244629 14.44708251953125 20.42153549194336 15.88189697265625 L16.434839248657227 16.240842819213867 L16.507579803466797 11.441411972045898 L18.87967300415039 11.59678840637207"></path>
<path fill="none" stroke="black" stroke-width=".3" stroke-opacity="1.0"  filling="0" d="M10.87698745727539 12.33130168914795 L10.421022415161133 12.430543899536133 C10.28390884399414 12.341958999633789 10.146794319152832 12.253375053405762 10.00968074798584 12.164790153503418 L9.396927833557129 9.15981388092041 C9.096685409545898 7.690320014953613 10.484962463378906 8.865726470947266 10.53368091583252 8.89624309539795 L11.149592399597168 11.916682243347168 C11.058723449707031 12.054888725280762 10.967855453491211 12.193094253540039 10.876986503601074 12.331300735473633 L10.876986503601074 12.331300735473633"></path>
<path fill="none" stroke="black" stroke-width=".3" stroke-opacity="1.0"  filling="0" d="M6.402771949768066 12.884181022644043 L7.56632661819458 12.892054557800293 C7.683655261993408 13.008870124816895 7.800983428955078 13.12568473815918 7.918312072753906 13.242500305175781 L7.943514347076416 16.248685836791992 C7.947248935699463 16.687604904174805 7.454174518585205 17.1840877532959 7.015250205993652 17.18111801147461 C6.5725016593933105 17.17812156677246 6.389471530914307 16.55458641052246 6.076581954956055 16.24131965637207 L6.051332950592041 13.22986888885498 C6.168478965759277 13.114639282226562 6.285624980926514 12.999409675598145 6.40277099609375 12.884180068969727 L6.40277099609375 12.884180068969727"></path>
<path fill="none" stroke="black" stroke-width=".3" stroke-opacity="1.0"  filling="0" d="M17.144641876220703 13.036462783813477 L17.96285629272461 12.988654136657715 C18.4397029876709 13.406316757202148 18.38311004638672 14.201532363891602 18.42119598388672 14.834283828735352 C18.451562881469727 15.338813781738281 18.64740753173828 15.859477043151855 18.516321182250977 16.347625732421875 C18.246383666992188 17.352840423583984 17.396039962768555 17.434085845947266 16.997697830200195 16.452112197875977 C16.705703735351562 15.732301712036133 16.623275756835938 13.61352825164795 17.144641876220703 13.036462783813477 L17.144641876220703 13.036462783813477"></path>
<path fill="none" stroke="black" stroke-width=".3" stroke-opacity="1.0"  filling="0" d="M7.068042755126953 15.53617000579834 L7.068042755126953 15.53617000579834 C7.353372097015381 15.869223594665527 7.63870096206665 16.2022762298584 7.924030303955078 16.535329818725586 L7.5517473220825195 21.008914947509766 C7.424454212188721 21.101396560668945 7.297161102294922 21.193876266479492 7.169867992401123 21.286357879638672 L5.994773864746094 21.286357879638672 C5.8897600173950195 21.170866012573242 5.784746170043945 21.05537223815918 5.679732322692871 20.93988037109375 L6.061594009399414 16.408815383911133 C6.3970770835876465 16.11793327331543 6.732559680938721 15.827052116394043 7.068042755126953 15.53617000579834 L7.068042755126953 15.53617000579834"></path>
<path fill="none" stroke="black" stroke-width=".3" stroke-opacity="1.0"  filling="0" d="M17.71820068359375 15.827289581298828 L17.71820068359375 15.827289581298828 C17.986188888549805 16.062015533447266 18.499839782714844 16.18071746826172 18.52201271057129 16.536277770996094 L18.778213500976562 20.920562744140625 C18.6744384765625 21.04249382019043 18.570663452148438 21.1644229888916 18.466888427734375 21.286354064941406 L17.610355377197266 21.286354064941406 C17.49312973022461 21.194021224975586 17.37590217590332 21.1016902923584 17.258676528930664 21.009357452392578 L17.002490997314453 16.625070571899414 C16.980283737182617 16.26689338684082 17.47764015197754 16.09357261657715 17.718219757080078 15.827291488647461 L17.718219757080078 15.827291488647461"></path></svg>