<svg xmlns="http://www.w3.org/2000/svg" viewBox="0.0 0.0 24.0 24.0" height="200px" width="200px"><path fill="none" stroke="black" stroke-width=".3" stroke-opacity="1.0"  filling="0" d="M12.16696834564209 4.372608184814453 L12.16696834564209 4.372608184814453 C12.384696006774902 4.432512283325195 12.602424621582031 4.4924163818359375 12.820152282714844 4.55232048034668 L12.466560363769531 4.920168399810791 C12.098331451416016 4.832324028015137 11.776416778564453 5.272177219390869 11.525015830993652 5.555208683013916 L10.570727348327637 6.892032146453857 L10.570727348327637 6.52116060256958 C10.705085754394531 6.396529674530029 10.807395935058594 6.169395446777344 10.990632057189941 6.166272163391113 L10.991496086120605 5.546999931335449 C11.383319854736328 5.15553617477417 11.775144577026367 4.764071941375732 12.16696834564209 4.372608184814453 L12.16696834564209 4.372608184814453"></path>
<path fill="none" stroke="black" stroke-width=".3" stroke-opacity="1.0"  filling="0" d="M13.396008491516113 6.166920185089111 L13.396008491516113 6.166920185089111 C13.510704040527344 6.29148006439209 13.62540054321289 6.416040420532227 13.740096092224121 6.540600299835205 L13.740096092224121 7.939847946166992 C13.157145500183105 8.573142051696777 11.398133277893066 8.58674144744873 10.650864601135254 8.162328720092773 L11.852904319763184 6.9121198654174805 C11.846779823303223 7.0216450691223145 11.939261436462402 7.114068031311035 11.990495681762695 7.211064338684082 L11.873207092285156 7.7882161140441895 L12.43847942352295 7.7882161140441895 L12.320111274719238 7.211064338684082 C12.405362129211426 7.049668788909912 12.671100616455078 6.595320224761963 12.11901569366455 6.634992599487305 L13.311335563659668 5.3951520919799805 C13.314071655273438 5.445767879486084 13.316807746887207 5.496384143829346 13.319543838500977 5.546999931335449 L13.319543838500977 6.166920185089111 C13.34503173828125 6.166920185089111 13.37052059173584 6.166920185089111 13.396008491516113 6.166920185089111 L13.396008491516113 6.166920185089111"></path>
<path fill="none" stroke="black" stroke-width=".3" stroke-opacity="1.0"  filling="0" d="M15.254472732543945 6.408192157745361 L15.254472732543945 6.408192157745361 C14.888166427612305 8.092185974121094 14.519598960876465 8.611788749694824 13.026432037353516 9.470640182495117 L13.026432037353516 12.144720077514648 L11.045928001403809 12.144720077514648 L11.045928001403809 9.470856666564941 C9.626708984375 8.654419898986816 8.917037963867188 7.531438827514648 8.917006492614746 6.408472537994385 C8.916975975036621 5.285506248474121 9.626585006713867 4.162554740905762 11.045928001403809 3.346177101135254 L11.045928001403809 1.2000007629394531 L13.026432037353516 1.2000007629394531 L13.026432037353516 3.3459606170654297 C14.519434928894043 4.204831123352051 14.888139724731445 4.724330902099609 15.254472732543945 6.408192157745361 L15.254472732543945 6.408192157745361"></path>
<path fill="none" stroke="black" stroke-width=".3" stroke-opacity="1.0"  filling="0" d="M9.717742919921875 7.986504554748535 L9.717742919921875 7.986504554748535 C9.55531120300293 7.460400581359863 9.249507904052734 6.958470344543457 9.230447769165039 6.408192157745361 C9.138747215270996 3.7607619762420654 11.701408386230469 3.505263328552246 13.536407470703125 4.038456439971924 L9.717742919921875 7.986504554748535"></path>
<path fill="none" stroke="black" stroke-width=".3" stroke-opacity="1.0"  filling="0" d="M12.036287307739258 9.214248657226562 L12.036287307739258 9.214248657226562 C11.367405891418457 9.08587646484375 10.709534645080566 8.832869529724121 10.133760452270508 8.469048500061035 L14.03212833404541 4.438920021057129 C15.546775817871094 6.707648277282715 14.559837341308594 8.529953956604004 12.036287307739258 9.214248657226562 L12.036287307739258 9.214248657226562"></path>
<path fill="none" stroke="black" stroke-width=".3" stroke-opacity="1.0"  filling="0" d="M11.031888008117676 13.207440376281738 L13.025568962097168 13.198368072509766 L13.025568962097168 17.207975387573242 L12.758376121520996 18.133317947387695 L11.031888008117676 16.37335205078125 L11.031888008117676 13.207440376281738"></path>
<path fill="none" stroke="black" stroke-width=".3" stroke-opacity="1.0"  filling="0" d="M17.917537689208984 14.443175315856934 L17.917537689208984 14.443175315856934 C19.30865478515625 14.71817684173584 19.805574417114258 14.600966453552246 20.864423751831055 15.650642395019531 C22.91722869873047 17.6856632232666 22.195823669433594 20.226573944091797 20.534263610839844 21.662118911743164 C18.872705459594727 23.09766387939453 16.270994186401367 23.427845001220703 14.563192367553711 21.04140853881836 C14.183140754699707 20.510334014892578 14.069181442260742 19.83233070373535 13.822175979614258 19.22779083251953 L12.99187183380127 19.293888092041016 C12.898595809936523 19.29762840270996 12.826800346374512 19.265398025512695 12.757296562194824 19.206192016601562 L7.9074482917785645 14.229551315307617 L7.704840183258057 14.815559387207031 C9.130553245544434 15.785697937011719 10.220318794250488 16.71500015258789 10.225775718688965 18.619319915771484 C10.229987144470215 20.089054107666016 9.466729164123535 21.331626892089844 8.363690376281738 22.06804847717285 C7.260650634765625 22.80447006225586 5.817829132080078 23.034744262695312 4.462913513183594 22.479881286621094 C3.1161837577819824 21.92837142944336 2.2692813873291016 20.74924087524414 2.013254404067993 19.4511775970459 C1.7572271823883057 18.15311622619629 2.0920753479003906 16.736120223999023 3.108846426010132 15.708882331848145 C4.266543388366699 14.539267539978027 5.6278767585754395 14.41994571685791 7.147775650024414 14.614248275756836 L7.680864334106445 12.727487564086914 C7.681008338928223 12.71733570098877 7.68115234375 12.707183837890625 7.681296348571777 12.69703197479248 L7.795344352722168 12.10540771484375 L6.317904472351074 12.112104415893555 C6.191915512084961 12.008554458618164 6.190539836883545 11.727619171142578 6.315528392791748 11.62286376953125 L8.159088134765625 11.614224433898926 C8.28471851348877 11.665066719055176 8.40847396850586 11.770600318908691 8.44809627532959 11.90020751953125 L8.3340482711792 12.347543716430664 L14.539080619812012 12.318816184997559 L14.863727569580078 11.339038848876953 L13.899935722351074 11.34335994720459 C13.74576473236084 11.153481483459473 13.744221687316895 10.801024436950684 13.896479606628418 10.609607696533203 L16.1405029296875 10.599239349365234 C16.294496536254883 10.789261817932129 16.296110153198242 11.14166259765625 16.14374351501465 11.332991600036621 L15.478680610656738 11.33623218536377 L15.080160140991211 12.731592178344727 L16.211999893188477 14.814264297485352 C16.7805118560791 14.690567970275879 17.34902572631836 14.566871643066406 17.917537689208984 14.443175315856934 L17.917537689208984 14.443175315856934"></path>
<path fill="none" stroke="black" stroke-width=".3" stroke-opacity="1.0"  filling="0" d="M16.023216247558594 15.711312294006348 L17.45983123779297 18.35104751586914 L14.463047981262207 18.5869197845459 C14.738907814025879 17.5318603515625 15.283245086669922 16.51236915588379 16.023216247558594 15.711312294006348 L16.023216247558594 15.711312294006348"></path>
<path fill="none" stroke="black" stroke-width=".3" stroke-opacity="1.0"  filling="0" d="M12.82555103302002 18.399431228637695 L8.105952262878418 13.588679313659668 L8.208768844604492 13.08194351196289 L14.36952018737793 13.053215026855469 L12.82555103302002 18.399431228637695"></path>
<path fill="none" stroke="black" stroke-width=".3" stroke-opacity="1.0"  filling="0" d="M9.537599563598633 18.622560501098633 L9.537599563598633 18.622560501098633 C9.381980895996094 19.207176208496094 9.369585990905762 19.850399017333984 9.070743560791016 20.376407623291016 C7.651859760284424 22.873865127563477 5.216611862182617 22.4124755859375 3.7571377754211426 20.966346740722656 C2.297663927078247 19.520217895507812 1.8139641284942627 17.08934783935547 4.2981767654418945 15.64784049987793 C5.452003479003906 14.978313446044922 5.874608993530273 15.143458366394043 6.923136234283447 15.272615432739258 L5.785248279571533 18.56747817993164 C5.871216773986816 18.74410057067871 6.182592868804932 18.87407112121582 6.342311859130859 18.759719848632812 L7.4797682762146 15.467231750488281 C8.437671661376953 16.279125213623047 9.171777725219727 17.421340942382812 9.537599563598633 18.622560501098633 L9.537599563598633 18.622560501098633"></path>
<path fill="none" stroke="black" stroke-width=".3" stroke-opacity="1.0"  filling="0" d="M13.810511589050293 18.627958297729492 L13.810511589050293 18.627958297729492 C13.810511589050293 18.63235092163086 13.810511589050293 18.636743545532227 13.810511589050293 18.641136169433594 L13.387368202209473 18.672887802124023 L14.855951309204102 13.550664901733398 L15.716279983520508 15.105863571166992 C14.450604438781738 16.25300407409668 14.091147422790527 16.941566467285156 13.810511589050293 18.627958297729492 L13.810511589050293 18.627958297729492"></path>
<path fill="none" stroke="black" stroke-width=".3" stroke-opacity="1.0"  filling="0" d="M12.971783638000488 19.433425903320312 L12.971783638000488 19.433425903320312 C12.980855941772461 19.432992935180664 12.989927291870117 19.432559967041016 12.99899959564209 19.432126998901367 L13.025352478027344 22.799999237060547 L11.031671524047852 22.799999237060547 L11.031671524047852 17.633495330810547 L12.66160774230957 19.305984497070312 C12.667223930358887 19.310880661010742 12.672839164733887 19.31577491760254 12.678455352783203 19.32067108154297 L12.69076919555664 19.331039428710938 C12.713348388671875 19.349103927612305 12.737921714782715 19.36458969116211 12.762479782104492 19.37985610961914 L12.76701545715332 19.382232666015625 C12.835415840148926 19.41731071472168 12.89253044128418 19.42570686340332 12.968759536743164 19.433425903320312 L12.971783638000488 19.433425903320312"></path>
<path fill="none" stroke="black" stroke-width=".3" stroke-opacity="1.0"  filling="0" d="M17.95252799987793 22.082664489746094 L17.95252799987793 22.082664489746094 C15.88321590423584 21.58757781982422 15.336897850036621 21.134469985961914 14.509271621704102 19.17465591430664 L17.959657669067383 18.902711868286133 C18.097932815551758 18.812763214111328 18.195833206176758 18.63286018371582 18.195959091186523 18.46790313720703 L16.54118537902832 15.428568840026855 C17.982938766479492 15.1220703125 19.552759170532227 15.525932312011719 20.527523040771484 16.419296264648438 C21.502288818359375 17.312660217285156 21.881999969482422 18.695524215698242 20.94353485107422 20.347030639648438 C20.11984634399414 21.796552658081055 19.400671005249023 21.682880401611328 17.95252799987793 22.082664489746094 L17.95252799987793 22.082664489746094"></path></svg>