<svg xmlns="http://www.w3.org/2000/svg" viewBox="0.0 0.0 24.0 24.0" height="200px" width="200px"><path fill="none" stroke="black" stroke-width=".3" stroke-opacity="1.0"  filling="0" d="M1.7146879434585571 4.499062538146973 L1.7146879434585571 4.499062538146973 C1.7259379625320435 4.499062538146973 1.7371878623962402 4.499062538146973 1.7484378814697266 4.499062538146973 L8.588438034057617 4.499062538146973 L15.428437232971191 4.499062538146973 L22.268436431884766 4.499062538146973 C22.409229278564453 4.559318542480469 22.532482147216797 4.685813903808594 22.589061737060547 4.828124046325684 L22.589061737060547 11.308124542236328 L22.589061737060547 17.788124084472656 C22.482187271118164 17.89499855041504 22.37531089782715 18.001874923706055 22.268436431884766 18.108749389648438 L15.428437232971191 18.108749389648438 L8.588438034057617 18.108749389648438 L1.7484378814697266 18.108749389648438 C1.6415624618530273 18.001874923706055 1.5346870422363281 17.89499855041504 1.427811622619629 17.788124084472656 L1.427811622619629 11.308124542236328 L1.427811622619629 4.828124523162842 C1.5234369039535522 4.718437194824219 1.6190621852874756 4.6087493896484375 1.714687466621399 4.4990620613098145 L1.714687466621399 4.4990620613098145"></path>
<path fill="none" stroke="black" stroke-width=".3" stroke-opacity="1.0"  filling="0" d="M3.7987499237060547 4.828124523162842 L4.018124580383301 4.828124523162842 L4.018124580383301 11.308124542236328 L4.018124580383301 17.788124084472656 L3.7987499237060547 17.788124084472656 L3.7987499237060547 11.308124542236328 L3.7987499237060547 4.828124523162842"></path>
<path fill="none" stroke="black" stroke-width=".3" stroke-opacity="1.0"  filling="0" d="M7.038749694824219 4.828124523162842 L7.258124828338623 4.828124523162842 L7.258124828338623 11.308124542236328 L7.258124828338623 17.788124084472656 L7.038749694824219 17.788124084472656 L7.038749694824219 11.308124542236328 L7.038749694824219 4.828124523162842"></path>
<path fill="none" stroke="black" stroke-width=".3" stroke-opacity="1.0"  filling="0" d="M10.278749465942383 4.828124523162842 L10.498125076293945 4.828124523162842 L10.498125076293945 11.308124542236328 L10.498125076293945 17.788124084472656 L10.278749465942383 17.788124084472656 L10.278749465942383 11.308124542236328 L10.278749465942383 4.828124523162842"></path>
<path fill="none" stroke="black" stroke-width=".3" stroke-opacity="1.0"  filling="0" d="M13.518750190734863 4.828124523162842 L13.73812484741211 4.828124523162842 L13.73812484741211 11.308124542236328 L13.73812484741211 17.788124084472656 L13.518750190734863 17.788124084472656 L13.518750190734863 11.308124542236328 L13.518750190734863 4.828124523162842"></path>
<path fill="none" stroke="black" stroke-width=".3" stroke-opacity="1.0"  filling="0" d="M16.758750915527344 4.828124523162842 L16.978124618530273 4.828124523162842 L16.978124618530273 11.308124542236328 L16.978124618530273 17.788124084472656 L16.758750915527344 17.788124084472656 L16.758750915527344 11.308124542236328 L16.758750915527344 4.828124523162842"></path>
<path fill="none" stroke="black" stroke-width=".3" stroke-opacity="1.0"  filling="0" d="M19.998750686645508 4.828124523162842 L20.218124389648438 4.828124523162842 L20.218124389648438 11.308124542236328 L20.218124389648438 17.788124084472656 L19.998750686645508 17.788124084472656 L19.998750686645508 11.308124542236328 L19.998750686645508 4.828124523162842"></path>
<path fill="none" stroke="black" stroke-width=".3" stroke-opacity="1.0"  filling="0" d="M2.0690622329711914 5.148749828338623 L8.6953125 5.148749828338623 L15.321563720703125 5.148749828338623 L21.947813034057617 5.148749828338623 L21.947813034057617 11.303905487060547 L21.947813034057617 17.459060668945312 L15.321563720703125 17.459060668945312 L8.6953125 17.459060668945312 L2.0690622329711914 17.459060668945312 L2.0690622329711914 11.303905487060547 L2.0690622329711914 5.148749828338623"></path>
<path fill="none" stroke="black" stroke-width=".3" stroke-opacity="1.0"  filling="0" d="M3.3682336807250977 5.4720540046691895 L4.448233604431152 5.4720540046691895 C4.600968837738037 5.624789237976074 4.600968837738037 5.967319011688232 4.448233604431152 6.120054244995117 L3.3682336807250977 6.120054244995117 C3.215498685836792 5.967319011688232 3.215498685836792 5.624789237976074 3.3682336807250977 5.4720540046691895 L3.3682336807250977 5.4720540046691895"></path>
<path fill="none" stroke="black" stroke-width=".3" stroke-opacity="1.0"  filling="0" d="M9.819753646850586 5.594738006591797 L13.782003402709961 5.594738006591797 C13.917003631591797 5.729738235473633 14.052003860473633 5.8647379875183105 14.187004089355469 5.9997382164001465 L14.187004089355469 9.813488006591797 L14.187004089355469 13.627238273620605 C14.11950397491455 13.741988182067871 14.052002906799316 13.856738090515137 13.984502792358398 13.971487998962402 L13.984502792358398 18.041738510131836 L13.984502792358398 22.111988067626953 C13.851753234863281 22.24473762512207 13.719003677368164 22.37748908996582 13.586254119873047 22.510238647460938 L12.499504089355469 22.510238647460938 C12.369004249572754 22.37748908996582 12.238504409790039 22.24473762512207 12.108004570007324 22.111988067626953 L12.108004570007324 18.072113037109375 L12.108004570007324 14.032238960266113 L11.527503967285156 14.032238960266113 L11.527503967285156 18.092363357543945 L11.527503967285156 22.152488708496094 C11.410504341125488 22.271738052368164 11.293503761291504 22.390989303588867 11.176504135131836 22.510238647460938 L9.995254516601562 22.510238647460938 C9.878253936767578 22.390989303588867 9.76125431060791 22.271738052368164 9.644253730773926 22.152488708496094 L9.644253730773926 18.072113037109375 L9.644253730773926 13.991738319396973 C9.567753791809082 13.870238304138184 9.491253852844238 13.748738288879395 9.414753913879395 13.627238273620605 L9.414753913879395 9.813488006591797 L9.414753913879395 5.9997382164001465 C9.54975414276123 5.8647379875183105 9.68475341796875 5.729738235473633 9.819753646850586 5.594738006591797 L9.819753646850586 5.594738006591797"></path>
<path fill="none" stroke="black" stroke-width=".3" stroke-opacity="1.0"  filling="0" d="M8.294254302978516 5.635237693786621 L8.874753952026367 5.635237693786621 C9.009754180908203 5.7679877281188965 9.144754409790039 5.900737762451172 9.279754638671875 6.033487796783447 L9.279754638671875 12.918488502502441 C9.144754409790039 13.053488731384277 9.009754180908203 13.188488006591797 8.874753952026367 13.323488235473633 L8.294254302978516 13.323488235473633 C8.15925407409668 13.188488006591797 8.024253845214844 13.053488731384277 7.889254093170166 12.918488502502441 L7.889254093170166 6.033487796783447 C8.024253845214844 5.900737762451172 8.15925407409668 5.7679877281188965 8.294254302978516 5.635237693786621 L8.294254302978516 5.635237693786621"></path>
<path fill="none" stroke="black" stroke-width=".3" stroke-opacity="1.0"  filling="0" d="M14.727004051208496 5.635237693786621 L15.307504653930664 5.635237693786621 C15.442503929138184 5.7679877281188965 15.57750415802002 5.900737762451172 15.712503433227539 6.033487796783447 L15.712503433227539 12.763237953186035 C15.57750415802002 12.898238182067871 15.442503929138184 13.03323745727539 15.307504653930664 13.168237686157227 L15.152254104614258 13.7217378616333 C15.150004386901855 13.735238075256348 15.147753715515137 13.748738288879395 15.145503997802734 13.762238502502441 L15.456003189086914 13.762238502502441 C15.492003440856934 13.798237800598145 15.528003692626953 13.834238052368164 15.564003944396973 13.870237350463867 L15.564003944396973 19.175737380981445 C15.528003692626953 19.213987350463867 15.492003440856934 19.252239227294922 15.456003189086914 19.290489196777344 L14.57850456237793 19.290489196777344 C14.544754028320312 19.252239227294922 14.511004447937012 19.213987350463867 14.477253913879395 19.175737380981445 L14.477253913879395 13.870237350463867 C14.511004447937012 13.834238052368164 14.544754028320312 13.798237800598145 14.57850456237793 13.762238502502441 L14.855254173278809 13.762238502502441 C14.853004455566406 13.748738288879395 14.850753784179688 13.735238075256348 14.848504066467285 13.7217378616333 L14.727004051208496 13.168237686157227 C14.59200382232666 13.03323745727539 14.457003593444824 12.898238182067871 14.322003364562988 12.763237953186035 L14.322003364562988 6.033487796783447 C14.457003593444824 5.900737762451172 14.59200382232666 5.7679877281188965 14.727004051208496 5.635237693786621 L14.727004051208496 5.635237693786621"></path>
<path fill="none" stroke="black" stroke-width=".3" stroke-opacity="1.0"  filling="0" d="M11.115753173828125 5.722988128662109 L12.283503532409668 5.722988128662109 L11.878503799438477 6.2899885177612305 L11.115753173828125 5.722988128662109"></path>
<path fill="none" stroke="black" stroke-width=".3" stroke-opacity="1.0"  filling="0" d="M11.595004081726074 6.397988319396973 L11.817753791809082 6.397988319396973 L11.595004081726074 8.97648811340332 L10.751254081726074 9.759489059448242 L10.467754364013672 8.80098819732666 L11.595004081726074 6.397988319396973"></path>
<path fill="none" stroke="black" stroke-width=".3" stroke-opacity="1.0"  filling="0" d="M12.938253402709961 6.613987922668457 L13.012504577636719 6.613987922668457 C13.041754722595215 6.681488037109375 13.071003913879395 6.748987674713135 13.10025405883789 6.816487789154053 L13.10025405883789 7.417237758636475 L13.242003440856934 6.924488067626953 C13.287003517150879 6.863738059997559 13.332003593444824 6.802988052368164 13.37700366973877 6.7422380447387695 L13.491754531860352 6.7422380447387695 C13.534504890441895 6.802988052368164 13.577254295349121 6.863738059997559 13.620004653930664 6.924488067626953 L13.849503517150879 9.205987930297852 C13.725753784179688 9.32748794555664 13.60200309753418 9.448988914489746 13.478253364562988 9.570488929748535 L12.445504188537598 9.570488929748535 C12.321754455566406 9.448988914489746 12.198004722595215 9.32748794555664 12.074254989624023 9.205987930297852 L12.135004043579102 7.417237758636475 C12.139504432678223 7.417237758636475 12.144003868103027 7.417237758636475 12.148504257202148 7.417237758636475 L12.303753852844238 7.032487869262695 C12.348753929138184 6.987488269805908 12.393754005432129 6.942488193511963 12.438754081726074 6.897488594055176 L12.56025505065918 6.897488594055176 C12.605255126953125 6.942488193511963 12.650254249572754 6.987488269805908 12.6952543258667 7.032487869262695 L12.857254028320312 7.417237758636475 L12.857254028320312 6.816487789154053 C12.88425350189209 6.748987674713135 12.911253929138184 6.681488037109375 12.938253402709961 6.613987922668457 L12.938253402709961 6.613987922668457"></path>
<path fill="none" stroke="black" stroke-width=".3" stroke-opacity="1.0"  filling="0" d="M12.993037223815918 6.702671051025391 L12.962432861328125 6.702671051025391 C12.988988876342773 6.7136712074279785 13.012409210205078 6.737090587615967 13.023408889770508 6.763647079467773 L13.023408889770508 7.953304290771484 C13.003084182739258 7.973629474639893 12.982758522033691 7.993954181671143 12.962433815002441 8.01427936553955 L12.993037223815918 8.01427936553955 C12.96648120880127 8.003279685974121 12.943060874938965 7.979860305786133 12.932060241699219 7.953304290771484 L12.932060241699219 6.763647079467773 C12.943059921264648 6.737090587615967 12.966480255126953 6.71367073059082 12.993037223815918 6.702671051025391 L12.993037223815918 6.702671051025391"></path>
<path fill="none" stroke="black" stroke-width=".3" stroke-opacity="1.0"  filling="0" d="M13.430093765258789 6.965366363525391 L13.433598518371582 6.965366363525391 C13.464702606201172 6.996470928192139 13.495807647705078 7.027575492858887 13.526911735534668 7.058680057525635 L13.526911735534668 7.915061950683594 C13.495806694030762 7.946166515350342 13.464702606201172 7.977271556854248 13.433597564697266 8.008376121520996 L13.430093765258789 8.008376121520996 C13.389452934265137 7.991542339324951 13.353612899780273 7.955702304840088 13.33677864074707 7.915061950683594 L13.336779594421387 7.058680057525635 C13.353612899780273 7.018040180206299 13.389452934265137 6.9822001457214355 13.430092811584473 6.965366363525391 L13.430092811584473 6.965366363525391"></path>
<path fill="none" stroke="black" stroke-width=".3" stroke-opacity="1.0"  filling="0" d="M12.50481128692627 7.183656692504883 L12.491353034973145 7.183656692504883 C12.53463077545166 7.201582431793213 12.572796821594238 7.239748001098633 12.590723037719727 7.283025741577148 L12.590723037719727 7.921082019805908 C12.572796821594238 7.964359760284424 12.53463077545166 8.002525329589844 12.491353034973145 8.020451545715332 L12.50481128692627 8.020451545715332 C12.471688270568848 7.98732852935791 12.438565254211426 7.954205513000488 12.405442237854004 7.921082496643066 L12.405442237854004 7.283026218414307 C12.438565254211426 7.249902725219727 12.471688270568848 7.216779708862305 12.50481128692627 7.183656215667725 L12.50481128692627 7.183656215667725"></path>
<path fill="none" stroke="black" stroke-width=".3" stroke-opacity="1.0"  filling="0" d="M6.608233451843262 7.20005464553833 L7.688232898712158 7.20005464553833 C7.840968132019043 7.352789402008057 7.840968132019043 7.695319652557373 7.688232898712158 7.848054885864258 L6.608233451843262 7.848054885864258 C6.455498218536377 7.695319652557373 6.455498218536377 7.352789878845215 6.608233451843262 7.20005464553833 L6.608233451843262 7.20005464553833"></path>
<path fill="none" stroke="black" stroke-width=".3" stroke-opacity="1.0"  filling="0" d="M6.608233451843262 7.20005464553833 L7.688232898712158 7.20005464553833 C7.840968132019043 7.352789402008057 7.840968132019043 7.695319652557373 7.688232898712158 7.848054885864258 L6.608233451843262 7.848054885864258 C6.455498218536377 7.695319652557373 6.455498218536377 7.352789878845215 6.608233451843262 7.20005464553833 L6.608233451843262 7.20005464553833"></path>
<path fill="none" stroke="black" stroke-width=".3" stroke-opacity="1.0"  filling="0" d="M9.848233222961426 7.20005464553833 L10.928234100341797 7.20005464553833 C11.080968856811523 7.352789878845215 11.080968856811523 7.695319652557373 10.928234100341797 7.848054885864258 L9.848233222961426 7.848054885864258 C9.6954984664917 7.695319652557373 9.6954984664917 7.352789878845215 9.848233222961426 7.20005464553833 L9.848233222961426 7.20005464553833"></path>
<path fill="none" stroke="black" stroke-width=".3" stroke-opacity="1.0"  filling="0" d="M9.848233222961426 7.20005464553833 L10.928234100341797 7.20005464553833 C11.080968856811523 7.352789878845215 11.080968856811523 7.695319652557373 10.928234100341797 7.848054885864258 L9.848233222961426 7.848054885864258 C9.6954984664917 7.695319652557373 9.6954984664917 7.352789878845215 9.848233222961426 7.20005464553833 L9.848233222961426 7.20005464553833"></path>
<path fill="none" stroke="black" stroke-width=".3" stroke-opacity="1.0"  filling="0" d="M13.088233947753906 7.20005464553833 L14.168233871459961 7.20005464553833 C14.320969581604004 7.352789878845215 14.320968627929688 7.695319652557373 14.168233871459961 7.848054885864258 L13.088233947753906 7.848054885864258 C12.935498237609863 7.695320129394531 12.935498237609863 7.352789402008057 13.088233947753906 7.20005464553833 L13.088233947753906 7.20005464553833"></path>
<path fill="none" stroke="black" stroke-width=".3" stroke-opacity="1.0"  filling="0" d="M13.088233947753906 7.20005464553833 L14.168233871459961 7.20005464553833 C14.320969581604004 7.352789878845215 14.320968627929688 7.695319652557373 14.168233871459961 7.848054885864258 L13.088233947753906 7.848054885864258 C12.935498237609863 7.695320129394531 12.935498237609863 7.352789402008057 13.088233947753906 7.20005464553833 L13.088233947753906 7.20005464553833"></path>
<path fill="none" stroke="black" stroke-width=".3" stroke-opacity="1.0"  filling="0" d="M16.32823371887207 7.20005464553833 L17.408233642578125 7.20005464553833 C17.56096839904785 7.352789878845215 17.56096839904785 7.695319652557373 17.408233642578125 7.848054885864258 L16.32823371887207 7.848054885864258 C16.175498962402344 7.695319652557373 16.175498962402344 7.352789878845215 16.32823371887207 7.20005464553833 L16.32823371887207 7.20005464553833"></path>
<path fill="none" stroke="black" stroke-width=".3" stroke-opacity="1.0"  filling="0" d="M16.32823371887207 7.20005464553833 L17.408233642578125 7.20005464553833 C17.56096839904785 7.352789878845215 17.56096839904785 7.695319652557373 17.408233642578125 7.848054885864258 L16.32823371887207 7.848054885864258 C16.175498962402344 7.695319652557373 16.175498962402344 7.352789878845215 16.32823371887207 7.20005464553833 L16.32823371887207 7.20005464553833"></path>
<path fill="none" stroke="black" stroke-width=".3" stroke-opacity="1.0"  filling="0" d="M19.568235397338867 7.20005464553833 L20.648235321044922 7.20005464553833 C20.80097007751465 7.352789402008057 20.80097007751465 7.695320129394531 20.648235321044922 7.848054885864258 L19.568235397338867 7.848054885864258 C19.41550064086914 7.695320129394531 19.41550064086914 7.352789402008057 19.568235397338867 7.20005464553833 L19.568235397338867 7.20005464553833"></path>
<path fill="none" stroke="black" stroke-width=".3" stroke-opacity="1.0"  filling="0" d="M19.568235397338867 7.20005464553833 L20.648235321044922 7.20005464553833 C20.80097007751465 7.352789402008057 20.80097007751465 7.695320129394531 20.648235321044922 7.848054885864258 L19.568235397338867 7.848054885864258 C19.41550064086914 7.695320129394531 19.41550064086914 7.352789402008057 19.568235397338867 7.20005464553833 L19.568235397338867 7.20005464553833"></path>
<path fill="none" stroke="black" stroke-width=".3" stroke-opacity="1.0"  filling="0" d="M19.568235397338867 7.20005464553833 L20.648235321044922 7.20005464553833 C20.80097007751465 7.352789402008057 20.80097007751465 7.695320129394531 20.648235321044922 7.848054885864258 L19.568235397338867 7.848054885864258 C19.41550064086914 7.695320129394531 19.41550064086914 7.352789402008057 19.568235397338867 7.20005464553833 L19.568235397338867 7.20005464553833"></path>
<path fill="none" stroke="black" stroke-width=".3" stroke-opacity="1.0"  filling="0" d="M19.568235397338867 7.20005464553833 L20.648235321044922 7.20005464553833 C20.80097007751465 7.352789402008057 20.80097007751465 7.695320129394531 20.648235321044922 7.848054885864258 L19.568235397338867 7.848054885864258 C19.41550064086914 7.695320129394531 19.41550064086914 7.352789402008057 19.568235397338867 7.20005464553833 L19.568235397338867 7.20005464553833"></path>
<path fill="none" stroke="black" stroke-width=".3" stroke-opacity="1.0"  filling="0" d="M-0.6886377334594727 7.426586627960205 L-0.6886377334594727 7.426586627960205 C-0.008131444454193115 4.92009162902832 3.929997682571411 4.418465614318848 3.870434045791626 7.551984786987305 C3.8109171390533447 10.683042526245117 -0.10462892055511475 10.043466567993164 -0.6902275085449219 7.510220527648926 L-0.6902275085449219 7.510220527648926"></path>
<path fill="none" stroke="black" stroke-width=".3" stroke-opacity="1.0"  filling="0" d="M12.189003944396973 7.531988143920898 L12.364503860473633 7.930238246917725 C12.428143501281738 7.993877410888672 12.570863723754883 7.99387788772583 12.634503364562988 7.930238246917725 L12.634503364562988 7.531988143920898 L12.90450382232666 7.531988143920898 L12.90450382232666 7.977488040924072 C12.939505577087402 8.012490272521973 13.0180025100708 8.012490272521973 13.053004264831543 7.977488040924072 L13.053004264831543 7.531988143920898 L13.289254188537598 7.531988143920898 L13.289254188537598 7.9099884033203125 C13.33200454711914 7.950488090515137 13.374753952026367 7.990987777709961 13.41750431060791 8.031487464904785 L13.444503784179688 8.031487464904785 C13.48725414276123 7.990987777709961 13.530004501342773 7.950488090515137 13.572754859924316 7.9099884033203125 L13.73475456237793 7.531988143920898 L13.73475456237793 9.205987930297852 C13.649253845214844 9.289237976074219 13.563754081726074 9.372488021850586 13.478253364562988 9.455738067626953 L12.445504188537598 9.455738067626953 C12.360004425048828 9.372488021850586 12.274503707885742 9.289237976074219 12.189003944396973 9.205987930297852 L12.189003944396973 7.531988143920898"></path>
<path fill="none" stroke="black" stroke-width=".3" stroke-opacity="1.0"  filling="0" d="M12.405004501342773 7.531988143920898 L12.58725357055664 7.930238246917725 C12.544297218322754 7.9731950759887695 12.4495210647583 7.971575736999512 12.405004501342773 7.930238246917725 L12.405004501342773 7.531988143920898"></path>
<path fill="none" stroke="black" stroke-width=".3" stroke-opacity="1.0"  filling="0" d="M12.9450044631958 7.531988143920898 L13.012504577636719 7.977488040924072 C12.993210792541504 7.9890642166137695 12.964298248291016 7.9890642166137695 12.9450044631958 7.977488040924072 L12.9450044631958 7.531988143920898"></path>
<path fill="none" stroke="black" stroke-width=".3" stroke-opacity="1.0"  filling="0" d="M13.343254089355469 7.531988143920898 L13.518754005432129 7.9099884033203125 C13.494004249572754 7.936988353729248 13.469253540039062 7.963988304138184 13.444503784179688 7.990988254547119 L13.41750431060791 7.990988254547119 C13.392754554748535 7.963988304138184 13.368003845214844 7.936988353729248 13.343254089355469 7.9099884033203125 L13.343254089355469 7.531988143920898"></path>
<path fill="none" stroke="black" stroke-width=".3" stroke-opacity="1.0"  filling="0" d="M3.3682336807250977 8.064053535461426 L4.448233604431152 8.064053535461426 C4.600968837738037 8.216788291931152 4.600968837738037 8.559318542480469 4.448233604431152 8.712053298950195 L3.3682336807250977 8.712053298950195 C3.215498685836792 8.559318542480469 3.215498924255371 8.216788291931152 3.3682336807250977 8.064053535461426 L3.3682336807250977 8.064053535461426"></path>
<path fill="none" stroke="black" stroke-width=".3" stroke-opacity="1.0"  filling="0" d="M6.608233451843262 8.064053535461426 L7.688232898712158 8.064053535461426 C7.840968132019043 8.216788291931152 7.840968132019043 8.559318542480469 7.688232898712158 8.712053298950195 L6.608233451843262 8.712053298950195 C6.455498218536377 8.559318542480469 6.455498695373535 8.216788291931152 6.608233451843262 8.064053535461426 L6.608233451843262 8.064053535461426"></path>
<path fill="none" stroke="black" stroke-width=".3" stroke-opacity="1.0"  filling="0" d="M9.848233222961426 8.064053535461426 L10.928234100341797 8.064053535461426 C11.080968856811523 8.216788291931152 11.080968856811523 8.559318542480469 10.928234100341797 8.712053298950195 L9.848233222961426 8.712053298950195 C9.6954984664917 8.559318542480469 9.6954984664917 8.216788291931152 9.848233222961426 8.064053535461426 L9.848233222961426 8.064053535461426"></path>
<path fill="none" stroke="black" stroke-width=".3" stroke-opacity="1.0"  filling="0" d="M13.088233947753906 8.064053535461426 L14.168233871459961 8.064053535461426 C14.320968627929688 8.216788291931152 14.320968627929688 8.559318542480469 14.168233871459961 8.712053298950195 L13.088233947753906 8.712053298950195 C12.935498237609863 8.559318542480469 12.935498237609863 8.216788291931152 13.088233947753906 8.064053535461426 L13.088233947753906 8.064053535461426"></path>
<path fill="none" stroke="black" stroke-width=".3" stroke-opacity="1.0"  filling="0" d="M16.32823371887207 8.064053535461426 L17.408233642578125 8.064053535461426 C17.56096839904785 8.216788291931152 17.56096839904785 8.559318542480469 17.408233642578125 8.712053298950195 L16.32823371887207 8.712053298950195 C16.175498962402344 8.559318542480469 16.175498962402344 8.216788291931152 16.32823371887207 8.064053535461426 L16.32823371887207 8.064053535461426"></path>
<path fill="none" stroke="black" stroke-width=".3" stroke-opacity="1.0"  filling="0" d="M19.568235397338867 8.064053535461426 L20.648235321044922 8.064053535461426 C20.80097007751465 8.216788291931152 20.80097007751465 8.559318542480469 20.648235321044922 8.712053298950195 L19.568235397338867 8.712053298950195 C19.41550064086914 8.559318542480469 19.41550064086914 8.216788291931152 19.568235397338867 8.064053535461426 L19.568235397338867 8.064053535461426"></path>
<path fill="none" stroke="black" stroke-width=".3" stroke-opacity="1.0"  filling="0" d="M19.568235397338867 8.064053535461426 L20.648235321044922 8.064053535461426 C20.80097007751465 8.216788291931152 20.80097007751465 8.559318542480469 20.648235321044922 8.712053298950195 L19.568235397338867 8.712053298950195 C19.41550064086914 8.559318542480469 19.41550064086914 8.216788291931152 19.568235397338867 8.064053535461426 L19.568235397338867 8.064053535461426"></path>
<path fill="none" stroke="black" stroke-width=".3" stroke-opacity="1.0"  filling="0" d="M1.7484378814697266 9.038437843322754 L8.588438034057617 9.038437843322754 L15.428437232971191 9.038437843322754 L22.268436431884766 9.038437843322754 L22.268436431884766 9.249375343322754 L15.428437232971191 9.249375343322754 L8.588438034057617 9.249375343322754 L1.7484378814697266 9.249375343322754 L1.7484378814697266 9.038437843322754"></path>
<path fill="none" stroke="black" stroke-width=".3" stroke-opacity="1.0"  filling="0" d="M3.3682336807250977 9.792057037353516 L4.448233604431152 9.792057037353516 C4.600968837738037 9.944791793823242 4.600968837738037 10.287322998046875 4.448233604431152 10.440057754516602 L3.3682336807250977 10.440057754516602 C3.215498685836792 10.287322044372559 3.215498685836792 9.944792747497559 3.3682336807250977 9.792057037353516 L3.3682336807250977 9.792057037353516"></path>
<path fill="none" stroke="black" stroke-width=".3" stroke-opacity="1.0"  filling="0" d="M9.848233222961426 9.792057037353516 L10.928234100341797 9.792057037353516 C11.080968856811523 9.944792747497559 11.080968856811523 10.287322044372559 10.928234100341797 10.440057754516602 L9.848233222961426 10.440057754516602 C9.6954984664917 10.287322044372559 9.6954984664917 9.944792747497559 9.848233222961426 9.792057037353516 L9.848233222961426 9.792057037353516"></path>
<path fill="none" stroke="black" stroke-width=".3" stroke-opacity="1.0"  filling="0" d="M13.088233947753906 9.792059898376465 L14.168233871459961 9.792059898376465 C14.320968627929688 9.944795608520508 14.320968627929688 10.287324905395508 14.168233871459961 10.44006061553955 L13.088233947753906 10.44006061553955 C12.935498237609863 10.287325859069824 12.935498237609863 9.944794654846191 13.088233947753906 9.792059898376465 L13.088233947753906 9.792059898376465"></path>
<path fill="none" stroke="black" stroke-width=".3" stroke-opacity="1.0"  filling="0" d="M6.608233451843262 10.656057357788086 L7.688232898712158 10.656057357788086 C7.840968132019043 10.808792114257812 7.840968132019043 11.151322364807129 7.688232898712158 11.304057121276855 L6.608233451843262 11.304057121276855 C6.455498218536377 11.151322364807129 6.455498695373535 10.808792114257812 6.608233451843262 10.656057357788086 L6.608233451843262 10.656057357788086"></path>
<path fill="none" stroke="black" stroke-width=".3" stroke-opacity="1.0"  filling="0" d="M6.608233451843262 11.520055770874023 L7.688232898712158 11.520055770874023 C7.840968132019043 11.672791481018066 7.840968608856201 12.015321731567383 7.688232898712158 12.16805648803711 L6.608233451843262 12.16805648803711 C6.455498218536377 12.015321731567383 6.455498695373535 11.672791481018066 6.608233451843262 11.520055770874023 L6.608233451843262 11.520055770874023"></path>
<path fill="none" stroke="black" stroke-width=".3" stroke-opacity="1.0"  filling="0" d="M9.848233222961426 13.248054504394531 L10.928234100341797 13.248054504394531 C11.080968856811523 13.400790214538574 11.080968856811523 13.743319511413574 10.928234100341797 13.896055221557617 L9.848233222961426 13.896055221557617 C9.6954984664917 13.743319511413574 9.6954984664917 13.400790214538574 9.848233222961426 13.248054504394531 L9.848233222961426 13.248054504394531"></path>
<path fill="none" stroke="black" stroke-width=".3" stroke-opacity="1.0"  filling="0" d="M13.088233947753906 13.24805736541748 L14.168233871459961 13.24805736541748 C14.320968627929688 13.400792121887207 14.320968627929688 13.743322372436523 14.168233871459961 13.89605712890625 L13.088233947753906 13.89605712890625 C12.935498237609863 13.743322372436523 12.935498237609863 13.400792121887207 13.088233947753906 13.24805736541748 L13.088233947753906 13.24805736541748"></path>
<path fill="none" stroke="black" stroke-width=".3" stroke-opacity="1.0"  filling="0" d="M16.32823371887207 13.24805736541748 L17.408233642578125 13.24805736541748 C17.56096839904785 13.400792121887207 17.56096839904785 13.743322372436523 17.408233642578125 13.89605712890625 L16.32823371887207 13.89605712890625 C16.175498962402344 13.743322372436523 16.175498962402344 13.400792121887207 16.32823371887207 13.24805736541748 L16.32823371887207 13.24805736541748"></path>
<path fill="none" stroke="black" stroke-width=".3" stroke-opacity="1.0"  filling="0" d="M16.32823371887207 13.24805736541748 L17.408233642578125 13.24805736541748 C17.56096839904785 13.400792121887207 17.56096839904785 13.743322372436523 17.408233642578125 13.89605712890625 L16.32823371887207 13.89605712890625 C16.175498962402344 13.743322372436523 16.175498962402344 13.400792121887207 16.32823371887207 13.24805736541748 L16.32823371887207 13.24805736541748"></path>
<path fill="none" stroke="black" stroke-width=".3" stroke-opacity="1.0"  filling="0" d="M19.568235397338867 13.24805736541748 L20.648235321044922 13.24805736541748 C20.80097007751465 13.400792121887207 20.80097007751465 13.743322372436523 20.648235321044922 13.89605712890625 L19.568235397338867 13.89605712890625 C19.41550064086914 13.743322372436523 19.41550064086914 13.400792121887207 19.568235397338867 13.24805736541748 L19.568235397338867 13.24805736541748"></path>
<path fill="none" stroke="black" stroke-width=".3" stroke-opacity="1.0"  filling="0" d="M19.568235397338867 13.24805736541748 L20.648235321044922 13.24805736541748 C20.80097007751465 13.400792121887207 20.80097007751465 13.743322372436523 20.648235321044922 13.89605712890625 L19.568235397338867 13.89605712890625 C19.41550064086914 13.743322372436523 19.41550064086914 13.400792121887207 19.568235397338867 13.24805736541748 L19.568235397338867 13.24805736541748"></path>
<path fill="none" stroke="black" stroke-width=".3" stroke-opacity="1.0"  filling="0" d="M3.3682336807250977 14.112053871154785 L4.448233604431152 14.112053871154785 C4.600968837738037 14.264788627624512 4.600968837738037 14.607318878173828 4.448233604431152 14.760053634643555 L3.3682336807250977 14.760053634643555 C3.215498685836792 14.607318878173828 3.215498924255371 14.264788627624512 3.3682336807250977 14.112053871154785 L3.3682336807250977 14.112053871154785"></path>
<path fill="none" stroke="black" stroke-width=".3" stroke-opacity="1.0"  filling="0" d="M9.848233222961426 14.112053871154785 L10.928234100341797 14.112053871154785 C11.080968856811523 14.264788627624512 11.080968856811523 14.607318878173828 10.928234100341797 14.760053634643555 L9.848233222961426 14.760053634643555 C9.6954984664917 14.607318878173828 9.6954984664917 14.264788627624512 9.848233222961426 14.112053871154785 L9.848233222961426 14.112053871154785"></path>
<path fill="none" stroke="black" stroke-width=".3" stroke-opacity="1.0"  filling="0" d="M13.088233947753906 14.112056732177734 L14.168233871459961 14.112056732177734 C14.320968627929688 14.264791488647461 14.320968627929688 14.607321739196777 14.168233871459961 14.760056495666504 L13.088233947753906 14.760056495666504 C12.935498237609863 14.607321739196777 12.935498237609863 14.264791488647461 13.088233947753906 14.112056732177734 L13.088233947753906 14.112056732177734"></path>
<path fill="none" stroke="black" stroke-width=".3" stroke-opacity="1.0"  filling="0" d="M16.32823371887207 14.112056732177734 L17.408233642578125 14.112056732177734 C17.56096839904785 14.264791488647461 17.56096839904785 14.607321739196777 17.408233642578125 14.760056495666504 L16.32823371887207 14.760056495666504 C16.175498962402344 14.607321739196777 16.175498962402344 14.264791488647461 16.32823371887207 14.112056732177734 L16.32823371887207 14.112056732177734"></path>
<path fill="none" stroke="black" stroke-width=".3" stroke-opacity="1.0"  filling="0" d="M19.568235397338867 14.112056732177734 L20.648235321044922 14.112056732177734 C20.80097007751465 14.264791488647461 20.80097007751465 14.607321739196777 20.648235321044922 14.760056495666504 L19.568235397338867 14.760056495666504 C19.41550064086914 14.607321739196777 19.41550064086914 14.264791488647461 19.568235397338867 14.112056732177734 L19.568235397338867 14.112056732177734"></path>
<path fill="none" stroke="black" stroke-width=".3" stroke-opacity="1.0"  filling="0" d="M3.3682336807250977 14.976053237915039 L4.448233604431152 14.976053237915039 C4.600968837738037 15.128787994384766 4.600968837738037 15.471318244934082 4.448233604431152 15.624053001403809 L3.3682336807250977 15.624053001403809 C3.215498685836792 15.471318244934082 3.215498924255371 15.128787994384766 3.3682336807250977 14.976053237915039 L3.3682336807250977 14.976053237915039"></path>
<path fill="none" stroke="black" stroke-width=".3" stroke-opacity="1.0"  filling="0" d="M6.608233451843262 14.976053237915039 L7.688232898712158 14.976053237915039 C7.840968132019043 15.128787994384766 7.840968132019043 15.471318244934082 7.688232898712158 15.624053001403809 L6.608233451843262 15.624053001403809 C6.455498218536377 15.471318244934082 6.455498695373535 15.128787994384766 6.608233451843262 14.976053237915039 L6.608233451843262 14.976053237915039"></path>
<path fill="none" stroke="black" stroke-width=".3" stroke-opacity="1.0"  filling="0" d="M9.848233222961426 14.976053237915039 L10.928234100341797 14.976053237915039 C11.080968856811523 15.128787994384766 11.080968856811523 15.471318244934082 10.928234100341797 15.624053001403809 L9.848233222961426 15.624053001403809 C9.6954984664917 15.471318244934082 9.6954984664917 15.128787994384766 9.848233222961426 14.976053237915039 L9.848233222961426 14.976053237915039"></path>
<path fill="none" stroke="black" stroke-width=".3" stroke-opacity="1.0"  filling="0" d="M13.088233947753906 14.976055145263672 L14.168233871459961 14.976055145263672 C14.320969581604004 15.128789901733398 14.320968627929688 15.471321105957031 14.168233871459961 15.624056816101074 L13.088233947753906 15.624056816101074 C12.93549919128418 15.471321105957031 12.935498237609863 15.128789901733398 13.088233947753906 14.976055145263672 L13.088233947753906 14.976055145263672"></path>
<path fill="none" stroke="black" stroke-width=".3" stroke-opacity="1.0"  filling="0" d="M16.32823371887207 14.976055145263672 L17.408233642578125 14.976055145263672 C17.56096839904785 15.128790855407715 17.56096839904785 15.471321105957031 17.408233642578125 15.624056816101074 L16.32823371887207 15.624056816101074 C16.175498962402344 15.471321105957031 16.175498962402344 15.128790855407715 16.32823371887207 14.976055145263672 L16.32823371887207 14.976055145263672"></path>
<path fill="none" stroke="black" stroke-width=".3" stroke-opacity="1.0"  filling="0" d="M19.568235397338867 14.976055145263672 L20.648235321044922 14.976055145263672 C20.80097198486328 15.128789901733398 20.80097007751465 15.471321105957031 20.648235321044922 15.624056816101074 L19.568235397338867 15.624056816101074 C19.41550064086914 15.471321105957031 19.415498733520508 15.128789901733398 19.568235397338867 14.976055145263672 L19.568235397338867 14.976055145263672"></path>
<path fill="none" stroke="black" stroke-width=".3" stroke-opacity="1.0"  filling="0" d="M3.3682336807250977 15.840052604675293 L4.448233604431152 15.840052604675293 C4.600968837738037 15.99278736114502 4.600968360900879 16.335317611694336 4.448233604431152 16.488052368164062 L3.3682336807250977 16.488052368164062 C3.21549916267395 16.335317611694336 3.215498447418213 15.99278736114502 3.3682336807250977 15.840052604675293 L3.3682336807250977 15.840052604675293"></path>
<path fill="none" stroke="black" stroke-width=".3" stroke-opacity="1.0"  filling="0" d="M6.608233451843262 15.840052604675293 L7.688232898712158 15.840052604675293 C7.840968608856201 15.99278736114502 7.840967655181885 16.335317611694336 7.688232898712158 16.488052368164062 L6.608233451843262 16.488052368164062 C6.455498695373535 16.335317611694336 6.455498218536377 15.99278736114502 6.608233451843262 15.840052604675293 L6.608233451843262 15.840052604675293"></path>
<path fill="none" stroke="black" stroke-width=".3" stroke-opacity="1.0"  filling="0" d="M9.848233222961426 15.840052604675293 L10.928234100341797 15.840052604675293 C11.080968856811523 15.99278736114502 11.080968856811523 16.335317611694336 10.928234100341797 16.488052368164062 L9.848233222961426 16.488052368164062 C9.6954984664917 16.335317611694336 9.6954984664917 15.99278736114502 9.848233222961426 15.840052604675293 L9.848233222961426 15.840052604675293"></path>
<path fill="none" stroke="black" stroke-width=".3" stroke-opacity="1.0"  filling="0" d="M13.088233947753906 15.840054512023926 L14.168233871459961 15.840054512023926 C14.320969581604004 15.992790222167969 14.320969581604004 16.3353214263916 14.168233871459961 16.488056182861328 L13.088233947753906 16.488056182861328 C12.935498237609863 16.3353214263916 12.935498237609863 15.992790222167969 13.088233947753906 15.840054512023926 L13.088233947753906 15.840054512023926"></path>
<path fill="none" stroke="black" stroke-width=".3" stroke-opacity="1.0"  filling="0" d="M16.32823371887207 15.840054512023926 L17.408233642578125 15.840054512023926 C17.56096839904785 15.992790222167969 17.56096839904785 16.33531951904297 17.408233642578125 16.488056182861328 L16.32823371887207 16.488056182861328 C16.175498962402344 16.33531951904297 16.175498962402344 15.992790222167969 16.32823371887207 15.840054512023926 L16.32823371887207 15.840054512023926"></path>
<path fill="none" stroke="black" stroke-width=".3" stroke-opacity="1.0"  filling="0" d="M19.568235397338867 15.840054512023926 L20.648235321044922 15.840054512023926 C20.80097007751465 15.992790222167969 20.80097007751465 16.3353214263916 20.648235321044922 16.488056182861328 L19.568235397338867 16.488056182861328 C19.41550064086914 16.3353214263916 19.41550064086914 15.992790222167969 19.568235397338867 15.840054512023926 L19.568235397338867 15.840054512023926"></path>
<path fill="none" stroke="black" stroke-width=".3" stroke-opacity="1.0"  filling="0" d="M3.3682336807250977 16.704051971435547 L4.448233604431152 16.704051971435547 C4.600968360900879 16.856786727905273 4.600968360900879 17.199316024780273 4.448233604431152 17.35205078125 L3.3682336807250977 17.35205078125 C3.215498924255371 17.199316024780273 3.215498924255371 16.856786727905273 3.3682336807250977 16.704051971435547 L3.3682336807250977 16.704051971435547"></path>
<path fill="none" stroke="black" stroke-width=".3" stroke-opacity="1.0"  filling="0" d="M6.608233451843262 16.704051971435547 L7.688232898712158 16.704051971435547 C7.840968132019043 16.856786727905273 7.840968132019043 17.199316024780273 7.688232898712158 17.35205078125 L6.608233451843262 17.35205078125 C6.455498695373535 17.199316024780273 6.455498695373535 16.856786727905273 6.608233451843262 16.704051971435547 L6.608233451843262 16.704051971435547"></path>
<path fill="none" stroke="black" stroke-width=".3" stroke-opacity="1.0"  filling="0" d="M9.848233222961426 16.704051971435547 L10.928234100341797 16.704051971435547 C11.080968856811523 16.856786727905273 11.080968856811523 17.199316024780273 10.928234100341797 17.35205078125 L9.848233222961426 17.35205078125 C9.6954984664917 17.199316024780273 9.6954984664917 16.856786727905273 9.848233222961426 16.704051971435547 L9.848233222961426 16.704051971435547"></path>
<path fill="none" stroke="black" stroke-width=".3" stroke-opacity="1.0"  filling="0" d="M13.088233947753906 16.70405387878418 L14.168233871459961 16.70405387878418 C14.320969581604004 16.856788635253906 14.320968627929688 17.19931983947754 14.168233871459961 17.352054595947266 L13.088233947753906 17.352054595947266 C12.93549919128418 17.19931983947754 12.935498237609863 16.856788635253906 13.088233947753906 16.70405387878418 L13.088233947753906 16.70405387878418"></path>
<path fill="none" stroke="black" stroke-width=".3" stroke-opacity="1.0"  filling="0" d="M16.32823371887207 16.70405387878418 L17.408233642578125 16.70405387878418 C17.56096839904785 16.856788635253906 17.56096839904785 17.19931983947754 17.408233642578125 17.352054595947266 L16.32823371887207 17.352054595947266 C16.175498962402344 17.19931983947754 16.175498962402344 16.856788635253906 16.32823371887207 16.70405387878418 L16.32823371887207 16.70405387878418"></path>
<path fill="none" stroke="black" stroke-width=".3" stroke-opacity="1.0"  filling="0" d="M19.568235397338867 16.70405387878418 L20.648235321044922 16.70405387878418 C20.80097007751465 16.856788635253906 20.80097007751465 17.19931983947754 20.648235321044922 17.352054595947266 L19.568235397338867 17.352054595947266 C19.41550064086914 17.19931983947754 19.41550064086914 16.856788635253906 19.568235397338867 16.70405387878418 L19.568235397338867 16.70405387878418"></path></svg>