<svg xmlns="http://www.w3.org/2000/svg" viewBox="0.0 0.0 24.0 24.0" height="200px" width="200px"><path fill="none" stroke="black" stroke-width=".3" stroke-opacity="1.0"  filling="0" d="M-143.90652465820312 2011.100830078125 L-142.5319061279297 2011.48046875 C-142.474853515625 2011.5810546875 -142.52371215820312 2011.7578125 -142.6243133544922 2011.81494140625 L-143.99893188476562 2011.4349365234375 C-144.05593872070312 2011.33447265625 -144.00706481933594 2011.15771484375 -143.90652465820312 2011.100830078125 L-143.90652465820312 2011.100830078125"></path>
<path fill="none" stroke="black" stroke-width=".3" stroke-opacity="1.0"  filling="0" d="M-143.2654266357422 2011.4578857421875 L-143.2654266357422 2011.4578857421875 C-143.23406982421875 2011.51318359375 -143.20269775390625 2011.5684814453125 -143.1713409423828 2011.623779296875 L-143.3201904296875 2012.1624755859375 C-143.39840698242188 2012.206787109375 -143.53587341308594 2012.1689453125 -143.5802459716797 2012.0906982421875 L-143.431396484375 2011.5518798828125 C-143.37606811523438 2011.5205078125 -143.3207550048828 2011.4892578125 -143.2654266357422 2011.4578857421875 L-143.2654266357422 2011.4578857421875"></path>
<path fill="none" stroke="black" stroke-width=".3" stroke-opacity="1.0"  filling="0" d="M-141.83116149902344 2011.67431640625 L-140.45654296875 2012.053955078125 C-140.3994903564453 2012.154541015625 -140.44834899902344 2012.331298828125 -140.5489501953125 2012.388427734375 L-141.92356872558594 2012.0084228515625 C-141.9805908203125 2011.907958984375 -141.93170166015625 2011.731201171875 -141.83116149902344 2011.67431640625 L-141.83116149902344 2011.67431640625"></path>
<path fill="none" stroke="black" stroke-width=".3" stroke-opacity="1.0"  filling="0" d="M-143.7552490234375 2011.8489990234375 L-143.0459442138672 2012.044921875 C-142.98890686035156 2012.1455078125 -142.931884765625 2012.24609375 -142.87484741210938 2012.3466796875 L-144.4501495361328 2018.0474853515625 C-144.5507354736328 2018.1044921875 -144.6513214111328 2018.161376953125 -144.7519073486328 2018.2183837890625 L-145.46121215820312 2018.0225830078125 C-145.51824951171875 2017.9219970703125 -145.5752716064453 2017.8212890625 -145.63230895996094 2017.720703125 L-144.05699157714844 2012.0201416015625 C-143.95640563964844 2011.963134765625 -143.8558349609375 2011.906005859375 -143.7552490234375 2011.8489990234375 L-143.7552490234375 2011.8489990234375"></path>
<path fill="none" stroke="black" stroke-width=".3" stroke-opacity="1.0"  filling="0" d="M-141.17979431152344 2011.994140625 L-141.17979431152344 2011.994140625 C-141.1484375 2012.0494384765625 -141.1170654296875 2012.104736328125 -141.08570861816406 2012.1600341796875 L-141.23455810546875 2012.6988525390625 C-141.3128204345703 2012.7431640625 -141.45025634765625 2012.7052001953125 -141.49462890625 2012.626953125 L-141.34576416015625 2012.0882568359375 C-141.29043579101562 2012.056884765625 -141.23512268066406 2012.0255126953125 -141.17979431152344 2011.994140625 L-141.17979431152344 2011.994140625"></path>
<path fill="none" stroke="black" stroke-width=".3" stroke-opacity="1.0"  filling="0" d="M-139.7558135986328 2012.247802734375 L-138.38119506835938 2012.62744140625 C-138.32418823242188 2012.72802734375 -138.37295532226562 2012.9049072265625 -138.47360229492188 2012.9619140625 L-139.8482208251953 2012.5819091796875 C-139.90524291992188 2012.4814453125 -139.85635375976562 2012.3046875 -139.7558135986328 2012.247802734375 L-139.7558135986328 2012.247802734375"></path>
<path fill="none" stroke="black" stroke-width=".3" stroke-opacity="1.0"  filling="0" d="M-141.6798858642578 2012.4224853515625 L-140.9705810546875 2012.618408203125 C-140.91354370117188 2012.718994140625 -140.8565216064453 2012.819580078125 -140.7994842529297 2012.920166015625 L-142.3748016357422 2018.6209716796875 C-142.4753875732422 2018.677978515625 -142.57595825195312 2018.735107421875 -142.67654418945312 2018.7921142578125 L-143.38584899902344 2018.5960693359375 C-143.44288635253906 2018.4954833984375 -143.4999237060547 2018.394775390625 -143.5569610595703 2018.294189453125 L-141.9816436767578 2012.5936279296875 C-141.8810577392578 2012.53662109375 -141.7804718017578 2012.4794921875 -141.6798858642578 2012.4224853515625 L-141.6798858642578 2012.4224853515625"></path>
<path fill="none" stroke="black" stroke-width=".3" stroke-opacity="1.0"  filling="0" d="M-139.1044464111328 2012.567626953125 L-139.1044464111328 2012.567626953125 C-139.0730743408203 2012.6229248046875 -139.04171752929688 2012.67822265625 -139.01034545898438 2012.7335205078125 L-139.15921020507812 2013.2723388671875 C-139.2374725341797 2013.316650390625 -139.37489318847656 2013.2786865234375 -139.41928100585938 2013.200439453125 L-139.27040100097656 2012.6617431640625 C-139.215087890625 2012.63037109375 -139.15975952148438 2012.5989990234375 -139.1044464111328 2012.567626953125 L-139.1044464111328 2012.567626953125"></path>
<path fill="none" stroke="black" stroke-width=".3" stroke-opacity="1.0"  filling="0" d="M-139.60452270507812 2012.9959716796875 L-138.89523315429688 2013.19189453125 C-138.83819580078125 2013.29248046875 -138.7811737060547 2013.3931884765625 -138.72413635253906 2013.4937744140625 L-140.29942321777344 2019.1944580078125 C-140.4000244140625 2019.25146484375 -140.5006103515625 2019.30859375 -140.60121154785156 2019.3656005859375 L-141.3105010986328 2019.1695556640625 C-141.36753845214844 2019.0689697265625 -141.42457580566406 2018.96826171875 -141.4816131591797 2018.86767578125 L-139.9062957763672 2013.1671142578125 C-139.8057098388672 2013.110107421875 -139.70510864257812 2013.052978515625 -139.60452270507812 2012.9959716796875 L-139.60452270507812 2012.9959716796875"></path>
<path fill="none" stroke="black" stroke-width=".3" stroke-opacity="1.0"  filling="0" d="M-166.3767852783203 2102.1240234375 L-166.3767852783203 2102.1240234375 C-165.9573974609375 2102.372314453125 -165.5380096435547 2102.620849609375 -165.11862182617188 2102.869140625 L-158.7179412841797 2102.88330078125 L-152.3172607421875 2102.897705078125 L-145.91656494140625 2102.912109375 L-139.51588439941406 2102.92626953125 C-138.19857788085938 2101.593994140625 -137.5460968017578 2100.62109375 -136.98719787597656 2098.8359375 L-136.98719787597656 2098.8359375 C-136.89755249023438 2098.838134765625 -136.80789184570312 2098.84033203125 -136.71824645996094 2098.842529296875 L-136.71670532226562 2103.5654296875 L-136.7151641845703 2108.2880859375 C-136.806640625 2108.2890625 -136.89810180664062 2108.2900390625 -136.9895782470703 2108.291015625 L-136.9895782470703 2108.291015625 C-137.52249145507812 2106.443115234375 -138.15196228027344 2105.373779296875 -139.4639434814453 2103.96435546875 L-141.3170166015625 2103.966796875 C-140.5332794189453 2106.32275390625 -141.00270080566406 2107.543212890625 -143.45582580566406 2108.20849609375 L-150.81346130371094 2108.211181640625 L-158.1710968017578 2108.2138671875 C-160.62547302246094 2107.546142578125 -161.1041717529297 2106.325439453125 -160.31605529785156 2103.966064453125 L-164.995361328125 2103.963134765625 C-165.45497131347656 2104.3115234375 -165.91458129882812 2104.65966796875 -166.3741912841797 2105.008056640625 L-166.3768768310547 2102.126953125"></path>
<path fill="none" stroke="black" stroke-width=".3" stroke-opacity="1.0"  filling="0" d="M-144.44227600097656 2103.967041015625 L-143.2837371826172 2103.970947265625 C-141.4149932861328 2104.91943359375 -141.55528259277344 2106.356201171875 -143.4614715576172 2107.136474609375 L-144.39280700683594 2107.1337890625 C-144.06224060058594 2106.130859375 -144.09666442871094 2104.964111328125 -144.44227600097656 2103.96630859375 L-144.44227600097656 2103.96630859375"></path>
<path fill="none" stroke="black" stroke-width=".3" stroke-opacity="1.0"  filling="0" d="M-158.64683532714844 2104.030517578125 L-158.64683532714844 2104.030517578125 C-158.52053833007812 2104.00927734375 -158.39425659179688 2103.98779296875 -158.26795959472656 2103.966552734375 L-153.47235107421875 2103.96484375 L-148.6767578125 2103.96337890625 C-147.70619201660156 2103.985107421875 -146.20651245117188 2103.681884765625 -145.42727661132812 2104.4599609375 C-144.2967071533203 2105.589111328125 -145.2835693359375 2106.56884765625 -146.20620727539062 2107.1337890625 L-152.1925048828125 2107.13232421875 L-158.17880249023438 2107.130859375 C-159.9264373779297 2106.414306640625 -160.2545166015625 2105.157470703125 -158.6468505859375 2104.030517578125 L-158.6468505859375 2104.030517578125"></path></svg>