<svg xmlns="http://www.w3.org/2000/svg" viewBox="0.0 0.0 24.0 24.0" height="200px" width="200px"><path fill="none" stroke="black" stroke-width=".3" stroke-opacity="1.0"  filling="0" d="M13.095335960388184 1.6777925491333008 L17.708879470825195 6.291120529174805 L22.322423934936523 10.904448509216309 C22.616607666015625 11.614910125732422 22.6165714263916 12.500852584838867 22.322423934936523 13.211328506469727 L17.766551971435547 17.766983032226562 L13.21068000793457 22.32263946533203 C12.500244140625 22.616697311401367 11.614436149597168 22.61673355102539 10.90401554107666 22.32263946533203 L6.2909040451049805 17.709312438964844 L1.6777925491333008 13.09598445892334 C1.3835387229919434 12.38570785522461 1.383298635482788 11.499892234802246 1.6773605346679688 10.789535522460938 L6.232800006866455 6.233664035797119 L10.788239479064941 1.6777925491333008 C11.498771667480469 1.3835903406143188 12.384847640991211 1.3834843635559082 13.095335960388184 1.6777925491333008 L13.095335960388184 1.6777925491333008"></path>
<path fill="none" stroke="black" stroke-width=".3" stroke-opacity="1.0"  filling="0" d="M21.405933380126953 12.295055389404297 L16.85006332397461 16.850603103637695 L12.294191360473633 21.406150817871094 C12.148124694824219 21.46649169921875 11.966080665588379 21.466632843017578 11.820072174072266 21.406150817871094 L7.207067966461182 16.792823791503906 L2.5940637588500977 12.179495811462402 C2.533618211746216 12.033628463745117 2.5332727432250977 11.851712226867676 2.593632698059082 11.705808639526367 L7.1491804122924805 7.150044918060303 L11.704728126525879 2.5942811965942383 C11.850576400756836 2.533787488937378 12.032493591308594 2.5335352420806885 12.17841625213623 2.59384822845459 L16.79217529296875 7.20739221572876 L21.405933380126953 11.82093620300293 C21.4663028717041 11.966991424560547 21.466161727905273 12.148941993713379 21.405933380126953 12.295055389404297 L21.405933380126953 12.295055389404297"></path>
<path fill="none" stroke="black" stroke-width=".3" stroke-opacity="1.0"  filling="0" d="M12.647568702697754 13.178064346313477 L14.355263710021973 11.480951309204102 L15.268943786621094 12.399816513061523 L12.648000717163086 15.005424499511719 L12.648000717163086 17.399999618530273 L11.351999282836914 17.399999618530273 L11.351999282836914 13.250747680664062 L11.351999282836914 9.101495742797852 L10.11583137512207 9.557687759399414 C9.908965110778809 9.617402076721191 9.766647338867188 9.452527046203613 9.82271957397461 9.252695083618164 L11.790696144104004 5.9952006340026855 C11.993542671203613 5.809952735900879 12.001474380493164 5.8099365234375 12.20433521270752 5.9952006340026855 L14.172311782836914 9.252695083618164 C14.228385925292969 9.45252799987793 14.086066246032715 9.617402076721191 13.879199981689453 9.557687759399414 L12.647568702697754 9.103224754333496 L12.647568702697754 13.178064346313477"></path></svg>