<svg xmlns="http://www.w3.org/2000/svg" viewBox="0.0 0.0 24.0 24.0" height="200px" width="200px"><path fill="none" stroke="black" stroke-width=".3" stroke-opacity="1.0"  filling="0" d="M16.421249389648438 9.460312843322754 L16.421249389648438 9.460312843322754 C16.4971866607666 9.491250038146973 16.5731258392334 9.522188186645508 16.649063110351562 9.553125381469727 L18.522188186645508 11.493749618530273 C19.356693267822266 11.787841796875 20.920595169067383 11.954299926757812 21.340312957763672 12.776249885559082 L21.20531463623047 13.172812461853027 C21.0731258392334 13.240312576293945 20.94093894958496 13.307812690734863 20.80875015258789 13.375312805175781 L20.80875015258789 13.375312805175781 C19.79718017578125 13.040318489074707 18.66230583190918 12.821852684020996 17.771249771118164 12.227812767028809 L15.889686584472656 10.287187576293945 C15.892498970031738 10.1381254196167 15.895312309265137 9.989062309265137 15.898124694824219 9.84000015258789 L16.201875686645508 9.54468822479248 C16.274999618530273 9.516563415527344 16.348125457763672 9.48843765258789 16.421249389648438 9.460312843322754 L16.421249389648438 9.460312843322754"></path>
<path fill="none" stroke="black" stroke-width=".3" stroke-opacity="1.0"  filling="0" d="M17.22620391845703 10.180309295654297 L18.519149780273438 11.112397193908691 C18.478696823120117 11.23590087890625 18.43824577331543 11.359405517578125 18.39779281616211 11.482909202575684 L14.487506866455078 14.911567687988281 C14.35977554321289 14.935532569885254 14.232044219970703 14.959497451782227 14.104312896728516 14.9834623336792 L13.05695915222168 13.788989067077637 C13.097412109375 13.665484428405762 13.137866020202637 13.541980743408203 13.178318977355957 13.418476104736328 L16.80461883544922 10.240392684936523 C16.945146560668945 10.220364570617676 17.085676193237305 10.200337409973145 17.22620391845703 10.180309295654297 L17.22620391845703 10.180309295654297"></path>
<path fill="none" stroke="black" stroke-width=".3" stroke-opacity="1.0"  filling="0" d="M19.31954574584961 11.01648235321045 L19.31954574584961 11.01648235321045 C18.848371505737305 10.656218528747559 17.98444938659668 10.523605346679688 17.906023025512695 9.935689926147461 C17.78758430480957 9.04782772064209 20.075130462646484 7.165069580078125 20.40033721923828 9.602960586547852 C20.478763580322266 10.190876007080078 19.6798095703125 10.545308113098145 19.31954574584961 11.01648235321045 L19.31954574584961 11.01648235321045"></path>
<path fill="none" stroke="black" stroke-width=".3" stroke-opacity="1.0"  filling="0" d="M1.7944021224975586 12.946828842163086 L1.7944021224975586 12.946828842163086 C2.4837074279785156 13.055403709411621 3.0164384841918945 13.846430778503418 3.5360326766967773 14.137760162353516 C4.317380428314209 14.575850486755371 4.626574993133545 14.141752243041992 5.334731578826904 14.210997581481934 L5.684898853302002 14.326712608337402 L5.560303211212158 14.508949279785156 C5.41813325881958 14.802803039550781 5.275962829589844 15.096656799316406 5.133792877197266 15.390510559082031 L5.183577060699463 15.458911895751953 C5.901888847351074 15.664290428161621 6.623037338256836 15.637445449829102 6.7689619064331055 16.510984420776367 L6.7689619064331055 16.510984420776367 C6.428941249847412 16.307567596435547 6.106153964996338 16.07626724243164 5.78364896774292 15.846086502075195 L5.763957977294922 15.84300708770752 C5.350680828094482 15.767144203186035 5.179745674133301 15.755002975463867 4.961691856384277 15.393661499023438 L4.866577625274658 15.388771057128906 C4.840029716491699 15.781580924987793 4.813481330871582 16.17439079284668 4.786933422088623 16.567201614379883 L4.782011985778809 16.56644630432129 C4.823597431182861 16.69736671447754 4.910355567932129 16.757646560668945 5.032448768615723 16.80271339416504 L5.032448768615723 16.80271339416504 C3.862165927886963 17.173757553100586 4.480684757232666 15.30041790008545 4.526191711425781 15.082850456237793 L4.5852484703063965 14.996269226074219 C4.7476606369018555 14.804852485656738 4.910072326660156 14.613436698913574 5.072484493255615 14.422019958496094 L5.069406509399414 14.421533584594727 C4.864657878875732 14.621420860290527 4.659909248352051 14.821309089660645 4.455160617828369 15.021196365356445 L4.455160617828369 15.021196365356445 C4.278562545776367 15.079360008239746 4.069843769073486 14.882782936096191 3.9885597229003906 14.715561866760254 L3.9885597229003906 14.715561866760254 C4.184518337249756 14.659586906433105 4.380476474761963 14.603612899780273 4.576435089111328 14.547637939453125 L4.570571422576904 14.544824600219727 C4.360400676727295 14.565547943115234 4.150229454040527 14.586272239685059 3.940058708190918 14.606995582580566 L3.926058769226074 14.599746704101562 C3.456428050994873 14.337533950805664 2.988813877105713 14.068068504333496 2.5498666763305664 13.757208824157715 L2.5491104125976562 13.76213264465332 C2.1787052154541016 13.571537971496582 1.8298757076263428 13.337325096130371 1.5005569458007812 13.082226753234863 L1.5005569458007812 13.082226753234863 C1.5866621732711792 13.017295837402344 1.6868904829025269 12.955381393432617 1.7943944931030273 12.946836471557617 L1.7943944931030273 12.946836471557617"></path>
<path fill="none" stroke="black" stroke-width=".3" stroke-opacity="1.0"  filling="0" d="M22.690311431884766 13.544062614440918 L22.690311431884766 13.544062614440918 C22.729686737060547 13.558125495910645 22.769062042236328 13.572187423706055 22.80843734741211 13.586250305175781 L25.162498474121094 14.79281234741211 C25.980012893676758 15.139083862304688 27.637956619262695 15.448660850524902 27.997501373291016 16.311561584472656 L27.828750610351562 16.69968605041504 C27.693750381469727 16.755935668945312 27.55875015258789 16.81218719482422 27.423749923706055 16.868436813354492 L24.900936126708984 15.805312156677246 C24.09365463256836 15.403436660766602 22.48358154296875 15.0021390914917 22.192501068115234 14.092499732971191 L22.38656234741211 13.721250534057617 C22.487812042236328 13.662187576293945 22.589061737060547 13.60312557220459 22.690311431884766 13.544062614440918 L22.690311431884766 13.544062614440918"></path>
<path fill="none" stroke="black" stroke-width=".3" stroke-opacity="1.0"  filling="0" d="M13.603124618530273 15.459375381469727 L13.603124618530273 15.459375381469727 C13.901249885559082 15.408750534057617 14.199374198913574 15.358124732971191 14.497499465942383 15.307499885559082 L17.070938110351562 16.142812728881836 C17.138437271118164 16.274999618530273 17.2059383392334 16.407188415527344 17.2734375 16.53937530517578 L16.95281219482422 17.53499984741211 C16.82062530517578 17.60249900817871 16.68843650817871 17.670000076293945 16.556249618530273 17.737499237060547 L14.311875343322754 17.01187515258789 L11.29124927520752 19.188749313354492 C11.144999504089355 19.163436889648438 10.998749732971191 19.138124465942383 10.852499961853027 19.112812042236328 L10.244999885559082 18.269062042236328 C10.267499923706055 18.119998931884766 10.289999961853027 17.970937728881836 10.3125 17.821874618530273 L13.603124618530273 15.459375381469727"></path>
<path fill="none" stroke="black" stroke-width=".3" stroke-opacity="1.0"  filling="0" d="M8.549062728881836 15.763124465942383 L8.734687805175781 15.611250877380371 L9.224061965942383 16.125938415527344 L9.055312156677246 16.303125381469727 L8.549062728881836 15.763124465942383"></path>
<path fill="none" stroke="black" stroke-width=".3" stroke-opacity="1.0"  filling="0" d="M5.064374923706055 16.193435668945312 L5.23312520980835 16.024686813354492 L5.781562328338623 16.471874237060547 L5.638124942779541 16.665937423706055 L5.064374923706055 16.193435668945312"></path>
<path fill="none" stroke="black" stroke-width=".3" stroke-opacity="1.0"  filling="0" d="M9.232500076293945 16.471874237060547 L9.392812728881836 16.286251068115234 L9.958125114440918 16.725000381469727 L9.814687728881836 16.919063568115234 L9.232500076293945 16.471874237060547"></path>
<path fill="none" stroke="black" stroke-width=".3" stroke-opacity="1.0"  filling="0" d="M5.840624809265137 16.809375762939453 L5.975625038146973 16.606874465942383 L6.583125114440918 16.969688415527344 L6.473437309265137 17.180625915527344 L5.840624809265137 16.809375762939453"></path>
<path fill="none" stroke="black" stroke-width=".3" stroke-opacity="1.0"  filling="0" d="M10.025625228881836 17.054061889648438 L10.15218734741211 16.8515625 L10.768125534057617 17.214374542236328 L10.65843677520752 17.43375015258789 L10.025625228881836 17.054061889648438"></path>
<path fill="none" stroke="black" stroke-width=".3" stroke-opacity="1.0"  filling="0" d="M16.615310668945312 17.214374542236328 L16.615310668945312 17.214374542236328 C16.691247940063477 17.24250030517578 16.767187118530273 17.2706241607666 16.843124389648438 17.298749923706055 L17.610937118530273 18.00749969482422 C17.616561889648438 18.153749465942383 17.6221866607666 18.30000114440918 17.627811431884766 18.446250915527344 L16.395936965942383 19.787813186645508 L19.003124237060547 21.466873168945312 C19.034061431884766 21.613122940063477 19.064998626708984 21.759374618530273 19.095935821533203 21.905624389648438 L18.530624389648438 22.783126831054688 C18.384374618530273 22.816875457763672 18.238122940063477 22.85062599182129 18.091873168945312 22.884374618530273 L14.69156265258789 20.690624237060547 C14.646562576293945 20.2293758392334 14.6015625 19.768125534057617 14.556562423706055 19.30687713623047 L16.395936965942383 17.307188034057617 C16.46906089782715 17.2762508392334 16.542186737060547 17.245311737060547 16.615310668945312 17.214374542236328 L16.615310668945312 17.214374542236328"></path>
<path fill="none" stroke="black" stroke-width=".3" stroke-opacity="1.0"  filling="0" d="M6.692812442779541 17.298749923706055 L6.802500247955322 17.079374313354492 L7.4521870613098145 17.37468719482422 L7.367812156677246 17.59406280517578 L6.692812442779541 17.298749923706055"></path>
<path fill="none" stroke="black" stroke-width=".3" stroke-opacity="1.0"  filling="0" d="M10.877812385559082 17.54343605041504 L10.987500190734863 17.32406234741211 L11.637187957763672 17.610937118530273 L11.552812576293945 17.838748931884766 L10.877812385559082 17.54343605041504"></path>
<path fill="none" stroke="black" stroke-width=".3" stroke-opacity="1.0"  filling="0" d="M7.58718729019165 17.686874389648438 L7.679999828338623 17.459060668945312 L8.354999542236328 17.686874389648438 L8.287500381469727 17.914688110351562 L7.58718729019165 17.686874389648438"></path>
<path fill="none" stroke="black" stroke-width=".3" stroke-opacity="1.0"  filling="0" d="M11.780625343322754 17.923124313354492 L11.86500072479248 17.6953125 L12.539999961853027 17.914688110351562 L12.480937957763672 18.150938034057617 L11.780625343322754 17.923124313354492"></path>
<path fill="none" stroke="black" stroke-width=".3" stroke-opacity="1.0"  filling="0" d="M8.523750305175781 17.982187271118164 L8.582812309265137 17.75437355041504 L9.283124923706055 17.914688110351562 L9.232500076293945 18.150938034057617 L8.523750305175781 17.982187271118164"></path>
<path fill="none" stroke="black" stroke-width=".3" stroke-opacity="1.0"  filling="0" d="M9.477187156677246 18.201562881469727 L9.51937484741211 17.96531105041504 L10.228124618530273 18.075000762939453 L10.194375038146973 18.311250686645508 L9.477187156677246 18.201562881469727"></path>
<path fill="none" stroke="black" stroke-width=".3" stroke-opacity="1.0"  filling="0" d="M12.717187881469727 18.209999084472656 L13.020936965942383 18.041248321533203 L12.717187881469727 18.209999084472656"></path>
<path fill="none" stroke="black" stroke-width=".3" stroke-opacity="1.0"  filling="0" d="M10.439062118530273 18.344999313354492 L10.47281265258789 18.108749389648438 L11.190000534057617 18.16781234741211 L11.164687156677246 18.404062271118164 L10.439062118530273 18.344999313354492"></path>
<path fill="none" stroke="black" stroke-width=".3" stroke-opacity="1.0"  filling="0" d="M11.41781234741211 18.420936584472656 L11.41781234741211 18.17624855041504 L12.143437385559082 18.193124771118164 L12.143437385559082 18.43781280517578 L11.41781234741211 18.420936584472656"></path></svg>