<svg xmlns="http://www.w3.org/2000/svg" viewBox="0.0 0.0 24.0 24.0" height="200px" width="200px"><path fill="none" stroke="black" stroke-width=".3" stroke-opacity="1.0"  filling="0" d="M10.036028861999512 1.3620977401733398 L10.035813331604004 4.304055213928223 L5.9241623878479 4.304055213928223 L5.9241623878479 1.3620977401733398 L10.036028861999512 1.3620977401733398"></path>
<path fill="none" stroke="black" stroke-width=".3" stroke-opacity="1.0"  filling="0" d="M18.085561752319336 1.3620977401733398 L18.085561752319336 4.304055213928223 L13.97088623046875 4.304055213928223 L13.97088623046875 1.3620977401733398 L18.085561752319336 1.3620977401733398"></path>
<path fill="none" stroke="black" stroke-width=".3" stroke-opacity="1.0"  filling="0" d="M13.056442260742188 5.237734317779541 L13.056442260742188 9.013520240783691 L13.056442260742188 12.789305686950684 L10.926916122436523 12.789305686950684 L10.926916122436523 9.013520240783691 L10.926916122436523 5.237734317779541 L13.056442260742188 5.237734317779541"></path>
<path fill="none" stroke="black" stroke-width=".3" stroke-opacity="1.0"  filling="0" d="M14.675252914428711 14.057554244995117 L14.675252914428711 14.057554244995117 C14.44046401977539 13.82269287109375 14.20567512512207 13.5878324508667 13.97088623046875 13.352971076965332 L13.97088623046875 9.288976669311523 L13.97088623046875 5.224983215332031 L20.182235717773438 5.224983215332031 L21.491117477416992 10.7698974609375 L22.799999237060547 16.31481170654297 L22.786598205566406 21.933319091796875 C22.55829429626465 22.161624908447266 22.329988479614258 22.389928817749023 22.1016845703125 22.618234634399414 L16.064102172851562 22.618234634399414 C15.835797309875488 22.389928817749023 15.607492446899414 22.161624908447266 15.37918758392334 21.933319091796875 L15.37918758392334 17.995437622070312 L15.37918758392334 14.057554244995117 L14.723665237426758 14.057554244995117"></path>
<path fill="none" stroke="black" stroke-width=".3" stroke-opacity="1.0"  filling="0" d="M9.259692192077637 14.073980331420898 L8.614328384399414 14.073980331420898 L8.614328384399414 18.013484954833984 L8.614328384399414 21.952987670898438 C8.383790016174316 22.181293487548828 8.153251647949219 22.409597396850586 7.922713756561279 22.637903213500977 L1.8849153518676758 22.637903213500977 C1.6566104888916016 22.409597396850586 1.4283056259155273 22.181293487548828 1.2000007629394531 21.952987670898438 L1.1870317459106445 16.328428268432617 L2.4991555213928223 10.7830810546875 L3.811279296875 5.237734317779541 L10.016362190246582 5.237734317779541 L10.016362190246582 9.30518627166748 L10.016362190246582 13.372638702392578 C9.781573295593262 13.606419563293457 9.546784400939941 13.84019947052002 9.311995506286621 14.073980331420898 L9.311995506286621 14.073980331420898"></path></svg>