<svg xmlns="http://www.w3.org/2000/svg" viewBox="0.0 0.0 24.0 24.0" height="200px" width="200px"><path fill="none" stroke="black" stroke-width=".3" stroke-opacity="1.0"  filling="0" d="M11.471419334411621 7.203526973724365 L11.471419334411621 7.203526973724365 C12.619316101074219 7.203526973724365 11.485512733459473 9.148628234863281 12.193669319152832 9.674026489257812 L12.193669319152832 9.674026489257812 C12.953646659851074 7.517037391662598 13.675422668457031 7.910557746887207 14.974668502807617 9.498527526855469 L14.974668502807617 9.498527526855469 C15.574834823608398 9.198444366455078 16.37433624267578 9.390737533569336 16.979419708251953 9.680777549743652 L16.979419708251953 9.680777549743652 C16.965919494628906 9.701026916503906 16.95241928100586 9.721277236938477 16.938919067382812 9.74152660369873 L16.938919067382812 9.74152660369873 C17.573381423950195 10.023510932922363 17.86800765991211 9.964365005493164 18.012168884277344 10.565027236938477 L18.012168884277344 10.565027236938477 C18.538715362548828 10.706341743469238 21.227155685424805 10.929336547851562 20.96866798400879 11.834027290344238 L20.96866798400879 11.834027290344238 C21.772071838378906 12.280362129211426 22.923673629760742 14.341165542602539 21.299419403076172 14.567777633666992 C19.705787658691406 14.790117263793945 17.977188110351562 14.847973823547363 16.365169525146484 14.912027359008789 L16.365169525146484 14.912027359008789 C15.281246185302734 15.339890480041504 13.206791877746582 15.153078079223633 12.092418670654297 14.770277976989746 L12.092418670654297 14.770277976989746 C11.415969848632812 14.729277610778809 11.304162979125977 14.244349479675293 11.181169509887695 13.697027206420898 L11.181169509887695 13.697027206420898 C11.047486305236816 13.700846672058105 10.908239364624023 13.722914695739746 10.789669036865234 13.78477668762207 L10.789669036865234 13.78477668762207 C10.742419242858887 13.75102710723877 10.695169448852539 13.717277526855469 10.647919654846191 13.683527946472168 L10.647919654846191 13.683527946472168 C10.566919326782227 13.708277702331543 10.485918998718262 13.733028411865234 10.404918670654297 13.75777816772461 L10.404918670654297 13.75777816772461 C10.407169342041016 13.72177791595459 10.409419059753418 13.68577766418457 10.411669731140137 13.64977741241455 L10.411669731140137 13.64977741241455 C10.23902416229248 13.667394638061523 10.060640335083008 13.6936674118042 9.90541934967041 13.77127742767334 L9.90541934967041 13.77127742767334 C9.891919136047363 13.742027282714844 9.878418922424316 13.712778091430664 9.86491870880127 13.683527946472168 L9.86491870880127 13.683527946472168 C9.550086975097656 13.656540870666504 9.337925910949707 13.6339750289917 9.034668922424316 13.737526893615723 L9.034668922424316 13.737526893615723 C8.980669021606445 13.701526641845703 8.926669120788574 13.66552734375 8.872669219970703 13.62952709197998 L8.872669219970703 13.62952709197998 C8.837796211242676 13.703633308410645 8.715699195861816 13.717580795288086 8.636419296264648 13.697027206420898 L8.636419296264648 13.697027206420898 C8.63866901397705 13.663277626037598 8.640918731689453 13.62952709197998 8.643168449401855 13.59577751159668 L8.643168449401855 13.59577751159668 C8.468547821044922 13.610329627990723 8.289100646972656 13.636737823486328 8.130168914794922 13.710526466369629 L8.130168914794922 13.710526466369629 C8.118919372558594 13.67902660369873 8.10766887664795 13.647526741027832 8.096419334411621 13.616026878356934 L8.096419334411621 13.616026878356934 C7.820453643798828 13.593344688415527 7.537688255310059 13.588723182678223 7.26616907119751 13.643026351928711 L7.26616907119751 13.643026351928711 C7.212169170379639 13.611526489257812 7.158168792724609 13.580026626586914 7.104168891906738 13.548526763916016 L7.104168891906738 13.548526763916016 C7.097418785095215 13.586776733398438 7.09066915512085 13.62502670288086 7.083919048309326 13.663276672363281 L7.083919048309326 13.663276672363281 C7.016418933868408 13.64527702331543 6.948919296264648 13.627277374267578 6.8814191818237305 13.609277725219727 L6.8814191818237305 13.609277725219727 C6.879169464111328 13.577777862548828 6.876919269561768 13.54627799987793 6.874669551849365 13.514778137207031 L6.874669551849365 13.514778137207031 C6.703004837036133 13.514778137207031 6.525691509246826 13.540471076965332 6.368419170379639 13.609277725219727 L6.368419170379639 13.609277725219727 C6.359419345855713 13.58002758026123 6.350419044494629 13.550777435302734 6.341419219970703 13.521527290344238 L6.341419219970703 13.521527290344238 C6.061675071716309 13.491687774658203 5.772429466247559 13.481329917907715 5.497669219970703 13.541776657104492 L5.497669219970703 13.541776657104492 C5.450418949127197 13.505777359008789 5.40316915512085 13.46977710723877 5.355918884277344 13.433777809143066 L5.355918884277344 13.433777809143066 C5.346919059753418 13.472027778625488 5.337919235229492 13.510276794433594 5.328919410705566 13.548526763916016 L5.328919410705566 13.548526763916016 C5.245370864868164 13.527640342712402 5.136577606201172 13.489583015441895 5.112919330596924 13.406776428222656 L5.112919330596924 13.406776428222656 C4.937758445739746 13.398815155029297 4.754584789276123 13.41929817199707 4.59316873550415 13.487777709960938 L4.59316873550415 13.487777709960938 C4.590919017791748 13.454028129577637 4.5886688232421875 13.42027759552002 4.586419105529785 13.386528015136719 L4.586419105529785 13.386528015136719 C4.304476737976074 13.356849670410156 4.015858173370361 13.341736793518066 3.7359189987182617 13.386528015136719 L3.7359189987182617 13.386528015136719 C3.6864187717437744 13.352777481079102 3.636918783187866 13.3190279006958 3.587418556213379 13.285277366638184 L3.587418556213379 13.285277366638184 C3.582918882369995 13.321277618408203 3.5784189701080322 13.357276916503906 3.5739192962646484 13.393277168273926 L3.5739192962646484 13.393277168273926 C3.499669075012207 13.346027374267578 3.4254188537597656 13.29877758026123 3.351168632507324 13.251527786254883 L3.351168632507324 13.251527786254883 C3.183868169784546 13.23957633972168 3.014796495437622 13.273268699645996 2.8516693115234375 13.312277793884277 L2.8516693115234375 13.312277793884277 C2.59270977973938 13.100400924682617 2.2050516605377197 13.130030632019043 1.872920036315918 13.089527130126953 L1.872920036315918 13.089527130126953 C1.886419653892517 13.064777374267578 1.8999191522598267 13.040027618408203 1.9134187698364258 13.015277862548828 L1.9134187698364258 13.015277862548828 C1.8886690139770508 12.981528282165527 1.8639192581176758 12.94777774810791 1.8391695022583008 12.91402816772461 L1.8391695022583008 12.91402816772461 C1.8031692504882812 12.934277534484863 1.7671689987182617 12.954527854919434 1.7311687469482422 12.974777221679688 L1.7311687469482422 12.974777221679688 C1.6929187774658203 12.916276931762695 1.6546688079833984 12.857776641845703 1.6164188385009766 12.799276351928711 L1.6164188385009766 12.799276351928711 C1.6411689519882202 12.767776489257812 1.6659189462661743 12.736276626586914 1.690669059753418 12.704776763916016 L1.690669059753418 12.704776763916016 C1.5985727310180664 12.512212753295898 1.5464035272598267 12.302633285522461 1.4881677627563477 12.09727668762207 L1.4881677627563477 12.09727668762207 C1.5219179391860962 12.09727668762207 1.5556682348251343 12.09727668762207 1.5894184112548828 12.09727668762207 L1.5894184112548828 12.09727668762207 C1.6141685247421265 12.068026542663574 1.6389185190200806 12.038777351379395 1.6636686325073242 12.009527206420898 L1.6636686325073242 12.009527206420898 C1.6344188451766968 11.99152660369873 1.6051689386367798 11.973526954650879 1.5759191513061523 11.955526351928711 L1.5759191513061523 11.955526351928711 C1.6096690893173218 11.897027015686035 1.6434189081192017 11.83852767944336 1.677168846130371 11.780028343200684 L1.677168846130371 11.780028343200684 C1.7221689224243164 11.78902816772461 1.7671689987182617 11.798027038574219 1.812169075012207 11.807026863098145 L1.812169075012207 11.807026863098145 C1.9327691793441772 11.64004135131836 2.117450714111328 11.529056549072266 2.28466796875 11.408777236938477 L2.28466796875 11.408777236938477 C2.293668508529663 11.43577766418457 2.302668809890747 11.462777137756348 2.31166934967041 11.489777565002441 L2.31166934967041 11.489777565002441 C2.3521690368652344 11.494277000427246 2.3926687240600586 11.498777389526367 2.433168411254883 11.503276824951172 L2.433168411254883 11.503276824951172 C2.4421684741973877 11.467277526855469 2.4511687755584717 11.43127727508545 2.4601688385009766 11.395277976989746 L2.4601688385009766 11.395277976989746 C2.5276689529418945 11.397527694702148 2.5951690673828125 11.39977741241455 2.6626691818237305 11.402027130126953 L2.6626691818237305 11.402027130126953 C2.6626691818237305 11.435776710510254 2.6626691818237305 11.469527244567871 2.6626691818237305 11.503276824951172 L2.6626691818237305 11.503276824951172 C2.84173583984375 11.497681617736816 3.0188417434692383 11.45081901550293 3.189168930053711 11.395277976989746 L3.189168930053711 11.395277976989746 C3.2004191875457764 11.422277450561523 3.2116692066192627 11.449277877807617 3.222919464111328 11.476277351379395 L3.222919464111328 11.476277351379395 C3.2679195404052734 11.45152759552002 3.3129196166992188 11.426776885986328 3.357919692993164 11.402027130126953 L3.357919692993164 11.402027130126953 C3.4276692867279053 11.408777236938477 3.4974186420440674 11.41552734375 3.5671682357788086 11.422277450561523 L3.5671682357788086 11.422277450561523 C3.5671682357788086 11.45152759552002 3.5671682357788086 11.480777740478516 3.5671682357788086 11.510027885437012 L3.5671682357788086 11.510027885437012 C3.7363932132720947 11.490501403808594 3.911590337753296 11.472517967224121 4.066669464111328 11.402027130126953 L4.066669464111328 11.402027130126953 C4.118419647216797 11.433526992797852 4.170169353485107 11.465027809143066 4.221919536590576 11.496527671813965 L4.221919536590576 11.496527671813965 C4.228669166564941 11.462778091430664 4.235418796539307 11.429027557373047 4.242168426513672 11.395277976989746 L4.242168426513672 11.395277976989746 C4.31191873550415 11.404277801513672 4.381669044494629 11.413277626037598 4.451419353485107 11.422277450561523 L4.451419353485107 11.422277450561523 C4.449169158935547 11.456027030944824 4.446918964385986 11.489777565002441 4.444668769836426 11.523527145385742 L4.444668769836426 11.523527145385742 C4.613024711608887 11.508222579956055 4.788366794586182 11.501378059387207 4.944169521331787 11.43577766418457 L4.944169521331787 11.43577766418457 C4.99034309387207 11.478873252868652 5.086759090423584 11.492117881774902 5.133169174194336 11.4492769241333 L5.133169174194336 11.4492769241333 C5.198419094085693 11.48527717590332 5.263669490814209 11.52127742767334 5.328919410705566 11.55727767944336 L5.328919410705566 11.55727767944336 C5.501417636871338 11.561385154724121 5.681779384613037 11.52829647064209 5.835169315338135 11.4492769241333 L5.835169315338135 11.4492769241333 C5.846419334411621 11.483026504516602 5.857669353485107 11.516777038574219 5.868919372558594 11.55052661895752 L5.868919372558594 11.55052661895752 C5.907169342041016 11.548276901245117 5.945418834686279 11.546027183532715 5.983668804168701 11.543777465820312 L5.983668804168701 11.543777465820312 C5.9949188232421875 11.510027885437012 6.006168842315674 11.476277351379395 6.01741886138916 11.442527770996094 L6.01741886138916 11.442527770996094 C6.0871686935424805 11.458277702331543 6.156919002532959 11.474027633666992 6.226668834686279 11.489777565002441 L6.226668834686279 11.489777565002441 C6.2176690101623535 11.525777816772461 6.2086687088012695 11.561777114868164 6.199668884277344 11.597777366638184 L6.199668884277344 11.597777366638184 C6.373499393463135 11.593734741210938 6.550892353057861 11.567007064819336 6.712669372558594 11.503276824951172 L6.712669372558594 11.503276824951172 C6.759919166564941 11.537027359008789 6.807169437408447 11.57077693939209 6.854419231414795 11.604527473449707 L6.854419231414795 11.604527473449707 C6.870169162750244 11.575277328491211 6.885919094085693 11.546027183532715 6.901669025421143 11.516777038574219 L6.901669025421143 11.516777038574219 C6.9669189453125 11.528026580810547 7.032168865203857 11.539277076721191 7.097418785095215 11.55052661895752 L7.097418785095215 11.624777793884277 C7.266420841217041 11.628801345825195 7.442042827606201 11.604785919189453 7.596919059753418 11.537027359008789 L7.596919059753418 11.537027359008789 C7.646419048309326 11.573027610778809 7.695919036865234 11.609026908874512 7.745419025421143 11.645027160644531 L7.745419025421143 11.645027160644531 C7.754418849945068 11.609026908874512 7.763419151306152 11.573027610778809 7.772418975830078 11.537027359008789 L7.772418975830078 11.537027359008789 C7.842168807983398 11.548276901245117 7.911919116973877 11.559527397155762 7.981668949127197 11.57077693939209 L7.981668949127197 11.57077693939209 C7.977169036865234 11.609026908874512 7.9726691246032715 11.647276878356934 7.968169212341309 11.685526847839355 L7.968169212341309 11.685526847839355 C8.139389038085938 11.689508438110352 8.317511558532715 11.666423797607422 8.474418640136719 11.597777366638184 L8.474418640136719 11.597777366638184 C8.521668434143066 11.6315279006958 8.56891918182373 11.665277481079102 8.616168975830078 11.699028015136719 L8.616168975830078 11.699028015136719 C8.631918907165527 11.674278259277344 8.647669792175293 11.649527549743652 8.663419723510742 11.624777793884277 L8.663419723510742 11.624777793884277 C8.728669166564941 11.633777618408203 8.793919563293457 11.642777442932129 8.859169006347656 11.651777267456055 L8.859169006347656 11.651777267456055 C8.861418724060059 11.678777694702148 8.863669395446777 11.705778121948242 8.86591911315918 11.732778549194336 L8.86591911315918 11.732778549194336 C9.035603523254395 11.741055488586426 9.214394569396973 11.709328651428223 9.365418434143066 11.6315279006958 L9.365418434143066 11.6315279006958 C9.414918899536133 11.674277305603027 9.4644193649292 11.71702766418457 9.513919830322266 11.759777069091797 L9.513919830322266 11.759777069091797 C9.527420043945312 11.721527099609375 9.540919303894043 11.683277130126953 9.55441951751709 11.645027160644531 L9.55441951751709 11.645027160644531 C9.617419242858887 11.665277481079102 9.680419921875 11.685526847839355 9.743419647216797 11.705777168273926 L9.743419647216797 11.807026863098145 C9.91167163848877 11.812126159667969 10.081367492675781 11.780061721801758 10.242919921875 11.732778549194336 L10.242919921875 11.732778549194336 C10.29241943359375 11.768777847290039 10.341919898986816 11.804778099060059 10.391419410705566 11.840777397155762 L10.391419410705566 11.840777397155762 C10.402668952941895 11.809277534484863 10.413919448852539 11.777777671813965 10.425168991088867 11.746277809143066 L10.425168991088867 11.746277809143066 C10.490419387817383 11.762027740478516 10.555668830871582 11.777777671813965 10.620919227600098 11.793527603149414 L10.620919227600098 11.793527603149414 C10.6231689453125 11.820528030395508 10.625419616699219 11.847527503967285 10.627669334411621 11.874527931213379 L10.627669334411621 11.874527931213379 C10.807896614074707 11.867852210998535 10.988506317138672 11.861449241638184 11.167669296264648 11.840777397155762 L11.167669296264648 11.840777397155762 C11.262168884277344 11.498777389526367 11.356669425964355 11.156777381896973 11.45116901397705 10.814777374267578 L11.45116901397705 10.814777374267578 C10.4869966506958 9.906230926513672 10.191683769226074 7.784026622772217 11.471419334411621 7.203526973724365 L11.471419334411621 7.203526973724365"></path>
<path fill="none" stroke="black" stroke-width=".3" stroke-opacity="1.0"  filling="0" d="M11.5321683883667 8.08102798461914 L11.55241870880127 8.594027519226074 L11.113669395446777 8.695277214050293 L11.10016918182373 8.162027359008789 L11.5321683883667 8.08102798461914"></path>
<path fill="none" stroke="black" stroke-width=".3" stroke-opacity="1.0"  filling="0" d="M13.428919792175293 8.627777099609375 L13.428919792175293 8.627777099609375 C13.732669830322266 8.996777534484863 14.036419868469238 9.365777015686035 14.340169906616211 9.734777450561523 L14.340169906616211 9.734777450561523 C13.838419914245605 9.809027671813965 13.336668968200684 9.88327693939209 12.834918975830078 9.957527160644531 L12.834918975830078 9.957527160644531 C12.95596981048584 9.487398147583008 13.024989128112793 8.897062301635742 13.428919792175293 8.627777099609375 L13.428919792175293 8.627777099609375"></path>
<path fill="none" stroke="black" stroke-width=".3" stroke-opacity="1.0"  filling="0" d="M11.538919448852539 8.857277870178223 L11.5321683883667 9.228527069091797 L11.113669395446777 9.363527297973633 L11.10016918182373 8.965277671813965 L11.538919448852539 8.857277870178223"></path>
<path fill="none" stroke="black" stroke-width=".3" stroke-opacity="1.0"  filling="0" d="M15.386419296264648 10.349027633666992 L15.386419296264648 10.349027633666992 C15.93766975402832 10.594277381896973 16.488920211791992 10.839527130126953 17.040170669555664 11.084776878356934 L16.89167022705078 11.476277351379395 L16.135669708251953 11.219778060913086 L15.95341968536377 11.894777297973633 L15.514668464660645 11.699028015136719 L15.912919998168945 11.132026672363281 L15.224418640136719 10.76752758026123 L15.386419296264648 10.349027633666992"></path>
<path fill="none" stroke="black" stroke-width=".3" stroke-opacity="1.0"  filling="0" d="M19.50391960144043 12.144526481628418 L19.50391960144043 12.144526481628418 C19.798669815063477 12.257026672363281 20.091638565063477 12.374307632446289 20.388168334960938 12.482027053833008 C20.64297103881836 12.574588775634766 20.91811180114746 12.61837100982666 21.15766716003418 12.745278358459473 C21.603429794311523 12.981425285339355 21.917451858520508 14.091935157775879 21.177921295166016 14.129027366638184 C19.938562393188477 14.19118881225586 17.6738224029541 14.112519264221191 18.41716957092285 12.367277145385742 L18.41716957092285 12.367277145385742 C18.716197967529297 12.534476280212402 19.02493667602539 12.699472427368164 19.274417877197266 12.934277534484863 L19.274417877197266 12.934277534484863 C19.35091781616211 12.671027183532715 19.427419662475586 12.407776832580566 19.50391960144043 12.144526481628418 L19.50391960144043 12.144526481628418"></path>
<path fill="none" stroke="black" stroke-width=".3" stroke-opacity="1.0"  filling="0" d="M3.6076698303222656 12.198527336120605 L3.6076698303222656 12.198527336120605 C4.080690860748291 12.687317848205566 3.1232142448425293 12.68298053741455 3.6076698303222656 12.198527336120605 L3.6076698303222656 12.198527336120605"></path>
<path fill="none" stroke="black" stroke-width=".3" stroke-opacity="1.0"  filling="0" d="M13.017168998718262 12.245777130126953 L13.590919494628906 12.245777130126953 C13.568419456481934 12.311027526855469 13.545919418334961 12.376276969909668 13.523419380187988 12.441527366638184 L12.956418991088867 12.441527366638184 C12.976669311523438 12.376276969909668 12.996918678283691 12.311027526855469 13.017168998718262 12.245777130126953 L13.017168998718262 12.245777130126953"></path>
<path fill="none" stroke="black" stroke-width=".3" stroke-opacity="1.0"  filling="0" d="M16.095169067382812 12.374028205871582 L16.50691795349121 12.374028205871582 L16.095169067382812 12.374028205871582"></path>
<path fill="none" stroke="black" stroke-width=".3" stroke-opacity="1.0"  filling="0" d="M16.594669342041016 12.374028205871582 L16.95241928100586 12.374028205871582 L16.58116912841797 12.45502758026123 C16.585668563842773 12.437027931213379 16.59016990661621 12.419027328491211 16.594669342041016 12.40102767944336 L16.594669342041016 12.374028205871582"></path>
<path fill="none" stroke="black" stroke-width=".3" stroke-opacity="1.0"  filling="0" d="M12.942919731140137 12.488777160644531 L13.509919166564941 12.488777160644531 C13.498669624328613 12.554027557373047 13.487419128417969 12.619277000427246 13.47616958618164 12.684527397155762 L12.915919303894043 12.684527397155762 C12.911418914794922 12.68227767944336 12.906919479370117 12.68002700805664 12.902419090270996 12.677777290344238 L12.902419090270996 12.677777290344238 C12.915919303894043 12.614777565002441 12.92941951751709 12.551776885986328 12.942919731140137 12.488777160644531 L12.942919731140137 12.488777160644531"></path>
<path fill="none" stroke="black" stroke-width=".3" stroke-opacity="1.0"  filling="0" d="M16.020919799804688 12.563027381896973 L16.432668685913086 12.563027381896973 L16.020919799804688 12.563027381896973"></path>
<path fill="none" stroke="black" stroke-width=".3" stroke-opacity="1.0"  filling="0" d="M16.540668487548828 12.563027381896973 L16.884920120239258 12.563027381896973 L16.540668487548828 12.563027381896973"></path>
<path fill="none" stroke="black" stroke-width=".3" stroke-opacity="1.0"  filling="0" d="M12.895668983459473 12.73177719116211 L13.4694185256958 12.73177719116211 C13.462668418884277 12.797027587890625 13.45591926574707 12.862277030944824 13.449169158935547 12.92752742767334 L12.882168769836426 12.92752742767334 C12.879919052124023 12.925277709960938 12.877669334411621 12.923027038574219 12.875419616699219 12.920777320861816 L12.875419616699219 12.920777320861816 C12.882169723510742 12.85777759552002 12.88891887664795 12.794776916503906 12.895668983459473 12.73177719116211 L12.895668983459473 12.73177719116211"></path>
<path fill="none" stroke="black" stroke-width=".3" stroke-opacity="1.0"  filling="0" d="M15.946670532226562 12.758777618408203 L16.35841941833496 12.758777618408203 L15.946670532226562 12.758777618408203"></path>
<path fill="none" stroke="black" stroke-width=".3" stroke-opacity="1.0"  filling="0" d="M16.466419219970703 12.758777618408203 L16.803918838500977 12.758777618408203 L16.466419219970703 12.758777618408203"></path>
<path fill="none" stroke="black" stroke-width=".3" stroke-opacity="1.0"  filling="0" d="M15.865668296813965 12.968027114868164 L16.27741813659668 12.968027114868164 L15.865668296813965 12.968027114868164"></path>
<path fill="none" stroke="black" stroke-width=".3" stroke-opacity="1.0"  filling="0" d="M16.385419845581055 12.968027114868164 L16.722919464111328 12.968027114868164 L16.385419845581055 12.968027114868164"></path>
<path fill="none" stroke="black" stroke-width=".3" stroke-opacity="1.0"  filling="0" d="M12.875419616699219 12.974777221679688 L13.449169158935547 12.974777221679688 C13.44602108001709 13.037738800048828 13.442419052124023 13.100737571716309 13.442419052124023 13.163777351379395 L12.868669509887695 13.163777351379395 C12.868669509887695 13.100737571716309 12.872106552124023 13.03773021697998 12.875419616699219 12.974777221679688 L12.875419616699219 12.974777221679688"></path>
<path fill="none" stroke="black" stroke-width=".3" stroke-opacity="1.0"  filling="0" d="M15.77791976928711 13.190776824951172 L16.189668655395508 13.190776824951172 L15.77791976928711 13.190776824951172"></path>
<path fill="none" stroke="black" stroke-width=".3" stroke-opacity="1.0"  filling="0" d="M16.29766845703125 13.190776824951172 L16.641918182373047 13.190776824951172 L16.29766845703125 13.190776824951172"></path>
<path fill="none" stroke="black" stroke-width=".3" stroke-opacity="1.0"  filling="0" d="M12.875419616699219 13.217778205871582 L13.449169158935547 13.217778205871582 C13.453669548034668 13.280777931213379 13.458168983459473 13.34377670288086 13.462669372558594 13.406776428222656 L12.88891887664795 13.406776428222656 C12.884419441223145 13.34377670288086 12.879919052124023 13.280777931213379 12.875419616699219 13.217778205871582 L12.875419616699219 13.217778205871582"></path>
<path fill="none" stroke="black" stroke-width=".3" stroke-opacity="1.0"  filling="0" d="M17.526168823242188 13.332527160644531 L17.526168823242188 13.332527160644531 C17.577919006347656 13.341526985168457 17.629669189453125 13.3505277633667 17.681419372558594 13.359527587890625 L17.181917190551758 14.210027694702148 C17.06069564819336 13.920148849487305 17.30548858642578 13.556188583374023 17.526168823242188 13.332527160644531 L17.526168823242188 13.332527160644531"></path>
<path fill="none" stroke="black" stroke-width=".3" stroke-opacity="1.0"  filling="0" d="M15.696918487548828 13.406776428222656 L16.10866928100586 13.406776428222656 L15.696918487548828 13.406776428222656"></path>
<path fill="none" stroke="black" stroke-width=".3" stroke-opacity="1.0"  filling="0" d="M16.2166690826416 13.406776428222656 L16.5609188079834 13.406776428222656 L16.2166690826416 13.406776428222656"></path>
<path fill="none" stroke="black" stroke-width=".3" stroke-opacity="1.0"  filling="0" d="M12.895668983459473 13.460777282714844 L13.462669372558594 13.460777282714844 C13.473919868469238 13.52377700805664 13.485169410705566 13.586777687072754 13.496419906616211 13.64977741241455 L12.922669410705566 13.64977741241455 C12.91366958618164 13.586777687072754 12.904668807983398 13.52377700805664 12.895668983459473 13.460777282714844 L12.895668983459473 13.460777282714844"></path>
<path fill="none" stroke="black" stroke-width=".3" stroke-opacity="1.0"  filling="0" d="M17.877168655395508 13.474276542663574 L17.877168655395508 13.474276542663574 C18.0405216217041 13.875238418579102 17.97098159790039 14.437699317932129 17.36417007446289 14.311277389526367 L17.877168655395508 13.474276542663574"></path>
<path fill="none" stroke="black" stroke-width=".3" stroke-opacity="1.0"  filling="0" d="M15.615920066833496 13.616026878356934 L16.02766990661621 13.616026878356934 L15.615920066833496 13.616026878356934"></path>
<path fill="none" stroke="black" stroke-width=".3" stroke-opacity="1.0"  filling="0" d="M16.135669708251953 13.616026878356934 L16.47991943359375 13.616026878356934 L16.135669708251953 13.616026878356934"></path>
<path fill="none" stroke="black" stroke-width=".3" stroke-opacity="1.0"  filling="0" d="M12.936168670654297 13.703777313232422 L13.509919166564941 13.703777313232422 C13.527918815612793 13.769027709960938 13.545919418334961 13.834277153015137 13.563919067382812 13.899527549743652 L12.996918678283691 13.899527549743652 C12.976668357849121 13.834277153015137 12.956418991088867 13.769027709960938 12.936168670654297 13.703777313232422 L12.936168670654297 13.703777313232422"></path>
<path fill="none" stroke="black" stroke-width=".3" stroke-opacity="1.0"  filling="0" d="M15.528167724609375 13.845527648925781 L15.939918518066406 13.845527648925781 L15.528167724609375 13.845527648925781"></path>
<path fill="none" stroke="black" stroke-width=".3" stroke-opacity="1.0"  filling="0" d="M16.04792022705078 13.845527648925781 L16.392169952392578 13.845527648925781 L16.04792022705078 13.845527648925781"></path>
<path fill="none" stroke="black" stroke-width=".3" stroke-opacity="1.0"  filling="0" d="M15.44041919708252 14.068277359008789 L15.858920097351074 14.068277359008789 L15.44041919708252 14.068277359008789"></path>
<path fill="none" stroke="black" stroke-width=".3" stroke-opacity="1.0"  filling="0" d="M15.960169792175293 14.068277359008789 L16.304418563842773 14.068277359008789 L15.960169792175293 14.068277359008789"></path></svg>