<svg xmlns="http://www.w3.org/2000/svg" viewBox="0.0 0.0 24.0 24.0" height="200px" width="200px"><path fill="none" stroke="black" stroke-width=".3" stroke-opacity="1.0"  filling="0" d="M19.008441925048828 13.67745590209961 L19.008441925048828 13.67745590209961 C19.58684539794922 13.916685104370117 20.300764083862305 13.952840805053711 20.74365234375 14.395143508911133 C21.865819931030273 15.515830039978027 21.559078216552734 16.943588256835938 20.6916561126709 17.81088638305664 C19.824234008789062 18.67818832397461 18.396133422851562 18.985031127929688 17.275583267211914 17.863887786865234 C16.832971572875977 17.42104148864746 16.64344596862793 16.748533248901367 16.557058334350586 16.128408432006836 C16.500307083129883 15.721028327941895 16.763986587524414 15.332231521606445 16.867450714111328 14.93414306640625 L13.155922889709473 12.274319648742676 L13.155922889709473 17.035390853881836 L13.155922889709473 21.796463012695312 C12.8214111328125 22.1309757232666 12.625458717346191 22.799999237060547 12.152387619018555 22.799999237060547 C11.679265022277832 22.799999237060547 11.483219146728516 22.1309757232666 11.148634910583496 21.796463012695312 L11.148634910583496 17.01217269897461 L11.148634910583496 12.227880477905273 L7.18438720703125 14.954231262207031 C7.706289768218994 17.170455932617188 5.523381233215332 20.049795150756836 3.2555909156799316 17.782806396484375 C1.5047091245651245 16.032543182373047 3.064145565032959 13.950568199157715 4.990908145904541 13.595376014709473 C5.73534631729126 13.458141326904297 6.277557373046875 14.015042304992676 6.795587539672852 14.389822959899902 L11.149283409118652 11.394984245300293 L11.149283409118652 11.0485200881958 C11.367227554321289 10.737768173217773 11.585171699523926 10.42701530456543 11.803115844726562 10.116263389587402 L11.803115844726562 6.07965612411499 C11.302274703979492 5.80905294418335 10.674125671386719 5.697429180145264 10.300592422485352 5.267847061157227 C8.956595420837402 3.7221813201904297 10.050158500671387 1.2000333070755005 12.143962860107422 1.2000007629394531 C14.238423347473145 1.1999682188034058 15.335722923278809 3.7203540802001953 13.990087509155273 5.268063068389893 C13.616628646850586 5.697604179382324 12.988585472106934 5.809268951416016 12.487834930419922 6.079872131347656 L12.487834930419922 10.112808227539062 C12.710602760314941 10.424783706665039 12.933371543884277 10.736760139465332 13.156139373779297 11.048735618591309 L13.156139373779297 11.431703567504883 L17.28217124938965 14.38809585571289 C17.857595443725586 14.151215553283691 18.43301773071289 13.914336204528809 19.008441925048828 13.67745590209961 L19.008441925048828 13.67745590209961"></path></svg>