<svg xmlns="http://www.w3.org/2000/svg" viewBox="0.0 0.0 24.0 24.0" height="200px" width="200px"><path fill="none" stroke="black" stroke-width=".3" stroke-opacity="1.0"  filling="0" d="M1.2248401641845703 1.685135841369629 L1.2248401641845703 1.685135841369629 C3.1056549549102783 1.0054036378860474 4.499573707580566 1.3418326377868652 5.635446548461914 2.2172532081604004 C6.771319389343262 3.0926737785339355 7.64914608001709 4.507085800170898 8.49777603149414 5.983320236206055 L9.95923137664795 7.648248195648193 C11.555744171142578 9.134600639343262 13.032535552978516 10.703775405883789 14.454117774963379 12.323816299438477 C15.875700950622559 13.943857192993164 17.242074966430664 15.614763259887695 18.617753982543945 17.304580688476562 C20.036333084106445 19.047094345092773 21.711650848388672 20.807472229003906 22.793304443359375 22.792438507080078 L22.790063858032227 22.796974182128906 C20.97077178955078 21.506786346435547 19.393634796142578 19.760738372802734 17.800085067749023 18.213970184326172 C16.22679901123047 16.686870574951172 14.703340530395508 15.17431640625 13.245152473449707 13.60400104522705 C11.786964416503906 12.033685684204102 10.394046783447266 10.405609130859375 9.081840515136719 8.64746379852295 L7.620168209075928 6.982968330383301 C5.919276714324951 6.802102088928223 5.17946720123291 5.545588970184326 4.435369491577148 4.300319671630859 C3.6912713050842285 3.0550503730773926 2.942885160446167 1.8210251331329346 1.2248401641845703 1.685135841369629 L1.2248401641845703 1.685135841369629"></path></svg>