<svg xmlns="http://www.w3.org/2000/svg" viewBox="0.0 0.0 24.0 24.0" height="200px" width="200px"><path fill="none" stroke="black" stroke-width=".3" stroke-opacity="1.0"  filling="0" d="M19.438610076904297 6.948192119598389 L19.804729461669922 6.990744113922119 L19.623502731323242 7.171968460083008 L19.438610076904297 6.948192119598389"></path>
<path fill="none" stroke="black" stroke-width=".3" stroke-opacity="1.0"  filling="0" d="M19.946855545043945 6.948192119598389 L19.946855545043945 6.948192119598389"></path>
<path fill="none" stroke="black" stroke-width=".3" stroke-opacity="1.0"  filling="0" d="M19.314191818237305 7.061808109283447 L19.499088287353516 7.238927841186523 L19.314191818237305 7.061808109283447"></path>
<path fill="none" stroke="black" stroke-width=".3" stroke-opacity="1.0"  filling="0" d="M19.196903228759766 7.1508002281188965 L19.196903228759766 7.1508002281188965"></path>
<path fill="none" stroke="black" stroke-width=".3" stroke-opacity="1.0"  filling="0" d="M21.232271194458008 7.291416168212891 L21.232271194458008 7.291416168212891 C20.273372650146484 7.32233190536499 21.150653839111328 6.420562744140625 21.232271194458008 7.291416168212891 L21.232271194458008 7.291416168212891"></path>
<path fill="none" stroke="black" stroke-width=".3" stroke-opacity="1.0"  filling="0" d="M20.362873077392578 7.327272415161133 L20.362873077392578 7.327272415161133 C20.139728546142578 7.550412178039551 20.139728546142578 7.104131698608398 20.362873077392578 7.327272415161133 L20.362873077392578 7.327272415161133"></path>
<path fill="none" stroke="black" stroke-width=".3" stroke-opacity="1.0"  filling="0" d="M20.064144134521484 7.448232173919678 L20.064144134521484 7.448232173919678 C19.84111785888672 7.6717705726623535 19.84111785888672 7.22469425201416 20.064144134521484 7.448232173919678 L20.064144134521484 7.448232173919678"></path>
<path fill="none" stroke="black" stroke-width=".3" stroke-opacity="1.0"  filling="0" d="M19.762176513671875 7.622328281402588 L19.762176513671875 7.622328281402588 C19.539031982421875 7.8454694747924805 19.539031982421875 7.3991875648498535 19.762176513671875 7.622328281402588 L19.762176513671875 7.622328281402588"></path>
<path fill="none" stroke="black" stroke-width=".3" stroke-opacity="1.0"  filling="0" d="M19.459991455078125 7.842648029327393 L19.459991455078125 7.842648029327393 C19.236848831176758 8.065791130065918 19.236848831176758 7.619505882263184 19.459991455078125 7.842648029327393 L19.459991455078125 7.842648029327393"></path>
<path fill="none" stroke="black" stroke-width=".3" stroke-opacity="1.0"  filling="0" d="M19.196903228759766 8.032512664794922 L19.196903228759766 8.032512664794922 C18.97372055053711 8.2551851272583 18.97386360168457 7.809471607208252 19.196903228759766 8.032512664794922 L19.196903228759766 8.032512664794922"></path>
<path fill="none" stroke="black" stroke-width=".3" stroke-opacity="1.0"  filling="0" d="M17.995512008666992 8.073768615722656 L17.995512008666992 8.073768615722656 C17.772327423095703 8.296445846557617 17.772470474243164 7.8507256507873535 17.995512008666992 8.073768615722656 L17.995512008666992 8.073768615722656"></path>
<path fill="none" stroke="black" stroke-width=".3" stroke-opacity="1.0"  filling="0" d="M18.927766799926758 8.23728084564209 L18.927766799926758 8.23728084564209 C18.704727172851562 8.460325241088867 18.704586029052734 8.014599800109863 18.927766799926758 8.23728084564209 L18.927766799926758 8.23728084564209"></path>
<path fill="none" stroke="black" stroke-width=".3" stroke-opacity="1.0"  filling="0" d="M17.77151870727539 8.290632247924805 L17.77151870727539 8.290632247924805 C17.548337936401367 8.513309478759766 17.548480987548828 8.067590713500977 17.77151870727539 8.290632247924805 L17.77151870727539 8.290632247924805"></path>
<path fill="none" stroke="black" stroke-width=".3" stroke-opacity="1.0"  filling="0" d="M18.663814544677734 8.454143524169922 L18.663814544677734 8.454143524169922 C18.440776824951172 8.677186965942383 18.44063377380371 8.231467247009277 18.663814544677734 8.454143524169922 L18.663814544677734 8.454143524169922"></path>
<path fill="none" stroke="black" stroke-width=".3" stroke-opacity="1.0"  filling="0" d="M17.515560150146484 8.53384780883789 L17.515560150146484 8.53384780883789 C17.292518615722656 8.756889343261719 17.292375564575195 8.311173439025879 17.515560150146484 8.53384780883789 L17.515560150146484 8.53384780883789"></path>
<path fill="none" stroke="black" stroke-width=".3" stroke-opacity="1.0"  filling="0" d="M18.404184341430664 8.676839828491211 L18.404184341430664 8.676839828491211 C18.181102752685547 8.899410247802734 18.181100845336914 8.454268455505371 18.404184341430664 8.676839828491211 L18.404184341430664 8.676839828491211"></path>
<path fill="none" stroke="black" stroke-width=".3" stroke-opacity="1.0"  filling="0" d="M17.28789710998535 8.771663665771484 L17.28789710998535 8.771663665771484 C17.064855575561523 8.994707107543945 17.064712524414062 8.548989295959473 17.28789710998535 8.771663665771484 L17.28789710998535 8.771663665771484"></path>
<path fill="none" stroke="black" stroke-width=".3" stroke-opacity="1.0"  filling="0" d="M18.137638092041016 8.916383743286133 L18.137638092041016 8.916383743286133 C17.914459228515625 9.139060974121094 17.914600372314453 8.693342208862305 18.137638092041016 8.916383743286133 L18.137638092041016 8.916383743286133"></path>
<path fill="none" stroke="black" stroke-width=".3" stroke-opacity="1.0"  filling="0" d="M17.073623657226562 8.985072135925293 L17.073623657226562 8.985072135925293 C16.850440979003906 9.20775032043457 16.850584030151367 8.762024879455566 17.073623657226562 8.985072135925293 L17.073623657226562 8.985072135925293"></path>
<path fill="none" stroke="black" stroke-width=".3" stroke-opacity="1.0"  filling="0" d="M17.900470733642578 9.122447967529297 L17.900470733642578 9.122447967529297 C17.677433013916016 9.345490455627441 17.677289962768555 8.899771690368652 17.900470733642578 9.122447967529297 L17.900470733642578 9.122447967529297"></path>
<path fill="none" stroke="black" stroke-width=".3" stroke-opacity="1.0"  filling="0" d="M16.842504501342773 9.207768440246582 L16.842504501342773 9.207768440246582 C16.619600296020508 9.430671691894531 16.61974334716797 8.9844970703125 16.842504501342773 9.207768440246582 L16.842504501342773 9.207768440246582"></path>
<path fill="none" stroke="black" stroke-width=".3" stroke-opacity="1.0"  filling="0" d="M17.67647933959961 9.346440315246582 L17.67647933959961 9.346440315246582 C17.453411102294922 9.569506645202637 17.453554153442383 9.123006820678711 17.67647933959961 9.346440315246582 L17.67647933959961 9.346440315246582"></path>
<path fill="none" stroke="black" stroke-width=".3" stroke-opacity="1.0"  filling="0" d="M16.623262405395508 9.441047668457031 L16.623262405395508 9.441047668457031 C16.40050506591797 9.664316177368164 16.40036392211914 9.218146324157715 16.623262405395508 9.441047668457031 L16.623262405395508 9.441047668457031"></path>
<path fill="none" stroke="black" stroke-width=".3" stroke-opacity="1.0"  filling="0" d="M17.42073631286621 9.567840576171875 L17.42073631286621 9.567840576171875 C17.197694778442383 9.790878295898438 17.197553634643555 9.345169067382812 17.42073631286621 9.567840576171875 L17.42073631286621 9.567840576171875"></path>
<path fill="none" stroke="black" stroke-width=".3" stroke-opacity="1.0"  filling="0" d="M16.408992767333984 9.662879943847656 L16.408992767333984 9.662879943847656 C16.185810089111328 9.885551452636719 16.185951232910156 9.43984317779541 16.408992767333984 9.662879943847656 L16.408992767333984 9.662879943847656"></path>
<path fill="none" stroke="black" stroke-width=".3" stroke-opacity="1.0"  filling="0" d="M17.193073272705078 9.819047927856445 L17.193073272705078 9.819047927856445 C16.97031021118164 10.042313575744629 16.970169067382812 9.596148490905762 17.193073272705078 9.819047927856445 L17.193073272705078 9.819047927856445"></path>
<path fill="none" stroke="black" stroke-width=".3" stroke-opacity="1.0"  filling="0" d="M16.178951263427734 9.890111923217773 L16.178951263427734 9.890111923217773 C15.956192970275879 10.11337947845459 15.956050872802734 9.667211532592773 16.178951263427734 9.890111923217773 L16.178951263427734 9.890111923217773"></path>
<path fill="none" stroke="black" stroke-width=".3" stroke-opacity="1.0"  filling="0" d="M16.937328338623047 10.041959762573242 L16.937328338623047 10.041959762573242 C16.71428871154785 10.265000343322754 16.71414566040039 9.819286346435547 16.937328338623047 10.041959762573242 L16.937328338623047 10.041959762573242"></path>
<path fill="none" stroke="black" stroke-width=".3" stroke-opacity="1.0"  filling="0" d="M15.935304641723633 10.128576278686523 L15.935304641723633 10.128576278686523 C15.708942413330078 10.354933738708496 15.708943367004395 9.902215003967285 15.935304641723633 10.128576278686523 L15.935304641723633 10.128576278686523"></path>
<path fill="none" stroke="black" stroke-width=".3" stroke-opacity="1.0"  filling="0" d="M17.69548797607422 10.193592071533203 L18.956279754638672 9.492239952087402 C19.13008689880371 9.700752258300781 19.303895950317383 9.909263610839844 19.477703094482422 10.117775917053223 L19.477703094482422 10.117775917053223 C19.32607078552246 9.877583503723145 19.174440383911133 9.637392044067383 19.022808074951172 9.397199630737305 L20.3118953704834 8.553719520568848 C20.573400497436523 8.587057113647461 20.812973022460938 8.855815887451172 20.87112045288086 9.112943649291992 L20.87112045288086 9.112943649291992 C20.085039138793945 10.455389976501465 18.762666702270508 11.542999267578125 17.64926528930664 12.610847473144531 L17.64926528930664 12.610847473144531 C16.780555725097656 13.395363807678223 15.895393371582031 14.161866188049316 14.998727798461914 14.91427230834961 L14.998727798461914 14.91427230834961 C14.284272193908691 15.281435012817383 13.448686599731445 15.433103561401367 12.645408630371094 15.433103561401367 L12.645408630371094 15.433103561401367 C14.325626373291016 14.08303451538086 17.326791763305664 12.490966796875 17.69548797607422 10.193592071533203 L17.69548797607422 10.193592071533203"></path>
<path fill="none" stroke="black" stroke-width=".3" stroke-opacity="1.0"  filling="0" d="M17.69548797607422 10.193592071533203 L18.956279754638672 9.492239952087402 C19.13008689880371 9.700752258300781 19.303895950317383 9.909263610839844 19.477703094482422 10.117775917053223 L19.477703094482422 10.117775917053223 C19.32607078552246 9.877583503723145 19.174440383911133 9.637392044067383 19.022808074951172 9.397199630737305 L20.3118953704834 8.553719520568848 C20.573400497436523 8.587057113647461 20.812973022460938 8.855815887451172 20.87112045288086 9.112943649291992 L20.87112045288086 9.112943649291992 C20.085039138793945 10.455389976501465 18.762666702270508 11.542999267578125 17.64926528930664 12.610847473144531 L17.64926528930664 12.610847473144531 C16.780555725097656 13.395363807678223 15.895393371582031 14.161866188049316 14.998727798461914 14.91427230834961 L14.998727798461914 14.91427230834961 C14.284272193908691 15.281435012817383 13.448686599731445 15.433103561401367 12.645408630371094 15.433103561401367 L12.645408630371094 15.433103561401367 C14.325626373291016 14.08303451538086 17.326791763305664 12.490966796875 17.69548797607422 10.193592071533203 L17.69548797607422 10.193592071533203"></path>
<path fill="none" stroke="black" stroke-width=".3" stroke-opacity="1.0"  filling="0" d="M16.69432830810547 10.291872024536133 L16.69432830810547 10.291872024536133 C16.47128677368164 10.514908790588379 16.471145629882812 10.06920051574707 16.69432830810547 10.291872024536133 L16.69432830810547 10.291872024536133"></path>
<path fill="none" stroke="black" stroke-width=".3" stroke-opacity="1.0"  filling="0" d="M15.742847442626953 10.345224380493164 L15.742847442626953 10.345224380493164 C15.497666358947754 10.590405464172363 15.497668266296387 10.100040435791016 15.742847442626953 10.345224380493164 L15.742847442626953 10.345224380493164"></path>
<path fill="none" stroke="black" stroke-width=".3" stroke-opacity="1.0"  filling="0" d="M13.485647201538086 10.51111125946045 L13.599479675292969 11.165376663208008 L13.940760612487793 10.596431732177734 C14.509334564208984 11.582657814025879 12.726795196533203 11.59479808807373 13.485647201538086 10.51111125946045 L13.485647201538086 10.51111125946045"></path>
<path fill="none" stroke="black" stroke-width=".3" stroke-opacity="1.0"  filling="0" d="M16.427783966064453 10.522992134094238 L16.427783966064453 10.522992134094238 C16.204601287841797 10.745664596557617 16.204744338989258 10.299951553344727 16.427783966064453 10.522992134094238 L16.427783966064453 10.522992134094238"></path>
<path fill="none" stroke="black" stroke-width=".3" stroke-opacity="1.0"  filling="0" d="M7.845240116119385 10.767072677612305 L8.281559944152832 10.814592361450195 C8.935502052307129 11.874678611755371 7.3070173263549805 11.799559593200684 7.845240116119385 10.767072677612305 L7.845240116119385 10.767072677612305"></path>
<path fill="none" stroke="black" stroke-width=".3" stroke-opacity="1.0"  filling="0" d="M16.20379066467285 10.775279998779297 L16.20379066467285 10.775279998779297 C15.980865478515625 10.998717308044434 15.980722427368164 10.552207946777344 16.20379066467285 10.775279998779297 L16.20379066467285 10.775279998779297"></path>
<path fill="none" stroke="black" stroke-width=".3" stroke-opacity="1.0"  filling="0" d="M16.20379066467285 10.775279998779297 L16.20379066467285 10.775279998779297 C15.980865478515625 10.998717308044434 15.980722427368164 10.552207946777344 16.20379066467285 10.775279998779297 L16.20379066467285 10.775279998779297"></path>
<path fill="none" stroke="black" stroke-width=".3" stroke-opacity="1.0"  filling="0" d="M13.11585521697998 10.814592361450195 L12.82425594329834 11.705592155456543 L12.902664184570312 11.089344024658203 L12.532872200012207 11.364312171936035 L12.532872200012207 11.065799713134766 L13.11585521697998 10.814592361450195"></path>
<path fill="none" stroke="black" stroke-width=".3" stroke-opacity="1.0"  filling="0" d="M16.7476806640625 10.904448509216309 L17.629175186157227 10.307208061218262 C17.493310928344727 10.64848804473877 17.35744857788086 10.989768028259277 17.22158432006836 11.331048011779785 L16.766687393188477 11.331048011779785 L16.7476806640625 10.904448509216309"></path>
<path fill="none" stroke="black" stroke-width=".3" stroke-opacity="1.0"  filling="0" d="M16.7476806640625 10.904448509216309 L17.629175186157227 10.307208061218262 C17.493310928344727 10.64848804473877 17.35744857788086 10.989768028259277 17.22158432006836 11.331048011779785 L16.766687393188477 11.331048011779785 L16.7476806640625 10.904448509216309"></path>
<path fill="none" stroke="black" stroke-width=".3" stroke-opacity="1.0"  filling="0" d="M15.995137214660645 11.007479667663574 L15.995137214660645 11.007479667663574 C15.772377967834473 11.230746269226074 15.772234916687012 10.784582138061523 15.995137214660645 11.007479667663574 L15.995137214660645 11.007479667663574"></path>
<path fill="none" stroke="black" stroke-width=".3" stroke-opacity="1.0"  filling="0" d="M8.101415634155273 11.1178560256958 L8.101415634155273 11.421119689941406 L7.793400287628174 11.402112007141113 L8.101415634155273 11.1178560256958"></path>
<path fill="none" stroke="black" stroke-width=".3" stroke-opacity="1.0"  filling="0" d="M7.4616241455078125 11.212679862976074 L7.262472152709961 12.037367820739746 L7.328999996185303 11.421119689941406 L7.00651216506958 11.658287048339844 L6.9630961418151855 11.42846393585205 L7.4616241455078125 11.212679862976074"></path>
<path fill="none" stroke="black" stroke-width=".3" stroke-opacity="1.0"  filling="0" d="M13.186488151550293 11.259984016418457 L12.675000190734863 12.17496109008789 L13.186488151550293 11.259984016418457"></path>
<path fill="none" stroke="black" stroke-width=".3" stroke-opacity="1.0"  filling="0" d="M12.339983940124512 11.359560012817383 L12.339983940124512 11.359560012817383 C12.124343872070312 11.688887596130371 11.545343399047852 11.982665061950684 11.693063735961914 12.347543716430664 C11.814501762390137 12.647502899169922 12.258438110351562 11.941349029541016 12.581687927246094 11.956583976745605 C12.726109504699707 11.963390350341797 12.591191291809082 12.24559211730957 12.595943450927734 12.390096664428711 L12.595943450927734 12.390096664428711 C13.202136039733887 12.43686294555664 13.653606414794922 11.76944351196289 14.095848083496094 11.352215766906738 L16.616134643554688 11.291736602783203 L16.662792205810547 11.007479667663574 L16.66236114501953 11.397359848022461 C16.47073745727539 11.619218826293945 15.033306121826172 13.388880729675293 14.624183654785156 13.463615417480469 C13.457735061645508 13.676692008972168 12.333075523376465 12.811708450317383 11.155008316040039 12.6769437789917 C10.530360221862793 12.605486869812012 9.897974014282227 12.644250869750977 9.269624710083008 12.62261962890625 C8.720464706420898 12.603713989257812 7.945059299468994 13.000215530395508 7.622543811798096 12.555335998535156 C7.362438678741455 12.19654655456543 8.201712608337402 11.884439468383789 8.491296768188477 11.548991203308105 L12.339983940124512 11.359560012817383"></path>
<path fill="none" stroke="black" stroke-width=".3" stroke-opacity="1.0"  filling="0" d="M12.339983940124512 11.359560012817383 L12.339983940124512 11.359560012817383 C12.124343872070312 11.688887596130371 11.545343399047852 11.982665061950684 11.693063735961914 12.347543716430664 C11.814501762390137 12.647502899169922 12.258438110351562 11.941349029541016 12.581687927246094 11.956583976745605 C12.726109504699707 11.963390350341797 12.591191291809082 12.24559211730957 12.595943450927734 12.390096664428711 L12.595943450927734 12.390096664428711 C13.202136039733887 12.43686294555664 13.653606414794922 11.76944351196289 14.095848083496094 11.352215766906738 L16.616134643554688 11.291736602783203 L16.662792205810547 11.007479667663574 L16.66236114501953 11.397359848022461 C16.47073745727539 11.619218826293945 15.033306121826172 13.388880729675293 14.624183654785156 13.463615417480469 C13.457735061645508 13.676692008972168 12.333075523376465 12.811708450317383 11.155008316040039 12.6769437789917 C10.530360221862793 12.605486869812012 9.897974014282227 12.644250869750977 9.269624710083008 12.62261962890625 C8.720464706420898 12.603713989257812 7.945059299468994 13.000215530395508 7.622543811798096 12.555335998535156 C7.362438678741455 12.19654655456543 8.201712608337402 11.884439468383789 8.491296768188477 11.548991203308105 L12.339983940124512 11.359560012817383"></path>
<path fill="none" stroke="black" stroke-width=".3" stroke-opacity="1.0"  filling="0" d="M17.19847297668457 11.397359848022461 L17.19847297668457 11.397359848022461 C16.440065383911133 12.23388671875 15.547257423400879 12.940483093261719 14.671703338623047 13.653480529785156 L14.700216293334961 13.5277681350708 C15.423357963562012 12.859075546264648 16.10320472717285 12.142165184020996 16.7476806640625 11.397359848022461 L17.19847297668457 11.397359848022461"></path>
<path fill="none" stroke="black" stroke-width=".3" stroke-opacity="1.0"  filling="0" d="M17.19847297668457 11.397359848022461 L17.19847297668457 11.397359848022461 C16.440065383911133 12.23388671875 15.547257423400879 12.940483093261719 14.671703338623047 13.653480529785156 L14.700216293334961 13.5277681350708 C15.423357963562012 12.859075546264648 16.10320472717285 12.142165184020996 16.7476806640625 11.397359848022461 L17.19847297668457 11.397359848022461"></path>
<path fill="none" stroke="black" stroke-width=".3" stroke-opacity="1.0"  filling="0" d="M7.632264137268066 11.516159057617188 L7.793400287628174 11.705592155456543 L7.21235990524292 12.473257064819336 L7.632264137268066 11.516159057617188"></path>
<path fill="none" stroke="black" stroke-width=".3" stroke-opacity="1.0"  filling="0" d="M13.774656295776367 11.563464164733887 L12.675000190734863 12.350135803222656 L13.774656295776367 11.563464164733887"></path>
<path fill="none" stroke="black" stroke-width=".3" stroke-opacity="1.0"  filling="0" d="M12.262871742248535 11.620271682739258 L11.701055526733398 12.274319648742676 L12.262871742248535 11.620271682739258"></path>
<path fill="none" stroke="black" stroke-width=".3" stroke-opacity="1.0"  filling="0" d="M6.827880382537842 11.691120147705078 L6.827880382537842 11.691120147705078 C6.614184379577637 12.004679679870605 6.400488376617432 12.31824016571045 6.186792373657227 12.631799697875977 L6.186792373657227 12.631799697875977 C4.916257381439209 12.573225021362305 2.6080820560455322 12.973620414733887 1.5717363357543945 12.231335639953613 L1.8940095901489258 11.857008934020996 L1.5717363357543945 11.402112007141113 L1.9745759963989258 11.819208145141602 L6.827880382537842 11.691120147705078"></path>
<path fill="none" stroke="black" stroke-width=".3" stroke-opacity="1.0"  filling="0" d="M8.162976264953613 11.771903991699219 L7.290984153747559 12.738936424255371 L8.162976264953613 11.771903991699219"></path>
<path fill="none" stroke="black" stroke-width=".3" stroke-opacity="1.0"  filling="0" d="M6.8073601722717285 11.895671844482422 L6.286152362823486 12.625320434570312 L6.8073601722717285 11.895671844482422"></path>
<path fill="none" stroke="black" stroke-width=".3" stroke-opacity="1.0"  filling="0" d="M7.060080051422119 12.240839958190918 L7.154903888702393 12.555335998535156 L6.62332820892334 12.555335998535156 L7.060080051422119 12.240839958190918"></path>
<path fill="none" stroke="black" stroke-width=".3" stroke-opacity="1.0"  filling="0" d="M10.66058349609375 12.607392311096191 L9.971112251281738 13.553903579711914 L10.66058349609375 12.607392311096191"></path>
<path fill="none" stroke="black" stroke-width=".3" stroke-opacity="1.0"  filling="0" d="M20.64885711669922 12.759023666381836 L20.64885711669922 12.759023666381836 C20.641735076904297 12.870261192321777 20.72934341430664 12.988344192504883 20.82705307006836 13.041984558105469 L20.82705307006836 13.041984558105469 C20.70448875427246 13.103442192077637 20.58110237121582 13.163260459899902 20.45747947692871 13.222559928894043 L20.45747947692871 13.222559928894043 C20.72112274169922 13.519294738769531 21.323226928710938 12.510252952575684 21.059040069580078 13.536623001098633 L21.059040069580078 13.536623001098633 C20.38768768310547 13.557491302490234 20.068239212036133 13.261975288391113 20.64885711669922 12.759023666381836 L20.64885711669922 12.759023666381836"></path>
<path fill="none" stroke="black" stroke-width=".3" stroke-opacity="1.0"  filling="0" d="M11.2293119430542 12.98193645477295 L10.930800437927246 13.489320755004883 L11.2293119430542 12.98193645477295"></path>
<path fill="none" stroke="black" stroke-width=".3" stroke-opacity="1.0"  filling="0" d="M12.565919876098633 12.98193645477295 L11.784000396728516 13.85867977142334 L12.565919876098633 12.98193645477295"></path>
<path fill="none" stroke="black" stroke-width=".3" stroke-opacity="1.0"  filling="0" d="M20.24428939819336 13.013688087463379 L19.784423828125 13.61092758178711 L20.040382385253906 13.165535926818848 L19.604278564453125 13.316951751708984 L19.66756820678711 13.061424255371094 L20.24428939819336 13.013688087463379"></path>
<path fill="none" stroke="black" stroke-width=".3" stroke-opacity="1.0"  filling="0" d="M19.39562225341797 13.354751586914062 L19.158885955810547 13.791071891784668 L18.68476676940918 13.791071891784668 L19.39562225341797 13.354751586914062"></path>
<path fill="none" stroke="black" stroke-width=".3" stroke-opacity="1.0"  filling="0" d="M20.182512283325195 13.354751586914062 L20.304550170898438 13.525391578674316 L19.471656799316406 13.99951171875 L20.182512283325195 13.354751586914062"></path>
<path fill="none" stroke="black" stroke-width=".3" stroke-opacity="1.0"  filling="0" d="M8.300352096557617 13.356695175170898 L8.968441009521484 12.607392311096191 L8.300352096557617 13.356695175170898"></path>
<path fill="none" stroke="black" stroke-width=".3" stroke-opacity="1.0"  filling="0" d="M13.736639976501465 13.356695175170898 L12.949751853942871 14.10059928894043 L13.736639976501465 13.356695175170898"></path>
<path fill="none" stroke="black" stroke-width=".3" stroke-opacity="1.0"  filling="0" d="M14.430000305175781 13.492128372192383 L14.430000305175781 13.492128372192383 C13.065695762634277 14.355027198791504 12.317143440246582 13.840076446533203 10.78996753692627 13.492128372192383 L6.17836856842041 13.00396728515625 L6.453336238861084 12.582119941711426 L10.9463529586792 12.809783935546875 C12.110837936401367 13.019853591918945 13.271438598632812 13.251526832580566 14.430000305175781 13.492128372192383 L14.430000305175781 13.492128372192383"></path>
<path fill="none" stroke="black" stroke-width=".3" stroke-opacity="1.0"  filling="0" d="M14.430000305175781 13.492128372192383 L14.430000305175781 13.492128372192383 C13.065695762634277 14.355027198791504 12.317143440246582 13.840076446533203 10.78996753692627 13.492128372192383 L6.17836856842041 13.00396728515625 L6.453336238861084 12.582119941711426 L10.9463529586792 12.809783935546875 C12.110837936401367 13.019853591918945 13.271438598632812 13.251526832580566 14.430000305175781 13.492128372192383 L14.430000305175781 13.492128372192383"></path>
<path fill="none" stroke="black" stroke-width=".3" stroke-opacity="1.0"  filling="0" d="M20.485774993896484 13.724544525146484 L19.73690414428711 14.208168029785156 L20.485774993896484 13.724544525146484"></path>
<path fill="none" stroke="black" stroke-width=".3" stroke-opacity="1.0"  filling="0" d="M9.41015911102295 13.801655769348145 L10.151256561279297 15.700078964233398 L9.41015911102295 13.801655769348145"></path>
<path fill="none" stroke="black" stroke-width=".3" stroke-opacity="1.0"  filling="0" d="M9.41015911102295 13.801655769348145 L10.151256561279297 15.700078964233398 L9.41015911102295 13.801655769348145"></path>
<path fill="none" stroke="black" stroke-width=".3" stroke-opacity="1.0"  filling="0" d="M16.314167022705078 13.982880592346191 L18.432910919189453 12.005616188049316 L19.520687103271484 13.172231674194336 L18.65323257446289 13.904472351074219 C19.095813751220703 13.852383613586426 19.58440399169922 14.117733001708984 19.989839553833008 13.932767868041992 L19.705368041992188 14.295432090759277 C20.716699600219727 13.864888191223145 20.755041122436523 14.525440216064453 19.897174835205078 15.127246856689453 L19.897174835205078 15.127246856689453 C20.140697479248047 15.11447525024414 20.571697235107422 15.084322929382324 20.601119995117188 15.326399803161621 L20.74324607849121 15.326399803161621 C20.83854866027832 15.495755195617676 21.136398315429688 15.367953300476074 21.32623291015625 15.326399803161621 L22.136661529541016 16.215240478515625 L22.46843910217285 15.667895317077637 C22.31751251220703 16.00217056274414 22.09821891784668 16.38844108581543 21.748943328857422 16.5003604888916 L21.748943328857422 16.5003604888916 C20.913511276245117 16.105735778808594 20.080923080444336 15.704927444458008 19.253496170043945 15.293783187866211 L19.4705753326416 15.049270629882812 C18.440540313720703 14.63409423828125 17.394620895385742 14.239718437194824 16.314167022705078 13.982880592346191 L16.314167022705078 13.982880592346191"></path>
<path fill="none" stroke="black" stroke-width=".3" stroke-opacity="1.0"  filling="0" d="M16.314167022705078 13.982880592346191 L18.432910919189453 12.005616188049316 L19.520687103271484 13.172231674194336 L18.65323257446289 13.904472351074219 C19.095813751220703 13.852383613586426 19.58440399169922 14.117733001708984 19.989839553833008 13.932767868041992 L19.705368041992188 14.295432090759277 C20.716699600219727 13.864888191223145 20.755041122436523 14.525440216064453 19.897174835205078 15.127246856689453 L19.897174835205078 15.127246856689453 C20.140697479248047 15.11447525024414 20.571697235107422 15.084322929382324 20.601119995117188 15.326399803161621 L20.74324607849121 15.326399803161621 C20.83854866027832 15.495755195617676 21.136398315429688 15.367953300476074 21.32623291015625 15.326399803161621 L22.136661529541016 16.215240478515625 L22.46843910217285 15.667895317077637 C22.31751251220703 16.00217056274414 22.09821891784668 16.38844108581543 21.748943328857422 16.5003604888916 L21.748943328857422 16.5003604888916 C20.913511276245117 16.105735778808594 20.080923080444336 15.704927444458008 19.253496170043945 15.293783187866211 L19.4705753326416 15.049270629882812 C18.440540313720703 14.63409423828125 17.394620895385742 14.239718437194824 16.314167022705078 13.982880592346191 L16.314167022705078 13.982880592346191"></path>
<path fill="none" stroke="black" stroke-width=".3" stroke-opacity="1.0"  filling="0" d="M13.18238353729248 14.127599716186523 L13.18238353729248 14.127599716186523 C13.034425735473633 14.275557518005371 13.034566879272461 13.979273796081543 13.18238353729248 14.127599716186523 L13.18238353729248 14.127599716186523"></path>
<path fill="none" stroke="black" stroke-width=".3" stroke-opacity="1.0"  filling="0" d="M13.18238353729248 14.127599716186523 L13.18238353729248 14.127599716186523 C13.034425735473633 14.275557518005371 13.034566879272461 13.979273796081543 13.18238353729248 14.127599716186523 L13.18238353729248 14.127599716186523"></path>
<path fill="none" stroke="black" stroke-width=".3" stroke-opacity="1.0"  filling="0" d="M13.02232837677002 14.209247589111328 L13.02232837677002 14.209247589111328 C12.874303817749023 14.357272148132324 12.874302864074707 14.061223983764648 13.02232837677002 14.209247589111328 L13.02232837677002 14.209247589111328"></path>
<path fill="none" stroke="black" stroke-width=".3" stroke-opacity="1.0"  filling="0" d="M13.02232837677002 14.209247589111328 L13.02232837677002 14.209247589111328 C12.874303817749023 14.357272148132324 12.874302864074707 14.061223983764648 13.02232837677002 14.209247589111328 L13.02232837677002 14.209247589111328"></path>
<path fill="none" stroke="black" stroke-width=".3" stroke-opacity="1.0"  filling="0" d="M17.457239151000977 14.242511749267578 L16.689359664916992 15.014495849609375 L17.457239151000977 14.242511749267578"></path>
<path fill="none" stroke="black" stroke-width=".3" stroke-opacity="1.0"  filling="0" d="M21.566425323486328 14.321783065795898 L21.471813201904297 14.767175674438477 L21.937294006347656 14.416607856750488 C21.937294006347656 14.568815231323242 21.937294006347656 14.721023559570312 21.937294006347656 14.873230934143066 L21.937294006347656 14.873230934143066 C21.772558212280273 14.89159107208252 21.607824325561523 14.909951210021973 21.44308853149414 14.928311347961426 L21.44308853149414 14.928311347961426 C21.371309280395508 14.734886169433594 21.42866325378418 14.475362777709961 21.566425323486328 14.321783065795898 L21.566425323486328 14.321783065795898"></path>
<path fill="none" stroke="black" stroke-width=".3" stroke-opacity="1.0"  filling="0" d="M12.864864349365234 14.334959983825684 L12.864864349365234 14.334959983825684 C12.716798782348633 14.482513427734375 12.716941833496094 14.187039375305176 12.864864349365234 14.334959983825684 L12.864864349365234 14.334959983825684"></path>
<path fill="none" stroke="black" stroke-width=".3" stroke-opacity="1.0"  filling="0" d="M12.864864349365234 14.334959983825684 L12.864864349365234 14.334959983825684 C12.716798782348633 14.482513427734375 12.716941833496094 14.187039375305176 12.864864349365234 14.334959983825684 L12.864864349365234 14.334959983825684"></path>
<path fill="none" stroke="black" stroke-width=".3" stroke-opacity="1.0"  filling="0" d="M21.253658294677734 14.402352333068848 L20.817550659179688 14.938032150268555 L21.064006805419922 14.531951904296875 L20.69918441772461 14.516182899475098 L21.253658294677734 14.402352333068848"></path>
<path fill="none" stroke="black" stroke-width=".3" stroke-opacity="1.0"  filling="0" d="M12.708479881286621 14.476871490478516 L12.708479881286621 14.476871490478516 C12.560455322265625 14.624893188476562 12.560455322265625 14.328849792480469 12.708479881286621 14.476871490478516 L12.708479881286621 14.476871490478516"></path>
<path fill="none" stroke="black" stroke-width=".3" stroke-opacity="1.0"  filling="0" d="M12.708479881286621 14.476871490478516 L12.708479881286621 14.476871490478516 C12.560455322265625 14.624893188476562 12.560455322265625 14.328849792480469 12.708479881286621 14.476871490478516 L12.708479881286621 14.476871490478516"></path>
<path fill="none" stroke="black" stroke-width=".3" stroke-opacity="1.0"  filling="0" d="M18.48086166381836 14.53648853302002 L17.770008087158203 15.072168350219727 L18.48086166381836 14.53648853302002"></path>
<path fill="none" stroke="black" stroke-width=".3" stroke-opacity="1.0"  filling="0" d="M12.550799369812012 14.602583885192871 L12.550799369812012 14.602583885192871 C12.402734756469727 14.750141143798828 12.402876853942871 14.454658508300781 12.550799369812012 14.602583885192871 L12.550799369812012 14.602583885192871"></path>
<path fill="none" stroke="black" stroke-width=".3" stroke-opacity="1.0"  filling="0" d="M12.550799369812012 14.602583885192871 L12.550799369812012 14.602583885192871 C12.402734756469727 14.750141143798828 12.402876853942871 14.454658508300781 12.550799369812012 14.602583885192871 L12.550799369812012 14.602583885192871"></path>
<path fill="none" stroke="black" stroke-width=".3" stroke-opacity="1.0"  filling="0" d="M20.561805725097656 14.661767959594727 L19.88831901550293 15.099167823791504 L20.561805725097656 14.661767959594727"></path>
<path fill="none" stroke="black" stroke-width=".3" stroke-opacity="1.0"  filling="0" d="M11.297351837158203 14.686822891235352 L10.714367866516113 15.77676010131836 L10.131383895874023 15.77676010131836 L11.297351837158203 14.686822891235352"></path>
<path fill="none" stroke="black" stroke-width=".3" stroke-opacity="1.0"  filling="0" d="M11.297351837158203 14.686822891235352 L10.714367866516113 15.77676010131836 L10.131383895874023 15.77676010131836 L11.297351837158203 14.686822891235352"></path>
<path fill="none" stroke="black" stroke-width=".3" stroke-opacity="1.0"  filling="0" d="M12.381671905517578 14.728080749511719 L12.381671905517578 14.728080749511719 C12.233572006225586 14.876177787780762 12.23343276977539 14.580348014831543 12.381671905517578 14.728080749511719 L12.381671905517578 14.728080749511719"></path>
<path fill="none" stroke="black" stroke-width=".3" stroke-opacity="1.0"  filling="0" d="M12.381671905517578 14.728080749511719 L12.381671905517578 14.728080749511719 C12.233572006225586 14.876177787780762 12.23343276977539 14.580348014831543 12.381671905517578 14.728080749511719 L12.381671905517578 14.728080749511719"></path>
<path fill="none" stroke="black" stroke-width=".3" stroke-opacity="1.0"  filling="0" d="M21.19684600830078 14.738879203796387 L20.637405395507812 15.241294860839844 L21.19684600830078 14.738879203796387"></path>
<path fill="none" stroke="black" stroke-width=".3" stroke-opacity="1.0"  filling="0" d="M19.106399536132812 14.79568862915039 L18.381288528442383 15.325536727905273 L19.106399536132812 14.79568862915039"></path>
<path fill="none" stroke="black" stroke-width=".3" stroke-opacity="1.0"  filling="0" d="M12.235872268676758 14.854007720947266 L12.235872268676758 14.854007720947266 C12.08780574798584 15.001564979553223 12.087946891784668 14.706085205078125 12.235872268676758 14.854007720947266 L12.235872268676758 14.854007720947266"></path>
<path fill="none" stroke="black" stroke-width=".3" stroke-opacity="1.0"  filling="0" d="M12.235872268676758 14.854007720947266 L12.235872268676758 14.854007720947266 C12.08780574798584 15.001564979553223 12.087946891784668 14.706085205078125 12.235872268676758 14.854007720947266 L12.235872268676758 14.854007720947266"></path>
<path fill="none" stroke="black" stroke-width=".3" stroke-opacity="1.0"  filling="0" d="M12.087479591369629 14.952072143554688 L12.087479591369629 14.952072143554688 C11.939455032348633 15.100096702575684 11.93945598602295 14.804046630859375 12.087479591369629 14.952072143554688 L12.087479591369629 14.952072143554688"></path>
<path fill="none" stroke="black" stroke-width=".3" stroke-opacity="1.0"  filling="0" d="M12.087479591369629 14.952072143554688 L12.087479591369629 14.952072143554688 C11.939455032348633 15.100096702575684 11.93945598602295 14.804046630859375 12.087479591369629 14.952072143554688 L12.087479591369629 14.952072143554688"></path>
<path fill="none" stroke="black" stroke-width=".3" stroke-opacity="1.0"  filling="0" d="M21.462310791015625 14.990087509155273 L20.722293853759766 15.392928123474121 L21.462310791015625 14.990087509155273"></path>
<path fill="none" stroke="black" stroke-width=".3" stroke-opacity="1.0"  filling="0" d="M19.337520599365234 15.049487113952637 L19.043975830078125 15.326399803161621 C18.554147720336914 15.170170783996582 17.4566593170166 15.141181945800781 17.65056037902832 14.665008544921875 L17.45853614807129 14.8287353515625 C16.878358840942383 14.71843147277832 16.218929290771484 14.810630798339844 15.71800708770752 14.497823715209961 C15.52563190460205 14.377692222595215 16.07311248779297 14.215583801269531 16.25066375732422 14.074463844299316 L16.25066375732422 14.074463844299316 C17.3049259185791 14.304474830627441 18.345382690429688 14.6251802444458 19.337520599365234 15.049487113952637 L19.337520599365234 15.049487113952637"></path>
<path fill="none" stroke="black" stroke-width=".3" stroke-opacity="1.0"  filling="0" d="M19.337520599365234 15.049487113952637 L19.043975830078125 15.326399803161621 C18.554147720336914 15.170170783996582 17.4566593170166 15.141181945800781 17.65056037902832 14.665008544921875 L17.45853614807129 14.8287353515625 C16.878358840942383 14.71843147277832 16.218929290771484 14.810630798339844 15.71800708770752 14.497823715209961 C15.52563190460205 14.377692222595215 16.07311248779297 14.215583801269531 16.25066375732422 14.074463844299316 L16.25066375732422 14.074463844299316 C17.3049259185791 14.304474830627441 18.345382690429688 14.6251802444458 19.337520599365234 15.049487113952637 L19.337520599365234 15.049487113952637"></path>
<path fill="none" stroke="black" stroke-width=".3" stroke-opacity="1.0"  filling="0" d="M11.934551239013672 15.100462913513184 L11.934551239013672 15.100462913513184 C11.786529541015625 15.24848747253418 11.786527633666992 14.952441215515137 11.934551239013672 15.100462913513184 L11.934551239013672 15.100462913513184"></path>
<path fill="none" stroke="black" stroke-width=".3" stroke-opacity="1.0"  filling="0" d="M11.934551239013672 15.100462913513184 L11.934551239013672 15.100462913513184 C11.786529541015625 15.24848747253418 11.786527633666992 14.952441215515137 11.934551239013672 15.100462913513184 L11.934551239013672 15.100462913513184"></path>
<path fill="none" stroke="black" stroke-width=".3" stroke-opacity="1.0"  filling="0" d="M11.771256446838379 15.20803165435791 L11.771256446838379 15.20803165435791 C11.622949600219727 15.355826377868652 11.622950553894043 15.060236930847168 11.771256446838379 15.20803165435791 L11.771256446838379 15.20803165435791"></path>
<path fill="none" stroke="black" stroke-width=".3" stroke-opacity="1.0"  filling="0" d="M11.771256446838379 15.20803165435791 L11.771256446838379 15.20803165435791 C11.622949600219727 15.355826377868652 11.622950553894043 15.060236930847168 11.771256446838379 15.20803165435791 L11.771256446838379 15.20803165435791"></path>
<path fill="none" stroke="black" stroke-width=".3" stroke-opacity="1.0"  filling="0" d="M11.621999740600586 15.333959579467773 L11.621999740600586 15.333959579467773 C11.473833084106445 15.481614112854004 11.47411823272705 15.18557071685791 11.621999740600586 15.333959579467773 L11.621999740600586 15.333959579467773"></path>
<path fill="none" stroke="black" stroke-width=".3" stroke-opacity="1.0"  filling="0" d="M11.621999740600586 15.333959579467773 L11.621999740600586 15.333959579467773 C11.473833084106445 15.481614112854004 11.47411823272705 15.18557071685791 11.621999740600586 15.333959579467773 L11.621999740600586 15.333959579467773"></path>
<path fill="none" stroke="black" stroke-width=".3" stroke-opacity="1.0"  filling="0" d="M11.496288299560547 15.459455490112305 L11.496288299560547 15.459455490112305 C11.348262786865234 15.607481002807617 11.34826374053955 15.311430931091309 11.496288299560547 15.459455490112305 L11.496288299560547 15.459455490112305"></path>
<path fill="none" stroke="black" stroke-width=".3" stroke-opacity="1.0"  filling="0" d="M11.496288299560547 15.459455490112305 L11.496288299560547 15.459455490112305 C11.348262786865234 15.607481002807617 11.34826374053955 15.311430931091309 11.496288299560547 15.459455490112305 L11.496288299560547 15.459455490112305"></path>
<path fill="none" stroke="black" stroke-width=".3" stroke-opacity="1.0"  filling="0" d="M11.339903831481934 15.546935081481934 L11.339903831481934 15.546935081481934 C11.191879272460938 15.694962501525879 11.191878318786621 15.398909568786621 11.339903831481934 15.546935081481934 L11.339903831481934 15.546935081481934"></path>
<path fill="none" stroke="black" stroke-width=".3" stroke-opacity="1.0"  filling="0" d="M11.339903831481934 15.546935081481934 L11.339903831481934 15.546935081481934 C11.191879272460938 15.694962501525879 11.191878318786621 15.398909568786621 11.339903831481934 15.546935081481934 L11.339903831481934 15.546935081481934"></path>
<path fill="none" stroke="black" stroke-width=".3" stroke-opacity="1.0"  filling="0" d="M11.188271522521973 15.687767028808594 L11.188271522521973 15.687767028808594 C11.040246963500977 15.83579158782959 11.040247917175293 15.539743423461914 11.188271522521973 15.687767028808594 L11.188271522521973 15.687767028808594"></path>
<path fill="none" stroke="black" stroke-width=".3" stroke-opacity="1.0"  filling="0" d="M11.188271522521973 15.687767028808594 L11.188271522521973 15.687767028808594 C11.040246963500977 15.83579158782959 11.040247917175293 15.539743423461914 11.188271522521973 15.687767028808594 L11.188271522521973 15.687767028808594"></path>
<path fill="none" stroke="black" stroke-width=".3" stroke-opacity="1.0"  filling="0" d="M12.880200386047363 16.46882438659668 L12.406295776367188 16.724782943725586 L10.946568489074707 16.573150634765625 L12.21513557434082 16.13251304626465 L12.880200386047363 16.46882438659668"></path>
<path fill="none" stroke="black" stroke-width=".3" stroke-opacity="1.0"  filling="0" d="M12.880200386047363 16.46882438659668 L12.406295776367188 16.724782943725586 L10.946568489074707 16.573150634765625 L12.21513557434082 16.13251304626465 L12.880200386047363 16.46882438659668"></path>
<path fill="none" stroke="black" stroke-width=".3" stroke-opacity="1.0"  filling="0" d="M9.666768074035645 16.525632858276367 L6.207096576690674 16.428646087646484 L6.66588020324707 16.007015228271484 L10.68110466003418 15.919102668762207 L9.666768074035645 16.525632858276367"></path>
<path fill="none" stroke="black" stroke-width=".3" stroke-opacity="1.0"  filling="0" d="M9.666768074035645 16.525632858276367 L6.207096576690674 16.428646087646484 L6.66588020324707 16.007015228271484 L10.68110466003418 15.919102668762207 L9.666768074035645 16.525632858276367"></path>
<path fill="none" stroke="black" stroke-width=".3" stroke-opacity="1.0"  filling="0" d="M9.580368041992188 16.79131317138672 L9.580368041992188 16.79131317138672 C10.536500930786133 16.404420852661133 11.4811429977417 15.988304138183594 12.414504051208496 15.549311637878418 L12.414504051208496 15.549311637878418 C15.71928882598877 15.549311637878418 10.605440139770508 16.629955291748047 9.580368041992188 16.79131317138672 L9.580368041992188 16.79131317138672"></path>
<path fill="none" stroke="black" stroke-width=".3" stroke-opacity="1.0"  filling="0" d="M9.580368041992188 16.79131317138672 L9.580368041992188 16.79131317138672 C10.536500930786133 16.404420852661133 11.4811429977417 15.988304138183594 12.414504051208496 15.549311637878418 L12.414504051208496 15.549311637878418 C15.71928882598877 15.549311637878418 10.605440139770508 16.629955291748047 9.580368041992188 16.79131317138672 L9.580368041992188 16.79131317138672"></path></svg>