<svg xmlns="http://www.w3.org/2000/svg" viewBox="0.0 0.0 24.0 24.0" height="200px" width="200px"><path fill="none" stroke="black" stroke-width=".3" stroke-opacity="1.0"  filling="0" d="M9.924564361572266 1.2000007629394531 L9.924564361572266 1.2000007629394531 C10.46535587310791 1.4239745140075684 11.13304328918457 1.4580259323120117 11.546939849853516 1.8719221353530884 C13.113652229309082 3.4386343955993652 11.83926010131836 4.819052696228027 10.576884269714355 5.694960117340088 L10.576884269714355 6.10363245010376 L15.071843147277832 6.10363245010376 L15.071843147277832 8.720255851745605 L17.917858123779297 6.992472171783447 L19.222715377807617 6.992472171783447 L19.222715377807617 11.082324028015137 L19.222715377807617 15.172176361083984 L12.64875602722168 15.172176361083984 L10.576884269714355 17.244047164916992 L10.576884269714355 18.30504035949707 C12.234550476074219 19.454763412475586 13.173218727111816 22.79978370666504 9.924564361572266 22.79978370666504 C6.675853729248047 22.79978370666504 7.614621162414551 19.454769134521484 9.272244453430176 18.30504035949707 L9.272244453430176 17.244047164916992 L6.483468055725098 14.45527172088623 L9.272244453430176 11.666712760925293 L9.272244453430176 10.69168758392334 L4.777284145355225 10.69168758392334 L4.777284145355225 6.10363245010376 L9.272244453430176 6.10363245010376 L9.272244453430176 5.694960117340088 C8.009580612182617 4.819061279296875 6.735536098480225 3.4387354850769043 8.302350044250488 1.8719221353530884 C8.716211318969727 1.4580612182617188 9.38382625579834 1.4239745140075684 9.924564361572266 1.2000007629394531 L9.924564361572266 1.2000007629394531"></path>
<path fill="none" stroke="black" stroke-width=".3" stroke-opacity="1.0"  filling="0" d="M15.07205867767334 8.791751861572266 L17.918075561523438 10.38323974609375 L17.918075561523438 13.86732006072998 L12.777708053588867 13.86732006072998 L10.577099800109863 11.666495323181152 L10.577099800109863 10.691472053527832 L15.07205867767334 10.691472053527832 L15.07205867767334 8.791751861572266"></path></svg>