<svg xmlns="http://www.w3.org/2000/svg" viewBox="0.0 0.0 24.0 24.0" height="200px" width="200px"><path fill="none" stroke="black" stroke-width=".3" stroke-opacity="1.0"  filling="0" d="M31.679109573364258 -2330.704833984375 L33.76826477050781 -2324.189453125 L35.85741424560547 -2317.673828125 L37.94656753540039 -2311.158447265625 L44.78973388671875 -2311.185302734375 L51.632904052734375 -2311.212158203125 L58.47606658935547 -2311.23876953125 L52.924007415771484 -2307.23876953125 L47.37194061279297 -2303.23876953125 L41.81987762451172 -2299.238525390625 L43.96015167236328 -2292.73974609375 L46.100425720214844 -2286.24072265625 L48.24069595336914 -2279.741943359375 L42.720096588134766 -2283.78515625 L37.19949722290039 -2287.828125 L31.678895950317383 -2291.87109375 L26.158296585083008 -2287.828125 L20.6376953125 -2283.78515625 L15.117095947265625 -2279.741943359375 L17.257368087768555 -2286.24072265625 L19.397640228271484 -2292.73974609375 L21.53791046142578 -2299.238525390625 L15.985918998718262 -2303.23876953125 L10.433927536010742 -2307.23876953125 L4.881936073303223 -2311.23876953125 L11.725104331970215 -2311.212158203125 L18.56827163696289 -2311.185302734375 L25.411439895629883 -2311.158447265625 L27.50066375732422 -2317.673828125 L29.589887619018555 -2324.189453125 L31.679109573364258 -2330.704833984375"></path>
<path fill="none" stroke="black" stroke-width=".3" stroke-opacity="1.0"  filling="0" d="M2.2799997329711914 39.41126251220703 L2.2936086654663086 32.93125915527344 L8.773608207702637 32.93125915527344 L8.773608207702637 26.451263427734375 L15.246803283691406 26.451263427734375 L21.719999313354492 26.451263427734375 L21.719999313354492 32.9312629699707 L21.719999313354492 39.41126251220703 L15.239999771118164 39.41126251220703 L8.75999927520752 39.41126251220703 L2.2799997329711914 39.41126251220703"></path></svg>