<svg xmlns="http://www.w3.org/2000/svg" viewBox="0.0 0.0 24.0 24.0" height="200px" width="200px"><path fill="none" stroke="black" stroke-width=".3" stroke-opacity="1.0"  filling="0" d="M1.2000007629394531 1.2000007629394531 L1.36199951171875 1.2000007629394531 C3.3933639526367188 2.4075024127960205 5.428277969360352 3.608996629714966 7.464712142944336 4.807907581329346 C9.50114631652832 6.0068182945251465 11.539100646972656 7.203145980834961 13.576544761657715 8.400315284729004 C15.61398983001709 9.59748363494873 17.650924682617188 10.795494079589844 19.685321807861328 11.997769355773926 C21.71971893310547 13.200044631958008 23.751577377319336 14.406585693359375 25.778867721557617 15.620816230773926 C27.8061580657959 16.835046768188477 29.828880310058594 18.05696678161621 31.845003128051758 19.290000915527344 L31.845003128051758 19.290000915527344 C30.219106674194336 19.277908325195312 28.325529098510742 19.519874572753906 26.74959373474121 19.009031295776367 C25.300796508789062 18.539400100708008 23.861936569213867 17.71356201171875 22.457427978515625 16.813152313232422 C21.05291748046875 15.91274356842041 19.68276023864746 14.937761306762695 18.371370315551758 14.169838905334473 C16.459426879882812 13.050246238708496 14.545146942138672 11.934876441955566 12.632203102111816 10.817338943481445 C10.719259262084961 9.69980239868164 8.80765438079834 8.580099105834961 6.901061534881592 7.451838493347168 C4.99446964263916 6.323578834533691 3.092890501022339 5.186761856079102 1.2000007629394531 4.034999847412109 L1.2000007629394531 1.2000007629394531"></path>
<path fill="none" stroke="black" stroke-width=".3" stroke-opacity="1.0"  filling="0" d="M10.190999984741211 1.2000007629394531 L16.718250274658203 1.2000007629394531 L23.245498657226562 1.2000007629394531 L29.772748947143555 1.2000007629394531 L36.29999923706055 1.2000007629394531 C36.30081558227539 2.9820773601531982 36.302818298339844 4.76411247253418 36.302547454833984 6.5461225509643555 C36.302276611328125 8.328132629394531 36.29973220825195 10.110116958618164 36.29145812988281 11.892090797424316 C36.28318786621094 13.674064636230469 36.269187927246094 15.456029891967773 36.246002197265625 17.237998962402344 L36.246002197265625 17.237998962402344 C34.50471496582031 16.175745010375977 32.76380920410156 15.112882614135742 31.023569107055664 14.048941612243652 C29.283329010009766 12.985000610351562 27.54375457763672 11.919981956481934 25.805133819580078 10.853418350219727 C24.066513061523438 9.78685474395752 22.32884407043457 8.718745231628418 20.59241485595703 7.648623943328857 C18.85598373413086 6.578502655029297 17.12079429626465 5.506368160247803 15.387129783630371 4.431753158569336 C13.653465270996094 3.3571386337280273 11.921326637268066 2.280043601989746 10.190999984741211 1.2000007629394531 L10.190999984741211 1.2000007629394531"></path>
<path fill="none" stroke="black" stroke-width=".3" stroke-opacity="1.0"  filling="0" d="M47.37000274658203 1.2000007629394531 L53.82975769042969 1.2000007629394531 L60.28950500488281 1.2000007629394531 L66.74925231933594 1.2000007629394531 L73.2090072631836 1.2000007629394531 C71.49539947509766 2.278351306915283 69.7783203125 3.351073980331421 68.05876922607422 4.419798851013184 C66.33921813964844 5.488524436950684 64.61720275878906 6.553252220153809 62.89371871948242 7.6156134605407715 C61.17023849487305 8.677974700927734 59.445289611816406 9.737970352172852 57.719886779785156 10.797228813171387 C55.994483947753906 11.856487274169922 54.268619537353516 12.915010452270508 52.543304443359375 13.9744291305542 C50.81798553466797 15.03384780883789 49.09321594238281 16.094160079956055 47.37000274658203 17.156999588012695 L47.37000274658203 17.156999588012695 C47.37000274658203 15.383999824523926 47.37000274658203 13.611000061035156 47.37000274658203 11.838000297546387 C47.37000274658203 10.065000534057617 47.37000274658203 8.292000770568848 47.37000274658203 6.51900053024292 C47.37000274658203 4.746000289916992 47.37000274658203 2.9730005264282227 47.37000274658203 1.2000007629394531 L47.37000274658203 1.2000007629394531"></path>
<path fill="none" stroke="black" stroke-width=".3" stroke-opacity="1.0"  filling="0" d="M76.69200134277344 1.2000007629394531 L82.19999694824219 1.3080005645751953 C80.57379150390625 2.2938854694366455 78.95003509521484 3.283745527267456 77.3277587890625 4.276025295257568 C75.70548248291016 5.268304824829102 74.08470153808594 6.263004302978516 72.46443939208984 7.258568286895752 C70.84417724609375 8.254132270812988 69.22444915771484 9.25055980682373 67.60429382324219 10.246296882629395 C65.984130859375 11.242033004760742 64.3635482788086 12.237078666687012 62.741573333740234 13.229877471923828 C61.293216705322266 14.116406440734863 59.74221420288086 15.29918098449707 58.14647674560547 16.38595199584961 C56.550743103027344 17.47272300720215 54.9102783203125 18.463489532470703 53.282997131347656 18.966001510620117 C51.53158950805664 19.50684356689453 49.28591537475586 19.25660514831543 47.477996826171875 19.290000915527344 L47.477996826171875 19.290000915527344 C49.412315368652344 18.062572479248047 51.352943420410156 16.845340728759766 53.297691345214844 15.634759902954102 C55.24243927001953 14.424178123474121 57.191307067871094 13.220246315002441 59.14209747314453 12.019417762756348 C61.092891693115234 10.818589210510254 63.04560852050781 9.620863914489746 64.99806213378906 8.422696113586426 C66.95051574707031 7.224527835845947 68.90269470214844 6.025916576385498 70.8524169921875 4.8233160972595215 C72.80213165283203 3.620715618133545 74.7493896484375 2.414125919342041 76.69200134277344 1.2000007629394531 L76.69200134277344 1.2000007629394531"></path>
<path fill="none" stroke="black" stroke-width=".3" stroke-opacity="1.0"  filling="0" d="M1.2000007629394531 5.843999862670898 L1.2000007629394531 5.843999862670898 C3.0843710899353027 6.97944974899292 4.9763383865356445 8.10200023651123 6.872104167938232 9.218100547790527 C8.76786994934082 10.334200859069824 10.667434692382812 11.443851470947266 12.566998481750488 12.55350112915039 C14.466562271118164 13.663151741027832 16.366127014160156 14.772802352905273 18.26189422607422 15.888901710510254 C20.15765953063965 17.005001068115234 22.04962730407715 18.127552032470703 23.933998107910156 19.26300048828125 L23.933998107910156 19.26300048828125 C22.039508819580078 19.274383544921875 20.145015716552734 19.280473709106445 18.250518798828125 19.283525466918945 C16.356021881103516 19.286577224731445 14.461523056030273 19.286592483520508 12.567021369934082 19.285829544067383 C10.67251968383789 19.28506851196289 8.778017044067383 19.283527374267578 6.8835129737854 19.283470153808594 C4.989008903503418 19.28341293334961 3.0945043563842773 19.284835815429688 1.2000007629394531 19.290000915527344 L1.2000007629394531 12.567000389099121 L1.2000007629394531 5.843999862670898"></path>
<path fill="none" stroke="black" stroke-width=".3" stroke-opacity="1.0"  filling="0" d="M13.695937156677246 7.553437232971191 L15.990938186645508 7.553437232971191 C15.985980033874512 9.727510452270508 15.989286422729492 11.901549339294434 15.990938186645508 14.075624465942383 L22.027969360351562 14.075624465942383 L28.065000534057617 14.075624465942383 L28.065000534057617 16.725000381469727 L22.027969360351562 16.725000381469727 L15.990938186645508 16.725000381469727 C15.989124298095703 18.899126052856445 15.986833572387695 21.073089599609375 15.999375343322754 23.247188568115234 L13.695937156677246 23.247188568115234 L13.695937156677246 16.725000381469727 L7.654687404632568 16.725000381469727 L1.6134376525878906 16.725000381469727 L1.6134376525878906 14.075624465942383 L7.654687404632568 14.075624465942383 L13.695937156677246 14.075624465942383 C13.697588920593262 11.901549339294434 13.700894355773926 9.727510452270508 13.695937156677246 7.553437232971191 L13.695937156677246 7.553437232971191"></path>
<path fill="none" stroke="black" stroke-width=".3" stroke-opacity="1.0"  filling="0" d="M18.06656265258789 17.239686965942383 L18.06656265258789 17.239686965942383 C19.793041229248047 17.259618759155273 21.569496154785156 18.07544708251953 23.275907516479492 19.102752685546875 C24.98232078552246 20.13005828857422 26.618690490722656 21.36884307861328 28.065000534057617 22.23468780517578 L27.93000030517578 23.145938873291016 C26.276630401611328 22.17721176147461 24.626434326171875 21.203378677368164 22.98175048828125 20.220361709594727 C21.337066650390625 19.23734474182129 19.697891235351562 18.24514389038086 18.06656265258789 17.239686965942383 L18.06656265258789 17.239686965942383"></path>
<path fill="none" stroke="black" stroke-width=".3" stroke-opacity="1.0"  filling="0" d="M13.046250343322754 17.248123168945312 L13.046250343322754 17.248123168945312 C11.499814987182617 18.2834415435791 9.909456253051758 19.250164031982422 8.318581581115723 20.216142654418945 C6.7277069091796875 21.18212127685547 5.136314868927002 22.14735221862793 3.5878124237060547 23.1796875 L1.6134376525878906 23.204999923706055 C3.657900333404541 21.969907760620117 5.694348335266113 20.722232818603516 7.726922512054443 19.46767807006836 C9.549424171447754 18.342784881591797 10.867414474487305 17.291412353515625 13.046250343322754 17.248123168945312 L13.046250343322754 17.248123168945312"></path>
<path fill="none" stroke="black" stroke-width=".3" stroke-opacity="1.0"  filling="0" d="M13.063124656677246 18.00749969482422 L13.063124656677246 18.00749969482422 C13.07463550567627 19.75405502319336 13.080394744873047 21.500612258911133 13.088438034057617 23.247188568115234 L8.819062232971191 23.247188568115234 L4.549686908721924 23.247188568115234 L5.23312520980835 22.81687355041504 C6.531807899475098 22.005199432373047 7.833492755889893 21.198137283325195 9.13841438293457 20.396352767944336 C10.443336486816406 19.59457015991211 11.751495361328125 18.798063278198242 13.063124656677246 18.00749969482422 L13.063124656677246 18.00749969482422"></path>
<path fill="none" stroke="black" stroke-width=".3" stroke-opacity="1.0"  filling="0" d="M16.69968605041504 18.01593780517578 L16.69968605041504 18.01593780517578 C17.994258880615234 18.79707908630371 19.276275634765625 19.659595489501953 20.572389602661133 20.49568748474121 C21.86850357055664 21.331777572631836 23.1787166595459 22.141441345214844 24.529685974121094 22.81687355041504 L25.221561431884766 23.247188568115234 L20.956405639648438 23.247188568115234 L16.69124984741211 23.247188568115234 L16.69124984741211 22.487812042236328 C16.69175910949707 20.997167587280273 16.694101333618164 19.506572723388672 16.69968605041504 18.01593780517578 L16.69968605041504 18.01593780517578"></path>
<path fill="none" stroke="black" stroke-width=".3" stroke-opacity="1.0"  filling="0" d="M59.70899963378906 19.236000061035156 L59.70899963378906 19.236000061035156 C61.57300567626953 18.109268188476562 63.446903228759766 16.999343872070312 65.3251953125 15.896897315979004 C67.2034912109375 14.794451713562012 69.086181640625 13.699484825134277 70.96776580810547 12.602670669555664 C72.84934997558594 11.50585651397705 74.72982788085938 10.407195091247559 76.60369873046875 9.297358512878418 C78.47756958007812 8.187522888183594 80.34483337402344 7.066512107849121 82.19999694824219 5.924999713897705 L82.19999694824219 12.607500076293945 L82.19999694824219 19.290000915527344 C79.7009506225586 19.28377914428711 77.20191955566406 19.286022186279297 74.70289611816406 19.28833770751953 C72.20387268066406 19.2906551361084 69.70487213134766 19.293046951293945 67.20588684082031 19.287120819091797 C64.7069091796875 19.28119468688965 62.207942962646484 19.266952514648438 59.70899963378906 19.236000061035156 L59.70899963378906 19.236000061035156"></path>
<path fill="none" stroke="black" stroke-width=".3" stroke-opacity="1.0"  filling="0" d="M1.2000007629394531 30.899999618530273 L1.2000007629394531 30.899999618530273 C3.099091053009033 30.9041748046875 4.998160362243652 30.90254020690918 6.897207260131836 30.899934768676758 C8.79625415802002 30.89733123779297 10.695279121398926 30.893756866455078 12.594280242919922 30.894052505493164 C14.493281364440918 30.89434814453125 16.39225959777832 30.898517608642578 18.29121208190918 30.911396026611328 C20.190166473388672 30.924274444580078 22.089096069335938 30.94586181640625 23.987998962402344 30.981002807617188 L23.987998962402344 30.981002807617188 C22.104673385620117 32.13694381713867 20.209592819213867 33.27305603027344 18.30863380432129 34.39925003051758 C16.40767478942871 35.525447845458984 14.500839233398438 36.641727447509766 12.594002723693848 37.75800704956055 C10.687166213989258 38.87428665161133 8.780329704284668 39.99056625366211 6.879369735717773 41.11676025390625 C4.978410720825195 42.242950439453125 3.0833282470703125 43.379058837890625 1.2000007629394531 44.53499984741211 L1.2000007629394531 37.717498779296875 L1.2000007629394531 30.899999618530273"></path>
<path fill="none" stroke="black" stroke-width=".3" stroke-opacity="1.0"  filling="0" d="M59.682003021240234 30.981002807617188 L59.682003021240234 30.981002807617188 C61.55840301513672 30.945894241333008 63.43482971191406 30.924320220947266 65.31128692626953 30.911447525024414 C67.18773651123047 30.898574829101562 69.06421661376953 30.89440155029297 70.94071960449219 30.89409637451172 C72.81721496582031 30.89379119873047 74.69374084472656 30.89735221862793 76.5702896118164 30.899946212768555 C78.44683837890625 30.902542114257812 80.32341003417969 30.904170989990234 82.19999694824219 30.899999618530273 L82.19999694824219 37.62300109863281 L82.19999694824219 44.34600067138672 C80.32582092285156 43.22809982299805 78.44520568847656 42.121158599853516 76.56254577636719 41.01773452758789 C74.67988586425781 39.914310455322266 72.79517364501953 38.81440734863281 70.91281127929688 37.71057891845703 C69.03045654296875 36.60675048828125 67.15044403076172 35.499000549316406 65.27717590332031 34.379886627197266 C63.403907775878906 33.26076889038086 61.537384033203125 32.130287170410156 59.682003021240234 30.981002807617188 L59.682003021240234 30.981002807617188"></path></svg>