<svg xmlns="http://www.w3.org/2000/svg" viewBox="0.0 0.0 24.0 24.0" height="200px" width="200px"><path fill="none" stroke="black" stroke-width=".3" stroke-opacity="1.0"  filling="0" d="M14.725312232971191 3.849374771118164 L14.725312232971191 3.849374771118164 C14.747812271118164 3.849374771118164 14.770312309265137 3.849374771118164 14.79281234741211 3.849374771118164 L14.79281234741211 3.8578128814697266 C16.917985916137695 4.074042320251465 18.307113647460938 4.74100399017334 20.268749237060547 5.469374656677246 C20.973793029785156 5.731163024902344 22.337858200073242 4.4751691818237305 22.994062423706055 4.288125038146973 C24.278465270996094 3.9220199584960938 25.615713119506836 3.768449068069458 26.917499542236328 4.203749656677246 C28.451101303100586 4.71656608581543 28.10488510131836 6.015979766845703 27.727500915527344 7.224375247955322 C27.05415916442871 9.380436897277832 26.3060359954834 11.771926879882812 24.698436737060547 13.375312805175781 L24.698436737060547 13.375312805175781 C24.740625381469727 13.634062767028809 24.782812118530273 13.892812728881836 24.825000762939453 14.151562690734863 L24.825000762939453 14.151562690734863 C23.435596466064453 15.784470558166504 24.756120681762695 16.911672592163086 24.681562423706055 18.952499389648438 C24.612850189208984 20.83331298828125 23.942371368408203 22.80353546142578 23.365310668945312 24.571874618530273 L23.365310668945312 24.571874618530273 C21.787755966186523 23.895431518554688 20.80567169189453 22.83540153503418 19.952808380126953 21.644458770751953 C19.099945068359375 20.453516006469727 18.376300811767578 19.13166046142578 17.315624237060547 17.931562423706055 C16.504770278930664 17.01412582397461 16.18630599975586 15.898124694824219 14.759062767028809 15.898124694824219 C13.331816673278809 15.898124694824219 13.01335334777832 17.01412582397461 12.202500343322754 17.931562423706055 C11.141824722290039 19.13166046142578 10.418180465698242 20.45351791381836 9.565316200256348 21.644458770751953 C8.712451934814453 22.835403442382812 7.730368614196777 23.895431518554688 6.152812480926514 24.571874618530273 L6.152812480926514 24.571874618530273 C5.575754642486572 22.803539276123047 4.905274868011475 20.83330535888672 4.836562156677246 18.952499389648438 C4.762003421783447 16.911672592163086 6.082528114318848 15.784469604492188 4.693124771118164 14.151562690734863 L4.693124771118164 14.151562690734863 C4.735312461853027 13.892812728881836 4.777499675750732 13.634062767028809 4.819687366485596 13.375312805175781 L4.819687366485596 13.375312805175781 C3.2120871543884277 11.771923065185547 2.4639687538146973 9.380438804626465 1.7906255722045898 7.224375247955322 C1.4132417440414429 6.015981674194336 1.0670247077941895 4.71656608581543 2.6006250381469727 4.203749656677246 C3.9024105072021484 3.768449068069458 5.23966121673584 3.922020673751831 6.524062156677246 4.288125038146973 C7.180267333984375 4.4751691818237305 8.544331550598145 5.731163024902344 9.249375343322754 5.469374656677246 C11.211008071899414 4.741004943847656 12.600137710571289 4.074042320251465 14.725312232971191 3.8578128814697266 L14.725312232971191 3.849374771118164"></path>
<path fill="none" stroke="black" stroke-width=".3" stroke-opacity="1.0"  filling="0" d="M4.338749408721924 4.794374942779541 L4.338749408721924 4.794374942779541 C5.8703484535217285 4.794374942779541 7.405457973480225 5.49239444732666 8.701362609863281 6.523787021636963 C9.997267723083496 7.555179595947266 11.05396842956543 8.919944763183594 11.62874984741211 10.253437042236328 L11.62874984741211 10.253437042236328 C10.403148651123047 9.71348762512207 9.215605735778809 9.154570579528809 7.927440643310547 8.775299072265625 C7.359297275543213 8.60802173614502 6.085752964019775 8.38342571258545 5.587499618530273 7.933125019073486 C4.772827625274658 7.196857929229736 4.111837387084961 5.81859827041626 3.596249580383301 4.887187480926514 L3.596249580383301 4.887187480926514 C3.843749523162842 4.856249809265137 4.091249465942383 4.825312614440918 4.338749408721924 4.794374942779541 L4.338749408721924 4.794374942779541"></path>
<path fill="none" stroke="black" stroke-width=".3" stroke-opacity="1.0"  filling="0" d="M24.92624855041504 4.794374942779541 L24.92624855041504 4.794374942779541 C25.25812339782715 4.825312614440918 25.59000015258789 4.856249809265137 25.921875 4.887187480926514 L25.921875 4.887187480926514 C25.406288146972656 5.818597316741943 24.745296478271484 7.196859836578369 23.930625915527344 7.933125019073486 C23.4323787689209 8.383420944213867 22.15882110595703 8.608024597167969 21.590686798095703 8.775299072265625 C20.30252456665039 9.154570579528809 19.114974975585938 9.71348762512207 17.889375686645508 10.253437042236328 L17.889375686645508 10.253437042236328 C18.519779205322266 8.790900230407715 19.519512176513672 7.5851898193359375 20.74138641357422 6.665586471557617 C21.963260650634766 5.7459821701049805 23.407276153564453 5.112484931945801 24.92624855041504 4.794374942779541 L24.92624855041504 4.794374942779541"></path>
<path fill="none" stroke="black" stroke-width=".3" stroke-opacity="1.0"  filling="0" d="M5.081249713897705 9.215624809265137 L5.081249713897705 9.215624809265137 C7.463050842285156 9.215624809265137 9.661911964416504 10.2916841506958 11.44312572479248 11.780625343322754 L11.44312572479248 11.780625343322754 C9.924903869628906 11.839385032653809 8.63298225402832 11.925498962402344 7.492241859436035 11.646952629089355 C6.35150146484375 11.368406295776367 5.361940383911133 10.725197792053223 4.448437690734863 9.325312614440918 L4.448437690734863 9.325312614440918 C4.659375190734863 9.288749694824219 4.870312213897705 9.252187728881836 5.081249713897705 9.215624809265137 L5.081249713897705 9.215624809265137"></path>
<path fill="none" stroke="black" stroke-width=".3" stroke-opacity="1.0"  filling="0" d="M24.217500686645508 9.215624809265137 L24.217500686645508 9.215624809265137 C24.501562118530273 9.252187728881836 24.785625457763672 9.288749694824219 25.069686889648438 9.325312614440918 L25.069686889648438 9.325312614440918 C24.15618324279785 10.725198745727539 23.166622161865234 11.368406295776367 22.025882720947266 11.646952629089355 C20.885143280029297 11.925498962402344 19.593223571777344 11.839384078979492 18.075000762939453 11.780625343322754 L18.075000762939453 11.780625343322754 C19.92913246154785 10.23072624206543 21.83837890625 9.573925971984863 24.217500686645508 9.215624809265137 L24.217500686645508 9.215624809265137"></path>
<path fill="none" stroke="black" stroke-width=".3" stroke-opacity="1.0"  filling="0" d="M14.759062767028809 10.202812194824219 L14.759062767028809 10.202812194824219 C14.968321800231934 10.539669036865234 14.9492826461792 11.044536590576172 14.759062767028809 11.392499923706055 L14.759062767028809 11.392499923706055 C14.568842887878418 11.044537544250488 14.549802780151367 10.539668083190918 14.759062767028809 10.202812194824219 L14.759062767028809 10.202812194824219"></path>
<path fill="none" stroke="black" stroke-width=".3" stroke-opacity="1.0"  filling="0" d="M14.303437232971191 12.438750267028809 L14.303437232971191 12.438750267028809 C14.607197761535645 12.438750267028809 14.910927772521973 12.438750267028809 15.21468734741211 12.438750267028809 L15.21468734741211 12.438750267028809 C15.062812805175781 12.82406234741211 14.910937309265137 13.209375381469727 14.759062767028809 13.594687461853027 L14.759062767028809 13.594687461853027 C14.607187271118164 13.209375381469727 14.455312728881836 12.82406234741211 14.303437232971191 12.438750267028809 L14.303437232971191 12.438750267028809"></path>
<path fill="none" stroke="black" stroke-width=".3" stroke-opacity="1.0"  filling="0" d="M10.093125343322754 12.68343734741211 L10.093125343322754 12.68343734741211 C10.874762535095215 12.78538990020752 12.963083267211914 12.944156646728516 13.113750457763672 14.168437957763672 C13.3189115524292 15.835525512695312 11.08866024017334 16.59855842590332 9.852093696594238 16.537567138671875 C8.71084976196289 16.481277465820312 6.061237812042236 15.33871078491211 6.858180046081543 13.715460777282715 C7.3748779296875 12.66302490234375 9.170974731445312 12.760125160217285 10.093125343322754 12.68343734741211 L10.093125343322754 12.68343734741211"></path>
<path fill="none" stroke="black" stroke-width=".3" stroke-opacity="1.0"  filling="0" d="M19.424999237060547 12.68343734741211 L19.424999237060547 12.68343734741211 C20.347148895263672 12.760126113891602 22.143247604370117 12.66302490234375 22.659944534301758 13.715460777282715 C23.456884384155273 15.33871078491211 20.807273864746094 16.481277465820312 19.666030883789062 16.537567138671875 C18.429466247558594 16.59855842590332 16.1992130279541 15.835524559020996 16.404373168945312 14.168437957763672 C16.555038452148438 12.944157600402832 18.64336395263672 12.78538990020752 19.424999237060547 12.68343734741211 L19.424999237060547 12.68343734741211"></path>
<path fill="none" stroke="black" stroke-width=".3" stroke-opacity="1.0"  filling="0" d="M6.633749961853027 16.0078125 L6.633749961853027 16.0078125 C7.176562309265137 16.376249313354492 7.719374656677246 16.744688034057617 8.262187004089355 17.11312484741211 L8.262187004089355 17.11312484741211 C8.259374618530273 17.186248779296875 8.256562232971191 17.259374618530273 8.25374984741211 17.33249855041504 L8.25374984741211 17.33249855041504 C7.606481552124023 17.534698486328125 6.949991226196289 17.70947265625 6.28781270980835 17.85562515258789 L6.28781270980835 17.85562515258789 C6.403125286102295 17.239686965942383 6.518437385559082 16.623750686645508 6.633749961853027 16.0078125 L6.633749961853027 16.0078125"></path>
<path fill="none" stroke="black" stroke-width=".3" stroke-opacity="1.0"  filling="0" d="M22.884374618530273 16.0078125 L22.884374618530273 16.0078125 C22.99968719482422 16.623750686645508 23.114999771118164 17.239686965942383 23.23031234741211 17.85562515258789 L23.23031234741211 17.85562515258789 C22.568134307861328 17.70947265625 21.911643981933594 17.534698486328125 21.264375686645508 17.33249855041504 L21.264375686645508 17.33249855041504 C21.26156234741211 17.259374618530273 21.25874900817871 17.186248779296875 21.255935668945312 17.11312484741211 L21.255935668945312 17.11312484741211 C21.798748016357422 16.744688034057617 22.341562271118164 16.376249313354492 22.884374618530273 16.0078125 L22.884374618530273 16.0078125"></path>
<path fill="none" stroke="black" stroke-width=".3" stroke-opacity="1.0"  filling="0" d="M9.021562576293945 17.872499465942383 L9.021562576293945 17.872499465942383 C9.06656265258789 17.93718719482422 9.111562728881836 18.001874923706055 9.156562805175781 18.06656265258789 L9.156562805175781 18.06656265258789 C8.247690200805664 19.003067016601562 7.412413120269775 19.864322662353516 6.372187614440918 20.656875610351562 L6.372187614440918 20.656875610351562 C5.844473838806152 18.203004837036133 6.847173690795898 18.49313735961914 9.021562576293945 17.872499465942383 L9.021562576293945 17.872499465942383"></path>
<path fill="none" stroke="black" stroke-width=".3" stroke-opacity="1.0"  filling="0" d="M20.496562957763672 17.872499465942383 L20.496562957763672 17.872499465942383 C22.67095184326172 18.49313735961914 23.67365264892578 18.203006744384766 23.145938873291016 20.656875610351562 L23.145938873291016 20.656875610351562 C22.105712890625 19.864322662353516 21.27043342590332 19.003067016601562 20.36156463623047 18.06656265258789 L20.36156463623047 18.06656265258789 C20.406564712524414 18.001874923706055 20.451562881469727 17.93718719482422 20.496562957763672 17.872499465942383 L20.496562957763672 17.872499465942383"></path>
<path fill="none" stroke="black" stroke-width=".3" stroke-opacity="1.0"  filling="0" d="M10.852499961853027 17.897811889648438 L10.852499961853027 17.897811889648438 C10.894998550415039 17.949417114257812 10.965520858764648 18.027812957763672 10.928437232971191 18.083436965942383 L10.135313034057617 19.315311431884766 C10.034632682800293 19.56700325012207 9.861783027648926 19.783437728881836 9.721875190734863 20.015625 L9.494062423706055 20.479686737060547 C8.850419044494629 21.48006820678711 7.99962043762207 22.34103775024414 7.131562232971191 23.154373168945312 L7.131562232971191 23.154373168945312 C6.988124847412109 22.648122787475586 6.597731590270996 22.151517868041992 6.701250076293945 21.635623931884766 C6.943078517913818 20.430448532104492 9.835029602050781 18.711044311523438 10.725937843322754 17.96531105041504 L10.725937843322754 17.96531105041504 C10.757054328918457 17.92901039123535 10.804980278015137 17.903091430664062 10.852499961853027 17.897811889648438 L10.852499961853027 17.897811889648438"></path>
<path fill="none" stroke="black" stroke-width=".3" stroke-opacity="1.0"  filling="0" d="M18.665624618530273 17.897811889648438 L18.665624618530273 17.897811889648438 C18.713144302368164 17.903091430664062 18.761070251464844 17.92901039123535 18.792186737060547 17.96531105041504 L18.792186737060547 17.96531105041504 C19.683095932006836 18.711044311523438 22.575044631958008 20.430444717407227 22.81687355041504 21.635623931884766 C22.920391082763672 22.151517868041992 22.529998779296875 22.648122787475586 22.38656234741211 23.154373168945312 L22.38656234741211 23.154373168945312 C21.518505096435547 22.34103775024414 20.667705535888672 21.48006820678711 20.024063110351562 20.479686737060547 L19.796249389648438 20.015625 C19.656341552734375 19.783437728881836 19.483488082885742 19.567005157470703 19.3828125 19.315311431884766 L18.58968734741211 18.083436965942383 C18.55260467529297 18.02781105041504 18.623126983642578 17.949417114257812 18.665624618530273 17.897811889648438 L18.665624618530273 17.897811889648438"></path></svg>