<svg xmlns="http://www.w3.org/2000/svg" viewBox="0.0 0.0 24.0 24.0" height="200px" width="200px"><path fill="none" stroke="black" stroke-width=".3" stroke-opacity="1.0"  filling="0" d="M18.994688034057617 1.9593753814697266 L18.994688034057617 1.9593753814697266 C20.92648696899414 2.5162580013275146 20.24393081665039 3.515671968460083 21.65250015258789 4.40625 C21.841245651245117 4.525585651397705 21.989999771118164 4.113749980926514 22.158750534057617 3.9674997329711914 L22.158750534057617 3.9674997329711914 C22.061702728271484 4.423985004425049 21.99663543701172 6.149678707122803 21.011249542236328 4.507499694824219 L21.011249542236328 4.507499694824219 C19.90234375 5.974400997161865 17.993215560913086 7.088351249694824 16.95281219482422 4.701562881469727 L16.95281219482422 4.701562881469727 C16.322813034057617 4.847812652587891 15.6928129196167 4.994062423706055 15.062812805175781 5.140312194824219 L13.392187118530273 6.540937423706055 C13.389374732971191 6.543749809265137 13.38656234741211 6.546562671661377 13.383749961853027 6.549375057220459 L13.31624984741211 6.591562747955322 C13.259964942932129 6.6478471755981445 13.184188842773438 6.681051731109619 13.113750457763672 6.718124866485596 L13.113750457763672 6.718124866485596 C13.172812461853027 6.74343729019165 13.2318754196167 6.768750190734863 13.290937423706055 6.794062614440918 L15.754687309265137 8.751562118530273 L17.813438415527344 6.785624980926514 C17.961580276489258 6.691351890563965 18.1113224029541 6.599612712860107 18.260623931884766 6.507187366485596 L22.108125686645508 5.89968729019165 C22.29840087890625 5.928228855133057 22.490304946899414 5.97093391418457 22.665000915527344 6.051562309265137 L25.297500610351562 8.262187004089355 C25.399751663208008 8.415575981140137 25.543615341186523 8.580333709716797 25.651874542236328 8.726249694824219 L26.934375762939453 11.86500072479248 C26.85562515258789 12.053438186645508 26.77687644958496 12.241874694824219 26.6981258392334 12.430312156677246 L26.166561126708984 12.649687767028809 C25.975311279296875 12.570938110351562 25.7840633392334 12.4921875 25.59281349182129 12.413437843322754 L24.33562469482422 9.342187881469727 L23.06999969482422 8.270625114440918 L24.048749923706055 14.06718635559082 L25.02750015258789 19.86374855041504 L23.73656463623047 19.86374855041504 C23.73656463623047 20.10296058654785 23.592689514160156 20.411827087402344 23.76187515258789 20.580936431884766 L25.314374923706055 25.837499618530273 C25.21875 26.014686584472656 25.123125076293945 26.191875457763672 25.02750015258789 26.369062423706055 L24.057186126708984 26.65593719482422 C23.8799991607666 26.560312271118164 23.70281410217285 26.46468734741211 23.52562713623047 26.369062423706055 L21.96468734741211 21.112499237060547 C21.96468734741211 20.69451141357422 21.86343765258789 20.306697845458984 21.86343765258789 19.86374855041504 L21.146249771118164 19.86374855041504 C21.146249771118164 20.195043563842773 21.137813568115234 20.523746490478516 21.137813568115234 20.850936889648438 L21.137813568115234 26.335311889648438 C20.994375228881836 26.478750228881836 20.85093879699707 26.6221866607666 20.707500457763672 26.765625 L19.70343780517578 26.765625 C19.557188034057617 26.6221866607666 19.410938262939453 26.478750228881836 19.26468849182129 26.335311889648438 L19.26468849182129 20.850936889648438 C19.26468849182129 20.523880004882812 19.27312469482422 20.19602394104004 19.27312469482422 19.86374855041504 L17.96531105041504 19.86374855041504 L18.918750762939453 14.362500190734863 L18.01593780517578 8.591249465942383 L16.31999969482422 10.211250305175781 C15.987049102783203 10.32224178314209 15.525465965270996 10.403921127319336 15.273750305175781 10.15218734741211 L15.273750305175781 10.15218734741211 C15.2006254196167 10.112812042236328 15.1274995803833 10.073437690734863 15.054374694824219 10.034062385559082 L12.396562576293945 7.933125019073486 C12.37125015258789 7.730625152587891 12.345937728881836 7.528124809265137 12.320625305175781 7.325624942779541 L12.607500076293945 6.95437479019165 C11.684788703918457 7.323752403259277 10.759099960327148 7.685728549957275 9.831562042236328 8.04281234741211 L10.434843063354492 12.054842948913574 L11.038125038146973 16.06687355041504 C10.942500114440918 16.260936737060547 10.846875190734863 16.454999923706055 10.751250267028809 16.649063110351562 L10.751250267028809 16.649063110351562 C10.768125534057617 16.716562271118164 10.78499984741211 16.7840633392334 10.801875114440918 16.8515625 L10.801875114440918 20.580936431884766 C10.801875114440918 20.6666259765625 10.794731140136719 20.706138610839844 10.801875114440918 20.791873931884766 L10.801875114440918 26.360624313354492 C10.655625343322754 26.50406265258789 10.509374618530273 26.647499084472656 10.36312484741211 26.790937423706055 L8.928750038146973 26.790937423706055 C8.782500267028809 26.647499084472656 8.636250495910645 26.50406265258789 8.49000072479248 26.360624313354492 L8.49000072479248 20.791873931884766 C8.495606422424316 20.724607467651367 8.495606422424316 20.656641006469727 8.49000072479248 20.589374542236328 L8.49000072479248 17.037185668945312 L7.941562652587891 17.12156105041504 L7.941562652587891 20.631563186645508 C7.936169624328613 20.70166778564453 7.935723304748535 20.772430419921875 7.941562652587891 20.842500686645508 L7.941562652587891 26.411251068115234 C7.798125267028809 26.5546875 7.654687404632568 26.6981258392334 7.511250019073486 26.841562271118164 L6.068437576293945 26.841562271118164 C5.922187328338623 26.6981258392334 5.775937557220459 26.5546875 5.629687309265137 26.411251068115234 L5.629687309265137 20.842500686645508 C5.635526657104492 20.772430419921875 5.635080337524414 20.70166778564453 5.629687309265137 20.631563186645508 L5.629687309265137 17.340938568115234 C5.53125 17.203125 5.432812213897705 17.0653133392334 5.334374904632568 16.927499771118164 L4.667812347412109 12.506250381469727 L4.001249313354492 8.085000038146973 C4.164374828338623 7.865624904632568 4.327499866485596 7.646250247955322 4.490625381469727 7.426875114440918 L9.046875 6.74343729019165 C9.108750343322754 6.74343729019165 9.170624732971191 6.74343729019165 9.232500076293945 6.74343729019165 L12.47249984741211 5.427187442779541 L13.932188034057617 4.203749656677246 C13.881562232971191 3.9759371280670166 13.830937385559082 3.748124837875366 13.780311584472656 3.5203123092651367 L13.780311584472656 3.5203123092651367 C13.904062271118164 3.6862497329711914 14.027812004089355 3.852187156677246 14.151562690734863 4.018124580383301 L14.421562194824219 3.790311813354492 C14.609980583190918 3.7135496139526367 14.84015941619873 3.7738137245178223 15.029062271118164 3.849374771118164 L15.400312423706055 4.296562194824219 C15.403124809265137 4.302186965942383 15.405938148498535 4.307812213897705 15.408750534057617 4.313436985015869 L15.408750534057617 4.313436985015869 C16.628812789916992 3.349057674407959 17.46959114074707 2.3182215690612793 18.994688034057617 1.9593753814697266 L18.994688034057617 1.9593753814697266"></path>
<path fill="none" stroke="black" stroke-width=".3" stroke-opacity="1.0"  filling="0" d="M6.304687023162842 2.4993743896484375 L6.304687023162842 2.4993743896484375 C6.7933349609375 2.6609256267547607 7.373176097869873 2.657064914703369 7.770631313323975 2.9840281009674072 C9.182138442993164 4.1451921463012695 8.565814018249512 6.523816108703613 6.7265625 6.802500247955322 C3.8212807178497314 7.242710113525391 3.3906681537628174 2.835606813430786 6.304687023162842 2.4993743896484375 L6.304687023162842 2.4993743896484375"></path>
<path fill="none" stroke="black" stroke-width=".3" stroke-opacity="1.0"  filling="0" d="M3.385312080383301 7.739062786102295 L3.385312080383301 7.739062786102295 C3.5484371185302734 7.860000133514404 3.711562156677246 7.980937957763672 3.8746871948242188 8.101875305175781 L4.448437690734863 11.873437881469727 C4.448437690734863 11.963704109191895 4.482187271118164 12.043649673461914 4.482187271118164 12.126562118530273 L5.039062023162842 15.796875 C4.918124675750732 15.962812423706055 4.797186851501465 16.12874984741211 4.6762495040893555 16.294687271118164 L4.102499485015869 16.37906265258789 C3.9393746852874756 16.25812530517578 3.776249647140503 16.137187957763672 3.6131248474121094 16.016250610351562 L3.064687728881836 12.337499618530273 C3.0401875972747803 12.263996124267578 3.046787738800049 12.188621520996094 3.0225000381469727 12.109687805175781 L2.4571876525878906 8.312812805175781 C2.578125 8.149687767028809 2.6990623474121094 7.986562728881836 2.8199996948242188 7.823437690734863 L3.385312080383301 7.739062786102295"></path></svg>