<svg xmlns="http://www.w3.org/2000/svg" viewBox="0.0 0.0 24.0 24.0" height="200px" width="200px"><path fill="none" stroke="black" stroke-width=".3" stroke-opacity="1.0"  filling="0" d="M9.091560363769531 3.9127445220947266 L9.091560363769531 3.9127445220947266 C10.702183723449707 4.4870524406433105 12.212933540344238 4.481930732727051 13.923263549804688 4.543896198272705 L14.029536247253418 4.542816162109375 C14.83281421661377 4.685619354248047 15.641242027282715 4.99034309387207 16.28673553466797 5.489328384399414 L16.28673553466797 5.489328384399414 C16.286014556884766 5.484216213226318 16.285295486450195 5.479104518890381 16.284574508666992 5.473992347717285 L16.284574508666992 5.473992347717285 C15.952705383300781 4.84240198135376 15.8055419921875 4.071352958679199 15.28896713256836 3.579221248626709 C13.729105949401855 2.093170642852783 10.20617961883545 2.052971839904785 9.074928283691406 3.9034557342529297 L9.091560363769531 3.9127445220947266"></path>
<path fill="none" stroke="black" stroke-width=".3" stroke-opacity="1.0"  filling="0" d="M16.284791946411133 9.258095741271973 L16.284791946411133 9.258095741271973 C16.86754608154297 9.558836936950684 16.66253089904785 10.53249740600586 16.66538429260254 11.188271522521973 L16.66538429260254 11.188271522521973 C16.47804069519043 11.386991500854492 16.290695190429688 11.585711479187012 16.103351593017578 11.784431457519531 L16.103351593017578 11.784431457519531 C15.574877738952637 13.920583724975586 14.259174346923828 15.590776443481445 12.124847412109375 16.16383171081543 L12.098063468933105 16.16383171081543 C9.947887420654297 15.586153030395508 8.680283546447754 13.913642883300781 8.10206413269043 11.78551197052002 L8.10206413269043 11.78551197052002 C7.83955192565918 11.593343734741211 7.577040195465088 11.401176452636719 7.314527988433838 11.20900821685791 L7.314527988433838 11.20900821685791 C7.293183326721191 10.553818702697754 7.050930023193359 9.586880683898926 7.622976303100586 9.26673698425293 L7.622976303100586 9.26673698425293 C7.558536529541016 8.883049011230469 7.494096279144287 8.499360084533691 7.429656505584717 8.11567211151123 L7.37932825088501 7.945464611053467 C7.129105091094971 5.772372245788574 7.282296657562256 5.213024139404297 9.083568572998047 3.935640335083008 L9.083568572998047 3.935640335083008 C9.08342456817627 3.935136079788208 9.083279609680176 3.9346320629119873 9.083135604858398 3.9341278076171875 L9.083135604858398 3.9341278076171875 C9.295607566833496 4.247255802154541 9.68503189086914 4.496773719787598 9.720551490783691 4.873512268066406 C9.73855972290039 5.064523696899414 9.343964576721191 4.9857940673828125 9.193511962890625 5.1048479080200195 C8.764825820922852 5.4440693855285645 8.256518363952637 5.748420238494873 8.002903938293457 6.232695579528809 C7.565744400024414 7.067448139190674 7.631588459014893 8.341896057128906 7.62492036819458 9.27515983581543 L7.635936260223389 9.286176681518555 C7.745001792907715 8.440507888793945 7.8383564949035645 7.367550849914551 8.237664222717285 6.633488178253174 C8.607081413269043 5.954373359680176 10.204482078552246 5.363462924957275 10.148232460021973 4.6331048011779785 L10.148232460021973 4.6331048011779785 C11.418923377990723 4.883891582489014 12.635438919067383 5.0309576988220215 13.932120323181152 5.017584323883057 L14.02284049987793 5.016720294952393 C16.514184951782227 5.638364791870117 16.55939483642578 6.9948015213012695 16.284791946411133 9.258095741271973 L16.284791946411133 9.258095741271973"></path>
<path fill="none" stroke="black" stroke-width=".3" stroke-opacity="1.0"  filling="0" d="M22.685733795166016 20.4224853515625 L22.685733795166016 20.4224853515625 C22.705102920532227 20.75807762145996 22.724470138549805 21.093671798706055 22.743839263916016 21.429264068603516 L15.580343246459961 21.429264068603516 L8.416848182678223 21.429264068603516 L1.253352165222168 21.429264068603516 C1.4041404724121094 18.806777954101562 3.4648404121398926 18.402252197265625 5.617011547088623 17.597909927368164 C5.7503886222839355 17.54806137084961 7.861024856567383 16.836484909057617 8.110272407531738 16.525632858276367 C8.368742942810059 16.203277587890625 8.09585952758789 15.516485214233398 8.469048500061035 15.339143753051758 C9.268037796020508 14.95945930480957 11.263644218444824 16.47693634033203 12.098495483398438 16.66970443725586 L12.125280380249023 16.66970443725586 C12.715972900390625 16.533533096313477 15.091650009155273 14.986307144165039 15.504598617553711 15.201334953308105 C15.899471282958984 15.406950950622559 15.605467796325684 16.130123138427734 15.874824523925781 16.48459243774414 C16.10317039489746 16.785091400146484 18.263090133666992 17.551034927368164 18.366329193115234 17.590835571289062 C20.319303512573242 18.34373664855957 21.546871185302734 18.621253967285156 22.685733795166016 20.4224853515625 L22.685733795166016 20.4224853515625"></path></svg>