<svg xmlns="http://www.w3.org/2000/svg" viewBox="0.0 0.0 24.0 24.0" height="200px" width="200px"><path fill="none" stroke="black" stroke-width=".3" stroke-opacity="1.0"  filling="0" d="M12.065231323242188 4.063511848449707 L10.71069622039795 4.308024883270264 L12.065231323242188 4.063511848449707"></path>
<path fill="none" stroke="black" stroke-width=".3" stroke-opacity="1.0"  filling="0" d="M12.20152759552002 4.243656158447266 L12.369359970092773 4.025712013244629 L13.990008354187012 4.334376335144043 L12.20152759552002 4.243656158447266"></path>
<path fill="none" stroke="black" stroke-width=".3" stroke-opacity="1.0"  filling="0" d="M12.075167655944824 4.495296001434326 L15.493367195129395 5.900808334350586 L11.755919456481934 6.619656085968018 L12.075167655944824 4.495296001434326"></path>
<path fill="none" stroke="black" stroke-width=".3" stroke-opacity="1.0"  filling="0" d="M8.960016250610352 4.629000663757324 L11.29800033569336 4.491407871246338 L8.162328720092773 5.7018723487854 L8.960016250610352 4.629000663757324"></path>
<path fill="none" stroke="black" stroke-width=".3" stroke-opacity="1.0"  filling="0" d="M8.478768348693848 4.91152811050415 L7.784327983856201 5.845296382904053 L6.155904293060303 6.336048126220703 L8.478768348693848 4.91152811050415"></path>
<path fill="none" stroke="black" stroke-width=".3" stroke-opacity="1.0"  filling="0" d="M15.964462280273438 5.850480079650879 L15.726431846618652 4.7583842277526855 L18.386472702026367 6.480552673339844 L15.964462280273438 5.850480079650879"></path>
<path fill="none" stroke="black" stroke-width=".3" stroke-opacity="1.0"  filling="0" d="M11.625240325927734 6.86460018157959 L11.625240325927734 6.86460018157959 C11.574256896972656 6.844148635864258 11.53536319732666 6.791757583618164 11.517671585083008 6.739752292633057 L11.880767822265625 4.325952053070068 C11.91309642791748 4.27888298034668 11.972813606262207 4.244994163513184 12.029808044433594 4.241496562957764 L15.913920402526855 5.838816165924072 C15.949679374694824 5.898453235626221 15.940108299255371 5.9950761795043945 15.893183708190918 6.046392440795898 L11.645760536193848 6.862656116485596 C11.638920783996582 6.863304138183594 11.632080078125 6.863952159881592 11.625240325927734 6.86460018157959 L11.625240325927734 6.86460018157959"></path>
<path fill="none" stroke="black" stroke-width=".3" stroke-opacity="1.0"  filling="0" d="M19.012222290039062 6.864816188812256 L19.012222290039062 6.864816188812256 C19.00307846069336 6.863592147827148 18.993934631347656 6.862368106842041 18.984790802001953 6.861144065856934 L15.845015525817871 6.044448375701904 C15.818663597106934 6.017088413238525 15.79231071472168 5.9897284507751465 15.765958786010742 5.962368488311768 L15.457295417785645 4.546704292297363 C15.481950759887695 4.484226226806641 15.55580997467041 4.4330854415893555 15.622968673706055 4.432008743286133 L19.071407318115234 6.664368629455566 C19.09141731262207 6.731100559234619 19.070594787597656 6.826786994934082 19.012222290039062 6.864816188812256 L19.012222290039062 6.864816188812256"></path>
<path fill="none" stroke="black" stroke-width=".3" stroke-opacity="1.0"  filling="0" d="M19.419815063476562 9.173640251159668 L19.17357635498047 7.176720142364502 L20.82316780090332 9.535223960876465 L19.419815063476562 9.173640251159668"></path>
<path fill="none" stroke="black" stroke-width=".3" stroke-opacity="1.0"  filling="0" d="M4.586880207061768 9.305831909179688 L7.298543930053711 9.516863822937012 L4.700496673583984 12.959039688110352 L4.586880207061768 9.305831909179688"></path>
<path fill="none" stroke="black" stroke-width=".3" stroke-opacity="1.0"  filling="0" d="M15.737663269042969 9.575183868408203 L19.1904239654541 9.376895904541016 L18.529462814331055 13.25928020477295 L15.737663269042969 9.575183868408203"></path>
<path fill="none" stroke="black" stroke-width=".3" stroke-opacity="1.0"  filling="0" d="M7.658616065979004 9.575615882873535 L11.204472541809082 10.486920356750488 L8.768856048583984 13.734695434570312 L7.658616065979004 9.575615882873535"></path>
<path fill="none" stroke="black" stroke-width=".3" stroke-opacity="1.0"  filling="0" d="M15.562271118164062 9.704784393310547 L18.392736434936523 13.439207077026367 L14.0552396774292 13.941840171813965 L15.562271118164062 9.704784393310547"></path>
<path fill="none" stroke="black" stroke-width=".3" stroke-opacity="1.0"  filling="0" d="M3.4064407348632812 9.791183471679688 L4.230263710021973 9.417936325073242 L2.90445613861084 11.940815925598145 L3.4064407348632812 9.791183471679688"></path>
<path fill="none" stroke="black" stroke-width=".3" stroke-opacity="1.0"  filling="0" d="M21.081071853637695 9.823151588439941 L21.081071853637695 9.823151588439941 C21.072071075439453 9.821928024291992 21.063072204589844 9.820703506469727 21.0540714263916 9.819479942321777 L19.293455123901367 9.365880012512207 C19.26652717590332 9.335135459899902 19.239599227905273 9.304391860961914 19.212671279907227 9.27364730834961 L18.904224395751953 6.768912315368652 C18.940393447875977 6.708591938018799 19.033977508544922 6.672676086425781 19.101215362548828 6.693312168121338 L21.170495986938477 9.651647567749023 C21.17060661315918 9.716119766235352 21.13820457458496 9.793277740478516 21.081071853637695 9.823151588439941 L21.081071853637695 9.823151588439941"></path>
<path fill="none" stroke="black" stroke-width=".3" stroke-opacity="1.0"  filling="0" d="M11.498015403747559 10.429032325744629 L11.280719757080078 10.415207862854004 L11.502768516540527 6.96504020690918 L7.5644402503967285 9.515135765075684 C7.499051570892334 9.516109466552734 7.425971984863281 9.471723556518555 7.396823883056641 9.413183212280273 L7.712399959564209 6.222648620605469 L4.5499444007873535 9.266304969787598 C4.479531764984131 9.273064613342285 4.394396781921387 9.217827796936035 4.371960639953613 9.15074348449707 L4.985832691192627 7.456439971923828 L3.402552604675293 9.775632858276367 L3.2226247787475586 9.652728080749512 L5.291904449462891 6.621816158294678 C5.361666202545166 6.603997707366943 5.457813262939453 6.653298377990723 5.48414421081543 6.720312118530273 L4.736352443695068 8.784624099731445 L7.774824142456055 5.860416412353516 C7.842094421386719 5.849776268005371 7.925334453582764 5.890217304229736 7.958640098571777 5.949624538421631 L7.635936260223389 9.209280014038086 L11.566056251525879 6.6641526222229 C11.630931854248047 6.662680625915527 11.703573226928711 6.70517110824585 11.73410415649414 6.76243257522583 L11.498015403747559 10.429032325744629"></path>
<path fill="none" stroke="black" stroke-width=".3" stroke-opacity="1.0"  filling="0" d="M11.569727897644043 10.492535591125488 L15.358366966247559 9.628536224365234 L13.86299991607666 13.832327842712402 L11.569727897644043 10.492535591125488"></path>
<path fill="none" stroke="black" stroke-width=".3" stroke-opacity="1.0"  filling="0" d="M2.764920234680176 12.674568176269531 L4.378224849700928 9.604559898376465 L4.488167762756348 13.129032135009766 L2.764920234680176 12.674568176269531"></path>
<path fill="none" stroke="black" stroke-width=".3" stroke-opacity="1.0"  filling="0" d="M2.7472095489501953 12.895320892333984 L4.463112831115723 13.347840309143066 L3.4803123474121094 16.452192306518555 L2.7472095489501953 12.895320892333984"></path>
<path fill="none" stroke="black" stroke-width=".3" stroke-opacity="1.0"  filling="0" d="M21.522790908813477 13.07697582244873 L21.91936683654785 12.702648162841797 L21.783504486083984 15.173256874084473 L21.522790908813477 13.07697582244873"></path>
<path fill="none" stroke="black" stroke-width=".3" stroke-opacity="1.0"  filling="0" d="M21.3126220703125 13.088208198547363 L19.233192443847656 9.327431678771973 L15.958847999572754 6.1736159324646 L15.635929107666016 9.488784790039062 C15.599565505981445 9.539891242980957 15.52755355834961 9.573122024536133 15.465071678161621 9.567623138427734 L11.580743789672852 6.857471942901611 L7.854528427124023 6.051360130310059 L5.413296699523926 6.7874884605407715 C5.347744464874268 6.757632732391357 5.303670406341553 6.659095287322998 5.324952125549316 6.590280055999756 L8.845968246459961 4.430496692657471 C8.853371620178223 4.4270853996276855 8.860064506530762 4.420344352722168 8.868215560913086 4.420344352722168 L8.868215560913086 4.420344352722168 C8.868359565734863 4.420344352722168 8.86850357055664 4.420344352722168 8.868647575378418 4.420344352722168 L8.868647575378418 4.420344352722168 C8.868720054626465 4.420272350311279 8.868792533874512 4.420200347900391 8.868865013122559 4.420128345489502 L8.868865013122559 4.420128345489502 C8.869224548339844 4.420128345489502 8.869584083557129 4.420128345489502 8.869943618774414 4.420128345489502 L8.869943618774414 4.420128345489502 C8.870158195495605 4.420128345489502 8.870378494262695 4.420128345489502 8.87059211730957 4.420128345489502 L8.87059211730957 4.420128345489502 C8.874162673950195 4.420128345489502 8.877370834350586 4.41753625869751 8.880960464477539 4.41753625869751 L8.881175994873047 4.41753625869751 C8.881464004516602 4.417464256286621 8.881752014160156 4.417392730712891 8.882040023803711 4.417320728302002 L8.882040023803711 4.417320728302002 C8.882112503051758 4.417320728302002 8.882184982299805 4.417320728302002 8.882257461547852 4.417320728302002 L8.882257461547852 4.417320728302002 C8.882328987121582 4.417320728302002 8.882401466369629 4.417320728302002 8.88247299194336 4.417320728302002 L8.88247299194336 4.417320728302002 C8.882616996765137 4.417320728302002 8.882760047912598 4.417320728302002 8.882904052734375 4.417320728302002 L8.882904052734375 4.417320728302002 C8.882976531982422 4.417320728302002 8.883048057556152 4.417320728302002 8.8831205368042 4.417320728302002 L8.8831205368042 4.417320728302002 C8.88319206237793 4.417320728302002 8.883264541625977 4.417320728302002 8.883336067199707 4.417320728302002 L12.304344177246094 3.800424575805664 C12.31766414642334 3.800496816635132 12.330985069274902 3.8005688190460205 12.344305038452148 3.8006410598754883 L15.583871841430664 4.41753625869751 C15.626663208007812 4.4759931564331055 15.61340618133545 4.586704254150391 15.557950973510742 4.633320331573486 L12.005616188049316 4.453176498413086 L8.228856086730957 5.9109601974487305 L11.6481351852417 6.650760173797607 C11.661239624023438 6.656520366668701 11.674344062805176 6.662280082702637 11.687448501586914 6.6680402755737305 L15.436991691589355 9.28380012512207 L15.76358413696289 5.929968357086182 C15.803601264953613 5.878237724304199 15.883584022521973 5.84860897064209 15.947615623474121 5.861928462982178 L19.396053314208984 9.183359146118164 C19.402606964111328 9.191927909851074 19.40915870666504 9.200495719909668 19.415712356567383 9.209064483642578 L21.502918243408203 12.98409652709961 L21.3126220703125 13.088208198547363"></path>
<path fill="none" stroke="black" stroke-width=".3" stroke-opacity="1.0"  filling="0" d="M4.795968532562256 13.194479942321777 L7.457520008087158 9.667632102966309 L8.572080612182617 13.843344688415527 L4.795968532562256 13.194479942321777"></path>
<path fill="none" stroke="black" stroke-width=".3" stroke-opacity="1.0"  filling="0" d="M18.58519172668457 13.793448448181152 L19.951608657836914 17.18529510498047 L16.576608657836914 17.909759521484375 L18.58519172668457 13.793448448181152"></path>
<path fill="none" stroke="black" stroke-width=".3" stroke-opacity="1.0"  filling="0" d="M8.936256408691406 13.8744478225708 L11.385263442993164 10.608743667602539 L13.684368133544922 13.957391738891602 L8.936256408691406 13.8744478225708"></path>
<path fill="none" stroke="black" stroke-width=".3" stroke-opacity="1.0"  filling="0" d="M14.077272415161133 14.158488273620605 L18.409366607666016 13.656719207763672 L16.36859893798828 17.83826446533203 L14.077272415161133 14.158488273620605"></path>
<path fill="none" stroke="black" stroke-width=".3" stroke-opacity="1.0"  filling="0" d="M13.896912574768066 14.281176567077637 L16.195152282714844 17.97110366821289 L11.481599807739258 18.424270629882812 L13.896912574768066 14.281176567077637"></path>
<path fill="none" stroke="black" stroke-width=".3" stroke-opacity="1.0"  filling="0" d="M2.7137279510498047 15.929040908813477 L2.7137279510498047 13.812888145446777 L3.2757606506347656 16.539024353027344 C3.088416337966919 16.335697174072266 2.9010722637176514 16.132368087768555 2.7137279510498047 15.929040908813477 L2.7137279510498047 15.929040908813477"></path>
<path fill="none" stroke="black" stroke-width=".3" stroke-opacity="1.0"  filling="0" d="M3.594575881958008 16.81247901916504 L4.615608215332031 13.587383270263672 L6.333456516265869 17.687711715698242 L3.594575881958008 16.81247901916504"></path>
<path fill="none" stroke="black" stroke-width=".3" stroke-opacity="1.0"  filling="0" d="M20.101295471191406 17.373432159423828 L20.101295471191406 17.373432159423828 C20.04634666442871 17.353374481201172 20.013559341430664 17.2883243560791 19.99718475341797 17.232168197631836 L21.297502517700195 13.02448844909668 L20.973072052001953 9.725088119506836 C21.015308380126953 9.666687965393066 21.12105369567871 9.643080711364746 21.18410301208496 9.678000450134277 L22.146167755126953 12.400464057922363 L21.940752029418945 12.473039627075195 L21.277847290039062 10.596431732177734 L21.51652717590332 13.025352478027344 C21.515087127685547 13.039536476135254 21.513647079467773 13.053719520568848 21.51220703125 13.067903518676758 L20.28122329711914 17.051591873168945 L21.776592254638672 16.296239852905273 L21.8748722076416 16.49042510986328 L20.150543212890625 17.36155128479004 C20.134126663208008 17.365510940551758 20.117712020874023 17.36947250366211 20.101295471191406 17.373432159423828 L20.101295471191406 17.373432159423828"></path>
<path fill="none" stroke="black" stroke-width=".3" stroke-opacity="1.0"  filling="0" d="M6.698495864868164 17.77864646911621 L8.720903396606445 14.201472282409668 L11.077679634094238 18.41368865966797 L6.698495864868164 17.77864646911621"></path>
<path fill="none" stroke="black" stroke-width=".3" stroke-opacity="1.0"  filling="0" d="M11.280503273010254 18.66187286376953 L11.280503273010254 18.66187286376953 C11.275247573852539 18.66151237487793 11.269991874694824 18.661151885986328 11.26473617553711 18.660791397094727 L6.509496212005615 17.9713191986084 C6.461036205291748 17.935958862304688 6.428438186645508 17.869714736938477 6.430224418640137 17.809751510620117 L8.626296043395996 13.926071166992188 C8.657941818237305 13.90754508972168 8.684667587280273 13.870559692382812 8.721336364746094 13.870559692382812 L8.721336364746094 13.870559692382812 C8.752943992614746 13.88920783996582 8.784552574157715 13.907855987548828 8.816160202026367 13.926504135131836 L11.375328063964844 18.50008773803711 C11.37238883972168 18.56252670288086 11.33581256866455 18.632747650146484 11.280503273010254 18.66187286376953 L11.280503273010254 18.66187286376953"></path>
<path fill="none" stroke="black" stroke-width=".3" stroke-opacity="1.0"  filling="0" d="M11.280503273010254 18.66187286376953 L11.280503273010254 18.66187286376953 C11.225264549255371 18.631847381591797 11.187548637390137 18.561431884765625 11.186111450195312 18.498577117919922 L13.706183433532715 14.17576789855957 L8.719392776489258 14.088288307189941 C8.71924877166748 14.088288307189941 8.719104766845703 14.088288307189941 8.718960762023926 14.088288307189941 L8.718960762023926 14.088288307189941 C8.718672752380371 14.088288307189941 8.7183837890625 14.088288307189941 8.718095779418945 14.088288307189941 L8.718095779418945 14.088288307189941 C8.717666625976562 14.088288307189941 8.717229843139648 14.088288307189941 8.716800689697266 14.088288307189941 L8.716800689697266 14.088288307189941 C8.711904525756836 14.087712287902832 8.707008361816406 14.087135314941406 8.702112197875977 14.086559295654297 L4.778688430786133 13.412639617919922 L6.62592077255249 17.821414947509766 C6.614635467529297 17.886335372924805 6.556100845336914 17.950237274169922 6.492432594299316 17.96721649169922 L3.4258804321289062 16.987438201904297 C2.990316152572632 16.83184051513672 2.8020176887512207 16.304367065429688 2.496000289916992 15.957551956176758 L2.496000289916992 12.745416641235352 C2.49666166305542 12.738433837890625 2.497943878173828 12.731478691101074 2.497943878173828 12.724464416503906 L2.497943878173828 12.724464416503906 C2.498016357421875 12.724320411682129 2.498088836669922 12.724176406860352 2.4981613159179688 12.724032402038574 L2.4981613159179688 12.724032402038574 C2.4984490871429443 12.722736358642578 2.498736619949341 12.721439361572266 2.4990243911743164 12.72014331817627 L3.20664119720459 9.689448356628418 C3.2270166873931885 9.664680480957031 3.247392416000366 9.639911651611328 3.267767906188965 9.615143775939941 L4.429416656494141 9.088751792907715 C4.447416305541992 9.08565616607666 4.465416431427002 9.082559585571289 4.4834160804748535 9.079463958740234 L7.512816429138184 9.315336227416992 C7.516631126403809 9.315776824951172 7.520423889160156 9.316632270812988 7.524263858795166 9.316632270812988 L7.524263858795166 9.316632270812988 C7.527071952819824 9.317208290100098 7.529880046844482 9.317784309387207 7.532688140869141 9.318360328674316 L11.390448570251465 10.309800148010254 L15.50243854522705 9.371928215026855 C15.50879192352295 9.370726585388184 15.515227317810059 9.369955062866211 15.521663665771484 9.369336128234863 L19.314191818237305 9.15160846710205 C19.366592407226562 9.173269271850586 19.411893844604492 9.223915100097656 19.42759132385254 9.278400421142578 L18.727535247802734 13.391687393188477 L21.356689453125 12.933768272399902 L21.968183517456055 12.357048034667969 C22.034713745117188 12.346317291259766 22.11684226989746 12.384397506713867 22.151567459106445 12.44215202331543 L21.933839797973633 16.398839950561523 C21.882165908813477 16.44944953918457 21.771995544433594 16.45313262939453 21.71697425842285 16.40618324279785 L21.313919067382812 13.162511825561523 L18.74589729309082 13.609848022460938 L20.202167510986328 17.223526000976562 C20.199296951293945 17.27910804748535 20.16837501525879 17.337493896484375 20.12397575378418 17.37105369567871 L16.404239654541016 18.169391632080078 C16.397886276245117 18.1702823638916 16.396690368652344 18.1709041595459 16.392576217651367 18.1709041595459 L16.392576217651367 18.1709041595459 C16.39192771911621 18.171049118041992 16.391281127929688 18.171192169189453 16.39063262939453 18.171337127685547 L11.290656089782715 18.66165542602539 C11.287271499633789 18.661727905273438 11.28388786315918 18.661800384521484 11.280503273010254 18.66187286376953 L11.280503273010254 18.66187286376953"></path></svg>