<svg xmlns="http://www.w3.org/2000/svg" viewBox="0.0 0.0 24.0 24.0" height="200px" width="200px"><path fill="none" stroke="black" stroke-width=".3" stroke-opacity="1.0"  filling="0" d="M11.958745002746582 1.2000007629394531 L11.958745002746582 1.2000007629394531 C13.90182876586914 1.597619652748108 15.482708930969238 2.0858142375946045 16.315553665161133 4.117336750030518 C16.946016311645508 5.655196189880371 16.700395584106445 7.31293249130249 15.875370025634766 8.586203575134277 C15.050342559814453 9.859474182128906 13.645909309387207 10.74828052520752 11.958745002746582 10.74828052520752 C10.271902084350586 10.74828052520752 8.871559143066406 9.857928276062012 8.049731254577637 8.583884239196777 C7.227903366088867 7.309840202331543 6.984590530395508 5.652104377746582 7.6118083000183105 4.117336750030518 C8.441215515136719 2.087822198867798 10.018705368041992 1.5980291366577148 11.958745002746582 1.2000007629394531 L11.958745002746582 1.2000007629394531"></path>
<path fill="none" stroke="black" stroke-width=".3" stroke-opacity="1.0"  filling="0" d="M11.467344284057617 7.658616065979004 L11.467344284057617 6.430008411407471 C11.627256393432617 6.149280548095703 11.787168502807617 5.868552207946777 11.947080612182617 5.58782434463501 L12.543888092041016 5.178072452545166 C12.805999755859375 3.254974842071533 11.779500961303711 3.855628728866577 10.999272346496582 5.0376715660095215 L10.999272346496582 5.24827241897583 L9.935040473937988 5.24827241897583 C10.333006858825684 3.9735803604125977 10.110857963562012 3.2343039512634277 11.430705070495605 2.8729746341705322 C12.384695053100586 2.611804485321045 14.256831169128418 3.35642671585083 13.983311653137207 4.675440311431885 C13.80760383605957 5.522770881652832 12.989435195922852 6.093384742736816 12.53222370147705 6.82809591293335 L12.53222370147705 7.658616065979004 L11.467344284057617 7.658616065979004"></path>
<path fill="none" stroke="black" stroke-width=".3" stroke-opacity="1.0"  filling="0" d="M11.467344284057617 9.168456077575684 L11.467344284057617 8.080464363098145 L12.543888092041016 8.080464363098145 L12.543888092041016 9.168456077575684 L11.467344284057617 9.168456077575684"></path>
<path fill="none" stroke="black" stroke-width=".3" stroke-opacity="1.0"  filling="0" d="M11.958745002746582 9.648406982421875 L11.958745002746582 9.648406982421875 C10.437055587768555 9.23095417022705 9.68885612487793 9.35400676727295 8.825048446655273 7.828120708465576 C8.149557113647461 6.634888648986816 8.232248306274414 5.252718925476074 8.834179878234863 4.168856620788574 C9.436110496520996 3.0849945545196533 10.557279586791992 2.299440383911133 11.958745002746582 2.299440383911133 C13.360737800598145 2.299440383911133 14.486258506774902 3.0833916664123535 15.091377258300781 4.166452407836914 C15.696495056152344 5.249512672424316 15.781209945678711 6.631682872772217 15.101592063903809 7.828120231628418 C14.234148979187012 9.355213165283203 13.48412036895752 9.231301307678223 11.958745002746582 9.648406982421875 L11.958745002746582 9.648406982421875"></path>
<path fill="none" stroke="black" stroke-width=".3" stroke-opacity="1.0"  filling="0" d="M3.885096549987793 10.771391868591309 L3.885096549987793 17.19501495361328 L9.291072845458984 17.19501495361328 L14.69704818725586 17.19501495361328 L20.103023529052734 17.19501495361328 L20.103023529052734 13.486080169677734 C20.452133178710938 13.090368270874023 20.62265396118164 12.298943519592285 21.150352478027344 12.298943519592285 C21.677978515625 12.298943519592285 21.848356246948242 13.090368270874023 22.197357177734375 13.486080169677734 L22.197357177734375 18.131376266479492 L22.197357177734375 22.77667236328125 L20.126136779785156 22.77667236328125 L20.126136779785156 19.699317932128906 L14.728081703186035 19.699317932128906 L9.330024719238281 19.699317932128906 L3.9319686889648438 19.699317932128906 L3.9319686889648438 22.799999237060547 L1.8026409149169922 22.799999237060547 L1.8026409149169922 16.785696029663086 L1.8026409149169922 10.771391868591309 C2.1492578983306885 10.396254539489746 2.3317360877990723 9.645978927612305 2.842491865158081 9.645978927612305 C3.3538711071014404 9.645978927612305 3.5375616550445557 10.396254539489746 3.885096549987793 10.771391868591309 L3.885096549987793 10.771391868591309"></path>
<path fill="none" stroke="black" stroke-width=".3" stroke-opacity="1.0"  filling="0" d="M10.262496948242188 12.362664222717285 L14.071008682250977 12.362664222717285 L17.879520416259766 12.362664222717285 C18.64665985107422 12.642736434936523 19.362773895263672 13.28626823425293 19.658063888549805 14.047679901123047 L19.658063888549805 16.797574996948242 L14.960280418395996 16.797574996948242 L10.262496948242188 16.797574996948242 L10.262496948242188 12.362664222717285"></path>
<path fill="none" stroke="black" stroke-width=".3" stroke-opacity="1.0"  filling="0" d="M8.191056251525879 13.345463752746582 L8.191056251525879 13.345463752746582 C8.495534896850586 13.001753807067871 8.645315170288086 12.31433391571045 9.104493141174316 12.31433391571045 C9.563348770141602 12.31433391571045 9.712479591369629 13.001753807067871 10.016472816467285 13.345463752746582 L10.016472816467285 15.861431121826172 C9.712272644042969 16.181039810180664 9.408072471618652 16.500648498535156 9.103872299194336 16.82025718688965 L5.265984535217285 16.82025718688965 C4.911987781524658 16.517641067504883 4.203993797302246 16.378122329711914 4.203993797302246 15.912407875061035 C4.203993797302246 15.444722175598145 4.911987781524658 15.301127433776855 5.265984535217285 14.995487213134766 L8.191056251525879 14.995487213134766 L8.191056251525879 13.345463752746582"></path>
<path fill="none" stroke="black" stroke-width=".3" stroke-opacity="1.0"  filling="0" d="M6.155040740966797 14.808431625366211 L6.155040740966797 14.808431625366211 C5.705148696899414 14.621735572814941 5.1497321128845215 14.592827796936035 4.805364608764648 14.248343467712402 C3.6248581409454346 13.067436218261719 4.48589563369751 10.993274688720703 6.155040740966797 10.993224143981934 C7.827539443969727 10.993173599243164 8.680156707763672 13.06869125366211 7.500504493713379 14.248343467712402 C7.15699577331543 14.591852188110352 6.6035284996032715 14.621735572814941 6.155040740966797 14.808431625366211 L6.155040740966797 14.808431625366211"></path></svg>