<svg xmlns="http://www.w3.org/2000/svg" viewBox="0.0 0.0 24.0 24.0" height="200px" width="200px"><path fill="none" stroke="black" stroke-width=".3" stroke-opacity="1.0"  filling="0" d="M3.592632293701172 12.078191757202148 L2.3234167098999023 10.809191703796387 C2.8152334690093994 8.387313842773438 3.5980420112609863 6.325125694274902 5.484279632568359 4.6206841468811035 C6.780979633331299 3.448960542678833 8.331961631774902 2.6955697536468506 9.95669174194336 2.353733777999878 C11.581422805786133 2.011897563934326 13.279903411865234 2.0816164016723633 14.871600151062012 2.5561115741729736 C16.463298797607422 3.030606746673584 17.948211669921875 3.9098782539367676 19.14581298828125 5.187148094177246 C20.6122989654541 6.751191139221191 21.17582130432129 8.435346603393555 21.68587303161621 10.46056842803955 L20.609973907470703 9.405623435974121 L18.703128814697266 11.312472343444824 C18.298208236694336 9.602102279663086 18.374900817871094 9.066303253173828 17.244388580322266 7.659974575042725 C15.381614685058594 5.342728137969971 12.951027870178223 4.778004169464111 10.740632057189941 5.381557941436768 C8.53023624420166 5.985111713409424 6.540030002593994 7.756943702697754 5.558016300201416 10.112808227539062 L3.592632293701172 12.078191757202148"></path>
<path fill="none" stroke="black" stroke-width=".3" stroke-opacity="1.0"  filling="0" d="M20.620559692382812 12.168264389038086 L21.689542770385742 13.23746395111084 C21.1838321685791 15.268669128417969 20.623750686645508 16.95736312866211 19.156269073486328 18.527475357055664 C17.910606384277344 19.86025619506836 16.357105255126953 20.757963180541992 14.69725513458252 21.218236923217773 C13.037405014038086 21.678512573242188 11.27120590209961 21.70135498046875 9.600150108337402 21.284404754638672 C7.929093360900879 20.86745834350586 6.353178977966309 20.010719299316406 5.073897361755371 18.711830139160156 C3.6254310607910156 17.24116325378418 3.0122618675231934 15.629087448120117 2.4396238327026367 13.69819164276123 L3.6030006408691406 14.840831756591797 L5.4266886711120605 13.017143249511719 C6.131400108337402 15.191390991210938 7.595434188842773 17.019657135009766 9.432453155517578 17.948463439941406 C11.2694730758667 18.877269744873047 13.479476928710938 18.9066162109375 15.676129341125488 17.48302459716797 C17.0870361328125 16.568653106689453 17.216238021850586 16.05366325378418 18.105022430419922 14.684015274047852 L20.620559692382812 12.168264389038086"></path></svg>