<svg xmlns="http://www.w3.org/2000/svg" viewBox="0.0 0.0 24.0 24.0" height="200px" width="200px"><path fill="none" stroke="black" stroke-width=".3" stroke-opacity="1.0"  filling="0" d="M11.975808143615723 3.1267194747924805 L11.975808143615723 3.1267194747924805 C13.675010681152344 3.3230199813842773 15.25575065612793 3.744959831237793 16.610151290893555 4.52402925491333 C17.964553833007812 5.303098201751709 19.09261703491211 6.439296722412109 19.886465072631836 8.064114570617676 C20.822856903076172 9.980684280395508 20.967060089111328 12.028069496154785 20.506147384643555 13.906107902526855 C20.04523277282715 15.78414535522461 18.97920036315918 17.492835998535156 17.495121002197266 18.732017517089844 C16.01104164123535 19.97119903564453 14.10891342163086 20.74087142944336 11.975808143615723 20.74087142944336 C9.84272289276123 20.74087142944336 7.940676689147949 19.971166610717773 6.456686019897461 18.731952667236328 C4.972695350646973 17.492738723754883 3.9067602157592773 15.784015655517578 3.4458963871002197 13.905977249145508 C2.985032796859741 12.027939796447754 3.1292405128479004 9.980587005615234 4.065536022186279 8.064115524291992 C4.859328269958496 6.439328670501709 5.987316608428955 5.303132057189941 7.341646671295166 4.5240559577941895 C8.695976257324219 3.7449798583984375 10.27664852142334 3.323024272918701 11.975808143615723 3.1267194747924805 L11.975808143615723 3.1267194747924805"></path>
<path fill="none" stroke="black" stroke-width=".3" stroke-opacity="1.0"  filling="0" d="M12.679319381713867 11.6425199508667 L16.465585708618164 15.428783416748047 C16.465585708618164 16.438514709472656 16.47998809814453 16.841562271118164 15.470687866210938 16.4234619140625 L11.47835922241211 12.431568145751953 C11.342218399047852 12.2648344039917 11.307133674621582 12.142305374145508 11.272512435913086 11.934120178222656 L11.272512435913086 8.533416748046875 C11.50694465637207 8.29898452758789 11.644270896911621 7.830120086669922 11.975808143615723 7.830120086669922 C12.307395935058594 7.830120086669922 12.444815635681152 8.29898452758789 12.679319381713867 8.533416748046875 L12.679319381713867 11.6425199508667"></path>
<path fill="none" stroke="black" stroke-width=".3" stroke-opacity="1.0"  filling="0" d="M12.32767105102539 19.325424194335938 L12.32767105102539 18.32231903076172 C12.161750793457031 18.156600952148438 11.790029525756836 18.156551361083984 11.624159812927246 18.32231903076172 L11.624159812927246 19.325637817382812 C9.566667556762695 18.966106414794922 7.98651647567749 18.234891891479492 6.830883979797363 17.07918357849121 C5.6752519607543945 15.92347526550293 4.944138050079346 14.343274116516113 4.584719657897949 12.285768508911133 L5.58782434463501 12.285768508911133 C5.7535929679870605 12.119999885559082 5.7535929679870605 11.74824047088623 5.58782434463501 11.58247184753418 L4.584719657897949 11.58247184753418 C4.944235801696777 9.52507495880127 5.67539119720459 7.944929122924805 6.831019878387451 6.789248466491699 C7.9866485595703125 5.633568286895752 9.566750526428223 4.902352809906006 11.624159812927246 4.542816162109375 L11.624159812927246 5.545920372009277 C11.789978981018066 5.711739540100098 12.1618013381958 5.711688995361328 12.32767105102539 5.545920372009277 L12.32767105102539 4.542816162109375 C14.385161399841309 4.902331829071045 15.965360641479492 5.6334943771362305 17.12107276916504 6.789154052734375 C18.276782989501953 7.9448137283325195 19.008007049560547 9.524969100952148 19.367544174194336 11.58247184753418 L18.36422348022461 11.58247184753418 C18.198455810546875 11.74824047088623 18.198455810546875 12.119999885559082 18.36422348022461 12.285768508911133 L19.367544174194336 12.285768508911133 C19.00792694091797 14.343231201171875 18.27670669555664 15.92338752746582 17.121015548706055 17.079055786132812 C15.965325355529785 18.234725952148438 14.385165214538574 18.96590805053711 12.32767105102539 19.325424194335938 L12.32767105102539 19.325424194335938"></path></svg>