<svg xmlns="http://www.w3.org/2000/svg" viewBox="0.0 0.0 24.0 24.0" height="200px" width="200px"><path fill="none" stroke="black" stroke-width=".3" stroke-opacity="1.0"  filling="0" d="M17.841503143310547 3.2055606842041016 L13.734047889709473 3.2055606842041016 L13.734047889709473 9.914952278137207 L15.190536499023438 9.949728012084961 L15.190536499023438 11.157815933227539 L12.37432861328125 15.05078411102295 L11.945784568786621 15.05078411102295 L11.945784568786621 9.128171920776367 L11.945784568786621 3.2055606842041016 L7.94265604019165 3.2055606842041016 L7.94265604019165 1.6320009231567383 L12.89207935333252 1.6320009231567383 L17.841503143310547 1.6320009231567383 L17.841503143310547 3.2055606842041016"></path>
<path fill="none" stroke="black" stroke-width=".3" stroke-opacity="1.0"  filling="0" d="M14.434103965759277 4.66593599319458 L17.841503143310547 4.66593599319458 L17.87152862548828 10.566624641418457 L17.901552200317383 16.46731185913086 L17.931575775146484 22.368000030517578 L11.92645263671875 22.368000030517578 L5.921328544616699 22.368000030517578 L5.921328544616699 18.96103286743164 L10.222968101501465 18.96103286743164 L14.52460765838623 18.96103286743164 L14.434103965759277 14.065176010131836 L16.07894515991211 14.065176010131836 L16.07894515991211 9.483384132385254 L14.434103965759277 9.483384132385254 L14.434103965759277 4.66593599319458"></path></svg>