<svg xmlns="http://www.w3.org/2000/svg" viewBox="0.0 0.0 24.0 24.0" height="200px" width="200px"><path fill="none" stroke="black" stroke-width=".3" stroke-opacity="1.0"  filling="0" d="M20.44646453857422 6.5818562507629395 L20.44646453857422 6.5818562507629395 C20.001245498657227 7.917881488800049 18.923995971679688 7.911322593688965 17.57992935180664 8.429520606994629 L17.57992935180664 8.429520606994629 C17.581729888916016 8.428800582885742 17.583528518676758 8.428079605102539 17.585329055786133 8.427359580993652 L17.585329055786133 8.427359580993652 C18.417522430419922 9.788580894470215 19.078140258789062 11.05522346496582 19.041168212890625 12.71236801147461 C18.973648071289062 15.738755226135254 17.409034729003906 17.75632667541504 15.345361709594727 18.76510238647461 C13.281688690185547 19.773876190185547 10.718953132629395 19.77385711669922 8.65518856048584 18.765060424804688 C6.591423034667969 17.756263732910156 5.026627540588379 15.738693237304688 4.958832263946533 12.71236801147461 C4.9217047691345215 11.055030822753906 5.581617832183838 9.788718223571777 6.414024353027344 8.427359580993652 L6.414024353027344 8.427359580993652 C6.415968418121338 8.428079605102539 6.417912483215332 8.428800582885742 6.419856548309326 8.429520606994629 L6.419856548309326 8.429520606994629 C5.545446395874023 8.092421531677246 4.446178913116455 8.062987327575684 3.815976142883301 7.369392395019531 C3.2521166801452637 6.748814105987549 3.5051722526550293 6.240890026092529 4.340640544891357 6.319416046142578 C5.518764019012451 6.430148124694824 6.54167366027832 7.190346717834473 7.656023979187012 7.588416576385498 L7.656023979187012 7.588416576385498 C7.715925693511963 5.934051513671875 7.5279998779296875 2.474942207336426 10.212626457214355 2.9039978981018066 C10.846065521240234 3.0052337646484375 11.40420913696289 3.3795039653778076 12.0 3.6172571182250977 L12.0 3.6172571182250977 C12.595926284790039 3.3793959617614746 13.154175758361816 3.0049357414245605 13.7877779006958 2.9036736488342285 C16.471744537353516 2.4747233390808105 16.284954071044922 5.93516731262207 16.34332847595215 7.589064598083496 L16.34332847595215 7.589064598083496 C17.63158416748047 7.128967761993408 19.111331939697266 6.136813163757324 20.44646453857422 6.5818562507629395 L20.44646453857422 6.5818562507629395"></path>
<path fill="none" stroke="black" stroke-width=".3" stroke-opacity="1.0"  filling="0" d="M8.849424362182617 7.058568477630615 L8.849424362182617 7.058568477630615 C11.052984237670898 7.4400248527526855 12.947226524353027 7.439959526062012 15.15079116821289 7.058568477630615 L15.15079116821289 7.058568477630615 C15.163104057312012 7.338720321655273 15.175415992736816 7.618872165679932 15.187728881835938 7.89902400970459 L15.187728881835938 7.89902400970459 C12.940664291381836 8.321727752685547 11.059246063232422 8.321532249450684 8.812272071838379 7.89837646484375 L8.812272071838379 7.89837646484375 C8.82465648651123 7.618440628051758 8.837039947509766 7.338504314422607 8.849424362182617 7.058568477630615 L8.849424362182617 7.058568477630615"></path>
<path fill="none" stroke="black" stroke-width=".3" stroke-opacity="1.0"  filling="0" d="M6.998088359832764 8.618736267089844 L6.998088359832764 8.618736267089844 C7.001112461090088 8.619744300842285 7.004136085510254 8.62075138092041 7.007160186767578 8.621759414672852 L7.007160186767578 8.621759414672852 C7.004136085510254 8.62075138092041 7.001112461090088 8.619744300842285 6.998088359832764 8.618736267089844 L6.998088359832764 8.618736267089844"></path>
<path fill="none" stroke="black" stroke-width=".3" stroke-opacity="1.0"  filling="0" d="M16.992839813232422 8.621759414672852 L16.992839813232422 8.621759414672852 C16.995792388916016 8.62075138092041 16.998743057250977 8.619744300842285 17.00169563293457 8.618736267089844 L17.00169563293457 8.618736267089844 C16.998743057250977 8.619744300842285 16.995792388916016 8.62075138092041 16.992839813232422 8.621759414672852 L16.992839813232422 8.621759414672852"></path>
<path fill="none" stroke="black" stroke-width=".3" stroke-opacity="1.0"  filling="0" d="M9.506064414978027 10.364879608154297 L9.506064414978027 10.364879608154297 C9.848352432250977 10.707311630249023 10.532927513122559 10.90800666809082 10.532927513122559 11.392176628112793 C10.532927513122559 12.443568229675293 8.47920036315918 13.077937126159668 8.47920036315918 11.392176628112793 C8.47920036315918 10.90800666809082 9.163776397705078 10.707311630249023 9.506064414978027 10.364879608154297 L9.506064414978027 10.364879608154297"></path>
<path fill="none" stroke="black" stroke-width=".3" stroke-opacity="1.0"  filling="0" d="M14.493719100952148 10.364879608154297 L14.493719100952148 10.364879608154297 C14.836007118225098 10.707311630249023 15.520584106445312 10.908005714416504 15.520584106445312 11.392176628112793 C15.520584106445312 12.76075267791748 13.466856002807617 12.76075267791748 13.466856002807617 11.392176628112793 C13.466856002807617 10.90800666809082 14.1514310836792 10.707311630249023 14.493719100952148 10.364879608154297 L14.493719100952148 10.364879608154297"></path>
<path fill="none" stroke="black" stroke-width=".3" stroke-opacity="1.0"  filling="0" d="M17.867855072021484 12.71172046661377 L17.867855072021484 12.71172046661377 C17.60723114013672 14.323169708251953 17.724899291992188 14.818848609924316 16.73418426513672 16.175018310546875 C15.360542297363281 18.055368423461914 13.149001121520996 18.76477813720703 11.09886646270752 18.44806671142578 C9.04873275756836 18.131357192993164 7.16000509262085 16.78852653503418 6.431990623474121 14.564395904541016 C5.713688850402832 12.369938850402832 6.383957862854004 10.582503318786621 7.632264137268066 8.80773639678955 L7.632264137268066 8.80773639678955 C7.629672050476074 8.806872367858887 7.627079963684082 8.806008338928223 7.62448787689209 8.805144309997559 L7.62448787689209 8.805144309997559 C9.154401779174805 9.183235168457031 10.577247619628906 9.372331619262695 12.000097274780273 9.372384071350098 C13.42294692993164 9.3724365234375 14.845800399780273 9.18344497680664 16.375728607177734 8.805359840393066 L16.375728607177734 8.805359840393066 C16.373064041137695 8.80622386932373 16.37040138244629 8.807088851928711 16.36773681640625 8.807952880859375 L16.36773681640625 8.807952880859375 C17.315021514892578 10.154793739318848 17.66180992126465 11.076343536376953 17.867855072021484 12.71172046661377 L17.867855072021484 12.71172046661377"></path>
<path fill="none" stroke="black" stroke-width=".3" stroke-opacity="1.0"  filling="0" d="M9.066287994384766 15.352320671081543 L14.933927536010742 15.352320671081543 C13.744487762451172 16.90696907043457 12.260499000549316 18.274978637695312 10.196184158325195 16.82986831665039 C9.688255310058594 16.47429656982422 9.442919731140137 15.844836235046387 9.066287994384766 15.352320671081543 L9.066287994384766 15.352320671081543"></path></svg>