<svg xmlns="http://www.w3.org/2000/svg" viewBox="0.0 0.0 24.0 24.0" height="200px" width="200px"><path fill="none" stroke="black" stroke-width=".3" stroke-opacity="1.0"  filling="0" d="M15.995783805847168 6.272760391235352 L15.995783805847168 6.272760391235352 C19.006420135498047 7.108057975769043 19.19168472290039 9.237202644348145 19.526519775390625 12.099143981933594 L19.526519775390625 12.099143981933594 C16.593528747558594 12.243661880493164 15.08207893371582 9.746156692504883 15.43850326538086 7.123368263244629 L15.43850326538086 7.123368263244629 C13.687589645385742 9.105621337890625 11.878083229064941 9.992149353027344 9.943933486938477 10.117806434631348 C8.009782791137695 10.243464469909668 5.950988292694092 9.608251571655273 3.7014970779418945 8.547024726867676 L3.7014970779418945 8.547024726867676 C3.702216863632202 8.545584678649902 3.7029364109039307 8.544143676757812 3.7036561965942383 8.542703628540039 L3.7036561965942383 8.542703628540039 C3.5578763484954834 8.288206100463867 3.565493106842041 7.942473888397217 3.9740896224975586 8.030352592468262 L3.9740896224975586 8.029705047607422 C5.464585304260254 7.849912643432617 6.6313629150390625 6.966429233551025 7.804622650146484 6.107647895812988 C8.977882385253906 5.248866081237793 10.157625198364258 4.414786338806152 11.674050331115723 4.333799839019775 C12.353306770324707 4.297523498535156 13.067855834960938 4.387989521026611 13.686821937561035 4.670098781585693 C14.539338111877441 5.058653831481934 15.058914184570312 6.266855716705322 15.995783805847168 6.272760391235352 L15.995783805847168 6.272760391235352"></path>
<path fill="none" stroke="black" stroke-width=".3" stroke-opacity="1.0"  filling="0" d="M9.577775955200195 10.352136611938477 L9.577775955200195 10.352136611938477 C9.920063972473145 10.694496154785156 10.604640007019043 10.895096778869629 10.604640007019043 11.379216194152832 C10.604640007019043 12.748079299926758 8.550912857055664 12.748079299926758 8.550912857055664 11.379216194152832 C8.550912857055664 10.895097732543945 9.235487937927246 10.694496154785156 9.577775955200195 10.352136611938477 L9.577775955200195 10.352136611938477"></path>
<path fill="none" stroke="black" stroke-width=".3" stroke-opacity="1.0"  filling="0" d="M14.565216064453125 10.352136611938477 L14.565216064453125 10.352136611938477 C14.907504081726074 10.694496154785156 15.592079162597656 10.895097732543945 15.592079162597656 11.379216194152832 C15.592079162597656 12.748079299926758 13.538352012634277 12.748079299926758 13.538352012634277 11.379216194152832 C13.538352012634277 10.895096778869629 14.222928047180176 10.694496154785156 14.565216064453125 10.352136611938477 L14.565216064453125 10.352136611938477"></path>
<path fill="none" stroke="black" stroke-width=".3" stroke-opacity="1.0"  filling="0" d="M17.92898178100586 12.497447967529297 L17.92898178100586 12.497447967529297 C18.32339859008789 12.562463760375977 18.717815399169922 12.627480506896973 19.112232208251953 12.692496299743652 L19.112232208251953 12.692496299743652 C19.37537956237793 14.600458145141602 18.476774215698242 16.362316131591797 17.081621170043945 17.647184371948242 C15.686466217041016 18.932052612304688 13.79476261138916 19.73992919921875 12.071712493896484 19.73992919921875 C10.511008262634277 19.73992919921875 9.017938613891602 19.203243255615234 7.812868595123291 18.288755416870117 C6.6077985763549805 17.374269485473633 5.690728187561035 16.081981658935547 5.282021999359131 14.570778846740723 C4.8365044593811035 12.923463821411133 5.081480979919434 11.601072311401367 5.55456018447876 10.032024383544922 L5.55456018447876 10.032024383544922 C5.925432205200195 10.159536361694336 6.296304225921631 10.287047386169434 6.667176246643066 10.414559364318848 L6.667176246643066 10.414559364318848 C6.218960285186768 11.853901863098145 6.007989883422852 13.036250114440918 6.503874778747559 14.551353454589844 C7.182892322540283 16.625991821289062 8.716475486755371 17.8227481842041 10.446871757507324 18.251890182495117 C12.177268028259277 18.6810302734375 14.104476928710938 18.34255599975586 15.570746421813965 17.34672737121582 C17.037015914916992 16.35089874267578 18.04234504699707 14.697718620300293 17.92898178100586 12.497447967529297 L17.92898178100586 12.497447967529297"></path>
<path fill="none" stroke="black" stroke-width=".3" stroke-opacity="1.0"  filling="0" d="M9.137999534606934 15.33957576751709 L15.005640029907227 15.33957576751709 C13.815908432006836 16.894075393676758 12.33244800567627 18.26207160949707 10.268138885498047 16.81696319580078 C9.760204315185547 16.46138572692871 9.5147123336792 15.832037925720215 9.137999534606934 15.33957576751709 L9.137999534606934 15.33957576751709"></path></svg>