<svg xmlns="http://www.w3.org/2000/svg" viewBox="0.0 0.0 24.0 24.0" height="200px" width="200px"><path fill="none" stroke="black" stroke-width=".3" stroke-opacity="1.0"  filling="0" d="M8.761943817138672 6.452040672302246 L8.761943817138672 6.452040672302246 C8.967720031738281 6.78864049911499 9.17349624633789 7.125240802764893 9.3792724609375 7.461840629577637 L9.3792724609375 7.461840629577637 C8.639322280883789 7.818230628967285 7.7376909255981445 7.815751075744629 7.239792346954346 8.598864555358887 C6.0955681800842285 10.398542404174805 7.042675971984863 11.61366081237793 5.040048599243164 12.710855484008789 L5.038752555847168 12.710855484008789 C4.702413558959961 10.848686218261719 4.6112213134765625 9.310750961303711 5.079172134399414 8.066322326660156 C5.547122955322266 6.821892738342285 6.574216365814209 5.870969772338867 8.474449157714844 5.18282413482666 L8.474449157714844 5.18282413482666 C8.570281028747559 5.605896472930908 8.666111946105957 6.028968334197998 8.761943817138672 6.452040672302246 L8.761943817138672 6.452040672302246"></path>
<path fill="none" stroke="black" stroke-width=".3" stroke-opacity="1.0"  filling="0" d="M19.160184860229492 8.585904121398926 L19.160184860229492 8.585904121398926 C19.225008010864258 9.430231094360352 19.693796157836914 12.513514518737793 18.902280807495117 13.091232299804688 L18.89990234375 13.091232299804688 C16.758163452148438 11.722123146057129 17.8659725189209 8.589093208312988 15.090311050415039 7.7867045402526855 L14.919023513793945 7.744368076324463 C13.829146385192871 7.573108673095703 12.891636848449707 8.349254608154297 11.849016189575195 8.234904289245605 C10.840163230895996 8.12425708770752 7.7509260177612305 5.816189765930176 9.328296661376953 4.552536487579346 C11.015682220458984 3.200749397277832 14.666951179504395 4.128586292266846 16.251310348510742 5.025792121887207 C17.67988395690918 5.83477783203125 18.445711135864258 7.189973831176758 19.160184860229492 8.585904121398926 L19.160184860229492 8.585904121398926"></path>
<path fill="none" stroke="black" stroke-width=".3" stroke-opacity="1.0"  filling="0" d="M10.519536018371582 11.390880584716797 L10.519536018371582 11.390880584716797 C10.177248001098633 11.733168601989746 9.976739883422852 12.417744636535645 9.492671966552734 12.417744636535645 C8.123519897460938 12.417744636535645 8.123519897460938 10.36401653289795 9.492671966552734 10.36401653289795 C9.976739883422852 10.36401653289795 10.177248001098633 11.048592567443848 10.519536018371582 11.390880584716797 L10.519536018371582 11.390880584716797"></path>
<path fill="none" stroke="black" stroke-width=".3" stroke-opacity="1.0"  filling="0" d="M15.506975173950195 11.390880584716797 L15.506975173950195 11.390880584716797 C15.164615631103516 11.733168601989746 14.964015007019043 12.417744636535645 14.47989559173584 12.417744636535645 C13.110743522644043 12.417744636535645 13.110743522644043 10.36401653289795 14.47989559173584 10.36401653289795 C14.964015007019043 10.36401653289795 15.164615631103516 11.048592567443848 15.506975173950195 11.390880584716797 L15.506975173950195 11.390880584716797"></path>
<path fill="none" stroke="black" stroke-width=".3" stroke-opacity="1.0"  filling="0" d="M18.798383712768555 13.670112609863281 L18.798383712768555 13.670112609863281 C18.85205078125 13.674808502197266 18.906293869018555 13.67880630493164 18.959951400756836 13.673999786376953 L18.959951400756836 13.673999786376953 C18.507579803466797 15.39299201965332 18.016841888427734 16.784168243408203 16.632822036743164 18.000532150268555 C15.050397872924805 19.391265869140625 12.99435043334961 19.916671752929688 11.045166969299316 19.65308952331543 C9.095983505249023 19.389507293701172 7.253662109375 18.33694076538086 6.09868860244751 16.571727752685547 C5.2332892417907715 15.249088287353516 5.290429592132568 14.809033393859863 4.970280647277832 13.287360191345215 L4.970280647277832 13.287360191345215 C5.368296146392822 13.347246170043945 5.875636100769043 12.984189987182617 6.127176284790039 12.87890338897705 L6.127176284790039 12.87890338897705 C6.42205286026001 14.450342178344727 6.323032379150391 14.937126159667969 7.3129401206970215 16.249271392822266 C8.443502426147461 17.74785614013672 10.162089347839355 18.51453971862793 11.892476081848145 18.542137145996094 C13.62286376953125 18.569732666015625 15.365053176879883 17.858243942260742 16.54281997680664 16.400484085083008 C17.532596588134766 15.175406455993652 17.468101501464844 14.709565162658691 17.828113555908203 13.218239784240723 L17.828113555908203 13.218239784240723 C18.15153694152832 13.368864059448242 18.474960327148438 13.519488334655762 18.798383712768555 13.670112609863281 L18.798383712768555 13.670112609863281"></path>
<path fill="none" stroke="black" stroke-width=".3" stroke-opacity="1.0"  filling="0" d="M9.052248001098633 15.351239204406738 L14.91988754272461 15.351239204406738 C14.543120384216309 15.843701362609863 14.297548294067383 16.473031997680664 13.789587020874023 16.82862663269043 C11.72530746459961 18.273714065551758 10.241796493530273 16.90591812133789 9.052248001098633 15.351239204406738 L9.052248001098633 15.351239204406738"></path></svg>