<svg xmlns="http://www.w3.org/2000/svg" viewBox="0.0 0.0 24.0 24.0" height="200px" width="200px"><path fill="none" stroke="black" stroke-width=".3" stroke-opacity="1.0"  filling="0" d="M21.152999877929688 15.471551895141602 L21.149328231811523 15.467880249023438 C20.75721549987793 15.661343574523926 20.36510467529297 15.85480785369873 19.972991943359375 16.04827117919922 L14.255112648010254 16.04827117919922 L8.537232398986816 16.04827117919922 L2.819352149963379 16.04827117919922 C1.4354147911071777 15.4743070602417 1.0192198753356934 15.036920547485352 1.4626569747924805 13.543968200683594 L2.7385683059692383 11.601912498474121 C3.1224725246429443 11.418888092041016 3.5063765048980713 11.235864639282227 3.8902807235717773 11.052840232849121 L6.470184326171875 11.052840232849121 L6.470184326171875 10.750224113464355 C6.286944389343262 10.576416015625 6.103704452514648 10.402607917785645 5.920464515686035 10.228799819946289 L5.920464515686035 8.747039794921875 C6.190365791320801 8.477357864379883 6.362931251525879 7.940451622009277 6.744287967681885 7.952376365661621 L12.563544273376465 7.952376365661621 C12.819504737854004 8.217264175415039 13.075464248657227 8.482151985168457 13.331424713134766 8.747039794921875 L19.28719139099121 8.499719619750977 L19.342485427856445 9.159383773803711 L13.358206748962402 9.844968795776367 L13.331424713134766 10.228799819946289 C13.15761661529541 10.402607917785645 12.983807563781738 10.576416015625 12.809999465942383 10.750224113464355 L12.809999465942383 11.052840232849121 L17.063579559326172 11.052840232849121 L21.31715965270996 11.052840232849121 C22.595096588134766 11.582071304321289 22.966272354125977 11.984611511230469 22.550304412841797 13.357128143310547 L21.152999877929688 15.471551895141602"></path></svg>