<svg xmlns="http://www.w3.org/2000/svg" viewBox="0.0 0.0 24.0 24.0" height="200px" width="200px"><path fill="none" stroke="black" stroke-width=".3" stroke-opacity="1.0"  filling="0" d="M14.690927505493164 8.652215957641602 L14.690927505493164 8.652215957641602 C14.540223121643066 10.789944648742676 14.164812088012695 12.291375160217285 13.312847137451172 14.231496810913086 L13.312847137451172 14.231496810913086 C13.542743682861328 14.395584106445312 13.772640228271484 14.559672355651855 14.00253677368164 14.723759651184082 L14.00253677368164 14.723759651184082 C12.574722290039062 15.704916954040527 11.499725341796875 16.71647071838379 10.488431930541992 18.137638092041016 C10.258333206176758 18.460994720458984 10.61561107635498 19.964799880981445 10.225992202758789 19.647912979125977 C9.647933959960938 19.177762985229492 9.529119491577148 16.1711368560791 9.37343978881836 15.512161254882812 C9.235499382019043 14.92827033996582 9.028298377990723 14.360916137695312 8.913360595703125 13.772064208984375 C8.841818809509277 13.405542373657227 8.83106803894043 13.02912425994873 8.81594467163086 12.655991554260254 C8.809270858764648 12.491329193115234 8.719483375549316 12.059648513793945 8.848128318786621 12.162647247314453 C9.316315650939941 12.537497520446777 9.483687400817871 13.214570999145508 9.963335990905762 13.574640274047852 C10.617976188659668 14.066075325012207 12.393777847290039 13.424477577209473 12.98409652709961 13.083239555358887 C14.790125846862793 12.039251327514648 12.086328506469727 10.452681541442871 13.082159042358398 9.536952018737793 C13.532647132873535 9.122699737548828 14.154671669006348 8.947128295898438 14.690927505493164 8.652215957641602 L14.690927505493164 8.652215957641602"></path>
<path fill="none" stroke="black" stroke-width=".3" stroke-opacity="1.0"  filling="0" d="M19.976015090942383 14.593511581420898 L19.976015090942383 14.593511581420898 C18.44818115234375 15.173995971679688 19.910329818725586 18.359458923339844 20.468494415283203 19.582897186279297 C20.786767959594727 20.280517578125 22.253828048706055 19.744586944580078 22.34056854248047 20.30498504638672 C22.406957626342773 20.733903884887695 19.80176544189453 21.4759578704834 19.450489044189453 20.731367111206055 C19.048938751220703 19.880212783813477 18.42991828918457 18.5205078125 18.137638092041016 17.612327575683594 C17.88405418395996 16.824386596679688 18.22916030883789 15.572818756103516 17.481647491455078 15.217318534851074 C15.583195686340332 14.31445598602295 12.932124137878418 17.468399047851562 11.86845588684082 18.532703399658203 C11.325776100158691 19.075708389282227 12.475150108337402 20.829647064208984 11.769527435302734 20.829647064208984 C11.480728149414062 20.829647064208984 11.24450397491455 20.588878631591797 10.9819917678833 20.468494415283203 L8.9131441116333 20.96183967590332 C8.547112464904785 18.888090133666992 8.035553932189941 16.963695526123047 7.141080379486084 15.053160667419434 L7.141080379486084 15.053160667419434 C5.685513019561768 16.85043716430664 4.535778045654297 16.940031051635742 2.5778656005859375 17.908897399902344 C1.9819446802139282 18.203786849975586 2.453049421310425 20.016441345214844 1.7235841751098633 19.286975860595703 L1.2000007629394531 16.82500648498535 L3.562824249267578 15.806999206542969 C5.251021862030029 14.611576080322266 5.600343704223633 13.201920509338379 5.893464088439941 11.211599349975586 L5.893464088439941 11.211599349975586 C4.973430633544922 11.919675827026367 4.199624061584473 12.200273513793945 4.022040367126465 13.477224349975586 C3.980583906173706 13.775325775146484 4.406484603881836 14.043316841125488 4.316880702972412 14.330639839172363 C4.044828414916992 15.203001022338867 3.231981039047241 15.32043170928955 2.906832695007324 14.495231628417969 C2.8381459712982178 14.320910453796387 3.079662799835205 14.154480934143066 3.1033926010131836 13.968624114990234 C3.353502035140991 12.009712219238281 3.4704458713531494 10.138874053955078 5.696904182434082 9.308208465576172 C6.274457931518555 9.092729568481445 7.541909217834473 9.395133972167969 7.470048427581787 8.782896041870117 C7.364090442657471 7.8801589012146 6.160964012145996 5.951552867889404 8.356727600097656 5.959776401519775 C11.252202033996582 5.970620632171631 8.522483825683594 8.672829627990723 8.913360595703125 9.37430477142334 C9.23283576965332 9.947641372680664 9.72871208190918 10.404678344726562 10.095527648925781 10.948944091796875 C10.137491226196289 11.011208534240723 10.728618621826172 12.715484619140625 11.475336074829102 12.59075927734375 C13.487735748291016 12.254626274108887 11.428428649902344 10.39653491973877 11.506223678588867 9.30842399597168 C11.62567138671875 7.637726306915283 14.428008079528809 6.938877105712891 15.544776916503906 6.6486005783081055 C15.889500617980957 6.558998107910156 14.983434677124023 6.191744327545166 14.788775444030762 5.893464088439941 C14.599934577941895 5.604098796844482 14.58598804473877 5.221148490905762 14.592215538024902 4.875671863555908 C14.607661247253418 4.018867492675781 15.023225784301758 2.9487297534942627 16.168582916259766 2.940096855163574 C17.848957061767578 2.927431344985962 17.99547004699707 4.950163841247559 17.54623031616211 5.992824077606201 C17.451284408569336 6.213188171386719 16.987817764282227 6.4797821044921875 17.18551254272461 6.615767955780029 C17.492137908935547 6.826683044433594 17.915956497192383 6.838430881500244 18.203088760375977 7.07520055770874 C19.35484504699707 8.024942398071289 19.482288360595703 9.92148208618164 20.59895896911621 10.981344223022461 C21.068923950195312 11.427399635314941 21.61048126220703 11.79300594329834 22.142494201660156 12.162864685058594 C22.36180305480957 12.315329551696777 22.95994758605957 12.32287311553955 22.799999237060547 12.85255241394043 C22.4921932220459 13.871866226196289 21.539081573486328 13.169020652770996 21.027070999145508 12.886463165283203 C19.65103530883789 12.127087593078613 18.7784423828125 11.058022499084473 18.04043960571289 9.701329231262207 L18.04043960571289 9.701329231262207 C18.541250228881836 11.449803352355957 19.132099151611328 12.975775718688965 19.976015090942383 14.593511581420898 L19.976015090942383 14.593511581420898"></path></svg>