<svg xmlns="http://www.w3.org/2000/svg" viewBox="0.0 0.0 24.0 24.0" height="200px" width="200px"><path fill="none" stroke="black" stroke-width=".3" stroke-opacity="1.0"  filling="0" d="M11.599943161010742 7.3729095458984375 L11.599943161010742 7.3729095458984375 C11.127520561218262 7.336318492889404 6.854741096496582 7.427566051483154 6.854741096496582 6.013784408569336 C6.854741096496582 4.6241302490234375 11.135004997253418 4.654658794403076 11.599943161010742 4.654658794403076 C12.064801216125488 4.654658794403076 16.345029830932617 4.624070644378662 16.344995498657227 6.013784408569336 C16.344961166381836 7.427608966827393 12.072380065917969 7.336318016052246 11.599943161010742 7.3729095458984375 L11.599943161010742 7.3729095458984375"></path>
<path fill="none" stroke="black" stroke-width=".3" stroke-opacity="1.0"  filling="0" d="M16.616270065307617 14.433258056640625 L16.616270065307617 14.433258056640625 C16.751333236694336 14.573687553405762 16.74469566345215 14.878690719604492 16.608192443847656 15.017721176147461 L16.567195892333984 17.779865264892578 C15.420650482177734 18.929555892944336 13.506990432739258 19.607440948486328 11.614320755004883 19.658958435058594 C9.721650123596191 19.710479736328125 7.849968910217285 19.13563346862793 6.787378787994385 17.779865264892578 L6.785398006439209 17.73703956604004 C8.643474578857422 18.95290756225586 10.894866943359375 19.312585830688477 13.07971477508545 18.98456573486328 C13.71377182006836 18.889371871948242 15.054522514343262 18.933048248291016 14.882997512817383 18.31525421142578 C14.79913330078125 18.013195037841797 11.502882957458496 18.597312927246094 11.03834056854248 18.56869888305664 C9.236547470092773 18.457717895507812 8.066312789916992 18.03053855895996 6.746535301208496 16.859352111816406 L6.682983875274658 15.431188583374023 C8.758074760437012 16.261049270629883 10.838887214660645 16.528810501098633 13.0743989944458 16.29904556274414 C13.650744438171387 16.239809036254883 14.854132652282715 16.322031021118164 14.725871086120605 15.757025718688965 C14.599747657775879 15.201440811157227 13.583732604980469 15.729504585266113 13.016982078552246 15.787601470947266 C11.086161613464355 15.985527038574219 8.794326782226562 15.965020179748535 7.030116558074951 15.040146827697754 C6.199599266052246 14.604754447937012 6.288238525390625 14.546419143676758 6.414450645446777 14.072978973388672 L6.414450645446777 14.072978973388672 C8.419502258300781 15.41242790222168 10.768646240234375 15.563941955566406 13.146467208862305 15.33138370513916 C13.6988525390625 15.277359008789062 14.848623275756836 15.344990730285645 14.72571849822998 14.803749084472656 C14.604896545410156 14.271679878234863 13.632006645202637 14.767195701599121 13.088953971862793 14.820016860961914 C11.094487190246582 15.01401424407959 8.157516479492188 15.074178695678711 6.577216625213623 13.589252471923828 L6.504977226257324 11.428794860839844 C8.584896087646484 12.270564079284668 10.673442840576172 12.539244651794434 12.91765308380127 12.308463096618652 C13.493675231933594 12.249228477478027 14.696236610412598 12.331232070922852 14.568134307861328 11.766519546508789 C14.44217300415039 11.21124267578125 13.426673889160156 11.739023208618164 12.860255241394043 11.797057151794434 C10.935752868652344 11.99423599243164 8.647005081176758 11.978482246398926 6.889127731323242 11.053750038146973 C6.089092254638672 10.632890701293945 6.175644874572754 10.553757667541504 6.261437892913818 10.064032554626465 L6.261437892913818 10.064032554626465 C8.275182723999023 11.420073509216309 10.628181457519531 11.571439743041992 13.021039962768555 11.339031219482422 C13.58428955078125 11.284324645996094 14.759482383728027 11.361085891723633 14.63397216796875 10.809279441833496 C14.546340942382812 10.424007415771484 11.731782913208008 10.901090621948242 11.460189819335938 10.892034530639648 C9.653827667236328 10.831803321838379 7.907151699066162 10.711446762084961 6.4234418869018555 9.601795196533203 L6.328190326690674 7.458406925201416 C8.44278335571289 8.415435791015625 10.598575592041016 8.689910888671875 12.917348861694336 8.451461791992188 C13.493386268615723 8.39222526550293 14.695897102355957 8.474102020263672 14.567829132080078 7.909365653991699 C14.44190502166748 7.354081153869629 13.426369667053223 7.881870269775391 12.85995101928711 7.939903736114502 C11.42466926574707 8.086957931518555 6.717963218688965 8.39890193939209 6.156585216522217 6.432738304138184 C5.809832572937012 5.218276023864746 8.997014045715332 4.67612361907959 9.424196243286133 4.607666969299316 C10.644730567932129 4.412074089050293 12.059621810913086 4.295965671539307 13.376182556152344 4.485701560974121 C14.692744255065918 4.6754374504089355 15.91097640991211 5.171017646789551 16.73819351196289 6.198801040649414 L16.676774978637695 10.355273246765137 C16.7919921875 10.502263069152832 16.785924911499023 10.77023696899414 16.66854476928711 10.915504455566406 L16.616270065307617 14.433258056640625"></path></svg>