<svg xmlns="http://www.w3.org/2000/svg" viewBox="0.0 0.0 24.0 24.0" height="200px" width="200px"><path fill="none" stroke="black" stroke-width=".3" stroke-opacity="1.0"  filling="0" d="M14.024568557739258 11.286551475524902 L14.024568557739258 11.286551475524902 C14.116581916809082 10.854691505432129 14.041160583496094 10.3138427734375 14.355695724487305 10.003944396972656 L14.355695724487305 10.003944396972656 C14.63858413696289 10.27228832244873 14.92147159576416 10.540631294250488 15.204360008239746 10.808975219726562 L15.204360008239746 10.808975219726562 C14.81109619140625 10.968167304992676 14.417832374572754 11.127359390258789 14.024568557739258 11.286551475524902 L14.024568557739258 11.286551475524902"></path>
<path fill="none" stroke="black" stroke-width=".3" stroke-opacity="1.0"  filling="0" d="M22.695453643798828 13.891511917114258 L22.695453643798828 13.891511917114258 C22.741676330566406 14.498970985412598 22.981943130493164 15.343067169189453 22.098215103149414 15.592728614807129 C20.931657791137695 15.922292709350586 19.47551918029785 15.942164421081543 18.006608963012695 15.879645347595215 C16.53769874572754 15.817126274108887 15.056017875671387 15.672216415405273 13.838376998901367 15.672216415405273 L13.838376998901367 15.672216415405273 C13.846152305603027 15.669840812683105 13.853928565979004 15.667464256286621 13.861703872680664 15.665088653564453 L13.861703872680664 15.665088653564453 C13.815629005432129 15.710770606994629 13.295999526977539 16.42571449279785 13.295999526977539 15.638304710388184 L13.295999526977539 15.638304710388184 C13.152359962463379 15.634416580200195 13.008720397949219 15.630528450012207 12.865080833435059 15.626640319824219 L12.865080833435059 15.626640319824219 C12.681912422180176 15.486672401428223 12.498744010925293 15.34670352935791 12.31557559967041 15.206735610961914 L12.31557559967041 15.206735610961914 C12.308951377868652 15.154967308044434 12.302328109741211 15.10319995880127 12.295703887939453 15.051431655883789 L12.295703887939453 15.051431655883789 C10.969392776489258 14.98452377319336 9.643083572387695 14.917577743530273 8.316774368286133 14.850614547729492 C6.9904656410217285 14.783650398254395 5.664157390594482 14.716669082641602 4.337850093841553 14.64969253540039 C3.7314867973327637 14.619071960449219 1.1171468496322632 14.957315444946289 1.2017278671264648 13.280231475830078 C1.2852435111999512 11.624271392822266 3.7466213703155518 12.19804859161377 4.373250961303711 12.229660034179688 C5.641935348510742 12.293661117553711 6.910614490509033 12.357749938964844 8.179290771484375 12.42190170288086 C9.447966575622559 12.486053466796875 10.716639518737793 12.550268173217773 11.985311508178711 12.614520072937012 L11.985311508178711 12.614520072937012 C11.965080261230469 12.455111503601074 11.94484806060791 12.295703887939453 11.924616813659668 12.136295318603516 L11.924616813659668 12.136295318603516 C12.598851203918457 11.862857818603516 12.427963256835938 10.760106086730957 12.533519744873047 10.040231704711914 C12.597818374633789 9.601728439331055 12.555928230285645 8.840888977050781 12.996623992919922 8.793912887573242 C13.36988639831543 8.754124641418457 12.585663795471191 10.613663673400879 13.430352210998535 10.97983169555664 L13.430352210998535 10.97983169555664 C13.823617935180664 8.795930862426758 14.5108003616333 9.281399726867676 15.850632667541504 10.547832489013672 L15.850632667541504 10.547832489013672 C16.12595558166504 10.43653392791748 16.476167678833008 10.330710411071777 16.738174438476562 10.470503807067871 L16.738174438476562 10.470503807067871 C17.818809509277344 9.888227462768555 19.071006774902344 10.700190544128418 19.247447967529297 11.807975769042969 L19.247447967529297 11.807975769042969 C20.414823532104492 12.430130004882812 21.779541015625 12.921268463134766 22.695453643798828 13.891511917114258 L22.695453643798828 13.891511917114258"></path>
<path fill="none" stroke="black" stroke-width=".3" stroke-opacity="1.0"  filling="0" d="M22.414871215820312 14.950127601623535 L22.414871215820312 14.950127601623535 C21.0023193359375 16.33498764038086 17.68454360961914 14.695211410522461 20.07494354248047 13.222127914428711 L20.07494354248047 13.222127914428711 C20.274507522583008 13.459659576416016 20.76276969909668 13.77587604522705 20.952983856201172 13.530792236328125 L20.952983856201172 13.530792236328125 C21.767980575561523 13.821724891662598 22.444400787353516 13.951380729675293 22.414871215820312 14.950127601623535 L22.414871215820312 14.950127601623535"></path></svg>