<svg xmlns="http://www.w3.org/2000/svg" viewBox="0.0 0.0 24.0 24.0" height="200px" width="200px"><path fill="none" stroke="black" stroke-width=".3" stroke-opacity="1.0"  filling="0" d="M10.240896224975586 7.262256622314453 L10.240896224975586 7.262256622314453 C11.125638008117676 7.257736682891846 12.020339012145996 7.116250514984131 12.895122528076172 7.248696804046631 C15.628885269165039 7.662600517272949 16.153568267822266 9.919008255004883 16.40186309814453 12.228743553161621 L16.40186309814453 12.228743553161621 C16.712182998657227 12.312551498413086 17.022504806518555 12.39635944366455 17.33282470703125 12.480167388916016 L17.33282470703125 12.480167388916016 C16.50120735168457 13.989055633544922 15.953446388244629 14.732818603515625 14.456999778747559 15.576311111450195 L14.236680030822754 15.495742797851562 C14.084407806396484 14.232478141784668 13.878816604614258 12.97602653503418 13.673567771911621 11.720280647277832 L13.673567771911621 11.720280647277832 C13.97668743133545 11.754048347473145 14.279808044433594 11.787816047668457 14.582927703857422 11.82158374786377 L14.582927703857422 11.82158374786377 C14.21697998046875 9.006529808044434 12.917393684387207 8.151020050048828 10.240896224975586 7.566384792327881 L10.240896224975586 7.566384792327881 C10.240896224975586 7.465008735656738 10.240896224975586 7.363632678985596 10.240896224975586 7.262256622314453 L10.240896224975586 7.262256622314453"></path>
<path fill="none" stroke="black" stroke-width=".3" stroke-opacity="1.0"  filling="0" d="M21.719999313354492 11.577719688415527 L21.719999313354492 11.577719688415527 C21.92364501953125 11.781366348266602 21.92364501953125 12.238073348999023 21.719999313354492 12.441720008850098 L20.53415870666504 12.441720008850098 C20.160888671875 14.791955947875977 19.297075271606445 16.64425277709961 17.93902015686035 18.002307891845703 C16.580965042114258 19.36036491394043 14.728667259216309 20.224178314208984 12.37843132019043 20.59744644165039 L12.37843132019043 21.783287048339844 C12.174784660339355 21.9869327545166 11.71807861328125 21.9869327545166 11.514431953430176 21.783287048339844 L11.514431953430176 20.59744644165039 C9.164164543151855 20.224185943603516 7.311861991882324 19.360389709472656 5.953812122344971 18.00234031677246 C4.595761775970459 16.644290924072266 3.731963872909546 14.791988372802734 3.3587045669555664 12.441720008850098 L2.1728649139404297 12.441720008850098 C1.969218134880066 12.238073348999023 1.969218134880066 11.781366348266602 2.1728649139404297 11.577719688415527 L3.3587045669555664 11.577719688415527 C3.731963872909546 9.227452278137207 4.595762252807617 7.375150203704834 5.953812122344971 6.0171003341674805 C7.311862468719482 4.659049987792969 9.164164543151855 3.7952518463134766 11.514431953430176 3.421992301940918 L11.514431953430176 2.2361526489257812 C11.71807861328125 2.032505989074707 12.174784660339355 2.032506227493286 12.37843132019043 2.2361526489257812 L12.37843132019043 3.421992301940918 C14.728667259216309 3.7952606678009033 16.580965042114258 4.6590752601623535 17.93902015686035 6.017131328582764 C19.297075271606445 7.375187397003174 20.160888671875 9.227484703063965 20.53415870666504 11.577719688415527 L21.719999313354492 11.577719688415527"></path>
<path fill="none" stroke="black" stroke-width=".3" stroke-opacity="1.0"  filling="0" d="M9.30971908569336 12.197640419006348 L9.30971908569336 12.197640419006348 C9.676151275634766 15.012685775756836 10.975268363952637 15.868314743041992 13.651968002319336 16.45305633544922 L13.651968002319336 16.45305633544922 C13.651968002319336 17.971324920654297 9.818615913391113 16.475141525268555 9.236527442932129 16.08856773376465 C7.7652153968811035 15.111448287963867 7.658283710479736 13.346956253051758 7.490784645080566 11.790912628173828 L7.490784645080566 11.790912628173828 C7.18053674697876 11.706960678100586 6.870288372039795 11.623008728027344 6.560040473937988 11.539056777954102 L6.560040473937988 11.539056777954102 C7.3917107582092285 10.030369758605957 7.939568519592285 9.286579132080078 9.43586540222168 8.44312858581543 L9.656399726867676 8.523479461669922 C9.808724403381348 9.786727905273438 10.014181137084961 11.043187141418457 10.2192964553833 12.298944473266602 L10.2192964553833 12.298944473266602 C9.916104316711426 12.265176773071289 9.612911224365234 12.23140811920166 9.30971908569336 12.197640419006348 L9.30971908569336 12.197640419006348"></path>
<path fill="none" stroke="black" stroke-width=".3" stroke-opacity="1.0"  filling="0" d="M12.37843132019043 19.731719970703125 L12.37843132019043 19.350263595581055 C12.174784660339355 19.146617889404297 11.71807861328125 19.146617889404297 11.514431953430176 19.350263595581055 L11.514431953430176 19.731719970703125 C9.393502235412598 19.346065521240234 7.763828754425049 18.584030151367188 6.56797456741333 17.3881778717041 C5.372119903564453 16.192323684692383 4.6100850105285645 14.562650680541992 4.224432468414307 12.441720008850098 L4.6056718826293945 12.441720008850098 C4.809318542480469 12.238073348999023 4.809318542480469 11.781366348266602 4.6056718826293945 11.577719688415527 L4.224432468414307 11.577719688415527 C4.60999870300293 9.456718444824219 5.372017860412598 7.827038288116455 6.567885875701904 6.631198883056641 C7.763753890991211 5.435359477996826 9.393470764160156 4.6733598709106445 11.514431953430176 4.2877197265625 L11.514431953430176 4.668960094451904 C11.71807861328125 4.8726067543029785 12.174784660339355 4.8726067543029785 12.37843132019043 4.668960094451904 L12.37843132019043 4.2877197265625 C14.49940013885498 4.673295497894287 16.12907600402832 5.435330867767334 17.324920654296875 6.631204605102539 C18.520767211914062 7.827078819274902 19.28278160095215 9.456790924072266 19.66843032836914 11.577719688415527 L19.286975860595703 11.577719688415527 C19.083330154418945 11.781366348266602 19.083330154418945 12.238073348999023 19.286975860595703 12.441720008850098 L19.66843032836914 12.441720008850098 C19.28276824951172 14.562618255615234 18.52071762084961 16.19228744506836 17.324859619140625 17.388147354125977 C16.128999710083008 18.584007263183594 14.499330520629883 19.346057891845703 12.37843132019043 19.731719970703125 L12.37843132019043 19.731719970703125"></path></svg>