<svg xmlns="http://www.w3.org/2000/svg" viewBox="0.0 0.0 24.0 24.0" height="200px" width="200px"><path fill="none" stroke="black" stroke-width=".3" stroke-opacity="1.0"  filling="0" d="M11.922887802124023 2.312185287475586 L11.922887802124023 2.312185287475586 C13.570249557495117 2.4781887531280518 15.105752944946289 2.8351619243621826 16.470722198486328 3.508570671081543 C17.835693359375 4.181979656219482 19.030132293701172 5.1718244552612305 19.995365142822266 6.603570938110352 C21.42214584350586 8.719939231872559 21.850791931152344 11.111814498901367 21.504863739013672 13.360373497009277 C21.158935546875 15.608932495117188 20.038434982299805 17.714176177978516 18.366918563842773 19.257278442382812 C16.695402145385742 20.800382614135742 14.472871780395508 21.78134536743164 11.922887802124023 21.78134536743164 C9.37295150756836 21.78134536743164 7.15051794052124 20.800323486328125 5.479103088378906 19.25716209411621 C3.8076884746551514 17.714000701904297 2.687293529510498 15.608699798583984 2.341435670852661 13.360140800476074 C1.9955778121948242 11.111581802368164 2.424257278442383 8.719764709472656 3.8509914875030518 6.603570938110352 C4.816183567047119 5.171957015991211 6.010526180267334 4.182121276855469 7.375386714935303 3.508683681488037 C8.740246772766113 2.8352460861206055 10.275625228881836 2.4782066345214844 11.922887802124023 2.312185287475586 L11.922887802124023 2.312185287475586"></path>
<path fill="none" stroke="black" stroke-width=".3" stroke-opacity="1.0"  filling="0" d="M6.591360092163086 8.629566192626953 L6.591360092163086 8.629566192626953 C7.126694679260254 7.335512638092041 9.457679748535156 6.346369743347168 9.457679748535156 8.629566192626953 C9.457679748535156 10.912727355957031 7.126671314239502 9.923503875732422 6.591360092163086 8.629505157470703 L6.591360092163086 8.629505157470703"></path>
<path fill="none" stroke="black" stroke-width=".3" stroke-opacity="1.0"  filling="0" d="M14.29521656036377 8.629535675048828 L14.29521656036377 8.629535675048828 C14.534076690673828 8.21581745147705 14.598078727722168 7.627242565155029 15.011795997619629 7.388382434844971 C15.967232704162598 6.836760997772217 17.161537170410156 7.52628755569458 17.161537170410156 8.629535675048828 C17.161537170410156 9.732782363891602 15.967233657836914 10.422310829162598 15.011795997619629 9.870688438415527 C14.598078727722168 9.631828308105469 14.534076690673828 9.043252944946289 14.29521656036377 8.629535675048828 L14.29521656036377 8.629535675048828"></path>
<path fill="none" stroke="black" stroke-width=".3" stroke-opacity="1.0"  filling="0" d="M22.706256866455078 12.04687213897705 L22.706256866455078 12.04687213897705 C22.53302764892578 13.979877471923828 22.07400894165039 15.79128646850586 21.222137451171875 17.37436866760254 C20.37026596069336 18.95745277404785 19.125545501708984 20.312210083007812 17.38091278076172 21.331911087036133 C15.032989501953125 22.704225540161133 12.452468872070312 23.03557586669922 10.055296897888184 22.56559944152832 C7.658124923706055 22.095623016357422 5.444300651550293 20.824316024780273 3.8297698497772217 18.991317749023438 C2.2152388095855713 17.15831756591797 1.2000007629394531 14.76362419128418 1.2000007629394531 12.04687213897705 C1.2000007629394531 9.330079078674316 2.2152044773101807 6.935337543487549 3.8297011852264404 5.102291584014893 C5.444198131561279 3.2692456245422363 7.657987594604492 1.99789559841156 10.055159568786621 1.5278867483139038 C12.45233154296875 1.0578778982162476 15.032886505126953 1.3892101049423218 17.38091278076172 2.761528491973877 C19.125635147094727 3.7812421321868896 20.370361328125 5.136045932769775 21.222211837768555 6.7191877365112305 C22.07406234741211 8.302329063415527 22.533039093017578 10.113807678222656 22.706256866455078 12.04687213897705 L22.706256866455078 12.04687213897705"></path>
<path fill="none" stroke="black" stroke-width=".3" stroke-opacity="1.0"  filling="0" d="M10.004592895507812 13.44914436340332 L11.952912330627441 15.397895812988281 L13.902095794677734 13.44914436340332 L15.106513023376465 14.653559684753418 L13.157759666442871 16.60188102722168 L15.106513023376465 18.55084800720215 L13.902095794677734 19.75526237487793 L11.952912330627441 17.806943893432617 L10.004592895507812 19.75526237487793 L8.800176620483398 18.55084800720215 L10.749143600463867 16.60188102722168 L8.800176620483398 14.653559684753418 L10.004592895507812 13.44914436340332"></path></svg>