<svg xmlns="http://www.w3.org/2000/svg" viewBox="0.0 0.0 24.0 24.0" height="200px" width="200px"><path fill="none" stroke="black" stroke-width=".3" stroke-opacity="1.0"  filling="0" d="M12.0 1.2000007629394531 L12.0 1.2000007629394531 C13.941463470458984 1.3740053176879883 15.760761260986328 1.835093379020691 17.35072898864746 2.690744161605835 C18.940696716308594 3.5463950634002686 20.301332473754883 4.796608924865723 21.325471878051758 6.548864364624023 C22.359182357788086 8.31749439239502 22.804807662963867 10.21750545501709 22.76388168334961 12.072667121887207 C22.72295570373535 13.927828788757324 22.195476531982422 15.738142013549805 21.282978057861328 17.327377319335938 C20.370479583740234 18.916610717773438 19.072959899902344 20.284767150878906 17.491954803466797 21.255613327026367 C15.9109468460083 22.22646141052246 14.046451568603516 22.799999237060547 12.0 22.799999237060547 C9.953559875488281 22.799999237060547 8.089069366455078 22.226455688476562 6.5080647468566895 21.25560188293457 C4.927060127258301 20.284748077392578 3.6295409202575684 18.91658592224121 2.7170424461364746 17.327346801757812 C1.8045437335968018 15.738107681274414 1.277065634727478 13.927791595458984 1.2361429929733276 12.072633743286133 C1.1952203512191772 10.217474937438965 1.6408531665802002 8.317474365234375 2.6745765209198 6.548864364624023 C3.698723793029785 4.796638488769531 5.05935525894165 3.546426773071289 6.6493120193481445 2.6907694339752197 C8.239269256591797 1.8351120948791504 10.058551788330078 1.374009132385254 12.0 1.2000007629394531 L12.0 1.2000007629394531"></path>
<path fill="none" stroke="black" stroke-width=".3" stroke-opacity="1.0"  filling="0" d="M11.99287223815918 3.5714645385742188 L11.99287223815918 3.5714645385742188 C12.406296730041504 3.7428784370422363 12.916717529296875 3.769200563430786 13.233144760131836 4.0857062339782715 C14.31908893585205 5.171917915344238 13.529624938964844 7.0810322761535645 11.99287223815918 7.0810322761535645 C10.456130981445312 7.0810322761535645 9.664493560791016 5.172545909881592 10.75173568725586 4.0857062339782715 C11.068449020385742 3.7691099643707275 11.5791597366333 3.7428784370422363 11.99287223815918 3.5714645385742188 L11.99287223815918 3.5714645385742188"></path>
<path fill="none" stroke="black" stroke-width=".3" stroke-opacity="1.0"  filling="0" d="M18.31108856201172 9.727248191833496 L13.664496421813965 11.136431694030762 L13.664064407348633 14.022407531738281 L17.473007202148438 17.832862854003906 C18.293094635009766 19.816503524780273 17.231578826904297 20.879911422729492 15.24777603149414 20.058095932006836 L12.09115219116211 16.90212059020996 L8.934743881225586 20.056583404541016 C6.966701507568359 20.871551513671875 5.8758392333984375 19.827085494995117 6.648168087005615 17.83156967163086 L10.396200180053711 14.024784088134766 L10.396200180053711 11.13599967956543 L5.810304164886475 9.727248191833496 C4.156566143035889 8.345467567443848 4.654759407043457 6.9258012771606445 6.769992351531982 6.715776443481445 L12.087047576904297 8.325407981872559 L17.395896911621094 6.715776443481445 C19.529369354248047 6.928733825683594 19.96908950805664 8.364174842834473 18.31108856201172 9.727248191833496 L18.31108856201172 9.727248191833496"></path></svg>