<svg xmlns="http://www.w3.org/2000/svg" viewBox="0.0 0.0 24.0 24.0" height="200px" width="200px"><path fill="none" stroke="black" stroke-width=".3" stroke-opacity="1.0"  filling="0" d="M6.295224189758301 10.151688575744629 L6.295224189758301 14.816856384277344 L4.572408199310303 14.816856384277344 L4.572408199310303 10.151688575744629 L6.295224189758301 10.151688575744629"></path>
<path fill="none" stroke="black" stroke-width=".3" stroke-opacity="1.0"  filling="0" d="M10.672247886657715 10.151688575744629 L10.672247886657715 14.816856384277344 L8.950296401977539 14.816856384277344 L8.950296401977539 10.151688575744629 L10.672247886657715 10.151688575744629"></path>
<path fill="none" stroke="black" stroke-width=".3" stroke-opacity="1.0"  filling="0" d="M15.048839569091797 10.151688575744629 L15.048839569091797 14.816856384277344 L13.363176345825195 14.816856384277344 L13.363176345825195 10.151688575744629 L15.048839569091797 10.151688575744629"></path>
<path fill="none" stroke="black" stroke-width=".3" stroke-opacity="1.0"  filling="0" d="M19.426727294921875 10.151688575744629 L19.426727294921875 14.816856384277344 L17.741064071655273 14.816856384277344 L17.741064071655273 10.151688575744629 L19.426727294921875 10.151688575744629"></path>
<path fill="none" stroke="black" stroke-width=".3" stroke-opacity="1.0"  filling="0" d="M22.11787223815918 14.816856384277344 L22.800216674804688 14.816856384277344 L22.800216674804688 16.538593292236328 L22.11787223815918 16.538593292236328 L22.11787223815918 18.2253360748291 L19.426727294921875 18.2253360748291 L19.426727294921875 16.538593292236328 L17.741064071655273 16.538593292236328 L17.741064071655273 18.2253360748291 L15.048839569091797 18.2253360748291 L15.048839569091797 16.538593292236328 L13.363176345825195 16.538593292236328 L13.363176345825195 18.2253360748291 L10.672247886657715 18.2253360748291 L10.672247886657715 16.538593292236328 L8.950296401977539 16.538593292236328 L8.950296401977539 18.2253360748291 L6.295224189758301 18.2253360748291 L6.295224189758301 16.538593292236328 L4.572408199310303 16.538593292236328 L4.572408199310303 18.2253360748291 L1.9173364639282227 18.2253360748291 L1.9173364639282227 16.538593292236328 L1.2000007629394531 16.538593292236328 L1.2000007629394531 14.816856384277344 L1.9173364639282227 14.816856384277344 L1.9173364639282227 10.151688575744629 L1.2000007629394531 10.151688575744629 L1.2000007629394531 8.464943885803223 L1.9173364639282227 8.464943885803223 L1.9173364639282227 7.496831893920898 L3.244873046875 5.774664402008057 L4.572408199310303 7.496831893920898 L4.572408199310303 8.464943885803223 L6.295224189758301 8.464943885803223 L6.295224189758301 7.496831893920898 L7.623624324798584 5.774664402008057 L8.950296401977539 7.496831893920898 L8.950296401977539 8.464943885803223 L10.672247886657715 8.464943885803223 L10.672247886657715 7.496831893920898 L11.999783515930176 5.774664402008057 L13.363391876220703 7.496831893920898 L13.363391876220703 8.464943885803223 L15.049055099487305 8.464943885803223 L15.049055099487305 7.496831893920898 L16.3765926361084 5.774664402008057 L17.741064071655273 7.496831893920898 L17.741064071655273 8.464943885803223 L19.426727294921875 8.464943885803223 L19.426727294921875 7.496831893920898 L20.754262924194336 5.774664402008057 L22.117656707763672 7.496831893920898 L22.117656707763672 8.464943885803223 L22.799999237060547 8.464943885803223 L22.799999237060547 10.151688575744629 L22.117656707763672 10.151688575744629 L22.117656707763672 14.816856384277344 L22.117656707763672 10.151688575744629 L22.117656707763672 14.816856384277344"></path></svg>