<svg xmlns="http://www.w3.org/2000/svg" viewBox="0.0 0.0 24.0 24.0" height="200px" width="200px"><path fill="none" stroke="black" stroke-width=".3" stroke-opacity="1.0"  filling="0" d="M17.33822250366211 6.68942403793335 L17.33822250366211 6.68942403793335 C17.384159088134766 6.726144313812256 17.430095672607422 6.762864112854004 17.476032257080078 6.79958438873291 L18.21691131591797 9.351840019226074 L17.942806243896484 9.51643180847168 L16.24073028564453 6.826152324676514 C16.268016815185547 6.762144565582275 16.295305252075195 6.698136329650879 16.32259178161621 6.634128570556641 L17.33822250366211 6.68942403793335"></path>
<path fill="none" stroke="black" stroke-width=".3" stroke-opacity="1.0"  filling="0" d="M14.264543533325195 10.970111846923828 L14.264543533325195 10.970111846923828 C14.264472007751465 11.034407615661621 14.264399528503418 11.09870433807373 14.264328002929688 11.163000106811523 L13.852848052978516 12.069120407104492 L12.041472434997559 13.221694946289062 C11.995823860168457 13.184975624084473 11.950176239013672 13.148255348205566 11.90452766418457 13.111536026000977 L12.5626802444458 11.985527992248535 C12.704360961914062 11.25251293182373 12.723138809204102 10.500487327575684 12.837215423583984 9.762672424316406 C12.932435989379883 9.146810531616211 13.81917667388916 10.534220695495605 14.264543533325195 10.970111846923828 L14.264543533325195 10.970111846923828"></path>
<path fill="none" stroke="black" stroke-width=".3" stroke-opacity="1.0"  filling="0" d="M16.51461410522461 12.727272033691406 L16.51461410522461 12.727272033691406 C16.05836296081543 12.574785232543945 16.05094337463379 13.570771217346191 15.797873497009277 13.979883193969727 C15.524311065673828 14.422122955322266 15.039286613464355 14.752887725830078 14.895912170410156 15.2527437210083 L14.895912170410156 15.609575271606445 C14.932343482971191 15.6551513671875 14.968775749206543 15.700727462768555 15.005207061767578 15.74630355834961 L15.060503005981445 15.774168014526367 C15.298711776733398 16.48502540588379 14.794759750366211 19.629383087158203 14.264543533325195 20.110366821289062 L11.547264099121094 20.110366821289062 C11.43015193939209 19.993255615234375 11.390175819396973 19.747238159179688 11.491968154907227 19.61659049987793 L12.672623634338379 19.286760330200195 C12.691055297851562 19.26861572265625 12.709487915039062 19.250471115112305 12.727919578552246 19.23232650756836 L12.946943283081055 15.19809627532959 C13.056815147399902 14.685816764831543 13.166687965393066 14.17353630065918 13.276559829711914 13.661256790161133 L13.496231079101562 13.111967086791992 L11.95960807800293 14.045520782470703 C11.993441581726074 14.218781471252441 11.859946250915527 14.38863754272461 11.767583847045898 14.539080619812012 L11.19064712524414 14.813615798950195 C11.054450988769531 14.83276653289795 10.912450790405273 14.819263458251953 10.778951644897461 14.78618335723877 L9.489431381225586 15.609575271606445 C9.892388343811035 17.05059242248535 10.309327125549316 18.498598098754883 10.697087287902832 19.94642448425293 L10.697087287902832 19.94642448425293 C10.642007827758789 20.001001358032227 10.58692741394043 20.05557632446289 10.531847953796387 20.110153198242188 L5.86592435836792 20.110153198242188 L1.2000007629394531 20.110153198242188 L3.217440605163574 16.610952377319336 L5.234880447387695 13.111751556396484 C5.454264163970947 12.983663558959961 5.673648357391357 12.855575561523438 5.893032073974609 12.727487564086914 L7.183200359344482 12.974808692932129 C7.201272487640381 12.993240356445312 7.219344139099121 13.011672019958496 7.2374162673950195 13.03010368347168 L7.759488105773926 13.907495498657227 C7.8875041007995605 14.008008003234863 8.015520095825195 14.108519554138184 8.143536567687988 14.20903205871582 L9.022224426269531 14.511648178100586 C9.122736930847168 14.648736000061035 9.223248481750488 14.7858247756958 9.323760986328125 14.92291259765625 L10.476119995117188 14.182464599609375 C10.425924301147461 13.997042655944824 10.42110824584961 13.790226936340332 10.476119995117188 13.606176376342773 L11.40988826751709 11.300159454345703 C11.614258766174316 10.340849876403809 11.204290390014648 9.28640365600586 11.13599967956543 8.308775901794434 L11.13599967956543 8.116751670837402 C11.163288116455078 8.043456077575684 11.19057559967041 7.970160007476807 11.217864036560059 7.89686393737793 L11.904312133789062 7.210416316986084 C11.964898109436035 7.088604927062988 11.863330841064453 6.922372341156006 11.76736831665039 6.825936317443848 L11.107704162597656 6.716640472412109 C10.732728004455566 6.231792449951172 10.230232238769531 5.822854995727539 9.982776641845703 5.262096405029297 C9.629790306091309 4.4621968269348145 11.45561695098877 3.424246311187744 12.041472434997559 4.081656455993652 C12.445487022399902 4.535016059875488 12.663984298706055 5.124504566192627 12.975239753723145 5.645928382873535 L12.975239753723145 5.783952236175537 C13.056114196777344 5.864826202392578 13.166040420532227 5.976292610168457 13.276776313781738 5.9476799964904785 L14.292407035827637 5.262096405029297 C14.52093505859375 5.18880033493042 14.74946403503418 5.115504741668701 14.977992057800293 5.042208671569824 L15.362256050109863 5.042208671569824 C15.807089805603027 5.090223789215088 16.259885787963867 5.089685440063477 16.696758270263672 5.186253547668457 C19.271080017089844 5.75529146194458 18.453819274902344 7.69136905670166 19.616161346435547 9.433487892150879 L19.616161346435547 9.460919380187988 C19.51011085510254 10.112594604492188 18.999277114868164 10.078324317932129 18.545663833618164 9.927912712097168 L18.21669578552246 10.119935989379883 L19.232112884521484 14.292191505432129 C19.314552307128906 14.456711769104004 19.396991729736328 14.621231079101562 19.47943115234375 14.785751342773438 L19.47943115234375 14.785751342773438 C19.639938354492188 14.739532470703125 19.82171058654785 14.79908561706543 19.97364044189453 14.86847972869873 L22.05976676940918 17.28379249572754 L22.662837982177734 17.557682037353516 C22.724138259887695 17.65595245361328 22.800737380981445 17.77452278137207 22.77342987060547 17.8870792388916 L21.757801055908203 19.61680793762207 C21.48333740234375 19.781328201293945 21.208871841430664 19.945846557617188 20.93440818786621 20.110366821289062 L20.52271270751953 20.110366821289062 C20.46109962463379 20.049043655395508 20.401105880737305 19.940799713134766 20.439983367919922 19.863048553466797 L20.439983367919922 19.863048553466797 C20.60479164123535 19.478857040405273 20.76959991455078 19.094663619995117 20.93440818786621 18.710472106933594 L20.93440818786621 18.518447875976562 C20.879255294799805 18.417936325073242 20.82410430908203 18.31742286682129 20.768951416015625 18.21691131591797 L17.777353286743164 15.801599502563477 C17.16983413696289 15.019140243530273 16.866960525512695 13.650802612304688 16.51461410522461 12.727272033691406 L16.51461410522461 12.727272033691406"></path></svg>