<svg xmlns="http://www.w3.org/2000/svg" viewBox="0.0 0.0 24.0 24.0" height="200px" width="200px"><path fill="none" stroke="black" stroke-width=".3" stroke-opacity="1.0"  filling="0" d="M5.25151252746582 8.911848068237305 L5.25151252746582 11.120880126953125 L2.5692243576049805 11.120880126953125 L2.904672622680664 9.247079849243164 C3.0443525314331055 9.117119789123535 3.184032440185547 8.987160682678223 3.3237123489379883 8.857200622558594 L5.25151252746582 8.911848068237305"></path>
<path fill="none" stroke="black" stroke-width=".3" stroke-opacity="1.0"  filling="0" d="M1.7587919235229492 11.790696144104004 L2.233776092529297 9.136272430419922 C2.597088098526001 8.819472312927246 2.960400342941284 8.50267219543457 3.3237123489379883 8.185872077941895 L6.369312286376953 8.185872077941895 C6.518352508544922 8.334912300109863 6.667392253875732 8.483951568603516 6.816432476043701 8.632991790771484 L6.816432476043701 11.120880126953125 L7.710672378540039 11.120880126953125 L7.710672378540039 7.068504333496094 C7.859712600708008 6.919392108917236 8.008752822875977 6.770280361175537 8.157793045043945 6.62116813659668 L15.25533676147461 6.62116813659668 L22.352880477905273 6.62116813659668 C22.50199317932129 6.770280361175537 22.651103973388672 6.919392108917236 22.800216674804688 7.068504333496094 L22.800216674804688 11.343684196472168 L22.800216674804688 15.618864059448242 L20.730716705322266 15.618864059448242 C20.82988739013672 13.836664199829102 18.526721954345703 13.041823387145996 17.34543228149414 14.207547187805176 C16.98925018310547 14.559036254882812 16.957874298095703 15.130281448364258 16.764095306396484 15.59164810180664 L11.650619506835938 15.59164810180664 L6.537144184112549 15.59164810180664 C5.982788562774658 14.2717866897583 4.757185459136963 12.622118949890137 3.1502370834350586 14.207547187805176 C2.7940268516540527 14.558987617492676 2.7627508640289307 15.130281448364258 2.5690078735351562 15.59164810180664 L1.8704643249511719 15.618864059448242 L1.215336799621582 12.6048002243042 C1.1815260648727417 12.282642364501953 1.5503820180892944 12.047019004821777 1.7596569061279297 11.799768447875977 L1.7587919235229492 11.790696144104004"></path>
<path fill="none" stroke="black" stroke-width=".3" stroke-opacity="1.0"  filling="0" d="M4.5527520179748535 13.802736282348633 L4.5527520179748535 13.802736282348633 C4.974249362945557 13.977524757385254 5.494628429412842 14.004409790039062 5.817243576049805 14.327102661132812 C6.92482328414917 15.43494987487793 6.119138240814209 17.37883186340332 4.5527520179748535 17.37883186340332 C2.9863767623901367 17.37883186340332 2.181466579437256 15.434728622436523 3.288557767868042 14.327102661132812 C3.6110689640045166 14.004435539245605 4.131353855133057 13.977524757385254 4.5527520179748535 13.802736282348633 L4.5527520179748535 13.802736282348633"></path>
<path fill="none" stroke="black" stroke-width=".3" stroke-opacity="1.0"  filling="0" d="M18.747623443603516 13.802736282348633 L18.747623443603516 13.802736282348633 C19.169137954711914 13.977524757385254 19.689502716064453 14.004437446594238 20.012168884277344 14.327102661132812 C21.120159149169922 15.435091018676758 20.314189910888672 17.37883186340332 18.747623443603516 17.37883186340332 C17.181137084960938 17.37883186340332 16.376556396484375 15.434671401977539 17.483591079711914 14.327102661132812 C17.806066513061523 14.004470825195312 18.326278686523438 13.977524757385254 18.747623443603516 13.802736282348633 L18.747623443603516 13.802736282348633"></path>
<path fill="none" stroke="black" stroke-width=".3" stroke-opacity="1.0"  filling="0" d="M4.5527520179748535 14.724191665649414 L4.5527520179748535 14.724191665649414 C4.8509039878845215 15.022416114807129 5.447208404541016 15.197162628173828 5.447208404541016 15.618864059448242 C5.447208404541016 16.04051399230957 4.97440242767334 16.51331901550293 4.5527520179748535 16.51331901550293 C4.131203651428223 16.51331901550293 3.65872859954834 16.04041290283203 3.65872859954834 15.618864059448242 C3.65872859954834 15.197264671325684 4.254744052886963 15.022416114807129 4.5527520179748535 14.724191665649414 L4.5527520179748535 14.724191665649414"></path>
<path fill="none" stroke="black" stroke-width=".3" stroke-opacity="1.0"  filling="0" d="M18.747623443603516 14.724191665649414 L18.747623443603516 14.724191665649414 C19.045846939086914 15.022416114807129 19.642295837402344 15.197111129760742 19.642295837402344 15.618864059448242 C19.642295837402344 16.307382583618164 17.853166580200195 17.31549644470215 17.853166580200195 15.618864059448242 C17.853166580200195 15.197162628173828 18.44947052001953 15.022416114807129 18.747623443603516 14.724191665649414 L18.747623443603516 14.724191665649414"></path>
<path fill="none" stroke="black" stroke-width=".3" stroke-opacity="1.0"  filling="0" d="M16.764312744140625 15.618864059448242 L16.736663818359375 13.243295669555664 L20.14557647705078 13.243295669555664 L21.766223907470703 15.618864059448242 L20.563968658447266 15.618864059448242 L19.55891990661621 14.472552299499512 L17.93805503845215 14.472552299499512 L17.489423751831055 15.618864059448242 L16.764312744140625 15.618864059448242"></path></svg>