<svg xmlns="http://www.w3.org/2000/svg" viewBox="0.0 0.0 24.0 24.0" height="200px" width="200px"><path fill="none" stroke="black" stroke-width=".3" stroke-opacity="1.0"  filling="0" d="M6.157847881317139 7.466808319091797 L8.400575637817383 7.466808319091797 L8.400575637817383 10.252559661865234 L4.292256832122803 10.252559661865234 L5.661696434020996 7.749984264373779 L6.157847881317139 7.466808319091797"></path>
<path fill="none" stroke="black" stroke-width=".3" stroke-opacity="1.0"  filling="0" d="M20.46331024169922 8.246784210205078 L19.353286743164062 10.607231140136719 L14.443175315856934 10.607231140136719 L20.46331024169922 8.246784210205078"></path>
<path fill="none" stroke="black" stroke-width=".3" stroke-opacity="1.0"  filling="0" d="M21.855648040771484 12.259416580200195 L22.02088737487793 12.755352020263672 L21.45431900024414 13.110024452209473 L21.36035919189453 13.770769119262695 L21.974231719970703 14.125439643859863 L22.799999237060547 13.581119537353516 L22.58767318725586 14.147687911987305 L21.99777603149414 14.524175643920898 L21.360143661499023 14.47838306427002 L20.722946166992188 13.67529582977295 L21.147382736206055 12.071063995361328 L21.147382736206055 8.435135841369629 L20.132831573486328 10.607231140136719 L20.132831573486328 14.644271850585938 L19.613136291503906 15.139776229858398 L18.857566833496094 15.139776229858398 L18.55084800720215 14.006207466125488 L17.820119857788086 13.227959632873535 L16.355640411376953 12.87328815460205 L14.821392059326172 13.699056625366211 L14.326319694519043 15.139991760253906 L7.173048496246338 15.139991760253906 L6.677976608276367 13.699272155761719 L5.142864227294922 12.873503684997559 L3.678600311279297 13.22817611694336 L2.829072952270508 14.218751907348633 L2.6398563385009766 15.139776229858398 L1.837416648864746 15.139776229858398 L1.2000007629394531 11.668871879577637 L1.648416519165039 11.055215835571289 L3.70257568359375 10.252344131469727 L5.355192184448242 7.2542643547058105 L6.110544204711914 6.782952308654785 L11.162135124206543 6.805847644805908 L11.304047584533691 10.60744857788086 L12.508031845092773 10.60744857788086 L16.41482162475586 9.084648132324219 L20.321613311767578 7.561848163604736 L20.581031799316406 6.971519947052002 L21.33660125732422 6.783167839050293 L21.973800659179688 7.466808319091797 L21.85586166381836 12.259416580200195"></path>
<path fill="none" stroke="black" stroke-width=".3" stroke-opacity="1.0"  filling="0" d="M5.9453043937683105 15.139776229858398 L5.7325439453125 15.800520896911621 L4.7877607345581055 16.177871704101562 L4.033056735992432 15.728375434875488 L3.8678159713745117 14.949695587158203 L4.2920403480529785 14.290464401245117 L4.953216075897217 14.076623916625977 L5.732760429382324 14.479463577270508 L5.9453043937683105 15.139776229858398"></path>
<path fill="none" stroke="black" stroke-width=".3" stroke-opacity="1.0"  filling="0" d="M7.007160186767578 15.139776229858398 L6.417912006378174 16.602527618408203 L4.7417521476745605 17.21704864501953 L3.32479190826416 16.5087833404541 L2.8292884826660156 14.902824401855469 L3.583775520324707 13.510919570922852 L5.071800231933594 13.038311958312988 L6.417263984680176 13.675943374633789 L7.007160186767578 15.139776229858398"></path>
<path fill="none" stroke="black" stroke-width=".3" stroke-opacity="1.0"  filling="0" d="M17.63025665283203 15.139776229858398 L17.276016235351562 15.918456077575684 L16.44981575012207 16.17852020263672 L15.765311241149902 15.800735473632812 L15.552766799926758 14.95034408569336 L15.954312324523926 14.29111099243164 L16.63881492614746 14.077272415161133 L17.347293853759766 14.407751083374023 L17.63025665283203 15.139776229858398"></path>
<path fill="none" stroke="black" stroke-width=".3" stroke-opacity="1.0"  filling="0" d="M18.66899871826172 15.139776229858398 L18.00782585144043 16.674022674560547 L16.40229606628418 17.21683120727539 L15.080160140991211 16.602312088012695 L14.489616394042969 15.02184009552002 L15.245183944702148 13.510919570922852 L16.756319046020508 13.038311958312988 L18.24412727355957 13.840968132019043 L18.66899871826172 15.139776229858398"></path></svg>