<svg xmlns="http://www.w3.org/2000/svg" viewBox="0.0 0.0 24.0 24.0" height="200px" width="200px"><path fill="none" stroke="black" stroke-width=".3" stroke-opacity="1.0"  filling="0" d="M12.173664093017578 2.5163049697875977 L12.173664093017578 2.5163049697875977 C14.310067176818848 2.69328236579895 16.20345687866211 2.9485456943511963 18.11502456665039 4.007656574249268 C19.838401794433594 4.962499618530273 21.1136417388916 6.339145660400391 21.872669219970703 7.894394874572754 C22.631696701049805 9.449644088745117 22.87451171875 11.18349838256836 22.533039093017578 12.85275650024414 C22.191566467285156 14.522014617919922 21.265804290771484 16.126676559448242 19.68768310546875 17.423545837402344 C18.115449905395508 18.715574264526367 16.33605194091797 19.436885833740234 14.4713716506958 19.736082077026367 C12.606691360473633 20.0352783203125 10.656728744506836 19.91236114501953 8.743368148803711 19.51593589782715 L8.743368148803711 19.51593589782715 C7.486088275909424 20.416065216064453 6.325446605682373 21.0695743560791 5.116524696350098 21.31050682067871 C3.9076030254364014 21.551441192626953 2.6504011154174805 21.37980079650879 1.2000007629394531 20.629634857177734 L1.2000007629394531 20.629634857177734 C3.6737377643585205 20.176530838012695 4.190945148468018 19.928224563598633 4.745856285095215 17.492664337158203 L4.745856285095215 17.492664337158203 C3.6224308013916016 16.396066665649414 3.139719009399414 16.10210609436035 2.4067656993865967 14.693817138671875 C1.1997698545455933 12.374707221984863 1.2218576669692993 10.30335521697998 2.008014440536499 8.554019927978516 C2.7941713333129883 6.804685115814209 4.344397068023682 5.377367973327637 6.193676948547363 4.3463287353515625 C8.042957305908203 3.3152894973754883 10.191290855407715 2.680528163909912 12.173664093017578 2.5163049697875977 L12.173664093017578 2.5163049697875977"></path></svg>