<svg xmlns="http://www.w3.org/2000/svg" viewBox="0.0 0.0 24.0 24.0" height="200px" width="200px"><path fill="none" stroke="black" stroke-width=".3" stroke-opacity="1.0"  filling="0" d="M12.220536231994629 5.095128536224365 L12.220536231994629 5.095128536224365 C12.829224586486816 5.243664741516113 13.437911987304688 5.392200469970703 14.046600341796875 5.540736675262451 L10.254719734191895 5.540736675262451 C10.890107154846191 5.322271823883057 11.553552627563477 5.176231384277344 12.220536231994629 5.095128536224365 L12.220536231994629 5.095128536224365"></path>
<path fill="none" stroke="black" stroke-width=".3" stroke-opacity="1.0"  filling="0" d="M21.795814514160156 5.540736675262451 L21.795814514160156 5.540736675262451 C22.130470275878906 5.875176429748535 22.46512794494629 6.209616184234619 22.79978370666504 6.544055938720703 L22.79978370666504 13.226232528686523 L22.79978370666504 19.908409118652344 C22.46512794494629 20.243064880371094 22.130470275878906 20.577720642089844 21.795814514160156 20.912376403808594 L15.265127182006836 20.912376403808594 L8.734439849853516 20.912376403808594 L2.2037525177001953 20.912376403808594 C1.8691686391830444 20.577720642089844 1.534584641456604 20.243064880371094 1.2000007629394531 19.908409118652344 L1.2000007629394531 13.226449012756348 L1.2000007629394531 6.544488430023193 C1.5345847606658936 6.209904670715332 1.8691685199737549 5.8753204345703125 2.2037525177001953 5.540736675262451 L6.77128791809082 5.540736675262451 C8.488045692443848 3.9445505142211914 10.265922546386719 3.2144875526428223 12.04254150390625 3.248502492904663 C13.819161415100098 3.282517671585083 15.594524383544922 4.080610752105713 17.306255340576172 5.540736675262451 L21.795814514160156 5.540736675262451"></path>
<path fill="none" stroke="black" stroke-width=".3" stroke-opacity="1.0"  filling="0" d="M20.63395118713379 7.5482401847839355 L18.474815368652344 12.55620002746582 L16.525848388671875 12.55620002746582 L16.525848388671875 11.890704154968262 L14.808862686157227 11.890704154968262 L14.808862686157227 12.55620002746582 L9.410375595092773 12.55620002746582 L9.410375595092773 11.890704154968262 L7.693391799926758 11.890704154968262 L7.693391799926758 12.55620002746582 L5.523887634277344 12.55620002746582 L3.3651838302612305 7.5482401847839355 L9.121439933776855 7.548240661621094 L14.87769603729248 7.548240661621094 L20.63395118713379 7.5482401847839355"></path>
<path fill="none" stroke="black" stroke-width=".3" stroke-opacity="1.0"  filling="0" d="M20.791847229003906 18.904438018798828 L14.930471420288086 18.904438018798828 L9.069095611572266 18.904438018798828 L3.2077198028564453 18.904438018798828 L3.2077198028564453 14.734234809875488 L3.2077198028564453 10.564031600952148 L4.4691596031188965 13.49018383026123 C4.673999786376953 13.625040054321289 4.878839492797852 13.759895324707031 5.083679676055908 13.89475154876709 L7.693607330322266 13.89475154876709 L7.693607330322266 14.466718673706055 L9.410591125488281 14.466718673706055 L9.410591125488281 13.89475154876709 L14.808862686157227 13.89475154876709 L14.808862686157227 14.466718673706055 L16.525632858276367 14.466718673706055 L16.525632858276367 13.89475154876709 L18.91567039489746 13.89475154876709 C19.120437622070312 13.759895324707031 19.325206756591797 13.625040054321289 19.52997398376465 13.49018383026123 L20.792926788330078 10.562088012695312 L20.792387008666992 14.73326301574707 L20.791847229003906 18.904438018798828"></path></svg>