<svg xmlns="http://www.w3.org/2000/svg" viewBox="0.0 0.0 24.0 24.0" height="200px" width="200px"><path fill="none" stroke="black" stroke-width=".3" stroke-opacity="1.0"  filling="0" d="M8.592327117919922 16.28594207763672 L8.592327117919922 16.28594207763672 C7.571244239807129 18.31968879699707 8.78756046295166 20.595260620117188 9.851363182067871 22.297119140625 C10.0115327835083 22.55335807800293 9.452021598815918 22.540985107421875 9.436765670776367 22.544523239135742 L9.34130859375 22.54729461669922 C8.060577392578125 22.404325485229492 7.621177673339844 18.905309677124023 7.121507167816162 17.932266235351562 L7.121507167816162 17.932266235351562 C6.926721096038818 18.790531158447266 6.800303936004639 20.250368118286133 7.046919345855713 21.098567962646484 C7.188140392303467 21.584278106689453 7.85103702545166 21.94093894958496 7.759381294250488 22.43838882446289 C7.691038131713867 22.809314727783203 6.635724067687988 22.529590606689453 6.508496284484863 22.477516174316406 C6.1344380378723145 22.32441520690918 6.343974590301514 21.68606185913086 6.266389846801758 21.289400100708008 C6.01967716217041 20.028053283691406 6.054004192352295 18.761642456054688 6.093717575073242 17.495471954345703 C6.133431434631348 16.22930335998535 6.178530693054199 14.963371276855469 5.953362941741943 13.702980995178223 L5.953362941741943 13.702980995178223 C5.729159832000732 14.466961860656738 5.51695442199707 15.235735893249512 5.246443271636963 15.984573364257812 L5.246443271636963 15.984573364257812 C5.231199264526367 16.018674850463867 5.21595573425293 16.05277442932129 5.200711727142334 16.086875915527344 L5.200711727142334 16.086875915527344 C4.892958641052246 16.797346115112305 5.123715877532959 18.513776779174805 4.343555927276611 18.826759338378906 C4.289367198944092 18.848499298095703 4.167839050292969 18.065080642700195 4.176527976989746 17.95460319519043 C4.2215094566345215 17.3826904296875 4.623073101043701 16.42475700378418 4.882875919342041 15.932075500488281 L4.905618667602539 15.886018753051758 C5.3558197021484375 14.632494926452637 5.233918190002441 13.235136032104492 5.984421253204346 12.093337059020996 C6.835228443145752 10.798937797546387 9.430645942687988 10.77492618560791 10.649418830871582 9.96744441986084 C11.563443183898926 9.361869812011719 12.018525123596191 8.254430770874023 12.692889213562012 7.38991117477417 C13.890544891357422 5.8545427322387695 15.07865047454834 4.311761856079102 16.280153274536133 2.779399871826172 L16.280153274536133 2.779399871826172 C15.032135009765625 1.372815728187561 16.713808059692383 2.5400145053863525 17.300264358520508 2.239673614501953 L17.35773277282715 2.2285051345825195 C17.360395431518555 2.2280161380767822 17.363059997558594 2.227527379989624 17.36572265625 2.2270383834838867 L17.36572265625 2.2270383834838867 C17.36615753173828 2.220815896987915 17.366592407226562 2.2145936489105225 17.367027282714844 2.208371162414551 L17.369552612304688 2.16019344329834 C17.000965118408203 0.9524155855178833 17.83852767944336 1.3510196208953857 17.73214340209961 1.650954246520996 L17.73214340209961 1.650954246520996 C17.78409767150879 1.827599048614502 17.839988708496094 1.9847536087036133 17.91400909423828 2.1544876098632812 L17.91400909423828 2.1544876098632812 C17.9251766204834 1.975203514099121 17.936342239379883 1.795919418334961 17.947509765625 1.6166353225708008 L17.94645118713379 1.5880231857299805 C17.60417938232422 1.0851655006408691 18.349899291992188 1.2459092140197754 18.52530860900879 1.3653993606567383 C18.808565139770508 1.558356761932373 18.383926391601562 2.036964178085327 18.341894149780273 2.3771114349365234 L18.341894149780273 2.3771114349365234 C18.71906852722168 2.650014877319336 20.478832244873047 5.464173316955566 19.484603881835938 4.9960222244262695 L19.484603881835938 4.9960222244262695 C19.157424926757812 5.082726955413818 18.95287322998047 4.8064727783203125 18.70758056640625 4.618107795715332 L18.648561477661133 4.609548568725586 C18.141935348510742 4.4827799797058105 17.511573791503906 3.740603446960449 17.15850257873535 4.125416278839111 C16.242807388305664 5.123434543609619 15.986699104309082 6.414805889129639 15.705130577087402 7.6991400718688965 L15.705130577087402 7.6991400718688965 C15.59472370147705 8.077555656433105 15.495020866394043 8.459125518798828 15.379141807556152 8.835901260375977 L15.344414710998535 8.935026168823242 C15.342023849487305 8.94209098815918 15.339632034301758 8.949155807495117 15.337241172790527 8.956220626831055 L15.305124282836914 9.049476623535156 C15.189611434936523 9.293830871582031 14.9596529006958 9.51024341583252 14.9596529006958 9.780525207519531 L14.9596529006958 9.780525207519531 C14.78210163116455 10.114843368530273 14.593707084655762 10.436878204345703 14.371585845947266 10.745528221130371 L14.371585845947266 10.745528221130371 C14.371585845947266 10.745582580566406 14.371585845947266 10.745636940002441 14.371585845947266 10.745691299438477 L14.371585845947266 10.745691299438477 C14.163668632507324 11.211936950683594 14.481441497802734 11.761274337768555 14.508779525756836 12.271045684814453 C14.553964614868164 13.113609313964844 13.892151832580566 14.392899513244629 13.750178337097168 15.079238891601562 C13.503118515014648 16.27359962463379 13.644558906555176 17.933589935302734 13.681378364562988 19.20320701599121 C13.69655704498291 19.726593017578125 13.605759620666504 20.872127532958984 13.80072021484375 21.413795471191406 C13.810925483703613 21.442148208618164 14.43433666229248 22.129573822021484 14.300666809082031 22.216659545898438 C13.700303077697754 22.607791900634766 13.116788864135742 22.505584716796875 12.988561630249023 21.84160041809082 L12.99744701385498 21.78005599975586 C12.7177152633667 19.8920841217041 12.916277885437012 17.980484008789062 12.762921333312988 16.05353546142578 L12.762921333312988 16.05353546142578 C12.564265251159668 17.77166748046875 12.610276222229004 19.404767990112305 12.693713188171387 21.123756408691406 C12.700404167175293 21.261608123779297 12.952826499938965 22.57799530029297 12.921554565429688 22.613977432250977 C11.718679428100586 23.99800682067871 11.639832496643066 21.467323303222656 11.64923095703125 21.004497528076172 C11.665489196777344 20.20387840270996 11.78164291381836 19.403995513916016 11.744932174682617 18.604053497314453 C11.681732177734375 17.226890563964844 11.617884635925293 15.869282722473145 11.496955871582031 14.49361801147461 L11.496955871582031 14.49361801147461 C10.699588775634766 14.698624610900879 10.064727783203125 15.023670196533203 9.226369857788086 14.999678611755371 L9.226369857788086 14.999678611755371 C9.187071800231934 15.018375396728516 9.13968276977539 14.99187183380127 9.096348762512207 14.987858772277832 L9.096348762512207 14.987858772277832 C8.966452598571777 15.464273452758789 8.813570976257324 15.835947036743164 8.592327117919922 16.28594207763672 L8.592327117919922 16.28594207763672"></path></svg>