<svg xmlns="http://www.w3.org/2000/svg" viewBox="0.0 0.0 24.0 24.0" height="200px" width="200px"><path fill="none" stroke="black" stroke-width=".3" stroke-opacity="1.0"  filling="0" d="M15.468174934387207 3.1591873168945312 L15.468174934387207 3.1591873168945312 C15.365983963012695 3.112178087234497 15.263792991638184 3.065169095993042 15.161602020263672 3.018159866333008 L15.161602020263672 3.018159866333008 C15.263792991638184 3.065169095993042 15.365983963012695 3.112178087234497 15.468174934387207 3.1591873168945312 L15.468174934387207 3.1591873168945312"></path>
<path fill="none" stroke="black" stroke-width=".3" stroke-opacity="1.0"  filling="0" d="M16.81529426574707 3.26363468170166 L16.81529426574707 3.26363468170166 C16.81529426574707 3.7629740238189697 16.970176696777344 5.2682342529296875 16.29227638244629 5.5846099853515625 C15.919757843017578 5.758464336395264 16.06696128845215 4.492867469787598 15.524075508117676 4.881824493408203 C14.17564868927002 5.847919464111328 13.88142204284668 6.690984725952148 13.203100204467773 7.922061920166016 C13.128355026245117 8.05771541595459 12.738903999328613 8.102021217346191 12.843469619750977 8.216278076171875 C13.693699836730957 9.145304679870605 15.41098690032959 9.356473922729492 14.445281982421875 11.256514549255371 C13.94481372833252 12.241194725036621 13.776520729064941 10.474390983581543 13.676984786987305 10.406522750854492 C13.08259105682373 10.001235961914062 11.855908393859863 11.599289894104004 11.780956268310547 12.10650634765625 C11.559393882751465 13.605854988098145 12.530572891235352 14.895405769348145 12.63094711303711 16.35626792907715 C12.732332229614258 17.83184051513672 11.552006721496582 18.88875389099121 11.780956268310547 20.458919525146484 C12.070820808410645 22.446847915649414 12.881917953491211 21.224422454833984 14.134688377380371 21.97903823852539 C14.299700736999512 22.078433990478516 14.030770301818848 22.402950286865234 13.85684871673584 22.485776901245117 C13.16826057434082 22.813701629638672 9.17779541015625 23.47934913635254 10.162765502929688 21.78289222717285 L10.162765502929688 21.78289222717285 C9.359334945678711 21.837392807006836 8.560688018798828 22.341453552246094 7.7763752937316895 22.158903121948242 C6.912830352783203 21.95791244506836 7.455887317657471 20.887962341308594 7.537238597869873 20.546829223632812 C7.750088691711426 19.65427589416504 7.647220611572266 18.70770835876465 7.841691493988037 17.810970306396484 C8.061677932739258 16.79657745361328 8.917658805847168 16.22486114501953 8.724340438842773 15.064950942993164 C8.58120346069336 14.206130981445312 7.698907852172852 13.6099853515625 7.483913421630859 12.766281127929688 C7.067076683044434 11.130485534667969 6.758956432342529 8.986062049865723 7.5148210525512695 7.399453639984131 C7.676368713378906 7.060354232788086 8.965457916259766 5.3965935707092285 9.47616195678711 5.126809120178223 C10.023543357849121 4.837648868560791 11.983160018920898 4.979520320892334 11.666505813598633 4.374890327453613 L11.666505813598633 4.374890327453613 C11.377716064453125 4.233241558074951 11.11989688873291 3.984825372695923 10.800135612487793 3.9499435424804688 C10.482232093811035 3.915264368057251 10.106770515441895 4.391979694366455 9.868450164794922 4.178745746612549 C9.604531288146973 3.942607879638672 9.7788667678833 3.4589507579803467 9.868450164794922 3.116330146789551 C10.184775352478027 1.9065165519714355 11.20579719543457 1.7230257987976074 12.254938125610352 1.6125898361206055 L12.254938125610352 1.6125898361206055 C14.716781616210938 1.0153063535690308 15.063372611999512 1.7402244806289673 16.81529426574707 3.26363468170166 L16.81529426574707 3.26363468170166"></path>
<path fill="none" stroke="black" stroke-width=".3" stroke-opacity="1.0"  filling="0" d="M11.1270112991333 16.699520111083984 L11.1270112991333 16.699520111083984 C10.673308372497559 18.094202041625977 10.835464477539062 19.407682418823242 10.37901496887207 20.769512176513672 L10.37901496887207 20.769512176513672 C7.34520959854126 20.510377883911133 9.485514640808105 17.185068130493164 9.623172760009766 15.359167098999023 L9.623172760009766 15.359167098999023 C10.1235933303833 15.806913375854492 10.6243314743042 16.25431251525879 11.1270112991333 16.699520111083984 L11.1270112991333 16.699520111083984"></path></svg>