<svg xmlns="http://www.w3.org/2000/svg" viewBox="0.0 0.0 24.0 24.0" height="200px" width="200px"><path fill="none" stroke="black" stroke-width=".3" stroke-opacity="1.0"  filling="0" d="M12.56116771697998 13.637063026428223 L11.439048767089844 13.637063026428223 C9.7236328125 13.5093994140625 8.554882049560547 13.010257720947266 7.726737022399902 12.14346981048584 C6.8985915184021 11.276680946350098 6.411050796508789 10.042244911193848 6.058056354522705 8.443991661071777 L6.055896759033203 8.262552261352539 C6.306960582733154 8.159016609191895 6.5580244064331055 8.055480003356934 6.809088230133057 7.951944351196289 L6.809088230133057 7.951944351196289 C7.111447811126709 9.464150428771973 7.412694931030273 10.850716590881348 8.800735473632812 11.769855499267578 C9.22905445098877 12.053482055664062 12.341279983520508 13.447797775268555 12.341279983520508 11.95032024383545 C12.341279983520508 11.100817680358887 10.742531776428223 11.373283386230469 9.958691596984863 11.045793533325195 C8.49209976196289 10.433049201965332 8.24266242980957 9.153882026672363 7.986504554748535 7.792751789093018 L7.986504554748535 7.792751789093018 C9.451133728027344 7.679502487182617 11.27920150756836 7.444887161254883 13.072020530700684 7.414644241333008 C14.864839553833008 7.384401321411133 16.62240982055664 7.558530807495117 17.946048736572266 8.262768745422363 L17.94259262084961 8.444208145141602 C17.589542388916016 10.042518615722656 17.101903915405273 11.276907920837402 16.27366828918457 12.143631935119629 C15.4454345703125 13.010355949401855 14.276603698730469 13.509414672851562 12.56116771697998 13.637063026428223 L12.56116771697998 13.637063026428223"></path>
<path fill="none" stroke="black" stroke-width=".3" stroke-opacity="1.0"  filling="0" d="M12.000864028930664 14.843640327453613 L12.000864028930664 14.843640327453613 C10.627693176269531 14.42430305480957 9.25564193725586 14.428661346435547 7.930992603302002 13.74895191192627 C5.972227096557617 12.74386215209961 5.214961051940918 10.832403182983398 5.131322383880615 8.757479667663574 C5.0476837158203125 6.682557106018066 5.637672424316406 4.444169998168945 6.373415946960449 2.785223960876465 L12.00010871887207 2.785223960876465 L17.626800537109375 2.785223960876465 C18.36281967163086 4.444794654846191 18.952661514282227 6.682961940765381 18.868772506713867 8.75761890411377 C18.784881591796875 10.832276344299316 18.02726173400879 12.743423461914062 16.068359375 13.74895191192627 C14.747098922729492 14.42717170715332 13.372549057006836 14.42758846282959 12.000864028930664 14.843640327453613 L12.000864028930664 14.843640327453613"></path>
<path fill="none" stroke="black" stroke-width=".3" stroke-opacity="1.0"  filling="0" d="M12.991439819335938 16.128408432006836 L12.991439819335938 16.128408432006836 C12.925127983093262 16.194215774536133 12.858816146850586 16.260025024414062 12.79250431060791 16.32583236694336 L12.79250431060791 18.704639434814453 C12.844416618347168 18.811487197875977 12.89632797241211 18.9183349609375 12.948240280151367 19.025182723999023 L16.980527877807617 22.23796844482422 C16.972103118896484 22.277063369750977 16.963680267333984 22.316160202026367 16.95525550842285 22.355255126953125 L16.95525550842285 22.355255126953125 C15.550827980041504 22.803627014160156 13.775522232055664 23.027809143066406 12.00021743774414 23.027807235717773 C10.2249116897583 23.02780532836914 8.449605941772461 22.803619384765625 7.0451765060424805 22.355255126953125 L7.0451765060424805 22.355255126953125 C7.036536693572998 22.316160202026367 7.027896404266357 22.277063369750977 7.019256591796875 22.23796844482422 L11.051976203918457 19.025182723999023 C11.103888511657715 18.9183349609375 11.155799865722656 18.811487197875977 11.207712173461914 18.704639434814453 L11.207712173461914 16.32583236694336 C11.141544342041016 16.260025024414062 11.0753755569458 16.194215774536133 11.009207725524902 16.128408432006836 L11.009207725524902 16.128408432006836 C8.502206802368164 15.972915649414062 6.621734142303467 14.912738800048828 5.369176864624023 13.357144355773926 C4.11661958694458 11.801549911499023 3.4919772148132324 9.750539779663086 3.496636390686035 7.613379001617432 C3.501295328140259 5.476218223571777 4.135255813598633 3.2529070377349854 5.399904251098633 1.352712631225586 L5.399904251098633 1.352712631225586 C5.508264064788818 1.3018087148666382 5.616624355316162 1.2509046792984009 5.724984169006348 1.2000007629394531 L12.000324249267578 1.2000007629394531 L18.275663375854492 1.2000007629394531 C18.383806228637695 1.2509046792984009 18.49195098876953 1.3018087148666382 18.600093841552734 1.352712631225586 L18.600093841552734 1.352712631225586 C19.864639282226562 3.2527518272399902 20.498615264892578 5.47600793838501 20.50334930419922 7.613165378570557 C20.50808334350586 9.750323295593262 19.883573532104492 11.801382064819336 18.631147384643555 13.357028007507324 C17.378719329833984 14.912673950195312 15.49837589263916 15.972906112670898 12.991439819335938 16.128408432006836 L12.991439819335938 16.128408432006836"></path>
<path fill="none" stroke="black" stroke-width=".3" stroke-opacity="1.0"  filling="0" d="M13.13637638092041 21.202030181884766 L13.13637638092041 21.202030181884766 C12.378984451293945 21.210527420043945 11.621448516845703 21.210525512695312 10.864056587219238 21.202030181884766 L11.999783515930176 20.296775817871094 L13.13637638092041 21.202030181884766"></path></svg>