<svg xmlns="http://www.w3.org/2000/svg" viewBox="0.0 0.0 24.0 24.0" height="200px" width="200px"><path fill="none" stroke="black" stroke-width=".3" stroke-opacity="1.0"  filling="0" d="M10.913519859313965 4.571544647216797 L10.913519859313965 4.571544647216797 C11.344616889953613 3.77188777923584 12.0313138961792 3.1204240322113037 12.72996711730957 2.539752244949341 C13.394424438476562 1.9875017404556274 13.804281234741211 1.9964609146118164 13.693008422851562 1.4263687133789062 L13.693008422851562 1.4263687133789062 C13.693440437316895 1.4257926940917969 13.693872451782227 1.4252166748046875 13.694304466247559 1.4246406555175781 L13.694304466247559 1.4246406555175781 C13.630850791931152 1.304552435874939 13.670238494873047 1.1700770854949951 13.830384254455566 1.2187929153442383 L13.830384254455566 1.2187929153442383 C13.830599784851074 1.2182165384292603 13.830816268920898 1.2176402807235718 13.831031799316406 1.2170639038085938 L13.831031799316406 1.2170639038085938 C13.881671905517578 1.7062739133834839 14.659869194030762 4.6363725662231445 14.481191635131836 5.099880695343018 C14.30739688873291 5.550721645355225 13.740599632263184 5.720664024353027 13.370304107666016 6.031055927276611 L13.370304107666016 6.031055927276611 C12.971141815185547 5.454170227050781 12.69288444519043 4.785497188568115 12.52164077758789 4.10520076751709 L12.52164077758789 4.10520076751709 C12.195745468139648 4.661346435546875 12.047743797302246 5.351989269256592 12.106488227844238 5.993904113769531 L12.106488227844238 5.993904113769531 C11.5595703125 5.7044196128845215 11.14693832397461 5.1446380615234375 10.913519859313965 4.571544647216797 L10.913519859313965 4.571544647216797"></path>
<path fill="none" stroke="black" stroke-width=".3" stroke-opacity="1.0"  filling="0" d="M10.316280364990234 12.422712326049805 L10.316280364990234 12.422712326049805 C9.656755447387695 12.853164672851562 9.021279335021973 13.594730377197266 8.937551498413086 11.627400398254395 C8.875669479370117 10.173373222351074 10.251117706298828 8.65684986114502 11.399519920349121 8.081975936889648 L11.399519920349121 8.081975936889648 C11.629006385803223 6.511444091796875 14.249588966369629 7.032866477966309 15.062664031982422 7.9344482421875 L15.062664031982422 13.202256202697754 L15.062664031982422 18.470064163208008 L10.316280364990234 18.470064163208008 L10.316280364990234 12.422712326049805"></path>
<path fill="none" stroke="black" stroke-width=".3" stroke-opacity="1.0"  filling="0" d="M18.3668155670166 20.440631866455078 L18.3668155670166 20.440631866455078 C18.134687423706055 20.722583770751953 17.902559280395508 21.004535675048828 17.67043113708496 21.286487579345703 L17.67043113708496 21.286487579345703 C17.422895431518555 21.790990829467773 17.17535972595215 22.295495986938477 16.927824020385742 22.799999237060547 L12.00010871887207 22.799999237060547 L7.072392463684082 22.799999237060547 C6.824856281280518 22.295495986938477 6.577320575714111 21.790990829467773 6.329784393310547 21.286487579345703 L6.329784393310547 21.286487579345703 C6.09765625 21.004535675048828 5.597901821136475 20.804115295410156 5.6334004402160645 20.440631866455078 C5.672969818115234 20.03546905517578 6.208968162536621 19.864774703979492 6.4967522621154785 19.576847076416016 L11.999999046325684 19.576847076416016 L17.503246307373047 19.576847076416016 C17.79110336303711 19.864774703979492 18.07895851135254 20.1527042388916 18.3668155670166 20.440631866455078 L18.3668155670166 20.440631866455078"></path></svg>