<svg xmlns="http://www.w3.org/2000/svg" viewBox="0.0 0.0 24.0 24.0" height="200px" width="200px"><path fill="none" stroke="black" stroke-width=".3" stroke-opacity="1.0"  filling="0" d="M12.465911865234375 3.467569351196289 L12.465911865234375 3.467569351196289 C12.155447959899902 3.467569351196289 11.84498405456543 3.467569351196289 11.534520149230957 3.467569351196289 L11.534520149230957 3.467569351196289 C11.534520149230957 3.1570332050323486 11.534520149230957 2.8464972972869873 11.534520149230957 2.535961151123047 L11.534520149230957 2.535961151123047 C11.84498405456543 2.535961151123047 12.155447959899902 2.535961151123047 12.465911865234375 2.535961151123047 L12.465911865234375 2.535961151123047 C12.465911865234375 2.8464972972869873 12.465911865234375 3.1570332050323486 12.465911865234375 3.467569351196289 L12.465911865234375 3.467569351196289"></path>
<path fill="none" stroke="black" stroke-width=".3" stroke-opacity="1.0"  filling="0" d="M7.5480241775512695 5.745072364807129 L7.5480241775512695 5.745072364807129 C7.237488269805908 5.745072364807129 6.926951885223389 5.745072364807129 6.616415977478027 5.745072364807129 L6.616415977478027 5.745072364807129 C6.616415977478027 5.434536457061768 6.616415977478027 5.124000549316406 6.616415977478027 4.813464641571045 L6.616415977478027 4.813464641571045 C6.926951885223389 4.813464641571045 7.237488269805908 4.813464641571045 7.5480241775512695 4.813464641571045 L7.5480241775512695 4.813464641571045 C7.5480241775512695 5.124000549316406 7.5480241775512695 5.434536457061768 7.5480241775512695 5.745072364807129 L7.5480241775512695 5.745072364807129"></path>
<path fill="none" stroke="black" stroke-width=".3" stroke-opacity="1.0"  filling="0" d="M17.375808715820312 5.745072364807129 L17.375808715820312 5.745072364807129 C17.065271377563477 5.745072364807129 16.754735946655273 5.745072364807129 16.444198608398438 5.745072364807129 L16.444198608398438 5.745072364807129 C16.444198608398438 5.434536457061768 16.444198608398438 5.124000549316406 16.444198608398438 4.813464641571045 L16.444198608398438 4.813464641571045 C16.754735946655273 4.813464641571045 17.065271377563477 4.813464641571045 17.375808715820312 4.813464641571045 L17.375808715820312 4.813464641571045 C17.375808715820312 5.124000549316406 17.375808715820312 5.434536457061768 17.375808715820312 5.745072364807129 L17.375808715820312 5.745072364807129"></path>
<path fill="none" stroke="black" stroke-width=".3" stroke-opacity="1.0"  filling="0" d="M20.234352111816406 9.434783935546875 L20.234352111816406 9.434783935546875 C20.00926399230957 11.744691848754883 19.40726661682129 13.280820846557617 17.970239639282227 15.103271484375 L17.957279205322266 13.586087226867676 C17.597986221313477 12.768172264099121 16.825180053710938 12.118169784545898 16.017168045043945 11.737128257751465 L16.017168045043945 11.737128257751465 C16.36006736755371 10.912484169006348 16.69515609741211 10.372035026550293 16.63212013244629 9.434783935546875 C16.431377410888672 6.45004415512085 14.215843200683594 4.957765579223633 12.000259399414062 4.95781135559082 C9.784675598144531 4.957857131958008 7.569041728973389 6.450226783752441 7.368096351623535 9.434783935546875 C7.305026531219482 10.371536254882812 7.640151023864746 10.91222095489502 7.982832431793213 11.736479759216309 L7.982832431793213 11.736479759216309 C7.162437438964844 12.09005355834961 6.437707424163818 12.784488677978516 6.043368339538574 13.586087226867676 L6.029760360717773 15.103920936584473 C5.150200843811035 13.988149642944336 4.4717535972595215 12.820509910583496 4.096590518951416 11.570938110351562 C3.7214276790618896 10.321367263793945 3.6495490074157715 8.989866256713867 3.983125925064087 7.546372413635254 C4.488676071166992 5.358697891235352 5.795858860015869 3.6854653358459473 7.469422817230225 2.6206295490264893 C9.142987251281738 1.5557935237884521 11.182931900024414 1.0993541479110718 13.154006004333496 1.3452662229537964 C15.125079154968262 1.591178297996521 17.027280807495117 2.5394418239593506 18.42535972595215 4.2840118408203125 C19.696273803710938 5.869902610778809 20.009145736694336 7.4792633056640625 20.234352111816406 9.434783935546875 L20.234352111816406 9.434783935546875"></path>
<path fill="none" stroke="black" stroke-width=".3" stroke-opacity="1.0"  filling="0" d="M6.021336078643799 9.857712745666504 L6.021336078643799 9.857712745666504 C5.7108001708984375 9.857712745666504 5.400263786315918 9.857712745666504 5.089727878570557 9.857712745666504 L5.089727878570557 9.857712745666504 C5.089727878570557 9.547176361083984 5.089727878570557 9.236640930175781 5.089727878570557 8.926104545593262 L5.089727878570557 8.926104545593262 C5.400263786315918 8.926104545593262 5.7108001708984375 8.926104545593262 6.021336078643799 8.926104545593262 L6.021336078643799 8.926104545593262 C6.021336078643799 9.236640930175781 6.021336078643799 9.547176361083984 6.021336078643799 9.857712745666504 L6.021336078643799 9.857712745666504"></path>
<path fill="none" stroke="black" stroke-width=".3" stroke-opacity="1.0"  filling="0" d="M17.966352462768555 9.900480270385742 L17.966352462768555 9.900480270385742 C17.966352462768555 9.589943885803223 17.966352462768555 9.27940845489502 17.966352462768555 8.9688720703125 L17.966352462768555 8.9688720703125 C18.276960372924805 8.9688720703125 18.587566375732422 8.9688720703125 18.898174285888672 8.9688720703125 L18.898174285888672 8.9688720703125 C18.898174285888672 9.27940845489502 18.898174285888672 9.589943885803223 18.898174285888672 9.900480270385742 L18.898174285888672 9.900480270385742 C18.587566375732422 9.900480270385742 18.276960372924805 9.900480270385742 17.966352462768555 9.900480270385742 L17.966352462768555 9.900480270385742"></path>
<path fill="none" stroke="black" stroke-width=".3" stroke-opacity="1.0"  filling="0" d="M17.133886337280273 13.586087226867676 L17.133886337280273 13.586087226867676 C17.13395881652832 13.642895698547363 17.134031295776367 13.699703216552734 17.134103775024414 13.756511688232422 L17.134103775024414 13.756511688232422 C17.138208389282227 13.700424194335938 17.142311096191406 13.644335746765137 17.14641571044922 13.588248252868652 L17.14641571044922 16.98419761657715 C16.835664749145508 17.35107421875 16.658430099487305 17.90100860595703 16.214160919189453 18.084827423095703 C15.605672836303711 18.336593627929688 14.898863792419434 18.152435302734375 14.241215705871582 18.18623924255371 L15.620376586914062 21.97466278076172 C15.562056541442871 22.027727127075195 15.503735542297363 22.080791473388672 15.445415496826172 22.13385581970215 L14.685959815979004 21.779399871826172 C14.549304008483887 21.8292236328125 14.412647247314453 21.87904930114746 14.275991439819336 21.92887306213379 L13.921536445617676 22.68832778930664 C13.842984199523926 22.68515968322754 13.764432907104492 22.68199348449707 13.685880661010742 22.67882537841797 L11.971704483032227 17.970670700073242 L9.790319442749023 22.649017333984375 C9.711551666259766 22.645416259765625 9.632783889770508 22.641817092895508 9.55401611328125 22.638216018676758 L9.267168045043945 21.85068130493164 C9.135335922241211 21.788976669311523 9.003503799438477 21.72727394104004 8.871671676635742 21.665569305419922 L8.083703994750977 21.952415466308594 C8.030640602111816 21.894454956054688 7.97757625579834 21.836496353149414 7.9245123863220215 21.778535842895508 L9.5928955078125 18.200496673583984 C8.968809127807617 18.155010223388672 8.292525291442871 18.317995071411133 7.720634937286377 18.064037322998047 C7.29851770401001 17.876588821411133 7.142168998718262 17.34385871887207 6.852936267852783 16.983768463134766 L6.852936267852783 13.588895797729492 C6.8572564125061035 13.644983291625977 6.861576080322266 13.701071739196777 6.865896224975586 13.757159233093262 L6.865896224975586 13.757159233093262 C6.871624946594238 12.24942684173584 8.890169143676758 12.46506118774414 9.792750358581543 12.90099048614502 C10.865531921386719 13.419123649597168 11.288492202758789 13.789871215820312 12.000432014465332 14.385071754455566 L12.000432014465332 14.385071754455566 C13.245664596557617 13.341364860534668 14.148695945739746 12.910375595092773 15.637006759643555 12.538919448852539 C16.245281219482422 12.387104988098145 17.09088706970215 12.957535743713379 17.133886337280273 13.586087226867676 L17.133886337280273 13.586087226867676"></path>
<path fill="none" stroke="black" stroke-width=".3" stroke-opacity="1.0"  filling="0" d="M7.6836724281311035 13.651751518249512 L7.6836724281311035 13.651751518249512 C8.833722114562988 13.685192108154297 10.027913093566895 13.9949312210083 10.999055862426758 14.611871719360352 L10.999055862426758 14.611871719360352 C9.849323272705078 14.568886756896973 8.661195755004883 14.258530616760254 7.6836724281311035 13.651751518249512 L7.6836724281311035 13.651751518249512"></path>
<path fill="none" stroke="black" stroke-width=".3" stroke-opacity="1.0"  filling="0" d="M13.001592636108398 14.612088203430176 L13.001592636108398 14.612088203430176 C13.30849552154541 14.417135238647461 15.7130708694458 12.548749923706055 16.317190170288086 13.651968002319336 C16.58731460571289 14.145256996154785 15.423812866210938 14.385211944580078 14.883600234985352 14.541645050048828 C14.280598640441895 14.716259956359863 13.628928184509277 14.588606834411621 13.001592636108398 14.612088203430176 L13.001592636108398 14.612088203430176"></path>
<path fill="none" stroke="black" stroke-width=".3" stroke-opacity="1.0"  filling="0" d="M12.000216484069824 17.489208221435547 L12.000216484069824 17.489208221435547 C11.657064437866211 17.146272659301758 10.970760345458984 16.945539474487305 10.970760345458984 16.46040153503418 C10.970760345458984 15.97511100769043 11.514925956726074 15.430944442749023 12.000216484069824 15.430944442749023 C12.485456466674805 15.430944442749023 13.02945613861084 15.975162506103516 13.02945613861084 16.46040153503418 C13.02945613861084 16.94548797607422 12.34329605102539 17.146272659301758 12.000216484069824 17.489208221435547 L12.000216484069824 17.489208221435547"></path></svg>