<svg xmlns="http://www.w3.org/2000/svg" viewBox="0.0 0.0 24.0 24.0" height="200px" width="200px"><path fill="none" stroke="black" stroke-width=".3" stroke-opacity="1.0"  filling="0" d="M4.369044303894043 4.227240085601807 L4.369044303894043 4.227240085601807 C4.398708343505859 4.347696304321289 4.428372859954834 4.4681525230407715 4.45803689956665 4.588608741760254 L4.2042365074157715 4.843055725097656 C3.5349133014678955 4.6765241622924805 3.6838889122009277 4.2275214195251465 4.369044303894043 4.227240085601807 L4.369044303894043 4.227240085601807"></path>
<path fill="none" stroke="black" stroke-width=".3" stroke-opacity="1.0"  filling="0" d="M4.458468914031982 4.588176727294922 L4.458468914031982 4.588176727294922 C4.401055812835693 4.693317890167236 4.309635162353516 4.784892559051514 4.204668998718262 4.842624187469482 L4.458468914031982 4.588176727294922"></path>
<path fill="none" stroke="black" stroke-width=".3" stroke-opacity="1.0"  filling="0" d="M3.843301773071289 4.753199100494385 L3.843301773071289 4.753199100494385 C3.843301773071289 3.328810214996338 5.109327793121338 5.068005561828613 3.843301773071289 4.753199100494385 L3.843301773071289 4.753199100494385"></path>
<path fill="none" stroke="black" stroke-width=".3" stroke-opacity="1.0"  filling="0" d="M11.3521089553833 8.05627155303955 L14.02705192565918 10.731971740722656 L16.701995849609375 13.407670974731445 C17.340816497802734 14.926841735839844 18.21627426147461 15.9735107421875 19.274988174438477 17.25290298461914 L18.745786666870117 17.782535552978516 C17.466354370117188 16.723722457885742 16.419771194458008 15.84807014465332 14.900341033935547 15.209543228149414 L12.224857330322266 12.534276008605957 L9.549372673034668 9.8590087890625 L11.3521089553833 8.05627155303955"></path>
<path fill="none" stroke="black" stroke-width=".3" stroke-opacity="1.0"  filling="0" d="M8.75946044921875 8.507280349731445 L8.75946044921875 8.507280349731445 C8.796324729919434 8.657256126403809 8.8331880569458 8.807231903076172 8.870052337646484 8.957207679748535 L8.870052337646484 8.957640647888184 C8.654895782470703 9.017290115356445 8.4153470993042 9.01723861694336 8.200236320495605 8.95742416381836 L5.051172733306885 5.803823947906494 C5.054609775543213 5.586557388305664 5.304974555969238 5.353248119354248 5.522268772125244 5.353248119354248 L8.75946044921875 8.507280349731445"></path>
<path fill="none" stroke="black" stroke-width=".3" stroke-opacity="1.0"  filling="0" d="M8.64908504486084 8.957640647888184 L8.64908504486084 8.957640647888184"></path>
<path fill="none" stroke="black" stroke-width=".3" stroke-opacity="1.0"  filling="0" d="M7.747716903686523 9.8590087890625 L3.469620704650879 5.577456474304199 C2.229642629623413 4.4551262855529785 2.571929693222046 2.9333298206329346 3.5031847953796387 2.0028433799743652 C4.434439659118652 1.0723567008972168 5.954663276672363 0.7331799268722534 7.070557117462158 1.976088523864746 L11.352540969848633 6.2546162605285645 L8.649517059326172 8.95742416381836 C8.649444580078125 8.80737590789795 8.649373054504395 8.657328605651855 8.649300575256348 8.507280349731445 L5.495052814483643 5.353248119354248 C5.282700061798096 5.353248119354248 5.0446929931640625 5.591471195220947 5.0446929931640625 5.803823947906494 L8.198076248168945 8.957857131958008 C8.336884498596191 9.015215873718262 8.509798049926758 9.015317916870117 8.648653030395508 8.958072662353516 L7.747716903686523 9.8590087890625"></path>
<path fill="none" stroke="black" stroke-width=".3" stroke-opacity="1.0"  filling="0" d="M13.154195785522461 10.309584617614746 L16.30736541748047 13.462751388549805 C16.30736541748047 13.919427871704102 16.314176559448242 14.103611946105957 15.857220649719238 13.913543701171875 L12.703404426574707 10.759943962097168 C12.703404426574707 10.547540664672852 12.941792488098145 10.309584617614746 13.154195785522461 10.309584617614746 L13.154195785522461 10.309584617614746"></path>
<path fill="none" stroke="black" stroke-width=".3" stroke-opacity="1.0"  filling="0" d="M10.144668579101562 10.904231071472168 L10.739100456237793 10.309800148010254 C11.196039199829102 10.309800148010254 11.37960147857666 10.303328514099121 11.189676284790039 10.7603759765625 L10.5950288772583 11.35480785369873 C10.382676124572754 11.35480785369873 10.144668579101562 11.116583824157715 10.144668579101562 10.904231071472168 L10.144668579101562 10.904231071472168"></path>
<path fill="none" stroke="black" stroke-width=".3" stroke-opacity="1.0"  filling="0" d="M11.168076515197754 11.927855491638184 L11.762508392333984 11.333423614501953 C12.219359397888184 11.333423614501953 12.402742385864258 11.327075004577637 12.212868690490723 11.784000396728516 L11.618435859680176 12.378215789794922 C11.406134605407715 12.378215789794922 11.168076515197754 12.140156745910645 11.168076515197754 11.927855491638184 L11.168076515197754 11.927855491638184"></path>
<path fill="none" stroke="black" stroke-width=".3" stroke-opacity="1.0"  filling="0" d="M12.191699981689453 12.9514799118042 L12.786349296569824 12.356832504272461 C13.243476867675781 12.356832504272461 13.4264554977417 12.350560188293457 13.236708641052246 12.807623863220215 L12.642276763916016 13.401839256286621 C12.429924011230469 13.401839256286621 12.191699981689453 13.163832664489746 12.191699981689453 12.9514799118042 L12.191699981689453 12.9514799118042"></path>
<path fill="none" stroke="black" stroke-width=".3" stroke-opacity="1.0"  filling="0" d="M16.30736541748047 13.913543701171875 L16.30736541748047 13.913543701171875 C16.168785095214844 13.971075057983398 15.99576187133789 13.971169471740723 15.857220649719238 13.913543701171875 L12.703404426574707 10.759943962097168 C12.703404426574707 10.547540664672852 12.941792488098145 10.309584617614746 13.154195785522461 10.309584617614746 L16.30736541748047 13.462967872619629 C16.30736541748047 13.613160133361816 16.30736541748047 13.763351440429688 16.30736541748047 13.913543701171875 L16.30736541748047 13.913543701171875"></path>
<path fill="none" stroke="black" stroke-width=".3" stroke-opacity="1.0"  filling="0" d="M19.949125289916992 17.029342651367188 L19.949125289916992 17.029342651367188 C19.949125289916992 17.179607391357422 19.949125289916992 17.329870223999023 19.949125289916992 17.480134963989258 L18.973236083984375 18.45645523071289 C18.085813522338867 18.82522201538086 16.718603134155273 16.923603057861328 16.56392478942871 16.81043815612793 C15.734610557556152 16.203699111938477 15.254759788513184 16.153839111328125 14.505492210388184 15.715415954589844 L11.802144050598145 13.012392044067383 L9.098795890808105 10.309368133544922 L8.198076248168945 11.210519790649414 C7.283840656280518 11.588748931884766 7.296924591064453 11.224398612976074 7.296924591064453 10.309584617614746 L11.802684783935547 5.80403995513916 C12.103068351745605 5.80403995513916 12.49140739440918 5.5916619300842285 12.703836441040039 5.80403995513916 C12.916214942932129 6.016367435455322 12.703836441040039 6.404664039611816 12.703836441040039 6.7049760818481445 L11.802684783935547 7.605696201324463 L14.5054931640625 10.309043884277344 L17.208301544189453 13.012392044067383 C18.097990036010742 14.534245491027832 18.756669998168945 15.610050201416016 19.949125289916992 17.029342651367188 L19.949125289916992 17.029342651367188"></path>
<path fill="none" stroke="black" stroke-width=".3" stroke-opacity="1.0"  filling="0" d="M18.746004104614258 17.782535552978516 L18.746004104614258 17.782535552978516 C17.466697692871094 16.723651885986328 16.420307159423828 15.848150253295898 14.900988578796387 15.209543228149414 L12.225397109985352 12.534276008605957 L9.5498046875 9.8590087890625 L11.352540969848633 8.05627155303955 L14.02769947052002 10.731863021850586 L16.702857971191406 13.407455444335938 C17.341398239135742 14.926628112792969 18.21709442138672 15.973350524902344 19.275636672973633 17.252687454223633 L18.746004104614258 17.782535552978516"></path>
<path fill="none" stroke="black" stroke-width=".3" stroke-opacity="1.0"  filling="0" d="M20.008956909179688 19.4677677154541 L20.370756149291992 19.829784393310547 C20.682804107666016 20.387351989746094 21.17008399963379 20.878358840942383 21.306900024414062 21.502487182617188 C21.676557540893555 23.18880271911621 18.33679962158203 23.192813873291016 18.710365295410156 21.502487182617188 C18.848270416259766 20.878490447998047 19.33489418029785 20.387351989746094 19.647157669067383 19.829784393310547 L20.008956909179688 19.4677677154541"></path>
<path fill="none" stroke="black" stroke-width=".3" stroke-opacity="1.0"  filling="0" d="M20.008956909179688 20.1920166015625 L20.008956909179688 20.1920166015625 C20.27103614807129 20.62883949279785 20.797138214111328 20.993078231811523 20.795196533203125 21.502487182617188 C20.793777465820312 21.875009536743164 20.373491287231445 22.288726806640625 20.000965118408203 22.288726806640625 C19.632156372070312 22.288726806640625 19.221094131469727 21.871294021606445 19.22249984741211 21.502487182617188 C19.224441528320312 20.9930419921875 19.74680519104004 20.62883949279785 20.008956909179688 20.1920166015625 L20.008956909179688 20.1920166015625"></path></svg>