<svg xmlns="http://www.w3.org/2000/svg" viewBox="0.0 0.0 24.0 24.0" height="200px" width="200px"><path fill="none" stroke="black" stroke-width=".3" stroke-opacity="1.0"  filling="0" d="M14.738449096679688 3.8064727783203125 L14.738449096679688 3.8064727783203125 C16.4289493560791 4.455791473388672 17.83648681640625 5.514728546142578 18.64983367919922 6.882279872894287 C19.46318244934082 8.249832153320312 19.682342529296875 9.92599868774414 18.996089935302734 11.809776306152344 C18.477895736694336 13.23222827911377 17.21788787841797 14.146485328674316 16.72586441040039 15.566376686096191 C16.15973663330078 17.200122833251953 16.77076530456543 18.771875381469727 17.222232818603516 20.31599998474121 L17.222232818603516 20.31599998474121 C15.892680168151855 20.31599998474121 14.563128471374512 20.31599998474121 13.233575820922852 20.31599998474121 C11.904024124145508 20.31599998474121 10.574472427368164 20.31599998474121 9.244919776916504 20.31599998474121 L9.244919776916504 20.31599998474121 C9.113136291503906 19.37232208251953 9.333052635192871 18.507476806640625 8.174640655517578 18.176088333129883 C7.232640266418457 17.90660858154297 6.577335834503174 19.1379451751709 5.640663146972656 17.915267944335938 C5.582273006439209 17.839048385620117 5.567000865936279 15.616050720214844 5.608128547668457 15.197232246398926 L5.608128547668457 15.197232246398926 C5.209377765655518 14.678836822509766 4.288249492645264 13.573713302612305 4.387296199798584 12.865943908691406 C4.501550674438477 12.049501419067383 5.684519290924072 11.464031219482422 5.725848197937012 10.611984252929688 C5.774288177490234 9.613335609436035 5.733947277069092 8.5650634765625 6.104759693145752 7.636546611785889 C6.851622581481934 5.7663984298706055 8.111989974975586 4.687785625457764 9.634668350219727 4.137257099151611 C11.157346725463867 3.58672833442688 12.942337989807129 3.564284086227417 14.738449096679688 3.8064727783203125 L14.738449096679688 3.8064727783203125"></path>
<path fill="none" stroke="black" stroke-width=".3" stroke-opacity="1.0"  filling="0" d="M13.539648056030273 5.051496505737305 L13.539648056030273 5.051496505737305 C13.635427474975586 5.104727268218994 13.737288475036621 5.146799564361572 13.839672088623047 5.185848236083984 L13.839672088623047 5.185848236083984 C13.793880462646484 5.2276082038879395 13.748087882995605 5.2693681716918945 13.702296257019043 5.31112813949585 L13.702296257019043 5.31112813949585"></path>
<path fill="none" stroke="black" stroke-width=".3" stroke-opacity="1.0"  filling="0" d="M12.097631454467773 5.311776161193848 L12.097631454467773 5.311776161193848 C12.020447731018066 5.24611234664917 11.94326400756836 5.180448532104492 11.866080284118652 5.1147847175598145 L11.866080284118652 5.1147847175598145 C11.974080085754395 5.1222004890441895 12.082080841064453 5.1296162605285645 12.190080642700195 5.1370320320129395 L12.190080642700195 5.1370320320129395 C12.15926456451416 5.195280075073242 12.128447532653809 5.253528118133545 12.097631454467773 5.311776161193848 L12.097631454467773 5.311776161193848"></path>
<path fill="none" stroke="black" stroke-width=".3" stroke-opacity="1.0"  filling="0" d="M10.517592430114746 5.577239990234375 L10.517592430114746 5.577239990234375 C10.513272285461426 5.591207981109619 10.508952140808105 5.6051764488220215 10.504631996154785 5.619144439697266 L10.504631996154785 5.619144439697266 C10.459848403930664 5.5940165519714355 10.415063858032227 5.568888187408447 10.370280265808105 5.543760299682617 L10.370280265808105 5.543760299682617 C10.419206619262695 5.555673599243164 10.467921257019043 5.568962097167969 10.517592430114746 5.577239990234375 L10.517592430114746 5.577239990234375"></path>
<path fill="none" stroke="black" stroke-width=".3" stroke-opacity="1.0"  filling="0" d="M15.024215698242188 5.6200079917907715 L15.024215698242188 5.6200079917907715 C15.017159461975098 5.625840187072754 15.010104179382324 5.631671905517578 15.003047943115234 5.6375041007995605 L15.003047943115234 5.6375041007995605 C14.996855735778809 5.6176323890686035 14.9906644821167 5.597760200500488 14.984472274780273 5.577888488769531 L14.984472274780273 5.577888488769531 C14.997719764709473 5.591928482055664 15.010968208312988 5.605967998504639 15.024215698242188 5.6200079917907715 L15.024215698242188 5.6200079917907715"></path>
<path fill="none" stroke="black" stroke-width=".3" stroke-opacity="1.0"  filling="0" d="M15.932496070861816 5.886335849761963 L15.932496070861816 5.886335849761963 C15.917448043823242 5.891016006469727 15.902400016784668 5.89569616317749 15.887351989746094 5.900376319885254 L15.887351989746094 5.900376319885254 C15.876263618469238 5.875824451446533 15.8651762008667 5.851272106170654 15.854087829589844 5.826720237731934 L15.854087829589844 5.826720237731934 C15.880224227905273 5.846591949462891 15.906359672546387 5.866464138031006 15.932496070861816 5.886335849761963 L15.932496070861816 5.886335849761963"></path>
<path fill="none" stroke="black" stroke-width=".3" stroke-opacity="1.0"  filling="0" d="M8.539031982421875 6.428712368011475 L8.539031982421875 6.428712368011475 C8.53881549835205 6.42950439453125 8.538599967956543 6.430296421051025 8.538383483886719 6.431088447570801 L8.538383483886719 6.431088447570801 C8.535575866699219 6.4318084716796875 8.532768249511719 6.432528495788574 8.529960632324219 6.433248519897461 L8.529960632324219 6.433248519897461 C8.532984733581543 6.431736469268799 8.53600788116455 6.430224418640137 8.539031982421875 6.428712368011475 L8.539031982421875 6.428712368011475"></path>
<path fill="none" stroke="black" stroke-width=".3" stroke-opacity="1.0"  filling="0" d="M16.957416534423828 6.825936317443848 L16.957416534423828 6.825936317443848 C16.9525203704834 6.825432300567627 16.94762420654297 6.824928283691406 16.94272804260254 6.8244242668151855 L16.94272804260254 6.8244242668151855 C16.945392608642578 6.815855979919434 16.948055267333984 6.80728816986084 16.950719833374023 6.798719882965088 L16.950719833374023 6.798719882965088 C16.952951431274414 6.8077921867370605 16.955184936523438 6.816864013671875 16.957416534423828 6.825936317443848 L16.957416534423828 6.825936317443848"></path>
<path fill="none" stroke="black" stroke-width=".3" stroke-opacity="1.0"  filling="0" d="M8.07960033416748 7.030704021453857 L8.07960033416748 7.030704021453857 C8.081472396850586 7.049568176269531 8.083344459533691 7.068431854248047 8.085216522216797 7.087296009063721 L8.085216522216797 7.087296009063721 C8.056632995605469 7.0934882164001465 8.028048515319824 7.099679946899414 7.999464511871338 7.10587215423584 L7.999464511871338 7.10587215423584 C8.026176452636719 7.080816268920898 8.052888870239258 7.055759906768799 8.07960033416748 7.030704021453857 L8.07960033416748 7.030704021453857"></path>
<path fill="none" stroke="black" stroke-width=".3" stroke-opacity="1.0"  filling="0" d="M11.75440788269043 7.627944469451904 L11.75440788269043 7.627944469451904 C12.351202011108398 6.678398132324219 14.515968322753906 6.287849426269531 14.515968322753906 7.890600204467773 C14.515968322753906 8.743134498596191 13.722289085388184 8.871856689453125 13.45475959777832 9.55898380279541 L13.45475959777832 9.780384063720703 L12.667223930358887 9.780384063720703 L12.667223930358887 9.5179443359375 C12.787192344665527 8.994126319885254 13.653474807739258 8.435545921325684 13.600343704223633 7.972248077392578 C13.487869262695312 6.991479873657227 12.581076622009277 7.556201934814453 12.503928184509277 8.20531177520752 L11.646623611450195 8.20531177520752 C11.682551383972168 8.012855529785156 11.718480110168457 7.820400238037109 11.75440788269043 7.627944469451904 L11.75440788269043 7.627944469451904"></path>
<path fill="none" stroke="black" stroke-width=".3" stroke-opacity="1.0"  filling="0" d="M17.504112243652344 7.985640525817871 L17.504112243652344 7.985640525817871 C17.485679626464844 7.973184585571289 17.467247009277344 7.960728168487549 17.448814392089844 7.948272228240967 L17.448814392089844 7.948272228240967 C17.469982147216797 7.910976409912109 17.491151809692383 7.873680114746094 17.512319564819336 7.836384296417236 L17.512319564819336 7.836384296417236 C17.509584426879883 7.886136531829834 17.506847381591797 7.935888290405273 17.504112243652344 7.985640525817871 L17.504112243652344 7.985640525817871"></path>
<path fill="none" stroke="black" stroke-width=".3" stroke-opacity="1.0"  filling="0" d="M17.63457489013672 8.401872634887695 L17.63457489013672 8.401872634887695 C17.782751083374023 8.895720481872559 17.930925369262695 9.389568328857422 18.0791015625 9.883416175842285 L18.0791015625 9.883416175842285 C17.55510902404785 10.909265518188477 17.351625442504883 12.743986129760742 15.968999862670898 12.432215690612793 L15.968999862670898 12.432215690612793 C15.594023704528809 12.864215850830078 15.378939628601074 13.525365829467773 14.844072341918945 13.728215217590332 C14.64748477935791 13.80277156829834 14.107255935668945 13.355918884277344 13.82628059387207 13.128168106079102 L13.82628059387207 13.128168106079102 C13.296614646911621 15.468358039855957 12.816316604614258 13.034311294555664 12.137592315673828 12.105623245239258 L12.137592315673828 12.105623245239258 C10.971349716186523 12.38803482055664 10.056706428527832 11.780416488647461 10.270919799804688 10.493184089660645 L10.270919799804688 10.493184089660645 C9.242532730102539 10.929287910461426 7.773418426513672 11.066776275634766 7.868351936340332 9.36523151397705 L7.868351936340332 9.36523151397705 C7.61354398727417 8.995583534240723 7.077916145324707 8.704495429992676 7.103928565979004 8.256288528442383 C7.123445510864258 7.919999599456787 7.712789535522461 7.374989986419678 8.07960033416748 7.030920505523682 L8.07960033416748 7.030920505523682 C8.052430152893066 6.773645401000977 8.305365562438965 6.545977592468262 8.539031982421875 6.429144382476807 L8.539031982421875 6.429144382476807 C9.098631858825684 5.979151725769043 9.809276580810547 5.458978652954102 10.517592430114746 5.577023983001709 L10.517592430114746 5.577023983001709 C10.992878913879395 5.250810146331787 11.614969253540039 5.0975422859191895 12.190080642700195 5.1370320320129395 L12.190080642700195 5.1370320320129395 C13.055548667907715 4.682312488555908 13.058525085449219 4.888006210327148 13.839455604553223 5.185848236083984 L13.839455604553223 5.185848236083984 C14.240829467773438 5.0603556632995605 14.735389709472656 5.314143180847168 15.02400016784668 5.6200079917907715 L15.02400016784668 5.6200079917907715 C15.459537506103516 5.485773086547852 15.53720474243164 5.585943698883057 15.932279586791992 5.886335849761963 L15.932279586791992 5.886335849761963 C16.51645851135254 5.785258769989014 16.835180282592773 6.32989501953125 16.957199096679688 6.825936317443848 L16.957199096679688 6.825936317443848 C17.210554122924805 7.114893436431885 17.59642791748047 7.4614033699035645 17.512319564819336 7.836384296417236 L17.512319564819336 7.836384296417236 C17.553071975708008 8.024880409240723 17.593822479248047 8.213376998901367 17.63457489013672 8.401872634887695 L17.63457489013672 8.401872634887695"></path>
<path fill="none" stroke="black" stroke-width=".3" stroke-opacity="1.0"  filling="0" d="M17.73717498779297 8.59044075012207 L17.73717498779297 8.59044075012207 C17.694406509399414 8.549832344055176 17.651639938354492 8.509224891662598 17.608871459960938 8.468616485595703 L17.608871459960938 8.468616485595703 C17.61743927001953 8.446368217468262 17.626007080078125 8.424120903015137 17.63457489013672 8.401872634887695 L17.63457489013672 8.401872634887695 C17.66877555847168 8.464728355407715 17.702974319458008 8.52758502960205 17.73717498779297 8.59044075012207 L17.73717498779297 8.59044075012207"></path>
<path fill="none" stroke="black" stroke-width=".3" stroke-opacity="1.0"  filling="0" d="M13.501199722290039 10.12987232208252 L13.501199722290039 11.027999877929688 L12.585575103759766 11.027999877929688 L12.585575103759766 10.12987232208252 L13.501199722290039 10.12987232208252"></path>
<path fill="none" stroke="black" stroke-width=".3" stroke-opacity="1.0"  filling="0" d="M17.03647232055664 10.950887680053711 L17.03647232055664 10.950887680053711 C17.383943557739258 10.595064163208008 17.731414794921875 10.239239692687988 18.078886032104492 9.883416175842285 L18.078886032104492 9.883416175842285 C17.8275146484375 10.375539779663086 17.552263259887695 10.857161521911621 17.3388729095459 11.366904258728027 L17.3388729095459 11.366904258728027 C17.238073348999023 11.228232383728027 17.137271881103516 11.089559555053711 17.03647232055664 10.950887680053711 L17.03647232055664 10.950887680053711"></path></svg>