<svg xmlns="http://www.w3.org/2000/svg" viewBox="0.0 0.0 24.0 24.0" height="200px" width="200px"><path fill="none" stroke="black" stroke-width=".3" stroke-opacity="1.0"  filling="0" d="M12.553175926208496 7.170456409454346 L12.553175926208496 7.170456409454346 C11.5919771194458 5.966909885406494 10.139933586120605 6.92943000793457 11.172503471374512 8.2197847366333 L11.172503471374512 8.2197847366333 C10.846199989318848 8.212152481079102 10.496596336364746 8.318218231201172 10.193592071533203 8.19688892364502 C9.747396469116211 8.018221855163574 9.288694381713867 7.7571563720703125 9.020711898803711 7.358160018920898 C7.213062286376953 4.666770935058594 12.16451644897461 2.6121604442596436 12.776681900024414 5.893896102905273 C12.855897903442383 6.318563938140869 12.627677917480469 6.744936466217041 12.553175926208496 7.170456409454346 L12.553175926208496 7.170456409454346"></path>
<path fill="none" stroke="black" stroke-width=".3" stroke-opacity="1.0"  filling="0" d="M13.944215774536133 9.758135795593262 L13.944215774536133 9.758135795593262 C13.750175476074219 9.871607780456543 13.556136131286621 9.985079765319824 13.362095832824707 10.098551750183105 L13.362095832824707 10.098551750183105 C12.69042682647705 9.266801834106445 11.824153900146484 8.425973892211914 11.283527374267578 7.508712291717529 C11.069442749023438 7.145482540130615 11.556965827941895 6.8515543937683105 11.829360008239746 7.11407995223999 C12.228455543518066 7.498715877532959 12.520475387573242 7.980825901031494 12.866996765136719 8.41342830657959 C13.226052284240723 8.861678123474121 13.603245735168457 9.295979499816895 13.944215774536133 9.758135795593262 L13.944215774536133 9.758135795593262"></path>
<path fill="none" stroke="black" stroke-width=".3" stroke-opacity="1.0"  filling="0" d="M11.69003963470459 14.535840034484863 L11.69003963470459 14.535840034484863 C11.597846031188965 12.663071632385254 11.820371627807617 11.92867374420166 12.949319839477539 10.431407928466797 L12.949319839477539 10.431407928466797 C12.735182762145996 10.163957595825195 11.592744827270508 8.737083435058594 11.592191696166992 8.736455917358398 C11.243505477905273 8.341170310974121 10.519213676452637 8.837578773498535 10.011407852172852 8.696280479431152 C8.562549591064453 8.293130874633789 7.795341491699219 6.688488960266113 8.298040390014648 5.298936367034912 C8.912941932678223 3.5992345809936523 10.56118392944336 3.3523380756378174 11.808183670043945 3.9440231323242188 C13.055183410644531 4.535708427429199 13.90093994140625 5.965974807739258 12.910871505737305 7.62060022354126 L12.910871505737305 7.62060022354126 C13.20492172241211 7.988088607788086 14.377272605895996 9.453332901000977 14.383343696594238 9.46005630493164 C14.785667419433594 9.905580520629883 15.583539962768555 9.318010330200195 16.18183135986328 9.367039680480957 C18.05548667907715 9.520584106445312 19.76650619506836 11.127706527709961 19.927846908569336 13.020383834838867 C20.04383659362793 14.381061553955078 19.552532196044922 15.639593124389648 18.684358596801758 16.51348876953125 C17.816184997558594 17.38738250732422 16.571144104003906 17.87664031982422 15.17966365814209 17.698768615722656 C13.809703826904297 17.52364730834961 13.687923431396484 17.09877586364746 12.624671936035156 16.30704116821289 C12.157547950744629 15.959203720092773 11.535856246948242 16.72260093688965 11.004240036010742 16.960466384887695 C10.500786781311035 17.185731887817383 9.98568344116211 17.386436462402344 9.49332046508789 17.635007858276367 C8.949817657470703 17.90939712524414 9.211596488952637 18.863828659057617 8.82660961151123 19.335494995117188 C8.13382625579834 20.18425941467285 7.034766674041748 20.48659324645996 6.017880439758301 20.16551971435547 C3.4681661128997803 19.360469818115234 3.80277156829834 15.71914291381836 6.307968616485596 15.151439666748047 C6.710834503173828 15.06014633178711 7.15004301071167 15.07777214050293 7.54648494720459 15.193830490112305 C7.985280513763428 15.322287559509277 8.321223258972168 16.025577545166016 8.74660873413086 15.857975959777832 C9.40960693359375 15.596755027770996 11.059160232543945 14.848155975341797 11.69003963470459 14.535840034484863 L11.69003963470459 14.535840034484863"></path>
<path fill="none" stroke="black" stroke-width=".3" stroke-opacity="1.0"  filling="0" d="M11.84447956085205 15.050999641418457 L11.84447956085205 15.050999641418457 C11.97659969329834 15.309911727905273 12.108719825744629 15.56882381439209 12.240839958190918 15.827735900878906 L12.240839958190918 15.827735900878906 C11.546000480651855 16.139516830444336 10.850991249084473 16.45092010498047 10.155954360961914 16.762258529663086 C9.552877426147461 17.03240394592285 8.978344917297363 17.378591537475586 8.346575736999512 17.57236671447754 C7.844829559326172 17.726261138916016 7.559946537017822 17.028751373291016 7.978512287139893 16.77748680114746 C9.069067001342773 16.122827529907227 10.635066032409668 15.443029403686523 11.84447956085205 15.050999641418457 L11.84447956085205 15.050999641418457"></path>
<path fill="none" stroke="black" stroke-width=".3" stroke-opacity="1.0"  filling="0" d="M8.148719787597656 16.120847702026367 L8.148719787597656 16.120847702026367 C6.65671443939209 16.791173934936523 7.403882026672363 18.575532913208008 8.859792709350586 17.924232482910156 L8.859792709350586 17.924232482910156 C8.719536781311035 18.27422523498535 8.687631607055664 18.69072914123535 8.439023971557617 18.97420883178711 C7.027152061462402 20.58411979675293 5.627612113952637 19.711978912353516 5.088070392608643 18.455509185791016 C4.548528671264648 17.19904136657715 4.868985652923584 15.558246612548828 6.89710807800293 15.630851745605469 C7.344857215881348 15.646881103515625 7.731515884399414 15.957515716552734 8.148719787597656 16.120847702026367 L8.148719787597656 16.120847702026367"></path></svg>