<svg xmlns="http://www.w3.org/2000/svg" viewBox="0.0 0.0 24.0 24.0" height="200px" width="200px"><path fill="none" stroke="black" stroke-width=".3" stroke-opacity="1.0"  filling="0" d="M8.260176658630371 6.653784275054932 L7.3069682121276855 4.471751689910889 L8.446151733398438 3.8300161361694336 L8.260176658630371 6.653784275054932"></path>
<path fill="none" stroke="black" stroke-width=".3" stroke-opacity="1.0"  filling="0" d="M11.805383682250977 6.866112232208252 L11.619407653808594 3.7064638137817383 L12.91972827911377 4.264392852783203 L11.805383682250977 6.866112232208252"></path>
<path fill="none" stroke="black" stroke-width=".3" stroke-opacity="1.0"  filling="0" d="M15.564432144165039 7.158792018890381 L15.57804012298584 4.454688549041748 L16.817665100097656 4.8082804679870605 L15.564432144165039 7.158792018890381"></path>
<path fill="none" stroke="black" stroke-width=".3" stroke-opacity="1.0"  filling="0" d="M5.572920322418213 8.35197639465332 L3.1593360900878906 7.017312049865723 L3.9632883071899414 6.226967811584473 L5.572920322418213 8.35197639465332"></path>
<path fill="none" stroke="black" stroke-width=".3" stroke-opacity="1.0"  filling="0" d="M18.37847900390625 8.812055587768555 L19.729991912841797 7.027464389801025 L20.40542221069336 7.69101619720459 L18.37847900390625 8.812055587768555"></path>
<path fill="none" stroke="black" stroke-width=".3" stroke-opacity="1.0"  filling="0" d="M17.993566513061523 10.609392166137695 L17.993566513061523 10.609392166137695 C18.262495040893555 10.914132118225098 18.734010696411133 11.122628211975098 18.80035400390625 11.523612022399902 C18.900880813598633 12.131196975708008 18.563310623168945 12.73227596282959 18.44478988647461 13.336607933044434 L18.44478988647461 13.336607933044434 C18.67405128479004 14.15257740020752 18.354103088378906 15.084071159362793 17.954687118530273 15.831623077392578 L17.954687118530273 15.831623077392578 C17.720809936523438 17.485746383666992 16.467670440673828 17.08118438720703 15.835160255432129 18.32839584350586 C15.542980194091797 18.904529571533203 15.408578872680664 19.54791259765625 15.195287704467773 20.157670974731445 L12.703727722167969 20.11490249633789 C12.943584442138672 17.706218719482422 12.658623695373535 16.413522720336914 10.634880065917969 15.117959976196289 L10.634880065917969 15.117959976196289 C9.729686737060547 15.454763412475586 8.587336540222168 15.380778312683105 7.745016098022461 14.908224105834961 C7.273054599761963 14.643446922302246 6.115443706512451 15.17629337310791 5.383488655090332 14.77389907836914 C3.3287405967712402 13.644295692443848 4.570001125335693 11.65599536895752 5.978784084320068 10.799688339233398 L5.978784084320068 10.799688339233398 C6.124331951141357 10.41328239440918 6.132344722747803 9.941064834594727 6.415428161621094 9.640469551086426 C6.99807596206665 9.021778106689453 8.134346008300781 9.253507614135742 8.79045581817627 8.713343620300293 C9.051009178161621 8.498834609985352 9.208297729492188 8.155902862548828 9.506118774414062 7.997142314910889 C9.823348045349121 7.828035831451416 10.204324722290039 7.720152378082275 10.560359954833984 7.769855976104736 C11.086185455322266 7.843263149261475 11.548920631408691 8.157504081726074 12.043200492858887 8.351327896118164 L12.043200492858887 8.351327896118164 C12.442416191101074 8.212746620178223 13.304329872131348 7.902379035949707 13.534031867980957 7.9446001052856445 C14.131393432617188 8.054399490356445 14.520124435424805 8.699355125427246 15.102407455444336 8.87210464477539 C15.69718074798584 9.048559188842773 16.473955154418945 8.627202987670898 16.958091735839844 9.01515007019043 C17.452585220336914 9.411396980285645 17.595916748046875 10.116026878356934 17.993566513061523 10.609392166137695 L17.993566513061523 10.609392166137695"></path>
<path fill="none" stroke="black" stroke-width=".3" stroke-opacity="1.0"  filling="0" d="M3.684864044189453 11.200152397155762 L1.3382396697998047 10.70097541809082 L1.587937355041504 9.527664184570312 L3.684864044189453 11.200152397155762"></path>
<path fill="none" stroke="black" stroke-width=".3" stroke-opacity="1.0"  filling="0" d="M19.391735076904297 11.200152397155762 L21.488880157470703 9.527664184570312 L21.738361358642578 10.70097541809082 L19.391735076904297 11.200152397155762"></path>
<path fill="none" stroke="black" stroke-width=".3" stroke-opacity="1.0"  filling="0" d="M16.739686965942383 12.984960556030273 L16.739686965942383 12.984960556030273 C16.88532829284668 13.787012100219727 16.7221622467041 14.686490058898926 16.316543579101562 15.393575668334961 L16.316543579101562 15.393575668334961 C16.487112045288086 15.76632022857666 17.144479751586914 16.250986099243164 16.8282470703125 16.511808395385742 C16.51900291442871 16.766864776611328 16.22906494140625 15.979151725769043 15.929472923278809 15.712822914123535 L15.929472923278809 15.712822914123535 C14.212968826293945 17.021516799926758 14.015971183776855 18.181493759155273 13.856304168701172 20.29137420654297 L13.624967575073242 20.29137420654297 C13.781282424926758 17.248577117919922 14.631367683410645 16.68173599243164 16.410934448242188 14.466072082519531 L16.410934448242188 14.466072082519531 C13.633795738220215 13.827112197875977 14.955371856689453 13.607708930969238 16.481569290161133 13.676376342773438 L16.481569290161133 13.676376342773438 C15.97411060333252 12.296244621276855 15.24423885345459 11.812460899353027 13.737287521362305 11.5731840133667 L13.737287521362305 11.5731840133667 C13.29468059539795 12.134847640991211 12.785658836364746 12.795536041259766 12.84887981414795 13.567943572998047 C12.877999305725098 13.923713684082031 13.470088958740234 14.702266693115234 13.127519607543945 14.601936340332031 C12.955806732177734 14.55164623260498 12.826704025268555 14.408112525939941 12.67629623413086 14.311200141906738 L12.67629623413086 14.311200141906738 C12.481487274169922 13.972949981689453 12.388540267944336 13.698406219482422 12.357048034667969 13.309176445007324 L12.357048034667969 13.309176445007324 C9.462010383605957 14.365349769592285 11.57324504852295 13.069485664367676 12.439127922058105 12.749735832214355 L12.439127922058105 12.749735832214355 C12.575699806213379 12.178503036499023 12.884525299072266 11.912498474121094 13.243080139160156 11.509032249450684 L13.243080139160156 11.509032249450684 C12.817056655883789 11.355775833129883 12.4520845413208 11.067802429199219 12.065664291381836 10.83187198638916 L12.070199966430664 10.837488174438477 C11.584470748901367 11.063324928283691 11.071516036987305 11.253580093383789 10.541999816894531 11.334504127502441 L10.541999816894531 11.334504127502441 C9.966326713562012 13.206475257873535 8.040578842163086 12.04243278503418 6.846888065338135 12.363744735717773 C6.474687099456787 12.463932037353516 5.669108867645264 13.512463569641113 5.664072513580322 13.434671401977539 C5.4767842292785645 10.541708946228027 9.349282264709473 12.996532440185547 10.002863883972168 11.265816688537598 L10.002863883972168 11.265816688537598 C9.643938064575195 11.120718002319336 9.426514625549316 10.97120189666748 9.170400619506836 10.680889129638672 L9.170400619506836 10.680889129638672 C9.129937171936035 10.522920608520508 9.042989730834961 10.369940757751465 9.049009323120117 10.20698356628418 C9.061029434204102 9.881607055664062 9.563464164733887 10.619028091430664 9.862680435180664 10.747416496276855 C10.514771461486816 11.027216911315918 11.235244750976562 10.775821685791016 11.850959777832031 10.554311752319336 L11.850959777832031 10.554311752319336 C11.085265159606934 8.84719467163086 13.166136741638184 11.001630783081055 14.112695693969727 11.293463706970215 L14.112695693969727 11.293463706970215 C14.700300216674805 10.5034761428833 16.40188980102539 8.913434982299805 14.678832054138184 11.434080123901367 L14.678832054138184 11.434080123901367 C15.47016429901123 11.693275451660156 15.960103034973145 11.86625862121582 16.47681427001953 12.52164077758789 L16.47681427001953 12.52164077758789 C18.024425506591797 10.066041946411133 17.218093872070312 12.234199523925781 16.739686965942383 12.984960556030273 L16.739686965942383 12.984960556030273"></path>
<path fill="none" stroke="black" stroke-width=".3" stroke-opacity="1.0"  filling="0" d="M3.823535919189453 13.913543701171875 L1.9868888854980469 15.486671447753906 L1.2000007629394531 14.568239212036133 L3.823535919189453 13.913543701171875"></path>
<path fill="none" stroke="black" stroke-width=".3" stroke-opacity="1.0"  filling="0" d="M19.73107147216797 13.956744194030762 L22.799999237060547 13.910736083984375 L22.470382690429688 14.982095718383789 L19.73107147216797 13.956744194030762"></path>
<path fill="none" stroke="black" stroke-width=".3" stroke-opacity="1.0"  filling="0" d="M19.231246948242188 16.76344871520996 L21.761688232421875 18.336145401000977 L20.723590850830078 19.341407775878906 L19.231246948242188 16.76344871520996"></path>
<path fill="none" stroke="black" stroke-width=".3" stroke-opacity="1.0"  filling="0" d="M5.8919525146484375 16.876415252685547 L5.286072254180908 18.983280181884766 L4.366128444671631 18.44997787475586 L5.8919525146484375 16.876415252685547"></path>
<path fill="none" stroke="black" stroke-width=".3" stroke-opacity="1.0"  filling="0" d="M9.38359260559082 17.689008712768555 L9.181416511535645 20.217288970947266 L8.326272964477539 19.8621826171875 L9.38359260559082 17.689008712768555"></path></svg>