<svg xmlns="http://www.w3.org/2000/svg" viewBox="0.0 0.0 24.0 24.0" height="200px" width="200px"><path fill="none" stroke="black" stroke-width=".3" stroke-opacity="1.0"  filling="0" d="M10.93511962890625 3.6788158416748047 L10.93511962890625 3.6788158416748047 C11.41513442993164 3.876194715499878 12.00816822052002 3.903956174850464 12.375164985656738 4.2709527015686035 C13.62280559539795 5.5185933113098145 12.697242736816406 7.71893310546875 10.93511962890625 7.700520038604736 C9.29301643371582 7.683361053466797 8.22104263305664 5.489500045776367 9.446393966674805 4.264148712158203 C9.823437690734863 3.8871047496795654 10.438878059387207 3.873926877975464 10.93511962890625 3.6788158416748047 L10.93511962890625 3.6788158416748047"></path>
<path fill="none" stroke="black" stroke-width=".3" stroke-opacity="1.0"  filling="0" d="M11.036208152770996 7.273272514343262 L11.036208152770996 7.273272514343262 C10.583687782287598 6.971592426300049 10.131168365478516 6.669912338256836 9.678647994995117 6.368232250213623 L9.678647994995117 6.368232250213623 C11.190037727355957 6.746057510375977 13.871204376220703 5.3829731941223145 11.036208152770996 7.273272514343262 L11.036208152770996 7.273272514343262"></path>
<path fill="none" stroke="black" stroke-width=".3" stroke-opacity="1.0"  filling="0" d="M13.696464538574219 7.700088024139404 L13.696464538574219 7.700088024139404 C15.429795265197754 7.815157413482666 18.154159545898438 7.551938056945801 18.82538604736328 9.769152641296387 C18.951168060302734 10.184638977050781 19.5832462310791 12.381202697753906 18.567047119140625 12.872856140136719 C18.302703857421875 13.000749588012695 17.928144454956055 12.705406188964844 17.798736572265625 12.441801071166992 C17.555429458618164 11.946182250976562 17.749876022338867 11.31922721862793 17.551414489746094 10.804008483886719 C17.17360496520996 9.823192596435547 15.097739219665527 8.674893379211426 14.132351875305176 9.769152641296387 C13.671003341674805 10.292086601257324 13.776611328125 11.125974655151367 13.726947784423828 11.821557998657227 C13.689541816711426 12.345455169677734 13.824849128723145 12.867447853088379 13.873800277709961 13.390392303466797 L13.873800277709961 13.390392303466797 C15.240360260009766 13.84961986541748 16.5026912689209 13.659049987792969 17.424057006835938 15.069009780883789 C18.01361656188965 15.971209526062012 17.09054946899414 17.712482452392578 17.82379150390625 18.43507194519043 C18.15765380859375 18.764083862304688 18.762405395507812 18.70779800415039 19.093358993530273 19.039737701416016 C19.22719955444336 19.17397689819336 19.15729331970215 19.523401260375977 18.98284912109375 19.597583770751953 C17.459388732910156 20.245441436767578 17.294891357421875 19.917736053466797 16.137910842895508 19.339248657226562 L16.137910842895508 19.339248657226562 C16.146577835083008 18.84006690979004 16.269807815551758 16.574254989624023 15.87936019897461 16.235328674316406 C15.13425350189209 15.588541984558105 13.020805358886719 15.903179168701172 12.119664192199707 15.9769926071167 L12.119664192199707 15.9769926071167 C11.944792747497559 16.606252670288086 11.284948348999023 18.45844841003418 11.79047966003418 19.08091163635254 C12.977324485778809 20.542278289794922 15.839210510253906 18.56610870361328 15.839210510253906 21.45888328552246 C15.839210510253906 21.87125587463379 15.8678617477417 22.412385940551758 15.53700065612793 22.658519744873047 C14.664822578430176 23.30735206604004 14.31619930267334 21.419816970825195 14.204063415527344 21.34307861328125 C12.643853187561035 20.275381088256836 10.334555625915527 21.824268341064453 9.168078422546387 19.819360733032227 C8.449917793273926 18.585006713867188 8.856021881103516 16.856407165527344 9.180368423461914 15.141456604003906 C9.504714012145996 13.426506996154785 9.747303009033203 11.725208282470703 8.702112197875977 10.545455932617188 C8.276129722595215 10.064631462097168 6.507497787475586 9.104876518249512 5.857392311096191 8.73472785949707 L5.857392311096191 8.73472785949707 C4.736453056335449 6.879856109619141 4.724623680114746 6.118599891662598 5.424312114715576 4.079280853271484 L5.424312114715576 4.079280853271484 C5.6457929611206055 3.5619606971740723 5.694631099700928 2.9289917945861816 6.088755130767822 2.527320384979248 C6.289144039154053 2.323094129562378 6.6609930992126465 2.527320146560669 6.947112083435059 2.52731990814209 L6.947112083435059 2.52731990814209 C7.356257915496826 0.8917628526687622 8.293679237365723 1.1348297595977783 7.751928329467773 3.303192138671875 C7.630096435546875 3.7908244132995605 7.234968185424805 4.165319919586182 6.97648811340332 4.596384048461914 L6.97648811340332 4.596384048461914 C6.8784871101379395 5.355399131774902 6.576875686645508 6.115435600280762 6.682485103607178 6.873429298400879 C6.865948677062988 8.190208435058594 8.283649444580078 8.447196006774902 9.823380470275879 8.34982681274414 C11.363112449645996 8.252458572387695 13.02487564086914 7.8007330894470215 13.696464538574219 7.700088024139404 L13.696464538574219 7.700088024139404"></path>
<path fill="none" stroke="black" stroke-width=".3" stroke-opacity="1.0"  filling="0" d="M15.120119094848633 18.380422592163086 L14.829599380493164 17.217910766601562 L15.410640716552734 17.217910766601562 L15.120119094848633 18.380422592163086"></path>
<path fill="none" stroke="black" stroke-width=".3" stroke-opacity="1.0"  filling="0" d="M14.538647651672363 18.670944213867188 L13.376134872436523 17.508214950561523 L13.956960678100586 16.926742553710938 L14.538647651672363 18.670944213867188"></path>
<path fill="none" stroke="black" stroke-width=".3" stroke-opacity="1.0"  filling="0" d="M14.248127937316895 18.961896896362305 L13.085185050964355 18.961896896362305 L13.085185050964355 18.380422592163086 L14.248127937316895 18.961896896362305"></path>
<path fill="none" stroke="black" stroke-width=".3" stroke-opacity="1.0"  filling="0" d="M16.915727615356445 20.4112548828125 L18.066791534423828 20.24493408203125 L18.149520874023438 20.820575714111328 L16.915727615356445 20.4112548828125"></path>
<path fill="none" stroke="black" stroke-width=".3" stroke-opacity="1.0"  filling="0" d="M16.66970443725586 20.740440368652344 L17.986656188964844 21.725183486938477 L17.493961334228516 22.383981704711914 L16.66970443725586 20.740440368652344"></path>
<path fill="none" stroke="black" stroke-width=".3" stroke-opacity="1.0"  filling="0" d="M16.135536193847656 21.111095428466797 L16.589353561401367 22.220903396606445 L16.013927459716797 22.303848266601562 L16.135536193847656 21.111095428466797"></path></svg>