<svg xmlns="http://www.w3.org/2000/svg" viewBox="0.0 0.0 24.0 24.0" height="200px" width="200px"><path fill="none" stroke="black" stroke-width=".3" stroke-opacity="1.0"  filling="0" d="M10.990499496459961 3.1001994609832764 L10.990499496459961 3.1001994609832764 C11.225449562072754 2.693254232406616 11.28840446472168 2.1143136024475098 11.69534969329834 1.879363775253296 C14.336055755615234 0.3547523021697998 14.336055755615234 5.845647811889648 11.69534969329834 4.321035385131836 C11.28840446472168 4.086085319519043 11.225449562072754 3.5071446895599365 10.990499496459961 3.1001994609832764 L10.990499496459961 3.1001994609832764"></path>
<path fill="none" stroke="black" stroke-width=".3" stroke-opacity="1.0"  filling="0" d="M11.151300430297852 3.6755990982055664 L11.151300430297852 3.6755990982055664 C11.376569747924805 3.2115790843963623 11.469725608825684 2.6030917167663574 11.902799606323242 2.32289981842041 C12.22557544708252 2.1140692234039307 12.82847785949707 2.2078890800476074 12.951900482177734 1.8437995910644531 L12.960000038146973 1.8122997283935547 C12.964599609375 1.8143997192382812 12.969200134277344 1.8164997100830078 12.973799705505371 1.8185997009277344 L12.973799705505371 1.8185997009277344 C13.275457382202148 2.465327262878418 13.385795593261719 3.072479724884033 13.595100402832031 3.726299285888672 L13.595100402832031 3.726299285888672 C13.191900253295898 3.9653995037078857 12.854162216186523 4.4533233642578125 12.385499954223633 4.443600177764893 C11.901057243347168 4.433549880981445 11.562700271606445 3.9315993785858154 11.151300430297852 3.6755990982055664 L11.151300430297852 3.6755990982055664"></path>
<path fill="none" stroke="black" stroke-width=".3" stroke-opacity="1.0"  filling="0" d="M14.295900344848633 4.112999439239502 L14.295900344848633 4.112999439239502 C14.247873306274414 4.098221778869629 14.200613021850586 4.0810546875 14.15310001373291 4.064699649810791 L14.15310001373291 4.064699649810791 C14.255053520202637 4.310173034667969 14.4647798538208 4.573132038116455 14.060400009155273 4.501500129699707 L14.123100280761719 4.752299785614014 C14.133035659790039 4.799587249755859 14.078667640686035 4.839932441711426 14.044500350952148 4.8740997314453125 L14.044500350952148 4.8740997314453125 C14.044300079345703 4.8740997314453125 14.044099807739258 4.8740997314453125 14.043899536132812 4.8740997314453125 L14.043899536132812 4.8740997314453125 C13.77769947052002 4.742299556732178 13.511500358581543 4.610499858856201 13.24530029296875 4.478699684143066 L13.24530029296875 4.478699684143066 C12.684473991394043 4.635496139526367 12.057476997375488 4.623322486877441 11.49839973449707 4.460400104522705 L11.49839973449707 4.460400104522705 C11.220332145690918 4.6035871505737305 10.676033973693848 5.073059558868408 10.611599922180176 4.767000198364258 L10.677300453186035 4.503000259399414 C10.269515991210938 4.570832252502441 10.487924575805664 4.296815872192383 10.58549976348877 4.044299602508545 L10.58549976348877 4.044299602508545 C9.895380020141602 4.085354328155518 11.54554271697998 -0.2970966100692749 13.020599365234375 1.535099983215332 L13.020599365234375 1.535099983215332 C13.024999618530273 1.537000060081482 13.029399871826172 1.5389000177383423 13.03380012512207 1.5408000946044922 L13.03380012512207 1.5408000946044922 C13.87805461883545 0.9778892993927002 14.124460220336914 3.5839927196502686 14.331000328063965 3.9437999725341797 L14.335500717163086 3.9453001022338867 C14.373668670654297 3.9925477504730225 14.459397315979004 4.145709037780762 14.295900344848633 4.112999439239502 L14.295900344848633 4.112999439239502"></path>
<path fill="none" stroke="black" stroke-width=".3" stroke-opacity="1.0"  filling="0" d="M8.611799240112305 5.200200080871582 L8.611799240112305 5.200200080871582 C10.241218566894531 5.070880889892578 11.846656799316406 5.318576812744141 13.482112884521484 5.221762657165527 C13.61764907836914 5.213739395141602 15.756081581115723 4.9436516761779785 15.885600090026855 5.060999870300293 C16.288490295410156 5.426031589508057 16.197599411010742 6.102599620819092 16.353599548339844 6.62339973449707 L16.353599548339844 12.16349983215332 C16.11726188659668 12.436349868774414 16.00556182861328 12.982049942016602 15.644587516784668 12.982049942016602 C15.283072471618652 12.982049942016602 15.170263290405273 12.436349868774414 14.933100700378418 12.16349983215332 L14.933100700378418 6.7388997077941895 L14.486700057983398 6.7388997077941895 C13.587453842163086 9.033454895019531 14.499468803405762 10.085128784179688 14.67181396484375 12.36874771118164 C14.785491943359375 13.875011444091797 14.785052299499512 15.396089553833008 14.732786178588867 16.9163818359375 C14.680520057678223 18.436674118041992 14.576427459716797 19.956180572509766 14.482800483703613 21.459300994873047 L14.482800483703613 21.459300994873047 C14.235099792480469 21.804401397705078 14.163739204406738 22.469318389892578 13.739699363708496 22.494600296020508 C13.318575859069824 22.51970863342285 13.175100326538086 21.867599487304688 12.892800331115723 21.554100036621094 L12.869550704956055 17.80065155029297 L12.84630012512207 14.047201156616211 C12.806209564208984 13.651328086853027 12.687003135681152 13.241057395935059 12.450599670410156 12.921000480651855 L11.99730110168457 12.921000480651855 C11.772621154785156 13.231995582580566 11.639017105102539 13.612421035766602 11.57040023803711 13.989900588989258 L11.599349975585938 17.743350982666016 L11.628300666809082 21.49679946899414 C11.334400177001953 21.825498580932617 11.187420845031738 22.492807388305664 10.746600151062012 22.482898712158203 C10.316399574279785 22.473228454589844 10.222200393676758 21.800500869750977 9.960000038146973 21.459300994873047 L9.960000038146973 21.459300994873047 C9.874320983886719 20.036514282226562 9.787954330444336 18.604036331176758 9.744364738464355 17.17110824584961 C9.700774192810059 15.738178253173828 9.699959754943848 14.30479621887207 9.785382270812988 12.880202293395996 C9.934257507324219 10.397412300109863 10.987042427062988 9.170881271362305 9.9621000289917 6.739500045776367 L9.506399154663086 6.739500045776367 L9.506399154663086 12.16349983215332 C9.26784896850586 12.434325218200684 9.151654243469238 12.975975036621094 8.790749549865723 12.975975036621094 C8.429844856262207 12.975975036621094 8.313650131225586 12.434325218200684 8.07509994506836 12.16349983215332 L8.07509994506836 6.590099811553955 C8.253999710083008 6.126800060272217 8.432899475097656 5.66349983215332 8.611799240112305 5.200200080871582 L8.611799240112305 5.200200080871582"></path></svg>