<svg xmlns="http://www.w3.org/2000/svg" viewBox="0.0 0.0 24.0 24.0" height="200px" width="200px"><path fill="none" stroke="black" stroke-width=".3" stroke-opacity="1.0"  filling="0" d="M12.709559440612793 1.6291923522949219 L12.709559440612793 1.6291923522949219 C14.74083423614502 2.0789132118225098 16.403865814208984 3.5799038410186768 17.593975067138672 5.578421592712402 C18.784082412719727 7.576939105987549 19.501266479492188 10.072983741760254 19.64084243774414 12.512812614440918 C19.780418395996094 14.952640533447266 19.342388153076172 17.336252212524414 18.222068786621094 19.109905242919922 C17.101749420166016 20.88355827331543 15.299140930175781 22.047250747680664 12.709559440612793 22.0472412109375 C10.120121002197266 22.047231674194336 8.317614555358887 20.883529663085938 7.197359085083008 19.109872817993164 C6.077104091644287 17.33621597290039 5.639101505279541 14.952607154846191 5.778672695159912 12.51278305053711 C5.918243885040283 10.072959899902344 6.6353888511657715 7.5769219398498535 7.825429439544678 5.5784101486206055 C9.015470504760742 3.5798985958099365 10.67840576171875 2.0789127349853516 12.709559440612793 1.6291923522949219 L12.709559440612793 1.6291923522949219"></path>
<path fill="none" stroke="black" stroke-width=".3" stroke-opacity="1.0"  filling="0" d="M7.3534088134765625 8.980751991271973 L7.3534088134765625 8.980751991271973 C8.750356674194336 7.433980941772461 8.118362426757812 10.463066101074219 7.3534088134765625 8.980751991271973 L7.3534088134765625 8.980751991271973"></path>
<path fill="none" stroke="black" stroke-width=".3" stroke-opacity="1.0"  filling="0" d="M6.93609619140625 10.59276008605957 L6.93609619140625 10.59276008605957 C7.315496444702148 11.294310569763184 6.5569987297058105 11.294647216796875 6.93609619140625 10.59276008605957 L6.93609619140625 10.59276008605957"></path>
<path fill="none" stroke="black" stroke-width=".3" stroke-opacity="1.0"  filling="0" d="M8.656536102294922 11.014608383178711 L8.656536102294922 11.014608383178711 C8.024240493774414 10.279166221618652 9.28913688659668 10.279521942138672 8.656536102294922 11.014608383178711 L8.656536102294922 11.014608383178711"></path>
<path fill="none" stroke="black" stroke-width=".3" stroke-opacity="1.0"  filling="0" d="M11.748359680175781 11.38591194152832 L11.748359680175781 11.38591194152832 C12.672510147094727 9.697904586791992 12.751588821411133 12.553509712219238 11.748359680175781 11.38591194152832 L11.748359680175781 11.38591194152832"></path>
<path fill="none" stroke="black" stroke-width=".3" stroke-opacity="1.0"  filling="0" d="M9.70413589477539 12.316656112670898 L9.70413589477539 12.316656112670898 C10.38609504699707 10.331829071044922 10.998473167419434 13.384413719177246 9.70413589477539 12.316656112670898 L9.70413589477539 12.316656112670898"></path>
<path fill="none" stroke="black" stroke-width=".3" stroke-opacity="1.0"  filling="0" d="M8.011992454528809 12.491183280944824 L8.011992454528809 12.491183280944824 C7.424692630767822 13.173629760742188 7.470925331115723 11.504013061523438 8.011992454528809 12.491183280944824 L8.011992454528809 12.491183280944824"></path>
<path fill="none" stroke="black" stroke-width=".3" stroke-opacity="1.0"  filling="0" d="M18.736391067504883 13.902960777282715 L18.736391067504883 13.902960777282715 C17.140544891357422 12.294286727905273 20.087852478027344 12.085357666015625 18.736391067504883 13.902960777282715 L18.736391067504883 13.902960777282715"></path>
<path fill="none" stroke="black" stroke-width=".3" stroke-opacity="1.0"  filling="0" d="M6.31596040725708 14.37945556640625 L6.31596040725708 14.37945556640625 C7.18251895904541 12.775388717651367 7.182561874389648 15.983040809631348 6.31596040725708 14.37945556640625 L6.31596040725708 14.37945556640625"></path>
<path fill="none" stroke="black" stroke-width=".3" stroke-opacity="1.0"  filling="0" d="M16.91378402709961 15.261384010314941 L16.91378402709961 15.261384010314941 C15.758209228515625 13.917790412902832 18.06996726989746 13.918499946594238 16.91378402709961 15.261384010314941 L16.91378402709961 15.261384010314941"></path>
<path fill="none" stroke="black" stroke-width=".3" stroke-opacity="1.0"  filling="0" d="M13.288656234741211 15.39832878112793 L13.288656234741211 15.39832878112793 C13.281207084655762 15.389664649963379 11.243902206420898 13.489104270935059 13.288656234741211 13.489104270935059 C15.334121704101562 13.489104270935059 13.296018600463867 15.389768600463867 13.288656234741211 15.39832878112793 L13.288656234741211 15.39832878112793"></path>
<path fill="none" stroke="black" stroke-width=".3" stroke-opacity="1.0"  filling="0" d="M8.480064392089844 15.631609916687012 L8.480064392089844 15.631609916687012 C7.080603122711182 14.506789207458496 9.38283920288086 14.07997989654541 8.480064392089844 15.631609916687012 L8.480064392089844 15.631609916687012"></path>
<path fill="none" stroke="black" stroke-width=".3" stroke-opacity="1.0"  filling="0" d="M10.812864303588867 15.977424621582031 L10.812864303588867 15.977424621582031 C9.374802589416504 14.30497932434082 12.251228332519531 14.30533218383789 10.812864303588867 15.977424621582031 L10.812864303588867 15.977424621582031"></path>
<path fill="none" stroke="black" stroke-width=".3" stroke-opacity="1.0"  filling="0" d="M6.982536315917969 16.798871994018555 L6.982536315917969 16.798871994018555 C6.223402976989746 16.195831298828125 7.464267253875732 15.957365989685059 6.982536315917969 16.798871994018555 L6.982536315917969 16.798871994018555"></path>
<path fill="none" stroke="black" stroke-width=".3" stroke-opacity="1.0"  filling="0" d="M18.59210205078125 16.97123908996582 L18.59210205078125 16.97123908996582 C17.29056739807129 18.01280975341797 17.94550132751465 14.989688873291016 18.59210205078125 16.97123908996582 L18.59210205078125 16.97123908996582"></path>
<path fill="none" stroke="black" stroke-width=".3" stroke-opacity="1.0"  filling="0" d="M10.97270393371582 17.673240661621094 L10.97270393371582 17.673240661621094 C10.340411186218262 16.937795639038086 11.605300903320312 16.938152313232422 10.97270393371582 17.673240661621094 L10.97270393371582 17.673240661621094"></path>
<path fill="none" stroke="black" stroke-width=".3" stroke-opacity="1.0"  filling="0" d="M12.420120239257812 17.673240661621094 L12.420120239257812 17.673240661621094 C11.787826538085938 16.93779754638672 13.052716255187988 16.938152313232422 12.420120239257812 17.673240661621094 L12.420120239257812 17.673240661621094"></path>
<path fill="none" stroke="black" stroke-width=".3" stroke-opacity="1.0"  filling="0" d="M8.017176628112793 19.212671279907227 L8.017176628112793 19.212671279907227 C6.707357406616211 18.708520889282227 8.319962501525879 17.842798233032227 8.017176628112793 19.212671279907227 L8.017176628112793 19.212671279907227"></path></svg>