<svg xmlns="http://www.w3.org/2000/svg" viewBox="0.0 0.0 24.0 24.0" height="200px" width="200px"><path fill="none" stroke="black" stroke-width=".3" stroke-opacity="1.0"  filling="0" d="M11.14680004119873 17.65358543395996 L11.568431854248047 15.724921226501465 L12.659664154052734 15.724921226501465 L13.08129596710205 17.65358543395996 L11.14680004119873 17.65358543395996"></path>
<path fill="none" stroke="black" stroke-width=".3" stroke-opacity="1.0"  filling="0" d="M17.23432731628418 22.450511932373047 L17.53348731994629 22.450511932373047 L17.53348731994629 22.796112060546875 L14.961359024047852 22.796112060546875 L14.961359024047852 22.450511932373047 L15.341520309448242 22.450511932373047 C14.623146057128906 20.817655563354492 13.3684720993042 20.001224517822266 12.11380672454834 20.001222610473633 C10.859142303466797 20.001220703125 9.604484558105469 20.817649841308594 8.886144638061523 22.450511932373047 L9.266304969787598 22.450511932373047 L9.266304969787598 22.796112060546875 L6.69417667388916 22.796112060546875 L6.69417667388916 22.450511932373047 L6.993552207946777 22.450511932373047 L9.136703491210938 18.928848266601562 L9.266519546508789 17.88038444519043 L9.039287567138672 17.664382934570312 L9.828119277954102 17.664382934570312 L10.768367767333984 14.541024208068848 L10.617168426513672 14.071224212646484 L10.887383460998535 13.946807861328125 C11.116506576538086 12.31247615814209 11.287885665893555 10.679332733154297 11.413980484008789 9.042492866516113 C11.540074348449707 7.40565299987793 11.620884895324707 5.7651166915893555 11.668871879577637 4.116000175476074 L11.514215469360352 2.7452640533447266 L12.000432014465332 2.4482641220092773 L12.113832473754883 1.2000007629394531 L12.22766399383545 2.4484806060791016 L12.713664054870605 2.745480537414551 L12.558359146118164 4.11621618270874 C12.606372833251953 5.765345573425293 12.687228202819824 7.405883312225342 12.813392639160156 9.042720794677734 C12.939558029174805 10.679558753967285 13.111030578613281 12.31269645690918 13.340280532836914 13.947023391723633 L13.610712051391602 14.071439743041992 L13.459512710571289 14.541239738464355 L14.399760246276855 17.66459846496582 L15.188591957092285 17.66459846496582 L14.961359024047852 17.880599975585938 L15.091175079345703 18.92906379699707 L17.23432731628418 22.450727462768555"></path></svg>