<svg xmlns="http://www.w3.org/2000/svg" viewBox="0.0 0.0 24.0 24.0" height="200px" width="200px"><path fill="none" stroke="black" stroke-width=".3" stroke-opacity="1.0"  filling="0" d="M1.2000007629394531 4.799640655517578 L8.40000057220459 4.799640655517578 L15.600000381469727 4.799640655517578 L22.799999237060547 4.799640655517578 L22.799999237060547 9.119640350341797 L18.293807983398438 9.10117244720459 L13.787616729736328 9.082704544067383 C14.343204498291016 8.506839752197266 14.623149871826172 7.707406044006348 14.908008575439453 6.9596405029296875 L14.908008575439453 6.9596405029296875 C14.403768539428711 7.58096981048584 13.852540969848633 8.223836898803711 13.632096290588379 8.993064880371094 L13.480247497558594 9.119640350341797 C12.238500595092773 7.318783760070801 11.764398574829102 7.313180446624756 10.527312278747559 9.119640350341797 L10.367039680480957 8.993064880371094 C10.147701263427734 8.223281860351562 9.595077514648438 7.580448150634766 9.089832305908203 6.9596405029296875 L9.089832305908203 6.9596405029296875 C9.374798774719238 7.707688808441162 9.655285835266113 8.507669448852539 10.212167739868164 9.082704544067383 L5.706084251403809 9.10117244720459 L1.2000007629394531 9.119640350341797 L1.2000007629394531 4.799640655517578"></path>
<path fill="none" stroke="black" stroke-width=".3" stroke-opacity="1.0"  filling="0" d="M11.86500072479248 7.686264514923096 L11.86500072479248 7.708511829376221 C11.86075210571289 7.710239887237549 11.856504440307617 7.711968421936035 11.852255821228027 7.713696479797363 L11.852255821228027 7.713696479797363 C11.856504440307617 7.70455265045166 11.86075210571289 7.695408344268799 11.86500072479248 7.686264514923096 L11.86500072479248 7.686264514923096"></path>
<path fill="none" stroke="black" stroke-width=".3" stroke-opacity="1.0"  filling="0" d="M12.13499927520752 7.686264514923096 L12.13499927520752 7.686264514923096 C12.139463424682617 7.695408344268799 12.143927574157715 7.70455265045166 12.148391723632812 7.713696479797363 L12.148391723632812 7.713696479797363 C12.143927574157715 7.711968421936035 12.139463424682617 7.710239887237549 12.13499927520752 7.708511829376221 L12.13499927520752 7.686264514923096"></path>
<path fill="none" stroke="black" stroke-width=".3" stroke-opacity="1.0"  filling="0" d="M1.2000007629394531 9.839784622192383 L1.2000007629394531 14.16086483001709 L1.2000007629394531 9.839784622192383 L5.684484481811523 9.839784622192383 L10.168968200683594 9.839784622192383 C10.167240142822266 9.843672752380371 10.165513038635254 9.847559928894043 10.163784980773926 9.851448059082031 L5.6818928718566895 9.845616340637207 L1.2000007629394531 9.839784622192383"></path>
<path fill="none" stroke="black" stroke-width=".3" stroke-opacity="1.0"  filling="0" d="M13.847879409790039 9.851448059082031 L13.847879409790039 9.851448059082031 C13.846439361572266 9.847559928894043 13.845000267028809 9.843672752380371 13.843560218811035 9.839784622192383 L18.321779251098633 9.839784622192383 L22.799999237060547 9.839784622192383 L18.32394027709961 9.845616340637207 L13.847879409790039 9.851448059082031"></path>
<path fill="none" stroke="black" stroke-width=".3" stroke-opacity="1.0"  filling="0" d="M13.847879409790039 9.851448059082031 L18.32394027709961 9.845616340637207 L22.799999237060547 9.839784622192383 L22.793519973754883 14.16086483001709 L18.252120971679688 14.16086483001709 L13.71072006225586 14.16086483001709 C14.194581031799316 12.556061744689941 14.193928718566895 11.444756507873535 13.710288047790527 9.84000015258789 L13.710288047790527 9.84000015258789 C13.223127365112305 11.44514274597168 13.223529815673828 12.55586051940918 13.710288047790527 14.161080360412598 L13.710288047790527 14.161080360412598 C13.292898178100586 15.10193157196045 12.997138023376465 15.301223754882812 12.148391723632812 16.28522491455078 L12.148391723632812 16.28522491455078 C12.43297004699707 15.06753158569336 12.3695650100708 13.762043952941895 12.13499927520752 12.533736228942871 L12.13499927520752 16.291488647460938 C12.046730995178223 16.309425354003906 11.95302963256836 16.309316635131836 11.864784240722656 16.291271209716797 L11.864784240722656 12.533304214477539 C11.630230903625488 13.761687278747559 11.566760063171387 15.067203521728516 11.851176261901855 16.28500747680664 L11.851176261901855 16.28500747680664 C11.00748348236084 15.305992126464844 10.705488204956055 15.09977912902832 10.28927993774414 14.16086483001709 L5.748852252960205 14.16086483001709 L1.2084245681762695 14.16086483001709 L1.2000007629394531 9.839784622192383 L5.6818928718566895 9.845616340637207 L10.163784980773926 9.851448059082031 C10.165513038635254 9.847559928894043 10.167240142822266 9.843672752380371 10.168968200683594 9.839784622192383 L10.28927993774414 9.839784622192383 C10.705436706542969 8.898679733276367 11.005885124206543 8.695698738098145 11.852255821228027 7.713696479797363 L11.852255821228027 7.713696479797363 C11.56727123260498 8.931663513183594 11.630496978759766 10.237579345703125 11.86500072479248 11.466264724731445 L11.86500072479248 7.708296298980713 C11.953198432922363 7.689668655395508 12.047249794006348 7.689806938171387 12.135431289672852 7.708511829376221 L12.135431289672852 11.465831756591797 C12.369921684265137 10.23721694946289 12.433298110961914 8.931543350219727 12.149040222167969 7.713480472564697 L12.149040222167969 7.713480472564697 C12.996147155761719 8.696510314941406 13.294682502746582 8.898375511169434 13.71072006225586 9.839784622192383 L13.843560218811035 9.839784622192383 C13.845000267028809 9.843672752380371 13.846439361572266 9.847559928894043 13.847879409790039 9.851448059082031 L13.847879409790039 9.851448059082031"></path>
<path fill="none" stroke="black" stroke-width=".3" stroke-opacity="1.0"  filling="0" d="M12.289008140563965 12.31924819946289 L12.289008140563965 12.31924819946289 C11.85626220703125 12.878214836120605 11.532346725463867 12.122429847717285 11.710991859436035 11.679455757141113 C11.99569320678711 10.97350025177002 12.367788314819336 11.968293190002441 12.289008140563965 12.31924819946289 L12.289008140563965 12.31924819946289"></path>
<path fill="none" stroke="black" stroke-width=".3" stroke-opacity="1.0"  filling="0" d="M10.297703742980957 14.161080360412598 L10.297703742980957 14.161080360412598 C9.813959121704102 12.55654525756836 9.813558578491211 11.444458961486816 10.297703742980957 9.84000015258789 L10.297703742980957 9.84000015258789 C10.78284740447998 11.445106506347656 10.782445907592773 12.555899620056152 10.297703742980957 14.161080360412598 L10.297703742980957 14.161080360412598"></path>
<path fill="none" stroke="black" stroke-width=".3" stroke-opacity="1.0"  filling="0" d="M22.799999237060547 14.161080360412598 L22.799999237060547 9.839784622192383 L22.799999237060547 14.161080360412598"></path>
<path fill="none" stroke="black" stroke-width=".3" stroke-opacity="1.0"  filling="0" d="M14.571264266967773 16.274639129638672 L13.765583038330078 14.880359649658203 L18.282791137695312 14.880359649658203 L22.799999237060547 14.880359649658203 L22.799999237060547 19.200359344482422 L15.600000381469727 19.200359344482422 L8.40000057220459 19.200359344482422 L1.2000007629394531 19.200359344482422 L1.2000007629394531 14.880359649658203 L5.716560363769531 14.880359649658203 L10.23311996459961 14.880359649658203 L9.58360767364502 16.365358352661133 L10.522344589233398 14.880359649658203 C11.765392303466797 16.690242767333984 12.24290657043457 16.675338745117188 13.497527122497559 14.880359649658203 L14.571264266967773 16.274639129638672"></path>
<path fill="none" stroke="black" stroke-width=".3" stroke-opacity="1.0"  filling="0" d="M11.86500072479248 16.31265640258789 L11.86500072479248 16.31265640258789 C11.860464096069336 16.303512573242188 11.855928421020508 16.294368743896484 11.851391792297363 16.28522491455078 L11.851391792297363 16.28522491455078 C11.855928421020508 16.28731346130371 11.860464096069336 16.289400100708008 11.86500072479248 16.291488647460938 L11.86500072479248 16.31265640258789"></path>
<path fill="none" stroke="black" stroke-width=".3" stroke-opacity="1.0"  filling="0" d="M12.13499927520752 16.31265640258789 L12.13499927520752 16.291488647460938 C12.139463424682617 16.289400100708008 12.143927574157715 16.28731346130371 12.148391723632812 16.28522491455078 L12.148391723632812 16.28522491455078 C12.143927574157715 16.294368743896484 12.139463424682617 16.303512573242188 12.13499927520752 16.31265640258789 L12.13499927520752 16.31265640258789"></path></svg>