<svg xmlns="http://www.w3.org/2000/svg" viewBox="0.0 0.0 24.0 24.0" height="200px" width="200px"><path fill="none" stroke="black" stroke-width=".3" stroke-opacity="1.0"  filling="0" d="M9.061473846435547 8.859667778015137 L9.084771156311035 8.859667778015137 C9.217435836791992 8.369197845458984 9.22996711730957 7.8289995193481445 9.482765197753906 7.388257026672363 C11.219648361206055 4.360074520111084 14.271048545837402 6.477756500244141 14.915383338928223 8.859667778015137 L14.938525199890137 12.581193923950195 L9.061473846435547 12.581193923950195 L9.061473846435547 8.859667778015137"></path>
<path fill="none" stroke="black" stroke-width=".3" stroke-opacity="1.0"  filling="0" d="M17.8520565032959 12.581348419189453 L20.246261596679688 12.581348419189453 L20.246261596679688 16.78679084777832 L20.246261596679688 20.992233276367188 L14.748753547668457 20.992233276367188 L9.251245498657227 20.992233276367188 L3.753737449645996 20.992233276367188 L3.753737449645996 16.786712646484375 L3.753737449645996 12.581193923950195 L6.147943019866943 12.581193923950195 L6.149794578552246 8.790239334106445 C6.423327922821045 7.199688911437988 6.313755035400391 6.7065629959106445 7.301096439361572 5.372525215148926 C8.449363708496094 3.821054458618164 10.22469711303711 3.0453057289123535 12.000027656555176 3.0452988147735596 C13.775359153747559 3.0452921390533447 15.550688743591309 3.8210272789001465 16.69894790649414 5.372524738311768 C17.68625831604004 6.7065510749816895 17.576690673828125 7.199714660644531 17.85020637512207 8.790239334106445 L17.8520565032959 12.581348419189453"></path></svg>