<svg xmlns="http://www.w3.org/2000/svg" viewBox="0.0 0.0 24.0 24.0" height="200px" width="200px"><path fill="none" stroke="black" stroke-width=".3" stroke-opacity="1.0"  filling="0" d="M12.0 5.820024013519287 L12.0 5.820024013519287 C12.97573471069336 6.049556732177734 13.931739807128906 6.455957412719727 14.752056121826172 7.0320000648498535 L9.247943878173828 7.0320000648498535 C10.068260192871094 6.455957412719727 11.02426528930664 6.049556732177734 12.0 5.820024013519287 L12.0 5.820024013519287"></path>
<path fill="none" stroke="black" stroke-width=".3" stroke-opacity="1.0"  filling="0" d="M16.602312088012695 9.407999992370605 L16.602312088012695 9.407999992370605 C15.068207740783691 9.407999992370605 13.534103393554688 9.407999992370605 12.0 9.407999992370605 C10.465895652770996 9.407999992370605 8.931792259216309 9.407999992370605 7.397688388824463 9.407999992370605 L7.397688388824463 9.407999992370605 C7.775184154510498 8.904000282287598 8.152680397033691 8.40000057220459 8.530176162719727 7.896000385284424 L11.16926383972168 7.896000385284424 C11.446175575256348 8.17291259765625 11.608386993408203 8.726736068725586 12.0 8.726736068725586 C12.391613006591797 8.726736068725586 12.553824424743652 8.17291259765625 12.83073616027832 7.896000385284424 L15.46982479095459 7.896000385284424 C15.847320556640625 8.40000057220459 16.224815368652344 8.904000282287598 16.602312088012695 9.407999992370605 L16.602312088012695 9.407999992370605"></path>
<path fill="none" stroke="black" stroke-width=".3" stroke-opacity="1.0"  filling="0" d="M21.889774322509766 9.940872192382812 L21.889774322509766 9.940872192382812 C21.600601196289062 10.748224258422852 20.978477478027344 11.506500244140625 20.21210289001465 11.891351699829102 L20.21210289001465 11.891351699829102 C20.40645408630371 13.829460144042969 20.59865379333496 15.620735168457031 19.23880958557129 17.18853759765625 L19.27228546142578 17.19112777709961 C18.963144302368164 19.11351203918457 18.61201286315918 21.431747436523438 15.95301628112793 21.136585235595703 L15.95301628112793 21.136585235595703 C14.55038070678711 22.163944244384766 13.267964363098145 22.67495346069336 11.9865140914917 22.671159744262695 C10.70506477355957 22.667367935180664 9.424581527709961 22.148773193359375 8.025815963745117 21.116928100585938 L8.025815963745117 21.116928100585938 C5.378214359283447 21.386281967163086 5.037071228027344 19.098499298095703 4.727928161621094 17.179031372070312 L4.744128704071045 17.17795181274414 C3.4008359909057617 15.608663558959961 3.5947203636169434 13.820353507995605 3.788328170776367 11.891351699829102 L3.788328170776367 11.891351699829102 C1.7133147716522217 10.849740028381348 1.7315376996994019 9.049707412719727 3.1929242610931396 7.292631149291992 C4.068392753601074 6.240025043487549 5.271289348602295 5.019197463989258 6.580211162567139 3.9438748359680176 C7.889132499694824 2.8685522079467773 9.304079055786133 1.9387342929840088 10.60364818572998 1.4681477546691895 C12.085525512695312 0.9315455555915833 13.465660095214844 1.3564586639404297 14.72851848602295 2.1297621726989746 C15.991377830505371 2.9030659198760986 17.136960983276367 4.0247602462768555 18.149736404418945 4.881720066070557 C19.988067626953125 6.437224388122559 21.400039672851562 7.522493839263916 21.889774322509766 9.940872192382812 L21.889774322509766 9.940872192382812"></path>
<path fill="none" stroke="black" stroke-width=".3" stroke-opacity="1.0"  filling="0" d="M7.0486321449279785 10.026191711425781 L7.0486321449279785 10.026191711425781 C7.489920139312744 10.4269437789917 7.931208610534668 10.827695846557617 8.372496604919434 11.228447914123535 L8.372496604919434 11.228447914123535 C8.197104454040527 11.485631942749023 7.788190841674805 11.694178581237793 7.846320629119873 12.0 C8.101897239685059 13.344590187072754 9.594555854797363 12.850067138671875 9.495912551879883 11.881199836730957 L9.495912551879883 11.881199836730957 C11.359601974487305 12.55835247039795 12.640464782714844 12.559115409851074 14.504303932189941 11.882280349731445 L14.504303932189941 11.882280349731445 C14.406105995178223 12.85533618927002 15.898626327514648 13.339394569396973 16.15367889404297 12.0 C16.21184730529785 11.69453239440918 15.803470611572266 11.486063957214355 15.628366470336914 11.229096412658691 L15.628366470336914 11.229096412658691 C16.06929588317871 10.828271865844727 16.510223388671875 10.427448272705078 16.951152801513672 10.026623725891113 L16.951152801513672 10.026623725891113 C17.39873504638672 10.598196983337402 17.898874282836914 11.134805679321289 18.452783584594727 11.604071617126465 L18.452783584594727 11.604071617126465 C18.54660987854004 12.20252513885498 18.69664764404297 12.79483699798584 18.734264373779297 13.399432182312012 C18.763587951660156 13.87073802947998 18.738862991333008 14.349471092224121 18.65247917175293 14.813719749450684 C18.13526725769043 17.59337615966797 15.717533111572266 14.372770309448242 14.493935585021973 13.727999687194824 L9.506064414978027 13.727999687194824 C8.284906387329102 14.37138557434082 5.866885662078857 17.612537384033203 5.347128391265869 14.816712379455566 C5.2607102394104 14.351860046386719 5.2359938621521 13.872517585754395 5.265408515930176 13.400616645812988 C5.30313777923584 12.795324325561523 5.45342493057251 12.202343940734863 5.547432899475098 11.6032075881958 L5.547432899475098 11.6032075881958 C6.101245880126953 11.13414192199707 6.601255893707275 10.597668647766113 7.0486321449279785 10.026191711425781 L7.0486321449279785 10.026191711425781"></path>
<path fill="none" stroke="black" stroke-width=".3" stroke-opacity="1.0"  filling="0" d="M16.489776611328125 19.46820068359375 L16.489776611328125 19.46820068359375 C15.654802322387695 18.07404899597168 15.506397247314453 17.82807159423828 13.95199203491211 16.968000411987305 L10.04800796508789 16.968000411987305 C8.494711875915527 17.828062057495117 8.343017578125 18.0715389251709 7.510224342346191 19.466041564941406 L7.510224342346191 19.466041564941406 C6.929658889770508 19.165040969848633 6.655422210693359 18.433427810668945 6.458736419677734 17.809751510620117 L6.458736419677734 17.809751510620117 C7.943422317504883 17.1051025390625 8.57872486114502 16.68415641784668 9.424415588378906 15.284496307373047 L9.424415588378906 15.284496307373047 C9.451631546020508 15.26966381072998 9.478848457336426 15.25483226776123 9.506064414978027 15.239999771118164 L14.493935585021973 15.239999771118164 C14.521224021911621 15.254759788513184 14.548511505126953 15.26952075958252 14.575799942016602 15.284280776977539 L14.575799942016602 15.284280776977539 C15.510986328125 16.661588668823242 16.004302978515625 17.07251739501953 17.542343139648438 17.804351806640625 L17.542343139648438 17.804351806640625 C17.34573745727539 18.43048667907715 17.072078704833984 19.16550636291504 16.489776611328125 19.46820068359375 L16.489776611328125 19.46820068359375"></path>
<path fill="none" stroke="black" stroke-width=".3" stroke-opacity="1.0"  filling="0" d="M9.198911666870117 19.93454360961914 L9.198911666870117 19.93454360961914 C9.273184776306152 19.806076049804688 9.310885429382324 19.633955001831055 9.439536094665527 19.559999465942383 L14.556574821472168 19.559999465942383 C14.679706573486328 19.644527435302734 14.723803520202637 19.807802200317383 14.79849624633789 19.937135696411133 L14.79849624633789 19.937135696411133 C12.611709594726562 21.373258590698242 11.384841918945312 21.37192153930664 9.198911666870117 19.93454360961914 L9.198911666870117 19.93454360961914"></path></svg>