<svg xmlns="http://www.w3.org/2000/svg" viewBox="0.0 0.0 24.0 24.0" height="200px" width="200px"><path fill="none" stroke="black" stroke-width=".3" stroke-opacity="1.0"  filling="0" d="M22.49155044555664 4.5490803718566895 L22.49155044555664 4.5490803718566895 C22.742982864379883 6.31937313079834 22.738876342773438 7.121995449066162 21.861478805541992 8.711832046508789 L21.861478805541992 8.711832046508789 C21.853029251098633 9.395813941955566 22.074932098388672 10.122781753540039 21.83612823486328 10.763777732849121 C21.63733673095703 11.29737663269043 21.040006637573242 11.578133583068848 20.641944885253906 11.985311508178711 L20.641944885253906 11.985311508178711 C20.72749900817871 12.5308198928833 21.058481216430664 13.093310356140137 20.89860725402832 13.621835708618164 C20.727767944335938 14.186613082885742 20.127307891845703 14.514995574951172 19.741657257080078 14.961575508117676 L19.741657257080078 14.961575508117676 C19.063011169433594 16.625106811523438 19.037006378173828 16.986404418945312 17.956632614135742 18.444185256958008 C17.207651138305664 19.454809188842773 16.2658748626709 20.38792610168457 15.244967460632324 21.123943328857422 C14.557363510131836 21.619667053222656 12.91744613647461 22.64508628845215 12.0 22.647502899169922 C10.165834426879883 22.65233612060547 8.525456428527832 21.434494018554688 7.197991847991943 19.86454200744629 C5.870527267456055 18.29458999633789 4.855976104736328 16.372528076171875 4.273464202880859 14.96891975402832 L4.273464202880859 14.96891975402832 C3.8836562633514404 14.522412300109863 3.2778587341308594 14.196059226989746 3.1040406227111816 13.629396438598633 C2.9414191246032715 13.099235534667969 3.273528575897217 12.533339500427246 3.3582725524902344 11.985311508178711 L3.3582725524902344 11.985311508178711 C2.960211753845215 11.578133583068848 2.362882137298584 11.29737663269043 2.1640896797180176 10.763777732849121 C1.9252864122390747 10.122781753540039 2.1471877098083496 9.395813941955566 2.1387367248535156 8.711832046508789 L2.1387367248535156 8.711832046508789 C1.867179274559021 8.219880104064941 1.4523335695266724 7.7830657958984375 1.3240643739700317 7.235976219177246 C1.1191401481628418 6.361939430236816 1.549320936203003 5.445888042449951 1.5084495544433594 4.5490803718566895 C1.4872052669525146 4.082935333251953 1.189121127128601 3.628056049346924 1.2733057737350464 3.169083833694458 C1.3442319631576538 2.7823963165283203 1.5622692108154297 2.3051207065582275 1.9400157928466797 2.196192741394043 C4.181576728820801 1.5498111248016357 6.422824859619141 4.405226230621338 7.620384693145752 5.7725043296813965 L7.620384693145752 5.7725043296813965 C8.345837593078613 5.677569389343262 9.076059341430664 5.528880596160889 9.806304931640625 5.574000358581543 L9.806304931640625 5.574000358581543 C10.497749328613281 5.062748908996582 11.208227157592773 4.551955223083496 12.0 4.216440677642822 L12.0 4.216440677642822 C12.791712760925293 4.551940441131592 13.502118110656738 5.06273889541626 14.193479537963867 5.574000358581543 L14.193479537963867 5.574000358581543 C14.923725128173828 5.528880596160889 15.653946876525879 5.677569389343262 16.3794002532959 5.7725043296813965 L16.3794002532959 5.7725043296813965 C17.48785400390625 4.507094860076904 18.620819091796875 3.0249171257019043 20.29640769958496 2.4682819843292236 C21.334850311279297 2.1233088970184326 22.45981788635254 1.714087724685669 22.726694107055664 3.169083833694458 C22.81087875366211 3.628056049346924 22.569931030273438 4.089081764221191 22.49155044555664 4.5490803718566895 L22.49155044555664 4.5490803718566895"></path>
<path fill="none" stroke="black" stroke-width=".3" stroke-opacity="1.0"  filling="0" d="M16.79476547241211 10.019712448120117 L16.79476547241211 10.019712448120117 C16.766197204589844 13.057259559631348 14.743605613708496 14.484604835510254 12.44863224029541 12.250776290893555 L12.44863224029541 12.250776290893555 C13.68736743927002 11.074286460876465 15.083817481994629 10.247406005859375 16.79476547241211 10.019712448120117 L16.79476547241211 10.019712448120117"></path>
<path fill="none" stroke="black" stroke-width=".3" stroke-opacity="1.0"  filling="0" d="M8.916383743286133 10.689743995666504 L8.916383743286133 10.689743995666504 C9.896862030029297 11.40402889251709 9.420967102050781 12.08889389038086 9.226991653442383 13.187135696411133 L9.226991653442383 13.187135696411133 C8.966157913208008 12.389839172363281 8.93343734741211 11.528448104858398 8.916383743286133 10.689743995666504 L8.916383743286133 10.689743995666504"></path>
<path fill="none" stroke="black" stroke-width=".3" stroke-opacity="1.0"  filling="0" d="M14.773008346557617 13.186920166015625 L14.773008346557617 13.186920166015625 C14.579109191894531 12.088676452636719 14.103143692016602 11.40380859375 15.083616256713867 10.68952751159668 L15.083616256713867 10.68952751159668 C15.066564559936523 11.52823257446289 15.03388786315918 12.38963794708252 14.773008346557617 13.186920166015625 L14.773008346557617 13.186920166015625"></path>
<path fill="none" stroke="black" stroke-width=".3" stroke-opacity="1.0"  filling="0" d="M8.699736595153809 13.415016174316406 L8.699736595153809 13.415016174316406 C8.000085830688477 12.395349502563477 7.21686315536499 11.256063461303711 7.2052321434021 10.01949691772461 L7.2052321434021 10.01949691772461 C8.916180610656738 10.247187614440918 10.312634468078613 11.07406997680664 11.55136775970459 12.250560760498047 L11.55136775970459 12.250560760498047 C10.815617561340332 12.966708183288574 9.71685791015625 13.274801254272461 8.699736595153809 13.415016174316406 L8.699736595153809 13.415016174316406"></path>
<path fill="none" stroke="black" stroke-width=".3" stroke-opacity="1.0"  filling="0" d="M10.520183563232422 14.180736541748047 L10.520183563232422 14.180736541748047 C10.732151985168457 14.211048126220703 10.944119453430176 14.24135971069336 11.156087875366211 14.271671295166016 L11.156087875366211 14.271671295166016 C12.046616554260254 15.759262084960938 10.83019733428955 15.612502098083496 10.520183563232422 14.180736541748047 L10.520183563232422 14.180736541748047"></path>
<path fill="none" stroke="black" stroke-width=".3" stroke-opacity="1.0"  filling="0" d="M13.479816436767578 14.180736541748047 L13.479816436767578 14.180736541748047 C13.16980266571045 15.612503051757812 11.953384399414062 15.759262084960938 12.843912124633789 14.271671295166016 L12.843912124633789 14.271671295166016 C13.055880546569824 14.24135971069336 13.267848014831543 14.211048126220703 13.479816436767578 14.180736541748047 L13.479816436767578 14.180736541748047"></path>
<path fill="none" stroke="black" stroke-width=".3" stroke-opacity="1.0"  filling="0" d="M12.024191856384277 16.121280670166016 L12.024191856384277 16.121280670166016 C13.673151016235352 15.98849105834961 15.047697067260742 15.995442390441895 16.543128967285156 15.31495189666748 L16.543128967285156 15.31495189666748 C15.708857536315918 16.696897506713867 13.975543022155762 20.30779266357422 12.023544311523438 20.30779266357422 C10.071407318115234 20.30779266357422 8.338082313537598 16.69699478149414 7.503744125366211 15.31495189666748 L7.503744125366211 15.31495189666748 C8.999881744384766 15.995112419128418 10.374670028686523 15.988460540771484 12.024191856384277 16.121280670166016 L12.024191856384277 16.121280670166016"></path>
<path fill="none" stroke="black" stroke-width=".3" stroke-opacity="1.0"  filling="0" d="M13.42300796508789 17.120927810668945 L12.83073616027832 18.29640007019043 L12.0 17.174495697021484 L11.16926383972168 18.29640007019043 L10.606152534484863 17.120927810668945 L10.200504302978516 17.912782669067383 L9.339096069335938 16.700807571411133 C11.066535949707031 17.164432525634766 12.800678253173828 17.18836784362793 14.525688171386719 16.700807571411133 L13.907495498657227 17.967863082885742 L13.42300796508789 17.120927810668945"></path>
<path fill="none" stroke="black" stroke-width=".3" stroke-opacity="1.0"  filling="0" d="M11.998056411743164 21.294479370117188 L11.998056411743164 21.294479370117188 C10.284896850585938 20.550872802734375 8.530532836914062 19.343414306640625 7.230358123779297 17.805734634399414 C5.930182933807373 16.268056869506836 5.084196090698242 14.400156021118164 5.1877923011779785 12.335663795471191 C5.246646881103516 11.162792205810547 7.050698757171631 10.995171546936035 7.059216022491455 9.96009635925293 C7.065497398376465 9.196715354919434 6.53352165222168 8.526285171508789 6.296736240386963 7.800528049468994 L6.296736240386963 7.800528049468994 C7.456793785095215 7.249322891235352 8.009302139282227 6.808167934417725 9.351840019226074 6.875184535980225 C10.31589412689209 6.9233078956604 11.424300193786621 7.89831018447876 12.381239891052246 7.646304130554199 C14.629962921142578 7.054112434387207 15.43856430053711 6.724610805511475 17.703046798706055 7.800528049468994 L17.703046798706055 7.800528049468994 C17.466262817382812 8.526285171508789 16.934288024902344 9.196715354919434 16.940568923950195 9.96009635925293 C16.94910430908203 10.997501373291016 18.76357078552246 11.158806800842285 18.811992645263672 12.335663795471191 C18.897748947143555 14.419891357421875 18.066591262817383 16.283491134643555 16.777830123901367 17.814085006713867 C15.489070892333984 19.344680786132812 13.742708206176758 20.54227066040039 11.998056411743164 21.294479370117188 L11.998056411743164 21.294479370117188"></path></svg>