<svg xmlns="http://www.w3.org/2000/svg" viewBox="0.0 0.0 24.0 24.0" height="200px" width="200px"><path fill="none" stroke="black" stroke-width=".3" stroke-opacity="1.0"  filling="0" d="M6.0325093269348145 7.591104030609131 L6.0325093269348145 7.591104030609131 C5.671755313873291 8.011824607849121 5.504329204559326 8.86523723602295 4.950247764587402 8.853266716003418 C3.9108643531799316 8.830810546875 2.993612766265869 6.1908955574035645 4.950247764587402 6.233168601989746 C5.528931140899658 6.245670795440674 5.671755313873291 7.138458728790283 6.0325093269348145 7.591104030609131 L6.0325093269348145 7.591104030609131"></path>
<path fill="none" stroke="black" stroke-width=".3" stroke-opacity="1.0"  filling="0" d="M20.2629337310791 7.591104030609131 L20.2629337310791 7.591104030609131 C19.902179718017578 8.011824607849121 19.734752655029297 8.865236282348633 19.18067169189453 8.853266716003418 C18.605430603027344 8.840840339660645 18.056453704833984 8.118813514709473 18.056453704833984 7.543437957763672 C18.056453704833984 6.967950344085693 18.605318069458008 6.220739364624023 19.18067169189453 6.233168601989746 C19.759355545043945 6.245669841766357 19.902179718017578 7.138458728790283 20.2629337310791 7.591104030609131 L20.2629337310791 7.591104030609131"></path>
<path fill="none" stroke="black" stroke-width=".3" stroke-opacity="1.0"  filling="0" d="M2.371664047241211 10.193849563598633 L2.371664047241211 10.193849563598633 C3.6036205291748047 8.940925598144531 5.777150630950928 8.721034049987793 7.322131156921387 9.819109916687012 C7.488564491271973 9.937400817871094 9.5716552734375 11.614283561706543 9.031082153320312 12.113234519958496 C8.296749114990234 12.791027069091797 6.827477931976318 10.714129447937012 6.4257001876831055 10.32520580291748 L6.203404903411865 10.326744079589844 L6.203404903411865 17.233718872070312 C6.023723602294922 17.36844253540039 5.84404182434082 17.5031681060791 5.664360523223877 17.63789176940918 L5.664360523223877 17.63789176940918 C5.484679222106934 17.5031681060791 5.304997444152832 17.36844253540039 5.125316143035889 17.233718872070312 L5.125316143035889 13.862822532653809 L4.716749668121338 13.862822532653809 L4.716749668121338 17.233497619628906 C4.5363359451293945 17.368223190307617 4.355921745300293 17.502946853637695 4.17550802230835 17.637672424316406 L4.17550802230835 17.637672424316406 C3.9950942993164062 17.502946853637695 3.814680576324463 17.368223190307617 3.6342668533325195 17.233497619628906 L3.6342668533325195 10.326523780822754 L3.27951717376709 10.326523780822754 L3.27951717376709 13.256781578063965 C3.128171682357788 13.39150619506836 2.9768259525299072 13.526230812072754 2.8254804611206055 13.660955429077148 L2.8254804611206055 13.660955429077148 C2.674208402633667 13.526230812072754 2.5229361057281494 13.39150619506836 2.371664047241211 13.256781578063965 L2.371664047241211 10.193849563598633"></path>
<path fill="none" stroke="black" stroke-width=".3" stroke-opacity="1.0"  filling="0" d="M21.8181209564209 10.193849563598633 L21.8181209564209 13.256781578063965 C21.666776657104492 13.39150619506836 21.515430450439453 13.526230812072754 21.364086151123047 13.660955429077148 L21.364086151123047 13.660955429077148 C21.212814331054688 13.526230812072754 21.061540603637695 13.39150619506836 20.910268783569336 13.256781578063965 L20.910268783569336 10.326523780822754 L20.555740356445312 10.326523780822754 L20.555740356445312 17.233497619628906 C20.375253677368164 17.368223190307617 20.194765090942383 17.502946853637695 20.014278411865234 17.637672424316406 L20.014278411865234 17.637672424316406 C19.833791732788086 17.502946853637695 19.653305053710938 17.368223190307617 19.47281837463379 17.233497619628906 L19.47281837463379 13.862822532653809 L19.064470291137695 13.862822532653809 L19.064470291137695 17.233718872070312 C18.884788513183594 17.36844253540039 18.705106735229492 17.5031681060791 18.52542495727539 17.63789176940918 L18.52542495727539 17.63789176940918 C18.34574317932129 17.5031681060791 18.16606330871582 17.36844253540039 17.98638153076172 17.233718872070312 L17.98638153076172 10.326744079589844 L17.768699645996094 10.320812225341797 C17.40996742248535 10.668099403381348 15.840167999267578 12.776026725769043 15.19538688659668 12.180890083312988 C14.578900337219238 11.611869812011719 16.650602340698242 9.973609924316406 16.867656707763672 9.819330215454102 C18.4124813079834 8.721292495727539 20.586101531982422 8.941149711608887 21.8181209564209 10.193849563598633 L21.8181209564209 10.193849563598633"></path>
<path fill="none" stroke="black" stroke-width=".3" stroke-opacity="1.0"  filling="0" d="M16.68753433227539 14.414608001708984 L16.68753433227539 14.414608001708984 C16.46026039123535 14.64202880859375 16.23298454284668 14.869449615478516 16.00571060180664 15.096870422363281 L14.387700080871582 13.478858947753906 L12.664690017700195 15.201647758483887 C12.86799430847168 15.404924392700195 13.071311950683594 15.608187675476074 13.274601936340332 15.811477661132812 C13.610649108886719 16.147525787353516 14.194355010986328 16.35270118713379 14.282702445983887 16.819660186767578 C14.342934608459473 17.138015747070312 13.918567657470703 17.530044555664062 13.59538745880127 17.506973266601562 C13.222491264343262 17.4803524017334 13.066650390625 16.978317260742188 12.80229663848877 16.713973999023438 C11.881943702697754 15.793656349182129 10.961638450622559 14.873290061950684 10.041319847106934 13.952938079833984 C9.76768970489502 13.67929744720459 9.25329303741455 13.517597198486328 9.220428466796875 13.1320161819458 C9.060687065124512 11.257844924926758 11.169608116149902 13.697121620178223 11.392641067504883 13.920154571533203 L11.392641067504883 13.920154571533203 C11.569271087646484 13.743524551391602 13.266327857971191 12.046463966369629 13.266338348388672 12.04645824432373 C14.55029582977295 11.363046646118164 15.992423057556152 13.71949577331543 16.68753433227539 14.414608001708984 L16.68753433227539 14.414608001708984"></path></svg>