<svg xmlns="http://www.w3.org/2000/svg" viewBox="0.0 0.0 24.0 24.0" height="200px" width="200px"><path fill="none" stroke="black" stroke-width=".3" stroke-opacity="1.0"  filling="0" d="M9.716231346130371 2.6152334213256836 L10.49512767791748 1.83612060546875 L12.318816184997559 1.83612060546875 L9.010560035705566 5.144376277923584 L9.716231346130371 2.6152334213256836"></path>
<path fill="none" stroke="black" stroke-width=".3" stroke-opacity="1.0"  filling="0" d="M7.794264793395996 2.816112518310547 L7.794264793395996 2.816112518310547 C8.237164497375488 2.0489866733551025 10.116697311401367 0.7145786285400391 10.11669635772705 2.816112518310547 C10.116695404052734 4.917646408081055 8.237164497375488 3.583238124847412 7.794264793395996 2.816112518310547 L7.794264793395996 2.816112518310547"></path>
<path fill="none" stroke="black" stroke-width=".3" stroke-opacity="1.0"  filling="0" d="M9.484895706176758 5.641608238220215 L9.294384002685547 5.642904281616211 C9.294514656066895 6.583368301391602 9.29458236694336 7.523832321166992 9.294599533081055 8.464296340942383 L9.294599533081055 8.464296340942383 C11.002326011657715 10.252106666564941 11.099227905273438 10.800514221191406 11.461080551147461 13.298376083374023 L11.461080551147461 13.298376083374023 C11.331840515136719 13.576800346374512 11.36160945892334 14.028125762939453 11.073359489440918 14.133647918701172 C10.785232543945312 14.23912525177002 10.516799926757812 13.875167846679688 10.238519668579102 13.745927810668945 L9.837408065795898 10.906176567077637 L9.294816970825195 10.320168495178223 C9.294097900390625 11.66231632232666 8.941004753112793 12.927549362182617 8.6723051071167 14.241215705871582 L8.6723051071167 14.241215705871582 C8.45515251159668 14.458295822143555 8.327897071838379 14.8924560546875 8.020848274230957 14.8924560546875 C7.713952541351318 14.8924560546875 7.586976528167725 14.458295822143555 7.370040416717529 14.241215705871582 L7.992120265960693 11.200799942016602 L7.992768287658691 5.707704544067383 L6.97324800491333 9.079248428344727 C6.679128170013428 9.00710391998291 6.385007858276367 8.93496036529541 6.090888023376465 8.862815856933594 L6.935232162475586 5.421072483062744 C7.287744045257568 5.020752429962158 7.640256404876709 4.6204328536987305 7.992768287658691 4.2201128005981445 L9.294384002685547 4.218815803527832 C9.630120277404785 4.558008193969727 9.965856552124023 4.897200107574463 10.301592826843262 5.236392498016357 L10.527528762817383 6.652920246124268 L11.613792419433594 8.528448104858398 C11.332416534423828 8.640624046325684 11.051040649414062 8.752799987792969 10.769664764404297 8.864975929260254 L10.769664764404297 8.864975929260254 C10.058424949645996 7.645685195922852 9.70048713684082 7.027719497680664 9.484895706176758 5.641608238220215 L9.484895706176758 5.641608238220215"></path>
<path fill="none" stroke="black" stroke-width=".3" stroke-opacity="1.0"  filling="0" d="M21.20764923095703 7.0486321449279785 L21.20764923095703 7.0486321449279785 C23.321577072143555 9.661067008972168 21.512014389038086 11.027172088623047 19.70039939880371 13.329479217529297 L20.481456756591797 13.873368263244629 L20.481456756591797 14.208383560180664 L19.45675277709961 14.067336082458496 C20.15825653076172 16.105445861816406 17.981637954711914 16.83669662475586 17.161317825317383 14.856167793273926 L16.742712020874023 14.856167793273926 C16.072574615478516 16.473634719848633 14.845911026000977 16.473949432373047 14.175984382629395 14.856167793273926 L13.562111854553223 14.840831756591797 C13.562111854553223 15.009981155395508 13.451313972473145 15.170125961303711 13.338984489440918 15.296591758728027 L9.3207368850708 15.296591758728027 C9.037971496582031 15.465988159179688 8.646353721618652 15.200321197509766 8.372063636779785 15.0175199508667 L8.372063636779785 15.414743423461914 L4.619064807891846 15.183839797973633 C4.205352306365967 15.502583503723145 3.9001879692077637 16.140071868896484 3.377927780151367 16.140071868896484 C2.8556108474731445 16.140071868896484 2.5503597259521484 15.502583503723145 2.136575698852539 15.183839797973633 L1.566767692565918 15.324888229370117 C1.566767692565918 14.37225341796875 1.3064439296722412 12.134063720703125 1.9268407821655273 11.435591697692871 L1.9268407821655273 11.435591697692871 C3.24704647064209 11.2950439453125 4.5677385330200195 11.158974647521973 5.888928413391113 11.027999877929688 L6.265632152557373 9.828335762023926 C6.103750705718994 9.832157135009766 6.481143474578857 9.537020683288574 6.642335891723633 9.52161693572998 C7.235315322875977 9.464950561523438 7.832784175872803 9.474960327148438 8.428008079528809 9.451631546020508 L8.428008079528809 9.451631546020508 C8.428008079528809 8.553779602050781 8.146112442016602 6.890105724334717 9.041879653930664 6.828959941864014 C9.536750793457031 6.795179843902588 8.906657218933105 7.838089942932129 8.90234375 7.958856105804443 C8.883085250854492 8.498027801513672 8.91156005859375 9.037847518920898 8.916168212890625 9.577343940734863 L8.916168212890625 9.577343940734863 C9.103083610534668 9.778231620788574 9.058589935302734 13.093744277954102 8.90234375 13.260359764099121 L9.585984230041504 13.41372013092041 L9.823151588439941 13.176551818847656 C8.979721069335938 13.009529113769531 8.89217758178711 11.925724029541016 9.739559173583984 11.697599411010742 L9.739559173583984 11.697599411010742 C10.391863822937012 11.53431510925293 10.90749740600586 11.028300285339355 11.524368286132812 10.951319694519043 L11.524368286132812 10.951319694519043 C11.565939903259277 10.852099418640137 11.667999267578125 10.748712539672852 11.775575637817383 10.748712539672852 L11.775575637817383 10.748712539672852 C11.987114906311035 8.646661758422852 13.551800727844238 7.7464919090271 15.460268020629883 7.359409332275391 C17.368736267089844 6.972326755523682 19.620983123779297 7.098331928253174 21.20764923095703 7.0486321449279785 L21.20764923095703 7.0486321449279785"></path>
<path fill="none" stroke="black" stroke-width=".3" stroke-opacity="1.0"  filling="0" d="M9.030216217041016 7.79145622253418 L9.030216217041016 7.79145622253418 C7.806972980499268 7.204911231994629 4.4879302978515625 4.511739730834961 7.301784515380859 3.112895965576172 C8.434988975524902 2.549548864364624 10.7286376953125 3.417752265930176 10.915895462036133 4.7877607345581055 C11.044486045837402 5.728547096252441 9.634269714355469 7.122401714324951 9.030216217041016 7.79145622253418 L9.030216217041016 7.79145622253418"></path>
<path fill="none" stroke="black" stroke-width=".3" stroke-opacity="1.0"  filling="0" d="M20.36956787109375 8.312880516052246 L20.36956787109375 8.312880516052246 C20.459495544433594 8.403024673461914 20.54942512512207 8.493167877197266 20.639352798461914 8.583312034606934 L20.639352798461914 9.50649642944336 C20.549209594726562 9.59656810760498 20.459064483642578 9.686640739440918 20.368921279907227 9.776712417602539 L17.48704719543457 9.776712417602539 L17.48704719543457 12.659231185913086 C17.39704704284668 12.749231338500977 17.307048797607422 12.839231491088867 17.21704864501953 12.929231643676758 L14.334527969360352 12.929231643676758 L14.334527969360352 15.811101913452148 C14.244383811950684 15.901247024536133 14.154239654541016 15.991392135620117 14.064095497131348 16.0815372467041 L11.182440757751465 16.0815372467041 L11.182440757751465 18.963623046875 C11.092368125915527 19.05376625061035 11.002296447753906 19.143911361694336 10.912223815917969 19.234054565429688 L8.030351638793945 19.234054565429688 L8.030351638793945 22.115497589111328 C7.940279960632324 22.20564079284668 7.850207805633545 22.295785903930664 7.760136127471924 22.385929107666016 L3.684215545654297 22.385929107666016 C3.594143867492676 22.295785903930664 3.5040721893310547 22.20564079284668 3.4140005111694336 22.115497589111328 L3.4140005111694336 21.1927433013916 C3.5040721893310547 21.10274314880371 3.594143867492676 21.012744903564453 3.684215545654297 20.922744750976562 L6.566952228546143 20.922744750976562 L6.566952228546143 18.96945571899414 C6.566736221313477 18.967512130737305 6.5665202140808105 18.965566635131836 6.5663042068481445 18.963623046875 L6.5663042068481445 18.04022216796875 C6.64698600769043 17.941387176513672 6.710298538208008 17.78327751159668 6.837168216705322 17.769790649414062 L7.76035213470459 17.769790649414062 C7.760784149169922 17.769935607910156 7.761216163635254 17.770078659057617 7.761648178100586 17.77022361755371 L9.719039916992188 17.77022361755371 L9.719039916992188 15.815641403198242 C9.71889591217041 15.814127922058105 9.71875286102295 15.812615394592285 9.718608856201172 15.811101913452148 L9.718608856201172 14.888351440429688 C9.778424263000488 14.775656700134277 9.867030143737793 14.654788970947266 9.98904037475586 14.617486953735352 L10.9126558303833 14.617486953735352 C10.913663864135742 14.617630958557129 10.914671897888184 14.617775917053223 10.915679931640625 14.617919921875 L12.871560096740723 14.617919921875 L12.871560096740723 11.735616683959961 C12.961560249328613 11.645544052124023 13.051560401916504 11.555472373962402 13.141560554504395 11.465399742126465 L14.064743041992188 11.465399742126465 C14.065320014953613 11.465399742126465 14.065896034240723 11.465399742126465 14.066473007202148 11.465399742126465 L16.023862838745117 11.465399742126465 L16.023862838745117 9.509087562561035 C16.023862838745117 9.50815200805664 16.023862838745117 9.507216453552246 16.023862838745117 9.506280899047852 L16.023862838745117 8.58309555053711 C16.113862991333008 8.493023872375488 16.2038631439209 8.402952194213867 16.29386329650879 8.312880516052246 L20.36956787109375 8.312880516052246"></path>
<path fill="none" stroke="black" stroke-width=".3" stroke-opacity="1.0"  filling="0" d="M7.7368083000183105 9.710400581359863 L8.304888725280762 7.673088550567627 L11.259876251220703 4.754604339599609 L14.214864730834961 1.83612060546875 L14.596752166748047 3.2051286697387695 L11.232660293579102 6.5693278312683105 L7.868567943572998 9.933526992797852 L7.7368083000183105 9.710400581359863"></path>
<path fill="none" stroke="black" stroke-width=".3" stroke-opacity="1.0"  filling="0" d="M17.800247192382812 9.72011947631836 L17.800247192382812 9.72011947631836 C18.917118072509766 11.881948471069336 19.11765480041504 14.370853424072266 18.521419525146484 16.67994499206543 C17.925186157226562 18.989036560058594 16.532180786132812 21.118314743041992 14.461967468261719 22.56088638305664 L11.19691276550293 22.56088638305664 C10.002439498901367 21.728382110595703 8.901007652282715 20.387535095214844 8.070844650268555 18.891761779785156 C7.240680694580078 17.39598846435547 6.681783676147461 15.745290756225586 6.572379112243652 14.293083190917969 C6.468367576599121 12.912467956542969 7.287454128265381 11.614262580871582 7.525775909423828 10.25040054321289 C7.6521711349487305 9.527070999145508 6.516046524047852 8.315974235534668 6.263256549835205 7.9605841636657715 C4.97178840637207 6.1449456214904785 3.958049774169922 3.1517951488494873 6.608640193939209 1.8261842727661133 C8.912546157836914 0.6739567518234253 9.92541790008545 2.6646790504455566 12.009440422058105 2.7963926792144775 C13.210712432861328 2.872314929962158 14.303413391113281 2.013845205307007 15.497471809387207 1.862039566040039 C15.66971206665039 1.8401418924331665 15.684704780578613 2.200937271118164 15.630095481872559 2.3657522201538086 C15.465137481689453 2.8636112213134766 14.97054672241211 3.229902744293213 14.873475074768066 3.745317220687866 C14.767006874084473 4.310627460479736 14.876503944396973 4.912894248962402 15.046896934509277 5.46232795715332 C15.48823070526123 6.885415077209473 16.980859756469727 8.521834373474121 17.800247192382812 9.72011947631836 L17.800247192382812 9.72011947631836"></path>
<path fill="none" stroke="black" stroke-width=".3" stroke-opacity="1.0"  filling="0" d="M15.312575340270996 9.909984588623047 L15.312575340270996 9.909984588623047 C16.10047721862793 10.072876930236816 16.898178100585938 10.19401741027832 17.676280975341797 10.398660659790039 C18.65224838256836 10.655342102050781 25.21282386779785 13.265918731689453 21.101829528808594 14.04751205444336 C20.55896759033203 14.15072250366211 20.005727767944336 14.194257736206055 19.45453643798828 14.23349380493164 C17.345569610595703 14.38361930847168 15.210100173950195 14.427877426147461 13.073768615722656 14.422857284545898 C10.937437057495117 14.417838096618652 8.800243377685547 14.363539695739746 6.687824249267578 14.31655216217041 C6.184726715087891 14.3053617477417 -0.2083730697631836 14.396110534667969 1.951521635055542 12.413019180297852 C2.347313642501831 12.049625396728516 2.8189125061035156 11.769953727722168 3.2983052730560303 11.527283668518066 C3.9615767002105713 11.191534042358398 4.655503749847412 10.911922454833984 5.363680362701416 10.685774803161621 C6.226959228515625 10.410097122192383 7.121877670288086 10.245620727539062 8.0009765625 10.025544166564941 L8.0009765625 10.025544166564941 C9.312883377075195 10.638707160949707 12.167798042297363 13.039671897888184 9.014664649963379 9.864840507507324 L9.014664649963379 9.864840507507324 C9.8992919921875 9.768930435180664 10.862078666687012 9.84737777709961 11.65639877319336 10.24840259552002 C12.22829532623291 10.53713321685791 12.70791244506836 10.984504699707031 13.267704010009766 11.296055793762207 C13.369227409362793 11.352559089660645 13.688817977905273 11.42646312713623 13.613762855529785 11.337770462036133 C13.095806121826172 10.725698471069336 12.462177276611328 10.221753120422363 11.886384010314941 9.66374397277832 L11.886384010314941 9.66374397277832 C12.990139961242676 9.655701637268066 13.556537628173828 9.658828735351562 14.636846542358398 10.184493064880371 C16.042652130126953 10.868539810180664 18.187911987304688 12.830129623413086 15.312575340270996 9.909984588623047 L15.312575340270996 9.909984588623047"></path>
<path fill="none" stroke="black" stroke-width=".3" stroke-opacity="1.0"  filling="0" d="M8.366016387939453 11.135784149169922 L8.366016387939453 11.135784149169922 C7.741408824920654 11.135784149169922 6.535156726837158 11.55846881866455 6.503015995025635 10.934688568115234 C6.466457366943359 10.225168228149414 6.6373796463012695 10.23216438293457 7.021848201751709 10.089263916015625 L8.365799903869629 10.0862398147583 L8.366016387939453 11.135784149169922"></path>
<path fill="none" stroke="black" stroke-width=".3" stroke-opacity="1.0"  filling="0" d="M9.220080375671387 12.22917652130127 L8.54421615600586 11.081568717956543 L11.769311904907227 7.856256484985352 L14.994407653808594 4.630943775177002 L15.392280578613281 6.056976318359375 L12.306180953979492 9.143075942993164 L9.220080375671387 12.22917652130127"></path>
<path fill="none" stroke="black" stroke-width=".3" stroke-opacity="1.0"  filling="0" d="M11.535384178161621 12.258768081665039 L11.535384178161621 12.565919876098633 C11.180853843688965 12.565919876098633 10.885082244873047 12.914544105529785 10.53055191040039 12.914544105529785 L10.53055191040039 12.914544105529785 C10.669455528259277 12.586950302124023 10.627938270568848 12.386771202087402 10.370063781738281 12.140399932861328 L10.370063781738281 12.140399932861328 C10.649556159973145 12.067164421081543 11.534034729003906 11.86688232421875 11.535384178161621 12.258768081665039 L11.535384178161621 12.258768081665039"></path>
<path fill="none" stroke="black" stroke-width=".3" stroke-opacity="1.0"  filling="0" d="M14.6015043258667 12.784296035766602 L14.605175971984863 14.138615608215332 L13.760615348815918 14.983176231384277 L11.937359809875488 14.983176231384277 L15.268512725830078 11.65180778503418 L14.6015043258667 12.784296035766602"></path>
<path fill="none" stroke="black" stroke-width=".3" stroke-opacity="1.0"  filling="0" d="M9.871319770812988 14.983176231384277 L9.871319770812988 14.983176231384277 C9.761664390563965 14.873519897460938 9.652008056640625 14.763863563537598 9.542352676391602 14.654207229614258 L9.542352676391602 13.731240272521973 L12.666252136230469 10.607232093811035 L15.79015064239502 7.483224391937256 L16.1882381439209 8.909039497375488 L13.029779434204102 11.946107864379883 L9.871319770812988 14.983176231384277"></path>
<path fill="none" stroke="black" stroke-width=".3" stroke-opacity="1.0"  filling="0" d="M13.027728080749512 15.980016708374023 L13.027728080749512 15.980016708374023 C13.603656768798828 16.44191551208496 14.538324356079102 17.133811950683594 14.899456024169922 17.741119384765625 C16.281740188598633 20.065675735473633 14.511648178100586 22.49686050415039 11.919864654541016 22.436687469482422 C10.246957778930664 22.39784812927246 9.302465438842773 21.357091903686523 8.991984367370605 19.841663360595703 C8.886083602905273 19.324771881103516 8.760152816772461 18.801897048950195 8.770368576049805 18.274368286132812 C8.776348114013672 17.965620040893555 8.734251976013184 17.341188430786133 9.039504051208496 17.38790512084961 C10.300631523132324 17.58091163635254 10.487432479858398 20.984149932861328 12.318870544433594 19.93484115600586 C14.155433654785156 18.88259506225586 11.954629898071289 17.755281448364258 11.529767990112305 16.950719833374023 C11.255785942077637 16.4318790435791 11.264376640319824 15.807648658752441 11.131680488586426 15.236112594604492 L9.87110424041748 15.236112594604492 C9.676992416381836 15.042072296142578 9.482880592346191 14.848031997680664 9.288768768310547 14.65399169921875 L9.288768768310547 12.844991683959961 L7.464000225067139 9.746255874633789 L8.60253620147705 5.66461181640625 L9.741071701049805 1.582967758178711 L14.407320022583008 1.582967758178711 L15.545855522155762 5.664720058441162 L16.684391021728516 9.746472358703613 L14.858975410461426 12.845207214355469 L14.858975410461426 14.654207229614258 C14.665007591247559 14.848247528076172 14.471039772033691 15.042287826538086 14.277071952819824 15.236328125 L12.551448822021484 15.236328125 C12.710208892822266 15.484224319458008 12.86896800994873 15.732120513916016 13.027728080749512 15.980016708374023 L13.027728080749512 15.980016708374023"></path>
<path fill="none" stroke="black" stroke-width=".3" stroke-opacity="1.0"  filling="0" d="M13.049544334411621 16.046112060546875 L13.049544334411621 16.046112060546875 C13.628414154052734 16.51048469543457 14.567314147949219 17.205686569213867 14.930359840393066 17.81617546081543 C16.319284439086914 20.151756286621094 14.541437149047852 22.59558868408203 11.936712265014648 22.534969329833984 C10.255754470825195 22.495849609375 9.306336402893066 21.449369430541992 8.994575500488281 19.926551818847656 C8.88824462890625 19.407169342041016 8.762046813964844 18.881750106811523 8.77231216430664 18.351696014404297 C8.778315544128418 18.04169273376465 8.735831260681152 17.414579391479492 9.042312622070312 17.46156120300293 C10.337811470031738 17.660152435302734 10.616405487060547 21.02126121520996 12.332423210144043 20.037899017333984 C14.204723358154297 18.964981079101562 11.952510833740234 17.84076690673828 11.544455528259277 17.02199935913086 C11.26340389251709 16.458065032958984 11.286551475524902 15.788495063781738 11.157599449157715 15.171743392944336 L9.877799987792969 15.171743392944336 C9.725159645080566 15.019031524658203 9.57252025604248 14.86631965637207 9.419879913330078 14.713607788085938 L9.419879913330078 12.894454956054688 C9.42088794708252 12.88502311706543 9.421896934509277 12.875591278076172 9.422904968261719 12.866159439086914 L7.59597635269165 9.764183044433594 L8.719932556152344 5.735352039337158 L9.843888282775879 1.7065210342407227 L14.339280128479004 1.7065210342407227 L15.463127136230469 5.7352447509765625 L16.58697509765625 9.763968467712402 L14.760263442993164 12.865943908691406 C14.761199951171875 12.875375747680664 14.76213550567627 12.884807586669922 14.76307201385498 12.89423942565918 L14.76307201385498 14.71339225769043 C14.610504150390625 14.866104125976562 14.457935333251953 15.018815994262695 14.305367469787598 15.171527862548828 L12.556848526000977 15.171527862548828 C12.721080780029297 15.463055610656738 12.8853120803833 15.754584312438965 13.049544334411621 16.046112060546875 L13.049544334411621 16.046112060546875"></path></svg>