<svg xmlns="http://www.w3.org/2000/svg" viewBox="0.0 0.0 24.0 24.0" height="200px" width="200px"><path fill="none" stroke="black" stroke-width=".3" stroke-opacity="1.0"  filling="0" d="M2.6446075439453125 4.3752007484436035 L6.584447860717773 4.3752007484436035 C6.906720161437988 4.7424726486206055 7.55126428604126 4.98839807510376 7.55126428604126 5.477016448974609 C7.55126428604126 5.9706878662109375 6.906720161437988 6.224952220916748 6.584447860717773 6.5989203453063965 L6.584447860717773 6.5989203453063965 C5.742439270019531 7.259828090667725 3.896488666534424 8.01577377319336 6.584447860717773 8.714424133300781 C7.506558895111084 8.954097747802734 8.448171615600586 7.01047420501709 8.831064224243164 9.427656173706055 C8.915637969970703 9.961565971374512 4.9950337409973145 12.567800521850586 8.078519821166992 12.654911994934082 C8.95252799987793 12.679603576660156 9.389766693115234 11.48198127746582 10.140024185180664 11.032967567443848 L10.140024185180664 11.032967567443848 C10.495991706848145 11.269487380981445 11.032496452331543 11.352811813354492 11.207927703857422 11.742527961730957 C11.48342514038086 12.354540824890137 10.558284759521484 14.042552947998047 12.133919715881348 13.993247985839844 C13.896112442016602 13.938105583190918 12.745271682739258 12.611699104309082 13.147607803344727 11.783136367797852 C13.349884033203125 11.366572380065918 13.909080505371094 11.255951881408691 14.289816856384277 10.99236011505127 L14.289816856384277 10.99236011505127 C14.64132022857666 11.267184257507324 15.164504051208496 11.408486366271973 15.344327926635742 11.816832542419434 C15.635470390319824 12.477962493896484 14.537664413452148 13.939031600952148 16.25649642944336 13.939031600952148 C17.92941665649414 13.939031600952148 16.92017936706543 12.524332046508789 17.257007598876953 11.850744247436523 C17.458520889282227 11.447757720947266 17.977872848510742 11.31002426147461 18.33830451965332 11.039664268493652 L18.33830451965332 11.039664268493652 C19.94034767150879 11.007953643798828 21.06922149658203 10.551422119140625 22.204269409179688 11.810135841369629 L21.7642822265625 18.795143127441406 C20.70725440979004 19.698711395263672 19.122886657714844 19.915712356567383 17.471010208129883 19.90702247619629 C15.819132804870605 19.898334503173828 14.09974479675293 19.663951873779297 12.772675514221191 19.66475486755371 C11.459413528442383 19.66554832458496 10.146149635314941 19.666475296020508 8.8328857421875 19.666912078857422 C7.519621849060059 19.667346954345703 6.206357479095459 19.66728973388672 4.893095016479492 19.666114807128906 C4.258290767669678 19.665546417236328 3.4686830043792725 20.07415008544922 2.9886960983276367 19.658710479736328 C1.7359346151351929 18.574419021606445 2.149909257888794 16.90338134765625 2.1131067276000977 15.420063018798828 C2.0714123249053955 13.739579200744629 2.0271215438842773 12.059157371520996 1.9814783334732056 10.378771781921387 C1.9358352422714233 8.698386192321777 1.8888399600982666 7.018035888671875 1.8417367935180664 5.337696552276611 L1.8417367935180664 5.337696552276611 C2.109360456466675 5.016864776611328 2.376983880996704 4.696032524108887 2.6446075439453125 4.3752007484436035 L2.6446075439453125 4.3752007484436035"></path></svg>