<svg xmlns="http://www.w3.org/2000/svg" viewBox="0.0 0.0 24.0 24.0" height="200px" width="200px"><path fill="none" stroke="black" stroke-width=".3" stroke-opacity="1.0"  filling="0" d="M12.0 1.2000007629394531 L12.0 1.2000007629394531 C13.92915153503418 1.374962568283081 15.730920791625977 1.8399447202682495 17.30255889892578 2.69732928276062 C18.874195098876953 3.554713726043701 20.215700149536133 4.804500579833984 21.224321365356445 6.549072265625 C22.575397491455078 8.885973930358887 22.909564971923828 11.470600128173828 22.451732635498047 13.878146171569824 C21.993900299072266 16.285690307617188 20.744068145751953 18.516155242919922 18.927143096923828 20.144731521606445 C17.110218048095703 21.7733097076416 14.726200103759766 22.799999237060547 12.0 22.799999237060547 C9.273799896240234 22.799997329711914 6.8897833824157715 21.773305892944336 5.072857856750488 20.144729614257812 C3.2559328079223633 18.516151428222656 2.0060994625091553 16.285690307617188 1.548266887664795 13.878145217895508 C1.0904343128204346 11.470601081848145 1.4246023893356323 8.885974884033203 2.7756803035736084 6.549072265625 C3.784302234649658 4.804500579833984 5.125805854797363 3.554713726043701 6.697442531585693 2.69732928276062 C8.269078254699707 1.839944839477539 10.070847511291504 1.3749628067016602 12.0 1.2000007629394531 L12.0 1.2000007629394531"></path>
<path fill="none" stroke="black" stroke-width=".3" stroke-opacity="1.0"  filling="0" d="M5.807712554931641 5.7398881912231445 L5.807712554931641 5.7398881912231445 C7.559683322906494 4.322086334228516 8.839436531066895 3.7059452533721924 11.037287712097168 3.2003774642944336 L11.037287712097168 7.398444652557373 L11.037287712097168 11.596511840820312 L8.100875854492188 14.565107345581055 L5.164464473724365 17.533702850341797 C3.8788881301879883 15.489041328430176 3.2754483222961426 13.477067947387695 3.375528335571289 11.50801944732666 C3.4756083488464355 9.538971900939941 4.279208660125732 7.61284875869751 5.807712554931641 5.7398881912231445 L5.807712554931641 5.7398881912231445"></path>
<path fill="none" stroke="black" stroke-width=".3" stroke-opacity="1.0"  filling="0" d="M20.75707244873047 12.000216484069824 L20.75707244873047 12.000216484069824 C20.50084114074707 14.252138137817383 20.040546417236328 15.61687183380127 18.83531951904297 17.533702850341797 L15.899015426635742 14.565216064453125 L12.962712287902832 11.596728324890137 L12.962712287902832 7.398552894592285 L12.962712287902832 3.2003774642944336 C15.328897476196289 3.7447519302368164 17.157468795776367 4.738978862762451 18.454504013061523 6.199978351593018 C19.75153923034668 7.660978317260742 20.51703643798828 9.588750839233398 20.75707244873047 12.000216484069824 L20.75707244873047 12.000216484069824"></path>
<path fill="none" stroke="black" stroke-width=".3" stroke-opacity="1.0"  filling="0" d="M12.962712287902832 14.34986400604248 L17.473440170288086 18.909839630126953 C15.949538230895996 19.927186965942383 14.756797790527344 20.422468185424805 12.962712287902832 20.79962158203125 L12.962712287902832 14.34986400604248"></path>
<path fill="none" stroke="black" stroke-width=".3" stroke-opacity="1.0"  filling="0" d="M11.037287712097168 20.79983901977539 L11.037287712097168 20.79983901977539 C9.243114471435547 20.42268180847168 8.050176620483398 19.927343368530273 6.526128768920898 18.91005516052246 L11.037287712097168 14.350080490112305 L11.037287712097168 20.79983901977539"></path></svg>