<svg xmlns="http://www.w3.org/2000/svg" viewBox="0.0 0.0 24.0 24.0" height="200px" width="200px"><path fill="none" stroke="black" stroke-width=".3" stroke-opacity="1.0"  filling="0" d="M10.133003234863281 2.9623045921325684 L10.133003234863281 2.9623045921325684 C10.304990768432617 2.5467848777770996 10.33103084564209 2.0337915420532227 10.648966789245605 1.7157456874847412 C11.74092960357666 0.6234062910079956 13.657691955566406 1.4184794425964355 13.657691955566406 2.9623043537139893 C13.657691955566406 4.506143569946289 11.740992546081543 5.301345348358154 10.648966789245605 4.208942413330078 C10.33103084564209 3.890896797180176 10.304990768432617 3.3779032230377197 10.133003234863281 2.96238374710083 L10.133003234863281 2.96238374710083"></path>
<path fill="none" stroke="black" stroke-width=".3" stroke-opacity="1.0"  filling="0" d="M13.961387634277344 5.092320442199707 L13.961387634277344 5.092320442199707 C14.47536849975586 5.33225154876709 15.126794815063477 5.38789176940918 15.503331184387207 5.812113285064697 C15.87476921081543 6.230590343475342 15.846681594848633 6.877227306365967 16.018356323242188 7.409784317016602 L16.018356323242188 12.788183212280273 C15.788919448852539 13.052999496459961 15.680428504943848 13.582632064819336 15.330044746398926 13.582632064819336 C14.97920036315918 13.582632064819336 14.869766235351562 13.052999496459961 14.639627456665039 12.788183212280273 L14.639627456665039 7.521888256072998 L14.205900192260742 7.521888256072998 L14.203739166259766 14.666952133178711 L14.201579093933105 21.812015533447266 C13.872395515441895 22.14134407043457 13.679665565490723 22.799999237060547 13.214027404785156 22.799999237060547 C12.748287200927734 22.799999237060547 12.555371284484863 22.14134407043457 12.226043701171875 21.812015533447266 L12.227556228637695 17.66762351989746 L12.2290678024292 13.523231506347656 L11.78907585144043 13.523231506347656 L11.788643836975098 17.66762351989746 L11.788211822509766 21.812015533447266 C11.458740234375 22.14134407043457 11.26563835144043 22.799999237060547 10.799796104431152 22.799999237060547 C10.33405590057373 22.799999237060547 10.14113998413086 22.14134407043457 9.811811447143555 21.812015533447266 L9.812784194946289 14.667167663574219 L9.813755989074707 7.52232027053833 L9.371387481689453 7.52232027053833 L9.371387481689453 12.788183212280273 C9.139763832092285 13.051109313964844 9.026914596557617 13.576961517333984 8.676515579223633 13.576961517333984 C8.326116561889648 13.576961517333984 8.213268280029297 13.051109313964844 7.981644153594971 12.788183212280273 L7.981644153594971 7.377600193023682 C8.163921356201172 6.837744235992432 8.150291442871094 6.184232711791992 8.528474807739258 5.758031845092773 C8.888228416442871 5.35260009765625 9.516944885253906 5.312927722930908 10.01117992401123 5.090375900268555 L10.545995712280273 5.090591907501221 C10.708587646484375 5.940247058868408 11.024168968200684 6.929161548614502 11.759699821472168 7.384512424468994 L11.759699821472168 9.9147367477417 C10.82928466796875 11.328323364257812 13.17086410522461 11.318204879760742 12.240300178527832 9.907608032226562 L12.240300178527832 7.3758721351623535 C12.973849296569824 6.923002243041992 13.290595054626465 5.9385576248168945 13.45400333404541 5.092104434967041 L13.961387634277344 5.092320442199707"></path>
<path fill="none" stroke="black" stroke-width=".3" stroke-opacity="1.0"  filling="0" d="M11.999460220336914 6.919464111328125 L11.999460220336914 6.919464111328125 C11.369133949279785 6.640661239624023 11.151647567749023 5.76999044418335 11.034372329711914 5.090808391571045 L12.96519660949707 5.091671943664551 C12.847890853881836 5.770692825317383 12.629776954650879 6.641019344329834 11.999460220336914 6.919464111328125 L11.999460220336914 6.919464111328125"></path></svg>