<svg xmlns="http://www.w3.org/2000/svg" viewBox="0.0 0.0 24.0 24.0" height="200px" width="200px"><path fill="none" stroke="black" stroke-width=".3" stroke-opacity="1.0"  filling="0" d="M12.131796836853027 2.4376726150512695 L12.131796836853027 2.4376726150512695 C12.505231857299805 2.506558656692505 12.981979370117188 2.3843066692352295 13.250504493713379 2.65280818939209 L13.250504493713379 2.65280818939209 C13.254090309143066 2.65280818939209 13.257675170898438 2.65280818939209 13.261260986328125 2.65280818939209 L13.261260986328125 2.65280818939209 C13.268431663513184 2.6599795818328857 13.275603294372559 2.6671509742736816 13.282773971557617 2.6743221282958984 L13.304287910461426 2.706592559814453 C13.304287910461426 2.713763475418091 13.304287910461426 2.7209346294403076 13.304287910461426 2.7281055450439453 L13.282773971557617 4.535248756408691 C13.282773971557617 4.542419910430908 13.282773971557617 4.549590587615967 13.282773971557617 4.556761741638184 L13.282773971557617 4.556761741638184 C13.27918815612793 4.560347557067871 13.275602340698242 4.5639328956604 13.272016525268555 4.567518711090088 L13.142935752868652 4.632059574127197 C13.193134307861328 4.897394180297852 13.243332862854004 5.162728309631348 13.29353141784668 5.428062915802002 L13.29353141784668 5.428062915802002 C13.297117233276367 5.428062915802002 13.300703048706055 5.428062915802002 13.304288864135742 5.428062915802002 L13.304288864135742 5.428062915802002 C13.456088066101074 6.305126190185547 13.482707977294922 7.207676887512207 13.422613143920898 8.095748901367188 L13.422613143920898 8.095748901367188 C13.634255409240723 8.229418754577637 13.739786148071289 8.3062744140625 13.551694869995117 8.515263557434082 L13.551694869995117 8.515263557434082 C14.01815414428711 9.044548988342285 15.111430168151855 9.240421295166016 15.111430168151855 9.945919036865234 L15.143699645996094 11.043111801147461 C15.143699645996094 11.078585624694824 15.124417304992676 11.094663619995117 15.100672721862793 11.118410110473633 L15.143699645996094 15.243642807006836 L15.186727523803711 19.36887550354004 C16.510997772216797 21.35525131225586 13.724672317504883 21.239116668701172 13.015803337097168 21.25733184814453 C12.009529113769531 21.28318977355957 7.688319206237793 22.03839874267578 9.02308177947998 19.368873596191406 L9.071487426757812 15.24364185333252 L9.119893074035645 11.118410110473633 C9.08398151397705 11.100452423095703 9.076866149902344 11.079937934875488 9.076866149902344 11.043111801147461 L9.098379135131836 9.945919036865234 C9.098379135131836 9.2404203414917 10.191655158996582 9.044548988342285 10.65811538696289 8.515263557434082 L10.65811538696289 8.515263557434082 C10.469367980957031 8.305546760559082 10.594986915588379 8.22386360168457 10.797954559326172 8.084991455078125 L10.797954559326172 8.084991455078125 C10.758512496948242 7.697747230529785 10.719070434570312 7.310502529144287 10.679628372192383 6.923258304595947 L10.690384864807129 6.729635238647461 C10.690384864807129 6.726049900054932 10.690384864807129 6.722464561462402 10.690384864807129 6.718879222869873 L10.701142311096191 6.643580913543701 C10.822699546813965 5.974994659423828 10.965875625610352 5.302547454833984 11.077630996704102 4.632059574127197 L11.00233268737793 4.621302604675293 C10.963397026062012 4.601834774017334 10.927034378051758 4.585507392883301 10.927034378051758 4.535248756408691 L10.916278839111328 2.7281055450439453 C10.916278839111328 2.710177421569824 10.916278839111328 2.6922502517700195 10.916278839111328 2.6743221282958984 L10.948548316955566 2.6635656356811523 C11.232479095458984 2.379634380340576 11.736251831054688 2.5067970752716064 12.131796836853027 2.4376726150512695 L12.131796836853027 2.4376726150512695"></path>
<path fill="none" stroke="black" stroke-width=".3" stroke-opacity="1.0"  filling="0" d="M13.390342712402344 7.095366954803467 L13.390342712402344 7.095366954803467 C13.177591323852539 8.633726119995117 13.390886306762695 8.89046573638916 14.939321517944336 9.988945960998535 L14.896294593811035 11.032355308532715 C14.872549057006836 11.056098937988281 14.853265762329102 11.072182655334473 14.853265762329102 11.107651710510254 L14.853265762329102 11.333545684814453 L9.356542587280273 11.355059623718262 L9.356542587280273 11.10765266418457 C9.356542587280273 11.067997932434082 9.347883224487305 11.049539566040039 9.313514709472656 11.032355308532715 L9.270487785339355 9.988945960998535 C10.7831449508667 8.922408103942871 11.043903350830078 8.634757041931152 10.83022403717041 7.106123924255371 L13.390342712402344 7.095366954803467"></path>
<path fill="none" stroke="black" stroke-width=".3" stroke-opacity="1.0"  filling="0" d="M14.853265762329102 18.82027816772461 L14.853265762329102 19.196765899658203 C14.853265762329102 19.218374252319336 14.859732627868652 19.235504150390625 14.874780654907227 19.250551223754883 L15.036131858825684 19.45492935180664 C15.039507865905762 19.795881271362305 15.219949722290039 20.68618392944336 14.831753730773926 21.014667510986328 C14.367956161499023 21.407123565673828 13.61777400970459 21.069015502929688 13.01041030883789 21.084428787231445 C12.40836238861084 21.099706649780273 11.805949211120605 21.118091583251953 11.203819274902344 21.10645866394043 C10.54857349395752 21.093799591064453 9.53126049041748 21.487796783447266 9.248974800109863 20.896339416503906 C9.075048446655273 20.53192138671875 9.171688079833984 19.664594650268555 9.173677444458008 19.465686798095703 L9.345785140991211 19.250551223754883 C9.356375694274902 19.2293701171875 9.356542587280273 19.21961212158203 9.356542587280273 19.196765899658203 L9.356542587280273 18.89557647705078 L14.853265762329102 18.82027816772461"></path></svg>