<svg xmlns="http://www.w3.org/2000/svg" viewBox="0.0 0.0 24.0 24.0" height="200px" width="200px"><path fill="none" stroke="black" stroke-width=".3" stroke-opacity="1.0"  filling="0" d="M12.013715744018555 12.432945251464844 L7.351679801940918 12.43283748626709 C7.018992900848389 11.669999122619629 6.6478776931762695 10.922754287719727 6.240360260009766 10.197129249572754 L6.236445426940918 10.218107223510742 C3.095959186553955 10.490288734436035 5.977072238922119 5.541481018066406 7.13435697555542 9.018579483032227 C7.2487921714782715 9.362403869628906 6.809330940246582 9.666345596313477 6.646818161010742 9.990228652954102 L6.646818161010742 9.990228652954102 C9.217517852783203 10.934893608093262 9.821676254272461 11.075606346130371 11.532035827636719 8.931747436523438 L11.532035827636719 8.931747436523438 C11.284751892089844 8.559354782104492 10.701974868774414 8.25279712677002 10.790184020996094 7.814568042755127 C10.902923583984375 7.2544708251953125 11.597448348999023 7.005864143371582 12.001080513000488 6.6015119552612305 L12.009611129760742 6.6015119552612305 C12.414143562316895 7.005864143371582 13.109649658203125 7.253986835479736 13.223207473754883 7.814568042755127 C13.311897277832031 8.252387046813965 12.728693962097168 8.5586519241333 12.481437683105469 8.930693626403809 L12.481437683105469 8.930693626403809 C14.191606521606445 11.074825286865234 14.795714378356934 10.934377670288086 17.366573333740234 9.989823341369629 L17.366573333740234 9.989823341369629 C17.20406150817871 9.666021347045898 16.76460838317871 9.362167358398438 16.87903594970703 9.018417358398438 C18.03618621826172 5.54224157333374 20.917720794677734 10.489398002624512 17.777109146118164 10.218215942382812 L17.773029327392578 10.197210311889648 C17.36553955078125 10.922845840454102 16.99445152282715 11.670099258422852 16.661792755126953 12.432945251464844 L11.994465827941895 12.432998657226562"></path>
<path fill="none" stroke="black" stroke-width=".3" stroke-opacity="1.0"  filling="0" d="M7.702599048614502 13.52998161315918 L7.702599048614502 13.52998161315918"></path>
<path fill="none" stroke="black" stroke-width=".3" stroke-opacity="1.0"  filling="0" d="M12.013715744018555 13.52998161315918 L16.30523109436035 13.52998161315918 C16.037607192993164 14.843286514282227 15.843768119812012 16.052793502807617 15.873311996459961 17.398460388183594 L12.006696701049805 17.398460388183594 L8.140080451965332 17.398460388183594 C8.1694917678833 16.05284309387207 7.9757208824157715 14.84326171875 7.708188533782959 13.52998161315918 L12.013715744018555 13.52998161315918"></path>
<path fill="none" stroke="black" stroke-width=".3" stroke-opacity="1.0"  filling="0" d="M16.30531120300293 13.52998161315918 L16.30523109436035 13.52998161315918"></path>
<path fill="none" stroke="black" stroke-width=".3" stroke-opacity="1.0"  filling="0" d="M9.357780456542969 16.149145126342773 L8.663366317749023 15.454622268676758 L9.357780456542969 14.760263442993164 L10.052193641662598 15.454622268676758 L9.357780456542969 16.149145126342773"></path>
<path fill="none" stroke="black" stroke-width=".3" stroke-opacity="1.0"  filling="0" d="M14.655611991882324 16.149145126342773 L13.96130657196045 15.454622268676758 L14.655611991882324 14.760263442993164 L15.350051879882812 15.454622268676758 L14.655611991882324 16.149145126342773"></path>
<path fill="none" stroke="black" stroke-width=".3" stroke-opacity="1.0"  filling="0" d="M12.009180068969727 16.609466552734375 L10.869780540466309 15.471038818359375 L12.009180068969727 14.332503318786621 L13.143503189086914 15.471038818359375 L12.009180068969727 16.609466552734375"></path></svg>