<svg xmlns="http://www.w3.org/2000/svg" viewBox="0.0 0.0 24.0 24.0" height="200px" width="200px"><path fill="none" stroke="black" stroke-width=".3" stroke-opacity="1.0"  filling="0" d="M6.946680068969727 8.662153244018555 L12.164807319641113 8.662153244018555 L17.3829345703125 8.662153244018555 C17.42375946044922 8.67237663269043 17.464582443237305 8.682600021362305 17.505407333374023 8.69282341003418 L14.859407424926758 11.417123794555664 L12.213407516479492 14.141424179077148 L9.58004379272461 11.401788711547852 L6.946680068969727 8.662153244018555"></path>
<path fill="none" stroke="black" stroke-width=".3" stroke-opacity="1.0"  filling="0" d="M10.960607528686523 9.50368881225586 L10.960607528686523 9.50368881225586 C11.426735877990723 9.326208114624023 11.861276626586914 9.0037202835083 12.358991622924805 8.971247673034668 C14.240466117858887 8.848493576049805 14.333571434020996 10.875051498413086 13.031399726867676 11.59391975402832 L13.054943084716797 11.88681697845459 C13.186775207519531 11.812512397766113 13.318607330322266 11.738208770751953 13.450439453125 11.663904190063477 L13.704239845275879 11.92915153503418 C12.583868026733398 12.538798332214355 10.351412773132324 12.689425468444824 10.438536643981934 10.731647491455078 C10.4583101272583 10.287309646606445 10.78658390045166 9.913008689880371 10.960607528686523 9.50368881225586 L10.960607528686523 9.50368881225586"></path>
<path fill="none" stroke="black" stroke-width=".3" stroke-opacity="1.0"  filling="0" d="M12.084455490112305 11.20101547241211 L12.084455490112305 11.20101547241211 C11.021876335144043 10.69873046875 13.276625633239746 9.373388290405273 12.429840087890625 10.87226390838623 C12.351658821105957 11.010650634765625 12.199584007263184 11.091431617736816 12.084455490112305 11.20101547241211 L12.084455490112305 11.20101547241211"></path>
<path fill="none" stroke="black" stroke-width=".3" stroke-opacity="1.0"  filling="0" d="M12.302183151245117 12.034775733947754 L12.302183151245117 12.034775733947754 C11.442706108093262 11.760406494140625 10.03052806854248 10.884544372558594 11.241840362548828 9.796584129333496 C12.042957305908203 9.077048301696777 13.34095287322998 9.186810493469238 13.589111328125 10.338959693908691 C13.711504936218262 10.907207489013672 12.765484809875488 11.573546409606934 12.980640411376953 10.792344093322754 L13.271808624267578 9.806304931640625 L12.730511665344238 9.998329162597656 C11.354272842407227 8.14084243774414 10.870803833007812 13.202910423278809 12.535896301269531 11.27337646484375 L12.535896301269531 11.27337646484375 C12.655874252319336 11.487425804138184 12.734821319580078 11.602507591247559 13.0316162109375 11.59391975402832 L13.055159568786621 11.88681697845459 C12.804167747497559 11.936136245727539 12.55317497253418 11.985456466674805 12.302183151245117 12.034775733947754 L12.302183151245117 12.034775733947754"></path>
<path fill="none" stroke="black" stroke-width=".3" stroke-opacity="1.0"  filling="0" d="M9.751224517822266 12.395064353942871 L6.7900800704956055 15.374567985534668 C6.751704216003418 15.303288459777832 6.713327884674072 15.23200798034668 6.674952030181885 15.160728454589844 L6.674952030181885 9.148799896240234 L9.751224517822266 12.395064353942871"></path>
<path fill="none" stroke="black" stroke-width=".3" stroke-opacity="1.0"  filling="0" d="M17.640838623046875 15.160512924194336 L17.640838623046875 15.160512924194336 C17.5877742767334 15.24000072479248 17.534711837768555 15.319487571716309 17.481647491455078 15.398975372314453 L14.51531982421875 12.493559837341309 L17.641056060791016 9.303671836853027 L17.640838623046875 15.160512924194336"></path>
<path fill="none" stroke="black" stroke-width=".3" stroke-opacity="1.0"  filling="0" d="M16.799304962158203 15.418632507324219 L12.120096206665039 15.418632507324219 L7.440887928009033 15.418632507324219 L10.090127944946289 12.75211238861084 L12.103464126586914 14.874960899353027 L14.172527313232422 12.842832565307617 L16.799304962158203 15.418632507324219"></path></svg>