<svg xmlns="http://www.w3.org/2000/svg" viewBox="0.0 0.0 24.0 24.0" height="200px" width="200px"><path fill="none" stroke="black" stroke-width=".3" stroke-opacity="1.0"  filling="0" d="M16.072463989257812 8.448312759399414 L16.072463989257812 12.583955764770508 L16.072463989257812 16.7195987701416 C15.818448066711426 16.969223022460938 15.564431190490723 17.218847274780273 15.310415267944336 17.46847152709961 L11.320032119750977 17.46847152709961 C11.06752872467041 17.218847274780273 10.815024375915527 16.969223022460938 10.562520980834961 16.7195987701416 L10.562520980834961 12.583955764770508 L10.562520980834961 8.448312759399414 C10.815024375915527 8.199984550476074 11.06752872467041 7.951656341552734 11.320032119750977 7.7033281326293945 L11.328023910522461 5.903183937072754 C11.674105644226074 5.728752613067627 11.859188079833984 5.57672643661499 12.130248069763184 5.903183937072754 L12.130248069763184 7.7033281326293945 L15.310632705688477 7.7033281326293945 C15.564576148986816 7.951656341552734 15.818520545959473 8.199984550476074 16.072463989257812 8.448312759399414 L16.072463989257812 8.448312759399414"></path>
<path fill="none" stroke="black" stroke-width=".3" stroke-opacity="1.0"  filling="0" d="M15.237192153930664 9.144912719726562 L15.237192153930664 10.606800079345703 C15.020040512084961 10.834896087646484 14.802887916564941 11.06299114227295 14.585736274719238 11.29108715057373 L11.881416320800781 11.29108715057373 C11.664192199707031 11.06299114227295 11.446967124938965 10.834896087646484 11.229743003845215 10.606800079345703 L11.229743003845215 9.144912719726562 C11.446967124938965 8.915520668029785 11.664192199707031 8.686127662658691 11.881416320800781 8.456735610961914 L14.585736274719238 8.456735610961914 C14.802887916564941 8.686127662658691 15.020040512084961 8.915520668029785 15.237192153930664 9.144912719726562 L15.237192153930664 9.144912719726562"></path>
<path fill="none" stroke="black" stroke-width=".3" stroke-opacity="1.0"  filling="0" d="M12.50500774383545 12.207143783569336 L12.50500774383545 12.87112808227539 C12.479087829589844 12.896832466125488 12.453167915344238 12.92253589630127 12.427248001098633 12.948240280151367 L11.763912200927734 12.948240280151367 C11.738136291503906 12.92253589630127 11.712360382080078 12.896832466125488 11.68658447265625 12.87112808227539 L11.68658447265625 12.207143783569336 C11.712360382080078 12.181440353393555 11.738136291503906 12.155735969543457 11.763912200927734 12.130032539367676 L12.427248001098633 12.130032539367676 C12.453167915344238 12.155735969543457 12.479087829589844 12.181440353393555 12.50500774383545 12.207143783569336 L12.50500774383545 12.207143783569336"></path>
<path fill="none" stroke="black" stroke-width=".3" stroke-opacity="1.0"  filling="0" d="M14.207304000854492 12.207143783569336 L14.207304000854492 12.207143783569336 C14.23300838470459 12.181440353393555 14.258711814880371 12.155735969543457 14.284416198730469 12.130032539367676 L14.952503204345703 12.130032539367676 C14.9782075881958 12.155735969543457 15.003911972045898 12.181440353393555 15.029616355895996 12.207143783569336 L15.029616355895996 12.87112808227539 C15.003911972045898 12.896832466125488 14.9782075881958 12.92253589630127 14.952503204345703 12.948240280151367 L14.284416198730469 12.948240280151367 C14.258711814880371 12.92253589630127 14.23300838470459 12.896832466125488 14.207304000854492 12.87112808227539 L14.207304000854492 12.207143783569336"></path>
<path fill="none" stroke="black" stroke-width=".3" stroke-opacity="1.0"  filling="0" d="M13.026000022888184 12.948455810546875 L13.026000022888184 12.948455810546875 C13.000296592712402 12.922751426696777 12.974592208862305 12.897047996520996 12.948888778686523 12.871343612670898 L12.948888778686523 12.20736026763916 C12.974592208862305 12.181655883789062 13.000296592712402 12.155952453613281 13.026000022888184 12.130248069763184 L13.68976879119873 12.130248069763184 C13.715616226196289 12.155952453613281 13.741464614868164 12.181655883789062 13.767312049865723 12.20736026763916 L13.767312049865723 12.871343612670898 C13.741464614868164 12.897047996520996 13.715616226196289 12.922751426696777 13.68976879119873 12.948455810546875 L13.026000022888184 12.948455810546875"></path>
<path fill="none" stroke="black" stroke-width=".3" stroke-opacity="1.0"  filling="0" d="M13.76752758026123 13.409183502197266 L13.767312049865723 14.072304725646973 C13.741464614868164 14.098152160644531 13.715616226196289 14.12399959564209 13.68976879119873 14.149847030639648 L13.026000022888184 14.149847030639648 C13.000296592712402 14.12399959564209 12.974592208862305 14.098152160644531 12.948888778686523 14.072304725646973 L12.948888778686523 13.409183502197266 C12.974592208862305 13.383191108703613 13.000296592712402 13.357199668884277 13.026000022888184 13.331207275390625 L13.689983367919922 13.331207275390625 C13.715831756591797 13.357199668884277 13.741679191589355 13.383191108703613 13.76752758026123 13.409183502197266 L13.76752758026123 13.409183502197266"></path>
<path fill="none" stroke="black" stroke-width=".3" stroke-opacity="1.0"  filling="0" d="M12.427248001098633 14.150063514709473 L11.763912200927734 14.150063514709473 C11.738136291503906 14.124216079711914 11.712360382080078 14.098367691040039 11.68658447265625 14.07252025604248 L11.68658447265625 13.40939998626709 C11.712360382080078 13.383408546447754 11.738136291503906 13.357416152954102 11.763912200927734 13.331424713134766 L12.427248001098633 13.331424713134766 C12.453167915344238 13.357416152954102 12.479087829589844 13.383408546447754 12.50500774383545 13.40939998626709 L12.50500774383545 14.07252025604248 C12.479087829589844 14.098367691040039 12.453167915344238 14.124216079711914 12.427248001098633 14.150063514709473 L12.427248001098633 14.150063514709473"></path>
<path fill="none" stroke="black" stroke-width=".3" stroke-opacity="1.0"  filling="0" d="M14.284416198730469 14.150063514709473 L14.284416198730469 14.150063514709473 C14.258711814880371 14.124216079711914 14.23300838470459 14.098367691040039 14.207304000854492 14.07252025604248 L14.207304000854492 13.40939998626709 C14.23300838470459 13.383408546447754 14.258711814880371 13.357416152954102 14.284416198730469 13.331424713134766 L14.952503204345703 13.331424713134766 C14.9782075881958 13.357416152954102 15.003911972045898 13.383408546447754 15.029616355895996 13.40939998626709 L15.029616355895996 14.07252025604248 C15.003911972045898 14.098367691040039 14.9782075881958 14.124216079711914 14.952503204345703 14.150063514709473 L14.284416198730469 14.150063514709473"></path>
<path fill="none" stroke="black" stroke-width=".3" stroke-opacity="1.0"  filling="0" d="M11.763694763183594 14.528928756713867 L12.427032470703125 14.528928756713867 C12.45295238494873 14.554632186889648 12.478872299194336 14.58033561706543 12.504792213439941 14.606039047241211 L12.504792213439941 15.26959228515625 C12.478872299194336 15.295439720153809 12.45295238494873 15.321288108825684 12.427032470703125 15.347135543823242 L11.763694763183594 15.347135543823242 C11.737918853759766 15.321288108825684 11.712143898010254 15.295439720153809 11.686367988586426 15.26959228515625 L11.686367988586426 14.606039047241211 C11.712143898010254 14.58033561706543 11.737918853759766 14.554632186889648 11.763694763183594 14.528928756713867 L11.763694763183594 14.528928756713867"></path>
<path fill="none" stroke="black" stroke-width=".3" stroke-opacity="1.0"  filling="0" d="M12.948888778686523 14.606039047241211 L12.948888778686523 14.606039047241211 C12.974592208862305 14.58033561706543 13.000296592712402 14.554632186889648 13.026000022888184 14.528928756713867 L13.68976879119873 14.528928756713867 C13.715616226196289 14.554632186889648 13.741464614868164 14.58033561706543 13.767312049865723 14.606039047241211 L13.767312049865723 15.26959228515625 C13.741464614868164 15.295439720153809 13.715616226196289 15.321288108825684 13.68976879119873 15.347135543823242 L13.026000022888184 15.347135543823242 C13.000296592712402 15.321288108825684 12.974592208862305 15.295439720153809 12.948888778686523 15.26959228515625 L12.948888778686523 14.606039047241211"></path>
<path fill="none" stroke="black" stroke-width=".3" stroke-opacity="1.0"  filling="0" d="M14.952503204345703 15.347352027893066 L14.284416198730469 15.347352027893066 C14.258711814880371 15.321503639221191 14.23300838470459 15.295656204223633 14.207304000854492 15.269807815551758 L14.207304000854492 14.606256484985352 C14.23300838470459 14.580552101135254 14.258711814880371 14.554847717285156 14.284416198730469 14.529143333435059 L14.952503204345703 14.529143333435059 C14.9782075881958 14.554847717285156 15.003911972045898 14.580552101135254 15.029616355895996 14.606256484985352 L15.029616355895996 15.269807815551758 C15.003911972045898 15.295656204223633 14.9782075881958 15.321503639221191 14.952503204345703 15.347352027893066 L14.952503204345703 15.347352027893066"></path>
<path fill="none" stroke="black" stroke-width=".3" stroke-opacity="1.0"  filling="0" d="M15.029616355895996 15.802896499633789 L15.029616355895996 16.46687889099121 C15.003911972045898 16.492584228515625 14.9782075881958 16.518287658691406 14.952503204345703 16.54399299621582 L14.284416198730469 16.54399299621582 C14.258711814880371 16.518287658691406 14.23300838470459 16.492584228515625 14.207304000854492 16.46687889099121 L14.207304000854492 15.802896499633789 C14.23300838470459 15.777192115783691 14.258711814880371 15.751487731933594 14.284416198730469 15.725783348083496 L14.952503204345703 15.725783348083496 C14.9782075881958 15.751487731933594 15.003911972045898 15.777192115783691 15.029616355895996 15.802896499633789 L15.029616355895996 15.802896499633789"></path>
<path fill="none" stroke="black" stroke-width=".3" stroke-opacity="1.0"  filling="0" d="M12.948888778686523 16.46687889099121 L12.948888778686523 15.802896499633789 C12.974592208862305 15.777192115783691 13.000296592712402 15.751487731933594 13.026000022888184 15.725783348083496 L13.68976879119873 15.725783348083496 C13.715616226196289 15.751487731933594 13.741464614868164 15.777192115783691 13.767312049865723 15.802896499633789 L13.767312049865723 16.46687889099121 C13.741464614868164 16.492584228515625 13.715616226196289 16.518287658691406 13.68976879119873 16.54399299621582 L13.026000022888184 16.54399299621582 C13.000296592712402 16.518287658691406 12.974592208862305 16.492584228515625 12.948888778686523 16.46687889099121 L12.948888778686523 16.46687889099121"></path>
<path fill="none" stroke="black" stroke-width=".3" stroke-opacity="1.0"  filling="0" d="M12.427248001098633 16.544208526611328 L11.763912200927734 16.544208526611328 C11.738136291503906 16.518505096435547 11.712360382080078 16.492799758911133 11.68658447265625 16.46709632873535 L11.68658447265625 15.803112983703613 C11.712360382080078 15.777408599853516 11.738136291503906 15.751704216003418 11.763912200927734 15.72599983215332 L12.427248001098633 15.72599983215332 C12.453167915344238 15.751704216003418 12.479087829589844 15.777408599853516 12.50500774383545 15.803112983703613 L12.50500774383545 16.46709632873535 C12.479087829589844 16.492799758911133 12.453167915344238 16.518505096435547 12.427248001098633 16.544208526611328 L12.427248001098633 16.544208526611328"></path></svg>