<svg xmlns="http://www.w3.org/2000/svg" viewBox="0.0 0.0 24.0 24.0" height="200px" width="200px"><path fill="none" stroke="black" stroke-width=".3" stroke-opacity="1.0"  filling="0" d="M11.500176429748535 12.17474365234375 L11.58463191986084 12.17474365234375 C11.175553321838379 11.812301635742188 11.027534484863281 11.690881729125977 10.677297592163086 10.880714416503906 C10.47462272644043 10.411887168884277 10.282647132873535 9.894118309020996 10.338312149047852 9.38640022277832 C10.548583030700684 7.468521595001221 11.919109344482422 6.994875907897949 13.0337553024292 7.4306769371032715 C14.148401260375977 7.866477966308594 15.007165908813477 9.211727142333984 14.193912506103516 10.931636810302734 C13.980772972106934 11.382394790649414 13.597896575927734 11.7311429977417 13.299888610839844 12.130895614624023 L13.299888610839844 12.130895614624023 C14.503998756408691 13.17296028137207 16.38861656188965 12.93867015838623 17.272991180419922 14.450411796569824 C17.50776481628418 14.85173225402832 17.316621780395508 15.379283905029297 17.338438034057617 15.843719482421875 L12.475090980529785 15.843719482421875 L7.611744403839111 15.843719482421875 C7.610790252685547 15.379283905029297 7.390952110290527 14.860543251037598 7.608882427215576 14.450411796569824 C8.406388282775879 12.949554443359375 10.30985164642334 13.126182556152344 11.500176429748535 12.17474365234375 L11.500176429748535 12.17474365234375"></path>
<path fill="none" stroke="black" stroke-width=".3" stroke-opacity="1.0"  filling="0" d="M11.58463191986084 12.17474365234375 L11.500176429748535 12.17474365234375 C11.506152153015137 12.155159950256348 11.512128829956055 12.135575294494629 11.518104553222656 12.115991592407227 L11.518104553222656 12.115991592407227 C11.54028034210205 12.135575294494629 11.562456130981445 12.155159950256348 11.58463191986084 12.17474365234375 L11.58463191986084 12.17474365234375"></path></svg>