<svg xmlns="http://www.w3.org/2000/svg" viewBox="0.0 0.0 24.0 24.0" height="200px" width="200px"><path fill="none" stroke="black" stroke-width=".3" stroke-opacity="1.0"  filling="0" d="M12.076032638549805 6.76092004776001 L12.076032638549805 6.76092004776001 C10.156970977783203 7.53371524810791 12.892106056213379 4.838019371032715 12.076032638549805 6.76092004776001 L12.076032638549805 6.76092004776001"></path>
<path fill="none" stroke="black" stroke-width=".3" stroke-opacity="1.0"  filling="0" d="M14.029319763183594 7.586904048919678 L14.029319763183594 7.586904048919678 C14.044943809509277 7.759200096130371 14.060567855834961 7.9314961433410645 14.076191902160645 8.103792190551758 L14.076191902160645 8.103792190551758 C13.399428367614746 8.081389427185059 12.722060203552246 8.081465721130371 12.044927597045898 8.080032348632812 L11.469503402709961 8.080032348632812 C10.818551063537598 8.087952613830566 10.16759967803955 8.095871925354004 9.516647338867188 8.103792190551758 L9.516647338867188 8.103792190551758 C9.562171936035156 7.505244255065918 9.558128356933594 7.000007152557373 10.182144165039062 6.776688575744629 L10.73791217803955 6.69050407409668 C11.077247619628906 6.304440021514893 11.241921424865723 5.532312393188477 11.755919456481934 5.532312393188477 C12.270679473876953 5.532312393188477 12.436895370483398 6.304440021514893 12.777383804321289 6.69050407409668 L13.340928077697754 6.776688575744629 C13.830827713012695 6.914775848388672 13.88723087310791 7.1086883544921875 14.029319763183594 7.586904048919678 L14.029319763183594 7.586904048919678"></path>
<path fill="none" stroke="black" stroke-width=".3" stroke-opacity="1.0"  filling="0" d="M16.287599563598633 7.782815933227539 L16.287599563598633 12.51861572265625 L16.287599563598633 17.25441551208496 C15.920975685119629 17.593679428100586 15.554352760314941 17.93294334411621 15.187728881835938 18.272207260131836 L8.545727729797363 18.272207260131836 C8.177879333496094 17.93294334411621 7.810031890869141 17.593679428100586 7.442183971405029 17.25441551208496 L7.442183971405029 12.51861572265625 L7.442183971405029 7.782815933227539 C7.810031890869141 7.442255973815918 8.177879333496094 7.101696491241455 8.545727729797363 6.761136531829834 L9.669143676757812 6.761136531829834 C9.35793399810791 6.965569972991943 9.281637191772461 7.247903347015381 9.195240020751953 7.587120056152344 L8.45155143737793 7.587120056152344 C8.328935623168945 7.68223237991333 8.206319808959961 7.777344226837158 8.083703994750977 7.8724565505981445 L8.083703994750977 12.60836410522461 L8.083703994750977 17.34427261352539 C8.206319808959961 17.439456939697266 8.328935623168945 17.534639358520508 8.45155143737793 17.629823684692383 L15.09743881225586 17.629823684692383 C15.218975067138672 17.534639358520508 15.340511322021484 17.439456939697266 15.462047576904297 17.34427261352539 L15.462047576904297 12.60836410522461 L15.462047576904297 7.8724565505981445 C15.340511322021484 7.777344226837158 15.218975067138672 7.68223237991333 15.09743881225586 7.587120056152344 L14.30731201171875 7.587120056152344 C14.194177627563477 7.219915866851807 14.118799209594727 6.95395040512085 13.775087356567383 6.761136531829834 L15.187944412231445 6.761136531829834 C15.554495811462402 7.101696491241455 15.921048164367676 7.442255973815918 16.287599563598633 7.782815933227539 L16.287599563598633 7.782815933227539"></path>
<path fill="none" stroke="black" stroke-width=".3" stroke-opacity="1.0"  filling="0" d="M14.162158966064453 9.888383865356445 L13.896479606628418 9.673248291015625 C13.854576110839844 9.567480087280273 13.81267261505127 9.461711883544922 13.770769119262695 9.35594367980957 L13.90835952758789 9.1876802444458 C14.020463943481445 9.205967903137207 14.132567405700684 9.22425651550293 14.244671821594238 9.242544174194336 L14.863080024719238 9.739775657653809 C14.92170524597168 9.83708667755127 15.024104118347168 9.948740005493164 14.988574981689453 10.056647300720215 L14.850983619689941 10.228799819946289 C14.738879203796387 10.210512161254883 14.626775741577148 10.192224502563477 14.514671325683594 10.17393684387207 L14.162158966064453 9.888383865356445"></path>
<path fill="none" stroke="black" stroke-width=".3" stroke-opacity="1.0"  filling="0" d="M14.299535751342773 10.271568298339844 L14.483136177062988 10.420608520507812 C14.500127792358398 10.490952491760254 14.517119407653809 10.561295509338379 14.534111022949219 10.63163948059082 L14.197367668151855 11.050463676452637 L14.299535751342773 11.441856384277344 L13.884383201599121 11.441856384277344 L13.281527519226074 12.189432144165039 L14.299535751342773 12.189432144165039 L14.299535751342773 12.58082389831543 L12.964655876159668 12.58082389831543 L11.430191040039062 14.490912437438965 C11.357039451599121 14.488320350646973 11.28388786315918 14.48572826385498 11.210736274719238 14.483136177062988 L10.388855934143066 13.82174301147461 C10.371864318847656 13.751255989074707 10.35487174987793 13.680768013000488 10.33788013458252 13.610280990600586 L11.167752265930176 12.58082389831543 L9.007535934448242 12.58082389831543 L9.007535934448242 12.189432144165039 L11.480951309204102 12.189432144165039 L12.083808898925781 11.441856384277344 L9.007535934448242 11.441856384277344 L9.007535934448242 11.050463676452637 L12.400679588317871 11.050463676452637 L13.019087791442871 10.279776573181152 L9.007535934448242 10.279776573181152 L9.007535934448242 9.888383865356445 L13.445688247680664 9.751224517822266 C13.517399787902832 9.753888130187988 13.589112281799316 9.756551742553711 13.660823822021484 9.759215354919434 L14.299535751342773 9.998111724853516 L14.299535751342773 10.271568298339844"></path>
<path fill="none" stroke="black" stroke-width=".3" stroke-opacity="1.0"  filling="0" d="M11.13686466217041 14.784671783447266 L9.813432693481445 15.379536628723145 L10.111295700073242 13.95479965209961 L11.13686466217041 14.784671783447266"></path>
<path fill="none" stroke="black" stroke-width=".3" stroke-opacity="1.0"  filling="0" d="M14.299535751342773 15.571126937866211 L14.299535751342773 15.962736129760742 L9.007535934448242 15.962736129760742 L9.007535934448242 15.571126937866211 L14.299535751342773 15.571126937866211"></path></svg>