<svg xmlns="http://www.w3.org/2000/svg" viewBox="0.0 0.0 24.0 24.0" height="200px" width="200px"><path fill="none" stroke="black" stroke-width=".3" stroke-opacity="1.0"  filling="0" d="M19.949989318847656 2.9999284744262695 L15.149819374084473 2.9999284744262695 L15.671892166137695 2.042616844177246 L15.29994010925293 1.2000007629394531 L19.949989318847656 2.100071907043457 L19.949989318847656 2.9999284744262695"></path>
<path fill="none" stroke="black" stroke-width=".3" stroke-opacity="1.0"  filling="0" d="M15.757643699645996 3.5999765396118164 L19.64240264892578 3.5999765396118164 C19.778949737548828 6.307258605957031 15.621110916137695 6.307315826416016 15.757643699645996 3.5999765396118164 L15.757643699645996 3.5999765396118164"></path>
<path fill="none" stroke="black" stroke-width=".3" stroke-opacity="1.0"  filling="0" d="M3.149940252304077 4.349919319152832 L3.149940252304077 4.349919319152832 C3.3402462005615234 3.890143632888794 3.3690590858459473 3.322512149810791 3.720857858657837 2.9705920219421387 C4.929123878479004 1.7619088888168335 7.05003547668457 2.641665458679199 7.05003547668457 4.349919319152832 C7.05003547668457 6.058176517486572 4.929137229919434 6.937960624694824 3.720857620239258 5.729263782501221 C3.3690590858459473 5.377343654632568 3.3402459621429443 4.8097124099731445 3.149940252304077 4.349936485290527 L3.149940252304077 4.349936485290527"></path>
<path fill="none" stroke="black" stroke-width=".3" stroke-opacity="1.0"  filling="0" d="M18.90001106262207 6.299976348876953 L18.90001106262207 6.299976348876953 C19.749248504638672 6.651750087738037 20.4981746673584 7.4007439613342285 20.849843978881836 8.250024795532227 L20.849843978881836 14.774950981140137 L20.849843978881836 21.299877166748047 C20.066659927368164 23.190650939941406 18.633037567138672 23.19050407409668 17.84981918334961 21.299877166748047 L17.566429138183594 17.155487060546875 L17.283037185668945 13.011096000671387 L17.826923370361328 12.784296035766602 C18.127811431884766 12.404928207397461 18.428699493408203 12.02556037902832 18.72958755493164 11.64619255065918 L19.070436477661133 9.599808692932129 L18.46239471435547 9.599808692932129 L18.137746810913086 11.54791259765625 C17.95731544494629 11.775504112243652 17.776884078979492 12.003096580505371 17.596452713012695 12.230688095092773 L13.996379852294922 13.73080825805664 C12.499123573303223 14.031006813049316 12.956039428710938 12.913249969482422 13.303668022155762 12.069120407104492 L16.444307327270508 10.760591506958008 L16.981067657470703 7.903128623962402 C17.333677291870117 7.638671398162842 17.305408477783203 7.042092800140381 17.643648147583008 6.759489059448242 C17.9858455657959 6.473578453063965 18.481224060058594 6.4531474113464355 18.90001106262207 6.299976348876953 L18.90001106262207 6.299976348876953"></path>
<path fill="none" stroke="black" stroke-width=".3" stroke-opacity="1.0"  filling="0" d="M7.5466203689575195 9.60002326965332 L9.262523651123047 13.770551681518555 C9.324947357177734 13.878623962402344 9.387372016906738 13.986696243286133 9.449795722961426 14.094768524169922 L9.449795722961426 21.299877166748047 C8.666668891906738 23.190631866455078 7.233198165893555 23.19048309326172 6.44998836517334 21.299877166748047 L6.008376121520996 14.896450996398926 L5.5667643547058105 8.493024826049805 C5.37819242477417 5.770831108093262 8.16640853881836 6.073866844177246 9.320412635803223 7.555583953857422 L9.320412635803223 7.555583953857422 C9.320988655090332 7.5554399490356445 9.321563720703125 7.555296421051025 9.322139739990234 7.555152416229248 L10.77258014678955 11.115912437438965 L9.10549259185791 11.812080383300781 L8.195484161376953 9.60002326965332 L7.5466203689575195 9.60002326965332"></path>
<path fill="none" stroke="black" stroke-width=".3" stroke-opacity="1.0"  filling="0" d="M10.999164581298828 11.671463966369629 L11.210628509521484 12.190943717956543 L9.547212600708008 12.885383605957031 L9.333803176879883 12.366767883300781 L10.999164581298828 11.671463966369629"></path>
<path fill="none" stroke="black" stroke-width=".3" stroke-opacity="1.0"  filling="0" d="M11.482356071472168 12.857521057128906 L11.482356071472168 12.857521057128906 C11.319060325622559 13.249200820922852 11.228537559509277 13.679927825927734 10.992467880249023 14.032560348510742 C10.756420135498047 14.385161399841309 10.170148849487305 13.778647422790527 9.817644119262695 13.542455673217773 L11.482356071472168 12.857521057128906"></path></svg>