<svg xmlns="http://www.w3.org/2000/svg" viewBox="0.0 0.0 24.0 24.0" height="200px" width="200px"><path fill="none" stroke="black" stroke-width=".3" stroke-opacity="1.0"  filling="0" d="M3.6906957626342773 2.545464515686035 L10.060463905334473 2.545464515686035 L16.43023109436035 2.545464515686035 L22.799999237060547 2.545464515686035 L22.799999237060547 8.127984046936035 L22.799999237060547 13.710502624511719 L22.799999237060547 19.29302215576172 L16.43023109436035 19.29302215576172 L10.060463905334473 19.29302215576172 L3.6906957626342773 19.29302215576172 L3.6906960010528564 13.710502624511719 L3.6906960010528564 8.127984046936035 L3.6906957626342773 2.545464515686035"></path>
<path fill="none" stroke="black" stroke-width=".3" stroke-opacity="1.0"  filling="0" d="M12.665495872497559 4.907424449920654 L12.66592788696289 5.937960147857666 L6.052440166473389 5.937960147857666 L6.052440166473389 4.907424449920654 L12.665495872497559 4.907424449920654"></path>
<path fill="none" stroke="black" stroke-width=".3" stroke-opacity="1.0"  filling="0" d="M20.43804168701172 4.907424449920654 L20.43804168701172 10.318008422851562 L13.781999588012695 10.318008422851562 L13.781999588012695 4.907424449920654 L20.43804168701172 4.907424449920654"></path>
<path fill="none" stroke="black" stroke-width=".3" stroke-opacity="1.0"  filling="0" d="M12.665495872497559 7.097232341766357 L12.66592788696289 8.127768516540527 L6.052440166473389 8.127768516540527 L6.052440166473389 7.097232341766357 L12.665495872497559 7.097232341766357"></path>
<path fill="none" stroke="black" stroke-width=".3" stroke-opacity="1.0"  filling="0" d="M12.665495872497559 9.330240249633789 L12.66592788696289 10.360776901245117 L6.052440166473389 10.360776901245117 L6.052440166473389 9.330240249633789 L12.665495872497559 9.330240249633789"></path>
<path fill="none" stroke="black" stroke-width=".3" stroke-opacity="1.0"  filling="0" d="M12.665495872497559 11.520479202270508 L12.66592788696289 12.550799369812012 L6.052440166473389 12.550799369812012 L6.052440166473389 11.520479202270508 L12.665495872497559 11.520479202270508"></path>
<path fill="none" stroke="black" stroke-width=".3" stroke-opacity="1.0"  filling="0" d="M20.566993713378906 11.520479202270508 L20.566993713378906 12.550799369812012 L13.781999588012695 12.550799369812012 L13.781999588012695 11.520479202270508 L20.566993713378906 11.520479202270508"></path>
<path fill="none" stroke="black" stroke-width=".3" stroke-opacity="1.0"  filling="0" d="M12.665495872497559 13.667304039001465 L12.66592788696289 14.6980562210083 L6.052440166473389 14.6980562210083 L6.052440166473389 13.667304039001465 L12.665495872497559 13.667304039001465"></path>
<path fill="none" stroke="black" stroke-width=".3" stroke-opacity="1.0"  filling="0" d="M20.566993713378906 13.667304039001465 L20.566993713378906 14.6980562210083 L13.781999588012695 14.6980562210083 L13.781999588012695 13.667304039001465 L20.566993713378906 13.667304039001465"></path>
<path fill="none" stroke="black" stroke-width=".3" stroke-opacity="1.0"  filling="0" d="M12.665495872497559 15.8575439453125 L12.66592788696289 16.888078689575195 L6.052440166473389 16.888078689575195 L6.052440166473389 15.8575439453125 L12.665495872497559 15.8575439453125"></path>
<path fill="none" stroke="black" stroke-width=".3" stroke-opacity="1.0"  filling="0" d="M20.566993713378906 15.8575439453125 L20.566993713378906 16.888078689575195 L13.781999588012695 16.888078689575195 L13.781999588012695 15.8575439453125 L20.566993713378906 15.8575439453125"></path>
<path fill="none" stroke="black" stroke-width=".3" stroke-opacity="1.0"  filling="0" d="M21.59774398803711 18.090120315551758 L16.02947998046875 18.090120315551758 L10.461216926574707 18.090120315551758 L4.8929524421691895 18.090120315551758 L4.8929524421691895 10.897536277770996 L4.8929524421691895 3.7049522399902344 L10.46114444732666 3.7049524784088135 L16.029335021972656 3.7049524784088135 L21.59752655029297 3.7049522399902344 L21.59763526916504 10.897536277770996 L21.59774398803711 18.090120315551758"></path>
<path fill="none" stroke="black" stroke-width=".3" stroke-opacity="1.0"  filling="0" d="M19.364736557006836 20.452728271484375 L19.364736557006836 20.06608772277832 L20.566993713378906 20.06608772277832 L20.566993713378906 21.654552459716797 L14.111330032348633 21.654552459716797 L7.655665397644043 21.654552459716797 L1.2000007629394531 21.654552459716797 L1.2000007629394531 16.072105407714844 L1.2000007629394531 10.489657402038574 L1.2000007629394531 4.9072089195251465 L2.789112091064453 4.9072089195251465 L2.789112091064453 6.109464645385742 L2.402472496032715 6.109464645385742 L2.402472496032715 13.281096458435059 L2.402472496032715 20.452728271484375 L8.056560516357422 20.452728271484375 L13.710648536682129 20.452728271484375 L19.364736557006836 20.452728271484375"></path></svg>