<svg xmlns="http://www.w3.org/2000/svg" viewBox="0.0 0.0 24.0 24.0" height="200px" width="200px"><path fill="none" stroke="black" stroke-width=".3" stroke-opacity="1.0"  filling="0" d="M9.637823104858398 8.572080612182617 L9.637823104858398 8.572080612182617 C9.004427909851074 8.903648376464844 8.455338478088379 9.463235855102539 8.135111808776855 10.102439880371094 L5.1731038093566895 7.248000144958496 L3.1228322982788086 7.248000144958496 C2.7686643600463867 6.888000011444092 2.060328483581543 6.673009872436523 2.060328483581543 6.168000221252441 C2.060328483581543 5.662990570068359 2.7686643600463867 5.448000431060791 3.1228322982788086 5.088000297546387 L5.602080345153809 5.088000297546387 C5.848032474517822 5.188512325286865 6.093984127044678 5.289024353027344 6.339936256408691 5.389536380767822 L9.637823104858398 8.572080612182617"></path>
<path fill="none" stroke="black" stroke-width=".3" stroke-opacity="1.0"  filling="0" d="M8.846400260925293 10.383670806884766 L8.846400260925293 10.383670806884766 C9.257802963256836 9.389010429382324 11.04945182800293 8.628527641296387 11.049599647521973 10.383484840393066 C11.049747467041016 12.138543128967285 9.25804328918457 11.37862491607666 8.846400260925293 10.383858680725098 L8.846400260925293 10.383858680725098"></path>
<path fill="none" stroke="black" stroke-width=".3" stroke-opacity="1.0"  filling="0" d="M8.14893627166748 10.74828052520752 L8.14893627166748 10.74828052520752 C8.486359596252441 11.357834815979004 9.036758422851562 11.882058143615723 9.661151885986328 12.19115924835205 L7.070879936218262 14.85271167755127 C5.555330753326416 15.524185180664062 5.568775653839111 14.919516563415527 5.550024509429932 13.384991645812988 L8.14893627166748 10.74828052520752"></path>
<path fill="none" stroke="black" stroke-width=".3" stroke-opacity="1.0"  filling="0" d="M10.293600082397461 12.182520866394043 L10.293600082397461 12.182520866394043 C10.920098304748535 11.839375495910645 11.457511901855469 11.26971435546875 11.765856742858887 10.625375747680664 L13.202472686767578 12.011664390563965 C12.550174713134766 12.305732727050781 11.966877937316895 12.830575942993164 11.609472274780273 13.450439453125 L10.293600082397461 12.182520866394043"></path>
<path fill="none" stroke="black" stroke-width=".3" stroke-opacity="1.0"  filling="0" d="M20.477136611938477 12.431999206542969 L20.477136611938477 12.431999206542969 C20.83144760131836 12.719999313354492 21.54001235961914 12.83940315246582 21.540069580078125 13.295999526977539 C21.54012680053711 13.752540588378906 20.83159065246582 13.871999740600586 20.477352142333984 14.15999984741211 L17.99810218811035 14.15999984741211 C17.759925842285156 14.092031478881836 17.521751403808594 14.024064064025879 17.2835750579834 13.956095695495605 L15.873743057250977 12.694439888000488 L15.186431884765625 13.402703285217285 C14.834136962890625 12.810833930969238 14.276371002197266 12.309553146362305 13.651968002319336 12.018793106079102 L14.33690357208252 11.319168090820312 L12.29159927368164 9.48900032043457 L11.751815795898438 10.043472290039062 C11.430267333984375 9.432564735412598 10.8993558883667 8.900172233581543 10.28927993774414 8.577048301696777 L10.750008583068848 8.109623908996582 L9.407999992370605 6.908664226531982 C9.263999938964844 6.658536434173584 9.119999885559082 6.408408164978027 8.97599983215332 6.158280372619629 L8.97599983215332 2.2625045776367188 C9.371999740600586 1.9083366394042969 9.632726669311523 1.2000007629394531 10.163999557495117 1.2000007629394531 C10.695272445678711 1.2000007629394531 10.955999374389648 1.9083366394042969 11.351999282836914 2.2625045776367188 L11.351999282836914 5.688263893127441 L12.270647048950195 6.5665202140808105 L12.633312225341797 6.198672294616699 C12.886823654174805 6.116448402404785 13.140336036682129 6.034224033355713 13.393847465515137 5.952000141143799 L16.751567840576172 5.952000141143799 L19.487855911254883 2.1506166458129883 C19.982999801635742 2.062272310256958 20.561527252197266 1.5967490673065186 20.97328758239746 1.8855838775634766 C21.378379821777344 2.169740676879883 21.125205993652344 2.8634884357452393 21.2011661529541 3.35244083404541 L18.14606475830078 7.48797607421875 C17.86065673828125 7.623912334442139 17.57524871826172 7.759848117828369 17.289840698242188 7.895784378051758 L13.755431175231934 7.984560489654541 L15.742198944091797 9.883200645446777 L16.200551986694336 9.414913177490234 C16.44549560546875 9.340608596801758 16.690441131591797 9.266304969787598 16.93538475036621 9.192000389099121 L19.768871307373047 9.192000389099121 C20.123111724853516 9.515999794006348 20.831592559814453 9.683935165405273 20.831592559814453 10.163999557495117 C20.831592559814453 10.644063949584961 20.123111724853516 10.811999320983887 19.768871307373047 11.13599967956543 L17.22547149658203 11.301024436950684 L18.408935546875 12.431999206542969 L20.477136611938477 12.431999206542969"></path>
<path fill="none" stroke="black" stroke-width=".3" stroke-opacity="1.0"  filling="0" d="M12.302183151245117 13.839672088623047 L12.302183151245117 13.839672088623047 C12.722427368164062 13.111787796020508 14.505815505981445 11.845637321472168 14.505815505981445 13.839672088623047 C14.505815505981445 15.833707809448242 12.722427368164062 14.567556381225586 12.302183151245117 13.839672088623047 L12.302183151245117 13.839672088623047"></path>
<path fill="none" stroke="black" stroke-width=".3" stroke-opacity="1.0"  filling="0" d="M15.233304023742676 13.971216201782227 L18.912647247314453 17.521608352661133 C18.939992904663086 19.032512664794922 18.972923278808594 19.657901763916016 17.437583923339844 19.06687355041504 L13.85435962677002 15.613895416259766 C14.460687637329102 15.235128402709961 14.962787628173828 14.632970809936523 15.233304023742676 13.971216201782227 L15.233304023742676 13.971216201782227"></path>
<path fill="none" stroke="black" stroke-width=".3" stroke-opacity="1.0"  filling="0" d="M11.572967529296875 17.12632942199707 L12.739583969116211 18.24153709411621 C12.853055953979492 18.49346351623535 12.966527938842773 18.745391845703125 13.079999923706055 18.997318267822266 L13.079999923706055 21.742246627807617 C12.755999565124512 22.096342086791992 12.587958335876465 22.804534912109375 12.107999801635742 22.804534912109375 C11.62804126739502 22.804534912109375 11.460000038146973 22.096342086791992 11.13599967956543 21.742246627807617 L11.13599967956543 19.444656372070312 L9.441696166992188 17.897663116455078 C9.416279792785645 17.397768020629883 9.390864372253418 16.897871017456055 9.365447998046875 16.39797592163086 L11.592408180236816 14.122847557067871 C11.899144172668457 14.744438171386719 12.418417930603027 15.293135643005371 13.023191452026367 15.631824493408203 L11.572967529296875 17.12632942199707"></path></svg>