<svg xmlns="http://www.w3.org/2000/svg" viewBox="0.0 0.0 24.0 24.0" height="200px" width="200px"><path fill="none" stroke="black" stroke-width=".3" stroke-opacity="1.0"  filling="0" d="M3.976032257080078 2.7007675170898438 L9.295896530151367 2.7007675170898438 L14.61575984954834 2.7007675170898438 C14.863007545471191 2.9442718029022217 15.11025619506836 3.1877758502960205 15.357503890991211 3.4312801361083984 L15.357503890991211 8.52801513671875 C15.11025619506836 8.771519660949707 14.863007545471191 9.015023231506348 14.61575984954834 9.258527755737305 L9.295896530151367 9.258527755737305 L3.976032257080078 9.258527755737305 C3.7236721515655518 9.015023231506348 3.4713122844696045 8.771519660949707 3.218952178955078 8.52801513671875 L3.218952178955078 3.4314966201782227 C3.4713122844696045 3.187920331954956 3.7236721515655518 2.9443438053131104 3.976032257080078 2.7007675170898438 L3.976032257080078 2.7007675170898438"></path>
<path fill="none" stroke="black" stroke-width=".3" stroke-opacity="1.0"  filling="0" d="M22.653118133544922 20.113174438476562 L22.653118133544922 20.113174438476562 C22.16028594970703 21.829532623291016 20.975868225097656 22.696582794189453 19.788074493408203 22.70466423034668 C18.600278854370117 22.712745666503906 17.409107208251953 21.861854553222656 16.902767181396484 20.142333984375 L16.902767181396484 13.901880264282227 C16.501798629760742 13.557144165039062 16.100831985473633 13.212408065795898 15.69986343383789 12.867671966552734 L15.69986343383789 17.77918815612793 L15.69986343383789 22.690704345703125 L9.25193977355957 22.690704345703125 L2.80401611328125 22.690704345703125 L2.80401611328125 16.855789184570312 L2.80401611328125 11.020872116088867 L1.3468809127807617 11.020872116088867 L1.3468809127807617 6.11043643951416 L1.3468809127807617 1.2000007629394531 L6.640968322753906 1.2000007629394531 L11.93505573272705 1.2000007629394531 L17.229143142700195 1.2000007629394531 L17.229143142700195 6.0835442543029785 L17.229143142700195 10.967087745666504 L15.730103492736816 10.967087745666504 L15.730103492736816 11.42068862915039 C18.187570571899414 12.090954780578613 18.403141021728516 12.34637451171875 18.476543426513672 14.82441520690918 L18.463150024414062 20.142333984375 C18.903791427612305 20.545822143554688 19.187604904174805 21.352800369262695 19.785072326660156 21.352800369262695 C20.37888526916504 21.352800369262695 20.656417846679688 20.545822143554688 21.092090606689453 20.142333984375 L20.181217193603516 15.099958419799805 L19.27034568786621 10.057583808898926 L18.359472274780273 5.015208721160889 L17.840641021728516 5.015208721160889 L17.840641021728516 3.6237363815307617 C18.597179412841797 3.846653699874878 19.603580474853516 4.051478385925293 19.904735565185547 4.780416011810303 L20.820863723754883 9.891335487365723 L21.73699188232422 15.002254486083984 L22.653118133544922 20.113174438476562"></path></svg>