<svg xmlns="http://www.w3.org/2000/svg" viewBox="0.0 0.0 24.0 24.0" height="200px" width="200px"><path fill="none" stroke="black" stroke-width=".3" stroke-opacity="1.0"  filling="0" d="M19.36203384399414 3.371448516845703 L19.36203384399414 3.371448516845703 C19.00880241394043 3.0218164920806885 18.302339553833008 2.819558620452881 18.302339553833008 2.3225526809692383 C18.302339553833008 1.8255467414855957 18.865028381347656 1.2736568450927734 19.36203384399414 1.2736568450927734 C19.856386184692383 1.2736568450927734 20.410499572753906 1.828199863433838 20.410499572753906 2.3225526809692383 C20.410499572753906 2.8169054985046387 19.711523056030273 3.0218164920806885 19.36203384399414 3.371448516845703 L19.36203384399414 3.371448516845703"></path>
<path fill="none" stroke="black" stroke-width=".3" stroke-opacity="1.0"  filling="0" d="M12.448740005493164 3.748800277709961 L12.448955535888672 3.31917667388916 L9.301836013793945 3.31917667388916 C9.301836013793945 3.0393126010894775 9.301836013793945 2.759448766708374 9.301836013793945 2.4795846939086914 L12.448955535888672 2.4795846939086914 L12.448955535888672 2.060328483581543 L9.301836013793945 2.0501766204833984 C9.301836013793945 1.7702404260635376 9.301836013793945 1.4903043508529663 9.301836013793945 1.2103681564331055 L13.109915733337402 1.2103681564331055 C13.52600383758545 1.6404962539672852 13.942091941833496 2.070624351501465 14.358180046081543 2.5007524490356445 L14.35818099975586 8.87491226196289 L14.35818099975586 15.249072074890137 L14.358180046081543 21.623231887817383 C14.039535522460938 21.931760787963867 13.845782279968262 22.548818588256836 13.40224552154541 22.548818588256836 C12.959290504455566 22.548818588256836 12.76657485961914 21.931760787963867 12.448740005493164 21.623231887817383 L12.448740005493164 17.537267684936523 L12.448740005493164 13.45130443572998 L9.301620483398438 13.45130443572998 C9.301620483398438 13.171656608581543 9.301620483398438 12.892007827758789 9.301620483398438 12.612360000610352 L12.448740005493164 12.612360000610352 L12.448740005493164 12.19310474395752 L9.301620483398438 12.19310474395752 C9.301620483398438 11.913384437561035 9.301620483398438 11.63366413116455 9.301620483398438 11.353943824768066 L12.448740005493164 11.353943824768066 L12.448740005493164 10.923888206481934 L9.301620483398438 10.923888206481934 C9.301620483398438 10.64416790008545 9.301620483398438 10.364448547363281 9.301620483398438 10.084728240966797 L12.448740005493164 10.084728240966797 L12.448740005493164 9.66525650024414 L9.301620483398438 9.66525650024414 C9.301620483398438 9.385536193847656 9.301620483398438 9.105816841125488 9.301620483398438 8.826096534729004 L12.448740005493164 8.826096534729004 L12.448740005493164 8.4061918258667 L9.301620483398438 8.4061918258667 C9.301620483398438 8.123087882995605 9.301620483398438 7.839983940124512 9.301620483398438 7.556879997253418 L12.448740005493164 7.556879997253418 L12.448740005493164 7.137192249298096 L9.301620483398438 7.137192249298096 C9.301620483398438 6.857471942901611 9.301620483398438 6.577752113342285 9.301620483398438 6.298031806945801 L12.448740005493164 6.298031806945801 L12.448740005493164 5.857392311096191 L9.301620483398438 5.857392311096191 C9.301620483398438 5.577744483947754 9.301620483398438 5.298096656799316 9.301620483398438 5.018448829650879 L12.448740005493164 5.018448829650879 L12.448740005493164 4.588176727294922 L9.301620483398438 4.588176727294922 C9.301620483398438 4.308384418487549 9.301620483398438 4.028592586517334 9.301620483398438 3.748800277709961 L12.448740005493164 3.748800277709961"></path>
<path fill="none" stroke="black" stroke-width=".3" stroke-opacity="1.0"  filling="0" d="M19.204139709472656 10.03223991394043 L19.204139709472656 13.66211986541748 C18.8720760345459 13.66211986541748 18.54001235961914 13.66211986541748 18.207948684692383 13.66211986541748 L18.207948684692383 10.05362319946289 L16.886028289794922 10.05362319946289 L18.302339553833008 5.122992515563965 L18.082019805908203 5.122992515563965 L17.25322723388672 7.913280010223389 C16.973506927490234 7.815360069274902 16.69378662109375 7.717440128326416 16.414066314697266 7.61952018737793 L17.337249755859375 4.5981125831604 C17.76730728149414 4.280088424682617 18.197362899780273 3.962064266204834 18.62742042541504 3.644040107727051 L20.064468383789062 3.644040107727051 C20.49798011779785 3.962064266204834 20.93149185180664 4.280088424682617 21.36500358581543 4.5981125831604 L22.288402557373047 7.609368324279785 C22.00861167907715 7.707216262817383 21.728818893432617 7.8050642013549805 21.44902801513672 7.902912139892578 L20.620235443115234 5.122992515563965 L20.378746032714844 5.122992515563965 L21.8157958984375 10.05362319946289 L20.48394012451172 10.05362319946289 L20.48394012451172 13.672056198120117 C20.15526008605957 13.672056198120117 19.82657814025879 13.672056198120117 19.49789810180664 13.672056198120117 L19.49789810180664 10.03223991394043 L19.204139709472656 10.03223991394043"></path>
<path fill="none" stroke="black" stroke-width=".3" stroke-opacity="1.0"  filling="0" d="M7.801715850830078 16.23187255859375 L7.801715850830078 16.23187255859375 C8.386353492736816 16.147443771362305 8.977067947387695 15.859428405761719 9.555627822875977 15.978583335876465 C11.370597839355469 16.352378845214844 11.506303787231445 18.043140411376953 10.84299087524414 19.282127380371094 C10.179677963256836 20.521114349365234 8.717345237731934 21.308330535888672 7.336235523223877 19.87503433227539 C6.923657417297363 19.446866989135742 6.884219646453857 18.77509117126465 6.658211708068848 18.225120544433594 L6.658211708068848 12.634176254272461 L6.228156089782715 12.634176254272461 L6.228156089782715 18.225120544433594 C6.018302917480469 18.755229949951172 5.997138977050781 19.40774917602539 5.598597049713135 19.815448760986328 C4.1542768478393555 21.292953491210938 2.7149994373321533 20.517200469970703 2.073784828186035 19.280590057373047 C1.4325700998306274 18.04397964477539 1.5894180536270142 16.346513748168945 3.337348222732544 15.980591773986816 C3.9099419116973877 15.860721588134766 4.49530553817749 16.14811134338379 5.074284553527832 16.23187255859375 L5.074284553527832 10.672679901123047 L5.588364601135254 6.088512420654297 L6.102444171905518 1.5043449401855469 C6.258079528808594 1.3585399389266968 6.588881015777588 1.3561434745788574 6.742236137390137 1.5043449401855469 L7.271975994110107 6.088512420654297 L7.801715850830078 10.672679901123047 L7.801715850830078 16.23187255859375"></path>
<path fill="none" stroke="black" stroke-width=".3" stroke-opacity="1.0"  filling="0" d="M3.9519481658935547 19.379640579223633 L3.9519481658935547 19.379640579223633 C3.5707802772521973 18.998329162597656 2.808444023132324 18.774858474731445 2.808444023132324 18.23570442199707 C2.808444023132324 16.71045684814453 5.095452308654785 16.71045684814453 5.095452308654785 18.23570442199707 C5.095452308654785 18.774858474731445 4.333116054534912 18.998329162597656 3.9519481658935547 19.379640579223633 L3.9519481658935547 19.379640579223633"></path>
<path fill="none" stroke="black" stroke-width=".3" stroke-opacity="1.0"  filling="0" d="M8.976324081420898 19.379640579223633 L8.976324081420898 19.379640579223633 C8.59522819519043 18.998329162597656 7.833035945892334 18.774808883666992 7.833035945892334 18.23570442199707 C7.833035945892334 16.99951934814453 10.119827270507812 16.42136573791504 10.119827270507812 18.23570442199707 C10.119827270507812 18.774858474731445 9.357491493225098 18.998329162597656 8.976324081420898 19.379640579223633 L8.976324081420898 19.379640579223633"></path>
<path fill="none" stroke="black" stroke-width=".3" stroke-opacity="1.0"  filling="0" d="M8.798555374145508 20.24968719482422 L9.994115829467773 20.112960815429688 C10.095636367797852 20.746055603027344 10.439404487609863 21.386695861816406 10.298676490783691 22.012245178222656 C10.220540046691895 22.359569549560547 9.764463424682617 22.746078491210938 9.427763938903809 22.63043975830078 C8.792222023010254 22.41216278076172 8.824273109436035 20.61117172241211 8.798555374145508 20.24968719482422 L8.798555374145508 20.24968719482422"></path></svg>