<svg xmlns="http://www.w3.org/2000/svg" viewBox="0.0 0.0 24.0 24.0" height="200px" width="200px"><path fill="none" stroke="black" stroke-width=".3" stroke-opacity="1.0"  filling="0" d="M17.27180290222168 3.5438156127929688 L18.44943618774414 8.903424263000488 L19.62706756591797 14.263031959533691 L20.80470085144043 19.62264060974121 L17.36835479736328 19.62264060974121 L17.36835479736328 22.799999237060547 L10.281827926635742 22.799999237060547 L3.1953001022338867 22.799999237060547 L3.1953001022338867 16.381271362304688 L3.1953001022338867 9.962543487548828 L3.1953001022338867 3.5438156127929688 L5.161548137664795 3.5438156127929688 L5.808684349060059 1.2000007629394531 L6.9776763916015625 1.2000007629394531 L6.330755710601807 3.5438156127929688 L8.450580596923828 3.5438156127929688 L9.097716331481934 1.2000007629394531 L10.266707420349121 1.2000007629394531 L9.61978816986084 3.5438156127929688 L11.739180564880371 3.5438156127929688 L12.386099815368652 1.2000007629394531 L13.555739402770996 1.2000007629394531 L12.908820152282715 3.5438156127929688 L15.027995109558105 3.5438156127929688 L15.674484252929688 1.2000007629394531 L16.8441219329834 1.2000007629394531 L16.197635650634766 3.5438156127929688 L17.27180290222168 3.5438156127929688"></path>
<path fill="none" stroke="black" stroke-width=".3" stroke-opacity="1.0"  filling="0" d="M13.021787643432617 9.197183609008789 L13.021787643432617 9.780167579650879 L7.461083889007568 9.780167579650879 L7.461083889007568 9.197183609008789 L13.021787643432617 9.197183609008789"></path>
<path fill="none" stroke="black" stroke-width=".3" stroke-opacity="1.0"  filling="0" d="M13.021787643432617 11.045496940612793 L13.021787643432617 11.628479957580566 L7.461083889007568 11.628479957580566 L7.461083889007568 11.045496940612793 L13.021787643432617 11.045496940612793"></path>
<path fill="none" stroke="black" stroke-width=".3" stroke-opacity="1.0"  filling="0" d="M13.021787643432617 12.827927589416504 L13.021787643432617 13.411992073059082 L7.461083889007568 13.411992073059082 L7.461083889007568 12.827927589416504 L13.021787643432617 12.827927589416504"></path>
<path fill="none" stroke="black" stroke-width=".3" stroke-opacity="1.0"  filling="0" d="M13.021787643432617 14.676239013671875 L13.021787643432617 15.260087966918945 L7.461083889007568 15.260087966918945 L7.461083889007568 14.676239013671875 L13.021787643432617 14.676239013671875"></path>
<path fill="none" stroke="black" stroke-width=".3" stroke-opacity="1.0"  filling="0" d="M13.021787643432617 16.58892059326172 L13.021787643432617 17.171903610229492 L7.461083889007568 17.171903610229492 L7.461083889007568 16.58892059326172 L13.021787643432617 16.58892059326172"></path>
<path fill="none" stroke="black" stroke-width=".3" stroke-opacity="1.0"  filling="0" d="M15.618106842041016 21.049535751342773 L10.281827926635742 21.049535751342773 L4.9455485343933105 21.049535751342773 L4.9455485343933105 15.797855377197266 L4.9455485343933105 10.546175956726074 L4.9455485343933105 5.294496059417725 L10.281827926635742 5.294496059417725 L15.618106842041016 5.294496059417725 L15.618106842041016 10.546175956726074 L15.618106842041016 15.797855377197266 L15.618106842041016 21.049535751342773"></path></svg>