<svg xmlns="http://www.w3.org/2000/svg" viewBox="0.0 0.0 24.0 24.0" height="200px" width="200px"><path fill="none" stroke="black" stroke-width=".3" stroke-opacity="1.0"  filling="0" d="M10.305047988891602 2.7735595703125 L10.305047988891602 2.7735595703125 C11.442794799804688 1.4351681470870972 12.7105073928833 1.4321601390838623 13.856735229492188 2.762544631958008 L13.856735229492188 2.762544631958008 C12.678820610046387 2.6436336040496826 11.482574462890625 2.6508657932281494 10.305047988891602 2.7735595703125 L10.305047988891602 2.7735595703125"></path>
<path fill="none" stroke="black" stroke-width=".3" stroke-opacity="1.0"  filling="0" d="M14.515536308288574 2.9264888763427734 L14.515536308288574 2.9264888763427734 C17.220508575439453 4.11860466003418 18.531009674072266 5.247715950012207 19.1107177734375 8.19688892364502 L12.106378555297852 8.19688892364502 L5.1020402908325195 8.19688892364502 C5.6741838455200195 5.269078254699707 6.969841003417969 4.140027046203613 9.6486234664917 2.9411773681640625 L9.6486234664917 2.9411773681640625 C11.056917190551758 0.7796216011047363 13.09284782409668 0.7763261795043945 14.515536308288574 2.9264888763427734 L14.515536308288574 2.9264888763427734"></path>
<path fill="none" stroke="black" stroke-width=".3" stroke-opacity="1.0"  filling="0" d="M9.689448356628418 14.418119430541992 L9.689448356628418 14.418119430541992 C6.988603115081787 13.224869728088379 5.680395126342773 12.095698356628418 5.1018242835998535 9.149880409240723 L12.106270790100098 9.149880409240723 L19.1107177734375 9.149880409240723 C18.520605087280273 12.127080917358398 17.18989372253418 13.256028175354004 14.450520515441895 14.43885612487793 L16.179384231567383 21.286270141601562 C16.387319564819336 21.52912712097168 16.82802963256836 21.69609260559082 16.803192138671875 22.01483917236328 C16.69792938232422 23.365737915039062 15.078045845031738 22.601160049438477 15.551471710205078 21.485424041748047 L14.61143970489502 17.3408145904541 L12.385992050170898 17.3408145904541 L12.43567180633545 20.969833374023438 L11.75872802734375 20.969833374023438 L11.796960830688477 17.3408145904541 L9.523128509521484 17.3408145904541 L8.583312034606934 21.485206604003906 C9.05589485168457 22.600934982299805 7.43688440322876 23.366336822509766 7.331592082977295 22.015052795410156 C7.306755542755127 21.696306228637695 7.747464179992676 21.529342651367188 7.955399990081787 21.286487579345703 L9.689448356628418 14.418119430541992"></path>
<path fill="none" stroke="black" stroke-width=".3" stroke-opacity="1.0"  filling="0" d="M9.593111991882324 17.033447265625 L10.158599853515625 14.541024208068848 C10.71386432647705 14.612808227539062 11.26912784576416 14.684592247009277 11.824392318725586 14.756376266479492 L11.800199508666992 17.033447265625 L9.593111991882324 17.033447265625"></path>
<path fill="none" stroke="black" stroke-width=".3" stroke-opacity="1.0"  filling="0" d="M14.541671752929688 17.033447265625 L12.381888389587402 17.033447265625 L12.350568771362305 14.757455825805664 C12.893736839294434 14.691071510314941 13.436903953552246 14.624688148498535 13.980072021484375 14.558303833007812 L14.541671752929688 17.033447265625"></path></svg>