<svg xmlns="http://www.w3.org/2000/svg" viewBox="0.0 0.0 24.0 24.0" height="200px" width="200px"><path fill="none" stroke="black" stroke-width=".3" stroke-opacity="1.0"  filling="0" d="M13.051704406738281 6.161520481109619 L10.948295593261719 6.161520481109619 C10.834535598754883 5.964600563049316 10.720775604248047 5.767680644989014 10.607015609741211 5.570760726928711 L11.658936500549316 3.749016761779785 C11.886312484741211 3.749016761779785 12.113687515258789 3.749016761779785 12.341063499450684 3.749016761779785 L13.392984390258789 5.570760726928711 C13.279224395751953 5.767680644989014 13.165464401245117 5.964600563049316 13.051704406738281 6.161520481109619 L13.051704406738281 6.161520481109619"></path>
<path fill="none" stroke="black" stroke-width=".3" stroke-opacity="1.0"  filling="0" d="M20.946502685546875 8.597135543823242 L20.946502685546875 8.597135543823242 C21.6596622467041 8.892547607421875 22.288562774658203 9.52148151397705 22.583999633789062 10.234631538391113 L22.583999633789062 13.765583038330078 C22.28856658935547 14.478678703308105 21.659610748291016 15.107460021972656 20.946502685546875 15.402862548828125 L15.402862548828125 15.402862548828125 L15.402862548828125 20.946502685546875 C15.107451438903809 21.6596622467041 14.478517532348633 22.288562774658203 13.765368461608887 22.583999633789062 L10.234631538391113 22.583999633789062 C9.521464347839355 22.288604736328125 8.892529487609863 21.659669876098633 8.597135543823242 20.946502685546875 L8.597135543823242 15.402862548828125 L3.0534963607788086 15.402862548828125 C2.3403778076171875 15.107484817504883 1.7114595174789429 14.478668212890625 1.416001319885254 13.765583038330078 L1.416001319885254 10.234631538391113 C1.7114379405975342 9.521482467651367 2.340336799621582 8.892547607421875 3.0534963607788086 8.597135543823242 L8.597135543823242 8.597135543823242 L8.597135543823242 3.0534963607788086 C8.892504692077637 2.3403191566467285 9.521474838256836 1.7114202976226807 10.234631538391113 1.416001319885254 L13.765368461608887 1.416001319885254 C14.478509902954102 1.7114557027816772 15.10740852355957 2.3403546810150146 15.402862548828125 3.0534963607788086 L15.402862548828125 8.597135543823242 L20.946502685546875 8.597135543823242"></path>
<path fill="none" stroke="black" stroke-width=".3" stroke-opacity="1.0"  filling="0" d="M20.25098419189453 12.341279983520508 L18.429241180419922 13.392984390258789 C18.23232078552246 13.279224395751953 18.035400390625 13.165464401245117 17.83847999572754 13.051704406738281 L17.83847999572754 10.948080062866211 C18.035400390625 10.834391593933105 18.23232078552246 10.720704078674316 18.429241180419922 10.607015609741211 L20.25098419189453 11.658720016479492 C20.25098419189453 11.886240005493164 20.25098419189453 12.113759994506836 20.25098419189453 12.341279983520508 L20.25098419189453 12.341279983520508"></path>
<path fill="none" stroke="black" stroke-width=".3" stroke-opacity="1.0"  filling="0" d="M6.161303997039795 13.051704406738281 L6.161303997039795 13.051704406738281 C5.964384078979492 13.165464401245117 5.7674641609191895 13.279224395751953 5.570544242858887 13.392984390258789 L3.748800277709961 12.341279983520508 C3.748800277709961 12.113759994506836 3.748800277709961 11.886240005493164 3.748800277709961 11.658720016479492 L5.570544242858887 10.607015609741211 C5.7674641609191895 10.720704078674316 5.964384078979492 10.834391593933105 6.161303997039795 10.948080062866211 L6.161303997039795 13.051704406738281"></path>
<path fill="none" stroke="black" stroke-width=".3" stroke-opacity="1.0"  filling="0" d="M13.392984390258789 18.429672241210938 L12.341063499450684 20.251415252685547 C12.113687515258789 20.251415252685547 11.886312484741211 20.251415252685547 11.658936500549316 20.251415252685547 L10.607015609741211 18.429672241210938 C10.720775604248047 18.232751846313477 10.834535598754883 18.035831451416016 10.948295593261719 17.838911056518555 L13.051704406738281 17.838911056518555 C13.165464401245117 18.035831451416016 13.279224395751953 18.232751846313477 13.392984390258789 18.429672241210938 L13.392984390258789 18.429672241210938"></path></svg>