<svg xmlns="http://www.w3.org/2000/svg" viewBox="0.0 0.0 24.0 24.0" height="200px" width="200px"><path fill="none" stroke="black" stroke-width=".3" stroke-opacity="1.0"  filling="0" d="M17.399999618530273 7.799999713897705 L17.399999618530273 7.799999713897705 C17.693954467773438 9.77369499206543 18.59697723388672 11.336847305297852 19.5 12.899999618530273 C20.403024673461914 14.463152885437012 21.306047439575195 16.02630615234375 21.60000228881836 18.0 L21.60000228881836 19.200000762939453 C20.743431091308594 20.793886184692383 18.477619171142578 21.03453254699707 16.84568977355957 21.272314071655273 C15.252784729003906 21.504409790039062 13.626459121704102 21.620458602905273 12.000133514404297 21.620458602905273 C10.373807907104492 21.620458602905273 8.747482299804688 21.504409790039062 7.154577732086182 21.272314071655273 C5.522592544555664 21.034523010253906 3.2566747665405273 20.793886184692383 2.3999996185302734 19.200000762939453 L2.3999996185302734 18.0 C2.589911460876465 16.724878311157227 2.830425500869751 15.397233963012695 3.488888740539551 14.288888931274414 C4.384113788604736 12.78201961517334 5.778059482574463 11.629880905151367 6.288889408111572 9.88888931274414 C7.0038161277771 7.452302932739258 6.453712463378906 5.199728012084961 8.771812438964844 3.4766252040863037 C9.213409423828125 3.1483747959136963 9.743937492370605 2.9608750343322754 10.230000495910645 2.703000068664551 L10.230000495910645 2.703000068664551 C11.295467376708984 0.812952995300293 12.704532623291016 0.8129547834396362 13.770000457763672 2.703000068664551 L13.770000457763672 2.703000068664551 C16.109485626220703 3.944188356399536 16.98200798034668 5.1861138343811035 17.399999618530273 7.799999713897705 L17.399999618530273 7.799999713897705"></path>
<path fill="none" stroke="black" stroke-width=".3" stroke-opacity="1.0"  filling="0" d="M12.0 20.400001525878906 L12.0 20.400001525878906 C9.733709335327148 20.321630477905273 7.4195380210876465 20.308292388916016 5.220709800720215 19.6628360748291 C2.3990437984466553 18.834548950195312 4.278728485107422 17.897165298461914 6.006000518798828 17.34000015258789 L6.006000518798828 17.34000015258789 C5.75198221206665 19.879941940307617 9.972005844116211 19.668725967407227 9.514800071716309 16.880401611328125 L9.514800071716309 16.880401611328125 C11.045605659484863 16.804943084716797 12.619296073913574 16.751197814941406 14.181501388549805 16.825284957885742 C15.743705749511719 16.899372100830078 17.29442596435547 17.10129165649414 18.7792911529541 17.537166595458984 C22.35746192932129 18.587520599365234 18.506040573120117 19.8107852935791 16.960935592651367 20.05255889892578 C16.196897506713867 20.1721134185791 15.426499366760254 20.25415802001953 14.65505313873291 20.30818748474121 C13.7716703414917 20.37005615234375 12.885017395019531 20.369396209716797 12.0 20.400001525878906 L12.0 20.400001525878906"></path></svg>