<svg xmlns="http://www.w3.org/2000/svg" viewBox="0.0 0.0 24.0 24.0" height="200px" width="200px"><path fill="none" stroke="black" stroke-width=".3" stroke-opacity="1.0"  filling="0" d="M18.09573745727539 4.031544208526611 L18.09573745727539 4.031544208526611 C18.663957595825195 6.247617721557617 16.612525939941406 7.267645835876465 14.663519859313965 7.659341812133789 C13.483938217163086 7.89640474319458 11.730184555053711 8.100624084472656 10.063815116882324 7.951752662658691 C8.397445678710938 7.802881240844727 6.818461894989014 7.300920486450195 5.988420486450195 6.12562370300293 C4.94741153717041 4.651607990264893 6.132895469665527 3.052828073501587 7.8020405769348145 3.0543603897094727 C9.796126365661621 3.0561909675598145 10.922306060791016 4.63348913192749 11.952912330627441 6.048984527587891 L11.952912330627441 6.048984527587891 C12.714113235473633 4.999889373779297 13.657857894897461 3.9548206329345703 14.707282066345215 3.442379951477051 C15.756706237792969 2.9299392700195312 16.91181182861328 2.950126886367798 18.09573745727539 4.031544208526611 L18.09573745727539 4.031544208526611"></path>
<path fill="none" stroke="black" stroke-width=".3" stroke-opacity="1.0"  filling="0" d="M16.991975784301758 5.153880596160889 L16.991975784301758 5.153880596160889 C15.797801971435547 6.268609523773193 14.68832778930664 6.330538749694824 13.07632827758789 6.573432445526123 L13.07632827758789 6.573432445526123 C13.458624839782715 6.105523586273193 17.20568084716797 2.531506299972534 16.991975784301758 5.153880596160889 L16.991975784301758 5.153880596160889"></path>
<path fill="none" stroke="black" stroke-width=".3" stroke-opacity="1.0"  filling="0" d="M7.780008316040039 5.8746724128723145 L7.780008316040039 5.8746724128723145 C7.711811542510986 5.801260471343994 5.492278099060059 4.084743499755859 7.80182409286499 4.269144058227539 C9.451037406921387 4.400822162628174 9.93701171875 5.465266227722168 10.83899974822998 6.573648452758789 L10.83899974822998 6.573648452758789 C9.80428695678711 6.4207763671875 8.762778282165527 6.232669353485107 7.780008316040039 5.8746724128723145 L7.780008316040039 5.8746724128723145"></path>
<path fill="none" stroke="black" stroke-width=".3" stroke-opacity="1.0"  filling="0" d="M19.992000579833984 9.589223861694336 L19.992000579833984 12.250776290893555 C19.7875919342041 12.455183982849121 19.58318519592285 12.659592628479004 19.37877655029297 12.86400032043457 L15.347999572753906 12.86400032043457 L11.31722354888916 12.86400032043457 C11.112815856933594 12.659592628479004 10.908408164978027 12.455183982849121 10.704000473022461 12.250776290893555 L10.704000473022461 9.589223861694336 C10.908408164978027 9.38481616973877 11.112815856933594 9.180407524108887 11.31722354888916 8.97599983215332 L15.347999572753906 8.97599983215332 L19.37877655029297 8.97599983215332 C19.58318519592285 9.180407524108887 19.7875919342041 9.38481616973877 19.992000579833984 9.589223861694336 L19.992000579833984 9.589223861694336"></path>
<path fill="none" stroke="black" stroke-width=".3" stroke-opacity="1.0"  filling="0" d="M9.192000389099121 12.250560760498047 L9.192000389099121 12.250560760498047 C8.987591743469238 12.45504093170166 8.783184051513672 12.659520149230957 8.578775405883789 12.86400032043457 L4.83722448348999 12.86400032043457 C4.632816791534424 12.659520149230957 4.428408622741699 12.45504093170166 4.224000930786133 12.250560760498047 L4.224000930786133 9.589223861694336 C4.428408622741699 9.38481616973877 4.632816791534424 9.180407524108887 4.83722448348999 8.97599983215332 L8.578775405883789 8.97599983215332 C8.783184051513672 9.180407524108887 8.987591743469238 9.38481616973877 9.192000389099121 9.589223861694336 L9.192000389099121 12.250560760498047"></path>
<path fill="none" stroke="black" stroke-width=".3" stroke-opacity="1.0"  filling="0" d="M18.695999145507812 14.55722427368164 L18.695999145507812 20.026775360107422 C18.49159049987793 20.231184005737305 18.28718376159668 20.435590744018555 18.082775115966797 20.639999389648438 L11.31722354888916 20.639999389648438 C11.112815856933594 20.435590744018555 10.908408164978027 20.231184005737305 10.704000473022461 20.026775360107422 L10.704000473022461 14.55722427368164 C10.908408164978027 14.352816581726074 11.112815856933594 14.148407936096191 11.31722354888916 13.944000244140625 L18.082775115966797 13.944000244140625 C18.28718376159668 14.148407936096191 18.49159049987793 14.352816581726074 18.695999145507812 14.55722427368164 L18.695999145507812 14.55722427368164"></path>
<path fill="none" stroke="black" stroke-width=".3" stroke-opacity="1.0"  filling="0" d="M9.192000389099121 20.026775360107422 L9.192000389099121 20.026775360107422 C8.987591743469238 20.231184005737305 8.783184051513672 20.435590744018555 8.578775405883789 20.639999389648438 L6.1332244873046875 20.639999389648438 C5.928816318511963 20.435590744018555 5.7244086265563965 20.231184005737305 5.520000457763672 20.026775360107422 L5.520000457763672 14.55722427368164 C5.7244086265563965 14.352816581726074 5.928816318511963 14.148407936096191 6.1332244873046875 13.944000244140625 L8.578775405883789 13.944000244140625 C8.783184051513672 14.148407936096191 8.987591743469238 14.352816581726074 9.192000389099121 14.55722427368164 L9.192000389099121 20.026775360107422"></path></svg>