<svg xmlns="http://www.w3.org/2000/svg" viewBox="0.0 0.0 24.0 24.0" height="200px" width="200px"><path fill="none" stroke="black" stroke-width=".3" stroke-opacity="1.0"  filling="0" d="M9.642143249511719 14.313467025756836 L9.642143249511719 14.313467025756836 C9.772209167480469 13.637636184692383 9.782176971435547 13.115340232849121 9.606719970703125 12.474443435668945 L9.606072425842285 12.474443435668945 C9.653088569641113 12.261539459228516 9.700103759765625 12.048636436462402 9.747119903564453 11.835732460021973 L9.70197582244873 11.733780860900879 C9.639264106750488 12.07282829284668 9.576552391052246 12.411876678466797 9.513840675354004 12.750924110412598 L9.576264381408691 12.790668487548828 C9.72074031829834 13.191609382629395 9.656309127807617 13.273008346557617 9.631128311157227 13.772819519042969 L9.631128311157227 13.772819519042969 C9.327095985412598 12.77095890045166 8.941154479980469 12.284780502319336 9.370038032531738 11.298432350158691 C10.005264282226562 9.837536811828613 12.913393020629883 9.550453186035156 14.042495727539062 10.499340057373047 C15.394336700439453 11.635414123535156 14.803426742553711 12.450047492980957 14.45095157623291 13.715579986572266 L14.45095157623291 13.715579986572266 C14.431000709533691 13.245909690856934 14.369063377380371 13.169747352600098 14.508407592773438 12.791532516479492 L14.508407592773438 12.791532516479492 C14.510279655456543 12.792037010192871 14.512151718139648 12.792540550231934 14.514023780822754 12.793045043945312 L14.58249568939209 12.754379272460938 C14.542895317077637 12.439667701721191 14.5032958984375 12.124956130981445 14.463695526123047 11.8102445602417 L14.407751083374023 11.9067964553833 C14.44108772277832 12.093060493469238 14.4744234085083 12.27932357788086 14.507760047912598 12.465587615966797 L14.4820556640625 12.463212013244629 C14.248505592346191 13.311873435974121 14.719646453857422 14.350016593933105 14.244024276733398 15.1215238571167 C13.960533142089844 15.581375122070312 13.384407043457031 15.412973403930664 13.084752082824707 16.066740036010742 L13.083239555358887 16.08466911315918 C12.39643383026123 16.187068939208984 11.685416221618652 16.177597045898438 11.000136375427246 16.06544303894043 L11.000136375427246 16.06544303894043 C10.956302642822266 15.554521560668945 10.749417304992676 15.57171630859375 10.35861587524414 15.366467475891113 L10.331399917602539 15.358259201049805 C9.952628135681152 15.183313369750977 9.741952896118164 14.718574523925781 9.642143249511719 14.313467025756836 L9.642143249511719 14.313467025756836"></path>
<path fill="none" stroke="black" stroke-width=".3" stroke-opacity="1.0"  filling="0" d="M10.465319633483887 14.336148262023926 L10.465319633483887 14.336148262023926 C10.243390083312988 13.785425186157227 10.491602897644043 12.862048149108887 11.388288497924805 13.23173999786377 C12.356451988220215 13.630901336669922 11.35058307647705 15.040797233581543 10.465319633483887 14.336148262023926 L10.465319633483887 14.336148262023926"></path>
<path fill="none" stroke="black" stroke-width=".3" stroke-opacity="1.0"  filling="0" d="M12.7434720993042 14.509380340576172 L12.7434720993042 14.509380340576172 C12.359403610229492 13.936042785644531 12.21705150604248 12.605269432067871 13.44547176361084 13.333908081054688 C14.374258041381836 13.884818077087402 13.416110038757324 14.697249412536621 12.7434720993042 14.509380340576172 L12.7434720993042 14.509380340576172"></path>
<path fill="none" stroke="black" stroke-width=".3" stroke-opacity="1.0"  filling="0" d="M11.643167495727539 14.739204406738281 L11.643167495727539 14.739204406738281 C11.751887321472168 14.625659942626953 11.860608100891113 14.512116432189941 11.969327926635742 14.398571968078613 L11.966304779052734 15.458051681518555 C11.29195499420166 16.02375602722168 11.47901439666748 15.1260347366333 11.643167495727539 14.739204406738281 L11.643167495727539 14.739204406738281"></path>
<path fill="none" stroke="black" stroke-width=".3" stroke-opacity="1.0"  filling="0" d="M16.80254364013672 15.271428108215332 L16.80254364013672 15.271428108215332 C16.77157211303711 15.887044906616211 16.105140686035156 15.702306747436523 15.651265144348145 15.725460052490234 L13.856735229492188 16.571746826171875 C13.857239723205566 16.636404037475586 13.857743263244629 16.701059341430664 13.858247756958008 16.765716552734375 L15.136967658996582 17.358203887939453 C15.953693389892578 17.36586570739746 16.685749053955078 17.627710342407227 15.717576026916504 18.22803497314453 L15.717576026916504 18.22803497314453 C15.801875114440918 19.458251953125 15.112881660461426 18.866573333740234 14.687255859375 18.269723892211914 L13.536623001098633 17.671619415283203 C13.116745948791504 18.007259368896484 12.573785781860352 18.187437057495117 12.045143127441406 18.28484344482422 L12.045143127441406 18.28506088256836 C12.043825149536133 18.28506088256836 12.030688285827637 18.28506088256836 12.029160499572754 18.28506088256836 L12.029160499572754 18.28484344482422 C11.48901653289795 18.19338035583496 10.934330940246582 18.000102996826172 10.513487815856934 17.649372100830078 L9.356592178344727 18.296939849853516 C8.95948600769043 18.912641525268555 8.21343994140625 19.365367889404297 8.405112266540527 18.230628967285156 L8.405112266540527 18.230628967285156 C6.84329891204834 17.355764389038086 9.586170196533203 17.056352615356445 10.128576278686523 16.797252655029297 L10.211736679077148 16.756427764892578 C10.212384223937988 16.698467254638672 10.213032722473145 16.6405086517334 10.213680267333984 16.582548141479492 L10.213680267333984 16.582548141479492 C9.512537956237793 16.242321014404297 6.6560258865356445 15.746790885925293 7.678488254547119 14.818044662475586 L7.681296348571777 14.763395309448242 C7.896338939666748 13.52207088470459 9.107062339782715 14.964548110961914 9.827472686767578 15.2573881149292 L9.827472686767578 15.2573881149292 C9.4188814163208 14.959099769592285 9.512019157409668 14.394613265991211 9.593328475952148 13.979316711425781 L9.553584098815918 14.01992416381836 C9.150323867797852 12.85833740234375 8.665431022644043 12.348121643066406 9.169509887695312 11.201663970947266 C10.016789436340332 9.274643898010254 13.939306259155273 9.25838851928711 14.852496147155762 11.103572845458984 C15.418021202087402 12.246268272399902 14.904915809631348 12.773077011108398 14.509919166564941 13.978236198425293 L14.495016098022461 13.9620361328125 C14.577235221862793 14.381235122680664 14.669050216674805 14.953536987304688 14.255687713623047 15.249395370483398 L14.255687713623047 15.249395370483398 C15.160050392150879 14.866192817687988 16.190038681030273 13.287979125976562 16.33425521850586 14.890403747558594 L16.33425521850586 14.890403747558594 C16.472702026367188 14.985883712768555 16.727691650390625 15.132195472717285 16.80254364013672 15.271428108215332 L16.80254364013672 15.271428108215332"></path>
<path fill="none" stroke="black" stroke-width=".3" stroke-opacity="1.0"  filling="0" d="M16.602096557617188 15.427379608154297 L16.602096557617188 15.427379608154297 C16.239627838134766 15.521539688110352 15.941803932189941 15.499077796936035 15.562487602233887 15.52090835571289 L13.828871726989746 16.338253021240234 C13.790566444396973 16.088102340698242 13.95398235321045 15.847793579101562 14.02132797241211 15.603852272033691 L14.046600341796875 15.59153938293457 C14.603255271911621 15.346834182739258 15.551645278930664 14.395950317382812 16.008527755737305 14.278475761413574 C16.244558334350586 14.21778678894043 15.978028297424316 14.865625381469727 16.144607543945312 15.02108383178711 C16.240127563476562 15.11022663116455 16.597448348999023 15.26663589477539 16.602096557617188 15.427379608154297 L16.602096557617188 15.427379608154297"></path>
<path fill="none" stroke="black" stroke-width=".3" stroke-opacity="1.0"  filling="0" d="M8.459112167358398 15.4954195022583 L8.459112167358398 15.4954195022583 C8.224226951599121 15.417800903320312 7.863862991333008 15.585844993591309 7.631832122802734 15.491532325744629 C7.264277458190918 15.342133522033691 7.837756156921387 15.013185501098633 7.898375988006592 14.872475624084473 L7.903560161590576 14.773763656616211 C8.022774696350098 13.982297897338867 9.368119239807129 15.30946159362793 10.03159236907959 15.593915939331055 L10.03159236907959 15.593915939331055 C10.105591773986816 15.843881607055664 10.27783203125 16.089853286743164 10.239816665649414 16.347755432128906 L10.239816665649414 16.347755432128906 C9.646248817443848 16.063644409179688 9.052680015563965 15.779531478881836 8.459112167358398 15.4954195022583 L8.459112167358398 15.4954195022583"></path>
<path fill="none" stroke="black" stroke-width=".3" stroke-opacity="1.0"  filling="0" d="M12.422063827514648 15.72826862335205 L12.422063827514648 15.72826862335205 C12.316224098205566 15.639276504516602 12.210384368896484 15.550284385681152 12.104544639587402 15.461292266845703 L12.10195255279541 14.402460098266602 C12.550143241882324 14.87114429473877 12.675777435302734 15.118550300598145 12.422063827514648 15.72826862335205 L12.422063827514648 15.72826862335205"></path>
<path fill="none" stroke="black" stroke-width=".3" stroke-opacity="1.0"  filling="0" d="M11.008560180664062 16.183380126953125 L11.008560180664062 16.183380126953125 C11.058095932006836 16.197420120239258 11.10763168334961 16.21146011352539 11.157167434692383 16.225500106811523 L11.153496742248535 17.046730041503906 C11.103816032409668 17.018218994140625 11.054136276245117 16.98970603942871 11.00445556640625 16.96119499206543 L11.008560180664062 16.183380126953125"></path>
<path fill="none" stroke="black" stroke-width=".3" stroke-opacity="1.0"  filling="0" d="M11.268407821655273 16.255525588989258 L11.268407821655273 16.255525588989258 C11.361503601074219 16.275901794433594 11.45460033416748 16.296276092529297 11.547696113586426 16.316652297973633 L11.540352821350098 17.16315460205078 C11.448480606079102 17.139179229736328 11.356608390808105 17.115203857421875 11.26473617553711 17.091228485107422 L11.268407821655273 16.255525588989258"></path>
<path fill="none" stroke="black" stroke-width=".3" stroke-opacity="1.0"  filling="0" d="M12.531792640686035 16.325292587280273 L12.531792640686035 16.325292587280273 C12.62049674987793 16.311756134033203 12.709199905395508 16.298219680786133 12.797904014587402 16.284683227539062 L12.802007675170898 17.07999610900879 C12.711935997009277 17.1074275970459 12.621864318847656 17.13486099243164 12.531792640686035 17.16229248046875 L12.531792640686035 16.325292587280273"></path>
<path fill="none" stroke="black" stroke-width=".3" stroke-opacity="1.0"  filling="0" d="M11.65915298461914 16.332420349121094 L11.65915298461914 16.332420349121094 C11.767937660217285 16.338443756103516 11.87657642364502 16.35013198852539 11.985527992248535 16.35013198852539 L11.985527992248535 17.205707550048828 C11.874287605285645 17.19721221923828 11.76304817199707 17.1887149810791 11.65180778503418 17.180219650268555 L11.65915298461914 16.332420349121094"></path>
<path fill="none" stroke="black" stroke-width=".3" stroke-opacity="1.0"  filling="0" d="M12.09698486328125 16.348621368408203 L12.09698486328125 16.348621368408203 C12.204768180847168 16.344228744506836 12.312552452087402 16.33983612060547 12.42033576965332 16.3354434967041 L12.42033576965332 17.18410873413086 C12.312552452087402 17.19195556640625 12.204768180847168 17.199804306030273 12.09698486328125 17.207651138305664 L12.09698486328125 16.348621368408203"></path>
<path fill="none" stroke="black" stroke-width=".3" stroke-opacity="1.0"  filling="0" d="M13.265543937683105 16.74605941772461 L13.265543937683105 16.74605941772461 C13.24236011505127 16.77593994140625 13.219175338745117 16.80582046508789 13.195991516113281 16.83570098876953 L13.196208953857422 16.074731826782227 C13.275288581848145 15.899273872375488 13.353940963745117 15.702017784118652 13.510919570922852 15.590676307678223 L13.510919570922852 15.590676307678223 C13.407123565673828 15.974334716796875 13.351128578186035 16.35846519470215 13.265543937683105 16.74605941772461 L13.265543937683105 16.74605941772461"></path>
<path fill="none" stroke="black" stroke-width=".3" stroke-opacity="1.0"  filling="0" d="M10.795584678649902 16.766149520874023 L10.795584678649902 16.766149520874023 C10.689345359802246 16.31158447265625 10.624220848083496 15.937793731689453 10.429248809814453 15.50362777709961 L10.429248809814453 15.50362777709961 C10.738658905029297 15.682761192321777 10.854898452758789 15.749626159667969 10.897319793701172 16.14665985107422 L10.893216133117676 16.874794006347656 C10.860671997070312 16.838579177856445 10.828128814697266 16.802364349365234 10.795584678649902 16.766149520874023 L10.795584678649902 16.766149520874023"></path>
<path fill="none" stroke="black" stroke-width=".3" stroke-opacity="1.0"  filling="0" d="M12.913248062133789 17.02923583984375 L12.900936126708984 16.26070785522461 C12.960840225219727 16.24249267578125 13.020744323730469 16.224275588989258 13.080648422241211 16.2060604095459 L13.085185050964355 16.929012298583984 C13.027873039245605 16.962419509887695 12.970560073852539 16.99582862854004 12.913248062133789 17.02923583984375 L12.913248062133789 17.02923583984375"></path>
<path fill="none" stroke="black" stroke-width=".3" stroke-opacity="1.0"  filling="0" d="M15.046895980834961 17.561891555786133 L15.046895980834961 17.561891555786133 C15.144085884094238 17.56439781188965 15.982929229736328 17.490476608276367 16.021486282348633 17.689115524291992 C16.066246032714844 17.919710159301758 15.515119552612305 17.94625473022461 15.500279426574707 18.1578369140625 C15.497057914733887 18.20376968383789 15.583117485046387 18.81993865966797 15.43224048614502 18.784452438354492 C15.10924243927002 18.708480834960938 15.042533874511719 18.240049362182617 14.802383422851562 18.078346252441406 L13.664064407348633 17.486722946166992 C13.731392860412598 17.32879066467285 13.798727035522461 17.168354034423828 13.832759857177734 17.000076293945312 L15.046895980834961 17.561891555786133"></path>
<path fill="none" stroke="black" stroke-width=".3" stroke-opacity="1.0"  filling="0" d="M12.902015686035156 17.90468406677246 L12.902015686035156 17.90468406677246 C11.5045166015625 18.158777236938477 10.513603210449219 17.973018646240234 10.465536117553711 16.34883689880371 L10.468344688415527 16.319244384765625 C10.390512466430664 16.046796798706055 10.3126802444458 15.774348258972168 10.234848022460938 15.501900672912598 L10.20698356628418 15.43580436706543 C10.234055519104004 15.444300651550293 10.261128425598145 15.45279598236084 10.288200378417969 15.461292266845703 L10.288200378417969 15.461292266845703 C10.494964599609375 15.921727180480957 10.582117080688477 16.329654693603516 10.696224212646484 16.814964294433594 L10.692768096923828 16.817556381225586 C10.701237678527832 16.826915740966797 10.708450317382812 16.83751106262207 10.714367866516113 16.84865951538086 L10.718039512634277 16.84585189819336 C11.544821739196777 17.140987396240234 12.538468360900879 17.147151947021484 13.35151195526123 16.816041946411133 L13.35431957244873 16.817771911621094 C13.36025333404541 16.805471420288086 13.367307662963867 16.793657302856445 13.375271797180176 16.782562255859375 L13.372032165527344 16.781051635742188 C13.468385696411133 16.339218139648438 13.535531997680664 15.930341720581055 13.674863815307617 15.498228073120117 L13.674863815307617 15.498228073120117 C13.741373062133789 15.470541954040527 13.783212661743164 15.452112197875977 13.851551055908203 15.431051254272461 L13.851551055908203 15.431051254272461 C13.768319129943848 15.727115631103516 13.685088157653809 16.02318000793457 13.601856231689453 16.319244384765625 L13.604880332946777 16.34883689880371 C13.587924003601074 16.917665481567383 13.27386474609375 17.473892211914062 12.902015686035156 17.90468406677246 L12.902015686035156 17.90468406677246"></path>
<path fill="none" stroke="black" stroke-width=".3" stroke-opacity="1.0"  filling="0" d="M9.232392311096191 18.110315322875977 L9.232392311096191 18.110315322875977 C9.170154571533203 18.160911560058594 8.860886573791504 18.838178634643555 8.633855819702148 18.782506942749023 C8.399483680725098 18.725034713745117 8.74869155883789 18.2153377532959 8.587416648864746 18.093467712402344 C8.551929473876953 18.066650390625 7.853857517242432 17.73552131652832 8.124959945678711 17.59817886352539 C8.588584899902344 17.363304138183594 9.715362548828125 17.23992919921875 10.232687950134277 16.994028091430664 L10.236144065856934 16.992298126220703 C10.270806312561035 17.16353416442871 10.338364601135254 17.32708168029785 10.406352996826172 17.488018035888672 L9.232392311096191 18.110315322875977"></path>
<path fill="none" stroke="black" stroke-width=".3" stroke-opacity="1.0"  filling="0" d="M3.357192039489746 19.968994140625 L6.238128185272217 14.785715103149414 L9.119064331054688 9.602436065673828 L12.0 4.419156551361084 L14.876903533935547 9.602436065673828 L17.753807067871094 14.785715103149414 L20.63071060180664 19.968994140625 L14.872871398925781 19.968994140625 L9.115032196044922 19.968994140625 L3.357192039489746 19.968994140625"></path>
<path fill="none" stroke="black" stroke-width=".3" stroke-opacity="1.0"  filling="0" d="M22.716407775878906 20.680500030517578 L22.716407775878906 20.680500030517578 C22.716533660888672 21.055448532104492 22.486862182617188 21.468156814575195 22.16539192199707 21.66114044189453 L15.3886079788208 21.66114044189453 L8.611824035644531 21.66114044189453 L1.8350400924682617 21.66114044189453 C1.5135396718978882 21.468137741088867 1.283808708190918 21.055482864379883 1.283808708190918 20.680500030517578 L4.672128677368164 14.675484657287598 L8.06044864654541 8.670469284057617 L11.448768615722656 2.6654529571533203 C11.749984741210938 2.4546871185302734 12.221795082092285 2.5031585693359375 12.551664352416992 2.6654529571533203 L15.939912796020508 8.670469284057617 L19.32815933227539 14.675484657287598 L22.716407775878906 20.680500030517578"></path></svg>