<svg xmlns="http://www.w3.org/2000/svg" viewBox="0.0 0.0 24.0 24.0" height="200px" width="200px"><path fill="none" stroke="black" stroke-width=".3" stroke-opacity="1.0"  filling="0" d="M15.246264457702637 2.6899681091308594 L15.246264457702637 2.6899681091308594 C15.886497497558594 2.95563006401062 16.450969696044922 3.520240545272827 16.716575622558594 4.160496234893799 L16.716575622558594 9.431832313537598 L16.716575622558594 14.703167915344238 L16.716575622558594 19.974502563476562 C16.450969696044922 20.61475944519043 15.886497497558594 21.17936897277832 15.246264457702637 21.445032119750977 L8.9131441116333 21.445032119750977 C8.272846221923828 21.179391860961914 7.708255767822266 20.61479949951172 7.442615985870361 19.974502563476562 L7.411404132843018 14.283767700195312 L7.380192279815674 8.593032836914062 C7.347792148590088 8.560632705688477 7.31539249420166 8.528231620788574 7.282992362976074 8.495831489562988 L7.282992362976074 7.9968719482421875 C7.31539249420166 7.964400291442871 7.347792148590088 7.9319281578063965 7.380192279815674 7.89945650100708 L7.380192279815674 7.102632522583008 C7.347792148590088 7.070160388946533 7.31539249420166 7.037688255310059 7.282992362976074 7.005216121673584 L7.282992362976074 6.506256103515625 C7.31539249420166 6.473855972290039 7.347792148590088 6.441456317901611 7.380192279815674 6.409056186676025 L7.380192279815674 5.610936164855957 C7.347792148590088 5.578536033630371 7.31539249420166 5.546136379241943 7.282992362976074 5.513736248016357 L7.282992362976074 4.766376972198486 C7.31539249420166 4.733904838562012 7.347792148590088 4.701432228088379 7.380192279815674 4.668960094451904 L7.442615985870361 4.160496234893799 C7.708255767822266 3.5201990604400635 8.272847175598145 2.9556081295013428 8.9131441116333 2.6899681091308594 L13.321487426757812 2.652383804321289 C13.353960037231445 2.6199843883514404 13.386431694030762 2.5875847339630127 13.418904304504395 2.555185317993164 L14.911463737487793 2.555185317993164 C14.943575859069824 2.5875847339630127 14.975687980651855 2.6199843883514404 15.007800102233887 2.652383804321289 L15.246264457702637 2.6899681091308594"></path>
<path fill="none" stroke="black" stroke-width=".3" stroke-opacity="1.0"  filling="0" d="M11.342496871948242 4.138464450836182 L12.69206428527832 4.138464450836182 C12.772782325744629 4.208691596984863 12.772782325744629 4.389213562011719 12.69206428527832 4.459440231323242 L11.342496871948242 4.459440231323242 C11.261777877807617 4.389213562011719 11.261777877807617 4.208691120147705 11.342496871948242 4.138464450836182 L11.342496871948242 4.138464450836182"></path>
<path fill="none" stroke="black" stroke-width=".3" stroke-opacity="1.0"  filling="0" d="M10.64071273803711 4.14364767074585 L10.64071273803711 4.14364767074585 C11.006447792053223 4.509387016296387 10.27497386932373 4.5093865394592285 10.64071273803711 4.14364767074585 L10.64071273803711 4.14364767074585"></path>
<path fill="none" stroke="black" stroke-width=".3" stroke-opacity="1.0"  filling="0" d="M16.15778350830078 18.02899169921875 L12.017711639404297 18.02899169921875 L7.877640724182129 18.02899169921875 L7.877640724182129 11.818883895874023 L7.877640724182129 5.608776092529297 L12.017711639404297 5.608776092529297 L16.15778350830078 5.608776092529297 L16.15778350830078 11.818883895874023 L16.15778350830078 18.02899169921875"></path>
<path fill="none" stroke="black" stroke-width=".3" stroke-opacity="1.0"  filling="0" d="M12.214056968688965 19.321537017822266 L12.214056968688965 19.321537017822266 C12.266977310180664 19.374025344848633 12.319896697998047 19.426511764526367 12.372817039489746 19.479000091552734 L12.372817039489746 19.885295867919922 C12.319896697998047 19.93778419494629 12.266977310180664 19.990272521972656 12.214056968688965 20.042760848999023 L11.813591957092285 20.042760848999023 C11.76095962524414 19.990272521972656 11.708327293395996 19.93778419494629 11.655694961547852 19.885295867919922 L11.655694961547852 19.479000091552734 C11.708327293395996 19.426511764526367 11.76095962524414 19.374025344848633 11.813591957092285 19.321537017822266 L12.214056968688965 19.321537017822266"></path>
<path fill="none" stroke="black" stroke-width=".3" stroke-opacity="1.0"  filling="0" d="M12.017711639404297 20.59615135192871 L12.017711639404297 20.59615135192871 C11.714088439941406 20.29252815246582 11.106841087341309 20.114667892456055 11.106841087341309 19.685279846191406 C11.106841087341309 19.255889892578125 11.588322639465332 18.77440643310547 12.017711639404297 18.77440643310547 C12.447101593017578 18.77440643310547 12.928584098815918 19.255889892578125 12.928584098815918 19.685279846191406 C12.928584098815918 20.114669799804688 12.321335792541504 20.29252815246582 12.017711639404297 20.59615135192871 L12.017711639404297 20.59615135192871"></path></svg>