<svg xmlns="http://www.w3.org/2000/svg" viewBox="0.0 0.0 24.0 24.0" height="200px" width="200px"><path fill="none" stroke="black" stroke-width=".3" stroke-opacity="1.0"  filling="0" d="M14.883939743041992 9.051031112670898 L14.883939743041992 9.051031112670898 C13.279674530029297 9.254786491394043 11.785297393798828 9.24550724029541 10.18218994140625 9.027840614318848 L10.18218994140625 5.314913749694824 C10.830322265625 3.7502312660217285 12.28260326385498 1.7388036251068115 14.195611000061035 3.6523678302764893 C14.619672775268555 4.0765533447265625 14.654497146606445 4.7607316970825195 14.883939743041992 5.314913749694824 L14.883939743041992 9.051031112670898"></path>
<path fill="none" stroke="black" stroke-width=".3" stroke-opacity="1.0"  filling="0" d="M9.569659233093262 9.303637504577637 L9.569659233093262 9.976876258850098 L8.434863090515137 9.976876258850098 L8.434863090515137 10.426838874816895 L7.9780802726745605 10.426838874816895 L7.9780802726745605 8.840034484863281 L8.434863090515137 8.840034484863281 L8.434863090515137 9.303637504577637 L9.569659233093262 9.303637504577637"></path>
<path fill="none" stroke="black" stroke-width=".3" stroke-opacity="1.0"  filling="0" d="M15.683140754699707 9.31023120880127 L16.42708969116211 9.31023120880127 L16.42708969116211 11.963621139526367 C16.16671371459961 13.253507614135742 16.273197174072266 13.718815803527832 15.29499340057373 14.696958541870117 C13.91995906829834 16.07190704345703 12.422690391540527 16.143945693969727 11.193011283874512 15.494559288024902 C9.963332176208496 14.845172882080078 9.001241683959961 13.474364280700684 8.696563720703125 11.963621139526367 L8.696563720703125 9.31023120880127 L9.362754821777344 9.31023120880127 C9.35509967803955 9.436800003051758 9.347444534301758 9.563368797302246 9.339789390563965 9.689937591552734 L9.339789390563965 11.88631534576416 C9.613554000854492 13.24162483215332 10.630192756652832 14.456307411193848 11.811516761779785 14.92574691772461 C12.992840766906738 15.395187377929688 14.338850975036621 15.119384765625 15.27135944366455 13.493725776672363 C15.547537803649902 13.012258529663086 15.561189651489258 12.422119140625 15.70610523223877 11.88631534576416 L15.70610523223877 9.689937591552734 C15.698450088500977 9.563368797302246 15.6907958984375 9.436800003051758 15.683140754699707 9.31023120880127 L15.683140754699707 9.31023120880127"></path>
<path fill="none" stroke="black" stroke-width=".3" stroke-opacity="1.0"  filling="0" d="M12.6048002243042 9.783384323120117 L12.6048002243042 9.783384323120117 C13.366348266601562 9.751993179321289 14.127619743347168 9.6925048828125 14.883713722229004 9.596261978149414 L14.883713722229004 10.678534507751465 C13.279536247253418 10.882436752319336 11.785009384155273 10.873068809509277 10.181962966918945 10.655570983886719 L10.181962966918945 9.57284164428711 C10.985276222229004 9.681706428527832 11.794906616210938 9.748244285583496 12.6048002243042 9.783384323120117 L12.6048002243042 9.783384323120117"></path>
<path fill="none" stroke="black" stroke-width=".3" stroke-opacity="1.0"  filling="0" d="M15.479418754577637 9.963006019592285 L15.479418754577637 9.289997100830078 L16.61398696899414 9.289997100830078 L16.61398696899414 8.840034484863281 L17.07099723815918 8.840034484863281 L17.07099723815918 10.426838874816895 L16.61398696899414 10.426838874816895 L16.61398696899414 9.963006019592285 L15.479418754577637 9.963006019592285"></path>
<path fill="none" stroke="black" stroke-width=".3" stroke-opacity="1.0"  filling="0" d="M10.181962966918945 11.201026916503906 L10.181962966918945 11.201026916503906 C11.78528118133545 11.41801929473877 13.279524803161621 11.428461074829102 14.883939743041992 11.224447250366211 L14.883939743041992 11.876084327697754 C14.235830307006836 13.441205978393555 12.78418254852295 15.452264785766602 10.870661735534668 13.53874397277832 C10.446479797363281 13.114562034606934 10.411529541015625 12.430304527282715 10.181962966918945 11.876084327697754 L10.181962966918945 11.201026916503906"></path>
<path fill="none" stroke="black" stroke-width=".3" stroke-opacity="1.0"  filling="0" d="M12.968588829040527 16.236099243164062 L12.968588829040527 17.889297485351562 C12.511277198791504 18.346376419067383 12.338153839111328 18.534154891967773 12.070711135864258 17.889522552490234 L12.070711135864258 16.236330032348633 L12.968588829040527 16.236099243164062"></path>
<path fill="none" stroke="black" stroke-width=".3" stroke-opacity="1.0"  filling="0" d="M13.43242073059082 17.825407028198242 L13.43242073059082 17.825407028198242 C14.086913108825684 17.904062271118164 14.749534606933594 17.93191146850586 15.395898818969727 18.061372756958008 C15.889326095581055 18.160202026367188 18.43503189086914 18.85042953491211 16.602636337280273 19.680538177490234 C15.505321502685547 20.177642822265625 13.538204193115234 20.299854278564453 12.447233200073242 20.299854278564453 C11.356222152709961 20.299854278564453 9.389019012451172 20.17762565612793 8.29166316986084 19.680538177490234 C6.411403656005859 18.828805923461914 9.122273445129395 18.13381576538086 9.57763385772705 18.046634674072266 C10.24830150604248 17.918230056762695 10.934860229492188 17.89475440979004 11.613473892211914 17.81881332397461 L11.613473892211914 17.836772918701172 C11.916631698608398 18.139930725097656 12.094217300415039 18.746246337890625 12.522947311401367 18.746246337890625 C12.951677322387695 18.746246337890625 13.129262924194336 18.139930725097656 13.43242073059082 17.836772918701172 L13.43242073059082 17.825407028198242"></path></svg>