<svg xmlns="http://www.w3.org/2000/svg" viewBox="0.0 0.0 24.0 24.0" height="200px" width="200px"><path fill="none" stroke="black" stroke-width=".3" stroke-opacity="1.0"  filling="0" d="M10.849799156188965 1.2000007629394531 L10.903800010681152 1.2000007629394531 C11.162917137145996 2.0493030548095703 10.991387367248535 3.201568841934204 10.96500015258789 4.067399978637695 C10.95783805847168 4.302400588989258 10.810505867004395 5.230434417724609 11.038799285888672 5.417399883270264 C11.39548110961914 5.7095112800598145 11.292166709899902 4.5210490226745605 11.305200576782227 4.0602006912231445 C11.332368850708008 3.0996017456054688 11.385254859924316 2.1547584533691406 11.495999336242676 1.2000007629394531 L11.58060073852539 1.2000007629394531 C11.782695770263672 2.2363996505737305 11.689997673034668 3.369903564453125 11.726400375366211 4.425600528717041 C11.737820625305176 4.756779670715332 11.785218238830566 5.611845016479492 12.018000602722168 5.37600040435791 C12.330099105834961 5.059795379638672 12.065925598144531 4.488287448883057 12.065925598144531 4.044000148773193 C12.065925598144531 3.078934907913208 12.08056926727295 2.1599440574645996 12.18179988861084 1.2000007629394531 L12.28439998626709 1.2000007629394531 C12.471396446228027 2.3662772178649902 12.451787948608398 3.566286087036133 12.509400367736816 4.74600076675415 C12.511893272399902 4.797051906585693 12.487945556640625 5.744438171386719 12.835200309753418 5.381400108337402 C13.574769020080566 4.608216285705566 12.13911247253418 2.0751895904541016 12.885600090026855 1.2000007629394531 L12.918000221252441 1.2000007629394531 C13.57337760925293 2.8627052307128906 13.782731056213379 5.3424506187438965 13.625399589538574 7.105800151824951 C13.543315887451172 8.025778770446777 12.31078052520752 8.372739791870117 12.18179988861084 9.298200607299805 C12.010647773742676 10.526248931884766 12.069275856018066 11.807469367980957 12.204828262329102 13.08719253540039 C12.340380668640137 14.36691665649414 12.5528564453125 15.6451416015625 12.689399719238281 16.86720085144043 C12.830745697021484 18.132247924804688 13.842608451843262 22.150283813476562 12.24120044708252 22.799999237060547 L11.724599838256836 22.799999237060547 C10.256661415100098 22.11496353149414 11.000367164611816 19.450353622436523 11.12339973449707 18.229799270629883 C11.335047721862793 16.130130767822266 11.548434257507324 14.037697792053223 11.64900016784668 11.929800033569336 C11.687792778015137 11.116681098937988 11.907649993896484 10.12881088256836 11.665200233459473 9.368400573730469 C11.34073543548584 8.350761413574219 10.56871223449707 7.854249954223633 10.158600807189941 6.799800395965576 C9.718396186828613 5.667975902557373 10.337535858154297 2.1749649047851562 10.849799156188965 1.2000007629394531 L10.849799156188965 1.2000007629394531"></path></svg>