<svg xmlns="http://www.w3.org/2000/svg" viewBox="0.0 0.0 24.0 24.0" height="200px" width="200px"><path fill="none" stroke="black" stroke-width=".3" stroke-opacity="1.0"  filling="0" d="M12.000216484069824 1.2000007629394531 L12.000216484069824 1.2000007629394531 C13.564163208007812 1.3800604343414307 13.991119384765625 1.2927210330963135 15.421689987182617 1.9904675483703613 C17.579910278320312 3.0431182384490967 18.771358489990234 4.550481796264648 19.286609649658203 6.267856121063232 C19.801860809326172 7.985230445861816 19.64091682434082 9.912614822387695 19.094350814819336 11.80530834197998 C18.54778480529785 13.698001861572266 17.615596771240234 15.55600357055664 16.58836555480957 17.134613037109375 C15.531432151794434 18.758865356445312 14.331507682800293 20.297780990600586 13.046415328979492 21.747156143188477 C12.718284606933594 22.117233276367188 12.493908882141113 22.829261779785156 12.000216484069824 22.79935073852539 C11.492769241333008 22.768606185913086 11.288668632507324 22.07233428955078 10.953788757324219 21.689838409423828 C9.679082870483398 20.233884811401367 8.473146438598633 18.70754051208496 7.411670684814453 17.08782386779785 C6.3707051277160645 15.49940299987793 5.442224979400635 13.65632152557373 4.903954982757568 11.784932136535645 C4.365684509277344 9.913542747497559 4.217624664306641 8.013845443725586 4.737499713897705 6.312193393707275 C5.2573747634887695 4.610540866851807 6.445185661315918 3.106933116912842 8.578656196594238 2.0277225971221924 C10.018821716308594 1.299218773841858 10.417840957641602 1.3920934200286865 12.000216484069824 1.2000007629394531 L12.000216484069824 1.2000007629394531"></path>
<path fill="none" stroke="black" stroke-width=".3" stroke-opacity="1.0"  filling="0" d="M12.000216484069824 13.704888343811035 L12.000216484069824 13.704888343811035 C10.11110782623291 13.32351303100586 8.561962127685547 12.856886863708496 7.744861125946045 10.884478569030762 C7.123279571533203 9.384037017822266 7.3704681396484375 7.780099391937256 8.181377410888672 6.551272392272949 C8.992286682128906 5.322444915771484 10.366915702819824 4.468728065490723 12.000216484069824 4.468728065490723 C13.633511543273926 4.468728065490723 15.00798511505127 5.32250452041626 15.818768501281738 6.551361560821533 C16.62955093383789 7.780218601226807 16.876644134521484 9.384156227111816 16.25517463684082 10.884478569030762 C15.438182830810547 12.856823921203613 13.889243125915527 13.323495864868164 12.000216484069824 13.704888343811035 L12.000216484069824 13.704888343811035"></path></svg>