<svg xmlns="http://www.w3.org/2000/svg" viewBox="0.0 0.0 24.0 24.0" height="200px" width="200px"><path fill="none" stroke="black" stroke-width=".3" stroke-opacity="1.0"  filling="0" d="M14.35619831085205 4.553990364074707 L14.35619831085205 4.553990364074707 C14.480826377868652 4.797851085662842 14.605453491210938 5.041711330413818 14.730081558227539 5.285572052001953 L14.730081558227539 5.285572052001953 C14.903977394104004 5.27377462387085 15.077872276306152 5.261977195739746 15.251768112182617 5.250179767608643 L15.251768112182617 5.250179767608643 C15.552996635437012 5.3543500900268555 15.85422420501709 5.458520889282227 16.155452728271484 5.5626912117004395 L16.155452728271484 5.5626912117004395 C16.244264602661133 5.502100944519043 16.33307456970215 5.441510200500488 16.421886444091797 5.380919933319092 L16.421886444091797 5.380919933319092 C16.432781219482422 5.323176383972168 16.44367790222168 5.265433311462402 16.454572677612305 5.2076897621154785 L16.454572677612305 5.2076897621154785 C16.771156311035156 5.408668041229248 17.08774185180664 5.609646797180176 17.404325485229492 5.810625076293945 L17.404325485229492 5.810625076293945 C17.515913009643555 5.79268217086792 17.62750244140625 5.774739742279053 17.739089965820312 5.756796836853027 L17.739089965820312 5.756796836853027 C17.799013137817383 5.866836071014404 17.85893440246582 5.9768757820129395 17.91885757446289 6.086915016174316 L17.91885757446289 6.086915016174316 C17.971391677856445 6.100329399108887 18.023927688598633 6.113743782043457 18.076461791992188 6.127158164978027 L18.076461791992188 6.127158164978027 C18.206554412841797 6.128178596496582 18.336647033691406 6.129199504852295 18.466739654541016 6.13021993637085 L18.466739654541016 6.13021993637085 C18.59325408935547 5.624617576599121 18.623336791992188 5.53339958190918 18.528892517089844 5.8489251136779785 L18.528892517089844 5.8489251136779785 C18.53037452697754 5.906464576721191 18.531856536865234 5.964003562927246 18.53333854675293 6.021543025970459 L18.53333854675293 6.021543025970459 C18.362287521362305 6.091270923614502 18.191238403320312 6.160998344421387 18.020187377929688 6.23072624206543 L18.020187377929688 6.23072624206543 C18.023452758789062 6.400688171386719 18.026718139648438 6.57064962387085 18.029983520507812 6.740611553192139 L18.029983520507812 6.740611553192139 C18.024538040161133 6.826681613922119 18.019094467163086 6.912752151489258 18.013648986816406 6.998822212219238 L18.013648986816406 6.998822212219238 C18.070302963256836 7.069639682769775 18.1269588470459 7.140456676483154 18.183612823486328 7.211274147033691 L18.183612823486328 7.211274147033691 C18.316530227661133 7.249406337738037 18.449447631835938 7.287539005279541 18.582365036010742 7.325671195983887 L18.582365036010742 7.325671195983887 C18.667346954345703 7.388862133026123 18.752328872680664 7.452052593231201 18.837310791015625 7.5152435302734375 L18.837310791015625 7.5152435302734375 C18.91745376586914 7.55327844619751 20.019702911376953 8.242308616638184 19.203380584716797 8.06108283996582 L19.203380584716797 8.06108283996582 C19.111862182617188 7.925985336303711 19.020343780517578 7.790887355804443 18.92882537841797 7.655789852142334 L18.92882537841797 7.655789852142334 C18.76524543762207 7.774486064910889 18.601665496826172 7.893182754516602 18.438085556030273 8.011878967285156 L18.438085556030273 8.011878967285156 C18.116838455200195 7.788590431213379 17.79559326171875 7.56530237197876 17.474346160888672 7.342013835906982 L17.474346160888672 7.342013835906982 C17.381040573120117 7.13857364654541 17.016328811645508 7.0609893798828125 16.823917388916016 7.175320625305176 L16.823917388916016 7.175320625305176 C16.486980438232422 6.880611419677734 16.62843132019043 6.981181621551514 17.072322845458984 7.632909297943115 L17.072322845458984 7.632909297943115 C17.010221481323242 7.647073268890381 16.9481201171875 7.661236763000488 16.886018753051758 7.675400733947754 L16.886018753051758 7.675400733947754 C16.686504364013672 7.7620158195495605 16.486989974975586 7.848630905151367 16.2874755859375 7.935245990753174 L16.2874755859375 7.935245990753174 C16.102397918701172 7.964117527008057 15.917319297790527 7.992989540100098 15.732240676879883 8.02186107635498 L15.732240676879883 8.02186107635498 C15.86515998840332 8.059993743896484 15.998079299926758 8.098125457763672 16.130998611450195 8.136258125305176 L16.130998611450195 8.136258125305176 C16.22551155090332 8.393379211425781 16.320026397705078 8.650501251220703 16.414539337158203 8.907622337341309 L16.414539337158203 8.907622337341309 C16.49434471130371 8.916337966918945 16.57415008544922 8.925053596496582 16.653955459594727 8.933769226074219 L16.653955459594727 8.933769226074219 C16.616138458251953 8.684233665466309 16.578323364257812 8.434698104858398 16.54050636291504 8.185162544250488 L16.54050636291504 8.185162544250488 C16.698848724365234 8.121467590332031 16.85719108581543 8.057771682739258 17.015533447265625 7.994076728820801 L17.015533447265625 7.994076728820801 C17.103679656982422 7.859949588775635 17.19182586669922 7.7258219718933105 17.279972076416016 7.5916948318481445 L17.279972076416016 7.5916948318481445 C17.409793853759766 7.8790435791015625 17.51529884338379 8.218984603881836 17.775049209594727 8.397736549377441 L17.775049209594727 8.397736549377441 C17.98750114440918 8.476180076599121 18.199953079223633 8.554624557495117 18.412405014038086 8.633068084716797 L18.412405014038086 8.633068084716797 C18.296918869018555 8.633068084716797 18.18143081665039 8.633068084716797 18.06594467163086 8.633068084716797 L18.06594467163086 8.633068084716797 C17.785484313964844 8.591769218444824 17.505022048950195 8.550470352172852 17.22456169128418 8.509171485900879 L17.22456169128418 8.509171485900879 C17.47154426574707 9.037393569946289 17.926151275634766 9.471549034118652 18.412405014038086 9.79338264465332 L18.412405014038086 9.79338264465332 C18.31979751586914 9.806456565856934 18.227190017700195 9.819531440734863 18.13458251953125 9.832605361938477 L18.13458251953125 9.832605361938477 C18.195186614990234 9.97424030303955 18.255788803100586 10.115874290466309 18.31639289855957 10.257509231567383 L18.31639289855957 10.257509231567383 C18.469331741333008 10.253150939941406 18.622268676757812 10.248793601989746 18.77520751953125 10.24443531036377 L18.77520751953125 10.24443531036377 C18.91357421875 10.27929973602295 19.05194091796875 10.314163208007812 19.1903076171875 10.349027633666992 L19.1903076171875 10.349027633666992 C19.25023078918457 10.32941722869873 19.310152053833008 10.309805870056152 19.370075225830078 10.29019546508789 L19.370075225830078 10.29019546508789 C19.562915802001953 10.238988876342773 19.755756378173828 10.187782287597656 19.948596954345703 10.136575698852539 L19.948596954345703 10.136575698852539 C20.161405563354492 10.17583179473877 20.374216079711914 10.215086936950684 20.587024688720703 10.254343032836914 L20.587024688720703 10.254343032836914 C20.624799728393555 10.169328689575195 20.66257667541504 10.08431339263916 20.70035171508789 9.999299049377441 L20.70035171508789 9.999299049377441 C20.796226501464844 10.194318771362305 20.892101287841797 10.389339447021484 20.98797607421875 10.584359169006348 L20.98797607421875 10.584359169006348 C21.218780517578125 10.514617919921875 21.69918441772461 10.421820640563965 21.707042694091797 10.662803649902344 L21.707042694091797 10.662803649902344 C21.428062438964844 10.9133882522583 21.149084091186523 11.163971900939941 20.87010383605957 11.414556503295898 L20.87010383605957 11.414556503295898 C20.925737380981445 11.34809684753418 20.981369018554688 11.281638145446777 21.037002563476562 11.215178489685059 L21.037002563476562 11.215178489685059 C21.031551361083984 11.416735649108887 21.02610206604004 11.618291854858398 21.02065086364746 11.819849014282227 L21.02065086364746 11.819849014282227 C21.341644287109375 11.73704719543457 21.66263771057129 11.65424633026123 21.983631134033203 11.571444511413574 L21.983631134033203 11.571444511413574 C22.103883743286133 11.65097713470459 22.224138259887695 11.730510711669922 22.344390869140625 11.810043334960938 L22.344390869140625 11.810043334960938 C22.18561363220215 12.026156425476074 22.026838302612305 12.242268562316895 21.868061065673828 12.458381652832031 L21.868061065673828 12.458381652832031 C21.967119216918945 12.434906005859375 22.06617546081543 12.411430358886719 22.165233612060547 12.387954711914062 L22.165233612060547 12.387954711914062 C22.049543380737305 12.388153076171875 21.93385124206543 12.388351440429688 21.818161010742188 12.3885498046875 L21.818161010742188 12.3885498046875 C21.612245559692383 12.543258666992188 21.40633201599121 12.697966575622559 21.200416564941406 12.852675437927246 L21.200416564941406 12.852675437927246 C21.147031784057617 12.89843463897705 21.093645095825195 12.944192886352539 21.040260314941406 12.989952087402344 L21.040260314941406 12.989952087402344 C21.275182723999023 13.233454704284668 21.510107040405273 13.476957321166992 21.74502944946289 13.720459938049316 L21.74502944946289 13.720459938049316 C21.744047164916992 13.968493461608887 21.83693504333496 14.21835708618164 21.96314239501953 14.431882858276367 L21.96314239501953 14.431882858276367 C21.821096420288086 14.545015335083008 21.679048538208008 14.658147811889648 21.537002563476562 14.771280288696289 L21.537002563476562 14.771280288696289 C21.05589485168457 14.995223045349121 20.504114151000977 15.037811279296875 19.975067138671875 15.079336166381836 L19.975067138671875 15.079336166381836 C19.89539909362793 14.921086311340332 19.81572914123535 14.762837409973145 19.736061096191406 14.60458755493164 L19.736061096191406 14.60458755493164 C19.689212799072266 14.589334487915039 19.642362594604492 14.574082374572754 19.59551429748535 14.558829307556152 L19.59551429748535 14.558829307556152 C19.35800552368164 14.44007396697998 19.120494842529297 14.321318626403809 18.882986068725586 14.202563285827637 L18.882986068725586 14.202563285827637 C18.618051528930664 14.566028594970703 18.074316024780273 14.697629928588867 17.624614715576172 14.689569473266602 L17.624614715576172 14.689569473266602 C17.67582130432129 14.77019214630127 17.727027893066406 14.850815773010254 17.778234481811523 14.931438446044922 L17.778234481811523 14.931438446044922 C17.221426010131836 14.91093635559082 16.667497634887695 14.731511116027832 16.166866302490234 14.486923217773438 L16.166866302490234 14.486923217773438 C15.94243049621582 14.34964656829834 15.71799373626709 14.212369918823242 15.493557929992676 14.075093269348145 L15.493557929992676 14.075093269348145 C15.327547073364258 14.42208194732666 15.169876098632812 14.773028373718262 15.013086318969727 15.124279975891113 L15.013086318969727 15.124279975891113 C15.01744270324707 14.961944580078125 15.021798133850098 14.799609184265137 15.026154518127441 14.637273788452148 L15.026154518127441 14.637273788452148 C14.938824653625488 14.607636451721191 14.851494789123535 14.577998161315918 14.764164924621582 14.548360824584961 L14.764164924621582 14.548360824584961 C14.847136497497559 14.397141456604004 14.930109024047852 14.245923042297363 15.013080596923828 14.094703674316406 L15.013080596923828 14.094703674316406 C14.71564769744873 14.104509353637695 14.418214797973633 14.114314079284668 14.120781898498535 14.124119758605957 L14.120781898498535 14.124119758605957 C13.797201156616211 14.25812816619873 13.47361946105957 14.39213752746582 13.150038719177246 14.526145935058594 L13.150038719177246 14.526145935058594 C13.160934448242188 14.621477127075195 13.171829223632812 14.71680736541748 13.182724952697754 14.812138557434082 L13.182724952697754 14.812138557434082 C12.995964050292969 16.101478576660156 13.243022918701172 17.416446685791016 12.1774320602417 18.18084716796875 L12.1774320602417 18.18084716796875 C12.328108787536621 17.20402717590332 13.63679313659668 14.363295555114746 12.062039375305176 14.273246765136719 L12.062039375305176 14.273246765136719 C11.97583293914795 14.371709823608398 11.889627456665039 14.470172882080078 11.803421020507812 14.568635940551758 L11.803421020507812 14.568635940551758 C11.541940689086914 14.650348663330078 11.280461311340332 14.732061386108398 11.018980979919434 14.813774108886719 L11.018980979919434 14.813774108886719 C10.996101379394531 14.76910400390625 10.973222732543945 14.724434852600098 10.950343132019043 14.679764747619629 L10.950343132019043 14.679764747619629 C10.78038215637207 14.68739128112793 10.610420227050781 14.695016860961914 10.440459251403809 14.702643394470215 L10.440459251403809 14.702643394470215 C10.114108085632324 14.581937789916992 9.752077102661133 14.805374145507812 9.406643867492676 14.847223281860352 C8.80329704284668 14.920317649841309 8.699971199035645 14.4323148727417 8.453213691711426 14.032602310180664 L8.453213691711426 14.032602310180664 C8.318116188049316 14.27556037902832 8.183018684387207 14.518518447875977 8.047921180725098 14.761476516723633 L8.047921180725098 14.761476516723633 C8.094769477844238 14.800698280334473 8.141617774963379 14.839920997619629 8.18846607208252 14.879142761230469 L8.18846607208252 14.879142761230469 C8.091500282287598 14.822488784790039 7.994535446166992 14.76583480834961 7.8975701332092285 14.70918083190918 L7.8975701332092285 14.70918083190918 C7.816946983337402 14.878052711486816 7.736324310302734 15.04692554473877 7.655701160430908 15.215797424316406 L7.655701160430908 15.215797424316406 C7.284964561462402 15.229042053222656 6.87576961517334 15.390533447265625 7.408108234405518 14.953916549682617 L7.408108234405518 14.953916549682617 C7.359318733215332 14.865513801574707 7.310529708862305 14.777111053466797 7.261740207672119 14.688708305358887 L7.261740207672119 14.688708305358887 C7.134848117828369 14.587674140930176 7.007955551147461 14.486640930175781 6.881063461303711 14.38560676574707 L6.881063461303711 14.38560676574707 C6.766291618347168 14.391191482543945 6.651519775390625 14.39677619934082 6.536747932434082 14.402360916137695 L6.536747932434082 14.402360916137695 C6.495176792144775 14.663022994995117 6.453605651855469 14.923685073852539 6.412034511566162 15.184347152709961 L6.412034511566162 15.184347152709961 C6.5062761306762695 15.331021308898926 6.600517272949219 15.477694511413574 6.694758892059326 15.624368667602539 L6.694758892059326 15.624368667602539 C6.415850639343262 15.578475952148438 6.1369428634643555 15.532583236694336 5.858034610748291 15.486690521240234 L5.858034610748291 15.486690521240234 C5.875772953033447 15.131105422973633 5.893510818481445 14.775520324707031 5.911249160766602 14.41993522644043 L5.911249160766602 14.41993522644043 C5.8139777183532715 14.342036247253418 5.716706275939941 14.264137268066406 5.619434833526611 14.186238288879395 L5.619434833526611 14.186238288879395 C5.278739929199219 14.328750610351562 4.960219860076904 14.524429321289062 4.657680034637451 14.736213684082031 L4.657680034637451 14.736213684082031 C4.501694679260254 14.537618637084961 4.4397172927856445 14.104726791381836 4.189723491668701 14.14042854309082 C3.855013608932495 14.18822956085205 3.740952730178833 14.646262168884277 3.5165672302246094 14.899178504943848 L3.5165672302246094 14.899178504943848 C3.4886486530303955 15.033050537109375 3.4607303142547607 15.166922569274902 3.432811737060547 15.30079460144043 L3.432811737060547 15.30079460144043 C3.3892319202423096 15.028044700622559 3.3456523418426514 14.755293846130371 3.302072525024414 14.4825439453125 L3.302072525024414 14.4825439453125 C3.4227683544158936 14.296393394470215 3.543463945388794 14.11024284362793 3.6641597747802734 13.924092292785645 L3.6641597747802734 13.924092292785645 C3.324475049972534 13.842601776123047 2.984790086746216 13.761110305786133 2.6451053619384766 13.679619789123535 L2.6451053619384766 13.679619789123535 C2.413274049758911 13.549973487854004 2.1092705726623535 13.712713241577148 1.8565807342529297 13.794578552246094 L1.8565807342529297 13.794578552246094 C1.8132728338241577 13.741005897521973 1.7699648141860962 13.687432289123535 1.7266569137573242 13.633859634399414 L1.7266569137573242 13.633859634399414 C1.677630066871643 13.483509063720703 1.6286033391952515 13.333159446716309 1.5795764923095703 13.182808876037598 L1.5795764923095703 13.182808876037598 C1.7604331970214844 13.169734954833984 1.9412899017333984 13.156660079956055 2.1221466064453125 13.143586158752441 L2.1221466064453125 13.143586158752441 C2.583980083465576 13.069761276245117 3.0464725494384766 12.99107837677002 3.4985389709472656 12.871177673339844 L3.4985389709472656 12.871177673339844 C3.8437907695770264 12.82143497467041 4.189042568206787 12.771693229675293 4.534294128417969 12.72195053100586 L4.534294128417969 12.72195053100586 C4.557173728942871 12.521482467651367 4.580053329467773 12.321015357971191 4.602932929992676 12.1205472946167 L4.602932929992676 12.1205472946167 C5.140191555023193 11.95943832397461 5.677449703216553 11.798328399658203 6.21470832824707 11.637219429016113 L6.21470832824707 11.637219429016113 C6.368191242218018 11.767823219299316 6.521674633026123 11.898426055908203 6.67515754699707 12.029029846191406 L6.67515754699707 12.029029846191406 C6.6577253341674805 11.865605354309082 6.640293598175049 11.702179908752441 6.622861385345459 11.538755416870117 L6.622861385345459 11.538755416870117 C6.69476842880249 11.355719566345215 6.76667594909668 11.172684669494629 6.838582992553711 10.989648818969727 L6.838582992553711 10.989648818969727 C7.103083610534668 11.175992012023926 7.403570175170898 11.30789852142334 7.701464653015137 11.434165000915527 L7.701464653015137 11.434165000915527 C7.681076526641846 11.082834243774414 7.636796474456787 10.73288631439209 7.583798885345459 10.384978294372559 L7.583798885345459 10.384978294372559 C7.532057762145996 10.210041046142578 7.2385573387146 10.257526397705078 7.057571887969971 10.234625816345215 L7.057571887969971 10.234625816345215 C6.881073474884033 10.001473426818848 6.7045745849609375 9.768321990966797 6.528076171875 9.53516960144043 L6.528076171875 9.53516960144043 C6.7346720695495605 9.604522705078125 6.941268444061279 9.67387580871582 7.14786434173584 9.743228912353516 L7.14786434173584 9.743228912353516 C7.474032878875732 9.540956497192383 7.800200939178467 9.338685035705566 8.12636947631836 9.136412620544434 L8.12636947631836 9.136412620544434 C8.033761978149414 9.175634384155273 7.941154956817627 9.214856147766113 7.848547458648682 9.254077911376953 L7.848547458648682 9.254077911376953 C7.6842546463012695 9.261652946472168 7.519961357116699 9.2692289352417 7.355668544769287 9.276803970336914 L7.355668544769287 9.276803970336914 C7.304240703582764 9.199501037597656 7.252813339233398 9.122198104858398 7.201385498046875 9.04489517211914 L7.201385498046875 9.04489517211914 C7.008544445037842 9.05470085144043 6.81570291519165 9.064506530761719 6.622861862182617 9.074312210083008 L6.622861862182617 9.074312210083008 C6.360771179199219 8.990241050720215 6.0124053955078125 9.168987274169922 5.864571571350098 9.40116024017334 L5.864571571350098 9.40116024017334 C5.739279270172119 9.372833251953125 5.613986968994141 9.344507217407227 5.488694667816162 9.316180229187012 L5.488694667816162 9.316180229187012 C5.38955020904541 9.273689270019531 5.290406227111816 9.231199264526367 5.1912617683410645 9.188708305358887 L5.1912617683410645 9.188708305358887 C4.96355676651001 9.190887451171875 4.735851764678955 9.193066596984863 4.5081467628479 9.195245742797852 L4.5081467628479 9.195245742797852 C3.2958340644836426 9.345328330993652 3.9429287910461426 7.8763747215271 4.490374565124512 8.47750473022461 L4.490374565124512 8.47750473022461 C4.647738933563232 8.355037689208984 4.805102825164795 8.232571601867676 4.962467193603516 8.11010456085205 L4.962467193603516 8.11010456085205 C5.204335689544678 8.018587112426758 5.446204662322998 7.927069187164307 5.68807315826416 7.8355512619018555 L5.68807315826416 7.8355512619018555 C5.7340192794799805 7.828673362731934 5.779964923858643 7.82179594039917 5.825911045074463 7.814918041229248 L5.825911045074463 7.814918041229248 C5.948111057281494 7.7446608543396 6.07026481628418 7.632689476013184 6.103172302246094 7.495627403259277 L6.103172302246094 7.495627403259277 C6.179347038269043 7.240381240844727 5.9075608253479 6.766295909881592 6.1652727127075195 6.69893217086792 C6.365658283233643 6.646553039550781 6.553134441375732 6.844379425048828 6.74706506729126 6.917103290557861 L6.74706506729126 6.917103290557861 C6.904871940612793 6.90648078918457 7.062678813934326 6.895858287811279 7.220485687255859 6.885235786437988 L7.220485687255859 6.885235786437988 C7.277309894561768 7.143174648284912 7.334134101867676 7.401113033294678 7.390958309173584 7.659051895141602 L7.390958309173584 7.659051895141602 C7.7366509437561035 7.500597953796387 8.003719329833984 7.516557216644287 8.380085945129395 7.50502347946167 L8.380085945129395 7.50502347946167 C8.521039962768555 7.485548496246338 8.661993980407715 7.466073989868164 8.802947998046875 7.446599006652832 L8.802947998046875 7.446599006652832 C8.848706245422363 7.5806074142456055 8.894465446472168 7.714615345001221 8.940223693847656 7.848623752593994 L8.940223693847656 7.848623752593994 C9.19205093383789 7.78480339050293 9.443878173828125 7.720982551574707 9.69570541381836 7.657162189483643 L9.69570541381836 7.657162189483643 C9.915949821472168 7.008092403411865 9.699766159057617 6.813374042510986 10.296394348144531 6.3693742752075195 L10.296394348144531 6.3693742752075195 C10.335020065307617 6.336366176605225 10.373645782470703 6.30335807800293 10.412271499633789 6.270349979400635 L10.412271499633789 6.270349979400635 C10.578556060791016 6.472860336303711 10.744841575622559 6.675370693206787 10.911126136779785 6.877881050109863 L10.911126136779785 6.877881050109863 C11.034831047058105 6.576114177703857 11.411920547485352 6.35317850112915 11.738054275512695 6.354923248291016 L11.738054275512695 6.354923248291016 C12.085776329040527 5.414494037628174 12.793306350708008 6.9355034828186035 12.535566329956055 6.299358367919922 L12.535566329956055 6.299358367919922 C12.448407173156738 6.14138126373291 12.361247062683105 5.983404159545898 12.274087905883789 5.825427055358887 L12.274087905883789 5.825427055358887 C12.533388137817383 5.903871059417725 12.792688369750977 5.982314586639404 13.05198860168457 6.060758590698242 L13.05198860168457 6.060758590698242 C13.18272876739502 5.808165073394775 13.313467979431152 5.555572032928467 13.444208145141602 5.302978515625 L13.444208145141602 5.302978515625 C13.748178482055664 5.053313255310059 14.052149772644043 4.803647994995117 14.356120109558105 4.553982734680176 L14.356120109558105 4.553982734680176"></path>
<path fill="none" stroke="black" stroke-width=".3" stroke-opacity="1.0"  filling="0" d="M16.859865188598633 5.429947853088379 L16.859865188598633 5.429947853088379 C16.667024612426758 5.892439842224121 16.667024612426758 5.892439842224121 16.859865188598633 5.429947853088379 L16.859865188598633 5.429947853088379"></path>
<path fill="none" stroke="black" stroke-width=".3" stroke-opacity="1.0"  filling="0" d="M13.663278579711914 5.6456685066223145 L13.663278579711914 5.6456685066223145 C13.711487770080566 5.647166728973389 13.759697914123535 5.648665428161621 13.807907104492188 5.650163650512695 L13.663278579711914 5.6456685066223145"></path>
<path fill="none" stroke="black" stroke-width=".3" stroke-opacity="1.0"  filling="0" d="M17.0494384765625 5.786214828491211 L17.20632553100586 6.054230690002441 C17.154029846191406 5.9648919105529785 17.101734161376953 5.875552654266357 17.0494384765625 5.7862138748168945 L17.0494384765625 5.7862138748168945"></path>
<path fill="none" stroke="black" stroke-width=".3" stroke-opacity="1.0"  filling="0" d="M15.967568397521973 5.975787162780762 L15.967568397521973 5.975787162780762 C16.142433166503906 6.00139045715332 16.317296981811523 6.026993274688721 16.49216079711914 6.052596569061279 L16.49216079711914 6.052596569061279 C16.317296981811523 6.026993274688721 16.142433166503906 6.00139045715332 15.967568397521973 5.975787162780762 L15.967568397521973 5.975787162780762"></path>
<path fill="none" stroke="black" stroke-width=".3" stroke-opacity="1.0"  filling="0" d="M15.588422775268555 6.41702938079834 L15.588422775268555 6.41702938079834 C15.627644538879395 6.412261962890625 15.666866302490234 6.40749454498291 15.706088066101074 6.402727127075195 L15.588422775268555 6.41702938079834"></path>
<path fill="none" stroke="black" stroke-width=".3" stroke-opacity="1.0"  filling="0" d="M12.453934669494629 6.619673728942871 L12.453934669494629 6.619673728942871 C12.585220336914062 6.8931379318237305 12.585220336914062 6.8931379318237305 12.453934669494629 6.619673728942871 L12.453934669494629 6.619673728942871"></path>
<path fill="none" stroke="black" stroke-width=".3" stroke-opacity="1.0"  filling="0" d="M11.538756370544434 6.7438788414001465 L11.538756370544434 6.7438788414001465 C11.690196990966797 6.7645792961120605 11.841636657714844 6.785279750823975 11.993077278137207 6.805980205535889 L11.993077278137207 6.805980205535889 C11.841636657714844 6.785279750823975 11.690196990966797 6.7645792961120605 11.538756370544434 6.7438788414001465 L11.538756370544434 6.7438788414001465"></path>
<path fill="none" stroke="black" stroke-width=".3" stroke-opacity="1.0"  filling="0" d="M12.85922908782959 6.858276844024658 L12.85922908782959 6.858276844024658 C12.52032470703125 7.214474678039551 12.52032470703125 7.214474678039551 12.85922908782959 6.858276844024658 L12.85922908782959 6.858276844024658"></path>
<path fill="none" stroke="black" stroke-width=".3" stroke-opacity="1.0"  filling="0" d="M10.849104881286621 7.044582366943359 L10.849104881286621 7.044582366943359 C10.871728897094727 7.090068817138672 10.894353866577148 7.135555744171143 10.916977882385254 7.181042194366455 L10.916977882385254 7.181042194366455 C11.030540466308594 7.160614013671875 11.144103050231934 7.140186309814453 11.257665634155273 7.119758129119873 L11.257665634155273 7.119758129119873 C11.454082489013672 7.360929012298584 11.650498390197754 7.602099418640137 11.846915245056152 7.843270301818848 L11.846915245056152 7.843270301818848 C11.816102981567383 7.873384475708008 11.785289764404297 7.903499126434326 11.754477500915527 7.933613300323486 L11.754477500915527 7.933613300323486 C11.563372611999512 7.792693138122559 11.372268676757812 7.651773452758789 11.181163787841797 7.510853290557861 L11.181163787841797 7.510853290557861 C10.813985824584961 7.533846378326416 10.441323280334473 7.570174217224121 10.090813636779785 7.681938648223877 L10.090813636779785 7.681938648223877 C10.193849563598633 7.368236541748047 10.565486907958984 7.213657379150391 10.849104881286621 7.044582366943359 L10.849104881286621 7.044582366943359"></path>
<path fill="none" stroke="black" stroke-width=".3" stroke-opacity="1.0"  filling="0" d="M6.894227027893066 7.247228622436523 L6.894227027893066 7.247228622436523 C6.947612285614014 7.217812538146973 7.000998020172119 7.188395977020264 7.054383277893066 7.158979892730713 L6.894227027893066 7.247228622436523"></path>
<path fill="none" stroke="black" stroke-width=".3" stroke-opacity="1.0"  filling="0" d="M15.134100914001465 7.662328243255615 L15.134100914001465 7.662328243255615 C15.18421745300293 7.820305347442627 15.234333992004395 7.978282928466797 15.28445053100586 8.136260032653809 L15.28445053100586 8.136260032653809 C15.234333992004395 7.978282928466797 15.18421745300293 7.820305347442627 15.134100914001465 7.662328243255615 L15.134100914001465 7.662328243255615"></path>
<path fill="none" stroke="black" stroke-width=".3" stroke-opacity="1.0"  filling="0" d="M12.8853759765625 8.969725608825684 L12.8853759765625 8.969725608825684 C13.186690330505371 9.16651725769043 13.186690330505371 9.16651725769043 12.8853759765625 8.969725608825684 L12.8853759765625 8.969725608825684"></path>
<path fill="none" stroke="black" stroke-width=".3" stroke-opacity="1.0"  filling="0" d="M16.95792007446289 9.404427528381348 L16.95792007446289 9.404427528381348 C17.073406219482422 9.417501449584961 17.188894271850586 9.43057632446289 17.304380416870117 9.443650245666504 L16.95792007446289 9.404427528381348"></path>
<path fill="none" stroke="black" stroke-width=".3" stroke-opacity="1.0"  filling="0" d="M8.237577438354492 9.407695770263672 L8.237577438354492 9.407695770263672 C8.423881530761719 9.486767768859863 8.610186576843262 9.565840721130371 8.796490669250488 9.644912719726562 L8.796490669250488 9.644912719726562 C8.551353454589844 9.71510124206543 8.3062162399292 9.785289764404297 8.061079025268555 9.855478286743164 L8.061079025268555 9.855478286743164 C8.119912147521973 9.706217765808105 8.178744316101074 9.55695629119873 8.237577438354492 9.407695770263672 L8.237577438354492 9.407695770263672"></path>
<path fill="none" stroke="black" stroke-width=".3" stroke-opacity="1.0"  filling="0" d="M7.891117572784424 10.522256851196289 L7.891117572784424 10.522256851196289 C7.92838191986084 10.506117820739746 7.965646266937256 10.48997974395752 8.002910614013672 10.473840713500977 L7.891117572784424 10.522256851196289"></path>
<path fill="none" stroke="black" stroke-width=".3" stroke-opacity="1.0"  filling="0" d="M16.01986312866211 10.862183570861816 L16.147335052490234 11.025603294372559 C16.10484504699707 10.971128463745117 16.062353134155273 10.916653633117676 16.01986312866211 10.862178802490234 L16.01986312866211 10.862178802490234"></path>
<path fill="none" stroke="black" stroke-width=".3" stroke-opacity="1.0"  filling="0" d="M9.038358688354492 11.195565223693848 L9.087284088134766 11.079381942749023 C9.124361038208008 11.147526741027832 9.161438941955566 11.215670585632324 9.198515892028809 11.283815383911133 L9.198515892028809 11.283815383911133 C9.145130157470703 11.254398345947266 9.091744422912598 11.224982261657715 9.038358688354492 11.195565223693848 L9.038358688354492 11.195565223693848"></path>
<path fill="none" stroke="black" stroke-width=".3" stroke-opacity="1.0"  filling="0" d="M19.167421340942383 11.290349960327148 L19.167421340942383 11.290349960327148 C19.171483993530273 11.290349960327148 19.175548553466797 11.290349960327148 19.179611206054688 11.290349960327148 L19.167421340942383 11.290349960327148"></path>
<path fill="none" stroke="black" stroke-width=".3" stroke-opacity="1.0"  filling="0" d="M14.888962745666504 11.293618202209473 L14.888962745666504 11.293618202209473 C14.843204498291016 11.474474906921387 14.797445297241211 11.6553316116333 14.751687049865723 11.836188316345215 L14.751687049865723 11.836188316345215 C14.797445297241211 11.6553316116333 14.843204498291016 11.474474906921387 14.888962745666504 11.293618202209473 L14.888962745666504 11.293618202209473"></path>
<path fill="none" stroke="black" stroke-width=".3" stroke-opacity="1.0"  filling="0" d="M12.257824897766113 11.342649459838867 L12.257824897766113 11.342649459838867 C12.273077964782715 11.14436149597168 12.288331985473633 10.946072578430176 12.303585052490234 10.747784614562988 L12.303585052490234 10.747784614562988 C12.288331985473633 10.946072578430176 12.273077964782715 11.14436149597168 12.257824897766113 11.342649459838867 L12.257824897766113 11.342649459838867"></path>
<path fill="none" stroke="black" stroke-width=".3" stroke-opacity="1.0"  filling="0" d="M8.423882484436035 11.391679763793945 L8.423882484436035 11.391679763793945 C8.497967720031738 11.595416069030762 8.572053909301758 11.799151420593262 8.646139144897461 12.002887725830078 L8.646139144897461 12.002887725830078 C8.572053909301758 11.799151420593262 8.497967720031738 11.595416069030762 8.423882484436035 11.391679763793945 L8.423882484436035 11.391679763793945"></path>
<path fill="none" stroke="black" stroke-width=".3" stroke-opacity="1.0"  filling="0" d="M10.502644538879395 11.542033195495605 L10.502644538879395 11.542033195495605 C10.50734806060791 11.550393104553223 10.51205062866211 11.55875301361084 10.516754150390625 11.567112922668457 L10.502644538879395 11.542033195495605"></path>
<path fill="none" stroke="black" stroke-width=".3" stroke-opacity="1.0"  filling="0" d="M12.875571250915527 11.659687995910645 L12.875571250915527 11.659687995910645 C13.029190063476562 11.589960098266602 13.182809829711914 11.520233154296875 13.33642864227295 11.450505256652832 L13.33642864227295 11.450505256652832 C13.182809829711914 11.520233154296875 13.029190063476562 11.589960098266602 12.875571250915527 11.659687995910645 L12.875571250915527 11.659687995910645"></path>
<path fill="none" stroke="black" stroke-width=".3" stroke-opacity="1.0"  filling="0" d="M5.0900187492370605 11.816584587097168 L5.0900187492370605 11.816584587097168 C5.12501859664917 11.842732429504395 5.1600189208984375 11.868881225585938 5.195018768310547 11.895029067993164 L5.0900187492370605 11.816584587097168"></path>
<path fill="none" stroke="black" stroke-width=".3" stroke-opacity="1.0"  filling="0" d="M20.210071563720703 12.244756698608398 L20.210071563720703 12.244756698608398 C20.622516632080078 12.162022590637207 20.622516632080078 12.162022590637207 20.210071563720703 12.244756698608398 L20.210071563720703 12.244756698608398"></path>
<path fill="none" stroke="black" stroke-width=".3" stroke-opacity="1.0"  filling="0" d="M10.839299201965332 12.29378604888916 L10.839299201965332 12.29378604888916 C11.081168174743652 12.29814338684082 11.323036193847656 12.302501678466797 11.564905166625977 12.306859016418457 L11.564905166625977 12.306859016418457 C11.499534606933594 12.382035255432129 11.434165000915527 12.457210540771484 11.368794441223145 12.532386779785156 L11.368794441223145 12.532386779785156 C11.192296028137207 12.452853202819824 11.01579761505127 12.373319625854492 10.839299201965332 12.29378604888916 L10.839299201965332 12.29378604888916"></path>
<path fill="none" stroke="black" stroke-width=".3" stroke-opacity="1.0"  filling="0" d="M10.496114730834961 12.447402954101562 L10.496114730834961 12.447402954101562 C10.533157348632812 12.456119537353516 10.570199966430664 12.464835166931152 10.607242584228516 12.473551750183105 L10.607242584228516 12.473551750183105 C10.758683204650879 12.508415222167969 10.910122871398926 12.543279647827148 11.061563491821289 12.578143119812012 L11.061563491821289 12.578143119812012 C11.035415649414062 12.770984649658203 11.00926685333252 12.963825225830078 10.983119010925293 13.15666675567627 L10.983119010925293 13.15666675567627 C10.951523780822754 13.179546356201172 10.919928550720215 13.202425956726074 10.888333320617676 13.225305557250977 L10.888333320617676 13.225305557250977 C10.739173889160156 12.99317455291748 10.590014457702637 12.761043548583984 10.440855026245117 12.528912544250488 L10.440855026245117 12.528912544250488 C10.30020809173584 12.667346954345703 10.159560203552246 12.805780410766602 10.018913269042969 12.944214820861816 L10.018913269042969 12.944214820861816 C10.035255432128906 13.010674476623535 10.05159854888916 13.077134132385254 10.067940711975098 13.143593788146973 L10.067940711975098 13.143593788146973 C9.923497200012207 13.239639282226562 9.779054641723633 13.335685729980469 9.634611129760742 13.431731224060059 L9.634611129760742 13.431731224060059 C9.634098052978516 13.35095500946045 9.633584022521973 13.270179748535156 9.633070945739746 13.189403533935547 L9.633070945739746 13.189403533935547 C9.824873924255371 13.037946701049805 10.016676902770996 12.886488914489746 10.208479881286621 12.735032081604004 L10.208479881286621 12.735032081604004 C10.30435562133789 12.639155387878418 10.40023136138916 12.543279647827148 10.49610710144043 12.447402954101562 L10.49610710144043 12.447402954101562"></path>
<path fill="none" stroke="black" stroke-width=".3" stroke-opacity="1.0"  filling="0" d="M8.920692443847656 12.51604175567627 L9.301881790161133 12.547093391418457 C9.174818992614746 12.5367431640625 9.047755241394043 12.526391983032227 8.920692443847656 12.51604175567627 L8.920692443847656 12.51604175567627"></path>
<path fill="none" stroke="black" stroke-width=".3" stroke-opacity="1.0"  filling="0" d="M5.926753044128418 12.679466247558594 L5.926753044128418 12.679466247558594"></path>
<path fill="none" stroke="black" stroke-width=".3" stroke-opacity="1.0"  filling="0" d="M8.198354721069336 12.816742897033691 L8.217966079711914 12.934408187866211 C8.211429595947266 12.895186424255371 8.204893112182617 12.855964660644531 8.198356628417969 12.816742897033691 L8.198356628417969 12.816742897033691"></path>
<path fill="none" stroke="black" stroke-width=".3" stroke-opacity="1.0"  filling="0" d="M18.850379943847656 12.92133617401123 L18.850379943847656 12.92133617401123 C18.863452911376953 12.886608123779297 18.87652587890625 12.851880073547363 18.889598846435547 12.81715202331543 L18.850379943847656 12.92133617401123"></path>
<path fill="none" stroke="black" stroke-width=".3" stroke-opacity="1.0"  filling="0" d="M16.474184036254883 13.08149242401123 L16.474184036254883 13.08149242401123 C16.554805755615234 13.123983383178711 16.63542938232422 13.166473388671875 16.71605110168457 13.208964347839355 L16.71605110168457 13.208964347839355 C16.63542938232422 13.166473388671875 16.554805755615234 13.123983383178711 16.474184036254883 13.08149242401123 L16.474184036254883 13.08149242401123"></path>
<path fill="none" stroke="black" stroke-width=".3" stroke-opacity="1.0"  filling="0" d="M3.0635528564453125 13.280872344970703 L3.0635528564453125 13.280872344970703 C3.1626968383789062 13.392001152038574 3.2618408203125 13.503129959106445 3.3609848022460938 13.614258766174316 L3.3609848022460938 13.614258766174316 C3.2618408203125 13.503129959106445 3.1626968383789062 13.392001152038574 3.0635528564453125 13.280872344970703 L3.0635528564453125 13.280872344970703"></path>
<path fill="none" stroke="black" stroke-width=".3" stroke-opacity="1.0"  filling="0" d="M12.761174201965332 13.316823959350586 L12.761174201965332 13.316823959350586 C12.765237808227539 13.316823959350586 12.76930046081543 13.316823959350586 12.773364067077637 13.316823959350586 L12.761174201965332 13.316823959350586"></path>
<path fill="none" stroke="black" stroke-width=".3" stroke-opacity="1.0"  filling="0" d="M12.457202911376953 13.38219165802002 L12.457202911376953 13.38219165802002 C12.536736488342285 13.594643592834473 12.616270065307617 13.807096481323242 12.69580364227295 14.019548416137695 L12.69580364227295 14.019548416137695 C12.616270065307617 13.807096481323242 12.536736488342285 13.594643592834473 12.457202911376953 13.38219165802002 L12.457202911376953 13.38219165802002"></path>
<path fill="none" stroke="black" stroke-width=".3" stroke-opacity="1.0"  filling="0" d="M17.209590911865234 13.388727188110352 L17.209590911865234 13.388727188110352 C17.20014762878418 13.767027854919434 17.02581024169922 14.28366756439209 16.660486221313477 14.38235092163086 L16.660486221313477 14.38235092163086 C16.84964942932129 14.167583465576172 17.038814544677734 13.952815055847168 17.227977752685547 13.73804759979248 L17.227977752685547 13.73804759979248 C17.22184944152832 13.621607780456543 17.215721130371094 13.505167007446289 17.209592819213867 13.388727188110352 L17.209592819213867 13.388727188110352"></path>
<path fill="none" stroke="black" stroke-width=".3" stroke-opacity="1.0"  filling="0" d="M14.401958465576172 13.391996383666992 L14.401958465576172 13.391996383666992 C14.411702156066895 13.394245147705078 14.421446800231934 13.396493911743164 14.431190490722656 13.39874267578125 L14.401958465576172 13.391996383666992"></path>
<path fill="none" stroke="black" stroke-width=".3" stroke-opacity="1.0"  filling="0" d="M9.283495903015137 13.460636138916016 L9.283495903015137 13.460636138916016 C9.329593658447266 14.0499849319458 9.329593658447266 14.0499849319458 9.283495903015137 13.460636138916016 L9.283495903015137 13.460636138916016"></path>
<path fill="none" stroke="black" stroke-width=".3" stroke-opacity="1.0"  filling="0" d="M14.751687049865723 13.486784934997559 L14.751687049865723 13.486784934997559 C14.791197776794434 13.471991539001465 14.830708503723145 13.457198143005371 14.870219230651855 13.442404747009277 L14.751687049865723 13.486784934997559"></path>
<path fill="none" stroke="black" stroke-width=".3" stroke-opacity="1.0"  filling="0" d="M16.513404846191406 13.71884822845459 L16.513404846191406 13.71884822845459 C16.564985275268555 13.837569236755371 16.616567611694336 13.956290245056152 16.668148040771484 14.075011253356934 L16.668148040771484 14.075011253356934 C16.616567611694336 13.956290245056152 16.564985275268555 13.837569236755371 16.513404846191406 13.71884822845459 L16.513404846191406 13.71884822845459"></path>
<path fill="none" stroke="black" stroke-width=".3" stroke-opacity="1.0"  filling="0" d="M14.584993362426758 13.751533508300781 L14.584993362426758 13.751533508300781 C14.700480461120605 13.72211742401123 14.815967559814453 13.692700386047363 14.9314546585083 13.663284301757812 L14.584993362426758 13.751533508300781"></path>
<path fill="none" stroke="black" stroke-width=".3" stroke-opacity="1.0"  filling="0" d="M18.13457679748535 13.862661361694336 L18.13457679748535 13.862661361694336 C18.20430564880371 14.04351806640625 18.274032592773438 14.224374771118164 18.343761444091797 14.405231475830078 L18.343761444091797 14.405231475830078 C18.285131454467773 14.396378517150879 18.226503372192383 14.387526512145996 18.16787338256836 14.378673553466797 L18.16787338256836 14.378673553466797 C18.156774520874023 14.206668853759766 18.145675659179688 14.03466510772705 18.13457679748535 13.86266040802002 L18.13457679748535 13.86266040802002"></path>
<path fill="none" stroke="black" stroke-width=".3" stroke-opacity="1.0"  filling="0" d="M7.763646125793457 13.875733375549316 L7.763646125793457 13.875733375549316 C7.855164051055908 13.982504844665527 7.946681499481201 14.089275360107422 8.038199424743652 14.196046829223633 L8.038199424743652 14.196046829223633 C7.946681499481201 14.089275360107422 7.855164051055908 13.982504844665527 7.763646125793457 13.875733375549316 L7.763646125793457 13.875733375549316"></path>
<path fill="none" stroke="black" stroke-width=".3" stroke-opacity="1.0"  filling="0" d="M11.11058521270752 14.117602348327637 L11.11058521270752 14.117602348327637 C10.965271949768066 14.483060836791992 10.965271949768066 14.483060836791992 11.11058521270752 14.117602348327637 L11.11058521270752 14.117602348327637"></path>
<path fill="none" stroke="black" stroke-width=".3" stroke-opacity="1.0"  filling="0" d="M10.074470520019531 14.166631698608398 L10.074470520019531 14.166631698608398 C10.089144706726074 14.125826835632324 10.103819847106934 14.085021018981934 10.118494033813477 14.04421615600586 L10.074470520019531 14.166631698608398"></path>
<path fill="none" stroke="black" stroke-width=".3" stroke-opacity="1.0"  filling="0" d="M9.270421981811523 14.261417388916016 L9.270421981811523 14.261417388916016 C9.28976058959961 14.346261978149414 9.309099197387695 14.431106567382812 9.328437805175781 14.515951156616211 L9.328437805175781 14.515951156616211 C9.309099197387695 14.431106567382812 9.28976058959961 14.346261978149414 9.270421981811523 14.261417388916016 L9.270421981811523 14.261417388916016"></path></svg>