<svg xmlns="http://www.w3.org/2000/svg" viewBox="0.0 0.0 24.0 24.0" height="200px" width="200px"><path fill="none" stroke="black" stroke-width=".3" stroke-opacity="1.0"  filling="0" d="M11.584870338439941 1.4713106155395508 L11.584870338439941 1.4713106155395508 C11.627154350280762 1.4521487951278687 11.669437408447266 1.432986855506897 11.711721420288086 1.4138250350952148 L11.711721420288086 1.4138250350952148 C11.765511512756348 1.4337297677993774 11.819302558898926 1.4536346197128296 11.873092651367188 1.4735393524169922 L11.873092651367188 1.4735393524169922 C11.935481071472168 1.5639944076538086 11.997870445251465 1.654449462890625 12.060258865356445 1.7449045181274414 L12.060258865356445 1.7449045181274414 C12.331612586975098 1.7099051475524902 12.596357345581055 1.8342578411102295 12.714973449707031 2.0978145599365234 L12.714973449707031 2.0978145599365234 C12.742070198059082 2.07323956489563 12.76916790008545 2.0486648082733154 12.7962646484375 2.024089813232422 L12.7962646484375 2.024089813232422 C12.866921424865723 2.080467939376831 12.983221054077148 2.0597023963928223 13.067428588867188 2.026839256286621 L13.067428588867188 2.026839256286621 C13.081891059875488 2.060356855392456 13.096353530883789 2.093874216079712 13.11081600189209 2.127391815185547 L13.11081600189209 2.127391815185547 C13.182334899902344 2.1642072200775146 13.22494888305664 2.2475433349609375 13.251452445983887 2.3234901428222656 L13.251452445983887 2.3234901428222656 C13.228055000305176 2.3911960124969482 13.204658508300781 2.4589016437530518 13.18126106262207 2.5266075134277344 L13.18126106262207 2.5266075134277344 C13.202645301818848 2.531783103942871 13.224028587341309 2.536958694458008 13.245412826538086 2.5421342849731445 L13.245412826538086 2.5421342849731445 C13.27548599243164 2.5887954235076904 13.305558204650879 2.6354563236236572 13.335631370544434 2.682117462158203 L13.335631370544434 2.682117462158203 C13.521421432495117 2.4851861000061035 13.59123706817627 2.5423803329467773 13.742955207824707 2.716524124145508 L13.742955207824707 2.716524124145508 C13.685635566711426 2.872312068939209 13.763298988342285 2.9909183979034424 13.604297637939453 3.060288429260254 L13.604297637939453 3.060288429260254 C13.617653846740723 3.037907361984253 13.631009101867676 3.015526056289673 13.644365310668945 2.993144989013672 L13.644365310668945 2.993144989013672 C13.616822242736816 2.97574782371521 13.589280128479004 2.958350419998169 13.561737060546875 2.940953254699707 L13.561737060546875 2.940953254699707 C13.56662368774414 2.9087092876434326 13.571511268615723 2.876465082168579 13.576397895812988 2.8442211151123047 L13.576397895812988 2.8442211151123047 C13.524250984191895 2.8805809020996094 13.478358268737793 2.9401679039001465 13.471268653869629 3.003342628479004 L13.471268653869629 3.003342628479004 C13.489336013793945 3.006843328475952 13.507403373718262 3.0103437900543213 13.525470733642578 3.0138444900512695 L13.525470733642578 3.0138444900512695 C13.659472465515137 3.173433303833008 13.570108413696289 3.317814826965332 13.686598777770996 3.46738338470459 L13.686598777770996 3.46738338470459 C13.703980445861816 3.465268135070801 13.721363067626953 3.4631528854370117 13.738744735717773 3.4610376358032227 L13.738744735717773 3.4610376358032227 C13.742857933044434 3.4735071659088135 13.746970176696777 3.4859769344329834 13.751083374023438 3.498446464538574 L13.751083374023438 3.498446464538574 C13.790985107421875 3.485281229019165 13.830887794494629 3.472116231918335 13.870789527893066 3.458950996398926 L13.870789527893066 3.458950996398926 C13.915214538574219 3.4914112091064453 13.959639549255371 3.523871421813965 14.004064559936523 3.5563316345214844 L14.004064559936523 3.5563316345214844 C14.012407302856445 3.5009796619415283 13.962889671325684 3.4414494037628174 13.913655281066895 3.414813995361328 L13.913655281066895 3.414813995361328 C13.924927711486816 3.405139207839966 13.936200141906738 3.3954646587371826 13.94747257232666 3.3857898712158203 L13.94747257232666 3.3857898712158203 C13.958234786987305 3.301053762435913 14.057652473449707 3.2328670024871826 14.141918182373047 3.218891143798828 L14.141918182373047 3.218891143798828 C14.157801628112793 3.2470476627349854 14.173685073852539 3.2752044200897217 14.189568519592285 3.303360939025879 L14.189568519592285 3.303360939025879 C14.235590934753418 3.3148727416992188 14.28161334991455 3.3263845443725586 14.327635765075684 3.3378963470458984 L14.327635765075684 3.3378963470458984 C14.37082576751709 3.595487356185913 14.362007141113281 3.840806007385254 14.285660743713379 4.091688632965088 L14.285660743713379 4.091688632965088 C14.555514335632324 4.152672290802002 14.64123821258545 4.169729709625244 14.710168838500977 4.45864200592041 L14.710168838500977 4.45864200592041 C14.6908540725708 4.466184139251709 14.671538352966309 4.473726749420166 14.652223587036133 4.481268882751465 L14.652223587036133 4.481268882751465 C14.563220024108887 4.805718898773193 14.699234008789062 5.015765190124512 14.633515357971191 5.2726922035217285 L14.633515357971191 5.2726922035217285 C14.57474136352539 5.255560398101807 14.498496055603027 5.280860424041748 14.457996368408203 5.326770782470703 L14.457996368408203 5.326770782470703 C14.512972831726074 5.426974773406982 14.566343307495117 5.5280561447143555 14.619389533996582 5.6292948722839355 L14.619389533996582 5.6292948722839355 C14.961773872375488 5.262828826904297 14.998394012451172 6.201638221740723 15.320535659790039 6.835738182067871 L15.320535659790039 6.835738182067871 C15.741544723510742 7.0017852783203125 15.702160835266113 7.6042256355285645 15.648109436035156 7.939836025238037 L15.648109436035156 7.939836025238037 C15.565010070800781 7.995541095733643 15.493247985839844 8.067798614501953 15.426904678344727 8.142679214477539 L15.426904678344727 8.142679214477539 C15.414512634277344 8.121880531311035 15.402120590209961 8.101080894470215 15.389728546142578 8.080282211303711 L15.389728546142578 8.080282211303711 C15.36378002166748 8.084485054016113 15.337830543518066 8.088687896728516 15.311882019042969 8.092890739440918 L15.311882019042969 8.092890739440918 C15.309379577636719 8.076593399047852 15.306878089904785 8.060296058654785 15.304375648498535 8.043998718261719 L15.304375648498535 8.043998718261719 C15.288664817810059 8.042801856994629 15.272953033447266 8.041605949401855 15.257242202758789 8.040409088134766 L15.257242202758789 8.040409088134766 C15.210200309753418 7.957815647125244 15.122472763061523 7.894732475280762 15.032024383544922 7.865513324737549 L15.032024383544922 7.865513324737549 C15.029027938842773 7.883518695831299 15.026030540466309 7.901524066925049 15.02303409576416 7.919529438018799 L15.02303409576416 7.919529438018799 C15.003157615661621 7.9224724769592285 14.983280181884766 7.925415515899658 14.963403701782227 7.928358554840088 L14.963403701782227 7.928358554840088 C14.971198081970215 7.949717998504639 14.978991508483887 7.971077919006348 14.986785888671875 7.992437362670898 L14.986785888671875 7.992437362670898 C14.936653137207031 8.084429740905762 14.8883638381958 8.179726600646973 14.863247871398926 8.281436920166016 L14.863247871398926 8.281436920166016 C14.880790710449219 8.289158821105957 14.898333549499512 8.296881675720215 14.915876388549805 8.304603576660156 L14.915876388549805 8.304603576660156 C14.919539451599121 8.338918685913086 14.923201560974121 8.373233795166016 14.926864624023438 8.407548904418945 L14.926864624023438 8.407548904418945 C14.960895538330078 8.371752738952637 14.994926452636719 8.335957527160645 15.02895736694336 8.300161361694336 L15.02895736694336 8.300161361694336 C15.38705062866211 8.368661880493164 15.756150245666504 8.79588508605957 15.590681076049805 9.103327751159668 L15.590681076049805 9.103327751159668 C15.602737426757812 9.284626960754395 15.865304946899414 11.065391540527344 15.55674934387207 10.855406761169434 L15.55674934387207 10.855406761169434 C15.495882987976074 10.888803482055664 15.425346374511719 10.902485847473145 15.356881141662598 10.913999557495117 L15.356881141662598 10.913999557495117 C15.442456245422363 11.088821411132812 15.251561164855957 11.261263847351074 15.157015800476074 11.406862258911133 L15.157015800476074 11.406862258911133 C15.134596824645996 11.405962944030762 15.112177848815918 11.405062675476074 15.08975887298584 11.404163360595703 L15.08975887298584 11.404163360595703 C15.078237533569336 11.411795616149902 15.066715240478516 11.419426918029785 15.055193901062012 11.427059173583984 L15.055193901062012 11.427059173583984 C15.08832836151123 11.349864959716797 15.121463775634766 11.272671699523926 15.154598236083984 11.195477485656738 L15.154598236083984 11.195477485656738 C15.120320320129395 11.20795726776123 15.086041450500488 11.220436096191406 15.051763534545898 11.232915878295898 L15.051763534545898 11.232915878295898 C14.988654136657715 11.122819900512695 14.93549919128418 11.007259368896484 14.881099700927734 10.892609596252441 L14.881099700927734 10.892609596252441 C14.910015106201172 10.899980545043945 14.938929557800293 10.907352447509766 14.96784496307373 10.91472339630127 L14.96784496307373 10.91472339630127 C14.97136402130127 10.828686714172363 14.974883079528809 10.742650032043457 14.978402137756348 10.65661334991455 L14.978402137756348 10.65661334991455 C14.960708618164062 10.656163215637207 14.943016052246094 10.65571403503418 14.925322532653809 10.655263900756836 L14.925322532653809 10.655263900756836 C14.927905082702637 10.600723266601562 14.964263916015625 10.548864364624023 15.004335403442383 10.511775016784668 L15.004335403442383 10.511775016784668 C14.996073722839355 10.499293327331543 14.987811088562012 10.486810684204102 14.979549407958984 10.474328994750977 L14.979549407958984 10.474328994750977 C14.984400749206543 10.454541206359863 14.989251136779785 10.434752464294434 14.994102478027344 10.41496467590332 L14.994102478027344 10.41496467590332 C14.978978157043457 10.410059928894043 14.963854789733887 10.40515422821045 14.94873046875 10.400249481201172 L14.94873046875 10.400249481201172 C14.910748481750488 10.412141799926758 14.872767448425293 10.424034118652344 14.834785461425781 10.43592643737793 L14.834785461425781 10.43592643737793 C14.835055351257324 10.468059539794922 14.83532428741455 10.500192642211914 14.835594177246094 10.532325744628906 L14.835594177246094 10.532325744628906 C14.815069198608398 10.538463592529297 14.79454517364502 10.544600486755371 14.774020195007324 10.550738334655762 L14.774020195007324 10.550738334655762 C14.787259101867676 10.586999893188477 14.800498962402344 10.623260498046875 14.813737869262695 10.65952205657959 L14.813737869262695 10.65952205657959 C14.766268730163574 10.640403747558594 14.71880054473877 10.621286392211914 14.671331405639648 10.602168083190918 L14.671331405639648 10.602168083190918 C14.661056518554688 10.620022773742676 14.65078067779541 10.637876510620117 14.64050579071045 10.655731201171875 L14.64050579071045 10.655731201171875 C14.643187522888184 10.635169982910156 14.645870208740234 10.614609718322754 14.648551940917969 10.594048500061035 L14.648551940917969 10.594048500061035 C14.674850463867188 10.579947471618652 14.701149940490723 10.565847396850586 14.727448463439941 10.551746368408203 L14.727448463439941 10.551746368408203 C14.718880653381348 10.53255558013916 14.710312843322754 10.513365745544434 14.70174503326416 10.49417495727539 L14.70174503326416 10.49417495727539 C14.723605155944824 10.469200134277344 14.745464324951172 10.444226264953613 14.767324447631836 10.419251441955566 L14.767324447631836 10.419251441955566 C14.731800079345703 10.371581077575684 14.644722938537598 10.35852336883545 14.592073440551758 10.386136054992676 L14.592073440551758 10.386136054992676 C14.596402168273926 10.413105964660645 14.60073184967041 10.44007682800293 14.605060577392578 10.467046737670898 L14.605060577392578 10.467046737670898 C14.514355659484863 10.566664695739746 14.451745986938477 10.532269477844238 14.43018913269043 10.679807662963867 L14.43018913269043 10.679807662963867 C14.452022552490234 10.684406280517578 14.473855018615723 10.689004898071289 14.495688438415527 10.693603515625 L14.495688438415527 10.693603515625 C14.476672172546387 10.707855224609375 14.457656860351562 10.72210693359375 14.438640594482422 10.736358642578125 L14.438640594482422 10.736358642578125 C14.460099220275879 10.737897872924805 14.481557846069336 10.739436149597168 14.503016471862793 10.740975379943848 L14.503016471862793 10.740975379943848 C14.509514808654785 10.768719673156738 14.516012191772461 10.796464920043945 14.522510528564453 10.824209213256836 L14.522510528564453 10.824209213256836 C14.534082412719727 10.821239471435547 14.545654296875 10.818268775939941 14.557226181030273 10.815299034118652 L14.557226181030273 10.815299034118652 C14.569323539733887 10.786845207214355 14.581419944763184 10.758391380310059 14.593517303466797 10.729937553405762 L14.593517303466797 10.729937553405762 C14.593156814575195 10.75644588470459 14.59279727935791 10.782955169677734 14.592436790466309 10.809463500976562 L14.592436790466309 10.809463500976562 C14.659845352172852 10.804883003234863 14.727253913879395 10.800301551818848 14.794662475585938 10.795721054077148 L14.794662475585938 10.795721054077148 C14.82175064086914 10.749032974243164 14.872121810913086 10.7119722366333 14.924508094787598 10.69896411895752 L14.924508094787598 10.69896411895752 C14.909618377685547 10.72153091430664 14.894728660583496 10.744098663330078 14.879838943481445 10.7666654586792 L14.879838943481445 10.7666654586792 C14.829218864440918 10.853102684020996 14.787012100219727 10.945932388305664 14.76093864440918 11.042648315429688 L14.76093864440918 11.042648315429688 C14.723519325256348 11.037869453430176 14.686100959777832 11.03309154510498 14.648681640625 11.028312683105469 L14.648681640625 11.028312683105469 C14.671857833862305 11.073739051818848 14.695034980773926 11.119165420532227 14.71821117401123 11.164591789245605 L14.71821117401123 11.164591789245605 C14.756491661071777 11.123526573181152 14.810338020324707 11.093503952026367 14.865453720092773 11.082825660705566 L14.865453720092773 11.082825660705566 C14.87485408782959 11.100357055664062 14.884254455566406 11.117889404296875 14.893654823303223 11.135420799255371 L14.893654823303223 11.135420799255371 C14.868130683898926 11.126079559326172 14.842606544494629 11.116739273071289 14.817082405090332 11.10739803314209 L14.817082405090332 11.10739803314209 C14.788836479187012 11.15234661102295 14.760591506958008 11.197295188903809 14.732345581054688 11.242243766784668 L14.732345581054688 11.242243766784668 C14.715363502502441 11.239130020141602 14.698380470275879 11.236015319824219 14.681398391723633 11.232901573181152 L14.681398391723633 11.232901573181152 C14.681757926940918 11.244274139404297 14.682117462158203 11.255646705627441 14.682476997375488 11.267019271850586 L14.682476997375488 11.267019271850586 C14.66539478302002 11.275848388671875 14.648311614990234 11.284676551818848 14.631229400634766 11.293505668640137 L14.631229400634766 11.293505668640137 C14.628079414367676 11.280401229858398 14.62492847442627 11.267295837402344 14.62177848815918 11.254191398620605 L14.62177848815918 11.254191398620605 C14.534832000732422 11.271968841552734 14.433497428894043 11.226387977600098 14.387641906738281 11.299829483032227 L14.387641906738281 11.299829483032227 C14.351655960083008 11.30681324005127 14.315670013427734 11.313797950744629 14.279684066772461 11.320781707763672 L14.279684066772461 11.320781707763672 C14.300905227661133 11.33739185333252 14.322125434875488 11.354002952575684 14.34334659576416 11.370613098144531 L14.34334659576416 11.370613098144531 C14.302393913269043 11.4347505569458 14.26144027709961 11.49888801574707 14.220487594604492 11.56302547454834 L14.220487594604492 11.56302547454834 C14.16549015045166 11.520440101623535 14.110491752624512 11.47785472869873 14.05549430847168 11.435269355773926 L14.05549430847168 11.435269355773926 C14.060471534729004 11.4590482711792 14.065447807312012 11.482827186584473 14.070425033569336 11.506606101989746 L14.070425033569336 11.506606101989746 C14.058155059814453 11.508100509643555 14.04588508605957 11.509593963623047 14.033615112304688 11.511088371276855 L14.033615112304688 11.511088371276855 C14.030105590820312 11.55042839050293 14.026595115661621 11.589768409729004 14.023085594177246 11.629108428955078 L14.023085594177246 11.629108428955078 C14.051826477050781 11.630791664123535 14.080567359924316 11.632473945617676 14.109308242797852 11.634157180786133 L14.109308242797852 11.634157180786133 C14.10722541809082 11.71546745300293 14.15085506439209 11.793519973754883 14.191789627075195 11.863805770874023 L14.191789627075195 11.863805770874023 C14.168061256408691 11.852170944213867 14.144333839416504 11.840535163879395 14.12060546875 11.828900337219238 L14.12060546875 11.828900337219238 C13.868091583251953 12.08330249786377 14.322835922241211 12.125612258911133 14.436437606811523 12.325840950012207 L14.436437606811523 12.325840950012207 C14.407857894897461 12.33399486541748 14.379278182983398 12.342148780822754 14.350698471069336 12.350302696228027 L14.350698471069336 12.350302696228027 C14.353578567504883 12.369668006896973 14.35645866394043 12.389032363891602 14.359338760375977 12.408397674560547 L14.359338760375977 12.408397674560547 C14.432493209838867 12.425422668457031 14.505648612976074 12.442448616027832 14.578803062438965 12.459473609924316 L14.578803062438965 12.459473609924316 C14.560673713684082 12.455459594726562 14.542543411254883 12.451446533203125 14.5244140625 12.447432518005371 L14.5244140625 12.447432518005371 C14.36579704284668 12.90855884552002 14.69637680053711 13.10685920715332 14.320728302001953 13.496430397033691 L14.320728302001953 13.496430397033691 C14.116364479064941 12.86525821685791 13.814854621887207 13.497511863708496 13.780447959899902 13.763069152832031 L13.780447959899902 13.763069152832031 C13.768349647521973 13.812795639038086 13.75625228881836 13.862521171569824 13.74415397644043 13.912247657775879 L13.74415397644043 13.912247657775879 C13.731019973754883 13.9662504196167 13.717886924743652 14.020252227783203 13.704752922058105 14.074254989624023 L13.704752922058105 14.074254989624023 C13.582714080810547 14.104494094848633 13.510202407836914 14.246502876281738 13.461247444152832 14.362309455871582 L13.461247444152832 14.362309455871582 C13.49380111694336 14.412301063537598 13.52635383605957 14.462292671203613 13.558907508850098 14.512284278869629 L13.558907508850098 14.512284278869629 C13.471477508544922 14.705525398254395 13.51145076751709 14.871246337890625 13.30119800567627 14.68377685546875 L13.30119800567627 14.68377685546875 C12.731199264526367 14.881308555603027 12.991214752197266 15.925002098083496 13.018350601196289 16.424169540405273 C13.149910926818848 18.844253540039062 13.280508041381836 20.494380950927734 14.536323547363281 22.58026885986328 L9.962944984436035 22.58026885986328 C10.583433151245117 21.37531280517578 10.987043380737305 20.246540069580078 11.237044334411621 19.07338523864746 C11.487045288085938 17.900230407714844 11.583436012268066 16.682693481445312 11.589486122131348 15.300203323364258 L11.589486122131348 15.300203323364258 C11.552264213562012 15.33535099029541 11.515042304992676 15.370498657226562 11.47782039642334 15.405646324157715 L11.47782039642334 15.405646324157715 C11.439865112304688 15.387962341308594 11.401910781860352 15.370278358459473 11.3639554977417 15.352594375610352 L11.3639554977417 15.352594375610352 C11.332494735717773 15.383927345275879 11.301033020019531 15.415261268615723 11.269572257995605 15.44659423828125 L11.269572257995605 15.44659423828125 C11.261085510253906 15.359946250915527 11.25259780883789 15.273297309875488 11.244111061096191 15.186649322509766 L11.244111061096191 15.186649322509766 C11.214797019958496 15.184515953063965 11.1854829788208 15.18238353729248 11.156168937683105 15.18025016784668 L11.156168937683105 15.18025016784668 C11.154126167297363 15.20177173614502 11.152082443237305 15.223294258117676 11.150039672851562 15.244815826416016 L11.150039672851562 15.244815826416016 C11.19483757019043 15.319631576538086 11.150772094726562 15.422452926635742 11.122602462768555 15.504980087280273 L11.122602462768555 15.504980087280273 C11.170350074768066 15.334779739379883 11.030783653259277 15.231310844421387 10.947829246520996 15.067117691040039 L10.947829246520996 15.067117691040039 C10.919922828674316 15.063769340515137 10.892016410827637 15.06042194366455 10.864109992980957 15.057073593139648 L10.864109992980957 15.057073593139648 C10.860116958618164 14.98508071899414 10.786028861999512 14.908766746520996 10.714345932006836 14.900995254516602 L10.714345932006836 14.900995254516602 C10.681397438049316 14.809759140014648 10.572287559509277 14.7462739944458 10.47607421875 14.73392391204834 L10.47607421875 14.73392391204834 C10.566999435424805 14.476557731628418 10.750621795654297 14.237741470336914 10.429844856262207 14.12474250793457 L10.429844856262207 14.12474250793457 C10.458917617797852 14.027379989624023 10.35283088684082 13.901559829711914 10.254682540893555 13.875262260437012 L10.254682540893555 13.875262260437012 C10.256970405578613 13.750139236450195 10.267620086669922 13.591781616210938 10.368282318115234 13.517431259155273 L10.368282318115234 13.517431259155273 C10.370766639709473 13.499488830566406 10.373250007629395 13.481547355651855 10.375734329223633 13.463604927062988 L10.375734329223633 13.463604927062988 C10.403569221496582 13.428045272827148 10.431403160095215 13.392484664916992 10.459238052368164 13.356925010681152 L10.459238052368164 13.356925010681152 C10.432194709777832 13.322345733642578 10.4051513671875 13.28776741027832 10.378108024597168 13.253188133239746 L10.378108024597168 13.253188133239746 C10.438606262207031 13.206717491149902 10.477105140686035 13.126336097717285 10.484137535095215 13.050374984741211 L10.484137535095215 13.050374984741211 C10.548280715942383 13.00623893737793 10.612424850463867 12.962101936340332 10.676568031311035 12.91796588897705 L10.676568031311035 12.91796588897705 C10.68806266784668 12.939911842346191 10.699557304382324 12.961857795715332 10.711051940917969 12.983803749084473 L10.711051940917969 12.983803749084473 C10.784211158752441 12.937012672424316 10.85737133026123 12.89022159576416 10.930530548095703 12.843430519104004 L10.930530548095703 12.843430519104004 C10.921304702758789 12.831583976745605 10.912077903747559 12.819737434387207 10.902852058410645 12.807890892028809 L10.902852058410645 12.807890892028809 C11.00238037109375 12.790763854980469 11.102088928222656 12.774271011352539 11.202339172363281 12.762060165405273 L11.202339172363281 12.762060165405273 C11.193279266357422 12.696235656738281 11.184218406677246 12.630410194396973 11.175158500671387 12.56458568572998 L11.175158500671387 12.56458568572998 C11.158038139343262 12.564595222473145 11.14091682434082 12.564605712890625 11.123796463012695 12.564615249633789 L11.123796463012695 12.564615249633789 C11.110310554504395 12.513583183288574 11.12003231048584 12.451088905334473 11.151491165161133 12.408703804016113 L11.151491165161133 12.408703804016113 C11.177424430847168 12.42992877960205 11.203356742858887 12.451152801513672 11.229290008544922 12.47237777709961 L11.229290008544922 12.47237777709961 C11.24629020690918 12.407527923583984 11.263290405273438 12.342677116394043 11.280290603637695 12.277827262878418 L11.280290603637695 12.277827262878418 C11.26185131072998 12.249981880187988 11.243412971496582 12.222136497497559 11.224973678588867 12.194291114807129 L11.224973678588867 12.194291114807129 C11.272603988647461 12.201976776123047 11.320235252380371 12.209663391113281 11.367865562438965 12.2173490524292 L11.367865562438965 12.2173490524292 C11.394558906555176 12.261828422546387 11.421252250671387 12.306306838989258 11.447945594787598 12.350786209106445 L11.447945594787598 12.350786209106445 C11.467488288879395 12.31104850769043 11.487030029296875 12.271310806274414 11.506572723388672 12.231573104858398 L11.506572723388672 12.231573104858398 C11.528643608093262 12.221100807189941 11.550713539123535 12.210627555847168 11.572784423828125 12.200155258178711 L11.572784423828125 12.200155258178711 C11.514826774597168 12.10535717010498 11.484343528747559 11.992887496948242 11.4718017578125 11.882486343383789 L11.4718017578125 11.882486343383789 C11.418665885925293 11.928091049194336 11.387258529663086 12.0106782913208 11.399320602416992 12.079654693603516 L11.399320602416992 12.079654693603516 C11.364991188049316 12.108742713928223 11.330660820007324 12.13783073425293 11.296331405639648 12.166918754577637 L11.296331405639648 12.166918754577637 C11.285666465759277 12.094220161437988 11.246258735656738 11.98011302947998 11.172901153564453 11.984288215637207 L11.172901153564453 11.984288215637207 C11.177671432495117 12.03195858001709 11.182440757751465 12.079628944396973 11.187211036682129 12.127299308776855 L11.187211036682129 12.127299308776855 C11.171625137329102 12.127119064331055 11.156038284301758 12.126938819885254 11.14045238494873 12.126758575439453 L11.14045238494873 12.126758575439453 C11.148894309997559 12.166199684143066 11.157336235046387 12.205639839172363 11.165778160095215 12.245080947875977 L11.165778160095215 12.245080947875977 C11.087291717529297 12.25464916229248 11.00139331817627 12.298850059509277 10.962835311889648 12.367878913879395 L10.962835311889648 12.367878913879395 C10.959694862365723 12.350621223449707 10.95655345916748 12.333364486694336 10.953413009643555 12.316106796264648 L10.953413009643555 12.316106796264648 C10.901565551757812 12.329171180725098 10.849719047546387 12.342235565185547 10.797871589660645 12.355299949645996 L10.797871589660645 12.355299949645996 C10.800769805908203 12.327967643737793 10.803667068481445 12.300636291503906 10.806565284729004 12.273303985595703 L10.806565284729004 12.273303985595703 C10.780632019042969 12.252079010009766 10.754698753356934 12.230854034423828 10.728765487670898 12.20962905883789 L10.728765487670898 12.20962905883789 C10.768866539001465 12.193846702575684 10.808966636657715 12.178065299987793 10.849067687988281 12.162282943725586 L10.849067687988281 12.162282943725586 C10.862019538879395 12.208954811096191 10.874972343444824 12.255627632141113 10.887924194335938 12.302299499511719 L10.887924194335938 12.302299499511719 C10.918886184692383 12.2881498336792 10.949847221374512 12.273999214172363 10.980809211730957 12.259849548339844 L10.980809211730957 12.259849548339844 C10.965673446655273 12.135748863220215 10.956256866455078 12.006896018981934 10.906414031982422 11.892241477966309 L10.906414031982422 11.892241477966309 C10.875539779663086 11.898595809936523 10.844666481018066 11.904950141906738 10.81379222869873 11.911304473876953 L10.81379222869873 11.911304473876953 C10.887228012084961 11.819090843200684 11.033164978027344 11.80701732635498 11.151026725769043 11.804819107055664 L11.151026725769043 11.804819107055664 C11.142646789550781 11.829707145690918 11.134267807006836 11.854596138000488 11.125887870788574 11.879484176635742 L11.125887870788574 11.879484176635742 C11.165352821350098 11.884011268615723 11.204816818237305 11.888538360595703 11.244281768798828 11.893065452575684 L11.244281768798828 11.893065452575684 C11.238422393798828 11.845008850097656 11.232563018798828 11.796952247619629 11.226703643798828 11.748895645141602 L11.226703643798828 11.748895645141602 C11.215606689453125 11.742982864379883 11.204509735107422 11.737070083618164 11.193412780761719 11.731157302856445 L11.193412780761719 11.731157302856445 C11.228606224060059 11.649561882019043 11.263800621032715 11.567967414855957 11.298994064331055 11.486371994018555 L11.298994064331055 11.486371994018555 C11.266300201416016 11.482051849365234 11.233607292175293 11.47773265838623 11.200913429260254 11.47341251373291 L11.200913429260254 11.47341251373291 C11.223210334777832 11.452017784118652 11.24550724029541 11.430622100830078 11.267804145812988 11.40922737121582 L11.267804145812988 11.40922737121582 C11.265220642089844 11.396571159362793 11.262638092041016 11.38391399383545 11.260054588317871 11.371257781982422 L11.260054588317871 11.371257781982422 C11.169921875 11.352140426635742 11.056644439697266 11.308145523071289 10.983725547790527 11.36446762084961 L10.983725547790527 11.36446762084961 C10.993650436401367 11.377785682678223 11.003576278686523 11.391103744506836 11.013501167297363 11.40442180633545 L11.013501167297363 11.40442180633545 C11.009586334228516 11.410605430603027 11.005670547485352 11.416788101196289 11.001755714416504 11.422971725463867 L11.001755714416504 11.422971725463867 C10.98302936553955 11.384265899658203 10.964303016662598 11.345561027526855 10.945576667785645 11.306855201721191 L10.945576667785645 11.306855201721191 C10.869446754455566 11.345171928405762 10.819125175476074 11.427570343017578 10.784564018249512 11.505476951599121 L10.784564018249512 11.505476951599121 C10.826173782348633 11.497809410095215 10.867782592773438 11.490140914916992 10.909392356872559 11.482473373413086 L10.909392356872559 11.482473373413086 C10.906746864318848 11.51185131072998 10.90410041809082 11.541229248046875 10.90145492553711 11.57060718536377 L10.90145492553711 11.57060718536377 C10.863835334777832 11.56844711303711 10.826216697692871 11.56628704071045 10.788597106933594 11.564126968383789 L10.788597106933594 11.564126968383789 C10.77408504486084 11.525944709777832 10.759573936462402 11.487763404846191 10.745061874389648 11.449581146240234 L10.745061874389648 11.449581146240234 C10.736268997192383 11.483859062194824 10.7274751663208 11.518136978149414 10.718682289123535 11.552414894104004 L10.718682289123535 11.552414894104004 C10.720104217529297 11.52578067779541 10.721526145935059 11.4991455078125 10.72294807434082 11.472511291503906 L10.72294807434082 11.472511291503906 C10.682971000671387 11.461908340454102 10.63664722442627 11.476303100585938 10.60155963897705 11.498198509216309 L10.60155963897705 11.498198509216309 C10.579178810119629 11.484842300415039 10.55679702758789 11.47148609161377 10.534416198730469 11.4581298828125 L10.534416198730469 11.4581298828125 C10.487992286682129 11.473127365112305 10.441568374633789 11.488125801086426 10.39514446258545 11.50312328338623 L10.39514446258545 11.50312328338623 C10.41061782836914 11.519396781921387 10.426092147827148 11.535669326782227 10.44156551361084 11.551942825317383 L10.44156551361084 11.551942825317383 C10.434959411621094 11.561568260192871 10.428354263305664 11.571192741394043 10.421748161315918 11.580818176269531 L10.421748161315918 11.580818176269531 C10.358291625976562 11.573546409606934 10.292801856994629 11.587699890136719 10.231940269470215 11.607078552246094 L10.231940269470215 11.607078552246094 C10.23828125 11.73372745513916 10.180602073669434 11.876310348510742 10.305099487304688 11.939035415649414 L10.305099487304688 11.939035415649414 C10.253337860107422 12.044294357299805 10.2540283203125 12.118046760559082 10.20209789276123 12.217750549316406 L10.20209789276123 12.217750549316406 C10.229754447937012 12.219046592712402 10.257411003112793 12.220342636108398 10.285067558288574 12.221638679504395 L10.285067558288574 12.221638679504395 C10.267060279846191 12.239916801452637 10.249053955078125 12.258195877075195 10.231046676635742 12.276473999023438 L10.231046676635742 12.276473999023438 C10.215740203857422 12.195472717285156 10.196399688720703 12.11424732208252 10.194890975952148 12.03182601928711 L10.194890975952148 12.03182601928711 C10.144674301147461 12.076319694519043 10.072576522827148 12.102517127990723 10.005529403686523 12.10004997253418 L10.005529403686523 12.10004997253418 C9.999931335449219 12.071159362792969 9.994333267211914 12.042267799377441 9.98873519897461 12.01337718963623 L9.98873519897461 12.01337718963623 C9.974993705749512 12.015573501586914 9.961252212524414 12.017769813537598 9.947510719299316 12.019966125488281 L9.947510719299316 12.019966125488281 C9.949625968933105 12.05862045288086 9.951741218566895 12.097273826599121 9.953856468200684 12.1359281539917 L9.953856468200684 12.1359281539917 C9.913211822509766 12.24833869934082 9.928689002990723 12.378734588623047 9.812919616699219 12.409931182861328 L9.812919616699219 12.409931182861328 C9.800704002380371 12.352273941040039 9.788487434387207 12.294615745544434 9.77627182006836 12.236958503723145 L9.77627182006836 12.236958503723145 C9.7940034866333 12.224940299987793 9.811736106872559 12.212922096252441 9.8294677734375 12.20090389251709 L9.8294677734375 12.20090389251709 C9.827298164367676 12.178858757019043 9.825129508972168 12.15681266784668 9.822959899902344 12.134767532348633 L9.822959899902344 12.134767532348633 C9.807860374450684 12.142831802368164 9.792759895324707 12.150895118713379 9.777660369873047 12.15895938873291 L9.777660369873047 12.15895938873291 C9.737879753112793 12.115224838256836 9.65851879119873 12.101844787597656 9.603755950927734 12.124120712280273 L9.603755950927734 12.124120712280273 C9.639216423034668 12.142627716064453 9.674677848815918 12.161133766174316 9.710138320922852 12.179640769958496 L9.710138320922852 12.179640769958496 C9.70485782623291 12.236831665039062 9.634200096130371 12.2822904586792 9.577187538146973 12.289241790771484 L9.577187538146973 12.289241790771484 C9.588623046875 12.268133163452148 9.600057601928711 12.247025489807129 9.611493110656738 12.225916862487793 L9.611493110656738 12.225916862487793 C9.550658226013184 12.190787315368652 9.489824295043945 12.155656814575195 9.42898941040039 12.120527267456055 L9.42898941040039 12.120527267456055 C9.412452697753906 12.159379005432129 9.395915985107422 12.19823169708252 9.379379272460938 12.237083435058594 L9.379379272460938 12.237083435058594 C9.466165542602539 12.296913146972656 9.463565826416016 12.340989112854004 9.367999076843262 12.386337280273438 L9.367999076843262 12.386337280273438 C9.369187355041504 12.374778747558594 9.370375633239746 12.363219261169434 9.371563911437988 12.35166072845459 L9.371563911437988 12.35166072845459 C9.390642166137695 12.337921142578125 9.409720420837402 12.324182510375977 9.42879867553711 12.310442924499512 L9.42879867553711 12.310442924499512 C9.402937889099121 12.306851387023926 9.37707805633545 12.303260803222656 9.351217269897461 12.29966926574707 L9.351217269897461 12.29966926574707 C9.336782455444336 12.23657512664795 9.322348594665527 12.173480033874512 9.307913780212402 12.11038589477539 L9.307913780212402 12.11038589477539 C9.329549789428711 12.07506275177002 9.35118579864502 12.039739608764648 9.372821807861328 12.004416465759277 L9.372821807861328 12.004416465759277 C9.408620834350586 11.995902061462402 9.44442081451416 11.987388610839844 9.480219841003418 11.978874206542969 L9.480219841003418 11.978874206542969 C9.474990844726562 11.865547180175781 9.43580436706543 11.780364990234375 9.449148178100586 11.672918319702148 L9.449148178100586 11.672918319702148 C9.383956909179688 11.73340892791748 9.321170806884766 11.805068016052246 9.293444633483887 11.889568328857422 L9.293444633483887 11.889568328857422 C9.278830528259277 11.884600639343262 9.264216423034668 11.879632949829102 9.249602317810059 11.874665260314941 L9.249602317810059 11.874665260314941 C9.25500202178955 11.842357635498047 9.260401725769043 11.810050964355469 9.265801429748535 11.777743339538574 L9.265801429748535 11.777743339538574 C9.238356590270996 11.790946006774902 9.21091079711914 11.80414867401123 9.183465957641602 11.817351341247559 L9.183465957641602 11.817351341247559 C9.163395881652832 11.728525161743164 9.181806564331055 11.630999565124512 9.214197158813477 11.545888900756836 L9.214197158813477 11.545888900756836 C9.184670448303223 11.529253005981445 9.155144691467285 11.512617111206055 9.125617980957031 11.495981216430664 L9.125617980957031 11.495981216430664 C9.128597259521484 11.482129096984863 9.131576538085938 11.468276023864746 9.13455581665039 11.454423904418945 L9.13455581665039 11.454423904418945 C9.18312931060791 11.477696418762207 9.247456550598145 11.47494125366211 9.296116828918457 11.451852798461914 L9.296116828918457 11.451852798461914 C9.290213584899902 11.399133682250977 9.284309387207031 11.346414566040039 9.278406143188477 11.293695449829102 L9.278406143188477 11.293695449829102 C9.265625 11.295251846313477 9.252843856811523 11.296809196472168 9.240062713623047 11.298365592956543 L9.240062713623047 11.298365592956543 C9.241232872009277 11.333503723144531 9.242403030395508 11.368640899658203 9.243573188781738 11.403779029846191 L9.243573188781738 11.403779029846191 C9.185107231140137 11.388075828552246 9.126642227172852 11.3723726272583 9.06817626953125 11.356669425964355 L9.06817626953125 11.356669425964355 C9.034832000732422 11.37681770324707 9.001487731933594 11.396966934204102 8.968143463134766 11.417115211486816 L8.968143463134766 11.417115211486816 C8.982430458068848 11.472661972045898 8.986857414245605 11.532899856567383 8.975109100341797 11.589037895202637 L8.975109100341797 11.589037895202637 C8.896860122680664 11.522431373596191 8.792465209960938 11.43928337097168 8.798054695129395 11.336676597595215 L8.798054695129395 11.336676597595215 C8.78547477722168 11.314343452453613 8.772893905639648 11.292009353637695 8.760313987731934 11.269676208496094 L8.760313987731934 11.269676208496094 C8.777976036071777 11.177728652954102 8.736379623413086 11.081697463989258 8.700410842895508 10.995253562927246 L8.700410842895508 10.995253562927246 C8.71854019165039 10.999267578125 8.73667049407959 11.003281593322754 8.754799842834473 11.007295608520508 L8.754799842834473 11.007295608520508 C8.762063026428223 10.994478225708008 8.769326210021973 10.981659889221191 8.776589393615723 10.968842506408691 L8.776589393615723 10.968842506408691 C8.794732093811035 10.96866226196289 8.812873840332031 10.96848201751709 8.831016540527344 10.968301773071289 L8.831016540527344 10.968301773071289 C8.829513549804688 10.938911437988281 8.828009605407715 10.909521102905273 8.826506614685059 10.880130767822266 L8.826506614685059 10.880130767822266 C8.862504005432129 10.890271186828613 8.8985013961792 10.900411605834961 8.93449878692627 10.910552024841309 L8.93449878692627 10.910552024841309 C8.925050735473633 10.867083549499512 8.91560173034668 10.823615074157715 8.906153678894043 10.780146598815918 L8.906153678894043 10.780146598815918 C8.901806831359863 10.740208625793457 8.897459983825684 10.70026969909668 8.893113136291504 10.660331726074219 L8.893113136291504 10.660331726074219 C8.881542205810547 10.663301467895508 8.869970321655273 10.666272163391113 8.858399391174316 10.669241905212402 L8.858399391174316 10.669241905212402 C8.851702690124512 10.644116401672363 8.845006942749023 10.61899185180664 8.838310241699219 10.593866348266602 L8.838310241699219 10.593866348266602 C8.826675415039062 10.617593765258789 8.815040588378906 10.641321182250977 8.80340576171875 10.665048599243164 L8.80340576171875 10.665048599243164 C8.792922019958496 10.625858306884766 8.782437324523926 10.58666706085205 8.771953582763672 10.547476768493652 L8.771953582763672 10.547476768493652 C8.759481430053711 10.594134330749512 8.747008323669434 10.640792846679688 8.734536170959473 10.687450408935547 L8.734536170959473 10.687450408935547 C8.561152458190918 10.250954627990723 9.15616512298584 10.349241256713867 9.323290824890137 10.116068840026855 L9.323290824890137 10.116068840026855 C9.347718238830566 10.107905387878418 9.372146606445312 10.09974193572998 9.396574020385742 10.091578483581543 L9.396574020385742 10.091578483581543 C9.44214153289795 9.997076988220215 9.526982307434082 9.923870086669922 9.611345291137695 9.861501693725586 L9.611345291137695 9.861501693725586 C9.629493713378906 9.776276588439941 9.647642135620117 9.691052436828613 9.665790557861328 9.605827331542969 L9.665790557861328 9.605827331542969 C9.68348503112793 9.606277465820312 9.701178550720215 9.606727600097656 9.718873023986816 9.607177734375 L9.718873023986816 9.607177734375 C9.734248161315918 9.592851638793945 9.749622344970703 9.57852554321289 9.764997482299805 9.564199447631836 L9.764997482299805 9.564199447631836 C9.777802467346191 9.57560920715332 9.790607452392578 9.587019920349121 9.803412437438965 9.598429679870605 L9.803412437438965 9.598429679870605 C9.847819328308105 9.532833099365234 9.892227172851562 9.46723747253418 9.936634063720703 9.401640892028809 L9.936634063720703 9.401640892028809 C10.12207317352295 9.390036582946777 10.226916313171387 9.474047660827637 10.314453125 9.308902740478516 L10.314453125 9.308902740478516 C10.35799503326416 9.317084312438965 10.401535987854004 9.325264930725098 10.445077896118164 9.333446502685547 L10.445077896118164 9.333446502685547 C10.443926811218262 9.19640827178955 10.157963752746582 8.899045944213867 10.49153995513916 8.884187698364258 L10.49153995513916 8.884187698364258 C10.515970230102539 8.833477020263672 10.540401458740234 8.782767295837402 10.564831733703613 8.732056617736816 L10.564831733703613 8.732056617736816 C10.555729866027832 8.721233367919922 10.546628952026367 8.710409164428711 10.537527084350586 8.699585914611816 L10.537527084350586 8.699585914611816 C10.499554634094238 8.726133346557617 10.432336807250977 8.695460319519043 10.40484619140625 8.658164978027344 L10.40484619140625 8.658164978027344 C10.38100528717041 8.662629127502441 10.357163429260254 8.667094230651855 10.333322525024414 8.671558380126953 L10.333322525024414 8.671558380126953 C10.321946144104004 8.735723495483398 10.310568809509277 8.799888610839844 10.299192428588867 8.864053726196289 L10.299192428588867 8.864053726196289 C10.28221321105957 8.818390846252441 10.265233039855957 8.772727012634277 10.24825382232666 8.72706413269043 L10.24825382232666 8.72706413269043 C10.227667808532715 8.711414337158203 10.207082748413086 8.69576358795166 10.18649673461914 8.680113792419434 L10.18649673461914 8.680113792419434 C10.210660934448242 8.416364669799805 10.445409774780273 8.261900901794434 10.36087703704834 7.939763069152832 L10.36087703704834 7.939763069152832 C10.376252174377441 7.925436973571777 10.39162826538086 7.911110877990723 10.407003402709961 7.896784782409668 L10.407003402709961 7.896784782409668 C10.405320167541504 7.882981300354004 10.403636932373047 7.869178295135498 10.40195369720459 7.855374813079834 L10.40195369720459 7.855374813079834 C10.386878967285156 7.855104923248291 10.371803283691406 7.85483455657959 10.356728553771973 7.854564666748047 L10.356728553771973 7.854564666748047 C10.343186378479004 7.875411510467529 10.329643249511719 7.8962578773498535 10.31610107421875 7.917104721069336 L10.31610107421875 7.917104721069336 C10.277297973632812 7.905231952667236 10.238494873046875 7.893359184265137 10.199691772460938 7.881486415863037 L10.199691772460938 7.881486415863037 C10.191960334777832 7.924454212188721 10.184229850769043 7.967421531677246 10.176498413085938 8.01038932800293 L10.176498413085938 8.01038932800293 C10.164041519165039 8.010354042053223 10.15158462524414 8.0103178024292 10.139127731323242 8.010282516479492 L10.139127731323242 8.010282516479492 C10.134312629699707 7.996341228485107 10.129498481750488 7.982399940490723 10.124683380126953 7.968458652496338 L10.124683380126953 7.968458652496338 C10.110942840576172 7.970654487609863 10.09720230102539 7.972850799560547 10.08346176147461 7.975046634674072 L10.08346176147461 7.975046634674072 C10.073697090148926 7.992839336395264 10.063932418823242 8.010632514953613 10.054167747497559 8.028425216674805 L10.054167747497559 8.028425216674805 C10.035501480102539 8.032772064208984 10.01683521270752 8.03711986541748 9.9981689453125 8.04146671295166 L9.9981689453125 8.04146671295166 C9.990365982055664 8.002985954284668 9.982563018798828 7.964505672454834 9.974760055541992 7.926025390625 L9.974760055541992 7.926025390625 C9.89848518371582 7.947255611419678 9.822210311889648 7.9684858322143555 9.745935440063477 7.989716053009033 L9.745935440063477 7.989716053009033 C9.719191551208496 8.119553565979004 9.6115140914917 8.299421310424805 9.658195495605469 8.419107437133789 L9.658195495605469 8.419107437133789 C9.622982025146484 8.42391300201416 9.5877685546875 8.428719520568848 9.552555084228516 8.433525085449219 L9.552555084228516 8.433525085449219 C9.568595886230469 8.375411033630371 9.582918167114258 8.315673828125 9.583868026733398 8.255393981933594 L9.583868026733398 8.255393981933594 C9.477645874023438 8.26939868927002 9.368280410766602 8.266447067260742 9.262499809265137 8.249425888061523 L9.262499809265137 8.249425888061523 C9.210834503173828 8.189229965209961 9.094741821289062 8.241747856140137 9.026871681213379 8.282814025878906 L9.026871681213379 8.282814025878906 C9.03555679321289 8.303027153015137 9.044240951538086 8.323240280151367 9.052926063537598 8.343453407287598 L9.052926063537598 8.343453407287598 C9.030941009521484 8.36740493774414 9.008955955505371 8.391357421875 8.986970901489258 8.415308952331543 L8.986970901489258 8.415308952331543 C8.981715202331543 8.380668640136719 8.976458549499512 8.346028327941895 8.971202850341797 8.31138801574707 L8.971202850341797 8.31138801574707 C8.952115058898926 8.286735534667969 8.933026313781738 8.26208209991455 8.913938522338867 8.23742961883545 L8.913938522338867 8.23742961883545 C8.98179817199707 8.15809154510498 9.011678695678711 8.049180030822754 9.029436111450195 7.946300029754639 L9.029436111450195 7.946300029754639 C9.188491821289062 7.721859455108643 9.355415344238281 7.482054710388184 9.433520317077637 7.226199150085449 L9.433520317077637 7.226199150085449 C9.408695220947266 7.2183332443237305 9.383869171142578 7.2104668617248535 9.359044075012207 7.202600955963135 L9.359044075012207 7.202600955963135 C9.325599670410156 7.234694004058838 9.292156219482422 7.266787528991699 9.258711814880371 7.298880577087402 L9.258711814880371 7.298880577087402 C9.172243118286133 7.201848030090332 9.078524589538574 7.143047332763672 9.044944763183594 7.013636112213135 L9.044944763183594 7.013636112213135 C8.982011795043945 6.952025413513184 8.9889554977417 6.835463523864746 9.01451301574707 6.751182556152344 L9.01451301574707 6.751182556152344 C8.81627368927002 6.817200660705566 8.829042434692383 6.485156059265137 9.025798797607422 6.51167106628418 L9.025798797607422 6.51167106628418 C8.989214897155762 6.355784893035889 9.002032279968262 6.183883190155029 9.052955627441406 6.03207540512085 L9.052955627441406 6.03207540512085 C9.109091758728027 6.015894412994385 9.165228843688965 5.999712944030762 9.221364974975586 5.983531951904297 L9.221364974975586 5.983531951904297 C9.345330238342285 5.982335567474365 9.386204719543457 5.793017864227295 9.434832572937012 5.678982734680176 L9.434832572937012 5.678982734680176 C9.451191902160645 5.676984786987305 9.467551231384277 5.674986839294434 9.48391056060791 5.6729888916015625 L9.48391056060791 5.6729888916015625 C9.456002235412598 5.463107585906982 9.513405799865723 5.3462233543396 9.674861907958984 5.209225654602051 L9.674861907958984 5.209225654602051 C9.78261661529541 5.2804155349731445 10.01766586303711 5.456217288970947 10.114904403686523 5.448200225830078 L10.114904403686523 5.448200225830078 C10.09213924407959 5.39338493347168 10.069375038146973 5.338569164276123 10.046609878540039 5.283753871917725 L10.046609878540039 5.283753871917725 C10.12070369720459 5.1683759689331055 10.154029846191406 5.049213886260986 10.288542747497559 5.008332252502441 L10.288542747497559 5.008332252502441 C10.191121101379395 4.754340171813965 10.503369331359863 4.822589874267578 10.642205238342285 4.794017791748047 L10.642205238342285 4.794017791748047 C10.638216018676758 4.718531608581543 10.751744270324707 4.669873237609863 10.826979637145996 4.662545680999756 L10.826979637145996 4.662545680999756 C10.823145866394043 4.558728218078613 10.81931209564209 4.4549102783203125 10.815478324890137 4.35109281539917 L10.815478324890137 4.35109281539917 C10.905369758605957 4.292887210845947 10.97000789642334 4.194129467010498 11.008296012878418 4.094118118286133 L11.008296012878418 4.094118118286133 C11.027585983276367 4.0948381423950195 11.046875 4.095557689666748 11.06616497039795 4.096277713775635 L11.06616497039795 4.096277713775635 C11.081438064575195 4.115169525146484 11.096710205078125 4.134061813354492 11.111983299255371 4.152953624725342 L11.111983299255371 4.152953624725342 C11.156983375549316 4.164590358734131 11.201984405517578 4.176227569580078 11.246984481811523 4.187864303588867 L11.246984481811523 4.187864303588867 C11.248496055603027 4.153436660766602 11.250008583068848 4.119009494781494 11.251520156860352 4.0845818519592285 L11.251520156860352 4.0845818519592285 C11.234574317932129 4.0902791023254395 11.21762752532959 4.095975875854492 11.200681686401367 4.101673126220703 L11.200681686401367 4.101673126220703 C11.158288955688477 4.073115825653076 11.115896224975586 4.044558525085449 11.073503494262695 4.016001224517822 L11.073503494262695 4.016001224517822 C11.098567008972168 4.008792400360107 11.123629570007324 4.001583099365234 11.148693084716797 3.9943742752075195 L11.148693084716797 3.9943742752075195 C11.134478569030762 3.9841737747192383 11.120264053344727 3.973973274230957 11.106049537658691 3.963772773742676 L11.106049537658691 3.963772773742676 C11.107237815856934 3.952214241027832 11.10842514038086 3.9406557083129883 11.109613418579102 3.9290971755981445 L11.109613418579102 3.9290971755981445 C11.084390640258789 3.9051921367645264 11.059167861938477 3.881286859512329 11.033945083618164 3.857381820678711 L11.033945083618164 3.857381820678711 C11.055481910705566 3.812731981277466 11.077019691467285 3.7680823802948 11.098556518554688 3.7234325408935547 L11.098556518554688 3.7234325408935547 C11.133708953857422 3.69683837890625 11.168861389160156 3.6702442169189453 11.20401382446289 3.6436500549316406 L11.20401382446289 3.6436500549316406 C11.268402099609375 3.665374994277954 11.332791328430176 3.6871001720428467 11.39717960357666 3.70882511138916 L11.39717960357666 3.70882511138916 C11.453191757202148 3.6916215419769287 11.509203910827637 3.674417734146118 11.565216064453125 3.6572141647338867 L11.565216064453125 3.6572141647338867 C11.578110694885254 3.639558792114258 11.591005325317383 3.621903419494629 11.603899955749512 3.604248046875 L11.603899955749512 3.604248046875 C11.640396118164062 3.6184780597686768 11.676891326904297 3.6327083110809326 11.713387489318848 3.6469383239746094 L11.713387489318848 3.6469383239746094 C11.717742919921875 3.5971295833587646 11.698891639709473 3.541696786880493 11.664959907531738 3.504974365234375 L11.664959907531738 3.504974365234375 C11.640270233154297 3.515247344970703 11.615580558776855 3.5255203247070312 11.590890884399414 3.5357933044433594 L11.590890884399414 3.5357933044433594 C11.578535079956055 3.5238096714019775 11.566178321838379 3.511826276779175 11.55382251739502 3.499842643737793 L11.55382251739502 3.499842643737793 C11.605982780456543 3.46806263923645 11.658143997192383 3.4362828731536865 11.710304260253906 3.4045028686523438 L11.710304260253906 3.4045028686523438 C11.682973861694336 3.380335807800293 11.655644416809082 3.356168746948242 11.628314018249512 3.3320016860961914 L11.628314018249512 3.3320016860961914 C11.621418952941895 3.352038621902466 11.614524841308594 3.3720757961273193 11.607629776000977 3.3921127319335938 L11.607629776000977 3.3921127319335938 C11.586931228637695 3.3925628662109375 11.566231727600098 3.3930130004882812 11.545533180236816 3.393463134765625 L11.545533180236816 3.393463134765625 C11.527888298034668 3.4189605712890625 11.510242462158203 3.4444580078125 11.492597579956055 3.4699554443359375 L11.492597579956055 3.4699554443359375 C11.471837997436523 3.4486196041107178 11.451079368591309 3.427283525466919 11.430319786071777 3.405947685241699 L11.430319786071777 3.405947685241699 C11.412725448608398 3.414839744567871 11.39513111114502 3.423731803894043 11.37753677368164 3.432623863220215 L11.37753677368164 3.432623863220215 C11.356141090393066 3.4103269577026367 11.334746360778809 3.3880300521850586 11.313350677490234 3.3657331466674805 L11.313350677490234 3.3657331466674805 C11.305583000183105 3.378612756729126 11.297816276550293 3.3914926052093506 11.290048599243164 3.404372215270996 L11.290048599243164 3.404372215270996 C11.260128021240234 3.2996551990509033 11.236359596252441 3.1920456886291504 11.229133605957031 3.0833778381347656 L11.229133605957031 3.0833778381347656 C11.207797050476074 3.104137420654297 11.186461448669434 3.124897003173828 11.165124893188477 3.1456565856933594 L11.165124893188477 3.1456565856933594 C11.166168212890625 3.0553653240203857 11.227126121520996 2.9693150520324707 11.29161262512207 2.906108856201172 L11.29161262512207 2.906108856201172 C11.302721977233887 2.9078643321990967 11.31383228302002 2.9096195697784424 11.324941635131836 2.911375045776367 L11.324941635131836 2.911375045776367 C11.31580638885498 2.849191427230835 11.306671142578125 2.7870075702667236 11.29753589630127 2.7248239517211914 L11.29753589630127 2.7248239517211914 C11.296635627746582 2.696394681930542 11.295736312866211 2.6679651737213135 11.294836044311523 2.639535903930664 L11.294836044311523 2.639535903930664 C11.237957954406738 2.652743101119995 11.186579704284668 2.6960561275482178 11.15518569946289 2.7452898025512695 L11.15518569946289 2.7452898025512695 C11.137856483459473 2.7095272541046143 11.120527267456055 2.673764944076538 11.103198051452637 2.638002395629883 L11.103198051452637 2.638002395629883 C11.077683448791504 2.688326120376587 11.052167892456055 2.73865008354187 11.026653289794922 2.788973808288574 L11.026653289794922 2.788973808288574 C10.991775512695312 2.8093080520629883 10.956897735595703 2.8296422958374023 10.922019958496094 2.8499765396118164 L10.922019958496094 2.8499765396118164 C10.940962791442871 2.81809401512146 10.959906578063965 2.7862112522125244 10.978849411010742 2.754328727722168 L10.978849411010742 2.754328727722168 C10.880255699157715 2.5354504585266113 10.70541763305664 2.7690117359161377 10.584219932556152 2.5175933837890625 L10.584219932556152 2.5175933837890625 C10.612288475036621 2.509502649307251 10.64035701751709 2.5014121532440186 10.668425559997559 2.493321418762207 L10.668425559997559 2.493321418762207 C10.710230827331543 2.5255815982818604 10.752037048339844 2.5578420162200928 10.793842315673828 2.590102195739746 L10.793842315673828 2.590102195739746 C10.877116203308105 2.416419744491577 11.141620635986328 2.3977630138397217 11.333756446838379 2.3842029571533203 L11.333756446838379 2.3842029571533203 C11.336591720581055 2.3350870609283447 11.339426040649414 2.2859714031219482 11.34226131439209 2.2368555068969727 L11.34226131439209 2.2368555068969727 C11.399483680725098 2.2210614681243896 11.456705093383789 2.2052671909332275 11.513927459716797 2.1894731521606445 L11.513927459716797 2.1894731521606445 C11.514060974121094 2.110858917236328 11.501667022705078 2.0279922485351562 11.464042663574219 1.9589662551879883 L11.464042663574219 1.9589662551879883 C11.497262001037598 1.9377952814102173 11.53048038482666 1.9166244268417358 11.563699722290039 1.8954534530639648 L11.563699722290039 1.8954534530639648 C11.578548431396484 1.927886962890625 11.593398094177246 1.9603204727172852 11.608246803283691 1.9927539825439453 L11.608246803283691 1.9927539825439453 C11.618733406066895 1.9893970489501953 11.629220008850098 1.9860401153564453 11.6397066116333 1.9826831817626953 L11.6397066116333 1.9826831817626953 C11.645241737365723 1.9472461938858032 11.650776863098145 1.9118093252182007 11.656311988830566 1.8763723373413086 L11.656311988830566 1.8763723373413086 C11.640338897705078 1.8772817850112915 11.62436580657959 1.878191351890564 11.608392715454102 1.8791007995605469 L11.608392715454102 1.8791007995605469 C11.599950790405273 1.8162766695022583 11.600931167602539 1.7414965629577637 11.64000129699707 1.691579818725586 L11.64000129699707 1.691579818725586 C11.619864463806152 1.6753565073013306 11.59972858428955 1.6591333150863647 11.579591751098633 1.6429100036621094 L11.579591751098633 1.6429100036621094 C11.613261222839355 1.5998932123184204 11.646931648254395 1.556876540184021 11.680601119995117 1.513859748840332 L11.680601119995117 1.513859748840332 C11.648768424987793 1.4995803833007812 11.616934776306152 1.4853010177612305 11.585102081298828 1.4710216522216797 L11.584870338439941 1.4713106155395508"></path></svg>