<svg xmlns="http://www.w3.org/2000/svg" viewBox="0.0 0.0 24.0 24.0" height="200px" width="200px"><path fill="none" stroke="black" stroke-width=".3" stroke-opacity="1.0"  filling="0" d="M12.0 1.7009048461914062 L12.0 1.7009048461914062 C13.007913589477539 2.708308696746826 10.992085456848145 2.7083091735839844 12.0 1.7009048461914062 L12.0 1.7009048461914062"></path>
<path fill="none" stroke="black" stroke-width=".3" stroke-opacity="1.0"  filling="0" d="M19.45199966430664 2.8379287719726562 L19.45199966430664 2.8379287719726562 C19.52400016784668 2.909928560256958 19.595998764038086 2.981928586959839 19.667999267578125 3.0539283752441406 L19.667999267578125 9.563952445983887 L19.667999267578125 16.073976516723633 L19.667999267578125 22.583999633789062 C19.595998764038086 22.6560001373291 19.52400016784668 22.727998733520508 19.45199966430664 22.799999237060547 L12.0 22.799999237060547 L4.548000335693359 22.799999237060547 C4.4760003089904785 22.727998733520508 4.404000759124756 22.6560001373291 4.332000732421875 22.583999633789062 L4.332000732421875 16.074047088623047 L4.332000732421875 9.564096450805664 L4.332000732421875 3.0541439056396484 C4.404000759124756 2.9821441173553467 4.4760003089904785 2.910144090652466 4.548000335693359 2.838144302368164 L7.437000274658203 2.838144302368164 L7.437000274658203 2.487576484680176 C7.509000301361084 2.415576219558716 7.581000328063965 2.343576192855835 7.653000354766846 2.271575927734375 L10.284311294555664 2.271575927734375 L10.284311294555664 1.6320009231567383 C10.428311347961426 1.4880008697509766 10.572312355041504 1.3440008163452148 10.716312408447266 1.2000007629394531 L13.283687591552734 1.2000007629394531 C13.427687644958496 1.3440008163452148 13.571688652038574 1.4880008697509766 13.715688705444336 1.6320009231567383 L13.715688705444336 2.271575927734375 L16.347000122070312 2.271575927734375 C16.41900062561035 2.343576192855835 16.490999221801758 2.415576219558716 16.562999725341797 2.487576484680176 L16.562999725341797 2.8379287719726562 L19.45199966430664 2.8379287719726562"></path>
<path fill="none" stroke="black" stroke-width=".3" stroke-opacity="1.0"  filling="0" d="M7.437000274658203 6.708000659942627 L11.554500579833984 6.708000659942627 L15.67199993133545 6.708000659942627 L15.67199993133545 7.2210001945495605 L11.554500579833984 7.2210001945495605 L7.437000274658203 7.2210001945495605 L7.437000274658203 6.708000659942627"></path>
<path fill="none" stroke="black" stroke-width=".3" stroke-opacity="1.0"  filling="0" d="M7.437000274658203 8.031000137329102 L11.554500579833984 8.031000137329102 L15.67199993133545 8.031000137329102 L15.67199993133545 8.543999671936035 L11.554500579833984 8.543999671936035 L7.437000274658203 8.543999671936035 L7.437000274658203 8.031000137329102"></path>
<path fill="none" stroke="black" stroke-width=".3" stroke-opacity="1.0"  filling="0" d="M7.437000274658203 9.354000091552734 L13.727999687194824 9.354000091552734 L13.727999687194824 9.867000579833984 L7.437000274658203 9.867000579833984 L7.437000274658203 9.354000091552734"></path>
<path fill="none" stroke="black" stroke-width=".3" stroke-opacity="1.0"  filling="0" d="M7.437000274658203 12.0 L11.554500579833984 12.0 L15.67199993133545 12.0 L15.67199993133545 12.512999534606934 L11.554500579833984 12.512999534606934 L7.437000274658203 12.512999534606934 L7.437000274658203 12.0"></path>
<path fill="none" stroke="black" stroke-width=".3" stroke-opacity="1.0"  filling="0" d="M7.437000274658203 13.322999954223633 L11.554500579833984 13.322999954223633 L15.67199993133545 13.322999954223633 L15.67199993133545 13.836000442504883 L11.554500579833984 13.836000442504883 L7.437000274658203 13.836000442504883 L7.437000274658203 13.322999954223633"></path>
<path fill="none" stroke="black" stroke-width=".3" stroke-opacity="1.0"  filling="0" d="M7.437000274658203 14.645999908447266 L13.727999687194824 14.645999908447266 L13.727999687194824 15.159000396728516 L7.437000274658203 15.159000396728516 L7.437000274658203 14.645999908447266"></path>
<path fill="none" stroke="black" stroke-width=".3" stroke-opacity="1.0"  filling="0" d="M16.187158584594727 15.177144050598145 L17.104942321777344 15.177144050598145 L17.104942321777344 15.573503494262695 L16.187158584594727 15.573503494262695 L16.187158584594727 15.177144050598145"></path>
<path fill="none" stroke="black" stroke-width=".3" stroke-opacity="1.0"  filling="0" d="M10.12987232208252 19.607521057128906 L9.215544700622559 19.607521057128906 L9.6758394241333 18.809616088867188 L16.105510711669922 15.150360107421875 L16.559328079223633 15.948263168334961 L10.12987232208252 19.607521057128906"></path>
<path fill="none" stroke="black" stroke-width=".3" stroke-opacity="1.0"  filling="0" d="M18.046918869018555 21.157318115234375 L18.046918869018555 21.157318115234375 C17.974918365478516 21.229318618774414 17.90291976928711 21.30131721496582 17.83091926574707 21.37331771850586 L12.0 21.37331771850586 L6.1690802574157715 21.37331771850586 C6.097080230712891 21.30131721496582 6.025080680847168 21.229318618774414 5.953080654144287 21.157318115234375 L5.953080654144287 15.59841537475586 L5.953080654144287 10.039511680603027 L5.953080654144287 4.480607986450195 C6.025080680847168 4.4086079597473145 6.097080230712891 4.336607933044434 6.1690802574157715 4.264607906341553 L7.437000274658203 4.264607906341553 L7.437000274658203 4.625112533569336 C7.509000301361084 4.697112560272217 7.581000328063965 4.769112586975098 7.653000354766846 4.8411126136779785 L12.0 4.8411126136779785 L16.347000122070312 4.8411126136779785 C16.41900062561035 4.769112586975098 16.490999221801758 4.697112560272217 16.562999725341797 4.625112533569336 L16.562999725341797 4.264607906341553 L17.83091926574707 4.264607906341553 C17.90291976928711 4.336607933044434 17.974918365478516 4.4086079597473145 18.046918869018555 4.480607986450195 L18.046918869018555 10.039511680603027 L18.046918869018555 15.59841537475586 L18.046918869018555 21.157318115234375"></path></svg>