<svg xmlns="http://www.w3.org/2000/svg" viewBox="0.0 0.0 24.0 24.0" height="200px" width="200px"><path fill="none" stroke="black" stroke-width=".3" stroke-opacity="1.0"  filling="0" d="M12.0 1.2002296447753906 L12.0 1.2002296447753906 C13.941397666931152 1.3747889995574951 15.759960174560547 1.8375983238220215 17.34933090209961 2.6945409774780273 C18.938701629638672 3.551483631134033 20.29888153076172 4.802559852600098 21.323514938354492 6.553653240203857 C22.357398986816406 8.320555686950684 22.8028621673584 10.219388961791992 22.761688232421875 12.073756217956543 C22.72051429748535 13.92812442779541 22.19270133972168 15.738025665283203 21.280031204223633 17.327064514160156 C20.36736297607422 18.91610336303711 19.06983757019043 20.28428077697754 17.489238739013672 21.255197525024414 C15.908639907836914 22.22611427307129 14.044965744018555 22.79977035522461 12.0 22.79977035522461 C9.955038070678711 22.79977035522461 8.091373443603516 22.226110458374023 6.510785102844238 21.255189895629883 C4.930197238922119 20.284269332885742 3.6326851844787598 18.916086196899414 2.7200276851654053 17.327043533325195 C1.8073701858520508 15.738000869750977 1.2795671224594116 13.92809772491455 1.238396406173706 12.073732376098633 C1.19722580909729 10.219367980957031 1.6426876783370972 8.320541381835938 2.676560163497925 6.553653240203857 C3.7011842727661133 4.802570343017578 5.061350345611572 3.551494598388672 6.650707244873047 2.694549560546875 C8.24006462097168 1.8376045227050781 10.058612823486328 1.374790072441101 12.0 1.2002296447753906 L12.0 1.2002296447753906"></path>
<path fill="none" stroke="black" stroke-width=".3" stroke-opacity="1.0"  filling="0" d="M13.12533950805664 11.999619483947754 L16.20783233642578 15.082035064697266 C16.20783233642578 16.22429847717285 16.22435760498047 16.680660247802734 15.08249282836914 16.20752716064453 L12.0 13.12511157989502 L8.917585372924805 16.20752716064453 C7.775720596313477 16.68072509765625 7.792168617248535 16.224258422851562 7.792168617248535 15.082035064697266 L10.874507904052734 11.999619483947754 L7.792853832244873 8.917964935302734 C7.792853832244873 8.542826652526855 7.527590751647949 8.057811737060547 7.792853832244873 7.792549133300781 C8.058116912841797 7.527286052703857 8.543130874633789 7.792549133300781 8.918270111083984 7.792549133300781 L11.999924659729004 10.8742036819458 L15.08165454864502 7.792549133300781 C15.456768035888672 7.792549133300781 15.941758155822754 7.527295112609863 16.206995010375977 7.792549133300781 C16.47224998474121 8.057821273803711 16.206995010375977 8.542826652526855 16.206995010375977 8.917964935302734 L13.12533950805664 11.999619483947754"></path>
<path fill="none" stroke="black" stroke-width=".3" stroke-opacity="1.0"  filling="0" d="M12.0 21.208003997802734 L12.0 21.208003997802734 C10.441831588745117 21.050430297851562 8.990148544311523 20.711267471313477 7.699669361114502 20.073169708251953 C6.409189701080322 19.43507194519043 5.279912948608398 18.49803924560547 4.366556167602539 17.144725799560547 C3.016889810562134 15.144937515258789 2.611609697341919 12.883585929870605 2.938938856124878 10.757245063781738 C3.266267776489258 8.630904197692871 4.326205730438232 6.63957405090332 5.906974792480469 5.17982816696167 C7.487744331359863 3.7200827598571777 9.58934497833252 2.791921854019165 12.0 2.791919708251953 C14.410664558410645 2.791917562484741 16.512269973754883 3.7200727462768555 18.093040466308594 5.179813861846924 C19.673810958862305 6.639554977416992 20.733747482299805 8.630882263183594 21.061077117919922 10.757225036621094 C21.388404846191406 12.883567810058594 20.98312759399414 15.14492416381836 19.633464813232422 17.144725799560547 C18.720109939575195 18.498048782348633 17.590829849243164 19.435083389282227 16.30034637451172 20.073179244995117 C15.00986099243164 20.711275100708008 13.558172225952148 21.050434112548828 12.0 21.208003997802734 L12.0 21.208003997802734"></path></svg>