<svg xmlns="http://www.w3.org/2000/svg" viewBox="0.0 0.0 24.0 24.0" height="200px" width="200px"><path fill="none" stroke="black" stroke-width=".3" stroke-opacity="1.0"  filling="0" d="M12.000381469726562 1.1998481750488281 L12.000381469726562 1.1998481750488281 C13.941790580749512 1.3744101524353027 15.760326385498047 1.83722722530365 17.34964370727539 2.6941957473754883 C18.938962936401367 3.551164388656616 20.29906463623047 4.802284240722656 21.323606491088867 6.553452491760254 C22.35734748840332 8.320343017578125 22.802778244018555 10.219207763671875 22.76163101196289 12.073627471923828 C22.720481872558594 13.928048133850098 22.1927547454834 15.738024711608887 21.280179977416992 17.327138900756836 C20.367603302001953 18.9162540435791 19.070178985595703 20.284507751464844 17.489635467529297 21.255483627319336 C15.90909194946289 22.226459503173828 14.045431137084961 22.800155639648438 12.000381469726562 22.800153732299805 C9.955351829528809 22.800151824951172 8.09162425994873 22.226472854614258 6.510982513427734 21.255517959594727 C4.93034029006958 20.284564971923828 3.6327826976776123 18.916336059570312 2.720092296600342 17.327239990234375 C1.8074017763137817 15.738143920898438 1.2795782089233398 13.928179740905762 1.2384034395217896 12.073752403259277 C1.1972286701202393 10.219325065612793 1.6427029371261597 8.3204345703125 2.676608085632324 6.553486347198486 C3.701268196105957 4.802338123321533 5.061481475830078 3.551212787628174 6.650895118713379 2.694232225418091 C8.24030876159668 1.837251901626587 10.058921813964844 1.3744165897369385 12.000381469726562 1.1998481750488281 L12.000381469726562 1.1998481750488281"></path>
<path fill="none" stroke="black" stroke-width=".3" stroke-opacity="1.0"  filling="0" d="M16.09101676940918 8.034183502197266 L16.09101676940918 8.034183502197266 C16.464885711669922 8.001290321350098 16.924997329711914 7.694397449493408 17.212621688842773 7.935503005981445 C17.500246047973633 8.17660903930664 17.27840805053711 8.683239936828613 17.311302185058594 9.057108879089355 L14.415693283081055 12.511539459228516 L11.520085334777832 15.965970039367676 C11.16003704071045 16.138683319091797 10.687636375427246 16.152233123779297 10.32235336303711 15.990886688232422 L6.711253643035889 12.033146858215332 C6.728348255157471 11.658516883850098 6.485456466674805 11.161972999572754 6.762537479400635 10.909255981445312 C7.039824962615967 10.656350135803223 7.512357711791992 10.943445205688477 7.887267589569092 10.960539817810059 L10.885099411010742 14.245879173278809 L13.488058090209961 11.140031814575195 L16.09101676940918 8.034183502197266"></path>
<path fill="none" stroke="black" stroke-width=".3" stroke-opacity="1.0"  filling="0" d="M12.000381469726562 21.208385467529297 L12.000381469726562 21.208385467529297 C10.442100524902344 21.050819396972656 8.990306854248047 20.711688995361328 7.699740409851074 20.07358169555664 C6.40917444229126 19.435474395751953 5.279836654663086 18.498390197753906 4.3664679527282715 17.144914627075195 C3.016841173171997 15.144969940185547 2.6115896701812744 12.883519172668457 2.938951253890991 10.757115364074707 C3.266313076019287 8.630712509155273 4.326287746429443 6.6393561363220215 5.907113552093506 5.179601192474365 C7.48793888092041 3.719845771789551 9.589615821838379 2.791691780090332 12.000381469726562 2.791691780090332 C14.411117553710938 2.791692018508911 16.512651443481445 3.7199058532714844 18.093318939208984 5.179721355438232 C19.67398452758789 6.6395368576049805 20.733781814575195 8.630953788757324 21.06104278564453 10.757359504699707 C21.3883056640625 12.88376522064209 20.9830322265625 15.145160675048828 19.633554458618164 17.14493179321289 C18.72027587890625 18.498306274414062 17.591068267822266 19.435380935668945 16.300636291503906 20.073505401611328 C15.010205268859863 20.711631774902344 13.558550834655762 21.05080795288086 12.000381469726562 21.208385467529297 L12.000381469726562 21.208385467529297"></path></svg>