<svg xmlns="http://www.w3.org/2000/svg" viewBox="0.0 0.0 24.0 24.0" height="200px" width="200px"><path fill="none" stroke="black" stroke-width=".3" stroke-opacity="1.0"  filling="0" d="M17.99603843688965 1.2000007629394531 L17.99603843688965 1.2000007629394531 C18.42767333984375 1.378854513168335 18.960723876953125 1.4060274362564087 19.290943145751953 1.736561894416809 C20.42440414428711 2.8711061477661133 19.60234260559082 4.867311000823975 17.99603843688965 4.867311000823975 C16.389606475830078 4.867311000823975 15.55531120300293 2.8745880126953125 16.696443557739258 1.736561894416809 C17.02829360961914 1.4056156873703003 17.56283950805664 1.378854513168335 17.99603843688965 1.2000007629394531 L17.99603843688965 1.2000007629394531"></path>
<path fill="none" stroke="black" stroke-width=".3" stroke-opacity="1.0"  filling="0" d="M8.150439262390137 3.0382823944091797 L8.150439262390137 3.0382823944091797 C7.970950126647949 3.4701781272888184 7.943050861358643 4.003611087799072 7.611971378326416 4.333969593048096 C6.476637840270996 5.466829776763916 4.477377414703369 4.646831035614014 4.477377414703369 3.0382823944091797 C4.477377414703369 1.429956316947937 6.476126670837402 0.6081039905548096 7.61187744140625 1.741844892501831 C7.943061351776123 2.0724427700042725 7.970918655395508 2.6061365604400635 8.150439262390137 3.0382823944091797 L8.150439262390137 3.0382823944091797"></path>
<path fill="none" stroke="black" stroke-width=".3" stroke-opacity="1.0"  filling="0" d="M17.81532096862793 5.29493522644043 L18.16698455810547 5.29493522644043 C18.801198959350586 5.426129341125488 19.494182586669922 5.391361236572266 20.069629669189453 5.6885175704956055 C21.085861206054688 6.213292121887207 21.50918197631836 7.592206001281738 21.69979476928711 9.07323169708252 C21.89040756225586 10.554258346557617 21.848308563232422 12.137396812438965 21.933700561523438 13.070621490478516 L21.933700561523438 13.070621490478516 C21.77638053894043 13.312088966369629 21.33176612854004 13.414583206176758 21.089706420898438 13.258176803588867 L20.019084930419922 8.006656646728516 L20.13239860534668 15.016498565673828 L20.245712280273438 22.02634048461914 C20.024293899536133 22.2816219329834 19.812747955322266 22.545812606811523 19.581459045410156 22.792186737060547 C19.350168228149414 23.03856086730957 19.062564849853516 22.358600616455078 18.815610885620117 22.1279296875 L18.40142822265625 17.99782943725586 L17.987247467041016 13.867728233337402 L17.584787368774414 17.99782943725586 L17.182327270507812 22.1279296875 C16.92997169494629 22.358577728271484 16.634845733642578 23.04144287109375 16.400850296020508 22.792186737060547 C16.169559478759766 22.545812606811523 15.958012580871582 22.2816219329834 15.736594200134277 22.02634048461914 L15.912425994873047 17.009262084960938 L16.088258743286133 11.992185592651367 L15.971038818359375 8.006656646728516 L15.603743553161621 13.344138145446777 C15.376992225646973 13.522565841674805 14.924816131591797 13.46749496459961 14.744120597839355 13.242547035217285 L14.744120597839355 13.242547035217285 C14.713602066040039 12.30778980255127 14.473548889160156 10.695338249206543 14.507709503173828 9.178536415100098 C14.541871070861816 7.661734580993652 14.85024642944336 6.240582466125488 15.916584968566895 5.688424110412598 C16.49056053161621 5.391214847564697 17.182409286499023 5.426098346710205 17.81532096862793 5.29493522644043 L17.81532096862793 5.29493522644043"></path>
<path fill="none" stroke="black" stroke-width=".3" stroke-opacity="1.0"  filling="0" d="M6.135692119598389 5.3027496337890625 L6.487356662750244 5.3027496337890625 C7.0803303718566895 5.433818817138672 7.737743854522705 5.396876811981201 8.266277313232422 5.695957183837891 C9.186058044433594 6.216431617736816 9.637816429138184 7.587287902832031 9.89492416381836 9.04977798461914 C10.152031898498535 10.51226806640625 10.214488983154297 12.066391944885254 10.355663299560547 12.953400611877441 L10.355663299560547 12.953400611877441 C10.200939178466797 13.196538925170898 9.754807472229004 13.295679092407227 9.511669158935547 13.140954971313477 L8.08938217163086 8.014472007751465 L8.706748962402344 11.804630279541016 L9.324114799499512 15.594789505004883 L8.128456115722656 15.594789505004883 L7.761162757873535 22.37018585205078 C7.558547496795654 22.57280158996582 7.104153633117676 22.57280158996582 6.901538848876953 22.37018585205078 L6.502985954284668 15.594789505004883 L6.09661865234375 15.594789505004883 L5.729325294494629 22.37018585205078 C5.523034572601318 22.57279396057129 5.066343307495117 22.574644088745117 4.861886501312256 22.37018585205078 L4.494593143463135 15.594789505004883 L3.298933982849121 15.594789505004883 L3.9202072620391846 11.804630279541016 L4.541480541229248 8.014472007751465 L2.908196449279785 13.234731674194336 C2.6576902866363525 13.37840461730957 2.2156896591186523 13.258609771728516 2.072016716003418 13.008103370666504 L2.072016716003418 13.008103370666504 C2.2465872764587402 12.116131782531738 2.3608219623565674 10.548188209533691 2.66054368019104 9.073190689086914 C2.9602653980255127 7.598193645477295 3.445474147796631 6.216142654418945 4.361991882324219 5.695957183837891 C4.888662815093994 5.397036075592041 5.544458866119385 5.433818817138672 6.135692119598389 5.3027496337890625 L6.135692119598389 5.3027496337890625"></path>
<path fill="none" stroke="black" stroke-width=".3" stroke-opacity="1.0"  filling="0" d="M6.323246479034424 5.670043468475342 L6.323246479034424 5.670043468475342 C6.661886215209961 5.701302528381348 7.00052547454834 5.7325615882873535 7.339165210723877 5.763820648193359 L6.315432071685791 7.725326061248779 L5.291698455810547 5.763820648193359 C5.635547637939453 5.7325615882873535 5.979397296905518 5.701302528381348 6.323246479034424 5.670043468475342 L6.323246479034424 5.670043468475342"></path>
<path fill="none" stroke="black" stroke-width=".3" stroke-opacity="1.0"  filling="0" d="M17.995059967041016 5.7169318199157715 L17.995059967041016 5.7169318199157715 C18.185218811035156 5.740375995635986 18.375377655029297 5.763820648193359 18.565536499023438 5.787264823913574 L18.174800872802734 6.310853958129883 C18.29796600341797 6.473206996917725 18.22901725769043 6.743471145629883 18.127912521362305 6.920405387878418 L18.565536499023438 11.390448570251465 L17.995059967041016 12.16411018371582 L17.41676902770996 11.390448570251465 L17.86220932006836 6.920405387878418 C17.761104583740234 6.743471145629883 17.692155838012695 6.473206996917725 17.81532096862793 6.310853958129883 L17.41676902770996 5.787264823913574 C17.609533309936523 5.763820648193359 17.802295684814453 5.740375995635986 17.995059967041016 5.7169318199157715 L17.995059967041016 5.7169318199157715"></path>
<path fill="none" stroke="black" stroke-width=".3" stroke-opacity="1.0"  filling="0" d="M9.832075119018555 12.898697853088379 L9.832075119018555 12.898697853088379 C9.91513442993164 12.934062004089355 9.987682342529297 13.009634017944336 10.019628524780273 13.094066619873047 L10.19936752319336 13.648914337158203 C10.394736289978027 14.057887077331543 10.590106010437012 14.466858863830566 10.78547477722168 14.875831604003906 L11.04336166381836 18.134586334228516 C10.84538745880127 18.54616355895996 10.647414207458496 18.95774269104004 10.449440002441406 19.369319915771484 L9.480409622192383 19.369319915771484 C9.282435417175293 18.95774269104004 9.08446216583252 18.54616355895996 8.88648796081543 18.134586334228516 L8.88648796081543 14.875831604003906 C9.08446216583252 14.466858863830566 9.282435417175293 14.057887077331543 9.480409622192383 13.648914337158203 L9.644519805908203 13.094066619873047 C9.700553894042969 13.023286819458008 9.743553161621094 12.916401863098145 9.832075119018555 12.898696899414062 L9.832075119018555 12.898696899414062"></path>
<path fill="none" stroke="black" stroke-width=".3" stroke-opacity="1.0"  filling="0" d="M15.267707824707031 13.219101905822754 L15.267707824707031 13.219101905822754 C15.451668739318848 13.219101905822754 15.44450855255127 13.306380271911621 15.47870922088623 13.445730209350586 L15.384930610656738 13.953689575195312 C15.56467056274414 14.360057830810547 15.744409561157227 14.766425132751465 15.924149513244629 15.1727933883667 L15.955408096313477 18.431547164916992 C15.760039329528809 18.843124389648438 15.564669609069824 19.254703521728516 15.369300842285156 19.66628074645996 L14.400270462036133 19.674095153808594 C14.199691772460938 19.26512336730957 13.999113082885742 18.856149673461914 13.798534393310547 18.44717788696289 L14.032977104187012 15.188422203063965 C14.225741386413574 14.77684497833252 14.41850471496582 14.365266799926758 14.611268997192383 13.953689575195312 L15.009822845458984 13.94587516784668 L15.111413955688477 13.38321304321289 C15.163512229919434 13.328509330749512 15.215609550476074 13.273805618286133 15.267707824707031 13.219101905822754 L15.267707824707031 13.219101905822754"></path></svg>