<svg xmlns="http://www.w3.org/2000/svg" viewBox="0.0 0.0 24.0 24.0" height="200px" width="200px"><path fill="none" stroke="black" stroke-width=".3" stroke-opacity="1.0"  filling="0" d="M93.1609115600586 87.76329040527344 L93.1609115600586 87.76329040527344 C94.57077026367188 87.77617645263672 95.98611450195312 87.7787094116211 97.39729309082031 87.83690643310547 C98.8084716796875 87.89511108398438 100.21548461914062 88.00897979736328 101.60868835449219 88.24454498291016 L101.60868835449219 88.24454498291016 C102.54479217529297 89.89994812011719 104.00489044189453 91.68360137939453 104.18448638916016 93.59528350830078 L104.18448638916016 93.59528350830078 C102.51962280273438 93.87675476074219 100.84159851074219 94.07847595214844 99.15692901611328 94.21217346191406 C97.47225952148438 94.34587860107422 95.78095245361328 94.41156768798828 94.0895004272461 94.42096710205078 C92.3980484008789 94.43035888671875 90.70646667480469 94.38346862792969 89.02124786376953 94.29202270507812 C86.8869857788086 94.17620849609375 84.68836975097656 94.17168426513672 82.73978424072266 93.25962829589844 L82.73978424072266 93.25962829589844 C83.6712646484375 91.54660034179688 84.58072662353516 89.82194519042969 85.6324462890625 88.17974090576172 L85.6324462890625 88.17974090576172 C86.88990783691406 88.02246856689453 88.1388931274414 87.92489624023438 89.39007568359375 87.86336517333984 C90.64126586914062 87.80184173583984 91.89464569091797 87.7763671875 93.1609115600586 87.76329040527344 L93.1609115600586 87.76329040527344"></path>
<path fill="none" stroke="black" stroke-width=".3" stroke-opacity="1.0"  filling="0" d="M93.1609115600586 88.30502319335938 L93.1609115600586 88.30502319335938 C95.39210510253906 88.3228759765625 97.61054992675781 88.39068603515625 99.83704376220703 88.53873443603516 L99.83704376220703 88.53873443603516 C98.40098571777344 88.72148132324219 96.96981048583984 88.85628509521484 95.53570556640625 88.92637634277344 C94.10160827636719 88.9964599609375 92.66456604003906 89.00183868408203 91.21676635742188 88.92572021484375 C91.010498046875 88.91487884521484 87.97431182861328 88.7120132446289 87.77474212646484 88.61907958984375 C87.50090026855469 88.49156188964844 88.35739135742188 88.44847106933594 88.65753173828125 88.41431427001953 C89.15489959716797 88.35771179199219 89.65750122070312 88.36441040039062 90.15780639648438 88.34786224365234 C91.31072998046875 88.30972290039062 92.00756072998047 88.31269836425781 93.1609115600586 88.30502319335938 L93.1609115600586 88.30502319335938"></path>
<path fill="none" stroke="black" stroke-width=".3" stroke-opacity="1.0"  filling="0" d="M85.8449935913086 88.75537872314453 L85.8449935913086 88.75537872314453 C87.53418731689453 89.10698699951172 89.25028991699219 89.3421401977539 90.97535705566406 89.46009826660156 C92.7004165649414 89.57804870605469 94.43443298339844 89.57880401611328 96.15943145751953 89.46160125732422 C97.88442993164062 89.34440612792969 99.60041809082031 89.10924530029297 101.2894287109375 88.75537872314453 L101.2894287109375 88.75537872314453 C102.09858703613281 90.21223449707031 102.90768432617188 91.6690902709961 103.71682739257812 93.12593078613281 L103.71682739257812 93.12593078613281 C101.5088882446289 93.47498321533203 99.2652816772461 93.70806121826172 97.00969696044922 93.82561492919922 C94.75410461425781 93.94316864013672 92.48654174804688 93.94519805908203 90.23068237304688 93.83213806152344 C87.97482299804688 93.71908569335938 85.73066711425781 93.49095153808594 83.52191162109375 93.14817810058594 L83.52191162109375 93.14817810058594 C84.21162414550781 91.63504791259766 85.03780364990234 90.20878601074219 85.8449935913086 88.75537872314453 L85.8449935913086 88.75537872314453"></path></svg>