<svg xmlns="http://www.w3.org/2000/svg" viewBox="0.0 0.0 24.0 24.0" height="200px" width="200px"><path fill="none" stroke="black" stroke-width=".3" stroke-opacity="1.0"  filling="0" d="M13.431324005126953 3.6896162033081055 L13.431324005126953 3.6896162033081055 C13.163393020629883 4.752740383148193 12.913209915161133 5.826735019683838 12.796500205993652 6.916872024536133 L12.067068099975586 6.987287998199463 C12.223570823669434 5.7638092041015625 12.512035369873047 4.558748245239258 12.819828033447266 3.364320755004883 L12.819828033447266 3.364320755004883 C12.846467971801758 3.3558967113494873 12.873108863830566 3.3474724292755127 12.899748802185059 3.339048385620117 L13.195451736450195 2.987184524536133 C13.36571216583252 2.1632351875305176 16.201536178588867 1.4582922458648682 16.960546493530273 1.2000007629394531 L17.172012329101562 1.8117132186889648 C16.532560348510742 2.0223686695098877 13.842530250549316 3.2967748641967773 13.608444213867188 3.3442325592041016 L13.396980285644531 3.616824150085449 C13.408428192138672 3.6410882472991943 13.419876098632812 3.6653521060943604 13.431324005126953 3.6896162033081055 L13.431324005126953 3.6896162033081055"></path>
<path fill="none" stroke="black" stroke-width=".3" stroke-opacity="1.0"  filling="0" d="M7.674707889556885 7.948488235473633 L7.597596168518066 7.52448034286499 L8.402412414550781 7.123368263244629 L12.862812042236328 6.934152126312256 L14.630339622497559 7.507848262786865 L14.430540084838867 8.008968353271484 L12.943812370300293 8.343769073486328 C12.6161527633667 8.368471145629883 12.28846263885498 8.395429611206055 11.962307929992676 8.435352325439453 L9.209172248840332 8.370768547058105 L7.674707889556885 7.948488235473633"></path>
<path fill="none" stroke="black" stroke-width=".3" stroke-opacity="1.0"  filling="0" d="M6.851316452026367 12.86313533782959 L6.827772617340088 9.612119674682617 L7.602564334869385 8.16643238067627 C7.6334452629089355 8.10457706451416 7.673910140991211 8.0415678024292 7.676004409790039 7.972464084625244 L7.7185564041137695 7.403520107269287 L9.053651809692383 7.011047840118408 C9.248505592346191 6.981936454772949 9.443992614746094 6.955727577209473 9.640308380126953 6.939120292663574 L12.871020317077637 6.937608242034912 L14.626667976379395 7.502232074737549 L14.567915916442871 8.04914379119873 L15.404699325561523 9.638688087463379 L15.320783615112305 15.333526611328125 L15.236867904663086 21.028366088867188 L13.662012100219727 22.312055587768555 L11.397684097290039 22.798484802246094 L8.924484252929688 22.523517608642578 L7.174884796142578 21.441791534423828 L6.87032413482666 20.809560775756836 L6.860820293426514 16.836347579956055 L6.851316452026367 12.86313533782959"></path></svg>