<svg xmlns="http://www.w3.org/2000/svg" viewBox="0.0 0.0 24.0 24.0" height="200px" width="200px"><path fill="none" stroke="black" stroke-width=".3" stroke-opacity="1.0"  filling="0" d="M128.56956481933594 92.58912658691406 L128.56956481933594 92.58912658691406 C126.84608459472656 90.99180603027344 125.33187103271484 89.24430084228516 124.00830078125 87.35977935791016 C122.68473815917969 85.47525024414062 121.55181121826172 83.45370483398438 120.59089660644531 81.30828857421875 C119.78361511230469 79.50588989257812 119.08126831054688 77.62532043457031 118.5605239868164 75.6993637084961 C118.0397720336914 73.77339935302734 117.70061492919922 71.80204010009766 117.61969757080078 69.81804656982422 C117.5242691040039 67.47822570800781 117.7902603149414 65.12226867675781 118.4776611328125 62.88067626953125 C119.2227783203125 60.450862884521484 120.343505859375 58.349700927734375 121.75414276123047 56.53941345214844 C123.16478729248047 54.7291259765625 124.86534881591797 53.209712982177734 126.7701416015625 51.94340133666992 C128.6749267578125 50.677085876464844 130.78396606445312 49.66387176513672 133.01153564453125 48.86597442626953 C135.23910522460938 48.068077087402344 137.58523559570312 47.48550033569336 139.96421813964844 47.080467224121094 C142.34320068359375 46.67543411254883 144.75503540039062 46.44794464111328 147.1140594482422 46.36022186279297 C149.47308349609375 46.272499084472656 151.77926635742188 46.32453918457031 153.94696044921875 46.478572845458984 C156.29766845703125 46.64561080932617 158.644287109375 46.92081069946289 160.95834350585938 47.372520446777344 C163.39675903320312 47.848506927490234 165.8207550048828 48.534088134765625 168.1034393310547 49.52055740356445 C170.38612365722656 50.50702667236328 172.5275115966797 51.79438018798828 174.40072631835938 53.473907470703125 C175.6082000732422 54.55652618408203 176.7581024169922 55.84231948852539 177.77499389648438 57.25703430175781 C178.79188537597656 58.671749114990234 179.67575073242188 60.21538543701172 180.3511199951172 61.81369400024414 C181.0264892578125 63.4119987487793 181.49337768554688 65.06497192382812 181.67628479003906 66.6983642578125 C181.93531799316406 69.01146697998047 181.7806396484375 71.36602783203125 181.32003784179688 73.68756866455078 C180.8594207763672 76.00911712646484 180.09286499023438 78.29765319824219 179.128173828125 80.47871398925781 C178.16348266601562 82.65978240966797 177.00064086914062 84.73336791992188 175.74745178222656 86.62503051757812 C174.8892059326172 87.92051696777344 173.95350646972656 89.1691665649414 172.92417907714844 90.33252716064453 C171.8948516845703 91.49588012695312 170.7718963623047 92.57394409179688 169.53912353515625 93.52825164794922 C169.24822998046875 93.7534408569336 166.7018585205078 95.85877227783203 165.72389221191406 96.02281951904297 C164.81553649902344 96.17518615722656 164.3281707763672 94.94137573242188 164.021728515625 94.4673843383789 C163.32354736328125 93.38744354248047 162.62937927246094 92.29791259765625 161.81289672851562 91.30438995361328 C160.67181396484375 89.91586303710938 159.42068481445312 88.57994079589844 158.0804443359375 87.341552734375 C156.74020385742188 86.10316467285156 155.3108367919922 84.96231079101562 153.81324768066406 83.96391296386719 C152.74441528320312 83.25135803222656 151.29835510253906 82.26589965820312 149.9347686767578 82.2586898803711 C148.40103149414062 82.25057983398438 146.83688354492188 83.10957336425781 145.5782470703125 83.88043212890625 C144.05618286132812 84.8126220703125 142.61300659179688 85.92741394042969 141.28701782226562 87.16852569580078 C139.96102905273438 88.40963745117188 138.75225830078125 89.7770767211914 137.6990203857422 91.21456909179688 C136.8632049560547 92.3553237915039 135.2771453857422 96.1324234008789 133.6173858642578 96.34564971923828 C132.9168243408203 96.43565368652344 132.3649139404297 95.68083190917969 131.79782104492188 95.25978088378906 C130.46768188476562 94.27220153808594 129.8564453125 93.69965362548828 128.56956481933594 92.58912658691406 L128.56956481933594 92.58912658691406"></path>
<path fill="none" stroke="black" stroke-width=".3" stroke-opacity="1.0"  filling="0" d="M48.6260871887207 120.0586929321289 L48.6260871887207 120.0586929321289 C46.7979736328125 118.6768798828125 45.044246673583984 117.19462585449219 43.37577819824219 115.62187957763672 C41.707313537597656 114.04913330078125 40.124107360839844 112.38590240478516 38.637046813964844 110.64215087890625 C37.14998245239258 108.89839172363281 35.75905990600586 107.07410430908203 34.475154876708984 105.17925262451172 C33.19124984741211 103.28439331054688 32.01436233520508 101.3189697265625 30.955368041992188 99.29293823242188 C29.89637565612793 97.26690673828125 28.955280303955078 95.18025970458984 28.14295768737793 93.04296875 C27.33063507080078 90.90567016601562 26.64708709716797 88.71772766113281 26.10318946838379 86.48908996582031 C25.55929183959961 84.26045989990234 25.155044555664062 81.99113464355469 24.901329040527344 79.69107055664062 C24.642505645751953 77.34471130371094 24.533512115478516 74.91020965576172 24.627439498901367 72.4713134765625 C24.72136688232422 70.03241729736328 25.018213272094727 67.58912658691406 25.571067810058594 65.22517395019531 C26.123920440673828 62.8612174987793 26.932781219482422 60.57660675048828 28.050737380981445 58.455081939697266 C28.813133239746094 57.00829315185547 29.699535369873047 55.627262115478516 30.673921585083008 54.309940338134766 C31.64830780029297 52.99262237548828 32.71067810058594 51.739013671875 33.825008392333984 50.54707336425781 C35.24755859375 49.025447845458984 36.772621154785156 47.5880012512207 38.38945007324219 46.26351547241211 C40.00627899169922 44.939029693603516 41.714866638183594 43.72750473022461 43.50446319580078 42.65772247314453 C45.51368713378906 41.45664978027344 47.660282135009766 40.459564208984375 49.88315963745117 39.61785888671875 C52.10603332519531 38.776153564453125 54.40519332885742 38.08982849121094 56.71955108642578 37.51026916503906 C59.03390884399414 36.93070983886719 61.36346435546875 36.457923889160156 63.64712905883789 36.04329299926758 C66.04936218261719 35.60713577270508 68.47236633300781 35.25486373901367 70.90802001953125 34.98875427246094 C73.34367370605469 34.72264862060547 75.79198455810547 34.54270935058594 78.24484252929688 34.45121765136719 C80.69770050048828 34.35972595214844 83.15510559082031 34.356685638427734 85.60895538330078 34.444374084472656 C88.06280517578125 34.532066345214844 90.5130844116211 34.710487365722656 92.95169830322266 34.9819221496582 C95.39031219482422 35.25335693359375 97.8172607421875 35.61780548095703 100.22442626953125 36.07754898071289 C102.631591796875 36.53729248046875 105.01898193359375 37.09233474731445 107.37848663330078 37.74495315551758 C109.73798370361328 38.3975715637207 112.06959533691406 39.14776611328125 114.3652114868164 39.997825622558594 L117.88695526123047 41.289127349853516 L113.6608657836914 44.693477630615234 C111.86322021484375 46.30051040649414 110.3544921875 48.07082748413086 109.11216735839844 49.96513748168945 C107.86984252929688 51.85944747924805 106.8939208984375 53.877742767333984 106.16189575195312 55.98073196411133 C105.42987060546875 58.08372116088867 104.94172668457031 60.271400451660156 104.67497253417969 62.50447463989258 C104.40821075439453 64.737548828125 104.36283111572266 67.0160140991211 104.51631164550781 69.30058288574219 C104.66979217529297 71.58514404296875 105.02214050292969 73.87580871582031 105.55084228515625 76.13326263427734 C106.07953643798828 78.3907241821289 106.78458404541016 80.61497497558594 107.64347076416016 82.76673889160156 C108.50235748291016 84.91849517822266 109.51508331298828 86.99775695800781 110.65913391113281 88.96521759033203 C111.80318450927734 90.93267822265625 113.07855224609375 92.78834533691406 114.46273803710938 94.49291229248047 C115.60308837890625 95.89720153808594 116.8283462524414 97.19197845458984 118.1268539428711 98.40956115722656 C119.42535400390625 99.62713623046875 120.79710388183594 100.76752471923828 122.23043060302734 101.863037109375 L127.98260498046875 105.97173309326172 L123.6391372680664 110.90216827392578 C122.06440734863281 112.57807159423828 120.43629455566406 114.20174407958984 118.75760650634766 115.77157592773438 C117.07891845703125 117.34140014648438 115.34963989257812 118.85737609863281 113.57258605957031 120.3178939819336 C112.97232055664062 120.81124114990234 110.20265197753906 123.60334014892578 109.19999694824219 123.34564971923828 C108.39002227783203 123.13748168945312 108.02642059326172 122.14179229736328 107.5565185546875 121.44999694824219 C106.22888946533203 119.49542999267578 105.1238784790039 117.40098571777344 103.81723022460938 115.43132019042969 C102.55168914794922 113.52362060546875 101.1888198852539 111.63140106201172 99.71833801269531 109.81732177734375 C98.24784851074219 108.00325012207031 96.66975402832031 106.26730346679688 94.97374725341797 104.67215728759766 C93.27774047851562 103.07701110839844 91.46383666992188 101.62265014648438 89.52173614501953 100.37173461914062 C88.37002563476562 99.6299057006836 87.0971908569336 98.90544128417969 85.76011657714844 98.37214660644531 C84.42304992675781 97.83885192871094 83.021728515625 97.49671936035156 81.613037109375 97.51956176757812 C80.27311706542969 97.54129028320312 78.92406463623047 97.89385986328125 77.6259536743164 98.4026870727539 C76.32784271240234 98.91151428222656 75.0806884765625 99.57659912109375 73.94456481933594 100.22335815429688 C71.94107055664062 101.36388397216797 70.06398010253906 102.7884292602539 68.3053207397461 104.38687133789062 C66.54666137695312 105.98532104492188 64.90643310546875 107.7576675415039 63.37664794921875 109.59381103515625 C61.846866607666016 111.4299545288086 60.42753601074219 113.32989501953125 59.11067199707031 115.18350982666016 C57.80098342895508 117.02703094482422 56.63983917236328 118.90230560302734 55.78695297241211 120.99783325195312 C55.5504150390625 121.5790023803711 55.284889221191406 122.88421630859375 54.41582489013672 123.10147857666016 C52.68252182006836 123.53479766845703 49.67454147338867 120.780517578125 48.6260871887207 120.0586929321289 L48.6260871887207 120.0586929321289"></path>
<path fill="none" stroke="black" stroke-width=".3" stroke-opacity="1.0"  filling="0" d="M140.30868530273438 148.81956481933594 L140.30868530273438 148.81956481933594 C138.10140991210938 147.64019775390625 136.20484924316406 146.2140350341797 134.44850158691406 144.42066955566406 C133.07391357421875 143.01710510253906 131.7761993408203 141.47317504882812 130.6627655029297 139.81173706054688 C129.54931640625 138.15029907226562 128.62014770507812 136.37136840820312 127.98260498046875 134.49781799316406 C127.2332992553711 132.2958221435547 126.97516632080078 130.00717163085938 127.07577514648438 127.6954345703125 C127.17638397216797 125.38369750976562 127.6357421875 123.04886627197266 128.32142639160156 120.75448608398438 C129.00711059570312 118.46009826660156 129.91909790039062 116.20616912841797 130.92498779296875 114.05623626708984 C131.93087768554688 111.90630340576172 133.0306396484375 109.86036682128906 134.09188842773438 107.98196411132812 C134.9381561279297 106.48406982421875 136.0206298828125 104.69430541992188 137.29954528808594 102.90777587890625 C138.57846069335938 101.12124633789062 140.05380249023438 99.33794403076172 141.68582153320312 97.85297393798828 C143.31784057617188 96.36801147460938 145.10650634765625 95.1813735961914 147.0120849609375 94.58817291259766 C148.9176483154297 93.99497985839844 150.94009399414062 93.99520874023438 153.0396728515625 94.88398742675781 C154.69027709960938 95.58271026611328 156.1984405517578 96.62583923339844 157.5768585205078 97.86910247802734 C158.95526123046875 99.11235809326172 160.20394897460938 100.55574035644531 161.3355712890625 102.05496215820312 C162.4672088623047 103.55419158935547 163.4818115234375 105.1092529296875 164.39207458496094 106.57588195800781 C165.51161193847656 108.37969207763672 166.60977172851562 110.34241485595703 167.6048583984375 112.40969848632812 C168.59994506835938 114.47698974609375 169.49195861816406 116.64884185791016 170.19920349121094 118.87093353271484 C170.90643310546875 121.093017578125 171.4288787841797 123.36534118652344 171.68484497070312 125.63355255126953 C171.94081115722656 127.90176391601562 171.9302978515625 130.16587829589844 171.5715789794922 132.37155151367188 C171.21287536621094 134.5772247314453 170.5059814453125 136.72445678710938 169.36917114257812 138.75892639160156 C168.7498779296875 139.86724853515625 168.011962890625 140.897705078125 167.19384765625 141.86228942871094 C166.37574768066406 142.82687377929688 165.47743225097656 143.72561645507812 164.53733825683594 144.57046508789062 C162.7674560546875 146.1610565185547 160.8422088623047 147.8475799560547 158.62173461914062 148.78054809570312 C157.44146728515625 149.27645874023438 156.1932830810547 149.55294799804688 154.9251251220703 149.71881103515625 C153.656982421875 149.8846893310547 152.3688507080078 149.93995666503906 151.1086883544922 149.99346923828125 C149.28396606445312 150.07095336914062 147.4520263671875 150.0819854736328 145.64224243164062 149.92138671875 C143.8324432373047 149.7607879638672 142.0447998046875 149.42857360839844 140.30868530273438 148.81956481933594 L140.30868530273438 148.81956481933594"></path>
<path fill="none" stroke="black" stroke-width=".3" stroke-opacity="1.0"  filling="0" d="M70.10868835449219 203.75868225097656 L70.10868835449219 203.75868225097656 C67.95806121826172 202.8963623046875 65.89881896972656 201.90316772460938 63.94303512573242 200.73870849609375 C61.98725128173828 199.57424926757812 60.13493347167969 198.238525390625 58.39814758300781 196.69119262695312 C57.189918518066406 195.61474609375 56.050514221191406 194.461181640625 54.98801803588867 193.24061584472656 C53.92552185058594 192.0200653076172 52.93994140625 190.7325439453125 52.039363861083984 189.38819885253906 C50.64715576171875 187.3099822998047 49.524906158447266 185.1814422607422 48.64558792114258 183.01673889160156 C47.766265869140625 180.85205078125 47.12987518310547 178.6511993408203 46.709388732910156 176.42837524414062 C46.288902282714844 174.20556640625 46.08431625366211 171.9607696533203 46.068607330322266 169.70819091796875 C46.05289840698242 167.4556121826172 46.22606658935547 165.1952362060547 46.56108856201172 162.94125366210938 C46.8961067199707 160.68727111816406 47.39297866821289 158.43968200683594 48.02467346191406 156.21266174316406 C48.656368255615234 153.9856414794922 49.42288589477539 151.7791748046875 50.297203063964844 149.6074676513672 C51.17151641845703 147.43576049804688 52.15363311767578 145.29879760742188 53.21651840209961 143.2107696533203 C54.27940368652344 141.12274169921875 55.423065185546875 139.0836181640625 56.62046432495117 137.1076202392578 C57.77956008911133 135.19483947753906 59.009525299072266 133.32455444335938 60.31366729736328 131.50747680664062 C61.55875778198242 129.77267456054688 62.871437072753906 128.0853271484375 64.26191711425781 126.46443176269531 C65.4925308227539 125.02989959716797 66.90010070800781 123.470458984375 68.4495849609375 121.98168182373047 C69.99907684326172 120.49290466308594 71.69049835205078 119.07478332519531 73.48881530761719 117.92288970947266 C75.28713989257812 116.77099609375 77.19236755371094 115.88531494140625 79.16947937011719 115.46141815185547 C81.1465835571289 115.03752136230469 83.19557189941406 115.07540893554688 85.28142547607422 115.77064514160156 C87.2457275390625 116.42536926269531 89.085693359375 117.4176254272461 90.80625915527344 118.62409973144531 C92.5268325805664 119.83058166503906 94.12801361083984 121.25128936767578 95.61475372314453 122.7629165649414 C97.10148620605469 124.2745361328125 98.47378540039062 125.87708282470703 99.73658752441406 127.44723510742188 C101.17985534667969 129.2417755126953 102.54135131835938 131.106201171875 103.820556640625 133.02935791015625 C105.0997543334961 134.95249938964844 106.29666137695312 136.9343719482422 107.41073608398438 138.96377563476562 C108.52481079101562 140.99319458007812 109.55606842041016 143.07015991210938 110.50396728515625 145.18350219726562 C111.45187377929688 147.29684448242188 112.31642150878906 149.44659423828125 113.09709167480469 151.6215362548828 C113.87776947021484 153.79649353027344 114.57456970214844 155.9966583251953 115.18695831298828 158.21087646484375 C115.72142791748047 160.14334106445312 116.18174743652344 162.09654235839844 116.513671875 164.06304931640625 C116.84559631347656 166.02957153320312 117.04911804199219 168.00938415527344 117.06997680664062 169.9950714111328 C117.09083557128906 171.9807586669922 116.92903137207031 173.97230529785156 116.53031158447266 175.9622802734375 C116.07382202148438 178.24057006835938 115.39283752441406 180.43556213378906 114.51541900634766 182.5287628173828 C113.63800048828125 184.62197875976562 112.56414794921875 186.61338806152344 111.32192993164062 188.4845428466797 C110.07970428466797 190.35569763183594 108.66910552978516 192.10658264160156 107.11819458007812 193.71871948242188 C105.5672836303711 195.3308563232422 103.87605285644531 196.80422973632812 102.07257843017578 198.120361328125 C100.26909637451172 199.43649291992188 98.35336303710938 200.59539794921875 96.35343170166016 201.5785675048828 C94.35350036621094 202.56173706054688 92.26937866210938 203.3691864013672 90.12911224365234 203.98240661621094 C87.98885345458984 204.59564208984375 85.79244995117188 205.01466369628906 83.56797790527344 205.2209930419922 C81.343505859375 205.42730712890625 79.09095764160156 205.4209442138672 76.83838653564453 205.18338012695312 C74.5858154296875 204.94583129882812 72.33323669433594 204.47708129882812 70.10868835449219 203.75868225097656 L70.10868835449219 203.75868225097656"></path></svg>