<svg xmlns="http://www.w3.org/2000/svg" viewBox="0.0 0.0 24.0 24.0" height="200px" width="200px"><path fill="none" stroke="black" stroke-width=".3" stroke-opacity="1.0"  filling="0" d="M11.692631721496582 6.478176593780518 L11.692631721496582 6.478176593780518 C11.695998191833496 6.4327874183654785 11.697813987731934 6.387115955352783 11.695440292358398 6.3416643142700195 L11.695440292358398 6.3416643142700195 C11.715240478515625 6.3650641441345215 11.735039710998535 6.388463973999023 11.754839897155762 6.411863803863525 L11.754839897155762 6.411863803863525 C11.73410415649414 6.4339680671691895 11.713367462158203 6.4560723304748535 11.692631721496582 6.478176593780518 L11.692631721496582 6.478176593780518"></path>
<path fill="none" stroke="black" stroke-width=".3" stroke-opacity="1.0"  filling="0" d="M11.37014389038086 6.604320526123047 L11.37014389038086 6.604320526123047 C11.191447257995605 6.6184401512146 11.013893127441406 6.56257438659668 10.837272644042969 6.5319600105285645 L10.837272644042969 6.5319600105285645 C11.015670776367188 6.401553630828857 11.168149948120117 6.147069931030273 11.388504028320312 6.163680076599121 L11.388504028320312 6.163680076599121 C11.351502418518066 6.305954933166504 11.339942932128906 6.460448741912842 11.37014389038086 6.604320526123047 L11.37014389038086 6.604320526123047"></path>
<path fill="none" stroke="black" stroke-width=".3" stroke-opacity="1.0"  filling="0" d="M16.87187957763672 11.002296447753906 L16.87187957763672 11.002296447753906 C16.567663192749023 11.686592102050781 16.003082275390625 12.258011817932129 15.395303726196289 12.695520401000977 L15.395303726196289 12.695520401000977 C15.498984336853027 13.007207870483398 15.60266399383545 13.318896293640137 15.706344604492188 13.630583763122559 L15.400055885314941 14.028240203857422 L15.620376586914062 14.207951545715332 C15.373251914978027 15.373961448669434 15.856161117553711 17.250375747680664 15.471335411071777 18.285816192626953 C15.425704956054688 18.408592224121094 14.169084548950195 18.927459716796875 14.091312408447266 19.00271987915039 C13.076528549194336 19.98472023010254 13.563244819641113 20.421634674072266 13.74959945678711 21.869037628173828 L13.715688705444336 21.955223083496094 C11.94073486328125 22.563880920410156 10.344024658203125 22.6539306640625 8.458680152893066 22.799999237060547 L8.436216354370117 22.7958984375 C6.881708145141602 21.829381942749023 7.005120277404785 20.663150787353516 7.501044273376465 18.997697830200195 C7.8822712898254395 17.71742820739746 8.752678871154785 16.46402931213379 8.91098403930664 15.110400199890137 C9.091632843017578 13.565713882446289 9.045005798339844 11.936919212341309 8.936973571777344 10.306967735290527 C8.828940391540527 8.677016258239746 8.659501075744629 7.045907974243164 8.594524383544922 5.49659538269043 C8.578115463256836 5.105332851409912 8.067716598510742 2.0751473903656006 8.694120407104492 1.6754159927368164 C11.199060440063477 0.07692134380340576 12.146228790283203 2.744626998901367 13.196640014648438 4.45512056350708 L13.191024780273438 4.530072212219238 C12.729127883911133 5.836762428283691 13.245500564575195 6.981901168823242 14.079268455505371 8.036826133728027 C14.913036346435547 9.091751098632812 16.064197540283203 10.056462287902832 16.87187957763672 11.002296447753906 L16.87187957763672 11.002296447753906"></path></svg>