<svg xmlns="http://www.w3.org/2000/svg" viewBox="0.0 0.0 24.0 24.0" height="200px" width="200px"><path fill="none" stroke="black" stroke-width=".3" stroke-opacity="1.0"  filling="0" d="M12.15984058380127 22.799999237060547 L10.530984878540039 22.799999237060547 L10.530984878540039 20.46914291381836 C8.131963729858398 20.54402732849121 5.892020225524902 20.292020797729492 3.544248580932617 19.80148696899414 L3.544248580932617 19.80148696899414 C6.0600080490112305 18.742935180664062 7.249546527862549 17.065509796142578 8.541840553283691 14.703887939453125 L8.541840553283691 14.703887939453125 C7.5911335945129395 14.903295516967773 6.612315654754639 15.069022178649902 5.643120288848877 15.003695487976074 L5.643120288848877 15.003695487976074 C7.74800968170166 13.230887413024902 8.737236022949219 11.438926696777344 9.50930404663086 8.806440353393555 L9.50930404663086 8.806440353393555 C9.123456001281738 8.739768028259277 8.737607955932617 8.673096656799316 8.351759910583496 8.606424331665039 L8.351759910583496 8.606424331665039 C10.452264785766602 6.745455741882324 11.343904495239258 4.943904876708984 11.940168380737305 2.2095842361450195 L12.059831619262695 2.2095842361450195 C12.65617847442627 4.943820953369141 13.547830581665039 6.745439529418945 15.648240089416504 8.606424331665039 L15.648240089416504 8.606424331665039 C15.26246452331543 8.673096656799316 14.876688003540039 8.739768028259277 14.490912437438965 8.806440353393555 L14.490912437438965 8.806440353393555 C15.262801170349121 11.439021110534668 16.25193214416504 13.230897903442383 18.35688018798828 15.003695487976074 L18.35688018798828 15.003695487976074 C17.38775634765625 15.069024085998535 16.40900993347168 14.903292655944824 15.458375930786133 14.703887939453125 L15.458375930786133 14.703887939453125 C16.750669479370117 17.065507888793945 17.94020652770996 18.742935180664062 20.45596694946289 19.80148696899414 L20.45596694946289 19.80148696899414 C18.108266830444336 20.292007446289062 15.868396759033203 20.544031143188477 13.46944808959961 20.46914291381836 L13.46944808959961 22.799999237060547 L12.15984058380127 22.799999237060547"></path></svg>