<svg xmlns="http://www.w3.org/2000/svg" viewBox="0.0 0.0 24.0 24.0" height="200px" width="200px"><path fill="none" stroke="black" stroke-width=".3" stroke-opacity="1.0"  filling="0" d="M10.631667137145996 4.415198802947998 L13.398613929748535 4.415198802947998 C13.220664978027344 4.686187744140625 13.025853157043457 4.948005676269531 12.876461029052734 5.2357258796691895 L11.186455726623535 5.2357258796691895 C11.00152587890625 4.962216854095459 10.816596984863281 4.6887078285217285 10.631667137145996 4.415198802947998 L10.631667137145996 4.415198802947998"></path>
<path fill="none" stroke="black" stroke-width=".3" stroke-opacity="1.0"  filling="0" d="M21.00766372680664 4.908099174499512 L21.57339859008789 5.873438358306885 C20.905149459838867 6.227438449859619 20.188159942626953 6.501224040985107 19.45414161682129 6.683131694793701 L19.26556396484375 6.36135196685791 C19.782934188842773 5.809808254241943 20.37221908569336 5.318078517913818 21.00766372680664 4.908099174499512 L21.00766372680664 4.908099174499512"></path>
<path fill="none" stroke="black" stroke-width=".3" stroke-opacity="1.0"  filling="0" d="M10.28357219696045 5.0298662185668945 L10.849308967590332 5.995204925537109 C10.181060791015625 6.349205017089844 9.464070320129395 6.62299108505249 8.730052947998047 6.804898738861084 L8.541473388671875 6.483118534088135 C9.058843612670898 5.931574821472168 9.648127555847168 5.439845085144043 10.28357219696045 5.0298662185668945 L10.28357219696045 5.0298662185668945"></path>
<path fill="none" stroke="black" stroke-width=".3" stroke-opacity="1.0"  filling="0" d="M13.307010650634766 5.85819673538208 L13.842240333557129 4.87561559677124 C14.490189552307129 5.26553201675415 15.094557762145996 5.738578796386719 15.62899398803711 6.273602485656738 L15.450583457946777 6.601129055023193 C14.711215019226074 6.4423627853393555 13.985998153686523 6.191135883331299 13.307010650634766 5.85819673538208 L13.307010650634766 5.85819673538208"></path>
<path fill="none" stroke="black" stroke-width=".3" stroke-opacity="1.0"  filling="0" d="M2.582921028137207 5.979963779449463 L3.1181516647338867 4.997382640838623 C3.7661004066467285 5.387299060821533 4.370467662811279 5.860345840454102 4.904903888702393 6.395369529724121 L4.726493835449219 6.722896099090576 C3.9871251583099365 6.5641303062438965 3.261908531188965 6.312902927398682 2.582921028137207 5.979963779449463 L2.582921028137207 5.979963779449463"></path>
<path fill="none" stroke="black" stroke-width=".3" stroke-opacity="1.0"  filling="0" d="M19.253873825073242 7.559354782104492 L19.253873825073242 7.559354782104492 C19.0899658203125 7.955064296722412 19.06501007080078 8.443619728088379 18.762147903442383 8.746482849121094 C17.722326278686523 9.78630256652832 15.896167755126953 9.029884338378906 15.896167755126953 7.559354782104492 C15.896167755126953 6.0888261795043945 17.72232437133789 5.332404613494873 18.762147903442383 6.372226715087891 C19.06501007080078 6.6750898361206055 19.0899658203125 7.163645267486572 19.253873825073242 7.559354782104492 L19.253873825073242 7.559354782104492"></path>
<path fill="none" stroke="black" stroke-width=".3" stroke-opacity="1.0"  filling="0" d="M8.529783248901367 7.681121826171875 L8.529783248901367 7.681121826171875 C8.365875244140625 8.076830863952637 8.340921401977539 8.565386772155762 8.038058280944824 8.868249893188477 C6.998237609863281 9.90807056427002 5.172077655792236 9.151650428771973 5.172077655792236 7.681121826171875 C5.172077655792236 6.2105913162231445 6.998237609863281 5.454172611236572 8.038058280944824 6.493993282318115 C8.340921401977539 6.79685640335083 8.365875244140625 7.285412311553955 8.529783248901367 7.681121826171875 L8.529783248901367 7.681121826171875"></path>
<path fill="none" stroke="black" stroke-width=".3" stroke-opacity="1.0"  filling="0" d="M21.815128326416016 9.948808670043945 L21.815128326416016 9.948808670043945 C20.4751033782959 11.547002792358398 19.22981834411621 12.779210090637207 16.932039260864258 12.53481674194336 C15.183290481567383 12.3488187789917 13.787192344665527 11.283408164978027 13.039693832397461 9.876383781433105 C12.292194366455078 8.469359397888184 12.1932954788208 6.720720291137695 13.038945198059082 5.168264865875244 C13.88467788696289 3.615659236907959 15.407179832458496 2.7513880729675293 16.99441146850586 2.617098331451416 C18.581645965576172 2.4828083515167236 20.23360824584961 3.0784997940063477 21.3382625579834 4.44581937789917 C22.79022979736328 6.243035316467285 22.43091583251953 7.956418991088867 21.815128326416016 9.948808670043945 L21.815128326416016 9.948808670043945"></path>
<path fill="none" stroke="black" stroke-width=".3" stroke-opacity="1.0"  filling="0" d="M22.011133193969727 10.055578231811523 L22.011133193969727 10.055578231811523 C20.935911178588867 11.444668769836426 19.971830368041992 12.48765754699707 18.11809730529785 12.734237670898438 C16.03946304321289 13.010734558105469 14.218405723571777 12.013161659240723 13.167834281921387 10.485992431640625 C12.11726188659668 8.958822250366211 11.837177276611328 6.902055740356445 12.840489387512207 5.060162544250488 C13.84378433227539 3.2183008193969727 15.723347663879395 2.339210033416748 17.575910568237305 2.3943159580230713 C19.4284725189209 2.4494218826293945 21.25403594970703 3.4387240409851074 22.14933204650879 5.333647727966309 C22.94806480407715 7.024191856384277 22.594850540161133 8.399197578430176 22.011133193969727 10.055578231811523 L22.011133193969727 10.055578231811523"></path>
<path fill="none" stroke="black" stroke-width=".3" stroke-opacity="1.0"  filling="0" d="M11.09103775024414 10.070575714111328 L11.09103775024414 10.070575714111328 C9.75101375579834 11.668769836425781 8.505729675292969 12.900976181030273 6.207950592041016 12.656583786010742 C4.459202289581299 12.470586776733398 3.063103199005127 11.405176162719727 2.315603733062744 9.998150825500488 C1.5681045055389404 8.59112548828125 1.4692046642303467 6.842486381530762 2.314854621887207 5.290031433105469 C3.160586357116699 3.737426280975342 4.683089256286621 2.873155355453491 6.270322799682617 2.738865613937378 C7.857555866241455 2.6045758724212646 9.509519577026367 3.2002673149108887 10.61417293548584 4.567586421966553 C12.066137313842773 6.364800453186035 11.70682430267334 8.0781888961792 11.09103775024414 10.070575714111328 L11.09103775024414 10.070575714111328"></path>
<path fill="none" stroke="black" stroke-width=".3" stroke-opacity="1.0"  filling="0" d="M11.287043571472168 10.17734432220459 L11.287043571472168 10.17734432220459 C10.211823463439941 11.566433906555176 9.24774169921875 12.60942268371582 7.394008636474609 12.856003761291504 C5.315375804901123 13.132500648498535 3.494317054748535 12.134928703308105 2.443744659423828 10.607758522033691 C1.3931723833084106 9.080589294433594 1.1130863428115845 7.023821830749512 2.116398811340332 5.181929111480713 C3.119694232940674 3.340066909790039 4.9992570877075195 2.4609763622283936 6.85181999206543 2.516082286834717 C8.70438289642334 2.57118821144104 10.529945373535156 3.560490608215332 11.42524242401123 5.455414295196533 C12.22397518157959 7.145957946777344 11.870760917663574 8.520964622497559 11.287043571472168 10.17734432220459 L11.287043571472168 10.17734432220459"></path>
<path fill="none" stroke="black" stroke-width=".3" stroke-opacity="1.0"  filling="0" d="M20.939529418945312 11.270791053771973 L20.939529418945312 16.648502349853516 L20.939529418945312 22.026214599609375 L15.20594596862793 22.026214599609375 L9.472362518310547 22.026214599609375 L3.738779067993164 22.026214599609375 L3.738779067993164 16.93522071838379 L3.738779067993164 11.844226837158203 C4.0067219734191895 12.01124095916748 4.276468753814697 12.177105903625488 4.5593061447143555 12.317427635192871 L4.5593061447143555 16.761558532714844 L4.5593061447143555 21.2056884765625 L9.74587345123291 21.2056884765625 L14.932440757751465 21.2056884765625 L20.119007110595703 21.2056884765625 L20.119007110595703 16.55293083190918 L20.119007110595703 11.900172233581543 C20.392515182495117 11.690378189086914 20.6660213470459 11.480585098266602 20.939529418945312 11.270791053771973 L20.939529418945312 11.270791053771973"></path>
<path fill="none" stroke="black" stroke-width=".3" stroke-opacity="1.0"  filling="0" d="M17.902185440063477 11.990126609802246 L16.78328514099121 11.990126609802246 C16.81574821472168 11.234601020812988 16.942060470581055 10.477581977844238 17.15625 9.752326965332031 L17.529220581054688 9.752326965332031 C17.74347686767578 10.47756290435791 17.869766235351562 11.234599113464355 17.902185440063477 11.990126609802246 L17.902185440063477 11.990126609802246"></path>
<path fill="none" stroke="black" stroke-width=".3" stroke-opacity="1.0"  filling="0" d="M7.17809534072876 12.111892700195312 L6.0591959953308105 12.111892700195312 C6.091659069061279 11.356368064880371 6.2179718017578125 10.599349021911621 6.432162761688232 9.874094009399414 L6.805129051208496 9.874094009399414 C7.01938533782959 10.599328994750977 7.1456756591796875 11.356366157531738 7.17809534072876 12.111892700195312 L7.17809534072876 12.111892700195312"></path>
<path fill="none" stroke="black" stroke-width=".3" stroke-opacity="1.0"  filling="0" d="M7.459121227264404 13.481993675231934 L13.799551963806152 13.481993675231934 L13.799551963806152 16.838693618774414 L8.950987815856934 16.838693618774414 L8.950987815856934 15.346826553344727 L7.459121227264404 14.600892066955566 L7.459121227264404 13.481993675231934"></path>
<path fill="none" stroke="black" stroke-width=".3" stroke-opacity="1.0"  filling="0" d="M4.10242223739624 15.608859062194824 L9.448277473449707 15.60886001586914 L14.794132232666016 15.60886001586914 L20.13998794555664 15.608859062194824 L20.13998794555664 15.83263874053955 L14.794132232666016 15.832639694213867 L9.448277473449707 15.832639694213867 L4.10242223739624 15.83263874053955 L4.10242223739624 15.608859062194824"></path>
<path fill="none" stroke="black" stroke-width=".3" stroke-opacity="1.0"  filling="0" d="M5.250526428222656 16.092758178710938 L5.938051223754883 16.092758178710938 C5.9477858543396 16.102493286132812 5.957520484924316 16.112226486206055 5.967255115509033 16.12196159362793 L5.967255115509033 16.80948829650879 C5.957520484924316 16.819223403930664 5.9477858543396 16.82895851135254 5.938051223754883 16.838693618774414 L5.250526428222656 16.838693618774414 C5.2407917976379395 16.82895851135254 5.2310566902160645 16.819223403930664 5.221322059631348 16.80948829650879 L5.221322059631348 16.12196159362793 C5.2310566902160645 16.112226486206055 5.2407917976379395 16.102493286132812 5.250526428222656 16.092758178710938 L5.250526428222656 16.092758178710938"></path>
<path fill="none" stroke="black" stroke-width=".3" stroke-opacity="1.0"  filling="0" d="M6.369425296783447 16.092758178710938 L7.056950569152832 16.092758178710938 C7.066685199737549 16.102493286132812 7.076419830322266 16.112226486206055 7.086154460906982 16.12196159362793 L7.086154460906982 16.80948829650879 C7.076419830322266 16.819223403930664 7.066685199737549 16.82895851135254 7.056950569152832 16.838693618774414 L6.369425296783447 16.838693618774414 C6.3596906661987305 16.82895851135254 6.3499555587768555 16.819223403930664 6.340220928192139 16.80948829650879 L6.340220928192139 16.12196159362793 C6.3499555587768555 16.112226486206055 6.3596906661987305 16.102493286132812 6.369425296783447 16.092758178710938 L6.369425296783447 16.092758178710938"></path>
<path fill="none" stroke="black" stroke-width=".3" stroke-opacity="1.0"  filling="0" d="M7.488325595855713 16.092758178710938 L8.175849914550781 16.092758178710938 C8.185585021972656 16.102493286132812 8.195319175720215 16.112226486206055 8.20505428314209 16.12196159362793 L8.20505428314209 16.80948829650879 C8.195319175720215 16.819223403930664 8.185585021972656 16.82895851135254 8.175849914550781 16.838693618774414 L7.488325595855713 16.838693618774414 C7.478590965270996 16.82895851135254 7.468855857849121 16.819223403930664 7.459121227264404 16.80948829650879 L7.459121227264404 16.12196159362793 C7.468855857849121 16.112226486206055 7.478590965270996 16.102493286132812 7.488325595855713 16.092758178710938 L7.488325595855713 16.092758178710938"></path>
<path fill="none" stroke="black" stroke-width=".3" stroke-opacity="1.0"  filling="0" d="M14.574689865112305 16.092758178710938 L15.262214660644531 16.092758178710938 C15.271949768066406 16.102493286132812 15.281683921813965 16.112226486206055 15.29141902923584 16.12196159362793 L15.29141902923584 16.80948829650879 C15.281683921813965 16.819223403930664 15.271949768066406 16.82895851135254 15.262214660644531 16.838693618774414 L14.574689865112305 16.838693618774414 C14.56495475769043 16.82895851135254 14.555220603942871 16.819223403930664 14.545485496520996 16.80948829650879 L14.545485496520996 16.12196159362793 C14.555220603942871 16.112226486206055 14.56495475769043 16.102493286132812 14.574689865112305 16.092758178710938 L14.574689865112305 16.092758178710938"></path>
<path fill="none" stroke="black" stroke-width=".3" stroke-opacity="1.0"  filling="0" d="M15.69359016418457 16.092758178710938 L16.381114959716797 16.092758178710938 C16.390850067138672 16.102493286132812 16.400583267211914 16.112226486206055 16.41031837463379 16.12196159362793 L16.41031837463379 16.80948829650879 C16.400583267211914 16.819223403930664 16.390850067138672 16.82895851135254 16.381114959716797 16.838693618774414 L15.69359016418457 16.838693618774414 C15.683856010437012 16.82895851135254 15.674120903015137 16.819223403930664 15.664386749267578 16.80948829650879 L15.664386749267578 16.12196159362793 C15.674120903015137 16.112226486206055 15.683856010437012 16.102493286132812 15.69359016418457 16.092758178710938 L15.69359016418457 16.092758178710938"></path>
<path fill="none" stroke="black" stroke-width=".3" stroke-opacity="1.0"  filling="0" d="M16.812488555908203 16.092758178710938 L17.50001335144043 16.092758178710938 C17.509748458862305 16.102493286132812 17.519485473632812 16.112226486206055 17.529220581054688 16.12196159362793 L17.529220581054688 16.80948829650879 C17.519485473632812 16.819223403930664 17.509748458862305 16.82895851135254 17.50001335144043 16.838693618774414 L16.812488555908203 16.838693618774414 C16.802753448486328 16.82895851135254 16.793020248413086 16.819223403930664 16.78328514099121 16.80948829650879 L16.78328514099121 16.12196159362793 C16.793020248413086 16.112226486206055 16.802753448486328 16.102493286132812 16.812488555908203 16.092758178710938 L16.812488555908203 16.092758178710938"></path>
<path fill="none" stroke="black" stroke-width=".3" stroke-opacity="1.0"  filling="0" d="M17.93138885498047 16.092758178710938 L18.618913650512695 16.092758178710938 C18.62864875793457 16.102493286132812 18.638381958007812 16.112226486206055 18.648117065429688 16.12196159362793 L18.648117065429688 16.80948829650879 C18.638381958007812 16.819223403930664 18.62864875793457 16.82895851135254 18.618913650512695 16.838693618774414 L17.93138885498047 16.838693618774414 C17.921653747558594 16.82895851135254 17.91192054748535 16.819223403930664 17.902185440063477 16.80948829650879 L17.902185440063477 16.12196159362793 C17.91192054748535 16.112226486206055 17.921653747558594 16.102493286132812 17.93138885498047 16.092758178710938 L17.93138885498047 16.092758178710938"></path>
<path fill="none" stroke="black" stroke-width=".3" stroke-opacity="1.0"  filling="0" d="M19.050289154052734 16.092758178710938 L19.737815856933594 16.092758178710938 C19.747549057006836 16.102493286132812 19.75728416442871 16.112226486206055 19.767017364501953 16.12196159362793 L19.767017364501953 16.80948829650879 C19.75728416442871 16.819223403930664 19.747549057006836 16.82895851135254 19.737815856933594 16.838693618774414 L19.050289154052734 16.838693618774414 C19.04055404663086 16.82895851135254 19.030820846557617 16.819223403930664 19.021085739135742 16.80948829650879 L19.021085739135742 16.12196159362793 C19.030820846557617 16.112226486206055 19.04055404663086 16.102493286132812 19.050289154052734 16.092758178710938 L19.050289154052734 16.092758178710938"></path>
<path fill="none" stroke="black" stroke-width=".3" stroke-opacity="1.0"  filling="0" d="M11.601400375366211 17.57159423828125 L13.780922889709473 17.57159423828125 C13.790246963500977 17.581695556640625 13.799571990966797 17.591796875 13.8088960647583 17.601898193359375 L13.8088960647583 19.408456802368164 C13.799571990966797 19.41777992248535 13.790246963500977 19.427104949951172 13.780922889709473 19.43642807006836 L12.857830047607422 19.43642807006836 C12.86381721496582 19.40636444091797 12.829180717468262 19.38199234008789 12.811201095581055 19.35716438293457 L12.209792137145996 18.415424346923828 C12.188812255859375 18.428632736206055 12.16783332824707 18.441843032836914 12.14685344696045 18.45505142211914 L12.73427677154541 19.378143310546875 C12.72678279876709 19.396875381469727 12.714011192321777 19.41663932800293 12.717949867248535 19.43642807006836 L11.601381301879883 19.43642807006836 C11.591279983520508 19.427104949951172 11.58117961883545 19.41777992248535 11.571078300476074 19.408456802368164 L11.571078300476074 17.601898193359375 C11.58117961883545 17.591796875 11.591279983520508 17.581695556640625 11.601381301879883 17.57159423828125 L11.601381301879883 17.57159423828125"></path>
<path fill="none" stroke="black" stroke-width=".3" stroke-opacity="1.0"  filling="0" d="M5.967255115509033 17.584625244140625 L5.967255115509033 17.584625244140625 C5.088926792144775 18.462953567504883 5.088927268981934 16.706296920776367 5.967255115509033 17.584625244140625 L5.967255115509033 17.584625244140625"></path>
<path fill="none" stroke="black" stroke-width=".3" stroke-opacity="1.0"  filling="0" d="M7.086154460906982 17.584625244140625 L7.086154460906982 17.584625244140625 C6.207827091217041 18.462955474853516 6.207825660705566 16.706295013427734 7.086154460906982 17.584625244140625 L7.086154460906982 17.584625244140625"></path>
<path fill="none" stroke="black" stroke-width=".3" stroke-opacity="1.0"  filling="0" d="M15.664386749267578 17.584625244140625 L15.664386749267578 17.584625244140625 C14.346893310546875 18.902122497558594 14.346891403198242 16.267135620117188 15.664386749267578 17.584625244140625 L15.664386749267578 17.584625244140625"></path>
<path fill="none" stroke="black" stroke-width=".3" stroke-opacity="1.0"  filling="0" d="M17.15625 17.584625244140625 L17.15625 17.584625244140625 C15.838760375976562 18.902124404907227 15.838757514953613 16.267133712768555 17.15625 17.584625244140625 L17.15625 17.584625244140625"></path>
<path fill="none" stroke="black" stroke-width=".3" stroke-opacity="1.0"  filling="0" d="M9.191102981567383 17.585580825805664 L11.370626449584961 17.585580825805664 C11.380727767944336 17.594905853271484 11.390829086303711 17.604228973388672 11.400930404663086 17.613554000854492 L11.400930404663086 19.42011070251465 C11.390829086303711 19.430212020874023 11.380727767944336 19.440311431884766 11.370626449584961 19.45041275024414 L10.447534561157227 19.45041275024414 C10.452665328979492 19.419511795043945 10.419275283813477 19.394197463989258 10.400903701782227 19.36882781982422 L9.799495697021484 18.427087783813477 C9.778515815734863 18.440296173095703 9.757536888122559 18.45350456237793 9.736557006835938 18.466712951660156 L10.323980331420898 19.389808654785156 C10.31620979309082 19.40923309326172 10.30422592163086 19.429773330688477 10.307653427124023 19.45041275024414 L9.191083908081055 19.45041275024414 C9.18175983428955 19.440311431884766 9.172436714172363 19.430212020874023 9.16311264038086 19.42011070251465 L9.16311264038086 17.613554000854492 C9.172436714172363 17.604228973388672 9.18175983428955 17.594905853271484 9.191083908081055 17.585580825805664 L9.191083908081055 17.585580825805664"></path>
<path fill="none" stroke="black" stroke-width=".3" stroke-opacity="1.0"  filling="0" d="M12.689976692199707 18.000505447387695 L12.689976692199707 18.000505447387695 C13.055377960205078 18.05084991455078 13.306071281433105 17.993385314941406 13.473206520080566 18.317527770996094 L13.398613929748535 18.317527770996094 C13.202439308166504 17.943866729736328 12.183130264282227 17.95063591003418 11.981341361999512 18.317527770996094 L11.906747817993164 18.317527770996094 C12.078608512878418 17.994022369384766 12.319438934326172 18.051559448242188 12.689976692199707 18.000505447387695 L12.689976692199707 18.000505447387695"></path>
<path fill="none" stroke="black" stroke-width=".3" stroke-opacity="1.0"  filling="0" d="M10.282011985778809 18.01449203491211 L10.282011985778809 18.01449203491211 C10.655622482299805 18.064306259155273 10.894312858581543 18.00473976135254 11.065241813659668 18.33151626586914 L10.99064826965332 18.33151626586914 C10.79296875 17.963102340698242 9.765491485595703 17.956422805786133 9.57337474822998 18.33151626586914 L9.49878215789795 18.33151626586914 C9.66555118560791 18.003026962280273 9.910636901855469 18.06378936767578 10.282011985778809 18.01449203491211 L10.282011985778809 18.01449203491211"></path>
<path fill="none" stroke="black" stroke-width=".3" stroke-opacity="1.0"  filling="0" d="M5.250526428222656 18.33055877685547 L5.565084457397461 18.33055877685547 C5.574819087982178 18.340293884277344 5.5845537185668945 18.350027084350586 5.594288349151611 18.35976219177246 L5.594288349151611 20.539154052734375 C5.5845537185668945 20.54888916015625 5.574819087982178 20.558622360229492 5.565084457397461 20.568357467651367 L5.250526428222656 20.568357467651367 C5.2407917976379395 20.558622360229492 5.2310566902160645 20.54888916015625 5.221322059631348 20.539154052734375 L5.221322059631348 18.35976219177246 C5.2310566902160645 18.350027084350586 5.2407917976379395 18.340293884277344 5.250526428222656 18.33055877685547 L5.250526428222656 18.33055877685547"></path>
<path fill="none" stroke="black" stroke-width=".3" stroke-opacity="1.0"  filling="0" d="M6.369425296783447 18.33055877685547 L6.683984279632568 18.33055877685547 C6.693718910217285 18.340293884277344 6.70345401763916 18.350027084350586 6.713188648223877 18.35976219177246 L6.713188648223877 20.539154052734375 C6.70345401763916 20.54888916015625 6.693718910217285 20.558622360229492 6.683984279632568 20.568357467651367 L6.369425296783447 20.568357467651367 C6.3596906661987305 20.558622360229492 6.3499555587768555 20.54888916015625 6.340220928192139 20.539154052734375 L6.340220928192139 18.35976219177246 C6.3499555587768555 18.350027084350586 6.3596906661987305 18.340293884277344 6.369425296783447 18.33055877685547 L6.369425296783447 18.33055877685547"></path>
<path fill="none" stroke="black" stroke-width=".3" stroke-opacity="1.0"  filling="0" d="M7.488325595855713 18.33055877685547 L7.802883625030518 18.33055877685547 C7.812618255615234 18.340293884277344 7.822353363037109 18.350027084350586 7.832087993621826 18.35976219177246 L7.832087993621826 20.539154052734375 C7.822353363037109 20.54888916015625 7.812618255615234 20.558622360229492 7.802883625030518 20.568357467651367 L7.488325595855713 20.568357467651367 C7.478590965270996 20.558622360229492 7.468855857849121 20.54888916015625 7.459121227264404 20.539154052734375 L7.459121227264404 18.35976219177246 C7.468855857849121 18.350027084350586 7.478590965270996 18.340293884277344 7.488325595855713 18.33055877685547 L7.488325595855713 18.33055877685547"></path>
<path fill="none" stroke="black" stroke-width=".3" stroke-opacity="1.0"  filling="0" d="M18.051372528076172 18.33151626586914 L18.498931884765625 18.33151626586914 C18.548660278320312 18.381244659423828 18.598388671875 18.430973052978516 18.648117065429688 18.480701446533203 L18.648117065429688 20.420127868652344 C18.598388671875 20.46985626220703 18.548660278320312 20.51958465576172 18.498931884765625 20.569313049316406 L18.051372528076172 20.569313049316406 C18.001644134521484 20.51958465576172 17.951913833618164 20.46985626220703 17.902185440063477 20.420127868652344 L17.902185440063477 18.480701446533203 C17.951913833618164 18.430973052978516 18.001644134521484 18.381244659423828 18.051372528076172 18.33151626586914 L18.051372528076172 18.33151626586914"></path>
<path fill="none" stroke="black" stroke-width=".3" stroke-opacity="1.0"  filling="0" d="M19.170270919799805 18.33151626586914 L19.617830276489258 18.33151626586914 C19.667558670043945 18.381244659423828 19.717288970947266 18.430973052978516 19.767017364501953 18.480701446533203 L19.767017364501953 20.420127868652344 C19.717288970947266 20.46985626220703 19.667558670043945 20.51958465576172 19.617830276489258 20.569313049316406 L19.170270919799805 20.569313049316406 C19.120542526245117 20.51958465576172 19.07081413269043 20.46985626220703 19.021085739135742 20.420127868652344 L19.021085739135742 18.480701446533203 C19.07081413269043 18.430973052978516 19.120542526245117 18.381244659423828 19.170270919799805 18.33151626586914 L19.170270919799805 18.33151626586914"></path>
<path fill="none" stroke="black" stroke-width=".3" stroke-opacity="1.0"  filling="0" d="M18.277482986450195 18.499347686767578 L18.277482986450195 18.499347686767578 C18.327211380004883 18.53742218017578 18.37693977355957 18.575496673583984 18.426668167114258 18.613571166992188 L18.426668167114258 19.438758850097656 L18.13062858581543 19.438758850097656 L18.13062858581543 18.613571166992188 C18.179580688476562 18.575496673583984 18.228530883789062 18.53742218017578 18.277482986450195 18.499347686767578 L18.277482986450195 18.499347686767578"></path>
<path fill="none" stroke="black" stroke-width=".3" stroke-opacity="1.0"  filling="0" d="M19.401046752929688 18.508670806884766 L19.401046752929688 18.508670806884766 C19.450775146484375 18.547521591186523 19.500503540039062 18.586374282836914 19.55023193359375 18.625225067138672 L19.55023193359375 19.44808578491211 L19.25185775756836 19.44808578491211 L19.25185775756836 18.625225067138672 C19.30158805847168 18.586374282836914 19.351316452026367 18.547521591186523 19.401046752929688 18.508670806884766 L19.401046752929688 18.508670806884766"></path>
<path fill="none" stroke="black" stroke-width=".3" stroke-opacity="1.0"  filling="0" d="M6.11644172668457 18.703523635864258 L6.936967849731445 18.703523635864258 C6.986696720123291 18.753252029418945 7.036425590515137 18.802982330322266 7.086154460906982 18.852710723876953 L7.086154460906982 18.927305221557617 C7.036425590515137 18.977033615112305 6.986696720123291 19.026763916015625 6.936967849731445 19.076492309570312 L6.11644172668457 19.076492309570312 C6.066712856292725 19.026763916015625 6.016983985900879 18.977033615112305 5.967255115509033 18.927305221557617 L5.967255115509033 18.852710723876953 C6.016983985900879 18.802982330322266 6.066712856292725 18.753252029418945 6.11644172668457 18.703523635864258 L6.11644172668457 18.703523635864258"></path>
<path fill="none" stroke="black" stroke-width=".3" stroke-opacity="1.0"  filling="0" d="M15.664386749267578 19.076492309570312 L15.664386749267578 19.076492309570312 C14.346893310546875 20.39398193359375 14.346893310546875 17.759004592895508 15.664386749267578 19.076492309570312 L15.664386749267578 19.076492309570312"></path>
<path fill="none" stroke="black" stroke-width=".3" stroke-opacity="1.0"  filling="0" d="M17.15625 19.076492309570312 L17.15625 19.076492309570312 C15.838760375976562 20.39398193359375 15.838760375976562 17.759002685546875 17.15625 19.076492309570312 L17.15625 19.076492309570312"></path>
<path fill="none" stroke="black" stroke-width=".3" stroke-opacity="1.0"  filling="0" d="M4.997542381286621 19.449459075927734 L5.818068027496338 19.449459075927734 C5.867796897888184 19.499187469482422 5.9175262451171875 19.548917770385742 5.967255115509033 19.59864616394043 L5.967255115509033 19.673236846923828 C5.9175262451171875 19.72296714782715 5.867796897888184 19.772695541381836 5.818068027496338 19.822425842285156 L4.997542381286621 19.822425842285156 C4.947813510894775 19.772695541381836 4.8980841636657715 19.72296714782715 4.848355293273926 19.673236846923828 L4.848355293273926 19.59864616394043 C4.8980841636657715 19.548917770385742 4.947813510894775 19.499187469482422 4.997542381286621 19.449459075927734 L4.997542381286621 19.449459075927734"></path>
<path fill="none" stroke="black" stroke-width=".3" stroke-opacity="1.0"  filling="0" d="M9.323953628540039 19.748783111572266 L9.323953628540039 19.748783111572266 C10.377942085266113 20.802780151367188 8.269965171813965 20.802780151367188 9.323953628540039 19.748783111572266 L9.323953628540039 19.748783111572266"></path>
<path fill="none" stroke="black" stroke-width=".3" stroke-opacity="1.0"  filling="0" d="M11.561753273010254 19.748783111572266 L11.561753273010254 19.748783111572266 C12.615741729736328 20.802780151367188 10.50776195526123 20.802780151367188 11.561753273010254 19.748783111572266 L11.561753273010254 19.748783111572266"></path>
<path fill="none" stroke="black" stroke-width=".3" stroke-opacity="1.0"  filling="0" d="M13.799551963806152 19.748783111572266 L13.799551963806152 19.748783111572266 C14.853541374206543 20.802780151367188 12.745563507080078 20.802780151367188 13.799551963806152 19.748783111572266 L13.799551963806152 19.748783111572266"></path>
<path fill="none" stroke="black" stroke-width=".3" stroke-opacity="1.0"  filling="0" d="M7.2353410720825195 19.822425842285156 L8.055868148803711 19.822425842285156 C8.105596542358398 19.872154235839844 8.155325889587402 19.92188262939453 8.20505428314209 19.97161102294922 L8.20505428314209 20.04620361328125 C8.155325889587402 20.095932006835938 8.105596542358398 20.145660400390625 8.055868148803711 20.195388793945312 L7.2353410720825195 20.195388793945312 C7.185612201690674 20.145660400390625 7.135883331298828 20.095932006835938 7.086154460906982 20.04620361328125 L7.086154460906982 19.97161102294922 C7.135883331298828 19.92188262939453 7.185612201690674 19.872154235839844 7.2353410720825195 19.822425842285156 L7.2353410720825195 19.822425842285156"></path>
<path fill="none" stroke="black" stroke-width=".3" stroke-opacity="1.0"  filling="0" d="M9.323953628540039 19.89797592163086 L9.323953628540039 19.89797592163086 C10.026620864868164 20.600635528564453 8.62128734588623 20.600635528564453 9.323953628540039 19.89797592163086 L9.323953628540039 19.89797592163086"></path>
<path fill="none" stroke="black" stroke-width=".3" stroke-opacity="1.0"  filling="0" d="M11.561753273010254 19.89797592163086 L11.561753273010254 19.89797592163086 C12.264419555664062 20.600635528564453 10.859086990356445 20.600635528564453 11.561753273010254 19.89797592163086 L11.561753273010254 19.89797592163086"></path>
<path fill="none" stroke="black" stroke-width=".3" stroke-opacity="1.0"  filling="0" d="M13.799551963806152 19.89797592163086 L13.799551963806152 19.89797592163086 C14.502219200134277 20.60063362121582 13.096887588500977 20.600635528564453 13.799551963806152 19.89797592163086 L13.799551963806152 19.89797592163086"></path></svg>