<svg xmlns="http://www.w3.org/2000/svg" viewBox="0.0 0.0 24.0 24.0" height="200px" width="200px"><path fill="none" stroke="black" stroke-width=".3" stroke-opacity="1.0"  filling="0" d="M12.349919319152832 1.8254289627075195 L12.349919319152832 1.8254289627075195 C14.44407844543457 2.280843734741211 16.07195472717285 3.29423189163208 17.01537322998047 4.726842403411865 C17.95879364013672 6.159452438354492 18.217758178710938 8.011284828186035 17.574094772338867 10.143588066101074 L17.574094772338867 10.143588066101074 C19.7581844329834 10.65536880493164 21.236831665039062 11.81859302520752 22.00012969970703 13.365409851074219 C22.763429641723633 14.912225723266602 22.811378479003906 16.842632293701172 22.134071350097656 18.888778686523438 L22.134071350097656 18.888778686523438 C22.60238265991211 17.182458877563477 22.368980407714844 15.300621032714844 21.48607063293457 13.971884727478027 C20.603160858154297 12.643148422241211 19.07074546813965 11.867513656616211 16.94102668762207 12.3735990524292 C15.408823013305664 12.73769760131836 15.218564987182617 13.237486839294434 14.166048049926758 14.310227394104004 L13.303775787353516 13.812347412109375 C13.430224418640137 13.106772422790527 12.683314323425293 12.501439094543457 12.218159675598145 11.95604419708252 L12.218159675598145 11.012771606445312 C13.68630599975586 10.647892951965332 14.21898365020752 10.739350318908691 15.313682556152344 9.591653823852539 C16.81582260131836 8.016792297363281 16.92432403564453 6.308875560760498 16.23257064819336 4.877854347229004 C15.540816307067871 3.446833610534668 14.048805236816406 2.292708158493042 12.349919319152832 1.8254289627075195 L12.349919319152832 1.8254289627075195"></path>
<path fill="none" stroke="black" stroke-width=".3" stroke-opacity="1.0"  filling="0" d="M11.577503204345703 1.8288841247558594 L11.577503204345703 1.8288841247558594 C9.889182090759277 2.3042218685150146 8.411215782165527 3.455789089202881 7.726184368133545 4.881167411804199 C7.041153430938721 6.306546211242676 7.149057865142822 8.005735397338867 8.632478713989258 9.576318740844727 C9.713595390319824 10.720958709716797 10.241593360900879 10.635844230651855 11.69651985168457 11.010828971862793 L11.69651985168457 11.973540306091309 C11.262022018432617 12.515885353088379 10.572982788085938 13.113290786743164 10.688664436340332 13.798523902893066 L9.856416702270508 14.278691291809082 C8.80650806427002 13.189750671386719 8.619389533996582 12.682723045349121 7.078278064727783 12.308528900146484 C4.9619927406311035 11.794677734375 3.4284274578094482 12.555607795715332 2.535635471343994 13.871272087097168 C1.64284348487854 15.186936378479004 1.3908246755599976 17.057334899902344 1.837632179260254 18.762420654296875 L1.837632179260254 18.762420654296875 C1.187791109085083 16.736656188964844 1.2420912981033325 14.828821182250977 1.9969466924667358 13.296485900878906 C2.7518019676208496 11.764148712158203 4.207212448120117 10.607311248779297 6.359592437744141 10.083539962768555 L6.359592437744141 10.083539962768555 C5.740877151489258 7.965798854827881 6.010256767272949 6.132507801055908 6.951864242553711 4.713465690612793 C7.893471717834473 3.2944235801696777 9.507307052612305 2.2896299362182617 11.577503204345703 1.8288841247558594 L11.577503204345703 1.8288841247558594"></path>
<path fill="none" stroke="black" stroke-width=".3" stroke-opacity="1.0"  filling="0" d="M11.846640586853027 7.6148762702941895 L11.846640586853027 7.6148762702941895 C13.484060287475586 7.6148762702941895 13.986127853393555 8.011697769165039 15.369599342346191 8.73051643371582 L15.369599342346191 8.73051643371582 C15.067427635192871 9.133597373962402 14.7521333694458 9.471208572387695 14.34705638885498 9.772284507751465 L14.34705638885498 9.772284507751465 C12.576451301574707 8.940634727478027 11.382515907287598 8.941378593444824 9.611688613891602 9.772284507751465 L9.611688613891602 9.772284507751465 C9.20663833618164 9.47122859954834 8.89138126373291 9.133845329284668 8.58957576751709 8.73051643371582 L8.58957576751709 8.73051643371582 C9.604762077331543 8.195343017578125 10.717466354370117 7.81976318359375 11.846640586853027 7.6148762702941895 L11.846640586853027 7.6148762702941895"></path>
<path fill="none" stroke="black" stroke-width=".3" stroke-opacity="1.0"  filling="0" d="M6.303648471832275 12.689579963684082 L6.303648471832275 12.689579963684082 C6.803555965423584 12.750685691833496 7.253328800201416 12.854297637939453 7.716720104217529 13.053972244262695 L7.716720104217529 13.053972244262695 C7.882904052734375 15.002861976623535 8.480047225952148 16.036901473999023 10.084728240966797 17.155378341674805 L10.084728240966797 17.155378341674805 C10.026629447937012 17.656766891479492 9.890172004699707 18.098787307739258 9.692256927490234 18.56197166442871 L9.692256927490234 18.56197166442871 C7.2748308181762695 17.01789093017578 6.430578708648682 15.55524730682373 6.303648471832275 12.689579963684082 L6.303648471832275 12.689579963684082"></path>
<path fill="none" stroke="black" stroke-width=".3" stroke-opacity="1.0"  filling="0" d="M17.69548797607422 12.758268356323242 L17.69548797607422 12.758268356323242 C17.567251205444336 15.62431526184082 16.72376251220703 17.087020874023438 14.305583953857422 18.630874633789062 L14.305583953857422 18.630874633789062 C14.107003211975098 18.16752052307129 13.973258972167969 17.726179122924805 13.913976669311523 17.224716186523438 L13.913976669311523 17.224716186523438 C15.519028663635254 16.107242584228516 16.116849899291992 15.073451042175293 16.282630920410156 13.124604225158691 L16.282630920410156 13.124604225158691 C16.745006561279297 12.921537399291992 17.19538116455078 12.81943130493164 17.69548797607422 12.758268356323242 L17.69548797607422 12.758268356323242"></path>
<path fill="none" stroke="black" stroke-width=".3" stroke-opacity="1.0"  filling="0" d="M10.952616691589355 14.24370002746582 L10.952616691589355 14.24370002746582 C11.584175109863281 14.531281471252441 12.40095043182373 14.541293144226074 13.034424781799316 14.257955551147461 L13.905335426330566 14.76102066040039 C13.487200736999512 16.214906692504883 13.141618728637695 16.630449295043945 13.588248252868652 18.152328491210938 C14.206050872802734 20.257476806640625 15.642948150634766 21.20281219482422 17.236888885498047 21.30712890625 C18.830827713012695 21.41144561767578 20.581809997558594 20.674745559692383 21.827783584594727 19.41581916809082 L21.827783584594727 19.41581916809082 C20.39093780517578 21.025676727294922 18.6940975189209 21.94630241394043 16.972850799560547 22.055152893066406 C15.251604080200195 22.164005279541016 13.505952835083008 21.461082458496094 11.971487998962402 19.823843002319336 L11.971487998962402 19.823843002319336 C10.434334754943848 21.43025016784668 8.697052001953125 22.107633590698242 6.98838472366333 21.986186981201172 C5.279716491699219 21.8647403717041 3.599663257598877 20.94446563720703 2.1769676208496094 19.35555648803711 L2.1769676208496094 19.35555648803711 C3.422722816467285 20.607694625854492 5.167389869689941 21.340160369873047 6.7568159103393555 21.236459732055664 C8.34624195098877 21.132761001586914 9.780426979064941 20.19289779663086 10.405219078063965 18.100379943847656 C10.855655670166016 16.5918025970459 10.517803192138672 16.176685333251953 10.114967346191406 14.729268074035645 L10.952616691589355 14.24370002746582"></path></svg>