<svg xmlns="http://www.w3.org/2000/svg" viewBox="0.0 0.0 24.0 24.0" height="200px" width="200px"><path fill="none" stroke="black" stroke-width=".3" stroke-opacity="1.0"  filling="0" d="M16.341598510742188 11.959176063537598 L16.341598510742188 11.959176063537598 C16.18242645263672 9.61202621459961 16.529041290283203 7.645153045654297 17.26283836364746 5.415672302246094 L17.26283836364746 5.415672302246094 C15.037622451782227 5.635059356689453 13.153731346130371 6.329880714416504 11.532840728759766 7.440382480621338 C9.911949157714844 8.550884246826172 8.554058074951172 10.077066421508789 7.380840301513672 11.959176063537598 L7.380840301513672 11.959176063537598"></path>
<path fill="none" stroke="black" stroke-width=".3" stroke-opacity="1.0"  filling="0" d="M22.135150909423828 11.959176063537598 L22.135150909423828 11.959176063537598 C22.10015869140625 12.440855979919434 22.065166473388672 12.92253589630127 22.030174255371094 13.404215812683105 L15.414022445678711 13.404215812683105 L8.797871589660645 13.404215812683105 L2.1817197799682617 13.404215812683105 C2.1467278003692627 12.92253589630127 2.1117360591888428 12.440855979919434 2.0767440795898438 11.959176063537598 L8.762879371643066 11.959176063537598 L15.449015617370605 11.959176063537598 L22.135150909423828 11.959176063537598"></path>
<path fill="none" stroke="black" stroke-width=".3" stroke-opacity="1.0"  filling="0" d="M8.468183517456055 21.305278778076172 L8.468183517456055 21.305278778076172 C6.815309047698975 20.463836669921875 5.556001663208008 19.533536911010742 4.568203926086426 18.372114181518555 C3.5804061889648438 17.210693359375 2.8641176223754883 15.818147659301758 2.297281265258789 14.052215576171875 L8.836320877075195 14.052215576171875 L15.375359535217285 14.052215576171875 L21.914398193359375 14.052215576171875 C21.34372329711914 15.82693099975586 20.622615814208984 17.224803924560547 19.627994537353516 18.38877296447754 C18.633373260498047 19.55274200439453 17.3652400970459 20.482807159423828 15.700512886047363 21.321910858154297 L16.216537475585938 22.094112396240234 L12.105732917785645 22.094112396240234 L7.994928359985352 22.094112396240234 L8.468183517456055 21.305278778076172"></path></svg>