<svg xmlns="http://www.w3.org/2000/svg" viewBox="0.0 0.0 24.0 24.0" height="200px" width="200px"><path fill="none" stroke="black" stroke-width=".3" stroke-opacity="1.0"  filling="0" d="M17.49417495727539 11.904096603393555 L17.49417495727539 11.904096603393555 C18.083452224731445 13.328229904174805 18.490917205810547 13.71126651763916 18.178895950317383 15.301100730895996 C17.77770233154297 17.345285415649414 16.440814971923828 18.453216552734375 14.880229949951172 18.75142478942871 C13.319645881652832 19.049633026123047 11.535364151000977 18.538118362426758 10.239384651184082 17.343406677246094 L6.625704288482666 11.965871810913086 C6.652992248535156 11.53991985321045 6.392568588256836 10.976035118103027 6.7075676918029785 10.688015937805176 C6.979127883911133 10.439715385437012 7.429728031158447 10.8297119140625 7.790808200836182 10.90056037902832 L9.837408065795898 13.945943832397461 L10.096391677856445 13.771632194519043 L6.482712745666504 8.394096374511719 C6.553560733795166 8.032872200012207 6.389743328094482 7.515763282775879 6.695256233215332 7.310424327850342 C7.0006632804870605 7.105156421661377 7.417416095733643 7.452264308929443 7.778496265411377 7.523184299468994 L11.13103199005127 12.51213550567627 L11.390231132507324 12.337823867797852 L7.515192031860352 6.571272373199463 C7.586040019989014 6.2101922035217285 7.4223175048828125 5.6932573318481445 7.727736473083496 5.488032341003418 C8.03315544128418 5.282807350158691 8.449895858764648 5.629728317260742 8.810976028442383 5.700576305389404 L12.685800552368164 11.466912269592285 L12.945215225219727 11.292816162109375 L9.592463493347168 6.304080009460449 C9.663311958312988 5.943000316619873 9.49959659576416 5.426076889038086 9.805007934570312 5.2208404541015625 C10.110466957092285 5.015572547912598 10.527312278747559 5.362392425537109 10.888463973999023 5.433168411254883 L13.239408493041992 8.931936264038086 L15.590353012084961 12.430703163146973 L15.8495512008667 12.256608009338379 L14.151575088500977 9.729840278625488 C14.222495079040527 9.368688583374023 14.058854103088379 8.851667404174805 14.364336013793945 8.646384239196777 C14.669747352600098 8.441147804260254 15.086495399475098 8.788080215454102 15.447575569152832 8.858928680419922 L17.49417495727539 11.904096603393555"></path>
<path fill="none" stroke="black" stroke-width=".3" stroke-opacity="1.0"  filling="0" d="M13.944000244140625 12.515376091003418 L13.944000244140625 12.515376091003418 C14.146103858947754 12.919655799865723 14.550311088562012 13.276232719421387 14.550311088562012 13.728215217590332 C14.550311088562012 14.180133819580078 14.146103858947754 14.53663158416748 13.944000244140625 14.940839767456055 L13.944000244140625 14.940839767456055 C13.741896629333496 14.53663158416748 13.337688446044922 14.180133819580078 13.337688446044922 13.728215217590332 C13.337688446044922 13.276232719421387 13.741896629333496 12.919655799865723 13.944000244140625 12.515376091003418 L13.944000244140625 12.515376091003418"></path>
<path fill="none" stroke="black" stroke-width=".3" stroke-opacity="1.0"  filling="0" d="M11.257176399230957 15.361175537109375 L11.257176399230957 15.361175537109375 C11.700551986694336 15.449087142944336 12.22998332977295 15.348085403442383 12.58730411529541 15.624911308288574 C12.944572448730469 15.90169620513916 12.978983879089355 16.43951988220215 13.174823760986328 16.846824645996094 L13.174823760986328 16.846824645996094 C12.731447219848633 16.759056091308594 12.201993942260742 16.860326766967773 11.844695091247559 16.583518981933594 C11.487324714660645 16.306655883789062 11.45301628112793 15.768623352050781 11.257176399230957 15.361175537109375 L11.257176399230957 15.361175537109375"></path>
<path fill="none" stroke="black" stroke-width=".3" stroke-opacity="1.0"  filling="0" d="M14.32912826538086 16.342029571533203 L14.32912826538086 16.342029571533203 C14.722392082214355 16.119190216064453 15.05751895904541 15.69697380065918 15.508920669555664 15.67351245880127 C15.960423469543457 15.650046348571777 16.33763885498047 16.03523826599121 16.751998901367188 16.216102600097656 L16.751998901367188 16.216102600097656 C16.35866355895996 16.4390869140625 16.023527145385742 16.861587524414062 15.571992874145508 16.885055541992188 C15.120497703552246 16.90852165222168 14.743416786193848 16.523038864135742 14.32912826538086 16.342029571533203 L14.32912826538086 16.342029571533203"></path></svg>