<svg xmlns="http://www.w3.org/2000/svg" viewBox="0.0 0.0 24.0 24.0" height="200px" width="200px"><path fill="none" stroke="black" stroke-width=".3" stroke-opacity="1.0"  filling="0" d="M10.868268013000488 11.37034797668457 L10.868268013000488 11.37034797668457 C10.831995010375977 11.296491622924805 10.795722961425781 11.222635269165039 10.75944995880127 11.148778915405273 L11.169553756713867 9.947296142578125 C11.274006843566895 9.89599609375 11.448650360107422 9.955641746520996 11.499940872192383 10.060100555419922 L11.08989143371582 11.261528968811035 C11.016016960144043 11.297801971435547 10.942142486572266 11.334074974060059 10.868268013000488 11.37034797668457 L10.868268013000488 11.37034797668457"></path>
<path fill="none" stroke="black" stroke-width=".3" stroke-opacity="1.0"  filling="0" d="M7.232532978057861 12.041006088256836 L7.232532978057861 12.041006088256836 C7.670651435852051 12.222481727600098 8.211566925048828 12.250112533569336 8.54688835144043 12.585433959960938 C9.698151588439941 13.736696243286133 8.860623359680176 15.758478164672852 7.232532978057861 15.758478164672852 C5.604419231414795 15.758478164672852 4.767048358917236 13.736641883850098 5.918244361877441 12.585412979125977 C6.253544807434082 12.250102996826172 6.794436931610107 12.222475051879883 7.232532978057861 12.041006088256836 L7.232532978057861 12.041006088256836"></path>
<path fill="none" stroke="black" stroke-width=".3" stroke-opacity="1.0"  filling="0" d="M18.967592239379883 12.224954605102539 L18.967592239379883 12.224954605102539 C18.03089141845703 13.096790313720703 17.688152313232422 13.39421558380127 17.813011169433594 14.68388557434082 L17.813011169433594 14.68388557434082 C16.39264488220215 14.782739639282227 14.973538398742676 14.812204360961914 13.55388355255127 14.810160636901855 C12.134228706359863 14.808116912841797 10.714024543762207 14.774565696716309 9.291461944580078 14.747386932373047 L9.291461944580078 14.747386932373047 C9.66921615600586 12.95683479309082 8.541454315185547 11.969122886657715 7.353763580322266 11.88095760345459 C6.166072368621826 11.792792320251465 4.918451309204102 12.604174613952637 5.056485652923584 14.411811828613281 L5.056485652923584 14.411811828613281 C3.6304545402526855 14.239503860473633 2.2946581840515137 13.18751049041748 3.2133378982543945 11.556480407714844 C3.751444101333618 10.601122856140137 6.814925193786621 10.54273509979248 7.620086669921875 10.436952590942383 L7.620086669921875 10.436952590942383 C8.333003997802734 11.613905906677246 11.683856964111328 13.060190200805664 11.731120109558105 10.45955753326416 L11.731120109558105 10.45955753326416 C13.569528579711914 10.58981704711914 16.54158592224121 10.300354957580566 18.006624221801758 11.63406753540039 L18.006624221801758 11.63406753540039 C18.282320022583008 11.498403549194336 18.529586791992188 11.183242797851562 18.833711624145508 11.227076530456543 C19.029600143432617 11.25531005859375 18.972288131713867 11.59784984588623 19.041576385498047 11.783236503601074 L19.041576385498047 11.783236503601074 C19.81344985961914 11.884535789489746 20.71806526184082 12.036333084106445 21.21642303466797 12.634403228759766 C21.415613174438477 12.87344741821289 20.708534240722656 12.233149528503418 20.40238380432129 12.1775541305542 C19.93155860900879 12.09205436706543 19.44585609436035 12.20915412902832 18.967592239379883 12.224954605102539 L18.967592239379883 12.224954605102539"></path>
<path fill="none" stroke="black" stroke-width=".3" stroke-opacity="1.0"  filling="0" d="M19.767107009887695 12.34998893737793 L19.767107009887695 12.34998893737793 C20.158567428588867 12.512123107910156 20.64187240600586 12.53679370880127 20.94148826599121 12.836390495300293 C21.9702205657959 13.865056037902832 21.221738815307617 15.671335220336914 19.767107009887695 15.671335220336914 C18.312480926513672 15.671335220336914 17.56439208984375 13.86494255065918 18.592876434326172 12.836390495300293 C18.892440795898438 12.536806106567383 19.375696182250977 12.512123107910156 19.767107009887695 12.34998893737793 L19.767107009887695 12.34998893737793"></path>
<path fill="none" stroke="black" stroke-width=".3" stroke-opacity="1.0"  filling="0" d="M19.7672176361084 14.966935157775879 L19.7672176361084 14.966935157775879 C19.448423385620117 14.648178100585938 18.810834884643555 14.461480140686035 18.810834884643555 14.010663032531738 C18.810834884643555 12.735486030578613 20.72359848022461 12.735486030578613 20.72359848022461 14.010663032531738 C20.72359848022461 14.461479187011719 20.08601188659668 14.648178100585938 19.7672176361084 14.966935157775879 L19.7672176361084 14.966935157775879"></path>
<path fill="none" stroke="black" stroke-width=".3" stroke-opacity="1.0"  filling="0" d="M7.232532978057861 14.994071006774902 L7.232532978057861 14.994071006774902 C6.8677473068237305 14.629303932189941 6.1381754875183105 14.415640830993652 6.1381754875183105 13.899768829345703 C6.1381754875183105 12.440627098083496 8.326889038085938 12.440627098083496 8.326889038085938 13.899768829345703 C8.326889038085938 14.415640830993652 7.597318172454834 14.629303932189941 7.232532978057861 14.994071006774902 L7.232532978057861 14.994071006774902"></path></svg>