<svg xmlns="http://www.w3.org/2000/svg" viewBox="0.0 0.0 24.0 24.0" height="200px" width="200px"><path fill="none" stroke="black" stroke-width=".3" stroke-opacity="1.0"  filling="0" d="M16.03509521484375 6.212712287902832 L16.281551361083984 5.5813446044921875 L16.835590362548828 5.79583215713501 L16.52649688720703 6.212712287902832 L16.03509521484375 6.212712287902832"></path>
<path fill="none" stroke="black" stroke-width=".3" stroke-opacity="1.0"  filling="0" d="M4.709568977355957 6.938688278198242 L4.709568977355957 6.938688278198242"></path>
<path fill="none" stroke="black" stroke-width=".3" stroke-opacity="1.0"  filling="0" d="M15.138694763183594 7.377600193023682 L15.938976287841797 6.916656017303467 L16.23770523071289 6.361320495605469 L16.05691146850586 7.473936080932617 L14.91578483581543 7.857120037078857 L15.22488021850586 7.526423931121826 L14.626991271972656 7.580207824707031 L15.138694763183594 7.377600193023682"></path>
<path fill="none" stroke="black" stroke-width=".3" stroke-opacity="1.0"  filling="0" d="M14.595024108886719 8.145912170410156 L14.56283950805664 7.676328182220459 L14.787479400634766 7.857120037078857 L14.595024108886719 8.145912170410156"></path>
<path fill="none" stroke="black" stroke-width=".3" stroke-opacity="1.0"  filling="0" d="M12.948888778686523 10.592329025268555 L13.291463851928711 10.231176376342773 L13.168344497680664 10.771391868591309 L13.585440635681152 11.16645622253418 L12.948888778686523 10.592329025268555"></path>
<path fill="none" stroke="black" stroke-width=".3" stroke-opacity="1.0"  filling="0" d="M9.166728019714355 10.64632797241211 L8.397119522094727 9.396552085876465 L6.808656215667725 10.716959953308105 L6.779928207397461 11.487000465393066 L6.3911285400390625 11.852904319763184 L5.702088356018066 9.619248390197754 L5.334239959716797 9.850799560546875 L5.097720146179199 9.602617263793945 L5.327328681945801 9.492888450622559 L4.7110795974731445 9.079895973205566 L3.9615602493286133 9.146207809448242 L4.216224670410156 8.801471710205078 L3.860039710998535 8.364072799682617 L3.8974084854125977 7.190328121185303 L3.2794322967529297 6.9099602699279785 L2.786520004272461 7.070231914520264 L2.6191205978393555 6.3915605545043945 L2.9195756912231445 6.411432266235352 L2.215632438659668 5.785680294036865 L2.821727752685547 5.5845842361450195 L2.6223602294921875 5.310696125030518 L1.9469289779663086 5.319552421569824 L1.7767200469970703 4.598544597625732 L2.5281848907470703 4.3250885009765625 L3.9481687545776367 4.506744384765625 L3.9060487747192383 3.8617677688598633 L5.365992546081543 3.576432228088379 L5.796696186065674 3.996767997741699 L6.262608528137207 3.7790403366088867 L6.7911601066589355 4.496592998504639 L7.968144416809082 4.851480007171631 L8.68569564819336 4.502208709716797 L9.45228099822998 4.731816291809082 L9.78664779663086 4.252511978149414 L11.346599578857422 4.829880237579346 L12.601127624511719 4.773287773132324 L12.994463920593262 4.079712390899658 L13.518047332763672 3.9613447189331055 L14.65399169921875 5.153664588928223 L15.160728454589844 4.9983601570129395 L14.109024047851562 6.628727912902832 L14.276423454284668 7.517136096954346 L13.933416366577148 7.568976402282715 L13.75175952911377 6.65983247756958 L13.122335433959961 6.801959991455078 L13.228608131408691 6.411648273468018 L12.595727920532227 6.774744033813477 L12.838943481445312 7.102200031280518 L13.340280532836914 7.0652642250061035 L12.821880340576172 7.48581600189209 L13.247183799743652 8.445719718933105 L12.40888786315918 9.503472328186035 L11.95809555053711 9.472799301147461 L11.458488464355469 9.928560256958008 L11.169694900512695 9.675408363342285 L10.772904396057129 10.016688346862793 L11.2930326461792 11.277695655822754 L10.617815971374512 11.772768020629883 L9.869377136230469 11.039664268493652 L9.771528244018555 11.681183815002441 L10.500960350036621 12.929231643676758 L9.603047370910645 11.808191299438477 L9.508440017700195 10.540056228637695 L9.166728019714355 10.64632797241211"></path>
<path fill="none" stroke="black" stroke-width=".3" stroke-opacity="1.0"  filling="0" d="M13.789559364318848 11.217000007629395 L13.789559364318848 11.217000007629395"></path>
<path fill="none" stroke="black" stroke-width=".3" stroke-opacity="1.0"  filling="0" d="M13.242647171020508 11.404272079467773 L13.242647171020508 11.404272079467773"></path>
<path fill="none" stroke="black" stroke-width=".3" stroke-opacity="1.0"  filling="0" d="M13.448712348937988 11.539487838745117 L13.448712348937988 11.539487838745117"></path>
<path fill="none" stroke="black" stroke-width=".3" stroke-opacity="1.0"  filling="0" d="M13.546560287475586 11.841888427734375 L13.801440238952637 11.591976165771484 L13.914623260498047 12.125280380249023 L13.269647598266602 12.020735740661621 L13.546560287475586 11.841888427734375"></path>
<path fill="none" stroke="black" stroke-width=".3" stroke-opacity="1.0"  filling="0" d="M7.074984073638916 11.936280250549316 L6.808224678039551 12.159192085266113 L6.813191890716553 11.630640029907227 L7.074984073638916 11.936280250549316"></path>
<path fill="none" stroke="black" stroke-width=".3" stroke-opacity="1.0"  filling="0" d="M12.09460735321045 12.871560096740723 L12.09460735321045 12.871560096740723"></path>
<path fill="none" stroke="black" stroke-width=".3" stroke-opacity="1.0"  filling="0" d="M11.383535385131836 12.881711959838867 L11.383535385131836 12.881711959838867"></path>
<path fill="none" stroke="black" stroke-width=".3" stroke-opacity="1.0"  filling="0" d="M11.670816421508789 12.96940803527832 L11.670816421508789 12.96940803527832"></path>
<path fill="none" stroke="black" stroke-width=".3" stroke-opacity="1.0"  filling="0" d="M12.562248229980469 13.037015914916992 L12.119664192199707 13.735559463500977 L11.447904586791992 13.543319702148438 L11.213111877441406 12.987983703613281 L12.48967170715332 12.027647972106934 L12.823823928833008 12.28231143951416 L12.511703491210938 12.533951759338379 L12.787104606628418 12.929231643676758 L12.562248229980469 13.037015914916992"></path>
<path fill="none" stroke="black" stroke-width=".3" stroke-opacity="1.0"  filling="0" d="M12.94543170928955 13.131623268127441 L13.460376739501953 13.256471633911133 L13.138104438781738 13.372896194458008 L13.354104042053223 13.786751747131348 L13.006128311157227 13.562328338623047 L13.00115966796875 13.969056129455566 L12.76140022277832 13.619783401489258 L12.916703224182129 13.038959503173828 L13.745712280273438 12.852984428405762 L12.94543170928955 13.131623268127441"></path>
<path fill="none" stroke="black" stroke-width=".3" stroke-opacity="1.0"  filling="0" d="M16.823495864868164 13.778328895568848 L17.652719497680664 14.740608215332031 L16.761072158813477 14.281391143798828 L16.173551559448242 14.515968322753906 L14.642111778259277 13.307231903076172 L14.920751571655273 13.158623695373535 L15.275424003601074 13.624536514282227 L15.678696632385254 13.330775260925293 L16.823495864868164 13.778328895568848"></path>
<path fill="none" stroke="black" stroke-width=".3" stroke-opacity="1.0"  filling="0" d="M10.765775680541992 13.998000144958496 L9.119640350341797 12.250344276428223 L10.444799423217773 13.101383209228516 L10.765775680541992 13.998000144958496"></path>
<path fill="none" stroke="black" stroke-width=".3" stroke-opacity="1.0"  filling="0" d="M17.186809539794922 14.00447940826416 L17.754024505615234 13.808568954467773 L17.186809539794922 14.00447940826416"></path>
<path fill="none" stroke="black" stroke-width=".3" stroke-opacity="1.0"  filling="0" d="M11.906904220581055 14.37103271484375 L10.715230941772461 14.146391868591309 L11.54575252532959 14.0824556350708 L12.278424263000488 14.40127182006836 L11.906904220581055 14.37103271484375"></path>
<path fill="none" stroke="black" stroke-width=".3" stroke-opacity="1.0"  filling="0" d="M13.592135429382324 14.676671028137207 L14.044439315795898 14.402999877929688 L13.592135429382324 14.676671028137207"></path>
<path fill="none" stroke="black" stroke-width=".3" stroke-opacity="1.0"  filling="0" d="M18.051239013671875 17.45572853088379 L17.49720001220703 19.209863662719727 L16.558462142944336 19.402536392211914 L16.079160690307617 19.230167388916016 L15.726215362548828 18.600526809692383 L15.545639991760254 18.760801315307617 L15.69403076171875 18.311519622802734 L15.363120079040527 18.716951370239258 L14.701512336730957 18.119064331054688 L12.428544044494629 18.738765716552734 L11.885087013244629 17.178815841674805 L12.02332878112793 16.527143478393555 L13.080431938171387 16.18413543701172 L13.890863418579102 15.286006927490234 L14.424384117126465 15.44649600982666 L14.787479400634766 14.82679271697998 L15.501791000366211 14.95531177520752 L15.320999145507812 15.404159545898438 L16.079160690307617 15.86337661743164 L16.398191452026367 14.762639999389648 L17.02783203125 16.088016510009766 L18.051239013671875 17.018112182617188 L18.051239013671875 17.45572853088379"></path>
<path fill="none" stroke="black" stroke-width=".3" stroke-opacity="1.0"  filling="0" d="M21.934268951416016 19.211591720581055 L21.439632415771484 19.893718719482422 L21.075023651123047 18.646102905273438 L21.934268951416016 19.211591720581055"></path>
<path fill="none" stroke="black" stroke-width=".3" stroke-opacity="1.0"  filling="0" d="M21.281089782714844 19.821142196655273 L20.607383728027344 20.824031829833984 L20.134559631347656 20.75988006591797 L21.05644989013672 19.70623207092285 L21.281089782714844 19.821142196655273"></path>
<path fill="none" stroke="black" stroke-width=".3" stroke-opacity="1.0"  filling="0" d="M17.303232192993164 19.97817611694336 L16.958711624145508 20.25811195373535 L16.756319046020508 19.743383407592773 L17.303232192993164 19.97817611694336"></path></svg>