<svg xmlns="http://www.w3.org/2000/svg" viewBox="0.0 0.0 24.0 24.0" height="200px" width="200px"><path fill="none" stroke="black" stroke-width=".3" stroke-opacity="1.0"  filling="0" d="M9.618191719055176 6.018191337585449 L9.618191719055176 6.018191337585449 C10.151527404785156 5.9612274169921875 10.684864044189453 5.904263973236084 11.218199729919434 5.847300052642822 L15.845455169677734 5.847300052642822 L15.854549407958984 9.969122886657715 L15.86364459991455 14.09094524383545 C15.86364459991455 14.218217849731445 15.86364459991455 14.345490455627441 15.86364459991455 14.472763061523438 L15.72728157043457 14.654563903808594 C15.804390907287598 14.6848726272583 15.881499290466309 14.715182304382324 15.958608627319336 14.745491027832031 L15.958608627319336 14.809090614318848 C15.86026382446289 14.916834831237793 15.89148998260498 14.923418045043945 15.906845092773438 15.06139087677002 L15.906845092773438 15.06139087677002 C15.500128746032715 15.092150688171387 15.142848014831543 15.456731796264648 14.838655471801758 15.222736358642578 L14.838655471801758 15.222736358642578 C14.271821022033691 15.250547409057617 14.434033393859863 15.372706413269043 14.447754859924316 15.831818580627441 L14.325027465820312 15.944318771362305 C14.110066413879395 16.26675796508789 13.509756088256836 16.563234329223633 13.401190757751465 16.830656051635742 L13.401190757751465 16.830656051635742 C13.226299285888672 17.08785057067871 13.332627296447754 17.28445053100586 13.10460090637207 17.51247215270996 L13.10460090637207 17.51247215270996 C12.415128707885742 17.65037727355957 12.443706512451172 16.97321128845215 12.156872749328613 17.11699104309082 L12.156872749328613 17.11699104309082 C12.022775650024414 17.251089096069336 11.866546630859375 17.171289443969727 11.812555313110352 17.526081085205078 L11.812555313110352 17.526081085205078 C11.81972599029541 17.587034225463867 11.824030876159668 17.6506290435791 11.8091459274292 17.71017074584961 L11.8091459274292 17.71017074584961 C11.73379898071289 17.725942611694336 11.649887084960938 17.7628116607666 11.611418724060059 17.829490661621094 L11.611418724060059 17.829490661621094 C11.589827537536621 17.87494468688965 11.5682373046875 17.920400619506836 11.546646118164062 17.96585464477539 L11.546646118164062 17.96585464477539 C11.523918151855469 17.954490661621094 11.501191139221191 17.943126678466797 11.478463172912598 17.9317626953125 L11.478463172912598 17.9317626953125 C11.507598876953125 17.795799255371094 11.276473999023438 17.781272888183594 11.151217460632324 17.563554763793945 L11.151217460632324 17.563554763793945 C10.55527114868164 17.546472549438477 10.750703811645508 18.051172256469727 10.410600662231445 18.147083282470703 C10.177205085754395 18.212902069091797 9.8754243850708 17.498048782348633 9.467073440551758 17.728418350219727 L9.467073440551758 17.728418350219727 C9.346026420593262 17.65999984741211 9.036711692810059 17.418407440185547 9.22731876373291 17.804536819458008 L9.22731876373291 17.804536819458008 C9.291362762451172 18.156661987304688 8.953010559082031 17.789365768432617 8.825045585632324 17.827281951904297 L8.825045585632324 17.827281951904297 C8.662267684936523 17.836673736572266 8.391349792480469 17.52220916748047 8.443227767944336 17.879535675048828 L8.443227767944336 17.879535675048828 C8.473002433776855 17.950733184814453 8.439336776733398 18.046314239501953 8.38868236541748 18.104536056518555 L8.38868236541748 18.104536056518555 C8.331204414367676 18.113750457763672 8.273061752319336 18.079328536987305 8.222782135009766 18.049991607666016 L8.222782135009766 18.049991607666016 C8.18018913269043 18.044269561767578 7.873311996459961 17.942075729370117 8.129617691040039 17.98862648010254 L8.129617691040039 17.98862648010254 C8.146281242370605 17.971208572387695 8.162945747375488 17.95379066467285 8.179609298706055 17.936372756958008 L8.179609298706055 17.936372756958008 C8.104735374450684 17.86148452758789 8.11376953125 17.73506736755371 8.081891059875488 17.634082794189453 L8.081891059875488 17.634082794189453 C8.140460014343262 17.59764289855957 8.197216033935547 17.55589485168457 8.243263244628906 17.504535675048828 L8.243263244628906 17.504535675048828 C8.223767280578613 17.46164321899414 8.216532707214355 17.408187866210938 8.231890678405762 17.363645553588867 L8.231890678405762 17.363645553588867 C8.214548110961914 17.345382690429688 8.195317268371582 17.310260772705078 8.21143627166748 17.290908813476562 L8.21143627166748 17.290908813476562 C8.33189582824707 17.275453567504883 8.341265678405762 17.07196807861328 8.447782516479492 17.013628005981445 L8.447782516479492 17.013628005981445 C8.44591236114502 16.94608497619629 8.39490795135498 16.884689331054688 8.345455169677734 16.838645935058594 L8.345455169677734 16.838645935058594 C8.352458000183105 16.653400421142578 8.672507286071777 16.598093032836914 8.706817626953125 16.415918350219727 L8.706817626953125 16.415918350219727 C8.748514175415039 16.361948013305664 9.052780151367188 16.103473663330078 8.884063720703125 16.061372756958008 L8.884063720703125 16.061372756958008 C8.92939567565918 15.989568710327148 9.062416076660156 15.949371337890625 9.145444869995117 15.949991226196289 L9.145444869995117 15.949991226196289 C9.131808280944824 15.896964073181152 9.118172645568848 15.843936920166016 9.104536056518555 15.790909767150879 L9.104536056518555 15.790909767150879 C9.412227630615234 15.188044548034668 9.387531280517578 14.877235412597656 9.340909004211426 14.191964149475098 L9.340909004211426 14.191964149475098 C9.1988525390625 14.030966758728027 9.110732078552246 14.020647048950195 9.259090423583984 13.823808670043945 L9.259090423583984 13.823808670043945 C9.395858764648438 13.6099853515625 9.180274963378906 13.498069763183594 9.352882385253906 13.338000297546387 L9.352882385253906 13.338000297546387 C9.733198165893555 13.237847328186035 9.468546867370605 12.557953834533691 9.477729797363281 12.164778709411621 C9.52558422088623 10.11594009399414 9.571703910827637 8.067061424255371 9.618191719055176 6.018191337585449 L9.618191719055176 6.018191337585449"></path></svg>