<svg xmlns="http://www.w3.org/2000/svg" viewBox="0.0 0.0 24.0 24.0" height="200px" width="200px"><path fill="none" stroke="black" stroke-width=".3" stroke-opacity="1.0"  filling="0" d="M5.151936054229736 6.372335910797119 L5.151936054229736 6.372335910797119 C5.038104057312012 6.429287910461426 4.924272060394287 6.486240386962891 4.8104400634765625 6.543192386627197 L4.8104400634765625 6.543192386627197 C4.924272060394287 6.486240386962891 5.038104057312012 6.429287910461426 5.151936054229736 6.372335910797119 L5.151936054229736 6.372335910797119"></path>
<path fill="none" stroke="black" stroke-width=".3" stroke-opacity="1.0"  filling="0" d="M21.28799819946289 11.413127899169922 L21.28799819946289 11.413127899169922 C21.084394454956055 11.2044677734375 20.759960174560547 10.833727836608887 20.659656524658203 11.033616065979004 L20.659656524658203 11.033616065979004 C20.60709571838379 11.1146879196167 20.554536819458008 11.195759773254395 20.501976013183594 11.27683162689209 L20.501976013183594 11.27683162689209 C19.944665908813477 10.701035499572754 19.987777709960938 10.470017433166504 19.960247039794922 10.825608253479004 L19.960247039794922 10.825608253479004 C19.830371856689453 10.762733459472656 20.089326858520508 11.098825454711914 20.208431243896484 11.180279731750488 L20.208431243896484 11.180279731750488 C19.9322509765625 11.075763702392578 18.360387802124023 10.387073516845703 18.42621612548828 10.645031929016113 L18.42621612548828 10.645031929016113 C17.6671142578125 9.980514526367188 16.713274002075195 9.46308708190918 15.719088554382324 9.291576385498047 L15.719088554382324 9.291576385498047 C15.933133125305176 9.986454963684082 15.63912582397461 10.928448677062988 16.169448852539062 11.425871849060059 C16.539709091186523 11.773161888122559 17.13252067565918 11.74728012084961 17.614055633544922 11.907984733581543 L17.614055633544922 11.907984733581543 C18.330657958984375 12.78410530090332 18.99239158630371 13.2998046875 19.870176315307617 13.983527183532715 L19.870176315307617 13.983527183532715 C20.106250762939453 13.893604278564453 20.360397338867188 13.80799388885498 20.612136840820312 13.82908821105957 L20.612136840820312 13.82908821105957 C20.778528213500977 14.07799243927002 20.944921493530273 14.326895713806152 21.111312866210938 14.575799942016602 L21.111312866210938 14.575799942016602 C20.727048873901367 14.5321683883667 20.342782974243164 14.48853588104248 19.958518981933594 14.444904327392578 L19.958518981933594 14.444904327392578 C18.96419906616211 14.36717700958252 18.302257537841797 13.45738697052002 17.411447525024414 13.019087791442871 C16.669015884399414 12.653794288635254 15.983626365661621 12.641519546508789 15.177791595458984 12.539999961853027 L15.177791595458984 12.539999961853027 C15.448512077331543 12.930959701538086 15.719232559204102 13.321920394897461 15.98995304107666 13.71288013458252 L15.98995304107666 13.71288013458252 C15.602965354919434 14.679497718811035 15.374690055847168 15.531115531921387 15.087287902832031 16.510513305664062 L15.087287902832031 16.510513305664062 C15.207528114318848 16.691017150878906 15.327767372131348 16.871519088745117 15.448007583618164 17.05202293395996 L15.448007583618164 17.05202293395996 C15.267719268798828 17.29257583618164 15.087431907653809 17.53312873840332 14.907143592834473 17.773681640625 L14.907143592834473 17.773681640625 C14.765979766845703 17.41191291809082 14.62386417388916 17.027673721313477 14.640167236328125 16.639680862426758 L14.640167236328125 16.639680862426758 C14.584857940673828 15.791996002197266 15.092714309692383 14.973878860473633 15.055103302001953 14.125224113464355 C15.035894393920898 13.691802024841309 13.520565032958984 12.349665641784668 13.282607078552246 11.818559646606445 L13.282607078552246 11.818559646606445 C11.746795654296875 12.423328399658203 10.519633293151855 12.723322868347168 8.865840911865234 12.844776153564453 L8.865840911865234 12.844776153564453 C8.18454360961914 14.044889450073242 6.4612507820129395 16.246370315551758 8.472719192504883 17.207759857177734 L8.472719192504883 17.207759857177734 C8.511887550354004 17.51692771911621 8.551055908203125 17.826095581054688 8.590224266052246 18.135263442993164 L8.590224266052246 18.135263442993164 C6.5027899742126465 16.66426658630371 7.035172462463379 14.942770004272461 7.5974884033203125 12.811295509338379 L7.5974884033203125 12.811295509338379 C5.428640365600586 13.028543472290039 4.8844499588012695 13.109439849853516 3.4466171264648438 14.706263542175293 L3.4466171264648438 14.706263542175293 C3.3466897010803223 15.128409385681152 2.5598132610321045 15.814817428588867 2.3635921478271484 15.4279203414917 C2.21736741065979 15.139602661132812 2.737959623336792 14.900774002075195 2.924759864807129 14.63692855834961 C3.4450626373291016 13.902029037475586 4.067621231079102 13.254903793334961 4.6194963455200195 12.540647506713867 L4.6194963455200195 12.540647506713867 C5.272188186645508 12.28870964050293 5.909018039703369 11.988791465759277 6.514464378356934 11.638200759887695 L6.514464378356934 11.638200759887695 C6.3527069091796875 10.262197494506836 6.006989479064941 9.163993835449219 5.612232208251953 7.848264217376709 L5.612232208251953 7.848264217376709 C4.980765342712402 7.8815765380859375 4.309436321258545 7.96986198425293 3.7695369720458984 8.299056053161621 L3.7695369720458984 8.299056053161621 C3.5315048694610596 8.176584243774414 3.2934730052948 8.054112434387207 3.055440902709961 7.931640625 L3.055440902709961 7.931640625 C3.065953016281128 7.730616569519043 3.076464891433716 7.529592037200928 3.086977005004883 7.328567981719971 L3.086977005004883 7.328567981719971 C3.7467501163482666 6.797407627105713 4.402145862579346 6.260763168334961 5.05300760269165 5.718720436096191 L5.05300760269165 5.718720436096191 C4.93938684463501 5.482903957366943 4.865053176879883 5.229142665863037 4.796400547027588 4.976544380187988 L4.796400547027588 4.976544380187988 C5.173465251922607 5.2778472900390625 5.388871192932129 5.6769843101501465 5.25151252746582 4.870272159576416 L5.25151252746582 4.870272159576416 C6.000020980834961 5.531189918518066 6.784066677093506 5.831533908843994 7.685400009155273 6.241008281707764 L7.685400009155273 6.241008281707764 C7.688568115234375 6.309408187866211 7.691736221313477 6.377808570861816 7.694904327392578 6.446208477020264 L7.694904327392578 6.446208477020264 C7.878432273864746 6.612672328948975 8.061960220336914 6.779136657714844 8.245488166809082 6.945600509643555 L8.245488166809082 6.945600509643555 C8.209992408752441 7.035816192626953 8.174495697021484 7.12603235244751 8.138999938964844 7.216248035430908 L8.138999938964844 7.216248035430908 C8.319432258605957 7.336560249328613 8.499863624572754 7.45687198638916 8.680295944213867 7.577184200286865 L8.590224266052246 7.6672563552856445 C8.620247840881348 7.697280406951904 8.650272369384766 7.727303981781006 8.680295944213867 7.757328033447266 L8.770584106445312 7.847832202911377 C9.200844764709473 8.034088134765625 9.479499816894531 8.483719825744629 9.906527519226074 8.67727279663086 C10.781373977661133 9.073802947998047 12.12112045288086 8.523420333862305 13.005804061889648 8.433732032775879 C13.734113693237305 8.359896659851074 14.453869819641113 8.682132720947266 15.149928092956543 8.90882396697998 C15.679268836975098 9.081218719482422 16.064916610717773 8.137102127075195 16.621318817138672 8.118695259094238 C17.223777770996094 8.098764419555664 18.95961570739746 9.276432991027832 19.4189510345459 9.562439918518066 L19.4189510345459 9.562439918518066 C19.388782501220703 9.622632026672363 19.35861587524414 9.68282413482666 19.328447341918945 9.743016242980957 L19.328447341918945 9.743016242980957 C20.01262664794922 10.011792182922363 20.884418487548828 10.140741348266602 21.287567138671875 10.755407333374023 L21.287567138671875 10.755407333374023 C21.26618194580078 10.86916732788086 21.24479866027832 10.982928276062012 21.223413467407227 11.096688270568848 L21.28799819946289 11.413127899169922"></path></svg>