<svg xmlns="http://www.w3.org/2000/svg" viewBox="0.0 0.0 24.0 24.0" height="200px" width="200px"><path fill="none" stroke="black" stroke-width=".3" stroke-opacity="1.0"  filling="0" d="M17.17514419555664 11.240111351013184 L17.17514419555664 11.240111351013184 C14.429356575012207 10.740179061889648 13.142969131469727 9.594658851623535 10.982208251953125 8.12437629699707 C8.837889671325684 6.665281295776367 6.961923122406006 6.030671119689941 4.428448677062988 7.042880058288574 C3.7884745597839355 7.2985711097717285 3.2358973026275635 7.736303806304932 2.666384696960449 8.12437629699707 C2.5280144214630127 8.218663215637207 1.773964524269104 9.161765098571777 1.3321924209594727 8.719392776489258 C0.8935126066207886 8.28011703491211 1.6255207061767578 7.79605770111084 1.8205788135528564 7.6455888748168945 C3.2748050689697266 6.523791790008545 4.913120746612549 5.5632004737854 6.825072288513184 5.5632004737854 C8.624485969543457 5.5632004737854 9.874622344970703 6.316789627075195 11.044487953186035 7.218116283416748 C12.214354515075684 8.1194429397583 13.303951263427734 9.168506622314453 14.78228759765625 9.759456634521484 C16.7174072265625 10.533000946044922 17.63303565979004 10.532999038696289 19.568063735961914 9.759407997131348 C20.208648681640625 9.503313064575195 20.762100219726562 9.065707206726074 21.332496643066406 8.677656173706055 C21.47144889831543 8.583124160766602 22.226255416870117 7.641035556793213 22.66823959350586 8.0839204788208 C23.106231689453125 8.522804260253906 22.37415885925293 9.006508827209473 22.179607391357422 9.156630516052246 C20.551122665405273 10.413216590881348 19.190784454345703 10.873054504394531 17.17514419555664 11.240111351013184 L17.17514419555664 11.240111351013184"></path>
<path fill="none" stroke="black" stroke-width=".3" stroke-opacity="1.0"  filling="0" d="M17.17514419555664 14.839752197265625 L17.17514419555664 14.839752197265625 C14.429544448852539 14.33985424041748 13.143028259277344 13.194278717041016 10.982208251953125 11.724320411682129 C8.837690353393555 10.265451431274414 6.962040901184082 9.630758285522461 4.428448677062988 10.642935752868652 C3.7884860038757324 10.898602485656738 3.2359259128570557 11.336324691772461 2.666384696960449 11.724320411682129 C2.527440309524536 11.818975448608398 1.7741649150848389 12.761005401611328 1.3321924209594727 12.319032669067383 C0.8936359882354736 11.880475997924805 1.6263055801391602 11.395870208740234 1.8205788135528564 11.245957374572754 C3.274689197540283 10.123875617980957 4.912973403930664 9.162840843200684 6.825072288513184 9.162840843200684 C8.624208450317383 9.162840843200684 9.874401092529297 9.916528701782227 11.044363975524902 10.817949295043945 C12.214327812194824 11.719368934631348 13.30406379699707 12.76852035522461 14.78228759765625 13.359448432922363 C16.71759796142578 14.133098602294922 17.632843017578125 14.133097648620605 19.568063735961914 13.359399795532227 C20.208642959594727 13.103297233581543 20.762048721313477 12.665632247924805 21.332496643066406 12.277664184570312 C21.4709529876709 12.18349838256836 22.22691535949707 11.241936683654785 22.66823959350586 11.683560371398926 C23.106565475463867 12.122184753417969 22.37381362915039 12.606415748596191 22.179607391357422 12.756270408630371 C20.551122665405273 14.012857437133789 19.190784454345703 14.472695350646973 17.17514419555664 14.839752197265625 L17.17514419555664 14.839752197265625"></path>
<path fill="none" stroke="black" stroke-width=".3" stroke-opacity="1.0"  filling="0" d="M17.17514419555664 18.436800003051758 L17.17514419555664 18.436800003051758 C14.429689407348633 17.93719482421875 13.142662048339844 16.7926025390625 10.982208251953125 15.322247505187988 C8.83795166015625 13.862916946411133 6.962001323699951 13.228119850158691 4.428448677062988 14.240495681762695 C3.7884607315063477 14.496227264404297 3.2358806133270264 14.934004783630371 2.666384696960449 15.322151184082031 C2.5280563831329346 15.416430473327637 1.7740700244903564 16.359853744506836 1.3321924209594727 15.917375564575195 C0.8935823440551758 15.478170394897461 1.6255751848220825 14.99387264251709 1.8205788135528564 14.84337043762207 C3.2746329307556152 13.721146583557129 4.912899971008301 12.759888648986816 6.825072288513184 12.759888648986816 C8.62437629699707 12.759888648986816 9.874507904052734 13.513776779174805 11.04439926147461 14.415374755859375 C12.214290618896484 15.316973686218262 13.303942680358887 16.366281509399414 14.78228759765625 16.957120895385742 C16.717403411865234 17.730514526367188 17.633033752441406 17.73051643371582 19.568063735961914 16.957073211669922 C20.208633422851562 16.701034545898438 20.762096405029297 16.263507843017578 21.332496643066406 15.875528335571289 C21.471473693847656 15.780998229980469 22.22630500793457 14.839069366455078 22.66823959350586 15.281904220581055 C23.106300354003906 15.720857620239258 22.37421417236328 16.204322814941406 22.179607391357422 16.354412078857422 C20.551057815551758 17.610422134399414 19.190523147583008 18.06998634338379 17.17514419555664 18.436800003051758 L17.17514419555664 18.436800003051758"></path></svg>