<svg xmlns="http://www.w3.org/2000/svg" viewBox="0.0 0.0 24.0 24.0" height="200px" width="200px"><path fill="none" stroke="black" stroke-width=".3" stroke-opacity="1.0"  filling="0" d="M10.179335594177246 9.179688453674316 L10.179335594177246 5.852424144744873 C10.231823921203613 5.799864292144775 10.284311294555664 5.7473039627075195 10.336799621582031 5.694744110107422 L13.663847923278809 5.694744110107422 C13.716407775878906 5.7473039627075195 13.768967628479004 5.799864292144775 13.821527481079102 5.852424144744873 L13.821527481079102 9.179471969604492 C13.768967628479004 9.231599807739258 13.716407775878906 9.28372859954834 13.663847923278809 9.335856437683105 L10.336799621582031 9.335856437683105 C10.284311294555664 9.28380012512207 10.231823921203613 9.231744766235352 10.179335594177246 9.179688453674316 L10.179335594177246 9.179688453674316"></path>
<path fill="none" stroke="black" stroke-width=".3" stroke-opacity="1.0"  filling="0" d="M21.74764633178711 13.808783531188965 L21.74764633178711 13.808783531188965 C22.098430633544922 14.159063339233398 22.449214935302734 14.509343147277832 22.799999237060547 14.859622955322266 L22.799999237060547 18.15340805053711 C22.449214935302734 18.503543853759766 22.098430633544922 18.85367774963379 21.74764633178711 19.203813552856445 L18.43636703491211 19.203813552856445 C18.085222244262695 18.85367774963379 17.734079360961914 18.503543853759766 17.3829345703125 18.15340805053711 L17.3829345703125 14.859622955322266 C17.734079360961914 14.509343147277832 18.085222244262695 14.159063339233398 18.43636703491211 13.808783531188965 L19.642728805541992 13.808783531188965 L19.642728805541992 12.909575462341309 L12.450575828552246 12.909575462341309 L12.450575828552246 13.808783531188965 L13.666871070861816 13.808783531188965 C14.018158912658691 14.159063339233398 14.369447708129883 14.509343147277832 14.720735549926758 14.859622955322266 L14.720735549926758 18.15340805053711 C14.369447708129883 18.503543853759766 14.018158912658691 18.85367774963379 13.666871070861816 19.203813552856445 L10.356887817382812 19.203813552856445 C10.005599975585938 18.85367774963379 9.654312133789062 18.503543853759766 9.303024291992188 18.15340805053711 L9.303024291992188 14.859622955322266 C9.654312133789062 14.509343147277832 10.005599975585938 14.159063339233398 10.356887817382812 13.808783531188965 L11.550503730773926 13.808783531188965 L11.550503730773926 12.909575462341309 L4.358784198760986 12.909575462341309 L4.358784198760986 13.808783531188965 L5.56384801864624 13.808783531188965 C5.915280342102051 14.159063339233398 6.266712188720703 14.509343147277832 6.618144512176514 14.859622955322266 L6.618144512176514 18.15340805053711 C6.266712188720703 18.503543853759766 5.915280342102051 18.85367774963379 5.56384801864624 19.203813552856445 L2.25429630279541 19.203813552856445 C1.9028644561767578 18.85367774963379 1.5514326095581055 18.503543853759766 1.2000007629394531 18.15340805053711 L1.2000007629394531 14.859622955322266 C1.5514326095581055 14.509271621704102 1.9028644561767578 14.158920288085938 2.25429630279541 13.808568954467773 L3.4595766067504883 13.808568954467773 L3.4595766067504883 12.011664390563965 L7.505040168762207 12.011664390563965 L11.550503730773926 12.011664390563965 L11.550503730773926 10.235063552856445 L10.336799621582031 10.235063552856445 C9.984935760498047 9.883199691772461 9.633071899414062 9.531335830688477 9.281208038330078 9.179471969604492 L9.281208038330078 5.852424144744873 C9.633071899414062 5.500416278839111 9.984935760498047 5.14840841293335 10.336799621582031 4.796400547027588 L13.6636323928833 4.796400547027588 C14.015928268432617 5.14840841293335 14.368224143981934 5.500416278839111 14.72052001953125 5.852424144744873 L14.72052001953125 9.179688453674316 C14.368224143981934 9.5315523147583 14.015928268432617 9.883417129516602 13.6636323928833 10.235280990600586 L12.450359344482422 10.235280990600586 L12.450359344482422 12.011879920959473 L16.495607376098633 12.011879920959473 L20.540855407714844 12.011879920959473 L20.540855407714844 13.808783531188965 L21.74764633178711 13.808783531188965"></path>
<path fill="none" stroke="black" stroke-width=".3" stroke-opacity="1.0"  filling="0" d="M5.718072414398193 14.859622955322266 L5.718072414398193 18.15340805053711 C5.666664123535156 18.203807830810547 5.615256309509277 18.254209518432617 5.56384801864624 18.304609298706055 L2.25429630279541 18.304609298706055 C2.2026004791259766 18.254209518432617 2.150904655456543 18.203807830810547 2.0992088317871094 18.15340805053711 L2.0992088317871094 14.859622955322266 C2.150904655456543 14.80907917022705 2.2026004791259766 14.758535385131836 2.25429630279541 14.707991600036621 L5.56384801864624 14.707991600036621 C5.615256309509277 14.758535385131836 5.666664123535156 14.80907917022705 5.718072414398193 14.859622955322266 L5.718072414398193 14.859622955322266"></path>
<path fill="none" stroke="black" stroke-width=".3" stroke-opacity="1.0"  filling="0" d="M13.821527481079102 14.859622955322266 L13.821527481079102 18.15340805053711 C13.769975662231445 18.203807830810547 13.718422889709473 18.254209518432617 13.666871070861816 18.304609298706055 L10.356887817382812 18.304609298706055 C10.305624008178711 18.254209518432617 10.25436019897461 18.203807830810547 10.203096389770508 18.15340805053711 L10.203096389770508 14.859622955322266 C10.25436019897461 14.80907917022705 10.305624008178711 14.758535385131836 10.356887817382812 14.707991600036621 L13.666871070861816 14.707991600036621 C13.718422889709473 14.758535385131836 13.769975662231445 14.80907917022705 13.821527481079102 14.859622955322266 L13.821527481079102 14.859622955322266"></path>
<path fill="none" stroke="black" stroke-width=".3" stroke-opacity="1.0"  filling="0" d="M21.901439666748047 18.15319061279297 L21.901439666748047 18.15319061279297 C21.850175857543945 18.203590393066406 21.79891014099121 18.253990173339844 21.74764633178711 18.30438995361328 L18.43636703491211 18.30438995361328 C18.38524627685547 18.253990173339844 18.33412742614746 18.203590393066406 18.28300666809082 18.15319061279297 L18.28300666809082 14.859622955322266 C18.33412742614746 14.80907917022705 18.38524627685547 14.758535385131836 18.43636703491211 14.707991600036621 L21.74764633178711 14.707991600036621 C21.79891014099121 14.758535385131836 21.850175857543945 14.80907917022705 21.901439666748047 14.859622955322266 L21.901439666748047 18.15319061279297"></path></svg>