<svg xmlns="http://www.w3.org/2000/svg" viewBox="0.0 0.0 24.0 24.0" height="200px" width="200px"><path fill="none" stroke="black" stroke-width=".3" stroke-opacity="1.0"  filling="0" d="M20.36481475830078 6.552264213562012 L20.36481475830078 6.552264213562012 C22.291126251220703 6.467296123504639 22.859846115112305 7.691919803619385 21.55864715576172 9.112943649291992 L20.146438598632812 9.771528244018555 C20.34039306640625 11.011220932006836 20.398271560668945 12.280658721923828 20.309734344482422 13.532304763793945 L21.870121002197266 14.10059928894043 C23.290874481201172 15.403707504272461 22.829063415527344 16.67171859741211 20.903087615966797 16.75588607788086 L19.34378433227539 16.18845558166504 C18.606882095336914 17.204526901245117 17.746257781982422 18.140060424804688 16.800382614135742 18.96513557434082 L17.458969116210938 20.376911163330078 C17.543184280395508 22.30260467529297 16.32000732421875 22.873764038085938 14.898504257202148 21.571609497070312 L14.239919662475586 20.15896987915039 C12.999978065490723 20.353235244750977 11.730219841003418 20.411243438720703 10.478280067443848 20.322696685791016 L9.919055938720703 21.85866928100586 C8.616814613342285 23.279573440551758 7.348625183105469 22.818490982055664 7.263336181640625 20.892934799194336 L7.822992324829102 19.356094360351562 C6.806911945343018 18.61937141418457 5.871362686157227 17.758893966674805 5.04631233215332 16.813127517700195 L3.6341047286987305 17.471710205078125 C1.7091752290725708 17.555356979370117 1.1380367279052734 16.332096099853516 2.4400558471679688 14.911248207092285 L3.852264404296875 14.252664566040039 C3.6583967208862305 13.012673377990723 3.60066556930542 11.742938041687012 3.6894006729125977 10.491024017333984 L2.1296653747558594 9.922727584838867 C0.7090275287628174 8.6209077835083 1.1710280179977417 7.352541446685791 3.0958328247070312 7.267440319061279 L4.655568599700928 7.835304260253906 C5.392416000366211 6.819444179534912 6.252845764160156 5.884032249450684 7.198535919189453 5.059055805206299 L6.539952278137207 3.6464157104492188 C6.455717086791992 1.7209552526474 7.679732799530029 1.1503084897994995 9.10041618347168 2.4525842666625977 L9.759000778198242 3.8652238845825195 C10.9990873336792 3.670957565307617 12.268987655639648 3.612948417663574 13.521071434020996 3.7014970779418945 L14.08850383758545 2.1419763565063477 C15.390837669372559 0.7206417322158813 16.65874671936035 1.1824913024902344 16.74422264099121 3.108144760131836 L16.175926208496094 4.667880058288574 C17.192096710205078 5.404482364654541 18.127670288085938 6.264984130859375 18.952608108520508 7.210848331451416 L20.36481475830078 6.552264213562012"></path>
<path fill="none" stroke="black" stroke-width=".3" stroke-opacity="1.0"  filling="0" d="M14.380751609802246 17.117040634155273 L14.380751609802246 17.117040634155273 C12.557202339172363 17.63341522216797 11.052781105041504 17.919172286987305 9.285792350769043 16.94587516784668 C7.305572509765625 15.855125427246094 6.363683700561523 13.823284149169922 6.429421901702881 11.825101852416992 C6.4951605796813965 9.826919555664062 7.568526744842529 7.862397193908691 9.618816375732422 6.906288146972656 C11.669174194335938 5.95014762878418 13.863990783691406 6.390535354614258 15.436985969543457 7.624505519866943 C17.009981155395508 8.858475685119629 17.96115493774414 10.886029243469238 17.52423095703125 13.104219436645508 C17.13437271118164 15.083463668823242 15.948385238647461 16.052101135253906 14.380751609802246 17.117040634155273 L14.380751609802246 17.117040634155273"></path></svg>