<svg xmlns="http://www.w3.org/2000/svg" viewBox="0.0 0.0 24.0 24.0" height="200px" width="200px"><path fill="none" stroke="black" stroke-width=".3" stroke-opacity="1.0"  filling="0" d="M8.6386079788208 1.9089126586914062 L8.6386079788208 1.9089126586914062 C11.081119537353516 2.2380526065826416 13.137114524841309 2.9896440505981445 14.455086708068848 5.248592376708984 C15.741870880126953 7.454084396362305 15.564852714538574 9.988116264343262 14.42758846282959 11.970775604248047 C13.290324211120605 13.953433990478516 11.192811965942383 15.384719848632812 8.6386079788208 15.384719848632812 C6.084417343139648 15.384719848632812 3.986738920211792 13.953509330749512 2.84934139251709 11.970900535583496 C1.7119439840316772 9.988290786743164 1.534827470779419 7.454282760620117 2.821760654449463 5.248688220977783 C4.139859199523926 2.9896810054779053 6.195982456207275 2.2380685806274414 8.6386079788208 1.9089126586914062 L8.6386079788208 1.9089126586914062"></path>
<path fill="none" stroke="black" stroke-width=".3" stroke-opacity="1.0"  filling="0" d="M8.6386079788208 13.644407272338867 L8.6386079788208 13.644407272338867 C6.594507217407227 13.230709075927734 4.91917610168457 12.723505020141602 4.034153461456299 10.59017276763916 C3.361225128173828 8.968090057373047 3.629455089569092 7.232806205749512 4.507358551025391 5.903039455413818 C5.385262489318848 4.573272705078125 6.872840404510498 3.6490228176116943 8.6386079788208 3.6490087509155273 C10.404367446899414 3.6489946842193604 11.891797065734863 4.573314666748047 12.769577026367188 5.903123378753662 C13.647356033325195 7.2329325675964355 13.915483474731445 8.968230247497559 13.24263858795166 10.590171813964844 C12.357702255249023 12.723374366760254 10.682587623596191 13.230680465698242 8.6386079788208 13.644407272338867 L8.6386079788208 13.644407272338867"></path>
<path fill="none" stroke="black" stroke-width=".3" stroke-opacity="1.0"  filling="0" d="M15.207599639892578 13.96840763092041 L16.04805564880371 14.80886459350586 L14.817503929138184 16.03941535949707 L13.97704792022705 15.198959350585938 C13.97704792022705 14.788775444030762 13.687004089355469 14.258451461791992 13.97704792022705 13.96840763092041 C14.267091751098633 13.678363800048828 14.797415733337402 13.96840763092041 15.207599639892578 13.96840763092041 L15.207599639892578 13.96840763092041"></path>
<path fill="none" stroke="black" stroke-width=".3" stroke-opacity="1.0"  filling="0" d="M21.8448486328125 20.605873107910156 L21.8448486328125 20.605873107910156 C21.8448486328125 21.016056060791016 22.134891510009766 21.54637908935547 21.8448486328125 21.836421966552734 C21.5548038482666 22.12646484375 21.024478912353516 21.836421966552734 20.614294052124023 21.836421966552734 L15.38493537902832 16.606849670410156 L16.615270614624023 15.37651252746582 L21.8448486328125 20.605873107910156"></path></svg>