<svg xmlns="http://www.w3.org/2000/svg" viewBox="0.0 0.0 24.0 24.0" height="200px" width="200px"><path fill="none" stroke="black" stroke-width=".3" stroke-opacity="1.0"  filling="0" d="M9.589008331298828 1.2000007629394531 L15.28946304321289 1.2000007629394531 L15.289463996887207 8.40000057220459 L15.289463996887207 15.600000381469727 L15.28946304321289 22.799999237060547 L9.589008331298828 22.799999237060547 L9.589008331298828 15.600000381469727 L9.589008331298828 8.40000057220459 L9.589008331298828 1.2000007629394531"></path>
<path fill="none" stroke="black" stroke-width=".3" stroke-opacity="1.0"  filling="0" d="M14.623968124389648 1.8588008880615234 L14.623968124389648 8.473152160644531 L10.254287719726562 8.473152160644531 L10.553447723388672 5.817000389099121 L10.254287719726562 5.817000389099121 L10.254287719726562 1.8588008880615234 L14.623968124389648 1.8588008880615234"></path>
<path fill="none" stroke="black" stroke-width=".3" stroke-opacity="1.0"  filling="0" d="M4.8743767738342285 2.3555994033813477 L7.259880065917969 2.3555994033813477 C7.423176288604736 2.5188958644866943 7.586472034454346 2.682192087173462 7.749768257141113 2.8454885482788086 L4.384488582611084 2.8454885482788086 C4.547784805297852 2.682192087173462 4.711080551147461 2.5188958644866943 4.8743767738342285 2.3555994033813477 L4.8743767738342285 2.3555994033813477"></path>
<path fill="none" stroke="black" stroke-width=".3" stroke-opacity="1.0"  filling="0" d="M10.756488800048828 2.8454885482788086 L10.756488800048828 2.8454885482788086 C10.919784545898438 2.682192087173462 11.083080291748047 2.5188958644866943 11.246376037597656 2.3555994033813477 L13.631879806518555 2.3555994033813477 C13.795175552368164 2.5188958644866943 13.95847225189209 2.682192087173462 14.1217679977417 2.8454885482788086 L10.756488800048828 2.8454885482788086"></path>
<path fill="none" stroke="black" stroke-width=".3" stroke-opacity="1.0"  filling="0" d="M4.8743767738342285 3.0131044387817383 L7.259880065917969 3.0131044387817383 C7.423176288604736 3.1764001846313477 7.586472034454346 3.339695930480957 7.749768257141113 3.5029916763305664 L4.384488582611084 3.5029916763305664 C4.547784805297852 3.339695930480957 4.711080551147461 3.1764001846313477 4.8743767738342285 3.0131044387817383 L4.8743767738342285 3.0131044387817383"></path>
<path fill="none" stroke="black" stroke-width=".3" stroke-opacity="1.0"  filling="0" d="M10.756488800048828 3.5029916763305664 L10.756488800048828 3.5029916763305664 C10.919784545898438 3.339695930480957 11.083080291748047 3.1764001846313477 11.246376037597656 3.0131044387817383 L13.631879806518555 3.0131044387817383 C13.795175552368164 3.1764001846313477 13.95847225189209 3.339695930480957 14.1217679977417 3.5029916763305664 L10.756488800048828 3.5029916763305664"></path>
<path fill="none" stroke="black" stroke-width=".3" stroke-opacity="1.0"  filling="0" d="M3.8822879791259766 5.817000389099121 L3.8822879791259766 1.8588008880615234 L8.251968383789062 1.8588008880615234 L8.251968383789062 8.473152160644531 L3.8822879791259766 8.473152160644531 L4.181448459625244 5.817000389099121 L3.8822879791259766 5.817000389099121"></path>
<path fill="none" stroke="black" stroke-width=".3" stroke-opacity="1.0"  filling="0" d="M14.746438980102539 8.570352554321289 L14.746438980102539 15.417119979858398 L14.746438980102539 22.263887405395508 L10.13203239440918 22.263887405395508 L10.13203239440918 15.421296119689941 L10.13203239440918 8.578704833984375 L10.13203239440918 1.7361125946044922 L14.746438980102539 1.7361125946044922 L14.746438980102539 8.570352554321289"></path>
<path fill="none" stroke="black" stroke-width=".3" stroke-opacity="1.0"  filling="0" d="M14.623968124389648 8.69282341003418 L14.623968124389648 15.307391166687012 L10.254287719726562 15.307391166687012 L10.553447723388672 12.651023864746094 L10.254287719726562 12.651023864746094 L10.254287719726562 8.69282341003418 L14.623968124389648 8.69282341003418"></path>
<path fill="none" stroke="black" stroke-width=".3" stroke-opacity="1.0"  filling="0" d="M4.8743767738342285 9.189623832702637 L7.259880065917969 9.189623832702637 C7.423176288604736 9.352919578552246 7.586472034454346 9.516216278076172 7.749768257141113 9.679512023925781 L4.384488582611084 9.679512023925781 C4.547784805297852 9.516216278076172 4.711080551147461 9.352919578552246 4.8743767738342285 9.189623832702637 L4.8743767738342285 9.189623832702637"></path>
<path fill="none" stroke="black" stroke-width=".3" stroke-opacity="1.0"  filling="0" d="M10.756488800048828 9.679512023925781 L10.756488800048828 9.679512023925781 C10.919784545898438 9.516216278076172 11.083080291748047 9.352919578552246 11.246376037597656 9.189623832702637 L13.631879806518555 9.189623832702637 C13.795175552368164 9.352919578552246 13.95847225189209 9.516216278076172 14.1217679977417 9.679512023925781 L10.756488800048828 9.679512023925781"></path>
<path fill="none" stroke="black" stroke-width=".3" stroke-opacity="1.0"  filling="0" d="M4.8743767738342285 9.847127914428711 L7.259880065917969 9.847127914428711 C7.423176288604736 10.01042366027832 7.586472034454346 10.173720359802246 7.749768257141113 10.337016105651855 L4.384488582611084 10.337016105651855 C4.547784805297852 10.173720359802246 4.711080551147461 10.01042366027832 4.8743767738342285 9.847127914428711 L4.8743767738342285 9.847127914428711"></path>
<path fill="none" stroke="black" stroke-width=".3" stroke-opacity="1.0"  filling="0" d="M10.756488800048828 10.337016105651855 L10.756488800048828 10.337016105651855 C10.919784545898438 10.173720359802246 11.083080291748047 10.01042366027832 11.246376037597656 9.847127914428711 L13.631879806518555 9.847127914428711 C13.795175552368164 10.01042366027832 13.95847225189209 10.173720359802246 14.1217679977417 10.337016105651855 L10.756488800048828 10.337016105651855"></path>
<path fill="none" stroke="black" stroke-width=".3" stroke-opacity="1.0"  filling="0" d="M3.8822879791259766 12.651023864746094 L3.8822879791259766 8.69282341003418 L8.251968383789062 8.69282341003418 L8.251968383789062 15.307391166687012 L3.8822879791259766 15.307391166687012 L4.181448459625244 12.651023864746094 L3.8822879791259766 12.651023864746094"></path>
<path fill="none" stroke="black" stroke-width=".3" stroke-opacity="1.0"  filling="0" d="M3.7600326538085938 15.429647445678711 L3.7600326538085938 8.582880020141602 L3.7600326538085938 1.7361125946044922 L8.37444019317627 1.7361125946044922 L8.37444019317627 8.578632354736328 L8.37444019317627 15.421152114868164 L8.37444019317627 22.263671875 L3.7600326538085938 22.263671875 L3.7600326538085938 15.429647445678711"></path>
<path fill="none" stroke="black" stroke-width=".3" stroke-opacity="1.0"  filling="0" d="M14.623968124389648 15.526847839355469 L14.623968124389648 22.141414642333984 L10.254287719726562 22.141414642333984 L10.553447723388672 19.484830856323242 L10.254287719726562 19.484830856323242 L10.254287719726562 15.526847839355469 L14.623968124389648 15.526847839355469"></path>
<path fill="none" stroke="black" stroke-width=".3" stroke-opacity="1.0"  filling="0" d="M4.8743767738342285 16.023862838745117 L7.259880065917969 16.023862838745117 C7.423176288604736 16.18716049194336 7.586472034454346 16.35045623779297 7.749768257141113 16.51375389099121 L4.384488582611084 16.51375389099121 C4.547784805297852 16.35045623779297 4.711080551147461 16.18716049194336 4.8743767738342285 16.023862838745117 L4.8743767738342285 16.023862838745117"></path>
<path fill="none" stroke="black" stroke-width=".3" stroke-opacity="1.0"  filling="0" d="M10.756488800048828 16.51353645324707 L10.756488800048828 16.51353645324707 C10.919784545898438 16.35024070739746 11.083080291748047 16.18694305419922 11.246376037597656 16.02364730834961 L13.631879806518555 16.02364730834961 C13.795175552368164 16.18694305419922 13.95847225189209 16.35024070739746 14.1217679977417 16.51353645324707 L10.756488800048828 16.51353645324707"></path>
<path fill="none" stroke="black" stroke-width=".3" stroke-opacity="1.0"  filling="0" d="M4.8743767738342285 16.681150436401367 L7.259880065917969 16.681150436401367 C7.423176288604736 16.844446182250977 7.586472034454346 17.00774383544922 7.749768257141113 17.171039581298828 L4.384488582611084 17.171039581298828 C4.547784805297852 17.00774383544922 4.711080551147461 16.844446182250977 4.8743767738342285 16.681150436401367 L4.8743767738342285 16.681150436401367"></path>
<path fill="none" stroke="black" stroke-width=".3" stroke-opacity="1.0"  filling="0" d="M10.756488800048828 17.170825958251953 L10.756488800048828 17.170825958251953 C10.919784545898438 17.00752830505371 11.083080291748047 16.8442325592041 11.246376037597656 16.68093490600586 L13.631879806518555 16.68093490600586 C13.795175552368164 16.8442325592041 13.95847225189209 17.00752830505371 14.1217679977417 17.170825958251953 L10.756488800048828 17.170825958251953"></path>
<path fill="none" stroke="black" stroke-width=".3" stroke-opacity="1.0"  filling="0" d="M3.8822879791259766 19.484830856323242 L3.8822879791259766 15.526847839355469 L8.251968383789062 15.526847839355469 L8.251968383789062 22.141414642333984 L3.8822879791259766 22.141414642333984 L4.181448459625244 19.484830856323242 L3.8822879791259766 19.484830856323242"></path>
<path fill="none" stroke="black" stroke-width=".3" stroke-opacity="1.0"  filling="0" d="M3.217008590698242 22.799999237060547 L3.217008590698242 15.600000381469727 L3.217008590698242 8.40000057220459 L3.217008590698242 1.2000007629394531 L8.917463302612305 1.2000007629394531 L8.917463302612305 8.40000057220459 L8.917463302612305 15.600000381469727 L8.917463302612305 22.799999237060547 L3.217008590698242 22.799999237060547"></path></svg>