<svg xmlns="http://www.w3.org/2000/svg" viewBox="0.0 0.0 24.0 24.0" height="200px" width="200px"><path fill="none" stroke="black" stroke-width=".3" stroke-opacity="1.0"  filling="0" d="M12.185328483581543 3.7127275466918945 L12.185328483581543 3.7127275466918945 C13.76888656616211 3.8951303958892822 15.24247932434082 4.287001132965088 16.50497055053711 5.012062072753906 C17.7674617767334 5.737123012542725 18.818851470947266 6.795373916625977 19.558006286621094 8.310537338256836 C20.430158615112305 10.09832763671875 20.564870834350586 12.007149696350098 20.135801315307617 13.757673263549805 C19.70673370361328 15.508195877075195 18.713886260986328 17.100419998168945 17.33091926574707 18.25501251220703 C15.947953224182129 19.409605026245117 14.174869537353516 20.126567840576172 12.185328483581543 20.126567840576172 C10.195740699768066 20.126567840576172 8.422572135925293 19.409639358520508 7.039525985717773 18.25507926940918 C5.656479835510254 17.10051918029785 4.663557529449463 15.508328437805176 4.234461784362793 13.757804870605469 C3.805366039276123 12.007282257080078 3.9400978088378906 10.098426818847656 4.8123602867126465 8.310537338256836 C5.551576614379883 6.795355319976807 6.6030168533325195 5.73710298538208 7.865553855895996 5.012045860290527 C9.128090858459473 4.286989212036133 10.601724624633789 3.895127773284912 12.185328483581543 3.7127275466918945 L12.185328483581543 3.7127275466918945"></path>
<path fill="none" stroke="black" stroke-width=".3" stroke-opacity="1.0"  filling="0" d="M9.407999992370605 7.464000225067139 L15.456000328063965 7.464000225067139 L15.456000328063965 11.351999282836914 L9.407999992370605 11.351999282836914 L9.407999992370605 7.464000225067139"></path>
<path fill="none" stroke="black" stroke-width=".3" stroke-opacity="1.0"  filling="0" d="M2.545895576477051 11.9198637008667 L2.545895576477051 11.9198637008667 C2.700188159942627 10.180015563964844 3.117530345916748 8.547730445861816 3.890092611312866 7.123051643371582 C4.662654876708984 5.698372840881348 5.790437698364258 4.481298923492432 7.365612030029297 3.571871757507324 C9.468056678771973 2.358025074005127 11.775443077087402 2.071733236312866 13.917539596557617 2.499241828918457 C16.059635162353516 2.9267501831054688 18.036439895629883 4.068058967590332 19.47772216796875 5.709414482116699 C20.919002532958984 7.350769519805908 21.82476043701172 9.492171287536621 21.82476043701172 11.919864654541016 C21.82476043701172 14.34755802154541 20.919002532958984 16.48896026611328 19.47772216796875 18.13031578063965 C18.036441802978516 19.771671295166016 16.059635162353516 20.912979125976562 13.9175386428833 21.34048843383789 C11.775443077087402 21.767995834350586 9.468055725097656 21.481704711914062 7.365610599517822 20.26785659790039 C5.790436744689941 19.358428955078125 4.662653923034668 18.141355514526367 3.89009165763855 16.716676712036133 C3.1175293922424316 15.291996955871582 2.7001876831054688 13.659711837768555 2.545895576477051 11.9198637008667 L2.545895576477051 11.9198637008667"></path>
<path fill="none" stroke="black" stroke-width=".3" stroke-opacity="1.0"  filling="0" d="M9.407999992370605 12.0 L10.920000076293945 12.0 L10.920000076293945 13.295999526977539 L9.407999992370605 13.295999526977539 L9.407999992370605 12.0"></path>
<path fill="none" stroke="black" stroke-width=".3" stroke-opacity="1.0"  filling="0" d="M11.568000793457031 12.0 L13.295999526977539 12.0 L13.295999526977539 13.295999526977539 L11.568000793457031 13.295999526977539 L11.568000793457031 12.0"></path>
<path fill="none" stroke="black" stroke-width=".3" stroke-opacity="1.0"  filling="0" d="M13.944000244140625 12.0 L15.456000328063965 12.0 L15.456000328063965 13.295999526977539 L13.944000244140625 13.295999526977539 L13.944000244140625 12.0"></path>
<path fill="none" stroke="black" stroke-width=".3" stroke-opacity="1.0"  filling="0" d="M9.407999992370605 13.727999687194824 L10.920000076293945 13.727999687194824 L10.920000076293945 15.02400016784668 L9.407999992370605 15.02400016784668 L9.407999992370605 13.727999687194824"></path>
<path fill="none" stroke="black" stroke-width=".3" stroke-opacity="1.0"  filling="0" d="M11.568000793457031 13.727999687194824 L13.295999526977539 13.727999687194824 L13.295999526977539 15.02400016784668 L11.568000793457031 15.02400016784668 L11.568000793457031 13.727999687194824"></path>
<path fill="none" stroke="black" stroke-width=".3" stroke-opacity="1.0"  filling="0" d="M13.944000244140625 13.727999687194824 L15.456000328063965 13.727999687194824 L15.456000328063965 15.02400016784668 L13.944000244140625 15.02400016784668 L13.944000244140625 13.727999687194824"></path>
<path fill="none" stroke="black" stroke-width=".3" stroke-opacity="1.0"  filling="0" d="M9.407999992370605 15.67199993133545 L10.920000076293945 15.67199993133545 L10.920000076293945 16.751998901367188 L9.407999992370605 16.751998901367188 L9.407999992370605 15.67199993133545"></path>
<path fill="none" stroke="black" stroke-width=".3" stroke-opacity="1.0"  filling="0" d="M11.568000793457031 15.67199993133545 L13.295999526977539 15.67199993133545 L13.295999526977539 16.751998901367188 L11.568000793457031 16.751998901367188 L11.568000793457031 15.67199993133545"></path>
<path fill="none" stroke="black" stroke-width=".3" stroke-opacity="1.0"  filling="0" d="M13.944000244140625 15.67199993133545 L15.456000328063965 15.67199993133545 L15.456000328063965 16.751998901367188 L13.944000244140625 16.751998901367188 L13.944000244140625 15.67199993133545"></path>
<path fill="none" stroke="black" stroke-width=".3" stroke-opacity="1.0"  filling="0" d="M16.104000091552734 17.399999618530273 L8.760000228881836 17.399999618530273 L8.760000228881836 12.0 L8.760000228881836 6.600000381469727 L16.104000091552734 6.600000381469727 L16.104000091552734 12.0 L16.104000091552734 17.399999618530273"></path></svg>