<svg xmlns="http://www.w3.org/2000/svg" viewBox="0.0 0.0 24.0 24.0" height="200px" width="200px"><path fill="none" stroke="black" stroke-width=".3" stroke-opacity="1.0"  filling="0" d="M4.914767742156982 7.360968112945557 L4.914767742156982 7.360968112945557 C4.672415733337402 7.121208190917969 4.1877121925354 6.982597351074219 4.1877121925354 6.641687870025635 C4.1877121925354 6.300220966339111 4.573300838470459 5.920032024383545 4.914767742156982 5.920032024383545 C5.2563371658325195 5.920032024383545 5.642256259918213 6.300118446350098 5.642256259918213 6.641687870025635 C5.642256259918213 6.982699871063232 5.15726375579834 7.121208190917969 4.914767742156982 7.360968112945557 L4.914767742156982 7.360968112945557"></path>
<path fill="none" stroke="black" stroke-width=".3" stroke-opacity="1.0"  filling="0" d="M1.2216005325317383 8.42476749420166 L1.2216005325317383 8.42476749420166 C1.2043997049331665 8.38142204284668 1.2446714639663696 8.32884693145752 1.2788410186767578 8.297111511230469 L3.5798873901367188 8.297111511230469 C3.674379825592041 8.20241641998291 3.7301526069641113 8.016536712646484 3.6585121154785156 7.903560161590576 L1.5771360397338867 6.913200378417969 C1.5425481796264648 6.851033687591553 1.5235769748687744 6.767603874206543 1.5499200820922852 6.701519966125488 L1.5499200820922852 6.701519966125488 C3.192566394805908 5.4028754234313965 5.105770587921143 4.760110378265381 7.121890068054199 4.544698715209961 C9.138010025024414 4.329287528991699 11.257043838500977 4.541229248046875 13.31135082244873 4.951998710632324 C15.365657806396484 5.362768650054932 17.35523796081543 5.972365379333496 19.11244773864746 6.552264213562012 L22.433664321899414 4.9322638511657715 C22.670501708984375 4.871848106384277 22.826065063476562 5.076451778411865 22.76198387145996 5.296008110046387 L20.80286407470703 7.7355122566223145 L22.76198387145996 10.167023658752441 C22.822677612304688 10.388076782226562 22.67638397216797 10.595772743225098 22.433664321899414 10.53335952758789 L19.11244773864746 8.913360595703125 C17.14563751220703 9.648680686950684 15.116992950439453 10.216198921203613 13.081329345703125 10.520514488220215 C11.045665740966797 10.824831008911133 9.002981185913086 10.865943908691406 7.008089065551758 10.548453330993652 C5.01319694519043 10.230962753295898 3.066096544265747 9.5548677444458 1.2216005325317383 8.42476749420166 L1.2216005325317383 8.42476749420166"></path>
<path fill="none" stroke="black" stroke-width=".3" stroke-opacity="1.0"  filling="0" d="M4.07625675201416 14.239919662475586 L4.07625675201416 14.239919662475586 C3.075040102005005 13.244832992553711 5.091501235961914 13.250078201293945 4.07625675201416 14.239919662475586 L4.07625675201416 14.239919662475586"></path>
<path fill="none" stroke="black" stroke-width=".3" stroke-opacity="1.0"  filling="0" d="M14.91427230834961 14.239919662475586 L14.91427230834961 14.239919662475586 C13.925860404968262 13.250492095947266 15.899026870727539 13.24906063079834 14.91427230834961 14.239919662475586 L14.91427230834961 14.239919662475586"></path>
<path fill="none" stroke="black" stroke-width=".3" stroke-opacity="1.0"  filling="0" d="M2.440272331237793 14.48140811920166 L2.440272331237793 14.48140811920166 C2.4315598011016846 14.463980674743652 2.4519405364990234 14.44158935546875 2.4672727584838867 14.429567337036133 L3.3844079971313477 14.429567337036133 C3.420985221862793 14.3917875289917 3.4435415267944336 14.318488121032715 3.414431571960449 14.27469539642334 L2.5839128494262695 13.878551483154297 C2.569796323776245 13.853028297424316 2.561678171157837 13.818552017211914 2.5731115341186523 13.791719436645508 L2.5731115341186523 13.791719436645508 C4.832541465759277 12.310712814331055 7.1785688400268555 13.131973266601562 9.593111991882324 13.734695434570312 L10.922592163085938 13.083239555358887 C11.014846801757812 13.06029224395752 11.07352066040039 13.137474060058594 11.055647850036621 13.224287986755371 L10.271352767944336 14.20103931427002 L11.055647850036621 15.175415992736816 C11.072720527648926 15.262868881225586 11.018810272216797 15.348126411437988 10.922592163085938 15.324670791625977 L9.593111991882324 14.673215866088867 C6.920987129211426 15.571192741394043 5.047799110412598 15.53838062286377 2.440272331237793 14.48140811920166 L2.440272331237793 14.48140811920166"></path>
<path fill="none" stroke="black" stroke-width=".3" stroke-opacity="1.0"  filling="0" d="M13.275480270385742 14.48140811920166 L13.275480270385742 14.48140811920166 C13.267120361328125 14.464689254760742 13.283106803894043 14.44222354888916 13.296863555908203 14.429567337036133 L14.214215278625488 14.429567337036133 C14.25214672088623 14.392900466918945 14.27717113494873 14.317854881286621 14.246831893920898 14.27469539642334 L13.413936614990234 13.878551483154297 C13.399819374084473 13.853028297424316 13.391701698303223 13.818552017211914 13.403136253356934 13.791719436645508 L13.403136253356934 13.791719436645508 C15.667198181152344 12.312220573425293 18.01232147216797 13.131132125854492 20.431127548217773 13.734695434570312 L21.75542449951172 13.083239555358887 C21.8493709564209 13.06254768371582 21.917856216430664 13.132294654846191 21.888479232788086 13.224287986755371 L21.104183197021484 14.20103931427002 L21.888479232788086 15.175415992736816 C21.916568756103516 15.268180847167969 21.853612899780273 15.345865249633789 21.75542449951172 15.324670791625977 L20.431127548217773 14.673215866088867 C17.758010864257812 15.570149421691895 15.88355827331543 15.539450645446777 13.275480270385742 14.48140811920166 L13.275480270385742 14.48140811920166"></path>
<path fill="none" stroke="black" stroke-width=".3" stroke-opacity="1.0"  filling="0" d="M9.533281326293945 18.291215896606445 L9.533281326293945 18.291215896606445 C8.534048080444336 17.298063278198242 10.52370834350586 17.2946834564209 9.533281326293945 18.291215896606445 L9.533281326293945 18.291215896606445"></path>
<path fill="none" stroke="black" stroke-width=".3" stroke-opacity="1.0"  filling="0" d="M7.8916802406311035 18.529895782470703 L7.8916802406311035 18.529895782470703 C7.886390686035156 18.511276245117188 7.904993534088135 18.49217414855957 7.918680191040039 18.47848892211914 L8.833224296569824 18.47848892211914 C8.872279167175293 18.443124771118164 8.896430015563965 18.366729736328125 8.865840911865234 18.32383155822754 L8.03272819519043 17.92768669128418 C8.020155906677246 17.90243148803711 8.012726783752441 17.869077682495117 8.024519920349121 17.843448638916016 L8.024519920349121 17.843448638916016 C10.28682804107666 16.36341667175293 12.632076263427734 17.18146514892578 15.049921035766602 17.783615112304688 L16.377023696899414 17.132591247558594 C16.47123146057129 17.10703468322754 16.53235626220703 17.192123413085938 16.509862899780273 17.278823852539062 L15.722760200500488 18.25557518005371 L16.509862899780273 19.229734420776367 C16.531307220458984 19.316884994506836 16.47224998474121 19.39891815185547 16.377023696899414 19.37359046936035 L15.049921035766602 18.727752685546875 C12.374391555786133 19.623979568481445 10.50064468383789 19.591249465942383 7.8916802406311035 18.529895782470703 L7.8916802406311035 18.529895782470703"></path></svg>