<svg xmlns="http://www.w3.org/2000/svg" viewBox="0.0 0.0 24.0 24.0" height="200px" width="200px"><path fill="none" stroke="black" stroke-width=".3" stroke-opacity="1.0"  filling="0" d="M11.458271980285645 206.91018676757812 L11.458271980285645 206.91018676757812 C11.158391952514648 207.20660400390625 10.858511924743652 207.50303649902344 10.558631896972656 207.79945373535156 L9.92467212677002 209.53761291503906 C9.123503684997559 208.81680297851562 8.875275611877441 209.858154296875 8.810112953186035 210.5089569091797 L8.850936889648438 212.48190307617188 L7.521888732910156 216.14202880859375 C6.357100486755371 214.0379180908203 6.16710901260376 212.01846313476562 6.855358123779297 210.38076782226562 C7.543607234954834 208.7430877685547 9.11009693145752 207.4871826171875 11.458271980285645 206.91018676757812 L11.458271980285645 206.91018676757812"></path>
<path fill="none" stroke="black" stroke-width=".3" stroke-opacity="1.0"  filling="0" d="M12.732024192810059 206.9993896484375 L12.732024192810059 206.9993896484375 C14.203651428222656 207.25294494628906 14.264701843261719 208.02320861816406 14.521368026733398 209.37106323242188 L12.309528350830078 215.44406127929688 L10.097688674926758 221.5170440673828 L7.885848522186279 227.59002685546875 C6.039156913757324 228.9883575439453 4.874314308166504 228.54429626464844 4.338264465332031 226.30157470703125 L6.82777214050293 219.46194458007812 L9.317279815673828 212.622314453125 L9.28660774230957 210.54696655273438 C9.312614440917969 210.2735595703125 9.304265975952148 209.99293518066406 9.47042465209961 209.75987243652344 L9.47042465209961 209.75987243652344 C9.602343559265137 209.8265838623047 9.746685981750488 210.06968688964844 9.818184852600098 210.16896057128906 L10.063560485839844 210.5880126953125 L10.973352432250977 208.07290649414062 C11.467450141906738 207.59585571289062 12.07087516784668 207.18536376953125 12.732024192810059 206.9993896484375 L12.732024192810059 206.9993896484375"></path>
<path fill="none" stroke="black" stroke-width=".3" stroke-opacity="1.0"  filling="0" d="M14.504735946655273 207.46229553222656 L14.504735946655273 207.46229553222656 C16.59573745727539 208.87265014648438 17.626480102539062 210.78662109375 17.601228713989258 212.68560791015625 C17.57597541809082 214.58457946777344 16.494726181030273 216.46853637695312 14.36174488067627 217.81883239746094 L14.36174488067627 217.81883239746094 C16.644977569580078 218.65194702148438 18.366300582885742 219.87059020996094 19.66320037841797 221.46014404296875 C20.960100173950195 223.0496826171875 21.832576751708984 225.01016235351562 22.41811180114746 227.3269500732422 L15.435263633728027 227.3269500732422 L8.452415466308594 227.3269500732422 L10.62328815460205 221.35289001464844 L12.794160842895508 215.3788299560547 L14.965032577514648 209.40476989746094 C14.919336318969727 208.7409210205078 14.776418685913086 208.06973266601562 14.504735946655273 207.46229553222656 L14.504735946655273 207.46229553222656"></path>
<path fill="none" stroke="black" stroke-width=".3" stroke-opacity="1.0"  filling="0" d="M6.325896263122559 219.41378784179688 L3.8617687225341797 226.19207763671875 C3.9095046520233154 226.57037353515625 3.957240343093872 226.9486541748047 4.004976272583008 227.3269500732422 L1.5821046829223633 227.3269500732422 C2.001483917236328 225.66722106933594 2.538832664489746 224.25149536132812 3.2956361770629883 222.9694366455078 C4.0524396896362305 221.68736267089844 5.028697967529297 220.5389404296875 6.325896263122559 219.41378784179688 L6.325896263122559 219.41378784179688"></path></svg>