<svg xmlns="http://www.w3.org/2000/svg" viewBox="0.0 0.0 24.0 24.0" height="200px" width="200px"><path fill="none" stroke="black" stroke-width=".3" stroke-opacity="1.0"  filling="0" d="M11.8524169921875 10.968878746032715 L19.04262924194336 10.96112060546875 L26.232839584350586 10.953363418579102 L33.42304992675781 10.945605278015137 L33.43039321899414 16.66506004333496 L33.43773651123047 22.3845157623291 L33.4450798034668 28.10396957397461 L33.452423095703125 33.82342529296875 L27.979511260986328 33.82342529296875 L22.5065975189209 33.82342529296875 L17.03368377685547 33.82342529296875 L14.443050384521484 30.880531311035156 L11.8524169921875 27.937637329101562 L11.8524169921875 22.281383514404297 L11.8524169921875 16.625131607055664 L11.8524169921875 10.968878746032715"></path>
<path fill="none" stroke="black" stroke-width=".3" stroke-opacity="1.0"  filling="0" d="M17.22672462463379 12.969833374023438 L22.872230529785156 12.969833374023438 L28.51773452758789 12.969833374023438 L28.51773452758789 15.533476829528809 L22.872230529785156 15.533476829528809 L17.22672462463379 15.533476829528809 L17.22672462463379 12.969833374023438"></path>
<path fill="none" stroke="black" stroke-width=".3" stroke-opacity="1.0"  filling="0" d="M20.826904296875 16.788021087646484 L25.023143768310547 16.774858474731445 L25.025421142578125 20.572315216064453 L25.027700424194336 24.369773864746094 L28.37017059326172 24.371501922607422 L25.64583969116211 28.190771102905273 L22.9215087890625 32.010040283203125 L20.188114166259766 28.163497924804688 L17.45471954345703 24.316957473754883 L20.809301376342773 24.315227508544922 L20.818103790283203 20.551624298095703 L20.826904296875 16.788021087646484"></path></svg>