<svg xmlns="http://www.w3.org/2000/svg" viewBox="0.0 0.0 24.0 24.0" height="200px" width="200px"><path fill="none" stroke="black" stroke-width=".3" stroke-opacity="1.0"  filling="0" d="M15.234383583068848 10.741260528564453 L21.52667999267578 10.741260528564453 C23.35456657409668 11.49617862701416 22.818330764770508 11.996036529541016 21.526897430419922 13.287251472473145 L15.234383583068848 13.287251472473145 L15.234383583068848 10.741260528564453"></path>
<path fill="none" stroke="black" stroke-width=".3" stroke-opacity="1.0"  filling="0" d="M3.4019041061401367 12.570348739624023 L3.4019041061401367 12.570348739624023 C2.6146557331085205 12.03707218170166 1.8740400075912476 11.427494049072266 1.2000007629394531 10.75681209564209 L7.8588480949401855 10.75173568725586 L14.517695426940918 10.746660232543945 L14.517695426940918 13.258739471435547 L14.002752304077148 12.746387481689453 L13.495584487915039 13.258739471435547 L12.985823631286621 12.746387481689453 L12.47606372833252 13.258739471435547 L11.96673583984375 12.746387481689453 L11.459352493286133 13.258739471435547 L10.949808120727539 12.746387481689453 L10.43983268737793 13.258739471435547 L9.93028736114502 12.746387481689453 L9.417718887329102 13.258739471435547 L8.913360595703125 12.746387481689453 L8.403599739074707 13.258739471435547 L7.8912482261657715 12.746387481689453 L7.38148832321167 13.258739471435547 L6.900239944458008 12.728459358215332 L6.369528293609619 13.21208381652832 L5.914416313171387 12.656100273132324 L5.352600574493408 13.111211776733398 L4.933560371398926 12.523907661437988 L4.346257209777832 12.948132514953613 L3.9840240478515625 12.327347755432129 L3.4019041061401367 12.570348739624023"></path></svg>