<svg xmlns="http://www.w3.org/2000/svg" viewBox="0.0 0.0 24.0 24.0" height="200px" width="200px"><path fill="none" stroke="black" stroke-width=".3" stroke-opacity="1.0"  filling="0" d="M21.196800231933594 2.6625003814697266 L21.196800231933594 2.6625003814697266 C21.19809913635254 2.6899003982543945 21.199399948120117 2.7173004150390625 21.200698852539062 2.7447004318237305 L21.123600006103516 6.236100196838379 C20.572980880737305 7.198543548583984 19.94316864013672 8.1167631149292 19.27440071105957 9.001199722290039 L19.244850158691406 15.232649803161621 L19.215299606323242 21.464099884033203 C18.951467514038086 21.753334045410156 18.66718101501465 22.54261589050293 18.37380027770996 22.283401489257812 C18.085214614868164 22.028423309326172 17.828998565673828 21.73900032043457 17.556598663330078 21.466800689697266 L17.55900001525879 14.611199378967285 L17.215801239013672 14.611199378967285 L17.217599868774414 21.464099884033203 C16.953981399536133 21.753334045410156 16.669931411743164 22.54256820678711 16.37670135498047 22.283401489257812 C16.088211059570312 22.028423309326172 15.832100868225098 21.73900032043457 15.559800148010254 21.466800689697266 L15.530099868774414 15.232500076293945 L15.50040054321289 8.998199462890625 C14.831632614135742 8.11379623413086 14.201760292053223 7.195673942565918 13.650898933410645 6.233400344848633 L13.574100494384766 2.741999626159668 C13.575300216674805 2.7146997451782227 13.576499938964844 2.6873998641967773 13.577699661254883 2.660099983215332 L13.574999809265137 2.5904998779296875 C13.837114334106445 2.31124210357666 14.42628002166748 2.295583963394165 14.722800254821777 2.537999153137207 L14.879400253295898 5.8968000411987305 C14.91610050201416 5.9781999588012695 14.952799797058105 6.059599876403809 14.989500045776367 6.140999794006348 L16.33409881591797 7.485899925231934 C16.422199249267578 7.535699844360352 16.510299682617188 7.585500240325928 16.598400115966797 7.635300159454346 L18.183000564575195 7.634699821472168 C18.269001007080078 7.585899829864502 18.35500144958496 7.537100315093994 18.441001892089844 7.488300323486328 L19.785600662231445 6.143700122833252 C19.822200775146484 6.0624003410339355 19.858800888061523 5.981100082397461 19.895401000976562 5.8998003005981445 L20.051401138305664 2.5410003662109375 C20.34821891784668 2.2986364364624023 20.937366485595703 2.314267873764038 21.199798583984375 2.5935001373291016 L21.196800231933594 2.6625003814697266"></path>
<path fill="none" stroke="black" stroke-width=".3" stroke-opacity="1.0"  filling="0" d="M6.898799896240234 4.512599468231201 L6.898799896240234 4.512599468231201 C7.163000106811523 4.943699836730957 7.612417221069336 5.306489944458008 7.691400051116943 5.8059000968933105 C7.988175868988037 7.682417869567871 4.487050533294678 7.679530620574951 4.785599708557129 5.8059000968933105 C4.8652849197387695 5.305812835693359 5.315999984741211 4.9430999755859375 5.581200122833252 4.51170015335083 L5.581200122833252 4.51170015335083 C5.5154924392700195 3.960935115814209 5.7309136390686035 3.411756753921509 5.840400218963623 2.8679990768432617 L5.840400218963623 2.8679990768432617 C5.8993000984191895 2.9230995178222656 5.958199977874756 2.9781999588012695 6.017099857330322 3.0333003997802734 L6.017099857330322 3.0333003997802734 C6.0914998054504395 2.891700029373169 6.165900230407715 2.7500998973846436 6.240300178527832 2.608499526977539 L6.240300178527832 2.608499526977539 C6.275199890136719 2.6733996868133545 6.310100078582764 2.738299608230591 6.34499979019165 2.8031997680664062 L6.34499979019165 2.8031997680664062 C6.443299770355225 2.66629958152771 6.541599750518799 2.5293991565704346 6.639899730682373 2.3924989700317383 L6.639899730682373 2.3924989700317383 C6.746213912963867 3.096466541290283 6.984555244445801 3.805832862854004 6.898799896240234 4.512599468231201 L6.898799896240234 4.512599468231201"></path>
<path fill="none" stroke="black" stroke-width=".3" stroke-opacity="1.0"  filling="0" d="M15.902700424194336 5.876700401306152 L15.902700424194336 5.876700401306152 C16.145599365234375 5.4559855461120605 16.210683822631836 4.857455253601074 16.631399154663086 4.614555358886719 C17.602998733520508 4.053602695465088 18.8174991607666 4.754791736602783 18.8174991607666 5.876700401306152 C18.8174991607666 6.998607635498047 17.60300064086914 7.699799537658691 16.631399154663086 7.138845443725586 C16.210683822631836 6.8959455490112305 16.145599365234375 6.297415256500244 15.902700424194336 5.876700401306152 L15.902700424194336 5.876700401306152"></path>
<path fill="none" stroke="black" stroke-width=".3" stroke-opacity="1.0"  filling="0" d="M7.458899974822998 7.553699970245361 L7.458899974822998 7.553699970245361 C8.084851264953613 7.821424961090088 8.700840950012207 8.258092880249023 9.037199974060059 8.850000381469727 L10.283100128173828 12.944099426269531 C10.157637596130371 13.22608757019043 10.198899269104004 13.690640449523926 9.906712532043457 13.79006290435791 C9.625907897949219 13.885612487792969 9.398237228393555 13.484487533569336 9.143999099731445 13.331700325012207 L8.023200035095215 9.572099685668945 L7.696800231933594 9.572099685668945 L9.639599800109863 16.259700775146484 L7.849800109863281 16.259700775146484 L7.849800109863281 21.474002838134766 C7.626950263977051 21.695627212524414 7.495542049407959 22.13887596130371 7.181250095367432 22.13887596130371 C6.866958141326904 22.13887596130371 6.7355499267578125 21.695627212524414 6.512700080871582 21.474002838134766 L6.512700080871582 16.225200653076172 L5.967299461364746 16.225200653076172 L5.96820068359375 21.466201782226562 C5.744400501251221 21.6903018951416 5.613513469696045 22.138500213623047 5.29680061340332 22.138500213623047 C4.980087757110596 22.138500213623047 4.849200248718262 21.6903018951416 4.625400066375732 21.466201782226562 L4.6250996589660645 16.260000228881836 L2.829599380493164 16.260000228881836 L4.757400035858154 9.572400093078613 L4.455899715423584 9.572400093078613 L3.3347997665405273 13.345200538635254 C3.079362154006958 13.491950035095215 2.8466737270355225 13.882383346557617 2.5684869289398193 13.785449981689453 C2.280231237411499 13.685009002685547 2.320561647415161 13.22754955291748 2.196599006652832 12.948599815368652 L3.440999984741211 8.850000381469727 C3.765167474746704 8.255191802978516 4.382345676422119 7.8179192543029785 5.006100177764893 7.553699970245361 L7.458899974822998 7.553699970245361"></path></svg>