<svg xmlns="http://www.w3.org/2000/svg" viewBox="0.0 0.0 24.0 24.0" height="200px" width="200px"><path fill="none" stroke="black" stroke-width=".3" stroke-opacity="1.0"  filling="0" d="M22.127376556396484 9.372252464294434 L22.127376556396484 9.372252464294434 C22.631000518798828 11.3624849319458 22.724788665771484 13.114593505859375 22.736495971679688 15.17487621307373 L22.706470489501953 15.440988540649414 L20.623367309570312 15.440988540649414 C20.74245834350586 13.722911834716797 19.496145248413086 12.864114761352539 18.250133514404297 12.864234924316406 C17.004121780395508 12.864355087280273 15.75841236114502 13.723393440246582 15.87871265411377 15.440988540649414 L13.441368103027344 15.440988540649414 L14.43604850769043 10.953804016113281 L12.934847831726074 10.953804016113281 L13.801440238952637 7.0632123947143555 L14.11291217803955 7.064940452575684 C15.501380920410156 7.213176727294922 16.82644271850586 7.46169376373291 18.123632431030273 7.814141750335693 C19.420820236206055 8.166589736938477 20.69013214111328 8.622966766357422 21.96710205078125 9.18692398071289 L22.127376556396484 9.372252464294434"></path>
<path fill="none" stroke="black" stroke-width=".3" stroke-opacity="1.0"  filling="0" d="M18.251256942749023 13.94518756866455 L18.251256942749023 13.94518756866455 C18.65006446838379 14.344067573547363 19.44767951965332 14.577777862548828 19.44767951965332 15.141828536987305 C19.44767951965332 15.274493217468262 17.054615020751953 18.19976234436035 17.054615020751953 15.141828536987305 C17.054615020751953 14.577726364135742 17.85237693786621 14.344067573547363 18.251256942749023 13.94518756866455 L18.251256942749023 13.94518756866455"></path>
<path fill="none" stroke="black" stroke-width=".3" stroke-opacity="1.0"  filling="0" d="M22.167551040649414 14.842884063720703 L21.22730255126953 14.842884063720703 C20.607410430908203 13.126420021057129 19.4293212890625 12.268254280090332 18.251209259033203 12.26828670501709 C17.073101043701172 12.268320083618164 15.89496898651123 13.12655258178711 15.274991989135742 14.842884063720703 L14.19823169708252 14.842884063720703 L15.192912101745605 10.355700492858887 L13.695599555969238 10.355700492858887 L14.27059268951416 7.668660640716553 C15.562599182128906 7.84804630279541 16.79075813293457 8.099477767944336 17.996864318847656 8.430906295776367 C19.202972412109375 8.762334823608398 20.38702964782715 9.173762321472168 21.590831756591797 9.673140525817871 L21.590831756591797 9.673140525817871 C22.00365447998047 11.43103313446045 22.138809204101562 13.032570838928223 22.167551040649414 14.842884063720703 L22.167551040649414 14.842884063720703"></path>
<path fill="none" stroke="black" stroke-width=".3" stroke-opacity="1.0"  filling="0" d="M4.490544319152832 15.141828536987305 L4.490544319152832 15.141828536987305 C4.789704322814941 14.62366771697998 4.869863986968994 13.886507034301758 5.38802433013916 13.587347030639648 C6.584663391113281 12.896467208862305 8.080464363098145 13.7600679397583 8.080464363098145 15.141828536987305 C8.080464363098145 16.52358627319336 6.584664821624756 17.387191772460938 5.38802433013916 16.69631004333496 C4.869863986968994 16.39715003967285 4.789704322814941 15.659989356994629 4.490544319152832 15.141828536987305 L4.490544319152832 15.141828536987305"></path>
<path fill="none" stroke="black" stroke-width=".3" stroke-opacity="1.0"  filling="0" d="M12.825984001159668 15.440988540649414 L12.825984001159668 15.440988540649414 C11.436670303344727 15.440988540649414 10.047361373901367 15.440988540649414 8.658048629760742 15.440988540649414 L8.658048629760742 15.440988540649414 C8.777974128723145 13.710794448852539 7.531791687011719 12.845712661743164 6.285610198974609 12.845721244812012 C5.0394287109375 12.845728874206543 3.793247938156128 13.710826873779297 3.9131765365600586 15.440988540649414 L3.9131765365600586 15.440988540649414 C3.1318421363830566 15.440988540649414 2.1264376640319824 15.843894958496094 1.5739507675170898 15.29140853881836 C0.6344543099403381 14.351912498474121 1.237402319908142 12.560938835144043 2.097479820251465 11.85128402709961 C3.2949774265289307 10.863221168518066 5.208414077758789 10.431022644042969 6.584664344787598 9.757379531860352 C8.924504280090332 8.612081527709961 10.56175422668457 7.560324668884277 13.19210433959961 7.0632123947143555 L12.194400787353516 11.5521240234375 L13.690199851989746 11.5521240234375 L12.825984001159668 15.440988540649414"></path>
<path fill="none" stroke="black" stroke-width=".3" stroke-opacity="1.0"  filling="0" d="M18.251256942749023 16.936786651611328 L18.251256942749023 16.936786651611328 C17.82838249206543 16.761341094970703 17.306365966796875 16.734180450439453 16.982633590698242 16.410449981689453 C15.87146282196045 15.29928207397461 16.67898178100586 13.346868515014648 18.251256942749023 13.346868515014648 C19.823530197143555 13.346868515014648 20.63104820251465 15.299281120300293 19.519878387451172 16.410449981689453 C19.196147918701172 16.734180450439453 18.674131393432617 16.761341094970703 18.251256942749023 16.936786651611328 L18.251256942749023 16.936786651611328"></path></svg>