<svg xmlns="http://www.w3.org/2000/svg" viewBox="0.0 0.0 24.0 24.0" height="200px" width="200px"><path fill="none" stroke="black" stroke-width=".3" stroke-opacity="1.0"  filling="0" d="M12.165780067443848 7.558176517486572 L12.165780067443848 7.558176517486572 C11.65688419342041 7.262328624725342 11.147988319396973 6.966480255126953 10.639092445373535 6.670632362365723 L10.639092445373535 6.670632362365723 C11.212827682495117 5.768311500549316 11.762168884277344 4.850008487701416 12.360298156738281 3.963670015335083 C12.755239486694336 3.3784265518188477 13.174107551574707 2.8085246086120605 13.616625785827637 2.258373737335205 C14.746469497680664 0.8537213802337646 15.151455879211426 1.0903018712997437 14.500253677368164 2.7698607444763184 C13.787057876586914 4.609310150146484 13.121807098388672 5.725829601287842 12.165780067443848 7.558176517486572 L12.165780067443848 7.558176517486572"></path>
<path fill="none" stroke="black" stroke-width=".3" stroke-opacity="1.0"  filling="0" d="M8.828147888183594 8.462135314941406 L8.828147888183594 8.462135314941406 C8.906196594238281 8.756327629089355 8.984244346618652 9.050520896911621 9.06229305267334 9.34471321105957 L9.06229305267334 9.34471321105957 C7.995575904846191 9.298937797546387 6.927212238311768 9.282249450683594 5.862141132354736 9.20738697052002 C5.158840179443359 9.157952308654785 4.456864833831787 9.080148696899414 3.7601678371429443 8.972031593322754 C1.9824976921081543 8.696162223815918 1.982693076133728 8.227993965148926 3.760249137878418 7.9521331787109375 C5.705492973327637 7.650249004364014 7.001971244812012 7.667820453643799 9.06229305267334 7.579344272613525 L9.06229305267334 7.579344272613525 C8.984244346618652 7.873608112335205 8.906196594238281 8.167871475219727 8.828147888183594 8.462135314941406 L8.828147888183594 8.462135314941406"></path>
<path fill="none" stroke="black" stroke-width=".3" stroke-opacity="1.0"  filling="0" d="M9.724332809448242 8.462118148803711 L9.724332809448242 8.462118148803711 C10.059098243713379 7.653330326080322 11.516700744628906 7.034569263458252 11.516700744628906 8.462117195129395 C11.516700744628906 9.889687538146973 10.059111595153809 9.270971298217773 9.724332809448242 8.462152481079102 L9.724332809448242 8.462152481079102"></path>
<path fill="none" stroke="black" stroke-width=".3" stroke-opacity="1.0"  filling="0" d="M12.167508125305176 9.363503456115723 L12.167508125305176 9.363503456115723 C13.123200416564941 11.195053100585938 13.787787437438965 12.31026554107666 14.500685691833496 14.148821830749512 C15.151408195495605 15.827028274536133 14.747172355651855 16.06410789489746 13.617759704589844 14.660417556762695 C13.1756010055542 14.110880851745605 12.757078170776367 13.541601181030273 12.362432479858398 12.957008361816406 C11.764782905578613 12.071703910827637 11.215843200683594 11.154474258422852 10.642548561096191 10.253207206726074 L10.642548561096191 10.253207206726074 C11.15086841583252 9.956639289855957 11.659188270568848 9.66007137298584 12.167508125305176 9.363503456115723 L12.167508125305176 9.363503456115723"></path>
<path fill="none" stroke="black" stroke-width=".3" stroke-opacity="1.0"  filling="0" d="M9.724332809448242 10.46402359008789 L9.724332809448242 10.46402359008789 C10.309431076049805 11.420679092407227 10.904390335083008 12.37150764465332 11.516484260559082 13.311119079589844 L11.516484260559082 18.055559158325195 L11.516484260559082 22.799999237060547 L9.724332809448242 22.799999237060547 L9.724332809448242 16.63201141357422 L9.724332809448242 10.46402359008789"></path>
<path fill="none" stroke="black" stroke-width=".3" stroke-opacity="1.0"  filling="0" d="M2.7630844116210938 13.483488082885742 L2.7630844116210938 13.483488082885742 C2.4924445152282715 12.94943904876709 0.002569437026977539 7.628597259521484 2.3992366790771484 11.014904022216797 C2.8459277153015137 11.64604377746582 3.244586229324341 12.309842109680176 3.6672611236572266 12.957311630249023 L3.6672611236572266 12.957311630249023 C3.3658688068389893 13.13270378112793 3.064476728439331 13.308095932006836 2.7630844116210938 13.483488082885742 L2.7630844116210938 13.483488082885742"></path>
<path fill="none" stroke="black" stroke-width=".3" stroke-opacity="1.0"  filling="0" d="M16.802003860473633 13.483488082885742 L16.802003860473633 13.483488082885742 C16.53139305114746 12.949471473693848 14.041430473327637 7.628730773925781 16.438058853149414 11.014904022216797 C16.884767532348633 11.646053314208984 17.28347396850586 12.309842109680176 17.706180572509766 12.957311630249023 L17.706180572509766 12.957311630249023 C17.404788970947266 13.13270378112793 17.103395462036133 13.308095932006836 16.802003860473633 13.483488082885742 L16.802003860473633 13.483488082885742"></path>
<path fill="none" stroke="black" stroke-width=".3" stroke-opacity="1.0"  filling="0" d="M17.199878692626953 14.14272403717041 L17.199878692626953 14.14272403717041 C17.423017501831055 13.601960182189941 18.394786834716797 13.190340995788574 18.394786834716797 14.14272403717041 C18.394786834716797 15.09510326385498 17.42301368713379 14.68346881866455 17.199878692626953 14.142714500427246 L17.199878692626953 14.142714500427246"></path>
<path fill="none" stroke="black" stroke-width=".3" stroke-opacity="1.0"  filling="0" d="M3.160956382751465 14.142719268798828 L3.160956382751465 14.142719268798828 C4.426156997680664 11.951326370239258 4.426156997680664 16.3341121673584 3.160956382751465 14.142719268798828 L3.160956382751465 14.142719268798828"></path>
<path fill="none" stroke="black" stroke-width=".3" stroke-opacity="1.0"  filling="0" d="M4.953108310699463 14.142719268798828 L4.953108310699463 14.142719268798828 C4.911564350128174 13.96905517578125 4.870020389556885 13.795392036437988 4.828476428985596 13.62172794342041 L4.828476428985596 13.62172794342041 C5.597495079040527 13.664122581481934 6.36865234375 13.677618026733398 7.135531902313232 13.74891185760498 C11.250158309936523 14.13143539428711 5.42385721206665 14.634688377380371 4.826748371124268 14.66759967803955 L4.826748371124268 14.66759967803955 C4.868868350982666 14.492639541625977 4.9109883308410645 14.317679405212402 4.953108310699463 14.142719268798828 L4.953108310699463 14.142719268798828"></path>
<path fill="none" stroke="black" stroke-width=".3" stroke-opacity="1.0"  filling="0" d="M18.99224281311035 14.142719268798828 L18.99224281311035 14.142719268798828 C18.95077133178711 13.96905517578125 18.909299850463867 13.795392036437988 18.867828369140625 13.62172794342041 L18.867828369140625 13.62172794342041 C19.636884689331055 13.664122581481934 20.408079147338867 13.677620887756348 21.17499542236328 13.74891185760498 C25.289907455444336 14.131427764892578 19.464385986328125 14.634658813476562 18.86674690246582 14.66759967803955 L18.86674690246582 14.66759967803955 C18.908578872680664 14.492639541625977 18.950410842895508 14.317679405212402 18.99224281311035 14.142719268798828 L18.99224281311035 14.142719268798828"></path>
<path fill="none" stroke="black" stroke-width=".3" stroke-opacity="1.0"  filling="0" d="M2.7626523971557617 14.802167892456055 L2.7626523971557617 14.802167892456055 C3.0641887187957764 14.977704048156738 3.365724802017212 15.153240203857422 3.6672611236572266 15.328776359558105 L3.6672611236572266 15.328776359558105 C3.244586229324341 15.976106643676758 2.8459208011627197 16.6397647857666 2.3992366790771484 17.270767211914062 C0.0025625228881835938 20.656394958496094 2.4922657012939453 15.335855484008789 2.7626523971557617 14.802167892456055 L2.7626523971557617 14.802167892456055"></path>
<path fill="none" stroke="black" stroke-width=".3" stroke-opacity="1.0"  filling="0" d="M16.801788330078125 14.802167892456055 L16.801788330078125 14.802167892456055 C17.10332489013672 14.977704048156738 17.40485954284668 15.153240203857422 17.706396102905273 15.328776359558105 L17.706396102905273 15.328776359558105 C17.283737182617188 15.976262092590332 16.88511085510254 16.640087127685547 16.438419342041016 17.27123260498047 C14.041741371154785 20.6575870513916 16.531187057495117 15.336236953735352 16.801788330078125 14.802167892456055 L16.801788330078125 14.802167892456055"></path>
<path fill="none" stroke="black" stroke-width=".3" stroke-opacity="1.0"  filling="0" d="M4.355652332305908 15.345407485961914 L4.350685119628906 22.799999237060547 L3.1559877395629883 22.799999237060547 L3.160956382751465 17.233680725097656 C3.57053542137146 16.61157989501953 3.9666855335235596 15.980599403381348 4.355652332305908 15.345407485961914 L4.355652332305908 15.345407485961914"></path>
<path fill="none" stroke="black" stroke-width=".3" stroke-opacity="1.0"  filling="0" d="M18.394786834716797 15.345407485961914 L18.389820098876953 22.799999237060547 L17.19512367248535 22.799999237060547 L17.200092315673828 17.233680725097656 C17.609628677368164 16.611553192138672 18.00578498840332 15.98057746887207 18.394786834716797 15.345407485961914 L18.394786834716797 15.345407485961914"></path></svg>