<svg xmlns="http://www.w3.org/2000/svg" viewBox="0.0 0.0 24.0 24.0" height="200px" width="200px"><path fill="none" stroke="black" stroke-width=".3" stroke-opacity="1.0"  filling="0" d="M17.93114471435547 11.650511741638184 L17.93114471435547 11.650511741638184 C17.703290939331055 11.974916458129883 17.582242965698242 12.411218643188477 17.24758529663086 12.623725891113281 C16.098636627197266 13.35330581665039 14.601055145263672 12.301916122436523 14.897640228271484 10.973352432250977 C15.194185256958008 9.644967079162598 16.99691390991211 9.329706192016602 17.726484298706055 10.47884750366211 C17.93898582458496 10.813556671142578 17.862924575805664 11.259957313537598 17.93114471435547 11.650511741638184 L17.93114471435547 11.650511741638184"></path>
<path fill="none" stroke="black" stroke-width=".3" stroke-opacity="1.0"  filling="0" d="M11.756999969482422 12.468719482421875 L10.57979965209961 13.577014923095703 L11.302103996276855 15.02400016784668 L9.712127685546875 15.319704055786133 L9.537816047668457 16.927391052246094 L8.040504455566406 16.316543579101562 L7.024655818939209 17.57495880126953 L6.095208644866943 16.25152587890625 L4.56052827835083 16.760639190673828 L4.493784427642822 15.14495849609375 L2.9275684356689453 14.743846893310547 L3.7449121475219727 13.34870433807373 L2.644392967224121 12.164159774780273 L4.086191654205322 11.432353019714355 L3.8006410598754883 9.84064769744873 L5.4094085693359375 10.00480842590332 L6.029760360717773 8.511384010314941 L7.294440269470215 9.51923942565918 L8.62348747253418 8.59821605682373 L9.142536163330078 10.129655838012695 L10.758431434631348 10.073495864868164 L10.367039680480957 11.642304420471191 L11.756999969482422 12.468719482421875"></path>
<path fill="none" stroke="black" stroke-width=".3" stroke-opacity="1.0"  filling="0" d="M20.93008804321289 13.55087947845459 L19.398216247558594 13.632311820983887 L19.74532699584961 15.167424201965332 C19.52227210998535 15.340007781982422 19.29921531677246 15.512591361999512 19.076160430908203 15.685174942016602 L17.696352005004883 14.904119491577148 L17.1420955657959 16.444849014282227 C16.87470817565918 16.475486755371094 16.6090087890625 16.536001205444336 16.339872360229492 16.536001205444336 L15.584952354431152 15.057910919189453 L14.268216133117676 16.03250503540039 C14.039615631103516 15.906792640686035 13.811016082763672 15.78108024597168 13.582415580749512 15.655367851257324 L13.732751846313477 14.004912376403809 L12.083808898925781 14.13688850402832 C11.960761070251465 13.905407905578613 11.837712287902832 13.673928260803223 11.714664459228516 13.442447662353516 L12.728352546691895 12.1414794921875 L11.297351837158203 11.375975608825684 C11.321831703186035 11.105615615844727 11.346312522888184 10.83525562286377 11.370792388916016 10.564895629882812 L12.890999794006348 10.031375885009766 L12.125280380249023 8.657184600830078 C12.301824569702148 8.43268871307373 12.478367805480957 8.208192825317383 12.654911994934082 7.983696460723877 L14.168424606323242 8.343984603881836 L14.263895988464355 6.827232360839844 C14.546928405761719 6.728520393371582 14.829959869384766 6.629807949066162 15.112992286682129 6.5310959815979 L16.155406951904297 7.615200519561768 L17.0306396484375 6.425256252288818 C17.332752227783203 6.495096206665039 17.634862899780273 6.56493616104126 17.936975479125977 6.6347761154174805 L18.22123146057129 8.076359748840332 L19.58505630493164 7.554287910461426 C19.805736541748047 7.7766242027282715 20.026416778564453 7.998960018157959 20.24709701538086 8.221296310424805 L19.709688186645508 9.58080005645752 L21.155160903930664 9.882552146911621 C21.222047805786133 10.18293571472168 21.288936614990234 10.483320236206055 21.355823516845703 10.783703804016113 L20.14838409423828 11.651592254638672 L21.230976104736328 12.716039657592773 C21.130680084228516 12.994319915771484 21.030384063720703 13.272599220275879 20.93008804321289 13.55087947845459 L20.93008804321289 13.55087947845459"></path>
<path fill="none" stroke="black" stroke-width=".3" stroke-opacity="1.0"  filling="0" d="M7.200695991516113 15.121848106384277 L7.200695991516113 15.121848106384277 C6.7139129638671875 14.920266151428223 6.112900733947754 14.889656066894531 5.740346908569336 14.517102241516113 C4.461234092712402 13.23798942565918 5.391784191131592 10.991496086120605 7.200695991516113 10.991496086120605 C9.009607315063477 10.991496086120605 9.940157890319824 13.23798942565918 8.66104507446289 14.517102241516113 C8.288491249084473 14.889656066894531 7.687479019165039 14.920266151428223 7.200695991516113 15.121848106384277 L7.200695991516113 15.121848106384277"></path></svg>