<svg xmlns="http://www.w3.org/2000/svg" viewBox="0.0 0.0 24.0 24.0" height="200px" width="200px"><path fill="none" stroke="black" stroke-width=".3" stroke-opacity="1.0"  filling="0" d="M12.899855613708496 2.0998573303222656 L20.100433349609375 2.0998573303222656 C20.40045738220215 2.39988112449646 20.70047950744629 2.699904680252075 21.000503540039062 2.9999284744262695 L21.000503540039062 8.400144577026367 C20.70047950744629 8.70016860961914 20.40045738220215 9.000192642211914 20.100433349609375 9.300216674804688 L16.049999237060547 9.300216674804688 L16.049999237060547 10.710047721862793 L13.936223983764648 9.300216674804688 L12.899855613708496 9.300216674804688 C12.599831581115723 9.000192642211914 12.29980754852295 8.70016860961914 11.999783515930176 8.400144577026367 L11.999783515930176 2.9999284744262695 C12.29980754852295 2.699904680252075 12.599831581115723 2.39988112449646 12.899855613708496 2.0998573303222656 L12.899855613708496 2.0998573303222656"></path>
<path fill="none" stroke="black" stroke-width=".3" stroke-opacity="1.0"  filling="0" d="M16.049999237060547 4.34992790222168 L16.049999237060547 4.34992790222168 C16.051366806030273 4.199952125549316 16.052736282348633 4.049976348876953 16.05410385131836 3.90000057220459 L16.946184158325195 3.90000057220459 C16.947551727294922 4.049976348876953 16.94892120361328 4.199952125549316 16.950288772583008 4.34992790222168 L16.049999237060547 4.34992790222168"></path>
<path fill="none" stroke="black" stroke-width=".3" stroke-opacity="1.0"  filling="0" d="M19.200359344482422 4.34992790222168 L19.200359344482422 4.34992790222168 C19.35040855407715 4.499904155731201 19.500455856323242 4.649880409240723 19.65050506591797 4.799856662750244 L19.65050506591797 4.799856662750244 C19.65050506591797 5.987442970275879 20.085182189941406 7.515532493591309 19.200359344482422 8.399928092956543 L19.200359344482422 8.399928092956543 C17.60504913330078 8.399928092956543 14.502997398376465 9.102998733520508 13.350000381469727 7.950000286102295 L13.350000381469727 7.950000286102295 C13.350000381469727 6.7625322341918945 12.915445327758789 5.2344136238098145 13.799927711486816 4.34992790222168 L15.149928092956543 4.34992790222168 C15.449952125549316 3.899928092956543 15.749975204467773 3.4499282836914062 16.049999237060547 2.9999284744262695 L16.950071334838867 2.9999284744262695 C17.250167846679688 3.4499282836914062 17.550264358520508 3.899928092956543 17.850360870361328 4.34992790222168 L19.200359344482422 4.34992790222168"></path>
<path fill="none" stroke="black" stroke-width=".3" stroke-opacity="1.0"  filling="0" d="M7.949568271636963 8.419584274291992 L7.949568271636963 8.419584274291992 C7.7995924949646 8.269608497619629 7.649616241455078 8.11963176727295 7.499640464782715 7.969655990600586 L7.499640464782715 7.050144195556641 C7.949640274047852 6.600143909454346 8.849639892578125 6.336540222167969 8.849639892578125 5.700144290924072 C8.849639892578125 3.167630672454834 6.8245673179626465 6.15007209777832 6.5995683670043945 6.15007209777832 C6.0249786376953125 6.15007209777832 6.271193981170654 4.834362030029297 6.677490234375 4.428065776824951 C7.854063034057617 3.251492500305176 9.64840030670166 4.178118705749512 9.749711990356445 5.700144290924072 C9.828346252441406 6.881486892700195 9.196745872497559 6.970095634460449 8.399711608886719 7.454712390899658 L8.399711608886719 7.969871997833252 C8.249664306640625 8.119775772094727 8.099616050720215 8.26968002319336 7.949568271636963 8.419584274291992 L7.949568271636963 8.419584274291992"></path>
<path fill="none" stroke="black" stroke-width=".3" stroke-opacity="1.0"  filling="0" d="M7.499856948852539 9.300217628479004 L7.499856948852539 9.300217628479004 C8.320711135864258 7.311278343200684 8.320746421813965 11.289148330688477 7.499856948852539 9.300223350524902 L7.499856948852539 9.300223350524902"></path>
<path fill="none" stroke="black" stroke-width=".3" stroke-opacity="1.0"  filling="0" d="M12.899855613708496 11.100359916687012 L13.302480697631836 11.100359916687012 C12.868247985839844 11.250335693359375 12.434016227722168 11.400311470031738 11.999783515930176 11.550287246704102 L8.399496078491211 13.741607666015625 L8.399496078491211 11.550287246704102 L5.699496746063232 11.550287246704102 C5.2565436363220215 11.39334487915039 4.7029314041137695 11.411754608154297 4.3706374168396 11.079461097717285 C4.038270473480225 10.74709415435791 4.056591510772705 10.19339370727539 3.899568557739258 9.750359535217285 L3.899568557739258 3.90000057220459 C4.056564807891846 3.457038640975952 4.038264274597168 2.903447151184082 4.370556831359863 2.571115016937256 C4.702882766723633 2.2387495040893555 5.256516933441162 2.2569432258605957 5.699496746063232 2.0998573303222656 L10.333128929138184 2.0998573303222656 C10.2886323928833 2.39988112449646 10.244136810302734 2.699904680252075 10.199640274047852 2.9999284744262695 L5.699496746063232 2.9999284744262695 C5.399472713470459 3.299952507019043 5.099448204040527 3.5999765396118164 4.799424171447754 3.90000057220459 L4.799424171447754 9.750359535217285 C5.099448204040527 10.050312042236328 5.399472713470459 10.350263595581055 5.699496746063232 10.650216102600098 L9.299568176269531 10.650216102600098 L9.299568176269531 12.06004810333252 L11.35135269165039 10.691473007202148 C11.867520332336426 10.827768325805664 12.383687973022461 10.964064598083496 12.899855613708496 11.100359916687012 L12.899855613708496 11.100359916687012"></path>
<path fill="none" stroke="black" stroke-width=".3" stroke-opacity="1.0"  filling="0" d="M16.950071334838867 12.39139175415039 L13.663848876953125 10.200287818908691 L12.90007209777832 10.200287818908691 C12.45709228515625 10.043336868286133 11.903426170349121 10.061768531799316 11.57113265991211 9.729434967041016 C11.238750457763672 9.397012710571289 11.257140159606934 8.843241691589355 11.100144386291504 8.400144577026367 L11.100144386291504 2.9999284744262695 C11.25710391998291 2.557002544403076 11.238763809204102 2.003450393676758 11.571023941040039 1.6711505651474 C11.90331745147705 1.3388174772262573 12.45691204071045 1.3570506572723389 12.899855613708496 1.2000007629394531 L20.100433349609375 1.2000007629394531 C20.543394088745117 1.3570506572723389 21.096973419189453 1.3388454914093018 21.429317474365234 1.6711505651474 C21.761646270751953 2.0034403800964355 21.743488311767578 2.557002544403076 21.90057373046875 2.9999284744262695 L21.90057373046875 8.400144577026367 C21.743488311767578 8.843241691589355 21.76173973083496 9.397011756896973 21.429317474365234 9.729434967041016 C21.097017288208008 10.061736106872559 20.543394088745117 10.043336868286133 20.100433349609375 10.200287818908691 L16.950071334838867 10.200287818908691 L16.950071334838867 12.39139175415039"></path>
<path fill="none" stroke="black" stroke-width=".3" stroke-opacity="1.0"  filling="0" d="M3.899568557739258 15.600567817687988 L3.899568557739258 15.600567817687988 C4.119115829467773 15.069984436035156 4.152280330657959 14.414945602416992 4.558210849761963 14.008816719055176 C5.952601909637451 12.613744735717773 8.399711608886719 13.629404067993164 8.399711608886719 15.600567817687988 C8.399711608886719 17.57170867919922 5.952503204345703 18.587167739868164 4.558210849761963 17.19219398498535 C4.152279853820801 16.78606414794922 4.119115829467773 16.131025314331055 3.899568557739258 15.600441932678223 L3.899568557739258 15.600441932678223"></path>
<path fill="none" stroke="black" stroke-width=".3" stroke-opacity="1.0"  filling="0" d="M15.600289344787598 15.600504875183105 L15.600289344787598 15.600504875183105 C15.855165481567383 14.650473594665527 15.77513599395752 14.200477600097656 16.725324630737305 13.651885986328125 C18.19939422607422 12.800830841064453 20.100433349609375 13.898391723632812 20.100433349609375 15.600504875183105 C20.100433349609375 17.302616119384766 18.19939613342285 18.400178909301758 16.725324630737305 17.549123764038086 C15.775138854980469 17.000534057617188 15.85516357421875 16.5505313873291 15.600289344787598 15.600504875183105 L15.600289344787598 15.600504875183105"></path>
<path fill="none" stroke="black" stroke-width=".3" stroke-opacity="1.0"  filling="0" d="M10.19985580444336 22.799999237060547 L10.19985580444336 22.799999237060547 C9.927020072937012 21.448823928833008 10.038517951965332 20.961585998535156 9.01374626159668 19.936893463134766 C7.573065280914307 18.496322631835938 6.00433874130249 18.420705795288086 4.715855598449707 19.100927352905273 C3.427372455596924 19.78114891052246 2.419132709503174 21.217208862304688 2.0994253158569336 22.799999237060547 L2.0994253158569336 22.799999237060547"></path>
<path fill="none" stroke="black" stroke-width=".3" stroke-opacity="1.0"  filling="0" d="M21.90057373046875 22.799999237060547 L21.90057373046875 22.799999237060547 C21.580890655517578 21.217124938964844 20.57270050048828 19.78112030029297 19.28424072265625 19.100936889648438 C17.99578285217285 18.42075538635254 16.427059173583984 18.496395111083984 14.986308097839355 19.936811447143555 C13.96131420135498 20.961566925048828 14.072866439819336 21.448637008666992 13.799927711486816 22.799999237060547 L13.799927711486816 22.799999237060547"></path></svg>