<svg xmlns="http://www.w3.org/2000/svg" viewBox="0.0 0.0 24.0 24.0" height="200px" width="200px"><path fill="none" stroke="black" stroke-width=".3" stroke-opacity="1.0"  filling="0" d="M4.350036144256592 3.449856758117676 L4.350036144256592 3.449856758117676 C4.854615211486816 2.2334835529327393 7.0500359535217285 1.2996876239776611 7.0500359535217285 3.449856758117676 C7.0500359535217285 5.6000261306762695 4.854615688323975 4.666231155395508 4.350036144256592 3.449856758117676 L4.350036144256592 3.449856758117676"></path>
<path fill="none" stroke="black" stroke-width=".3" stroke-opacity="1.0"  filling="0" d="M20.55003547668457 3.449856758117676 L20.55003547668457 3.449856758117676 C20.228668212890625 4.342362403869629 19.562849044799805 5.164960861206055 18.750106811523438 5.654136657714844 L18.750106811523438 9.518808364868164 L15.60007095336914 11.993412017822266 L12.45003604888916 14.468015670776367 L12.45003604888916 18.34564781188965 C12.878220558166504 18.603273391723633 13.418527603149414 18.73145866394043 13.734588623046875 19.11852264404297 C14.899446487426758 20.545063018798828 13.898099899291992 22.799999237060547 12.000107765197754 22.799999237060547 C10.1022310256958 22.799999237060547 9.100381851196289 20.545177459716797 10.265331268310547 19.11852264404297 C10.581406593322754 18.731441497802734 11.121752738952637 18.603273391723633 11.54996395111084 18.34564781188965 L11.54996395111084 14.468015670776367 L8.399928092956543 11.993412017822266 L5.249892234802246 9.518808364868164 L5.249892234802246 5.654136657714844 C4.8217082023620605 5.396403789520264 4.281435966491699 5.2680439949035645 3.9653403759002686 4.880937576293945 C2.8002407550811768 3.454099178314209 3.802090644836426 1.2000007629394531 5.70003604888916 1.2000007629394531 C7.597906589508057 1.2000007629394531 8.599283218383789 3.4543418884277344 7.434381484985352 4.880937576293945 C7.1182708740234375 5.268061637878418 6.5779595375061035 5.396403789520264 6.1497483253479 5.654136657714844 L6.1497483253479 9.080976486206055 L11.549748420715332 13.323647499084473 L11.549748420715332 9.254207611083984 C11.121537208557129 8.996447563171387 10.5812349319458 8.868062973022461 10.265115737915039 8.480928421020508 C9.100099563598633 7.05419397354126 10.102087020874023 4.799856662750244 11.999892234802246 4.799856662750244 C13.897639274597168 4.799856662750244 14.899770736694336 7.054226875305176 13.734642028808594 8.480928421020508 C13.418465614318848 8.868086814880371 12.878093719482422 8.996447563171387 12.449819564819336 9.254207611083984 L12.449819564819336 13.323647499084473 L17.84981918334961 9.080976486206055 L17.84981918334961 5.654136657714844 C16.873979568481445 5.066758632659912 15.980713844299316 4.8973612785339355 16.04989242553711 3.449856758117676 C16.14177131652832 1.5273537635803223 18.441322326660156 0.4107799530029297 19.8902645111084 1.8595837354660034 C20.296092987060547 2.265373945236206 20.33011245727539 2.9197657108306885 20.55003547668457 3.449856758117676 L20.55003547668457 3.449856758117676"></path>
<path fill="none" stroke="black" stroke-width=".3" stroke-opacity="1.0"  filling="0" d="M18.299964904785156 4.799856662750244 L18.299964904785156 4.799856662750244 C17.08367156982422 4.295251369476318 16.149658203125 2.0998573303222656 18.299964904785156 2.0998573303222656 C20.450210571289062 2.0998573303222656 19.51625633239746 4.295250415802002 18.299964904785156 4.799856662750244 L18.299964904785156 4.799856662750244"></path></svg>