<svg xmlns="http://www.w3.org/2000/svg" viewBox="0.0 0.0 24.0 24.0" height="200px" width="200px"><path fill="none" stroke="black" stroke-width=".3" stroke-opacity="1.0"  filling="0" d="M2.4121923446655273 3.4842004776000977 L3.181584358215332 2.457551956176758 C3.3872880935668945 2.733527898788452 3.592991828918457 3.0095036029815674 3.7986955642700195 3.2854795455932617 L3.0163440704345703 4.328760623931885 C2.814960241317749 4.047240734100342 2.6135761737823486 3.7657206058502197 2.4121923446655273 3.4842004776000977 L2.4121923446655273 3.4842004776000977"></path>
<path fill="none" stroke="black" stroke-width=".3" stroke-opacity="1.0"  filling="0" d="M4.484280586242676 5.521512031555176 L4.484280586242676 5.521512031555176 C4.210176467895508 5.336976051330566 3.93607234954834 5.152440071105957 3.661968231201172 4.967904090881348 L4.438056468963623 3.9326171875 C4.706112384796143 4.125360488891602 4.974168300628662 4.318104267120361 5.242224216461182 4.510847568511963 L4.484280586242676 5.521512031555176"></path>
<path fill="none" stroke="black" stroke-width=".3" stroke-opacity="1.0"  filling="0" d="M10.875072479248047 5.699928283691406 L10.875072479248047 5.699928283691406 C11.050968170166016 5.275902271270752 11.078154563903809 4.752455711364746 11.40276050567627 4.427850246429443 C12.51710319519043 3.3135080337524414 14.474711418151855 4.123246192932129 14.474711418151855 5.699928283691406 C14.474711418151855 7.276365280151367 12.51728343963623 8.086771965026855 11.402841567993164 6.972330093383789 C11.078158378601074 6.647646903991699 11.050995826721191 6.1240620613098145 10.875072479248047 5.699928283691406 L10.875072479248047 5.699928283691406"></path>
<path fill="none" stroke="black" stroke-width=".3" stroke-opacity="1.0"  filling="0" d="M13.575287818908691 5.699928283691406 L13.575287818908691 5.699928283691406 C13.275263786315918 5.99995231628418 13.099514961242676 6.600000381469727 12.675216674804688 6.600000381469727 C11.475120544433594 6.600000381469727 11.475120544433594 4.799856662750244 12.675216674804688 4.799856662750244 C13.09951400756836 4.799856662750244 13.275263786315918 5.399904251098633 13.575287818908691 5.699928283691406 L13.575287818908691 5.699928283691406"></path>
<path fill="none" stroke="black" stroke-width=".3" stroke-opacity="1.0"  filling="0" d="M5.346768379211426 5.871216297149658 L6.079872131347656 4.893167972564697 C6.5899200439453125 4.968768119812012 7.099968433380127 5.044368267059326 7.610016345977783 5.119968414306641 L7.610016345977783 5.119968414306641 C7.409064292907715 5.452752590179443 7.2081122398376465 5.785536289215088 7.007160186767578 6.118320465087891 L7.007160186767578 6.118320465087891 C6.453696250915527 6.035952568054199 5.900232315063477 5.95358419418335 5.346768379211426 5.871216297149658 L5.346768379211426 5.871216297149658"></path>
<path fill="none" stroke="black" stroke-width=".3" stroke-opacity="1.0"  filling="0" d="M9.52507209777832 7.950000286102295 L9.52507209777832 7.950000286102295 C9.825096130371094 8.24995231628418 10.42514419555664 8.42560863494873 10.42514419555664 8.849855422973633 C10.42514419555664 10.049951553344727 8.625 10.049951553344727 8.625 8.849855422973633 C8.625 8.42560863494873 9.225048065185547 8.24995231628418 9.52507209777832 7.950000286102295 L9.52507209777832 7.950000286102295"></path>
<path fill="none" stroke="black" stroke-width=".3" stroke-opacity="1.0"  filling="0" d="M15.824928283691406 7.950000286102295 L15.824928283691406 7.950000286102295 C16.12495231628418 8.24995231628418 16.725000381469727 8.42560863494873 16.725000381469727 8.849855422973633 C16.725000381469727 8.913711547851562 14.925071716308594 11.186056137084961 14.925071716308594 8.849855422973633 C14.925071716308594 8.4256591796875 15.524975776672363 8.24995231628418 15.824928283691406 7.950000286102295 L15.824928283691406 7.950000286102295"></path>
<path fill="none" stroke="black" stroke-width=".3" stroke-opacity="1.0"  filling="0" d="M7.275000095367432 8.849855422973633 L7.275000095367432 8.849855422973633 C7.690619468688965 6.523102760314941 8.523862838745117 4.532633304595947 10.974539756774902 3.7271738052368164 C12.630796432495117 3.182814836502075 14.589298248291016 3.614830255508423 16.039234161376953 4.6635308265686035 C17.48917007446289 5.712231636047363 18.430540084838867 7.377617835998535 18.052534103393555 9.300000190734863 C17.72746467590332 10.953169822692871 17.173091888427734 12.312507629394531 15.722814559936523 13.304718017578125 C13.89588737487793 14.554615020751953 11.837579727172852 14.485740661621094 10.20918083190918 13.58197021484375 C8.580782890319824 12.678201675415039 7.382292747497559 10.939537048339844 7.275000095367432 8.849855422973633 L7.275000095367432 8.849855422973633"></path>
<path fill="none" stroke="black" stroke-width=".3" stroke-opacity="1.0"  filling="0" d="M11.775144577026367 8.849848747253418 L11.775144577026367 8.849848747253418 C12.111299514770508 8.036747932434082 13.575209617614746 7.415660858154297 13.575288772583008 8.849748611450195 C13.57536792755127 10.28389835357666 12.111432075500488 9.663130760192871 11.775144577026367 8.84996223449707 L11.775144577026367 8.84996223449707"></path>
<path fill="none" stroke="black" stroke-width=".3" stroke-opacity="1.0"  filling="0" d="M18.932950973510742 9.554880142211914 L22.574928283691406 15.47241497039795 L22.574928283691406 22.799999237060547 L15.974976539611816 22.799999237060547 L9.375024795532227 22.799999237060547 L2.7750720977783203 22.799999237060547 L2.7750720977783203 15.459455490112305 L6.497616291046143 10.082136154174805 C6.396017551422119 9.059874534606934 6.4998369216918945 8.020029067993164 6.6524882316589355 7.004136562347412 L6.6524882316589355 7.004136562347412 C4.813780307769775 6.737010955810547 1.339476466178894 5.60064697265625 1.5151443481445312 3.1800718307495117 L2.865144729614258 1.3801441192626953 C3.949310302734375 0.887286901473999 4.269898891448975 2.5438790321350098 4.963888168334961 3.205725908279419 C5.729548454284668 3.9359242916107178 6.596665859222412 4.21196985244751 7.6161112785339355 4.210726261138916 C8.992377281188965 4.209047794342041 9.858094215393066 3.047684907913208 11.184032440185547 2.7286648750305176 C13.358447074890137 2.2055017948150635 15.359275817871094 2.8475096225738525 16.784700393676758 4.152581214904785 C18.210124969482422 5.457653045654297 19.060148239135742 7.425787925720215 18.932950973510742 9.554880142211914 L18.932950973510742 9.554880142211914"></path>
<path fill="none" stroke="black" stroke-width=".3" stroke-opacity="1.0"  filling="0" d="M9.52507209777832 10.649999618530273 L9.52507209777832 10.649999618530273 C9.100992202758789 10.474148750305176 8.577441215515137 10.447094917297363 8.252832412719727 10.12244701385498 C7.138622283935547 9.008102416992188 7.94831657409668 7.049928665161133 9.52507209777832 7.049928665161133 C11.101726531982422 7.049928665161133 11.911598205566406 9.00810718536377 10.797392845153809 10.12244701385498 C10.472765922546387 10.447113037109375 9.949178695678711 10.474148750305176 9.52507209777832 10.649999618530273 L9.52507209777832 10.649999618530273"></path>
<path fill="none" stroke="black" stroke-width=".3" stroke-opacity="1.0"  filling="0" d="M15.824928283691406 10.649999618530273 L15.824928283691406 10.649999618530273 C15.400938034057617 10.474148750305176 14.877488136291504 10.44705581665039 14.552957534790039 10.12244701385498 C13.439032554626465 9.008255004882812 14.24809455871582 7.049928665161133 15.824928283691406 7.049928665161133 C17.40155029296875 7.049928665161133 18.21204376220703 9.00792121887207 17.097518920898438 10.12244701385498 C16.77281379699707 10.447152137756348 16.24912452697754 10.474148750305176 15.824928283691406 10.649999618530273 L15.824928283691406 10.649999618530273"></path>
<path fill="none" stroke="black" stroke-width=".3" stroke-opacity="1.0"  filling="0" d="M10.875072479248047 12.0 L10.875072479248047 12.0 C11.050968170166016 11.57593822479248 11.078150749206543 11.052462577819824 11.40276050567627 10.727813720703125 C12.51719856262207 9.613242149353027 14.474711418151855 10.4232816696167 14.474711418151855 12.0 C14.474711418151855 13.576436996459961 12.517282485961914 14.386842727661133 11.402841567993164 13.272401809692383 C11.078158378601074 12.947718620300293 11.050995826721191 12.424134254455566 10.875072479248047 12.0 L10.875072479248047 12.0"></path>
<path fill="none" stroke="black" stroke-width=".3" stroke-opacity="1.0"  filling="0" d="M13.575287818908691 12.0 L13.575287818908691 12.0 C13.275263786315918 12.299951553344727 13.09946346282959 12.899855613708496 12.675216674804688 12.899855613708496 C12.250969886779785 12.899855613708496 11.775144577026367 12.424246788024902 11.775144577026367 12.0 C11.775144577026367 11.575701713562012 12.2509183883667 11.09992790222168 12.675216674804688 11.09992790222168 C13.099514961242676 11.09992790222168 13.275263786315918 11.699975967407227 13.575287818908691 12.0 L13.575287818908691 12.0"></path>
<path fill="none" stroke="black" stroke-width=".3" stroke-opacity="1.0"  filling="0" d="M13.575287818908691 18.300071716308594 L13.575287818908691 18.300071716308594 C13.44885540008545 18.544151306152344 13.322423934936523 18.788230895996094 13.195991516113281 19.032310485839844 L13.575287818908691 20.5499267578125 L11.775144577026367 20.5499267578125 L12.154439926147461 19.032310485839844 C11.947264671325684 18.632352828979492 11.013858795166016 17.399999618530273 12.675216674804688 17.399999618530273 C13.099514961242676 17.399999618530273 13.275263786315918 18.00004768371582 13.575287818908691 18.300071716308594 L13.575287818908691 18.300071716308594"></path>
<path fill="none" stroke="black" stroke-width=".3" stroke-opacity="1.0"  filling="0" d="M21.675071716308594 21.89992904663086 L15.67509651184082 21.89992904663086 L9.67512035369873 21.89992904663086 L3.6751441955566406 21.89992904663086 L3.6751441955566406 16.049999237060547 L9.67512035369873 16.049999237060547 L15.67509651184082 16.049999237060547 L21.675071716308594 16.049999237060547 L21.675071716308594 21.89992904663086"></path></svg>