<svg xmlns="http://www.w3.org/2000/svg" viewBox="0.0 0.0 24.0 24.0" height="200px" width="200px"><path fill="none" stroke="black" stroke-width=".3" stroke-opacity="1.0"  filling="0" d="M19.424964904785156 1.2000007629394531 L19.424964904785156 1.2000007629394531 C19.57494354248047 1.3499780893325806 19.72492027282715 1.4999555349349976 19.87489891052246 1.649932861328125 L19.874900817871094 7.649969100952148 L19.874900817871094 13.650005340576172 L19.87489891052246 19.650041580200195 C19.72492027282715 19.800018310546875 19.57494354248047 19.949995040893555 19.424964904785156 20.099971771240234 L18.975034713745117 20.099971771240234 L18.975034713745117 22.350067138671875 C18.82498550415039 22.500043869018555 18.67493438720703 22.650022506713867 18.524885177612305 22.799999237060547 L12.224858283996582 22.799999237060547 L5.924831390380859 22.799999237060547 C5.141043663024902 22.474987030029297 4.4499735832214355 21.783809661865234 4.1248860359191895 21.00005340576172 L4.124886512756348 15.000018119812012 L4.124886512756348 8.999982833862305 L4.1248860359191895 2.9999465942382812 C4.450008869171143 2.2162046432495117 5.141078948974609 1.5250989198684692 5.924831390380859 1.2000007629394531 L12.674898147583008 1.2000007629394531 L19.424964904785156 1.2000007629394531"></path>
<path fill="none" stroke="black" stroke-width=".3" stroke-opacity="1.0"  filling="0" d="M14.657366752624512 5.568860054016113 L14.657366752624512 5.568860054016113 C14.87468433380127 6.981436252593994 12.034579277038574 8.30164623260498 13.908082008361816 5.6784539222717285 C14.196483612060547 5.274646759033203 14.413330078125 5.4429426193237305 14.657366752624512 5.568860054016113 L14.657366752624512 5.568860054016113"></path>
<path fill="none" stroke="black" stroke-width=".3" stroke-opacity="1.0"  filling="0" d="M14.475061416625977 6.599846839904785 L14.475061416625977 6.599846839904785 C14.979312896728516 5.379796028137207 17.175086975097656 4.448646545410156 17.175086975097656 6.599847316741943 C17.175086975097656 8.751039505004883 14.979305267333984 7.819862365722656 14.475061416625977 6.599829196929932 L14.475061416625977 6.599829196929932"></path>
<path fill="none" stroke="black" stroke-width=".3" stroke-opacity="1.0"  filling="0" d="M8.624858856201172 6.5998430252075195 L8.624858856201172 6.5998430252075195 C9.129136085510254 5.380866050720215 11.324886322021484 4.44911003112793 11.324886322021484 6.5998430252075195 C11.324886322021484 8.750572204589844 9.129132270812988 7.818801403045654 8.624858856201172 6.5998334884643555 L8.624858856201172 6.5998334884643555"></path>
<path fill="none" stroke="black" stroke-width=".3" stroke-opacity="1.0"  filling="0" d="M18.299161911010742 6.9847540855407715 L18.299161911010742 6.9847540855407715 C18.38625144958496 7.580506324768066 17.283971786499023 6.279458999633789 16.961462020874023 5.771038055419922 C16.696569442749023 5.353447914123535 17.665752410888672 5.584106922149658 17.729753494262695 5.670083999633789 C18.014911651611328 6.053163051605225 18.109359741210938 6.546530723571777 18.299161911010742 6.9847540855407715 L18.299161911010742 6.9847540855407715"></path>
<path fill="none" stroke="black" stroke-width=".3" stroke-opacity="1.0"  filling="0" d="M9.974872589111328 8.399999618530273 L9.974872589111328 8.399999618530273 C10.847066879272461 8.692593574523926 11.798977851867676 9.142870903015137 12.269630432128906 9.933326721191406 C12.591094017028809 10.473220825195312 12.535652160644531 12.401021003723145 11.78410530090332 11.188803672790527 C11.576396942138672 10.853776931762695 11.478245735168457 10.462172508239746 11.325316429138184 10.098856925964355 L11.325316429138184 14.24998664855957 C11.124934196472168 14.471388816833496 10.664876937866211 14.527998924255371 10.433876991271973 14.338762283325195 L9.983943939208984 12.088668823242188 C9.983943939208984 12.059076309204102 9.983943939208984 12.029484748840332 9.983943939208984 11.999892234802246 L9.966447830200195 11.999892234802246 C9.966447830200195 12.029484748840332 9.966447830200195 12.059076309204102 9.966447830200195 12.088668823242188 L9.516515731811523 14.338762283325195 C9.285514831542969 14.527999877929688 8.825457572937012 14.471388816833496 8.62507438659668 14.24998664855957 L8.62507438659668 10.105769157409668 C8.472145080566406 10.466780662536621 8.388652801513672 10.86589527130127 8.166285514831543 11.188803672790527 C7.27847957611084 12.478023529052734 7.443409442901611 10.331531524658203 7.680400848388672 9.933326721191406 C8.150856018066406 9.142845153808594 9.102757453918457 8.692581176757812 9.974872589111328 8.399999618530273 L9.974872589111328 8.399999618530273"></path>
<path fill="none" stroke="black" stroke-width=".3" stroke-opacity="1.0"  filling="0" d="M15.8250732421875 8.399999618530273 L15.8250732421875 8.399999618530273 C16.69720458984375 8.692585945129395 17.64908790588379 9.142864227294922 18.11960792541504 9.933326721191406 C18.440855026245117 10.47301197052002 18.38547706604004 12.401105880737305 17.63387680053711 11.188803672790527 C17.42616844177246 10.853776931762695 17.32801628112793 10.462172508239746 17.175086975097656 10.098856925964355 L17.175086975097656 14.24998664855957 C16.97475242614746 14.471335411071777 16.514808654785156 14.5279541015625 16.283863067626953 14.338762283325195 L15.833930015563965 12.088668823242188 C15.833930015563965 12.059076309204102 15.833930015563965 12.029484748840332 15.833930015563965 11.999892234802246 L15.816433906555176 11.999892234802246 C15.816433906555176 12.029484748840332 15.816433906555176 12.059076309204102 15.816433906555176 12.088668823242188 L15.36628532409668 14.338762283325195 C15.13538646697998 14.528009414672852 14.675395011901855 14.471335411071777 14.475061416625977 14.24998664855957 L14.475061416625977 10.105769157409668 C14.322131156921387 10.466780662536621 14.238605499267578 10.865872383117676 14.016271591186523 11.188803672790527 C13.128759384155273 12.477876663208008 13.293643951416016 10.331527709960938 13.530651092529297 9.933326721191406 C14.00112533569336 9.14287281036377 14.952977180480957 8.692594528198242 15.8250732421875 8.399999618530273 L15.8250732421875 8.399999618530273"></path>
<path fill="none" stroke="black" stroke-width=".3" stroke-opacity="1.0"  filling="0" d="M18.975034713745117 19.20010757446289 L12.89997386932373 19.20010757446289 L6.8249125480651855 19.20010757446289 L6.824913024902344 13.500099182128906 L6.824913024902344 7.800090312957764 L6.8249125480651855 2.100081443786621 L12.89997386932373 2.100081443786621 L18.975034713745117 2.100081443786621 L18.975034713745117 7.800090312957764 L18.975034713745117 13.500099182128906 L18.975034713745117 19.20010757446289"></path>
<path fill="none" stroke="black" stroke-width=".3" stroke-opacity="1.0"  filling="0" d="M18.074951171875 21.900135040283203 L11.99989128112793 21.900135040283203 L5.924831390380859 21.900135040283203 C5.624804496765137 21.600107192993164 5.024750709533691 21.42435646057129 5.024750709533691 21.00005340576172 C5.024750709533691 20.57575035095215 5.624804496765137 20.399999618530273 5.924831390380859 20.099971771240234 L11.99989128112793 20.099971771240234 L18.074951171875 20.099971771240234 L18.074951171875 21.900135040283203"></path></svg>