<svg xmlns="http://www.w3.org/2000/svg" viewBox="0.0 0.0 24.0 24.0" height="200px" width="200px"><path fill="none" stroke="black" stroke-width=".3" stroke-opacity="1.0"  filling="0" d="M13.19555950164795 10.438859939575195 L13.19555950164795 10.438859939575195 C14.083620071411133 10.973105430603027 15.037962913513184 11.611971855163574 15.477599143981934 12.55047607421875 C15.893203735351562 13.437679290771484 14.59849739074707 13.831145286560059 14.06171989440918 13.536299705505371 C13.645952224731445 13.307923316955566 12.524962425231934 10.322640419006348 13.19555950164795 10.438859939575195 L13.19555950164795 10.438859939575195"></path>
<path fill="none" stroke="black" stroke-width=".3" stroke-opacity="1.0"  filling="0" d="M5.55499267578125 14.473955154418945 L9.684480667114258 14.473955154418945 L13.81396770477295 14.473955154418945 C13.88985538482666 14.773763656616211 13.965744018554688 15.07357120513916 14.041631698608398 15.373379707336426 L9.645059585571289 15.373379707336426 L5.248488426208496 15.373379707336426 C4.9486083984375 15.07357120513916 4.648728370666504 14.773763656616211 4.348848342895508 14.473955154418945 L4.348848342895508 10.425899505615234 L4.348848342895508 6.377844333648682 C4.648728370666504 6.0779643058776855 4.9486083984375 5.7780842781066895 5.248488426208496 5.478204250335693 L12.444852828979492 5.478204250335693 L19.641216278076172 5.478204250335693 C19.94109535217285 5.7780842781066895 20.240976333618164 6.0779643058776855 20.540855407714844 6.377844333648682 L20.540855407714844 10.42579174041748 L20.540855407714844 14.473739624023438 C20.240976333618164 14.773548126220703 19.94109535217285 15.073355674743652 19.641216278076172 15.373164176940918 L18.67180824279785 15.373164176940918 C18.465600967407227 15.073355674743652 18.25939178466797 14.773548126220703 18.053184509277344 14.473739624023438 L19.641429901123047 14.473739624023438 L19.641429901123047 10.425683975219727 L19.641429901123047 6.377628326416016 L14.91772747039795 6.377628326416016 L10.194025039672852 6.377628326416016 L11.093664169311523 8.626620292663574 L10.194025039672852 9.975972175598145 L10.194025039672852 12.225180625915527 L8.844671249389648 9.976187705993652 L9.744312286376953 8.626835823059082 L8.394960403442383 7.727196216583252 L7.945032119750977 6.377844333648682 L5.248488426208496 6.377844333648682 L5.248488426208496 10.425899505615234 L5.248488426208496 14.473955154418945 L5.55499267578125 14.473955154418945"></path>
<path fill="none" stroke="black" stroke-width=".3" stroke-opacity="1.0"  filling="0" d="M13.81396770477295 14.473955154418945 L13.81396770477295 14.473955154418945 C13.811519622802734 14.45667552947998 13.80907154083252 14.439395904541016 13.806623458862305 14.42211627960205 L13.806623458862305 14.42211627960205 C13.856951713562012 14.439395904541016 13.907279014587402 14.45667552947998 13.95760726928711 14.473955154418945 L13.81396770477295 14.473955154418945"></path>
<path fill="none" stroke="black" stroke-width=".3" stroke-opacity="1.0"  filling="0" d="M22.492633819580078 14.479140281677246 L22.492633819580078 14.479140281677246 C22.27071762084961 15.461665153503418 22.736513137817383 16.28333282470703 22.599119186401367 17.233732223510742 C22.374513626098633 18.78740882873535 21.02420997619629 18.361902236938477 20.03541374206543 18.072301864624023 L20.03541374206543 18.072301864624023 C19.861173629760742 17.679901123046875 19.686935424804688 17.287500381469727 19.5126953125 16.895099639892578 L19.5126953125 16.895099639892578 C19.833391189575195 17.02497100830078 21.53130340576172 17.816204071044922 21.626903533935547 17.408098220825195 C21.668212890625 17.23175048828125 21.447526931762695 15.042736053466797 21.448705673217773 14.989116668701172 C21.485076904296875 13.334792137145996 21.798824310302734 12.271201133728027 21.44028091430664 10.576452255249023 L21.442657470703125 10.576452255249023 C21.800785064697266 8.88195514678955 21.48714828491211 7.81788444519043 21.450862884521484 6.163787841796875 C21.44978141784668 6.114470958709717 21.67043113708496 3.916935920715332 21.62928009033203 3.745020866394043 C21.490127563476562 3.163698673248291 18.632869720458984 4.873043537139893 17.849712371826172 4.72890043258667 C16.77621841430664 4.531319618225098 15.792585372924805 3.836026191711426 14.701079368591309 3.8294763565063477 C13.753612518310547 3.8237907886505127 12.906856536865234 4.439405918121338 12.004751205444336 4.729116916656494 L12.002376556396484 4.729116916656494 C11.100282669067383 4.439369201660156 10.253515243530273 3.8237907886505127 9.306047439575195 3.8294763565063477 C8.214611053466797 3.8360259532928467 7.209577560424805 4.437889099121094 6.157632350921631 4.72890043258667 L6.156336307525635 4.72890043258667 C6.009307861328125 4.739040374755859 2.447528839111328 3.4237782955169678 2.372664451599121 3.7443723678588867 C2.3326566219329834 3.915698766708374 2.5527782440185547 6.115592956542969 2.5517282485961914 6.163356304168701 C2.515357494354248 7.817681789398193 2.2016069889068604 8.881269454956055 2.560152053833008 10.576020240783691 L2.5579919815063477 10.576020240783691 C2.1998977661132812 12.270334243774414 2.5134589672088623 13.334491729736328 2.5495681762695312 14.9884672164917 C2.5506527423858643 15.038146018981934 2.3299977779388428 17.235013961791992 2.371151924133301 17.40723419189453 C2.510145425796509 17.988887786865234 5.367495059967041 16.27948570251465 6.150720119476318 16.423572540283203 C7.22418212890625 16.621051788330078 8.207679748535156 17.316570281982422 9.299135208129883 17.323211669921875 C10.246807098388672 17.328977584838867 11.09378719329834 16.713272094726562 11.996111869812012 16.423572540283203 L11.996111869812012 16.423572540283203 C11.996399879455566 16.423572540283203 11.996687889099121 16.423572540283203 11.996975898742676 16.423572540283203 L11.996975898742676 16.423572540283203 C13.051767349243164 16.423572540283203 13.922389030456543 17.416946411132812 14.973670959472656 17.2893009185791 L14.973670959472656 17.2893009185791 C15.150574684143066 17.553180694580078 15.327479362487793 17.817060470581055 15.504383087158203 18.08094024658203 L15.504383087158203 18.08094024658203 C14.137598991394043 18.32003402709961 13.255562782287598 17.323211669921875 11.996759414672852 17.323211669921875 C11.048820495605469 17.323211669921875 10.246849060058594 18.218156814575195 9.298920631408691 18.22263526916504 C7.209904670715332 18.23250389099121 6.8246612548828125 17.057186126708984 4.686456680297852 17.786962509155273 C4.441514015197754 17.870561599731445 2.2484207153320312 18.910625457763672 1.8391447067260742 18.137962341308594 C1.2122726440429688 16.954504013061523 1.6901720762252808 16.40215492248535 1.6602964401245117 15.159539222717285 C1.6414239406585693 14.374573707580566 1.210781216621399 13.633926391601562 1.203023910522461 12.848772048950195 C1.1953959465026855 12.076706886291504 1.6523046493530273 11.348555564880371 1.6523046493530273 10.576452255249023 C1.6523046493530273 9.804560661315918 1.1953974962234497 9.07663345336914 1.203023910522461 8.304780006408691 C1.2107839584350586 7.519399642944336 1.6417412757873535 6.778558254241943 1.660512924194336 5.993364334106445 C1.6885360479354858 4.82119083404541 1.0923186540603638 4.102663040161133 1.83892822265625 3.0149412155151367 C2.578662872314453 1.9372353553771973 5.630507469177246 3.820866584777832 6.157632350921631 3.8292598724365234 C7.248920440673828 3.8466362953186035 8.214417457580566 2.92431902885437 9.305831909179688 2.9294042587280273 C10.253647804260254 2.9338204860687256 11.055414199829102 3.829045295715332 12.003240585327148 3.829045295715332 C12.951202392578125 3.829045295715332 13.753128051757812 2.933820962905884 14.701079368591309 2.9294042587280273 C16.790353775024414 2.9196701049804688 17.175294876098633 4.09480619430542 19.313758850097656 3.365292549133301 C19.5584659576416 3.281813383102417 21.75181770324707 2.242130994796753 22.160856246948242 3.0142927169799805 C22.787710189819336 4.197634696960449 22.309833526611328 4.750227928161621 22.339702606201172 5.992716312408447 C22.35857391357422 6.777681827545166 22.789270401000977 7.51832914352417 22.796974182128906 8.303483963012695 C22.804548263549805 9.07556438446045 22.34748077392578 9.80368709564209 22.34748077392578 10.575804710388184 C22.34748077392578 12.052700996398926 22.78594207763672 12.906828880310059 22.492633819580078 14.479140281677246 L22.492633819580078 14.479140281677246"></path>
<path fill="none" stroke="black" stroke-width=".3" stroke-opacity="1.0"  filling="0" d="M18.853464126586914 17.60293197631836 L18.853464126586914 17.60293197631836 C19.062210083007812 18.1052303314209 19.29143714904785 18.59950065612793 19.47970199584961 19.10982894897461 C21.175090789794922 23.70551109313965 17.325439453125 18.975862503051758 16.38523292541504 17.76017951965332 L16.38523292541504 17.76017951965332 C16.38580894470215 17.75981903076172 16.386383056640625 17.75946044921875 16.386959075927734 17.75909996032715 L16.386959075927734 17.75909996032715 C15.612265586853027 16.600337982177734 15.19948959350586 15.870838165283203 14.747520446777344 14.575691223144531 L14.747520446777344 14.575691223144531 C15.247617721557617 14.394286155700684 15.722299575805664 14.100451469421387 16.0955753326416 13.721412658691406 L16.0955753326416 13.721412658691406 C16.6476993560791 14.220113754272461 17.128549575805664 14.79497241973877 17.596776962280273 15.373164176940918 L17.59720802307129 15.37359619140625 C18.07079315185547 16.09354591369629 18.485097885131836 16.82365608215332 18.853464126586914 17.60293197631836 L18.853464126586914 17.60293197631836"></path></svg>