<svg xmlns="http://www.w3.org/2000/svg" viewBox="0.0 0.0 24.0 24.0" height="200px" width="200px"><path fill="none" stroke="black" stroke-width=".3" stroke-opacity="1.0"  filling="0" d="M17.253982543945312 8.950511932373047 L19.712493896484375 7.5307440757751465 L19.712493896484375 10.976160049438477 L18.468120574951172 13.21564769744873 L17.859647750854492 13.097064018249512 L18.19660758972168 15.40545654296875 L13.418904304504395 19.80170440673828 L12.0 22.259998321533203 L10.581960678100586 19.80191993713379 L5.80339241027832 15.405672073364258 L6.140352249145508 13.097280502319336 L5.5318803787231445 13.215864181518555 L4.287936210632324 10.9763765335083 L4.287936210632324 7.5307440757751465 L6.746016502380371 8.950511932373047 L6.809088230133057 8.518511772155762 L5.4552001953125 6.1334404945373535 L7.5974884033203125 1.7400007247924805 L8.029272079467773 5.128608226776123 L9.162192344665527 6.261096477508545 L14.838024139404297 6.261096477508545 L15.970512390136719 5.128608226776123 L16.40251350402832 1.7400007247924805 L18.5447998046875 6.1334404945373535 L17.19112777709961 8.518511772155762 L17.253982543945312 8.950511932373047"></path>
<path fill="none" stroke="black" stroke-width=".3" stroke-opacity="1.0"  filling="0" d="M18.94223976135254 10.776792526245117 L18.066143035888672 12.352511405944824 L17.741928100585938 12.288792610168457 L17.373863220214844 9.770879745483398 L18.94223976135254 8.865407943725586 L18.94223976135254 10.776792526245117"></path>
<path fill="none" stroke="black" stroke-width=".3" stroke-opacity="1.0"  filling="0" d="M5.933640480041504 12.352727890014648 L5.058192253112793 10.777008056640625 L5.058192253112793 8.865623474121094 L6.626136302947998 9.771095275878906 L6.258504390716553 12.289008140563965 L5.933640480041504 12.352727890014648"></path>
<path fill="none" stroke="black" stroke-width=".3" stroke-opacity="1.0"  filling="0" d="M10.739855766296387 12.95083236694336 L11.078975677490234 15.262031555175781 L10.337231636047363 13.67184066772461 L8.620464324951172 13.67184066772461 L8.409000396728516 12.082079887390137 L10.739855766296387 12.95083236694336"></path>
<path fill="none" stroke="black" stroke-width=".3" stroke-opacity="1.0"  filling="0" d="M17.375808715820312 15.114503860473633 L12.759888648986816 19.361064910888672 L11.240327835083008 19.361064910888672 L6.62440824508667 15.114503860473633 L7.572000026702881 8.625 L9.160896301269531 7.0315680503845215 L14.839320182800293 7.0315680503845215 L16.42799949645996 8.625 L17.375808715820312 15.114503860473633"></path>
<path fill="none" stroke="black" stroke-width=".3" stroke-opacity="1.0"  filling="0" d="M12.921239852905273 15.262031555175781 L13.260359764099121 12.95083236694336 L15.590784072875977 12.082079887390137 L15.379536628723145 13.67184066772461 L13.662768363952637 13.67184066772461 L12.921239852905273 15.262031555175781"></path>
<path fill="none" stroke="black" stroke-width=".3" stroke-opacity="1.0"  filling="0" d="M11.999567985534668 16.884191513061523 L10.930800437927246 16.089311599731445 L13.069416046142578 16.089311599731445 L11.999567985534668 16.884191513061523"></path></svg>