<svg xmlns="http://www.w3.org/2000/svg" viewBox="0.0 0.0 24.0 24.0" height="200px" width="200px"><path fill="none" stroke="black" stroke-width=".3" stroke-opacity="1.0"  filling="0" d="M12.320328712463379 2.9208717346191406 L12.320328712463379 2.9208717346191406 C13.837867736816406 3.0738472938537598 15.252296447753906 3.402843475341797 16.509641647338867 4.023301601409912 C17.766986846923828 4.643759727478027 18.86724853515625 5.555680274963379 19.756450653076172 6.874505519866943 C21.07082176208496 8.823919296264648 21.46569061279297 11.027220726013184 21.147024154663086 13.098550796508789 C20.828357696533203 15.169880867004395 19.796157836914062 17.10923957824707 18.256385803222656 18.5307674407959 C16.716615676879883 19.952295303344727 14.669273376464844 20.85599136352539 12.320328712463379 20.855998992919922 C9.97136116027832 20.85600471496582 7.923984050750732 19.952346801757812 6.384176254272461 18.530858993530273 C4.8443684577941895 17.109371185302734 3.8121299743652344 15.170053482055664 3.493440866470337 13.098740577697754 C3.1747517585754395 11.02742862701416 3.5696120262145996 8.82412052154541 4.8840012550354 6.874653339385986 C5.773224830627441 5.555779933929443 6.8735127449035645 4.643825531005859 8.130891799926758 4.02334451675415 C9.388270378112793 3.402863025665283 10.802740097045898 3.0738542079925537 12.320328712463379 2.9208717346191406 L12.320328712463379 2.9208717346191406"></path>
<path fill="none" stroke="black" stroke-width=".3" stroke-opacity="1.0"  filling="0" d="M11.59823989868164 17.158079147338867 L6.6522722244262695 13.59623908996582 L7.431816101074219 12.512784004211426 L11.295841217041016 15.292920112609863 L13.914192199707031 11.653968811035156 L16.532543182373047 8.015016555786133 L17.616214752197266 8.794560432434082 L14.607227325439453 12.976320266723633 L11.59823989868164 17.158079147338867"></path></svg>