<svg xmlns="http://www.w3.org/2000/svg" viewBox="0.0 0.0 24.0 24.0" height="200px" width="200px"><path fill="none" stroke="black" stroke-width=".3" stroke-opacity="1.0"  filling="0" d="M14.071224212646484 6.125772476196289 L14.071224212646484 6.125772476196289 C13.683818817138672 5.965905666351318 13.205781936645508 5.942086696624756 12.909008979797363 5.646171569824219 C11.889142990112305 4.629253387451172 12.633481979370117 2.8419747352600098 14.071224212646484 2.8419246673583984 C15.508984565734863 2.841874599456787 16.253389358520508 4.62924861907959 15.233519554138184 5.646171569824219 C14.936729431152344 5.942104339599609 14.458656311035156 5.965905666351318 14.071224212646484 6.125772476196289 L14.071224212646484 6.125772476196289"></path>
<path fill="none" stroke="black" stroke-width=".3" stroke-opacity="1.0"  filling="0" d="M14.13904857635498 10.11313247680664 L14.13904857635498 10.11313247680664 C13.91102409362793 9.97568416595459 13.683000564575195 9.838236808776855 13.454976081848145 9.700788497924805 L12.388152122497559 8.032188415527344 L10.18603229522705 10.212492942810059 L12.228096008300781 11.287092208862305 C12.465767860412598 11.667036056518555 12.703439712524414 12.046980857849121 12.94111156463623 12.426924705505371 L12.94111156463623 17.04953956604004 C12.625823974609375 17.366411209106445 12.442255020141602 18.00015640258789 11.995248794555664 18.00015640258789 C11.548242568969727 18.00015640258789 11.364672660827637 17.366411209106445 11.049384117126465 17.04953956604004 L11.049384117126465 13.34859561920166 L7.508280277252197 11.381699562072754 C7.143860340118408 10.763998031616211 6.89687967300415 9.928997039794922 7.154040336608887 9.259500503540039 L10.627103805541992 5.779092788696289 C10.971479415893555 5.6425089836120605 11.315855979919434 5.505924701690674 11.660231590270996 5.369340896606445 L11.660231590270996 5.369340896606445 C12.03052806854248 5.581164836883545 12.400823593139648 5.792988300323486 12.771120071411133 6.004812240600586 L14.575584411621094 8.832684516906738 L17.316408157348633 8.827932357788086 C17.562593460083008 9.042168617248535 18.05496597290039 9.14428997039795 18.05496597290039 9.470640182495117 C18.05496597290039 9.796990394592285 17.562593460083008 9.899112701416016 17.316408157348633 10.113348960876465 L14.13904857635498 10.11313247680664"></path>
<path fill="none" stroke="black" stroke-width=".3" stroke-opacity="1.0"  filling="0" d="M1.2000007629394531 16.743900299072266 L1.2000007629394531 16.743900299072266 C1.5613951683044434 14.956779479980469 2.003490686416626 13.493459701538086 3.869415760040283 12.72109603881836 C5.2879414558410645 12.13392448425293 6.805805683135986 12.367010116577148 7.969038009643555 13.133195877075195 C9.132270812988281 13.899382591247559 9.940872192382812 15.19866943359375 9.940872192382812 16.743900299072266 C9.940872192382812 18.289201736450195 9.13294506072998 19.590187072753906 7.970048904418945 20.357765197753906 C6.807153224945068 21.125341415405273 5.289289474487305 21.359508514404297 3.869415760040283 20.771169662475586 C2.0027074813842773 19.997682571411133 1.5611835718154907 18.53193473815918 1.2000007629394531 16.743900299072266 L1.2000007629394531 16.743900299072266"></path>
<path fill="none" stroke="black" stroke-width=".3" stroke-opacity="1.0"  filling="0" d="M14.059127807617188 16.787532806396484 L14.059127807617188 16.787532806396484 C14.420586585998535 14.998903274536133 14.862594604492188 13.53453540802002 16.730548858642578 12.762176513671875 C18.149871826171875 12.175317764282227 19.667226791381836 12.408870697021484 20.829755783081055 13.175531387329102 C21.99228286743164 13.942193031311035 22.799983978271484 15.241961479187012 22.799999237060547 16.787532806396484 C22.80001449584961 18.33297348022461 21.99252700805664 19.6335391998291 20.83009910583496 20.400869369506836 C19.66767120361328 21.168201446533203 18.150300979614258 21.402297973632812 16.730548858642578 20.814802169799805 C14.862594604492188 20.041839599609375 14.420546531677246 18.57634925842285 14.059127807617188 16.787532806396484 L14.059127807617188 16.787532806396484"></path>
<path fill="none" stroke="black" stroke-width=".3" stroke-opacity="1.0"  filling="0" d="M5.5679521560668945 20.309194564819336 L5.5679521560668945 20.309194564819336 C4.082554340362549 19.906330108642578 3.345808982849121 20.026287078857422 2.4964487552642822 18.543563842773438 C1.1571954488754272 16.20563507080078 2.847405433654785 13.183608055114746 5.5679521560668945 13.183571815490723 C8.289030075073242 13.1835355758667 9.986692428588867 16.201946258544922 8.644240379333496 18.543466567993164 C7.793722629547119 20.026948928833008 7.054892539978027 19.90665626525879 5.5679521560668945 20.309194564819336 L5.5679521560668945 20.309194564819336"></path>
<path fill="none" stroke="black" stroke-width=".3" stroke-opacity="1.0"  filling="0" d="M18.43183135986328 20.350452423095703 L18.43183135986328 20.350452423095703 C16.945926666259766 19.948715209960938 16.206012725830078 20.06881332397461 15.355751037597656 18.586645126342773 C14.012410163879395 16.244949340820312 15.711284637451172 13.227420806884766 18.43183135986328 13.227420806884766 C21.151935577392578 13.227420806884766 22.84400177001953 16.248188018798828 21.503541946411133 18.586645126342773 C20.654298782348633 20.06816291809082 19.916385650634766 19.948366165161133 18.43183135986328 20.350452423095703 L18.43183135986328 20.350452423095703"></path></svg>