<svg xmlns="http://www.w3.org/2000/svg" viewBox="0.0 0.0 24.0 24.0" height="200px" width="200px"><path fill="none" stroke="black" stroke-width=".3" stroke-opacity="1.0"  filling="0" d="M11.824499130249023 1.719496726989746 L11.824499130249023 1.719496726989746 C13.544763565063477 1.8929059505462646 15.148138999938965 2.2658443450927734 16.573440551757812 2.9691877365112305 C17.998741149902344 3.6725311279296875 19.2459659576416 4.706279754638672 20.253929138183594 6.201308727264404 C21.743833541870117 8.411162376403809 22.19145393371582 10.908801078796387 21.830236434936523 13.256828308105469 C21.469018936157227 15.604856491088867 20.298965454101562 17.803272247314453 18.553525924682617 19.414682388305664 C16.808086395263672 21.026092529296875 14.487261772155762 22.050495147705078 11.824499130249023 22.050495147705078 C9.161736488342285 22.050495147705078 6.840910911560059 21.026092529296875 5.0954718589782715 19.414682388305664 C3.3500328063964844 17.803272247314453 2.1799802780151367 15.60485553741455 1.8187638521194458 13.256827354431152 C1.4575474262237549 10.90880012512207 1.9051668643951416 8.411161422729492 3.3950717449188232 6.201308727264404 C4.403034687042236 4.70628023147583 5.650259971618652 3.6725316047668457 7.075560569763184 2.9691882133483887 C8.500861167907715 2.2658445835113525 10.104236602783203 1.8929059505462646 11.824499130249023 1.719496726989746 L11.824499130249023 1.719496726989746"></path>
<path fill="none" stroke="black" stroke-width=".3" stroke-opacity="1.0"  filling="0" d="M11.817750930786133 2.441746711730957 L11.817750930786133 2.441746711730957 C13.414791107177734 2.603179454803467 14.902973175048828 2.9508204460144043 16.22606658935547 3.604764461517334 C17.549161911010742 4.258708477020264 18.707168579101562 5.2189555168151855 19.643856048583984 6.6056013107299805 C21.02950096130371 8.656868934631348 21.44594955444336 10.975724220275879 21.110660552978516 13.15585708618164 C20.775371551513672 15.335989952087402 19.688344955444336 17.377399444580078 18.067041397094727 18.873777389526367 C16.445735931396484 20.370155334472656 14.290153503417969 21.32149887084961 11.817750930786133 21.32149887084961 C9.345328330993652 21.32149887084961 7.190945148468018 20.369909286499023 5.571017742156982 18.873287200927734 C3.9510903358459473 17.376665115356445 2.86561918258667 15.33500862121582 2.531019926071167 13.154875755310059 C2.196420907974243 10.974742889404297 2.612694263458252 8.656131744384766 3.996256113052368 6.6056013107299805 C4.931967258453369 5.218814849853516 6.089061260223389 4.258555889129639 7.411366939544678 3.6046409606933594 C8.733673095703125 2.95072603225708 10.22119140625 2.6031556129455566 11.817750930786133 2.441746711730957 L11.817750930786133 2.441746711730957"></path>
<path fill="none" stroke="black" stroke-width=".3" stroke-opacity="1.0"  filling="0" d="M11.817750930786133 3.5689964294433594 L11.817750930786133 3.5689964294433594 C13.4257230758667 3.7535500526428223 14.923043251037598 4.149290561676025 16.206138610839844 4.883652210235596 C17.489234924316406 5.618013858795166 18.55810546875 6.690996170043945 19.309179306030273 8.230033874511719 C20.195812225341797 10.046846389770508 20.331151962280273 11.981807708740234 19.89348793029785 13.75428295135498 C19.455825805664062 15.526758193969727 18.44515609741211 17.136749267578125 17.039772033691406 18.303621292114258 C15.63438606262207 19.470491409301758 13.834283828735352 20.194244384765625 11.817750930786133 20.194244384765625 C9.801218032836914 20.194244384765625 8.001115798950195 19.470491409301758 6.595729351043701 18.303621292114258 C5.190343379974365 17.136749267578125 4.1796746253967285 15.526758193969727 3.7420108318328857 13.75428295135498 C3.304346799850464 11.981807708740234 3.439687728881836 10.046846389770508 4.326320648193359 8.230033874511719 C5.077395439147949 6.690996170043945 6.146266937255859 5.618013858795166 7.4293622970581055 4.883652210235596 C8.712457656860352 4.149290561676025 10.20977783203125 3.7535500526428223 11.817750930786133 3.5689964294433594 L11.817750930786133 3.5689964294433594"></path>
<path fill="none" stroke="black" stroke-width=".3" stroke-opacity="1.0"  filling="0" d="M16.164749145507812 6.214996814727783 L16.515750885009766 6.950747013092041 L15.813749313354492 6.950747013092041 L16.164749145507812 6.214996814727783"></path>
<path fill="none" stroke="black" stroke-width=".3" stroke-opacity="1.0"  filling="0" d="M13.302749633789062 6.302746772766113 L13.653748512268066 7.038496494293213 L12.951748847961426 7.038496494293213 L13.302749633789062 6.302746772766113"></path>
<path fill="none" stroke="black" stroke-width=".3" stroke-opacity="1.0"  filling="0" d="M10.413749694824219 6.336496353149414 L10.764749526977539 7.072246551513672 L10.062749862670898 7.072246551513672 L10.413749694824219 6.336496353149414"></path>
<path fill="none" stroke="black" stroke-width=".3" stroke-opacity="1.0"  filling="0" d="M7.464000225067139 6.613246917724609 L7.679999828338623 6.613246917724609 L7.679999828338623 8.523496627807617 L8.003999710083008 8.523496627807617 L7.572000026702881 9.272746086120605 L7.139999866485596 8.523496627807617 L7.464000225067139 8.523496627807617 L7.464000225067139 6.613246917724609"></path>
<path fill="none" stroke="black" stroke-width=".3" stroke-opacity="1.0"  filling="0" d="M16.05674934387207 7.166746616363525 L16.272748947143555 7.38274621963501 L16.05674934387207 7.166746616363525"></path>
<path fill="none" stroke="black" stroke-width=".3" stroke-opacity="1.0"  filling="0" d="M13.194748878479004 7.254497051239014 L13.410749435424805 7.470496654510498 L13.194748878479004 7.254497051239014"></path>
<path fill="none" stroke="black" stroke-width=".3" stroke-opacity="1.0"  filling="0" d="M10.305749893188477 7.2882466316223145 L10.521750450134277 7.504246711730957 L10.305749893188477 7.2882466316223145"></path>
<path fill="none" stroke="black" stroke-width=".3" stroke-opacity="1.0"  filling="0" d="M16.05674934387207 7.5987467765808105 L16.272748947143555 7.814746379852295 L16.05674934387207 7.5987467765808105"></path>
<path fill="none" stroke="black" stroke-width=".3" stroke-opacity="1.0"  filling="0" d="M13.194748878479004 7.686496257781982 L13.410749435424805 7.902496814727783 L13.194748878479004 7.686496257781982"></path>
<path fill="none" stroke="black" stroke-width=".3" stroke-opacity="1.0"  filling="0" d="M10.305749893188477 7.720246315002441 L10.521750450134277 7.720246315002441 L10.521750450134277 9.225496292114258 L10.305749893188477 9.225496292114258 L10.305749893188477 7.720246315002441"></path>
<path fill="none" stroke="black" stroke-width=".3" stroke-opacity="1.0"  filling="0" d="M16.05674934387207 8.030746459960938 L16.272748947143555 8.246747016906738 L16.05674934387207 8.030746459960938"></path>
<path fill="none" stroke="black" stroke-width=".3" stroke-opacity="1.0"  filling="0" d="M13.194748878479004 8.11849594116211 L13.410749435424805 8.33449649810791 L13.194748878479004 8.11849594116211"></path>
<path fill="none" stroke="black" stroke-width=".3" stroke-opacity="1.0"  filling="0" d="M16.05674934387207 8.462746620178223 L16.272748947143555 8.678747177124023 L16.05674934387207 8.462746620178223"></path>
<path fill="none" stroke="black" stroke-width=".3" stroke-opacity="1.0"  filling="0" d="M13.194748878479004 8.550497055053711 L13.410749435424805 8.550497055053711 L13.410749435424805 9.191746711730957 L13.194748878479004 9.191746711730957 L13.194748878479004 8.550497055053711"></path>
<path fill="none" stroke="black" stroke-width=".3" stroke-opacity="1.0"  filling="0" d="M16.05674934387207 8.894746780395508 L16.272748947143555 9.103996276855469 L16.05674934387207 8.894746780395508"></path>
<path fill="none" stroke="black" stroke-width=".3" stroke-opacity="1.0"  filling="0" d="M10.359749794006348 9.799245834350586 L10.359749794006348 9.799245834350586 C10.502424240112305 9.799245834350586 10.499101638793945 9.832475662231445 10.548748970031738 9.947748184204102 L10.548749923706055 12.70849609375 L13.127248764038086 12.70849609375 L13.127248764038086 9.947747230529785 C13.25174617767334 9.776564598083496 13.31956672668457 9.739070892333984 13.410749435424805 9.947748184204102 L13.410749435424805 12.70849609375 L16.070249557495117 12.70849609375 L16.070249557495117 9.947747230529785 C16.200057983398438 9.779759407043457 16.268238067626953 9.736593246459961 16.36050033569336 9.947747230529785 L16.36050033569336 12.823246955871582 C16.36050033569336 12.860158920288086 16.36775779724121 12.890239715576172 16.34025001525879 12.917747497558594 L16.34025001525879 12.917747497558594 C16.325868606567383 12.975236892700195 16.272014617919922 12.985429763793945 16.21875 12.998746871948242 L13.410749435424805 12.998746871948242 L13.410749435424805 15.75949764251709 C13.359027862548828 15.982426643371582 13.178969383239746 15.982425689697266 13.127248764038086 15.75949764251709 L13.127248764038086 12.998746871948242 L10.548749923706055 12.998746871948242 L10.548749923706055 15.75949764251709 C10.47645092010498 15.94986343383789 10.330799102783203 15.949865341186523 10.258499145507812 15.75949764251709 L10.258499145507812 12.998746871948242 L7.504500389099121 12.998746871948242 C7.4887495040893555 12.998746871948242 7.473001003265381 12.998746871948242 7.457249641418457 12.998746871948242 L7.457249641418457 12.998746871948242 C7.454999923706055 12.994246482849121 7.452749729156494 12.989747047424316 7.450500011444092 12.985246658325195 L7.450500011444092 12.985246658325195 C7.446000099182129 12.985246658325195 7.441499710083008 12.985246658325195 7.436999797821045 12.985246658325195 L7.436999797821045 12.985246658325195 C7.436999797821045 12.982996940612793 7.436999797821045 12.980746269226074 7.436999797821045 12.978496551513672 L7.436999797821045 12.978496551513672 C7.427999496459961 12.978496551513672 7.419000625610352 12.978496551513672 7.410000324249268 12.978496551513672 L7.410000324249268 12.978496551513672 C7.410000324249268 12.97624683380127 7.409999847412109 12.973997116088867 7.409999847412109 12.971747398376465 L7.409999847412109 12.971747398376465 C7.407750129699707 12.971747398376465 7.4054999351501465 12.971747398376465 7.403250217437744 12.971747398376465 L7.403250217437744 12.971747398376465 C7.403250217437744 12.967247009277344 7.403250217437744 12.962745666503906 7.403250217437744 12.958245277404785 L7.403250217437744 12.958245277404785 C7.386894226074219 12.902168273925781 7.355999946594238 12.847908973693848 7.355999946594238 12.789495468139648 L7.389749526977539 10.102997779846191 C7.512591361999512 9.922829627990723 7.591408729553223 9.888182640075684 7.6867499351501465 10.102998733520508 L7.646250247955322 12.70849609375 L10.258499145507812 12.70849609375 L10.258499145507812 9.947747230529785 C10.29224967956543 9.898246765136719 10.32599925994873 9.848747253417969 10.359749794006348 9.799246788024902 L10.359749794006348 9.799246788024902"></path>
<path fill="none" stroke="black" stroke-width=".3" stroke-opacity="1.0"  filling="0" d="M13.241999626159668 16.252246856689453 L13.592999458312988 16.98799705505371 L12.890999794006348 16.98799705505371 L13.241999626159668 16.252246856689453"></path>
<path fill="none" stroke="black" stroke-width=".3" stroke-opacity="1.0"  filling="0" d="M10.413749694824219 16.312997817993164 L10.764749526977539 17.04874610900879 L10.062749862670898 17.04874610900879 L10.413749694824219 16.312997817993164"></path>
<path fill="none" stroke="black" stroke-width=".3" stroke-opacity="1.0"  filling="0" d="M13.13399887084961 17.203996658325195 L13.34999942779541 17.41999626159668 L13.13399887084961 17.203996658325195"></path>
<path fill="none" stroke="black" stroke-width=".3" stroke-opacity="1.0"  filling="0" d="M10.305749893188477 17.264745712280273 L10.521750450134277 17.480745315551758 L10.305749893188477 17.264745712280273"></path>
<path fill="none" stroke="black" stroke-width=".3" stroke-opacity="1.0"  filling="0" d="M13.13399887084961 17.635995864868164 L13.34999942779541 17.85199737548828 L13.13399887084961 17.635995864868164"></path>
<path fill="none" stroke="black" stroke-width=".3" stroke-opacity="1.0"  filling="0" d="M10.305749893188477 17.696746826171875 L10.521750450134277 17.91274642944336 L10.305749893188477 17.696746826171875"></path>
<path fill="none" stroke="black" stroke-width=".3" stroke-opacity="1.0"  filling="0" d="M13.13399887084961 18.067996978759766 L13.34999942779541 18.28399658203125 L13.13399887084961 18.067996978759766"></path>
<path fill="none" stroke="black" stroke-width=".3" stroke-opacity="1.0"  filling="0" d="M10.305749893188477 18.128746032714844 L10.521750450134277 18.128746032714844 L10.521750450134277 19.633996963500977 L10.305749893188477 19.633996963500977 L10.305749893188477 18.128746032714844"></path>
<path fill="none" stroke="black" stroke-width=".3" stroke-opacity="1.0"  filling="0" d="M13.13399887084961 18.499996185302734 L13.34999942779541 18.71599769592285 L13.13399887084961 18.499996185302734"></path>
<path fill="none" stroke="black" stroke-width=".3" stroke-opacity="1.0"  filling="0" d="M13.13399887084961 18.931997299194336 L13.34999942779541 18.931997299194336 L13.34999942779541 19.573246002197266 L13.13399887084961 19.573246002197266 L13.13399887084961 18.931997299194336"></path></svg>