<svg xmlns="http://www.w3.org/2000/svg" viewBox="0.0 0.0 24.0 24.0" height="200px" width="200px"><path fill="none" stroke="black" stroke-width=".3" stroke-opacity="1.0"  filling="0" d="M12.198936462402344 2.062272071838379 L12.198936462402344 2.062272071838379 C13.898638725280762 2.233607053756714 15.4828519821167 2.602084159851074 16.8911190032959 3.297018051147461 C18.29938507080078 3.9919519424438477 19.53170394897461 5.01334285736084 20.527620315551758 6.490504264831543 C21.999696731567383 8.673916816711426 22.441959381103516 11.141719818115234 22.085060119628906 13.461716651916504 C21.728160858154297 15.781713485717773 20.572099685668945 17.953907012939453 18.8475284576416 19.546098709106445 C17.122957229614258 21.13829231262207 14.829875946044922 22.15048599243164 12.198936462402344 22.15048599243164 C9.567997932434082 22.15048599243164 7.274916648864746 21.13829231262207 5.550345420837402 19.546098709106445 C3.825774669647217 17.953907012939453 2.6697134971618652 15.781713485717773 2.3128137588500977 13.461716651916504 C1.9559141397476196 11.141719818115234 2.3981759548187256 8.673917770385742 3.870250940322876 6.490504264831543 C4.866165637969971 5.013342380523682 6.098486423492432 3.9919517040252686 7.506753444671631 3.297017812728882 C8.915020942687988 2.602084159851074 10.499235153198242 2.233607053756714 12.198936462402344 2.062272071838379 L12.198936462402344 2.062272071838379"></path>
<path fill="none" stroke="black" stroke-width=".3" stroke-opacity="1.0"  filling="0" d="M9.124176025390625 7.665096282958984 L9.124176025390625 7.665096282958984 C9.488568305969238 8.076864242553711 10.217351913452148 8.350550651550293 10.217351913452148 8.900400161743164 C10.217351913452148 10.54804801940918 8.031000137329102 10.54804801940918 8.031000137329102 8.900400161743164 C8.031000137329102 8.350550651550293 8.759783744812012 8.076864242553711 9.124176025390625 7.665096282958984 L9.124176025390625 7.665096282958984"></path>
<path fill="none" stroke="black" stroke-width=".3" stroke-opacity="1.0"  filling="0" d="M15.000240325927734 7.665096282958984 L15.000240325927734 7.665096282958984 C15.364704132080078 8.076864242553711 16.093631744384766 8.350502967834473 16.093631744384766 8.900400161743164 C16.093631744384766 9.45040512084961 15.55024528503418 10.136136054992676 15.000240325927734 10.136136054992676 C14.45033073425293 10.136136054992676 13.907280921936035 9.450309753417969 13.907280921936035 8.900400161743164 C13.907280921936035 8.350598335266113 14.635920524597168 8.076864242553711 15.000240325927734 7.665096282958984 L15.000240325927734 7.665096282958984"></path>
<path fill="none" stroke="black" stroke-width=".3" stroke-opacity="1.0"  filling="0" d="M12.079487800598145 18.926902770996094 L12.079487800598145 18.926902770996094 C9.686909675598145 18.628341674804688 7.518762588500977 17.98720932006836 6.186179161071777 15.774064064025879 C5.904365539550781 15.3060302734375 5.5498270988464355 14.811081886291504 5.547216415405273 14.26476001739502 C5.546100616455078 14.03123664855957 5.967408657073975 14.060855865478516 6.177504539489746 13.958903312683105 L6.177504539489746 13.958903312683105 C6.859622001647949 15.454980850219727 6.839859485626221 15.923266410827637 8.251265525817871 16.927364349365234 C10.094228744506836 18.238479614257812 12.099812507629395 18.432941436767578 13.858166694641113 17.831335067749023 C15.616519927978516 17.22972869873047 17.127643585205078 15.832056045532227 17.981687545776367 13.958903312683105 L17.981687545776367 13.958903312683105 C19.407922744750977 14.61638355255127 17.663511276245117 16.365331649780273 16.93609619140625 17.05249786376953 C15.507979393005371 18.401596069335938 13.946703910827637 18.69351577758789 12.079487800598145 18.926902770996094 L12.079487800598145 18.926902770996094"></path></svg>