<svg xmlns="http://www.w3.org/2000/svg" viewBox="0.0 0.0 24.0 24.0" height="200px" width="200px"><path fill="none" stroke="black" stroke-width=".3" stroke-opacity="1.0"  filling="0" d="M15.859704971313477 4.440000534057617 L15.859704971313477 4.440000534057617 C16.64362144470215 4.785429000854492 17.31502914428711 5.5141401290893555 17.615999221801758 6.316176414489746 L17.615999221801758 12.260496139526367 C17.315357208251953 13.068732261657715 16.646121978759766 13.806193351745605 15.859704971313477 14.15999984741211 L13.877256393432617 14.15999984741211 L11.999135971069336 17.172767639160156 L10.120800018310547 14.15999984741211 L8.138352394104004 14.15999984741211 C7.295691967010498 13.81057357788086 6.543986797332764 13.091861724853516 6.168000221252441 12.260712623596191 L6.168000221252441 6.316176414489746 C6.544480323791504 5.491104602813721 7.298107624053955 4.781276702880859 8.138352394104004 4.440000534057617 L11.999029159545898 4.440000534057617 L15.859704971313477 4.440000534057617"></path>
<path fill="none" stroke="black" stroke-width=".3" stroke-opacity="1.0"  filling="0" d="M9.871319770812988 7.393584251403809 L9.871319770812988 7.393584251403809 C10.007543563842773 7.157637596130371 10.044044494628906 6.821967601776123 10.279991149902344 6.685743808746338 C11.811073303222656 5.801773548126221 11.81107234954834 8.985395431518555 10.279991149902344 8.101425170898438 C10.044044494628906 7.965201377868652 10.007543563842773 7.629531383514404 9.871319770812988 7.393584251403809 L9.871319770812988 7.393584251403809"></path>
<path fill="none" stroke="black" stroke-width=".3" stroke-opacity="1.0"  filling="0" d="M12.203904151916504 7.393584251403809 L12.203904151916504 7.393584251403809 C12.515647888183594 6.8536272048950195 13.838591575622559 5.914380073547363 13.838591575622559 7.393584251403809 C13.838591575622559 8.87278938293457 12.515647888183594 7.933540344238281 12.203904151916504 7.393584251403809 L12.203904151916504 7.393584251403809"></path>
<path fill="none" stroke="black" stroke-width=".3" stroke-opacity="1.0"  filling="0" d="M10.380000114440918 9.84000015258789 L14.638223648071289 9.84000015258789 C14.292623519897461 10.253567695617676 13.947023391723633 10.667136192321777 13.601423263549805 11.080703735351562 L13.601423263549805 11.080703735351562 C12.58461856842041 12.752870559692383 11.342432022094727 12.735363960266113 10.35084056854248 11.051544189453125 L10.35084056854248 11.051544189453125 C10.02050495147705 10.647696495056152 9.690168380737305 10.243847846984863 9.359832763671875 9.84000015258789 L10.380000114440918 9.84000015258789"></path>
<path fill="none" stroke="black" stroke-width=".3" stroke-opacity="1.0"  filling="0" d="M12.86400032043457 10.751304626464844 L12.86400032043457 10.751304626464844 C12.539999961853027 11.088408470153809 12.359562873840332 11.762616157531738 11.892000198364258 11.762616157531738 C11.424437522888184 11.762616157531738 11.244000434875488 11.088408470153809 10.920000076293945 10.751304626464844 L10.920000076293945 10.48799991607666 L12.86400032043457 10.48799991607666 L12.86400032043457 10.751304626464844"></path>
<path fill="none" stroke="black" stroke-width=".3" stroke-opacity="1.0"  filling="0" d="M16.751998901367188 12.260496139526367 L16.751998901367188 12.260496139526367 C16.454566955566406 12.605664253234863 16.157136917114258 12.950831413269043 15.859704971313477 13.295999526977539 L13.397736549377441 13.295999526977539 L11.998919486999512 15.539592742919922 L10.600320816040039 13.295999526977539 L8.138352394104004 13.295999526977539 C7.76956844329834 12.950831413269043 7.400784015655518 12.605664253234863 7.0320000648498535 12.260496139526367 L7.0320000648498535 6.316176414489746 C7.400784015655518 5.978784084320068 7.76956844329834 5.641392230987549 8.138352394104004 5.303999900817871 L11.999029159545898 5.303999900817871 L15.859704971313477 5.303999900817871 C16.157136917114258 5.641392230987549 16.454566955566406 5.978784084320068 16.751998901367188 6.316176414489746 L16.751998901367188 12.260496139526367"></path>
<path fill="none" stroke="black" stroke-width=".3" stroke-opacity="1.0"  filling="0" d="M9.229151725769043 18.566184997558594 L9.229151725769043 18.566184997558594 C10.422816276550293 17.77056884765625 11.688122749328613 17.104938507080078 13.19555950164795 17.684938430786133 C13.68986988067627 17.87512969970703 14.517695426940918 18.036548614501953 14.517695426940918 18.566184997558594 C14.517695426940918 19.095821380615234 13.68986988067627 19.257240295410156 13.19555950164795 19.447431564331055 C11.68812370300293 20.02743148803711 10.422815322875977 19.361801147460938 9.229151725769043 18.566184997558594 L9.229151725769043 18.566184997558594"></path></svg>