<svg xmlns="http://www.w3.org/2000/svg" viewBox="0.0 0.0 24.0 24.0" height="200px" width="200px"><path fill="none" stroke="black" stroke-width=".3" stroke-opacity="1.0"  filling="0" d="M9.703056335449219 9.306695938110352 L9.703056335449219 9.306695938110352 C9.27177619934082 9.4887113571167 8.840496063232422 9.670727729797363 8.409215927124023 9.852743148803711 L10.392960548400879 7.610016345977783 C10.615516662597656 7.572969913482666 10.836711883544922 7.525625228881836 11.054352760314941 7.466160297393799 L11.054352760314941 7.466160297393799 C11.198064804077148 7.94539213180542 11.377754211425781 8.415276527404785 11.485487937927246 8.90385627746582 C11.522635459899902 9.072320938110352 11.653756141662598 9.383362770080566 11.485487937927246 9.421392440795898 C10.904762268066406 9.552639961242676 10.297200202941895 9.344927787780762 9.703056335449219 9.306695938110352 L9.703056335449219 9.306695938110352"></path>
<path fill="none" stroke="black" stroke-width=".3" stroke-opacity="1.0"  filling="0" d="M7.661856174468994 9.82423210144043 L7.661856174468994 9.82423210144043 C7.335984230041504 9.718751907348633 6.869490623474121 9.795890808105469 6.684239864349365 9.507792472839355 C6.082610607147217 8.572148323059082 6.780275344848633 7.368374824523926 8.03553581237793 7.955399990081787 C8.384204864501953 8.11845588684082 8.284799575805664 8.683752059936523 8.409431457519531 9.047927856445312 L7.661856174468994 9.82423210144043"></path>
<path fill="none" stroke="black" stroke-width=".3" stroke-opacity="1.0"  filling="0" d="M21.894094467163086 11.003159523010254 L21.894094467163086 11.003159523010254 C22.12406349182129 11.348112106323242 22.35403060913086 11.693063735961914 22.583999633789062 12.038016319274902 L22.583999633789062 12.038016319274902 C21.985843658447266 12.462930679321289 21.286481857299805 12.764801025390625 20.57152557373047 12.92966365814209 L20.22614288330078 13.131192207336426 C20.871257781982422 15.194393157958984 20.593950271606445 16.017404556274414 18.616294860839844 15.402647972106934 L18.616294860839844 15.402647972106934 C18.59699821472168 15.987288475036621 18.57770347595215 16.571928024291992 18.558406829833984 17.15656852722168 L18.558406829833984 17.15656852722168 C17.849199295043945 17.1724853515625 17.135713577270508 17.180599212646484 16.43102264404297 17.099111557006836 L16.287384033203125 16.006366729736328 C15.907425880432129 16.266132354736328 15.512443542480469 16.504671096801758 15.108455657958984 16.725215911865234 L15.108455657958984 16.725215911865234 C16.204267501831055 18.21663475036621 17.713642120361328 18.888641357421875 18.75993537902832 20.31902313232422 L18.75993537902832 20.31902313232422 C19.210512161254883 20.270998001098633 19.661087036132812 20.22297477722168 20.111663818359375 20.174949645996094 L20.111663818359375 20.174949645996094 C18.495553970336914 21.03682518005371 16.159271240234375 20.296916961669922 14.5621919631958 19.974071502685547 C12.55942153930664 19.569217681884766 10.29892349243164 18.780460357666016 8.037703514099121 18.31112289428711 C5.776483535766602 17.84178352355957 3.5145413875579834 17.69186019897461 1.508880615234375 18.56467056274414 L1.508880615234375 18.56467056274414 C3.087062358856201 17.433542251586914 5.13181209564209 17.520048141479492 6.973518371582031 17.808134078979492 C8.575650215148926 18.058744430541992 10.159595489501953 18.443561553955078 11.74040412902832 18.847597122192383 C13.32121467590332 19.251632690429688 14.89888858795166 19.674884796142578 16.488479614257812 20.002365112304688 L16.488479614257812 20.002365112304688 C16.45975112915039 19.89695930480957 16.4310245513916 19.79155158996582 16.40229606628418 19.686145782470703 L16.40229606628418 19.686145782470703 C14.263872146606445 19.323543548583984 11.937976837158203 18.481422424316406 9.598861694335938 17.88144302368164 C7.2597455978393555 17.281465530395508 4.90740966796875 16.923629760742188 2.716104507446289 17.529598236083984 L2.716104507446289 17.529598236083984 C2.3982272148132324 17.083572387695312 1.9305452108383179 16.712804794311523 1.7624726295471191 16.19152069091797 C0.7538274526596069 13.063167572021484 5.21484375 13.166312217712402 6.930588245391846 13.665170669555664 C8.805052757263184 14.210177421569824 10.515364646911621 15.312440872192383 12.28985595703125 16.097047805786133 C12.803627014160156 16.324216842651367 13.32711124420166 16.529315948486328 13.852720260620117 16.72756004333496 C14.137903213500977 16.83512306213379 14.801092147827148 17.1134090423584 14.763288497924805 16.81096839904785 L12.779328346252441 16.092119216918945 C12.587663650512695 15.977063179016113 12.395999908447266 15.862008094787598 12.20433521270752 15.746952056884766 L12.20433521270752 15.746952056884766 C12.280943870544434 15.248640060424805 12.357551574707031 14.750327110290527 12.434160232543945 14.252015113830566 L12.31924819946289 14.166048049926758 C11.84001636505127 14.367216110229492 11.386632919311523 14.892128944396973 10.881551742553711 14.769552230834961 C9.87397575378418 14.52502727508545 10.645955085754395 11.986088752746582 10.76685619354248 11.405783653259277 L10.76685619354248 11.405783653259277 C10.538012504577637 11.136490821838379 10.309713363647461 10.866692543029785 10.076736450195312 10.600967407226562 L10.076736450195312 10.600967407226562 C9.980783462524414 12.029542922973633 9.912246704101562 13.409998893737793 10.162919998168945 14.827439308166504 L10.162919998168945 14.827439308166504 C8.731101036071777 14.194182395935059 7.386368751525879 13.601178169250488 5.878992557525635 13.159704208374023 L5.217600345611572 13.073304176330566 C5.227176189422607 12.96782398223877 5.236752510070801 12.862344741821289 5.246328353881836 12.756864547729492 L5.246328353881836 12.756864547729492 C5.312853813171387 12.479771614074707 5.542912483215332 12.06462574005127 5.821536540985107 12.12441635131836 L10.27783203125 7.235904216766357 C9.886734008789062 6.610499858856201 10.328612327575684 6.384317398071289 10.910280227661133 6.546000003814697 L11.715312004089355 5.683512210845947 C11.900115013122559 5.067871570587158 12.184894561767578 3.2943389415740967 13.21068000793457 3.182016372680664 C15.253763198852539 2.9583005905151367 13.82521915435791 4.909799098968506 13.584360122680664 5.1085205078125 C13.11487865447998 5.495868682861328 12.49183177947998 5.645352363586426 11.945568084716797 5.913768291473389 L11.19820785522461 6.804984092712402 C11.593125343322754 7.266023635864258 13.381425857543945 9.751739501953125 12.290520668029785 10.197912216186523 C11.712910652160645 10.434150695800781 11.008585929870605 10.263779640197754 10.450416564941406 10.542864799499512 L11.025623321533203 11.261712074279785 C11.255671501159668 11.343907356262207 11.46324634552002 11.568891525268555 11.514431953430176 11.807760238647461 L11.514431953430176 11.807760238647461 C12.53194808959961 13.215442657470703 13.5487699508667 14.623600006103516 14.5621919631958 16.03423309326172 L14.5621919631958 16.03423309326172 C14.71569538116455 16.05338478088379 14.869199752807617 16.07253646850586 15.022703170776367 16.09168815612793 L15.022703170776367 16.09168815612793 C15.688145637512207 15.51463508605957 15.50496768951416 15.460643768310547 15.051431655883789 14.683152198791504 L14.907360076904297 14.65399169921875 C14.8203763961792 15.037243843078613 14.733901023864746 15.420611381530762 14.64837646484375 15.804191589355469 L12.49247932434082 12.92901611328125 C14.713279724121094 12.639581680297852 15.155963897705078 13.30931282043457 16.258872985839844 15.200688362121582 L16.258872985839844 14.827007293701172 C16.806549072265625 14.544818878173828 17.42520523071289 14.337984085083008 18.041305541992188 14.337984085083008 L19.450271606445312 13.303128242492676 C19.3199462890625 12.783278465270996 19.741016387939453 12.592331886291504 20.140392303466797 12.87177562713623 L20.140392303466797 12.87177562713623 C20.865623474121094 12.145328521728516 20.982215881347656 11.58245849609375 21.894094467163086 11.003159523010254 L21.894094467163086 11.003159523010254"></path>
<path fill="none" stroke="black" stroke-width=".3" stroke-opacity="1.0"  filling="0" d="M13.038527488708496 11.520479202270508 L13.038527488708496 11.520479202270508 C13.345175743103027 11.223335266113281 13.531927108764648 10.609375953674316 13.95847225189209 10.629047393798828 C14.70488166809082 10.663469314575195 15.723162651062012 12.60842227935791 13.95847225189209 12.527039527893066 C13.504414558410645 12.506099700927734 13.345175743103027 11.855998992919922 13.038527488708496 11.520479202270508 L13.038527488708496 11.520479202270508"></path>
<path fill="none" stroke="black" stroke-width=".3" stroke-opacity="1.0"  filling="0" d="M7.287960052490234 12.95796012878418 L7.287960052490234 12.95796012878418 C6.907326698303223 12.90042781829834 6.399188041687012 12.910757064819336 6.195216178894043 12.584280014038086 L6.223944664001465 12.182087898254395 C6.444583415985107 11.941486358642578 6.679314613342285 11.40386962890625 6.971519947052002 11.549424171447754 L6.971519947052002 11.549424171447754 C7.119924545288086 12.007183074951172 7.327649116516113 12.478384971618652 7.287960052490234 12.95796012878418 L7.287960052490234 12.95796012878418"></path>
<path fill="none" stroke="black" stroke-width=".3" stroke-opacity="1.0"  filling="0" d="M11.112024307250977 13.734264373779297 L11.112024307250977 13.734264373779297 C11.07770824432373 12.30298137664795 10.937021255493164 11.613107681274414 12.031967163085938 13.10159969329834 L12.031967163085938 13.10159969329834 C11.725319862365723 13.312487602233887 11.418671607971191 13.52337646484375 11.112024307250977 13.734264373779297 L11.112024307250977 13.734264373779297"></path>
<path fill="none" stroke="black" stroke-width=".3" stroke-opacity="1.0"  filling="0" d="M19.96780776977539 13.734264373779297 L19.96780776977539 13.734264373779297 C19.918134689331055 14.168461799621582 20.050064086914062 15.091283798217773 19.62285614013672 14.99915885925293 C19.17852020263672 14.903340339660645 18.7984561920166 14.615975379943848 18.38625717163086 14.424384117126465 L19.910350799560547 13.532951354980469 C19.929502487182617 13.600055694580078 19.94865608215332 13.667160034179688 19.96780776977539 13.734264373779297 L19.96780776977539 13.734264373779297"></path>
<path fill="none" stroke="black" stroke-width=".3" stroke-opacity="1.0"  filling="0" d="M17.09241485595703 14.194343566894531 L17.09241485595703 14.194343566894531 C16.79534339904785 13.906847953796387 16.19437599182129 13.745206832885742 16.20119857788086 13.331855773925781 C16.2213191986084 12.112702369689941 18.004009246826172 12.154692649841309 17.983633041381836 13.389311790466309 C17.977025985717773 13.789583206176758 17.389488220214844 13.925999641418457 17.09241485595703 14.194343566894531 L17.09241485595703 14.194343566894531"></path>
<path fill="none" stroke="black" stroke-width=".3" stroke-opacity="1.0"  filling="0" d="M20.916263580322266 17.155920028686523 L20.916263580322266 17.155920028686523 C21.146303176879883 17.683103561401367 21.665170669555664 18.16529655456543 21.60638427734375 18.737472534179688 C21.49573516845703 19.814428329467773 19.620641708374023 19.650691986083984 18.55819320678711 19.858728408813477 L18.55819320678711 19.858728408813477 C17.595287322998047 18.771190643310547 16.51043128967285 18.39654541015625 15.683231353759766 17.155920028686523 L15.683231353759766 17.155920028686523 C17.480125427246094 17.5950984954834 19.114322662353516 17.14539909362793 20.916263580322266 17.155920028686523 L20.916263580322266 17.155920028686523"></path></svg>