<svg xmlns="http://www.w3.org/2000/svg" viewBox="0.0 0.0 24.0 24.0" height="200px" width="200px"><path fill="none" stroke="black" stroke-width=".3" stroke-opacity="1.0"  filling="0" d="M11.990927696228027 7.503528118133545 L11.990927696228027 7.503528118133545 C11.670293807983398 7.867668151855469 11.314067840576172 8.203322410583496 11.02902603149414 8.595948219299316 C10.92455768585205 8.739845275878906 10.978808403015137 9.20029067993164 10.836623191833496 9.093503952026367 C10.495407104492188 8.837239265441895 10.615863800048828 8.101584434509277 10.207200050354004 7.978728294372559 C9.577733039855957 7.789491653442383 8.922439575195312 8.319101333618164 8.265144348144531 8.320440292358398 C6.865749359130859 8.323290824890137 4.421029090881348 7.090268135070801 3.4685401916503906 6.106548309326172 C3.10866641998291 5.734874725341797 2.673518657684326 5.233850955963135 2.762761116027832 4.724256992340088 C3.0650877952575684 2.997903347015381 4.847849369049072 3.591459274291992 5.801664352416992 3.7174806594848633 C7.182822227478027 3.8999640941619873 8.571785926818848 4.097825050354004 9.694635391235352 4.624390125274658 C10.817485809326172 5.150955677032471 11.674222946166992 6.0062255859375 11.990927696228027 7.503528118133545 L11.990927696228027 7.503528118133545"></path>
<path fill="none" stroke="black" stroke-width=".3" stroke-opacity="1.0"  filling="0" d="M12.131328582763672 7.907016754150391 L12.419039726257324 7.763160228729248 C13.816628456115723 5.680270195007324 15.160476684570312 5.787232875823975 17.562000274658203 5.368800163269043 L17.562000274658203 5.368800163269043 C18.327550888061523 5.402809143066406 21.894338607788086 5.212059020996094 21.08625602722168 7.439591884613037 C20.927583694458008 7.876982688903809 20.28199005126953 7.91796875 19.845439910888672 8.078936576843262 C17.685617446899414 8.87531852722168 15.3338623046875 9.472060203552246 13.138319969177246 8.572296142578125 L13.138319969177246 8.572296142578125 C12.931777954101562 9.576242446899414 12.550566673278809 10.711099624633789 12.600263595581055 11.793071746826172 C12.609735488891602 11.999295234680176 12.638962745666504 10.968465805053711 12.63804817199707 11.174903869628906 C12.630741119384766 12.82381820678711 12.59503173828125 14.473943710327148 12.551789283752441 16.12388801574707 C12.50854778289795 17.773834228515625 12.457773208618164 19.423595428466797 12.42033576965332 21.0717830657959 L10.836623191833496 20.63805389404297 C10.878539085388184 18.630218505859375 10.696512222290039 16.337160110473633 10.756858825683594 14.10120964050293 C10.817204475402832 11.865259170532227 11.119922637939453 9.686416625976562 12.131328582763672 7.907016754150391 L12.131328582763672 7.907016754150391"></path></svg>