<svg xmlns="http://www.w3.org/2000/svg" viewBox="0.0 0.0 24.0 24.0" height="200px" width="200px"><path fill="none" stroke="black" stroke-width=".3" stroke-opacity="1.0"  filling="0" d="M19.007904052734375 4.00908088684082 L19.007904052734375 10.310880661010742 L19.007904052734375 16.612680435180664 C16.562625885009766 16.950170516967773 14.516336441040039 17.619251251220703 12.302183151245117 18.707664489746094 L12.302183151245117 12.4342679977417 L12.302183151245117 6.160871982574463 C14.514034271240234 5.0435028076171875 16.553062438964844 4.357369899749756 19.007904052734375 4.00908088684082 L19.007904052734375 4.00908088684082"></path>
<path fill="none" stroke="black" stroke-width=".3" stroke-opacity="1.0"  filling="0" d="M11.906904220581055 6.160871982574463 L11.906904220581055 12.434374809265137 L11.906904220581055 18.70787811279297 C9.69271469116211 17.619548797607422 7.6464643478393555 16.950380325317383 5.201184272766113 16.612895965576172 L5.201184272766113 10.310988426208496 L5.201184272766113 4.00908088684082 C7.656081199645996 4.357250213623047 9.69502067565918 5.043506622314453 11.906904220581055 6.160871982574463 L11.906904220581055 6.160871982574463"></path>
<path fill="none" stroke="black" stroke-width=".3" stroke-opacity="1.0"  filling="0" d="M21.197063446044922 6.817944526672363 L21.197063446044922 13.158300399780273 L21.197063446044922 19.4986572265625 C21.121896743774414 19.552513122558594 21.046728134155273 19.606369018554688 20.971561431884766 19.66022491455078 L20.971561431884766 19.66022491455078 C19.464094161987305 19.506328582763672 18.084110260009766 19.499717712402344 16.713153839111328 19.606462478637695 C15.342195510864258 19.71320915222168 13.980262756347656 19.933311462402344 12.508895874023438 20.232837677001953 C11.208500862121582 20.497560501098633 9.63546085357666 19.66643714904785 8.333518028259277 19.53171730041504 C6.615880012512207 19.353981018066406 4.946026802062988 19.485788345336914 3.2370967864990234 19.66022491455078 L3.2370967864990234 19.66022491455078 C3.16192889213562 19.606369018554688 3.0867607593536377 19.552513122558594 3.0115928649902344 19.4986572265625 L3.0115928649902344 13.158300399780273 L3.0115928649902344 6.817944526672363 C3.2447288036346436 6.793824195861816 3.4778645038604736 6.769704341888428 3.711000442504883 6.745584011077881 L3.711000442504883 12.528984069824219 L3.711000442504883 18.3123836517334 L3.919872283935547 18.300289154052734 C5.347957134246826 18.292226791381836 6.680147171020508 18.414146423339844 7.98757266998291 18.667875289916992 C9.294998168945312 18.92160415649414 10.577659606933594 19.307144165039062 11.906688690185547 19.826326370239258 L12.302183151245117 19.826326370239258 C13.631155014038086 19.3071231842041 14.913789749145508 18.921619415283203 16.221189498901367 18.66791534423828 C17.528589248657227 18.414209365844727 18.86075210571289 18.292301177978516 20.28878402709961 18.300289154052734 L20.497873306274414 18.3123836517334 L20.497873306274414 12.528984069824219 L20.497873306274414 6.745584011077881 C20.73093605041504 6.769704341888428 20.964000701904297 6.793824195861816 21.197063446044922 6.817944526672363 L21.197063446044922 6.817944526672363"></path>
<path fill="none" stroke="black" stroke-width=".3" stroke-opacity="1.0"  filling="0" d="M11.833464622497559 19.35976791381836 L11.833464622497559 19.35976791381836 C10.52944564819336 18.878334045410156 9.292767524719238 18.522289276123047 8.03453540802002 18.281620025634766 C6.776302814483643 18.040950775146484 5.496516227722168 17.91565704345703 4.106280326843262 17.895719528198242 L4.106280326843262 11.656452178955078 L4.106280326843262 5.417184352874756 C4.339488506317139 5.413224220275879 4.572696208953857 5.40926456451416 4.805904388427734 5.405304431915283 L4.898136138916016 11.199504852294922 L4.990368366241455 16.99370574951172 C6.8249006271362305 17.230106353759766 8.504860877990723 17.561552047729492 10.212681770324707 18.311126708984375 C10.901545524597168 18.613473892211914 11.605687141418457 19.448394775390625 12.302183151245117 19.16407012939453 C14.691093444824219 18.18886375427246 16.61927032470703 17.32866859436035 19.218719482421875 16.99370574951172 L19.31073570251465 11.199504852294922 L19.402751922607422 5.405304431915283 C19.636032104492188 5.40926456451416 19.869312286376953 5.413224220275879 20.10259246826172 5.417184352874756 L20.10259246826172 11.656452178955078 L20.10259246826172 17.895719528198242 C18.088943481445312 17.92509651184082 16.219249725341797 18.059785842895508 14.27818489074707 18.65776824951172 C13.467925071716309 18.907384872436523 12.681292533874512 19.363862991333008 11.833464622497559 19.35976791381836 L11.833464622497559 19.35976791381836"></path></svg>