<svg xmlns="http://www.w3.org/2000/svg" viewBox="0.0 0.0 24.0 24.0" height="200px" width="200px"><path fill="none" stroke="black" stroke-width=".3" stroke-opacity="1.0"  filling="0" d="M19.559999465942383 1.2000007629394531 L17.885351181030273 1.2000007629394531 C17.885351181030273 2.618184804916382 17.885351181030273 4.036368370056152 17.885351181030273 5.45455265045166 C17.885351181030273 6.87273645401001 17.885351181030273 8.29092025756836 17.885351181030273 9.709104537963867 L17.885351181030273 9.709104537963867 C17.37631607055664 9.709104537963867 16.867265701293945 9.709104537963867 16.358230590820312 9.709104537963867 L16.358230590820312 9.709104537963867 C15.764017105102539 9.183796882629395 15.223048210144043 8.332056999206543 14.741039276123047 7.724279880523682 L14.741039276123047 7.724279880523682 C14.741039276123047 6.6060051918029785 11.767398834228516 6.847012519836426 11.585495948791504 6.845376491546631 C9.100860595703125 6.823032855987549 8.547052383422852 6.603929042816162 7.471776008605957 8.591520309448242 C7.18471097946167 9.12214469909668 6.782621383666992 9.610505104064941 6.77128791809082 10.225992202758789 C6.76479959487915 10.578364372253418 7.253485679626465 10.618013381958008 7.27716064453125 10.79947280883789 L7.27716064453125 10.79947280883789 C8.437087059020996 10.79947280883789 8.637016296386719 9.404682159423828 9.104087829589844 8.508359909057617 L9.104087829589844 8.508359909057617 C9.649714469909668 8.508359909057617 10.19530963897705 8.508359909057617 10.740936279296875 8.508359909057617 L10.740936279296875 8.508359909057617 C10.30400276184082 9.586872100830078 9.540375709533691 10.818099975585938 9.456815719604492 11.999783515930176 L9.455520629882812 11.999783515930176 C9.351500511169434 13.192388534545898 9.239919662475586 14.383040428161621 9.103656768798828 15.572423934936523 L9.103656768798828 15.572423934936523 C6.748715400695801 15.84148120880127 5.500486850738525 14.860639572143555 4.439784049987793 17.23583984375 L4.439784049987793 17.23583984375 C5.614563941955566 17.37006378173828 6.857710361480713 17.25702476501465 8.03985595703125 17.2630558013916 C8.80483627319336 17.266958236694336 9.848051071166992 17.77798843383789 10.3335599899292 17.186809539794922 C11.22553825378418 16.10069465637207 10.820280075073242 14.433660507202148 11.121527671813965 13.118016242980957 L11.121527671813965 13.118016242980957 C11.914295196533203 14.730209350585938 12.698080062866211 16.34939193725586 13.47096061706543 17.9713191986084 C13.728256225585938 18.511266708374023 13.800337791442871 19.24263572692871 14.308392524719238 19.558271408081055 C14.982044219970703 19.97678565979004 15.731664657592773 19.83836555480957 16.46709632873535 19.826976776123047 L16.46709632873535 19.826976776123047 C15.868478775024414 18.56975555419922 15.265128135681152 17.31451416015625 14.659668922424316 16.060274124145508 C14.05420970916748 14.806035995483398 13.44664192199707 13.552801132202148 12.839591979980469 12.299592018127441 L12.839591979980469 12.299592018127441 C12.876888275146484 12.199584007263184 12.914183616638184 12.099575996398926 12.9514799118042 11.999567985534668 L12.952128410339355 11.999567985534668 C13.279023170471191 11.146669387817383 13.62818431854248 10.304141998291016 13.985472679138184 9.463727951049805 L13.985472679138184 9.463727951049805 C14.720854759216309 10.353549003601074 15.000731468200684 10.906683921813965 16.115663528442383 11.346599578857422 C16.69485855102539 11.5751314163208 17.217754364013672 11.070515632629395 17.885351181030273 11.399086952209473 L17.885351181030273 11.399086952209473 C17.885351181030273 13.299131393432617 17.885351181030273 15.199174880981445 17.885351181030273 17.099218368530273 C17.885351181030273 18.999263763427734 17.885351181030273 20.899307250976562 17.885351181030273 22.79935073852539 L19.559999465942383 22.79935073852539"></path>
<path fill="none" stroke="black" stroke-width=".3" stroke-opacity="1.0"  filling="0" d="M13.491912841796875 6.6354241371154785 L13.491912841796875 6.6354241371154785 C13.202832221984863 6.386808395385742 12.848321914672852 6.1983771324157715 12.624671936035156 5.889576435089111 C11.513117790222168 4.354821681976318 13.919777870178223 3.292473316192627 15.136536598205566 4.195920467376709 C16.372188568115234 5.113394737243652 14.807312965393066 7.070986747741699 13.491912841796875 6.6354241371154785 L13.491912841796875 6.6354241371154785"></path></svg>