<svg xmlns="http://www.w3.org/2000/svg" viewBox="0.0 0.0 24.0 24.0" height="200px" width="200px"><path fill="none" stroke="black" stroke-width=".3" stroke-opacity="1.0"  filling="0" d="M12.0 5.156256198883057 L12.0 5.156256198883057 C12.492938995361328 5.360754013061523 13.101451873779297 5.392385482788086 13.478816986083984 5.769750118255615 C14.774164199829102 7.065097332000732 13.832855224609375 9.340989112854004 12.0 9.341039657592773 C10.1671142578125 9.341090202331543 9.22589111328125 7.065042018890381 10.521183013916016 5.769750118255615 C10.898548126220703 5.392385482788086 11.507061004638672 5.360754013061523 12.0 5.156256198883057 L12.0 5.156256198883057"></path>
<path fill="none" stroke="black" stroke-width=".3" stroke-opacity="1.0"  filling="0" d="M11.015472412109375 7.2484259605407715 L11.015472412109375 7.2484259605407715 C11.383216857910156 6.3590168952941895 12.984527587890625 5.67976188659668 12.984527587890625 7.2484259605407715 C12.984527587890625 8.817096710205078 11.383222579956055 8.137862205505371 11.015472412109375 7.248439311981201 L11.015472412109375 7.248439311981201"></path>
<path fill="none" stroke="black" stroke-width=".3" stroke-opacity="1.0"  filling="0" d="M12.0 10.510032653808594 L12.0 10.510032653808594 C11.45130443572998 10.361605644226074 10.84697151184082 10.347578048706055 10.353912353515625 10.064752578735352 C8.014188766479492 8.722655296325684 8.458797454833984 6.437112808227539 9.823860168457031 5.072058200836182 C11.188923835754395 3.707003355026245 13.474441528320312 3.2624361515045166 14.816534996032715 5.602288722991943 C15.099357604980469 6.095370769500732 15.204204559326172 6.682924747467041 15.261815071105957 7.248432636260986 C15.343017578125 8.045530319213867 14.95839786529541 8.545293807983398 14.61489486694336 9.198479652404785 L16.053024291992188 10.969032287597656 L17.01616859436035 10.18667984008789 L16.718305587768555 13.057319641113281 L13.847663879394531 12.760319709777832 L14.810808181762695 11.977968215942383 L13.37246322631836 10.207200050354004 C12.9149751663208 10.308144569396973 12.457488059997559 10.409088134765625 12.0 10.510032653808594 L12.0 10.510032653808594"></path>
<path fill="none" stroke="black" stroke-width=".3" stroke-opacity="1.0"  filling="0" d="M19.53839874267578 13.310039520263672 L19.53839874267578 13.310039520263672 C20.899330139160156 13.67814826965332 21.57613754272461 13.567973136901855 22.354719161987305 14.925399780273438 C23.584226608276367 17.069000244140625 22.029298782348633 19.833240509033203 19.53839874267578 19.833240509033203 C17.04749298095703 19.833240509033203 15.4925537109375 17.06899070739746 16.72212791442871 14.925399780273438 C17.5007266998291 13.568021774291992 18.177509307861328 13.6781587600708 19.53839874267578 13.310039520263672 L19.53839874267578 13.310039520263672"></path>
<path fill="none" stroke="black" stroke-width=".3" stroke-opacity="1.0"  filling="0" d="M13.113479614257812 15.771575927734375 L13.113263130187988 14.530655860900879 L15.153599739074707 16.571640014648438 L13.113263130187988 18.61262321472168 L13.113263130187988 17.3717041015625 L7.623624324798584 17.3717041015625 C7.410488128662109 17.79396629333496 7.283204555511475 18.2719669342041 6.984216213226318 18.63848876953125 C5.414623737335205 20.562606811523438 3.286717653274536 19.96453094482422 2.094040870666504 18.574066162109375 C0.9013640284538269 17.18360137939453 0.6439163684844971 15.000750541687012 2.8152403831481934 13.755319595336914 C3.3083221912384033 13.47249698638916 3.8937888145446777 13.340919494628906 4.461384296417236 13.310039520263672 C4.9138312339782715 13.28542423248291 5.3477044105529785 13.498967170715332 5.79086446762085 13.59343147277832 L7.187952518463135 11.82158374786377 L6.213576316833496 11.053272247314453 L9.079679489135742 10.714584350585938 L9.419015884399414 13.580472946166992 L8.44464111328125 12.81216049194336 L7.047120094299316 14.584440231323242 C7.2393598556518555 14.980152130126953 7.431600093841553 15.375864028930664 7.623839855194092 15.771575927734375 L13.113479614257812 15.771575927734375"></path>
<path fill="none" stroke="black" stroke-width=".3" stroke-opacity="1.0"  filling="0" d="M19.53839874267578 18.663814544677734 L19.53839874267578 18.663814544677734 C19.045459747314453 18.45931625366211 18.436946868896484 18.427684783935547 18.059581756591797 18.05031967163086 C16.764236450195312 16.754974365234375 17.705543518066406 14.479083061218262 19.53839874267578 14.479032516479492 C21.371179580688477 14.478981971740723 22.312585830688477 16.75503158569336 21.017297744750977 18.05031967163086 C20.639915466308594 18.427701950073242 20.03136444091797 18.45931625366211 19.53839874267578 18.663814544677734 L19.53839874267578 18.663814544677734"></path></svg>