<svg xmlns="http://www.w3.org/2000/svg" viewBox="0.0 0.0 24.0 24.0" height="200px" width="200px"><path fill="none" stroke="black" stroke-width=".3" stroke-opacity="1.0"  filling="0" d="M16.968000411987305 16.104000091552734 L15.67199993133545 16.104000091552734 L15.67199993133545 15.67199993133545 L16.536001205444336 15.67199993133545 L16.536001205444336 11.80624771118164 L16.536001205444336 7.94049596786499 L14.430215835571289 5.736000061035156 L10.055999755859375 5.736000061035156 L10.055999755859375 7.248000144958496 L9.624000549316406 7.248000144958496 L9.624000549316406 5.303999900817871 L14.61489486694336 5.303999900817871 L16.968000411987305 7.767263889312744 L16.968000411987305 11.93563175201416 L16.968000411987305 16.104000091552734"></path>
<path fill="none" stroke="black" stroke-width=".3" stroke-opacity="1.0"  filling="0" d="M8.32800006866455 18.04800033569336 L8.32800006866455 13.079999923706055 L8.32800006866455 8.112000465393066 L12.700920104980469 8.112000465393066 L14.807999610900879 10.358400344848633 L14.807999610900879 14.203200340270996 L14.807999610900879 18.04800033569336 L8.32800006866455 18.04800033569336"></path>
<path fill="none" stroke="black" stroke-width=".3" stroke-opacity="1.0"  filling="0" d="M15.239999771118164 18.479999542236328 L7.896000385284424 18.479999542236328 L7.896000385284424 13.079999923706055 L7.896000385284424 7.680000305175781 L12.888192176818848 7.680000305175781 L15.239999771118164 10.187543869018555 L15.239999771118164 14.333771705627441 L15.239999771118164 18.479999542236328"></path></svg>