<svg xmlns="http://www.w3.org/2000/svg" viewBox="0.0 0.0 24.0 24.0" height="200px" width="200px"><path fill="none" stroke="black" stroke-width=".3" stroke-opacity="1.0"  filling="0" d="M5.396448135375977 7.473504066467285 L5.396448135375977 7.473504066467285 C5.523960113525391 7.307472229003906 5.651472091674805 7.141440391540527 5.778984069824219 6.975408554077148 L5.778984069824219 7.893624305725098 C5.651472091674805 7.753584384918213 5.523960113525391 7.61354398727417 5.396448135375977 7.473504066467285 L5.396448135375977 7.473504066467285"></path>
<path fill="none" stroke="black" stroke-width=".3" stroke-opacity="1.0"  filling="0" d="M18.1043758392334 7.794480323791504 L20.74799919128418 7.794480323791504 L20.74799919128418 10.438104629516602 L18.1043758392334 10.438104629516602 L18.1043758392334 13.081727981567383 L15.460752487182617 13.081727981567383 L15.460752487182617 10.438104629516602 L12.81712818145752 10.438104629516602 L12.81712818145752 7.794480323791504 L15.460752487182617 7.794480323791504 L15.460752487182617 5.151072025299072 L18.1043758392334 5.151072025299072 L18.1043758392334 7.794480323791504"></path>
<path fill="none" stroke="black" stroke-width=".3" stroke-opacity="1.0"  filling="0" d="M6.203856468200684 8.753087997436523 L6.203856468200684 8.753087997436523 C6.409770965576172 8.97924518585205 6.390187740325928 9.428110122680664 6.203856468200684 9.670656204223633 L6.203856468200684 8.753087997436523"></path>
<path fill="none" stroke="black" stroke-width=".3" stroke-opacity="1.0"  filling="0" d="M5.396448135375977 9.172992706298828 L5.396448135375977 9.172992706298828 C5.523888111114502 9.331968307495117 5.651328086853027 9.490943908691406 5.778768062591553 9.649919509887695 L5.778768062591553 8.63083267211914 C5.424744129180908 8.24505615234375 4.716696262359619 7.997103214263916 4.716696262359619 7.473504066467285 C4.716696262359619 6.943292617797852 5.424744129180908 6.684095859527588 5.778768062591553 6.289391994476318 L5.778768062591553 5.9440083503723145 L6.203640460968018 5.9440083503723145 L6.203640460968018 6.305376052856445 C6.557664394378662 6.694752216339111 6.911688327789307 7.084127902984619 7.265712261199951 7.473504066467285 L6.5859599113464355 7.473504066467285 C6.45851993560791 7.314455986022949 6.331080436706543 7.1554083824157715 6.203640460968018 6.9963603019714355 L6.203640460968018 8.015880584716797 C6.557664394378662 8.40158462524414 7.265712261199951 8.649446487426758 7.265712261199951 9.172992706298828 C7.265712261199951 9.703096389770508 6.557664394378662 9.962112426757812 6.203640460968018 10.356672286987305 L6.203640460968018 10.70248794555664 L5.778768062591553 10.70248794555664 L5.778768062591553 10.34133529663086 C5.424744129180908 9.951888084411621 5.070720195770264 9.562439918518066 4.716696262359619 9.172992706298828 L5.396448135375977 9.172992706298828"></path>
<path fill="none" stroke="black" stroke-width=".3" stroke-opacity="1.0"  filling="0" d="M20.03887176513672 15.300046920776367 L20.03887176513672 15.300046920776367 C20.248390197753906 15.664005279541016 20.75269889831543 16.454160690307617 19.763687133789062 16.320863723754883 L15.756563186645508 15.241511344909668 L11.749439239501953 14.162158966064453 L14.905200958251953 18.63292694091797 L8.560848236083984 18.63292694091797 L11.722007751464844 14.154816627502441 L7.574699878692627 13.037664413452148 L3.42739200592041 11.920512199401855 C3.3030481338500977 11.704512596130371 2.989502429962158 11.513158798217773 3.0543603897094727 11.272512435913086 C3.119234561920166 11.031805992126465 3.486503839492798 11.023823738098145 3.70257568359375 10.899479866027832 L9.148008346557617 12.36633586883545 L14.593440055847168 13.83319091796875 L20.03887176513672 15.300046920776367"></path></svg>