<svg xmlns="http://www.w3.org/2000/svg" viewBox="0.0 0.0 24.0 24.0" height="200px" width="200px"><path fill="none" stroke="black" stroke-width=".3" stroke-opacity="1.0"  filling="0" d="M4.499940872192383 2.9999282360076904 L4.499940872192383 2.9999282360076904 C4.799928665161133 2.4803338050842285 4.880310535430908 1.7411329746246338 5.399904727935791 1.4411450624465942 C6.599857330322266 0.7483522891998291 8.099796295166016 1.6143442392349243 8.099796295166016 2.9999284744262695 C8.099796295166016 4.385514259338379 6.599857330322266 5.251505374908447 5.399904251098633 4.558711528778076 C4.88031005859375 4.258723735809326 4.799928665161133 3.5195226669311523 4.499940872192383 2.9999282360076904 L4.499940872192383 2.9999282360076904"></path>
<path fill="none" stroke="black" stroke-width=".3" stroke-opacity="1.0"  filling="0" d="M19.799436569213867 4.800504207611084 L19.799436569213867 4.800504207611084 C19.37540054321289 4.62467098236084 18.851905822753906 4.59761905670166 18.52733039855957 4.27300500869751 C17.413150787353516 3.1586921215057373 18.22258949279785 1.2000007629394531 19.799436569213867 1.2000007629394531 C21.376508712768555 1.2000007629394531 22.187299728393555 3.1582369804382324 21.071998596191406 4.27300500869751 C20.74722671508789 4.597621440887451 20.223623275756836 4.62467098236084 19.799436569213867 4.800504207611084 L19.799436569213867 4.800504207611084"></path>
<path fill="none" stroke="black" stroke-width=".3" stroke-opacity="1.0"  filling="0" d="M8.699844360351562 5.399904251098633 L8.699844360351562 5.399904251098633 C9.222213745117188 5.6194682121276855 9.866278648376465 5.657923221588135 10.266951560974121 6.058596134185791 C10.62919807434082 6.42084264755249 10.622325897216797 7.019579887390137 10.800012588500977 7.500072002410889 L10.800012588500977 12.90007209777832 L10.499987602233887 12.90007209777832 C10.113091468811035 13.286874771118164 9.509906768798828 13.76488971710205 9.000083923339844 13.566431045532227 L9.000083923339844 15.900094985961914 L8.70005989074707 15.900094985961914 L8.70005989074707 21.750022888183594 C8.350068092346191 22.10001564025879 8.145047187805176 22.799999237060547 7.650084018707275 22.799999237060547 C7.137125492095947 22.799999237060547 6.563685894012451 22.258647918701172 6.600324630737305 21.746999740600586 L6.6001081466674805 15.900094985961914 L6.000060558319092 15.900094985961914 L5.999844551086426 21.746999740600586 C6.035195827484131 22.241762161254883 5.446106910705566 22.799999237060547 4.950084209442139 22.799999237060547 C4.45512056350708 22.799999237060547 4.250100135803223 22.10001564025879 3.9001083374023438 21.750022888183594 L3.9001083374023438 15.900094985961914 L3.6000843048095703 15.900094985961914 L3.6000843048095703 13.566431045532227 C3.0901761054992676 13.764851570129395 2.4869067668914795 13.286921501159668 2.099964141845703 12.90007209777832 L1.7999401092529297 12.90007209777832 L1.7999401092529297 7.500072002410889 C1.9775911569595337 7.019579887390137 1.9706741571426392 6.4208526611328125 2.3328933715820312 6.058596134185791 C2.7335221767425537 5.657926082611084 3.377558946609497 5.6194682121276855 3.8998918533325195 5.399904251098633 L8.699844360351562 5.399904251098633"></path>
<path fill="none" stroke="black" stroke-width=".3" stroke-opacity="1.0"  filling="0" d="M10.19996452331543 12.90007209777832 L9.000083923339844 12.90007209777832 L9.000083923339844 8.09990406036377 C8.858651161193848 7.958471298217773 8.541468620300293 7.958471298217773 8.400035858154297 8.09990406036377 L8.400035858154297 15.29983139038086 L4.199916839599609 15.29983139038086 L4.199916839599609 8.09990406036377 C4.058484077453613 7.958471775054932 3.7413012981414795 7.958471298217773 3.5998687744140625 8.09990406036377 L3.5998687744140625 12.90007209777832 L2.399989128112793 12.90007209777832 L2.399989128112793 7.500072002410889 C2.637159824371338 6.833974838256836 3.2483463287353516 6.2748026847839355 3.8998918533325195 6.000168323516846 L5.174940586090088 6.000168323516846 L5.174940586090088 7.500072002410889 C4.9088134765625 7.859487533569336 4.723398685455322 8.278252601623535 4.575108528137207 8.70016860961914 L4.575108528137207 9.600239753723145 C4.68120813369751 9.706339836120605 4.91915225982666 9.706339836120605 5.025251865386963 9.600239753723145 L5.025251865386963 8.70016860961914 C5.084390640258789 8.450960159301758 5.21821403503418 8.209691047668457 5.400228500366211 8.029488563537598 L5.400228500366211 8.029488563537598 C5.58208703994751 8.20993709564209 5.71441650390625 8.451507568359375 5.775204181671143 8.700383186340332 L5.775204181671143 9.600455284118652 C5.8813042640686035 9.706555366516113 6.119248390197754 9.706555366516113 6.225348472595215 9.600455284118652 L6.225348472595215 8.700383186340332 C6.075868606567383 8.278955459594727 5.89093017578125 7.8603668212890625 5.625516414642334 7.500504493713379 L5.625516414642334 6.000600337982178 L6.975516319274902 6.000600337982178 L6.975516319274902 7.413023948669434 C6.395261764526367 8.412042617797852 8.00548267364502 8.412042617797852 7.425228118896484 7.413023948669434 L7.425228118896484 6.000600337982178 L8.700276374816895 6.000600337982178 C9.351805686950684 6.27527379989624 9.962992668151855 6.834413051605225 10.200180053710938 7.500504493713379 L10.19996452331543 12.90007209777832"></path>
<path fill="none" stroke="black" stroke-width=".3" stroke-opacity="1.0"  filling="0" d="M17.99993896484375 13.49990463256836 L16.499820709228516 13.50011920928955 C15.846732139587402 13.771065711975098 15.270862579345703 14.346935272216797 14.999916076660156 15.00002384185791 L14.999916076660156 19.186317443847656 C14.508808135986328 19.23090934753418 14.187458992004395 18.623685836791992 13.815372467041016 18.300071716308594 L13.80003547668457 13.049976348876953 C14.15002727508545 12.699984550476074 14.500020027160645 12.349991798400879 14.850011825561523 12.0 L17.999723434448242 12.0 L17.999723434448242 7.200047969818115 C18.939598083496094 4.931202411651611 20.659969329833984 4.9312028884887695 21.599796295166016 7.200047969818115 L21.599796295166016 12.600048065185547 C21.299772262573242 12.90007209777832 21.124019622802734 13.50011920928955 20.699722290039062 13.50011920928955 C20.275476455688477 13.50011920928955 20.09981918334961 12.90007209777832 19.799867630004883 12.600048065185547 L19.799867630004883 7.500072002410889 L19.199819564819336 7.500072002410889 L19.199819564819336 12.599832534790039 C19.302419662475586 12.899856567382812 19.405019760131836 13.199880599975586 19.507619857788086 13.49990463256836 L17.99993896484375 13.49990463256836"></path>
<path fill="none" stroke="black" stroke-width=".3" stroke-opacity="1.0"  filling="0" d="M21.29998779296875 14.100168228149414 L21.29998779296875 14.100168228149414 C21.600011825561523 14.40011978149414 21.90003776550293 14.700072288513184 22.200061798095703 15.00002384185791 L22.200061798095703 18.90001106262207 L22.200061798095703 22.799999237060547 L15.599964141845703 22.799999237060547 L15.599964141845703 18.90001106262207 L15.599964141845703 15.00002384185791 C15.899916648864746 14.700072288513184 16.19986915588379 14.40011978149414 16.499820709228516 14.100168228149414 L21.29998779296875 14.100168228149414"></path></svg>