<svg xmlns="http://www.w3.org/2000/svg" viewBox="0.0 0.0 24.0 24.0" height="200px" width="200px"><path fill="none" stroke="black" stroke-width=".3" stroke-opacity="1.0"  filling="0" d="M11.197992324829102 1.9324560165405273 L13.789992332458496 1.9324560165405273 L13.789992332458496 7.548455715179443 L13.789992332458496 13.16445541381836 L11.197992324829102 13.16445541381836 L11.197992324829102 7.548455715179443 L11.197992324829102 1.9324560165405273"></path>
<path fill="none" stroke="black" stroke-width=".3" stroke-opacity="1.0"  filling="0" d="M16.94964027404785 2.660808563232422 L16.94964027404785 2.660808563232422 C17.86446189880371 1.0762876272201538 17.86446189880371 4.2453293800354 16.94964027404785 2.660808563232422 L16.94964027404785 2.660808563232422"></path>
<path fill="none" stroke="black" stroke-width=".3" stroke-opacity="1.0"  filling="0" d="M19.36689567565918 2.6705284118652344 L19.36689567565918 2.6705284118652344 C19.364376068115234 2.4669840335845947 19.36185646057129 2.263439893722534 19.359336853027344 2.0598955154418945 L19.510103225708008 1.905024528503418 C19.713720321655273 1.9024324417114258 19.917335510253906 1.8998403549194336 20.120952606201172 1.8972482681274414 L20.89401626586914 2.651304244995117 C20.89668083190918 2.8549203872680664 20.899343490600586 3.0585365295410156 20.902008056640625 3.262152671813965 L20.75102424621582 3.4170236587524414 C20.547407150268555 3.4196157455444336 20.343791961669922 3.422207832336426 20.140174865722656 3.424799919128418 L19.36689567565918 2.6705284118652344"></path>
<path fill="none" stroke="black" stroke-width=".3" stroke-opacity="1.0"  filling="0" d="M18.28084945678711 2.80056095123291 L18.28084945678711 2.80056095123291 C18.121440887451172 2.673912763595581 17.962032318115234 2.547264337539673 17.802623748779297 2.4206161499023438 L17.778217315673828 2.2059125900268555 C17.904935836791992 2.0465047359466553 18.03165626525879 1.8870967626571655 18.158374786376953 1.7276887893676758 L19.231462478637695 1.6050004959106445 C19.390871047973633 1.7317205667495728 19.55027961730957 1.8584407567977905 19.709688186645508 1.9851608276367188 L19.73409652709961 2.1998653411865234 C19.607376098632812 2.3592729568481445 19.480655670166016 2.5186805725097656 19.35393524169922 2.6780881881713867 L18.28084945678711 2.80056095123291"></path>
<path fill="none" stroke="black" stroke-width=".3" stroke-opacity="1.0"  filling="0" d="M20.240615844726562 3.6181201934814453 L20.240615844726562 3.6181201934814453 C20.317222595214844 3.4294803142547607 20.393831253051758 3.240840196609497 20.47043800354004 3.0522003173828125 L20.66980743408203 2.96817684173584 C20.858448028564453 3.044928550720215 21.047088623046875 3.12168025970459 21.235729217529297 3.198431968688965 L21.65519905090332 4.193329334259033 C21.578519821166992 4.381968975067139 21.50183868408203 4.570609092712402 21.425159454345703 4.759248733520508 L21.22600746154785 4.843272686004639 C21.037439346313477 4.7665205001831055 20.848873138427734 4.689768314361572 20.66030502319336 4.613016128540039 L20.240615844726562 3.6181201934814453"></path>
<path fill="none" stroke="black" stroke-width=".3" stroke-opacity="1.0"  filling="0" d="M17.534135818481445 4.341072082519531 L15.701592445373535 2.508312225341797 C16.26153564453125 2.5592164993286133 16.983875274658203 2.2634286880493164 17.381423950195312 2.661025047302246 C17.779024124145508 3.0586719512939453 17.483232498168945 3.7810564041137695 17.534135818481445 4.341072082519531 L17.534135818481445 4.341072082519531"></path>
<path fill="none" stroke="black" stroke-width=".3" stroke-opacity="1.0"  filling="0" d="M20.67131996154785 4.623600006103516 L20.67131996154785 4.623600006103516 C20.865863800048828 4.563839912414551 21.060407638549805 4.504080295562744 21.25495147705078 4.444320201873779 L21.44611167907715 4.545408248901367 C21.505945205688477 4.740096092224121 21.565776824951172 4.934783935546875 21.6256103515625 5.129471778869629 L21.119522094726562 6.0837602615356445 C20.924978256225586 6.143592357635498 20.730432510375977 6.203424453735352 20.535888671875 6.263256549835205 L20.3447265625 6.161952495574951 C20.28496742248535 5.967264652252197 20.22520637512207 5.772576332092285 20.165447235107422 5.577888488769531 L20.67131996154785 4.623600006103516"></path>
<path fill="none" stroke="black" stroke-width=".3" stroke-opacity="1.0"  filling="0" d="M13.947239875793457 5.903616428375244 L16.53923988342285 5.903616428375244 L16.53923988342285 11.51961612701416 L16.53923988342285 17.135616302490234 L13.947239875793457 17.135616302490234 L13.947239875793457 11.51961612701416 L13.947239875793457 5.903616428375244"></path>
<path fill="none" stroke="black" stroke-width=".3" stroke-opacity="1.0"  filling="0" d="M19.698888778686523 6.631968021392822 L19.698888778686523 6.631968021392822 C20.613710403442383 5.047446250915527 20.613710403442383 8.216489791870117 19.698888778686523 6.631968021392822 L19.698888778686523 6.631968021392822"></path>
<path fill="none" stroke="black" stroke-width=".3" stroke-opacity="1.0"  filling="0" d="M20.283599853515625 8.312015533447266 L18.450838088989258 6.4792561531066895 C19.010854721069336 6.530159950256348 19.73326301574707 6.234344482421875 20.13088607788086 6.631968021392822 C20.52850914001465 7.0295915603637695 20.232694625854492 7.751999855041504 20.283599853515625 8.312015533447266 L20.283599853515625 8.312015533447266"></path>
<path fill="none" stroke="black" stroke-width=".3" stroke-opacity="1.0"  filling="0" d="M4.3248724937438965 11.397575378417969 L6.916872024536133 11.397575378417969 L6.916872024536133 17.44536018371582 L4.3248724937438965 17.44536018371582 L4.3248724937438965 11.397575378417969"></path>
<path fill="none" stroke="black" stroke-width=".3" stroke-opacity="1.0"  filling="0" d="M6.844944477081299 11.577287673950195 L9.436944007873535 11.577287673950195 L9.436944007873535 12.225287437438965 L6.844944477081299 12.225287437438965 L6.844944477081299 11.577287673950195"></path>
<path fill="none" stroke="black" stroke-width=".3" stroke-opacity="1.0"  filling="0" d="M7.074120044708252 15.36851978302002 L9.666120529174805 15.36851978302002 L9.666120529174805 21.416519165039062 L7.074120044708252 21.416519165039062 L7.074120044708252 15.36851978302002"></path>
<path fill="none" stroke="black" stroke-width=".3" stroke-opacity="1.0"  filling="0" d="M9.594191551208496 15.54844856262207 L12.18619155883789 15.54844856262207 L12.18619155883789 16.196447372436523 L9.594191551208496 16.196447372436523 L9.594191551208496 15.54844856262207"></path>
<path fill="none" stroke="black" stroke-width=".3" stroke-opacity="1.0"  filling="0" d="M2.4134883880615234 15.796198844909668 L4.24603271484375 17.62874412536621 L3.787896156311035 18.087095260620117 C3.2278802394866943 18.036191940307617 2.505471706390381 18.332006454467773 2.1078481674194336 17.934383392333984 C1.7102245092391968 17.536760330200195 2.006040334701538 16.81435203552246 1.9551362991333008 16.254335403442383 L2.4134883880615234 15.796198844909668"></path>
<path fill="none" stroke="black" stroke-width=".3" stroke-opacity="1.0"  filling="0" d="M5.162736415863037 19.76736068725586 L6.995495796203613 21.599905014038086 L6.537360191345215 22.058256149291992 C5.977344036102295 22.007352828979492 5.2549357414245605 22.30316734313965 4.857312202453613 21.90554428100586 C4.459688663482666 21.50792121887207 4.755504131317139 20.785512924194336 4.7046003341674805 20.225496292114258 L5.162736415863037 19.76736068725586"></path></svg>