<svg xmlns="http://www.w3.org/2000/svg" viewBox="0.0 0.0 24.0 24.0" height="200px" width="200px"><path fill="none" stroke="black" stroke-width=".3" stroke-opacity="1.0"  filling="0" d="M7.0320000648498535 2.496000289916992 L7.896000385284424 2.496000289916992 L7.896000385284424 5.736000061035156 L7.0320000648498535 5.736000061035156 L7.0320000648498535 2.496000289916992"></path>
<path fill="none" stroke="black" stroke-width=".3" stroke-opacity="1.0"  filling="0" d="M11.13599967956543 2.496000289916992 L13.295999526977539 2.496000289916992 L13.295999526977539 8.652000427246094 L13.295999526977539 14.807999610900879 L11.13599967956543 14.807999610900879 L11.13599967956543 8.652000427246094 L11.13599967956543 2.496000289916992"></path>
<path fill="none" stroke="black" stroke-width=".3" stroke-opacity="1.0"  filling="0" d="M16.536001205444336 2.496000289916992 L17.399999618530273 2.496000289916992 L17.399999618530273 5.736000061035156 L16.536001205444336 5.736000061035156 L16.536001205444336 2.496000289916992"></path>
<path fill="none" stroke="black" stroke-width=".3" stroke-opacity="1.0"  filling="0" d="M8.112000465393066 2.712000846862793 L10.920000076293945 2.712000846862793 L10.920000076293945 5.520000457763672 L8.112000465393066 5.520000457763672 L8.112000465393066 2.712000846862793"></path>
<path fill="none" stroke="black" stroke-width=".3" stroke-opacity="1.0"  filling="0" d="M13.51200008392334 2.712000846862793 L16.31999969482422 2.712000846862793 L16.31999969482422 5.520000457763672 L13.51200008392334 5.520000457763672 L13.51200008392334 2.712000846862793"></path>
<path fill="none" stroke="black" stroke-width=".3" stroke-opacity="1.0"  filling="0" d="M10.920000076293945 15.02400016784668 L13.51200008392334 15.02400016784668 L13.51200008392334 15.67199993133545 L10.920000076293945 15.67199993133545 L10.920000076293945 15.02400016784668"></path>
<path fill="none" stroke="black" stroke-width=".3" stroke-opacity="1.0"  filling="0" d="M11.13599967956543 15.887999534606934 L13.295999526977539 15.887999534606934 L13.295999526977539 19.559999465942383 L11.13599967956543 19.559999465942383 L11.13599967956543 15.887999534606934"></path>
<path fill="none" stroke="black" stroke-width=".3" stroke-opacity="1.0"  filling="0" d="M10.920000076293945 19.775999069213867 L13.51200008392334 19.775999069213867 L13.51200008392334 20.423999786376953 C13.079999923706055 20.784000396728516 12.778337478637695 21.503999710083008 12.215999603271484 21.503999710083008 C11.653661727905273 21.503999710083008 11.35200023651123 20.784000396728516 10.920000076293945 20.423999786376953 L10.920000076293945 19.775999069213867"></path></svg>