<svg xmlns="http://www.w3.org/2000/svg" viewBox="0.0 0.0 24.0 24.0" height="200px" width="200px"><path fill="none" stroke="black" stroke-width=".3" stroke-opacity="1.0"  filling="0" d="M5.527235507965088 8.269248008728027 L5.527235507965088 8.269248008728027 C5.119022369384766 8.224671363830566 4.66217565536499 8.333828926086426 4.302596569061279 8.135517120361328 C3.0680441856384277 7.454647064208984 3.2707223892211914 5.554826259613037 4.6239237785339355 5.153664588928223 C5.993857383728027 4.747542381286621 7.143847942352295 6.260583400726318 6.481685638427734 7.489785194396973 C6.2868781089782715 7.851415157318115 5.845385551452637 8.009427070617676 5.527235507965088 8.269248008728027 L5.527235507965088 8.269248008728027"></path>
<path fill="none" stroke="black" stroke-width=".3" stroke-opacity="1.0"  filling="0" d="M4.870163917541504 10.521479606628418 L4.870163917541504 10.521479606628418 C4.965679168701172 8.491962432861328 5.579254150390625 8.126225471496582 7.347035884857178 9.15009593963623 L9.094691276550293 12.501984596252441 L12.41525936126709 11.548344612121582 C12.851003646850586 11.935200691223145 13.286746978759766 12.322056770324707 13.722491264343262 12.70891284942627 L13.742795944213867 17.484886169433594 C11.481108665466309 19.804590225219727 11.98916244506836 15.446721076965332 11.97245979309082 13.99454402923584 L8.505012512207031 15.046463012695312 C7.944060325622559 14.80411148071289 7.383107662200928 14.561758995056152 6.822155475616455 14.31940746307373 L4.870163917541504 10.521479606628418"></path>
<path fill="none" stroke="black" stroke-width=".3" stroke-opacity="1.0"  filling="0" d="M10.239923477172852 11.276399612426758 L9.545051574707031 11.470152854919434 L9.545051574707031 6.335076808929443 L9.545051574707031 1.2000007629394531 L10.239923477172852 1.2000007629394531 L10.239923477172852 6.2382001876831055 L10.239923477172852 11.276399612426758"></path>
<path fill="none" stroke="black" stroke-width=".3" stroke-opacity="1.0"  filling="0" d="M3.277163505554199 12.698111534118652 L3.277163505554199 12.698111534118652 C3.362609624862671 12.356192588806152 3.2197325229644775 11.832849502563477 3.533501625061035 11.672355651855469 C3.845433473587036 11.512801170349121 4.182401657104492 11.93686580657959 4.506851673126221 12.069120407104492 L6.00524377822876 15.038904190063477 C6.772956848144531 15.86211109161377 7.219787120819092 16.147165298461914 8.355323791503906 15.96705436706543 L10.244891166687012 15.406103134155273 C10.560098648071289 15.55241584777832 11.094972610473633 15.510923385620117 11.190512657165527 15.84504222869873 C11.28728199005127 16.183460235595703 10.813826560974121 16.439743041992188 10.625483512878418 16.73709487915039 L8.636555671691895 17.32396697998047 C6.751108646392822 17.60221290588379 5.995753288269043 17.017059326171875 4.757843494415283 15.662711143493652 L3.277163505554199 12.698111534118652"></path>
<path fill="none" stroke="black" stroke-width=".3" stroke-opacity="1.0"  filling="0" d="M19.771137237548828 17.474952697753906 L14.616586685180664 19.249969482421875 L9.462035179138184 21.02498435974121 L4.307484149932861 22.799999237060547 L4.108548164367676 22.208375930786133 L9.26382064819336 20.432497024536133 L14.419092178344727 18.6566162109375 L19.574363708496094 16.8807373046875 C19.771066665649414 16.48574447631836 19.967771530151367 16.09075164794922 20.164474487304688 15.695759773254395 L20.752208709716797 15.504383087158203 C20.699779510498047 16.236268997192383 20.324853897094727 16.993492126464844 19.771137237548828 17.474952697753906 L19.771137237548828 17.474952697753906"></path></svg>