<svg xmlns="http://www.w3.org/2000/svg" viewBox="0.0 0.0 24.0 24.0" height="200px" width="200px"><path fill="none" stroke="black" stroke-width=".3" stroke-opacity="1.0"  filling="0" d="M14.23862361907959 2.903593063354492 L14.277070999145508 9.457680702209473 L14.315519332885742 16.011768341064453 L14.277070999145508 9.457680702209473 L14.23862361907959 2.903593063354492"></path>
<path fill="none" stroke="black" stroke-width=".3" stroke-opacity="1.0"  filling="0" d="M20.548198699951172 3.552888870239258 L20.738494873046875 3.8526973724365234 C20.55158233642578 3.9694812297821045 20.36467170715332 4.0862650871276855 20.177759170532227 4.2030487060546875 L19.98746109008789 3.90280818939209 C20.174373626708984 3.786168336868286 20.361286163330078 3.6695287227630615 20.548198699951172 3.552888870239258 L20.548198699951172 3.552888870239258"></path>
<path fill="none" stroke="black" stroke-width=".3" stroke-opacity="1.0"  filling="0" d="M20.548198699951172 3.552888870239258 L20.738494873046875 3.8529129028320312 C20.55158233642578 3.9696967601776123 20.36467170715332 4.086480617523193 20.177759170532227 4.2032647132873535 L19.98746109008789 3.9030237197875977 C20.174373626708984 3.7863121032714844 20.361286163330078 3.669600486755371 20.548198699951172 3.552888870239258 L20.548198699951172 3.552888870239258"></path>
<path fill="none" stroke="black" stroke-width=".3" stroke-opacity="1.0"  filling="0" d="M20.40088653564453 4.146672248840332 L20.407150268554688 4.155961036682129 C20.329174041748047 4.180152893066406 20.25119972229004 4.204344272613525 20.1732234954834 4.228536128997803 L19.962406158447266 3.8952484130859375 C20.15911102294922 3.772488594055176 20.355815887451172 3.649728775024414 20.552520751953125 3.5269689559936523 L20.763551712036133 3.8600406646728516 C20.7138729095459 3.913104772567749 20.66419219970703 3.9661686420440674 20.614513397216797 4.019232749938965 L20.40088653564453 4.146672248840332"></path>
<path fill="none" stroke="black" stroke-width=".3" stroke-opacity="1.0"  filling="0" d="M20.40088653564453 4.146672248840332 L20.614294052124023 4.019664287567139 C20.545246124267578 4.065096378326416 20.476198196411133 4.110528945922852 20.407150268554688 4.155961036682129 L20.40088653564453 4.146672248840332"></path>
<path fill="none" stroke="black" stroke-width=".3" stroke-opacity="1.0"  filling="0" d="M20.46892738342285 4.245816230773926 L20.407150268554688 4.155744552612305 C20.476198196411133 4.1103129386901855 20.545246124267578 4.064880847930908 20.614294052124023 4.019449234008789 L20.46892738342285 4.245816230773926"></path>
<path fill="none" stroke="black" stroke-width=".3" stroke-opacity="1.0"  filling="0" d="M19.250255584716797 4.533744812011719 L19.439903259277344 4.833768367767334 C19.25299072265625 4.950552463531494 19.06608009338379 5.067336559295654 18.879167556762695 5.1841206550598145 L18.688873291015625 4.883664608001709 C18.876001358032227 4.767024517059326 19.063127517700195 4.650384902954102 19.250255584716797 4.533744812011719 L19.250255584716797 4.533744812011719"></path>
<path fill="none" stroke="black" stroke-width=".3" stroke-opacity="1.0"  filling="0" d="M20.86075210571289 4.657296657562256 L20.86075210571289 4.657296657562256 C21.13950538635254 3.9803130626678467 21.139516830444336 5.334278106689453 20.86075210571289 4.657297134399414 L20.86075210571289 4.657297134399414"></path>
<path fill="none" stroke="black" stroke-width=".3" stroke-opacity="1.0"  filling="0" d="M19.439903259277344 4.833552837371826 L19.439903259277344 4.833552837371826 C19.25299072265625 4.950336933135986 19.06608009338379 5.0671210289001465 18.879167556762695 5.183905124664307 L18.688873291015625 4.883448600769043 C18.876001358032227 4.76680850982666 19.063127517700195 4.650168418884277 19.250255584716797 4.5335283279418945 L19.439903259277344 4.833552837371826"></path>
<path fill="none" stroke="black" stroke-width=".3" stroke-opacity="1.0"  filling="0" d="M19.307064056396484 4.987992763519287 L19.315919876098633 5.000304698944092 C19.246871948242188 5.045808792114258 19.177824020385742 5.091312408447266 19.108776092529297 5.136816501617432 L19.307064056396484 4.987992763519287"></path>
<path fill="none" stroke="black" stroke-width=".3" stroke-opacity="1.0"  filling="0" d="M19.315919876098633 5.000304698944092 L19.108776092529297 5.136816501617432 C19.177824020385742 5.091312408447266 19.246871948242188 5.045808792114258 19.315919876098633 5.000304698944092 L19.315919876098633 5.000304698944092"></path>
<path fill="none" stroke="black" stroke-width=".3" stroke-opacity="1.0"  filling="0" d="M19.108776092529297 5.136816501617432 L19.108776092529297 5.136816501617432 C19.03094482421875 5.161080360412598 18.95311164855957 5.185344696044922 18.875280380249023 5.209608554840088 L18.66446304321289 4.876104354858398 C18.861238479614258 4.753344535827637 19.058015823364258 4.630584716796875 19.254791259765625 4.507824897766113 L19.465824127197266 4.8408966064453125 C19.41592788696289 4.893960475921631 19.366031646728516 4.947024822235107 19.31613540649414 5.000088691711426 L19.108776092529297 5.136816501617432"></path>
<path fill="none" stroke="black" stroke-width=".3" stroke-opacity="1.0"  filling="0" d="M19.496063232421875 5.72196102142334 L19.496063232421875 5.72196102142334 C19.819908142089844 5.161042213439941 19.819908142089844 6.28287935256958 19.496063232421875 5.72196102142334 L19.496063232421875 5.72196102142334"></path>
<path fill="none" stroke="black" stroke-width=".3" stroke-opacity="1.0"  filling="0" d="M21.663623809814453 5.8241286277771 L21.663623809814453 5.8241286277771 C21.987468719482422 5.263208866119385 21.987468719482422 6.385048866271973 21.663623809814453 5.8241286277771 L21.663623809814453 5.8241286277771"></path>
<path fill="none" stroke="black" stroke-width=".3" stroke-opacity="1.0"  filling="0" d="M22.176624298095703 6.257208824157715 L22.2420711517334 6.345552921295166 C22.174535751342773 6.3931450843811035 22.106998443603516 6.440736770629883 22.03946304321289 6.48832893371582 L22.176624298095703 6.257208824157715"></path>
<path fill="none" stroke="black" stroke-width=".3" stroke-opacity="1.0"  filling="0" d="M22.480968475341797 6.263688564300537 L22.694377899169922 6.591144561767578 C22.501848220825195 6.720168590545654 22.3093204498291 6.8491926193237305 22.116790771484375 6.978216648101807 L21.89517593383789 6.6522722244262695 C21.94327163696289 6.597552299499512 21.99136734008789 6.542832374572754 22.03946304321289 6.488112449645996 L22.2420711517334 6.3453369140625 C22.319110870361328 6.318480968475342 22.396150588989258 6.291624546051025 22.473190307617188 6.264768600463867 L22.480968475341797 6.263688564300537"></path>
<path fill="none" stroke="black" stroke-width=".3" stroke-opacity="1.0"  filling="0" d="M22.469951629638672 6.290904521942139 L22.669967651367188 6.584880352020264 C22.486799240112305 6.707496643066406 22.303630828857422 6.830112457275391 22.12046241760254 6.952728748321533 L21.920665740966797 6.65875244140625 C22.103761672973633 6.536136627197266 22.286855697631836 6.413520336151123 22.469951629638672 6.290904521942139 L22.469951629638672 6.290904521942139"></path>
<path fill="none" stroke="black" stroke-width=".3" stroke-opacity="1.0"  filling="0" d="M22.248334884643555 6.3544087409973145 L22.03946304321289 6.488112449645996 C22.106998443603516 6.440520763397217 22.174535751342773 6.392928600311279 22.2420711517334 6.3453369140625 L22.248334884643555 6.3544087409973145"></path>
<path fill="none" stroke="black" stroke-width=".3" stroke-opacity="1.0"  filling="0" d="M22.669754028320312 6.584880352020264 L22.669754028320312 6.584880352020264 C22.48658561706543 6.707496643066406 22.303415298461914 6.830112457275391 22.12024688720703 6.952728748321533 L21.920448303222656 6.65875244140625 C22.103544235229492 6.536136627197266 22.286638259887695 6.413520336151123 22.46973419189453 6.290904521942139 L22.669754028320312 6.584880352020264"></path>
<path fill="none" stroke="black" stroke-width=".3" stroke-opacity="1.0"  filling="0" d="M20.209945678710938 6.799801349639893 L20.209945678710938 6.799801349639893 C20.488698959350586 6.1228179931640625 20.488710403442383 7.47678279876709 20.209945678710938 6.799801826477051 L20.209945678710938 6.799801826477051"></path>
<path fill="none" stroke="black" stroke-width=".3" stroke-opacity="1.0"  filling="0" d="M21.018001556396484 7.197456359863281 L21.21758270263672 7.4916486740112305 C21.03455924987793 7.614192485809326 20.851533889770508 7.73673677444458 20.66851043701172 7.859280586242676 L20.468494415283203 7.565304279327393 C20.651662826538086 7.442688465118408 20.8348331451416 7.320072174072266 21.018001556396484 7.197456359863281 L21.018001556396484 7.197456359863281"></path>
<path fill="none" stroke="black" stroke-width=".3" stroke-opacity="1.0"  filling="0" d="M20.79033660888672 7.25210428237915 L20.79033660888672 7.25210428237915 C20.722728729248047 7.299840450286865 20.655118942260742 7.347576141357422 20.58751106262207 7.395312309265137 L20.79033660888672 7.25210428237915"></path>
<path fill="none" stroke="black" stroke-width=".3" stroke-opacity="1.0"  filling="0" d="M20.58751106262207 7.395312309265137 L20.58751106262207 7.395312309265137 C20.655118942260742 7.347576141357422 20.722728729248047 7.299840450286865 20.79033660888672 7.25210428237915 L20.58751106262207 7.395312309265137"></path>
<path fill="none" stroke="black" stroke-width=".3" stroke-opacity="1.0"  filling="0" d="M21.243072509765625 7.497912883758545 L21.243072509765625 7.497912883758545 C21.050256729125977 7.62700891494751 20.857439041137695 7.756104469299316 20.664623260498047 7.885200500488281 L20.443439483642578 7.5590410232543945 C20.49146270751953 7.504464626312256 20.539487838745117 7.449888706207275 20.58751106262207 7.395312309265137 L20.790552139282227 7.252320766448975 C20.867664337158203 7.225464820861816 20.944774627685547 7.1986083984375 21.021886825561523 7.171752452850342 L21.243072509765625 7.497912883758545"></path>
<path fill="none" stroke="black" stroke-width=".3" stroke-opacity="1.0"  filling="0" d="M17.306903839111328 7.536144733428955 L19.013521194458008 7.5618486404418945 L17.306903839111328 7.536144733428955"></path>
<path fill="none" stroke="black" stroke-width=".3" stroke-opacity="1.0"  filling="0" d="M17.134103775024414 7.675032615661621 L18.814151763916016 7.7005205154418945 L17.134103775024414 7.675032615661621"></path>
<path fill="none" stroke="black" stroke-width=".3" stroke-opacity="1.0"  filling="0" d="M20.66851043701172 7.859280586242676 L20.468494415283203 7.565304279327393 C20.651662826538086 7.442688465118408 20.8348331451416 7.320072174072266 21.018001556396484 7.197456359863281 L21.21758270263672 7.4916486740112305 C21.03455924987793 7.614192485809326 20.851533889770508 7.73673677444458 20.66851043701172 7.859280586242676 L20.66851043701172 7.859280586242676"></path>
<path fill="none" stroke="black" stroke-width=".3" stroke-opacity="1.0"  filling="0" d="M10.634880065917969 11.452439308166504 L14.069604873657227 9.221699714660645 L17.504329681396484 6.990960597991943 C17.562360763549805 6.94207239151001 17.620393753051758 6.893184185028076 17.678424835205078 6.844295978546143 L17.678424835205078 6.844295978546143 C17.869728088378906 6.619080066680908 18.061033248901367 6.393864631652832 18.252336502075195 6.168648719787598 L18.252336502075195 6.168648719787598 C18.46272087097168 5.926296710968018 18.67310333251953 5.6839447021484375 18.883487701416016 5.441592693328857 L21.163366317749023 3.672553062438965 C21.245086669921875 3.6863765716552734 21.326807022094727 3.700200080871582 21.408527374267578 3.7140235900878906 L21.408527374267578 3.7140235900878906 C21.608327865600586 3.911736249923706 21.80812644958496 4.1094489097595215 22.00792694091797 4.307161331176758 L22.00792694091797 4.307161331176758 C22.439159393310547 4.864882469177246 22.5950927734375 5.24277925491333 22.792438507080078 5.943576812744141 L22.792438507080078 5.943576812744141 C21.883331298828125 6.528999328613281 20.972909927368164 7.112410545349121 20.059175491333008 7.690584659576416 L20.059175491333008 7.690584659576416 C19.56455421447754 7.808193206787109 19.086088180541992 8.006776809692383 18.64178466796875 8.253911972045898 L18.64178466796875 8.253911972045898 C18.575904846191406 8.29747200012207 18.51002311706543 8.341032028198242 18.444143295288086 8.384592056274414 L15.151871681213379 10.802711486816406 L11.859600067138672 13.220831871032715 C11.954423904418945 13.645919799804688 12.049247741699219 14.07100772857666 12.144071578979492 14.496095657348633 L12.144071578979492 14.496095657348633 C11.359418869018555 15.81930923461914 10.753806114196777 16.09212875366211 9.440400123596191 16.84272003173828 L9.440400123596191 16.84272003173828 C9.030264854431152 17.389633178710938 8.640532493591309 17.956998825073242 8.322816848754883 18.562294006347656 L8.322816848754883 18.562294006347656 C7.758821487426758 19.206531524658203 7.196704387664795 19.929460525512695 6.418128490447998 20.285762786865234 L6.418128490447998 20.285762786865234 C5.599111080169678 20.304733276367188 4.741901874542236 20.343507766723633 3.969985008239746 20.069110870361328 L3.969985008239746 20.069110870361328 C3.2573375701904297 19.459293365478516 2.5423827171325684 18.830324172973633 1.9801921844482422 18.07953453063965 L1.9801921844482422 18.07953453063965 C1.6248353719711304 17.14394760131836 1.1957368850708008 16.15620994567871 1.282944679260254 15.159215927124023 L1.282944679260254 15.159215927124023 C1.9540685415267944 13.940610885620117 1.852323055267334 13.624475479125977 3.2366726398468018 13.090911865234375 C4.449794292449951 12.623344421386719 5.787616729736328 12.900687217712402 6.82636833190918 11.99654483795166 L7.421448230743408 11.452439308166504 C8.18654727935791 11.220752716064453 8.917335510253906 10.757378578186035 9.716745376586914 10.757378578186035 C10.100597381591797 10.757378578186035 10.328835487365723 11.220752716064453 10.634880065917969 11.452439308166504 L10.634880065917969 11.452439308166504"></path>
<path fill="none" stroke="black" stroke-width=".3" stroke-opacity="1.0"  filling="0" d="M7.771368503570557 12.555984497070312 L7.87332010269165 14.959199905395508 L7.771368503570557 12.555984497070312"></path>
<path fill="none" stroke="black" stroke-width=".3" stroke-opacity="1.0"  filling="0" d="M8.077655792236328 12.810216903686523 L8.179823875427246 15.640680313110352 L8.077655792236328 12.810216903686523"></path>
<path fill="none" stroke="black" stroke-width=".3" stroke-opacity="1.0"  filling="0" d="M8.822423934936523 13.091447830200195 L6.82248067855835 14.423952102661133 C6.791739463806152 13.211040496826172 7.908041954040527 12.902518272399902 8.822423934936523 13.091447830200195 L8.822423934936523 13.091447830200195"></path>
<path fill="none" stroke="black" stroke-width=".3" stroke-opacity="1.0"  filling="0" d="M8.385024070739746 13.264896392822266 L8.48697566986084 16.060152053833008 L8.385024070739746 13.264896392822266"></path>
<path fill="none" stroke="black" stroke-width=".3" stroke-opacity="1.0"  filling="0" d="M9.2935209274292 13.421064376831055 L6.964392185211182 15.030048370361328 C6.9171600341796875 14.827943801879883 6.869928359985352 14.625840187072754 6.822696208953857 14.423735618591309 L8.822640419006348 13.091232299804688 C8.97960090637207 13.201176643371582 9.136560440063477 13.31112003326416 9.2935209274292 13.421064376831055 L9.2935209274292 13.421064376831055"></path>
<path fill="none" stroke="black" stroke-width=".3" stroke-opacity="1.0"  filling="0" d="M9.314903259277344 13.452600479125977 L13.632743835449219 10.423416137695312 L17.950584411621094 7.394232749938965 L21.121246337890625 4.772424697875977 L17.996158599853516 7.45622444152832 L13.65553092956543 10.454412460327148 L9.314903259277344 13.452600479125977"></path>
<path fill="none" stroke="black" stroke-width=".3" stroke-opacity="1.0"  filling="0" d="M5.14135217666626 13.543752670288086 L5.218031883239746 17.492881774902344 L5.14135217666626 13.543752670288086"></path>
<path fill="none" stroke="black" stroke-width=".3" stroke-opacity="1.0"  filling="0" d="M9.577343940734863 13.85587215423584 L7.294224262237549 15.46982479095459 C7.1842803955078125 15.323304176330566 7.074336051940918 15.17678451538086 6.964392185211182 15.030263900756836 L9.2935209274292 13.421280860900879 C9.388128280639648 13.566144943237305 9.482736587524414 13.711008071899414 9.577343940734863 13.85587215423584 L9.577343940734863 13.85587215423584"></path>
<path fill="none" stroke="black" stroke-width=".3" stroke-opacity="1.0"  filling="0" d="M9.599376678466797 13.887408256530762 L13.86937141418457 10.821828842163086 L18.139366149902344 7.756248474121094 L21.759958267211914 5.673144817352295 L18.180191040039062 7.8208327293396 L13.88978385925293 10.854120254516602 L9.599376678466797 13.887408256530762"></path>
<path fill="none" stroke="black" stroke-width=".3" stroke-opacity="1.0"  filling="0" d="M8.733648300170898 14.016792297363281 L8.836031913757324 16.24785614013672 L8.733648300170898 14.016792297363281"></path>
<path fill="none" stroke="black" stroke-width=".3" stroke-opacity="1.0"  filling="0" d="M5.392560005187988 14.225879669189453 L5.468808174133301 17.952743530273438 L5.392560005187988 14.225879669189453"></path>
<path fill="none" stroke="black" stroke-width=".3" stroke-opacity="1.0"  filling="0" d="M9.68707275390625 14.406888008117676 L9.68707275390625 14.406888008117676 C9.68649673461914 14.429207801818848 9.685919761657715 14.451528549194336 9.685343742370605 14.473848342895508 L7.884120464324951 15.790802001953125 C7.687488555908203 15.683881759643555 7.490856170654297 15.576960563659668 7.294224262237549 15.470040321350098 L9.577343940734863 13.856088638305664 C9.613920211791992 14.039688110351562 9.650496482849121 14.223288536071777 9.68707275390625 14.406888008117676 L9.68707275390625 14.406888008117676"></path>
<path fill="none" stroke="black" stroke-width=".3" stroke-opacity="1.0"  filling="0" d="M9.708024024963379 14.504520416259766 L15.009742736816406 10.614252090454102 L20.31146240234375 6.723984718322754 L15.009742736816406 10.614252090454102 L9.708024024963379 14.504520416259766"></path>
<path fill="none" stroke="black" stroke-width=".3" stroke-opacity="1.0"  filling="0" d="M5.753496170043945 14.69157600402832 L5.829960346221924 18.37286376953125 L5.753496170043945 14.69157600402832"></path>
<path fill="none" stroke="black" stroke-width=".3" stroke-opacity="1.0"  filling="0" d="M6.245760440826416 14.977776527404785 L6.3224406242370605 18.943103790283203 L6.245760440826416 14.977776527404785"></path>
<path fill="none" stroke="black" stroke-width=".3" stroke-opacity="1.0"  filling="0" d="M7.884120464324951 15.790583610534668 L9.685343742370605 14.473631858825684 C9.271519660949707 15.3838529586792 9.021379470825195 15.93970012664795 7.884120464324951 15.790583610534668 L7.884120464324951 15.790583610534668"></path>
<path fill="none" stroke="black" stroke-width=".3" stroke-opacity="1.0"  filling="0" d="M5.227320194244385 18.371784210205078 L5.227320194244385 18.371784210205078 C5.198448181152344 18.35731315612793 5.169576168060303 18.34284019470215 5.140704154968262 18.328369140625 L3.5207042694091797 16.15389633178711 C3.5311923027038574 16.08262062072754 3.6228761672973633 16.01445770263672 3.69415283203125 16.024944305419922 L5.314152717590332 18.199417114257812 C5.3047871589660645 18.263065338134766 5.288455009460449 18.351747512817383 5.227320194244385 18.371784210205078 L5.227320194244385 18.371784210205078"></path></svg>