<svg xmlns="http://www.w3.org/2000/svg" viewBox="0.0 0.0 24.0 24.0" height="200px" width="200px"><path fill="none" stroke="black" stroke-width=".3" stroke-opacity="1.0"  filling="0" d="M4.69379997253418 8.252832412719727 L4.69379997253418 8.252832412719727 C4.286304950714111 8.0536527633667 5.283013343811035 7.501766681671143 5.709486484527588 7.347346782684326 C6.251554489135742 7.151071548461914 6.816388130187988 7.0172014236450195 7.382946014404297 6.9105544090271 C8.84239387512207 6.635833263397217 10.418294906616211 6.498471736907959 11.994195938110352 6.498471260070801 C13.570096969604492 6.498471260070801 15.145997047424316 6.635831832885742 16.605443954467773 6.9105544090271 C16.67975616455078 6.9245429039001465 19.697776794433594 7.431312561035156 19.438825607299805 8.182415962219238 C19.283519744873047 8.632891654968262 18.55239486694336 7.831882476806641 18.102916717529297 7.673712253570557 C17.007671356201172 7.288297653198242 15.53818416595459 7.087623119354248 14.411693572998047 6.99709939956665 C12.704496383666992 6.859910488128662 11.078910827636719 6.8966383934021 9.478180885314941 7.106266021728516 C7.877450942993164 7.31589412689209 6.301576137542725 7.698421478271484 4.69379997253418 8.252832412719727 L4.69379997253418 8.252832412719727"></path>
<path fill="none" stroke="black" stroke-width=".3" stroke-opacity="1.0"  filling="0" d="M20.201305389404297 9.204743385314941 L20.201305389404297 9.204743385314941 C20.457500457763672 9.460675239562988 20.210111618041992 10.022144317626953 19.935394287109375 10.258084297180176 C18.596708297729492 11.407811164855957 16.10447120666504 11.557750701904297 14.475226402282715 11.68994140625 C13.00289535522461 11.80940055847168 11.423720359802246 11.87130355834961 9.860000610351562 11.776374816894531 C8.296280860900879 11.681446075439453 6.748016357421875 11.429685592651367 5.337505340576172 10.921817779541016 C4.473629951477051 10.610771179199219 3.814835786819458 10.342266082763672 3.5798873901367188 9.412320137023926 C3.4874706268310547 9.046526908874512 4.2684326171875 9.776948928833008 4.494647979736328 10.078896522521973 L6.719880104064941 8.087160110473633 C7.291027069091797 7.642197608947754 9.531572341918945 7.560055732727051 10.224047660827637 7.523670196533203 C12.680023193359375 7.394623279571533 14.981379508972168 7.518233299255371 17.359607696533203 8.112648010253906 L19.533863067626953 10.052112579345703 C19.743650436401367 9.76010513305664 19.946929931640625 9.458853721618652 20.201305389404297 9.204743385314941 L20.201305389404297 9.204743385314941"></path>
<path fill="none" stroke="black" stroke-width=".3" stroke-opacity="1.0"  filling="0" d="M17.18810272216797 10.902071952819824 L16.085857391357422 8.868000030517578 L11.994277000427246 8.868000030517578 L7.902696132659912 8.868000030517578 L6.800232410430908 10.902935981750488 C6.274416446685791 10.750656127929688 5.748600482940674 10.598376274108887 5.222784519195557 10.446096420288086 L7.24562406539917 8.442479133605957 C8.792830467224121 8.133907318115234 10.408696174621582 7.982296466827393 12.02479362487793 7.9829864501953125 C13.640891075134277 7.983676910400391 15.257219314575195 8.136667251586914 16.80535125732422 8.437295913696289 L18.812854766845703 10.426655769348145 C18.271270751953125 10.585127830505371 17.729686737060547 10.743599891662598 17.18810272216797 10.902071952819824 L17.18810272216797 10.902071952819824"></path>
<path fill="none" stroke="black" stroke-width=".3" stroke-opacity="1.0"  filling="0" d="M22.602575302124023 14.768903732299805 L22.602575302124023 14.768903732299805 C22.69683074951172 17.057315826416016 18.503293991088867 17.76847267150879 17.030847549438477 18.030712127685547 C15.384193420410156 18.323976516723633 13.68934154510498 18.47061538696289 11.994489669799805 18.470624923706055 C10.299637794494629 18.47063446044922 8.604784965515137 18.324012756347656 6.958127975463867 18.030759811401367 C4.672645568847656 17.623737335205078 2.289092779159546 17.105623245239258 1.3853282928466797 14.800439834594727 L1.3848962783813477 14.408616065979004 C1.4051406383514404 12.32042121887207 1.2401167154312134 9.824822425842285 2.652937173843384 8.083638191223145 C4.056606769561768 6.353731632232666 6.45367956161499 5.619697570800781 8.98025131225586 5.386082649230957 C11.506823539733887 5.152468204498291 14.162894248962402 5.419273376464844 16.08456039428711 5.69104528427124 C17.9979248046875 5.961643218994141 20.063106536865234 6.511737823486328 21.339033126831055 8.088589668273926 C22.74786376953125 9.829690933227539 22.58295440673828 12.322473526000977 22.603221893310547 14.408832550048828 L22.602575302124023 14.768903732299805"></path>
<path fill="none" stroke="black" stroke-width=".3" stroke-opacity="1.0"  filling="0" d="M21.396648406982422 15.582792282104492 L21.396648406982422 14.291975975036621 C21.145639419555664 13.877525329589844 20.68787384033203 14.25566577911377 20.485774993896484 14.59329605102539 L20.485774993896484 16.18521499633789 C20.293031692504883 16.272262573242188 20.10028648376465 16.359312057495117 19.907543182373047 16.446359634399414 L19.907543182373047 15.036312103271484 C19.654966354370117 14.553731918334961 18.918193817138672 14.949627876281738 18.642431259155273 15.317975997924805 L18.642431259155273 16.872743606567383 C18.428735733032227 16.928112030029297 18.215038299560547 16.98348045349121 18.0013427734375 17.038848876953125 L18.0013427734375 15.587760925292969 C17.733182907104492 15.029085159301758 16.742454528808594 15.394915580749512 16.382423400878906 15.816287994384766 L16.382423400878906 17.35161590576172 C16.14784812927246 17.383943557739258 15.9132719039917 17.416271209716797 15.678696632385254 17.448598861694336 L15.678696632385254 15.968135833740234 C15.390938758850098 15.325399398803711 14.162096977233887 15.617046356201172 13.706616401672363 16.099679946899414 L13.706616401672363 17.622480392456055 C13.50703239440918 17.63140869140625 13.307448387145996 17.640336990356445 13.107864379882812 17.64926528930664 L13.107864379882812 16.130352020263672 C12.934330940246582 15.721098899841309 11.054938316345215 15.721305847167969 10.880904197692871 16.130352020263672 L10.880904197692871 17.64926528930664 C10.681320190429688 17.640336990356445 10.481736183166504 17.63140869140625 10.28215217590332 17.622480392456055 L10.28215217590332 16.099679946899414 C9.826361656188965 15.617254257202148 8.597713470458984 15.325161933898926 8.309856414794922 15.968135833740234 L8.309856414794922 17.448598861694336 C8.07520866394043 17.41619873046875 7.840560436248779 17.383798599243164 7.605912208557129 17.351398468017578 L7.605912208557129 15.816287994384766 C7.245879173278809 15.394914627075195 6.255153656005859 15.02908706665039 5.986992359161377 15.587760925292969 L5.986992359161377 17.038631439208984 C5.7733683586120605 16.98326301574707 5.559744358062744 16.92789649963379 5.346120357513428 16.872528076171875 L5.346120357513428 15.317975997924805 C5.070654392242432 14.949491500854492 4.333067893981934 14.553553581237793 4.081008434295654 15.036312103271484 L4.081008434295654 16.4459285736084 C3.8881924152374268 16.35909652709961 3.6953766345977783 16.27226448059082 3.502560615539551 16.18543243408203 L3.502560615539551 14.59329605102539 C3.300597906112671 14.255226135253906 2.842963457107544 13.87787914276123 2.5916881561279297 14.291975975036621 L2.5916881561279297 15.581711769104004 C2.4499919414520264 15.321359634399414 2.308295488357544 15.061007499694824 2.1665992736816406 14.800655364990234 L2.166384696960449 14.407967567443848 C2.1920859813690186 12.628527641296387 1.998104453086853 10.433347702026367 3.0630850791931152 8.859153747558594 C3.7886669635772705 7.786640167236328 4.91041898727417 7.177207946777344 6.141524314880371 6.818709373474121 C7.3726301193237305 6.460210800170898 8.713088989257812 6.3526458740234375 9.876086235046387 6.283867359161377 C11.74592399597168 6.173286437988281 14.3654146194458 6.014937400817871 16.66814613342285 6.479947090148926 C18.970876693725586 6.9449567794799805 20.95684814453125 8.0333251953125 21.559646606445312 10.416180610656738 C21.85869598388672 11.598321914672852 21.804651260375977 13.224262237548828 21.821735382080078 14.407536506652832 L21.821086883544922 14.784238815307617 C21.834190368652344 15.08540153503418 21.542692184448242 15.319084167480469 21.396648406982422 15.582792282104492 L21.396648406982422 15.582792282104492"></path></svg>