<svg xmlns="http://www.w3.org/2000/svg" viewBox="0.0 0.0 24.0 24.0" height="200px" width="200px"><path fill="none" stroke="black" stroke-width=".3" stroke-opacity="1.0"  filling="0" d="M18.759286880493164 9.875640869140625 L18.759286880493164 9.875640869140625 C18.839998245239258 10.208568572998047 18.920711517333984 10.541496276855469 19.001422882080078 10.87442398071289 L17.562646865844727 13.040040016174316 L17.364791870117188 12.912384033203125 L18.80767059326172 10.742232322692871 C18.745607376098633 10.512194633483887 18.805707931518555 10.183871269226074 18.60398292541504 10.057080268859863 L18.60398292541504 9.792048454284668 C18.655750274658203 9.819912910461426 18.70751953125 9.847776412963867 18.759286880493164 9.875640869140625 L18.759286880493164 9.875640869140625"></path>
<path fill="none" stroke="black" stroke-width=".3" stroke-opacity="1.0"  filling="0" d="M17.67647933959961 10.262712478637695 L17.67647933959961 10.648056030273438 C17.579206466674805 10.665335655212402 17.481935501098633 10.682616233825684 17.384662628173828 10.699895858764648 L17.67647933959961 10.262712478637695"></path>
<path fill="none" stroke="black" stroke-width=".3" stroke-opacity="1.0"  filling="0" d="M16.857624053955078 11.595864295959473 L17.57647132873535 13.742688179016113 C17.486831665039062 13.961928367614746 17.216154098510742 14.18189525604248 17.307552337646484 14.400407791137695 C18.420324325561523 17.060800552368164 20.16693687438965 13.335514068603516 18.138288497924805 13.470743179321289 L17.440176010131836 11.385047912597656 C19.008544921875 11.193305969238281 20.366559982299805 12.12220287322998 20.93504524230957 13.326915740966797 C21.503528594970703 14.53162956237793 21.282480239868164 16.012157440185547 19.692718505859375 16.92367935180664 C17.738901138305664 18.0439395904541 15.10158920288086 16.635944366455078 15.147982597351074 14.31508731842041 C15.180450439453125 12.6908597946167 15.782147407531738 12.548669815063477 16.857624053955078 11.595864295959473 L16.857624053955078 11.595864295959473"></path>
<path fill="none" stroke="black" stroke-width=".3" stroke-opacity="1.0"  filling="0" d="M16.928688049316406 11.809487342834473 L16.55004119873047 12.379079818725586 L16.352184295654297 12.250991821289062 L16.751785278320312 11.649215698242188 C16.787065505981445 11.631431579589844 16.822343826293945 11.613648414611816 16.857624053955078 11.595864295959473 L16.928688049316406 11.809487342834473"></path>
<path fill="none" stroke="black" stroke-width=".3" stroke-opacity="1.0"  filling="0" d="M17.359174728393555 12.921456336975098 L17.633928298950195 13.088208198547363 C17.66033935546875 13.211462020874023 17.55073356628418 13.379714012145996 17.427215576171875 13.404864311218262 L16.11609649658203 12.54820728302002 C16.090429306030273 12.424859046936035 16.199508666992188 12.257672309875488 16.32280731201172 12.231768608093262 L17.359174728393555 12.921456336975098"></path>
<path fill="none" stroke="black" stroke-width=".3" stroke-opacity="1.0"  filling="0" d="M11.16645622253418 13.252367973327637 L11.16645622253418 13.252367973327637 C11.0464506149292 13.230194091796875 10.925751686096191 13.1701078414917 10.805520057678223 13.191024780273438 L9.637608528137207 10.254504203796387 L15.218832015991211 8.486760139465332 L11.16645622253418 13.252367973327637"></path>
<path fill="none" stroke="black" stroke-width=".3" stroke-opacity="1.0"  filling="0" d="M9.676055908203125 14.118743896484375 L9.676055908203125 14.118743896484375 C9.419740676879883 13.164962768554688 8.962848663330078 12.242466926574707 8.345928192138672 11.471231460571289 L9.089616775512695 10.557552337646484 L10.216919898986816 13.3919038772583 C10.084728240966797 13.63317584991455 9.952535629272461 13.8744478225708 9.820343971252441 14.11571979522705 L9.676055908203125 14.118743896484375"></path>
<path fill="none" stroke="black" stroke-width=".3" stroke-opacity="1.0"  filling="0" d="M8.994792938232422 14.141207695007324 L6.671928405761719 14.2183198928833 C6.600720405578613 14.073240280151367 6.529512405395508 13.928159713745117 6.458304405212402 13.783080101013184 L7.915008068084717 11.997191429138184 C8.414131164550781 12.622635841369629 8.784934997558594 13.369026184082031 8.994792938232422 14.141207695007324 L8.994792938232422 14.141207695007324"></path>
<path fill="none" stroke="black" stroke-width=".3" stroke-opacity="1.0"  filling="0" d="M2.2799997329711914 14.315303802490234 L2.2799997329711914 14.315303802490234 C2.6866233348846436 12.812541961669922 3.3987224102020264 11.685731887817383 4.380442142486572 11.119017601013184 C5.362161636352539 10.552303314208984 6.613502025604248 10.545685768127441 8.098608016967773 11.28331184387207 L8.960016250610352 10.227071762084961 C8.954760551452637 10.17732048034668 8.949503898620605 10.127568244934082 8.94424819946289 10.0778169631958 L8.94424819946289 10.0778169631958 C8.807127952575684 9.942355155944824 8.653411865234375 9.70410442352295 8.745527267456055 9.534791946411133 L8.02560043334961 7.602024078369141 C7.82666540145874 7.521003723144531 7.557786464691162 7.167054653167725 7.402656078338623 7.04582405090332 C7.238677978515625 6.917679309844971 6.47117805480957 6.74211311340332 6.736080169677734 6.4958882331848145 C7.145501136779785 6.115333557128906 7.851131916046143 6.576323509216309 8.40835189819336 6.620520114898682 C8.724417686462402 6.645589351654053 9.042407989501953 6.646225452423096 9.357671737670898 6.679920673370361 C9.598647117614746 6.705676078796387 10.159164428710938 6.630366802215576 10.063776016235352 6.853152751922607 C9.982329368591309 7.043377876281738 8.68563461303711 7.152211666107178 8.372712135314941 7.275216102600098 L8.372712135314941 7.275216102600098 C8.408639907836914 7.317408084869385 8.444568634033203 7.359600067138672 8.480496406555176 7.401792049407959 L9.241032600402832 9.445367813110352 C9.343560218811035 9.55034351348877 9.446088790893555 9.655320167541504 9.548616409301758 9.760295867919922 L15.241728782653809 7.959072113037109 C15.243672370910645 7.902696132659912 15.245616912841797 7.846320152282715 15.247560501098633 7.789944171905518 L15.104351997375488 7.391424179077148 C15.011990547180176 7.325374126434326 15.022379875183105 7.16768741607666 15.043871879577637 7.056191921234131 L16.888078689575195 5.821104049682617 C16.704086303710938 4.500400066375732 18.41635513305664 6.208387851715088 17.182920455932617 6.073823928833008 L15.4443359375 7.236335754394531 L15.597695350646973 7.6670403480529785 C15.634991645812988 7.711248397827148 15.67228889465332 7.75545597076416 15.709585189819336 7.79966402053833 L16.26038360595703 9.34881591796875 C16.360654830932617 9.263400077819824 16.53553581237793 9.326733589172363 16.653934478759766 9.384455680847168 L17.130647659301758 10.76404857635498 C19.063941955566406 10.489127159118652 20.79225730895996 11.601256370544434 21.536203384399414 13.069540023803711 C22.280149459838867 14.537822723388672 22.03972625732422 16.362258911132812 20.035551071166992 17.511953353881836 C18.756271362304688 18.245811462402344 17.409488677978516 18.13742446899414 16.360029220581055 17.500213623046875 C15.310568809509277 16.863000869750977 14.558432579040527 15.696964263916016 14.468448638916016 14.315519332885742 C14.359596252441406 12.644394874572754 15.51446533203125 11.726579666137695 16.723054885864258 10.908768653869629 L16.291919708251953 9.66525650024414 C16.17844581604004 9.766257286071777 15.96107006072998 9.725297927856445 15.83702278137207 9.637608528137207 L15.606550216674805 8.987448692321777 L11.652888298034668 13.634903907775879 C11.704296112060547 13.761479377746582 11.755703926086426 13.888055801391602 11.807111740112305 14.014631271362305 L12.177984237670898 13.830167770385742 C12.206999778747559 13.800647735595703 12.236016273498535 13.771127700805664 12.265031814575195 13.741607666015625 L12.58449649810791 13.741607666015625 C12.61351203918457 13.771127700805664 12.642528533935547 13.800647735595703 12.671544075012207 13.830167770385742 L12.671544075012207 14.351160049438477 C12.642528533935547 14.38032054901123 12.61351203918457 14.409480094909668 12.58449649810791 14.438640594482422 L12.265031814575195 14.438640594482422 C12.236016273498535 14.409480094909668 12.206999778747559 14.38032054901123 12.177984237670898 14.351160049438477 L11.823960304260254 14.191967964172363 C11.489376068115234 14.526551246643066 11.290138244628906 15.140423774719238 10.820207595825195 15.195718765258789 C10.40826416015625 15.244190216064453 10.168895721435547 14.681927680969238 9.843239784240723 14.425031661987305 L9.677135467529297 14.429784774780273 C9.497261047363281 15.034598350524902 9.462381362915039 15.703286170959473 9.13751220703125 16.244224548339844 C8.432948112487793 17.41739273071289 7.186149597167969 17.997711181640625 5.944843769073486 17.987049102783203 C4.703537464141846 17.976388931274414 3.467723846435547 17.37474822998047 2.785127878189087 16.18400001525879 C2.464224100112915 15.624201774597168 2.448375701904297 14.938202857971191 2.2799997329711914 14.315303802490234 L2.2799997329711914 14.315303802490234"></path>
<path fill="none" stroke="black" stroke-width=".3" stroke-opacity="1.0"  filling="0" d="M2.9604005813598633 14.315303802490234 L2.9604005813598633 14.315303802490234 C3.690525770187378 11.618290901184082 5.031425476074219 11.006743431091309 7.666823863983154 11.811431884765625 L6.218112468719482 13.586520195007324 C5.04133939743042 13.275167465209961 3.980618953704834 15.21320629119873 5.755224704742432 15.333959579467773 C6.163334369659424 15.361729621887207 6.3716888427734375 14.796120643615723 6.679920673370361 14.527200698852539 L8.996952056884766 14.45095157623291 C8.623335838317871 15.653404235839844 7.656473159790039 16.7665958404541 6.5634331703186035 17.19625473022461 C5.470393180847168 17.625911712646484 4.251175403594971 17.37203598022461 3.3728487491607666 15.840353012084961 C3.1108837127685547 15.38352108001709 3.0978832244873047 14.823653221130371 2.9604005813598633 14.315303802490234 L2.9604005813598633 14.315303802490234"></path>
<path fill="none" stroke="black" stroke-width=".3" stroke-opacity="1.0"  filling="0" d="M17.73695945739746 17.986223220825195 L17.73685073852539 13.625075340270996 L17.736743927001953 9.263927459716797 C17.619728088378906 8.945245742797852 17.333276748657227 8.657782554626465 17.01184844970703 8.54853630065918 L12.033696174621582 8.54853630065918 L7.055543899536133 8.54853630065918 C6.7400054931640625 8.654190063476562 6.450536727905273 8.923172950744629 6.328704357147217 9.232824325561523 L6.327624320983887 13.60952377319336 L6.326543807983398 17.986223220825195 L5.52064847946167 17.986223220825195 L5.52064847946167 13.632095336914062 L5.52064847946167 9.277968406677246 C5.780516624450684 8.602416038513184 6.379831790924072 8.001445770263672 7.055543899536133 7.741992473602295 L12.033696174621582 7.741992473602295 L17.01184844970703 7.741992473602295 C17.68703842163086 8.00195598602295 18.284311294555664 8.604291915893555 18.543720245361328 9.279695510864258 L18.543720245361328 13.632959365844727 L18.543720245361328 17.986223220825195 L17.73695945739746 17.986223220825195"></path>
<path fill="none" stroke="black" stroke-width=".3" stroke-opacity="1.0"  filling="0" d="M18.605064392089844 18.04800033569336 L17.67647933959961 18.04800033569336 L17.67647933959961 13.65574836730957 L17.67647933959961 9.263496398925781 C17.569259643554688 8.97228717803955 17.306415557861328 8.709227561950684 17.01184844970703 8.611608505249023 L12.033696174621582 8.611608505249023 L7.055543899536133 8.611608505249023 C6.759975910186768 8.707661628723145 6.497255802154541 8.972187995910645 6.388968467712402 9.263496398925781 L6.388968467712402 13.65574836730957 L6.388968467712402 18.04800033569336 L5.459304332733154 18.04800033569336 L5.459304332733154 13.663847923278809 L5.459304332733154 9.279695510864258 C5.730043411254883 8.576904296875 6.352756500244141 7.95139741897583 7.055543899536133 7.680648326873779 L12.033696174621582 7.680648326873779 L17.01184844970703 7.680648326873779 C17.713817596435547 7.951539516448975 18.335153579711914 8.577348709106445 18.605064392089844 9.279695510864258 L18.605064392089844 13.663847923278809 L18.605064392089844 18.04800033569336"></path></svg>