<svg xmlns="http://www.w3.org/2000/svg" viewBox="0.0 0.0 24.0 24.0" height="200px" width="200px"><path fill="none" stroke="black" stroke-width=".3" stroke-opacity="1.0"  filling="0" d="M10.971407890319824 210.51025390625 L10.971407890319824 210.51025390625 C11.584676742553711 210.20361328125 12.415132522583008 210.2035675048828 13.028375625610352 210.51025390625 L17.914188385009766 213.33877563476562 L22.799999237060547 216.16729736328125 L20.743030548095703 216.16729736328125 L20.743030548095703 220.2816619873047 L20.743030548095703 224.39602661132812 C20.400165557861328 224.7388916015625 20.057302474975586 225.08175659179688 19.71443748474121 225.42462158203125 L16.62887954711914 225.42462158203125 L16.62887954711914 220.28167724609375 C16.2860164642334 219.93881225585938 15.94315242767334 219.59593200683594 15.600288391113281 219.25306701660156 L8.400144577026367 219.25306701660156 C8.057280540466309 219.59593200683594 7.71441650390625 219.93881225585938 7.371552467346191 220.28167724609375 L7.371552467346191 225.42462158203125 L4.285776615142822 225.42462158203125 C3.9429128170013428 225.08175659179688 3.600048780441284 224.7388916015625 3.2571849822998047 224.39602661132812 L3.2571849822998047 220.2816619873047 L3.2571849822998047 216.16729736328125 L1.2000007629394531 216.16729736328125 L6.085704326629639 213.33877563476562 L10.971407890319824 210.51025390625"></path>
<path fill="none" stroke="black" stroke-width=".3" stroke-opacity="1.0"  filling="0" d="M8.399928092956543 220.28167724609375 L15.600071907043457 220.28167724609375 L15.600071907043457 221.3102569580078 L8.399928092956543 221.3102569580078 L8.399928092956543 220.28167724609375"></path>
<path fill="none" stroke="black" stroke-width=".3" stroke-opacity="1.0"  filling="0" d="M8.399928092956543 222.33885192871094 L15.600071907043457 222.33885192871094 L15.600071907043457 223.36721801757812 L8.399928092956543 223.36721801757812 L8.399928092956543 222.33885192871094"></path>
<path fill="none" stroke="black" stroke-width=".3" stroke-opacity="1.0"  filling="0" d="M8.399928092956543 224.39602661132812 L15.600071907043457 224.39602661132812 L15.600071907043457 225.42462158203125 L8.399928092956543 225.42462158203125 L8.399928092956543 224.39602661132812"></path></svg>