<svg xmlns="http://www.w3.org/2000/svg" viewBox="0.0 0.0 24.0 24.0" height="200px" width="200px"><path fill="none" stroke="black" stroke-width=".3" stroke-opacity="1.0"  filling="0" d="M19.44443130493164 7.105981349945068 L19.44443130493164 7.105981349945068 C19.960290908813477 7.4690470695495605 20.60248565673828 8.05398941040039 19.602319717407227 8.277132987976074 L19.44443130493164 8.274972915649414 C19.16895866394043 7.999377250671387 19.220294952392578 7.424729347229004 19.44443130493164 7.105981349945068 L19.44443130493164 7.105981349945068"></path>
<path fill="none" stroke="black" stroke-width=".3" stroke-opacity="1.0"  filling="0" d="M9.377756118774414 7.467133045196533 L9.377756118774414 7.467133045196533 C9.8936185836792 7.8302001953125 10.535811424255371 8.415140151977539 9.535643577575684 8.638284683227539 L9.377756118774414 8.636125564575195 C9.102283477783203 8.360529899597168 9.153618812561035 7.785881519317627 9.377756118774414 7.467133045196533 L9.377756118774414 7.467133045196533"></path>
<path fill="none" stroke="black" stroke-width=".3" stroke-opacity="1.0"  filling="0" d="M22.576221466064453 8.600916862487793 L22.576221466064453 8.600916862487793 C20.913503646850586 10.51832103729248 20.587156295776367 10.988012313842773 20.830427169799805 13.595820426940918 C20.865821838378906 13.975244522094727 20.6918888092041 14.56830883026123 21.04175567626953 14.719332695007324 C21.583791732788086 14.953309059143066 22.164474487304688 13.498730659484863 22.606674194335938 13.889892578125 C23.385520935058594 14.578845024108887 21.183975219726562 16.103498458862305 20.68514060974121 15.946430206298828 C20.021081924438477 15.737337112426758 20.258350372314453 13.782608032226562 19.654815673828125 14.129652976989746 C18.742225646972656 14.654411315917969 19.561847686767578 16.247705459594727 19.303157806396484 17.26813316345215 C19.240556716918945 17.51506996154785 18.888744354248047 18.00089454650879 18.745227813720703 17.790420532226562 C17.38685417175293 15.79830551147461 19.41683578491211 12.863931655883789 18.434410095214844 10.759406089782715 C18.16695785522461 10.186477661132812 15.590730667114258 8.317258834838867 16.32300567626953 7.591981410980225 C16.851869583129883 7.06817102432251 18.53580093383789 9.375996589660645 18.99276351928711 9.562981605529785 C20.518657684326172 10.187365531921387 22.891395568847656 6.204476356506348 22.576221466064453 8.600916862487793 L22.576221466064453 8.600916862487793"></path>
<path fill="none" stroke="black" stroke-width=".3" stroke-opacity="1.0"  filling="0" d="M3.686136245727539 8.822965621948242 L3.0949573516845703 8.191813468933105 L3.41054630279541 7.89632511138916 C4.07157039642334 7.330484390258789 4.587082386016846 6.734928131103516 5.156449317932129 6.067453861236572 L5.448492527008057 5.748420715332031 L6.086130142211914 6.332269191741943 L5.79429817199707 6.65130090713501 C5.2198896408081055 7.321780204772949 4.674637794494629 7.954106330871582 4.001302719116211 8.527259826660156 L3.686136245727539 8.822965621948242"></path>
<path fill="none" stroke="black" stroke-width=".3" stroke-opacity="1.0"  filling="0" d="M5.392989158630371 8.878693580627441 L5.041989326477051 8.50393295288086 C4.513006210327148 7.868100643157959 3.9833335876464844 7.232839584350586 3.452444076538086 6.598597526550293 L3.156947135925293 6.283020496368408 L3.7880983352661133 5.692044734954834 L4.083595275878906 6.007406234741211 C4.610276699066162 6.644162178039551 5.139310359954834 7.278985977172852 5.671400547027588 7.911229133605957 L6.02414083480835 8.287717819213867 L5.392989158630371 8.878693580627441"></path>
<path fill="none" stroke="black" stroke-width=".3" stroke-opacity="1.0"  filling="0" d="M15.315805435180664 9.12514877319336 L14.936302185058594 8.775444984436035 C14.36275863647461 8.180668830871582 13.788573265075684 7.586509704589844 13.21325969696045 6.993444919586182 L12.89529800415039 6.700332164764404 L13.481308937072754 6.064645767211914 L13.799270629882812 6.357541084289551 C14.37067699432373 6.9534502029418945 14.944291114807129 7.547255992889404 15.520784378051758 8.138245582580566 L15.90202808380127 8.489677429199219 L15.315805435180664 9.12514877319336"></path>
<path fill="none" stroke="black" stroke-width=".3" stroke-opacity="1.0"  filling="0" d="M19.602319717407227 9.141780853271484 L19.44443130493164 9.13962173461914 C18.186838150024414 8.626874923706055 17.28664779663086 6.2379913330078125 19.44443130493164 6.241332054138184 C21.593273162841797 6.244658946990967 21.20624351501465 8.672375679016113 19.602319717407227 9.141780853271484 L19.602319717407227 9.141780853271484"></path>
<path fill="none" stroke="black" stroke-width=".3" stroke-opacity="1.0"  filling="0" d="M13.60876750946045 9.19448471069336 L12.973291397094727 8.608043670654297 L13.266389846801758 8.290525436401367 C13.884308815002441 7.677639484405518 14.354673385620117 7.04612398147583 14.87365436553955 6.338533401489258 L15.141281127929688 5.998981475830078 L15.820157051086426 6.534444808959961 L15.552530288696289 6.873996734619141 C15.028746604919434 7.5849127769470215 14.53122615814209 8.255393981933594 13.901865005493164 8.876749038696289 L13.60876750946045 9.19448471069336"></path>
<path fill="none" stroke="black" stroke-width=".3" stroke-opacity="1.0"  filling="0" d="M9.53585433959961 9.502933502197266 L9.377967834472656 9.500773429870605 C8.120512962341309 8.987970352172852 7.2201128005981445 6.5992279052734375 9.377967834472656 6.602485179901123 C11.526856422424316 6.605729103088379 11.139626502990723 9.033462524414062 9.53585433959961 9.502933502197266 L9.53585433959961 9.502933502197266"></path>
<path fill="none" stroke="black" stroke-width=".3" stroke-opacity="1.0"  filling="0" d="M15.544118881225586 9.540733337402344 L15.544118881225586 9.540733337402344 C16.515302658081055 10.664133071899414 17.12660789489746 11.766765594482422 17.713611602783203 13.128925323486328 L17.713611602783203 13.128925323486328 C17.63981819152832 13.372716903686523 17.716800689697266 13.74009895324707 17.492231369018555 13.860300064086914 C17.26765251159668 13.98050594329834 17.00463104248047 13.712700843811035 16.760831832885742 13.638900756835938 L16.760831832885742 13.638900756835938 C16.58027458190918 13.196227073669434 16.442445755004883 12.733613967895508 16.219161987304688 12.31087875366211 C16.058752059936523 12.00717830657959 15.80047607421875 11.183669090270996 15.61755084991455 11.474365234375 C15.328083038330078 11.934374809265137 15.679420471191406 12.559696197509766 15.721611022949219 13.101564407348633 C15.809626579284668 14.231985092163086 15.970569610595703 15.978665351867676 16.083696365356445 17.223421096801758 L16.083696365356445 17.223421096801758 C14.815279006958008 19.170734405517578 14.95584487915039 14.638405799865723 14.93475341796875 14.50967788696289 C14.909444808959961 14.355210304260254 14.81517219543457 14.038575172424316 14.679038047790527 14.115829467773438 C13.694345474243164 14.674627304077148 15.291324615478516 17.92877769470215 13.858016014099121 17.861268997192383 C13.618812561035156 17.85000228881836 13.429566383361816 17.549297332763672 13.394481658935547 17.31241226196289 C13.175846099853516 15.836248397827148 13.531908988952637 14.330225944519043 13.540153503417969 12.837981224060059 C13.54672622680664 11.648289680480957 13.652462005615234 10.672877311706543 13.010763168334961 12.37524700164795 C12.855353355407715 12.787535667419434 12.78173542022705 13.226179122924805 12.667222023010254 13.651644706726074 L12.667222023010254 13.651644706726074 C12.356468200683594 13.86135196685791 11.867731094360352 13.90241813659668 11.544217109680176 13.71298885345459 L11.544217109680176 13.71298885345459 C11.333599090576172 13.309123039245605 11.152316093444824 12.888547897338867 10.91236400604248 12.501391410827637 C10.734823226928711 12.214933395385742 10.557315826416016 11.486353874206543 10.29638957977295 11.699652671813965 C9.963834762573242 11.971504211425781 10.313163757324219 12.558564186096191 10.317005157470703 12.988077163696289 C10.323931694030762 13.762474060058594 10.332955360412598 14.53691577911377 10.328692436218262 15.311332702636719 C10.325002670288086 15.981621742248535 10.419745445251465 16.663681030273438 10.293147087097168 17.321916580200195 C10.249336242675781 17.549707412719727 9.984944343566895 18.020139694213867 9.833513259887695 17.84442138671875 C9.314382553100586 17.24203109741211 9.418498992919922 16.301122665405273 9.345110893249512 15.509299278259277 C9.305668830871582 15.083735466003418 9.526670455932617 14.230485916137695 9.099767684936523 14.250828742980957 C8.475973129272461 14.28055477142334 9.083341598510742 16.088464736938477 8.463421821594238 16.012954711914062 C7.649833679199219 15.913854598999023 6.154580116271973 15.241354942321777 6.51942253112793 14.507436752319336 C6.749763488769531 14.044081687927246 7.5841450691223145 15.354361534118652 7.983038425445557 15.024757385253906 C8.305089950561523 14.758647918701172 8.103894233703613 14.196637153625488 8.123265266418457 13.779316902160645 C8.206559181213379 11.984890937805176 8.27370834350586 11.027807235717773 7.226527214050293 9.598917007446289 C6.827184677124023 9.054009437561035 5.820957183837891 8.204527854919434 6.342525005340576 7.775149822235107 C6.832578182220459 7.371716022491455 7.421980857849121 8.469493865966797 7.851090431213379 8.93722915649414 C8.507984161376953 9.653251647949219 9.717574119567871 9.56015396118164 10.521907806396484 10.105356216430664 C10.910472869873047 10.368738174438477 11.763322830200195 12.246540069580078 12.024837493896484 12.790884017944336 L12.024837493896484 12.790884017944336 C12.6690673828125 10.525840759277344 13.03235149383545 9.206907272338867 15.544118881225586 9.540733337402344 L15.544118881225586 9.540733337402344"></path>
<path fill="none" stroke="black" stroke-width=".3" stroke-opacity="1.0"  filling="0" d="M6.851622104644775 13.102572441101074 L6.851622104644775 13.102572441101074 C6.671237945556641 12.444573402404785 6.5016350746154785 10.901727676391602 5.930379390716553 11.2747802734375 C5.6783552169799805 11.439361572265625 5.884454250335693 11.875709533691406 5.886163711547852 12.176708221435547 C5.889717102050781 12.802403450012207 5.922393321990967 13.427610397338867 5.9461565017700195 14.052864074707031 C5.998086452484131 15.419236183166504 6.535865306854248 17.231643676757812 5.562530517578125 18.30795669555664 C5.39699649810791 18.491004943847656 5.108708381652832 17.99679946899414 5.0728654861450195 17.752620697021484 C4.933933258056641 16.80615234375 5.13426399230957 15.836149215698242 5.054800510406494 14.882844924926758 C5.033974647521973 14.633000373840332 5.026147365570068 14.186478614807129 4.775444030761719 14.184515953063965 C4.522578716278076 14.182536125183105 4.496687889099121 14.626960754394531 4.46847677230835 14.878254890441895 C4.339093208312988 16.0307674407959 5.043052673339844 18.2960147857666 3.8833627700805664 18.30795669555664 C3.101255416870117 18.316009521484375 3.4155445098876953 16.786426544189453 3.4360315799713135 16.004545211791992 C3.450989007949829 15.433706283569336 3.5746748447418213 12.523731231689453 3.5813233852386475 11.860991477966309 C3.584556818008423 11.538681983947754 3.819460391998291 11.066917419433594 3.547048568725586 10.894621849060059 C3.3219523429870605 10.752252578735352 3.3496460914611816 11.478998184204102 3.09366512298584 11.552556991577148 C2.7509214878082275 11.65104866027832 2.3130970001220703 11.564114570617676 2.0482330322265625 11.325324058532715 C1.6604946851730347 10.97575569152832 1.555887222290039 10.40458869934082 1.3097143173217773 9.944221496582031 L1.3097143173217773 9.944221496582031 C1.6257548332214355 7.532439231872559 2.1111340522766113 10.790510177612305 2.611119270324707 10.719013214111328 C3.205448627471924 10.634025573730469 3.271559715270996 9.621357917785645 3.824827194213867 9.388236999511719 C4.422177314758301 9.136541366577148 5.16583776473999 9.15198040008545 5.769460201263428 9.388236999511719 C6.856327533721924 9.813634872436523 7.551756381988525 11.585864067077637 7.699643611907959 12.551557540893555 C8.017664909362793 14.628215789794922 7.343355655670166 13.598115921020508 6.851622104644775 13.102572441101074 L6.851622104644775 13.102572441101074"></path></svg>