<svg xmlns="http://www.w3.org/2000/svg" viewBox="0.0 0.0 24.0 24.0" height="200px" width="200px"><path fill="none" stroke="black" stroke-width=".3" stroke-opacity="1.0"  filling="0" d="M16.945751190185547 5.822400093078613 L16.945751190185547 5.822400093078613 C16.564807891845703 5.780396938323975 16.133037567138672 5.891086101531982 15.802923202514648 5.6963911056518555 C14.629659652709961 5.004424095153809 14.807953834533691 3.012472152709961 16.193206787109375 2.6780881881713867 C17.54229736328125 2.352433681488037 18.767637252807617 3.7800774574279785 18.016868591308594 5.0420732498168945 C17.791019439697266 5.4217119216918945 17.30278968811035 5.562291145324707 16.945751190185547 5.822400093078613 L16.945751190185547 5.822400093078613"></path>
<path fill="none" stroke="black" stroke-width=".3" stroke-opacity="1.0"  filling="0" d="M10.794288635253906 5.923488140106201 L9.975000381469727 6.196512222290039 C9.593294143676758 6.259128093719482 9.750722885131836 5.96013069152832 9.838055610656738 5.785464286804199 L10.657560348510742 5.512656211853027 C10.786651611328125 5.577202320098877 10.858915328979492 5.794436931610107 10.794288635253906 5.923488140106201 L10.794288635253906 5.923488140106201"></path>
<path fill="none" stroke="black" stroke-width=".3" stroke-opacity="1.0"  filling="0" d="M19.59326171875 7.028112411499023 L19.59326171875 7.028112411499023 C20.446731567382812 9.112749099731445 20.78693962097168 11.109272003173828 20.84714126586914 13.1318359375 C20.9073429107666 15.154400825500488 20.687538146972656 17.203006744384766 20.42098617553711 19.391815185546875 C20.32215118408203 20.203411102294922 20.5734920501709 21.151432037353516 20.109718322753906 21.82476043701172 C19.829700469970703 22.23130226135254 19.31101417541504 23.11098289489746 18.962543487548828 22.761333465576172 C17.38392448425293 21.1773681640625 17.963769912719727 19.363786697387695 17.940542221069336 17.176843643188477 C17.9144229888916 14.717704772949219 17.888347625732422 12.41586685180664 17.15764808654785 10.050600051879883 L17.15764808654785 10.050600051879883 C16.667255401611328 10.419455528259277 16.217567443847656 10.849797248840332 15.686470985412598 11.157167434692383 C15.114659309387207 11.488101959228516 14.450846672058105 10.669267654418945 13.88962173461914 10.320680618286133 C13.538996696472168 10.102901458740234 11.749293327331543 9.207052230834961 12.502415657043457 8.224752426147461 C13.274351119995117 7.217914581298828 14.974407196044922 8.950549125671387 15.555143356323242 9.316632270812988 L15.555143356323242 9.316632270812988 C15.958662033081055 8.631155967712402 16.88929557800293 5.701842784881592 18.181486129760742 6.072096347808838 C18.72783851623535 6.228643894195557 19.122669219970703 6.709440231323242 19.59326171875 7.028112411499023 L19.59326171875 7.028112411499023"></path>
<path fill="none" stroke="black" stroke-width=".3" stroke-opacity="1.0"  filling="0" d="M11.452439308166504 7.187088489532471 L11.452439308166504 7.187088489532471 C11.38663101196289 7.265136241912842 11.320823669433594 7.343184471130371 11.25501537322998 7.421232223510742 L10.091207504272461 7.520376205444336 C9.571479797363281 7.53850793838501 10.011597633361816 7.139676094055176 10.054488182067871 7.088808536529541 L11.21829605102539 6.989664554595947 C11.296343803405762 7.055472373962402 11.374391555786133 7.121280670166016 11.452439308166504 7.187088489532471 L11.452439308166504 7.187088489532471"></path>
<path fill="none" stroke="black" stroke-width=".3" stroke-opacity="1.0"  filling="0" d="M10.24737548828125 8.548320770263672 L10.97983169555664 8.673816680908203 C11.05150318145752 8.775155067443848 11.36404037475586 9.138503074645996 10.906824111938477 9.100848197937012 L10.174367904663086 8.97535228729248 C10.090981483459473 8.857451438903809 10.129508018493652 8.631754875183105 10.24737548828125 8.548320770263672 L10.24737548828125 8.548320770263672"></path>
<path fill="none" stroke="black" stroke-width=".3" stroke-opacity="1.0"  filling="0" d="M13.568807601928711 11.393688201904297 L13.568807601928711 11.393688201904297 C13.677959442138672 11.553024291992188 13.78711223602295 11.712360382080078 13.89626407623291 11.871696472167969 L13.730375289916992 13.117152214050293 C13.644911766052246 13.230480194091797 13.559447288513184 13.343807220458984 13.473983764648438 13.457135200500488 L12.642383575439453 13.819583892822266 L13.068876266479492 18.041088104248047 L13.495368003845215 22.262592315673828 C13.523579597473145 22.493562698364258 13.561797142028809 22.799999237060547 13.070712089538574 22.799999237060547 L8.258124351501465 22.799999237060547 L3.4455366134643555 22.799999237060547 C3.253187656402588 22.717451095581055 3.0855560302734375 22.541181564331055 3.012887954711914 22.344886779785156 L3.3663363456726074 15.43360710144043 L3.7197842597961426 8.52232837677002 L4.073232173919678 1.611048698425293 C4.2174482345581055 1.4740327596664429 4.361664772033691 1.3370167016983032 4.505880832672119 1.2000007629394531 L8.878044128417969 1.2000007629394531 L13.25020694732666 1.2000007629394531 C13.394567489624023 1.3444328308105469 13.53892707824707 1.4888648986816406 13.683287620544434 1.6332969665527344 L13.683287620544434 3.313776969909668 C13.575719833374023 3.4533846378326416 13.468152046203613 3.5929925441741943 13.360584259033203 3.732600212097168 L8.954615592956543 4.8942484855651855 L8.954615592956543 10.276535987854004 L11.688311576843262 10.938575744628906 L11.796743392944336 10.473527908325195 C11.242069244384766 9.334733963012695 13.286050796508789 9.331336975097656 12.215352058410645 10.583904266357422 L12.108863830566406 11.040096282958984 L13.568807601928711 11.393688201904297"></path></svg>