<svg xmlns="http://www.w3.org/2000/svg" viewBox="0.0 0.0 24.0 24.0" height="200px" width="200px"><path fill="none" stroke="black" stroke-width=".3" stroke-opacity="1.0"  filling="0" d="M11.643815994262695 5.310911655426025 L11.643815994262695 5.310911655426025 C14.563912391662598 6.520428657531738 12.732760429382324 9.167182922363281 11.033543586730957 10.860031127929688 C10.735209465026855 11.157247543334961 10.427868843078613 11.594808578491211 10.006752014160156 11.596078872680664 C9.599935531616211 11.597306251525879 9.316180229187012 11.153914451599121 9.028688430786133 10.866079330444336 C7.927038192749023 9.763113021850586 6.885141849517822 8.6060152053833 6.732624053955078 6.948192119598389 C6.53547477722168 4.805233955383301 9.341601371765137 5.118351936340332 10.006752014160156 6.511441230773926 L10.006752014160156 6.511441230773926 C10.31482982635498 5.908942699432373 11.027019500732422 5.589261531829834 11.643815994262695 5.310911655426025 L11.643815994262695 5.310911655426025"></path>
<path fill="none" stroke="black" stroke-width=".3" stroke-opacity="1.0"  filling="0" d="M20.0224552154541 6.509496212005615 L20.0224552154541 6.509496212005615 C19.64589500427246 6.88591194152832 19.422571182250977 7.585803508758545 18.892776489257812 7.638743877410889 C18.079673767089844 7.719994068145752 17.206361770629883 5.753749370574951 18.892776489257812 5.585232734680176 C19.37689971923828 5.536856174468994 19.64589500427246 6.201408386230469 20.0224552154541 6.509496212005615 L20.0224552154541 6.509496212005615"></path>
<path fill="none" stroke="black" stroke-width=".3" stroke-opacity="1.0"  filling="0" d="M16.027751922607422 10.52191162109375 L16.027751922607422 10.52191162109375 C16.318775177001953 10.69262409210205 16.609800338745117 10.863335609436035 16.90082359313965 11.034048080444336 L16.90082359313965 12.987336158752441 C16.755311965942383 13.132847785949707 16.609798431396484 13.278360366821289 16.46428680419922 13.423871994018555 L9.988499641418457 13.423871994018555 L3.5127124786376953 13.423871994018555 C3.3672006130218506 13.278360366821289 3.2216885089874268 13.132847785949707 3.076176643371582 12.987336158752441 L3.076176643371582 7.875912666320801 L3.076176643371582 2.76448917388916 C3.2216885089874268 2.6189768314361572 3.3672006130218506 2.4734647274017334 3.5127124786376953 2.3279523849487305 L8.57964038848877 2.3279523849487305 L8.57964038848877 1.6365375518798828 C8.725152015686035 1.4910253286361694 8.8706636428833 1.3455129861831665 9.016175270080566 1.2000007629394531 L10.997328758239746 1.2000007629394531 C11.142840385437012 1.3455129861831665 11.288352012634277 1.4910253286361694 11.433863639831543 1.6365375518798828 L11.433863639831543 2.3279523849487305 L16.46407127380371 2.3279523849487305 C16.609582901000977 2.4734647274017334 16.755094528198242 2.6189768314361572 16.900606155395508 2.76448917388916 L16.900606155395508 8.640768051147461 C16.709718704223633 8.19826889038086 16.3513126373291 7.845354080200195 16.02753448486328 7.488407611846924 L16.02753448486328 4.292688369750977 L9.988391876220703 4.292688369750977 L3.9492483139038086 4.292688369750977 L3.9492483139038086 8.421852111816406 L3.9492483139038086 12.551016807556152 L9.988500595092773 12.551016807556152 L16.027751922607422 12.551016807556152 L16.027751922607422 10.52191162109375"></path>
<path fill="none" stroke="black" stroke-width=".3" stroke-opacity="1.0"  filling="0" d="M21.230327606201172 11.587007522583008 L21.230327606201172 11.587007522583008 C21.077823638916016 11.153757095336914 20.99679183959961 10.688250541687012 20.77281379699707 10.28725528717041 C20.642383575439453 10.053743362426758 20.415071487426758 9.581072807312012 20.193960189819336 9.731569290161133 C19.925579071044922 9.914238929748535 20.15509033203125 10.38027286529541 20.159212112426758 10.70489501953125 C20.167787551879883 11.38034725189209 20.204364776611328 12.055167198181152 20.232030868530273 12.730107307434082 C20.28919219970703 14.124676704406738 20.860580444335938 16.107566833496094 19.859375 17.214887619018555 C19.69217872619629 17.399803161621094 19.40096092224121 16.900585174560547 19.364736557006836 16.653934478759766 C19.224365234375 15.69814395904541 19.426618576049805 14.7185697555542 19.346403121948242 13.755863189697266 C19.325380325317383 13.503571510314941 19.31765365600586 13.052608489990234 19.064495086669922 13.050622940063477 C18.809125900268555 13.048619270324707 18.78294563293457 13.497435569763184 18.75445556640625 13.751219749450684 C18.64830207824707 14.696825981140137 18.825565338134766 15.666479110717773 18.665544509887695 16.604473114013672 C18.62124252319336 16.864158630371094 18.426982879638672 17.21214485168457 18.163558959960938 17.214887619018555 C17.37378692626953 17.223114013671875 17.691011428833008 15.67846965789795 17.711708068847656 14.888925552368164 C17.726844787597656 14.311481475830078 17.851726531982422 11.374699592590332 17.858440399169922 10.704561233520508 C17.8617000579834 10.379105567932129 18.098867416381836 9.902730941772461 17.82379150390625 9.728760719299316 C17.596498489379883 9.585010528564453 17.624557495117188 10.31887435913086 17.3660888671875 10.393176078796387 C17.02002716064453 10.492657661437988 16.57791519165039 10.404911041259766 16.310495376586914 10.163784980773926 C15.918906211853027 9.810697555541992 15.813263893127441 9.233832359313965 15.564647674560547 8.768856048583984 L15.564647674560547 8.768856048583984 C15.883781433105469 6.333532333374023 16.373987197875977 9.623530387878418 16.87879180908203 9.551424026489258 C18.102569580078125 9.376619338989258 18.24934959411621 7.150074005126953 20.06824493408203 8.207688331604004 C21.2040958404541 8.868139266967773 21.812339782714844 9.892399787902832 22.017215728759766 11.183736801147461 C22.405309677124023 13.629895210266113 21.516000747680664 11.985495567321777 21.230327606201172 11.587007522583008 L21.230327606201172 11.587007522583008"></path>
<path fill="none" stroke="black" stroke-width=".3" stroke-opacity="1.0"  filling="0" d="M12.00864028930664 17.47149658203125 L12.00864028930664 17.47149658203125 C11.609831809997559 17.87023162841797 11.373371124267578 18.61163902282715 10.812215805053711 18.66770362854004 C10.353139877319336 18.71356964111328 9.833736419677734 18.15015411376953 9.833736419677734 17.688793182373047 C9.833736419677734 17.173595428466797 10.299570083618164 16.5435848236084 10.812215805053711 16.492366790771484 C11.324996948242188 16.441133499145508 11.609831809997559 17.14512062072754 12.00864028930664 17.47149658203125 L12.00864028930664 17.47149658203125"></path>
<path fill="none" stroke="black" stroke-width=".3" stroke-opacity="1.0"  filling="0" d="M16.65911865234375 17.590728759765625 L16.65911865234375 17.590728759765625 C16.26038360595703 17.98939323425293 16.023969650268555 18.730714797973633 15.462911605834961 18.786720275878906 C15.00383186340332 18.83254623413086 14.484432220458984 18.269168853759766 14.484432220458984 17.80780792236328 C14.484432220458984 17.292667388916016 14.950318336486816 16.662769317626953 15.462911605834961 16.611600875854492 C15.975641250610352 16.5604190826416 16.26038360595703 17.264352798461914 16.65911865234375 17.590728759765625 L16.65911865234375 17.590728759765625"></path>
<path fill="none" stroke="black" stroke-width=".3" stroke-opacity="1.0"  filling="0" d="M7.1700239181518555 17.836318969726562 L7.1700239181518555 17.836318969726562 C6.77128791809082 18.235055923461914 6.534919738769531 18.97646141052246 5.97381591796875 19.032527923583984 C5.514739990234375 19.078399658203125 4.995336055755615 18.514976501464844 4.995336055755615 18.05361557006836 C4.995336055755615 17.53841781616211 5.4611711502075195 16.908414840698242 5.97381591796875 16.85719108581543 C6.486540794372559 16.805959701538086 6.77128791809082 17.50994300842285 7.1700239181518555 17.836318969726562 L7.1700239181518555 17.836318969726562"></path>
<path fill="none" stroke="black" stroke-width=".3" stroke-opacity="1.0"  filling="0" d="M4.994904518127441 19.22779083251953 L4.994904518127441 19.22779083251953 C4.823940753936768 19.61846351623535 4.783603668212891 20.098316192626953 4.482012748718262 20.39980697631836 C3.4641032218933105 21.417375564575195 1.2127492427825928 18.42162322998047 3.7053842544555664 18.172632217407227 C4.258033752441406 18.117427825927734 4.565064430236816 18.87607192993164 4.994904518127441 19.22779083251953 L4.994904518127441 19.22779083251953"></path>
<path fill="none" stroke="black" stroke-width=".3" stroke-opacity="1.0"  filling="0" d="M9.833736419677734 19.22779083251953 L9.833736419677734 19.22779083251953 C9.662763595581055 19.61846351623535 9.622435569763184 20.098339080810547 9.320816993713379 20.39980697631836 C8.30260181427002 21.417510986328125 6.052016258239746 18.42155647277832 8.543999671936035 18.172632217407227 C9.096704483032227 18.117422103881836 9.403823852539062 18.87607192993164 9.833736419677734 19.22779083251953 L9.833736419677734 19.22779083251953"></path>
<path fill="none" stroke="black" stroke-width=".3" stroke-opacity="1.0"  filling="0" d="M14.324377059936523 19.22779083251953 L14.324377059936523 19.22779083251953 C14.153412818908691 19.61846351623535 14.113075256347656 20.098316192626953 13.811484336853027 20.39980697631836 C12.793574333190918 21.417377471923828 10.542220115661621 18.421621322631836 13.034856796264648 18.172632217407227 C13.587506294250488 18.117427825927734 13.894536972045898 18.87607192993164 14.324377059936523 19.22779083251953 L14.324377059936523 19.22779083251953"></path>
<path fill="none" stroke="black" stroke-width=".3" stroke-opacity="1.0"  filling="0" d="M19.003366470336914 19.22779083251953 L19.003366470336914 19.22779083251953 C18.8324031829834 19.61846351623535 18.792064666748047 20.098316192626953 18.490474700927734 20.39980697631836 C17.472640991210938 21.41730308532715 15.220108032226562 18.42168617248535 17.713848114013672 18.172632217407227 C18.266498565673828 18.1174373626709 18.57352638244629 18.87607192993164 19.003366470336914 19.22779083251953 L19.003366470336914 19.22779083251953"></path>
<path fill="none" stroke="black" stroke-width=".3" stroke-opacity="1.0"  filling="0" d="M5.72260856628418 22.06451988220215 L5.7228240966796875 22.800216674804688 L1.9231681823730469 22.800216674804688 L1.9231681823730469 22.06451988220215 C2.951638698577881 20.347026824951172 4.694138050079346 20.347026824951172 5.72260856628418 22.06451988220215 L5.72260856628418 22.06451988220215"></path>
<path fill="none" stroke="black" stroke-width=".3" stroke-opacity="1.0"  filling="0" d="M10.561655044555664 22.06451988220215 L10.561655044555664 22.800216674804688 L6.761784553527832 22.800216674804688 L6.761784553527832 22.06451988220215 C7.79032564163208 20.34699058532715 9.533112525939941 20.346986770629883 10.561655044555664 22.06451988220215 L10.561655044555664 22.06451988220215"></path>
<path fill="none" stroke="black" stroke-width=".3" stroke-opacity="1.0"  filling="0" d="M15.052079200744629 22.06451988220215 L15.052079200744629 22.800216674804688 L11.252640724182129 22.800216674804688 L11.252640724182129 22.06451988220215 C12.281109809875488 20.34702491760254 14.023608207702637 20.347023010253906 15.052079200744629 22.06451988220215 L15.052079200744629 22.06451988220215"></path>
<path fill="none" stroke="black" stroke-width=".3" stroke-opacity="1.0"  filling="0" d="M19.73128890991211 22.06451988220215 L19.73128890991211 22.800216674804688 L15.93120002746582 22.800216674804688 L15.93120002746582 22.06451988220215 C16.95975685119629 20.346961975097656 18.70269203186035 20.346982955932617 19.73128890991211 22.06451988220215 L19.73128890991211 22.06451988220215"></path></svg>