<svg xmlns="http://www.w3.org/2000/svg" viewBox="0.0 0.0 24.0 24.0" height="200px" width="200px"><path fill="none" stroke="black" stroke-width=".3" stroke-opacity="1.0"  filling="0" d="M12.0 1.2000007629394531 L12.0 1.2000007629394531 C13.94151496887207 1.3740140199661255 15.760841369628906 1.8351149559020996 17.350820541381836 2.690793991088867 C18.9408016204834 3.546473264694214 20.301435470581055 4.7967305183410645 21.3255672454834 6.549056529998779 C22.35922622680664 8.3176851272583 22.80481719970703 10.217683792114258 22.763866424560547 12.07282829284668 C22.722915649414062 13.927971839904785 22.195425033569336 15.738262176513672 21.282922744750977 17.327472686767578 C20.370418548583984 18.916683197021484 19.072906494140625 20.284814834594727 17.49190902709961 21.255643844604492 C15.91091251373291 22.22647476196289 14.046433448791504 22.799999237060547 12.0 22.799999237060547 C9.953579902648926 22.799999237060547 8.089103698730469 22.226465225219727 6.5081071853637695 21.25562858581543 C4.92711067199707 20.284791946411133 3.6295931339263916 18.916650772094727 2.717090129852295 17.327434539794922 C1.8045871257781982 15.738218307495117 1.277098536491394 13.927927017211914 1.2361598014831543 12.07278823852539 C1.195221185684204 10.21764850616455 1.6408323049545288 8.317662239074707 2.6745285987854004 6.549056529998779 C3.698674201965332 4.796792030334473 5.059298992156982 3.5465383529663086 6.649258613586426 2.6908457279205322 C8.239218711853027 1.8351531028747559 10.058513641357422 1.3740215301513672 12.0 1.2000007629394531 L12.0 1.2000007629394531"></path>
<path fill="none" stroke="black" stroke-width=".3" stroke-opacity="1.0"  filling="0" d="M5.011752128601074 10.094231605529785 L12.0 10.094231605529785 L18.98824691772461 10.094231605529785 L18.98824691772461 13.906200408935547 L12.0 13.906200408935547 L5.011752128601074 13.906200408935547 L5.011752128601074 10.094231605529785"></path></svg>