<svg xmlns="http://www.w3.org/2000/svg" viewBox="0.0 0.0 24.0 24.0" height="200px" width="200px"><path fill="none" stroke="black" stroke-width=".3" stroke-opacity="1.0"  filling="0" d="M17.11585235595703 1.2000007629394531 L19.957763671875 3.4738330841064453 C20.147268295288086 3.75801682472229 20.54874610900879 3.985550880432129 20.526275634765625 4.3263840675354 C20.51143455505371 4.551501750946045 20.10003662109375 4.474416255950928 19.886917114257812 4.548432350158691 L18.252443313598633 4.042129039764404 L15.978827476501465 7.168404579162598 L13.705211639404297 10.294679641723633 C13.705211639404297 12.090713500976562 14.11890697479248 14.124000549316406 13.101492881774902 15.659041404724121 L14.842020034790039 22.799999237060547 L13.705211639404297 22.799999237060547 L12.569052696228027 19.389358520507812 L11.431812286376953 17.684040069580078 L11.431812286376953 22.799999237060547 L10.295003890991211 22.799999237060547 L10.295003890991211 17.11595916748047 C9.916068077087402 16.737022399902344 9.694091796875 15.979151725769043 9.158195495605469 15.979151725769043 C8.622248649597168 15.979151725769043 8.400179862976074 16.737022399902344 8.021172523498535 17.11595916748047 L8.021172523498535 22.799999237060547 L6.884364604949951 22.799999237060547 L6.884364604949951 19.389358520507812 L4.610532283782959 22.800216674804688 L3.473724365234375 22.800216674804688 C3.973065137863159 21.71083641052246 4.366183757781982 20.562768936157227 4.610532283782959 19.389575958251953 L4.610532283782959 18.252552032470703 C4.2356696128845215 17.114395141601562 3.8568179607391357 15.97754192352295 3.473724365234375 14.842127799987793 L3.473724365234375 13.705320358276367 C3.993074655532837 12.114904403686523 5.087787628173828 11.436651229858398 6.357939720153809 10.92669677734375 C7.628091812133789 10.416743278503418 9.07368278503418 10.075088500976562 10.294788360595703 9.157872200012207 C11.667865753173828 8.126504898071289 12.890728950500488 6.833231449127197 14.011524200439453 5.449702739715576 C15.132320404052734 4.066174507141113 16.151046752929688 2.592390298843384 17.11585235595703 1.2000007629394531 L17.11585235595703 1.2000007629394531"></path></svg>