<svg xmlns="http://www.w3.org/2000/svg" viewBox="0.0 0.0 24.0 24.0" height="200px" width="200px"><path fill="none" stroke="black" stroke-width=".3" stroke-opacity="1.0"  filling="0" d="M3.473616600036621 9.726168632507324 L3.473616600036621 9.726168632507324 C3.852552652359009 10.105104446411133 4.610424995422363 10.327079772949219 4.610424995422363 10.86297607421875 C4.610424995422363 11.398923873901367 4.00956392288208 12.0 3.473616600036621 12.0 C2.937669277191162 12.0 2.3368091583251953 11.39892292022705 2.3368091583251953 10.86297607421875 C2.3368091583251953 10.327079772949219 3.0946807861328125 10.105104446411133 3.473616600036621 9.726168632507324 L3.473616600036621 9.726168632507324"></path>
<path fill="none" stroke="black" stroke-width=".3" stroke-opacity="1.0"  filling="0" d="M11.715743064880371 18.821063995361328 L11.715743064880371 18.821063995361328 C10.7619047164917 18.195167541503906 9.942562103271484 17.37515640258789 9.157872200012207 16.547016143798828 L5.107872486114502 12.39074420928955 C4.563120365142822 12.639359474182129 4.072237491607666 13.12183952331543 3.473616600036621 13.136590957641602 C1.5884945392608643 13.183046340942383 1.0542643070220947 11.647470474243164 1.4015196561813354 10.338939666748047 C1.7487750053405762 9.03040885925293 2.977515697479248 7.948923587799072 4.618335723876953 8.903558731079102 C4.950843334197998 9.097012519836426 5.157813549041748 9.452108383178711 5.427552700042725 9.726383209228516 L9.566328048706055 9.726383209228516 L13.705103874206543 9.726383209228516 L13.705103874206543 7.452768325805664 L6.884256362915039 7.452768325805664 C6.5053205490112305 7.073760509490967 5.747448444366455 6.851691722869873 5.747448444366455 6.315744400024414 C5.747448444366455 5.779848098754883 6.5053205490112305 5.557872295379639 6.884256362915039 5.178936004638672 L14.27350902557373 5.178936004638672 L21.662761688232422 5.178936004638672 C22.04176902770996 5.557799816131592 22.799835205078125 5.779632091522217 22.79978370666504 6.31552791595459 C22.799732208251953 6.851576805114746 22.041624069213867 7.073544025421143 21.66254425048828 7.45255184173584 L14.841912269592285 7.45255184173584 L14.841912269592285 9.726168632507324 L18.252336502075195 9.726168632507324 C19.93450927734375 10.23083782196045 20.419950485229492 10.756958961486816 21.662761688232422 12.0 L21.662761688232422 12.0 C22.210844039916992 12.6463623046875 22.5877685546875 13.453381538391113 22.799999237060547 14.273831367492676 L22.799999237060547 17.684255599975586 C22.42091941833496 18.06319236755371 22.041841506958008 18.442127227783203 21.662761688232422 18.821063995361328 L16.689252853393555 18.821063995361328 L11.715743064880371 18.821063995361328"></path></svg>