<svg xmlns="http://www.w3.org/2000/svg" viewBox="0.0 0.0 24.0 24.0" height="200px" width="200px"><path fill="none" stroke="black" stroke-width=".3" stroke-opacity="1.0"  filling="0" d="M18.09552001953125 5.624112606048584 L19.973207473754883 10.128791809082031 L13.715472221374512 10.128791809082031 L7.457736492156982 10.128791809082031 L1.2000007629394531 10.128791809082031 L1.2028083801269531 4.557504653930664 L8.689692497253418 4.557504653930664 L16.176576614379883 4.557504653930664 C16.90268325805664 4.648736000061035 17.535375595092773 5.153163433074951 18.09552001953125 5.624112606048584 L18.09552001953125 5.624112606048584"></path>
<path fill="none" stroke="black" stroke-width=".3" stroke-opacity="1.0"  filling="0" d="M13.261871337890625 5.864736080169678 L16.430376052856445 5.86236047744751 C16.80794334411621 6.057552337646484 17.185510635375977 6.252744674682617 17.563077926635742 6.447936534881592 L18.754966735839844 9.313608169555664 L14.692440032958984 9.313608169555664 L13.261871337890625 5.864736080169678"></path>
<path fill="none" stroke="black" stroke-width=".3" stroke-opacity="1.0"  filling="0" d="M4.802664279937744 8.920920372009277 L4.802664279937744 8.920920372009277 C4.673352241516113 9.05174446105957 4.544040679931641 9.182568550109863 4.41472864151001 9.313392639160156 L2.6718244552612305 9.313392639160156 C2.5425844192504883 9.182568550109863 2.413344383239746 9.05174446105957 2.284104347229004 8.920920372009277 L2.284104347229004 6.253968715667725 C2.413344383239746 6.124224662780762 2.5425844192504883 5.994480133056641 2.6718244552612305 5.864736080169678 L4.41472864151001 5.864736080169678 C4.544040679931641 5.994480133056641 4.673352241516113 6.124224662780762 4.802664279937744 6.253968715667725 L4.802664279937744 8.920920372009277"></path>
<path fill="none" stroke="black" stroke-width=".3" stroke-opacity="1.0"  filling="0" d="M8.387184143066406 8.920920372009277 L8.387184143066406 8.920920372009277 C8.257007598876953 9.05174446105957 8.126832008361816 9.182568550109863 7.9966559410095215 9.313392639160156 L6.266712188720703 9.313392639160156 C6.137400150299072 9.182568550109863 6.008088111877441 9.05174446105957 5.8787760734558105 8.920920372009277 L5.8787760734558105 6.253968715667725 C6.008088111877441 6.124224662780762 6.137400150299072 5.994480133056641 6.266712188720703 5.864736080169678 L7.9966559410095215 5.864736080169678 C8.126832008361816 5.994480133056641 8.257007598876953 6.124224662780762 8.387184143066406 6.253968715667725 L8.387184143066406 8.920920372009277"></path>
<path fill="none" stroke="black" stroke-width=".3" stroke-opacity="1.0"  filling="0" d="M11.984663963317871 8.920920372009277 L11.984663963317871 8.920920372009277 C11.856143951416016 9.05174446105957 11.727624893188477 9.182568550109863 11.599104881286621 9.313392639160156 L9.855768203735352 9.313392639160156 C9.72652816772461 9.182568550109863 9.597288131713867 9.05174446105957 9.468048095703125 8.920920372009277 L9.468048095703125 6.253968715667725 C9.597288131713867 6.124224662780762 9.72652816772461 5.994480133056641 9.855768203735352 5.864736080169678 L11.599104881286621 5.864736080169678 C11.727624893188477 5.994480133056641 11.856143951416016 6.124224662780762 11.984663963317871 6.253968715667725 L11.984663963317871 8.920920372009277"></path>
<path fill="none" stroke="black" stroke-width=".3" stroke-opacity="1.0"  filling="0" d="M1.2103681564331055 10.905311584472656 L8.406911849975586 10.905311584472656 L15.603455543518066 10.905311584472656 L22.799999237060547 10.905311584472656 L22.345104217529297 11.68723201751709 C21.097915649414062 13.269882202148438 20.005233764648438 14.326810836791992 18.28192710876465 15.381479263305664 L18.266376495361328 15.389472007751465 C16.87029457092285 15.723701477050781 15.900130271911621 15.010175704956055 14.519207954406738 15.010175704956055 C13.609916687011719 15.010175704956055 12.764787673950195 15.598344802856445 11.855496406555176 15.598344802856445 C11.797179222106934 15.598344802856445 9.219807624816895 15.010175704956055 9.191784858703613 15.010175704956055 C8.283266067504883 15.010175704956055 7.438966751098633 15.598344802856445 6.530447959899902 15.598344802856445 C6.4872517585754395 15.598344802856445 3.885192394256592 15.010175704956055 3.86673641204834 15.010175704956055 C2.957374334335327 15.010175704956055 2.091463088989258 15.405387878417969 1.2028083801269531 15.598344802856445 L1.2103681564331055 10.905311584472656"></path>
<path fill="none" stroke="black" stroke-width=".3" stroke-opacity="1.0"  filling="0" d="M22.50494384765625 19.44465446472168 L22.50494384765625 19.44465446472168 C21.61750030517578 19.24909019470215 20.752344131469727 18.853464126586914 19.843608856201172 18.853464126586914 C18.934099197387695 18.853464126586914 18.089405059814453 19.44465446472168 17.179895401000977 19.44465446472168 C17.09552764892578 19.44465446472168 14.579407691955566 18.853464126586914 14.51877498626709 18.853464126586914 C14.504705429077148 18.853464126586914 11.900675773620605 19.44465446472168 11.855063438415527 19.44465446472168 C10.94555377960205 19.44465446472168 10.100861549377441 18.853464126586914 9.191351890563965 18.853464126586914 C9.096961975097656 18.853464126586914 6.649466037750244 19.44465446472168 6.5300164222717285 19.44465446472168 C5.62050724029541 19.44465446472168 4.775814056396484 18.853464126586914 3.866304397583008 18.853464126586914 C2.9567248821258545 18.853464126586914 2.0907254219055176 19.249277114868164 1.2023773193359375 19.44465446472168 L1.2023773193359375 17.457454681396484 C2.090756416320801 17.26236343383789 2.956756114959717 16.866695404052734 3.866304397583008 16.866695404052734 C4.775782585144043 16.866695404052734 5.620538234710693 17.457454681396484 6.5300164222717285 17.457454681396484 C7.438721179962158 17.457454681396484 8.282647132873535 16.866695404052734 9.191351890563965 16.866695404052734 C9.569287300109863 16.866695404052734 11.459461212158203 17.457454681396484 11.855063438415527 17.457454681396484 C12.764541625976562 17.457454681396484 13.609296798706055 16.866695404052734 14.51877498626709 16.866695404052734 C15.427410125732422 16.866695404052734 16.27126121520996 17.457454681396484 17.179895401000977 17.457454681396484 C17.278701782226562 17.457454681396484 19.769441604614258 16.866695404052734 19.843608856201172 16.866695404052734 C20.7523136138916 16.866695404052734 21.617469787597656 17.262176513671875 22.50494384765625 17.457454681396484 L22.50494384765625 19.44465446472168"></path></svg>