<svg xmlns="http://www.w3.org/2000/svg" viewBox="0.0 0.0 24.0 24.0" height="200px" width="200px"><path fill="none" stroke="black" stroke-width=".3" stroke-opacity="1.0"  filling="0" d="M21.355823516845703 12.462672233581543 L17.347293853759766 12.462888717651367 C17.227703094482422 13.092240333557129 17.108112335205078 13.72159194946289 16.988521575927734 14.350943565368652 L19.00271987915039 14.350943565368652 L19.00271987915039 15.066766738891602 L16.645729064941406 15.066766738891602 C16.4968318939209 15.285862922668457 16.347936630249023 15.504960060119629 16.199039459228516 15.724056243896484 L19.00704002380371 18.38603973388672 L18.51456069946289 18.906166076660156 L15.713254928588867 16.25044822692871 C15.565727233886719 16.375295639038086 15.418198585510254 16.500144958496094 15.270670890808105 16.62499237060547 L15.270670890808105 19.18307876586914 L14.555063247680664 19.18307876586914 L14.555063247680664 17.085718154907227 C13.884815216064453 17.354488372802734 13.181710243225098 17.550968170166016 12.470232009887695 17.674535751342773 L12.470232009887695 21.41997528076172 L11.75440788269043 21.41997528076172 L11.75440788269043 17.674102783203125 C11.196479797363281 17.543567657470703 10.638551712036133 17.41303062438965 10.080623626708984 17.282495498657227 L10.080623626708984 19.182863235473633 L9.364799499511719 19.182863235473633 L9.364799499511719 16.906658172607422 C9.164711952209473 16.76445770263672 8.96462345123291 16.622257232666016 8.764535903930664 16.480056762695312 L5.768184661865234 19.437095642089844 L5.265336036682129 18.92841339111328 L8.249808311462402 15.98217487335205 C8.026032447814941 15.676895141601562 7.802256107330322 15.371615409851074 7.578480243682861 15.066335678100586 L5.221704483032227 15.066335678100586 L5.221704483032227 14.35051155090332 L7.235904216766357 14.35051155090332 C7.116456031799316 13.721159934997559 6.997008323669434 13.09180736541748 6.877560138702393 12.462455749511719 L2.1162729263305664 12.462455749511719 L2.1162729263305664 11.746416091918945 L6.93112850189209 11.746416091918945 C7.108824253082275 11.182656288146973 7.286520481109619 10.618895530700684 7.464216232299805 10.055135726928711 L4.9800004959106445 10.055135726928711 L4.9800004959106445 9.339312553405762 L7.914144039154053 9.339312553405762 C7.986576080322266 9.246935844421387 8.05900764465332 9.154560089111328 8.131440162658691 9.062183380126953 L4.733544826507568 5.840760231018066 L5.226456165313721 5.321496486663818 L8.63428783416748 8.55199146270752 C8.877791404724121 8.370408058166504 9.121295928955078 8.188823699951172 9.364799499511719 8.007240295410156 L9.364799499511719 5.580912113189697 L10.080623626708984 5.580912113189697 L10.080623626708984 7.631400108337402 C10.638551712036133 7.501008033752441 11.196479797363281 7.370616436004639 11.75440788269043 7.240224361419678 L11.75440788269043 2.807040214538574 L12.470232009887695 2.807040214538574 L12.470232009887695 7.240440368652344 C13.181729316711426 7.363666534423828 13.884869575500488 7.560024261474609 14.555063247680664 7.828824043273926 L14.555063247680664 5.5811285972595215 L15.270670890808105 5.5811285972595215 L15.270670890808105 8.289336204528809 C15.40963077545166 8.4065523147583 15.548590660095215 8.523768424987793 15.68755054473877 8.640984535217285 L19.0461368560791 5.3262481689453125 L19.5492000579834 5.835792541503906 L16.17830467224121 9.16262435913086 C16.222368240356445 9.22159194946289 16.26643180847168 9.280559539794922 16.310495376586914 9.339527130126953 L18.760801315307617 9.339527130126953 L18.760801315307617 10.055352210998535 L16.759990692138672 10.055352210998535 C16.937759399414062 10.619112014770508 17.11552619934082 11.18287181854248 17.29329490661621 11.746631622314453 L21.355823516845703 11.746631622314453 L21.355823516845703 12.462672233581543"></path></svg>