<svg xmlns="http://www.w3.org/2000/svg" viewBox="0.0 0.0 24.0 24.0" height="200px" width="200px"><path fill="none" stroke="black" stroke-width=".3" stroke-opacity="1.0"  filling="0" d="M20.00798225402832 7.4281439781188965 L20.00798225402832 7.4281439781188965 C20.590444564819336 7.693662166595459 21.313617706298828 7.7614288330078125 21.755369186401367 8.224698066711426 C23.694538116455078 10.258326530456543 21.751197814941406 12.095114707946777 19.893287658691406 12.6048002243042 L14.806991577148438 12.60487174987793 L9.720696449279785 12.604944229125977 L4.634400844573975 12.605015754699707 C3.3375415802001953 12.254219055175781 2.692643165588379 12.359198570251465 1.9507046937942505 11.065688133239746 C0.7897136211395264 9.041592597961426 2.2810323238372803 6.270197868347168 4.702872276306152 6.3924241065979 L4.634400844573975 6.388968467712402 C4.657224655151367 6.109968662261963 4.68004846572876 5.830968379974365 4.702872276306152 5.551968574523926 L4.703952312469482 5.546567916870117 C5.226742744445801 4.069943428039551 5.198577404022217 3.5291495323181152 6.439836025238037 2.4675965309143066 C7.962246894836426 1.1655961275100708 9.610430717468262 0.9571261405944824 11.081904411315918 1.4530487060546875 C12.55337905883789 1.9489712715148926 13.848142623901367 3.1492865085601807 14.663712501525879 4.664856433868408 L14.663712501525879 4.664856433868408 C17.207820892333984 4.209863662719727 18.530517578125 4.90156364440918 19.88831901550293 7.060296535491943 L19.893287658691406 7.074552536010742 C19.9315185546875 7.192416191101074 19.969751358032227 7.3102803230285645 20.00798225402832 7.4281439781188965 L20.00798225402832 7.4281439781188965"></path>
<path fill="none" stroke="black" stroke-width=".3" stroke-opacity="1.0"  filling="0" d="M3.9088563919067383 15.393360137939453 L4.395503997802734 15.121199607849121 L4.552104949951172 15.393360137939453 L4.081656455993652 15.64867115020752 L3.9088563919067383 15.393360137939453"></path>
<path fill="none" stroke="black" stroke-width=".3" stroke-opacity="1.0"  filling="0" d="M11.755271911621094 15.393360137939453 L12.241703033447266 15.121199607849121 L12.398303985595703 15.393360137939453 L11.927855491638184 15.64867115020752 L11.755271911621094 15.393360137939453"></path>
<path fill="none" stroke="black" stroke-width=".3" stroke-opacity="1.0"  filling="0" d="M19.456317901611328 15.393360137939453 L19.942750930786133 15.121199607849121 L20.099349975585938 15.393360137939453 L19.628902435302734 15.64867115020752 L19.456317901611328 15.393360137939453"></path>
<path fill="none" stroke="black" stroke-width=".3" stroke-opacity="1.0"  filling="0" d="M4.041264533996582 17.446224212646484 L4.041264533996582 16.86907196044922 L3.5544004440307617 16.95655059814453 L4.032839298248291 16.10184097290039 L3.6859445571899414 16.324752807617188 L3.6859445571899414 15.922992706298828 L3.354384422302246 16.114151000976562 L3.1727285385131836 16.771438598632812 L3.0195846557617188 16.30487823486328 L2.301168441772461 16.498199462890625 L2.8295040130615234 15.979151725769043 L2.4990243911743164 15.60201644897461 L3.48960018157959 15.588407516479492 L3.1440000534057617 14.996783256530762 L2.492544174194336 15.187078475952148 L2.8130884170532227 14.796551704406738 L2.301168441772461 14.288519859313965 L3.002305030822754 14.47838306427002 L3.1543684005737305 14.004262924194336 L3.678384780883789 14.861135482788086 L3.677088737487793 14.468664169311523 L4.032624244689941 14.659823417663574 L4.032624244689941 14.280527114868164 L3.5544004440307617 13.806407928466797 L4.041264533996582 13.892807960510254 L4.225728511810303 13.19555950164795 L4.411704063415527 13.892807960510254 L4.913904190063477 13.81893539428711 L4.41926383972168 14.280743598937988 L4.41926383972168 14.660039901733398 L4.75752067565918 14.453760147094727 L4.75752067565918 14.866535186767578 L5.106143951416016 14.676671028137207 L5.2739763259887695 14.004047393798828 L5.450448513031006 14.462400436401367 L6.150936126708984 14.292623519897461 L5.643983840942383 14.79568862915039 L5.9610724449157715 15.178657531738281 L5.3098320960998535 14.982095718383789 L4.9633684158325195 15.591431617736816 L5.953080177307129 15.611519813537598 L5.647656440734863 15.979368209838867 L6.133872032165527 16.49496078491211 L5.450448513031006 16.317190170288086 L5.278728008270264 16.772735595703125 L4.757304668426514 15.929256439208984 L4.418832302093506 16.481782913208008 L4.89727258682251 16.968000411987305 L4.4114885330200195 16.86907196044922 L4.4114885330200195 17.446224212646484 L4.041264533996582 17.446224212646484"></path>
<path fill="none" stroke="black" stroke-width=".3" stroke-opacity="1.0"  filling="0" d="M11.887680053710938 17.446224212646484 L11.887680053710938 16.86907196044922 L11.400815963745117 16.95655059814453 L11.879257202148438 16.10184097290039 L11.532143592834473 16.324752807617188 L11.532143592834473 15.922992706298828 L11.200584411621094 16.114151000976562 L11.019144058227539 16.771438598632812 L10.865784645080566 16.30487823486328 L10.147583961486816 16.498199462890625 L10.675704002380371 15.979151725769043 L10.345439910888672 15.60201644897461 L11.335800170898438 15.588407516479492 L10.99020004272461 14.99656867980957 L10.33852767944336 15.18686294555664 L10.659071922302246 14.796335220336914 L10.147368431091309 14.288304328918457 L10.848504066467285 14.478168487548828 L11.000568389892578 14.004047393798828 L11.52458381652832 14.860919952392578 L11.523287773132324 14.468448638916016 L11.878824234008789 14.659607887268066 L11.878824234008789 14.280311584472656 L11.400382995605469 13.806191444396973 L11.887248992919922 13.892592430114746 L12.071712493896484 13.195343971252441 L12.257904052734375 13.892592430114746 L12.760104179382324 13.818719863891602 L12.265247344970703 14.280527114868164 L12.265247344970703 14.659823417663574 L12.603719711303711 14.453543663024902 L12.603719711303711 14.86631965637207 L12.952343940734863 14.6764554977417 L13.120176315307617 14.00383186340332 L13.296648025512695 14.462183952331543 L13.998000144958496 14.292407035827637 L13.491047859191895 14.795472145080566 L13.808135986328125 15.178439140319824 L13.1566801071167 14.981880187988281 L12.810431480407715 15.591216087341309 L13.80014419555664 15.611303329467773 L13.494718551635742 15.979151725769043 L13.980936050415039 16.49474334716797 L13.29751205444336 16.31697654724121 L13.125792503356934 16.772518157958984 L12.604151725769043 15.929040908813477 L12.265680313110352 16.481351852416992 L12.744120597839355 16.968000411987305 L12.258336067199707 16.86907196044922 L12.258336067199707 17.446224212646484 L11.887680053710938 17.446224212646484"></path>
<path fill="none" stroke="black" stroke-width=".3" stroke-opacity="1.0"  filling="0" d="M19.588729858398438 17.446224212646484 L19.588729858398438 16.86907196044922 L19.101863861083984 16.95655059814453 L19.580305099487305 16.10184097290039 L19.233192443847656 16.324752807617188 L19.233192443847656 15.922992706298828 L18.90163230895996 16.114151000976562 L18.720191955566406 16.771438598632812 L18.567047119140625 16.30487823486328 L17.8486328125 16.498199462890625 L18.376752853393555 15.979151725769043 L18.046485900878906 15.60201644897461 L19.036848068237305 15.588407516479492 L18.691246032714844 14.99656867980957 L18.039575576782227 15.18686294555664 L18.360118865966797 14.796335220336914 L17.84841537475586 14.288304328918457 L18.549551010131836 14.478168487548828 L18.701614379882812 14.004047393798828 L19.225631713867188 14.860919952392578 L19.224334716796875 14.468448638916016 L19.579872131347656 14.659607887268066 L19.579872131347656 14.280311584472656 L19.10143280029297 13.806191444396973 L19.588294982910156 13.892592430114746 L19.77276039123535 13.195343971252441 L19.958951950073242 13.892592430114746 L20.461151123046875 13.818719863891602 L19.966297149658203 14.280527114868164 L19.966297149658203 14.659823417663574 L20.304767608642578 14.453543663024902 L20.304767608642578 14.86631965637207 L20.653392791748047 14.6764554977417 L20.821224212646484 14.00383186340332 L20.997695922851562 14.462183952331543 L21.698184967041016 14.292407035827637 L21.191232681274414 14.795472145080566 L21.508319854736328 15.178439140319824 L20.856863021850586 14.981880187988281 L20.510616302490234 15.591216087341309 L21.500328063964844 15.611303329467773 L21.194904327392578 15.979151725769043 L21.681119918823242 16.49474334716797 L20.997695922851562 16.31697654724121 L20.825977325439453 16.772518157958984 L20.304336547851562 15.929040908813477 L19.966079711914062 16.481569290161133 L20.444520950317383 16.968000411987305 L19.958736419677734 16.86907196044922 L19.958736419677734 17.446224212646484 L19.588729858398438 17.446224212646484"></path>
<path fill="none" stroke="black" stroke-width=".3" stroke-opacity="1.0"  filling="0" d="M7.75927209854126 20.361358642578125 L8.245920181274414 20.08919906616211 L8.402520179748535 20.361358642578125 L7.932072162628174 20.61667251586914 L7.75927209854126 20.361358642578125"></path>
<path fill="none" stroke="black" stroke-width=".3" stroke-opacity="1.0"  filling="0" d="M15.60568904876709 20.361358642578125 L16.092119216918945 20.08919906616211 L16.24871826171875 20.361358642578125 L15.778270721435547 20.61667251586914 L15.60568904876709 20.361358642578125"></path>
<path fill="none" stroke="black" stroke-width=".3" stroke-opacity="1.0"  filling="0" d="M7.8916802406311035 22.414222717285156 L7.8916802406311035 21.837072372436523 L7.404816150665283 21.924551010131836 L7.883255958557129 21.069839477539062 L7.536360263824463 21.29275131225586 L7.536360263824463 20.8909912109375 L7.204800128936768 21.082149505615234 L7.023144245147705 21.739437103271484 L6.87000036239624 21.27288055419922 L6.151584148406982 21.466197967529297 L6.679920673370361 20.94715118408203 L6.349440097808838 20.57001495361328 L7.3400163650512695 20.556406021118164 L6.994200229644775 19.964567184448242 L6.34274435043335 20.154861450195312 L6.663288116455078 19.76433563232422 L6.151368141174316 19.256305694580078 L6.852504730224609 19.4461669921875 L7.004568099975586 18.972047805786133 L7.5285844802856445 19.82891845703125 L7.527288436889648 19.436447143554688 L7.882823944091797 19.627609252929688 L7.882823944091797 19.24831199645996 L7.404384136199951 18.774192810058594 L7.8912482261657715 18.860591888427734 L8.075712203979492 18.16334342956543 L8.261688232421875 18.860591888427734 L8.76388931274414 18.786720275878906 L8.269248008728027 19.24852752685547 L8.269248008728027 19.627824783325195 L8.607503890991211 19.42154312133789 L8.607503890991211 19.834320068359375 L8.956128120422363 19.644454956054688 L9.123960494995117 18.971830368041992 L9.300432205200195 19.43018341064453 L10.001999855041504 19.260406494140625 L9.495048522949219 19.763471603393555 L9.812135696411133 20.146438598632812 L9.160896301269531 19.949878692626953 L8.814432144165039 20.559215545654297 L9.804143905639648 20.579303741455078 L9.498719215393066 20.94715118408203 L9.984936714172363 21.462743759155273 L9.301512718200684 21.284975051879883 L9.129793167114258 21.740520477294922 L8.608367919921875 20.89704132080078 L8.26968002319336 21.449352264404297 L8.748119354248047 21.93600082397461 L8.262335777282715 21.837072372436523 L8.262335777282715 22.414222717285156 L7.8916802406311035 22.414222717285156"></path>
<path fill="none" stroke="black" stroke-width=".3" stroke-opacity="1.0"  filling="0" d="M15.738310813903809 22.414222717285156 L15.738310813903809 21.837072372436523 L15.251448631286621 21.924551010131836 L15.729887008666992 21.069839477539062 L15.382776260375977 21.29275131225586 L15.382776260375977 20.8909912109375 L15.051216125488281 21.082149505615234 L14.869775772094727 21.739437103271484 L14.716631889343262 21.27288055419922 L13.998215675354004 21.466197967529297 L14.526334762573242 20.94715118408203 L14.19607162475586 20.57001495361328 L15.186431884765625 20.556406021118164 L14.840831756591797 19.964567184448242 L14.189159393310547 20.154861450195312 L14.509703636169434 19.76433563232422 L13.998000144958496 19.256521224975586 L14.699135780334473 19.44638442993164 L14.851200103759766 18.97226333618164 L15.375216484069824 19.82913589477539 L15.373920440673828 19.436664581298828 L15.729456901550293 19.627824783325195 L15.729456901550293 19.24852752685547 L15.251016616821289 18.77440643310547 L15.737879753112793 18.860807418823242 L15.922342300415039 18.163558959960938 L16.108535766601562 18.860807418823242 L16.610734939575195 18.78693389892578 L16.11587905883789 19.248743057250977 L16.11587905883789 19.628040313720703 L16.4543514251709 19.4217586517334 L16.4543514251709 19.834535598754883 L16.802974700927734 19.644672393798828 L16.970808029174805 18.972047805786133 L17.147279739379883 19.430400848388672 L17.847768783569336 19.260623931884766 L17.3408145904541 19.763687133789062 L17.65790367126465 20.146656036376953 L17.00644874572754 19.95009422302246 L16.660200119018555 20.559431076049805 L17.649911880493164 20.579517364501953 L17.344486236572266 20.94736671447754 L17.830705642700195 21.46295928955078 L17.147279739379883 21.28519058227539 L16.97555923461914 21.74073600769043 L16.453920364379883 20.89725685119629 L16.115663528442383 21.449783325195312 L16.59410285949707 21.93600082397461 L16.108320236206055 21.837072372436523 L16.108320236206055 22.414222717285156 L15.738310813903809 22.414222717285156"></path></svg>