<svg xmlns="http://www.w3.org/2000/svg" viewBox="0.0 0.0 24.0 24.0" height="200px" width="200px"><path fill="none" stroke="black" stroke-width=".3" stroke-opacity="1.0"  filling="0" d="M1.203023910522461 12.18273639678955 L1.203023910522461 12.18273639678955 C1.5491807460784912 12.176796913146973 1.8960977792739868 12.144007682800293 2.236800193786621 12.082511901855469 L2.236800193786621 12.082511901855469 C0.984264612197876 11.309226036071777 1.5228300094604492 11.017263412475586 3.10581636428833 10.472944259643555 C4.585355281829834 9.96419620513916 6.190743446350098 9.704710006713867 7.747041702270508 9.596811294555664 C8.123970985412598 9.5706787109375 9.945524215698242 9.668533325195312 10.463592529296875 9.285096168518066 C10.987926483154297 8.897021293640137 11.248263359069824 8.224225044250488 11.758511543273926 7.817808628082275 C12.412915229797363 7.296571254730225 14.046313285827637 9.298210144042969 13.994760513305664 9.613632202148438 C13.937694549560547 9.962786674499512 13.301255226135254 9.754032135009766 12.954503059387207 9.82423210144043 L12.954503059387207 9.82423210144043 C14.170755386352539 9.968767166137695 17.24959373474121 9.686921119689941 17.891399383544922 10.56381607055664 L17.891399383544922 10.56381607055664 C19.629287719726562 10.322033882141113 20.235830307006836 9.825295448303223 21.856727600097656 9.255936622619629 C22.078458786010742 9.178050994873047 22.357736587524414 9.13474178314209 22.561752319335938 9.251399993896484 C23.232769012451172 9.635093688964844 22.41147232055664 11.087143898010254 22.381824493408203 11.583120346069336 C22.373626708984375 11.720251083374023 23.1286563873291 13.792963027954102 22.575143814086914 13.760615348815918 C20.58628273010254 13.64438533782959 19.12520408630371 12.508182525634766 17.079240798950195 12.595727920532227 L17.079240798950195 12.595727920532227 C18.261816024780273 12.674456596374512 17.801931381225586 12.973113059997559 17.592023849487305 13.874879837036133 L17.592023849487305 13.874879837036133 C17.57647132873535 14.136167526245117 17.773012161254883 14.529553413391113 17.545366287231445 14.658743858337402 C16.540613174438477 15.228946685791016 15.65134048461914 13.5209321975708 15.246694564819336 13.248695373535156 C14.346551895141602 12.643098831176758 13.079297065734863 13.353886604309082 11.996975898742676 13.42862319946289 L11.996975898742676 13.42862319946289 C12.116524696350098 13.475625038146973 14.028940200805664 14.722241401672363 12.763128280639648 14.874311447143555 C12.069585800170898 14.95763111114502 11.79292106628418 13.842954635620117 11.19064712524414 13.489104270935059 C10.45236587524414 13.055346488952637 9.484710693359375 13.667746543884277 8.628456115722656 13.673567771911621 C7.611317157745361 13.680482864379883 6.185410499572754 13.640689849853516 4.798562526702881 13.432710647583008 C3.411714792251587 13.2247314453125 2.0639262199401855 12.848566055297852 1.203023910522461 12.18273639678955 L1.203023910522461 12.18273639678955"></path></svg>