<svg xmlns="http://www.w3.org/2000/svg" viewBox="0.0 0.0 24.0 24.0" height="200px" width="200px"><path fill="none" stroke="black" stroke-width=".3" stroke-opacity="1.0"  filling="0" d="M21.414142608642578 3.3109683990478516 L21.41392707824707 7.695120334625244 L17.12319564819336 7.695120334625244 L12.832464218139648 7.695120334625244 C14.351551055908203 7.986742973327637 15.717206954956055 8.599723815917969 17.08614158630371 9.1832275390625 C18.455076217651367 9.766732215881348 19.82729148864746 10.320760726928711 21.3594970703125 10.49448013305664 L21.3594970703125 12.870479583740234 C19.670066833496094 12.677391052246094 18.18609619140625 12.08331298828125 16.709007263183594 11.479036331176758 C15.231917381286621 10.874759674072266 13.761707305908203 10.260285377502441 12.09979248046875 10.026407241821289 L12.09979248046875 10.026407241821289 C12.09979248046875 10.451783180236816 12.09979248046875 10.87716007232666 12.09979248046875 11.302536010742188 L12.09979248046875 11.302536010742188 C13.719002723693848 11.462931632995605 15.229360580444336 11.918746948242188 16.737201690673828 12.36742877960205 C18.245040893554688 12.81611156463623 19.750362396240234 13.257661819458008 21.3594970703125 13.389527320861816 L21.3594970703125 15.765527725219727 C19.734651565551758 15.631409645080566 18.226099014282227 15.191423416137695 16.720571517944336 14.744085311889648 C15.215044021606445 14.296747207641602 13.712541580200195 13.842058181762695 12.09979248046875 13.678535461425781 L12.09979248046875 13.678535461425781 C12.09979248046875 14.012831687927246 12.09979248046875 14.347127914428711 12.09979248046875 14.681424140930176 L12.09979248046875 14.681424140930176 C13.670415878295898 14.772199630737305 15.201138496398926 15.040782928466797 16.731306076049805 15.305848121643066 C18.261474609375 15.570913314819336 19.791088104248047 15.8324613571167 21.3594970703125 15.909167289733887 L21.3594970703125 18.285167694091797 C19.787750244140625 18.20809555053711 18.257347106933594 17.94713020324707 16.72762107849121 17.68244743347168 C15.197895050048828 17.41776466369629 13.668842315673828 17.149364471435547 12.09979248046875 17.057424545288086 L12.09979248046875 17.057424545288086 C12.09979248046875 17.48308753967285 12.09979248046875 17.90875244140625 12.09979248046875 18.334415435791016 L16.736555099487305 18.334415435791016 L21.37331771850586 18.334415435791016 L21.37331771850586 22.7189998626709 L15.120766639709473 22.7189998626709 L8.868216514587402 22.7189998626709 L2.6156654357910156 22.7189998626709 L2.6156654357910156 18.334848403930664 L7.141620635986328 18.334848403930664 L11.66757583618164 18.334848403930664 L11.66757583618164 17.056127548217773 C10.127591133117676 17.135997772216797 8.632023811340332 17.402734756469727 7.1370720863342285 17.66979217529297 C5.642120361328125 17.93684959411621 4.147785186767578 18.204227447509766 2.610264778137207 18.285383224487305 L2.610264778137207 15.909383773803711 C4.144196033477783 15.791007995605469 5.637072563171387 15.523859977722168 7.132218360900879 15.266197204589844 C8.627365112304688 15.008533477783203 10.124780654907227 14.760353088378906 11.667792320251465 14.679912567138672 L11.667792320251465 13.675512313842773 C10.076282501220703 13.814088821411133 8.606924057006836 14.266151428222656 7.137958526611328 14.718817710876465 C5.66899299621582 15.171483993530273 4.2004194259643555 15.624753952026367 2.610480308532715 15.765742301940918 L2.610480308532715 13.38974380493164 C4.185555934906006 13.17997932434082 5.647467613220215 12.727914810180664 7.116818428039551 12.293045043945312 C8.586169242858887 11.858175277709961 10.062959671020508 11.440500259399414 11.667792320251465 11.299511909484863 L11.667792320251465 10.02230453491211 C10.01938247680664 10.220589637756348 8.581416130065918 10.831476211547852 7.142371654510498 11.443397521972656 C5.703327178955078 12.055318832397461 4.263204574584961 12.66827392578125 2.610480308532715 12.870696067810059 L2.610480308532715 10.494695663452148 C4.05786657333374 10.232549667358398 5.352858543395996 9.675090789794922 6.650549411773682 9.111977577209473 C7.948239803314209 8.54886531829834 9.248628616333008 7.980098724365234 10.706808090209961 7.69533634185791 L6.6542158126831055 7.69533634185791 L2.60162353515625 7.69533634185791 L2.60162353515625 3.311184883117676 L7.134707927703857 3.311184883117676 L11.667792320251465 3.311184883117676 L11.548344612121582 1.2812166213989258 L12.22917652130127 1.2812166213989258 L12.09979248046875 3.3109683990478516 L16.756967544555664 3.3109683990478516 L21.414142608642578 3.3109683990478516"></path>
<path fill="none" stroke="black" stroke-width=".3" stroke-opacity="1.0"  filling="0" d="M8.098176956176758 5.3089704513549805 L8.098176956176758 5.3089704513549805 C8.54745864868164 4.220603942871094 8.54748249053955 6.397329807281494 8.098176956176758 5.308971405029297 L8.098176956176758 5.308971405029297"></path>
<path fill="none" stroke="black" stroke-width=".3" stroke-opacity="1.0"  filling="0" d="M19.902143478393555 6.183335781097412 L19.66584014892578 6.183335781097412 C19.656394958496094 6.181362628936768 19.646339416503906 6.181362628936768 19.63689422607422 6.183335781097412 L16.54960823059082 6.183335781097412 C16.87874984741211 5.637742042541504 15.983144760131836 5.637845993041992 16.312223434448242 6.183335781097412 L11.54769515991211 6.183335781097412 C11.609430313110352 5.916496276855469 10.99552059173584 5.7861504554748535 11.056511878967285 6.183335781097412 L6.358944416046143 6.183335781097412 C6.441525459289551 5.771566867828369 5.814995765686035 5.772933483123779 5.898432731628418 6.183335781097412 L4.363320350646973 6.183335781097412 C4.353729248046875 6.181361675262451 4.34353494644165 6.181361198425293 4.333943843841553 6.183335781097412 L4.113624095916748 6.183335781097412 L4.113624095916748 4.823184967041016 L4.815623760223389 4.823184967041016 C4.938155174255371 4.919192314147949 5.1600847244262695 4.919192314147949 5.282616138458252 4.823184967041016 L10.917407989501953 4.823184967041016 C10.845497131347656 5.182758808135986 11.470895767211914 5.183321952819824 11.398872375488281 4.823184967041016 L13.283256530761719 4.823184967041016 C13.111166000366211 5.2990827560424805 13.842938423156738 5.2993268966674805 13.670760154724121 4.823184967041016 L17.561782836914062 4.823184967041016 C17.684358596801758 4.919137001037598 17.906288146972656 4.919247627258301 18.028776168823242 4.823184967041016 L19.149600982666016 4.823184967041016 C18.908885955810547 5.33864688873291 19.7115535736084 5.3391265869140625 19.471221923828125 4.823184967041016 L19.902359008789062 4.823184967041016 L19.902143478393555 6.183335781097412"></path>
<path fill="none" stroke="black" stroke-width=".3" stroke-opacity="1.0"  filling="0" d="M4.897921085357666 20.155946731567383 L4.897921085357666 20.155946731567383 C5.347204685211182 19.067577362060547 5.347225666046143 21.244306564331055 4.897921085357666 20.155948638916016 L4.897921085357666 20.155948638916016"></path>
<path fill="none" stroke="black" stroke-width=".3" stroke-opacity="1.0"  filling="0" d="M13.117152214050293 20.307361602783203 L13.117152214050293 20.307361602783203 C13.566433906555176 19.218996047973633 13.566458702087402 21.39571762084961 13.117152214050293 20.307363510131836 L13.117152214050293 20.307363510131836"></path>
<path fill="none" stroke="black" stroke-width=".3" stroke-opacity="1.0"  filling="0" d="M11.582903861999512 20.553815841674805 L11.582903861999512 20.553815841674805 C12.032186508178711 19.465450286865234 12.032210350036621 21.642173767089844 11.582903861999512 20.553817749023438 L11.582903861999512 20.553817749023438"></path>
<path fill="none" stroke="black" stroke-width=".3" stroke-opacity="1.0"  filling="0" d="M7.568328857421875 20.648208618164062 L7.568328857421875 20.648208618164062 C8.017921447753906 19.561002731323242 8.017922401428223 21.735416412353516 7.568328857421875 20.648208618164062 L7.568328857421875 20.648208618164062"></path>
<path fill="none" stroke="black" stroke-width=".3" stroke-opacity="1.0"  filling="0" d="M15.655152320861816 20.772624969482422 L15.655152320861816 20.772624969482422 C16.17660140991211 19.869449615478516 16.17660140991211 21.675800323486328 15.655152320861816 20.772624969482422 L15.655152320861816 20.772624969482422"></path>
<path fill="none" stroke="black" stroke-width=".3" stroke-opacity="1.0"  filling="0" d="M17.92768669128418 20.913671493530273 L17.92768669128418 20.913671493530273 C18.449138641357422 20.0105037689209 18.449138641357422 21.81683921813965 17.92768669128418 20.913671493530273 L17.92768669128418 20.913671493530273"></path>
<path fill="none" stroke="black" stroke-width=".3" stroke-opacity="1.0"  filling="0" d="M19.902143478393555 21.206565856933594 L15.345839500427246 21.206565856933594 C15.449301719665527 20.770919799804688 14.798954010009766 20.77105140686035 14.902392387390137 21.206565856933594 L9.939359664916992 21.206565856933594 C9.85329818725586 21.176971435546875 9.752426147460938 21.17705535888672 9.666336059570312 21.206565856933594 L6.211416244506836 21.206565856933594 C6.0896124839782715 21.108829498291016 5.8648481369018555 21.10899543762207 5.742912292480469 21.206565856933594 L4.113839626312256 21.206565856933594 L4.113839626312256 20.307144165039062 C4.683313369750977 20.76722526550293 4.683137893676758 19.734455108642578 4.113839626312256 20.19439125061035 L4.113839626312256 19.84641456604004 L11.411291122436523 19.84641456604004 L18.708742141723633 19.84641456604004 C18.519548416137695 20.335792541503906 19.26825523376465 20.336036682128906 19.078968048095703 19.84641456604004 L19.902576446533203 19.84641456604004 L19.902143478393555 21.206565856933594"></path></svg>