<svg xmlns="http://www.w3.org/2000/svg" viewBox="0.0 0.0 24.0 24.0" height="200px" width="200px"><path fill="none" stroke="black" stroke-width=".3" stroke-opacity="1.0"  filling="0" d="M20.076858520507812 13.303677558898926 L20.076858520507812 13.303677558898926 C20.769535064697266 11.716571807861328 21.124134063720703 10.301244735717773 21.142993927001953 8.88145923614502 C21.161855697631836 7.461672782897949 20.84497833251953 6.037426948547363 20.194705963134766 4.432480335235596 L20.194705963134766 4.432480335235596"></path>
<path fill="none" stroke="black" stroke-width=".3" stroke-opacity="1.0"  filling="0" d="M20.076858520507812 13.303677558898926 L20.076858520507812 13.303677558898926 C20.769535064697266 11.716571807861328 21.124134063720703 10.301244735717773 21.142993927001953 8.88145923614502 C21.161855697631836 7.461672782897949 20.84497833251953 6.037426948547363 20.194705963134766 4.432480335235596 L20.194705963134766 4.432480335235596"></path>
<path fill="none" stroke="black" stroke-width=".3" stroke-opacity="1.0"  filling="0" d="M13.079999923706055 4.440000534057617 L13.079999923706055 4.440000534057617 C12.676555633544922 5.414002418518066 10.920000076293945 6.160057067871094 10.920000076293945 4.440000534057617 C10.920000076293945 2.719944953918457 12.676555633544922 3.4659981727600098 13.079999923706055 4.440000534057617 L13.079999923706055 4.440000534057617"></path>
<path fill="none" stroke="black" stroke-width=".3" stroke-opacity="1.0"  filling="0" d="M17.720726013183594 11.831850051879883 L17.720726013183594 11.831850051879883 C18.6013126373291 9.55761432647705 18.606672286987305 8.008079528808594 17.741844177246094 5.727804660797119 L17.741844177246094 5.727804660797119"></path>
<path fill="none" stroke="black" stroke-width=".3" stroke-opacity="1.0"  filling="0" d="M17.720726013183594 11.831850051879883 L17.720726013183594 11.831850051879883 C18.6013126373291 9.55761432647705 18.606672286987305 8.008079528808594 17.741844177246094 5.727804660797119 L17.741844177246094 5.727804660797119"></path>
<path fill="none" stroke="black" stroke-width=".3" stroke-opacity="1.0"  filling="0" d="M21.70629119873047 8.760000228881836 L21.70629119873047 8.760000228881836 C21.20720672607422 10.649184226989746 19.85564422607422 11.891758918762207 18.111501693725586 12.65414810180664 C16.36735725402832 13.416536331176758 14.230630874633789 13.698738098144531 12.161213874816895 13.66717529296875 C10.091797828674316 13.635612487792969 8.089691162109375 13.290284156799316 6.61478853225708 12.797613143920898 C4.868297576904297 12.214221954345703 2.293708324432373 10.961690902709961 2.2937088012695312 8.760000228881836 C2.2937092781066895 6.5583086013793945 4.868298530578613 5.305778503417969 6.614789962768555 4.722386837005615 C8.089693069458008 4.229715824127197 10.091798782348633 3.884387969970703 12.161215782165527 3.852825164794922 C14.230632781982422 3.8212623596191406 16.367359161376953 4.1034650802612305 18.111501693725586 4.865853786468506 C19.85564422607422 5.628242492675781 21.20720672607422 6.870818138122559 21.70629119873047 8.760001182556152 L21.70629119873047 8.760001182556152"></path>
<path fill="none" stroke="black" stroke-width=".3" stroke-opacity="1.0"  filling="0" d="M8.7491455078125 211.01422119140625 L15.2508544921875 211.01422119140625 C15.7164888381958 211.20709228515625 16.127126693725586 211.61773681640625 16.31999969482422 212.0833740234375 L16.31999969482422 215.34507751464844 C16.12712287902832 215.8107147216797 15.716483116149902 216.2213592529297 15.250846862792969 216.4142303466797 L8.7491455078125 216.4142303466797 C8.2835111618042 216.2213592529297 7.872872352600098 215.8107147216797 7.680000305175781 215.34507751464844 L7.680000305175781 212.0833740234375 C7.872876167297363 211.61773681640625 8.283516883850098 211.20709228515625 8.749153137207031 211.01422119140625 L8.749153137207031 211.01422119140625"></path>
<path fill="none" stroke="black" stroke-width=".3" stroke-opacity="1.0"  filling="0" d="M7.680000305175781 219.6542205810547 L13.079999923706055 222.35421752929688 L18.479999542236328 225.05421447753906 L12.0 225.05421447753906 L5.520000457763672 225.05421447753906 L10.920000076293945 222.35421752929688 L16.31999969482422 219.6542205810547 L12.0 219.6542205810547 L7.680000305175781 219.6542205810547"></path>
<path fill="none" stroke="black" stroke-width=".3" stroke-opacity="1.0"  filling="0" d="M19.59822654724121 226.82044982910156 L17.06548500061035 221.2535400390625 L14.532742500305176 215.6866455078125 L12.0 210.11972045898438 L9.46725845336914 215.6866455078125 L6.934515953063965 221.2535400390625 L4.401773929595947 226.82044982910156"></path></svg>