<svg xmlns="http://www.w3.org/2000/svg" viewBox="0.0 0.0 24.0 24.0" height="200px" width="200px"><path fill="none" stroke="black" stroke-width=".3" stroke-opacity="1.0"  filling="0" d="M6.120912075042725 4.7907843589782715 L7.281911849975586 5.38478422164917 L6.768912315368652 6.086784362792969 C7.332913398742676 7.5281195640563965 7.590285301208496 9.277450561523438 6.093912601470947 10.298784255981445 C5.675383567810059 10.584446907043457 5.000399112701416 10.433798789978027 4.662912368774414 10.811783790588379 C3.665766954421997 11.92858600616455 4.4066314697265625 14.713102340698242 5.067911624908447 15.698783874511719 C6.0906267166137695 17.223207473754883 9.164491653442383 18.24905014038086 10.845911979675293 17.453784942626953 C12.63976764678955 16.6053409576416 12.011240005493164 14.540157318115234 12.843912124633789 13.268784523010254 C12.974899291992188 13.068785667419434 13.541971206665039 13.105790138244629 13.557144165039062 13.34438419342041 C13.708063125610352 15.717544555664062 12.766468048095703 17.1716365814209 11.335162162780762 17.825817108154297 C9.90385627746582 18.479997634887695 7.9828386306762695 18.334266662597656 6.174911975860596 17.507783889770508 L6.174911975860596 17.507783889770508 C4.50802755355835 16.555274963378906 2.658405303955078 14.005208969116211 3.393911361694336 11.945784568786621 L2.232912063598633 11.756784439086914 L2.718912124633789 10.757784843444824 L3.5019121170043945 11.270784378051758 L3.9339122772216797 10.460784912109375 C3.0688323974609375 8.977790832519531 3.42488431930542 7.611929416656494 4.473912239074707 6.329784393310547 L4.473912239074707 6.329784393310547 C4.9212493896484375 6.081263542175293 5.3905229568481445 5.864748954772949 5.8779120445251465 5.708784580230713 L6.120912075042725 4.7907843589782715"></path>
<path fill="none" stroke="black" stroke-width=".3" stroke-opacity="1.0"  filling="0" d="M18.56100082397461 7.566384792327881 L22.15199851989746 7.75538444519043 L21.261001586914062 13.668383598327637 L15.627071380615234 13.416526794433594 C17.664634704589844 12.57900619506836 18.266569137573242 12.108887672424316 18.344999313354492 9.834383964538574 L18.291000366210938 7.593384265899658 L18.56100082397461 7.566384792327881"></path>
<path fill="none" stroke="black" stroke-width=".3" stroke-opacity="1.0"  filling="0" d="M18.50894546508789 7.680000305175781 L21.980926513671875 7.862520217895508 L21.119522094726562 13.565999984741211 L15.67199993133545 13.322999954223633 C17.63979721069336 12.516188621520996 18.224164962768555 12.063957214355469 18.299856185913086 9.867648124694824 L18.247800827026367 7.705920219421387 L18.50894546508789 7.680000305175781"></path>
<path fill="none" stroke="black" stroke-width=".3" stroke-opacity="1.0"  filling="0" d="M13.124927520751953 11.895455360412598 L13.124927520751953 11.895455360412598 C14.283661842346191 11.258395195007324 15.458009719848633 10.784010887145996 16.82403564453125 11.217544555664062 C17.271095275878906 11.359427452087402 18.057071685791016 11.426421165466309 18.057071685791016 11.895455360412598 C18.057071685791016 12.364489555358887 17.271095275878906 12.431483268737793 16.82403564453125 12.573366165161133 C15.458009719848633 13.0068998336792 14.283661842346191 12.532515525817871 13.124927520751953 11.895455360412598 L13.124927520751953 11.895455360412598"></path>
<path fill="none" stroke="black" stroke-width=".3" stroke-opacity="1.0"  filling="0" d="M7.848912239074707 12.59378433227539 L9.144912719726562 12.161784172058105 L8.631913185119629 13.322784423828125 L7.848912239074707 12.59378433227539"></path>
<path fill="none" stroke="black" stroke-width=".3" stroke-opacity="1.0"  filling="0" d="M6.039912700653076 12.755784034729004 L6.039912700653076 12.755784034729004 C6.290302753448486 11.783401489257812 6.210931777954102 11.296717643737793 7.167216777801514 10.721490859985352 C8.697236061096191 9.80115032196045 10.549128532409668 11.050398826599121 10.549127578735352 12.755784034729004 C10.549126625061035 14.46116828918457 8.697235107421875 15.710417747497559 7.1672163009643555 14.790077209472656 C6.210932731628418 14.214851379394531 6.290302753448486 13.728166580200195 6.039912700653076 12.755784034729004 L6.039912700653076 12.755784034729004"></path>
<path fill="none" stroke="black" stroke-width=".3" stroke-opacity="1.0"  filling="0" d="M6.957911968231201 12.823391914367676 L6.957911968231201 12.823391914367676 C7.1919121742248535 12.429752349853516 7.260483741760254 11.866448402404785 7.659912109375 11.642473220825195 C10.282759666442871 10.171736717224121 10.282758712768555 15.475048065185547 7.659911632537842 14.004310607910156 C7.260483264923096 13.78033447265625 7.191911697387695 13.217031478881836 6.957911968231201 12.823391914367676 L6.957911968231201 12.823391914367676"></path>
<path fill="none" stroke="black" stroke-width=".3" stroke-opacity="1.0"  filling="0" d="M12.24991226196289 13.187784194946289 L10.872912406921387 7.247784614562988 L14.220911979675293 5.951784610748291 L18.189910888671875 5.924784183502197 C18.33196449279785 7.492852210998535 18.600791931152344 9.171807289123535 18.362194061279297 10.557517051696777 C18.123594284057617 11.943227767944336 17.377567291259766 13.035693168640137 15.489912033081055 13.430784225463867 L12.24991226196289 13.187784194946289"></path>
<path fill="none" stroke="black" stroke-width=".3" stroke-opacity="1.0"  filling="0" d="M9.603912353515625 14.861783981323242 L10.38691234588623 16.103784561157227 L9.738912582397461 16.40078353881836 L10.38691234588623 17.399784088134766 C10.764912605285645 17.570783615112305 11.11757755279541 17.815593719482422 11.520912170410156 17.912782669067383 C14.579106330871582 18.64969825744629 14.448596000671387 15.31506061553955 14.348999977111816 13.398384094238281 L15.24907112121582 13.362527847290039 C15.15351676940918 15.643658638000488 15.215163230895996 18.585033416748047 12.141912460327148 18.695783615112305 C11.66386604309082 18.713010787963867 11.205912590026855 18.497783660888672 10.73791217803955 18.398784637451172 L9.495912551879883 17.588783264160156 L8.82091236114502 16.643783569335938 L7.740912437438965 16.859785079956055 L7.740912437438965 15.185784339904785 L9.603912353515625 14.861783981323242"></path></svg>