<svg xmlns="http://www.w3.org/2000/svg" viewBox="0.0 0.0 24.0 24.0" height="200px" width="200px"><path fill="none" stroke="black" stroke-width=".3" stroke-opacity="1.0"  filling="0" d="M22.168415069580078 10.891271591186523 L22.583999633789062 11.554608345031738 L21.908567428588867 11.140104293823242 L21.868173599243164 11.881631851196289 L21.567935943603516 10.886951446533203 C20.967178344726562 10.093271255493164 20.2382869720459 9.399911880493164 19.497573852539062 8.734944343566895 L19.497573852539062 8.734944343566895 C20.759443283081055 11.418561935424805 21.0682373046875 12.553314208984375 19.47230339050293 15.197232246398926 L19.47230339050293 18.787586212158203 L17.996591567993164 18.787586212158203 L17.996591567993164 15.637871742248535 C17.57179069519043 15.659759521484375 17.146991729736328 15.681648254394531 16.722190856933594 15.703536033630371 L16.722190856933594 18.78736686706543 L15.246479034423828 18.78736686706543 L15.246479034423828 15.706993103027344 C14.116507530212402 15.676236152648926 12.98679256439209 15.63406753540039 11.85765552520752 15.580848693847656 L11.85765552520752 18.787586212158203 L10.381943702697754 18.787586212158203 L10.381943702697754 15.491640090942383 C9.957143783569336 15.46190357208252 9.532343864440918 15.432168006896973 9.1075439453125 15.40243148803711 L9.1075439453125 18.78736686706543 L7.631832122802734 18.78736686706543 L7.631832122802734 15.280824661254883 C6.105474948883057 14.852518081665039 5.0918145179748535 14.605701446533203 3.902377128601074 13.582632064819336 L1.6922645568847656 13.375271797180176 L1.416001319885254 11.372520446777344 C2.418968439102173 10.969009399414062 3.4890644550323486 10.617410659790039 4.316880702972412 9.922080039978027 L4.316880702972412 9.922080039978027 C4.912191390991211 8.345117568969727 5.833120346069336 7.161338806152344 7.025362014770508 6.376574993133545 C8.21760368347168 5.591810703277588 9.681158065795898 5.206061840057373 11.361719131469727 5.225160121917725 L11.361719131469727 5.225160121917725 C10.884215354919434 5.403432369232178 10.40671157836914 5.581704139709473 9.929207801818848 5.759976387023926 L9.929207801818848 5.759976387023926 C11.172445297241211 5.8343377113342285 12.393442153930664 5.493664741516113 13.640952110290527 5.432519912719727 L13.640952110290527 5.432519912719727 C13.149911880493164 5.616119861602783 12.658872604370117 5.799720287322998 12.167832374572754 5.983320236206055 L12.167832374572754 5.983320236206055 C13.256392478942871 6.155522346496582 14.274417877197266 5.959909915924072 15.367656707763672 5.915928363800049 L15.367656707763672 5.915928363800049 C14.983824729919434 6.057624340057373 14.599991798400879 6.199320316314697 14.21615982055664 6.3410162925720215 L14.21615982055664 6.3410162925720215 C15.63066577911377 6.660916805267334 16.894187927246094 6.920743942260742 18.062755584716797 7.371244430541992 C19.2313232421875 7.821744918823242 20.304935455322266 8.462918281555176 21.339622497558594 9.545511245727539 C21.70362663269043 9.926368713378906 22.514036178588867 10.493657112121582 22.168415069580078 10.891271591186523 L22.168415069580078 10.891271591186523"></path>
<path fill="none" stroke="black" stroke-width=".3" stroke-opacity="1.0"  filling="0" d="M6.388751983642578 11.165159225463867 L6.388751983642578 11.165159225463867 C6.135528087615967 10.911935806274414 5.629079818725586 10.76360034942627 5.629079818725586 10.405488014221191 C5.629079818725586 10.047374725341797 6.030639171600342 9.6458158493042 6.388751983642578 9.6458158493042 C6.746915817260742 9.6458158493042 7.1486406326293945 10.047324180603027 7.1486406326293945 10.405488014221191 C7.1486406326293945 10.763651847839355 6.642048358917236 10.911935806274414 6.388751983642578 11.165159225463867 L6.388751983642578 11.165159225463867"></path>
<path fill="none" stroke="black" stroke-width=".3" stroke-opacity="1.0"  filling="0" d="M5.164031982421875 13.21780776977539 L5.164031982421875 13.21780776977539 C4.849319934844971 12.83505630493164 4.427802562713623 12.519350051879883 4.21989631652832 12.069552421569824 C4.088179588317871 11.784588813781738 3.8842785358428955 11.118959426879883 4.198080539703369 11.128007888793945 C4.609132766723633 11.139860153198242 4.651800155639648 11.829428672790527 4.9689836502075195 12.09115219116211 C5.2909955978393555 12.35685920715332 5.7068400382995605 12.481968879699707 6.075767993927002 12.677376747131348 L5.164031982421875 13.21780776977539"></path></svg>