<svg xmlns="http://www.w3.org/2000/svg" viewBox="0.0 0.0 24.0 24.0" height="200px" width="200px"><path fill="none" stroke="black" stroke-width=".3" stroke-opacity="1.0"  filling="0" d="M5.763864040374756 4.832472324371338 L5.763864040374756 4.832472324371338 C5.763864040374756 4.066391468048096 5.763864040374756 4.066391468048096 5.763864040374756 4.832472324371338 L5.763864040374756 4.832472324371338"></path>
<path fill="none" stroke="black" stroke-width=".3" stroke-opacity="1.0"  filling="0" d="M20.351207733154297 13.744632720947266 L20.351207733154297 13.744632720947266 C21.123205184936523 14.167588233947754 21.87120819091797 14.638287544250488 22.583784103393555 15.155112266540527 L22.583784103393555 15.155112266540527 C21.179397583007812 15.024236679077148 19.820390701293945 14.73930835723877 18.458803176879883 14.467940330505371 C17.097213745117188 14.196572303771973 15.733043670654297 13.938765525817871 14.318327903747559 13.86213493347168 L14.318327903747559 13.86213493347168 C13.883203506469727 14.109314918518066 13.329983711242676 14.075920104980469 12.829872131347656 14.058048248291016 L12.829872131347656 14.058048248291016 C12.979057312011719 14.418910026550293 13.54417610168457 15.61168384552002 13.444175720214844 16.05561637878418 C12.979772567749023 18.117238998413086 11.518194198608398 18.173828125 12.802007675170898 20.057880401611328 L12.802007675170898 20.057880401611328 C11.517938613891602 19.308576583862305 10.436060905456543 19.87702178955078 9.08076000213623 20.371295928955078 L9.08076000213623 20.371295928955078 C9.607367515563965 20.1014404296875 10.133975982666016 19.83158302307129 10.66058349609375 19.56172752380371 L10.66058349609375 19.56172752380371 C10.090415954589844 19.679231643676758 9.520248413085938 19.796735763549805 8.950080871582031 19.91423988342285 L8.950080871582031 19.91423988342285 C9.920732498168945 19.076414108276367 10.891593933105469 19.476882934570312 11.719226837158203 18.330392837524414 C13.024801254272461 16.521825790405273 12.20998477935791 14.311346054077148 10.28366470336914 13.627128601074219 L10.28366470336914 13.627128601074219 C10.507216453552246 14.28709602355957 10.665969848632812 14.972747802734375 10.753680229187012 15.664007186889648 L10.753680229187012 15.664007186889648 C10.467912673950195 15.966838836669922 10.182144165039062 16.269670486450195 9.896376609802246 16.57250213623047 L9.896376609802246 16.57250213623047 C9.57863998413086 17.03135871887207 8.935091972351074 17.391002655029297 8.943167686462402 17.949071884155273 C8.949630737304688 18.395706176757812 9.600671768188477 18.553871154785156 9.929424285888672 18.856271743774414 L9.929424285888672 18.856271743774414 C8.514237403869629 18.917259216308594 7.258272171020508 18.812850952148438 5.90772008895874 19.195825576782227 L5.90772008895874 19.195825576782227 C6.025224208831787 19.05218505859375 6.142727851867676 18.908544540405273 6.260231971740723 18.764904022216797 L6.260231971740723 18.764904022216797 C6.055680274963379 18.856271743774414 5.851128101348877 18.94763946533203 5.646576404571533 19.03900718688965 L5.646576404571533 19.03900718688965 C6.198690414428711 18.665481567382812 6.928227424621582 18.67167854309082 7.565952301025391 18.477622985839844 C8.688526153564453 18.136032104492188 9.280592918395996 16.460805892944336 9.735456466674805 15.585598945617676 L9.735456466674805 15.585598945617676 C9.195762634277344 14.403011322021484 8.208939552307129 13.434139251708984 7.270247936248779 12.444422721862793 C6.331556797027588 11.454706192016602 5.440998077392578 10.444145202636719 5.093832492828369 9.178176879882812 C4.685959815979004 7.690834999084473 5.369083881378174 7.121056079864502 4.490760803222656 5.675303936004639 L4.490760803222656 5.675303936004639 C3.4663562774658203 5.535271644592285 2.4472999572753906 5.347902297973633 1.4401922225952148 5.113920211791992 L1.4401922225952148 5.113920211791992 C2.601769208908081 4.904611587524414 3.8114755153656006 4.8849101066589355 4.980432033538818 5.048040866851807 L4.980432033538818 5.048040866851807 C3.700314998626709 4.667840957641602 2.741217613220215 4.479280948638916 1.416001319885254 4.773719787597656 L1.416001319885254 4.773719787597656 C2.8567285537719727 3.818142890930176 5.503790378570557 3.14064884185791 7.28709602355957 3.774935722351074 C8.6581392288208 4.262588977813721 8.813323974609375 5.8532843589782715 9.932663917541504 6.6330485343933105 C11.147287368774414 7.479189872741699 12.412153244018555 8.17302131652832 13.657711029052734 8.901236534118652 C14.903270721435547 9.6294527053833 16.1295223236084 10.392053604125977 17.266916275024414 11.375733375549316 C18.385684967041016 12.343304634094238 19.418258666992188 12.573478698730469 20.351207733154297 13.744632720947266 L20.351207733154297 13.744632720947266"></path></svg>