<svg xmlns="http://www.w3.org/2000/svg" viewBox="0.0 0.0 24.0 24.0" height="200px" width="200px"><path fill="none" stroke="black" stroke-width=".3" stroke-opacity="1.0"  filling="0" d="M12.431999206542969 2.2799997329711914 L16.42799949645996 2.2799997329711914 L20.423999786376953 2.2799997329711914 L20.423999786376953 7.35599946975708 L20.423999786376953 12.431999206542969 L16.42799949645996 12.431999206542969 L12.431999206542969 12.431999206542969 L12.431999206542969 11.568000793457031 L19.559999465942383 11.568000793457031 L19.559999465942383 7.464000701904297 L19.559999465942383 3.3600006103515625 L13.295999526977539 3.3600006103515625 L13.295999526977539 7.52664041519165 L12.93549633026123 7.970736503601074 L12.431999206542969 7.349520206451416 L12.431999206542969 2.2799997329711914"></path>
<path fill="none" stroke="black" stroke-width=".3" stroke-opacity="1.0"  filling="0" d="M6.687048435211182 4.288800239562988 L6.687048435211182 4.288800239562988 C7.001256465911865 3.7445759773254395 7.085448265075684 2.9703357219696045 7.629672527313232 2.656127691268921 C9.395432472229004 1.63666570186615 10.278312683105469 2.962733268737793 10.278312683105469 4.2888007164001465 C10.278312683105469 5.6148681640625 9.39543342590332 6.940935134887695 7.629672050476074 5.921472549438477 C7.085448265075684 5.607264518737793 7.001256465911865 4.833024501800537 6.687048435211182 4.288800239562988 L6.687048435211182 4.288800239562988"></path>
<path fill="none" stroke="black" stroke-width=".3" stroke-opacity="1.0"  filling="0" d="M15.872015953063965 7.180392265319824 L15.872015953063965 7.180392265319824 C15.870144844055176 7.491360187530518 15.86827278137207 7.802328586578369 15.866401672363281 8.113296508789062 L13.43337631225586 10.540703773498535 C13.134564399719238 10.661605834960938 12.766132354736328 10.659163475036621 12.466343879699707 10.540703773498535 L10.920000076293945 9.039504051208496 L10.920000076293945 14.928203582763672 L10.920000076293945 20.816904067993164 C10.631999969482422 21.103607177734375 10.462377548217773 21.67701530456543 10.055999755859375 21.67701530456543 C9.649621963500977 21.67701530456543 9.480000495910645 21.103607177734375 9.192000389099121 20.816904067993164 L9.192000389099121 14.592000007629395 L7.680000305175781 14.592000007629395 L7.680000305175781 20.816904067993164 C7.392000198364258 21.103607177734375 7.222378253936768 21.67701530456543 6.816000461578369 21.67701530456543 C6.4096221923828125 21.67701530456543 6.240000247955322 21.103607177734375 5.952000141143799 20.816904067993164 L5.952000141143799 13.627559661865234 C5.816136360168457 13.536983489990234 5.680272102355957 13.44640827178955 5.544408321380615 13.35583209991455 L3.63323974609375 10.680456161499023 C3.634103775024414 10.40721607208252 3.634967803955078 10.133975982666016 3.635831832885742 9.860735893249512 L5.727359771728516 7.089888095855713 C6.045815944671631 6.998663902282715 6.364271640777588 6.907440185546875 6.682727813720703 6.816215991973877 L10.345656394958496 6.816215991973877 C11.275440216064453 7.532862663269043 12.168181419372559 8.305889129638672 12.978047370910645 9.155712127685547 L14.938896179199219 7.180392265319824 C15.2499361038208 7.180392265319824 15.560976028442383 7.180392265319824 15.872015953063965 7.180392265319824 L15.872015953063965 7.180392265319824"></path>
<path fill="none" stroke="black" stroke-width=".3" stroke-opacity="1.0"  filling="0" d="M4.887983798980713 10.267895698547363 L5.952000141143799 8.853960037231445 L5.952000141143799 11.699975967407227 L4.887983798980713 10.267895698547363"></path></svg>