<svg xmlns="http://www.w3.org/2000/svg" viewBox="0.0 0.0 24.0 24.0" height="200px" width="200px"><path fill="none" stroke="black" stroke-width=".3" stroke-opacity="1.0"  filling="0" d="M13.265328407287598 2.1632518768310547 L17.90025520324707 4.90623664855957 C18.17522430419922 5.376684665679932 18.450191497802734 5.847132205963135 18.725160598754883 6.317580223083496 L19.0966796875 11.130059242248535 L22.314430236816406 13.008395195007324 C22.43647003173828 13.427507400512695 22.889135360717773 13.882271766662598 22.68054962158203 14.265730857849121 C22.47251319885254 14.648179054260254 21.845783233642578 14.513411521911621 21.42840003967285 14.637251853942871 L17.358741760253906 12.259955406188965 C17.15534210205078 11.922203063964844 16.95194435119629 11.584451675415039 16.748544692993164 11.246699333190918 L16.37183952331543 8.546051979064941 L13.257552146911621 6.694499492645264 L14.045520782470703 9.511788368225098 C13.991996765136719 10.070172309875488 13.54879093170166 10.540534973144531 13.154088020324707 10.939115524291992 L7.975488185882568 12.653075218200684 C5.804303169250488 12.992877006530762 6.236746788024902 11.249402046203613 7.102632522583008 10.116803169250488 L10.896239280700684 8.906988143920898 L9.638904571533203 4.7895965576171875 C9.46872329711914 2.2901251316070557 10.995431900024414 1.704665184020996 13.265328407287598 2.1632518768310547 L13.265328407287598 2.1632518768310547"></path>
<path fill="none" stroke="black" stroke-width=".3" stroke-opacity="1.0"  filling="0" d="M21.001365661621094 9.03961181640625 L21.001365661621094 9.03961181640625 C20.578311920166016 8.863850593566895 20.055906295776367 8.836496353149414 19.732206344604492 8.5123291015625 C18.620466232299805 7.398982524871826 19.426809310913086 5.447531700134277 21.001365661621094 5.447531700134277 C22.575071334838867 5.447531700134277 23.388877868652344 7.397140979766846 22.27368927001953 8.5123291015625 C21.949066162109375 8.83695125579834 21.425474166870117 8.863850593566895 21.001365661621094 9.03961181640625 L21.001365661621094 9.03961181640625"></path>
<path fill="none" stroke="black" stroke-width=".3" stroke-opacity="1.0"  filling="0" d="M20.11511993408203 21.985570907592773 L13.810080528259277 18.281314849853516 L7.505040645599365 14.577059745788574 L1.2000007629394531 10.872803688049316 L1.5715208053588867 10.238627433776855 L7.87922477722168 13.942091941833496 L14.186928749084473 17.64555549621582 L20.494632720947266 21.34902000427246 C20.993375778198242 21.223451614379883 21.49212074279785 21.097881317138672 21.990863800048828 20.972312927246094 L22.619638442993164 21.34902000427246 C21.929601669311523 21.864606857299805 20.967552185058594 22.109418869018555 20.11511993408203 21.985570907592773 L20.11511993408203 21.985570907592773"></path></svg>