<svg xmlns="http://www.w3.org/2000/svg" viewBox="0.0 0.0 24.0 24.0" height="200px" width="200px"><path fill="none" stroke="black" stroke-width=".3" stroke-opacity="1.0"  filling="0" d="M12.868104934692383 3.574488639831543 L12.868104934692383 3.574488639831543 C13.608792304992676 2.831759214401245 13.60879135131836 4.317217826843262 12.868104934692383 3.574488639831543 L12.868104934692383 3.574488639831543"></path>
<path fill="none" stroke="black" stroke-width=".3" stroke-opacity="1.0"  filling="0" d="M14.248775482177734 3.697824478149414 L14.248775482177734 3.698256492614746 C13.881936073303223 3.3359525203704834 13.515095710754395 2.9736483097076416 13.148256301879883 2.611344337463379 L13.148256301879883 2.607889175415039 C12.807120323181152 2.9575929641723633 12.465984344482422 3.3072967529296875 12.124848365783691 3.6570005416870117 L11.613143920898438 3.660456657409668 C12.451366424560547 1.6661185026168823 13.945189476013184 1.7327282428741455 14.77344036102295 3.697824478149414 L14.248775482177734 3.697824478149414"></path>
<path fill="none" stroke="black" stroke-width=".3" stroke-opacity="1.0"  filling="0" d="M14.769119262695312 5.0489044189453125 L11.662391662597656 5.0489044189453125 L11.662391662597656 4.778904914855957 L14.769119262695312 4.778904914855957 L14.769119262695312 5.0489044189453125"></path>
<path fill="none" stroke="black" stroke-width=".3" stroke-opacity="1.0"  filling="0" d="M14.769119262695312 6.129552364349365 L11.662391662597656 6.129552364349365 L11.662391662597656 5.8593363761901855 L14.769119262695312 5.8593363761901855 L14.769119262695312 6.129552364349365"></path>
<path fill="none" stroke="black" stroke-width=".3" stroke-opacity="1.0"  filling="0" d="M14.769119262695312 7.074984073638916 L11.662391662597656 7.074984073638916 L11.662391662597656 6.804984092712402 L14.769119262695312 6.804984092712402 L14.769119262695312 7.074984073638916"></path>
<path fill="none" stroke="black" stroke-width=".3" stroke-opacity="1.0"  filling="0" d="M16.930631637573242 7.755600452423096 L16.930631637573242 7.755600452423096 C17.52105712890625 8.001967430114746 18.039541244506836 8.527129173278809 18.280847549438477 9.119640350341797 L18.280847549438477 14.78488826751709 C17.629039764404297 16.385087966918945 16.23155975341797 15.91270637512207 15.57955265045166 17.512535095214844 L15.618432998657227 20.313190460205078 C15.652162551879883 21.917705535888672 14.433073997497559 22.720705032348633 13.212160110473633 22.721050262451172 C11.991246223449707 22.721393585205078 10.76850700378418 21.919082641601562 10.794936180114746 20.312976837158203 L10.85217571258545 17.512752532958984 C10.585893630981445 16.906330108642578 10.041976928710938 16.37849998474121 9.430032730102539 16.125167846679688 L8.485679626464844 16.125167846679688 C7.888549327850342 15.895106315612793 7.363499641418457 15.36662483215332 7.121856212615967 14.774086952209473 L6.177504539489746 14.774086952209473 C6.024720668792725 14.602871894836426 5.871936321258545 14.431655883789062 5.719152450561523 14.260440826416016 L5.719152450561523 9.644087791442871 C5.871936321258545 9.463151931762695 6.024720668792725 9.28221607208252 6.177504539489746 9.101280212402344 L7.121856212615967 9.101280212402344 C7.374687671661377 8.51353931427002 7.899538040161133 8.007148742675781 8.485679626464844 7.750632286071777 L9.430032730102539 7.750632286071777 C10.038895606994629 7.507378101348877 10.58527946472168 6.990652561187744 10.85217571258545 6.391776084899902 L10.794936180114746 3.563039779663086 C11.035758018493652 3.0003418922424316 11.080184936523438 2.3032753467559814 11.517401695251465 1.8749464750289917 C13.462274551391602 -0.030391454696655273 14.943244934082031 1.9854178428649902 15.618432998657227 3.563039779663086 L15.57955265045166 6.391776084899902 C15.821074485778809 6.984363555908203 16.340017318725586 7.509294509887695 16.930631637573242 7.755600452423096 L16.930631637573242 7.755600452423096"></path>
<path fill="none" stroke="black" stroke-width=".3" stroke-opacity="1.0"  filling="0" d="M14.769119262695312 8.155632019042969 L11.662391662597656 8.155632019042969 L11.662391662597656 7.885416507720947 L14.769119262695312 7.885416507720947 L14.769119262695312 8.155632019042969"></path>
<path fill="none" stroke="black" stroke-width=".3" stroke-opacity="1.0"  filling="0" d="M14.769119262695312 9.23628044128418 L11.662391662597656 9.23628044128418 L11.662391662597656 8.966279983520508 L14.769119262695312 8.966279983520508 L14.769119262695312 9.23628044128418"></path>
<path fill="none" stroke="black" stroke-width=".3" stroke-opacity="1.0"  filling="0" d="M9.501096725463867 9.371496200561523 L8.150232315063477 9.371496200561523 L8.150232315063477 9.101280212402344 L9.501096725463867 9.101280212402344 L9.501096725463867 9.371496200561523"></path>
<path fill="none" stroke="black" stroke-width=".3" stroke-opacity="1.0"  filling="0" d="M14.769119262695312 10.181928634643555 L11.662391662597656 10.181928634643555 L11.662391662597656 9.911711692810059 L14.769119262695312 9.911711692810059 L14.769119262695312 10.181928634643555"></path>
<path fill="none" stroke="black" stroke-width=".3" stroke-opacity="1.0"  filling="0" d="M9.501096725463867 10.316927909851074 L8.150232315063477 10.316927909851074 L8.150232315063477 10.046928405761719 L9.501096725463867 10.046928405761719 L9.501096725463867 10.316927909851074"></path>
<path fill="none" stroke="black" stroke-width=".3" stroke-opacity="1.0"  filling="0" d="M17.335845947265625 10.587143898010254 L16.390199661254883 10.587143898010254 L16.390199661254883 10.316927909851074 L17.335845947265625 10.316927909851074 L17.335845947265625 10.587143898010254"></path>
<path fill="none" stroke="black" stroke-width=".3" stroke-opacity="1.0"  filling="0" d="M9.501096725463867 11.262359619140625 L8.150232315063477 11.262359619140625 L8.150232315063477 10.99236011505127 L9.501096725463867 10.99236011505127 L9.501096725463867 11.262359619140625"></path>
<path fill="none" stroke="black" stroke-width=".3" stroke-opacity="1.0"  filling="0" d="M14.769119262695312 11.262359619140625 L11.662391662597656 11.262359619140625 L11.662391662597656 10.99236011505127 L14.769119262695312 10.99236011505127 L14.769119262695312 11.262359619140625"></path>
<path fill="none" stroke="black" stroke-width=".3" stroke-opacity="1.0"  filling="0" d="M17.335845947265625 11.262359619140625 L16.390199661254883 11.262359619140625 L16.390199661254883 10.99236011505127 L17.335845947265625 10.99236011505127 L17.335845947265625 11.262359619140625"></path>
<path fill="none" stroke="black" stroke-width=".3" stroke-opacity="1.0"  filling="0" d="M17.335845947265625 11.937575340270996 L16.390199661254883 11.937575340270996 L16.390199661254883 11.66757583618164 L17.335845947265625 11.66757583618164 L17.335845947265625 11.937575340270996"></path>
<path fill="none" stroke="black" stroke-width=".3" stroke-opacity="1.0"  filling="0" d="M9.501096725463867 12.208224296569824 L8.150232315063477 12.208224296569824 L8.150232315063477 11.937792778015137 L9.501096725463867 11.937792778015137 L9.501096725463867 12.208224296569824"></path>
<path fill="none" stroke="black" stroke-width=".3" stroke-opacity="1.0"  filling="0" d="M14.769119262695312 12.342792510986328 L11.662391662597656 12.342792510986328 L11.662391662597656 12.072792053222656 L14.769119262695312 12.072792053222656 L14.769119262695312 12.342792510986328"></path>
<path fill="none" stroke="black" stroke-width=".3" stroke-opacity="1.0"  filling="0" d="M17.335845947265625 12.613439559936523 L16.390199661254883 12.613439559936523 L16.390199661254883 12.342792510986328 L17.335845947265625 12.342792510986328 L17.335845947265625 12.613439559936523"></path>
<path fill="none" stroke="black" stroke-width=".3" stroke-opacity="1.0"  filling="0" d="M9.501096725463867 13.15322494506836 L8.150232315063477 13.15322494506836 L8.150232315063477 12.883440017700195 L9.501096725463867 12.883440017700195 L9.501096725463867 13.15322494506836"></path>
<path fill="none" stroke="black" stroke-width=".3" stroke-opacity="1.0"  filling="0" d="M17.335845947265625 13.288656234741211 L16.390199661254883 13.288656234741211 L16.390199661254883 13.018655776977539 L17.335845947265625 13.018655776977539 L17.335845947265625 13.288656234741211"></path>
<path fill="none" stroke="black" stroke-width=".3" stroke-opacity="1.0"  filling="0" d="M14.769119262695312 13.423871994018555 L11.662391662597656 13.423871994018555 L11.662391662597656 13.15322494506836 L14.769119262695312 13.15322494506836 L14.769119262695312 13.423871994018555"></path>
<path fill="none" stroke="black" stroke-width=".3" stroke-opacity="1.0"  filling="0" d="M9.501096725463867 14.09908676147461 L8.150232315063477 14.09908676147461 L8.150232315063477 13.82908821105957 L9.501096725463867 13.82908821105957 L9.501096725463867 14.09908676147461"></path>
<path fill="none" stroke="black" stroke-width=".3" stroke-opacity="1.0"  filling="0" d="M14.769119262695312 14.368871688842773 L11.662391662597656 14.368871688842773 L11.662391662597656 14.09908676147461 L14.769119262695312 14.09908676147461 L14.769119262695312 14.368871688842773"></path>
<path fill="none" stroke="black" stroke-width=".3" stroke-opacity="1.0"  filling="0" d="M9.501096725463867 15.044951438903809 L8.150232315063477 15.044951438903809 L8.150232315063477 14.774086952209473 L9.501096725463867 14.774086952209473 L9.501096725463867 15.044951438903809"></path>
<path fill="none" stroke="black" stroke-width=".3" stroke-opacity="1.0"  filling="0" d="M14.769119262695312 15.450167655944824 L11.662391662597656 15.450167655944824 L11.662391662597656 15.179304122924805 L14.769119262695312 15.179304122924805 L14.769119262695312 15.450167655944824"></path>
<path fill="none" stroke="black" stroke-width=".3" stroke-opacity="1.0"  filling="0" d="M14.769119262695312 16.530384063720703 L11.662391662597656 16.530384063720703 L11.662391662597656 16.26059913635254 L14.769119262695312 16.26059913635254 L14.769119262695312 16.530384063720703"></path>
<path fill="none" stroke="black" stroke-width=".3" stroke-opacity="1.0"  filling="0" d="M14.769119262695312 17.476245880126953 L11.662391662597656 17.476245880126953 L11.662391662597656 17.20560073852539 L14.769119262695312 17.20560073852539 L14.769119262695312 17.476245880126953"></path>
<path fill="none" stroke="black" stroke-width=".3" stroke-opacity="1.0"  filling="0" d="M14.769119262695312 18.556461334228516 L11.662391662597656 18.556461334228516 L11.662391662597656 18.286462783813477 L14.769119262695312 18.286462783813477 L14.769119262695312 18.556461334228516"></path>
<path fill="none" stroke="black" stroke-width=".3" stroke-opacity="1.0"  filling="0" d="M12.902015686035156 20.34213638305664 L12.902015686035156 20.34213638305664 C13.642718315124512 19.600929260253906 13.643427848815918 21.081512451171875 12.902015686035156 20.34213638305664 L12.902015686035156 20.34213638305664"></path>
<path fill="none" stroke="black" stroke-width=".3" stroke-opacity="1.0"  filling="0" d="M13.199664115905762 21.791927337646484 L13.199664115905762 21.791927337646484 C12.503479957580566 21.508760452270508 11.903056144714355 20.87592124938965 11.625887870788574 20.17732810974121 L12.150551795959473 20.17732810974121 C12.48311996459961 20.5511531829834 12.815688133239746 20.924976348876953 13.148256301879883 21.29880142211914 L13.148256301879883 21.30419921875 C13.5065279006958 20.95528793334961 13.864799499511719 20.606374740600586 14.223071098327637 20.257463455200195 L14.760480880737305 20.23651123046875 C14.480843544006348 20.915700912475586 13.8796968460083 21.514345169067383 13.199664115905762 21.791927337646484 L13.199664115905762 21.791927337646484"></path></svg>