<svg xmlns="http://www.w3.org/2000/svg" viewBox="0.0 0.0 24.0 24.0" height="200px" width="200px"><path fill="none" stroke="black" stroke-width=".3" stroke-opacity="1.0"  filling="0" d="M16.473791122436523 1.2000007629394531 L19.63689422607422 4.363212585449219 L22.799999237060547 7.526423931121826 L22.799999237060547 12.0 L22.799999237060547 16.473575592041016 L19.636680603027344 19.63678741455078 L16.473360061645508 22.799999237060547 L11.999892234802246 22.799999237060547 L7.526423931121826 22.799999237060547 L4.363212585449219 19.636680603027344 L1.2000007629394531 16.473360061645508 L1.2000007629394531 11.999892234802246 L1.2000007629394531 7.526423931121826 L4.363212585449219 4.363212585449219 L7.526423931121826 1.2000007629394531 L12.000107765197754 1.2000007629394531 L16.473791122436523 1.2000007629394531"></path>
<path fill="none" stroke="black" stroke-width=".3" stroke-opacity="1.0"  filling="0" d="M19.80861473083496 16.493017196655273 L16.49193572998047 19.809696197509766 L12.0 15.31711196899414 L7.508280277252197 19.809696197509766 L4.191167831420898 16.493017196655273 L8.683536529541016 12.0 L4.191167831420898 7.506984233856201 L7.508064270019531 4.190520763397217 L12.0 8.683103561401367 L16.49193572998047 4.190736293792725 L19.80861473083496 7.507200241088867 L15.31624698638916 12.0 L19.80861473083496 16.493017196655273"></path></svg>