<svg xmlns="http://www.w3.org/2000/svg" viewBox="0.0 0.0 24.0 24.0" height="200px" width="200px"><path fill="none" stroke="black" stroke-width=".3" stroke-opacity="1.0"  filling="0" d="M9.843671798706055 3.810575485229492 L14.271671295166016 2.7400808334350586 C14.102686882019043 2.9855289459228516 13.933703422546387 3.2309770584106445 13.764719009399414 3.4764251708984375 L14.06668758392334 3.682919502258301 C14.243087768554688 3.4268157482147217 14.419487953186035 3.1707117557525635 14.595888137817383 2.9146080017089844 L15.673295974731445 7.370040416717529 L9.843671798706055 3.810575485229492"></path>
<path fill="none" stroke="black" stroke-width=".3" stroke-opacity="1.0"  filling="0" d="M9.579288482666016 4.078200340270996 L15.556007385253906 7.727519989013672 L9.117912292480469 11.553095817565918 L9.579288482666016 4.078200340270996"></path>
<path fill="none" stroke="black" stroke-width=".3" stroke-opacity="1.0"  filling="0" d="M12.849960327148438 5.504880428314209 L12.542807579040527 5.305944442749023 C12.74448013305664 4.999584197998047 12.946151733398438 4.69322395324707 13.14782428741455 4.386863708496094 L13.45195198059082 4.590120315551758 C13.251288414001465 4.895040512084961 13.050623893737793 5.199960231781006 12.849960327148438 5.504880428314209 L12.849960327148438 5.504880428314209"></path>
<path fill="none" stroke="black" stroke-width=".3" stroke-opacity="1.0"  filling="0" d="M11.375543594360352 7.17240047454834 L11.375543594360352 7.17240047454834 C11.567495346069336 6.859776496887207 11.759448051452637 6.547152519226074 11.951399803161621 6.234528541564941 L12.262008666992188 6.428496360778809 C12.071064949035645 6.739536285400391 11.880120277404785 7.050576210021973 11.689176559448242 7.361616134643555 L11.375543594360352 7.17240047454834"></path>
<path fill="none" stroke="black" stroke-width=".3" stroke-opacity="1.0"  filling="0" d="M10.585415840148926 9.253344535827637 L10.266599655151367 9.073200225830078 C10.44919204711914 8.755176544189453 10.631783485412598 8.437151908874512 10.814375877380371 8.119128227233887 L11.130599975585938 8.303592681884766 C10.948871612548828 8.620176315307617 10.767144203186035 8.936760902404785 10.585415840148926 9.253344535827637 L10.585415840148926 9.253344535827637"></path>
<path fill="none" stroke="black" stroke-width=".3" stroke-opacity="1.0"  filling="0" d="M9.65229606628418 10.916328430175781 L9.65229606628418 10.916328430175781 C9.600744247436523 10.999199867248535 9.549192428588867 11.082072257995605 9.497640609741211 11.16494369506836 L9.18271255493164 10.978535652160645 C9.234984397888184 10.894512176513672 9.28725528717041 10.810487747192383 9.339527130126953 10.72646427154541 L9.729840278625488 10.031375885009766 L10.049087524414062 10.21065616607666 L9.65229606628418 10.916328430175781"></path>
<path fill="none" stroke="black" stroke-width=".3" stroke-opacity="1.0"  filling="0" d="M8.87491226196289 12.605879783630371 L8.51246452331543 12.554471969604492 C8.649552345275879 12.192095756530762 8.786640167236328 11.829720497131348 8.923727989196777 11.467344284057617 L9.238871574401855 11.653535842895508 C9.117551803588867 11.970983505249023 8.996232032775879 12.288432121276855 8.87491226196289 12.605879783630371 L8.87491226196289 12.605879783630371"></path>
<path fill="none" stroke="black" stroke-width=".3" stroke-opacity="1.0"  filling="0" d="M9.463080406188965 14.614680290222168 L9.463080406188965 14.614680290222168 C9.214752197265625 14.31875991821289 8.966423988342285 14.022839546203613 8.718095779418945 13.726919174194336 L9.041879653930664 13.556063652038574 C9.261983871459961 13.816559791564941 9.482088088989258 14.077054977416992 9.702192306518555 14.33755111694336 L9.463080406188965 14.614680290222168"></path>
<path fill="none" stroke="black" stroke-width=".3" stroke-opacity="1.0"  filling="0" d="M11.335800170898438 15.828168869018555 L11.335800170898438 15.828168869018555 C11.015687942504883 15.642984390258789 10.695575714111328 15.457799911499023 10.375463485717773 15.272615432739258 L10.569864273071289 14.962440490722656 C10.883496284484863 15.143880844116211 11.197128295898438 15.32532024383545 11.510760307312012 15.506760597229004 L11.335800170898438 15.828168869018555"></path>
<path fill="none" stroke="black" stroke-width=".3" stroke-opacity="1.0"  filling="0" d="M13.285847663879395 16.84855079650879 L12.972864151000977 16.687633514404297 C12.860471725463867 16.62967300415039 12.748080253601074 16.571714401245117 12.635687828063965 16.51375389099121 L12.309096336364746 16.343761444091797 L12.478224754333496 16.018896102905273 L12.805032730102539 16.189319610595703 C12.916560173034668 16.24684715270996 13.028088569641113 16.30437660217285 13.139616012573242 16.36190414428711 L13.45411205291748 16.5236873626709 L13.285847663879395 16.84855079650879"></path>
<path fill="none" stroke="black" stroke-width=".3" stroke-opacity="1.0"  filling="0" d="M15.096792221069336 18.001991271972656 L15.096792221069336 18.001991271972656 C14.809224128723145 17.793622970581055 14.521656036376953 17.585256576538086 14.234087944030762 17.376888275146484 L14.425680160522461 17.06519889831543 C14.73038387298584 17.28616714477539 15.035087585449219 17.50713539123535 15.339791297912598 17.728103637695312 L15.096792221069336 18.001991271972656"></path>
<path fill="none" stroke="black" stroke-width=".3" stroke-opacity="1.0"  filling="0" d="M16.301856994628906 19.78852653503418 L15.937247276306152 19.756561279296875 C15.950937271118164 19.43028450012207 15.82223892211914 19.113149642944336 15.743494987487793 18.796222686767578 L16.06879234313965 18.62839126586914 C16.163578033447266 19.01127052307129 16.31875228881836 19.394451141357422 16.301856994628906 19.78852653503418 L16.301856994628906 19.78852653503418"></path>
<path fill="none" stroke="black" stroke-width=".3" stroke-opacity="1.0"  filling="0" d="M15.306528091430664 21.831024169921875 L15.025944709777832 21.595584869384766 C15.226391792297363 21.30556869506836 15.426839828491211 21.015552520751953 15.627286911010742 20.725536346435547 L15.950424194335938 20.897687911987305 C15.73579216003418 21.208799362182617 15.521160125732422 21.519912719726562 15.306528091430664 21.831024169921875 L15.306528091430664 21.831024169921875"></path></svg>