<svg xmlns="http://www.w3.org/2000/svg" viewBox="0.0 0.0 24.0 24.0" height="200px" width="200px"><path fill="none" stroke="black" stroke-width=".3" stroke-opacity="1.0"  filling="0" d="M13.169424057006836 8.919840812683105 L13.92585563659668 8.919840812683105 L13.929096221923828 10.015392303466797 L13.168560028076172 10.015392303466797 L13.169424057006836 8.919840812683105"></path>
<path fill="none" stroke="black" stroke-width=".3" stroke-opacity="1.0"  filling="0" d="M14.201472282409668 8.919840812683105 L14.959199905395508 8.919840812683105 L14.959199905395508 10.013232231140137 L14.201472282409668 10.013232231140137 L14.201472282409668 8.919840812683105"></path>
<path fill="none" stroke="black" stroke-width=".3" stroke-opacity="1.0"  filling="0" d="M15.2335205078125 8.919840812683105 L15.992112159729004 8.919840812683105 L15.992112159729004 10.013232231140137 L15.2335205078125 10.013232231140137 L15.2335205078125 8.919840812683105"></path>
<path fill="none" stroke="black" stroke-width=".3" stroke-opacity="1.0"  filling="0" d="M16.256710052490234 8.919840812683105 L17.01443862915039 8.919840812683105 L17.01443862915039 10.013232231140137 L16.256710052490234 10.013232231140137 L16.256710052490234 8.919840812683105"></path>
<path fill="none" stroke="black" stroke-width=".3" stroke-opacity="1.0"  filling="0" d="M17.279041290283203 8.919840812683105 L18.035470962524414 8.919840812683105 L18.035470962524414 10.013232231140137 L17.279041290283203 10.013232231140137 L17.279041290283203 8.919840812683105"></path>
<path fill="none" stroke="black" stroke-width=".3" stroke-opacity="1.0"  filling="0" d="M18.292943954467773 8.919840812683105 L19.049808502197266 8.919840812683105 L19.049808502197266 10.013232231140137 L18.292943954467773 10.013232231140137 L18.292943954467773 8.919840812683105"></path>
<path fill="none" stroke="black" stroke-width=".3" stroke-opacity="1.0"  filling="0" d="M19.315269470214844 8.919840812683105 L20.07170295715332 8.919840812683105 L20.07170295715332 10.013232231140137 L19.315269470214844 10.013232231140137 L19.315269470214844 8.919840812683105"></path>
<path fill="none" stroke="black" stroke-width=".3" stroke-opacity="1.0"  filling="0" d="M20.347320556640625 8.919840812683105 L21.10504913330078 8.919840812683105 L21.10504913330078 10.013232231140137 L20.347320556640625 10.013232231140137 L20.347320556640625 8.919840812683105"></path>
<path fill="none" stroke="black" stroke-width=".3" stroke-opacity="1.0"  filling="0" d="M12.174095153808594 10.015392303466797 L12.174095153808594 8.919840812683105 L12.932687759399414 8.919840812683105 L12.935280799865723 10.015392303466797 L12.174095153808594 10.015392303466797"></path>
<path fill="none" stroke="black" stroke-width=".3" stroke-opacity="1.0"  filling="0" d="M20.117279052734375 10.586496353149414 L13.168560028076172 10.586496353149414 L13.168560028076172 10.344792366027832 L20.117279052734375 10.344792366027832 L20.117279052734375 10.586496353149414"></path>
<path fill="none" stroke="black" stroke-width=".3" stroke-opacity="1.0"  filling="0" d="M22.799999237060547 13.027511596679688 L22.799999237060547 13.621295928955078 L17.97974395751953 13.621295928955078 C18.20090675354004 15.877846717834473 15.331600189208984 15.89443302154541 15.55535888671875 13.62108039855957 L10.541027069091797 13.62108039855957 L5.52669620513916 13.62108039855957 C5.615691661834717 15.82483196258545 2.898162364959717 15.834369659423828 2.9992809295654297 13.62108039855957 L1.2000007629394531 13.62108039855957 L1.2000007629394531 13.027728080749512 L1.729848861694336 13.03658390045166 C1.8614062070846558 13.000903129577637 1.9812246561050415 12.894551277160645 2.0421838760375977 12.772631645202637 L2.2223291397094727 10.718904495239258 C2.368614435195923 10.473546028137207 2.421942710876465 10.461941719055176 2.696232795715332 10.427736282348633 L6.332160472869873 9.965712547302246 L6.493296146392822 8.7608642578125 L6.739320278167725 8.7608642578125 L6.853584289550781 10.860383987426758 L7.535496234893799 10.860383987426758 L7.591440200805664 10.559280395507812 C7.6707000732421875 10.161903381347656 7.691073417663574 9.837909698486328 8.046768188476562 9.607368469238281 L8.046768188476562 9.607368469238281 C7.795104503631592 9.428112983703613 7.75369930267334 9.299371719360352 7.848048210144043 9.004728317260742 L7.848048210144043 9.004728317260742 C7.740152359008789 8.986624717712402 7.63385534286499 8.973983764648438 7.525992393493652 8.957857131958008 L7.942224502563477 8.64746379852295 C8.285330772399902 8.679008483886719 8.485157012939453 8.879180908203125 8.633208274841309 9.183143615722656 L8.842081069946289 9.447959899902344 L8.586336135864258 9.259608268737793 C8.546550750732422 9.436856269836426 8.492862701416016 9.514883995056152 8.330376625061035 9.598079681396484 L8.330376625061035 9.598079681396484 C8.501720428466797 9.688919067382812 8.587847709655762 9.89427661895752 8.672087669372559 10.068960189819336 L8.737104415893555 10.822800636291504 L8.850719451904297 9.936335563659668 C8.980432510375977 9.61801815032959 9.302067756652832 9.346561431884766 9.63696002960205 9.269111633300781 L10.091423988342285 9.249456405639648 L10.091423988342285 8.892191886901855 L11.399086952209473 8.892191886901855 L11.399086952209473 10.587575912475586 L12.935280799865723 10.58627986907959 L12.935280799865723 10.345008850097656 L11.744904518127441 10.345008850097656 L11.966951370239258 10.015175819396973 L11.78615951538086 8.609231948852539 L16.75761604309082 8.609231948852539 L21.72907257080078 8.609231948852539 L21.72907257080078 8.91098403930664 L21.369216918945312 8.91098403930664 L21.379150390625 10.025327682495117 L21.718704223632812 10.015175819396973 L21.718704223632812 10.345008850097656 L20.319454193115234 10.345008850097656 L20.319454193115234 10.586063385009766 L21.718704223632812 10.586063385009766 L22.297584533691406 13.027511596679688 L22.799999237060547 13.027511596679688"></path></svg>