<svg xmlns="http://www.w3.org/2000/svg" viewBox="0.0 0.0 24.0 24.0" height="200px" width="200px"><path fill="none" stroke="black" stroke-width=".3" stroke-opacity="1.0"  filling="0" d="M13.892268180847168 8.870267868041992 L13.892268180847168 8.870267868041992 C13.563549995422363 9.531983375549316 13.19229793548584 10.174714088439941 12.777383804321289 10.786080360412598 L11.983043670654297 10.965575218200684 C12.00462532043457 10.54597282409668 13.95209789276123 6.909598350524902 11.758620262145996 8.979240417480469 L10.932096481323242 8.979240417480469 C11.658549308776855 7.331727981567383 13.120711326599121 7.133845329284668 13.892268180847168 8.870267868041992 L13.892268180847168 8.870267868041992"></path>
<path fill="none" stroke="black" stroke-width=".3" stroke-opacity="1.0"  filling="0" d="M12.822312355041504 11.362799644470215 L12.822312355041504 12.259847640991211 L11.931528091430664 12.259847640991211 L11.931528091430664 11.362799644470215 L12.822312355041504 11.362799644470215"></path>
<path fill="none" stroke="black" stroke-width=".3" stroke-opacity="1.0"  filling="0" d="M13.793880462646484 12.884628295898438 L13.793880462646484 12.884628295898438 C11.824967384338379 13.177388191223145 10.683417320251465 12.815192222595215 8.774904251098633 12.6502685546875 L8.774904251098633 12.6502685546875 C10.015962600708008 10.965929985046387 7.007067680358887 8.65711784362793 9.841511726379395 7.201992511749268 C10.973649024963379 6.620784282684326 12.702251434326172 6.519162178039551 14.070974349975586 6.9999213218688965 C15.439696311950684 7.4806809425354 16.448537826538086 8.543822288513184 16.14115333557129 10.292141914367676 C15.877123832702637 11.793866157531738 14.930694580078125 12.077104568481445 13.793880462646484 12.884628295898438 L13.793880462646484 12.884628295898438"></path>
<path fill="none" stroke="black" stroke-width=".3" stroke-opacity="1.0"  filling="0" d="M4.865952491760254 14.470823287963867 L4.865952491760254 14.470823287963867 C5.04450798034668 14.040375709533691 5.072118282318115 13.509020805358887 5.401618957519531 13.179481506347656 C6.5325751304626465 12.048391342163086 8.520132064819336 12.87050724029541 8.520132064819336 14.470823287963867 C8.520132064819336 16.07109260559082 6.532543182373047 16.89322280883789 5.401618957519531 15.762166023254395 C5.072118282318115 15.432626724243164 5.04450798034668 14.901270866394043 4.865952491760254 14.470823287963867 L4.865952491760254 14.470823287963867"></path>
<path fill="none" stroke="black" stroke-width=".3" stroke-opacity="1.0"  filling="0" d="M17.307228088378906 16.2979679107666 L17.307228088378906 16.2979679107666 C16.876829147338867 16.11937713623047 16.34551239013672 16.091711044311523 16.016033172607422 15.76219367980957 C14.88523006439209 14.631257057189941 15.706913948059082 12.643896102905273 17.307228088378906 12.643896102905273 C18.90761375427246 12.643896102905273 19.730361938476562 14.6309232711792 18.598825454711914 15.76219367980957 C18.269201278686523 16.091739654541016 17.737760543823242 16.11937713623047 17.307228088378906 16.2979679107666 L17.307228088378906 16.2979679107666"></path>
<path fill="none" stroke="black" stroke-width=".3" stroke-opacity="1.0"  filling="0" d="M4.273464202880859 19.786476135253906 L3.0372962951660156 19.786476135253906 L3.0372962951660156 17.279796600341797 C3.2090160846710205 17.108003616333008 3.3807361125946045 16.93621253967285 3.5524559020996094 16.764419555664062 L9.832655906677246 16.764419555664062 C10.004411697387695 16.93621253967285 10.176168441772461 17.108003616333008 10.34792423248291 17.279796600341797 L10.34792423248291 19.786476135253906 L9.112188339233398 19.786476135253906 L9.112188339233398 18.75864028930664 C9.017595291137695 18.664045333862305 8.805402755737305 18.66399383544922 8.710860252380371 18.75864028930664 L8.71053695678711 19.786476135253906 L4.675007343292236 19.786476135253906 L4.675007343292236 18.75864028930664 C4.580363750457764 18.66399383544922 4.36810827255249 18.66399574279785 4.273464202880859 18.75864028930664 L4.273464202880859 19.786476135253906"></path>
<path fill="none" stroke="black" stroke-width=".3" stroke-opacity="1.0"  filling="0" d="M14.887811660766602 19.786476135253906 L13.651535987854004 19.786476135253906 L13.651535987854004 17.279796600341797 C13.823291778564453 17.108003616333008 13.995048522949219 16.93621253967285 14.166804313659668 16.764419555664062 L20.447002410888672 16.764419555664062 C20.618759155273438 16.93621253967285 20.790515899658203 17.108003616333008 20.96227264404297 17.279796600341797 L20.96227264404297 19.786476135253906 L19.72653579711914 19.786476135253906 L19.72653579711914 18.75864028930664 C19.63201904296875 18.664072036743164 19.419889450073242 18.664020538330078 19.325424194335938 18.75864028930664 L19.324993133544922 19.786476135253906 L15.289356231689453 19.786476135253906 L15.289356231689453 18.75864028930664 C15.194686889648438 18.664020538330078 14.982430458068848 18.663969039916992 14.887811660766602 18.75864028930664 L14.887811660766602 19.786476135253906"></path></svg>