<svg xmlns="http://www.w3.org/2000/svg" viewBox="0.0 0.0 24.0 24.0" height="200px" width="200px"><path fill="none" stroke="black" stroke-width=".3" stroke-opacity="1.0"  filling="0" d="M8.698871612548828 4.664209365844727 L10.899479866027832 4.664209365844727 L10.16594409942627 9.06585693359375 C9.20842456817627 11.377753257751465 7.455695152282715 11.37759780883789 6.498048305511475 9.06585693359375 L8.698871612548828 4.664209365844727"></path>
<path fill="none" stroke="black" stroke-width=".3" stroke-opacity="1.0"  filling="0" d="M15.301127433776855 4.664209365844727 L17.50173568725586 9.06585693359375 C16.544111251831055 11.377660751342773 14.791510581970215 11.377652168273926 13.833840370178223 9.06585693359375 L13.10030460357666 4.664209365844727 L15.301127433776855 4.664209365844727"></path>
<path fill="none" stroke="black" stroke-width=".3" stroke-opacity="1.0"  filling="0" d="M21.592559814453125 8.713776588439941 L21.719999313354492 9.06585693359375 C21.395004272460938 9.993544578552246 20.724374771118164 10.853903770446777 19.89588165283203 11.382888793945312 L19.89588165283203 15.634525299072266 L19.89588165283203 19.88616180419922 L14.638586044311523 19.88616180419922 L9.381288528442383 19.88616180419922 L4.1239914894104 19.88616180419922 L4.1239914894104 15.636900901794434 L4.1239914894104 11.387639999389648 C3.2876522541046143 10.861035346984863 2.6087589263916016 9.997894287109375 2.2799997329711914 9.06585693359375 L6.240576267242432 4.113839626312256 L12.0 4.113839626312256 L17.759424209594727 4.113839626312256 L21.592559814453125 8.713776588439941"></path>
<path fill="none" stroke="black" stroke-width=".3" stroke-opacity="1.0"  filling="0" d="M5.224296569824219 15.300695419311523 L5.224296569824219 11.382888793945312 C5.648808479309082 11.117568969726562 6.073320388793945 10.852248191833496 6.497832298278809 10.586928367614746 L6.497832298278809 10.586928367614746 C7.851541042327881 11.644765853881836 8.812163352966309 11.644896507263184 10.16594409942627 10.587143898010254 L10.16594409942627 10.587143898010254 C11.51965618133545 11.644807815551758 12.480342864990234 11.644808769226074 13.83405590057373 10.587143898010254 L13.83405590057373 10.587143898010254 C15.187681198120117 11.644883155822754 16.1484432220459 11.644857406616211 17.501951217651367 10.586928367614746 L17.501951217651367 10.586928367614746 C17.933088302612305 10.853904724121094 18.36422348022461 11.120880126953125 18.795360565185547 11.387856483459473 L18.795360565185547 15.300479888916016 L12.009828567504883 15.30058765411377 L5.224296569824219 15.300695419311523"></path></svg>