<svg xmlns="http://www.w3.org/2000/svg" viewBox="0.0 0.0 24.0 24.0" height="200px" width="200px"><path fill="none" stroke="black" stroke-width=".3" stroke-opacity="1.0"  filling="0" d="M13.248695373535156 7.279104232788086 L13.248695373535156 7.279104232788086 C12.296072006225586 6.765472412109375 13.184008598327637 6.614548683166504 13.099872589111328 5.913120269775391 C12.945899963378906 4.629470348358154 11.6580228805542 3.370351791381836 13.327967643737793 2.3685598373413086 C13.563721656799316 2.2271323204040527 13.984962463378906 2.321917772293091 14.131488800048828 2.554536819458008 C14.502361297607422 3.1433188915252686 13.716286659240723 3.401573896408081 13.614168167114258 3.7948083877563477 C13.336533546447754 4.863916397094727 15.52249526977539 6.59450101852417 13.248695373535156 7.279104232788086 L13.248695373535156 7.279104232788086"></path>
<path fill="none" stroke="black" stroke-width=".3" stroke-opacity="1.0"  filling="0" d="M10.527312278747559 7.917600154876709 L10.527312278747559 7.917600154876709 C9.574581146240234 7.404331684112549 10.462613105773926 7.25305700302124 10.378488540649414 6.55183219909668 C10.224457740783691 5.267900466918945 8.936317443847656 4.009344577789307 10.606584548950195 3.007272720336914 C10.84233283996582 2.8658363819122314 11.263579368591309 2.960629940032959 11.410104751586914 3.193248748779297 C11.780773162841797 3.781708240509033 10.994854927062988 4.040582656860352 10.892784118652344 4.433736801147461 C10.615630149841309 5.501274108886719 12.801098823547363 7.235463619232178 10.527312278747559 7.917600154876709 L10.527312278747559 7.917600154876709"></path>
<path fill="none" stroke="black" stroke-width=".3" stroke-opacity="1.0"  filling="0" d="M15.77611255645752 7.917600154876709 L15.77611255645752 7.917600154876709 C14.823341369628906 7.40431022644043 15.711518287658691 7.253014087677002 15.627286911010742 6.55183219909668 C15.473051071166992 5.267906188964844 14.185173034667969 4.009442329406738 15.85538387298584 3.007272720336914 C16.091062545776367 2.865859031677246 16.512235641479492 2.9606664180755615 16.658687591552734 3.193248748779297 C17.029319763183594 3.7818565368652344 16.24346351623535 4.040482521057129 16.141366958618164 4.433736801147461 C15.864108085632324 5.501688003540039 18.04958152770996 7.234635829925537 15.77611255645752 7.917600154876709 L15.77611255645752 7.917600154876709"></path>
<path fill="none" stroke="black" stroke-width=".3" stroke-opacity="1.0"  filling="0" d="M18.362064361572266 11.805599212646484 L18.362064361572266 11.805599212646484 C17.638277053833008 11.1571626663208 16.93436622619629 10.411930084228516 16.030126571655273 10.055999755859375 L15.252311706542969 10.055999755859375 C13.417806625366211 9.016658782958984 12.95748233795166 9.043810844421387 11.170127868652344 10.055999755859375 L10.198127746582031 10.055999755859375 C9.715044021606445 10.24638557434082 9.17319393157959 10.327873229980469 8.748876571655273 10.627158164978027 C8.39164924621582 10.879121780395508 8.567499160766602 11.888047218322754 7.79469633102417 11.797823905944824 C6.867140293121338 11.689533233642578 7.4544548988342285 10.456503868103027 7.61191987991333 10.221248626708984 C8.41200065612793 9.025917053222656 8.798818588256836 9.236112594604492 10.198127746582031 8.889599800109863 L10.886087417602539 8.889599800109863 C12.456254005432129 7.654510974884033 13.934713363647461 7.705835342407227 15.531167984008789 8.889599800109863 L16.030126571655273 8.889599800109863 C17.42953109741211 9.236146926879883 17.816110610961914 9.02589225769043 18.616239547729492 10.221248626708984 C18.818336486816406 10.523171424865723 19.3381290435791 11.750475883483887 18.362064361572266 11.805599212646484 L18.362064361572266 11.805599212646484"></path>
<path fill="none" stroke="black" stroke-width=".3" stroke-opacity="1.0"  filling="0" d="M15.058126449584961 15.110400199890137 L15.058126449584961 15.110400199890137 C14.863726615905762 14.916000366210938 14.669327735900879 14.721600532531738 14.47492790222168 14.527200698852539 L14.47492790222168 11.416800498962402 C14.669327735900879 11.222399711608887 14.783203125 10.833599090576172 15.058126449584961 10.833599090576172 C15.333050727844238 10.833599090576172 15.446928024291992 11.222399711608887 15.641328811645508 11.416800498962402 L15.641328811645508 14.527200698852539 C15.446928024291992 14.721600532531738 15.252527236938477 14.916000366210938 15.058126449584961 15.110400199890137 L15.058126449584961 15.110400199890137"></path>
<path fill="none" stroke="black" stroke-width=".3" stroke-opacity="1.0"  filling="0" d="M16.613113403320312 16.665599822998047 L16.613113403320312 16.665599822998047 C16.418785095214844 16.471271514892578 16.224454879760742 16.27694320678711 16.030126571655273 16.08261489868164 L16.030126571655273 11.416800498962402 C16.224454879760742 11.222399711608887 16.338239669799805 10.833599090576172 16.613113403320312 10.833599090576172 C16.888036727905273 10.833599090576172 17.00191307067871 11.222399711608887 17.196311950683594 11.416800498962402 L17.196311950683594 16.082399368286133 C17.00191307067871 16.27680015563965 16.807512283325195 16.47119903564453 16.613113403320312 16.665599822998047 L16.613113403320312 16.665599822998047"></path>
<path fill="none" stroke="black" stroke-width=".3" stroke-opacity="1.0"  filling="0" d="M6.07252836227417 18.78045654296875 L6.07252836227417 18.78045654296875 C4.48362922668457 18.132535934448242 4.135067462921143 18.422128677368164 3.6079845428466797 16.776023864746094 C2.959756374359131 14.751575469970703 3.7742486000061035 11.738655090332031 6.398823261260986 12.675755500793457 C6.710926055908203 12.787191390991211 7.686255931854248 13.433710098266602 7.115592002868652 14.017223358154297 C6.646208763122559 14.497176170349121 5.55577278137207 13.505948066711426 5.2728962898254395 13.5670804977417 C4.560239791870117 13.721094131469727 4.58559513092041 15.65932846069336 4.6125030517578125 15.842613220214844 C4.685681343078613 16.34107208251953 4.757074356079102 16.942733764648438 5.153232574462891 17.253982543945312 C5.782533645629883 17.748403549194336 7.250909805297852 17.15635108947754 7.457087993621826 17.92963218688965 C7.5279316902160645 18.19533348083496 7.277948379516602 18.499544143676758 7.043664455413818 18.643512725830078 C6.765135765075684 18.81467056274414 6.396240234375 18.73480796813965 6.07252836227417 18.78045654296875 L6.07252836227417 18.78045654296875"></path>
<path fill="none" stroke="black" stroke-width=".3" stroke-opacity="1.0"  filling="0" d="M10.052544593811035 20.553600311279297 L10.052544593811035 20.553600311279297 C8.171257972717285 20.012941360473633 7.983055114746094 19.77777099609375 7.670928001403809 17.831998825073242 L7.670928001403809 11.805599212646484 L13.016927719116211 11.805599212646484 L18.362926483154297 11.805599212646484 L18.362926483154297 17.831998825073242 C18.050806045532227 19.777793884277344 17.862661361694336 20.0130558013916 15.981311798095703 20.553600311279297 L10.052544593811035 20.553600311279297"></path>
<path fill="none" stroke="black" stroke-width=".3" stroke-opacity="1.0"  filling="0" d="M16.030126571655273 21.719999313354492 L10.003727912902832 21.719999313354492 C7.378727436065674 21.501203536987305 6.883986473083496 20.04824447631836 6.504528522491455 17.831998825073242 L6.504528522491455 11.222400665283203 C6.698928356170654 11.028000831604004 6.893328666687012 10.833600044250488 7.087728500366211 10.639200210571289 L13.016927719116211 10.639200210571289 L18.94612693786621 10.639200210571289 C19.14045524597168 10.833600044250488 19.33478355407715 11.028000831604004 19.529111862182617 11.222400665283203 L19.529111862182617 17.831998825073242 C19.149654388427734 20.048547744750977 18.65511703491211 21.500713348388672 16.030126571655273 21.719999313354492 L16.030126571655273 21.719999313354492"></path></svg>