<svg xmlns="http://www.w3.org/2000/svg" viewBox="0.0 0.0 24.0 24.0" height="200px" width="200px"><path fill="none" stroke="black" stroke-width=".3" stroke-opacity="1.0"  filling="0" d="M12.215999603271484 3.4464006423950195 L12.215999603271484 3.4464006423950195 C13.791280746459961 3.628380298614502 15.256735801696777 4.019532680511475 16.51235580444336 4.741774082183838 C17.767974853515625 5.464015007019043 18.813758850097656 6.517345428466797 19.549697875976562 8.023679733276367 C20.417774200439453 9.800477027893066 20.551462173461914 11.69855785369873 20.124174118041992 13.439644813537598 C19.69688606262207 15.180730819702148 18.708621978759766 16.76482391357422 17.332788467407227 17.91364097595215 C15.95695686340332 19.06245994567871 14.193556785583496 19.776004791259766 12.215999603271484 19.775999069213867 C10.238500595092773 19.77599334716797 8.475119590759277 19.062437057495117 7.099288463592529 17.913616180419922 C5.723457336425781 16.764795303344727 4.735175132751465 15.180709838867188 4.307873725891113 13.439641952514648 C3.8805718421936035 11.69857406616211 4.014250755310059 9.80052375793457 4.882340431213379 8.023774147033691 C5.618294715881348 6.5174713134765625 6.664072036743164 5.464125633239746 7.919679641723633 4.741856575012207 C9.175287246704102 4.019587516784668 10.640724182128906 3.6283957958221436 12.215999603271484 3.4464006423950195 L12.215999603271484 3.4464006423950195"></path>
<path fill="none" stroke="black" stroke-width=".3" stroke-opacity="1.0"  filling="0" d="M9.688800811767578 6.751200199127197 L9.688800811767578 6.751200199127197 C10.512141227722168 5.325132369995117 10.512141227722168 8.177268028259277 9.688800811767578 6.751200199127197 L9.688800811767578 6.751200199127197"></path>
<path fill="none" stroke="black" stroke-width=".3" stroke-opacity="1.0"  filling="0" d="M12.604801177978516 7.528800010681152 L12.604801177978516 7.528800010681152 C13.428141593933105 6.1027326583862305 13.428141593933105 8.954867362976074 12.604801177978516 7.528800010681152 L12.604801177978516 7.528800010681152"></path>
<path fill="none" stroke="black" stroke-width=".3" stroke-opacity="1.0"  filling="0" d="M6.772799968719482 8.695199966430664 L6.772799968719482 8.695199966430664 C7.596141815185547 7.269131660461426 7.596141338348389 10.121267318725586 6.772799968719482 8.695199966430664 L6.772799968719482 8.695199966430664"></path>
<path fill="none" stroke="black" stroke-width=".3" stroke-opacity="1.0"  filling="0" d="M10.272000312805176 8.889602661132812 L10.272000312805176 8.889602661132812 C10.417219161987305 8.538084983825684 11.049599647521973 8.269997596740723 11.049599647521973 8.889602661132812 C11.049599647521973 9.509203910827637 10.417217254638672 9.241109848022461 10.272000312805176 8.889596939086914 L10.272000312805176 8.889596939086914"></path>
<path fill="none" stroke="black" stroke-width=".3" stroke-opacity="1.0"  filling="0" d="M14.743200302124023 9.278400421142578 L14.743200302124023 9.278400421142578 C15.566540718078613 7.852330684661865 15.566540718078613 10.704469680786133 14.743200302124023 9.278400421142578 L14.743200302124023 9.278400421142578"></path>
<path fill="none" stroke="black" stroke-width=".3" stroke-opacity="1.0"  filling="0" d="M8.133600234985352 10.639200210571289 L8.133600234985352 10.639200210571289 C8.956940650939941 9.213130950927734 8.956940650939941 12.065269470214844 8.133600234985352 10.639200210571289 L8.133600234985352 10.639200210571289"></path>
<path fill="none" stroke="black" stroke-width=".3" stroke-opacity="1.0"  filling="0" d="M11.924400329589844 10.930803298950195 L11.924400329589844 10.930803298950195 C12.069619178771973 10.579285621643066 12.70199966430664 10.311199188232422 12.70199966430664 10.930803298950195 C12.70199966430664 11.550405502319336 12.06961727142334 11.282310485839844 11.924400329589844 10.930797576904297 L11.924400329589844 10.930797576904297"></path>
<path fill="none" stroke="black" stroke-width=".3" stroke-opacity="1.0"  filling="0" d="M16.68720054626465 11.028002738952637 L16.68720054626465 11.028002738952637 C16.832420349121094 10.676482200622559 17.464799880981445 10.40839958190918 17.464799880981445 11.028002738952637 C17.464799880981445 11.647603034973145 16.83241844177246 11.37951374053955 16.68720054626465 11.027997016906738 L16.68720054626465 11.027997016906738"></path>
<path fill="none" stroke="black" stroke-width=".3" stroke-opacity="1.0"  filling="0" d="M5.606400012969971 11.805599212646484 L5.606400012969971 11.805599212646484 C6.429741859436035 10.379530906677246 6.429741382598877 13.231666564941406 5.606400012969971 11.805599212646484 L5.606400012969971 11.805599212646484"></path>
<path fill="none" stroke="black" stroke-width=".3" stroke-opacity="1.0"  filling="0" d="M19.01999855041504 12.0 L19.01999855041504 12.0 C18.1412353515625 11.121235847473145 18.42962074279785 9.533641815185547 17.75409507751465 8.375808715820312 C16.37261390686035 6.007983207702637 14.550567626953125 5.885951995849609 12.215999603271484 5.196000099182129 C12.047937393188477 5.146331310272217 11.347265243530273 4.468070030212402 12.215999603271484 4.418400287628174 C13.458656311035156 4.347352027893066 14.70606803894043 4.716017723083496 15.795281410217285 5.363768577575684 C16.88449478149414 6.011519908905029 17.81551170349121 6.938355922698975 18.425376892089844 7.98364782333374 C19.000511169433594 8.969411849975586 19.985485076904297 11.03451919555664 19.01999855041504 12.0 L19.01999855041504 12.0"></path>
<path fill="none" stroke="black" stroke-width=".3" stroke-opacity="1.0"  filling="0" d="M14.45159912109375 12.486000061035156 L14.45159912109375 12.486000061035156 C15.27493953704834 11.059930801391602 15.27493953704834 13.912070274353027 14.45159912109375 12.486000061035156 L14.45159912109375 12.486000061035156"></path>
<path fill="none" stroke="black" stroke-width=".3" stroke-opacity="1.0"  filling="0" d="M12.250344276428223 13.046304702758789 L14.703239440917969 14.83024787902832 L14.245967864990234 15.45923900604248 L13.771415710449219 15.1140718460083 L13.771415710449219 16.860000610351562 C13.588082313537598 17.043333053588867 13.176983833312988 17.043283462524414 12.993599891662598 16.860000610351562 L12.993599891662598 14.548368453979492 L12.021598815917969 13.841615676879883 L11.049599647521973 14.548368453979492 L11.049599647521973 16.860000610351562 C10.866317749023438 17.043283462524414 10.455282211303711 17.043283462524414 10.272000312805176 16.860000610351562 L10.272000312805176 15.1140718460083 L9.79744815826416 15.45923900604248 L9.340176582336426 14.83024787902832 L10.660799980163574 13.869695663452148 L10.660799980163574 12.777599334716797 L11.438400268554688 12.777599334716797 L11.438400268554688 13.304207801818848 L11.792856216430664 13.046304702758789 C11.945352554321289 13.046304702758789 12.097847938537598 13.046304702758789 12.250344276428223 13.046304702758789 L12.250344276428223 13.046304702758789"></path>
<path fill="none" stroke="black" stroke-width=".3" stroke-opacity="1.0"  filling="0" d="M8.716800689697266 13.166403770446777 L8.716800689697266 13.166403770446777 C8.862020492553711 12.814885139465332 9.494400024414062 12.546799659729004 9.494400024414062 13.166403770446777 C9.494400024414062 13.786005020141602 8.862017631530762 13.517910957336426 8.716800689697266 13.166398048400879 L8.716800689697266 13.166398048400879"></path>
<path fill="none" stroke="black" stroke-width=".3" stroke-opacity="1.0"  filling="0" d="M16.29840087890625 14.721602439880371 L16.29840087890625 14.721602439880371 C16.443620681762695 14.370081901550293 17.076000213623047 14.101999282836914 17.076000213623047 14.721602439880371 C17.076000213623047 15.341201782226562 16.44361686706543 15.073111534118652 16.29840087890625 14.721596717834473 L16.29840087890625 14.721596717834473"></path>
<path fill="none" stroke="black" stroke-width=".3" stroke-opacity="1.0"  filling="0" d="M6.578400135040283 14.721599578857422 L6.578400135040283 14.721599578857422 C7.401741981506348 13.295531272888184 7.401741027832031 16.147666931152344 6.578400135040283 14.721599578857422 L6.578400135040283 14.721599578857422"></path>
<path fill="none" stroke="black" stroke-width=".3" stroke-opacity="1.0"  filling="0" d="M19.110071182250977 16.665599822998047 L20.717975616455078 21.719999313354492 L14.920320510864258 21.719999313354492 L9.122664451599121 21.719999313354492 L3.3250083923339844 21.719999313354492 L4.933128833770752 16.665599822998047 L12.021599769592285 16.665599822998047 L19.110071182250977 16.665599822998047"></path>
<path fill="none" stroke="black" stroke-width=".3" stroke-opacity="1.0"  filling="0" d="M12.215999603271484 20.942401885986328 L12.215999603271484 20.942401885986328 C10.63697624206543 20.782743453979492 9.165858268737793 20.43910789489746 7.858126640319824 19.792503356933594 C6.550394535064697 19.145896911621094 5.40604829788208 18.19632339477539 4.480569362640381 16.824785232543945 C3.1130473613739014 14.798151969909668 2.702366590499878 12.50652027130127 3.0340235233306885 10.351737022399902 C3.365680694580078 8.196953773498535 4.439675807952881 6.179019451141357 6.041506290435791 4.6997809410095215 C7.643336296081543 3.2205424308776855 9.773001670837402 2.2799997329711914 12.215999603271484 2.2799997329711914 C14.658997535705566 2.2799997329711914 16.78866195678711 3.2205424308776855 18.390493392944336 4.6997809410095215 C19.99232292175293 6.179019451141357 21.06631851196289 8.196953773498535 21.39797592163086 10.351737022399902 C21.729633331298828 12.506519317626953 21.318950653076172 14.798151016235352 19.95142936706543 16.824785232543945 C19.025951385498047 18.196321487426758 17.88160514831543 19.145896911621094 16.57387351989746 19.79250144958496 C15.266140937805176 20.43910789489746 13.795022964477539 20.782743453979492 12.215999603271484 20.942401885986328 L12.215999603271484 20.942401885986328"></path></svg>