<svg xmlns="http://www.w3.org/2000/svg" viewBox="0.0 0.0 24.0 24.0" height="200px" width="200px"><path fill="none" stroke="black" stroke-width=".3" stroke-opacity="1.0"  filling="0" d="M11.766072273254395 2.7366247177124023 L11.766072273254395 2.7366247177124023 C12.72464370727539 3.2895278930664062 13.800946235656738 5.988720417022705 11.766072273254395 5.988720417022705 C9.731023788452148 5.988720417022705 10.80720329284668 3.2895195484161377 11.766072273254395 2.7366247177124023 L11.766072273254395 2.7366247177124023"></path>
<path fill="none" stroke="black" stroke-width=".3" stroke-opacity="1.0"  filling="0" d="M6.121560096740723 3.3664798736572266 L6.121560096740723 3.3664798736572266 C7.079614639282227 3.91929292678833 8.155925750732422 6.618144512176514 6.121560096740723 6.618144512176514 C4.0863847732543945 6.618144512176514 5.162892818450928 3.9194300174713135 6.121560096740723 3.3664798736572266 L6.121560096740723 3.3664798736572266"></path>
<path fill="none" stroke="black" stroke-width=".3" stroke-opacity="1.0"  filling="0" d="M17.87843894958496 3.3664798736572266 L17.87843894958496 3.3664798736572266 C18.83701515197754 3.9193406105041504 19.913339614868164 6.618144512176514 17.87843894958496 6.618144512176514 C15.843794822692871 6.618144512176514 16.920066833496094 3.9192967414855957 17.87843894958496 3.3664798736572266 L17.87843894958496 3.3664798736572266"></path>
<path fill="none" stroke="black" stroke-width=".3" stroke-opacity="1.0"  filling="0" d="M11.796096801757812 5.376359939575195 L11.796096801757812 5.376359939575195 C9.455735206604004 4.5646281242370605 14.17982292175293 4.601743698120117 11.796096801757812 5.376359939575195 L11.796096801757812 5.376359939575195"></path>
<path fill="none" stroke="black" stroke-width=".3" stroke-opacity="1.0"  filling="0" d="M6.166272163391113 6.084624290466309 L6.166272163391113 6.084624290466309 C5.8889360427856445 5.90809965133667 5.231109619140625 5.540189743041992 5.502720355987549 5.354976177215576 C5.716845989227295 5.208962440490723 5.945838928222656 5.663308620452881 6.203423976898193 5.691936492919922 C6.241875648498535 5.696209907531738 6.735360622406006 5.350927352905273 6.882960319519043 5.4958086013793945 C7.216403007507324 5.823109149932861 6.299692153930664 6.090554237365723 6.166272163391113 6.084624290466309 L6.166272163391113 6.084624290466309"></path>
<path fill="none" stroke="black" stroke-width=".3" stroke-opacity="1.0"  filling="0" d="M17.863101959228516 6.090456485748291 L17.863101959228516 6.090456485748291 C17.588973999023438 5.948469161987305 16.954471588134766 5.648431777954102 17.19242286682129 5.451744556427002 C17.33454704284668 5.334266662597656 17.86574935913086 5.6964874267578125 17.876279830932617 5.696040153503418 C17.92911720275879 5.6937947273254395 18.326828002929688 5.275018215179443 18.50116729736328 5.397312164306641 C18.758258819580078 5.577654838562012 18.1771297454834 6.0879387855529785 17.863101959228516 6.090456485748291 L17.863101959228516 6.090456485748291"></path>
<path fill="none" stroke="black" stroke-width=".3" stroke-opacity="1.0"  filling="0" d="M11.766072273254395 6.5801286697387695 L11.766072273254395 6.5801286697387695 C11.351109504699707 6.363399505615234 10.812353134155273 6.2965288162231445 10.521183013916016 5.929941654205322 C9.63818645477295 4.818236351013184 9.888663291931152 2.144723892211914 11.766072273254395 2.144784927368164 C13.64350700378418 2.144845962524414 13.893906593322754 4.818198204040527 13.010879516601562 5.929941654205322 C12.719724655151367 6.296509742736816 12.181008338928223 6.363399505615234 11.766072273254395 6.5801286697387695 L11.766072273254395 6.5801286697387695"></path>
<path fill="none" stroke="black" stroke-width=".3" stroke-opacity="1.0"  filling="0" d="M6.121560096740723 7.20955228805542 L6.121560096740723 7.20955228805542 C5.706651210784912 6.992868423461914 5.167994976043701 6.9260053634643555 4.876833438873291 6.559500217437744 C3.99363374710083 5.447755813598633 4.244170188903809 2.7748565673828125 6.121560096740723 2.7748565673828125 C7.9987640380859375 2.7748565673828125 8.248734474182129 5.448057174682617 7.365990161895752 6.559500217437744 C7.074926853179932 6.925971984863281 6.536370277404785 6.992868423461914 6.121560096740723 7.20955228805542 L6.121560096740723 7.20955228805542"></path>
<path fill="none" stroke="black" stroke-width=".3" stroke-opacity="1.0"  filling="0" d="M17.87843894958496 7.20955228805542 L17.87843894958496 7.20955228805542 C17.463565826416016 6.992868423461914 16.92494010925293 6.925998210906982 16.633819580078125 6.559500217437744 C15.750847816467285 5.447906970977783 16.001190185546875 2.7748565673828125 17.87843894958496 2.7748565673828125 C19.755678176879883 2.7748565673828125 20.00641632080078 5.447793960571289 19.123247146606445 6.559500217437744 C18.832069396972656 6.926024436950684 18.29337501525879 6.992868423461914 17.87843894958496 7.20955228805542 L17.87843894958496 7.20955228805542"></path>
<path fill="none" stroke="black" stroke-width=".3" stroke-opacity="1.0"  filling="0" d="M13.992599487304688 9.122879981994629 L13.992599487304688 9.122879981994629 C13.676406860351562 9.651872634887695 13.760356903076172 10.337098121643066 13.72607135772705 10.952431678771973 C13.59975528717041 13.219457626342773 13.503820419311523 15.488337516784668 13.405824661254883 17.756717681884766 C13.371650695800781 18.54777717590332 13.800203323364258 21.28437614440918 12.293975830078125 20.39202880859375 L12.293975830078125 20.39202880859375 C12.300618171691895 20.350439071655273 12.307719230651855 20.30878257751465 12.310392379760742 20.26675033569336 L12.294840812683105 14.712311744689941 C12.155086517333984 14.573068618774414 11.842040061950684 14.574299812316895 11.70300006866455 14.714256286621094 L11.718551635742188 20.249038696289062 C10.377552032470703 21.71698570251465 10.570967674255371 18.07949447631836 10.550071716308594 17.6661434173584 C10.436627388000488 15.422073364257812 10.32238483428955 13.178021430969238 10.215632438659668 10.933621406555176 C10.18838882446289 10.360847473144531 10.545010566711426 9.33541202545166 9.981480598449707 9.229368209838867 C9.586810111999512 9.155099868774414 9.17896842956543 9.26248836517334 8.77771282196045 9.279047966003418 L8.77771282196045 9.279047966003418 C8.561928749084473 8.900328636169434 8.34614372253418 8.521608352661133 8.130359649658203 8.142889022827148 L8.130359649658203 8.142889022827148 C9.447111129760742 7.927761554718018 10.68939208984375 7.850139617919922 11.93144702911377 7.881714820861816 C13.173501968383789 7.913290977478027 14.415332794189453 8.05406379699707 15.731184005737305 8.275728225708008 L15.731184005737305 8.275728225708008 C15.563495635986328 8.602248191833496 15.395808219909668 8.928768157958984 15.228119850158691 9.255288124084473 L15.228119850158691 9.255288124084473 C14.816279411315918 9.211152076721191 14.404439926147461 9.16701602935791 13.992599487304688 9.122879981994629 L13.992599487304688 9.122879981994629"></path>
<path fill="none" stroke="black" stroke-width=".3" stroke-opacity="1.0"  filling="0" d="M21.261646270751953 11.519183158874512 L21.261646270751953 11.519183158874512 C21.18943214416504 12.664275169372559 21.308547973632812 14.488978385925293 20.13844871520996 15.1641845703125 L19.891128540039062 20.179271697998047 C19.520111083984375 20.647920608520508 19.318525314331055 21.32986831665039 18.778078079223633 21.585216522216797 C18.44774055480957 21.74129295349121 18.097103118896484 21.32025718688965 17.756616592407227 21.187776565551758 L17.756616592407227 21.187776565551758 C15.117093086242676 21.820051193237305 16.131532669067383 16.401540756225586 16.15907859802246 15.049705505371094 L16.15907859802246 15.049705505371094 C14.405799865722656 14.23001766204834 14.995867729187012 11.511018753051758 15.101112365722656 9.83503246307373 L15.101112365722656 9.83503246307373 C14.866259574890137 9.77280044555664 14.631808280944824 9.709060668945312 14.397168159484863 9.646032333374023 L14.397168159484863 9.646032333374023 C14.31385612487793 11.048038482666016 14.240743637084961 12.45048713684082 14.173369407653809 13.853226661682129 C14.105995178222656 15.255966186523438 14.04435920715332 16.65899658203125 13.983999252319336 18.06216049194336 C13.925627708435059 19.419116973876953 14.13112735748291 21.91062355041504 12.018575668334961 21.000288009643555 L12.018575668334961 21.000288009643555 C10.820135116577148 21.527997970581055 10.11545181274414 20.768848419189453 10.045632362365723 19.39682960510254 C9.96362018585205 17.785205841064453 9.88162612915039 16.173574447631836 9.801353454589844 14.561859130859375 C9.721081733703613 12.95014476776123 9.642531394958496 11.338345527648926 9.567407608032227 9.726383209228516 L9.567407608032227 9.726383209228516 C9.345503807067871 9.770951271057129 9.123600006103516 9.815520286560059 8.90169620513916 9.860088348388672 L8.90169620513916 9.860088348388672 C9.002981185913086 11.534099578857422 9.58875846862793 14.231483459472656 7.839624404907227 15.049487113952637 L7.839624404907227 15.049487113952637 C7.867170333862305 16.401369094848633 8.881633758544922 21.819732666015625 6.242519855499268 21.18756103515625 L6.242519855499268 21.18756103515625 C4.922194004058838 21.701282501220703 4.482882976531982 21.562612533569336 4.107360363006592 20.171279907226562 L3.860689163208008 15.163968086242676 C2.91776180267334 14.618896484375 2.585103988647461 13.199064254760742 2.6638760566711426 11.753180503845215 C2.742647886276245 10.307296752929688 3.232849597930908 8.835362434387207 3.935640335083008 8.186087608337402 C4.992652416229248 7.209564685821533 6.082236289978027 7.610373020172119 7.316688537597656 7.726008415222168 L7.316688537597656 7.726008415222168 C8.869693756103516 7.356447219848633 10.360393524169922 7.230025291442871 11.851761817932129 7.273244380950928 C13.343130111694336 7.316463470458984 14.83516788482666 7.529323577880859 16.390850067138672 7.838327884674072 L16.390850067138672 7.838327884674072 C17.061708450317383 7.7365288734436035 17.727909088134766 7.468977928161621 18.403427124023438 7.532930850982666 C20.700183868408203 7.750370502471924 20.91642189025879 9.71361255645752 21.261646270751953 11.519183158874512 L21.261646270751953 11.519183158874512"></path>
<path fill="none" stroke="black" stroke-width=".3" stroke-opacity="1.0"  filling="0" d="M8.180904388427734 14.288951873779297 L8.180904388427734 14.288951873779297 C8.06318473815918 14.345399856567383 7.945464134216309 14.401847839355469 7.827744007110596 14.458295822143555 L7.827744007110596 14.458295822143555 C7.811349391937256 13.699031829833984 7.795131206512451 12.939764022827148 7.778560161590576 12.180503845214844 C7.766022205352783 11.606036186218262 7.753194332122803 11.031574249267578 7.740416526794434 10.457112312316895 C7.738988399505615 10.392897605895996 7.884476661682129 9.450453758239746 7.422312259674072 9.460919380187988 C6.960957050323486 9.471366882324219 7.1474151611328125 10.397212982177734 7.148926734924316 10.46504020690918 C7.161637306213379 11.035468101501465 7.1743998527526855 11.605894088745117 7.186856746673584 12.1763277053833 C7.235076427459717 14.384390830993652 7.2855305671691895 16.59250259399414 7.321837902069092 18.800804138183594 C7.335807800292969 19.650497436523438 7.607407569885254 20.77535057067871 6.484440326690674 20.648639678955078 L6.484440326690674 20.648639678955078 C6.489480495452881 20.62286376953125 6.49452018737793 20.597087860107422 6.499560356140137 20.571311950683594 L6.503015995025635 20.548633575439453 C6.527899265289307 18.875 6.715086936950684 17.039386749267578 6.507120132446289 15.383424758911133 C6.457310676574707 14.986811637878418 5.962038516998291 14.994452476501465 5.915928363800049 15.386664390563965 C5.833042144775391 16.091690063476562 5.922547340393066 16.806411743164062 5.924568176269531 17.51628875732422 C5.927353382110596 18.494739532470703 5.927680969238281 19.47322654724121 5.919816493988037 20.451648712158203 L5.914632320404053 20.484264373779297 C5.899376392364502 20.57633399963379 5.863746643066406 20.664024353027344 5.831688404083252 20.751670837402344 L5.831688404083252 20.751670837402344 C5.434036731719971 20.909156799316406 4.923568248748779 20.513704299926758 4.698336124420166 20.15011215209961 L4.4503679275512695 15.119904518127441 C5.544194221496582 14.173530578613281 4.465732574462891 12.087201118469238 4.806498050689697 10.782219886779785 C4.932930946350098 10.2980375289917 5.466656684875488 9.470273971557617 4.998575687408447 9.293304443359375 C4.5748748779296875 9.1331148147583 4.394567012786865 10.010724067687988 4.286235809326172 10.45055103302002 C3.9402782917022705 11.855142593383789 4.262465476989746 12.232812881469727 4.299411296844482 13.608389854431152 C4.3083577156066895 13.941479682922363 4.079184055328369 14.831493377685547 3.9259204864501953 14.535623550415039 C3.143418312072754 13.025032043457031 2.8480796813964844 9.870294570922852 4.354032516479492 8.605128288269043 C4.748897552490234 8.273398399353027 5.303800582885742 8.1217679977417 5.81934928894043 8.108625411987305 C7.537458419799805 8.064825057983398 8.19347858428955 9.047534942626953 8.387155532836914 10.322380065917969 C8.580833435058594 11.597225189208984 8.312167167663574 13.164207458496094 8.180904388427734 14.288951873779297 L8.180904388427734 14.288951873779297"></path>
<path fill="none" stroke="black" stroke-width=".3" stroke-opacity="1.0"  filling="0" d="M19.301015853881836 20.156593322753906 L19.301015853881836 20.156593322753906 C19.075115203857422 20.518465042114258 18.56414031982422 20.908464431762695 18.16766357421875 20.75102424621582 L18.16766357421875 20.75102424621582 C18.144264221191406 20.687015533447266 18.12086296081543 20.623008728027344 18.097463607788086 20.55900001525879 L18.097463607788086 20.55900001525879 C18.093358993530273 20.534088134765625 18.089256286621094 20.50917625427246 18.08515167236328 20.484264373779297 L18.081911087036133 20.465473175048828 C18.072582244873047 19.482410430908203 18.072465896606445 18.4992618560791 18.07520866394043 17.516159057617188 C18.07718849182129 16.806251525878906 18.166894912719727 16.091510772705078 18.08407211303711 15.38644790649414 C18.037822723388672 14.992729187011719 17.542539596557617 14.988028526306152 17.492877960205078 15.383424758911133 C17.284900665283203 17.03933334350586 17.471609115600586 18.874874114990234 17.49698257446289 20.548412322998047 L17.500656127929688 20.571094512939453 C17.505624771118164 20.596799850463867 17.510591506958008 20.62250328063965 17.515560150146484 20.648208618164062 L17.515560150146484 20.648208618164062 C16.392349243164062 20.775348663330078 16.66397476196289 19.65052032470703 16.677961349487305 18.80060386657715 C16.714303970336914 16.592329025268555 16.76481056213379 14.384246826171875 16.813026428222656 12.176207542419434 C16.825483322143555 11.605768203735352 16.838247299194336 11.035334587097168 16.850934982299805 10.464900016784668 C16.8524227142334 10.397977828979492 17.038667678833008 9.471142768859863 16.577903747558594 9.460704803466797 C16.11549949645996 9.45022964477539 16.261016845703125 10.392085075378418 16.25957679748535 10.45678424835205 C16.246782302856445 11.031225204467773 16.233943939208984 11.605666160583496 16.221376419067383 12.1801118850708 C16.20476531982422 12.939287185668945 16.188486099243164 13.698469161987305 16.172040939331055 14.457647323608398 L16.172040939331055 14.457647323608398 C15.256967544555664 14.019155502319336 15.61397647857666 12.694205284118652 15.637223243713379 11.816400527954102 C15.689618110656738 9.83795166015625 15.5680513381958 8.040840148925781 18.18059730529785 8.107275009155273 C18.696170806884766 8.12038516998291 19.2510986328125 8.272072792053223 19.64596939086914 8.603832244873047 C21.152494430541992 9.869572639465332 20.856964111328125 13.023707389831543 20.073863983154297 14.534760475158691 C19.920480728149414 14.83072566986084 19.691913604736328 13.940108299255371 19.70085906982422 13.606878280639648 C19.737810134887695 12.230328559875488 20.060094833374023 11.855085372924805 19.713899612426758 10.449525833129883 C19.60558319091797 10.009757041931152 19.42528533935547 9.132272720336914 19.00164031982422 9.292440414428711 C18.53359031677246 9.469396591186523 19.06713104248047 10.297123908996582 19.19355583190918 10.78127384185791 C19.534265518188477 12.086040496826172 18.45532989501953 14.1729736328125 19.54898452758789 15.119040489196777 L19.301015853881836 20.156593322753906"></path></svg>