<svg xmlns="http://www.w3.org/2000/svg" viewBox="0.0 0.0 24.0 24.0" height="200px" width="200px"><path fill="none" stroke="black" stroke-width=".3" stroke-opacity="1.0"  filling="0" d="M7.9778571128845215 11.418856620788574 L7.9778571128845215 11.418856620788574 C7.757571220397949 11.266999244689941 7.537285804748535 11.115142822265625 7.316999912261963 10.963285446166992 L7.316999912261963 9.77314281463623 L7.9778571128845215 9.77314281463623 L7.9778571128845215 11.418856620788574"></path>
<path fill="none" stroke="black" stroke-width=".3" stroke-opacity="1.0"  filling="0" d="M22.427570343017578 12.912857055664062 L22.791854858398438 13.97014331817627 C22.45697593688965 14.452808380126953 21.742464065551758 14.636453628540039 21.155141830444336 14.623713493347168 L21.155141830444336 14.623713493347168 C20.504732131958008 14.16979694366455 19.777883529663086 13.560439109802246 18.98871421813965 13.639713287353516 L15.798428535461426 14.995713233947754 L15.798428535461426 17.838428497314453 C16.02546501159668 18.29250144958496 16.484134674072266 18.91086769104004 16.175569534301758 19.31399917602539 L17.964427947998047 20.28128433227539 L19.326858520507812 22.799999237060547 L13.284573554992676 22.799999237060547 L7.2422871589660645 22.799999237060547 L1.2000007629394531 22.799999237060547 L1.2000007629394531 15.89957046508789 L1.2000007629394531 8.99914264678955 L4.554429054260254 10.070143699645996 L5.59757137298584 10.959856986999512 L5.59757137298584 9.04414176940918 C5.709634304046631 8.662866592407227 5.945278644561768 8.296002388000488 6.259286403656006 8.05242919921875 L7.5814290046691895 7.655571460723877 L7.5814290046691895 4.580572128295898 C7.175143241882324 4.766000747680664 6.688894271850586 4.831955432891846 6.3625712394714355 5.136857509613037 C5.355160713195801 6.078139305114746 6.030760765075684 7.2601494789123535 4.518429279327393 8.013428688049316 C3.752223014831543 8.395069122314453 2.7958288192749023 8.205564498901367 2.079160690307617 7.840553283691406 C1.8329139947891235 7.71513557434082 0.6459636092185974 6.8560709953308105 1.4610004425048828 6.303857803344727 C2.2109341621398926 5.795754432678223 2.970547676086426 7.504767417907715 4.097143173217773 6.900428771972656 C4.533323764801025 6.666449069976807 5.292150020599365 4.515110492706299 5.49428653717041 4.321286201477051 C6.73911190032959 3.1276488304138184 8.458673477172852 3.1708877086639404 10.019143104553223 3.314572334289551 L10.019143104553223 3.314572334289551 C11.420656204223633 3.69856595993042 12.511266708374023 4.511300563812256 13.467763900756836 5.500580310821533 C14.424261093139648 6.489859580993652 15.246646881103516 7.655684471130371 16.111711502075195 8.745857238769531 L16.111711502075195 8.745857238769531 C16.959272384643555 9.114887237548828 17.831911087036133 9.65650749206543 18.29400062561035 10.45714282989502 L20.92371368408203 10.463571548461914 L22.163997650146484 9.869999885559082 L21.74228286743164 11.077285766601562 C22.135562896728516 11.598706245422363 22.427570343017578 12.259749412536621 22.427570343017578 12.912857055664062 L22.427570343017578 12.912857055664062"></path>
<path fill="none" stroke="black" stroke-width=".3" stroke-opacity="1.0"  filling="0" d="M13.665857315063477 17.95628547668457 L12.70714282989502 17.438570022583008 L10.987285614013672 14.152713775634766 L10.23557186126709 13.937141418457031 C10.392974853515625 13.374293327331543 10.493160247802734 12.726999282836914 10.276285171508789 12.184285163879395 L9.416142463684082 10.962857246398926 L10.755428314208984 10.482428550720215 C11.499444007873535 11.83987045288086 12.269620895385742 12.701428413391113 13.665428161621094 13.408713340759277 L13.665857315063477 17.95628547668457"></path></svg>