<svg xmlns="http://www.w3.org/2000/svg" viewBox="0.0 0.0 24.0 24.0" height="200px" width="200px"><path fill="none" stroke="black" stroke-width=".3" stroke-opacity="1.0"  filling="0" d="M4.961100101470947 6.94379997253418 L4.961100101470947 6.94379997253418 C4.779300212860107 6.713399887084961 4.400145530700684 6.545676231384277 4.4156999588012695 6.252600193023682 C4.52445650100708 4.203441143035889 6.435338497161865 4.772485733032227 5.268899917602539 5.997450351715088 L5.268899917602539 5.997450351715088 C5.455185413360596 6.172987937927246 6.100158214569092 6.756342887878418 6.090149879455566 6.914100170135498 C5.945092678070068 9.200536727905273 4.120876312255859 8.344643592834473 5.237400054931641 7.221449851989746 L5.237400054931641 7.221449851989746 C5.145299911499023 7.128900051116943 5.0532002449035645 7.036349773406982 4.961100101470947 6.94379997253418 L4.961100101470947 6.94379997253418"></path>
<path fill="none" stroke="black" stroke-width=".3" stroke-opacity="1.0"  filling="0" d="M9.927299499511719 8.492250442504883 L9.927299499511719 8.492250442504883 C10.317599296569824 8.161499977111816 10.68128776550293 7.796504020690918 11.098199844360352 7.5 C11.592333793640137 7.148576736450195 12.374415397644043 8.290861129760742 12.273150444030762 8.888700485229492 C11.827043533325195 11.522393226623535 10.074441909790039 9.135627746582031 9.927299499511719 8.492250442504883 L9.927299499511719 8.492250442504883"></path>
<path fill="none" stroke="black" stroke-width=".3" stroke-opacity="1.0"  filling="0" d="M5.700450420379639 9.75 L5.430449962615967 11.100000381469727 L4.818000316619873 11.100000381469727 L4.548000335693359 9.75 L5.700450420379639 9.75"></path>
<path fill="none" stroke="black" stroke-width=".3" stroke-opacity="1.0"  filling="0" d="M10.75214958190918 10.750349998474121 L10.75214958190918 10.750349998474121 C10.300199508666992 10.46714973449707 9.705395698547363 10.335399627685547 9.396300315856934 9.900749206542969 C8.333714485168457 8.406540870666504 9.642281532287598 6.3276190757751465 11.447850227355957 6.629700183868408 C14.193771362304688 7.089107513427734 13.356369018554688 10.970991134643555 10.75214958190918 10.750349998474121 L10.75214958190918 10.750349998474121"></path>
<path fill="none" stroke="black" stroke-width=".3" stroke-opacity="1.0"  filling="0" d="M17.849998474121094 12.899995803833008 L17.849998474121094 12.899995803833008 C18.67148780822754 10.912948608398438 18.671714782714844 14.887007713317871 17.849998474121094 12.900053977966309 L17.849998474121094 12.900053977966309"></path>
<path fill="none" stroke="black" stroke-width=".3" stroke-opacity="1.0"  filling="0" d="M9.285600662231445 13.800000190734863 L9.285600662231445 13.800000190734863 C9.097431182861328 13.636323928833008 8.831775665283203 13.427433967590332 8.596200942993164 13.509300231933594 L7.624650478363037 14.188350677490234 C7.498835563659668 14.20120620727539 7.3560943603515625 14.256086349487305 7.24530029296875 14.195099830627441 L4.953000068664551 12.698400497436523 C4.915788173675537 12.520400047302246 4.690406799316406 11.78359603881836 5.322450160980225 12.134099960327148 L7.4217000007629395 13.50570011138916 L9.374700546264648 12.120599746704102 C9.499800682067871 12.080399513244629 9.624899864196777 12.040200233459473 9.75 12.0 L12.769949913024902 12.0 C12.836474418640137 12.073078155517578 12.924277305603027 12.134079933166504 12.96299934387207 12.225000381469727 L13.79010009765625 15.63330078125 C13.622262001037598 16.042564392089844 13.618500709533691 16.106550216674805 13.246500015258789 15.971699714660645 L10.546500205993652 13.721699714660645 C10.481144905090332 13.308796882629395 10.44898796081543 13.010499954223633 10.978499412536621 13.202850341796875 L12.089550018310547 14.128950119018555 C12.900437355041504 14.500603675842285 12.730222702026367 13.74490737915039 12.535500526428223 13.362600326538086 L11.357399940490723 12.38070011138916 C9.73283576965332 11.95486831665039 9.311760902404785 13.157814979553223 9.970949172973633 14.4128999710083 L12.474300384521484 16.5 L9.300000190734863 16.5 L9.285600662231445 13.800000190734863"></path>
<path fill="none" stroke="black" stroke-width=".3" stroke-opacity="1.0"  filling="0" d="M17.174999237060547 13.800000190734863 L17.174999237060547 13.800000190734863 C18.127941131591797 12.149457931518555 18.127941131591797 15.450542449951172 17.174999237060547 13.800000190734863 L17.174999237060547 13.800000190734863"></path>
<path fill="none" stroke="black" stroke-width=".3" stroke-opacity="1.0"  filling="0" d="M18.52499771118164 13.799996376037598 L18.52499771118164 13.799996376037598 C19.346487045288086 11.812949180603027 19.34671401977539 15.787007331848145 18.52499771118164 13.800054550170898 L18.52499771118164 13.800054550170898"></path>
<path fill="none" stroke="black" stroke-width=".3" stroke-opacity="1.0"  filling="0" d="M19.200000762939453 14.699996948242188 L19.200000762939453 14.699996948242188 C20.020641326904297 12.709354400634766 20.020639419555664 16.690643310546875 19.200000762939453 14.700002670288086 L19.200000762939453 14.700002670288086"></path>
<path fill="none" stroke="black" stroke-width=".3" stroke-opacity="1.0"  filling="0" d="M16.5 14.699995994567871 L16.5 14.699995994567871 C17.321489334106445 12.7129487991333 17.32171630859375 16.687007904052734 16.5 14.700054168701172 L16.5 14.700054168701172"></path>
<path fill="none" stroke="black" stroke-width=".3" stroke-opacity="1.0"  filling="0" d="M17.849998474121094 14.699995994567871 L17.849998474121094 14.699995994567871 C18.67148780822754 12.7129487991333 18.671714782714844 16.687007904052734 17.849998474121094 14.700054168701172 L17.849998474121094 14.700054168701172"></path>
<path fill="none" stroke="black" stroke-width=".3" stroke-opacity="1.0"  filling="0" d="M15.62385082244873 15.777750015258789 L15.62385082244873 15.777750015258789 C15.529048919677734 15.492920875549316 15.741791725158691 15.067115783691406 16.026599884033203 14.972249984741211 L16.831649780273438 15.375 L19.543800354003906 15.375 L20.348400115966797 14.972700119018555 C20.633081436157227 15.067522048950195 20.845972061157227 15.493069648742676 20.751148223876953 15.777750015258789 L19.85114860534668 16.227750778198242 C19.784099578857422 16.243499755859375 19.71704864501953 16.25925064086914 19.649999618530273 16.274999618530273 L16.725000381469727 16.274999618530273 C16.657949447631836 16.25925064086914 16.590900421142578 16.243499755859375 16.523849487304688 16.227750778198242 L15.62385082244873 15.777750015258789"></path>
<path fill="none" stroke="black" stroke-width=".3" stroke-opacity="1.0"  filling="0" d="M3.4499998092651367 16.049999237060547 L6.150000095367432 16.049999237060547 L6.150000095367432 16.5 L3.4499998092651367 16.5 L3.4499998092651367 16.049999237060547"></path>
<path fill="none" stroke="black" stroke-width=".3" stroke-opacity="1.0"  filling="0" d="M2.5500001907348633 20.549999237060547 L2.5500001907348633 20.549999237060547 C2.4000003337860107 20.399999618530273 2.250000238418579 20.249998092651367 2.1000003814697266 20.099998474121094 L2.1000003814697266 17.850000381469727 C2.250000238418579 17.700000762939453 2.4000003337860107 17.549999237060547 2.5500001907348633 17.399999618530273 L8.850000381469727 17.400001525878906 L15.150001525878906 17.400001525878906 L21.450000762939453 17.399999618530273 C21.600000381469727 17.549999237060547 21.75 17.700000762939453 21.899999618530273 17.850000381469727 L21.899999618530273 20.099998474121094 C21.75 20.249998092651367 21.600000381469727 20.399999618530273 21.450000762939453 20.549999237060547 L15.150001525878906 20.549999237060547 L8.850000381469727 20.549999237060547 L2.5500001907348633 20.549999237060547"></path>
<path fill="none" stroke="black" stroke-width=".3" stroke-opacity="1.0"  filling="0" d="M17.850000381469727 21.450000762939453 L17.850000381469727 21.450000762939453 C17.637868881225586 21.662132263183594 17.162132263183594 21.662132263183594 16.950000762939453 21.450000762939453 L11.550000190734863 21.450000762939453 L6.150000095367432 21.450000762939453 C5.937867641448975 21.662132263183594 5.462132453918457 21.662132263183594 5.25 21.450000762939453 L2.5500001907348633 21.450000762939453 C1.9621953964233398 21.20610237121582 1.443897008895874 20.687803268432617 1.2000007629394531 20.099998474121094 L1.2000007629394531 17.850000381469727 C1.4438968896865845 17.262195587158203 1.9621953964233398 16.743896484375 2.5500001907348633 16.5 L2.5500001907348633 15.600000381469727 C2.700000047683716 15.449999809265137 2.8500001430511475 15.300000190734863 3.0 15.149999618530273 L6.600000381469727 15.149999618530273 C6.750000476837158 15.300000190734863 6.900000095367432 15.449999809265137 7.050000190734863 15.600000381469727 L7.050000190734863 16.5 L8.399999618530273 16.5 L8.399999618530273 14.741849899291992 L8.146200180053711 14.921850204467773 C7.684292793273926 14.969291687011719 7.161128520965576 15.171127319335938 6.7534499168396 14.94884967803955 L4.462050437927246 13.452149391174316 C4.141833305358887 12.983414649963379 3.9803593158721924 12.353769302368164 4.074150562286377 11.793899536132812 L4.074150562286377 11.793899536132812 C4.052250385284424 11.741999626159668 4.030350685119629 11.690099716186523 4.008450508117676 11.638199806213379 L3.558450698852539 9.388199806213379 C3.614574909210205 9.163159370422363 3.7898266315460205 8.94925308227539 3.99945068359375 8.850000381469727 L6.249450206756592 8.850000381469727 C6.459074020385742 8.94925308227539 6.634325981140137 9.163159370422363 6.690450191497803 9.388199806213379 L6.240450382232666 11.638199806213379 C6.2383503913879395 11.643449783325195 6.236250400543213 11.648700714111328 6.234150409698486 11.653950691223145 L7.401450157165527 12.41624927520752 L8.852700233459473 11.387100219726562 C9.136387825012207 11.252412796020508 9.4434232711792 11.168044090270996 9.75 11.100000381469727 L12.449999809265137 11.100000381469727 C13.032291412353516 11.319648742675781 13.64928913116455 11.70374584197998 13.903499603271484 12.27180004119873 L14.664899826049805 15.421799659729004 C14.582099914550781 15.78119945526123 14.499300003051758 16.140600204467773 14.416500091552734 16.5 L21.450000762939453 16.5 C22.037805557250977 16.743896484375 22.556102752685547 17.262195587158203 22.799999237060547 17.850000381469727 L22.799999237060547 20.099998474121094 C22.556102752685547 20.687803268432617 22.037805557250977 21.20610237121582 21.450000762939453 21.450000762939453 L17.850000381469727 21.450000762939453"></path>
<path fill="none" stroke="black" stroke-width=".3" stroke-opacity="1.0"  filling="0" d="M1.6500005722045898 21.899999618530273 L8.550000190734863 21.900001525878906 L15.449999809265137 21.900001525878906 L22.349998474121094 21.899999618530273 C22.562129974365234 22.112131118774414 22.562129974365234 22.587867736816406 22.349998474121094 22.799999237060547 L15.449999809265137 22.799999237060547 L8.550000190734863 22.799999237060547 L1.6500005722045898 22.799999237060547 C1.4378688335418701 22.587867736816406 1.4378684759140015 22.112131118774414 1.6500005722045898 21.899999618530273 L1.6500005722045898 21.899999618530273"></path></svg>