<svg xmlns="http://www.w3.org/2000/svg" viewBox="0.0 0.0 24.0 24.0" height="200px" width="200px"><path fill="none" stroke="black" stroke-width=".3" stroke-opacity="1.0"  filling="0" d="M3.1055526733398438 6.73413610458374 L3.1055526733398438 6.73413610458374 C1.6594738960266113 6.224447250366211 3.402298927307129 4.79114294052124 3.8557703495025635 4.373800277709961 C5.168468952178955 3.1656863689422607 6.749593734741211 2.2551774978637695 8.455183982849121 1.731184720993042 C10.440858840942383 1.1211442947387695 13.134214401245117 1.070035696029663 15.60107707977295 1.6930303573608398 C18.06793975830078 2.3160250186920166 20.308307647705078 3.6131231784820557 21.38800811767578 5.699496269226074 C21.867956161499023 6.626931190490723 20.985401153564453 6.887888431549072 20.400455474853516 6.498264312744141 C19.24312973022461 5.727385520935059 18.374019622802734 4.898612976074219 17.420246124267578 4.195101261138916 C16.466472625732422 3.491589307785034 15.42803955078125 2.9133384227752686 13.932068824768066 2.6435039043426514 C12.662397384643555 2.414487838745117 11.361469268798828 2.417454719543457 10.100518226623535 2.642594337463379 C8.839567184448242 2.8677337169647217 7.618593215942383 3.3150455951690674 6.508829593658447 3.974719285964966 C5.215405464172363 4.743565559387207 4.413001537322998 6.109827995300293 3.1055526733398438 6.73413610458374 L3.1055526733398438 6.73413610458374"></path>
<path fill="none" stroke="black" stroke-width=".3" stroke-opacity="1.0"  filling="0" d="M12.0 8.823287963867188 L12.0 8.823287963867188 C14.824711799621582 9.177656173706055 16.09208869934082 11.106597900390625 16.663955688476562 13.491667747497559 C17.235820770263672 15.876737594604492 17.11217498779297 18.717937469482422 17.15484046936035 20.89682388305664 L17.15484046936035 21.277847290039062 C15.359506607055664 22.21366310119629 13.679845809936523 22.681640625 12.000192642211914 22.68167495727539 C10.320539474487305 22.68170928955078 8.640894889831543 22.21380043029785 6.845592021942139 21.277847290039062 L6.845592021942139 20.89682388305664 C6.888242721557617 18.718027114868164 6.764519214630127 15.876825332641602 7.336296081542969 13.491732597351074 C7.9080729484558105 11.10663890838623 9.175350189208984 9.177653312683105 12.0 8.823287963867188 L12.0 8.823287963867188"></path>
<path fill="none" stroke="black" stroke-width=".3" stroke-opacity="1.0"  filling="0" d="M3.1062002182006836 13.905550956726074 L3.1062002182006836 13.905550956726074 C2.17726731300354 12.977567672729492 2.3408758640289307 11.511091232299805 2.9247512817382812 10.08858871459961 C3.508626937866211 8.666086196899414 4.5127692222595215 7.287557601928711 5.264904022216797 6.535470485687256 C6.831118106842041 4.969354629516602 8.789933204650879 4.102890968322754 10.801281929016113 3.870661735534668 C12.812630653381348 3.638432741165161 14.87651252746582 4.040438652038574 16.65285873413086 5.011261940002441 C18.42920684814453 5.98208475112915 19.918018341064453 7.521725654602051 20.77923011779785 9.564765930175781 C21.12431526184082 10.38340950012207 21.686372756958008 12.360816955566406 21.52927017211914 13.27008056640625 C21.335681915283203 14.390512466430664 20.452783584594727 13.843087196350098 20.259191513061523 13.27008056640625 C19.861759185791016 12.093735694885254 19.963504791259766 10.756818771362305 19.41838264465332 9.641209602355957 C18.345104217529297 7.4447126388549805 16.276294708251953 5.782462120056152 13.89173698425293 5.230013370513916 C12.036806106567383 4.800267219543457 10.128205299377441 5.046020030975342 8.473966598510742 5.827752113342285 C6.819728851318359 6.609484672546387 5.419854164123535 7.927196025848389 4.582376480102539 9.641366958618164 C3.8543202877044678 11.131571769714355 4.255204677581787 12.757328987121582 3.1062002182006836 13.905550956726074 L3.1062002182006836 13.905550956726074"></path>
<path fill="none" stroke="black" stroke-width=".3" stroke-opacity="1.0"  filling="0" d="M11.987903594970703 16.43988037109375 L11.987903594970703 16.43988037109375 C9.401859283447266 15.555484771728516 8.620980262756348 14.578182220458984 8.730624198913574 11.796311378479004 L8.730624198913574 11.796311378479004 C10.471695899963379 9.831033706665039 13.52127456665039 9.859088897705078 15.272183418273926 11.796311378479004 L15.272183418273926 11.796311378479004 C15.36490249633789 14.58018684387207 14.575166702270508 15.556558609008789 11.987903594970703 16.43988037109375 L11.987903594970703 16.43988037109375"></path></svg>