<svg xmlns="http://www.w3.org/2000/svg" viewBox="0.0 0.0 24.0 24.0" height="200px" width="200px"><path fill="none" stroke="black" stroke-width=".3" stroke-opacity="1.0"  filling="0" d="M6.451824188232422 6.00167989730835 L6.451824188232422 6.00167989730835 C6.7678680419921875 4.112900733947754 7.191432476043701 3.3206262588500977 8.587416648864746 2.0100011825561523 L7.092048168182373 1.6931285858154297 L7.717584133148193 1.2000007629394531 L9.627023696899414 1.6045684814453125 L9.573671340942383 3.5563440322875977 L8.94705581665039 4.049472808837891 L8.991120338439941 2.4646806716918945 C7.720288276672363 3.6178903579711914 7.3403849601745605 4.309943675994873 7.051440238952637 6.00167989730835 L6.451824188232422 6.00167989730835"></path>
<path fill="none" stroke="black" stroke-width=".3" stroke-opacity="1.0"  filling="0" d="M5.207448959350586 11.303832054138184 L5.207448959350586 11.303832054138184 C5.7241926193237305 11.072352409362793 6.191458225250244 10.609392166137695 6.7576799392700195 10.609392166137695 C7.320093631744385 10.609392166137695 7.782816410064697 11.072352409362793 8.295384407043457 11.303832054138184 L8.295384407043457 11.303832054138184 C8.069169998168945 13.98954963684082 5.448127746582031 13.979792594909668 5.207448959350586 11.303832054138184 L5.207448959350586 11.303832054138184"></path>
<path fill="none" stroke="black" stroke-width=".3" stroke-opacity="1.0"  filling="0" d="M15.703968048095703 11.303832054138184 L15.703968048095703 11.303832054138184 C16.220928192138672 11.072352409362793 16.68842887878418 10.609392166137695 17.25484848022461 10.609392166137695 C17.81706428527832 10.609392166137695 18.279552459716797 11.072352409362793 18.79190444946289 11.303832054138184 L18.79190444946289 11.303832054138184 C18.566259384155273 13.989898681640625 15.945013999938965 13.979477882385254 15.703968048095703 11.303832054138184 L15.703968048095703 11.303832054138184"></path>
<path fill="none" stroke="black" stroke-width=".3" stroke-opacity="1.0"  filling="0" d="M2.253000259399414 12.0 L2.253000259399414 12.0 C2.6255109310150146 10.15998649597168 3.082224130630493 8.652236938476562 5.002514839172363 7.855604648590088 C6.462591648101807 7.249892234802246 8.024582862854004 7.491273403167725 9.221555709838867 8.281441688537598 C10.418527603149414 9.071609497070312 11.250480651855469 10.410564422607422 11.250479698181152 12.0 C11.250478744506836 13.589422225952148 10.418547630310059 14.928457260131836 9.221586227416992 15.7186918258667 C8.024624824523926 16.508926391601562 6.4626336097717285 16.75035858154297 5.002514839172363 16.14457893371582 C3.082225799560547 15.347881317138672 2.6255080699920654 13.840034484863281 2.253000259399414 12.0 L2.253000259399414 12.0"></path>
<path fill="none" stroke="black" stroke-width=".3" stroke-opacity="1.0"  filling="0" d="M2.8526172637939453 12.0 L2.8526172637939453 12.0 C3.1754908561706543 10.405336380004883 3.5714364051818848 9.098576545715332 5.235626220703125 8.408095359802246 C6.472583770751953 7.8948750495910645 7.846246719360352 8.09969425201416 8.900716781616211 8.779397010803223 C9.95518684387207 9.459100723266602 10.69046401977539 10.613686561584473 10.65064811706543 12.0 C10.602560043334961 13.674332618713379 10.154354095458984 13.83622932434082 9.179903984069824 15.044736862182617 L9.179903984069824 15.044736862182617 C9.103261947631836 13.849784851074219 9.147960662841797 12.284842491149902 8.619330406188965 11.124417304992676 C7.880373954772949 9.502294540405273 5.623084545135498 9.50252914428711 4.884096145629883 11.124418258666992 C4.355184078216553 12.28524398803711 4.399905681610107 13.849120140075684 4.323144435882568 15.044736862182617 L4.323144435882568 15.044736862182617 C3.6158223152160645 14.167232513427734 3.108323335647583 13.097694396972656 2.8526172637939453 12.0 L2.8526172637939453 12.0"></path>
<path fill="none" stroke="black" stroke-width=".3" stroke-opacity="1.0"  filling="0" d="M12.750167846679688 12.0 L12.750167846679688 12.0 C13.12254810333252 10.16012191772461 13.579052925109863 8.652223587036133 15.499227523803711 7.855604648590088 C16.959293365478516 7.249870300292969 18.521236419677734 7.491277694702148 19.718162536621094 8.281464576721191 C20.915088653564453 9.071651458740234 21.746999740600586 10.410616874694824 21.746999740600586 12.0 C21.746999740600586 13.589335441589355 20.91512680053711 14.928386688232422 19.718229293823242 15.718649864196777 C18.521333694458008 16.508914947509766 16.959413528442383 16.750391006469727 15.49931812286377 16.14457893371582 C13.579145431518555 15.347875595092773 13.12258243560791 13.839921951293945 12.750167846679688 12.0 L12.750167846679688 12.0"></path>
<path fill="none" stroke="black" stroke-width=".3" stroke-opacity="1.0"  filling="0" d="M13.349783897399902 12.0 L13.349783897399902 12.0 C13.672563552856445 10.405452728271484 14.068357467651367 9.09858226776123 15.732429504394531 8.408095359802246 C16.969470977783203 7.894800186157227 18.343093872070312 8.09962272644043 19.39751625061035 8.779346466064453 C20.451936721801758 9.45906925201416 21.18715476989746 10.613693237304688 21.147382736206055 12.0 C21.09935188293457 13.674193382263184 20.65138816833496 13.836114883422852 19.677288055419922 15.044736862182617 L19.677288055419922 15.044736862182617 C19.6004581451416 13.849827766418457 19.64485740661621 12.284777641296387 19.116174697875977 11.124417304992676 C18.377212524414062 9.502531051635742 16.12013053894043 9.502301216125488 15.38134479522705 11.124418258666992 C14.852814674377441 12.28488826751709 14.897293090820312 13.849737167358398 14.820528030395508 15.044736862182617 L14.820528030395508 15.044736862182617 C14.113110542297363 14.167268753051758 13.605513572692871 13.097721099853516 13.349783897399902 12.0 L13.349783897399902 12.0"></path>
<path fill="none" stroke="black" stroke-width=".3" stroke-opacity="1.0"  filling="0" d="M14.379024505615234 22.395000457763672 L14.432159423828125 20.443870544433594 L15.058128356933594 19.95074462890625 L15.014711380004883 21.535968780517578 C16.285078048706055 20.382469177246094 16.665061950683594 19.690135955810547 16.95395851135254 17.998537063598633 L17.554224014282227 17.998537063598633 C17.238218307495117 19.88742446899414 16.814563751220703 20.67938995361328 15.418415069580078 21.98999786376953 L16.914432525634766 22.307086944580078 L16.288463592529297 22.799999237060547 L14.379024505615234 22.395000457763672"></path></svg>