<svg xmlns="http://www.w3.org/2000/svg" viewBox="0.0 0.0 24.0 24.0" height="200px" width="200px"><path fill="none" stroke="black" stroke-width=".3" stroke-opacity="1.0"  filling="0" d="M15.412907600402832 2.0100011825561523 L15.412907600402832 2.0100011825561523 C16.80901336669922 3.3206467628479004 17.232257843017578 4.112776756286621 17.54806900024414 6.00167989730835 L16.94823455810547 6.00167989730835 C16.659318923950195 4.309991359710693 16.279447555541992 3.617772102355957 15.008771896362305 2.4644651412963867 L15.052836418151855 4.049257278442383 L14.426436424255371 3.5561294555664062 L14.37308406829834 1.6050004959106445 L16.282306671142578 1.2000007629394531 L16.908275604248047 1.6931285858154297 L15.412907600402832 2.0100011825561523"></path>
<path fill="none" stroke="black" stroke-width=".3" stroke-opacity="1.0"  filling="0" d="M6.751524448394775 7.501368045806885 L6.751524448394775 7.501368045806885 C8.59133529663086 7.873745441436768 10.099244117736816 8.33033275604248 10.895858764648438 10.25042724609375 C11.501604080200195 11.710464477539062 11.260246276855469 13.272516250610352 10.470088958740234 14.469559669494629 C9.679931640625 15.66660213470459 8.340975761413574 16.498634338378906 6.751524448394775 16.498634338378906 C5.162055015563965 16.498634338378906 3.8230230808258057 15.66663932800293 3.032806158065796 14.469615936279297 C2.242589235305786 13.27259349822998 2.001187324523926 11.710541725158691 2.6069772243499756 10.250426292419434 C3.403634548187256 8.330268859863281 4.911653995513916 7.873730182647705 6.751524448394775 7.501368045806885 L6.751524448394775 7.501368045806885"></path>
<path fill="none" stroke="black" stroke-width=".3" stroke-opacity="1.0"  filling="0" d="M17.248476028442383 7.501368045806885 L17.248476028442383 7.501368045806885 C19.088266372680664 7.873753547668457 20.596263885498047 8.330405235290527 21.392963409423828 10.25042724609375 C21.998798370361328 11.710470199584961 21.75737762451172 13.27252197265625 20.96714973449707 14.469563484191895 C20.17691993713379 15.666604995727539 18.837881088256836 16.498634338378906 17.248476028442383 16.498634338378906 C15.659006118774414 16.498634338378906 14.319974899291992 15.66663932800293 13.529757499694824 14.469615936279297 C12.739541053771973 13.27259349822998 12.498139381408691 11.710541725158691 13.10392951965332 10.250426292419434 C13.90058708190918 8.330268859863281 15.40860652923584 7.873730182647705 17.248476028442383 7.501368045806885 L17.248476028442383 7.501368045806885"></path>
<path fill="none" stroke="black" stroke-width=".3" stroke-opacity="1.0"  filling="0" d="M6.745908260345459 13.496231079101562 L6.745908260345459 13.496231079101562 C6.034651279449463 12.95697021484375 5.282872676849365 12.193492889404297 5.20820426940918 11.304047584533691 L5.20820426940918 11.304047584533691 C5.7207722663879395 11.072495460510254 6.183465003967285 10.609392166137695 6.745908260345459 10.609392166137695 C7.312225341796875 10.609392166137695 7.779540061950684 11.072495460510254 8.296356201171875 11.304047584533691 L8.296356201171875 11.304047584533691 C8.215946197509766 12.195448875427246 7.460170269012451 12.956887245178223 6.745908260345459 13.496231079101562 L6.745908260345459 13.496231079101562"></path>
<path fill="none" stroke="black" stroke-width=".3" stroke-opacity="1.0"  filling="0" d="M17.242645263671875 13.496231079101562 L17.242645263671875 13.496231079101562 C16.531417846679688 12.956932067871094 15.779739379882812 12.193482398986816 15.704939842224121 11.304047584533691 L15.704939842224121 11.304047584533691 C16.21750831604004 11.072495460510254 16.68020248413086 10.609392166137695 17.242645263671875 10.609392166137695 C17.808961868286133 10.609392166137695 18.276275634765625 11.072495460510254 18.7930908203125 11.304047584533691 L18.7930908203125 11.304047584533691 C18.712745666503906 12.195454597473145 17.956920623779297 12.95690631866455 17.242645263671875 13.496231079101562 L17.242645263671875 13.496231079101562"></path>
<path fill="none" stroke="black" stroke-width=".3" stroke-opacity="1.0"  filling="0" d="M9.179580688476562 15.044519424438477 L9.179580688476562 15.044519424438477 C9.102831840515137 13.849249839782715 9.14742660522461 12.284661293029785 8.618736267089844 11.124011039733887 C7.879891872406006 9.502001762390137 5.622760772705078 9.501962661743164 4.883880615234375 11.124011993408203 C4.355215549468994 12.28458023071289 4.39991569519043 13.849385261535645 4.323251724243164 15.044519424438477 L4.323251724243164 15.044519424438477 C3.9662396907806396 14.601746559143066 3.4995949268341064 14.228362083435059 3.25221586227417 13.716200828552246 C1.8590654134750366 10.831893920898438 3.752654552459717 8.867976188659668 5.972500324249268 8.392515182495117 C8.19234561920166 7.917054176330566 10.738448143005371 8.930049896240234 10.650323867797852 11.999567985534668 C10.602242469787598 13.674317359924316 10.15427017211914 13.835838317871094 9.179580688476562 15.044519424438477 L9.179580688476562 15.044519424438477"></path>
<path fill="none" stroke="black" stroke-width=".3" stroke-opacity="1.0"  filling="0" d="M19.676532745361328 15.044519424438477 L19.676532745361328 15.044519424438477 C19.599782943725586 13.849233627319336 19.64438247680664 12.284672737121582 19.11568832397461 11.124011039733887 C18.37684440612793 9.50200080871582 16.119712829589844 9.501962661743164 15.38083267211914 11.124011993408203 C14.852168083190918 12.28458023071289 14.896867752075195 13.849386215209961 14.82020378112793 15.044519424438477 L14.82020378112793 15.044519424438477 C14.463165283203125 14.601746559143066 13.99647331237793 14.228377342224121 13.7490873336792 13.716200828552246 C12.355981826782227 10.831986427307129 14.249552726745605 8.868030548095703 16.46938705444336 8.39252758026123 C18.68922233581543 7.9170241355896 21.235321044921875 8.929973602294922 21.147274017333984 11.999567985534668 C21.099231719970703 13.674463272094727 20.651357650756836 13.835760116577148 19.676532745361328 15.044519424438477 L19.676532745361328 15.044519424438477"></path>
<path fill="none" stroke="black" stroke-width=".3" stroke-opacity="1.0"  filling="0" d="M9.567948341369629 20.44365692138672 L9.621084213256836 22.395000457763672 L7.711644172668457 22.799999237060547 L7.086108207702637 22.30730438232422 L8.581476211547852 21.98999786376953 C7.185399055480957 20.67939567565918 6.761991500854492 19.88738441467285 6.446100234985352 17.998537063598633 L7.045932769775391 17.998537063598633 C7.334930896759033 19.69002342224121 7.715188026428223 20.38243865966797 8.985396385192871 21.535968780517578 L8.941332817077637 19.95052719116211 L9.567948341369629 20.44365692138672"></path></svg>