<svg xmlns="http://www.w3.org/2000/svg" viewBox="0.0 0.0 24.0 24.0" height="200px" width="200px"><path fill="none" stroke="black" stroke-width=".3" stroke-opacity="1.0"  filling="0" d="M15.600288391113281 8.640336036682129 L15.600288391113281 8.640336036682129 C17.73674201965332 9.010686874389648 18.686721801757812 10.427043914794922 19.114381790161133 12.18287181854248 C19.54203987121582 13.938698768615723 19.44738006591797 16.03399658203125 19.494550704956055 17.762229919433594 L19.494550704956055 18.049943923950195 C18.138107299804688 18.756847381591797 16.86900520324707 19.110187530517578 15.599889755249023 19.110130310058594 C14.330774307250977 19.110074996948242 13.061647415161133 18.756622314453125 11.705159187316895 18.049943923950195 L11.705159187316895 17.762229919433594 C11.752304077148438 16.033443450927734 11.657571792602539 13.938092231750488 12.085310935974121 12.182377815246582 C12.513050079345703 10.42666244506836 13.46325969696045 9.01058292388916 15.600288391113281 8.640336036682129 L15.600288391113281 8.640336036682129"></path>
<path fill="none" stroke="black" stroke-width=".3" stroke-opacity="1.0"  filling="0" d="M8.880528450012207 12.480167388916016 L8.880528450012207 12.480167388916016 C7.4680867195129395 11.067731857299805 9.381327629089355 8.04206657409668 10.511733055114746 6.911661148071289 C11.890104293823242 5.533289909362793 13.782114028930664 4.9191107749938965 15.66978645324707 4.952822208404541 C17.55746078491211 4.986533164978027 19.4407958984375 5.6681342124938965 20.801822662353516 6.881323337554932 C22.16284942626953 8.094511985778809 23.001567840576172 9.839288711547852 22.799999237060547 11.999351501464844 C22.70696449279785 12.996335983276367 21.931894302368164 12.283711433410645 21.839231491088867 11.999351501464844 C21.633132934570312 11.366887092590332 21.72759246826172 10.66154670715332 21.52068328857422 10.02934741973877 C20.918842315673828 8.19045352935791 19.409141540527344 6.680656433105469 17.57024383544922 6.078782081604004 C15.96107292175293 5.552098274230957 14.25336742401123 5.729745864868164 12.815386772155762 6.444117069244385 C11.377406120300293 7.1584882736206055 10.209150314331055 8.409582138061523 9.678878784179688 10.029789924621582 C9.411670684814453 10.84622573852539 9.487833023071289 11.872590065002441 8.880528450012207 12.480167388916016 L8.880528450012207 12.480167388916016"></path>
<path fill="none" stroke="black" stroke-width=".3" stroke-opacity="1.0"  filling="0" d="M15.590568542480469 14.394790649414062 L15.590568542480469 14.394790649414062 C13.566486358642578 13.436518669128418 13.120394706726074 13.137300491333008 13.129679679870605 10.885871887207031 L13.129679679870605 10.885871887207031 C14.44587230682373 9.401963233947754 16.74884796142578 9.422832489013672 18.072406768798828 10.885871887207031 L18.072406768798828 10.885871887207031 C18.06824493408203 13.138945579528809 17.616973876953125 13.43812370300293 15.590568542480469 14.394790649414062 L15.590568542480469 14.394790649414062"></path>
<path fill="none" stroke="black" stroke-width=".3" stroke-opacity="1.0"  filling="0" d="M3.1193771362304688 14.39997673034668 L1.2000007629394531 12.000648498535156 L3.1193771362304688 9.60002326965332 L4.34992790222168 9.60002326965332 L2.813521385192871 11.519831657409668 L6.000384330749512 11.519831657409668 L6.000384330749512 12.480167388916016 L2.813521385192871 12.480167388916016 L4.34992790222168 14.39997673034668 L3.1193771362304688 14.39997673034668"></path></svg>