<svg xmlns="http://www.w3.org/2000/svg" viewBox="0.0 0.0 24.0 24.0" height="200px" width="200px"><path fill="none" stroke="black" stroke-width=".3" stroke-opacity="1.0"  filling="0" d="M8.760000228881836 19.20119857788086 L8.760000228881836 19.20119857788086 C8.34984016418457 19.031599044799805 7.939680099487305 18.86199951171875 7.529520034790039 18.692399978637695 L4.543919563293457 15.707039833068848 L1.558319091796875 12.7216796875 C1.558319091796875 12.240559577941895 1.2181158065795898 11.618523597717285 1.558319091796875 11.2783203125 C1.8985228538513184 10.938117027282715 2.5205600261688232 11.2783203125 3.001680374145508 11.2783203125 L5.880840301513672 14.157480239868164 L8.760000228881836 17.036640167236328 L12.839521408081055 12.957280158996582 L16.91904067993164 8.877920150756836 L20.99856185913086 4.79856014251709 C21.47968101501465 4.79856014251709 22.1016902923584 4.458385467529297 22.44192123413086 4.79856014251709 C22.78209686279297 5.138678550720215 22.44192123413086 5.760639667510986 22.44192123413086 6.241679668426514 L18.291521072387695 10.391839981079102 L14.141119956970215 14.541999816894531 L9.990718841552734 18.69215965270996 C9.580479621887207 18.861839294433594 9.170239448547363 19.031518936157227 8.760000228881836 19.20119857788086 L8.760000228881836 19.20119857788086"></path></svg>