<svg xmlns="http://www.w3.org/2000/svg" viewBox="0.0 0.0 24.0 24.0" height="200px" width="200px"><path fill="none" stroke="black" stroke-width=".3" stroke-opacity="1.0"  filling="0" d="M10.138296127319336 5.110464572906494 L11.999351501464844 3.6209287643432617 L13.861703872680664 5.110464572906494 L13.861703872680664 6.064752101898193 L12.372384071350098 4.872432231903076 L12.372384071350098 7.344768047332764 L11.627615928649902 7.344768047332764 L11.627615928649902 4.87221622467041 L10.138296127319336 6.064752101898193 L10.138296127319336 5.110464572906494"></path>
<path fill="none" stroke="black" stroke-width=".3" stroke-opacity="1.0"  filling="0" d="M17.213808059692383 9.207119941711426 L17.213808059692383 9.207119941711426 C18.663360595703125 9.441598892211914 20.094566345214844 9.98835563659668 21.146137237548828 10.901307106018066 C22.197708129882812 11.814258575439453 22.86964225769043 13.093404769897461 22.800647735595703 14.792664527893066 C22.76465606689453 15.679117202758789 22.091869354248047 14.900383949279785 22.055877685546875 14.792664527893066 C21.852977752685547 14.185420036315918 21.920101165771484 13.501477241516113 21.674684524536133 12.910136222839355 C20.937294006347656 11.133369445800781 19.132402420043945 9.951666831970215 17.21424102783203 9.951671600341797 C15.29583740234375 9.951676368713379 13.491122245788574 11.13327693939209 12.753884315490723 12.910408973693848 C12.543782234191895 13.416865348815918 12.666730880737305 15.831997871398926 11.628047943115234 14.793312072753906 L11.628047943115234 14.792664527893066 C11.303764343261719 13.190799713134766 10.528814315795898 11.699899673461914 9.381888389587402 10.7974214553833 C8.234962463378906 9.894943237304688 6.716060161590576 9.580886840820312 4.903870582580566 10.332712173461914 C2.661827564239502 11.262870788574219 2.6053154468536377 12.816357612609863 1.944767951965332 14.793312072753906 C1.9086756706237793 14.90133285522461 1.2360930442810059 15.678318977355957 1.2000007629394531 14.793312072753906 C1.1233177185058594 12.912994384765625 2.0870847702026367 11.311476707458496 3.4995810985565186 10.315872192382812 C4.9120774269104 9.320266723632812 6.7733025550842285 8.93057632446289 8.491536140441895 9.473913192749023 C10.288957595825195 10.042291641235352 11.125836372375488 11.258880615234375 12.0 12.804168701171875 L12.0 12.804168701171875 C13.31060791015625 10.487622261047363 14.58503532409668 9.61844539642334 17.213808059692383 9.207119941711426 L17.213808059692383 9.207119941711426"></path>
<path fill="none" stroke="black" stroke-width=".3" stroke-opacity="1.0"  filling="0" d="M6.786192417144775 12.186408042907715 L6.786192417144775 12.186408042907715 C8.444584846496582 12.541374206542969 9.1763277053833 13.6129732131958 9.505303382873535 14.94471263885498 C9.83427906036377 16.276453018188477 9.760488510131836 17.868331909179688 9.807816505432129 19.26386260986328 L9.807816505432129 19.48720932006836 C7.547173023223877 20.53278350830078 6.024611473083496 20.532747268676758 3.7639198303222656 19.48720932006836 L3.7639198303222656 19.26386260986328 C3.811288833618164 17.868202209472656 3.7376201152801514 16.276334762573242 4.066727638244629 14.944634437561035 C4.395834922790527 13.612934112548828 5.127718448638916 12.541400909423828 6.786192417144775 12.186408042907715 L6.786192417144775 12.186408042907715"></path>
<path fill="none" stroke="black" stroke-width=".3" stroke-opacity="1.0"  filling="0" d="M17.213808059692383 12.186408042907715 L17.213808059692383 12.186408042907715 C18.871967315673828 12.541399002075195 19.603511810302734 13.613127708435059 19.93233871459961 14.944926261901855 C20.261165618896484 16.276723861694336 20.18727684020996 17.86859130859375 20.234569549560547 19.26386260986328 L20.234569549560547 19.48720932006836 C17.974647521972656 20.533004760742188 16.45177459716797 20.532875061035156 14.191751480102539 19.48720932006836 L14.191751480102539 19.26386260986328 C14.239107131958008 17.868247985839844 14.165401458740234 16.276378631591797 14.494466781616211 14.94466781616211 C14.823532104492188 13.612956047058105 15.555368423461914 12.541399955749512 17.213808059692383 12.186408042907715 L17.213808059692383 12.186408042907715"></path>
<path fill="none" stroke="black" stroke-width=".3" stroke-opacity="1.0"  filling="0" d="M6.779280185699463 16.651126861572266 L6.779280185699463 16.651126861572266 C6.180897235870361 16.197383880615234 5.415310382843018 15.904736518859863 4.984130859375 15.289895057678223 C4.722692012786865 14.917096138000488 4.908080577850342 14.382407188415527 4.870055675506592 13.92866325378418 L4.870055675506592 13.92866325378418 C5.890181541442871 12.776904106140137 7.678330898284912 12.793532371520996 8.704272270202637 13.92866325378418 L8.704272270202637 13.92866325378418 C8.663456916809082 14.382407188415527 8.844846725463867 14.917913436889648 8.581827163696289 15.289895057678223 C8.147134780883789 15.904667854309082 7.380129337310791 16.197383880615234 6.779280185699463 16.651126861572266 L6.779280185699463 16.651126861572266"></path>
<path fill="none" stroke="black" stroke-width=".3" stroke-opacity="1.0"  filling="0" d="M17.206462860107422 16.651126861572266 L17.206462860107422 16.651126861572266 C16.608043670654297 16.197383880615234 15.842435836791992 15.90473747253418 15.41120719909668 15.289895057678223 C15.149746894836426 14.917107582092285 15.335084915161133 14.382407188415527 15.29702377319336 13.92866325378418 L15.29702377319336 13.92866325378418 C16.317617416381836 12.777192115783691 18.10518455505371 12.793401718139648 19.131454467773438 13.92866325378418 L19.131454467773438 13.92866325378418 C19.090612411499023 14.382407188415527 19.27195167541504 14.917911529541016 19.008930206298828 15.289895057678223 C18.574251174926758 15.904650688171387 17.80728530883789 16.197383880615234 17.206462860107422 16.651126861572266 L17.206462860107422 16.651126861572266"></path></svg>