<svg xmlns="http://www.w3.org/2000/svg" viewBox="0.0 0.0 24.0 24.0" height="200px" width="200px"><path fill="none" stroke="black" stroke-width=".3" stroke-opacity="1.0"  filling="0" d="M10.19985580444336 2.640072822570801 L12.0 1.2000007629394531 L13.799495697021484 2.640072822570801 L13.799495697021484 3.5621767044067383 L12.359856605529785 2.410032272338867 L12.359856605529785 4.800072193145752 L11.639927864074707 4.800072193145752 L11.639927864074707 2.409600257873535 L10.19985580444336 3.5621767044067383 L10.19985580444336 2.640072822570801"></path>
<path fill="none" stroke="black" stroke-width=".3" stroke-opacity="1.0"  filling="0" d="M17.040142059326172 6.600000381469727 L17.040142059326172 6.600000381469727 C18.44149398803711 6.826656341552734 19.825029373168945 7.355199337005615 20.841459274291992 8.23777961730957 C21.857887268066406 9.120360374450684 22.507213592529297 10.356977462768555 22.440143585205078 11.999783515930176 C22.405254364013672 12.854340553283691 21.754623413085938 12.104619979858398 21.719568252563477 11.999783515930176 C21.523290634155273 11.412775993347168 21.588394165039062 10.751532554626465 21.351207733154297 10.179828643798828 C20.63863182067871 8.462264060974121 18.894275665283203 7.3201422691345215 17.040142059326172 7.320144176483154 C15.18572998046875 7.320146083831787 13.440974235534668 8.461989402770996 12.728230476379395 10.179920196533203 C12.524877548217773 10.670062065124512 12.644231796264648 13.003484725952148 11.640143394470215 12.0 L11.640143394470215 11.999783515930176 C11.326602935791016 10.451204299926758 10.577545166015625 9.010088920593262 9.468908309936523 8.13775634765625 C8.360271453857422 7.265422821044922 6.892054557800293 6.961872100830078 5.140198230743408 7.68842077255249 C2.972653865814209 8.58736801147461 2.9183759689331055 10.088976860046387 2.2797842025756836 12.0 C2.244901180267334 12.104389190673828 1.5946580171585083 12.855116844177246 1.5598564147949219 12.0 C1.48588228225708 10.182367324829102 2.417645215988159 8.634198188781738 3.7831552028656006 7.671759605407715 C5.148664951324463 6.709321022033691 6.9479217529296875 6.332613468170166 8.608935356140137 6.857904434204102 C10.346298217773438 7.4073405265808105 11.155123710632324 8.583484649658203 12.0 10.077167510986328 L12.0 10.077167510986328 C13.267518997192383 7.838284969329834 14.498960494995117 6.997642517089844 17.040142059326172 6.600000381469727 L17.040142059326172 6.600000381469727"></path>
<path fill="none" stroke="black" stroke-width=".3" stroke-opacity="1.0"  filling="0" d="M6.9598565101623535 9.479928970336914 L6.9598565101623535 9.479928970336914 C8.563111305236816 9.823121070861816 9.270576477050781 10.859037399291992 9.58867073059082 12.146449089050293 C9.906764030456543 13.433860778808594 9.83548641204834 14.972768783569336 9.881256103515625 16.321945190429688 L9.881256103515625 16.537078857421875 C7.695816993713379 17.548749923706055 6.2245025634765625 17.548728942871094 4.039104461669922 16.537078857421875 L4.039104461669922 16.321945190429688 C4.084834098815918 14.97290325164795 4.01344633102417 13.43399429321289 4.331413745880127 12.1465482711792 C4.649381637573242 10.859102249145508 5.356705188751221 9.823118209838867 6.9598565101623535 9.479928970336914 L6.9598565101623535 9.479928970336914"></path>
<path fill="none" stroke="black" stroke-width=".3" stroke-opacity="1.0"  filling="0" d="M17.040142059326172 9.479928970336914 L17.040142059326172 9.479928970336914 C18.643348693847656 9.823135375976562 19.350811004638672 10.859070777893066 19.668914794921875 12.146489143371582 C19.987018585205078 13.433907508850098 19.9157657623291 14.972808837890625 19.961544036865234 16.321945190429688 L19.961544036865234 16.537078857421875 C17.775516510009766 17.548603057861328 16.30457878112793 17.548534393310547 14.118528366088867 16.537078857421875 L14.118528366088867 16.321945190429688 C14.164311408996582 14.972724914550781 14.093070983886719 13.433816909790039 14.41120719909668 12.146416664123535 C14.729342460632324 10.859016418457031 15.436854362487793 9.823122024536133 17.040142059326172 9.479928970336914 L17.040142059326172 9.479928970336914"></path>
<path fill="none" stroke="black" stroke-width=".3" stroke-opacity="1.0"  filling="0" d="M6.953376293182373 13.795823097229004 L6.953376293182373 13.795823097229004 C6.375000476837158 13.357234954833984 5.63505744934082 13.074322700500488 5.2182488441467285 12.480059623718262 C4.965512752532959 12.119722366333008 5.1445207595825195 11.602884292602539 5.107656478881836 11.16429615020752 L5.107656478881836 11.16429615020752 C6.094951152801514 10.050795555114746 7.821868896484375 10.067048072814941 8.814864158630371 11.16429615020752 L8.814864158630371 11.16429615020752 C8.775182723999023 11.602884292602539 8.950139045715332 12.120537757873535 8.695820808410645 12.480059623718262 C8.2755126953125 13.074235916137695 7.534191131591797 13.357234954833984 6.953376293182373 13.795823097229004 L6.953376293182373 13.795823097229004"></path>
<path fill="none" stroke="black" stroke-width=".3" stroke-opacity="1.0"  filling="0" d="M17.033447265625 13.795823097229004 L17.033447265625 13.795823097229004 C16.4550724029541 13.357234954833984 15.715128898620605 13.074322700500488 15.298320770263672 12.480059623718262 C15.045584678649902 12.119722366333008 15.224592208862305 11.602884292602539 15.187727928161621 11.16429615020752 L15.187727928161621 11.16429615020752 C16.1746768951416 10.050455093383789 17.90212631225586 10.067256927490234 18.894935607910156 11.16429615020752 L18.894935607910156 11.16429615020752 C18.855281829833984 11.602884292602539 19.030290603637695 12.120539665222168 18.77597427368164 12.480059623718262 C18.355653762817383 13.074254035949707 17.614290237426758 13.357234954833984 17.033447265625 13.795823097229004 L17.033447265625 13.795823097229004"></path>
<path fill="none" stroke="black" stroke-width=".3" stroke-opacity="1.0"  filling="0" d="M13.799495697021484 21.359928131103516 L12.000648498535156 22.799999237060547 L10.19985580444336 21.359928131103516 L10.19985580444336 20.437389373779297 L11.639927864074707 21.589536666870117 L11.639927864074707 19.199928283691406 L12.359856605529785 19.199928283691406 L12.359856605529785 21.59040069580078 L13.799495697021484 20.437389373779297 L13.799495697021484 21.359928131103516"></path></svg>