<svg xmlns="http://www.w3.org/2000/svg" viewBox="0.0 0.0 24.0 24.0" height="200px" width="200px"><path fill="none" stroke="black" stroke-width=".3" stroke-opacity="1.0"  filling="0" d="M30.080617904663086 76.96875 L35.734371185302734 76.96875 L41.38812255859375 76.96875 L47.04187774658203 76.96875 C47.45500183105469 77.38187408447266 47.868125915527344 77.79499053955078 48.28125 78.20811462402344 L48.28125 83.86186981201172 L48.28125 89.515625 L48.28125 95.16938018798828 C47.868125915527344 95.58250427246094 47.45500183105469 95.99562072753906 47.04187774658203 96.40874481201172 L41.38812255859375 96.40875244140625 L35.734371185302734 96.40875244140625 L30.080617904663086 96.40874481201172 C29.667495727539062 95.99562072753906 29.254371643066406 95.58250427246094 28.841249465942383 95.16938018798828 L28.841251373291016 89.515625 L28.841251373291016 83.86186981201172 L28.841249465942383 78.20811462402344 C29.254371643066406 77.79499053955078 29.667495727539062 77.38187408447266 30.080617904663086 76.96875 L30.080617904663086 76.96875"></path>
<path fill="none" stroke="black" stroke-width=".3" stroke-opacity="1.0"  filling="0" d="M29.89958381652832 77.15673828125 L34.44974136352539 81.70341491699219 L38.999900817871094 86.25009155273438 L38.122596740722656 87.12740325927734 L33.57592010498047 82.5772476196289 L29.02924346923828 78.02709197998047 L29.89958381652832 77.15673828125"></path>
<path fill="none" stroke="black" stroke-width=".3" stroke-opacity="1.0"  filling="0" d="M30.038833618164062 77.27970886230469 L31.501483917236328 77.27970886230469 C31.796968460083008 77.57522583007812 32.356082916259766 77.74956512451172 32.387939453125 78.16625213623047 C32.47932815551758 79.36161804199219 31.23419761657715 80.60669708251953 30.038833618164062 80.51526641845703 C29.622150421142578 80.48339080810547 29.44786262512207 79.92424011230469 29.15237808227539 79.62872314453125 L29.15237808227539 78.16616821289062 C29.44786262512207 77.87068176269531 29.743349075317383 77.5751953125 30.038833618164062 77.27970886230469 L30.038833618164062 77.27970886230469"></path>
<path fill="none" stroke="black" stroke-width=".3" stroke-opacity="1.0"  filling="0" d="M30.303422927856445 78.17330932617188 L30.303422927856445 78.17330932617188 C30.419469833374023 78.2499008178711 30.53551483154297 78.32649230957031 30.651561737060547 78.40308380126953 L31.744718551635742 82.46931457519531 C31.628976821899414 82.90048217773438 31.461454391479492 82.9452896118164 31.145923614501953 82.62947082519531 L30.059730529785156 78.56321716308594 C30.081119537353516 78.41144561767578 30.176376342773438 78.259033203125 30.303424835205078 78.17329406738281 L30.303424835205078 78.17329406738281"></path>
<path fill="none" stroke="black" stroke-width=".3" stroke-opacity="1.0"  filling="0" d="M30.310392379760742 78.17329406738281 L30.310392379760742 78.17329406738281 C30.3521671295166 78.17794036865234 30.393943786621094 78.18257904052734 30.435718536376953 78.18722534179688 L34.50196075439453 79.27342224121094 C34.83934783935547 79.53036499023438 34.76242446899414 79.81798553466797 34.341819763183594 79.87220764160156 L30.27557373046875 78.77906799316406 C29.981807708740234 78.52446746826172 29.989381790161133 78.39257049560547 30.31039047241211 78.17330169677734 L30.31039047241211 78.17330169677734"></path>
<path fill="none" stroke="black" stroke-width=".3" stroke-opacity="1.0"  filling="0" d="M30.080617904663086 78.20811462402344 L35.734371185302734 78.20811462402344 L41.38812255859375 78.20811462402344 L47.04187774658203 78.20811462402344 L47.04187774658203 83.86186981201172 L47.04187774658203 89.515625 L47.04187774658203 95.16938018798828 L41.38812255859375 95.16938018798828 L35.734371185302734 95.16938018798828 L30.080617904663086 95.16938018798828 L30.080617904663086 89.515625 L30.080617904663086 83.86186981201172 L30.080617904663086 78.20811462402344"></path>
<path fill="none" stroke="black" stroke-width=".3" stroke-opacity="1.0"  filling="0" d="M29.419158935546875 78.32648468017578 L29.419158935546875 78.32648468017578 C29.42612075805664 78.32648468017578 29.433082580566406 78.32648468017578 29.440044403076172 78.32648468017578 L33.44363021850586 78.32648468017578 C33.63905715942383 78.43931579589844 33.639068603515625 78.52696990966797 33.44363021850586 78.63980865478516 L29.440044403076172 78.63980865478516 C29.237092971801758 78.54000091552734 29.231216430664062 78.45234680175781 29.419158935546875 78.32648468017578 L29.419158935546875 78.32648468017578"></path>
<path fill="none" stroke="black" stroke-width=".3" stroke-opacity="1.0"  filling="0" d="M30.338241577148438 78.32648468017578 L30.338241577148438 78.32648468017578 C30.413352966308594 78.35045623779297 30.482175827026367 78.41377258300781 30.512310028076172 78.48662567138672 L30.512310028076172 81.57112884521484 C30.399477005004883 81.76655578613281 30.31181526184082 81.76655578613281 30.198984146118164 81.57112884521484 L30.19898223876953 78.48662567138672 C30.24540138244629 78.43324279785156 30.29182243347168 78.37986755371094 30.338241577148438 78.32648468017578 L30.338241577148438 78.32648468017578"></path>
<path fill="none" stroke="black" stroke-width=".3" stroke-opacity="1.0"  filling="0" d="M44.37514114379883 79.35000610351562 L44.37514114379883 79.35000610351562 C45.01228332519531 79.59261322021484 45.09540939331055 79.78829956054688 44.82772445678711 80.41531372070312 L44.667579650878906 80.57545471191406 C43.80442810058594 80.80672454833984 43.558990478515625 80.56128692626953 43.79027557373047 79.6981430053711 L43.950416564941406 79.53800201416016 C44.09199142456055 79.47533416748047 44.23356628417969 79.41267395019531 44.37514114379883 79.35000610351562 L44.37514114379883 79.35000610351562"></path>
<path fill="none" stroke="black" stroke-width=".3" stroke-opacity="1.0"  filling="0" d="M42.70408630371094 80.78433227539062 L42.91297149658203 80.57545471191406 L43.79027557373047 81.4527587890625 L43.35161590576172 81.88445281982422 L42.48127746582031 81.01410675048828 L42.70408630371094 80.78433227539062"></path>
<path fill="none" stroke="black" stroke-width=".3" stroke-opacity="1.0"  filling="0" d="M41.603973388671875 81.88445281982422 L42.042625427246094 81.4527587890625 L42.91297149658203 82.3230972290039 L42.48127746582031 82.76175689697266 L41.603973388671875 81.88445281982422"></path>
<path fill="none" stroke="black" stroke-width=".3" stroke-opacity="1.0"  filling="0" d="M40.72666549682617 82.76175689697266 L41.165313720703125 82.3230972290039 L42.042625427246094 83.20040893554688 L41.603973388671875 83.6390609741211 L40.72666549682617 82.76175689697266"></path>
<path fill="none" stroke="black" stroke-width=".3" stroke-opacity="1.0"  filling="0" d="M39.84935760498047 83.6390609741211 L40.28800964355469 83.20040893554688 L41.165313720703125 84.07771301269531 L40.72666549682617 84.51637268066406 L39.84935760498047 83.6390609741211"></path>
<path fill="none" stroke="black" stroke-width=".3" stroke-opacity="1.0"  filling="0" d="M38.9790153503418 84.51637268066406 L39.41767120361328 84.07771301269531 L40.28800964355469 84.94805908203125 L39.84935760498047 85.38670349121094 L38.9790153503418 84.51637268066406"></path>
<path fill="none" stroke="black" stroke-width=".3" stroke-opacity="1.0"  filling="0" d="M38.101707458496094 85.38670349121094 L38.54035949707031 84.94805908203125 L39.41767120361328 85.82536315917969 L38.9790153503418 86.26402282714844 L38.101707458496094 85.38670349121094"></path>
<path fill="none" stroke="black" stroke-width=".3" stroke-opacity="1.0"  filling="0" d="M29.460935592651367 86.25009155273438 L35.52781295776367 86.25009155273438 L41.594688415527344 86.25009155273438 L47.66156005859375 86.25009155273438 L47.66156005859375 88.10914611816406 L41.594688415527344 88.10914611816406 L35.52781295776367 88.10914611816406 L29.460935592651367 88.10914611816406 L29.460935592651367 86.25009155273438"></path></svg>