<svg xmlns="http://www.w3.org/2000/svg" viewBox="0.0 0.0 24.0 24.0" height="200px" width="200px"><path fill="none" stroke="black" stroke-width=".3" stroke-opacity="1.0"  filling="0" d="M-3.926908493041992 89.91815185546875 L1.7275309562683105 89.91815185546875 L7.381970405578613 89.91815185546875 L13.036409378051758 89.91815185546875 C13.449189186096191 90.3309326171875 13.861969947814941 90.74370574951172 14.274749755859375 91.15648651123047 L14.274750709533691 96.81028747558594 L14.274750709533691 102.46408081054688 L14.274749755859375 108.11787414550781 C13.861969947814941 108.53065490722656 13.449189186096191 108.94343566894531 13.036409378051758 109.35621643066406 L7.381970405578613 109.35621643066406 L1.7275309562683105 109.35621643066406 L-3.926908493041992 109.35621643066406 C-4.339688777923584 108.94343566894531 -4.752468585968018 108.53065490722656 -5.165248870849609 108.11787414550781 L-5.165248870849609 102.46408081054688 L-5.165248870849609 96.81028747558594 L-5.165248870849609 91.15648651123047 C-4.752468585968018 90.74370574951172 -4.339688777923584 90.3309326171875 -3.926908493041992 89.91815185546875 L-3.926908493041992 89.91815185546875"></path>
<path fill="none" stroke="black" stroke-width=".3" stroke-opacity="1.0"  filling="0" d="M-4.108791351318359 90.10003662109375 L0.4421072006225586 94.64996337890625 L4.993005752563477 99.19989013671875 L4.1164937019348145 100.07447052001953 L-0.4334371089935303 95.5245361328125 L-4.983367919921875 90.974609375 L-4.108791351318359 90.10003662109375"></path>
<path fill="none" stroke="black" stroke-width=".3" stroke-opacity="1.0"  filling="0" d="M-3.9702014923095703 90.22569274902344 L-2.5071468353271484 90.22569274902344 C-2.211580276489258 90.52128601074219 -1.652312994003296 90.6956787109375 -1.6204471588134766 91.11248016357422 C-1.52903151512146 92.30817413330078 -2.774505138397217 93.55360412597656 -3.9702014923095703 93.46214294433594 C-4.386999130249023 93.43025970458984 -4.561334609985352 92.8709487915039 -4.856901168823242 92.57535552978516 L-4.856901168823242 91.11239624023438 C-4.561334609985352 90.81682586669922 -4.265768051147461 90.5212631225586 -3.9702014923095703 90.22569274902344 L-3.9702014923095703 90.22569274902344"></path>
<path fill="none" stroke="black" stroke-width=".3" stroke-opacity="1.0"  filling="0" d="M-3.6463470458984375 91.11585998535156 L-3.6463470458984375 91.11585998535156 C-3.548957109451294 91.19390106201172 -3.4515674114227295 91.27193450927734 -3.354177474975586 91.3499755859375 L-2.2648258209228516 95.41714477539062 C-2.3078713417053223 95.85093688964844 -2.610234260559082 95.9311752319336 -2.862710952758789 95.57581329345703 L-3.95206356048584 91.51058197021484 C-3.9206180572509766 91.34716033935547 -3.7967143058776855 91.18717956542969 -3.6463470458984375 91.11585998535156 L-3.6463470458984375 91.11585998535156"></path>
<path fill="none" stroke="black" stroke-width=".3" stroke-opacity="1.0"  filling="0" d="M-3.926908493041992 91.15648651123047 L1.7275309562683105 91.15648651123047 L7.381970405578613 91.15648651123047 L13.036409378051758 91.15648651123047 L13.036409378051758 96.81028747558594 L13.036409378051758 102.46408081054688 L13.036409378051758 108.11787414550781 L7.381970405578613 108.11787414550781 L1.7275309562683105 108.11787414550781 L-3.926908493041992 108.11787414550781 L-3.926908493041992 102.46408081054688 L-3.926908493041992 96.81028747558594 L-3.926908493041992 91.15648651123047"></path>
<path fill="none" stroke="black" stroke-width=".3" stroke-opacity="1.0"  filling="0" d="M-3.6560239791870117 91.2725830078125 L-3.6560239791870117 91.2725830078125 C-3.5869078636169434 91.29995727539062 -3.5255820751190186 91.36053466796875 -3.4973602294921875 91.42931365966797 L-3.4973602294921875 94.51935577392578 C-3.5768814086914062 94.71727752685547 -3.727423906326294 94.71727752685547 -3.8069448471069336 94.51935577392578 L-3.8069448471069336 91.42931365966797 C-3.7566378116607666 91.37706756591797 -3.7063310146331787 91.3248291015625 -3.6560239791870117 91.2725830078125 L-3.6560239791870117 91.2725830078125"></path>
<path fill="none" stroke="black" stroke-width=".3" stroke-opacity="1.0"  filling="0" d="M-4.546079635620117 99.19795989990234 L1.5211400985717773 99.19795989990234 L7.588359832763672 99.19795989990234 L13.655579566955566 99.19795989990234 L13.655579566955566 101.05546569824219 L7.588359832763672 101.05547332763672 L1.5211400985717773 101.05547332763672 L-4.546079635620117 101.05546569824219 L-4.546079635620117 99.19795989990234"></path>
<path fill="none" stroke="black" stroke-width=".3" stroke-opacity="1.0"  filling="0" d="M4.1164937019348145 100.07447052001953 L4.993005752563477 99.19989013671875 L5.430295467376709 99.6371841430664 L4.553782939910889 100.5136947631836 L4.1164937019348145 100.07447052001953"></path>
<path fill="none" stroke="black" stroke-width=".3" stroke-opacity="1.0"  filling="0" d="M4.993005752563477 100.95098114013672 L5.867584228515625 100.07447052001953 L6.306807518005371 100.5136947631836 L5.430295467376709 101.38827514648438 L4.993005752563477 100.95098114013672"></path>
<path fill="none" stroke="black" stroke-width=".3" stroke-opacity="1.0"  filling="0" d="M5.867584228515625 101.8274917602539 L6.744096279144287 100.95098114013672 L7.181384563446045 101.38827514648438 L6.306807518005371 102.26478576660156 L5.867584228515625 101.8274917602539"></path>
<path fill="none" stroke="black" stroke-width=".3" stroke-opacity="1.0"  filling="0" d="M6.744096279144287 102.70207214355469 L7.618673801422119 101.8274917602539 L8.057897567749023 102.26478576660156 L7.181384563446045 103.13935852050781 L6.744096279144287 102.70207214355469"></path>
<path fill="none" stroke="black" stroke-width=".3" stroke-opacity="1.0"  filling="0" d="M7.618673801422119 103.57858276367188 L8.495185852050781 102.70207214355469 L8.932475090026855 103.13935852050781 L8.057897567749023 104.01587677001953 L7.618673801422119 103.57858276367188"></path>
<path fill="none" stroke="black" stroke-width=".3" stroke-opacity="1.0"  filling="0" d="M8.495185852050781 104.45316314697266 L9.369763374328613 103.57858276367188 L9.80898666381836 104.01587677001953 L8.932475090026855 104.89044952392578 L8.495185852050781 104.45316314697266"></path>
<path fill="none" stroke="black" stroke-width=".3" stroke-opacity="1.0"  filling="0" d="M9.369763374328613 105.32967376708984 L10.246275901794434 104.45316314697266 L10.683565139770508 104.89044952392578 L9.80898666381836 105.76696014404297 L9.369763374328613 105.32967376708984"></path>
<path fill="none" stroke="black" stroke-width=".3" stroke-opacity="1.0"  filling="0" d="M11.142135620117188 105.60636138916016 L11.142135620117188 105.60636138916016 C11.290478706359863 105.6689224243164 11.438821792602539 105.73149108886719 11.587164878845215 105.79405212402344 L11.745827674865723 105.95272064208984 C12.070610046386719 106.73441314697266 11.651001930236816 107.15401458740234 10.869316101074219 106.82923126220703 L10.710654258728027 106.67057037353516 C10.446134567260742 106.05545043945312 10.523927688598633 105.86358642578125 11.142136573791504 105.60636138916016 L11.142136573791504 105.60636138916016"></path>
<path fill="none" stroke="black" stroke-width=".3" stroke-opacity="1.0"  filling="0" d="M395.486083984375 140.64019775390625 L402.2398986816406 142.4498748779297 L408.99371337890625 144.25955200195312"></path>
<path fill="none" stroke="black" stroke-width=".3" stroke-opacity="1.0"  filling="0" d="M398.5823669433594 141.4698486328125 L405.92608642578125 141.4698486328125 L413.2698059082031 141.4698486328125"></path></svg>