<svg xmlns="http://www.w3.org/2000/svg" viewBox="0.0 0.0 24.0 24.0" height="200px" width="200px"><path fill="none" stroke="black" stroke-width=".3" stroke-opacity="1.0"  filling="0" d="M11.728703498840332 5.047176837921143 L9.375816345214844 5.047176837921143 C9.365808486938477 5.010024547576904 9.35580062866211 4.972872257232666 9.345792770385742 4.935719966888428 L11.067312240600586 3.94320011138916 C11.287775993347168 4.070712089538574 11.50823974609375 4.1982245445251465 11.728703498840332 4.3257365226745605 L11.728703498840332 5.047176837921143"></path>
<path fill="none" stroke="black" stroke-width=".3" stroke-opacity="1.0"  filling="0" d="M14.623968124389648 5.047176837921143 L12.27302360534668 5.047176837921143 L12.27302360534668 4.3257365226745605 C12.493271827697754 4.198512554168701 12.713520050048828 4.0712890625 12.933768272399902 3.9440650939941406 L14.653559684753418 4.937448501586914 C14.643695831298828 4.974024772644043 14.633831977844238 5.010600566864014 14.623968124389648 5.047176837921143 L14.623968124389648 5.047176837921143"></path>
<path fill="none" stroke="black" stroke-width=".3" stroke-opacity="1.0"  filling="0" d="M10.24024772644043 9.500448226928711 L9.375816345214844 9.500448226928711 C9.053184509277344 9.179256439208984 8.730551719665527 8.858063697814941 8.407919883728027 8.536871910095215 L8.407919883728027 6.555287837982178 C8.445072174072266 6.545495986938477 8.482224464416504 6.535704135894775 8.519376754760742 6.525912284851074 L10.24024772644043 9.500448226928711"></path>
<path fill="none" stroke="black" stroke-width=".3" stroke-opacity="1.0"  filling="0" d="M11.728703498840332 9.500448226928711 L10.869239807128906 9.500448226928711 L8.991552352905273 6.2546162605285645 C9.119711875915527 6.033576011657715 9.247872352600098 5.812536239624023 9.376031875610352 5.591495990753174 L11.728703498840332 5.591495990753174 L11.728703498840332 9.500448226928711"></path>
<path fill="none" stroke="black" stroke-width=".3" stroke-opacity="1.0"  filling="0" d="M13.130111694335938 9.500448226928711 L12.273240089416504 9.500448226928711 L12.273240089416504 5.591495990753174 L14.623968124389648 5.591495990753174 C14.751263618469238 5.811744213104248 14.878560066223145 6.031991958618164 15.005855560302734 6.252240180969238 L13.130111694335938 9.500448226928711"></path>
<path fill="none" stroke="black" stroke-width=".3" stroke-opacity="1.0"  filling="0" d="M14.623751640319824 9.500448226928711 L13.758671760559082 9.500448226928711 L15.476951599121094 6.52461576461792 C15.513455390930176 6.534408092498779 15.549959182739258 6.5441999435424805 15.58646297454834 6.55399227142334 L15.58646297454834 8.537735939025879 C15.265559196472168 8.85863971710205 14.944655418395996 9.179544448852539 14.623751640319824 9.500448226928711 L14.623751640319824 9.500448226928711"></path>
<path fill="none" stroke="black" stroke-width=".3" stroke-opacity="1.0"  filling="0" d="M12.273240089416504 10.765344619750977 L12.273240089416504 10.044768333435059 L12.816047668457031 10.044768333435059 L12.382967948913574 10.794719696044922 C12.346391677856445 10.784928321838379 12.309816360473633 10.77513599395752 12.273240089416504 10.765344619750977 L12.273240089416504 10.765344619750977"></path>
<path fill="none" stroke="black" stroke-width=".3" stroke-opacity="1.0"  filling="0" d="M11.617895126342773 10.79515266418457 L11.184167861938477 10.044984817504883 L11.728703498840332 10.044984817504883 L11.728703498840332 10.765344619750977 C11.691767692565918 10.775280952453613 11.654830932617188 10.785216331481934 11.617895126342773 10.79515266418457 L11.617895126342773 10.79515266418457"></path>
<path fill="none" stroke="black" stroke-width=".3" stroke-opacity="1.0"  filling="0" d="M12.854063034057617 11.067312240600586 L13.444392204284668 10.044768333435059 L14.623968124389648 10.044768333435059 C14.633760452270508 10.08127212524414 14.64355182647705 10.117776870727539 14.65334415435791 10.154280662536621 L12.93398380279541 11.147232055664062 C12.907343864440918 11.12059211730957 12.88070297241211 11.093952178955078 12.854063034057617 11.067312240600586 L12.854063034057617 11.067312240600586"></path>
<path fill="none" stroke="black" stroke-width=".3" stroke-opacity="1.0"  filling="0" d="M11.067744255065918 11.147664070129395 L9.34665584564209 10.154280662536621 C9.35644817352295 10.11784839630127 9.366239547729492 10.081417083740234 9.376031875610352 10.044984817504883 L10.55517578125 10.044984817504883 L11.147015571594238 11.06817626953125 C11.12059211730957 11.094672203063965 11.094167709350586 11.12116813659668 11.067744255065918 11.147664070129395 L11.067744255065918 11.147664070129395"></path>
<path fill="none" stroke="black" stroke-width=".3" stroke-opacity="1.0"  filling="0" d="M8.407919883728027 12.99122428894043 L8.407919883728027 11.00877571105957 C8.630040168762207 10.881048202514648 8.852160453796387 10.75331974029541 9.074280738830566 10.625592231750488 L10.795368194580078 11.618976593017578 C10.75677490234375 11.87018871307373 10.756895065307617 12.130257606506348 10.795584678649902 12.381455421447754 L9.074496269226074 13.374624252319336 C8.852304458618164 13.246824264526367 8.630111694335938 13.119024276733398 8.407919883728027 12.99122428894043 L8.407919883728027 12.99122428894043"></path>
<path fill="none" stroke="black" stroke-width=".3" stroke-opacity="1.0"  filling="0" d="M14.925719261169434 13.374407768249512 L13.20635986328125 12.381888389587402 C13.245061874389648 12.130328178405762 13.24508285522461 11.869885444641113 13.20635986328125 11.618328094482422 L14.925935745239258 10.625592231750488 C15.146183967590332 10.752887725830078 15.366432189941406 10.880184173583984 15.58668041229248 11.007479667663574 L15.58668041229248 12.992303848266602 C15.36635971069336 13.119671821594238 15.146039962768555 13.247039794921875 14.925719261169434 13.374407768249512 L14.925719261169434 13.374407768249512"></path>
<path fill="none" stroke="black" stroke-width=".3" stroke-opacity="1.0"  filling="0" d="M11.728703498840332 13.955231666564941 L9.375816345214844 13.955231666564941 C9.366024017333984 13.918871879577637 9.356232643127441 13.882512092590332 9.346440315246582 13.846152305603027 L11.067744255065918 12.852984428405762 C11.288064002990723 12.980352401733398 11.508383750915527 13.107719421386719 11.728703498840332 13.235087394714355 L11.728703498840332 13.955231666564941"></path>
<path fill="none" stroke="black" stroke-width=".3" stroke-opacity="1.0"  filling="0" d="M14.623968124389648 13.955231666564941 L12.27302360534668 13.955448150634766 L12.27302360534668 13.235304832458496 C12.493271827697754 13.10800838470459 12.713520050048828 12.980712890625 12.933768272399902 12.853416442871094 L14.65334415435791 13.84593677520752 C14.64355182647705 13.882368087768555 14.633760452270508 13.918800354003906 14.623968124389648 13.955231666564941 L14.623968124389648 13.955231666564941"></path>
<path fill="none" stroke="black" stroke-width=".3" stroke-opacity="1.0"  filling="0" d="M12.273240089416504 15.219695091247559 L12.273240089416504 14.499551773071289 L14.624183654785156 14.499551773071289 C14.633975982666016 14.53598403930664 14.643767356872559 14.572415351867676 14.653559684753418 14.608847618103027 L12.934200286865234 15.601584434509277 C12.71388053894043 15.474287986755371 12.493559837341309 15.346991539001465 12.273240089416504 15.219695091247559 L12.273240089416504 15.219695091247559"></path>
<path fill="none" stroke="black" stroke-width=".3" stroke-opacity="1.0"  filling="0" d="M11.067960739135742 15.60201644897461 L9.34665584564209 14.608631134033203 C9.35644817352295 14.572271347045898 9.366239547729492 14.535911560058594 9.376031875610352 14.499551773071289 L11.728919982910156 14.499551773071289 L11.728919982910156 15.219695091247559 C11.508600234985352 15.347135543823242 11.288280487060547 15.474575996398926 11.067960739135742 15.60201644897461 L11.067960739135742 15.60201644897461"></path>
<path fill="none" stroke="black" stroke-width=".3" stroke-opacity="1.0"  filling="0" d="M12.273240089416504 19.67426300048828 L12.273240089416504 17.689437866210938 C12.662935256958008 17.204376220703125 13.301240921020508 16.687862396240234 13.206575393676758 16.072895050048828 L14.926151275634766 15.080160140991211 C14.952791213989258 15.106871604919434 14.979432106018066 15.133584022521973 15.006072044372559 15.160295486450195 L12.38275146484375 19.70363998413086 C12.346247673034668 19.69384765625 12.309743881225586 19.68405532836914 12.273240089416504 19.67426300048828 L12.273240089416504 19.67426300048828"></path>
<path fill="none" stroke="black" stroke-width=".3" stroke-opacity="1.0"  filling="0" d="M11.618976593017578 19.703857421875 L8.994144439697266 15.159863471984863 C9.020784378051758 15.133223533630371 9.04742431640625 15.106584548950195 9.074064254760742 15.079944610595703 L10.795368194580078 16.07311248779297 C10.700660705566406 16.688011169433594 11.3390474319458 17.204425811767578 11.728703498840332 17.689437866210938 L11.728703498840332 19.67447853088379 C11.69212818145752 19.68427085876465 11.65555191040039 19.69406509399414 11.618976593017578 19.703857421875 L11.618976593017578 19.703857421875"></path>
<path fill="none" stroke="black" stroke-width=".3" stroke-opacity="1.0"  filling="0" d="M12.001080513000488 22.173385620117188 L12.001080513000488 22.173385620117188 C11.57959270477295 21.75189781188965 10.952434539794922 21.46455192565918 10.736616134643555 20.908920288085938 C10.613604545593262 20.592222213745117 11.010647773742676 20.287128448486328 11.147664070129395 19.976232528686523 L8.523048400878906 15.432671546936035 C6.146749496459961 15.799395561218262 7.192381381988525 13.832500457763672 7.86338472366333 12.993599891662598 L7.86338472366333 11.006400108337402 C7.534488677978516 10.595208168029785 6.876696586608887 10.299370765686035 6.876696586608887 9.77282428741455 C6.876696586608887 9.246277809143066 7.534488677978516 8.950440406799316 7.86338472366333 8.5392484664917 L7.86338472366333 6.553128242492676 C7.534488677978516 6.141936302185059 6.818544387817383 5.842878341674805 6.876696586608887 5.319552421569824 C7.106135368347168 3.2547719478607178 8.321002006530762 4.134500503540039 9.072551727294922 4.465056419372559 L10.79515266418457 3.4718875885009766 C10.473668098449707 1.3804843425750732 13.528225898742676 1.3822789192199707 13.206575393676758 3.472968101501465 L14.926151275634766 4.466352939605713 C15.674994468688965 4.136404037475586 16.8980712890625 3.251345157623291 17.12330436706543 5.319552421569824 C17.18046760559082 5.84445858001709 16.461912155151367 6.142800331115723 16.131216049194336 6.554424285888672 L16.131216049194336 8.537952423095703 C16.461912155151367 8.949576377868652 17.12330436706543 9.2448148727417 17.12330436706543 9.77282428741455 C17.12330436706543 10.300833702087402 16.461912155151367 10.59607219696045 16.131216049194336 11.007696151733398 L16.131216049194336 12.992303848266602 C16.80292320251465 13.828390121459961 17.8602352142334 15.80064868927002 15.477167129516602 15.432671546936035 L12.854063034057617 19.976015090942383 C12.991079330444336 20.286983489990234 13.388082504272461 20.592134475708008 13.265111923217773 20.908920288085938 C13.049444198608398 21.464502334594727 12.42242431640625 21.75189781188965 12.001080513000488 22.173385620117188 L12.001080513000488 22.173385620117188"></path></svg>