<svg xmlns="http://www.w3.org/2000/svg" viewBox="0.0 0.0 24.0 24.0" height="200px" width="200px"><path fill="none" stroke="black" stroke-width=".3" stroke-opacity="1.0"  filling="0" d="M11.594136238098145 8.218488693237305 L11.594136238098145 8.218488693237305 C13.575639724731445 8.317371368408203 15.33853816986084 9.096453666687012 16.49733543395996 10.744607925415039 L16.49733543395996 10.744607925415039 C14.905998229980469 11.188085556030273 13.226397514343262 11.412240982055664 11.548480033874512 11.407185554504395 C9.870561599731445 11.402130126953125 8.194326400756836 11.167863845825195 6.609720230102539 10.694496154785156 L6.609720230102539 10.694496154785156 C8.241790771484375 9.082467079162598 9.320343017578125 8.646679878234863 11.594136238098145 8.218488693237305 L11.594136238098145 8.218488693237305"></path>
<path fill="none" stroke="black" stroke-width=".3" stroke-opacity="1.0"  filling="0" d="M18.890182495117188 8.937335968017578 L19.02259063720703 9.419231414794922 C17.305185317993164 9.010424613952637 17.12407684326172 8.014245986938477 15.624317169189453 7.110137462615967 C14.302488327026367 6.313292026519775 13.062448501586914 5.937389373779297 11.492616653442383 5.93342399597168 C8.909732818603516 5.9268999099731445 7.354462146759033 7.8931379318237305 4.987560272216797 7.786704063415527 L5.315016269683838 7.418856143951416 C6.691120624542236 6.255575180053711 8.312253952026367 5.503272533416748 9.977469444274902 5.19497013092041 C11.642684936523438 4.8866682052612305 13.351984024047852 5.022366046905518 14.904417991638184 5.635086536407471 C16.456851959228516 6.247807025909424 17.8524227142334 7.337549209594727 18.890182495117188 8.937335968017578 L18.890182495117188 8.937335968017578"></path>
<path fill="none" stroke="black" stroke-width=".3" stroke-opacity="1.0"  filling="0" d="M18.001127243041992 11.261063575744629 L18.14023208618164 11.564111709594727 L17.11142349243164 14.468879699707031 C16.80289649963379 14.811734199523926 16.323320388793945 15.040694236755371 15.862728118896484 15.065040588378906 L16.72564697265625 12.625967025756836 C14.916314125061035 13.397798538208008 12.83810043334961 13.82442855834961 10.805044174194336 13.744318962097168 C8.771988868713379 13.664209365844727 6.784091472625732 13.077360153198242 5.155392646789551 11.82223129272461 L4.887120246887207 11.571239471435547 L5.053656101226807 11.243568420410156 C6.302816390991211 9.408720016479492 8.056052207946777 8.02054500579834 9.989944458007812 7.472636699676514 C11.923835754394531 6.924727916717529 14.038383483886719 7.217085838317871 16.010168075561523 8.743304252624512 C16.92238998413086 9.449390411376953 17.363887786865234 10.309515953063965 18.001127243041992 11.261063575744629 L18.001127243041992 11.261063575744629"></path>
<path fill="none" stroke="black" stroke-width=".3" stroke-opacity="1.0"  filling="0" d="M9.598943710327148 12.270647048950195 L9.598943710327148 12.270647048950195 C9.570648193359375 12.376343727111816 9.542352676391602 12.482039451599121 9.514057159423828 12.587736129760742 L9.514057159423828 12.587736129760742 C8.694661140441895 12.39574909210205 7.880649089813232 12.167755126953125 7.093344211578369 11.870399475097656 L7.093344211578369 11.870399475097656 C7.920984745025635 12.044669151306152 8.759326934814453 12.16865348815918 9.598943710327148 12.270647048950195 L9.598943710327148 12.270647048950195"></path>
<path fill="none" stroke="black" stroke-width=".3" stroke-opacity="1.0"  filling="0" d="M13.509623527526855 12.277992248535156 L13.509623527526855 12.277992248535156 C14.325878143310547 12.186991691589355 15.141040802001953 12.07626724243164 15.947615623474121 11.92137622833252 L15.947615623474121 11.92137622833252 C15.181928634643555 12.210273742675781 14.388601303100586 12.427199363708496 13.590407371520996 12.607823371887207 L13.590407371520996 12.607823371887207 C13.595559120178223 12.494747161865234 13.537906646728516 12.387595176696777 13.509623527526855 12.277992248535156 L13.509623527526855 12.277992248535156"></path>
<path fill="none" stroke="black" stroke-width=".3" stroke-opacity="1.0"  filling="0" d="M13.838592529296875 18.411527633666992 L13.838592529296875 18.411527633666992 C14.352653503417969 17.3906307220459 14.93207836151123 16.383342742919922 15.679343223571777 15.518424034118652 L15.679343223571777 15.518424034118652 C16.35884666442871 16.304819107055664 17.387365341186523 17.320274353027344 17.520313262939453 18.411527633666992 C17.72655487060547 20.104385375976562 15.403158187866211 20.738550186157227 14.377781867980957 19.713172912597656 C14.045701026916504 19.381092071533203 14.018321990966797 18.845409393310547 13.838592529296875 18.411527633666992 L13.838592529296875 18.411527633666992"></path></svg>