<svg xmlns="http://www.w3.org/2000/svg" viewBox="0.0 0.0 24.0 24.0" height="200px" width="200px"><path fill="none" stroke="black" stroke-width=".3" stroke-opacity="1.0"  filling="0" d="M10.825392723083496 4.025064945220947 L10.825392723083496 4.025064945220947 C10.088950157165527 3.5819361209869385 13.219878196716309 3.4236345291137695 10.825392723083496 4.025064945220947 L10.825392723083496 4.025064945220947"></path>
<path fill="none" stroke="black" stroke-width=".3" stroke-opacity="1.0"  filling="0" d="M12.65728759765625 4.710432529449463 L12.65728759765625 4.710432529449463 C12.598247528076172 4.674288272857666 12.528797149658203 4.651267051696777 12.480167388916016 4.601999759674072 C10.806156158447266 2.9060587882995605 13.571555137634277 4.488927364349365 12.65728759765625 4.710432529449463 L12.65728759765625 4.710432529449463"></path>
<path fill="none" stroke="black" stroke-width=".3" stroke-opacity="1.0"  filling="0" d="M10.019280433654785 5.11348819732666 L10.019280433654785 5.11348819732666 C9.083795547485352 4.995026111602783 11.503335952758789 2.9640932083129883 10.211952209472656 4.9635844230651855 C10.167804718017578 5.03193998336792 10.083504676818848 5.063520431518555 10.019280433654785 5.11348819732666 L10.019280433654785 5.11348819732666"></path>
<path fill="none" stroke="black" stroke-width=".3" stroke-opacity="1.0"  filling="0" d="M12.722304344177246 6.404304027557373 L12.722304344177246 6.404304027557373 C11.867839813232422 6.236814022064209 13.229981422424316 3.967499256134033 13.072224617004395 5.4288482666015625 C13.035148620605469 5.772292613983154 13.009467124938965 6.21229887008667 12.722304344177246 6.404304027557373 L12.722304344177246 6.404304027557373"></path>
<path fill="none" stroke="black" stroke-width=".3" stroke-opacity="1.0"  filling="0" d="M10.137432098388672 6.475152492523193 L10.137432098388672 6.475152492523193 C10.07702350616455 6.4366326332092285 9.982528686523438 6.426226615905762 9.956207275390625 6.359592437744141 C9.035876274108887 4.029724597930908 10.995622634887695 6.290139675140381 10.137432098388672 6.475152492523193 L10.137432098388672 6.475152492523193"></path>
<path fill="none" stroke="black" stroke-width=".3" stroke-opacity="1.0"  filling="0" d="M11.747063636779785 7.332888126373291 L11.747063636779785 7.332888126373291 C10.342028617858887 6.268418312072754 14.775629043579102 6.9209885597229 11.747063636779785 7.332888126373291 L11.747063636779785 7.332888126373291"></path>
<path fill="none" stroke="black" stroke-width=".3" stroke-opacity="1.0"  filling="0" d="M11.15652084350586 7.35146427154541 L11.15652084350586 7.35146427154541 C8.14932632446289 7.024287223815918 12.496222496032715 6.266017436981201 11.15652084350586 7.35146427154541 L11.15652084350586 7.35146427154541"></path>
<path fill="none" stroke="black" stroke-width=".3" stroke-opacity="1.0"  filling="0" d="M12.205415725708008 8.359319686889648 L12.205415725708008 8.359319686889648 C9.5979642868042 8.219185829162598 13.023545265197754 7.616302967071533 12.205415725708008 8.359319686889648 L12.205415725708008 8.359319686889648"></path>
<path fill="none" stroke="black" stroke-width=".3" stroke-opacity="1.0"  filling="0" d="M10.016256332397461 8.401008605957031 L10.016256332397461 8.401008605957031 C9.161577224731445 7.649414539337158 12.657150268554688 8.226400375366211 10.016256332397461 8.401008605957031 L10.016256332397461 8.401008605957031"></path>
<path fill="none" stroke="black" stroke-width=".3" stroke-opacity="1.0"  filling="0" d="M13.570751190185547 8.63148021697998 L13.570751190185547 8.63148021697998 C10.876083374023438 8.199600219726562 14.538151741027832 7.929426670074463 13.570751190185547 8.63148021697998 L13.570751190185547 8.63148021697998"></path>
<path fill="none" stroke="black" stroke-width=".3" stroke-opacity="1.0"  filling="0" d="M8.664312362670898 8.72976016998291 L8.664312362670898 8.72976016998291 C7.658680438995361 8.046819686889648 11.370563507080078 8.220335006713867 8.664312362670898 8.72976016998291 L8.664312362670898 8.72976016998291"></path>
<path fill="none" stroke="black" stroke-width=".3" stroke-opacity="1.0"  filling="0" d="M14.75875186920166 9.330240249633789 L14.75875186920166 9.330240249633789 C12.16012191772461 8.179097175598145 15.946499824523926 8.876670837402344 14.75875186920166 9.330240249633789 L14.75875186920166 9.330240249633789"></path>
<path fill="none" stroke="black" stroke-width=".3" stroke-opacity="1.0"  filling="0" d="M7.559256553649902 9.542783737182617 L7.559256553649902 9.542783737182617 C6.307409763336182 9.158910751342773 10.08444595336914 8.19448184967041 7.559256553649902 9.542783737182617 L7.559256553649902 9.542783737182617"></path>
<path fill="none" stroke="black" stroke-width=".3" stroke-opacity="1.0"  filling="0" d="M15.342167854309082 10.584551811218262 L15.342167854309082 10.584551811218262 C15.280391693115234 10.542287826538086 15.192007064819336 10.523834228515625 15.156839370727539 10.457759857177734 C13.96312427520752 8.214975357055664 16.29680633544922 10.402709007263184 15.342167854309082 10.584551811218262 L15.342167854309082 10.584551811218262"></path>
<path fill="none" stroke="black" stroke-width=".3" stroke-opacity="1.0"  filling="0" d="M7.033944129943848 10.829927444458008 L7.033944129943848 10.829927444458008 C6.115191459655762 10.681124687194824 8.354589462280273 8.518974304199219 7.2235918045043945 10.691904067993164 C7.187493801116943 10.76125717163086 7.0971598625183105 10.783919334411621 7.033944129943848 10.829927444458008 L7.033944129943848 10.829927444458008"></path>
<path fill="none" stroke="black" stroke-width=".3" stroke-opacity="1.0"  filling="0" d="M9.148799896240234 11.373600006103516 L9.148799896240234 11.373600006103516 C8.85133171081543 11.373600006103516 8.956875801086426 10.855927467346191 8.958720207214355 10.775712013244629 L8.958720207214355 10.775712013244629 C8.73151683807373 10.760734558105469 8.990654945373535 9.950742721557617 9.144695281982422 10.118425369262695 C9.490053176879883 10.494369506835938 9.564590454101562 10.967290878295898 9.148799896240234 11.373600006103516 L9.148799896240234 11.373600006103516"></path>
<path fill="none" stroke="black" stroke-width=".3" stroke-opacity="1.0"  filling="0" d="M13.570535659790039 11.706024169921875 L13.570535659790039 11.706024169921875 C13.30955982208252 11.451559066772461 13.0918550491333 10.451394081115723 13.60747241973877 10.518239974975586 L13.60747241973877 10.518239974975586 C13.265705108642578 10.096292495727539 13.854429244995117 9.805717468261719 14.263032913208008 10.829927444458008 C14.492570877075195 11.405289649963379 13.816059112548828 10.85102653503418 13.752622604370117 10.740503311157227 L13.752622604370117 10.740503311157227 C13.75995922088623 11.0679349899292 13.898049354553223 11.706024169921875 13.570535659790039 11.706024169921875 L13.570535659790039 11.706024169921875"></path>
<path fill="none" stroke="black" stroke-width=".3" stroke-opacity="1.0"  filling="0" d="M15.826656341552734 11.89243221282959 L15.826656341552734 11.89243221282959 C15.763655662536621 11.847000122070312 15.673372268676758 11.825109481811523 15.637655258178711 11.756134986877441 C14.507612228393555 9.573857307434082 16.7430419921875 11.744430541992188 15.826656341552734 11.89243221282959 L15.826656341552734 11.89243221282959"></path>
<path fill="none" stroke="black" stroke-width=".3" stroke-opacity="1.0"  filling="0" d="M8.168376922607422 12.00864028930664 L8.168376922607422 12.00864028930664 C7.261347770690918 11.808109283447266 9.724947929382324 9.849528312683105 8.348952293395996 11.893511772155762 C8.309087753295898 11.952728271484375 8.228569030761719 11.970264434814453 8.168376922607422 12.00864028930664 L8.168376922607422 12.00864028930664"></path>
<path fill="none" stroke="black" stroke-width=".3" stroke-opacity="1.0"  filling="0" d="M6.692448139190674 12.179927825927734 L6.692448139190674 12.179927825927734 C5.757027626037598 12.092785835266113 7.779489517211914 9.755046844482422 6.888144016265869 12.015336036682129 C6.856874465942383 12.094629287719727 6.7576799392700195 12.1250638961792 6.692448139190674 12.179927825927734 L6.692448139190674 12.179927825927734"></path>
<path fill="none" stroke="black" stroke-width=".3" stroke-opacity="1.0"  filling="0" d="M14.674296379089355 12.390311241149902 L14.674296379089355 12.390311241149902 C14.612447738647461 12.347975730895996 14.52661418914795 12.327987670898438 14.488751411437988 12.263304710388184 C13.246028900146484 10.140277862548828 15.587143898010254 12.217620849609375 14.674296379089355 12.390311241149902 L14.674296379089355 12.390311241149902"></path>
<path fill="none" stroke="black" stroke-width=".3" stroke-opacity="1.0"  filling="0" d="M9.124824523925781 12.767879486083984 L9.124824523925781 12.767879486083984 C8.176761627197266 12.767879486083984 9.828939437866211 10.201166152954102 9.323760986328125 12.571751594543457 C9.304352760314941 12.662826538085938 9.191136360168457 12.702503204345703 9.124824523925781 12.767879486083984 L9.124824523925781 12.767879486083984"></path>
<path fill="none" stroke="black" stroke-width=".3" stroke-opacity="1.0"  filling="0" d="M13.60531234741211 13.100735664367676 L13.60531234741211 13.100735664367676 C13.538928031921387 13.036080360412598 13.47254467010498 12.971424102783203 13.406160354614258 12.906768798828125 L13.386503219604492 12.10972785949707 C13.478043556213379 12.013707160949707 13.688304901123047 12.008520126342773 13.78437614440918 12.100008010864258 L13.804248809814453 12.897047996520996 C13.738761901855469 12.965740203857422 13.700218200683594 13.100735664367676 13.60531234741211 13.100735664367676 L13.60531234741211 13.100735664367676"></path>
<path fill="none" stroke="black" stroke-width=".3" stroke-opacity="1.0"  filling="0" d="M16.173551559448242 13.24091911315918 L16.173551559448242 13.24091911315918 C16.108104705810547 13.185047149658203 16.008758544921875 13.153365135192871 15.977209091186523 13.073304176330566 C15.085432052612305 10.810257911682129 17.113235473632812 13.170166015625 16.173551559448242 13.24091911315918 L16.173551559448242 13.24091911315918"></path>
<path fill="none" stroke="black" stroke-width=".3" stroke-opacity="1.0"  filling="0" d="M7.707000255584717 13.321919441223145 L7.707000255584717 13.321919441223145 C6.770995140075684 13.221125602722168 8.930435180664062 10.960283279418945 7.901832580566406 13.164888381958008 C7.866564750671387 13.240477561950684 7.771944522857666 13.269576072692871 7.707000255584717 13.321919441223145 L7.707000255584717 13.321919441223145"></path>
<path fill="none" stroke="black" stroke-width=".3" stroke-opacity="1.0"  filling="0" d="M6.5829362869262695 13.567296028137207 L6.5829362869262695 13.567296028137207 C6.3756561279296875 13.366549491882324 6.110915184020996 12.324180603027344 6.62980842590332 12.374544143676758 C6.987475872039795 12.409258842468262 6.888845443725586 13.547558784484863 6.5829362869262695 13.567296028137207 L6.5829362869262695 13.567296028137207"></path>
<path fill="none" stroke="black" stroke-width=".3" stroke-opacity="1.0"  filling="0" d="M15.042791366577148 13.732536315917969 L15.042791366577148 13.732536315917969 C14.976911544799805 13.67349624633789 14.877609252929688 13.637710571289062 14.845151901245117 13.555416107177734 C13.954080581665039 11.296116828918457 15.990543365478516 13.695002555847168 15.042791366577148 13.732536315917969 L15.042791366577148 13.732536315917969"></path>
<path fill="none" stroke="black" stroke-width=".3" stroke-opacity="1.0"  filling="0" d="M9.110136032104492 14.16280746459961 L9.110136032104492 14.16280746459961 C8.160602569580078 14.16280746459961 9.801827430725098 11.595425605773926 9.309288024902344 13.965383529663086 C9.290267944335938 14.056902885437012 9.176520347595215 14.096999168395996 9.110136032104492 14.16280746459961 L9.110136032104492 14.16280746459961"></path>
<path fill="none" stroke="black" stroke-width=".3" stroke-opacity="1.0"  filling="0" d="M13.6364164352417 14.495231628417969 L13.6364164352417 14.495231628417969 C13.570032119750977 14.43028736114502 13.457070350646973 14.391131401062012 13.437263488769531 14.300399780273438 C12.927884101867676 11.967010498046875 14.585481643676758 14.442622184753418 13.6364164352417 14.495231628417969 L13.6364164352417 14.495231628417969"></path>
<path fill="none" stroke="black" stroke-width=".3" stroke-opacity="1.0"  filling="0" d="M16.081104278564453 14.605823516845703 L16.081104278564453 14.605823516845703 C15.720296859741211 14.501577377319336 16.026514053344727 13.960792541503906 16.03250503540039 13.711584091186523 L16.031639099121094 13.640735626220703 C16.123281478881836 13.544715881347656 16.333709716796875 13.539807319641113 16.429729461669922 13.631448745727539 L16.430376052856445 13.711584091186523 C16.42242431640625 14.066207885742188 16.408733367919922 14.42441177368164 16.081104278564453 14.605823516845703 L16.081104278564453 14.605823516845703"></path>
<path fill="none" stroke="black" stroke-width=".3" stroke-opacity="1.0"  filling="0" d="M7.530528545379639 14.686607360839844 L7.530528545379639 14.686607360839844 C7.23155403137207 14.593428611755371 7.4479594230651855 14.023903846740723 7.433544158935547 13.753055572509766 L7.433976173400879 13.712016105651855 C7.528636455535889 13.618895530700684 7.739873886108398 13.623138427734375 7.832280158996582 13.718496322631836 L7.83184814453125 13.75327205657959 C7.850284099578857 14.101936340332031 7.887129783630371 14.50151252746582 7.530528545379639 14.686607360839844 L7.530528545379639 14.686607360839844"></path>
<path fill="none" stroke="black" stroke-width=".3" stroke-opacity="1.0"  filling="0" d="M11.407296180725098 14.699783325195312 L11.009424209594727 14.677536010742188 C11.16241455078125 13.090298652648926 12.32746410369873 14.77929401397705 11.455032348632812 14.492639541625977 L11.455032348632812 14.492639541625977 C11.439120292663574 14.561687469482422 11.423208236694336 14.630735397338867 11.407296180725098 14.699783325195312 L11.407296180725098 14.699783325195312"></path>
<path fill="none" stroke="black" stroke-width=".3" stroke-opacity="1.0"  filling="0" d="M7.011047840118408 14.837591171264648 L7.011047840118408 14.837591171264648 C6.697925567626953 14.757537841796875 6.124473571777344 13.851778984069824 6.605184078216553 13.766448020935059 C6.951044082641602 13.70505428314209 7.335348606109619 14.645979881286621 7.011047840118408 14.837591171264648 L7.011047840118408 14.837591171264648"></path>
<path fill="none" stroke="black" stroke-width=".3" stroke-opacity="1.0"  filling="0" d="M15.579119682312012 14.861783981323242 L15.579119682312012 14.861783981323242 C15.219400405883789 14.837186813354492 14.669228553771973 13.997759819030762 15.02400016784668 13.933416366577148 C15.367951393127441 13.8710355758667 15.867581367492676 14.60740852355957 15.579119682312012 14.861783981323242 L15.579119682312012 14.861783981323242"></path>
<path fill="none" stroke="black" stroke-width=".3" stroke-opacity="1.0"  filling="0" d="M9.104520797729492 15.554495811462402 L9.104520797729492 15.554495811462402 C8.742598533630371 15.196500778198242 8.746378898620605 14.719877243041992 9.106464385986328 14.361743927001953 L9.106464385986328 14.361743927001953 C9.589905738830566 14.361743927001953 9.343153953552246 15.313791275024414 9.104520797729492 15.554495811462402 L9.104520797729492 15.554495811462402"></path>
<path fill="none" stroke="black" stroke-width=".3" stroke-opacity="1.0"  filling="0" d="M13.660175323486328 15.89016056060791 L13.660175323486328 15.89016056060791 C13.593791007995605 15.824712753295898 13.480441093444824 15.784993171691895 13.461023330688477 15.693816184997559 C12.955887794494629 13.321884155273438 14.608439445495605 15.89016056060791 13.660175323486328 15.89016056060791 L13.660175323486328 15.89016056060791"></path>
<path fill="none" stroke="black" stroke-width=".3" stroke-opacity="1.0"  filling="0" d="M11.793071746826172 15.977855682373047 L11.793071746826172 15.977855682373047 C11.727191925048828 15.918815612792969 11.619790077209473 15.885780334472656 11.59543228149414 15.800735473632812 C10.921011924743652 13.446006774902344 12.730032920837402 15.941152572631836 11.793071746826172 15.977855682373047 L11.793071746826172 15.977855682373047"></path>
<path fill="none" stroke="black" stroke-width=".3" stroke-opacity="1.0"  filling="0" d="M11.028647422790527 16.280902862548828 L11.028647422790527 16.280902862548828 C10.095069885253906 16.216218948364258 11.962544441223145 13.780969619750977 11.225639343261719 16.109615325927734 C11.199386596679688 16.192575454711914 11.094311714172363 16.223806381225586 11.028647422790527 16.280902862548828 L11.028647422790527 16.280902862548828"></path>
<path fill="none" stroke="black" stroke-width=".3" stroke-opacity="1.0"  filling="0" d="M9.111432075500488 16.951366424560547 L9.111432075500488 16.951366424560547 C9.045120239257812 16.885774612426758 8.931299209594727 16.845949172973633 8.912496566772461 16.754592895507812 C8.397337913513184 14.251612663269043 10.07205867767334 17.039257049560547 9.111432075500488 16.951366424560547 L9.111432075500488 16.951366424560547"></path>
<path fill="none" stroke="black" stroke-width=".3" stroke-opacity="1.0"  filling="0" d="M13.670111656188965 17.284439086914062 L13.670111656188965 17.284439086914062 C12.247210502624512 15.861531257629395 15.085235595703125 15.86778450012207 13.670111656188965 17.284439086914062 L13.670111656188965 17.284439086914062"></path>
<path fill="none" stroke="black" stroke-width=".3" stroke-opacity="1.0"  filling="0" d="M11.95312786102295 17.36414337158203 L11.95312786102295 17.36414337158203 C11.887248039245605 17.30560874938965 11.780818939208984 17.272947311401367 11.755488395690918 17.18853759765625 C11.054224014282227 14.851680755615234 12.89068603515625 17.31256866455078 11.95312786102295 17.36414337158203 L11.95312786102295 17.36414337158203"></path>
<path fill="none" stroke="black" stroke-width=".3" stroke-opacity="1.0"  filling="0" d="M10.831439971923828 17.662654876708984 L10.831439971923828 17.662654876708984 C10.73138427734375 17.65578842163086 10.6943941116333 17.515666961669922 10.634231567382812 17.4354248046875 L10.747416496276855 16.645729064941406 C10.853719711303711 16.566204071044922 11.062091827392578 16.59623146057129 11.141615867614746 16.70253562927246 L11.02843189239502 17.49180030822754 C10.962767601013184 17.548751831054688 10.897104263305664 17.605703353881836 10.831439971923828 17.662654876708984 L10.831439971923828 17.662654876708984"></path>
<path fill="none" stroke="black" stroke-width=".3" stroke-opacity="1.0"  filling="0" d="M9.13929557800293 18.344999313354492 L9.13929557800293 18.344999313354492 C9.072983741760254 18.280702590942383 8.960205078125 18.242319107055664 8.940360069274902 18.152111053466797 C8.403424263000488 15.711441040039062 10.100812911987305 18.344999313354492 9.13929557800293 18.344999313354492 L9.13929557800293 18.344999313354492"></path>
<path fill="none" stroke="black" stroke-width=".3" stroke-opacity="1.0"  filling="0" d="M13.655207633972168 18.678287506103516 L13.655207633972168 18.678287506103516 C12.694438934326172 18.678287506103516 14.375808715820312 16.042842864990234 13.854143142700195 18.484535217285156 C13.834802627563477 18.575057983398438 13.721519470214844 18.61370277404785 13.655207633972168 18.678287506103516 L13.655207633972168 18.678287506103516"></path>
<path fill="none" stroke="black" stroke-width=".3" stroke-opacity="1.0"  filling="0" d="M12.11318302154541 18.750646591186523 L12.11318302154541 18.750646591186523 C12.047303199768066 18.691606521606445 11.940780639648438 18.658313751220703 11.915544509887695 18.57352638244629 C11.21578598022461 16.22247314453125 13.051831245422363 18.723100662231445 12.11318302154541 18.750646591186523 L12.11318302154541 18.750646591186523"></path>
<path fill="none" stroke="black" stroke-width=".3" stroke-opacity="1.0"  filling="0" d="M10.639415740966797 19.045486450195312 L10.639415740966797 19.045486450195312 C9.70331859588623 18.97477149963379 11.571039199829102 16.555112838745117 10.836623191833496 18.871824264526367 C10.81015396118164 18.955320358276367 10.705151557922363 18.987598419189453 10.639415740966797 19.045486450195312 L10.639415740966797 19.045486450195312"></path>
<path fill="none" stroke="black" stroke-width=".3" stroke-opacity="1.0"  filling="0" d="M9.220295906066895 19.737119674682617 L9.220295906066895 19.737119674682617 C9.154343605041504 19.678007125854492 9.044751167297363 19.645492553710938 9.022439956665039 19.559783935546875 C8.405702590942383 17.19059181213379 10.155077934265137 19.700096130371094 9.220295906066895 19.737119674682617 L9.220295906066895 19.737119674682617"></path>
<path fill="none" stroke="black" stroke-width=".3" stroke-opacity="1.0"  filling="0" d="M13.549583435058594 20.067169189453125 L13.549583435058594 20.067169189453125 C13.446451187133789 20.056039810180664 13.410539627075195 19.911893844604492 13.355183601379395 19.824167251586914 L13.361448287963867 19.79479217529297 C13.47310733795166 18.655921936035156 13.86988353729248 18.69736099243164 13.752408027648926 19.86952781677246 L13.743767738342285 19.912078857421875 C13.67903995513916 19.963775634765625 13.614311218261719 20.015472412109375 13.549583435058594 20.067169189453125 L13.549583435058594 20.067169189453125"></path>
<path fill="none" stroke="black" stroke-width=".3" stroke-opacity="1.0"  filling="0" d="M12.256608009338379 20.138233184814453 L12.256608009338379 20.138233184814453 C12.054161071777344 19.978761672973633 11.691094398498535 18.99440574645996 12.156599998474121 18.948719024658203 C12.546083450317383 18.910493850708008 12.565235137939453 20.101234436035156 12.256608009338379 20.138233184814453 L12.256608009338379 20.138233184814453"></path>
<path fill="none" stroke="black" stroke-width=".3" stroke-opacity="1.0"  filling="0" d="M10.408512115478516 20.41320037841797 L10.408512115478516 20.41320037841797 C10.06467056274414 20.32413673400879 10.307085037231445 19.213499069213867 10.588440895080566 19.24247932434082 C11.037659645080566 19.288747787475586 10.590311050415039 20.306100845336914 10.408512115478516 20.41320037841797 L10.408512115478516 20.41320037841797"></path>
<path fill="none" stroke="black" stroke-width=".3" stroke-opacity="1.0"  filling="0" d="M9.898751258850098 20.75815200805664 L9.898751258850098 20.75815200805664 C7.603097915649414 19.003089904785156 10.83799934387207 20.709001541137695 9.898751258850098 20.75815200805664 L9.898751258850098 20.75815200805664"></path>
<path fill="none" stroke="black" stroke-width=".3" stroke-opacity="1.0"  filling="0" d="M12.896831512451172 20.75815200805664 L12.896831512451172 20.75815200805664 C11.200600624084473 20.169265747070312 14.725276947021484 19.98634147644043 12.896831512451172 20.75815200805664 L12.896831512451172 20.75815200805664"></path></svg>