<svg xmlns="http://www.w3.org/2000/svg" viewBox="0.0 0.0 24.0 24.0" height="200px" width="200px"><path fill="none" stroke="black" stroke-width=".3" stroke-opacity="1.0"  filling="0" d="M11.996624946594238 4.959750175476074 L11.996624946594238 4.959750175476074 C14.549894332885742 5.302660942077637 16.702363967895508 6.084739685058594 18.0808162689209 8.44646167755127 C19.428081512451172 10.754749298095703 19.24239730834961 13.40319538116455 18.052213668823242 15.474570274353027 C16.862030029296875 17.54594612121582 14.667350769042969 19.04024887084961 11.996624946594238 19.04024887084961 C9.32572078704834 19.04024887084961 7.133700370788574 17.545337677001953 5.945523262023926 15.47365951538086 C4.757346153259277 13.40198040008545 4.573012351989746 10.753534317016602 5.917481422424316 8.44646167755127 C7.293893337249756 6.084576606750488 9.444310188293457 5.302638053894043 11.996624946594238 4.959750175476074 L11.996624946594238 4.959750175476074"></path>
<path fill="none" stroke="black" stroke-width=".3" stroke-opacity="1.0"  filling="0" d="M11.996624946594238 6.127500534057617 L11.996624946594238 6.127500534057617 C13.94717025756836 6.443474292755127 15.493087768554688 6.837528705596924 16.73381805419922 8.535439491271973 C18.12451934814453 10.438579559326172 18.1190128326416 12.771163940429688 17.176435470581055 14.627960205078125 C16.233858108520508 16.484756469726562 14.354209899902344 17.86576271057129 11.996624946594238 17.86574935913086 C9.639142036437988 17.86573600769043 7.762203216552734 16.48414421081543 6.821501731872559 14.62705135345459 C5.880800724029541 12.76995849609375 5.876337051391602 10.43736457824707 7.263805389404297 8.535346031188965 C8.502650260925293 6.837068557739258 10.047048568725586 6.443414688110352 11.996624946594238 6.127500534057617 L11.996624946594238 6.127500534057617"></path>
<path fill="none" stroke="black" stroke-width=".3" stroke-opacity="1.0"  filling="0" d="M9.505875587463379 9.651000022888184 L9.505875587463379 9.651000022888184 C9.847875595092773 9.993000030517578 10.531874656677246 10.193339347839355 10.531874656677246 10.677000045776367 C10.531874656677246 11.732999801635742 8.479875564575195 12.357000350952148 8.479875564575195 10.677000045776367 C8.479875564575195 10.193339347839355 9.163875579833984 9.993000030517578 9.505875587463379 9.651000022888184 L9.505875587463379 9.651000022888184"></path>
<path fill="none" stroke="black" stroke-width=".3" stroke-opacity="1.0"  filling="0" d="M14.494124412536621 9.651000022888184 L14.494124412536621 9.651000022888184 C14.836124420166016 9.993000030517578 15.520124435424805 10.193339347839355 15.520124435424805 10.677000045776367 C15.520124435424805 12.357000350952148 13.468125343322754 11.732999801635742 13.468125343322754 10.677000045776367 C13.468125343322754 10.193339347839355 14.152124404907227 9.993000030517578 14.494124412536621 9.651000022888184 L14.494124412536621 9.651000022888184"></path>
<path fill="none" stroke="black" stroke-width=".3" stroke-opacity="1.0"  filling="0" d="M12.205875396728516 13.916999816894531 L12.205875396728516 13.916999816894531 C13.162056922912598 14.13665771484375 14.087698936462402 14.607135772705078 14.831624984741211 15.246749877929688 L9.168375015258789 16.765499114990234 C9.853524208068848 15.10484790802002 10.290323257446289 14.19818115234375 12.205875396728516 13.916999816894531 L12.205875396728516 13.916999816894531"></path></svg>