<svg xmlns="http://www.w3.org/2000/svg" viewBox="0.0 0.0 24.0 24.0" height="200px" width="200px"><path fill="none" stroke="black" stroke-width=".3" stroke-opacity="1.0"  filling="0" d="M19.029361724853516 2.9462404251098633 L19.029361724853516 2.9462404251098633 C19.03240203857422 2.985600233078003 19.03544044494629 3.0249598026275635 19.038480758666992 3.064319610595703 L19.038480758666992 8.539440155029297 L19.038480758666992 14.01456069946289 L19.038480758666992 19.489681243896484 C18.77560043334961 19.75240135192871 18.512720108032227 20.015119552612305 18.249839782714844 20.27783966064453 L12.319679260253906 20.27783966064453 L6.389519691467285 20.27783966064453 C6.214639663696289 20.506000518798828 6.039760112762451 20.734159469604492 5.864880084991455 20.96232032775879 L5.864880084991455 20.96232032775879 C7.982243537902832 20.969104766845703 10.099658966064453 20.96978187561035 12.217076301574707 20.968093872070312 C14.334493637084961 20.96640396118164 16.45191192626953 20.962352752685547 18.56928253173828 20.959678649902344 L18.56928253173828 20.959678649902344 C18.352882385253906 21.18631935119629 18.1364803314209 21.4129581451416 17.920080184936523 21.639598846435547 L11.815799713134766 21.632160186767578 L5.711519718170166 21.62472152709961 C5.461519718170166 21.346721649169922 5.211519718170166 21.068721771240234 4.961519718170166 20.790721893310547 L4.961519718170166 15.065441131591797 L4.961519718170166 9.340161323547363 L4.961519718170166 3.6148805618286133 C5.322719573974609 3.1699202060699463 5.683919906616211 2.7249600887298584 6.045119762420654 2.2799997329711914 L12.158400535583496 2.277599811553955 L18.27168083190918 2.2751998901367188 C18.359121322631836 2.293839693069458 18.44655990600586 2.3124797344207764 18.534000396728516 2.3311195373535156 L18.534000396728516 2.3311195373535156 C18.439199447631836 2.3125598430633545 18.34440040588379 2.2939999103546143 18.24959945678711 2.275440216064453 L18.24959945678711 2.275440216064453 C18.636323928833008 2.3150546550750732 18.940120697021484 2.559027910232544 19.029361724853516 2.9462404251098633 L19.029361724853516 2.9462404251098633"></path>
<path fill="none" stroke="black" stroke-width=".3" stroke-opacity="1.0"  filling="0" d="M10.639679908752441 6.977039813995361 L10.639679908752441 6.977039813995361 C10.564080238342285 7.030799865722656 10.488479614257812 7.084559917449951 10.412879943847656 7.138319969177246 L9.453839302062988 6.8054399490356445 C9.302639961242676 6.8054399490356445 9.151439666748047 6.8054399490356445 9.000240325927734 6.8054399490356445 L8.041199684143066 7.138319969177246 C7.965599536895752 7.084559917449951 7.889999866485596 7.030799865722656 7.814399719238281 6.977039813995361 L7.814399719238281 1.9245595932006836 C7.894399642944336 1.844559669494629 7.974399566650391 1.7645597457885742 8.054399490356445 1.6845598220825195 L10.39944076538086 1.6845598220825195 C10.479440689086914 1.7645597457885742 10.559440612792969 1.844559669494629 10.639440536499023 1.9245595932006836 L10.639679908752441 6.977039813995361"></path>
<path fill="none" stroke="black" stroke-width=".3" stroke-opacity="1.0"  filling="0" d="M15.514320373535156 9.432479858398438 L15.514320373535156 9.432479858398438 C15.474320411682129 9.472479820251465 15.434320449829102 9.512479782104492 15.394320487976074 9.55247974395752 L8.916000366210938 9.55247974395752 C8.87600040435791 9.512479782104492 8.835999488830566 9.472479820251465 8.795999526977539 9.432479858398438 L8.795999526977539 9.113759994506836 C8.835999488830566 9.073760032653809 8.87600040435791 9.033759117126465 8.916000366210938 8.993759155273438 L15.39408016204834 8.993759155273438 C15.434080123901367 9.033759117126465 15.474080085754395 9.073760032653809 15.514080047607422 9.113759994506836 L15.514320373535156 9.432479858398438"></path>
<path fill="none" stroke="black" stroke-width=".3" stroke-opacity="1.0"  filling="0" d="M17.353919982910156 10.729920387268066 L17.353919982910156 10.729920387268066 C17.313919067382812 10.769920349121094 17.2739200592041 10.809920310974121 17.233919143676758 10.849920272827148 L12.155158996582031 10.849920272827148 L7.076399803161621 10.849920272827148 C7.036399841308594 10.809920310974121 6.996399879455566 10.769920349121094 6.956399917602539 10.729920387268066 L6.956399917602539 10.641119956970215 C6.996399879455566 10.601119995117188 7.036399841308594 10.56112003326416 7.076399803161621 10.521120071411133 L12.155158996582031 10.521120071411133 L17.233919143676758 10.521120071411133 C17.2739200592041 10.56112003326416 17.313919067382812 10.601119995117188 17.353919982910156 10.641119956970215 L17.353919982910156 10.729920387268066"></path>
<path fill="none" stroke="black" stroke-width=".3" stroke-opacity="1.0"  filling="0" d="M17.353919982910156 11.450160026550293 L17.353919982910156 11.450160026550293 C17.313919067382812 11.49015998840332 17.2739200592041 11.530159950256348 17.233919143676758 11.570159912109375 L12.155158996582031 11.570159912109375 L7.076399803161621 11.570159912109375 C7.036399841308594 11.530159950256348 6.996399879455566 11.49015998840332 6.956399917602539 11.450160026550293 L6.956399917602539 11.361599922180176 C6.996399879455566 11.321599960327148 7.036399841308594 11.281599998474121 7.076399803161621 11.241600036621094 L12.155158996582031 11.241600036621094 L17.233919143676758 11.241600036621094 C17.2739200592041 11.281599998474121 17.313919067382812 11.321599960327148 17.353919982910156 11.361599922180176 L17.353919982910156 11.450160026550293"></path>
<path fill="none" stroke="black" stroke-width=".3" stroke-opacity="1.0"  filling="0" d="M17.353919982910156 12.170880317687988 L17.353919982910156 12.170880317687988 C17.313919067382812 12.210880279541016 17.2739200592041 12.250880241394043 17.233919143676758 12.29088020324707 L12.155158996582031 12.29088020324707 L7.076399803161621 12.29088020324707 C7.036399841308594 12.250880241394043 6.996399879455566 12.210880279541016 6.956399917602539 12.170880317687988 L6.956399917602539 12.082079887390137 C6.996399879455566 12.04207992553711 7.036399841308594 12.002079963684082 7.076399803161621 11.962080001831055 L12.155158996582031 11.962080001831055 L17.233919143676758 11.962080001831055 C17.2739200592041 12.002079963684082 17.313919067382812 12.04207992553711 17.353919982910156 12.082079887390137 L17.353919982910156 12.170880317687988"></path>
<path fill="none" stroke="black" stroke-width=".3" stroke-opacity="1.0"  filling="0" d="M17.353919982910156 12.891119956970215 L17.353919982910156 12.891119956970215 C17.313919067382812 12.931119918823242 17.2739200592041 12.971120834350586 17.233919143676758 13.011120796203613 L12.155158996582031 13.011120796203613 L7.076399803161621 13.011120796203613 C7.036399841308594 12.971120834350586 6.996399879455566 12.931119918823242 6.956399917602539 12.891119956970215 L6.956399917602539 12.802319526672363 C6.996399879455566 12.762319564819336 7.036399841308594 12.722319602966309 7.076399803161621 12.682319641113281 L12.155158996582031 12.682319641113281 L17.233919143676758 12.682319641113281 C17.2739200592041 12.722319602966309 17.313919067382812 12.762319564819336 17.353919982910156 12.802319526672363 L17.353919982910156 12.891119956970215"></path>
<path fill="none" stroke="black" stroke-width=".3" stroke-opacity="1.0"  filling="0" d="M17.353919982910156 13.611360549926758 L17.353919982910156 13.611360549926758 C17.313919067382812 13.651360511779785 17.2739200592041 13.691360473632812 17.233919143676758 13.73136043548584 L12.155158996582031 13.73136043548584 L7.076399803161621 13.73136043548584 C7.036399841308594 13.691360473632812 6.996399879455566 13.651360511779785 6.956399917602539 13.611360549926758 L6.956399917602539 13.523039817810059 C6.996399879455566 13.483039855957031 7.036399841308594 13.443039894104004 7.076399803161621 13.403039932250977 L12.155158996582031 13.403039932250977 L17.233919143676758 13.403039932250977 C17.2739200592041 13.443039894104004 17.313919067382812 13.483039855957031 17.353919982910156 13.523039817810059 L17.353919982910156 13.611360549926758"></path>
<path fill="none" stroke="black" stroke-width=".3" stroke-opacity="1.0"  filling="0" d="M17.353919982910156 14.331600189208984 L17.353919982910156 14.331600189208984 C17.313919067382812 14.371600151062012 17.2739200592041 14.411600112915039 17.233919143676758 14.451600074768066 L12.155158996582031 14.451600074768066 L7.076399803161621 14.451600074768066 C7.036399841308594 14.411600112915039 6.996399879455566 14.371600151062012 6.956399917602539 14.331600189208984 L6.956399917602539 14.243280410766602 C6.996399879455566 14.203280448913574 7.036399841308594 14.163280487060547 7.076399803161621 14.12328052520752 L12.155158996582031 14.12328052520752 L17.233919143676758 14.12328052520752 C17.2739200592041 14.163280487060547 17.313919067382812 14.203280448913574 17.353919982910156 14.243280410766602 L17.353919982910156 14.331600189208984"></path>
<path fill="none" stroke="black" stroke-width=".3" stroke-opacity="1.0"  filling="0" d="M17.353919982910156 15.052319526672363 L17.353919982910156 15.052319526672363 C17.313919067382812 15.09231948852539 17.2739200592041 15.132319450378418 17.233919143676758 15.172319412231445 L12.155158996582031 15.172319412231445 L7.076399803161621 15.172319412231445 C7.036399841308594 15.132319450378418 6.996399879455566 15.09231948852539 6.956399917602539 15.052319526672363 L6.956399917602539 14.963759422302246 C6.996399879455566 14.923759460449219 7.036399841308594 14.883759498596191 7.076399803161621 14.843759536743164 L12.155158996582031 14.843759536743164 L17.233919143676758 14.843759536743164 C17.2739200592041 14.883759498596191 17.313919067382812 14.923759460449219 17.353919982910156 14.963759422302246 L17.353919982910156 15.052319526672363"></path>
<path fill="none" stroke="black" stroke-width=".3" stroke-opacity="1.0"  filling="0" d="M17.353919982910156 15.772561073303223 L17.353919982910156 15.772561073303223 C17.313919067382812 15.81256103515625 17.2739200592041 15.852560997009277 17.233919143676758 15.892560958862305 L12.155158996582031 15.892560958862305 L7.076399803161621 15.892560958862305 C7.036399841308594 15.852560997009277 6.996399879455566 15.81256103515625 6.956399917602539 15.772561073303223 L6.956399917602539 15.684000968933105 C6.996399879455566 15.644001007080078 7.036399841308594 15.604000091552734 7.076399803161621 15.564000129699707 L12.155158996582031 15.564000129699707 L17.233919143676758 15.564000129699707 C17.2739200592041 15.604000091552734 17.313919067382812 15.644001007080078 17.353919982910156 15.684000968933105 L17.353919982910156 15.772561073303223"></path>
<path fill="none" stroke="black" stroke-width=".3" stroke-opacity="1.0"  filling="0" d="M17.92487907409668 16.882801055908203 L17.92487907409668 16.882801055908203 C17.684879302978516 17.1276798248291 17.44487953186035 17.372560501098633 17.204879760742188 17.61743927001953 L12.15503978729248 17.61743927001953 L7.105199337005615 17.61743927001953 C6.865199565887451 17.372560501098633 6.625199794769287 17.1276798248291 6.385200023651123 16.882801055908203 L6.385200023651123 10.570440292358398 L6.385200023651123 4.258080005645752 C6.625199794769287 4.013199806213379 6.865199565887451 3.768319606781006 7.105199337005615 3.523439407348633 L12.15503978729248 3.523439407348633 L17.204879760742188 3.523439407348633 C17.44487953186035 3.768319606781006 17.684879302978516 4.013199806213379 17.92487907409668 4.258080005645752 L17.92487907409668 10.570440292358398 L17.92487907409668 16.882801055908203"></path>
<path fill="none" stroke="black" stroke-width=".3" stroke-opacity="1.0"  filling="0" d="M12.155040740966797 19.526639938354492 L12.155040740966797 19.526639938354492 C10.800578117370605 18.172746658325195 13.509498596191406 18.172748565673828 12.155040740966797 19.526639938354492 L12.155040740966797 19.526639938354492"></path></svg>