<svg xmlns="http://www.w3.org/2000/svg" viewBox="0.0 0.0 24.0 24.0" height="200px" width="200px"><path fill="none" stroke="black" stroke-width=".3" stroke-opacity="1.0"  filling="0" d="M12.0 1.2001352310180664 L12.0 1.2001352310180664 C13.941368103027344 1.3746817111968994 15.759909629821777 1.8374528884887695 17.349258422851562 2.6943602561950684 C18.938608169555664 3.551267623901367 20.29876708984375 4.802310943603516 21.3233642578125 6.553402423858643 C22.357196807861328 8.320277214050293 22.802650451660156 10.21911907196045 22.761484146118164 12.073513984680176 C22.720319747924805 13.927908897399902 22.19253921508789 15.737857818603516 21.279905319213867 17.326946258544922 C20.367271423339844 18.916034698486328 19.069786071777344 20.284265518188477 17.489213943481445 21.25522232055664 C15.908641815185547 22.226181030273438 14.044981956481934 22.79986572265625 12.0 22.79986572265625 C9.955018997192383 22.79986572265625 8.09135913848877 22.226181030273438 6.510786533355713 21.25522232055664 C4.930213928222656 20.284265518188477 3.6327285766601562 18.91603660583496 2.720094919204712 17.326948165893555 C1.8074612617492676 15.737858772277832 1.279679298400879 13.927909851074219 1.2385143041610718 12.073514938354492 C1.197349190711975 10.219120025634766 1.6428009271621704 8.32027816772461 2.6766343116760254 6.553401947021484 C3.7012321949005127 4.802309989929199 5.061390399932861 3.55126690864563 6.650740623474121 2.69435977935791 C8.240091323852539 1.8374526500701904 10.058633804321289 1.3746817111968994 12.0 1.2001352310180664 L12.0 1.2001352310180664"></path>
<path fill="none" stroke="black" stroke-width=".3" stroke-opacity="1.0"  filling="0" d="M14.455683708190918 6.542101860046387 L14.455683708190918 6.542101860046387 C13.280404090881348 6.055875301361084 12.381684303283691 3.9385757446289062 14.455683708190918 3.9385757446289062 C16.529090881347656 3.9385757446289062 15.63010025024414 6.055517673492432 14.455683708190918 6.542101860046387 L14.455683708190918 6.542101860046387"></path>
<path fill="none" stroke="black" stroke-width=".3" stroke-opacity="1.0"  filling="0" d="M12.778796195983887 8.938810348510742 L11.890398025512695 10.209874153137207 C11.711677551269531 10.29676628112793 11.53295612335205 10.383657455444336 11.354235649108887 10.470549583435059 L9.011116027832031 10.470549583435059 C9.016053199768066 10.085101127624512 9.020990371704102 9.699653625488281 9.025927543640137 9.314205169677734 L11.055319786071777 9.314205169677734 L12.227014541625977 7.6066179275512695 C12.655908584594727 7.374307632446289 13.084802627563477 7.141997337341309 13.513696670532227 6.909687042236328 L15.834465026855469 6.909687042236328 C16.550973892211914 7.19384241104126 17.14879608154297 7.86318302154541 17.434602737426758 8.579034805297852 L17.434602737426758 12.47651481628418 C17.049335479736328 12.471487998962402 16.664066314697266 12.466461181640625 16.278799057006836 12.461434364318848 L16.278799057006836 8.89276123046875 L16.01839256286621 8.89276123046875 L16.01839256286621 13.889495849609375 L16.01839256286621 18.88623046875 C15.771517753601074 19.133407592773438 15.62704086303711 19.6350154876709 15.277769088745117 19.627761840820312 C14.921835899353027 19.620370864868164 14.785904884338379 19.112939834594727 14.539972305297852 18.85552978515625 L14.539972305297852 13.074345588684082 L14.256945610046387 13.074345588684082 L14.24886703491211 18.863067626953125 C14.006043434143066 19.11688804626465 13.87161922454834 19.619029998779297 13.520395278930664 19.624528884887695 C13.173460960388184 19.629961013793945 13.031381607055664 19.13214874267578 12.786874771118164 18.88595962524414 L12.782835006713867 13.912384986877441 L12.778796195983887 8.938810348510742"></path>
<path fill="none" stroke="black" stroke-width=".3" stroke-opacity="1.0"  filling="0" d="M8.827457427978516 11.611275672912598 L8.13052749633789 12.308205604553223 L7.441406726837158 11.611275672912598 L8.13052749633789 10.922154426574707 L8.827457427978516 11.611275672912598"></path>
<path fill="none" stroke="black" stroke-width=".3" stroke-opacity="1.0"  filling="0" d="M2.488567352294922 12.000134468078613 L2.488567352294922 12.000134468078613 C2.7198355197906494 9.497132301330566 3.3558690547943115 7.779121398925781 4.839226722717285 5.750111103057861 L9.309402465820312 10.220376968383789 L13.77957820892334 14.690643310546875 L18.249753952026367 19.160907745361328 C16.743385314941406 20.2622127532959 15.044562339782715 20.978130340576172 13.324357986450195 21.25855827331543 C11.60415267944336 21.538986206054688 9.862566947937012 21.38392448425293 8.270674705505371 20.743270874023438 C6.678781509399414 20.102617263793945 5.236581802368164 18.97637176513672 4.115150451660156 17.314434051513672 C2.979736566543579 15.631773948669434 2.6877968311309814 13.97054672241211 2.488567352294922 12.000134468078613 L2.488567352294922 12.000134468078613"></path>
<path fill="none" stroke="black" stroke-width=".3" stroke-opacity="1.0"  filling="0" d="M21.511432647705078 12.000134468078613 L21.511432647705078 12.000134468078613 C21.280166625976562 14.503068923950195 20.644119262695312 16.22096061706543 19.16077423095703 18.249889373779297 L14.690688133239746 13.779624938964844 L10.220602035522461 9.309358596801758 L5.750514984130859 4.83909273147583 C7.2569661140441895 3.7378571033477783 8.95578384399414 3.0219686031341553 10.675944328308105 2.74155592918396 C12.396105766296387 2.4611434936523438 14.137611389160156 2.616206645965576 15.729438781738281 3.2568743228912354 C17.321266174316406 3.8975422382354736 18.763416290283203 5.023814678192139 19.884864807128906 6.685820579528809 C21.020259857177734 8.36849308013916 21.31220245361328 10.029717445373535 21.511432647705078 12.000134468078613 L21.511432647705078 12.000134468078613"></path>
<path fill="none" stroke="black" stroke-width=".3" stroke-opacity="1.0"  filling="0" d="M9.478070259094238 12.920309066772461 L8.78140926361084 13.617239952087402 L8.084478378295898 12.920309066772461 L8.78140926361084 12.231457710266113 L9.478070259094238 12.920309066772461"></path>
<path fill="none" stroke="black" stroke-width=".3" stroke-opacity="1.0"  filling="0" d="M8.957796096801758 15.033990859985352 L8.008268356323242 15.033990859985352 L8.008268356323242 14.085270881652832 L8.957796096801758 14.085270881652832 L8.957796096801758 15.033990859985352"></path>
<path fill="none" stroke="black" stroke-width=".3" stroke-opacity="1.0"  filling="0" d="M10.267098426818848 19.621129989624023 L7.10452127456665 19.621129989624023 L5.89458703994751 13.043107032775879 L6.821493625640869 13.043107032775879 L7.885470867156982 18.702301025390625 L9.493420600891113 18.702301025390625 L10.573554039001465 13.043107032775879 L11.507463455200195 13.043107032775879 L10.267098426818848 19.621129989624023"></path></svg>