<svg xmlns="http://www.w3.org/2000/svg" viewBox="0.0 0.0 24.0 24.0" height="200px" width="200px"><path fill="none" stroke="black" stroke-width=".3" stroke-opacity="1.0"  filling="0" d="M11.636356353759766 1.9577436447143555 L11.636356353759766 1.9577436447143555 C14.733217239379883 1.8200944662094116 16.093597412109375 2.849188804626465 17.354854583740234 5.693970203399658 L17.354854583740234 5.693970203399658 C16.73017692565918 4.876461029052734 15.987296104431152 4.136229515075684 15.162195205688477 3.5216150283813477 L14.032923698425293 2.9064340591430664 C12.70817756652832 2.224928617477417 11.357821464538574 2.1432945728302 9.916314125061035 2.4174013137817383 L9.916314125061035 2.4174013137817383 C10.48966121673584 2.2641820907592773 11.063009262084961 2.1109628677368164 11.636356353759766 1.9577436447143555 L11.636356353759766 1.9577436447143555"></path>
<path fill="none" stroke="black" stroke-width=".3" stroke-opacity="1.0"  filling="0" d="M12.414835929870605 15.931709289550781 L12.414835929870605 15.931709289550781 C10.407217025756836 16.702632904052734 8.582121849060059 16.595638275146484 7.251111030578613 15.726319313049316 C5.920100688934326 14.857000350952148 5.083175182342529 13.22535514831543 5.0518975257873535 10.946979522705078 C5.030560493469238 9.39273738861084 5.506591796875 7.866621971130371 6.33380126953125 6.5606865882873535 C7.1610107421875 5.254751682281494 8.339398384094238 4.168997287750244 9.722774505615234 3.4954776763916016 C11.704497337341309 2.5306429862976074 13.530784606933594 2.7197139263153076 14.868837356567383 3.6788196563720703 C16.206890106201172 4.637925148010254 17.05670928955078 6.367065906524658 17.08549690246582 8.482370376586914 C17.107873916625977 10.126693725585938 16.618104934692383 11.598077774047852 15.783793449401855 12.85385513305664 C14.949481964111328 14.109634399414062 13.770627975463867 15.14980697631836 12.414835929870605 15.931709289550781 L12.414835929870605 15.931709289550781"></path>
<path fill="none" stroke="black" stroke-width=".3" stroke-opacity="1.0"  filling="0" d="M10.337090492248535 17.22212028503418 L10.337090492248535 17.22212028503418 C8.75208854675293 17.29273223876953 7.616360187530518 17.049903869628906 6.723049163818359 16.42255973815918 C5.829737663269043 15.795214653015137 5.178844451904297 14.783353805541992 4.563511848449707 13.315897941589355 L4.563511848449707 13.315897941589355 C5.223567485809326 14.293522834777832 6.043446063995361 15.182084083557129 6.974767684936523 15.906006813049316 L8.104686737060547 16.52096939086914 C8.967947006225586 16.959102630615234 9.635952949523926 17.048538208007812 10.588951110839844 17.18151092529297 L10.588951110839844 17.18151092529297 C10.504997253417969 17.19504737854004 10.42104434967041 17.20858383178711 10.337090492248535 17.22212028503418 L10.337090492248535 17.22212028503418"></path>
<path fill="none" stroke="black" stroke-width=".3" stroke-opacity="1.0"  filling="0" d="M14.031844139099121 20.160858154296875 L14.031844139099121 20.160858154296875 C14.949506759643555 20.205997467041016 15.869366645812988 20.2183895111084 16.784832000732422 20.296276092529297 C17.529924392700195 20.359668731689453 18.274539947509766 20.447050094604492 19.00960922241211 20.584362030029297 C20.73940658569336 20.907489776611328 21.857629776000977 21.716293334960938 19.548824310302734 22.257862091064453 C17.531112670898438 22.731149673461914 15.375177383422852 22.79978370666504 13.314493179321289 22.79978370666504 C11.253707885742188 22.79978370666504 9.097700119018555 22.73113441467285 7.079883575439453 22.257862091064453 C4.786426544189453 21.719940185546875 5.869565486907959 20.913597106933594 7.602611064910889 20.587656021118164 C8.332061767578125 20.450464248657227 9.071073532104492 20.3629150390625 9.810583114624023 20.299314498901367 C10.719866752624512 20.221113204956055 11.633585929870605 20.208162307739258 12.545086860656738 20.162586212158203 L12.519813537597656 17.72130584716797 C10.822659492492676 18.0770206451416 9.229937553405762 18.05780029296875 7.657341480255127 17.23227310180664 L6.3887481689453125 16.543649673461914 C5.082402229309082 15.566374778747559 4.111477375030518 14.434503555297852 3.5426926612854004 13.129929542541504 C2.973907947540283 11.825355529785156 2.8072636127471924 10.348076820373535 3.10947847366333 8.679986953735352 C3.40535044670105 7.0469069480896 4.200098037719727 5.471306324005127 5.311209678649902 4.190686225891113 C6.422321319580078 2.9100656509399414 7.84979772567749 1.9244253635406494 9.411127090454102 1.4712653160095215 C10.972455978393555 1.0181052684783936 12.667638778686523 1.0974255800247192 14.314163208007812 1.9467267990112305 L15.582971572875977 2.6364288330078125 C17.412109375 4.005129814147949 18.44084930419922 5.657562732696533 18.785247802734375 7.4722442626953125 C19.12964630126953 9.28692626953125 18.789701461791992 11.263856887817383 17.881471633911133 13.281553268432617 L17.882553100585938 13.281553268432617 C16.844219207763672 14.962522506713867 15.700897216796875 16.131629943847656 14.000307083129883 17.1467342376709 L14.031844139099121 20.160858154296875"></path></svg>