<svg xmlns="http://www.w3.org/2000/svg" viewBox="0.0 0.0 24.0 24.0" height="200px" width="200px"><path fill="none" stroke="black" stroke-width=".3" stroke-opacity="1.0"  filling="0" d="M14.518128395080566 19.81185531616211 L14.518128395080566 19.81185531616211 C14.871576309204102 20.290943145751953 15.435125350952148 20.671276092529297 15.578472137451172 21.24911880493164 C16.025053024291992 23.049325942993164 12.28651237487793 23.312728881835938 12.57240104675293 21.24911880493164 C12.641976356506348 20.746910095214844 13.085184097290039 20.37432098388672 13.341575622558594 19.936922073364258 L13.342008590698242 19.936487197875977 C12.80596923828125 17.48958396911621 11.489930152893066 15.863000869750977 11.19756031036377 13.244592666625977 L11.197343826293945 13.244592666625977 C9.565861701965332 12.610032081604004 9.212029457092285 12.728228569030762 8.1077880859375 11.379919052124023 C7.1742634773254395 10.240059852600098 6.485542297363281 8.570571899414062 6.357080936431885 6.945241451263428 C6.22861909866333 5.319911003112793 6.660416603088379 3.738736629486084 7.967928409576416 2.7755041122436523 L7.967928409576416 2.7755041122436523 C7.546407222747803 -1.3090143203735352 13.108824729919434 3.707826852798462 9.246000289916992 3.812088966369629 C8.934771537780762 3.8204894065856934 8.664528846740723 3.589320182800293 8.37379264831543 3.477935791015625 L8.37379264831543 3.477935791015625 C7.955409526824951 3.92299485206604 7.380772590637207 4.261379241943359 7.118643283843994 4.813113212585449 C6.2960405349731445 6.544538497924805 8.556857109069824 10.207046508789062 9.687392234802246 11.253087997436523 C10.431585311889648 11.941661834716797 10.963703155517578 11.974217414855957 11.784000396728516 12.125280380249023 L11.784000396728516 12.125280380249023 C12.604337692260742 11.974202156066895 13.136428833007812 11.941648483276367 13.880672454833984 11.253024101257324 C15.011112213134766 10.20706558227539 17.272184371948242 6.544279098510742 16.449464797973633 4.812897205352783 C16.187288284301758 4.261158466339111 15.612627029418945 3.9227793216705322 15.194208145141602 3.477720260620117 L15.194208145141602 3.477720260620117 C14.903544425964355 3.589103937149048 14.633377075195312 3.82027006149292 14.322216033935547 3.8118715286254883 C10.459187507629395 3.707603931427002 16.021440505981445 -1.309126853942871 15.599855422973633 2.775937080383301 L15.599855422973633 2.775937080383301 C16.906963348388672 3.73875093460083 17.338796615600586 5.318183898925781 17.21101951599121 6.942043304443359 C17.083242416381836 8.565902709960938 16.395856857299805 10.234188079833984 15.464531898498535 11.374707221984863 C14.365087509155273 12.72110652923584 14.014669418334961 12.603921890258789 12.38923168182373 13.241352081298828 L12.380592346191406 13.243080139160156 C12.770066261291504 15.752740859985352 13.965004920959473 17.401521682739258 14.518128395080566 19.81185531616211 L14.518128395080566 19.81185531616211"></path></svg>