<svg xmlns="http://www.w3.org/2000/svg" viewBox="0.0 0.0 24.0 24.0" height="200px" width="200px"><path fill="none" stroke="black" stroke-width=".3" stroke-opacity="1.0"  filling="0" d="M4.357056140899658 8.313312530517578 L9.420599937438965 8.313312530517578 L14.48414421081543 8.313312530517578 L19.547687530517578 8.313312530517578 L19.547687530517578 9.397848129272461 L14.48414421081543 9.397848129272461 L9.420599937438965 9.397848129272461 L4.357056140899658 9.397848129272461 L4.357056140899658 8.313312530517578"></path>
<path fill="none" stroke="black" stroke-width=".3" stroke-opacity="1.0"  filling="0" d="M19.35652732849121 14.80411148071289 L20.894878387451172 14.80411148071289 L20.894878387451172 16.622400283813477 L19.35652732849121 16.622400283813477 L19.35652732849121 14.80411148071289"></path>
<path fill="none" stroke="black" stroke-width=".3" stroke-opacity="1.0"  filling="0" d="M4.875671863555908 15.13934326171875 L10.337160110473633 15.13934326171875 L15.7986478805542 15.13934326171875 L21.260135650634766 15.13934326171875 L21.260135650634766 16.223878860473633 L15.7986478805542 16.223880767822266 L10.337160110473633 16.223880767822266 L4.875671863555908 16.223878860473633 L4.875671863555908 15.13934326171875"></path>
<path fill="none" stroke="black" stroke-width=".3" stroke-opacity="1.0"  filling="0" d="M2.714160919189453 16.008312225341797 L2.714160919189453 15.454919815063477 L3.233856201171875 15.454919815063477 C3.3016083240509033 15.387167930603027 3.3693606853485107 15.319415092468262 3.437112808227539 15.251663208007812 L3.437112808227539 14.76242446899414 L2.9195756912231445 14.76242446899414 C2.8278839588165283 14.670731544494629 2.8278331756591797 14.465048789978027 2.9195756912231445 14.373407363891602 L4.35748815536499 14.373407363891602 C4.4491801261901855 14.465100288391113 4.449129104614258 14.67068099975586 4.35748815536499 14.76242446899414 L3.8399524688720703 14.76242446899414 L3.8399524688720703 15.251448631286621 C3.9077045917510986 15.3192720413208 3.975456476211548 15.387096405029297 4.043208599090576 15.454919815063477 L4.737864017486572 15.454919815063477 L4.737864017486572 15.006072044372559 C4.779839992523193 14.96395206451416 4.821815490722656 14.921832084655762 4.863791465759277 14.879712104797363 L5.06920862197876 14.879712104797363 C5.082378387451172 14.885298728942871 5.0939741134643555 14.896950721740723 5.099448204040527 14.910167694091797 L5.099448204040527 16.553279876708984 C5.093994140625 16.566450119018555 5.082379341125488 16.578065872192383 5.06920862197876 16.583518981933594 L4.863791465759277 16.583518981933594 C4.821815490722656 16.541399002075195 4.779839992523193 16.49928092956543 4.737864017486572 16.45716094970703 L4.737864017486572 16.008312225341797 L4.043208599090576 16.008312225341797 C3.9653046131134033 16.076711654663086 3.8874008655548096 16.145112991333008 3.8094968795776367 16.213512420654297 L3.467352867126465 16.213512420654297 C3.389448881149292 16.145112991333008 3.31154465675354 16.076711654663086 3.233640670776367 16.008312225341797 L2.714160919189453 16.008312225341797"></path>
<path fill="none" stroke="black" stroke-width=".3" stroke-opacity="1.0"  filling="0" d="M7.11624002456665 17.160240173339844 L7.11624002456665 17.160240173339844 C6.764088153839111 17.512535095214844 6.55790376663208 18.217126846313477 6.059784412384033 18.217126846313477 C5.561614036560059 18.217126846313477 5.355336666107178 17.512535095214844 5.00311279296875 17.160240173339844 L5.00311279296875 12.32421588897705 L5.00311279296875 7.488192081451416 C5.355336666107178 7.135968208312988 5.561664581298828 6.431519985198975 6.059784412384033 6.431519985198975 C6.5578532218933105 6.431519985198975 6.764088153839111 7.135968208312988 7.11624002456665 7.488192081451416 L7.11624002456665 12.32421588897705 L7.11624002456665 17.160240173339844"></path>
<path fill="none" stroke="black" stroke-width=".3" stroke-opacity="1.0"  filling="0" d="M10.082568168640137 17.160240173339844 L10.082568168640137 17.160240173339844 C9.73034381866455 17.512535095214844 9.524066925048828 18.217126846313477 9.025896072387695 18.217126846313477 C8.527725219726562 18.217126846313477 8.32144832611084 17.512535095214844 7.969224452972412 17.160240173339844 L7.969224452972412 12.32421588897705 L7.969224452972412 7.488192081451416 C8.32144832611084 7.135968208312988 8.527775764465332 6.431519985198975 9.025896072387695 6.431519985198975 C9.524016380310059 6.431519985198975 9.73034381866455 7.135968208312988 10.082568168640137 7.488192081451416 L10.082568168640137 12.32421588897705 L10.082568168640137 17.160240173339844"></path>
<path fill="none" stroke="black" stroke-width=".3" stroke-opacity="1.0"  filling="0" d="M13.058832168579102 17.160240173339844 L13.058832168579102 17.160240173339844 C12.706607818603516 17.512535095214844 12.500329971313477 18.217126846313477 12.002159118652344 18.217126846313477 C11.503988265991211 18.217126846313477 11.297711372375488 17.512535095214844 10.945487976074219 17.160240173339844 L10.945487976074219 12.32421588897705 L10.945487976074219 7.488192081451416 C11.297711372375488 7.135968208312988 11.504039764404297 6.431519985198975 12.002159118652344 6.431519985198975 C12.500279426574707 6.431519985198975 12.706607818603516 7.135968208312988 13.058832168579102 7.488192081451416 L13.058832168579102 12.32421588897705 L13.058832168579102 17.160240173339844"></path>
<path fill="none" stroke="black" stroke-width=".3" stroke-opacity="1.0"  filling="0" d="M16.019975662231445 17.160240173339844 L16.019975662231445 17.160240173339844 C15.667823791503906 17.512535095214844 15.461639404296875 18.217126846313477 14.963520050048828 18.217126846313477 C14.465298652648926 18.217126846313477 14.258927345275879 17.512535095214844 13.906631469726562 17.160240173339844 L13.906631469726562 12.32421588897705 L13.906631469726562 7.488192081451416 C14.258927345275879 7.135968208312988 14.465349197387695 6.431519985198975 14.963520050048828 6.431519985198975 C15.461588859558105 6.431519985198975 15.667823791503906 7.135968208312988 16.019975662231445 7.488192081451416 L16.019975662231445 12.32421588897705 L16.019975662231445 17.160240173339844"></path>
<path fill="none" stroke="black" stroke-width=".3" stroke-opacity="1.0"  filling="0" d="M18.99688720703125 17.160240173339844 L18.99688720703125 17.160240173339844 C18.64473533630371 17.512535095214844 18.43855094909668 18.217126846313477 17.940431594848633 18.217126846313477 C17.4422607421875 18.217126846313477 17.23598289489746 17.512535095214844 16.883758544921875 17.160240173339844 L16.883758544921875 12.32421588897705 L16.883758544921875 7.488192081451416 C17.23598289489746 7.135968208312988 17.442312240600586 6.431519985198975 17.940431594848633 6.431519985198975 C18.438501358032227 6.431519985198975 18.64473533630371 7.135968208312988 18.99688720703125 7.488192081451416 L18.99688720703125 12.32421588897705 L18.99688720703125 17.160240173339844"></path></svg>