<svg xmlns="http://www.w3.org/2000/svg" viewBox="0.0 0.0 24.0 24.0" height="200px" width="200px"><path fill="none" stroke="black" stroke-width=".3" stroke-opacity="1.0"  filling="0" d="M15.784751892089844 3.390888214111328 L15.784751892089844 3.390888214111328 C16.224077224731445 4.100033760070801 16.526853561401367 4.91213321685791 16.65911865234375 5.73578405380249 L15.958198547363281 5.710728168487549 C15.697752952575684 4.0896148681640625 15.081718444824219 3.427769660949707 13.483271598815918 3.0524158477783203 L13.508328437805176 2.351496696472168 C14.320406913757324 2.542165994644165 15.10877513885498 2.902132987976074 15.784751892089844 3.390888214111328 L15.784751892089844 3.390888214111328"></path>
<path fill="none" stroke="black" stroke-width=".3" stroke-opacity="1.0"  filling="0" d="M14.334527969360352 5.656512260437012 L14.334527969360352 5.656512260437012 C14.048831939697266 5.349648475646973 13.76313591003418 5.042784690856934 13.477439880371094 4.7359209060668945 L13.502496719360352 4.035000801086426 C14.184414863586426 4.346859931945801 14.772978782653809 4.978943824768066 15.03544807434082 5.681352138519287 L14.334527969360352 5.656512260437012"></path>
<path fill="none" stroke="black" stroke-width=".3" stroke-opacity="1.0"  filling="0" d="M56.019287109375 6.239496231079102 L61.23309326171875 6.239496231079102 L66.4468994140625 6.239496231079102 L71.66070556640625 6.239496231079102 L71.66070556640625 12.639359474182129 L71.66070556640625 19.039222717285156 L67.73933410644531 18.62115478515625 L63.817962646484375 18.203088760375977 L59.91862487792969 18.62137222290039 L56.019287109375 19.039655685424805 L56.019287109375 12.639575958251953 L56.019287109375 6.239496231079102"></path>
<path fill="none" stroke="black" stroke-width=".3" stroke-opacity="1.0"  filling="0" d="M97.6353530883789 8.648760795593262 L98.36327362060547 8.648760795593262 L98.36327362060547 13.042847633361816 L97.73731231689453 13.042847633361816 L97.73731231689453 17.407991409301758 L97.73731231689453 21.773136138916016 L92.7087631225586 21.773136138916016 L87.68020629882812 21.773136138916016 L82.65164947509766 21.773136138916016 L82.65164947509766 16.835159301757812 L82.65164947509766 11.897183418273926 L90.14350128173828 11.897183418273926 L97.6353530883789 11.897183418273926 L97.6353530883789 8.648760795593262"></path>
<path fill="none" stroke="black" stroke-width=".3" stroke-opacity="1.0"  filling="0" d="M58.12031555175781 8.697144508361816 L62.674888610839844 8.697144508361816 L62.674888610839844 9.406055450439453 L58.12031555175781 9.406055450439453 L58.12031555175781 8.697144508361816"></path>
<path fill="none" stroke="black" stroke-width=".3" stroke-opacity="1.0"  filling="0" d="M65.23126220703125 8.697144508361816 L69.78582763671875 8.697144508361816 L69.78582763671875 9.406055450439453 L65.23126220703125 9.406055450439453 L65.23126220703125 8.697144508361816"></path>
<path fill="none" stroke="black" stroke-width=".3" stroke-opacity="1.0"  filling="0" d="M39.93463134765625 9.061752319335938 L45.788665771484375 9.061752319335938 L45.788665771484375 15.410316467285156 L45.788665771484375 21.758880615234375 L40.59941101074219 21.758880615234375 L35.410152435302734 21.758880615234375 L30.22089385986328 21.758880615234375 L30.22089385986328 15.410207748413086 L30.22089385986328 9.061535835266113 L34.61714172363281 9.061535835266113 L39.013389587402344 9.061535835266113 L35.57683181762695 5.549808502197266 L35.999755859375 5.126880168914795 L39.47412109375 8.601455688476562 L42.948265075683594 5.127096176147461 L43.37140655517578 5.550024509429932 L39.93463134765625 9.061752319335938"></path>
<path fill="none" stroke="black" stroke-width=".3" stroke-opacity="1.0"  filling="0" d="M58.12031555175781 10.231176376342773 L62.674888610839844 10.231176376342773 L62.674888610839844 10.940303802490234 L58.12031555175781 10.940303802490234 L58.12031555175781 10.231176376342773"></path>
<path fill="none" stroke="black" stroke-width=".3" stroke-opacity="1.0"  filling="0" d="M65.23126220703125 10.231176376342773 L69.78582763671875 10.231176376342773 L69.78582763671875 10.940303802490234 L65.23126220703125 10.940303802490234 L65.23126220703125 10.231176376342773"></path>
<path fill="none" stroke="black" stroke-width=".3" stroke-opacity="1.0"  filling="0" d="M11.799768447875977 10.542215347290039 L12.9093599319458 13.556496620178223 L11.088047981262207 12.475631713867188 L11.799768447875977 10.542215347290039"></path>
<path fill="none" stroke="black" stroke-width=".3" stroke-opacity="1.0"  filling="0" d="M42.82017517089844 11.067960739135742 L43.922637939453125 11.067960739135742 L43.922637939453125 11.773632049560547 L42.82017517089844 11.773632049560547 L42.82017517089844 11.067960739135742"></path>
<path fill="none" stroke="black" stroke-width=".3" stroke-opacity="1.0"  filling="0" d="M41.47795104980469 11.085455894470215 L41.47795104980469 15.419279098510742 L41.47795104980469 19.753103256225586 L36.76720428466797 19.753103256225586 L32.056461334228516 19.753103256225586 L32.056461334228516 15.419279098510742 L32.056461334228516 11.085455894470215 L36.76720428466797 11.085455894470215 L41.47795104980469 11.085455894470215"></path>
<path fill="none" stroke="black" stroke-width=".3" stroke-opacity="1.0"  filling="0" d="M58.12031555175781 11.820719718933105 L62.674888610839844 11.820719718933105 L62.674888610839844 12.529631614685059 L58.12031555175781 12.529631614685059 L58.12031555175781 11.820719718933105"></path>
<path fill="none" stroke="black" stroke-width=".3" stroke-opacity="1.0"  filling="0" d="M65.23126220703125 11.820719718933105 L69.78582763671875 11.820719718933105 L69.78582763671875 12.529631614685059 L65.23126220703125 12.529631614685059 L65.23126220703125 11.820719718933105"></path>
<path fill="none" stroke="black" stroke-width=".3" stroke-opacity="1.0"  filling="0" d="M42.82017517089844 12.594863891601562 L43.922637939453125 12.594863891601562 L43.922637939453125 13.300751686096191 L42.82017517089844 13.300751686096191 L42.82017517089844 12.594863891601562"></path>
<path fill="none" stroke="black" stroke-width=".3" stroke-opacity="1.0"  filling="0" d="M58.12031555175781 13.354751586914062 L62.674888610839844 13.354751586914062 L62.674888610839844 14.063664436340332 L58.12031555175781 14.063664436340332 L58.12031555175781 13.354751586914062"></path>
<path fill="none" stroke="black" stroke-width=".3" stroke-opacity="1.0"  filling="0" d="M65.23126220703125 13.354751586914062 L69.78582763671875 13.354751586914062 L69.78582763671875 14.063664436340332 L65.23126220703125 14.063664436340332 L65.23126220703125 13.354751586914062"></path>
<path fill="none" stroke="black" stroke-width=".3" stroke-opacity="1.0"  filling="0" d="M94.64915466308594 13.992815971374512 L95.78617858886719 13.992815971374512 L95.78617858886719 14.720735549926758 L94.64915466308594 14.720735549926758 L94.64915466308594 13.992815971374512"></path>
<path fill="none" stroke="black" stroke-width=".3" stroke-opacity="1.0"  filling="0" d="M87.61554718017578 14.11420726776123 L87.61554718017578 14.11420726776123 C88.7511978149414 14.422082901000977 89.31437683105469 14.33049488067627 89.96464538574219 15.462976455688477 C90.99059295654297 17.249727249145508 89.69222259521484 19.55632781982422 87.61554718017578 19.55632781982422 C85.53883361816406 19.55632781982422 84.2412338256836 17.249412536621094 85.26678466796875 15.46288013458252 C85.9168701171875 14.330413818359375 86.4800033569336 14.422039985656738 87.61554718017578 14.11420726776123 L87.61554718017578 14.11420726776123"></path>
<path fill="none" stroke="black" stroke-width=".3" stroke-opacity="1.0"  filling="0" d="M14.030832290649414 14.621591567993164 L16.481998443603516 20.93743133544922 L16.481998443603516 21.621501922607422 L15.412800788879395 21.621501922607422 L15.412800788879395 20.93743133544922 L15.626423835754395 20.93743133544922 L15.355775833129883 20.201953887939453 L11.744039535522461 18.058368682861328 L8.274432182312012 20.117712020874023 L7.97268009185791 20.93743133544922 L8.192567825317383 20.93743133544922 L8.192567825317383 21.621501922607422 L7.123368263244629 21.621501922607422 L7.123368263244629 20.93743133544922 L9.199992179870605 15.460211753845215 L11.276616096496582 9.982992172241211 L10.914599418640137 9.982992172241211 L10.914599418640137 9.298704147338867 L11.512703895568848 9.298704147338867 L11.512703895568848 7.227696418762207 L12.092880249023438 7.227696418762207 L12.092880249023438 9.298704147338867 L12.698760986328125 9.298704147338867 L12.698760986328125 9.982992172241211 L12.322919845581055 9.982992172241211 L14.030832290649414 14.621591567993164"></path>
<path fill="none" stroke="black" stroke-width=".3" stroke-opacity="1.0"  filling="0" d="M67.64591979980469 14.856383323669434 L69.78604125976562 14.856383323669434 L69.78604125976562 15.565513610839844 L67.64591979980469 15.565513610839844 L67.64591979980469 14.856383323669434"></path>
<path fill="none" stroke="black" stroke-width=".3" stroke-opacity="1.0"  filling="0" d="M92.89199829101562 15.567671775817871 L95.78617858886719 15.567671775817871 L95.78617858886719 16.29537582397461 L92.89199829101562 16.29537582397461 L92.89199829101562 15.567671775817871"></path>
<path fill="none" stroke="black" stroke-width=".3" stroke-opacity="1.0"  filling="0" d="M9.759215354919434 16.08477783203125 L10.847640991210938 13.128600120544434 L13.28433609008789 14.574719429016113 L13.82044792175293 16.030776977539062 L11.74447250366211 17.26283836364746 L9.759215354919434 16.08477783203125"></path>
<path fill="none" stroke="black" stroke-width=".3" stroke-opacity="1.0"  filling="0" d="M92.89199829101562 17.083343505859375 L95.78617858886719 17.083343505859375 L95.78617858886719 17.81104850769043 L92.89199829101562 17.81104850769043 L92.89199829101562 17.083343505859375"></path>
<path fill="none" stroke="black" stroke-width=".3" stroke-opacity="1.0"  filling="0" d="M12.414719581604004 17.66071319580078 L14.060855865478516 16.6839599609375 L14.981230735778809 19.183944702148438 L12.414719581604004 17.66071319580078"></path>
<path fill="none" stroke="black" stroke-width=".3" stroke-opacity="1.0"  filling="0" d="M70.90385437011719 18.197040557861328 L63.817962646484375 17.441471099853516 L56.77658462524414 18.19682502746582 L56.77658462524414 12.596700668334961 L56.77658462524414 6.996576309204102 L63.84021759033203 6.996576309204102 L70.90385437011719 6.996576309204102 L70.90385437011719 12.596808433532715 L70.90385437011719 18.197040557861328"></path>
<path fill="none" stroke="black" stroke-width=".3" stroke-opacity="1.0"  filling="0" d="M40.754783630371094 19.02993392944336 L36.76731872558594 19.02993392944336 L32.779850006103516 19.02993392944336 L32.779850006103516 11.80884075164795 L36.76731872558594 11.80884075164795 L40.754783630371094 11.80884075164795 L40.754783630371094 19.02993392944336"></path>
<path fill="none" stroke="black" stroke-width=".3" stroke-opacity="1.0"  filling="0" d="M8.649408340454102 19.09970474243164 L9.519024848937988 16.737743377685547 L11.074224472045898 17.66049575805664 L8.649408340454102 19.09970474243164"></path>
<path fill="none" stroke="black" stroke-width=".3" stroke-opacity="1.0"  filling="0" d="M87.61554718017578 20.35250473022461 L87.61554718017578 20.35250473022461 C86.14747619628906 19.95450210571289 85.41968536376953 20.072940826416016 84.57904815673828 18.609046936035156 C83.25282287597656 16.299551010131836 84.93106079101562 13.317383766174316 87.61554718017578 13.317383766174316 C90.29991912841797 13.317383766174316 91.97831726074219 16.299556732177734 90.65213775634766 18.60904884338379 C89.81153869628906 20.072925567626953 89.08356475830078 19.95452880859375 87.61554718017578 20.35250473022461 L87.61554718017578 20.35250473022461"></path>
<path fill="none" stroke="black" stroke-width=".3" stroke-opacity="1.0"  filling="0" d="M96.90744018554688 20.943262100219727 L90.19458770751953 20.943262100219727 L83.48173522949219 20.943262100219727 L83.48173522949219 16.835159301757812 L83.48173522949219 12.727056503295898 L90.19458770751953 12.727056503295898 L96.90744018554688 12.727056503295898 L96.90744018554688 16.835159301757812 L96.90744018554688 20.943262100219727"></path>
<path fill="none" stroke="black" stroke-width=".3" stroke-opacity="1.0"  filling="0" d="M45.035037994384766 21.00525665283203 L38.00477981567383 21.00525665283203 L30.97452163696289 21.00525665283203 L30.97452163696289 15.410316467285156 L30.97452163696289 9.815376281738281 L38.00477981567383 9.815376281738281 L45.035037994384766 9.815376281738281 L45.035037994384766 15.410316467285156 L45.035037994384766 21.00525665283203"></path>
<path fill="none" stroke="black" stroke-width=".3" stroke-opacity="1.0"  filling="0" d="M63.839996337890625 21.540935516357422 L63.839996337890625 19.253496170043945 L64.8776626586914 19.253496170043945 L64.8776626586914 21.540935516357422 L64.35883331298828 20.668079376220703 L63.839996337890625 21.540935516357422"></path></svg>