<svg xmlns="http://www.w3.org/2000/svg" viewBox="0.0 0.0 24.0 24.0" height="200px" width="200px"><path fill="none" stroke="black" stroke-width=".3" stroke-opacity="1.0"  filling="0" d="M10.825176239013672 4.934856414794922 L10.825176239013672 4.934856414794922 C10.41306209564209 4.7727532386779785 9.964305877685547 4.715980529785156 9.553152084350586 4.551455974578857 C7.7647881507873535 3.8358371257781982 12.580486297607422 4.170705318450928 10.825176239013672 4.934856414794922 L10.825176239013672 4.934856414794922"></path>
<path fill="none" stroke="black" stroke-width=".3" stroke-opacity="1.0"  filling="0" d="M16.572935104370117 6.207312107086182 L16.572935104370117 6.207312107086182 C16.066444396972656 6.172889709472656 16.262039184570312 5.189391136169434 15.886487007141113 4.847808361053467 C15.509282112121582 4.504721641540527 14.54277229309082 4.783637046813965 14.466287612915039 4.279512405395508 C14.33077621459961 3.38633394241333 18.379974365234375 4.625853061676025 16.572935104370117 6.207312107086182 L16.572935104370117 6.207312107086182"></path>
<path fill="none" stroke="black" stroke-width=".3" stroke-opacity="1.0"  filling="0" d="M7.8400559425354 7.250160217285156 L7.8400559425354 7.250160217285156 C7.580352306365967 6.666384220123291 7.060944557189941 6.1377692222595215 7.060944557189941 5.4988322257995605 C7.060944557189941 2.7073075771331787 9.970447540283203 2.910762071609497 11.561305046081543 3.83563232421875 L12.10195255279541 4.293984413146973 C12.241632461547852 4.293984413146973 12.381311416625977 4.293984413146973 12.520991325378418 4.293984413146973 L13.060991287231445 3.835847854614258 C14.651385307312012 2.9117298126220703 17.56221580505371 2.706122398376465 17.56221580505371 5.497968673706055 C17.56221580505371 6.137234687805176 17.042808532714844 6.666240215301514 16.783103942871094 7.250376224517822 L12.37497615814209 11.35912799835205 C12.332856178283691 11.35912799835205 12.290736198425293 11.35912799835205 12.248616218566895 11.35912799835205 L7.8400559425354 7.250160217285156"></path>
<path fill="none" stroke="black" stroke-width=".3" stroke-opacity="1.0"  filling="0" d="M17.225255966186523 7.724279880523682 L12.816912651062012 11.833248138427734 C12.8103609085083 11.838288307189941 12.803808212280273 11.843327522277832 12.797256469726562 11.848367691040039 L13.702943801879883 13.106783866882324 C13.717436790466309 13.298507690429688 13.604124069213867 13.519941329956055 13.440071105957031 13.62021541595459 L12.9758882522583 13.62021541595459 C12.696188926696777 15.364614486694336 11.405827522277832 16.5889835357666 11.50519847869873 18.446115493774414 C11.55361270904541 19.350927352905273 12.85429573059082 21.291534423828125 12.49183177947998 21.98611068725586 C12.154472351074219 22.63258171081543 11.432963371276855 20.912174224853516 11.198683738708496 20.22163200378418 C11.003747940063477 19.64705467224121 10.89000129699707 19.038801193237305 10.862732887268066 18.432668685913086 C10.78381633758545 16.678499221801758 11.758054733276367 15.215360641479492 12.335016250610352 13.619999885559082 L11.13599967956543 13.619999885559082 C10.971634864807129 13.518465995788574 10.859408378601074 13.294012069702148 10.876799583435059 13.10159969329834 L11.820504188537598 11.843616485595703 C11.815752029418945 11.839943885803223 11.81100082397461 11.836272239685059 11.806248664855957 11.832599639892578 L7.398336410522461 7.724279880523682 C5.914721965789795 5.656623840332031 6.410969257354736 2.4216859340667725 9.563304901123047 2.4482641220092773 C10.755165100097656 2.45831298828125 10.993795394897461 2.768366813659668 11.98034381866455 3.3412094116210938 L12.311688423156738 3.6220083236694336 L12.642600059509277 3.3412094116210938 C13.629505157470703 2.7681727409362793 13.868346214294434 2.4579098224639893 15.060503005981445 2.4478321075439453 C18.213485717773438 2.4211790561676025 18.708175659179688 5.656497955322266 17.225255966186523 7.724279880523682 L17.225255966186523 7.724279880523682"></path>
<path fill="none" stroke="black" stroke-width=".3" stroke-opacity="1.0"  filling="0" d="M12.263951301574707 12.972000122070312 L11.784000396728516 12.972000122070312 L12.30628776550293 12.275615692138672 L12.807623863220215 12.972000122070312 L12.263951301574707 12.972000122070312"></path></svg>