<svg xmlns="http://www.w3.org/2000/svg" viewBox="0.0 0.0 24.0 24.0" height="200px" width="200px"><path fill="none" stroke="black" stroke-width=".3" stroke-opacity="1.0"  filling="0" d="M11.896967887878418 4.475640773773193 L11.896967887878418 4.475640773773193 C12.440054893493652 4.584693431854248 13.02000617980957 4.577912330627441 13.526228904724121 4.802799224853516 C15.683570861816406 5.761185646057129 12.207491874694824 6.501287937164307 11.896967887878418 6.501287937164307 C11.586442947387695 6.501287937164307 8.110366821289062 5.761185169219971 10.267706871032715 4.802799224853516 C10.773929595947266 4.577912330627441 11.353880882263184 4.584693431854248 11.896967887878418 4.475640773773193 L11.896967887878418 4.475640773773193"></path>
<path fill="none" stroke="black" stroke-width=".3" stroke-opacity="1.0"  filling="0" d="M15.20219898223877 13.924128532409668 L15.20219898223877 13.924128532409668 C15.802315711975098 14.679288864135742 17.26742172241211 16.50642967224121 17.57776641845703 17.01746368408203 C17.723295211791992 17.257099151611328 17.924915313720703 17.608732223510742 17.7633113861084 17.837833404541016 C16.67093849182129 19.386457443237305 13.553339004516602 19.52259635925293 11.869319915771484 19.667999267578125 L11.829575538635254 19.667999267578125 C10.398907661437988 19.532934188842773 5.587029457092285 19.506071090698242 6.2401442527771 17.233463287353516 L8.621328353881836 13.938599586486816 C9.08191204071045 13.73851203918457 9.501108169555664 13.352365493774414 10.003080368041992 13.338335990905762 C11.14537239074707 13.306410789489746 12.070762634277344 14.53543758392334 13.21348762512207 14.540807723999023 C13.907523155212402 14.544069290161133 14.51272201538086 13.844648361206055 15.20219898223877 13.924128532409668 L15.20219898223877 13.924128532409668"></path>
<path fill="none" stroke="black" stroke-width=".3" stroke-opacity="1.0"  filling="0" d="M9.516216278076172 15.072599411010742 L9.516216278076172 15.072599411010742 C10.122443199157715 14.465865135192871 10.122441291809082 15.679336547851562 9.516216278076172 15.072599411010742 L9.516216278076172 15.072599411010742"></path>
<path fill="none" stroke="black" stroke-width=".3" stroke-opacity="1.0"  filling="0" d="M18.68779182434082 16.343544006347656 L18.68779182434082 16.343544006347656 C19.854764938354492 18.354671478271484 18.80474853515625 19.451553344726562 17.13800811767578 20.071069717407227 C15.471269607543945 20.69058609008789 13.187808990478516 20.832738876342773 11.887895584106445 20.93440818786621 L11.847936630249023 20.93440818786621 C9.840339660644531 20.777372360229492 9.505594253540039 20.842144012451172 7.591936111450195 20.350696563720703 C6.543361663818359 20.081411361694336 4.711179256439209 19.549673080444336 4.374768257141113 18.30352783203125 C4.176502227783203 17.56910514831543 4.687920093536377 16.88876724243164 5.04739236831665 16.34332847595215 C6.295581817626953 14.449408531188965 7.723632335662842 12.65506649017334 9.061535835266113 10.82323169708252 L9.062832832336426 5.906640529632568 C8.741218566894531 4.4719953536987305 10.357918739318848 3.7537155151367188 11.947591781616211 3.7683029174804688 C13.537264823913574 3.782890558242798 15.0999116897583 4.5303449630737305 14.670191764831543 6.027168273925781 L14.670191764831543 6.027168273925781 C14.671343803405762 6.038112163543701 14.672494888305664 6.049056529998779 14.673646926879883 6.060000419616699 L14.673646926879883 10.823448181152344 C16.015825271606445 12.660499572753906 17.356338500976562 14.498700141906738 18.68779182434082 16.343544006347656 L18.68779182434082 16.343544006347656"></path>
<path fill="none" stroke="black" stroke-width=".3" stroke-opacity="1.0"  filling="0" d="M14.429351806640625 16.62607192993164 L14.429351806640625 16.62607192993164 C13.595878601074219 15.792593955993652 15.263193130493164 15.792736053466797 14.429351806640625 16.62607192993164 L14.429351806640625 16.62607192993164"></path>
<path fill="none" stroke="black" stroke-width=".3" stroke-opacity="1.0"  filling="0" d="M12.48124885559082 17.089176177978516 L11.517024040222168 18.406993865966797 C11.46662425994873 18.41671371459961 11.416223526000977 18.42643165588379 11.365823745727539 18.4361515045166 L9.983856201171875 17.56675148010254 C9.916463851928711 17.214096069335938 9.570698738098145 16.799291610717773 9.7816801071167 16.5087833404541 C10.002029418945312 16.20537567138672 10.520832061767578 16.381919860839844 10.89040756225586 16.3184871673584 L11.178336143493652 16.263408660888672 C11.545320510864258 16.1861515045166 11.962522506713867 15.830877304077148 12.279288291931152 16.031639099121094 C12.582417488098145 16.223758697509766 12.413928985595703 16.736663818359375 12.48124885559082 17.089176177978516 L12.48124885559082 17.089176177978516"></path>
<path fill="none" stroke="black" stroke-width=".3" stroke-opacity="1.0"  filling="0" d="M18.734233856201172 18.138071060180664 L18.734233856201172 18.138071060180664 C16.573997497558594 19.842432022094727 14.615043640136719 20.07192039489746 11.887680053710938 20.286190032958984 L11.847719192504883 20.286190032958984 C11.138303756713867 20.230464935302734 10.424522399902344 20.215349197387695 9.71947193145752 20.119014739990234 C9.068359375 20.030048370361328 8.423473358154297 19.892873764038086 7.786488056182861 19.731279373168945 C7.018521308898926 19.536457061767578 5.2972283363342285 18.99275016784668 5.001168251037598 18.138071060180664 C4.79954195022583 17.556007385253906 6.416305065155029 15.553780555725098 6.601441383361816 15.298528671264648 C7.495487213134766 14.065888404846191 9.226402282714844 12.408788681030273 9.709535598754883 10.929287910461426 L9.710616111755371 6.6012959480285645 C11.2586088180542 7.245002746582031 12.468287467956543 7.254664897918701 14.025431632995605 6.637368202209473 L14.025431632995605 10.929071426391602 C14.452129364013672 12.235749244689941 15.362975120544434 13.379884719848633 16.300323486328125 14.526408195495605 C17.237672805786133 15.672931671142578 18.201522827148438 16.821842193603516 18.734233856201172 18.138071060180664 L18.734233856201172 18.138071060180664"></path></svg>