<svg xmlns="http://www.w3.org/2000/svg" viewBox="0.0 0.0 24.0 24.0" height="200px" width="200px"><path fill="none" stroke="black" stroke-width=".3" stroke-opacity="1.0"  filling="0" d="M10.333775520324707 4.933776378631592 L10.333775520324707 4.933776378631592 C10.81484317779541 4.820655345916748 11.290725708007812 4.506206512451172 11.776979446411133 4.5944132804870605 C12.735201835632324 4.768235683441162 13.776538848876953 6.444877624511719 13.570751190185547 7.336560249328613 C13.449892044067383 7.860245704650879 12.97430419921875 8.230799674987793 12.676080703735352 8.677919387817383 L12.676080703735352 8.677919387817383 C12.577296257019043 8.642783164978027 12.47851276397705 8.607647895812988 12.379728317260742 8.572511672973633 L12.379728317260742 8.572511672973633 C12.110136032104492 8.000328063964844 12.426438331604004 6.37169075012207 12.112319946289062 6.009672164916992 C11.87614917755127 5.73748779296875 9.99130630493164 5.523044586181641 9.569568634033203 5.3735527992248535 L9.569568634033203 5.3735527992248535 C9.824304580688477 5.2269606590271 10.079039573669434 5.080368518829346 10.333775520324707 4.933776378631592 L10.333775520324707 4.933776378631592"></path>
<path fill="none" stroke="black" stroke-width=".3" stroke-opacity="1.0"  filling="0" d="M5.236392498016357 7.491864204406738 L5.236392498016357 7.491864204406738 C5.723278522491455 6.881648063659668 6.271800994873047 6.3223371505737305 6.818808078765869 5.765376091003418 L6.818808078765869 8.898672103881836 C6.79742431640625 8.907959938049316 6.776040077209473 8.917248725891113 6.7546563148498535 8.926536560058594 L6.7546563148498535 8.926536560058594 C6.397587299346924 8.884652137756348 6.0349016189575195 8.776535987854004 5.680056095123291 8.834304809570312 L5.680056095123291 8.834304809570312 C5.532168388366699 8.386824607849121 5.384280204772949 7.93934440612793 5.236392498016357 7.491864204406738 L5.236392498016357 7.491864204406738"></path>
<path fill="none" stroke="black" stroke-width=".3" stroke-opacity="1.0"  filling="0" d="M11.596511840820312 8.442479133605957 L11.596511840820312 8.442479133605957 C11.128944396972656 8.465591430664062 10.661375999450684 8.488704681396484 10.193808555603027 8.51181697845459 L10.193808555603027 8.51181697845459 C9.997904777526855 7.761506080627441 9.738729476928711 6.959044933319092 9.910200119018555 6.202775955200195 L9.910200119018555 6.202775955200195 C10.434144020080566 6.318336009979248 10.958088874816895 6.433896541595459 11.482032775878906 6.549456596374512 L11.482032775878906 6.549456596374512 C11.52019214630127 7.180464267730713 11.55835247039795 7.811471462249756 11.596511840820312 8.442479133605957 L11.596511840820312 8.442479133605957"></path>
<path fill="none" stroke="black" stroke-width=".3" stroke-opacity="1.0"  filling="0" d="M15.579119682312012 8.749200820922852 L15.579119682312012 8.749200820922852 C15.851603507995605 8.482765197753906 16.079833984375 8.16181755065918 16.39657211303711 7.949892520904541 C18.143943786621094 6.780755043029785 18.292396545410156 9.339262962341309 19.040599822998047 10.317522048950195 C19.460308074951172 10.866279602050781 21.14371109008789 11.279626846313477 20.59053611755371 11.693495750427246 C20.101722717285156 12.059211730957031 19.02906608581543 11.761287689208984 18.463367462158203 11.74231243133545 C17.900983810424805 11.723448753356934 17.348188400268555 11.986721992492676 16.787208557128906 11.942760467529297 C16.319190979003906 11.906084060668945 15.807544708251953 10.797158241271973 15.331637382507324 10.663122177124023 C14.814825057983398 10.517565727233887 14.258225440979004 10.632918357849121 13.721519470214844 10.617815971374512 L13.721519470214844 10.617815971374512 C13.732563018798828 10.328036308288574 13.69919490814209 10.038084983825684 13.675512313842773 9.749063491821289 L13.675512313842773 9.749063491821289 C14.358345031738281 9.531218528747559 14.983643531799316 9.14810562133789 15.579119682312012 8.749200820922852 L15.579119682312012 8.749200820922852"></path>
<path fill="none" stroke="black" stroke-width=".3" stroke-opacity="1.0"  filling="0" d="M6.818808078765869 11.085023880004883 L6.818808078765869 14.223719596862793 C6.271801948547363 13.666757583618164 5.216351509094238 13.277628898620605 5.236392498016357 12.497231483459473 C5.2499518394470215 11.969228744506836 5.599416255950928 11.505215644836426 5.780928134918213 11.009207725524902 L5.780928134918213 11.009207725524902 C6.133082389831543 11.033559799194336 6.491257190704346 11.032754898071289 6.839328289031982 10.973999977111816 L6.839328289031982 10.973999977111816 C6.832488059997559 11.011008262634277 6.825648307800293 11.048015594482422 6.818808078765869 11.085023880004883 L6.818808078765869 11.085023880004883"></path>
<path fill="none" stroke="black" stroke-width=".3" stroke-opacity="1.0"  filling="0" d="M21.39081573486328 15.805705070495605 L21.39081573486328 15.805705070495605 C20.413223266601562 16.856306076049805 19.353126525878906 17.094398498535156 18.054046630859375 17.69548797607422 C17.559133529663086 17.92448616027832 17.015460968017578 18.55857276916504 16.534486770629883 18.301584243774414 C15.976181030273438 18.003276824951172 15.44930362701416 17.649551391601562 14.90671157836914 17.323535919189453 L14.90671157836914 17.323535919189453 C14.743775367736816 17.45738410949707 14.580840110778809 17.591230392456055 14.417903900146484 17.725078582763672 L14.417903900146484 17.725078582763672 C14.746295928955078 18.145343780517578 15.074687957763672 18.56560707092285 15.403079986572266 18.985872268676758 L15.403079986572266 18.985872268676758 C16.223011016845703 19.67905616760254 16.300472259521484 20.453371047973633 15.500927925109863 21.322776794433594 C15.234392166137695 21.61260223388672 14.677658081054688 22.27914047241211 14.489616394042969 21.93319320678711 C14.089014053344727 21.19618797302246 14.0646390914917 20.16185760498047 13.382912635803223 19.673076629638672 C12.368939399719238 18.946081161499023 10.615999221801758 19.170324325561523 10.24888801574707 17.625503540039062 C10.167635917663574 17.28359031677246 10.181740760803223 16.907020568847656 10.287606239318848 16.571908950805664 C10.418299674987793 16.158203125 11.189637184143066 15.87983512878418 11.006183624267578 15.486671447753906 C10.677495002746582 14.78225040435791 9.881050109863281 14.330978393554688 9.651971817016602 13.588167190551758 C9.383309364318848 12.716998100280762 9.54774284362793 11.744926452636719 9.251832008361816 10.8826322555542 L9.251832008361816 10.8826322555542 C8.651981353759766 10.864422798156738 8.053142547607422 10.949075698852539 7.455576419830322 11.00445556640625 L7.455576419830322 11.00445556640625 C7.459392547607422 11.031311988830566 7.463208198547363 11.058167457580566 7.467024326324463 11.085023880004883 L7.467024326324463 15.764448165893555 C6.814456462860107 16.498342514038086 6.878287315368652 15.553656578063965 6.503880500793457 14.987064361572266 C6.483243942260742 14.95583438873291 4.7004008293151855 12.896045684814453 4.601352691650391 12.624239921569824 C4.360500812530518 11.963298797607422 4.997544765472412 11.111252784729004 5.249784469604492 10.639415740966797 L5.249784469604492 10.639415740966797 C5.184840679168701 10.534943580627441 5.119896411895752 10.430472373962402 5.054952621459961 10.326000213623047 L3.810575485229492 10.489943504333496 C3.89227557182312 10.880035400390625 3.9475271701812744 11.178934097290039 3.4561195373535156 11.032536506652832 L2.2951202392578125 10.273296356201172 C2.209010124206543 10.114899635314941 2.208033561706543 9.891581535339355 2.2927446365356445 9.73243236541748 L3.4537439346313477 8.958287239074707 C3.665536642074585 9.000645637512207 3.8555262088775635 9.28563117980957 3.8131675720214844 9.497424125671387 L3.5423049926757812 9.678000450134277 L4.9689836502075195 9.678000450134277 C5.028167724609375 9.518448829650879 5.087352275848389 9.358896255493164 5.146536350250244 9.199344635009766 L5.146536350250244 9.199344635009766 C4.964880466461182 8.587776184082031 4.54742956161499 8.00031566619873 4.601568222045898 7.364640235900879 C4.638539791107178 6.930533409118652 5.118135929107666 6.6625657081604 5.391480445861816 6.323304176330566 C5.765219688415527 5.859437942504883 6.834746360778809 3.51265811920166 7.467456340789795 4.224215984344482 L7.467456340789795 8.688936233520508 C8.20325756072998 8.599205017089844 8.70529556274414 8.610748291015625 9.466104507446289 8.614200592041016 L9.466104507446289 8.614200592041016 C8.968011856079102 7.414730548858643 9.111507415771484 7.142213821411133 9.284879684448242 5.956752300262451 L9.284879684448242 5.956752300262451 C7.998878479003906 5.341121673583984 8.679553985595703 4.83551549911499 10.000920295715332 4.378224849700928 C11.921338081359863 3.7136178016662598 14.751298904418945 4.833398342132568 14.214215278625488 7.41972017288208 C14.086328506469727 8.035555839538574 13.576007843017578 8.503752708435059 13.256903648376465 9.045768737792969 L13.256903648376465 9.045768737792969 C13.299528121948242 9.091344833374023 13.342151641845703 9.136919975280762 13.38477611541748 9.182496070861816 L13.38477611541748 9.182496070861816 C14.10777473449707 8.850035667419434 16.60622787475586 6.591273784637451 17.487911224365234 6.916224479675293 C18.782428741455078 7.393328666687012 18.800086975097656 8.778855323791504 19.42011260986328 9.709131240844727 C19.857227325439453 10.364971160888672 20.888032913208008 10.516044616699219 21.23637580871582 11.223047256469727 C21.376750946044922 11.507956504821777 21.279430389404297 11.942564964294434 21.044567108154297 12.156383514404297 C20.407663345336914 12.73621940612793 18.66581916809082 12.406254768371582 18.07089614868164 12.25768756866455 C17.641868591308594 12.150548934936523 17.179155349731445 12.794678688049316 16.78677749633789 12.59075927734375 C15.44158935546875 11.89166259765625 15.491601943969727 11.261819839477539 13.800792694091797 11.261063575744629 L13.800792694091797 11.261063575744629 C14.54903793334961 12.920486450195312 15.573545455932617 14.39499282836914 16.748760223388672 15.784968376159668 L16.748760223388672 15.784968376159668 C17.329151153564453 15.667176246643066 17.909543991088867 15.549385070800781 18.48993492126465 15.43159294128418 L18.48993492126465 15.43159294128418 C18.84352684020996 15.236041069030762 19.181989669799805 15.010200500488281 19.550710678100586 14.84493637084961 C20.182130813598633 14.561928749084473 20.813261032104492 15.424633026123047 21.39081573486328 15.805705070495605 L21.39081573486328 15.805705070495605"></path>
<path fill="none" stroke="black" stroke-width=".3" stroke-opacity="1.0"  filling="0" d="M20.47994613647461 16.027536392211914 L20.47994613647461 16.027536392211914 C19.634307861328125 16.29773712158203 17.404651641845703 17.7439022064209 16.586328506469727 17.64861488342285 C16.09490394592285 17.591392517089844 15.757176399230957 17.10861587524414 15.342599868774414 16.83861541748047 L15.342599868774414 16.83861541748047 C15.520776748657227 16.468923568725586 15.776504516601562 16.11798095703125 15.84048080444336 15.712608337402344 L15.84048080444336 15.712608337402344 C16.63239288330078 16.655513763427734 17.57804298400879 16.8767147064209 18.866640090942383 16.096223831176758 C19.104633331298828 15.952073097229004 19.16493797302246 15.533225059509277 19.439687728881836 15.489263534545898 C19.825206756591797 15.42757797241211 20.82819175720215 15.851028442382812 20.47994613647461 16.027536392211914 L20.47994613647461 16.027536392211914"></path>
<path fill="none" stroke="black" stroke-width=".3" stroke-opacity="1.0"  filling="0" d="M15.03955078125 19.54574203491211 L15.03955078125 19.54574203491211 C15.301410675048828 19.695022583007812 15.356430053710938 20.155763626098633 15.230496406555176 20.429616928100586 C15.08405876159668 20.748058319091797 14.84077262878418 21.59653091430664 14.647080421447754 21.304412841796875 C14.219623565673828 20.659744262695312 14.340761184692383 19.679250717163086 13.771713256835938 19.155323028564453 C13.135238647460938 18.56931495666504 12.055791854858398 18.699737548828125 11.369117736816406 18.173442840576172 C10.079704284667969 17.185184478759766 11.840537071228027 16.387208938598633 11.654399871826172 15.485159873962402 C11.548495292663574 14.971931457519531 10.420496940612793 13.919909477233887 10.275510787963867 13.417527198791504 C10.06368637084961 12.683547973632812 10.224583625793457 11.888370513916016 10.129440307617188 11.13038444519043 L10.129440307617188 11.13038444519043 C10.562089920043945 11.184845924377441 11.548290252685547 11.322649955749512 11.643167495727539 11.230392456054688 C11.814179420471191 11.064102172851562 12.336524963378906 10.757389068603516 11.647703170776367 10.582391738891602 C9.971810340881348 10.156625747680664 7.825845241546631 10.83276653289795 6.282480239868164 10.411104202270508 C5.652981281280518 10.239118576049805 5.467500686645508 10.019357681274414 5.699496269226074 9.536520004272461 C5.860437393188477 9.201563835144043 6.586627960205078 9.635945320129395 6.954672336578369 9.553584098815918 C8.478011131286621 9.212692260742188 11.49881649017334 8.428068161010742 12.796175956726074 9.499799728393555 C13.403526306152344 10.001523971557617 13.054424285888672 11.059309959411621 13.290656089782715 11.810839653015137 C13.703704833984375 13.124881744384766 15.369855880737305 14.180556297302246 15.18751335144043 15.706128120422363 C15.12025260925293 16.268861770629883 13.214364051818848 17.476768493652344 13.298376083374023 17.895503997802734 C13.415407180786133 18.478818893432617 14.575907707214355 19.036863327026367 15.03955078125 19.54574203491211 L15.03955078125 19.54574203491211"></path></svg>