<svg xmlns="http://www.w3.org/2000/svg" viewBox="0.0 0.0 24.0 24.0" height="200px" width="200px"><path fill="none" stroke="black" stroke-width=".3" stroke-opacity="1.0"  filling="0" d="M14.915999412536621 3.4680004119873047 L14.915999412536621 3.4680004119873047 C15.276000022888184 3.82800030708313 15.85586929321289 4.0585479736328125 15.996000289916992 4.548000335693359 C16.091938018798828 4.883095741271973 15.656447410583496 5.156832218170166 15.486671447753906 5.461248397827148 L15.486671447753906 5.461248397827148 C15.21959400177002 4.795694351196289 14.84201717376709 4.165406703948975 14.382696151733398 3.6146650314331055 L14.382696151733398 3.6146650314331055 C14.560463905334473 3.565776824951172 14.738231658935547 3.5168886184692383 14.915999412536621 3.4680004119873047 L14.915999412536621 3.4680004119873047"></path>
<path fill="none" stroke="black" stroke-width=".3" stroke-opacity="1.0"  filling="0" d="M7.3560004234313965 4.548000335693359 L7.3560004234313965 4.548000335693359 C7.795309543609619 4.108691215515137 8.370267868041992 3.449923515319824 8.969305038452148 3.6146650314331055 L8.969305038452148 3.6146650314331055 C8.509963035583496 4.165389537811279 8.132414817810059 4.795698165893555 7.865328311920166 5.461248397827148 L7.865328311920166 5.461248397827148 C7.695552349090576 5.156832218170166 7.525776386260986 4.852416515350342 7.3560004234313965 4.548000335693359 L7.3560004234313965 4.548000335693359"></path>
<path fill="none" stroke="black" stroke-width=".3" stroke-opacity="1.0"  filling="0" d="M12.285120010375977 5.04415225982666 L12.285120010375977 5.04415225982666 C11.18333625793457 4.752455711364746 12.356687545776367 4.343672275543213 12.914976119995117 4.335456371307373 C13.637001037597656 4.324831008911133 13.76015567779541 5.646627426147461 13.38974380493164 5.466000556945801 C12.866503715515137 5.210848331451416 12.92020320892334 4.916700839996338 12.285120010375977 5.04415225982666 L12.285120010375977 5.04415225982666"></path>
<path fill="none" stroke="black" stroke-width=".3" stroke-opacity="1.0"  filling="0" d="M9.693336486816406 5.4294962882995605 L9.693336486816406 5.4294962882995605 C9.13491439819336 3.744978427886963 11.652109146118164 4.471490383148193 11.38720703125 4.926864147186279 C11.189435005187988 5.266838550567627 10.710665702819824 4.893214702606201 10.502903938293457 4.955592632293701 C10.127045631408691 5.068439483642578 10.115432739257812 5.5306501388549805 9.693336486816406 5.4294962882995605 L9.693336486816406 5.4294962882995605"></path>
<path fill="none" stroke="black" stroke-width=".3" stroke-opacity="1.0"  filling="0" d="M8.442049026489258 6.275784492492676 L8.442049026489258 6.275784492492676 C8.28336238861084 3.4482905864715576 11.44481086730957 2.983755588531494 13.407455444335938 3.7075443267822266 C14.2586088180542 4.021434783935547 15.151137351989746 5.365871906280518 14.909952163696289 6.275784492492676 C14.701482772827148 7.062268257141113 14.276151657104492 7.807100296020508 13.736856460571289 8.416343688964844 L13.736856460571289 8.416343688964844 C14.296964645385742 6.523988246917725 13.009710311889648 5.553252220153809 11.662322998046875 5.497853755950928 C10.314935684204102 5.442455291748047 8.907415390014648 6.302395343780518 9.226991653442383 8.071392059326172 L9.226991653442383 8.071392059326172 C8.860847473144531 7.530426979064941 8.591069221496582 6.911786079406738 8.442049026489258 6.275784492492676 L8.442049026489258 6.275784492492676"></path>
<path fill="none" stroke="black" stroke-width=".3" stroke-opacity="1.0"  filling="0" d="M10.783488273620605 6.816000461578369 L10.783488273620605 6.816000461578369 C10.891488075256348 6.708000183105469 10.99948787689209 6.600000381469727 11.107487678527832 6.492000102996826 L12.0 6.492000102996826 C12.152734756469727 6.644735336303711 12.152734756469727 6.987264633178711 12.0 7.139999866485596 L12.0 7.139999866485596 C11.961983680725098 7.156703948974609 11.923968315124512 7.173408031463623 11.88595199584961 7.190112113952637 L11.88595199584961 7.190112113952637 C11.888854026794434 7.216126441955566 11.892000198364258 7.227573394775391 11.892000198364258 7.246920585632324 L11.892000198364258 7.24713659286499 C11.892000198364258 7.247424602508545 11.892000198364258 7.247712135314941 11.892000198364258 7.248000144958496 L11.892000198364258 7.248000144958496 C12.110564231872559 7.709694862365723 12.872318267822266 7.365087032318115 12.965736389160156 7.832496166229248 C13.126578330993652 8.63725757598877 11.634855270385742 8.045332908630371 11.568000793457031 7.987368106842041 L11.568000793457031 7.987368106842041 C11.213823318481445 8.29444694519043 10.078392028808594 8.292168617248535 10.17026424407959 7.832496166229248 C10.288000106811523 7.243417263031006 11.169565200805664 7.902708053588867 11.249832153320312 7.192272186279297 L11.249832153320312 7.192272186279297 C11.211888313293457 7.1748480796813965 11.173943519592285 7.157423973083496 11.13599967956543 7.139999866485596 L11.107487678527832 7.139999866485596 C10.99948787689209 7.0320000648498535 10.891488075256348 6.924000263214111 10.783488273620605 6.816000461578369 L10.783488273620605 6.816000461578369"></path>
<path fill="none" stroke="black" stroke-width=".3" stroke-opacity="1.0"  filling="0" d="M13.370736122131348 7.464000225067139 L13.370736122131348 7.464000225067139 C12.741904258728027 8.644449234008789 9.765264511108398 9.855259895324707 9.765264511108398 7.464000225067139 C9.765264511108398 5.07274055480957 12.741904258728027 6.283551216125488 13.370736122131348 7.464000225067139 L13.370736122131348 7.464000225067139"></path>
<path fill="none" stroke="black" stroke-width=".3" stroke-opacity="1.0"  filling="0" d="M7.505040645599365 9.670008659362793 L7.505040645599365 9.670008659362793 C8.951574325561523 9.123841285705566 9.54389762878418 8.71294116973877 10.891488075256348 9.75273609161377 L11.598888397216797 10.35084056854248 L12.303695678710938 9.752519607543945 C13.956486701965332 8.476519584655762 15.976225852966309 9.124100685119629 16.398406982421875 11.260200500488281 C16.896692276000977 13.781366348266602 11.862302780151367 11.802286148071289 12.215999603271484 14.082023620605469 C12.291881561279297 14.57111930847168 12.78235149383545 14.893895149230957 13.06552791595459 15.29983139038086 L11.638200759887695 16.630390167236328 C11.611344337463379 16.63031768798828 11.584488868713379 16.630247116088867 11.557632446289062 16.63017463684082 L10.098336219787598 15.269807815551758 C10.362576484680176 14.873879432678223 10.82938289642334 14.554017066955566 10.891056060791016 14.082023620605469 C11.116503715515137 12.356633186340332 7.899221897125244 13.012089729309082 7.086215972900391 12.32961654663086 C6.237555980682373 11.61721420288086 7.288620948791504 10.156392097473145 7.505040645599365 9.670008659362793 L7.505040645599365 9.670008659362793"></path>
<path fill="none" stroke="black" stroke-width=".3" stroke-opacity="1.0"  filling="0" d="M16.715280532836914 12.569592475891113 L16.715280532836914 12.569592475891113 C16.8419189453125 12.27457046508789 17.0421199798584 11.98745059967041 17.050079345703125 11.666496276855469 L17.050079345703125 11.666496276855469 C17.37904930114746 13.957773208618164 16.627792358398438 14.882404327392578 14.280311584472656 14.916215896606445 L14.266704559326172 14.916215896606445 C12.563279151916504 14.813962936401367 12.62362003326416 13.36733627319336 14.524392127990723 13.408103942871094 L14.524392127990723 13.408103942871094 C15.469738960266113 13.408103942871094 15.935464859008789 13.09898567199707 16.715280532836914 12.569592475891113 L16.715280532836914 12.569592475891113"></path>
<path fill="none" stroke="black" stroke-width=".3" stroke-opacity="1.0"  filling="0" d="M7.419288158416748 14.793095588684082 L7.419288158416748 14.793095588684082 C5.770927906036377 13.966038703918457 5.797767639160156 13.471687316894531 6.056976318359375 11.666279792785645 L6.056976318359375 11.666279792785645 C6.12413215637207 14.205549240112305 9.363520622253418 12.578386306762695 10.24327278137207 14.0824556350708 C10.618173599243164 14.723404884338379 9.096016883850098 14.896354675292969 8.840784072875977 14.916215896606445 L8.76734447479248 14.915352821350098 C8.316497802734375 14.897587776184082 7.865949630737305 14.856904983520508 7.419288158416748 14.793095588684082 L7.419288158416748 14.793095588684082"></path>
<path fill="none" stroke="black" stroke-width=".3" stroke-opacity="1.0"  filling="0" d="M17.55357551574707 16.869935989379883 L17.55357551574707 16.869935989379883 C19.61541175842285 18.880142211914062 18.080385208129883 21.279979705810547 15.230103492736816 20.806886672973633 C13.817163467407227 20.572364807128906 12.695619583129883 19.42064094543457 11.597375869750977 18.607872009277344 L11.597375869750977 18.607872009277344 C9.99521255493164 19.759483337402344 8.02767562866211 21.580312728881836 5.856744289398193 20.712142944335938 C4.551975250244141 20.190357208251953 3.6514663696289062 17.37540626525879 5.524320125579834 16.87015151977539 C5.9602861404418945 16.75253677368164 6.418992042541504 16.99327278137207 6.866328239440918 17.054832458496094 L6.866328239440918 17.054832458496094 C7.33081579208374 16.721694946289062 7.589552879333496 16.04355812072754 7.532688140869141 15.474791526794434 L7.532688140869141 15.474791526794434 C7.0418009757995605 15.270401954650879 6.454767227172852 15.217887878417969 6.060027122497559 14.861621856689453 C5.091545581817627 13.987534523010254 4.575199127197266 10.978923797607422 6.287232398986816 10.397496223449707 L6.287232398986816 10.397496223449707 C6.84724760055542 9.530586242675781 7.7583770751953125 8.881171226501465 8.698440551757812 8.455224990844727 L8.698440551757812 8.455224990844727 C8.172487258911133 7.6287841796875 7.727993965148926 7.212055206298828 7.7890801429748535 6.1492085456848145 L7.7890801429748535 6.1492085456848145 C5.8065361976623535 4.555631637573242 7.135427474975586 2.3591010570526123 9.520320892333984 3.2042646408081055 L9.520320892333984 3.2042646408081055 C11.123269081115723 2.5028886795043945 12.228639602661133 2.5029330253601074 13.831680297851562 3.2040481567382812 L13.831680297851562 3.2040481567382812 C16.216638565063477 2.3588624000549316 17.545320510864258 4.555323600769043 15.562919616699219 6.148992538452148 L15.562919616699219 6.148992538452148 C15.62470817565918 7.223577499389648 15.17105770111084 7.642569541931152 14.635200500488281 8.473799705505371 L14.635200500488281 8.473799705505371 C15.542625427246094 8.911348342895508 16.385540008544922 9.596379280090332 16.923288345336914 10.448256492614746 L16.923288345336914 10.448256492614746 C17.840883255004883 11.894551277160645 18.679763793945312 13.587911605834961 16.899337768554688 14.97480583190918 C16.41353416442871 15.353230476379395 15.724281311035156 15.343697547912598 15.13675308227539 15.528143882751465 L15.13675308227539 15.528143882751465 C15.191079139709473 16.1480770111084 15.681221961975098 16.733154296875 16.21588706970215 17.051591873168945 L16.21588706970215 17.051591873168945 C16.66178321838379 16.991039276123047 17.10767936706543 16.93048858642578 17.55357551574707 16.869935989379883 L17.55357551574707 16.869935989379883"></path>
<path fill="none" stroke="black" stroke-width=".3" stroke-opacity="1.0"  filling="0" d="M17.0306396484375 20.092655181884766 L17.0306396484375 20.092655181884766 C15.017962455749512 20.17716407775879 14.378806114196777 19.81148910522461 12.775655746459961 18.674833297729492 C12.381159782409668 18.395130157470703 11.940207481384277 17.71240997314453 11.518967628479004 17.949934005737305 C10.956645965576172 18.267009735107422 9.45720100402832 19.395448684692383 8.050640106201172 19.989830017089844 C6.64408016204834 20.584213256835938 5.330405235290527 20.64453887939453 5.13962459564209 18.825382232666016 C4.8945136070251465 16.488170623779297 6.286147117614746 17.780662536621094 7.008024215698242 18.028560638427734 C7.212236404418945 18.09868812561035 7.632070541381836 17.744342803955078 7.48300838470459 17.588134765625 L7.48300838470459 17.588134765625 C7.927398204803467 17.020183563232422 8.256255149841309 16.2658748626709 8.199913024902344 15.546935081481934 L8.199913024902344 15.546935081481934 C8.408856391906738 15.552839279174805 8.617799758911133 15.558743476867676 8.826743125915527 15.564647674560547 L8.826743125915527 15.564647674560547 C8.83149528503418 15.564647674560547 8.836247444152832 15.564647674560547 8.840999603271484 15.564647674560547 L8.840999603271484 15.564647674560547 C9.029423713684082 15.54700756072998 9.21784782409668 15.52936840057373 9.406271934509277 15.511728286743164 L11.114616394042969 17.104080200195312 C11.414246559143066 17.22117042541504 11.779891967773438 17.221567153930664 12.079704284667969 17.104944229125977 L13.773574829101562 15.52576732635498 C13.937447547912598 15.538727760314941 14.101319313049316 15.551687240600586 14.265192031860352 15.564647674560547 L14.265192031860352 15.564647674560547 C14.269944190979004 15.564647674560547 14.274696350097656 15.564647674560547 14.279448509216309 15.564647674560547 L14.279448509216309 15.564647674560547 C14.348352432250977 15.563712120056152 14.417255401611328 15.562775611877441 14.486159324645996 15.561840057373047 L14.486159324645996 15.561840057373047 C14.56125259399414 16.329618453979492 15.037196159362793 17.05638885498047 15.586895942687988 17.597640991210938 L15.586895942687988 17.597640991210938 C15.656886100769043 18.885705947875977 16.634275436401367 17.182907104492188 17.305389404296875 17.469120025634766 C18.959938049316406 18.174741744995117 17.392030715942383 19.587791442871094 17.0306396484375 20.092655181884766 L17.0306396484375 20.092655181884766"></path></svg>