<svg xmlns="http://www.w3.org/2000/svg" viewBox="0.0 0.0 24.0 24.0" height="200px" width="200px"><path fill="none" stroke="black" stroke-width=".3" stroke-opacity="1.0"  filling="0" d="M21.077716827392578 5.4352946281433105 L21.077716827392578 5.4352946281433105 C21.715538024902344 5.664741516113281 22.30344009399414 6.181623458862305 22.588233947753906 6.796729564666748 L22.588233947753906 13.514225006103516 L22.588233947753906 20.231719970703125 C22.306751251220703 20.885515213012695 21.73168182373047 21.46009063720703 21.077716827392578 21.74117660522461 L15.02590560913086 21.74117660522461 L8.974093437194824 21.74117660522461 L2.9222822189331055 21.74117660522461 C2.2683169841766357 21.46009063720703 1.6932473182678223 20.885515213012695 1.4117650985717773 20.231719970703125 L1.4117650985717773 13.514225006103516 L1.4117650985717773 6.796729564666748 C1.6965585947036743 6.181623458862305 2.2844600677490234 5.664741516113281 2.9222822189331055 5.4352946281433105 L3.6865415573120117 5.4352946281433105 C3.9747533798217773 5.364706039428711 4.262965202331543 5.2941179275512695 4.551177024841309 5.22352933883667 L5.049882411956787 5.22352933883667 C5.338094234466553 5.2941179275512695 5.626306056976318 5.364706039428711 5.914517879486084 5.4352946281433105 L8.638870239257812 5.4352946281433105 C9.714842796325684 3.638014316558838 10.190799713134766 2.8919036388397217 12.213035583496094 2.258824348449707 L15.069530487060547 2.258824348449707 C17.091564178466797 2.8919320106506348 17.567718505859375 3.638340950012207 18.643905639648438 5.4352946281433105 L21.077716827392578 5.4352946281433105"></path>
<path fill="none" stroke="black" stroke-width=".3" stroke-opacity="1.0"  filling="0" d="M8.09421157836914 11.940069198608398 L8.09421157836914 11.940069198608398 C8.460594177246094 9.875738143920898 8.92371940612793 8.234892845153809 10.888235092163086 7.100679397583008 C12.716870307922363 6.044916152954102 14.812387466430664 6.199001312255859 16.450746536254883 7.1449079513549805 C18.0891056060791 8.090815544128418 19.270305633544922 9.828544616699219 19.270305633544922 11.940070152282715 C19.270305633544922 14.051595687866211 18.0891056060791 15.789325714111328 16.450746536254883 16.735233306884766 C14.81238842010498 17.68113899230957 12.71687126159668 17.835224151611328 10.888235092163086 16.779460906982422 C8.923721313476562 15.645248413085938 8.460594177246094 14.004396438598633 8.09421157836914 11.940069198608398 L8.09421157836914 11.940069198608398"></path>
<path fill="none" stroke="black" stroke-width=".3" stroke-opacity="1.0"  filling="0" d="M13.694540977478027 17.99124526977539 L13.694540977478027 17.99124526977539 C11.684553146362305 17.667089462280273 10.088526725769043 17.264469146728516 8.810389518737793 15.51376724243164 C7.3773088455200195 13.550832748413086 7.382655143737793 11.144449234008789 8.354117393493652 9.228801727294922 C9.325579643249512 7.313155174255371 11.263158798217773 5.888245105743408 13.694540977478027 5.888258934020996 C16.12589454650879 5.888272762298584 18.063579559326172 7.31321907043457 19.035110473632812 9.228894233703613 C20.006643295288086 11.144569396972656 20.01202392578125 13.550973892211914 18.578767776489258 15.513903617858887 C17.300559997558594 17.264484405517578 15.704489707946777 17.66710662841797 13.694540977478027 17.99124526977539 L13.694540977478027 17.99124526977539"></path></svg>