<svg xmlns="http://www.w3.org/2000/svg" viewBox="0.0 0.0 24.0 24.0" height="200px" width="200px"><path fill="none" stroke="black" stroke-width=".3" stroke-opacity="1.0"  filling="0" d="M1.4516401290893555 10.441344261169434 L1.4734563827514648 8.893919944763184 C1.6524298191070557 8.114632606506348 2.0379252433776855 7.365837097167969 2.545680046081543 6.748176574707031 L6.304512023925781 4.2229204177856445 L10.06334400177002 1.6976642608642578 C11.246744155883789 1.373119831085205 12.561232566833496 1.3731200695037842 13.744632720947266 1.6976642608642578 L17.503681182861328 4.2229204177856445 L21.262727737426758 6.748176574707031 C21.770580291748047 7.365799427032471 22.156208038330078 8.114596366882324 22.335166931152344 8.893919944763184 L22.335166931152344 10.18603229522705 C22.335166931152344 10.389360427856445 22.335166931152344 10.592687606811523 22.335166931152344 10.796015739440918 L22.335166931152344 15.660659790039062 L22.335166931152344 20.525304794311523 C22.109851837158203 21.062442779541016 22.07284164428711 21.726593017578125 21.659221649169922 22.136716842651367 C21.243133544921875 22.54928970336914 20.57581901550293 22.583513259887695 20.03411865234375 22.80691146850586 L14.86847972869873 22.80691146850586 L14.86847972869873 18.10977554321289 C14.712725639343262 17.647356033325195 14.746248245239258 17.06754493713379 14.40121841430664 16.722515106201172 C14.056236267089844 16.377532958984375 13.476486206054688 16.411115646362305 13.014120101928711 16.255414962768555 L10.789104461669922 16.255414962768555 C10.318395614624023 16.411115646362305 9.730218887329102 16.374622344970703 9.37697696685791 16.722515106201172 C9.029059410095215 17.06516456604004 9.063146591186523 17.647356033325195 8.906231880187988 18.10977554321289 L8.906231880187988 22.807126998901367 L3.774503707885742 22.807126998901367 C3.2327489852905273 22.583782196044922 2.5653488636016846 22.5496883392334 2.1492395401000977 22.137094497680664 C1.7355996370315552 21.72694969177246 1.698717474937439 21.062711715698242 1.4734563827514648 20.52552032470703 L1.4734563827514648 15.660768508911133 L1.4734563827514648 10.796015739440918"></path></svg>