<svg xmlns="http://www.w3.org/2000/svg" viewBox="0.0 0.0 24.0 24.0" height="200px" width="200px"><path fill="none" stroke="black" stroke-width=".3" stroke-opacity="1.0"  filling="0" d="M17.689613342285156 3.1372337341308594 L17.689613342285156 9.269972801208496 L17.689613342285156 15.402711868286133 L17.689613342285156 21.535449981689453 C17.30771255493164 21.943288803100586 17.102642059326172 22.758968353271484 16.54391098022461 22.758968353271484 C15.984292030334473 22.758968353271484 15.77751636505127 21.943288803100586 15.394319534301758 21.535449981689453 L15.394319534301758 14.23100757598877 L14.174931526184082 14.23100757598877 L14.174931526184082 8.684120178222656 L14.174931526184082 3.1372337341308594 C14.651362419128418 2.2370080947875977 15.044243812561035 0.26758360862731934 16.779455184936523 1.4152965545654297 C17.320951461791992 1.7734555006027222 17.386226654052734 2.5632548332214355 17.689613342285156 3.1372337341308594 L17.689613342285156 3.1372337341308594"></path>
<path fill="none" stroke="black" stroke-width=".3" stroke-opacity="1.0"  filling="0" d="M11.582948684692383 8.24492073059082 L11.582948684692383 8.24492073059082 C11.309642791748047 8.877156257629395 10.740697860717773 9.416091918945312 10.110953330993652 9.695091247558594 L10.110953330993652 15.615270614624023 L10.110953330993652 21.535449981689453 C9.728774070739746 21.956985473632812 9.533407211303711 22.8000545501709 8.964414596557617 22.8000545501709 C8.394877433776855 22.8000545501709 8.198433876037598 21.956985473632812 7.815443992614746 21.535449981689453 L7.815443992614746 15.615270614624023 L7.815443992614746 9.695091247558594 C7.148150444030762 9.42494010925293 6.57856559753418 8.81425666809082 6.310387134552002 8.146167755126953 L6.310387134552002 1.6215887069702148 C6.584963798522949 1.6289358139038086 6.8595404624938965 1.6362829208374023 7.134117126464844 1.643630027770996 L7.134117126464844 6.465214729309082 L7.815443992614746 6.465214729309082 L7.815443992614746 1.5993318557739258 C8.079144477844238 1.6067508459091187 8.342844009399414 1.614169716835022 8.606544494628906 1.6215887069702148 L8.606544494628906 6.465214729309082 L9.309048652648926 6.465214729309082 L9.309048652648926 1.6103515625 C9.565329551696777 1.6176986694335938 9.821611404418945 1.6250457763671875 10.077892303466797 1.6323928833007812 L10.077892303466797 6.465214729309082 L10.78126049041748 6.465214729309082 L10.78126049041748 1.6103515625 C11.048562049865723 1.6176986694335938 11.315863609313965 1.6250457763671875 11.583165168762207 1.6323928833007812 L11.582948684692383 8.24492073059082"></path></svg>