<svg xmlns="http://www.w3.org/2000/svg" viewBox="0.0 0.0 24.0 24.0" height="200px" width="200px"><path fill="none" stroke="black" stroke-width=".3" stroke-opacity="1.0"  filling="0" d="M14.375999450683594 10.72559928894043 L14.375999450683594 10.72559928894043 C14.178746223449707 11.18586254119873 13.404211044311523 11.060239791870117 12.904500007629395 11.027999877929688 C12.466165542602539 10.999720573425293 12.026309967041016 10.988720893859863 11.589599609375 10.94159984588623 C11.128632545471191 10.891861915588379 10.967552185058594 9.43610668182373 11.330400466918945 9.472799301147461 C11.941650390625 9.534610748291016 12.573270797729492 9.571409225463867 13.14479923248291 9.79680061340332 C13.620543479919434 9.984417915344238 13.979999542236328 10.387200355529785 14.397599220275879 10.68239974975586 L14.397599220275879 10.68239974975586 C14.390398979187012 10.696799278259277 14.383199691772461 10.711199760437012 14.375999450683594 10.72559928894043 L14.375999450683594 10.72559928894043"></path>
<path fill="none" stroke="black" stroke-width=".3" stroke-opacity="1.0"  filling="0" d="M8.608800888061523 10.790400505065918 L8.608800888061523 10.790400505065918 C7.6080827713012695 9.789682388305664 9.29141616821289 8.660137176513672 10.48799991607666 9.407999992370605 C12.69691276550293 10.788567543029785 9.682291030883789 10.826211929321289 9.575400352478027 10.822800636291504 C9.253183364868164 10.812517166137695 8.931000709533691 10.801200866699219 8.608800888061523 10.790400505065918 L8.608800888061523 10.790400505065918"></path>
<path fill="none" stroke="black" stroke-width=".3" stroke-opacity="1.0"  filling="0" d="M21.503999710083008 12.885599136352539 L21.503999710083008 12.885599136352539 C21.49679946899414 13.015199661254883 21.489599227905273 13.144800186157227 21.482398986816406 13.27440071105957 L21.482398986816406 13.27440071105957 C21.113323211669922 13.71729564666748 21.19647979736328 13.956079483032227 20.380800247192383 14.15999984741211 L20.380800247192383 14.15999984741211 C19.515052795410156 14.210925102233887 20.208274841308594 13.318082809448242 19.59239959716797 12.6156005859375 C19.347116470336914 12.335824966430664 18.951589584350586 12.2329683303833 18.609600067138672 12.086400985717773 C17.524402618408203 11.621315002441406 16.726482391357422 13.09776496887207 16.795198440551758 13.92240047454834 L16.795198440551758 13.92240047454834 C16.72711944580078 14.398982048034668 16.35793685913086 14.15752124786377 15.825446128845215 14.153260231018066 C15.162527084350586 14.147955894470215 14.499608993530273 14.142542839050293 13.836690902709961 14.137189865112305 C12.103108406066895 14.123189926147461 10.229693412780762 14.281652450561523 8.500799179077148 14.095199584960938 C7.943055629730225 14.035049438476562 8.316079139709473 12.043200492858887 6.751200199127197 12.043200492858887 C5.2679762840271 12.043200492858887 5.628663063049316 13.925509452819824 4.936800003051758 13.900799751281738 C1.9262523651123047 13.793279647827148 2.691998243331909 12.866423606872559 2.7768001556396484 10.704000473022461 L2.7768001556396484 10.704000473022461 C3.247248888015747 10.351166725158691 4.076484680175781 10.704444885253906 4.634400844573975 10.466400146484375 C5.942981719970703 9.908071517944336 7.363556861877441 9.37582778930664 8.815899848937988 9.10888671875 C10.268241882324219 8.841946601867676 11.752351760864258 8.840311050415039 13.187999725341797 9.34320068359375 C15.261911392211914 10.069665908813477 16.249008178710938 10.784611701965332 18.37470054626465 11.171100616455078 C19.089956283569336 11.301146507263184 20.039535522460938 11.779643058776855 20.553600311279297 11.265600204467773 L20.553600311279297 11.265600204467773 C20.61044692993164 11.294023513793945 20.956449508666992 11.833694458007812 21.007198333740234 11.935200691223145 L21.007198333740234 11.935200691223145 C21.156267166137695 12.29721736907959 21.360042572021484 12.597702980041504 21.503999710083008 12.885599136352539 L21.503999710083008 12.885599136352539"></path>
<path fill="none" stroke="black" stroke-width=".3" stroke-opacity="1.0"  filling="0" d="M5.433600425720215 13.663200378417969 L5.433600425720215 13.663200378417969 C5.656800270080566 13.276606559753418 5.716606616973877 12.726618766784668 6.103200435638428 12.503418922424316 C8.61184310913086 11.055052757263184 8.611842155456543 16.271347045898438 6.103200435638428 14.822981834411621 C5.716606616973877 14.59978199005127 5.656800270080566 14.04979419708252 5.433600425720215 13.663200378417969 L5.433600425720215 13.663200378417969"></path>
<path fill="none" stroke="black" stroke-width=".3" stroke-opacity="1.0"  filling="0" d="M17.054401397705078 13.663203239440918 L17.054401397705078 13.663203239440918 C17.554594039916992 12.452753067016602 19.732770919799805 11.529119491577148 19.732799530029297 13.663166999816895 C19.73282814025879 15.797226905822754 17.554637908935547 14.873702049255371 17.054401397705078 13.663233757019043 L17.054401397705078 13.663233757019043"></path></svg>