<svg xmlns="http://www.w3.org/2000/svg" viewBox="0.0 0.0 24.0 24.0" height="200px" width="200px"><path fill="none" stroke="black" stroke-width=".3" stroke-opacity="1.0"  filling="0" d="M12.378000259399414 6.367199897766113 L13.481760025024414 2.99423885345459 C13.975199699401855 3.3531992435455322 14.468640327453613 3.7121593952178955 14.962080001831055 4.071119785308838 L14.962080001831055 4.071119785308838 C14.031652450561523 4.750840663909912 13.128039360046387 5.492466449737549 12.378000259399414 6.367199897766113 L12.378000259399414 6.367199897766113"></path>
<path fill="none" stroke="black" stroke-width=".3" stroke-opacity="1.0"  filling="0" d="M12.04800033569336 8.501520156860352 L12.061200141906738 7.766400337219238 L12.303359985351562 7.766400337219238 L12.293760299682617 8.501520156860352 L12.04800033569336 8.501520156860352"></path>
<path fill="none" stroke="black" stroke-width=".3" stroke-opacity="1.0"  filling="0" d="M11.911680221557617 16.19375991821289 L12.194400787353516 16.19375991821289 L12.184800148010254 16.92888069152832 L11.898719787597656 16.92888069152832 L11.911680221557617 16.19375991821289"></path>
<path fill="none" stroke="black" stroke-width=".3" stroke-opacity="1.0"  filling="0" d="M18.524398803710938 16.697521209716797 L21.138959884643555 15.45695972442627 L21.39552116394043 16.201679229736328 L18.91655921936035 17.388959884643555 L18.524398803710938 16.697521209716797"></path>
<path fill="none" stroke="black" stroke-width=".3" stroke-opacity="1.0"  filling="0" d="M4.9367995262146 17.388959884643555 L2.457599639892578 16.201679229736328 L2.714400291442871 15.45695972442627 L5.328959941864014 16.697521209716797 L4.9367995262146 17.388959884643555"></path>
<path fill="none" stroke="black" stroke-width=".3" stroke-opacity="1.0"  filling="0" d="M22.25111961364746 17.896320343017578 L22.49616050720215 18.999839782714844 L20.349838256835938 19.7968807220459 L19.98192024230957 18.999839782714844 L19.24608039855957 18.447839736938477 L16.990079879760742 13.689599990844727 L16.854719161987305 20.96232032775879 L12.132719993591309 20.96232032775879 L12.15839958190918 18.964799880981445 L16.710479736328125 18.964799880981445 L16.710479736328125 18.22968101501465 L12.168000221252441 18.22968101501465 L12.184800148010254 16.92864227294922 L16.710479736328125 16.92864227294922 L16.710479736328125 16.193519592285156 L12.194400787353516 16.193519592285156 L12.244080543518066 12.347519874572754 L12.293760299682617 8.501520156860352 L16.71023941040039 8.501520156860352 L16.71023941040039 7.766400337219238 L12.303120613098145 7.766400337219238 L12.316559791564941 6.7353596687316895 C13.015633583068848 5.982766628265381 13.760225296020508 5.261786460876465 14.585519790649414 4.65023946762085 L14.585519790649414 4.65023946762085 C15.587793350219727 4.934311389923096 16.58942413330078 5.220658302307129 17.590559005737305 5.508719444274902 L19.920839309692383 11.702520370483398 L22.25111961364746 17.896320343017578"></path>
<path fill="none" stroke="black" stroke-width=".3" stroke-opacity="1.0"  filling="0" d="M6.98207950592041 18.229921340942383 L6.98207950592041 18.965280532836914 L11.862479209899902 18.965280532836914 L11.826000213623047 21.02400016784668 L6.79703950881958 20.962560653686523 L6.6907196044921875 14.146080017089844 L4.650720119476318 18.448318481445312 L3.91487979888916 19.000320434570312 L3.54695987701416 19.797361373901367 L1.4006385803222656 19.000320434570312 L3.6388792991638184 12.56112003326416 L5.877120018005371 6.121919631958008 L6.3064799308776855 5.508719444274902 L9.556800842285156 4.466159820556641 L9.740880966186523 3.0556793212890625 C10.511527061462402 3.359328269958496 11.314125061035156 3.6022791862487793 12.132479667663574 3.7303199768066406 L12.06096076965332 7.766400337219238 L6.98207950592041 7.766400337219238 L6.98207950592041 8.501760482788086 L12.04800033569336 8.501760482788086 L11.979840278625488 12.347760200500488 L11.911680221557617 16.19375991821289 L6.98207950592041 16.19375991821289 L6.98207950592041 16.92888069152832 L11.898480415344238 16.92888069152832 L11.875439643859863 18.229921340942383 L6.98207950592041 18.229921340942383"></path>
<path fill="none" stroke="black" stroke-width=".3" stroke-opacity="1.0"  filling="0" d="M12.168000221252441 18.229921340942383 L12.15839958190918 18.96504020690918 L11.862479209899902 18.96504020690918 L11.875439643859863 18.229921340942383 L12.168000221252441 18.229921340942383"></path>
<path fill="none" stroke="black" stroke-width=".3" stroke-opacity="1.0"  filling="0" d="M4.460400104522705 18.345600128173828 L2.0083189010620117 17.331600189208984 L2.3164796829223633 16.48440170288086 L4.776480197906494 17.664478302001953 L4.460400104522705 18.345600128173828"></path>
<path fill="none" stroke="black" stroke-width=".3" stroke-opacity="1.0"  filling="0" d="M19.39272117614746 18.345600128173828 L19.076881408691406 17.66423988342285 L21.536880493164062 16.484159469604492 L21.844799041748047 17.33135986328125 L19.39272117614746 18.345600128173828"></path></svg>