<svg xmlns="http://www.w3.org/2000/svg" viewBox="0.0 0.0 24.0 24.0" height="200px" width="200px"><path fill="none" stroke="black" stroke-width=".3" stroke-opacity="1.0"  filling="0" d="M12.0 1.2000007629394531 L12.0 1.2000007629394531 C13.941547393798828 1.3740034103393555 15.76093864440918 1.8350697755813599 17.350988388061523 2.6907222270965576 C18.9410400390625 3.546374797821045 20.30175018310547 4.796613693237305 21.32593536376953 6.5489606857299805 C22.35970115661621 8.31769847869873 22.80533218383789 10.217756271362305 22.764381408691406 12.072927474975586 C22.723430633544922 13.928099632263184 22.19589614868164 15.738385200500488 21.28333282470703 17.327579498291016 C20.370769500732422 18.91677474975586 19.07317352294922 20.28487777709961 17.492101669311523 21.25568389892578 C15.911027908325195 22.22648811340332 14.046477317810059 22.79999542236328 12.0 22.799999237060547 C9.95350456237793 22.800003051757812 8.088985443115234 22.226491928100586 6.507966041564941 21.255680084228516 C4.926946640014648 20.284868240356445 3.6294267177581787 18.9167537689209 2.716928720474243 17.327550888061523 C1.8044307231903076 15.738347053527832 1.2769548892974854 13.928054809570312 1.2360233068466187 12.072885513305664 C1.1950918436050415 10.217716217041016 1.6407047510147095 8.317670822143555 2.674384593963623 6.5489606857299805 C3.6985056400299072 4.79660701751709 5.059150218963623 3.546367645263672 6.649144172668457 2.69071626663208 C8.23913860321045 1.8350651264190674 10.058481216430664 1.3740019798278809 12.0 1.2000007629394531 L12.0 1.2000007629394531"></path>
<path fill="none" stroke="black" stroke-width=".3" stroke-opacity="1.0"  filling="0" d="M12.015769004821777 10.842455863952637 L17.797439575195312 6.123288154602051 L13.138751983642578 11.801063537597656 C13.422558784484863 14.491511344909668 11.277545928955078 12.670392036437988 10.743528366088867 12.191376686096191 L7.737887859344482 8.215463638305664 L11.546832084655762 10.90833568572998 C11.70213508605957 10.880106925964355 11.858719825744629 10.826603889465332 12.015769004821777 10.842455863952637 L12.015769004821777 10.842455863952637"></path>
<path fill="none" stroke="black" stroke-width=".3" stroke-opacity="1.0"  filling="0" d="M12.385560035705566 20.861831665039062 L12.385560035705566 19.328447341918945 L11.09992790222168 19.328447341918945 L11.09992790222168 20.861831665039062 C8.951093673706055 20.420269012451172 7.181428909301758 19.504230499267578 5.838558197021484 18.161380767822266 C4.495687007904053 16.818531036376953 3.5796103477478027 15.048871994018555 3.1379528045654297 12.90007209777832 L4.671336650848389 12.90007209777832 L4.671336650848389 11.614224433898926 L3.1379528045654297 11.614224433898926 C3.55120849609375 9.369998931884766 4.4076642990112305 7.484963417053223 5.727824687957764 6.043913841247559 C7.047985553741455 4.6028642654418945 8.831851959228516 3.6058013439178467 11.09992790222168 3.1375207901000977 L11.09992790222168 5.442888259887695 L12.385560035705566 5.442888259887695 L12.385560035705566 3.1375207901000977 C14.755334854125977 3.575869560241699 16.655338287353516 4.510185241699219 18.072429656982422 5.927370548248291 C19.489521026611328 7.344555854797363 20.4237003326416 9.244611740112305 20.861831665039062 11.614439964294434 L18.557113647460938 11.614439964294434 L18.557113647460938 12.900287628173828 L20.861831665039062 12.900287628173828 C20.393753051757812 15.168351173400879 19.396759033203125 16.952163696289062 17.95574951171875 18.272247314453125 C16.514739990234375 19.592330932617188 14.629711151123047 20.448684692382812 12.385560035705566 20.861831665039062 L12.385560035705566 20.861831665039062"></path></svg>