<svg xmlns="http://www.w3.org/2000/svg" viewBox="0.0 0.0 24.0 24.0" height="200px" width="200px"><path fill="none" stroke="black" stroke-width=".3" stroke-opacity="1.0"  filling="0" d="M13.712230682373047 12.705023765563965 L13.712230682373047 12.705023765563965 C13.630870819091797 12.845999717712402 13.549511909484863 12.98697566986084 13.468152046203613 13.127951622009277 L12.244080543518066 13.834487915039062 C12.081432342529297 13.834487915039062 11.918783187866211 13.834487915039062 11.756134986877441 13.834487915039062 L10.532280921936035 13.127951622009277 C10.450848579406738 12.98697566986084 10.369416236877441 12.845999717712402 10.287983894348145 12.705023765563965 L10.287983894348145 11.291520118713379 C10.369416236877441 11.150544166564941 10.450848579406738 11.009568214416504 10.532280921936035 10.868592262268066 L11.756134986877441 10.162055969238281 C11.918783187866211 10.162055969238281 12.081432342529297 10.162055969238281 12.244080543518066 10.162055969238281 L13.468152046203613 10.868592262268066 C13.549511909484863 11.009568214416504 13.630870819091797 11.150544166564941 13.712230682373047 11.291520118713379 L13.712230682373047 12.705023765563965"></path>
<path fill="none" stroke="black" stroke-width=".3" stroke-opacity="1.0"  filling="0" d="M20.306711196899414 16.445064544677734 L20.306711196899414 16.445064544677734 C20.398082733154297 16.788373947143555 20.472625732421875 17.096920013427734 20.002365112304688 16.970808029174805 L18.70917510986328 16.22431182861328 L19.055208206176758 17.515125274658203 C18.95395278930664 17.690462112426758 18.62914276123047 17.7959041595459 18.468551635742188 17.672592163085938 L17.965486526489258 15.794904708862305 L17.33217430114746 15.429647445678711 L17.678207397460938 16.720247268676758 C17.57691764831543 16.895645141601562 17.251924514770508 17.001142501831055 17.09133529663086 16.87771224975586 L16.588272094726562 15.000240325927734 L15.945887565612793 14.629152297973633 L16.291919708251953 15.919967651367188 C16.190631866455078 16.095365524291992 15.865636825561523 16.20086097717285 15.705047607421875 16.077430725097656 L15.201983451843262 14.199960708618164 L14.073383331298828 13.548287391662598 C14.030903816223145 13.580039978027344 13.988423347473145 13.611791610717773 13.945943832397461 13.64354419708252 L12.450143814086914 14.50754451751709 C12.401328086853027 14.528351783752441 12.352511405944824 14.54916000366211 12.303695678710938 14.569967269897461 L12.303695678710938 15.873096466064453 L13.678104400634766 17.24728775024414 C13.678104400634766 17.683088302612305 13.684364318847656 17.85727310180664 13.248695373535156 17.67669677734375 L12.303695678710938 16.731910705566406 L12.303695678710938 17.474088668823242 L13.678104400634766 18.848495483398438 C13.678104400634766 19.28429412841797 13.68436336517334 19.45848274230957 13.248695373535156 19.277902603149414 L12.303695678710938 18.333120346069336 L12.303695678710938 19.064281463623047 L13.678104400634766 20.438472747802734 C13.678104400634766 20.874271392822266 13.684362411499023 21.048458099365234 13.248695373535156 20.867877960205078 L12.303695678710938 19.923095703125 L12.303695678710938 21.416305541992188 C12.160225868225098 21.55977439880371 11.839037895202637 21.560291290283203 11.695008277893066 21.41738510131836 L11.695008277893066 19.92417335510254 L10.750008583068848 20.86895751953125 C10.314414978027344 21.04950714111328 10.320816040039062 20.875276565551758 10.320816040039062 20.439552307128906 L11.695008277893066 19.065359115600586 L11.695008277893066 18.334197998046875 L10.750008583068848 19.27898406982422 C10.314412117004395 19.459531784057617 10.320816040039062 19.285301208496094 10.320816040039062 18.84957504272461 L11.695008277893066 17.47516632080078 L11.695008277893066 16.73299217224121 L10.750008583068848 17.677776336669922 C10.314412117004395 17.85832405090332 10.320816040039062 17.684093475341797 10.320816040039062 17.248367309570312 L11.695008277893066 15.874176025390625 L11.695008277893066 14.57104778289795 C11.64619255065918 14.550239562988281 11.597375869750977 14.529431343078613 11.54856014251709 14.508623123168945 L10.052760124206543 13.644622802734375 C10.01028060913086 13.612871170043945 9.96780014038086 13.581119537353516 9.925320625305176 13.549367904663086 L8.79693603515625 14.20103931427002 L8.293656349182129 16.07851219177246 C8.13306713104248 16.201942443847656 7.808072566986084 16.096445083618164 7.706784248352051 15.921048164367676 L8.052816390991211 14.630231857299805 L7.4104323387146 15.001319885253906 L6.907368183135986 16.87879180908203 C6.746779441833496 17.002222061157227 6.421785354614258 16.896726608276367 6.320496082305908 16.721328735351562 L6.666528224945068 15.4307279586792 L6.033432483673096 15.795982360839844 L5.530368328094482 17.67367172241211 C5.369678020477295 17.79697036743164 5.044785499572754 17.691606521606445 4.9434967041015625 17.51620864868164 L5.289528846740723 16.225391387939453 L3.9965524673461914 16.971885681152344 C3.52559232711792 17.098203659057617 3.6008269786834717 16.789169311523438 3.692856788635254 16.44571304321289 L4.985832691192627 15.699216842651367 L3.6952333450317383 15.35318374633789 C3.594055414199829 15.177802085876465 3.6772711277008057 14.867629051208496 3.852696418762207 14.76652717590332 L5.729736804962158 15.26959228515625 L6.362832546234131 14.904119491577148 L5.072232723236084 14.558087348937988 C4.970943927764893 14.382791519165039 5.054115295410156 14.072599411010742 5.229480743408203 13.971431732177734 L7.10695219039917 14.47428035736084 L7.749552249908447 14.103191375732422 L6.4589524269104 13.757376670837402 C6.35779333114624 13.581925392150879 6.440755844116211 13.271674156188965 6.6162004470825195 13.170503616333008 L8.49345588684082 13.673567771911621 L9.622272491455078 13.021896362304688 C9.615863800048828 12.969192504882812 9.609456062316895 12.916487693786621 9.603047370910645 12.863783836364746 L9.603047370910645 11.136648178100586 C9.609456062316895 11.083944320678711 9.615863800048828 11.03123950958252 9.622272491455078 10.978535652160645 L8.493672370910645 10.327079772949219 L6.6162004470825195 10.830143928527832 C6.04746675491333 10.905143737792969 6.338780879974365 10.451830863952637 6.459168434143066 10.24327278137207 L7.749768257141113 9.897455215454102 L7.107384204864502 9.52658462524414 L5.229696273803711 10.029647827148438 C4.6606292724609375 10.104691505432129 4.952089786529541 9.651569366455078 5.072664737701416 9.44277572631836 L6.363480567932129 9.09696102142334 L5.730384826660156 8.731488227844238 L3.852911949157715 9.234551429748535 C3.284344434738159 9.309324264526367 3.5750131607055664 8.857074737548828 3.6958799362182617 8.647895812988281 L4.986480236053467 8.302080154418945 L3.6935043334960938 7.555368423461914 C3.6410655975341797 7.359765529632568 3.801598072052002 7.081631183624268 3.9972009658813477 7.029191970825195 L5.290176868438721 7.775904178619385 L4.944144248962402 6.485088348388672 C5.0454583168029785 6.3096466064453125 5.355790615081787 6.226525783538818 5.5312323570251465 6.3278398513793945 L6.03429651260376 8.20531177520752 L6.667392253875732 8.570784568786621 L6.321360111236572 7.280184268951416 C6.422674179077148 7.104742527008057 6.733006477355957 7.021622180938721 6.908448219299316 7.122936248779297 L7.411296367645264 9.000408172607422 L8.053895950317383 9.371280670166016 L7.708079814910889 8.080464363098145 C7.809352397918701 7.905020236968994 8.11971664428711 7.822171211242676 8.295167922973633 7.923432350158691 L8.798015594482422 9.800904273986816 L9.926616668701172 10.45257568359375 C9.969096183776855 10.420680046081543 10.011576652526855 10.38878345489502 10.054056167602539 10.356887817382812 L11.549856185913086 9.49332046508789 C11.598671913146973 9.472872734069824 11.647488594055176 9.452424049377441 11.696304321289062 9.431976318359375 L11.696304321289062 8.127552032470703 L10.322111129760742 6.753143787384033 C10.322111129760742 6.550769805908203 10.548930168151855 6.323736667633057 10.751304626464844 6.323736667633057 L11.696304321289062 7.268519878387451 L11.696304321289062 6.5263447761535645 L10.322111129760742 5.151936054229736 C10.322111129760742 4.949561595916748 10.548930168151855 4.722527503967285 10.751304626464844 4.722527503967285 L11.696304321289062 5.667312145233154 L11.696304321289062 4.936152458190918 L10.322111129760742 3.56174373626709 C10.322111129760742 3.3593697547912598 10.548930168151855 3.1323366165161133 10.751304626464844 3.1323366165161133 L11.696304321289062 4.077120304107666 L11.696304321289062 2.583695411682129 C11.839468002319336 2.4405319690704346 12.160531997680664 2.4405319690704346 12.303695678710938 2.583695411682129 L12.303695678710938 4.076904296875 L13.248695373535156 3.132120132446289 C13.451120376586914 3.132120132446289 13.678104400634766 3.359102964401245 13.678104400634766 3.561528205871582 L12.303695678710938 4.935935974121094 L12.303695678710938 5.667096138000488 L13.248695373535156 4.7223124504089355 C13.451120376586914 4.7223124504089355 13.678104400634766 4.9492950439453125 13.678104400634766 5.15172004699707 L12.303695678710938 6.526128768920898 L12.303695678710938 7.268303871154785 L13.248695373535156 6.323520183563232 C13.451120376586914 6.323520183563232 13.678104400634766 6.550503253936768 13.678104400634766 6.752928256988525 L12.303695678710938 8.127336502075195 L12.303695678710938 9.431760787963867 C12.352511405944824 9.452208518981934 12.401328086853027 9.472657203674316 12.450143814086914 9.493104934692383 L13.946159362792969 10.356672286987305 C13.988639831542969 10.388567924499512 14.031119346618652 10.420463562011719 14.073599815368652 10.452359199523926 L15.20155143737793 9.800256729125977 L15.704401016235352 7.922784328460693 C15.879841804504395 7.821470260620117 16.190174102783203 7.904590606689453 16.291486740112305 8.080032348632812 L15.945454597473145 9.370847702026367 L16.588054656982422 8.99997615814209 L17.09090232849121 7.122504234313965 C17.26634407043457 7.021190166473389 17.576677322387695 7.104310035705566 17.67799186706543 7.279752254486084 L17.33217430114746 8.570352554321289 L17.96527099609375 8.204879760742188 L18.46833610534668 6.327408313751221 C18.643692016601562 6.226084232330322 18.953927993774414 6.309275150299072 19.055208206176758 6.48465633392334 L18.70917510986328 7.775256156921387 L20.002365112304688 7.0287604331970215 C20.197961807250977 7.08122444152832 20.358409881591797 7.359307289123535 20.30606460571289 7.554935932159424 L19.01287078857422 8.301648139953613 L20.303470611572266 8.64746379852295 C20.42386245727539 8.85615062713623 20.71516227722168 9.309332847595215 20.146438598632812 9.234335899353027 L18.269184112548828 8.731056213378906 L17.63587188720703 9.096528053283691 L18.926687240600586 9.442344665527344 C19.047414779663086 9.651612281799316 19.337919235229492 10.10397720336914 18.769439697265625 10.029215812683105 L16.89218521118164 9.526151657104492 L16.249584197998047 9.897024154663086 L17.540184020996094 10.242840766906738 C17.661096572875977 10.45209789276123 17.951749801635742 10.904515266418457 17.3829345703125 10.8297119140625 L15.50589656829834 10.326647758483887 L14.377296447753906 10.978103637695312 C14.38363265991211 11.030735969543457 14.389967918395996 11.083367347717285 14.3963041305542 11.13599967956543 L14.3963041305542 12.86313533782959 C14.389896392822266 12.915911674499512 14.383487701416016 12.968688011169434 14.377079963684082 13.021464347839355 L15.50589656829834 13.673135757446289 L17.38315200805664 13.169856071472168 C17.55862045288086 13.27098274230957 17.641633987426758 13.581320762634277 17.5403995513916 13.75672721862793 L16.249799728393555 14.102544784545898 L16.89240074157715 14.473848342895508 L18.76987075805664 13.97056770324707 C18.945270538330078 14.07181453704834 19.028322219848633 14.382013320922852 18.927120208740234 14.557439804077148 L17.636302947998047 14.903471946716309 L18.269615173339844 15.268943786621094 L20.14687156677246 14.765880584716797 C20.322256088256836 14.867015838623047 20.405288696289062 15.17717170715332 20.304119110107422 15.35253620147705 L19.013521194458008 15.698568344116211 L20.306711196899414 16.445064544677734"></path></svg>