<svg xmlns="http://www.w3.org/2000/svg" viewBox="0.0 0.0 24.0 24.0" height="200px" width="200px"><path fill="none" stroke="black" stroke-width=".3" stroke-opacity="1.0"  filling="0" d="M10.283015251159668 8.322599411010742 L10.283015251159668 8.322599411010742 C10.455848693847656 7.336630344390869 10.779150009155273 6.441864490509033 11.355456352233887 5.615472316741943 L11.456111907958984 5.489112377166748 C11.591960906982422 5.327121734619141 11.733613014221191 5.169810771942139 11.880767822265625 5.018016815185547 L11.993304252624512 4.9126081466674805 C12.625360488891602 4.370507717132568 13.296588897705078 4.031963348388672 14.087207794189453 3.77126407623291 L14.825927734375 5.39191198348999 C14.42422103881836 5.716346263885498 14.101221084594727 6.038897514343262 13.858895301818848 6.49502420425415 L13.82606315612793 6.5663042068481445 C13.787299156188965 6.6624956130981445 13.752447128295898 6.760359287261963 13.721735954284668 6.8594160079956055 L13.699487686157227 6.93177604675293 C13.583984375 7.510962009429932 13.663859367370605 8.00948429107666 13.75672721862793 8.587848663330078 L13.75672721862793 8.587848663330078 C13.171151161193848 8.793624877929688 12.620617866516113 9.213912010192871 12.0 9.20517635345459 C11.373520851135254 9.196357727050781 10.828415870666504 8.760647773742676 10.242623329162598 8.538383483886719 L10.242623329162598 8.538383483886719 C10.256087303161621 8.466455459594727 10.269551277160645 8.394527435302734 10.283015251159668 8.322599411010742 L10.283015251159668 8.322599411010742"></path>
<path fill="none" stroke="black" stroke-width=".3" stroke-opacity="1.0"  filling="0" d="M17.33001708984375 10.33939266204834 L16.90190315246582 12.694007873535156 L13.134647369384766 11.67729663848877 L17.33001708984375 10.33939266204834"></path>
<path fill="none" stroke="black" stroke-width=".3" stroke-opacity="1.0"  filling="0" d="M10.865352630615234 11.677512168884277 L7.0978803634643555 12.69422435760498 L6.6697678565979 10.339608192443848 L10.865352630615234 11.677512168884277"></path>
<path fill="none" stroke="black" stroke-width=".3" stroke-opacity="1.0"  filling="0" d="M21.480670928955078 12.843912124633789 L21.480670928955078 12.843912124633789 C21.55270004272461 13.604199409484863 21.75585174560547 14.363370895385742 21.696760177612305 15.124773025512695 C21.520965576171875 17.389907836914062 20.01544761657715 18.780351638793945 18.107664108276367 19.627582550048828 C16.199880599975586 20.474815368652344 13.889833450317383 20.77883529663086 12.104975700378418 20.87112045288086 L11.89523983001709 20.87112045288086 C10.335808753967285 20.790498733520508 8.472042083740234 20.594802856445312 6.7978105545043945 20.02609634399414 C5.123579502105713 19.457387924194336 3.6388845443725586 18.515666961669922 2.837597608566284 16.942995071411133 C1.5591840744018555 14.433876037597656 2.1442906856536865 12.101728439331055 3.623485565185547 10.393342971801758 C5.102680683135986 8.684956550598145 7.475963592529297 7.6003313064575195 9.773903846740723 7.58625602722168 L9.773903846740723 7.58625602722168 C9.811896324157715 7.439304828643799 9.849523544311523 7.293455123901367 9.893135070800781 7.147992134094238 L9.973920822143555 6.89959192276001 C10.01168441772461 6.79699182510376 10.047335624694824 6.697704315185547 10.087104797363281 6.596976280212402 L10.140456199645996 6.4626240730285645 C10.144920349121094 6.452184200286865 10.149383544921875 6.441744327545166 10.153847694396973 6.431304454803467 L10.216272354125977 6.295224189758301 C10.266167640686035 6.186366558074951 10.320401191711426 6.081546306610107 10.374167442321777 5.973816394805908 L10.528608322143555 5.699496269226074 C10.619277000427246 5.541470050811768 10.7388277053833 5.362977981567383 10.853039741516113 5.215440273284912 L10.953479766845703 5.089296340942383 C11.10092830657959 4.904059410095215 11.26024055480957 4.735653400421143 11.425007820129395 4.5657124519348145 L11.479656219482422 4.510847568511963 C11.490960121154785 4.500263690948486 11.502264022827148 4.489680290222168 11.513567924499512 4.479096412658691 L11.571671485900879 4.428552627563477 C11.572823524475098 4.427616596221924 11.573975563049316 4.426680088043213 11.575127601623535 4.42574405670166 L11.690472602844238 4.326600074768066 C11.691840171813965 4.325520038604736 11.693208694458008 4.324440002441406 11.694576263427734 4.323359966278076 L11.807975769042969 4.227456092834473 C11.86348819732666 4.184256076812744 11.918999671936035 4.141056060791016 11.974512100219727 4.097856044769287 L12.200231552124023 3.94039249420166 C12.201888084411621 3.9392402172088623 12.203543663024902 3.9380877017974854 12.2052001953125 3.9369354248046875 L12.316871643066406 3.8604726791381836 C12.330911636352539 3.8516883850097656 12.344951629638672 3.8429040908813477 12.358991622924805 3.8341197967529297 L12.47196102142334 3.7691049575805664 C12.474048614501953 3.76788067817688 12.476137161254883 3.7666566371917725 12.478224754333496 3.765432357788086 L12.694007873535156 3.644688606262207 C12.695520401000977 3.643824577331543 12.69703197479248 3.642960548400879 12.6985445022583 3.642096519470215 L12.800928115844727 3.5859365463256836 C12.815328598022461 3.578664541244507 12.829728126525879 3.571392297744751 12.844128608703613 3.564120292663574 L12.944568634033203 3.5185441970825195 C12.947376251220703 3.5172481536865234 12.950183868408203 3.5159521102905273 12.952991485595703 3.5146560668945312 L13.310688018798828 3.3578405380249023 C13.420560836791992 3.3141493797302246 13.532955169677734 3.275621175765991 13.645919799804688 3.2405519485473633 L13.88632869720459 3.161065101623535 C14.168560028076172 3.1158950328826904 14.431509017944336 3.3501319885253906 14.671919822692871 3.5047197341918945 L15.41107177734375 5.125152587890625 C15.350879669189453 5.380392551422119 15.290688514709473 5.635632038116455 15.230496406555176 5.890872001647949 L15.090527534484863 6.004056453704834 C15.046096801757812 6.039760112762451 15.00167465209961 6.075473308563232 14.957256317138672 6.111192226409912 L14.7429838180542 6.3271918296813965 C14.741975784301758 6.328343868255615 14.740967750549316 6.329496383666992 14.739959716796875 6.330648422241211 L14.59610366821289 6.509928226470947 C14.594807624816895 6.511872291564941 14.593511581420898 6.5138163566589355 14.592215538024902 6.51576042175293 L14.506248474121094 6.644064426422119 C14.50480842590332 6.646728515625 14.50336742401123 6.649392127990723 14.501927375793457 6.6520562171936035 L14.4656400680542 6.722471714019775 C14.464632034301758 6.724343776702881 14.463624000549316 6.7262163162231445 14.462615966796875 6.72808837890625 L14.426544189453125 6.795480251312256 C14.424886703491211 6.798795223236084 14.423425674438477 6.8022074699401855 14.422008514404297 6.8056321144104 L14.363471984863281 6.951000213623047 C14.354172706604004 6.984958171844482 14.344122886657715 7.018706321716309 14.334311485290527 7.052520275115967 L14.321999549865723 7.093128204345703 C14.31275463104248 7.141737937927246 14.302931785583496 7.1902265548706055 14.29305648803711 7.238712310791016 L14.276856422424316 7.377600193023682 C14.272090911865234 7.4109206199646 14.272991180419922 7.45942497253418 14.271671295166016 7.488624095916748 L14.27059268951416 7.573296546936035 C14.27066421508789 7.575960636138916 14.270736694335938 7.578624248504639 14.270808219909668 7.5812883377075195 L14.270808219909668 7.5812883377075195 C16.24848747253418 7.604338645935059 17.681900024414062 8.020734786987305 18.805419921875 8.880998611450195 C19.928939819335938 9.741262435913086 20.74256706237793 11.045392990112305 21.480670928955078 12.843912124633789 L21.480670928955078 12.843912124633789"></path>
<path fill="none" stroke="black" stroke-width=".3" stroke-opacity="1.0"  filling="0" d="M18.56488800048828 15.182112693786621 L18.56488800048828 15.182112693786621 C18.516504287719727 15.332807540893555 18.46811866760254 15.483503341674805 18.419734954833984 15.634198188781738 L18.033958435058594 16.751352310180664 L17.314247131347656 16.479623794555664 C16.995433807373047 16.35588264465332 16.677265167236328 16.23047637939453 16.359527587890625 16.104000091552734 L16.285873413085938 16.222583770751953 C16.033498764038086 16.62478256225586 15.776496887207031 17.024065017700195 15.519503593444824 17.423328399658203 L15.228336334228516 17.861591339111328 L14.751407623291016 17.548824310302734 C14.486879348754883 17.37566375732422 14.222352027893066 17.202503204345703 13.957823753356934 17.029342651367188 L13.615680694580078 16.800600051879883 C13.513728141784668 16.906225204467773 13.411776542663574 17.01184844970703 13.309823989868164 17.117473602294922 L12.208656311035156 18.23419189453125 L11.747496604919434 17.80370330810547 C11.630136489868164 17.6911678314209 11.512776374816895 17.578632354736328 11.395416259765625 17.466096878051758 L11.044416427612305 17.1271915435791 C10.9279203414917 17.013504028320312 10.811424255371094 16.89981460571289 10.694928169250488 16.7861270904541 L10.304616928100586 17.033231735229492 C10.166953086853027 17.119848251342773 10.029288291931152 17.206462860107422 9.891624450683594 17.293079376220703 L9.007967948913574 17.837182998657227 L8.72198486328125 17.428077697753906 C8.628745079040527 17.294662475585938 8.535504341125488 17.16124725341797 8.442264556884766 17.02783203125 L8.16578483581543 16.625207901000977 C8.044248580932617 16.445207595825195 7.922712802886963 16.265207290649414 7.80117654800415 16.085206985473633 L7.711103916168213 16.121063232421875 C7.559040069580078 16.180248260498047 7.406976222991943 16.239431381225586 7.254912376403809 16.298616409301758 L6.074040412902832 16.738609313964844 L5.616336345672607 15.63117504119873 C5.498331546783447 15.326498985290527 5.383419513702393 15.020607948303223 5.271600246429443 14.713607788085938 L5.271600246429443 14.713607788085938 C5.475381374359131 14.969017028808594 5.676577091217041 15.226510047912598 5.8751044273376465 15.486023902893066 L6.2885284423828125 16.04827117919922 L6.935448169708252 15.64802360534668 C7.075200080871582 15.56385612487793 7.21495246887207 15.479687690734863 7.3547043800354 15.395520210266113 L8.060376167297363 14.976479530334473 L8.321087837219238 15.27239990234375 C8.536727905273438 15.516768455505371 8.752368927001953 15.761136054992676 8.968008995056152 16.005504608154297 L9.248807907104492 16.329504013061523 C9.377903938293457 16.23539924621582 9.506999969482422 16.14129638671875 9.636096000671387 16.047191619873047 L10.031160354614258 15.76077651977539 C10.163568496704102 15.666600227355957 10.295975685119629 15.572423934936523 10.428383827209473 15.47824764251709 L10.828200340270996 15.193777084350586 L11.206199645996094 15.542831420898438 C11.445096015930176 15.76358413696289 11.683991432189941 15.984336853027344 11.922887802124023 16.205089569091797 L12.179927825927734 16.44700813293457 L12.410183906555176 16.219127655029297 C12.523799896240234 16.109256744384766 12.637415885925293 15.999384880065918 12.751031875610352 15.889513969421387 L13.47657585144043 15.190536499023438 L13.889352798461914 15.494447708129883 C14.015424728393555 15.589776039123535 14.141495704650879 15.685103416442871 14.26756763458252 15.780431747436523 L14.644271850585938 16.068359375 C14.757311820983887 16.1557674407959 14.870352745056152 16.243175506591797 14.983392715454102 16.330583572387695 L14.983392715454102 16.330583572387695 C15.162591934204102 16.110368728637695 15.34302043914795 15.891152381896973 15.524040222167969 15.672430992126465 L16.088665008544922 14.996135711669922 L16.378103256225586 15.173471450805664 C16.78380012512207 15.422333717346191 17.189512252807617 15.671207427978516 17.592456817626953 15.924503326416016 L17.798519134521484 16.05691146850586 L18.157943725585938 15.506760597229004 C18.33603286743164 15.24460220336914 18.51677894592285 14.98422908782959 18.700103759765625 14.725704193115234 L18.700103759765625 14.725704193115234 C18.655031204223633 14.877840042114258 18.609960556030273 15.029976844787598 18.56488800048828 15.182112693786621 L18.56488800048828 15.182112693786621"></path></svg>