<svg xmlns="http://www.w3.org/2000/svg" viewBox="0.0 0.0 24.0 24.0" height="200px" width="200px"><path fill="none" stroke="black" stroke-width=".3" stroke-opacity="1.0"  filling="0" d="M19.165800094604492 10.371468544006348 L19.165800094604492 10.371468544006348 C19.84956169128418 10.827775001525879 20.584091186523438 11.215923309326172 21.217086791992188 11.740387916564941 C21.71034049987793 12.149070739746094 22.21678924560547 12.588164329528809 22.521350860595703 13.151691436767578 C24.16506576538086 16.19304847717285 18.961395263671875 15.711685180664062 17.593318939208984 15.55762767791748 L17.593318939208984 15.55762767791748 C16.38996696472168 17.15203094482422 15.271984100341797 18.39995002746582 13.255162239074707 18.954282760620117 C10.565018653869629 19.693679809570312 8.188813209533691 18.911067962646484 6.542623519897461 17.306367874145508 C4.8964338302612305 15.701667785644531 3.9802589416503906 13.274879455566406 4.210176944732666 10.725924491882324 L4.210176944732666 10.725924491882324 C3.4664688110351562 10.260791778564453 2.9528260231018066 9.954179763793945 2.192800760269165 9.214227676391602 C1.842228651046753 8.87291431427002 1.5096464157104492 8.483064651489258 1.3262970447540283 8.029436111450195 C0.24003326892852783 5.341890335083008 4.865476131439209 5.760027885437012 6.118103981018066 5.851883888244629 L6.118103981018066 5.851883888244629 C5.724408149719238 6.2684760093688965 5.330712795257568 6.685068130493164 4.93701696395874 7.101660251617432 L4.93701696395874 7.101660251617432 C1.8203098773956299 7.256540298461914 2.326937675476074 7.522089004516602 4.596384048461914 9.362531661987305 L4.596384048461914 9.362531661987305 C5.453427314758301 7.772231578826904 6.280602931976318 6.498337745666504 7.9365034103393555 5.621638774871826 C9.924246788024902 4.569249153137207 11.88683795928955 4.5166425704956055 13.565820693969727 5.134984016418457 C15.244803428649902 5.753325462341309 16.64017677307129 7.0426154136657715 17.49348258972168 8.674017906188965 C18.346790313720703 10.305420875549316 18.65802764892578 12.278936386108398 18.168743133544922 14.265730857849121 L18.168743133544922 14.265730857849121 C18.448102951049805 14.293954849243164 18.726041793823242 14.350162506103516 19.006824493408203 14.350403785705566 C22.41045570373535 14.353323936462402 21.463075637817383 13.770182609558105 19.237295150756836 12.009611129760742 L19.237295150756836 12.009611129760742 C19.213462829589844 11.463563919067383 19.189632415771484 10.917515754699707 19.165800094604492 10.371468544006348 L19.165800094604492 10.371468544006348"></path>
<path fill="none" stroke="black" stroke-width=".3" stroke-opacity="1.0"  filling="0" d="M10.77182388305664 13.765908241271973 L10.77182388305664 13.765908241271973 C11.072640419006348 13.244879722595215 11.153244018554688 12.50363826751709 11.674272537231445 12.2028226852417 C12.877535820007324 11.508118629455566 14.381616592407227 12.376500129699707 14.381616592407227 13.765908241271973 C14.381616592407227 15.155316352844238 12.877535820007324 16.023698806762695 11.674272537231445 15.328993797302246 C11.153244018554688 15.028178215026855 11.072640419006348 14.28693675994873 10.77182388305664 13.765908241271973 L10.77182388305664 13.765908241271973"></path>
<path fill="none" stroke="black" stroke-width=".3" stroke-opacity="1.0"  filling="0" d="M11.3150634765625 17.821956634521484 L11.3150634765625 17.821956634521484 C9.604246139526367 17.545333862304688 8.110225677490234 16.90497589111328 7.066158294677734 15.861421585083008 C6.022091865539551 14.817867279052734 5.427978515625 13.371116638183594 5.516976356506348 11.481707572937012 L5.516976356506348 11.481707572937012 C6.978639125823975 12.222617149353027 8.443623542785645 12.874533653259277 9.964632034301758 13.484891891479492 L9.964632034301758 13.484891891479492 C10.12065601348877 13.059732437133789 10.276679992675781 12.63457202911377 10.432703971862793 12.209412574768066 L10.432703971862793 12.209412574768066 C8.847421646118164 11.56951904296875 7.329495906829834 10.886137962341309 5.813976287841797 10.095636367797852 L5.813976287841797 10.095636367797852 C6.705811977386475 8.41645622253418 7.56733512878418 7.093891620635986 9.49348258972168 6.469316482543945 C11.929058074951172 5.679553985595703 14.056512832641602 6.458806037902832 15.420551300048828 7.9923176765441895 C16.784589767456055 9.525829315185547 17.385211944580078 11.813600540161133 16.767118453979492 14.040876388549805 L16.767118453979492 14.040876388549805 C16.272119522094727 13.93359661102295 15.777119636535645 13.826315879821777 15.282119750976562 13.719036102294922 L15.282119750976562 13.719036102294922 C15.297464370727539 14.171688079833984 15.055347442626953 14.596016883850098 14.940192222595215 15.03404426574707 L14.940192222595215 15.03404426574707 C15.330503463745117 15.121164321899414 15.72081470489502 15.208284378051758 16.111125946044922 15.295404434204102 L16.111125946044922 15.295404434204102 C14.533879280090332 16.952369689941406 13.573673248291016 17.44481086730957 11.3150634765625 17.821956634521484 L11.3150634765625 17.821956634521484"></path></svg>