<svg xmlns="http://www.w3.org/2000/svg" viewBox="0.0 0.0 24.0 24.0" height="200px" width="200px"><path fill="none" stroke="black" stroke-width=".3" stroke-opacity="1.0"  filling="0" d="M14.277359008789062 2.0002899169921875 L14.277359008789062 2.0002899169921875 C14.441668510437012 2.182649612426758 14.605977058410645 2.365009307861328 14.770286560058594 2.5473690032958984 L14.770286560058594 2.5473690032958984 C12.487010955810547 4.146669864654541 10.971436500549316 6.223203182220459 10.216938018798828 8.459546089172363 C9.462440490722656 10.695889472961426 9.46901798248291 13.092041969299316 10.230046272277832 15.330581665039062 C10.991074562072754 17.569120407104492 12.506553649902344 19.650047302246094 14.769858360290527 21.255935668945312 L14.769858360290527 21.255935668945312 C13.96804428100586 22.1484375 13.573832511901855 21.414459228515625 12.737146377563477 20.554380416870117 C11.142613410949707 18.915267944335938 9.774683952331543 16.9383544921875 9.188515663146973 14.694476127624512 C8.574502944946289 12.34400749206543 8.822420120239258 9.82178783416748 9.735987663269043 7.561522006988525 C10.649554252624512 5.30125617980957 12.228771209716797 3.3029441833496094 14.277359008789062 2.0002899169921875 L14.277359008789062 2.0002899169921875"></path>
<path fill="none" stroke="black" stroke-width=".3" stroke-opacity="1.0"  filling="0" d="M14.201374053955078 2.529817581176758 L14.467637062072754 2.529817581176758 L14.46763801574707 8.765007019042969 L14.46763801574707 15.00019645690918 L14.467637062072754 21.23538589477539 L14.201374053955078 21.23538589477539 L14.201374053955078 15.00019645690918 L14.201374053955078 8.765007019042969 L14.201374053955078 2.529817581176758"></path></svg>