<svg xmlns="http://www.w3.org/2000/svg" viewBox="0.0 0.0 24.0 24.0" height="200px" width="200px"><path fill="none" stroke="black" stroke-width=".3" stroke-opacity="1.0"  filling="0" d="M171.57139587402344 91.2430191040039 L171.57139587402344 91.2430191040039 C172.04263305664062 93.32215881347656 172.52915954589844 95.39739227294922 173.02757263183594 97.46963500976562 C173.52598571777344 99.5418701171875 174.03631591796875 101.6111068725586 174.55517578125 103.67823028564453 C175.07403564453125 105.74535369873047 175.6014404296875 107.81037139892578 176.13400268554688 109.8741683959961 C176.6665802001953 111.93797302246094 177.20431518554688 114.00054931640625 177.74386596679688 116.06281280517578 C178.31973266601562 118.263916015625 178.9049530029297 120.46322631835938 179.4491424560547 122.67245483398438 C179.60726928710938 123.31436920166016 180.05706787109375 124.41447448730469 179.92300415039062 125.10710144042969 L179.92300415039062 125.10710144042969 C182.180908203125 125.40631866455078 184.4461212158203 125.7008285522461 186.70721435546875 126.02653503417969 C188.9683074951172 126.35224914550781 191.2252655029297 126.70915985107422 193.46665954589844 127.13319396972656 C195.7080535888672 127.5572280883789 197.9338836669922 128.0483856201172 200.13270568847656 128.642578125 C202.33154296875 129.23675537109375 204.50335693359375 129.93399047851562 206.63673400878906 130.77017211914062 L206.63673400878906 130.77017211914062 C205.2390899658203 132.23583984375 201.8427276611328 132.3940887451172 199.98707580566406 132.7483673095703 C197.85926818847656 133.15460205078125 195.76016235351562 133.5546417236328 193.67381286621094 133.96632385253906 C191.58746337890625 134.37802124023438 189.51388549804688 134.80136108398438 187.4371337890625 135.2542266845703 C185.36038208007812 135.70709228515625 183.28048706054688 136.18948364257812 181.18148803710938 136.71926879882812 L181.18148803710938 136.71926879882812 C181.74563598632812 138.22940063476562 182.1616668701172 139.6279296875 182.15713500976562 140.97216796875 C182.15261840820312 142.31640625 181.72752380371094 143.60635375976562 180.60943603515625 144.8992919921875 L180.53323364257812 145.7289276123047 C181.7307586669922 145.69940185546875 183.1769561767578 145.53500366210938 184.6112518310547 145.47802734375 C186.04554748535156 145.42105102539062 187.4679412841797 145.47152709960938 188.6178436279297 145.87173461914062 C190.7265167236328 146.60565185546875 192.82174682617188 147.15463256835938 194.949951171875 147.59033203125 C197.07815551757812 148.02603149414062 199.23931884765625 148.34844970703125 201.47988891601562 148.62924194335938 C203.2457275390625 148.85055541992188 205.09165954589844 149.0865020751953 206.9303741455078 149.13282775878906 C208.76907348632812 149.17913818359375 210.6005859375 149.03582763671875 212.3375701904297 148.49856567382812 C214.13116455078125 147.9438018798828 215.7418975830078 146.95103454589844 217.25250244140625 145.80020141601562 C218.76312255859375 144.64938354492188 220.17359924316406 143.34051513671875 221.5666961669922 142.15354919433594 L221.5666961669922 142.15354919433594 C221.18128967285156 144.21372985839844 220.80252075195312 146.2891845703125 220.45530700683594 148.375 C220.10809326171875 150.4608154296875 219.79241943359375 152.55697631835938 219.53317260742188 154.6586151123047 C219.27392578125 156.76025390625 219.0710906982422 158.86734008789062 218.9495849609375 160.9749755859375 C218.8280792236328 163.08261108398438 218.78787231445312 165.1907958984375 218.8538818359375 167.29461669921875 C218.90142822265625 168.81024169921875 218.95645141601562 170.5006561279297 219.29685974121094 172.08592224121094 C219.6372833251953 173.67120361328125 220.2631072998047 175.15133666992188 221.45230102539062 176.2464599609375 L221.45230102539062 176.2464599609375 C219.228271484375 175.8815460205078 217.07798767089844 175.2781982421875 214.98060607910156 174.5194549560547 C212.88320922851562 173.76071166992188 210.83871459960938 172.8466033935547 208.8262176513672 171.86016845703125 C206.813720703125 170.87371826171875 204.83323669433594 169.81495666503906 202.86387634277344 168.7669219970703 C201.12692260742188 167.8425750732422 199.2074737548828 166.6678466796875 197.1990966796875 165.85018920898438 C195.19070434570312 165.03253173828125 193.09341430664062 164.57196044921875 191.00079345703125 165.07591247558594 C188.82318115234375 165.60032653808594 188.24111938476562 167.71896362304688 188.35989379882812 169.69569396972656 C188.49169921875 171.88958740234375 189.0150146484375 174.15655517578125 189.62692260742188 176.4090576171875 C190.23883056640625 178.66156005859375 190.9393310546875 180.8996124267578 191.4254913330078 183.0357208251953 C191.94766235351562 185.33004760742188 192.46487426757812 187.6259002685547 192.97975158691406 189.92254638671875 C193.49462890625 192.2191925048828 194.0071563720703 194.51663208007812 194.5199737548828 196.8141632080078 C195.0327911376953 199.1116943359375 195.54588317871094 201.4093017578125 196.06190490722656 203.706298828125 C196.57791137695312 206.0032958984375 197.09683227539062 208.29965209960938 197.6212921142578 210.59469604492188 C198.145751953125 212.8897247314453 198.6757354736328 215.1834259033203 199.21389770507812 217.47508239746094 C199.75205993652344 219.76673889160156 200.29837036132812 222.0563507080078 200.85548400878906 224.34320068359375 C201.41259765625 226.63006591796875 201.98049926757812 228.91415405273438 202.5618133544922 231.19479370117188 C203.14312744140625 233.4754180908203 203.73785400390625 235.75259399414062 204.3486328125 238.02557373046875 L204.3486328125 238.02557373046875 C201.9314727783203 237.97994995117188 199.5142822265625 237.94203186035156 197.0970458984375 237.91049194335938 C194.6798095703125 237.87893676757812 192.26255798339844 237.85374450683594 189.8452606201172 237.8335723876953 C187.42796325683594 237.81338500976562 185.01065063476562 237.7982177734375 182.5933074951172 237.7866973876953 C180.17596435546875 237.77517700195312 177.75860595703125 237.76731872558594 175.3412322998047 237.7617645263672 C172.92385864257812 237.75621032714844 170.5064697265625 237.75296020507812 168.0890655517578 237.7506561279297 C165.67166137695312 237.74835205078125 163.25425720214844 237.74700927734375 160.8368377685547 237.74526977539062 C158.41941833496094 237.7435302734375 156.00201416015625 237.74139404296875 153.5845947265625 237.7375030517578 C151.16717529296875 237.73361206054688 148.74977111816406 237.72796630859375 146.33236694335938 237.71922302246094 C143.9149627685547 237.71047973632812 141.49755859375 237.69863891601562 139.08018493652344 237.6823272705078 L139.08018493652344 237.6823272705078 C139.90545654296875 235.45204162597656 140.73416137695312 233.21875 141.56103515625 230.98179626464844 C142.38790893554688 228.74485778808594 143.2129669189453 226.50425720214844 144.0309600830078 224.25938415527344 C144.84896850585938 222.01451110839844 145.65989685058594 219.76535034179688 146.45855712890625 217.5112762451172 C147.2572021484375 215.2572021484375 148.04354858398438 212.9982147216797 148.81236267089844 210.7336883544922 C149.5811767578125 208.46914672851562 150.33245849609375 206.19906616210938 151.06097412109375 203.9228057861328 C151.78948974609375 201.64654541015625 152.4952392578125 199.3640899658203 153.1729736328125 197.0748291015625 C153.8507080078125 194.78558349609375 154.5004425048828 192.489501953125 155.11692810058594 190.18597412109375 C155.73341369628906 187.8824462890625 156.316650390625 185.57147216796875 156.86141967773438 183.25242614746094 C157.36038208007812 181.1282958984375 157.880615234375 178.93618774414062 158.25112915039062 176.72531127929688 C158.62164306640625 174.51441955566406 158.84246826171875 172.28475952148438 158.74266052246094 170.0854949951172 C158.6718292236328 168.52474975585938 158.3808135986328 166.31622314453125 156.56619262695312 165.82485961914062 C155.57398986816406 165.55618286132812 154.3935089111328 165.7267608642578 153.43287658691406 165.87635803222656 C151.0008087158203 166.25511169433594 150.50421142578125 166.2576904296875 148.6728973388672 167.07308959960938 C147.27041625976562 167.69754028320312 145.99893188476562 168.5384063720703 144.71060180664062 169.34796142578125 C143.4222869873047 170.15750122070312 142.11712646484375 170.93572998046875 140.64732360839844 171.4349365234375 C138.9830322265625 172.00018310546875 137.26568603515625 172.3400115966797 135.5238800048828 172.53404235839844 C133.78207397460938 172.72805786132812 132.01580810546875 172.77627563476562 130.25367736816406 172.75831604003906 C128.49154663085938 172.74034118652344 126.73355102539062 172.65618896484375 125.00829315185547 172.58546447753906 L125.00829315185547 172.58546447753906 C125.29859161376953 170.54161071777344 125.57855224609375 168.4803009033203 125.80887603759766 166.41055297851562 C126.03919982910156 164.34080505371094 126.21988677978516 162.2626190185547 126.31163787841797 160.1849822998047 C126.40339660644531 158.10736083984375 126.40621948242188 156.0302734375 126.28080749511719 153.9627685546875 C126.20436096191406 152.70245361328125 126.10740661621094 151.4115447998047 125.8045654296875 150.198486328125 C125.50172424316406 148.98544311523438 124.99300384521484 147.85025024414062 124.09303283691406 146.90139770507812 L124.09303283691406 146.90139770507812 C125.39098358154297 146.70046997070312 126.67813110351562 146.4708251953125 127.96855163574219 146.35629272460938 C129.2589874267578 146.24176025390625 130.55270385742188 146.2423095703125 131.86378479003906 146.50172424316406 C133.5890655517578 146.8430938720703 135.02342224121094 147.9049072265625 136.67767333984375 148.44586181640625 C138.61776733398438 149.08029174804688 140.6063232421875 149.69100952148438 142.6259307861328 150.11956787109375 C144.6455535888672 150.54812622070312 146.69622802734375 150.79452514648438 148.76058959960938 150.7003631591797 C151.22528076171875 150.5879364013672 153.50048828125 149.82940673828125 155.60780334472656 148.57028198242188 C156.89512634277344 147.8011016845703 157.96942138671875 146.80477905273438 159.390380859375 146.2594451904297 C161.36672973632812 145.5009765625 163.2071533203125 145.56788635253906 165.27908325195312 145.70013427734375 L165.27908325195312 145.70013427734375 C164.13748168945312 144.1681671142578 163.35203552246094 142.8629150390625 163.04449462890625 141.49212646484375 C162.73695373535156 140.12132263183594 162.90733337402344 138.68499755859375 163.6774139404297 136.89088439941406 L163.6774139404297 136.89088439941406 C161.8934326171875 136.84182739257812 160.1110382080078 136.79013061523438 158.32965087890625 136.71646118164062 C156.54827880859375 136.6427764892578 154.76791381835938 136.547119140625 152.988037109375 136.4100799560547 C150.5027313232422 136.21875 148.0181427001953 135.96066284179688 145.55783081054688 135.55479431152344 C144.94235229492188 135.45326232910156 144.32867431640625 135.33999633789062 143.71771240234375 135.21408081054688 C143.19732666015625 135.10682678222656 142.67921447753906 134.98768615722656 142.16461181640625 134.85543823242188 C140.59136962890625 134.4511260986328 135.53346252441406 132.81980895996094 139.1943359375 131.1885986328125 C139.62026977539062 130.99880981445312 140.05995178222656 130.84034729003906 140.5011444091797 130.6894073486328 C141.59368896484375 130.31564331054688 142.9562225341797 129.946533203125 144.06027221679688 129.658447265625 C146.15716552734375 129.11129760742188 148.26138305664062 128.60391235351562 150.36354064941406 128.09341430664062 C152.4656982421875 127.58290100097656 154.5657958984375 127.06925964355469 156.65443420410156 126.50958251953125 C158.74307250976562 125.94989013671875 160.82025146484375 125.34416198730469 162.87655639648438 124.64948272705078 L162.87655639648438 124.64948272705078 C163.45028686523438 122.4209976196289 164.03419494628906 120.19502258300781 164.62289428710938 117.97021484375 C165.2115936279297 115.74540710449219 165.80506896972656 113.52177429199219 166.39793395996094 111.2979736328125 C166.9907989501953 109.07417297363281 167.5830535888672 106.85020446777344 168.16929626464844 104.62472534179688 C168.7555389404297 102.39924621582031 169.3357696533203 100.17225646972656 169.9045867919922 97.94242095947266 C170.473388671875 95.71257781982422 171.03079223632812 93.47988891601562 171.57139587402344 91.2430191040039 L171.57139587402344 91.2430191040039"></path>
<path fill="none" stroke="black" stroke-width=".3" stroke-opacity="1.0"  filling="0" d="M221.40176391601562 145.52613830566406 L225.123046875 143.26101684570312 C225.3093719482422 141.124267578125 225.2213592529297 140.3760223388672 227.2870330810547 139.53973388671875 L227.28248596191406 139.14541625976562 C225.512939453125 138.56385803222656 225.14564514160156 138.36419677734375 224.05120849609375 137.01171875 L227.00396728515625 136.93081665039062 C226.93624877929688 134.80271911621094 226.86578369140625 132.6745147705078 226.79566955566406 130.54620361328125 C226.72555541992188 128.4178924560547 226.65576171875 126.28945922851562 226.5894012451172 124.1609115600586 C226.5230255126953 122.03236389160156 226.4600830078125 119.90370178222656 226.4036102294922 117.7749252319336 C226.34715270996094 115.64614868164062 226.29718017578125 113.51725006103516 226.25677490234375 111.38822937011719 C226.2163848876953 109.25921630859375 226.185546875 107.13008117675781 226.1673583984375 105.00081634521484 C226.1549072265625 103.54336547851562 226.14077758789062 102.08297729492188 226.1504669189453 100.62297821044922 C226.16017150878906 99.16297912597656 226.19369506835938 97.703369140625 226.2765655517578 96.24746704101562 C226.3213348388672 95.46089935302734 226.25088500976562 94.27010345458984 226.74105834960938 93.59022521972656 L226.74105834960938 93.59022521972656 C227.30357360839844 95.33570098876953 227.71376037597656 97.13385772705078 228.02650451660156 98.95745849609375 C228.33926391601562 100.78106689453125 228.5545654296875 102.630126953125 228.72732543945312 104.47742462158203 C228.90008544921875 106.32472229003906 229.0302734375 108.17025756835938 229.17282104492188 109.98681640625 C229.34779357910156 112.21672058105469 229.49974060058594 114.44823455810547 229.6351776123047 116.68083190917969 C229.77061462402344 118.9134292602539 229.8895263671875 121.14710235595703 229.99842834472656 123.38134002685547 C230.10733032226562 125.6155776977539 230.20620727539062 127.85037231445312 230.3015899658203 130.08518981933594 C230.39695739746094 132.3200225830078 230.4888153076172 134.55487060546875 230.5836639404297 136.78924560546875 L233.2128143310547 136.84991455078125 C232.37911987304688 137.7269287109375 231.30311584472656 138.35536193847656 230.23985290527344 138.93301391601562 L230.2506561279297 139.32586669921875 C230.64480590820312 139.50502014160156 231.2919464111328 139.45404052734375 231.43310546875 139.86334228515625 C231.99404907226562 141.48974609375 231.5094451904297 145.1936492919922 230.4199676513672 146.66014099121094 C229.24069213867188 148.2475128173828 227.52442932128906 147.61465454101562 225.9725341796875 147.20474243164062 L223.04000854492188 150.57208251953125 L220.1074981689453 153.93942260742188 L220.754638671875 149.7327880859375 L221.40176391601562 145.52613830566406"></path>
<path fill="none" stroke="black" stroke-width=".3" stroke-opacity="1.0"  filling="0" d="M167.44342041015625 146.17330932617188 L167.4285125732422 145.6767120361328 C169.5921630859375 145.3076171875 170.71531677246094 144.94252014160156 172.45904541015625 143.58460998535156 L172.45904541015625 143.58460998535156 C174.1180877685547 144.9271697998047 175.12693786621094 145.14146423339844 177.25164794921875 145.3206024169922 L177.23196411132812 145.9306182861328 C175.02914428710938 146.11105346679688 173.9725341796875 145.94793701171875 172.62083435058594 147.71034240722656 L172.62083435058594 147.71034240722656 C170.9087677001953 146.3071746826172 169.62100219726562 146.3463592529297 167.44342041015625 146.17330932617188 L167.44342041015625 146.17330932617188"></path>
<path fill="none" stroke="black" stroke-width=".3" stroke-opacity="1.0"  filling="0" d="M227.04432678222656 148.05416870117188 L227.02401733398438 147.9934844970703 C228.11331176757812 148.1942901611328 229.30496215820312 148.18357849121094 230.34078979492188 147.79124450683594 L230.34078979492188 147.81146240234375 C230.05580139160156 148.81163024902344 229.9420928955078 149.87741088867188 229.48582458496094 150.81195068359375 C228.378662109375 153.07969665527344 227.15533447265625 148.64877319335938 227.04421997070312 148.05416870117188 L227.04421997070312 148.05416870117188"></path>
<path fill="none" stroke="black" stroke-width=".3" stroke-opacity="1.0"  filling="0" d="M125.53875732421875 152.07879638671875 L125.53875732421875 152.07879638671875 C123.75883483886719 152.7454071044922 122.68640899658203 153.27073669433594 121.25122833251953 154.50570678710938 L121.25122833251953 154.50570678710938 C121.59076690673828 156.883544921875 121.927001953125 159.26182556152344 122.2603759765625 161.6405029296875 C122.59375762939453 164.0191650390625 122.92427825927734 166.39822387695312 123.25238800048828 168.77761840820312 C123.58049774169922 171.15699768066406 123.90619659423828 173.53671264648438 124.22991943359375 175.91668701171875 C124.55364990234375 178.29666137695312 124.87540435791016 180.67691040039062 125.19564056396484 183.057373046875 C125.51587677001953 185.4378204345703 125.83458709716797 187.8184814453125 126.15221405029297 190.1992950439453 C126.46984100341797 192.58010864257812 126.78639221191406 194.9610595703125 127.10230255126953 197.34210205078125 C127.418212890625 199.72314453125 127.73348999023438 202.10427856445312 128.04856872558594 204.4854278564453 C128.3636474609375 206.8665771484375 128.6785430908203 209.24777221679688 128.99368286132812 211.62892150878906 C129.30882263183594 214.01007080078125 129.6242218017578 216.3911895751953 129.9403076171875 218.772216796875 C130.2563934326172 221.15322875976562 130.57318115234375 223.53416442871094 130.89109802246094 225.91494750976562 C131.2090301513672 228.29571533203125 131.52809143066406 230.67633056640625 131.84873962402344 233.05674743652344 L129.98809814453125 233.2185516357422 C129.64419555664062 230.77789306640625 129.3030548095703 228.3368377685547 128.96388244628906 225.8955078125 C128.6247100830078 223.4541778564453 128.28750610351562 221.0125732421875 127.95146942138672 218.57080078125 C127.61543273925781 216.1290283203125 127.28055572509766 213.68710327148438 126.94603729248047 211.2451171875 C126.61152648925781 208.80313110351562 126.2773666381836 206.36109924316406 125.9427719116211 203.91912841796875 C125.6081771850586 201.47715759277344 125.27313995361328 199.03524780273438 124.93685913085938 196.593505859375 C124.60057830810547 194.15176391601562 124.26305389404297 191.710205078125 123.9234848022461 189.26893615722656 C123.58391571044922 186.82766723632812 123.24230194091797 184.38668823242188 122.89783477783203 181.94610595703125 C122.5533676147461 179.50552368164062 122.2060546875 177.06533813476562 121.85508728027344 174.6256866455078 C121.50411987304688 172.18601989746094 121.14950561523438 169.7468719482422 120.7904281616211 167.308349609375 C120.51048278808594 165.40721130371094 120.3631820678711 163.3185272216797 120.13397979736328 161.25025939941406 C119.90476989746094 159.18197631835938 119.59365844726562 157.13412475585938 118.98609924316406 155.31466674804688 C118.56684112548828 154.05911254882812 117.56640625 152.699462890625 116.86430358886719 151.28622436523438 C116.1622085571289 149.87298583984375 115.7584457397461 148.40614318847656 116.53253936767578 146.93618774414062 C116.797119140625 146.4337615966797 117.30534362792969 146.10401916503906 117.69174194335938 145.68792724609375 L116.49851989746094 140.12625122070312 L115.30529022216797 134.56459045410156 L114.11206817626953 129.00291442871094 L112.91883850097656 123.44124603271484 C111.57542419433594 121.98677062988281 110.8275146484375 120.5765380859375 110.4658203125 119.05192565917969 C110.10413360595703 117.52730560302734 110.128662109375 115.88829803466797 110.33011627197266 113.97628021240234 L110.33011627197266 113.97628021240234 C111.01271057128906 115.12696075439453 111.1485366821289 116.70394897460938 111.36939239501953 118.20587158203125 C111.59024047851562 119.70780181884766 111.89612579345703 121.13465881347656 112.91883850097656 121.98509216308594 L113.88958740234375 121.01432037353516 C113.62860107421875 118.87503814697266 113.34659576416016 116.72581481933594 112.79747772216797 114.64180755615234 C112.51663208007812 113.57594299316406 111.52547454833984 112.21430969238281 112.91883850097656 111.95384979248047 L112.91883850097656 111.95384979248047 C113.48921203613281 113.2679443359375 114.10653686523438 114.5732421875 114.58680725097656 115.9169921875 C115.06707000732422 117.26073455810547 115.4102783203125 118.64292907714844 115.43241882324219 120.11080169677734 C115.4496841430664 121.25544738769531 114.68022155761719 122.30379486083984 114.69855499267578 123.3603286743164 C114.73602294921875 125.51923370361328 115.4986801147461 127.92986297607422 115.8783187866211 130.06129455566406 C116.18663024902344 131.79225158691406 116.51518249511719 133.5178680419922 116.862060546875 135.23927307128906 C117.20893859863281 136.96067810058594 117.57415008544922 138.67787170410156 117.95575714111328 140.3919677734375 C118.33737182617188 142.1060791015625 118.73538970947266 143.8170928955078 119.14789581298828 145.52613830566406 L119.14789581298828 145.52613830566406 C120.981201171875 146.91160583496094 122.17159271240234 147.73338317871094 124.48709106445312 147.95303344726562 L125.53875732421875 152.07879638671875"></path>
<path fill="none" stroke="black" stroke-width=".3" stroke-opacity="1.0"  filling="0" d="M170.83013916015625 170.22947692871094 L170.83013916015625 170.22947692871094 C169.59912109375 169.90109252929688 168.7677001953125 168.38702392578125 168.19725036621094 166.7143096923828 C167.62680053710938 165.04159545898438 167.31735229492188 163.21026611328125 167.13027954101562 162.247314453125 C166.76023864746094 160.34255981445312 166.52207946777344 158.41331481933594 166.38134765625 156.4759979248047 C166.24063110351562 154.53868103027344 166.19732666015625 152.59332275390625 166.21701049804688 150.65634155273438 C166.2300567626953 149.37203979492188 166.07066345214844 148.06195068359375 166.33482360839844 146.80503845214844 C166.65414428710938 145.28567504882812 167.52784729003906 143.88040161132812 168.71603393554688 142.91162109375 C169.9042205810547 141.94284057617188 171.4069061279297 141.41055297851562 172.9842071533203 141.63717651367188 C174.2392578125 141.8175048828125 175.6346435546875 142.34454345703125 176.78907775878906 143.17025756835938 C177.94351196289062 143.9959716796875 178.85699462890625 145.120361328125 179.14825439453125 146.49534606933594 C179.22459411621094 146.8557586669922 179.4549102783203 150.9364471435547 179.4807891845703 151.5056610107422 C179.5553741455078 153.14663696289062 179.54873657226562 154.77413940429688 179.48373413085938 156.3995361328125 C179.41873168945312 158.0249481201172 179.29534912109375 159.6482696533203 179.136474609375 161.28091430664062 C179.0009307861328 162.67372131347656 178.91294860839844 164.22433471679688 178.5875701904297 165.69329833984375 C178.26217651367188 167.16226196289062 177.69940185546875 168.54954528808594 176.61428833007812 169.61569213867188 C174.8681640625 171.33128356933594 172.9422149658203 170.6963348388672 170.83013916015625 170.22947692871094 L170.83013916015625 170.22947692871094"></path>
<path fill="none" stroke="black" stroke-width=".3" stroke-opacity="1.0"  filling="0" d="M156.3480224609375 238.29611206054688 L161.43212890625 238.27239990234375 L166.5162353515625 238.2487030029297 L168.117919921875 241.10888671875 L161.31771850585938 241.132568359375 L154.51751708984375 241.15626525878906 L156.3480224609375 238.29611206054688"></path>
<path fill="none" stroke="black" stroke-width=".3" stroke-opacity="1.0"  filling="0" d="M177.72799682617188 238.36312866210938 L182.7618408203125 238.36312866210938 L187.79568481445312 238.36312866210938 L189.74058532714844 241.22325134277344 L182.93344116210938 241.16607666015625 L176.12631225585938 241.10888671875 L177.72799682617188 238.36312866210938"></path></svg>