<svg xmlns="http://www.w3.org/2000/svg" viewBox="0.0 0.0 24.0 24.0" height="200px" width="200px"><path fill="none" stroke="black" stroke-width=".3" stroke-opacity="1.0"  filling="0" d="M9.757919311523438 6.0643205642700195 L12.0 2.2799997329711914 C13.640087127685547 2.4343974590301514 15.004674911499023 2.7754812240600586 16.238956451416016 3.3804638385772705 C17.47323989868164 3.9854464530944824 18.57721519470215 4.85432767868042 19.69607925415039 6.0643205642700195 L14.726999282836914 6.0643205642700195 L9.757919311523438 6.0643205642700195"></path>
<path fill="none" stroke="black" stroke-width=".3" stroke-opacity="1.0"  filling="0" d="M16.047840118408203 7.144320487976074 L20.421838760375977 7.144320487976074 C21.119792938232422 8.634702682495117 21.500019073486328 9.989996910095215 21.58584213256836 11.366678237915039 C21.671667098999023 12.74336051940918 21.463088989257812 14.14142894744873 20.983436584472656 15.71735954284668 L18.51563835144043 11.430839538574219 L16.047840118408203 7.144320487976074"></path>
<path fill="none" stroke="black" stroke-width=".3" stroke-opacity="1.0"  filling="0" d="M3.5673599243164062 7.161600112915039 L3.5673599243164062 7.161600112915039 C4.50403356552124 5.826879978179932 5.47111701965332 4.821676731109619 6.6004204750061035 4.0549750328063965 C7.729723930358887 3.288273334503174 9.021246910095215 2.760073184967041 10.606800079345703 2.3793601989746094 L8.181119918823242 6.655080318450928 L5.7554402351379395 10.930800437927246 L3.5673599243164062 7.161600112915039"></path>
<path fill="none" stroke="black" stroke-width=".3" stroke-opacity="1.0"  filling="0" d="M2.2799997329711914 12.0 L2.2799997329711914 12.0 C2.4011037349700928 10.759480476379395 2.6388819217681885 9.523985862731934 2.9971208572387695 8.330160140991211 L5.472480773925781 12.592920303344727 L7.947840213775635 16.855680465698242 L3.5781612396240234 16.855680465698242 C2.7913942337036133 15.17564582824707 2.4440877437591553 13.849093437194824 2.2799997329711914 12.0 L2.2799997329711914 12.0"></path>
<path fill="none" stroke="black" stroke-width=".3" stroke-opacity="1.0"  filling="0" d="M4.303920269012451 17.935680389404297 L9.248160362243652 17.935680389404297 L14.192400932312012 17.935680389404297 L12.0 21.719999313354492 C10.359911918640137 21.565601348876953 8.99532413482666 21.224517822265625 7.761042594909668 20.619537353515625 C6.526761054992676 20.014554977416992 5.422784805297852 19.145673751831055 4.303920269012451 17.935680389404297 L4.303920269012451 17.935680389404297"></path>
<path fill="none" stroke="black" stroke-width=".3" stroke-opacity="1.0"  filling="0" d="M13.31328010559082 21.631439208984375 L15.769091606140137 17.362199783325195 L18.224903106689453 13.092960357666016 L20.406719207763672 16.88159942626953 C19.459300994873047 18.21677017211914 18.483463287353516 19.219635009765625 17.34571647644043 19.981006622314453 C16.207971572875977 20.74237632751465 14.908320426940918 21.262250900268555 13.31328010559082 21.631439208984375 L13.31328010559082 21.631439208984375"></path></svg>