<svg xmlns="http://www.w3.org/2000/svg" viewBox="0.0 0.0 24.0 24.0" height="200px" width="200px"><path fill="none" stroke="black" stroke-width=".3" stroke-opacity="1.0"  filling="0" d="M7.638959884643555 7.067399501800537 L7.638959884643555 7.067399501800537 C9.015430450439453 8.254911422729492 8.249828338623047 9.071097373962402 7.638959884643555 7.067399501800537 L7.638959884643555 7.067399501800537"></path>
<path fill="none" stroke="black" stroke-width=".3" stroke-opacity="1.0"  filling="0" d="M7.700039863586426 7.9609198570251465 L7.611480236053467 7.790759563446045 C7.536359786987305 7.425919532775879 7.037307262420654 6.826935768127441 7.386119365692139 6.696239471435547 C7.79481315612793 6.543106555938721 8.083799362182617 7.220799922943115 8.432640075683594 7.48307991027832 L8.432640075683594 7.48307991027832 C8.546160697937012 7.662519931793213 8.659680366516113 7.841960430145264 8.773200988769531 8.021400451660156 L9.473519325256348 9.214200019836426 L8.739479064941406 9.5768404006958 L8.27892017364502 8.894519805908203 C8.085960388183594 8.583319664001465 7.89300012588501 8.272119522094727 7.700039863586426 7.9609198570251465 L7.700039863586426 7.9609198570251465"></path>
<path fill="none" stroke="black" stroke-width=".3" stroke-opacity="1.0"  filling="0" d="M13.577159881591797 8.988960266113281 L13.577159881591797 8.988960266113281 C14.35025405883789 9.703387260437012 13.952581405639648 9.741655349731445 12.960363388061523 10.315234184265137 C11.85260009765625 10.955607414245605 9.554810523986816 12.205497741699219 8.41943645477295 12.78844165802002 C8.030016899108887 12.988384246826172 7.333219528198242 13.476160049438477 7.1397600173950195 13.083479881286621 L7.1397600173950195 13.083479881286621 C8.206048965454102 12.39080810546875 9.270084381103516 11.694141387939453 10.340204238891602 11.007161140441895 C11.410325050354004 10.320180892944336 12.486530303955078 9.642887115478516 13.577159881591797 8.988960266113281 L13.577159881591797 8.988960266113281"></path>
<path fill="none" stroke="black" stroke-width=".3" stroke-opacity="1.0"  filling="0" d="M14.620800018310547 10.473600387573242 L14.620800018310547 10.473600387573242 C15.393754959106445 11.188142776489258 14.9960298538208 11.226457595825195 14.003900527954102 11.799993515014648 C12.896122932434082 12.440383911132812 10.598401069641113 13.690256118774414 9.463006973266602 14.273201942443848 C9.073572158813477 14.473150253295898 8.37674617767334 14.960935592651367 8.183279991149902 14.56824016571045 L8.183279991149902 14.56824016571045 C9.24959659576416 13.875560760498047 10.313663482666016 13.178893089294434 11.383807182312012 12.491898536682129 C12.453951835632324 11.804903984069824 13.530173301696777 11.127583503723145 14.620800018310547 10.473600387573242 L14.620800018310547 10.473600387573242"></path>
<path fill="none" stroke="black" stroke-width=".3" stroke-opacity="1.0"  filling="0" d="M15.393360137939453 12.079200744628906 L15.393360137939453 12.079200744628906 C16.16644859313965 12.793620109558105 15.76849365234375 12.832134246826172 14.776511192321777 13.405574798583984 C13.668673515319824 14.045988082885742 11.371042251586914 15.295747756958008 10.235583305358887 15.878700256347656 C9.846125602722168 16.078651428222656 9.14946174621582 16.56660270690918 8.955841064453125 16.173959732055664 L8.955841064453125 16.173959732055664 C10.022150039672852 15.481247901916504 11.086204528808594 14.784541130065918 12.156344413757324 14.09752082824707 C13.226484298706055 13.410500526428223 14.302709579467773 12.733166694641113 15.393360137939453 12.079200744628906 L15.393360137939453 12.079200744628906"></path>
<path fill="none" stroke="black" stroke-width=".3" stroke-opacity="1.0"  filling="0" d="M7.37939977645874 12.433080673217773 L7.37939977645874 12.433080673217773 C6.846625804901123 10.791640281677246 9.918754577636719 9.605364799499512 11.184000015258789 8.66316032409668 L11.184000015258789 8.66316032409668 C11.551238059997559 8.554338455200195 12.399534225463867 8.827292442321777 12.217920303344727 9.164520263671875 C11.966751098632812 9.630902290344238 11.362415313720703 9.789660453796387 10.92607593536377 10.090004920959473 C9.105268478393555 11.343316078186035 8.938224792480469 11.43639087677002 7.37939977645874 12.433080673217773 L7.37939977645874 12.433080673217773"></path>
<path fill="none" stroke="black" stroke-width=".3" stroke-opacity="1.0"  filling="0" d="M15.66096019744873 14.07588005065918 L15.66096019744873 14.07588005065918 C15.72719955444336 15.924830436706543 12.876121520996094 16.83454132080078 11.412839889526367 17.772720336914062 L11.412839889526367 17.772720336914062 C9.663091659545898 18.111177444458008 11.719709396362305 16.57060432434082 11.984551429748535 16.396697998046875 C13.91683578491211 15.127875328063965 14.022964477539062 15.07662296295166 15.66096019744873 14.07588005065918 L15.66096019744873 14.07588005065918"></path>
<path fill="none" stroke="black" stroke-width=".3" stroke-opacity="1.0"  filling="0" d="M7.771559715270996 14.484600067138672 L7.771559715270996 14.484600067138672 C6.998414039611816 13.770394325256348 7.39652681350708 13.731809616088867 8.388408660888672 13.158376693725586 C9.49626636505127 12.517895698547363 11.793841361999512 11.268115043640137 12.929336547851562 10.68511962890625 C13.318777084350586 10.485170364379883 14.015610694885254 9.997379302978516 14.20907974243164 10.390079498291016 L14.20907974243164 10.390079498291016 C13.142784118652344 11.082773208618164 12.078746795654297 11.77946949005127 11.008612632751465 12.466459274291992 C9.938477516174316 13.153450012207031 8.862245559692383 13.830732345581055 7.771559715270996 14.484600067138672 L7.771559715270996 14.484600067138672"></path>
<path fill="none" stroke="black" stroke-width=".3" stroke-opacity="1.0"  filling="0" d="M8.639759063720703 15.912240028381348 L8.639759063720703 15.912240028381348 C7.866818904876709 15.197687149047852 8.264404296875 15.159398078918457 9.25662612915039 14.585777282714844 C10.364424705505371 13.94533920288086 12.662156105041504 12.695489883422852 13.797586441040039 12.112520217895508 C14.187010765075684 11.912575721740723 14.883816719055176 11.42479419708252 15.077280044555664 11.817479133605957 L15.077280044555664 11.817479133605957 C14.010953903198242 12.51016616821289 12.946877479553223 13.206835746765137 11.876729965209961 13.893844604492188 C10.806583404541016 14.580853462219238 9.730365753173828 15.258199691772461 8.639759063720703 15.912240028381348 L8.639759063720703 15.912240028381348"></path>
<path fill="none" stroke="black" stroke-width=".3" stroke-opacity="1.0"  filling="0" d="M13.838160514831543 17.099760055541992 L14.014920234680176 16.977479934692383 L15.57096004486084 19.645801544189453 L13.838160514831543 17.099760055541992"></path>
<path fill="none" stroke="black" stroke-width=".3" stroke-opacity="1.0"  filling="0" d="M9.606240272521973 17.589120864868164 L9.606240272521973 17.589120864868164 C8.82105827331543 16.888187408447266 9.217744827270508 16.84315299987793 10.199850082397461 16.25229263305664 C11.296374320983887 15.5925931930542 13.571794509887695 14.30289077758789 14.696939468383789 13.700166702270508 C15.082853317260742 13.493437767028809 15.771014213562012 12.993515968322754 15.971399307250977 13.382761001586914 L15.971399307250977 13.382761001586914 C14.917323112487793 14.093944549560547 13.865565299987793 14.809080123901367 12.807560920715332 15.514646530151367 C11.749555587768555 16.22021484375 10.685304641723633 16.91621208190918 9.606240272521973 17.589120864868164 L9.606240272521973 17.589120864868164"></path></svg>