<svg xmlns="http://www.w3.org/2000/svg" viewBox="0.0 0.0 24.0 24.0" height="200px" width="200px"><path fill="none" stroke="black" stroke-width=".3" stroke-opacity="1.0"  filling="0" d="M17.27280044555664 5.889840126037598 L17.27280044555664 5.889840126037598 C19.042997360229492 6.369757652282715 19.44015121459961 6.7670745849609375 19.919998168945312 8.537280082702637 L19.919998168945312 15.614879608154297 C19.44012451171875 17.38496208190918 19.042882919311523 17.782203674316406 17.27280044555664 18.2620792388916 L11.880000114440918 18.2620792388916 L6.4872002601623535 18.2620792388916 C4.717189311981201 17.782184600830078 4.319922924041748 17.3848819732666 3.839999198913574 15.614879608154297 L3.839999198913574 8.537280082702637 C4.3198466300964355 6.767073154449463 4.717003345489502 6.369756698608398 6.4872002601623535 5.889840126037598 L11.880000114440918 5.889840126037598 L17.27280044555664 5.889840126037598"></path>
<path fill="none" stroke="black" stroke-width=".3" stroke-opacity="1.0"  filling="0" d="M15.292560577392578 9.478799819946289 L14.727840423583984 8.630160331726074 L16.774320602416992 9.034560203552246 L16.35696029663086 11.078160285949707 L15.727439880371094 10.132080078125 L12.202199935913086 12.32352066040039 L8.676959991455078 14.514960289001465 L9.216480255126953 15.425040245056152 L7.194240093231201 14.914799690246582 L7.717439651489258 12.895200729370117 L8.277120590209961 13.839839935302734 L11.78484058380127 11.659319877624512 L15.292560577392578 9.478799819946289"></path>
<path fill="none" stroke="black" stroke-width=".3" stroke-opacity="1.0"  filling="0" d="M18.547199249267578 15.614879608154297 L18.547199249267578 15.614879608154297 C18.316909790039062 16.16986846923828 17.82754898071289 16.659231185913086 17.272560119628906 16.8895206451416 L11.87987995147705 16.8895206451416 L6.4872002601623535 16.8895206451416 C5.932211399078369 16.659229278564453 5.442850112915039 16.16986846923828 5.212560176849365 15.614879608154297 L5.212560176849365 8.537280082702637 C5.442783355712891 7.982263565063477 5.932183742523193 7.492863178253174 6.4872002601623535 7.26263952255249 L11.880000114440918 7.26263952255249 L17.27280044555664 7.26263952255249 C17.827808380126953 7.492882251739502 18.317169189453125 7.982283115386963 18.547439575195312 8.537280082702637 L18.547199249267578 15.614879608154297"></path></svg>