<svg xmlns="http://www.w3.org/2000/svg" viewBox="0.0 0.0 24.0 24.0" height="200px" width="200px"><path fill="none" stroke="black" stroke-width=".3" stroke-opacity="1.0"  filling="0" d="M16.354080200195312 4.312800407409668 L16.354080200195312 4.312800407409668 C16.95929718017578 4.466121673583984 17.620729446411133 4.475456237792969 18.16973304748535 4.772764205932617 C19.48183822631836 5.483323574066162 20.028535842895508 6.68072509765625 20.11566162109375 7.978425979614258 C20.20278549194336 9.276126861572266 19.83033561706543 10.674127578735352 19.30414581298828 11.785886764526367 C18.56365203857422 13.350433349609375 17.522184371948242 14.82221794128418 16.325183868408203 16.163997650146484 C15.128185272216797 17.50577735900879 13.775654792785645 18.717552185058594 12.413040161132812 19.762081146240234 L12.413040161132812 19.762081146240234 C12.412639617919922 19.767200469970703 12.412240028381348 19.772319793701172 12.411839485168457 19.77743911743164 L12.411839485168457 19.77743911743164 C12.407599449157715 19.774959564208984 12.403359413146973 19.772480010986328 12.39911937713623 19.770000457763672 L12.39911937713623 19.770000457763672 C12.395039558410645 19.772480010986328 12.390959739685059 19.774959564208984 12.386879920959473 19.77743911743164 L12.386879920959473 19.77743911743164 C12.38640022277832 19.772159576416016 12.385919570922852 19.76688003540039 12.3854398727417 19.761600494384766 L12.3854398727417 19.761600494384766 C10.832529067993164 18.571319580078125 9.124909400939941 17.065994262695312 7.706048011779785 15.360082626342773 C6.287186145782471 13.654170036315918 5.157081604003906 11.747671127319336 4.759199619293213 9.755040168762207 C4.25485897064209 7.229255676269531 5.3946614265441895 5.458284854888916 7.045637607574463 4.768285751342773 C8.696614265441895 4.078286170959473 10.8587646484375 4.4692583084106445 12.39911937713623 6.267359733581543 L12.39911937713623 6.267359733581543 C13.81202507019043 4.972780227661133 14.416062355041504 4.579007625579834 16.354080200195312 4.312800407409668 L16.354080200195312 4.312800407409668"></path></svg>