<svg xmlns="http://www.w3.org/2000/svg" viewBox="0.0 0.0 24.0 24.0" height="200px" width="200px"><path fill="none" stroke="black" stroke-width=".3" stroke-opacity="1.0"  filling="0" d="M21.175682067871094 9.190080642700195 L21.175682067871094 9.190080642700195 C20.96820640563965 10.378280639648438 20.561582565307617 11.552825927734375 19.960079193115234 12.598320007324219 L19.95840072631836 12.600239753723145 C19.744001388549805 12.811840057373047 19.529600143432617 13.023439407348633 19.315200805664062 13.235039710998535 L15.75275993347168 16.75200080871582 L12.190320014953613 20.26896095275879 L8.627880096435547 16.752120971679688 L5.0654401779174805 13.235279083251953 C4.851039886474609 13.023679733276367 4.6366400718688965 12.812079429626465 4.422239780426025 12.600480079650879 L4.420559883117676 12.598560333251953 C3.636479377746582 11.235718727111816 3.1874656677246094 10.863816261291504 3.2047204971313477 9.190080642700195 C3.2217330932617188 7.5398383140563965 4.029736042022705 5.9987335205078125 5.242751121520996 5.062981128692627 C6.455766201019287 4.1272292137146 8.073793411254883 3.796830177307129 9.710853576660156 4.567999839782715 C11.26311206817627 5.299221515655518 11.393318176269531 6.041499614715576 12.190320014953613 7.443359851837158 L12.190320014953613 7.443359851837158 C12.515057563781738 6.87226676940918 12.735489845275879 6.227597236633301 13.164533615112305 5.7300801277160645 C14.040709495544434 4.714071750640869 15.250800132751465 4.192561626434326 16.468481063842773 4.1719536781311035 C17.686161041259766 4.151345729827881 18.911434173583984 4.6316399574279785 19.817970275878906 5.6192402839660645 C20.997777938842773 6.904546737670898 20.870731353759766 7.544578552246094 21.175682067871094 9.190080642700195 L21.175682067871094 9.190080642700195"></path></svg>