<svg xmlns="http://www.w3.org/2000/svg" viewBox="0.0 0.0 24.0 24.0" height="200px" width="200px"><path fill="none" stroke="black" stroke-width=".3" stroke-opacity="1.0"  filling="0" d="M18.612838745117188 8.303915977478027 L18.612838745117188 8.303915977478027 C20.319124221801758 8.649236679077148 21.717721939086914 9.07258129119873 22.456432342529297 10.853410720825195 C22.699251174926758 11.4387788772583 23.140186309814453 12.753948211669922 22.506454467773438 12.753948211669922 C21.76009178161621 12.753948211669922 22.105920791625977 11.29946517944336 21.73423194885254 10.652235984802246 C21.084104537963867 9.520157814025879 19.901500701904297 8.885881423950195 18.612838745117188 8.860332489013672 C16.88022232055664 8.825981140136719 16.55866050720215 10.599710464477539 15.297886848449707 10.633044242858887 C14.598811149597168 10.651527404785156 14.304577827453613 9.616405487060547 13.686015129089355 9.290172576904297 C13.167390823364258 9.016648292541504 12.566676139831543 8.86089038848877 11.98034381866455 8.860332489013672 C11.396142959594727 8.859776496887207 10.797701835632324 9.015376091003418 10.280450820922852 9.286931991577148 C9.659645080566406 9.61285400390625 9.365161895751953 10.644462585449219 8.664095878601074 10.633044242858887 C7.434540748596191 10.613018035888672 7.0549235343933105 8.825984001159668 5.350008487701416 8.860332489013672 C4.060985565185547 8.88630199432373 2.8789045810699463 9.519588470458984 2.228520154953003 10.652235984802246 C1.856841802597046 11.299515724182129 2.2023630142211914 12.753948211669922 1.4559612274169922 12.753948211669922 C0.8222587704658508 12.753948211669922 1.2632653713226318 11.438827514648438 1.5061097145080566 10.85350227355957 C1.9138896465301514 9.870635032653809 2.744462490081787 9.040064811706543 3.727339267730713 8.63230037689209 C5.763727188110352 7.787467956542969 7.155454635620117 8.691370010375977 8.664960861206055 9.947675704956055 L8.664960861206055 9.947675704956055 C11.09574031829834 7.9246506690979 12.866718292236328 7.9253082275390625 15.296591758728027 9.949403762817383 L15.296591758728027 9.949403762817383 C16.24468994140625 9.159529685974121 17.412479400634766 8.5901460647583 18.612838745117188 8.303915977478027 L18.612838745117188 8.303915977478027"></path>
<path fill="none" stroke="black" stroke-width=".3" stroke-opacity="1.0"  filling="0" d="M22.001232147216797 8.85277271270752 L22.001232147216797 8.85277271270752 C21.927640914916992 9.474916458129883 19.362079620361328 7.778112411499023 18.528167724609375 7.776012420654297 C16.825199127197266 7.771723747253418 16.595870971679688 9.029036521911621 15.238055229187012 9.197507858276367 L15.237838745117188 9.194700241088867 C13.62531852722168 8.501343727111816 13.897564888000488 7.776058197021484 11.954856872558594 7.776012420654297 C11.369401931762695 7.775998592376709 10.771427154541016 7.895191669464111 10.234010696411133 8.12744426727295 C9.65283489227295 8.378608703613281 9.297869682312012 9.197507858276367 8.664743423461914 9.197507858276367 C7.516549110412598 9.197507858276367 6.882788181304932 7.776012420654297 5.374416351318359 7.776012420654297 C4.789035797119141 7.776012420654297 4.191162109375 7.8953022956848145 3.6538143157958984 8.127525329589844 C3.0420644283294678 8.391902923583984 2.2482495307922363 9.739459991455078 1.9361286163330078 9.150635719299316 C1.6135190725326538 8.542024612426758 2.8187317848205566 8.018365859985352 3.451071262359619 7.745177745819092 C5.480764865875244 6.868295192718506 6.986415863037109 7.572031497955322 8.664527893066406 8.660964012145996 L8.664527893066406 8.660964012145996 C11.115090370178223 7.070469856262207 12.789466857910156 7.06922721862793 15.240863800048828 8.658371925354004 L15.240863800048828 8.658371925354004 C17.79265022277832 7.004530906677246 19.528400421142578 7.085288047790527 22.001232147216797 8.85277271270752 L22.001232147216797 8.85277271270752"></path>
<path fill="none" stroke="black" stroke-width=".3" stroke-opacity="1.0"  filling="0" d="M5.34979248046875 10.528932571411133 L5.34979248046875 10.528932571411133 C7.827552795410156 11.221536636352539 7.507266521453857 13.59183120727539 7.606560230255127 15.814884185791016 L7.606560230255127 15.981419563293457 C5.918286323547363 16.76255989074707 4.781492233276367 16.76262855529785 3.093240737915039 15.981419563293457 L3.093240737915039 15.814884185791016 C3.192580223083496 13.592002868652344 2.8721988201141357 11.22153091430664 5.34979248046875 10.528932571411133 L5.34979248046875 10.528932571411133"></path>
<path fill="none" stroke="black" stroke-width=".3" stroke-opacity="1.0"  filling="0" d="M11.980560302734375 10.528932571411133 L11.980560302734375 10.528932571411133 C14.457962036132812 11.221592903137207 14.137722969055176 13.592164993286133 14.237112045288086 15.814884185791016 L14.237112045288086 15.981419563293457 C12.548876762390137 16.762502670288086 11.412017822265625 16.76271629333496 9.723793029785156 15.981419563293457 L9.723793029785156 15.814884185791016 C9.823143005371094 13.591835021972656 9.502798080444336 11.221498489379883 11.980560302734375 10.528932571411133 L11.980560302734375 10.528932571411133"></path>
<path fill="none" stroke="black" stroke-width=".3" stroke-opacity="1.0"  filling="0" d="M18.745031356811523 10.528932571411133 L18.745031356811523 10.528932571411133 C21.222339630126953 11.221624374389648 20.90216827392578 13.592244148254395 21.001583099365234 15.814884185791016 L21.001583099365234 15.981419563293457 C19.313325881958008 16.762571334838867 18.176530838012695 16.762617111206055 16.488264083862305 15.981419563293457 L16.488264083862305 15.814884185791016 C16.587614059448242 13.591835021972656 16.26726722717285 11.221498489379883 18.745031356811523 10.528932571411133 L18.745031356811523 10.528932571411133"></path>
<path fill="none" stroke="black" stroke-width=".3" stroke-opacity="1.0"  filling="0" d="M5.344824314117432 13.863107681274414 L5.344824314117432 13.863107681274414 C4.68523645401001 13.362983703613281 3.9881138801574707 12.654964447021484 3.9187917709350586 11.830116271972656 L3.9187917709350586 11.830116271972656 C4.39413595199585 11.615340232849121 4.823210716247559 11.18578815460205 5.344824314117432 11.18578815460205 C5.870048999786377 11.18578815460205 6.303432464599609 11.615340232849121 6.782736301422119 11.830116271972656 L6.782736301422119 11.830116271972656 C6.708166599273682 12.6567964553833 6.007236480712891 13.362936973571777 5.344824314117432 13.863107681274414 L5.344824314117432 13.863107681274414"></path>
<path fill="none" stroke="black" stroke-width=".3" stroke-opacity="1.0"  filling="0" d="M11.974943161010742 13.863107681274414 L11.974943161010742 13.863107681274414 C11.315370559692383 13.362964630126953 10.61829948425293 12.654958724975586 10.548912048339844 11.830116271972656 L10.548912048339844 11.830116271972656 C11.024255752563477 11.615340232849121 11.453330039978027 11.18578815460205 11.974943161010742 11.18578815460205 C12.500167846679688 11.18578815460205 12.933551788330078 11.615340232849121 13.412856101989746 11.830116271972656 L13.412856101989746 11.830116271972656 C13.338351249694824 12.6568021774292 12.637370109558105 13.362957000732422 11.974943161010742 13.863107681274414 L11.974943161010742 13.863107681274414"></path>
<path fill="none" stroke="black" stroke-width=".3" stroke-opacity="1.0"  filling="0" d="M18.739198684692383 13.863107681274414 L18.739198684692383 13.863107681274414 C18.079639434814453 13.362945556640625 17.382619857788086 12.654953002929688 17.313167572021484 11.830116271972656 L17.313167572021484 11.830116271972656 C17.788511276245117 11.615340232849121 18.21758460998535 11.18578815460205 18.739198684692383 11.18578815460205 C19.264423370361328 11.18578815460205 19.69780731201172 11.615340232849121 20.177112579345703 11.830116271972656 L20.177112579345703 11.830116271972656 C20.102672576904297 12.656808853149414 19.401639938354492 13.362975120544434 18.739198684692383 13.863107681274414 L18.739198684692383 13.863107681274414"></path></svg>