<svg xmlns="http://www.w3.org/2000/svg" viewBox="0.0 0.0 24.0 24.0" height="200px" width="200px"><path fill="none" stroke="black" stroke-width=".3" stroke-opacity="1.0"  filling="0" d="M11.350272178649902 9.484248161315918 L11.350272178649902 9.484248161315918 C11.361144065856934 9.529248237609863 11.372016906738281 9.574248313903809 11.382888793945312 9.619248390197754 L11.382888793945312 9.619248390197754 C10.71976089477539 9.649216651916504 10.050787925720215 9.811429023742676 9.447527885437012 10.088399887084961 L9.447527885437012 10.088399887084961 C9.347920417785645 9.67883014678955 9.940793991088867 9.40142822265625 10.231608390808105 9.096311569213867 L10.231608390808105 9.096311569213867 C10.604496002197266 9.225624084472656 10.977384567260742 9.354935646057129 11.350272178649902 9.484248161315918 L11.350272178649902 9.484248161315918"></path>
<path fill="none" stroke="black" stroke-width=".3" stroke-opacity="1.0"  filling="0" d="M8.009183883666992 10.294248580932617 L8.009183883666992 10.294248580932617 C8.02012825012207 10.339248657226562 8.031071662902832 10.384248733520508 8.04201602935791 10.429248809814453 L8.04201602935791 10.429248809814453 C7.37893533706665 10.459067344665527 6.709927082061768 10.621326446533203 6.106872081756592 10.898616790771484 L6.106872081756592 10.898616790771484 C6.006206035614014 10.489409446716309 6.599874973297119 10.211675643920898 6.8907365798950195 9.906744003295898 L6.8907365798950195 9.906744003295898 C7.263552188873291 10.03591251373291 7.636368274688721 10.165080070495605 8.009183883666992 10.294248580932617 L8.009183883666992 10.294248580932617"></path>
<path fill="none" stroke="black" stroke-width=".3" stroke-opacity="1.0"  filling="0" d="M10.541135787963867 11.651592254638672 L10.541135787963867 11.651592254638672 C10.788386344909668 12.668822288513184 10.36813735961914 13.205456733703613 9.55552864074707 13.593647003173828 L9.55552864074707 13.593647003173828 C8.654226303100586 13.617140769958496 8.032970428466797 13.331751823425293 7.783896446228027 12.314064025878906 L7.783896446228027 12.314064025878906 C8.728053092956543 12.359221458435059 9.720832824707031 12.121245384216309 10.541135787963867 11.651592254638672 L10.541135787963867 11.651592254638672"></path>
<path fill="none" stroke="black" stroke-width=".3" stroke-opacity="1.0"  filling="0" d="M14.060855865478516 11.736912727355957 L14.060855865478516 11.736912727355957 C13.995392799377441 12.153260231018066 13.341221809387207 12.181017875671387 12.955368041992188 12.350568771362305 L12.955368041992188 12.350568771362305 C12.91641616821289 12.342936515808105 12.877463340759277 12.33530330657959 12.83851146697998 12.32767105102539 L12.83851146697998 12.32767105102539 C12.881279945373535 12.137591361999512 12.92404842376709 11.947511672973633 12.966816902160645 11.757431983947754 L12.966816902160645 11.757431983947754 C13.325058937072754 11.8259916305542 13.69633960723877 11.74980354309082 14.060855865478516 11.736912727355957 L14.060855865478516 11.736912727355957"></path>
<path fill="none" stroke="black" stroke-width=".3" stroke-opacity="1.0"  filling="0" d="M17.434560775756836 12.412991523742676 L17.434560775756836 12.412991523742676 C17.073265075683594 12.571824073791504 16.71196746826172 12.730655670166016 16.350671768188477 12.889488220214844 L16.350671768188477 12.889488220214844 C16.036357879638672 12.608774185180664 15.422863006591797 12.37979793548584 15.48969554901123 11.963712692260742 L15.48969554901123 11.963712692260742 C16.11321449279785 12.19129467010498 16.79303741455078 12.29907512664795 17.456377029418945 12.275615692138672 L17.456377029418945 12.275615692138672 C17.44910430908203 12.321407318115234 17.44183349609375 12.367199897766113 17.434560775756836 12.412991523742676 L17.434560775756836 12.412991523742676"></path>
<path fill="none" stroke="black" stroke-width=".3" stroke-opacity="1.0"  filling="0" d="M22.67882537841797 13.265975952148438 L21.4344482421875 13.680912017822266 L22.333656311035156 14.51099967956543 L20.120521545410156 14.096063613891602 C19.776203155517578 13.613696098327637 19.40373992919922 13.112384796142578 18.895584106445312 12.80740737915039 L18.895584106445312 12.80740737915039 C18.640024185180664 14.135846138000488 18.11089515686035 15.469322204589844 17.266056060791016 16.470687866210938 C16.421215057373047 17.472055435180664 15.260663032531738 18.141311645507812 13.742256164550781 18.141311645507812 L13.731023788452148 18.139583587646484 C12.231523513793945 17.47132682800293 11.693819046020508 16.739187240600586 10.857792854309082 15.328776359558105 L10.857792854309082 15.328776359558105 C10.59811019897461 15.451878547668457 10.36671257019043 15.697704315185547 10.079328536987305 15.697704315185547 L10.06831169128418 15.700729370117188 C8.533584594726562 15.586494445800781 8.229557991027832 15.765439987182617 6.8626322746276855 14.702775955200195 C5.1891069412231445 13.401758193969727 5.273688316345215 12.300047874450684 3.8665199279785156 14.26972770690918 L1.6538171768188477 14.6844482421875 L2.5528087615966797 13.854575157165527 L1.3080005645751953 13.439424514770508 C1.9302244186401367 13.324224472045898 2.7017462253570557 13.51426887512207 3.1746721267700195 13.093823432922363 C3.5019962787628174 12.80282211303711 2.8305492401123047 12.050824165344238 3.1746721267700195 11.779895782470703 C3.6024153232574463 11.443133354187012 4.263312339782715 11.798759460449219 4.8076324462890625 11.808191299438477 L4.8076324462890625 11.808191299438477 C4.453571319580078 10.504181861877441 4.103923797607422 9.198890686035156 3.7505273818969727 7.894704341888428 L3.575137138366699 7.249512195587158 L4.176695823669434 7.541543960571289 C5.07606315612793 7.79287576675415 6.58453893661499 7.666652202606201 8.037092208862305 7.316769599914551 C9.489645004272461 6.9668869972229 10.886275291442871 6.393344879150391 11.561951637268066 5.750040531158447 L11.962848663330078 5.227536201477051 L12.101736068725586 5.870136260986328 C12.332023620605469 6.944777011871338 12.519956588745117 7.8211350440979 12.751895904541016 8.902128219604492 L12.751895904541016 8.902128219604492 C14.571422576904297 9.329924583435059 17.226472854614258 10.240840911865234 19.012439727783203 9.575183868408203 L19.585920333862305 9.25204849243164 L19.461503982543945 9.897671699523926 C19.3468074798584 10.485479354858398 19.232112884521484 11.073287963867188 19.117416381835938 11.66109561920166 L19.117416381835938 11.66109561920166 C19.68218421936035 11.642807960510254 20.35814666748047 11.269232749938965 20.811717987060547 11.606231689453125 C21.16322135925293 11.86739444732666 20.484432220458984 12.629007339477539 20.811717987060547 12.919943809509277 C21.284791946411133 13.34047794342041 22.056455612182617 13.15063190460205 22.67882537841797 13.265975952148438 L22.67882537841797 13.265975952148438"></path>
<path fill="none" stroke="black" stroke-width=".3" stroke-opacity="1.0"  filling="0" d="M9.933526992797852 15.10759162902832 L10.006536483764648 15.40243148803711 L9.926183700561523 15.109319686889648 C7.98028564453125 14.96395492553711 6.83495569229126 14.050217628479004 6.068392753601074 12.77505874633789 C5.301829814910889 11.499899864196777 4.914032936096191 9.863320350646973 4.483201026916504 8.272272109985352 L4.483201026916504 8.272272109985352 C5.725475311279297 8.397554397583008 6.987642288208008 8.277170181274414 8.225616455078125 8.114808082580566 L8.276159286499023 8.102279663085938 C9.433368682861328 7.681763172149658 10.592279434204102 7.213402271270752 11.623727798461914 6.541032314300537 L11.623727798461914 6.541032314300537 C11.968482971191406 8.148666381835938 12.37371826171875 9.779046058654785 12.2788724899292 11.263147354125977 C12.184026718139648 12.747247695922852 11.589098930358887 14.085071563720703 9.933526992797852 15.10759162902832 L9.933526992797852 15.10759162902832"></path>
<path fill="none" stroke="black" stroke-width=".3" stroke-opacity="1.0"  filling="0" d="M15.54045581817627 15.919537544250488 L15.54045581817627 15.919537544250488 C15.524831771850586 16.017024993896484 15.509208679199219 16.114513397216797 15.493584632873535 16.211999893188477 L15.493584632873535 16.211999893188477 C14.638014793395996 15.810087203979492 13.629340171813965 15.65273380279541 12.691847801208496 15.773735046386719 L12.691847801208496 15.773735046386719 C12.857669830322266 14.73907470703125 13.45461654663086 14.404546737670898 14.35483169555664 14.355480194091797 L14.35483169555664 14.355480194091797 C14.965917587280273 14.589085578918457 15.30274486541748 15.310036659240723 15.54045581817627 15.919537544250488 L15.54045581817627 15.919537544250488"></path></svg>