<svg xmlns="http://www.w3.org/2000/svg" viewBox="0.0 0.0 24.0 24.0" height="200px" width="200px"><path fill="none" stroke="black" stroke-width=".3" stroke-opacity="1.0"  filling="0" d="M22.78984832763672 9.681455612182617 L17.87995147705078 11.845560073852539 C17.87995147705078 13.510181427001953 18.49625015258789 15.977691650390625 16.995121002197266 17.152013778686523 C15.625539779663086 18.223426818847656 14.357074737548828 18.851511001586914 13.057609558105469 19.033588409423828 C11.75814437866211 19.215665817260742 10.427679061889648 18.951738357543945 8.934096336364746 18.239131927490234 C7.941987991333008 17.765785217285156 6.528132915496826 17.199302673339844 6.0831122398376465 16.008743286132812 C5.687961101531982 14.951600074768066 6.0831122398376465 12.957012176513672 6.0831122398376465 11.821151733398438 L4.193112850189209 10.985879898071289 L4.193112850189209 13.868400573730469 L4.614096164703369 13.868400573730469 L5.060784339904785 19.276609420776367 L2.5687923431396484 19.276609420776367 L3.0154800415039062 13.868400573730469 L3.444456100463867 13.868400573730469 L3.444456100463867 10.65561580657959 L1.2000007629394531 9.666336059570312 L3.4479122161865234 8.675543785095215 C3.7881758213043213 8.345244407653809 4.305794715881348 7.93515682220459 4.749743938446045 8.101847648620605 L8.365152359008789 6.508199691772461 L11.980560302734375 4.914551734924316 L17.385204315185547 7.298003673553467 L22.78984832763672 9.681455612182617"></path>
<path fill="none" stroke="black" stroke-width=".3" stroke-opacity="1.0"  filling="0" d="M16.763879776000977 15.833784103393555 L16.763879776000977 15.833784103393555 C15.4924955368042 16.690998077392578 13.564549446105957 17.953418731689453 11.981206893920898 17.954256057739258 C10.401715278625488 17.95509147644043 8.469934463500977 16.683481216430664 7.198535919189453 15.83356761932373 L7.198535919189453 12.312768936157227 L12.008855819702148 14.432807922363281 L16.763879776000977 12.337176322937012 L16.763879776000977 15.833784103393555"></path></svg>