<svg xmlns="http://www.w3.org/2000/svg" viewBox="0.0 0.0 24.0 24.0" height="200px" width="200px"><path fill="none" stroke="black" stroke-width=".3" stroke-opacity="1.0"  filling="0" d="M19.652231216430664 5.226672172546387 L19.652231216430664 5.226672172546387 C19.257509231567383 5.17022705078125 19.039474487304688 5.764516353607178 18.665544509887695 5.902968406677246 C18.407285690307617 5.998592376708984 18.138504028320312 5.742984294891357 17.874982833862305 5.662992477416992 L17.874982833862305 5.662992477416992 C17.752294540405273 5.908944129943848 17.427881240844727 6.137603759765625 17.506919860839844 6.400847911834717 C17.64505386352539 6.860914707183838 18.214155197143555 7.078659534454346 18.42902374267578 7.508280277252197 C19.412918090820312 9.475533485412598 19.31678009033203 11.103522300720215 20.825542449951172 12.851256370544434 C21.051403045654297 13.112892150878906 22.428630828857422 14.261054992675781 21.499244689941406 14.910167694091797 C20.83244514465332 15.37588119506836 19.712312698364258 14.179555892944336 19.351343154907227 13.95760726928711 C17.479442596435547 12.806635856628418 17.089963912963867 12.152958869934082 16.40186309814453 10.088615417480469 L16.40186309814453 10.088615417480469 C15.94041633605957 10.408470153808594 15.380436897277832 10.619771003723145 15.017521858215332 11.048178672790527 C13.560006141662598 12.768721580505371 14.654555320739746 15.387736320495605 13.635335922241211 17.276878356933594 C12.821005821228027 18.786252975463867 10.89087200164795 19.188074111938477 10.098835945129395 20.671894073486328 C9.845233917236328 21.146997451782227 9.876886367797852 21.725879669189453 9.765912055969238 22.252872467041016 L9.765912055969238 22.252872467041016 C8.497382164001465 22.291391372680664 7.6655378341674805 20.745908737182617 7.923000335693359 19.485912322998047 C8.34766960144043 17.407625198364258 11.0169038772583 17.336288452148438 11.170506477355957 14.879549980163574 C11.206405639648438 14.305373191833496 11.202950477600098 13.47974681854248 10.688448905944824 13.222344398498535 L10.688448905944824 13.222344398498535 C10.165552139282227 13.774182319641113 9.064504623413086 15.098921775817871 8.244840621948242 15.38774299621582 C6.904973030090332 15.859865188598633 4.861995697021484 14.608596801757812 3.6835689544677734 15.250367164611816 C3.0494394302368164 15.59571361541748 2.786069393157959 16.688926696777344 2.064000129699707 16.688926696777344 L2.064000129699707 16.688926696777344 C2.1815309524536133 16.090835571289062 2.4711050987243652 13.78233814239502 3.130824089050293 13.222344398498535 C3.5766451358795166 12.843914985656738 5.596164703369141 13.127498626708984 5.963240146636963 13.091720581054688 C6.994814872741699 12.991174697875977 8.20280647277832 12.134943008422852 9.27074909210205 11.084477424621582 C10.338690757751465 10.034011840820312 11.266582489013672 8.789312362670898 11.737956047058105 7.911832332611084 C11.99481201171875 7.433685302734375 12.40346622467041 6.941265106201172 12.346464157104492 6.401495933532715 C12.313231468200684 6.086803913116455 11.838817596435547 5.978898525238037 11.527716636657715 5.921004295349121 C10.4323148727417 5.717155933380127 9.383535385131836 6.256026744842529 8.41404914855957 6.621708393096924 C7.816588401794434 6.847064971923828 7.250777244567871 7.479220867156982 6.63153600692749 7.323384761810303 C6.178103923797607 7.209275722503662 5.938636302947998 6.480081558227539 6.079008102416992 6.0340800285339355 C6.316013336181641 5.281045913696289 8.336146354675293 4.346139907836914 8.932767868041992 4.083552360534668 C11.41516399383545 2.990990161895752 13.168937683105469 3.396848678588867 15.662711143493652 4.190952301025391 L15.662711143493652 4.190952301025391 C16.060895919799805 1.9412879943847656 16.539318084716797 1.1350767612457275 18.981765747070312 1.793135643005371 L18.981765747070312 1.793135643005371 C20.00879669189453 2.99745512008667 19.6811466217041 3.6175665855407715 19.652231216430664 5.226672172546387 L19.652231216430664 5.226672172546387"></path>
<path fill="none" stroke="black" stroke-width=".3" stroke-opacity="1.0"  filling="0" d="M15.164615631103516 18.896881103515625 L15.164615631103516 18.896881103515625 C15.487846374511719 18.564605712890625 16.26687240600586 17.462316513061523 17.008825302124023 17.791824340820312 C18.037593841552734 18.248708724975586 19.0236873626709 21.620092391967773 19.220016479492188 22.583999633789062 L19.220016479492188 22.583999633789062 C17.868288040161133 22.583999633789062 16.516559600830078 22.583999633789062 15.16483211517334 22.583999633789062 C13.813104629516602 22.583999633789062 12.461376190185547 22.583999633789062 11.109647750854492 22.583999633789062 L11.109647750854492 22.583999633789062 C12.326687812805176 21.07334327697754 13.633039474487305 20.08013343811035 15.164615631103516 18.896881103515625 L15.164615631103516 18.896881103515625"></path></svg>