<svg xmlns="http://www.w3.org/2000/svg" viewBox="0.0 0.0 24.0 24.0" height="200px" width="200px"><path fill="none" stroke="black" stroke-width=".3" stroke-opacity="1.0"  filling="0" d="M7.9970879554748535 4.237391948699951 L8.961527824401855 4.916280746459961 L8.836894989013672 5.100312232971191 C8.262835502624512 6.024110794067383 7.836075305938721 6.919576168060303 7.606560230255127 7.980024337768555 L7.62168025970459 8.156928062438965 C8.254613876342773 9.617258071899414 8.98496150970459 10.844144821166992 9.239799499511719 12.067610740661621 C9.494636535644531 13.29107666015625 9.273965835571289 14.51112174987793 8.004863739013672 15.957767486572266 C7.676388263702393 16.332195281982422 7.28212833404541 16.64335060119629 6.920760631561279 16.986143112182617 L6.282911777496338 15.989520072937012 C7.899802207946777 14.619221687316895 8.211722373962402 13.533166885375977 7.9866533279418945 12.383745193481445 C7.761584281921387 11.234322547912598 6.99952507019043 10.021533966064453 6.468456268310547 8.397768020629883 C6.031994342803955 7.063266754150391 7.369670867919922 5.270401477813721 7.9970879554748535 4.237391948699951 L7.9970879554748535 4.237391948699951"></path>
<path fill="none" stroke="black" stroke-width=".3" stroke-opacity="1.0"  filling="0" d="M12.262871742248535 4.237391948699951 L13.226880073547363 4.916064739227295 L13.102032661437988 5.100096225738525 C12.5285062789917 6.023050785064697 12.103246688842773 6.918959617614746 11.872991561889648 7.9780802726745605 L11.888976097106934 8.157793045043945 C12.520774841308594 9.61934757232666 13.251046180725098 10.845552444458008 13.506050109863281 12.068263053894043 C13.761053085327148 13.290973663330078 13.540788650512695 14.510189056396484 12.271512031555176 15.957767486572266 C11.943267822265625 16.332120895385742 11.549351692199707 16.64335060119629 11.188271522521973 16.986143112182617 L10.549344062805176 15.989736557006836 C12.166293144226074 14.61938190460205 12.478252410888672 13.533924102783203 12.25332260131836 12.385003089904785 C12.028393745422363 11.236082077026367 11.26657485961914 10.023699760437012 10.735967636108398 8.399496078491211 C10.29983139038086 7.064471244812012 11.635024070739746 5.271568298339844 12.262871742248535 4.237391948699951 L12.262871742248535 4.237391948699951"></path>
<path fill="none" stroke="black" stroke-width=".3" stroke-opacity="1.0"  filling="0" d="M16.530384063720703 4.237391948699951 L17.494609832763672 4.916064739227295 L17.369760513305664 5.100096225738525 C16.796236038208008 6.0230512619018555 16.370975494384766 6.918960094451904 16.14072036743164 7.9780802726745605 L16.15648651123047 8.157793045043945 C16.789291381835938 9.619027137756348 17.519733428955078 10.845422744750977 17.774492263793945 12.06830883026123 C18.02924919128418 13.291194915771484 17.808319091796875 14.51057243347168 16.538375854492188 15.957767486572266 C16.20981216430664 16.332189559936523 15.815495491027832 16.64335060119629 15.454054832458496 16.986143112182617 L14.816424369812012 15.989736557006836 C16.43383026123047 14.618988037109375 16.746057510375977 13.533669471740723 16.521202087402344 12.384916305541992 C16.296348571777344 11.236164093017578 15.534408569335938 10.023977279663086 15.003479957580566 8.399496078491211 C14.567292213439941 7.064895153045654 15.902740478515625 5.271231651306152 16.530384063720703 4.237391948699951 L16.530384063720703 4.237391948699951"></path>
<path fill="none" stroke="black" stroke-width=".3" stroke-opacity="1.0"  filling="0" d="M1.6756324768066406 18.041305541992188 L8.558544158935547 18.041305541992188 L15.441455841064453 18.041305541992188 L22.32436752319336 18.041305541992188 L22.32436752319336 19.220016479492188 L15.441455841064453 19.220016479492188 L8.558544158935547 19.220016479492188 L1.6756324768066406 19.220016479492188 L1.6756324768066406 18.041305541992188"></path></svg>