<svg xmlns="http://www.w3.org/2000/svg" viewBox="0.0 0.0 24.0 24.0" height="200px" width="200px"><path fill="none" stroke="black" stroke-width=".3" stroke-opacity="1.0"  filling="0" d="M20.240615844726562 3.3101043701171875 L20.240615844726562 3.3101043701171875 C20.286191940307617 3.323608636856079 20.33189582824707 3.367457389831543 20.337600708007812 3.4146480560302734 L19.379640579223633 9.156360626220703 L18.421680450439453 14.898072242736816 L17.46371841430664 20.63978385925293 C17.327638626098633 20.751888275146484 17.191558837890625 20.86399269104004 17.055479049682617 20.976097106933594 L12.054863929748535 20.961408615112305 L7.054248332977295 20.946720123291016 C6.920112133026123 20.833751678466797 6.785976409912109 20.720783233642578 6.6518402099609375 20.60781478881836 L5.756232261657715 14.878631591796875 L4.860624313354492 9.14944839477539 L3.9650163650512695 3.42026424407959 C3.9720709323883057 3.3697078227996826 4.020555019378662 3.3231723308563232 4.0693440437316895 3.3081607818603516 L9.459768295288086 3.3088088035583496 L14.850192070007324 3.3094565868377686 L20.240615844726562 3.3101043701171875"></path>
<path fill="none" stroke="black" stroke-width=".3" stroke-opacity="1.0"  filling="0" d="M16.02472686767578 10.652376174926758 L16.02472686767578 10.652376174926758 C16.878292083740234 11.739067077636719 17.274005889892578 12.019865036010742 17.66168785095215 13.360807418823242 C17.972389221191406 14.4354829788208 17.92257308959961 15.535917282104492 17.56806182861328 16.600807189941406 C16.819143295288086 18.850425720214844 15.11963176727295 20.001073837280273 13.26207160949707 20.28063201904297 C11.404512405395508 20.560190200805664 9.388904571533203 19.968658447265625 8.007791519165039 18.73392105102539 C6.626678466796875 17.499181747436523 5.880060195922852 15.621234893798828 6.560480117797852 13.327960014343262 C7.069565296173096 11.612149238586426 8.344354629516602 10.603669166564941 9.478594779968262 9.318221092224121 C10.70695686340332 7.926103591918945 11.416654586791992 6.4928483963012695 12.137592315673828 4.79748010635376 L12.137592315673828 4.79748010635376 C13.121220588684082 7.1416168212890625 14.27656364440918 8.814445495605469 16.02472686767578 10.652376174926758 L16.02472686767578 10.652376174926758"></path>
<path fill="none" stroke="black" stroke-width=".3" stroke-opacity="1.0"  filling="0" d="M12.16977596282959 18.515640258789062 L12.168479919433594 18.97248077392578 C9.607609748840332 18.45275115966797 8.608006477355957 17.477855682373047 8.093640327453613 14.911895751953125 L8.818320274353027 14.91427230834961 C9.46272087097168 17.148828506469727 9.937370300292969 17.609933853149414 12.170639991760254 18.257736206054688 L12.16977596282959 18.515640258789062"></path>
<path fill="none" stroke="black" stroke-width=".3" stroke-opacity="1.0"  filling="0" d="M17.051376342773438 22.41508674621582 L12.050652503967285 22.40039825439453 L7.049928665161133 22.385711669921875 C6.304156303405762 22.10211753845215 5.625639915466309 21.523487091064453 5.230560302734375 20.83029556274414 L4.334952354431152 15.101256370544434 L3.4393444061279297 9.372217178344727 L2.543736457824707 3.643177032470703 C2.7494351863861084 2.8910412788391113 3.357980489730835 2.1888959407806396 4.069560527801514 1.8700323104858398 L9.459696769714355 1.870680570602417 L14.849832534790039 1.8713288307189941 L20.23996925354004 1.8719768524169922 C20.950101852416992 2.1920604705810547 21.55646514892578 2.8969016075134277 21.7567195892334 3.649656295776367 L20.79875946044922 9.391223907470703 L19.840801239013672 15.132791519165039 L18.88283920288086 20.874359130859375 C18.481740951538086 21.56397819519043 17.798994064331055 22.136655807495117 17.051376342773438 22.41508674621582 L17.051376342773438 22.41508674621582"></path></svg>