<svg xmlns="http://www.w3.org/2000/svg" viewBox="0.0 0.0 24.0 24.0" height="200px" width="200px"><path fill="none" stroke="black" stroke-width=".3" stroke-opacity="1.0"  filling="0" d="M21.602279663085938 6.002328395843506 L21.602279663085938 6.002328395843506 C21.604698181152344 6.031773090362549 21.60940933227539 6.061128616333008 21.60940933227539 6.090672492980957 L21.60940933227539 11.611200332641602 L21.60940933227539 17.13172721862793 C21.493993759155273 17.327638626098633 21.378576278686523 17.52355194091797 21.263160705566406 17.719463348388672 L16.794660568237305 20.19719886779785 L12.326160430908203 22.67493438720703 C12.112290382385254 22.78151512145996 11.8881254196167 22.781742095947266 11.674272537231445 22.67493438720703 L7.205772399902344 20.19719886779785 L2.737272262573242 17.719463348388672 C2.6219282150268555 17.52355194091797 2.5065841674804688 17.327638626098633 2.391240119934082 17.13172721862793 L2.391240119934082 11.611200332641602 L2.391240119934082 6.090672492980957 C2.5182478427886963 5.888784408569336 2.6452558040618896 5.686896324157715 2.772263526916504 5.485008239746094 L7.2407636642456055 3.338940143585205 L11.709263801574707 1.1928720474243164 C11.903231620788574 1.1928720474243164 12.097200393676758 1.1928720474243164 12.291168212890625 1.1928720474243164 L16.7589111328125 3.339048147201538 L21.226655960083008 5.48522424697876 C21.42724609375 5.607357025146484 21.566783905029297 5.762564659118652 21.602279663085938 6.002328395843506 L21.602279663085938 6.002328395843506"></path>
<path fill="none" stroke="black" stroke-width=".3" stroke-opacity="1.0"  filling="0" d="M20.265886306762695 16.735584259033203 L16.468931198120117 18.841367721557617 L12.671976089477539 20.94715118408203 L12.671976089477539 18.579143524169922 C12.447983741760254 18.355295181274414 12.316671371459961 17.9075984954834 12.0 17.9075984954834 C11.683380126953125 17.9075984954834 11.552160263061523 18.355295181274414 11.328240394592285 18.579143524169922 L11.328240394592285 20.94715118408203 L7.531500339508057 18.841583251953125 L3.734760284423828 16.73601722717285 L3.734760284423828 11.958420753479004 L3.734760284423828 7.180824279785156 C4.46842098236084 7.431217193603516 5.172957897186279 7.795894622802734 5.797128200531006 8.255640029907227 L7.153176307678223 9.753600120544434 C6.438084602355957 10.944210052490234 6.367210388183594 11.401549339294434 6.818376064300537 12.708047866821289 L11.294759750366211 10.11388874053955 C10.293633460998535 8.967097282409668 9.867124557495117 8.907195091247559 8.324328422546387 8.952024459838867 L6.708432674407959 7.3439040184021 C6.073668479919434 6.843227386474609 5.373697280883789 6.416501522064209 4.639152526855469 6.078792572021484 L8.319576263427734 4.311156749725342 L12.0 2.543520927429199 L15.737231254577637 4.3384809494018555 L19.474462509155273 6.1334404945373535 L14.6043119430542 8.834304809570312 C14.391850471496582 9.576252937316895 14.20648193359375 10.282828330993652 15.255767822265625 10.009344100952148 L20.26545524597168 7.231584548950195 L20.224849700927734 11.239031791687012 C19.899898529052734 12.844762802124023 19.145042419433594 14.042956352233887 18.083106994628906 14.662442207336426 C17.021169662475586 15.281927108764648 15.652151107788086 15.322704315185547 14.098872184753418 14.61359977722168 L14.098872184753418 14.61359977722168 C14.230995178222656 13.901948928833008 13.922919273376465 13.158687591552734 13.646135330200195 12.489888191223145 L13.134431838989258 13.00115966796875 L12.1414794921875 12.009936332702637 C11.919912338256836 12.010038375854492 11.671679496765137 12.258600234985352 11.671679496765137 12.480167388916016 L12.663335800170898 13.472039222717285 L11.802144050598145 14.333015441894531 L10.780247688293457 13.312416076660156 C10.558629035949707 13.312416076660156 10.31023120880127 13.561029434204102 10.31023120880127 13.782648086547852 L11.331695556640625 14.80411148071289 L10.819992065429688 15.315383911132812 C11.567304611206055 15.624841690063477 12.443951606750488 15.844156265258789 13.225367546081543 15.635279655456543 L13.225367546081543 15.635279655456543 C14.58552360534668 16.298906326293945 15.777544021606445 16.566553115844727 16.9135799407959 16.41880226135254 C18.04961585998535 16.27105140686035 19.129667282104492 15.707901954650879 20.265886306762695 14.709936141967773 L20.265886306762695 16.735584259033203"></path></svg>