<svg xmlns="http://www.w3.org/2000/svg" viewBox="0.0 0.0 24.0 24.0" height="200px" width="200px"><path fill="none" stroke="black" stroke-width=".3" stroke-opacity="1.0"  filling="0" d="M12.328968048095703 5.31436824798584 L13.041336059570312 5.31436824798584 L13.416095733642578 6.663720607757568 L12.216216087341309 6.663720607757568 L12.328968048095703 5.31436824798584"></path>
<path fill="none" stroke="black" stroke-width=".3" stroke-opacity="1.0"  filling="0" d="M18.702478408813477 9.695712089538574 L18.702478408813477 9.695712089538574 C19.012914657592773 11.202070236206055 18.84261131286621 13.735036849975586 19.797801971435547 15.011124610900879 C20.176992416381836 15.517704010009766 20.81704330444336 15.761308670043945 21.326663970947266 16.13640022277832 L21.326663970947266 16.13640022277832 C20.309062957763672 16.266822814941406 19.282588958740234 16.6152400970459 18.437232971191406 17.1965274810791 L18.437232971191406 17.1965274810791 C18.2613468170166 18.945457458496094 18.178571701049805 20.533292770385742 18.331390380859375 22.286134719848633 L14.02769947052002 22.320587158203125 L9.724008560180664 22.355039596557617 L10.020143508911133 18.021215438842773 L7.833360195159912 18.021215438842773 L8.130359649658203 22.368431091308594 L5.290176868438721 22.391544342041016 L4.601136684417725 20.19136619567871 C4.026792526245117 20.111879348754883 3.4524483680725098 20.032390594482422 2.8781042098999023 19.952903747558594 L2.8781042098999023 19.952903747558594 C3.560964345932007 19.43500328063965 4.187374114990234 18.795089721679688 4.601136684417725 18.044544219970703 L4.601136684417725 18.044544219970703 C5.2562575340271 18.56949234008789 5.945896148681641 19.182382583618164 6.7745280265808105 19.317001342773438 L6.7745280265808105 19.317001342773438 C6.437897205352783 18.49834632873535 6.052961826324463 17.69667625427246 5.608344554901123 16.9312801361084 L5.608344554901123 16.9312801361084 C4.8498735427856445 16.886831283569336 4.0690598487854 17.015771865844727 3.35524845123291 17.276016235351562 L3.35524845123291 17.276016235351562 C4.365218162536621 16.001665115356445 4.942079544067383 14.712996482849121 5.3557209968566895 13.35682201385498 C5.769362449645996 12.000646591186523 6.019783020019531 10.576967239379883 6.3768720626831055 9.0325927734375 L6.3768720626831055 9.0325927734375 C7.619078636169434 11.203417778015137 8.916497230529785 12.807695388793945 10.882847785949707 14.360448837280273 L10.882847785949707 14.360448837280273 C10.998871803283691 13.32767391204834 11.5624361038208 10.820988655090332 10.803144454956055 9.907176971435547 C10.436822891235352 9.466307640075684 9.760727882385254 9.43010425567627 9.239520072937012 9.191568374633789 L9.239520072937012 9.191568374633789 C9.584040641784668 8.723352432250977 9.928560256958008 8.255136489868164 10.273080825805664 7.786920547485352 L10.273080825805664 7.786920547485352 C10.786920547485352 8.282501220703125 11.375557899475098 8.70587158203125 11.995895385742188 9.059160232543945 L11.995895385742188 9.059160232543945 C12.02371597290039 8.346307754516602 11.907708168029785 7.622749328613281 11.704512596130371 6.938904285430908 L11.015256881713867 6.594168186187744 C11.816226959228516 4.837863445281982 11.967610359191895 3.466259717941284 12.1550874710083 1.5581283569335938 L12.1550874710083 1.5581283569335938 C12.817985534667969 3.510481595993042 13.248339653015137 4.857780933380127 14.540592193603516 6.488328456878662 L13.931039810180664 6.673871994018555 C13.765827178955078 7.472185134887695 13.696731567382812 8.298742294311523 13.745495796203613 9.112512588500977 L13.745495796203613 9.112512588500977 C14.1832914352417 8.631948471069336 14.53876781463623 8.056411743164062 14.752920150756836 7.442615985870361 L14.752920150756836 7.442615985870361 C15.203567504882812 7.884407997131348 15.654214859008789 8.326199531555176 16.104862213134766 8.76799201965332 L16.104862213134766 8.76799201965332 C14.2020902633667 9.951971054077148 14.714045524597168 11.341606140136719 14.912111282348633 13.40659236907959 L18.702478408813477 9.695712089538574"></path>
<path fill="none" stroke="black" stroke-width=".3" stroke-opacity="1.0"  filling="0" d="M11.954207420349121 10.112591743469238 L12.629207611083984 10.112591743469238 L12.441720008850098 12.811511993408203 L11.729568481445312 12.811511993408203 L11.954207420349121 10.112591743469238"></path>
<path fill="none" stroke="black" stroke-width=".3" stroke-opacity="1.0"  filling="0" d="M13.266191482543945 12.736128807067871 L13.228391647338867 10.337231636047363 L13.903176307678223 9.962471961975098 L14.01571273803711 12.698760986328125 L13.266191482543945 12.736128807067871"></path>
<path fill="none" stroke="black" stroke-width=".3" stroke-opacity="1.0"  filling="0" d="M17.67669677734375 15.434616088867188 L16.502735137939453 15.308256149291992 L16.80232810974121 13.398816108703613 C16.951295852661133 13.182456016540527 16.99077606201172 12.702798843383789 17.24923324584961 12.749735832214355 C17.58047866821289 12.809891700744629 17.629247665405273 13.30557632446289 17.819255828857422 13.58349609375 L17.67669677734375 15.434616088867188"></path>
<path fill="none" stroke="black" stroke-width=".3" stroke-opacity="1.0"  filling="0" d="M7.069368362426758 16.455862045288086 L6.744287967681885 14.57040023803711 C7.012199878692627 14.213568687438965 7.1088547706604 13.578874588012695 7.5480241775512695 13.49990463256836 C7.9120588302612305 13.43444538116455 8.07088851928711 14.023200035095215 8.332320213317871 14.284847259521484 L8.555880546569824 16.25908851623535 L7.069368362426758 16.455862045288086"></path>
<path fill="none" stroke="black" stroke-width=".3" stroke-opacity="1.0"  filling="0" d="M13.39730453491211 20.15853500366211 L11.467127799987793 20.15853500366211 L11.635824203491211 16.84120750427246 L13.39730453491211 16.84120750427246 L13.39730453491211 20.15853500366211"></path>
<path fill="none" stroke="black" stroke-width=".3" stroke-opacity="1.0"  filling="0" d="M16.3588809967041 20.458343505859375 L14.559599876403809 20.458343505859375 L14.484432220458984 17.23454475402832 L16.527359008789062 17.23454475402832 L16.3588809967041 20.458343505859375"></path></svg>