<svg xmlns="http://www.w3.org/2000/svg" viewBox="0.0 0.0 24.0 24.0" height="200px" width="200px"><path fill="none" stroke="black" stroke-width=".3" stroke-opacity="1.0"  filling="0" d="M21.911808013916016 4.328976154327393 L21.977903366088867 4.660751819610596 L18.765119552612305 5.438568115234375 L18.5813045501709 11.556550979614258 L18.357959747314453 11.445096015930176 L18.24866485595703 5.548944473266602 L12.127116203308105 7.068612575531006 L6.005568027496338 8.58828067779541 L5.938932418823242 14.963088989257812 L5.872296333312988 21.3378963470459 L5.279160499572754 21.3378963470459 L5.334024429321289 14.96611213684082 L5.388888359069824 8.594327926635742 L2.8770246505737305 9.123960494995117 L2.8670883178710938 9.561575889587402 L2.401608467102051 9.657048225402832 L2.115839958190918 9.569999694824219 L2.1391677856445312 8.613120079040527 L3.1729440689086914 8.393448829650879 L5.7712082862854 6.249864101409912 L10.510896682739258 5.870244026184082 L15.250584602355957 5.49062442779541 L21.502269744873047 3.9542160034179688 L21.911808013916016 4.328976154327393"></path>
<path fill="none" stroke="black" stroke-width=".3" stroke-opacity="1.0"  filling="0" d="M21.829296112060547 4.346257209777832 L21.829296112060547 4.346257209777832"></path>
<path fill="none" stroke="black" stroke-width=".3" stroke-opacity="1.0"  filling="0" d="M21.06595230102539 4.4244489669799805 L21.06595230102539 4.4244489669799805"></path>
<path fill="none" stroke="black" stroke-width=".3" stroke-opacity="1.0"  filling="0" d="M21.418460845947266 4.448424816131592 L21.525815963745117 4.07949686050415 L21.734041213989258 4.371960639953613 L21.418460845947266 4.448424816131592"></path>
<path fill="none" stroke="black" stroke-width=".3" stroke-opacity="1.0"  filling="0" d="M21.311111450195312 4.471320152282715 L21.311111450195312 4.471320152282715"></path>
<path fill="none" stroke="black" stroke-width=".3" stroke-opacity="1.0"  filling="0" d="M21.868173599243164 4.4838480949401855 L21.868173599243164 4.4838480949401855"></path>
<path fill="none" stroke="black" stroke-width=".3" stroke-opacity="1.0"  filling="0" d="M21.224712371826172 4.495296001434326 L20.956871032714844 4.2194647789001465 L21.447406768798828 4.098719596862793 L21.224712371826172 4.495296001434326"></path>
<path fill="none" stroke="black" stroke-width=".3" stroke-opacity="1.0"  filling="0" d="M21.061634063720703 4.534824371337891 L20.812583923339844 4.595088958740234 L20.85016632080078 4.24560022354126 L21.061634063720703 4.534824371337891"></path>
<path fill="none" stroke="black" stroke-width=".3" stroke-opacity="1.0"  filling="0" d="M21.47073745727539 4.56657600402832 L21.842256546020508 4.562039852142334 L21.47073745727539 4.56657600402832"></path>
<path fill="none" stroke="black" stroke-width=".3" stroke-opacity="1.0"  filling="0" d="M20.504568099975586 4.614527702331543 L20.504568099975586 4.614527702331543"></path>
<path fill="none" stroke="black" stroke-width=".3" stroke-opacity="1.0"  filling="0" d="M20.699615478515625 4.6164727210998535 L20.699615478515625 4.6164727210998535"></path>
<path fill="none" stroke="black" stroke-width=".3" stroke-opacity="1.0"  filling="0" d="M20.62401580810547 4.625112533569336 L20.30152702331543 4.38038444519043 L20.81279945373535 4.254672527313232 L20.62401580810547 4.625112533569336"></path>
<path fill="none" stroke="black" stroke-width=".3" stroke-opacity="1.0"  filling="0" d="M20.8609676361084 4.714320659637451 L21.441574096679688 4.65772819519043 L20.8609676361084 4.714320659637451"></path>
<path fill="none" stroke="black" stroke-width=".3" stroke-opacity="1.0"  filling="0" d="M20.172359466552734 4.749959945678711 L20.265886306762695 4.389240264892578 L20.47087287902832 4.677384376525879 L20.172359466552734 4.749959945678711"></path>
<path fill="none" stroke="black" stroke-width=".3" stroke-opacity="1.0"  filling="0" d="M20.062849044799805 4.770912170410156 L20.062849044799805 4.770912170410156"></path>
<path fill="none" stroke="black" stroke-width=".3" stroke-opacity="1.0"  filling="0" d="M19.988975524902344 4.773072719573975 L19.673616409301758 4.534824371337891 L20.19136619567871 4.407600402832031 L19.988975524902344 4.773072719573975"></path>
<path fill="none" stroke="black" stroke-width=".3" stroke-opacity="1.0"  filling="0" d="M19.890911102294922 4.778688430786133 L19.890911102294922 4.778688430786133"></path>
<path fill="none" stroke="black" stroke-width=".3" stroke-opacity="1.0"  filling="0" d="M18.4305362701416 4.840248107910156 L18.633142471313477 5.122560501098633 L18.316486358642578 5.199024677276611 L18.4305362701416 4.840248107910156"></path>
<path fill="none" stroke="black" stroke-width=".3" stroke-opacity="1.0"  filling="0" d="M20.21642303466797 4.870272159576416 L20.836992263793945 4.801584243774414 L20.21642303466797 4.870272159576416"></path>
<path fill="none" stroke="black" stroke-width=".3" stroke-opacity="1.0"  filling="0" d="M19.551143646240234 4.900296211242676 L19.643592834472656 4.542168140411377 L19.847929000854492 4.82858419418335 L19.551143646240234 4.900296211242676"></path>
<path fill="none" stroke="black" stroke-width=".3" stroke-opacity="1.0"  filling="0" d="M19.484615325927734 4.916496276855469 L19.484615325927734 4.916496276855469"></path>
<path fill="none" stroke="black" stroke-width=".3" stroke-opacity="1.0"  filling="0" d="M19.375102996826172 4.918007850646973 L19.064495086669922 4.684512615203857 L19.57231330871582 4.559664726257324 L19.375102996826172 4.918007850646973"></path>
<path fill="none" stroke="black" stroke-width=".3" stroke-opacity="1.0"  filling="0" d="M19.588077545166016 5.022119998931885 L20.19007110595703 4.955592632293701 L19.588077545166016 5.022119998931885"></path>
<path fill="none" stroke="black" stroke-width=".3" stroke-opacity="1.0"  filling="0" d="M18.93899917602539 5.048472881317139 L19.037281036376953 4.690992832183838 L19.2381591796875 4.975896835327148 L18.93899917602539 5.048472881317139"></path>
<path fill="none" stroke="black" stroke-width=".3" stroke-opacity="1.0"  filling="0" d="M18.756263732910156 5.064671993255615 L18.4510555267334 4.835064888000488 L18.964487075805664 4.708920955657959 L18.756263732910156 5.064671993255615"></path>
<path fill="none" stroke="black" stroke-width=".3" stroke-opacity="1.0"  filling="0" d="M18.82365608215332 5.075256824493408 L18.82365608215332 5.075256824493408"></path>
<path fill="none" stroke="black" stroke-width=".3" stroke-opacity="1.0"  filling="0" d="M18.9824161529541 5.1687846183776855 L19.563888549804688 5.104632377624512 L18.9824161529541 5.1687846183776855"></path>
<path fill="none" stroke="black" stroke-width=".3" stroke-opacity="1.0"  filling="0" d="M18.155784606933594 5.178936004638672 L17.884056091308594 4.974599838256836 L18.36141586303711 4.857312202453613 L18.155784606933594 5.178936004638672"></path>
<path fill="none" stroke="black" stroke-width=".3" stroke-opacity="1.0"  filling="0" d="M18.88111114501953 5.193192481994629 L18.88111114501953 5.193192481994629"></path>
<path fill="none" stroke="black" stroke-width=".3" stroke-opacity="1.0"  filling="0" d="M18.249095916748047 5.208744525909424 L18.249095916748047 5.208744525909424"></path>
<path fill="none" stroke="black" stroke-width=".3" stroke-opacity="1.0"  filling="0" d="M17.777353286743164 5.329488277435303 L17.8626708984375 4.9797844886779785 L18.063982009887695 5.260152816772461 L17.777353286743164 5.329488277435303"></path>
<path fill="none" stroke="black" stroke-width=".3" stroke-opacity="1.0"  filling="0" d="M17.6734561920166 5.347200393676758 L17.6734561920166 5.347200393676758"></path>
<path fill="none" stroke="black" stroke-width=".3" stroke-opacity="1.0"  filling="0" d="M17.580575942993164 5.374848365783691 L17.253982543945312 5.129256248474121 L17.823360443115234 4.989503860473633 L17.580575942993164 5.374848365783691"></path>
<path fill="none" stroke="black" stroke-width=".3" stroke-opacity="1.0"  filling="0" d="M17.825735092163086 5.448720455169678 L18.169822692871094 5.436624526977539 L17.825735092163086 5.448720455169678"></path>
<path fill="none" stroke="black" stroke-width=".3" stroke-opacity="1.0"  filling="0" d="M16.992839813232422 5.477231979370117 L16.708585739135742 5.263392448425293 L17.18248748779297 5.146968364715576 L16.992839813232422 5.477231979370117"></path>
<path fill="none" stroke="black" stroke-width=".3" stroke-opacity="1.0"  filling="0" d="M17.160240173339844 5.4789605140686035 L17.233463287353516 5.134655952453613 L17.433048248291016 5.413080215454102 L17.160240173339844 5.4789605140686035"></path>
<path fill="none" stroke="black" stroke-width=".3" stroke-opacity="1.0"  filling="0" d="M17.0522403717041 5.501640319824219 L17.0522403717041 5.501640319824219"></path>
<path fill="none" stroke="black" stroke-width=".3" stroke-opacity="1.0"  filling="0" d="M17.21402359008789 5.596680164337158 L17.797008514404297 5.525184631347656 L17.21402359008789 5.596680164337158"></path>
<path fill="none" stroke="black" stroke-width=".3" stroke-opacity="1.0"  filling="0" d="M16.608360290527344 5.612448215484619 L16.68547248840332 5.269224643707275 L16.883758544921875 5.545703887939453 L16.608360290527344 5.612448215484619"></path>
<path fill="none" stroke="black" stroke-width=".3" stroke-opacity="1.0"  filling="0" d="M16.435775756835938 5.621520042419434 L16.138343811035156 5.403576374053955 L16.634496688842773 5.28153657913208 L16.435775756835938 5.621520042419434"></path>
<path fill="none" stroke="black" stroke-width=".3" stroke-opacity="1.0"  filling="0" d="M16.54053497314453 5.628864288330078 L16.54053497314453 5.628864288330078"></path>
<path fill="none" stroke="black" stroke-width=".3" stroke-opacity="1.0"  filling="0" d="M15.892536163330078 5.72260856628418 L15.628150939941406 5.529072284698486 L16.074838638305664 5.419344425201416 L15.892536163330078 5.72260856628418"></path>
<path fill="none" stroke="black" stroke-width=".3" stroke-opacity="1.0"  filling="0" d="M16.645944595336914 5.734272480010986 L17.179895401000977 5.672496318817139 L16.645944595336914 5.734272480010986"></path>
<path fill="none" stroke="black" stroke-width=".3" stroke-opacity="1.0"  filling="0" d="M16.03941535949707 5.750040531158447 L16.122358322143555 5.407464504241943 L16.32410430908203 5.681136131286621 L16.03941535949707 5.750040531158447"></path>
<path fill="none" stroke="black" stroke-width=".3" stroke-opacity="1.0"  filling="0" d="M15.971158981323242 5.766672134399414 L15.971158981323242 5.766672134399414"></path>
<path fill="none" stroke="black" stroke-width=".3" stroke-opacity="1.0"  filling="0" d="M15.338496208190918 5.849184036254883 L15.084263801574707 5.662776470184326 L15.531167984008789 5.552832126617432 L15.338496208190918 5.849184036254883"></path>
<path fill="none" stroke="black" stroke-width=".3" stroke-opacity="1.0"  filling="0" d="M16.101192474365234 5.866032123565674 L16.61052131652832 5.8081440925598145 L16.101192474365234 5.866032123565674"></path>
<path fill="none" stroke="black" stroke-width=".3" stroke-opacity="1.0"  filling="0" d="M15.477599143981934 5.886120319366455 L15.596183776855469 5.536848068237305 L15.796847343444824 5.8087921142578125 L15.477599143981934 5.886120319366455"></path>
<path fill="none" stroke="black" stroke-width=".3" stroke-opacity="1.0"  filling="0" d="M15.407832145690918 5.899944305419922 L15.407832145690918 5.899944305419922"></path>
<path fill="none" stroke="black" stroke-width=".3" stroke-opacity="1.0"  filling="0" d="M15.539376258850098 6.00211238861084 L16.069656372070312 5.936880588531494 L15.539376258850098 6.00211238861084"></path>
<path fill="none" stroke="black" stroke-width=".3" stroke-opacity="1.0"  filling="0" d="M14.804544448852539 6.00816011428833 L14.521583557128906 5.801016330718994 L15.015359878540039 5.679624557495117 L14.804544448852539 6.00816011428833"></path>
<path fill="none" stroke="black" stroke-width=".3" stroke-opacity="1.0"  filling="0" d="M14.968487739562988 6.00924015045166 L15.072382926940918 5.665584087371826 L15.271318435668945 5.935800075531006 L14.968487739562988 6.00924015045166"></path>
<path fill="none" stroke="black" stroke-width=".3" stroke-opacity="1.0"  filling="0" d="M14.899367332458496 6.025656223297119 L14.899367332458496 6.025656223297119"></path>
<path fill="none" stroke="black" stroke-width=".3" stroke-opacity="1.0"  filling="0" d="M13.383048057556152 6.0807366371154785 L13.181952476501465 6.3945841789245605 L12.911303520202637 6.196512222290039 L13.383048057556152 6.0807366371154785"></path>
<path fill="none" stroke="black" stroke-width=".3" stroke-opacity="1.0"  filling="0" d="M15.029399871826172 6.125448226928711 L15.501575469970703 6.071880340576172 L15.029399871826172 6.125448226928711"></path>
<path fill="none" stroke="black" stroke-width=".3" stroke-opacity="1.0"  filling="0" d="M14.247480392456055 6.128904342651367 L13.981368064880371 5.933640480041504 L14.44900894165039 5.818727970123291 L14.247480392456055 6.128904342651367"></path>
<path fill="none" stroke="black" stroke-width=".3" stroke-opacity="1.0"  filling="0" d="M14.402783393859863 6.146183967590332 L14.500631332397461 5.8059844970703125 L14.69870376586914 6.074471950531006 L14.402783393859863 6.146183967590332"></path>
<path fill="none" stroke="black" stroke-width=".3" stroke-opacity="1.0"  filling="0" d="M14.334311485290527 6.158064365386963 L14.334311485290527 6.158064365386963"></path>
<path fill="none" stroke="black" stroke-width=".3" stroke-opacity="1.0"  filling="0" d="M13.705751419067383 6.24878454208374 L13.45259952545166 6.0636725425720215 L13.888919830322266 5.956536293029785 L13.705751419067383 6.24878454208374"></path>
<path fill="none" stroke="black" stroke-width=".3" stroke-opacity="1.0"  filling="0" d="M14.434752464294434 6.269304275512695 L14.990519523620605 6.193704128265381 L14.434752464294434 6.269304275512695"></path>
<path fill="none" stroke="black" stroke-width=".3" stroke-opacity="1.0"  filling="0" d="M13.855440139770508 6.278592109680176 L13.94918441772461 5.941632270812988 L14.145743370056152 6.20839262008667 L13.855440139770508 6.278592109680176"></path>
<path fill="none" stroke="black" stroke-width=".3" stroke-opacity="1.0"  filling="0" d="M13.788911819458008 6.285720348358154 L13.788911819458008 6.285720348358154"></path>
<path fill="none" stroke="black" stroke-width=".3" stroke-opacity="1.0"  filling="0" d="M13.911384582519531 6.396096229553223 L14.399760246276855 6.334536075592041 L13.911384582519531 6.396096229553223"></path>
<path fill="none" stroke="black" stroke-width=".3" stroke-opacity="1.0"  filling="0" d="M13.345463752746582 6.402143955230713 L13.425383567810059 6.07036828994751 L13.620431900024414 6.335616111755371 L13.345463752746582 6.402143955230713"></path>
<path fill="none" stroke="black" stroke-width=".3" stroke-opacity="1.0"  filling="0" d="M13.279151916503906 6.4077606201171875 L13.279151916503906 6.4077606201171875"></path>
<path fill="none" stroke="black" stroke-width=".3" stroke-opacity="1.0"  filling="0" d="M12.633959770202637 6.4971842765808105 L12.396360397338867 6.323088645935059 L12.815183639526367 6.220272541046143 L12.633959770202637 6.4971842765808105"></path>
<path fill="none" stroke="black" stroke-width=".3" stroke-opacity="1.0"  filling="0" d="M13.418255805969238 6.515328407287598 L13.874231338500977 6.459600448608398 L13.418255805969238 6.515328407287598"></path>
<path fill="none" stroke="black" stroke-width=".3" stroke-opacity="1.0"  filling="0" d="M12.769824028015137 6.541464328765869 L12.886463165283203 6.202775955200195 L13.080647468566895 6.466296672821045 L12.769824028015137 6.541464328765869"></path>
<path fill="none" stroke="black" stroke-width=".3" stroke-opacity="1.0"  filling="0" d="M12.703295707702637 6.547944068908691 L12.703295707702637 6.547944068908691"></path>
<path fill="none" stroke="black" stroke-width=".3" stroke-opacity="1.0"  filling="0" d="M12.144720077514648 6.619872093200684 L11.93563175201416 6.436272621154785 L12.335880279541016 6.3379926681518555 L12.144720077514648 6.619872093200684"></path>
<path fill="none" stroke="black" stroke-width=".3" stroke-opacity="1.0"  filling="0" d="M12.833975791931152 6.656808376312256 L13.380671501159668 6.577104091644287 L12.833975791931152 6.656808376312256"></path>
<path fill="none" stroke="black" stroke-width=".3" stroke-opacity="1.0"  filling="0" d="M12.285120010375977 6.658536434173584 L12.377351760864258 6.3278398513793945 L12.570240020751953 6.58941650390625 L12.285120010375977 6.658536434173584"></path>
<path fill="none" stroke="black" stroke-width=".3" stroke-opacity="1.0"  filling="0" d="M12.218591690063477 6.662640571594238 L12.218591690063477 6.662640571594238"></path>
<path fill="none" stroke="black" stroke-width=".3" stroke-opacity="1.0"  filling="0" d="M12.103464126586914 6.680784225463867 L12.103464126586914 6.680784225463867"></path>
<path fill="none" stroke="black" stroke-width=".3" stroke-opacity="1.0"  filling="0" d="M11.584199905395508 6.72808837890625 L11.584199905395508 6.72808837890625"></path>
<path fill="none" stroke="black" stroke-width=".3" stroke-opacity="1.0"  filling="0" d="M11.680319786071777 6.730896472930908 L11.484623908996582 6.547080039978027 L11.862839698791504 6.454200267791748 L11.680319786071777 6.730896472930908"></path>
<path fill="none" stroke="black" stroke-width=".3" stroke-opacity="1.0"  filling="0" d="M11.81726360321045 6.771935939788818 L11.904960632324219 6.4438323974609375 L11.81726360321045 6.771935939788818"></path>
<path fill="none" stroke="black" stroke-width=".3" stroke-opacity="1.0"  filling="0" d="M12.351215362548828 6.773664474487305 L12.792718887329102 6.717072486877441 L12.351215362548828 6.773664474487305"></path>
<path fill="none" stroke="black" stroke-width=".3" stroke-opacity="1.0"  filling="0" d="M11.74879264831543 6.785112380981445 L11.74879264831543 6.785112380981445"></path>
<path fill="none" stroke="black" stroke-width=".3" stroke-opacity="1.0"  filling="0" d="M10.464455604553223 6.79807186126709 L10.387127876281738 7.1184000968933105 L10.464455604553223 6.79807186126709"></path>
<path fill="none" stroke="black" stroke-width=".3" stroke-opacity="1.0"  filling="0" d="M11.209440231323242 6.8594160079956055 L10.992144584655762 6.668471813201904 L11.414207458496094 6.564792633056641 L11.209440231323242 6.8594160079956055"></path>
<path fill="none" stroke="black" stroke-width=".3" stroke-opacity="1.0"  filling="0" d="M11.358480453491211 6.882960319519043 L11.455464363098145 6.554424285888672 L11.358480453491211 6.882960319519043"></path>
<path fill="none" stroke="black" stroke-width=".3" stroke-opacity="1.0"  filling="0" d="M11.290440559387207 6.889872074127197 L11.290440559387207 6.889872074127197"></path>
<path fill="none" stroke="black" stroke-width=".3" stroke-opacity="1.0"  filling="0" d="M11.866727828979492 6.8909525871276855 L12.31147289276123 6.831552505493164 L11.866727828979492 6.8909525871276855"></path>
<path fill="none" stroke="black" stroke-width=".3" stroke-opacity="1.0"  filling="0" d="M10.005671501159668 6.9123358726501465 L9.913871765136719 7.232448101043701 L10.005671501159668 6.9123358726501465"></path>
<path fill="none" stroke="black" stroke-width=".3" stroke-opacity="1.0"  filling="0" d="M11.167752265930176 6.919464111328125 L11.167752265930176 6.919464111328125"></path>
<path fill="none" stroke="black" stroke-width=".3" stroke-opacity="1.0"  filling="0" d="M10.59556770324707 6.964608192443848 L10.59556770324707 6.964608192443848"></path>
<path fill="none" stroke="black" stroke-width=".3" stroke-opacity="1.0"  filling="0" d="M10.718039512634277 6.987504005432129 L10.494048118591309 6.7905120849609375 L10.913951873779297 6.6872639656066895 L10.718039512634277 6.987504005432129"></path>
<path fill="none" stroke="black" stroke-width=".3" stroke-opacity="1.0"  filling="0" d="M10.873991012573242 7.000248432159424 L10.966224670410156 6.674736499786377 L10.873991012573242 7.000248432159424"></path>
<path fill="none" stroke="black" stroke-width=".3" stroke-opacity="1.0"  filling="0" d="M11.392607688903809 7.005648612976074 L11.825688362121582 6.947328090667725 L11.392607688903809 7.005648612976074"></path>
<path fill="none" stroke="black" stroke-width=".3" stroke-opacity="1.0"  filling="0" d="M10.803791999816895 7.017312049865723 L10.803791999816895 7.017312049865723"></path>
<path fill="none" stroke="black" stroke-width=".3" stroke-opacity="1.0"  filling="0" d="M9.51643180847168 7.0311360359191895 L9.433703422546387 7.348872184753418 L9.51643180847168 7.0311360359191895"></path>
<path fill="none" stroke="black" stroke-width=".3" stroke-opacity="1.0"  filling="0" d="M5.058623790740967 7.046688556671143 L3.3241443634033203 8.359319686889648 L5.058623790740967 7.046688556671143"></path>
<path fill="none" stroke="black" stroke-width=".3" stroke-opacity="1.0"  filling="0" d="M10.24672794342041 7.085784435272217 L10.038288116455078 6.90283203125 L10.432703971862793 6.805847644805908 L10.24672794342041 7.085784435272217"></path>
<path fill="none" stroke="black" stroke-width=".3" stroke-opacity="1.0"  filling="0" d="M10.905311584472656 7.123368263244629 L11.350919723510742 7.060512065887451 L10.905311584472656 7.123368263244629"></path>
<path fill="none" stroke="black" stroke-width=".3" stroke-opacity="1.0"  filling="0" d="M10.317359924316406 7.1348161697387695 L10.317359924316406 7.1348161697387695"></path>
<path fill="none" stroke="black" stroke-width=".3" stroke-opacity="1.0"  filling="0" d="M10.209792137145996 7.141080379486084 L10.209792137145996 7.141080379486084"></path>
<path fill="none" stroke="black" stroke-width=".3" stroke-opacity="1.0"  filling="0" d="M9.066720008850098 7.141512393951416 L8.987015724182129 7.45687198638916 L9.066720008850098 7.141512393951416"></path>
<path fill="none" stroke="black" stroke-width=".3" stroke-opacity="1.0"  filling="0" d="M9.655967712402344 7.206096172332764 L9.655967712402344 7.206096172332764"></path>
<path fill="none" stroke="black" stroke-width=".3" stroke-opacity="1.0"  filling="0" d="M9.763968467712402 7.216248035430908 L9.544943809509277 7.023792266845703 L9.970463752746582 6.919248104095459 L9.763968467712402 7.216248035430908"></path>
<path fill="none" stroke="black" stroke-width=".3" stroke-opacity="1.0"  filling="0" d="M8.633208274841309 7.248000144958496 L8.559335708618164 7.560336112976074 L8.633208274841309 7.248000144958496"></path>
<path fill="none" stroke="black" stroke-width=".3" stroke-opacity="1.0"  filling="0" d="M9.842592239379883 7.249728202819824 L9.842592239379883 7.249728202819824"></path>
<path fill="none" stroke="black" stroke-width=".3" stroke-opacity="1.0"  filling="0" d="M10.38323974609375 7.249728202819824 L10.862112045288086 7.176720142364502 L10.38323974609375 7.249728202819824"></path>
<path fill="none" stroke="black" stroke-width=".3" stroke-opacity="1.0"  filling="0" d="M9.197832107543945 7.3056721687316895 L9.197832107543945 7.3056721687316895"></path>
<path fill="none" stroke="black" stroke-width=".3" stroke-opacity="1.0"  filling="0" d="M9.298920631408691 7.313664436340332 L9.106679916381836 7.131576061248779 L9.495479583740234 7.036104202270508 L9.298920631408691 7.313664436340332"></path>
<path fill="none" stroke="black" stroke-width=".3" stroke-opacity="1.0"  filling="0" d="M9.919055938720703 7.362264156341553 L10.33939266204834 7.301352500915527 L9.919055938720703 7.362264156341553"></path>
<path fill="none" stroke="black" stroke-width=".3" stroke-opacity="1.0"  filling="0" d="M9.364368438720703 7.362696170806885 L9.364368438720703 7.362696170806885"></path>
<path fill="none" stroke="black" stroke-width=".3" stroke-opacity="1.0"  filling="0" d="M5.816784381866455 7.377600193023682 L5.816784381866455 7.377600193023682"></path>
<path fill="none" stroke="black" stroke-width=".3" stroke-opacity="1.0"  filling="0" d="M8.859359741210938 7.401144027709961 L8.673600196838379 7.237847805023193 L9.031512260437012 7.149936199188232 L8.859359741210938 7.401144027709961"></path>
<path fill="none" stroke="black" stroke-width=".3" stroke-opacity="1.0"  filling="0" d="M8.921567916870117 7.45579195022583 L8.921567916870117 7.45579195022583"></path>
<path fill="none" stroke="black" stroke-width=".3" stroke-opacity="1.0"  filling="0" d="M7.764240264892578 7.463352203369141 L7.687560558319092 7.771152496337891 L7.764240264892578 7.463352203369141"></path>
<path fill="none" stroke="black" stroke-width=".3" stroke-opacity="1.0"  filling="0" d="M9.439104080200195 7.4782562255859375 L9.87391185760498 7.4121599197387695 L9.439104080200195 7.4782562255859375"></path>
<path fill="none" stroke="black" stroke-width=".3" stroke-opacity="1.0"  filling="0" d="M8.79974365234375 7.488624095916748 L8.79974365234375 7.488624095916748"></path>
<path fill="none" stroke="black" stroke-width=".3" stroke-opacity="1.0"  filling="0" d="M8.417856216430664 7.524263858795166 L8.219136238098145 7.349952220916748 L8.596272468566895 7.257287979125977 L8.417856216430664 7.524263858795166"></path>
<path fill="none" stroke="black" stroke-width=".3" stroke-opacity="1.0"  filling="0" d="M5.533176422119141 7.524696350097656 L5.470751762390137 7.85971212387085 L3.753335952758789 8.26968002319336 L5.713536262512207 6.560256481170654 L5.533176422119141 7.524696350097656"></path>
<path fill="none" stroke="black" stroke-width=".3" stroke-opacity="1.0"  filling="0" d="M8.492376327514648 7.567464351654053 L8.492376327514648 7.567464351654053"></path>
<path fill="none" stroke="black" stroke-width=".3" stroke-opacity="1.0"  filling="0" d="M7.328135967254639 7.568760395050049 L7.255560398101807 7.876128196716309 L7.328135967254639 7.568760395050049"></path>
<path fill="none" stroke="black" stroke-width=".3" stroke-opacity="1.0"  filling="0" d="M5.682000160217285 7.5810723304748535 L5.682000160217285 7.5810723304748535"></path>
<path fill="none" stroke="black" stroke-width=".3" stroke-opacity="1.0"  filling="0" d="M8.375304222106934 7.587984085083008 L8.375304222106934 7.587984085083008"></path>
<path fill="none" stroke="black" stroke-width=".3" stroke-opacity="1.0"  filling="0" d="M8.979671478271484 7.589712619781494 L9.393095970153809 7.526855945587158 L8.979671478271484 7.589712619781494"></path>
<path fill="none" stroke="black" stroke-width=".3" stroke-opacity="1.0"  filling="0" d="M5.834064483642578 7.618007659912109 L5.834064483642578 7.618007659912109"></path>
<path fill="none" stroke="black" stroke-width=".3" stroke-opacity="1.0"  filling="0" d="M7.984344482421875 7.619304180145264 L7.795992374420166 7.453847885131836 L8.142889022827148 7.368528366088867 L7.984344482421875 7.619304180145264"></path>
<path fill="none" stroke="black" stroke-width=".3" stroke-opacity="1.0"  filling="0" d="M6.498696327209473 7.641336441040039 L5.991528511047363 7.675896167755127 L5.8090081214904785 6.496320724487305 L10.310447692871094 6.0472564697265625 L14.811887741088867 5.59819221496582 L10.655292510986328 6.61976432800293 L6.498696327209473 7.641336441040039"></path>
<path fill="none" stroke="black" stroke-width=".3" stroke-opacity="1.0"  filling="0" d="M8.119560241699219 7.6666083335876465 L8.183280944824219 7.3585920333862305 L8.119560241699219 7.6666083335876465"></path>
<path fill="none" stroke="black" stroke-width=".3" stroke-opacity="1.0"  filling="0" d="M8.052384376525879 7.678703784942627 L8.052384376525879 7.678703784942627"></path>
<path fill="none" stroke="black" stroke-width=".3" stroke-opacity="1.0"  filling="0" d="M8.558904647827148 7.691232204437256 L8.932583808898926 7.636368274688721 L8.558904647827148 7.691232204437256"></path>
<path fill="none" stroke="black" stroke-width=".3" stroke-opacity="1.0"  filling="0" d="M7.930128574371338 7.705056190490723 L7.930128574371338 7.705056190490723"></path>
<path fill="none" stroke="black" stroke-width=".3" stroke-opacity="1.0"  filling="0" d="M7.451255798339844 7.7329206466674805 L7.451255798339844 7.7329206466674805"></path>
<path fill="none" stroke="black" stroke-width=".3" stroke-opacity="1.0"  filling="0" d="M7.546080112457275 7.734432697296143 L7.360752105712891 7.560768127441406 L7.728816032409668 7.470263957977295 L7.546080112457275 7.734432697296143"></path>
<path fill="none" stroke="black" stroke-width=".3" stroke-opacity="1.0"  filling="0" d="M7.62168025970459 7.772016525268555 L7.62168025970459 7.772016525268555"></path>
<path fill="none" stroke="black" stroke-width=".3" stroke-opacity="1.0"  filling="0" d="M8.170320510864258 7.785408020019531 L8.511384010314941 7.736591815948486 L8.170320510864258 7.785408020019531"></path>
<path fill="none" stroke="black" stroke-width=".3" stroke-opacity="1.0"  filling="0" d="M7.129200458526611 7.815864562988281 L6.952728271484375 7.66099214553833 L7.286016464233398 7.579128265380859 L7.129200458526611 7.815864562988281"></path>
<path fill="none" stroke="black" stroke-width=".3" stroke-opacity="1.0"  filling="0" d="M5.741400241851807 7.843080043792725 L5.714400291442871 8.155847549438477 L5.741400241851807 7.843080043792725"></path>
<path fill="none" stroke="black" stroke-width=".3" stroke-opacity="1.0"  filling="0" d="M7.191408157348633 7.87051248550415 L7.191408157348633 7.87051248550415"></path>
<path fill="none" stroke="black" stroke-width=".3" stroke-opacity="1.0"  filling="0" d="M7.685184001922607 7.902912139892578 L8.121719360351562 7.829472064971924 L7.685184001922607 7.902912139892578"></path>
<path fill="none" stroke="black" stroke-width=".3" stroke-opacity="1.0"  filling="0" d="M7.069583892822266 7.90550422668457 L7.069583892822266 7.90550422668457"></path>
<path fill="none" stroke="black" stroke-width=".3" stroke-opacity="1.0"  filling="0" d="M6.708864212036133 7.919976234436035 L6.531744003295898 7.764456272125244 L6.879720211029053 7.678920269012451 L6.708864212036133 7.919976234436035"></path>
<path fill="none" stroke="black" stroke-width=".3" stroke-opacity="1.0"  filling="0" d="M5.8059844970703125 7.954751968383789 L5.8059844970703125 7.954751968383789"></path>
<path fill="none" stroke="black" stroke-width=".3" stroke-opacity="1.0"  filling="0" d="M5.452176570892334 7.959072113037109 L5.452176570892334 7.959072113037109"></path>
<path fill="none" stroke="black" stroke-width=".3" stroke-opacity="1.0"  filling="0" d="M6.764808177947998 7.969224452972412 L6.764808177947998 7.969224452972412"></path>
<path fill="none" stroke="black" stroke-width=".3" stroke-opacity="1.0"  filling="0" d="M6.82809591293335 7.979376316070557 L6.915359973907471 7.673952102661133 L6.82809591293335 7.979376316070557"></path>
<path fill="none" stroke="black" stroke-width=".3" stroke-opacity="1.0"  filling="0" d="M5.208528518676758 7.987584114074707 L5.097720146179199 8.217191696166992 L5.208528518676758 7.987584114074707"></path>
<path fill="none" stroke="black" stroke-width=".3" stroke-opacity="1.0"  filling="0" d="M6.655728340148926 7.994928359985352 L6.655728340148926 7.994928359985352"></path>
<path fill="none" stroke="black" stroke-width=".3" stroke-opacity="1.0"  filling="0" d="M7.267655849456787 8.003999710083008 L7.635720252990723 7.945248603820801 L7.267655849456787 8.003999710083008"></path>
<path fill="none" stroke="black" stroke-width=".3" stroke-opacity="1.0"  filling="0" d="M5.2728962898254395 8.013936042785645 L5.2728962898254395 8.013936042785645"></path>
<path fill="none" stroke="black" stroke-width=".3" stroke-opacity="1.0"  filling="0" d="M6.883608341217041 8.096879959106445 L7.2171125411987305 8.044824600219727 L6.883608341217041 8.096879959106445"></path>
<path fill="none" stroke="black" stroke-width=".3" stroke-opacity="1.0"  filling="0" d="M5.883096218109131 8.106168746948242 L5.883096218109131 8.106168746948242"></path>
<path fill="none" stroke="black" stroke-width=".3" stroke-opacity="1.0"  filling="0" d="M6.247488498687744 8.119775772094727 L6.48465633392334 7.7700724601745605 L6.5822882652282715 8.038776397705078 L6.247488498687744 8.119775772094727"></path>
<path fill="none" stroke="black" stroke-width=".3" stroke-opacity="1.0"  filling="0" d="M6.1688642501831055 8.125608444213867 L6.1688642501831055 8.125608444213867"></path>
<path fill="none" stroke="black" stroke-width=".3" stroke-opacity="1.0"  filling="0" d="M5.713968276977539 8.16146469116211 L5.713968276977539 8.16146469116211"></path>
<path fill="none" stroke="black" stroke-width=".3" stroke-opacity="1.0"  filling="0" d="M6.590280055999756 8.167728424072266 L6.832848072052002 8.136192321777344 L6.590280055999756 8.167728424072266"></path>
<path fill="none" stroke="black" stroke-width=".3" stroke-opacity="1.0"  filling="0" d="M6.008592128753662 8.16859245300293 L6.015504360198975 7.80182409286499 L6.425256252288818 7.773960113525391 L6.008592128753662 8.16859245300293"></path>
<path fill="none" stroke="black" stroke-width=".3" stroke-opacity="1.0"  filling="0" d="M4.363320350646973 8.189329147338867 L3.9840240478515625 8.39236831665039 L4.363320350646973 8.189329147338867"></path>
<path fill="none" stroke="black" stroke-width=".3" stroke-opacity="1.0"  filling="0" d="M5.647440433502197 8.219568252563477 L5.609424114227295 7.809600353240967 L5.647440433502197 8.219568252563477"></path>
<path fill="none" stroke="black" stroke-width=".3" stroke-opacity="1.0"  filling="0" d="M6.3250322341918945 8.257152557373047 L6.538871765136719 8.205960273742676 L6.3250322341918945 8.257152557373047"></path>
<path fill="none" stroke="black" stroke-width=".3" stroke-opacity="1.0"  filling="0" d="M6.249864101409912 8.275728225708008 L6.249864101409912 8.275728225708008"></path>
<path fill="none" stroke="black" stroke-width=".3" stroke-opacity="1.0"  filling="0" d="M4.645848274230957 8.311152458190918 L4.426608562469482 8.17420768737793 L4.645848274230957 8.311152458190918"></path>
<path fill="none" stroke="black" stroke-width=".3" stroke-opacity="1.0"  filling="0" d="M3.659592628479004 8.35132884979248 L3.919224739074707 8.295384407043457 L3.659592628479004 8.35132884979248"></path>
<path fill="none" stroke="black" stroke-width=".3" stroke-opacity="1.0"  filling="0" d="M4.647144317626953 8.478768348693848 L4.430496692657471 8.526936531066895 L4.647144317626953 8.478768348693848"></path>
<path fill="none" stroke="black" stroke-width=".3" stroke-opacity="1.0"  filling="0" d="M4.366991996765137 8.54076099395752 L4.007568359375 8.620464324951172 L4.366991996765137 8.54076099395752"></path>
<path fill="none" stroke="black" stroke-width=".3" stroke-opacity="1.0"  filling="0" d="M5.610720157623291 8.730840682983398 L5.610720157623291 8.730840682983398 C5.6568169593811035 8.72756576538086 5.703194618225098 8.733349800109863 5.749176502227783 8.737968444824219 L5.610720157623291 8.730840682983398"></path>
<path fill="none" stroke="black" stroke-width=".3" stroke-opacity="1.0"  filling="0" d="M5.513088226318359 8.897377014160156 L5.5141682624816895 8.758703231811523 C5.5192084312438965 8.756471633911133 5.524248123168945 8.754240036010742 5.529288291931152 8.752008438110352 L5.513088226318359 8.897377014160156"></path>
<path fill="none" stroke="black" stroke-width=".3" stroke-opacity="1.0"  filling="0" d="M5.8753204345703125 8.91163158416748 L5.832768440246582 8.758487701416016 C5.847384452819824 8.763167381286621 5.861999988555908 8.767848014831543 5.87661600112915 8.772527694702148 L5.8753204345703125 8.91163158416748"></path>
<path fill="none" stroke="black" stroke-width=".3" stroke-opacity="1.0"  filling="0" d="M5.589768409729004 8.922216415405273 L5.589768409729004 8.922216415405273"></path>
<path fill="none" stroke="black" stroke-width=".3" stroke-opacity="1.0"  filling="0" d="M5.657592296600342 9.160896301269531 L5.657592296600342 9.160896301269531"></path>
<path fill="none" stroke="black" stroke-width=".3" stroke-opacity="1.0"  filling="0" d="M5.79086446762085 9.254424095153809 L5.79086446762085 9.254424095153809"></path>
<path fill="none" stroke="black" stroke-width=".3" stroke-opacity="1.0"  filling="0" d="M5.647224426269531 9.356807708740234 L5.647224426269531 9.356807708740234"></path>
<path fill="none" stroke="black" stroke-width=".3" stroke-opacity="1.0"  filling="0" d="M5.536632061004639 9.357671737670898 L5.536632061004639 9.357671737670898"></path>
<path fill="none" stroke="black" stroke-width=".3" stroke-opacity="1.0"  filling="0" d="M5.8386006355285645 9.573671340942383 L5.8386006355285645 9.573671340942383"></path>
<path fill="none" stroke="black" stroke-width=".3" stroke-opacity="1.0"  filling="0" d="M5.606616020202637 9.574968338012695 L5.606616020202637 9.574968338012695"></path>
<path fill="none" stroke="black" stroke-width=".3" stroke-opacity="1.0"  filling="0" d="M5.507040500640869 9.584039688110352 L5.507040500640869 9.584039688110352"></path>
<path fill="none" stroke="black" stroke-width=".3" stroke-opacity="1.0"  filling="0" d="M5.516327857971191 9.796152114868164 L5.865600109100342 9.858359336853027 L5.516327857971191 9.796152114868164"></path>
<path fill="none" stroke="black" stroke-width=".3" stroke-opacity="1.0"  filling="0" d="M5.791728496551514 9.986448287963867 L5.791728496551514 9.986448287963867"></path>
<path fill="none" stroke="black" stroke-width=".3" stroke-opacity="1.0"  filling="0" d="M5.502504825592041 10.10870361328125 L5.504664421081543 9.865272521972656 L5.502504825592041 10.10870361328125"></path>
<path fill="none" stroke="black" stroke-width=".3" stroke-opacity="1.0"  filling="0" d="M5.861928462982178 10.18667984008789 L5.501856803894043 10.19445514678955 L5.861928462982178 10.18667984008789"></path>
<path fill="none" stroke="black" stroke-width=".3" stroke-opacity="1.0"  filling="0" d="M5.5014238357543945 10.271135330200195 L5.5014238357543945 10.271135330200195"></path>
<path fill="none" stroke="black" stroke-width=".3" stroke-opacity="1.0"  filling="0" d="M5.8593363761901855 10.439183235168457 L5.8593363761901855 10.439183235168457"></path>
<path fill="none" stroke="black" stroke-width=".3" stroke-opacity="1.0"  filling="0" d="M5.534904479980469 10.489728927612305 L5.857607841491699 10.515000343322754 L5.534904479980469 10.489728927612305"></path>
<path fill="none" stroke="black" stroke-width=".3" stroke-opacity="1.0"  filling="0" d="M5.856528282165527 10.705512046813965 L5.856528282165527 10.705512046813965"></path>
<path fill="none" stroke="black" stroke-width=".3" stroke-opacity="1.0"  filling="0" d="M5.659968376159668 10.71717643737793 L5.659968376159668 10.71717643737793"></path>
<path fill="none" stroke="black" stroke-width=".3" stroke-opacity="1.0"  filling="0" d="M5.540520191192627 10.718039512634277 L5.540520191192627 10.718039512634277"></path>
<path fill="none" stroke="black" stroke-width=".3" stroke-opacity="1.0"  filling="0" d="M5.76904821395874 10.978320121765137 L5.76904821395874 10.978320121765137"></path>
<path fill="none" stroke="black" stroke-width=".3" stroke-opacity="1.0"  filling="0" d="M5.6532721519470215 10.9791841506958 L5.6532721519470215 10.9791841506958"></path>
<path fill="none" stroke="black" stroke-width=".3" stroke-opacity="1.0"  filling="0" d="M5.4951605796813965 10.980263710021973 L5.4951605796813965 10.980263710021973"></path>
<path fill="none" stroke="black" stroke-width=".3" stroke-opacity="1.0"  filling="0" d="M5.493648052215576 11.173799514770508 L5.844432830810547 11.1871919631958 L5.493648052215576 11.173799514770508"></path>
<path fill="none" stroke="black" stroke-width=".3" stroke-opacity="1.0"  filling="0" d="M18.46639060974121 11.215487480163574 L18.3123836517334 5.533608436584473 L18.701831817626953 5.4614644050598145 L18.46639060974121 11.215487480163574"></path>
<path fill="none" stroke="black" stroke-width=".3" stroke-opacity="1.0"  filling="0" d="M5.738592147827148 11.338824272155762 L5.738592147827148 11.338824272155762"></path>
<path fill="none" stroke="black" stroke-width=".3" stroke-opacity="1.0"  filling="0" d="M5.491488456726074 11.4345121383667 L5.491488456726074 11.4345121383667"></path>
<path fill="none" stroke="black" stroke-width=".3" stroke-opacity="1.0"  filling="0" d="M5.489760398864746 11.61357593536377 L5.489760398864746 11.61357593536377"></path>
<path fill="none" stroke="black" stroke-width=".3" stroke-opacity="1.0"  filling="0" d="M5.6340484619140625 11.633879661560059 L5.682864189147949 11.377920150756836 L5.6340484619140625 11.633879661560059"></path>
<path fill="none" stroke="black" stroke-width=".3" stroke-opacity="1.0"  filling="0" d="M5.690640449523926 11.671895980834961 L5.690640449523926 11.671895980834961"></path>
<path fill="none" stroke="black" stroke-width=".3" stroke-opacity="1.0"  filling="0" d="M5.488032341003418 11.817047119140625 L5.844432830810547 11.871264457702637 L5.488032341003418 11.817047119140625"></path>
<path fill="none" stroke="black" stroke-width=".3" stroke-opacity="1.0"  filling="0" d="M5.843136787414551 11.98034381866455 L5.843136787414551 11.98034381866455"></path>
<path fill="none" stroke="black" stroke-width=".3" stroke-opacity="1.0"  filling="0" d="M5.48673677444458 11.982719421386719 L5.48673677444458 11.982719421386719"></path>
<path fill="none" stroke="black" stroke-width=".3" stroke-opacity="1.0"  filling="0" d="M5.485656261444092 12.110158920288086 L5.485656261444092 12.110158920288086"></path>
<path fill="none" stroke="black" stroke-width=".3" stroke-opacity="1.0"  filling="0" d="M5.840760231018066 12.206280708312988 L5.484576225280762 12.217512130737305 L5.840760231018066 12.206280708312988"></path>
<path fill="none" stroke="black" stroke-width=".3" stroke-opacity="1.0"  filling="0" d="M5.483928203582764 12.293975830078125 L5.483928203582764 12.293975830078125"></path>
<path fill="none" stroke="black" stroke-width=".3" stroke-opacity="1.0"  filling="0" d="M5.838168144226074 12.459431648254395 L5.838168144226074 12.459431648254395"></path>
<path fill="none" stroke="black" stroke-width=".3" stroke-opacity="1.0"  filling="0" d="M5.509416580200195 12.51148796081543 L5.836872100830078 12.570672035217285 L5.509416580200195 12.51148796081543"></path>
<path fill="none" stroke="black" stroke-width=".3" stroke-opacity="1.0"  filling="0" d="M5.835360527038574 12.725760459899902 L5.835360527038574 12.725760459899902"></path>
<path fill="none" stroke="black" stroke-width=".3" stroke-opacity="1.0"  filling="0" d="M5.479608535766602 12.81928825378418 L5.4817681312561035 12.569592475891113 L5.479608535766602 12.81928825378418"></path>
<path fill="none" stroke="black" stroke-width=".3" stroke-opacity="1.0"  filling="0" d="M5.834064483642578 12.849528312683105 L5.488680362701416 12.890352249145508 L5.834064483642578 12.849528312683105"></path>
<path fill="none" stroke="black" stroke-width=".3" stroke-opacity="1.0"  filling="0" d="M5.478312015533447 12.959903717041016 L5.478312015533447 12.959903717041016"></path>
<path fill="none" stroke="black" stroke-width=".3" stroke-opacity="1.0"  filling="0" d="M5.831040382385254 13.12428092956543 L5.831040382385254 13.12428092956543"></path>
<path fill="none" stroke="black" stroke-width=".3" stroke-opacity="1.0"  filling="0" d="M5.476368427276611 13.184544563293457 L5.83017635345459 13.237031936645508 L5.476368427276611 13.184544563293457"></path>
<path fill="none" stroke="black" stroke-width=".3" stroke-opacity="1.0"  filling="0" d="M5.475720405578613 13.260575294494629 L5.475720405578613 13.260575294494629"></path>
<path fill="none" stroke="black" stroke-width=".3" stroke-opacity="1.0"  filling="0" d="M5.828880310058594 13.333367347717285 L5.828880310058594 13.333367347717285"></path>
<path fill="none" stroke="black" stroke-width=".3" stroke-opacity="1.0"  filling="0" d="M5.473992347717285 13.463183403015137 L5.473992347717285 13.463183403015137"></path>
<path fill="none" stroke="black" stroke-width=".3" stroke-opacity="1.0"  filling="0" d="M5.473128795623779 13.555416107177734 L5.827368259429932 13.496231079101562 L5.473128795623779 13.555416107177734"></path>
<path fill="none" stroke="black" stroke-width=".3" stroke-opacity="1.0"  filling="0" d="M5.472480773925781 13.640735626220703 L5.472480773925781 13.640735626220703"></path>
<path fill="none" stroke="black" stroke-width=".3" stroke-opacity="1.0"  filling="0" d="M5.677464485168457 13.703592300415039 L5.677464485168457 13.703592300415039"></path>
<path fill="none" stroke="black" stroke-width=".3" stroke-opacity="1.0"  filling="0" d="M5.470536231994629 13.879631996154785 L5.818727970123291 13.877471923828125 L5.470536231994629 13.879631996154785"></path>
<path fill="none" stroke="black" stroke-width=".3" stroke-opacity="1.0"  filling="0" d="M5.468592166900635 14.119175910949707 L5.468592166900635 14.119175910949707"></path>
<path fill="none" stroke="black" stroke-width=".3" stroke-opacity="1.0"  filling="0" d="M5.820888519287109 14.119607925415039 L5.820888519287109 14.119607925415039"></path>
<path fill="none" stroke="black" stroke-width=".3" stroke-opacity="1.0"  filling="0" d="M5.819591999053955 14.219400405883789 L5.466864109039307 14.266271591186523 L5.819591999053955 14.219400405883789"></path>
<path fill="none" stroke="black" stroke-width=".3" stroke-opacity="1.0"  filling="0" d="M5.554128170013428 14.402999877929688 L5.554128170013428 14.402999877929688"></path>
<path fill="none" stroke="black" stroke-width=".3" stroke-opacity="1.0"  filling="0" d="M5.816784381866455 14.505599975585938 L5.819159984588623 14.297592163085938 L5.816784381866455 14.505599975585938"></path>
<path fill="none" stroke="black" stroke-width=".3" stroke-opacity="1.0"  filling="0" d="M5.464488506317139 14.582927703857422 L5.815920352935791 14.58811092376709 L5.464488506317139 14.582927703857422"></path>
<path fill="none" stroke="black" stroke-width=".3" stroke-opacity="1.0"  filling="0" d="M5.814624309539795 14.723112106323242 L5.814624309539795 14.723112106323242"></path>
<path fill="none" stroke="black" stroke-width=".3" stroke-opacity="1.0"  filling="0" d="M5.463191986083984 14.725272178649902 L5.463191986083984 14.725272178649902"></path>
<path fill="none" stroke="black" stroke-width=".3" stroke-opacity="1.0"  filling="0" d="M5.812680244445801 14.900447845458984 L5.4614644050598145 14.942567825317383 L5.812680244445801 14.900447845458984"></path>
<path fill="none" stroke="black" stroke-width=".3" stroke-opacity="1.0"  filling="0" d="M5.460816383361816 15.019463539123535 L5.460816383361816 15.019463539123535"></path>
<path fill="none" stroke="black" stroke-width=".3" stroke-opacity="1.0"  filling="0" d="M5.809656143188477 15.181031227111816 L5.809656143188477 15.181031227111816"></path>
<path fill="none" stroke="black" stroke-width=".3" stroke-opacity="1.0"  filling="0" d="M5.458656311035156 15.265705108642578 L5.8087921142578125 15.28104019165039 L5.458656311035156 15.265705108642578"></path>
<path fill="none" stroke="black" stroke-width=".3" stroke-opacity="1.0"  filling="0" d="M5.8062005043029785 15.506327629089355 L5.8062005043029785 15.506327629089355"></path>
<path fill="none" stroke="black" stroke-width=".3" stroke-opacity="1.0"  filling="0" d="M5.456496238708496 15.520151138305664 L5.456496238708496 15.520151138305664"></path>
<path fill="none" stroke="black" stroke-width=".3" stroke-opacity="1.0"  filling="0" d="M5.805120468139648 15.619943618774414 L5.454984188079834 15.663790702819824 L5.805120468139648 15.619943618774414"></path>
<path fill="none" stroke="black" stroke-width=".3" stroke-opacity="1.0"  filling="0" d="M5.65543270111084 15.800735473632812 L5.65543270111084 15.800735473632812"></path>
<path fill="none" stroke="black" stroke-width=".3" stroke-opacity="1.0"  filling="0" d="M5.542896747589111 15.801168441772461 L5.542896747589111 15.801168441772461"></path>
<path fill="none" stroke="black" stroke-width=".3" stroke-opacity="1.0"  filling="0" d="M5.452608108520508 15.969646453857422 L5.80123233795166 15.978286743164062 L5.452608108520508 15.969646453857422"></path>
<path fill="none" stroke="black" stroke-width=".3" stroke-opacity="1.0"  filling="0" d="M5.799072265625 16.19126319885254 L5.799072265625 16.19126319885254"></path>
<path fill="none" stroke="black" stroke-width=".3" stroke-opacity="1.0"  filling="0" d="M5.601432800292969 16.193639755249023 L5.601432800292969 16.193639755249023"></path>
<path fill="none" stroke="black" stroke-width=".3" stroke-opacity="1.0"  filling="0" d="M5.487384796142578 16.19536590576172 L5.487384796142578 16.19536590576172"></path>
<path fill="none" stroke="black" stroke-width=".3" stroke-opacity="1.0"  filling="0" d="M5.717208385467529 16.383071899414062 L5.4627604484558105 16.38631248474121 L5.717208385467529 16.383071899414062"></path>
<path fill="none" stroke="black" stroke-width=".3" stroke-opacity="1.0"  filling="0" d="M5.79691219329834 16.405536651611328 L5.79475212097168 16.613327026367188 L5.79691219329834 16.405536651611328"></path>
<path fill="none" stroke="black" stroke-width=".3" stroke-opacity="1.0"  filling="0" d="M5.5318803787231445 16.510944366455078 L5.5318803787231445 16.510944366455078"></path>
<path fill="none" stroke="black" stroke-width=".3" stroke-opacity="1.0"  filling="0" d="M5.446560382843018 16.6895751953125 L5.793672561645508 16.720462799072266 L5.446560382843018 16.6895751953125"></path>
<path fill="none" stroke="black" stroke-width=".3" stroke-opacity="1.0"  filling="0" d="M5.694960117340088 16.865184783935547 L5.694960117340088 16.865184783935547"></path>
<path fill="none" stroke="black" stroke-width=".3" stroke-opacity="1.0"  filling="0" d="M5.443968296051025 16.960437774658203 L5.443968296051025 16.960437774658203"></path>
<path fill="none" stroke="black" stroke-width=".3" stroke-opacity="1.0"  filling="0" d="M5.7897844314575195 17.08377456665039 L5.443320274353027 17.037982940673828 L5.7897844314575195 17.08377456665039"></path>
<path fill="none" stroke="black" stroke-width=".3" stroke-opacity="1.0"  filling="0" d="M5.442240238189697 17.18529510498047 L5.442240238189697 17.18529510498047"></path>
<path fill="none" stroke="black" stroke-width=".3" stroke-opacity="1.0"  filling="0" d="M5.65543270111084 17.254199981689453 L5.65543270111084 17.254199981689453"></path>
<path fill="none" stroke="black" stroke-width=".3" stroke-opacity="1.0"  filling="0" d="M5.785248279571533 17.52311897277832 L5.785248279571533 17.52311897277832"></path>
<path fill="none" stroke="black" stroke-width=".3" stroke-opacity="1.0"  filling="0" d="M5.607048034667969 17.524198532104492 L5.599055767059326 17.292861938476562 L5.607048034667969 17.524198532104492"></path>
<path fill="none" stroke="black" stroke-width=".3" stroke-opacity="1.0"  filling="0" d="M5.439216136932373 17.525497436523438 L5.439216136932373 17.525497436523438"></path>
<path fill="none" stroke="black" stroke-width=".3" stroke-opacity="1.0"  filling="0" d="M5.438136100769043 17.652719497680664 L5.438136100769043 17.652719497680664"></path>
<path fill="none" stroke="black" stroke-width=".3" stroke-opacity="1.0"  filling="0" d="M5.437488079071045 17.74732780456543 L5.783304214477539 17.724430084228516 L5.437488079071045 17.74732780456543"></path>
<path fill="none" stroke="black" stroke-width=".3" stroke-opacity="1.0"  filling="0" d="M5.782008171081543 17.827896118164062 L5.780064105987549 18.030933380126953 L5.782008171081543 17.827896118164062"></path>
<path fill="none" stroke="black" stroke-width=".3" stroke-opacity="1.0"  filling="0" d="M5.520864009857178 17.93114471435547 L5.520864009857178 17.93114471435547"></path>
<path fill="none" stroke="black" stroke-width=".3" stroke-opacity="1.0"  filling="0" d="M5.434464454650879 18.097248077392578 L5.778768062591553 18.1287841796875 L5.434464454650879 18.097248077392578"></path>
<path fill="none" stroke="black" stroke-width=".3" stroke-opacity="1.0"  filling="0" d="M5.682432174682617 18.2730712890625 L5.682432174682617 18.2730712890625"></path>
<path fill="none" stroke="black" stroke-width=".3" stroke-opacity="1.0"  filling="0" d="M5.432088375091553 18.369407653808594 L5.432088375091553 18.369407653808594"></path>
<path fill="none" stroke="black" stroke-width=".3" stroke-opacity="1.0"  filling="0" d="M5.775312423706055 18.465742111206055 L5.4310078620910645 18.5026798248291 L5.775312423706055 18.465742111206055"></path>
<path fill="none" stroke="black" stroke-width=".3" stroke-opacity="1.0"  filling="0" d="M5.430144309997559 18.579143524169922 L5.430144309997559 18.579143524169922"></path>
<path fill="none" stroke="black" stroke-width=".3" stroke-opacity="1.0"  filling="0" d="M5.633184432983398 18.640918731689453 L5.633184432983398 18.640918731689453"></path>
<path fill="none" stroke="black" stroke-width=".3" stroke-opacity="1.0"  filling="0" d="M5.427552700042725 18.894935607910156 L5.427552700042725 18.894935607910156"></path>
<path fill="none" stroke="black" stroke-width=".3" stroke-opacity="1.0"  filling="0" d="M5.591928005218506 18.93035888671875 L5.577023983001709 18.679584503173828 L5.591928005218506 18.93035888671875"></path>
<path fill="none" stroke="black" stroke-width=".3" stroke-opacity="1.0"  filling="0" d="M5.770344257354736 18.93035888671875 L5.770344257354736 18.93035888671875"></path>
<path fill="none" stroke="black" stroke-width=".3" stroke-opacity="1.0"  filling="0" d="M5.5647125244140625 19.313758850097656 L5.425824165344238 19.1323184967041 L5.768400192260742 19.128000259399414 L5.5647125244140625 19.313758850097656"></path>
<path fill="none" stroke="black" stroke-width=".3" stroke-opacity="1.0"  filling="0" d="M5.5647125244140625 19.391088485717773 L5.5647125244140625 19.65741539001465 L5.5647125244140625 19.391088485717773"></path>
<path fill="none" stroke="black" stroke-width=".3" stroke-opacity="1.0"  filling="0" d="M5.423232078552246 19.411609649658203 L5.423232078552246 19.411609649658203"></path>
<path fill="none" stroke="black" stroke-width=".3" stroke-opacity="1.0"  filling="0" d="M5.764944553375244 19.45092010498047 L5.764944553375244 19.45092010498047"></path>
<path fill="none" stroke="black" stroke-width=".3" stroke-opacity="1.0"  filling="0" d="M5.421288013458252 19.636680603027344 L5.421288013458252 19.636680603027344"></path>
<path fill="none" stroke="black" stroke-width=".3" stroke-opacity="1.0"  filling="0" d="M5.761488437652588 19.792415618896484 L5.761488437652588 19.792415618896484"></path>
<path fill="none" stroke="black" stroke-width=".3" stroke-opacity="1.0"  filling="0" d="M5.760408878326416 19.901065826416016 L5.419560432434082 19.83518409729004 L5.760408878326416 19.901065826416016"></path>
<path fill="none" stroke="black" stroke-width=".3" stroke-opacity="1.0"  filling="0" d="M5.41804838180542 20.012950897216797 L5.41804838180542 20.012950897216797"></path>
<path fill="none" stroke="black" stroke-width=".3" stroke-opacity="1.0"  filling="0" d="M5.7576003074646 20.1676082611084 L5.7576003074646 20.1676082611084"></path>
<path fill="none" stroke="black" stroke-width=".3" stroke-opacity="1.0"  filling="0" d="M5.7567362785339355 20.247528076171875 L5.41588830947876 20.2781982421875 L5.7567362785339355 20.247528076171875"></path>
<path fill="none" stroke="black" stroke-width=".3" stroke-opacity="1.0"  filling="0" d="M5.415240287780762 20.35487937927246 L5.415240287780762 20.35487937927246"></path>
<path fill="none" stroke="black" stroke-width=".3" stroke-opacity="1.0"  filling="0" d="M5.7539286613464355 20.509536743164062 L5.7539286613464355 20.509536743164062"></path>
<path fill="none" stroke="black" stroke-width=".3" stroke-opacity="1.0"  filling="0" d="M5.4618964195251465 20.52832794189453 L5.668824195861816 20.52832794189453 L5.4618964195251465 20.52832794189453"></path>
<path fill="none" stroke="black" stroke-width=".3" stroke-opacity="1.0"  filling="0" d="M5.513304233551025 20.65555191040039 L5.513304233551025 20.65555191040039"></path>
<path fill="none" stroke="black" stroke-width=".3" stroke-opacity="1.0"  filling="0" d="M5.645279884338379 20.745624542236328 L5.645279884338379 20.745624542236328"></path>
<path fill="none" stroke="black" stroke-width=".3" stroke-opacity="1.0"  filling="0" d="M5.508552074432373 20.76268768310547 L5.508552074432373 20.76268768310547"></path>
<path fill="none" stroke="black" stroke-width=".3" stroke-opacity="1.0"  filling="0" d="M5.681568145751953 20.88105583190918 L5.681568145751953 20.88105583190918"></path>
<path fill="none" stroke="black" stroke-width=".3" stroke-opacity="1.0"  filling="0" d="M5.410272121429443 20.91280746459961 L5.733408451080322 20.95147132873535 L5.410272121429443 20.91280746459961"></path>
<path fill="none" stroke="black" stroke-width=".3" stroke-opacity="1.0"  filling="0" d="M5.409192085266113 21.038951873779297 L5.409192085266113 21.038951873779297"></path>
<path fill="none" stroke="black" stroke-width=".3" stroke-opacity="1.0"  filling="0" d="M5.6208720207214355 21.106128692626953 L5.6208720207214355 21.106128692626953"></path>
<path fill="none" stroke="black" stroke-width=".3" stroke-opacity="1.0"  filling="0" d="M5.5647125244140625 21.145008087158203 L5.5647125244140625 21.145008087158203"></path></svg>