<svg xmlns="http://www.w3.org/2000/svg" viewBox="0.0 0.0 24.0 24.0" height="200px" width="200px"><path fill="none" stroke="black" stroke-width=".3" stroke-opacity="1.0"  filling="0" d="M19.13858413696289 1.8667926788330078 L19.13858413696289 1.8667926788330078 C19.546823501586914 2.2750322818756104 19.95506477355957 2.683272123336792 20.363304138183594 3.0915117263793945 L20.363304138183594 9.030359268188477 L20.363304138183594 14.969207763671875 L20.363304138183594 20.90805435180664 C19.95506477355957 21.316295623779297 19.546823501586914 21.72453498840332 19.13858413696289 22.132776260375977 L12.220643997192383 22.132776260375977 L5.302703857421875 22.132776260375977 C4.894536018371582 21.72453498840332 4.486368179321289 21.316295623779297 4.078200340270996 20.90805435180664 L4.078200340270996 14.969135284423828 L4.078200340270996 9.030216217041016 L4.078200340270996 3.0912961959838867 C4.486368179321289 2.6831283569335938 4.894536018371582 2.274960517883301 5.302703857421875 1.8667926788330078 L12.220643997192383 1.8667926788330078 L19.13858413696289 1.8667926788330078"></path>
<path fill="none" stroke="black" stroke-width=".3" stroke-opacity="1.0"  filling="0" d="M6.022200584411621 3.8107919692993164 L12.220752716064453 3.8107919692993164 L18.41930389404297 3.8107919692993164 L18.41930389404297 9.27019214630127 L18.41930389404297 14.729591369628906 L18.41930389404297 20.18899154663086 L12.220752716064453 20.18899154663086 L6.022200584411621 20.18899154663086 L6.022200584411621 14.729591369628906 L6.022200584411621 9.27019214630127 L6.022200584411621 3.8107919692993164"></path>
<path fill="none" stroke="black" stroke-width=".3" stroke-opacity="1.0"  filling="0" d="M18.41930389404297 20.18899154663086 L12.220752716064453 20.18899154663086 L6.022200584411621 20.18899154663086 L6.022200584411621 14.729591369628906 L6.022200584411621 9.27019214630127 L6.022200584411621 3.8107919692993164 L12.220752716064453 3.8107919692993164 L18.41930389404297 3.8107919692993164 L18.41930389404297 9.27019214630127 L18.41930389404297 14.729591369628906 L18.41930389404297 20.18899154663086"></path>
<path fill="none" stroke="black" stroke-width=".3" stroke-opacity="1.0"  filling="0" d="M12.220536231994629 21.728424072265625 L12.220536231994629 21.728424072265625 C10.736632347106934 20.244518280029297 13.704806327819824 20.244659423828125 12.220536231994629 21.728424072265625 L12.220536231994629 21.728424072265625"></path></svg>