<svg xmlns="http://www.w3.org/2000/svg" viewBox="0.0 0.0 24.0 24.0" height="200px" width="200px"><path fill="none" stroke="black" stroke-width=".3" stroke-opacity="1.0"  filling="0" d="M4.951704025268555 7.8420000076293945 L12.000107765197754 7.8420000076293945 L19.048511505126953 7.8420000076293945 L19.048511505126953 12.136835098266602 L19.048511505126953 16.431671142578125 L12.000107765197754 16.431671142578125 L4.951704025268555 16.431671142578125 L4.951704025268555 12.136835098266602 L4.951704025268555 7.8420000076293945"></path>
<path fill="none" stroke="black" stroke-width=".3" stroke-opacity="1.0"  filling="0" d="M19.656551361083984 16.764095306396484 L22.16387939453125 16.764095306396484 L22.16387939453125 17.36738395690918 L20.548198699951172 18.160751342773438 L14.849255561828613 18.160751342773438 L9.150312423706055 18.160751342773438 L3.4513683319091797 18.160751342773438 L1.835688591003418 17.36738395690918 L1.835688591003418 16.764095306396484 L4.34323263168335 16.764095306396484 L4.34323263168335 12.28458023071289 L4.34323263168335 7.8050642013549805 C4.533672332763672 7.6146240234375 4.724112033843994 7.424184322357178 4.914551734924316 7.233744144439697 L11.99989128112793 7.233744144439697 L19.08523178100586 7.233744144439697 C19.275671005249023 7.424184322357178 19.46611213684082 7.6146240234375 19.656551361083984 7.8050642013549805 L19.656551361083984 12.28458023071289 L19.656551361083984 16.764095306396484"></path>
<path fill="none" stroke="black" stroke-width=".3" stroke-opacity="1.0"  filling="0" d="M2.8832883834838867 17.85403060913086 L8.96109676361084 17.85403060913086 L15.038904190063477 17.85403060913086 L21.11671257019043 17.85403060913086 L20.491825103759766 18.160537719726562 L14.830536842346191 18.160537719726562 L9.169249534606934 18.160537719726562 L3.5079612731933594 18.160537719726562 L2.8832883834838867 17.85403060913086"></path>
<path fill="none" stroke="black" stroke-width=".3" stroke-opacity="1.0"  filling="0" d="M20.491825103759766 17.91731834411621 L14.830536842346191 17.917320251464844 L9.169249534606934 17.917320251464844 L3.5079612731933594 17.91731834411621 L2.8832883834838867 17.610599517822266 L8.96109676361084 17.610599517822266 L15.038904190063477 17.610599517822266 L21.11671257019043 17.610599517822266 L20.491825103759766 17.91731834411621"></path>
<path fill="none" stroke="black" stroke-width=".3" stroke-opacity="1.0"  filling="0" d="M3.5079612731933594 18.160537719726562 L2.8832883834838867 17.85403060913086 L8.96109676361084 17.85403060913086 L15.038904190063477 17.85403060913086 L21.11671257019043 17.85403060913086 L20.491825103759766 18.160537719726562 L14.830536842346191 18.160537719726562 L9.169249534606934 18.160537719726562 L3.5079612731933594 18.160537719726562"></path></svg>