<svg xmlns="http://www.w3.org/2000/svg" viewBox="0.0 0.0 24.0 24.0" height="200px" width="200px"><path fill="none" stroke="black" stroke-width=".3" stroke-opacity="1.0"  filling="0" d="M82.10832214355469 111.3135757446289 L82.89014434814453 111.79534912109375 L82.77888488769531 112.78691101074219 L83.451171875 113.42449188232422 L83.10803985595703 114.81184387207031 L83.74334716796875 115.45362091064453 C83.04518127441406 117.6927261352539 82.60519409179688 120.30279541015625 81.57811737060547 122.40408325195312 C80.94686889648438 123.695556640625 79.97488403320312 124.68961334228516 78.8753890991211 125.54641723632812 C77.77589416503906 126.40322875976562 76.54888153076172 127.12278747558594 75.4075698852539 127.8652572631836 C74.1295166015625 128.69668579101562 72.85614776611328 129.53533935546875 71.58531188964844 130.3778533935547 C70.31448364257812 131.22036743164062 69.04620361328125 132.0667266845703 67.77832794189453 132.91355895996094 L64.05625915527344 132.91355895996094 L64.05625915527344 129.9876708984375 C65.11068725585938 129.29835510253906 66.16413116455078 128.60723876953125 67.2139892578125 127.9107437133789 C68.26385498046875 127.2142562866211 69.31013488769531 126.51239013671875 70.3502426147461 125.80158233642578 C71.4542007446289 125.0471420288086 72.7699966430664 124.50699615478516 73.6148681640625 123.4706039428711 C74.77983093261719 122.04155731201172 74.61006164550781 119.50373077392578 75.04280853271484 117.78999328613281 C75.4489517211914 116.1816177368164 76.17943572998047 115.24404907226562 77.35773468017578 114.11936950683594 L77.35773468017578 114.11936950683594 C77.6539306640625 114.89984130859375 77.43692016601562 115.84029388427734 77.11946105957031 116.61236572265625 L77.10814666748047 117.2677001953125 L80.44742584228516 111.98759460449219 L81.37726593017578 112.06070709228516 L82.10832214355469 111.3135757446289"></path>
<path fill="none" stroke="black" stroke-width=".3" stroke-opacity="1.0"  filling="0" d="M84.0166244506836 111.38540649414062 L84.80415344238281 111.86581420898438 L84.6879653930664 112.85256958007812 L85.35931396484375 113.50170135498047 L85.02364349365234 114.87798309326172 L85.65625762939453 115.5271224975586 C84.93389892578125 117.83700561523438 84.29727172851562 120.19317626953125 83.48729705810547 122.47329711914062 C83.18766021728516 123.3167953491211 82.46475219726562 123.99066925048828 82.26080322265625 124.86225891113281 C82.13060760498047 125.41864776611328 82.3638916015625 126.00830078125 82.29950714111328 126.57608032226562 C82.06243896484375 128.66661071777344 81.55509948730469 130.78028869628906 81.35704040527344 132.91355895996094 L75.99711608886719 132.91355895996094 C76.17814636230469 131.24757385253906 76.34932708740234 129.58094787597656 76.51560974121094 127.91340637207031 L76.51560974121094 127.91340637207031 C77.61940002441406 127.24763488769531 78.71981048583984 126.55183410644531 79.69607543945312 125.71957397460938 C80.67233276367188 124.88731384277344 81.52445983886719 123.91859436035156 82.13166809082031 122.70700073242188 C83.17314147949219 120.62891387939453 83.59650421142578 117.98783874511719 84.2877197265625 115.7608642578125 L84.41682434082031 115.3713150024414 L83.74547576904297 114.77410888671875 L84.09406280517578 113.33293914794922 L83.33234405517578 112.61882019042969 L83.46145629882812 111.96968841552734 L84.01660919189453 111.38540649414062"></path></svg>