<svg xmlns="http://www.w3.org/2000/svg" viewBox="0.0 0.0 24.0 24.0" height="200px" width="200px"><path fill="none" stroke="black" stroke-width=".3" stroke-opacity="1.0"  filling="0" d="M13.871999740600586 2.8559999465942383 L13.871999740600586 2.8559999465942383 C16.094066619873047 3.4943556785583496 17.803987503051758 4.561922073364258 19.039432525634766 6.037116050720215 C20.274877548217773 7.512310028076172 21.035844802856445 9.395132064819336 21.360000610351562 11.663999557495117 L21.360000610351562 11.663999557495117 C19.84718894958496 10.978559494018555 18.442148208618164 10.146318435668945 17.46525001525879 8.73449993133545 C16.034257888793945 6.666421890258789 15.712096214294434 4.650485992431641 13.871999740600586 2.8559999465942383 L13.871999740600586 2.8559999465942383"></path>
<path fill="none" stroke="black" stroke-width=".3" stroke-opacity="1.0"  filling="0" d="M2.9519996643066406 9.863999366760254 L2.9519996643066406 9.863999366760254 C3.4204578399658203 8.347085952758789 3.9653372764587402 7.0743327140808105 5.036159992218018 5.843519687652588 C5.897383213043213 4.8536224365234375 6.979908466339111 4.0489935874938965 8.173439979553223 3.5049595832824707 C8.772594451904297 3.231853723526001 9.403881072998047 3.019664764404297 10.04736042022705 2.8799996376037598 C10.997726440429688 2.6737260818481445 12.070741653442383 2.3183469772338867 12.960000038146973 2.7119998931884766 C15.301738739013672 3.748629570007324 15.673079490661621 6.8040995597839355 16.90617561340332 8.700096130371094 C17.95777130126953 10.31701946258545 19.58780860900879 11.405827522277832 21.33599853515625 12.119999885559082 L21.33599853515625 12.119999885559082 C21.161212921142578 14.116050720214844 20.607505798339844 15.792661666870117 19.651348114013672 17.19695472717285 C18.6951904296875 18.601245880126953 17.336584091186523 19.73322105407715 15.552000045776367 20.639999389648438 L15.552000045776367 20.639999389648438 C15.417911529541016 19.39927864074707 15.412104606628418 18.574735641479492 14.835555076599121 17.365333557128906 C13.923750877380371 15.452682495117188 12.796428680419922 14.721158981323242 11.470132827758789 14.337175369262695 C10.143837928771973 13.953189849853516 8.618569374084473 13.916744232177734 6.910874843597412 13.39424991607666 C4.977035045623779 12.802562713623047 3.9584479331970215 11.480945587158203 2.9519996643066406 9.863999366760254 L2.9519996643066406 9.863999366760254"></path>
<path fill="none" stroke="black" stroke-width=".3" stroke-opacity="1.0"  filling="0" d="M2.8319997787475586 10.51200008392334 L2.8319997787475586 10.51200008392334 C3.932629346847534 12.051270484924316 5.0230183601379395 13.298297882080078 6.939374923706055 13.849874496459961 C8.593137741088867 14.3258695602417 10.063627243041992 14.346536636352539 11.331231117248535 14.714637756347656 C12.598835945129395 15.082738876342773 13.663555145263672 15.798272132873535 14.505778312683105 17.663999557495117 C15.010868072509766 18.78289794921875 15.029789924621582 19.643564224243164 15.143999099731445 20.784000396728516 L15.143999099731445 20.784000396728516 C13.413783073425293 21.22160530090332 11.64792537689209 21.273130416870117 10.009260177612305 20.939380645751953 C8.370594024658203 20.60563087463379 6.859119892120361 19.88660430908203 5.637669563293457 18.78310775756836 C4.416219234466553 17.679609298706055 3.484792709350586 16.191638946533203 3.0062222480773926 14.320000648498535 C2.580223798751831 12.653965950012207 2.736870765686035 12.211143493652344 2.8319997787475586 10.51200008392334 L2.8319997787475586 10.51200008392334"></path>
<path fill="none" stroke="black" stroke-width=".3" stroke-opacity="1.0"  filling="0" d="M21.4320011138916 11.855999946594238 L21.4320011138916 11.855999946594238 C21.423999786376953 11.855999946594238 21.416000366210938 11.855999946594238 21.40799903869629 11.855999946594238 L21.40799903869629 11.855999946594238 C19.86566162109375 11.186013221740723 18.422134399414062 10.340885162353516 17.415374755859375 8.926499366760254 C16.897626876831055 8.19912052154541 16.566450119018555 7.3549275398254395 16.176000595092773 6.551999568939209 C15.722293853759766 5.618988513946533 15.350332260131836 4.60922908782959 14.663110733032227 3.8319995403289795 C14.308492660522461 3.430935859680176 13.342707633972168 3.219883918762207 13.51200008392334 2.7119998931884766 C13.66430377960205 2.2550835609436035 16.5097713470459 3.676691770553589 16.583999633789062 3.719999313354492 C17.735733032226562 4.3919548988342285 18.736093521118164 5.260725498199463 19.5272216796875 6.28830623626709 C20.318347930908203 7.315886497497559 20.90024185180664 8.502277374267578 21.215038299560547 9.80947208404541 C21.375856399536133 10.477269172668457 21.673198699951172 11.204355239868164 21.45600128173828 11.855999946594238 L21.45600128173828 11.855999946594238 C21.448001861572266 11.855999946594238 21.440000534057617 11.855999946594238 21.4320011138916 11.855999946594238 L21.4320011138916 11.855999946594238"></path>
<path fill="none" stroke="black" stroke-width=".3" stroke-opacity="1.0"  filling="0" d="M15.503999710083008 20.807998657226562 L15.503999710083008 20.807998657226562 C15.086216926574707 20.599119186401367 15.397366523742676 19.878629684448242 15.30222225189209 19.42133331298828 C14.95425796508789 17.74888801574707 14.654703140258789 16.887876510620117 13.51200008392334 15.527999877929688 C12.370645523071289 14.169727325439453 10.724387168884277 13.899091720581055 9.032964706420898 13.656990051269531 C7.3415422439575195 13.414887428283691 5.604955673217773 13.201319694519043 4.2829437255859375 11.957183837890625 C2.126138925552368 9.927430152893066 2.9503698348999023 8.17928695678711 4.694110870361328 6.02555513381958 C5.722381114959717 4.755516529083252 6.996710777282715 3.8501968383789062 8.413043975830078 3.2828524112701416 C9.829377174377441 2.715507984161377 11.387714385986328 2.486138343811035 12.984000205993652 2.567999839782715 L12.984000205993652 2.567999839782715 C12.991999626159668 2.567999839782715 13.0 2.567999839782715 13.007999420166016 2.567999839782715 L13.007999420166016 2.567999839782715 C14.201250076293945 3.480889320373535 14.869824409484863 4.522028923034668 15.45508098602295 5.62798547744751 C16.04033660888672 6.733942031860352 16.542274475097656 7.9047160148620605 17.402250289916992 9.076874732971191 C18.280994415283203 10.274615287780762 19.391223907470703 10.971711158752441 20.65275001525879 11.65162467956543 C20.92828369140625 11.800126075744629 21.515932083129883 11.735223770141602 21.50400161743164 12.04800033569336 C21.452301025390625 13.403343200683594 21.166034698486328 14.710721015930176 20.634952545166016 15.906449317932129 C20.103870391845703 17.102176666259766 19.327970504760742 18.186256408691406 18.297000885009766 19.094999313354492 C17.477693557739258 19.817174911499023 16.27630043029785 20.03575897216797 15.503999710083008 20.807998657226562 L15.503999710083008 20.807998657226562"></path>
<path fill="none" stroke="black" stroke-width=".3" stroke-opacity="1.0"  filling="0" d="M12.02400016784668 21.479999542236328 L12.02400016784668 21.479999542236328 C10.189420700073242 21.323843002319336 8.465484619140625 20.843368530273438 6.994162559509277 19.965293884277344 C5.522839546203613 19.08721923828125 4.304129600524902 17.811548233032227 3.4800000190734863 16.064998626708984 C2.9253463745117188 14.88953971862793 2.612708330154419 13.59233283996582 2.5795555114746094 12.292332649230957 C2.5618720054626465 11.598921775817871 2.123800039291382 10.338029861450195 2.807999610900879 10.223999977111816 C3.3520865440368652 10.133320808410645 3.3974993228912354 11.161969184875488 3.761249542236328 11.576624870300293 C4.1563191413879395 12.026982307434082 4.589332103729248 12.456986427307129 5.0879998207092285 12.788999557495117 C6.2196197509765625 13.54243278503418 7.455676078796387 13.72146224975586 8.69179916381836 13.871993064880371 C9.927923202514648 14.022523880004883 11.16411304473877 14.14455795288086 12.296000480651855 14.784000396728516 C14.09831428527832 15.802189826965332 14.831775665283203 17.73929214477539 15.20977783203125 19.660442352294922 C15.291422843933105 20.07539176940918 15.669873237609863 20.809188842773438 15.263999938964844 20.92799949645996 C14.212560653686523 21.23578453063965 13.115525245666504 21.38603973388672 12.02400016784668 21.479999542236328 L12.02400016784668 21.479999542236328"></path></svg>