<svg xmlns="http://www.w3.org/2000/svg" viewBox="0.0 0.0 24.0 24.0" height="200px" width="200px"><path fill="none" stroke="black" stroke-width=".3" stroke-opacity="1.0"  filling="0" d="M15.791999816894531 9.743999481201172 L15.791999816894531 9.743999481201172 C17.433258056640625 8.219975471496582 19.831636428833008 8.184139251708984 21.45600128173828 9.743999481201172 L21.45600128173828 9.743999481201172 C21.45600128173828 9.751999855041504 21.45600128173828 9.760000228881836 21.45600128173828 9.768000602722168 L21.45600128173828 10.319999694824219 C19.840822219848633 11.871040344238281 17.40717887878418 11.871040344238281 15.791999816894531 10.319999694824219 L15.791999816894531 9.743999481201172"></path>
<path fill="none" stroke="black" stroke-width=".3" stroke-opacity="1.0"  filling="0" d="M18.624000549316406 12.02400016784668 L18.624000549316406 12.02400016784668 C19.6267032623291 11.85937786102295 20.726926803588867 11.603787422180176 21.45600128173828 10.895999908447266 L21.45600128173828 11.472000122070312 C19.840822219848633 13.023040771484375 17.40717887878418 13.023039817810059 15.791999816894531 11.472000122070312 L15.791999816894531 10.895999908447266 C16.524913787841797 11.599810600280762 17.621416091918945 11.858656883239746 18.624000549316406 12.02400016784668 L18.624000549316406 12.02400016784668"></path>
<path fill="none" stroke="black" stroke-width=".3" stroke-opacity="1.0"  filling="0" d="M9.191999435424805 13.151999473571777 L9.191999435424805 13.151999473571777 C10.807180404663086 11.600960731506348 13.24082088470459 11.600961685180664 14.856000900268555 13.151999473571777 L14.856000900268555 13.151999473571777 C14.856000900268555 13.15999984741211 14.856000900268555 13.168000221252441 14.856000900268555 13.176000595092773 L14.856000900268555 13.727999687194824 C13.240819931030273 15.279040336608887 10.807181358337402 15.279040336608887 9.191999435424805 13.727999687194824 L9.191999435424805 13.151999473571777"></path>
<path fill="none" stroke="black" stroke-width=".3" stroke-opacity="1.0"  filling="0" d="M18.624000549316406 13.151999473571777 L18.624000549316406 13.151999473571777 C19.6267032623291 12.987377166748047 20.726926803588867 12.73178768157959 21.45600128173828 12.02400016784668 L21.45600128173828 12.600000381469727 C19.840822219848633 14.151039123535156 17.40717887878418 14.151039123535156 15.791999816894531 12.600000381469727 L15.791999816894531 12.02400016784668 C16.524913787841797 12.72780990600586 17.621416091918945 12.986656188964844 18.624000549316406 13.151999473571777 L18.624000549316406 13.151999473571777"></path>
<path fill="none" stroke="black" stroke-width=".3" stroke-opacity="1.0"  filling="0" d="M18.624000549316406 14.280000686645508 L18.624000549316406 14.280000686645508 C19.6267032623291 14.115378379821777 20.726926803588867 13.859786987304688 21.45600128173828 13.151999473571777 L21.45600128173828 13.727999687194824 C19.840822219848633 15.279040336608887 17.40717887878418 15.279040336608887 15.791999816894531 13.727999687194824 L15.791999816894531 13.151999473571777 C16.524913787841797 13.855810165405273 17.621416091918945 14.114657402038574 18.624000549316406 14.280000686645508 L18.624000549316406 14.280000686645508"></path>
<path fill="none" stroke="black" stroke-width=".3" stroke-opacity="1.0"  filling="0" d="M2.5439987182617188 15.407999992370605 L2.5439987182617188 15.407999992370605 C4.176877021789551 13.875335693359375 6.588140487670898 13.852468490600586 8.208000183105469 15.407999992370605 L8.208000183105469 15.407999992370605 C8.208000183105469 15.416000366210938 8.208000183105469 15.423999786376953 8.208000183105469 15.432000160217285 L8.208000183105469 15.983999252319336 C6.592819690704346 17.535037994384766 4.1591796875 17.535037994384766 2.5439987182617188 15.983999252319336 L2.5439987182617188 15.407999992370605"></path>
<path fill="none" stroke="black" stroke-width=".3" stroke-opacity="1.0"  filling="0" d="M18.624000549316406 15.407999992370605 L18.624000549316406 15.407999992370605 C19.624046325683594 15.245306015014648 20.719694137573242 14.99999713897705 21.45600128173828 14.303998947143555 L21.45600128173828 14.880001068115234 C19.8408203125 16.431041717529297 17.407180786132812 16.431041717529297 15.791999816894531 14.880001068115234 L15.791999816894531 14.280000686645508 C16.524913787841797 14.983810424804688 17.621416091918945 15.242656707763672 18.624000549316406 15.407999992370605 L18.624000549316406 15.407999992370605"></path>
<path fill="none" stroke="black" stroke-width=".3" stroke-opacity="1.0"  filling="0" d="M12.02400016784668 15.432000160217285 L12.02400016784668 15.432000160217285 C13.026583671569824 15.266656875610352 14.123085975646973 15.00780963897705 14.856000900268555 14.303998947143555 L14.856000900268555 14.880001068115234 C13.240819931030273 16.431039810180664 10.807182312011719 16.431041717529297 9.191999435424805 14.880001068115234 L9.191999435424805 14.303998947143555 C9.924914360046387 15.00780963897705 11.021416664123535 15.266656875610352 12.02400016784668 15.432000160217285 L12.02400016784668 15.432000160217285"></path>
<path fill="none" stroke="black" stroke-width=".3" stroke-opacity="1.0"  filling="0" d="M12.02400016784668 16.560001373291016 L12.02400016784668 16.560001373291016 C13.026583671569824 16.394657135009766 14.123085975646973 16.13581085205078 14.856000900268555 15.432000160217285 L14.856000900268555 16.00800132751465 C13.240819931030273 17.559038162231445 10.807180404663086 17.559038162231445 9.191999435424805 16.00800132751465 L9.191999435424805 15.432000160217285 C9.924914360046387 16.13581085205078 11.021416664123535 16.394657135009766 12.02400016784668 16.560001373291016 L12.02400016784668 16.560001373291016"></path>
<path fill="none" stroke="black" stroke-width=".3" stroke-opacity="1.0"  filling="0" d="M18.624000549316406 16.560001373291016 L18.624000549316406 16.560001373291016 C19.626585006713867 16.394657135009766 20.723087310791016 16.13581085205078 21.45600128173828 15.432000160217285 L21.45600128173828 16.00800132751465 C19.840822219848633 17.559038162231445 17.407180786132812 17.559038162231445 15.791999816894531 16.00800132751465 L15.791999816894531 15.432000160217285 C16.524913787841797 16.13581085205078 17.621416091918945 16.394657135009766 18.624000549316406 16.560001373291016 L18.624000549316406 16.560001373291016"></path>
<path fill="none" stroke="black" stroke-width=".3" stroke-opacity="1.0"  filling="0" d="M5.375999450683594 17.687999725341797 L5.375999450683594 17.687999725341797 C6.378462791442871 17.521928787231445 7.471308708190918 17.259857177734375 8.208000183105469 16.560001373291016 L8.208000183105469 17.13599967956543 C6.592820167541504 18.68703842163086 4.159178733825684 18.68703842163086 2.5439987182617188 17.13599967956543 L2.5439987182617188 16.560001373291016 C3.276914358139038 17.263809204101562 4.373415946960449 17.522655487060547 5.375999450683594 17.687999725341797 L5.375999450683594 17.687999725341797"></path>
<path fill="none" stroke="black" stroke-width=".3" stroke-opacity="1.0"  filling="0" d="M12.02400016784668 17.687999725341797 L12.02400016784668 17.687999725341797 C13.026583671569824 17.522655487060547 14.123085021972656 17.263811111450195 14.856000900268555 16.560001373291016 L14.856000900268555 17.13599967956543 C13.24082088470459 18.68703842163086 10.807178497314453 18.68703842163086 9.191999435424805 17.13599967956543 L9.191999435424805 16.560001373291016 C9.924915313720703 17.263811111450195 11.021416664123535 17.522655487060547 12.02400016784668 17.687999725341797 L12.02400016784668 17.687999725341797"></path>
<path fill="none" stroke="black" stroke-width=".3" stroke-opacity="1.0"  filling="0" d="M18.624000549316406 17.687999725341797 L18.624000549316406 17.687999725341797 C19.626583099365234 17.522655487060547 20.723085403442383 17.263811111450195 21.45600128173828 16.560001373291016 L21.45600128173828 17.13599967956543 C19.840822219848633 18.68703842163086 17.407176971435547 18.68703842163086 15.791999816894531 17.13599967956543 L15.791999816894531 16.560001373291016 C16.52491569519043 17.263811111450195 17.621417999267578 17.522655487060547 18.624000549316406 17.687999725341797 L18.624000549316406 17.687999725341797"></path></svg>