<svg xmlns="http://www.w3.org/2000/svg" viewBox="0.0 0.0 24.0 24.0" height="200px" width="200px"><path fill="none" stroke="black" stroke-width=".3" stroke-opacity="1.0"  filling="0" d="M9.023999214172363 3.0480003356933594 L15.911999702453613 3.0480003356933594 C16.550458908081055 3.3100268840789795 17.113971710205078 3.8735408782958984 17.375999450683594 4.511999607086182 L17.375999450683594 9.512001037597656 L17.375999450683594 14.512001037597656 L17.375999450683594 19.512001037597656 C17.113971710205078 20.15045928955078 16.550458908081055 20.713973999023438 15.911999702453613 20.976001739501953 L9.023999214172363 20.976001739501953 C8.385540008544922 20.713973999023438 7.82202672958374 20.15045928955078 7.559999942779541 19.512001037597656 L7.559999942779541 14.512001037597656 L7.559999942779541 9.512001037597656 L7.559999942779541 4.511999607086182 C7.82202672958374 3.8735408782958984 8.385540008544922 3.3100268840789795 9.023999214172363 3.0480003356933594 L9.023999214172363 3.0480003356933594"></path>
<path fill="none" stroke="black" stroke-width=".3" stroke-opacity="1.0"  filling="0" d="M16.368000030517578 3.935999870300293 L16.368000030517578 3.935999870300293 C16.472000122070312 4.039999961853027 16.576000213623047 4.1439995765686035 16.68000030517578 4.247999668121338 L16.68000030517578 10.883999824523926 L16.68000030517578 17.520000457763672 C16.576000213623047 17.624000549316406 16.472000122070312 17.72800064086914 16.368000030517578 17.832000732421875 L12.455999374389648 17.832000732421875 L8.543999671936035 17.832000732421875 C8.4399995803833 17.72800064086914 8.336000442504883 17.624000549316406 8.232000350952148 17.520000457763672 L8.232000350952148 10.883999824523926 L8.232000350952148 4.247999668121338 C8.336000442504883 4.1439995765686035 8.4399995803833 4.039999961853027 8.543999671936035 3.935999870300293 L12.455999374389648 3.935999870300293 L16.368000030517578 3.935999870300293"></path>
<path fill="none" stroke="black" stroke-width=".3" stroke-opacity="1.0"  filling="0" d="M9.59999942779541 6.119999885559082 L11.088000297546387 6.119999885559082 L11.088000297546387 8.015999794006348 L9.59999942779541 8.015999794006348 L9.59999942779541 6.119999885559082"></path>
<path fill="none" stroke="black" stroke-width=".3" stroke-opacity="1.0"  filling="0" d="M15.143999099731445 7.008000373840332 L11.831999778747559 7.008000373840332 C11.684921264648438 6.860921859741211 11.684921264648438 6.531077861785889 11.831999778747559 6.383999824523926 L15.143999099731445 6.383999824523926 C15.291077613830566 6.531077861785889 15.291077613830566 6.860922336578369 15.143999099731445 7.008000373840332 L15.143999099731445 7.008000373840332"></path>
<path fill="none" stroke="black" stroke-width=".3" stroke-opacity="1.0"  filling="0" d="M15.263999938964844 7.656000137329102 L11.7839994430542 7.656000137329102 C11.704803466796875 7.576803684234619 11.704803466796875 7.399196147918701 11.7839994430542 7.319999694824219 L15.263999938964844 7.319999694824219 C15.343195915222168 7.399195671081543 15.343195915222168 7.576804161071777 15.263999938964844 7.656000137329102 L15.263999938964844 7.656000137329102"></path>
<path fill="none" stroke="black" stroke-width=".3" stroke-opacity="1.0"  filling="0" d="M15.263999938964844 9.096000671386719 L9.743999481201172 9.096000671386719 C9.664803504943848 9.016803741455078 9.664803504943848 8.83919620513916 9.743999481201172 8.760000228881836 L15.263999938964844 8.760000228881836 C15.343195915222168 8.83919620513916 15.343195915222168 9.016804695129395 15.263999938964844 9.096000671386719 L15.263999938964844 9.096000671386719"></path>
<path fill="none" stroke="black" stroke-width=".3" stroke-opacity="1.0"  filling="0" d="M15.263999938964844 10.368000030517578 L9.743999481201172 10.368000030517578 C9.664803504943848 10.288804054260254 9.664803504943848 10.111196517944336 9.743999481201172 10.032000541687012 L15.263999938964844 10.032000541687012 C15.343195915222168 10.111196517944336 15.343195915222168 10.288804054260254 15.263999938964844 10.368000030517578 L15.263999938964844 10.368000030517578"></path>
<path fill="none" stroke="black" stroke-width=".3" stroke-opacity="1.0"  filling="0" d="M5.9039998054504395 11.399999618530273 L6.624000072479248 11.399999618530273 L6.624000072479248 13.199999809265137 C4.94692325592041 13.199999809265137 4.813285827636719 12.615367889404297 5.9039998054504395 11.399999618530273 L5.9039998054504395 11.399999618530273"></path>
<path fill="none" stroke="black" stroke-width=".3" stroke-opacity="1.0"  filling="0" d="M15.263999938964844 11.616000175476074 L9.743999481201172 11.616000175476074 C9.664803504943848 11.53680419921875 9.664803504943848 11.359196662902832 9.743999481201172 11.279999732971191 L15.263999938964844 11.279999732971191 C15.343195915222168 11.359195709228516 15.343195915222168 11.53680419921875 15.263999938964844 11.616000175476074 L15.263999938964844 11.616000175476074"></path>
<path fill="none" stroke="black" stroke-width=".3" stroke-opacity="1.0"  filling="0" d="M15.263999938964844 12.86400032043457 L9.743999481201172 12.86400032043457 C9.664803504943848 12.784804344177246 9.664803504943848 12.607195854187012 9.743999481201172 12.527999877929688 L15.263999938964844 12.527999877929688 C15.343195915222168 12.607195854187012 15.343195915222168 12.784804344177246 15.263999938964844 12.86400032043457 L15.263999938964844 12.86400032043457"></path>
<path fill="none" stroke="black" stroke-width=".3" stroke-opacity="1.0"  filling="0" d="M5.064000129699707 13.368000030517578 L5.064000129699707 13.368000030517578 C5.576000213623047 13.368000030517578 6.0879998207092285 13.368000030517578 6.599999904632568 13.368000030517578 L6.599999904632568 15.072000503540039 C5.030968189239502 15.072000503540039 4.12934684753418 14.970259666442871 5.064000129699707 13.368000030517578 L5.064000129699707 13.368000030517578"></path>
<path fill="none" stroke="black" stroke-width=".3" stroke-opacity="1.0"  filling="0" d="M5.5920000076293945 15.239999771118164 L6.624000072479248 15.239999771118164 L6.624000072479248 16.944000244140625 C5.109569549560547 16.944000244140625 4.802065372467041 16.568525314331055 5.5920000076293945 15.239999771118164 L5.5920000076293945 15.239999771118164"></path>
<path fill="none" stroke="black" stroke-width=".3" stroke-opacity="1.0"  filling="0" d="M6.072000026702881 17.11199951171875 L6.072000026702881 17.11199951171875 C6.25600004196167 17.1039981842041 6.440000057220459 17.095998764038086 6.624000072479248 17.087997436523438 L6.624000072479248 18.93600082397461 L6.335999965667725 18.93600082397461 C6.055999755859375 18.624000549316406 5.5560503005981445 18.41489601135254 5.495999813079834 18.0 C5.445460796356201 17.650821685791016 5.880000114440918 17.40799903869629 6.072000026702881 17.11199951171875 L6.072000026702881 17.11199951171875"></path>
<path fill="none" stroke="black" stroke-width=".3" stroke-opacity="1.0"  filling="0" d="M15.288000106811523 17.20800018310547 L9.743999481201172 17.20800018310547 L9.743999481201172 13.776000022888184 L15.288000106811523 13.776000022888184 L15.288000106811523 17.20800018310547"></path>
<path fill="none" stroke="black" stroke-width=".3" stroke-opacity="1.0"  filling="0" d="M16.056001663208008 17.20800018310547 L15.407999992370605 17.20800018310547 L15.407999992370605 13.656000137329102 L9.59999942779541 13.656000137329102 L9.59999942779541 17.20800018310547 L8.855999946594238 17.20800018310547 L8.855999946594238 10.883999824523926 L8.855999946594238 4.559999465942383 L16.031999588012695 4.559999465942383 L16.04400062561035 10.883999824523926 L16.056001663208008 17.20800018310547"></path>
<path fill="none" stroke="black" stroke-width=".3" stroke-opacity="1.0"  filling="0" d="M12.456000328063965 19.032001495361328 L12.456000328063965 19.032001495361328 C13.642911911010742 20.218908309936523 11.269087791442871 20.21890640258789 12.456000328063965 19.032001495361328 L12.456000328063965 19.032001495361328"></path>
<path fill="none" stroke="black" stroke-width=".3" stroke-opacity="1.0"  filling="0" d="M12.456000328063965 20.66400146484375 L12.456000328063965 20.66400146484375 C12.079999923706055 20.288000106811523 11.32800006866455 20.0677433013916 11.32800006866455 19.535999298095703 C11.32800006866455 18.495996475219727 13.583999633789062 17.568002700805664 13.583999633789062 19.535999298095703 C13.583999633789062 20.0677433013916 12.831999778747559 20.288000106811523 12.456000328063965 20.66400146484375 L12.456000328063965 20.66400146484375"></path>
<path fill="none" stroke="black" stroke-width=".3" stroke-opacity="1.0"  filling="0" d="M15.911999702453613 21.60000228881836 L9.023999214172363 21.60000228881836 C8.531999588012695 21.3960018157959 7.924615859985352 21.364620208740234 7.547999858856201 20.98800277709961 C7.171382904052734 20.611385345458984 7.139999866485596 20.00400161743164 6.935999870300293 19.512001037597656 L6.935999870300293 14.512001037597656 L6.935999870300293 9.512001037597656 L6.935999870300293 4.511999607086182 C7.139999866485596 4.0199995040893555 7.171383380889893 3.412616014480591 7.547999858856201 3.035999298095703 C7.92461633682251 2.6593828201293945 8.531999588012695 2.6279990673065186 9.023999214172363 2.4239988327026367 L15.911999702453613 2.4239988327026367 C16.40399932861328 2.6279990673065186 17.011383056640625 2.6593825817108154 17.38800048828125 3.035999298095703 C17.764617919921875 3.4126157760620117 17.79599952697754 4.0199995040893555 18.0 4.511999607086182 L18.0 9.512001037597656 L18.0 14.512001037597656 L18.0 19.512001037597656 C17.79599952697754 20.00400161743164 17.764617919921875 20.611385345458984 17.38800048828125 20.98800277709961 C17.011383056640625 21.364620208740234 16.40399932861328 21.3960018157959 15.911999702453613 21.60000228881836 L15.911999702453613 21.60000228881836"></path></svg>