<svg xmlns="http://www.w3.org/2000/svg" viewBox="0.0 0.0 24.0 24.0" height="200px" width="200px"><path fill="none" stroke="black" stroke-width=".3" stroke-opacity="1.0"  filling="0" d="M11.11569595336914 4.97265625 L11.11569595336914 4.97265625 C10.82848834991455 4.68544864654541 10.254072189331055 4.517206192016602 10.254072189331055 4.111032962799072 C10.254072189331055 2.2843642234802246 11.97753620147705 3.638967514038086 11.97753620147705 4.111032962799072 C11.97753620147705 4.517257213592529 11.402976036071777 4.68544864654541 11.11569595336914 4.97265625 L11.11569595336914 4.97265625"></path>
<path fill="none" stroke="black" stroke-width=".3" stroke-opacity="1.0"  filling="0" d="M21.622800827026367 9.651432037353516 L21.66664695739746 9.862247467041016 C20.799421310424805 11.858916282653809 19.979106903076172 14.194647789001465 18.581951141357422 15.896855354309082 C17.071731567382812 17.736812591552734 15.180371284484863 18.103851318359375 15.296808242797852 20.751239776611328 L15.296808242797852 20.751239776611328 C13.098755836486816 20.740718841552734 10.90059757232666 20.740718841552734 8.702545166015625 20.751239776611328 L8.702545166015625 20.751239776611328 C8.817580223083496 18.1038818359375 6.9281744956970215 17.737228393554688 5.41761589050293 15.896855354309082 C4.019885063171387 14.19394588470459 3.201061248779297 11.859241485595703 2.3324880599975586 9.862247467041016 L2.376768112182617 9.651432037353516 C2.7724225521087646 9.52928638458252 3.3131139278411865 9.466609954833984 3.615096092224121 9.749927520751953 L3.615096092224121 9.749927520751953 C5.031675815582275 9.99874210357666 5.329560279846191 11.489227294921875 5.97316837310791 12.636550903320312 L5.97316837310791 12.636550903320312 C6.413533687591553 12.942173957824707 6.666252613067627 13.45567512512207 6.981888294219971 13.888919830322266 L7.044312000274658 13.989791870117188 C9.286141395568848 15.209891319274902 11.347330093383789 15.88446044921875 11.999783515930176 18.588863372802734 L11.999783515930176 18.588863372802734 C12.649571418762207 15.884167671203613 14.714578628540039 15.209407806396484 16.954822540283203 13.989791870117188 L17.017894744873047 13.888919830322266 C17.33333969116211 13.455591201782227 17.58575439453125 12.941690444946289 18.026399612426758 12.636550903320312 L18.026399612426758 12.636550903320312 C18.669588088989258 11.488862991333008 18.967973709106445 9.998692512512207 20.384689331054688 9.749927520751953 L20.384689331054688 9.749927520751953 C20.68648910522461 9.466520309448242 21.227224349975586 9.529276847839355 21.622800827026367 9.651432037353516 L21.622800827026367 9.651432037353516"></path>
<path fill="none" stroke="black" stroke-width=".3" stroke-opacity="1.0"  filling="0" d="M10.96125602722168 9.832655906677246 L10.96125602722168 9.832655906677246 C10.653672218322754 9.455880165100098 10.346087455749512 9.07910442352295 10.038503646850586 8.7023286819458 L10.038503646850586 6.395232200622559 C10.422983169555664 6.010824203491211 10.6482572555542 5.242008209228516 11.191943168640137 5.242008209228516 C11.735578536987305 5.242008209228516 11.960760116577148 6.010824203491211 12.345168113708496 6.395232200622559 L13.661256790161133 6.480984210968018 C13.853280067443848 6.6730804443359375 14.237327575683594 6.785658836364746 14.237327575683594 7.057272434234619 C14.237327575683594 7.328886032104492 13.853280067443848 7.441464424133301 13.661256790161133 7.6335601806640625 L12.345168113708496 7.6335601806640625 L12.345168113708496 8.702112197875977 C12.345024108886719 8.705495834350586 12.344880104064941 8.708880424499512 12.344736099243164 8.712264060974121 L14.399328231811523 8.714424133300781 L15.942862510681152 11.700623512268066 C15.86042308807373 11.959607124328613 15.836820602416992 12.245390892028809 15.69554328918457 12.477575302124023 C15.554277420043945 12.709741592407227 15.150814056396484 12.3716459274292 14.918591499328613 12.230472564697266 L13.697111129760742 9.867000579833984 L11.139455795288086 9.863759994506836 C11.080056190490723 9.853391647338867 11.020655632019043 9.843024253845215 10.96125602722168 9.832655906677246 L10.96125602722168 9.832655906677246"></path>
<path fill="none" stroke="black" stroke-width=".3" stroke-opacity="1.0"  filling="0" d="M4.107143878936768 10.158599853515625 L4.107143878936768 10.158599853515625 C4.694904327392578 11.09958267211914 5.028107643127441 11.623760223388672 5.469888210296631 12.503064155578613 L4.847376346588135 11.801280975341797 C4.526774883270264 11.33112621307373 4.114068508148193 10.444422721862793 3.8967599868774414 10.075871467590332 L3.8967599868774414 10.075871467590332 C3.966887950897217 10.103447914123535 4.037015914916992 10.131023406982422 4.107143878936768 10.158599853515625 L4.107143878936768 10.158599853515625"></path>
<path fill="none" stroke="black" stroke-width=".3" stroke-opacity="1.0"  filling="0" d="M21.113903045654297 10.200287818908691 L21.113903045654297 10.200287818908691 C20.361465454101562 11.925742149353027 19.6053409576416 14.130684852600098 18.385391235351562 15.581064224243164 C16.960317611694336 17.275310516357422 14.85153865814209 17.871685028076172 14.898504257202148 20.346670150756836 L12.220104217529297 20.346670150756836 L12.220104217529297 19.511184692382812 C12.422130584716797 17.951963424682617 13.023987770080566 16.992267608642578 13.902482986450195 16.241535186767578 C14.780978202819824 15.490800857543945 15.936112403869629 14.949031829833984 17.244693756103516 14.225664138793945 L17.244693756103516 14.225664138793945 C17.247861862182617 14.221776008605957 17.25103187561035 14.217887878417969 17.254199981689453 14.21399974822998 L17.334552764892578 14.0852632522583 C17.844629287719727 13.285749435424805 19.19944190979004 11.955656051635742 18.40007781982422 13.952207565307617 L18.393383026123047 13.96408748626709 C17.904573440551758 15.02267074584961 17.259307861328125 15.699070930480957 16.450897216796875 16.569047927856445 L16.694759368896484 16.85028076171875 C16.890382766723633 16.628232955932617 17.07917022705078 16.39996910095215 17.281631469726562 16.18413543701172 C17.68988037109375 15.748922348022461 19.810558319091797 13.441423416137695 18.969886779785156 12.695087432861328 L18.969886779785156 12.695087432861328 C19.1632080078125 12.423287391662598 19.35652732849121 12.151488304138184 19.549848556518555 11.879688262939453 L19.57295799255371 11.831952095031738 C19.917829513549805 11.099197387695312 20.288169860839844 9.76711654663086 21.267478942871094 9.849071502685547 L21.267478942871094 9.849071502685547 C21.21628761291504 9.966143608093262 21.16509437561035 10.083215713500977 21.113903045654297 10.200287818908691 L21.113903045654297 10.200287818908691"></path>
<path fill="none" stroke="black" stroke-width=".3" stroke-opacity="1.0"  filling="0" d="M18.798599243164062 11.967816352844238 L18.798599243164062 11.967816352844238 C19.12502098083496 11.269083023071289 19.355390548706055 10.371150970458984 20.10259246826172 10.075655937194824 L20.10259246826172 10.075655937194824 C19.882129669189453 10.449447631835938 19.473112106323242 11.32876205444336 19.151975631713867 11.801063537597656 L18.529682159423828 12.502847671508789 C18.619321823120117 12.324503898620605 18.708959579467773 12.146160125732422 18.798599243164062 11.967816352844238 L18.798599243164062 11.967816352844238"></path>
<path fill="none" stroke="black" stroke-width=".3" stroke-opacity="1.0"  filling="0" d="M11.306856155395508 13.100088119506836 L11.306856155395508 13.100088119506836 C9.966455459594727 12.737579345703125 8.752259254455566 11.82577133178711 8.227514266967773 10.718155860900879 C7.7027692794799805 9.610541343688965 7.867475509643555 8.307119369506836 9.284879684448242 7.161384105682373 C9.434229850769043 7.040659427642822 9.737525939941406 7.454104900360107 9.636743545532227 7.6175761222839355 C8.948017120361328 8.734700202941895 8.184779167175293 9.404608726501465 8.784435272216797 10.851825714111328 C9.714167594909668 13.095653533935547 12.044260025024414 12.665366172790527 13.517616271972656 11.401032447814941 L13.517616271972656 11.401248931884766 C14.911514282226562 11.184499740600586 12.862253189086914 12.713501930236816 12.830924987792969 12.729405403137207 C12.36471939086914 12.966064453125 11.814879417419434 12.976527214050293 11.306856155395508 13.100088119506836 L11.306856155395508 13.100088119506836"></path>
<path fill="none" stroke="black" stroke-width=".3" stroke-opacity="1.0"  filling="0" d="M11.779679298400879 20.346670150756836 L9.101280212402344 20.346670150756836 C9.150229454040527 17.87221908569336 7.0391340255737305 17.274656295776367 5.614608287811279 15.581064224243164 C4.320301055908203 14.04228687286377 3.5260045528411865 11.67131233215332 2.7329530715942383 9.848855972290039 L2.7329530715942383 9.848855972290039 C3.7124722003936768 9.766928672790527 4.082718372344971 11.09878921508789 4.4281206130981445 11.831735610961914 L4.451233386993408 11.879472732543945 C4.644337177276611 12.151272773742676 4.837440490722656 12.42307186126709 5.030544281005859 12.69487190246582 L5.030544281005859 12.69487190246582 C4.18975830078125 13.441352844238281 6.310671806335449 15.748579025268555 6.718800067901611 16.18391990661621 C6.921099662780762 16.399707794189453 7.109616279602051 16.628015518188477 7.305024147033691 16.85006332397461 L7.5497517585754395 16.568832397460938 C6.741526126861572 15.698640823364258 6.09588623046875 15.022507667541504 5.607048034667969 13.963871002197266 L5.599920272827148 13.95199203491211 C4.801560401916504 11.955629348754883 6.155272960662842 13.285384178161621 6.665448188781738 14.085047721862793 L6.745584011077881 14.213784217834473 C6.748824119567871 14.217672348022461 6.752064228057861 14.22156047821045 6.755304336547852 14.225448608398438 L6.755304336547852 14.225448608398438 C8.061062812805176 14.947254180908203 9.217949867248535 15.489202499389648 10.098027229309082 16.240415573120117 C10.978105545043945 16.991628646850586 11.58137321472168 17.952104568481445 11.779895782470703 19.510967254638672 L11.779679298400879 20.346670150756836"></path></svg>