<svg xmlns="http://www.w3.org/2000/svg" viewBox="0.0 0.0 24.0 24.0" height="200px" width="200px"><path fill="none" stroke="black" stroke-width=".3" stroke-opacity="1.0"  filling="0" d="M12.000432014465332 7.576320171356201 L12.000432014465332 7.576320171356201 C12.640058517456055 8.217475891113281 11.35934066772461 8.21690559387207 12.000432014465332 7.576320171356201 L12.000432014465332 7.576320171356201"></path>
<path fill="none" stroke="black" stroke-width=".3" stroke-opacity="1.0"  filling="0" d="M9.234551429748535 7.785408020019531 L12.000648498535156 6.278160572052002 L14.765880584716797 7.785408020019531 L14.765880584716797 8.213736534118652 L14.089584350585938 7.843944072723389 L14.089584350585938 9.404544830322266 L9.910847663879395 9.404544830322266 L9.910847663879395 7.844160079956055 L9.234551429748535 8.21395206451416 L9.234551429748535 7.785408020019531"></path>
<path fill="none" stroke="black" stroke-width=".3" stroke-opacity="1.0"  filling="0" d="M11.620920181274414 8.62154483795166 L11.620920181274414 9.028703689575195 L10.286687850952148 9.028703689575195 L10.286687850952148 7.638959884643555 L12.000648498535156 6.7023844718933105 L13.713959693908691 7.638959884643555 L13.713959693908691 9.028488159179688 L12.379728317260742 9.028488159179688 L12.379728317260742 8.62154483795166 C12.200926780700684 8.442641258239746 11.799874305725098 8.442793846130371 11.620920181274414 8.62154483795166 L11.620920181274414 8.62154483795166"></path>
<path fill="none" stroke="black" stroke-width=".3" stroke-opacity="1.0"  filling="0" d="M21.622800827026367 8.985288619995117 L21.66664695739746 9.19588851928711 C20.799270629882812 11.192895889282227 19.978872299194336 13.527563095092773 18.581735610961914 15.230279922485352 C17.071853637695312 17.070402145385742 15.181038856506348 17.437551498413086 15.296808242797852 20.084880828857422 L15.296808242797852 20.084880828857422 C13.098825454711914 20.074607849121094 10.900745391845703 20.074607849121094 8.702760696411133 20.084880828857422 L8.702760696411133 20.084880828857422 C8.817822456359863 17.437744140625 6.92783260345459 17.07054901123047 5.417832374572754 15.230279922485352 C4.020340442657471 13.527127265930176 3.200802803039551 11.193171501159668 2.332704544067383 9.19588851928711 L2.3769845962524414 8.985072135925293 C2.772571325302124 8.862728118896484 3.313194990158081 8.800187110900879 3.615311622619629 9.083352088928223 L3.615311622619629 9.083352088928223 C5.031905651092529 9.331753730773926 5.329549312591553 10.822759628295898 5.973600387573242 11.969759941101074 L5.973600387573242 11.969759941101074 C6.4138312339782715 12.275773048400879 6.666658878326416 12.78919506072998 6.982320308685303 13.222559928894043 L7.044528484344482 13.323431968688965 C9.286565780639648 14.54329776763916 11.347660064697266 15.218327522277832 11.999783515930176 17.922718048095703 L11.999783515930176 17.922718048095703 C12.649256706237793 15.217977523803711 14.71441650390625 14.542789459228516 16.954822540283203 13.323431968688965 L17.017681121826172 13.22277545928955 C17.333232879638672 12.789331436157227 17.585851669311523 12.275530815124512 18.026399612426758 11.969976425170898 L18.026399612426758 11.969976425170898 C18.669952392578125 10.822750091552734 18.968156814575195 9.331958770751953 20.384689331054688 9.083568572998047 L20.384689331054688 9.083568572998047 C20.686752319335938 8.800450325012207 21.22730255126953 8.862903594970703 21.622800827026367 8.985288619995117 L21.622800827026367 8.985288619995117"></path>
<path fill="none" stroke="black" stroke-width=".3" stroke-opacity="1.0"  filling="0" d="M4.107143878936768 9.492239952087402 L4.107143878936768 9.492239952087402 C4.6946940422058105 10.432886123657227 5.028079032897949 10.957832336425781 5.470103740692139 11.836919784545898 L4.847592353820801 11.134919166564941 C4.527016639709473 10.6643705368042 4.115279197692871 9.779687881469727 3.89719295501709 9.409944534301758 L3.89719295501709 9.409944534301758 C3.967176675796509 9.437376022338867 4.037160396575928 9.464808464050293 4.107143878936768 9.492239952087402 L4.107143878936768 9.492239952087402"></path>
<path fill="none" stroke="black" stroke-width=".3" stroke-opacity="1.0"  filling="0" d="M21.114120483398438 9.5343599319458 L21.114120483398438 9.5343599319458 C20.361400604248047 11.259403228759766 19.605449676513672 13.464408874511719 18.38582420349121 14.914703369140625 C16.96063804626465 16.60943603515625 14.851564407348633 17.205108642578125 14.898504257202148 19.680744171142578 L12.220104217529297 19.680744171142578 L12.220104217529297 18.84503936767578 C12.421701431274414 17.285707473754883 13.023724555969238 16.325885772705078 13.902410507202148 15.575037002563477 C14.781095504760742 14.824188232421875 15.936444282531738 14.28231143951416 17.244693756103516 13.558871269226074 L17.244693756103516 13.558871269226074 C17.24778938293457 13.555055618286133 17.250886917114258 13.551239967346191 17.253982543945312 13.54742431640625 L17.334335327148438 13.419118881225586 C17.845123291015625 12.619002342224121 19.199214935302734 11.288982391357422 18.40029525756836 13.286279678344727 L18.393815994262695 13.297944068908691 C17.90423011779785 14.356074333190918 17.259138107299805 15.032389640808105 16.45132827758789 15.90290355682373 L16.69540786743164 16.183704376220703 C16.89103126525879 15.9617280960083 17.07984161376953 15.733556747436523 17.28227996826172 15.517776489257812 C17.68979835510254 15.08340072631836 19.81157684326172 12.773630142211914 18.970104217529297 12.02894401550293 L18.970104217529297 12.02894401550293 C19.163280487060547 11.756999969482422 19.356456756591797 11.485055923461914 19.549633026123047 11.213111877441406 L19.57295799255371 11.165592193603516 C19.917922973632812 10.432945251464844 20.288204193115234 9.100543975830078 21.267478942871094 9.182496070861816 L21.267478942871094 9.182496070861816 C21.216360092163086 9.299783706665039 21.165239334106445 9.417072296142578 21.114120483398438 9.5343599319458 L21.114120483398438 9.5343599319458"></path>
<path fill="none" stroke="black" stroke-width=".3" stroke-opacity="1.0"  filling="0" d="M18.79881477355957 11.301671028137207 L18.79881477355957 11.301671028137207 C19.12493896484375 10.602935791015625 19.354787826538086 9.7039213180542 20.10259246826172 9.409728050231934 L20.10259246826172 9.409728050231934 C19.887434005737305 9.774506568908691 19.472095489501953 10.66619873046875 19.151975631713867 11.134703636169434 L18.529895782470703 11.836703300476074 C18.619535446166992 11.65835952758789 18.70917510986328 11.48001480102539 18.79881477355957 11.301671028137207 L18.79881477355957 11.301671028137207"></path>
<path fill="none" stroke="black" stroke-width=".3" stroke-opacity="1.0"  filling="0" d="M12.000432014465332 12.529847145080566 L12.000432014465332 12.529847145080566 C10.238283157348633 12.174097061157227 8.793355941772461 11.738858222961426 8.03123950958252 9.898978233337402 C7.451509475708008 8.499410629272461 7.682109832763672 7.003507137298584 8.438491821289062 5.857491970062256 C9.194873809814453 4.711477279663086 10.47703742980957 3.9153504371643066 12.000432014465332 3.9153366088867188 C13.523786544799805 3.915322780609131 14.805804252624512 4.711538314819336 15.562067031860352 5.857604503631592 C16.318330764770508 7.003670692443848 16.548837661743164 8.499588012695312 15.969168663024902 9.898978233337402 C15.207118034362793 11.738659858703613 13.762419700622559 12.174057006835938 12.000432014465332 12.529847145080566 L12.000432014465332 12.529847145080566"></path>
<path fill="none" stroke="black" stroke-width=".3" stroke-opacity="1.0"  filling="0" d="M11.779679298400879 19.680744171142578 L9.101280212402344 19.680744171142578 C9.150189399719238 17.2062931060791 7.039569854736328 16.60820770263672 5.614823818206787 14.914703369140625 C4.320849418640137 13.376638412475586 3.5249075889587402 11.004669189453125 2.7329530715942383 9.182496070861816 L2.7329530715942383 9.182496070861816 C3.7125484943389893 9.100560188293457 4.082832336425781 10.432571411132812 4.4281206130981445 11.165592193603516 L4.451448440551758 11.213111877441406 C4.644552230834961 11.485055923461914 4.837656497955322 11.756999969482422 5.030760288238525 12.02894401550293 L5.030760288238525 12.02894401550293 C4.189969539642334 12.775411605834961 6.311196327209473 15.08265495300293 6.719232082366943 15.517776489257812 C6.921492099761963 15.7334623336792 7.1099042892456055 15.9617280960083 7.305240154266357 16.183704376220703 L7.55018424987793 15.90290355682373 C6.7424421310424805 15.032462120056152 6.096461772918701 14.356340408325195 5.607264041900635 13.297944068908691 L5.6003522872924805 13.286279678344727 C4.802431106567383 11.289169311523438 6.155178070068359 12.61862850189209 6.66588020324707 13.419118881225586 L6.746232509613037 13.54742431640625 C6.74932861328125 13.551239967346191 6.752424240112305 13.555055618286133 6.755520343780518 13.558871269226074 L6.755520343780518 13.558871269226074 C8.05964183807373 14.280027389526367 9.217608451843262 14.822149276733398 10.098634719848633 15.573692321777344 C10.97966194152832 16.325233459472656 11.583749771118164 17.286197662353516 11.780112266540527 18.84503936767578 L11.779679298400879 19.680744171142578"></path></svg>