<svg xmlns="http://www.w3.org/2000/svg" viewBox="0.0 0.0 24.0 24.0" height="200px" width="200px"><path fill="none" stroke="black" stroke-width=".3" stroke-opacity="1.0"  filling="0" d="M9.602400779724121 4.850400924682617 L9.602400779724121 4.850400924682617 C10.560836791992188 5.808837890625 7.476037502288818 6.052672386169434 6.76740026473999 6.759300231933594 C6.3141655921936035 7.211249828338623 5.5874457359313965 9.969599723815918 5.217600345611572 9.969599723815918 C4.480158805847168 9.969599723815918 4.942159652709961 8.43818187713623 5.225363254547119 7.757287979125977 C6.068169116973877 5.730967044830322 7.65939998626709 5.245255947113037 9.602400779724121 4.850400924682617 L9.602400779724121 4.850400924682617"></path>
<path fill="none" stroke="black" stroke-width=".3" stroke-opacity="1.0"  filling="0" d="M15.456000328063965 9.602400779724121 L15.456000328063965 9.602400779724121 C15.142658233642578 11.543740272521973 14.751679420471191 13.086159706115723 13.06254768371582 14.322432518005371 C11.166112899780273 15.710430145263672 8.837017059326172 15.706783294677734 6.982358455657959 14.76795768737793 C5.127700328826904 13.829131126403809 3.747480869293213 11.955123901367188 3.748800277709961 9.602400779724121 C3.7501184940338135 7.251908302307129 5.127516746520996 5.378045082092285 6.978938102722168 4.438732624053955 C8.83035945892334 3.499419689178467 11.155803680419922 3.494657516479492 13.053215980529785 4.882368087768555 C14.744675636291504 6.11945104598999 15.140021324157715 7.658260345458984 15.456000328063965 9.602400779724121 L15.456000328063965 9.602400779724121"></path>
<path fill="none" stroke="black" stroke-width=".3" stroke-opacity="1.0"  filling="0" d="M16.924800872802734 9.602400779724121 L16.924800872802734 9.602400779724121 C16.74607276916504 10.929655075073242 16.452709197998047 12.15201187133789 15.897109031677246 13.221577644348145 C15.341508865356445 14.291142463684082 14.523673057556152 15.207915306091309 13.296000480651855 15.92400074005127 C11.697675704956055 16.85628318786621 9.940900802612305 17.08159637451172 8.308900833129883 16.762014389038086 C6.676900863647461 16.442432403564453 5.169675350189209 15.577958106994629 4.070450305938721 14.330663681030273 C2.9712250232696533 13.083369255065918 2.2799997329711914 11.453256607055664 2.2799997329711914 9.602400779724121 C2.2799997329711914 7.751544952392578 2.971224546432495 6.121432304382324 4.070449352264404 4.874137878417969 C5.169674396514893 3.6268434524536133 6.676899433135986 2.7623677253723145 8.308899879455566 2.4427859783172607 C9.940899848937988 2.123204469680786 11.697675704956055 2.3485171794891357 13.296000480651855 3.2807998657226562 C14.523673057556152 3.996885299682617 15.341508865356445 4.913658142089844 15.897109031677246 5.983223915100098 C16.452709197998047 7.052788734436035 16.74607276916504 8.275146484375 16.924800872802734 9.602400779724121 L16.924800872802734 9.602400779724121"></path>
<path fill="none" stroke="black" stroke-width=".3" stroke-opacity="1.0"  filling="0" d="M21.395999908447266 21.395999908447266 L21.395999908447266 21.395999908447266 C20.917476654052734 21.59538459777832 20.319324493408203 21.59538459777832 19.840801239013672 21.395999908447266 L14.98080062866211 16.536001205444336 C15.53052806854248 16.050947189331055 16.050947189331055 15.53052806854248 16.536001205444336 14.98080062866211 L21.417600631713867 19.86240005493164 C21.410400390625 20.373600006103516 21.403200149536133 20.88479995727539 21.395999908447266 21.395999908447266 L21.395999908447266 21.395999908447266"></path></svg>