<svg xmlns="http://www.w3.org/2000/svg" viewBox="0.0 0.0 24.0 24.0" height="200px" width="200px"><path fill="none" stroke="black" stroke-width=".3" stroke-opacity="1.0"  filling="0" d="M20.357759475708008 9.665519714355469 L20.357759475708008 9.665519714355469 C20.97675132751465 10.28141975402832 21.58536720275879 11.01198959350586 21.785282135009766 11.86199951171875 L21.785282135009766 11.86199951171875 C21.106712341308594 12.048571586608887 20.40509033203125 12.182926177978516 19.70159912109375 12.202079772949219 L19.70159912109375 12.202079772949219 C19.23343849182129 12.322879791259766 18.76527976989746 12.443679809570312 18.297119140625 12.56447982788086 L18.297119140625 12.56447982788086 C17.33602523803711 13.059146881103516 16.358047485351562 13.526023864746094 15.352800369262695 13.923359870910645 L15.352800369262695 13.923359870910645 C14.945119857788086 13.893119812011719 14.537440299987793 13.86288070678711 14.129759788513184 13.832640647888184 L13.970880508422852 14.172720909118652 C14.162026405334473 14.895257949829102 14.402451515197754 15.612181663513184 14.74104118347168 16.278480529785156 L14.74104118347168 16.278480529785156 C15.10201644897461 17.0944766998291 15.486997604370117 17.933271408081055 15.578879356384277 18.82080078125 L15.578879356384277 18.82080078125 C15.363839149475098 18.65656089782715 15.148799896240234 18.492319107055664 14.933759689331055 18.328079223632812 L14.933759689331055 18.328079223632812 C14.882670402526855 17.4697208404541 13.804403305053711 15.549012184143066 13.382160186767578 14.693039894104004 L13.382160186767578 14.693039894104004 C12.417129516601562 14.254631996154785 11.414175987243652 13.837273597717285 10.364399909973145 13.690799713134766 L10.364399909973145 13.690799713134766 C9.484156608581543 14.442896842956543 8.463438034057617 15.287023544311523 7.30679988861084 15.338640213012695 L7.30679988861084 15.338640213012695 C6.48903226852417 15.579022407531738 5.655716896057129 15.803659439086914 4.894799709320068 16.187759399414062 L4.894799709320068 16.187759399414062 C4.388821601867676 16.604822158813477 2.699587345123291 18.544918060302734 1.514399528503418 18.20903968811035 L1.514399528503418 18.20903968811035 C1.944719672203064 17.90336036682129 2.375039577484131 17.597679138183594 2.8053598403930664 17.29199981689453 L2.8053598403930664 17.29199981689453 C3.397200107574463 15.441454887390137 3.6398110389709473 14.6388578414917 5.302559852600098 13.639679908752441 L5.302559852600098 13.639679908752441 C6.500743865966797 13.25509262084961 7.709446430206299 12.894844055175781 8.937601089477539 12.62063980102539 L8.937601089477539 12.62063980102539 C9.367920875549316 12.297919273376465 9.798239707946777 11.975199699401855 10.228559494018555 11.65247917175293 L10.228559494018555 11.65247917175293 C10.556960105895996 11.556239128112793 10.885359764099121 11.459999084472656 11.213760375976562 11.36375904083252 L11.213760375976562 11.36375904083252 C10.704160690307617 11.193839073181152 10.194560050964355 11.023920059204102 9.68496036529541 10.854000091552734 L9.68496036529541 10.854000091552734 C10.166239738464355 10.650239944458008 10.647520065307617 10.446480751037598 11.128799438476562 10.242720603942871 L11.060879707336426 9.886079788208008 C10.860942840576172 8.707636833190918 10.723512649536133 7.413281440734863 11.162879943847656 6.301679611206055 L11.162879943847656 6.301679611206055 C11.428959846496582 5.814799785614014 11.695040702819824 5.3279194831848145 11.96112060546875 4.841039657592773 L11.96112060546875 4.841039657592773 C12.261280059814453 4.450319766998291 12.561440467834473 4.05959939956665 12.861599922180176 3.668879508972168 L12.861599922180176 3.668879508972168 C13.048480033874512 4.104879379272461 13.235359191894531 4.540879726409912 13.422239303588867 4.976879596710205 L13.422239303588867 4.976879596710205 C13.586479187011719 5.305279731750488 13.750720024108887 5.633679389953613 13.914959907531738 5.9620795249938965 L13.914959907531738 5.9620795249938965 C13.97152042388916 6.3471198081970215 14.028079986572266 6.732159614562988 14.084640502929688 7.117199897766113 L14.084640502929688 7.117199897766113 C14.042136192321777 8.04755687713623 13.940177917480469 8.983400344848633 13.710960388183594 9.886079788208008 L13.710960388183594 9.886079788208008 C13.342880249023438 10.214479446411133 12.974800109863281 10.542880058288574 12.606719970703125 10.8712797164917 L12.612239837646484 11.386560440063477 C12.816080093383789 11.431839942932129 13.019920349121094 11.477120399475098 13.223760604858398 11.52239990234375 L13.223760604858398 11.52239990234375 C13.072720527648926 11.612959861755371 12.921679496765137 11.703518867492676 12.770639419555664 11.794078826904297 L12.702720642089844 11.929920196533203 C12.959440231323242 12.481040000915527 13.216160774230957 13.032160758972168 13.472880363464355 13.583280563354492 L13.472880363464355 13.583280563354492 C13.57848072052002 13.447440147399902 13.684080123901367 13.311599731445312 13.789680480957031 13.175759315490723 L13.789680480957031 13.175759315490723 C13.820000648498535 13.356959342956543 13.850319862365723 13.53816032409668 13.880640029907227 13.7193603515625 L13.993919372558594 13.493040084838867 C14.099599838256836 13.017439842224121 14.205280303955078 12.541840553283691 14.31096076965332 12.066240310668945 L14.31096076965332 12.066240310668945 C15.095258712768555 11.065770149230957 15.944430351257324 9.998620986938477 17.09663963317871 9.461519241333008 L17.09663963317871 9.461519241333008 C17.625120162963867 9.348320007324219 18.15359878540039 9.235119819641113 18.682079315185547 9.121920585632324 L18.682079315185547 9.121920585632324 C19.240638732910156 9.303120613098145 19.7992000579834 9.484319686889648 20.357759475708008 9.665519714355469 L20.357759475708008 9.665519714355469"></path>
<path fill="none" stroke="black" stroke-width=".3" stroke-opacity="1.0"  filling="0" d="M12.725040435791016 13.289520263671875 L12.725040435791016 13.289520263671875 C12.687280654907227 13.470640182495117 12.649519920349121 13.65176010131836 12.611760139465332 13.832880020141602 L11.026320457458496 13.447919845581055 C10.965920448303223 13.274239540100098 10.905519485473633 13.100560188293457 10.84511947631836 12.9268798828125 L10.84511947631836 12.9268798828125 C11.313199996948242 12.624959945678711 11.781279563903809 12.323040008544922 12.249360084533691 12.021120071411133 L12.249360084533691 12.021120071411133 C12.534690856933594 12.629877090454102 12.889562606811523 13.213151931762695 13.08743953704834 13.855680465698242 L13.08743953704834 13.855680465698242 C13.021490097045898 13.641534805297852 12.85887336730957 13.469232559204102 12.725040435791016 13.289520263671875 L12.725040435791016 13.289520263671875"></path></svg>