<svg xmlns="http://www.w3.org/2000/svg" viewBox="0.0 0.0 24.0 24.0" height="200px" width="200px"><path fill="none" stroke="black" stroke-width=".3" stroke-opacity="1.0"  filling="0" d="M20.94607162475586 3.9645843505859375 L20.94607162475586 3.9645843505859375 C21.842559814453125 5.129768371582031 22.223722457885742 5.379660129547119 22.602014541625977 6.829672813415527 C23.131362915039062 8.858697891235352 22.575136184692383 10.527084350585938 21.569087982177734 12.00570011138916 C20.563039779663086 13.484315872192383 19.10717010498047 14.773159980773926 17.83724021911621 16.043102264404297 C16.864702224731445 17.015649795532227 15.892189025878906 17.988224029541016 14.919682502746582 18.960805892944336 C13.947175025939941 19.933385848999023 12.974674224853516 20.90597152709961 12.002159118652344 21.878543853759766 L12.002159118652344 21.878543853759766 C10.775552749633789 20.652647018432617 9.548469543457031 19.427227020263672 8.321372985839844 18.201818466186523 C7.094276428222656 16.976409912109375 5.867166996002197 15.751014709472656 4.640509605407715 14.525167465209961 C3.309366226196289 13.194903373718262 1.9648218154907227 11.969112396240234 1.4338725805282593 10.08890438079834 C0.8751862049102783 8.110472679138184 1.3780416250228882 6.115669250488281 2.531735897064209 4.616944313049316 C3.6854300498962402 3.1182193756103516 5.489963054656982 2.1155734062194824 7.534631729125977 2.1214561462402344 C9.383573532104492 2.1267759799957275 10.59827995300293 2.912400722503662 12.002159118652344 3.990936279296875 L12.002159118652344 3.990936279296875 C13.586933135986328 2.8395168781280518 15.027275085449219 2.261507987976074 16.469242095947266 2.2570643424987793 C17.911209106445312 2.2526206970214844 19.354801177978516 2.821742534637451 20.94607162475586 3.9645843505859375 L20.94607162475586 3.9645843505859375"></path>
<path fill="none" stroke="black" stroke-width=".3" stroke-opacity="1.0"  filling="0" d="M6.212928295135498 7.093343734741211 L6.490488529205322 7.692527770996094 L6.195648193359375 8.284152030944824 L5.5476484298706055 8.421527862548828 L5.0381035804748535 8.001840591430664 L5.047608375549316 7.340448379516602 L5.570328235626221 6.936528205871582 L6.212928295135498 7.093343734741211"></path>
<path fill="none" stroke="black" stroke-width=".3" stroke-opacity="1.0"  filling="0" d="M9.088319778442383 7.343688011169434 L8.605560302734375 6.974976062774658 L8.860008239746094 6.465864181518555 L9.448176383972168 6.623759746551514 C9.60909652709961 6.500855922698975 9.77001667022705 6.377951622009277 9.930936813354492 6.255047798156738 L9.922080039978027 5.649384021759033 L10.4750394821167 5.526480197906494 L10.711992263793945 6.088295936584473 C10.910927772521973 6.135096073150635 11.109864234924316 6.181895732879639 11.308799743652344 6.228695869445801 L11.774063110351562 5.851344108581543 L12.212976455688477 6.21120023727417 L11.923319816589355 6.737807750701904 C12.011087417602539 6.925079822540283 12.098855972290039 7.112351894378662 12.186623573303223 7.299623966217041 L12.774792671203613 7.422528266906738 L12.765935897827148 7.992984294891357 L12.16912841796875 8.098392486572266 C12.078408241271973 8.279831886291504 11.987688064575195 8.461272239685059 11.896967887878418 8.642711639404297 L12.16912841796875 9.186816215515137 L11.721575736999512 9.529175758361816 L11.265168190002441 9.134111404418945 C11.06328010559082 9.177959442138672 10.8613920211792 9.221807479858398 10.659503936767578 9.265655517578125 L10.40505599975586 9.809975624084473 L9.860735893249512 9.669575691223145 L9.88708782196045 9.07276725769043 C9.717704772949219 8.956110000610352 9.55839729309082 8.823348999023438 9.412967681884766 8.677919387817383 L8.824800491333008 8.818320274353027 L8.587848663330078 8.309207916259766 L9.079463958740234 7.949352264404297 C9.082415580749512 7.747464179992676 9.085368156433105 7.545576095581055 9.088319778442383 7.343688011169434 L9.088319778442383 7.343688011169434"></path>
<path fill="none" stroke="black" stroke-width=".3" stroke-opacity="1.0"  filling="0" d="M10.345439910888672 8.03056812286377 L10.146719932556152 7.370903968811035 L10.549560546875 7.060080051422119 L11.045280456542969 7.181687831878662 L11.258472442626953 7.644144058227539 L11.030808448791504 8.100120544433594 L10.345439910888672 8.03056812286377"></path>
<path fill="none" stroke="black" stroke-width=".3" stroke-opacity="1.0"  filling="0" d="M5.393208026885986 10.503551483154297 L4.682136535644531 10.32815933227539 L4.708488464355469 9.546887397766113 C4.492771148681641 9.395326614379883 4.289459705352783 9.224411964416504 4.1030402183532715 9.037991523742676 L3.339480400085449 9.222240447998047 L3.032329559326172 8.564087867736816 L3.6641292572021484 8.098823547363281 C3.667081117630005 7.835519790649414 3.6700332164764404 7.572216033935547 3.672985076904297 7.30891227722168 L3.058465003967285 6.825936317443848 L3.383112907409668 6.167783737182617 L4.138032913208008 6.378384113311768 C4.345752716064453 6.214583873748779 4.55347204208374 6.050784111022949 4.7611918449401855 5.886983871459961 L4.752336025238037 5.105711936950684 L5.472048282623291 4.956672191619873 L5.779200553894043 5.676384449005127 C6.036672592163086 5.737800598144531 6.294144153594971 5.799216270446777 6.551616191864014 5.860632419586182 L7.157280445098877 5.369231700897217 L7.727736473083496 5.834279537200928 L7.3590240478515625 6.519000053405762 C7.470191955566406 6.758903980255127 7.581360340118408 6.998807907104492 7.692528247833252 7.238711833953857 L8.456088066101074 7.405463695526123 L8.44723129272461 8.142671585083008 L7.674816131591797 8.283071517944336 C7.557219982147217 8.518264770507812 7.577914237976074 8.985072135925293 7.314960479736328 8.985072135925293 L7.665960311889648 9.687288284301758 L7.086647987365723 10.143695831298828 L6.498480319976807 9.625944137573242 C6.238128185272217 9.681528091430664 5.977776527404785 9.737112045288086 5.717424392700195 9.792695999145508 L5.393208026885986 10.503551483154297"></path>
<path fill="none" stroke="black" stroke-width=".3" stroke-opacity="1.0"  filling="0" d="M9.817967414855957 11.773416519165039 L10.125335693359375 12.495287895202637 L9.751872062683105 13.185407638549805 L8.978591918945312 13.324079513549805 L8.38804817199707 12.805679321289062 L8.426496505737305 12.02246379852295 L9.061967849731445 11.562383651733398 L9.817967414855957 11.773416519165039"></path>
<path fill="none" stroke="black" stroke-width=".3" stroke-opacity="1.0"  filling="0" d="M11.501903533935547 13.242000579833984 L11.501903533935547 13.242000579833984 C11.352720260620117 13.516968727111816 11.203536033630371 13.791935920715332 11.054352760314941 14.066904067993164 L11.440559387207031 14.90951919555664 L10.738344192504883 15.418415069580078 L10.053840637207031 14.786399841308594 C9.74661636352539 14.841983795166016 9.439393043518066 14.897567749023438 9.132168769836426 14.95315170288086 L8.7107515335083 15.786911964416504 L7.868135929107666 15.54974365234375 L7.938336372375488 14.619215965270996 C7.686074256896973 14.437419891357422 7.450292110443115 14.230541229248047 7.236335754394531 14.004911422729492 L6.323520183563232 14.189374923706055 L5.981160640716553 13.390607833862305 L6.753576755523682 12.86400032043457 C6.768192291259766 12.550871849060059 6.782808303833008 12.237744331359863 6.797423839569092 11.924615859985352 L6.077712059020996 11.327808380126953 L6.498912334442139 10.564248085021973 L7.385376453399658 10.836191177368164 C7.639896392822266 10.654823303222656 7.894416332244873 10.473455429077148 8.14893627166748 10.29208755493164 L8.166647911071777 9.361776351928711 L9.02676010131836 9.203880310058594 L9.36026382446289 10.072632789611816 C9.66158390045166 10.157520294189453 9.962904930114746 10.242408752441406 10.264225006103516 10.327296257019043 L11.01028823852539 9.756839752197266 L11.659799575805664 10.336151123046875 L11.194535255432129 11.143560409545898 C11.317439079284668 11.430264472961426 11.440343856811523 11.716967582702637 11.563247680664062 12.003671646118164 L12.467424392700195 12.231983184814453 L12.423575401306152 13.100735664367676 L11.501903533935547 13.242000579833984"></path></svg>