<svg xmlns="http://www.w3.org/2000/svg" viewBox="0.0 0.0 24.0 24.0" height="200px" width="200px"><path fill="none" stroke="black" stroke-width=".3" stroke-opacity="1.0"  filling="0" d="M16.213077545166016 3.76068115234375 L16.213077545166016 8.581367492675781 C15.976855278015137 9.149879455566406 15.93961238861084 9.851466178894043 15.504409790039062 10.286903381347656 C15.069414138793945 10.722132682800293 14.368088722229004 10.75951099395752 13.799927711486816 10.99581527709961 L8.290416717529297 10.99581527709961 L5.182608127593994 14.103623390197754 L5.182608127593994 10.99581527709961 L3.613152503967285 10.99581527709961 C3.0450186729431152 10.75951099395752 2.343729019165039 10.722115516662598 1.9087507724761963 10.286903381347656 C1.4735403060913086 9.851459503173828 1.4362508058547974 9.149879455566406 1.2000007629394531 8.581367492675781 L1.2000007629394531 3.76068115234375 C1.4362508058547974 3.192168712615967 1.473540186882019 2.490588665008545 1.9087507724761963 2.0551440715789795 C2.343729019165039 1.6199318170547485 3.0450186729431152 1.5825356245040894 3.613152503967285 1.346231460571289 L8.70654010772705 1.346231460571289 L13.799927711486816 1.346231460571289 C14.368061065673828 1.5825356245040894 15.069351196289062 1.6199318170547485 15.504328727722168 2.0551440715789795 C15.939538955688477 2.490588903427124 15.976827621459961 3.192168712615967 16.213077545166016 3.76068115234375 L16.213077545166016 3.76068115234375"></path>
<path fill="none" stroke="black" stroke-width=".3" stroke-opacity="1.0"  filling="0" d="M20.38404083251953 12.703079223632812 L20.38404083251953 12.703079223632812 C20.9526424407959 12.93957233428955 21.65425682067871 12.977242469787598 22.089845657348633 13.412558555603027 C22.525312423706055 13.847753524780273 22.563282012939453 14.549203872680664 22.799999237060547 15.11752700805664 L22.799999237060547 17.813207626342773 C22.563282012939453 18.38199806213379 22.525482177734375 19.083942413330078 22.089845657348633 19.51957893371582 C21.65438461303711 19.955039978027344 20.9526424407959 19.992637634277344 20.38404083251953 20.22916603088379 L19.669513702392578 20.22916603088379 L19.669513702392578 22.65398406982422 L17.245126724243164 20.229381561279297 L13.504440307617188 20.229381561279297 C12.936368942260742 19.992826461791992 12.235076904296875 19.955108642578125 11.800226211547852 19.51971435546875 C11.365009307861328 19.083951950073242 11.327744483947754 18.382186889648438 11.091503143310547 17.81342315673828 L11.091503143310547 15.117742538452148 C11.327716827392578 14.549356460571289 11.365065574645996 13.847975730895996 11.800145149230957 13.412585258483887 C12.235115051269531 12.977303504943848 12.936342239379883 12.939580917358398 13.504440307617188 12.703079223632812 L20.38404083251953 12.703079223632812"></path></svg>