<svg xmlns="http://www.w3.org/2000/svg" viewBox="0.0 0.0 24.0 24.0" height="200px" width="200px"><path fill="none" stroke="black" stroke-width=".3" stroke-opacity="1.0"  filling="0" d="M408.88555908203125 153.2329559326172 L416.129150390625 153.2329559326172 L423.37274169921875 153.2329559326172 L430.6163635253906 153.2329559326172 L437.85992431640625 153.2329559326172 L445.103515625 153.2329559326172 L443.7933654785156 160.5888214111328 L442.48321533203125 167.94467163085938 L441.1730651855469 175.300537109375 L439.8629150390625 182.65640258789062 L438.5527648925781 190.01226806640625 L437.24261474609375 197.3681182861328 L435.9324645996094 204.72396850585938 L434.622314453125 212.07981872558594 L433.3121337890625 219.43568420410156 L433.4492492675781 223.51731872558594 L432.58441162109375 223.51731872558594 L431.7019958496094 228.47084045410156 L430.819580078125 233.42434692382812 L429.9371337890625 238.37786865234375 L422.93402099609375 238.57122802734375 L415.930908203125 238.76458740234375 L408.9277648925781 238.95794677734375 L408.9277648925781 239.2427215576172 L401.91058349609375 239.0493621826172 L394.8934020996094 238.8560028076172 L387.8761901855469 238.6626434326172 L386.9761962890625 233.61419677734375 L386.07623291015625 228.56576538085938 L385.17620849609375 223.51731872558594 L382.1387023925781 223.51731872558594 L382.1387023925781 219.43568420410156 L384.4484558105469 219.43568420410156 L383.1441650390625 212.11146545410156 L381.83984375 204.78724670410156 L380.53558349609375 197.46304321289062 L379.23126220703125 190.13882446289062 L377.92694091796875 182.81459045410156 L376.6226806640625 175.49038696289062 L375.318359375 168.16615295410156 L374.0140380859375 160.84193420410156 L372.7097473144531 153.51771545410156 L379.9449462890625 153.51771545410156 L387.1800842285156 153.51771545410156 L394.4152526855469 153.51771545410156 L401.6504211425781 153.51771545410156 L408.88555908203125 153.51771545410156 L408.88555908203125 153.2329559326172"></path>
<path fill="none" stroke="black" stroke-width=".3" stroke-opacity="1.0"  filling="0" d="M446.9703369140625 159.83529663085938 L447.83416748046875 167.0172119140625 L448.6980285644531 174.19912719726562 L449.5618591308594 181.3810577392578 L450.42572021484375 188.56297302246094 L451.28955078125 195.74490356445312 L452.15338134765625 202.92681884765625 L453.0172119140625 210.10873413085938 L453.8810729980469 217.2906494140625 L454.74493408203125 224.4725799560547 L455.6087646484375 231.6544952392578 L456.47259521484375 238.83642578125 L457.33642578125 246.01834106445312 L458.2002868652344 253.20025634765625 L459.0641174316406 260.3821716308594 L459.9279479980469 267.5640869140625 L460.79180908203125 274.7460021972656 L461.6556396484375 281.92791748046875 L462.51947021484375 289.10986328125 L463.38330078125 296.2917785644531 L464.2471618652344 303.47369384765625 L465.1109924316406 310.6556091308594 L464.9443664550781 317.4499206542969 L464.7777099609375 324.24420166015625 L464.611083984375 331.03851318359375 L464.44439697265625 337.83282470703125 L464.27777099609375 344.6271057128906 L456.89495849609375 344.6461181640625 L449.5121765136719 344.6650695800781 L442.12933349609375 344.68408203125 L434.74652099609375 344.70306396484375 L427.36370849609375 344.7220458984375 L419.98089599609375 344.74102783203125 L412.59808349609375 344.760009765625 L405.21527099609375 344.77899169921875 L397.83245849609375 344.7979736328125 L390.44964599609375 344.81695556640625 L383.06683349609375 344.8359375 L375.68402099609375 344.85491943359375 L368.3012390136719 344.8739013671875 L360.91839599609375 344.89288330078125 L353.53558349609375 344.911865234375 L353.3689270019531 338.1175842285156 L353.2023010253906 331.3232727050781 L353.03564453125 324.52899169921875 L352.8690185546875 317.73468017578125 L352.7023620605469 310.94036865234375 L353.5661926269531 303.7584533691406 L354.4300537109375 296.5765380859375 L355.29388427734375 289.3946228027344 L356.15771484375 282.21270751953125 L357.0215759277344 275.03076171875 L357.8854064941406 267.8488464355469 L358.749267578125 260.66693115234375 L359.61309814453125 253.4850311279297 L360.4769287109375 246.3031005859375 L361.34075927734375 239.12118530273438 L362.20458984375 231.93927001953125 L363.0684509277344 224.75733947753906 L363.9322814941406 217.57540893554688 L364.796142578125 210.39349365234375 L365.65997314453125 203.21157836914062 L366.5238037109375 196.0296630859375 L367.38763427734375 188.84774780273438 L368.25146484375 181.6658172607422 L369.11529541015625 174.48390197753906 L369.9791564941406 167.30197143554688 L370.8429870605469 160.12005615234375 L371.87835693359375 167.02561950683594 L372.9136962890625 173.93118286132812 L373.94903564453125 180.83676147460938 L374.9844055175781 187.74232482910156 L376.0197448730469 194.64788818359375 L377.05511474609375 201.553466796875 L378.0904541015625 208.45901489257812 L379.12579345703125 215.36459350585938 L380.1611633300781 222.27015686035156 L381.1965026855469 229.17572021484375 L382.23187255859375 236.081298828125 L383.2672119140625 242.9868621826172 L389.45556640625 242.9868621826172 L395.6439514160156 242.9868621826172 L401.8323059082031 242.9868621826172 L408.02069091796875 242.9868621826172 L408.02069091796875 242.70208740234375 L414.65203857421875 242.70208740234375 L421.28338623046875 242.70208740234375 L427.91473388671875 242.70208740234375 L434.5461120605469 242.70208740234375 L435.58148193359375 235.79652404785156 L436.6168212890625 228.89096069335938 L437.65216064453125 221.98538208007812 L438.6875305175781 215.079833984375 L439.7228698730469 208.17425537109375 L440.75823974609375 201.26869201660156 L441.7935791015625 194.36312866210938 L442.82891845703125 187.4575653076172 L443.8642883300781 180.552001953125 L444.8996276855469 173.64642333984375 L445.93499755859375 166.74085998535156 L446.9703369140625 159.83529663085938"></path>
<path fill="none" stroke="black" stroke-width=".3" stroke-opacity="1.0"  filling="0" d="M410.6752014160156 160.36119079589844 L417.47149658203125 160.36119079589844 L424.267822265625 160.36119079589844 L431.0640869140625 160.36119079589844 L437.86041259765625 160.36119079589844 L444.6567077636719 160.36119079589844 L451.4530029296875 160.36119079589844 L458.24932861328125 160.36119079589844 L465.0456237792969 160.36119079589844 L465.0456237792969 166.53567504882812 L458.24932861328125 166.53567504882812 L451.4530029296875 166.53567504882812 L444.6567077636719 166.53567504882812 L437.86041259765625 166.53567504882812 L431.0640869140625 166.53567504882812 L424.267822265625 166.53567504882812 L417.47149658203125 166.53567504882812 L410.6752014160156 166.53567504882812 L410.6752014160156 160.36119079589844"></path>
<path fill="none" stroke="black" stroke-width=".3" stroke-opacity="1.0"  filling="0" d="M231.0259246826172 295.2615051269531 L238.41006469726562 295.2615051269531 L245.79420471191406 295.2615051269531 L253.17832946777344 295.26153564453125 L260.5624694824219 295.2615051269531 L267.94659423828125 295.2615051269531 L275.33074951171875 295.2615051269531 L282.7148742675781 295.2615051269531 L290.0989990234375 295.2615051269531 L297.483154296875 295.2615051269531 L304.8673095703125 295.2615051269531 L312.25140380859375 295.2615051269531 L319.63555908203125 295.2615051269531 L327.0196838378906 295.2615051269531 L334.40380859375 295.2615051269531 L341.7879638671875 295.2615051269531 L349.172119140625 295.2615051269531 L356.5562438964844 295.2615051269531 L363.94036865234375 295.2615051269531 L371.3244934082031 295.2615051269531 L378.7086486816406 295.2615051269531 L386.0927734375 295.2615051269531 L393.4769287109375 295.2615051269531 L400.861083984375 295.2615051269531 L408.24517822265625 295.26153564453125 L415.6293029785156 295.261474609375 L423.0134582519531 295.261474609375 L430.3976135253906 295.2615051269531 L437.78173828125 295.2615051269531 L445.1658630371094 295.2615051269531 L452.54998779296875 295.261474609375 L459.9341125488281 295.261474609375 L467.31829833984375 295.26153564453125 L474.7024230957031 295.2615051269531 L482.0865478515625 295.2615051269531 L489.470703125 295.2615051269531 L496.85479736328125 295.2615051269531 L504.2389221191406 295.2615051269531 L511.6230773925781 295.2615051269531 L519.0072021484375 295.2615051269531 L526.391357421875 295.2615051269531 L533.7755126953125 295.2615051269531 L541.1596069335938 295.2615051269531 L548.5437622070312 295.2615051269531 L555.9278564453125 295.2615051269531 L563.31201171875 295.2615051269531 L570.6962280273438 295.2615051269531 L578.080322265625 295.2615051269531 L585.4644775390625 295.2615051269531 L592.8485717773438 295.2615051269531 L600.232666015625 295.2615051269531 L607.6168212890625 295.2615051269531 L615.0009765625 295.2615051269531 L622.3851318359375 295.26153564453125 L629.769287109375 295.2615051269531 L637.1534423828125 295.2615051269531 L644.5375366210938 295.2615051269531 C646.7884521484375 294.7153625488281 649.2102661132812 294.329345703125 651.6848754882812 294.16583251953125 C654.159423828125 294.0022888183594 656.686767578125 294.06121826171875 659.1488037109375 294.4049072265625 C661.61083984375 294.74859619140625 664.0075073242188 295.3770446777344 666.2207641601562 296.3525695800781 C668.4340209960938 297.32806396484375 670.4638671875 298.650634765625 672.1922607421875 300.3825988769531 C673.5274658203125 301.7205505371094 674.6038818359375 303.23553466796875 675.4586181640625 304.8660888671875 C676.3133544921875 306.4966735839844 676.9462890625 308.24285888671875 677.3944091796875 310.04327392578125 C677.8425903320312 311.84368896484375 678.10595703125 313.6983642578125 678.2215576171875 315.54583740234375 C678.3568725585938 317.709228515625 678.3482666015625 319.94927978515625 678.1461791992188 322.1802062988281 C677.9440307617188 324.4111022949219 677.5484008789062 326.6328430175781 676.90966796875 328.759521484375 C676.2709350585938 330.8861999511719 675.3890991210938 332.9178466796875 674.214599609375 334.7685546875 C673.0401000976562 336.6192932128906 671.5728759765625 338.2890930175781 669.7634887695312 339.6921081542969 C668.0451049804688 341.0245361328125 666.1198120117188 342.04779052734375 664.0708618164062 342.80072021484375 C662.0219116210938 343.55364990234375 659.8492431640625 344.0362243652344 657.6361083984375 344.2872314453125 C655.4229736328125 344.53826904296875 653.1693725585938 344.5577087402344 650.9585571289062 344.3843994140625 C648.7476806640625 344.2110900878906 646.57958984375 343.84503173828125 644.5375366210938 343.3249816894531 L637.1534423828125 343.3249816894531 L629.769287109375 343.3249816894531 L622.3851318359375 343.32501220703125 L615.0009765625 343.3249816894531 L607.6168212890625 343.3249816894531 L600.232666015625 343.3249816894531 L592.8485717773438 343.3249816894531 L585.4644775390625 343.3249816894531 L578.080322265625 343.3249816894531 L570.6962280273438 343.32501220703125 L563.31201171875 343.3249816894531 L555.9278564453125 343.3249816894531 L548.5437622070312 343.3249816894531 L541.1596069335938 343.3249816894531 L533.7755126953125 343.3249816894531 L526.391357421875 343.3249816894531 L519.0072021484375 343.3249816894531 L511.6230773925781 343.3249816894531 L504.2389221191406 343.3249816894531 L496.85479736328125 343.3249816894531 L489.470703125 343.3249816894531 L482.0865478515625 343.3249816894531 L474.7024230957031 343.32501220703125 L467.31829833984375 343.32501220703125 L459.9341125488281 343.324951171875 L452.54998779296875 343.324951171875 L445.1658630371094 343.3249816894531 L437.78173828125 343.3249816894531 L430.3976135253906 343.3249816894531 L423.0134582519531 343.324951171875 L415.6293029785156 343.324951171875 L408.24517822265625 343.32501220703125 L400.861083984375 343.32501220703125 L393.4769287109375 343.3249816894531 L386.0927734375 343.3249816894531 L378.7086486816406 343.3249816894531 L371.3244934082031 343.3249816894531 L363.94036865234375 343.3249816894531 L356.5562438964844 343.3249816894531 L349.172119140625 343.3249816894531 L341.7879638671875 343.3249816894531 L334.40380859375 343.3249816894531 L327.0196838378906 343.3249816894531 L319.63555908203125 343.3249816894531 L312.25140380859375 343.3249816894531 L304.8673095703125 343.32501220703125 L297.483154296875 343.3249816894531 L290.0989990234375 343.3249816894531 L282.7148742675781 343.3249816894531 L275.33074951171875 343.3249816894531 L267.94659423828125 343.3249816894531 L260.5624694824219 343.3249816894531 L253.17832946777344 343.32501220703125 L245.79420471191406 343.3249816894531 L238.41006469726562 343.3249816894531 L231.0259246826172 343.3249816894531 C229.12168884277344 343.89990234375 227.1441192626953 344.3170166015625 225.14639282226562 344.5809326171875 C223.14866638183594 344.8448486328125 221.1307830810547 344.95556640625 219.1459197998047 344.9176940917969 C217.29043579101562 344.8822937011719 215.4141387939453 344.695556640625 213.58544921875 344.3147888183594 C211.75674438476562 343.93402099609375 209.97567749023438 343.3592529296875 208.31063842773438 342.54779052734375 C206.64561462402344 341.7362976074219 205.09664916992188 340.6881103515625 203.73216247558594 339.3604736328125 C202.04287719726562 337.7168273925781 200.76361083984375 335.8040466308594 199.8083038330078 333.7323303222656 C198.85299682617188 331.66058349609375 198.2216796875 329.4299011230469 197.8282928466797 327.150390625 C197.43490600585938 324.87091064453125 197.27944946289062 322.5426025390625 197.2759246826172 320.275634765625 C197.2728271484375 318.28851318359375 197.38858032226562 316.2677001953125 197.6743621826172 314.27264404296875 C197.96014404296875 312.2776184082031 198.41592407226562 310.30841064453125 199.09288024902344 308.42449951171875 C199.76983642578125 306.54058837890625 200.66796875 304.74200439453125 201.83840942382812 303.0882873535156 C203.11001586914062 301.2916259765625 204.64181518554688 299.8031921386719 206.3585968017578 298.5910339355469 C208.07537841796875 297.3788757324219 209.97714233398438 296.4429626464844 211.98867797851562 295.75140380859375 C214.00021362304688 295.0598449707031 216.1215362548828 294.6125793457031 218.2774200439453 294.3777160644531 C220.4333038330078 294.1428527832031 222.62376403808594 294.120361328125 224.77357482910156 294.2783203125 C226.92340087890625 294.436279296875 229.0325927734375 294.774658203125 231.0259246826172 295.2615051269531 L231.0259246826172 295.2615051269531"></path>
<path fill="none" stroke="black" stroke-width=".3" stroke-opacity="1.0"  filling="0" d="M327.7001647949219 326.8432312011719 L327.7001647949219 326.8432312011719 C327.60986328125 328.85418701171875 327.35992431640625 330.7998962402344 326.87567138671875 332.6816101074219 C326.3914489746094 334.56329345703125 325.67291259765625 336.3810119628906 324.6454162597656 338.1360168457031 C323.364990234375 340.3230895996094 321.77166748046875 342.1908874511719 319.9599914550781 343.7312316894531 C318.1482849121094 345.2715759277344 316.11822509765625 346.4844665527344 313.9642028808594 347.36175537109375 C311.8101806640625 348.2390441894531 309.5322570800781 348.7807312011719 307.224853515625 348.9786682128906 C304.9174499511719 349.1766052246094 302.5805969238281 349.03082275390625 300.30877685546875 348.5331115722656 C298.03692626953125 348.035400390625 295.830078125 347.185791015625 293.78271484375 345.9761047363281 C291.7353515625 344.76641845703125 289.84747314453125 343.19671630859375 288.21356201171875 341.2587585449219 C287.38702392578125 340.2784423828125 286.6449890136719 339.2273864746094 285.997802734375 338.1208801269531 C285.3505859375 337.01434326171875 284.79827880859375 335.8524169921875 284.3512268066406 334.650390625 C283.88751220703125 333.4035339355469 283.5375671386719 332.1168212890625 283.30352783203125 330.80926513671875 C283.06951904296875 329.5017395019531 282.951416015625 328.1733703613281 282.951416015625 326.8432312011719 C282.951416015625 325.5130615234375 283.06951904296875 324.1846923828125 283.30352783203125 322.8771667480469 C283.53753662109375 321.56964111328125 283.8874816894531 320.28289794921875 284.3511962890625 319.03607177734375 C284.7982482910156 317.83404541015625 285.3505859375 316.6720886230469 285.9977722167969 315.5655517578125 C286.6449890136719 314.45904541015625 287.3870544433594 313.407958984375 288.2135925292969 312.42767333984375 C289.8475341796875 310.48974609375 291.7354431152344 308.9200134277344 293.78277587890625 307.7103576660156 C295.83013916015625 306.5007019042969 298.0369567871094 305.65106201171875 300.3088073730469 305.15338134765625 C302.58062744140625 304.6556701660156 304.91748046875 304.5098571777344 307.224853515625 304.7077941894531 C309.5322570800781 304.9057312011719 311.8101806640625 305.44744873046875 313.96417236328125 306.3247375488281 C316.1181640625 307.2020263671875 318.14825439453125 308.4149169921875 319.9599609375 309.9552307128906 C321.77166748046875 311.4955749511719 323.3649597167969 313.36334228515625 324.6454162597656 315.5504150390625 C325.67291259765625 317.305419921875 326.3914489746094 319.1231384277344 326.87567138671875 321.0048522949219 C327.35992431640625 322.8865661621094 327.60986328125 324.832275390625 327.7001647949219 326.8432312011719 L327.7001647949219 326.8432312011719"></path>
<path fill="none" stroke="black" stroke-width=".3" stroke-opacity="1.0"  filling="0" d="M327.7001647949219 326.8432312011719 L327.7001647949219 326.8432312011719 C327.60986328125 328.85418701171875 327.35992431640625 330.7998962402344 326.87567138671875 332.6816101074219 C326.3914489746094 334.56329345703125 325.67291259765625 336.3810119628906 324.6454162597656 338.1360168457031 C323.364990234375 340.3230895996094 321.77166748046875 342.1908874511719 319.9599914550781 343.7312316894531 C318.1482849121094 345.2715759277344 316.11822509765625 346.4844665527344 313.9642028808594 347.36175537109375 C311.8101806640625 348.2390441894531 309.5322570800781 348.7807312011719 307.224853515625 348.9786682128906 C304.9174499511719 349.1766052246094 302.5805969238281 349.03082275390625 300.30877685546875 348.5331115722656 C298.03692626953125 348.035400390625 295.830078125 347.185791015625 293.78271484375 345.9761047363281 C291.7353515625 344.76641845703125 289.84747314453125 343.19671630859375 288.21356201171875 341.2587585449219 C287.38702392578125 340.2784423828125 286.6449890136719 339.2273864746094 285.997802734375 338.1208801269531 C285.3505859375 337.01434326171875 284.79827880859375 335.8524169921875 284.3512268066406 334.650390625 C283.88751220703125 333.4035339355469 283.5375671386719 332.1168212890625 283.30352783203125 330.80926513671875 C283.06951904296875 329.5017395019531 282.951416015625 328.1733703613281 282.951416015625 326.8432312011719 C282.951416015625 325.5130615234375 283.06951904296875 324.1846923828125 283.30352783203125 322.8771667480469 C283.53753662109375 321.56964111328125 283.8874816894531 320.28289794921875 284.3511962890625 319.03607177734375 C284.7982482910156 317.83404541015625 285.3505859375 316.6720886230469 285.9977722167969 315.5655517578125 C286.6449890136719 314.45904541015625 287.3870544433594 313.407958984375 288.2135925292969 312.42767333984375 C289.8475341796875 310.48974609375 291.7354431152344 308.9200134277344 293.78277587890625 307.7103576660156 C295.83013916015625 306.5007019042969 298.0369567871094 305.65106201171875 300.3088073730469 305.15338134765625 C302.58062744140625 304.6556701660156 304.91748046875 304.5098571777344 307.224853515625 304.7077941894531 C309.5322570800781 304.9057312011719 311.8101806640625 305.44744873046875 313.96417236328125 306.3247375488281 C316.1181640625 307.2020263671875 318.14825439453125 308.4149169921875 319.9599609375 309.9552307128906 C321.77166748046875 311.4955749511719 323.3649597167969 313.36334228515625 324.6454162597656 315.5504150390625 C325.67291259765625 317.305419921875 326.3914489746094 319.1231384277344 326.87567138671875 321.0048522949219 C327.35992431640625 322.8865661621094 327.60986328125 324.832275390625 327.7001647949219 326.8432312011719 L327.7001647949219 326.8432312011719"></path>
<path fill="none" stroke="black" stroke-width=".3" stroke-opacity="1.0"  filling="0" d="M229.67288208007812 350.3164367675781 L237.10560607910156 350.3164367675781 L244.538330078125 350.3164367675781 L251.97105407714844 350.31646728515625 L259.40374755859375 350.3164367675781 L266.83648681640625 350.3164367675781 L274.26922607421875 350.3164367675781 L281.7019348144531 350.3164367675781 L289.1346435546875 350.3164367675781 L296.5673828125 350.3164367675781 L304.0000915527344 350.31646728515625 L311.43280029296875 350.3164367675781 L318.86553955078125 350.3164367675781 L326.2982482910156 350.3164367675781 L333.7309875488281 350.3164367675781 L341.1636962890625 350.3164367675781 L348.596435546875 350.3164367675781 L356.0291442871094 350.3164367675781 L363.46185302734375 350.3164367675781 L370.89459228515625 350.3164367675781 L378.32733154296875 350.3164367675781 L385.760009765625 350.3164367675781 L393.1927490234375 350.3164367675781 L400.62548828125 350.31646728515625 L408.0582275390625 350.31646728515625 L415.49090576171875 350.31640625 L422.9236145019531 350.31640625 L430.3563537597656 350.3164367675781 L437.7890625 350.3164367675781 L445.2218017578125 350.3164367675781 L452.65447998046875 350.31640625 L460.08721923828125 350.31640625 L467.5199890136719 350.31646728515625 L474.95269775390625 350.31646728515625 L482.3854064941406 350.3164367675781 L489.818115234375 350.3164367675781 L497.2508544921875 350.3164367675781 L504.68353271484375 350.3164367675781 L512.1162719726562 350.3164367675781 L519.5490112304688 350.3164367675781 L526.9817504882812 350.3164367675781 L534.4144287109375 350.3164367675781 L541.84716796875 350.3164367675781 L549.2799072265625 350.3164367675781 L556.7125854492188 350.3164367675781 L564.1453247070312 350.3164367675781 L571.5780639648438 350.31646728515625 L579.0107421875 350.3164367675781 L586.4435424804688 350.3164367675781 L593.876220703125 350.3164367675781 L601.3088989257812 350.3164367675781 L608.74169921875 350.3164367675781 L616.1743774414062 350.3164367675781 L623.6071166992188 350.31646728515625 L631.039794921875 350.3164367675781 L638.4725952148438 350.3164367675781 L645.9052734375 350.3164367675781 C646.3440551757812 351.9728088378906 646.475830078125 353.7495422363281 646.4076538085938 355.5590515136719 C646.3395385742188 357.3685607910156 646.071533203125 359.2108459472656 645.7108154296875 360.99835205078125 C645.35009765625 362.785888671875 644.896728515625 364.51861572265625 644.4577026367188 366.1089782714844 C643.8409423828125 368.34356689453125 643.1201782226562 370.5475158691406 642.3099975585938 372.7208557128906 C641.4998168945312 374.8941955566406 640.6002807617188 377.03692626953125 639.625732421875 379.1490783691406 C638.6512451171875 381.26123046875 637.601806640625 383.3427734375 636.491943359375 385.3937683105469 C635.382080078125 387.4447326660156 634.2118530273438 389.46514892578125 632.9956665039062 391.4549865722656 C631.779541015625 393.44482421875 630.5174560546875 395.40411376953125 629.2239990234375 397.33282470703125 C627.9305419921875 399.26153564453125 626.605712890625 401.15972900390625 625.2640380859375 403.0273742675781 C623.91015625 404.91192626953125 622.5285034179688 406.7791442871094 621.120849609375 408.6291809082031 C619.713134765625 410.479248046875 618.2794189453125 412.3121337890625 616.8212890625 414.1280822753906 C615.3631591796875 415.94403076171875 613.8806762695312 417.7430419921875 612.37548828125 419.52532958984375 C610.8703002929688 421.3076171875 609.3424072265625 423.0731506347656 607.7935180664062 424.8221740722656 C606.24462890625 426.5711975097656 604.6747436523438 428.3036804199219 603.0855712890625 430.0198669433594 C601.4963989257812 431.7360534667969 599.8878784179688 433.4359130859375 598.26171875 435.1196594238281 C596.6355590820312 436.80340576171875 594.9918212890625 438.4710693359375 593.3320922851562 440.122802734375 C591.67236328125 441.7745666503906 589.9967041015625 443.410400390625 588.3067626953125 445.03057861328125 C586.6168212890625 446.6507568359375 584.91259765625 448.2552490234375 583.1958618164062 449.84423828125 C581.4790649414062 451.4332275390625 579.7496948242188 453.00677490234375 578.0094604492188 454.5650329589844 C576.2692260742188 456.123291015625 574.51806640625 457.666259765625 572.7577514648438 459.1941833496094 C570.9974365234375 460.72210693359375 569.2278442382812 462.2349853515625 567.4507446289062 463.73297119140625 C565.6737060546875 465.2309875488281 563.8890380859375 466.71417236328125 562.0986328125 468.18267822265625 C560.3278198242188 469.6351318359375 558.5382690429688 471.0926513671875 556.7295532226562 472.5464172363281 C554.9208374023438 474.00018310546875 553.093017578125 475.4501647949219 551.2456665039062 476.88751220703125 C549.3983154296875 478.3248596191406 547.5314331054688 479.74957275390625 545.6445922851562 481.1528015136719 C543.7578125 482.5560302734375 541.85107421875 483.937744140625 539.9240112304688 485.28912353515625 C537.9969482421875 486.6404724121094 536.0496215820312 487.96148681640625 534.08154296875 489.2432556152344 C532.1134643554688 490.5250244140625 530.1246948242188 491.767578125 528.1148071289062 492.9620666503906 C526.1048583984375 494.1565246582031 524.0738525390625 495.30291748046875 522.0213623046875 496.392333984375 C519.9688720703125 497.4817810058594 517.8948974609375 498.5142822265625 515.799072265625 499.48095703125 L508.36956787109375 499.48095703125 L500.9400329589844 499.48095703125 L493.510498046875 499.48095703125 L486.08099365234375 499.48095703125 L478.6514892578125 499.48095703125 L471.2219543457031 499.48095703125 L463.79241943359375 499.48095703125 L456.3629150390625 499.48095703125 L448.93341064453125 499.48095703125 L441.5038757324219 499.48095703125 L434.0743408203125 499.48095703125 L426.64483642578125 499.48095703125 L419.2153015136719 499.48095703125 L411.7857666015625 499.48095703125 L404.35626220703125 499.48095703125 L396.9267272949219 499.48095703125 L389.4971923828125 499.48095703125 L382.06768798828125 499.48095703125 L374.6381530761719 499.48095703125 L367.2086486816406 499.48095703125 L359.77911376953125 499.48095703125 C357.66265869140625 498.508056640625 355.58367919921875 497.43463134765625 353.53619384765625 496.29473876953125 C351.48870849609375 495.15484619140625 349.4726867675781 493.9484558105469 347.48211669921875 492.709716796875 C345.4915771484375 491.4709777832031 343.5264892578125 490.1998596191406 341.58087158203125 488.9304504394531 C339.62969970703125 487.6574401855469 337.69512939453125 486.359130859375 335.7765197753906 485.0374755859375 C333.85791015625 483.7158508300781 331.95526123046875 482.3708801269531 330.0679626464844 481.0045471191406 C328.1806640625 479.6382141113281 326.3086853027344 478.25048828125 324.4514465332031 476.84332275390625 C322.59417724609375 475.4361572265625 320.75164794921875 474.00958251953125 318.9232177734375 472.56549072265625 C317.09478759765625 471.1214294433594 315.28045654296875 469.65985107421875 313.4795837402344 468.1827697753906 C311.68914794921875 466.7142639160156 309.9045715332031 465.2310791015625 308.12750244140625 463.7330627441406 C306.3504333496094 462.23504638671875 304.58087158203125 460.7221984863281 302.8205261230469 459.19427490234375 C301.0601806640625 457.6663513183594 299.30902099609375 456.1233825683594 297.56878662109375 454.56512451171875 C295.8285217285156 453.0068664550781 294.0991516113281 451.433349609375 292.3823547363281 449.8443603515625 C290.6655578613281 448.25537109375 288.96136474609375 446.65087890625 287.2713928222656 445.0307312011719 C285.5814514160156 443.4105529785156 283.90576171875 441.77471923828125 282.2460021972656 440.1229553222656 C280.5862731933594 438.47119140625 278.9424743652344 436.8035583496094 277.3163146972656 435.11981201171875 C275.6901550292969 433.4360656738281 274.0816345214844 431.7362060546875 272.492431640625 430.02001953125 C270.9032287597656 428.3038330078125 269.3333435058594 426.57135009765625 267.7844543457031 424.82232666015625 C266.2355651855469 423.07330322265625 264.70770263671875 421.3077392578125 263.2025146484375 419.5254821777344 C261.69732666015625 417.7431945800781 260.21484375 415.9441833496094 258.7567138671875 414.1282043457031 C257.298583984375 412.312255859375 255.86485290527344 410.4793395996094 254.45716857910156 408.6292724609375 C253.04949951171875 406.77923583984375 251.66787719726562 404.91204833984375 250.3140106201172 403.0274658203125 C248.97230529785156 401.1598205566406 247.6474609375 399.2616271972656 246.35401916503906 397.3329162597656 C245.06057739257812 395.4041748046875 243.7985076904297 393.4449157714844 242.5823516845703 391.455078125 C241.36619567871094 389.4652404785156 240.19593811035156 387.44482421875 239.08609008789062 385.39385986328125 C237.9762420654297 383.3428649902344 236.9268035888672 381.2613220214844 235.95228576660156 379.149169921875 C234.977783203125 377.0370178222656 234.07818603515625 374.894287109375 233.26803588867188 372.720947265625 C232.4578857421875 370.547607421875 231.73715209960938 368.3436279296875 231.12039184570312 366.10906982421875 C230.68174743652344 364.51983642578125 230.22801208496094 362.787109375 229.86688232421875 360.99920654296875 C229.50575256347656 359.2113342285156 229.2372283935547 357.3682861328125 229.1689910888672 355.5583801269531 C229.10076904296875 353.74847412109375 229.23281860351562 351.97174072265625 229.67288208007812 350.3164367675781 L229.67288208007812 350.3164367675781"></path></svg>