<svg xmlns="http://www.w3.org/2000/svg" viewBox="0.0 0.0 24.0 24.0" height="200px" width="200px"><path fill="none" stroke="black" stroke-width=".3" stroke-opacity="1.0"  filling="0" d="M6.588768482208252 7.468967914581299 L6.588768482208252 7.468967914581299 C6.347370624542236 8.051843643188477 6.3104248046875 8.771238327026367 5.864574432373047 9.217596054077148 C4.3338847160339355 10.75002670288086 1.644628882408142 9.633066177368164 1.6445283889770508 7.468967914581299 C1.6444278955459595 5.303993225097656 4.334288597106934 4.189367294311523 5.864574432373047 5.72139310836792 C6.310195446014404 6.167520999908447 6.347370624542236 6.886443138122559 6.588768482208252 7.468967914581299 L6.588768482208252 7.468967914581299"></path>
<path fill="none" stroke="black" stroke-width=".3" stroke-opacity="1.0"  filling="0" d="M17.411231994628906 7.468967914581299 L17.411231994628906 7.468967914581299 C17.65265655517578 6.886443138122559 17.689878463745117 6.16752815246582 18.135507583618164 5.72139310836792 C19.665023803710938 4.1901373863220215 22.35859489440918 5.303501129150391 22.35871124267578 7.468967914581299 C22.358827590942383 9.633939743041992 19.665416717529297 10.74908447265625 18.135534286499023 9.217596054077148 C17.689655303955078 8.771248817443848 17.652666091918945 8.051843643188477 17.411231994628906 7.468967914581299 L17.411231994628906 7.468967914581299"></path>
<path fill="none" stroke="black" stroke-width=".3" stroke-opacity="1.0"  filling="0" d="M20.55295181274414 10.520615577697754 L20.55295181274414 10.520615577697754 C21.081764221191406 10.740476608276367 21.734451293945312 10.775221824645996 22.139389038085938 11.180198669433594 C22.54469108581543 11.585539817810059 22.579795837402344 12.238652229309082 22.799999237060547 12.767879486083984 L22.799999237060547 19.00315284729004 L16.96713638305664 19.00315284729004 L16.96713638305664 14.986847877502441 C15.472363471984863 16.07448387145996 14.298797607421875 16.477399826049805 12.470015525817871 16.843151092529297 C11.965691566467285 16.944013595581055 11.29245376586914 16.014062881469727 11.285903930664062 15.895343780517578 C11.20736026763916 14.471762657165527 13.84886646270752 14.372566223144531 14.328584671020508 14.172215461730957 C16.351638793945312 13.327300071716309 17.0943546295166 11.305216789245605 19.214183807373047 10.520615577697754 L20.55295181274414 10.520615577697754"></path>
<path fill="none" stroke="black" stroke-width=".3" stroke-opacity="1.0"  filling="0" d="M10.63315200805664 15.965542793273926 L10.63315200805664 15.965542793273926 C10.736255645751953 16.22243881225586 10.839360237121582 16.47933578491211 10.942463874816895 16.73623275756836 L10.942463874816895 16.73623275756836 C9.382784843444824 16.329694747924805 8.327980995178223 15.921453475952148 7.035888195037842 14.972807884216309 L7.035888195037842 19.00315284729004 L1.2000007629394531 19.00315284729004 L1.2000007629394531 12.767879486083984 C1.420338749885559 12.238643646240234 1.4553979635238647 11.585282325744629 1.8610146045684814 11.180171966552734 C2.266860008239746 10.774832725524902 2.9205307960510254 10.740324020385742 3.450288772583008 10.520400047302246 L4.786248207092285 10.520400047302246 C6.061676502227783 10.99153995513916 6.975796699523926 11.785575866699219 7.906044960021973 12.57459545135498 C8.836292266845703 13.363615036010742 9.782669067382812 14.147619247436523 11.122608184814453 14.598695755004883 L11.122608184814453 14.598695755004883 C10.959456443786621 15.054311752319336 10.796303749084473 15.509926795959473 10.63315200805664 15.965542793273926 L10.63315200805664 15.965542793273926"></path></svg>