<svg xmlns="http://www.w3.org/2000/svg" viewBox="0.0 0.0 24.0 24.0" height="200px" width="200px"><path fill="none" stroke="black" stroke-width=".3" stroke-opacity="1.0"  filling="0" d="M12.362988471984863 4.018152236938477 L14.234627723693848 5.9617204666137695 L13.211004257202148 6.982752323150635 L12.362988471984863 6.982752323150635 L12.362988471984863 4.018152236938477"></path>
<path fill="none" stroke="black" stroke-width=".3" stroke-opacity="1.0"  filling="0" d="M22.284080505371094 4.681921005249023 L22.284080505371094 4.681921005249023 C22.18608856201172 5.2298407554626465 22.088098526000977 5.7777605056762695 21.9901065826416 6.325680255889893 L18.144227981567383 10.157735824584961 L18.144227981567383 16.478866577148438 L18.144227981567383 22.799999237060547 L12.597708702087402 22.799999237060547 L7.0511884689331055 22.799999237060547 L1.5046682357788086 22.799999237060547 L1.5046682357788086 15.600000381469727 L1.5046682357788086 8.40000057220459 L1.5046682357788086 1.2000007629394531 L6.7921319007873535 1.2000007629394531 L12.079595565795898 1.2000007629394531 L15.474900245666504 4.725552558898926 L17.942914962768555 2.265960693359375 C18.49184226989746 2.1698405742645264 19.040771484375 2.0737202167510986 19.589698791503906 1.97760009765625 L22.284080505371094 4.681921005249023"></path>
<path fill="none" stroke="black" stroke-width=".3" stroke-opacity="1.0"  filling="0" d="M12.751140594482422 14.487671852111816 L9.028812408447266 15.995137214660645 L8.228531837463379 15.192047119140625 L9.749387741088867 11.474040031433105 L12.751140594482422 14.487671852111816"></path>
<path fill="none" stroke="black" stroke-width=".3" stroke-opacity="1.0"  filling="0" d="M16.39181900024414 21.049318313598633 L9.823583602905273 21.049318313598633 L3.2553482055664062 21.049318313598633 L3.2553484439849854 15.016438484191895 L3.2553484439849854 8.983559608459473 L3.2553482055664062 2.9506797790527344 L7.1524200439453125 2.9506797790527344 L11.049491882324219 2.9506797790527344 L11.049491882324219 8.295816421508789 L11.892539978027344 8.295816421508789 L10.89613151550293 9.288552284240723 L5.124395847320557 9.288552284240723 L5.124395847320557 10.164648056030273 L10.017443656921387 10.164648056030273 L9.228611946105957 10.950672149658203 L8.421420097351074 12.922103881835938 L5.124395847320557 12.922103881835938 L5.124395847320557 13.798415184020996 L8.062860488891602 13.798415184020996 L6.93425989151001 16.556087493896484 L5.124395847320557 16.556087493896484 L5.124395847320557 17.43218421936035 L9.825851440429688 17.43218421936035 L14.527307510375977 17.43218421936035 L14.527307510375977 16.556087493896484 L9.456924438476562 16.556087493896484 L13.27277946472168 15.010607719421387 L16.39203453063965 11.902800559997559 L16.391925811767578 16.476058959960938 L16.39181900024414 21.049318313598633"></path></svg>