<svg xmlns="http://www.w3.org/2000/svg" viewBox="0.0 0.0 24.0 24.0" height="200px" width="200px"><path fill="none" stroke="black" stroke-width=".3" stroke-opacity="1.0"  filling="0" d="M21.7955322265625 12.4088716506958 L21.7955322265625 12.4088716506958 C21.958391189575195 12.639910697937012 22.333513259887695 12.823670387268066 22.284107208251953 13.101987838745117 C22.22282600402832 13.447206497192383 21.788333892822266 13.597904205322266 21.540447235107422 13.84586238861084 L16.93659019470215 13.84586238861084 C16.605268478393555 13.513962745666504 16.297033309936523 12.913198471069336 16.521671295166016 12.501532554626465 L16.521671295166016 12.501532554626465 C16.19595718383789 12.087188720703125 16.029420852661133 11.465014457702637 15.544526100158691 11.258502006530762 C14.864043235778809 10.968690872192383 14.06527328491211 11.258502006530762 13.325647354125977 11.258502006530762 L13.325647354125977 11.258502006530762 C11.395456314086914 13.47735595703125 9.740830421447754 13.594558715820312 7.882232666015625 11.258502006530762 L7.882232666015625 11.258502006530762 C5.826356410980225 11.258502006530762 3.7704765796661377 11.258502006530762 1.714599609375 11.258502006530762 L1.714599609375 6.821823596954346 C3.562835931777954 6.821823596954346 5.411076545715332 6.821823596954346 7.259313583374023 6.821823596954346 L7.259313583374023 5.398008823394775 C7.506839752197266 5.150266647338867 7.754365921020508 4.902524471282959 8.00189208984375 4.654782295227051 L9.896136283874512 4.654782295227051 L9.896136283874512 3.7422189712524414 C9.763517379760742 3.6262314319610596 9.630898475646973 3.510244131088257 9.498279571533203 3.394256591796875 L9.498279571533203 3.394256591796875 C8.100025177001953 3.394256591796875 6.7017669677734375 3.394256591796875 5.303512096405029 3.394256591796875 L5.303512096405029 3.394256591796875 C4.947774410247803 3.5784971714019775 4.6358208656311035 3.917379379272461 4.236298561096191 3.9469785690307617 C2.452641010284424 4.079123497009277 2.4679975509643555 1.0462003946304321 4.236298561096191 1.2000007629394531 C4.645312309265137 1.2355753183364868 4.960157871246338 1.587633728981018 5.32208776473999 1.7814502716064453 L5.32208776473999 1.7814502716064453 C6.708608150482178 1.7814502716064453 8.095128059387207 1.7814502716064453 9.481648445129395 1.7814502716064453 L9.481648445129395 1.7814502716064453 C9.844442367553711 1.5876338481903076 10.158710479736328 1.2000007629394531 10.570030212402344 1.2000007629394531 C10.982175827026367 1.2000007629394531 11.29748821258545 1.587633728981018 11.66121768951416 1.7814502716064453 L11.66121768951416 1.7814502716064453 C12.916919708251953 1.7814502716064453 14.17262077331543 1.7814502716064453 15.428322792053223 1.7814502716064453 L15.428322792053223 1.7814502716064453 C15.791115760803223 1.587633728981018 16.1069278717041 1.2356153726577759 16.51670265197754 1.2000007629394531 C18.282939910888672 1.046492576599121 18.29867172241211 4.078999996185303 16.516918182373047 3.9474105834960938 C16.115283966064453 3.917748212814331 15.800690650939941 3.5789291858673096 15.442577362060547 3.394688606262207 L15.442577362060547 3.394688606262207 C14.17607593536377 3.394688606262207 12.909575462341309 3.394688606262207 11.643074035644531 3.394688606262207 L11.643074035644531 3.394688606262207 C11.5127592086792 3.510171890258789 11.382444381713867 3.625655174255371 11.252129554748535 3.741138458251953 L11.252129554748535 4.655214786529541 L13.0364351272583 4.655214786529541 C13.284393310546875 4.902956485748291 13.532350540161133 5.150698661804199 13.780308723449707 5.398440361022949 L13.805580139160156 6.822255611419678 C15.326656341552734 6.822255611419678 16.847749710083008 6.822255611419678 18.36882972717285 6.822255611419678 L18.36882972717285 6.822255611419678 C18.954328536987305 6.963505744934082 19.589067459106445 6.97180700302124 20.125328063964844 7.246006488800049 C22.16259002685547 8.287693977355957 21.7955322265625 10.53022289276123 21.7955322265625 12.4088716506958 L21.7955322265625 12.4088716506958"></path>
<path fill="none" stroke="black" stroke-width=".3" stroke-opacity="1.0"  filling="0" d="M19.174476623535156 14.661446571350098 L19.174476623535156 14.661446571350098 C19.81217384338379 16.063949584960938 21.61112403869629 18.74616241455078 21.393356323242188 20.30875587463379 C20.94753074645996 23.507797241210938 17.39885711669922 23.51346206665039 16.956676483154297 20.30875587463379 C16.738780975341797 18.72955894470215 18.493120193481445 16.050273895263672 19.174476623535156 14.661446571350098 L19.174476623535156 14.661446571350098"></path></svg>