<svg xmlns="http://www.w3.org/2000/svg" viewBox="0.0 0.0 24.0 24.0" height="200px" width="200px"><path fill="none" stroke="black" stroke-width=".3" stroke-opacity="1.0"  filling="0" d="M1.2000007629394531 1.2000007629394531 L8.40000057220459 1.2000007629394531 L15.600000381469727 1.2000007629394531 L22.799999237060547 1.2000007629394531 L22.799999237060547 8.40000057220459 L22.799999237060547 15.600000381469727 L22.799999237060547 22.799999237060547 L15.600000381469727 22.799999237060547 L8.40000057220459 22.799999237060547 L1.2000007629394531 22.799999237060547 L1.2000007629394531 15.600000381469727 L1.2000007629394531 8.40000057220459 L1.2000007629394531 1.2000007629394531"></path>
<path fill="none" stroke="black" stroke-width=".3" stroke-opacity="1.0"  filling="0" d="M11.708616256713867 4.79294490814209 L11.708616256713867 8.863032341003418 C11.904239654541016 9.058656692504883 12.09986400604248 9.254280090332031 12.295487403869629 9.449904441833496 L16.420438766479492 9.449904441833496 L20.545391082763672 9.449904441833496 L20.545391082763672 14.549880027770996 L16.42108726501465 14.549880027770996 L12.296784400939941 14.549880027770996 C12.100944519042969 14.745359420776367 11.90510368347168 14.940839767456055 11.709263801574707 15.136319160461426 L11.709263801574707 19.207054138183594 L7.725792407989502 15.603635787963867 L3.742321014404297 12.000216484069824 L7.725468635559082 8.396580696105957 L11.708616256713867 4.79294490814209"></path>
<path fill="none" stroke="black" stroke-width=".3" stroke-opacity="1.0"  filling="0" d="M2.2799997329711914 12.000216484069824 L2.2799997329711914 12.000216484069824 C2.3443679809570312 11.854991912841797 2.408736228942871 11.709768295288086 2.473104476928711 11.564543724060059 L7.187628269195557 7.299840450286865 L11.902152061462402 3.035137176513672 C12.25539493560791 2.9784581661224365 12.687875747680664 3.170656681060791 12.883224487304688 3.4703760147094727 L12.883224487304688 8.276376724243164 L17.00785255432129 8.276376724243164 L21.13248062133789 8.276376724243164 C21.328319549560547 8.472000122070312 21.524160385131836 8.667624473571777 21.719999313354492 8.863247871398926 L21.719999313354492 15.136319160461426 C21.524160385131836 15.332159042358398 21.328319549560547 15.527999877929688 21.13248062133789 15.72383975982666 L17.00785255432129 15.72383975982666 L12.883224487304688 15.72383975982666 L12.883224487304688 20.529624938964844 C12.688283920288086 20.829513549804688 12.256001472473145 21.022157669067383 11.902800559997559 20.965728759765625 L7.187952518463135 16.700916290283203 L2.473104476928711 12.436103820800781 C2.408736228942871 12.290807723999023 2.3443679809570312 12.145512580871582 2.2799997329711914 12.000216484069824 L2.2799997329711914 12.000216484069824"></path></svg>