<svg xmlns="http://www.w3.org/2000/svg" viewBox="0.0 0.0 24.0 24.0" height="200px" width="200px"><path fill="none" stroke="black" stroke-width=".3" stroke-opacity="1.0"  filling="0" d="M5.642389297485352 3.2157726287841797 L5.642389297485352 3.2157726287841797 C5.308377265930176 3.91732120513916 5.032436370849609 4.646824836730957 4.785059452056885 5.383397579193115 L2.8896026611328125 2.9598045349121094 L6.213078022003174 2.330145835876465 C6.022848606109619 2.625354766845703 5.832618713378906 2.9205636978149414 5.642389297485352 3.2157726287841797 L5.642389297485352 3.2157726287841797"></path>
<path fill="none" stroke="black" stroke-width=".3" stroke-opacity="1.0"  filling="0" d="M6.262759685516357 3.546262741088867 L6.262759685516357 3.546262741088867 C6.639330863952637 3.0665123462677 7.015902519226074 2.5867621898651123 7.3924736976623535 2.1070117950439453 L7.863799571990967 2.018016815185547 C7.527925491333008 3.640300750732422 6.764945983886719 5.190690994262695 5.452735900878906 6.238783359527588 L5.396574020385742 6.166204929351807 C5.543361663818359 5.258187770843506 5.90159273147583 4.3921942710876465 6.262759685516357 3.546262741088867 L6.262759685516357 3.546262741088867"></path>
<path fill="none" stroke="black" stroke-width=".3" stroke-opacity="1.0"  filling="0" d="M22.136642456054688 5.14060640335083 L22.136642456054688 5.14060640335083 C21.788658142089844 6.680206298828125 21.248973846435547 7.9765729904174805 20.3625431060791 8.767613410949707 C19.476112365722656 9.55865478515625 18.242931365966797 9.844369888305664 16.50794792175293 9.362668991088867 C15.764041900634766 9.15613079071045 14.497138977050781 8.090235710144043 13.692302703857422 7.955386638641357 C12.53558349609375 7.761579990386963 11.314849853515625 8.226505279541016 10.173772811889648 7.955386638641357 C8.800036430358887 7.628988742828369 7.2797675132751465 7.205508232116699 5.8687639236450195 6.817248344421387 L5.8687639236450195 6.817248344421387 C5.7235517501831055 6.860985279083252 5.584518909454346 6.948148727416992 5.432862758636475 6.948148727416992 L5.432862758636475 6.948148727416992 C5.274655342102051 6.906868934631348 5.0949506759643555 6.873986721038818 4.981409549713135 6.7563347816467285 L4.885934829711914 6.6569719314575195 C4.856269836425781 6.618594646453857 4.826605319976807 6.5802178382873535 4.796940326690674 6.541840553283691 L2.43404483795166 3.5194778442382812 L2.43404483795166 9.946247100830078 L2.43404483795166 16.373014450073242 L2.43404483795166 22.79978370666504 L1.7298641204833984 22.79978370666504 L1.729864239692688 15.975058555603027 L1.729864239692688 9.150334358215332 L1.7298641204833984 2.3256092071533203 L7.104537010192871 1.4453840255737305 C7.9931230545043945 1.1317006349563599 8.10323715209961 1.0766966342926025 8.569276809692383 1.904397964477539 L8.569276809692383 1.904397964477539 C9.869373321533203 2.245828628540039 11.476494789123535 2.91322922706604 12.800163269042969 3.090329170227051 C14.00709056854248 3.251809597015381 15.307144165039062 2.973672389984131 16.43777084350586 3.425812244415283 C16.99190330505371 3.6474111080169678 17.374008178710938 4.185577392578125 17.91522789001465 4.437073707580566 C19.129507064819336 5.001328945159912 20.819307327270508 5.0316290855407715 22.136642456054688 5.14060640335083 L22.136642456054688 5.14060640335083"></path></svg>