<svg xmlns="http://www.w3.org/2000/svg" viewBox="0.0 0.0 24.0 24.0" height="200px" width="200px"><path fill="none" stroke="black" stroke-width=".3" stroke-opacity="1.0"  filling="0" d="M1.2000007629394531 1.2000007629394531 L8.40000057220459 1.2000007629394531 L15.600000381469727 1.2000007629394531 L22.799999237060547 1.2000007629394531 L22.799999237060547 8.40000057220459 L22.799999237060547 15.600000381469727 L22.799999237060547 22.799999237060547 L15.600000381469727 22.799999237060547 L8.40000057220459 22.799999237060547 L1.2000007629394531 22.799999237060547 L1.2000007629394531 15.600000381469727 L1.2000007629394531 8.40000057220459 L1.2000007629394531 1.2000007629394531"></path>
<path fill="none" stroke="black" stroke-width=".3" stroke-opacity="1.0"  filling="0" d="M12.000648498535156 2.281296730041504 L12.000648498535156 2.281296730041504 C13.645201683044434 2.447568416595459 15.17742919921875 2.8054442405700684 16.539527893066406 3.4788379669189453 C17.901626586914062 4.152231693267822 19.09359359741211 5.141143321990967 20.057628631591797 6.569486618041992 C21.482290267944336 8.680310249328613 21.91010284423828 11.067164421081543 21.564620971679688 13.311492919921875 C21.219139099121094 15.555821418762207 20.10036277770996 17.657623291015625 18.431848526000977 19.198345184326172 C16.763334274291992 20.739065170288086 14.545082092285156 21.718704223632812 12.000648498535156 21.718704223632812 C9.45620059967041 21.718704223632812 7.237710475921631 20.7391300201416 5.5689263343811035 19.19847297668457 C3.900141716003418 17.657817840576172 2.7810628414154053 15.55607795715332 2.435436964035034 13.311750411987305 C2.089811325073242 11.067421913146973 2.5176384449005127 8.680502891540527 3.942666530609131 6.56948709487915 C4.9068803787231445 5.141114234924316 6.099039554595947 4.152200698852539 7.461313247680664 3.478813648223877 C8.823586463928223 2.8054263591766357 10.355975151062012 2.4475650787353516 12.000648498535156 2.281296730041504 L12.000648498535156 2.281296730041504"></path>
<path fill="none" stroke="black" stroke-width=".3" stroke-opacity="1.0"  filling="0" d="M12.818855285644531 8.573160171508789 L12.818855285644531 15.426838874816895 C12.545903205871582 15.700006484985352 12.386164665222168 16.246341705322266 12.0 16.246341705322266 C11.613987922668457 16.246341705322266 11.454527854919434 15.700006484985352 11.181792259216309 15.426838874816895 L11.181792259216309 8.573160171508789 C11.454527854919434 8.299991607666016 11.61398696899414 7.753655910491943 12.0 7.753655910491943 C12.386164665222168 7.753655910491943 12.545903205871582 8.299991607666016 12.818855285644531 8.573160171508789 L12.818855285644531 8.573160171508789"></path>
<path fill="none" stroke="black" stroke-width=".3" stroke-opacity="1.0"  filling="0" d="M12.000648498535156 20.39916229248047 L12.000648498535156 20.39916229248047 C10.37999153137207 20.212011337280273 8.872217178344727 19.809764862060547 7.58031702041626 19.066862106323242 C6.288416385650635 18.323957443237305 5.212389945983887 17.240394592285156 4.455229759216309 15.69061279296875 C3.5620944499969482 13.86251163482666 3.424567699432373 11.909692764282227 3.8642125129699707 10.118423461914062 C4.303857326507568 8.327154159545898 5.320673942565918 6.697434425354004 6.736225605010986 5.51553201675415 C8.151777267456055 4.333629608154297 9.966063499450684 3.5995445251464844 12.000648498535156 3.5995445251464844 C14.035115242004395 3.5995445251464844 15.849265098571777 4.3336992263793945 17.264692306518555 5.51566743850708 C18.680118560791016 6.697635650634766 19.696821212768555 8.327418327331543 20.136394500732422 10.118673324584961 C20.57596778869629 11.909929275512695 20.438411712646484 13.86265754699707 19.545320510864258 15.690518379211426 C18.788192749023438 17.2401065826416 17.712289810180664 18.32367515563965 16.420536041259766 19.066640853881836 C15.1287841796875 19.809608459472656 13.621179580688477 20.21197509765625 12.000648498535156 20.39916229248047 L12.000648498535156 20.39916229248047"></path></svg>