<svg xmlns="http://www.w3.org/2000/svg" viewBox="0.0 0.0 24.0 24.0" height="200px" width="200px"><path fill="none" stroke="black" stroke-width=".3" stroke-opacity="1.0"  filling="0" d="M1.2000007629394531 1.7517719268798828 L8.082300186157227 1.7517719268798828 L14.964599609375 1.7517719268798828 L14.964599609375 5.981807708740234 L14.964599609375 10.211843490600586 L8.082300186157227 10.211843490600586 L1.2000007629394531 10.211843490600586 L1.2000007629394531 5.981807708740234 L1.2000007629394531 1.7517719268798828"></path>
<path fill="none" stroke="black" stroke-width=".3" stroke-opacity="1.0"  filling="0" d="M16.79973602294922 7.428468227386475 L16.79973602294922 4.726092338562012 L18.90033531188965 4.726092338562012 L19.798246383666992 7.428468227386475 L16.79973602294922 7.428468227386475"></path>
<path fill="none" stroke="black" stroke-width=".3" stroke-opacity="1.0"  filling="0" d="M20.698101043701172 7.428468227386475 L22.799999237060547 8.328107833862305 L22.799999237060547 12.075923919677734 L21.00071907043457 12.075923919677734 C20.870752334594727 10.24145793914795 18.685230255126953 8.959040641784668 17.15802764892578 10.48521900177002 C16.75202178955078 10.890952110290527 16.71843147277832 11.54568862915039 16.498634338378906 12.075923919677734 L9.48684024810791 12.075923919677734 C9.335280418395996 11.626068115234375 9.183719635009766 11.1762113571167 9.032159805297852 10.72635555267334 L15.738096237182617 10.72635555267334 L15.738096237182617 6.826475620269775 L15.738096237182617 2.926595687866211 L19.498872756958008 2.926595687866211 L19.498872756958008 3.8262367248535156 L20.698101043701172 7.428468227386475"></path>
<path fill="none" stroke="black" stroke-width=".3" stroke-opacity="1.0"  filling="0" d="M7.239144325256348 10.428709030151367 L7.239144325256348 10.428709030151367 C7.627377033233643 10.589574813842773 8.106687545776367 10.614151000976562 8.40384292602539 10.911306381225586 C9.423675537109375 11.931138038635254 8.682992935180664 13.726595878601074 7.239144325256348 13.726595878601074 C5.7955546379089355 13.726595878601074 5.047530174255371 11.933134078979492 6.071502208709717 10.911306381225586 C6.369610786437988 10.613821983337402 6.849930286407471 10.589574813842773 7.239144325256348 10.428709030151367 L7.239144325256348 10.428709030151367"></path>
<path fill="none" stroke="black" stroke-width=".3" stroke-opacity="1.0"  filling="0" d="M18.74956703186035 10.428709030151367 L18.74956703186035 10.428709030151367 C19.138349533081055 10.589574813842773 19.618087768554688 10.614104270935059 19.915912628173828 10.911306381225586 C20.939441680908203 11.93269157409668 20.194053649902344 13.726595878601074 18.74956703186035 13.726595878601074 C17.305978775024414 13.726595878601074 16.557954788208008 11.933134078979492 17.581926345825195 10.911306381225586 C17.880033493041992 10.613822937011719 18.360353469848633 10.589574813842773 18.74956703186035 10.428709030151367 L18.74956703186035 10.428709030151367"></path>
<path fill="none" stroke="black" stroke-width=".3" stroke-opacity="1.0"  filling="0" d="M1.2000007629394531 11.645652770996094 L1.2000007629394531 10.726572036743164 L5.441376209259033 10.726572036743164 C5.29032039642334 11.176427841186523 5.1392645835876465 11.6262845993042 4.988208770751953 12.076140403747559 L2.8990564346313477 12.076140403747559 L1.2000007629394531 11.645652770996094"></path>
<path fill="none" stroke="black" stroke-width=".3" stroke-opacity="1.0"  filling="0" d="M7.239144325256348 12.97577953338623 L7.239144325256348 12.97577953338623 C6.938112258911133 12.675827980041504 6.336048126220703 12.500884056091309 6.336048126220703 12.075923919677734 C6.336048126220703 11.65096378326416 6.814183712005615 11.176068305969238 7.239144325256348 11.176068305969238 C7.663289546966553 11.176068305969238 8.138784408569336 11.651779174804688 8.138784408569336 12.075923919677734 C8.138784408569336 12.500068664550781 7.539024353027344 12.675827980041504 7.239144325256348 12.97577953338623 L7.239144325256348 12.97577953338623"></path>
<path fill="none" stroke="black" stroke-width=".3" stroke-opacity="1.0"  filling="0" d="M18.74956703186035 12.97577953338623 L18.74956703186035 12.97577953338623 C18.449687957763672 12.675827980041504 17.84992790222168 12.500068664550781 17.84992790222168 12.075923919677734 C17.84992790222168 10.876116752624512 19.649208068847656 10.876116752624512 19.649208068847656 12.075923919677734 C19.649208068847656 12.500069618225098 19.049448013305664 12.675827980041504 18.74956703186035 12.97577953338623 L18.74956703186035 12.97577953338623"></path>
<path fill="none" stroke="black" stroke-width=".3" stroke-opacity="1.0"  filling="0" d="M18.301366806030273 22.24822998046875 L18.301366806030273 21.03430938720703 L12.600912094116211 21.03430938720703 L6.900456428527832 21.03430938720703 L1.2000007629394531 21.03430938720703 L1.2000007629394531 16.06328582763672 L6.900456428527832 16.06328582763672 L12.600912094116211 16.06328582763672 L18.301366806030273 16.06328582763672 L18.301366806030273 14.810699462890625 L22.799999237060547 18.529573440551758 L18.301366806030273 22.24822998046875"></path></svg>