<svg xmlns="http://www.w3.org/2000/svg" viewBox="0.0 0.0 24.0 24.0" height="200px" width="200px"><path fill="none" stroke="black" stroke-width=".3" stroke-opacity="1.0"  filling="0" d="M9.340824127197266 7.716611862182617 L9.340824127197266 7.716611862182617 C9.116040229797363 7.581252098083496 9.073478698730469 7.2042059898376465 9.14944839477539 6.953051567077637 L12.830951690673828 4.980108261108398 C13.089448928833008 5.058298587799072 13.291556358337402 5.435951232910156 13.213272094726562 5.694419860839844 L9.531768798828125 7.667364120483398 C9.468120574951172 7.683780193328857 9.404472351074219 7.700195789337158 9.340824127197266 7.716611862182617 L9.340824127197266 7.716611862182617"></path>
<path fill="none" stroke="black" stroke-width=".3" stroke-opacity="1.0"  filling="0" d="M14.286575317382812 8.231339454650879 L14.286575317382812 8.231339454650879 C14.151071548461914 8.366771697998047 14.015567779541016 8.502203941345215 13.880064010620117 8.637636184692383 L10.65712833404541 8.637636184692383 C10.465497016906738 8.44610595703125 10.465547561645508 8.01640796661377 10.65712833404541 7.824827671051025 L13.880064010620117 7.824827671051025 C14.015567779541016 7.960331439971924 14.151071548461914 8.09583568572998 14.286575317382812 8.231339454650879 L14.286575317382812 8.231339454650879"></path>
<path fill="none" stroke="black" stroke-width=".3" stroke-opacity="1.0"  filling="0" d="M5.795616149902344 11.046467781066895 L5.795616149902344 11.046467781066895 C5.237436294555664 10.816337585449219 4.548758029937744 10.782238960266113 4.1210761070251465 10.356078147888184 C2.6500961780548096 8.890331268310547 3.7275679111480713 6.324225902557373 5.795616149902344 6.324275970458984 C7.863531112670898 6.324326038360596 8.926017761230469 8.894465446472168 7.464351654052734 10.355997085571289 C7.03866720199585 10.781641960144043 6.351861476898193 10.81631088256836 5.795616149902344 11.046467781066895 L5.795616149902344 11.046467781066895"></path>
<path fill="none" stroke="black" stroke-width=".3" stroke-opacity="1.0"  filling="0" d="M18.207191467285156 11.046467781066895 L18.207191467285156 11.046467781066895 C17.649633407592773 10.816337585449219 16.961557388305664 10.78206729888916 16.534515380859375 10.356078147888184 C15.066471099853516 8.891653060913086 16.13909912109375 6.324225902557373 18.207191467285156 6.324275970458984 C20.27593421936035 6.324326038360596 21.333154678344727 8.895671844482422 19.87363052368164 10.355997085571289 C19.448583602905273 10.781278610229492 18.762670516967773 10.81631088256836 18.207191467285156 11.046467781066895 L18.207191467285156 11.046467781066895"></path>
<path fill="none" stroke="black" stroke-width=".3" stroke-opacity="1.0"  filling="0" d="M13.379591941833496 11.249075889587402 L13.379591941833496 11.249075889587402 C13.21594524383545 11.347719192504883 13.016000747680664 11.462800025939941 12.830951690673828 11.415180206298828 L9.14944839477539 9.442235946655273 C9.071229934692383 9.183645248413086 9.273422241210938 8.80601978302002 9.531984329223633 8.727707862854004 L13.21348762512207 10.700652122497559 C13.268856048583984 10.88346004486084 13.324223518371582 11.066267967224121 13.379591941833496 11.249075889587402 L13.379591941833496 11.249075889587402"></path>
<path fill="none" stroke="black" stroke-width=".3" stroke-opacity="1.0"  filling="0" d="M6.020688533782959 11.600507736206055 L6.020688533782959 11.600507736206055 C6.622493743896484 11.67724609375 7.2447733879089355 11.65719223022461 7.826104164123535 11.830723762512207 C9.232521057128906 12.25054931640625 9.819600105285645 13.507512092590332 10.08204174041748 14.93600082397461 C10.344484329223633 16.364490509033203 10.28228759765625 17.964506149291992 10.390151977539062 19.070436477661133 L8.772960662841797 19.070436477661133 L8.401655197143555 15.231468200683594 L8.284799575805664 19.070436477661133 L3.3053531646728516 19.070436477661133 L3.1884965896606445 15.231468200683594 L2.8171920776367188 19.070436477661133 L1.2000007629394531 19.070436477661133 C1.307271957397461 17.964797973632812 1.2447292804718018 16.364892959594727 1.5068891048431396 14.936387062072754 C1.7690489292144775 13.507880210876465 2.3559112548828125 12.250770568847656 3.7619924545288086 11.830723762512207 C4.342979907989502 11.657161712646484 4.9649577140808105 11.67724609375 5.566440105438232 11.600507736206055 L6.020688533782959 11.600507736206055"></path>
<path fill="none" stroke="black" stroke-width=".3" stroke-opacity="1.0"  filling="0" d="M22.113765716552734 13.50476360321045 L22.113765716552734 13.50476360321045 C22.465383529663086 15.346864700317383 22.6182861328125 17.205097198486328 22.799999237060547 19.07065200805664 L21.182592391967773 19.07065200805664 L20.81128692626953 15.231683731079102 L20.69464683532715 19.07065200805664 L15.714983940124512 19.07065200805664 L15.598342895507812 15.231683731079102 L15.2255277633667 19.07065200805664 L13.609848022460938 19.07065200805664 C13.718082427978516 17.964384078979492 13.655800819396973 16.36435317993164 13.918095588684082 14.93593978881836 C14.180389404296875 13.507527351379395 14.767261505126953 12.250733375549316 16.17380142211914 11.830939292907715 C16.755170822143555 11.657424926757812 17.37747573852539 11.677461624145508 17.979312896728516 11.600723266601562 L18.432048797607422 11.600723266601562 C20.342226028442383 11.844414710998535 21.008790969848633 11.94630241394043 22.113765716552734 13.50476360321045 L22.113765716552734 13.50476360321045"></path></svg>