<svg xmlns="http://www.w3.org/2000/svg" viewBox="0.0 0.0 24.0 24.0" height="200px" width="200px"><path fill="none" stroke="black" stroke-width=".3" stroke-opacity="1.0"  filling="0" d="M16.63751983642578 3.1461610794067383 L16.63751983642578 3.1461610794067383 C16.4472599029541 3.6054487228393555 16.418033599853516 4.172262191772461 16.066740036010742 4.52402400970459 C14.860954284667969 5.731415271759033 12.739367485046387 4.852442741394043 12.739367485046387 3.1461610794067383 C12.739367485046387 1.4410357475280762 14.861854553222656 0.5638951063156128 16.066740036010742 1.7686474323272705 C16.418210983276367 2.12007999420166 16.4472599029541 2.6869897842407227 16.63751983642578 3.1461610794067383 L16.63751983642578 3.1461610794067383"></path>
<path fill="none" stroke="black" stroke-width=".3" stroke-opacity="1.0"  filling="0" d="M15.714767456054688 14.095199584960938 L15.714767456054688 18.256330490112305 L15.714767456054688 22.417461395263672 C15.534439086914062 22.59779167175293 15.130024909973145 22.59779167175293 14.949695587158203 22.417461395263672 L14.949695587158203 18.256330490112305 L14.949695587158203 14.095199584960938 C14.749032020568848 13.895112037658691 14.631078720092773 13.494935989379883 14.34770393371582 13.494935989379883 C14.288500785827637 13.494935989379883 13.524188995361328 14.4764404296875 13.366199493408203 14.4764404296875 C12.804169654846191 14.4764404296875 13.4946928024292 13.317682266235352 13.803384780883789 12.848015785217285 L13.803384780883789 12.848015785217285 C12.985923767089844 11.399923324584961 12.441319465637207 10.097822189331055 12.006263732910156 8.495616912841797 L10.260120391845703 13.442879676818848 C10.257311820983887 13.445183753967285 10.254504203796387 13.447487831115723 10.25169563293457 13.44979190826416 L10.25169563293457 13.44979190826416 C10.721258163452148 15.338330268859863 10.877992630004883 17.330686569213867 10.624577522277832 19.266963958740234 C10.51434326171875 20.109235763549805 10.466442108154297 20.990793228149414 10.113887786865234 21.76363182067871 C9.919564247131348 22.189611434936523 9.159372329711914 22.808008193969727 8.879015922546387 22.433013916015625 C8.136665344238281 21.440074920654297 8.544903755187988 19.95128631591797 8.680890083312988 18.719003677368164 C8.835400581359863 17.31885528564453 8.822722434997559 15.463739395141602 8.364503860473633 14.085479736328125 C7.764150142669678 12.279698371887207 7.28226900100708 12.019946098327637 7.368600368499756 10.111352920532227 C7.413618564605713 9.11610221862793 8.236971855163574 7.259727954864502 9.358121871948242 5.942795753479004 C10.479272842407227 4.625864028930664 11.898221969604492 3.8483731746673584 13.134431838989258 5.01088809967041 C13.844805717468262 5.6789140701293945 13.23427677154541 6.968080043792725 13.4485502243042 7.919382572174072 C13.860223770141602 9.747072219848633 15.194437026977539 11.278374671936035 15.247991561889648 13.086912155151367 L15.247991561889648 13.086912155151367 C15.403583526611328 13.42300796508789 15.559175491333008 13.759103775024414 15.714767456054688 14.095199584960938 L15.714767456054688 14.095199584960938"></path></svg>