<svg xmlns="http://www.w3.org/2000/svg" viewBox="0.0 0.0 24.0 24.0" height="200px" width="200px"><path fill="none" stroke="black" stroke-width=".3" stroke-opacity="1.0"  filling="0" d="M12.0028076171875 1.2000007629394531 L12.0028076171875 1.2000007629394531 C12.434609413146973 1.379172682762146 12.968011856079102 1.406575083732605 13.298213958740234 1.7375166416168213 C14.431222915649414 2.873063087463379 13.610799789428711 4.870272159576416 12.0028076171875 4.870272159576416 C10.395014762878418 4.870272159576416 9.563517570495605 2.876117467880249 10.703055381774902 1.7375166416168213 C11.034709930419922 1.4061347246170044 11.569557189941406 1.379172682762146 12.0028076171875 1.2000007629394531 L12.0028076171875 1.2000007629394531"></path>
<path fill="none" stroke="black" stroke-width=".3" stroke-opacity="1.0"  filling="0" d="M15.03609561920166 6.777120113372803 L15.03609561920166 6.777120113372803 C15.396402359008789 8.83263111114502 15.557153701782227 10.911623001098633 15.735071182250977 12.98971176147461 L15.735071182250977 12.98971176147461 C15.552263259887695 13.215720176696777 15.381416320800781 13.451950073242188 15.186647415161133 13.667736053466797 C14.99191665649414 13.883480072021484 14.72474193572998 13.313868522644043 14.50883960723877 13.119312286376953 L14.025216102600098 8.11999225616455 L13.905550956726074 12.001296043395996 L14.082023620605469 17.015953063964844 L14.258495330810547 22.030609130859375 C14.035871505737305 22.286136627197266 13.821918487548828 22.54948616027832 13.59062385559082 22.797191619873047 C13.358333587646484 23.045963287353516 13.066875457763672 22.36185646057129 12.81712818145752 22.130615234375 L12.408563613891602 18.00048065185547 L12.0 13.870344161987305 L11.591543197631836 18.00048065185547 L11.183087348937988 22.130615234375 C10.933340072631836 22.36185646057129 10.641881942749023 23.045963287353516 10.409591674804688 22.797191619873047 C10.17829704284668 22.54948616027832 9.964344024658203 22.286136627197266 9.741720199584961 22.030609130859375 L9.918191909790039 17.01605987548828 L10.094664573669434 12.00151252746582 L9.975000381469727 8.120207786560059 L9.491375923156738 13.119527816772461 C9.275473594665527 13.31408405303955 9.008298873901367 13.883695602416992 8.813568115234375 13.667951583862305 C8.618800163269043 13.452165603637695 8.447952270507812 13.215935707092285 8.265144348144531 12.989928245544434 L8.265144348144531 12.989928245544434 C8.342432022094727 12.086715698242188 8.260919570922852 10.518589973449707 8.407779693603516 9.048155784606934 C8.55463981628418 7.57772159576416 8.929872512817383 6.2049784660339355 9.920649528503418 5.692530632019043 C10.496293067932129 5.394797325134277 11.189811706542969 5.42933464050293 11.824392318725586 5.297736644744873 L12.175824165344238 5.297736644744873 C13.226863861083984 5.5156989097595215 14.326102256774902 5.972072601318359 15.03609561920166 6.777120113372803 L15.03609561920166 6.777120113372803"></path></svg>