<svg xmlns="http://www.w3.org/2000/svg" viewBox="0.0 0.0 24.0 24.0" height="200px" width="200px"><path fill="none" stroke="black" stroke-width=".3" stroke-opacity="1.0"  filling="0" d="M9.06423568725586 4.513009071350098 L9.06423568725586 4.513009071350098 C9.204347610473633 4.008648872375488 9.344460487365723 3.504288673400879 9.484572410583496 2.9999284744262695 L9.484572410583496 2.9999284744262695 C9.660648345947266 2.5756595134735107 9.68759822845459 2.0515449047088623 10.012800216674805 1.7271214723587036 C12.21939468383789 -0.4741891622543335 14.8180513381958 4.3900837898254395 11.288820266723633 4.8054728507995605 C10.97835636138916 4.842014312744141 10.690644264221191 4.623600482940674 10.391555786132812 4.5326642990112305 L10.391555786132812 4.5326642990112305 C9.949115753173828 4.5261125564575195 9.506675720214844 4.519560813903809 9.06423568725586 4.513009071350098 L9.06423568725586 4.513009071350098"></path>
<path fill="none" stroke="black" stroke-width=".3" stroke-opacity="1.0"  filling="0" d="M16.19525909423828 10.672463417053223 L16.19525909423828 10.672463417053223 C15.897047996520996 11.673364639282227 15.29466438293457 12.62716007232666 14.504842758178711 13.31047248840332 L14.504842758178711 13.31047248840332 C14.494794845581055 14.069986343383789 14.488635063171387 14.829879760742188 14.4530029296875 15.588624000549316 L12.164916038513184 15.588624000549316 L11.795124053955078 22.366920471191406 C11.59091854095459 22.570415496826172 11.13344669342041 22.57143211364746 10.930259704589844 22.366920471191406 L10.558956146240234 15.588624000549316 L9.612659454345703 15.588624000549316 L9.918516159057617 11.786160469055176 L10.224371910095215 7.983696460723877 L8.944571495056152 13.341575622558594 C8.731306076049805 13.511106491088867 8.421015739440918 13.987876892089844 8.251428604125977 13.774656295776367 C8.08198356628418 13.561614036560059 7.9635725021362305 13.312560081481934 7.819644451141357 13.081512451171875 L7.819644451141357 13.081512451171875 C8.204030990600586 10.949148178100586 8.600130081176758 8.832206726074219 9.216084480285645 6.753360271453857 L9.216084480285645 6.750552177429199 C9.216516494750977 6.7500481605529785 9.216948509216309 6.749544620513916 9.21738052368164 6.749040603637695 L9.21738052368164 6.749040603637695 C10.81601333618164 3.9997050762176514 12.72547435760498 5.672530174255371 13.818611145019531 7.812191963195801 L13.818611145019531 7.812191963195801 C15.4157133102417 8.517223358154297 15.788640975952148 8.974203109741211 16.19525909423828 10.672463417053223 L16.19525909423828 10.672463417053223"></path>
<path fill="none" stroke="black" stroke-width=".3" stroke-opacity="1.0"  filling="0" d="M14.161835670471191 11.751168251037598 L14.161835670471191 11.751168251037598 C13.743659973144531 11.267904281616211 13.080427169799805 10.916555404663086 12.907307624816895 10.301376342773438 C12.822999954223633 10.001789093017578 13.259552955627441 9.681366920471191 13.568267822265625 9.641927719116211 C13.824705123901367 9.609167098999023 13.963979721069336 9.974712371826172 14.161835670471191 10.141104698181152 L14.161835670471191 10.141104698181152 C14.359620094299316 9.974712371826172 14.498801231384277 9.609201431274414 14.75518798828125 9.641927719116211 C15.064209938049316 9.68137264251709 15.501805305480957 10.001486778259277 15.41744327545166 10.301376342773438 C15.244318008422852 10.91679859161377 14.580371856689453 11.267904281616211 14.161835670471191 11.751168251037598 L14.161835670471191 11.751168251037598"></path></svg>