<svg xmlns="http://www.w3.org/2000/svg" viewBox="0.0 0.0 24.0 24.0" height="200px" width="200px"><path fill="none" stroke="black" stroke-width=".3" stroke-opacity="1.0"  filling="0" d="M13.802844047546387 3.00424861907959 L13.802844047546387 3.00424861907959 C13.626822471618652 3.4291205406188965 13.600107192993164 3.9538087844848633 13.274778366088867 4.27886438369751 C12.158578872680664 5.394127368927002 10.19710636138916 4.582886695861816 10.19715690612793 3.00424861907959 C10.1972074508667 1.4252774715423584 12.157224655151367 0.6099530458450317 13.274697303771973 1.7282286882400513 C13.600085258483887 2.0538508892059326 13.626794815063477 2.578908681869507 13.802844047546387 3.00424861907959 L13.802844047546387 3.00424861907959"></path>
<path fill="none" stroke="black" stroke-width=".3" stroke-opacity="1.0"  filling="0" d="M16.183380126953125 12.275615692138672 L16.183380126953125 12.275615692138672 C16.039020538330078 12.505295753479004 15.919354438781738 12.752492904663086 15.750299453735352 12.964655876159668 C15.581059455871582 13.177051544189453 15.271042823791504 12.703378677368164 15.058452606201172 12.534383773803711 L13.77865219116211 7.985208511352539 L14.399435997009277 11.786916732788086 L15.020219802856445 15.588624000549316 L13.823579788208008 15.588624000549316 L13.450764656066895 22.36821746826172 C13.247991561889648 22.57303810119629 12.791178703308105 22.57074546813965 12.586116790771484 22.36821746826172 L12.217619895935059 15.588624000549316 L11.781731605529785 15.588624000549316 L11.413236618041992 22.36821746826172 C11.208173751831055 22.57074546813965 10.751361846923828 22.57303810119629 10.548588752746582 22.36821746826172 L10.17598819732666 15.588624000549316 L8.977836608886719 15.588624000549316 L9.59948444366455 11.786916732788086 L10.221132278442383 7.985208511352539 L8.941332817077637 12.534168243408203 C8.728741645812988 12.703163146972656 8.418756484985352 13.176811218261719 8.249484062194824 12.96444034576416 C8.080435752868652 12.752349853515625 7.960764408111572 12.505224227905273 7.816404342651367 12.275615692138672 L7.816404342651367 12.275615692138672 C8.21501350402832 10.410232543945312 8.6559476852417 8.579288482666016 9.212843894958496 6.7546563148498535 L9.212843894958496 6.751847743988037 C9.882049560546875 5.302394866943359 10.309621810913086 5.607176780700684 11.822772979736328 5.272464275360107 L12.17701244354248 5.272464275360107 C13.690165519714355 5.607177257537842 14.117734909057617 5.302394866943359 14.786940574645996 6.751847743988037 L14.786940574645996 6.7546563148498535 C15.343957901000977 8.579275131225586 15.78485107421875 10.41019058227539 16.183380126953125 12.275615692138672 L16.183380126953125 12.275615692138672"></path></svg>