<svg xmlns="http://www.w3.org/2000/svg" viewBox="0.0 0.0 24.0 24.0" height="200px" width="200px"><path fill="none" stroke="black" stroke-width=".3" stroke-opacity="1.0"  filling="0" d="M1.2000007629394531 1.2000007629394531 L8.40000057220459 1.2000007629394531 L15.600000381469727 1.2000007629394531 L22.799999237060547 1.2000007629394531 L22.799999237060547 8.40000057220459 L22.799999237060547 15.600000381469727 L22.799999237060547 22.799999237060547 L15.600000381469727 22.799999237060547 L8.40000057220459 22.799999237060547 L1.2000007629394531 22.799999237060547 L1.2000007629394531 15.600000381469727 L1.2000007629394531 8.40000057220459 L1.2000007629394531 1.2000007629394531"></path>
<path fill="none" stroke="black" stroke-width=".3" stroke-opacity="1.0"  filling="0" d="M7.9078803062438965 6.7013044357299805 L8.425415992736816 6.7013044357299805 L8.425415992736816 9.76699161529541 L2.676576614379883 9.76699161529541 L2.676576614379883 6.7013044357299805 L7.9078803062438965 6.7013044357299805"></path>
<path fill="none" stroke="black" stroke-width=".3" stroke-opacity="1.0"  filling="0" d="M8.868215560913086 9.76699161529541 L8.868215560913086 6.7013044357299805 L15.131784439086914 6.7013044357299805 L15.131784439086914 9.76699161529541 L8.868215560913086 9.76699161529541"></path>
<path fill="none" stroke="black" stroke-width=".3" stroke-opacity="1.0"  filling="0" d="M21.323423385620117 9.76699161529541 L15.574800491333008 9.76699161529541 L15.574800491333008 6.7013044357299805 L21.323638916015625 6.7013044357299805 L21.323423385620117 9.76699161529541"></path>
<path fill="none" stroke="black" stroke-width=".3" stroke-opacity="1.0"  filling="0" d="M8.425415992736816 10.20849609375 L8.425415992736816 13.794527053833008 L2.676576614379883 13.794527053833008 L2.676576614379883 10.20849609375 L8.425415992736816 10.20849609375"></path>
<path fill="none" stroke="black" stroke-width=".3" stroke-opacity="1.0"  filling="0" d="M15.131784439086914 13.794527053833008 L8.868215560913086 13.794527053833008 L8.868215560913086 10.20849609375 L15.131784439086914 10.20849609375 L15.131784439086914 13.794527053833008"></path>
<path fill="none" stroke="black" stroke-width=".3" stroke-opacity="1.0"  filling="0" d="M15.574800491333008 13.794527053833008 L15.574800491333008 10.20849609375 L21.323423385620117 10.20849609375 L21.323423385620117 13.794527053833008 L15.574800491333008 13.794527053833008"></path>
<path fill="none" stroke="black" stroke-width=".3" stroke-opacity="1.0"  filling="0" d="M2.676576614379883 14.236031532287598 L8.425415992736816 14.236031532287598 L8.425415992736816 17.816232681274414 L2.676576614379883 17.816232681274414 L2.676576614379883 14.236031532287598"></path>
<path fill="none" stroke="black" stroke-width=".3" stroke-opacity="1.0"  filling="0" d="M8.868215560913086 14.236031532287598 L15.131784439086914 14.236031532287598 L15.131784439086914 17.816232681274414 L8.868215560913086 17.816232681274414 L8.868215560913086 14.236031532287598"></path>
<path fill="none" stroke="black" stroke-width=".3" stroke-opacity="1.0"  filling="0" d="M15.574800491333008 14.236031532287598 L21.323423385620117 14.236031532287598 L21.323423385620117 17.816232681274414 L15.574800491333008 17.816232681274414 L15.574800491333008 14.236031532287598"></path>
<path fill="none" stroke="black" stroke-width=".3" stroke-opacity="1.0"  filling="0" d="M15.574800491333008 18.260543823242188 L21.323423385620117 18.260543823242188 L21.323423385620117 21.323423385620117 L15.574800491333008 21.323423385620117 L15.574800491333008 18.260543823242188"></path>
<path fill="none" stroke="black" stroke-width=".3" stroke-opacity="1.0"  filling="0" d="M2.676576614379883 21.323423385620117 L2.676576614379883 18.260543823242188 L8.425415992736816 18.260543823242188 L8.425415992736816 21.323423385620117 L2.676576614379883 21.323423385620117"></path>
<path fill="none" stroke="black" stroke-width=".3" stroke-opacity="1.0"  filling="0" d="M8.868215560913086 21.323423385620117 L8.868215560913086 18.260543823242188 L15.131784439086914 18.260543823242188 L15.131784439086914 21.323423385620117 L8.868215560913086 21.323423385620117"></path></svg>