<svg xmlns="http://www.w3.org/2000/svg" viewBox="0.0 0.0 24.0 24.0" height="200px" width="200px"><path fill="none" stroke="black" stroke-width=".3" stroke-opacity="1.0"  filling="0" d="M15.034799575805664 7.799448013305664 L15.034799575805664 7.799448013305664 C15.376893997192383 8.379976272583008 15.614320755004883 9.032598495483398 15.736368179321289 9.695280075073242 L15.736368179321289 15.357502937316895 L15.736368179321289 21.019725799560547 C15.414774894714355 21.794891357421875 14.73125171661377 22.47838020324707 13.956095695495605 22.799999237060547 L10.043904304504395 22.799999237060547 C9.268755912780762 22.478363037109375 8.585268020629883 21.79487419128418 8.263631820678711 21.019725799560547 L8.263631820678711 15.357502937316895 L8.263631820678711 9.695280075073242 C8.385700225830078 9.032577514648438 8.623215675354004 8.379942893981934 8.96541690826416 7.799448013305664 L8.96541690826416 7.799448013305664 C8.844456672668457 7.611959934234619 8.723496437072754 7.424471855163574 8.60253620147705 7.236983776092529 L8.60253620147705 6.130200386047363 C8.810184478759766 5.922552108764648 9.017831802368164 5.714904308319092 9.225480079650879 5.507256031036377 L9.646031379699707 5.507256031036377 L11.244864463806152 2.7398643493652344 C10.565924644470215 0.8673217296600342 13.434595108032227 0.8678281307220459 12.755135536193848 2.7398643493652344 L14.3541841506958 5.507256031036377 L14.774519920349121 5.507256031036377 C14.981736183166504 5.714904308319092 15.18895149230957 5.922552108764648 15.396167755126953 6.130200386047363 L15.396167755126953 7.236983776092529 C15.275712013244629 7.424471855163574 15.155255317687988 7.611959934234619 15.034799575805664 7.799448013305664 L15.034799575805664 7.799448013305664"></path>
<path fill="none" stroke="black" stroke-width=".3" stroke-opacity="1.0"  filling="0" d="M10.343496322631836 9.405407905578613 L10.343496322631836 11.947943687438965 L11.364312171936035 11.947943687438965 L11.364312171936035 12.381239891052246 L10.343496322631836 12.381239891052246 L10.343496322631836 14.923559188842773 L11.364312171936035 14.923559188842773 L11.364312171936035 15.356639862060547 L10.343496322631836 15.356639862060547 L10.343496322631836 17.896366119384766 L11.364312171936035 17.896366119384766 L11.364312171936035 18.329662322998047 L10.343496322631836 18.329662322998047 L10.343496322631836 20.87198257446289 L11.364312171936035 20.87198257446289 L11.364312171936035 21.305065155029297 L9.910415649414062 21.305065155029297 L9.910415649414062 15.138696670532227 L9.910415649414062 8.972328186035156 L11.364312171936035 8.972328186035156 L11.364312171936035 9.405407905578613 L10.343496322631836 9.405407905578613"></path>
<path fill="none" stroke="black" stroke-width=".3" stroke-opacity="1.0"  filling="0" d="M15.057263374328613 21.019725799560547 L15.057263374328613 21.019725799560547 C14.690207481384277 21.386783599853516 14.323151588439941 21.75383949279785 13.956095695495605 22.12089729309082 L10.043904304504395 22.12089729309082 C9.676848411560059 21.75383949279785 9.309791564941406 21.386783599853516 8.94273567199707 21.019725799560547 L8.94273567199707 15.357502937316895 L8.94273567199707 9.695280075073242 C9.105295181274414 9.029496192932129 9.427727699279785 8.382938385009766 9.872400283813477 7.861440658569336 L14.126304626464844 7.861440658569336 C14.571560859680176 8.382696151733398 14.894571304321289 9.029327392578125 15.057263374328613 9.695280075073242 L15.057263374328613 15.357502937316895 L15.057263374328613 21.019725799560547"></path></svg>