<svg xmlns="http://www.w3.org/2000/svg" viewBox="0.0 0.0 24.0 24.0" height="200px" width="200px"><path fill="none" stroke="black" stroke-width=".3" stroke-opacity="1.0"  filling="0" d="M16.67488670349121 2.497511863708496 L16.67488670349121 2.497511863708496 C17.271839141845703 2.744849920272827 18.009090423583984 2.7823657989501953 18.465744018554688 3.2395262718200684 C20.033615112304688 4.809136390686035 18.89474105834961 7.5642242431640625 16.67488670349121 7.5642242431640625 C14.455137252807617 7.5642242431640625 13.31095027923584 4.810555458068848 14.881978988647461 3.2395262718200684 C15.339332580566406 2.782172441482544 16.077251434326172 2.744849920272827 16.67488670349121 2.497511863708496 L16.67488670349121 2.497511863708496"></path>
<path fill="none" stroke="black" stroke-width=".3" stroke-opacity="1.0"  filling="0" d="M12.806111335754395 3.0318965911865234 L12.806111335754395 3.0318965911865234 C12.622041702270508 3.660953998565674 12.251157760620117 4.261631965637207 11.762399673461914 4.698336124420166 L11.762399673461914 4.698336124420166 C11.053940773010254 4.343798637390137 10.221161842346191 3.9633352756500244 9.450551986694336 4.147104263305664 L9.450551986694336 4.147104263305664 C8.877846717834473 2.4584245681762695 10.320011138916016 -0.22926342487335205 12.258875846862793 1.7109482288360596 C12.595769882202148 2.0480759143829346 12.623699188232422 2.591580390930176 12.806111335754395 3.0318965911865234 L12.806111335754395 3.0318965911865234"></path>
<path fill="none" stroke="black" stroke-width=".3" stroke-opacity="1.0"  filling="0" d="M10.27070426940918 4.3637518882751465 L10.27070426940918 4.3637518882751465 C11.595682144165039 4.912288188934326 12.61080265045166 7.298543930053711 10.27070426940918 7.298543930053711 C7.934454917907715 7.298543930053711 8.949337005615234 4.91210412979126 10.27070426940918 4.3637518882751465 L10.27070426940918 4.3637518882751465"></path>
<path fill="none" stroke="black" stroke-width=".3" stroke-opacity="1.0"  filling="0" d="M8.391936302185059 5.830392360687256 L8.391936302185059 5.830392360687256 C8.683303833007812 6.598840713500977 9.291659355163574 7.297412872314453 10.016256332397461 7.685184001922607 L10.016256332397461 7.685184001922607 C10.224091529846191 9.555984497070312 8.600682258605957 9.941727638244629 7.297259330749512 9.487824440002441 C5.993836879730225 9.03392219543457 5.010400772094727 7.740373611450195 6.498183250427246 6.252591609954834 C7.2567009925842285 5.494073867797852 7.6735758781433105 5.616176605224609 8.404679298400879 5.701008319854736 L8.404679298400879 5.701008319854736 C8.400431632995605 5.744136333465576 8.396183967590332 5.787264347076416 8.391936302185059 5.830392360687256 L8.391936302185059 5.830392360687256"></path>
<path fill="none" stroke="black" stroke-width=".3" stroke-opacity="1.0"  filling="0" d="M16.49755096435547 11.19820785522461 L16.49755096435547 11.19820785522461 C18.945716857910156 11.864095687866211 19.497739791870117 12.416007995605469 20.163719177246094 14.86415958404541 L20.163719177246094 16.281551361083984 C19.497787475585938 18.729928970336914 18.945823669433594 19.282516479492188 16.49755096435547 19.949016571044922 L11.881523132324219 19.949016571044922 L7.265496253967285 19.949016571044922 C4.816903591156006 19.28261375427246 4.264434814453125 18.730146408081055 3.598031997680664 16.281551361083984 L3.598031997680664 14.86415958404541 C4.264496803283691 12.41585636138916 4.817080497741699 11.864042282104492 7.265496253967285 11.19820785522461 L11.881523132324219 11.19820785522461 L16.49755096435547 11.19820785522461"></path>
<path fill="none" stroke="black" stroke-width=".3" stroke-opacity="1.0"  filling="0" d="M20.163719177246094 18.449974060058594 L20.163719177246094 19.09689712524414 C19.49774932861328 21.54509162902832 18.945743560791016 22.097095489501953 16.49755096435547 22.763065338134766 L11.881523132324219 22.763065338134766 L7.265496253967285 22.763065338134766 C4.81705379486084 22.097150802612305 4.2644877433776855 21.545242309570312 3.598031997680664 19.09689712524414 L3.598031997680664 18.449974060058594 C4.773202896118164 19.839752197265625 5.47252082824707 20.235429763793945 7.265496253967285 20.559431076049805 L11.881523132324219 20.559431076049805 L16.49755096435547 20.559431076049805 C18.28997802734375 20.23538589477539 18.988977432250977 19.839435577392578 20.163719177246094 18.449974060058594 L20.163719177246094 18.449974060058594"></path></svg>