<svg xmlns="http://www.w3.org/2000/svg" viewBox="0.0 0.0 24.0 24.0" height="200px" width="200px"><path fill="none" stroke="black" stroke-width=".3" stroke-opacity="1.0"  filling="0" d="M22.799999237060547 16.16534423828125 L18.290136337280273 20.673694610595703 L14.173284530639648 20.673694610595703 L10.056431770324707 20.673694610595703 L10.056431770324707 14.254175186157227 L10.056431770324707 7.834656715393066 C10.632034301757812 10.385618209838867 11.600946426391602 12.647157669067383 12.913556098937988 14.698653221130371 C14.226165771484375 16.75014877319336 15.88247299194336 18.591602325439453 17.832862854003906 20.302391052246094 L21.87335968017578 16.21307945251465 C19.93871307373047 14.511629104614258 18.296966552734375 12.680028915405273 16.97957420349121 10.64554214477539 C15.662179946899414 8.611055374145508 14.66914176940918 6.373682975769043 14.031912803649902 3.860689163208008 L10.056431770324707 7.834872245788574 L9.433487892150879 7.834872245788574 L13.943352699279785 3.3263044357299805 L14.566512107849121 3.3263044357299805 C15.139594078063965 5.8711066246032715 16.105016708374023 8.127344131469727 17.413002014160156 10.174570083618164 C18.72098731994629 12.221796035766602 20.371536254882812 14.06001091003418 22.314865112304688 15.768768310546875 L22.799999237060547 16.16534423828125"></path>
<path fill="none" stroke="black" stroke-width=".3" stroke-opacity="1.0"  filling="0" d="M1.2000007629394531 20.673694610595703 L1.2000007629394531 20.673694610595703 C2.59930157661438 19.553129196166992 3.8408961296081543 18.33289337158203 4.921009063720703 17.010658264160156 C6.00112247467041 15.688422203063965 6.9197540283203125 14.264188766479492 7.673128128051758 12.73563003540039 C8.426502227783203 11.207072257995605 9.014619827270508 9.574190139770508 9.433703422546387 7.834656715393066 L9.433703422546387 14.254175186157227 L9.433703422546387 20.673694610595703 L5.31685209274292 20.673694610595703 L1.2000007629394531 20.673694610595703"></path></svg>