<svg xmlns="http://www.w3.org/2000/svg" viewBox="0.0 0.0 24.0 24.0" height="200px" width="200px"><path fill="none" stroke="black" stroke-width=".3" stroke-opacity="1.0"  filling="0" d="M11.999892234802246 1.2000007629394531 L11.999892234802246 1.2000007629394531 C12.288411140441895 2.689608573913574 12.662772178649902 4.08699893951416 13.14197826385498 5.447901248931885 C13.621183395385742 6.808803558349609 14.205233573913574 8.133218765258789 14.913129806518555 9.476875305175781 C15.647597312927246 10.870967864990234 16.6414794921875 12.319795608520508 17.314998626708984 13.838902473449707 C17.9885196685791 15.358009338378906 18.3416748046875 16.94739532470703 17.79469108581543 18.622608184814453 C17.079988479614258 20.811481475830078 15.550337791442871 22.059913635253906 13.818155288696289 22.507190704345703 C12.085973739624023 22.9544677734375 10.151259422302246 22.600589752197266 8.626429557800293 21.58484649658203 C7.101598739624023 20.569103240966797 5.986652374267578 18.891494750976562 5.8940043449401855 16.69130516052246 C5.84197998046875 15.455830574035645 6.3693695068359375 14.166274070739746 7.0451741218566895 12.928561210632324 C7.720978736877441 11.690847396850586 8.545198440551758 10.50497817993164 9.086833000183105 9.476876258850098 C9.794713973999023 8.133216857910156 10.378739356994629 6.808802604675293 10.857914924621582 5.447901725769043 C11.337089538574219 4.087000370025635 11.711414337158203 2.6896114349365234 11.999892234802246 1.2000007629394531 L11.999892234802246 1.2000007629394531"></path>
<path fill="none" stroke="black" stroke-width=".3" stroke-opacity="1.0"  filling="0" d="M15.012012481689453 20.460071563720703 L15.012012481689453 20.460071563720703 C15.804808616638184 19.16493034362793 16.131206512451172 17.92926788330078 16.153501510620117 16.6673526763916 C16.17579460144043 15.405438423156738 15.8939847946167 14.117271423339844 15.47036361694336 12.717119216918945 L15.47036361694336 12.717119216918945 C16.48853302001953 14.447443962097168 17.821874618530273 16.740928649902344 16.629024505615234 18.768091201782227 C16.233381271362305 19.440460205078125 15.551016807556152 19.89607810974121 15.012012481689453 20.460071563720703 L15.012012481689453 20.460071563720703"></path></svg>