<svg xmlns="http://www.w3.org/2000/svg" viewBox="0.0 0.0 24.0 24.0" height="200px" width="200px"><path fill="none" stroke="black" stroke-width=".3" stroke-opacity="1.0"  filling="0" d="M12.870264053344727 4.8460798263549805 L16.452083587646484 10.3846435546875 L20.033903121948242 15.92320728302002 L15.227255821228027 15.934438705444336 C14.108842849731445 14.64741325378418 13.202558517456055 13.588232040405273 12.469583511352539 12.06156063079834 L12.437399864196777 12.06156063079834 C11.688779830932617 13.618898391723633 10.772126197814941 14.64852523803711 9.599592208862305 15.934438705444336 L4.123559951782227 15.934438705444336 L8.028623580932617 10.392419815063477 L11.933688163757324 4.850400924682617 L11.345952033996582 4.090944290161133 L11.926559448242188 3.6395044326782227 L12.401975631713867 4.244088649749756 L12.874584197998047 3.6395044326782227 L13.458215713500977 4.090944290161133 L12.870264053344727 4.8460798263549805"></path>
<path fill="none" stroke="black" stroke-width=".3" stroke-opacity="1.0"  filling="0" d="M1.2012958526611328 18.031150817871094 L8.40129566192627 18.031150817871094 L15.60129451751709 18.031150817871094 L22.801294326782227 18.031150817871094 L22.801294326782227 20.49225616455078 L15.60129451751709 20.49225616455078 L8.40129566192627 20.49225616455078 L1.2012958526611328 20.49225616455078 L1.2012958526611328 18.031150817871094"></path></svg>