<svg xmlns="http://www.w3.org/2000/svg" viewBox="0.0 0.0 24.0 24.0" height="200px" width="200px"><path fill="none" stroke="black" stroke-width=".3" stroke-opacity="1.0"  filling="0" d="M19.932815551757812 15.833353042602539 L15.149928092956543 15.847391128540039 C14.038183212280273 14.567301750183105 13.137486457824707 13.51406192779541 12.409319877624512 11.995680809020996 L12.37713623046875 11.995680809020996 C11.631991386413574 13.54367733001709 10.720187187194824 14.568685531616211 9.55466365814209 15.847391128540039 L4.106712341308594 15.847391128540039 L7.991471767425537 10.332803726196289 L11.87623119354248 4.818216800689697 L11.291304588317871 4.0671844482421875 L11.867807388305664 3.6187686920166016 L12.340200424194336 4.220760822296143 L12.811511993408203 3.6187686920166016 L13.392119407653809 4.067400932312012 L12.807191848754883 4.818432807922363 L16.37000274658203 10.32589340209961 L19.932815551757812 15.833353042602539"></path>
<path fill="none" stroke="black" stroke-width=".3" stroke-opacity="1.0"  filling="0" d="M1.2000007629394531 17.933086395263672 L4.117944240570068 17.933086395263672 L4.117944240570068 20.3812313079834 L1.2000007629394531 20.3812313079834 L1.2000007629394531 17.933086395263672"></path>
<path fill="none" stroke="black" stroke-width=".3" stroke-opacity="1.0"  filling="0" d="M5.868840217590332 17.933086395263672 L8.788296699523926 17.933086395263672 L8.788296699523926 20.3812313079834 L5.868840217590332 20.3812313079834 L5.868840217590332 17.933086395263672"></path>
<path fill="none" stroke="black" stroke-width=".3" stroke-opacity="1.0"  filling="0" d="M10.54027271270752 17.933086395263672 L13.45972728729248 17.933086395263672 L13.45972728729248 20.3812313079834 L10.54027271270752 20.3812313079834 L10.54027271270752 17.933086395263672"></path>
<path fill="none" stroke="black" stroke-width=".3" stroke-opacity="1.0"  filling="0" d="M15.210407257080078 17.933086395263672 L18.131160736083984 17.933086395263672 L18.131160736083984 20.3812313079834 L15.210407257080078 20.3812313079834 L15.210407257080078 17.933086395263672"></path>
<path fill="none" stroke="black" stroke-width=".3" stroke-opacity="1.0"  filling="0" d="M19.880544662475586 17.933086395263672 L22.799999237060547 17.933086395263672 L22.799999237060547 20.3812313079834 L19.880544662475586 20.3812313079834 L19.880544662475586 17.933086395263672"></path></svg>