<svg xmlns="http://www.w3.org/2000/svg" viewBox="0.0 0.0 24.0 24.0" height="200px" width="200px"><path fill="none" stroke="black" stroke-width=".3" stroke-opacity="1.0"  filling="0" d="M11.927314758300781 7.890168190002441 L11.927314758300781 7.890168190002441 C11.430279731750488 10.344943046569824 10.48178768157959 11.293462753295898 8.02700424194336 11.79047966003418 L5.7950758934021 11.79047966003418 C3.3403007984161377 11.293444633483887 2.391782283782959 10.344951629638672 1.8947649002075195 7.890168190002441 L1.8947649002075195 5.65824031829834 C2.3918001651763916 3.203465700149536 3.3402926921844482 2.254946708679199 5.7950758934021 1.7579288482666016 L8.02700424194336 1.7579288482666016 C10.481779098510742 2.2549636363983154 11.4302978515625 3.203455924987793 11.927314758300781 5.65824031829834 L11.927314758300781 7.890168190002441"></path>
<path fill="none" stroke="black" stroke-width=".3" stroke-opacity="1.0"  filling="0" d="M9.178284645080566 10.026623725891113 L6.9109320640563965 7.759488105773926 L4.643795967102051 10.026623725891113 L3.6586198806762695 9.041448593139648 L5.925756454467773 6.7743120193481445 L3.6586198806762695 4.506960391998291 L4.643795967102051 3.521784782409668 L6.9109320640563965 5.7889204025268555 L9.178284645080566 3.521784782409668 L10.163459777832031 4.506960391998291 L7.896324157714844 6.7743120193481445 L10.163459777832031 9.041448593139648 L9.178284645080566 10.026623725891113"></path>
<path fill="none" stroke="black" stroke-width=".3" stroke-opacity="1.0"  filling="0" d="M22.663162231445312 17.382287979125977 L18.123275756835938 15.90506362915039 L13.58338737487793 14.427840232849121 L13.58338737487793 19.299720764160156 L15.547260284423828 21.270286560058594 L15.547260284423828 22.799999237060547 L12.486539840698242 21.87055206298828 L9.365988731384277 22.799999237060547 L9.365988731384277 21.270286560058594 L11.39098834991455 19.299720764160156 L11.39098834991455 14.427840232849121 L6.849048137664795 15.90506362915039 L2.307107925415039 17.382287979125977 L2.307107925415039 15.14085578918457 L6.762539863586426 12.348407745361328 L5.7950758934021 12.348407745361328 C2.9931578636169434 11.778608322143555 1.9066359996795654 10.692086219787598 1.336836814880371 7.890168190002441 L1.336836814880371 5.65824031829834 C1.906636118888855 2.8563222885131836 2.993157386779785 1.7698003053665161 5.7950758934021 1.2000007629394531 L8.02700424194336 1.2000007629394531 C9.247978210449219 1.4821304082870483 10.437618255615234 2.03792142868042 11.423604011535645 2.811359405517578 L11.423604011535645 2.811359405517578 C11.612606048583984 2.398782968521118 12.017477989196777 2.081270456314087 12.432107925415039 1.8968162536621094 L12.486539840698242 1.8968162536621094 C12.961421012878418 2.1005849838256836 13.379392623901367 2.5175833702087402 13.58338737487793 2.992367744445801 L13.58338737487793 9.448391914367676 L18.123275756835938 12.294624328613281 L22.663162231445312 15.14085578918457 L22.663162231445312 17.382287979125977"></path></svg>