<svg xmlns="http://www.w3.org/2000/svg" viewBox="0.0 0.0 24.0 24.0" height="200px" width="200px"><path fill="none" stroke="black" stroke-width=".3" stroke-opacity="1.0"  filling="0" d="M12.88786792755127 10.535628318786621 L12.88786792755127 10.535628318786621 C12.768671989440918 10.450163841247559 12.649476051330566 10.364700317382812 12.530280113220215 10.27923583984375 L12.70199966430664 9.596460342407227 C12.961019515991211 9.782183647155762 13.220040321350098 9.967907905578613 13.479060173034668 10.153631210327148 L12.88786792755127 10.535628318786621"></path>
<path fill="none" stroke="black" stroke-width=".3" stroke-opacity="1.0"  filling="0" d="M12.0 10.547723770141602 L12.0 10.547723770141602 C12.296099662780762 10.843823432922363 12.888299942016602 11.017274856567383 12.888299942016602 11.436023712158203 C12.888299942016602 11.85474681854248 12.418723106384277 12.32421588897705 12.0 12.32421588897705 C11.581327438354492 12.32421588897705 11.111915588378906 11.854696273803711 11.111915588378906 11.436023712158203 C11.111915588378906 11.017326354980469 11.703971862792969 10.843823432922363 12.0 10.547723770141602 L12.0 10.547723770141602"></path>
<path fill="none" stroke="black" stroke-width=".3" stroke-opacity="1.0"  filling="0" d="M19.63408851623535 11.624051094055176 L20.006147384643555 12.0 L19.63397979736328 12.375948905944824 C17.964372634887695 13.900638580322266 16.26793670654297 14.916998863220215 14.562553405761719 15.425128936767578 C12.857169151306152 15.933259010314941 11.142836570739746 15.933158874511719 9.4374361038208 15.424928665161133 C7.7320356369018555 14.916699409484863 6.035567283630371 13.900339126586914 4.365911483764648 12.375948905944824 L3.993743896484375 12.0 L4.365911483764648 11.624051094055176 C6.035560131072998 10.099574089050293 7.732032299041748 9.083210945129395 9.437443733215332 8.575007438659668 C11.142854690551758 8.066802978515625 12.85720443725586 8.06675910949707 14.562606811523438 8.574917793273926 C16.268009185791016 9.083076477050781 17.964466094970703 10.09943962097168 19.63408851623535 11.624051094055176 L19.63408851623535 11.624051094055176"></path>
<path fill="none" stroke="black" stroke-width=".3" stroke-opacity="1.0"  filling="0" d="M12.0 15.00639533996582 L12.0 15.00639533996582 C9.390615463256836 14.563725471496582 7.580906867980957 13.653489112854004 5.5316643714904785 11.999567985534668 L5.5316643714904785 11.999567985534668 C7.1441731452941895 10.7099609375 8.596261978149414 9.92354679107666 10.530768394470215 9.178391456604004 L10.530768394470215 9.178391456604004 C10.23451042175293 9.496528625488281 9.849291801452637 9.750692367553711 9.641995429992676 10.13280200958252 C8.590691566467285 12.07066822052002 9.84022331237793 13.503373146057129 11.359309196472168 13.898147583007812 C12.878395080566406 14.292922973632812 14.667036056518555 13.649768829345703 14.693952560424805 11.435916900634766 C14.69940185546875 10.987691879272461 14.57209587097168 10.527750968933105 14.358504295349121 10.133651733398438 C14.151512145996094 9.751729011535645 13.76680850982666 9.49746036529541 13.47096061706543 9.179364204406738 L13.47096061706543 9.179364204406738 C15.40302562713623 9.924997329711914 16.855998992919922 10.712638854980469 18.467796325683594 11.999892234802246 L18.467796325683594 11.999892234802246 C16.418689727783203 13.653648376464844 14.609203338623047 14.563847541809082 12.0 15.00639533996582 L12.0 15.00639533996582"></path></svg>