<svg xmlns="http://www.w3.org/2000/svg" viewBox="0.0 0.0 24.0 24.0" height="200px" width="200px"><path fill="none" stroke="black" stroke-width=".3" stroke-opacity="1.0"  filling="0" d="M21.901439666748047 8.391504287719727 L16.950719833374023 5.930616855621338 L12.0 3.469729423522949 L7.049280166625977 5.930616855621338 L2.098560333251953 8.391504287719727 L1.2000007629394531 6.5831522941589355 L6.604860305786133 3.8957884311676025 L12.009719848632812 1.2084245681762695 L17.40485954284668 3.8957884311676025 L22.799999237060547 6.5831522941589355 L21.901439666748047 8.391504287719727"></path>
<path fill="none" stroke="black" stroke-width=".3" stroke-opacity="1.0"  filling="0" d="M14.871503829956055 9.314040184020996 L19.022808074951172 11.573831558227539 L17.01335906982422 12.691848754882812 L12.81432056427002 10.437671661376953 L14.871503829956055 9.314040184020996"></path>
<path fill="none" stroke="black" stroke-width=".3" stroke-opacity="1.0"  filling="0" d="M4.974384307861328 11.534520149230957 L9.125688552856445 9.273216247558594 L11.18287181854248 10.395337104797363 L6.982536315917969 12.651240348815918 L4.974384307861328 11.534520149230957"></path>
<path fill="none" stroke="black" stroke-width=".3" stroke-opacity="1.0"  filling="0" d="M20.635679244995117 11.568216323852539 L17.81795883178711 13.133136749267578 L20.6080322265625 14.649240493774414 L17.80392074584961 16.155406951904297 L17.80392074584961 19.902143478393555 L11.998919486999512 22.792009353637695 L6.195216178894043 19.902143478393555 L6.195216178894043 16.144609451293945 L3.413784980773926 14.649672508239746 L6.224592208862305 13.119527816772461 L3.364320755004883 11.52458381652832 L9.125472068786621 8.391504287719727 L12.036503791809082 9.975000381469727 L14.871503829956055 8.429520606994629 L20.635679244995117 11.568216323852539"></path>
<path fill="none" stroke="black" stroke-width=".3" stroke-opacity="1.0"  filling="0" d="M18.972047805786133 14.643624305725098 L14.773223876953125 16.89952850341797 L12.756647109985352 15.791232109069824 L16.913352966308594 13.523016929626465 L18.972047805786133 14.643624305725098"></path>
<path fill="none" stroke="black" stroke-width=".3" stroke-opacity="1.0"  filling="0" d="M9.242328643798828 16.89952850341797 L5.044584274291992 14.645135879516602 L7.100688457489014 13.523016929626465 L11.294111251831055 15.791232109069824 L9.242328643798828 16.89952850341797"></path>
<path fill="none" stroke="black" stroke-width=".3" stroke-opacity="1.0"  filling="0" d="M6.972599983215332 19.418088912963867 L6.972599983215332 16.563215255737305 L9.250752449035645 17.786640167236328 L11.611847877502441 16.474655151367188 L11.611847877502441 21.728424072265625 L6.972599983215332 19.418088912963867"></path>
<path fill="none" stroke="black" stroke-width=".3" stroke-opacity="1.0"  filling="0" d="M17.028696060180664 19.418088912963867 L12.389664649963379 21.726909637451172 L12.389664649963379 16.466232299804688 L14.764799118041992 17.786640167236328 L17.028696060180664 16.571640014648438 L17.028696060180664 19.418088912963867"></path></svg>