<svg xmlns="http://www.w3.org/2000/svg" viewBox="0.0 0.0 24.0 24.0" height="200px" width="200px"><path fill="none" stroke="black" stroke-width=".3" stroke-opacity="1.0"  filling="0" d="M22.680984497070312 6.538008213043213 L21.782424926757812 8.346359252929688 L16.83170509338379 5.885471820831299 L11.88098430633545 3.42458438873291 L6.930264472961426 5.885471820831299 L1.9795446395874023 8.346359252929688 L1.0809850692749023 6.538008213043213 L6.485952377319336 3.850644826889038 L11.89091968536377 1.1632814407348633 L17.285951614379883 3.850644826889038 L22.680984497070312 6.538008213043213"></path>
<path fill="none" stroke="black" stroke-width=".3" stroke-opacity="1.0"  filling="0" d="M19.231462478637695 9.907392501831055 L15.556222915649414 11.399412155151367 L11.88098430633545 12.89143180847168 L8.205743789672852 11.399412155151367 L4.530503749847412 9.907392501831055 L8.205743789672852 8.415372848510742 L11.88098430633545 6.923352241516113 L15.556222915649414 8.415372848510742 L19.231462478637695 9.907392501831055"></path>
<path fill="none" stroke="black" stroke-width=".3" stroke-opacity="1.0"  filling="0" d="M18.34564781188965 13.281095504760742 L18.34564781188965 13.281095504760742 C18.53313636779785 13.58688735961914 18.59213638305664 14.033089637756348 18.431400299072266 14.353752136230469 L18.588863372802734 15.092040061950684 L17.805648803710938 15.092040061950684 L17.963111877441406 14.353752136230469 C17.8037166595459 14.032256126403809 17.86415672302246 13.586830139160156 18.05167007446289 13.280879974365234 L18.05167007446289 10.877664566040039 L18.34564781188965 10.759511947631836 L18.34564781188965 13.281095504760742"></path>
<path fill="none" stroke="black" stroke-width=".3" stroke-opacity="1.0"  filling="0" d="M11.88098430633545 13.379376411437988 L16.781591415405273 11.390880584716797 L16.781591415405273 14.494584083557129 C15.538521766662598 15.056955337524414 13.70972728729248 15.338042259216309 11.880918502807617 15.337992668151855 C10.052109718322754 15.337943077087402 8.223286628723145 15.056756973266602 6.980160236358643 14.494584083557129 L6.980160236358643 11.390880584716797 L11.88098430633545 13.379376411437988"></path>
<path fill="none" stroke="black" stroke-width=".3" stroke-opacity="1.0"  filling="0" d="M11.88098430633545 16.100326538085938 L11.88098430633545 16.100326538085938 C13.378889083862305 16.064815521240234 14.812666893005371 16.00773811340332 16.28954315185547 15.760127067565918 L16.28954315185547 15.760127067565918 C16.541662216186523 16.464115142822266 16.84766387939453 17.082731246948242 16.781591415405273 17.862455368041992 C16.60334587097168 19.96592140197754 15.514156341552734 21.36835479736328 14.121365547180176 22.069631576538086 C12.728574752807617 22.77090835571289 11.032181739807129 22.77103042602539 9.639533042907715 22.069873809814453 C8.2468843460083 21.368717193603516 7.157978057861328 19.966285705566406 6.980160236358643 17.862455368041992 C6.914237976074219 17.082504272460938 7.220161437988281 16.464305877685547 7.472424030303955 15.760127067565918 L7.472424030303955 15.760127067565918 C8.949300765991211 16.007593154907227 10.383102416992188 16.06477928161621 11.88098430633545 16.100326538085938 L11.88098430633545 16.100326538085938"></path></svg>