<svg xmlns="http://www.w3.org/2000/svg" viewBox="0.0 0.0 24.0 24.0" height="200px" width="200px"><path fill="none" stroke="black" stroke-width=".3" stroke-opacity="1.0"  filling="0" d="M5.357568264007568 3.909503936767578 L5.357568264007568 3.909503936767578 C7.269802570343018 2.8186874389648438 7.9420552253723145 2.833280086517334 9.847127914428711 3.9341278076171875 L9.400655746459961 4.38038444519043 C8.800697326660156 4.1292033195495605 8.251188278198242 3.630362033843994 7.6007819175720215 3.6268415451049805 C6.955349445343018 3.6233479976654053 6.406266212463379 4.116243362426758 5.8090081214904785 4.3609442710876465 L5.357568264007568 3.909503936767578"></path>
<path fill="none" stroke="black" stroke-width=".3" stroke-opacity="1.0"  filling="0" d="M6.118536472320557 4.670472145080566 L6.118536472320557 4.670472145080566 C6.613401412963867 4.467702388763428 7.068343162536621 4.05925178527832 7.603131294250488 4.06216287612915 C8.1420316696167 4.065096378326416 8.5972900390625 4.47850227355957 9.094368934631348 4.686671733856201 L8.660856246948242 5.120184421539307 C8.014013290405273 4.849443435668945 7.206130027770996 4.84295654296875 6.55723237991333 5.108736515045166 L6.118536472320557 4.670472145080566"></path>
<path fill="none" stroke="black" stroke-width=".3" stroke-opacity="1.0"  filling="0" d="M7.602456092834473 5.163168430328369 L7.602456092834473 5.163168430328369 C7.876632213592529 5.437488555908203 8.337164878845215 5.608356475830078 8.424983978271484 5.986128330230713 C8.490455627441406 6.267771244049072 8.118120193481445 6.476304054260254 7.964688301086426 6.7213921546936035 L7.964688301086426 9.56395149230957 L7.23957633972168 9.56395149230957 L7.23957633972168 6.7211761474609375 C7.086216449737549 6.476160049438477 6.713926792144775 6.2676472663879395 6.779496192932129 5.986128330230713 C6.867498397827148 5.608294486999512 7.328135967254639 5.437488555908203 7.602456092834473 5.163168430328369 L7.602456092834473 5.163168430328369"></path>
<path fill="none" stroke="black" stroke-width=".3" stroke-opacity="1.0"  filling="0" d="M21.250415802001953 9.354647636413574 L21.250415802001953 9.354647636413574 C21.517391204833984 9.621119499206543 21.784366607666016 9.887591361999512 22.051342010498047 10.15406322479248 L22.051342010498047 15.416255950927734 L22.051342010498047 20.678447723388672 C21.78429412841797 20.94477653503418 21.51724624633789 21.211103439331055 21.250198364257812 21.477432250976562 L15.125015258789062 21.477432250976562 L8.999832153320312 21.477432250976562 L2.874648094177246 21.477432250976562 C2.606951951980591 21.211103439331055 2.3392560482025146 20.94477653503418 2.0715599060058594 20.678447723388672 L2.0715599060058594 15.416147232055664 L2.0715599060058594 10.153847694396973 C2.3392560482025146 9.887447357177734 2.606951951980591 9.621047973632812 2.874648094177246 9.354647636413574 L8.99990463256836 9.35464859008789 L15.125160217285156 9.35464859008789 L21.250415802001953 9.354647636413574"></path>
<path fill="none" stroke="black" stroke-width=".3" stroke-opacity="1.0"  filling="0" d="M13.744632720947266 11.188271522521973 L14.03558349609375 11.282448768615723 L13.744632720947266 11.188271522521973"></path>
<path fill="none" stroke="black" stroke-width=".3" stroke-opacity="1.0"  filling="0" d="M20.322479248046875 11.188271522521973 L20.612998962402344 11.282448768615723 L20.322479248046875 11.188271522521973"></path>
<path fill="none" stroke="black" stroke-width=".3" stroke-opacity="1.0"  filling="0" d="M13.744632720947266 11.482248306274414 L14.03558349609375 11.576424598693848 L13.744632720947266 11.482248306274414"></path>
<path fill="none" stroke="black" stroke-width=".3" stroke-opacity="1.0"  filling="0" d="M20.322479248046875 11.482248306274414 L20.612998962402344 11.576424598693848 L20.322479248046875 11.482248306274414"></path>
<path fill="none" stroke="black" stroke-width=".3" stroke-opacity="1.0"  filling="0" d="M7.572216033935547 11.6397123336792 L7.572216033935547 11.6397123336792 C8.550592422485352 11.840400695800781 9.51040267944336 12.237051963806152 10.3335599899292 12.802656173706055 L8.824151992797852 13.551527976989746 C8.024060249328613 13.31622314453125 7.1222615242004395 13.316036224365234 6.3222246170043945 13.551527976989746 L4.8130316734313965 12.802656173706055 C5.635463714599609 12.237168312072754 6.594524383544922 11.840435028076172 7.572216033935547 11.6397123336792 L7.572216033935547 11.6397123336792"></path>
<path fill="none" stroke="black" stroke-width=".3" stroke-opacity="1.0"  filling="0" d="M13.744632720947266 11.776440620422363 L14.03558349609375 11.87061595916748 L13.744632720947266 11.776440620422363"></path>
<path fill="none" stroke="black" stroke-width=".3" stroke-opacity="1.0"  filling="0" d="M20.322479248046875 11.776440620422363 L20.612998962402344 11.87061595916748 L20.322479248046875 11.776440620422363"></path>
<path fill="none" stroke="black" stroke-width=".3" stroke-opacity="1.0"  filling="0" d="M13.744632720947266 12.07084846496582 L14.03558349609375 12.165023803710938 L13.744632720947266 12.07084846496582"></path>
<path fill="none" stroke="black" stroke-width=".3" stroke-opacity="1.0"  filling="0" d="M20.322479248046875 12.07084846496582 L20.612998962402344 12.165023803710938 L20.322479248046875 12.07084846496582"></path>
<path fill="none" stroke="black" stroke-width=".3" stroke-opacity="1.0"  filling="0" d="M13.744632720947266 12.364824295043945 L14.03558349609375 12.459000587463379 L13.744632720947266 12.364824295043945"></path>
<path fill="none" stroke="black" stroke-width=".3" stroke-opacity="1.0"  filling="0" d="M20.322479248046875 12.364824295043945 L20.612998962402344 12.459000587463379 L20.322479248046875 12.364824295043945"></path>
<path fill="none" stroke="black" stroke-width=".3" stroke-opacity="1.0"  filling="0" d="M20.611488342285156 12.64864730834961 L20.332632064819336 13.197504043579102 L20.611488342285156 12.64864730834961"></path>
<path fill="none" stroke="black" stroke-width=".3" stroke-opacity="1.0"  filling="0" d="M13.744632720947266 12.686448097229004 L14.327183723449707 13.82973575592041 L13.745927810668945 14.974967002868652 L13.744632720947266 12.686448097229004"></path>
<path fill="none" stroke="black" stroke-width=".3" stroke-opacity="1.0"  filling="0" d="M13.744632720947266 12.689472198486328 L13.744632720947266 13.739664077758789 L13.744632720947266 12.689472198486328"></path>
<path fill="none" stroke="black" stroke-width=".3" stroke-opacity="1.0"  filling="0" d="M20.614513397216797 14.933496475219727 L20.03044891357422 13.790424346923828 L20.611705780029297 12.644976615905762 L20.614513397216797 14.933496475219727"></path>
<path fill="none" stroke="black" stroke-width=".3" stroke-opacity="1.0"  filling="0" d="M13.744632720947266 15.272831916809082 L14.03558349609375 15.3670072555542 L13.744632720947266 15.272831916809082"></path>
<path fill="none" stroke="black" stroke-width=".3" stroke-opacity="1.0"  filling="0" d="M20.322479248046875 15.272831916809082 L20.612998962402344 15.3670072555542 L20.322479248046875 15.272831916809082"></path>
<path fill="none" stroke="black" stroke-width=".3" stroke-opacity="1.0"  filling="0" d="M3.7116479873657227 15.502223014831543 L3.7116479873657227 15.502223014831543 C3.812751054763794 14.798986434936523 4.0102410316467285 14.101941108703613 4.302407741546631 13.454328536987305 L5.3463358879089355 14.861783981323242 C5.138458728790283 16.31692886352539 5.6748046875 16.836746215820312 6.772152423858643 17.676910400390625 L7.173696517944336 19.34507942199707 C4.847962379455566 18.49859619140625 4.31863260269165 17.90166664123535 3.7116479873657227 15.502223014831543 L3.7116479873657227 15.502223014831543"></path>
<path fill="none" stroke="black" stroke-width=".3" stroke-opacity="1.0"  filling="0" d="M13.744632720947266 15.567239761352539 L14.03558349609375 15.661415100097656 L13.744632720947266 15.567239761352539"></path>
<path fill="none" stroke="black" stroke-width=".3" stroke-opacity="1.0"  filling="0" d="M20.322479248046875 15.567239761352539 L20.612998962402344 15.661415100097656 L20.322479248046875 15.567239761352539"></path>
<path fill="none" stroke="black" stroke-width=".3" stroke-opacity="1.0"  filling="0" d="M13.744632720947266 15.861431121826172 L14.03558349609375 15.955608367919922 L13.744632720947266 15.861431121826172"></path>
<path fill="none" stroke="black" stroke-width=".3" stroke-opacity="1.0"  filling="0" d="M20.322479248046875 15.861431121826172 L20.612998962402344 15.955608367919922 L20.322479248046875 15.861431121826172"></path>
<path fill="none" stroke="black" stroke-width=".3" stroke-opacity="1.0"  filling="0" d="M13.744632720947266 16.155622482299805 L14.03558349609375 16.249799728393555 L13.744632720947266 16.155622482299805"></path>
<path fill="none" stroke="black" stroke-width=".3" stroke-opacity="1.0"  filling="0" d="M20.322479248046875 16.155622482299805 L20.612998962402344 16.249799728393555 L20.322479248046875 16.155622482299805"></path>
<path fill="none" stroke="black" stroke-width=".3" stroke-opacity="1.0"  filling="0" d="M13.744632720947266 16.44981575012207 L14.03558349609375 16.54399299621582 L13.744632720947266 16.44981575012207"></path>
<path fill="none" stroke="black" stroke-width=".3" stroke-opacity="1.0"  filling="0" d="M20.322479248046875 16.44981575012207 L20.612998962402344 16.54399299621582 L20.322479248046875 16.44981575012207"></path>
<path fill="none" stroke="black" stroke-width=".3" stroke-opacity="1.0"  filling="0" d="M20.84044647216797 16.67078399658203 L13.44698429107666 16.67078399658203 L13.44698429107666 10.975727081298828 L20.84044647216797 10.975727081298828 L20.84044647216797 16.67078399658203"></path>
<path fill="none" stroke="black" stroke-width=".3" stroke-opacity="1.0"  filling="0" d="M15.283632278442383 17.9320068359375 L15.283632278442383 17.9320068359375 C15.567168235778809 18.215543746948242 16.134239196777344 18.381635665893555 16.134239196777344 18.782615661621094 C16.134239196777344 20.099716186523438 14.433023452758789 19.73380470275879 14.433023452758789 18.782615661621094 C14.433023452758789 18.381635665893555 15.000096321105957 18.215543746948242 15.283632278442383 17.9320068359375 L15.283632278442383 17.9320068359375"></path>
<path fill="none" stroke="black" stroke-width=".3" stroke-opacity="1.0"  filling="0" d="M18.956279754638672 17.9320068359375 L18.956279754638672 17.9320068359375 C19.239816665649414 18.215543746948242 19.806888580322266 18.381635665893555 19.806888580322266 18.782615661621094 C19.806888580322266 19.73380470275879 18.10567283630371 20.099716186523438 18.10567283630371 18.782615661621094 C18.10567283630371 18.381635665893555 18.672744750976562 18.215543746948242 18.956279754638672 17.9320068359375 L18.956279754638672 17.9320068359375"></path>
<path fill="none" stroke="black" stroke-width=".3" stroke-opacity="1.0"  filling="0" d="M7.97268009185791 19.344432830810547 L8.374223709106445 17.67626190185547 C9.471559524536133 16.836078643798828 10.007838249206543 16.316417694091797 9.800039291381836 14.86135196685791 L10.843751907348633 13.454328536987305 C11.497024536132812 14.901450157165527 11.485750198364258 16.116783142089844 10.957911491394043 17.09893226623535 C10.430072784423828 18.08108139038086 9.38566780090332 18.830047607421875 7.97268009185791 19.344432830810547 L7.97268009185791 19.344432830810547"></path>
<path fill="none" stroke="black" stroke-width=".3" stroke-opacity="1.0"  filling="0" d="M15.283632278442383 19.40534210205078 L15.283632278442383 19.40534210205078 C13.81710147857666 17.938310623168945 16.74979591369629 17.938169479370117 15.283632278442383 19.40534210205078 L15.283632278442383 19.40534210205078"></path>
<path fill="none" stroke="black" stroke-width=".3" stroke-opacity="1.0"  filling="0" d="M15.283632278442383 20.062414169311523 L15.283632278442383 20.062414169311523 C14.128910064697266 19.584379196166992 13.24516487121582 17.50259780883789 15.283632278442383 17.50259780883789 C17.32193946838379 17.50259780883789 16.43830108642578 19.58435821533203 15.283632278442383 20.062414169311523 L15.283632278442383 20.062414169311523"></path>
<path fill="none" stroke="black" stroke-width=".3" stroke-opacity="1.0"  filling="0" d="M18.956279754638672 20.062414169311523 L18.956279754638672 20.062414169311523 C17.801605224609375 19.5843563079834 16.917858123779297 17.50259780883789 18.956279754638672 17.50259780883789 C20.994688034057617 17.50259780883789 20.11100196838379 19.584379196166992 18.956279754638672 20.062414169311523 L18.956279754638672 20.062414169311523"></path></svg>