<svg xmlns="http://www.w3.org/2000/svg" viewBox="0.0 0.0 24.0 24.0" height="200px" width="200px"><path fill="none" stroke="black" stroke-width=".3" stroke-opacity="1.0"  filling="0" d="M2.496000289916992 -0.09599971771240234 L2.496000289916992 2.064000129699707 L-0.09599971771240234 2.064000129699707 L-0.09599971771240234 -0.09599971771240234 L2.496000289916992 -0.09599971771240234"></path>
<path fill="none" stroke="black" stroke-width=".3" stroke-opacity="1.0"  filling="0" d="M0.5520009994506836 0.12000083923339844 L0.5520009994506836 1.8480005264282227 L0.12000083923339844 1.8480005264282227 L0.12000083923339844 0.12000083923339844 L0.5520009994506836 0.12000083923339844"></path>
<path fill="none" stroke="black" stroke-width=".3" stroke-opacity="1.0"  filling="0" d="M2.2799997329711914 0.12000083923339844 L2.2799997329711914 1.2000007629394531 L0.768000602722168 1.2000007629394531 L0.768000602722168 0.12000083923339844 L2.2799997329711914 0.12000083923339844"></path>
<path fill="none" stroke="black" stroke-width=".3" stroke-opacity="1.0"  filling="0" d="M2.2799997329711914 1.416001319885254 L2.2799997329711914 1.8480005264282227 L0.768000602722168 1.8480005264282227 L0.768000602722168 1.416001319885254 L2.2799997329711914 1.416001319885254"></path>
<path fill="none" stroke="black" stroke-width=".3" stroke-opacity="1.0"  filling="0" d="M-0.09599971771240234 2.496000289916992 L0.12000083923339844 2.2799997329711914 L-0.09599971771240234 2.496000289916992"></path>
<path fill="none" stroke="black" stroke-width=".3" stroke-opacity="1.0"  filling="0" d="M0.3360004425048828 2.496000289916992 L0.5520009994506836 2.2799997329711914 L0.3360004425048828 2.496000289916992"></path>
<path fill="none" stroke="black" stroke-width=".3" stroke-opacity="1.0"  filling="0" d="M0.768000602722168 2.496000289916992 L0.9840002059936523 2.2799997329711914 L0.768000602722168 2.496000289916992"></path>
<path fill="none" stroke="black" stroke-width=".3" stroke-opacity="1.0"  filling="0" d="M2.712000846862793 2.9280004501342773 L-0.5279998779296875 2.9280004501342773 L-0.5279998779296875 -0.5279998779296875 L2.9280004501342773 -0.5279998779296875 L2.9280004501342773 2.9280004501342773 L2.712000846862793 2.9280004501342773"></path></svg>