<svg xmlns="http://www.w3.org/2000/svg" viewBox="0.0 0.0 24.0 24.0" height="200px" width="200px"><path fill="none" stroke="black" stroke-width=".3" stroke-opacity="1.0"  filling="0" d="M13.3544282913208 11.186328887939453 L13.3544282913208 11.186328887939453 C13.070073127746582 11.364553451538086 12.631973266601562 11.364608764648438 12.347652435302734 11.186328887939453 L12.347652435302734 9.392231941223145 C12.619254112243652 9.19511604309082 13.082786560058594 9.195172309875488 13.3544282913208 9.392231941223145 L13.3544282913208 11.186328887939453"></path>
<path fill="none" stroke="black" stroke-width=".3" stroke-opacity="1.0"  filling="0" d="M11.148635864257812 11.502120018005371 L11.148635864257812 11.502120018005371 C10.980875968933105 11.396927833557129 10.813117027282715 11.291736602783203 10.645357131958008 11.186544418334961 L10.645140647888184 9.392448425292969 C10.91678237915039 9.195387840270996 11.380314826965332 9.195333480834961 11.65191650390625 9.392448425292969 L11.652132034301758 11.186544418334961 C11.484299659729004 11.291736602783203 11.316468238830566 11.396927833557129 11.148635864257812 11.502120018005371 L11.148635864257812 11.502120018005371"></path>
<path fill="none" stroke="black" stroke-width=".3" stroke-opacity="1.0"  filling="0" d="M11.738100051879883 22.701072692871094 L11.614116668701172 17.446006774902344 C11.060751914978027 17.392353057861328 10.366425514221191 17.299161911010742 10.062804222106934 16.833431243896484 L10.062804222106934 13.064339637756348 L10.062804222106934 9.295248031616211 C9.503220558166504 8.71934986114502 8.453340530395508 9.037043571472168 7.692420482635498 9.047280311584473 L8.003028869628906 8.45954418182373 C8.660536766052246 7.979475498199463 9.903324127197266 8.820369720458984 10.361532211303711 8.032943725585938 C10.82639217376709 7.234086036682129 10.227621078491211 6.817948818206787 10.124364852905273 6.046392440795898 C10.069103240966797 5.63346529006958 10.954997062683105 5.885220050811768 11.368956565856934 5.932128429412842 L11.368956565856934 2.2424163818359375 C11.30034065246582 2.176248550415039 11.231724739074707 2.1100807189941406 11.163108825683594 2.043912887573242 L8.76810073852539 2.043912887573242 C10.190255165100098 0.6693021059036255 13.809043884277344 0.6697826385498047 15.231468200683594 2.043912887573242 L12.836028099060059 2.043912887573242 C12.767412185668945 2.1100807189941406 12.698796272277832 2.176248550415039 12.630180358886719 2.2424163818359375 L12.630180358886719 5.932128429412842 C13.044281959533691 5.885204315185547 13.930421829223633 5.633314609527588 13.875204086303711 6.046392440795898 C13.77210807800293 6.817642688751221 13.172694206237793 7.234195232391357 13.637603759765625 8.032943725585938 C14.095914840698242 8.820355415344238 15.339019775390625 7.979465484619141 15.996539115905762 8.45954418182373 L16.307147979736328 9.047280311584473 C15.546075820922852 9.037042617797852 14.496451377868652 8.719490051269531 13.936548233032227 9.295248031616211 L13.936548233032227 13.064231872558594 L13.936548233032227 16.833215713500977 C13.633179664611816 17.298871994018555 12.939046859741211 17.39213752746582 12.385884284973145 17.44579315185547 L12.26168441772461 22.700855255126953 C12.098468780517578 22.762666702270508 11.901360511779785 22.762765884399414 11.738100051879883 22.701072692871094 L11.738100051879883 22.701072692871094"></path></svg>