<svg xmlns="http://www.w3.org/2000/svg" viewBox="0.0 0.0 24.0 24.0" height="200px" width="200px"><path fill="none" stroke="black" stroke-width=".3" stroke-opacity="1.0"  filling="0" d="M1.2000007629394531 6.076848030090332 L5.52496862411499 6.076848030090332 L9.849936485290527 6.076848030090332 L9.849936485290527 12.474767684936523 L5.52496862411499 12.474767684936523 L1.2000007629394531 12.474767684936523 L1.2000007629394531 6.076848030090332"></path>
<path fill="none" stroke="black" stroke-width=".3" stroke-opacity="1.0"  filling="0" d="M9.853824615478516 6.076848030090332 L16.326047897338867 6.076848030090332 L22.79827117919922 6.076848030090332 L22.79827117919922 6.990744113922119 L16.326047897338867 6.990744113922119 L9.853824615478516 6.990744113922119 L9.853824615478516 6.076848030090332"></path>
<path fill="none" stroke="black" stroke-width=".3" stroke-opacity="1.0"  filling="0" d="M1.7909765243530273 6.607776165008545 L1.8905515670776367 6.300623893737793 L2.3136959075927734 6.607776165008545 L2.152128219604492 7.104360103607178 L1.629624366760254 7.104576110839844 L1.4682722091674805 6.607776165008545 L1.7909765243530273 6.607776165008545"></path>
<path fill="none" stroke="black" stroke-width=".3" stroke-opacity="1.0"  filling="0" d="M3.215280532836914 6.607776165008545 L3.315073013305664 6.300623893737793 L3.7377843856811523 6.607776165008545 L3.5762157440185547 7.104576110839844 L3.0539283752441406 7.104576110839844 L2.892359733581543 6.607776165008545 L3.215280532836914 6.607776165008545"></path>
<path fill="none" stroke="black" stroke-width=".3" stroke-opacity="1.0"  filling="0" d="M4.662479877471924 6.607776165008545 L4.762056350708008 6.300623893737793 L5.184768199920654 6.607776165008545 L5.023416042327881 7.104360103607178 L4.500912189483643 7.104360103607178 L4.339344501495361 6.607776165008545 L4.662479877471924 6.607776165008545"></path>
<path fill="none" stroke="black" stroke-width=".3" stroke-opacity="1.0"  filling="0" d="M6.109464645385742 6.607776165008545 L6.209256172180176 6.300623893737793 L6.631752014160156 6.607776165008545 L6.470400333404541 7.104360103607178 L5.9481120109558105 7.104576110839844 L5.786760330200195 6.607991695404053 L6.109464645385742 6.607776165008545"></path>
<path fill="none" stroke="black" stroke-width=".3" stroke-opacity="1.0"  filling="0" d="M7.55666446685791 6.607776165008545 L7.656456470489502 6.300623893737793 L8.079168319702148 6.607776165008545 L7.917600154876709 7.104576110839844 L7.3953118324279785 7.104576110839844 L7.233960151672363 6.607991695404053 L7.55666446685791 6.607776165008545"></path>
<path fill="none" stroke="black" stroke-width=".3" stroke-opacity="1.0"  filling="0" d="M9.234768867492676 6.797639846801758 L9.334559440612793 7.104576110839844 L8.811840057373047 7.104576110839844 L8.650487899780273 6.607991695404053 L9.073200225830078 6.300840377807617 L9.495912551879883 6.607991695404053 L9.234768867492676 6.797639846801758"></path>
<path fill="none" stroke="black" stroke-width=".3" stroke-opacity="1.0"  filling="0" d="M2.599247932434082 6.933072090148926 L3.021961212158203 7.240008354187012 L2.8603925704956055 7.737024307250977 L2.337888717651367 7.737024307250977 L2.176321029663086 7.240008354187012 L2.599247932434082 6.933072090148926"></path>
<path fill="none" stroke="black" stroke-width=".3" stroke-opacity="1.0"  filling="0" d="M4.0462327003479 6.933072090148926 L4.468944549560547 7.240008354187012 L4.307592868804932 7.737024307250977 L3.784872055053711 7.737024307250977 L3.623520851135254 7.240008354187012 L4.0462327003479 6.933072090148926"></path>
<path fill="none" stroke="black" stroke-width=".3" stroke-opacity="1.0"  filling="0" d="M5.470536231994629 6.933072090148926 L5.893464088439941 7.240008354187012 L5.731680393218994 7.737024307250977 L5.209392547607422 7.737024307250977 L5.047824382781982 7.240008354187012 L5.470536231994629 6.933072090148926"></path>
<path fill="none" stroke="black" stroke-width=".3" stroke-opacity="1.0"  filling="0" d="M6.925296306610107 6.933072090148926 L7.348008155822754 7.240008354187012 L7.186440467834473 7.737024307250977 L6.6641526222229 7.737024307250977 L6.502583980560303 7.240008354187012 L6.925296306610107 6.933072090148926"></path>
<path fill="none" stroke="black" stroke-width=".3" stroke-opacity="1.0"  filling="0" d="M8.357376098632812 6.933072090148926 L8.779871940612793 7.240008354187012 L8.618304252624512 7.737024307250977 L8.096015930175781 7.737024307250977 L7.934664249420166 7.240008354187012 L8.357376098632812 6.933072090148926"></path>
<path fill="none" stroke="black" stroke-width=".3" stroke-opacity="1.0"  filling="0" d="M1.7909765243530273 7.857767581939697 L1.8905515670776367 7.551048278808594 L2.3134803771972656 7.857767581939697 L2.1519126892089844 8.35478401184082 L1.629408836364746 8.35478401184082 L1.4682722091674805 7.857767581939697 L1.7909765243530273 7.857767581939697"></path>
<path fill="none" stroke="black" stroke-width=".3" stroke-opacity="1.0"  filling="0" d="M9.853824615478516 7.890599727630615 L16.326047897338867 7.890599727630615 L22.79827117919922 7.890599727630615 L22.79827117919922 8.804495811462402 L16.326047897338867 8.804495811462402 L9.853824615478516 8.804495811462402 L9.853824615478516 7.890599727630615"></path>
<path fill="none" stroke="black" stroke-width=".3" stroke-opacity="1.0"  filling="0" d="M4.923624038696289 8.047632217407227 L5.023416042327881 8.35478401184082 L4.500912189483643 8.35478401184082 L4.339344501495361 7.857767581939697 L4.762056350708008 7.551048278808594 L5.184768199920654 7.857767581939697 L4.923624038696289 8.047632217407227"></path>
<path fill="none" stroke="black" stroke-width=".3" stroke-opacity="1.0"  filling="0" d="M6.370608329772949 8.047632217407227 L6.470400333404541 8.35478401184082 L5.947896480560303 8.35478401184082 L5.786544322967529 7.857767581939697 L6.209256172180176 7.551048278808594 L6.631752014160156 7.857767581939697 L6.370608329772949 8.047632217407227"></path>
<path fill="none" stroke="black" stroke-width=".3" stroke-opacity="1.0"  filling="0" d="M9.234768867492676 8.047632217407227 L9.334559440612793 8.35478401184082 L8.811840057373047 8.35478401184082 L8.650487899780273 7.857767581939697 L9.073200225830078 7.551048278808594 L9.495912551879883 7.857767581939697 L9.234768867492676 8.047632217407227"></path>
<path fill="none" stroke="black" stroke-width=".3" stroke-opacity="1.0"  filling="0" d="M3.4766407012939453 8.084783554077148 L3.5762157440185547 8.391719818115234 L3.0539283752441406 8.391935348510742 L2.892359733581543 7.8949198722839355 L3.315073013305664 7.587768077850342 L3.7377843856811523 7.8949198722839355 L3.4766407012939453 8.084783554077148"></path>
<path fill="none" stroke="black" stroke-width=".3" stroke-opacity="1.0"  filling="0" d="M7.917600154876709 8.35478401184082 L7.3953118324279785 8.35478401184082 L7.233960151672363 7.857767581939697 L7.656456470489502 7.551048278808594 L8.079168319702148 7.857767581939697 L7.917600154876709 8.35478401184082"></path>
<path fill="none" stroke="black" stroke-width=".3" stroke-opacity="1.0"  filling="0" d="M2.176321029663086 8.488920211791992 L2.599247932434082 8.181768417358398 L3.021961212158203 8.488920211791992 L2.8603925704956055 8.985719680786133 L2.337888717651367 8.985719680786133 L2.176321029663086 8.488920211791992"></path>
<path fill="none" stroke="black" stroke-width=".3" stroke-opacity="1.0"  filling="0" d="M4.468944549560547 8.488920211791992 L4.307592868804932 8.985719680786133 L3.784872055053711 8.985719680786133 L3.623520851135254 8.488920211791992 L4.0462327003479 8.181768417358398 L4.468944549560547 8.488920211791992"></path>
<path fill="none" stroke="black" stroke-width=".3" stroke-opacity="1.0"  filling="0" d="M5.893464088439941 8.488920211791992 L5.731680393218994 8.985719680786133 L5.209392547607422 8.985719680786133 L5.047824382781982 8.488920211791992 L5.470536231994629 8.181768417358398 L5.893464088439941 8.488920211791992"></path>
<path fill="none" stroke="black" stroke-width=".3" stroke-opacity="1.0"  filling="0" d="M7.348008155822754 8.488920211791992 L7.186440467834473 8.985719680786133 L6.6641526222229 8.985719680786133 L6.502583980560303 8.488920211791992 L6.925296306610107 8.181768417358398 L7.348008155822754 8.488920211791992"></path>
<path fill="none" stroke="black" stroke-width=".3" stroke-opacity="1.0"  filling="0" d="M8.618304252624512 8.985936164855957 L8.096015930175781 8.985936164855957 L7.934664249420166 8.4891357421875 L8.357376098632812 8.181983947753906 L8.779871940612793 8.4891357421875 L8.618304252624512 8.985936164855957"></path>
<path fill="none" stroke="black" stroke-width=".3" stroke-opacity="1.0"  filling="0" d="M1.7909765243530273 9.086592674255371 L1.8905515670776367 8.779655456542969 L2.3134803771972656 9.086592674255371 L2.1519126892089844 9.58360767364502 L1.629408836364746 9.58360767364502 L1.4680566787719727 9.086592674255371 L1.7909765243530273 9.086592674255371"></path>
<path fill="none" stroke="black" stroke-width=".3" stroke-opacity="1.0"  filling="0" d="M9.234768867492676 9.276240348815918 L9.334559440612793 9.58360767364502 L8.811840057373047 9.58360767364502 L8.650487899780273 9.086592674255371 L9.073200225830078 8.779655456542969 L9.495912551879883 9.086592674255371 L9.234768867492676 9.276240348815918"></path>
<path fill="none" stroke="black" stroke-width=".3" stroke-opacity="1.0"  filling="0" d="M3.5762157440185547 9.583391189575195 L3.0539283752441406 9.583391189575195 L2.892359733581543 9.086376190185547 L3.315073013305664 8.779439926147461 L3.7377843856811523 9.086376190185547 L3.5762157440185547 9.583391189575195"></path>
<path fill="none" stroke="black" stroke-width=".3" stroke-opacity="1.0"  filling="0" d="M5.023632526397705 9.583391189575195 L4.501128196716309 9.583391189575195 L4.339560508728027 9.086376190185547 L4.762272357940674 8.779439926147461 L5.18498420715332 9.086376190185547 L5.023632526397705 9.583391189575195"></path>
<path fill="none" stroke="black" stroke-width=".3" stroke-opacity="1.0"  filling="0" d="M6.470615863800049 9.583391189575195 L5.9481120109558105 9.583391189575195 L5.786760330200195 9.086376190185547 L6.209472179412842 8.779439926147461 L6.631968021392822 9.086376190185547 L6.470615863800049 9.583391189575195"></path>
<path fill="none" stroke="black" stroke-width=".3" stroke-opacity="1.0"  filling="0" d="M7.917600154876709 9.583391189575195 L7.3953118324279785 9.583391189575195 L7.233960151672363 9.086376190185547 L7.656456470489502 8.779439926147461 L8.079168319702148 9.086376190185547 L7.917600154876709 9.583391189575195"></path>
<path fill="none" stroke="black" stroke-width=".3" stroke-opacity="1.0"  filling="0" d="M9.853824615478516 9.704567909240723 L16.326047897338867 9.704567909240723 L22.79827117919922 9.704567909240723 L22.79827117919922 10.618464469909668 L16.326047897338867 10.618464469909668 L9.853824615478516 10.618464469909668 L9.853824615478516 9.704567909240723"></path>
<path fill="none" stroke="black" stroke-width=".3" stroke-opacity="1.0"  filling="0" d="M2.8606090545654297 10.227288246154785 L2.3381052017211914 10.227288246154785 L2.1765365600585938 9.730703353881836 L2.5994644165039062 9.423336029052734 L3.022176742553711 9.730703353881836 L2.8606090545654297 10.227288246154785"></path>
<path fill="none" stroke="black" stroke-width=".3" stroke-opacity="1.0"  filling="0" d="M4.3078083992004395 10.227288246154785 L3.7850894927978516 10.227288246154785 L3.6237363815307617 9.730703353881836 L4.046448707580566 9.423336029052734 L4.469160556793213 9.730703353881836 L4.3078083992004395 10.227288246154785"></path>
<path fill="none" stroke="black" stroke-width=".3" stroke-opacity="1.0"  filling="0" d="M5.731680393218994 10.227288246154785 L5.209392547607422 10.227288246154785 L5.047824382781982 9.730703353881836 L5.470536231994629 9.423336029052734 L5.893464088439941 9.730703353881836 L5.731680393218994 10.227288246154785"></path>
<path fill="none" stroke="black" stroke-width=".3" stroke-opacity="1.0"  filling="0" d="M7.186440467834473 10.227288246154785 L6.6641526222229 10.227288246154785 L6.502583980560303 9.730703353881836 L6.925296306610107 9.423336029052734 L7.348008155822754 9.730703353881836 L7.186440467834473 10.227288246154785"></path>
<path fill="none" stroke="black" stroke-width=".3" stroke-opacity="1.0"  filling="0" d="M8.618304252624512 10.227288246154785 L8.096015930175781 10.227288246154785 L7.934664249420166 9.730703353881836 L8.357376098632812 9.423336029052734 L8.779871940612793 9.730703353881836 L8.618304252624512 10.227288246154785"></path>
<path fill="none" stroke="black" stroke-width=".3" stroke-opacity="1.0"  filling="0" d="M1.7909765243530273 10.332263946533203 L1.8905515670776367 10.025111198425293 L2.3134803771972656 10.332263946533203 L2.1519126892089844 10.829063415527344 L1.629408836364746 10.829063415527344 L1.4680566787719727 10.332263946533203 L1.7909765243530273 10.332263946533203"></path>
<path fill="none" stroke="black" stroke-width=".3" stroke-opacity="1.0"  filling="0" d="M9.234768867492676 10.522128105163574 L9.334559440612793 10.829063415527344 L8.811840057373047 10.829063415527344 L8.650487899780273 10.332263946533203 L9.073200225830078 10.025111198425293 L9.495912551879883 10.332263946533203 L9.234768867492676 10.522128105163574"></path>
<path fill="none" stroke="black" stroke-width=".3" stroke-opacity="1.0"  filling="0" d="M3.5762157440185547 10.829063415527344 L3.0539283752441406 10.829063415527344 L2.892359733581543 10.332263946533203 L3.315073013305664 10.025111198425293 L3.7377843856811523 10.332263946533203 L3.5762157440185547 10.829063415527344"></path>
<path fill="none" stroke="black" stroke-width=".3" stroke-opacity="1.0"  filling="0" d="M5.023632526397705 10.829063415527344 L4.501128196716309 10.829063415527344 L4.339560508728027 10.332263946533203 L4.762272357940674 10.025111198425293 L5.18498420715332 10.332263946533203 L5.023632526397705 10.829063415527344"></path>
<path fill="none" stroke="black" stroke-width=".3" stroke-opacity="1.0"  filling="0" d="M6.470615863800049 10.829063415527344 L5.9481120109558105 10.829063415527344 L5.786760330200195 10.332263946533203 L6.209472179412842 10.025111198425293 L6.631968021392822 10.332263946533203 L6.470615863800049 10.829063415527344"></path>
<path fill="none" stroke="black" stroke-width=".3" stroke-opacity="1.0"  filling="0" d="M7.917600154876709 10.829063415527344 L7.3953118324279785 10.829063415527344 L7.233960151672363 10.332263946533203 L7.656456470489502 10.025111198425293 L8.079168319702148 10.332263946533203 L7.917600154876709 10.829063415527344"></path>
<path fill="none" stroke="black" stroke-width=".3" stroke-opacity="1.0"  filling="0" d="M5.470536231994629 11.232335090637207 L5.209392547607422 11.422200202941895 L5.047824382781982 10.925399780273438 L5.470536231994629 10.618247985839844 L5.893464088439941 10.925399780273438 L5.731680393218994 11.422200202941895 L5.470536231994629 11.232335090637207"></path>
<path fill="none" stroke="black" stroke-width=".3" stroke-opacity="1.0"  filling="0" d="M2.599247932434082 11.255231857299805 L2.337888717651367 11.445096015930176 L2.176321029663086 10.948080062866211 L2.599247932434082 10.641143798828125 L3.021961212158203 10.948080062866211 L2.8603925704956055 11.445096015930176 L2.599247932434082 11.255231857299805"></path>
<path fill="none" stroke="black" stroke-width=".3" stroke-opacity="1.0"  filling="0" d="M4.0462327003479 11.255231857299805 L3.784872055053711 11.445096015930176 L3.623520851135254 10.948080062866211 L4.0462327003479 10.641143798828125 L4.468944549560547 10.948080062866211 L4.307592868804932 11.445096015930176 L4.0462327003479 11.255231857299805"></path>
<path fill="none" stroke="black" stroke-width=".3" stroke-opacity="1.0"  filling="0" d="M6.925296306610107 11.255231857299805 L6.6641526222229 11.445096015930176 L6.502583980560303 10.948080062866211 L6.925296306610107 10.641143798828125 L7.348008155822754 10.948080062866211 L7.186440467834473 11.445096015930176 L6.925296306610107 11.255231857299805"></path>
<path fill="none" stroke="black" stroke-width=".3" stroke-opacity="1.0"  filling="0" d="M8.357376098632812 11.255231857299805 L8.096015930175781 11.445096015930176 L7.934664249420166 10.948080062866211 L8.357376098632812 10.641143798828125 L8.779871940612793 10.948080062866211 L8.618304252624512 11.445096015930176 L8.357376098632812 11.255231857299805"></path>
<path fill="none" stroke="black" stroke-width=".3" stroke-opacity="1.0"  filling="0" d="M9.855335235595703 11.56065559387207 L16.327667236328125 11.56065559387207 L22.799999237060547 11.56065559387207 L22.799999237060547 12.474767684936523 L16.327667236328125 12.474767684936523 L9.855335235595703 12.474767684936523 L9.855335235595703 11.56065559387207"></path>
<path fill="none" stroke="black" stroke-width=".3" stroke-opacity="1.0"  filling="0" d="M2.152128219604492 12.078408241271973 L1.629624366760254 12.078408241271973 L1.4682722091674805 11.581391334533691 L1.890768051147461 11.274456024169922 L2.3136959075927734 11.581391334533691 L2.152128219604492 12.078408241271973"></path>
<path fill="none" stroke="black" stroke-width=".3" stroke-opacity="1.0"  filling="0" d="M3.5762157440185547 12.078408241271973 L3.0539283752441406 12.078408241271973 L2.892359733581543 11.581391334533691 L3.315073013305664 11.274456024169922 L3.7377843856811523 11.581391334533691 L3.5762157440185547 12.078408241271973"></path>
<path fill="none" stroke="black" stroke-width=".3" stroke-opacity="1.0"  filling="0" d="M5.023632526397705 12.078408241271973 L4.501128196716309 12.078408241271973 L4.339560508728027 11.581391334533691 L4.762272357940674 11.274456024169922 L5.18498420715332 11.581391334533691 L5.023632526397705 12.078408241271973"></path>
<path fill="none" stroke="black" stroke-width=".3" stroke-opacity="1.0"  filling="0" d="M7.917600154876709 12.078408241271973 L7.3953118324279785 12.078408241271973 L7.233960151672363 11.581391334533691 L7.656456470489502 11.274456024169922 L8.079168319702148 11.581391334533691 L7.917600154876709 12.078408241271973"></path>
<path fill="none" stroke="black" stroke-width=".3" stroke-opacity="1.0"  filling="0" d="M9.334559440612793 12.078408241271973 L8.811840057373047 12.078408241271973 L8.650487899780273 11.581391334533691 L9.073200225830078 11.274456024169922 L9.495912551879883 11.581391334533691 L9.334559440612793 12.078408241271973"></path>
<path fill="none" stroke="black" stroke-width=".3" stroke-opacity="1.0"  filling="0" d="M6.470615863800049 12.10108757019043 L5.9481120109558105 12.10108757019043 L5.786760330200195 11.604071617126465 L6.209472179412842 11.297351837158203 L6.631968021392822 11.604071617126465 L6.470615863800049 12.10108757019043"></path>
<path fill="none" stroke="black" stroke-width=".3" stroke-opacity="1.0"  filling="0" d="M1.2000007629394531 13.381752014160156 L8.397480010986328 13.381752014160156 L15.59496021270752 13.381752014160156 L22.792438507080078 13.381752014160156 L22.792438507080078 14.295647621154785 L15.59496021270752 14.295647621154785 L8.397480010986328 14.295647621154785 L1.2000007629394531 14.295647621154785 L1.2000007629394531 13.381752014160156"></path>
<path fill="none" stroke="black" stroke-width=".3" stroke-opacity="1.0"  filling="0" d="M1.2000007629394531 15.195504188537598 L8.397480010986328 15.195505142211914 L15.59496021270752 15.195505142211914 L22.792438507080078 15.195504188537598 L22.792438507080078 16.109399795532227 L15.59496021270752 16.109399795532227 L8.397480010986328 16.109399795532227 L1.2000007629394531 16.109399795532227 L1.2000007629394531 15.195504188537598"></path>
<path fill="none" stroke="black" stroke-width=".3" stroke-opacity="1.0"  filling="0" d="M1.2000007629394531 17.00925636291504 L8.397480010986328 17.00925636291504 L15.59496021270752 17.00925636291504 L22.792438507080078 17.00925636291504 L22.792438507080078 17.92315101623535 L15.59496021270752 17.92315101623535 L8.397480010986328 17.92315101623535 L1.2000007629394531 17.92315101623535 L1.2000007629394531 17.00925636291504"></path></svg>