<svg xmlns="http://www.w3.org/2000/svg" viewBox="0.0 0.0 24.0 24.0" height="200px" width="200px"><path fill="none" stroke="black" stroke-width=".3" stroke-opacity="1.0"  filling="0" d="M5.127312183380127 10.772687911987305 L5.127312183380127 10.772687911987305 C6.733942031860352 11.097097396850586 8.05105972290039 11.494091033935547 8.745885848999023 13.171553611755371 C9.274423599243164 14.44756031036377 9.064311027526855 15.81149959564209 8.374797821044922 16.85643768310547 C7.6852850914001465 17.90137481689453 6.5163726806640625 18.62731170654297 5.127312183380127 18.62731170654297 C3.738279342651367 18.62731170654297 2.569362163543701 17.901376724243164 1.879828929901123 16.8564395904541 C1.190295696258545 15.811501502990723 0.980146050453186 14.447562217712402 1.5086477994918823 13.171553611755371 C2.2034366130828857 11.494063377380371 3.5207056999206543 11.097086906433105 5.127312183380127 10.772687911987305 L5.127312183380127 10.772687911987305"></path>
<path fill="none" stroke="black" stroke-width=".3" stroke-opacity="1.0"  filling="0" d="M18.87268829345703 10.772687911987305 L18.87268829345703 10.772687911987305 C20.479293823242188 11.097086906433105 21.79656410217285 11.494065284729004 22.491352081298828 13.171553611755371 C23.019855499267578 14.447563171386719 22.809703826904297 15.811502456665039 22.12017059326172 16.8564395904541 C21.43063735961914 17.901376724243164 20.261720657348633 18.62731170654297 18.87268829345703 18.62731170654297 C17.483591079711914 18.62731170654297 16.314682006835938 17.901412963867188 15.62515926361084 16.85649299621582 C14.935638427734375 15.81157398223877 14.725505828857422 14.44763469696045 15.253962516784668 13.171553611755371 C15.948709487915039 11.493928909301758 17.266000747680664 11.097064018249512 18.87268829345703 10.772687911987305 L18.87268829345703 10.772687911987305"></path>
<path fill="none" stroke="black" stroke-width=".3" stroke-opacity="1.0"  filling="0" d="M12.0 13.72584056854248 L9.41815185546875 9.300432205200195 L14.581416130065918 9.300432205200195 L12.0 13.72584056854248"></path>
<path fill="none" stroke="black" stroke-width=".3" stroke-opacity="1.0"  filling="0" d="M18.017974853515625 14.209247589111328 L12.85471248626709 14.209247589111328 L15.436126708984375 9.78384017944336 L18.017974853515625 14.209247589111328"></path>
<path fill="none" stroke="black" stroke-width=".3" stroke-opacity="1.0"  filling="0" d="M19.296695709228516 14.94343090057373 L19.296695709228516 14.94343090057373 C19.224143981933594 15.065863609313965 19.032455444335938 15.231568336486816 18.87160873413086 15.191400527954102 L12.002159118652344 15.191400527954102 C12.001583099365234 15.191544532775879 12.001008033752441 15.19168758392334 12.000432014465332 15.191831588745117 L12.000432014465332 15.191831588745117 C12.000288009643555 15.191831588745117 12.000144004821777 15.191831588745117 12.0 15.191831588745117 L11.999351501464844 15.191831588745117 C11.81281566619873 15.172174453735352 11.683691024780273 15.106032371520996 11.575992584228516 14.947535514831543 L8.563440322875977 9.78384017944336 L5.551320552825928 14.947535514831543 C4.871311187744141 15.338239669799805 4.9093337059021 15.235669136047363 4.703305244445801 14.45311164855957 L7.065156936645508 10.403867721557617 L9.427008628845215 6.354624271392822 L8.563440322875977 6.354624271392822 C8.399928092956543 6.190968036651611 8.072904586791992 6.094998836517334 8.072904586791992 5.863656044006348 C8.072904586791992 5.632364273071289 8.399928092956543 5.5364885330200195 8.563440322875977 5.3729047775268555 L11.018280982971191 5.3729047775268555 C11.181864738464355 5.536560535430908 11.508981704711914 5.632479190826416 11.509032249450684 5.863872528076172 C11.509082794189453 6.095215320587158 11.182007789611816 6.1911845207214355 11.018495559692383 6.354840278625488 L10.564031600952148 6.354840278625488 L9.41815185546875 8.318496704101562 L15.154247283935547 8.318496704101562 L15.727079391479492 7.336560249328613 L14.454192161560059 7.336560249328613 C14.290679931640625 7.172976493835449 13.963655471801758 7.0771002769470215 13.963655471801758 6.845808506011963 C13.963655471801758 6.614516735076904 14.290679931640625 6.518640518188477 14.454192161560059 6.3550567626953125 L16.41806411743164 6.3550567626953125 C16.731096267700195 6.385963439941406 16.925762176513672 6.789142608642578 17.005800247192383 7.093344211578369 L16.004640579223633 8.809463500976562 L19.296480178833008 14.453329086303711 C19.373567581176758 14.617319107055664 19.386198043823242 14.780784606933594 19.296695709228516 14.94343090057373 L19.296695709228516 14.94343090057373"></path>
<path fill="none" stroke="black" stroke-width=".3" stroke-opacity="1.0"  filling="0" d="M5.127312183380127 17.645809173583984 L5.127312183380127 17.645809173583984 C3.89827823638916 17.313358306884766 3.28706693649292 17.412822723388672 2.5839037895202637 16.186960220336914 C1.4734523296356201 14.251049995422363 2.877736806869507 11.754623413085938 5.127312183380127 11.754623413085938 C7.376888275146484 11.754623413085938 8.781171798706055 14.251049995422363 7.67072057723999 16.186960220336914 C6.967557430267334 17.412822723388672 6.35634708404541 17.313356399536133 5.127312183380127 17.645809173583984 L5.127312183380127 17.645809173583984"></path>
<path fill="none" stroke="black" stroke-width=".3" stroke-opacity="1.0"  filling="0" d="M18.87268829345703 17.645809173583984 L18.87268829345703 17.645809173583984 C17.643653869628906 17.313358306884766 17.03244400024414 17.412824630737305 16.32927894592285 16.186960220336914 C15.218828201293945 14.251051902770996 16.62311363220215 11.754623413085938 18.87268829345703 11.754623413085938 C21.122257232666016 11.754623413085938 22.526525497436523 14.251041412353516 21.4161434173584 16.186960220336914 C20.713001251220703 17.412866592407227 20.101760864257812 17.31336784362793 18.87268829345703 17.645809173583984 L18.87268829345703 17.645809173583984"></path></svg>