<svg xmlns="http://www.w3.org/2000/svg" viewBox="0.0 0.0 24.0 24.0" height="200px" width="200px"><path fill="none" stroke="black" stroke-width=".3" stroke-opacity="1.0"  filling="0" d="M13.996919631958008 9.867000579833984 L17.981040954589844 12.4422607421875 L21.965160369873047 15.0175199508667 L19.635168075561523 15.0175199508667 L19.635168075561523 18.90876007080078 L19.635168075561523 22.799999237060547 L13.969703674316406 22.799999237060547 L13.969703674316406 16.61937713623047 L10.035479545593262 16.61937713623047 L10.035479545593262 22.799999237060547 L4.372608184814453 22.799999237060547 L4.372608184814453 18.90876007080078 L4.372608184814453 15.0175199508667 L2.0346240997314453 15.0175199508667 L7.022064208984375 11.79771614074707 L12.009504318237305 8.577912330627441 L13.14199161529541 9.316847801208496 L13.14199161529541 5.258424282073975 L13.14199161529541 1.2000007629394531 L15.617568016052246 1.2000007629394531 C16.15752601623535 1.523308515548706 16.706684112548828 1.8323487043380737 17.268022537231445 2.1169204711914062 L19.063846588134766 2.1169204711914062 L19.063846588134766 6.0971527099609375 L17.268022537231445 6.0971527099609375 C16.705114364624023 5.815698146820068 16.15605354309082 5.505986213684082 15.617568016052246 5.180232048034668 L13.996919631958008 5.180232048034668 L13.996919631958008 9.867000579833984"></path></svg>