<svg xmlns="http://www.w3.org/2000/svg" viewBox="0.0 0.0 24.0 24.0" height="200px" width="200px"><path fill="none" stroke="black" stroke-width=".3" stroke-opacity="1.0"  filling="0" d="M13.656000137329102 7.439999580383301 L15.2160005569458 6.503999710083008 L15.62399959564209 7.223999977111816 L13.656000137329102 8.399999618530273 L11.880000114440918 7.343999862670898 L10.103999137878418 8.399999618530273 L8.32800006866455 7.343999862670898 L6.575999736785889 8.399999618530273 L4.5839996337890625 7.223999977111816 L5.0159993171691895 6.503999710083008 L6.575999736785889 7.439999580383301 L8.32800006866455 6.383999824523926 L10.103999137878418 7.439999580383301 L11.880000114440918 6.383999824523926 L13.656000137329102 7.439999580383301"></path>
<path fill="none" stroke="black" stroke-width=".3" stroke-opacity="1.0"  filling="0" d="M13.656000137329102 11.232000350952148 L15.2160005569458 10.295999526977539 L15.62399959564209 10.992000579833984 L13.656000137329102 12.191999435424805 L11.880000114440918 11.11199951171875 L10.103999137878418 12.191999435424805 L8.32800006866455 11.11199951171875 L6.575999736785889 12.191999435424805 L4.5839996337890625 10.992000579833984 L5.0159993171691895 10.295999526977539 L6.575999736785889 11.232000350952148 L8.32800006866455 10.176000595092773 L10.103999137878418 11.232000350952148 L11.880000114440918 10.176000595092773 L13.656000137329102 11.232000350952148"></path>
<path fill="none" stroke="black" stroke-width=".3" stroke-opacity="1.0"  filling="0" d="M13.656000137329102 15.04800033569336 L15.2160005569458 14.11199951171875 L15.62399959564209 14.808000564575195 L13.656000137329102 15.983999252319336 L11.880000114440918 14.928000450134277 L10.103999137878418 15.983999252319336 L8.32800006866455 14.928000450134277 L6.575999736785889 15.983999252319336 L4.5839996337890625 14.808000564575195 L5.0159993171691895 14.11199951171875 L6.575999736785889 15.04800033569336 L8.32800006866455 13.991999626159668 L10.103999137878418 15.04800033569336 L11.880000114440918 13.991999626159668 L13.656000137329102 15.04800033569336"></path>
<path fill="none" stroke="black" stroke-width=".3" stroke-opacity="1.0"  filling="0" d="M22.31999969482422 20.256000518798828 L17.807998657226562 21.552001953125 L17.807998657226562 22.72800064086914 L12.64799976348877 22.72800064086914 L7.48799991607666 22.72800064086914 L2.328000068664551 22.72800064086914 L2.328000068664551 16.09600067138672 L2.328000068664551 9.46399974822998 L2.328000068664551 2.8319997787475586 L4.487999439239502 2.8319997787475586 L4.487999439239502 1.896000862121582 C4.671999454498291 1.6960008144378662 4.768235206604004 1.2960004806518555 5.039999961853027 1.2960004806518555 C5.311764717102051 1.2960004806518555 5.4079999923706055 1.6960006952285767 5.5920000076293945 1.896000862121582 L5.5920000076293945 2.8319997787475586 L6.9599995613098145 2.8319997787475586 L6.9599995613098145 1.896000862121582 C7.1439995765686035 1.6960006952285767 7.240234851837158 1.2960004806518555 7.511999607086182 1.2960004806518555 C7.783764362335205 1.2960004806518555 7.880000114440918 1.6960008144378662 8.064000129699707 1.896000862121582 L8.064000129699707 2.8319997787475586 L9.432000160217285 2.8319997787475586 L9.432000160217285 1.896000862121582 C9.616000175476074 1.6960006952285767 9.712234497070312 1.2960004806518555 9.983999252319336 1.2960004806518555 C10.25576400756836 1.2960004806518555 10.35200023651123 1.6960006952285767 10.53600025177002 1.896000862121582 L10.53600025177002 2.8319997787475586 L11.808000564575195 2.8319997787475586 L11.808000564575195 1.896000862121582 C11.992000579833984 1.6960006952285767 12.088234901428223 1.2960004806518555 12.359999656677246 1.2960004806518555 C12.63176441192627 1.2960004806518555 12.727999687194824 1.6960006952285767 12.911999702453613 1.896000862121582 L12.911999702453613 2.8319997787475586 L14.15999984741211 2.8319997787475586 L14.15999984741211 1.896000862121582 C14.335999488830566 1.6960006952285767 14.421586036682129 1.2960004806518555 14.687999725341797 1.2960004806518555 C14.95976448059082 1.2960004806518555 15.055999755859375 1.6960006952285767 15.239999771118164 1.896000862121582 L15.239999771118164 2.807999610900879 L17.856000900268555 2.807999610900879 L19.34400177001953 8.624000549316406 L20.832000732421875 14.440000534057617 L22.31999969482422 20.256000518798828"></path>
<path fill="none" stroke="black" stroke-width=".3" stroke-opacity="1.0"  filling="0" d="M17.040000915527344 21.88800048828125 L10.116000175476074 21.88800048828125 L3.1919994354248047 21.88800048828125 L3.191999673843384 15.808000564575195 L3.191999673843384 9.72800064086914 L3.1919994354248047 3.6479997634887695 L4.535999774932861 3.815999984741211 C4.71999979019165 4.015999794006348 4.816235065460205 4.415999889373779 5.0879998207092285 4.415999889373779 C5.359764575958252 4.415999889373779 5.455999851226807 4.015999794006348 5.639999866485596 3.815999984741211 L7.008000373840332 3.815999984741211 C7.192000389099121 4.015999794006348 7.288235664367676 4.415999889373779 7.559999942779541 4.415999889373779 C7.831764221191406 4.415999889373779 7.927999496459961 4.015999794006348 8.11199951171875 3.815999984741211 L9.479999542236328 3.815999984741211 C9.663999557495117 4.015999794006348 9.760235786437988 4.415999889373779 10.032000541687012 4.415999889373779 C10.303765296936035 4.415999889373779 10.399999618530273 4.015999794006348 10.583999633789062 3.815999984741211 L11.855999946594238 3.815999984741211 C12.039999961853027 4.015999794006348 12.136236190795898 4.415999889373779 12.408000946044922 4.415999889373779 C12.679765701293945 4.415999889373779 12.776000022888184 4.015999794006348 12.960000038146973 3.815999984741211 L14.15999984741211 3.815999984741211 C14.343999862670898 4.015999794006348 14.440235137939453 4.415999889373779 14.711999893188477 4.415999889373779 C14.9837646484375 4.415999889373779 15.079999923706055 4.015999794006348 15.263999938964844 3.815999984741211 L17.040000915527344 3.6479997634887695 L17.040000915527344 9.72800064086914 L17.040000915527344 15.808000564575195 L17.040000915527344 21.88800048828125"></path></svg>