<svg xmlns="http://www.w3.org/2000/svg" viewBox="0.0 0.0 24.0 24.0" height="200px" width="200px"><path fill="none" stroke="black" stroke-width=".3" stroke-opacity="1.0"  filling="0" d="M20.22528076171875 1.2000007629394531 L20.22528076171875 1.2000007629394531 C20.511335372924805 1.4861284494400024 20.797391891479492 1.7722562551498413 21.083446502685547 2.0583839416503906 L21.083446502685547 7.752431869506836 L21.083446502685547 13.446479797363281 L21.083446502685547 19.140527725219727 C20.4425048828125 19.781633377075195 19.476755142211914 20.033382415771484 18.841691970825195 20.68031120300293 C18.250761032104492 21.282283782958984 18.23076629638672 22.458314895629883 17.45961570739746 22.800216674804688 C16.497840881347656 23.226634979248047 15.355483055114746 22.799657821655273 14.303417205810547 22.79931640625 C12.548598289489746 22.798748016357422 10.793779373168945 22.798152923583984 9.038960456848145 22.797542572021484 C7.284141540527344 22.796932220458984 5.529322624206543 22.796306610107422 3.774503707885742 22.79568099975586 L3.774503707885742 22.79568099975586 C3.4885199069976807 22.509552001953125 3.2025363445281982 22.22342300415039 2.9165525436401367 21.937294006347656 L2.9165525436401367 16.343183517456055 L2.9165525436401367 10.74907112121582 L2.9165525436401367 5.1549601554870605 C3.4852006435394287 2.704986810684204 4.516536712646484 1.7110803127288818 6.9788641929626465 1.2000007629394531 L13.602072715759277 1.2000007629394531 L20.22528076171875 1.2000007629394531"></path>
<path fill="none" stroke="black" stroke-width=".3" stroke-opacity="1.0"  filling="0" d="M4.203912258148193 5.1875762939453125 L10.62602424621582 5.1875762939453125 L17.04813575744629 5.1875762939453125 L17.04813575744629 10.629263877868652 L17.04813575744629 16.070951461791992 L17.04813575744629 21.512638092041016 C14.907430648803711 21.511930465698242 12.766727447509766 21.511159896850586 10.62602424621582 21.510385513305664 C8.485320091247559 21.50960922241211 6.344616889953613 21.508831024169922 4.203912258148193 21.508102416992188 L4.203912258148193 16.067928314208984 L4.203912258148193 10.627752304077148 L4.203912258148193 5.1875762939453125"></path>
<path fill="none" stroke="black" stroke-width=".3" stroke-opacity="1.0"  filling="0" d="M19.79608726501465 18.741575241088867 L19.79608726501465 18.741575241088867 C19.62127113342285 18.783695220947266 19.446456909179688 18.825815200805664 19.27164077758789 18.867935180664062 L19.27164077758789 13.717703819274902 L19.27164077758789 8.567472457885742 L19.27164077758789 3.4172401428222656 C19.12864875793457 3.2741763591766357 18.98565673828125 3.1311123371124268 18.84266471862793 2.988048553466797 L12.703404426574707 2.988048553466797 L6.564144611358643 2.988048553466797 C6.36187219619751 3.190422296524048 6.361872673034668 3.6440587043762207 6.564144611358643 3.846432685852051 L12.488699913024902 3.846432685852051 L18.41325569152832 3.846432685852051 L18.41325569152832 9.006889343261719 L18.41325569152832 14.16734504699707 L18.41325569152832 19.327800750732422 C18.232606887817383 19.49880027770996 18.051959991455078 19.669801712036133 17.87131118774414 19.840801239013672 L17.87131118774414 14.819233894348145 L17.87131118774414 9.797664642333984 L17.87131118774414 4.776096343994141 C17.734079360961914 4.638936519622803 17.596847534179688 4.501776218414307 17.45961570739746 4.364616394042969 L10.90272045135498 4.364616394042969 L4.345824718475342 4.364616394042969 C5.016587257385254 3.520836114883423 5.957474231719971 2.8318164348602295 6.9788641929626465 2.4873600006103516 L13.387475967407227 2.4873600006103516 L19.79608726501465 2.4873600006103516 L19.79608726501465 7.905431747436523 L19.79608726501465 13.323503494262695 L19.79608726501465 18.741575241088867"></path></svg>