<svg xmlns="http://www.w3.org/2000/svg" viewBox="0.0 0.0 24.0 24.0" height="200px" width="200px"><path fill="none" stroke="black" stroke-width=".3" stroke-opacity="1.0"  filling="0" d="M14.84990406036377 2.8718395233154297 L10.202231407165527 3.487224578857422 C10.136237144470215 2.990802526473999 10.71254825592041 2.5910327434539795 11.116559982299805 2.2951202392578125 L14.84990406036377 2.8718395233154297"></path>
<path fill="none" stroke="black" stroke-width=".3" stroke-opacity="1.0"  filling="0" d="M15.145824432373047 5.1370320320129395 L15.145824432373047 5.1370320320129395 C15.466511726379395 5.382768154144287 16.054887771606445 5.473718166351318 16.107887268066406 5.874240398406982 C16.160886764526367 6.274762153625488 15.616415977478027 6.515616416931152 15.370680809020996 6.836304187774658 L8.89608097076416 7.69317626953125 C6.976722717285156 7.817471981048584 8.435733795166016 6.301503658294678 8.671440124511719 5.993904113769531 L15.145824432373047 5.1370320320129395"></path>
<path fill="none" stroke="black" stroke-width=".3" stroke-opacity="1.0"  filling="0" d="M8.747039794921875 5.6889119148254395 L8.747039794921875 5.6889119148254395 C8.464151382446289 5.440584182739258 7.922904014587402 5.319548606872559 7.898375988006592 4.943928241729736 C7.872053623199463 4.540830612182617 8.389847755432129 4.30269718170166 8.635583877563477 3.982081413269043 L15.110184669494629 3.125208854675293 C15.430871963500977 3.3709447383880615 16.01924705505371 3.4618947505950928 16.072246551513672 3.8624162673950195 C16.125246047973633 4.262938022613525 15.58077621459961 4.5037922859191895 15.335041046142578 4.824480056762695 L8.860440254211426 5.681352138519287 C8.822640419006348 5.683872222900391 8.784839630126953 5.686391830444336 8.747039794921875 5.6889119148254395 L8.747039794921875 5.6889119148254395"></path>
<path fill="none" stroke="black" stroke-width=".3" stroke-opacity="1.0"  filling="0" d="M15.145824432373047 7.172184467315674 L15.145824432373047 7.172184467315674 C15.466511726379395 7.417848587036133 16.054880142211914 7.508699417114258 16.107887268066406 7.909176349639893 C16.160892486572266 8.309639930725098 15.616415977478027 8.550408363342285 15.370680809020996 8.871024131774902 L8.89608097076416 9.727895736694336 C6.974745750427246 9.855995178222656 8.438056945800781 8.333556175231934 8.671440124511719 8.029056549072266 L15.145824432373047 7.172184467315674"></path>
<path fill="none" stroke="black" stroke-width=".3" stroke-opacity="1.0"  filling="0" d="M15.145824432373047 9.207335472106934 L15.145824432373047 9.207335472106934 C15.466511726379395 9.453071594238281 16.054887771606445 9.544021606445312 16.107887268066406 9.944543838500977 C16.160886764526367 10.34506607055664 15.616415977478027 10.585919380187988 15.370680809020996 10.906607627868652 L8.89608097076416 11.763480186462402 C6.976727485656738 11.887767791748047 8.435728073120117 10.371813774108887 8.671440124511719 10.064207077026367 L15.145824432373047 9.207335472106934"></path>
<path fill="none" stroke="black" stroke-width=".3" stroke-opacity="1.0"  filling="0" d="M15.408479690551758 11.189568519592285 L15.408479690551758 11.189568519592285 C15.521951675415039 11.15594482421875 15.63542366027832 11.122320175170898 15.748895645141602 11.088696479797363 L14.360879898071289 13.921751976013184 C14.809584617614746 14.302847862243652 15.524065971374512 14.505480766296387 15.706993103027344 15.065040588378906 C16.165996551513672 16.469097137451172 14.731097221374512 17.29387092590332 13.971863746643066 17.970670700073242 L13.971863746643066 18.549335479736328 L10.689095497131348 19.141822814941406 L10.689095497131348 17.970670700073242 C9.111920356750488 16.564653396606445 8.317774772644043 15.724662780761719 9.939359664916992 14.043359756469727 L8.412888526916504 11.993952751159668 C8.58498477935791 12.02312183380127 8.759705543518066 12.058086395263672 8.933880805969238 12.046655654907227 L10.440695762634277 11.847071647644043 L11.807328224182129 13.681991577148438 C12.063504219055176 13.67810344696045 12.319680213928223 13.674216270446777 12.57585620880127 13.670328140258789 L13.678967475891113 11.418527603149414 L15.408479690551758 11.189568519592285"></path>
<path fill="none" stroke="black" stroke-width=".3" stroke-opacity="1.0"  filling="0" d="M10.689095497131348 19.861536026000977 L10.689095497131348 19.444005966186523 L13.972296714782715 18.853464126586914 L13.972296714782715 19.26883316040039 L10.689095497131348 19.861536026000977"></path>
<path fill="none" stroke="black" stroke-width=".3" stroke-opacity="1.0"  filling="0" d="M10.864056587219238 20.551437377929688 L10.864056587219238 20.551437377929688 C10.815600395202637 20.420759201049805 10.767145156860352 20.29007911682129 10.71868896484375 20.159400939941406 L13.971647262573242 19.57295799255371 L13.971647262573242 19.873199462890625 C13.969703674316406 19.912294387817383 13.96776008605957 19.951391220092773 13.965816497802734 19.99048614501953 L10.864056587219238 20.551437377929688"></path>
<path fill="none" stroke="black" stroke-width=".3" stroke-opacity="1.0"  filling="0" d="M11.379000663757324 21.082366943359375 L11.379000663757324 21.082366943359375 C11.271648406982422 20.994813919067383 11.16429615020752 20.907262802124023 11.056943893432617 20.81970977783203 L13.904256820678711 20.306711196899414 C13.69747257232666 20.565263748168945 13.49068832397461 20.823814392089844 13.283904075622559 21.082366943359375 L13.283904075622559 21.72043228149414 L11.379000663757324 21.72043228149414 L11.379000663757324 21.082366943359375"></path></svg>