<svg xmlns="http://www.w3.org/2000/svg" viewBox="0.0 0.0 24.0 24.0" height="200px" width="200px"><path fill="none" stroke="black" stroke-width=".3" stroke-opacity="1.0"  filling="0" d="M17.685012817382812 1.941096305847168 L14.400300025939941 2.25429630279541 L14.400300025939941 2.7387847900390625 C15.535665512084961 2.858309745788574 16.62428092956543 3.2863874435424805 17.685226440429688 3.7079763412475586 L17.685226440429688 4.505664348602295 C16.607362747192383 4.192539215087891 15.518278121948242 3.8667781352996826 14.400516510009766 3.7645692825317383 L14.400516510009766 5.303351879119873 L16.20260238647461 5.303351879119873 C16.496042251586914 6.493010520935059 16.68473243713379 7.708715438842773 16.829435348510742 8.925455093383789 L16.829435348510742 15.862727165222168 L16.829435348510742 22.799999237060547 L13.053972244262695 22.799999237060547 L9.278508186340332 22.799999237060547 L9.278508186340332 15.862727165222168 L9.278508186340332 8.925455093383789 C9.423274040222168 7.708710670471191 9.612034797668457 6.4930033683776855 9.905555725097656 5.303351879119873 L11.707427978515625 5.303351879119873 L11.707427978515625 3.7645692825317383 L9.997788429260254 3.7645692825317383 C9.514398574829102 3.9651072025299072 8.917673110961914 3.9961283206939697 8.54761791229248 4.366183280944824 C8.177562713623047 4.7362380027771 8.1465425491333 5.332962512969971 7.946004390716553 5.816352367401123 L7.942656517028809 10.218972206115723 L7.939308166503906 14.621591567993164 L6.920220375061035 14.621591567993164 L6.920220375061035 10.218972206115723 L6.920220375061035 5.816352367401123 C7.47813606262207 3.758554220199585 7.939990043640137 3.2967002391815186 9.997788429260254 2.7387847900390625 L11.707427978515625 2.7387847900390625 L11.707427978515625 1.2000007629394531 L17.685012817382812 1.2000007629394531 L17.685012817382812 1.941096305847168"></path>
<path fill="none" stroke="black" stroke-width=".3" stroke-opacity="1.0"  filling="0" d="M7.939308166503906 15.284280776977539 L8.537628173828125 17.891616821289062 L6.314988136291504 17.891616821289062 L6.913524150848389 15.284280776977539 L7.939308166503906 15.284280776977539"></path></svg>