<svg xmlns="http://www.w3.org/2000/svg" viewBox="0.0 0.0 24.0 24.0" height="200px" width="200px"><path fill="none" stroke="black" stroke-width=".3" stroke-opacity="1.0"  filling="0" d="M17.10634422302246 3.3745718002319336 L20.843997955322266 3.3745718002319336 L20.843997955322266 7.112057209014893 L20.329713821411133 7.112057209014893 L20.329713821411133 3.888857841491699 L17.10634422302246 3.888857841491699 L17.10634422302246 3.3745718002319336"></path>
<path fill="none" stroke="black" stroke-width=".3" stroke-opacity="1.0"  filling="0" d="M4.096285343170166 3.888857841491699 L4.096285343170166 7.112057209014893 L3.5819997787475586 7.112057209014893 L3.5819997787475586 3.3745718002319336 L7.319485187530518 3.3745718002319336 L7.319485187530518 3.888857841491699 L4.096285343170166 3.888857841491699"></path>
<path fill="none" stroke="black" stroke-width=".3" stroke-opacity="1.0"  filling="0" d="M10.04159927368164 7.053599834442139 L10.04159927368164 7.053599834442139 C10.492984771728516 6.669600009918213 10.882762908935547 6.1983184814453125 11.395756721496582 5.901599884033203 C11.975651741027832 5.566185474395752 13.388571739196777 4.971460342407227 13.388571739196777 5.641371726989746 C13.388571739196777 6.01145076751709 11.56495189666748 6.599588394165039 11.338971138000488 6.7462286949157715 C10.46817398071289 7.311295032501221 9.829195022583008 8.346336364746094 9.055713653564453 8.999656677246094 C8.816593170166016 9.201629638671875 7.151160717010498 10.439374923706055 6.941828727722168 9.678686141967773 C6.836657524108887 9.296504974365234 7.291732311248779 9.246567726135254 7.470857620239258 9.156685829162598 C8.535608291625977 8.62240982055664 9.281831741333008 7.958920478820801 10.04159927368164 7.053599834442139 L10.04159927368164 7.053599834442139"></path>
<path fill="none" stroke="black" stroke-width=".3" stroke-opacity="1.0"  filling="0" d="M6.948514461517334 7.667142391204834 L6.948514461517334 7.667142391204834 C7.181145191192627 7.5370707511901855 7.354831695556641 7.3218913078308105 7.550914287567139 7.141371726989746 L7.628571510314941 7.038342475891113 C8.743409156799316 5.6412811279296875 10.623649597167969 3.414623975753784 12.731999397277832 3.895199775695801 C15.322441101074219 4.485662937164307 16.43878173828125 5.990185737609863 17.182456970214844 8.49839973449707 C17.294408798217773 8.875985145568848 17.692081451416016 9.473570823669434 17.550342559814453 9.872228622436523 C17.27804946899414 10.638087272644043 16.583585739135742 8.787736892700195 16.53891372680664 8.660228729248047 C16.018301010131836 7.174250602722168 15.53836727142334 5.640346050262451 13.992019653320312 4.897682189941406 C11.545431137084961 3.7226600646972656 9.572848320007324 5.72632360458374 8.158628463745117 7.4370856285095215 L8.07994270324707 7.541485786437988 C7.808282852172852 7.81480073928833 6.523039817810059 8.809659957885742 6.948514461517334 7.667142391204834 L6.948514461517334 7.667142391204834"></path>
<path fill="none" stroke="black" stroke-width=".3" stroke-opacity="1.0"  filling="0" d="M15.38365650177002 9.530056953430176 L15.38365650177002 9.530056953430176 C14.65461540222168 10.643885612487793 13.753304481506348 11.531742095947266 12.744597434997559 12.296916961669922 C11.735891342163086 13.062091827392578 10.61978816986084 13.704586029052734 9.461162567138672 14.327689170837402 C8.845036506652832 14.659038543701172 7.592413902282715 15.620779037475586 7.452342987060547 14.935371398925781 C7.31323766708374 14.25468921661377 8.546514511108398 14.067240715026855 9.158178329467773 13.737777709960938 C10.535480499267578 12.995915412902832 11.986231803894043 12.14925765991211 13.196660995483398 11.150565147399902 C13.859217643737793 10.603907585144043 16.272499084472656 7.941627025604248 14.052685737609863 7.4554290771484375 C12.478485107421875 7.110637187957764 9.982583999633789 10.53784465789795 8.692950248718262 11.096464157104492 C8.109942436218262 11.349000930786133 6.983673095703125 12.044169425964355 6.816514492034912 11.43120002746582 C6.623716831207275 10.724210739135742 8.536588668823242 10.51440143585205 9.029657363891602 10.165714263916016 C10.134881019592285 9.384124755859375 11.698651313781738 7.533875465393066 12.96231460571289 6.955178737640381 C13.80306625366211 6.570155143737793 14.989693641662598 6.779138088226318 15.400114059448242 7.757485866546631 C15.628692626953125 8.30236530303955 15.389142036437988 8.939200401306152 15.38365650177002 9.530056953430176 L15.38365650177002 9.530056953430176"></path>
<path fill="none" stroke="black" stroke-width=".3" stroke-opacity="1.0"  filling="0" d="M17.454172134399414 11.806628227233887 L17.454172134399414 11.806628227233887 C17.82668685913086 13.227988243103027 15.511960983276367 11.606927871704102 15.587657928466797 10.733656883239746 C15.606752395629883 10.513379096984863 16.03739356994629 10.4436616897583 16.22708511352539 10.557257652282715 C16.72788429260254 10.857159614562988 16.941133499145508 11.528182029724121 17.454172134399414 11.806628227233887 L17.454172134399414 11.806628227233887"></path>
<path fill="none" stroke="black" stroke-width=".3" stroke-opacity="1.0"  filling="0" d="M7.46022891998291 13.405028343200684 L7.448742866516113 13.409143447875977 C6.894731044769287 13.50734806060791 7.070905685424805 13.080124855041504 7.2179999351501465 12.787200927734375 C7.652184963226318 11.922562599182129 9.025357246398926 12.071268081665039 9.85347843170166 11.57093620300293 C11.19715404510498 10.759119033813477 12.227343559265137 9.515986442565918 13.412742614746094 8.486742973327637 C13.530728340148926 8.384299278259277 13.747906684875488 8.318649291992188 13.875085830688477 8.409428596496582 C14.531614303588867 8.87804889678955 13.140145301818848 9.88398551940918 12.550910949707031 10.434837341308594 C11.097779273986816 11.793312072753906 9.299149513244629 12.702592849731445 7.46022891998291 13.405028343200684 L7.46022891998291 13.405028343200684"></path>
<path fill="none" stroke="black" stroke-width=".3" stroke-opacity="1.0"  filling="0" d="M16.810455322265625 13.537371635437012 L16.810455322265625 13.537371635437012 C16.226238250732422 15.653607368469238 13.941490173339844 11.920963287353516 14.563371658325195 11.749543190002441 C15.107036590576172 11.599682807922363 16.120227813720703 13.213162422180176 16.810455322265625 13.537371635437012 L16.810455322265625 13.537371635437012"></path>
<path fill="none" stroke="black" stroke-width=".3" stroke-opacity="1.0"  filling="0" d="M16.486286163330078 15.379714012145996 L16.486286163330078 15.379714012145996 C17.29492950439453 16.99965476989746 13.163039207458496 14.168441772460938 13.010228157043457 14.142001152038574 C12.2542142868042 14.011191368103027 10.202828407287598 15.865828514099121 9.619392395019531 16.201242446899414 C9.200891494750977 16.441837310791016 8.258283615112305 16.94207000732422 8.19514274597168 16.463485717773438 C8.130677223205566 15.974858283996582 10.411551475524902 14.905611991882324 10.604399681091309 14.782285690307617 C10.695930480957031 14.72375202178955 12.41923713684082 13.530933380126953 12.897257804870605 13.48799991607666 C13.988274574279785 13.390009880065918 15.67923355102539 14.894705772399902 16.486286163330078 15.379714012145996 L16.486286163330078 15.379714012145996"></path>
<path fill="none" stroke="black" stroke-width=".3" stroke-opacity="1.0"  filling="0" d="M4.091142654418945 16.887943267822266 L4.091142654418945 20.11114501953125 L7.314171314239502 20.11114501953125 L7.314171314239502 20.62542724609375 L3.576857566833496 20.62542724609375 L3.576857566833496 16.887943267822266 L4.091142654418945 16.887943267822266"></path>
<path fill="none" stroke="black" stroke-width=".3" stroke-opacity="1.0"  filling="0" d="M15.655542373657227 17.004514694213867 L15.655542373657227 17.004514694213867 C16.422937393188477 18.64034652709961 13.070878982543945 16.22934341430664 12.785314559936523 16.222455978393555 C12.513827323913574 16.21590805053711 10.391752243041992 17.785648345947266 10.349486351013184 17.815885543823242 C10.326434135437012 17.83237648010254 9.588367462158203 18.51494026184082 9.44314193725586 18.057941436767578 C9.29991626739502 17.607236862182617 9.687000274658203 17.471635818481445 9.958456993103027 17.280000686645508 C12.669973373413086 15.365795135498047 12.89486026763916 15.467522621154785 15.655542373657227 17.004514694213867 L15.655542373657227 17.004514694213867"></path>
<path fill="none" stroke="black" stroke-width=".3" stroke-opacity="1.0"  filling="0" d="M14.535257339477539 18.653657913208008 L14.535257339477539 18.653657913208008 C14.841841697692871 20.109394073486328 13.02099609375 18.219850540161133 12.59537124633789 18.310626983642578 C11.969001770019531 18.4442195892334 11.677117347717285 19.423873901367188 11.0367431640625 19.43416976928711 C10.036036491394043 19.450258255004883 12.08293342590332 17.64760398864746 12.482399940490723 17.656970977783203 C13.197147369384766 17.67373275756836 13.946365356445312 18.246273040771484 14.535257339477539 18.653657913208008 L14.535257339477539 18.653657913208008"></path>
<path fill="none" stroke="black" stroke-width=".3" stroke-opacity="1.0"  filling="0" d="M20.324398040771484 20.11114501953125 L20.324398040771484 16.887943267822266 L20.838685989379883 16.887943267822266 L20.838685989379883 20.62542724609375 L17.101028442382812 20.62542724609375 L17.101028442382812 20.11114501953125 L20.324398040771484 20.11114501953125"></path></svg>