<svg xmlns="http://www.w3.org/2000/svg" viewBox="0.0 0.0 24.0 24.0" height="200px" width="200px"><path fill="none" stroke="black" stroke-width=".3" stroke-opacity="1.0"  filling="0" d="M16.066848754882812 4.368504524230957 L16.066848754882812 4.368504524230957 C16.868873596191406 6.706608295440674 17.098237991333008 8.222922325134277 15.348215103149414 10.101143836975098 L15.344327926635742 10.103952407836914 C13.841126441955566 11.32992935180664 12.993449211120605 12.738990783691406 12.59130573272705 14.29916000366211 C12.189163208007812 15.859330177307129 12.232553482055664 17.57061004638672 12.51148796081543 19.401023864746094 L12.51148796081543 19.401023864746094 C12.933658599853516 19.48687744140625 15.52842903137207 19.864540100097656 15.594240188598633 20.562671661376953 C15.678175926208496 21.453075408935547 12.465056419372559 21.56456184387207 11.956367492675781 21.595367431640625 L11.943840026855469 21.595367431640625 C11.435027122497559 21.564767837524414 8.21640396118164 21.454248428344727 8.300568580627441 20.562671661376953 C8.366466522216797 19.864593505859375 10.961247444152832 19.486900329589844 11.383535385131836 19.401023864746094 L11.383535385131836 19.401023864746094 C11.662298202514648 17.570863723754883 11.705826759338379 15.859719276428223 11.303902626037598 14.29963493347168 C10.901979446411133 12.73954963684082 10.054603576660156 11.330524444580078 8.551559448242188 10.104598999023438 L8.547887802124023 10.102008819580078 C7.418109893798828 8.889958381652832 7.1168999671936035 7.707680702209473 7.261807441711426 6.489323139190674 C7.406714916229248 5.270965576171875 7.997739791870117 4.016528606414795 8.65243148803711 2.6601600646972656 L15.24216079711914 2.659944534301758 C15.517056465148926 3.229464530944824 15.791953086853027 3.7989845275878906 16.066848754882812 4.368504524230957 L16.066848754882812 4.368504524230957"></path>
<path fill="none" stroke="black" stroke-width=".3" stroke-opacity="1.0"  filling="0" d="M15.863160133361816 7.4084882736206055 L15.863160133361816 7.4084882736206055 C14.611713409423828 8.538647651672363 13.487319946289062 9.275927543640137 11.946431159973145 9.949079513549805 L11.946431159973145 9.949079513549805 C10.29493522644043 9.186426162719727 7.918095111846924 8.276799201965332 7.891625881195068 6.102606296539307 C7.878617286682129 5.03408145904541 8.464975357055664 3.7799205780029297 8.814215660095215 2.8379287719726562 L15.074760437011719 2.8379287719726562 C15.79495906829834 4.585559844970703 16.230627059936523 5.557497978210449 15.863160133361816 7.4084882736206055 L15.863160133361816 7.4084882736206055"></path>
<path fill="none" stroke="black" stroke-width=".3" stroke-opacity="1.0"  filling="0" d="M12.416664123535156 19.714008331298828 L12.449712753295898 19.7178955078125 C12.990720748901367 19.82402229309082 13.549026489257812 19.863996505737305 14.072735786437988 20.036277770996094 C14.314176559448242 20.115703582763672 14.813957214355469 20.229963302612305 14.7064790725708 20.460289001464844 C14.311652183532715 21.306406021118164 12.87971305847168 20.891422271728516 11.947511672973633 20.94434356689453 L11.947511672973633 20.94434356689453 C11.395837783813477 20.91986083984375 9.632452011108398 20.954364776611328 9.188112258911133 20.460289001464844 C9.018152236938477 20.271305084228516 9.580414772033691 20.115703582763672 9.821855545043945 20.036277770996094 C10.345564842224121 19.863996505737305 10.903871536254883 19.82402229309082 11.444879531860352 19.7178955078125 L11.477928161621094 19.714008331298828 C11.09636402130127 19.783966064453125 10.700961112976074 19.80033302307129 10.333236694335938 19.923879623413086 C6.300742149353027 21.27869987487793 17.63783836364746 21.309728622436523 13.534841537475586 19.93149185180664 C13.174896240234375 19.810583114624023 12.789389610290527 19.786502838134766 12.416664123535156 19.714008331298828 L12.416664123535156 19.714008331298828"></path>
<path fill="none" stroke="black" stroke-width=".3" stroke-opacity="1.0"  filling="0" d="M-89.88373565673828 118.28623962402344 L-89.88373565673828 118.28623962402344 C-88.19622802734375 117.10962677001953 -86.19490051269531 116.0224838256836 -84.04810333251953 115.1475601196289 C-81.90130615234375 114.27262878417969 -79.60903930664062 113.60991668701172 -77.33966827392578 113.28215789794922 C-75.07029724121094 112.95439910888672 -72.82382202148438 112.96159362792969 -70.76860809326172 113.42647552490234 C-69.49758911132812 113.71397399902344 -68.21878814697266 114.29619598388672 -66.9457778930664 114.91522979736328 C-65.67276000976562 115.53427124023438 -64.40553283691406 116.19012451171875 -63.15766143798828 116.62491607666016 C-61.00151062011719 117.37616729736328 -58.860164642333984 117.85160064697266 -56.69046401977539 118.10916900634766 C-54.52075958251953 118.36673736572266 -52.32270050048828 118.40644836425781 -50.05312728881836 118.28623962402344 L-50.05312728881836 123.14603424072266 L-50.05312728881836 128.00582885742188 C-51.93037414550781 128.01583862304688 -53.81546401977539 127.98089599609375 -55.70201873779297 127.8990249633789 C-57.58856964111328 127.81714630126953 -59.47658157348633 127.68833923339844 -61.35966873168945 127.5106430053711 C-63.24275207519531 127.33293914794922 -65.12091064453125 127.10633850097656 -66.98775482177734 126.8288803100586 C-68.85459899902344 126.55142211914062 -70.71012878417969 126.22309875488281 -72.5479507446289 125.8419418334961 C-74.64689636230469 125.4066390991211 -76.7274169921875 124.89817810058594 -78.75035095214844 124.25497436523438 C-80.77328491210938 123.61177062988281 -82.7386474609375 122.83383178710938 -84.60726165771484 121.85957336425781 C-86.47587585449219 120.88531494140625 -88.24775695800781 119.71472930908203 -89.88373565673828 118.28623962402344 L-89.88373565673828 118.28623962402344"></path></svg>