<svg xmlns="http://www.w3.org/2000/svg" viewBox="0.0 0.0 24.0 24.0" height="200px" width="200px"><path fill="none" stroke="black" stroke-width=".3" stroke-opacity="1.0"  filling="0" d="M21.4072322845459 9.956855773925781 L22.799999237060547 9.956855773925781 L22.799999237060547 14.043359756469727 L21.351505279541016 14.043359756469727 C20.995155334472656 15.138258934020996 20.539644241333008 16.206037521362305 19.991785049438477 17.21877670288086 L21.05147933959961 18.278472900390625 L18.16204833984375 21.1683349609375 L17.054401397705078 20.060688018798828 C16.089839935302734 20.556447982788086 15.078285217285156 20.969013214111328 14.043359756469727 21.293182373046875 L14.043359756469727 22.799999237060547 L9.956640243530273 22.799999237060547 L9.956640243530273 21.308521270751953 C8.901037216186523 20.982784271240234 7.869223117828369 20.565170288085938 6.886200428009033 20.061119079589844 L5.778336048126221 21.168983459472656 L2.888472557067871 18.27911949157715 L3.9485998153686523 17.219207763671875 C3.4004812240600586 16.206361770629883 2.9447855949401855 15.138422012329102 2.58823299407959 14.043359756469727 L1.2000007629394531 14.043359756469727 L1.2000007629394531 9.956855773925781 L2.5335845947265625 9.956855773925781 C2.8612022399902344 8.873631477355957 3.285290002822876 7.8146820068359375 3.8002090454101562 6.806928634643555 L2.888472557067871 5.8947601318359375 L5.778336048126221 3.0053281784057617 L6.642768383026123 3.869760513305664 C7.698237419128418 3.301914930343628 8.81340217590332 2.8344380855560303 9.956640243530273 2.4746170043945312 L9.956640243530273 1.2000007629394531 L14.043359756469727 1.2000007629394531 L14.043359756469727 2.4899520874023438 C15.165875434875488 2.848202705383301 16.260705947875977 3.310516119003296 17.297832489013672 3.869760513305664 L18.16204833984375 3.0053281784057617 L21.05169677734375 5.8951921463012695 L20.1395263671875 6.806928634643555 C20.654878616333008 7.814611434936523 21.079347610473633 8.873571395874023 21.4072322845459 9.956855773925781 L21.4072322845459 9.956855773925781"></path>
<path fill="none" stroke="black" stroke-width=".3" stroke-opacity="1.0"  filling="0" d="M15.176063537597656 12.040608406066895 L15.176063537597656 12.040608406066895 C14.81864070892334 13.361784934997559 14.925548553466797 14.01860523223877 13.607935905456543 14.77460765838623 C11.527281761169434 15.96841812133789 8.843376159667969 14.458409309387207 8.843376159667969 12.040608406066895 C8.843376159667969 9.62283706665039 11.526817321777344 8.111701965332031 13.607935905456543 9.305888175964355 C14.92562198638916 10.062002182006836 14.818714141845703 10.719287872314453 15.176063537597656 12.040608406066895 L15.176063537597656 12.040608406066895"></path>
<path fill="none" stroke="black" stroke-width=".3" stroke-opacity="1.0"  filling="0" d="M12.009719848632812 18.487777709960938 L12.009719848632812 18.487777709960938 C9.672140121459961 18.173633575439453 7.702828407287598 17.457130432128906 6.442120552062988 15.294111251831055 C5.2107439041137695 13.181416511535645 5.379673004150391 10.755918502807617 6.467931270599365 8.858597755432129 C7.55618953704834 6.961277008056641 9.563777923583984 5.592132568359375 12.009719848632812 5.592144012451172 C14.455639839172363 5.592155456542969 16.46315574645996 6.961371421813965 17.55136489868164 8.858742713928223 C18.639572143554688 10.75611400604248 18.8084716796875 13.181640625 17.577159881591797 15.294272422790527 C16.31650733947754 17.457246780395508 14.347223281860352 18.173664093017578 12.009719848632812 18.487777709960938 L12.009719848632812 18.487777709960938"></path></svg>