<svg xmlns="http://www.w3.org/2000/svg" viewBox="0.0 0.0 24.0 24.0" height="200px" width="200px"><path fill="none" stroke="black" stroke-width=".3" stroke-opacity="1.0"  filling="0" d="M14.851200103759766 2.285616874694824 L19.28999900817871 6.707784175872803 L19.28999900817871 9.60002326965332 L16.88764762878418 12.002808570861816 L14.44382381439209 9.559200286865234 L12.000432014465332 12.002808570861816 L9.556608200073242 9.559200286865234 L7.112784385681152 12.002808570861816 L4.710000514984131 9.60002326965332 L4.710000514984131 2.2799997329711914 L9.780600547790527 2.282808303833008 L14.851200103759766 2.285616874694824"></path>
<path fill="none" stroke="black" stroke-width=".3" stroke-opacity="1.0"  filling="0" d="M14.851200103759766 3.383328437805176 L18.183216094970703 6.702600479125977 L14.851200103759766 6.702600479125977 L14.851200103759766 3.383328437805176"></path>
<path fill="none" stroke="black" stroke-width=".3" stroke-opacity="1.0"  filling="0" d="M16.88764762878418 10.902935981750488 L14.443608283996582 8.459328651428223 L12.0 10.903152465820312 L9.55617618560791 8.459328651428223 L7.11235237121582 10.903152465820312 L5.487384796142578 9.278183937072754 L5.487384796142578 3.0576000213623047 L9.780492782592773 3.0576000213623047 L14.073599815368652 3.0576000213623047 L14.073599815368652 7.480200290679932 L18.512399673461914 7.480200290679932 L18.512399673461914 9.277968406677246 L16.88764762878418 10.902935981750488"></path>
<path fill="none" stroke="black" stroke-width=".3" stroke-opacity="1.0"  filling="0" d="M14.443608283996582 11.752679824829102 L16.88764762878418 14.196720123291016 L19.28999900817871 11.793935775756836 C19.28999900817871 13.44827938079834 19.28999900817871 15.102622985839844 19.28999900817871 16.756967544555664 C19.28999900817871 18.411312103271484 19.28999900817871 20.065654754638672 19.28999900817871 21.719999313354492 L12.0 21.719999313354492 L4.710000514984131 21.719999313354492 C4.710000514984131 20.065654754638672 4.710000514984131 18.411312103271484 4.710000514984131 16.756967544555664 C4.710000514984131 15.102622985839844 4.710000514984131 13.44827938079834 4.710000514984131 11.793935775756836 L7.112567901611328 14.196503639221191 C7.927175998687744 13.381896018981934 8.74178409576416 12.567288398742676 9.556391716003418 11.752679824829102 L12.000216484069824 14.196720123291016 L14.443608283996582 11.752679824829102"></path>
<path fill="none" stroke="black" stroke-width=".3" stroke-opacity="1.0"  filling="0" d="M9.556391716003418 12.852335929870605 L12.000216484069824 15.296591758728027 L14.44382381439209 12.85255241394043 L16.887863159179688 15.296591758728027 L18.512832641601562 13.671407699584961 L18.512832641601562 20.942401885986328 L12.000216484069824 20.942401885986328 L5.487600326538086 20.942401885986328 C5.487600326538086 18.51866340637207 5.487600326538086 16.09493064880371 5.487600326538086 13.671192169189453 L7.112784385681152 15.296591758728027 L7.662720203399658 14.746655464172363 C8.293863296508789 14.115135192871094 8.92512321472168 13.483731269836426 9.556391716003418 12.852335929870605 L9.556391716003418 12.852335929870605"></path></svg>