<svg xmlns="http://www.w3.org/2000/svg" viewBox="0.0 0.0 24.0 24.0" height="200px" width="200px"><path fill="none" stroke="black" stroke-width=".3" stroke-opacity="1.0"  filling="0" d="M10.642258644104004 11.974729537963867 L10.642258644104004 11.974729537963867 C10.873488426208496 11.574228286743164 10.935445785522461 11.004454612731934 11.335947036743164 10.773224830627441 C12.260866165161133 10.239222526550293 13.417014122009277 10.906725883483887 13.417014122009277 11.974729537963867 C13.417014122009277 13.042734146118164 12.260866165161133 13.710236549377441 11.335947036743164 13.176234245300293 C10.935445785522461 12.9450044631958 10.873488426208496 12.37523078918457 10.642258644104004 11.974729537963867 L10.642258644104004 11.974729537963867"></path>
<path fill="none" stroke="black" stroke-width=".3" stroke-opacity="1.0"  filling="0" d="M19.28044319152832 11.974729537963867 L16.697999954223633 13.465930938720703 L16.697999954223633 12.809999465942383 L15.707859992980957 12.809999465942383 C15.335906982421875 12.41520881652832 14.963953018188477 12.020419120788574 14.592000007629395 11.625628471374512 L14.592000007629395 11.614617347717285 C14.30119514465332 11.06572437286377 14.18704891204834 10.376998901367188 13.719586372375488 9.967939376831055 C11.88042163848877 8.35855484008789 10.784024238586426 9.866985321044922 9.329594612121582 10.703999519348145 L9.317276000976562 10.703999519348145 C8.464836120605469 9.044352531433105 10.435375213623047 8.247178077697754 11.96549129486084 8.237549781799316 C14.111695289611816 8.224044799804688 14.938446998596191 9.662515640258789 15.693284034729004 11.351999282836914 L16.697999954223633 11.351999282836914 L16.697999954223633 10.483528137207031 L19.28044319152832 11.974729537963867"></path>
<path fill="none" stroke="black" stroke-width=".3" stroke-opacity="1.0"  filling="0" d="M14.620033264160156 13.296000480651855 L14.620033264160156 13.296000480651855 C15.457481384277344 14.977943420410156 13.543842315673828 15.789519309997559 11.971965789794922 15.818180084228516 C9.843233108520508 15.85699462890625 9.006611824035645 14.487058639526367 8.244194030761719 12.809999465942383 L7.302000045776367 12.809999465942383 L7.302000045776367 13.465930938720703 L4.719555377960205 11.974729537963867 L7.302000045776367 10.483528137207031 L7.302000045776367 11.351999282836914 L8.229619026184082 11.351999282836914 C8.568412780761719 11.675943374633789 8.907206535339355 11.999886512756348 9.246000289916992 12.323830604553223 L9.246000289916992 12.33484172821045 C9.565337181091309 12.88586139678955 9.722017288208008 13.571632385253906 10.204011917114258 13.98790168762207 C12.059050559997559 15.589984893798828 13.10190486907959 14.078514099121094 14.607714653015137 13.296000480651855 L14.620033264160156 13.296000480651855"></path></svg>