<svg xmlns="http://www.w3.org/2000/svg" viewBox="0.0 0.0 24.0 24.0" height="200px" width="200px"><path fill="none" stroke="black" stroke-width=".3" stroke-opacity="1.0"  filling="0" d="M17.943023681640625 1.2000007629394531 L17.943023681640625 1.2000007629394531 C18.12201499938965 1.3789926767349243 18.301008224487305 1.557984709739685 18.479999542236328 1.7369766235351562 L18.479999542236328 8.57899284362793 L18.479999542236328 15.421008110046387 L18.479999542236328 22.263023376464844 C18.300935745239258 22.442014694213867 18.121870040893555 22.621007919311523 17.942806243896484 22.799999237060547 L11.99989128112793 22.799999237060547 L6.056976318359375 22.799999237060547 C5.877984523773193 22.620935440063477 5.6989922523498535 22.441871643066406 5.520000457763672 22.262807846069336 L5.520000457763672 15.42086410522461 L5.520000457763672 8.578920364379883 L5.520000457763672 1.7369766235351562 C5.6989922523498535 1.557984709739685 5.877984523773193 1.3789926767349243 6.056976318359375 1.2000007629394531 L12.0 1.2000007629394531 L17.943023681640625 1.2000007629394531"></path>
<path fill="none" stroke="black" stroke-width=".3" stroke-opacity="1.0"  filling="0" d="M17.18400001525879 18.12273597717285 L17.18400001525879 18.12273597717285 C16.99291229248047 18.313823699951172 16.801822662353516 18.504911422729492 16.610734939575195 18.695999145507812 L12.0 18.695999145507812 L7.389264106750488 18.695999145507812 C7.198176383972168 18.504911422729492 7.0070881843566895 18.313823699951172 6.816000461578369 18.12273597717285 L6.816000461578369 10.812108039855957 L6.816000461578369 3.5014801025390625 C7.0070881843566895 3.3103201389312744 7.198176383972168 3.1191604137420654 7.389264106750488 2.9280004501342773 L11.999893188476562 2.9280004501342773 L16.61052131652832 2.9280004501342773 C16.801681518554688 3.1191604137420654 16.992839813232422 3.3103201389312744 17.18400001525879 3.5014801025390625 L17.18400001525879 10.812108039855957 L17.18400001525879 18.12273597717285"></path>
<path fill="none" stroke="black" stroke-width=".3" stroke-opacity="1.0"  filling="0" d="M12.050543785095215 21.765357971191406 L12.050543785095215 21.765357971191406 C11.664695739746094 21.3795108795166 10.893000602722168 21.153486251831055 10.893000602722168 20.60781478881836 C10.893000602722168 20.062143325805664 11.50487232208252 19.450271606445312 12.050543785095215 19.450271606445312 C12.59621524810791 19.450271606445312 13.208087921142578 20.062143325805664 13.208087921142578 20.60781478881836 C13.208087921142578 21.153486251831055 12.436391830444336 21.3795108795166 12.050543785095215 21.765357971191406 L12.050543785095215 21.765357971191406"></path></svg>