<svg xmlns="http://www.w3.org/2000/svg" viewBox="0.0 0.0 24.0 24.0" height="200px" width="200px"><path fill="none" stroke="black" stroke-width=".3" stroke-opacity="1.0"  filling="0" d="M15.331151008605957 1.6533842086791992 L15.331151008605957 1.6533842086791992 C16.002519607543945 1.970888614654541 16.594945907592773 2.559544086456299 16.897584915161133 3.2377443313598633 L16.897584915161133 8.949359893798828 L16.897584915161133 14.66097640991211 L16.897584915161133 20.372591018676758 C16.558950424194336 21.081083297729492 15.893927574157715 21.68039894104004 15.162455558776855 21.96602439880371 L8.868647575378418 21.96602439880371 C8.17480754852295 21.678115844726562 7.562938213348389 21.066417694091797 7.275000095367432 20.372591018676758 L7.241196155548096 14.50743579864502 L7.20739221572876 8.642280578613281 C7.172327995300293 8.607216835021973 7.137264251708984 8.572152137756348 7.102200031280518 8.537088394165039 L7.102200031280518 8.138568878173828 C7.137264251708984 8.103360176086426 7.172327995300293 8.06815242767334 7.20739221572876 8.032943725585938 L7.20739221572876 7.027464389801025 C7.172327995300293 6.99232816696167 7.137264251708984 6.957192420959473 7.102200031280518 6.922056198120117 L7.102200031280518 6.523536205291748 C7.137264251708984 6.488400459289551 7.172327995300293 6.453264236450195 7.20739221572876 6.418128490447998 L7.20739221572876 5.300328254699707 C7.172327995300293 5.265264511108398 7.137264251708984 5.230200290679932 7.102200031280518 5.195136547088623 L7.102200031280518 4.527264595031738 C7.137264251708984 4.492128849029541 7.172327995300293 4.4569926261901855 7.20739221572876 4.421856880187988 L7.275000095367432 3.237527847290039 C7.562924861907959 2.543750524520874 8.174814224243164 1.9321012496948242 8.868647575378418 1.6443119049072266 L13.645272254943848 1.6037044525146484 C13.680480003356934 1.568568229675293 13.71568775177002 1.5334320068359375 13.750895500183105 1.498295783996582 L15.225959777832031 1.498295783996582 C15.26102352142334 1.5334320068359375 15.296087265014648 1.568568229675293 15.331151008605957 1.6037044525146484 L15.331151008605957 1.6533842086791992"></path>
<path fill="none" stroke="black" stroke-width=".3" stroke-opacity="1.0"  filling="0" d="M12.085968017578125 2.453232765197754 L12.085968017578125 2.453232765197754 C12.48222541809082 2.849490165710449 11.689708709716797 2.849490165710449 12.085968017578125 2.453232765197754 L12.085968017578125 2.453232765197754"></path>
<path fill="none" stroke="black" stroke-width=".3" stroke-opacity="1.0"  filling="0" d="M11.35480785369873 3.2159290313720703 L12.817344665527344 3.2159290313720703 C12.90477466583252 3.2919344902038574 12.904820442199707 3.487521171569824 12.817344665527344 3.5634727478027344 L11.35480785369873 3.5634727478027344 C11.267372131347656 3.4874744415283203 11.26741886138916 3.2919809818267822 11.35480785369873 3.2159290313720703 L11.35480785369873 3.2159290313720703"></path>
<path fill="none" stroke="black" stroke-width=".3" stroke-opacity="1.0"  filling="0" d="M16.191478729248047 19.074432373046875 L12.08639907836914 19.074432373046875 L7.981320381164551 19.074432373046875 L7.981320381164551 11.81164836883545 L7.981320381164551 4.548863887786865 L12.08639907836914 4.548863887786865 L16.191478729248047 4.548863887786865 L16.191478729248047 11.81164836883545 L16.191478729248047 19.074432373046875"></path>
<path fill="none" stroke="black" stroke-width=".3" stroke-opacity="1.0"  filling="0" d="M12.093095779418945 21.363597869873047 L12.093095779418945 21.363597869873047 C11.806103706359863 21.07646369934082 11.232120513916016 20.90816307067871 11.232120513916016 20.502193450927734 C11.232120513916016 19.509008407592773 12.9542875289917 19.199420928955078 12.9542875289917 20.502193450927734 C12.9542875289917 20.908212661743164 12.380159378051758 21.07646369934082 12.093095779418945 21.363597869873047 L12.093095779418945 21.363597869873047"></path></svg>