<svg xmlns="http://www.w3.org/2000/svg" viewBox="0.0 0.0 24.0 24.0" height="200px" width="200px"><path fill="none" stroke="black" stroke-width=".3" stroke-opacity="1.0"  filling="0" d="M19.43795394897461 1.798720359802246 L19.53006362915039 3.6869945526123047"></path>
<path fill="none" stroke="black" stroke-width=".3" stroke-opacity="1.0"  filling="0" d="M3.963327407836914 3.8251609802246094 L8.952666282653809 2.9961631298065186 L13.942004203796387 2.1671652793884277 L18.93134307861328 1.3381671905517578 C19.077184677124023 1.4226022958755493 19.2230281829834 1.5070375204086304 19.36886978149414 1.5914726257324219 L19.43795394897461 1.798720359802246 L13.324094772338867 2.800426483154297 L7.210235118865967 3.8021326065063477"></path>
<path fill="none" stroke="black" stroke-width=".3" stroke-opacity="1.0"  filling="0" d="M3.617910385131836 4.03240966796875 L3.917271614074707 3.341578483581543"></path>
<path fill="none" stroke="black" stroke-width=".3" stroke-opacity="1.0"  filling="0" d="M3.5948829650878906 5.874627113342285 L9.275053977966309 5.874627113342285 L14.955224990844727 5.874627113342285 L20.635395050048828 5.874627113342285"></path>
<path fill="none" stroke="black" stroke-width=".3" stroke-opacity="1.0"  filling="0" d="M4.101493835449219 22.684860229492188 L4.101493835449219 22.684860229492188 C3.8942441940307617 22.477611541748047 3.6869945526123047 22.270360946655273 3.4797449111938477 22.063112258911133 L3.4797449111938477 16.183368682861328 L3.4797449111938477 10.303625106811523 L3.4797449111938477 4.423880577087402 C3.6869945526123047 4.2166314125061035 3.8942441940307617 4.0093817710876465 4.101493835449219 3.8021326065063477 L9.367164611816406 3.8021328449249268 L14.632835388183594 3.8021328449249268 L19.89850616455078 3.8021326065063477 C20.105754852294922 4.0093817710876465 20.313005447387695 4.2166314125061035 20.520254135131836 4.423880577087402 L20.52025604248047 10.303625106811523 L20.52025604248047 16.183368682861328 L20.520254135131836 22.063112258911133 C20.313005447387695 22.270360946655273 20.105754852294922 22.477611541748047 19.89850616455078 22.684860229492188 L14.632835388183594 22.684860229492188 L9.367164611816406 22.684860229492188 L4.101493835449219 22.684860229492188"></path></svg>