<svg xmlns="http://www.w3.org/2000/svg" viewBox="0.0 0.0 24.0 24.0" height="200px" width="200px"><path fill="none" stroke="black" stroke-width=".3" stroke-opacity="1.0"  filling="0" d="M12.139535903930664 9.394176483154297 L12.913680076599121 9.826176643371582 C12.940536499023438 9.871896743774414 12.967391967773438 9.91761589050293 12.994248390197754 9.963335990905762 L12.994248390197754 13.707479476928711 C12.968111991882324 13.752911567687988 12.941976547241211 13.79834270477295 12.915840148925781 13.843774795532227 L11.614656448364258 14.595239639282227 C11.562240600585938 14.595239639282227 11.5098237991333 14.595239639282227 11.45740795135498 14.595239639282227 L10.156439781188965 13.843774795532227 C10.130231857299805 13.79834270477295 10.104024887084961 13.752911567687988 10.0778169631958 13.707479476928711 L10.0778169631958 12.205415725708008 C10.104024887084961 12.160056114196777 10.130231857299805 12.11469554901123 10.156439781188965 12.0693359375 L11.45740795135498 11.318520545959473 C11.50975227355957 11.318520545959473 11.562095642089844 11.318520545959473 11.614439964294434 11.318520545959473 L11.940168380737305 11.506223678588867 C11.971943855285645 11.506223678588867 12.006848335266113 11.486038208007812 12.022680282592773 11.458488464355469 L12.022680282592773 9.462647438049316 C12.045186996459961 9.423511505126953 12.094392776489258 9.394676208496094 12.139535903930664 9.394176483154297 L12.139535903930664 9.394176483154297"></path>
<path fill="none" stroke="black" stroke-width=".3" stroke-opacity="1.0"  filling="0" d="M21.38995361328125 11.277048110961914 L21.24523162841797 11.58247184753418 L21.14219856262207 11.277048110961914 L21.38995361328125 11.277048110961914"></path>
<path fill="none" stroke="black" stroke-width=".3" stroke-opacity="1.0"  filling="0" d="M21.42688751220703 11.277048110961914 L21.68047332763672 11.402328491210938 C21.680654525756836 11.376479148864746 21.68097686767578 11.350630760192871 21.68133544921875 11.324783325195312 L21.594070434570312 11.58247184753418 L21.465335845947266 11.333855628967285 C21.465620040893555 11.356610298156738 21.466047286987305 11.379363059997559 21.466632843017578 11.402112007141113 L21.42688751220703 11.277048110961914"></path>
<path fill="none" stroke="black" stroke-width=".3" stroke-opacity="1.0"  filling="0" d="M7.560768127441406 11.290224075317383 L7.560768127441406 11.290224075317383 C7.613111972808838 11.290224075317383 7.665456295013428 11.290224075317383 7.717800140380859 11.290224075317383 L9.01855182647705 12.040823936462402 C9.044759750366211 12.08625602722168 9.070967674255371 12.131688117980957 9.097175598144531 12.177120208740234 L9.097175598144531 13.679616928100586 C9.071040153503418 13.725049018859863 9.044904708862305 13.770480155944824 9.018769264221191 13.815912246704102 L7.718016624450684 14.567159652709961 C7.665600299835205 14.567159652709961 7.613184452056885 14.567159652709961 7.560768127441406 14.567159652709961 L6.260231971740723 13.815912246704102 C6.234096050262451 13.770480155944824 6.20796012878418 13.725049018859863 6.181824207305908 13.679616928100586 L6.181824207305908 12.17690372467041 C6.208032131195068 12.13154411315918 6.234240531921387 12.086183547973633 6.260448455810547 12.040823936462402 L7.560768127441406 11.290224075317383"></path>
<path fill="none" stroke="black" stroke-width=".3" stroke-opacity="1.0"  filling="0" d="M5.195136547088623 12.164376258850098 L5.192112445831299 14.179872512817383 C5.169620990753174 14.219107627868652 5.119832515716553 14.247695922851562 5.074608325958252 14.247695922851562 L4.301976203918457 13.8051118850708 C4.275696277618408 13.759679794311523 4.249416351318359 13.714248657226562 4.2231364250183105 13.668816566467285 L4.2231364250183105 12.727272033691406 C4.197000503540039 12.68191146850586 4.170864105224609 12.636551856994629 4.144728183746338 12.591191291809082 L3.815760612487793 12.401544570922852 C3.7653141021728516 12.387849807739258 3.709428310394287 12.38798999786377 3.6589441299438477 12.401544570922852 L3.3299760818481445 12.591191291809082 C3.303839921951294 12.636551856994629 3.2777040004730225 12.68191146850586 3.251567840576172 12.727272033691406 L3.251567840576172 13.668816566467285 C3.2253599166870117 13.714248657226562 3.1991519927978516 13.759679794311523 3.1729440689086914 13.8051118850708 L2.4000959396362305 14.247695922851562 C2.354933977127075 14.247695922851562 2.3054559230804443 14.218945503234863 2.282808303833008 14.179872512817383 L2.2799997329711914 12.164376258850098 C2.306135892868042 12.11887264251709 2.3322718143463135 12.073368072509766 2.358407974243164 12.027864456176758 L3.6589441299438477 11.279423713684082 C3.709239959716797 11.264924049377441 3.7656919956207275 11.264883995056152 3.815976142883301 11.279423713684082 L5.116512298583984 12.027864456176758 C5.1427202224731445 12.073368072509766 5.168928623199463 12.11887264251709 5.195136547088623 12.164376258850098 L5.195136547088623 12.164376258850098"></path>
<path fill="none" stroke="black" stroke-width=".3" stroke-opacity="1.0"  filling="0" d="M15.403294563293457 12.614303588867188 L15.403294563293457 12.614303588867188 C15.413374900817871 12.614303588867188 15.423456192016602 12.614303588867188 15.433536529541016 12.614303588867188 L15.683231353759766 12.758376121520996 C15.688199043273926 12.767016410827637 15.693167686462402 12.775655746459961 15.698135375976562 12.784296035766602 L15.698135375976562 13.072656631469727 C15.693167686462402 13.081368446350098 15.688199043273926 13.090080261230469 15.683231353759766 13.09879207611084 L15.433536529541016 13.242864608764648 C15.423456192016602 13.242864608764648 15.413374900817871 13.242864608764648 15.403294563293457 13.242864608764648 L15.154031753540039 13.09879207611084 C15.148991584777832 13.090080261230469 15.143951416015625 13.081368446350098 15.138911247253418 13.072656631469727 L15.138911247253418 12.784296035766602 C15.143951416015625 12.775655746459961 15.148991584777832 12.767016410827637 15.154031753540039 12.758376121520996 L15.403294563293457 12.614303588867188"></path>
<path fill="none" stroke="black" stroke-width=".3" stroke-opacity="1.0"  filling="0" d="M16.79390525817871 12.68471908569336 L16.01479148864746 13.137455940246582 C15.969442367553711 13.137580871582031 15.919635772705078 13.108844757080078 15.896855354309082 13.069632530212402 L15.896855354309082 12.699407577514648 C15.88375186920166 12.676727294921875 15.870647430419922 12.654047966003418 15.8575439453125 12.631367683410645 L15.449951171875 12.396575927734375 C15.423815727233887 12.396575927734375 15.397679328918457 12.396575927734375 15.371543884277344 12.396575927734375 L14.964167594909668 12.631367683410645 C14.951064109802246 12.654047966003418 14.937959671020508 12.676727294921875 14.924856185913086 12.699407577514648 L14.924856185913086 13.170072555541992 C14.937959671020508 13.192680358886719 14.951064109802246 13.215288162231445 14.964167594909668 13.237895965576172 L16.27312660217285 13.989359855651855 C16.295860290527344 14.028861999511719 16.295528411865234 14.086896896362305 16.272262573242188 14.12608814239502 L15.490560531616211 14.56067943572998 C15.439152717590332 14.560319900512695 15.387743949890137 14.559959411621094 15.336336135864258 14.559599876403809 L14.044008255004883 13.823256492614746 C14.017584800720215 13.777751922607422 13.99116039276123 13.732248306274414 13.964736938476562 13.68674373626709 L13.964736938476562 12.184895515441895 C13.990872383117676 12.139535903930664 14.017008781433105 12.094176292419434 14.043144226074219 12.048816680908203 L15.343680381774902 11.29800033569336 C15.396167755126953 11.29807186126709 15.44865608215332 11.298144340515137 15.501143455505371 11.298215866088867 L16.79368782043457 12.048816680908203 C16.819751739501953 12.094104766845703 16.845815658569336 12.139391899108887 16.87187957763672 12.184679985046387 L16.87187957763672 12.548856735229492 C16.845888137817383 12.594143867492676 16.819896697998047 12.639431953430176 16.79390525817871 12.68471908569336 L16.79390525817871 12.68471908569336"></path>
<path fill="none" stroke="black" stroke-width=".3" stroke-opacity="1.0"  filling="0" d="M12.018793106079102 13.213704109191895 L12.018793106079102 13.213704109191895 C12.012168884277344 13.225080490112305 12.00554370880127 13.236455917358398 11.998919486999512 13.247832298278809 L11.552231788635254 13.505086898803711 C11.539127349853516 13.505086898803711 11.526023864746094 13.505086898803711 11.512919425964355 13.505086898803711 L11.066231727600098 13.247832298278809 C11.059679985046387 13.236455917358398 11.05312728881836 13.225080490112305 11.046575546264648 13.213704109191895 L11.046575546264648 12.698111534118652 C11.05312728881836 12.686736106872559 11.059679985046387 12.675359725952148 11.066231727600098 12.663984298706055 L11.512919425964355 12.40608024597168 C11.526023864746094 12.40608024597168 11.539127349853516 12.40608024597168 11.552231788635254 12.40608024597168 L11.998703956604004 12.663984298706055 C12.005328178405762 12.675359725952148 12.011951446533203 12.686736106872559 12.018575668334961 12.698111534118652 L12.018793106079102 13.213704109191895"></path>
<path fill="none" stroke="black" stroke-width=".3" stroke-opacity="1.0"  filling="0" d="M19.698671340942383 13.613304138183594 L19.698671340942383 13.613304138183594 C19.035728454589844 13.150609970092773 18.862741470336914 13.346759796142578 19.084800720214844 13.124711990356445 L19.243343353271484 13.124711990356445 C19.453113555908203 13.303584098815918 20.113689422607422 13.473905563354492 20.066734313964844 13.202256202697754 C20.0030574798584 12.833868026733398 19.083518981933594 13.023290634155273 19.090848922729492 12.649511337280273 C19.11025619506836 11.659996032714844 20.41449546813965 12.63880729675293 20.225927352905273 12.722087860107422 L20.066734313964844 12.722087860107422 C19.87605857849121 12.567390441894531 19.261865615844727 12.407402992248535 19.334495544433594 12.641951560974121 C19.47479248046875 13.09502124786377 20.36329460144043 12.41594123840332 20.309951782226562 13.192967414855957 C20.293014526367188 13.439671516418457 19.90243148803711 13.47319221496582 19.698671340942383 13.613304138183594 L19.698671340942383 13.613304138183594"></path>
<path fill="none" stroke="black" stroke-width=".3" stroke-opacity="1.0"  filling="0" d="M19.319807052612305 14.58832836151123 L19.319807052612305 14.58832836151123 C19.27689552307129 14.57688045501709 19.23398208618164 14.565431594848633 19.191070556640625 14.553983688354492 L18.781538009643555 14.311631202697754 C18.758031845092773 14.197818756103516 18.878143310546875 14.1672945022583 18.9860897064209 14.17641544342041 L19.30058479309082 14.36303997039795 C19.313257217407227 14.36303997039795 19.325927734375 14.36303997039795 19.338600158691406 14.36303997039795 L20.565479278564453 13.654991149902344 C20.57174301147461 13.644047737121582 20.578006744384766 13.633103370666504 20.584270477294922 13.622159957885742 L20.584270477294922 12.206280708312988 C20.577863693237305 12.195048332214355 20.571455001831055 12.183816909790039 20.565048217773438 12.172584533691406 L19.338815689086914 11.465184211730957 C19.326215744018555 11.465184211730957 19.313615798950195 11.465184211730957 19.301015853881836 11.465184211730957 L18.07521629333496 12.172799110412598 C18.068737030029297 12.1839599609375 18.062255859375 12.195119857788086 18.055776596069336 12.206280708312988 L18.055776596069336 13.622159957885742 C18.062185287475586 13.633031845092773 18.068592071533203 13.643903732299805 18.075000762939453 13.654775619506836 L18.411094665527344 13.848743438720703 C18.50908660888672 13.807415962219238 18.607080459594727 13.766087532043457 18.7050724029541 13.724760055541992 L18.7050724029541 12.327024459838867 C18.716951370239258 12.315288543701172 18.728832244873047 12.303552627563477 18.740711212158203 12.291816711425781 L18.896230697631836 12.291816711425781 C18.908111572265625 12.303552627563477 18.91999053955078 12.315288543701172 18.93187141418457 12.327024459838867 L18.93187141418457 13.724760055541992 C18.7678165435791 13.89759349822998 18.515804290771484 14.093205451965332 18.285816192626953 14.030832290649414 L17.964406967163086 13.845719337463379 C17.92149543762207 13.771199226379395 17.878582000732422 13.696680068969727 17.835670471191406 13.622159957885742 L17.835670471191406 12.206280708312988 C17.878582000732422 12.131760597229004 17.92149543762207 12.057239532470703 17.964406967163086 11.982719421386719 L19.191070556640625 11.27402400970459 C19.276966094970703 11.27402400970459 19.362863540649414 11.27402400970459 19.448759078979492 11.27402400970459 L20.675424575805664 11.982719421386719 C20.718408584594727 12.057239532470703 20.76139259338379 12.131760597229004 20.80437660217285 12.206280708312988 L20.80437660217285 13.622159957885742 C20.76139259338379 13.696680068969727 20.718408584594727 13.771199226379395 20.675424575805664 13.845719337463379 L19.448759078979492 14.553983688354492 C19.40577507019043 14.565431594848633 19.362791061401367 14.57688045501709 19.319807052612305 14.58832836151123 L19.319807052612305 14.58832836151123"></path></svg>