<svg xmlns="http://www.w3.org/2000/svg" viewBox="0.0 0.0 24.0 24.0" height="200px" width="200px"><path fill="none" stroke="black" stroke-width=".3" stroke-opacity="1.0"  filling="0" d="M13.78987979888916 5.936416149139404 L16.079999923706055 5.936416149139404 L16.079999923706055 8.312301635742188 L15.247228622436523 8.312301635742188 L15.247228622436523 10.106742858886719 C14.293671607971191 11.675910949707031 13.090346336364746 13.001813888549805 12.124338150024414 14.56260871887207 L12.124338150024414 18.441997528076172 C13.4904203414917 19.37079429626465 14.422124862670898 22.19991683959961 11.688590049743652 22.200000762939453 C8.95121955871582 22.200084686279297 9.943273544311523 19.35342025756836 11.291566848754883 18.441997528076172 L11.291566848754883 17.179969787597656 C10.30022144317627 15.671252250671387 9.085660934448242 14.437186241149902 8.16867446899414 12.876593589782715 L8.16867446899414 10.887113571166992 C7.925782680511475 10.546713829040527 7.384156703948975 10.280341148376465 7.439999580383301 9.865914344787598 C7.645891189575195 8.337923049926758 9.274327278137207 8.506377220153809 9.494654655456543 9.866130828857422 C9.560707092285156 10.273772239685059 9.027052879333496 10.546929359436035 8.793251991271973 10.8873291015625 L8.793251991271973 12.876809120178223 C9.540323257446289 13.870779991149902 10.393266677856445 14.78713607788086 11.291566848754883 15.646875381469727 L11.291566848754883 9.927687644958496 L11.291566848754883 4.208499908447266 L10.428190231323242 4.208499908447266 L11.704829216003418 1.7999992370605469 L12.981675148010254 4.208499908447266 L12.124338150024414 4.208499908447266 L12.124338150024414 8.542654037475586 L12.124338150024414 12.876809120178223 C13.00016975402832 11.994193077087402 13.8483247756958 11.079630851745605 14.622651100158691 10.106742858886719 L14.622651100158691 8.312301635742188 L13.78987979888916 8.312301635742188 L13.78987979888916 5.936416149139404"></path></svg>