<svg xmlns="http://www.w3.org/2000/svg" viewBox="0.0 0.0 24.0 24.0" height="200px" width="200px"><path fill="none" stroke="black" stroke-width=".3" stroke-opacity="1.0"  filling="0" d="M20.11684799194336 12.0 L20.11684799194336 12.0 C19.817541122436523 12.555708885192871 19.747163772583008 13.321637153625488 19.21892738342285 13.66712760925293 C18.357845306396484 14.230313301086426 16.72169303894043 13.60862922668457 15.889728546142578 13.381319046020508 L15.889728546142578 13.381319046020508 C15.835583686828613 13.511855125427246 15.781439781188965 13.6423921585083 15.727294921875 13.772928237915039 L15.727294921875 13.772928237915039 C16.476173400878906 14.20059585571289 18.071950912475586 14.9180326461792 18.282543182373047 15.924863815307617 C18.57544708251953 17.325220108032227 17.325618743896484 18.57556915283203 15.925031661987305 18.282711029052734 C14.918100357055664 18.07216453552246 14.200722694396973 16.476003646850586 13.773143768310547 15.727079391479492 L13.773143768310547 15.727079391479492 C13.642607688903809 15.781295776367188 13.51207160949707 15.835512161254883 13.381535530090332 15.889728546142578 L13.381535530090332 15.889728546142578 C13.608732223510742 16.721542358398438 14.230026245117188 18.35714340209961 13.666991233825684 19.21795082092285 C12.883905410766602 20.415189743041992 11.116070747375488 20.415382385253906 10.332799911499023 19.218191146850586 C9.769636154174805 18.357423782348633 10.390900611877441 16.721542358398438 10.618032455444336 15.889728546142578 L10.618032455444336 15.889728546142578 C10.487496376037598 15.835583686828613 10.356961250305176 15.781439781188965 10.226425170898438 15.727294921875 L10.226425170898438 15.727294921875 C9.798881530761719 16.476150512695312 9.081562042236328 18.072107315063477 8.07479190826416 18.28268814086914 C6.674395561218262 18.57560157775879 5.42409086227417 17.32558250427246 5.716896057128906 15.925087928771973 C5.9274091720581055 14.918198585510254 7.5233964920043945 14.200913429260254 8.272272109985352 13.773359298706055 L8.272272109985352 13.773359298706055 C8.218128204345703 13.642823219299316 8.163984298706055 13.512288093566895 8.109840393066406 13.381752014160156 L8.109840393066406 13.381752014160156 C7.2780914306640625 13.608885765075684 5.6423540115356445 14.230138778686523 4.781632423400879 13.667047500610352 C3.584587574005127 12.883931159973145 3.584486484527588 11.116073608398438 4.781552314758301 10.33289623260498 C5.642301082611084 9.769753456115723 7.278453826904297 10.390963554382324 8.110272407531738 10.618032455444336 L8.110272407531738 10.618032455444336 C8.164416313171387 10.487496376037598 8.218560218811035 10.356961250305176 8.272704124450684 10.226425170898438 L8.272704124450684 10.226425170898438 C7.523881912231445 9.798933029174805 5.927835941314697 9.081671714782715 5.717328071594238 8.07485580444336 C5.424553871154785 6.674577713012695 6.674827575683594 5.42435884475708 8.075072288513184 5.7170562744140625 C9.081908226013184 5.927518367767334 9.799139976501465 7.523465156555176 10.226640701293945 8.272272109985352 L10.226640701293945 8.272272109985352 C10.357176780700684 8.218128204345703 10.487711906433105 8.163984298706055 10.618247985839844 8.109840393066406 L10.618247985839844 8.109840393066406 C10.39105224609375 7.2780656814575195 9.76968765258789 5.642497539520264 10.332903861999512 4.781696319580078 C11.1160306930542 3.5847902297973633 12.884016036987305 3.584787607192993 13.66715145111084 4.781696319580078 C14.230186462402344 5.642213821411133 13.609006881713867 7.278231620788574 13.381967544555664 8.109840393066406 L13.381967544555664 8.109840393066406 C13.512503623962402 8.163984298706055 13.643038749694824 8.218128204345703 13.773574829101562 8.272272109985352 L13.773574829101562 8.272272109985352 C14.201227188110352 7.523369789123535 14.918600082397461 5.927610874176025 15.9254150390625 5.7169599533081055 C17.32605743408203 5.423910140991211 18.576160430908203 6.673708915710449 18.283309936523438 8.074480056762695 C18.072778701782227 9.081499099731445 16.476682662963867 9.798970222473145 15.727727890014648 10.226640701293945 L15.727727890014648 10.226640701293945 C15.781871795654297 10.357176780700684 15.836016654968262 10.487711906433105 15.89016056060791 10.618247985839844 L15.89016056060791 10.618247985839844 C16.722103118896484 10.391138076782227 18.357770919799805 9.77011489868164 19.21860694885254 10.333096504211426 C19.746843338012695 10.678560256958008 19.817434310913086 11.444365501403809 20.11684799194336 12.0 L20.11684799194336 12.0"></path></svg>