<svg xmlns="http://www.w3.org/2000/svg" viewBox="0.0 0.0 24.0 24.0" height="200px" width="200px"><path fill="none" stroke="black" stroke-width=".3" stroke-opacity="1.0"  filling="0" d="M8.89240837097168 8.79132080078125 L8.89240837097168 8.79132080078125 C8.848992347717285 9.333048820495605 8.80557632446289 9.874775886535645 8.762160301208496 10.41650390625 L5.869272232055664 8.79132080078125 C6.809045314788818 8.427576065063477 7.897260665893555 8.632686614990234 8.89240837097168 8.79132080078125 L8.89240837097168 8.79132080078125"></path>
<path fill="none" stroke="black" stroke-width=".3" stroke-opacity="1.0"  filling="0" d="M5.777688503265381 8.9824800491333 L8.659991264343262 10.626670837402344 C8.217767715454102 10.942606925964355 7.775543689727783 11.258543968200684 7.333320140838623 11.574480056762695 L7.333320140838623 11.574480056762695 C6.685232639312744 10.80288028717041 5.949294090270996 9.975422859191895 5.777688503265381 8.9824800491333 L5.777688503265381 8.9824800491333"></path>
<path fill="none" stroke="black" stroke-width=".3" stroke-opacity="1.0"  filling="0" d="M18.196392059326172 9.000408172607422 L15.337199211120605 10.68391227722168 C15.28291130065918 10.143119812011719 15.228623390197754 9.602328300476074 15.174335479736328 9.061535835266113 L15.174335479736328 9.061535835266113 C16.165912628173828 8.882794380187988 17.249645233154297 8.655668258666992 18.196392059326172 9.000408172607422 L18.196392059326172 9.000408172607422"></path>
<path fill="none" stroke="black" stroke-width=".3" stroke-opacity="1.0"  filling="0" d="M15.016655921936035 10.929287910461426 L15.016655921936035 10.929287910461426 C17.156097412109375 12.620011329650879 18.633541107177734 14.00108814239502 19.236862182617188 16.726728439331055 L19.236862182617188 16.726728439331055 C17.464290618896484 17.1874942779541 16.19936180114746 17.46501350402832 14.363263130187988 17.07480812072754 C13.493223190307617 16.889907836914062 12.164165496826172 16.9085750579834 11.895024299621582 16.060800552368164 L11.895024299621582 16.060800552368164 C9.356599807739258 17.051271438598633 7.419041633605957 17.627704620361328 4.764000415802002 16.77230453491211 L4.764000415802002 16.77230453491211 C5.132481575012207 15.467597961425781 5.588386535644531 14.321389198303223 6.254741668701172 13.324429512023926 C6.9210968017578125 12.327468872070312 7.7979021072387695 11.479756355285645 9.008183479309082 10.772040367126465 L9.008183479309082 10.772040367126465 C9.41175365447998 8.078095436096191 9.875537872314453 6.110998153686523 11.937575340270996 4.233720302581787 L11.937575340270996 4.233720302581787 C13.219254493713379 5.542100429534912 14.089383125305176 6.501121520996094 14.664471626281738 8.28804874420166 C14.936578750610352 9.133546829223633 15.621893882751465 10.279213905334473 15.016655921936035 10.929287910461426 L15.016655921936035 10.929287910461426"></path>
<path fill="none" stroke="black" stroke-width=".3" stroke-opacity="1.0"  filling="0" d="M16.81399154663086 11.797823905944824 L16.81399154663086 11.797823905944824 C16.36543083190918 11.490887641906738 15.916871070861816 11.183951377868652 15.468311309814453 10.877015113830566 L18.31670379638672 9.17471981048584 C18.165124893188477 10.170936584472656 17.446273803710938 11.01319408416748 16.81399154663086 11.797823905944824 L16.81399154663086 11.797823905944824"></path>
<path fill="none" stroke="black" stroke-width=".3" stroke-opacity="1.0"  filling="0" d="M12.169992446899414 15.314088821411133 L12.169992446899414 15.314088821411133 C12.494039535522461 14.734127044677734 13.427597999572754 13.366158485412598 12.277775764465332 12.819071769714355 L12.277775764465332 12.819071769714355 C12.150039672851562 13.970447540283203 12.267173767089844 14.618550300598145 11.162784576416016 15.488615989685059 C10.32779312133789 16.14644432067871 7.577015399932861 16.30909538269043 6.750552177429199 15.586895942687988 C6.543525695800781 15.405987739562988 6.751862525939941 15.026123046875 6.845312118530273 14.767560005187988 C7.057627201080322 14.1801118850708 7.268011569976807 13.567264556884766 7.657095909118652 13.078607559204102 C8.178403854370117 12.42388916015625 8.902701377868652 11.960512161254883 9.525504112243652 11.401464462280273 L9.525504112243652 11.401464462280273 C9.871103286743164 11.966285705566406 10.593497276306152 13.434657096862793 11.630424499511719 12.71820068359375 L11.630424499511719 12.71820068359375 C10.695008277893066 12.034810066223145 10.074284553527832 11.814055442810059 9.868727684020996 10.423200607299805 C9.713647842407227 9.373886108398438 10.94028091430664 6.90109920501709 11.97818374633789 6.5464324951171875 C12.240141868591309 6.4569172859191895 12.467179298400879 6.82887077331543 12.64587116241455 7.040304183959961 C13.051592826843262 7.5203657150268555 13.48099422454834 8.011420249938965 13.710760116577148 8.596464157104492 C14.018624305725098 9.38036823272705 14.055757522583008 10.245136260986328 14.228256225585938 11.069472312927246 L14.228256225585938 11.069472312927246 C13.564241409301758 11.085458755493164 11.923592567443848 10.976226806640625 12.029376029968262 12.238679885864258 L12.029376029968262 12.238679885864258 C13.087509155273438 11.76740550994873 13.588193893432617 11.338761329650879 14.896775245666504 11.852255821228027 C15.884364128112793 12.239790916442871 17.41861343383789 14.533759117126465 17.21013641357422 15.61065673828125 C17.15755844116211 15.882255554199219 16.722265243530273 15.894269943237305 16.450151443481445 15.944120407104492 C15.832252502441406 16.05731773376465 15.193061828613281 16.185514450073242 14.571576118469238 16.094032287597656 C13.738862991333008 15.971458435058594 12.97052001953125 15.57406997680664 12.169992446899414 15.314088821411133 L12.169992446899414 15.314088821411133"></path>
<path fill="none" stroke="black" stroke-width=".3" stroke-opacity="1.0"  filling="0" d="M10.288415908813477 17.13604736328125 L10.288415908813477 17.13604736328125 C10.781255722045898 16.906726837158203 11.274096488952637 16.67740821838379 11.766936302185059 16.448087692260742 L11.779032707214355 19.766063690185547 C10.999114990234375 19.12796974182129 10.64107894897461 18.08000946044922 10.288415908813477 17.13604736328125 L10.288415908813477 17.13604736328125"></path>
<path fill="none" stroke="black" stroke-width=".3" stroke-opacity="1.0"  filling="0" d="M11.990495681762695 19.751808166503906 L12.0 16.43361473083496 C12.492912292480469 16.662647247314453 12.985823631286621 16.891679763793945 13.47873592376709 17.120712280273438 L13.47873592376709 17.120712280273438 C13.126931190490723 18.064912796020508 12.769841194152832 19.113136291503906 11.990495681762695 19.751808166503906 L11.990495681762695 19.751808166503906"></path></svg>