<svg xmlns="http://www.w3.org/2000/svg" viewBox="0.0 0.0 24.0 24.0" height="200px" width="200px"><path fill="none" stroke="black" stroke-width=".3" stroke-opacity="1.0"  filling="0" d="M16.666431427001953 8.652000427246094 L14.455338478088379 11.914430618286133 L12.244245529174805 15.176861763000488 C11.856613159179688 15.407571792602539 11.305893898010254 15.440890312194824 10.893415451049805 15.258277893066406 L7.776369571685791 12.141230583190918 C7.776369571685791 11.88479995727539 7.776369571685791 11.628369331359863 7.776369571685791 11.371938705444336 L8.546492576599121 10.600153923034668 C8.802923202514648 10.600153923034668 9.059353828430176 10.600153923034668 9.315784454345703 10.600153923034668 L11.34286117553711 12.627230644226074 L14.864492416381836 7.429107666015625 C15.11649227142334 7.381199836730957 15.36849308013916 7.333292007446289 15.620492935180664 7.285384178161621 L16.52187728881836 7.8968305587768555 C16.5700626373291 8.148553848266602 16.61824607849121 8.400277137756348 16.666431427001953 8.652000427246094 L16.666431427001953 8.652000427246094"></path>
<path fill="none" stroke="black" stroke-width=".3" stroke-opacity="1.0"  filling="0" d="M19.99781608581543 11.690954208374023 L19.99781608581543 11.690954208374023 C21.836395263671875 14.19881820678711 21.085975646972656 16.218402862548828 18.487476348876953 17.703231811523438 L18.487476348876953 17.703231811523438 C17.419570922851562 19.833751678466797 15.792309761047363 21.52924346923828 13.913751602172852 22.260221481323242 C12.03519344329834 22.991199493408203 9.9053373336792 22.757659912109375 7.8322434425354 21.030122756958008 C6.299322128295898 19.752717971801758 6.387039661407471 19.45261573791504 5.504215240478516 17.671661376953125 L5.504215240478516 17.671661376953125 C2.9444310665130615 16.172016143798828 2.146731376647949 14.18025016784668 3.9863996505737305 11.671014785766602 L3.9863996505737305 11.671014785766602 C3.8773863315582275 10.230827331542969 3.797783851623535 8.803972244262695 4.005428791046143 7.450267314910889 C4.21307373046875 6.096562385559082 4.707966327667236 4.8160080909729 5.7479424476623535 3.668423652648926 C6.902503490447998 2.3943982124328613 8.514034271240234 1.6095691919326782 10.239092826843262 1.303627848625183 C11.964151382446289 0.997686505317688 13.802739143371582 1.1706327199935913 15.411413192749023 1.8121576309204102 C17.02008819580078 2.4536824226379395 18.398849487304688 3.563786029815674 19.204254150390625 5.132159233093262 C20.299039840698242 7.264044761657715 20.142675399780273 9.38339614868164 19.99781608581543 11.690954208374023 L19.99781608581543 11.690954208374023"></path></svg>