<svg xmlns="http://www.w3.org/2000/svg" viewBox="0.0 0.0 24.0 24.0" height="200px" width="200px"><path fill="none" stroke="black" stroke-width=".3" stroke-opacity="1.0"  filling="0" d="M5.764315605163574 9.925311088562012 L5.764315605163574 9.925311088562012 C5.7366533279418945 9.731673240661621 5.708990573883057 9.538036346435547 5.681328296661377 9.344398498535156 L6.8647308349609375 7.956016540527344 C6.797972202301025 7.629927635192871 7.121216773986816 7.340400218963623 7.280498027801514 7.04813289642334 L7.424066543579102 4.0331950187683105 C7.640074729919434 3.8603885173797607 8.037934303283691 3.8603885173797607 8.253942489624023 4.0331950187683105 L8.473029136657715 7.0987548828125 C8.737884521484375 7.6491217613220215 9.230364799499512 9.127786636352539 7.687137126922607 8.815767288208008 L6.34522819519043 10.008298873901367 C6.151590824127197 9.980636596679688 5.957952976226807 9.952973365783691 5.764315605163574 9.925311088562012 L5.764315605163574 9.925311088562012"></path>
<path fill="none" stroke="black" stroke-width=".3" stroke-opacity="1.0"  filling="0" d="M13.150206565856934 12.082987785339355 L13.150206565856934 12.082987785339355 C16.515127182006836 10.55348014831543 14.844185829162598 15.960648536682129 14.643983840942383 17.4771785736084 L13.399169921875 17.4771785736084 C13.165923118591309 15.710338592529297 12.398218154907227 13.737363815307617 13.150206565856934 12.082987785339355 L13.150206565856934 12.082987785339355"></path>
<path fill="none" stroke="black" stroke-width=".3" stroke-opacity="1.0"  filling="0" d="M8.253942489624023 14.489625930786133 L8.253942489624023 14.489625930786133 C6.90401554107666 14.489625930786133 5.676580429077148 14.270484924316406 4.4949140548706055 13.57983684539795 C3.518528938293457 13.00916862487793 2.6804580688476562 12.171098709106445 2.109790325164795 11.194713592529297 C0.7944375872612 8.944208145141602 0.9836657047271729 6.675284385681152 2.0096511840820312 4.873091697692871 C3.0356366634368896 3.07089900970459 4.898379325866699 1.7354373931884766 6.930056571960449 1.3518569469451904 C8.9617338180542 0.9682764410972595 11.162343978881836 1.5365769863128662 12.864066123962402 3.5419085025787354 C13.99036693572998 4.869156837463379 13.939520835876465 5.382795333862305 14.395020484924316 7.02074670791626 L14.395020484924316 7.02074670791626 C13.85153865814209 7.02074670791626 13.333849906921387 7.263820648193359 12.818257331848145 7.435684680938721 L12.818257331848145 7.435684680938721 C12.36965274810791 5.887887477874756 12.43974494934082 5.327064037322998 11.199999809265137 4.188796520233154 C9.338214874267578 2.479405641555786 7.3541035652160645 2.503622531890869 5.794500350952148 3.4031245708465576 C4.234896659851074 4.302626609802246 3.099801540374756 6.077413558959961 2.936048984527588 7.869163990020752 C2.77229642868042 9.660914421081543 3.5798866748809814 11.469627380371094 5.905653953552246 12.436982154846191 C7.450485706329346 13.079523086547852 7.9257001876831055 12.816186904907227 9.415767669677734 12.580912590026855 L8.253942489624023 14.489625930786133"></path>
<path fill="none" stroke="black" stroke-width=".3" stroke-opacity="1.0"  filling="0" d="M22.444812774658203 20.298755645751953 L22.444812774658203 20.298755645751953 C22.50359535217285 20.879669189453125 22.93356704711914 21.548221588134766 22.62116050720215 22.041494369506836 C22.281299591064453 22.57811737060547 21.45241928100586 22.539419174194336 20.86804962158203 22.788381576538086 L14.021576881408691 22.788381576538086 L7.175104141235352 22.788381576538086 C6.614938259124756 22.549793243408203 5.807862281799316 22.594707489013672 5.494606018066406 22.072614669799805 C5.188710689544678 21.562789916992188 5.6190876960754395 20.89004135131836 5.681328296661377 20.298755645751953 L9.083817481994629 14.614108085632324 L12.486307144165039 8.929460525512695 C12.998064041137695 8.576763153076172 13.400054931640625 7.871369361877441 14.021576881408691 7.871369361877441 C14.643098831176758 7.871369361877441 15.045089721679688 8.576763153076172 15.556845664978027 8.929460525512695 L19.000829696655273 14.614108085632324 L22.444812774658203 20.298755645751953"></path>
<path fill="none" stroke="black" stroke-width=".3" stroke-opacity="1.0"  filling="0" d="M14.975933074951172 20.381744384765625 L14.975933074951172 20.381744384765625 C13.850788116455078 20.790884017944336 11.60152816772461 20.007898330688477 13.150206565856934 18.556015014648438 C14.606766700744629 17.190492630004883 15.5186185836792 19.187837600708008 14.975933074951172 20.381744384765625 L14.975933074951172 20.381744384765625"></path></svg>