<svg xmlns="http://www.w3.org/2000/svg" viewBox="0.0 0.0 24.0 24.0" height="200px" width="200px"><path fill="none" stroke="black" stroke-width=".3" stroke-opacity="1.0"  filling="0" d="M16.17461585998535 4.523077011108398 L16.17461585998535 4.523077011108398 C16.45457649230957 3.4795455932617188 16.366680145263672 2.9852452278137207 17.410385131835938 2.382662057876587 C19.029544830322266 1.4478398561477661 21.117692947387695 2.6534323692321777 21.117692947387695 4.523077011108398 C21.117692947387695 6.392721176147461 19.029544830322266 7.59831428527832 17.410385131835938 6.663491725921631 C16.36667823791504 6.060906887054443 16.454578399658203 5.566610813140869 16.17461585998535 4.523077011108398 L16.17461585998535 4.523077011108398"></path>
<path fill="none" stroke="black" stroke-width=".3" stroke-opacity="1.0"  filling="0" d="M13.437231063842773 9.507692337036133 L12.6347074508667 7.086831092834473 L8.231630325317383 9.253477096557617 C8.506027221679688 10.892168045043945 8.780430793762207 12.530858039855957 9.054742813110352 14.169563293457031 C9.329054832458496 15.808268547058105 9.603275299072266 17.446989059448242 9.877305030822754 19.08574104309082 C10.014127731323242 19.903966903686523 10.688088417053223 20.81439781188965 10.28695297241211 21.54055404663086 C9.136222839355469 23.623668670654297 9.08566665649414 22.79371452331543 7.854462146759033 21.628616333007812 L6.835107803344727 16.814308166503906 L5.815753936767578 12.0 L5.167754173278809 16.793123245239258 L4.519754409790039 21.586246490478516 C4.105477333068848 21.99083137512207 3.8559370040893555 22.807537078857422 3.276923179626465 22.799999237060547 C2.689530611038208 22.7923526763916 2.340503215789795 22.05299949645996 2.0307693481445312 21.55384635925293 C1.6864392757415771 20.998939514160156 2.4168660640716553 17.35363006591797 2.456801414489746 16.922229766845703 C2.6780741214752197 14.531937599182129 2.902160882949829 12.141834259033203 3.1135499477386475 9.750640869140625 C3.2400054931640625 8.320199966430664 3.2950968742370605 7.014169692993164 4.375507831573486 5.932276725769043 C5.5006184577941895 4.805622577667236 7.357789993286133 4.048836708068848 8.722408294677734 3.3355963230133057 C10.47445297241211 2.419861316680908 13.54813003540039 0.0436863899230957 15.05224609375 2.616461753845215 C15.828749656677246 3.9446630477905273 15.068248748779297 5.482807636260986 15.32972240447998 6.894092559814453 C15.342952728271484 6.965502738952637 16.001445770263672 9.0679292678833 16.138893127441406 9.507692337036133 L13.437231063842773 9.507692337036133"></path>
<path fill="none" stroke="black" stroke-width=".3" stroke-opacity="1.0"  filling="0" d="M21.951786041259766 11.061230659484863 L21.473262786865234 15.922061920166016 L20.994739532470703 20.782894134521484 C20.61874008178711 21.626705169677734 19.91990852355957 22.41622543334961 19.069015502929688 22.775909423828125 L15.731815338134766 22.775909423828125 C14.871490478515625 22.45665168762207 14.207948684692383 21.632343292236328 13.808584213256836 20.80615234375 L13.327984809875488 15.933691024780273 L12.84738540649414 11.061230659484863 C13.07086181640625 10.820307731628418 13.294339179992676 10.579383850097656 13.517815589904785 10.338460922241211 L17.399585723876953 10.338460922241211 L21.281354904174805 10.338460922241211 C21.504831314086914 10.579383850097656 21.728309631347656 10.820307731628418 21.951786041259766 11.061230659484863 L21.951786041259766 11.061230659484863"></path>
<path fill="none" stroke="black" stroke-width=".3" stroke-opacity="1.0"  filling="0" d="M13.782000541687012 11.97341537475586 L15.153599739074707 12.00332260131836 L13.947322845458984 13.673169136047363 L13.782000541687012 11.97341537475586"></path>
<path fill="none" stroke="black" stroke-width=".3" stroke-opacity="1.0"  filling="0" d="M18.602954864501953 11.97341537475586 L17.40083122253418 13.574308395385742 L16.1895694732666 11.989200592041016 L18.602954864501953 11.97341537475586"></path>
<path fill="none" stroke="black" stroke-width=".3" stroke-opacity="1.0"  filling="0" d="M20.852676391601562 13.671507835388184 L19.67215347290039 11.97341537475586 L21.018001556396484 11.97341537475586 L20.852676391601562 13.671507835388184"></path>
<path fill="none" stroke="black" stroke-width=".3" stroke-opacity="1.0"  filling="0" d="M17.923383712768555 14.258861541748047 L19.121355056762695 12.692861557006836 L20.243722915649414 14.247230529785156 L19.0789852142334 15.770030975341797 L17.923383712768555 14.258861541748047"></path>
<path fill="none" stroke="black" stroke-width=".3" stroke-opacity="1.0"  filling="0" d="M17.399999618530273 14.942584991455078 L18.555599212646484 16.453754425048828 L17.390031814575195 17.977384567260742 L16.236923217773438 16.462892532348633 L17.399999618530273 14.942584991455078"></path>
<path fill="none" stroke="black" stroke-width=".3" stroke-opacity="1.0"  filling="0" d="M14.076923370361328 14.994922637939453 L15.191814422607422 16.461231231689453 L14.329476356506348 17.587753295898438 L14.076923370361328 14.994922637939453"></path>
<path fill="none" stroke="black" stroke-width=".3" stroke-opacity="1.0"  filling="0" d="M15.715200424194336 15.777507781982422 L14.55544662475586 14.251384735107422 L15.681968688964844 12.692861557006836 L16.877445220947266 14.258861541748047 L15.715200424194336 15.777507781982422"></path>
<path fill="none" stroke="black" stroke-width=".3" stroke-opacity="1.0"  filling="0" d="M20.470521926879883 17.592737197875977 L19.6007080078125 16.454586029052734 L20.723907470703125 14.986614227294922 L20.470521926879883 17.592737197875977"></path>
<path fill="none" stroke="black" stroke-width=".3" stroke-opacity="1.0"  filling="0" d="M14.744029998779297 18.412708282470703 L15.71353816986084 17.147445678710938 L16.86664581298828 18.661937713623047 L15.960277557373047 19.846614837646484 L14.744029998779297 18.412708282470703"></path>
<path fill="none" stroke="black" stroke-width=".3" stroke-opacity="1.0"  filling="0" d="M17.91092300415039 18.663599014282227 L19.077322006225586 17.138307571411133 L20.050983428955078 18.412708282470703 L18.821447372436523 19.85907745361328 L17.91092300415039 18.663599014282227"></path>
<path fill="none" stroke="black" stroke-width=".3" stroke-opacity="1.0"  filling="0" d="M17.38753890991211 19.347322463989258 L18.269817352294922 20.507076263427734 L17.394184112548828 21.5372314453125 L16.509414672851562 20.493783950805664 L17.38753890991211 19.347322463989258"></path>
<path fill="none" stroke="black" stroke-width=".3" stroke-opacity="1.0"  filling="0" d="M14.830430030822754 21.321229934692383 L14.830430030822754 21.321229934692383 C14.764522552490234 21.11464500427246 14.698616027832031 20.908061981201172 14.632708549499512 20.70147705078125 L14.507261276245117 19.417938232421875 L15.442707061767578 20.52120018005371 L14.830430030822754 21.321229934692383"></path>
<path fill="none" stroke="black" stroke-width=".3" stroke-opacity="1.0"  filling="0" d="M19.961261749267578 21.358613967895508 L19.33652114868164 20.536983489990234 L20.293567657470703 19.409629821777344 L20.16895294189453 20.685691833496094 C20.099721908569336 20.90999984741211 20.030492782592773 21.134305953979492 19.961261749267578 21.358613967895508 L19.961261749267578 21.358613967895508"></path>
<path fill="none" stroke="black" stroke-width=".3" stroke-opacity="1.0"  filling="0" d="M15.440216064453125 21.892799377441406 L15.99350643157959 21.169200897216797 L16.651477813720703 21.945140838623047 L15.731815338134766 21.945140838623047 C15.634615898132324 21.92769432067871 15.537415504455566 21.910245895385742 15.440216064453125 21.892799377441406 L15.440216064453125 21.892799377441406"></path>
<path fill="none" stroke="black" stroke-width=".3" stroke-opacity="1.0"  filling="0" d="M18.140216827392578 21.945140838623047 L18.785722732543945 21.184986114501953 L19.334861755371094 21.906091690063477 C19.246246337890625 21.91910743713379 19.157630920410156 21.932125091552734 19.069015502929688 21.945140838623047 L18.140216827392578 21.945140838623047"></path></svg>