<svg xmlns="http://www.w3.org/2000/svg" viewBox="0.0 0.0 24.0 24.0" height="200px" width="200px"><path fill="none" stroke="black" stroke-width=".3" stroke-opacity="1.0"  filling="0" d="M3.4967689514160156 3.9247570037841797 L3.4967689514160156 3.9247570037841797 C3.2134273052215576 3.6414148807525635 2.9300854206085205 3.3580729961395264 2.6467437744140625 3.07473087310791 L2.6467437744140625 2.224705696105957 C2.9300854206085205 1.9413639307022095 3.2134273052215576 1.6580222845077515 3.4967689514160156 1.374680519104004 L9.163606643676758 1.374680519104004 L14.830443382263184 1.374680519104004 L20.49728012084961 1.374680519104004 C20.780622482299805 1.658022165298462 21.06396484375 1.941364049911499 21.347307205200195 2.224705696105957 L21.347307205200195 3.07473087310791 C21.06396484375 3.3580729961395264 20.780622482299805 3.6414148807525635 20.49728012084961 3.9247570037841797 L14.830443382263184 3.9247570037841797 L9.163606643676758 3.9247570037841797 L3.4967689514160156 3.9247570037841797"></path>
<path fill="none" stroke="black" stroke-width=".3" stroke-opacity="1.0"  filling="0" d="M22.79574966430664 10.699460983276367 L22.79574966430664 10.699460983276367 C22.53904151916504 10.989603042602539 22.388294219970703 11.433673858642578 22.02562713623047 11.569887161254883 C21.790725708007812 11.658112525939941 21.573413848876953 11.352280616760254 21.347307205200195 11.243476867675781 L21.347307205200195 16.50938606262207 L21.347307205200195 21.77529525756836 C21.06396484375 22.058637619018555 20.780622482299805 22.341978073120117 20.49728012084961 22.625320434570312 L18.797229766845703 22.625320434570312 L18.797229766845703 18.375192642211914 L18.797229766845703 14.1250638961792 L14.547101974487305 14.1250638961792 L14.547101974487305 18.375192642211914 L14.547101974487305 22.625320434570312 L9.02193546295166 22.625320434570312 L3.4967689514160156 22.625320434570312 C3.2134273052215576 22.341978073120117 2.9300854206085205 22.058637619018555 2.6467437744140625 21.77529525756836 L2.6467437744140625 16.509811401367188 L2.6467437744140625 11.2443265914917 C2.1966493129730225 11.495253562927246 1.5627714395523071 11.065448760986328 1.2000007629394531 10.699460983276367 L2.6467437744140625 6.550486087799072 L2.6467437744140625 5.624808311462402 C2.9300854206085205 5.341466426849365 3.2134273052215576 5.05812406539917 3.4967689514160156 4.774782180786133 L9.163606643676758 4.774782180786133 L14.830443382263184 4.774782180786133 L20.49728012084961 4.774782180786133 C20.780622482299805 5.05812406539917 21.06396484375 5.341466426849365 21.347307205200195 5.624808311462402 L21.347307205200195 6.550486087799072 L22.79574966430664 10.699460983276367"></path>
<path fill="none" stroke="black" stroke-width=".3" stroke-opacity="1.0"  filling="0" d="M9.202990531921387 10.779363632202148 L9.202990531921387 10.779363632202148 C8.801778793334961 11.180575370788574 8.566694259643555 11.974774360656738 7.999354839324951 11.982999801635742 C7.420421123504639 11.991393089294434 6.71360969543457 11.297220230102539 6.801668643951416 10.724961280822754 L6.799968242645264 10.724961280822754 C6.799401760101318 10.716461181640625 6.798835277557373 10.707961082458496 6.798268795013428 10.699460983276367 L7.365235805511475 7.324859142303467 L9.503049850463867 7.324859142303467 L9.197891235351562 10.699460983276367 C9.198457717895508 10.707961082458496 9.199024200439453 10.716461181640625 9.199590682983398 10.724961280822754 L9.197040557861328 10.724961280822754 C9.199024200439453 10.743095397949219 9.201006889343262 10.761229515075684 9.202990531921387 10.779363632202148 L9.202990531921387 10.779363632202148"></path>
<path fill="none" stroke="black" stroke-width=".3" stroke-opacity="1.0"  filling="0" d="M4.000833988189697 11.982999801635742 L4.000833988189697 11.982999801635742 C3.5914230346679688 11.573589324951172 2.7401890754699707 11.300522804260254 2.8031482696533203 10.724961280822754 L2.798898696899414 10.724961280822754 C2.7991819381713867 10.716461181640625 2.7994651794433594 10.707961082458496 2.799748420715332 10.699460983276367 L3.8019285202026367 7.324859142303467 L5.9397430419921875 7.324859142303467 L5.198521137237549 10.699460983276367 C5.199087619781494 10.707961082458496 5.1996541023254395 10.716461181640625 5.200220584869385 10.724961280822754 L5.198521137237549 10.724961280822754 C5.261465549468994 11.300524711608887 4.410245418548584 11.573588371276855 4.000833988189697 11.982999801635742 L4.000833988189697 11.982999801635742"></path>
<path fill="none" stroke="black" stroke-width=".3" stroke-opacity="1.0"  filling="0" d="M11.997875213623047 11.982999801635742 L11.997875213623047 11.982999801635742 C11.58846378326416 11.573589324951172 10.73723030090332 11.300522804260254 10.800189018249512 10.724961280822754 L10.797638893127441 10.724961280822754 C10.797638893127441 10.716461181640625 10.797638893127441 10.707961082458496 10.797638893127441 10.699460983276367 L10.927693367004395 7.324859142303467 L13.065506935119629 7.324859142303467 L13.195561408996582 10.699460983276367 C13.195561408996582 10.707961082458496 13.195561408996582 10.716461181640625 13.195561408996582 10.724961280822754 L13.194711685180664 10.724961280822754 C13.23908805847168 11.302057266235352 12.4080171585083 11.574597358703613 11.997875213623047 11.982999801635742 L11.997875213623047 11.982999801635742"></path>
<path fill="none" stroke="black" stroke-width=".3" stroke-opacity="1.0"  filling="0" d="M15.995545387268066 11.982999801635742 L15.995545387268066 11.982999801635742 C15.584685325622559 11.575042724609375 14.742985725402832 11.301349639892578 14.797859191894531 10.724961280822754 L14.796159744262695 10.724961280822754 C14.796159744262695 10.716461181640625 14.796159744262695 10.707961082458496 14.796159744262695 10.699460983276367 L14.491000175476074 7.324859142303467 L16.62966537475586 7.324859142303467 L17.196632385253906 10.699460983276367 C17.19748306274414 10.707961082458496 17.198331832885742 10.716461181640625 17.199182510375977 10.724961280822754 L17.1932315826416 10.724961280822754 C17.25619125366211 11.300522804260254 16.404956817626953 11.573589324951172 15.995545387268066 11.982999801635742 L15.995545387268066 11.982999801635742"></path>
<path fill="none" stroke="black" stroke-width=".3" stroke-opacity="1.0"  filling="0" d="M19.979618072509766 11.982999801635742 L19.979618072509766 11.982999801635742 C19.560354232788086 11.579198837280273 18.730825424194336 11.277950286865234 18.7955322265625 10.699460983276367 L18.05430793762207 7.324859142303467 L20.192970275878906 7.324859142303467 L21.196849822998047 10.699460983276367 C21.196849822998047 10.707961082458496 21.196849822998047 10.716461181640625 21.196849822998047 10.724961280822754 L21.178152084350586 10.724961280822754 C21.241132736206055 11.300716400146484 20.389310836791992 11.57359504699707 19.979618072509766 11.982999801635742 L19.979618072509766 11.982999801635742"></path>
<path fill="none" stroke="black" stroke-width=".3" stroke-opacity="1.0"  filling="0" d="M11.997025489807129 20.07524299621582 L5.196820259094238 20.07524299621582 L5.196820259094238 14.1250638961792 L11.997025489807129 14.1250638961792 L11.997025489807129 20.07524299621582"></path></svg>