<svg xmlns="http://www.w3.org/2000/svg" viewBox="0.0 0.0 24.0 24.0" height="200px" width="200px"><path fill="none" stroke="black" stroke-width=".3" stroke-opacity="1.0"  filling="0" d="M15.135024070739746 11.6725435256958 L17.018112182617188 11.682696342468262 L15.472847938537598 9.975000381469727 L16.74163246154785 7.257719993591309 L18.984575271606445 12.520559310913086 L17.92876625061035 12.520559310913086 L19.2653751373291 14.388311386108398 L17.359174728393555 14.388311386108398 L15.135024070739746 11.6725435256958"></path>
<path fill="none" stroke="black" stroke-width=".3" stroke-opacity="1.0"  filling="0" d="M6.497400283813477 14.370383262634277 L4.34539270401001 14.370383262634277 L6.343392372131348 11.507519721984863 L5.421072483062744 11.507519721984863 L7.572000026702881 8.47768783569336 L8.517215728759766 9.808248519897461 L6.821832656860352 11.682696342468262 L8.749199867248535 11.682696342468262 L6.497400283813477 14.370383262634277"></path>
<path fill="none" stroke="black" stroke-width=".3" stroke-opacity="1.0"  filling="0" d="M8.288472175598145 14.554847717285156 L8.288472175598145 15.722110748291016 C7.810248374938965 15.83263111114502 7.332024097442627 15.94315242767334 6.853800296783447 16.053672790527344 L6.853800296783447 14.554847717285156 L8.288472175598145 14.554847717285156"></path>
<path fill="none" stroke="black" stroke-width=".3" stroke-opacity="1.0"  filling="0" d="M17.30215072631836 14.554847717285156 L17.30215072631836 16.910327911376953 C16.91896629333496 16.8166561126709 16.535783767700195 16.722984313964844 16.152599334716797 16.62931251525879 L16.180681228637695 14.554847717285156 L17.30215072631836 14.554847717285156"></path>
<path fill="none" stroke="black" stroke-width=".3" stroke-opacity="1.0"  filling="0" d="M12.676727294921875 15.750408172607422 L12.676727294921875 15.750408172607422 C12.171359062194824 15.667464256286621 11.66599178314209 15.584519386291504 11.160623550415039 15.501575469970703 L11.160623550415039 14.075544357299805 L7.896000385284424 14.075544357299805 L10.30245590209961 11.203607559204102 L8.427144050598145 11.203607559204102 L10.737048149108887 8.649192810058594 L9.360048294067383 8.649192810058594 L11.919431686401367 5.010240077972412 L14.480545043945312 8.64897632598877 L13.101815223693848 8.64897632598877 L15.413016319274902 11.203607559204102 L13.536839485168457 11.203607559204102 L15.945240020751953 14.075544357299805 L12.676727294921875 14.075544357299805 L12.676727294921875 15.750408172607422"></path>
<path fill="none" stroke="black" stroke-width=".3" stroke-opacity="1.0"  filling="0" d="M13.786319732666016 16.884838104248047 L13.786319732666016 16.884838104248047 C14.950586318969727 17.227703094482422 16.479469299316406 17.328807830810547 17.93926239013672 17.556734085083008 C19.39905548095703 17.78466033935547 20.789758682250977 18.139404296875 21.677663803100586 18.989543914794922 L15.22581672668457 18.989543914794922 L8.773968696594238 18.989543914794922 L2.3221206665039062 18.989543914794922 C4.077037811279297 17.67047882080078 5.894787311553955 16.88628578186035 7.797957420349121 16.560867309570312 C9.701128005981445 16.23544692993164 11.689719200134277 16.368803024291992 13.786319732666016 16.884838104248047 L13.786319732666016 16.884838104248047"></path></svg>