<svg xmlns="http://www.w3.org/2000/svg" viewBox="0.0 0.0 24.0 24.0" height="200px" width="200px"><path fill="none" stroke="black" stroke-width=".3" stroke-opacity="1.0"  filling="0" d="M8.994436264038086 10.153936386108398 L8.979491233825684 5.637627124786377 L15.875890731811523 5.614772796630859 L15.890945434570312 10.130999565124512 L8.994436264038086 10.153936386108398"></path>
<path fill="none" stroke="black" stroke-width=".3" stroke-opacity="1.0"  filling="0" d="M16.931808471679688 10.35430908203125 L16.931808471679688 10.35430908203125 C16.7586727142334 10.430582046508789 16.585535049438477 10.506855010986328 16.412399291992188 10.583127975463867 L12.444381713867188 10.596327781677246 L8.476364135742188 10.609527587890625 C8.302681922912598 10.534436225891113 8.128999710083008 10.459345817565918 7.955317974090576 10.384254455566406 L7.938817977905273 5.4144816398620605 C8.11199951171875 5.338299751281738 8.285181999206543 5.262117862701416 8.45836353302002 5.185935974121094 L12.426258087158203 5.172695159912109 L16.394153594970703 5.159454345703125 C16.567827224731445 5.2344818115234375 16.741498947143555 5.309508800506592 16.915172576904297 5.384536266326904 L16.931808471679688 10.35430908203125"></path>
<path fill="none" stroke="black" stroke-width=".3" stroke-opacity="1.0"  filling="0" d="M16.916236877441406 11.305663108825684 L16.93058204650879 15.580144882202148 C16.757417678833008 15.645791053771973 16.584253311157227 15.71143627166748 16.411088943481445 15.777082443237305 L12.443071365356445 15.790282249450684 L8.475054740905762 15.803482055664062 C8.301427841186523 15.739018440246582 8.127799987792969 15.674553871154785 7.954172611236572 15.610090255737305 L7.9399094581604 11.335417747497559 C8.113154411315918 11.26983642578125 8.286399841308594 11.204254150390625 8.45964527130127 11.138672828674316 L12.427608489990234 11.125473022460938 L16.395570755004883 11.112273216247559 C16.56912612915039 11.176736831665039 16.7426815032959 11.241199493408203 16.916236877441406 11.305663108825684 L16.916236877441406 11.305663108825684"></path>
<path fill="none" stroke="black" stroke-width=".3" stroke-opacity="1.0"  filling="0" d="M10.973154067993164 11.596445083618164 L11.693536758422852 11.593963623046875 C11.709291458129883 11.602763175964355 11.725045204162598 11.611563682556152 11.740799903869629 11.620363235473633 L11.742654800415039 12.201027870178223 C11.726991653442383 12.209891319274902 11.71132755279541 12.218755722045898 11.695664405822754 12.227619171142578 L10.97525405883789 12.23009967803955 C10.95947265625 12.22130012512207 10.94369125366211 12.212499618530273 10.927909851074219 12.203700065612793 L10.925999641418457 11.62300968170166 C10.941718101501465 11.614154815673828 10.957435607910156 11.605299949645996 10.973154067993164 11.596445083618164 L10.973154067993164 11.596445083618164"></path>
<path fill="none" stroke="black" stroke-width=".3" stroke-opacity="1.0"  filling="0" d="M12.092345237731934 11.596445083618164 L12.812809944152832 11.593963623046875 C12.828564643859863 11.602763175964355 12.844318389892578 11.611563682556152 12.86007308959961 11.620363235473633 L12.861927032470703 12.201027870178223 C12.846254348754883 12.209891319274902 12.830581665039062 12.218755722045898 12.814908981323242 12.227619171142578 L12.094499588012695 12.23009967803955 C12.078681945800781 12.22130012512207 12.06286334991455 12.212499618530273 12.047045707702637 12.203700065612793 L12.045136451721191 11.62300968170166 C12.060873031616211 11.614154815673828 12.076608657836914 11.605299949645996 12.092345237731934 11.596445083618164 L12.092345237731934 11.596445083618164"></path>
<path fill="none" stroke="black" stroke-width=".3" stroke-opacity="1.0"  filling="0" d="M13.211427688598633 11.596445083618164 L13.931863784790039 11.593963623046875 C13.94761848449707 11.602763175964355 13.963372230529785 11.611563682556152 13.979126930236816 11.620363235473633 L13.981145858764648 12.201027870178223 C13.965391159057617 12.209891319274902 13.949636459350586 12.218755722045898 13.933881759643555 12.227619171142578 L13.213555335998535 12.23009967803955 C13.197800636291504 12.22130012512207 13.182045936584473 12.212499618530273 13.166291236877441 12.203700065612793 L13.16435432434082 11.62300968170166 C13.180045127868652 11.614154815673828 13.1957368850708 11.605299949645996 13.211427688598633 11.596445083618164 L13.211427688598633 11.596445083618164"></path>
<path fill="none" stroke="black" stroke-width=".3" stroke-opacity="1.0"  filling="0" d="M15.449617385864258 11.596445083618164 L16.169946670532227 11.593963623046875 C16.185701370239258 11.606472969055176 16.201454162597656 11.61898136138916 16.217208862304688 11.631490707397461 L16.21980094909668 12.452345848083496 C16.204118728637695 12.464799880981445 16.18843650817871 12.477254867553711 16.172754287719727 12.48970890045166 L15.452535629272461 12.492355346679688 C15.436772346496582 12.479909896850586 15.421009063720703 12.467463493347168 15.405245780944824 12.455018043518066 L15.402408599853516 11.633999824523926 C15.418145179748535 11.621481895446777 15.433880805969238 11.608963012695312 15.449617385864258 11.596445083618164 L15.449617385864258 11.596445083618164"></path>
<path fill="none" stroke="black" stroke-width=".3" stroke-opacity="1.0"  filling="0" d="M9.457254409790039 12.227619171142578 L8.736818313598633 12.23009967803955 C8.72104549407959 12.22130012512207 8.705272674560547 12.212499618530273 8.689499855041504 12.203700065612793 L8.6875638961792 11.62300968170166 C8.703290939331055 11.614154815673828 8.719018936157227 11.605299949645996 8.734745979309082 11.596445083618164 L9.455126762390137 11.593963623046875 C9.470871925354004 11.602763175964355 9.486618041992188 11.611563682556152 9.502363204956055 11.620363235473633 L9.50424575805664 12.201027870178223 C9.488581657409668 12.209891319274902 9.472918510437012 12.218755722045898 9.457254409790039 12.227619171142578 L9.457254409790039 12.227619171142578"></path>
<path fill="none" stroke="black" stroke-width=".3" stroke-opacity="1.0"  filling="0" d="M10.576391220092773 12.227619171142578 L9.856118202209473 12.23009967803955 C9.84034538269043 12.22130012512207 9.824572563171387 12.212499618530273 9.808799743652344 12.203700065612793 L9.806890487670898 11.62300968170166 C9.822599411010742 11.614154815673828 9.838309288024902 11.605299949645996 9.854018211364746 11.596445083618164 L10.57429027557373 11.593963623046875 C10.590044975280762 11.602763175964355 10.60580062866211 11.611563682556152 10.62155532836914 11.620363235473633 L10.62354564666748 12.201027870178223 C10.607827186584473 12.209891319274902 10.592109680175781 12.218755722045898 10.576391220092773 12.227619171142578 L10.576391220092773 12.227619171142578"></path>
<path fill="none" stroke="black" stroke-width=".3" stroke-opacity="1.0"  filling="0" d="M15.053291320800781 12.227619171142578 L14.332963943481445 12.23009967803955 C14.317145347595215 12.22130012512207 14.3013277053833 12.212499618530273 14.28550910949707 12.203700065612793 L14.283655166625977 11.62300968170166 C14.299337387084961 11.614154815673828 14.315018653869629 11.605299949645996 14.330700874328613 11.596445083618164 L15.051109313964844 11.593963623046875 C15.066890716552734 11.602763175964355 15.082673072814941 11.611563682556152 15.098454475402832 11.620363235473633 L15.100309371948242 12.201027870178223 C15.084636688232422 12.209891319274902 15.068964004516602 12.218755722045898 15.053291320800781 12.227619171142578 L15.053291320800781 12.227619171142578"></path>
<path fill="none" stroke="black" stroke-width=".3" stroke-opacity="1.0"  filling="0" d="M10.973017692565918 12.557700157165527 L11.693399429321289 12.555217742919922 C11.709172248840332 12.564072608947754 11.724946022033691 12.57292652130127 11.740718841552734 12.581781387329102 L11.742572784423828 13.162309646606445 C11.72685432434082 13.171218872070312 11.711135864257812 13.180127143859863 11.695417404174805 13.18903636932373 L10.975200653076172 13.191327095031738 C10.959400177001953 13.182526588439941 10.94360065460205 13.173727035522461 10.927800178527832 13.164926528930664 L10.925945281982422 12.584426879882812 C10.941636085510254 12.575517654418945 10.957326889038086 12.566609382629395 10.973017692565918 12.557700157165527 L10.973017692565918 12.557700157165527"></path>
<path fill="none" stroke="black" stroke-width=".3" stroke-opacity="1.0"  filling="0" d="M12.092073440551758 12.557700157165527 L12.812617301940918 12.555217742919922 C12.828326225280762 12.564072608947754 12.844036102294922 12.57292652130127 12.859745025634766 12.581781387329102 L12.861681938171387 13.162309646606445 C12.845973014831543 13.171218872070312 12.830263137817383 13.180127143859863 12.814554214477539 13.18903636932373 L12.09433650970459 13.191327095031738 C12.078499794006348 13.182526588439941 12.062664031982422 13.173727035522461 12.04682731628418 13.164926528930664 L12.045027732849121 12.584426879882812 C12.060709953308105 12.575517654418945 12.076391220092773 12.566609382629395 12.092073440551758 12.557700157165527 L12.092073440551758 12.557700157165527"></path>
<path fill="none" stroke="black" stroke-width=".3" stroke-opacity="1.0"  filling="0" d="M13.211344718933105 12.557700157165527 L13.931673049926758 12.555217742919922 C13.947427749633789 12.564072608947754 13.963181495666504 12.57292652130127 13.978936195373535 12.581781387329102 L13.980873107910156 13.162309646606445 C13.96517276763916 13.171218872070312 13.949472427368164 13.180127143859863 13.933772087097168 13.18903636932373 L13.213445663452148 13.191327095031738 C13.197654724121094 13.182526588439941 13.181864738464355 13.173727035522461 13.1660737991333 13.164926528930664 L13.164135932922363 12.584426879882812 C13.179872512817383 12.575517654418945 13.195608139038086 12.566609382629395 13.211344718933105 12.557700157165527 L13.211344718933105 12.557700157165527"></path>
<path fill="none" stroke="black" stroke-width=".3" stroke-opacity="1.0"  filling="0" d="M9.457254409790039 13.189064025878906 L8.736818313598633 13.191354751586914 C8.72104549407959 13.182554244995117 8.705272674560547 13.173754692077637 8.689499855041504 13.16495418548584 L8.6875638961792 12.584454536437988 C8.703290939331055 12.575545310974121 8.719018936157227 12.56663703918457 8.734745979309082 12.557727813720703 L9.455126762390137 12.555245399475098 C9.470871925354004 12.56410026550293 9.486618041992188 12.572954177856445 9.502363204956055 12.581809043884277 L9.50424575805664 13.162336349487305 C9.488581657409668 13.171245574951172 9.472918510437012 13.180154800415039 9.457254409790039 13.189064025878906 L9.457254409790039 13.189064025878906"></path>
<path fill="none" stroke="black" stroke-width=".3" stroke-opacity="1.0"  filling="0" d="M10.576281547546387 13.189064025878906 L9.856008529663086 13.191354751586914 C9.840235710144043 13.182554244995117 9.824463844299316 13.173754692077637 9.808691024780273 13.16495418548584 L9.806755065917969 12.584454536437988 C9.822463989257812 12.575545310974121 9.838172912597656 12.56663703918457 9.8538818359375 12.557727813720703 L10.57429027557373 12.555245399475098 C10.590036392211914 12.56410026550293 10.605781555175781 12.572954177856445 10.621527671813965 12.581809043884277 L10.62346363067627 13.162336349487305 C10.607736587524414 13.171245574951172 10.592008590698242 13.180154800415039 10.576281547546387 13.189064025878906 L10.576281547546387 13.189064025878906"></path>
<path fill="none" stroke="black" stroke-width=".3" stroke-opacity="1.0"  filling="0" d="M15.053018569946289 13.189064025878906 L14.332608222961426 13.191354751586914 C14.316790580749512 13.182554244995117 14.300971984863281 13.173754692077637 14.285154342651367 13.16495418548584 L14.283300399780273 12.584454536437988 C14.298973083496094 12.575545310974121 14.314645767211914 12.56663703918457 14.330318450927734 12.557727813720703 L15.050753593444824 12.555245399475098 C15.066572189331055 12.56410026550293 15.082390785217285 12.572954177856445 15.098209381103516 12.581809043884277 L15.10003662109375 13.162336349487305 C15.08436393737793 13.171245574951172 15.06869125366211 13.180154800415039 15.053018569946289 13.189064025878906 L15.053018569946289 13.189064025878906"></path>
<path fill="none" stroke="black" stroke-width=".3" stroke-opacity="1.0"  filling="0" d="M10.934426307678223 13.543745040893555 L11.654836654663086 13.541263580322266 C11.670591354370117 13.550063133239746 11.686345100402832 13.558863639831543 11.702099800109863 13.567663192749023 L11.704009056091309 14.148355484008789 C11.6882905960083 14.157210350036621 11.67257308959961 14.166064262390137 11.656854629516602 14.174919128417969 L10.936553955078125 14.177236557006836 C10.920781135559082 14.168490409851074 10.905009269714355 14.159745216369629 10.889236450195312 14.150999069213867 L10.887272834777832 13.57030963897705 C10.902990341186523 13.561454772949219 10.918708801269531 13.552599906921387 10.934426307678223 13.543745040893555 L10.934426307678223 13.543745040893555"></path>
<path fill="none" stroke="black" stroke-width=".3" stroke-opacity="1.0"  filling="0" d="M12.053482055664062 13.543745040893555 L12.774027824401855 13.541263580322266 C12.789754867553711 13.550063133239746 12.805481910705566 13.558863639831543 12.821208953857422 13.567663192749023 L12.823226928710938 14.148355484008789 C12.807472229003906 14.157210350036621 12.791718482971191 14.166064262390137 12.77596378326416 14.174919128417969 L12.05577278137207 14.177236557006836 C12.03995418548584 14.168490409851074 12.024136543273926 14.159745216369629 12.008317947387695 14.150999069213867 L12.006464004516602 13.57030963897705 C12.022136688232422 13.561454772949219 12.037809371948242 13.552599906921387 12.053482055664062 13.543745040893555 L12.053482055664062 13.543745040893555"></path>
<path fill="none" stroke="black" stroke-width=".3" stroke-opacity="1.0"  filling="0" d="M13.172836303710938 13.543745040893555 L13.893054008483887 13.541263580322266 C13.908817291259766 13.550063133239746 13.924581527709961 13.558863639831543 13.94034481048584 13.567663192749023 L13.942282676696777 14.148355484008789 C13.926573753356934 14.157210350036621 13.910863876342773 14.166064262390137 13.89515495300293 14.174919128417969 L13.174936294555664 14.177236557006836 C13.15911865234375 14.168490409851074 13.14330005645752 14.159745216369629 13.127482414245605 14.150999069213867 L13.125518798828125 13.57030963897705 C13.141291618347168 13.561454772949219 13.157063484191895 13.552599906921387 13.172836303710938 13.543745040893555 L13.172836303710938 13.543745040893555"></path>
<path fill="none" stroke="black" stroke-width=".3" stroke-opacity="1.0"  filling="0" d="M16.1744441986084 14.169791221618652 L15.454146385192871 14.172272682189941 C15.438382148742676 14.154327392578125 15.422618865966797 14.136381149291992 15.406854629516602 14.118435859680176 L15.402791023254395 12.93632698059082 C15.418499946594238 12.918327331542969 15.434208869934082 12.9003267288208 15.449917793273926 12.88232707977295 L16.170135498046875 12.87984561920166 C16.18592643737793 12.897790908813477 16.201717376708984 12.915736198425293 16.21750831604004 12.93368148803711 L16.22149085998535 14.115791320800781 C16.205808639526367 14.133790969848633 16.190126419067383 14.1517915725708 16.1744441986084 14.169791221618652 L16.1744441986084 14.169791221618652"></path>
<path fill="none" stroke="black" stroke-width=".3" stroke-opacity="1.0"  filling="0" d="M9.4186372756958 14.174919128417969 L8.698226928710938 14.177236557006836 C8.682472229003906 14.168490409851074 8.666718482971191 14.159745216369629 8.65096378326416 14.150999069213867 L8.64900016784668 13.57030963897705 C8.664727210998535 13.561454772949219 8.680455207824707 13.552599906921387 8.696182250976562 13.543745040893555 L9.416481971740723 13.541263580322266 C9.432272911071777 13.550063133239746 9.448062896728516 13.558863639831543 9.46385383605957 13.567663192749023 L9.465736389160156 14.148355484008789 C9.450037002563477 14.157210350036621 9.43433666229248 14.166064262390137 9.4186372756958 14.174919128417969 L9.4186372756958 14.174919128417969"></path>
<path fill="none" stroke="black" stroke-width=".3" stroke-opacity="1.0"  filling="0" d="M10.537773132324219 14.174919128417969 L9.817500114440918 14.177236557006836 C9.801709175109863 14.168490409851074 9.785918235778809 14.159745216369629 9.770127296447754 14.150999069213867 L9.76819133758545 13.57030963897705 C9.783909797668457 13.561454772949219 9.799627304077148 13.552599906921387 9.815345764160156 13.543745040893555 L10.535646438598633 13.541263580322266 C10.551409721374512 13.550063133239746 10.56717300415039 13.558863639831543 10.58293628692627 13.567663192749023 L10.584872245788574 14.148355484008789 C10.569172859191895 14.157210350036621 10.553472518920898 14.166064262390137 10.537773132324219 14.174919128417969 L10.537773132324219 14.174919128417969"></path>
<path fill="none" stroke="black" stroke-width=".3" stroke-opacity="1.0"  filling="0" d="M15.014400482177734 14.174919128417969 L14.294099807739258 14.177236557006836 C14.278282165527344 14.168490409851074 14.262463569641113 14.159745216369629 14.2466459274292 14.150999069213867 L14.244791030883789 13.57030963897705 C14.260491371154785 13.561454772949219 14.276190757751465 13.552599906921387 14.291891098022461 13.543745040893555 L15.012327194213867 13.541263580322266 C15.028081893920898 13.550063133239746 15.04383659362793 13.558863639831543 15.059591293334961 13.567663192749023 L15.061527252197266 14.148355484008789 C15.045818328857422 14.157210350036621 15.030109405517578 14.166064262390137 15.014400482177734 14.174919128417969 L15.014400482177734 14.174919128417969"></path>
<path fill="none" stroke="black" stroke-width=".3" stroke-opacity="1.0"  filling="0" d="M14.278691291809082 15.23375415802002 L10.970263481140137 15.244908332824707 C10.897909164428711 15.23522663116455 10.825554847717285 15.225544929504395 10.75320053100586 15.215863227844238 L10.751045227050781 14.56470012664795 C10.823290824890137 14.554609298706055 10.895536422729492 14.54451847076416 10.967782020568848 14.534427642822266 L14.276208877563477 14.523463249206543 C14.348554611206055 14.533136367797852 14.420900344848633 14.542808532714844 14.493246078491211 14.552481651306152 L14.495454788208008 15.203481674194336 C14.423200607299805 15.21357250213623 14.350945472717285 15.223663330078125 14.278691291809082 15.23375415802002 L14.278691291809082 15.23375415802002"></path></svg>