<svg xmlns="http://www.w3.org/2000/svg" viewBox="0.0 0.0 24.0 24.0" height="200px" width="200px"><path fill="none" stroke="black" stroke-width=".3" stroke-opacity="1.0"  filling="0" d="M21.298152923583984 5.6528401374816895 L21.298152923583984 5.6528401374816895 C21.438047409057617 5.792664051055908 21.577943801879883 5.932488441467285 21.717838287353516 6.072312355041504 L21.717838287353516 12.000106811523438 L21.717838287353516 17.927902221679688 C21.578014373779297 18.06772804260254 21.438190460205078 18.207551956176758 21.29836654663086 18.34737777709961 L15.099527359008789 18.34737777709961 L8.900688171386719 18.34737777709961 L2.701848030090332 18.34737777709961 C2.5620241165161133 18.207551956176758 2.4222002029418945 18.06772804260254 2.282376289367676 17.927902221679688 L2.282376289367676 12.000106811523438 L2.282376289367676 6.072312355041504 C2.4222002029418945 5.932488441467285 2.5620241165161133 5.792664051055908 2.701848030090332 5.6528401374816895 L8.900616645812988 5.6528401374816895 L15.099384307861328 5.6528401374816895 L21.298152923583984 5.6528401374816895"></path>
<path fill="none" stroke="black" stroke-width=".3" stroke-opacity="1.0"  filling="0" d="M4.572192668914795 16.25649642944336 L4.572192668914795 16.25649642944336 C4.585800647735596 16.113431930541992 4.599408149719238 15.970368385314941 4.613016128540039 15.827303886413574 L9.247296333312988 12.0 L4.613232612609863 8.172696113586426 C4.593886375427246 7.970373153686523 4.799061298370361 7.721810817718506 5.001384258270264 7.702464580535889 L8.524776458740234 10.61241626739502 L12.048168182373047 13.522367477416992 L15.522635459899902 10.613171577453613 L18.997102737426758 7.703976154327393 C19.199527740478516 7.721897125244141 19.406417846679688 7.968975067138672 19.38849639892578 8.17140007019043 L14.815991401672363 12.0 L19.388710021972656 15.828815460205078 C19.42504119873047 16.239173889160156 19.443241119384766 16.4582462310791 18.997102737426758 16.296239852905273 L14.341008186340332 12.397656440734863 L12.245160102844238 14.152655601501465 C12.123003959655762 14.197014808654785 11.977585792541504 14.197895050048828 11.855279922485352 14.153951644897461 L9.726168632507324 12.395496368408203 L5.001384258270264 16.297534942626953 C4.86614990234375 16.34617805480957 4.702205657958984 16.31774139404297 4.572192668914795 16.25649642944336 L4.572192668914795 16.25649642944336"></path>
<path fill="none" stroke="black" stroke-width=".3" stroke-opacity="1.0"  filling="0" d="M20.878894805908203 17.50843048095703 L14.95963191986084 17.50843048095703 L9.040369033813477 17.50843048095703 L3.121105194091797 17.50843048095703 L3.121105194091797 11.999999046325684 L3.121105194091797 6.491568088531494 L9.040369033813477 6.491568088531494 L14.95963191986084 6.491568088531494 L20.878894805908203 6.491568088531494 L20.878894805908203 11.999999046325684 L20.878894805908203 17.50843048095703"></path></svg>