<svg xmlns="http://www.w3.org/2000/svg" viewBox="0.0 0.0 24.0 24.0" height="200px" width="200px"><path fill="none" stroke="black" stroke-width=".3" stroke-opacity="1.0"  filling="0" d="M9.539976119995117 4.697473049163818 L9.539976119995117 4.697473049163818 C9.374410629272461 4.579049587249756 8.214693069458008 4.144809722900391 8.423256874084473 3.8462162017822266 C8.741316795349121 3.3908615112304688 9.945913314819336 2.653125524520874 10.430328369140625 2.512632369995117 C10.69562816619873 2.4356884956359863 10.974682807922363 2.765169620513916 11.240111351013184 2.6886720657348633 C11.531295776367188 2.6047515869140625 11.691381454467773 2.168532133102417 11.99416732788086 2.1808557510375977 C12.320634841918945 2.194143056869507 12.469578742980957 2.672670364379883 12.784080505371094 2.7612485885620117 C13.089298248291016 2.847212076187134 13.394292831420898 2.437256336212158 13.702296257019043 2.512632369995117 C14.100388526916504 2.610055446624756 15.527481079101562 3.4278061389923096 15.773303985595703 3.8462162017822266 C15.866537094116211 4.004905700683594 15.768030166625977 5.096412181854248 15.800520896911621 5.325384616851807 L15.800520896911621 5.325384616851807 C15.648168563842773 5.37816047668457 15.49581527709961 5.430936336517334 15.343462944030762 5.483712196350098 L15.343462944030762 5.483712196350098 C14.834829330444336 3.698803424835205 14.581417083740234 6.089170932769775 13.613951683044434 6.2747039794921875 C13.44387149810791 6.307320594787598 13.084991455078125 5.9807562828063965 12.862704277038574 6.017880439758301 C12.576457977294922 6.065686225891113 12.37725830078125 6.457047939300537 12.089639663696289 6.418344020843506 C11.718549728393555 6.368407726287842 11.594558715820312 5.775634765625 11.228447914123535 5.697120189666748 C10.3029203414917 5.498635292053223 9.341043472290039 5.488358974456787 8.422823905944824 5.258423805236816 L8.422823905944824 5.258423805236816 C8.43320369720459 5.185263633728027 8.443624496459961 5.1121087074279785 8.454143524169922 5.038968563079834 L8.454143524169922 5.038968563079834 C8.825279235839844 5.117831230163574 9.319642066955566 5.006364822387695 9.539976119995117 4.697473049163818 L9.539976119995117 4.697473049163818"></path>
<path fill="none" stroke="black" stroke-width=".3" stroke-opacity="1.0"  filling="0" d="M14.948616027832031 8.637527465820312 L14.948616027832031 8.637527465820312 C13.645957946777344 9.940185546875 14.176767349243164 8.004362106323242 14.439287185668945 7.330296516418457 L14.439287185668945 7.330296516418457 C14.609063148498535 7.766040325164795 14.778840065002441 8.201784133911133 14.948616027832031 8.637527465820312 L14.948616027832031 8.637527465820312"></path>
<path fill="none" stroke="black" stroke-width=".3" stroke-opacity="1.0"  filling="0" d="M12.995975494384766 13.740096092224121 L12.995975494384766 13.740096092224121 C11.85922908782959 14.562981605529785 10.583747863769531 13.343600273132324 9.900336265563965 12.566160202026367 C8.309236526489258 10.756145477294922 8.05416202545166 8.336880683898926 8.32022476196289 6.033432483673096 L8.32022476196289 6.033432483673096 C9.196188926696777 6.231740474700928 10.088811874389648 6.3579888343811035 10.982207298278809 6.450096607208252 L10.982207298278809 6.450096607208252 C11.546473503112793 6.834178447723389 12.35043716430664 7.083300590515137 12.991007804870605 6.847536087036133 L12.991007804870605 6.847536087036133 C13.684779167175293 7.047785758972168 14.429403305053711 6.6017889976501465 15.08901596069336 6.307968616485596 L15.08901596069336 6.307968616485596 C15.360095977783203 6.243816375732422 15.631175994873047 6.179664134979248 15.90225601196289 6.115511894226074 L15.90225601196289 6.115511894226074 C16.08354949951172 7.685100555419922 15.960979461669922 9.085054397583008 15.491086959838867 10.345706939697266 C15.021194458007812 11.606359481811523 14.203977584838867 12.72771167755127 12.995975494384766 13.740096092224121 L12.995975494384766 13.740096092224121"></path>
<path fill="none" stroke="black" stroke-width=".3" stroke-opacity="1.0"  filling="0" d="M13.713959693908691 14.13688850402832 L13.713959693908691 14.13688850402832 C13.66269588470459 14.179800033569336 13.611431121826172 14.222712516784668 13.56016731262207 14.265624046325684 L13.199231147766113 19.97688102722168 C15.459772109985352 20.474546432495117 16.548864364624023 21.880598068237305 13.509880065917969 22.403358459472656 C12.23109245300293 22.623332977294922 10.244290351867676 22.668149948120117 9.068023681640625 22.004608154296875 C7.901731967926025 21.34669303894043 8.438285827636719 20.759777069091797 9.454440116882324 20.27021026611328 C9.929886817932129 20.041147232055664 10.489080429077148 20.0614070892334 11.006400108337402 19.957006454467773 L10.64632797241211 14.260224342346191 C9.054283142089844 12.923369407653809 8.199742317199707 11.423543930053711 7.811193466186523 9.774161338806152 C7.422645568847656 8.124778747558594 7.500089645385742 6.325838088989258 7.772016525268555 4.390752792358398 L7.772016525268555 4.390752792358398 C7.530122756958008 3.233607769012451 7.989471435546875 2.9197232723236084 8.988311767578125 2.4858484268188477 L8.988311767578125 2.4858484268188477 C9.61679744720459 2.164168357849121 10.31046199798584 1.7277458906173706 11.006832122802734 1.8441123962402344 L11.006832122802734 1.8441123962402344 C11.621866226196289 1.5773742198944092 12.408053398132324 1.6056184768676758 13.017576217651367 1.8847198486328125 L13.017576217651367 1.8847198486328125 C13.740097999572754 1.7403985261917114 14.488651275634766 2.1505837440490723 15.144527435302734 2.486281394958496 L15.144527435302734 2.486281394958496 C16.281574249267578 2.463789463043213 16.610885620117188 3.478161573410034 16.43707275390625 4.3609442710876465 L16.43707275390625 4.3609442710876465 C16.70730972290039 6.285137176513672 16.785905838012695 8.041337966918945 16.41725730895996 9.660383224487305 C16.048606872558594 11.279428482055664 15.232711791992188 12.76131820678711 13.713959693908691 14.13688850402832 L13.713959693908691 14.13688850402832"></path>
<path fill="none" stroke="black" stroke-width=".3" stroke-opacity="1.0"  filling="0" d="M14.816424369812012 21.21455955505371 L14.816424369812012 21.21455955505371 C12.940380096435547 21.893238067626953 11.094969749450684 21.894508361816406 9.219648361206055 21.212398529052734 L9.219648361206055 21.212398529052734 C9.831805229187012 20.956558227539062 10.49307632446289 20.82944107055664 11.145936965942383 20.711278915405273 L11.145936965942383 21.312406539916992 C11.358048439025879 21.14104652404785 11.570160865783691 20.969688415527344 11.782272338867188 20.798328399658203 L11.439264297485352 14.679047584533691 C11.878156661987305 14.736252784729004 12.327553749084473 14.744660377502441 12.76701545715332 14.692008018493652 L12.424872398376465 20.798328399658203 C12.636983871459961 20.969688415527344 12.849095344543457 21.14104652404785 13.061206817626953 21.312406539916992 L13.061206817626953 20.73050308227539 C13.646279335021973 20.891855239868164 14.231351852416992 21.053207397460938 14.816424369812012 21.21455955505371 L14.816424369812012 21.21455955505371"></path></svg>