<svg xmlns="http://www.w3.org/2000/svg" viewBox="0.0 0.0 24.0 24.0" height="200px" width="200px"><path fill="none" stroke="black" stroke-width=".3" stroke-opacity="1.0"  filling="0" d="M12.909143447875977 2.386056900024414 L12.909143447875977 2.386056900024414 C13.051919937133789 2.3959929943084717 13.194695472717285 2.40592885017395 13.337471961975098 2.415864944458008 L14.495664596557617 3.7505273818969727 C14.481626510620117 3.9523496627807617 14.239328384399414 4.162965297698975 14.037528038024902 4.148616313934326 L12.878472328186035 2.8139524459838867 C12.88869571685791 2.671320676803589 12.898920059204102 2.528688669204712 12.909143447875977 2.386056900024414 L12.909143447875977 2.386056900024414"></path>
<path fill="none" stroke="black" stroke-width=".3" stroke-opacity="1.0"  filling="0" d="M11.121312141418457 2.8141679763793945 L9.963120460510254 4.14883279800415 C9.761157035827637 4.1631927490234375 9.518689155578613 3.9527077674865723 9.504335403442383 3.750743865966797 L10.662528038024902 2.4160804748535156 C10.864513397216797 2.402045249938965 11.107240676879883 2.612185001373291 11.121312141418457 2.8141679763793945 L11.121312141418457 2.8141679763793945"></path>
<path fill="none" stroke="black" stroke-width=".3" stroke-opacity="1.0"  filling="0" d="M11.999351501464844 4.38254451751709 L11.999351501464844 4.38254451751709 C11.898191452026367 4.294272422790527 11.79703140258789 4.206000804901123 11.695871353149414 4.1177287101745605 L11.695871353149414 2.576568603515625 C11.84842300415039 2.4433436393737793 12.150787353515625 2.443505048751831 12.30348014831543 2.576568603515625 L12.30348014831543 4.117944240570068 C12.202103614807129 4.206144332885742 12.100728034973145 4.294344425201416 11.999351501464844 4.38254451751709 L11.999351501464844 4.38254451751709"></path>
<path fill="none" stroke="black" stroke-width=".3" stroke-opacity="1.0"  filling="0" d="M12.959471702575684 7.674816131591797 L12.959471702575684 7.674816131591797 C15.309972763061523 8.281990051269531 17.249656677246094 9.230673789978027 18.441680908203125 11.486288070678711 C19.701379776000977 13.869959831237793 19.441608428955078 16.545351028442383 18.19158935546875 18.62482452392578 C16.941570281982422 20.704299926757812 14.701299667358398 22.187854766845703 12.0 22.187854766845703 C9.298620223999023 22.187854766845703 7.058394432067871 20.70428466796875 5.808403491973877 18.624784469604492 C4.558412551879883 16.545284271240234 4.298655986785889 13.869855880737305 5.558215618133545 11.486136436462402 C6.75014066696167 9.230415344238281 8.689779281616211 8.281763076782227 11.040311813354492 7.674600124359131 L7.483871936798096 4.435032844543457 L9.749496459960938 1.8119287490844727 L14.25071907043457 1.8119287490844727 L16.515911102294922 4.435032844543457 L12.959471702575684 7.674816131591797"></path>
<path fill="none" stroke="black" stroke-width=".3" stroke-opacity="1.0"  filling="0" d="M12.0 20.365680694580078 L12.0 20.365680694580078 C10.184267044067383 20.072860717773438 8.742499351501465 19.70920181274414 7.587944507598877 18.12763786315918 C6.293468475341797 16.354400634765625 6.298266887664795 14.180540084838867 7.1757917404174805 12.449987411499023 C8.053317070007324 10.71943473815918 9.803568840026855 9.432191848754883 12.0 9.432191848754883 C14.196431159973145 9.432191848754883 15.94668197631836 10.71943473815918 16.824207305908203 12.449987411499023 C17.701732635498047 14.180540084838867 17.706531524658203 16.354400634765625 16.41205596923828 18.12763786315918 C15.257500648498535 19.709205627441406 13.815732955932617 20.072860717773438 12.0 20.365680694580078 L12.0 20.365680694580078"></path></svg>