<svg xmlns="http://www.w3.org/2000/svg" viewBox="0.0 0.0 24.0 24.0" height="200px" width="200px"><path fill="none" stroke="black" stroke-width=".3" stroke-opacity="1.0"  filling="0" d="M5.8554487228393555 2.4854164123535156 L5.8554487228393555 2.4854164123535156 C7.189334392547607 3.4757792949676514 4.8598952293396 3.8133296966552734 5.8554487228393555 2.4854164123535156 L5.8554487228393555 2.4854164123535156"></path>
<path fill="none" stroke="black" stroke-width=".3" stroke-opacity="1.0"  filling="0" d="M8.2061767578125 3.6323766708374023 L8.2061767578125 3.6323766708374023 C7.156561851501465 5.0320305824279785 6.804831504821777 2.585178852081299 8.2061767578125 3.6323766708374023 L8.2061767578125 3.6323766708374023"></path>
<path fill="none" stroke="black" stroke-width=".3" stroke-opacity="1.0"  filling="0" d="M4.631808280944824 3.805392265319824 L4.631808280944824 3.805392265319824 C5.739221572875977 2.5880489349365234 5.8527984619140625 4.898393154144287 4.631808280944824 3.805392265319824 L4.631808280944824 3.805392265319824"></path>
<path fill="none" stroke="black" stroke-width=".3" stroke-opacity="1.0"  filling="0" d="M1.8806171417236328 4.27994441986084 L2.253864288330078 3.019369125366211 L1.650792121887207 2.4111127853393555 L2.8668737411499023 1.2000007629394531 L3.4725379943847656 1.803288459777832 L4.792513370513916 1.3038969039916992 L5.395800590515137 1.906968116760254 L2.4836883544921875 4.883232593536377 L1.8806171417236328 4.27994441986084"></path>
<path fill="none" stroke="black" stroke-width=".3" stroke-opacity="1.0"  filling="0" d="M9.990983963012695 4.354249000549316 L9.990983963012695 4.354249000549316 C8.891019821166992 5.832566261291504 8.51272201538086 3.259916305541992 9.990983963012695 4.354249000549316 L9.990983963012695 4.354249000549316"></path>
<path fill="none" stroke="black" stroke-width=".3" stroke-opacity="1.0"  filling="0" d="M3.830881118774414 4.556856632232666 L3.830881118774414 4.556856632232666 C5.0525970458984375 3.4515645503997803 4.9360551834106445 5.766749382019043 3.830881118774414 4.556856632232666 L3.830881118774414 4.556856632232666"></path>
<path fill="none" stroke="black" stroke-width=".3" stroke-opacity="1.0"  filling="0" d="M7.019689083099365 4.784304141998291 L7.019689083099365 4.784304141998291 C5.820975303649902 6.093895435333252 5.707272529602051 3.582488536834717 7.019689083099365 4.784304141998291 L7.019689083099365 4.784304141998291"></path>
<path fill="none" stroke="black" stroke-width=".3" stroke-opacity="1.0"  filling="0" d="M11.773416519165039 5.080872058868408 L11.773416519165039 5.080872058868408 C10.622343063354492 6.62714958190918 10.22691535949707 3.930011034011841 11.773416519165039 5.080872058868408 L11.773416519165039 5.080872058868408"></path>
<path fill="none" stroke="black" stroke-width=".3" stroke-opacity="1.0"  filling="0" d="M3.0325450897216797 5.30832052230835 L3.0325450897216797 5.30832052230835 C4.365434169769287 4.319207191467285 4.022110462188721 6.635030269622803 3.0325450897216797 5.30832052230835 L3.0325450897216797 5.30832052230835"></path>
<path fill="none" stroke="black" stroke-width=".3" stroke-opacity="1.0"  filling="0" d="M13.558439254760742 5.807712554931641 L13.558439254760742 5.807712554931641 C12.353006362915039 7.426830768585205 11.9426851272583 4.599575519561768 13.558439254760742 5.807712554931641 L13.558439254760742 5.807712554931641"></path>
<path fill="none" stroke="black" stroke-width=".3" stroke-opacity="1.0"  filling="0" d="M8.418935775756836 5.812680244445801 L8.418935775756836 5.812680244445801 C7.131020545959473 7.217727184295654 7.009277820587158 4.519601821899414 8.418935775756836 5.812680244445801 L8.418935775756836 5.812680244445801"></path>
<path fill="none" stroke="black" stroke-width=".3" stroke-opacity="1.0"  filling="0" d="M5.329056739807129 6.465216159820557 L5.329056739807129 6.465216159820557 C4.153270244598389 5.1617817878723145 6.626833915710449 5.289486885070801 5.329056739807129 6.465216159820557 L5.329056739807129 6.465216159820557"></path>
<path fill="none" stroke="black" stroke-width=".3" stroke-opacity="1.0"  filling="0" d="M15.343032836914062 6.534552574157715 L15.343032836914062 6.534552574157715 C14.084428787231445 8.223716735839844 13.652153968811035 5.267662525177002 15.343032836914062 6.534552574157715 L15.343032836914062 6.534552574157715"></path>
<path fill="none" stroke="black" stroke-width=".3" stroke-opacity="1.0"  filling="0" d="M16.378751754760742 6.697632312774658 L16.378751754760742 6.697632312774658 C18.135475158691406 8.019222259521484 15.079527854919434 8.46169662475586 16.378751754760742 6.697632312774658 L16.378751754760742 6.697632312774658"></path>
<path fill="none" stroke="black" stroke-width=".3" stroke-opacity="1.0"  filling="0" d="M9.818184852600098 6.841055870056152 L9.818184852600098 6.841055870056152 C8.446460723876953 8.341859817504883 8.312224388122559 5.45188045501709 9.818184852600098 6.841055870056152 L9.818184852600098 6.841055870056152"></path>
<path fill="none" stroke="black" stroke-width=".3" stroke-opacity="1.0"  filling="0" d="M4.748016834259033 7.147560119628906 L4.748016834259033 7.147560119628906 C3.3294811248779297 8.205873489379883 3.6956539154052734 5.72882604598999 4.748016834259033 7.147560119628906 L4.748016834259033 7.147560119628906"></path>
<path fill="none" stroke="black" stroke-width=".3" stroke-opacity="1.0"  filling="0" d="M6.3548407554626465 7.854528427124023 L6.3548407554626465 7.854528427124023 C5.108823299407959 6.480297088623047 7.734731674194336 6.608452320098877 6.3548407554626465 7.854528427124023 L6.3548407554626465 7.854528427124023"></path>
<path fill="none" stroke="black" stroke-width=".3" stroke-opacity="1.0"  filling="0" d="M10.601615905761719 8.546591758728027 L10.601615905761719 8.546591758728027 C8.97789192199707 7.086669921875 12.062491416931152 6.939119338989258 10.601615905761719 8.546591758728027 L10.601615905761719 8.546591758728027"></path>
<path fill="none" stroke="black" stroke-width=".3" stroke-opacity="1.0"  filling="0" d="M5.477448463439941 8.843376159667969 L5.477448463439941 8.843376159667969 C3.9750876426696777 9.960739135742188 4.359562873840332 7.341501235961914 5.477448463439941 8.843376159667969 L5.477448463439941 8.843376159667969"></path>
<path fill="none" stroke="black" stroke-width=".3" stroke-opacity="1.0"  filling="0" d="M7.383216381072998 9.243840217590332 L7.383216381072998 9.243840217590332 C6.062634468078613 7.794571876525879 8.844422340393066 7.935288429260254 7.383216381072998 9.243840217590332 L7.383216381072998 9.243840217590332"></path>
<path fill="none" stroke="black" stroke-width=".3" stroke-opacity="1.0"  filling="0" d="M6.206448554992676 10.538976669311523 L6.206448554992676 10.538976669311523 C4.618466377258301 11.71369457244873 5.028136730194092 8.948280334472656 6.206448554992676 10.538976669311523 L6.206448554992676 10.538976669311523"></path>
<path fill="none" stroke="black" stroke-width=".3" stroke-opacity="1.0"  filling="0" d="M8.409000396728516 10.637904167175293 L8.409000396728516 10.637904167175293 C7.023637771606445 9.101495742797852 9.939752578735352 9.252601623535156 8.409000396728516 10.637904167175293 L8.409000396728516 10.637904167175293"></path>
<path fill="none" stroke="black" stroke-width=".3" stroke-opacity="1.0"  filling="0" d="M8.819400787353516 11.344871520996094 L8.819400787353516 11.344871520996094 C10.424731254577637 9.890975952148438 10.276514053344727 12.953760147094727 8.819400787353516 11.344871520996094 L8.819400787353516 11.344871520996094"></path>
<path fill="none" stroke="black" stroke-width=".3" stroke-opacity="1.0"  filling="0" d="M6.935664653778076 12.234792709350586 L6.935664653778076 12.234792709350586 C5.264071464538574 13.4697847366333 5.6920599937438965 10.561078071594238 6.935664653778076 12.234792709350586 L6.935664653778076 12.234792709350586"></path>
<path fill="none" stroke="black" stroke-width=".3" stroke-opacity="1.0"  filling="0" d="M13.110888481140137 13.144367218017578 L13.110888481140137 13.144367218017578 C12.524168968200684 12.90173625946045 11.79991340637207 12.865188598632812 11.350730895996094 12.416474342346191 C9.807459831237793 10.874810218811035 10.932626724243164 8.171034812927246 13.110888481140137 8.170968055725098 C15.289119720458984 8.17090129852295 16.410322189331055 10.875740051269531 14.869695663452148 12.416366577148438 C14.421031951904297 12.865030288696289 13.697157859802246 12.901700019836426 13.110888481140137 13.144367218017578 L13.110888481140137 13.144367218017578"></path>
<path fill="none" stroke="black" stroke-width=".3" stroke-opacity="1.0"  filling="0" d="M6.364776611328125 13.737719535827637 L6.364776611328125 13.737719535827637 C8.119340896606445 12.431474685668945 7.670467376708984 15.498339653015137 6.364776611328125 13.737719535827637 L6.364776611328125 13.737719535827637"></path>
<path fill="none" stroke="black" stroke-width=".3" stroke-opacity="1.0"  filling="0" d="M9.724224090576172 13.94011116027832 L9.724224090576172 13.94011116027832 C10.065360069274902 13.803455352783203 10.406496047973633 13.666799545288086 10.747632026672363 13.530143737792969 L15.652128219604492 13.530143737792969 L20.588592529296875 8.58115291595459 C21.083106994628906 8.54531478881836 21.721242904663086 8.1233491897583 22.07213592529297 8.473638534545898 C22.423721313476562 8.82461929321289 22.004274368286133 9.464898109436035 21.97034454345703 9.960527420043945 L19.26483726501465 12.674675941467285 L16.559329986572266 15.388824462890625 L16.561487197875977 22.799999237060547 L10.070257186889648 22.799999237060547 L10.070257186889648 19.200790405273438 L7.13632869720459 19.200790405273438 C6.665406703948975 18.729867935180664 6.0507049560546875 18.0303897857666 6.2686567306518555 17.401079177856445 L9.724224090576172 13.94011116027832"></path>
<path fill="none" stroke="black" stroke-width=".3" stroke-opacity="1.0"  filling="0" d="M10.767504692077637 19.190855026245117 L10.767504692077637 19.190855026245117 C11.179633140563965 18.83161163330078 12.003889083862305 18.65984535217285 12.003889083862305 18.113122940063477 C12.003889083862305 17.5664005279541 11.179633140563965 17.394634246826172 10.767504692077637 17.035390853881836 L10.767504692077637 17.035390853881836 C10.929000854492188 16.847543716430664 11.090496063232422 16.65969467163086 11.251992225646973 16.471847534179688 L12.401544570922852 16.471847534179688 C12.607464790344238 16.674455642700195 12.813384056091309 16.877063751220703 13.019304275512695 17.07967185974121 L13.019304275512695 19.195825576782227 C12.813384056091309 19.40015983581543 12.607464790344238 19.604496002197266 12.401544570922852 19.80883026123047 L11.251992225646973 19.80883026123047 C11.090496063232422 19.60283851623535 10.929000854492188 19.396846771240234 10.767504692077637 19.190855026245117 L10.767504692077637 19.190855026245117"></path></svg>