<svg xmlns="http://www.w3.org/2000/svg" viewBox="0.0 0.0 24.0 24.0" height="200px" width="200px"><path fill="none" stroke="black" stroke-width=".3" stroke-opacity="1.0"  filling="0" d="M18.275901794433594 8.151823997497559 L18.275901794433594 8.151823997497559 C18.55392837524414 8.339119911193848 19.080503463745117 8.379782676696777 19.1099796295166 8.713712692260742 C19.139541625976562 9.048620223999023 18.666475296020508 9.605511665344238 18.387636184692383 9.417667388916016 C18.036327362060547 9.18100357055664 18.313146591186523 8.573771476745605 18.275901794433594 8.151823997497559 L18.275901794433594 8.151823997497559"></path>
<path fill="none" stroke="black" stroke-width=".3" stroke-opacity="1.0"  filling="0" d="M9.340697288513184 8.486898422241211 L9.340697288513184 8.486898422241211 C9.390334129333496 8.486898422241211 9.439971923828125 8.486898422241211 9.489608764648438 8.486898422241211 L9.489608764648438 8.486898422241211 C9.588882446289062 8.797154426574707 9.688155174255371 9.10741138458252 9.787428855895996 9.417667388916016 L9.787428855895996 9.417667388916016 C9.501999855041504 9.467304229736328 9.216570854187012 9.51694107055664 8.93114185333252 9.566577911376953 L8.93114185333252 9.566577911376953 C8.893905639648438 9.641033172607422 8.856669425964355 9.71548843383789 8.819433212280273 9.78994369506836 L8.819433212280273 9.78994369506836 C8.720159530639648 9.591387748718262 8.620885848999023 9.392831802368164 8.521612167358398 9.194275856018066 L8.521612167358398 9.194275856018066 C8.47195816040039 9.082575798034668 8.422304153442383 8.97087574005127 8.372650146484375 8.859175682067871 L8.372650146484375 8.859175682067871 C8.612034797668457 8.745795249938965 9.231517791748047 8.632405281066895 9.340697288513184 8.486898422241211 L9.340697288513184 8.486898422241211"></path>
<path fill="none" stroke="black" stroke-width=".3" stroke-opacity="1.0"  filling="0" d="M9.228988647460938 8.635809898376465 L9.228988647460938 8.635809898376465 C9.266233444213867 8.586173057556152 9.303478240966797 8.536535263061523 9.340723037719727 8.486898422241211 L9.340723037719727 8.486898422241211 C9.390359878540039 8.486898422241211 9.439997673034668 8.486898422241211 9.48963451385498 8.486898422241211 L9.48963451385498 8.486898422241211 C9.588908195495605 8.797154426574707 9.68818187713623 9.10741138458252 9.787455558776855 9.417667388916016 L9.787455558776855 9.417667388916016 C9.502026557922363 9.467304229736328 9.216596603393555 9.51694107055664 8.931167602539062 9.566577911376953 L8.931167602539062 9.566577911376953 C8.89393138885498 9.641033172607422 8.856695175170898 9.71548843383789 8.819458961486816 9.78994369506836 L8.819458961486816 9.78994369506836 C8.720185279846191 9.591387748718262 8.620911598205566 9.392831802368164 8.521637916564941 9.194275856018066 L8.521637916564941 9.194275856018066 C8.471983909606934 9.082575798034668 8.422329902648926 8.97087574005127 8.372675895690918 8.859175682067871 L8.372675895690918 8.859175682067871 C8.639273643493652 8.732906341552734 8.992998123168945 8.458815574645996 9.228988647460938 8.635809898376465 L9.228988647460938 8.635809898376465"></path>
<path fill="none" stroke="black" stroke-width=".3" stroke-opacity="1.0"  filling="0" d="M9.48963451385498 8.82194709777832 L9.48963451385498 8.82194709777832 C9.427579879760742 8.846765518188477 9.365524291992188 8.871583938598633 9.30346965789795 8.896402359008789 L9.30346965789795 8.896402359008789 C9.315887451171875 8.970874786376953 9.3283052444458 9.045347213745117 9.340723037719727 9.119819641113281 L9.340723037719727 9.119819641113281 C9.415178298950195 9.119819641113281 9.48963451385498 9.119819641113281 9.56408977508545 9.119819641113281 L9.56408977508545 9.119819641113281 C9.464798927307129 9.243911743164062 9.365508079528809 9.36800479888916 9.266217231750488 9.492096900939941 L9.266217231750488 9.492096900939941 C9.092488288879395 9.45486068725586 8.918758392333984 9.417624473571777 8.74502944946289 9.380388259887695 L8.74502944946289 9.380388259887695 C8.782248497009277 9.318350791931152 8.819467544555664 9.25631332397461 8.85668659210205 9.194275856018066 L8.85668659210205 9.194275856018066 C8.794649124145508 9.16945743560791 8.732611656188965 9.144638061523438 8.670574188232422 9.119819641113281 L8.670574188232422 9.119819641113281 C8.707801818847656 9.020528793334961 8.74502944946289 8.92123794555664 8.782257080078125 8.82194709777832 L8.782257080078125 8.82194709777832 C8.918766975402832 8.772310256958008 9.055276870727539 8.722673416137695 9.191786766052246 8.673036575317383 L9.191786766052246 8.673036575317383 C9.191786766052246 8.747491836547852 9.191786766052246 8.82194709777832 9.191786766052246 8.896402359008789 L9.191786766052246 8.896402359008789 C9.291069030761719 8.871583938598633 9.390352249145508 8.846765518188477 9.48963451385498 8.82194709777832 L9.48963451385498 8.82194709777832"></path>
<path fill="none" stroke="black" stroke-width=".3" stroke-opacity="1.0"  filling="0" d="M9.191761016845703 8.896402359008789 L9.191761016845703 8.896402359008789 C9.291043281555176 8.871583938598633 9.390326499938965 8.846765518188477 9.489608764648438 8.82194709777832 L9.489608764648438 8.82194709777832 C9.4275541305542 8.846765518188477 9.365498542785645 8.871583938598633 9.303443908691406 8.896402359008789 L9.303443908691406 8.896402359008789 C9.315861701965332 8.970874786376953 9.328279495239258 9.045347213745117 9.340697288513184 9.119819641113281 L9.340697288513184 9.119819641113281 C9.415152549743652 9.119819641113281 9.489607810974121 9.119819641113281 9.56406307220459 9.119819641113281 L9.56406307220459 9.119819641113281 C9.46477222442627 9.243911743164062 9.36548137664795 9.36800479888916 9.266190528869629 9.492096900939941 L9.266190528869629 9.492096900939941 C9.092461585998535 9.45486068725586 8.918732643127441 9.417624473571777 8.745003700256348 9.380388259887695 L8.745003700256348 9.380388259887695 C8.782222747802734 9.318350791931152 8.819441795349121 9.25631332397461 8.856660842895508 9.194275856018066 L8.856660842895508 9.194275856018066 C8.794623374938965 9.16945743560791 8.732584953308105 9.144638061523438 8.670547485351562 9.119819641113281 L8.670547485351562 9.119819641113281 C8.707775115966797 9.020528793334961 8.745003700256348 8.92123794555664 8.782231330871582 8.82194709777832 L8.782231330871582 8.82194709777832 C8.918741226196289 8.772310256958008 9.055251121520996 8.722673416137695 9.191761016845703 8.673036575317383 L9.191761016845703 8.673036575317383 C9.191761016845703 8.747491836547852 9.191761016845703 8.82194709777832 9.191761016845703 8.896402359008789 L9.191761016845703 8.896402359008789"></path>
<path fill="none" stroke="black" stroke-width=".3" stroke-opacity="1.0"  filling="0" d="M7.404756546020508 9.008111953735352 L7.404756546020508 9.008111953735352 C7.528857231140137 9.355595588684082 7.652958393096924 9.703080177307129 7.777059078216553 10.05056381225586 L7.777059078216553 10.05056381225586 C7.181373596191406 9.889235496520996 6.58568811416626 9.727906227111816 5.990002632141113 9.566577911376953 L5.990002632141113 9.566577911376953 C6.461587429046631 9.380422592163086 6.93317174911499 9.194267272949219 7.404756546020508 9.008111953735352 L7.404756546020508 9.008111953735352"></path>
<path fill="none" stroke="black" stroke-width=".3" stroke-opacity="1.0"  filling="0" d="M18.387636184692383 9.417667388916016 L18.387636184692383 9.417667388916016 C18.6284122467041 9.183018684387207 19.139524459838867 9.048623085021973 19.109962463378906 8.713722229003906 C19.080486297607422 8.37979507446289 18.51597785949707 7.917857646942139 18.275901794433594 8.151823997497559 C17.972545623779297 8.447461128234863 18.350391387939453 8.995719909667969 18.387636184692383 9.417667388916016 L18.387636184692383 9.417667388916016"></path>
<path fill="none" stroke="black" stroke-width=".3" stroke-opacity="1.0"  filling="0" d="M8.484460830688477 10.869596481323242 L8.484460830688477 10.869596481323242 C8.120451927185059 10.100818634033203 8.26523208618164 8.849295616149902 7.4792375564575195 8.524126052856445 C6.911618232727051 8.289299964904785 6.263031005859375 8.697854995727539 5.654927730560303 8.784719467163086 L5.654927730560303 8.784719467163086 C5.903222560882568 8.384758949279785 6.010979652404785 7.850220680236816 6.399811744689941 7.584836483001709 C7.919906139373779 6.547347068786621 9.31316089630127 7.94569730758667 10.82988166809082 8.151823997497559 C12.591963768005371 8.39129638671875 14.708536148071289 8.04600715637207 16.488819122314453 7.965660095214844 C17.209983825683594 7.933112621307373 19.15276527404785 7.332485675811768 19.320491790771484 8.64615535736084 C19.49560546875 10.017685890197754 17.76703453063965 9.666194915771484 17.20333480834961 9.667826652526855 C15.681788444519043 9.672229766845703 14.101974487304688 9.40291690826416 12.602594375610352 9.417381286621094 C11.103214263916016 9.431844711303711 9.684268951416016 9.730085372924805 8.484460830688477 10.869596481323242 L8.484460830688477 10.869596481323242"></path>
<path fill="none" stroke="black" stroke-width=".3" stroke-opacity="1.0"  filling="0" d="M5.766636371612549 12.321578979492188 L5.766636371612549 12.321578979492188 C7.514622688293457 12.321578979492188 9.262608528137207 12.321578979492188 11.010594367980957 12.321578979492188 C12.758581161499023 12.321578979492188 14.506567001342773 12.321578979492188 16.254552841186523 12.321578979492188 C16.88433074951172 12.321578979492188 19.870189666748047 11.829707145690918 20.211868286132812 12.880044937133789 C20.27072525024414 13.060975074768066 20.179147720336914 16.508380889892578 20.174591064453125 16.71470069885254 L20.174591064453125 16.71470069885254 C19.851924896240234 16.727127075195312 19.529258728027344 16.739551544189453 19.206592559814453 16.751977920532227 L19.206592559814453 16.751977920532227 C19.129955291748047 15.599885940551758 18.179462432861328 15.333724021911621 17.307905197143555 15.932842254638672 L17.307905197143555 15.932842254638672 C16.90427017211914 17.817712783813477 16.95452308654785 15.15889835357666 15.518905639648438 15.592292785644531 C15.08945369720459 15.721939086914062 15.023865699768066 16.340547561645508 14.776346206665039 16.71467399597168 L14.776346206665039 16.71467399597168 C12.392036437988281 16.761764526367188 10.012466430664062 16.76277732849121 7.628173828125 16.71467399597168 L7.628173828125 16.71467399597168 C6.882797718048096 15.321219444274902 6.083095550537109 15.132393836975098 5.543270587921143 16.751953125 L5.543270587921143 16.751953125 C5.29508638381958 16.702316284179688 5.046902179718018 16.652677536010742 4.798717975616455 16.60304069519043 L4.798717975616455 16.60304069519043 C4.774226665496826 15.353873252868652 4.750581741333008 13.337398529052734 5.766636371612549 12.321578979492188 L5.766636371612549 12.321578979492188"></path>
<path fill="none" stroke="black" stroke-width=".3" stroke-opacity="1.0"  filling="0" d="M10.196985244750977 13.028929710388184 L10.196985244750977 13.028929710388184 C10.705798149108887 13.05374813079834 11.21461009979248 13.078566551208496 11.72342300415039 13.103384971618652 L11.72342300415039 13.103384971618652 C11.72342300415039 13.525341033935547 11.72342300415039 13.947298049926758 11.72342300415039 14.369254112243652 L11.72342300415039 14.369254112243652 C11.177374839782715 14.369254112243652 10.631325721740723 14.369254112243652 10.085277557373047 14.369254112243652 L10.085277557373047 14.369254112243652 C10.122513771057129 13.922479629516602 10.159749031066895 13.475704193115234 10.196985244750977 13.028929710388184 L10.196985244750977 13.028929710388184"></path>
<path fill="none" stroke="black" stroke-width=".3" stroke-opacity="1.0"  filling="0" d="M15.93030071258545 13.028929710388184 L15.93030071258545 13.028929710388184 C16.426713943481445 13.05374813079834 16.923126220703125 13.078566551208496 17.419538497924805 13.103384971618652 L17.419538497924805 13.103384971618652 C17.419538497924805 13.525341033935547 17.419538497924805 13.947298049926758 17.419538497924805 14.369254112243652 L17.419538497924805 14.369254112243652 C16.87348175048828 14.369254112243652 16.327423095703125 14.369254112243652 15.781365394592285 14.369254112243652 L15.781365394592285 14.369254112243652 C15.831010818481445 13.922479629516602 15.880655288696289 13.475704193115234 15.93030071258545 13.028929710388184 L15.93030071258545 13.028929710388184"></path>
<path fill="none" stroke="black" stroke-width=".3" stroke-opacity="1.0"  filling="0" d="M5.841092109680176 13.066106796264648 L5.841092109680176 13.066106796264648 C6.225811958312988 13.066106796264648 6.610532283782959 13.066106796264648 6.9952521324157715 13.066106796264648 L6.9952521324157715 13.066106796264648 C6.9952521324157715 13.500489234924316 6.9952521324157715 13.934871673583984 6.9952521324157715 14.369254112243652 L6.9952521324157715 14.369254112243652 C6.4492034912109375 14.356819152832031 5.903155326843262 14.344385147094727 5.357106685638428 14.331950187683105 L5.357106685638428 14.331950187683105 C5.518435001373291 13.910002708435059 5.6797637939453125 13.488054275512695 5.841092109680176 13.066106796264648 L5.841092109680176 13.066106796264648"></path>
<path fill="none" stroke="black" stroke-width=".3" stroke-opacity="1.0"  filling="0" d="M6.9952263832092285 13.066106796264648 L6.9952263832092285 13.066106796264648 C6.9952263832092285 13.500489234924316 6.9952263832092285 13.934871673583984 6.9952263832092285 14.369254112243652 L6.9952263832092285 14.369254112243652 C6.449178218841553 14.356819152832031 5.903129577636719 14.344385147094727 5.357081413269043 14.331950187683105 L5.357081413269043 14.331950187683105 C5.518409729003906 13.910002708435059 5.6797380447387695 13.488054275512695 5.841066360473633 13.066106796264648 L5.841066360473633 13.066106796264648 C6.225786209106445 13.066106796264648 6.610506534576416 13.066106796264648 6.9952263832092285 13.066106796264648 L6.9952263832092285 13.066106796264648"></path>
<path fill="none" stroke="black" stroke-width=".3" stroke-opacity="1.0"  filling="0" d="M8.186589241027832 13.066106796264648 L8.186589241027832 13.066106796264648 C8.74502944946289 13.103351593017578 9.30346965789795 13.140596389770508 9.861909866333008 13.177841186523438 L9.861909866333008 13.177841186523438 C9.837091445922852 13.574978828430176 9.812273979187012 13.972116470336914 9.787455558776855 14.369254112243652 L9.787455558776855 14.369254112243652 C9.241432189941406 14.369254112243652 8.695409774780273 14.369254112243652 8.149386405944824 14.369254112243652 L8.149386405944824 14.369254112243652 C8.149386405944824 13.934694290161133 7.992564678192139 13.454946517944336 8.186589241027832 13.066106796264648 L8.186589241027832 13.066106796264648"></path>
<path fill="none" stroke="black" stroke-width=".3" stroke-opacity="1.0"  filling="0" d="M11.983990669250488 13.066106796264648 L11.983990669250488 13.066106796264648 C12.517646789550781 13.066106796264648 13.05130386352539 13.066106796264648 13.584959983825684 13.066106796264648 L13.584959983825684 13.066106796264648 C13.57253360748291 13.512872695922852 13.56010627746582 13.959639549255371 13.547679901123047 14.406405448913574 L13.547679901123047 14.406405448913574 C13.026450157165527 14.394021987915039 12.505220413208008 14.381637573242188 11.983990669250488 14.369254112243652 L11.983990669250488 14.369254112243652 C11.983990669250488 13.934871673583984 11.983990669250488 13.500489234924316 11.983990669250488 13.066106796264648 L11.983990669250488 13.066106796264648"></path>
<path fill="none" stroke="black" stroke-width=".3" stroke-opacity="1.0"  filling="0" d="M13.58498477935791 13.066106796264648 L13.58498477935791 13.066106796264648 C13.572558403015137 13.512872695922852 13.56013298034668 13.959639549255371 13.547706604003906 14.406405448913574 L13.547706604003906 14.406405448913574 C13.02647590637207 14.394021987915039 12.50524616241455 14.381637573242188 11.984015464782715 14.369254112243652 L11.984015464782715 14.369254112243652 C11.984015464782715 13.934871673583984 11.984015464782715 13.500489234924316 11.984015464782715 13.066106796264648 L11.984015464782715 13.066106796264648 C12.517671585083008 13.066106796264648 13.051328659057617 13.066106796264648 13.58498477935791 13.066106796264648 L13.58498477935791 13.066106796264648"></path>
<path fill="none" stroke="black" stroke-width=".3" stroke-opacity="1.0"  filling="0" d="M19.318328857421875 13.066106796264648 L19.318328857421875 13.066106796264648 C19.293476104736328 13.525264739990234 19.26862335205078 13.98442268371582 19.243770599365234 14.443580627441406 L19.243770599365234 14.443580627441406 C18.722583770751953 14.418805122375488 18.20139503479004 14.39402961730957 17.680208206176758 14.369254112243652 L17.680208206176758 14.369254112243652 C17.680208206176758 13.947298049926758 17.680208206176758 13.525341033935547 17.680208206176758 13.103384971618652 L17.680208206176758 13.103384971618652 C18.226247787475586 13.090958595275879 18.772289276123047 13.078533172607422 19.318328857421875 13.066106796264648 L19.318328857421875 13.066106796264648"></path>
<path fill="none" stroke="black" stroke-width=".3" stroke-opacity="1.0"  filling="0" d="M11.72342300415039 13.103384971618652 L11.72342300415039 13.103384971618652 C11.72342300415039 13.525341033935547 11.72342300415039 13.947298049926758 11.72342300415039 14.369254112243652 L11.72342300415039 14.369254112243652 C11.177374839782715 14.369254112243652 10.631325721740723 14.369254112243652 10.085277557373047 14.369254112243652 L10.085277557373047 14.369254112243652 C10.122513771057129 13.922479629516602 10.159749031066895 13.475704193115234 10.196985244750977 13.028929710388184 L10.196985244750977 13.028929710388184 C10.705798149108887 13.05374813079834 11.21461009979248 13.078566551208496 11.72342300415039 13.103384971618652 L11.72342300415039 13.103384971618652"></path>
<path fill="none" stroke="black" stroke-width=".3" stroke-opacity="1.0"  filling="0" d="M13.882805824279785 13.103384971618652 L13.882805824279785 13.103384971618652 C14.42881965637207 13.103384971618652 14.974834442138672 13.103384971618652 15.520848274230957 13.103384971618652 L15.520848274230957 13.103384971618652 C15.520848274230957 13.525341033935547 15.520848274230957 13.947298049926758 15.520848274230957 14.369254112243652 L15.520848274230957 14.369254112243652 C14.974834442138672 14.369254112243652 14.42881965637207 14.369254112243652 13.882805824279785 14.369254112243652 L13.882805824279785 14.369254112243652 C13.882805824279785 13.947298049926758 13.882805824279785 13.525341033935547 13.882805824279785 13.103384971618652 L13.882805824279785 13.103384971618652"></path>
<path fill="none" stroke="black" stroke-width=".3" stroke-opacity="1.0"  filling="0" d="M15.520848274230957 13.103384971618652 L15.520848274230957 13.103384971618652 C15.520848274230957 13.525341033935547 15.520848274230957 13.947298049926758 15.520848274230957 14.369254112243652 L15.520848274230957 14.369254112243652 C14.974834442138672 14.369254112243652 14.42881965637207 14.369254112243652 13.882805824279785 14.369254112243652 L13.882805824279785 14.369254112243652 C13.882805824279785 13.947298049926758 13.882805824279785 13.525341033935547 13.882805824279785 13.103384971618652 L13.882805824279785 13.103384971618652 C14.42881965637207 13.103384971618652 14.974834442138672 13.103384971618652 15.520848274230957 13.103384971618652 L15.520848274230957 13.103384971618652"></path>
<path fill="none" stroke="black" stroke-width=".3" stroke-opacity="1.0"  filling="0" d="M17.419538497924805 13.103384971618652 L17.419538497924805 13.103384971618652 C17.419538497924805 13.525341033935547 17.419538497924805 13.947298049926758 17.419538497924805 14.369254112243652 L17.419538497924805 14.369254112243652 C16.87348175048828 14.369254112243652 16.327423095703125 14.369254112243652 15.781365394592285 14.369254112243652 L15.781365394592285 14.369254112243652 C15.831010818481445 13.922479629516602 15.880655288696289 13.475704193115234 15.93030071258545 13.028929710388184 L15.93030071258545 13.028929710388184 C16.426713943481445 13.05374813079834 16.923126220703125 13.078566551208496 17.419538497924805 13.103384971618652 L17.419538497924805 13.103384971618652"></path>
<path fill="none" stroke="black" stroke-width=".3" stroke-opacity="1.0"  filling="0" d="M17.6801815032959 13.103384971618652 L17.6801815032959 13.103384971618652 C18.226221084594727 13.090958595275879 18.772262573242188 13.078533172607422 19.318302154541016 13.066106796264648 L19.318302154541016 13.066106796264648 C19.29344940185547 13.525264739990234 19.268596649169922 13.98442268371582 19.243743896484375 14.443580627441406 L19.243743896484375 14.443580627441406 C18.722557067871094 14.418805122375488 18.20136833190918 14.39402961730957 17.6801815032959 14.369254112243652 L17.6801815032959 14.369254112243652 C17.6801815032959 13.947298049926758 17.6801815032959 13.525341033935547 17.6801815032959 13.103384971618652 L17.6801815032959 13.103384971618652"></path>
<path fill="none" stroke="black" stroke-width=".3" stroke-opacity="1.0"  filling="0" d="M9.861909866333008 13.17786693572998 L9.861909866333008 13.17786693572998 C9.837091445922852 13.575004577636719 9.812273979187012 13.972142219543457 9.787455558776855 14.369279861450195 L9.787455558776855 14.369279861450195 C9.241432189941406 14.369279861450195 8.695409774780273 14.369279861450195 8.149386405944824 14.369279861450195 L8.149386405944824 14.369279861450195 C8.149386405944824 13.934720039367676 7.752132415771484 13.056700706481934 8.186589241027832 13.066132545471191 C8.746138572692871 13.078279495239258 9.30346965789795 13.14062213897705 9.861909866333008 13.17786693572998 L9.861909866333008 13.17786693572998"></path>
<path fill="none" stroke="black" stroke-width=".3" stroke-opacity="1.0"  filling="0" d="M15.707038879394531 15.709554672241211 L15.707038879394531 15.709554672241211 C15.980025291442871 16.14389419555664 16.560136795043945 16.500707626342773 16.525997161865234 17.0125732421875 C16.439184188842773 18.31419563293457 14.940509796142578 16.820037841796875 14.962432861328125 16.491334915161133 C14.986381530761719 16.132253646850586 15.458836555480957 15.970148086547852 15.707038879394531 15.709554672241211 L15.707038879394531 15.709554672241211"></path>
<path fill="none" stroke="black" stroke-width=".3" stroke-opacity="1.0"  filling="0" d="M18.98320198059082 16.1934871673584 L18.98320198059082 16.1934871673584 C18.807722091674805 16.565149307250977 18.83588981628418 17.14976692199707 18.456762313842773 17.308475494384766 C17.335420608520508 17.77788734436035 16.854249954223633 16.189428329467773 18.089763641357422 15.672223091125488 C18.407814025878906 15.539081573486328 18.685388565063477 16.019731521606445 18.98320198059082 16.1934871673584 L18.98320198059082 16.1934871673584"></path>
<path fill="none" stroke="black" stroke-width=".3" stroke-opacity="1.0"  filling="0" d="M6.809062480926514 16.230663299560547 L6.809062480926514 16.230663299560547 C6.809062480926514 16.41683578491211 6.992693901062012 16.75852394104004 6.809062480926514 16.789180755615234 C6.592517852783203 16.82533073425293 6.511223793029785 16.4665584564209 6.3623046875 16.305246353149414 L6.3623046875 16.305246353149414 C6.511223793029785 16.280385971069336 6.6601433753967285 16.255523681640625 6.809062480926514 16.230663299560547 L6.809062480926514 16.230663299560547"></path>
<path fill="none" stroke="black" stroke-width=".3" stroke-opacity="1.0"  filling="0" d="M15.669759750366211 16.267942428588867 L15.669759750366211 16.267942428588867 C16.570098876953125 16.868167877197266 15.339956283569336 16.861433029174805 15.669759750366211 16.267942428588867 L15.669759750366211 16.267942428588867"></path>
<path fill="none" stroke="black" stroke-width=".3" stroke-opacity="1.0"  filling="0" d="M6.3623046875 16.305221557617188 L6.3623046875 16.305221557617188 C6.511223793029785 16.280359268188477 6.6601433753967285 16.2554988861084 6.809062480926514 16.230636596679688 L6.809062480926514 16.230636596679688 C6.809062480926514 16.41680908203125 6.9926934242248535 16.75849723815918 6.809062480926514 16.789154052734375 C6.5925188064575195 16.825305938720703 6.511223793029785 16.46653175354004 6.3623046875 16.305221557617188 L6.3623046875 16.305221557617188"></path>
<path fill="none" stroke="black" stroke-width=".3" stroke-opacity="1.0"  filling="0" d="M7.441984176635742 16.305221557617188 L7.441984176635742 16.305221557617188 C7.116709232330322 16.644554138183594 6.931483268737793 17.389726638793945 6.466159343719482 17.323217391967773 C6.012889385223389 17.25843048095703 5.5614705085754395 16.412267684936523 5.878319263458252 16.08172607421875 C6.242668151855469 15.701631546020508 6.920762538909912 16.230722427368164 7.441984176635742 16.305221557617188 L7.441984176635742 16.305221557617188"></path>
<path fill="none" stroke="black" stroke-width=".3" stroke-opacity="1.0"  filling="0" d="M15.483545303344727 16.603069305419922 L15.483545303344727 16.603069305419922 C15.742962837219238 16.13623809814453 16.700578689575195 16.53138542175293 15.483545303344727 16.603069305419922 L15.483545303344727 16.603069305419922"></path>
<path fill="none" stroke="black" stroke-width=".3" stroke-opacity="1.0"  filling="0" d="M18.461963653564453 16.751953125 L18.461963653564453 16.751953125 C18.300668716430664 16.77674674987793 18.139375686645508 16.801538467407227 17.97808074951172 16.826332092285156 L17.97808074951172 16.826332092285156 C18.139375686645508 16.801538467407227 18.300668716430664 16.77674674987793 18.461963653564453 16.751953125 L18.461963653564453 16.751953125"></path>
<path fill="none" stroke="black" stroke-width=".3" stroke-opacity="1.0"  filling="0" d="M17.97805404663086 16.826356887817383 L17.97805404663086 16.826356887817383 C18.13934898376465 16.801563262939453 18.300642013549805 16.776771545410156 18.461936950683594 16.751977920532227 L18.461936950683594 16.751977920532227 C18.300642013549805 16.776771545410156 18.13934898376465 16.801563262939453 17.97805404663086 16.826356887817383 L17.97805404663086 16.826356887817383"></path></svg>