<svg xmlns="http://www.w3.org/2000/svg" viewBox="0.0 0.0 24.0 24.0" height="200px" width="200px"><path fill="none" stroke="black" stroke-width=".3" stroke-opacity="1.0"  filling="0" d="M39.62618637084961 -25.96523666381836 L39.62618637084961 -25.96523666381836 C40.1175537109375 -27.222410202026367 41.005516052246094 -28.982412338256836 42.1448974609375 -30.002838134765625 C43.284278869628906 -31.023265838623047 44.675079345703125 -31.30411720275879 46.172122955322266 -29.602989196777344 C46.97400665283203 -28.691787719726562 47.480464935302734 -27.55812644958496 48.13463592529297 -26.535694122314453 L48.13463592529297 -26.535694122314453 C48.567752838134766 -24.466732025146484 48.90805435180664 -23.89040756225586 50.86747360229492 -23.05290985107422 L45.29833984375 -22.031448364257812 L45.569637298583984 -19.736228942871094 L42.533111572265625 -19.736228942871094 L42.774383544921875 -21.913082122802734 C40.83687210083008 -22.55682373046875 39.1950569152832 -22.927507400512695 37.14844512939453 -22.88378143310547 L39.62618637084961 -25.96523666381836"></path>
<path fill="none" stroke="black" stroke-width=".3" stroke-opacity="1.0"  filling="0" d="M42.49185562133789 -19.528656005859375 L45.66273498535156 -19.528656005859375 L47.605655670166016 -18.369598388671875 L40.41112518310547 -18.369598388671875 L42.49185562133789 -19.528656005859375"></path>
<path fill="none" stroke="black" stroke-width=".3" stroke-opacity="1.0"  filling="0" d="M48.546119689941406 -17.90412139892578 L48.546119689941406 -17.90412139892578 C49.04355239868164 -17.469308853149414 49.69217300415039 -17.162370681762695 50.038414001464844 -16.599685668945312 C51.111995697021484 -14.854987144470215 50.37506103515625 -12.291731834411621 49.7835807800293 -10.527935028076172 L44.05375289916992 -10.525774002075195 L44.083126068115234 -15.61689567565918 L48.546119689941406 -17.90412139892578"></path>
<path fill="none" stroke="black" stroke-width=".3" stroke-opacity="1.0"  filling="0" d="M39.58103942871094 -17.902606964111328 L44.083343505859375 -15.617111206054688 L44.39438247680664 -10.5240478515625 L38.34357452392578 -10.526422500610352 C37.752098083496094 -12.290218353271484 37.015167236328125 -14.853475570678711 38.0887451171875 -16.59817123413086 C38.43498611450195 -17.160856246948242 39.0836067199707 -17.46779441833496 39.58103942871094 -17.902606964111328 L39.58103942871094 -17.902606964111328"></path>
<path fill="none" stroke="black" stroke-width=".3" stroke-opacity="1.0"  filling="0" d="M39.64000701904297 4.616968631744385 L39.64000701904297 4.616968631744385 C39.981163024902344 2.878166675567627 40.41444778442383 1.4647583961486816 42.22138977050781 0.7076961994171143 C43.589599609375 0.13445055484771729 45.03556823730469 0.37830084562301636 46.13948059082031 1.1321964263916016 C47.2433967590332 1.8860920667648315 48.00525665283203 3.1500329971313477 48.00525665283203 4.616968631744385 C48.00525665283203 6.08388614654541 47.243370056152344 7.34778356552124 46.139442443847656 8.101645469665527 C45.03551483154297 8.855507850646973 43.58954620361328 9.099334716796875 42.22138977050781 8.52611255645752 C40.41444778442383 7.7690510749816895 39.981163024902344 6.355640411376953 39.64000701904297 4.61683988571167 L39.64000701904297 4.61683988571167"></path>
<path fill="none" stroke="black" stroke-width=".3" stroke-opacity="1.0"  filling="0" d="M4.441944122314453 4.912607669830322 L4.441944122314453 4.912607669830322 C4.809996128082275 3.554563045501709 4.694701194763184 2.9202330112457275 6.058596611022949 2.1407310962677 C8.158071517944336 0.9408267736434937 10.908553123474121 2.467451810836792 10.908552169799805 4.9126081466674805 C10.908551216125488 7.357765197753906 8.158069610595703 8.884389877319336 6.058595657348633 7.684484958648682 C4.694700241088867 6.904982566833496 4.809995174407959 6.270651340484619 4.441944122314453 4.912607669830322 L4.441944122314453 4.912607669830322"></path>
<path fill="none" stroke="black" stroke-width=".3" stroke-opacity="1.0"  filling="0" d="M10.908768653869629 4.912607669830322 L10.908768653869629 4.912607669830322 C11.276820182800293 3.554563045501709 11.16152572631836 2.9202327728271484 12.525421142578125 2.1407310962677 C14.624896049499512 0.9408266544342041 17.375375747680664 2.467452049255371 17.375375747680664 4.9126081466674805 C17.375375747680664 7.357765197753906 14.624896049499512 8.884390830993652 12.525420188903809 7.684484958648682 C11.161524772644043 6.904983043670654 11.276820182800293 6.270650863647461 10.908768653869629 4.912607669830322 L10.908768653869629 4.912607669830322"></path>
<path fill="none" stroke="black" stroke-width=".3" stroke-opacity="1.0"  filling="0" d="M19.360633850097656 7.261824131011963 L19.360633850097656 12.667440414428711 L15.049270629882812 11.28763198852539 L15.049270629882812 8.805359840393066 L19.360633850097656 7.261824131011963"></path>
<path fill="none" stroke="black" stroke-width=".3" stroke-opacity="1.0"  filling="0" d="M6.101904392242432 7.817376136779785 L10.87021255493164 7.817376136779785 L15.638521194458008 7.817376136779785 L15.638521194458008 12.667440414428711 L10.87021255493164 12.667440414428711 L6.101904392242432 12.667440414428711 L6.101904392242432 7.817376136779785"></path>
<path fill="none" stroke="black" stroke-width=".3" stroke-opacity="1.0"  filling="0" d="M43.58416748046875 9.795072555541992 L41.63584518432617 11.737991333007812 L41.389610290527344 11.108352661132812"></path>
<path fill="none" stroke="black" stroke-width=".3" stroke-opacity="1.0"  filling="0" d="M44.008174896240234 9.771528244018555 L46.049591064453125 11.714231491088867 L46.255653381347656 11.108352661132812"></path>
<path fill="none" stroke="black" stroke-width=".3" stroke-opacity="1.0"  filling="0" d="M15.049270629882812 12.0 L14.385071754455566 12.0 L14.385071754455566 8.366448402404785 L15.049270629882812 8.366448402404785 L15.049270629882812 12.0"></path>
<path fill="none" stroke="black" stroke-width=".3" stroke-opacity="1.0"  filling="0" d="M41.714256286621094 12.103464126586914 L43.783966064453125 10.011072158813477 L46.01092529296875 12.070631980895996 L43.96497344970703 18.437015533447266 L41.714256286621094 12.103464126586914"></path>
<path fill="none" stroke="black" stroke-width=".3" stroke-opacity="1.0"  filling="0" d="M9.458544731140137 12.45143985748291 L12.74023151397705 12.45143985748291 L12.74023151397705 15.956904411315918 L9.458544731140137 15.956904411315918 L9.458544731140137 12.45143985748291"></path>
<path fill="none" stroke="black" stroke-width=".3" stroke-opacity="1.0"  filling="0" d="M48.55799865722656 14.565000534057617 L50.60567855834961 14.565000534057617 L50.60567855834961 14.790071487426758 L48.55799865722656 14.790071487426758 L48.55799865722656 14.565000534057617"></path>
<path fill="none" stroke="black" stroke-width=".3" stroke-opacity="1.0"  filling="0" d="M10.429248809814453 15.7409029006958 L11.815752029418945 15.7409029006958 L11.815752029418945 21.56534194946289 L10.429248809814453 21.56534194946289 L10.429248809814453 15.7409029006958"></path>
<path fill="none" stroke="black" stroke-width=".3" stroke-opacity="1.0"  filling="0" d="M50.781070709228516 16.47119903564453 L48.34199523925781 16.47119903564453 L48.125999450683594 14.189592361450195 L50.997074127197266 14.189592361450195 L50.781070709228516 16.47119903564453"></path>
<path fill="none" stroke="black" stroke-width=".3" stroke-opacity="1.0"  filling="0" d="M52.434120178222656 18.955848693847656 L52.434120178222656 14.999160766601562 L52.434120178222656 11.042471885681152 C51.021236419677734 9.549935340881348 50.34666061401367 9.372366905212402 48.31110763549805 9.548616409301758 L46.49638366699219 15.002724647521973 L44.68165969848633 20.456832885742188"></path>
<path fill="none" stroke="black" stroke-width=".3" stroke-opacity="1.0"  filling="0" d="M35.21352005004883 18.956064224243164 L35.21352005004883 14.99937629699707 L35.21352005004883 11.042688369750977 C36.62620162963867 9.550114631652832 37.30066680908203 9.372581481933594 39.336097717285156 9.548831939697266 L41.15103530883789 15.002832412719727 L42.965972900390625 20.456832885742188"></path>
<path fill="none" stroke="black" stroke-width=".3" stroke-opacity="1.0"  filling="0" d="M7.195944309234619 20.764415740966797 L9.681672096252441 14.755512237548828 L10.429248809814453 15.956904411315918 L7.971384525299072 21.319103240966797 L7.195944309234619 20.764415740966797"></path>
<path fill="none" stroke="black" stroke-width=".3" stroke-opacity="1.0"  filling="0" d="M15.049055099487305 20.764415740966797 L14.273616790771484 21.319103240966797 L11.815752029418945 15.956904411315918 L12.56332778930664 14.755512237548828 L15.049055099487305 20.764415740966797"></path>
<path fill="none" stroke="black" stroke-width=".3" stroke-opacity="1.0"  filling="0" d="M-10.562061309814453 28.066728591918945 L-11.142454147338867 27.909046173095703 C-9.694328308105469 27.184986114501953 -10.002535820007324 26.637699127197266 -9.950567245483398 25.117462158203125 L-9.950567245483398 25.117462158203125 C-9.631697654724121 24.835176467895508 -9.419824600219727 24.270606994628906 -8.99395751953125 24.270606994628906 C-8.17041015625 24.270606994628906 -7.4466423988342285 24.835176467895508 -6.672985076904297 25.117462158203125 L-6.672985076904297 26.842437744140625 C-6.381964683532715 27.18202781677246 -5.698462963104248 27.929529190063477 -6.124128341674805 28.066728591918945 L-6.124128341674805 28.066728591918945 C-5.150119304656982 28.40771484375 -5.487525939941406 28.146526336669922 -6.939094543457031 29.053848266601562 L-7.4415130615234375 27.97168731689453 L-7.880640029907227 27.688941955566406 C-8.21352481842041 27.572362899780273 -8.563002586364746 27.469268798828125 -8.91571044921875 27.469268798828125 L-9.793966293334961 27.751800537109375 L-9.527421951293945 28.253999710083008 C-9.762646675109863 28.545095443725586 -9.997870445251465 28.836191177368164 -10.233095169067383 29.127286911010742 L-10.233095169067383 29.127286911010742 C-10.48927116394043 28.851886749267578 -10.890192985534668 28.660329818725586 -11.001623153686523 28.301088333129883 C-11.05081558227539 28.142498016357422 -10.708581924438477 28.144847869873047 -10.562061309814453 28.066728591918945 L-10.562061309814453 28.066728591918945"></path>
<path fill="none" stroke="black" stroke-width=".3" stroke-opacity="1.0"  filling="0" d="M-18.56399917602539 28.38899803161621 L-18.56399917602539 28.38899803161621 C-17.94365692138672 29.426000595092773 -16.661531448364258 29.939306259155273 -15.539134979248047 30.386999130249023 L-15.539134979248047 30.386999130249023"></path>
<path fill="none" stroke="black" stroke-width=".3" stroke-opacity="1.0"  filling="0" d="M-28.946903228759766 31.099151611328125 L-28.946903228759766 31.099151611328125 C-29.120494842529297 31.272743225097656 -29.294086456298828 31.446334838867188 -29.46767807006836 31.61992645263672 L-30.374011993408203 31.61992645263672 C-30.547605514526367 31.446334838867188 -30.894790649414062 31.344648361206055 -30.894790649414062 31.099151611328125 C-30.894790649414062 30.853654861450195 -30.547605514526367 30.75196647644043 -30.374011993408203 30.5783748626709 L-29.46767807006836 30.5783748626709 C-29.294086456298828 30.75196647644043 -29.120494842529297 30.925559997558594 -28.946903228759766 31.099151611328125 L-28.946903228759766 31.099151611328125"></path>
<path fill="none" stroke="black" stroke-width=".3" stroke-opacity="1.0"  filling="0" d="M9.597864151000977 32.814842224121094 L9.597864151000977 32.814842224121094 C9.995479583740234 31.332759857177734 9.870640754699707 30.63072967529297 11.352972030639648 29.774906158447266 C13.652593612670898 28.447219848632812 16.618295669555664 30.159469604492188 16.618295669555664 32.814842224121094 C16.618295669555664 35.470218658447266 13.652591705322266 37.182464599609375 11.352972030639648 35.85477828979492 C9.870638847351074 34.99895095825195 9.995481491088867 34.29692840576172 9.597864151000977 32.814842224121094 L9.597864151000977 32.814842224121094"></path>
<path fill="none" stroke="black" stroke-width=".3" stroke-opacity="1.0"  filling="0" d="M17.708663940429688 32.814842224121094 L17.708663940429688 32.814842224121094 C18.106279373168945 31.332759857177734 17.981441497802734 30.63072967529297 19.46377182006836 29.774906158447266 C21.76339340209961 28.447219848632812 24.729095458984375 30.159469604492188 24.729095458984375 32.814842224121094 C24.729095458984375 35.470218658447266 21.763389587402344 37.182464599609375 19.46377182006836 35.85477828979492 C17.9814395904541 34.99895095825195 18.106281280517578 34.29692840576172 17.708663940429688 32.814842224121094 L17.708663940429688 32.814842224121094"></path>
<path fill="none" stroke="black" stroke-width=".3" stroke-opacity="1.0"  filling="0" d="M24.003982543945312 37.02770233154297 L24.003982543945312 37.02770233154297 C24.586807250976562 37.26911926269531 25.10079002380371 37.78316879272461 25.34210205078125 38.36603927612305 L25.34210205078125 45.58562469482422 C25.100765228271484 46.16848373413086 24.586816787719727 46.68256378173828 24.003982543945312 46.92395782470703 L17.27655601501465 46.92395782470703 L10.549128532409668 46.92395782470703 C9.966300964355469 46.68254852294922 9.452388763427734 46.16846466064453 9.211008071899414 45.58562469482422 L9.211008071899414 38.36603927612305 C9.452388763427734 37.783199310302734 9.966300964355469 37.26911544799805 10.549128532409668 37.02770233154297 L17.27655601501465 37.02770233154297 L24.003982543945312 37.02770233154297"></path>
<path fill="none" stroke="black" stroke-width=".3" stroke-opacity="1.0"  filling="0" d="M29.0754451751709 38.7947998046875 L29.0754451751709 45.157081604003906 L25.126319885253906 43.62153244018555 L25.126319885253906 40.47679138183594 L29.0754451751709 38.7947998046875"></path>
<path fill="none" stroke="black" stroke-width=".3" stroke-opacity="1.0"  filling="0" d="M23.26483154296875 39.718196868896484 L23.26483154296875 39.718196868896484 C23.019527435302734 39.47282028198242 22.528919219970703 39.32903289794922 22.528919219970703 38.98207092285156 C22.528919219970703 38.0008544921875 24.000743865966797 38.0008544921875 24.000743865966797 38.98207092285156 C24.000743865966797 39.32903289794922 23.510135650634766 39.47282028198242 23.26483154296875 39.718196868896484 L23.26483154296875 39.718196868896484"></path>
<path fill="none" stroke="black" stroke-width=".3" stroke-opacity="1.0"  filling="0" d="M21.1908016204834 44.71924591064453 L17.27666473388672 44.71924591064453 L13.362527847290039 44.71924591064453 L13.362527847290039 39.23284912109375 L17.27666473388672 39.23284912109375 L21.1908016204834 39.23284912109375 L21.1908016204834 44.71924591064453"></path></svg>