<svg xmlns="http://www.w3.org/2000/svg" viewBox="0.0 0.0 24.0 24.0" height="200px" width="200px"><path fill="none" stroke="black" stroke-width=".3" stroke-opacity="1.0"  filling="0" d="M19.631999969482422 4.36799955368042 L19.631999969482422 4.36799955368042 C20.881616592407227 5.862570762634277 21.843658447265625 7.473231792449951 22.364273071289062 9.200919151306152 C22.884889602661133 10.928606986999512 22.964080810546875 12.773321151733398 22.447998046875 14.736000061035156 C21.92656898498535 16.719011306762695 20.898326873779297 18.377220153808594 19.558652877807617 19.658912658691406 C18.218976974487305 20.94060516357422 16.567867279052734 21.845783233642578 14.800697326660156 22.32273292541504 C13.033529281616211 22.7996826171875 11.150301933288574 22.848405838012695 9.346393585205078 22.417186737060547 C7.542485237121582 21.98596954345703 5.81789493560791 21.074810028076172 4.36799955368042 19.631999969482422 C2.9182980060577393 18.189380645751953 2.004359245300293 16.46808624267578 1.5725133419036865 14.66511344909668 C1.14066743850708 12.862140655517578 1.1909147500991821 10.977489471435547 1.6695853471755981 9.208158493041992 C2.1482560634613037 7.4388275146484375 3.0553500652313232 5.784816741943359 4.337197780609131 4.443124294281006 C5.619045734405518 3.1014318466186523 7.275647163391113 2.0720577239990234 9.25333309173584 1.551999807357788 C11.217023849487305 1.035622239112854 13.06380558013916 1.1146422624588013 14.793607711791992 1.6352466344833374 C16.523408889770508 2.155850887298584 18.13623046875 3.118039608001709 19.631999969482422 4.36799955368042 L19.631999969482422 4.36799955368042"></path>
<path fill="none" stroke="black" stroke-width=".3" stroke-opacity="1.0"  filling="0" d="M13.704000473022461 14.15999984741211 L8.616000175476074 14.15999984741211 C7.9332427978515625 13.867391586303711 8.125446319580078 13.690553665161133 8.616000175476074 13.199999809265137 L13.199999809265137 13.199999809265137 L13.199999809265137 8.616000175476074 C13.426274299621582 8.389725685119629 13.93372631072998 8.389725685119629 14.15999984741211 8.616000175476074 L14.15999984741211 13.704000473022461 C14.008000373840332 13.855999946594238 13.855999946594238 14.008000373840332 13.704000473022461 14.15999984741211 L13.704000473022461 14.15999984741211"></path></svg>