<svg xmlns="http://www.w3.org/2000/svg" viewBox="0.0 0.0 24.0 24.0" height="200px" width="200px"><path fill="none" stroke="black" stroke-width=".3" stroke-opacity="1.0"  filling="0" d="M12.135540008544922 7.045499801635742 L12.303750038146973 5.069909572601318 L12.135540008544922 7.045499801635742"></path>
<path fill="none" stroke="black" stroke-width=".3" stroke-opacity="1.0"  filling="0" d="M7.836330413818359 7.408109664916992 L8.865030288696289 7.408109664916992 L8.865030288696289 13.923749923706055 L7.836330413818359 13.923749923706055 L7.836330413818359 7.408109664916992"></path>
<path fill="none" stroke="black" stroke-width=".3" stroke-opacity="1.0"  filling="0" d="M9.78788948059082 7.408109664916992 L10.816590309143066 7.408109664916992 L10.816590309143066 13.923749923706055 L9.78788948059082 13.923749923706055 L9.78788948059082 7.408109664916992"></path>
<path fill="none" stroke="black" stroke-width=".3" stroke-opacity="1.0"  filling="0" d="M11.739449501037598 7.408109664916992 L12.768150329589844 7.408109664916992 L12.768150329589844 13.923749923706055 L11.739449501037598 13.923749923706055 L11.739449501037598 7.408109664916992"></path>
<path fill="none" stroke="black" stroke-width=".3" stroke-opacity="1.0"  filling="0" d="M13.690740585327148 7.408109664916992 L14.719710350036621 7.408109664916992 L14.719710350036621 13.923749923706055 L13.690740585327148 13.923749923706055 L13.690740585327148 7.408109664916992"></path>
<path fill="none" stroke="black" stroke-width=".3" stroke-opacity="1.0"  filling="0" d="M15.642300605773926 7.408109664916992 L16.6712703704834 7.408109664916992 L16.6712703704834 13.923749923706055 L15.642300605773926 13.923749923706055 L15.642300605773926 7.408109664916992"></path>
<path fill="none" stroke="black" stroke-width=".3" stroke-opacity="1.0"  filling="0" d="M6.8940300941467285 7.941629886627197 L7.450769901275635 8.118749618530273 L6.8940300941467285 7.941629886627197"></path>
<path fill="none" stroke="black" stroke-width=".3" stroke-opacity="1.0"  filling="0" d="M17.022809982299805 7.941629886627197 L17.579551696777344 8.118749618530273 L17.022809982299805 7.941629886627197"></path>
<path fill="none" stroke="black" stroke-width=".3" stroke-opacity="1.0"  filling="0" d="M12.433080673217773 14.286630630493164 L12.454950332641602 15.84048080444336 C12.375030517578125 15.97035026550293 12.295110702514648 16.1002197265625 12.215190887451172 16.23008918762207 L12.220860481262207 16.23008918762207 C12.14292049407959 16.10219955444336 12.064979553222656 15.974309921264648 11.987039566040039 15.846420288085938 L12.01349925994873 14.286630630493164 L12.433080673217773 14.286630630493164"></path>
<path fill="none" stroke="black" stroke-width=".3" stroke-opacity="1.0"  filling="0" d="M21.213748931884766 14.716740608215332 L21.213748931884766 14.716740608215332 C21.373245239257812 14.532754898071289 21.793886184692383 14.49336051940918 21.943561553955078 14.685420036315918 C22.01127815246582 14.772313117980957 21.662914276123047 14.98844051361084 21.77103042602539 14.967300415039062 L21.775619506835938 14.965950012207031 C21.845924377441406 14.995736122131348 21.640003204345703 15.03773307800293 21.56745147705078 15.061530113220215 L21.56745147705078 15.061530113220215 C21.70716094970703 16.325498580932617 21.5044002532959 17.51593780517578 20.401859283447266 18.215669631958008 L20.401859283447266 18.215669631958008 C18.507810592651367 18.215669631958008 16.613759994506836 18.215669631958008 14.719710350036621 18.215669631958008 C12.825660705566406 18.215669631958008 10.931610107421875 18.215669631958008 9.03756046295166 18.215669631958008 C7.143509864807129 18.215669631958008 5.249460220336914 18.215669631958008 3.355410575866699 18.215669631958008 L3.355410575866699 18.215669631958008 C2.2562038898468018 17.164602279663086 1.8652701377868652 16.405473709106445 2.55242919921875 15.015359878540039 L2.55242919921875 15.015359878540039 C2.529569625854492 15.091859817504883 2.5067100524902344 15.168359756469727 2.4838504791259766 15.24485969543457 L2.4838504791259766 15.24485969543457 C2.1763200759887695 15.311017036437988 2.301210641860962 15.853924751281738 2.289179801940918 16.16826057434082 L2.289179801940918 16.16826057434082 C3.4102911949157715 16.801618576049805 4.761321067810059 16.930200576782227 6.037320137023926 17.10300064086914 L6.037320137023926 17.11865997314453 C6.381569862365723 17.36202049255371 6.648487091064453 17.848739624023438 7.070069789886475 17.848739624023438 C7.491579532623291 17.848739624023438 7.758390426635742 17.36202049255371 8.102550506591797 17.11865997314453 L8.096879959106445 17.11865997314453 C8.4410400390625 17.36202049255371 8.707850456237793 17.848739624023438 9.12936019897461 17.848739624023438 C9.550869941711426 17.848739624023438 9.817680358886719 17.36202049255371 10.161840438842773 17.11865997314453 L10.156170845031738 17.11865997314453 C10.500329971313477 17.36202049255371 10.76714038848877 17.848739624023438 11.18864917755127 17.848739624023438 C11.610158920288086 17.848739624023438 11.876970291137695 17.36202049255371 12.22113037109375 17.11865997314453 L12.215459823608398 17.11865997314453 C12.559709548950195 17.36202049255371 12.826626777648926 17.848739624023438 13.248209953308105 17.848739624023438 C13.669646263122559 17.848739624023438 13.936349868774414 17.36202049255371 14.280420303344727 17.11865997314453 L14.274749755859375 17.11865997314453 C14.61890983581543 17.36202049255371 14.885720252990723 17.848739624023438 15.307229995727539 17.848739624023438 C15.728739738464355 17.848739624023438 15.995550155639648 17.36202049255371 16.339710235595703 17.11865997314453 L16.33403968811035 17.11865997314453 C16.678199768066406 17.36202049255371 16.945011138916016 17.848739624023438 17.366519927978516 17.848739624023438 C17.788028717041016 17.848739624023438 18.054840087890625 17.36202049255371 18.39900016784668 17.11865997314453 L18.39900016784668 17.11865997314453 C20.45106315612793 16.847732543945312 21.143247604370117 16.943317413330078 21.213748931884766 14.716740608215332 L21.213748931884766 14.716740608215332"></path>
<path fill="none" stroke="black" stroke-width=".3" stroke-opacity="1.0"  filling="0" d="M7.070069789886475 15.834541320800781 L7.070069789886475 15.834541320800781 C7.343129634857178 16.107601165771484 7.889249801635742 16.267555236816406 7.889249801635742 16.653718948364258 C7.889249801635742 17.7455997467041 6.250890254974365 17.7455997467041 6.250890254974365 16.653718948364258 C6.250890254974365 16.267555236816406 6.7970099449157715 16.107601165771484 7.070069789886475 15.834541320800781 L7.070069789886475 15.834541320800781"></path>
<path fill="none" stroke="black" stroke-width=".3" stroke-opacity="1.0"  filling="0" d="M9.126659393310547 15.834541320800781 L9.126659393310547 15.834541320800781 C9.39971923828125 16.107601165771484 9.945839881896973 16.267553329467773 9.945839881896973 16.653718948364258 C9.945839881896973 17.03982162475586 9.512761116027832 17.47262954711914 9.126659393310547 17.47262954711914 C8.740557670593262 17.47262954711914 8.307479858398438 17.039819717407227 8.307479858398438 16.653718948364258 C8.307479858398438 16.267555236816406 8.853599548339844 16.107601165771484 9.126659393310547 15.834541320800781 L9.126659393310547 15.834541320800781"></path>
<path fill="none" stroke="black" stroke-width=".3" stroke-opacity="1.0"  filling="0" d="M11.183520317077637 15.834541320800781 L11.183520317077637 15.834541320800781 C11.45658016204834 16.107601165771484 12.00269889831543 16.267555236816406 12.00269889831543 16.653718948364258 C12.00269889831543 18.816116333007812 10.364339828491211 16.67508316040039 10.364339828491211 16.653718948364258 C10.364339828491211 16.267553329467773 10.910460472106934 16.107601165771484 11.183520317077637 15.834541320800781 L11.183520317077637 15.834541320800781"></path>
<path fill="none" stroke="black" stroke-width=".3" stroke-opacity="1.0"  filling="0" d="M13.24038028717041 15.834541320800781 L13.24038028717041 15.834541320800781 C13.513349533081055 16.107601165771484 14.05928897857666 16.26761817932129 14.05928897857666 16.653718948364258 C14.05928897857666 17.039756774902344 13.626418113708496 17.47262954711914 13.24038028717041 17.47262954711914 C12.854278564453125 17.47262954711914 12.4212007522583 17.039819717407227 12.4212007522583 16.653718948364258 C12.4212007522583 16.267555236816406 12.967320442199707 16.107601165771484 13.24038028717041 15.834541320800781 L13.24038028717041 15.834541320800781"></path>
<path fill="none" stroke="black" stroke-width=".3" stroke-opacity="1.0"  filling="0" d="M15.296969413757324 15.834541320800781 L15.296969413757324 15.834541320800781 C15.570029258728027 16.107601165771484 16.11614990234375 16.267553329467773 16.11614990234375 16.653718948364258 C16.11614990234375 17.7455997467041 14.477788925170898 17.7455997467041 14.477788925170898 16.653718948364258 C14.477788925170898 16.267553329467773 15.023909568786621 16.107601165771484 15.296969413757324 15.834541320800781 L15.296969413757324 15.834541320800781"></path>
<path fill="none" stroke="black" stroke-width=".3" stroke-opacity="1.0"  filling="0" d="M17.353830337524414 15.834541320800781 L17.353830337524414 15.834541320800781 C17.626890182495117 16.107601165771484 18.173009872436523 16.267555236816406 18.173009872436523 16.653718948364258 C18.173009872436523 18.816116333007812 16.534648895263672 16.67508316040039 16.534648895263672 16.653718948364258 C16.534648895263672 16.267553329467773 17.08077049255371 16.107601165771484 17.353830337524414 15.834541320800781 L17.353830337524414 15.834541320800781"></path>
<path fill="none" stroke="black" stroke-width=".3" stroke-opacity="1.0"  filling="0" d="M7.070069789886475 17.05682945251465 L7.070069789886475 17.05682945251465 C6.119964599609375 16.107358932495117 8.019718170166016 16.107179641723633 7.070069789886475 17.05682945251465 L7.070069789886475 17.05682945251465"></path>
<path fill="none" stroke="black" stroke-width=".3" stroke-opacity="1.0"  filling="0" d="M9.126659393310547 17.05682945251465 L9.126659393310547 17.05682945251465 C8.17701244354248 16.107179641723633 10.076766014099121 16.107358932495117 9.126659393310547 17.05682945251465 L9.126659393310547 17.05682945251465"></path>
<path fill="none" stroke="black" stroke-width=".3" stroke-opacity="1.0"  filling="0" d="M11.183520317077637 17.05682945251465 L11.183520317077637 17.05682945251465 C10.23387336730957 16.107179641723633 12.133626937866211 16.107358932495117 11.183520317077637 17.05682945251465 L11.183520317077637 17.05682945251465"></path>
<path fill="none" stroke="black" stroke-width=".3" stroke-opacity="1.0"  filling="0" d="M13.24038028717041 17.05682945251465 L13.24038028717041 17.05682945251465 C12.290273666381836 16.107358932495117 14.190027236938477 16.107179641723633 13.24038028717041 17.05682945251465 L13.24038028717041 17.05682945251465"></path>
<path fill="none" stroke="black" stroke-width=".3" stroke-opacity="1.0"  filling="0" d="M15.296969413757324 17.05682945251465 L15.296969413757324 17.05682945251465 C14.347322463989258 16.107179641723633 16.2470760345459 16.107358932495117 15.296969413757324 17.05682945251465 L15.296969413757324 17.05682945251465"></path>
<path fill="none" stroke="black" stroke-width=".3" stroke-opacity="1.0"  filling="0" d="M17.353830337524414 17.05682945251465 L17.353830337524414 17.05682945251465 C16.403724670410156 16.10736083984375 18.303476333618164 16.107179641723633 17.353830337524414 17.05682945251465 L17.353830337524414 17.05682945251465"></path></svg>