<svg xmlns="http://www.w3.org/2000/svg" viewBox="0.0 0.0 24.0 24.0" height="200px" width="200px"><path fill="none" stroke="black" stroke-width=".3" stroke-opacity="1.0"  filling="0" d="M12.960000038146973 12.0 L12.960000038146973 12.0 C13.99501895904541 13.035018920898438 15.44144058227539 14.161283493041992 16.31999969482422 15.360000610351562 C16.648347854614258 15.808002471923828 16.59527015686035 16.547670364379883 15.863999366760254 16.511999130249023 C15.205159187316895 16.479862213134766 13.853260040283203 14.765260696411133 13.652444839477539 14.564445495605469 C13.10962963104248 14.02163028717041 12.566815376281738 13.478816032409668 12.02400016784668 12.93600082397461 L12.02400016784668 12.93600082397461 C11.481184959411621 13.478815078735352 10.938370704650879 14.021629333496094 10.39555549621582 14.564444541931152 C10.194740295410156 14.765259742736816 8.842838287353516 16.479862213134766 8.184000015258789 16.511999130249023 C7.45272970199585 16.547670364379883 7.39965295791626 15.808002471923828 7.727999687194824 15.360000610351562 C8.606558799743652 14.161280632019043 10.052980422973633 13.035019874572754 11.088000297546387 12.0 L11.088000297546387 12.0 C10.545185089111328 11.457184791564941 10.002370834350586 10.9143705368042 9.459555625915527 10.37155532836914 C9.25874137878418 10.170741081237793 7.544137954711914 8.81883716583252 7.511999607086182 8.15999984741211 C7.476327896118164 7.428728103637695 8.216001510620117 7.375655651092529 8.663999557495117 7.703999996185303 C9.862719535827637 8.582558631896973 10.988981246948242 10.028980255126953 12.02400016784668 11.06399917602539 L12.02400016784668 11.06399917602539 C12.566815376281738 10.521184921264648 13.10962963104248 9.978370666503906 13.652444839477539 9.435555458068848 C13.853256225585938 9.23474407196045 15.205163955688477 7.520138263702393 15.863999366760254 7.48799991607666 C16.595272064208984 7.452328205108643 16.648345947265625 8.191999435424805 16.31999969482422 8.639999389648438 C15.44144058227539 9.83871841430664 13.99501895904541 10.964981079101562 12.960000038146973 12.0 L12.960000038146973 12.0"></path></svg>