<svg xmlns="http://www.w3.org/2000/svg" viewBox="0.0 0.0 24.0 24.0" height="200px" width="200px"><path fill="none" stroke="black" stroke-width=".3" stroke-opacity="1.0"  filling="0" d="M16.992000579833984 12.67199993133545 L16.992000579833984 12.67199993133545 C17.168001174926758 12.84000015258789 17.3439998626709 13.008000373840332 17.520000457763672 13.176000595092773 L17.520000457763672 15.935999870300293 C17.150556564331055 16.73773193359375 16.41409683227539 17.418664932250977 15.600000381469727 17.76000213623047 L11.41200065612793 17.76000213623047 L7.223999977111816 17.76000213623047 C6.465839862823486 17.417245864868164 5.815362453460693 16.713850021362305 5.519999980926514 15.935999870300293 L5.519999980926514 10.631999969482422 C5.854356288909912 9.858097076416016 6.561254978179932 9.193098068237305 7.343999862670898 8.879999160766602 L9.791999816894531 8.879999160766602 C9.967999458312988 9.055999755859375 10.319999694824219 9.159098625183105 10.319999694824219 9.407999992370605 C10.319999694824219 9.692872047424316 9.967999458312988 9.855999946594238 9.791999816894531 10.079999923706055 L7.343999862670898 10.079999923706055 C7.13599967956543 10.359999656677246 6.927999973297119 10.640000343322754 6.71999979019165 10.920000076293945 L6.71999979019165 15.84000015258789 C6.888000011444092 16.079999923706055 7.055999755859375 16.32000160217285 7.223999977111816 16.560001373291016 L11.41200065612793 16.560001373291016 L15.600000381469727 16.560001373291016 C15.84000015258789 16.32000160217285 16.079999923706055 16.079999923706055 16.31999969482422 15.84000015258789 L16.31999969482422 13.199999809265137 C16.54400062561035 13.02400016784668 16.76799964904785 12.847999572753906 16.992000579833984 12.67199993133545 L16.992000579833984 12.67199993133545"></path>
<path fill="none" stroke="black" stroke-width=".3" stroke-opacity="1.0"  filling="0" d="M8.15999984741211 14.136000633239746 L8.15999984741211 14.136000633239746 C8.547282218933105 12.565620422363281 9.171036720275879 11.565042495727539 10.076093673706055 10.860347747802734 C10.98115062713623 10.155653953552246 12.167509078979492 9.746843338012695 13.680000305175781 9.359999656677246 L13.680000305175781 6.624000072479248 L17.520000457763672 10.583999633789062 L13.680000305175781 14.592000007629395 L13.680000305175781 11.928000450134277 C11.266201972961426 12.20241928100586 9.44475269317627 12.505752563476562 8.208000183105469 14.736001014709473 L8.208000183105469 14.736001014709473 C8.192000389099121 14.536001205444336 8.175999641418457 14.336000442504883 8.15999984741211 14.136000633239746 L8.15999984741211 14.136000633239746"></path></svg>