<svg xmlns="http://www.w3.org/2000/svg" viewBox="0.0 0.0 24.0 24.0" height="200px" width="200px"><path fill="none" stroke="black" stroke-width=".3" stroke-opacity="1.0"  filling="0" d="M15.20025634765625 13.110456466674805 L15.20025634765625 13.110456466674805 C14.619743347167969 13.902486801147461 13.914291381835938 14.617125511169434 13.125144004821777 15.20155143737793 L12.92404842376709 15.000455856323242 C12.903672218322754 14.977919578552246 12.883296012878418 14.955384254455566 12.862919807434082 14.93284797668457 L12.862919807434082 14.93284797668457 C10.725194931030273 15.828787803649902 8.610025405883789 16.06889533996582 6.596848964691162 14.59886360168457 C5.055519104003906 13.473376274108887 4.2847394943237305 11.719959259033203 4.284681797027588 9.96656322479248 C4.284624099731445 8.213166236877441 5.055289268493652 6.459789752960205 6.596848964691162 5.334382057189941 C8.13554573059082 4.21106481552124 10.047128677368164 4.004657745361328 11.72281551361084 4.534522533416748 C13.398503303527832 5.064387321472168 14.838294982910156 6.33052396774292 15.4334077835083 8.152294158935547 C16.00652503967285 9.906728744506836 15.62116527557373 11.252318382263184 14.943000793457031 12.859248161315918 L14.943000793457031 12.859248161315918 C14.964456558227539 12.878687858581543 14.985912322998047 12.898128509521484 15.007368087768555 12.91756820678711 L15.20025634765625 13.110456466674805"></path>
<path fill="none" stroke="black" stroke-width=".3" stroke-opacity="1.0"  filling="0" d="M9.982343673706055 13.975104331970215 L9.982343673706055 13.975104331970215 C8.342482566833496 13.644039154052734 6.997833251953125 13.238967895507812 6.288622856140137 11.52675724029541 C5.749128341674805 10.224283218383789 5.963635444641113 8.831997871398926 6.667478084564209 7.765330791473389 C7.371320724487305 6.69866418838501 8.564497947692871 5.957616329193115 9.982343673706055 5.957616329193115 C11.400203704833984 5.957616329193115 12.593301773071289 6.698685169219971 13.297078132629395 7.76536226272583 C14.000855445861816 8.832039833068848 14.215310096740723 10.224325180053711 13.675882339477539 11.52675724029541 C12.96673583984375 13.238970756530762 11.622185707092285 13.644036293029785 9.982343673706055 13.975104331970215 L9.982343673706055 13.975104331970215"></path>
<path fill="none" stroke="black" stroke-width=".3" stroke-opacity="1.0"  filling="0" d="M19.09473419189453 17.004287719726562 L19.09473419189453 17.004287719726562 C18.38177490234375 17.679929733276367 17.684856414794922 18.37286949157715 17.004287719726562 19.081127166748047 L13.518047332763672 15.59445571899414 C14.293207168579102 14.991424560546875 14.992116928100586 14.279037475585938 15.590568542480469 13.500335693359375 L19.09473419189453 17.004287719726562"></path>
<path fill="none" stroke="black" stroke-width=".3" stroke-opacity="1.0"  filling="0" d="M19.471221923828125 17.514265060424805 L19.471221923828125 17.514265060424805 C19.372150421142578 18.065135955810547 19.568307876586914 18.769638061523438 19.174007415771484 19.166879653930664 C18.781810760498047 19.562002182006836 18.078887939453125 19.3680477142334 17.531328201293945 19.468631744384766 L17.531328201293945 19.468631744384766 C18.22468376159668 18.86714744567871 18.872880935668945 18.21033477783203 19.471221923828125 17.514265060424805 L19.471221923828125 17.514265060424805"></path></svg>