<svg xmlns="http://www.w3.org/2000/svg" viewBox="0.0 0.0 24.0 24.0" height="200px" width="200px"><path fill="none" stroke="black" stroke-width=".3" stroke-opacity="1.0"  filling="0" d="M22.093246459960938 3.80312442779541 L22.093246459960938 3.80312442779541 C22.32883071899414 4.038708209991455 22.564414978027344 4.274292469024658 22.799999237060547 4.509876251220703 L22.799999237060547 10.972811698913574 L22.799999237060547 17.435747146606445 C22.564414978027344 17.67133140563965 22.32883071899414 17.90691566467285 22.093246459960938 18.142499923706055 L16.790950775146484 18.142499923706055 L11.488656044006348 18.142499923706055 L6.1863603591918945 18.142499923706055 L5.17353630065918 20.022130966186523 C5.023344039916992 20.06655502319336 4.873151779174805 20.110979080200195 4.722959518432617 20.15540313720703 L3.7010650634765625 19.607194900512695 C3.6562089920043945 19.456932067871094 3.6113529205322266 19.30666732788086 3.5664968490600586 19.156404495239258 L4.111896514892578 18.142499923706055 L2.0849523544311523 18.142499923706055 C1.789968490600586 17.90691566467285 1.4949846267700195 17.67133140563965 1.2000007629394531 17.435747146606445 L1.2000007629394531 10.972811698913574 L1.2000007629394531 4.509876251220703 C1.4360166788101196 4.274292469024658 1.6720327138900757 4.038708209991455 1.9080486297607422 3.80312442779541 L8.63644790649414 3.80312442779541 L15.364847183227539 3.80312442779541 L22.093246459960938 3.80312442779541"></path>
<path fill="none" stroke="black" stroke-width=".3" stroke-opacity="1.0"  filling="0" d="M2.805744171142578 4.259100437164307 L2.805744171142578 4.259100437164307 C4.007786273956299 5.460633277893066 1.6018712520599365 5.4599199295043945 2.805744171142578 4.259100437164307 L2.805744171142578 4.259100437164307"></path>
<path fill="none" stroke="black" stroke-width=".3" stroke-opacity="1.0"  filling="0" d="M4.196568489074707 4.259100437164307 L4.196568489074707 4.259100437164307 C5.4004411697387695 5.4599199295043945 2.9945263862609863 5.460633277893066 4.196568489074707 4.259100437164307 L4.196568489074707 4.259100437164307"></path>
<path fill="none" stroke="black" stroke-width=".3" stroke-opacity="1.0"  filling="0" d="M5.588256359100342 4.259100437164307 L5.588256359100342 4.259100437164307 C6.789689064025879 5.460023880004883 4.387189865112305 5.460166931152344 5.588256359100342 4.259100437164307 L5.588256359100342 4.259100437164307"></path>
<path fill="none" stroke="black" stroke-width=".3" stroke-opacity="1.0"  filling="0" d="M21.47332763671875 7.14658784866333 L15.106583595275879 7.14658784866333 L8.739840507507324 7.14658784866333 L2.373096466064453 7.14658784866333 L2.373096466064453 5.921219825744629 L8.739912986755371 5.921219825744629 L15.106728553771973 5.921219825744629 L21.47354507446289 5.921219825744629 L21.47332763671875 7.14658784866333"></path>
<path fill="none" stroke="black" stroke-width=".3" stroke-opacity="1.0"  filling="0" d="M21.47332763671875 17.138532638549805 L14.101247787475586 17.138532638549805 L6.729167938232422 17.138532638549805 L7.5117363929748535 15.68398666381836 L9.378840446472168 16.693140029907227 C9.566597938537598 16.69011116027832 9.770024299621582 16.573999404907227 9.868081092834473 16.41385269165039 L10.154928207397461 9.681995391845703 C10.058501243591309 9.509334564208984 9.833849906921387 9.384422302246094 9.636312484741211 9.393851280212402 L4.008216381072998 13.245779037475586 C3.9254817962646484 13.415776252746582 3.9381206035614014 13.6521635055542 4.038887977600098 13.812131881713867 L5.904696464538574 14.818475723266602 L4.654919624328613 17.13615608215332 L2.373096466064453 17.13615608215332 L2.373096466064453 12.549287796020508 L2.373096466064453 7.9624199867248535 L8.739912986755371 7.9624199867248535 L15.106728553771973 7.9624199867248535 L21.47354507446289 7.9624199867248535 L21.47343635559082 12.55047607421875 L21.47332763671875 17.138532638549805"></path></svg>