<svg xmlns="http://www.w3.org/2000/svg" viewBox="0.0 0.0 24.0 24.0" height="200px" width="200px"><path fill="none" stroke="black" stroke-width=".3" stroke-opacity="1.0"  filling="0" d="M10.992359161376953 -47.90346145629883 L10.992359161376953 -47.90346145629883 C11.53075885772705 -49.204925537109375 13.87509536743164 -50.199737548828125 13.87509536743164 -47.90346145629883 C13.87509536743164 -45.60722732543945 11.530736923217773 -46.60212326049805 10.992359161376953 -47.90353012084961 L10.992359161376953 -47.90353012084961"></path>
<path fill="none" stroke="black" stroke-width=".3" stroke-opacity="1.0"  filling="0" d="M11.879257202148438 -45.18729019165039 L11.879257202148438 -45.18729019165039 C13.872604370117188 -46.34755325317383 16.271591186523438 -46.462486267089844 18.531192779541016 -46.739471435546875 L14.650859832763672 -49.26170349121094 L10.770527839660645 -51.783935546875 L10.38259220123291 -51.06336212158203 C10.197839736938477 -51.211177825927734 10.01308822631836 -51.35898971557617 9.828335762023926 -51.506805419921875 L10.770743370056152 -52.961997985839844 L15.344003677368164 -49.822975158691406 L19.91726303100586 -46.683956146240234 C19.677072525024414 -46.35138702392578 19.436880111694336 -46.01881790161133 19.19668960571289 -45.686248779296875 L15.648887634277344 -44.91017150878906 L17.034744262695312 -38.84013366699219 L16.203144073486328 -33.10274124145508 L14.761775970458984 -33.0472297668457 L15.427055358886719 -38.59065246582031 L14.98360824584961 -39.42203903198242 L12.572183609008789 -35.95750427246094 L10.160759925842285 -32.49297332763672 L8.8859281539917 -33.49089431762695 L11.103275299072266 -36.67829895019531 L13.320623397827148 -39.86570358276367 L11.879257202148438 -45.18729019165039"></path>
<path fill="none" stroke="black" stroke-width=".3" stroke-opacity="1.0"  filling="0" d="M68.57859802246094 -42.70048522949219 L69.96856689453125 -42.70048522949219 L69.96856689453125 -40.419742584228516 L68.57859802246094 -40.419742584228516 L68.57859802246094 -42.70048522949219"></path>
<path fill="none" stroke="black" stroke-width=".3" stroke-opacity="1.0"  filling="0" d="M69.96835327148438 -42.70048522949219 L75.46943664550781 -42.70048522949219 L80.97052764892578 -42.70048522949219 L80.97053527832031 -37.362693786621094 L80.97053527832031 -32.02490234375 L80.97052764892578 -26.687110900878906 L75.46943664550781 -26.687110900878906 L69.96835327148438 -26.687110900878906 L69.96835327148438 -32.02490234375 L69.96835327148438 -37.362693786621094 L69.96835327148438 -42.70048522949219"></path>
<path fill="none" stroke="black" stroke-width=".3" stroke-opacity="1.0"  filling="0" d="M81.7954330444336 -41.536460876464844 L82.9741439819336 -41.536460876464844 L82.9741439819336 -35.820457458496094 L82.9741439819336 -30.104448318481445 L82.9741439819336 -24.388439178466797 L81.7954330444336 -24.388439178466797 L81.7954330444336 -30.104448318481445 L81.7954330444336 -35.820457458496094 L81.7954330444336 -41.536460876464844"></path>
<path fill="none" stroke="black" stroke-width=".3" stroke-opacity="1.0"  filling="0" d="M72.60139465332031 -38.78483963012695 L78.45563507080078 -38.78483963012695 L78.45563507080078 -37.78303146362305 L72.60139465332031 -37.78303146362305 L72.60139465332031 -38.78483963012695"></path>
<path fill="none" stroke="black" stroke-width=".3" stroke-opacity="1.0"  filling="0" d="M-86.5072250366211 -38.17960739135742 L-86.5072250366211 -38.17960739135742 C-88.13933563232422 -36.34659957885742 -89.13961791992188 -34.25825119018555 -89.57778930664062 -32.087467193603516 C-90.01596069335938 -29.916683197021484 -89.89202880859375 -27.66346549987793 -89.27571105957031 -25.500717163085938 C-88.65939331054688 -23.337966918945312 -87.55068969726562 -21.265689849853516 -86.0193099975586 -19.456789016723633 C-84.91938781738281 -18.157535552978516 -83.70841979980469 -17.009004592895508 -82.42064666748047 -15.962469100952148 C-81.13287353515625 -14.915933609008789 -79.76829528808594 -13.971391677856445 -78.36114501953125 -13.08011531829834 C-76.95398712158203 -12.188838958740234 -75.50425720214844 -11.350828170776367 -74.04618835449219 -10.517351150512695 L-74.04618835449219 -9.39263916015625 C-76.18537139892578 -10.12746524810791 -78.49134826660156 -11.130046844482422 -80.71454620361328 -12.385183334350586 C-82.937744140625 -13.64031982421875 -85.0781478881836 -15.148011207580566 -86.88618469238281 -16.89305877685547 C-88.69422149658203 -18.638105392456055 -90.16988372802734 -20.620508193969727 -91.06359100341797 -22.82506561279297 C-91.95729064941406 -25.02962303161621 -92.26903533935547 -27.456336975097656 -91.74922943115234 -30.090003967285156 C-91.445556640625 -31.628625869750977 -90.90609741210938 -33.00432586669922 -90.23291015625 -34.31871795654297 C-89.55973052978516 -35.63311004638672 -88.75282287597656 -36.886199951171875 -87.91425323486328 -38.17960739135742 L-86.5072250366211 -38.17960739135742"></path>
<path fill="none" stroke="black" stroke-width=".3" stroke-opacity="1.0"  filling="0" d="M68.57859802246094 -37.4780387878418 L69.9735336303711 -37.4780387878418 L69.9735336303711 -35.474422454833984 L68.57859802246094 -35.474422454833984 L68.57859802246094 -37.4780387878418"></path>
<path fill="none" stroke="black" stroke-width=".3" stroke-opacity="1.0"  filling="0" d="M72.60139465332031 -36.82463455200195 L78.45563507080078 -36.82463455200195 L78.45563507080078 -35.82283020019531 L72.60139465332031 -35.82283020019531 L72.60139465332031 -36.82463455200195"></path>
<path fill="none" stroke="black" stroke-width=".3" stroke-opacity="1.0"  filling="0" d="M79.51663208007812 -34.48319625854492 L75.56761169433594 -34.48319625854492 L71.61858367919922 -34.48319625854492 L71.61858367919922 -40.15816879272461 L75.56761169433594 -40.15816879272461 L79.51663208007812 -40.15816879272461 L79.51663208007812 -34.48319625854492"></path>
<path fill="none" stroke="black" stroke-width=".3" stroke-opacity="1.0"  filling="0" d="M-100.80296325683594 -34.14105224609375 L-97.48780059814453 -34.14105224609375 L-97.48780059814453 -32.904457092285156 L-100.80296325683594 -32.904457092285156 L-100.80296325683594 -34.14105224609375"></path>
<path fill="none" stroke="black" stroke-width=".3" stroke-opacity="1.0"  filling="0" d="M68.57859802246094 -33.33278274536133 L69.9735336303711 -33.33278274536133 L69.9735336303711 -31.328948974609375 L68.57859802246094 -31.328948974609375 L68.57859802246094 -33.33278274536133"></path>
<path fill="none" stroke="black" stroke-width=".3" stroke-opacity="1.0"  filling="0" d="M-108.52496337890625 -32.29986572265625 L-108.52496337890625 -32.29986572265625 C-110.15707397460938 -30.466856002807617 -111.15735626220703 -28.378507614135742 -111.59553527832031 -26.207725524902344 C-112.0337142944336 -24.036941528320312 -111.90978240966797 -21.78372573852539 -111.29346466064453 -19.6209774017334 C-110.6771469116211 -17.458229064941406 -109.56843566894531 -15.385951042175293 -108.03705596923828 -13.577047348022461 C-106.9371337890625 -12.277791976928711 -105.7261734008789 -11.129262924194336 -104.43840026855469 -10.082728385925293 C-103.15062713623047 -9.03619384765625 -101.78604888916016 -8.091654777526855 -100.37889099121094 -7.200379371643066 C-98.97174072265625 -6.309103965759277 -97.52200317382812 -5.47109317779541 -96.06393432617188 -4.637615203857422 L-96.06393432617188 -3.51290225982666 C-98.20310974121094 -4.247730255126953 -100.50909423828125 -5.250312328338623 -102.73229217529297 -6.505448341369629 C-104.95549011230469 -7.760584831237793 -107.09589385986328 -9.26827621459961 -108.9039306640625 -11.013321876525879 C-110.71196746826172 -12.758367538452148 -112.18762969970703 -14.740769386291504 -113.08133697509766 -16.94532585144043 C-113.97503662109375 -19.149883270263672 -114.28678131103516 -21.576595306396484 -113.76697540283203 -24.21026611328125 C-113.46330261230469 -25.748886108398438 -112.92384338378906 -27.124584197998047 -112.25065612792969 -28.43897819519043 C-111.57746887207031 -29.753372192382812 -110.77056884765625 -31.00646209716797 -109.93199157714844 -32.29986572265625 L-108.52496337890625 -32.29986572265625"></path>
<path fill="none" stroke="black" stroke-width=".3" stroke-opacity="1.0"  filling="0" d="M-94.37610626220703 -30.21460723876953 L-93.78988647460938 -29.628379821777344 L-96.31924438476562 -25.942447662353516 L-98.84860229492188 -22.256515502929688 L-99.45836639404297 -22.646183013916016 L-96.917236328125 -26.430395126342773 L-94.37610626220703 -30.21460723876953"></path>
<path fill="none" stroke="black" stroke-width=".3" stroke-opacity="1.0"  filling="0" d="M68.67213439941406 -28.70886993408203 L69.97331237792969 -28.70886993408203 L69.97331237792969 -26.687328338623047 L68.67213439941406 -26.687328338623047 L68.67213439941406 -28.70886993408203"></path>
<path fill="none" stroke="black" stroke-width=".3" stroke-opacity="1.0"  filling="0" d="M39.62618637084961 -25.96523666381836 L39.62618637084961 -25.96523666381836 C40.1175537109375 -27.222410202026367 41.005516052246094 -28.982412338256836 42.1448974609375 -30.002838134765625 C43.284278869628906 -31.023265838623047 44.675079345703125 -31.30411720275879 46.172122955322266 -29.602989196777344 C46.97400665283203 -28.691787719726562 47.480464935302734 -27.55812644958496 48.13463592529297 -26.535694122314453 L48.13463592529297 -26.535694122314453 C48.567752838134766 -24.466732025146484 48.90805435180664 -23.89040756225586 50.86747360229492 -23.05290985107422 L45.29833984375 -22.031448364257812 L45.569637298583984 -19.736228942871094 L42.533111572265625 -19.736228942871094 L42.774383544921875 -21.913082122802734 C40.83687210083008 -22.55682373046875 39.1950569152832 -22.927507400512695 37.14844512939453 -22.88378143310547 L39.62618637084961 -25.96523666381836"></path>
<path fill="none" stroke="black" stroke-width=".3" stroke-opacity="1.0"  filling="0" d="M68.57859802246094 -25.523517608642578 L75.77442932128906 -25.523517608642578 L82.97025299072266 -25.523517608642578 L82.97025299072266 -24.344806671142578 L75.77442932128906 -24.344806671142578 L68.57859802246094 -24.344806671142578 L68.57859802246094 -25.523517608642578"></path>
<path fill="none" stroke="black" stroke-width=".3" stroke-opacity="1.0"  filling="0" d="M-111.09278106689453 -22.256515502929688 L-107.77761840820312 -22.256515502929688 L-107.77761840820312 -21.019916534423828 L-111.09278106689453 -21.019916534423828 L-111.09278106689453 -22.256515502929688"></path>
<path fill="none" stroke="black" stroke-width=".3" stroke-opacity="1.0"  filling="0" d="M-88.01144409179688 -22.256515502929688 L-84.69628143310547 -22.256515502929688 L-84.69628143310547 -21.019916534423828 L-88.01144409179688 -21.019916534423828 L-88.01144409179688 -22.256515502929688"></path>
<path fill="none" stroke="black" stroke-width=".3" stroke-opacity="1.0"  filling="0" d="M-101.05049133300781 -21.363792419433594 L-101.05049133300781 -21.363792419433594 C-100.5716552734375 -22.52902603149414 -98.48573303222656 -23.409969329833984 -98.48573303222656 -21.363792419433594 C-98.48573303222656 -19.317611694335938 -100.57166290283203 -20.198564529418945 -101.05049133300781 -21.363792419433594 L-101.05049133300781 -21.363792419433594"></path>
<path fill="none" stroke="black" stroke-width=".3" stroke-opacity="1.0"  filling="0" d="M-99.14559936523438 -20.081615447998047 L-98.65117645263672 -20.7352294921875 L-93.39093017578125 -16.453462600708008 L-94.37610626220703 -15.07754135131836 L-99.14559936523438 -20.081615447998047"></path>
<path fill="none" stroke="black" stroke-width=".3" stroke-opacity="1.0"  filling="0" d="M42.49185562133789 -19.528656005859375 L45.66273498535156 -19.528656005859375 L47.605655670166016 -18.369598388671875 L40.41112518310547 -18.369598388671875 L42.49185562133789 -19.528656005859375"></path>
<path fill="none" stroke="black" stroke-width=".3" stroke-opacity="1.0"  filling="0" d="M48.546119689941406 -17.90412139892578 L48.546119689941406 -17.90412139892578 C49.04355239868164 -17.469308853149414 49.69217300415039 -17.162370681762695 50.038414001464844 -16.599685668945312 C51.111995697021484 -14.854987144470215 50.37506103515625 -12.291731834411621 49.7835807800293 -10.527935028076172 L44.05375289916992 -10.525774002075195 L44.083126068115234 -15.61689567565918 L48.546119689941406 -17.90412139892578"></path>
<path fill="none" stroke="black" stroke-width=".3" stroke-opacity="1.0"  filling="0" d="M39.58103942871094 -17.902606964111328 L44.083343505859375 -15.617111206054688 L44.39438247680664 -10.5240478515625 L38.34357452392578 -10.526422500610352 C37.752098083496094 -12.290218353271484 37.015167236328125 -14.853475570678711 38.0887451171875 -16.59817123413086 C38.43498611450195 -17.160856246948242 39.0836067199707 -17.46779441833496 39.58103942871094 -17.902606964111328 L39.58103942871094 -17.902606964111328"></path>
<path fill="none" stroke="black" stroke-width=".3" stroke-opacity="1.0"  filling="0" d="M91.49642181396484 -14.200366973876953 L91.49642181396484 -14.200366973876953 C93.21743774414062 -14.026871681213379 94.82149505615234 -13.653740882873535 96.24739837646484 -12.950068473815918 C97.67330932617188 -12.2463960647583 98.92106628417969 -11.212182998657227 99.92947387695312 -9.716521263122559 C101.42002868652344 -7.505746841430664 101.86783599853516 -5.00704288482666 101.50646209716797 -2.6580045223236084 C101.14508056640625 -0.30896592140197754 99.97451782226562 1.8904073238372803 98.22833251953125 3.50252103805542 C96.48213958740234 5.1146345138549805 94.16031646728516 6.139488697052002 91.49642181396484 6.139488697052002 C88.83251953125 6.139488697052002 86.51065063476562 5.114650726318359 84.76441955566406 3.5025527477264404 C83.01818084716797 1.890454888343811 81.84756469726562 -0.3089025318622589 81.48616790771484 -2.6579411029815674 C81.12476348876953 -5.006979465484619 81.57257080078125 -7.505699157714844 83.06317138671875 -9.716521263122559 C84.07160949707031 -11.212207794189453 85.31939697265625 -12.246421813964844 86.74534606933594 -12.950088500976562 C88.17129516601562 -13.653755187988281 89.775390625 -14.026873588562012 91.49642181396484 -14.200366973876953 L91.49642181396484 -14.200366973876953"></path>
<path fill="none" stroke="black" stroke-width=".3" stroke-opacity="1.0"  filling="0" d="M-101.11573028564453 -10.684318542480469 L-97.80056762695312 -10.684318542480469 L-97.80056762695312 -9.44771957397461 L-101.11573028564453 -9.44771957397461 L-101.11573028564453 -10.684318542480469"></path>
<path fill="none" stroke="black" stroke-width=".3" stroke-opacity="1.0"  filling="0" d="M-41.88529968261719 -9.082490921020508 L-41.88529968261719 -9.082490921020508 C-41.61872100830078 -10.4127197265625 -41.275394439697266 -11.47283935546875 -39.88996887207031 -12.041277885437012 C-37.813392639160156 -12.893294334411621 -35.418888092041016 -11.348312377929688 -35.41869354248047 -9.083029747009277 C-35.41849899291992 -6.817570686340332 -37.812232971191406 -5.271562576293945 -39.889469146728516 -6.123444080352783 C-41.27499008178711 -6.691650390625 -41.618492126464844 -7.751712799072266 -41.88529968261719 -9.081897735595703 L-41.88529968261719 -9.081897735595703"></path>
<path fill="none" stroke="black" stroke-width=".3" stroke-opacity="1.0"  filling="0" d="M-35.41847610473633 -9.082490921020508 L-35.41847610473633 -9.082490921020508 C-35.15189743041992 -10.412718772888184 -34.808570861816406 -11.4728422164917 -33.42314910888672 -12.041277885437012 C-31.34657096862793 -12.893294334411621 -28.952062606811523 -11.348313331604004 -28.95186996459961 -9.083029747009277 C-28.951677322387695 -6.817573070526123 -31.345413208007812 -5.2715630531311035 -33.422645568847656 -6.123444080352783 C-34.80816650390625 -6.691651344299316 -35.151668548583984 -7.75171422958374 -35.41847610473633 -9.081897735595703 L-35.41847610473633 -9.081897735595703"></path>
<path fill="none" stroke="black" stroke-width=".3" stroke-opacity="1.0"  filling="0" d="M-12.383590698242188 -8.00851058959961 L-12.383590698242188 -8.00851058959961 C-11.8065824508667 -7.769515514373779 -11.094186782836914 -7.7331461906433105 -10.652566909790039 -7.291525840759277 C-9.136345863342285 -5.775304794311523 -10.239449501037598 -3.1126556396484375 -12.383590698242188 -3.1126556396484375 C-14.527708053588867 -3.1126556396484375 -15.631285667419434 -5.775178909301758 -14.1148042678833 -7.291525840759277 C-13.673123359680176 -7.73316764831543 -12.960661888122559 -7.769515514373779 -12.383590698242188 -8.00851058959961 L-12.383590698242188 -8.00851058959961"></path>
<path fill="none" stroke="black" stroke-width=".3" stroke-opacity="1.0"  filling="0" d="M-26.96661376953125 -6.733245849609375 L-26.96661376953125 -1.3276309967041016 L-31.277969360351562 -2.707223892211914 L-31.277969360351562 -5.18971061706543 L-26.96661376953125 -6.733245849609375"></path>
<path fill="none" stroke="black" stroke-width=".3" stroke-opacity="1.0"  filling="0" d="M-40.225337982177734 -6.177478790283203 L-35.45703125 -6.177478790283203 L-30.688724517822266 -6.177478790283203 L-30.688724517822266 -1.3274154663085938 L-35.45703125 -1.3274154663085938 L-40.225337982177734 -1.3274154663085938 L-40.225337982177734 -6.177478790283203"></path>
<path fill="none" stroke="black" stroke-width=".3" stroke-opacity="1.0"  filling="0" d="M-12.383590698242188 -4.575191497802734 L-12.383590698242188 -4.575191497802734 C-12.712054252624512 -4.903583526611328 -13.368982315063477 -5.095900535583496 -13.368982315063477 -5.560367584228516 C-13.368982315063477 -6.873935699462891 -11.398199081420898 -6.873935699462891 -11.398199081420898 -5.560367584228516 C-11.398199081420898 -5.095900535583496 -12.055127143859863 -4.903583526611328 -12.383590698242188 -4.575191497802734 L-12.383590698242188 -4.575191497802734"></path>
<path fill="none" stroke="black" stroke-width=".3" stroke-opacity="1.0"  filling="0" d="M-106.7144546508789 -4.193519592285156 L-104.65015411376953 -3.3178558349609375 L-105.68218994140625 1.185744285583496 L-108.778564453125 -0.06511116027832031 L-106.7144546508789 -4.193519592285156"></path>
<path fill="none" stroke="black" stroke-width=".3" stroke-opacity="1.0"  filling="0" d="M93.47195434570312 -4.03367805480957 L93.12593078613281 -3.786789894104004 L89.15886688232422 -8.277647018432617 L89.433837890625 -8.555206298828125 L93.47195434570312 -4.03367805480957"></path>
<path fill="none" stroke="black" stroke-width=".3" stroke-opacity="1.0"  filling="0" d="M-86.35387420654297 -3.067511558532715 L-84.2586669921875 -4.193519592285156 L-81.38133239746094 1.4360876083374023 L-84.69628143310547 3.0360002517700195 L-86.35387420654297 -3.067511558532715"></path>
<path fill="none" stroke="black" stroke-width=".3" stroke-opacity="1.0"  filling="0" d="M-31.277969360351562 -1.9950714111328125 L-31.94217300415039 -1.9950714111328125 L-31.94217300415039 -5.628622055053711 L-31.277969360351562 -5.628622055053711 L-31.277969360351562 -1.9950714111328125"></path>
<path fill="none" stroke="black" stroke-width=".3" stroke-opacity="1.0"  filling="0" d="M-36.86870193481445 -1.5436315536499023 L-33.587013244628906 -1.5436315536499023 L-33.587013244628906 1.9618330001831055 L-36.86870193481445 1.9618330001831055 L-36.86870193481445 -1.5436315536499023"></path>
<path fill="none" stroke="black" stroke-width=".3" stroke-opacity="1.0"  filling="0" d="M89.38783264160156 0.4053363800048828 L93.2911605834961 -4.23326301574707 L93.57391357421875 -3.9641284942626953 L89.7409896850586 0.6416406631469727 L89.38783264160156 0.4053363800048828"></path>
<path fill="none" stroke="black" stroke-width=".3" stroke-opacity="1.0"  filling="0" d="M-35.89799499511719 1.7460479736328125 L-34.51148986816406 1.7460479736328125 L-34.51148986816406 7.570487976074219 L-35.89799499511719 7.570487976074219 L-35.89799499511719 1.7460479736328125"></path>
<path fill="none" stroke="black" stroke-width=".3" stroke-opacity="1.0"  filling="0" d="M2.0996408462524414 3.6144485473632812 L8.675400733947754 3.6144485473632812 L15.251160621643066 3.6144485473632812 L21.826919555664062 3.6144485473632812 L21.826919555664062 11.025732040405273 L21.826919555664062 18.437015533447266 L15.251160621643066 18.437015533447266 L8.675400733947754 18.437015533447266 L2.0996408462524414 18.437015533447266 L2.0996408462524414 11.025732040405273 L2.0996408462524414 3.6144485473632812"></path>
<path fill="none" stroke="black" stroke-width=".3" stroke-opacity="1.0"  filling="0" d="M39.64000701904297 4.616968631744385 L39.64000701904297 4.616968631744385 C39.981163024902344 2.878166675567627 40.41444778442383 1.4647583961486816 42.22138977050781 0.7076961994171143 C43.589599609375 0.13445055484771729 45.03556823730469 0.37830084562301636 46.13948059082031 1.1321964263916016 C47.2433967590332 1.8860920667648315 48.00525665283203 3.1500329971313477 48.00525665283203 4.616968631744385 C48.00525665283203 6.08388614654541 47.243370056152344 7.34778356552124 46.139442443847656 8.101645469665527 C45.03551483154297 8.855507850646973 43.58954620361328 9.099334716796875 42.22138977050781 8.52611255645752 C40.41444778442383 7.7690510749816895 39.981163024902344 6.355640411376953 39.64000701904297 4.61683988571167 L39.64000701904297 4.61683988571167"></path>
<path fill="none" stroke="black" stroke-width=".3" stroke-opacity="1.0"  filling="0" d="M91.46121215820312 4.867464542388916 L91.46121215820312 4.867464542388916 C89.74433898925781 4.669711112976074 88.14668273925781 4.24486780166626 86.77788543701172 3.4587924480438232 C85.40908813476562 2.6727170944213867 84.26914978027344 1.5254099369049072 83.46769714355469 -0.11727122962474823 C82.52201080322266 -2.0555825233459473 82.37594604492188 -4.125112533569336 82.84117126464844 -6.023015022277832 C83.30638885498047 -7.92091703414917 84.38288879394531 -9.647192001342773 85.88233947753906 -10.898992538452148 C87.38179016113281 -12.150793075561523 89.30419921875 -12.928119659423828 91.46121215820312 -12.928125381469727 C93.61822509765625 -12.928131103515625 95.5406265258789 -12.15080451965332 97.04008483886719 -10.898999214172363 C98.53953552246094 -9.647193908691406 99.61604309082031 -7.9209113121032715 100.08126068115234 -6.02300500869751 C100.54647827148438 -4.125098705291748 100.40039825439453 -2.0555694103240967 99.4546890258789 -0.11727123707532883 C98.65322875976562 1.5253746509552002 97.51329040527344 2.6726794242858887 96.14450073242188 3.4587621688842773 C94.77571105957031 4.244844913482666 93.17807006835938 4.669706344604492 91.46121215820312 4.867464542388916 L91.46121215820312 4.867464542388916"></path>
<path fill="none" stroke="black" stroke-width=".3" stroke-opacity="1.0"  filling="0" d="M15.010607719421387 6.666096210479736 L18.1709041595459 6.666096210479736 L18.1709041595459 9.82703971862793 L15.010607719421387 9.82703971862793 L15.010607719421387 6.666096210479736"></path>
<path fill="none" stroke="black" stroke-width=".3" stroke-opacity="1.0"  filling="0" d="M-39.13130187988281 6.76956033706665 L-36.64557647705078 0.7604408264160156 L-35.89799499511719 1.9620485305786133 L-38.35586166381836 7.324032306671143 L-39.13130187988281 6.76956033706665"></path>
<path fill="none" stroke="black" stroke-width=".3" stroke-opacity="1.0"  filling="0" d="M-31.27819061279297 6.76956033706665 L-32.05363082885742 7.324032306671143 L-34.51148986816406 1.9620485305786133 L-33.763916015625 0.7604408264160156 L-31.27819061279297 6.76956033706665"></path>
<path fill="none" stroke="black" stroke-width=".3" stroke-opacity="1.0"  filling="0" d="M6.163248538970947 10.069607734680176 L10.211520195007324 10.069607734680176 L14.25979232788086 10.069607734680176 L14.25979232788086 11.4345121383667 L10.211520195007324 11.4345121383667 L6.163248538970947 11.4345121383667 L6.163248538970947 10.069607734680176"></path>
<path fill="none" stroke="black" stroke-width=".3" stroke-opacity="1.0"  filling="0" d="M43.58416748046875 9.795072555541992 L41.63584518432617 11.737991333007812 L41.389610290527344 11.108352661132812"></path>
<path fill="none" stroke="black" stroke-width=".3" stroke-opacity="1.0"  filling="0" d="M44.008174896240234 9.771528244018555 L46.049591064453125 11.714231491088867 L46.255653381347656 11.108352661132812"></path>
<path fill="none" stroke="black" stroke-width=".3" stroke-opacity="1.0"  filling="0" d="M6.163248538970947 12.046224594116211 L10.211520195007324 12.046224594116211 L14.25979232788086 12.046224594116211 L14.25979232788086 13.411128997802734 L10.211520195007324 13.411128997802734 L6.163248538970947 13.411128997802734 L6.163248538970947 12.046224594116211"></path>
<path fill="none" stroke="black" stroke-width=".3" stroke-opacity="1.0"  filling="0" d="M41.714256286621094 12.103464126586914 L43.783966064453125 10.011072158813477 L46.01092529296875 12.070631980895996 L43.96497344970703 18.437015533447266 L41.714256286621094 12.103464126586914"></path>
<path fill="none" stroke="black" stroke-width=".3" stroke-opacity="1.0"  filling="0" d="M48.55799865722656 14.565000534057617 L50.60567855834961 14.565000534057617 L50.60567855834961 14.790071487426758 L48.55799865722656 14.790071487426758 L48.55799865722656 14.565000534057617"></path>
<path fill="none" stroke="black" stroke-width=".3" stroke-opacity="1.0"  filling="0" d="M-103.72761535644531 16.449600219726562 L-103.72761535644531 16.449600219726562 C-101.87348175048828 16.61578941345215 -100.13604736328125 17.056167602539062 -98.61762237548828 17.87335777282715 C-97.09920501708984 18.690547943115234 -95.7998046875 19.88454818725586 -94.8217544555664 21.5579833984375 C-93.50554656982422 23.80999755859375 -93.18775939941406 26.285070419311523 -93.63855743408203 28.584272384643555 C-94.08935546875 30.88347625732422 -95.3087387084961 33.006805419921875 -97.06686401367188 34.555335998535156 C-98.82498931884766 36.10386657714844 -101.12185668945312 37.077598571777344 -103.72761535644531 37.077598571777344 C-106.3333740234375 37.077598571777344 -108.63024139404297 36.10386657714844 -110.38835906982422 34.55533218383789 C-112.146484375 33.00680160522461 -113.3658676147461 30.883468627929688 -113.81666564941406 28.584266662597656 C-114.26747131347656 26.285064697265625 -113.9496841430664 23.809993743896484 -112.63346862792969 21.5579833984375 C-111.65541076660156 19.884552001953125 -110.35601043701172 18.690549850463867 -108.83759307861328 17.87335968017578 C-107.31918334960938 17.056169509887695 -105.58174133300781 16.61579132080078 -103.72761535644531 16.449600219726562 L-103.72761535644531 16.449600219726562"></path>
<path fill="none" stroke="black" stroke-width=".3" stroke-opacity="1.0"  filling="0" d="M50.781070709228516 16.47119903564453 L48.34199523925781 16.47119903564453 L48.125999450683594 14.189592361450195 L50.997074127197266 14.189592361450195 L50.781070709228516 16.47119903564453"></path>
<path fill="none" stroke="black" stroke-width=".3" stroke-opacity="1.0"  filling="0" d="M19.215911865234375 16.56127166748047 L11.96317195892334 16.56127166748047 L4.710432529449463 16.56127166748047 L4.710432529449463 11.112024307250977 L4.710432529449463 5.662776470184326 L11.96317195892334 5.662776470184326 L19.215911865234375 5.662776470184326 L19.215911865234375 11.112024307250977 L19.215911865234375 16.56127166748047"></path>
<path fill="none" stroke="black" stroke-width=".3" stroke-opacity="1.0"  filling="0" d="M98.02307891845703 17.167800903320312 L100.3111572265625 17.167800903320312 L100.3111572265625 22.600849151611328 L100.3111572265625 28.03389549255371 L100.3111572265625 33.466941833496094 L98.02307891845703 33.466941833496094 L98.02308654785156 28.03389549255371 L98.02308654785156 22.600849151611328 L98.02307891845703 17.167800903320312"></path>
<path fill="none" stroke="black" stroke-width=".3" stroke-opacity="1.0"  filling="0" d="M114.39134216308594 17.167800903320312 L116.67877197265625 17.167800903320312 L116.67877197265625 22.600849151611328 L116.67877197265625 28.03389549255371 L116.67877197265625 33.466941833496094 L114.39134216308594 33.466941833496094 L114.39134216308594 28.03389549255371 L114.39134216308594 22.600849151611328 L114.39134216308594 17.167800903320312"></path>
<path fill="none" stroke="black" stroke-width=".3" stroke-opacity="1.0"  filling="0" d="M112.0702133178711 18.373727798461914 L112.0702133178711 18.373727798461914 C111.66967010498047 18.774335861206055 111.43508911132812 19.575550079345703 110.86859130859375 19.575550079345703 C110.30204772949219 19.575550079345703 110.06737518310547 18.774335861206055 109.6667709350586 18.373727798461914 L109.6667709350586 15.962736129760742 C110.06737518310547 15.562128067016602 110.30204772949219 14.76091194152832 110.86859130859375 14.76091194152832 C111.43508911132812 14.76091194152832 111.66967010498047 15.562128067016602 112.0702133178711 15.962736129760742 L112.0702133178711 18.373727798461914"></path>
<path fill="none" stroke="black" stroke-width=".3" stroke-opacity="1.0"  filling="0" d="M104.98799896240234 18.423839569091797 L104.98799896240234 18.423839569091797 C104.58746337890625 18.824447631835938 104.3528823852539 19.62566566467285 103.78638458251953 19.62566566467285 C103.21984100341797 19.62566566467285 102.98516845703125 18.824447631835938 102.58455657958984 18.423839569091797 L102.58455657958984 16.012414932250977 C102.98516845703125 15.611879348754883 103.21988677978516 14.810808181762695 103.78638458251953 14.810808181762695 C104.35282897949219 14.810808181762695 104.58746337890625 15.611879348754883 104.98799896240234 16.012414932250977 L104.98799896240234 18.423839569091797"></path>
<path fill="none" stroke="black" stroke-width=".3" stroke-opacity="1.0"  filling="0" d="M52.434120178222656 18.955848693847656 L52.434120178222656 14.999160766601562 L52.434120178222656 11.042471885681152 C51.021236419677734 9.549935340881348 50.34666061401367 9.372366905212402 48.31110763549805 9.548616409301758 L46.49638366699219 15.002724647521973 L44.68165969848633 20.456832885742188"></path>
<path fill="none" stroke="black" stroke-width=".3" stroke-opacity="1.0"  filling="0" d="M35.21352005004883 18.956064224243164 L35.21352005004883 14.99937629699707 L35.21352005004883 11.042688369750977 C36.62620162963867 9.550114631652832 37.30066680908203 9.372581481933594 39.336097717285156 9.548831939697266 L41.15103530883789 15.002832412719727 L42.965972900390625 20.456832885742188"></path>
<path fill="none" stroke="black" stroke-width=".3" stroke-opacity="1.0"  filling="0" d="M101.51298522949219 21.866016387939453 L103.91664123535156 21.866016387939453 L103.91664123535156 24.1385498046875 L101.51298522949219 24.1385498046875 L101.51298522949219 21.866016387939453"></path>
<path fill="none" stroke="black" stroke-width=".3" stroke-opacity="1.0"  filling="0" d="M106.14920806884766 21.866016387939453 L108.5530776977539 21.866016387939453 L108.5530776977539 24.1385498046875 L106.14920806884766 24.1385498046875 L106.14920806884766 21.866016387939453"></path>
<path fill="none" stroke="black" stroke-width=".3" stroke-opacity="1.0"  filling="0" d="M110.86837768554688 21.866016387939453 L113.27181243896484 21.866016387939453 L113.27181243896484 24.1385498046875 L110.86837768554688 24.1385498046875 L110.86837768554688 21.866016387939453"></path>
<path fill="none" stroke="black" stroke-width=".3" stroke-opacity="1.0"  filling="0" d="M-102.83380126953125 23.84543800354004 L-102.83380126953125 25.362838745117188 L-104.3511962890625 25.362838745117188 L-104.3511962890625 23.84543800354004 L-102.83380126953125 23.84543800354004"></path>
<path fill="none" stroke="black" stroke-width=".3" stroke-opacity="1.0"  filling="0" d="M-101.30755615234375 25.357437133789062 L-101.30755615234375 26.874839782714844 L-102.82494354248047 26.874839782714844 L-102.82494354248047 25.357437133789062 L-101.30755615234375 25.357437133789062"></path>
<path fill="none" stroke="black" stroke-width=".3" stroke-opacity="1.0"  filling="0" d="M-104.33219146728516 25.370830535888672 L-104.33219146728516 26.888233184814453 L-105.8495864868164 26.888233184814453 L-105.8495864868164 25.370830535888672 L-104.33219146728516 25.370830535888672"></path>
<path fill="none" stroke="black" stroke-width=".3" stroke-opacity="1.0"  filling="0" d="M101.51298522949219 26.496837615966797 L103.91664123535156 26.496837615966797 L103.91664123535156 28.769590377807617 L101.51298522949219 28.769590377807617 L101.51298522949219 26.496837615966797"></path>
<path fill="none" stroke="black" stroke-width=".3" stroke-opacity="1.0"  filling="0" d="M106.14920806884766 26.496837615966797 L108.5530776977539 26.496837615966797 L108.5530776977539 28.769590377807617 L106.14920806884766 28.769590377807617 L106.14920806884766 26.496837615966797"></path>
<path fill="none" stroke="black" stroke-width=".3" stroke-opacity="1.0"  filling="0" d="M110.86837768554688 26.496837615966797 L113.27181243896484 26.496837615966797 L113.27181243896484 28.769590377807617 L110.86837768554688 28.769590377807617 L110.86837768554688 26.496837615966797"></path>
<path fill="none" stroke="black" stroke-width=".3" stroke-opacity="1.0"  filling="0" d="M-99.79014587402344 26.882831573486328 L-99.79014587402344 28.400232315063477 L-101.30755615234375 28.400232315063477 L-101.30755615234375 26.882831573486328 L-99.79014587402344 26.882831573486328"></path>
<path fill="none" stroke="black" stroke-width=".3" stroke-opacity="1.0"  filling="0" d="M-105.83079528808594 26.896438598632812 L-105.83079528808594 28.413837432861328 L-107.34819793701172 28.413837432861328 L-107.34819793701172 26.896438598632812 L-105.83079528808594 26.896438598632812"></path>
<path fill="none" stroke="black" stroke-width=".3" stroke-opacity="1.0"  filling="0" d="M-10.562061309814453 28.066728591918945 L-11.142454147338867 27.909046173095703 C-9.694328308105469 27.184986114501953 -10.002535820007324 26.637699127197266 -9.950567245483398 25.117462158203125 L-9.950567245483398 25.117462158203125 C-9.631697654724121 24.835176467895508 -9.419824600219727 24.270606994628906 -8.99395751953125 24.270606994628906 C-8.17041015625 24.270606994628906 -7.4466423988342285 24.835176467895508 -6.672985076904297 25.117462158203125 L-6.672985076904297 26.842437744140625 C-6.381964683532715 27.18202781677246 -5.698462963104248 27.929529190063477 -6.124128341674805 28.066728591918945 L-6.124128341674805 28.066728591918945 C-5.150119304656982 28.40771484375 -5.487525939941406 28.146526336669922 -6.939094543457031 29.053848266601562 L-7.4415130615234375 27.97168731689453 L-7.880640029907227 27.688941955566406 C-8.21352481842041 27.572362899780273 -8.563002586364746 27.469268798828125 -8.91571044921875 27.469268798828125 L-9.793966293334961 27.751800537109375 L-9.527421951293945 28.253999710083008 C-9.762646675109863 28.545095443725586 -9.997870445251465 28.836191177368164 -10.233095169067383 29.127286911010742 L-10.233095169067383 29.127286911010742 C-10.48927116394043 28.851886749267578 -10.890192985534668 28.660329818725586 -11.001623153686523 28.301088333129883 C-11.05081558227539 28.142498016357422 -10.708581924438477 28.144847869873047 -10.562061309814453 28.066728591918945 L-10.562061309814453 28.066728591918945"></path>
<path fill="none" stroke="black" stroke-width=".3" stroke-opacity="1.0"  filling="0" d="M-18.56399917602539 28.38899803161621 L-18.56399917602539 28.38899803161621 C-17.94365692138672 29.426000595092773 -16.661531448364258 29.939306259155273 -15.539134979248047 30.386999130249023 L-15.539134979248047 30.386999130249023"></path>
<path fill="none" stroke="black" stroke-width=".3" stroke-opacity="1.0"  filling="0" d="M-98.27836608886719 28.398717880249023 L-98.27836608886719 29.916120529174805 L-99.79576110839844 29.916120529174805 L-99.79576110839844 28.398717880249023 L-98.27836608886719 28.398717880249023"></path>
<path fill="none" stroke="black" stroke-width=".3" stroke-opacity="1.0"  filling="0" d="M-107.34819793701172 28.41556739807129 L-107.34819793701172 29.932966232299805 L-108.86560821533203 29.932966232299805 L-108.86560821533203 28.41556739807129 L-107.34819793701172 28.41556739807129"></path>
<path fill="none" stroke="black" stroke-width=".3" stroke-opacity="1.0"  filling="0" d="M98.02307891845703 30.98963737487793 L104.24165344238281 30.989639282226562 L110.46021270751953 30.989639282226562 L116.67877197265625 30.98963737487793 L116.67877197265625 33.466941833496094 L110.46021270751953 33.466941833496094 L104.24165344238281 33.466941833496094 L98.02307891845703 33.466941833496094 L98.02307891845703 30.98963737487793"></path>
<path fill="none" stroke="black" stroke-width=".3" stroke-opacity="1.0"  filling="0" d="M-28.946903228759766 31.099151611328125 L-28.946903228759766 31.099151611328125 C-29.120494842529297 31.272743225097656 -29.294086456298828 31.446334838867188 -29.46767807006836 31.61992645263672 L-30.374011993408203 31.61992645263672 C-30.547605514526367 31.446334838867188 -30.894790649414062 31.344648361206055 -30.894790649414062 31.099151611328125 C-30.894790649414062 30.853654861450195 -30.547605514526367 30.75196647644043 -30.374011993408203 30.5783748626709 L-29.46767807006836 30.5783748626709 C-29.294086456298828 30.75196647644043 -29.120494842529297 30.925559997558594 -28.946903228759766 31.099151611328125 L-28.946903228759766 31.099151611328125"></path>
<path fill="none" stroke="black" stroke-width=".3" stroke-opacity="1.0"  filling="0" d="M9.597864151000977 32.814842224121094 L9.597864151000977 32.814842224121094 C9.995479583740234 31.332759857177734 9.870640754699707 30.63072967529297 11.352972030639648 29.774906158447266 C13.652593612670898 28.447219848632812 16.618295669555664 30.159469604492188 16.618295669555664 32.814842224121094 C16.618295669555664 35.470218658447266 13.652591705322266 37.182464599609375 11.352972030639648 35.85477828979492 C9.870638847351074 34.99895095825195 9.995481491088867 34.29692840576172 9.597864151000977 32.814842224121094 L9.597864151000977 32.814842224121094"></path>
<path fill="none" stroke="black" stroke-width=".3" stroke-opacity="1.0"  filling="0" d="M17.708663940429688 32.814842224121094 L17.708663940429688 32.814842224121094 C18.106279373168945 31.332759857177734 17.981441497802734 30.63072967529297 19.46377182006836 29.774906158447266 C21.76339340209961 28.447219848632812 24.729095458984375 30.159469604492188 24.729095458984375 32.814842224121094 C24.729095458984375 35.470218658447266 21.763389587402344 37.182464599609375 19.46377182006836 35.85477828979492 C17.9814395904541 34.99895095825195 18.106281280517578 34.29692840576172 17.708663940429688 32.814842224121094 L17.708663940429688 32.814842224121094"></path>
<path fill="none" stroke="black" stroke-width=".3" stroke-opacity="1.0"  filling="0" d="M24.003982543945312 37.02770233154297 L24.003982543945312 37.02770233154297 C24.586807250976562 37.26911926269531 25.10079002380371 37.78316879272461 25.34210205078125 38.36603927612305 L25.34210205078125 45.58562469482422 C25.100765228271484 46.16848373413086 24.586816787719727 46.68256378173828 24.003982543945312 46.92395782470703 L17.27655601501465 46.92395782470703 L10.549128532409668 46.92395782470703 C9.966300964355469 46.68254852294922 9.452388763427734 46.16846466064453 9.211008071899414 45.58562469482422 L9.211008071899414 38.36603927612305 C9.452388763427734 37.783199310302734 9.966300964355469 37.26911544799805 10.549128532409668 37.02770233154297 L17.27655601501465 37.02770233154297 L24.003982543945312 37.02770233154297"></path>
<path fill="none" stroke="black" stroke-width=".3" stroke-opacity="1.0"  filling="0" d="M29.0754451751709 38.7947998046875 L29.0754451751709 45.157081604003906 L25.126319885253906 43.62153244018555 L25.126319885253906 40.47679138183594 L29.0754451751709 38.7947998046875"></path>
<path fill="none" stroke="black" stroke-width=".3" stroke-opacity="1.0"  filling="0" d="M23.26483154296875 39.718196868896484 L23.26483154296875 39.718196868896484 C23.019527435302734 39.47282028198242 22.528919219970703 39.32903289794922 22.528919219970703 38.98207092285156 C22.528919219970703 38.0008544921875 24.000743865966797 38.0008544921875 24.000743865966797 38.98207092285156 C24.000743865966797 39.32903289794922 23.510135650634766 39.47282028198242 23.26483154296875 39.718196868896484 L23.26483154296875 39.718196868896484"></path>
<path fill="none" stroke="black" stroke-width=".3" stroke-opacity="1.0"  filling="0" d="M21.1908016204834 44.71924591064453 L17.27666473388672 44.71924591064453 L13.362527847290039 44.71924591064453 L13.362527847290039 39.23284912109375 L17.27666473388672 39.23284912109375 L21.1908016204834 39.23284912109375 L21.1908016204834 44.71924591064453"></path>
<path fill="none" stroke="black" stroke-width=".3" stroke-opacity="1.0"  filling="0" d="M56.07393264770508 62.25823211669922 L56.07393264770508 62.25823211669922 C56.93509292602539 62.6148796081543 57.69449996948242 63.374351501464844 58.05120086669922 64.23548889160156 L58.05120086669922 70.67056274414062 L58.05120086669922 77.10563659667969 C57.69448471069336 77.96676635742188 56.93507766723633 78.72621154785156 56.07393264770508 79.08290100097656 L51.06324005126953 79.08290100097656 L46.05254364013672 79.08290100097656 L41.041847229003906 79.08290100097656 C40.180694580078125 78.72623443603516 39.421321868896484 77.96675872802734 39.06458282470703 77.10563659667969 L39.06458282470703 70.67056274414062 L39.06458282470703 64.23548889160156 C39.42129898071289 63.374359130859375 40.18070602416992 62.61492156982422 41.041847229003906 62.25823211669922 L46.05254364013672 62.25823211669922 L51.06324005126953 62.25823211669922 L56.07393264770508 62.25823211669922"></path>
<path fill="none" stroke="black" stroke-width=".3" stroke-opacity="1.0"  filling="0" d="M44.310142517089844 65.56324768066406 L44.310142517089844 65.56324768066406 C43.958351135253906 65.91497039794922 43.752227783203125 66.618408203125 43.25476837158203 66.618408203125 C42.757362365722656 66.618408203125 42.551326751708984 65.91497039794922 42.199607849121094 65.56324768066406 L42.199607849121094 61.547157287597656 C42.551326751708984 61.195438385009766 42.757362365722656 60.49199676513672 43.25476837158203 60.49199676513672 C43.752227783203125 60.49199676513672 43.958351135253906 61.195438385009766 44.310142517089844 61.547157287597656 L44.310142517089844 65.56324768066406"></path>
<path fill="none" stroke="black" stroke-width=".3" stroke-opacity="1.0"  filling="0" d="M47.69658660888672 65.56324768066406 L47.69658660888672 65.56324768066406 C47.34486770629883 65.91497039794922 47.13883590698242 66.618408203125 46.64142990112305 66.618408203125 C46.14402389526367 66.618408203125 45.937992095947266 65.91497039794922 45.586273193359375 65.56324768066406 L45.586273193359375 61.547157287597656 C45.937992095947266 61.195438385009766 46.14402389526367 60.49199676513672 46.64142990112305 60.49199676513672 C47.13883590698242 60.49199676513672 47.34486770629883 61.195438385009766 47.69658660888672 61.547157287597656 L47.69658660888672 65.56324768066406"></path>
<path fill="none" stroke="black" stroke-width=".3" stroke-opacity="1.0"  filling="0" d="M51.47594451904297 65.56324768066406 L51.47594451904297 65.56324768066406 C51.124080657958984 65.91497039794922 50.9178581237793 66.618408203125 50.42034912109375 66.618408203125 C49.922943115234375 66.618408203125 49.71691131591797 65.91497039794922 49.36519241333008 65.56324768066406 L49.36519241333008 61.547157287597656 C49.71691131591797 61.195438385009766 49.922943115234375 60.49199676513672 50.42034912109375 60.49199676513672 C50.9178581237793 60.49199676513672 51.124080657958984 61.195438385009766 51.47594451904297 61.547157287597656 L51.47594451904297 65.56324768066406"></path>
<path fill="none" stroke="black" stroke-width=".3" stroke-opacity="1.0"  filling="0" d="M55.00948715209961 65.56324768066406 L55.00948715209961 65.56324768066406 C54.657623291015625 65.91497039794922 54.4514045715332 66.618408203125 53.953895568847656 66.618408203125 C53.456539154052734 66.618408203125 53.2505989074707 65.91497039794922 52.898948669433594 65.56324768066406 L52.898948669433594 61.547157287597656 C53.2505989074707 61.195438385009766 53.456539154052734 60.49199676513672 53.953895568847656 60.49199676513672 C54.4514045715332 60.49199676513672 54.657623291015625 61.195438385009766 55.00948715209961 61.547157287597656 L55.00948715209961 65.56324768066406"></path>
<path fill="none" stroke="black" stroke-width=".3" stroke-opacity="1.0"  filling="0" d="M57.03837203979492 68.7820816040039 L57.03837203979492 68.7820816040039 C56.82575607299805 69.28497314453125 56.79046630859375 69.9085922241211 56.4005241394043 70.29075622558594 C56.00503921508789 70.67835235595703 55.37438201904297 70.70740509033203 54.86131286621094 70.91572570800781 L48.58985900878906 70.91572570800781 L42.31840896606445 70.91572570800781 C41.80525588989258 70.70740509033203 41.17448806762695 70.67840576171875 40.77894973754883 70.29075622558594 C40.38903045654297 69.90861511230469 40.353878021240234 69.28497314453125 40.14134216308594 68.7820816040039 L40.14134216308594 66.36136627197266 C40.353878021240234 65.85843658447266 40.3890266418457 65.23477172851562 40.77894973754883 64.85258483886719 C41.17448043823242 64.46490478515625 41.80525588989258 64.43586730957031 42.31840896606445 64.22750854492188 L48.58985900878906 64.22750854492188 L54.86131286621094 64.22750854492188 C55.37438201904297 64.43586730957031 56.00505065917969 64.46495819091797 56.4005241394043 64.85258483886719 C56.790470123291016 65.23479461669922 56.82575607299805 65.85843658447266 57.03837203979492 66.36136627197266 L57.03837203979492 68.7820816040039"></path>
<path fill="none" stroke="black" stroke-width=".3" stroke-opacity="1.0"  filling="0" d="M72.25665283203125 77.99036407470703 L77.61540222167969 79.80131530761719 L82.9741439819336 81.61225891113281 L82.9741439819336 87.39598083496094 L82.9741439819336 93.1797103881836 L77.61540222167969 91.75691223144531 L72.25665283203125 90.33412170410156 L72.25665283203125 84.16224670410156 L72.25665283203125 77.99036407470703"></path>
<path fill="none" stroke="black" stroke-width=".3" stroke-opacity="1.0"  filling="0" d="M86.53359985351562 79.81060028076172 L86.60791015625 85.65351104736328 L86.68221282958984 91.49642181396484 L83.42212677001953 93.04449462890625 L83.42212677001953 87.29414367675781 L83.42212677001953 81.54379272460938"></path>
<path fill="none" stroke="black" stroke-width=".3" stroke-opacity="1.0"  filling="0" d="M83.33399200439453 81.28199768066406 L77.90699768066406 79.40550231933594 L72.47999572753906 77.52899932861328 L74.32571411132812 75.18453979492188 L80.38019561767578 77.3057632446289 L86.43467712402344 79.42698669433594 L83.33399200439453 81.28199768066406"></path>
<path fill="none" stroke="black" stroke-width=".3" stroke-opacity="1.0"  filling="0" d="M80.53485107421875 87.13020324707031 L74.40023803710938 85.68882751464844 L74.40023803710938 81.51268005371094 L80.53485107421875 83.10179901123047 L80.53485107421875 87.13020324707031"></path>
<path fill="none" stroke="black" stroke-width=".3" stroke-opacity="1.0"  filling="0" d="M-11.720039367675781 146.70082092285156 L-10.862951278686523 146.70082092285156 L-10.862951278686523 147.12937927246094 L-11.720039367675781 147.12937927246094 L-11.720039367675781 146.70082092285156"></path></svg>