<svg xmlns="http://www.w3.org/2000/svg" viewBox="0.0 0.0 24.0 24.0" height="200px" width="200px"><path fill="none" stroke="black" stroke-width=".3" stroke-opacity="1.0"  filling="0" d="M10.371575355529785 1.8359041213989258 L10.371575355529785 1.8359041213989258 C11.95370101928711 2.01815128326416 13.42595100402832 2.409694194793701 14.687309265136719 3.134108543395996 C15.948667526245117 3.858522891998291 16.999134063720703 4.915808200836182 17.737689971923828 6.429540634155273 C18.60917854309082 8.215728759765625 18.743789672851562 10.122822761535645 18.315088272094727 11.871753692626953 C17.88638687133789 13.620685577392578 16.89436912536621 15.211454391479492 15.512596130371094 16.364990234375 C14.130824089050293 17.51852798461914 12.359296798706055 18.234832763671875 10.371575355529785 18.234838485717773 C8.383796691894531 18.234844207763672 6.612250804901123 17.51854705810547 5.230477809906006 16.36501121520996 C3.8487045764923096 15.21147632598877 2.856703758239746 13.620702743530273 2.4280152320861816 11.871753692626953 C1.9993265867233276 10.12280559539795 2.1339499950408936 8.215681076049805 3.005424976348877 6.429446220397949 C3.7439653873443604 4.915682315826416 4.794437885284424 3.858412742614746 6.055808067321777 3.134026050567627 C7.317177772521973 2.409639358520508 8.789445877075195 2.0181357860565186 10.371575355529785 1.8359041213989258 L10.371575355529785 1.8359041213989258"></path>
<path fill="none" stroke="black" stroke-width=".3" stroke-opacity="1.0"  filling="0" d="M6.2744879722595215 10.16443157196045 L6.2744879722595215 10.16443157196045 C6.55467414855957 8.629289627075195 6.914740562438965 7.4341559410095215 8.38588809967041 6.608205795288086 C9.735506057739258 5.8504862785339355 11.319056510925293 5.943371772766113 12.565201759338379 6.623772144317627 C13.811346054077148 7.304172992706299 14.720087051391602 8.572089195251465 14.720087051391602 10.16443157196045 C14.720087051391602 11.756772994995117 13.811346054077148 13.024689674377441 12.565200805664062 13.705090522766113 C11.319055557250977 14.385492324829102 9.735505104064941 14.478377342224121 8.385887145996094 13.720657348632812 C6.914740085601807 12.894706726074219 6.554673194885254 11.699572563171387 6.2744879722595215 10.16443157196045 L6.2744879722595215 10.16443157196045"></path>
<path fill="none" stroke="black" stroke-width=".3" stroke-opacity="1.0"  filling="0" d="M10.371575355529785 16.280689239501953 L10.371575355529785 16.280689239501953 C8.297240257263184 15.946110725402832 6.650232315063477 15.530509948730469 5.331204891204834 13.72375202178955 C3.8523075580596924 11.698009490966797 3.8577775955200195 9.214579582214355 4.860283374786377 7.2375874519348145 C5.862789154052734 5.260595798492432 7.862330436706543 3.7900428771972656 10.371575355529785 3.7900562286376953 C12.880762100219727 3.790069580078125 14.88019847869873 5.260636806488037 15.882649421691895 7.237617492675781 C16.885099411010742 9.214597702026367 16.89056396484375 11.697992324829102 15.411808967590332 13.72365951538086 C14.092833518981934 15.530452728271484 12.44590950012207 15.946084976196289 10.371575355529785 16.280689239501953 L10.371575355529785 16.280689239501953"></path>
<path fill="none" stroke="black" stroke-width=".3" stroke-opacity="1.0"  filling="0" d="M13.701864242553711 17.561782836914062 L16.36060905456543 14.09649658203125 L19.094303131103516 18.340248107910156 L21.827999114990234 22.583999633789062 L20.008197784423828 22.583999633789062 L16.855030059814453 20.072891235351562 L13.701864242553711 17.561782836914062"></path>
<path fill="none" stroke="black" stroke-width=".3" stroke-opacity="1.0"  filling="0" d="M50.34842300415039 19.779239654541016 L50.34842300415039 19.779239654541016 C51.684688568115234 19.962749481201172 52.907371520996094 20.266010284423828 53.97309494018555 20.833969116210938 C55.038818359375 21.401927947998047 55.94757843017578 22.234580993652344 56.656002044677734 23.476871490478516 C57.569156646728516 25.07818031311035 57.80093002319336 26.860122680664062 57.49470901489258 28.524354934692383 C57.1884880065918 30.188587188720703 56.344268798828125 31.735109329223633 55.10542678833008 32.86557388305664 C53.86658477783203 33.99604034423828 52.233123779296875 34.71044921875 50.34842300415039 34.71045684814453 C48.463722229003906 34.71046447753906 46.830223083496094 33.9960823059082 45.59133529663086 32.86564254760742 C44.352447509765625 31.735200881958008 43.5081787109375 30.188701629638672 43.20193099975586 28.524478912353516 C42.89568328857422 26.86025619506836 43.12746047973633 25.07830810546875 44.04067611694336 23.476966857910156 C44.7491340637207 22.23467254638672 45.65792465209961 21.402000427246094 46.72367477416992 20.834022521972656 C47.789424896240234 20.26604461669922 49.01213073730469 19.96276092529297 50.34842300415039 19.779239654541016 L50.34842300415039 19.779239654541016"></path>
<path fill="none" stroke="black" stroke-width=".3" stroke-opacity="1.0"  filling="0" d="M57.15047836303711 29.62019920349121 L60.201263427734375 32.30540466308594 L63.25204849243164 34.99060821533203 C63.13554763793945 35.682861328125 63.18149185180664 36.42318344116211 62.90254211425781 37.06736755371094 C62.582130432128906 37.80730438232422 61.407447814941406 37.67701721191406 60.6375846862793 37.91676330566406 L57.547271728515625 35.61571502685547 L54.45695495605469 33.314666748046875 L57.15047836303711 29.62019920349121"></path>
<path fill="none" stroke="black" stroke-width=".3" stroke-opacity="1.0"  filling="0" d="M50.236751556396484 30.93477439880371 L50.236751556396484 30.93477439880371 C51.96136474609375 30.513559341430664 52.41253662109375 30.134090423583984 53.091190338134766 28.493974685668945 L53.091190338134766 28.493974685668945 C53.275081634521484 30.63818359375 51.755374908447266 31.71009063720703 50.23590850830078 31.709991455078125 C48.71644592285156 31.709890365600586 47.197227478027344 30.637786865234375 47.38209533691406 28.493974685668945 L47.38209533691406 28.493974685668945 C48.0609245300293 30.134031295776367 48.51212692260742 30.513559341430664 50.236751556396484 30.93477439880371 L50.236751556396484 30.93477439880371"></path>
<path fill="none" stroke="black" stroke-width=".3" stroke-opacity="1.0"  filling="0" d="M50.34842300415039 32.51740646362305 L50.34842300415039 32.51740646362305 C48.62138366699219 32.23267364501953 47.2679328918457 31.87497901916504 46.18470001220703 30.358543395996094 C44.98420715332031 28.677959442138672 44.96812438964844 26.58139419555664 45.78067398071289 24.90497589111328 C46.59321975708008 23.228557586669922 48.234397888183594 21.972286224365234 50.34842300415039 21.972286224365234 C52.462432861328125 21.972286224365234 54.103515625 23.228628158569336 54.915992736816406 24.905092239379883 C55.72846984863281 26.581558227539062 55.71234130859375 28.678144454956055 54.511940002441406 30.35863494873047 C53.42877197265625 31.87500762939453 52.07537841796875 32.232688903808594 50.34842300415039 32.51740646362305 L50.34842300415039 32.51740646362305"></path>
<path fill="none" stroke="black" stroke-width=".3" stroke-opacity="1.0"  filling="0" d="M60.057411193847656 34.195945739746094 L56.5880126953125 31.581478118896484 L56.96709442138672 31.028303146362305 L60.36305236816406 33.76782989501953 L60.057411193847656 34.195945739746094"></path></svg>