<svg xmlns="http://www.w3.org/2000/svg" viewBox="0.0 0.0 24.0 24.0" height="200px" width="200px"><path fill="none" stroke="black" stroke-width=".3" stroke-opacity="1.0"  filling="0" d="M13.446120262145996 6.568032264709473 L13.446120262145996 6.568032264709473 C13.087920188903809 6.92623233795166 12.878091812133789 7.642632484436035 12.371520042419434 7.642632484436035 C10.563579559326172 7.642632484436035 11.314399719238281 5.493648052215576 12.371520042419434 5.493648052215576 C12.878040313720703 5.493648052215576 13.087920188903809 6.209904193878174 13.446120262145996 6.568032264709473 L13.446120262145996 6.568032264709473"></path>
<path fill="none" stroke="black" stroke-width=".3" stroke-opacity="1.0"  filling="0" d="M14.520936965942383 10.002647399902344 L10.22275161743164 10.002647399902344 C10.81016731262207 8.571929931640625 12.13725757598877 6.69971227645874 13.891511917114258 8.469480514526367 C14.280426979064941 8.861835479736328 14.311128616333008 9.491591453552246 14.520936965942383 10.002647399902344 L14.520936965942383 10.002647399902344"></path>
<path fill="none" stroke="black" stroke-width=".3" stroke-opacity="1.0"  filling="0" d="M20.15875244140625 10.444583892822266 L20.15896987915039 13.637712478637695 L19.72696876525879 13.637712478637695 L19.72696876525879 10.87658405303955 L12.587736129760742 10.87658405303955 L12.587736129760742 13.637712478637695 L12.155735969543457 13.637712478637695 L12.155735969543457 10.87658405303955 L5.0169358253479 10.87658405303955 L5.0169358253479 13.637712478637695 L4.584936141967773 13.637712478637695 L4.584936141967773 10.444583892822266 L9.776208877563477 10.444583892822266 L14.967480659484863 10.444583892822266 L20.15875244140625 10.444583892822266"></path>
<path fill="none" stroke="black" stroke-width=".3" stroke-opacity="1.0"  filling="0" d="M4.800935745239258 13.997136116027832 L4.800935745239258 13.997136116027832 C5.159063816070557 14.35533618927002 5.8753204345703125 14.565216064453125 5.8753204345703125 15.071736335754395 C5.8753204345703125 17.399721145629883 3.7265520095825195 15.60934829711914 3.7265520095825195 15.071736335754395 C3.7265520095825195 14.565216064453125 4.442807674407959 14.35533618927002 4.800935745239258 13.997136116027832 L4.800935745239258 13.997136116027832"></path>
<path fill="none" stroke="black" stroke-width=".3" stroke-opacity="1.0"  filling="0" d="M12.371520042419434 13.997136116027832 L12.371520042419434 13.997136116027832 C12.729791641235352 14.35533618927002 13.446335792541504 14.56511402130127 13.446335792541504 15.071736335754395 C13.446335792541504 15.578409194946289 12.878192901611328 16.14655303955078 12.371520042419434 16.14655303955078 C11.864999771118164 16.14655303955078 11.297351837158203 15.578256607055664 11.297351837158203 15.071736335754395 C11.297351837158203 14.565266609191895 12.013463973999023 14.35533618927002 12.371520042419434 13.997136116027832 L12.371520042419434 13.997136116027832"></path>
<path fill="none" stroke="black" stroke-width=".3" stroke-opacity="1.0"  filling="0" d="M19.942750930786133 13.997136116027832 L19.942750930786133 13.997136116027832 C20.30095100402832 14.35533618927002 21.017351150512695 14.565164566040039 21.017351150512695 15.071736335754395 C21.017351150512695 15.581092834472656 18.867935180664062 17.42864990234375 18.867935180664062 15.071736335754395 C18.867935180664062 14.56511402130127 19.5844783782959 14.35533618927002 19.942750930786133 13.997136116027832 L19.942750930786133 13.997136116027832"></path>
<path fill="none" stroke="black" stroke-width=".3" stroke-opacity="1.0"  filling="0" d="M6.950136184692383 18.506351470947266 L2.6519527435302734 18.506351470947266 C3.2392311096191406 17.075605392456055 4.566395282745361 15.202986717224121 6.320712089538574 16.97299575805664 C6.709648609161377 17.36541175842285 6.740328311920166 17.9952335357666 6.950136184692383 18.506351470947266 L6.950136184692383 18.506351470947266"></path>
<path fill="none" stroke="black" stroke-width=".3" stroke-opacity="1.0"  filling="0" d="M14.520936965942383 18.506351470947266 L10.22275161743164 18.506351470947266 C10.810174942016602 17.07555389404297 12.137104034423828 15.203466415405273 13.891485214233398 16.97318458557129 C14.280423164367676 17.365522384643555 14.31112003326416 17.995296478271484 14.520936965942383 18.506351470947266 L14.520936965942383 18.506351470947266"></path>
<path fill="none" stroke="black" stroke-width=".3" stroke-opacity="1.0"  filling="0" d="M22.091951370239258 18.506351470947266 L17.793766021728516 18.506351470947266 C18.38123321533203 17.075756072998047 19.708480834960938 15.203340530395508 21.462635040283203 16.97318458557129 C21.851520538330078 17.365549087524414 21.882179260253906 17.995296478271484 22.091951370239258 18.506351470947266 L22.091951370239258 18.506351470947266"></path></svg>