<svg xmlns="http://www.w3.org/2000/svg" viewBox="0.0 0.0 24.0 24.0" height="200px" width="200px"><path fill="none" stroke="black" stroke-width=".3" stroke-opacity="1.0"  filling="0" d="M12.141267776489258 3.3097352981567383 L12.141267776489258 3.3097352981567383 C12.168484687805176 3.289214849472046 12.195700645446777 3.2686941623687744 12.222917556762695 3.248173713684082 L13.688955307006836 3.3401927947998047 C12.893969535827637 5.252740383148193 12.319687843322754 5.270747661590576 10.521866798400879 4.336413860321045 L11.073763847351074 4.336413860321045 C11.3512601852417 4.161016941070557 11.628756523132324 3.9856197834014893 11.90625286102295 3.810222625732422 L12.141267776489258 3.3097352981567383"></path>
<path fill="none" stroke="black" stroke-width=".3" stroke-opacity="1.0"  filling="0" d="M11.07354736328125 3.89705753326416 L9.883352279663086 3.89705753326416 C9.479968070983887 0.764723539352417 12.674657821655273 0.7460770606994629 14.020740509033203 2.8040637969970703 L12.222702026367188 2.8040637969970703 C12.060985565185547 2.9096193313598633 11.89926815032959 3.0151748657226562 11.73755168914795 3.120730400085449 L11.507721900939941 3.6212167739868164 C11.362997055053711 3.7131636142730713 11.21827220916748 3.8051106929779053 11.07354736328125 3.89705753326416 L11.07354736328125 3.89705753326416"></path>
<path fill="none" stroke="black" stroke-width=".3" stroke-opacity="1.0"  filling="0" d="M20.54413604736328 5.350348472595215 L20.54413604736328 5.350348472595215 C20.041776657104492 5.423358917236328 19.539419174194336 5.496369361877441 19.037059783935547 5.569379806518555 L16.92235565185547 7.691859245300293 C16.9853572845459 7.983035564422607 17.274702072143555 8.316243171691895 17.11136245727539 8.565388679504395 C16.891231536865234 8.901161193847656 16.382556915283203 8.90250301361084 16.01815414428711 9.071060180664062 L15.67081356048584 8.938217163085938 L13.086080551147461 11.520357131958008 C14.929481506347656 11.522398948669434 16.772886276245117 11.524362564086914 18.616287231445312 11.52474308013916 C19.681198120117188 11.52496337890625 20.95714569091797 10.884007453918457 21.81101417541504 11.520357131958008 C22.380725860595703 11.944936752319336 21.15314292907715 12.916641235351562 20.503093719482422 13.203479766845703 C19.57761573791504 13.61185359954834 18.111604690551758 13.985159873962402 17.10120964050293 13.982614517211914 C16.224510192871094 13.980405807495117 15.408513069152832 13.41934585571289 14.53181266784668 13.420783042907715 C13.656784057617188 13.42221736907959 12.842625617980957 13.98503589630127 11.967598915100098 13.982831001281738 C11.090829849243164 13.980622291564941 10.274757385253906 13.419563293457031 9.39798641204834 13.420998573303223 C8.521269798278809 13.422433853149414 7.705303192138672 13.98525619506836 6.828588485717773 13.983047485351562 C5.953577518463135 13.980842590332031 5.139388561248779 13.419780731201172 4.264376163482666 13.421215057373047 C3.389348030090332 13.422649383544922 2.5556883811950684 13.799544334411621 1.7001628875732422 13.98326301574707 L1.7001628875732422 11.521004676818848 L7.788737773895264 11.521004676818848 C7.798962116241455 11.472475051879883 7.8091864585876465 11.423946380615234 7.819410800933838 11.37541675567627 L9.188459396362305 6.788303852081299 C9.991509437561035 5.805508613586426 10.471336364746094 5.122241020202637 11.855059623718262 5.720799922943115 L16.309328079223633 7.370656967163086 L18.55190658569336 5.125485897064209 C18.6098690032959 4.594254016876221 18.667829513549805 4.063022613525391 18.725791931152344 3.5317907333374023 L20.529014587402344 1.7285680770874023 C22.149442672729492 1.0525600910186768 23.021638870239258 1.9277416467666626 22.347354888916016 3.5471267700195312 L20.54413604736328 5.350348472595215"></path>
<path fill="none" stroke="black" stroke-width=".3" stroke-opacity="1.0"  filling="0" d="M12.156603813171387 11.521004676818848 L11.609892845153809 11.521004676818848 L12.713253021240234 7.845655918121338 L14.991689682006836 8.688512802124023 L12.156603813171387 11.521004676818848"></path>
<path fill="none" stroke="black" stroke-width=".3" stroke-opacity="1.0"  filling="0" d="M19.67060661315918 14.619186401367188 L19.67060661315918 14.619186401367188 C20.52605438232422 14.810484886169434 21.382368087768555 14.997956275939941 22.23957061767578 15.181234359741211 L22.23957061767578 17.07625961303711 C21.382230758666992 16.89295196533203 20.546890258789062 16.514211654663086 19.67017364501953 16.514211654663086 C18.79345703125 16.514211654663086 17.977493286132812 17.07625961303711 17.10077667236328 17.07625961303711 C17.066410064697266 17.07625961303711 14.537455558776855 16.514211654663086 14.531595230102539 16.514211654663086 C13.65656566619873 16.514211654663086 12.842411994934082 17.07625961303711 11.967382431030273 17.07625961303711 C10.269919395446777 17.07625961303711 9.422066688537598 16.363197326660156 7.666478157043457 16.948383331298828 L5.495397090911865 19.114280700683594 C5.420443058013916 19.616567611694336 5.345488548278809 20.11885643005371 5.270534515380859 20.621143341064453 L3.467312812805176 22.424579620361328 C1.846972942352295 23.094989776611328 0.9783713817596436 22.226299285888672 1.6489696502685547 20.606019973754883 L3.452840805053711 18.802799224853516 C3.9858005046844482 18.743181228637695 4.5187602043151855 18.683563232421875 5.051720142364502 18.623945236206055 L6.624895095825195 17.055740356445312 C4.708322048187256 16.604164123535156 3.6191577911376953 16.664920806884766 1.695627212524414 17.07625961303711 L1.695627212524414 15.181234359741211 C2.552891731262207 14.99791145324707 3.3881611824035645 14.619186401367188 4.264808177947998 14.619186401367188 C4.26707124710083 14.619186401367188 6.800905227661133 15.181234359741211 6.829020977020264 15.181234359741211 C6.886266231536865 15.181234359741211 9.368861198425293 14.619186401367188 9.398417472839355 14.619186401367188 C9.414837837219238 14.619186401367188 11.923318862915039 15.181234359741211 11.967814445495605 15.181234359741211 C12.842844009399414 15.181234359741211 13.656997680664062 14.619186401367188 14.532027244567871 14.619186401367188 C15.408674240112305 14.619186401367188 16.22456169128418 15.181234359741211 17.10120964050293 15.181234359741211 C17.175352096557617 15.181234359741211 19.623647689819336 14.629684448242188 19.67060661315918 14.619186401367188 L19.67060661315918 14.619186401367188"></path></svg>