<svg xmlns="http://www.w3.org/2000/svg" viewBox="0.0 0.0 24.0 24.0" height="200px" width="200px"><path fill="none" stroke="black" stroke-width=".3" stroke-opacity="1.0"  filling="0" d="M12.000864028930664 3.608400344848633 L12.000864028930664 3.608400344848633 C13.687365531921387 3.8031165599823 14.145060539245605 3.7087833881378174 15.687766075134277 4.462032318115234 C18.16427230834961 5.671223163604736 19.5767822265625 7.685066223144531 20.053630828857422 9.944376945495605 C20.53047752380371 12.20368766784668 20.0716609954834 14.708466529846191 18.805511474609375 16.89952850341797 L14.903112411499023 12.993672370910645 L11.000712394714355 9.08781623840332 L7.098311901092529 5.181960105895996 C8.79672622680664 4.2065277099609375 10.039385795593262 3.8103108406066895 11.987903594970703 3.608184814453125 L12.000864028930664 3.608400344848633"></path>
<path fill="none" stroke="black" stroke-width=".3" stroke-opacity="1.0"  filling="0" d="M19.637760162353516 4.362024307250977 L19.637760162353516 4.362024307250977 C21.181026458740234 6.166136264801025 22.147911071777344 8.300114631652832 22.498823165893555 10.472315788269043 C22.849735260009766 12.644515991210938 22.584678649902344 14.854939460754395 21.664058685302734 16.811941146850586 C20.743438720703125 18.76894187927246 19.167255401611328 20.472518920898438 16.895923614501953 21.631031036376953 C15.303176879882812 22.443424224853516 13.747952461242676 22.6632080078125 11.994383811950684 22.799999237060547 L11.993736267089844 22.799999237060547 C10.529496192932129 22.685638427734375 9.153965950012207 22.427942276000977 7.878026485443115 21.932079315185547 C6.602087497711182 21.43621826171875 5.425739288330078 20.702190399169922 4.359863758087158 19.635168075561523 C2.6588923931121826 17.932369232177734 1.680878758430481 15.811159133911133 1.3711175918579102 13.618038177490234 C1.0613563060760498 11.424917221069336 1.4198477268218994 9.159883499145508 2.3918864727020264 7.169438362121582 C3.3639252185821533 5.17899227142334 4.949511528015137 3.4631335735321045 7.093940258026123 2.3683600425720215 C8.684127807617188 1.5565375089645386 10.236644744873047 1.336753487586975 11.987688064575195 1.2000007629394531 L12.000864028930664 1.2000007629394531 C13.545187950134277 1.320478916168213 14.86571216583252 1.6076854467391968 16.094505310058594 2.116422176361084 C17.323299407958984 2.6251587867736816 18.46036148071289 3.3554255962371826 19.637760162353516 4.362024307250977 L19.637760162353516 4.362024307250977"></path>
<path fill="none" stroke="black" stroke-width=".3" stroke-opacity="1.0"  filling="0" d="M6.0636725425720215 17.932872772216797 L6.0636725425720215 17.932872772216797 C4.638030052185059 16.19686508178711 3.8669328689575195 14.419357299804688 3.740027904510498 12.5933837890625 C3.6131229400634766 10.767410278320312 4.130410194396973 8.89297103881836 5.28153657913208 6.9630961418151855 L9.195528984069824 10.880399703979492 L13.10952091217041 14.797704696655273 L17.02351188659668 18.715007781982422 C15.094961166381836 19.86868667602539 13.221659660339355 20.386274337768555 11.39716625213623 20.258880615234375 C9.572672843933105 20.131488800048828 7.796988487243652 19.359115600585938 6.0636725425720215 17.932872772216797 L6.0636725425720215 17.932872772216797"></path></svg>