<svg xmlns="http://www.w3.org/2000/svg" viewBox="0.0 0.0 24.0 24.0" height="200px" width="200px"><path fill="none" stroke="black" stroke-width=".3" stroke-opacity="1.0"  filling="0" d="M14.119392395019531 8.184791564941406 L14.119392395019531 2.5903921127319336 L18.45969581604004 4.658807754516602 L22.799999237060547 6.727223873138428 L21.572471618652344 9.365015983581543 L18.226415634155273 9.371063232421875 L18.226415634155273 10.138078689575195 L14.119392395019531 8.184791564941406"></path>
<path fill="none" stroke="black" stroke-width=".3" stroke-opacity="1.0"  filling="0" d="M13.67680835723877 9.14080810546875 L7.438404560089111 6.17545223236084 L1.2000007629394531 3.2100963592529297 L1.2000007629394531 2.029871940612793 L7.644900321960449 5.119103908538818 L14.089799880981445 8.208335876464844 L13.67680835723877 9.14080810546875"></path>
<path fill="none" stroke="black" stroke-width=".3" stroke-opacity="1.0"  filling="0" d="M9.414480209350586 15.655799865722656 L11.849016189575195 19.75115966796875 C12.131489753723145 21.69989776611328 10.953164100646973 22.41353416442871 9.370416641235352 21.232486724853516 L6.75595235824585 16.81831169128418 L6.758975982666016 20.5302734375 C6.005589962005615 22.345788955688477 4.626522064208984 22.345943450927734 3.873215675354004 20.5302734375 L3.873215675354004 15.791664123535156 L3.873215675354004 11.053055763244629 L1.8963842391967773 9.919919967651367 C1.792128562927246 9.540264129638672 1.3888800144195557 9.123129844665527 1.5836172103881836 8.780952453613281 C1.7783544063568115 8.438775062561035 2.342928886413574 8.572440147399902 2.7225847244262695 8.468183517456055 L3.97365665435791 9.17623233795166 L8.822208404541016 9.17623233795166 L13.670760154724121 9.17623233795166 L18.23224639892578 11.40686321258545 L18.23224639892578 15.042142868041992 C18.074853897094727 15.246695518493652 17.917463302612305 15.451247215270996 17.76007080078125 15.655799865722656 L17.76007080078125 20.5302734375 C17.005054473876953 22.343700408935547 15.626130104064941 22.34798812866211 14.874527931213379 20.5302734375 L14.874527931213379 15.655799865722656 L9.414480209350586 15.655799865722656"></path></svg>