<svg xmlns="http://www.w3.org/2000/svg" viewBox="0.0 0.0 24.0 24.0" height="200px" width="200px"><path fill="none" stroke="black" stroke-width=".3" stroke-opacity="1.0"  filling="0" d="M8.860940933227539 3.458667755126953 L8.860940933227539 3.458667755126953 C8.655389785766602 6.048935413360596 7.88200569152832 7.360938549041748 5.575113773345947 8.554632186889648 L5.575113773345947 8.554632186889648 C5.553807258605957 7.887140274047852 5.470201015472412 7.218695163726807 5.325304985046387 6.566771507263184 L5.325304985046387 6.566771507263184 C6.236934661865234 4.848024368286133 7.069260597229004 4.207180976867676 8.860940933227539 3.458667755126953 L8.860940933227539 3.458667755126953"></path>
<path fill="none" stroke="black" stroke-width=".3" stroke-opacity="1.0"  filling="0" d="M14.943584442138672 4.554449081420898 L14.943584442138672 4.554449081420898 C15.408764839172363 4.7470550537109375 15.983094215393066 4.776273727416992 16.339126586914062 5.132266521453857 C17.56171417236328 6.3547186851501465 16.67218589782715 8.500946998596191 14.943584442138672 8.500946998596191 C13.21517276763916 8.500946998596191 12.327168464660645 6.354301452636719 13.548585891723633 5.132347583770752 C13.904409408569336 4.776367664337158 14.478585243225098 4.747081756591797 14.943584442138672 4.554449081420898 L14.943584442138672 4.554449081420898"></path>
<path fill="none" stroke="black" stroke-width=".3" stroke-opacity="1.0"  filling="0" d="M4.5585618019104 5.045190811157227 L4.5585618019104 5.045190811157227 C4.325132846832275 4.7826104164123535 4.091704368591309 4.5200300216674805 3.8582754135131836 4.257449626922607 L3.8582754135131836 4.257449626922607 C4.114891052246094 3.303988456726074 4.519701957702637 2.3775341510772705 5.054715156555176 1.547654151916504 L5.054715156555176 1.547654151916504 C5.588032245635986 2.372678518295288 5.992529392242432 3.2934579849243164 6.2502899169921875 4.241430282592773 L6.2502899169921875 4.241430282592773 C5.801614761352539 4.74291467666626 5.389683246612549 5.2829999923706055 5.045623779296875 5.861289978027344 L5.045623779296875 5.861289978027344 C4.883269786834717 5.589256763458252 4.720915794372559 5.317224025726318 4.5585618019104 5.045190811157227 L4.5585618019104 5.045190811157227"></path>
<path fill="none" stroke="black" stroke-width=".3" stroke-opacity="1.0"  filling="0" d="M5.031335830688477 8.702266693115234 L5.031335830688477 8.702266693115234 C2.408403158187866 7.607903003692627 1.4536182880401611 6.291956901550293 1.228790283203125 3.458667755126953 L1.228790283203125 3.458667755126953 C3.8507275581359863 4.553963661193848 4.8056135177612305 5.869592666625977 5.031335830688477 8.702266693115234 L5.031335830688477 8.702266693115234"></path>
<path fill="none" stroke="black" stroke-width=".3" stroke-opacity="1.0"  filling="0" d="M20.056869506835938 12.794235229492188 L20.056869506835938 12.794235229492188 C19.959022521972656 13.086905479431152 19.861177444458008 13.3795747756958 19.763330459594727 13.672245025634766 L17.40465545654297 15.227596282958984 C17.059526443481445 15.157171249389648 16.563230514526367 15.310348510742188 16.36927032470703 15.01632022857666 C16.17514419555664 14.722042083740234 16.510986328125 14.325630187988281 16.581844329833984 13.980284690856934 L18.453893661499023 12.745096206665039 L17.925918579101562 11.290621757507324 L17.196409225463867 11.290621757507324 L17.624805450439453 12.470609664916992 L16.20388412475586 13.408149719238281 C15.608307838439941 14.288613319396973 15.279027938842773 14.83431625366211 16.099979400634766 15.722017288208008 L14.132465362548828 15.722017288208008 C14.953563690185547 14.834155082702637 14.624415397644043 14.288716316223145 14.028558731079102 13.408149719238281 L12.607637405395508 12.470609664916992 L13.035168647766113 11.290621757507324 L12.305658340454102 11.290621757507324 L11.778332710266113 12.745096206665039 L13.650381088256836 13.980284690856934 C13.721240043640137 14.325630187988281 14.057083129882812 14.722042083740234 13.862957954406738 15.01632022857666 C13.668997764587402 15.310348510742188 13.172700881958008 15.157171249389648 12.8275728225708 15.227596282958984 L10.468894958496094 13.672245025634766 C10.370977401733398 13.3795747756958 10.273059844970703 13.086905479431152 10.175142288208008 12.794235229492188 L11.177623748779297 9.935507774353027 C11.543691635131836 9.424823760986328 12.189805030822754 9.125444412231445 12.800081253051758 8.975887298583984 L17.43128204345703 8.975887298583984 C18.041748046875 9.125449180603027 18.68804931640625 9.424787521362305 19.054386138916016 9.935507774353027 L20.056869506835938 12.794235229492188"></path>
<path fill="none" stroke="black" stroke-width=".3" stroke-opacity="1.0"  filling="0" d="M17.197708129882812 16.64180564880371 L17.197708129882812 16.64180564880371 C19.353899002075195 17.532630920410156 19.367197036743164 19.163211822509766 17.21134376525879 20.06574249267578 L11.098610877990723 20.065093994140625 C10.85370922088623 19.817161560058594 10.361676216125488 19.669782638549805 10.363905906677246 19.32129669189453 C10.366151809692383 18.970266342163086 10.86005973815918 18.82456398010254 11.108136177062988 18.57619857788086 L14.265811920166016 18.57619857788086 L16.837066650390625 18.039348602294922 L16.698089599609375 17.374780654907227 L14.195459365844727 17.897777557373047 L11.108136177062988 17.897777557373047 C9.917722702026367 18.391361236572266 9.52417278289795 18.768205642700195 9.899789810180664 20.065311431884766 L6.04583215713501 20.064878463745117 L2.1918745040893555 20.06444549560547 C1.861393928527832 19.7330265045166 1.2531781196594238 19.535242080688477 1.2004327774047852 19.0701904296875 C1.154050588607788 18.66124153137207 1.713182806968689 18.426258087158203 1.969557762145996 18.104291915893555 L1.8598060607910156 15.674827575683594 L2.249238967895508 15.674827575683594 L2.1364574432373047 18.082645416259766 C2.1549298763275146 18.080625534057617 2.1734020709991455 18.078603744506836 2.1918745040893555 18.076583862304688 L4.865302085876465 17.667016983032227 L4.749057292938232 15.081045150756836 L5.1354594230651855 15.081045150756836 L5.018348217010498 17.644073486328125 L7.2477922439575195 17.302478790283203 L7.12700080871582 14.730576515197754 L7.522928237915039 14.730576515197754 L7.401270866394043 17.27866554260254 L9.039097785949707 17.027992248535156 L8.92956256866455 14.682303428649902 L9.322458267211914 14.682303428649902 L9.214439392089844 17.00115203857422 L11.560345649719238 16.64180564880371 L17.197708129882812 16.64180564880371"></path>
<path fill="none" stroke="black" stroke-width=".3" stroke-opacity="1.0"  filling="0" d="M19.219987869262695 17.103975296020508 L19.219987869262695 17.103975296020508 C19.397035598754883 16.676578521728516 19.42401123046875 16.14890480041504 19.751129150390625 15.821784973144531 C20.87319564819336 14.699716567993164 22.847408294677734 15.516390800476074 22.847408294677734 17.103975296020508 C22.847408294677734 18.69244384765625 20.873098373413086 19.50772476196289 19.751129150390625 18.385353088378906 C19.424245834350586 18.058351516723633 19.397035598754883 17.53110122680664 19.219987869262695 17.103975296020508 L19.219987869262695 17.103975296020508"></path>
<path fill="none" stroke="black" stroke-width=".3" stroke-opacity="1.0"  filling="0" d="M1.605452537536621 20.737890243530273 L6.955772399902344 20.737890243530273 L12.306092262268066 20.737890243530273 L17.65641212463379 20.737890243530273 C18.51434326171875 20.39105987548828 19.36224937438965 20.007707595825195 20.16120719909668 19.54079818725586 L22.121578216552734 19.54079818725586 C22.34757423400879 19.715347290039062 22.573572158813477 19.889896392822266 22.79956817626953 20.06444549560547 L22.79956817626953 21.70270538330078 C22.548460006713867 21.952585220336914 22.297353744506836 22.20246696472168 22.046245574951172 22.452346801757812 L22.046245574951172 22.452346801757812 C19.747480392456055 22.452346801757812 17.448715209960938 22.452346801757812 15.14995002746582 22.452346801757812 C12.851184844970703 22.452346801757812 10.552419662475586 22.452346801757812 8.253653526306152 22.452346801757812 C6.189055442810059 22.452346801757812 2.7326133251190186 23.255905151367188 1.2004327774047852 21.68387222290039 L1.2004327774047852 21.142257690429688 C1.3354393243789673 21.007469177246094 1.470445990562439 20.872678756713867 1.605452537536621 20.737890243530273 L1.605452537536621 20.737890243530273"></path></svg>