<svg xmlns="http://www.w3.org/2000/svg" viewBox="0.0 0.0 24.0 24.0" height="200px" width="200px"><path fill="none" stroke="black" stroke-width=".3" stroke-opacity="1.0"  filling="0" d="M5.767104148864746 4.574459552764893 L5.767104148864746 4.574459552764893 C4.040417671203613 5.3415751457214355 3.079223155975342 5.329341411590576 1.2097196578979492 4.966068267822266 L1.2097196578979492 3.3953161239624023 C1.7317359447479248 3.607135057449341 2.217536449432373 3.954974889755249 2.775768518447876 4.030772686004639 C4.74221134185791 4.2977800369262695 6.1079912185668945 2.348491668701172 8.16578483581543 2.989020347595215 C9.395580291748047 3.3718183040618896 9.64700698852539 3.8520870208740234 10.414992332458496 4.710324287414551 L10.414992332458496 4.710324287414551 C11.162154197692871 4.651166915893555 13.67529582977295 5.522900104522705 13.67529582977295 6.524292469024658 L13.669463157653809 6.5646843910217285 C13.506455421447754 6.73489236831665 13.3434476852417 6.905100345611572 13.180439949035645 7.075308322906494 L9.152472496032715 8.21622085571289 C6.983738899230957 8.610381126403809 8.52611255645752 6.021169662475586 9.177961349487305 5.244492053985596 L9.177961349487305 5.244492053985596 C7.654764652252197 4.15039587020874 7.45731258392334 3.9556527137756348 5.767104148864746 4.574459552764893 L5.767104148864746 4.574459552764893"></path>
<path fill="none" stroke="black" stroke-width=".3" stroke-opacity="1.0"  filling="0" d="M17.857704162597656 7.6351799964904785 L17.857704162597656 7.6351799964904785 C20.113798141479492 8.559639930725098 21.836746215820312 9.954903602600098 22.534626007080078 12.41952896118164 C23.240760803222656 14.91330623626709 22.432809829711914 17.343013763427734 20.82269859313965 19.002954483032227 C19.212587356567383 20.66289520263672 16.80031967163086 21.55306625366211 14.297821044921875 20.967769622802734 C12.65904712677002 20.584484100341797 11.611383438110352 19.677595138549805 10.47093677520752 18.51769256591797 L5.6508965492248535 18.51769256591797 C4.205686569213867 20.03775978088379 3.2338569164276123 20.598661422729492 1.2000007629394531 21.11768341064453 L1.2000007629394531 14.842127799987793 L1.2000007629394531 8.566572189331055 C3.22687029838562 9.082246780395508 4.197873115539551 9.641337394714355 5.641392230987549 11.1525239944458 L6.725496292114258 11.15317153930664 L6.72484827041626 10.072739601135254 C6.92947244644165 9.501708030700684 7.134096145629883 8.930675506591797 7.338720321655273 8.359643936157227 L7.338720321655273 8.359643936157227 C7.8734612464904785 8.83709716796875 8.67879581451416 9.139850616455078 9.385536193847656 9.019739151000977 L13.414152145385742 7.878612041473389 C13.766304016113281 7.529987812042236 14.11845588684082 7.181364059448242 14.47060775756836 6.83273983001709 L15.777839660644531 7.350708484649658 C16.473234176635742 7.428592205047607 17.166011810302734 7.529336929321289 17.857704162597656 7.6351799964904785 L17.857704162597656 7.6351799964904785"></path>
<path fill="none" stroke="black" stroke-width=".3" stroke-opacity="1.0"  filling="0" d="M15.073463439941406 8.698331832885742 L15.073463439941406 8.698331832885742 C15.238977432250977 8.533123970031738 15.609721183776855 8.532919883728027 15.775031089782715 8.698331832885742 L15.775031089782715 10.212275505065918 C15.609823226928711 10.377789497375488 15.238875389099121 10.377585411071777 15.073463439941406 10.212275505065918 L15.073463439941406 8.698331832885742"></path>
<path fill="none" stroke="black" stroke-width=".3" stroke-opacity="1.0"  filling="0" d="M16.07980728149414 15.14377212524414 L16.07980728149414 15.14377212524414 C15.876839637756348 15.634839057922363 15.845967292785645 16.240581512451172 15.470903396606445 16.616971969604492 C13.778813362121582 18.315046310424805 12.494985580444336 16.526668548583984 11.922240257263184 15.14377212524414 L12.621431350708008 15.14377212524414 C13.345328330993652 16.885753631591797 14.658575057983398 16.887489318847656 15.381263732910156 15.14377212524414 L16.07980728149414 15.14377212524414"></path></svg>