<svg xmlns="http://www.w3.org/2000/svg" viewBox="0.0 0.0 24.0 24.0" height="200px" width="200px"><path fill="none" stroke="black" stroke-width=".3" stroke-opacity="1.0"  filling="0" d="M15.255660057067871 2.9463605880737305 L15.255660057067871 2.9463605880737305 C15.598235130310059 2.6044323444366455 15.940811157226562 2.2625043392181396 16.28338623046875 1.9205760955810547 L20.920909881591797 1.9205760955810547 C21.26333999633789 2.2625043392181396 21.605772018432617 2.6044323444366455 21.94820213317871 2.9463605880737305 L21.94820213317871 5.734055995941162 L21.325260162353516 5.734055995941162 L20.93991470336914 4.6858086585998535 C20.85600471496582 4.628024578094482 20.717260360717773 4.6286468505859375 20.634275436401367 4.687752723693848 L20.634275436401367 4.687752723693848 C20.562347412109375 4.892016410827637 20.490421295166016 5.096280574798584 20.418493270874023 5.300544261932373 L20.418493270874023 5.300544261932373 C20.24863052368164 4.589564800262451 20.078798294067383 3.8785781860351562 19.909164428710938 3.167544364929199 L19.909164428710938 3.167544364929199 C19.823280334472656 3.104017734527588 19.667085647583008 3.1135847568511963 19.589265823364258 3.186767578125 L19.589265823364258 3.186767578125 C19.43970489501953 4.519134521484375 19.412736892700195 4.7587890625 19.24842071533203 6.219840049743652 L19.24842071533203 6.219840049743652 C19.156692504882812 6.081744194030762 19.064964294433594 5.943648338317871 18.973236083984375 5.8055524826049805 L18.973236083984375 5.8055524826049805 C18.928020477294922 5.781720161437988 18.88280487060547 5.757888317108154 18.837589263916016 5.734055995941162 L18.211402893066406 5.734055995941162 C18.08338737487793 5.384640216827393 17.955371856689453 5.035224437713623 17.827356338500977 4.6858086585998535 L17.827356338500977 4.6858086585998535 C17.743370056152344 4.628134727478027 17.6046199798584 4.628534317016602 17.52171516418457 4.687752723693848 L17.52171516418457 4.687752723693848 C17.44921112060547 4.892016410827637 17.376707077026367 5.096280574798584 17.304203033447266 5.300544261932373 L17.304203033447266 5.300544261932373 C17.18134117126465 4.785976886749268 16.936033248901367 3.758373975753784 16.795093536376953 3.167544364929199 L16.795093536376953 3.167544364929199 C16.709306716918945 3.1040074825286865 16.553176879882812 3.113633871078491 16.47541046142578 3.186767578125 L16.47541046142578 3.186767578125 C16.362112045288086 4.197827339172363 16.24840545654297 5.208841323852539 16.134563446044922 6.219840049743652 L16.134563446044922 6.219840049743652 C16.042835235595703 6.081744194030762 15.9511079788208 5.943648338317871 15.859380722045898 5.8055524826049805 L15.859380722045898 5.8055524826049805 C15.814452171325684 5.781720161437988 15.769523620605469 5.757888317108154 15.724595069885254 5.734055995941162 L15.255660057067871 5.734055995941162 L15.255660057067871 2.9463605880737305"></path>
<path fill="none" stroke="black" stroke-width=".3" stroke-opacity="1.0"  filling="0" d="M20.920692443847656 8.246352195739746 L16.283170700073242 8.246352195739746 C15.940595626831055 7.9037041664123535 15.59801959991455 7.561056613922119 15.255444526672363 7.218408584594727 L15.255444526672363 6.058704376220703 L15.636034965515137 6.058704376220703 C15.794147491455078 6.296232223510742 15.95226001739502 6.533760070800781 16.11037254333496 6.77128791809082 L16.11037254333496 6.77128791809082 C16.205320358276367 6.8083696365356445 16.340072631835938 6.775726318359375 16.4075870513916 6.699359893798828 L16.4075870513916 6.699359893798828 C16.50318717956543 5.848733901977539 16.599018096923828 4.998134613037109 16.694866180419922 4.147536754608154 L16.694866180419922 4.147536754608154 C16.83512306213379 4.735560417175293 16.975378036499023 5.32358455657959 17.11563491821289 5.9116082191467285 L17.11563491821289 5.9116082191467285 C17.195173263549805 5.978121280670166 17.340044021606445 5.985860347747803 17.42624282836914 5.9282402992248535 L17.42624282836914 5.9282402992248535 C17.509618759155273 5.692728519439697 17.59299659729004 5.457216262817383 17.676372528076172 5.221704483032227 L17.676372528076172 5.221704483032227 C17.766300201416016 5.465280532836914 17.856225967407227 5.708856582641602 17.94615364074707 5.952432632446289 L17.94615364074707 5.952432632446289 C17.996553421020508 5.987856388092041 18.046955108642578 6.023280620574951 18.097354888916016 6.058704376220703 L18.749889373779297 6.058704376220703 C18.908000946044922 6.296232223510742 19.06611442565918 6.533760070800781 19.224225997924805 6.77128791809082 L19.224225997924805 6.77128791809082 C19.318851470947266 6.808427810668945 19.453250885009766 6.775517463684082 19.520580291748047 6.699359893798828 L19.520580291748047 6.699359893798828 C19.616525650024414 5.84852409362793 19.71261978149414 4.997705459594727 19.80872344970703 4.14688777923584 L19.80872344970703 4.14688777923584 C19.9489803314209 4.735127925872803 20.089235305786133 5.323368072509766 20.2294921875 5.9116082191467285 L20.2294921875 5.9116082191467285 C20.308982849121094 5.978178024291992 20.4538631439209 5.985806941986084 20.540098190307617 5.9282402992248535 L20.540098190307617 5.9282402992248535 C20.62347412109375 5.692728519439697 20.706850051879883 5.457216262817383 20.790225982666016 5.221704483032227 L20.790225982666016 5.221704483032227 C20.879722595214844 5.465280532836914 20.969219207763672 5.708856582641602 21.0587158203125 5.952432632446289 L21.0587158203125 5.952432632446289 C21.1092586517334 5.987856388092041 21.15980339050293 6.023280620574951 21.210346221923828 6.058704376220703 L21.947124481201172 6.058704376220703 L21.947124481201172 7.218408584594727 C21.60498046875 7.561056613922119 21.262836456298828 7.9037041664123535 20.920692443847656 8.246352195739746 L20.920692443847656 8.246352195739746"></path>
<path fill="none" stroke="black" stroke-width=".3" stroke-opacity="1.0"  filling="0" d="M14.565971374511719 8.887008666992188 L14.565971374511719 5.04350471496582 L14.565971374511719 1.2000007629394531 L18.59955596923828 1.2000007629394531 L22.633140563964844 1.2000007629394531 L22.633140563964844 5.04350471496582 L22.633140563964844 8.887008666992188 L18.59955596923828 8.887008666992188 L14.565971374511719 8.887008666992188"></path>
<path fill="none" stroke="black" stroke-width=".3" stroke-opacity="1.0"  filling="0" d="M9.271380424499512 9.422039985656738 L9.271380424499512 9.422039985656738 C9.195758819580078 10.137286186218262 8.903902053833008 10.81849479675293 8.61776351928711 11.47835922241211 L8.089427947998047 11.47835922241211 C8.427996635437012 10.828132629394531 8.685386657714844 10.131660461425781 8.869404792785645 9.422039985656738 L8.110163688659668 9.422039985656738 C7.996880054473877 8.327728271484375 7.996850490570068 7.215868949890137 8.110163688659668 6.121560096740723 L10.017443656921387 6.121560096740723 C10.115133285522461 7.217374324798584 10.115108489990234 8.326223373413086 10.017443656921387 9.422039985656738 L9.271380424499512 9.422039985656738"></path>
<path fill="none" stroke="black" stroke-width=".3" stroke-opacity="1.0"  filling="0" d="M11.734427452087402 11.47835922241211 L11.146907806396484 11.47835922241211 L11.146907806396484 4.697041034698486 C10.902107238769531 4.451808929443359 10.759007453918457 3.963186025619507 10.412507057189941 3.9613447189331055 C9.398362159729004 3.955955743789673 9.14926528930664 7.003769874572754 8.065019607543945 4.689263820648193 C7.946345806121826 4.435935020446777 8.594191551208496 4.9128241539001465 8.873939514160156 4.9128241539001465 C9.308538436889648 4.9128241539001465 9.17508316040039 4.066969394683838 9.482492446899414 3.7597625255584717 C10.556772232055664 2.6861884593963623 11.370613098144531 3.8199257850646973 11.734427452087402 4.697041034698486 L11.734427452087402 11.47835922241211"></path>
<path fill="none" stroke="black" stroke-width=".3" stroke-opacity="1.0"  filling="0" d="M5.936771869659424 11.580527305603027 L5.936771869659424 11.580527305603027 C7.27761697769165 12.135207176208496 8.302833557128906 14.551823616027832 5.936771869659424 14.551823616027832 C3.567742347717285 14.551823616027832 4.5931501388549805 12.13550090789795 5.936771869659424 11.580527305603027 L5.936771869659424 11.580527305603027"></path>
<path fill="none" stroke="black" stroke-width=".3" stroke-opacity="1.0"  filling="0" d="M18.800649642944336 12.158111572265625 L18.800649642944336 12.158111572265625 C19.19614601135254 12.545039176940918 19.591642379760742 12.931967735290527 19.987138748168945 13.31889533996582 L19.989730834960938 16.4515438079834 L14.027375221252441 16.4515438079834 L8.065019607543945 16.4515438079834 L8.065019607543945 12.158975601196289 L13.43283462524414 12.158543586730957 L18.800649642944336 12.158111572265625"></path>
<path fill="none" stroke="black" stroke-width=".3" stroke-opacity="1.0"  filling="0" d="M7.422420024871826 15.718439102172852 L7.422420024871826 15.718439102172852 C7.178267955780029 15.962592124938965 6.934115886688232 16.206745147705078 6.6899638175964355 16.450897216796875 L4.577916622161865 16.450897216796875 C4.333980560302734 16.206745147705078 3.8461084365844727 16.063570022583008 3.8461084365844727 15.718439102172852 C3.8461084365844727 15.373868942260742 4.333980560302734 15.231719970703125 4.577916622161865 14.988360404968262 L6.6899638175964355 14.988360404968262 C6.934115886688232 15.231719970703125 7.178267955780029 15.475079536437988 7.422420024871826 15.718439102172852 L7.422420024871826 15.718439102172852"></path>
<path fill="none" stroke="black" stroke-width=".3" stroke-opacity="1.0"  filling="0" d="M22.632274627685547 22.799999237060547 L20.69778060913086 22.799999237060547 L20.69778060913086 19.53170394897461 L14.90516471862793 19.53170394897461 L9.112548828125 19.53170394897461 L3.319931983947754 19.53170394897461 L3.319931983947754 22.799999237060547 L1.3668603897094727 22.799999237060547 L1.3668603897094727 16.639572143554688 L1.3668603897094727 10.479144096374512 C1.6849561929702759 10.157376289367676 2.003051996231079 9.83560848236084 2.321147918701172 9.513840675354004 L2.321147918701172 9.513191223144531 C2.654075860977173 9.835247993469238 2.987004041671753 10.157303810119629 3.319931983947754 10.479360580444336 L3.319931983947754 17.19242286682129 L9.11262035369873 17.19242286682129 L14.90530776977539 17.19242286682129 L20.697996139526367 17.19242286682129 L20.697996139526367 12.435456275939941 C21.020700454711914 12.113544464111328 21.210294723510742 11.469719886779785 21.666107177734375 11.469719886779785 C22.12151336669922 11.469719886779785 22.31036376953125 12.113544464111328 22.632492065429688 12.435456275939941 L22.632492065429688 17.617727279663086 L22.632492065429688 22.799999237060547"></path></svg>