<svg xmlns="http://www.w3.org/2000/svg" viewBox="0.0 0.0 24.0 24.0" height="200px" width="200px"><path fill="none" stroke="black" stroke-width=".3" stroke-opacity="1.0"  filling="0" d="M14.565216064453125 1.2000007629394531 L14.565216064453125 1.2000007629394531 C15.31966495513916 1.339596152305603 16.051292419433594 1.648535132408142 16.7027530670166 2.0538482666015625 L15.963382720947266 3.474696159362793 C15.497255325317383 3.245880126953125 15.084254264831543 2.7908666133880615 14.565000534057617 2.788248062133789 C14.051616668701172 2.785659074783325 13.641240119934082 3.2365200519561768 13.179360389709473 3.46065616607666 L12.424872398376465 2.0851688385009766 C13.076784133911133 1.6715545654296875 13.806930541992188 1.345154047012329 14.565216064453125 1.2000007629394531 L14.565216064453125 1.2000007629394531"></path>
<path fill="none" stroke="black" stroke-width=".3" stroke-opacity="1.0"  filling="0" d="M14.352023124694824 2.63143253326416 L13.929960250854492 1.7879524230957031 L14.774304389953613 1.3658885955810547 L15.196368217468262 2.2095842361450195 L14.352023124694824 2.63143253326416"></path>
<path fill="none" stroke="black" stroke-width=".3" stroke-opacity="1.0"  filling="0" d="M4.622088432312012 4.640232563018799 L4.622088432312012 4.640232563018799 C4.501485824584961 4.6311116218566895 4.369098663330078 4.568464756011963 4.303272247314453 4.467000484466553 L4.300248622894287 2.711568832397461 C4.4074177742004395 2.6043996810913086 4.647912502288818 2.6042470932006836 4.7549285888671875 2.711568832397461 L4.7549285888671875 4.073448657989502 L5.919816970825195 3.525239944458008 C6.062385559082031 3.576026678085327 6.164464473724365 3.7933273315429688 6.113568305969238 3.935856819152832 L4.622088432312012 4.640232563018799"></path>
<path fill="none" stroke="black" stroke-width=".3" stroke-opacity="1.0"  filling="0" d="M15.919754028320312 4.645416736602783 L15.919754028320312 4.645416736602783 C15.412559509277344 5.86952543258667 13.205188751220703 6.807294845581055 13.205280303955078 4.645416736602783 C13.205371856689453 2.482975721359253 15.412575721740723 3.4206576347351074 15.919754028320312 4.645416736602783 L15.919754028320312 4.645416736602783"></path>
<path fill="none" stroke="black" stroke-width=".3" stroke-opacity="1.0"  filling="0" d="M13.257120132446289 6.389832496643066 L15.901176452636719 6.391776084899902 C16.516557693481445 6.645170211791992 17.127460479736328 7.042238712310791 17.490718841552734 7.5998640060424805 L18.651504516601562 11.394552230834961 L17.49892807006836 11.394552230834961 L16.62347984313965 8.482872009277344 L16.017601013183594 8.482872009277344 L16.861080169677734 11.393903732299805 L12.256823539733887 11.393903732299805 L13.106783866882324 8.482872009277344 L12.500472068786621 8.482872009277344 L11.64835262298584 11.394552230834961 L10.478280067443848 11.394552230834961 L11.63431167602539 7.5998640060424805 C12.004090309143066 7.0354509353637695 12.62975788116455 6.638256549835205 13.257120132446289 6.389832496643066 L13.257120132446289 6.389832496643066"></path>
<path fill="none" stroke="black" stroke-width=".3" stroke-opacity="1.0"  filling="0" d="M4.606535911560059 6.514464378356934 L4.606535911560059 6.514464378356934 C4.071009159088135 6.292299270629883 3.409806251525879 6.258053302764893 2.999955892562866 5.8479695320129395 C1.5937447547912598 4.4409565925598145 2.615022659301758 1.9668006896972656 4.606535911560059 1.9668006896972656 C6.59848165512085 1.9668006896972656 7.621255874633789 4.440316200256348 6.2135491371154785 5.847888469696045 C5.803461074829102 6.257937431335449 5.142207145690918 6.292272567749023 4.606535911560059 6.514464378356934 L4.606535911560059 6.514464378356934"></path>
<path fill="none" stroke="black" stroke-width=".3" stroke-opacity="1.0"  filling="0" d="M4.606535911560059 7.262256622314453 L4.606535911560059 7.262256622314453 C3.3461554050445557 6.920619487762451 2.720944881439209 7.022332668304443 1.9994972944259644 5.765232563018799 C0.8614387512207031 3.782200336456299 2.300701141357422 1.2198724746704102 4.606535911560059 1.2198724746704102 C6.912261962890625 1.2198724746704102 8.354296684265137 3.781489849090576 7.2148566246032715 5.765232563018799 C6.492865085601807 7.022205352783203 5.8670973777771 6.920671463012695 4.606535911560059 7.262256622314453 L4.606535911560059 7.262256622314453"></path>
<path fill="none" stroke="black" stroke-width=".3" stroke-opacity="1.0"  filling="0" d="M18.686279296875 12.44647216796875 L18.686279296875 12.44647216796875 C19.07111930847168 12.822959899902344 19.455961227416992 13.199448585510254 19.840801239013672 13.575936317443848 L19.843177795410156 16.624128341674805 L14.04260540008545 16.624128341674805 L8.242033004760742 16.624128341674805 L8.242033004760742 12.449496269226074 L13.464156150817871 12.44798469543457 L18.686279296875 12.44647216796875"></path>
<path fill="none" stroke="black" stroke-width=".3" stroke-opacity="1.0"  filling="0" d="M4.725985050201416 13.330775260925293 L4.725985050201416 13.330775260925293 C5.265366554260254 12.027815818786621 7.6173601150512695 11.030596733093262 7.6173601150512695 13.330775260925293 C7.6173601150512695 15.631863594055176 5.2656331062316895 14.634552955627441 4.725985050201416 13.330775260925293 L4.725985050201416 13.330775260925293"></path>
<path fill="none" stroke="black" stroke-width=".3" stroke-opacity="1.0"  filling="0" d="M6.9062886238098145 16.62175178527832 L4.850616455078125 16.62175178527832 C4.613880634307861 16.38479995727539 4.140408515930176 16.2458438873291 4.140408515930176 15.910896301269531 C4.140408515930176 15.575897216796875 4.613880634307861 15.436848640441895 4.850616455078125 15.199824333190918 L6.9062886238098145 15.199824333190918 C7.143312454223633 15.436848640441895 7.6173601150512695 15.57569408416748 7.6173601150512695 15.910896301269531 C7.6173601150512695 16.246047973632812 7.143312454223633 16.38479995727539 6.9062886238098145 16.62175178527832 L6.9062886238098145 16.62175178527832"></path>
<path fill="none" stroke="black" stroke-width=".3" stroke-opacity="1.0"  filling="0" d="M20.530921936035156 19.620264053344727 L14.896346092224121 19.620264053344727 L9.26176929473877 19.620264053344727 L3.627192497253418 19.620264053344727 L3.627192497253418 22.799999237060547 L1.7268247604370117 22.799999237060547 L1.7268247604370117 16.807727813720703 L1.7268247604370117 10.815455436706543 C2.0359208583831787 10.501967430114746 2.3450167179107666 10.188480377197266 2.6541128158569336 9.874992370605469 L2.6541128158569336 9.874344825744629 C2.9784727096557617 10.188048362731934 3.30283260345459 10.501751899719238 3.627192497253418 10.815455436706543 L3.627192497253418 17.344486236572266 L9.26176929473877 17.344486236572266 L14.896346092224121 17.344486236572266 L20.530921936035156 17.344486236572266 L20.530921936035156 12.71733570098877 C20.845417022705078 12.403847694396973 21.03035545349121 11.776871681213379 21.474407196044922 11.776871681213379 C21.917390823364258 11.776871681213379 22.10037612915039 12.403847694396973 22.413360595703125 12.71733570098877 L22.413360595703125 17.7586669921875 L22.413360595703125 22.799999237060547 L20.530921936035156 22.799999237060547 L20.530921936035156 19.620264053344727"></path></svg>