<svg xmlns="http://www.w3.org/2000/svg" viewBox="0.0 0.0 24.0 24.0" height="200px" width="200px"><path fill="none" stroke="black" stroke-width=".3" stroke-opacity="1.0"  filling="0" d="M11.035128593444824 4.813248634338379 L11.035128593444824 4.813248634338379 C10.623711585998535 4.603575706481934 10.10072135925293 4.535398960113525 9.80087661743164 4.184229373931885 C8.77192211151123 2.979146957397461 9.739995956420898 1.0807044506072998 11.319600105285645 1.2056169509887695 C12.89926815032959 1.33053457736969 13.558387756347656 3.356658458709717 12.352080345153809 4.385379314422607 C12.000873565673828 4.684882640838623 11.474112510681152 4.670625686645508 11.035128593444824 4.813248634338379 L11.035128593444824 4.813248634338379"></path>
<path fill="none" stroke="black" stroke-width=".3" stroke-opacity="1.0"  filling="0" d="M11.531280517578125 8.440320014953613 L12.684720039367676 5.374848365783691 L12.958175659179688 5.374848365783691 C13.386719703674316 5.683800220489502 13.815263748168945 5.992752552032471 14.243807792663574 6.301704406738281 L15.158136367797852 9.594841003417969 C15.676770210266113 10.31578254699707 16.97907257080078 10.956299781799316 17.714712142944336 11.4617280960083 L17.714712142944336 11.4617280960083 C18.069950103759766 12.257589340209961 17.87086296081543 13.157624244689941 16.782670974731445 12.803303718566895 L16.782670974731445 12.803303718566895 C14.792369842529297 11.444893836975098 13.95421314239502 10.999141693115234 13.260359764099121 8.646384239196777 L12.944352149963379 12.68623161315918 L14.930471420288086 15.905712127685547 C14.98706340789795 16.075847625732422 15.043655395507812 16.245983123779297 15.100247383117676 16.416118621826172 L15.554495811462402 21.527542114257812 C15.20097541809082 21.95018196105957 15.042763710021973 22.7465877532959 14.493935585021973 22.79546356201172 C13.945107460021973 22.84433937072754 13.648655891418457 22.088422775268555 13.2260160446167 21.734901428222656 L13.2260160446167 21.734901428222656 C13.09203052520752 20.225318908691406 13.283163070678711 18.325170516967773 12.798336029052734 16.898880004882812 C12.446949005126953 15.865153312683105 11.599266052246094 15.073904991149902 11.004887580871582 14.158056259155273 L9.62335205078125 18.073810577392578 L8.241816520690918 21.989566802978516 C7.749624252319336 22.23753547668457 7.288607597351074 22.906177520751953 6.76524019241333 22.733470916748047 C6.2420573234558105 22.56082534790039 6.269880294799805 21.749231338500977 6.022200584411621 21.257112503051758 L8.425199508666992 14.314008712768555 L8.881608009338379 11.31096076965332 L7.333536148071289 11.31096076965332 C6.856225490570068 10.833733558654785 6.070082664489746 10.297905921936035 6.197160243988037 9.635016441345215 L6.197160243988037 9.635016441345215 C7.050976753234863 7.738491535186768 7.333970546722412 5.803604602813721 9.541488647460938 5.374632358551025 L11.815967559814453 5.374632358551025 L7.043232440948486 8.793264389038086 L6.614688396453857 9.79377555847168 C6.532541275024414 10.215672492980957 7.02969217300415 10.560258865356445 7.333536148071289 10.864272117614746 L11.296704292297363 10.864272117614746 C11.704440116882324 10.456607818603516 12.464373588562012 10.215173721313477 12.519911766052246 9.641280174255371 C12.569856643676758 9.125178337097168 11.860824584960938 8.8406400680542 11.531280517578125 8.440320014953613 L11.531280517578125 8.440320014953613"></path>
<path fill="none" stroke="black" stroke-width=".3" stroke-opacity="1.0"  filling="0" d="M11.296920776367188 10.417367935180664 L10.813079833984375 10.422119140625 L11.379863739013672 8.873400688171387 C11.61091136932373 9.129216194152832 12.091499328613281 9.29663372039795 12.073007583618164 9.640847206115723 C12.053376197814941 10.00627326965332 11.55561637878418 10.158527374267578 11.296920776367188 10.417367935180664 L11.296920776367188 10.417367935180664"></path></svg>