<svg xmlns="http://www.w3.org/2000/svg" viewBox="0.0 0.0 24.0 24.0" height="200px" width="200px"><path fill="none" stroke="black" stroke-width=".3" stroke-opacity="1.0"  filling="0" d="M12.54323959350586 2.348257064819336 L12.54323959350586 2.348257064819336 C12.62179183959961 2.533008575439453 12.700343132019043 2.7177600860595703 12.778895378112793 2.9025115966796875 L10.660799980163574 2.9025115966796875 C10.739423751831055 2.7177600860595703 10.818047523498535 2.533008575439453 10.896671295166016 2.348257064819336 L12.54323959350586 2.348257064819336"></path>
<path fill="none" stroke="black" stroke-width=".3" stroke-opacity="1.0"  filling="0" d="M10.816967964172363 3.0522003173828125 L12.62272834777832 3.0522003173828125 C12.624959945678711 3.386352300643921 12.627192497253418 3.72050404548645 12.629424095153809 4.054656028747559 L12.629424095153809 4.054656028747559 C13.00926685333252 5.799869537353516 12.96932601928711 7.655358791351318 13.489104270935059 9.322896003723145 C13.710144996643066 10.032032012939453 14.516439437866211 10.45255184173584 14.75723934173584 11.155223846435547 L14.742227554321289 15.273263931274414 L14.727215766906738 19.39130401611328 C15.175802230834961 20.630298614501953 14.513565063476562 20.869152069091797 13.392768859863281 21.38973617553711 L10.046928405761719 21.38973617553711 C8.927933692932129 21.00584602355957 8.253381729125977 20.694429397583008 8.712264060974121 19.39130401611328 L8.697360038757324 15.273263931274414 L8.682456016540527 11.155223846435547 C8.886581420898438 10.440973281860352 9.729425430297852 10.031838417053223 9.950592041015625 9.32267951965332 C10.470601081848145 7.655296325683594 10.430353164672852 5.799552917480469 10.810272216796875 4.054440498352051 L10.810272216796875 4.054440498352051 C10.812503814697266 3.720360517501831 10.814736366271973 3.3862802982330322 10.816967964172363 3.0522003173828125 L10.816967964172363 3.0522003173828125"></path>
<path fill="none" stroke="black" stroke-width=".3" stroke-opacity="1.0"  filling="0" d="M13.724111557006836 4.274328231811523 L13.596024513244629 3.8017196655273438 L14.324591636657715 4.654272556304932 L14.324591636657715 5.020823955535889 C14.773584365844727 5.372616291046143 15.222576141357422 5.724408149719238 15.671568870544434 6.076200485229492 L15.671568870544434 6.076200485229492 C15.440375328063965 6.024824142456055 14.898449897766113 5.7739667892456055 14.965032577514648 6.001248359680176 C15.181573867797852 6.740420341491699 15.901330947875977 7.3106513023376465 15.980664253234863 8.076791763305664 C16.033292770385742 8.585026741027832 15.649943351745605 10.12812614440918 15.525982856750488 10.678296089172363 L15.428783416748047 10.837056159973145 C15.761945724487305 10.945455551147461 15.909518241882324 10.965386390686035 15.927959442138672 11.336015701293945 L15.627503395080566 12.38275146484375 C15.5691556930542 12.549516677856445 15.374752044677734 14.070735931396484 14.814478874206543 13.42516803741455 L14.832406997680664 13.62388801574707 C14.77146053314209 14.21129035949707 14.562505722045898 14.781330108642578 14.320272445678711 15.319920539855957 L13.851767539978027 15.867912292480469 C13.79589557647705 16.08131980895996 13.74002456665039 16.294729232788086 13.684152603149414 16.508136749267578 L13.684152603149414 16.508136749267578 C13.666296005249023 16.525705337524414 13.666296005249023 16.525705337524414 13.684152603149414 16.508136749267578 L13.684152603149414 16.508136749267578 C14.786028861999512 17.501136779785156 16.044734954833984 18.13785171508789 17.38071632385254 18.63693618774414 C18.716697692871094 19.136018753051758 20.129955291748047 19.49747085571289 21.540935516357422 19.939945220947266 L21.540935516357422 21.631439208984375 L15.21660041809082 21.631439208984375 L8.892264366149902 21.631439208984375 L2.5679283142089844 21.631439208984375 L2.5679283142089844 20.942401885986328 C4.115452289581299 20.53569793701172 5.5343337059021 19.52614402770996 6.957911968231201 18.79600715637207 L6.957911968231201 18.79600715637207 C6.957911968231201 17.75403594970703 7.891576766967773 17.240631103515625 8.313528060913086 16.39797592163086 L8.313528060913086 16.39797592163086 C7.663924217224121 15.502470970153809 7.116724014282227 14.628414154052734 6.953160285949707 13.518263816833496 L6.939768314361572 13.226663589477539 C5.787538051605225 13.424873352050781 5.404294490814209 9.709321022033691 6.661776065826416 10.245431900024414 L6.661776065826416 10.245431900024414 C5.825730323791504 7.449702262878418 6.64778995513916 5.664627552032471 8.993712425231934 4.384704113006592 L8.556528091430664 3.4924087524414062 L9.413183212280273 3.5453290939331055 C9.436727523803711 3.508465051651001 9.460272789001465 3.4716012477874756 9.483817100524902 3.434737205505371 L9.899184226989746 3.266688346862793 C9.942593574523926 3.363703727722168 10.263664245605469 4.069775104522705 10.486488342285156 3.8010730743408203 L10.486488342285156 3.8010730743408203 C10.383272171020508 3.658519983291626 10.284090042114258 3.511730670928955 10.203960418701172 3.3550329208374023 L10.94159984588623 3.421344757080078 C10.75775146484375 3.018500804901123 11.073121070861816 3.3007376194000244 11.268407821655273 3.403848648071289 L11.563896179199219 3.4699440002441406 C12.081196784973145 3.8078455924987793 11.799440383911133 3.2336549758911133 12.24839973449707 3.125208854675293 L12.544320106506348 3.6200647354125977 C12.616392135620117 3.7230968475341797 12.688464164733887 3.8261289596557617 12.760536193847656 3.9291610717773438 L12.82728099822998 3.8762407302856445 C12.841897010803223 3.83347225189209 12.856512069702148 3.790703773498535 12.87112808227539 3.7479352951049805 L12.75211238861084 3.1917362213134766 C13.002469062805176 3.40971302986145 13.139214515686035 3.7321057319641113 13.308743476867676 4.0175042152404785 L13.56016731262207 4.454688549041748 L13.724111557006836 4.274328231811523"></path>
<path fill="none" stroke="black" stroke-width=".3" stroke-opacity="1.0"  filling="0" d="M13.68674373626709 5.715264320373535 L14.204496383666992 6.358727931976318 C14.591784477233887 6.662136077880859 14.979071617126465 6.965543746948242 15.36635971069336 7.268951892852783 L15.36635971069336 7.268951892852783 C15.16696834564209 7.224668025970459 14.699551582336426 7.008370876312256 14.757023811340332 7.2043681144714355 C15.257194519042969 8.9100923538208 15.672117233276367 9.324241638183594 15.240863800048828 11.238167762756348 L15.156839370727539 11.37511157989502 C15.444045066833496 11.468576431274414 15.57140064239502 11.485940933227539 15.587760925292969 11.805383682250977 L15.328776359558105 12.708263397216797 C15.278205871582031 12.85268783569336 15.110860824584961 14.163122177124023 14.627640724182129 13.607255935668945 L14.642975807189941 13.778543472290039 C14.59044361114502 14.285137176513672 14.410321235656738 14.776775360107422 14.201472282409668 15.241294860839844 L13.797335624694824 15.71390438079834 C13.749095916748047 15.89793586730957 13.700855255126953 16.081966400146484 13.652615547180176 16.26599884033203 L13.652615547180176 16.26599884033203 C13.637063980102539 16.28126335144043 13.637063980102539 16.28126335144043 13.652615547180176 16.26599884033203 L13.652615547180176 16.26599884033203 C15.566122055053711 17.99029541015625 17.98394775390625 18.45357322692871 20.42853546142578 19.225849151611328 L20.42853546142578 20.684497833251953 L14.974103927612305 20.684497833251953 L9.519672393798828 20.684497833251953 L4.065240383148193 20.684497833251953 L4.065240383148193 20.090280532836914 C5.424725532531738 19.73234748840332 6.602302551269531 18.879377365112305 7.851287841796875 18.238943099975586 L7.851287841796875 18.238943099975586 C7.851287841796875 17.33963394165039 8.6565580368042 16.89759063720703 9.020711898803711 16.1705265045166 L9.020711898803711 16.1705265045166 C8.460641860961914 15.398026466369629 7.988530158996582 14.644262313842773 7.847616195678711 13.68674373626709 L7.836167812347412 13.435319900512695 C6.842080593109131 13.606221199035645 6.511695384979248 10.401946067810059 7.596192359924316 10.864272117614746 L7.596192359924316 10.864272117614746 C6.875577449798584 8.453324317932129 7.5838422775268555 6.9136786460876465 9.607151985168457 5.810088157653809 L9.230232238769531 5.040480136871338 L9.96938419342041 5.086272716522217 C9.9896879196167 5.054520606994629 10.009992599487305 5.022768974304199 10.030296325683594 4.991016864776611 L10.388423919677734 4.8460798263549805 C10.425830841064453 4.929819107055664 10.702356338500977 5.538746356964111 10.89472770690918 5.3070244789123535 L10.89472770690918 5.3070244789123535 C10.805584907531738 5.184197902679443 10.719943046569824 5.057676792144775 10.650864601135254 4.922544479370117 L11.286983489990234 4.9800004959106445 C11.128496170043945 4.632612228393555 11.40019702911377 4.875943660736084 11.568864822387695 4.964880466461182 L11.823960304260254 5.021904468536377 C12.270049095153809 5.313296794891357 12.027048110961914 4.81790018081665 12.414287567138672 4.72468900680542 L12.669599533081055 5.151288032531738 C12.731736183166504 5.24013614654541 12.793871879577637 5.328984260559082 12.856008529663086 5.417832374572754 L12.913680076599121 5.372256278991699 C12.92620849609375 5.335320472717285 12.938735961914062 5.298384189605713 12.951264381408691 5.261448383331299 L12.84887981414795 4.781712055206299 C13.064687728881836 4.969850540161133 13.182748794555664 5.247763156890869 13.329048156738281 5.493864059448242 L13.54591178894043 5.871000289916992 L13.68674373626709 5.715264320373535"></path>
<path fill="none" stroke="black" stroke-width=".3" stroke-opacity="1.0"  filling="0" d="M20.495712280273438 9.407999992370605 L21.02599334716797 9.534144401550293 L20.63848876953125 9.845831871032715 L20.053991317749023 9.751224517822266 L20.495712280273438 9.407999992370605"></path>
<path fill="none" stroke="black" stroke-width=".3" stroke-opacity="1.0"  filling="0" d="M4.1395440101623535 9.751224517822266 L3.5576400756835938 9.848424911499023 L3.167544364929199 9.534144401550293 L3.697824478149414 9.407999992370605 L4.1395440101623535 9.751224517822266"></path>
<path fill="none" stroke="black" stroke-width=".3" stroke-opacity="1.0"  filling="0" d="M7.179096221923828 9.870023727416992 L7.179096221923828 9.870023727416992 C8.4005708694458 10.15832805633545 10.341334342956543 10.382896423339844 10.680456161499023 11.97537612915039 C11.0931978225708 13.913566589355469 8.4778470993042 14.81948184967041 7.088160514831543 14.41919994354248 C5.684122085571289 14.01478385925293 3.4574880599975586 12.24464225769043 4.079280376434326 10.407052993774414 C4.435675144195557 9.353796005249023 6.501508712768555 9.808165550231934 7.179096221923828 9.870023727416992 L7.179096221923828 9.870023727416992"></path>
<path fill="none" stroke="black" stroke-width=".3" stroke-opacity="1.0"  filling="0" d="M19.44811248779297 9.870023727416992 L19.44811248779297 9.870023727416992 C20.66814422607422 10.853864669799805 20.256074905395508 12.045982360839844 19.286502838134766 12.969366073608398 C18.316932678222656 13.89274787902832 16.789859771728516 14.547395706176758 15.779891967773438 14.456297874450684 C13.676176071166992 14.266544342041016 12.862112045288086 12.025888442993164 14.570831298828125 10.627320289611816 C15.765477180480957 9.649516105651855 18.034048080444336 9.721761703491211 19.44811248779297 9.870023727416992 L19.44811248779297 9.870023727416992"></path>
<path fill="none" stroke="black" stroke-width=".3" stroke-opacity="1.0"  filling="0" d="M12.746712684631348 10.579584121704102 L12.746712684631348 10.579584121704102 C15.025232315063477 9.600110054016113 17.21702003479004 9.026397705078125 19.709049224853516 8.95081615447998 C20.202524185180664 8.9358491897583 20.754871368408203 8.720571517944336 21.19015121459961 8.953536033630371 C21.4917049407959 9.11492919921875 21.41392707824707 9.599952697753906 21.525815963745117 9.923160552978516 L21.442440032958984 10.021656036376953 C20.702266693115234 10.57085132598877 20.783649444580078 11.40452766418457 20.380908966064453 12.238194465637207 C19.768938064575195 13.50496768951416 18.530948638916016 14.735337257385254 17.0550479888916 14.89375114440918 C15.761767387390137 15.032563209533691 13.951152801513672 14.832566261291504 13.34654426574707 13.447199821472168 C12.704609870910645 11.976306915283203 13.565545082092285 11.110325813293457 11.511191368103027 11.478144645690918 C10.745244026184082 11.615283012390137 10.888574600219727 13.349959373474121 10.846128463745117 13.447199821472168 C10.24077320098877 14.834014892578125 8.433304786682129 15.031586647033691 7.138920307159424 14.892671585083008 C5.662613391876221 14.734231948852539 4.425655364990234 13.50625228881836 3.81319522857666 12.238679885864258 C3.41009259223938 11.404402732849121 3.490952253341675 10.572294235229492 2.751312255859375 10.021656036376953 L2.667936325073242 9.923160552978516 C2.7798964977264404 9.599952697753906 2.702265977859497 9.114985466003418 3.003816604614258 8.953536033630371 C3.4390206336975098 8.720529556274414 3.991347312927246 8.935522079467773 4.484776496887207 8.950431823730469 C6.458621025085449 9.010076522827148 8.34327220916748 9.328780174255371 10.191143989562988 10.037551879882812 C10.883575439453125 10.303141593933105 11.911502838134766 10.966243743896484 12.746712684631348 10.579584121704102 L12.746712684631348 10.579584121704102"></path>
<path fill="none" stroke="black" stroke-width=".3" stroke-opacity="1.0"  filling="0" d="M17.678640365600586 11.497584342956543 L14.24229621887207 13.365119934082031 L17.56653594970703 18.760801315307617 L14.72462272644043 20.511911392211914 L11.30512809753418 14.961575508117676 L7.781736373901367 16.876415252685547 L6.974868297576904 9.722603797912598 L6.168000221252441 2.5687923431396484 L11.923320770263672 7.033188343048096 L17.678640365600586 11.497584342956543"></path>
<path fill="none" stroke="black" stroke-width=".3" stroke-opacity="1.0"  filling="0" d="M17.678640365600586 12.145584106445312 L14.24229621887207 14.013120651245117 L17.56653594970703 19.40880012512207 L14.72462272644043 21.159912109375 L11.30512809753418 15.609575271606445 L7.781736373901367 17.5244140625 L6.974868297576904 10.370603561401367 L6.168000221252441 3.216792106628418 L11.923320770263672 7.681188106536865 L17.678640365600586 12.145584106445312"></path>
<path fill="none" stroke="black" stroke-width=".3" stroke-opacity="1.0"  filling="0" d="M14.299320220947266 12.85816764831543 L14.299320220947266 17.671728134155273 C12.49761962890625 17.992002487182617 11.155362129211426 17.989809036254883 9.35313606262207 17.671728134155273 L9.35313606262207 12.844991683959961 C11.124588012695312 13.123030662536621 12.526863098144531 13.128897666931152 14.299320220947266 12.85816764831543 L14.299320220947266 12.85816764831543"></path>
<path fill="none" stroke="black" stroke-width=".3" stroke-opacity="1.0"  filling="0" d="M21.10936737060547 18.097896575927734 L21.10936737060547 18.097896575927734 C20.616300582885742 19.920345306396484 20.20849609375 20.328184127807617 18.38603973388672 20.821224212646484 L12.162755966186523 20.821224212646484 L5.939472198486328 20.821224212646484 C4.116915225982666 20.328184127807617 3.709005355834961 19.920452117919922 3.2159290313720703 18.097896575927734 L3.2159290313720703 11.874720573425293 L3.2159290313720703 5.651544094085693 C3.7090072631835938 3.828888177871704 4.116808891296387 3.421051502227783 5.939472198486328 2.9280004501342773 L12.16264820098877 2.9280004501342773 L18.38582420349121 2.9280004501342773 C20.208444595336914 3.42106032371521 20.616151809692383 3.828914165496826 21.109149932861328 5.651544094085693 L21.1092586517334 11.874720573425293 L21.10936737060547 18.097896575927734"></path></svg>