<svg xmlns="http://www.w3.org/2000/svg" viewBox="0.0 0.0 24.0 24.0" height="200px" width="200px"><path fill="none" stroke="black" stroke-width=".3" stroke-opacity="1.0"  filling="0" d="M10.617168426513672 4.720584392547607 L10.617168426513672 4.720584392547607 C10.562235832214355 6.650809288024902 10.519087791442871 8.538787841796875 10.623865127563477 10.465104103088379 L10.623865127563477 10.465104103088379 C8.288873672485352 10.525622367858887 8.57683277130127 11.305997848510742 8.477904319763184 13.633824348449707 C8.4176664352417 15.051246643066406 8.389250755310059 16.471485137939453 8.370499610900879 17.89202117919922 C8.351749420166016 19.312557220458984 8.34266471862793 20.73339080810547 8.321087837219238 22.15199851989746 L6.183120250701904 22.112255096435547 C6.086809158325195 20.400888442993164 5.986032962799072 18.68930435180664 5.892810344696045 16.97734832763672 C5.799588203430176 15.265392303466797 5.713918685913086 13.553064346313477 5.647820472717285 11.840206146240234 C5.58451509475708 10.199727058410645 5.343052864074707 8.145410537719727 6.341267108917236 6.7142438888549805 C7.594185829162598 4.917900085449219 8.512250900268555 5.150040626525879 10.616304397583008 4.610424995422363 L10.616304397583008 4.610424995422363 C10.616592407226562 4.60790491104126 10.616880416870117 4.605384349822998 10.617168426513672 4.6028642654418945 L10.617168426513672 4.6028642654418945 C10.619400978088379 4.604664325714111 10.62163257598877 4.60646390914917 10.623865127563477 4.608263969421387 L10.623865127563477 4.608263969421387 C10.62163257598877 4.64570426940918 10.619400978088379 4.6831440925598145 10.617168426513672 4.720584392547607 L10.617168426513672 4.720584392547607"></path>
<path fill="none" stroke="black" stroke-width=".3" stroke-opacity="1.0"  filling="0" d="M18.243263244628906 7.226832389831543 L18.243263244628906 7.226832389831543 C18.11527442932129 9.198787689208984 18.195219039916992 9.510879516601562 17.708637237548828 11.367444038391113 C17.53497886657715 12.030041694641113 17.523130416870117 13.068819046020508 16.859569549560547 13.238759994506836 C15.191559791564941 13.665945053100586 12.387432098388672 11.353865623474121 11.223912239074707 10.498151779174805 L11.223912239074707 10.498151779174805 C11.147086143493652 9.359842300415039 10.55635929107666 5.189246654510498 11.235143661499023 4.456200122833252 C12.1321439743042 3.4874935150146484 15.290580749511719 0.9553074836730957 16.859569549560547 1.8125762939453125 C18.03124237060547 2.452758312225342 18.12493133544922 6.297512531280518 18.243263244628906 7.226832389831543 L18.243263244628906 7.226832389831543"></path></svg>