<svg xmlns="http://www.w3.org/2000/svg" viewBox="0.0 0.0 24.0 24.0" height="200px" width="200px"><path fill="none" stroke="black" stroke-width=".3" stroke-opacity="1.0"  filling="0" d="M9.034536361694336 9.143183708190918 L9.034536361694336 9.143183708190918 C8.399707794189453 8.508357048034668 9.669364929199219 8.508357048034668 9.034536361694336 9.143183708190918 L9.034536361694336 9.143183708190918"></path>
<path fill="none" stroke="black" stroke-width=".3" stroke-opacity="1.0"  filling="0" d="M20.885160446166992 11.610984802246094 L20.885160446166992 11.610984802246094 C20.54906463623047 12.043992042541504 20.212968826293945 12.47700023651123 19.876873016357422 12.91000747680664 L19.876873016357422 12.91000747680664 C19.986892700195312 13.33787727355957 19.766990661621094 13.862844467163086 19.441848754882812 14.161943435668945 L19.441848754882812 14.161943435668945 C18.979087829589844 15.578219413757324 18.42108154296875 16.724870681762695 17.64740753173828 17.692323684692383 C16.87373161315918 18.65977668762207 15.88438892364502 19.44803237915039 14.558952331542969 20.147518157958984 L14.558952331542969 20.147518157958984 C14.278172492980957 20.512224197387695 13.744044303894043 20.82607650756836 13.298376083374023 20.711063385009766 L13.298376083374023 20.711063385009766 C12.865367889404297 21.047374725341797 12.547622680664062 21.719816207885742 11.999351501464844 21.719999313354492 C11.451143264770508 21.720182418823242 11.133048057556152 21.04795265197754 10.699895858764648 20.711929321289062 L10.699895858764648 20.711929321289062 C10.25429630279541 20.826507568359375 9.720908164978027 20.512264251708984 9.440183639526367 20.147735595703125 L9.440183639526367 20.147735595703125 C8.114614486694336 19.44837188720703 7.125228404998779 18.660152435302734 6.351565837860107 17.69268798828125 C5.577903747558594 16.725223541259766 5.019964218139648 15.578512191772461 4.55728816986084 14.162158966064453 L4.55728816986084 14.162158966064453 C4.232081413269043 13.863000869750977 4.012467384338379 13.337698936462402 4.122695446014404 12.909791946411133 L4.122695446014404 12.909791946411133 C3.78659987449646 12.476639747619629 3.1144537925720215 12.158588409423828 3.114408493041992 11.610335350036621 C3.114363193511963 11.062127113342285 3.786456346511841 10.74403190612793 4.122480392456055 10.310880661010742 L4.122480392456055 10.310880661010742 C4.005204677581787 9.854792594909668 4.389919281005859 9.323461532592773 4.780848026275635 9.060888290405273 L4.780848026275635 9.060888290405273 C5.879505634307861 6.582437038421631 7.053711414337158 5.182674407958984 9.441047668457031 3.8822879791259766 L9.441047668457031 3.8822879791259766 C9.717046737670898 3.5089948177337646 10.251191139221191 3.1724798679351807 10.700759887695312 3.288288116455078 L10.700759887695312 3.288288116455078 C11.133912086486816 2.9521920680999756 11.451963424682617 2.280090570449829 12.000216484069824 2.2799997329711914 C12.548324584960938 2.2799088954925537 12.866375923156738 2.951904535293579 13.299455642700195 3.2878570556640625 L13.299455642700195 3.2878570556640625 C13.749101638793945 3.1723783016204834 14.282791137695312 3.5093958377838135 14.558736801147461 3.8827199935913086 L14.558736801147461 3.8827199935913086 C16.94601058959961 5.183048248291016 18.120119094848633 6.5827178955078125 19.218719482421875 9.061103820800781 L19.218719482421875 9.061103820800781 C19.60974884033203 9.323744773864746 19.993927001953125 9.855857849121094 19.876222610473633 10.311960220336914 L19.876222610473633 10.311960220336914 C20.212535858154297 10.74496841430664 20.548847198486328 11.177976608276367 20.885160446166992 11.610984802246094 L20.885160446166992 11.610984802246094"></path>
<path fill="none" stroke="black" stroke-width=".3" stroke-opacity="1.0"  filling="0" d="M15.537431716918945 11.966951370239258 L15.537431716918945 11.966951370239258 C15.930912017822266 11.836055755615234 16.324392318725586 11.705159187316895 16.717872619628906 11.574263572692871 L16.717872619628906 11.574263572692871 C16.031064987182617 12.90420150756836 15.864725112915039 15.050292015075684 13.761967658996582 14.639328002929688 C13.257272720336914 14.540690422058105 12.84724235534668 14.16915225982666 12.389880180358887 13.934063911437988 L11.99654483795166 14.327832221984863 C12.846964836120605 14.9959135055542 14.068002700805664 15.006927490234375 15.144095420837402 15.114503860473633 L15.144095420837402 15.114503860473633 C14.60157585144043 15.342455863952637 14.05905532836914 15.57040786743164 13.516535758972168 15.798359870910645 L13.516535758972168 15.798359870910645 C13.159704208374023 16.12380027770996 12.802871704101562 16.449241638183594 12.446040153503418 16.774681091308594 L12.446040153503418 17.500656127929688 C14.435750961303711 19.01793098449707 12.294933319091797 17.946264266967773 11.999783515930176 17.946264266967773 C11.554422378540039 17.946264266967773 9.703307151794434 18.887767791748047 11.59543228149414 17.483375549316406 L11.59543228149414 16.598207473754883 C11.207927703857422 16.258440017700195 10.82042407989502 15.918671607971191 10.4329195022583 15.578903198242188 L10.4329195022583 15.578903198242188 C9.39863109588623 14.975615501403809 9.01076602935791 14.916786193847656 8.5584077835083 13.366368293762207 C8.006329536437988 11.47416877746582 9.521559715270996 11.065743446350098 8.062968254089355 9.607151985168457 L7.276296138763428 9.607151985168457 C7.538520336151123 9.344927787780762 7.80074405670166 9.082703590393066 8.062968254089355 8.820479393005371 L8.062968254089355 8.820479393005371 C8.16808795928955 8.554583549499512 8.273208618164062 8.288688659667969 8.378328323364258 8.02279281616211 L8.378328323364258 8.02279281616211 C8.132555961608887 7.468910217285156 8.400176048278809 6.969412326812744 9.04965591430664 7.1678643226623535 L9.04965591430664 7.1678643226623535 C9.233983039855957 7.060431957244873 10.171554565429688 6.348865509033203 10.064207077026367 7.467024326324463 L10.064207077026367 7.467024326324463 C11.05791187286377 7.301187038421631 10.653306007385254 8.143399238586426 10.376543998718262 8.50879192352295 L10.376543998718262 8.50879192352295 C10.698522567749023 10.649866104125977 12.087324142456055 12.438786506652832 14.504817008972168 11.230040550231934 C15.06617546081543 10.949361801147461 15.370219230651855 10.282780647277832 15.930767059326172 10.00048828125 C16.067842483520508 9.931456565856934 16.21796417236328 10.23196029663086 16.187862396240234 10.38245677947998 C16.075881958007812 10.942300796508789 15.754241943359375 11.438786506652832 15.537431716918945 11.966951370239258 L15.537431716918945 11.966951370239258"></path>
<path fill="none" stroke="black" stroke-width=".3" stroke-opacity="1.0"  filling="0" d="M11.999783515930176 19.56345558166504 L11.999783515930176 19.56345558166504 C10.397893905639648 19.316755294799805 9.002664566040039 18.760604858398438 7.90948486328125 17.851226806640625 C6.816305160522461 16.941848754882812 6.02517557144165 15.679243087768555 5.631484031677246 14.019630432128906 C5.133243560791016 11.919290542602539 5.522302627563477 9.531187057495117 6.637429237365723 7.668168067932129 C7.752556324005127 5.805150032043457 9.593751907348633 4.467216491699219 11.999783515930176 4.467216491699219 C14.405845642089844 4.467216491699219 16.247177124023438 5.805088043212891 17.362417221069336 7.6680755615234375 C18.4776554107666 9.531063079833984 18.866802215576172 11.919166564941406 18.368497848510742 14.019631385803223 C17.97476577758789 15.679298400878906 17.183551788330078 16.941909790039062 16.090290069580078 17.851276397705078 C14.997026443481445 18.760643005371094 13.601713180541992 19.31676483154297 11.999783515930176 19.56345558166504 L11.999783515930176 19.56345558166504"></path></svg>