<svg xmlns="http://www.w3.org/2000/svg" viewBox="0.0 0.0 24.0 24.0" height="200px" width="200px"><path fill="none" stroke="black" stroke-width=".3" stroke-opacity="1.0"  filling="0" d="M10.37978458404541 4.9800004959106445 L10.37978458404541 4.9800004959106445 C9.744471549987793 4.344181060791016 11.015827178955078 4.34446382522583 10.37978458404541 4.9800004959106445 L10.37978458404541 4.9800004959106445"></path>
<path fill="none" stroke="black" stroke-width=".3" stroke-opacity="1.0"  filling="0" d="M13.315008163452148 6.330000400543213 L13.315008163452148 6.330000400543213 C12.24179458618164 8.068737030029297 11.395880699157715 6.961527347564697 10.075008392333984 7.950000286102295 L10.075008392333984 7.950000286102295 C10.135868072509766 9.613516807556152 9.885878562927246 10.722326278686523 9.265008926391602 12.270000457763672 L9.265008926391602 12.270000457763672 C9.03069019317627 13.835997581481934 9.300000190734863 14.8129301071167 9.300000190734863 16.31999969482422 L7.915008068084717 16.050216674804688 C7.915008068084717 14.790216445922852 7.915008068084717 13.530216217041016 7.915008068084717 12.27021598815918 L7.915008068084717 12.27021598815918 C6.632633209228516 13.175141334533691 6.756243705749512 14.490653038024902 6.601728439331055 15.969432830810547 L6.601728439331055 15.969432830810547 C6.268728256225586 15.931560516357422 5.935728549957275 15.89368724822998 5.602728366851807 15.855814933776855 L5.21500825881958 15.780000686645508 C5.345117092132568 14.942941665649414 6.1455888748168945 12.730887413024902 4.945007801055908 12.270000457763672 C4.945007801055908 12.270000457763672 2.514380931854248 12.270000457763672 2.2799997329711914 12.270000457763672 L2.2799997329711914 8.220000267028809 L2.2799997329711914 4.1700005531311035 L8.09774398803711 4.1700005531311035 C8.126832008361816 3.630000591278076 8.155920028686523 3.0900001525878906 8.18500804901123 2.5500001907348633 L9.08572769165039 3.3600006103515625 C10.618860244750977 2.899876594543457 11.568757057189941 3.0766193866729736 13.045008659362793 2.820000648498535 L13.045008659362793 2.820000648498535 C12.497559547424316 3.3674490451812744 11.847481727600098 3.823763370513916 11.155008316040039 4.1700005531311035 L11.155008316040039 4.1700005531311035 C11.875039100646973 4.889969825744629 12.595032691955566 5.609976291656494 13.315008163452148 6.330000400543213 L13.315008163452148 6.330000400543213"></path>
<path fill="none" stroke="black" stroke-width=".3" stroke-opacity="1.0"  filling="0" d="M21.18000030517578 10.374167442321777 L21.18000030517578 10.374167442321777 C21.563129425048828 10.98376750946045 21.401599884033203 11.84911823272705 21.18000030517578 12.534168243408203 L21.18000030517578 12.534168243408203 C21.0 12.98416805267334 20.81999969482422 13.434168815612793 20.639999389648438 13.88416862487793 L20.639999389648438 13.88416862487793 C20.233551025390625 14.66451644897461 19.324735641479492 15.081327438354492 18.546527862548828 15.49185562133789 L18.249526977539062 15.9376802444458 C18.015670776367188 15.963672637939453 17.781814575195312 15.989665031433105 17.547958374023438 16.015657424926758 L18.070463180541992 15.232439041137695 C16.802745819091797 14.92480754852295 16.21884536743164 14.269245147705078 15.898125648498535 12.986363410949707 C15.817344665527344 12.663240432739258 15.9856538772583 12.256160736083984 15.780000686645508 11.99416732788086 C15.351027488708496 11.447672843933105 11.807278633117676 10.996101379394531 15.50999927520752 9.84000015258789 C16.691062927246094 9.471236228942871 17.188405990600586 11.332117080688477 17.669998168945312 11.724167823791504 C18.931264877319336 12.750926971435547 20.405269622802734 11.148896217346191 21.18000030517578 10.374167442321777 L21.18000030517578 10.374167442321777"></path>
<path fill="none" stroke="black" stroke-width=".3" stroke-opacity="1.0"  filling="0" d="M15.509784698486328 10.919783592224121 L15.509784698486328 10.919783592224121 C14.874077796936035 10.284079551696777 16.146221160888672 10.284363746643066 15.509784698486328 10.919783592224121 L15.509784698486328 10.919783592224121"></path>
<path fill="none" stroke="black" stroke-width=".3" stroke-opacity="1.0"  filling="0" d="M17.399999618530273 13.079999923706055 L17.399999618530273 13.079999923706055 C18.379730224609375 13.222219467163086 19.434463500976562 13.403839111328125 20.369998931884766 13.079999923706055 L20.369998931884766 13.079999923706055 C20.09015655517578 13.227913856506348 17.223114013671875 15.176191329956055 17.399999618530273 13.079999923706055 L17.399999618530273 13.079999923706055"></path>
<path fill="none" stroke="black" stroke-width=".3" stroke-opacity="1.0"  filling="0" d="M21.719999313354492 16.59000015258789 L21.719999313354492 21.450000762939453 L15.239999771118164 21.450000762939453 L8.75999927520752 21.450000762939453 L2.2799997329711914 21.450000762939453 L2.2799997329711914 16.31999969482422 C4.770385265350342 16.257335662841797 7.250030517578125 16.48160743713379 9.622257232666016 17.0819091796875 C11.994483947753906 17.682209014892578 14.25929069519043 18.65854263305664 16.31999969482422 20.099998474121094 L16.31999969482422 20.099998474121094 C15.646389961242676 18.606338500976562 14.834121704101562 18.367937088012695 13.350000381469727 17.669998168945312 L13.350000381469727 17.669998168945312 C14.784544944763184 17.205198287963867 16.121381759643555 16.869417190551758 17.477413177490234 16.68272590637207 C18.833444595336914 16.496036529541016 20.20867156982422 16.45843505859375 21.719999313354492 16.59000015258789 L21.719999313354492 16.59000015258789"></path></svg>