<svg xmlns="http://www.w3.org/2000/svg" viewBox="0.0 0.0 24.0 24.0" height="200px" width="200px"><path fill="none" stroke="black" stroke-width=".3" stroke-opacity="1.0"  filling="0" d="M17.622480392456055 3.922679901123047 L17.622480392456055 3.922679901123047 C17.775266647338867 4.075364589691162 17.775266647338867 4.417995929718018 17.622480392456055 4.570680141448975 L15.197232246398926 4.570680141448975 L17.395681381225586 5.595816135406494 C17.51373863220215 5.920188903808594 17.646413803100586 6.300111293792725 17.122007369995117 6.182472229003906 L17.122007369995117 6.182472229003906 C16.727874755859375 5.9977850914001465 13.412856101989746 4.769079208374023 13.412856101989746 4.246464252471924 C13.412856101989746 3.7242112159729004 16.72812271118164 2.4946489334106445 17.122007369995117 2.3100242614746094 L17.122007369995117 2.3100242614746094 C17.646337509155273 2.194885492324829 17.514314651489258 2.570937395095825 17.395681381225586 2.8968963623046875 L15.197447776794434 3.922679901123047 L17.622480392456055 3.922679901123047"></path>
<path fill="none" stroke="black" stroke-width=".3" stroke-opacity="1.0"  filling="0" d="M12.332855224609375 4.224432468414307 L12.332855224609375 4.224432468414307 C12.503175735473633 4.394752502441406 12.633163452148438 4.72838020324707 12.872856140136719 4.7046003341674805 L12.872856140136719 5.25 L11.522855758666992 5.25 L11.522855758666992 3.0900001525878906 L12.872856140136719 3.0900001525878906 L12.872856140136719 3.743617057800293 C12.633115768432617 3.718881130218506 12.50312614440918 4.053859710693359 12.332855224609375 4.224432468414307 L12.332855224609375 4.224432468414307"></path>
<path fill="none" stroke="black" stroke-width=".3" stroke-opacity="1.0"  filling="0" d="M11.792856216430664 7.139999866485596 L11.792856216430664 7.139999866485596 C10.714205741882324 8.21865177154541 9.972808837890625 7.108368396759033 9.10624885559082 6.140352249145508 L9.10624885559082 6.140352249145508 C9.019255638122559 6.5545549392700195 9.081294059753418 6.986918926239014 9.092856407165527 7.410000324249268 L5.853288173675537 7.410000324249268 L5.853288173675537 5.7900004386901855 L3.9632883071899414 5.7900004386901855 C4.420701503753662 4.31566858291626 4.6320695877075195 3.2900912761688232 6.392856597900391 3.0900001525878906 L10.982856750488281 3.0900001525878906 L10.982856750488281 5.25 L10.172856330871582 5.25 C10.56928825378418 5.978931903839111 11.170999526977539 6.590641975402832 11.792856216430664 7.139999866485596 L11.792856216430664 7.139999866485596"></path>
<path fill="none" stroke="black" stroke-width=".3" stroke-opacity="1.0"  filling="0" d="M11.253287315368652 11.460000038146973 L11.253287315368652 11.460000038146973 C11.253287315368652 13.67594051361084 11.253287315368652 15.891887664794922 11.253287315368652 18.107826232910156 C11.253287315368652 19.408044815063477 11.650193214416504 20.78309440612793 10.713288307189941 21.719999313354492 L4.233288288116455 21.719999313354492 C4.053287982940674 21.53999900817871 3.8732879161834717 21.360000610351562 3.6932878494262695 21.18000030517578 L3.6932878494262695 16.31999969482422 L3.6932878494262695 11.460000038146973 C4.180776596069336 9.728020668029785 4.3554277420043945 8.939746856689453 5.853720188140869 7.950000286102295 L9.09328842163086 7.950000286102295 C10.591370582580566 8.939804077148438 10.765928268432617 9.728133201599121 11.253287315368652 11.460000038146973 L11.253287315368652 11.460000038146973"></path>
<path fill="none" stroke="black" stroke-width=".3" stroke-opacity="1.0"  filling="0" d="M18.076080322265625 15.099167823791504 L20.306711196899414 15.099167823791504 L16.29084014892578 19.559999465942383 L12.27669620513916 15.099167823791504 L14.50754451751709 15.099167823791504 L14.50754451751709 9.300000190734863 L18.076080322265625 9.300000190734863 L18.076080322265625 15.099167823791504"></path></svg>