<svg xmlns="http://www.w3.org/2000/svg" viewBox="0.0 0.0 24.0 24.0" height="200px" width="200px"><path fill="none" stroke="black" stroke-width=".3" stroke-opacity="1.0"  filling="0" d="M12.0 2.2799997329711914 L12.0 2.2799997329711914 C14.009744644165039 2.499105215072632 15.89453125 2.5719947814941406 17.180068969726562 4.376459121704102 C18.554624557495117 6.305874824523926 18.36467742919922 9.099799156188965 18.368328094482422 11.329536437988281 C18.372116088867188 13.643417358398438 18.279083251953125 16.24103355407715 17.435579299926758 18.26017951965332 C16.59207534790039 20.279325485229492 14.998098373413086 21.720001220703125 12.0 21.719999313354492 C9.00190258026123 21.71999740600586 7.407925605773926 20.27932357788086 6.5644211769104 18.260177612304688 C5.720916271209717 16.241031646728516 5.627882957458496 13.643417358398438 5.631672382354736 11.329536437988281 C5.635324001312256 9.099799156188965 5.445376396179199 6.305877208709717 6.819931983947754 4.37645959854126 C8.10546875 2.571995735168457 9.990256309509277 2.499105215072632 12.0 2.2799997329711914 L12.0 2.2799997329711914"></path>
<path fill="none" stroke="black" stroke-width=".3" stroke-opacity="1.0"  filling="0" d="M11.66476821899414 2.9532718658447266 L11.66476821899414 9.316632270812988 C9.880017280578613 9.339712142944336 8.10645580291748 9.387463569641113 6.3248162269592285 9.49180793762207 L6.3248162269592285 9.49180793762207 C6.519373416900635 7.054154396057129 6.606932640075684 4.155257701873779 9.423141479492188 3.2810583114624023 C10.14434814453125 3.057183265686035 10.917559623718262 3.0625340938568115 11.66476821899414 2.9532718658447266 L11.66476821899414 2.9532718658447266"></path>
<path fill="none" stroke="black" stroke-width=".3" stroke-opacity="1.0"  filling="0" d="M12.0 21.046730041503906 L12.0 21.046730041503906 C10.500232696533203 20.85479736328125 9.745254516601562 20.980924606323242 8.522858619689941 20.058822631835938 C7.144273281097412 19.018901824951172 6.5859599113464355 17.29123306274414 6.3748579025268555 15.450660705566406 C6.163756370544434 13.610090255737305 6.299866676330566 11.656615257263184 6.310128688812256 10.165081024169922 L6.372983932495117 10.160544395446777 C8.139358520507812 10.059255599975586 9.897699356079102 10.008574485778809 11.6669282913208 9.987095832824707 L12.33523178100586 9.985152244567871 L12.33523178100586 2.9532718658447266 C13.8054780960083 3.157991647720337 14.784558296203613 3.054107904434204 15.967391014099121 4.0127763748168945 C16.968320846557617 4.8240156173706055 17.399429321289062 6.091202735900879 17.581087112426758 7.4362311363220215 C17.762746810913086 8.781258583068848 17.69495391845703 10.204127311706543 17.69808006286621 11.326727867126465 C17.701854705810547 12.681991577148438 17.765682220458984 14.398055076599121 17.519062042236328 16.008777618408203 C17.27243995666504 17.61949920654297 16.71536636352539 19.124881744384766 15.477334022521973 20.05878448486328 C14.254890441894531 20.980928421020508 13.499832153320312 20.854793548583984 12.0 21.046730041503906 L12.0 21.046730041503906"></path></svg>