<svg xmlns="http://www.w3.org/2000/svg" viewBox="0.0 0.0 24.0 24.0" height="200px" width="200px"><path fill="none" stroke="black" stroke-width=".3" stroke-opacity="1.0"  filling="0" d="M12.0 1.5844802856445312 L12.0 1.5844802856445312 C14.283310890197754 1.8867231607437134 15.305679321289062 1.9583678245544434 16.291486740112305 4.106712341308594 L16.291486740112305 4.235232353210449 C16.273632049560547 4.317168235778809 16.255775451660156 4.399104595184326 16.2379207611084 4.4810404777526855 L15.110615730285645 6.94214391708374 C15.186431884765625 7.0438079833984375 15.262248039245605 7.145472526550293 15.338064193725586 7.24713659286499 L15.351455688476562 7.265064239501953 C16.4343204498291 8.73933219909668 17.60178565979004 10.210978507995605 18.31317710876465 11.915594100952148 C18.771499633789062 13.013815879821777 19.060680389404297 14.173957824707031 19.04159927368164 15.373486518859863 C18.99962043762207 18.012418746948242 17.682552337646484 19.961990356445312 15.867209434509277 21.101167678833008 C14.05186653137207 22.240345001220703 11.73824691772461 22.56913185119629 9.703167915344238 21.96649742126465 C7.668087959289551 21.363862991333008 5.911547660827637 19.82980728149414 5.210360527038574 17.243303298950195 C4.8801469802856445 16.025226593017578 4.889464855194092 14.835516929626465 5.15096378326416 13.610668182373047 C5.659643173217773 11.22804069519043 7.229821681976318 9.253955841064453 8.627159118652344 7.334400177001953 L8.637527465820312 7.320576190948486 C8.726592063903809 7.199976444244385 8.815655708312988 7.079376220703125 8.904720306396484 6.958776473999023 L7.763160228729248 4.4838480949401855 C7.74508810043335 4.401480197906494 7.727016448974609 4.3191118240356445 7.708944320678711 4.236743927001953 L7.708944320678711 4.107143878936768 C8.6943941116333 1.9584360122680664 9.716520309448242 1.8867729902267456 12.0 1.5844802856445312 L12.0 1.5844802856445312"></path>
<path fill="none" stroke="black" stroke-width=".3" stroke-opacity="1.0"  filling="0" d="M12.0 2.1745920181274414 L12.0 2.1745920181274414 C13.841718673706055 2.4016246795654297 14.822447776794434 2.4076976776123047 15.701592445373535 4.107143878936768 L14.428703308105469 7.014072418212891 C15.627727508544922 8.624862670898438 16.95612335205078 10.233598709106445 17.74608039855957 12.100372314453125 C18.188335418701172 13.145479202270508 18.466041564941406 14.229148864746094 18.451488494873047 15.373486518859863 C18.416227340698242 18.146181106567383 16.98296546936035 19.994585037231445 15.083566665649414 20.91875648498535 C13.184168815612793 21.842927932739258 10.818636894226074 21.84286880493164 8.918838500976562 20.918636322021484 C7.019039630889893 19.99440574645996 5.584975242614746 18.1460018157959 5.5485124588012695 15.373486518859863 C5.533779144287109 14.253215789794922 5.815735816955566 13.185163497924805 6.250114917755127 12.163506507873535 C7.049504280090332 10.283347129821777 8.384442329406738 8.657548904418945 9.586200714111328 7.027896404266357 L8.298840522766113 4.10692834854126 C9.177889823913574 2.4077086448669434 10.158516883850098 2.40161395072937 12.0 2.1745920181274414 L12.0 2.1745920181274414"></path>
<path fill="none" stroke="black" stroke-width=".3" stroke-opacity="1.0"  filling="0" d="M13.944000244140625 7.350168228149414 L13.944000244140625 7.350168228149414 C15.250693321228027 9.10948371887207 16.845949172973633 11.34998893737793 17.52511978149414 13.61056137084961 C18.20429229736328 15.871133804321289 17.96738052368164 18.15177345275879 15.609740257263184 19.991357803344727 C14.341134071350098 20.9812068939209 13.86337661743164 20.898948669433594 12.331344604492188 21.225143432617188 L12.331344604492188 19.4161434173584 L13.2532320022583 18.556461334228516 L13.2532320022583 17.668920516967773 L11.999351501464844 18.75086212158203 L10.746551513671875 17.668920516967773 L10.746551513671875 18.556461334228516 L11.668655395507812 19.4161434173584 L11.668655395507812 21.225143432617188 C10.136631965637207 20.898983001708984 9.658759117126465 20.981233596801758 8.390166282653809 19.99142074584961 C6.028362274169922 18.148637771606445 5.800108909606934 15.872711181640625 6.486767768859863 13.61666488647461 C7.173427104949951 11.360617637634277 8.774999618530273 9.124449729919434 10.072847366333008 7.361184597015381 L10.072847366333008 7.361184597015381 C11.733715057373047 7.723812580108643 12.423725128173828 7.92797327041626 13.944000244140625 7.350168228149414 L13.944000244140625 7.350168228149414"></path>
<path fill="none" stroke="black" stroke-width=".3" stroke-opacity="1.0"  filling="0" d="M12.0 7.38861608505249 L12.0 7.38861608505249 C11.40506362915039 7.253256320953369 10.810128211975098 7.11789608001709 10.215191841125488 6.982536315917969 L8.888952255249023 4.107143878936768 C10.648832321166992 2.2734222412109375 13.351318359375 2.2735695838928223 15.111263275146484 4.107143878936768 L13.799712181091309 6.97044038772583 C13.199808120727539 7.109832286834717 12.59990406036377 7.2492241859436035 12.0 7.38861608505249 L12.0 7.38861608505249"></path>
<path fill="none" stroke="black" stroke-width=".3" stroke-opacity="1.0"  filling="0" d="M11.22326374053955 11.311176300048828 L11.999567985534668 9.836112022399902 L12.77673625946045 11.311176300048828 L11.999567985534668 11.93930435180664 L11.22326374053955 11.311176300048828"></path>
<path fill="none" stroke="black" stroke-width=".3" stroke-opacity="1.0"  filling="0" d="M10.406999588012695 11.60860824584961 L11.715960502624512 12.711287498474121 L11.715960502624512 13.924344062805176 C11.057425498962402 13.330580711364746 10.469535827636719 12.49309253692627 10.406999588012695 11.60860824584961 L10.406999588012695 11.60860824584961"></path>
<path fill="none" stroke="black" stroke-width=".3" stroke-opacity="1.0"  filling="0" d="M13.506168365478516 12.82144832611084 L13.506168365478516 12.82144832611084 C13.098504066467285 13.189080238342285 12.690840721130371 13.55671215057373 12.28317642211914 13.924344062805176 L12.28317642211914 12.711287498474121 L13.592135429382324 11.60860824584961 C13.56347942352295 12.012887954711914 13.53482437133789 12.417168617248535 13.506168365478516 12.82144832611084 L13.506168365478516 12.82144832611084"></path>
<path fill="none" stroke="black" stroke-width=".3" stroke-opacity="1.0"  filling="0" d="M13.510704040527344 14.75443172454834 L13.510704040527344 14.75443172454834 C13.103039741516113 15.121919631958008 12.6953763961792 15.489408493041992 12.287712097167969 15.85689640045166 L12.287712097167969 14.644488334655762 L13.596455574035645 13.542023658752441 C13.567872047424316 13.946159362792969 13.539287567138672 14.350296020507812 13.510704040527344 14.75443172454834 L13.510704040527344 14.75443172454834"></path>
<path fill="none" stroke="black" stroke-width=".3" stroke-opacity="1.0"  filling="0" d="M11.720497131347656 15.856679916381836 L11.720497131347656 15.856679916381836 C11.061965942382812 15.263152122497559 10.474120140075684 14.425711631774902 10.411751747131348 13.541376113891602 L11.720711708068848 14.643839836120605 L11.720497131347656 15.856679916381836"></path>
<path fill="none" stroke="black" stroke-width=".3" stroke-opacity="1.0"  filling="0" d="M13.490400314331055 16.64940071105957 L13.490400314331055 16.64940071105957 C13.082736015319824 17.016887664794922 12.67507266998291 17.384374618530273 12.26740837097168 17.751861572265625 L12.26740837097168 16.539024353027344 L13.576151847839355 15.436561584472656 C13.547568321228027 15.840841293334961 13.518983840942383 16.245121002197266 13.490400314331055 16.64940071105957 L13.490400314331055 16.64940071105957"></path>
<path fill="none" stroke="black" stroke-width=".3" stroke-opacity="1.0"  filling="0" d="M11.700407981872559 17.751861572265625 L11.700407981872559 17.751861572265625 C11.041830062866211 17.158292770385742 10.454026222229004 16.320741653442383 10.391664505004883 15.4363431930542 L11.700623512268066 16.538806915283203 L11.700407981872559 17.751861572265625"></path></svg>