<svg xmlns="http://www.w3.org/2000/svg" viewBox="0.0 0.0 24.0 24.0" height="200px" width="200px"><path fill="none" stroke="black" stroke-width=".3" stroke-opacity="1.0"  filling="0" d="M12.880308151245117 1.2000007629394531 L12.880308151245117 1.2000007629394531 C14.528255462646484 1.3897708654403687 14.978242874145508 1.2976988554000854 16.485519409179688 2.0331308841705322 C18.411653518676758 2.9729323387145996 19.67209815979004 4.371940612792969 20.344449996948242 5.969161510467529 C21.016801834106445 7.56638240814209 21.101062774658203 9.361814498901367 20.674833297729492 11.094465255737305 C20.24860191345215 12.827115058898926 19.31188201904297 14.49698257446289 17.94226837158203 15.843072891235352 L17.94226837158203 22.799999237060547 L15.912731170654297 22.799999237060547 L15.912731170654297 21.680255889892578 L13.968947410583496 21.680255889892578 L13.968947410583496 22.799999237060547 L9.19664478302002 22.799999237060547 L9.19664478302002 20.291160583496094 L7.912524223327637 20.291160583496094 C5.749145030975342 19.705596923828125 5.2666521072387695 19.220815658569336 4.682460308074951 17.057207107543945 L4.682460308074951 14.76652717590332 L3.5834522247314453 14.76652717590332 C3.324145555496216 14.507221221923828 2.903388023376465 14.210000038146973 2.97454833984375 13.850255966186523 L4.682460308074951 9.538680076599121 C4.955853462219238 7.093191146850586 5.764114856719971 5.158990859985352 7.12462854385376 3.76092791557312 C8.48514175415039 2.3628649711608887 10.397907257080078 1.5009393692016602 12.880308151245117 1.2000007629394531 L12.880308151245117 1.2000007629394531"></path>
<path fill="none" stroke="black" stroke-width=".3" stroke-opacity="1.0"  filling="0" d="M19.350154876708984 8.143320083618164 L19.350154876708984 8.143320083618164 C19.158130645751953 8.625360488891602 18.966106414794922 9.107399940490723 18.77408218383789 9.58944034576416 L18.77408218383789 9.58944034576416 C18.5228328704834 10.272994995117188 18.07035255432129 10.91044807434082 17.501842498779297 11.365608215332031 L17.501842498779297 11.37295150756836 C16.822265625 12.029256820678711 16.290489196777344 12.868668556213379 15.969324111938477 13.757159233093262 L15.173147201538086 13.757159233093262 L15.173147201538086 11.37511157989502 C15.494510650634766 10.708272933959961 15.78457260131836 9.949260711669922 16.382099151611328 9.512328147888184 L16.382099151611328 9.512328147888184 C16.786365509033203 9.853553771972656 17.437389373779297 10.823988914489746 17.660818099975586 10.042823791503906 L17.6593074798584 10.042823791503906 C17.33494758605957 9.747119903564453 17.010587692260742 9.451416015625 16.686227798461914 9.155712127685547 L16.686227798461914 9.155712127685547 C16.83950424194336 8.598244667053223 16.998476028442383 8.008849143981934 16.91626739501953 7.436568260192871 L16.91626739501953 7.436568260192871 C18.782678604125977 6.393805980682373 18.094770431518555 6.305575370788574 16.744548797607422 7.013856410980225 L16.744548797607422 7.013856410980225 C16.305343627929688 6.525693416595459 15.728317260742188 6.138743877410889 15.11266803741455 5.910312175750732 L15.11266803741455 5.910312175750732 C15.793837547302246 4.51278829574585 15.579863548278809 3.9791107177734375 14.6661958694458 5.882880687713623 L14.6661958694458 5.882880687713623 C14.317922592163086 5.699433326721191 13.88180923461914 5.6277031898498535 13.621376991271973 5.332539081573486 C13.293904304504395 4.9613938331604 13.471821784973145 3.9948244094848633 12.976860046386719 3.9948244094848633 C12.62066650390625 3.9948244094848633 12.7843599319458 4.540685176849365 12.79390811920166 4.636560440063477 L12.79390811920166 4.636560440063477 C12.264491081237793 4.834062099456787 11.683490753173828 5.043231010437012 11.127036094665527 4.945007801055908 L11.127036094665527 4.945007801055908 C10.501715660095215 4.76273775100708 9.454768180847168 4.3499274253845215 10.806276321411133 5.294928073883057 L10.806276321411133 5.294928073883057 C10.533971786499023 5.727936267852783 10.26166820526123 6.160943984985352 9.989363670349121 6.593952178955078 L9.989363670349121 6.593952178955078 C8.327372550964355 5.330358982086182 8.304234504699707 5.8563103675842285 9.569890975952148 6.769344329833984 L9.569890975952148 6.769344329833984 C9.425602912902832 6.788496017456055 9.281315803527832 6.807648181915283 9.137027740478516 6.8267998695373535 L9.137027740478516 6.8267998695373535 C9.136307716369629 6.8267998695373535 9.135587692260742 6.8267998695373535 9.134867668151855 6.8267998695373535 L9.110243797302246 6.8267998695373535 C6.858436107635498 7.740415096282959 7.490649700164795 7.9266180992126465 9.110027313232422 7.2717604637146 L9.136595726013184 7.2717604637146 C10.006048202514648 6.943743705749512 10.79775619506836 6.258100509643555 11.237844467163086 5.439648151397705 L11.237844467163086 5.439648151397705 C11.813660621643066 5.503326892852783 12.388728141784668 5.266552448272705 12.939923286437988 5.088216304779053 L12.939923286437988 5.088216304779053 C13.142387390136719 5.350368499755859 13.34485149383545 5.612520217895508 13.54731559753418 5.8746724128723145 L13.54731559753418 5.8746724128723145 C13.39388370513916 6.243744373321533 13.240450859069824 6.612816333770752 13.087018966674805 6.981888294219971 L13.087018966674805 6.981888294219971 C12.66677188873291 6.948268413543701 11.057269096374512 7.383304595947266 11.85344409942627 7.622328281402588 C12.147082328796387 7.710483074188232 12.691438674926758 7.393057346343994 13.087018966674805 7.434840202331543 L13.087018966674805 7.434840202331543 C13.269633293151855 7.827150344848633 13.977651596069336 8.803183555603027 13.986875534057617 8.370552062988281 L13.985147476196289 8.370552062988281 C13.696547508239746 7.676572799682617 13.663187980651855 6.821478366851807 13.924018859863281 6.1165924072265625 L13.924018859863281 6.1165924072265625 C14.23945140838623 6.1909685134887695 14.554883003234863 6.265344142913818 14.870315551757812 6.339720249176025 L14.870315551757812 6.339720249176025 C14.871540069580078 6.339936256408691 14.872763633728027 6.340152263641357 14.873988151550293 6.340368270874023 L14.873988151550293 6.340368270874023 C16.181690216064453 6.340368270874023 16.167659759521484 7.089072227478027 16.552955627441406 8.013504028320312 L16.552955627441406 8.013504028320312 C16.31377410888672 7.982460021972656 14.851737022399902 7.779350757598877 15.096683502197266 8.38804817199707 C15.200491905212402 8.646014213562012 16.232616424560547 8.420409202575684 16.502410888671875 8.46105670928955 L16.502410888671875 8.46105670928955 C15.89768123626709 9.620193481445312 15.017687797546387 9.958966255187988 14.727971076965332 11.37446403503418 L14.727971076965332 13.756296157836914 L13.968299865722656 13.756296157836914 L13.968299865722656 11.491535186767578 C13.55701732635498 10.103071212768555 13.088705062866211 9.791146278381348 11.911979675292969 8.998464584350586 L11.911979675292969 8.998464584350586 C11.157513618469238 9.231707572937012 10.297967910766602 9.233396530151367 9.542891502380371 9.00213623046875 L9.542891502380371 9.00213623046875 C6.603795528411865 9.8778657913208 5.231274127960205 7.110145092010498 7.52156400680542 5.215224742889404 L7.52156400680542 5.215224742889404 C8.136234283447266 4.215577602386475 8.311478614807129 3.4946682453155518 9.735347747802734 3.563039779663086 L9.735347747802734 3.563039779663086 C10.727783203125 2.66984486579895 11.182068824768066 2.5643820762634277 12.47681999206543 2.889336585998535 L12.47681999206543 2.889336585998535 C13.30901050567627 2.6382744312286377 14.267095565795898 2.784517526626587 15.07573127746582 3.1033926010131836 L15.07573127746582 3.1033926010131836 C16.29220199584961 2.9540011882781982 16.748167037963867 3.4178049564361572 17.491043090820312 4.293551921844482 L17.491043090820312 4.293551921844482 C18.546051025390625 5.031104564666748 19.098388671875 5.483921051025391 18.91707420349121 6.86352014541626 L18.91707420349121 6.86352014541626 C19.061433792114258 7.2901201248168945 19.205795288085938 7.716720104217529 19.350154876708984 8.143320083618164 L19.350154876708984 8.143320083618164"></path>
<path fill="none" stroke="black" stroke-width=".3" stroke-opacity="1.0"  filling="0" d="M6.699252128601074 11.172072410583496 L6.699252128601074 11.172072410583496 C6.3923163414001465 10.865352630615234 5.778444290161133 10.685832977294922 5.778444290161133 10.251912117004395 C5.778444290161133 9.818551063537598 6.2658915519714355 9.334128379821777 6.699252128601074 9.334128379821777 C7.1316962242126465 9.334128379821777 7.6161723136901855 9.81946849822998 7.6161723136901855 10.251912117004395 C7.6161723136901855 10.684916496276855 7.004892349243164 10.865352630615234 6.699252128601074 11.172072410583496 L6.699252128601074 11.172072410583496"></path>
<path fill="none" stroke="black" stroke-width=".3" stroke-opacity="1.0"  filling="0" d="M13.968947410583496 14.20255184173584 L15.924612045288086 14.20255184173584 C15.92065143585205 14.279879570007324 15.916691780090332 14.357208251953125 15.912731170654297 14.43453598022461 L15.912731170654297 15.253824234008789 L13.968947410583496 15.253824234008789 L13.968947410583496 14.20255184173584"></path>
<path fill="none" stroke="black" stroke-width=".3" stroke-opacity="1.0"  filling="0" d="M13.968947410583496 15.697920799255371 L15.912731170654297 15.697920799255371 L15.912731170654297 16.748329162597656 L13.968947410583496 16.748329162597656 L13.968947410583496 15.697920799255371"></path>
<path fill="none" stroke="black" stroke-width=".3" stroke-opacity="1.0"  filling="0" d="M13.968947410583496 17.1937198638916 L15.912731170654297 17.1937198638916 L15.912731170654297 18.244993209838867 L13.968947410583496 18.244993209838867 L13.968947410583496 17.1937198638916"></path>
<path fill="none" stroke="black" stroke-width=".3" stroke-opacity="1.0"  filling="0" d="M13.968947410583496 18.688222885131836 L15.912731170654297 18.688222885131836 L15.912731170654297 19.741008758544922 L13.968947410583496 19.741008758544922 L13.968947410583496 18.688222885131836"></path>
<path fill="none" stroke="black" stroke-width=".3" stroke-opacity="1.0"  filling="0" d="M13.968947410583496 20.18445587158203 L15.912731170654297 20.18445587158203 L15.912731170654297 21.237239837646484 L13.968947410583496 21.237239837646484 L13.968947410583496 20.18445587158203"></path></svg>