<svg xmlns="http://www.w3.org/2000/svg" viewBox="0.0 0.0 24.0 24.0" height="200px" width="200px"><path fill="none" stroke="black" stroke-width=".3" stroke-opacity="1.0"  filling="0" d="M20.280000686645508 7.9679999351501465 L20.280000686645508 7.9679999351501465 C20.68000030517578 8.368000030517578 21.479999542236328 8.602314949035645 21.479999542236328 9.168000221252441 C21.479999542236328 9.733685493469238 20.68000030517578 9.968000411987305 20.280000686645508 10.368000030517578 L15.0 10.368000030517578 L9.720000267028809 10.368000030517578 L4.439999580383301 10.368000030517578 C4.039999485015869 9.968000411987305 3.239999771118164 9.733685493469238 3.239999771118164 9.168000221252441 C3.239999771118164 8.602314949035645 4.039999485015869 8.368000030517578 4.439999580383301 7.9679999351501465 L9.576000213623047 7.9679999351501465 L14.711999893188477 7.9679999351501465 L17.399999618530273 3.863999366760254 C17.440000534057617 3.295999050140381 17.26755714416504 2.6703872680664062 17.520000457763672 2.159998893737793 C18.557090759277344 0.06321907043457031 21.9882755279541 2.2198896408081055 20.54400062561035 4.056000232696533 C20.19186019897461 4.503676414489746 19.552000045776367 4.615999698638916 19.055999755859375 4.895999431610107 L17.06399917602539 7.9679999351501465 L20.280000686645508 7.9679999351501465"></path>
<path fill="none" stroke="black" stroke-width=".3" stroke-opacity="1.0"  filling="0" d="M19.823999404907227 10.848000526428223 L19.823999404907227 10.848000526428223 C20.02668571472168 12.694681167602539 19.93689727783203 14.270651817321777 19.457332611083984 15.706966400146484 C18.977767944335938 17.143281936645508 18.10842514038086 18.43994140625 16.75200080871582 19.727998733520508 L12.312000274658203 19.727998733520508 L7.871999740600586 19.727998733520508 C6.515576362609863 18.43994140625 5.646233558654785 17.143281936645508 5.16666841506958 15.706966400146484 C4.687103271484375 14.270651817321777 4.597314834594727 12.694681167602539 4.800000190734863 10.848000526428223 L9.808000564575195 10.848000526428223 L14.815999984741211 10.848000526428223 L19.823999404907227 10.848000526428223"></path>
<path fill="none" stroke="black" stroke-width=".3" stroke-opacity="1.0"  filling="0" d="M10.943999290466309 14.280000686645508 L10.943999290466309 14.280000686645508 C11.090428352355957 14.572856903076172 11.022748947143555 14.656124114990234 10.703999519348145 14.687999725341797 L9.960000038146973 14.687999725341797 L9.960000038146973 14.208000183105469 L10.703999519348145 14.208000183105469 C10.7839994430542 14.232000350952148 10.863999366760254 14.256000518798828 10.943999290466309 14.280000686645508 L10.943999290466309 14.280000686645508"></path>
<path fill="none" stroke="black" stroke-width=".3" stroke-opacity="1.0"  filling="0" d="M10.920000076293945 16.847999572753906 L10.4399995803833 15.64799976348877 L9.960000038146973 15.64799976348877 L9.960000038146973 16.847999572753906 L9.0 16.847999572753906 L9.0 13.248000144958496 L10.871999740600586 13.248000144958496 C12.187654495239258 13.476808547973633 12.572880744934082 14.738424301147461 11.496000289916992 15.576000213623047 L12.144000053405762 16.847999572753906 L10.920000076293945 16.847999572753906"></path>
<path fill="none" stroke="black" stroke-width=".3" stroke-opacity="1.0"  filling="0" d="M14.760000228881836 16.847999572753906 L14.11199951171875 15.767999649047852 L13.46399974822998 16.847999572753906 L12.191999435424805 16.847999572753906 L13.368000030517578 15.0 L12.263999938964844 13.248000144958496 L13.53600025177002 13.248000144958496 L14.11199951171875 14.256000518798828 L14.687999725341797 13.248000144958496 L15.959999084472656 13.248000144958496 L14.856000900268555 15.0 L16.031999588012695 16.847999572753906 L14.760000228881836 16.847999572753906"></path>
<path fill="none" stroke="black" stroke-width=".3" stroke-opacity="1.0"  filling="0" d="M18.360000610351562 21.40799903869629 L18.360000610351562 21.40799903869629 C17.96000099182129 21.807998657226562 17.559999465942383 22.20800018310547 17.15999984741211 22.607999801635742 L12.359999656677246 22.607999801635742 L7.559999942779541 22.607999801635742 C7.159999847412109 22.20800018310547 6.360000133514404 21.973684310913086 6.360000133514404 21.40799903869629 C6.360000133514404 20.842313766479492 7.159999847412109 20.607999801635742 7.559999942779541 20.20800018310547 L12.359999656677246 20.20800018310547 L17.15999984741211 20.20800018310547 C17.559999465942383 20.607999801635742 17.96000099182129 21.007999420166016 18.360000610351562 21.40799903869629 L18.360000610351562 21.40799903869629"></path></svg>