<svg xmlns="http://www.w3.org/2000/svg" viewBox="0.0 0.0 24.0 24.0" height="200px" width="200px"><path fill="none" stroke="black" stroke-width=".3" stroke-opacity="1.0"  filling="0" d="M10.201799392700195 5.349575996398926 L10.201799392700195 5.349575996398926 C10.091804504394531 5.876321315765381 9.667786598205566 8.142778396606445 9.368535995483398 8.565192222595215 C7.398698806762695 11.345758438110352 5.019220352172852 7.061500549316406 5.01369571685791 5.348927974700928 C5.009659290313721 4.097707748413086 5.5020952224731445 2.6539218425750732 6.555296421051025 1.8726882934570312 C7.800350189208984 0.9491444230079651 10.205300331115723 1.1612986326217651 10.49131965637207 3.039536237716675 C10.608148574829102 3.8067290782928467 10.298306465148926 4.579562664031982 10.201799392700195 5.349575996398926 L10.201799392700195 5.349575996398926"></path>
<path fill="none" stroke="black" stroke-width=".3" stroke-opacity="1.0"  filling="0" d="M9.488136291503906 11.407943725585938 L9.488136291503906 11.407943725585938 C9.034319877624512 11.691840171813965 8.661988258361816 12.259632110595703 8.126688003540039 12.259632110595703 C6.081781387329102 12.259632110595703 6.539866924285889 10.556903839111328 8.126688003540039 10.556903839111328 C8.661872863769531 10.556903839111328 9.034319877624512 11.124263763427734 9.488136291503906 11.407943725585938 L9.488136291503906 11.407943725585938"></path>
<path fill="none" stroke="black" stroke-width=".3" stroke-opacity="1.0"  filling="0" d="M14.091095924377441 15.508271217346191 L14.091095924377441 15.508271217346191 C13.99450969696045 14.738255500793457 13.684576988220215 13.965439796447754 13.801336288452148 13.198224067687988 C14.08718204498291 11.319948196411133 16.49221420288086 11.107532501220703 17.737255096435547 12.03121566772461 C18.790367126464844 12.812509536743164 19.282991409301758 14.256135940551758 19.27898406982422 15.507407188415527 C19.273500442504883 17.219942092895508 16.894224166870117 21.50431251525879 14.92416763305664 18.72382354736328 C14.624939918518066 18.30150032043457 14.20103645324707 16.034910202026367 14.091095924377441 15.508271217346191 L14.091095924377441 15.508271217346191"></path>
<path fill="none" stroke="black" stroke-width=".3" stroke-opacity="1.0"  filling="0" d="M14.804543495178223 21.566638946533203 L14.804543495178223 21.566638946533203 C15.267449378967285 21.065353393554688 17.528303146362305 19.906808853149414 17.528303146362305 21.566638946533203 C17.528303146362305 23.22646713256836 15.267451286315918 22.06792640686035 14.804543495178223 21.566638946533203 L14.804543495178223 21.566638946533203"></path></svg>