<svg xmlns="http://www.w3.org/2000/svg" viewBox="0.0 0.0 24.0 24.0" height="200px" width="200px"><path fill="none" stroke="black" stroke-width=".3" stroke-opacity="1.0"  filling="0" d="M12.108648300170898 3.6878881454467773 L12.108648300170898 3.6878881454467773 C12.418319702148438 3.9975602626800537 13.037663459777832 4.178962230682373 13.037663459777832 4.616904258728027 C13.037663459777832 5.054897308349609 12.54664134979248 5.546136379241943 12.108648300170898 5.546136379241943 C11.67060375213623 5.546136379241943 11.179415702819824 5.054948806762695 11.179415702819824 4.616904258728027 C11.179415702819824 4.178910732269287 11.798904418945312 3.9975602626800537 12.108648300170898 3.6878881454467773 L12.108648300170898 3.6878881454467773"></path>
<path fill="none" stroke="black" stroke-width=".3" stroke-opacity="1.0"  filling="0" d="M13.774656295776367 8.24656867980957 L10.44264030456543 8.24656867980957 L10.44264030456543 6.420504570007324 C10.68455982208252 6.178584575653076 10.926480293273926 5.93666410446167 11.168399810791016 5.694744110107422 L13.048895835876465 5.694744110107422 C13.290816307067871 5.93666410446167 13.532735824584961 6.178584575653076 13.774656295776367 6.420504570007324 L13.774656295776367 8.24656867980957"></path>
<path fill="none" stroke="black" stroke-width=".3" stroke-opacity="1.0"  filling="0" d="M5.466648578643799 9.690960884094238 L5.466648578643799 9.690960884094238 C5.776320457458496 10.000632286071777 6.395664215087891 10.18203353881836 6.395664215087891 10.619976043701172 C6.395664215087891 11.277374267578125 4.537416458129883 12.440596580505371 4.537416458129883 10.619976043701172 C4.537416458129883 10.18198299407959 5.156904697418213 10.000632286071777 5.466648578643799 9.690960884094238 L5.466648578643799 9.690960884094238"></path>
<path fill="none" stroke="black" stroke-width=".3" stroke-opacity="1.0"  filling="0" d="M18.528167724609375 9.690960884094238 L18.528167724609375 9.690960884094238 C18.837839126586914 10.000632286071777 19.457183837890625 10.18203353881836 19.457183837890625 10.619976043701172 C19.457183837890625 11.057969093322754 18.966161727905273 11.54920768737793 18.528167724609375 11.54920768737793 C18.090072631835938 11.54920768737793 17.598718643188477 11.05807113647461 17.598718643188477 10.619976043701172 C17.598718643188477 10.181931495666504 18.218351364135742 10.000632286071777 18.528167724609375 9.690960884094238 L18.528167724609375 9.690960884094238"></path>
<path fill="none" stroke="black" stroke-width=".3" stroke-opacity="1.0"  filling="0" d="M7.879152297973633 12.071063995361328 L7.879152297973633 12.071063995361328 C8.261236190795898 10.92065715789795 8.938270568847656 9.70856761932373 9.993792533874512 9.112499237060547 C11.106864929199219 8.483931541442871 12.69284439086914 8.483657836914062 14.000555992126465 9.010483741760254 C15.308267593383789 9.537309646606445 16.337711334228516 10.59123420715332 16.337711334228516 12.071063995361328 C16.337711334228516 13.550893783569336 15.308267593383789 14.604818344116211 14.000555992126465 15.131644248962402 C12.69284439086914 15.658470153808594 11.106864929199219 15.658196449279785 9.993791580200195 15.02962875366211 C8.938270568847656 14.433560371398926 8.261235237121582 13.22146987915039 7.879152297973633 12.071063995361328 L7.879152297973633 12.071063995361328"></path>
<path fill="none" stroke="black" stroke-width=".3" stroke-opacity="1.0"  filling="0" d="M7.132656097412109 14.249640464782715 L3.8006410598754883 14.249640464782715 L3.8006410598754883 12.423575401306152 C4.042560577392578 12.181655883789062 4.284480571746826 11.939736366271973 4.526400089263916 11.697816848754883 L6.406896591186523 11.697816848754883 C6.6488165855407715 11.939736366271973 6.890736103057861 12.181655883789062 7.132656097412109 12.423575401306152 L7.132656097412109 14.249640464782715"></path>
<path fill="none" stroke="black" stroke-width=".3" stroke-opacity="1.0"  filling="0" d="M20.194175720214844 14.249640464782715 L16.8619441986084 14.249640464782715 L16.8619441986084 12.423575401306152 C17.10393714904785 12.181655883789062 17.345928192138672 11.939736366271973 17.587921142578125 11.697816848754883 L19.46820068359375 11.697816848754883 C19.71019172668457 11.939736366271973 19.952184677124023 12.181655883789062 20.194175720214844 12.423575401306152 L20.194175720214844 14.249640464782715"></path>
<path fill="none" stroke="black" stroke-width=".3" stroke-opacity="1.0"  filling="0" d="M12.108648300170898 15.748030662536621 L12.108648300170898 15.748030662536621 C12.418319702148438 16.057703018188477 13.037663459777832 16.239105224609375 13.037663459777832 16.677047729492188 C13.037663459777832 17.115041732788086 12.54664134979248 17.606281280517578 12.108648300170898 17.606281280517578 C11.67060375213623 17.606281280517578 11.179415702819824 17.115093231201172 11.179415702819824 16.677047729492188 C11.179415702819824 16.23905372619629 11.798904418945312 16.057703018188477 12.108648300170898 15.748030662536621 L12.108648300170898 15.748030662536621"></path>
<path fill="none" stroke="black" stroke-width=".3" stroke-opacity="1.0"  filling="0" d="M13.774656295776367 20.306711196899414 L10.44264030456543 20.306711196899414 L10.44264030456543 18.480648040771484 C10.68455982208252 18.238727569580078 10.926480293273926 17.996807098388672 11.168399810791016 17.754886627197266 L13.048895835876465 17.754886627197266 C13.290816307067871 17.996807098388672 13.532735824584961 18.238727569580078 13.774656295776367 18.480648040771484 L13.774656295776367 20.306711196899414"></path></svg>