<svg xmlns="http://www.w3.org/2000/svg" viewBox="0.0 0.0 24.0 24.0" height="200px" width="200px"><path fill="none" stroke="black" stroke-width=".3" stroke-opacity="1.0"  filling="0" d="M15.65806770324707 6.804336071014404 L18.385498046875 6.804336071014404 L17.109155654907227 13.711799621582031 C17.177051544189453 14.24416732788086 16.891887664794922 14.976003646850586 17.312843322753906 15.308903694152832 C18.152830123901367 15.973182678222656 19.572284698486328 13.45044231414795 19.583372116088867 13.420327186584473 C20.111814498901367 11.984872817993164 20.131351470947266 10.236787796020508 19.755172729492188 8.762442588806152 C19.25464630126953 6.800748825073242 17.941207885742188 5.4325175285339355 16.288888931274414 4.64617919921875 C14.636569023132324 3.8598411083221436 12.645368576049805 3.6553964614868164 10.789320945739746 4.021276473999023 C8.933272361755371 4.3871564865112305 7.212376117706299 5.323360919952393 6.100664138793945 6.818321228027344 C4.607022285461426 8.82687759399414 4.16203498840332 11.47464370727539 4.6866960525512695 13.87043571472168 C5.2113566398620605 16.26622772216797 6.70566463470459 18.410045623779297 9.090614318847656 19.41070556640625 C10.688727378845215 20.08123016357422 12.294880867004395 20.253334045410156 13.860262870788574 20.04728889465332 C15.425643920898438 19.841243743896484 16.950254440307617 19.257051467895508 18.385282516479492 18.41498374938965 L21.231300354003906 18.41498374938965 C20.305538177490234 19.516090393066406 19.327665328979492 20.469749450683594 18.214839935302734 21.203533172607422 C17.10201644897461 21.93731689453125 15.854240417480469 22.451223373413086 14.388675689697266 22.672822952270508 C11.955347061157227 23.040752410888672 9.6643705368042 22.607501983642578 7.703094005584717 21.62833595275879 C5.741817474365234 20.649169921875 4.110240936279297 19.12409019470215 2.995710611343384 17.308359146118164 C1.8811805248260498 15.49262809753418 1.2836968898773193 13.386245727539062 1.3906067609786987 11.244478225708008 C1.4975165128707886 9.102710723876953 2.3088197708129883 6.9255571365356445 4.0118632316589355 4.968282222747803 C5.3141984939575195 3.4715335369110107 7.137938022613525 2.436314582824707 9.138211250305176 1.8752435445785522 C11.138484001159668 1.314172625541687 13.315290451049805 1.2272498607635498 15.323759078979492 1.62709379196167 C17.33222770690918 2.02693772315979 19.172359466552734 2.913548231124878 20.499282836914062 4.299543857574463 C21.826204299926758 5.685539245605469 22.63991928100586 7.570919990539551 22.59555435180664 9.968304634094238 C22.579666137695312 10.826887130737305 22.49295425415039 11.692131042480469 22.288198471069336 12.526092529296875 C21.683340072631836 14.989656448364258 19.897993087768555 16.890565872192383 17.595659255981445 17.85651206970215 C15.92568588256836 18.55714988708496 14.467988014221191 18.690044403076172 13.62529182434082 16.935815811157227 L13.568052291870117 16.935815811157227 C12.334470748901367 18.056108474731445 10.863183975219727 18.43667221069336 9.53823471069336 18.125614166259766 C8.213285446166992 17.814556121826172 7.034671783447266 16.811880111694336 6.386436939239502 15.165692329406738 C5.7927656173706055 13.658069610595703 5.88391637802124 11.878182411193848 6.5118889808654785 10.32878303527832 C7.139861106872559 8.779383659362793 8.304655075073242 7.460471153259277 9.858270645141602 6.874795436859131 C10.88106632232666 6.489226341247559 12.14660358428955 6.38772439956665 13.215555191040039 6.684584617614746 C14.4197998046875 7.019017219543457 14.528385162353516 7.344956874847412 15.394980430603027 8.195592880249023 L15.65806770324707 6.804336071014404"></path>
<path fill="none" stroke="black" stroke-width=".3" stroke-opacity="1.0"  filling="0" d="M14.553659439086914 11.999135971069336 L14.553659439086914 11.999135971069336 C14.265296936035156 13.196377754211426 14.354660034179688 13.923477172851562 13.161148071289062 14.624527931213379 C11.40524959564209 15.655916213989258 9.51613998413086 14.719941139221191 9.386075973510742 12.666791915893555 C9.25039291381836 10.524942398071289 12.183862686157227 8.511075973510742 13.93020248413086 10.30151081085205 C14.351119995117188 10.73305606842041 14.345840454101562 11.433260917663574 14.553659439086914 11.999135971069336 L14.553659439086914 11.999135971069336"></path></svg>