<svg xmlns="http://www.w3.org/2000/svg" viewBox="0.0 0.0 24.0 24.0" height="200px" width="200px"><path fill="none" stroke="black" stroke-width=".3" stroke-opacity="1.0"  filling="0" d="M11.568000793457031 7.356016635894775 L11.568000793457031 7.356016635894775 C12.01173210144043 6.28326416015625 13.943954467773438 5.463308334350586 13.944000244140625 7.355958461761475 C13.944046020507812 9.24862289428711 12.011795043945312 8.428796768188477 11.568000793457031 7.356042385101318 L11.568000793457031 7.356042385101318"></path>
<path fill="none" stroke="black" stroke-width=".3" stroke-opacity="1.0"  filling="0" d="M14.807999610900879 9.407999992370605 L14.807999610900879 9.407999992370605 C14.80441665649414 9.44382095336914 14.80441665649414 9.480178833007812 14.807999610900879 9.515999794006348 L14.807999610900879 12.972000122070312 C14.655264854431152 13.124734878540039 14.312734603881836 13.124734878540039 14.15999984741211 12.972000122070312 L14.15999984741211 10.055999755859375 L13.944000244140625 10.055999755859375 L13.944000244140625 17.507999420166016 C13.763999938964844 17.687999725341797 13.658557891845703 18.04800033569336 13.403999328613281 18.04800033569336 C13.14944076538086 18.04800033569336 13.043999671936035 17.687999725341797 12.86400032043457 17.507999420166016 L12.86400032043457 13.295999526977539 L12.648000717163086 13.295999526977539 L12.648000717163086 17.507999420166016 C12.468000411987305 17.687999725341797 12.362558364868164 18.04800033569336 12.107999801635742 18.04800033569336 C11.85344123840332 18.04800033569336 11.748000144958496 17.687999725341797 11.568000793457031 17.507999420166016 L11.568000793457031 10.055999755859375 L11.351999282836914 10.055999755859375 L11.351999282836914 12.972000122070312 C11.199264526367188 13.124734878540039 10.856735229492188 13.124734878540039 10.704000473022461 12.972000122070312 L10.704000473022461 9.515999794006348 C10.737024307250977 9.18574333190918 11.117308616638184 8.994691848754883 11.351999282836914 8.760000228881836 L14.15999984741211 8.760000228881836 C14.375999450683594 8.97599983215332 14.592000007629395 9.192000389099121 14.807999610900879 9.407999992370605 L14.807999610900879 9.407999992370605"></path>
<path fill="none" stroke="black" stroke-width=".3" stroke-opacity="1.0"  filling="0" d="M16.31999969482422 10.920000076293945 L17.615999221801758 10.920000076293945 L17.615999221801758 15.347999572753906 L17.615999221801758 19.775999069213867 L13.187999725341797 19.775999069213867 L8.760000228881836 19.775999069213867 L8.760000228881836 22.15199851989746 L5.952000141143799 22.15199851989746 L5.952000141143799 15.312000274658203 L5.952000141143799 8.472000122070312 L5.952000141143799 1.6320009231567383 L8.760000228881836 1.6320009231567383 L8.760000228881836 7.248000621795654 L8.760000228881836 12.86400032043457 L8.760000228881836 18.479999542236328 L12.539999961853027 18.479999542236328 L16.31999969482422 18.479999542236328 L16.31999969482422 14.699999809265137 L16.31999969482422 10.920000076293945"></path></svg>