<svg xmlns="http://www.w3.org/2000/svg" viewBox="0.0 0.0 24.0 24.0" height="200px" width="200px"><path fill="none" stroke="black" stroke-width=".3" stroke-opacity="1.0"  filling="0" d="M21.099430084228516 4.638935565948486 L21.099430084228516 4.638935565948486 C20.09929656982422 2.0860753059387207 17.8333683013916 2.2616124153137207 15.519719123840332 3.0325441360473633 L14.990952491760254 2.0076236724853516 C16.59695053100586 1.479912281036377 18.125532150268555 1.2422406673431396 19.396575927734375 1.5842466354370117 C20.667621612548828 1.9262527227401733 21.681129455566406 2.8479363918304443 22.256977081298828 4.638935565948486 L21.099430084228516 4.638935565948486"></path>
<path fill="none" stroke="black" stroke-width=".3" stroke-opacity="1.0"  filling="0" d="M11.261280059814453 4.713456153869629 L11.261280059814453 4.713456153869629 C9.321637153625488 4.2177886962890625 8.352914810180664 3.9779348373413086 7.068935871124268 2.4558238983154297 L8.03056812286377 1.8197050094604492 C9.852249145507812 3.9644391536712646 11.459043502807617 3.543051242828369 13.921103477478027 2.680680274963379 L14.535408020019531 3.6567840576171875 C13.497419357299805 4.144373893737793 12.394405364990234 4.536848545074463 11.261280059814453 4.713456153869629 L11.261280059814453 4.713456153869629"></path>
<path fill="none" stroke="black" stroke-width=".3" stroke-opacity="1.0"  filling="0" d="M22.24315071105957 5.919167995452881 L22.428768157958984 11.511335372924805 L22.614383697509766 17.103504180908203 L22.799999237060547 22.69567108154297 L15.600000381469727 22.69567108154297 L8.40000057220459 22.69567108154297 L1.2000007629394531 22.69567108154297 L1.2000007629394531 18.220260620117188 L1.2000007629394531 13.744848251342773 L4.449180603027344 15.91003131866455 L7.698359966278076 18.075214385986328 L7.698359966278076 13.744848251342773 L10.947755813598633 15.91003131866455 L14.197152137756348 18.075214385986328 L14.197152137756348 13.744848251342773 L17.44536018371582 15.909491539001465 L20.693567276000977 18.074134826660156 L20.89531135559082 11.996651649475098 L21.097055435180664 5.919167995452881 L22.24315071105957 5.919167995452881"></path>
<path fill="none" stroke="black" stroke-width=".3" stroke-opacity="1.0"  filling="0" d="M6.6855363845825195 21.576143264770508 L2.319744110107422 21.576143264770508 L2.319744110107422 19.448974609375 L6.6855363845825195 19.448974609375 L6.6855363845825195 21.576143264770508"></path>
<path fill="none" stroke="black" stroke-width=".3" stroke-opacity="1.0"  filling="0" d="M13.183895111083984 21.576143264770508 L8.81810474395752 21.576143264770508 L8.81810474395752 19.448974609375 L13.184111595153809 19.448974609375 L13.183895111083984 21.576143264770508"></path>
<path fill="none" stroke="black" stroke-width=".3" stroke-opacity="1.0"  filling="0" d="M19.682472229003906 21.576143264770508 L15.316463470458984 21.576143264770508 L15.316463470458984 19.448974609375 L19.682472229003906 19.448974609375 L19.682472229003906 21.576143264770508"></path></svg>