<svg xmlns="http://www.w3.org/2000/svg" viewBox="0.0 0.0 24.0 24.0" height="200px" width="200px"><path fill="none" stroke="black" stroke-width=".3" stroke-opacity="1.0"  filling="0" d="M18.988679885864258 1.7279043197631836 L18.988679885864258 1.7279043197631836 C20.93439483642578 2.4447999000549316 21.622047424316406 2.5722358226776123 21.920230865478516 4.659672260284424 L21.920230865478516 9.729120254516602 L21.920230865478516 14.798568725585938 L21.920230865478516 19.868017196655273 C21.203458786010742 21.813823699951172 21.076181411743164 22.501737594604492 18.988679885864258 22.799999237060547 L12.020627975463867 22.799999237060547 L5.052576541900635 22.799999237060547 C3.106719493865967 22.083051681518555 2.4190139770507812 21.955608367919922 2.1208086013793945 19.868017196655273 L2.1208086013793945 14.798568725585938 L2.1208086013793945 9.729120254516602 L2.1208086013793945 4.659672260284424 C2.837679624557495 2.713879108428955 2.9650657176971436 2.0261199474334717 5.052576541900635 1.7279043197631836 L9.373008728027344 1.7279043197631836 L9.373008728027344 9.156792640686035 L6.209040641784668 9.156792640686035 L9.06877326965332 11.822664260864258 L11.928504943847656 14.488534927368164 L14.88036060333252 11.822664260864258 L17.832216262817383 9.156792640686035 L14.583576202392578 9.156792640686035 L14.583576202392578 1.7279043197631836 L18.988679885864258 1.7279043197631836"></path>
<path fill="none" stroke="black" stroke-width=".3" stroke-opacity="1.0"  filling="0" d="M19.287837982177734 19.114608764648438 L12.110915184020996 19.114608764648438 L4.933992862701416 19.114608764648438 L4.933992862701416 13.388015747070312 L6.809304714202881 13.388015747070312 L6.809304714202881 17.239295959472656 L12.110701560974121 17.239295959472656 L17.412097930908203 17.239295959472656 L17.412097930908203 13.388015747070312 L19.287837982177734 13.388015747070312 L19.287837982177734 19.114608764648438"></path></svg>