<svg xmlns="http://www.w3.org/2000/svg" viewBox="0.0 0.0 24.0 24.0" height="200px" width="200px"><path fill="none" stroke="black" stroke-width=".3" stroke-opacity="1.0"  filling="0" d="M15.384072303771973 1.4134082794189453 L15.384072303771973 1.4134082794189453 C17.26165008544922 2.2858970165252686 18.844173431396484 3.5890188217163086 19.982650756835938 5.147109031677246 C21.12112808227539 6.705199241638184 21.815563201904297 8.518258094787598 21.916963577270508 10.410619735717773 C22.01836395263672 12.302982330322266 21.5267333984375 14.274648666381836 20.29307746887207 16.149953842163086 C19.194400787353516 17.82007598876953 17.78687286376953 18.76894187927246 16.091690063476562 19.73971176147461 L15.611519813537598 18.40007781982422 C17.032381057739258 17.527685165405273 17.5039005279541 17.401750564575195 18.57954978942871 16.08953285217285 C19.88922882080078 14.491815567016602 20.483091354370117 12.753575325012207 20.506322860717773 11.054523468017578 C20.529556274414062 9.35547161102295 19.98215675354004 7.695607662200928 19.009313583374023 6.254643440246582 C18.036468505859375 4.813679218292236 16.638179779052734 3.5916147232055664 14.95963191986084 2.768160820007324 L15.384072303771973 1.4134082794189453"></path>
<path fill="none" stroke="black" stroke-width=".3" stroke-opacity="1.0"  filling="0" d="M15.384072303771973 1.4134082794189453 L15.384072303771973 1.4134082794189453 C17.26165008544922 2.2858970165252686 18.844173431396484 3.5890188217163086 19.982650756835938 5.147109031677246 C21.12112808227539 6.705199241638184 21.815563201904297 8.518258094787598 21.916963577270508 10.410619735717773 C22.01836395263672 12.302982330322266 21.5267333984375 14.274648666381836 20.29307746887207 16.149953842163086 C19.194400787353516 17.82007598876953 17.78687286376953 18.76894187927246 16.091690063476562 19.73971176147461 L15.611519813537598 18.40007781982422 C17.032381057739258 17.527685165405273 17.5039005279541 17.401750564575195 18.57954978942871 16.08953285217285 C19.88922882080078 14.491815567016602 20.483091354370117 12.753575325012207 20.506322860717773 11.054523468017578 C20.529556274414062 9.35547161102295 19.98215675354004 7.695607662200928 19.009313583374023 6.254643440246582 C18.036468505859375 4.813679218292236 16.638179779052734 3.5916147232055664 14.95963191986084 2.768160820007324 L15.384072303771973 1.4134082794189453"></path>
<path fill="none" stroke="black" stroke-width=".3" stroke-opacity="1.0"  filling="0" d="M13.630583763122559 7.014720439910889 L13.630583763122559 7.014720439910889 C15.074748992919922 8.005582809448242 15.862274169921875 9.222372055053711 15.953692436218262 10.47909927368164 C16.04511260986328 11.735827445983887 15.440424919128418 13.032493591308594 14.100168228149414 14.183112144470215 L13.60747241973877 12.808271408081055 C15.031377792358398 11.10639762878418 14.827624320983887 9.860006332397461 13.203119277954102 8.381135940551758 L13.630583763122559 7.014720439910889"></path>
<path fill="none" stroke="black" stroke-width=".3" stroke-opacity="1.0"  filling="0" d="M3.544680595397949 10.721712112426758 L3.544680595397949 10.721712112426758 C3.7568655014038086 12.531475067138672 4.200104236602783 13.97160530090332 4.978310585021973 15.19835090637207 C5.756516456604004 16.42509651184082 6.86968994140625 17.438457489013672 8.421744346618652 18.394681930541992 L7.940280437469482 19.733448028564453 C6.19832181930542 18.73252296447754 4.752969264984131 17.365556716918945 3.7389283180236816 15.788924217224121 C2.7248873710632324 14.212292671203613 2.1421585083007812 12.425996780395508 2.1254472732543945 10.586414337158203 C2.108736276626587 8.746831893920898 2.6580429077148438 6.8539628982543945 3.9080734252929688 5.0641865730285645 C5.1169843673706055 3.333284378051758 6.633021354675293 2.4164540767669678 8.469696044921875 1.4870643615722656 L8.85849666595459 2.8582324981689453 C7.187788486480713 3.733036518096924 5.955533981323242 4.761348247528076 5.092857360839844 6.039738178253174 C4.230179786682129 7.3181281089782715 3.7370800971984863 8.846595764160156 3.544680595397949 10.721712112426758 L3.544680595397949 10.721712112426758"></path>
<path fill="none" stroke="black" stroke-width=".3" stroke-opacity="1.0"  filling="0" d="M3.544680595397949 10.721712112426758 L3.544680595397949 10.721712112426758 C3.7568655014038086 12.531475067138672 4.200104236602783 13.97160530090332 4.978310585021973 15.19835090637207 C5.756516456604004 16.42509651184082 6.86968994140625 17.438457489013672 8.421744346618652 18.394681930541992 L7.940280437469482 19.733448028564453 C6.19832181930542 18.73252296447754 4.752969264984131 17.365556716918945 3.7389283180236816 15.788924217224121 C2.7248873710632324 14.212292671203613 2.1421585083007812 12.425996780395508 2.1254472732543945 10.586414337158203 C2.108736276626587 8.746831893920898 2.6580429077148438 6.8539628982543945 3.9080734252929688 5.0641865730285645 C5.1169843673706055 3.333284378051758 6.633021354675293 2.4164540767669678 8.469696044921875 1.4870643615722656 L8.85849666595459 2.8582324981689453 C7.187788486480713 3.733036518096924 5.955533981323242 4.761348247528076 5.092857360839844 6.039738178253174 C4.230179786682129 7.3181281089782715 3.7370800971984863 8.846595764160156 3.544680595397949 10.721712112426758 L3.544680595397949 10.721712112426758"></path>
<path fill="none" stroke="black" stroke-width=".3" stroke-opacity="1.0"  filling="0" d="M6.4777445793151855 10.721712112426758 L6.4777445793151855 10.721712112426758 C6.801809787750244 13.035120010375977 7.524116516113281 14.253544807434082 9.42182445526123 15.616703987121582 L8.937768936157227 16.96152114868164 C7.565663814544678 16.02775764465332 7.048925399780273 15.882369995117188 6.137679576873779 14.438828468322754 C4.904744625091553 12.485685348510742 4.786037445068359 10.47742748260498 5.426994323730469 8.697311401367188 C6.067951679229736 6.917196750640869 7.468573093414307 5.365224838256836 9.274295806884766 4.324656009674072 L9.665472030639648 5.704031944274902 C7.61002779006958 7.051581859588623 6.833849906921387 8.290621757507324 6.4777445793151855 10.721712112426758 L6.4777445793151855 10.721712112426758"></path>
<path fill="none" stroke="black" stroke-width=".3" stroke-opacity="1.0"  filling="0" d="M9.399144172668457 10.721712112426758 L9.399144172668457 10.721712112426758 C9.579449653625488 11.475720405578613 9.937626838684082 12.209073066711426 10.434000015258789 12.80459976196289 L9.939360618591309 14.17857551574707 C8.667913436889648 13.084046363830566 8.051790237426758 11.85797119140625 8.079572677612305 10.643388748168945 C8.107354164123535 9.428805351257324 8.779041290283203 8.225713729858398 10.083215713500977 7.177152156829834 L10.486488342285156 8.599296569824219 C9.966286659240723 9.200358390808105 9.588830947875977 9.949764251708984 9.399144172668457 10.721712112426758 L9.399144172668457 10.721712112426758"></path>
<path fill="none" stroke="black" stroke-width=".3" stroke-opacity="1.0"  filling="0" d="M18.986736297607422 10.721712112426758 L18.986736297607422 10.721712112426758 C18.77071189880371 12.22075080871582 18.425336837768555 13.356863021850586 17.82054901123047 14.330838203430176 C17.21575927734375 15.30481243133545 16.35155487060547 16.116649627685547 15.097871780395508 16.96713638305664 L14.615544319152832 15.62123966217041 C16.61995506286621 14.18616771697998 17.544191360473633 12.292947769165039 17.43846321105957 10.449254989624023 C17.332735061645508 8.605562210083008 16.197040557861328 6.81139612197876 14.081592559814453 5.574432373046875 L14.506248474121094 4.217736721038818 C15.927081108093262 4.967921733856201 16.947664260864258 5.7971906661987305 17.662809371948242 6.837275505065918 C18.377954483032227 7.877360820770264 18.78765869140625 9.12826156616211 18.986736297607422 10.721712112426758 L18.986736297607422 10.721712112426758"></path>
<path fill="none" stroke="black" stroke-width=".3" stroke-opacity="1.0"  filling="0" d="M11.042688369750977 20.130672454833984 L10.129655838012695 22.799999237060547 L8.358240127563477 22.799999237060547 L10.190675735473633 16.63471221923828 L12.023112297058105 10.4694242477417 L13.889352798461914 16.63471221923828 L15.755592346191406 22.799999237060547 L13.98676872253418 22.799999237060547 L13.003320693969727 20.130672454833984 L11.955936431884766 22.799999237060547 L11.042688369750977 20.130672454833984"></path></svg>