<svg xmlns="http://www.w3.org/2000/svg" viewBox="0.0 0.0 24.0 24.0" height="200px" width="200px"><path fill="none" stroke="black" stroke-width=".3" stroke-opacity="1.0"  filling="0" d="M21.056880950927734 7.569839954376221 L21.056880950927734 7.569839954376221 C21.03744125366211 7.6864800453186035 21.018001556396484 7.803120136260986 20.99856185913086 7.919760227203369 L18.838560104370117 11.159760475158691 C18.68800926208496 11.240476608276367 18.526046752929688 11.358461380004883 18.35688018798828 11.33471965789795 L16.751998901367188 10.853039741516113 L16.751998901367188 14.666519165039062 L16.751998901367188 18.479999542236328 C16.607999801635742 18.624000549316406 16.463998794555664 18.76799964904785 16.31999969482422 18.91200065612793 L12.0 18.91200065612793 L7.680000305175781 18.91200065612793 C7.5360002517700195 18.76799964904785 7.392000198364258 18.624000549316406 7.248000144958496 18.479999542236328 L7.248000144958496 14.666519165039062 L7.248000144958496 10.853039741516113 L5.643120288848877 11.33471965789795 C5.482560157775879 11.276399612426758 5.322000503540039 11.218080520629883 5.161440372467041 11.159760475158691 L3.0014400482177734 7.919760227203369 C2.965924024581909 7.706664562225342 3.0315303802490234 7.4610276222229 3.1677608489990234 7.293360233306885 L7.487760066986084 5.133359909057617 C7.551840305328369 5.118239879608154 7.615920066833496 5.10312032699585 7.680000305175781 5.088000297546387 L10.055999755859375 5.088000297546387 C10.78327751159668 5.815278053283691 10.6462984085083 7.0320000648498535 12.0 7.0320000648498535 C13.353705406188965 7.0320000648498535 13.216721534729004 5.815279006958008 13.944000244140625 5.088000297546387 L16.31999969482422 5.088000297546387 C16.384078979492188 5.10312032699585 16.44816017150879 5.118239879608154 16.512239456176758 5.133359909057617 L20.832237243652344 7.293360233306885 C20.90711784362793 7.385519981384277 20.98200035095215 7.477680206298828 21.056880950927734 7.569839954376221 L21.056880950927734 7.569839954376221"></path>
<path fill="none" stroke="black" stroke-width=".3" stroke-opacity="1.0"  filling="0" d="M18.298561096191406 10.414559364318848 L16.751998901367188 9.950160026550293 L16.751998901367188 9.407999992370605 C16.54835319519043 9.204353332519531 16.091646194458008 9.204353332519531 15.887999534606934 9.407999992370605 L15.887999534606934 13.72800064086914 L15.887999534606934 18.04800033569336 L12.0 18.04800033569336 L8.112000465393066 18.04800033569336 L8.112000465393066 13.72800064086914 L8.112000465393066 9.407999992370605 C7.908353805541992 9.204353332519531 7.45164680480957 9.204353332519531 7.248000144958496 9.407999992370605 L7.248000144958496 9.950160026550293 L5.701440334320068 10.414559364318848 L3.990719795227051 7.848480224609375 L7.781519889831543 5.952000141143799 L9.662879943847656 5.952000141143799 C11.089064598083496 8.395461082458496 12.910934448242188 8.395461082458496 14.337120056152344 5.952000141143799 L16.21847915649414 5.952000141143799 L20.009281158447266 7.848480224609375 L18.298561096191406 10.414559364318848"></path></svg>