<svg xmlns="http://www.w3.org/2000/svg" viewBox="0.0 0.0 24.0 24.0" height="200px" width="200px"><path fill="none" stroke="black" stroke-width=".3" stroke-opacity="1.0"  filling="0" d="M13.80835247039795 9.793560028076172 L13.80835247039795 9.793560028076172 C13.358136177062988 9.793488502502441 12.907920837402344 9.793416023254395 12.457704544067383 9.793344497680664 L12.457704544067383 9.793344497680664 C12.435239791870117 9.552288055419922 12.412775993347168 9.311232566833496 12.390311241149902 9.070176124572754 L12.390311241149902 9.070176124572754 C13.486856460571289 9.264254570007324 16.393178939819336 9.880547523498535 14.008421897888184 10.917192459106445 C13.657333374023438 11.069809913635254 13.276289939880371 11.141255378723145 12.910223960876465 11.253287315368652 L12.910223960876465 11.253287315368652 C12.814751625061035 11.026631355285645 12.719280242919922 10.799976348876953 12.623807907104492 10.573320388793945 L12.623807907104492 10.573320388793945 C13.018655776977539 10.573320388793945 13.413504600524902 10.573320388793945 13.80835247039795 10.573320388793945 L13.80835247039795 10.573320388793945 C13.80835247039795 10.313400268554688 13.80835247039795 10.05348014831543 13.80835247039795 9.793560028076172 L13.80835247039795 9.793560028076172"></path>
<path fill="none" stroke="black" stroke-width=".3" stroke-opacity="1.0"  filling="0" d="M13.80835247039795 9.793560028076172 L13.80835247039795 9.793560028076172 C13.358208656311035 9.793560028076172 12.908063888549805 9.793560028076172 12.45792007446289 9.793560028076172 L12.45792007446289 9.793560028076172 C12.435456275939941 9.552504539489746 12.412991523742676 9.311448097229004 12.390527725219727 9.070392608642578 L12.390527725219727 9.070392608642578 C13.487340927124023 9.264516830444336 16.393259048461914 9.880672454833984 14.008476257324219 10.917327880859375 C13.657427787780762 11.069927215576172 13.27645206451416 11.14144515991211 12.910440444946289 11.253503799438477 L12.910440444946289 11.253503799438477 C12.81496810913086 11.026847839355469 12.719496726989746 10.800191879272461 12.624024391174316 10.573535919189453 L12.624024391174316 10.573535919189453 C13.018872261047363 10.573535919189453 13.413721084594727 10.573535919189453 13.808568954467773 10.573535919189453 L13.808568954467773 10.573535919189453 C13.808496475219727 10.313544273376465 13.808424949645996 10.05355167388916 13.80835247039795 9.793560028076172 L13.80835247039795 9.793560028076172"></path>
<path fill="none" stroke="black" stroke-width=".3" stroke-opacity="1.0"  filling="0" d="M6.176208019256592 10.143912315368652 L6.176208019256592 10.143912315368652 C5.855808258056641 9.958944320678711 5.535408020019531 9.77397632598877 5.21500825881958 9.589008331298828 L5.21500825881958 9.589008331298828 C6.191488742828369 7.897480487823486 7.168019771575928 6.205981254577637 8.14461612701416 4.514520645141602 L8.14461612701416 4.514520645141602 C8.523306846618652 5.169840335845947 8.901954650878906 5.825184345245361 9.280560493469238 6.480552673339844 L9.280560493469238 6.480552673339844 C10.186997413635254 4.910495758056641 11.093526840209961 3.340491771697998 12.0 1.770456314086914 L12.0 1.770456314086914 C12.905641555786133 3.3390023708343506 13.811347007751465 4.907512664794922 14.717062950134277 6.476016521453857 L14.717062950134277 6.476016521453857 C15.095364570617676 5.821471691131592 15.473652839660645 5.166919708251953 15.8519287109375 4.512360095977783 L15.8519287109375 4.512360095977783 C16.828411102294922 6.203629493713379 17.804885864257812 7.89490270614624 18.78131866455078 9.586200714111328 L18.78131866455078 9.586200714111328 C18.461639404296875 9.77116870880127 18.14196014404297 9.956136703491211 17.822280883789062 10.141104698181152 L17.822280883789062 10.141104698181152 C16.063518524169922 8.179180145263672 14.030757904052734 7.198260307312012 11.998307228088379 7.198633193969727 C9.96585750579834 7.199005603790283 7.933720588684082 8.180669784545898 6.176208019256592 10.143912315368652 L6.176208019256592 10.143912315368652"></path>
<path fill="none" stroke="black" stroke-width=".3" stroke-opacity="1.0"  filling="0" d="M6.176208019256592 10.143912315368652 L6.176208019256592 10.143912315368652 C5.855736255645752 9.958944320678711 5.535264015197754 9.77397632598877 5.214792251586914 9.589008331298828 L5.214792251586914 9.589008331298828 C6.191288471221924 7.897489070892334 7.167834758758545 6.20599889755249 8.144400596618652 4.514520645141602 L8.144400596618652 4.514520645141602 C8.264551162719727 4.722440242767334 9.160499572753906 6.27310037612915 9.280344009399414 6.480552673339844 L9.280344009399414 6.480552673339844 C10.18685531616211 4.910498142242432 11.093390464782715 3.3404541015625 12.0 1.770456314086914 L12.0 1.770456314086914 C12.905750274658203 3.338940143585205 13.811453819274902 4.907450199127197 14.717062950134277 6.476016521453857 L14.717062950134277 6.476016521453857 C15.095364570617676 5.821471691131592 15.473652839660645 5.166919708251953 15.8519287109375 4.512360095977783 L15.8519287109375 4.512360095977783 C16.828350067138672 6.203665733337402 17.80482292175293 7.894939422607422 18.78131866455078 9.586200714111328 L18.78131866455078 9.586200714111328 C18.461639404296875 9.77116870880127 18.14196014404297 9.956136703491211 17.822280883789062 10.141104698181152 L17.822280883789062 10.141104698181152 C16.063560485839844 8.17922592163086 14.030763626098633 7.198269844055176 11.998285293579102 7.198612689971924 C9.96580696105957 7.198955535888672 7.933649063110352 8.180597305297852 6.176208019256592 10.143912315368652 L6.176208019256592 10.143912315368652"></path>
<path fill="none" stroke="black" stroke-width=".3" stroke-opacity="1.0"  filling="0" d="M17.41187858581543 11.958744049072266 L17.41187858581543 11.958744049072266 C17.492231369018555 12.210528373718262 17.572582244873047 12.462311744689941 17.652935028076172 12.714096069335938 L17.652935028076172 12.714096069335938 C16.617456436157227 13.11745834350586 15.489843368530273 13.334782600402832 14.378592491149902 13.340928077697754 L14.378592491149902 13.340928077697754 C12.739710807800293 15.282925605773926 11.252792358398438 15.289022445678711 9.619895935058594 13.339847564697266 L9.619895935058594 13.339847564697266 C8.50927734375 13.335465431213379 7.382298469543457 13.118139266967773 6.346848011016846 12.716472625732422 L6.346848011016846 12.716472625732422 C6.4260478019714355 12.4661283493042 6.505248069763184 12.215785026550293 6.584447860717773 11.96544075012207 L6.584447860717773 11.96544075012207 C8.244414329528809 12.778928756713867 8.933684349060059 12.67523193359375 10.553232192993164 11.93498420715332 L10.553232192993164 11.93498420715332 C9.681549072265625 11.590839385986328 8.846358299255371 11.136181831359863 8.082839965820312 10.59276008605957 L8.082839965820312 10.59276008605957 C9.183536529541016 10.5885009765625 10.043212890625 10.897884368896484 11.089559555053711 11.251128196716309 L11.089559555053711 11.251128196716309 C11.183879852294922 11.024975776672363 11.278200149536133 10.798824310302734 11.372520446777344 10.572671890258789 L11.372520446777344 10.572671890258789 C10.978032112121582 10.572671890258789 10.583544731140137 10.572671890258789 10.189056396484375 10.572671890258789 L10.189056396484375 10.572671890258789 C10.189056396484375 10.313039779663086 10.189056396484375 10.053407669067383 10.189056396484375 9.79377555847168 L10.189056396484375 9.79377555847168 C10.638984680175781 9.79377555847168 11.088912010192871 9.79377555847168 11.538840293884277 9.79377555847168 L11.538840293884277 9.79377555847168 C11.561736106872559 9.551568031311035 11.58463191986084 9.309359550476074 11.607527732849121 9.06715202331543 L11.607527732849121 9.06715202331543 C10.37991714477539 9.303267478942871 9.386610984802246 10.08358383178711 8.087592124938965 9.805224418640137 L8.087592124938965 9.805224418640137 C9.341957092285156 8.787304878234863 10.822026252746582 8.14569091796875 12.474552154541016 8.31093692779541 C13.788722038269043 8.44234848022461 16.397037506103516 8.940897941589355 15.480839729309082 10.954560279846191 C15.30735969543457 11.33584213256836 13.755681037902832 11.839689254760742 13.450008392333984 11.937359809875488 L13.450008392333984 11.937359809875488 C14.771596908569336 12.84912109375 16.02824592590332 12.688579559326172 17.41187858581543 11.958744049072266 L17.41187858581543 11.958744049072266"></path>
<path fill="none" stroke="black" stroke-width=".3" stroke-opacity="1.0"  filling="0" d="M17.41187858581543 11.958744049072266 L17.41187858581543 11.958744049072266 C17.492446899414062 12.210311889648438 17.573017120361328 12.461880683898926 17.65358543395996 12.713448524475098 L17.65358543395996 12.713448524475098 C16.618099212646484 13.116792678833008 15.49049186706543 13.334134101867676 14.379240036010742 13.340280532836914 L14.379240036010742 13.340280532836914 C12.740394592285156 15.282234191894531 11.253365516662598 15.288450241088867 9.62054443359375 13.339200019836426 L9.62054443359375 13.339200019836426 C8.50992488861084 13.334871292114258 7.3829216957092285 13.117554664611816 6.347496032714844 12.715824127197266 L6.347496032714844 12.715824127197266 C6.426695823669434 12.465479850769043 6.505896091461182 12.215136528015137 6.5850958824157715 11.964792251586914 L6.5850958824157715 11.964792251586914 C8.245060920715332 12.778279304504395 8.934330940246582 12.67458438873291 10.553879737854004 11.934335708618164 L10.553879737854004 11.934335708618164 C9.682185173034668 11.590219497680664 8.846999168395996 11.135543823242188 8.083488464355469 10.592111587524414 L8.083488464355469 10.592111587524414 C9.184184074401855 10.587852478027344 10.043862342834473 10.897236824035645 11.090208053588867 11.250479698181152 L11.090208053588867 11.250479698181152 C11.184528350830078 11.024327278137207 11.278847694396973 10.798175811767578 11.373167991638184 10.572023391723633 L11.373167991638184 10.572023391723633 C10.978679656982422 10.572023391723633 10.584192276000977 10.572023391723633 10.189703941345215 10.572023391723633 L10.189703941345215 10.572023391723633 C10.189703941345215 10.31239128112793 10.189703941345215 10.052760124206543 10.189703941345215 9.79312801361084 L10.189703941345215 9.79312801361084 C10.639632225036621 9.79312801361084 11.089559555053711 9.79312801361084 11.539487838745117 9.79312801361084 L11.539487838745117 9.79312801361084 C11.562383651733398 9.550919532775879 11.585280418395996 9.308712005615234 11.608176231384277 9.066503524780273 L11.608176231384277 9.066503524780273 C10.380579948425293 9.302614212036133 9.387245178222656 10.082955360412598 8.088239669799805 9.804574966430664 L8.088239669799805 9.804574966430664 C9.342584609985352 8.786680221557617 10.822691917419434 8.144999504089355 12.475199699401855 8.310288429260254 C13.78931999206543 8.441730499267578 16.397705078125 8.940301895141602 15.481486320495605 10.953912734985352 C15.307944297790527 11.335312843322754 13.75650405883789 11.838981628417969 13.450655937194824 11.936712265014648 L13.450655937194824 11.936712265014648 C14.773366928100586 12.84924602508545 16.0267276763916 12.685772895812988 17.41187858581543 11.958744049072266 L17.41187858581543 11.958744049072266"></path>
<path fill="none" stroke="black" stroke-width=".3" stroke-opacity="1.0"  filling="0" d="M10.710479736328125 12.845640182495117 L10.710479736328125 12.845640182495117 C10.969391822814941 12.598031997680664 11.228303909301758 12.350424766540527 11.487215995788574 12.102816581726074 L11.487215995788574 12.102816581726074 C11.828568458557129 12.102816581726074 12.169919967651367 12.102816581726074 12.511272430419922 12.102816581726074 L12.511272430419922 12.102816581726074 C12.769608497619629 12.350424766540527 13.02794361114502 12.598031997680664 13.286279678344727 12.845640182495117 L13.286279678344727 12.845640182495117 C12.427680015563965 12.845640182495117 11.569079399108887 12.845640182495117 10.710479736328125 12.845640182495117 L10.710479736328125 12.845640182495117"></path>
<path fill="none" stroke="black" stroke-width=".3" stroke-opacity="1.0"  filling="0" d="M10.710479736328125 12.845640182495117 L10.710479736328125 12.845640182495117 C10.969391822814941 12.598031997680664 11.228303909301758 12.350424766540527 11.487215995788574 12.102816581726074 L11.487215995788574 12.102816581726074 C11.828568458557129 12.102816581726074 12.169919967651367 12.102816581726074 12.511272430419922 12.102816581726074 L12.511272430419922 12.102816581726074 C12.769608497619629 12.350424766540527 13.02794361114502 12.598031997680664 13.286279678344727 12.845640182495117 L13.286279678344727 12.845640182495117 C12.427680015563965 12.845640182495117 11.569079399108887 12.845640182495117 10.710479736328125 12.845640182495117 L10.710479736328125 12.845640182495117"></path>
<path fill="none" stroke="black" stroke-width=".3" stroke-opacity="1.0"  filling="0" d="M10.794936180114746 13.632096290588379 L10.794936180114746 13.632096290588379 C11.540687561035156 13.927955627441406 12.458124160766602 13.933077812194824 13.201823234558105 13.632096290588379 L13.201823234558105 13.632096290588379 C12.399527549743652 13.632096290588379 11.5972318649292 13.632096290588379 10.794936180114746 13.632096290588379 L10.794936180114746 13.632096290588379"></path>
<path fill="none" stroke="black" stroke-width=".3" stroke-opacity="1.0"  filling="0" d="M10.794936180114746 13.632096290588379 L10.794936180114746 13.632096290588379 C11.5972318649292 13.632096290588379 12.399527549743652 13.632096290588379 13.201823234558105 13.632096290588379 L13.201823234558105 13.632096290588379 C12.458096504211426 13.933008193969727 11.540728569030762 13.927852630615234 10.794936180114746 13.632096290588379 L10.794936180114746 13.632096290588379"></path>
<path fill="none" stroke="black" stroke-width=".3" stroke-opacity="1.0"  filling="0" d="M14.829168319702148 13.776599884033203 L14.829168319702148 13.776599884033203 C15.112199783325195 13.776599884033203 15.395232200622559 13.776599884033203 15.678263664245605 13.776599884033203 L15.678263664245605 13.776599884033203 C15.47392749786377 14.125007629394531 15.26959228515625 14.47341537475586 15.065256118774414 14.821823120117188 L15.065256118774414 14.821823120117188 C15.968783378601074 14.821823120117188 16.872310638427734 14.821823120117188 17.77583885192871 14.821823120117188 L17.77583885192871 14.821823120117188 C17.725223541259766 15.082751274108887 17.67460823059082 15.343680381774902 17.623992919921875 15.604608535766602 L17.623992919921875 15.604608535766602 C15.658220291137695 15.604608535766602 14.510232925415039 15.861328125 12.706952095031738 16.215160369873047 C11.147082328796387 16.521230697631836 11.143606185913086 15.650352478027344 9.697656631469727 15.606983184814453 C8.601126670837402 15.574094772338867 7.473939895629883 15.604608535766602 6.3773040771484375 15.604608535766602 L6.3773040771484375 15.604608535766602 C6.326400279998779 15.345840454101562 6.275496006011963 15.087072372436523 6.224592208862305 14.828304290771484 L6.224592208862305 14.828304290771484 C7.12883996963501 14.828304290771484 8.033087730407715 14.828304290771484 8.937335968017578 14.828304290771484 L8.937335968017578 14.828304290771484 C8.732135772705078 14.47867202758789 8.526936531066895 14.129039764404297 8.321736335754395 13.779407501220703 L8.321736335754395 13.779407501220703 C8.604767799377441 13.779407501220703 8.887800216674805 13.779407501220703 9.170831680297852 13.779407501220703 L9.170831680297852 13.779407501220703 C11.212924003601074 15.924185752868652 12.784193992614746 15.911865234375 14.829168319702148 13.776599884033203 L14.829168319702148 13.776599884033203"></path>
<path fill="none" stroke="black" stroke-width=".3" stroke-opacity="1.0"  filling="0" d="M14.829168319702148 13.776599884033203 L14.829168319702148 13.776599884033203 C15.112272262573242 13.776599884033203 15.395376205444336 13.776599884033203 15.67848014831543 13.776599884033203 L15.67848014831543 13.776599884033203 C15.474143981933594 14.125007629394531 15.269807815551758 14.47341537475586 15.065471649169922 14.821823120117188 L15.065471649169922 14.821823120117188 C15.968998908996582 14.821823120117188 16.872526168823242 14.821823120117188 17.77605438232422 14.821823120117188 L17.77605438232422 14.821823120117188 C17.725439071655273 15.082751274108887 17.674823760986328 15.343680381774902 17.624208450317383 15.604608535766602 L17.624208450317383 15.604608535766602 C15.658435821533203 15.604608535766602 14.510449409484863 15.861328125 12.707168579101562 16.215160369873047 C11.147297859191895 16.521230697631836 11.14382266998291 15.650352478027344 9.697872161865234 15.606983184814453 C8.601346015930176 15.574094772338867 7.474153518676758 15.604608535766602 6.3775200843811035 15.604608535766602 L6.3775200843811035 15.604608535766602 C6.326616287231445 15.345840454101562 6.275712490081787 15.087072372436523 6.224808692932129 14.828304290771484 L6.224808692932129 14.828304290771484 C7.129056453704834 14.828304290771484 8.033304214477539 14.828304290771484 8.937551498413086 14.828304290771484 L8.937551498413086 14.828304290771484 C8.732351303100586 14.47867202758789 8.527152061462402 14.129039764404297 8.321951866149902 13.779407501220703 L8.321951866149902 13.779407501220703 C8.604984283447266 13.779407501220703 8.888015747070312 13.779407501220703 9.171048164367676 13.779407501220703 L9.171048164367676 13.779407501220703 C11.213004112243652 15.924261093139648 12.784262657165527 15.911799430847168 14.829168319702148 13.776599884033203 L14.829168319702148 13.776599884033203"></path>
<path fill="none" stroke="black" stroke-width=".3" stroke-opacity="1.0"  filling="0" d="M7.231368064880371 17.432615280151367 L7.231368064880371 17.432615280151367 C7.076060771942139 17.176963806152344 6.918647289276123 16.922080993652344 6.779712200164795 16.657175064086914 L6.779712200164795 16.657175064086914 C8.521608352661133 16.657175064086914 10.263504981994629 16.657175064086914 12.005400657653809 16.657175064086914 C13.747296333312988 16.657175064086914 15.489192962646484 16.657175064086914 17.231088638305664 16.657175064086914 L17.231088638305664 16.657175064086914 C17.079025268554688 16.914142608642578 16.926959991455078 17.171110153198242 16.7748966217041 17.428077697753906 L16.7748966217041 17.428077697753906 C15.314445495605469 17.428077697753906 13.854001998901367 17.428077697753906 12.39355182647705 17.428077697753906 L12.39355182647705 17.428077697753906 C12.39355182647705 17.638750076293945 12.39355182647705 17.849424362182617 12.39355182647705 18.060096740722656 L12.39355182647705 18.060096740722656 C13.669463157653809 18.060096740722656 14.945375442504883 18.060096740722656 16.22128677368164 18.060096740722656 L16.22128677368164 18.060096740722656 C16.226686477661133 18.06902503967285 16.232088088989258 18.077951431274414 16.23748779296875 18.08687973022461 L16.23748779296875 18.08687973022461 C15.107322692871094 19.118789672851562 13.849496841430664 18.840503692626953 12.393335342407227 18.840503692626953 L12.393335342407227 18.840503692626953 C12.393335342407227 19.130159378051758 12.393335342407227 19.419816970825195 12.393335342407227 19.70947265625 L12.393335342407227 19.70947265625 C12.133487701416016 19.70947265625 11.873640060424805 19.70947265625 11.613792419433594 19.70947265625 L11.613792419433594 19.70947265625 C11.613792419433594 19.419816970825195 11.613792419433594 19.130159378051758 11.613792419433594 18.840503692626953 L11.613792419433594 18.840503692626953 C9.969389915466309 18.840503692626953 9.004107475280762 19.152700424194336 7.755168437957764 18.099191665649414 L7.755168437957764 18.099191665649414 C7.762152194976807 18.08745574951172 7.769136428833008 18.07571792602539 7.776120185852051 18.063982009887695 L7.776120185852051 18.063982009887695 C7.7829484939575195 18.063982009887695 11.601553916931152 18.063982009887695 11.60580062866211 18.063982009887695 L11.60580062866211 18.063982009887695 C11.60580062866211 17.853527069091797 11.60580062866211 17.643070220947266 11.60580062866211 17.432615280151367 L11.60580062866211 17.432615280151367 C10.147658348083496 17.432615280151367 8.689510345458984 17.432615280151367 7.231368064880371 17.432615280151367 L7.231368064880371 17.432615280151367"></path>
<path fill="none" stroke="black" stroke-width=".3" stroke-opacity="1.0"  filling="0" d="M7.231368064880371 17.432615280151367 L7.231368064880371 17.432615280151367 C7.076260089874268 17.176855087280273 6.919074535369873 16.921855926513672 6.780144214630127 16.656959533691406 L6.780144214630127 16.656959533691406 C8.522040367126465 16.656959533691406 10.263936042785645 16.656959533691406 12.005831718444824 16.656959533691406 C13.74772834777832 16.656959533691406 15.4896240234375 16.656959533691406 17.23151969909668 16.656959533691406 L17.23151969909668 16.656959533691406 C17.079456329345703 16.91392707824707 16.927391052246094 17.170896530151367 16.775327682495117 17.42786407470703 L16.775327682495117 17.42786407470703 C15.314879417419434 17.42786407470703 13.854433059692383 17.42786407470703 12.393983840942383 17.42786407470703 L12.393983840942383 17.42786407470703 C12.393983840942383 17.63853645324707 12.393983840942383 17.849206924438477 12.393983840942383 18.059879302978516 L12.393983840942383 18.059879302978516 C13.669896125793457 18.059879302978516 14.945807456970215 18.059879302978516 16.22171974182129 18.059879302978516 L16.22171974182129 18.059879302978516 C16.22711944580078 18.06880760192871 16.232521057128906 18.077735900878906 16.2379207611084 18.0866641998291 L16.2379207611084 18.0866641998291 C15.107755661010742 19.11857032775879 13.849925994873047 18.840286254882812 12.393768310546875 18.840286254882812 L12.393768310546875 18.840286254882812 C12.393768310546875 19.12994384765625 12.393768310546875 19.419599533081055 12.393768310546875 19.709257125854492 L12.393768310546875 19.709257125854492 C12.133920669555664 19.709257125854492 11.874072074890137 19.709257125854492 11.614224433898926 19.709257125854492 L11.614224433898926 19.709257125854492 C11.614224433898926 19.419599533081055 11.614224433898926 19.12994384765625 11.614224433898926 18.840286254882812 L11.614224433898926 18.840286254882812 C9.969820022583008 18.840286254882812 9.004542350769043 19.152482986450195 7.755600452423096 18.098976135253906 L7.755600452423096 18.098976135253906 C7.762584209442139 18.08724021911621 7.76956844329834 18.075502395629883 7.776552200317383 18.063766479492188 L7.776552200317383 18.063766479492188 C9.053112030029297 18.063766479492188 10.329671859741211 18.063766479492188 11.606231689453125 18.063766479492188 L11.606231689453125 18.063766479492188 C11.606231689453125 17.85331153869629 11.606231689453125 17.642854690551758 11.606231689453125 17.43239974975586 L11.606231689453125 17.43239974975586 C10.147944450378418 17.432552337646484 8.689655303955078 17.432607650756836 7.231368064880371 17.432615280151367 L7.231368064880371 17.432615280151367"></path>
<path fill="none" stroke="black" stroke-width=".3" stroke-opacity="1.0"  filling="0" d="M1.320744514465332 20.244503021240234 L1.320744514465332 20.244503021240234 C1.320744514465332 18.141887664794922 1.320744514465332 16.03927230834961 1.320744514465332 13.93665599822998 C1.320744514465332 11.834039688110352 1.320744514465332 9.731424331665039 1.320744514465332 7.62880802154541 C1.320744514465332 5.5261921882629395 1.320744514465332 3.4235763549804688 1.320744514465332 1.3209609985351562 L1.320744514465332 1.3209609985351562 C3.693936586380005 1.3209609985351562 6.067128658294678 1.3209609985351562 8.44032096862793 1.3209609985351562 C10.813512802124023 1.3209609985351562 13.186704635620117 1.3209609985351562 15.559896469116211 1.3209609985351562 C17.933088302612305 1.3209609985351562 20.30628204345703 1.3209609985351562 22.679473876953125 1.3209609985351562 L22.679473876953125 1.3209609985351562 C22.679473876953125 3.423576593399048 22.679473876953125 5.5261921882629395 22.679473876953125 7.62880802154541 C22.679473876953125 9.731424331665039 22.679473876953125 11.834039688110352 22.679473876953125 13.93665599822998 C22.679473876953125 16.03927230834961 22.679473876953125 18.141887664794922 22.679473876953125 20.244503021240234 L22.679473876953125 20.244503021240234 C21.749727249145508 19.1658992767334 20.455717086791992 16.888507843017578 19.96953773498535 15.550174713134766 L19.96953773498535 15.550174713134766 C19.99378204345703 15.550174713134766 22.20294761657715 15.550174713134766 22.22457504272461 15.550174713134766 L22.22457504272461 15.550174713134766 C21.248924255371094 13.86017894744873 20.273204803466797 12.170223236083984 19.29755973815918 10.480224609375 L19.29755973815918 10.480224609375 C18.978525161743164 10.664468765258789 18.659494400024414 10.848716735839844 18.340463638305664 11.032967567443848 L18.340463638305664 11.032967567443848 C19.156753540039062 13.535799026489258 18.991615295410156 15.787384033203125 17.977270126342773 17.548477172851562 C16.962923049926758 19.3095703125 15.099370956420898 20.580169677734375 12.518832206726074 21.12103271484375 L12.518832206726074 21.12103271484375 C12.518832206726074 21.4885196685791 12.518832206726074 21.856008529663086 12.518832206726074 22.223495483398438 L12.518832206726074 22.223495483398438 C14.469671249389648 22.223495483398438 16.420513153076172 22.223495483398438 18.371353149414062 22.223495483398438 L18.371353149414062 22.223495483398438 C17.9949893951416 21.571001052856445 17.61857032775879 20.918535232543945 17.242101669311523 20.266101837158203 L17.242101669311523 20.266101837158203 C19.0545597076416 20.266101837158203 20.867013931274414 20.266101837158203 22.679473876953125 20.266101837158203 L22.679473876953125 20.266101837158203 C22.679473876953125 21.070486068725586 22.679473876953125 21.8748722076416 22.679473876953125 22.679256439208984 L22.679473876953125 22.679256439208984 C20.30628204345703 22.679256439208984 17.933090209960938 22.679256439208984 15.559897422790527 22.679256439208984 C13.186704635620117 22.679256439208984 10.813512802124023 22.679256439208984 8.44032096862793 22.679256439208984 C6.067128658294678 22.679256439208984 3.693936586380005 22.679256439208984 1.320744514465332 22.679256439208984 L1.320744514465332 22.679256439208984 C1.320744514465332 21.8748722076416 1.320744514465332 21.070486068725586 1.320744514465332 20.266101837158203 L1.320744514465332 20.266101837158203 C3.1332716941833496 20.266101837158203 4.94580078125 20.266101837158203 6.758327960968018 20.266101837158203 L6.758327960968018 20.266101837158203 C6.657205104827881 20.441329956054688 5.730382919311523 22.047515869140625 5.627352237701416 22.22608757019043 L5.627352237701416 22.22608757019043 C7.578622341156006 22.22608757019043 9.529897689819336 22.22608757019043 11.481167793273926 22.22608757019043 L11.481167793273926 22.22608757019043 C11.481167793273926 21.857807159423828 11.481167793273926 21.489526748657227 11.481167793273926 21.121246337890625 L11.481167793273926 21.121246337890625 C8.901490211486816 20.58135986328125 7.037841796875 19.31138801574707 6.023016929626465 17.550771713256836 C5.00819206237793 15.790153503417969 4.842190742492676 13.538891792297363 5.657808303833008 11.03642463684082 L5.657808303833008 11.03642463684082 C5.338272571563721 10.851816177368164 5.018736362457275 10.667207717895508 4.699200630187988 10.482599258422852 L4.699200630187988 10.482599258422852 C3.7215726375579834 12.175446510314941 2.7441728115081787 13.868422508239746 1.76678466796875 15.561408042907715 L1.76678466796875 15.561408042907715 C2.523000478744507 15.561408042907715 3.2792165279388428 15.561408042907715 4.0354323387146 15.561408042907715 L4.0354323387146 15.561408042907715 C3.1869072914123535 17.070371627807617 2.374056100845337 18.87242317199707 1.320744514465332 20.244503021240234 L1.320744514465332 20.244503021240234"></path>
<path fill="none" stroke="black" stroke-width=".3" stroke-opacity="1.0"  filling="0" d="M1.320744514465332 20.244503021240234 L1.320744514465332 20.244503021240234 C2.374055862426758 18.872425079345703 3.1869068145751953 17.07037353515625 4.0354323387146 15.561408042907715 L4.0354323387146 15.561408042907715 C3.2792165279388428 15.561408042907715 2.523000478744507 15.561408042907715 1.76678466796875 15.561408042907715 L1.76678466796875 15.561408042907715 C2.7441766262054443 13.868324279785156 3.7215678691864014 12.175238609313965 4.698983669281006 10.482168197631836 L4.698983669281006 10.482168197631836 C5.018519878387451 10.666775703430176 5.3380560874938965 10.851384162902832 5.657592296600342 11.035991668701172 L5.657592296600342 11.035991668701172 C4.841976642608643 13.538455963134766 5.007967948913574 15.789737701416016 6.022787570953369 17.550365447998047 C7.037607192993164 19.310993194580078 8.901254653930664 20.58096694946289 11.480951309204102 21.12081527709961 L11.480951309204102 21.12081527709961 C11.480951309204102 21.48909568786621 11.480951309204102 21.85737419128418 11.480951309204102 22.22565460205078 L11.480951309204102 22.22565460205078 C9.529681205749512 22.22565460205078 7.578407287597656 22.22565460205078 5.62713623046875 22.22565460205078 L5.62713623046875 22.22565460205078 C6.0040740966796875 21.572296142578125 6.381066799163818 20.918968200683594 6.75811243057251 20.265670776367188 L6.75811243057251 20.265670776367188 C4.945584297180176 20.265670776367188 3.133056163787842 20.265670776367188 1.3205280303955078 20.265670776367188 L1.3205280303955078 20.265670776367188 C1.320600152015686 20.258615493774414 1.3206723928451538 20.251558303833008 1.320744514465332 20.244503021240234 L1.320744514465332 20.244503021240234"></path>
<path fill="none" stroke="black" stroke-width=".3" stroke-opacity="1.0"  filling="0" d="M22.679256439208984 20.266101837158203 L22.679256439208984 20.266101837158203 C20.866802215576172 20.266101837158203 19.054344177246094 20.266101837158203 17.24188804626465 20.266101837158203 L17.24188804626465 20.266101837158203 C17.6182918548584 20.9185733795166 17.994709014892578 21.57103729248047 18.371135711669922 22.223495483398438 L18.371135711669922 22.223495483398438 C16.42029571533203 22.223495483398438 14.469457626342773 22.223495483398438 12.518616676330566 22.223495483398438 L12.518616676330566 22.223495483398438 C12.518616676330566 21.856008529663086 12.518616676330566 21.4885196685791 12.518616676330566 21.12103271484375 L12.518616676330566 21.12103271484375 C15.099149703979492 20.580045700073242 16.962709426879883 19.309494018554688 17.977062225341797 17.5484561920166 C18.991413116455078 15.7874174118042 19.15655517578125 13.535894393920898 18.340248107910156 11.032967567443848 L18.340248107910156 11.032967567443848 C18.659276962280273 10.848716735839844 18.978309631347656 10.664468765258789 19.29734230041504 10.480224609375 L19.29734230041504 10.480224609375 C20.27305030822754 12.170186996459961 21.248769760131836 13.860143661499023 22.2243595123291 15.550174713134766 L22.2243595123291 15.550174713134766 C21.472679138183594 15.550174713134766 20.720998764038086 15.550174713134766 19.969318389892578 15.550174713134766 L19.969318389892578 15.550174713134766 C20.45556640625 16.88848114013672 21.749549865722656 19.1658935546875 22.679256439208984 20.244503021240234 L22.679256439208984 20.244503021240234 C22.679256439208984 20.2517032623291 22.679256439208984 20.258901596069336 22.679256439208984 20.266101837158203 L22.679256439208984 20.266101837158203"></path></svg>