<svg xmlns="http://www.w3.org/2000/svg" viewBox="0.0 0.0 24.0 24.0" height="200px" width="200px"><path fill="none" stroke="black" stroke-width=".3" stroke-opacity="1.0"  filling="0" d="M12.105623245239258 2.3422088623046875 L12.105623245239258 2.3422088623046875 C11.789831161499023 2.431776762008667 11.474040031433105 2.5213444232940674 11.158247947692871 2.610912322998047 L11.158247947692871 2.610912322998047 C11.066448211669922 2.3617923259735107 10.974647521972656 2.1126720905303955 10.882847785949707 1.8635520935058594 L10.882847785949707 1.8635520935058594 C11.256887435913086 1.7593683004379272 11.630928039550781 1.6551843881607056 12.00496768951416 1.5510005950927734 L12.00496768951416 1.5510005950927734 C12.038519859313965 1.8147367238998413 12.072071075439453 2.078472852706909 12.105623245239258 2.3422088623046875 L12.105623245239258 2.3422088623046875"></path>
<path fill="none" stroke="black" stroke-width=".3" stroke-opacity="1.0"  filling="0" d="M13.120823860168457 2.8573684692382812 L13.120823860168457 2.8573684692382812 C13.464048385620117 2.7606725692749023 13.807271957397461 2.6639766693115234 14.150496482849121 2.5672807693481445 L14.150496482849121 2.5672807693481445 C14.02302360534668 3.0814363956451416 13.555937767028809 3.475616931915283 13.120823860168457 3.7777442932128906 L13.120823860168457 3.7777442932128906 C13.120823860168457 3.470952272415161 13.120823860168457 3.1641604900360107 13.120823860168457 2.8573684692382812 L13.120823860168457 2.8573684692382812"></path>
<path fill="none" stroke="black" stroke-width=".3" stroke-opacity="1.0"  filling="0" d="M18.025968551635742 3.053280830383301 L18.025968551635742 3.053280830383301 C17.811336517333984 2.9146807193756104 17.596704483032227 2.776080846786499 17.38207244873047 2.6374807357788086 L16.01198387145996 4.932048320770264 C18.15411376953125 6.307084083557129 19.551992416381836 8.54160213470459 19.92681121826172 10.902702331542969 C20.30162811279297 13.263803482055664 19.653385162353516 15.751485824584961 17.703264236450195 17.632848739624023 C16.167339324951172 19.114620208740234 14.630457878112793 19.58579444885254 12.595727920532227 19.971481323242188 L12.595727920532227 20.793575286865234 C14.277525901794434 20.500762939453125 14.738787651062012 20.56369972229004 16.254533767700195 19.737844467163086 C17.924009323120117 18.828229904174805 19.09621238708496 17.574546813964844 19.8189640045166 16.139755249023438 C20.541717529296875 14.704961776733398 20.815017700195312 13.089057922363281 20.686689376831055 11.45500373840332 C20.558361053466797 9.820948600769043 20.028400421142578 8.168743133544922 19.14463233947754 6.661344051361084 L19.894798278808594 6.023928165435791 C21.32478904724121 8.2556791305542 21.83892250061035 10.611886978149414 21.604263305664062 12.802081108093262 C21.369606018066406 14.99227523803711 20.386154174804688 17.016456604003906 18.820980072021484 18.584156036376953 C17.25580406188965 20.15185546875 15.108902931213379 21.263071060180664 12.547344207763672 21.627336502075195 L12.547344207763672 22.449432373046875 C14.408102035522461 22.190587997436523 16.01718521118164 21.85388946533203 17.63430404663086 20.83025550842285 C19.870746612548828 19.414588928222656 21.28960609436035 17.485694885253906 21.977489471435547 15.370283126831055 C22.665374755859375 13.254871368408203 22.622283935546875 10.952940940856934 21.934825897216797 8.791203498840332 C21.24736976623535 6.629467010498047 19.915546417236328 4.607922554016113 18.025968551635742 3.053280830383301 L18.025968551635742 3.053280830383301"></path>
<path fill="none" stroke="black" stroke-width=".3" stroke-opacity="1.0"  filling="0" d="M14.127816200256348 4.970064640045166 L14.127816200256348 4.970064640045166 C16.3181209564209 6.2346391677856445 14.274495124816895 7.656009674072266 12.598967552185059 7.9271039962768555 L12.598967552185059 7.9271039962768555 C12.598967552185059 7.679855823516846 12.598967552185059 7.432608127593994 12.598967552185059 7.185359954833984 L12.598967552185059 7.185359954833984 C14.896846771240234 6.378023147583008 14.316378593444824 5.284575462341309 12.311688423156738 6.482928276062012 L12.311688423156738 6.482928276062012 C12.311688423156738 5.959776401519775 12.311688423156738 5.436624526977539 12.311688423156738 4.913472652435303 L12.311688423156738 4.913472652435303 C12.095616340637207 4.995624542236328 11.879544258117676 5.0777764320373535 11.663472175598145 5.159928321838379 L11.663472175598145 5.159928321838379 C11.662535667419434 5.509416580200195 11.78287410736084 5.880967140197754 11.660663604736328 6.20839262008667 C11.174678802490234 7.51044225692749 8.510435104370117 8.41174602508545 9.044472694396973 6.177072525024414 C9.215863227844238 5.459890842437744 10.057230949401855 5.0554280281066895 10.626240730285645 4.72144889831543 L10.626240730285645 4.72144889831543 C9.849344253540039 4.543115615844727 8.343603134155273 4.445949077606201 9.054407119750977 2.925191879272461 C9.281828880310059 2.4386250972747803 9.947783470153809 2.3287441730499268 10.394472122192383 2.030520439147949 L10.394472122192383 2.030520439147949 C10.482744216918945 2.2752482891082764 10.571015357971191 2.5199759006500244 10.659287452697754 2.7647037506103516 L10.659287452697754 2.7647037506103516 C10.305551528930664 3.0341999530792236 9.95181655883789 3.303696393966675 9.5980806350708 3.573192596435547 L9.5980806350708 3.573192596435547 C10.02396011352539 3.6881046295166016 10.44983959197998 3.8030166625976562 10.87571907043457 3.917928695678711 L10.87571907043457 3.917928695678711 C10.87571907043457 3.657144546508789 10.87571907043457 3.396360397338867 10.87571907043457 3.1355762481689453 L10.87571907043457 3.1355762481689453 C11.137367248535156 3.1355762481689453 11.399015426635742 3.1355762481689453 11.660663604736328 3.1355762481689453 L11.660663604736328 3.1355762481689453 C11.660663604736328 3.5246641635894775 11.660663604736328 3.9137518405914307 11.660663604736328 4.302839756011963 L11.660663604736328 4.302839756011963 C11.874287605285645 4.222919940948486 12.087912559509277 4.14300012588501 12.301536560058594 4.063080310821533 L12.301536560058594 4.063080310821533 C12.301257133483887 3.779716968536377 12.155936241149902 2.5536551475524902 12.603072166442871 2.2609920501708984 C13.768455505371094 1.498215913772583 14.795625686645508 1.3851348161697388 14.892888069152832 3.219167709350586 C14.92214298248291 3.770815372467041 13.285578727722168 4.53921365737915 13.11585521697998 4.636992454528809 L13.11585521697998 4.636992454528809 C13.11585521697998 4.777896404266357 13.11585521697998 4.918800354003906 13.11585521697998 5.059704303741455 L13.11585521697998 5.059704303741455 C13.45317554473877 5.029824256896973 13.790495872497559 4.999944686889648 14.127816200256348 4.970064640045166 L14.127816200256348 4.970064640045166"></path>
<path fill="none" stroke="black" stroke-width=".3" stroke-opacity="1.0"  filling="0" d="M7.35146427154541 5.3754963874816895 L6.856823921203613 4.683863639831543 C7.191120147705078 4.479599952697754 7.525415897369385 4.275335788726807 7.85971212387085 4.071072101593018 L8.258880615234375 4.817568302154541 C7.956408500671387 5.003544330596924 7.653936386108398 5.189520359039307 7.35146427154541 5.3754963874816895 L7.35146427154541 5.3754963874816895"></path>
<path fill="none" stroke="black" stroke-width=".3" stroke-opacity="1.0"  filling="0" d="M5.714616298675537 5.658456325531006 L5.714616298675537 5.658456325531006 C5.9903764724731445 5.412072658538818 6.266136646270752 5.165688514709473 6.541896820068359 4.919304847717285 L7.080816268920898 5.575512409210205 C6.822480201721191 5.802816390991211 6.564144134521484 6.030120372772217 6.305808067321777 6.257424354553223 L5.714616298675537 5.658456325531006"></path>
<path fill="none" stroke="black" stroke-width=".3" stroke-opacity="1.0"  filling="0" d="M18.66446304321289 6.0636725425720215 L18.66446304321289 6.0636725425720215 C18.164936065673828 5.5587544441223145 17.634105682373047 5.083017826080322 17.077728271484375 4.641528606414795 L17.604766845703125 3.7585201263427734 C18.231122970581055 4.288721084594727 18.865324020385742 4.8166937828063965 19.42068099975586 5.420856475830078 L18.66446304321289 6.0636725425720215"></path>
<path fill="none" stroke="black" stroke-width=".3" stroke-opacity="1.0"  filling="0" d="M10.52407169342041 6.69979190826416 L10.52407169342041 6.69979190826416 C10.272791862487793 6.6910080909729 10.021512031555176 6.682224273681641 9.770232200622559 6.673440456390381 L9.770232200622559 6.673440456390381 C10.140024185180664 6.296592712402344 10.50981616973877 5.919744491577148 10.879608154296875 5.542896747589111 L10.879608154296875 5.542896747589111 C10.761096000671387 5.928528308868408 10.642583847045898 6.314160346984863 10.52407169342041 6.69979190826416 L10.52407169342041 6.69979190826416"></path>
<path fill="none" stroke="black" stroke-width=".3" stroke-opacity="1.0"  filling="0" d="M4.000224590301514 11.933472633361816 L4.000224590301514 11.933472633361816 C4.217215061187744 9.84717082977295 4.679209232330322 8.253911972045898 6.010752201080322 6.593088150024414 L4.617336273193359 5.3761444091796875 C5.452698230743408 4.473201751708984 6.335176944732666 3.8158106803894043 7.368744373321533 3.1526403427124023 L6.982320308685303 2.4301204681396484 C5.919694900512695 3.139288902282715 4.917112350463867 3.9478492736816406 3.999575614929199 4.8367919921875 L3.7341127395629883 4.605024814605713 L3.1839609146118164 5.234880447387695 L3.478799819946289 5.49235200881958 C2.413961410522461 7.207989692687988 1.775142788887024 9.101351737976074 1.5982005596160889 10.9909029006958 C1.4212583303451538 12.880453109741211 1.7061926126480103 14.766193389892578 2.4888603687286377 16.46658706665039 C3.2715280055999756 18.166980743408203 4.551928997039795 19.682025909423828 6.365920543670654 20.83019256591797 C7.983124256134033 21.853801727294922 9.592266082763672 22.190441131591797 11.45308780670166 22.449216842651367 L11.45308780670166 21.627120971679688 C8.893977165222168 21.263174057006836 6.748051643371582 20.153167724609375 5.182762145996094 18.586942672729492 C3.6174731254577637 17.02071762084961 2.6328208446502686 14.998271942138672 2.3962576389312744 12.809443473815918 C2.1596944332122803 10.620615005493164 2.671220541000366 8.265403747558594 4.098288059234619 6.033648490905762 L4.870055675506592 6.7075676918029785 C3.561692237854004 8.967034339904785 3.0464487075805664 11.545536041259766 3.481396198272705 13.898650169372559 C3.916343927383423 16.25176429748535 5.301483154296875 18.379491806030273 7.793884754180908 19.737409591674805 C9.309715270996094 20.563268661499023 9.77099323272705 20.500329971313477 11.452871322631836 20.79314422607422 L11.452871322631836 19.97104835510254 C9.217673301696777 19.547487258911133 7.464327812194824 18.669910430908203 6.214873790740967 17.332317352294922 C4.965419769287109 15.994722366333008 4.219857215881348 14.19710922241211 4.000224590301514 11.933472633361816 L4.000224590301514 11.933472633361816"></path></svg>