<svg xmlns="http://www.w3.org/2000/svg" viewBox="0.0 0.0 24.0 24.0" height="200px" width="200px"><path fill="none" stroke="black" stroke-width=".3" stroke-opacity="1.0"  filling="0" d="M4.800072193145752 10.049952507019043 L10.800119400024414 10.049952507019043 L10.800119400024414 11.84988021850586 L4.800072193145752 11.84988021850586 L4.800072193145752 10.049952507019043"></path>
<path fill="none" stroke="black" stroke-width=".3" stroke-opacity="1.0"  filling="0" d="M4.800072193145752 14.250072479248047 L4.800072193145752 14.250072479248047 C4.200024127960205 14.420928001403809 3.5999765396118164 14.591784477233887 2.9999284744262695 14.762639999389648 L2.9999284744262695 8.550048828125 C3.391960620880127 6.12612247467041 4.536609649658203 4.3397417068481445 6.155050754547119 3.415602922439575 C7.773492336273193 2.4914638996124268 9.865726470947266 2.4295668601989746 12.152928352355957 3.454608917236328 L12.152928352355957 3.454608917236328 C11.761824607849121 3.920304536819458 11.370719909667969 4.386000156402588 10.979616165161133 4.851696014404297 L10.979616165161133 4.851696014404297 C9.436840057373047 4.245960712432861 8.100509643554688 4.328587532043457 7.0474853515625 4.9461259841918945 C5.9944610595703125 5.563664436340332 5.224742889404297 6.716114044189453 4.815192222595215 8.250024795532227 L10.815239906311035 8.250024795532227 C11.135177612304688 6.7064409255981445 11.751230239868164 5.277245998382568 12.727387428283691 4.23604154586792 C13.703545570373535 3.1948370933532715 15.03980827331543 2.5416228771209717 16.800167083740234 2.5500001907348633 C18.173398971557617 2.556535243988037 19.844558715820312 3.250627040863037 21.086809158325195 4.346045017242432 C22.329059600830078 5.441463470458984 23.14240264892578 6.938207626342773 22.799999237060547 8.550048828125 C22.445228576660156 10.220102310180664 21.35472869873047 9.280241012573242 21.000072479248047 8.550048828125 C20.189247131347656 6.880666732788086 20.526926040649414 5.549276828765869 18.43344497680664 4.680728912353516 C16.861225128173828 4.028442859649658 15.543521881103516 4.300909996032715 14.54854965209961 5.0838799476623535 C13.55357837677002 5.86685037612915 12.881338119506836 7.160323143005371 12.600048065185547 8.550048828125 L12.600048065185547 14.762855529785156 C12.002188682556152 14.849832534790039 11.386234283447266 14.696623802185059 10.800119400024414 14.550095558166504 L10.800119400024414 13.650023460388184 L4.800072193145752 13.650023460388184 L4.800072193145752 14.250072479248047"></path>
<path fill="none" stroke="black" stroke-width=".3" stroke-opacity="1.0"  filling="0" d="M22.799999237060547 15.749975204467773 L22.799999237060547 17.549903869628906 C21.25682258605957 17.935699462890625 20.674495697021484 17.25009536743164 19.199928283691406 17.25009536743164 C18.375398635864258 17.25009536743164 17.624696731567383 17.84992790222168 16.800167083740234 17.84992790222168 C15.975567817687988 17.84992790222168 15.224790573120117 17.25009536743164 14.400191307067871 17.25009536743164 C13.575592041015625 17.25009536743164 12.82481575012207 17.84992790222168 12.000216484069824 17.84992790222168 C11.999896049499512 17.84992790222168 9.600472450256348 17.25009536743164 9.600239753723145 17.25009536743164 C8.775640487670898 17.25009536743164 8.024864196777344 17.84992790222168 7.200263977050781 17.84992790222168 C7.199943542480469 17.84992790222168 4.800520896911621 17.25009536743164 4.800288200378418 17.25009536743164 C3.3263673782348633 17.25009536743164 2.742809772491455 17.935367584228516 1.200216293334961 17.550552368164062 L1.200216293334961 15.750622749328613 C2.7428107261657715 16.135438919067383 3.3263673782348633 15.450167655944824 4.800288200378418 15.450167655944824 C5.624887943267822 15.450167655944824 6.375664234161377 16.049999237060547 7.200263977050781 16.049999237060547 C8.024863243103027 16.049999237060547 8.775640487670898 15.450167655944824 9.600239753723145 15.450167655944824 C10.424839973449707 15.450167655944824 11.175616264343262 16.049999237060547 12.000216484069824 16.049999237060547 C12.82481575012207 16.049999237060547 13.575592041015625 15.450167655944824 14.400191307067871 15.450167655944824 C15.224790573120117 15.450167655944824 15.975567817687988 16.049999237060547 16.800167083740234 16.049999237060547 C17.624696731567383 16.049999237060547 18.375398635864258 15.450167655944824 19.199928283691406 15.450167655944824 C20.67449188232422 15.450167655944824 21.256820678710938 16.135770797729492 22.799999237060547 15.749975204467773 L22.799999237060547 15.749975204467773"></path>
<path fill="none" stroke="black" stroke-width=".3" stroke-opacity="1.0"  filling="0" d="M22.79978370666504 19.34983253479004 L22.79978370666504 21.149974822998047 C21.256601333618164 21.53577423095703 20.674280166625977 20.85016632080078 19.199710845947266 20.85016632080078 C18.375181198120117 20.85016632080078 17.624483108520508 21.450000762939453 16.79995346069336 21.450000762939453 C15.975353240966797 21.450000762939453 15.224576950073242 20.85016632080078 14.39997673034668 20.85016632080078 C13.575376510620117 20.85016632080078 12.824600219726562 21.450000762939453 12.0 21.450000762939453 C11.175399780273438 21.450000762939453 10.424623489379883 20.85016632080078 9.60002326965332 20.85016632080078 C8.775423049926758 20.85016632080078 8.02464771270752 21.450000762939453 7.200047969818115 21.450000762939453 C6.375448226928711 21.450000762939453 5.624671936035156 20.85016632080078 4.800072193145752 20.85016632080078 C3.3262367248535156 20.85016632080078 2.7426936626434326 21.535480499267578 1.200216293334961 21.150623321533203 L1.200216293334961 19.350479125976562 C2.7431206703186035 19.73565101623535 3.326089382171631 19.05002212524414 4.800288200378418 19.05002212524414 C5.624905586242676 19.05002212524414 6.375646591186523 19.65007209777832 7.200263977050781 19.65007209777832 C8.024881362915039 19.65007209777832 8.775622367858887 19.05002212524414 9.600239753723145 19.05002212524414 C10.424857139587402 19.05002212524414 11.175599098205566 19.65007209777832 12.000216484069824 19.65007209777832 C12.824832916259766 19.65007209777832 13.575573921203613 19.05002212524414 14.400191307067871 19.05002212524414 C15.224808692932129 19.05002212524414 15.975549697875977 19.65007209777832 16.800167083740234 19.65007209777832 C17.62471580505371 19.65007209777832 18.37537956237793 19.05002212524414 19.199928283691406 19.05002212524414 C20.674768447875977 19.05002212524414 21.256511688232422 19.73598289489746 22.799999237060547 19.34983253479004 L22.799999237060547 19.34983253479004"></path></svg>