<svg xmlns="http://www.w3.org/2000/svg" viewBox="0.0 0.0 24.0 24.0" height="200px" width="200px"><path fill="none" stroke="black" stroke-width=".3" stroke-opacity="1.0"  filling="0" d="M7.408649921417236 3.73531436920166 L7.408649921417236 3.73531436920166 C7.807899475097656 4.171191215515137 7.928588390350342 4.805314540863037 8.079354286193848 5.37685489654541 L8.079354286193848 5.37685489654541 C8.392757415771484 5.34622859954834 8.70727252960205 5.244562149047852 9.019564628601074 5.284976482391357 C9.631704330444336 5.364194393157959 10.929204940795898 5.548763751983643 10.67641830444336 6.111870765686035 C10.554449081420898 6.383567810058594 10.27049446105957 6.6124162673950195 9.978151321411133 6.6692609786987305 C9.217443466186523 6.8171772956848145 8.734498023986816 6.328373908996582 8.20185661315918 5.949553966522217 L8.20185661315918 5.949553966522217 C8.416994094848633 7.363313674926758 6.3416595458984375 8.457127571105957 5.4455389976501465 9.404139518737793 L5.4455389976501465 9.404139518737793 C5.433995246887207 8.02281379699707 5.424952507019043 7.708296298980713 4.0183796882629395 7.560469150543213 L4.0183796882629395 7.560469150543213 C4.113703727722168 6.743402481079102 3.996938705444336 4.700118541717529 4.722771644592285 4.047696113586426 C5.164780616760254 3.6503915786743164 7.228370666503906 3.740058422088623 7.408649444580078 3.73531436920166 L7.408649444580078 3.73531436920166"></path>
<path fill="none" stroke="black" stroke-width=".3" stroke-opacity="1.0"  filling="0" d="M19.64900016784668 5.032320976257324 L19.64900016784668 5.032320976257324 C21.299331665039062 5.24055290222168 21.40180015563965 6.94216251373291 21.4984130859375 8.358661651611328 C21.63420295715332 10.349546432495117 21.32817840576172 12.296485900878906 20.953012466430664 14.21867847442627 C20.577848434448242 16.140871047973633 20.133543014526367 18.038318634033203 19.992773056030273 19.930219650268555 L19.992773056030273 19.930219650268555 C19.46805191040039 19.93736457824707 18.94333267211914 19.94451141357422 18.418611526489258 19.951656341552734 L18.418611526489258 19.951656341552734 C18.627887725830078 19.715837478637695 18.837162017822266 19.48002052307129 19.046438217163086 19.24420166015625 L19.046438217163086 19.24420166015625 C18.98212432861328 19.210514068603516 18.91781234741211 19.17682456970215 18.853498458862305 19.143136978149414 L18.853498458862305 19.143136978149414 C19.636062622070312 18.094974517822266 19.983449935913086 16.800317764282227 19.9511661529541 15.512717247009277 C19.918882369995117 14.225118637084961 19.506927490234375 12.944576263427734 18.77080726623535 11.924646377563477 L18.77080726623535 11.924646377563477 C16.82439422607422 13.43960189819336 15.386937141418457 14.260903358459473 12.912100791931152 14.4573974609375 L12.912100791931152 14.4573974609375 C13.098594665527344 15.408114433288574 14.65365982055664 19.3814697265625 13.61649227142334 19.660715103149414 L13.61649227142334 19.660715103149414 C13.6364164352417 20.128936767578125 13.885948181152344 20.94721031188965 13.429675102233887 21.054183959960938 C12.880640983581543 21.182905197143555 12.302647590637207 21.09705924987793 11.739133834838867 21.118497848510742 L11.739133834838867 21.118497848510742 C13.457361221313477 18.805917739868164 12.385981559753418 16.71712875366211 10.991865158081055 14.515584945678711 L10.991865158081055 14.515584945678711 C10.400840759277344 14.675368309020996 9.79101848602295 14.802186012268066 9.178820610046387 14.809585571289062 L9.178820610046387 14.809585571289062 C9.197872161865234 16.276615142822266 8.838314056396484 17.663257598876953 8.973627090454102 19.130878448486328 L8.973627090454102 19.130878448486328 C8.383223533630371 19.391164779663086 8.607040405273438 19.88699722290039 8.60305404663086 20.542724609375 L8.60305404663086 20.542724609375 C8.068123817443848 20.563142776489258 7.533194065093994 20.583559036254883 6.998264312744141 20.60397720336914 L6.998264312744141 20.60397720336914 C8.015969276428223 18.53196144104004 8.238225936889648 16.70630645751953 7.943330764770508 14.910737991333008 C7.648435115814209 13.115169525146484 6.836387634277344 11.349687576293945 5.785484313964844 9.398015975952148 L5.785484313964844 9.398015975952148 C6.622422218322754 8.475132942199707 8.292250633239746 7.428076267242432 8.428487777709961 6.179249286651611 L8.428487777709961 6.179249286651611 C8.731682777404785 6.384440898895264 8.97269344329834 6.817833423614502 9.338071823120117 6.794824600219727 C9.90534782409668 6.759101390838623 10.352805137634277 6.28235387802124 10.860172271728516 6.026118755340576 L10.860172271728516 6.026118755340576 C10.790753364562988 5.8750319480896 10.721335411071777 5.723945140838623 10.65191650390625 5.5728583335876465 L10.65191650390625 5.5728583335876465 C12.213257789611816 5.683755874633789 13.691524505615234 5.599952697753906 15.164958000183105 5.462758541107178 C16.638391494750977 5.325564384460449 18.106990814208984 5.134979248046875 19.648998260498047 5.032312870025635 L19.648998260498047 5.032312870025635"></path>
<path fill="none" stroke="black" stroke-width=".3" stroke-opacity="1.0"  filling="0" d="M3.308627128601074 5.17395544052124 L3.308627128601074 5.17395544052124 C3.562565565109253 5.236482620239258 3.8165042400360107 5.299010276794434 4.0704426765441895 5.361537456512451 L4.0704426765441895 5.361537456512451 C3.9983913898468018 7.013901710510254 3.31411075592041 6.783833980560303 1.813323974609375 6.332374095916748 L1.813323974609375 6.332374095916748 C2.1939516067504883 5.678965091705322 2.395200252532959 5.27816104888916 3.308627128601074 5.173957824707031 L3.308627128601074 5.173957824707031"></path>
<path fill="none" stroke="black" stroke-width=".3" stroke-opacity="1.0"  filling="0" d="M6.304591178894043 5.779581069946289 L6.304591178894043 5.779581069946289 C8.652908325195312 6.64755916595459 5.344001293182373 8.08748722076416 5.130094051361084 7.202149391174316 C4.98455810546875 6.599792003631592 5.767323970794678 5.8424882888793945 6.304591178894043 5.779589653015137 L6.304591178894043 5.779589653015137"></path>
<path fill="none" stroke="black" stroke-width=".3" stroke-opacity="1.0"  filling="0" d="M21.187175750732422 5.833176136016846 L21.187175750732422 5.833176136016846 C22.45293426513672 8.06242561340332 21.749408721923828 9.903776168823242 21.913005828857422 12.26764965057373 C21.95965003967285 12.941614151000977 22.2956485748291 13.81726360321045 21.81500244140625 14.292009353637695 L21.81500244140625 14.292009353637695 C21.293899536132812 12.45307731628418 21.982685089111328 10.819639205932617 21.913005828857422 8.89268970489502 C21.87441062927246 7.825336456298828 21.500368118286133 6.839603424072266 21.187175750732422 5.833176136016846 L21.187175750732422 5.833176136016846"></path>
<path fill="none" stroke="black" stroke-width=".3" stroke-opacity="1.0"  filling="0" d="M14.535261154174805 6.206046104431152 L14.535261154174805 6.206046104431152 C15.503816604614258 6.667859077453613 18.153728485107422 7.26547384262085 16.11248779296875 8.448617935180664 L16.11248779296875 8.448617935180664 C14.790916442871094 8.781352043151855 13.419059753417969 8.604835510253906 13.928872108459473 6.987769603729248 L13.928872108459473 6.987769603729248 C13.486586570739746 6.752659797668457 13.058791160583496 6.490063190460205 12.639528274536133 6.21599817276001 L12.639528274536133 6.21599817276001 C13.27144718170166 6.21495246887207 13.908795356750488 6.288903713226318 14.535261154174805 6.2060627937316895 L14.535261154174805 6.2060627937316895"></path>
<path fill="none" stroke="black" stroke-width=".3" stroke-opacity="1.0"  filling="0" d="M11.540063858032227 7.343791484832764 L11.540063858032227 7.343791484832764 C14.95788860321045 7.502969741821289 10.718534469604492 10.034701347351074 10.679479598999023 10.773118019104004 C10.598190307617188 12.310043334960938 11.895586967468262 12.667078971862793 11.350183486938477 14.175639152526855 L11.350183486938477 14.175639152526855 C10.596271514892578 13.942286491394043 9.23723030090332 14.209477424621582 8.452988624572754 14.481897354125977 L8.452988624572754 14.481897354125977 C8.298358917236328 13.163259506225586 7.7477264404296875 12.131048202514648 7.133017539978027 10.95993709564209 C6.867977142333984 10.454996109008789 6.121896743774414 9.923413276672363 6.388813495635986 9.419462203979492 C6.729422092437744 8.776376724243164 7.842839241027832 7.685629367828369 8.520365715026855 7.4471635818481445 C8.88718032836914 7.318057537078857 9.211029052734375 7.840973854064941 9.595329284667969 7.900423526763916 C10.162432670593262 7.988152027130127 10.964946746826172 7.427772521972656 11.540063858032227 7.343799591064453 L11.540063858032227 7.343799591064453"></path>
<path fill="none" stroke="black" stroke-width=".3" stroke-opacity="1.0"  filling="0" d="M4.141646862030029 7.682965278625488 L4.141646862030029 7.682965278625488 C4.906980037689209 7.715992450714111 6.153311729431152 8.801275253295898 5.123969078063965 9.499079704284668 C4.584353923797607 9.86489200592041 3.8944506645202637 9.343754768371582 3.4824275970458984 9.146883964538574 L3.4824275970458984 9.146883964538574 C3.60395884513855 8.625701904296875 3.627336263656616 7.830909252166748 4.141646862030029 7.682973384857178 L4.141646862030029 7.682973384857178"></path>
<path fill="none" stroke="black" stroke-width=".3" stroke-opacity="1.0"  filling="0" d="M18.294570922851562 7.788632869720459 L18.294570922851562 7.788632869720459 C18.655494689941406 7.950425148010254 20.46132469177246 8.2301607131958 20.528722763061523 8.653810501098633 C20.64668846130371 9.395313262939453 19.828401565551758 9.678479194641113 19.609949111938477 10.231036186218262 C19.38353729248047 10.803726196289062 19.616596221923828 11.464751243591309 19.557886123657227 12.077768325805664 L19.557886123657227 12.077768325805664 C19.352693557739258 11.85420036315918 19.147499084472656 11.630632400512695 18.942306518554688 11.407064437866211 L18.942306518554688 11.407064437866211 C18.313640594482422 11.589579582214355 17.820199966430664 12.086690902709961 17.30076789855957 12.485091209411621 L17.30076789855957 12.485091209411621 C17.41472816467285 11.122537612915039 19.035160064697266 10.84119987487793 17.830591201782227 9.407201766967773 L17.830591201782227 9.407201766967773 C17.57346534729004 8.902242660522461 17.29305648803711 7.889836311340332 18.294570922851562 7.7886433601379395 L18.294570922851562 7.7886433601379395"></path>
<path fill="none" stroke="black" stroke-width=".3" stroke-opacity="1.0"  filling="0" d="M13.983232498168945 11.631396293640137 L13.983232498168945 11.631396293640137 C14.956941604614258 11.668990135192871 15.557648658752441 12.57165813446045 15.864419937133789 13.376298904418945 L15.864419937133789 13.376298904418945 C14.77266788482666 13.73523235321045 13.624516487121582 13.952740669250488 12.477211952209473 14.019441604614258 L12.477211952209473 14.019441604614258 C12.308834075927734 12.761865615844727 12.673980712890625 11.968704223632812 13.983232498168945 11.631396293640137 L13.983232498168945 11.631396293640137"></path>
<path fill="none" stroke="black" stroke-width=".3" stroke-opacity="1.0"  filling="0" d="M18.764678955078125 12.090019226074219 L18.764678955078125 12.090019226074219 C18.98110008239746 12.41771411895752 19.19752311706543 12.745409965515137 19.413944244384766 13.073104858398438 L19.413944244384766 13.073104858398438 C19.128103256225586 13.408967971801758 18.84226417541504 13.744831085205078 18.55642318725586 14.080694198608398 L18.55642318725586 14.080694198608398 C18.574798583984375 14.270573616027832 18.59317398071289 14.46045207977295 18.611549377441406 14.650331497192383 L18.611549377441406 14.650331497192383 C18.36246109008789 14.527828216552734 18.113370895385742 14.40532398223877 17.864282608032227 14.282820701599121 L17.864282608032227 14.282820701599121 C17.854074478149414 14.47474193572998 17.84386444091797 14.666664123535156 17.833656311035156 14.858585357666016 L17.833656311035156 14.858585357666016 C17.71319580078125 14.719748497009277 17.59273338317871 14.580912590026855 17.472272872924805 14.442075729370117 L17.472272872924805 14.442075729370117 C17.407958984375 14.602350234985352 17.343645095825195 14.762624740600586 17.27933120727539 14.92289924621582 L17.27933120727539 14.92289924621582 C17.26197624206543 14.796313285827637 17.24462127685547 14.66972827911377 17.227266311645508 14.543142318725586 L17.227266311645508 14.543142318725586 C16.93019676208496 14.314470291137695 16.63312530517578 14.085797309875488 16.336055755615234 13.857125282287598 L16.336055755615234 13.857125282287598 C17.16764259338379 13.299646377563477 17.98379135131836 12.716544151306152 18.764678955078125 12.090019226074219 L18.764678955078125 12.090019226074219"></path>
<path fill="none" stroke="black" stroke-width=".3" stroke-opacity="1.0"  filling="0" d="M19.521135330200195 13.302800178527832 L19.521135330200195 13.302800178527832 C19.873245239257812 15.16385269165039 19.69410514831543 16.70233154296875 19.19037628173828 18.533676147460938 L19.19037628173828 18.533676147460938 C19.01376724243164 18.50713348388672 18.837160110473633 18.480592727661133 18.660551071166992 18.454050064086914 L18.660551071166992 18.454050064086914 C19.63789176940918 16.931961059570312 19.766199111938477 15.460480690002441 19.15362548828125 13.7866849899292 L19.15362548828125 13.7866849899292 C19.2761287689209 13.62539005279541 19.398632049560547 13.464095115661621 19.521135330200195 13.302800178527832 L19.521135330200195 13.302800178527832"></path></svg>