<svg xmlns="http://www.w3.org/2000/svg" viewBox="0.0 0.0 24.0 24.0" height="200px" width="200px"><path fill="none" stroke="black" stroke-width=".3" stroke-opacity="1.0"  filling="0" d="M5.540748596191406 5.1749491691589355 L11.458378791809082 5.1749491691589355 C11.458378791809082 5.552887916564941 11.458378791809082 5.930826663970947 11.458378791809082 6.308765411376953 L5.540748596191406 6.308765411376953 C5.540748596191406 5.930826663970947 5.540748596191406 5.552887916564941 5.540748596191406 5.1749491691589355 L5.540748596191406 5.1749491691589355"></path>
<path fill="none" stroke="black" stroke-width=".3" stroke-opacity="1.0"  filling="0" d="M15.918645858764648 5.1749491691589355 L21.911706924438477 5.1749491691589355 C21.911706924438477 5.552887916564941 21.911706924438477 5.930826663970947 21.911706924438477 6.308765411376953 L15.918645858764648 6.308765411376953 C15.918645858764648 5.930826663970947 15.918645858764648 5.552887916564941 15.918645858764648 5.1749491691589355 L15.918645858764648 5.1749491691589355"></path>
<path fill="none" stroke="black" stroke-width=".3" stroke-opacity="1.0"  filling="0" d="M15.59488296508789 5.973980903625488 L11.847412109375 5.973980903625488 L11.847412109375 5.498711109161377 L15.59488296508789 5.498711109161377 L15.59488296508789 5.973980903625488"></path>
<path fill="none" stroke="black" stroke-width=".3" stroke-opacity="1.0"  filling="0" d="M3.5540847778320312 6.535269737243652 L3.5540847778320312 6.535269737243652 C4.106692314147949 6.7653398513793945 4.789714336395264 6.801145076751709 5.211907386779785 7.225480079650879 C6.658738613128662 8.679652214050293 5.612377166748047 11.23327922821045 3.5540847778320312 11.23327922821045 C1.4940707683563232 11.23327922821045 0.43228793144226074 8.68455982208252 1.8908319473266602 7.225480079650879 C2.3152012825012207 6.800954818725586 2.999667167663574 6.7653398513793945 3.5540847778320312 6.535269737243652 L3.5540847778320312 6.535269737243652"></path>
<path fill="none" stroke="black" stroke-width=".3" stroke-opacity="1.0"  filling="0" d="M14.179883003234863 8.101561546325684 L13.25139045715332 8.101561546325684 L13.25139045715332 5.909358024597168 L14.179883003234863 5.909358024597168 L14.179883003234863 8.101561546325684"></path>
<path fill="none" stroke="black" stroke-width=".3" stroke-opacity="1.0"  filling="0" d="M3.5540847778320312 10.380216598510742 L3.5540847778320312 10.380216598510742 C2.200129508972168 9.821269035339355 1.1667733192443848 7.388765335083008 3.5540847778320312 7.388765335083008 C5.930084228515625 7.388765335083008 4.897322654724121 9.82285213470459 3.5540847778320312 10.380216598510742 L3.5540847778320312 10.380216598510742"></path>
<path fill="none" stroke="black" stroke-width=".3" stroke-opacity="1.0"  filling="0" d="M15.788968086242676 11.546235084533691 L14.190905570983887 11.546235084533691 L14.190905570983887 8.976021766662598 L15.788968086242676 8.976021766662598 L15.788968086242676 11.546235084533691"></path>
<path fill="none" stroke="black" stroke-width=".3" stroke-opacity="1.0"  filling="0" d="M18.326980590820312 11.546235084533691 L16.73929214477539 11.546235084533691 L16.73929214477539 8.976021766662598 L18.326980590820312 8.976021766662598 L18.326980590820312 11.546235084533691"></path>
<path fill="none" stroke="black" stroke-width=".3" stroke-opacity="1.0"  filling="0" d="M19.29869842529297 11.557474136352539 L19.29869842529297 9.084518432617188 C19.737945556640625 9.51648998260498 20.17719268798828 9.948460578918457 20.616439819335938 10.38043212890625 L21.12348175048828 11.557474136352539 L19.29869842529297 11.557474136352539"></path>
<path fill="none" stroke="black" stroke-width=".3" stroke-opacity="1.0"  filling="0" d="M22.68998908996582 12.993439674377441 L22.68998908996582 12.993439674377441 C22.648771286010742 13.428058624267578 22.82344627380371 13.944469451904297 22.566335678100586 14.297296524047852 C22.299285888671875 14.663763999938965 21.74117088317871 14.673542022705078 21.328588485717773 14.861664772033691 L16.679746627807617 14.861664772033691 L12.030905723571777 14.861664772033691 C11.606066703796387 14.51600170135498 11.181228637695312 14.170337677001953 10.756389617919922 13.824674606323242 L10.15165901184082 12.313063621520996 L3.3161258697509766 9.592206954956055 C3.1461942195892334 9.294596672058105 2.7382256984710693 9.035248756408691 2.806330680847168 8.699376106262207 C2.875865936279297 8.356451034545898 3.3549749851226807 8.264955520629883 3.6292972564697266 8.047744750976562 L11.059187889099121 8.047744750976562 L18.489078521728516 8.047744750976562 C19.643619537353516 8.416424751281738 20.776575088500977 9.120094299316406 21.491119384765625 10.099031448364258 L22.68998908996582 12.993439674377441"></path>
<path fill="none" stroke="black" stroke-width=".3" stroke-opacity="1.0"  filling="0" d="M11.102197647094727 16.41714859008789 L16.29665756225586 16.41714859008789 L21.491119384765625 16.41714859008789 C21.927431106567383 16.81787109375 22.800052642822266 17.02690887451172 22.800052642822266 17.61931610107422 C22.800052642822266 18.212528228759766 21.927431106567383 18.423139572143555 21.491119384765625 18.825050354003906 L16.29665756225586 18.825050354003906 L11.102197647094727 18.825050354003906 C9.405189514160156 17.937837600708008 9.401569366455078 17.301538467407227 11.102197647094727 16.41714859008789 L11.102197647094727 16.41714859008789"></path></svg>