<svg xmlns="http://www.w3.org/2000/svg" viewBox="0.0 0.0 24.0 24.0" height="200px" width="200px"><path fill="none" stroke="black" stroke-width=".3" stroke-opacity="1.0"  filling="0" d="M12.0 4.501776218414307 L8.100011825561523 7.951727867126465 L4.200024127960205 11.401679992675781 L1.2000007629394531 11.401032447814941 L6.600000381469727 6.601404190063477 L12.0 1.8017759323120117 L15.29983139038086 4.7352728843688965 L15.29983139038086 2.702280044555664 L19.199928283691406 2.702280044555664 L19.199928283691406 8.201640129089355 L22.799999237060547 11.401032447814941 L19.799976348876953 11.401679992675781 L15.899988174438477 7.951727867126465 L12.0 4.501776218414307"></path>
<path fill="none" stroke="black" stroke-width=".3" stroke-opacity="1.0"  filling="0" d="M12.646919250488281 8.104007720947266 L12.646919250488281 8.104007720947266 C12.885527610778809 7.865543842315674 13.025402069091797 7.38861608505249 13.362743377685547 7.38861608505249 C14.115544319152832 7.38861608505249 14.518413543701172 8.820695877075195 13.362743377685547 8.820695877075195 C13.025096893310547 8.820695877075195 12.885527610778809 8.342904090881348 12.646919250488281 8.104007720947266 L12.646919250488281 8.104007720947266"></path>
<path fill="none" stroke="black" stroke-width=".3" stroke-opacity="1.0"  filling="0" d="M9.781895637512207 8.526504516601562 L9.781895637512207 8.526504516601562 C10.007472038269043 8.300496101379395 10.139305114746094 7.848480224609375 10.458623886108398 7.848480224609375 C11.526228904724121 7.848480224609375 11.197983741760254 9.204095840454102 10.458623886108398 9.204095840454102 C10.139408111572266 9.204095840454102 10.007472038269043 8.752367973327637 9.781895637512207 8.526504516601562 L9.781895637512207 8.526504516601562"></path>
<path fill="none" stroke="black" stroke-width=".3" stroke-opacity="1.0"  filling="0" d="M16.180896759033203 11.125200271606445 L16.180896759033203 11.125200271606445 C17.295913696289062 10.011707305908203 17.295913696289062 12.238692283630371 16.180896759033203 11.125200271606445 L16.180896759033203 11.125200271606445"></path>
<path fill="none" stroke="black" stroke-width=".3" stroke-opacity="1.0"  filling="0" d="M6.895055770874023 11.385263442993164 L6.895055770874023 11.385263442993164 C7.9505791664123535 10.331267356872559 7.95029354095459 12.439993858337402 6.895055770874023 11.385263442993164 L6.895055770874023 11.385263442993164"></path>
<path fill="none" stroke="black" stroke-width=".3" stroke-opacity="1.0"  filling="0" d="M15.250584602355957 12.143207550048828 L15.250584602355957 12.143207550048828 C14.789939880371094 11.661395072937012 14.648885726928711 10.638665199279785 14.448143005371094 10.013664245605469 L14.317680358886719 15.561840057373047 C14.120397567749023 15.758613586425781 13.678839683532715 15.758817672729492 13.481760025024414 15.561840057373047 L13.481760025024414 12.400032043457031 L13.243295669555664 12.400032043457031 L13.243295669555664 15.561840057373047 C13.046420097351074 15.758613586425781 12.60511589050293 15.758613586425781 12.40824031829834 15.561840057373047 L12.40824031829834 10.013664245605469 L12.169343948364258 10.013664245605469 L12.169343948364258 12.101303100585938 C12.028725624084473 12.242023468017578 11.713102340698242 12.242074012756348 11.572535514831543 12.101303100585938 L11.572535514831543 10.3335599899292 L11.36258316040039 10.3335599899292 L11.36258316040039 15.583656311035156 C11.176246643066406 15.770094871520996 10.758195877075195 15.77004337310791 10.571807861328125 15.583656311035156 L10.571807861328125 12.591839790344238 L10.346303939819336 12.591839790344238 L10.346303939819336 15.583656311035156 C10.160017967224121 15.769941329956055 9.742093086242676 15.770094871520996 9.555960655212402 15.583656311035156 L9.43240737915039 10.3335599899292 C9.212671279907227 11.016935348510742 9.16843032836914 11.82941722869873 8.672737121582031 12.348623275756836 L7.951079845428467 12.558359146118164 L7.951079845428467 15.702672004699707 C7.826855659484863 15.826488494873047 7.549026966094971 15.826590538024902 7.4249043464660645 15.702672004699707 L7.4249043464660645 14.132135391235352 L7.219056129455566 14.132135391235352 L7.219056129455566 15.702672004699707 C7.094372749328613 15.826742172241211 6.816102027893066 15.826691627502441 6.691368103027344 15.702672004699707 L6.691368103027344 12.765287399291992 L6.488760471343994 13.759967803955078 C6.397067070007324 13.852065086364746 6.189908504486084 13.852723121643066 6.098880290985107 13.759967803955078 L6.098880290985107 12.628128051757812 C6.297600269317627 12.436896324157715 6.4963202476501465 12.2456636428833 6.695040225982666 12.054431915283203 L7.903560161590576 12.054431915283203 C8.034527778625488 12.042623519897461 8.165495872497559 12.030815124511719 8.296463966369629 12.019006729125977 L8.296463966369629 12.019006729125977 C8.652429580688477 10.910439491271973 8.57093620300293 9.888404846191406 9.668928146362305 9.429815292358398 L11.36258316040039 9.429815292358398 C11.465975761413574 9.44932746887207 11.569367408752441 9.468839645385742 11.672760009765625 9.488351821899414 L11.672760009765625 9.488351821899414 C11.917991638183594 9.345144271850586 12.163223266601562 9.201935768127441 12.408454895019531 9.058728218078613 L14.197799682617188 9.058728218078613 C15.357226371765137 9.543457984924316 15.271798133850098 10.624279022216797 15.648456573486328 11.794584274291992 L15.648456573486328 11.794584274291992 C15.78662395477295 11.807040214538574 15.924792289733887 11.819496154785156 16.062959671020508 11.831952095031738 L17.339519500732422 11.831952095031738 C17.549470901489258 12.034055709838867 17.759424209594727 12.236160278320312 17.969375610351562 12.438263893127441 L17.969375610351562 13.634038925170898 C17.873510360717773 13.732134819030762 17.654428482055664 13.731477737426758 17.55789566040039 13.634038925170898 L17.55789566040039 12.583199501037598 L17.3436222076416 12.583199501037598 L17.3436222076416 15.68690299987793 C17.211915969848633 15.817694664001465 16.91797637939453 15.818203926086426 16.78677749633789 15.68690299987793 L16.78677749633789 14.027376174926758 L16.56839942932129 14.027376174926758 L16.56839942932129 15.686687469482422 C16.437301635742188 15.817785263061523 16.143550872802734 15.817530632019043 16.01219940185547 15.686687469482422 L16.01219940185547 12.364392280578613 L15.250584602355957 12.143207550048828"></path>
<path fill="none" stroke="black" stroke-width=".3" stroke-opacity="1.0"  filling="0" d="M19.571447372436523 12.80027961730957 L19.571447372436523 12.80027961730957 C19.80371856689453 13.032551765441895 20.03598976135254 13.264823913574219 20.268260955810547 13.497096061706543 L20.268260955810547 17.204734802246094 C20.096254348754883 17.669424057006836 19.924245834350586 18.134111404418945 19.752239227294922 18.598800659179688 L17.440391540527344 21.054290771484375 C17.345279693603516 21.28641700744629 17.250165939331055 21.518545150756836 17.155054092407227 21.75067138671875 L17.155054092407227 22.198223114013672 L14.638871192932129 22.198223114013672 L14.636063575744629 21.134855270385742 C14.79417610168457 20.642230987548828 14.952287673950195 20.149606704711914 15.110400199890137 19.656982421875 L18.04368019104004 16.711606979370117 C18.656944274902344 16.46554946899414 19.087709426879883 16.835132598876953 18.854328155517578 17.473224639892578 L17.439525604248047 18.989543914794922 C17.267240524291992 19.286333084106445 17.107345581054688 19.606718063354492 17.060232162475586 19.946640014648438 L17.514694213867188 19.946640014648438 C17.54331398010254 19.728496551513672 17.64100456237793 19.52130126953125 17.74884033203125 19.32952880859375 L19.185455322265625 17.753591537475586 C19.389211654663086 17.267757415771484 19.16508674621582 16.64188575744629 18.87117576599121 16.20465660095215 L18.87117576599121 13.497096061706543 C19.104598999023438 13.264823913574219 19.338024139404297 13.032551765441895 19.571447372436523 12.80027961730957 L19.571447372436523 12.80027961730957"></path>
<path fill="none" stroke="black" stroke-width=".3" stroke-opacity="1.0"  filling="0" d="M5.8951921463012695 16.71139144897461 L8.828688621520996 19.656982421875 C8.986512184143066 20.149606704711914 9.144335746765137 20.642230987548828 9.302159309387207 21.134855270385742 L9.299783706665039 22.198223114013672 L6.782952308654785 22.198223114013672 L6.782952308654785 21.75067138671875 C6.687912464141846 21.518327713012695 6.592872142791748 21.285982131958008 6.497832298278809 21.053638458251953 L4.186201095581055 18.598800659179688 C4.014193058013916 18.134111404418945 3.8421847820281982 17.669424057006836 3.6701765060424805 17.204734802246094 L3.6701765060424805 13.497096061706543 C3.902160406112671 13.264823913574219 4.0378499031066895 12.80027961730957 4.366128444671631 12.80027961730957 C4.695732593536377 12.80027961730957 4.8338398933410645 13.264823913574219 5.067695617675781 13.497096061706543 L5.067695617675781 16.20444107055664 C4.773613929748535 16.6416072845459 4.549127578735352 17.267444610595703 4.752767562866211 17.753376007080078 L6.189600467681885 19.329744338989258 C6.297545909881592 19.521270751953125 6.395285129547119 19.728391647338867 6.42352819442749 19.946422576904297 L6.878424167633057 19.946422576904297 C6.831323146820068 19.60659408569336 6.671546936035156 19.286273956298828 6.499344348907471 18.989543914794922 L5.084328651428223 17.473655700683594 C4.849857330322266 16.835330963134766 5.281618118286133 16.46554946899414 5.8951921463012695 16.71139144897461 L5.8951921463012695 16.71139144897461"></path></svg>