<svg xmlns="http://www.w3.org/2000/svg" viewBox="0.0 0.0 24.0 24.0" height="200px" width="200px"><path fill="none" stroke="black" stroke-width=".3" stroke-opacity="1.0"  filling="0" d="M171.16500854492188 11.027999877929688 L171.16500854492188 11.027999877929688 C173.2962646484375 11.396873474121094 175.50323486328125 12.76186466217041 177.4986572265625 14.452642440795898 C179.49407958984375 16.14341926574707 181.27793884277344 18.159982681274414 182.56298828125 19.831998825073242 C183.20066833496094 20.661693572998047 185.0808868408203 22.513185501098633 185.12400817871094 23.637001037597656 C185.16127014160156 24.608394622802734 183.87371826171875 25.61944580078125 183.33963012695312 26.148216247558594 C182.1667022705078 27.30947494506836 181.0291748046875 28.50141143798828 179.89456176757812 29.695161819458008 C178.75994873046875 30.888912200927734 177.62826538085938 32.08448028564453 176.4669952392578 33.25300216674805 C175.460693359375 34.26558303833008 174.55690002441406 35.37006378173828 173.648681640625 36.477394104003906 C172.740478515625 37.58472442626953 171.8278350830078 38.69490051269531 170.80386352539062 39.718875885009766 C169.25860595703125 41.26413345336914 167.70376586914062 42.80184555053711 166.14743041992188 44.33919143676758 C164.59109497070312 45.87653350830078 163.03326416015625 47.413509368896484 161.4820556640625 48.9572868347168 C159.93084716796875 50.50106430053711 158.38626098632812 52.0516471862793 156.85638427734375 53.616207122802734 C155.32650756835938 55.18076705932617 153.81134033203125 56.759307861328125 152.31900024414062 58.35900115966797 C151.20606994628906 59.5519905090332 150.0139617919922 60.66560745239258 148.81585693359375 61.77376937866211 C147.61773681640625 62.881935119628906 146.41360473632812 63.984649658203125 145.27664184570312 65.15583038330078 C143.72323608398438 66.75597381591797 142.17100524902344 68.35702514648438 140.6181640625 69.95751190185547 C139.06532287597656 71.55799102783203 137.5118865966797 73.15790557861328 135.95608520507812 74.75575256347656 C134.40029907226562 76.35360717773438 132.84214782714844 77.94940185546875 131.27989196777344 79.54166412353516 C129.71763610839844 81.13391876220703 128.15126037597656 82.72264099121094 126.57903289794922 84.30633544921875 C124.91199493408203 85.98552703857422 123.24446105957031 87.66421508789062 121.57650756835938 89.34249877929688 C119.90855407714844 91.0207748413086 118.24019622802734 92.69864654541016 116.5715103149414 94.37619018554688 C114.90282440185547 96.0537338256836 113.23381805419922 97.73096466064453 111.5645751953125 99.407958984375 C109.89533233642578 101.08495330810547 108.22586059570312 102.76171112060547 106.55624389648438 104.4383316040039 C104.88662719726562 106.11494445800781 103.21686553955078 107.79141998291016 101.54705047607422 109.46784210205078 C99.87723541259766 111.14425659179688 98.20735931396484 112.82062530517578 96.53752136230469 114.49702453613281 C94.86768341064453 116.17342376708984 93.19788360595703 117.849853515625 91.5281982421875 119.52641296386719 C89.8585205078125 121.20297241210938 88.18896484375 122.87964630126953 86.51962280273438 124.5565414428711 C84.85028076171875 126.23343658447266 83.18115234375 127.91053771972656 81.51232147216797 129.58795166015625 C79.84349060058594 131.26535034179688 78.17497253417969 132.9430694580078 76.5068359375 134.6211700439453 C74.83870697021484 136.2992706298828 73.17096710205078 137.97775268554688 71.50370788574219 139.65673828125 C70.01313018798828 141.1577911376953 68.50849151611328 142.6409912109375 66.99699401855469 144.11558532714844 C65.4854965209961 145.5901641845703 63.96713638305664 147.05612182617188 62.44913101196289 148.5226593017578 C60.93112564086914 149.98919677734375 59.41346740722656 151.45632934570312 57.90337371826172 152.93324279785156 C56.5005989074707 154.30520629882812 55.14675521850586 155.83004760742188 53.756980895996094 157.31344604492188 C52.36720657348633 158.79685974121094 50.941497802734375 160.2388153076172 49.39500045776367 161.4449920654297 C48.881038665771484 161.84585571289062 48.10105895996094 161.72116088867188 47.53200149536133 162.03900146484375 C46.46961212158203 162.63238525390625 45.671226501464844 163.64263916015625 44.58899688720703 164.19900512695312 C43.18916320800781 164.91864013671875 41.850772857666016 165.51858520507812 40.533721923828125 166.1680145263672 C39.216670989990234 166.81744384765625 37.92095947265625 167.51638793945312 36.60649871826172 168.4340057373047 C34.82978057861328 169.67433166503906 33.05054473876953 170.91104125976562 31.271005630493164 172.1472930908203 C29.491464614868164 173.38356018066406 27.711620330810547 174.619384765625 25.933685302734375 175.8579559326172 C24.335529327392578 176.97128295898438 22.28789710998535 179.07135009765625 20.410499572753906 179.62950134277344 C18.72405433654785 180.13088989257812 15.873283386230469 177.17837524414062 16.12762451171875 175.515380859375 C16.352445602416992 174.04541015625 18.111948013305664 172.24229431152344 18.90625 171.05137634277344 C20.012588500976562 169.39260864257812 21.123857498168945 167.73715209960938 22.235124588012695 166.08169555664062 C23.346393585205078 164.4262237548828 24.457660675048828 162.77076721191406 25.56399917602539 161.1120147705078 C26.280181884765625 160.03823852539062 27.09475326538086 158.95291137695312 27.87186622619629 157.84619140625 C28.64898109436035 156.73947143554688 29.388641357421875 155.61135864257812 29.954999923706055 154.45199584960938 C30.402027130126953 153.5369110107422 30.194618225097656 152.4097900390625 30.548999786376953 151.4550018310547 C31.166748046875 149.7906494140625 32.966129302978516 148.9604949951172 33.73500061035156 147.40501403808594 C34.13876724243164 146.58816528320312 34.142093658447266 145.57546997070312 34.68000030517578 144.83999633789062 C35.84648895263672 143.24508666992188 37.288822174072266 141.79702758789062 38.78376770019531 140.39559936523438 C40.27871322631836 138.9941864013672 41.826271057128906 137.639404296875 43.20321273803711 136.2310333251953 C44.79686737060547 134.60101318359375 46.397579193115234 132.9777069091797 48.00281524658203 131.35874938964844 C49.60805130004883 129.7397918701172 51.21781539916992 128.12518310546875 52.82958221435547 126.51254272460938 C54.44134521484375 124.89990234375 56.05511474609375 123.28924560546875 57.668357849121094 121.6781997680664 C59.2816047668457 120.06714630126953 60.894325256347656 118.45570373535156 62.50400161743164 116.84150695800781 C64.17683410644531 115.16397094726562 65.8493423461914 113.48612213134766 67.52156829833984 111.8079833984375 C69.19379425048828 110.12985229492188 70.86573028564453 108.45143127441406 72.53741455078125 106.77277374267578 C74.20909881591797 105.09410858154297 75.88053131103516 103.41519927978516 77.55175018310547 101.736083984375 C79.22296905517578 100.05696105957031 80.89397430419922 98.37763214111328 82.56480407714844 96.69812774658203 C84.23563385009766 95.01862335205078 85.90628051757812 93.33893585205078 87.57678985595703 91.65911865234375 C89.24729919433594 89.97929382324219 90.91766357421875 88.29933166503906 92.58792114257812 86.61927032470703 C94.2581787109375 84.93920135498047 95.92833709716797 83.259033203125 97.59842681884766 81.57879638671875 C99.26851654052734 79.8985595703125 100.93852996826172 78.21825408935547 102.6085205078125 76.53791046142578 C104.27850341796875 74.85757446289062 105.9484634399414 73.17720031738281 107.61841583251953 71.49683380126953 C109.28837585449219 69.81646728515625 110.95833587646484 68.13609313964844 112.62834167480469 66.45577239990234 C114.29834747314453 64.77544403076172 115.96839141845703 63.09515380859375 117.63851165771484 61.41493606567383 C119.30863189697266 59.73472213745117 120.97882843017578 58.05458068847656 122.64913940429688 56.374549865722656 C124.31945037841797 54.69451904296875 125.9898681640625 53.01459503173828 127.66044616699219 51.33481979370117 C129.41168212890625 49.57394027709961 131.16305541992188 47.813201904296875 132.914306640625 46.05234146118164 C134.66555786132812 44.291481018066406 136.4167022705078 42.53049850463867 138.16744995117188 40.76913833618164 C139.91819763183594 39.007774353027344 141.66856384277344 37.24603271484375 143.4182891845703 35.483646392822266 C145.16799926757812 33.72126007080078 146.91708374023438 31.958234786987305 148.6652374267578 30.194305419921875 C149.72373962402344 29.126253128051758 150.78269958496094 28.058650970458984 151.84051513671875 26.989919662475586 C152.89833068847656 25.921188354492188 153.95498657226562 24.85132598876953 155.00888061523438 23.778751373291016 C155.102294921875 23.68368148803711 157.04830932617188 21.70047378540039 157.1790008544922 21.638999938964844 C158.33270263671875 21.096342086791992 159.80581665039062 21.42096519470215 160.90501403808594 20.774999618530273 C162.00234985351562 20.130130767822266 162.70289611816406 18.972782135009766 163.61300659179688 18.08300018310547 C164.8287353515625 16.894420623779297 166.016357421875 15.614574432373047 167.25022888183594 14.389921188354492 C168.48410034179688 13.165268898010254 169.76422119140625 11.995809555053711 171.16500854492188 11.027999877929688 L171.16500854492188 11.027999877929688"></path>
<path fill="none" stroke="black" stroke-width=".3" stroke-opacity="1.0"  filling="0" d="M166.22401428222656 18.533998489379883 L166.22401428222656 18.533998489379883 C167.17105102539062 17.647174835205078 168.0849609375 16.730173110961914 169.0037841796875 15.818379402160645 C169.922607421875 14.906584739685059 170.84634399414062 13.99999713897705 171.81300354003906 13.133999824523926 L171.81300354003906 13.133999824523926 C173.2686767578125 13.931256294250488 174.66476440429688 14.805194854736328 175.95401000976562 15.808975219726562 C177.24325561523438 16.812755584716797 178.4256591796875 17.94637680053711 179.45401000976562 19.26300048828125 L179.45401000976562 19.26300048828125 C177.87051391601562 20.78084945678711 176.31944274902344 22.330778121948242 174.758544921875 23.870405197143555 C173.1976318359375 25.410030364990234 171.6268768310547 26.939355850219727 170.00401306152344 28.416000366210938 L170.00401306152344 28.416000366210938 C168.7752685546875 27.310832977294922 167.5216064453125 26.278453826904297 166.25021362304688 25.272432327270508 C164.97882080078125 24.26641082763672 163.68968200683594 23.286745071411133 162.38999938964844 22.286998748779297 L162.38999938964844 22.286998748779297 C163.60362243652344 20.948768615722656 164.89254760742188 19.75383758544922 166.22401428222656 18.533998489379883 L166.22401428222656 18.533998489379883"></path>
<path fill="none" stroke="black" stroke-width=".3" stroke-opacity="1.0"  filling="0" d="M178.72499084472656 22.665000915527344 L178.72499084472656 22.665000915527344 C179.42117309570312 21.973323822021484 180.1520538330078 21.31495475769043 180.9119873046875 20.694000244140625 L180.9119873046875 20.694000244140625 C181.6829833984375 21.67237663269043 182.43910217285156 22.66265106201172 183.1800079345703 23.663997650146484 L183.1800079345703 23.663997650146484 C182.0523681640625 24.828826904296875 180.91615295410156 25.978910446166992 179.78807067871094 27.136871337890625 C178.66000366210938 28.294830322265625 177.54006958007812 29.46066665649414 176.44500732421875 30.656999588012695 C176.1623077392578 30.965839385986328 174.71859741210938 32.644287109375 174.24301147460938 32.76300048828125 C173.6087188720703 32.921329498291016 171.67112731933594 30.49128532409668 171.5970001220703 30.036001205444336 C171.4816436767578 29.327516555786133 173.2825164794922 27.8847713470459 173.4381866455078 27.735815048217773 C175.20252990722656 26.04754638671875 176.97109985351562 24.364171981811523 178.72499084472656 22.665000915527344 L178.72499084472656 22.665000915527344"></path>
<path fill="none" stroke="black" stroke-width=".3" stroke-opacity="1.0"  filling="0" d="M157.82699584960938 23.906999588012695 L157.82699584960938 23.906999588012695 C159.5856475830078 22.981409072875977 161.8105926513672 24.247400283813477 163.3619842529297 25.364999771118164 C165.16976928710938 26.667312622070312 166.81973266601562 28.121784210205078 168.3740234375 29.68444061279297 C169.9282989501953 31.247098922729492 171.38690185546875 32.91794204711914 172.81199645996094 34.65299987792969 L172.81199645996094 34.65299987792969 C171.54678344726562 35.97101593017578 170.265869140625 37.27281951904297 168.97647094726562 38.56621170043945 C167.6870574951172 39.8596076965332 166.38916015625 41.14459991455078 165.08999633789062 42.42900085449219 L165.08999633789062 42.42900085449219 C164.5226287841797 40.53062057495117 163.99441528320312 38.30625534057617 163.2733154296875 36.144683837890625 C162.55221557617188 33.98310852050781 161.63824462890625 31.88433074951172 160.29937744140625 30.23712158203125 C158.9604949951172 28.589914321899414 157.19671630859375 27.39427947998047 154.7760009765625 27.038997650146484 L154.7760009765625 27.038997650146484 C155.7809295654297 25.982580184936523 156.80349731445312 24.94540023803711 157.82699584960938 23.906999588012695 L157.82699584960938 23.906999588012695"></path>
<path fill="none" stroke="black" stroke-width=".3" stroke-opacity="1.0"  filling="0" d="M150.45599365234375 31.35900115966797 L150.45599365234375 31.35900115966797 C152.4474639892578 30.370607376098633 154.14341735839844 30.62252426147461 155.5636749267578 31.5666561126709 C156.9839324951172 32.51078796386719 158.1284942626953 34.147132873535156 159.01718139648438 35.92759704589844 C159.90585327148438 37.70806121826172 160.53866577148438 39.63264465332031 160.9353790283203 41.15324783325195 C161.23556518554688 42.303836822509766 162.43817138671875 44.62322235107422 161.80274963378906 45.80062484741211 C161.31607055664062 46.70241928100586 160.35302734375 47.24930953979492 159.62991333007812 47.97538757324219 C158.45494079589844 49.15517807006836 157.28048706054688 50.33547592163086 156.1063232421875 51.516056060791016 C154.93214416503906 52.69663619995117 153.75827026367188 53.877498626708984 152.5844268798828 55.05842208862305 C150.86940002441406 56.78379821777344 149.1674346923828 58.5318603515625 147.46640014648438 60.285343170166016 C145.76535034179688 62.038822174072266 144.06521606445312 63.797725677490234 142.3538055419922 65.54479217529297 C140.6424102783203 67.29185485839844 138.9197540283203 69.0270767211914 137.17367553710938 70.73320007324219 C135.42759704589844 72.43932342529297 133.6580810546875 74.11634826660156 131.85299682617188 75.74700164794922 L131.85299682617188 75.74700164794922 C132.9205780029297 74.32026672363281 134.10546875 72.80616760253906 135.22547912597656 71.2166519165039 C136.3455047607422 69.62712860107422 137.40066528320312 67.96218872070312 138.20880126953125 66.2337646484375 C139.01693725585938 64.50534057617188 139.57806396484375 62.713443756103516 139.7100067138672 60.87000274658203 C139.8395538330078 59.060081481933594 140.18280029296875 56.66774368286133 138.6719970703125 55.340999603271484 C136.85752868652344 53.74757766723633 134.0164031982422 54.360206604003906 131.9739990234375 55.05099868774414 C130.0969696044922 55.685855865478516 128.20115661621094 56.629493713378906 126.36553192138672 57.7700309753418 C124.5299072265625 58.91056823730469 122.75447082519531 60.248008728027344 121.11821746826172 61.67046356201172 C119.48196411132812 63.092918395996094 117.98489379882812 64.60039520263672 116.70599365234375 66.08100128173828 L116.70599365234375 66.08100128173828 C118.35163116455078 65.06978607177734 119.90663146972656 63.92694854736328 121.44873046875 62.76742172241211 C122.99082946777344 61.60789489746094 124.5200424194336 60.431678771972656 126.11408996582031 59.353702545166016 C127.70814514160156 58.275726318359375 129.36703491210938 57.295989990234375 131.16851806640625 56.5294303894043 C133.0944061279297 55.70992660522461 136.1124725341797 54.5428581237793 137.9550018310547 56.2597541809082 C139.4467010498047 57.649742126464844 139.4923858642578 59.62314224243164 138.98341369628906 61.59113311767578 C138.4744415283203 63.559120178222656 137.41079711914062 65.52169799804688 136.68386840820312 66.89002227783203 C135.61343383789062 68.9049072265625 134.4210968017578 70.86892700195312 133.12860107421875 72.77616882324219 C131.83609008789062 74.68340301513672 130.44342041015625 76.53385162353516 128.97235107421875 78.32158660888672 C127.50126647949219 80.10932159423828 125.9517822265625 81.83434295654297 124.34564208984375 83.49072265625 C122.73949432373047 85.14710235595703 121.07669830322266 86.73483276367188 119.37899780273438 88.24800109863281 L119.37899780273438 88.24800109863281 C120.51033020019531 86.93243408203125 121.6460952758789 85.61965942382812 122.77437591552734 84.30044555664062 C123.90265655517578 82.98123168945312 125.02345275878906 81.65557098388672 126.12486267089844 80.31423950195312 C127.22627258300781 78.97291564941406 128.30828857421875 77.61590576171875 129.35899353027344 76.23400115966797 C130.44203186035156 74.8095703125 131.41717529296875 73.34850311279297 132.35748291015625 71.866943359375 C133.2978057861328 70.38539123535156 134.20327758789062 68.88335418701172 135.14700317382812 67.37699890136719 C136.06344604492188 65.91416931152344 136.89817810058594 64.72366333007812 137.36122131347656 63.0204963684082 C137.90882873535156 61.00626754760742 138.4538116455078 58.04449462890625 136.1999969482422 56.81999969482422 C134.45828247070312 55.87372970581055 131.68601989746094 57.31640625 130.15118408203125 58.04718780517578 C127.94818115234375 59.096107482910156 125.87631225585938 60.382266998291016 123.885986328125 61.79096984863281 C121.89564514160156 63.199668884277344 119.98684692382812 64.73091125488281 118.10999298095703 66.27000427246094 C116.23320770263672 67.80903625488281 114.36807250976562 69.38593292236328 112.52083587646484 70.9989013671875 C110.67359924316406 72.61187744140625 108.8442611694336 74.26091766357422 107.03907012939453 75.94424438476562 C105.23387908935547 77.62757110595703 103.45284271240234 79.34518432617188 101.70220947265625 81.09527587890625 C99.95156860351562 82.84537506103516 98.23133087158203 84.62796020507812 96.54774475097656 86.44123840332031 C94.8641586303711 88.25452423095703 93.21722412109375 90.09850311279297 91.61318969726562 91.97138214111328 C90.0091552734375 93.84426879882812 88.44802856445312 95.74604797363281 86.93605041503906 97.67494201660156 C85.424072265625 99.60384368896484 83.96124267578125 101.55984497070312 82.5538101196289 103.54117584228516 C81.31971740722656 105.27848815917969 80.03082275390625 107.11392211914062 78.90690612792969 109.03433990478516 C77.78298950195312 110.95475769042969 76.82403564453125 112.96015930175781 76.24984741210938 115.03740692138672 C75.88579559326172 116.35444641113281 75.31756591796875 118.67765808105469 76.34099578857422 119.91899871826172 C77.24484252929688 121.01528930664062 78.62454986572266 121.13468933105469 80.01994323730469 120.85619354248047 C81.41533660888672 120.57769775390625 82.826416015625 119.90130615234375 83.79299926757812 119.40599060058594 C85.80963134765625 118.37258911132812 87.64616394042969 117.11969757080078 89.40848541259766 115.77828216552734 C91.17080688476562 114.43685913085938 92.85892486572266 113.00690460205078 94.5787124633789 111.61937713623047 C96.29850769042969 110.23184204101562 98.04997253417969 108.88673400878906 99.93900299072266 107.71500396728516 L99.93900299072266 107.71500396728516 C98.49250030517578 109.5296401977539 96.9163818359375 111.09597778320312 95.23226165771484 112.53728485107422 C93.54813385009766 113.97859191894531 91.75601196289062 115.29487609863281 89.87748718261719 116.6093978881836 C88.67050170898438 117.4540023803711 87.461669921875 118.31841278076172 86.2085952758789 119.10609436035156 C84.95552062988281 119.8937759399414 83.658203125 120.604736328125 82.27425384521484 121.1424331665039 C80.93975830078125 121.66091918945312 79.25629425048828 122.16104888916016 77.79769897460938 122.05094146728516 C76.339111328125 121.94082641601562 75.10539245605469 121.22047424316406 74.67037963867188 119.2979965209961 C74.52538299560547 118.65719604492188 74.6021499633789 117.98078918457031 74.66700744628906 117.32699584960938 C74.84115600585938 115.57147216796875 75.4608154296875 113.82051849365234 76.26676177978516 112.14387512207031 C77.07271575927734 110.46723175048828 78.06495666503906 108.86489868164062 78.98426055908203 107.40662384033203 C80.07817840576172 105.67137145996094 81.25184631347656 103.99063110351562 82.47747802734375 102.34723663330078 C83.70310974121094 100.70384216308594 84.98069763183594 99.0977783203125 86.282470703125 97.51187896728516 C87.58423614501953 95.92597961425781 88.91017150878906 94.36024475097656 90.23249816894531 92.79750061035156 C91.3627700805664 91.46172332763672 92.88980865478516 90.47500610351562 93.94499969482422 89.11200714111328 C95.05291748046875 87.68089294433594 96.23297119140625 86.31536865234375 97.4562759399414 84.98844146728516 C98.67958068847656 83.66151428222656 99.94613647460938 82.37318420410156 101.22705078125 81.09644317626953 C102.50796508789062 79.8197021484375 103.80323791503906 78.55455017089844 105.08399963378906 77.27400207519531 C106.18241882324219 76.17575073242188 107.24305725097656 74.97379302978516 108.31914520263672 73.791748046875 C109.39523315429688 72.60971069335938 110.48677825927734 71.44758605957031 111.64700317382812 70.42900085449219 C112.78862762451172 69.42675018310547 113.53336334228516 69.44450378417969 114.5459976196289 68.24774932861328 C114.9510726928711 67.76902770996094 115.10913848876953 67.11843872070312 115.49099731445312 66.62100219726562 C116.53718566894531 65.25816345214844 117.72160339355469 63.95455551147461 118.9702377319336 62.6862907409668 C120.2188720703125 61.41802978515625 121.53170776367188 60.18510818481445 122.83473205566406 58.9636344909668 C124.13774871826172 57.74216079711914 125.43095397949219 56.532135009765625 126.64031219482422 55.30966567993164 C128.2239227294922 53.70888137817383 129.80865478515625 52.10921096801758 131.3943328857422 50.510475158691406 C132.98001098632812 48.91173553466797 134.56661987304688 47.313934326171875 136.15399169921875 45.71688461303711 C137.74136352539062 44.119834899902344 139.32949829101562 42.52354431152344 140.918212890625 40.927825927734375 C142.50692749023438 39.33210754394531 144.09622192382812 37.73696517944336 145.6859130859375 36.1422233581543 C147.27560424804688 34.54747772216797 148.86569213867188 32.95313262939453 150.45599365234375 31.35900115966797 L150.45599365234375 31.35900115966797"></path>
<path fill="none" stroke="black" stroke-width=".3" stroke-opacity="1.0"  filling="0" d="M81.9840087890625 100.07400512695312 L81.9840087890625 100.07400512695312 C83.7220458984375 98.30554962158203 85.57898712158203 96.67137908935547 87.35700225830078 94.94400024414062 L87.35700225830078 94.94400024414062 C86.17648315429688 96.4037094116211 84.94861602783203 97.8775634765625 83.72987365722656 99.37911987304688 C82.51113891601562 100.88067626953125 81.30152893066406 102.4099349975586 80.15755462646484 103.98046112060547 C79.0135726928711 105.55098724365234 77.93521118164062 107.16278076171875 76.97897338867188 108.82939147949219 C76.0227279663086 110.49600982666016 75.1885986328125 112.21745300292969 74.5330810546875 114.00729370117188 C74.112060546875 115.1568374633789 73.77397918701172 116.35879516601562 73.66908264160156 117.58468627929688 C73.6165542602539 118.19854736328125 73.57920837402344 118.82331848144531 73.66799926757812 119.43299102783203 C74.0797348022461 122.26002502441406 75.90298461914062 123.11111450195312 78.02992248535156 123.03765106201172 C80.1568603515625 122.96418762207031 82.58749389648438 121.96617126464844 84.21399688720703 121.09500122070312 C86.41324615478516 119.91706085205078 88.49341583251953 118.51396942138672 90.62400817871094 117.21900177001953 L90.62400817871094 117.21900177001953 C89.3800048828125 118.7094955444336 88.06562805175781 120.14486694335938 86.71410369873047 121.54926300048828 C85.36257934570312 122.95366668701172 83.97391510009766 124.32709503173828 82.58133697509766 125.6937026977539 C81.18875122070312 127.06031036376953 79.79225158691406 128.4200897216797 78.42506408691406 129.7971954345703 C76.73320007324219 131.50132751464844 75.0423583984375 133.2064666748047 73.35124206542969 134.9113311767578 C71.66012573242188 136.61619567871094 69.96874237060547 138.32077026367188 68.27578735351562 140.0238037109375 C66.58283996582031 141.72683715820312 64.8883285522461 143.4282989501953 63.19095993041992 145.12692260742188 C61.49359130859375 146.82554626464844 59.793365478515625 148.52133178710938 58.0890007019043 150.21299743652344 L58.0890007019043 150.21299743652344 C55.83291244506836 149.82391357421875 53.601112365722656 149.24298095703125 51.592342376708984 148.36375427246094 C49.58357238769531 147.48452758789062 47.79783248901367 146.3070068359375 46.433860778808594 144.72470092773438 C45.06989288330078 143.14239501953125 44.12769317626953 141.15533447265625 43.80600357055664 138.65701293945312 L43.80600357055664 138.65701293945312 C45.12000274658203 136.9761505126953 46.57708740234375 135.37200927734375 48.10313415527344 133.81211853027344 C49.629180908203125 132.25222778320312 51.22418975830078 130.73660278320312 52.81404495239258 129.2327423095703 C54.40389633178711 127.7288818359375 55.98859405517578 126.23678588867188 57.4940071105957 124.7239990234375 C59.12800979614258 123.08199310302734 60.76182556152344 121.43980407714844 62.39540481567383 119.79737854003906 C64.02898406982422 118.15495300292969 65.6623306274414 116.51229095458984 67.29539489746094 114.86935424804688 C68.92845916748047 113.22640991210938 70.56123352050781 111.58319091796875 72.19367980957031 109.93963623046875 C73.82612609863281 108.29608154296875 75.45824432373047 106.65220642089844 77.08998107910156 105.00794982910156 C78.72171783447266 103.36369323730469 80.35307312011719 101.71906280517578 81.9840087890625 100.07400512695312 L81.9840087890625 100.07400512695312"></path>
<path fill="none" stroke="black" stroke-width=".3" stroke-opacity="1.0"  filling="0" d="M36.624000549316406 146.00099182128906 L36.624000549316406 146.00099182128906 C37.99214172363281 144.6328582763672 39.35091018676758 143.2561492919922 40.727996826171875 141.89700317382812 L40.727996826171875 141.89700317382812 C41.09666061401367 144.24368286132812 42.081111907958984 146.1748504638672 43.467674255371094 147.7458038330078 C44.85424041748047 149.31675720214844 46.642913818359375 150.52748107910156 48.62002944946289 151.43325805664062 C50.59714126586914 152.3390350341797 52.76268768310547 152.93984985351562 54.90299606323242 153.29100036621094 L54.90299606323242 153.29100036621094 C53.88999938964844 154.2586669921875 52.895355224609375 155.2436065673828 51.908782958984375 156.2366485595703 C50.922210693359375 157.2296905517578 49.94371032714844 158.23085021972656 48.96299743652344 159.23098754882812 L48.96299743652344 159.23098754882812 C47.30575180053711 158.02688598632812 45.75591278076172 156.72531127929688 44.301490783691406 155.33511352539062 C42.847068786621094 153.94491577148438 41.488059997558594 152.466064453125 40.21247482299805 150.90744018554688 C38.9368896484375 149.34881591796875 37.744728088378906 147.71038818359375 36.624000549316406 146.00099182128906 L36.624000549316406 146.00099182128906"></path>
<path fill="none" stroke="black" stroke-width=".3" stroke-opacity="1.0"  filling="0" d="M35.57099914550781 148.34999084472656 L35.57099914550781 148.34999084472656 C36.750457763671875 149.8034210205078 37.90668487548828 151.21652221679688 39.08675765991211 152.5861358642578 C40.26683044433594 153.95574951171875 41.47075653076172 155.28187561035156 42.745601654052734 156.5614013671875 C44.020450592041016 157.84091186523438 45.3662223815918 159.07382202148438 46.82999801635742 160.25698852539062 L46.82999801635742 160.25698852539062 C45.741573333740234 161.20904541015625 45.07774353027344 161.9066162109375 43.77899932861328 162.57901000976562 C42.21672058105469 163.38783264160156 40.52117919921875 163.63580322265625 39.0 164.57699584960938 C37.37203598022461 165.58425903320312 35.778472900390625 166.6490936279297 34.20344543457031 167.74488830566406 C32.628414154052734 168.8406982421875 31.071916580200195 169.9674835205078 29.518077850341797 171.09866333007812 C27.9642391204834 172.2298583984375 26.413061141967773 173.36544799804688 24.848670959472656 174.47885131835938 C23.284282684326172 175.59226989746094 21.706680297851562 176.68350219726562 20.099998474121094 177.7259979248047 L20.099998474121094 177.7259979248047 C19.67249870300293 177.34237670898438 19.07854461669922 177.08676147460938 18.817501068115234 176.5751190185547 C17.891117095947266 174.7593994140625 21.082881927490234 171.55284118652344 22.002656936645508 170.17190551757812 C23.089885711669922 168.53956604003906 24.180191040039062 166.90928649902344 25.270496368408203 165.27899169921875 C26.360803604125977 163.64871215820312 27.45111083984375 162.0184326171875 28.538345336914062 160.38607788085938 C29.584945678710938 158.8147430419922 30.96783447265625 157.1756591796875 31.791000366210938 155.47801208496094 C32.29926300048828 154.42979431152344 32.0538330078125 153.1385955810547 32.46600341796875 152.04901123046875 C32.94219970703125 150.79017639160156 34.7047119140625 149.3688201904297 35.57099914550781 148.34999084472656 L35.57099914550781 148.34999084472656"></path>
<path fill="none" stroke="black" stroke-width=".3" stroke-opacity="1.0"  filling="0" d="M35.652000427246094 160.33799743652344 L35.652000427246094 160.33799743652344 C38.790771484375 160.0605010986328 35.91910171508789 162.6192626953125 34.97699737548828 163.4969940185547 C33.471309661865234 164.89979553222656 32.009098052978516 166.41757202148438 30.503536224365234 167.88214111328125 C28.99797821044922 169.34671020507812 27.44906997680664 170.75807189941406 25.76999855041504 171.94801330566406 L25.76999855041504 171.94801330566406 C25.454999923706055 171.72300720214844 24.82950210571289 171.66009521484375 24.825000762939453 171.27301025390625 C24.81285858154297 170.22866821289062 26.560754776000977 168.86024475097656 27.15337562561035 168.3024444580078 C28.567033767700195 166.97183227539062 29.976770401000977 165.6373748779297 31.390552520751953 164.3072509765625 C32.8043327331543 162.97711181640625 34.22216033935547 161.65130615234375 35.652000427246094 160.33799743652344 L35.652000427246094 160.33799743652344"></path></svg>