<svg xmlns="http://www.w3.org/2000/svg" viewBox="0.0 0.0 24.0 24.0" height="200px" width="200px"><path fill="none" stroke="black" stroke-width=".3" stroke-opacity="1.0"  filling="0" d="M12.704626083374023 3.686751365661621 L12.704626083374023 3.686751365661621 C12.002639770507812 3.6350550651550293 11.297496795654297 3.6158413887023926 10.593742370605469 3.6294803619384766 L10.593742370605469 3.6294803619384766 C10.597378730773926 3.1626672744750977 10.601014137268066 2.6958541870117188 10.604650497436523 2.22904109954834 L10.604650497436523 2.22904109954834 C12.502628326416016 1.6591076850891113 12.685731887817383 2.0203194618225098 12.704623222351074 3.686753273010254 L12.704623222351074 3.686753273010254"></path>
<path fill="none" stroke="black" stroke-width=".3" stroke-opacity="1.0"  filling="0" d="M12.785058975219727 3.8762950897216797 L12.785058975219727 3.8762950897216797 C12.780064582824707 4.026747703552246 12.775069236755371 4.177200794219971 12.770074844360352 4.327653408050537 L12.770074844360352 4.327653408050537 C12.36546802520752 4.2914628982543945 9.367276191711426 4.3825578689575195 11.271452903747559 4.431288719177246 C11.770593643188477 4.44406270980835 12.268715858459473 4.4831061363220215 12.76734733581543 4.509015083312988 L12.76734733581543 4.509015083312988 C12.768714904785156 4.675831317901611 12.7700834274292 4.842648029327393 12.771450996398926 5.009464263916016 L12.771450996398926 5.009464263916016 C12.165507316589355 4.969221115112305 11.093609809875488 4.787867069244385 10.531021118164062 5.0421905517578125 L10.531021118164062 5.0421905517578125 C10.536025047302246 4.958555221557617 10.541029930114746 4.874919414520264 10.54603385925293 4.791284084320068 L10.54603385925293 4.791284084320068 C10.806694030761719 4.89384126663208 10.920546531677246 4.5778374671936035 10.54603385925293 4.629013538360596 L10.54603385925293 4.629013538360596 C10.551946640014648 4.355834484100342 10.557859420776367 4.082655906677246 10.563772201538086 3.809476852416992 L10.563772201538086 3.809476852416992 C11.304410934448242 3.794947624206543 12.046683311462402 3.817283868789673 12.785110473632812 3.8762950897216797 L12.785110473632812 3.8762950897216797"></path>
<path fill="none" stroke="black" stroke-width=".3" stroke-opacity="1.0"  filling="0" d="M11.5452241897583 4.740148544311523 L11.5452241897583 4.740148544311523 C11.545221328735352 4.740150451660156 11.545212745666504 4.740145206451416 11.54521369934082 4.740148544311523 L11.54521369934082 4.740148544311523"></path>
<path fill="none" stroke="black" stroke-width=".3" stroke-opacity="1.0"  filling="0" d="M12.608168601989746 4.780716419219971 L12.608168601989746 4.780716419219971 C12.608163833618164 4.78071928024292 12.608152389526367 4.7807111740112305 12.608153343200684 4.780716419219971 L12.608153343200684 4.780716419219971"></path>
<path fill="none" stroke="black" stroke-width=".3" stroke-opacity="1.0"  filling="0" d="M12.945258140563965 4.857761383056641 L12.945258140563965 4.857761383056641 C12.900541305541992 6.820066928863525 12.938127517700195 8.791717529296875 12.940192222595215 10.75952434539795 C12.942256927490234 12.727331161499023 12.908798217773438 14.691293716430664 12.721993446350098 16.63822364807129 C12.535187721252441 18.585153579711914 12.19503402709961 20.51504898071289 11.583707809448242 22.414722442626953 L11.583707809448242 22.414722442626953 C11.255611419677734 22.001237869262695 11.080270767211914 20.30013084411621 10.971443176269531 19.77475357055664 C10.588811874389648 17.927562713623047 10.43490219116211 16.131296157836914 10.37468433380127 14.324520111083984 C10.31446647644043 12.517745971679688 10.347942352294922 10.700462341308594 10.340082168579102 8.811239242553711 C10.336334228515625 7.9104323387146 9.975212097167969 5.734928607940674 10.454641342163086 5.072190284729004 L10.454641342163086 5.072190284729004 C10.420555114746094 4.975177764892578 10.404292106628418 4.844507217407227 10.468276023864746 4.764012336730957 L10.468276023864746 4.764012336730957 C10.422210693359375 4.633656978607178 10.438191413879395 4.480632305145264 10.48190975189209 4.349471569061279 L10.48190975189209 4.349471569061279 C10.289588928222656 4.130099296569824 10.431034088134766 3.901683807373047 10.435550689697266 3.6608428955078125 C10.44481372833252 3.166844367980957 10.19521427154541 2.6102800369262695 10.435550689697266 2.178586959838867 C10.728118896484375 1.6530749797821045 12.631094932556152 1.6302857398986816 12.8546142578125 2.223586082458496 C13.103363037109375 2.883854866027832 12.912338256835938 4.1104583740234375 12.945284843444824 4.857761383056641 L12.945284843444824 4.857761383056641"></path>
<path fill="none" stroke="black" stroke-width=".3" stroke-opacity="1.0"  filling="0" d="M12.771450996398926 5.194916248321533 L12.771450996398926 5.194916248321533 C12.769633293151855 5.244915962219238 12.767815589904785 5.294915199279785 12.765997886657715 5.34491491317749 L12.765997886657715 5.34491491317749 C12.02333927154541 5.317224979400635 11.278107643127441 5.295703887939453 10.53647518157959 5.343550682067871 L10.53647518157959 5.343550682067871 C10.535566329956055 5.269460678100586 10.534656524658203 5.195370674133301 10.533747673034668 5.121280670166016 L10.533747673034668 5.121280670166016 C11.273638725280762 5.193084716796875 12.027229309082031 5.156642913818359 12.771450996398926 5.19491720199585 L12.771450996398926 5.19491720199585"></path>
<path fill="none" stroke="black" stroke-width=".3" stroke-opacity="1.0"  filling="0" d="M12.772801399230957 5.5249128341674805 L12.772801399230957 5.5249128341674805 C12.767797470092773 5.974907875061035 12.762792587280273 6.424902439117432 12.75778865814209 6.874897480010986 L12.75778865814209 6.874897480010986 C12.007465362548828 6.858042240142822 11.256550788879395 6.819987773895264 10.506451606750488 6.84489631652832 L10.506451606750488 6.84489631652832 C10.51281452178955 6.48490047454834 10.519176483154297 6.124904632568359 10.52553939819336 5.764908790588379 L10.52553939819336 5.764908790588379 C10.596704483032227 7.910475730895996 10.870776176452637 5.712410926818848 10.530994415283203 5.6653642654418945 L10.530994415283203 5.6653642654418945 C10.53236198425293 5.604001045227051 10.533729553222656 5.542638301849365 10.535097122192383 5.4812750816345215 L10.535097122192383 5.4812750816345215 C11.281094551086426 5.472987651824951 12.027052879333496 5.503953456878662 12.772801399230957 5.524910926818848 L12.772801399230957 5.524910926818848"></path>
<path fill="none" stroke="black" stroke-width=".3" stroke-opacity="1.0"  filling="0" d="M11.096924781799316 5.653092861175537 L11.096924781799316 5.653092861175537 C11.060754776000977 7.477129936218262 10.796796798706055 6.279942035675049 10.975563049316406 5.623093605041504 L10.975563049316406 5.623093605041504 C11.016016960144043 5.633093357086182 11.05647087097168 5.643093109130859 11.096924781799316 5.653092861175537 L11.096924781799316 5.653092861175537"></path>
<path fill="none" stroke="black" stroke-width=".3" stroke-opacity="1.0"  filling="0" d="M12.473867416381836 5.686501979827881 L12.473867416381836 5.686501979827881 C12.43351936340332 6.001718044281006 12.470763206481934 6.348089694976807 12.434660911560059 6.671717643737793 L12.434660911560059 6.671717643737793 C12.113126754760742 6.550248146057129 12.185256958007812 5.346535682678223 12.473840713500977 5.686501979827881 L12.473840713500977 5.686501979827881"></path>
<path fill="none" stroke="black" stroke-width=".3" stroke-opacity="1.0"  filling="0" d="M11.837394714355469 5.692637920379639 L11.837394714355469 5.692637920379639 C11.771734237670898 8.228811264038086 11.52236557006836 5.3890838623046875 11.837369918823242 5.692637920379639 L11.837369918823242 5.692637920379639"></path>
<path fill="none" stroke="black" stroke-width=".3" stroke-opacity="1.0"  filling="0" d="M11.483251571655273 5.788093090057373 L11.483251571655273 5.788093090057373 C11.472784996032715 6.081825256347656 11.622864723205566 6.470280647277832 11.403824806213379 6.66626501083374 C11.050827026367188 6.982108116149902 11.471759796142578 5.125101566314697 11.483170509338379 5.78809118270874 L11.483170509338379 5.78809118270874"></path>
<path fill="none" stroke="black" stroke-width=".3" stroke-opacity="1.0"  filling="0" d="M12.741437911987305 5.835123538970947 L12.741437911987305 5.835123538970947 C12.731176376342773 6.115906238555908 12.89560317993164 6.536460876464844 12.650077819824219 6.673068523406982 C12.330930709838867 6.850638389587402 12.72070598602295 5.0525946617126465 12.741454124450684 5.835136890411377 L12.741454124450684 5.835136890411377"></path>
<path fill="none" stroke="black" stroke-width=".3" stroke-opacity="1.0"  filling="0" d="M12.22566032409668 6.571151256561279 L12.22566032409668 6.571151256561279 C11.807197570800781 7.00424861907959 12.108678817749023 5.4460039138793945 12.171454429626465 5.688547134399414 C12.24531078338623 5.973899841308594 12.182692527770996 6.279544353485107 12.225662231445312 6.571151256561279 L12.225662231445312 6.571151256561279"></path>
<path fill="none" stroke="black" stroke-width=".3" stroke-opacity="1.0"  filling="0" d="M12.75916576385498 7.052168369293213 L12.75916576385498 7.052168369293213 C12.75734806060791 7.1098952293396 12.755529403686523 7.167621612548828 12.753711700439453 7.225348472595215 L12.753711700439453 7.225348472595215 C12.003707885742188 7.231649398803711 11.25574779510498 7.160624980926514 10.506807327270508 7.212736129760742 L10.506807327270508 7.212736129760742 C10.507616996765137 7.142850399017334 10.508427619934082 7.072964668273926 10.509237289428711 7.003078937530518 L10.509237289428711 7.003078937530518 C11.259146690368652 7.022858142852783 12.009153366088867 7.039219379425049 12.759211540222168 7.052169322967529 L12.759211540222168 7.052169322967529"></path>
<path fill="none" stroke="black" stroke-width=".3" stroke-opacity="1.0"  filling="0" d="M12.750985145568848 7.406709671020508 L12.750985145568848 7.406709671020508 C12.74553108215332 7.448981761932373 12.740077018737793 7.491253852844238 12.734622955322266 7.5335259437561035 L12.734622955322266 7.5335259437561035 C11.982512474060059 7.596940040588379 11.245593070983887 7.592587471008301 10.49146842956543 7.573056697845459 L10.49146842956543 7.573056697845459 C10.496580123901367 7.4532856941223145 10.501692771911621 7.333514213562012 10.506804466247559 7.213743209838867 L10.506804466247559 7.213743209838867 C10.649267196655273 7.492711544036865 12.501334190368652 7.399352550506592 12.750982284545898 7.406695365905762 L12.750982284545898 7.406695365905762"></path>
<path fill="none" stroke="black" stroke-width=".3" stroke-opacity="1.0"  filling="0" d="M12.744181632995605 7.720343112945557 L12.744181632995605 7.923521995544434 C12.119656562805176 7.957826614379883 11.05194091796875 7.788623332977295 10.491479873657227 7.973976135253906 L10.491479873657227 7.973976135253906 C10.49193000793457 7.873522758483887 10.492380142211914 7.773068904876709 10.492830276489258 7.6726155281066895 L10.492830276489258 7.6726155281066895 C10.766898155212402 7.765647888183594 11.067111015319824 7.749063491821289 11.356000900268555 7.766705513000488 L11.356000900268555 7.766705513000488 C11.43212604522705 7.835694313049316 11.598869323730469 7.8419189453125 11.664178848266602 7.762614727020264 L11.664178848266602 7.762614727020264 C12.024444580078125 7.760457515716553 12.385551452636719 7.754848957061768 12.74416732788086 7.720343589782715 L12.74416732788086 7.720343589782715"></path>
<path fill="none" stroke="black" stroke-width=".3" stroke-opacity="1.0"  filling="0" d="M12.744181632995605 8.103519439697266 L12.744181632995605 8.606696128845215 C11.98964786529541 8.633001327514648 11.23261833190918 8.656880378723145 10.479206085205078 8.608059883117676 L10.479206085205078 8.608059883117676 C10.48375129699707 8.41442584991455 10.488295555114746 8.220791816711426 10.492840766906738 8.0271577835083 L10.492840766906738 8.0271577835083 C11.07981014251709 8.2944917678833 12.123777389526367 8.133111000061035 12.744178771972656 8.103521347045898 L12.744178771972656 8.103521347045898"></path>
<path fill="none" stroke="black" stroke-width=".3" stroke-opacity="1.0"  filling="0" d="M12.716911315917969 8.796238899230957 L12.716911315917969 12.956646919250488 C12.706319808959961 14.119132995605469 12.827005386352539 15.398569107055664 12.641900062561035 16.547061920166016 L12.641900062561035 16.547061920166016 C12.077897071838379 15.619928359985352 11.998515129089355 14.234153747558594 12.059771537780762 12.80794620513916 C12.121027946472168 11.381738662719727 12.32292366027832 9.91510009765625 12.321474075317383 8.826239585876465 L12.321474075317383 8.826239585876465 C12.453290939331055 8.816239356994629 12.585107803344727 8.806239128112793 12.716924667358398 8.796238899230957 L12.716924667358398 8.796238899230957"></path>
<path fill="none" stroke="black" stroke-width=".3" stroke-opacity="1.0"  filling="0" d="M12.144868850708008 9.60895824432373 L12.144868850708008 9.60895824432373 C12.109533309936523 11.746708869934082 12.135418891906738 13.885422706604004 12.125103950500488 16.02342987060547 L12.125103950500488 16.02342987060547 C11.946015357971191 16.178882598876953 11.766926765441895 16.334335327148438 11.587838172912598 16.489788055419922 L11.587838172912598 16.489788055419922 C11.185500144958496 16.100811004638672 11.158456802368164 15.42532730102539 11.162388801574707 14.865716934204102 L11.162388801574707 8.839875221252441 C11.489657402038574 8.83487606048584 11.816926956176758 8.829876899719238 12.144195556640625 8.824877738952637 L12.144195556640625 8.824877738952637 C12.144465446472168 9.086237907409668 12.144735336303711 9.347599029541016 12.145005226135254 9.608959197998047 L12.144868850708008 9.60895824432373"></path>
<path fill="none" stroke="black" stroke-width=".3" stroke-opacity="1.0"  filling="0" d="M10.986470222473145 15.779341697692871 L10.986470222473145 15.779341697692871 C10.93369197845459 16.106054306030273 10.682249069213867 16.368764877319336 10.498294830322266 16.643878936767578 L10.498294830322266 16.643878936767578 C10.501471519470215 16.246610641479492 10.504648208618164 15.84934139251709 10.507824897766113 15.452073097229004 L10.507824897766113 11.361209869384766 C10.51749038696289 10.505807876586914 10.522031784057617 9.6503324508667 10.521459579467773 8.794876098632812 L10.521459579467773 8.794876098632812 C10.676003456115723 8.805330276489258 10.830546379089355 8.81578540802002 10.985090255737305 8.826239585876465 L10.985090255737305 8.826239585876465 C10.985625267028809 11.143939971923828 10.984893798828125 13.461641311645508 10.986440658569336 15.779341697692871 L10.986440658569336 15.779341697692871"></path>
<path fill="none" stroke="black" stroke-width=".3" stroke-opacity="1.0"  filling="0" d="M12.603724479675293 16.732511520385742 L12.603724479675293 16.732511520385742 C12.374006271362305 17.88473892211914 12.142190933227539 19.036548614501953 11.90827751159668 20.187931060791016 L11.90827751159668 20.187931060791016 C11.85236930847168 20.132476806640625 11.79646110534668 20.0770206451416 11.74055290222168 20.02156639099121 L11.74055290222168 20.02156639099121 C11.596009254455566 20.205656051635742 11.45146656036377 20.38974380493164 11.306922912597656 20.573833465576172 L11.306922912597656 20.573833465576172 C10.995508193969727 19.060640335083008 10.145217895507812 17.539955139160156 11.01101303100586 16.16933822631836 L11.01101303100586 16.16933822631836 C11.195900917053223 16.35422706604004 11.325281143188477 16.674516677856445 11.585098266601562 16.703876495361328 C11.855982780456543 16.734487533569336 12.011103630065918 16.363422393798828 12.217817306518555 16.185701370239258 L12.217817306518555 16.185701370239258 C12.331158638000488 16.37785530090332 12.453540802001953 16.567541122436523 12.603721618652344 16.732511520385742 L12.603721618652344 16.732511520385742"></path></svg>