<svg xmlns="http://www.w3.org/2000/svg" viewBox="0.0 0.0 24.0 24.0" height="200px" width="200px"><path fill="none" stroke="black" stroke-width=".3" stroke-opacity="1.0"  filling="0" d="M14.10127067565918 12.636070251464844 L14.10127067565918 12.636070251464844 C13.98914909362793 12.527570724487305 14.21384048461914 12.485716819763184 14.10127067565918 12.636070251464844 L14.10127067565918 12.636070251464844"></path>
<path fill="none" stroke="black" stroke-width=".3" stroke-opacity="1.0"  filling="0" d="M14.10127067565918 12.636070251464844 L14.10127067565918 12.636070251464844 C13.989113807678223 12.52758502960205 14.213807106018066 12.485706329345703 14.10127067565918 12.636070251464844 L14.10127067565918 12.636070251464844"></path>
<path fill="none" stroke="black" stroke-width=".3" stroke-opacity="1.0"  filling="0" d="M13.710708618164062 12.828548431396484 L13.710708618164062 12.828548431396484 C15.11857795715332 13.005616188049316 14.06688117980957 12.953965187072754 13.368407249450684 12.864089965820312 L13.368407249450684 12.864089965820312 C14.04576301574707 12.797600746154785 13.955135345458984 12.44996166229248 14.153884887695312 11.938060760498047 L14.153884887695312 11.938060760498047 C14.320735931396484 12.278329849243164 14.059630393981934 12.587553024291992 14.402642250061035 12.632387161254883 L14.402642250061035 12.632387161254883 C14.171998023986816 12.697773933410645 13.941352844238281 12.763161659240723 13.710708618164062 12.828548431396484 L13.710708618164062 12.828548431396484"></path>
<path fill="none" stroke="black" stroke-width=".3" stroke-opacity="1.0"  filling="0" d="M13.710708618164062 12.828548431396484 L13.710708618164062 12.828548431396484 C15.11857795715332 13.005616188049316 14.06688117980957 12.953965187072754 13.368407249450684 12.864089965820312 L13.368407249450684 12.864089965820312 C14.04576301574707 12.797600746154785 13.955135345458984 12.44996166229248 14.153884887695312 11.938060760498047 L14.153884887695312 11.938060760498047 C14.320735931396484 12.278329849243164 14.059630393981934 12.587553024291992 14.402642250061035 12.632387161254883 L14.402642250061035 12.632387161254883 C14.171998023986816 12.697773933410645 13.941352844238281 12.763161659240723 13.710708618164062 12.828548431396484 L13.710708618164062 12.828548431396484"></path>
<path fill="none" stroke="black" stroke-width=".3" stroke-opacity="1.0"  filling="0" d="M13.297469139099121 12.955531120300293 L13.297469139099121 12.955531120300293 C13.959244728088379 12.90774154663086 15.46815299987793 13.179987907409668 13.297469139099121 12.955531120300293 L13.297469139099121 12.955531120300293"></path>
<path fill="none" stroke="black" stroke-width=".3" stroke-opacity="1.0"  filling="0" d="M13.297469139099121 12.955531120300293 L13.297469139099121 12.955531120300293 C13.959256172180176 12.907743453979492 15.46819019317627 13.179987907409668 13.297469139099121 12.955531120300293 L13.297469139099121 12.955531120300293"></path>
<path fill="none" stroke="black" stroke-width=".3" stroke-opacity="1.0"  filling="0" d="M13.222412109375 13.132768630981445 L13.222412109375 13.132768630981445 C13.793261528015137 13.114954948425293 15.325969696044922 13.403421401977539 13.222412109375 13.132768630981445 L13.222412109375 13.132768630981445"></path>
<path fill="none" stroke="black" stroke-width=".3" stroke-opacity="1.0"  filling="0" d="M13.222412109375 13.132768630981445 L13.222412109375 13.132768630981445 C13.79325008392334 13.114953994750977 15.325935363769531 13.403422355651855 13.222412109375 13.132768630981445 L13.222412109375 13.132768630981445"></path>
<path fill="none" stroke="black" stroke-width=".3" stroke-opacity="1.0"  filling="0" d="M14.33852481842041 13.155138969421387 L14.33852481842041 13.155138969421387 C13.986214637756348 13.117183685302734 13.633903503417969 13.079229354858398 13.281593322753906 13.041274070739746 L13.281593322753906 13.041274070739746 C13.633903503417969 13.079229354858398 13.986214637756348 13.117183685302734 14.33852481842041 13.155138969421387 L14.33852481842041 13.155138969421387"></path>
<path fill="none" stroke="black" stroke-width=".3" stroke-opacity="1.0"  filling="0" d="M14.33852481842041 13.155138969421387 L14.33852481842041 13.155138969421387 C13.986214637756348 13.117183685302734 13.633903503417969 13.079229354858398 13.281593322753906 13.041274070739746 L13.281593322753906 13.041274070739746 C13.633903503417969 13.079229354858398 13.986214637756348 13.117183685302734 14.33852481842041 13.155138969421387 L14.33852481842041 13.155138969421387"></path>
<path fill="none" stroke="black" stroke-width=".3" stroke-opacity="1.0"  filling="0" d="M13.17106819152832 13.229506492614746 L13.17106819152832 13.229506492614746 C14.418563842773438 13.214259147644043 14.34032917022705 13.23519229888916 13.17106819152832 13.229506492614746 L13.17106819152832 13.229506492614746"></path>
<path fill="none" stroke="black" stroke-width=".3" stroke-opacity="1.0"  filling="0" d="M13.17106819152832 13.229506492614746 L13.17106819152832 13.229506492614746 C14.418563842773438 13.214259147644043 14.34032917022705 13.23519229888916 13.17106819152832 13.229506492614746 L13.17106819152832 13.229506492614746"></path></svg>