<svg xmlns="http://www.w3.org/2000/svg" viewBox="0.0 0.0 24.0 24.0" height="200px" width="200px"><path fill="none" stroke="black" stroke-width=".3" stroke-opacity="1.0"  filling="0" d="M21.239185333251953 11.337743759155273 L21.239185333251953 11.337743759155273 C21.31336784362793 12.25735092163086 19.592304229736328 12.743241310119629 19.440336227416992 11.454168319702148 C19.312007904052734 10.365623474121094 21.148101806640625 10.021501541137695 21.239185333251953 11.337743759155273 L21.239185333251953 11.337743759155273"></path>
<path fill="none" stroke="black" stroke-width=".3" stroke-opacity="1.0"  filling="0" d="M20.965728759765625 11.345952033996582 L20.965728759765625 11.345952033996582 C20.965728759765625 12.105072021484375 19.704349517822266 12.189373970031738 19.706878662109375 11.344223976135254 C19.709409713745117 10.498214721679688 20.965728759765625 10.591376304626465 20.965728759765625 11.345952033996582 L20.965728759765625 11.345952033996582"></path>
<path fill="none" stroke="black" stroke-width=".3" stroke-opacity="1.0"  filling="0" d="M9.384023666381836 11.974943161010742 L9.384023666381836 11.974943161010742 C8.430395126342773 11.216475486755371 8.912542343139648 10.389571189880371 9.970680236816406 11.123688697814941 L9.516216278076172 11.292383193969727 C9.465858459472656 11.352387428283691 9.447993278503418 11.449495315551758 9.473665237426758 11.523504257202148 L9.802632331848145 11.812512397766113 C9.66309642791748 11.866656303405762 9.5235595703125 11.920799255371094 9.384023666381836 11.974943161010742 L9.384023666381836 11.974943161010742"></path>
<path fill="none" stroke="black" stroke-width=".3" stroke-opacity="1.0"  filling="0" d="M14.852928161621094 11.974943161010742 L14.852928161621094 11.974943161010742 C13.900802612304688 11.216329574584961 14.380359649658203 10.38881778717041 15.439584732055664 11.123688697814941 L14.985335350036621 11.292167663574219 C14.934977531433105 11.352171897888184 14.917112350463867 11.449278831481934 14.942784309387207 11.523287773132324 L15.27175235748291 11.812080383300781 C15.1321439743042 11.866368293762207 14.992536544799805 11.920655250549316 14.852928161621094 11.974943161010742 L14.852928161621094 11.974943161010742"></path>
<path fill="none" stroke="black" stroke-width=".3" stroke-opacity="1.0"  filling="0" d="M18.288623809814453 12.524016380310059 L18.099191665649414 11.713800430297852 C18.021615982055664 11.665645599365234 17.880630493164062 11.698461532592773 17.83243179321289 11.776008605957031 L18.030719757080078 12.624239921569824 C17.95800018310547 12.632736206054688 17.88528060913086 12.641231536865234 17.81256103515625 12.649727821350098 L15.75623893737793 12.649727821350098 L15.75623893737793 11.93498420715332 C15.740687370300293 11.900712013244629 15.725136756896973 11.866439819335938 15.709585189819336 11.832167625427246 L15.295944213867188 11.468855857849121 L17.833513259887695 10.647407531738281 C18.16039276123047 10.98098373413086 18.704078674316406 11.194255828857422 18.814151763916016 11.6481351852417 C18.894397735595703 11.979024887084961 18.46380043029785 12.2320556640625 18.288623809814453 12.524016380310059 L18.288623809814453 12.524016380310059"></path>
<path fill="none" stroke="black" stroke-width=".3" stroke-opacity="1.0"  filling="0" d="M6.855959892272949 12.649727821350098 L4.799208641052246 12.649727821350098 L4.799208641052246 11.303400993347168 L6.876480579376221 10.647623062133789 C7.203432559967041 10.981199264526367 7.7505292892456055 11.19364070892334 7.857336044311523 11.64835262298584 C7.936140537261963 11.983848571777344 7.4983439445495605 12.236736297607422 7.318848133087158 12.530927658081055 L7.127904415130615 11.713583946228027 C7.050416946411133 11.665421485900879 6.909522533416748 11.698304176330566 6.8613600730896 11.775792121887207 L7.060512065887451 12.628344535827637 C6.99232816696167 12.635472297668457 6.9241437911987305 12.642600059509277 6.855959892272949 12.649727821350098 L6.855959892272949 12.649727821350098"></path>
<path fill="none" stroke="black" stroke-width=".3" stroke-opacity="1.0"  filling="0" d="M12.3438720703125 12.649727821350098 L10.286687850952148 12.649727821350098 L10.286687850952148 11.93498420715332 C10.271207809448242 11.900712013244629 10.255727767944336 11.866439819335938 10.24024772644043 11.832167625427246 L9.826608657836914 11.468855857849121 L12.364392280578613 10.647407531738281 C12.691271781921387 10.98098373413086 13.238236427307129 11.193472862243652 13.34503173828125 11.6481351852417 C13.423828125 11.98359489440918 12.986184120178223 12.236519813537598 12.806760787963867 12.530712127685547 L12.615816116333008 11.71336841583252 C12.538240432739258 11.665214538574219 12.397255897521973 11.698028564453125 12.349056243896484 11.775575637817383 L12.54842472076416 12.628128051757812 C12.480240821838379 12.63532829284668 12.412055969238281 12.64252758026123 12.3438720703125 12.649727821350098 L12.3438720703125 12.649727821350098"></path>
<path fill="none" stroke="black" stroke-width=".3" stroke-opacity="1.0"  filling="0" d="M8.538383483886719 13.993032455444336 L8.538383483886719 13.993032455444336 C8.505263328552246 14.017440795898438 8.47214412689209 14.041848182678223 8.439023971557617 14.066256523132324 L8.30078411102295 14.339712142944336 L7.741560459136963 14.339712142944336 L7.383432388305664 12.807840347290039 C7.594032287597656 12.597023963928223 7.804632186889648 12.386208534240723 8.01523208618164 12.175392150878906 L8.797152519226074 13.949399948120117 L8.538383483886719 13.993032455444336"></path>
<path fill="none" stroke="black" stroke-width=".3" stroke-opacity="1.0"  filling="0" d="M14.022192001342773 13.993032455444336 L14.022192001342773 13.993032455444336 C13.9890718460083 14.017440795898438 13.955952644348145 14.041848182678223 13.922832489013672 14.066256523132324 L13.784592628479004 14.339712142944336 L13.229256629943848 14.339712142944336 L12.871343612670898 12.807840347290039 C13.08194351196289 12.59716796875 13.2925443649292 12.386496543884277 13.503144264221191 12.175824165344238 L14.284416198730469 13.948967933654785 L14.022192001342773 13.993032455444336"></path>
<path fill="none" stroke="black" stroke-width=".3" stroke-opacity="1.0"  filling="0" d="M10.83899974822998 14.295647621154785 L9.958800315856934 13.982664108276367 C9.90285587310791 14.005056381225586 9.846912384033203 14.027447700500488 9.79096794128418 14.049839973449707 L9.644304275512695 14.339712142944336 L9.268680572509766 14.339712142944336 L9.476471900939941 14.11291217803955 C9.508511543273926 14.090519905090332 9.540552139282227 14.06812858581543 9.572591781616211 14.045736312866211 L10.215407371520996 12.923616409301758 L11.145936965942383 12.923616409301758 L10.83899974822998 14.295647621154785"></path>
<path fill="none" stroke="black" stroke-width=".3" stroke-opacity="1.0"  filling="0" d="M16.32259178161621 14.295647621154785 L15.442390441894531 13.982664108276367 C15.386446952819824 14.005056381225586 15.330504417419434 14.027447700500488 15.274560928344727 14.049839973449707 L15.127897262573242 14.339712142944336 L14.755943298339844 14.339712142944336 L14.960063934326172 14.11291217803955 C14.992032051086426 14.090519905090332 15.02400016784668 14.06812858581543 15.055968284606934 14.045736312866211 L15.698783874511719 12.923616409301758 L16.62931251525879 12.923616409301758 L16.32259178161621 14.295647621154785"></path>
<path fill="none" stroke="black" stroke-width=".3" stroke-opacity="1.0"  filling="0" d="M20.69443130493164 14.339496612548828 L20.69443130493164 14.339496612548828 C20.759241104125977 14.403901100158691 20.76011848449707 14.548992156982422 20.695510864257812 14.61359977722168 L20.15119171142578 14.61359977722168 C20.10943031311035 14.586383819580078 20.067670822143555 14.559167861938477 20.025909423828125 14.531951904296875 L18.980688095092773 12.16048812866211 C18.77195930480957 12.374256134033203 18.563232421875 12.588024139404297 18.354503631591797 12.80179214477539 L18.713926315307617 14.339927673339844 L19.161479949951172 14.339927673339844 C19.226036071777344 14.404483795166016 19.226036071777344 14.549260139465332 19.161479949951172 14.613816261291504 L18.60549545288086 14.613816261291504 C18.561071395874023 14.578608512878418 18.516645431518555 14.543399810791016 18.47222137451172 14.50819206237793 L18.094438552856445 12.892080307006836 C18.00090980529785 12.90273666381836 17.90738296508789 12.913392066955566 17.813854217529297 12.92404842376709 L16.910327911376953 12.92404842376709 L16.55673599243164 14.50667953491211 C16.493560791015625 14.591115951538086 16.480310440063477 14.623814582824707 16.377239227294922 14.605823516845703 L15.464856147766113 14.281391143798828 L15.352319717407227 14.50387191772461 C15.308544158935547 14.540519714355469 15.26476764678955 14.577168464660645 15.220992088317871 14.613816261291504 L14.667383193969727 14.613816261291504 C14.62562370300293 14.586600303649902 14.583863258361816 14.559383392333984 14.54210376739502 14.532167434692383 L14.3991117477417 14.207736015319824 L13.99173641204834 14.538647651672363 C13.959085464477539 14.57347583770752 13.915691375732422 14.600814819335938 13.869695663452148 14.61359977722168 L13.121687889099121 14.61359977722168 C13.077263832092285 14.578392028808594 13.03283977508545 14.543184280395508 12.988415718078613 14.507976531982422 L12.611495971679688 12.89510440826416 C12.522576332092285 12.904680252075195 12.433655738830566 12.91425609588623 12.344736099243164 12.923831939697266 L11.426520347595215 12.923831939697266 L11.07314395904541 14.506464004516602 C11.010005950927734 14.590850830078125 10.996837615966797 14.623579025268555 10.893864631652832 14.605607986450195 L9.981480598449707 14.281176567077637 L9.862031936645508 14.51683235168457 C9.819119453430176 14.549088478088379 9.77620792388916 14.581343650817871 9.733295440673828 14.61359977722168 L9.179903984069824 14.61359977722168 C9.138143539428711 14.586383819580078 9.096384048461914 14.559167861938477 9.0546236038208 14.531951904296875 L8.911848068237305 14.207951545715332 L8.507712364196777 14.538431167602539 C8.468160629272461 14.580781936645508 8.44049072265625 14.601810455322266 8.381568908691406 14.61359977722168 L7.6335601806640625 14.61359977722168 C7.589136123657227 14.578392028808594 7.544712066650391 14.543184280395508 7.500288009643555 14.507976531982422 L7.123368263244629 12.89510440826416 C7.03437614440918 12.904680252075195 6.945384502410889 12.91425609588623 6.8563923835754395 12.923831939697266 L5.93817663192749 12.923831939697266 L5.584799766540527 14.506464004516602 C5.521662712097168 14.590850830078125 5.508493900299072 14.623579025268555 5.405520439147949 14.605607986450195 L4.493136405944824 14.281176567077637 L4.371528148651123 14.52180004119873 C4.284876823425293 14.550311088562012 4.155742645263672 14.485116004943848 4.127232551574707 14.39846420288086 L4.303056716918945 14.050055503845215 C4.359072685241699 14.027591705322266 4.415088653564453 14.005127906799316 4.471104621887207 13.982664108276367 L5.351304531097412 14.295647621154785 L5.657592296600342 12.923399925231934 L4.727064609527588 12.923399925231934 L4.084464073181152 14.045520782470703 C4.052424430847168 14.067912101745605 4.020384788513184 14.090304374694824 3.988345146179199 14.112695693969727 L3.164304733276367 14.251367568969727 L3.0195846557617188 14.538000106811523 C2.941965103149414 14.585861206054688 2.8037891387939453 14.501501083374023 2.7752885818481445 14.41487979888916 L2.9519758224487305 14.06668758392334 C2.985095977783203 14.042207717895508 3.018216133117676 14.017727851867676 3.0513362884521484 13.993247985839844 L3.8796958923339844 13.85371208190918 L4.526185035705566 12.724464416503906 L4.526185035705566 11.203176498413086 C4.558008670806885 11.159687995910645 4.589832305908203 11.11620044708252 4.6216559410095215 11.072711944580078 L6.815136432647705 10.380216598510742 C7.610165596008301 10.259491920471191 8.159445762634277 11.091540336608887 8.125391960144043 11.763694763183594 L8.125391960144043 11.763694763183594 C8.132448196411133 11.773775100708008 8.139504432678223 11.783855438232422 8.146560668945312 11.793935775756836 L9.076224327087402 13.902743339538574 L10.013448715209961 12.72532844543457 L10.009991645812988 11.993952751159668 C8.28913402557373 12.694293975830078 7.943777561187744 10.5328950881958 9.38424015045166 10.442855834960938 C9.727375030517578 10.421407699584961 9.947279930114746 10.837559700012207 10.228799819946289 11.034912109375 L12.303047180175781 10.380000114440918 C13.092569351196289 10.259482383728027 13.646809577941895 11.087177276611328 13.613519668579102 11.756999969482422 L13.613519668579102 11.756999969482422 C13.617695808410645 11.762904167175293 13.621871948242188 11.768808364868164 13.62604808807373 11.774712562561035 L14.563488006591797 13.901663780212402 L15.482784271240234 12.750167846679688 L15.47911262512207 11.993736267089844 C13.757165908813477 12.695114135742188 13.414159774780273 10.532333374023438 14.85335922241211 10.443071365356445 C15.196504592895508 10.421789169311523 15.416399955749512 10.837776184082031 15.697920799255371 11.035128593444824 L17.77216911315918 10.380216598510742 C18.53724479675293 10.26342487335205 19.11824607849121 11.06710147857666 19.08371925354004 11.731727600097656 L19.08371925354004 11.731727600097656 C19.089479446411133 11.739863395690918 19.095239639282227 11.74799919128418 19.10099983215332 11.756134986877441 L20.23953628540039 14.339496612548828 L20.69443130493164 14.339496612548828"></path></svg>