<svg xmlns="http://www.w3.org/2000/svg" viewBox="0.0 0.0 24.0 24.0" height="200px" width="200px"><path fill="none" stroke="black" stroke-width=".3" stroke-opacity="1.0"  filling="0" d="M85.8233413696289 45.8947868347168 L85.8233413696289 45.8947868347168 C88.28082275390625 45.88114929199219 90.73845672607422 45.86734390258789 93.19623565673828 45.8535041809082 C95.65401458740234 45.839664459228516 98.11193084716797 45.82579803466797 100.5699691772461 45.81203842163086 C103.02800750732422 45.79827880859375 105.48616790771484 45.784629821777344 107.9444351196289 45.7712287902832 C110.40270233154297 45.75782775878906 112.86107635498047 45.74467849731445 115.31954193115234 45.73191833496094 C117.77800750732422 45.71915817260742 120.23655700683594 45.706787109375 122.69517517089844 45.6949462890625 C125.15380096435547 45.68310546875 127.61249542236328 45.67179870605469 130.0712432861328 45.66115951538086 C132.52999877929688 45.65052032470703 134.98880004882812 45.64055252075195 137.44764709472656 45.63139724731445 C139.906494140625 45.62224197387695 142.36537170410156 45.613895416259766 144.82427978515625 45.606502532958984 C147.28318786621094 45.5991096496582 149.7421112060547 45.59266662597656 152.20103454589844 45.587318420410156 C154.6599578857422 45.58197021484375 157.118896484375 45.57770919799805 159.57781982421875 45.574684143066406 C162.0367431640625 45.571659088134766 164.4956512451172 45.56986618041992 166.95452880859375 45.56944274902344 C169.4134063720703 45.56902313232422 171.87225341796875 45.56997299194336 174.33106994628906 45.57244110107422 C176.7898712158203 45.57490539550781 179.24862670898438 45.57888412475586 181.7073211669922 45.58451461791992 C184.166015625 45.590145111083984 186.62464904785156 45.59743118286133 189.08319091796875 45.606510162353516 C191.541748046875 45.6155891418457 194.00021362304688 45.62646484375 196.45858764648438 45.6392707824707 C198.91696166992188 45.652076721191406 201.375244140625 45.66682052612305 203.83340454101562 45.68363571166992 C206.29156494140625 45.7004508972168 208.74961853027344 45.71934509277344 211.20753479003906 45.740447998046875 C213.66546630859375 45.76155471801758 216.1232452392578 45.784873962402344 218.5808868408203 45.810550689697266 C221.0385284423828 45.83622741699219 223.49603271484375 45.8642578125 225.95335388183594 45.8947868347168 L225.95335388183594 45.8947868347168 C227.62701416015625 47.636817932128906 229.31666564941406 49.361968994140625 231.01731872558594 51.07597732543945 C232.71798706054688 52.78998565673828 234.42965698242188 54.49285125732422 236.1473846435547 56.1903076171875 C237.8651123046875 57.88776397705078 239.58888244628906 59.57980728149414 241.313720703125 61.272178649902344 C243.03857421875 62.96455001831055 244.76449584960938 64.6572494506836 246.48651123046875 66.35600280761719 C248.2085418701172 68.05476379394531 249.92666625976562 69.75958251953125 251.6359405517578 71.47618865966797 C253.29551696777344 73.14289855957031 254.95018005371094 74.81073760986328 256.60162353515625 76.4789047241211 C258.2530517578125 78.1470718383789 259.9012451171875 79.81556701660156 261.5478820800781 81.48358917236328 C263.19451904296875 83.151611328125 264.8396301269531 84.81916809082031 266.48486328125 86.4854507446289 C268.1300964355469 88.1517333984375 269.77545166015625 89.8167495727539 271.4226379394531 91.47970581054688 C273.06982421875 93.14265441894531 274.7188415527344 94.80353546142578 276.3713684082031 96.46155548095703 C278.0238952636719 98.11957550048828 279.679931640625 99.77472686767578 281.3411560058594 101.42620849609375 C283.00238037109375 103.07769775390625 284.6687927246094 104.72552490234375 286.34210205078125 106.36888885498047 C288.0154113769531 108.01225280761719 289.69561767578125 109.65115356445312 291.3843688964844 111.2847900390625 C292.6139221191406 112.47420501708984 293.7978515625 113.71146392822266 294.9655456542969 114.96440124511719 C296.13323974609375 116.21733856201172 297.28472900390625 117.48594665527344 298.44940185546875 118.73806762695312 C299.61407470703125 119.99018859863281 300.79193115234375 121.22581481933594 302.0123291015625 122.41278839111328 C303.70306396484375 124.05719757080078 305.619873046875 125.49938201904297 307.32122802734375 127.14791107177734 C308.4771423339844 128.26792907714844 309.3313293457031 129.65943908691406 310.5103454589844 130.74378967285156 C311.5456848144531 131.69598388671875 312.5487060546875 132.66265869140625 313.5440368652344 133.63955688476562 C314.53936767578125 134.616455078125 315.5270080566406 135.60357666015625 316.5315856933594 136.59664916992188 C317.6861877441406 137.73802185058594 319.5744323730469 138.92430114746094 320.23834228515625 140.47178649902344 C320.932861328125 142.09056091308594 320.5423889160156 144.47171020507812 320.5477600097656 146.1751708984375 C320.552978515625 147.82992553710938 320.5577392578125 149.48464965820312 320.56207275390625 151.13938903808594 C320.5664367675781 152.7941131591797 320.57037353515625 154.4488525390625 320.57391357421875 156.10360717773438 C320.57867431640625 158.30982971191406 320.58270263671875 160.5160675048828 320.5861511230469 162.7222900390625 C320.589599609375 164.9285125732422 320.5924377441406 167.13475036621094 320.5947570800781 169.34097290039062 C320.5970458984375 171.54721069335938 320.5988464355469 173.75343322753906 320.60015869140625 175.9596710205078 C320.6014709472656 178.1658935546875 320.60235595703125 180.37213134765625 320.60284423828125 182.57835388183594 C320.60333251953125 184.78457641601562 320.60345458984375 186.99081420898438 320.6032409667969 189.19705200195312 C320.6030578613281 191.40328979492188 320.6025390625 193.60952758789062 320.6018371582031 195.8157501220703 C320.60107421875 198.21456909179688 320.60003662109375 200.61338806152344 320.59881591796875 203.01220703125 C320.59759521484375 205.41102600097656 320.5962219238281 207.80984497070312 320.59478759765625 210.2086639404297 C320.5933532714844 212.60748291015625 320.5918273925781 215.0063018798828 320.59033203125 217.40512084960938 C320.5888366699219 219.80393981933594 320.58740234375 222.2027587890625 320.5860595703125 224.60157775878906 C320.584716796875 227.00039672851562 320.5835266113281 229.3992156982422 320.5825500488281 231.7980194091797 C320.5815734863281 234.19683837890625 320.580810546875 236.5956573486328 320.5803527832031 238.99447631835938 C320.57989501953125 241.39329528808594 320.57977294921875 243.7921142578125 320.580078125 246.19093322753906 C320.58038330078125 248.58975219726562 320.58111572265625 250.98855590820312 320.58233642578125 253.3873748779297 C320.5833435058594 255.37213134765625 320.584716796875 257.35687255859375 320.5865173339844 259.34161376953125 C320.58831787109375 261.32635498046875 320.59051513671875 263.31109619140625 320.5931701660156 265.29583740234375 C320.5958251953125 267.28057861328125 320.5989990234375 269.26531982421875 320.6026611328125 271.25006103515625 C320.60479736328125 272.4062194824219 320.735107421875 273.7341613769531 320.7986145019531 275.05438232421875 C320.86212158203125 276.3746337890625 320.85882568359375 277.6871337890625 320.5938415527344 278.8123779296875 C320.25811767578125 280.23785400390625 319.06048583984375 281.625244140625 317.6990966796875 282.8984375 C316.33770751953125 284.1716003417969 314.8126220703125 285.33056640625 313.82208251953125 286.2991638183594 C312.31988525390625 287.76806640625 310.8242492675781 289.2436218261719 309.3330383300781 290.7236022949219 C307.8418273925781 292.20361328125 306.35504150390625 293.68804931640625 304.8705749511719 295.1747741699219 C303.3861083984375 296.6614990234375 301.9039611816406 298.1505126953125 300.4220275878906 299.63958740234375 C298.9400939941406 301.128662109375 297.4583740234375 302.6177978515625 295.9747314453125 304.1048583984375 C294.2718505859375 305.8116455078125 292.5666198730469 307.5119934082031 290.8592834472656 309.2071228027344 C289.15191650390625 310.9022521972656 287.44244384765625 312.59222412109375 285.73101806640625 314.2782897949219 C284.01959228515625 315.96435546875 282.3062744140625 317.64654541015625 280.5911865234375 319.3261413574219 C278.8761291503906 321.0057373046875 277.1593322753906 322.6827392578125 275.4410400390625 324.35845947265625 C273.7227478027344 326.0341796875 272.0029296875 327.7085876464844 270.2818298339844 329.3830261230469 C268.56072998046875 331.05743408203125 266.83831787109375 332.73187255859375 265.1148376464844 334.4075622558594 C263.3913269042969 336.0832824707031 261.6667175292969 337.7602844238281 259.9412536621094 339.43988037109375 C258.21575927734375 341.1195068359375 256.4893798828125 342.80169677734375 254.76235961914062 344.4877624511719 C253.06649780273438 346.1434020996094 251.38949584960938 347.82305908203125 249.7230987548828 349.5166320800781 C248.0567169189453 351.210205078125 246.4009552001953 352.9176940917969 244.74758911132812 354.6290283203125 C243.09422302246094 356.34033203125 241.4432373046875 358.0554504394531 239.78643798828125 359.7642517089844 C238.12962341308594 361.47308349609375 236.46697998046875 363.17559814453125 234.79025268554688 364.8617248535156 C233.11354064941406 366.5478515625 231.42276000976562 368.2175598144531 229.70968627929688 369.86077880859375 C227.99661254882812 371.50396728515625 226.26123046875 373.12066650390625 224.49534606933594 374.7007751464844 L224.49534606933594 374.7007751464844 C222.50238037109375 374.95819091796875 220.4837188720703 375.0256652832031 218.46163940429688 375.02813720703125 C216.4395751953125 375.0306091308594 214.41409301757812 374.9681091308594 212.4075469970703 374.96563720703125 C209.9873504638672 374.962646484375 207.56715393066406 374.9599609375 205.14694213867188 374.9575500488281 C202.72674560546875 374.95513916015625 200.30654907226562 374.9529724121094 197.88633728027344 374.9510498046875 C195.4661407470703 374.9491271972656 193.04592895507812 374.94744873046875 190.625732421875 374.9459533691406 C188.13259887695312 374.9444274902344 185.6394500732422 374.9431457519531 183.1463165283203 374.9420471191406 C180.65318298339844 374.94097900390625 178.1600341796875 374.9400939941406 175.66690063476562 374.93939208984375 C173.17376708984375 374.9386901855469 170.6806182861328 374.9381408691406 168.18748474121094 374.9377746582031 C165.69435119628906 374.9373779296875 163.20120239257812 374.9371643066406 160.70806884765625 374.9370422363281 C158.2149200439453 374.9369201660156 155.72178649902344 374.93695068359375 153.2286376953125 374.9370422363281 C150.73550415039062 374.9371337890625 148.24237060546875 374.9373474121094 145.7492218017578 374.9376220703125 C143.25608825683594 374.9378967285156 140.762939453125 374.938232421875 138.26980590820312 374.9385986328125 C135.77667236328125 374.93896484375 133.2835235595703 374.93939208984375 130.79039001464844 374.9398193359375 C128.2972412109375 374.94024658203125 125.80410766601562 374.940673828125 123.31096649169922 374.94110107421875 C121.33078002929688 374.9414367675781 119.35060119628906 374.9417724609375 117.37041473388672 374.9420471191406 C115.3902359008789 374.9423522949219 113.41004943847656 374.942626953125 111.42987060546875 374.94287109375 C109.44969177246094 374.943115234375 107.4695053100586 374.94329833984375 105.48931884765625 374.9434509277344 C103.50914001464844 374.943603515625 101.52896118164062 374.9437255859375 99.54877471923828 374.9437561035156 C97.55158996582031 374.94378662109375 95.3398666381836 375.1395568847656 93.13912200927734 375.2239074707031 C90.9383773803711 375.30828857421875 88.74861145019531 375.28125 86.79534912109375 374.8357849121094 C84.62903594970703 374.3417053222656 83.00534057617188 372.22833251953125 81.15235137939453 371.10980224609375 L81.15235137939453 371.10980224609375 C80.35208129882812 369.73504638671875 79.39232635498047 368.3924560546875 78.2586441040039 367.2413330078125 C77.12496185302734 366.0902099609375 75.81735229492188 365.1305847167969 74.32135009765625 364.52178955078125 L74.32135009765625 364.52178955078125 C73.74832916259766 362.92999267578125 72.78955078125 361.91094970703125 71.69403839111328 361.00335693359375 C70.5985336303711 360.0957946777344 69.36628723144531 359.2996826171875 68.24634552001953 358.1537780761719 C66.77521514892578 356.6485290527344 65.41154479980469 354.989501953125 64.0352554321289 353.3340759277344 C62.658966064453125 351.67864990234375 61.270050048828125 350.0268249511719 59.74842834472656 348.5359802246094 C58.226806640625 347.0451354980469 56.572471618652344 345.71527099609375 54.665348052978516 344.7037658691406 L54.665348052978516 344.7037658691406 C53.4907112121582 342.5787048339844 51.88853073120117 341.52362060546875 50.197601318359375 339.8593444824219 C48.745792388916016 338.430419921875 47.5012321472168 336.7225036621094 46.12299728393555 335.184326171875 C44.74475860595703 333.64617919921875 43.23284912109375 332.2777404785156 41.24634552001953 331.52777099609375 L41.24634552001953 331.52777099609375 C41.264347076416016 331.0777587890625 41.282344818115234 330.6277770996094 41.30034637451172 330.1777648925781 L41.30034637451172 330.1777648925781 C40.79634475708008 330.123779296875 40.2923469543457 330.06976318359375 39.78834533691406 330.0157775878906 L39.78834533691406 330.0157775878906 C39.154720306396484 328.61151123046875 38.21453094482422 327.5306701660156 37.1773796081543 326.5237731933594 C36.14022445678711 325.5168762207031 35.006103515625 324.58392333984375 33.984615325927734 323.4754638671875 C33.02970886230469 322.4392395019531 32.23823928833008 321.42449951171875 31.348695755004883 320.5323791503906 C30.45915412902832 319.6402282714844 29.471538543701172 318.87066650390625 28.124345779418945 318.3247985839844 L28.124345779418945 318.3247985839844 C27.340526580810547 316.2132263183594 26.325477600097656 315.7470703125 24.840045928955078 314.16339111328125 C23.071231842041016 312.2776184082031 22.66935157775879 310.91766357421875 20.132347106933594 309.9007568359375 L20.132347106933594 309.9007568359375 C19.207529067993164 308.318603515625 17.993045806884766 306.9754333496094 16.687837600708008 305.711669921875 C15.382627487182617 304.4479064941406 13.98669147491455 303.2635192871094 12.69896411895752 301.9989013671875 C11.411236763000488 300.73431396484375 10.231718063354492 299.38946533203125 9.359346389770508 297.8047790527344 L9.359346389770508 297.8047790527344 C7.91917610168457 297.1035461425781 6.686877250671387 296.0533447265625 5.482395648956299 294.9475402832031 C4.277914047241211 293.8417663574219 3.1012487411499023 292.68035888671875 1.7723455429077148 291.75677490234375 L1.7723455429077148 291.75677490234375 C1.1839004755020142 290.36865234375 0.22140991687774658 289.10076904296875 -0.9260989427566528 288.0106201171875 C-2.073607921600342 286.92047119140625 -3.406135082244873 286.008056640625 -4.734653472900391 285.3307800292969 L-4.734653472900391 285.3307800292969 C-6.052310943603516 283.6263732910156 -7.929752349853516 281.9471435546875 -9.000654220581055 280.0927734375 C-9.69963550567627 278.8824157714844 -9.855372428894043 277.26531982421875 -9.836515426635742 275.616455078125 C-9.817657470703125 273.96759033203125 -9.62420654296875 272.28692626953125 -9.624811172485352 270.9494323730469 C-9.625813484191895 268.7330017089844 -9.626635551452637 266.5166015625 -9.627300262451172 264.3001708984375 C-9.627965927124023 262.083740234375 -9.628475189208984 259.8673400878906 -9.628850936889648 257.6509094238281 C-9.629226684570312 255.43450927734375 -9.629469871520996 253.21807861328125 -9.629603385925293 251.0016632080078 C-9.629749298095703 248.58375549316406 -9.62976360321045 246.1658477783203 -9.629678726196289 243.74794006347656 C-9.629592895507812 241.3300323486328 -9.629406929016113 238.91212463378906 -9.629151344299316 236.4942169189453 C-9.628894805908203 234.07630920410156 -9.628568649291992 231.6584014892578 -9.628202438354492 229.24049377441406 C-9.627836227416992 226.8225860595703 -9.627429962158203 224.40467834472656 -9.62701416015625 221.9867706298828 C-9.626598358154297 219.56886291503906 -9.62617301940918 217.1509552001953 -9.625767707824707 214.73304748535156 C-9.625362396240234 212.3151397705078 -9.624978065490723 209.89723205566406 -9.62464427947998 207.4793243408203 C-9.624310493469238 205.06141662597656 -9.624027252197266 202.6435089111328 -9.623825073242188 200.2255859375 C-9.62362289428711 197.80767822265625 -9.62350082397461 195.3897705078125 -9.623491287231445 192.97186279296875 C-9.623480796813965 190.553955078125 -9.623581886291504 188.13604736328125 -9.623825073242188 185.7181396484375 C-9.624067306518555 183.30023193359375 -9.62445068359375 180.88230895996094 -9.625006675720215 178.4644012451172 C-9.62556266784668 176.04649353027344 -9.626289367675781 173.62857055664062 -9.627219200134277 171.21066284179688 C-9.628156661987305 168.77259826660156 -9.629298210144043 166.3345489501953 -9.630675315856934 163.896484375 C-9.63205337524414 161.4584197998047 -9.6336669921875 159.02035522460938 -9.63554859161377 156.58229064941406 C-9.637430191040039 154.14422607421875 -9.639579772949219 151.7061767578125 -9.64202880859375 149.2681121826172 C-9.643310546875 147.99232482910156 -9.863414764404297 146.2473602294922 -9.906476020812988 144.53741455078125 C-9.949536323547363 142.82745361328125 -9.8155517578125 141.15252685546875 -9.108654022216797 140.01678466796875 C-8.135539054870605 138.45333862304688 -6.242622375488281 137.24435424804688 -4.734653472900391 136.29078674316406 L-4.734653472900391 136.29078674316406 C-3.9606730937957764 135.04452514648438 -3.0216546058654785 133.82803344726562 -1.988163948059082 132.69357299804688 C-0.9546734094619751 131.55911254882812 0.17328941822052002 130.5066680908203 1.3251584768295288 129.5884552001953 C3.0922088623046875 128.1798553466797 4.273081302642822 127.52152252197266 5.471346378326416 125.5447998046875 L5.471346378326416 125.5447998046875 C5.912346363067627 125.58079528808594 6.353346347808838 125.6167984008789 6.794346332550049 125.65279388427734 L6.794346332550049 125.65279388427734 C7.294975280761719 124.10049438476562 8.092281341552734 123.05711364746094 9.04710578918457 122.13137817382812 C10.00192928314209 121.20563507080078 11.11427116394043 120.39753723144531 12.24497127532959 119.31580352783203 C13.295008659362793 118.31124114990234 13.78116226196289 116.8603744506836 14.894346237182617 115.9867935180664 C16.394773483276367 114.809326171875 17.815837860107422 114.04939270019531 19.105051040649414 112.56922912597656 C19.896955490112305 111.6600341796875 20.38812255859375 110.49490356445312 21.266345977783203 109.66878509521484 C22.226778030395508 108.76533508300781 23.250471115112305 107.97386932373047 24.26470947265625 107.15937805175781 C25.278947830200195 106.34489440917969 26.283733367919922 105.50736999511719 27.20634651184082 104.51179504394531 C28.51915168762207 103.09517669677734 29.891176223754883 101.74097442626953 31.286672592163086 100.41304779052734 C32.68217086791992 99.08512115478516 34.101139068603516 97.78347778320312 35.50783157348633 96.47197723388672 C36.914527893066406 95.16047668457031 38.30894470214844 93.83912658691406 39.65534591674805 92.47178649902344 C40.6041259765625 91.50824737548828 41.50067138671875 90.50151824951172 42.39324951171875 89.492919921875 C43.28582763671875 88.48431396484375 44.174434661865234 87.47383117675781 45.10734558105469 86.5027847290039 C46.84144592285156 84.69779968261719 48.61117935180664 82.92832946777344 50.396270751953125 81.17543029785156 C52.18136215209961 79.42253112792969 53.981815338134766 77.68619537353516 55.777347564697266 75.94747161865234 C57.57288360595703 74.20874786376953 59.363502502441406 72.46763610839844 61.12892532348633 70.70516967773438 C62.894351959228516 68.94271087646484 64.63458251953125 67.15890502929688 66.329345703125 65.33479309082031 C67.88836669921875 63.65678024291992 69.49800109863281 62.023590087890625 71.13255310058594 60.4124870300293 C72.7671127319336 58.80138397216797 74.42658996582031 57.21236038208008 76.0853271484375 55.622684478759766 C77.74406433105469 54.03300476074219 79.40204620361328 52.44266891479492 81.03360748291016 50.82893371582031 C82.66516876220703 49.21519470214844 84.27030944824219 47.57806396484375 85.8233413696289 45.8947868347168 L85.8233413696289 45.8947868347168"></path>
<path fill="none" stroke="black" stroke-width=".3" stroke-opacity="1.0"  filling="0" d="M236.80734252929688 92.9827880859375 L236.80734252929688 92.9827880859375 C238.44219970703125 91.21824645996094 239.54153442382812 89.53810119628906 241.7483367919922 88.47378540039062 L241.7483367919922 88.47378540039062 C242.13821411132812 90.86691284179688 242.3462677001953 93.25698852539062 242.4570770263672 95.65351867675781 C242.56788635253906 98.050048828125 242.58145141601562 100.45304107666016 242.5823974609375 102.87200927734375 C242.58323669433594 105.01396179199219 242.52261352539062 107.11790466308594 242.34835815429688 109.19378662109375 C242.17410278320312 111.26966857910156 241.8861846923828 113.31748962402344 241.4324188232422 115.34719848632812 C240.97866821289062 117.37691497802734 240.35903930664062 119.38851928710938 239.52137756347656 121.39197540283203 C238.6582489013672 123.45632934570312 237.65878295898438 125.43974304199219 236.59445190429688 127.38423919677734 C235.53013610839844 129.3287353515625 234.40097045898438 131.2342987060547 233.2784423828125 133.1429443359375 C232.15591430664062 135.05160522460938 231.0400390625 136.9633331298828 230.00228881835938 138.920166015625 C228.96453857421875 140.87698364257812 228.00491333007812 142.87890625 227.1949005126953 144.9679412841797 C226.7447509765625 146.12889099121094 226.26889038085938 147.30575561523438 225.8854217529297 148.5062255859375 C225.50196838378906 149.70669555664062 225.2109375 150.9307861328125 225.13043212890625 152.1861572265625 C224.97718811035156 154.57595825195312 225.4150848388672 156.9603271484375 225.26866149902344 159.35035705566406 C225.17160034179688 160.93460083007812 225.21017456054688 162.87655639648438 223.43716430664062 163.53184509277344 C222.07656860351562 164.0347137451172 219.80609130859375 163.64125061035156 219.23033142089844 162.07579040527344 C219.18362426757812 161.9488067626953 219.27432250976562 158.83621215820312 219.27734375 158.7137908935547 C219.3332977294922 156.44168090820312 219.30758666992188 154.23684692382812 219.04135131835938 151.97779846191406 L219.04135131835938 151.97779846191406 C218.3048553466797 153.14309692382812 217.44674682617188 154.46739196777344 216.7394561767578 155.8540802001953 C216.0321502685547 157.24078369140625 215.47564697265625 158.68988037109375 215.3423614501953 160.10479736328125 C215.2442626953125 161.14608764648438 215.900146484375 162.120849609375 216.17935180664062 163.1287841796875 C216.5526885986328 164.4766082763672 216.5058135986328 166.25978088378906 216.42234802246094 167.6432647705078 C216.27500915527344 170.0853271484375 214.73129272460938 171.974365234375 214.32774353027344 174.3515167236328 C214.0380859375 176.05776977539062 214.19309997558594 177.68356323242188 214.1694793701172 179.26580810546875 C214.14584350585938 180.84805297851562 213.94357299804688 182.38673400878906 212.93934631347656 183.91879272460938 L212.93934631347656 183.91879272460938 C211.2506103515625 183.84214782714844 208.69480895996094 184.3724822998047 207.83636474609375 182.37979125976562 C207.03451538085938 180.51846313476562 207.79067993164062 177.1129150390625 207.6643524169922 175.08778381347656 C207.5067138671875 172.5607147216797 207.080810546875 170.25782775878906 206.87477111816406 167.95301818847656 C206.66873168945312 165.64822387695312 206.68255615234375 163.3415069580078 207.40435791015625 160.80679321289062 L207.40435791015625 160.80679321289062 C205.8241424560547 162.14077758789062 204.35365295410156 163.57418823242188 202.91065979003906 165.03610229492188 C201.46766662597656 166.49801635742188 200.05215454101562 167.98846435546875 198.58189392089844 169.4365692138672 C197.03599548339844 170.95916748046875 195.4817657470703 172.47271728515625 193.9255828857422 173.98411560058594 C192.36940002441406 175.49551391601562 190.811279296875 177.0047607421875 189.25759887695312 178.51873779296875 C187.7039337158203 180.03273010253906 186.15472412109375 181.55145263671875 184.61636352539062 183.081787109375 C183.10926818847656 184.58103942871094 181.5850372314453 186.06466674804688 180.0500946044922 187.5385284423828 C178.51515197753906 189.0124053955078 176.96949768066406 190.4765167236328 175.41954040527344 191.93673706054688 C173.8695831298828 193.39695739746094 172.31532287597656 194.853271484375 170.76316833496094 196.31155395507812 C169.2110137939453 197.76983642578125 167.66094970703125 199.23008728027344 166.11941528320312 200.69815063476562 C164.577880859375 202.16622924804688 163.0448455810547 203.64212036132812 161.5267333984375 205.1317138671875 C160.00863647460938 206.6212921142578 158.50546264648438 208.12457275390625 157.0236053466797 209.6473846435547 C156.06320190429688 210.63433837890625 155.31292724609375 211.68099975585938 154.60397338867188 212.75103759765625 C153.89503479003906 213.821044921875 153.2274169921875 214.9144287109375 152.43235778808594 215.9947967529297 C151.4451904296875 217.33621215820312 150.17369079589844 218.63262939453125 148.83299255371094 219.86346435546875 C147.49227905273438 221.09432983398438 146.08236694335938 222.25961303710938 144.81834411621094 223.3387908935547 L144.81834411621094 223.3387908935547 C145.7744903564453 224.70162963867188 146.75527954101562 226.03562927246094 147.51287841796875 227.462158203125 C148.27047729492188 228.88870239257812 148.80490112304688 230.40777587890625 148.86834716796875 232.1407928466797 C148.91055297851562 233.29356384277344 148.99789428710938 234.5946044921875 147.6803436279297 235.21878051757812 C146.48196411132812 235.7864990234375 145.0343475341797 235.39878845214844 143.7113494873047 235.48880004882812 L143.7113494873047 235.48880004882812 C142.54425048828125 234.31600952148438 141.45181274414062 233.1370086669922 140.43801879882812 231.8957061767578 C139.4241943359375 230.65440368652344 138.489013671875 229.35079956054688 137.6363525390625 227.9287872314453 L137.6363525390625 227.9287872314453 C135.597412109375 229.2332763671875 134.0955352783203 231.06317138671875 132.61570739746094 232.90750122070312 C131.13587951660156 234.7518310546875 129.6781005859375 236.610595703125 127.72735595703125 237.9727783203125 C126.7083969116211 238.68431091308594 124.64286804199219 237.99468994140625 123.94735717773438 239.05279541015625 C123.1752700805664 240.22740173339844 123.92505645751953 241.3487548828125 124.3253402709961 242.40078735351562 L124.3253402709961 242.40078735351562 C122.96437072753906 244.02255249023438 121.53018951416016 245.57669067382812 120.1104736328125 247.14305114746094 C118.69075775146484 248.70941162109375 117.28549194335938 250.28802490234375 115.98235321044922 251.9587860107422 L115.98235321044922 251.9587860107422 C114.4229507446289 251.38519287109375 112.39917755126953 250.9329833984375 112.24285125732422 253.45391845703125 C112.20326232910156 254.0923614501953 112.57585144042969 254.6891632080078 112.74235534667969 255.30679321289062 L112.74235534667969 255.30679321289062 C111.51998901367188 256.4913330078125 110.35452270507812 257.7831726074219 109.1663818359375 259.049072265625 C107.97824096679688 260.31500244140625 106.76742553710938 261.55499267578125 105.454345703125 262.63580322265625 C104.58507537841797 263.351318359375 103.49452209472656 263.7895812988281 102.41485595703125 264.1087951660156 C101.89735412597656 264.2618103027344 101.23920440673828 264.1815490722656 100.86235046386719 264.56781005859375 C100.00403594970703 265.4475402832031 100.11680603027344 266.9610595703125 99.37734985351562 267.94281005859375 C98.41979217529297 269.2141418457031 96.82719421386719 270.3096618652344 95.63447570800781 271.35491943359375 C94.41011047363281 272.42791748046875 93.44931030273438 273.41851806640625 92.36585235595703 274.1471862792969 C91.28240203857422 274.8758544921875 90.07630157470703 275.34259033203125 88.36134338378906 275.3677978515625 L88.36134338378906 275.3677978515625 C88.2706069946289 275.6201171875 87.26708984375 278.45513916015625 87.11934661865234 278.68878173828125 C86.08009338378906 280.3323669433594 84.1531753540039 281.37109375 82.69134521484375 282.5767822265625 C81.14915466308594 283.8487548828125 79.72113037109375 285.04608154296875 78.18441772460938 286.042236328125 C76.647705078125 287.0384216308594 75.0022964477539 287.83343505859375 73.02534484863281 288.3007507324219 L73.02534484863281 288.3007507324219 C72.720703125 289.2169494628906 72.7183609008789 290.25762939453125 72.21534729003906 291.081787109375 C71.26036834716797 292.6464538574219 69.4611587524414 293.4517822265625 68.54335021972656 295.13177490234375 C67.6949462890625 296.68475341796875 67.56108856201172 298.5313415527344 67.08238220214844 300.1559143066406 C66.60368347167969 301.7804870605469 65.78013610839844 303.1829833984375 63.552345275878906 303.8477783203125 C61.839752197265625 304.35882568359375 58.175899505615234 304.33172607421875 56.4443473815918 303.9217834472656 C55.0745849609375 303.59747314453125 53.684349060058594 302.71551513671875 52.38029479980469 301.689697265625 C51.07624435424805 300.66387939453125 49.858375549316406 299.49420166015625 48.83334732055664 298.5945129394531 C47.44468688964844 297.3756408691406 45.96031951904297 296.0775146484375 44.548709869384766 294.6863708496094 C43.13710021972656 293.29522705078125 41.798248291015625 291.81103515625 40.70062255859375 290.2200927734375 C39.602996826171875 288.629150390625 38.74659729003906 286.931396484375 38.299896240234375 285.11309814453125 C37.85319519042969 283.2947998046875 37.816184997558594 281.35595703125 38.35734558105469 279.28277587890625 C38.904502868652344 277.18658447265625 40.24303436279297 276.1726379394531 41.848812103271484 275.5435791015625 C43.45458984375 274.91448974609375 45.327613830566406 274.6702880859375 46.94376754760742 274.11358642578125 C48.341217041015625 273.6322326660156 49.56148910522461 272.5997314453125 50.67271041870117 271.42572021484375 C51.783931732177734 270.251708984375 52.786102294921875 268.9361877441406 53.747344970703125 267.8888244628906 L53.747344970703125 267.8888244628906 C55.569610595703125 268.4674072265625 56.25220489501953 268.46728515625 57.93234634399414 267.5378112792969 L57.93234634399414 267.5378112792969 C57.62371063232422 266.4386901855469 57.17744445800781 265.3690185546875 56.60934829711914 264.3787841796875 L56.60934829711914 264.3787841796875 C58.16630554199219 262.5350646972656 59.82096862792969 260.7512512207031 61.274349212646484 258.82379150390625 C61.85500717163086 258.0537414550781 62.80036163330078 256.5210876464844 63.60234069824219 255.92779541015625 C64.98826599121094 254.9025115966797 66.95549774169922 256.1572265625 67.9763412475586 254.6317901611328 C68.75639343261719 253.4661865234375 68.03174591064453 252.5296630859375 67.59834289550781 251.4998016357422 L67.59834289550781 251.4998016357422 C69.09788513183594 249.928466796875 70.55989074707031 248.32290649414062 72.02638244628906 246.72158813476562 C73.49287414550781 245.12025451660156 74.96385192871094 243.52316284179688 76.4813461303711 241.96878051757812 L76.4813461303711 241.96878051757812 C76.98534393310547 242.1307830810547 77.46470642089844 242.4264678955078 77.99334716796875 242.4547882080078 C80.807861328125 242.60556030273438 80.31559753417969 240.11337280273438 79.53235626220703 238.4588165283203 L79.53235626220703 238.4588165283203 C81.15739440917969 237.0516815185547 82.68439483642578 235.54710388183594 84.19588470458984 234.02609252929688 C85.7073745727539 232.50509643554688 87.20335388183594 230.9676513671875 88.76634979248047 229.4947967529297 L88.76634979248047 229.4947967529297 C89.31197357177734 229.68154907226562 89.82854461669922 230.0067596435547 90.4032211303711 230.0550537109375 C93.0289535522461 230.2757110595703 92.5700454711914 227.93527221679688 92.3033447265625 226.22779846191406 L92.3033447265625 226.22779846191406 C93.7783203125 224.86557006835938 95.2762451171875 223.5316619873047 96.79045867919922 222.2163848876953 C98.30467987060547 220.901123046875 99.83518981933594 219.60447692871094 101.37535095214844 218.31678771972656 L101.37535095214844 218.31678771972656 C101.9176025390625 218.56878662109375 102.40805053710938 219.00462341308594 103.0020980834961 219.0727996826172 C105.53829956054688 219.3638458251953 105.25920104980469 217.15292358398438 105.02035522460938 215.53578186035156 L105.02035522460938 215.53578186035156 C106.16213989257812 214.56082153320312 107.30007934570312 213.58224487304688 108.44422912597656 212.61106872558594 C109.58837890625 211.639892578125 110.73873901367188 210.67611694335938 111.90534973144531 209.7307891845703 C112.52434539794922 209.2292022705078 114.19352722167969 207.99899291992188 114.55134582519531 207.21978759765625 C115.0460205078125 206.14254760742188 114.60844421386719 203.93511962890625 114.44334411621094 202.8188018798828 L114.44334411621094 202.8188018798828 C113.43345642089844 201.93014526367188 112.400390625 201.10061645507812 111.33982849121094 200.30726623535156 C110.27926635742188 199.51390075683594 109.19120788574219 198.75672912597656 108.07134246826172 198.01280212402344 L108.07134246826172 198.01280212402344 C108.07880401611328 196.7494659423828 107.7144775390625 195.44041442871094 108.05134582519531 194.22279357910156 C108.62926483154297 192.13389587402344 111.53459930419922 192.21726989746094 113.09334564208984 193.09878540039062 C114.74464416503906 194.0326385498047 116.26168060302734 195.2403564453125 117.7717514038086 196.46800231933594 C119.28181457519531 197.69564819335938 120.784912109375 198.94320678710938 122.40834045410156 199.956787109375 L122.40834045410156 199.956787109375 C124.12274169921875 198.43511962890625 125.80572509765625 196.8710174560547 127.46588134765625 195.27728271484375 C129.12603759765625 193.6835479736328 130.7633819580078 192.0601806640625 132.38650512695312 190.4199676513672 C134.00962829589844 188.77975463867188 135.61854553222656 187.12269592285156 137.2218475341797 185.4615936279297 C138.82516479492188 183.8004913330078 140.42288208007812 182.13534545898438 142.02359008789062 180.47894287109375 C143.62429809570312 178.8225555419922 145.22801208496094 177.17489624023438 146.8433380126953 175.54879760742188 C148.411865234375 173.96981811523438 149.98484802246094 172.3946533203125 151.56153869628906 170.82276916503906 C153.13824462890625 169.25086975097656 154.71865844726562 167.6822509765625 156.3020782470703 166.1163330078125 C157.88548278808594 164.5504150390625 159.4718780517578 162.9871826171875 161.06053161621094 161.4261016845703 C162.649169921875 159.86502075195312 164.2400665283203 158.3060760498047 165.83248901367188 156.7487030029297 C167.42491149902344 155.1913299560547 169.0188446044922 153.6355438232422 170.61355590820312 152.0807647705078 C172.20828247070312 150.52598571777344 173.8037872314453 148.9722137451172 175.3993377685547 147.41888427734375 C176.99488830566406 145.86557006835938 178.59048461914062 144.31268310546875 180.18540954589844 142.7596893310547 C181.7803192138672 141.20669555664062 183.37454223632812 139.65359497070312 184.9673614501953 138.09979248046875 C186.26812744140625 136.8308868408203 187.82305908203125 135.90151977539062 189.21072387695312 134.7357635498047 C190.69410705566406 133.48959350585938 192.0619659423828 132.1188507080078 193.43258666992188 130.75120544433594 C194.80322265625 129.383544921875 196.1766357421875 128.01898193359375 197.67111206054688 126.78511047363281 C198.9920196533203 125.6945571899414 200.3479461669922 124.64627075195312 201.715087890625 123.61156463623047 C203.08221435546875 122.57685852050781 204.4605255126953 121.55573272705078 205.82618713378906 120.51950073242188 C207.1918487548828 119.48326873779297 208.54486083984375 118.43193054199219 209.86135864257812 117.33679962158203 C211.72662353515625 115.7851791381836 213.57431030273438 114.21697235107422 215.40670776367188 112.63349151611328 C217.23910522460938 111.05001831054688 219.05618286132812 109.4512710571289 220.8602752685547 107.83856201171875 C222.6643524169922 106.22586059570312 224.45541381835938 104.59919738769531 226.2357635498047 102.95988464355469 C228.01609802246094 101.32057189941406 229.78570556640625 99.66862487792969 231.546875 98.00533294677734 C233.30804443359375 96.34204864501953 235.06077575683594 94.66742706298828 236.80734252929688 92.9827880859375 L236.80734252929688 92.9827880859375"></path>
<path fill="none" stroke="black" stroke-width=".3" stroke-opacity="1.0"  filling="0" d="M208.72735595703125 191.74879455566406 L208.72735595703125 191.74879455566406 C210.233154296875 190.0720672607422 212.4309539794922 190.03103637695312 213.42745971679688 192.43055725097656 C214.03347778320312 193.8898162841797 213.71633911132812 195.69683837890625 214.04635620117188 197.2297821044922 C214.42059326171875 198.96817016601562 214.97390747070312 200.65782165527344 215.42515563964844 202.36630249023438 C215.87640380859375 204.0747833251953 216.2255859375 205.8020782470703 216.19154357910156 207.61573791503906 C216.15065002441406 209.7947998046875 215.13290405273438 212.27899169921875 212.76734924316406 212.852783203125 C211.68460083007812 213.11541748046875 210.54153442382812 212.95864868164062 209.42935180664062 213.02479553222656 L209.42935180664062 213.02479553222656 C208.56626892089844 212.1503143310547 206.84588623046875 210.84609985351562 206.43234252929688 209.64979553222656 C205.78163146972656 207.76739501953125 205.990478515625 205.65408325195312 206.46046447753906 203.56224060058594 C206.93043518066406 201.47039794921875 207.66152954101562 199.40005493164062 208.0552978515625 197.60357666015625 C208.47357177734375 195.69529724121094 208.53529357910156 193.6876983642578 208.72735595703125 191.74879455566406 L208.72735595703125 191.74879455566406"></path>
<path fill="none" stroke="black" stroke-width=".3" stroke-opacity="1.0"  filling="0" d="M222.03834533691406 196.93280029296875 L222.03834533691406 196.93280029296875 C222.6604766845703 196.8135528564453 223.28240966796875 196.45675659179688 223.90472412109375 196.57504272460938 C226.19796752929688 197.0109405517578 226.22569274902344 201.294189453125 226.54017639160156 203.03013610839844 C226.848876953125 204.7340850830078 227.39894104003906 206.55355834960938 227.83438110351562 208.37722778320312 C228.2698211669922 210.2008819580078 228.5906219482422 212.0287322998047 228.4407958984375 213.7494354248047 C228.29095458984375 215.4701385498047 227.67047119140625 217.08370971679688 226.22335815429688 218.47879028320312 L226.22335815429688 218.47879028320312 C225.78253173828125 218.52633666992188 223.65403747558594 218.78025817871094 223.2073516845703 218.7307891845703 C220.44290161132812 218.4246826171875 219.543701171875 216.33627319335938 219.46282958984375 213.90821838378906 C219.3819580078125 211.48016357421875 220.11944580078125 208.7124786376953 220.6283416748047 207.04779052734375 C220.96127319335938 205.95875549316406 221.49220275878906 204.9290008544922 221.74136352539062 203.8177947998047 C222.22947692871094 201.64097595214844 222.0030975341797 199.14990234375 222.03834533691406 196.93280029296875 L222.03834533691406 196.93280029296875"></path>
<path fill="none" stroke="black" stroke-width=".3" stroke-opacity="1.0"  filling="0" d="M209.4563446044922 222.1778106689453 L209.4563446044922 222.1778106689453 C210.5692138671875 222.100830078125 212.59033203125 221.7205810546875 213.2633514404297 223.04177856445312 C214.0277099609375 224.54226684570312 213.7475128173828 227.08673095703125 214.15435791015625 228.73880004882812 C214.5187530517578 230.218505859375 215.20516967773438 232.15089416503906 215.75411987304688 234.18702697753906 C216.30307006835938 236.22317504882812 216.71453857421875 238.3630828857422 216.52908325195312 240.2578582763672 C216.34361267089844 242.15261840820312 215.56118774414062 243.80224609375 213.72235107421875 244.85780334472656 C212.26962280273438 245.6917266845703 210.5428466796875 245.49874877929688 209.10777282714844 244.72804260253906 C207.67269897460938 243.9573211669922 206.52931213378906 242.60885620117188 206.24334716796875 241.1317901611328 C205.7922821044922 238.8019561767578 206.12274169921875 236.65585327148438 206.65008544921875 234.5397186279297 C207.17742919921875 232.423583984375 207.9016571044922 230.33743286132812 208.2381134033203 228.1275177001953 C208.56173706054688 226.00184631347656 208.13589477539062 223.93841552734375 209.4563446044922 222.1778106689453 L209.4563446044922 222.1778106689453"></path>
<path fill="none" stroke="black" stroke-width=".3" stroke-opacity="1.0"  filling="0" d="M209.4563446044922 252.98480224609375 L209.4563446044922 252.98480224609375 C210.7020263671875 252.9500732421875 211.98594665527344 253.18894958496094 213.12835693359375 253.68679809570312 L213.12835693359375 253.68679809570312 C213.57159423828125 255.66461181640625 213.99057006835938 257.6343994140625 214.42041015625 259.6026611328125 C214.85025024414062 261.5709533691406 215.2909698486328 263.5376892089844 215.77772521972656 265.5093994140625 C216.10238647460938 266.82452392578125 216.45460510253906 268.4394226074219 216.5626220703125 270.0440979003906 C216.670654296875 271.6487731933594 216.53448486328125 273.2431640625 215.88235473632812 274.51727294921875 C215.16326904296875 275.92218017578125 213.718994140625 276.7991943359375 212.17083740234375 277.0555114746094 C210.6226806640625 277.31182861328125 208.97061157226562 276.947509765625 207.8359375 275.86981201171875 C206.2982635498047 274.40936279296875 205.75086975097656 272.6196594238281 205.7313232421875 270.6946105957031 C205.71176147460938 268.76953125 206.22003173828125 266.7091369628906 206.79367065429688 264.7072448730469 C207.3673095703125 262.7053527832031 208.00633239746094 260.761962890625 208.24826049804688 259.0710144042969 C208.56735229492188 256.8407287597656 208.16094970703125 254.887451171875 209.4563446044922 252.98480224609375 L209.4563446044922 252.98480224609375"></path></svg>