<svg xmlns="http://www.w3.org/2000/svg" viewBox="0.0 0.0 24.0 24.0" height="200px" width="200px"><path fill="none" stroke="black" stroke-width=".3" stroke-opacity="1.0"  filling="0" d="M18.78179931640625 5.627111911773682 L18.78179931640625 5.627111911773682 C20.567617416381836 7.689474105834961 21.460521697998047 9.863545417785645 21.46051788330078 12.037617683410645 C21.46051597595215 14.211690902709961 20.567607879638672 16.385765075683594 18.78179931640625 18.448129653930664 L18.580799102783203 18.637632369995117 L17.51385498046875 17.632030487060547 L17.714855194091797 17.442527770996094 C19.21216583251953 15.662139892578125 19.96082305908203 13.849878311157227 19.960824966430664 12.037617683410645 C19.960826873779297 10.225357055664062 19.21217155456543 8.413097381591797 17.714855194091797 6.632711410522461 L17.51385498046875 6.44320821762085 L18.580799102783203 5.437608242034912 L18.78179931640625 5.627111911773682"></path>
<path fill="none" stroke="black" stroke-width=".3" stroke-opacity="1.0"  filling="0" d="M15.637920379638672 8.0382719039917 L15.637920379638672 8.0382719039917 C16.785884857177734 9.388290405273438 17.359861373901367 10.712946891784668 17.359859466552734 12.037605285644531 C17.35985565185547 13.362262725830078 16.785873413085938 14.686922073364258 15.637920379638672 16.036943435668945 L15.41613483428955 16.237607955932617 L14.350104331970215 15.273384094238281 L14.571887969970703 15.072720527648926 C16.26312255859375 12.787208557128906 16.26313018798828 11.288240432739258 14.571887969970703 9.00275993347168 L14.350104331970215 8.802096366882324 L15.41613483428955 7.8376078605651855 L15.637920379638672 8.0382719039917"></path>
<path fill="none" stroke="black" stroke-width=".3" stroke-opacity="1.0"  filling="0" d="M6.583536148071289 14.751216888427734 L2.5035362243652344 14.751216888427734 L2.5035362243652344 9.231216430664062 L6.583536148071289 9.231216430664062 L12.583536148071289 5.242391586303711 L12.583536148071289 11.916804313659668 L12.583536148071289 18.591217041015625"></path></svg>