<svg xmlns="http://www.w3.org/2000/svg" viewBox="0.0 0.0 24.0 24.0" height="200px" width="200px"><path fill="none" stroke="black" stroke-width=".3" stroke-opacity="1.0"  filling="0" d="M17.518051147460938 4.496217250823975 L17.518051147460938 4.496217250823975 C17.973243713378906 4.433742523193359 17.580156326293945 4.950697422027588 17.518051147460938 4.496217250823975 L17.518051147460938 4.496217250823975"></path>
<path fill="none" stroke="black" stroke-width=".3" stroke-opacity="1.0"  filling="0" d="M18.323944091796875 5.108902454376221 L18.323944091796875 5.108902454376221 C17.86948013305664 5.169682502746582 18.26236915588379 4.653172016143799 18.323944091796875 5.108902454376221 L18.323944091796875 5.108902454376221"></path>
<path fill="none" stroke="black" stroke-width=".3" stroke-opacity="1.0"  filling="0" d="M17.32770538330078 5.201789379119873 L17.32770538330078 5.201789379119873 C16.872825622558594 5.26473331451416 17.266517639160156 4.746464252471924 17.32770538330078 5.201789379119873 L17.32770538330078 5.201789379119873"></path>
<path fill="none" stroke="black" stroke-width=".3" stroke-opacity="1.0"  filling="0" d="M18.9117488861084 5.3110222816467285 L18.9117488861084 5.3110222816467285 C18.907114028930664 5.331888675689697 18.902477264404297 5.352754592895508 18.897842407226562 5.373620986938477 L18.733287811279297 5.589761734008789 C18.687347412109375 5.614603519439697 18.66408348083496 5.639349937438965 18.616397857666016 5.598486423492432 L18.3773193359375 5.365809917449951 C18.307647705078125 5.452220439910889 18.23797607421875 5.538631439208984 18.168304443359375 5.625041961669922 L18.46483612060547 5.798130512237549 C18.487503051757812 5.829739570617676 18.496641159057617 5.874589920043945 18.48796272277832 5.912506103515625 L18.32375144958496 6.1290283203125 C18.278566360473633 6.1531877517700195 18.25395393371582 6.1787333488464355 18.207014083862305 6.137562274932861 L17.95296287536621 5.890636444091797 C17.879785537719727 5.980412483215332 17.806608200073242 6.070188999176025 17.733430862426758 6.1599650382995605 L17.733430862426758 6.1599650382995605 C17.7344970703125 6.16032075881958 17.735565185546875 6.1606764793396 17.736631393432617 6.161032199859619 L18.05042266845703 6.34372091293335 C18.072998046875 6.37544584274292 18.08200454711914 6.420357704162598 18.07320785522461 6.458287715911865 L17.90918731689453 6.67480993270874 C17.863332748413086 6.699295520782471 17.83991813659668 6.723989486694336 17.792295455932617 6.683343887329102 L17.53203582763672 6.430169582366943 C17.5251522064209 6.41693639755249 17.518266677856445 6.403703212738037 17.511383056640625 6.390470027923584 L16.93817138671875 6.723158359527588 L16.30803680419922 6.2445855140686035 L16.510652542114258 5.648092269897461 C16.50555992126465 5.6462507247924805 16.50046730041504 5.6444091796875 16.49537467956543 5.6425676345825195 L16.182077407836914 5.459878444671631 C16.1299991607666 5.425161361694336 16.14755630493164 5.395575523376465 16.15876007080078 5.344969272613525 L16.323314666748047 5.128828525543213 C16.357662200927734 5.1102423667907715 16.403488159179688 5.106878280639648 16.440166473388672 5.120293617248535 L16.679244995117188 5.353008270263672 L16.878849029541016 5.078689098358154 L16.596872329711914 4.914135456085205 C16.544862747192383 4.878894329071045 16.562026977539062 4.8506760597229 16.5733642578125 4.799188137054443 L16.73772621154785 4.582856178283691 C16.772171020507812 4.564556121826172 16.817705154418945 4.561174392700195 16.854427337646484 4.57432222366333 L17.083599090576172 4.797054290771484 L17.276081085205078 4.532145977020264 L17.006027221679688 4.375058650970459 C16.95441246032715 4.339415073394775 16.9718017578125 4.311214923858643 16.983434677124023 4.259958744049072 L17.147262573242188 4.04416036605835 C17.181692123413086 4.025543689727783 17.22749900817871 4.022043704986572 17.264345169067383 4.0352463722229 L17.482467651367188 4.247690677642822 L17.759300231933594 3.866957664489746 C18.1230525970459 4.167083740234375 18.486806869506836 4.467209339141846 18.85055923461914 4.767335414886475 L18.85055923461914 4.767335414886475 C18.764808654785156 4.876453876495361 18.679059982299805 4.98557186126709 18.59330940246582 5.094690322875977 L18.874408721923828 5.258711338043213 C18.886856079101562 5.276148319244385 18.899301528930664 5.293585300445557 18.9117488861084 5.3110222816467285 L18.9117488861084 5.3110222816467285"></path>
<path fill="none" stroke="black" stroke-width=".3" stroke-opacity="1.0"  filling="0" d="M17.91478729248047 5.647787094116211 L17.91478729248047 5.647787094116211 C17.46004295349121 5.709305763244629 17.85205078125 5.192412376403809 17.91478729248047 5.647787094116211 L17.91478729248047 5.647787094116211"></path>
<path fill="none" stroke="black" stroke-width=".3" stroke-opacity="1.0"  filling="0" d="M16.913177490234375 5.747952461242676 L16.913177490234375 5.747952461242676 C16.458337783813477 5.809543609619141 16.851648330688477 5.292224884033203 16.913177490234375 5.747952461242676 L16.913177490234375 5.747952461242676"></path>
<path fill="none" stroke="black" stroke-width=".3" stroke-opacity="1.0"  filling="0" d="M17.499879837036133 6.193417072296143 L17.499879837036133 6.193417072296143 C17.044532775878906 6.255415916442871 17.43825912475586 5.738128185272217 17.499879837036133 6.193417072296143 L17.499879837036133 6.193417072296143"></path>
<path fill="none" stroke="black" stroke-width=".3" stroke-opacity="1.0"  filling="0" d="M12.547000885009766 12.671854019165039 L12.547000885009766 12.671854019165039 C12.967735290527344 13.252522468566895 13.898904800415039 13.725399017333984 13.782428741455078 14.432948112487793 C13.652907371520996 15.219742774963379 12.530820846557617 15.52528190612793 12.253859519958496 16.273021697998047 C11.737719535827637 17.66649627685547 12.249351501464844 18.3287353515625 11.028451919555664 19.517841339111328 C9.23067855834961 21.268800735473633 6.191249847412109 18.954954147338867 5.3481316566467285 17.289756774902344 C4.1187591552734375 14.861688613891602 6.6839985847473145 14.243941307067871 8.066028594970703 13.224249839782715 C9.635353088378906 12.06636905670166 9.920866012573242 9.2901029586792 12.303465843200684 11.363502502441406 L16.206348419189453 6.404604911804199 L16.807830810546875 6.86199426651001 L12.547000885009766 12.671854019165039"></path>
<path fill="none" stroke="black" stroke-width=".3" stroke-opacity="1.0"  filling="0" d="M9.832036972045898 13.592805862426758 L9.832036972045898 13.592805862426758 C10.261792182922363 13.534170150756836 10.775983810424805 13.15444278717041 11.121301651000977 13.416897773742676 C12.173932075500488 14.216938018798828 10.908269882202148 15.566354751586914 10.007792472839355 14.881956100463867 C9.66250991821289 14.619527816772461 9.89062213897705 14.022522926330566 9.832036972045898 13.592805862426758 L9.832036972045898 13.592805862426758"></path>
<path fill="none" stroke="black" stroke-width=".3" stroke-opacity="1.0"  filling="0" d="M11.040339469909668 17.052547454833984 L11.040339469909668 17.052547454833984 C9.057283401489258 16.523456573486328 10.910412788391113 14.850743293762207 11.909741401672363 14.179049491882324 C12.024282455444336 14.10206127166748 12.092519760131836 14.385881423950195 12.183908462524414 14.489297866821289 L12.183908462524414 14.489297866821289 C12.133914947509766 15.423553466796875 11.571844100952148 16.282588958740234 11.040339469909668 17.052547454833984 L11.040339469909668 17.052547454833984"></path>
<path fill="none" stroke="black" stroke-width=".3" stroke-opacity="1.0"  filling="0" d="M9.95727252960205 17.549636840820312 L7.74537992477417 15.868782043457031 L8.018251419067383 15.509233474731445 L10.230485916137695 17.189899444580078 L9.95727252960205 17.549636840820312"></path></svg>