<svg xmlns="http://www.w3.org/2000/svg" viewBox="0.0 0.0 24.0 24.0" height="200px" width="200px"><path fill="none" stroke="black" stroke-width=".3" stroke-opacity="1.0"  filling="0" d="M12.000107765197754 4.706760406494141 L12.000107765197754 4.706760406494141 C11.5867919921875 4.536084175109863 11.076512336730957 4.510772705078125 10.760160446166992 4.194732189178467 C9.673933029174805 3.109574794769287 10.464739799499512 1.2000007629394531 12.000107765197754 1.2000007629394531 C13.5352144241333 1.2000007629394531 14.329493522644043 3.108706474304199 13.241459846496582 4.194732189178467 C12.924665451049805 4.510941982269287 12.413891792297363 4.536084175109863 12.000107765197754 4.706760406494141 L12.000107765197754 4.706760406494141"></path>
<path fill="none" stroke="black" stroke-width=".3" stroke-opacity="1.0"  filling="0" d="M13.702188491821289 8.70362377166748 L13.702188491821289 8.70362377166748 C13.591740608215332 8.985072135925293 13.481291770935059 9.266519546508789 13.370843887329102 9.547967910766602 L16.2116756439209 16.35585594177246 L13.50973129272461 16.35585594177246 L12.635580062866211 22.799999237060547 L11.364204406738281 22.799999237060547 L10.490052223205566 16.35607147216797 L7.7878923416137695 16.35607147216797 L10.628939628601074 9.547752380371094 C10.518563270568848 9.266304016113281 10.408187866210938 8.984856605529785 10.297811508178711 8.703408241271973 L7.678596019744873 13.574423789978027 L7.052844047546387 13.15063190460205 L8.403923988342285 9.279696464538574 L9.755003929138184 5.4087605476379395 L14.24521255493164 5.4087605476379395 L15.596183776855469 9.279804229736328 L16.947154998779297 13.150848388671875 L16.32140350341797 13.574640274047852 L13.702188491821289 8.70362377166748"></path></svg>