<svg xmlns="http://www.w3.org/2000/svg" viewBox="0.0 0.0 24.0 24.0" height="200px" width="200px"><path fill="none" stroke="black" stroke-width=".3" stroke-opacity="1.0"  filling="0" d="M13.21500015258789 6.768696308135986 L13.21500015258789 6.768696308135986 C12.830573081970215 7.372745037078857 12.356863021850586 7.919137001037598 11.86500072479248 8.439455032348633 L10.97054386138916 9.300000190734863 L15.459239959716797 9.300000190734863 L19.947935104370117 9.300000190734863 C21.75503921508789 9.675477981567383 22.65870475769043 10.837727546691895 22.65878677368164 11.999982833862305 C22.658870697021484 13.162237167358398 21.75537109375 14.324498176574707 19.948150634765625 14.699999809265137 L15.526847839355469 14.699999809265137 L11.105545043945312 14.699999809265137 L12.557063102722168 16.303150177001953 C12.821447372436523 16.85999870300293 13.272501945495605 17.36219024658203 13.350215911865234 17.973695755004883 C13.51900863647461 19.30187225341797 11.863691329956055 20.958818435668945 10.531847953796387 20.774784088134766 C9.92135238647461 20.690425872802734 9.429384231567383 20.22355079650879 8.878152847290039 19.947935104370117 L7.4776082038879395 18.58108901977539 C6.004708766937256 17.138946533203125 4.554326057434082 15.677989959716797 3.1239118576049805 14.193695068359375 L1.0313053131103516 12.0 L3.1239118576049805 9.806304931640625 C4.554344177246094 8.32203197479248 6.004771709442139 6.861114501953125 7.4776082038879395 5.418912410736084 L8.979455947875977 3.9676084518432617 C9.468839645385742 3.7200725078582764 9.958224296569824 3.472536325454712 10.44760799407959 3.2250003814697266 L10.616304397583008 3.2250003814697266 C12.550629615783691 3.5226261615753174 13.523067474365234 4.8434038162231445 13.21500015258789 6.768696308135986 L13.21500015258789 6.768696308135986"></path></svg>