<svg xmlns="http://www.w3.org/2000/svg" viewBox="0.0 0.0 24.0 24.0" height="200px" width="200px"><path fill="none" stroke="black" stroke-width=".3" stroke-opacity="1.0"  filling="0" d="M7.55234432220459 8.368499755859375 L9.589223861694336 6.999060153961182 L11.626104354858398 8.368499755859375 L9.589223861694336 9.737939834594727 L7.55234432220459 8.368499755859375"></path>
<path fill="none" stroke="black" stroke-width=".3" stroke-opacity="1.0"  filling="0" d="M5.52885627746582 10.882092475891113 L7.696847915649414 10.882092475891113 L7.696847915649414 13.35010814666748 L5.52885627746582 13.35010814666748 L5.52885627746582 10.882092475891113"></path>
<path fill="none" stroke="black" stroke-width=".3" stroke-opacity="1.0"  filling="0" d="M8.214599609375 10.882092475891113 L10.38259220123291 10.882092475891113 L10.38259220123291 13.35010814666748 L8.214599609375 13.35010814666748 L8.214599609375 10.882092475891113"></path>
<path fill="none" stroke="black" stroke-width=".3" stroke-opacity="1.0"  filling="0" d="M10.900343894958496 10.882092475891113 L13.099872589111328 10.882092475891113 L13.099872589111328 13.35010814666748 L10.900343894958496 13.35010814666748 L10.900343894958496 10.882092475891113"></path>
<path fill="none" stroke="black" stroke-width=".3" stroke-opacity="1.0"  filling="0" d="M13.61740779876709 10.882092475891113 L15.785401344299316 10.882092475891113 L15.785401344299316 13.35010814666748 L13.61740779876709 13.35010814666748 L13.61740779876709 10.882092475891113"></path>
<path fill="none" stroke="black" stroke-width=".3" stroke-opacity="1.0"  filling="0" d="M16.303150177001953 10.882092475891113 L18.471141815185547 10.882092475891113 L18.471141815185547 13.35010814666748 L16.303150177001953 13.35010814666748 L16.303150177001953 10.882092475891113"></path>
<path fill="none" stroke="black" stroke-width=".3" stroke-opacity="1.0"  filling="0" d="M18.988895416259766 10.882092475891113 L20.088119506835938 10.882092475891113 L20.76679229736328 13.35010814666748 L18.989112854003906 13.35010814666748 L18.988895416259766 10.882092475891113"></path>
<path fill="none" stroke="black" stroke-width=".3" stroke-opacity="1.0"  filling="0" d="M5.011103630065918 13.35010814666748 L3.233424186706543 13.35010814666748 L3.9118804931640625 10.882092475891113 L5.011103630065918 10.882092475891113 L5.011103630065918 13.35010814666748"></path>
<path fill="none" stroke="black" stroke-width=".3" stroke-opacity="1.0"  filling="0" d="M6.438000202178955 16.576499938964844 L6.9795122146606445 16.576499938964844 C7.170888423919678 16.701419830322266 7.362264156341553 16.826339721679688 7.553640365600586 16.95125961303711 L5.863872051239014 16.95125961303711 C6.055248260498047 16.826339721679688 6.246623992919922 16.701419830322266 6.438000202178955 16.576499938964844 L6.438000202178955 16.576499938964844"></path>
<path fill="none" stroke="black" stroke-width=".3" stroke-opacity="1.0"  filling="0" d="M16.065120697021484 16.95125961303711 L12.0 16.95125961303711 L7.934880256652832 16.95125961303711 C8.126255989074707 16.826339721679688 8.317632675170898 16.701419830322266 8.509008407592773 16.576499938964844 L15.490992546081543 16.576499938964844 C15.682368278503418 16.701419830322266 15.87374496459961 16.826339721679688 16.065120697021484 16.95125961303711 L16.065120697021484 16.95125961303711"></path>
<path fill="none" stroke="black" stroke-width=".3" stroke-opacity="1.0"  filling="0" d="M18.136127471923828 16.95125961303711 L16.446359634399414 16.95125961303711 C16.63773536682129 16.826339721679688 16.829111099243164 16.701419830322266 17.02048683166504 16.576499938964844 L17.562000274658203 16.576499938964844 C17.753376007080078 16.701419830322266 17.944751739501953 16.826339721679688 18.136127471923828 16.95125961303711 L18.136127471923828 16.95125961303711"></path>
<path fill="none" stroke="black" stroke-width=".3" stroke-opacity="1.0"  filling="0" d="M18.521472930908203 16.95125961303711 L22.799999237060547 16.95125961303711 L22.799999237060547 17.62474822998047 L15.600000381469727 17.62474822998047 L8.40000057220459 17.62474822998047 L1.2000007629394531 17.62474822998047 L1.2000007629394531 16.95125961303711 L5.478528022766113 16.95125961303711 C5.2453203201293945 16.74001121520996 5.012112617492676 16.528764724731445 4.778904914855957 16.317516326904297 L2.6964492797851562 16.317516326904297 L2.6964492797851562 13.35010814666748 L3.5172481536865234 10.364339828491211 L9.0546236038208 10.364339828491211 L9.0546236038208 10.00253963470459 L6.62440824508667 8.368499755859375 L9.589223861694336 6.375036239624023 L12.553824424743652 8.368499755859375 L10.123607635498047 10.00253963470459 L10.123607635498047 10.364339828491211 L15.303180694580078 10.364339828491211 L20.48275375366211 10.364339828491211 L21.303550720214844 13.35010814666748 L21.303550720214844 16.317516326904297 L19.22088050842285 16.317516326904297 C18.98774528503418 16.528764724731445 18.754608154296875 16.74001121520996 18.521472930908203 16.95125961303711 L18.521472930908203 16.95125961303711"></path></svg>