<svg xmlns="http://www.w3.org/2000/svg" viewBox="0.0 0.0 24.0 24.0" height="200px" width="200px"><path fill="none" stroke="black" stroke-width=".3" stroke-opacity="1.0"  filling="0" d="M18.37869644165039 4.271304607391357 L18.37869644165039 4.271304607391357 C18.50253677368164 4.670688629150391 18.626375198364258 5.070072174072266 18.750215530395508 5.469456195831299 L18.750215530395508 10.723152160644531 L18.750215530395508 15.976848602294922 L18.750215530395508 21.230545043945312 C18.626447677612305 21.629928588867188 18.67456817626953 22.133039474487305 18.3789119720459 22.428695678710938 C18.083255767822266 22.72435188293457 17.58014488220215 22.676231384277344 17.180761337280273 22.799999237060547 L12.00010871887207 22.799999237060547 L6.819456100463867 22.799999237060547 C6.420072078704834 22.67630386352539 5.916966438293457 22.724533081054688 5.621304035186768 22.428911209106445 C5.325626850128174 22.13327407836914 5.373767852783203 21.630144119262695 5.25 21.23076057434082 L5.25 15.976993560791016 L5.25 10.723224639892578 L5.25 5.469456195831299 C5.373767852783203 5.070072174072266 5.325647354125977 4.566961288452148 5.621304035186768 4.271304607391357 C5.916961193084717 3.9756476879119873 6.420072078704834 4.023768424987793 6.819456100463867 3.90000057220459 L9.300000190734863 3.90000057220459 L9.300000190734863 2.7694568634033203 C9.423768043518066 2.370072603225708 9.375646591186523 1.8669613599777222 9.671303749084473 1.5713043212890625 C9.966960906982422 1.2756472826004028 10.470071792602539 1.3237686157226562 10.86945629119873 1.2000007629394531 L13.130544662475586 1.2000007629394531 C13.529928207397461 1.3237686157226562 14.033039093017578 1.275647521018982 14.328695297241211 1.5713043212890625 C14.62435245513916 1.8669614791870117 14.576231956481934 2.370072603225708 14.699999809265137 2.7694568634033203 L14.699999809265137 3.90000057220459 L17.180543899536133 3.90000057220459 C17.579927444458008 4.023768424987793 17.979312896728516 4.147536754608154 18.37869644165039 4.271304607391357 L18.37869644165039 4.271304607391357"></path>
<path fill="none" stroke="black" stroke-width=".3" stroke-opacity="1.0"  filling="0" d="M7.950000286102295 6.600000381469727 L12.0 6.600000381469727 L16.049999237060547 6.600000381469727 L16.049999237060547 13.34999942779541 L16.049999237060547 20.099998474121094 L12.0 20.099998474121094 L7.950000286102295 20.099998474121094 L7.950000286102295 13.34999942779541 L7.950000286102295 6.600000381469727"></path></svg>