<svg xmlns="http://www.w3.org/2000/svg" viewBox="0.0 0.0 24.0 24.0" height="200px" width="200px"><path fill="none" stroke="black" stroke-width=".3" stroke-opacity="1.0"  filling="0" d="M10.52342414855957 4.829772472381592 L10.52342414855957 4.829772472381592 C11.064712524414062 3.6385951042175293 13.47657585144043 2.6276421546936035 13.47657585144043 4.829772472381592 C13.47657585144043 7.034607887268066 11.065171241760254 6.023383140563965 10.52342414855957 4.829772472381592 L10.52342414855957 4.829772472381592"></path>
<path fill="none" stroke="black" stroke-width=".3" stroke-opacity="1.0"  filling="0" d="M22.698911666870117 13.695059776306152 L22.799999237060547 17.647645950317383 L21.588455200195312 16.938514709472656 C20.392223358154297 18.658172607421875 18.89459991455078 19.947940826416016 17.24628257751465 20.807802200317383 C15.597965240478516 21.66766357421875 13.798954010009766 22.09761619567871 11.999946594238281 22.09764289855957 C10.200940132141113 22.097667694091797 8.401937484741211 21.667766571044922 6.753637790679932 20.807918548583984 C5.105338096618652 19.948070526123047 3.607740879058838 18.658275604248047 2.4115447998046875 16.938514709472656 L1.2000007629394531 17.647645950317383 L1.3010883331298828 13.695059776306152 L5.258423805236816 15.275099754333496 L3.9485998153686523 16.042333602905273 C4.888449192047119 17.371265411376953 5.885191440582275 18.317258834838867 7.043650150299072 19.006364822387695 C8.202109336853027 19.695472717285156 9.522284507751465 20.12769317626953 11.109000205993652 20.4290771484375 L11.109000205993652 14.075653076171875 L11.109000205993652 7.722228527069092 C10.105619430541992 7.246312141418457 9.515708923339844 7.172667026519775 8.962200164794922 6.118996620178223 C7.838625907897949 3.980140447616577 9.806407928466797 1.7720775604248047 12.0 1.7720775604248047 C14.193592071533203 1.7720775604248047 16.161373138427734 3.9801416397094727 15.037799835205078 6.118996620178223 C14.48429012298584 7.172667026519775 13.894380569458008 7.246311187744141 12.890999794006348 7.722228527069092 L12.890999794006348 14.075653076171875 L12.890999794006348 20.4290771484375 C14.477653503417969 20.12761878967285 15.797826766967773 19.695375442504883 16.956300735473633 19.006275177001953 C18.114774703979492 18.317174911499023 19.111547470092773 17.371217727661133 20.05139923095703 16.042333602905273 L18.741575241088867 15.275099754333496 L22.698911666870117 13.695059776306152"></path></svg>