<svg xmlns="http://www.w3.org/2000/svg" viewBox="0.0 0.0 24.0 24.0" height="200px" width="200px"><path fill="none" stroke="black" stroke-width=".3" stroke-opacity="1.0"  filling="0" d="M22.339920043945312 7.261608123779297 L22.339920043945312 7.261608123779297 C22.49335289001465 7.54140043258667 22.64678382873535 7.821192264556885 22.800216674804688 8.100984573364258 L22.800216674804688 14.658096313476562 C22.520353317260742 15.03753662109375 22.240488052368164 15.416975975036621 21.96062469482422 15.796416282653809 L15.656449317932129 15.796416282653809 C15.56000804901123 13.787327766418457 13.504496574401855 12.365701675415039 11.644736289978027 13.450624465942383 C10.53723430633545 14.096704483032227 10.62415599822998 14.65900993347168 10.323840141296387 15.774816513061523 L5.76192045211792 15.768119812011719 L1.2000007629394531 15.761423110961914 L1.2000007629394531 15.198959350585938 L3.341856002807617 15.198959350585938 L3.341856002807617 7.963824272155762 C3.712224245071411 7.657968521118164 4.082592487335205 7.352112293243408 4.452960968017578 7.0462565422058105 L4.452960968017578 7.0462565422058105 C6.374745845794678 6.4310736656188965 8.360724449157715 6.1154866218566895 10.3685884475708 6.012937068939209 C12.37645149230957 5.91038703918457 14.406200408935547 6.0208740234375 16.415525436401367 6.257838726043701 C18.424850463867188 6.4948039054870605 20.41375160217285 6.858246803283691 22.339920043945312 7.261608123779297 L22.339920043945312 7.261608123779297"></path>
<path fill="none" stroke="black" stroke-width=".3" stroke-opacity="1.0"  filling="0" d="M9.304104804992676 10.619327545166016 L5.779416084289551 10.619327545166016 L5.779416084289551 8.318927764892578 L9.303888320922852 8.318927764892578 L9.304104804992676 10.619327545166016"></path>
<path fill="none" stroke="black" stroke-width=".3" stroke-opacity="1.0"  filling="0" d="M19.79198455810547 10.619327545166016 L13.205280303955078 10.619327545166016 L13.205280303955078 8.318927764892578 L19.79198455810547 8.318927764892578 L19.79198455810547 10.619327545166016"></path>
<path fill="none" stroke="black" stroke-width=".3" stroke-opacity="1.0"  filling="0" d="M12.990143775939941 13.638360023498535 L12.990143775939941 13.638360023498535 C13.486106872558594 13.84371280670166 14.098442077636719 13.874866485595703 14.478033065795898 14.25441837310791 C15.781244277954102 15.5574951171875 14.833950996398926 17.849063873291016 12.990143775939941 17.849063873291016 C11.146369934082031 17.849063873291016 10.199384689331055 15.55739688873291 11.502363204956055 14.25441837310791 C11.881911277770996 13.874870300292969 12.494216918945312 13.84371280670166 12.990143775939941 13.638360023498535 L12.990143775939941 13.638360023498535"></path>
<path fill="none" stroke="black" stroke-width=".3" stroke-opacity="1.0"  filling="0" d="M2.4752635955810547 16.151304244995117 L2.4752635955810547 16.151304244995117 C2.7819840908050537 16.457088470458984 3.3954248428344727 16.635549545288086 3.3954248428344727 17.068655014038086 C3.3954248428344727 18.703386306762695 1.555105209350586 17.88826560974121 1.555105209350586 17.068655014038086 C1.555105209350586 16.635549545288086 2.168544054031372 16.457088470458984 2.4752635955810547 16.151304244995117 L2.4752635955810547 16.151304244995117"></path>
<path fill="none" stroke="black" stroke-width=".3" stroke-opacity="1.0"  filling="0" d="M12.990143775939941 16.743144989013672 L12.990143775939941 16.743144989013672 C12.656496047973633 16.409496307373047 11.9891996383667 16.214048385620117 11.9891996383667 15.742198944091797 C11.9891996383667 15.407121658325195 13.988279342651367 13.424467086791992 13.988279342651367 15.742198944091797 C13.988279342651367 16.21338653564453 13.322855949401855 16.409496307373047 12.990143775939941 16.743144989013672 L12.990143775939941 16.743144989013672"></path></svg>