<svg xmlns="http://www.w3.org/2000/svg" viewBox="0.0 0.0 24.0 24.0" height="200px" width="200px"><path fill="none" stroke="black" stroke-width=".3" stroke-opacity="1.0"  filling="0" d="M12.0 7.01039981842041 L12.0 7.01039981842041 C12.309599876403809 7.211999893188477 12.619199752807617 7.413600444793701 12.928799629211426 7.615200519561768 L12.928799629211426 7.615200519561768 C12.619199752807617 7.766400337219238 12.309599876403809 7.917600154876709 12.0 8.06879997253418 L12.0 8.06879997253418 C11.690400123596191 7.917600154876709 11.380800247192383 7.766400337219238 11.071200370788574 7.615200519561768 L11.071200370788574 7.615200519561768 C11.380800247192383 7.413600444793701 11.690400123596191 7.211999893188477 12.0 7.01039981842041 L12.0 7.01039981842041"></path>
<path fill="none" stroke="black" stroke-width=".3" stroke-opacity="1.0"  filling="0" d="M14.592000007629395 8.500799179077148 L14.592000007629395 8.500799179077148 C15.719602584838867 8.703460693359375 17.271512985229492 8.8167142868042 18.19999885559082 9.646400451660156 C18.797252655029297 10.18010139465332 19.641847610473633 11.391594886779785 18.431398391723633 11.700300216674805 C17.5728816986084 11.919251441955566 16.678199768066406 11.957700729370117 15.801599502563477 12.086400985717773 L15.801599502563477 12.086400985717773 C15.83244800567627 12.390312194824219 16.349315643310547 14.915999412536621 15.391199111938477 14.915999412536621 L15.391199111938477 14.915999412536621 C14.62487506866455 14.53283977508545 13.960583686828613 13.129223823547363 13.490400314331055 12.431999206542969 L13.490400314331055 12.431999206542969 C13.43616771697998 13.191258430480957 13.36982536315918 13.974540710449219 13.079999923706055 14.678400039672852 L13.079999923706055 14.678400039672852 C12.965344429016113 15.121736526489258 13.015000343322754 15.672200202941895 12.691200256347656 15.996000289916992 L12.691200256347656 15.996000289916992 C13.294349670410156 17.503887176513672 10.662450790405273 17.503887176513672 11.265600204467773 15.996000289916992 L11.265600204467773 15.996000289916992 C11.139307975769043 15.5651216506958 10.89840030670166 15.149004936218262 10.89840030670166 14.699999809265137 L10.89840030670166 14.699999809265137 C10.608575820922852 13.996140480041504 10.54223346710205 13.212859153747559 10.48799991607666 12.45359992980957 L10.48799991607666 12.45359992980957 C10.200684547424316 12.879653930664062 9.164966583251953 14.937600135803223 8.565600395202637 14.937600135803223 L8.565600395202637 14.937600135803223 C7.697242259979248 14.431059837341309 8.100824356079102 12.860725402832031 8.176799774169922 12.107999801635742 L8.176799774169922 12.107999801635742 C7.305600166320801 11.981999397277832 6.416162490844727 11.94753360748291 5.5632004737854 11.729999542236328 C4.321538925170898 11.413333892822266 5.186659336090088 10.204840660095215 5.808800220489502 9.652800559997559 C6.750411033630371 8.817286491394043 8.287137031555176 8.706442832946777 9.42959976196289 8.500799179077148 L9.42959976196289 8.500799179077148 C9.7391996383667 8.198399543762207 10.048800468444824 7.895999908447266 10.358400344848633 7.593600273132324 L10.358400344848633 7.593600273132324 C10.37279987335205 7.593600273132324 10.387200355529785 7.593600273132324 10.401599884033203 7.593600273132324 L10.401599884033203 7.593600273132324 C10.754400253295898 7.219200134277344 11.107199668884277 6.8448004722595215 11.460000038146973 6.470400333404541 L11.460000038146973 6.470400333404541 C10.996537208557129 5.5434651374816895 11.289536476135254 5.131664276123047 10.393500328063965 4.477800369262695 C10.01304817199707 4.200173377990723 9.125033378601074 4.239189147949219 9.170400619506836 3.7704010009765625 C9.240541458129883 3.045611619949341 10.74620532989502 3.8783388137817383 11.265600204467773 4.388700485229492 C11.66925048828125 4.785330295562744 11.769598960876465 5.402100086212158 12.021598815917969 5.90880012512207 L12.021598815917969 5.90880012512207 C12.273599624633789 5.402100086212158 12.373950004577637 4.785330772399902 12.777600288391113 4.388700485229492 C13.296995162963867 3.8783392906188965 14.802658081054688 3.04561185836792 14.872798919677734 3.7704010009765625 C14.952802658081055 4.597102165222168 13.481311798095703 4.711843013763428 12.93690013885498 5.339100360870361 C12.686915397644043 5.627126693725586 12.701099395751953 6.064500331878662 12.583199501037598 6.4272003173828125 L12.583199501037598 6.4272003173828125 C12.57599925994873 6.441600322723389 12.56879997253418 6.456000328063965 12.561599731445312 6.470400333404541 L12.561599731445312 6.470400333404541 C12.914400100708008 6.8448004722595215 13.267199516296387 7.219200134277344 13.619999885559082 7.593600273132324 L13.619999885559082 7.593600273132324 C14.063194274902344 7.593600273132324 14.274949073791504 8.191122055053711 14.592000007629395 8.500799179077148 L14.592000007629395 8.500799179077148"></path>
<path fill="none" stroke="black" stroke-width=".3" stroke-opacity="1.0"  filling="0" d="M5.584799766540527 11.071200370788574 L5.584799766540527 11.071200370788574 C6.530580043792725 9.752951622009277 7.499661445617676 9.497734069824219 9.062399864196777 9.21359920501709 L9.062399864196777 9.21359920501709 C8.77756404876709 9.957849502563477 8.52648639678955 10.715700149536133 8.306400299072266 11.481599807739258 L8.306400299072266 11.481599807739258 C7.394107341766357 11.384400367736816 6.4781999588012695 11.279914855957031 5.584799766540527 11.071200370788574 L5.584799766540527 11.071200370788574"></path>
<path fill="none" stroke="black" stroke-width=".3" stroke-opacity="1.0"  filling="0" d="M15.715198516845703 11.481599807739258 L15.715198516845703 11.481599807739258 C15.495113372802734 10.715700149536133 15.244035720825195 9.957849502563477 14.959199905395508 9.21359920501709 L14.959199905395508 9.21359920501709 C16.51692008972168 9.496822357177734 17.4893856048584 9.76164722442627 18.436800003051758 11.071200370788574 L18.436800003051758 11.071200370788574 C17.542627334594727 11.27658462524414 16.627397537231445 11.383514404296875 15.715198516845703 11.481599807739258 L15.715198516845703 11.481599807739258"></path>
<path fill="none" stroke="black" stroke-width=".3" stroke-opacity="1.0"  filling="0" d="M12.756000518798828 13.900799751281738 L12.756000518798828 13.900799751281738 C12.691200256347656 14.0447998046875 12.626399993896484 14.188799858093262 12.561599731445312 14.332799911499023 L12.561599731445312 14.332799911499023 C12.547200202941895 14.332799911499023 12.53279972076416 14.332799911499023 12.518400192260742 14.332799911499023 L12.518400192260742 14.332799911499023 C12.181168556213379 14.360901832580566 11.840327262878418 14.362114906311035 11.503199577331543 14.332799911499023 L11.503199577331543 14.332799911499023 C11.488800048828125 14.332799911499023 11.47439956665039 14.332799911499023 11.460000038146973 14.332799911499023 L11.460000038146973 14.332799911499023 C11.065437316894531 13.455991744995117 11.153207778930664 12.427274703979492 11.114400863647461 11.481599807739258 L11.114400863647461 11.481599807739258 C11.425102233886719 10.943050384521484 11.713154792785645 10.39162540435791 12.0 9.84000015258789 L12.0 9.84000015258789 C12.291348457336426 10.400286674499512 12.585254669189453 10.959917068481445 12.90719985961914 11.503199577331543 L12.90719985961914 11.503199577331543 C12.8801851272583 12.303531646728516 12.833012580871582 13.103723526000977 12.756000518798828 13.900799751281738 L12.756000518798828 13.900799751281738"></path>
<path fill="none" stroke="black" stroke-width=".3" stroke-opacity="1.0"  filling="0" d="M8.673600196838379 13.92240047454834 L8.673600196838379 13.92240047454834 C8.786513328552246 12.037087440490723 8.994915008544922 7.51712703704834 11.654399871826172 8.630400657653809 L11.654399871826172 8.630400657653809 C11.797215461730957 10.201311111450195 9.435494422912598 12.802281379699707 8.673600196838379 13.92240047454834 L8.673600196838379 13.92240047454834"></path>
<path fill="none" stroke="black" stroke-width=".3" stroke-opacity="1.0"  filling="0" d="M15.326399803161621 13.92240047454834 L15.326399803161621 13.92240047454834 C14.563234329223633 12.796175003051758 12.223899841308594 10.206713676452637 12.367199897766113 8.630400657653809 L12.367199897766113 8.630400657653809 C15.01768970489502 7.520891189575195 15.214040756225586 12.042917251586914 15.326399803161621 13.92240047454834 L15.326399803161621 13.92240047454834"></path>
<path fill="none" stroke="black" stroke-width=".3" stroke-opacity="1.0"  filling="0" d="M12.302400588989258 15.542400360107422 L12.302400588989258 15.542400360107422 C11.790472030639648 15.728557586669922 11.750054359436035 15.591763496398926 11.568000793457031 15.045599937438965 L11.568000793457031 15.045599937438965 C11.862832069396973 15.060340881347656 12.158734321594238 15.059639930725098 12.45359992980957 15.045599937438965 L12.45359992980957 15.045599937438965 C12.403200149536133 15.211199760437012 12.352800369262695 15.376800537109375 12.302400588989258 15.542400360107422 L12.302400588989258 15.542400360107422"></path>
<path fill="none" stroke="black" stroke-width=".3" stroke-opacity="1.0"  filling="0" d="M12.086400985717773 16.514400482177734 L12.086400985717773 16.514400482177734 C12.028800010681152 16.514400482177734 11.971199989318848 16.514400482177734 11.913599014282227 16.514400482177734 L11.913599014282227 16.514400482177734 C11.906399726867676 16.435199737548828 11.899199485778809 16.356000900268555 11.892000198364258 16.27680015563965 L11.892000198364258 16.27680015563965 C11.971199989318848 16.27680015563965 12.050399780273438 16.27680015563965 12.129600524902344 16.27680015563965 L12.129600524902344 16.27680015563965 C12.115200996398926 16.356000900268555 12.100800514221191 16.435199737548828 12.086400985717773 16.514400482177734 L12.086400985717773 16.514400482177734"></path>
<path fill="none" stroke="black" stroke-width=".3" stroke-opacity="1.0"  filling="0" d="M14.354400634765625 18.04800033569336 L14.959199905395508 18.652799606323242 C14.959199905395508 19.147443771362305 14.96849250793457 19.30417823791504 14.484000205993652 19.128000259399414 L13.879199981689453 18.5231990814209 C13.879199981689453 18.2991886138916 14.130389213562012 18.04800033569336 14.354400634765625 18.04800033569336 L14.354400634765625 18.04800033569336"></path>
<path fill="none" stroke="black" stroke-width=".3" stroke-opacity="1.0"  filling="0" d="M9.278400421142578 18.263999938964844 L9.278400421142578 18.263999938964844 C9.49713134765625 18.253583908081055 9.743656158447266 18.498844146728516 9.753600120544434 18.71759796142578 L9.38640022277832 19.128000259399414 C8.918638229370117 19.340618133544922 8.933090209960938 19.15597152709961 8.911200523376465 18.674400329589844 L9.278400421142578 18.263999938964844"></path>
<path fill="none" stroke="black" stroke-width=".3" stroke-opacity="1.0"  filling="0" d="M11.935200691223145 19.04159927368164 L11.935200691223145 19.04159927368164 C12.043200492858887 19.149599075317383 12.151200294494629 19.257598876953125 12.259200096130371 19.365598678588867 L12.259200096130371 20.1864013671875 C12.106465339660645 20.339136123657227 11.763935089111328 20.339136123657227 11.611200332641602 20.1864013671875 L11.611200332641602 19.365598678588867 C11.719200134277344 19.257598876953125 11.827200889587402 19.149599075317383 11.935200691223145 19.04159927368164 L11.935200691223145 19.04159927368164"></path></svg>