<svg xmlns="http://www.w3.org/2000/svg" viewBox="0.0 0.0 24.0 24.0" height="200px" width="200px"><path fill="none" stroke="black" stroke-width=".3" stroke-opacity="1.0"  filling="0" d="M18.350399017333984 7.420799732208252 L18.350399017333984 7.420799732208252 C18.328798294067383 7.5503997802734375 18.307199478149414 7.680000305175781 18.285598754882812 7.809600353240967 L16.77359962463379 9.321599960327148 C16.694400787353516 9.3503999710083 16.61520004272461 9.379199981689453 16.536001205444336 9.407999992370605 L15.067198753356934 9.407999992370605 L13.684799194335938 10.790400505065918 C14.617003440856934 12.356500625610352 15.189057350158691 13.712703704833984 14.426288604736328 15.552863121032715 C13.813555717468262 17.031064987182617 12.51150894165039 17.95702362060547 11.081621170043945 18.23240852355957 C9.651732444763184 18.50779151916504 8.094001770019531 18.132598876953125 6.969900608062744 17.008499145507812 C5.845798492431641 15.884398460388184 5.470606803894043 14.326667785644531 5.745991230010986 12.896780014038086 C6.02137565612793 11.466891288757324 6.947335243225098 10.164844512939453 8.425537109375 9.552112579345703 C10.287169456481934 8.78044319152832 11.6400785446167 9.375932693481445 13.209599494934082 10.336799621582031 L14.61359977722168 8.93280029296875 L14.635200500488281 7.485600471496582 C14.664000511169434 7.406400203704834 14.69279956817627 7.327200412750244 14.721599578857422 7.248000144958496 L16.233598709106445 5.736000061035156 C16.43377113342285 5.700675964355469 16.68528175354004 5.802618503570557 16.795198440551758 5.973600387573242 L16.795198440551758 7.226400375366211 L18.04800033569336 7.226400375366211 C18.148799896240234 7.291200160980225 18.24959945678711 7.355999946594238 18.350399017333984 7.420799732208252 L18.350399017333984 7.420799732208252"></path>
<path fill="none" stroke="black" stroke-width=".3" stroke-opacity="1.0"  filling="0" d="M15.283199310302734 7.636800289154053 L16.125598907470703 6.794400215148926 L16.125598907470703 7.420799732208252 L15.283199310302734 8.263199806213379 L15.283199310302734 7.636800289154053"></path>
<path fill="none" stroke="black" stroke-width=".3" stroke-opacity="1.0"  filling="0" d="M16.384801864624023 8.73840045928955 L15.736800193786621 8.73840045928955 L16.579198837280273 7.896000385284424 L17.22719955444336 7.896000385284424 L16.384801864624023 8.73840045928955"></path>
<path fill="none" stroke="black" stroke-width=".3" stroke-opacity="1.0"  filling="0" d="M10.812000274658203 13.771200180053711 L10.812000274658203 13.771200180053711 C10.610400199890137 13.972800254821777 10.492305755615234 14.375999450683594 10.207200050354004 14.375999450683594 C9.13654613494873 14.375999450683594 9.659783363342285 13.088203430175781 10.358400344848633 13.187999725341797 L9.991199493408203 13.555200576782227 C9.991199493408203 14.049845695495605 9.98190975189209 14.206576347351074 10.466400146484375 14.030400276184082 L10.812000274658203 13.684799194335938 C10.812000274658203 13.71359920501709 10.812000274658203 13.742400169372559 10.812000274658203 13.771200180053711 L10.812000274658203 13.771200180053711"></path>
<path fill="none" stroke="black" stroke-width=".3" stroke-opacity="1.0"  filling="0" d="M12.45359992980957 13.771200180053711 L12.45359992980957 13.771200180053711 C12.232199668884277 14.305800437927246 12.198554992675781 14.965845108032227 11.789400100708008 15.375 C10.35600757598877 16.808391571044922 8.864910125732422 15.918267250061035 8.279934883117676 14.630882263183594 C7.69495964050293 13.343497276306152 8.016105651855469 11.658851623535156 10.207200050354004 11.503199577331543 C10.684134483337402 11.469318389892578 11.114400863647461 11.805599212646484 11.568000793457031 11.956799507141113 L10.85520076751709 12.669599533081055 C9.70730209350586 12.363494873046875 8.06445598602295 13.437456130981445 9.30270004272461 14.675700187683105 C10.510881423950195 15.883882522583008 11.61857795715332 14.319112777709961 11.330400466918945 13.166400909423828 L12.043200492858887 12.45359992980957 C12.180000305175781 12.892800331115723 12.316800117492676 13.331999778747559 12.45359992980957 13.771200180053711 L12.45359992980957 13.771200180053711"></path>
<path fill="none" stroke="black" stroke-width=".3" stroke-opacity="1.0"  filling="0" d="M14.116799354553223 13.771200180053711 L14.116799354553223 13.771200180053711 C13.853578567504883 15.075733184814453 13.961258888244629 15.54673957824707 12.971999168395996 16.535999298095703 C12.012676239013672 17.495323181152344 10.682130813598633 17.815654754638672 9.460780143737793 17.580656051635742 C8.239429473876953 17.345657348632812 7.127273082733154 16.555328369140625 6.604725360870361 15.293325424194336 C5.738286972045898 13.20079517364502 6.489670276641846 11.60823917388916 7.850881099700928 10.774928092956543 C9.212091445922852 9.941617012023926 11.18312931060791 9.86755084991455 12.756000518798828 10.812000274658203 L12.043200492858887 11.524800300598145 C10.60209846496582 11.016176223754883 10.145657539367676 10.463950157165527 8.731200218200684 11.277600288391113 C6.833865165710449 12.369020462036133 6.852926731109619 15.219949722290039 8.740800857543945 16.308000564575195 C10.54394817352295 17.347219467163086 13.279793739318848 16.05507469177246 13.123200416564941 13.792799949645996 C13.079487800598145 13.161284446716309 12.70560073852539 12.597599983215332 12.496800422668457 12.0 L13.209599494934082 11.287199974060059 C13.654319763183594 12.048286437988281 13.96033763885498 12.903703689575195 14.116799354553223 13.771200180053711 L14.116799354553223 13.771200180053711"></path></svg>