<svg xmlns="http://www.w3.org/2000/svg" viewBox="0.0 0.0 24.0 24.0" height="200px" width="200px"><path fill="none" stroke="black" stroke-width=".3" stroke-opacity="1.0"  filling="0" d="M13.977155685424805 7.071311950683594 L8.629644393920898 7.071311950683594 L8.629644393920898 2.560152053833008 L13.977155685424805 2.560152053833008 L13.977155685424805 7.071311950683594"></path>
<path fill="none" stroke="black" stroke-width=".3" stroke-opacity="1.0"  filling="0" d="M16.651884078979492 9.378623962402344 L15.604284286499023 9.378623962402344 L15.604284286499023 4.035216331481934 L16.835268020629883 5.131416320800781 L16.835268020629883 6.675168037414551 L17.518260955810547 6.675168037414551 L17.518260955810547 7.226184368133545 C17.605308532714844 7.323744297027588 17.69235610961914 7.421304225921631 17.779403686523438 7.518864154815674 L19.09095573425293 7.518864154815674 L19.09095573425293 13.218024253845215 L19.09095573425293 18.917184829711914 C18.890003204345703 19.15341567993164 18.68905258178711 19.3896484375 18.488100051879883 19.625879287719727 L18.45937156677246 19.625879287719727 C18.258563995361328 19.3896484375 18.057756423950195 19.15341567993164 17.856948852539062 18.917184829711914 L17.856948852539062 14.827980041503906 L17.856948852539062 10.738775253295898 C17.579992294311523 10.200068473815918 17.230039596557617 9.559305191040039 16.651884078979492 9.378623962402344 L16.651884078979492 9.378623962402344"></path>
<path fill="none" stroke="black" stroke-width=".3" stroke-opacity="1.0"  filling="0" d="M16.80978012084961 19.60341453552246 L16.80967140197754 15.183947563171387 L16.80956268310547 10.764480590820312 C16.731082916259766 10.67836856842041 16.652603149414062 10.592256546020508 16.57412338256836 10.506144523620605 L15.604284286499023 10.506144523620605 L15.604284286499023 16.049028396606445 L15.604284286499023 21.59191131591797 L19.957763671875 21.59191131591797 L19.957763671875 22.799999237060547 L14.591460227966309 22.799999237060547 L9.225156784057617 22.799999237060547 L3.858853340148926 22.799999237060547 L3.858853340148926 21.59191131591797 L7.004028797149658 21.59191131591797 L7.004028797149658 14.794608116149902 L7.004028797149658 7.997304439544678 L7.004028797149658 1.2000007629394531 L11.304156303405762 1.2000007629394531 L15.604284286499023 1.2000007629394531 L15.604284286499023 3.1098718643188477 L18.95919418334961 5.315232276916504 C19.35325050354004 5.8212480545043945 19.7473087310791 6.327264308929443 20.14136505126953 6.833280086517334 L20.14136505126953 13.218347549438477 L20.14136505126953 19.60341453552246 C19.871477127075195 20.22345542907715 19.111766815185547 20.51732063293457 18.48853302001953 20.77975082397461 L18.45980453491211 20.77975082397461 C17.838098526000977 20.515663146972656 17.08758544921875 20.219114303588867 16.80978012084961 19.60341453552246 L16.80978012084961 19.60341453552246"></path></svg>