<svg xmlns="http://www.w3.org/2000/svg" viewBox="0.0 0.0 24.0 24.0" height="200px" width="200px"><path fill="none" stroke="black" stroke-width=".3" stroke-opacity="1.0"  filling="0" d="M10.035384178161621 2.7746381759643555 L10.010323524475098 2.775078773498535 C9.784330368041992 2.7857353687286377 8.178771018981934 2.8395395278930664 8.854900360107422 2.3426733016967773 L15.131031036376953 2.3426733016967773 C15.871421813964844 2.8789007663726807 14.199016571044922 2.783087968826294 13.993192672729492 2.7746381759643555 L13.966374397277832 2.7746381759643555 C12.402217864990234 3.736945867538452 14.016579627990723 6.860355854034424 14.540128707885742 8.237838745117188 L14.814696311950684 8.456130027770996 C16.337736129760742 9.256063461303711 16.818132400512695 9.33081340789795 17.97871971130371 10.641557693481445 C18.823740005493164 11.595907211303711 19.44779396057129 12.767751693725586 19.756826400756836 14.005454063415527 C20.303850173950195 16.196340560913086 19.924823760986328 17.84139633178711 18.98596954345703 19.033641815185547 C18.047115325927734 20.225889205932617 16.548433303833008 20.965328216552734 14.856148719787598 21.344982147216797 C13.163863182067871 21.72463607788086 11.277975082397461 21.744503021240234 9.56470775604248 21.49761199951172 C8.023554801940918 21.275522232055664 6.628763198852539 20.724994659423828 5.621282577514648 19.81113052368164 C4.613801956176758 18.897266387939453 3.9936327934265137 17.62006187438965 4.001725673675537 15.944618225097656 C4.008091926574707 14.626655578613281 4.318122386932373 13.376199722290039 4.934274196624756 12.211191177368164 C5.931681156158447 10.325312614440918 7.369325160980225 9.409202575683594 9.189920425415039 8.454371452331543 L9.441405296325684 8.268835067749023 C9.989603042602539 6.891244888305664 11.570218086242676 3.7420201301574707 10.035384178161621 2.7746381759643555 L10.035384178161621 2.7746381759643555"></path>
<path fill="none" stroke="black" stroke-width=".3" stroke-opacity="1.0"  filling="0" d="M18.57685661315918 13.348873138427734 L18.57685661315918 13.348873138427734 C18.788738250732422 14.143763542175293 19.055526733398438 14.878169059753418 18.990354537963867 15.722150802612305 C18.78606414794922 18.36774444580078 17.038482666015625 19.92475700378418 14.825906753540039 20.596088409423828 C12.613330841064453 21.267419815063477 9.935762405395508 21.053070068359375 7.8715009689331055 20.15593910217285 C6.6270294189453125 19.615089416503906 5.699275970458984 18.532384872436523 5.240472316741943 17.275362014770508 C4.781668663024902 16.018339157104492 4.791814804077148 14.586996078491211 5.423142910003662 13.348873138427734 C5.795050621032715 12.61950969696045 6.219546794891357 11.904412269592285 6.755578517913818 11.285577774047852 C7.528994083404541 10.39268970489502 8.354948997497559 9.914641380310059 9.28840446472168 9.316102027893066 L14.711376190185547 9.316102027893066 C16.507904052734375 10.468143463134766 17.415559768676758 11.550881385803223 18.57685661315918 13.348873138427734 L18.57685661315918 13.348873138427734"></path>
<path fill="none" stroke="black" stroke-width=".3" stroke-opacity="1.0"  filling="0" d="M16.60608673095703 18.57025909423828 L16.60608673095703 18.57025909423828 C14.853850364685059 19.10811424255371 16.633543014526367 16.442819595336914 16.69283676147461 16.20421028137207 C16.80547523498535 15.750937461853027 16.572261810302734 15.260527610778809 16.667417526245117 14.803264617919922 C16.989906311035156 13.253581047058105 17.903539657592773 14.726682662963867 17.871002197265625 15.417859077453613 C17.845186233520508 15.96627426147461 17.87860107421875 16.54358673095703 17.674148559570312 17.05312156677246 C17.443836212158203 17.627099990844727 16.962106704711914 18.064546585083008 16.60608673095703 18.57025909423828 L16.60608673095703 18.57025909423828"></path>
<path fill="none" stroke="black" stroke-width=".3" stroke-opacity="1.0"  filling="0" d="M12.0 22.799999237060547 L12.0 22.799999237060547 C10.663727760314941 22.736103057861328 9.258675575256348 22.64777946472168 7.943257808685303 22.31336212158203 C6.627840995788574 21.97894287109375 5.4020586013793945 21.398433685302734 4.424327850341797 20.35016632080078 C3.056177854537964 18.883316040039062 2.5859169960021973 17.20995330810547 2.725494146347046 15.548391342163086 C2.8650712966918945 13.886829376220703 3.6144862174987793 12.237068176269531 4.685687065124512 10.817418098449707 C5.756888389587402 9.3977689743042 7.149875640869141 8.208230972290039 8.576597213745117 7.4671173095703125 L8.576597213745117 7.4671173095703125 C8.909622192382812 6.302996635437012 9.196263313293457 5.1251959800720215 9.451077461242676 3.941493034362793 L9.451077461242676 3.941493034362793 C8.816826820373535 3.94696044921875 6.983708381652832 3.4686312675476074 7.536803245544434 2.3560829162597656 C7.796966075897217 1.8327662944793701 8.415534973144531 1.5853614807128906 8.854900360107422 1.2000007629394531 L15.18862533569336 1.2010993957519531 C15.622056007385254 1.611301064491272 16.231121063232422 1.8934955596923828 16.488916397094727 2.431704521179199 C17.000579833984375 3.4999258518218994 15.189678192138672 3.962372303009033 14.526280403137207 3.942591667175293 L14.526280403137207 3.942591667175293 C14.780165672302246 5.127902030944824 15.074055671691895 6.305999755859375 15.422964096069336 7.466897010803223 L15.422964096069336 7.466897010803223 C16.84963607788086 8.208105087280273 18.242626190185547 9.397631645202637 19.313846588134766 10.817237854003906 C20.385066986083984 12.23684310913086 21.134517669677734 13.886528968811035 21.274110794067383 15.548054695129395 C21.41370391845703 17.20958137512207 20.943439483642578 18.882946014404297 19.575231552124023 20.34991455078125 C18.59746742248535 21.39825439453125 17.371841430664062 21.97883415222168 16.056564331054688 22.31329917907715 C14.741287231445312 22.647764205932617 13.3363618850708 22.736114501953125 12.0 22.799999237060547 L12.0 22.799999237060547"></path></svg>