<svg xmlns="http://www.w3.org/2000/svg" viewBox="0.0 0.0 24.0 24.0" height="200px" width="200px"><path fill="none" stroke="black" stroke-width=".3" stroke-opacity="1.0"  filling="0" d="M17.993999481201172 1.2000007629394531 L17.993999481201172 2.1685447692871094 L11.981964111328125 2.1685447692871094 L5.96992826461792 2.1685447692871094 L5.96992826461792 1.2000007629394531 L11.981964111328125 1.2000007629394531 L17.993999481201172 1.2000007629394531"></path>
<path fill="none" stroke="black" stroke-width=".3" stroke-opacity="1.0"  filling="0" d="M5.96992826461792 2.1685447692871094 L6.900456428527832 2.1685447692871094 L6.900456428527832 9.368796348571777 L6.900456428527832 16.569047927856445 L5.96992826461792 16.569047927856445 L5.96992826461792 9.368796348571777 L5.96992826461792 2.1685447692871094"></path>
<path fill="none" stroke="black" stroke-width=".3" stroke-opacity="1.0"  filling="0" d="M17.063255310058594 2.1685447692871094 L17.993999481201172 2.1685447692871094 L17.993999481201172 9.368796348571777 L17.993999481201172 16.569047927856445 L17.063255310058594 16.569047927856445 L17.063255310058594 9.368796348571777 L17.063255310058594 2.1685447692871094"></path>
<path fill="none" stroke="black" stroke-width=".3" stroke-opacity="1.0"  filling="0" d="M18.699024200439453 11.295191764831543 L18.699024200439453 11.295191764831543 C20.125154495239258 11.993096351623535 20.633861541748047 12.028790473937988 21.610973358154297 13.359746932983398 C23.131088256835938 15.43034553527832 23.114112854003906 17.59001922607422 22.169172286987305 19.32402992248535 C21.224231719970703 21.058040618896484 19.351327896118164 22.366390228271484 17.159591674804688 22.734336853027344 L11.982071876525879 22.734336853027344 L6.80455207824707 22.734336853027344 C4.612853050231934 22.366416931152344 2.739849090576172 21.05810546875 1.7948051691055298 19.32410430908203 C0.8497613072395325 17.590103149414062 0.8326777219772339 15.430415153503418 2.3528196811676025 13.359746932983398 C3.329986572265625 12.028695106506348 3.838817596435547 11.993048667907715 5.265120029449463 11.295191764831543 L5.265120029449463 11.295191764831543 C6.203536510467529 12.970748901367188 6.683014392852783 13.578412055969238 8.547672271728516 14.067119598388672 L15.416687965393066 14.067119598388672 C17.281248092651367 13.578399658203125 17.760618209838867 12.970645904541016 18.699024200439453 11.295191764831543 L18.699024200439453 11.295191764831543"></path>
<path fill="none" stroke="black" stroke-width=".3" stroke-opacity="1.0"  filling="0" d="M20.105182647705078 14.681424140930176 L20.105182647705078 14.681424140930176 C18.708251953125 13.226747512817383 21.50355339050293 13.227362632751465 20.105182647705078 14.681424140930176 L20.105182647705078 14.681424140930176"></path>
<path fill="none" stroke="black" stroke-width=".3" stroke-opacity="1.0"  filling="0" d="M20.105182647705078 16.542478561401367 L20.105182647705078 16.542478561401367 C18.708633422851562 15.087695121765137 21.503170013427734 15.088309288024902 20.105182647705078 16.542478561401367 L20.105182647705078 16.542478561401367"></path>
<path fill="none" stroke="black" stroke-width=".3" stroke-opacity="1.0"  filling="0" d="M17.993999481201172 16.569047927856445 L17.993999481201172 17.538238525390625 L11.981964111328125 17.538238525390625 L5.96992826461792 17.538238525390625 L5.96992826461792 16.569047927856445 L11.981964111328125 16.569047927856445 L17.993999481201172 16.569047927856445"></path>
<path fill="none" stroke="black" stroke-width=".3" stroke-opacity="1.0"  filling="0" d="M18.066791534423828 19.84511947631836 L11.981964111328125 19.84511947631836 L5.897136688232422 19.84511947631836 L5.897136688232422 18.178680419921875 L11.981964111328125 18.178680419921875 L18.066791534423828 18.178680419921875 L18.066791534423828 19.84511947631836"></path></svg>