<svg xmlns="http://www.w3.org/2000/svg" viewBox="0.0 0.0 24.0 24.0" height="200px" width="200px"><path fill="none" stroke="black" stroke-width=".3" stroke-opacity="1.0"  filling="0" d="M8.257584571838379 9.30971908569336 L4.373688697814941 7.374360084533691 L8.07247257232666 4.921356678009033 L11.771256446838379 2.468353271484375 C11.856648445129395 2.490385055541992 11.942039489746094 2.5124168395996094 12.02743148803711 2.5344486236572266 L15.665519714355469 4.954404354095459 L19.303607940673828 7.374360084533691 L15.55903148651123 9.30971908569336 C15.308359146118164 8.07697868347168 14.111748695373535 7.258974552154541 12.757610321044922 6.9605865478515625 C11.403470993041992 6.662198543548584 9.891803741455078 6.883426666259766 9.011016845703125 7.729151725769043 C8.590017318725586 8.133392333984375 8.508728981018066 8.78286361694336 8.257584571838379 9.30971908569336 L8.257584571838379 9.30971908569336"></path>
<path fill="none" stroke="black" stroke-width=".3" stroke-opacity="1.0"  filling="0" d="M8.580719947814941 9.798095703125 L8.580719947814941 9.798095703125 C8.931426048278809 8.702098846435547 10.359431266784668 8.277551651000977 11.42349624633789 7.8394083976745605 L11.42349624633789 7.8394083976745605 C13.43775749206543 7.880392551422119 14.00665283203125 8.182350158691406 15.21947956085205 9.798095703125 L15.21947956085205 9.798095703125 C15.21947956085205 10.375823974609375 15.21947956085205 10.95355224609375 15.21947956085205 11.531280517578125 L15.21947956085205 11.531280517578125 C15.338855743408203 11.6853609085083 15.458231925964355 11.83944034576416 15.577608108520508 11.993520736694336 L15.577608108520508 11.993520736694336 C15.408120155334473 12.579024314880371 15.238632202148438 13.164528846740723 15.069144248962402 13.750032424926758 L14.773872375488281 13.750032424926758 C14.421367645263672 14.769737243652344 13.890915870666504 15.727259635925293 13.313063621520996 16.638381958007812 L13.313063621520996 16.638381958007812 C15.863494873046875 17.273183822631836 17.800487518310547 18.013959884643555 19.58073616027832 19.982927322387695 L19.58073616027832 21.73900604248047 L14.489400863647461 21.73900604248047 L9.398064613342285 21.73900604248047 L4.306728839874268 21.73900604248047 L4.306728839874268 20.075376510620117 C4.6633381843566895 19.27398681640625 5.488339424133301 18.760108947753906 6.201264381408691 18.249095916748047 L6.201264381408691 18.249095916748047 C7.6449713706970215 17.517118453979492 8.95751667022705 17.020957946777344 10.545455932617188 16.702102661132812 L10.545455932617188 16.702102661132812 C9.867334365844727 15.843615531921387 9.49421501159668 14.778127670288086 9.078383445739746 13.766231536865234 L9.078383445739746 13.766231536865234 C8.816447257995605 13.4159517288208 8.554512023925781 13.065671920776367 8.29257583618164 12.715392112731934 L8.29257583618164 12.715392112731934 C8.400575637817383 12.334152221679688 8.508575439453125 11.952911376953125 8.616575241088867 11.571671485900879 L8.580719947814941 9.798095703125"></path>
<path fill="none" stroke="black" stroke-width=".3" stroke-opacity="1.0"  filling="0" d="M6.500856399536133 12.545831680297852 L6.500856399536133 12.545831680297852 C6.3547682762146 12.829296112060547 6.208680152893066 13.112759590148926 6.062592029571533 13.396224021911621 L6.062592029571533 13.396224021911621 C5.877624034881592 13.145735740661621 5.692656517028809 12.895248413085938 5.507688522338867 12.644760131835938 L5.507688522338867 12.644760131835938 C5.536258697509766 10.561042785644531 5.645707130432129 8.492319107055664 5.819375991821289 6.415751934051514 L5.819375991821289 6.415751934051514 C5.823192119598389 6.411287784576416 5.827008247375488 6.406824111938477 5.830824375152588 6.402359962463379 L5.830824375152588 6.402359962463379 C5.246984958648682 5.486599445343018 6.739551067352295 5.487020015716553 6.187440395355225 6.394800186157227 L6.187440395355225 6.394800186157227 C6.19320011138916 6.401856422424316 6.198960304260254 6.408912181854248 6.2047200202941895 6.415968418121338 L6.500856399536133 12.545831680297852"></path></svg>