<svg xmlns="http://www.w3.org/2000/svg" viewBox="0.0 0.0 24.0 24.0" height="200px" width="200px"><path fill="none" stroke="black" stroke-width=".3" stroke-opacity="1.0"  filling="0" d="M8.636260032653809 5.581954479217529 L8.636260032653809 5.581954479217529 C8.887551307678223 4.37872838973999 8.797897338867188 3.8010153770446777 9.997112274169922 2.984895944595337 C11.689386367797852 1.8332278728485107 13.398191452026367 2.5741050243377686 14.258286476135254 3.88198184967041 C15.11838150024414 5.189858913421631 15.129766464233398 7.064735412597656 13.427201271057129 8.181066513061523 C13.037348747253418 8.436683654785156 12.549032211303711 8.494307518005371 12.10994815826416 8.650927543640137 L12.10994815826416 8.650927543640137 C12.10840892791748 7.642813205718994 12.10840892791748 6.634695529937744 12.10994815826416 5.62658166885376 L12.10994815826416 5.62658166885376 C14.310126304626465 7.813095569610596 12.911727905273438 3.965087890625 11.558015823364258 4.4447479248046875 C10.134109497070312 4.94927978515625 9.558849334716797 7.453401565551758 11.387716293334961 5.62453031539917 L11.387716293334961 5.62453031539917 C11.389938354492188 6.634695053100586 11.390624046325684 7.644864559173584 11.389768600463867 8.655031204223633 L11.389768600463867 8.655031204223633 C9.613897323608398 7.955746650695801 9.055747032165527 7.453914642333984 8.636260032653809 5.581954479217529 L8.636260032653809 5.581954479217529"></path>
<path fill="none" stroke="black" stroke-width=".3" stroke-opacity="1.0"  filling="0" d="M3.0846166610717773 13.335174560546875 L3.0846166610717773 13.335174560546875 C3.7511353492736816 11.811714172363281 6.112486839294434 11.172470092773438 4.34800910949707 12.953540802001953 L4.34800910949707 12.953540802001953 C6.695262908935547 12.956276893615723 9.04251480102539 12.95593547821045 11.389769554138184 12.95559310913086 L11.389769554138184 12.95559310913086 C11.390110969543457 11.76692008972168 11.389427185058594 10.5782470703125 11.387716293334961 9.389575004577637 L11.387716293334961 9.389575004577637 C10.119979858398438 9.029080390930176 8.978689193725586 8.260879516601562 8.358445167541504 7.241560459136963 C7.7382001876831055 6.222241401672363 7.63900089263916 4.951805591583252 8.455446243286133 3.586841583251953 C9.276095390319824 2.214850425720215 9.88916301727295 2.253556251525879 11.276920318603516 1.7322759628295898 L12.220746040344238 1.7322759628295898 C13.680780410766602 2.2941339015960693 14.296587944030762 2.2395436763763428 15.124035835266113 3.7225170135498047 C15.849281311035156 5.022320747375488 15.730963706970215 6.301868438720703 15.11373233795166 7.325073719024658 C14.496500968933105 8.348278999328613 13.380355834960938 9.115140914916992 12.109949111938477 9.389575004577637 L12.109949111938477 9.389575004577637 C12.10823917388916 10.5782470703125 12.10755443572998 11.76692008972168 12.107895851135254 12.95559310913086 L12.107895851135254 12.95559310913086 C13.37385368347168 12.95518684387207 14.639811515808105 12.95526123046875 15.905768394470215 12.955143928527832 C17.17172622680664 12.955026626586914 18.43768310546875 12.954715728759766 19.70363998413086 12.953540802001953 L19.70363998413086 12.953540802001953 C17.642993927001953 10.852485656738281 20.937339782714844 11.995155334472656 20.940874099731445 13.253104209899902 C20.944801330566406 14.650527954101562 17.6350154876709 15.808393478393555 19.68517303466797 13.696290969848633 L19.68517303466797 13.696290969848633 C18.422290802001953 13.694538116455078 17.159412384033203 13.694131851196289 15.896533966064453 13.694110870361328 C14.633655548095703 13.694089889526367 13.370777130126953 13.694453239440918 12.107894897460938 13.694239616394043 L12.107894897460938 13.694239616394043 C12.108322143554688 16.130409240722656 12.106441497802734 18.566564559936523 12.109947204589844 21.002731323242188 L12.109947204589844 21.002731323242188 C12.363001823425293 20.75583267211914 12.544818878173828 20.40285301208496 12.869112014770508 20.262035369873047 C13.4215087890625 20.022167205810547 13.516668319702148 20.57088851928711 13.322558403015137 20.818069458007812 C12.884398460388184 21.376026153564453 12.34957504272461 21.80158805847168 11.81654167175293 22.25022315979004 L11.683175086975098 22.25022315979004 C10.465838432312012 21.310523986816406 9.566226959228516 19.225553512573242 11.387715339660645 21.002731323242188 L11.387715339660645 21.002731323242188 C11.391221046447754 18.566566467285156 11.3893404006958 16.13040542602539 11.38976764678955 13.694239616394043 L11.38976764678955 13.694239616394043 C9.042511940002441 13.694666862487793 6.695262908935547 13.692785263061523 4.348008155822754 13.696290969848633 L4.348008155822754 13.696290969848633 C6.371365547180176 15.785109519958496 3.176093101501465 14.67733383178711 3.084615707397461 13.335174560546875 L3.084615707397461 13.335174560546875"></path></svg>