<svg xmlns="http://www.w3.org/2000/svg" viewBox="0.0 0.0 24.0 24.0" height="200px" width="200px"><path fill="none" stroke="black" stroke-width=".3" stroke-opacity="1.0"  filling="0" d="M94.07999420166016 70.83023071289062 L94.07999420166016 70.83023071289062 C93.72322082519531 72.597412109375 93.28667449951172 74.04645538330078 91.44153594970703 74.81074523925781 C90.03797912597656 75.39212036132812 88.53759765625 75.16093444824219 87.38809967041016 74.40243530273438 C86.23860168457031 73.64393615722656 85.43999481201172 72.35812377929688 85.43999481201172 70.83023071289062 C85.43999481201172 69.30233764648438 86.23860168457031 68.01652526855469 87.38809967041016 67.25802612304688 C88.53759765625 66.49952697753906 90.03797912597656 66.26834106445312 91.44153594970703 66.84971618652344 C93.28667449951172 67.61399841308594 93.72322082519531 69.06304168701172 94.07999420166016 70.83023071289062 L94.07999420166016 70.83023071289062"></path>
<path fill="none" stroke="black" stroke-width=".3" stroke-opacity="1.0"  filling="0" d="M7.233300685882568 207.58729553222656 L11.84167194366455 207.58729553222656 L16.450042724609375 207.58729553222656 L16.450042724609375 214.86367797851562 L16.450042724609375 222.14004516601562 L11.84167194366455 222.14004516601562 L7.233300685882568 222.14004516601562 L7.233300685882568 214.86367797851562 L7.233300685882568 207.58729553222656"></path>
<path fill="none" stroke="black" stroke-width=".3" stroke-opacity="1.0"  filling="0" d="M7.233303546905518 222.52874755859375 L11.841673851013184 222.52874755859375 L16.450044631958008 222.52874755859375 L18.390411376953125 227.86474609375 L11.841673851013184 227.86474609375 L5.2929368019104 227.86474609375 L7.233303546905518 222.52874755859375"></path>
<path fill="none" stroke="black" stroke-width=".3" stroke-opacity="1.0"  filling="0" d="M11.786725044250488 223.0909423828125 L14.212182998657227 224.54620361328125 L12.75691032409668 224.54620361328125 L13.242000579833984 227.21421813964844 L10.331449508666992 227.21421813964844 L10.816542625427246 224.54620361328125 L9.361268997192383 224.54620361328125 L11.786725044250488 223.0909423828125"></path></svg>