<svg xmlns="http://www.w3.org/2000/svg" viewBox="0.0 0.0 24.0 24.0" height="200px" width="200px"><path fill="none" stroke="black" stroke-width=".3" stroke-opacity="1.0"  filling="0" d="M12.45230484008789 3.891143798828125 L12.903743743896484 4.350792407989502 L11.947296142578125 4.924704074859619 L11.460000038146973 4.437408447265625 L12.45230484008789 3.891143798828125"></path>
<path fill="none" stroke="black" stroke-width=".3" stroke-opacity="1.0"  filling="0" d="M10.789535522460938 4.8076324462890625 L11.296055793762207 5.314152717590332 L10.267895698547363 5.932128429412842 L9.728328704833984 5.3927764892578125 L10.789535522460938 4.8076324462890625"></path>
<path fill="none" stroke="black" stroke-width=".3" stroke-opacity="1.0"  filling="0" d="M13.440503120422363 4.895760536193848 L13.912464141845703 5.3761444091796875 L13.056672096252441 6.034080505371094 L12.551448822021484 5.529072284698486 L13.440503120422363 4.895760536193848"></path>
<path fill="none" stroke="black" stroke-width=".3" stroke-opacity="1.0"  filling="0" d="M9.056783676147461 5.761488437652588 L9.618383407592773 6.323088645935059 L8.814647674560547 6.804768085479736 L8.2282075881958 6.2185444831848145 L9.056783676147461 5.761488437652588"></path>
<path fill="none" stroke="black" stroke-width=".3" stroke-opacity="1.0"  filling="0" d="M14.336472511291504 5.8055524826049805 L14.812536239624023 6.290040016174316 L14.058480262756348 7.036104679107666 L13.586520195007324 6.563928604125977 L14.336472511291504 5.8055524826049805"></path>
<path fill="none" stroke="black" stroke-width=".3" stroke-opacity="1.0"  filling="0" d="M11.942975997924805 5.9610724449157715 L12.467424392700195 6.485520362854004 L11.534303665161133 7.198536396026611 L10.980912208557129 6.645144462585449 L11.942975997924805 5.9610724449157715"></path>
<path fill="none" stroke="black" stroke-width=".3" stroke-opacity="1.0"  filling="0" d="M15.236543655395508 6.722256183624268 L15.71023178100586 7.203936576843262 L15.093551635742188 8.071176528930664 L14.58832836151123 7.565952301025391 L15.236543655395508 6.722256183624268"></path>
<path fill="none" stroke="black" stroke-width=".3" stroke-opacity="1.0"  filling="0" d="M10.374167442321777 7.078656196594238 L10.945056915283203 7.6499762535095215 L10.217135429382324 8.20747184753418 L9.622488021850586 7.612824440002441 L10.374167442321777 7.078656196594238"></path>
<path fill="none" stroke="black" stroke-width=".3" stroke-opacity="1.0"  filling="0" d="M13.067472457885742 7.085568428039551 L13.536840438842773 7.554936408996582 L12.709559440612793 8.374008178710938 L12.24839973449707 7.912848472595215 L13.067472457885742 7.085568428039551"></path>
<path fill="none" stroke="black" stroke-width=".3" stroke-opacity="1.0"  filling="0" d="M16.251096725463867 7.7532243728637695 L16.731264114379883 8.241816520690918 L16.2042236328125 9.181848526000977 L15.697704315185547 8.675329208374023 L16.251096725463867 7.7532243728637695"></path>
<path fill="none" stroke="black" stroke-width=".3" stroke-opacity="1.0"  filling="0" d="M14.137104034423828 8.154984474182129 L14.661335945129395 8.679431915283203 L13.977263450622559 9.641496658325195 L13.424087524414062 9.088319778442383 L14.137104034423828 8.154984474182129"></path>
<path fill="none" stroke="black" stroke-width=".3" stroke-opacity="1.0"  filling="0" d="M11.731080055236816 8.435784339904785 L12.186623573303223 8.891544342041016 L11.541215896606445 9.531335830688477 L11.091072082519531 9.081409454345703 L11.731080055236816 8.435784339904785"></path>
<path fill="none" stroke="black" stroke-width=".3" stroke-opacity="1.0"  filling="0" d="M15.308039665222168 9.326353073120117 L15.831192016601562 9.849287986755371 L15.239352226257324 10.903584480285645 L14.69028091430664 10.354512214660645 L15.308039665222168 9.326353073120117"></path>
<path fill="none" stroke="black" stroke-width=".3" stroke-opacity="1.0"  filling="0" d="M12.972431182861328 9.677352905273438 L13.54375171661377 10.248456954956055 L13.00979995727539 10.999920845031738 L12.415151596069336 10.405488014221191 L12.972431182861328 9.677352905273438"></path>
<path fill="none" stroke="black" stroke-width=".3" stroke-opacity="1.0"  filling="0" d="M14.299535751342773 11.004024505615234 L14.866535186767578 11.571239471435547 L14.40407943725586 12.39419937133789 L13.81764030456543 11.807975769042969 L14.299535751342773 11.004024505615234"></path>
<path fill="none" stroke="black" stroke-width=".3" stroke-opacity="1.0"  filling="0" d="M19.96975326538086 12.668951988220215 L22.799999237060547 12.668951988220215 C22.47503662109375 13.873580932617188 22.335813522338867 15.53395938873291 21.928455352783203 16.957149505615234 C21.521099090576172 18.380340576171875 20.84560775756836 19.56634521484375 19.44811248779297 19.822223663330078 L18.71306610107422 19.82805633544922 C18.712129592895508 19.82805633544922 18.711193084716797 19.82805633544922 18.710256576538086 19.82805633544922 L19.056718826293945 21.87184715270996 L17.96095085144043 21.87184715270996 L17.52484893798828 19.822223663330078 L11.999784469604492 19.822223663330078 L6.474720478057861 19.822223663330078 L6.038616180419922 21.87184715270996 L4.942848205566406 21.87184715270996 L5.289312362670898 19.82805633544922 C5.288448333740234 19.82805633544922 5.28758430480957 19.82805633544922 5.286720275878906 19.82805633544922 L4.551672458648682 19.822223663330078 C3.1542325019836426 19.566354751586914 2.4786834716796875 18.38035774230957 2.071310043334961 16.957168579101562 C1.663936734199524 15.533978462219238 1.5247387886047363 13.873595237731934 1.2000007629394531 12.668951988220215 L7.151448726654053 12.668952941894531 L13.102896690368652 12.668952941894531 L19.054344177246094 12.668951988220215 L19.054344177246094 8.116643905639648 L19.054344177246094 3.564335823059082 C18.9234676361084 3.2762858867645264 18.64011573791504 2.8037147521972656 18.205245971679688 3.3042726516723633 L16.908384323120117 4.590336322784424 C18.01344108581543 5.685512542724609 17.883644104003906 6.175408363342285 17.138641357421875 7.432248592376709 L13.189727783203125 3.483552932739258 C14.601043701171875 2.646984577178955 15.079374313354492 2.7552008628845215 16.2342472076416 3.916200637817383 L17.553144454956055 2.6029205322265625 C18.743995666503906 1.3085333108901978 19.612062454223633 2.6434030532836914 19.970184326171875 3.640584945678711 L19.968671798706055 3.6557044982910156 C19.96824073791504 3.6607446670532227 19.96780776977539 3.6657848358154297 19.967376708984375 3.6708250045776367 L19.968564987182617 8.169888496398926 L19.96975326538086 12.668951988220215"></path></svg>