<svg xmlns="http://www.w3.org/2000/svg" viewBox="0.0 0.0 24.0 24.0" height="200px" width="200px"><path fill="none" stroke="black" stroke-width=".3" stroke-opacity="1.0"  filling="0" d="M10.257851600646973 2.942040205001831 L10.257851600646973 2.942040205001831 C10.548192024230957 2.4391565322875977 10.625988006591797 1.7237296104431152 11.12887191772461 1.433389663696289 C14.392129898071289 -0.45065248012542725 14.392127990722656 6.3347344398498535 11.128870964050293 4.450691223144531 C10.62598705291748 4.160351276397705 10.54819107055664 3.4449238777160645 10.257851600646973 2.942040205001831 L10.257851600646973 2.942040205001831"></path>
<path fill="none" stroke="black" stroke-width=".3" stroke-opacity="1.0"  filling="0" d="M15.811212539672852 5.871000289916992 L15.811212539672852 5.871000289916992 C15.80437183380127 5.932056427001953 15.797532081604004 5.993112087249756 15.790691375732422 6.054168224334717 L15.017627716064453 9.107759475708008 C15.004595756530762 9.091919898986816 14.99156379699707 9.076079368591309 14.978531837463379 9.060239791870117 L13.563299179077148 7.557528018951416 C13.590694427490234 6.5045976638793945 13.255515098571777 5.654696941375732 12.000323295593262 5.981808662414551 L12.000323295593262 5.981808662414551 C10.745128631591797 5.654695510864258 10.409953117370605 6.504601001739502 10.437347412109375 7.557528018951416 L9.022116661071777 9.060239791870117 C9.009084701538086 9.076079368591309 8.996052742004395 9.091919898986816 8.983020782470703 9.107759475708008 L8.209956169128418 6.054168224334717 C8.160606384277344 5.62715482711792 8.709953308105469 5.349833965301514 9.013907432556152 5.045880317687988 L14.986091613769531 5.045880317687988 C15.26113224029541 5.320920467376709 15.536171913146973 5.5959601402282715 15.811212539672852 5.871000289916992 L15.811212539672852 5.871000289916992"></path>
<path fill="none" stroke="black" stroke-width=".3" stroke-opacity="1.0"  filling="0" d="M13.122659683227539 7.592304229736328 L13.122659683227539 7.592304229736328 C14.361720085144043 8.90791130065918 14.876321792602539 8.82422161102295 14.28905963897705 10.684127807617188 L13.952640533447266 15.933791160583496 L13.616220474243164 21.183454513549805 C12.772339820861816 23.220888137817383 11.227399826049805 23.220928192138672 10.383563995361328 21.183454513549805 L10.047143936157227 15.933791160583496 L9.710723876953125 10.684127807617188 C9.123162269592285 8.824190139770508 9.637791633605957 8.9077730178833 10.877123832702637 7.592304229736328 L10.877123832702637 7.592304229736328 C10.888724327087402 7.216383457183838 10.653569221496582 6.73785924911499 10.91192626953125 6.464541435241699 C11.161426544189453 6.2005934715271 11.637236595153809 6.424527645111084 11.999892234802246 6.404520511627197 L11.999892234802246 6.404520511627197 C12.362546920776367 6.424554347991943 12.83835506439209 6.2006731033325195 13.08785629272461 6.4646220207214355 C13.346195220947266 6.73792028427124 13.111058235168457 7.216410160064697 13.122659683227539 7.592304229736328 L13.122659683227539 7.592304229736328"></path></svg>