<svg xmlns="http://www.w3.org/2000/svg" viewBox="0.0 0.0 24.0 24.0" height="200px" width="200px"><path fill="none" stroke="black" stroke-width=".3" stroke-opacity="1.0"  filling="0" d="M21.948528289794922 10.202554702758789 L21.948528289794922 10.202554702758789 C22.232351303100586 10.486234664916992 22.516176223754883 10.769915580749512 22.799999237060547 11.053595542907715 L21.42569923400879 15.545747756958008 L20.05139923095703 20.037899017333984 C19.767719268798828 20.309988021850586 19.484039306640625 20.582075119018555 19.200359344482422 20.854164123535156 L12.019115447998047 20.854164123535156 L4.83787202835083 20.854164123535156 C4.55404806137085 20.582075119018555 4.270224571228027 20.309988021850586 3.986400604248047 20.037899017333984 L2.59320068359375 15.545747756958008 L1.2000007629394531 11.053595542907715 C1.4839683771133423 10.769915580749512 1.767936110496521 10.486234664916992 2.05190372467041 10.202554702758789 L6.526991844177246 10.202554702758789 L11.002079963684082 10.202554702758789 L11.002079963684082 6.4616522789001465 C10.730711936950684 5.960460186004639 10.24553108215332 5.525104522705078 10.187975883483887 4.958076000213623 C9.95035171508789 2.617035150527954 14.049788475036621 2.6170713901519775 13.812024116516113 4.958076000213623 C13.754434585571289 5.525101184844971 13.269288063049316 5.960460186004639 12.997920036315918 6.4616522789001465 L12.997920036315918 10.202554702758789 L17.473224639892578 10.202554702758789 L21.948528289794922 10.202554702758789"></path></svg>