<svg xmlns="http://www.w3.org/2000/svg" viewBox="0.0 0.0 24.0 24.0" height="200px" width="200px"><path fill="none" stroke="black" stroke-width=".3" stroke-opacity="1.0"  filling="0" d="M43.792667388916016 47.962188720703125 L43.792667388916016 47.962188720703125 C43.73401641845703 47.82825469970703 43.78433609008789 47.54375457763672 43.993133544921875 47.50212478637695 C44.168540954589844 47.4671516418457 44.0630989074707 47.9256477355957 43.792667388916016 47.96217346191406 L43.792667388916016 47.96217346191406"></path>
<path fill="none" stroke="black" stroke-width=".3" stroke-opacity="1.0"  filling="0" d="M43.74243927001953 48.37762451171875 L43.74243927001953 48.37762451171875 C43.24052429199219 48.3702507019043 43.359554290771484 47.448646545410156 43.80271911621094 47.382572174072266 C44.62356948852539 47.260189056396484 44.047298431396484 48.17232131958008 43.742431640625 48.37744140625 L43.742431640625 48.37744140625"></path>
<path fill="none" stroke="black" stroke-width=".3" stroke-opacity="1.0"  filling="0" d="M43.09203338623047 51.168392181396484 L43.09203338623047 51.168392181396484 C42.967960357666016 51.07249069213867 43.033573150634766 50.73478698730469 43.18805694580078 50.70784378051758 C43.55809783935547 50.643306732177734 43.20126724243164 51.11027526855469 43.092018127441406 51.16839599609375 L43.092018127441406 51.16839599609375"></path>
<path fill="none" stroke="black" stroke-width=".3" stroke-opacity="1.0"  filling="0" d="M42.84303665161133 51.56481170654297 L42.84303665161133 51.56481170654297 C41.79302978515625 51.638336181640625 41.767478942871094 49.502708435058594 42.531639099121094 49.31227493286133 C43.87102127075195 48.978492736816406 43.97257995605469 51.26736068725586 42.8431396484375 51.56479263305664 L42.8431396484375 51.56479263305664"></path>
<path fill="none" stroke="black" stroke-width=".3" stroke-opacity="1.0"  filling="0" d="M50.00333786010742 54.252079010009766 L50.00333786010742 54.252079010009766 C49.072208404541016 54.26259994506836 48.12668228149414 54.20330810546875 47.23093795776367 53.92491149902344 C47.058650970458984 53.87136459350586 46.43085861206055 53.64379119873047 46.522216796875 53.39886474609375 C46.60368728637695 53.180442810058594 47.719051361083984 53.40798568725586 47.977622985839844 53.44121551513672 C48.99319839477539 53.57172775268555 51.10797119140625 53.08924865722656 51.90922164916992 53.632511138916016 C52.39736557006836 53.96348190307617 50.190147399902344 54.23975372314453 50.00334548950195 54.25205612182617 L50.00334548950195 54.25205612182617"></path>
<path fill="none" stroke="black" stroke-width=".3" stroke-opacity="1.0"  filling="0" d="M54.57407760620117 61.67216873168945 L54.57407760620117 61.67216873168945 C54.30820083618164 61.60234832763672 53.45412826538086 61.393043518066406 53.21807098388672 61.25030517578125 C53.02468490600586 61.13336944580078 53.754554748535156 60.55036926269531 53.81545639038086 60.501861572265625 C54.164146423339844 60.224143981933594 54.18965148925781 59.7313346862793 54.284420013427734 59.3166389465332 C54.66311264038086 57.6595458984375 54.551605224609375 55.90764617919922 53.33014678955078 54.63471221923828 C53.12650680541992 54.42249298095703 52.985069274902344 54.721439361572266 52.70516586303711 54.59312438964844 C52.42761993408203 54.46588897705078 52.658050537109375 54.17421340942383 52.486549377441406 54.07486343383789 C52.13169479370117 53.869300842285156 49.97720718383789 54.39591979980469 49.469722747802734 54.378143310546875 C49.07188415527344 54.36420822143555 48.67564392089844 54.3201904296875 48.279048919677734 54.28578567504883 C48.18516159057617 54.27764129638672 46.50333786010742 53.720680236816406 46.40293884277344 53.89665603637695 C46.110965728759766 54.408416748046875 46.219173431396484 55.65145492553711 46.21016311645508 56.171993255615234 L46.15520095825195 56.97868347167969 C45.823829650878906 57.8902473449707 45.909095764160156 58.713863372802734 45.87166976928711 59.68983459472656 C45.855735778808594 60.105369567871094 45.199798583984375 61.0529899597168 44.87940979003906 61.16930389404297 C44.47963333129883 61.3144416809082 43.71977615356445 61.44846725463867 43.610313415527344 61.0374870300293 C43.40529251098633 60.267723083496094 44.58103561401367 59.70341110229492 44.70101547241211 58.97105407714844 C45.00676345825195 57.10475158691406 44.700172424316406 55.08719253540039 44.015159606933594 53.327945709228516 C43.64784240722656 52.384605407714844 43.00107192993164 52.19866943359375 42.26742935180664 51.71278381347656 C41.739540100097656 51.36316680908203 41.859989166259766 50.56248474121094 41.86431121826172 50.062461853027344 C41.87610626220703 48.698036193847656 41.62431716918945 47.68901062011719 41.838600158691406 46.49070358276367 C41.961891174316406 45.80123519897461 41.07485580444336 45.07374572753906 40.7689208984375 44.4797248840332 C40.69198226928711 44.3303337097168 40.492835998535156 43.39309310913086 40.61113357543945 43.424835205078125 C41.551544189453125 43.67717742919922 41.8596305847168 45.09096908569336 42.6409912109375 45.29033660888672 C42.80449295043945 45.332054138183594 42.76179885864258 44.700279235839844 43.02922058105469 44.71953201293945 C43.301246643066406 44.73911666870117 43.48684310913086 45.374351501464844 43.61418914794922 45.28716278076172 C44.02102279663086 45.00861358642578 44.48877716064453 43.486045837402344 44.62643051147461 43.113094329833984 C44.70538330078125 42.8991813659668 44.80727005004883 42.325504302978516 44.94458770751953 42.507537841796875 C45.98583984375 43.88786315917969 44.34260559082031 45.8328742980957 45.53530502319336 47.32905197143555 C45.802154541015625 47.66379928588867 46.992244720458984 47.7816047668457 47.37479782104492 47.881446838378906 C49.46575164794922 48.42716979980469 50.8982048034668 47.96548080444336 52.966461181640625 47.72040557861328 C56.08421325683594 47.35097122192383 56.210052490234375 50.35133361816406 57.38774871826172 52.39484405517578 C57.78160858154297 53.07826232910156 60.69672393798828 54.473915100097656 59.15095138549805 54.5269775390625 L58.785037994384766 54.49546813964844 C57.240516662597656 54.07252502441406 57.27164077758789 52.24174499511719 56.21971130371094 51.474124908447266 C56.216758728027344 51.47196960449219 56.093387603759766 51.906890869140625 56.08664321899414 51.93074417114258 C55.9868278503418 52.2838134765625 55.8247184753418 52.6270637512207 55.740413665771484 52.98371505737305 C55.44669723510742 54.22629928588867 55.834129333496094 54.995609283447266 56.28713607788086 56.06723403930664 L56.28700637817383 56.24991226196289 C56.10004806518555 57.0006103515625 56.591487884521484 60.5085334777832 55.60000991821289 60.7728271484375 L55.5554084777832 60.85960006713867 C55.56608963012695 60.948429107666016 55.57569885253906 61.037384033203125 55.58514404296875 61.1263542175293 L55.560813903808594 61.32732009887695 C55.34331130981445 61.699771881103516 54.96152114868164 61.69660568237305 54.574378967285156 61.672203063964844 L54.574378967285156 61.672203063964844"></path></svg>