<svg xmlns="http://www.w3.org/2000/svg" viewBox="0.0 0.0 24.0 24.0" height="200px" width="200px"><path fill="none" stroke="black" stroke-width=".3" stroke-opacity="1.0"  filling="0" d="M3.6896839141845703 2.984842300415039 L4.826527118682861 2.984842300415039 C5.205474376678467 3.3637897968292236 5.584421157836914 3.742737054824829 5.9633684158325195 4.121684551239014 L5.9633684158325195 9.426948547363281 L5.9633684158325195 14.732211112976074 L5.9633684158325195 20.037473678588867 C5.758284091949463 20.5325927734375 5.321645736694336 20.9692325592041 4.826526641845703 21.174318313598633 L3.6896839141845703 21.17431640625 C3.1945652961730957 20.9692325592041 2.7579264640808105 20.532594680786133 2.552842140197754 20.0374755859375 L2.552842140197754 14.73221206665039 L2.552842140197754 9.426948547363281 L2.552842140197754 4.121684551239014 C2.7579269409179688 3.62656569480896 3.194565773010254 3.189926862716675 3.6896843910217285 2.98484206199646 L3.6896843910217285 2.98484206199646"></path>
<path fill="none" stroke="black" stroke-width=".3" stroke-opacity="1.0"  filling="0" d="M9.427616119384766 3.597348213195801 L15.143072128295898 7.229052543640137 L20.85852813720703 10.860756874084473 C21.123334884643555 11.267009735107422 21.65294647216797 11.59457778930664 21.65294647216797 12.079514503479004 C21.65294647216797 12.56448745727539 21.123334884643555 12.892105102539062 20.85852813720703 13.29840087890625 L15.143072128295898 16.930105209350586 L9.427616119384766 20.561809539794922 C8.975539207458496 20.627134323120117 8.471673011779785 20.977811813354492 8.071386337280273 20.75778579711914 C7.670961856842041 20.537683486938477 7.696777820587158 19.92423439025879 7.50947380065918 19.50745964050293 L7.50947380065918 12.07957935333252 L7.50947380065918 4.651699542999268 C7.696744441986084 4.234663486480713 7.6706647872924805 3.6208019256591797 8.071285247802734 3.4005916118621826 C8.471632957458496 3.1805310249328613 8.975505828857422 3.5317625999450684 9.427616119384766 3.597348213195801 L9.427616119384766 3.597348213195801"></path></svg>