<svg xmlns="http://www.w3.org/2000/svg" viewBox="0.0 0.0 24.0 24.0" height="200px" width="200px"><path fill="none" stroke="black" stroke-width=".3" stroke-opacity="1.0"  filling="0" d="M3.1305007934570312 12.107999801635742 L3.1305007934570312 12.107999801635742 C3.377413034439087 9.658681869506836 3.9608895778656006 7.559009075164795 5.759949684143066 5.759949207305908 C7.070399761199951 4.449499607086182 8.69435977935791 3.6481053829193115 10.39233112335205 3.3327367305755615 C12.090301513671875 3.0173683166503906 13.862282752990723 3.1880252361297607 15.468774795532227 3.821678400039673 C17.075265884399414 4.455331325531006 18.51626968383789 5.551980018615723 19.552282333374023 7.088595390319824 C20.62372398376465 8.677757263183594 20.897951126098633 10.247573852539062 21.085498809814453 12.107999801635742 L21.085498809814453 16.871570587158203 L21.085498809814453 21.635141372680664 L21.635141372680664 21.085498809814453 L16.871570587158203 21.085498809814453 L12.107999801635742 21.085498809814453 C9.476980209350586 20.820270538330078 7.365220546722412 19.89140510559082 5.844907760620117 18.371091842651367 C4.3245954513549805 16.850778579711914 3.3957300186157227 14.739018440246582 3.1305007934570312 12.107999801635742 L3.1305007934570312 12.107999801635742"></path>
<path fill="none" stroke="black" stroke-width=".3" stroke-opacity="1.0"  filling="0" d="M11.008713722229004 12.291213989257812 L11.008713722229004 12.291213989257812 C11.222463607788086 11.920988082885742 11.279738426208496 11.394286155700684 11.649964332580566 11.180536270141602 C12.504964828491211 10.686901092529297 13.573714256286621 11.303946495056152 13.573714256286621 12.291213989257812 C13.573714256286621 13.278483390808105 12.504964828491211 13.895526885986328 11.649964332580566 13.401891708374023 C11.279738426208496 13.188141822814941 11.222463607788086 12.661439895629883 11.008713722229004 12.291213989257812 L11.008713722229004 12.291213989257812"></path>
<path fill="none" stroke="black" stroke-width=".3" stroke-opacity="1.0"  filling="0" d="M6.611572265625 12.291204452514648 L6.611572265625 12.291204452514648 C7.0905442237854 11.132989883422852 9.176426887512207 10.247775077819824 9.176570892333984 12.291023254394531 C9.176714897155762 14.334378242492676 7.090785503387451 13.449738502502441 6.611571788787842 12.291404724121094 L6.611571788787842 12.291404724121094"></path>
<path fill="none" stroke="black" stroke-width=".3" stroke-opacity="1.0"  filling="0" d="M15.405858993530273 12.291427612304688 L15.405858993530273 12.291427612304688 C15.884587287902832 11.133960723876953 17.970247268676758 10.24779224395752 17.970857620239258 12.290660858154297 C17.971467971801758 14.33371353149414 15.88541030883789 13.449262619018555 15.405858039855957 12.291767120361328 L15.405858039855957 12.291767120361328"></path>
<path fill="none" stroke="black" stroke-width=".3" stroke-opacity="1.0"  filling="0" d="M21.635141372680664 22.184785842895508 L16.871570587158203 22.184785842895508 L12.107999801635742 22.184785842895508 C10.019762992858887 21.974273681640625 8.257728576660156 21.666467666625977 6.473973751068115 20.46382713317871 C5.40629768371582 19.743980407714844 4.472018718719482 18.809701919555664 3.752171516418457 17.74202537536621 C3.019519805908203 16.655357360839844 2.495544672012329 15.424694061279297 2.2359392642974854 14.138823509216309 C1.704336166381836 11.50570011138916 2.2014365196228027 9.151896476745605 3.3401989936828613 7.241869926452637 C4.47896146774292 5.331843376159668 6.25938606262207 3.865593433380127 8.294431686401367 3.0075788497924805 C10.329477310180664 2.149564266204834 12.619144439697266 1.8997844457626343 14.776391983032227 2.4226975440979004 C16.933637619018555 2.945610761642456 18.958465576171875 4.241216659545898 20.463829040527344 6.473973274230957 C21.666467666625977 8.25772762298584 21.974273681640625 10.019762992858887 22.184785842895508 12.107999801635742 L22.184785842895508 17.146392822265625 L22.184785842895508 22.184785842895508 L21.635141372680664 22.184785842895508"></path></svg>