<svg xmlns="http://www.w3.org/2000/svg" viewBox="0.0 0.0 24.0 24.0" height="200px" width="200px"><path fill="none" stroke="black" stroke-width=".3" stroke-opacity="1.0"  filling="0" d="M4.396213054656982 6.363476753234863 L4.396213054656982 6.363476753234863 C5.348419189453125 6.496492385864258 6.261192321777344 6.686408042907715 7.224231243133545 6.720975875854492 L7.224231243133545 6.720975875854492 C7.215855121612549 6.885829925537109 7.2074785232543945 7.050683975219727 7.199102401733398 7.215538024902344 L7.199102401733398 7.215538024902344 C6.375786781311035 6.98025369644165 5.542661666870117 6.776878356933594 4.703455924987793 6.606760501861572 L4.703455924987793 6.606760501861572 C4.754854202270508 6.855753421783447 4.8062520027160645 7.1047468185424805 4.857650279998779 7.3537397384643555 L4.857650279998779 7.3537397384643555 C4.298678398132324 7.783383369445801 3.9762697219848633 8.557939529418945 3.9461965560913086 9.262310981750488 L3.9130735397338867 9.176647186279297 C3.888707160949707 8.839706420898438 3.8643407821655273 8.502765655517578 3.8399744033813477 8.165824890136719 L3.8399744033813477 8.165824890136719 C3.7897188663482666 8.163538932800293 3.7394635677337646 8.16125202178955 3.6892080307006836 8.158966064453125 L3.6892080307006836 8.158966064453125 C3.729238510131836 9.046488761901855 3.8454060554504395 10.004859924316406 3.8388404846191406 10.891042709350586 L3.8388404846191406 10.891042709350586 C3.201948404312134 11.967560768127441 4.692180156707764 11.864500999450684 4.059279441833496 10.970993041992188 L4.059279441833496 10.970993041992188 C3.976121187210083 9.551098823547363 4.501134872436523 9.300079345703125 4.304846286773682 7.967080116271973 L4.304846286773682 7.967080116271973 C4.588105201721191 8.16619873046875 4.871364116668701 8.365317344665527 5.154623031616211 8.564435958862305 L5.154623031616211 8.564435958862305 C5.052693843841553 10.174539566040039 4.94138240814209 11.77428913116455 4.7742791175842285 13.378689765930176 L4.7742791175842285 13.378689765930176 C4.368046283721924 13.144545555114746 3.9618136882781982 12.910400390625 3.5555810928344727 12.67625617980957 L3.5555810928344727 12.67625617980957 C3.3846380710601807 11.201745986938477 2.7665483951568604 8.655826568603516 3.36141300201416 7.2155327796936035 C3.715181350708008 6.358983993530273 3.9317572116851807 6.370733737945557 4.396220684051514 6.363533973693848 L4.396220684051514 6.363533973693848"></path>
<path fill="none" stroke="black" stroke-width=".3" stroke-opacity="1.0"  filling="0" d="M7.351019382476807 6.772425174713135 L7.351019382476807 6.772425174713135 C10.167509078979492 7.1995344161987305 11.961342811584473 7.310522079467773 14.038435935974121 9.418846130371094 L14.038435935974121 9.418846130371094 C13.856830596923828 9.44359302520752 13.675225257873535 9.468340873718262 13.493619918823242 9.493087768554688 L13.493619918823242 9.493087768554688 C13.325340270996094 10.083209991455078 13.157059669494629 10.673331260681152 12.98878002166748 11.263453483581543 L12.98878002166748 11.263453483581543 C12.796133995056152 10.892248153686523 12.603487014770508 10.521041870117188 12.41084098815918 10.149836540222168 L12.41084098815918 10.149836540222168 C12.482797622680664 10.121662139892578 12.554754257202148 10.093488693237305 12.626710891723633 10.065314292907715 L12.626710891723633 10.065314292907715 C12.342309951782227 9.552860260009766 12.057909965515137 9.0404052734375 11.77350902557373 8.52795124053955 L11.77350902557373 8.52795124053955 C11.752046585083008 7.700066089630127 10.83940315246582 8.096321105957031 11.579339981079102 8.674150466918945 L11.579339981079102 8.674150466918945 C11.832178115844727 8.9811429977417 11.993091583251953 9.35348892211914 12.198396682739258 9.694108009338379 L12.198396682739258 9.694108009338379 C9.966922760009766 8.825799942016602 7.8425726890563965 8.936796188354492 5.521259307861328 8.505106925964355 C2.794527769088745 7.99802303314209 6.761025905609131 7.466764450073242 7.107439041137695 7.463472366333008 C7.708044052124023 7.457765102386475 8.308440208435059 7.438327312469482 8.908941268920898 7.425754547119141 L8.908941268920898 7.425754547119141 C8.399913787841797 7.355701446533203 7.890885353088379 7.285647869110107 7.381857395172119 7.21559476852417 L7.381857395172119 7.21559476852417 C7.371577739715576 7.067873954772949 7.361298084259033 6.920153617858887 7.35101842880249 6.772432804107666 L7.35101842880249 6.772432804107666"></path>
<path fill="none" stroke="black" stroke-width=".3" stroke-opacity="1.0"  filling="0" d="M4.245453357696533 7.924887180328369 L4.245453357696533 7.924887180328369 C4.291901588439941 8.285433769226074 4.338350296020508 8.645979881286621 4.384798526763916 9.006525993347168 L4.384798526763916 9.006525993347168 C4.2416462898254395 9.186988830566406 4.098494529724121 9.367450714111328 3.9553422927856445 9.547913551330566 L3.9553422927856445 9.547913551330566 C3.954200029373169 9.474814414978027 3.9530580043792725 9.401716232299805 3.951915740966797 9.328617095947266 L3.951915740966797 9.328617095947266 C4.1449666023254395 8.906200408935547 4.157322406768799 8.410161972045898 4.128952503204346 7.946589469909668 L4.128952503204346 7.946589469909668 C4.167786598205566 7.9393534660339355 4.206620216369629 7.932117938995361 4.24545431137085 7.924881935119629 L4.24545431137085 7.924881935119629"></path>
<path fill="none" stroke="black" stroke-width=".3" stroke-opacity="1.0"  filling="0" d="M16.002971649169922 9.145851135253906 L16.002971649169922 9.145851135253906 C16.04408836364746 9.147759437561035 16.085206985473633 9.149666786193848 16.126323699951172 9.151575088500977 L16.126323699951172 9.151575088500977 C16.639253616333008 10.414831161499023 16.797142028808594 11.437938690185547 16.882442474365234 12.79510498046875 L16.882442474365234 12.79510498046875 C18.37266731262207 12.840656280517578 19.85982322692871 12.837526321411133 21.350618362426758 12.846500396728516 L21.350618362426758 12.846500396728516 C21.36699104309082 12.972901344299316 21.38336181640625 13.0993013381958 21.399734497070312 13.225702285766602 L21.399734497070312 13.225702285766602 C21.734390258789062 13.24435806274414 22.069046020507812 13.263012886047363 22.403701782226562 13.281668663024902 L22.403701782226562 13.281668663024902 C21.088274002075195 13.59967041015625 19.456357955932617 13.727585792541504 17.826656341552734 13.701905250549316 C16.19695472717285 13.676225662231445 14.569467544555664 13.496950149536133 13.262900352478027 13.200573921203613 L13.262900352478027 13.200573921203613 C13.107224464416504 11.758696556091309 13.221923828125 11.021980285644531 13.578139305114746 9.658699989318848 L13.578139305114746 9.658699989318848 C14.360284805297852 9.601232528686523 15.142687797546387 9.547165870666504 15.92530345916748 9.496511459350586 L15.92530345916748 9.496511459350586 C15.951192855834961 9.379629135131836 15.977082252502441 9.262747764587402 16.002971649169922 9.145865440368652 L16.002971649169922 9.145865440368652"></path>
<path fill="none" stroke="black" stroke-width=".3" stroke-opacity="1.0"  filling="0" d="M17.749351501464844 10.370259284973145 L17.749351501464844 10.370259284973145 C17.790470123291016 10.370259284973145 17.831586837768555 10.370259284973145 17.872705459594727 10.370259284973145 L17.872705459594727 10.370259284973145 C17.831207275390625 10.610115051269531 17.789709091186523 10.849971771240234 17.748210906982422 11.089827537536621 L17.748210906982422 11.089827537536621 C19.26239776611328 11.130586624145508 20.725650787353516 11.162524223327637 22.225522994995117 11.383366584777832 L22.225522994995117 11.383366584777832 C22.306997299194336 11.96473217010498 22.388473510742188 12.546097755432129 22.469947814941406 13.127463340759277 L22.469947814941406 13.127463340759277 C22.170318603515625 13.105000495910645 21.870689392089844 13.082536697387695 21.571060180664062 13.060073852539062 L21.571060180664062 13.060073852539062 C21.545551300048828 12.92872428894043 21.520042419433594 12.797374725341797 21.49453353881836 12.666025161743164 L21.49453353881836 12.666025161743164 C20.013647079467773 12.663684844970703 18.534381866455078 12.658095359802246 17.053768157958984 12.62833309173584 L17.053768157958984 12.62833309173584 C17.01988410949707 12.126919746398926 16.985998153686523 11.625507354736328 16.95211410522461 11.124094009399414 L16.95211410522461 11.124094009399414 C17.145523071289062 11.125236511230469 17.338930130004883 11.12637996673584 17.532339096069336 11.127522468566895 L17.532339096069336 11.127522468566895 C17.423837661743164 10.90289306640625 17.38469696044922 10.643701553344727 17.382713317871094 10.394248008728027 L17.382713317871094 10.394248008728027 C17.504926681518555 10.386256217956543 17.627138137817383 10.378263473510742 17.749351501464844 10.370271682739258 L17.749351501464844 10.370271682739258"></path>
<path fill="none" stroke="black" stroke-width=".3" stroke-opacity="1.0"  filling="0" d="M20.5716552734375 10.537027359008789 L20.5716552734375 10.537027359008789 C20.861291885375977 10.540997505187988 21.07988929748535 10.8353271484375 21.270668029785156 11.053291320800781 L21.270668029785156 11.053291320800781 C20.34553337097168 11.017132759094238 19.41982078552246 10.993520736694336 18.49404525756836 10.982478141784668 L18.49404525756836 10.982478141784668 C18.604074478149414 10.843894004821777 18.7141056060791 10.705310821533203 18.824134826660156 10.566726684570312 L18.824134826660156 10.566726684570312 C19.406641006469727 10.556827545166016 19.98914909362793 10.546928405761719 20.5716552734375 10.537029266357422 L20.5716552734375 10.537029266357422"></path>
<path fill="none" stroke="black" stroke-width=".3" stroke-opacity="1.0"  filling="0" d="M18.34670639038086 11.96703052520752 L18.34670639038086 11.96703052520752 C18.762109756469727 12.382433891296387 18.144018173217773 12.369185447692871 18.16738510131836 12.112085342407227 L18.16738510131836 12.112085342407227 C18.16738510131836 12.111724853515625 18.16738510131836 12.11136531829834 18.16738510131836 12.111004829406738 L18.16738510131836 12.111004829406738 C18.24431800842285 12.111004829406738 18.286849975585938 12.015432357788086 18.346698760986328 11.967092514038086 L18.346698760986328 11.967092514038086"></path>
<path fill="none" stroke="black" stroke-width=".3" stroke-opacity="1.0"  filling="0" d="M19.26044464111328 11.96703052520752 L19.26044464111328 11.96703052520752 C19.69080924987793 12.397395133972168 18.830074310302734 12.397396087646484 19.26044464111328 11.96703052520752 L19.26044464111328 11.96703052520752"></path>
<path fill="none" stroke="black" stroke-width=".3" stroke-opacity="1.0"  filling="0" d="M2.3962783813476562 12.66375732421875 L2.3962783813476562 12.66375732421875 C3.2522501945495605 12.839946746826172 4.0882182121276855 13.180534362792969 4.825677871704102 13.649452209472656 L4.825677871704102 13.649452209472656 C4.8279619216918945 13.708845138549805 4.8302459716796875 13.768238067626953 4.8325300216674805 13.827630996704102 L4.8325300216674805 13.827630996704102 C3.1984055042266846 13.90764045715332 2.6911468505859375 14.455130577087402 1.5225162506103516 15.552309036254883 L1.5225162506103516 15.552309036254883 C1.5337263345718384 15.125387191772461 1.3360369205474854 12.705085754394531 2.39627742767334 12.6637544631958 L2.39627742767334 12.6637544631958"></path>
<path fill="none" stroke="black" stroke-width=".3" stroke-opacity="1.0"  filling="0" d="M16.490678787231445 13.539807319641113 L16.490678787231445 13.539807319641113 C17.48237419128418 13.585126876831055 21.421836853027344 13.294877052307129 21.588191986083984 14.880003929138184 C21.729137420654297 16.223018646240234 19.28376007080078 15.798094749450684 19.029447555541992 15.797477722167969 C17.334646224975586 15.793363571166992 15.63984489440918 15.800315856933594 13.945049285888672 15.8029203414917 C13.341131210327148 15.803848266601562 12.694374084472656 16.02812957763672 12.133292198181152 15.80473518371582 C10.644987106323242 15.212167739868164 11.721410751342773 14.106882095336914 12.498787879943848 13.794511795043945 C13.480802536010742 13.39991283416748 15.412988662719727 13.565325736999512 16.490678787231445 13.539798736572266 L16.490678787231445 13.539798736572266"></path>
<path fill="none" stroke="black" stroke-width=".3" stroke-opacity="1.0"  filling="0" d="M15.605494499206543 13.794503211975098 L15.605494499206543 13.794503211975098 C16.466228485107422 14.65523624420166 14.744763374328613 14.655238151550293 15.605494499206543 13.794503211975098 L15.605494499206543 13.794503211975098"></path>
<path fill="none" stroke="black" stroke-width=".3" stroke-opacity="1.0"  filling="0" d="M17.615718841552734 13.794503211975098 L17.615718841552734 13.794503211975098 C18.47644805908203 14.65523910522461 16.75498390197754 14.65523624420166 17.615718841552734 13.794503211975098 L17.615718841552734 13.794503211975098"></path>
<path fill="none" stroke="black" stroke-width=".3" stroke-opacity="1.0"  filling="0" d="M4.055853366851807 13.915565490722656 L4.055853366851807 13.915565490722656 C4.2393622398376465 13.930794715881348 4.422871112823486 13.946023941040039 4.606379985809326 13.96125316619873 L4.606379985809326 13.96125316619873 C4.023322582244873 14.398209571838379 3.4811360836029053 14.895669937133789 2.995917320251465 15.43922233581543 L2.995917320251465 15.43922233581543 C2.674205780029297 15.447601318359375 2.352494239807129 15.45598030090332 2.030782699584961 15.464359283447266 L2.030782699584961 15.464359283447266 C2.5955209732055664 14.775630950927734 3.0917530059814453 14.026820182800293 4.055853366851807 13.915574073791504 L4.055853366851807 13.915574073791504"></path>
<path fill="none" stroke="black" stroke-width=".3" stroke-opacity="1.0"  filling="0" d="M20.722423553466797 14.269647598266602 L20.722423553466797 14.269647598266602 C22.013525009155273 15.560745239257812 19.43132781982422 15.560748100280762 20.722423553466797 14.269647598266602 L20.722423553466797 14.269647598266602"></path>
<path fill="none" stroke="black" stroke-width=".3" stroke-opacity="1.0"  filling="0" d="M14.874504089355469 15.073736190795898 L14.874504089355469 15.073736190795898 C15.304872512817383 15.50409984588623 14.444138526916504 15.504101753234863 14.874504089355469 15.073736190795898 L14.874504089355469 15.073736190795898"></path>
<path fill="none" stroke="black" stroke-width=".3" stroke-opacity="1.0"  filling="0" d="M15.422747611999512 15.073736190795898 L15.422747611999512 15.073736190795898 C15.853113174438477 15.504101753234863 14.992380142211914 15.504101753234863 15.422747611999512 15.073736190795898 L15.422747611999512 15.073736190795898"></path>
<path fill="none" stroke="black" stroke-width=".3" stroke-opacity="1.0"  filling="0" d="M15.970991134643555 15.073736190795898 L15.970991134643555 15.073736190795898 C16.401355743408203 15.504101753234863 15.540621757507324 15.504101753234863 15.970991134643555 15.073736190795898 L15.970991134643555 15.073736190795898"></path>
<path fill="none" stroke="black" stroke-width=".3" stroke-opacity="1.0"  filling="0" d="M16.51923370361328 15.073736190795898 L16.51923370361328 15.073736190795898 C16.949600219726562 15.50410270690918 16.088865280151367 15.504100799560547 16.51923370361328 15.073736190795898 L16.51923370361328 15.073736190795898"></path>
<path fill="none" stroke="black" stroke-width=".3" stroke-opacity="1.0"  filling="0" d="M17.067474365234375 15.073736190795898 L17.067474365234375 15.073736190795898 C17.497838973999023 15.504100799560547 16.637109756469727 15.504100799560547 17.067474365234375 15.073736190795898 L17.067474365234375 15.073736190795898"></path>
<path fill="none" stroke="black" stroke-width=".3" stroke-opacity="1.0"  filling="0" d="M17.615718841552734 15.073736190795898 L17.615718841552734 15.073736190795898 C17.615718841552734 15.073736190795898 18.103044509887695 15.439229965209961 17.615718841552734 15.439229965209961 C17.289310455322266 15.439229965209961 17.456270217895508 15.083218574523926 17.6157169342041 15.073799133300781 L17.6157169342041 15.073799133300781"></path></svg>