<svg xmlns="http://www.w3.org/2000/svg" viewBox="0.0 0.0 24.0 24.0" height="200px" width="200px"><path fill="none" stroke="black" stroke-width=".3" stroke-opacity="1.0"  filling="0" d="M5.265120029449463 6.299760341644287 L5.265120029449463 6.299760341644287 C5.617560386657715 5.9785685539245605 5.970000267028809 5.657376289367676 6.3224406242370605 5.336184501647949 L11.895672798156738 5.336184501647949 L17.468904495239258 5.336184501647949 C17.821775436401367 5.657376289367676 18.17464828491211 5.9785685539245605 18.52751922607422 6.299760341644287 L18.52751922607422 6.877776145935059 C18.02185821533203 6.159643650054932 16.908567428588867 6.487546443939209 16.255199432373047 6.5658721923828125 L14.580984115600586 6.5658721923828125 C13.032882690429688 6.348544120788574 12.127070426940918 6.411925792694092 12.458135604858398 8.258880615234375 L12.449712753295898 8.427359580993652 C12.43265151977539 8.650390625 12.429774284362793 8.874368667602539 12.427464485168457 9.098039627075195 L11.80408763885498 9.098039627075195 C11.645977973937988 7.091469764709473 11.843936920166016 6.173596382141113 9.394392013549805 6.467160224914551 L7.714992046356201 6.467160224914551 C6.168020248413086 6.249786376953125 5.261904716491699 6.313804626464844 5.593440532684326 8.159952163696289 L5.585016250610352 8.32800006866455 C5.571011066436768 8.512486457824707 5.560664653778076 8.697248458862305 5.5515360832214355 8.882040023803711 L5.5515360832214355 8.882040023803711 C5.456136226654053 8.663016319274902 5.360735893249512 8.443991661071777 5.265336036682129 8.224967956542969 L5.265120029449463 6.299760341644287"></path>
<path fill="none" stroke="black" stroke-width=".3" stroke-opacity="1.0"  filling="0" d="M10.836191177368164 8.29106330871582 L10.836191177368164 8.29106330871582 C10.862687110900879 8.490575790405273 10.88918399810791 8.69008731842041 10.915679931640625 8.889599800109863 L10.915679931640625 8.889599800109863 C10.600305557250977 8.931138038635254 10.27879524230957 8.907157897949219 9.961392402648926 8.886144638061523 L8.155632019042969 8.951375961303711 C7.5926642417907715 8.902487754821777 7.029695987701416 8.85360050201416 6.466728210449219 8.804712295532227 L6.466728210449219 8.804712295532227 C6.481149673461914 8.650028228759766 6.492187023162842 8.49504280090332 6.503448486328125 8.340096473693848 L6.511224746704102 8.169455528259277 C6.463963985443115 7.860798358917236 6.415405750274658 7.552279949188232 6.360024452209473 7.244976043701172 L6.360024452209473 7.244976043701172 C6.759387969970703 7.206744194030762 7.15994119644165 7.314233303070068 7.55666446685791 7.373928070068359 L9.526368141174316 7.377384662628174 C9.968194961547852 7.321410655975342 10.413713455200195 7.221954345703125 10.857359886169434 7.260960102081299 L10.857359886169434 7.260960102081299 C10.817342758178711 7.602060794830322 10.833588600158691 7.947632789611816 10.836191177368164 8.29106330871582 L10.836191177368164 8.29106330871582"></path>
<path fill="none" stroke="black" stroke-width=".3" stroke-opacity="1.0"  filling="0" d="M17.701318740844727 8.390640258789062 L17.701318740844727 8.390640258789062 C17.727455139160156 8.589792251586914 17.753591537475586 8.788944244384766 17.779727935791016 8.988096237182617 L17.779727935791016 8.988096237182617 C17.46444320678711 9.029760360717773 17.142986297607422 9.005892753601074 16.82565689086914 8.984856605529785 L15.017303466796875 9.050087928771973 C14.455056190490723 9.001631736755371 13.892807960510254 8.953176498413086 13.330560684204102 8.904720306396484 L13.330560684204102 8.904720306396484 C13.345122337341309 8.75040340423584 13.356180191040039 8.595771789550781 13.367496490478516 8.441183090209961 L13.376134872436523 8.269464492797852 C13.328911781311035 7.960226535797119 13.280385971069336 7.651125431060791 13.224936485290527 7.343255996704102 L13.224936485290527 7.343255996704102 C13.624881744384766 7.305008888244629 14.026005744934082 7.412647724151611 14.423303604125977 7.472424030303955 L16.386959075927734 7.4758806228637695 C16.82994842529297 7.419849395751953 17.27657127380371 7.320308685302734 17.72140884399414 7.3590240478515625 L17.72140884399414 7.3590240478515625 C17.681537628173828 7.7006425857543945 17.698348999023438 8.04671573638916 17.701318740844727 8.390640258789062 L17.701318740844727 8.390640258789062"></path>
<path fill="none" stroke="black" stroke-width=".3" stroke-opacity="1.0"  filling="0" d="M18.926471710205078 11.206631660461426 L18.926471710205078 11.206631660461426 C17.48391342163086 11.252313613891602 16.138294219970703 11.252091407775879 14.817970275878906 11.103534698486328 C13.497648239135742 10.954977989196777 12.202621459960938 10.658086776733398 10.861248016357422 10.110432624816895 L17.46868896484375 10.110432624816895 C18.068843841552734 10.039809226989746 18.524898529052734 10.73939037322998 18.92042350769043 11.196264266967773 L18.926471710205078 11.206631660461426"></path>
<path fill="none" stroke="black" stroke-width=".3" stroke-opacity="1.0"  filling="0" d="M3.849240303039551 13.108728408813477 L4.932480335235596 11.188920021057129 C5.311539173126221 10.741463661193848 5.7394938468933105 10.046589851379395 6.3224406242370605 10.110432624816895 L8.410296440124512 10.110432624816895 C9.903021812438965 10.594858169555664 11.237510681152344 11.448193550109863 12.778491020202637 11.798876762390137 C14.970680236816406 12.29775619506836 17.20128631591797 12.232996940612793 19.42478370666504 12.088343620300293 L20.001502990722656 13.10959243774414 C20.122678756713867 13.335528373718262 20.24385643005371 13.561464309692383 20.365032196044922 13.787400245666504 L20.365032196044922 13.787400245666504 C19.772615432739258 13.80410385131836 19.180200576782227 13.820807456970215 18.587783813476562 13.83751106262207 L11.925804138183594 13.83751106262207 L5.263823986053467 13.83751106262207 C4.656792163848877 13.821455001831055 4.049760818481445 13.805399894714355 3.4427289962768555 13.78934383392334 L3.4427289962768555 13.78934383392334 C3.578232765197754 13.562472343444824 3.7137365341186523 13.335599899291992 3.849240303039551 13.108728408813477 L3.849240303039551 13.108728408813477"></path>
<path fill="none" stroke="black" stroke-width=".3" stroke-opacity="1.0"  filling="0" d="M21.25343894958496 14.239487648010254 L21.25343894958496 14.239487648010254 C21.348407745361328 14.491127967834473 21.443374633789062 14.742767333984375 21.53834342956543 14.994407653808594 L21.53834342956543 18.425567626953125 C21.15631103515625 18.81105613708496 20.77427864074707 19.196542739868164 20.39224624633789 19.58203125 L14.797487258911133 19.58203125 L9.202728271484375 19.58203125 L3.607968330383301 19.58203125 C3.2259361743927 19.196542739868164 2.8439042568206787 18.81105613708496 2.461872100830078 18.425567626953125 L2.461872100830078 14.994407653808594 C2.5188961029052734 14.794391632080078 2.5759201049804688 14.594375610351562 2.632944107055664 14.394359588623047 L2.632944107055664 14.394359588623047 C2.288616180419922 13.900365829467773 2.8795411586761475 13.21356201171875 3.060192108154297 12.639143943786621 L4.128744125366211 10.744607925415039 C4.397952079772949 10.351847648620605 4.667160511016846 9.959088325500488 4.936368465423584 9.566328048706055 L4.936368465423584 9.566328048706055 C4.739880561828613 9.119135856628418 4.543392181396484 8.671944618225098 4.346904277801514 8.224752426147461 L4.346904277801514 6.299760341644287 C4.710055828094482 5.465908050537109 5.476615905761719 4.752071380615234 6.3224406242370605 4.417752265930176 L11.895672798156738 4.417752265930176 L17.468904495239258 4.417752265930176 C18.315174102783203 4.75193977355957 19.082447052001953 5.465664386749268 19.445953369140625 6.299760341644287 L19.445953369140625 8.224752426147461 C19.257312774658203 8.664168357849121 19.06867218017578 9.103584289550781 18.88003158569336 9.543000221252441 L18.88003158569336 9.543000221252441 C19.160615921020508 9.944328308105469 19.441198348999023 10.345656394958496 19.721782684326172 10.746984481811523 L20.800704956054688 12.657072067260742 C20.951616287231445 13.18454360961914 21.102527618408203 13.712016105651855 21.25343894958496 14.239487648010254 L21.25343894958496 14.239487648010254"></path>
<path fill="none" stroke="black" stroke-width=".3" stroke-opacity="1.0"  filling="0" d="M20.619693756103516 18.425567626953125 L20.619693756103516 18.425567626953125 C20.543806076049805 18.50498390197754 20.46791648864746 18.58439826965332 20.39202880859375 18.663814544677734 L14.797270774841309 18.663814544677734 L9.202510833740234 18.663814544677734 L3.6077518463134766 18.663814544677734 C3.5318641662597656 18.58439826965332 3.4559764862060547 18.50498390197754 3.3800888061523438 18.425567626953125 L3.3800888061523438 14.994407653808594 C3.4559764862060547 14.91491985321045 3.5318641662597656 14.835431098937988 3.6077518463134766 14.755943298339844 L9.202510833740234 14.755943298339844 L14.797270774841309 14.755943298339844 L20.39202880859375 14.755943298339844 C20.46791648864746 14.835431098937988 20.543806076049805 14.91491985321045 20.619693756103516 14.994407653808594 L20.619693756103516 18.425567626953125"></path></svg>