<svg xmlns="http://www.w3.org/2000/svg" viewBox="0.0 0.0 24.0 24.0" height="200px" width="200px"><path fill="none" stroke="black" stroke-width=".3" stroke-opacity="1.0"  filling="0" d="M15.511565208435059 8.555139541625977 L15.511565208435059 13.503753662109375 L8.359020233154297 13.503753662109375 L1.2064762115478516 13.503753662109375 L1.3973054885864258 8.555139541625977 L8.454435348510742 8.555139541625977 L15.511565208435059 8.555139541625977"></path>
<path fill="none" stroke="black" stroke-width=".3" stroke-opacity="1.0"  filling="0" d="M4.450362205505371 10.4642972946167 L3.942850112915039 11.34267520904541 L2.9630136489868164 11.604957580566406 L2.084853172302246 11.097878456115723 L1.8219232559204102 10.117825508117676 L2.329434394836426 9.239879608154297 L3.309054374694824 8.977598190307617 L4.1874308586120605 9.484460830688477 L4.450362205505371 10.4642972946167"></path>
<path fill="none" stroke="black" stroke-width=".3" stroke-opacity="1.0"  filling="0" d="M19.362045288085938 12.450521469116211 L19.362045288085938 12.450521469116211 C19.362045288085938 12.257710456848145 19.41250991821289 12.061895370483398 19.494808197021484 11.887531280517578 L19.494808197021484 11.887531280517578 C19.800683975219727 11.887531280517578 20.166183471679688 12.149503707885742 20.219266891479492 12.450737953186035 L19.362045288085938 12.450521469116211"></path>
<path fill="none" stroke="black" stroke-width=".3" stroke-opacity="1.0"  filling="0" d="M22.597082138061523 13.778341293334961 L22.597082138061523 13.778341293334961 C22.714153289794922 14.107381820678711 22.692995071411133 14.515985488891602 22.528003692626953 14.82380199432373 L22.528003692626953 14.82380199432373 C22.455541610717773 14.892520904541016 22.383081436157227 14.9612398147583 22.310619354248047 15.029958724975586 L22.04315948486328 15.029958724975586 C21.692615509033203 15.260930061340332 21.134313583374023 15.260930061340332 20.783769607543945 15.029958724975586 L13.65443229675293 15.029958724975586 C13.303694725036621 15.26089859008789 12.745275497436523 15.261009216308594 12.394611358642578 15.029958724975586 L12.17356014251709 15.029958724975586 C11.822859764099121 15.260953903198242 11.264440536499023 15.260953903198242 10.913740158081055 15.029958724975586 L10.46796703338623 15.029958724975586 C10.39824104309082 14.88662052154541 10.328514099121094 14.74328327178955 10.258788108825684 14.599945068359375 L10.959505081176758 14.402206420898438 C11.094568252563477 14.300891876220703 11.229630470275879 14.199576377868652 11.364693641662598 14.098261833190918 L11.722822189331055 14.098261833190918 C11.858317375183105 14.200440406799316 11.99381160736084 14.302618980407715 12.12930679321289 14.404797554016113 L12.438865661621094 14.405229568481445 C12.574432373046875 14.302762985229492 12.70999813079834 14.200296401977539 12.845564842224121 14.097829818725586 L13.203478813171387 14.097829818725586 C13.339620590209961 14.20101547241211 13.475762367248535 14.30420207977295 13.61190414428711 14.407387733459473 L15.8109769821167 14.411921501159668 L15.8109769821167 10.059972763061523 C16.320653915405273 8.816490173339844 17.970291137695312 10.018038749694824 18.92145538330078 10.355498313903809 L18.92145538330078 10.355498313903809 C19.320240020751953 10.698732376098633 19.719026565551758 11.041966438293457 20.11781120300293 11.385200500488281 L20.293960571289062 11.39513111114502 C20.361671447753906 11.534799575805664 20.42938232421875 11.674467086791992 20.497093200683594 11.814135551452637 L20.470109939575195 12.504920959472656 L22.387901306152344 12.737197875976562 C22.45762825012207 12.822395324707031 22.527355194091797 12.907591819763184 22.597082138061523 12.992789268493652 L22.597082138061523 13.778341293334961"></path>
<path fill="none" stroke="black" stroke-width=".3" stroke-opacity="1.0"  filling="0" d="M11.544081687927246 14.071708679199219 L11.544081687927246 14.071708679199219 C11.603734016418457 14.080559730529785 11.663385391235352 14.089410781860352 11.723037719726562 14.098261833190918 L11.364908218383789 14.098261833190918 C11.424633026123047 14.089410781860352 11.484356880187988 14.080559730529785 11.544081687927246 14.071708679199219 L11.544081687927246 14.071708679199219"></path>
<path fill="none" stroke="black" stroke-width=".3" stroke-opacity="1.0"  filling="0" d="M12.845780372619629 14.097829818725586 L12.845780372619629 14.097829818725586 C12.710213661193848 14.200296401977539 12.574646949768066 14.302762985229492 12.439080238342285 14.405229568481445 L12.129522323608398 14.404797554016113 C11.994027137756348 14.302618980407715 11.858532905578613 14.200440406799316 11.723037719726562 14.098261833190918 L12.845780372619629 14.097829818725586"></path>
<path fill="none" stroke="black" stroke-width=".3" stroke-opacity="1.0"  filling="0" d="M12.845780372619629 14.097829818725586 L12.845780372619629 14.097829818725586 C12.963833808898926 14.080598831176758 13.085639953613281 14.080597877502441 13.203693389892578 14.097829818725586 L12.845780372619629 14.097829818725586"></path>
<path fill="none" stroke="black" stroke-width=".3" stroke-opacity="1.0"  filling="0" d="M11.723037719726562 14.098261833190918 L11.723037719726562 14.098261833190918 C11.60359001159668 14.098261833190918 11.48414134979248 14.098261833190918 11.364693641662598 14.098261833190918 L8.468358993530273 14.098261833190918 C7.248331069946289 14.098261833190918 6.028302192687988 14.098261833190918 4.808274269104004 14.098261833190918 L4.642271041870117 14.917057991027832 C4.420284271240234 15.092991828918457 4.259561538696289 15.444860458374023 3.9763107299804688 15.444860458374023 C3.6930599212646484 15.444860458374023 3.532337188720703 15.092991828918457 3.3103504180908203 14.917057991027832 L3.2155818939208984 14.917057991027832 C2.9935953617095947 15.092991828918457 2.8328728675842285 15.444860458374023 2.5496225357055664 15.444860458374023 C2.266371726989746 15.444860458374023 2.105648994445801 15.092991828918457 1.883662223815918 14.917057991027832 L1.655055046081543 14.098261833190918 L1.4087467193603516 14.098261833190918 C1.3413232564926147 14.060052871704102 1.2738996744155884 14.021843910217285 1.2064762115478516 13.983634948730469 L8.360315322875977 13.88940715789795 L15.514155387878418 13.79517936706543 L15.514155387878418 14.097829818725586 L13.203693389892578 14.097829818725586 C13.084388732910156 14.097829818725586 12.96508502960205 14.097829818725586 12.845780372619629 14.097829818725586 L11.723037719726562 14.098261833190918"></path>
<path fill="none" stroke="black" stroke-width=".3" stroke-opacity="1.0"  filling="0" d="M2.7963619232177734 14.917057991027832 L2.7963619232177734 14.917057991027832 C1.520886778831482 15.64016342163086 3.213280200958252 13.64907169342041 2.7963619232177734 14.917057991027832 L2.7963619232177734 14.917057991027832"></path>
<path fill="none" stroke="black" stroke-width=".3" stroke-opacity="1.0"  filling="0" d="M4.223266124725342 14.917057991027832 L4.223266124725342 14.917057991027832 C2.9477930068969727 15.64016056060791 4.6401801109313965 13.649073600769043 4.223266124725342 14.917057991027832 L4.223266124725342 14.917057991027832"></path>
<path fill="none" stroke="black" stroke-width=".3" stroke-opacity="1.0"  filling="0" d="M11.665616989135742 15.029958724975586 L11.665616989135742 15.029958724975586 C10.505182266235352 15.287598609924316 12.450053215026855 13.827534675598145 11.665616989135742 15.029958724975586 L11.665616989135742 15.029958724975586"></path>
<path fill="none" stroke="black" stroke-width=".3" stroke-opacity="1.0"  filling="0" d="M13.146488189697266 15.029958724975586 L13.146488189697266 15.029958724975586 C11.985321044921875 15.287760734558105 13.932646751403809 13.827815055847168 13.146488189697266 15.029958724975586 L13.146488189697266 15.029958724975586"></path>
<path fill="none" stroke="black" stroke-width=".3" stroke-opacity="1.0"  filling="0" d="M21.413894653320312 15.056941986083984 L21.413894653320312 15.056941986083984 C21.170759201049805 15.002962112426758 20.86182403564453 14.45898151397705 21.414112091064453 14.45898151397705 C21.966089248657227 14.45898151397705 21.657230377197266 15.003108024597168 21.413894653320312 15.056941986083984 L21.413894653320312 15.056941986083984"></path></svg>