<svg xmlns="http://www.w3.org/2000/svg" viewBox="0.0 0.0 24.0 24.0" height="200px" width="200px"><path fill="none" stroke="black" stroke-width=".3" stroke-opacity="1.0"  filling="0" d="M6.993984222412109 7.082651615142822 L6.993984222412109 7.082651615142822 C8.476455688476562 4.514935493469238 8.476456642150879 9.650367736816406 6.993984222412109 7.082651615142822 L6.993984222412109 7.082651615142822"></path>
<path fill="none" stroke="black" stroke-width=".3" stroke-opacity="1.0"  filling="0" d="M15.212137222290039 9.742259979248047 L15.212137222290039 9.742259979248047 C16.451723098754883 7.595232009887695 16.451723098754883 11.889287948608398 15.212137222290039 9.742259979248047 L15.212137222290039 9.742259979248047"></path>
<path fill="none" stroke="black" stroke-width=".3" stroke-opacity="1.0"  filling="0" d="M4.012536525726318 10.036235809326172 L4.012536525726318 10.036235809326172 C4.992311954498291 8.339214324951172 4.992311477661133 11.733257293701172 4.012536525726318 10.036235809326172 L4.012536525726318 10.036235809326172"></path>
<path fill="none" stroke="black" stroke-width=".3" stroke-opacity="1.0"  filling="0" d="M3.805392265319824 10.72722053527832 L3.805392265319824 10.72722053527832 C4.356973171234131 10.72722053527832 4.9103474617004395 10.740053176879883 5.459736347198486 10.69093132019043 L5.459736347198486 10.69093132019043 C5.827422618865967 9.545951843261719 5.743747234344482 8.490172386169434 6.877560138702393 8.015771865844727 L8.627592086791992 8.015771865844727 C8.899824142456055 8.288147926330566 9.172056198120117 8.560523986816406 9.44428825378418 8.832900047302246 L9.44428825378418 10.991171836853027 C9.306674003601074 11.128582000732422 8.998435974121094 11.128633499145508 8.860872268676758 10.991171836853027 L8.860872268676758 8.949323654174805 L8.627592086791992 8.949323654174805 L8.627592086791992 14.374380111694336 C8.435044288635254 14.566927909851074 8.003228187561035 14.566927909851074 7.810680389404297 14.374380111694336 L7.810680389404297 11.28255558013916 L7.577400207519531 11.28255558013916 L7.577400207519531 14.374380111694336 C7.3849029541015625 14.566877365112305 6.953150272369385 14.566927909851074 6.760704040527344 14.374380111694336 L6.6328325271606445 8.949323654174805 C6.4059953689575195 9.655449867248535 6.3606743812561035 10.495306015014648 5.848104000091553 11.031347274780273 L5.10312032699585 11.247779846191406 C5.10312032699585 12.330731391906738 5.266104698181152 13.426018714904785 5.10312032699585 14.496635437011719 C5.049417495727539 14.849401473999023 4.612131118774414 14.868464469909668 4.55880069732666 14.496635437011719 C4.482001781463623 13.96117877960205 4.55880069732666 13.414763450622559 4.55880069732666 12.873827934265137 L4.345824718475342 12.873827934265137 C4.345824718475342 13.414763450622559 4.422504425048828 13.961161613464355 4.345824718475342 14.496635437011719 C4.293866157531738 14.859477043151855 3.8540778160095215 14.858404159545898 3.8012876510620117 14.496635437011719 C3.6552090644836426 13.495565414428711 3.8012876510620117 12.473292350769043 3.8012876510620117 11.461620330810547 L3.591984748840332 11.461620330810547 C3.591984748840332 13.865145683288574 2.7251505851745605 11.76656723022461 3.805392265319824 10.72722053527832 L3.805392265319824 10.72722053527832"></path>
<path fill="none" stroke="black" stroke-width=".3" stroke-opacity="1.0"  filling="0" d="M13.736424446105957 10.957476615905762 L14.348784446716309 9.307235717773438 C14.501640319824219 9.171804428100586 14.654496192932129 9.036372184753418 14.807352066040039 8.900940895080566 L19.091928482055664 8.900940895080566 C19.245071411132812 9.036372184753418 19.398216247558594 9.171804428100586 19.551359176635742 9.307235717773438 L20.16350555419922 10.957476615905762 L17.061742782592773 10.957476615905762 C16.849056243896484 10.788060188293457 16.636367797851562 10.618644714355469 16.423681259155273 10.449228286743164 L15.111263275146484 10.450092315673828 C14.896055221557617 10.619220733642578 14.680848121643066 10.788348197937012 14.4656400680542 10.957476615905762 L13.736424446105957 10.957476615905762"></path>
<path fill="none" stroke="black" stroke-width=".3" stroke-opacity="1.0"  filling="0" d="M12.0 12.114372253417969 L12.0 12.114372253417969 C12.299448013305664 11.735219955444336 12.598896026611328 11.35606861114502 12.898344039916992 10.976916313171387 L13.70942497253418 8.881068229675293 C14.079936981201172 8.632668495178223 14.450448036193848 8.384267807006836 14.82096004486084 8.135868072509766 L19.085662841796875 8.135868072509766 C19.456029891967773 8.384267807006836 19.826398849487305 8.632668495178223 20.196765899658203 8.881068229675293 L21.00806427001953 10.976916313171387 C21.30535316467285 11.35606861114502 21.60264015197754 11.735219955444336 21.89992904663086 12.114372253417969 L21.89992904663086 14.78261947631836 L21.108070373535156 14.78261947631836 L21.108070373535156 15.634092330932617 C20.861021041870117 15.895073890686035 20.726287841796875 16.417037963867188 20.366920471191406 16.417037963867188 C20.0073299407959 16.417037963867188 19.872173309326172 15.895073890686035 19.624799728393555 15.634092330932617 L19.624799728393555 14.78261947631836 L14.282039642333984 14.78261947631836 L14.282039642333984 15.634092330932617 C14.033414840698242 15.895073890686035 13.896617889404297 16.417037963867188 13.536165237426758 16.417037963867188 C13.176122665405273 16.417037963867188 13.0401029586792 15.895073890686035 12.792072296142578 15.634092330932617 L12.792072296142578 14.78261947631836 L12.0 14.78261947631836 L12.0 12.114372253417969"></path>
<path fill="none" stroke="black" stroke-width=".3" stroke-opacity="1.0"  filling="0" d="M12.871560096740723 12.46753215789795 L12.871560096740723 12.46753215789795 C13.099944114685059 12.2322359085083 13.228804588317871 11.76164436340332 13.55671215057373 11.76164436340332 C13.886178016662598 11.76164436340332 14.248559951782227 12.138066291809082 14.248559951782227 12.46753215789795 C14.248559951782227 12.796843528747559 13.88602352142334 13.172771453857422 13.55671215057373 13.172771453857422 C13.228960037231445 13.172771453857422 13.099944114685059 12.702611923217773 12.871560096740723 12.46753215789795 L12.871560096740723 12.46753215789795"></path>
<path fill="none" stroke="black" stroke-width=".3" stroke-opacity="1.0"  filling="0" d="M19.657630920410156 12.46753215789795 L19.657630920410156 12.46753215789795 C19.88608741760254 12.2322359085083 20.01504135131836 11.76164436340332 20.343000411987305 11.76164436340332 C20.670907974243164 11.76164436340332 21.02815055847168 12.13962459564209 21.02815055847168 12.46753215789795 C21.02815055847168 12.795284271240234 20.670753479003906 13.172771453857422 20.343000411987305 13.172771453857422 C20.01519775390625 13.172771453857422 19.88608741760254 12.702611923217773 19.657630920410156 12.46753215789795 L19.657630920410156 12.46753215789795"></path>
<path fill="none" stroke="black" stroke-width=".3" stroke-opacity="1.0"  filling="0" d="M10.800119400024414 16.417306900024414 L16.800060272216797 16.417306900024414 L22.799999237060547 16.417306900024414 L22.799999237060547 17.61740493774414 L15.600000381469727 17.61740493774414 L8.40000057220459 17.61740493774414 L1.2000007629394531 17.61740493774414 L1.2000007629394531 14.78261947631836 L6.000060081481934 14.78261947631836 L10.800119400024414 14.78261947631836 L10.800119400024414 16.417306900024414"></path></svg>