<svg xmlns="http://www.w3.org/2000/svg" viewBox="0.0 0.0 24.0 24.0" height="200px" width="200px"><path fill="none" stroke="black" stroke-width=".3" stroke-opacity="1.0"  filling="0" d="M10.200072288513184 4.499784469604492 L10.200072288513184 4.499784469604492 C10.375697135925293 4.075347900390625 10.402226448059082 3.5513548851013184 10.726947784423828 3.226475238800049 C11.84238052368164 2.1104979515075684 13.799927711486816 2.922966957092285 13.799927711486816 4.499784469604492 C13.799927711486816 6.0766191482543945 11.842453956604004 6.889240264892578 10.726947784423828 5.773189067840576 C10.402226448059082 5.448309421539307 10.375697135925293 4.92431640625 10.200072288513184 4.499879837036133 L10.200072288513184 4.499879837036133"></path>
<path fill="none" stroke="black" stroke-width=".3" stroke-opacity="1.0"  filling="0" d="M14.399760246276855 6.9000244140625 L14.399760246276855 6.9000244140625 C14.937320709228516 7.137507438659668 15.596888542175293 7.196919918060303 16.012441635131836 7.612473487854004 C16.359060287475586 7.959091663360596 16.33728790283203 8.5374755859375 16.499711990356445 8.99997615814209 L16.499711990356445 11.699975967407227 L15.00002384185791 11.699975967407227 L15.00002384185791 9.300216674804688 L14.399760246276855 9.300216674804688 L14.399760246276855 11.699975967407227 L9.599808692932129 11.699975967407227 L9.599808692932129 9.300216674804688 L8.999759674072266 9.300216674804688 L8.999759674072266 11.699975967407227 L7.499856472015381 11.699975967407227 L7.499856472015381 8.99997615814209 C7.662369251251221 8.5374755859375 7.640738487243652 7.959095001220703 7.987395286560059 7.612473487854004 C8.402958869934082 7.196952819824219 9.062480926513672 7.137507438659668 9.60002326965332 6.9000244140625 L14.399760246276855 6.9000244140625"></path>
<path fill="none" stroke="black" stroke-width=".3" stroke-opacity="1.0"  filling="0" d="M21.599905014038086 12.300239562988281 L22.799999237060547 12.300239562988281 L22.799999237060547 13.799927711486816 L21.599905014038086 13.799927711486816 L21.599905014038086 17.550010681152344 L21.599905014038086 21.300094604492188 L15.199968338012695 21.300094604492188 L8.800032615661621 21.300094604492188 L2.4000959396362305 21.300094604492188 L2.4000959396362305 17.550010681152344 L2.4000959396362305 13.799927711486816 L1.2000007629394531 13.799927711486816 L1.2000007629394531 12.300239562988281 L7.999969005584717 12.300239562988281 L14.79993724822998 12.300239562988281 L21.599905014038086 12.300239562988281"></path>
<path fill="none" stroke="black" stroke-width=".3" stroke-opacity="1.0"  filling="0" d="M13.764936447143555 19.5314884185791 L12.0 18.249526977539062 L10.235280990600586 19.53170394897461 L10.909416198730469 17.45702362060547 L9.144479751586914 16.175064086914062 L11.325864791870117 16.175064086914062 L12.0 14.100168228149414 L12.674135208129883 16.174846649169922 L14.855520248413086 16.174846649169922 L13.090800285339355 17.45680809020996 L13.764936447143555 19.5314884185791"></path></svg>