<svg xmlns="http://www.w3.org/2000/svg" viewBox="0.0 0.0 24.0 24.0" height="200px" width="200px"><path fill="none" stroke="black" stroke-width=".3" stroke-opacity="1.0"  filling="0" d="M13.591315269470215 9.833662986755371 L13.591315269470215 9.833662986755371 C13.856758117675781 10.639081001281738 14.000160217285156 11.495109558105469 14.00991153717041 12.343086242675781 L14.00991153717041 12.343086242675781 C13.85527515411377 12.342185974121094 13.700639724731445 12.341285705566406 13.546003341674805 12.340385437011719 L13.546003341674805 12.340385437011719 C13.504565238952637 11.505702018737793 13.49263858795166 10.66352653503418 13.591315269470215 9.833661079406738 L13.591315269470215 9.833661079406738"></path>
<path fill="none" stroke="black" stroke-width=".3" stroke-opacity="1.0"  filling="0" d="M13.417080879211426 10.294866561889648 L13.417080879211426 10.294866561889648 C13.40147590637207 10.976211547851562 13.43795394897461 11.659153938293457 13.50177001953125 12.33768367767334 L13.50177001953125 12.33768367767334 C11.768810272216797 12.027342796325684 10.224923133850098 11.95577335357666 8.460267066955566 12.015103340148926 L8.460267066955566 12.015103340148926 C8.436352729797363 12.137554168701172 8.412437438964844 12.260004043579102 8.38852310180664 12.382454872131348 L8.38852310180664 12.382454872131348 C8.334400177001953 12.376343727111816 8.280278205871582 12.370232582092285 8.226155281066895 12.364121437072754 L8.226155281066895 12.364121437072754 C8.234966278076172 12.258033752441406 8.24377727508545 12.151945114135742 8.252588272094727 12.045857429504395 L8.252588272094727 12.045857429504395 C7.041136741638184 12.060673713684082 5.837251663208008 12.125799179077148 4.627086639404297 12.183951377868652 L4.615757942199707 11.847347259521484 C5.706175804138184 11.734748840332031 7.495883941650391 11.796415328979492 9.21829891204834 11.66133975982666 C10.940713882446289 11.526263236999512 12.595834732055664 11.194443702697754 13.41707992553711 10.294872283935547 L13.41707992553711 10.294872283935547"></path>
<path fill="none" stroke="black" stroke-width=".3" stroke-opacity="1.0"  filling="0" d="M4.566668510437012 11.823624610900879 L4.582851886749268 12.207157135009766 L4.203094959259033 12.221711158752441 L4.19500207901001 11.851664543151855 L4.566669464111328 11.823614120483398"></path>
<path fill="none" stroke="black" stroke-width=".3" stroke-opacity="1.0"  filling="0" d="M4.152926921844482 11.902908325195312 L4.151309013366699 12.193659782409668 C3.9107024669647217 12.211173057556152 0.11306953430175781 13.013079643249512 2.7981882095336914 13.640321731567383 C4.205854415893555 13.969151496887207 6.496133804321289 13.689642906188965 7.930547714233398 13.526050567626953 L7.930547714233398 13.526050567626953 C8.273697853088379 13.527267456054688 8.61717414855957 13.523853302001953 8.959779739379883 13.504478454589844 L8.959779739379883 13.504478454589844 C8.959779739379883 13.466718673706055 8.959779739379883 13.428958892822266 8.959779739379883 13.391199111938477 L9.20144271850586 13.339412689208984 C9.219603538513184 13.393715858459473 9.237764358520508 13.448018074035645 9.255925178527832 13.502321243286133 L9.255925178527832 13.502321243286133 C9.374239921569824 13.509151458740234 9.492554664611816 13.515982627868652 9.610869407653809 13.522812843322754 L9.580121994018555 13.852404594421387 C7.581821918487549 13.911510467529297 4.730365753173828 14.501032829284668 2.8246536254882812 13.944000244140625 C-0.3984966278076172 13.001884460449219 3.2852256298065186 11.956488609313965 4.152926921844482 11.902908325195312 L4.152926921844482 11.902908325195312"></path>
<path fill="none" stroke="black" stroke-width=".3" stroke-opacity="1.0"  filling="0" d="M7.522739887237549 12.139179229736328 L7.522739887237549 12.139179229736328 C8.12923812866211 12.204450607299805 8.735735893249512 12.269721031188965 9.342233657836914 12.334992408752441 L9.342233657836914 12.334992408752441 C9.339715957641602 12.45528507232666 9.337199211120605 12.575578689575195 9.334681510925293 12.695871353149414 L9.334681510925293 12.695871353149414 C8.72656536102295 12.7494535446167 8.118449211120605 12.8030366897583 7.510333061218262 12.856618881225586 L7.510333061218262 12.856618881225586 C7.514468669891357 12.617472648620605 7.518604278564453 12.378325462341309 7.522739887237549 12.139179229736328 L7.522739887237549 12.139179229736328"></path>
<path fill="none" stroke="black" stroke-width=".3" stroke-opacity="1.0"  filling="0" d="M21.891504287719727 12.297237396240234 L21.891504287719727 12.297237396240234 C22.557899475097656 12.702921867370605 22.627016067504883 12.895049095153809 22.53072738647461 13.659295082092285 L22.53072738647461 13.659295082092285 C22.37645149230957 13.63430118560791 22.2221736907959 13.609307289123535 22.06789779663086 13.58431339263916 L22.06789779663086 13.58431339263916 C22.977970123291016 12.19642162322998 20.294292449951172 12.582919120788574 19.894908905029297 12.580489158630371 C17.895889282226562 12.568326950073242 15.897298812866211 12.618343353271484 13.898481369018555 12.633766174316406 C13.307413101196289 12.638326644897461 9.925317764282227 12.417281150817871 12.101410865783691 13.581076622009277 L12.101410865783691 13.581076622009277 C11.771309852600098 13.968717575073242 12.060638427734375 13.674382209777832 11.293885231018066 12.642470359802246 L11.293885231018066 12.642470359802246 C10.744889259338379 12.646536827087402 10.195859909057617 12.651896476745605 9.647008895874023 12.665122985839844 L9.647008895874023 12.665122985839844 C9.648087501525879 12.561911582946777 9.64916706085205 12.458701133728027 9.650245666503906 12.355489730834961 L9.650245666503906 12.355489730834961 C11.686805725097656 12.365625381469727 13.729528427124023 12.398380279541016 15.771905899047852 12.40494155883789 C17.814285278320312 12.411502838134766 19.856319427490234 12.391870498657227 21.89150619506836 12.297232627868652 L21.89150619506836 12.297232627868652"></path>
<path fill="none" stroke="black" stroke-width=".3" stroke-opacity="1.0"  filling="0" d="M9.39132308959961 12.338247299194336 L9.39132308959961 12.338247299194336 C9.460370063781738 12.343997955322266 9.52941608428955 12.349749565124512 9.59846305847168 12.355500221252441 L9.59846305847168 12.355500221252441 C9.604216575622559 12.464824676513672 9.609971046447754 12.574148178100586 9.615724563598633 12.683472633361816 L9.615724563598633 12.683472633361816 C9.53516960144043 12.689223289489746 9.454614639282227 12.694974899291992 9.374059677124023 12.700725555419922 L9.374059677124023 12.700725555419922 C9.379813194274902 12.579893112182617 9.385567665100098 12.459061622619629 9.391321182250977 12.338229179382324 L9.391321182250977 12.338229179382324"></path>
<path fill="none" stroke="black" stroke-width=".3" stroke-opacity="1.0"  filling="0" d="M9.897845268249512 12.542133331298828 L9.897845268249512 12.542133331298828 C9.953765869140625 12.563889503479004 10.009686470031738 12.585646629333496 10.065607070922852 12.607402801513672 L10.065607070922852 12.607402801513672 C10.102468490600586 12.84960651397705 10.139328956604004 13.091809272766113 10.176190376281738 13.334012985229492 L9.977141380310059 13.416006088256836 C9.894608497619629 13.149349212646484 9.812076568603516 12.882691383361816 9.729543685913086 12.616034507751465 L9.729543685913086 12.616034507751465 C9.78564453125 12.591401100158691 9.841744422912598 12.566766738891602 9.897845268249512 12.542133331298828 L9.897845268249512 12.542133331298828"></path>
<path fill="none" stroke="black" stroke-width=".3" stroke-opacity="1.0"  filling="0" d="M8.773136138916016 12.63060188293457 L8.773136138916016 12.63060188293457 C8.84919548034668 12.641389846801758 8.925254821777344 12.652177810668945 9.001314163208008 12.662965774536133 L9.001314163208008 12.662965774536133 C9.065506935119629 12.87747859954834 9.129698753356934 13.091992378234863 9.193891525268555 13.30650520324707 L8.959779739379883 13.356672286987305 L8.708944320678711 12.633838653564453 C8.730341911315918 12.632758140563965 8.751738548278809 12.631678581237793 8.773136138916016 12.630598068237305 L8.773136138916016 12.630598068237305"></path>
<path fill="none" stroke="black" stroke-width=".3" stroke-opacity="1.0"  filling="0" d="M8.35561752319336 12.631669998168945 L8.34914493560791 13.555709838867188 C8.226694107055664 13.546000480651855 8.104244232177734 13.53629207611084 7.9817938804626465 13.526582717895508 L7.9817938804626465 13.526582717895508 C8.018654823303223 13.51687240600586 8.05551528930664 13.507162094116211 8.092376708984375 13.497451782226562 L8.092376708984375 13.497451782226562 C8.122584342956543 13.214612007141113 8.152792930603027 12.931771278381348 8.183000564575195 12.648931503295898 L8.35561752319336 12.631678581237793"></path>
<path fill="none" stroke="black" stroke-width=".3" stroke-opacity="1.0"  filling="0" d="M13.98941421508789 12.664032936096191 L13.98941421508789 12.664032936096191 C13.93870735168457 12.803025245666504 13.888001441955566 12.9420166015625 13.837294578552246 13.081008911132812 L13.837294578552246 13.081008911132812 C13.77202320098877 12.94723129272461 13.70675277709961 12.813453674316406 13.641481399536133 12.679676055908203 L13.641481399536133 12.679676055908203 C13.757458686828613 12.67446517944336 13.87343692779541 12.6692533493042 13.98941421508789 12.664042472839355 L13.98941421508789 12.664042472839355"></path>
<path fill="none" stroke="black" stroke-width=".3" stroke-opacity="1.0"  filling="0" d="M13.534135818481445 12.683456420898438 L13.603182792663574 12.683456420898438 C13.643460273742676 12.787027359008789 13.683736801147461 12.890599250793457 13.724014282226562 12.994170188903809 L13.724014282226562 12.994170188903809 C13.660721778869629 12.890599250793457 13.597428321838379 12.787027359008789 13.534135818481445 12.683456420898438 L13.534135818481445 12.683456420898438"></path>
<path fill="none" stroke="black" stroke-width=".3" stroke-opacity="1.0"  filling="0" d="M22.737873077392578 12.99417495727539 L22.781566619873047 13.126328468322754 C22.7319393157959 13.13424015045166 22.68231201171875 13.14215087890625 22.6326847076416 13.150062561035156 L22.6326847076416 13.150062561035156 C22.628007888793945 13.109786033630371 22.623332977294922 13.06950855255127 22.618656158447266 13.029232025146484 L22.618656158447266 13.029232025146484 C22.658395767211914 13.017544746398926 22.69813346862793 13.005857467651367 22.737873077392578 12.994170188903809 L22.737873077392578 12.994170188903809"></path>
<path fill="none" stroke="black" stroke-width=".3" stroke-opacity="1.0"  filling="0" d="M11.08836555480957 13.252565383911133 L11.08836555480957 13.252565383911133 C11.425297737121582 13.395400047302246 11.907330513000488 13.866846084594727 12.135936737060547 13.581076622009277 L12.135936737060547 13.581076622009277 C13.672287940979004 13.58877944946289 15.462114334106445 13.403485298156738 17.232370376586914 13.341343879699707 C19.002628326416016 13.27920150756836 20.753314971923828 13.340211868286133 22.21139144897461 13.84052562713623 L22.21139144897461 13.84052562713623 C22.148637771606445 13.897704124450684 22.08588218688965 13.954883575439453 22.023128509521484 14.012062072753906 L22.023128509521484 14.012062072753906 C21.139474868774414 13.657724380493164 19.655132293701172 13.863607406616211 18.752553939819336 13.864142417907715 C17.295928955078125 13.865006446838379 15.839618682861328 13.863161087036133 14.383346557617188 13.857316970825195 C12.92707347869873 13.851471900939941 11.47083854675293 13.841629028320312 10.014364242553711 13.826496124267578 L10.192912101745605 13.37067985534668 C10.21035385131836 13.426240921020508 10.22779655456543 13.481801986694336 10.245238304138184 13.537363052368164 L10.245238304138184 13.537363052368164 C10.520346641540527 13.53215217590332 10.795454978942871 13.526941299438477 11.070563316345215 13.521730422973633 L11.070563316345215 13.521730422973633 C11.076497077941895 13.432004928588867 11.082430839538574 13.342280387878418 11.088364601135254 13.252554893493652 L11.088364601135254 13.252554893493652"></path>
<path fill="none" stroke="black" stroke-width=".3" stroke-opacity="1.0"  filling="0" d="M11.658002853393555 13.396059036254883 L11.658002853393555 13.396059036254883 C12.008563995361328 13.441099166870117 12.353464126586914 13.441679000854492 12.705573081970215 13.437580108642578 L12.705573081970215 13.54654312133789 C12.291683197021484 13.54654312133789 11.876200675964355 13.501692771911621 11.470281600952148 13.420855522155762 L11.470281600952148 13.420855522155762 C11.532855033874512 13.41258430480957 11.595429420471191 13.404314041137695 11.658002853393555 13.396042823791504 L11.658002853393555 13.396042823791504"></path>
<path fill="none" stroke="black" stroke-width=".3" stroke-opacity="1.0"  filling="0" d="M21.460506439208984 13.431116104125977 L21.460506439208984 13.431116104125977 C21.808765411376953 13.553213119506836 22.15941619873047 13.742219924926758 22.528034210205078 13.724555015563965 L22.528034210205078 13.724555015563965 C22.258342742919922 13.925613403320312 21.752073287963867 13.627801895141602 21.459962844848633 13.540609359741211 L21.46050262451172 13.43110466003418"></path>
<path fill="none" stroke="black" stroke-width=".3" stroke-opacity="1.0"  filling="0" d="M9.943697929382324 13.477483749389648 L9.969050407409668 13.834044456481934 L9.64053726196289 13.846465110778809 L9.943697929382324 13.477496147155762"></path></svg>