<svg xmlns="http://www.w3.org/2000/svg" viewBox="0.0 0.0 24.0 24.0" height="200px" width="200px"><path fill="none" stroke="black" stroke-width=".3" stroke-opacity="1.0"  filling="0" d="M11.68496322631836 6.021120071411133 L11.68496322631836 6.021120071411133 C11.112419128417969 5.796849250793457 10.41052532196045 5.774550914764404 9.967331886291504 5.3483076095581055 C8.445686340332031 3.884857654571533 9.479893684387207 1.2418067455291748 11.59100341796875 1.2004318237304688 C13.702245712280273 1.1590543985366821 14.839295387268066 3.759697914123535 13.375541687011719 5.281508922576904 C12.949142456054688 5.724821090698242 12.248489379882812 5.774582862854004 11.68496322631836 6.021120071411133 L11.68496322631836 6.021120071411133"></path>
<path fill="none" stroke="black" stroke-width=".3" stroke-opacity="1.0"  filling="0" d="M4.047636032104492 7.118184566497803 L5.1230998039245605 7.332888126373291 L4.4478840827941895 8.25088882446289 L4.047636032104492 7.118184566497803"></path>
<path fill="none" stroke="black" stroke-width=".3" stroke-opacity="1.0"  filling="0" d="M9.776388168334961 8.618520736694336 L9.773796081542969 8.621976852416992 C9.714396476745605 8.698945045471191 9.654995918273926 8.775912284851074 9.595596313476562 8.852880477905273 L6.110651969909668 13.367712020874023 L5.934288024902344 17.362091064453125 L5.7579240798950195 21.35647201538086 C5.043635845184326 23.0811824798584 3.7360854148864746 23.080873489379883 3.0216360092163086 21.35647201538086 L2.659404754638672 16.2379207611084 L1.8442201614379883 13.146095275878906 C1.7625365257263184 12.497081756591797 2.043564796447754 11.84567642211914 2.2589406967163086 11.228015899658203 L3.149507522583008 10.015392303466797 L1.7582521438598633 6.2721123695373535 C1.746588110923767 6.240864276885986 1.7349239587783813 6.209616661071777 1.7232599258422852 6.17836856842041 L1.702524185180664 6.110544204711914 C1.628905177116394 5.595662593841553 2.2876169681549072 5.242682456970215 2.6555166244506836 4.875024318695068 L7.76067590713501 5.095128536224365 C10.013468742370605 4.982476711273193 10.254209518432617 7.0338664054870605 9.776388168334961 8.618520736694336 L9.776388168334961 8.618520736694336"></path>
<path fill="none" stroke="black" stroke-width=".3" stroke-opacity="1.0"  filling="0" d="M17.421707153320312 14.083320617675781 L17.421707153320312 14.083320617675781 C16.915294647216797 13.873458862304688 16.289934158325195 13.841507911682129 15.902471542358398 13.453734397888184 C14.572237014770508 12.122428894042969 15.538700103759766 9.7849702835083 17.421707153320312 9.784919738769531 C19.304771423339844 9.784869194030762 20.272064208984375 12.122271537780762 18.941322326660156 13.453815460205078 C18.55374526977539 13.841625213623047 17.928245544433594 13.873485565185547 17.421707153320312 14.083320617675781 L17.421707153320312 14.083320617675781"></path>
<path fill="none" stroke="black" stroke-width=".3" stroke-opacity="1.0"  filling="0" d="M21.972827911376953 20.704151153564453 L21.972827911376953 20.704151153564453 C22.566204071044922 22.134235382080078 21.667083740234375 23.03260612487793 20.236835479736328 22.440792083740234 L17.421924591064453 19.62566566467285 L14.739419937133789 22.306438446044922 C14.288915634155273 22.470958709716797 13.838412284851074 22.635478973388672 13.387907981872559 22.799999237060547 L11.880875587463379 22.799999237060547 C10.707712173461914 22.641462326049805 9.718729019165039 21.78406524658203 9.784163475036621 20.5443115234375 L9.790644645690918 20.458343505859375 C9.960676193237305 19.25982666015625 10.313769340515137 17.13202667236328 11.079635620117188 15.46419906616211 C11.845500946044922 13.79637336730957 13.024139404296875 12.588521957397461 14.845258712768555 13.229904174804688 L14.845258712768555 13.229904174804688 C15.3978271484375 13.672113418579102 15.950210571289062 14.114554405212402 16.502410888671875 14.55722427368164 L20.227981567382812 14.55722427368164 C20.578763961791992 14.908080101013184 21.280330657958984 15.11365795135498 21.280330657958984 15.60979175567627 C21.280330657958984 16.105823516845703 20.578763961791992 16.311216354370117 20.227981567382812 16.661928176879883 L15.09473991394043 16.661928176879883 L14.528602600097656 18.529462814331055 L16.55425262451172 17.021137237548828 C17.088844299316406 16.799821853637695 17.75539779663086 16.799915313720703 18.290027618408203 17.021137237548828 L21.972827911376953 20.704151153564453"></path></svg>