<svg xmlns="http://www.w3.org/2000/svg" viewBox="0.0 0.0 24.0 24.0" height="200px" width="200px"><path fill="none" stroke="black" stroke-width=".3" stroke-opacity="1.0"  filling="0" d="M7.826340198516846 4.630943775177002 L7.826340198516846 4.630943775177002 C7.645764350891113 4.224071979522705 7.465188503265381 3.8172004222869873 7.284612655639648 3.4103288650512695 L7.284612655639648 3.4103288650512695 C7.7183403968811035 3.509976625442505 8.242377281188965 3.42622971534729 8.585796356201172 3.7092723846435547 C8.929152488708496 3.992263078689575 8.946949005126953 4.522584438323975 9.127525329589844 4.9292402267456055 L9.127525329589844 4.9292402267456055 C8.69379711151123 4.829808235168457 8.260068893432617 4.73037576675415 7.826340198516846 4.630943775177002 L7.826340198516846 4.630943775177002"></path>
<path fill="none" stroke="black" stroke-width=".3" stroke-opacity="1.0"  filling="0" d="M17.971214294433594 6.359808444976807 L17.971214294433594 13.823904037475586 L12.000001907348633 13.823904037475586 L6.0287885665893555 13.823904037475586 L6.0287885665893555 6.359808444976807 L7.318092346191406 6.359808444976807 C8.515884399414062 4.810129165649414 8.943268775939941 5.012267589569092 10.680349349975586 5.889144420623779 L10.155900001525879 3.0781211853027344 C10.188344955444336 2.5916709899902344 10.068856239318848 2.070091724395752 10.253235816955566 1.6187708377838135 C10.514527320861816 0.9791862368583679 11.529135704040527 1.216736078262329 11.868412971496582 1.4680646657943726 C12.738645553588867 2.11271333694458 12.897432327270508 3.3197383880615234 13.184220314025879 4.2391204833984375 L13.184220314025879 4.2391204833984375 C11.239256858825684 2.8604071140289307 12.32060432434082 4.138914585113525 13.35075569152832 5.126232147216797 L13.35075569152832 5.126232147216797 C13.460017204284668 5.4244384765625 13.518829345703125 5.745290279388428 13.525716781616211 6.062808036804199 L13.525716781616211 6.062808036804199 C12.23528003692627 5.1469035148620605 11.907337188720703 5.298007011413574 13.197396278381348 6.360024452209473 L14.157083511352539 6.360024452209473 C14.157083511352539 5.4077653884887695 14.520292282104492 4.745110034942627 14.888028144836426 3.8894166946411133 L14.888028144836426 3.8894166946411133 C14.661018371582031 3.1925454139709473 16.198986053466797 3.2229199409484863 15.955500602722168 3.8894166946411133 L15.955500602722168 3.8894166946411133 C16.259817123413086 4.7302775382995605 16.686445236206055 5.427408695220947 16.686445236206055 6.359808444976807 L17.971214294433594 6.359808444976807"></path>
<path fill="none" stroke="black" stroke-width=".3" stroke-opacity="1.0"  filling="0" d="M20.0186767578125 10.24327278137207 L20.0186767578125 10.24327278137207 C20.32892417907715 10.553592681884766 20.63917350769043 10.863911628723145 20.949420928955078 11.17423152923584 L20.949420928955078 16.127758026123047 C20.832305908203125 16.779569625854492 20.595800399780273 17.420169830322266 20.260379791259766 17.991191864013672 L17.1711483001709 21.271366119384766 C17.04392433166504 21.581830978393555 16.91670036315918 21.89229393005371 16.78947639465332 22.2027587890625 L16.78947639465332 22.799999237060547 L13.427652359008789 22.799999237060547 L13.423980712890625 21.378936767578125 C13.47060489654541 20.689468383789062 13.727255821228027 20.012048721313477 14.057291984558105 19.404911041259766 L17.976825714111328 15.469175338745117 C18.796419143676758 15.139012336730957 19.371814727783203 15.634560585021973 19.059635162353516 16.486967086791992 L17.169418334960938 18.511966705322266 C16.93954086303711 18.908802032470703 16.72599983215332 19.336746215820312 16.66225242614746 19.790903091430664 L17.270076751708984 19.790903091430664 C17.30803680419922 19.4996337890625 17.43863296508789 19.22297477722168 17.582843780517578 18.967079162597656 L19.502220153808594 16.86151123046875 C19.774690628051758 16.212404251098633 19.474958419799805 15.375957489013672 19.08209991455078 14.791799545288086 L19.08209991455078 11.17423152923584 C19.3942928314209 10.863911628723145 19.706483840942383 10.553592681884766 20.0186767578125 10.24327278137207 L20.0186767578125 10.24327278137207"></path>
<path fill="none" stroke="black" stroke-width=".3" stroke-opacity="1.0"  filling="0" d="M16.776947021484375 12.629640579223633 L12.0 12.629640579223633 L7.223052978515625 12.629640579223633 L7.223052978515625 7.554287910461426 L12.0 7.554287910461426 L16.776947021484375 7.554287910461426 L16.776947021484375 12.629640579223633"></path>
<path fill="none" stroke="black" stroke-width=".3" stroke-opacity="1.0"  filling="0" d="M6.023604393005371 15.469390869140625 L9.942708969116211 19.404911041259766 C10.272613525390625 20.012094497680664 10.529141426086426 20.68949317932129 10.575804710388184 21.378936767578125 L10.571916580200195 22.799999237060547 L7.209660530090332 22.799999237060547 L7.209660530090332 22.2027587890625 C7.082508563995361 21.892223358154297 6.955356597900391 21.58168601989746 6.82820463180542 21.271150588989258 L3.7387571334838867 17.991191864013672 C3.403465986251831 17.420150756835938 3.167116165161133 16.779544830322266 3.0501489639282227 16.127758026123047 L3.0501489639282227 11.17423152923584 C3.3603248596191406 10.863911628723145 3.5419201850891113 10.24327278137207 3.9806766510009766 10.24327278137207 C4.42091178894043 10.24327278137207 4.605205059051514 10.863911628723145 4.917469024658203 11.17423152923584 L4.917469024658203 14.791799545288086 C4.524609565734863 15.375957489013672 4.224878787994385 16.212406158447266 4.497349262237549 16.86151123046875 L6.416724681854248 18.967945098876953 C6.5611114501953125 19.223478317260742 6.691722393035889 19.50002670288086 6.729276657104492 19.791118621826172 L7.3379645347595215 19.791118621826172 C7.274257183074951 19.337064743041992 7.060640811920166 18.90921974182129 6.830580234527588 18.512615203857422 L4.939932823181152 16.48761558532715 C4.627453804016113 15.634679794311523 5.203729629516602 15.139934539794922 6.023604393005371 15.469390869140625 L6.023604393005371 15.469390869140625"></path></svg>