<svg xmlns="http://www.w3.org/2000/svg" viewBox="0.0 0.0 24.0 24.0" height="200px" width="200px"><path fill="none" stroke="black" stroke-width=".3" stroke-opacity="1.0"  filling="0" d="M14.678400039672852 4.936800003051758 L14.678400039672852 4.936800003051758 C14.378988265991211 6.045218467712402 14.468908309936523 6.597384929656982 13.363200187683105 7.231200218200684 C11.616118431091309 8.232665061950684 9.364799499511719 6.966644287109375 9.364799499511719 4.936800003051758 C9.364799499511719 2.906956195831299 11.616119384765625 1.6409350633621216 13.363200187683105 2.642399787902832 C14.468903541564941 3.2762129306793213 14.378989219665527 3.8283848762512207 14.678400039672852 4.936800003051758 L14.678400039672852 4.936800003051758"></path>
<path fill="none" stroke="black" stroke-width=".3" stroke-opacity="1.0"  filling="0" d="M6.492000102996826 7.572000026702881 L6.492000102996826 7.572000026702881 C6.088800430297852 7.975200176239014 5.852611541748047 8.781599998474121 5.282400608062744 8.781599998474121 C3.669600486755371 8.781599998474121 3.669600486755371 6.362400054931641 5.282400608062744 6.362400054931641 C5.852611541748047 6.362400054931641 6.088800430297852 7.168799877166748 6.492000102996826 7.572000026702881 L6.492000102996826 7.572000026702881"></path>
<path fill="none" stroke="black" stroke-width=".3" stroke-opacity="1.0"  filling="0" d="M17.507999420166016 7.572000026702881 L17.507999420166016 7.572000026702881 C17.91119956970215 7.168799877166748 18.14738655090332 6.362400054931641 18.71759796142578 6.362400054931641 C20.330398559570312 6.362400054931641 20.330398559570312 8.781599998474121 18.71759796142578 8.781599998474121 C18.14738655090332 8.781599998474121 17.91119956970215 7.975200176239014 17.507999420166016 7.572000026702881 L17.507999420166016 7.572000026702881"></path>
<path fill="none" stroke="black" stroke-width=".3" stroke-opacity="1.0"  filling="0" d="M7.464000225067139 8.155200004577637 L5.692800045013428 9.79680061340332 L4.418400287628174 8.392800331115723 L6.168000221252441 6.751200199127197 L7.464000225067139 8.155200004577637"></path>
<path fill="none" stroke="black" stroke-width=".3" stroke-opacity="1.0"  filling="0" d="M7.464000225067139 8.155200004577637 L8.587200164794922 9.321599960327148 L7.464000225067139 10.574399948120117 L5.692800045013428 9.79680061340332 L5.887200355529785 8.241600036621094 L7.464000225067139 8.155200004577637"></path>
<path fill="none" stroke="black" stroke-width=".3" stroke-opacity="1.0"  filling="0" d="M7.464000225067139 8.155200004577637 L12.475199699401855 8.155200004577637 L12.475199699401855 10.574399948120117 L7.464000225067139 10.574399948120117 L7.464000225067139 8.155200004577637"></path>
<path fill="none" stroke="black" stroke-width=".3" stroke-opacity="1.0"  filling="0" d="M9.105599403381348 8.155200004577637 L14.959199905395508 8.155200004577637 L14.959199905395508 12.399599075317383 L14.959199905395508 16.643999099731445 L9.105599403381348 16.643999099731445 L9.105599403381348 12.399599075317383 L9.105599403381348 8.155200004577637"></path>
<path fill="none" stroke="black" stroke-width=".3" stroke-opacity="1.0"  filling="0" d="M11.524800300598145 8.155200004577637 L16.536001205444336 8.155200004577637 L16.536001205444336 10.574399948120117 L11.524800300598145 10.574399948120117 L11.524800300598145 8.155200004577637"></path>
<path fill="none" stroke="black" stroke-width=".3" stroke-opacity="1.0"  filling="0" d="M16.536001205444336 8.155200004577637 L18.17759895324707 8.32800006866455 L18.307199478149414 9.79680061340332 L16.536001205444336 10.574399948120117 L15.564000129699707 9.256799697875977 L16.536001205444336 8.155200004577637"></path>
<path fill="none" stroke="black" stroke-width=".3" stroke-opacity="1.0"  filling="0" d="M16.536001205444336 8.155200004577637 L17.831998825073242 6.751200199127197 L19.581600189208984 8.392800331115723 L18.307199478149414 9.79680061340332 L16.536001205444336 8.155200004577637"></path>
<path fill="none" stroke="black" stroke-width=".3" stroke-opacity="1.0"  filling="0" d="M5.692800045013428 9.79680061340332 L7.464000225067139 10.574399948120117 C6.873600006103516 10.315199851989746 6.283200263977051 10.056000709533691 5.692800045013428 9.79680061340332 L5.692800045013428 9.79680061340332"></path>
<path fill="none" stroke="black" stroke-width=".3" stroke-opacity="1.0"  filling="0" d="M18.307199478149414 9.79680061340332 L16.536001205444336 10.574399948120117 C17.126399993896484 10.315199851989746 17.716800689697266 10.056000709533691 18.307199478149414 9.79680061340332 L18.307199478149414 9.79680061340332"></path>
<path fill="none" stroke="black" stroke-width=".3" stroke-opacity="1.0"  filling="0" d="M10.920000076293945 13.05840015411377 L13.14479923248291 12.172799110412598 L15.564000129699707 18.11280059814453 L13.339200019836426 19.01999855041504 L10.920000076293945 13.05840015411377"></path>
<path fill="none" stroke="black" stroke-width=".3" stroke-opacity="1.0"  filling="0" d="M9.105599403381348 14.095199584960938 L11.503199577331543 14.095199584960938 L11.503199577331543 20.510400772094727 L9.105599403381348 20.510400772094727 L9.105599403381348 14.095199584960938"></path>
<path fill="none" stroke="black" stroke-width=".3" stroke-opacity="1.0"  filling="0" d="M15.499198913574219 18.1343994140625 L15.499198913574219 18.1343994140625"></path>
<path fill="none" stroke="black" stroke-width=".3" stroke-opacity="1.0"  filling="0" d="M16.492799758911133 18.933597564697266 L16.384801864624023 18.847198486328125 C16.878385543823242 19.176273345947266 17.45476531982422 19.5362548828125 16.579198837280273 20.596799850463867 C16.22478485107422 21.026090621948242 15.470398902893066 20.697599411010742 14.915999412536621 20.74799919128418 L16.492799758911133 18.933597564697266"></path>
<path fill="none" stroke="black" stroke-width=".3" stroke-opacity="1.0"  filling="0" d="M13.339200019836426 19.01999855041504 L14.246399879455566 18.220800399780273 L15.369599342346191 17.788801193237305 L15.564000129699707 18.11280059814453 L15.347999572753906 19.084800720214844 L13.96560001373291 19.90559959411621 L13.339200019836426 19.01999855041504"></path>
<path fill="none" stroke="black" stroke-width=".3" stroke-opacity="1.0"  filling="0" d="M13.96560001373291 19.90559959411621 L15.520800590515137 18.11280059814453 L16.42799949645996 18.825599670410156 C15.880800247192383 18.88319969177246 15.144885063171387 18.58098793029785 14.78640079498291 18.998401641845703 C14.424921035766602 19.419301986694336 14.82960033416748 20.107200622558594 14.851200103759766 20.66160011291504 L13.96560001373291 19.90559959411621"></path>
<path fill="none" stroke="black" stroke-width=".3" stroke-opacity="1.0"  filling="0" d="M13.96560001373291 19.90559959411621 L13.339200019836426 19.01999855041504 C13.54800033569336 19.31519889831543 13.756799697875977 19.61039924621582 13.96560001373291 19.90559959411621 L13.96560001373291 19.90559959411621"></path>
<path fill="none" stroke="black" stroke-width=".3" stroke-opacity="1.0"  filling="0" d="M11.503199577331543 20.510400772094727 L11.503199577331543 20.510400772094727 C11.09999942779541 20.91360092163086 10.863810539245605 21.719999313354492 10.293600082397461 21.719999313354492 C8.872791290283203 21.719999313354492 8.488810539245605 19.300800323486328 10.293600082397461 19.300800323486328 C10.863810539245605 19.300800323486328 11.09999942779541 20.107200622558594 11.503199577331543 20.510400772094727 L11.503199577331543 20.510400772094727"></path>
<path fill="none" stroke="black" stroke-width=".3" stroke-opacity="1.0"  filling="0" d="M14.851200103759766 20.683198928833008 L14.851200103759766 20.683198928833008 C14.8656005859375 20.697599411010742 14.880000114440918 20.711997985839844 14.894400596618652 20.726398468017578 L14.894400596618652 20.726398468017578 C14.901599884033203 20.733598709106445 14.90880012512207 20.740798950195312 14.915999412536621 20.74799919128418 L14.851200103759766 20.683198928833008"></path>
<path fill="none" stroke="black" stroke-width=".3" stroke-opacity="1.0"  filling="0" d="M14.851200103759766 20.683198928833008 L14.851200103759766 20.683198928833008 C14.82960033416748 20.128799438476562 14.424921035766602 19.440900802612305 14.78640079498291 19.01999855041504 C15.144885063171387 18.602584838867188 15.880800247192383 18.90479850769043 16.42799949645996 18.847198486328125 L14.851200103759766 20.683198928833008"></path></svg>