<svg xmlns="http://www.w3.org/2000/svg" viewBox="0.0 0.0 24.0 24.0" height="200px" width="200px"><path fill="none" stroke="black" stroke-width=".3" stroke-opacity="1.0"  filling="0" d="M2.7079505920410156 7.990950107574463 L8.859001159667969 7.990950107574463 L15.010050773620605 7.990950107574463 L21.161100387573242 7.990950107574463 C21.275100708007812 8.1048002243042 21.38909912109375 8.218650817871094 21.50309944152832 8.332500457763672 L21.50309944152832 15.667500495910645 C21.38909912109375 15.781350135803223 21.275100708007812 15.895200729370117 21.161100387573242 16.009050369262695 L15.010050773620605 16.009052276611328 L8.859001159667969 16.009052276611328 L2.7079505920410156 16.009050369262695 C2.5939502716064453 15.895200729370117 2.479949951171875 15.781350135803223 2.3659496307373047 15.667500495910645 L2.3659496307373047 8.332500457763672 C2.479949951171875 8.218650817871094 2.5939502716064453 8.1048002243042 2.7079505920410156 7.990950107574463 L2.7079505920410156 7.990950107574463"></path>
<path fill="none" stroke="black" stroke-width=".3" stroke-opacity="1.0"  filling="0" d="M15.634649276733398 10.751699447631836 L9.490350723266602 10.751699447631836 C9.295825958251953 10.557174682617188 9.295825958251953 10.120924949645996 9.490350723266602 9.926400184631348 L15.634649276733398 9.926400184631348 C15.829174041748047 10.120924949645996 15.829174995422363 10.557174682617188 15.634649276733398 10.751699447631836 L15.634649276733398 10.751699447631836"></path>
<path fill="none" stroke="black" stroke-width=".3" stroke-opacity="1.0"  filling="0" d="M20.437950134277344 10.767450332641602 L20.437950134277344 10.767450332641602 C20.317649841308594 10.887750625610352 20.197349548339844 11.008049964904785 20.077049255371094 11.128350257873535 L18.42599868774414 11.128350257873535 C18.30569839477539 11.008049964904785 18.185400009155273 10.887750625610352 18.065099716186523 10.767450332641602 L18.065099716186523 9.116399765014648 C18.185400009155273 8.996100425720215 18.30569839477539 8.875800132751465 18.42599868774414 8.755500793457031 L20.077049255371094 8.755500793457031 C20.197349548339844 8.875800132751465 20.317649841308594 8.996100425720215 20.437950134277344 9.116399765014648 L20.437950134277344 10.767450332641602"></path>
<path fill="none" stroke="black" stroke-width=".3" stroke-opacity="1.0"  filling="0" d="M4.570050239562988 11.277750015258789 L4.570050239562988 11.277750015258789 C4.865100383758545 11.484000205993652 5.2037577629089355 12.154125213623047 5.4552001953125 11.896500587463379 C5.775896072387695 11.567920684814453 5.223666191101074 10.979975700378418 5.3022003173828125 10.527600288391113 C5.343251705169678 10.291133880615234 5.583033084869385 9.865025520324707 5.7855000495910645 9.993900299072266 C6.640471458435059 10.538108825683594 7.210903644561768 12.96915054321289 6.529799938201904 13.796850204467773 C4.59633207321167 16.146465301513672 3.3776321411132812 11.397676467895508 4.570050239562988 11.277750015258789 L4.570050239562988 11.277750015258789"></path>
<path fill="none" stroke="black" stroke-width=".3" stroke-opacity="1.0"  filling="0" d="M15.634649276733398 12.490949630737305 L9.490350723266602 12.490949630737305 C9.295825958251953 12.296424865722656 9.295825958251953 11.860175132751465 9.490350723266602 11.665650367736816 L15.634649276733398 11.665650367736816 C15.829174995422363 11.860175132751465 15.829174041748047 12.296424865722656 15.634649276733398 12.490949630737305 L15.634649276733398 12.490949630737305"></path>
<path fill="none" stroke="black" stroke-width=".3" stroke-opacity="1.0"  filling="0" d="M15.634649276733398 14.141550064086914 L9.490350723266602 14.141550064086914 C9.295825958251953 13.94702434539795 9.295825004577637 13.510774612426758 9.490350723266602 13.31624984741211 L15.634649276733398 13.31624984741211 C15.829174995422363 13.510774612426758 15.829174041748047 13.947025299072266 15.634649276733398 14.141550064086914 L15.634649276733398 14.141550064086914"></path>
<path fill="none" stroke="black" stroke-width=".3" stroke-opacity="1.0"  filling="0" d="M21.160648345947266 16.87125015258789 L15.009749412536621 16.87125015258789 L8.858850479125977 16.87125015258789 L2.7079505920410156 16.87125015258789 C2.3065502643585205 16.470001220703125 1.905150055885315 16.068750381469727 1.5037498474121094 15.667500495910645 L1.5037498474121094 8.332500457763672 C1.905150055885315 7.93125057220459 2.3065502643585205 7.53000020980835 2.7079505920410156 7.128750324249268 L8.859001159667969 7.128750801086426 L15.010050773620605 7.128750801086426 L21.161100387573242 7.128750324249268 C21.5625 7.53000020980835 21.963899612426758 7.93125057220459 22.365299224853516 8.332500457763672 L22.365299224853516 15.667500495910645 C21.963748931884766 16.068750381469727 21.562198638916016 16.470001220703125 21.160648345947266 16.87125015258789 L21.160648345947266 16.87125015258789"></path></svg>