<svg xmlns="http://www.w3.org/2000/svg" viewBox="0.0 0.0 24.0 24.0" height="200px" width="200px"><path fill="none" stroke="black" stroke-width=".3" stroke-opacity="1.0"  filling="0" d="M2.8060503005981445 7.990950107574463 L8.957100868225098 7.990950107574463 L15.10815143585205 7.990950107574463 L21.259201049804688 7.990950107574463 C21.373201370239258 8.1048002243042 21.487199783325195 8.218650817871094 21.601200103759766 8.332500457763672 L21.601200103759766 15.667500495910645 C21.487199783325195 15.781350135803223 21.373201370239258 15.895200729370117 21.259201049804688 16.009050369262695 L15.10815143585205 16.009052276611328 L8.957100868225098 16.009052276611328 L2.8060503005981445 16.009050369262695 C2.6922004222869873 15.895200729370117 2.578350305557251 15.781350135803223 2.4645004272460938 15.667500495910645 L2.4645004272460938 8.332500457763672 C2.578350305557251 8.218650817871094 2.6922004222869873 8.1048002243042 2.8060503005981445 7.990950107574463 L2.8060503005981445 7.990950107574463"></path>
<path fill="none" stroke="black" stroke-width=".3" stroke-opacity="1.0"  filling="0" d="M15.824999809265137 10.751699447631836 L9.68025016784668 10.751699447631836 C9.485725402832031 10.557174682617188 9.485725402832031 10.120924949645996 9.68025016784668 9.926400184631348 L15.824999809265137 9.926400184631348 C16.0195255279541 10.120924949645996 16.0195255279541 10.557174682617188 15.824999809265137 10.751699447631836 L15.824999809265137 10.751699447631836"></path>
<path fill="none" stroke="black" stroke-width=".3" stroke-opacity="1.0"  filling="0" d="M5.6595001220703125 10.802550315856934 L5.6595001220703125 10.802550315856934 C6.080850124359131 11.223750114440918 6.923550128936768 11.470376968383789 6.923550128936768 12.066149711608887 C6.923550128936768 13.755925178527832 4.395900726318359 13.747177124023438 4.395900726318359 12.066149711608887 C4.395900726318359 11.470483779907227 5.238300323486328 11.223750114440918 5.6595001220703125 10.802550315856934 L5.6595001220703125 10.802550315856934"></path>
<path fill="none" stroke="black" stroke-width=".3" stroke-opacity="1.0"  filling="0" d="M20.5364990234375 10.995599746704102 L20.5364990234375 10.995599746704102 C20.41619873046875 11.115900039672852 20.2958984375 11.236199378967285 20.17559814453125 11.356499671936035 L18.52454948425293 11.356499671936035 C18.40424919128418 11.236199378967285 18.28394889831543 11.115900039672852 18.16364860534668 10.995599746704102 L18.16364860534668 9.344550132751465 C18.28394889831543 9.224249839782715 18.40424919128418 9.103950500488281 18.52454948425293 8.983650207519531 L20.17559814453125 8.983650207519531 C20.2958984375 9.103950500488281 20.41619873046875 9.224249839782715 20.5364990234375 9.344550132751465 L20.5364990234375 10.995599746704102"></path>
<path fill="none" stroke="black" stroke-width=".3" stroke-opacity="1.0"  filling="0" d="M5.857049942016602 11.907299995422363 L5.857049942016602 11.907299995422363 C6.398099899291992 12.172033309936523 6.413936138153076 12.625948905944824 5.857049942016602 12.888750076293945 L5.508300304412842 12.882450103759766 C5.3622002601623535 12.808349609375 5.216100215911865 12.73425006866455 5.070000171661377 12.660149574279785 L5.358450412750244 12.321749687194824 C5.408100128173828 12.35534954071045 5.45775032043457 12.388949394226074 5.507400035858154 12.4225492477417 L5.507400035858154 12.285750389099121 C4.9813232421875 12.026509284973145 4.975321292877197 11.580950736999512 5.507850170135498 11.318699836730957 L5.857049942016602 11.32140064239502 C5.975100040435791 11.371650695800781 6.0931501388549805 11.421899795532227 6.21120023727417 11.472149848937988 L5.9569501876831055 11.835750579833984 C5.92365026473999 11.816699981689453 5.890349864959717 11.797650337219238 5.857049942016602 11.778599739074707 L5.857049942016602 11.907299995422363"></path>
<path fill="none" stroke="black" stroke-width=".3" stroke-opacity="1.0"  filling="0" d="M15.824999809265137 12.490949630737305 L9.68025016784668 12.490949630737305 C9.485725402832031 12.296424865722656 9.485725402832031 11.860175132751465 9.68025016784668 11.665650367736816 L15.824999809265137 11.665650367736816 C16.0195255279541 11.860175132751465 16.0195255279541 12.296424865722656 15.824999809265137 12.490949630737305 L15.824999809265137 12.490949630737305"></path>
<path fill="none" stroke="black" stroke-width=".3" stroke-opacity="1.0"  filling="0" d="M15.824999809265137 14.141550064086914 L9.68025016784668 14.141550064086914 C9.485725402832031 13.94702434539795 9.485724449157715 13.510774612426758 9.68025016784668 13.31624984741211 L15.824999809265137 13.31624984741211 C16.0195255279541 13.510774612426758 16.0195255279541 13.94702434539795 15.824999809265137 14.141550064086914 L15.824999809265137 14.141550064086914"></path>
<path fill="none" stroke="black" stroke-width=".3" stroke-opacity="1.0"  filling="0" d="M5.6595001220703125 14.191949844360352 L5.6595001220703125 14.191949844360352 C5.158725261688232 13.984162330627441 4.54050874710083 13.952001571655273 4.157175540924072 13.568587303161621 C2.84132719039917 12.252459526062012 3.7970378398895264 9.9400053024292 5.6595001220703125 9.939900398254395 C7.521764278411865 9.93979549407959 8.478652954101562 12.252321243286133 7.162387847900391 13.568587303161621 C6.778891563415527 13.952083587646484 6.160462856292725 13.984162330627441 5.6595001220703125 14.191949844360352 L5.6595001220703125 14.191949844360352"></path>
<path fill="none" stroke="black" stroke-width=".3" stroke-opacity="1.0"  filling="0" d="M21.259201049804688 16.87125015258789 L15.10815143585205 16.87125015258789 L8.957100868225098 16.87125015258789 L2.8060503005981445 16.87125015258789 C2.4048001766204834 16.470001220703125 2.003549814224243 16.068750381469727 1.602299690246582 15.667500495910645 L1.602299690246582 8.332500457763672 C2.003549814224243 7.93125057220459 2.4048001766204834 7.53000020980835 2.8060503005981445 7.128750324249268 L8.957100868225098 7.128750801086426 L15.10815143585205 7.128750801086426 L21.259201049804688 7.128750324249268 C21.660600662231445 7.53000020980835 22.06199836730957 7.93125057220459 22.463397979736328 8.332500457763672 L22.463397979736328 15.667500495910645 C22.06199836730957 16.068750381469727 21.660600662231445 16.470001220703125 21.259201049804688 16.87125015258789 L21.259201049804688 16.87125015258789"></path></svg>