<svg xmlns="http://www.w3.org/2000/svg" viewBox="0.0 0.0 24.0 24.0" height="200px" width="200px"><path fill="none" stroke="black" stroke-width=".3" stroke-opacity="1.0"  filling="0" d="M1.1999998092651367 4.800000190734863 L8.399999618530273 4.800000190734863 L15.59999942779541 4.800000190734863 L22.799999237060547 4.800000190734863 L22.799999237060547 12.0 L22.799999237060547 19.200000762939453 L15.59999942779541 19.200000762939453 L8.399999618530273 19.200000762939453 L1.1999998092651367 19.200000762939453 L1.1999998092651367 12.0 L1.1999998092651367 4.800000190734863"></path>
<path fill="none" stroke="black" stroke-width=".3" stroke-opacity="1.0"  filling="0" d="M22.799999237060547 10.559999465942383 L22.799999237060547 13.440000534057617 L16.559999465942383 13.440000534057617 L10.319999694824219 13.440000534057617 L10.319999694824219 19.200000762939453 L7.439999580383301 19.200000762939453 L7.439999580383301 13.440000534057617 L1.1999998092651367 13.440000534057617 L1.1999998092651367 10.559999465942383 L7.439999580383301 10.559999465942383 L7.439999580383301 4.800000190734863 L10.319999694824219 4.800000190734863 L10.319999694824219 10.559999465942383 L16.559999465942383 10.559999465942383 L22.799999237060547 10.559999465942383"></path>
<path fill="none" stroke="black" stroke-width=".3" stroke-opacity="1.0"  filling="0" d="M22.799999237060547 11.279999732971191 L22.799999237060547 12.720000267028809 L16.19999885559082 12.720000267028809 L9.59999942779541 12.720000267028809 L9.59999942779541 19.200000762939453 L8.15999984741211 19.200000762939453 L8.15999984741211 12.720000267028809 L1.1999998092651367 12.720000267028809 L1.1999998092651367 11.279999732971191 L8.15999984741211 11.279999732971191 L8.15999984741211 4.800000190734863 L9.59999942779541 4.800000190734863 L9.59999942779541 11.279999732971191 L16.19999885559082 11.279999732971191 L22.799999237060547 11.279999732971191"></path></svg>