<svg xmlns="http://www.w3.org/2000/svg" viewBox="0.0 0.0 24.0 24.0" height="200px" width="200px"><path fill="none" stroke="black" stroke-width=".3" stroke-opacity="1.0"  filling="0" d="M11.89523983001709 5.9306159019470215 L11.89523983001709 5.9306159019470215 C10.694395065307617 5.671053886413574 9.493370056152344 5.412322521209717 8.292143821716309 5.154528617858887 L6.784464359283447 5.154528617858887 C6.580817699432373 4.950881481170654 6.580817222595215 4.494174957275391 6.784464359283447 4.290528297424316 L8.292143821716309 4.290528297424316 C9.331052780151367 4.41642427444458 10.901585578918457 5.145376205444336 11.89523983001709 5.066616535186768 C13.219425201416016 4.961658000946045 14.284147262573242 3.672569751739502 15.640247344970703 3.7706165313720703 C16.287782669067383 3.8174335956573486 16.906131744384766 4.059607982635498 17.538671493530273 4.2058563232421875 C18.00926971435547 4.314662456512451 21.215038299560547 4.1981587409973145 21.215641021728516 5.004192352294922 C21.21660041809082 6.285515308380127 17.426050186157227 5.046418190002441 17.168231964111328 4.986696243286133 C15.031744956970215 4.49179220199585 13.909157752990723 5.524685859680176 11.89523983001709 5.9306159019470215 L11.89523983001709 5.9306159019470215"></path>
<path fill="none" stroke="black" stroke-width=".3" stroke-opacity="1.0"  filling="0" d="M18.880462646484375 7.658400058746338 L18.297910690307617 7.019472122192383 L20.451431274414062 4.986264228820801 L18.448463439941406 3.122401237487793 L19.04440689086914 2.496000289916992 L21.719999313354492 4.999871730804443 L18.880462646484375 7.658400058746338"></path>
<path fill="none" stroke="black" stroke-width=".3" stroke-opacity="1.0"  filling="0" d="M5.443104267120361 11.068391799926758 L3.000791549682617 11.068391799926758 C2.797144651412964 10.864745140075684 2.797145128250122 10.408039093017578 3.000791549682617 10.204391479492188 L5.443104267120361 10.204391479492188 C5.607764720916748 10.150629043579102 8.929302215576172 9.06423568725586 8.97599983215332 9.057215690612793 C10.22237491607666 8.869840621948242 11.28439712524414 10.082064628601074 12.516671180725098 10.022087097167969 C13.69117259979248 9.964921951293945 15.156089782714844 8.8529691696167 16.366439819335938 8.598864555358887 L17.54364013671875 8.598864555358887 C17.747285842895508 8.802511215209961 17.747285842895508 9.259218215942383 17.54364013671875 9.462864875793457 L16.366439819335938 9.462864875793457 C15.046350479125977 9.759241104125977 13.87256145477295 10.84522533416748 12.516456604003906 10.886087417602539 C11.236075401306152 10.924667358398438 10.245779037475586 9.902811050415039 8.975568771362305 9.921216011047363 C7.9177703857421875 9.936543464660645 6.533412933349609 10.873053550720215 5.443104267120361 11.068391799926758 L5.443104267120361 11.068391799926758"></path>
<path fill="none" stroke="black" stroke-width=".3" stroke-opacity="1.0"  filling="0" d="M15.67199993133545 12.0 L15.042791366577148 11.406864166259766 L17.214454650878906 9.114240646362305 L15.02400016784668 7.302864074707031 L15.570911407470703 6.6330485343933105 L18.479999542236328 9.03172779083252 L15.67199993133545 12.0"></path>
<path fill="none" stroke="black" stroke-width=".3" stroke-opacity="1.0"  filling="0" d="M15.59726333618164 15.6415433883667 L15.59726333618164 15.6415433883667 C14.505945205688477 15.411500930786133 13.189842224121094 14.416677474975586 12.125927925109863 14.375783920288086 C11.108916282653809 14.336692810058594 9.548807144165039 15.255970001220703 8.487192153930664 15.4279203414917 L5.705112457275391 15.4279203414917 C5.501465797424316 15.224273681640625 5.501465797424316 14.767566680908203 5.705112457275391 14.563920021057129 L8.487192153930664 14.563920021057129 C8.60509204864502 14.529718399047852 12.10170841217041 13.514368057250977 12.125711441040039 13.511783599853516 C13.39467716217041 13.375141143798828 14.372775077819824 14.672196388244629 15.597047805786133 14.777544021606445 C16.13077163696289 14.823470115661621 17.363311767578125 14.198685646057129 17.895854949951172 14.077272415161133 C18.219099044799805 14.00357723236084 21.217517852783203 13.281176567077637 21.21499252319336 14.291543960571289 C21.21345329284668 14.907173156738281 20.035432815551758 14.688419342041016 19.421327590942383 14.731752395629883 C18.10601234436035 14.824564933776855 16.870494842529297 15.324917793273926 15.59726333618164 15.6415433883667 L15.59726333618164 15.6415433883667"></path>
<path fill="none" stroke="black" stroke-width=".3" stroke-opacity="1.0"  filling="0" d="M18.695999145507812 17.18378448486328 L18.090553283691406 16.566455841064453 L20.451862335205078 14.333879470825195 L18.04800033569336 12.215784072875977 L18.620830535888672 11.568000793457031 L21.719999313354492 14.300832748413086 L18.695999145507812 17.18378448486328"></path>
<path fill="none" stroke="black" stroke-width=".3" stroke-opacity="1.0"  filling="0" d="M7.39077615737915 20.20800018310547 L7.39077615737915 20.20800018310547 C6.1899309158325195 19.94843864440918 4.988906383514404 19.68970489501953 3.7876806259155273 19.43191146850586 L2.2799997329711914 19.43191146850586 C2.076352834701538 19.22826385498047 2.0763533115386963 18.77155876159668 2.2799997329711914 18.56791114807129 L3.7876806259155273 18.56791114807129 C4.826589107513428 18.69380760192871 6.39712381362915 19.422760009765625 7.39077615737915 19.3439998626709 C8.714961051940918 19.23904037475586 9.779867172241211 17.949857711791992 11.13599967956543 18.04800033569336 C11.783548355102539 18.094863891601562 12.401871681213379 18.337194442749023 13.034424781799316 18.483455657958984 C13.505236625671387 18.592317581176758 16.710784912109375 18.47532844543457 16.71139144897461 19.281574249267578 C16.712356567382812 20.562896728515625 12.921797752380371 19.32380485534668 12.663984298706055 19.264080047607422 C10.527535438537598 18.769153594970703 9.404752731323242 19.80225372314453 7.39077615737915 20.20800018310547 L7.39077615737915 20.20800018310547"></path>
<path fill="none" stroke="black" stroke-width=".3" stroke-opacity="1.0"  filling="0" d="M14.375999450683594 21.93600082397461 L13.793448448181152 21.29707145690918 L15.94653606414795 19.26386260986328 L13.944000244140625 17.399999618530273 L14.540159225463867 16.77359962463379 L17.21553611755371 19.27725601196289 L14.375999450683594 21.93600082397461"></path></svg>