<svg xmlns="http://www.w3.org/2000/svg" viewBox="0.0 0.0 24.0 24.0" height="200px" width="200px"><path fill="none" stroke="black" stroke-width=".3" stroke-opacity="1.0"  filling="0" d="M16.762800216674805 3.785700798034668 L18.168149948120117 8.314949989318848 L16.809600830078125 7.914900302886963 L16.730850219726562 11.042400360107422 L15.470849990844727 6.5954999923706055 L16.717350006103516 6.880799770355225 L16.762800216674805 3.785700798034668"></path>
<path fill="none" stroke="black" stroke-width=".3" stroke-opacity="1.0"  filling="0" d="M13.54485034942627 7.262849807739258 L13.54485034942627 7.262849807739258 C13.721400260925293 7.627950191497803 14.07450008392334 7.952603816986084 14.07450008392334 8.358150482177734 C14.07450008392334 9.04935073852539 13.013850212097168 9.04935073852539 13.013850212097168 8.358150482177734 C13.013850212097168 7.9524078369140625 13.367850303649902 7.627950191497803 13.54485034942627 7.262849807739258 L13.54485034942627 7.262849807739258"></path>
<path fill="none" stroke="black" stroke-width=".3" stroke-opacity="1.0"  filling="0" d="M13.102049827575684 10.07040023803711 L13.102049827575684 10.07040023803711 C10.25943660736084 8.893305778503418 11.842602729797363 6.874167442321777 13.102049827575684 4.829249858856201 L13.102049827575684 4.829249858856201 C14.361069679260254 6.8740057945251465 15.944131851196289 8.893309593200684 13.102049827575684 10.07040023803711 L13.102049827575684 10.07040023803711"></path>
<path fill="none" stroke="black" stroke-width=".3" stroke-opacity="1.0"  filling="0" d="M14.070449829101562 13.657350540161133 L6.8826003074646 13.657350540161133 C6.719250202178955 13.494300842285156 6.392549991607666 13.39900016784668 6.392549991607666 13.168200492858887 C6.392549991607666 12.937400817871094 6.719250202178955 12.842100143432617 6.8826003074646 12.67905044555664 L14.069999694824219 12.67905044555664 C14.233349800109863 12.842100143432617 14.559943199157715 12.937400817871094 14.560049057006836 13.168200492858887 C14.560154914855957 13.398894309997559 14.233649253845215 13.494300842285156 14.070449829101562 13.657350540161133 L14.070449829101562 13.657350540161133"></path>
<path fill="none" stroke="black" stroke-width=".3" stroke-opacity="1.0"  filling="0" d="M17.409900665283203 13.657350540161133 L16.30470085144043 13.657350540161133 C16.14134979248047 13.494300842285156 15.814650535583496 13.39900016784668 15.814650535583496 13.168200492858887 C15.814650535583496 12.937400817871094 16.14134979248047 12.842100143432617 16.30470085144043 12.67905044555664 L17.40945053100586 12.67905044555664 C17.572799682617188 12.842100143432617 17.89939308166504 12.937400817871094 17.899499893188477 13.168200492858887 C17.899606704711914 13.398894309997559 17.573101043701172 13.494300842285156 17.409900665283203 13.657350540161133 L17.409900665283203 13.657350540161133"></path>
<path fill="none" stroke="black" stroke-width=".3" stroke-opacity="1.0"  filling="0" d="M14.070449829101562 16.084199905395508 L6.8826003074646 16.084199905395508 C6.719250202178955 15.921150207519531 6.392549991607666 15.825849533081055 6.392549991607666 15.595049858093262 C6.392549991607666 15.364250183105469 6.719250202178955 15.268949508666992 6.8826003074646 15.105899810791016 L14.069999694824219 15.105899810791016 C14.233349800109863 15.268949508666992 14.559943199157715 15.364250183105469 14.560049057006836 15.595049858093262 C14.560154914855957 15.825743675231934 14.233649253845215 15.921150207519531 14.070449829101562 16.084199905395508 L14.070449829101562 16.084199905395508"></path>
<path fill="none" stroke="black" stroke-width=".3" stroke-opacity="1.0"  filling="0" d="M17.409900665283203 16.084199905395508 L16.30470085144043 16.084199905395508 C16.14134979248047 15.921150207519531 15.814650535583496 15.825849533081055 15.814650535583496 15.595049858093262 C15.814650535583496 15.364250183105469 16.14134979248047 15.268949508666992 16.30470085144043 15.105899810791016 L17.40945053100586 15.105899810791016 C17.572799682617188 15.268949508666992 17.89939308166504 15.364250183105469 17.899499893188477 15.595049858093262 C17.899606704711914 15.825743675231934 17.573101043701172 15.921150207519531 17.409900665283203 16.084199905395508 L17.409900665283203 16.084199905395508"></path>
<path fill="none" stroke="black" stroke-width=".3" stroke-opacity="1.0"  filling="0" d="M14.070449829101562 18.511051177978516 L6.8826003074646 18.511051177978516 C6.719250202178955 18.34800148010254 6.392549991607666 18.252700805664062 6.392549991607666 18.021900177001953 C6.392549991607666 17.791099548339844 6.719250202178955 17.695798873901367 6.8826003074646 17.53274917602539 L14.069999694824219 17.53274917602539 C14.233349800109863 17.695798873901367 14.559943199157715 17.791099548339844 14.560049057006836 18.021900177001953 C14.560154914855957 18.252593994140625 14.233649253845215 18.34800148010254 14.070449829101562 18.511051177978516 L14.070449829101562 18.511051177978516"></path>
<path fill="none" stroke="black" stroke-width=".3" stroke-opacity="1.0"  filling="0" d="M17.409900665283203 18.511051177978516 L16.30470085144043 18.511051177978516 C16.14134979248047 18.34800148010254 15.814650535583496 18.252700805664062 15.814650535583496 18.021900177001953 C15.814650535583496 17.791099548339844 16.14134979248047 17.695798873901367 16.30470085144043 17.53274917602539 L17.40945053100586 17.53274917602539 C17.572799682617188 17.695798873901367 17.89939308166504 17.791099548339844 17.899499893188477 18.021900177001953 C17.899606704711914 18.252593994140625 17.573101043701172 18.34800148010254 17.409900665283203 18.511051177978516 L17.409900665283203 18.511051177978516"></path>
<path fill="none" stroke="black" stroke-width=".3" stroke-opacity="1.0"  filling="0" d="M4.91295051574707 21.149398803710938 L4.91295051574707 14.977799415588379 L4.91295051574707 8.80620002746582 L4.91295051574707 2.6345996856689453 L12.078524589538574 2.6345996856689453 L19.244098663330078 2.6345996856689453 L19.244098663330078 8.80620002746582 L19.244098663330078 14.977799415588379 L19.244098663330078 21.149398803710938 L12.078524589538574 21.149398803710938 L4.91295051574707 21.149398803710938"></path>
<path fill="none" stroke="black" stroke-width=".3" stroke-opacity="1.0"  filling="0" d="M20.144100189208984 22.049400329589844 L14.767050743103027 22.049400329589844 L9.390000343322754 22.049400329589844 L4.0129499435424805 22.049400329589844 L4.0129499435424805 15.277800559997559 L4.0129499435424805 8.506199836730957 L4.0129499435424805 1.7346000671386719 L9.390000343322754 1.7346000671386719 L14.767050743103027 1.7346000671386719 L20.144100189208984 1.7346000671386719 L20.144100189208984 8.506199836730957 L20.144100189208984 15.277800559997559 L20.144100189208984 22.049400329589844"></path></svg>