<svg xmlns="http://www.w3.org/2000/svg" viewBox="0.0 0.0 24.0 24.0" height="200px" width="200px"><path fill="none" stroke="black" stroke-width=".3" stroke-opacity="1.0"  filling="0" d="M3.5535364151000977 7.836167812347412 L3.5535364151000977 7.836167812347412"></path>
<path fill="none" stroke="black" stroke-width=".3" stroke-opacity="1.0"  filling="0" d="M9.759431838989258 8.007024765014648 L10.381511688232422 7.565520286560059 L12.141263961791992 12.109512329101562 L9.858359336853027 8.89089584350586 L9.47387981414795 8.138784408569336 L9.759431838989258 8.007024765014648"></path>
<path fill="none" stroke="black" stroke-width=".3" stroke-opacity="1.0"  filling="0" d="M9.160896301269531 8.74876880645752 L9.320303916931152 8.55415153503418 L9.988391876220703 9.590736389160156 L9.160896301269531 8.74876880645752"></path>
<path fill="none" stroke="black" stroke-width=".3" stroke-opacity="1.0"  filling="0" d="M7.556016445159912 9.015527725219727 L8.020631790161133 9.42679214477539 L8.15930461883545 9.210792541503906 L9.010992050170898 10.149312019348145 L7.230072021484375 9.237144470214844 L7.556016445159912 9.015527725219727"></path>
<path fill="none" stroke="black" stroke-width=".3" stroke-opacity="1.0"  filling="0" d="M9.125039100646973 9.588359832763672 L8.8438081741333 9.042960166931152 L10.102224349975586 10.167888641357422 L11.527392387390137 11.907768249511719 L9.125039100646973 9.588359832763672"></path>
<path fill="none" stroke="black" stroke-width=".3" stroke-opacity="1.0"  filling="0" d="M6.832416534423828 9.935904502868652 L7.016880035400391 9.624648094177246 L8.27983283996582 10.18603229522705 L10.816320419311523 11.89523983001709 L6.900887966156006 10.353431701660156 L6.832416534423828 9.935904502868652"></path>
<path fill="none" stroke="black" stroke-width=".3" stroke-opacity="1.0"  filling="0" d="M20.850814819335938 20.911945343017578 L19.298206329345703 20.249473571777344 L17.282926559448242 18.815017700195312 C17.260822296142578 18.813793182373047 17.238719940185547 18.81256866455078 17.216615676879883 18.811344146728516 L17.073623657226562 18.77548599243164 C17.031719207763672 18.729623794555664 16.98981475830078 18.683759689331055 16.94791030883789 18.637897491455078 L16.404888153076172 18.211078643798828 C16.368600845336914 18.209638595581055 16.332311630249023 18.208200454711914 16.296024322509766 18.20676040649414 L16.153030395507812 18.153623580932617 C16.116670608520508 18.09307289123535 16.080312728881836 18.032520294189453 16.04395294189453 17.971969604492188 L15.133944511413574 17.472145080566406 C15.09211254119873 17.465232849121094 15.05027961730957 17.45832061767578 15.008447647094727 17.45140838623047 L14.874095916748047 17.37148666381836 C14.846447944641113 17.324975967407227 14.81879997253418 17.27846336364746 14.791152000427246 17.231952667236328 L13.955231666564941 16.602096557617188 C13.893095970153809 16.59360122680664 13.83095932006836 16.58510398864746 13.768823623657227 16.576608657836914 L13.634903907775879 16.46018409729004 C13.616616249084473 16.411584854125977 13.59832763671875 16.36298370361328 13.580039978027344 16.31438446044922 L12.710639953613281 15.539376258850098 C12.673128128051758 15.543047904968262 12.635616302490234 15.546719551086426 12.598104476928711 15.55039119720459 L12.296567916870117 15.475007057189941 C12.254303932189941 15.458303451538086 12.212039947509766 15.44159984588623 12.16977596282959 15.424896240234375 L12.16113567352295 15.416040420532227 C12.146592140197754 15.361176490783691 12.132047653198242 15.306312561035156 12.117504119873047 15.251448631286621 L11.338824272155762 14.093904495239258 L11.853336334228516 12.866159439086914 C11.692214012145996 12.778220176696777 11.532401084899902 12.687898635864258 11.372304916381836 12.598104476928711 L6.811031818389893 10.611120223999023 L6.947112083435059 11.01806354522705 L5.767752170562744 12.10756778717041 L5.509848117828369 11.757647514343262 L4.796832084655762 12.151200294494629 L4.930536270141602 11.427384376525879 L4.072368621826172 12.142775535583496 L3.5537519454956055 11.856575965881348 L3.5982484817504883 11.401032447814941 L3.1154890060424805 11.097119331359863 L3.5986804962158203 10.38323974609375 L3.3930482864379883 10.016472816467285 L3.8483762741088867 9.775199890136719 L3.6509523391723633 9.248592376708984 L3.178560256958008 9.319439888000488 L3.4803123474121094 8.822423934936523 L3.0178565979003906 8.35478401184082 L3.526752471923828 7.8413519859313965 L3.204911231994629 7.487544059753418 L3.3820323944091797 7.1840643882751465 L3.8449201583862305 7.061376094818115 L4.24927282333374 6.370608329772949 L4.7434797286987305 6.592656135559082 L4.811736583709717 5.736216068267822 L5.644416332244873 6.191112041473389 L5.925648212432861 6.028680324554443 L5.660832405090332 4.887768268585205 L6.7207441329956055 4.147536754608154 L7.001760482788086 4.555992126464844 L7.5637922286987305 4.3585686683654785 L7.546512126922607 3.8066883087158203 L7.931856155395508 3.812088966369629 L7.913064002990723 3.1191606521606445 L8.377896308898926 3.2068567276000977 L8.644871711730957 2.404200553894043 L9.1183443069458 2.631864547729492 L9.830495834350586 2.4141359329223633 L9.874992370605469 2.9256248474121094 L10.24176025390625 2.718048095703125 L10.319519996643066 3.357407569885254 L11.475336074829102 2.9502487182617188 L11.153280258178711 3.6291370391845703 L11.751815795898438 3.9598331451416016 L11.218728065490723 4.162224292755127 L11.59111213684082 4.54951286315918 L11.180063247680664 4.764000415802002 L11.66260814666748 4.97762393951416 L11.357399940490723 5.38370418548584 L11.769960403442383 5.83557653427124 L10.572888374328613 6.836088180541992 L10.885440826416016 7.04193639755249 L10.636176109313965 7.226400375366211 L10.849800109863281 8.078736305236816 L12.252503395080566 11.589383125305176 C12.36518383026123 11.771903038024902 12.477864265441895 11.954423904418945 12.590544700622559 12.136943817138672 L13.837295532226562 11.575560569763184 L14.677103996276855 11.933256149291992 L15.088150978088379 12.933550834655762 L16.875335693359375 14.810159683227539 L20.850814819335938 20.911945343017578"></path></svg>