<svg xmlns="http://www.w3.org/2000/svg" viewBox="0.0 0.0 24.0 24.0" height="200px" width="200px"><path fill="none" stroke="black" stroke-width=".3" stroke-opacity="1.0"  filling="0" d="M10.586864471435547 207.19717407226562 L10.586864471435547 207.19717407226562 C10.776931762695312 207.38723754882812 10.857260704040527 207.7830810546875 10.693774223327637 207.99644470214844 L10.612319946289062 208.00917053222656 C10.342889785766602 208.0363006591797 10.395383834838867 207.388671875 10.586867332458496 207.1971893310547 L10.586867332458496 207.1971893310547"></path>
<path fill="none" stroke="black" stroke-width=".3" stroke-opacity="1.0"  filling="0" d="M10.703959465026855 208.10336303710938 L10.703959465026855 208.10336303710938"></path>
<path fill="none" stroke="black" stroke-width=".3" stroke-opacity="1.0"  filling="0" d="M10.72940731048584 208.34519958496094 L10.729412078857422 208.34519958496094"></path>
<path fill="none" stroke="black" stroke-width=".3" stroke-opacity="1.0"  filling="0" d="M10.757416725158691 208.5869903564453 L10.75741195678711 208.58700561523438"></path>
<path fill="none" stroke="black" stroke-width=".3" stroke-opacity="1.0"  filling="0" d="M10.782867431640625 208.8313751220703 L10.782867431640625 208.8313751220703"></path>
<path fill="none" stroke="black" stroke-width=".3" stroke-opacity="1.0"  filling="0" d="M16.736684799194336 208.89500427246094 L16.736684799194336 208.89500427246094 C18.313556671142578 208.89500427246094 15.337794303894043 210.46018981933594 16.736684799194336 208.89500427246094 L16.736684799194336 208.89500427246094"></path>
<path fill="none" stroke="black" stroke-width=".3" stroke-opacity="1.0"  filling="0" d="M10.808320999145508 209.07318115234375 L10.808320999145508 209.07318115234375"></path>
<path fill="none" stroke="black" stroke-width=".3" stroke-opacity="1.0"  filling="0" d="M10.83377742767334 209.3175811767578 L10.83377742767334 209.3175506591797"></path>
<path fill="none" stroke="black" stroke-width=".3" stroke-opacity="1.0"  filling="0" d="M10.85922622680664 209.55934143066406 L10.859230041503906 209.5593719482422"></path>
<path fill="none" stroke="black" stroke-width=".3" stroke-opacity="1.0"  filling="0" d="M16.56868553161621 209.72482299804688 L16.56868553161621 209.72482299804688"></path>
<path fill="none" stroke="black" stroke-width=".3" stroke-opacity="1.0"  filling="0" d="M10.88723087310791 209.80372619628906 L10.88723087310791 209.80372619628906"></path>
<path fill="none" stroke="black" stroke-width=".3" stroke-opacity="1.0"  filling="0" d="M16.477048873901367 209.95138549804688 L16.477048873901367 209.95138549804688"></path>
<path fill="none" stroke="black" stroke-width=".3" stroke-opacity="1.0"  filling="0" d="M10.91268539428711 210.04556274414062 L10.91268539428711 210.04554748535156"></path>
<path fill="none" stroke="black" stroke-width=".3" stroke-opacity="1.0"  filling="0" d="M16.38286590576172 210.1779022216797 L16.38286590576172 210.1779022216797"></path>
<path fill="none" stroke="black" stroke-width=".3" stroke-opacity="1.0"  filling="0" d="M10.938138961791992 210.2899169921875 L10.938138961791992 210.2899169921875"></path>
<path fill="none" stroke="black" stroke-width=".3" stroke-opacity="1.0"  filling="0" d="M16.291231155395508 210.40444946289062 L16.291231155395508 210.40444946289062"></path>
<path fill="none" stroke="black" stroke-width=".3" stroke-opacity="1.0"  filling="0" d="M10.963592529296875 210.53173828125 L10.963594436645508 210.53173828125"></path>
<path fill="none" stroke="black" stroke-width=".3" stroke-opacity="1.0"  filling="0" d="M16.199594497680664 210.63099670410156 L16.199594497680664 210.63099670410156"></path>
<path fill="none" stroke="black" stroke-width=".3" stroke-opacity="1.0"  filling="0" d="M10.991596221923828 210.77610778808594 L10.991595268249512 210.77609252929688"></path>
<path fill="none" stroke="black" stroke-width=".3" stroke-opacity="1.0"  filling="0" d="M16.107955932617188 210.8575439453125 L16.107955932617188 210.8575439453125"></path>
<path fill="none" stroke="black" stroke-width=".3" stroke-opacity="1.0"  filling="0" d="M11.017048835754395 211.01792907714844 L11.017048835754395 211.01791381835938"></path>
<path fill="none" stroke="black" stroke-width=".3" stroke-opacity="1.0"  filling="0" d="M16.016319274902344 211.08409118652344 L16.016319274902344 211.08409118652344"></path>
<path fill="none" stroke="black" stroke-width=".3" stroke-opacity="1.0"  filling="0" d="M11.042503356933594 211.2597198486328 L11.042503356933594 211.25973510742188"></path>
<path fill="none" stroke="black" stroke-width=".3" stroke-opacity="1.0"  filling="0" d="M15.92468547821045 211.31063842773438 L15.92468547821045 211.31063842773438"></path>
<path fill="none" stroke="black" stroke-width=".3" stroke-opacity="1.0"  filling="0" d="M11.067956924438477 211.50408935546875 L11.067956924438477 211.50408935546875"></path>
<path fill="none" stroke="black" stroke-width=".3" stroke-opacity="1.0"  filling="0" d="M15.833048820495605 211.5371856689453 L15.833048820495605 211.5371856689453"></path>
<path fill="none" stroke="black" stroke-width=".3" stroke-opacity="1.0"  filling="0" d="M6.9468674659729 211.7433624267578 L6.9468674659729 211.7433624267578 C7.905988693237305 212.70248413085938 5.987753391265869 212.7024688720703 6.9468674659729 211.7433624267578 L6.9468674659729 211.7433624267578"></path>
<path fill="none" stroke="black" stroke-width=".3" stroke-opacity="1.0"  filling="0" d="M11.093411445617676 211.7459259033203 L11.093413352966309 211.74591064453125"></path>
<path fill="none" stroke="black" stroke-width=".3" stroke-opacity="1.0"  filling="0" d="M15.741411209106445 211.76373291015625 L15.741411209106445 211.76373291015625"></path>
<path fill="none" stroke="black" stroke-width=".3" stroke-opacity="1.0"  filling="0" d="M11.121416091918945 211.9903106689453 L11.121413230895996 211.9902801513672"></path>
<path fill="none" stroke="black" stroke-width=".3" stroke-opacity="1.0"  filling="0" d="M15.652322769165039 211.9902801513672 L15.652322769165039 211.9902801513672"></path>
<path fill="none" stroke="black" stroke-width=".3" stroke-opacity="1.0"  filling="0" d="M15.560684204101562 212.21682739257812 L15.560684204101562 212.21682739257812"></path>
<path fill="none" stroke="black" stroke-width=".3" stroke-opacity="1.0"  filling="0" d="M11.146866798400879 212.23208618164062 L11.146866798400879 212.2321014404297"></path>
<path fill="none" stroke="black" stroke-width=".3" stroke-opacity="1.0"  filling="0" d="M7.369413375854492 212.35935974121094 L7.369413375854492 212.35935974121094"></path>
<path fill="none" stroke="black" stroke-width=".3" stroke-opacity="1.0"  filling="0" d="M15.469047546386719 212.44337463378906 L15.469047546386719 212.44337463378906"></path>
<path fill="none" stroke="black" stroke-width=".3" stroke-opacity="1.0"  filling="0" d="M11.172322273254395 212.47647094726562 L11.172322273254395 212.47647094726562"></path>
<path fill="none" stroke="black" stroke-width=".3" stroke-opacity="1.0"  filling="0" d="M7.567958831787109 212.50192260742188 L7.567958831787109 212.50192260742188"></path>
<path fill="none" stroke="black" stroke-width=".3" stroke-opacity="1.0"  filling="0" d="M7.76650333404541 212.6444549560547 L7.76650333404541 212.6444549560547"></path>
<path fill="none" stroke="black" stroke-width=".3" stroke-opacity="1.0"  filling="0" d="M15.377412796020508 212.67247009277344 L15.377412796020508 212.67247009277344"></path>
<path fill="none" stroke="black" stroke-width=".3" stroke-opacity="1.0"  filling="0" d="M11.197775840759277 212.71827697753906 L11.197775840759277 212.71829223632812"></path>
<path fill="none" stroke="black" stroke-width=".3" stroke-opacity="1.0"  filling="0" d="M7.962503910064697 212.78955078125 L7.962503910064697 212.78955078125"></path>
<path fill="none" stroke="black" stroke-width=".3" stroke-opacity="1.0"  filling="0" d="M15.288321495056152 212.89901733398438 L15.288321495056152 212.89901733398438"></path>
<path fill="none" stroke="black" stroke-width=".3" stroke-opacity="1.0"  filling="0" d="M8.161048889160156 212.93211364746094 L8.161048889160156 212.93211364746094"></path>
<path fill="none" stroke="black" stroke-width=".3" stroke-opacity="1.0"  filling="0" d="M11.223228454589844 212.962646484375 L11.223230361938477 212.962646484375"></path>
<path fill="none" stroke="black" stroke-width=".3" stroke-opacity="1.0"  filling="0" d="M8.359594345092773 213.07464599609375 L8.359594345092773 213.07464599609375"></path>
<path fill="none" stroke="black" stroke-width=".3" stroke-opacity="1.0"  filling="0" d="M15.199230194091797 213.1255645751953 L15.199230194091797 213.1255645751953"></path>
<path fill="none" stroke="black" stroke-width=".3" stroke-opacity="1.0"  filling="0" d="M11.25123405456543 213.20445251464844 L11.25123119354248 213.20445251464844"></path>
<path fill="none" stroke="black" stroke-width=".3" stroke-opacity="1.0"  filling="0" d="M8.558138847351074 213.2197265625 L8.558138847351074 213.2197265625"></path>
<path fill="none" stroke="black" stroke-width=".3" stroke-opacity="1.0"  filling="0" d="M15.107593536376953 213.3520965576172 L15.107593536376953 213.3520965576172"></path>
<path fill="none" stroke="black" stroke-width=".3" stroke-opacity="1.0"  filling="0" d="M8.75413990020752 213.36227416992188 L8.75413990020752 213.36227416992188"></path>
<path fill="none" stroke="black" stroke-width=".3" stroke-opacity="1.0"  filling="0" d="M11.276683807373047 213.4488067626953 L11.276683807373047 213.44882202148438"></path>
<path fill="none" stroke="black" stroke-width=".3" stroke-opacity="1.0"  filling="0" d="M8.95268440246582 213.5048065185547 L8.95268440246582 213.5048065185547"></path>
<path fill="none" stroke="black" stroke-width=".3" stroke-opacity="1.0"  filling="0" d="M15.018502235412598 213.5811767578125 L15.018502235412598 213.5811767578125"></path>
<path fill="none" stroke="black" stroke-width=".3" stroke-opacity="1.0"  filling="0" d="M9.151229858398438 213.64991760253906 L9.151229858398438 213.64991760253906"></path>
<path fill="none" stroke="black" stroke-width=".3" stroke-opacity="1.0"  filling="0" d="M11.302141189575195 213.6906280517578 L11.302141189575195 213.6906280517578"></path>
<path fill="none" stroke="black" stroke-width=".3" stroke-opacity="1.0"  filling="0" d="M9.349777221679688 213.79244995117188 L9.349777221679688 213.79244995117188"></path>
<path fill="none" stroke="black" stroke-width=".3" stroke-opacity="1.0"  filling="0" d="M14.929412841796875 213.8077392578125 L14.929412841796875 213.8077392578125"></path>
<path fill="none" stroke="black" stroke-width=".3" stroke-opacity="1.0"  filling="0" d="M5.053043842315674 213.90191650390625 L5.053043842315674 213.90191650390625 C5.1888017654418945 214.03343200683594 5.324559211730957 214.16494750976562 5.460317134857178 214.2964630126953 L5.455230236053467 214.3804473876953 C4.832738876342773 214.90052795410156 4.454410552978516 214.50054931640625 5.053048610687256 213.90191650390625 L5.053048610687256 213.90191650390625"></path>
<path fill="none" stroke="black" stroke-width=".3" stroke-opacity="1.0"  filling="0" d="M11.327593803405762 213.93246459960938 L11.327593803405762 213.93246459960938"></path>
<path fill="none" stroke="black" stroke-width=".3" stroke-opacity="1.0"  filling="0" d="M9.545775413513184 213.9350128173828 L9.545775413513184 213.9350128173828"></path>
<path fill="none" stroke="black" stroke-width=".3" stroke-opacity="1.0"  filling="0" d="M14.840322494506836 214.03428649902344 L14.840322494506836 214.03428649902344"></path>
<path fill="none" stroke="black" stroke-width=".3" stroke-opacity="1.0"  filling="0" d="M9.744321823120117 214.08009338378906 L9.744321823120117 214.08009338378906"></path>
<path fill="none" stroke="black" stroke-width=".3" stroke-opacity="1.0"  filling="0" d="M11.353046417236328 214.17681884765625 L11.353048324584961 214.17681884765625"></path>
<path fill="none" stroke="black" stroke-width=".3" stroke-opacity="1.0"  filling="0" d="M9.942867279052734 214.22264099121094 L9.942867279052734 214.22264099121094"></path>
<path fill="none" stroke="black" stroke-width=".3" stroke-opacity="1.0"  filling="0" d="M14.751230239868164 214.2633819580078 L14.751230239868164 214.2633819580078"></path>
<path fill="none" stroke="black" stroke-width=".3" stroke-opacity="1.0"  filling="0" d="M5.587597370147705 214.3168182373047 L5.587594985961914 214.3168182373047"></path>
<path fill="none" stroke="black" stroke-width=".3" stroke-opacity="1.0"  filling="0" d="M5.8294172286987305 214.3524627685547 L5.829413414001465 214.3524627685547"></path>
<path fill="none" stroke="black" stroke-width=".3" stroke-opacity="1.0"  filling="0" d="M10.141411781311035 214.3651885986328 L10.141411781311035 214.3651885986328"></path>
<path fill="none" stroke="black" stroke-width=".3" stroke-opacity="1.0"  filling="0" d="M6.071231842041016 214.38809204101562 L6.071229934692383 214.38809204101562"></path>
<path fill="none" stroke="black" stroke-width=".3" stroke-opacity="1.0"  filling="0" d="M11.381052017211914 214.41864013671875 L11.381049156188965 214.41864013671875"></path>
<path fill="none" stroke="black" stroke-width=".3" stroke-opacity="1.0"  filling="0" d="M6.313050270080566 214.42373657226562 L6.313048362731934 214.42373657226562"></path>
<path fill="none" stroke="black" stroke-width=".3" stroke-opacity="1.0"  filling="0" d="M6.55487060546875 214.45936584472656 L6.554866313934326 214.45936584472656"></path>
<path fill="none" stroke="black" stroke-width=".3" stroke-opacity="1.0"  filling="0" d="M14.662138938903809 214.4899139404297 L14.662138938903809 214.4899139404297"></path>
<path fill="none" stroke="black" stroke-width=".3" stroke-opacity="1.0"  filling="0" d="M6.796689510345459 214.49502563476562 L6.796685218811035 214.49502563476562"></path>
<path fill="none" stroke="black" stroke-width=".3" stroke-opacity="1.0"  filling="0" d="M10.337413787841797 214.51028442382812 L10.337413787841797 214.51028442382812"></path>
<path fill="none" stroke="black" stroke-width=".3" stroke-opacity="1.0"  filling="0" d="M7.038501262664795 214.533203125 L7.038503646850586 214.533203125"></path>
<path fill="none" stroke="black" stroke-width=".3" stroke-opacity="1.0"  filling="0" d="M19.95669937133789 214.55101013183594 L19.95669937133789 214.55101013183594 C20.523590087890625 215.11790466308594 20.21380043029785 215.54327392578125 19.57742691040039 215.10337829589844 L19.554508209228516 215.02447509765625 C19.538612365722656 214.81800842285156 19.81026268005371 214.6974334716797 19.95668601989746 214.55101013183594 L19.95668601989746 214.55101013183594"></path>
<path fill="none" stroke="black" stroke-width=".3" stroke-opacity="1.0"  filling="0" d="M7.280317783355713 214.56883239746094 L7.280322074890137 214.56883239746094"></path>
<path fill="none" stroke="black" stroke-width=".3" stroke-opacity="1.0"  filling="0" d="M7.522138595581055 214.60447692871094 L7.5221405029296875 214.60447692871094"></path>
<path fill="none" stroke="black" stroke-width=".3" stroke-opacity="1.0"  filling="0" d="M7.763956546783447 214.64010620117188 L7.763958930969238 214.64010620117188"></path>
<path fill="none" stroke="black" stroke-width=".3" stroke-opacity="1.0"  filling="0" d="M10.535957336425781 214.65283203125 L10.535957336425781 214.65283203125"></path>
<path fill="none" stroke="black" stroke-width=".3" stroke-opacity="1.0"  filling="0" d="M11.406511306762695 214.6630096435547 L11.424331665039062 214.82081604003906 C11.538735389709473 214.96617126464844 11.743457794189453 215.09963989257812 11.729779243469238 215.2841033935547 L11.706870079040527 215.3629913330078 C11.627080917358398 215.4263153076172 10.815585136413574 216.15579223632812 10.922874450683594 215.19247436523438 L10.93559741973877 215.1110076904297 C10.941537857055664 215.09234619140625 10.947477340698242 215.0736846923828 10.953417778015137 215.05502319335938 L10.991599082946777 214.98373413085938 C11.106942176818848 214.92344665527344 11.210169792175293 214.80810546875 11.340319633483887 214.80810546875 L11.406501770019531 214.6630096435547"></path>
<path fill="none" stroke="black" stroke-width=".3" stroke-opacity="1.0"  filling="0" d="M8.00576400756836 214.67572021484375 L8.005768775939941 214.67572021484375"></path>
<path fill="none" stroke="black" stroke-width=".3" stroke-opacity="1.0"  filling="0" d="M8.247583389282227 214.71136474609375 L8.247587203979492 214.71136474609375"></path>
<path fill="none" stroke="black" stroke-width=".3" stroke-opacity="1.0"  filling="0" d="M14.57558822631836 214.71900939941406 L14.57558822631836 214.71900939941406"></path>
<path fill="none" stroke="black" stroke-width=".3" stroke-opacity="1.0"  filling="0" d="M8.489400863647461 214.74700927734375 L8.48940658569336 214.74700927734375"></path>
<path fill="none" stroke="black" stroke-width=".3" stroke-opacity="1.0"  filling="0" d="M8.731222152709961 214.7826385498047 L8.731224060058594 214.7826385498047"></path>
<path fill="none" stroke="black" stroke-width=".3" stroke-opacity="1.0"  filling="0" d="M10.7344970703125 214.7953643798828 L10.7344970703125 214.7953643798828"></path>
<path fill="none" stroke="black" stroke-width=".3" stroke-opacity="1.0"  filling="0" d="M8.973042488098145 214.8182830810547 L8.973042488098145 214.8182830810547"></path>
<path fill="none" stroke="black" stroke-width=".3" stroke-opacity="1.0"  filling="0" d="M9.214862823486328 214.85391235351562 L9.214860916137695 214.85391235351562"></path>
<path fill="none" stroke="black" stroke-width=".3" stroke-opacity="1.0"  filling="0" d="M9.456681251525879 214.88955688476562 L9.456679344177246 214.88955688476562"></path>
<path fill="none" stroke="black" stroke-width=".3" stroke-opacity="1.0"  filling="0" d="M9.698495864868164 214.927734375 L9.698495864868164 214.927734375"></path>
<path fill="none" stroke="black" stroke-width=".3" stroke-opacity="1.0"  filling="0" d="M14.486495971679688 214.94810485839844 L14.486495971679688 214.94810485839844"></path>
<path fill="none" stroke="black" stroke-width=".3" stroke-opacity="1.0"  filling="0" d="M9.940312385559082 214.96337890625 L9.940314292907715 214.96337890625"></path>
<path fill="none" stroke="black" stroke-width=".3" stroke-opacity="1.0"  filling="0" d="M10.182130813598633 214.9990234375 L10.182132720947266 214.9990234375"></path>
<path fill="none" stroke="black" stroke-width=".3" stroke-opacity="1.0"  filling="0" d="M10.423952102661133 215.03463745117188 L10.423952102661133 215.03463745117188"></path>
<path fill="none" stroke="black" stroke-width=".3" stroke-opacity="1.0"  filling="0" d="M19.462854385375977 215.04229736328125 L19.462860107421875 215.04229736328125"></path>
<path fill="none" stroke="black" stroke-width=".3" stroke-opacity="1.0"  filling="0" d="M10.665770530700684 215.07029724121094 L10.665770530700684 215.07029724121094"></path>
<path fill="none" stroke="black" stroke-width=".3" stroke-opacity="1.0"  filling="0" d="M19.223587036132812 215.09066772460938 L19.223587036132812 215.09066772460938"></path>
<path fill="none" stroke="black" stroke-width=".3" stroke-opacity="1.0"  filling="0" d="M18.984310150146484 215.14157104492188 L18.98431396484375 215.14157104492188"></path>
<path fill="none" stroke="black" stroke-width=".3" stroke-opacity="1.0"  filling="0" d="M14.399951934814453 215.1772003173828 L14.399951934814453 215.1772003173828"></path>
<path fill="none" stroke="black" stroke-width=".3" stroke-opacity="1.0"  filling="0" d="M18.745037078857422 215.18992614746094 L18.74504280090332 215.18992614746094"></path>
<path fill="none" stroke="black" stroke-width=".3" stroke-opacity="1.0"  filling="0" d="M18.505767822265625 215.23829650878906 L18.505767822265625 215.23829650878906"></path>
<path fill="none" stroke="black" stroke-width=".3" stroke-opacity="1.0"  filling="0" d="M18.266496658325195 215.28665161132812 L18.266496658325195 215.28665161132812"></path>
<path fill="none" stroke="black" stroke-width=".3" stroke-opacity="1.0"  filling="0" d="M18.027223587036133 215.3350067138672 L18.027223587036133 215.3350067138672"></path>
<path fill="none" stroke="black" stroke-width=".3" stroke-opacity="1.0"  filling="0" d="M11.946133613586426 215.36810302734375 L11.946133613586426 215.36810302734375"></path>
<path fill="none" stroke="black" stroke-width=".3" stroke-opacity="1.0"  filling="0" d="M17.787954330444336 215.38592529296875 L17.787948608398438 215.38592529296875"></path>
<path fill="none" stroke="black" stroke-width=".3" stroke-opacity="1.0"  filling="0" d="M14.315946578979492 215.4037628173828 L14.315951347351074 215.4037628173828"></path>
<path fill="none" stroke="black" stroke-width=".3" stroke-opacity="1.0"  filling="0" d="M17.548681259155273 215.43429565429688 L17.54867935180664 215.43429565429688"></path>
<path fill="none" stroke="black" stroke-width=".3" stroke-opacity="1.0"  filling="0" d="M12.175223350524902 215.4546661376953 L12.175223350524902 215.4546661376953"></path>
<path fill="none" stroke="black" stroke-width=".3" stroke-opacity="1.0"  filling="0" d="M17.309410095214844 215.482666015625 L17.309406280517578 215.482666015625"></path>
<path fill="none" stroke="black" stroke-width=".3" stroke-opacity="1.0"  filling="0" d="M17.07013511657715 215.53102111816406 L17.070133209228516 215.53102111816406"></path>
<path fill="none" stroke="black" stroke-width=".3" stroke-opacity="1.0"  filling="0" d="M12.404314041137695 215.5412139892578 L12.404314041137695 215.5412139892578"></path>
<path fill="none" stroke="black" stroke-width=".3" stroke-opacity="1.0"  filling="0" d="M16.83086395263672 215.5793914794922 L16.830860137939453 215.5793914794922"></path>
<path fill="none" stroke="black" stroke-width=".3" stroke-opacity="1.0"  filling="0" d="M11.386137962341309 215.6175537109375 L11.386134147644043 215.6175537109375"></path>
<path fill="none" stroke="black" stroke-width=".3" stroke-opacity="1.0"  filling="0" d="M12.633406639099121 215.62774658203125 L12.633406639099121 215.62774658203125"></path>
<path fill="none" stroke="black" stroke-width=".3" stroke-opacity="1.0"  filling="0" d="M16.59158706665039 215.6302947998047 L16.59158706665039 215.6302947998047"></path>
<path fill="none" stroke="black" stroke-width=".3" stroke-opacity="1.0"  filling="0" d="M14.231951713562012 215.63539123535156 L14.231951713562012 215.63539123535156"></path>
<path fill="none" stroke="black" stroke-width=".3" stroke-opacity="1.0"  filling="0" d="M16.35232162475586 215.6786651611328 L16.352325439453125 215.6786651611328"></path>
<path fill="none" stroke="black" stroke-width=".3" stroke-opacity="1.0"  filling="0" d="M12.859959602355957 215.71429443359375 L12.859959602355957 215.71429443359375"></path>
<path fill="none" stroke="black" stroke-width=".3" stroke-opacity="1.0"  filling="0" d="M16.11305046081543 215.72703552246094 L16.11305046081543 215.72703552246094"></path>
<path fill="none" stroke="black" stroke-width=".3" stroke-opacity="1.0"  filling="0" d="M15.873779296875 215.775390625 L15.873777389526367 215.775390625"></path>
<path fill="none" stroke="black" stroke-width=".3" stroke-opacity="1.0"  filling="0" d="M13.08905029296875 215.8033905029297 L13.08905029296875 215.8033905029297"></path>
<path fill="none" stroke="black" stroke-width=".3" stroke-opacity="1.0"  filling="0" d="M14.221771240234375 215.80592346191406 L14.221771240234375 215.80592346191406 C14.787590980529785 216.66046142578125 13.617112159729004 216.75570678710938 13.661778450012207 216.1088409423828 L13.684686660766602 216.02993774414062 C13.845752716064453 215.92184448242188 14.031330108642578 215.76907348632812 14.221776962280273 215.80592346191406 L14.221776962280273 215.80592346191406"></path>
<path fill="none" stroke="black" stroke-width=".3" stroke-opacity="1.0"  filling="0" d="M15.634504318237305 215.82374572753906 L15.634505271911621 215.82374572753906"></path>
<path fill="none" stroke="black" stroke-width=".3" stroke-opacity="1.0"  filling="0" d="M11.35305118560791 215.86192321777344 L11.35305118560791 215.86192321777344"></path>
<path fill="none" stroke="black" stroke-width=".3" stroke-opacity="1.0"  filling="0" d="M15.392684936523438 215.87466430664062 L15.39268684387207 215.87466430664062"></path>
<path fill="none" stroke="black" stroke-width=".3" stroke-opacity="1.0"  filling="0" d="M13.318140983581543 215.88992309570312 L13.318140983581543 215.88992309570312"></path>
<path fill="none" stroke="black" stroke-width=".3" stroke-opacity="1.0"  filling="0" d="M15.153409957885742 215.9230194091797 L15.153413772583008 215.9230194091797"></path>
<path fill="none" stroke="black" stroke-width=".3" stroke-opacity="1.0"  filling="0" d="M14.91413688659668 215.97137451171875 L14.914141654968262 215.97137451171875"></path>
<path fill="none" stroke="black" stroke-width=".3" stroke-opacity="1.0"  filling="0" d="M14.67486572265625 216.01974487304688 L14.674867630004883 216.01974487304688"></path>
<path fill="none" stroke="black" stroke-width=".3" stroke-opacity="1.0"  filling="0" d="M11.322498321533203 216.10374450683594 L11.322504997253418 216.10374450683594"></path>
<path fill="none" stroke="black" stroke-width=".3" stroke-opacity="1.0"  filling="0" d="M11.291964530944824 216.34561157226562 L11.291960716247559 216.34555053710938"></path>
<path fill="none" stroke="black" stroke-width=".3" stroke-opacity="1.0"  filling="0" d="M11.258871078491211 216.58738708496094 L11.258868217468262 216.58738708496094"></path>
<path fill="none" stroke="black" stroke-width=".3" stroke-opacity="1.0"  filling="0" d="M14.153050422668457 216.61534118652344 L14.153050422668457 216.61537170410156"></path>
<path fill="none" stroke="black" stroke-width=".3" stroke-opacity="1.0"  filling="0" d="M11.22831916809082 216.82916259765625 L11.228324890136719 216.82920837402344"></path>
<path fill="none" stroke="black" stroke-width=".3" stroke-opacity="1.0"  filling="0" d="M14.181048393249512 216.8572540283203 L14.181050300598145 216.85719299316406"></path>
<path fill="none" stroke="black" stroke-width=".3" stroke-opacity="1.0"  filling="0" d="M11.197784423828125 217.0735626220703 L11.19777774810791 217.0735626220703"></path>
<path fill="none" stroke="black" stroke-width=".3" stroke-opacity="1.0"  filling="0" d="M14.206506729125977 217.10150146484375 L14.206504821777344 217.10154724121094"></path>
<path fill="none" stroke="black" stroke-width=".3" stroke-opacity="1.0"  filling="0" d="M11.164684295654297 217.3153839111328 L11.16468620300293 217.3153839111328"></path>
<path fill="none" stroke="black" stroke-width=".3" stroke-opacity="1.0"  filling="0" d="M14.234505653381348 217.3434295654297 L14.234503746032715 217.34339904785156"></path>
<path fill="none" stroke="black" stroke-width=".3" stroke-opacity="1.0"  filling="0" d="M11.134137153625488 217.55722045898438 L11.13414192199707 217.55722045898438"></path>
<path fill="none" stroke="black" stroke-width=".3" stroke-opacity="1.0"  filling="0" d="M14.259960174560547 217.58770751953125 L14.259960174560547 217.58775329589844"></path>
<path fill="none" stroke="black" stroke-width=".3" stroke-opacity="1.0"  filling="0" d="M11.103601455688477 217.7990264892578 L11.103595733642578 217.7990264892578"></path>
<path fill="none" stroke="black" stroke-width=".3" stroke-opacity="1.0"  filling="0" d="M14.287958145141602 217.82955932617188 L14.287959098815918 217.82955932617188"></path>
<path fill="none" stroke="black" stroke-width=".3" stroke-opacity="1.0"  filling="0" d="M11.070507049560547 218.04083251953125 L11.131590843200684 218.206298828125 C11.245746612548828 218.35279846191406 11.44731616973877 218.4923553466797 11.429401397705078 218.67721557617188 L11.403949737548828 218.75868225097656 C11.243505477905273 218.8645477294922 11.058229446411133 219.010986328125 10.869403839111328 218.9750213623047 L10.765043258666992 218.90621948242188 C10.761651992797852 218.90283203125 10.758260726928711 218.89944458007812 10.75486946105957 218.89605712890625 L10.693778991699219 218.82986450195312 C10.626895904541016 218.6125030517578 10.469014167785645 218.1274871826172 11.05268669128418 218.19357299804688 L11.070507049560547 218.04083251953125"></path>
<path fill="none" stroke="black" stroke-width=".3" stroke-opacity="1.0"  filling="0" d="M14.315957069396973 218.07138061523438 L14.315959930419922 218.07138061523438"></path>
<path fill="none" stroke="black" stroke-width=".3" stroke-opacity="1.0"  filling="0" d="M14.371953964233398 218.25210571289062 L14.371953964233398 218.25210571289062 C14.507711410522461 218.3827667236328 14.643468856811523 218.51344299316406 14.779226303100586 218.64410400390625 L14.774141311645508 218.7255859375 C14.681656837463379 218.83248901367188 14.58917236328125 218.93939208984375 14.496687889099121 219.04629516601562 L14.417778015136719 219.06666564941406 C13.393927574157715 219.06666564941406 14.265398025512695 218.35867309570312 14.371959686279297 218.25210571289062 L14.371959686279297 218.25210571289062"></path>
<path fill="none" stroke="black" stroke-width=".3" stroke-opacity="1.0"  filling="0" d="M13.918869972229004 218.61610412597656 L13.918868064880371 218.61610412597656"></path>
<path fill="none" stroke="black" stroke-width=".3" stroke-opacity="1.0"  filling="0" d="M13.674505233764648 218.62127685546875 L13.674505233764648 218.62127685546875"></path>
<path fill="none" stroke="black" stroke-width=".3" stroke-opacity="1.0"  filling="0" d="M13.43014144897461 218.62884521484375 L13.43014144897461 218.62884521484375"></path>
<path fill="none" stroke="black" stroke-width=".3" stroke-opacity="1.0"  filling="0" d="M13.185779571533203 218.634033203125 L13.185779571533203 218.634033203125"></path>
<path fill="none" stroke="black" stroke-width=".3" stroke-opacity="1.0"  filling="0" d="M12.941413879394531 218.64158630371094 L12.941413879394531 218.64158630371094"></path>
<path fill="none" stroke="black" stroke-width=".3" stroke-opacity="1.0"  filling="0" d="M12.697052001953125 218.64678955078125 L12.697052001953125 218.64678955078125"></path>
<path fill="none" stroke="black" stroke-width=".3" stroke-opacity="1.0"  filling="0" d="M12.452688217163086 218.65196228027344 L12.452688217163086 218.65196228027344"></path>
<path fill="none" stroke="black" stroke-width=".3" stroke-opacity="1.0"  filling="0" d="M12.20832347869873 218.65951538085938 L12.20832347869873 218.65951538085938"></path>
<path fill="none" stroke="black" stroke-width=".3" stroke-opacity="1.0"  filling="0" d="M14.919230461120605 218.65951538085938 L14.919233322143555 218.65951538085938"></path>
<path fill="none" stroke="black" stroke-width=".3" stroke-opacity="1.0"  filling="0" d="M11.963957786560059 218.6647186279297 L11.963960647583008 218.6647186279297"></path>
<path fill="none" stroke="black" stroke-width=".3" stroke-opacity="1.0"  filling="0" d="M18.806150436401367 218.6647491455078 L18.806150436401367 218.6647491455078 C19.404319763183594 219.262939453125 19.02720832824707 219.66258239746094 18.403966903686523 219.14585876464844 L18.39887046813965 219.06434631347656 C18.53462791442871 218.93113708496094 18.67038345336914 218.7979278564453 18.806140899658203 218.6647186279297 L18.806140899658203 218.6647186279297"></path>
<path fill="none" stroke="black" stroke-width=".3" stroke-opacity="1.0"  filling="0" d="M11.719596862792969 218.66989135742188 L11.719596862792969 218.66989135742188"></path>
<path fill="none" stroke="black" stroke-width=".3" stroke-opacity="1.0"  filling="0" d="M15.161051750183105 218.6878204345703 L15.161051750183105 218.6878204345703"></path>
<path fill="none" stroke="black" stroke-width=".3" stroke-opacity="1.0"  filling="0" d="M15.402872085571289 218.7158203125 L15.402868270874023 218.71583557128906"></path>
<path fill="none" stroke="black" stroke-width=".3" stroke-opacity="1.0"  filling="0" d="M15.647231101989746 218.74383544921875 L15.647232055664062 218.74383544921875"></path>
<path fill="none" stroke="black" stroke-width=".3" stroke-opacity="1.0"  filling="0" d="M15.889050483703613 218.7744140625 L15.889050483703613 218.77438354492188"></path>
<path fill="none" stroke="black" stroke-width=".3" stroke-opacity="1.0"  filling="0" d="M16.130855560302734 218.80218505859375 L16.130868911743164 218.8023681640625"></path>
<path fill="none" stroke="black" stroke-width=".3" stroke-opacity="1.0"  filling="0" d="M16.37523078918457 218.83041381835938 L16.375232696533203 218.83038330078125"></path>
<path fill="none" stroke="black" stroke-width=".3" stroke-opacity="1.0"  filling="0" d="M16.617034912109375 218.85842895507812 L16.617050170898438 218.85836791992188"></path>
<path fill="none" stroke="black" stroke-width=".3" stroke-opacity="1.0"  filling="0" d="M10.551233291625977 218.88381958007812 L10.551233291625977 218.88381958007812"></path>
<path fill="none" stroke="black" stroke-width=".3" stroke-opacity="1.0"  filling="0" d="M16.861433029174805 218.88644409179688 L16.861413955688477 218.88641357421875"></path>
<path fill="none" stroke="black" stroke-width=".3" stroke-opacity="1.0"  filling="0" d="M17.10323143005371 218.91424560546875 L17.10323143005371 218.9144287109375"></path>
<path fill="none" stroke="black" stroke-width=".3" stroke-opacity="1.0"  filling="0" d="M17.345033645629883 218.94247436523438 L17.345050811767578 218.94241333007812"></path>
<path fill="none" stroke="black" stroke-width=".3" stroke-opacity="1.0"  filling="0" d="M10.322142601013184 218.96786499023438 L10.322142601013184 218.96786499023438"></path>
<path fill="none" stroke="black" stroke-width=".3" stroke-opacity="1.0"  filling="0" d="M17.58941078186035 218.97048950195312 L17.589412689208984 218.970458984375"></path>
<path fill="none" stroke="black" stroke-width=".3" stroke-opacity="1.0"  filling="0" d="M10.6759614944458 218.9832000732422 L10.6759614944458 218.9832000732422"></path>
<path fill="none" stroke="black" stroke-width=".3" stroke-opacity="1.0"  filling="0" d="M17.83123207092285 218.9985809326172 L17.83123207092285 218.99853515625"></path>
<path fill="none" stroke="black" stroke-width=".3" stroke-opacity="1.0"  filling="0" d="M18.073034286499023 219.02638244628906 L18.073049545288086 219.02655029296875"></path>
<path fill="none" stroke="black" stroke-width=".3" stroke-opacity="1.0"  filling="0" d="M10.093050003051758 219.052001953125 L10.093050003051758 219.052001953125"></path>
<path fill="none" stroke="black" stroke-width=".3" stroke-opacity="1.0"  filling="0" d="M10.73196029663086 219.052001953125 L10.73196029663086 219.052001953125"></path>
<path fill="none" stroke="black" stroke-width=".3" stroke-opacity="1.0"  filling="0" d="M9.863961219787598 219.13600158691406 L9.863961219787598 219.13600158691406"></path>
<path fill="none" stroke="black" stroke-width=".3" stroke-opacity="1.0"  filling="0" d="M10.492687225341797 219.1435546875 L10.492687225341797 219.1435546875"></path>
<path fill="none" stroke="black" stroke-width=".3" stroke-opacity="1.0"  filling="0" d="M9.634869575500488 219.21990966796875 L9.634869575500488 219.21990966796875"></path>
<path fill="none" stroke="black" stroke-width=".3" stroke-opacity="1.0"  filling="0" d="M14.578141212463379 219.24282836914062 L14.578141212463379 219.24282836914062"></path>
<path fill="none" stroke="black" stroke-width=".3" stroke-opacity="1.0"  filling="0" d="M10.614870071411133 219.26573181152344 L10.614870071411133 219.26573181152344"></path>
<path fill="none" stroke="black" stroke-width=".3" stroke-opacity="1.0"  filling="0" d="M9.40323257446289 219.30392456054688 L9.40323257446289 219.30392456054688"></path>
<path fill="none" stroke="black" stroke-width=".3" stroke-opacity="1.0"  filling="0" d="M10.306867599487305 219.30392456054688 L10.306867599487305 219.30392456054688"></path>
<path fill="none" stroke="black" stroke-width=".3" stroke-opacity="1.0"  filling="0" d="M9.174140930175781 219.38790893554688 L9.174140930175781 219.38790893554688"></path>
<path fill="none" stroke="black" stroke-width=".3" stroke-opacity="1.0"  filling="0" d="M10.123597145080566 219.4642791748047 L10.123597145080566 219.4642791748047"></path>
<path fill="none" stroke="black" stroke-width=".3" stroke-opacity="1.0"  filling="0" d="M14.672323226928711 219.46945190429688 L14.672323226928711 219.46945190429688"></path>
<path fill="none" stroke="black" stroke-width=".3" stroke-opacity="1.0"  filling="0" d="M8.945051193237305 219.47463989257812 L8.945051193237305 219.47463989257812"></path>
<path fill="none" stroke="black" stroke-width=".3" stroke-opacity="1.0"  filling="0" d="M10.495233535766602 219.47982788085938 L10.495233535766602 219.47982788085938"></path>
<path fill="none" stroke="black" stroke-width=".3" stroke-opacity="1.0"  filling="0" d="M8.715959548950195 219.5587615966797 L8.715959548950195 219.5587615966797"></path>
<path fill="none" stroke="black" stroke-width=".3" stroke-opacity="1.0"  filling="0" d="M9.93777847290039 219.62493896484375 L9.93777847290039 219.62493896484375"></path>
<path fill="none" stroke="black" stroke-width=".3" stroke-opacity="1.0"  filling="0" d="M8.486869812011719 219.64263916015625 L8.486869812011719 219.64263916015625"></path>
<path fill="none" stroke="black" stroke-width=".3" stroke-opacity="1.0"  filling="0" d="M10.378141403198242 219.6935272216797 L10.378141403198242 219.6935272216797"></path>
<path fill="none" stroke="black" stroke-width=".3" stroke-opacity="1.0"  filling="0" d="M14.763958930969238 219.6935272216797 L14.763958930969238 219.6935272216797"></path>
<path fill="none" stroke="black" stroke-width=".3" stroke-opacity="1.0"  filling="0" d="M8.25777816772461 219.72662353515625 L8.25777816772461 219.72662353515625"></path>
<path fill="none" stroke="black" stroke-width=".3" stroke-opacity="1.0"  filling="0" d="M9.754504203796387 219.78518676757812 L9.754504203796387 219.78518676757812"></path>
<path fill="none" stroke="black" stroke-width=".3" stroke-opacity="1.0"  filling="0" d="M8.0286865234375 219.81063842773438 L8.0286865234375 219.81063842773438"></path>
<path fill="none" stroke="black" stroke-width=".3" stroke-opacity="1.0"  filling="0" d="M7.799596786499023 219.89463806152344 L7.799596786499023 219.89463806152344"></path>
<path fill="none" stroke="black" stroke-width=".3" stroke-opacity="1.0"  filling="0" d="M10.258505821228027 219.90736389160156 L10.258505821228027 219.90736389160156"></path>
<path fill="none" stroke="black" stroke-width=".3" stroke-opacity="1.0"  filling="0" d="M14.858141899108887 219.9201202392578 L14.858141899108887 219.9201202392578"></path>
<path fill="none" stroke="black" stroke-width=".3" stroke-opacity="1.0"  filling="0" d="M9.568686485290527 219.94558715820312 L9.568686485290527 219.94558715820312"></path>
<path fill="none" stroke="black" stroke-width=".3" stroke-opacity="1.0"  filling="0" d="M7.567960739135742 219.9786834716797 L7.567960739135742 219.9786834716797"></path>
<path fill="none" stroke="black" stroke-width=".3" stroke-opacity="1.0"  filling="0" d="M7.338869094848633 220.0626678466797 L7.338869094848633 220.0626678466797"></path>
<path fill="none" stroke="black" stroke-width=".3" stroke-opacity="1.0"  filling="0" d="M9.385415077209473 220.10594177246094 L9.385415077209473 220.10594177246094"></path>
<path fill="none" stroke="black" stroke-width=".3" stroke-opacity="1.0"  filling="0" d="M10.13886833190918 220.12127685546875 L10.13886833190918 220.12127685546875"></path>
<path fill="none" stroke="black" stroke-width=".3" stroke-opacity="1.0"  filling="0" d="M7.109779357910156 220.14671325683594 L7.109779357910156 220.14671325683594"></path>
<path fill="none" stroke="black" stroke-width=".3" stroke-opacity="1.0"  filling="0" d="M14.949777603149414 220.14671325683594 L14.949777603149414 220.14671325683594"></path>
<path fill="none" stroke="black" stroke-width=".3" stroke-opacity="1.0"  filling="0" d="M6.880687713623047 220.23072814941406 L6.880687713623047 220.23072814941406"></path>
<path fill="none" stroke="black" stroke-width=".3" stroke-opacity="1.0"  filling="0" d="M9.202140808105469 220.26637268066406 L9.202140808105469 220.26637268066406"></path>
<path fill="none" stroke="black" stroke-width=".3" stroke-opacity="1.0"  filling="0" d="M6.6515960693359375 220.31472778320312 L6.6515960693359375 220.31472778320312"></path>
<path fill="none" stroke="black" stroke-width=".3" stroke-opacity="1.0"  filling="0" d="M10.021778106689453 220.3350372314453 L10.021778106689453 220.3350372314453"></path>
<path fill="none" stroke="black" stroke-width=".3" stroke-opacity="1.0"  filling="0" d="M15.043959617614746 220.37322998046875 L15.043959617614746 220.37322998046875"></path>
<path fill="none" stroke="black" stroke-width=".3" stroke-opacity="1.0"  filling="0" d="M6.422506332397461 220.398681640625 L6.422506332397461 220.398681640625"></path>
<path fill="none" stroke="black" stroke-width=".3" stroke-opacity="1.0"  filling="0" d="M9.01632308959961 220.42666625976562 L9.01632308959961 220.42666625976562"></path>
<path fill="none" stroke="black" stroke-width=".3" stroke-opacity="1.0"  filling="0" d="M6.193414688110352 220.482666015625 L6.193414688110352 220.482666015625"></path>
<path fill="none" stroke="black" stroke-width=".3" stroke-opacity="1.0"  filling="0" d="M9.902140617370605 220.54885864257812 L9.902140617370605 220.54885864257812"></path>
<path fill="none" stroke="black" stroke-width=".3" stroke-opacity="1.0"  filling="0" d="M5.961778163909912 220.56678771972656 L5.961778163909912 220.56678771972656"></path>
<path fill="none" stroke="black" stroke-width=".3" stroke-opacity="1.0"  filling="0" d="M8.833051681518555 220.58709716796875 L8.833051681518555 220.58709716796875"></path>
<path fill="none" stroke="black" stroke-width=".3" stroke-opacity="1.0"  filling="0" d="M15.138141632080078 220.5972442626953 L15.138141632080078 220.5972442626953"></path>
<path fill="none" stroke="black" stroke-width=".3" stroke-opacity="1.0"  filling="0" d="M5.7326860427856445 220.6507110595703 L5.7326860427856445 220.6507110595703"></path>
<path fill="none" stroke="black" stroke-width=".3" stroke-opacity="1.0"  filling="0" d="M5.503597259521484 220.7346954345703 L5.503597259521484 220.7346954345703"></path>
<path fill="none" stroke="black" stroke-width=".3" stroke-opacity="1.0"  filling="0" d="M8.647233009338379 220.7474365234375 L8.647233009338379 220.7474365234375"></path>
<path fill="none" stroke="black" stroke-width=".3" stroke-opacity="1.0"  filling="0" d="M9.78250503540039 220.7627716064453 L9.78250503540039 220.7627716064453"></path>
<path fill="none" stroke="black" stroke-width=".3" stroke-opacity="1.0"  filling="0" d="M5.274504661560059 220.8187713623047 L5.274504661560059 220.8187713623047"></path>
<path fill="none" stroke="black" stroke-width=".3" stroke-opacity="1.0"  filling="0" d="M15.229778289794922 220.82394409179688 L15.229778289794922 220.82394409179688"></path>
<path fill="none" stroke="black" stroke-width=".3" stroke-opacity="1.0"  filling="0" d="M5.045415878295898 220.90284729003906 L5.045415878295898 220.90284729003906"></path>
<path fill="none" stroke="black" stroke-width=".3" stroke-opacity="1.0"  filling="0" d="M8.463960647583008 220.9080352783203 L8.463960647583008 220.9080352783203"></path>
<path fill="none" stroke="black" stroke-width=".3" stroke-opacity="1.0"  filling="0" d="M9.66541576385498 220.97677612304688 L9.66541576385498 220.97677612304688"></path>
<path fill="none" stroke="black" stroke-width=".3" stroke-opacity="1.0"  filling="0" d="M4.816323280334473 220.98692321777344 L4.816323280334473 220.98692321777344"></path>
<path fill="none" stroke="black" stroke-width=".3" stroke-opacity="1.0"  filling="0" d="M15.32396125793457 221.05056762695312 L15.32396125793457 221.05056762695312"></path>
<path fill="none" stroke="black" stroke-width=".3" stroke-opacity="1.0"  filling="0" d="M8.278142929077148 221.06826782226562 L8.278142929077148 221.06826782226562"></path>
<path fill="none" stroke="black" stroke-width=".3" stroke-opacity="1.0"  filling="0" d="M4.5872321128845215 221.07086181640625 L4.5872321128845215 221.07086181640625"></path>
<path fill="none" stroke="black" stroke-width=".3" stroke-opacity="1.0"  filling="0" d="M7.707962989807129 221.07347106933594 L7.707962989807129 221.07347106933594 C7.8439106941223145 221.07347106933594 7.958377361297607 221.179931640625 8.079597473144531 221.24147033691406 L8.120325088500977 221.31529235839844 C8.266167640686035 221.992431640625 6.857704162597656 222.0182342529297 7.707961082458496 221.0734405517578 L7.707961082458496 221.0734405517578"></path>
<path fill="none" stroke="black" stroke-width=".3" stroke-opacity="1.0"  filling="0" d="M4.355595588684082 221.1549072265625 L4.355595588684082 221.1549072265625"></path>
<path fill="none" stroke="black" stroke-width=".3" stroke-opacity="1.0"  filling="0" d="M9.545778274536133 221.1905517578125 L9.545778274536133 221.1905517578125"></path>
<path fill="none" stroke="black" stroke-width=".3" stroke-opacity="1.0"  filling="0" d="M3.1923351287841797 221.1957244873047 L3.1923351287841797 221.1957244873047 C3.3170623779296875 221.27886962890625 3.4417896270751953 221.36203002929688 3.566516876220703 221.44517517089844 L3.5919713973999023 221.52154541015625 C3.645026683807373 222.08839416503906 2.2648539543151855 222.12319946289062 3.192323684692383 221.1957244873047 L3.192323684692383 221.1957244873047"></path>
<path fill="none" stroke="black" stroke-width=".3" stroke-opacity="1.0"  filling="0" d="M4.1265058517456055 221.23902893066406 L4.1265058517456055 221.23902893066406"></path>
<path fill="none" stroke="black" stroke-width=".3" stroke-opacity="1.0"  filling="0" d="M15.418142318725586 221.27719116210938 L15.418142318725586 221.27719116210938"></path>
<path fill="none" stroke="black" stroke-width=".3" stroke-opacity="1.0"  filling="0" d="M3.8974151611328125 221.322998046875 L3.8974151611328125 221.322998046875"></path>
<path fill="none" stroke="black" stroke-width=".3" stroke-opacity="1.0"  filling="0" d="M9.428688049316406 221.4019317626953 L9.428688049316406 221.4019317626953"></path>
<path fill="none" stroke="black" stroke-width=".3" stroke-opacity="1.0"  filling="0" d="M15.509777069091797 221.50119018554688 L15.509777069091797 221.50119018554688"></path>
<path fill="none" stroke="black" stroke-width=".3" stroke-opacity="1.0"  filling="0" d="M9.309049606323242 221.61573791503906 L9.309049606323242 221.61573791503906"></path>
<path fill="none" stroke="black" stroke-width=".3" stroke-opacity="1.0"  filling="0" d="M15.603958129882812 221.7277374267578 L15.603958129882812 221.7277374267578"></path>
<path fill="none" stroke="black" stroke-width=".3" stroke-opacity="1.0"  filling="0" d="M9.189414024353027 221.82955932617188 L9.189414024353027 221.82955932617188"></path>
<path fill="none" stroke="black" stroke-width=".3" stroke-opacity="1.0"  filling="0" d="M15.698142051696777 221.95428466796875 L15.698142051696777 221.95428466796875"></path>
<path fill="none" stroke="black" stroke-width=".3" stroke-opacity="1.0"  filling="0" d="M9.072322845458984 222.04336547851562 L9.072322845458984 222.04336547851562"></path>
<path fill="none" stroke="black" stroke-width=".3" stroke-opacity="1.0"  filling="0" d="M15.789776802062988 222.1782684326172 L15.789776802062988 222.1782684326172"></path>
<path fill="none" stroke="black" stroke-width=".3" stroke-opacity="1.0"  filling="0" d="M8.952686309814453 222.2572021484375 L8.952686309814453 222.2572021484375"></path>
<path fill="none" stroke="black" stroke-width=".3" stroke-opacity="1.0"  filling="0" d="M15.883960723876953 222.40484619140625 L15.883960723876953 222.40484619140625"></path>
<path fill="none" stroke="black" stroke-width=".3" stroke-opacity="1.0"  filling="0" d="M8.833051681518555 222.4710235595703 L8.833051681518555 222.4710235595703"></path>
<path fill="none" stroke="black" stroke-width=".3" stroke-opacity="1.0"  filling="0" d="M15.97559642791748 222.63136291503906 L15.97559642791748 222.63136291503906"></path>
<path fill="none" stroke="black" stroke-width=".3" stroke-opacity="1.0"  filling="0" d="M8.715959548950195 222.68482971191406 L8.715959548950195 222.68482971191406"></path>
<path fill="none" stroke="black" stroke-width=".3" stroke-opacity="1.0"  filling="0" d="M16.069778442382812 222.85791015625 L16.069778442382812 222.85791015625"></path>
<path fill="none" stroke="black" stroke-width=".3" stroke-opacity="1.0"  filling="0" d="M8.596323013305664 222.89865112304688 L8.596323013305664 222.89865112304688"></path>
<path fill="none" stroke="black" stroke-width=".3" stroke-opacity="1.0"  filling="0" d="M16.163959503173828 223.08189392089844 L16.163959503173828 223.08189392089844"></path>
<path fill="none" stroke="black" stroke-width=".3" stroke-opacity="1.0"  filling="0" d="M8.479231834411621 223.1124725341797 L8.479231834411621 223.1124725341797"></path>
<path fill="none" stroke="black" stroke-width=".3" stroke-opacity="1.0"  filling="0" d="M16.255596160888672 223.3084716796875 L16.255596160888672 223.3084716796875"></path>
<path fill="none" stroke="black" stroke-width=".3" stroke-opacity="1.0"  filling="0" d="M8.359596252441406 223.32618713378906 L8.359596252441406 223.32618713378906"></path>
<path fill="none" stroke="black" stroke-width=".3" stroke-opacity="1.0"  filling="0" d="M16.349775314331055 223.53489685058594 L16.349775314331055 223.53489685058594"></path>
<path fill="none" stroke="black" stroke-width=".3" stroke-opacity="1.0"  filling="0" d="M8.239959716796875 223.5400848388672 L8.239959716796875 223.5400848388672"></path>
<path fill="none" stroke="black" stroke-width=".3" stroke-opacity="1.0"  filling="0" d="M8.122869491577148 223.75390625 L8.122869491577148 223.75390625"></path>
<path fill="none" stroke="black" stroke-width=".3" stroke-opacity="1.0"  filling="0" d="M16.443958282470703 223.761474609375 L16.443958282470703 223.761474609375"></path>
<path fill="none" stroke="black" stroke-width=".3" stroke-opacity="1.0"  filling="0" d="M8.003232955932617 223.96510314941406 L8.003232955932617 223.96510314941406"></path>
<path fill="none" stroke="black" stroke-width=".3" stroke-opacity="1.0"  filling="0" d="M16.535594940185547 223.9853973388672 L16.535594940185547 223.9853973388672"></path>
<path fill="none" stroke="black" stroke-width=".3" stroke-opacity="1.0"  filling="0" d="M7.886141300201416 224.17884826660156 L7.886141300201416 224.17884826660156"></path>
<path fill="none" stroke="black" stroke-width=".3" stroke-opacity="1.0"  filling="0" d="M16.629777908325195 224.21194458007812 L16.629777908325195 224.21194458007812"></path>
<path fill="none" stroke="black" stroke-width=".3" stroke-opacity="1.0"  filling="0" d="M7.445777893066406 224.36465454101562 L7.445777893066406 224.36465454101562 C7.544201850891113 224.38926696777344 7.6426262855529785 224.41387939453125 7.7410502433776855 224.43849182128906 L7.809779167175293 224.48431396484375 C8.493719100952148 225.81800842285156 6.004302024841309 225.80026245117188 7.445777893066406 224.36465454101562 L7.445777893066406 224.36465454101562"></path>
<path fill="none" stroke="black" stroke-width=".3" stroke-opacity="1.0"  filling="0" d="M16.72395896911621 224.43849182128906 L16.72395896911621 224.43849182128906"></path>
<path fill="none" stroke="black" stroke-width=".3" stroke-opacity="1.0"  filling="0" d="M16.815595626831055 224.6650390625 L16.815595626831055 224.6650390625"></path>
<path fill="none" stroke="black" stroke-width=".3" stroke-opacity="1.0"  filling="0" d="M16.909778594970703 224.8890380859375 L16.909778594970703 224.8890380859375"></path>
<path fill="none" stroke="black" stroke-width=".3" stroke-opacity="1.0"  filling="0" d="M17.001415252685547 225.11557006835938 L17.001415252685547 225.11557006835938"></path>
<path fill="none" stroke="black" stroke-width=".3" stroke-opacity="1.0"  filling="0" d="M17.095596313476562 225.34213256835938 L17.095596313476562 225.34213256835938"></path>
<path fill="none" stroke="black" stroke-width=".3" stroke-opacity="1.0"  filling="0" d="M17.189777374267578 225.5661163330078 L17.189777374267578 225.5661163330078"></path>
<path fill="none" stroke="black" stroke-width=".3" stroke-opacity="1.0"  filling="0" d="M17.28141212463379 225.79266357421875 L17.28141212463379 225.79266357421875"></path>
<path fill="none" stroke="black" stroke-width=".3" stroke-opacity="1.0"  filling="0" d="M17.375595092773438 226.01922607421875 L17.375595092773438 226.01922607421875"></path>
<path fill="none" stroke="black" stroke-width=".3" stroke-opacity="1.0"  filling="0" d="M17.469778060913086 226.24575805664062 L17.469778060913086 226.24575805664062"></path>
<path fill="none" stroke="black" stroke-width=".3" stroke-opacity="1.0"  filling="0" d="M17.56141471862793 226.46975708007812 L17.56141471862793 226.46975708007812"></path>
<path fill="none" stroke="black" stroke-width=".3" stroke-opacity="1.0"  filling="0" d="M17.655597686767578 226.6962890625 L17.655597686767578 226.6962890625"></path>
<path fill="none" stroke="black" stroke-width=".3" stroke-opacity="1.0"  filling="0" d="M17.74723243713379 226.92286682128906 L17.74723243713379 226.92286682128906"></path>
<path fill="none" stroke="black" stroke-width=".3" stroke-opacity="1.0"  filling="0" d="M18.08578109741211 227.0986785888672 L18.08578109741211 227.0986785888672 C19.56136131286621 228.5742645263672 16.948274612426758 228.59884643554688 17.770145416259766 227.1852264404297 L17.782867431640625 227.1748504638672 C17.88383674621582 227.14939880371094 17.98480796813965 227.1239471435547 18.085777282714844 227.09849548339844 L18.085777282714844 227.09849548339844"></path></svg>