<svg xmlns="http://www.w3.org/2000/svg" viewBox="0.0 0.0 24.0 24.0" height="200px" width="200px"><path fill="none" stroke="black" stroke-width=".3" stroke-opacity="1.0"  filling="0" d="M8.110549926757812 209.23043823242188 L8.110549926757812 209.23043823242188 C8.446102142333984 209.56600952148438 8.551888465881348 210.07440185546875 7.9116740226745605 209.8874053955078 L7.855810165405273 209.84048461914062 C7.772723197937012 209.63638305664062 7.954730987548828 209.38626098632812 8.110549926757812 209.23043823242188 L8.110549926757812 209.23043823242188"></path>
<path fill="none" stroke="black" stroke-width=".3" stroke-opacity="1.0"  filling="0" d="M8.380931854248047 209.85836791992188 L8.380931854248047 209.85836791992188"></path>
<path fill="none" stroke="black" stroke-width=".3" stroke-opacity="1.0"  filling="0" d="M7.73514461517334 209.96786499023438 L7.73514461517334 209.96786499023438"></path>
<path fill="none" stroke="black" stroke-width=".3" stroke-opacity="1.0"  filling="0" d="M8.497129440307617 210.03936767578125 L8.497129440307617 210.03936767578125"></path>
<path fill="none" stroke="black" stroke-width=".3" stroke-opacity="1.0"  filling="0" d="M7.587663650512695 210.12428283691406 L7.587663650512695 210.12428283691406"></path>
<path fill="none" stroke="black" stroke-width=".3" stroke-opacity="1.0"  filling="0" d="M8.613327026367188 210.21810913085938 L8.613327026367188 210.21810913085938"></path>
<path fill="none" stroke="black" stroke-width=".3" stroke-opacity="1.0"  filling="0" d="M7.4379496574401855 210.2784423828125 L7.411135673522949 210.4102783203125 C7.477186679840088 210.5836639404297 7.4068732261657715 210.7991485595703 7.310579299926758 210.95774841308594 L7.243541240692139 210.9845733642578 C6.612186431884766 211.0967559814453 6.717057228088379 210.14251708984375 7.359738349914551 210.3611297607422 L7.437947750091553 210.27845764160156"></path>
<path fill="none" stroke="black" stroke-width=".3" stroke-opacity="1.0"  filling="0" d="M8.729523658752441 210.3991241455078 L8.729523658752441 210.3991241455078"></path>
<path fill="none" stroke="black" stroke-width=".3" stroke-opacity="1.0"  filling="0" d="M11.198715209960938 210.48849487304688 L11.198715209960938 210.48849487304688 C11.418679237365723 210.70846557617188 11.819101333618164 211.30899047851562 11.080282211303711 211.18344116210938 L11.015480041503906 211.1521759033203 C10.901928901672363 210.95272827148438 11.0364351272583 210.65078735351562 11.198715209960938 210.48849487304688 L11.198715209960938 210.48849487304688"></path>
<path fill="none" stroke="black" stroke-width=".3" stroke-opacity="1.0"  filling="0" d="M8.845720291137695 210.57789611816406 L8.845720291137695 210.57789611816406"></path>
<path fill="none" stroke="black" stroke-width=".3" stroke-opacity="1.0"  filling="0" d="M8.964154243469238 210.75888061523438 L8.964154243469238 210.75888061523438"></path>
<path fill="none" stroke="black" stroke-width=".3" stroke-opacity="1.0"  filling="0" d="M6.796628952026367 210.81475830078125 L6.796628952026367 210.81475830078125"></path>
<path fill="none" stroke="black" stroke-width=".3" stroke-opacity="1.0"  filling="0" d="M6.606690883636475 210.91531372070312 L6.606690883636475 210.91531372070312"></path>
<path fill="none" stroke="black" stroke-width=".3" stroke-opacity="1.0"  filling="0" d="M9.080350875854492 210.93765258789062 L9.080350875854492 210.93765258789062"></path>
<path fill="none" stroke="black" stroke-width=".3" stroke-opacity="1.0"  filling="0" d="M6.416753768920898 211.01585388183594 L6.416753768920898 211.01585388183594"></path>
<path fill="none" stroke="black" stroke-width=".3" stroke-opacity="1.0"  filling="0" d="M7.353033542633057 211.060546875 L7.353033542633057 211.060546875"></path>
<path fill="none" stroke="black" stroke-width=".3" stroke-opacity="1.0"  filling="0" d="M6.2290496826171875 211.11865234375 L6.2290496826171875 211.11865234375"></path>
<path fill="none" stroke="black" stroke-width=".3" stroke-opacity="1.0"  filling="0" d="M9.196548461914062 211.11865234375 L9.196548461914062 211.11865234375"></path>
<path fill="none" stroke="black" stroke-width=".3" stroke-opacity="1.0"  filling="0" d="M6.039112091064453 211.21922302246094 L6.039112091064453 211.21922302246094"></path>
<path fill="none" stroke="black" stroke-width=".3" stroke-opacity="1.0"  filling="0" d="M7.433478832244873 211.26165771484375 L7.433478832244873 211.26165771484375"></path>
<path fill="none" stroke="black" stroke-width=".3" stroke-opacity="1.0"  filling="0" d="M9.312745094299316 211.29742431640625 L9.312745094299316 211.29742431640625"></path>
<path fill="none" stroke="black" stroke-width=".3" stroke-opacity="1.0"  filling="0" d="M10.937270164489746 211.30410766601562 L10.937270164489746 211.30410766601562"></path>
<path fill="none" stroke="black" stroke-width=".3" stroke-opacity="1.0"  filling="0" d="M5.849174976348877 211.3197479248047 L5.849174976348877 211.3197479248047"></path>
<path fill="none" stroke="black" stroke-width=".3" stroke-opacity="1.0"  filling="0" d="M5.239136695861816 211.37562561035156 L5.239136695861816 211.37562561035156 C5.470933437347412 211.60740661621094 5.840575218200684 212.19821166992188 5.114001750946045 212.06832885742188 L5.049201011657715 212.0370330810547 C4.9384284019470215 211.83616638183594 5.076939582824707 211.53781127929688 5.239139080047607 211.3756103515625 L5.239139080047607 211.3756103515625"></path>
<path fill="none" stroke="black" stroke-width=".3" stroke-opacity="1.0"  filling="0" d="M5.661470890045166 211.42030334472656 L5.661470890045166 211.42030334472656"></path>
<path fill="none" stroke="black" stroke-width=".3" stroke-opacity="1.0"  filling="0" d="M7.511687755584717 211.4605255126953 L7.511687755584717 211.4605255126953"></path>
<path fill="none" stroke="black" stroke-width=".3" stroke-opacity="1.0"  filling="0" d="M9.42894172668457 211.47840881347656 L9.42894172668457 211.47840881347656"></path>
<path fill="none" stroke="black" stroke-width=".3" stroke-opacity="1.0"  filling="0" d="M10.838949203491211 211.4962921142578 L10.838949203491211 211.4962921142578"></path>
<path fill="none" stroke="black" stroke-width=".3" stroke-opacity="1.0"  filling="0" d="M7.592133045196533 211.659423828125 L7.592133045196533 211.659423828125"></path>
<path fill="none" stroke="black" stroke-width=".3" stroke-opacity="1.0"  filling="0" d="M9.547372817993164 211.659423828125 L9.547372817993164 211.659423828125"></path>
<path fill="none" stroke="black" stroke-width=".3" stroke-opacity="1.0"  filling="0" d="M10.740628242492676 211.68624877929688 L10.740628242492676 211.68624877929688"></path>
<path fill="none" stroke="black" stroke-width=".3" stroke-opacity="1.0"  filling="0" d="M9.663570404052734 211.8381805419922 L9.663570404052734 211.8381805419922"></path>
<path fill="none" stroke="black" stroke-width=".3" stroke-opacity="1.0"  filling="0" d="M7.670341968536377 211.85830688476562 L7.670341968536377 211.85830688476562"></path>
<path fill="none" stroke="black" stroke-width=".3" stroke-opacity="1.0"  filling="0" d="M10.642308235168457 211.87619018554688 L10.642308235168457 211.87619018554688"></path>
<path fill="none" stroke="black" stroke-width=".3" stroke-opacity="1.0"  filling="0" d="M9.779767990112305 212.01919555664062 L9.779767990112305 212.01919555664062"></path>
<path fill="none" stroke="black" stroke-width=".3" stroke-opacity="1.0"  filling="0" d="M7.750787258148193 212.0571746826172 L7.750787258148193 212.0571746826172"></path>
<path fill="none" stroke="black" stroke-width=".3" stroke-opacity="1.0"  filling="0" d="M10.546222686767578 212.06832885742188 L10.546222686767578 212.06832885742188"></path>
<path fill="none" stroke="black" stroke-width=".3" stroke-opacity="1.0"  filling="0" d="M5.006744861602783 212.1934814453125 L5.006744861602783 212.1934814453125"></path>
<path fill="none" stroke="black" stroke-width=".3" stroke-opacity="1.0"  filling="0" d="M9.895964622497559 212.1979522705078 L9.895964622497559 212.1979522705078"></path>
<path fill="none" stroke="black" stroke-width=".3" stroke-opacity="1.0"  filling="0" d="M7.8312296867370605 212.2560577392578 L7.8312296867370605 212.2560577392578"></path>
<path fill="none" stroke="black" stroke-width=".3" stroke-opacity="1.0"  filling="0" d="M10.447901725769043 212.25827026367188 L10.447901725769043 212.25827026367188"></path>
<path fill="none" stroke="black" stroke-width=".3" stroke-opacity="1.0"  filling="0" d="M10.233383178710938 212.37448120117188 L10.233383178710938 212.37448120117188 C11.065851211547852 213.20693969726562 9.666801452636719 213.20750427246094 9.989816665649414 212.47279357910156 L10.04568099975586 212.42811584472656 C10.108248710632324 212.4102325439453 10.170815467834473 212.39236450195312 10.233383178710938 212.37448120117188 L10.233383178710938 212.37448120117188"></path>
<path fill="none" stroke="black" stroke-width=".3" stroke-opacity="1.0"  filling="0" d="M4.953115463256836 212.4012908935547 L4.953115463256836 212.4012908935547"></path>
<path fill="none" stroke="black" stroke-width=".3" stroke-opacity="1.0"  filling="0" d="M7.909440994262695 212.45492553710938 L7.909440994262695 212.45492553710938"></path>
<path fill="none" stroke="black" stroke-width=".3" stroke-opacity="1.0"  filling="0" d="M4.897252082824707 212.60911560058594 L4.897252082824707 212.60911560058594"></path>
<path fill="none" stroke="black" stroke-width=".3" stroke-opacity="1.0"  filling="0" d="M7.989883899688721 212.65602111816406 L7.989883899688721 212.65602111816406"></path>
<path fill="none" stroke="black" stroke-width=".3" stroke-opacity="1.0"  filling="0" d="M4.843621253967285 212.81690979003906 L4.843621253967285 212.81690979003906"></path>
<path fill="none" stroke="black" stroke-width=".3" stroke-opacity="1.0"  filling="0" d="M8.070327758789062 212.8549041748047 L8.070327758789062 212.8549041748047"></path>
<path fill="none" stroke="black" stroke-width=".3" stroke-opacity="1.0"  filling="0" d="M13.56959342956543 212.89065551757812 L13.56959342956543 212.89065551757812 C13.73259162902832 213.0536651611328 13.85802173614502 213.36337280273438 13.739418983459473 213.56103515625 L13.672372817993164 213.59007263183594 C12.900873184204102 213.70758056640625 13.380121231079102 213.0801239013672 13.569584846496582 212.89065551757812 L13.569584846496582 212.89065551757812"></path>
<path fill="none" stroke="black" stroke-width=".3" stroke-opacity="1.0"  filling="0" d="M4.787757396697998 213.02249145507812 L4.787757396697998 213.02249145507812"></path>
<path fill="none" stroke="black" stroke-width=".3" stroke-opacity="1.0"  filling="0" d="M8.148537635803223 213.05380249023438 L8.148537635803223 213.05380249023438"></path>
<path fill="none" stroke="black" stroke-width=".3" stroke-opacity="1.0"  filling="0" d="M4.734128475189209 213.23031616210938 L4.734128475189209 213.23031616210938"></path>
<path fill="none" stroke="black" stroke-width=".3" stroke-opacity="1.0"  filling="0" d="M8.228982925415039 213.25265502929688 L8.228982925415039 213.25265502929688"></path>
<path fill="none" stroke="black" stroke-width=".3" stroke-opacity="1.0"  filling="0" d="M8.398808479309082 213.37109375 L8.398808479309082 213.37109375 C9.24078369140625 214.21307373046875 7.556833744049072 214.21307373046875 8.398808479309082 213.37109375 L8.398808479309082 213.37109375"></path>
<path fill="none" stroke="black" stroke-width=".3" stroke-opacity="1.0"  filling="0" d="M4.678264617919922 213.43812561035156 L4.678264617919922 213.43812561035156"></path>
<path fill="none" stroke="black" stroke-width=".3" stroke-opacity="1.0"  filling="0" d="M1.8515443801879883 213.5141143798828 L1.8515443801879883 213.5141143798828 C2.693535804748535 214.35606384277344 1.0095515251159668 214.35606384277344 1.8515443801879883 213.5141143798828 L1.8515443801879883 213.5141143798828"></path>
<path fill="none" stroke="black" stroke-width=".3" stroke-opacity="1.0"  filling="0" d="M4.624640464782715 213.6459503173828 L4.671566486358643 213.74427795410156 C5.159965515136719 214.48704528808594 4.136030673980713 214.57789611816406 4.1754961013793945 214.00570678710938 L4.182192802429199 213.98336791992188 C4.3123955726623535 213.88172912597656 4.441102504730225 213.7001190185547 4.604525089263916 213.72415161132812 L4.624634265899658 213.6459503173828"></path>
<path fill="none" stroke="black" stroke-width=".3" stroke-opacity="1.0"  filling="0" d="M13.779631614685059 213.6951141357422 L13.779631614685059 213.6951141357422"></path>
<path fill="none" stroke="black" stroke-width=".3" stroke-opacity="1.0"  filling="0" d="M2.2537660598754883 213.84034729003906 L2.2537660598754883 213.84034729003906"></path>
<path fill="none" stroke="black" stroke-width=".3" stroke-opacity="1.0"  filling="0" d="M2.4682912826538086 213.85598754882812 L2.4682817459106445 213.85598754882812"></path>
<path fill="none" stroke="black" stroke-width=".3" stroke-opacity="1.0"  filling="0" d="M2.680567741394043 213.8716278076172 L2.680567741394043 213.87161254882812"></path>
<path fill="none" stroke="black" stroke-width=".3" stroke-opacity="1.0"  filling="0" d="M2.8950767517089844 213.88726806640625 L2.895085334777832 213.88726806640625"></path>
<path fill="none" stroke="black" stroke-width=".3" stroke-opacity="1.0"  filling="0" d="M13.839963912963867 213.9006805419922 L13.839963912963867 213.9006805419922"></path>
<path fill="none" stroke="black" stroke-width=".3" stroke-opacity="1.0"  filling="0" d="M3.1095991134643555 213.9029083251953 L3.1096010208129883 213.9029083251953"></path>
<path fill="none" stroke="black" stroke-width=".3" stroke-opacity="1.0"  filling="0" d="M3.3218870162963867 213.91854858398438 L3.3218870162963867 213.91854858398438"></path>
<path fill="none" stroke="black" stroke-width=".3" stroke-opacity="1.0"  filling="0" d="M3.5364065170288086 213.93643188476562 L3.536404609680176 213.93643188476562"></path>
<path fill="none" stroke="black" stroke-width=".3" stroke-opacity="1.0"  filling="0" d="M3.7509098052978516 213.9520721435547 L3.750920295715332 213.9520721435547"></path>
<path fill="none" stroke="black" stroke-width=".3" stroke-opacity="1.0"  filling="0" d="M3.965447425842285 213.96771240234375 L3.9654388427734375 213.96771240234375"></path>
<path fill="none" stroke="black" stroke-width=".3" stroke-opacity="1.0"  filling="0" d="M8.342945098876953 214.08615112304688 L8.342945098876953 214.08612060546875"></path>
<path fill="none" stroke="black" stroke-width=".3" stroke-opacity="1.0"  filling="0" d="M13.900298118591309 214.1062469482422 L13.900298118591309 214.1062469482422"></path>
<path fill="none" stroke="black" stroke-width=".3" stroke-opacity="1.0"  filling="0" d="M8.336244583129883 214.30064392089844 L8.336241722106934 214.30064392089844"></path>
<path fill="none" stroke="black" stroke-width=".3" stroke-opacity="1.0"  filling="0" d="M13.962865829467773 214.31182861328125 L13.962865829467773 214.31182861328125"></path>
<path fill="none" stroke="black" stroke-width=".3" stroke-opacity="1.0"  filling="0" d="M8.40774917602539 214.4749298095703 L8.40774917602539 214.4749298095703 C8.470932960510254 214.53811645507812 9.291674613952637 215.2360382080078 8.365291595458984 215.18775939941406 L8.293785095214844 215.16989135742188 C8.156390190124512 214.97955322265625 8.241758346557617 214.64093017578125 8.407747268676758 214.47494506835938 L8.407747268676758 214.47494506835938"></path>
<path fill="none" stroke="black" stroke-width=".3" stroke-opacity="1.0"  filling="0" d="M14.023199081420898 214.5174102783203 L14.023199081420898 214.5174102783203"></path>
<path fill="none" stroke="black" stroke-width=".3" stroke-opacity="1.0"  filling="0" d="M14.085765838623047 214.7229766845703 L14.085765838623047 214.7229766845703"></path>
<path fill="none" stroke="black" stroke-width=".3" stroke-opacity="1.0"  filling="0" d="M14.146099090576172 214.92855834960938 L14.146099090576172 214.92855834960938"></path>
<path fill="none" stroke="black" stroke-width=".3" stroke-opacity="1.0"  filling="0" d="M14.206432342529297 215.13414001464844 L14.206432342529297 215.13414001464844"></path>
<path fill="none" stroke="black" stroke-width=".3" stroke-opacity="1.0"  filling="0" d="M14.269001007080078 215.3397216796875 L14.269001007080078 215.3397216796875"></path>
<path fill="none" stroke="black" stroke-width=".3" stroke-opacity="1.0"  filling="0" d="M8.278142929077148 215.36875915527344 L8.278142929077148 215.36875915527344"></path>
<path fill="none" stroke="black" stroke-width=".3" stroke-opacity="1.0"  filling="0" d="M14.329334259033203 215.54530334472656 L14.329334259033203 215.54530334472656"></path>
<path fill="none" stroke="black" stroke-width=".3" stroke-opacity="1.0"  filling="0" d="M8.260255813598633 215.58328247070312 L8.260266304016113 215.58328247070312"></path>
<path fill="none" stroke="black" stroke-width=".3" stroke-opacity="1.0"  filling="0" d="M14.389667510986328 215.7531280517578 L14.389667510986328 215.7531280517578"></path>
<path fill="none" stroke="black" stroke-width=".3" stroke-opacity="1.0"  filling="0" d="M8.240152359008789 215.7955780029297 L8.240154266357422 215.7955780029297"></path>
<path fill="none" stroke="black" stroke-width=".3" stroke-opacity="1.0"  filling="0" d="M14.452237129211426 215.9586944580078 L14.452237129211426 215.9586944580078"></path>
<path fill="none" stroke="black" stroke-width=".3" stroke-opacity="1.0"  filling="0" d="M8.222275733947754 216.0100860595703 L8.222278594970703 216.0100860595703"></path>
<path fill="none" stroke="black" stroke-width=".3" stroke-opacity="1.0"  filling="0" d="M14.512569427490234 216.16427612304688 L14.512569427490234 216.16427612304688"></path>
<path fill="none" stroke="black" stroke-width=".3" stroke-opacity="1.0"  filling="0" d="M8.204401969909668 216.22459411621094 L8.204401969909668 216.22459411621094"></path>
<path fill="none" stroke="black" stroke-width=".3" stroke-opacity="1.0"  filling="0" d="M14.57290267944336 216.36984252929688 L14.57290267944336 216.36984252929688"></path>
<path fill="none" stroke="black" stroke-width=".3" stroke-opacity="1.0"  filling="0" d="M8.186538696289062 216.4368896484375 L8.186525344848633 216.4368896484375"></path>
<path fill="none" stroke="black" stroke-width=".3" stroke-opacity="1.0"  filling="0" d="M14.635469436645508 216.575439453125 L14.635469436645508 216.575439453125"></path>
<path fill="none" stroke="black" stroke-width=".3" stroke-opacity="1.0"  filling="0" d="M8.168662071228027 216.6514129638672 L8.226753234863281 216.79664611816406 C9.251291275024414 218.17486572265625 6.822745323181152 216.77877807617188 8.157483100891113 216.77877807617188 L8.168648719787598 216.6514129638672"></path>
<path fill="none" stroke="black" stroke-width=".3" stroke-opacity="1.0"  filling="0" d="M14.695801734924316 216.781005859375 L14.695801734924316 216.78102111816406"></path>
<path fill="none" stroke="black" stroke-width=".3" stroke-opacity="1.0"  filling="0" d="M14.756135940551758 216.98658752441406 L14.756135940551758 216.98658752441406"></path>
<path fill="none" stroke="black" stroke-width=".3" stroke-opacity="1.0"  filling="0" d="M14.818703651428223 217.19219970703125 L14.818703651428223 217.19216918945312"></path>
<path fill="none" stroke="black" stroke-width=".3" stroke-opacity="1.0"  filling="0" d="M14.879037857055664 217.3977508544922 L14.879037857055664 217.3977508544922"></path>
<path fill="none" stroke="black" stroke-width=".3" stroke-opacity="1.0"  filling="0" d="M8.320599555969238 217.46478271484375 L8.320599555969238 217.46478271484375"></path>
<path fill="none" stroke="black" stroke-width=".3" stroke-opacity="1.0"  filling="0" d="M14.941581726074219 217.6032257080078 L14.954995155334473 217.6456756591797 C15.464273452758789 217.6079559326172 15.40736198425293 218.63504028320312 14.65556526184082 218.14405822753906 L14.633220672607422 218.0747833251953 C14.61865234375 217.91436767578125 14.786310195922852 217.7898712158203 14.883500099182129 217.6614227294922 L14.941603660583496 217.60333251953125"></path>
<path fill="none" stroke="black" stroke-width=".3" stroke-opacity="1.0"  filling="0" d="M8.414450645446777 217.65695190429688 L8.414450645446777 217.65695190429688"></path>
<path fill="none" stroke="black" stroke-width=".3" stroke-opacity="1.0"  filling="0" d="M8.510537147521973 217.84913635253906 L8.510537147521973 217.84913635253906"></path>
<path fill="none" stroke="black" stroke-width=".3" stroke-opacity="1.0"  filling="0" d="M8.606621742248535 218.04132080078125 L8.606621742248535 218.04132080078125"></path>
<path fill="none" stroke="black" stroke-width=".3" stroke-opacity="1.0"  filling="0" d="M15.341590881347656 218.13291931152344 L15.341590881347656 218.13291931152344"></path>
<path fill="none" stroke="black" stroke-width=".3" stroke-opacity="1.0"  filling="0" d="M14.512569427490234 218.1350860595703 L14.512569427490234 218.1350860595703"></path>
<path fill="none" stroke="black" stroke-width=".3" stroke-opacity="1.0"  filling="0" d="M8.70047378540039 218.2333984375 L8.70047378540039 218.2333984375"></path>
<path fill="none" stroke="black" stroke-width=".3" stroke-opacity="1.0"  filling="0" d="M14.322629928588867 218.2333984375 L14.322629928588867 218.2333984375"></path>
<path fill="none" stroke="black" stroke-width=".3" stroke-opacity="1.0"  filling="0" d="M15.52929401397705 218.23793029785156 L15.52929401397705 218.23793029785156"></path>
<path fill="none" stroke="black" stroke-width=".3" stroke-opacity="1.0"  filling="0" d="M14.13045883178711 218.32955932617188 L14.13045883178711 218.32955932617188"></path>
<path fill="none" stroke="black" stroke-width=".3" stroke-opacity="1.0"  filling="0" d="M15.714762687683105 218.34295654296875 L15.714762687683105 218.34295654296875"></path>
<path fill="none" stroke="black" stroke-width=".3" stroke-opacity="1.0"  filling="0" d="M8.796562194824219 218.4256134033203 L8.796562194824219 218.4256134033203"></path>
<path fill="none" stroke="black" stroke-width=".3" stroke-opacity="1.0"  filling="0" d="M13.940521240234375 218.42776489257812 L13.940521240234375 218.42776489257812"></path>
<path fill="none" stroke="black" stroke-width=".3" stroke-opacity="1.0"  filling="0" d="M15.902467727661133 218.4478759765625 L15.902467727661133 218.4478759765625"></path>
<path fill="none" stroke="black" stroke-width=".3" stroke-opacity="1.0"  filling="0" d="M16.39629554748535 218.45907592773438 L16.39629554748535 218.45907592773438 C16.514728546142578 218.56857299804688 16.633161544799805 218.67807006835938 16.75159454345703 218.78756713867188 L16.751598358154297 218.85906982421875 C16.426530838012695 219.1473388671875 15.91589641571045 219.2546844482422 16.090167999267578 218.63339233398438 L16.13262367248535 218.57530212402344 C16.220516204833984 218.53656005859375 16.30841064453125 218.49783325195312 16.396303176879883 218.45909118652344 L16.396303176879883 218.45909118652344"></path>
<path fill="none" stroke="black" stroke-width=".3" stroke-opacity="1.0"  filling="0" d="M13.748348236083984 218.52391052246094 L13.748348236083984 218.52391052246094"></path>
<path fill="none" stroke="black" stroke-width=".3" stroke-opacity="1.0"  filling="0" d="M18.12139129638672 218.59320068359375 L18.12139129638672 218.59320068359375 C18.65770721435547 219.12948608398438 18.300146102905273 219.48696899414062 17.76386260986328 218.95071411132812 L17.77279281616211 218.8791961669922 C17.88899040222168 218.7838592529297 18.005186080932617 218.68853759765625 18.121383666992188 218.59320068359375 L18.121383666992188 218.59320068359375"></path>
<path fill="none" stroke="black" stroke-width=".3" stroke-opacity="1.0"  filling="0" d="M8.892646789550781 218.61776733398438 L8.892646789550781 218.61776733398438"></path>
<path fill="none" stroke="black" stroke-width=".3" stroke-opacity="1.0"  filling="0" d="M13.556175231933594 218.62229919433594 L13.556175231933594 218.62229919433594"></path>
<path fill="none" stroke="black" stroke-width=".3" stroke-opacity="1.0"  filling="0" d="M13.366238594055176 218.7183837890625 L13.366238594055176 218.7183837890625"></path>
<path fill="none" stroke="black" stroke-width=".3" stroke-opacity="1.0"  filling="0" d="M16.87673568725586 218.798828125 L16.87673568725586 218.798828125"></path>
<path fill="none" stroke="black" stroke-width=".3" stroke-opacity="1.0"  filling="0" d="M8.986499786376953 218.81005859375 L8.986499786376953 218.81005859375"></path>
<path fill="none" stroke="black" stroke-width=".3" stroke-opacity="1.0"  filling="0" d="M13.174067497253418 218.81674194335938 L13.174067497253418 218.81674194335938"></path>
<path fill="none" stroke="black" stroke-width=".3" stroke-opacity="1.0"  filling="0" d="M17.089008331298828 218.81890869140625 L17.08901596069336 218.81890869140625"></path>
<path fill="none" stroke="black" stroke-width=".3" stroke-opacity="1.0"  filling="0" d="M17.30353546142578 218.8368377685547 L17.30353546142578 218.8368377685547"></path>
<path fill="none" stroke="black" stroke-width=".3" stroke-opacity="1.0"  filling="0" d="M17.518062591552734 218.8570098876953 L17.518054962158203 218.85691833496094"></path>
<path fill="none" stroke="black" stroke-width=".3" stroke-opacity="1.0"  filling="0" d="M12.981894493103027 218.91281127929688 L12.981894493103027 218.91281127929688"></path>
<path fill="none" stroke="black" stroke-width=".3" stroke-opacity="1.0"  filling="0" d="M9.082584381103516 219.002197265625 L9.082584381103516 219.002197265625"></path>
<path fill="none" stroke="black" stroke-width=".3" stroke-opacity="1.0"  filling="0" d="M12.791955947875977 219.00888061523438 L12.791955947875977 219.00888061523438"></path>
<path fill="none" stroke="black" stroke-width=".3" stroke-opacity="1.0"  filling="0" d="M12.599782943725586 219.107177734375 L12.599782943725586 219.107177734375"></path>
<path fill="none" stroke="black" stroke-width=".3" stroke-opacity="1.0"  filling="0" d="M9.178669929504395 219.1943359375 L9.178669929504395 219.1943359375"></path>
<path fill="none" stroke="black" stroke-width=".3" stroke-opacity="1.0"  filling="0" d="M12.409845352172852 219.2032012939453 L12.409845352172852 219.2032012939453"></path>
<path fill="none" stroke="black" stroke-width=".3" stroke-opacity="1.0"  filling="0" d="M17.897930145263672 219.27247619628906 L17.897930145263672 219.27247619628906"></path>
<path fill="none" stroke="black" stroke-width=".3" stroke-opacity="1.0"  filling="0" d="M12.217673301696777 219.301513671875 L12.217673301696777 219.301513671875"></path>
<path fill="none" stroke="black" stroke-width=".3" stroke-opacity="1.0"  filling="0" d="M9.27252197265625 219.3864288330078 L9.27252197265625 219.3864288330078"></path>
<path fill="none" stroke="black" stroke-width=".3" stroke-opacity="1.0"  filling="0" d="M12.02550220489502 219.3976593017578 L12.02550220489502 219.3976593017578"></path>
<path fill="none" stroke="black" stroke-width=".3" stroke-opacity="1.0"  filling="0" d="M17.775028228759766 219.4468231201172 L17.775028228759766 219.4468231201172"></path>
<path fill="none" stroke="black" stroke-width=".3" stroke-opacity="1.0"  filling="0" d="M11.835565567016602 219.4959716796875 L11.835565567016602 219.4959716796875"></path>
<path fill="none" stroke="black" stroke-width=".3" stroke-opacity="1.0"  filling="0" d="M17.477832794189453 219.51834106445312 L17.477832794189453 219.51834106445312 C18.31979751586914 220.3603057861328 16.63585662841797 220.3603057861328 17.477832794189453 219.51834106445312 L17.477832794189453 219.51834106445312"></path>
<path fill="none" stroke="black" stroke-width=".3" stroke-opacity="1.0"  filling="0" d="M9.368609428405762 219.57867431640625 L9.368609428405762 219.57867431640625"></path>
<path fill="none" stroke="black" stroke-width=".3" stroke-opacity="1.0"  filling="0" d="M11.643392562866211 219.59205627441406 L11.643392562866211 219.59205627441406"></path>
<path fill="none" stroke="black" stroke-width=".3" stroke-opacity="1.0"  filling="0" d="M11.45345401763916 219.6903839111328 L11.45345401763916 219.6903839111328"></path>
<path fill="none" stroke="black" stroke-width=".3" stroke-opacity="1.0"  filling="0" d="M9.46469497680664 219.7708282470703 L9.46469497680664 219.7708282470703"></path>
<path fill="none" stroke="black" stroke-width=".3" stroke-opacity="1.0"  filling="0" d="M11.26128101348877 219.78636169433594 L11.26128101348877 219.78636169433594"></path>
<path fill="none" stroke="black" stroke-width=".3" stroke-opacity="1.0"  filling="0" d="M11.069110870361328 219.88246154785156 L11.069110870361328 219.88246154785156"></path>
<path fill="none" stroke="black" stroke-width=".3" stroke-opacity="1.0"  filling="0" d="M17.835363388061523 219.947265625 L17.83536148071289 219.947265625"></path>
<path fill="none" stroke="black" stroke-width=".3" stroke-opacity="1.0"  filling="0" d="M9.558547019958496 219.96282958984375 L9.558547019958496 219.96282958984375"></path>
<path fill="none" stroke="black" stroke-width=".3" stroke-opacity="1.0"  filling="0" d="M10.879170417785645 219.9807586669922 L10.879170417785645 219.9807586669922"></path>
<path fill="none" stroke="black" stroke-width=".3" stroke-opacity="1.0"  filling="0" d="M18.04316520690918 220.00308227539062 L18.043174743652344 220.00308227539062"></path>
<path fill="none" stroke="black" stroke-width=".3" stroke-opacity="1.0"  filling="0" d="M18.25099754333496 220.05894470214844 L18.250988006591797 220.05894470214844"></path>
<path fill="none" stroke="black" stroke-width=".3" stroke-opacity="1.0"  filling="0" d="M10.687000274658203 220.07687377929688 L10.687000274658203 220.07687377929688"></path>
<path fill="none" stroke="black" stroke-width=".3" stroke-opacity="1.0"  filling="0" d="M18.45656967163086 220.11264038085938 L18.45656967163086 220.11264038085938"></path>
<path fill="none" stroke="black" stroke-width=".3" stroke-opacity="1.0"  filling="0" d="M9.65462589263916 220.1551055908203 L9.668038368225098 220.1819305419922 C9.81969928741455 220.16525268554688 9.949214935302734 220.30416870117188 10.076964378356934 220.38758850097656 L10.097076416015625 220.45680236816406 C10.150197982788086 220.89486694335938 9.763877868652344 220.89404296875 9.511626243591309 220.7964630126953 L9.46246337890625 220.74281311035156 C9.403351783752441 220.5673370361328 9.499292373657227 220.3604736328125 9.598772048950195 220.2042999267578 L9.654631614685059 220.15509033203125"></path>
<path fill="none" stroke="black" stroke-width=".3" stroke-opacity="1.0"  filling="0" d="M18.664382934570312 220.16847229003906 L18.664382934570312 220.16847229003906"></path>
<path fill="none" stroke="black" stroke-width=".3" stroke-opacity="1.0"  filling="0" d="M10.497062683105469 220.1751708984375 L10.497062683105469 220.1751708984375"></path>
<path fill="none" stroke="black" stroke-width=".3" stroke-opacity="1.0"  filling="0" d="M18.872190475463867 220.22433471679688 L18.8721981048584 220.22433471679688"></path>
<path fill="none" stroke="black" stroke-width=".3" stroke-opacity="1.0"  filling="0" d="M10.304890632629395 220.27127075195312 L10.304890632629395 220.27127075195312"></path>
<path fill="none" stroke="black" stroke-width=".3" stroke-opacity="1.0"  filling="0" d="M19.08002281188965 220.28012084960938 L19.080013275146484 220.28012084960938"></path>
<path fill="none" stroke="black" stroke-width=".3" stroke-opacity="1.0"  filling="0" d="M19.285593032836914 220.33375549316406 L19.285593032836914 220.33375549316406"></path>
<path fill="none" stroke="black" stroke-width=".3" stroke-opacity="1.0"  filling="0" d="M19.493406295776367 220.38961791992188 L19.493406295776367 220.38961791992188"></path>
<path fill="none" stroke="black" stroke-width=".3" stroke-opacity="1.0"  filling="0" d="M19.701210021972656 220.4454803466797 L19.70121955871582 220.4454803466797"></path>
<path fill="none" stroke="black" stroke-width=".3" stroke-opacity="1.0"  filling="0" d="M19.909042358398438 220.50132751464844 L19.909032821655273 220.50132751464844"></path>
<path fill="none" stroke="black" stroke-width=".3" stroke-opacity="1.0"  filling="0" d="M20.114612579345703 220.55496215820312 L20.114612579345703 220.55496215820312"></path>
<path fill="none" stroke="black" stroke-width=".3" stroke-opacity="1.0"  filling="0" d="M20.322425842285156 220.61085510253906 L20.322425842285156 220.61085510253906"></path>
<path fill="none" stroke="black" stroke-width=".3" stroke-opacity="1.0"  filling="0" d="M20.530231475830078 220.6667022705078 L20.530242919921875 220.6667022705078"></path>
<path fill="none" stroke="black" stroke-width=".3" stroke-opacity="1.0"  filling="0" d="M20.738067626953125 220.72256469726562 L20.738056182861328 220.72256469726562"></path>
<path fill="none" stroke="black" stroke-width=".3" stroke-opacity="1.0"  filling="0" d="M20.94363784790039 220.77841186523438 L20.94363784790039 220.77841186523438"></path>
<path fill="none" stroke="black" stroke-width=".3" stroke-opacity="1.0"  filling="0" d="M9.346261978149414 220.8253631591797 L9.346261978149414 220.8253631591797"></path>
<path fill="none" stroke="black" stroke-width=".3" stroke-opacity="1.0"  filling="0" d="M21.151451110839844 220.83206176757812 L21.151451110839844 220.83206176757812"></path>
<path fill="none" stroke="black" stroke-width=".3" stroke-opacity="1.0"  filling="0" d="M22.304487228393555 220.8611602783203 L22.304487228393555 220.8611602783203 C23.131210327148438 221.6879425048828 21.878541946411133 221.63916015625 21.962596893310547 221.1226043701172 L21.98717498779297 221.05551147460938 C22.092945098876953 220.99070739746094 22.198715209960938 220.9259033203125 22.304485321044922 220.86109924316406 L22.304485321044922 220.86109924316406"></path>
<path fill="none" stroke="black" stroke-width=".3" stroke-opacity="1.0"  filling="0" d="M9.533966064453125 220.88790893554688 L9.533966064453125 220.88790893554688"></path>
<path fill="none" stroke="black" stroke-width=".3" stroke-opacity="1.0"  filling="0" d="M21.3592529296875 220.88790893554688 L21.359264373779297 220.88790893554688"></path>
<path fill="none" stroke="black" stroke-width=".3" stroke-opacity="1.0"  filling="0" d="M21.567089080810547 220.94378662109375 L21.567079544067383 220.94378662109375"></path>
<path fill="none" stroke="black" stroke-width=".3" stroke-opacity="1.0"  filling="0" d="M9.169732093811035 220.94595336914062 L9.169732093811035 220.94595336914062"></path>
<path fill="none" stroke="black" stroke-width=".3" stroke-opacity="1.0"  filling="0" d="M21.772655487060547 220.99954223632812 L21.772659301757812 220.99954223632812"></path>
<path fill="none" stroke="black" stroke-width=".3" stroke-opacity="1.0"  filling="0" d="M9.417769432067871 221.0666046142578 L9.417769432067871 221.0666046142578"></path>
<path fill="none" stroke="black" stroke-width=".3" stroke-opacity="1.0"  filling="0" d="M8.993202209472656 221.06875610351562 L8.993202209472656 221.06875610351562"></path>
<path fill="none" stroke="black" stroke-width=".3" stroke-opacity="1.0"  filling="0" d="M8.818906784057617 221.19166564941406 L8.818906784057617 221.19166564941406"></path>
<path fill="none" stroke="black" stroke-width=".3" stroke-opacity="1.0"  filling="0" d="M9.3015718460083 221.24530029296875 L9.3015718460083 221.24530029296875"></path>
<path fill="none" stroke="black" stroke-width=".3" stroke-opacity="1.0"  filling="0" d="M8.642375946044922 221.3123321533203 L8.642375946044922 221.3123321533203"></path>
<path fill="none" stroke="black" stroke-width=".3" stroke-opacity="1.0"  filling="0" d="M9.183138847351074 221.42630004882812 L9.183138847351074 221.42630004882812"></path>
<path fill="none" stroke="black" stroke-width=".3" stroke-opacity="1.0"  filling="0" d="M8.465846061706543 221.4351348876953 L8.465846061706543 221.4351348876953"></path>
<path fill="none" stroke="black" stroke-width=".3" stroke-opacity="1.0"  filling="0" d="M8.289316177368164 221.55804443359375 L8.289316177368164 221.55804443359375"></path>
<path fill="none" stroke="black" stroke-width=".3" stroke-opacity="1.0"  filling="0" d="M22.21510124206543 221.6005096435547 L22.21510124206543 221.6005096435547"></path>
<path fill="none" stroke="black" stroke-width=".3" stroke-opacity="1.0"  filling="0" d="M9.066941261291504 221.60504150390625 L9.066941261291504 221.60504150390625"></path>
<path fill="none" stroke="black" stroke-width=".3" stroke-opacity="1.0"  filling="0" d="M8.112785339355469 221.68101501464844 L8.112785339355469 221.68101501464844"></path>
<path fill="none" stroke="black" stroke-width=".3" stroke-opacity="1.0"  filling="0" d="M8.95074462890625 221.78602600097656 L8.95074462890625 221.78602600097656"></path>
<path fill="none" stroke="black" stroke-width=".3" stroke-opacity="1.0"  filling="0" d="M7.936254978179932 221.8015899658203 L7.936254978179932 221.8015899658203"></path>
<path fill="none" stroke="black" stroke-width=".3" stroke-opacity="1.0"  filling="0" d="M22.150299072265625 221.80615234375 L22.150299072265625 221.80612182617188"></path>
<path fill="none" stroke="black" stroke-width=".3" stroke-opacity="1.0"  filling="0" d="M7.759725093841553 221.924560546875 L7.759725093841553 221.924560546875"></path>
<path fill="none" stroke="black" stroke-width=".3" stroke-opacity="1.0"  filling="0" d="M8.832313537597656 221.96478271484375 L8.832313537597656 221.96478271484375"></path>
<path fill="none" stroke="black" stroke-width=".3" stroke-opacity="1.0"  filling="0" d="M22.08549690246582 222.00946044921875 L22.08549690246582 222.00946044921875"></path>
<path fill="none" stroke="black" stroke-width=".3" stroke-opacity="1.0"  filling="0" d="M7.585428237915039 222.04747009277344 L7.585428237915039 222.04747009277344"></path>
<path fill="none" stroke="black" stroke-width=".3" stroke-opacity="1.0"  filling="0" d="M8.716116905212402 222.1457977294922 L8.716116905212402 222.1457977294922"></path>
<path fill="none" stroke="black" stroke-width=".3" stroke-opacity="1.0"  filling="0" d="M7.408897876739502 222.1703643798828 L7.408897876739502 222.1703643798828"></path>
<path fill="none" stroke="black" stroke-width=".3" stroke-opacity="1.0"  filling="0" d="M22.020694732666016 222.21505737304688 L22.020694732666016 222.21505737304688"></path>
<path fill="none" stroke="black" stroke-width=".3" stroke-opacity="1.0"  filling="0" d="M7.232367038726807 222.291015625 L7.232367038726807 222.291015625"></path>
<path fill="none" stroke="black" stroke-width=".3" stroke-opacity="1.0"  filling="0" d="M8.599919319152832 222.3245391845703 L8.599919319152832 222.3245391845703"></path>
<path fill="none" stroke="black" stroke-width=".3" stroke-opacity="1.0"  filling="0" d="M7.055837154388428 222.41390991210938 L7.055837154388428 222.41390991210938"></path>
<path fill="none" stroke="black" stroke-width=".3" stroke-opacity="1.0"  filling="0" d="M21.95589256286621 222.41844177246094 L21.95589256286621 222.41844177246094"></path>
<path fill="none" stroke="black" stroke-width=".3" stroke-opacity="1.0"  filling="0" d="M8.481487274169922 222.505615234375 L8.481487274169922 222.505615234375"></path>
<path fill="none" stroke="black" stroke-width=".3" stroke-opacity="1.0"  filling="0" d="M6.879306316375732 222.53689575195312 L6.879306316375732 222.53689575195312"></path>
<path fill="none" stroke="black" stroke-width=".3" stroke-opacity="1.0"  filling="0" d="M21.891090393066406 222.6240692138672 L21.891090393066406 222.6240692138672"></path>
<path fill="none" stroke="black" stroke-width=".3" stroke-opacity="1.0"  filling="0" d="M6.702776908874512 222.6597900390625 L6.702776908874512 222.6597900390625"></path>
<path fill="none" stroke="black" stroke-width=".3" stroke-opacity="1.0"  filling="0" d="M8.365289688110352 222.6844024658203 L8.365289688110352 222.6844024658203"></path>
<path fill="none" stroke="black" stroke-width=".3" stroke-opacity="1.0"  filling="0" d="M6.526246070861816 222.7804412841797 L6.526246070861816 222.7804412841797"></path>
<path fill="none" stroke="black" stroke-width=".3" stroke-opacity="1.0"  filling="0" d="M21.8262882232666 222.82740783691406 L21.8262882232666 222.82740783691406"></path>
<path fill="none" stroke="black" stroke-width=".3" stroke-opacity="1.0"  filling="0" d="M8.249092102050781 222.8654022216797 L8.249092102050781 222.8654022216797"></path>
<path fill="none" stroke="black" stroke-width=".3" stroke-opacity="1.0"  filling="0" d="M6.349715709686279 222.9033660888672 L6.349715709686279 222.9033660888672"></path>
<path fill="none" stroke="black" stroke-width=".3" stroke-opacity="1.0"  filling="0" d="M6.175421237945557 223.02626037597656 L6.175421237945557 223.02626037597656"></path>
<path fill="none" stroke="black" stroke-width=".3" stroke-opacity="1.0"  filling="0" d="M21.761486053466797 223.032958984375 L21.761486053466797 223.032958984375"></path>
<path fill="none" stroke="black" stroke-width=".3" stroke-opacity="1.0"  filling="0" d="M8.130661964416504 223.04420471191406 L8.130661964416504 223.04420471191406"></path>
<path fill="none" stroke="black" stroke-width=".3" stroke-opacity="1.0"  filling="0" d="M5.9988908767700195 223.1492156982422 L5.9988908767700195 223.1492156982422"></path>
<path fill="none" stroke="black" stroke-width=".3" stroke-opacity="1.0"  filling="0" d="M8.014464378356934 223.2252197265625 L8.014464378356934 223.2252197265625"></path>
<path fill="none" stroke="black" stroke-width=".3" stroke-opacity="1.0"  filling="0" d="M21.696683883666992 223.2364501953125 L21.696683883666992 223.2364501953125"></path>
<path fill="none" stroke="black" stroke-width=".3" stroke-opacity="1.0"  filling="0" d="M5.822360992431641 223.26995849609375 L5.822360992431641 223.26995849609375"></path>
<path fill="none" stroke="black" stroke-width=".3" stroke-opacity="1.0"  filling="0" d="M5.645830154418945 223.39285278320312 L5.645830154418945 223.39285278320312"></path>
<path fill="none" stroke="black" stroke-width=".3" stroke-opacity="1.0"  filling="0" d="M7.8982672691345215 223.40408325195312 L7.8982672691345215 223.40408325195312"></path>
<path fill="none" stroke="black" stroke-width=".3" stroke-opacity="1.0"  filling="0" d="M21.631881713867188 223.44207763671875 L21.631881713867188 223.44207763671875"></path>
<path fill="none" stroke="black" stroke-width=".3" stroke-opacity="1.0"  filling="0" d="M5.469299793243408 223.51580810546875 L5.469299793243408 223.51580810546875"></path>
<path fill="none" stroke="black" stroke-width=".3" stroke-opacity="1.0"  filling="0" d="M7.779834747314453 223.58506774902344 L7.779834747314453 223.58506774902344"></path>
<path fill="none" stroke="black" stroke-width=".3" stroke-opacity="1.0"  filling="0" d="M5.292769432067871 223.6387176513672 L5.292769432067871 223.6387176513672"></path>
<path fill="none" stroke="black" stroke-width=".3" stroke-opacity="1.0"  filling="0" d="M21.567079544067383 223.64755249023438 L21.567079544067383 223.64755249023438"></path>
<path fill="none" stroke="black" stroke-width=".3" stroke-opacity="1.0"  filling="0" d="M5.116239070892334 223.75927734375 L5.116239070892334 223.75927734375"></path>
<path fill="none" stroke="black" stroke-width=".3" stroke-opacity="1.0"  filling="0" d="M7.663637161254883 223.76382446289062 L7.663637161254883 223.76382446289062"></path>
<path fill="none" stroke="black" stroke-width=".3" stroke-opacity="1.0"  filling="0" d="M21.502277374267578 223.85089111328125 L21.54473304748535 223.95816040039062 C22.470373153686523 225.40707397460938 20.085901260375977 223.74960327148438 21.47769546508789 223.9336700439453 L21.502277374267578 223.85098266601562"></path>
<path fill="none" stroke="black" stroke-width=".3" stroke-opacity="1.0"  filling="0" d="M4.9419426918029785 223.8822479248047 L4.9419426918029785 223.8822479248047"></path>
<path fill="none" stroke="black" stroke-width=".3" stroke-opacity="1.0"  filling="0" d="M7.545206546783447 223.94261169433594 L7.545206546783447 223.94261169433594"></path>
<path fill="none" stroke="black" stroke-width=".3" stroke-opacity="1.0"  filling="0" d="M4.7654128074646 224.00514221191406 L4.7654128074646 224.00514221191406"></path>
<path fill="none" stroke="black" stroke-width=".3" stroke-opacity="1.0"  filling="0" d="M7.429008960723877 224.12359619140625 L7.429008960723877 224.12359619140625"></path>
<path fill="none" stroke="black" stroke-width=".3" stroke-opacity="1.0"  filling="0" d="M4.588881492614746 224.1281280517578 L4.588881492614746 224.1281280517578"></path>
<path fill="none" stroke="black" stroke-width=".3" stroke-opacity="1.0"  filling="0" d="M4.412351131439209 224.24880981445312 L4.412351131439209 224.24880981445312"></path>
<path fill="none" stroke="black" stroke-width=".3" stroke-opacity="1.0"  filling="0" d="M6.9888014793396 224.28457641601562 L6.9888014793396 224.28457641601562 C7.082652568817139 224.3128662109375 7.176504135131836 224.34117126464844 7.270355224609375 224.3694610595703 L7.326219081878662 224.41415405273438 C7.807179927825928 225.4822235107422 5.799858570098877 225.47341918945312 6.9888014793396 224.28457641601562 L6.9888014793396 224.28457641601562"></path>
<path fill="none" stroke="black" stroke-width=".3" stroke-opacity="1.0"  filling="0" d="M3.6861181259155273 224.32699584960938 L3.6861181259155273 224.32699584960938 C4.907400131225586 225.55355834960938 2.4610538482666016 225.5520782470703 3.6861181259155273 224.32699584960938 L3.6861181259155273 224.32699584960938"></path>
<path fill="none" stroke="black" stroke-width=".3" stroke-opacity="1.0"  filling="0" d="M4.23582124710083 224.37167358398438 L4.23582124710083 224.37167358398438"></path>
<path fill="none" stroke="black" stroke-width=".3" stroke-opacity="1.0"  filling="0" d="M21.289989471435547 224.68455505371094 L21.289989471435547 224.68455505371094"></path>
<path fill="none" stroke="black" stroke-width=".3" stroke-opacity="1.0"  filling="0" d="M21.249771118164062 224.89466857910156 L21.249771118164062 224.8945770263672"></path>
<path fill="none" stroke="black" stroke-width=".3" stroke-opacity="1.0"  filling="0" d="M21.20731544494629 225.10679626464844 L21.20731544494629 225.1068878173828"></path>
<path fill="none" stroke="black" stroke-width=".3" stroke-opacity="1.0"  filling="0" d="M21.16485595703125 225.31690979003906 L21.16485595703125 225.31690979003906"></path>
<path fill="none" stroke="black" stroke-width=".3" stroke-opacity="1.0"  filling="0" d="M21.124637603759766 225.52696228027344 L21.124637603759766 225.52696228027344"></path>
<path fill="none" stroke="black" stroke-width=".3" stroke-opacity="1.0"  filling="0" d="M21.08218002319336 225.73699951171875 L21.08218002319336 225.73703002929688"></path>
<path fill="none" stroke="black" stroke-width=".3" stroke-opacity="1.0"  filling="0" d="M21.001733779907227 225.92250061035156 L21.001733779907227 225.92250061035156 C21.843751907348633 226.7644500732422 20.159713745117188 226.7644500732422 21.001733779907227 225.92250061035156 L21.001733779907227 225.92250061035156"></path></svg>