<svg xmlns="http://www.w3.org/2000/svg" viewBox="0.0 0.0 24.0 24.0" height="200px" width="200px"><path fill="none" stroke="black" stroke-width=".3" stroke-opacity="1.0"  filling="0" d="M16.405643463134766 207.1075897216797 L16.405643463134766 207.1075897216797 C16.619834899902344 207.32177734375 17.415176391601562 208.21669006347656 16.288307189941406 208.08261108398438 L16.20449447631836 208.0546417236328 C16.028963088989258 207.78382873535156 16.177438735961914 207.33578491210938 16.405643463134766 207.1075897216797 L16.405643463134766 207.1075897216797"></path>
<path fill="none" stroke="black" stroke-width=".3" stroke-opacity="1.0"  filling="0" d="M9.108438491821289 207.4595947265625 L9.108438491821289 207.4595947265625 C9.49767017364502 207.84683227539062 9.962289810180664 208.72329711914062 8.896114349365234 208.49887084960938 L8.815113067626953 208.4569549560547 C8.649044036865234 208.15280151367188 8.863415718078613 207.7046356201172 9.108453750610352 207.4595947265625 L9.108453750610352 207.4595947265625"></path>
<path fill="none" stroke="black" stroke-width=".3" stroke-opacity="1.0"  filling="0" d="M16.120683670043945 208.24742126464844 L16.120683670043945 208.24742126464844"></path>
<path fill="none" stroke="black" stroke-width=".3" stroke-opacity="1.0"  filling="0" d="M16.017314910888672 208.49327087402344 L16.017314910888672 208.49327087402344"></path>
<path fill="none" stroke="black" stroke-width=".3" stroke-opacity="1.0"  filling="0" d="M8.767619132995605 208.5770721435547 L8.767619132995605 208.5770721435547"></path>
<path fill="none" stroke="black" stroke-width=".3" stroke-opacity="1.0"  filling="0" d="M15.911154747009277 208.73912048339844 L15.922329902648926 208.9402618408203 L15.911154747009277 208.73912048339844"></path>
<path fill="none" stroke="black" stroke-width=".3" stroke-opacity="1.0"  filling="0" d="M8.667043685913086 208.82571411132812 L8.667043685913086 208.82571411132812"></path>
<path fill="none" stroke="black" stroke-width=".3" stroke-opacity="1.0"  filling="0" d="M15.80499267578125 208.98497009277344 L15.816169738769531 209.1861114501953 L15.80499267578125 208.98497009277344"></path>
<path fill="none" stroke="black" stroke-width=".3" stroke-opacity="1.0"  filling="0" d="M8.563677787780762 209.07156372070312 L8.577646255493164 209.27272033691406 L8.563677787780762 209.07156372070312"></path>
<path fill="none" stroke="black" stroke-width=".3" stroke-opacity="1.0"  filling="0" d="M15.698833465576172 209.2335968017578 L15.698833465576172 209.2335968017578"></path>
<path fill="none" stroke="black" stroke-width=".3" stroke-opacity="1.0"  filling="0" d="M8.463104248046875 209.32022094726562 L8.463104248046875 209.32022094726562"></path>
<path fill="none" stroke="black" stroke-width=".3" stroke-opacity="1.0"  filling="0" d="M15.592670440673828 209.4794464111328 L15.592670440673828 209.4794464111328"></path>
<path fill="none" stroke="black" stroke-width=".3" stroke-opacity="1.0"  filling="0" d="M8.359737396240234 209.56884765625 L8.359737396240234 209.56884765625"></path>
<path fill="none" stroke="black" stroke-width=".3" stroke-opacity="1.0"  filling="0" d="M15.486510276794434 209.7252960205078 L15.522828102111816 209.8733673095703 C15.677489280700684 210.14071655273438 15.866117477416992 210.6678009033203 15.235074996948242 210.5913543701172 L15.151264190673828 210.5606231689453 C14.97927474975586 210.28143310546875 14.808935165405273 209.72955322265625 15.439016342163086 209.83984375 L15.486510276794434 209.7252960205078"></path>
<path fill="none" stroke="black" stroke-width=".3" stroke-opacity="1.0"  filling="0" d="M8.259162902832031 209.8175048828125 L8.259162902832031 209.8175048828125"></path>
<path fill="none" stroke="black" stroke-width=".3" stroke-opacity="1.0"  filling="0" d="M8.155794143676758 210.06333923339844 L8.16976261138916 210.26449584960938 L8.155794143676758 210.06333923339844"></path>
<path fill="none" stroke="black" stroke-width=".3" stroke-opacity="1.0"  filling="0" d="M8.055219650268555 210.31198120117188 L8.069189071655273 210.51312255859375 L8.055219650268555 210.31198120117188"></path>
<path fill="none" stroke="black" stroke-width=".3" stroke-opacity="1.0"  filling="0" d="M7.951853275299072 210.5606231689453 L7.951853275299072 210.5606231689453"></path>
<path fill="none" stroke="black" stroke-width=".3" stroke-opacity="1.0"  filling="0" d="M15.092594146728516 210.72544860839844 L15.092594146728516 210.72544860839844"></path>
<path fill="none" stroke="black" stroke-width=".3" stroke-opacity="1.0"  filling="0" d="M7.851279258728027 210.8092803955078 L7.851279258728027 210.8092803955078"></path>
<path fill="none" stroke="black" stroke-width=".3" stroke-opacity="1.0"  filling="0" d="M15.003196716308594 210.9768829345703 L15.003196716308594 210.9768829345703"></path>
<path fill="none" stroke="black" stroke-width=".3" stroke-opacity="1.0"  filling="0" d="M7.747912406921387 211.05789184570312 L7.747912406921387 211.05789184570312"></path>
<path fill="none" stroke="black" stroke-width=".3" stroke-opacity="1.0"  filling="0" d="M14.911003112792969 211.2311248779297 L14.911003112792969 211.2311248779297"></path>
<path fill="none" stroke="black" stroke-width=".3" stroke-opacity="1.0"  filling="0" d="M7.6473388671875 211.30374145507812 L7.6613078117370605 211.50489807128906 L7.6473388671875 211.30374145507812"></path>
<path fill="none" stroke="black" stroke-width=".3" stroke-opacity="1.0"  filling="0" d="M14.82160472869873 211.4825439453125 L14.82160472869873 211.4825439453125"></path>
<path fill="none" stroke="black" stroke-width=".3" stroke-opacity="1.0"  filling="0" d="M7.543970108032227 211.55238342285156 L7.557938575744629 211.75355529785156 L7.543970108032227 211.55238342285156"></path>
<path fill="none" stroke="black" stroke-width=".3" stroke-opacity="1.0"  filling="0" d="M14.732205390930176 211.73397827148438 L14.732205390930176 211.73397827148438"></path>
<path fill="none" stroke="black" stroke-width=".3" stroke-opacity="1.0"  filling="0" d="M7.440603256225586 211.80104064941406 L7.440603256225586 211.80104064941406"></path>
<path fill="none" stroke="black" stroke-width=".3" stroke-opacity="1.0"  filling="0" d="M14.64001178741455 211.9882354736328 L14.69867992401123 212.09158325195312 C14.87010669708252 212.326171875 14.866469383239746 212.73007202148438 14.69309139251709 212.96322631835938 L14.603693962097168 212.97999572753906 C14.4075288772583 212.99307250976562 14.275991439819336 212.76210021972656 14.120381355285645 212.64195251464844 L14.106411933898926 212.5497589111328 C14.106411933898926 212.3066864013672 14.37213134765625 212.06094360351562 14.609281539916992 212.07481384277344 L14.6400146484375 211.98822021484375"></path>
<path fill="none" stroke="black" stroke-width=".3" stroke-opacity="1.0"  filling="0" d="M7.340029239654541 212.04966735839844 L7.340029239654541 212.04966735839844"></path>
<path fill="none" stroke="black" stroke-width=".3" stroke-opacity="1.0"  filling="0" d="M7.236661911010742 212.29551696777344 L7.253423690795898 212.4966583251953 L7.236661911010742 212.29551696777344"></path>
<path fill="none" stroke="black" stroke-width=".3" stroke-opacity="1.0"  filling="0" d="M7.1360883712768555 212.54417419433594 L7.150056838989258 212.7453155517578 L7.1360883712768555 212.54417419433594"></path>
<path fill="none" stroke="black" stroke-width=".3" stroke-opacity="1.0"  filling="0" d="M13.93040943145752 212.6279754638672 L13.93040943145752 212.6279754638672"></path>
<path fill="none" stroke="black" stroke-width=".3" stroke-opacity="1.0"  filling="0" d="M13.687355041503906 212.734130859375 L13.558843612670898 212.8905792236328 L13.687355041503906 212.734130859375"></path>
<path fill="none" stroke="black" stroke-width=".3" stroke-opacity="1.0"  filling="0" d="M6.943321228027344 212.79000854492188 L6.943321228027344 212.79000854492188 C6.972189426422119 212.79373168945312 7.001058101654053 212.79745483398438 7.029926300048828 212.80117797851562 L7.113739013671875 212.8319091796875 C7.640049934387207 213.69252014160156 6.0604095458984375 213.67291259765625 6.943321228027344 212.79000854492188 L6.943321228027344 212.79000854492188"></path>
<path fill="none" stroke="black" stroke-width=".3" stroke-opacity="1.0"  filling="0" d="M13.441508293151855 212.8430938720703 L13.312996864318848 212.9967498779297 L13.441508293151855 212.8430938720703"></path>
<path fill="none" stroke="black" stroke-width=".3" stroke-opacity="1.0"  filling="0" d="M13.195660591125488 212.95204162597656 L13.067150115966797 213.10569763183594 L13.195660591125488 212.95204162597656"></path>
<path fill="none" stroke="black" stroke-width=".3" stroke-opacity="1.0"  filling="0" d="M12.949814796447754 213.06100463867188 L12.949814796447754 213.06100463867188"></path>
<path fill="none" stroke="black" stroke-width=".3" stroke-opacity="1.0"  filling="0" d="M12.703968048095703 213.16995239257812 L12.703968048095703 213.16995239257812"></path>
<path fill="none" stroke="black" stroke-width=".3" stroke-opacity="1.0"  filling="0" d="M7.38472843170166 213.17274475097656 L7.54675817489624 213.29287719726562 L7.38472843170166 213.17274475097656"></path>
<path fill="none" stroke="black" stroke-width=".3" stroke-opacity="1.0"  filling="0" d="M14.707062721252441 213.175537109375 L14.707062721252441 213.17552185058594"></path>
<path fill="none" stroke="black" stroke-width=".3" stroke-opacity="1.0"  filling="0" d="M7.650131702423096 213.21743774414062 L7.650131702423096 213.21743774414062"></path>
<path fill="none" stroke="black" stroke-width=".3" stroke-opacity="1.0"  filling="0" d="M7.9127421379089355 213.26492309570312 L8.074769973754883 213.38226318359375 L7.9127421379089355 213.26492309570312"></path>
<path fill="none" stroke="black" stroke-width=".3" stroke-opacity="1.0"  filling="0" d="M12.46091365814209 213.27890014648438 L12.332401275634766 213.43255615234375 L12.46091365814209 213.27890014648438"></path>
<path fill="none" stroke="black" stroke-width=".3" stroke-opacity="1.0"  filling="0" d="M8.178143501281738 213.30963134765625 L8.340173721313477 213.4269561767578 L8.178143501281738 213.30963134765625"></path>
<path fill="none" stroke="black" stroke-width=".3" stroke-opacity="1.0"  filling="0" d="M11.22887134552002 213.32638549804688 L11.22887134552002 213.32638549804688 C11.379732131958008 213.4250946044922 11.530592918395996 213.52381896972656 11.681453704833984 213.62252807617188 L11.706595420837402 213.7063446044922 C11.735511779785156 213.9317626953125 11.493309020996094 214.11021423339844 11.354593276977539 214.29022216796875 L11.329458236694336 214.29861450195312 C10.173932075500488 214.39486694335938 11.038006782531738 213.5161895751953 11.228883743286133 213.32640075683594 L11.228883743286133 213.32640075683594"></path>
<path fill="none" stroke="black" stroke-width=".3" stroke-opacity="1.0"  filling="0" d="M8.443544387817383 213.35433959960938 L8.443547248840332 213.35433959960938"></path>
<path fill="none" stroke="black" stroke-width=".3" stroke-opacity="1.0"  filling="0" d="M12.215066909790039 213.3850555419922 L12.086555480957031 213.54151916503906 L12.215066909790039 213.3850555419922"></path>
<path fill="none" stroke="black" stroke-width=".3" stroke-opacity="1.0"  filling="0" d="M8.706157684326172 213.3990478515625 L8.868185997009277 213.51918029785156 L8.706157684326172 213.3990478515625"></path>
<path fill="none" stroke="black" stroke-width=".3" stroke-opacity="1.0"  filling="0" d="M14.729414939880371 213.44093322753906 L14.653989791870117 213.62811279296875 L14.729412078857422 213.44093322753906"></path>
<path fill="none" stroke="black" stroke-width=".3" stroke-opacity="1.0"  filling="0" d="M8.971570014953613 213.44654846191406 L9.133597373962402 213.56387329101562 L8.971561431884766 213.44654846191406"></path>
<path fill="none" stroke="black" stroke-width=".3" stroke-opacity="1.0"  filling="0" d="M9.234161376953125 213.49122619628906 L9.396197319030762 213.60858154296875 L9.234169960021973 213.49122619628906"></path>
<path fill="none" stroke="black" stroke-width=".3" stroke-opacity="1.0"  filling="0" d="M11.969219207763672 213.49403381347656 L11.969219207763672 213.49403381347656"></path>
<path fill="none" stroke="black" stroke-width=".3" stroke-opacity="1.0"  filling="0" d="M9.499573707580566 213.5359344482422 L9.661601066589355 213.6560516357422 L9.499573707580566 213.5359344482422"></path>
<path fill="none" stroke="black" stroke-width=".3" stroke-opacity="1.0"  filling="0" d="M9.764979362487793 213.58062744140625 L9.764976501464844 213.58062744140625"></path>
<path fill="none" stroke="black" stroke-width=".3" stroke-opacity="1.0"  filling="0" d="M10.02758502960205 213.62811279296875 L10.189614295959473 213.74545288085938 L10.02758502960205 213.62811279296875"></path>
<path fill="none" stroke="black" stroke-width=".3" stroke-opacity="1.0"  filling="0" d="M10.292987823486328 213.67282104492188 L10.45501708984375 213.7901611328125 L10.292987823486328 213.67282104492188"></path>
<path fill="none" stroke="black" stroke-width=".3" stroke-opacity="1.0"  filling="0" d="M14.748969078063965 213.70913696289062 L14.748969078063965 213.70913696289062"></path>
<path fill="none" stroke="black" stroke-width=".3" stroke-opacity="1.0"  filling="0" d="M10.558391571044922 213.71751403808594 L10.558391571044922 213.71751403808594"></path>
<path fill="none" stroke="black" stroke-width=".3" stroke-opacity="1.0"  filling="0" d="M14.771318435668945 213.9773406982422 L14.771318435668945 213.9773406982422"></path>
<path fill="none" stroke="black" stroke-width=".3" stroke-opacity="1.0"  filling="0" d="M14.79086685180664 214.24273681640625 L14.71544361114502 214.42991638183594 L14.79086685180664 214.24273681640625"></path>
<path fill="none" stroke="black" stroke-width=".3" stroke-opacity="1.0"  filling="0" d="M11.452375411987305 214.34332275390625 L11.446786880493164 214.54446411132812 L11.452375411987305 214.34332275390625"></path>
<path fill="none" stroke="black" stroke-width=".3" stroke-opacity="1.0"  filling="0" d="M14.810407638549805 214.51092529296875 L14.810422897338867 214.51092529296875"></path>
<path fill="none" stroke="black" stroke-width=".3" stroke-opacity="1.0"  filling="0" d="M11.564122200012207 214.5863800048828 L11.558536529541016 214.78750610351562 L11.564122200012207 214.5863800048828"></path>
<path fill="none" stroke="black" stroke-width=".3" stroke-opacity="1.0"  filling="0" d="M14.832773208618164 214.77914428710938 L14.832773208618164 214.77914428710938"></path>
<path fill="none" stroke="black" stroke-width=".3" stroke-opacity="1.0"  filling="0" d="M11.678665161132812 214.8294219970703 L11.670284271240234 215.0305633544922 L11.678665161132812 214.8294219970703"></path>
<path fill="none" stroke="black" stroke-width=".3" stroke-opacity="1.0"  filling="0" d="M14.85232925415039 215.04733276367188 L14.85232925415039 215.04733276367188"></path>
<path fill="none" stroke="black" stroke-width=".3" stroke-opacity="1.0"  filling="0" d="M11.790414810180664 215.0752716064453 L11.790414810180664 215.0752716064453"></path>
<path fill="none" stroke="black" stroke-width=".3" stroke-opacity="1.0"  filling="0" d="M14.874679565429688 215.31272888183594 L14.799256324768066 215.49990844726562 L14.874679565429688 215.31272888183594"></path>
<path fill="none" stroke="black" stroke-width=".3" stroke-opacity="1.0"  filling="0" d="M11.9021635055542 215.31832885742188 L11.9021635055542 215.31832885742188"></path>
<path fill="none" stroke="black" stroke-width=".3" stroke-opacity="1.0"  filling="0" d="M12.016705513000488 215.56138610839844 L12.016705513000488 215.56138610839844"></path>
<path fill="none" stroke="black" stroke-width=".3" stroke-opacity="1.0"  filling="0" d="M14.894235610961914 215.5809326171875 L14.894235610961914 215.5809326171875"></path>
<path fill="none" stroke="black" stroke-width=".3" stroke-opacity="1.0"  filling="0" d="M12.12845516204834 215.80442810058594 L12.12845516204834 215.80442810058594"></path>
<path fill="none" stroke="black" stroke-width=".3" stroke-opacity="1.0"  filling="0" d="M14.91379165649414 215.84913635253906 L14.91379165649414 215.84913635253906"></path>
<path fill="none" stroke="black" stroke-width=".3" stroke-opacity="1.0"  filling="0" d="M12.242998123168945 216.04747009277344 L12.242998123168945 216.04747009277344"></path>
<path fill="none" stroke="black" stroke-width=".3" stroke-opacity="1.0"  filling="0" d="M14.936141967773438 216.11453247070312 L14.860716819763184 216.3017120361328 L14.936141967773438 216.11453247070312"></path>
<path fill="none" stroke="black" stroke-width=".3" stroke-opacity="1.0"  filling="0" d="M12.354744911193848 216.29052734375 L12.354744911193848 216.29052734375"></path>
<path fill="none" stroke="black" stroke-width=".3" stroke-opacity="1.0"  filling="0" d="M14.955687522888184 216.38265991210938 L14.9696626663208 216.55868530273438 C16.046218872070312 216.55868530273438 15.299320220947266 217.34478759765625 15.17081069946289 217.53089904785156 L15.084205627441406 217.55323791503906 C14.838134765625 217.5832061767578 14.674203872680664 217.27151489257812 14.491937637329102 217.10350036621094 L14.49194622039795 217.01132202148438 C14.6362886428833 216.86231994628906 14.780630111694336 216.7133331298828 14.924972534179688 216.5643310546875 L14.955696105957031 216.38272094726562"></path>
<path fill="none" stroke="black" stroke-width=".3" stroke-opacity="1.0"  filling="0" d="M12.4664945602417 216.53358459472656 L12.4664945602417 216.53358459472656"></path>
<path fill="none" stroke="black" stroke-width=".3" stroke-opacity="1.0"  filling="0" d="M12.581036567687988 216.77664184570312 L12.57544994354248 216.97779846191406 L12.581036567687988 216.77664184570312"></path>
<path fill="none" stroke="black" stroke-width=".3" stroke-opacity="1.0"  filling="0" d="M12.692776679992676 217.01971435546875 L12.720714569091797 217.07557678222656 C14.585234642028809 216.9513397216797 11.302872657775879 219.03404235839844 12.631316184997559 217.10072326660156 L12.69278621673584 217.0196990966797"></path>
<path fill="none" stroke="black" stroke-width=".3" stroke-opacity="1.0"  filling="0" d="M14.274030685424805 217.06719970703125 L14.274030685424805 217.06719970703125"></path>
<path fill="none" stroke="black" stroke-width=".3" stroke-opacity="1.0"  filling="0" d="M14.014214515686035 217.13424682617188 L14.014214515686035 217.13424682617188"></path>
<path fill="none" stroke="black" stroke-width=".3" stroke-opacity="1.0"  filling="0" d="M13.754399299621582 217.198486328125 L13.603538513183594 217.32981872558594 L13.754399299621582 217.198486328125"></path>
<path fill="none" stroke="black" stroke-width=".3" stroke-opacity="1.0"  filling="0" d="M13.494583129882812 217.2655487060547 L13.494583129882812 217.2655487060547"></path>
<path fill="none" stroke="black" stroke-width=".3" stroke-opacity="1.0"  filling="0" d="M15.215511322021484 217.68460083007812 L15.215511322021484 217.68460083007812"></path>
<path fill="none" stroke="black" stroke-width=".3" stroke-opacity="1.0"  filling="0" d="M6.219740390777588 217.8997344970703 L6.219740390777588 217.8997344970703 C6.3690409660339355 218.04791259765625 6.595179557800293 218.2420196533203 6.538226127624512 218.4445037841797 L6.48514461517334 218.5171356201172 C6.285759925842285 218.6052703857422 6.025232315063477 218.46861267089844 5.85935115814209 218.32716369628906 L5.856558322906494 218.23776245117188 C5.977619171142578 218.12509155273438 6.098679542541504 218.0124053955078 6.219740390777588 217.8997344970703 L6.219740390777588 217.8997344970703"></path>
<path fill="none" stroke="black" stroke-width=".3" stroke-opacity="1.0"  filling="0" d="M15.285354614257812 217.94161987304688 L15.24903678894043 218.13998413085938 L15.285354614257812 217.94161987304688"></path>
<path fill="none" stroke="black" stroke-width=".3" stroke-opacity="1.0"  filling="0" d="M5.197239875793457 217.9779510498047 L5.197239875793457 217.9779510498047 C5.312714099884033 218.07386779785156 5.428188800811768 218.1697998046875 5.543663024902344 218.26571655273438 L5.546455383300781 218.3551025390625 C5.015234470367432 218.85231018066406 4.679111480712891 218.50021362304688 5.197239875793457 217.9779510498047 L5.197239875793457 217.9779510498047"></path>
<path fill="none" stroke="black" stroke-width=".3" stroke-opacity="1.0"  filling="0" d="M12.555892944335938 217.9973907470703 L12.5642728805542 218.19854736328125 L12.555892944335938 217.9973907470703"></path>
<path fill="none" stroke="black" stroke-width=".3" stroke-opacity="1.0"  filling="0" d="M15.357992172241211 218.20132446289062 L15.357992172241211 218.20132446289062"></path>
<path fill="none" stroke="black" stroke-width=".3" stroke-opacity="1.0"  filling="0" d="M12.446938514709473 218.2432098388672 L12.455318450927734 218.4443817138672 L12.446938514709473 218.2432098388672"></path>
<path fill="none" stroke="black" stroke-width=".3" stroke-opacity="1.0"  filling="0" d="M15.430628776550293 218.4583740234375 L15.391517639160156 218.65670776367188 L15.430628776550293 218.4583740234375"></path>
<path fill="none" stroke="black" stroke-width=".3" stroke-opacity="1.0"  filling="0" d="M12.337984085083008 218.48907470703125 L12.337984085083008 218.48907470703125"></path>
<path fill="none" stroke="black" stroke-width=".3" stroke-opacity="1.0"  filling="0" d="M6.730990886688232 218.5868682861328 L6.823184013366699 218.76565551757812 L6.730990886688232 218.5868682861328"></path>
<path fill="none" stroke="black" stroke-width=".3" stroke-opacity="1.0"  filling="0" d="M7.5998382568359375 218.64833068847656 L7.5998382568359375 218.64833068847656 C7.842639446258545 218.89112854003906 8.213143348693848 219.19784545898438 8.130644798278809 219.53115844726562 L8.080358505249023 219.60658264160156 C7.097419261932373 220.09803771972656 6.868838787078857 219.3827362060547 7.5998382568359375 218.64833068847656 L7.5998382568359375 218.64833068847656"></path>
<path fill="none" stroke="black" stroke-width=".3" stroke-opacity="1.0"  filling="0" d="M15.503264427185059 218.71817016601562 L15.503264427185059 218.71817016601562"></path>
<path fill="none" stroke="black" stroke-width=".3" stroke-opacity="1.0"  filling="0" d="M12.229028701782227 218.73501586914062 L12.229028701782227 218.73501586914062"></path>
<path fill="none" stroke="black" stroke-width=".3" stroke-opacity="1.0"  filling="0" d="M6.946107864379883 218.74905395507812 L6.946107864379883 218.74905395507812"></path>
<path fill="none" stroke="black" stroke-width=".3" stroke-opacity="1.0"  filling="0" d="M15.573108673095703 218.97535705566406 L15.53679084777832 219.1737060546875 L15.573108673095703 218.97535705566406"></path>
<path fill="none" stroke="black" stroke-width=".3" stroke-opacity="1.0"  filling="0" d="M12.1228666305542 218.98097229003906 L12.1228666305542 218.98097229003906"></path>
<path fill="none" stroke="black" stroke-width=".3" stroke-opacity="1.0"  filling="0" d="M12.013912200927734 219.22401428222656 L12.022294044494629 219.42515563964844 L12.013912200927734 219.22401428222656"></path>
<path fill="none" stroke="black" stroke-width=".3" stroke-opacity="1.0"  filling="0" d="M15.645744323730469 219.23526000976562 L15.645744323730469 219.23526000976562"></path>
<path fill="none" stroke="black" stroke-width=".3" stroke-opacity="1.0"  filling="0" d="M11.90495777130127 219.4699249267578 L11.913338661193848 219.6710662841797 L11.90495777130127 219.4699249267578"></path>
<path fill="none" stroke="black" stroke-width=".3" stroke-opacity="1.0"  filling="0" d="M15.71838092803955 219.49227905273438 L15.679269790649414 219.6906280517578 L15.71838092803955 219.49227905273438"></path>
<path fill="none" stroke="black" stroke-width=".3" stroke-opacity="1.0"  filling="0" d="M8.287091255187988 219.62078857421875 L8.401634216308594 219.78562927246094 L8.287091255187988 219.62078857421875"></path>
<path fill="none" stroke="black" stroke-width=".3" stroke-opacity="1.0"  filling="0" d="M11.796002388000488 219.7157745361328 L11.80717658996582 219.91693115234375 L11.796002388000488 219.7157745361328"></path>
<path fill="none" stroke="black" stroke-width=".3" stroke-opacity="1.0"  filling="0" d="M8.52176570892334 219.75209045410156 L8.52176570892334 219.75209045410156"></path>
<path fill="none" stroke="black" stroke-width=".3" stroke-opacity="1.0"  filling="0" d="M15.791017532348633 219.75209045410156 L15.791017532348633 219.75209045410156"></path>
<path fill="none" stroke="black" stroke-width=".3" stroke-opacity="1.0"  filling="0" d="M8.756437301635742 219.88340759277344 L8.868185997009277 220.05101013183594 L8.756437301635742 219.88340759277344"></path>
<path fill="none" stroke="black" stroke-width=".3" stroke-opacity="1.0"  filling="0" d="M11.687047958374023 219.96160888671875 L11.687047958374023 219.96160888671875"></path>
<path fill="none" stroke="black" stroke-width=".3" stroke-opacity="1.0"  filling="0" d="M15.860861778259277 220.0091094970703 L15.860861778259277 220.0091094970703"></path>
<path fill="none" stroke="black" stroke-width=".3" stroke-opacity="1.0"  filling="0" d="M8.988316535949707 220.01473999023438 L9.102859497070312 220.18234252929688 L8.988316535949707 220.01473999023438"></path>
<path fill="none" stroke="black" stroke-width=".3" stroke-opacity="1.0"  filling="0" d="M9.22298812866211 220.14602661132812 L9.334737777709961 220.31365966796875 L9.22298812866211 220.14602661132812"></path>
<path fill="none" stroke="black" stroke-width=".3" stroke-opacity="1.0"  filling="0" d="M11.580885887145996 220.20748901367188 L11.580885887145996 220.20748901367188"></path>
<path fill="none" stroke="black" stroke-width=".3" stroke-opacity="1.0"  filling="0" d="M15.93349838256836 220.26895141601562 L15.93349838256836 220.26895141601562"></path>
<path fill="none" stroke="black" stroke-width=".3" stroke-opacity="1.0"  filling="0" d="M9.457660675048828 220.2773895263672 L9.56941032409668 220.4449920654297 L9.457660675048828 220.2773895263672"></path>
<path fill="none" stroke="black" stroke-width=".3" stroke-opacity="1.0"  filling="0" d="M9.68953800201416 220.41148376464844 L9.804080963134766 220.57630920410156 L9.68953800201416 220.41148376464844"></path>
<path fill="none" stroke="black" stroke-width=".3" stroke-opacity="1.0"  filling="0" d="M11.471931457519531 220.45338439941406 L11.471931457519531 220.45338439941406"></path>
<path fill="none" stroke="black" stroke-width=".3" stroke-opacity="1.0"  filling="0" d="M16.006135940551758 220.52601623535156 L16.006135940551758 220.52601623535156"></path>
<path fill="none" stroke="black" stroke-width=".3" stroke-opacity="1.0"  filling="0" d="M9.924212455749512 220.54287719726562 L9.924212455749512 220.54287719726562"></path>
<path fill="none" stroke="black" stroke-width=".3" stroke-opacity="1.0"  filling="0" d="M10.158884048461914 220.6741943359375 L10.158884048461914 220.6741943359375"></path>
<path fill="none" stroke="black" stroke-width=".3" stroke-opacity="1.0"  filling="0" d="M11.362977027893066 220.69651794433594 L11.379738807678223 220.88648986816406 C11.929821968078613 221.8543701171875 10.552620887756348 221.90145874023438 10.728800773620605 221.0960235595703 L10.770707130432129 221.01779174804688 C10.933847427368164 220.9325714111328 11.114373207092285 220.81712341308594 11.295926094055176 220.84738159179688 L11.362977027893066 220.69651794433594"></path>
<path fill="none" stroke="black" stroke-width=".3" stroke-opacity="1.0"  filling="0" d="M16.07876968383789 220.78591918945312 L16.07876968383789 220.78591918945312"></path>
<path fill="none" stroke="black" stroke-width=".3" stroke-opacity="1.0"  filling="0" d="M10.390763282775879 220.80557250976562 L10.505303382873535 220.9704132080078 L10.390763282775879 220.80557250976562"></path>
<path fill="none" stroke="black" stroke-width=".3" stroke-opacity="1.0"  filling="0" d="M16.14861488342285 221.0430450439453 L16.14861488342285 221.0430450439453"></path>
<path fill="none" stroke="black" stroke-width=".3" stroke-opacity="1.0"  filling="0" d="M16.221250534057617 221.30287170410156 L16.221250534057617 221.30287170410156"></path>
<path fill="none" stroke="black" stroke-width=".3" stroke-opacity="1.0"  filling="0" d="M16.293888092041016 221.55987548828125 L16.293888092041016 221.55987548828125"></path>
<path fill="none" stroke="black" stroke-width=".3" stroke-opacity="1.0"  filling="0" d="M16.36652374267578 221.81968688964844 L16.36652374267578 221.81968688964844"></path>
<path fill="none" stroke="black" stroke-width=".3" stroke-opacity="1.0"  filling="0" d="M16.436368942260742 222.0767059326172 L16.436368942260742 222.0767059326172"></path>
<path fill="none" stroke="black" stroke-width=".3" stroke-opacity="1.0"  filling="0" d="M16.509002685546875 222.33651733398438 L16.48944664001465 222.52658081054688 C17.254417419433594 222.4391326904297 17.22360610961914 223.10604858398438 17.05657196044922 223.53225708007812 L16.98952293395996 223.59368896484375 C16.025550842285156 223.93653869628906 15.965757369995117 223.1698760986328 16.469892501831055 222.5321044921875 L16.509002685546875 222.33653259277344"></path>
<path fill="none" stroke="black" stroke-width=".3" stroke-opacity="1.0"  filling="0" d="M16.10950469970703 223.49591064453125 L16.031278610229492 223.68031311035156 L16.10950469970703 223.49591064453125"></path>
<path fill="none" stroke="black" stroke-width=".3" stroke-opacity="1.0"  filling="0" d="M15.905560493469238 223.66912841796875 L15.905560493469238 223.66912841796875"></path>
<path fill="none" stroke="black" stroke-width=".3" stroke-opacity="1.0"  filling="0" d="M17.21022605895996 223.73338317871094 L17.246543884277344 223.93174743652344 L17.21022605895996 223.73338317871094"></path>
<path fill="none" stroke="black" stroke-width=".3" stroke-opacity="1.0"  filling="0" d="M15.698826789855957 223.83953857421875 L15.61780834197998 224.02394104003906 L15.698826789855957 223.83953857421875"></path>
<path fill="none" stroke="black" stroke-width=".3" stroke-opacity="1.0"  filling="0" d="M17.369468688964844 223.948486328125 L17.436519622802734 224.03790283203125 C19.234500885009766 223.6506805419922 16.403654098510742 225.91302490234375 17.361087799072266 224.08261108398438 L17.369468688964844 223.948486328125"></path>
<path fill="none" stroke="black" stroke-width=".3" stroke-opacity="1.0"  filling="0" d="M15.49209213256836 224.00997924804688 L15.41386604309082 224.19435119628906 L15.49209213256836 224.00997924804688"></path>
<path fill="none" stroke="black" stroke-width=".3" stroke-opacity="1.0"  filling="0" d="M15.285354614257812 224.1831817626953 L15.285354614257812 224.1831817626953"></path>
<path fill="none" stroke="black" stroke-width=".3" stroke-opacity="1.0"  filling="0" d="M15.081414222717285 224.3535919189453 L15.000396728515625 224.53797912597656 L15.081414222717285 224.3535919189453"></path>
<path fill="none" stroke="black" stroke-width=".3" stroke-opacity="1.0"  filling="0" d="M14.874679565429688 224.5268096923828 L14.874679565429688 224.5268096923828"></path>
<path fill="none" stroke="black" stroke-width=".3" stroke-opacity="1.0"  filling="0" d="M14.667943000793457 224.6972198486328 L14.5897216796875 224.88162231445312 L14.667943000793457 224.6972198486328"></path>
<path fill="none" stroke="black" stroke-width=".3" stroke-opacity="1.0"  filling="0" d="M14.461209297180176 224.8704376220703 L14.461209297180176 224.8704376220703"></path>
<path fill="none" stroke="black" stroke-width=".3" stroke-opacity="1.0"  filling="0" d="M14.2572660446167 225.0408477783203 L14.176248550415039 225.22523498535156 L14.2572660446167 225.0408477783203"></path>
<path fill="none" stroke="black" stroke-width=".3" stroke-opacity="1.0"  filling="0" d="M14.050533294677734 225.21405029296875 L14.050533294677734 225.21405029296875"></path>
<path fill="none" stroke="black" stroke-width=".3" stroke-opacity="1.0"  filling="0" d="M13.84379768371582 225.38449096679688 L13.765573501586914 225.56886291503906 L13.84379768371582 225.38449096679688"></path>
<path fill="none" stroke="black" stroke-width=".3" stroke-opacity="1.0"  filling="0" d="M13.637060165405273 225.55770874023438 L13.637060165405273 225.55770874023438"></path>
<path fill="none" stroke="black" stroke-width=".3" stroke-opacity="1.0"  filling="0" d="M13.433120727539062 225.72811889648438 L13.352104187011719 225.91249084472656 L13.433120727539062 225.72811889648438"></path>
<path fill="none" stroke="black" stroke-width=".3" stroke-opacity="1.0"  filling="0" d="M13.226385116577148 225.89852905273438 L13.145367622375488 226.08290100097656 L13.226385116577148 225.89852905273438"></path>
<path fill="none" stroke="black" stroke-width=".3" stroke-opacity="1.0"  filling="0" d="M13.019651412963867 226.0717315673828 L13.019651412963867 226.0717315673828"></path>
<path fill="none" stroke="black" stroke-width=".3" stroke-opacity="1.0"  filling="0" d="M12.812915802001953 226.24217224121094 L12.73469066619873 226.42652893066406 L12.812915802001953 226.24217224121094"></path>
<path fill="none" stroke="black" stroke-width=".3" stroke-opacity="1.0"  filling="0" d="M12.60897445678711 226.41537475585938 L12.60897445678711 226.41537475585938"></path>
<path fill="none" stroke="black" stroke-width=".3" stroke-opacity="1.0"  filling="0" d="M12.402239799499512 226.58578491210938 L12.321222305297852 226.77017211914062 L12.402239799499512 226.58578491210938"></path>
<path fill="none" stroke="black" stroke-width=".3" stroke-opacity="1.0"  filling="0" d="M12.195503234863281 226.7589874267578 L12.195503234863281 226.7589874267578"></path>
<path fill="none" stroke="black" stroke-width=".3" stroke-opacity="1.0"  filling="0" d="M11.988767623901367 226.9293975830078 L11.910545349121094 227.11378479003906 L11.988767623901367 226.9293975830078"></path>
<path fill="none" stroke="black" stroke-width=".3" stroke-opacity="1.0"  filling="0" d="M11.089192390441895 227.09422302246094 L11.089192390441895 227.09422302246094 C11.240052223205566 227.1640625 11.390913009643555 227.23391723632812 11.541772842407227 227.3037567138672 L11.592060089111328 227.37916564941406 C11.89035415649414 228.437744140625 9.724918365478516 228.46499633789062 11.089192390441895 227.09422302246094 L11.089192390441895 227.09422302246094"></path>
<path fill="none" stroke="black" stroke-width=".3" stroke-opacity="1.0"  filling="0" d="M11.78482723236084 227.1026611328125 L11.78482723236084 227.1026611328125"></path></svg>