<svg xmlns="http://www.w3.org/2000/svg" viewBox="0.0 0.0 24.0 24.0" height="200px" width="200px"><path fill="none" stroke="black" stroke-width=".3" stroke-opacity="1.0"  filling="0" d="M16.161998748779297 207.95176696777344 L16.161998748779297 207.95176696777344 C16.375028610229492 208.164794921875 16.600696563720703 208.5261688232422 16.47461700439453 208.79978942871094 L16.488988876342773 209.02976989746094 L16.37759780883789 208.86087036132812 C16.191143035888672 208.90748596191406 15.985855102539062 208.8374786376953 15.809859275817871 208.76025390625 L15.74158763885498 208.66683959960938 C15.671626091003418 208.3993377685547 15.966485023498535 208.14727783203125 16.161998748779297 207.95176696777344 L16.161998748779297 207.95176696777344"></path>
<path fill="none" stroke="black" stroke-width=".3" stroke-opacity="1.0"  filling="0" d="M15.594263076782227 208.76025390625 L15.464905738830566 208.98304748535156 L15.594263076782227 208.76025390625"></path>
<path fill="none" stroke="black" stroke-width=".3" stroke-opacity="1.0"  filling="0" d="M15.30679988861084 208.95071411132812 L15.173849105834961 209.17349243164062 L15.30679988861084 208.95071411132812"></path>
<path fill="none" stroke="black" stroke-width=".3" stroke-opacity="1.0"  filling="0" d="M16.647092819213867 209.06210327148438 L16.679431915283203 209.3172149658203 L16.647092819213867 209.06210327148438"></path>
<path fill="none" stroke="black" stroke-width=".3" stroke-opacity="1.0"  filling="0" d="M15.015746116638184 209.1375732421875 L14.886387825012207 209.36033630371094 L15.015746116638184 209.1375732421875"></path>
<path fill="none" stroke="black" stroke-width=".3" stroke-opacity="1.0"  filling="0" d="M14.728282928466797 209.32440185546875 L14.59892463684082 209.5471954345703 L14.728282928466797 209.32440185546875"></path>
<path fill="none" stroke="black" stroke-width=".3" stroke-opacity="1.0"  filling="0" d="M16.841129302978516 209.34954833984375 L16.873470306396484 209.60467529296875 L16.841129302978516 209.34954833984375"></path>
<path fill="none" stroke="black" stroke-width=".3" stroke-opacity="1.0"  filling="0" d="M14.437227249145508 209.5148468017578 L14.307868957519531 209.7376251220703 L14.437227249145508 209.5148468017578"></path>
<path fill="none" stroke="black" stroke-width=".3" stroke-opacity="1.0"  filling="0" d="M17.031574249267578 209.6334228515625 L17.063915252685547 209.8885498046875 L17.031574249267578 209.6334228515625"></path>
<path fill="none" stroke="black" stroke-width=".3" stroke-opacity="1.0"  filling="0" d="M14.149765014648438 209.7017059326172 L14.020407676696777 209.9244842529297 L14.149765014648438 209.7017059326172"></path>
<path fill="none" stroke="black" stroke-width=".3" stroke-opacity="1.0"  filling="0" d="M13.858709335327148 209.8921356201172 L13.729351997375488 210.111328125 L13.858709335327148 209.8921356201172"></path>
<path fill="none" stroke="black" stroke-width=".3" stroke-opacity="1.0"  filling="0" d="M17.222017288208008 209.9208984375 L17.254356384277344 210.17601013183594 L17.222017288208008 209.9208984375"></path>
<path fill="none" stroke="black" stroke-width=".3" stroke-opacity="1.0"  filling="0" d="M13.571248054504395 210.0789794921875 L13.441890716552734 210.30177307128906 L13.571248054504395 210.0789794921875"></path>
<path fill="none" stroke="black" stroke-width=".3" stroke-opacity="1.0"  filling="0" d="M17.416053771972656 210.20834350585938 L17.448394775390625 210.46348571777344 L17.416053771972656 210.20834350585938"></path>
<path fill="none" stroke="black" stroke-width=".3" stroke-opacity="1.0"  filling="0" d="M13.280193328857422 210.26583862304688 L13.150835037231445 210.48863220214844 L13.280193328857422 210.26583862304688"></path>
<path fill="none" stroke="black" stroke-width=".3" stroke-opacity="1.0"  filling="0" d="M12.992730140686035 210.456298828125 L12.863370895385742 210.6754913330078 L12.992730140686035 210.456298828125"></path>
<path fill="none" stroke="black" stroke-width=".3" stroke-opacity="1.0"  filling="0" d="M17.60649871826172 210.49581909179688 L17.638837814331055 210.7509307861328 L17.60649871826172 210.49581909179688"></path>
<path fill="none" stroke="black" stroke-width=".3" stroke-opacity="1.0"  filling="0" d="M12.15908145904541 210.5784454345703 L12.15908145904541 210.5784454345703 C12.282450675964355 210.6371307373047 12.405818939208984 210.69583129882812 12.52918815612793 210.7545166015625 L12.701664924621582 210.64312744140625 L12.593868255615234 210.85153198242188 C12.77248764038086 211.64849853515625 12.114551544189453 211.5116424560547 11.699142456054688 211.20008850097656 L11.681175231933594 211.08511352539062 C11.648420333862305 210.8552703857422 11.994924545288086 210.7426300048828 12.159090995788574 210.57846069335938 L12.159090995788574 210.57846069335938"></path>
<path fill="none" stroke="black" stroke-width=".3" stroke-opacity="1.0"  filling="0" d="M2.252429962158203 210.60000610351562 L2.252429962158203 210.60000610351562 C2.4624879360198975 210.81007385253906 2.8442978858947754 210.99415588378906 2.8165740966796875 211.28993225097656 L3.01419734954834 211.41929626464844 L2.7842283248901367 211.38336181640625 C2.6285197734832764 211.50433349609375 2.472810983657837 211.6253204345703 2.3171024322509766 211.7462921142578 L2.2021169662475586 211.74627685546875 C2.0272443294525146 211.5558319091797 1.6661626100540161 211.43324279785156 1.6774988174438477 211.17494201660156 C1.6893818378448486 210.9041748046875 2.060781717300415 210.79165649414062 2.2524232864379883 210.60000610351562 L2.2524232864379883 210.60000610351562"></path>
<path fill="none" stroke="black" stroke-width=".3" stroke-opacity="1.0"  filling="0" d="M17.79694366455078 210.78326416015625 L17.829280853271484 211.03839111328125 L17.79694366455078 210.78326416015625"></path>
<path fill="none" stroke="black" stroke-width=".3" stroke-opacity="1.0"  filling="0" d="M17.990978240966797 211.07073974609375 L18.023319244384766 211.3258514404297 L17.990978240966797 211.07073974609375"></path>
<path fill="none" stroke="black" stroke-width=".3" stroke-opacity="1.0"  filling="0" d="M11.526673316955566 211.12823486328125 L11.336230278015137 211.3007049560547 L11.526673316955566 211.12823486328125"></path>
<path fill="none" stroke="black" stroke-width=".3" stroke-opacity="1.0"  filling="0" d="M11.196090698242188 211.2180633544922 L11.005647659301758 211.39053344726562 L11.196090698242188 211.2180633544922"></path>
<path fill="none" stroke="black" stroke-width=".3" stroke-opacity="1.0"  filling="0" d="M9.241333961486816 211.25758361816406 L9.241333961486816 211.25758361816406 C9.411416053771973 211.3773651123047 9.581498146057129 211.4971466064453 9.751580238342285 211.61692810058594 L9.780327796936035 211.72830200195312 C9.798091888427734 211.9058074951172 9.657795906066895 212.06410217285156 9.579108238220215 212.2241973876953 L9.485684394836426 212.28526306152344 C9.45334529876709 212.2972412109375 9.421005249023438 212.30921936035156 9.388666152954102 212.32119750976562 L9.273679733276367 212.33917236328125 C9.01662540435791 212.36767578125 8.884690284729004 211.9979248046875 8.698758125305176 211.81814575195312 L8.709542274475098 211.70315551757812 C8.886810302734375 211.55462646484375 9.064078330993652 211.40611267089844 9.24134635925293 211.25758361816406 L9.24134635925293 211.25758361816406"></path>
<path fill="none" stroke="black" stroke-width=".3" stroke-opacity="1.0"  filling="0" d="M3.136366844177246 211.31149291992188 L3.359145164489746 211.44444274902344 L3.136368751525879 211.31149291992188"></path>
<path fill="none" stroke="black" stroke-width=".3" stroke-opacity="1.0"  filling="0" d="M10.861915588378906 211.31149291992188 L10.671472549438477 211.48397827148438 L10.861915588378906 211.31149291992188"></path>
<path fill="none" stroke="black" stroke-width=".3" stroke-opacity="1.0"  filling="0" d="M3.4813232421875 211.33663940429688 L3.7041015625 211.4659881591797 L3.4813232421875 211.33663940429688"></path>
<path fill="none" stroke="black" stroke-width=".3" stroke-opacity="1.0"  filling="0" d="M18.18142318725586 211.3582000732422 L18.213762283325195 211.6133270263672 L18.18142318725586 211.3582000732422"></path>
<path fill="none" stroke="black" stroke-width=".3" stroke-opacity="1.0"  filling="0" d="M3.826279640197754 211.3617706298828 L4.045469284057617 211.4911346435547 L3.826279640197754 211.3617706298828"></path>
<path fill="none" stroke="black" stroke-width=".3" stroke-opacity="1.0"  filling="0" d="M4.167639255523682 211.38694763183594 L4.390417098999023 211.5162811279297 L4.167639255523682 211.38693237304688"></path>
<path fill="none" stroke="black" stroke-width=".3" stroke-opacity="1.0"  filling="0" d="M10.531333923339844 211.40130615234375 L10.337296485900879 211.5737762451172 L10.531333923339844 211.40130615234375"></path>
<path fill="none" stroke="black" stroke-width=".3" stroke-opacity="1.0"  filling="0" d="M4.512593746185303 211.4084930419922 L4.7353715896606445 211.54144287109375 L4.512593746185303 211.4084930419922"></path>
<path fill="none" stroke="black" stroke-width=".3" stroke-opacity="1.0"  filling="0" d="M4.857549667358398 211.4336395263672 L5.080325603485107 211.56298828125 L4.857549667358398 211.4336395263672"></path>
<path fill="none" stroke="black" stroke-width=".3" stroke-opacity="1.0"  filling="0" d="M5.2024970054626465 211.45880126953125 L5.421687602996826 211.588134765625 L5.2025041580200195 211.45880126953125"></path>
<path fill="none" stroke="black" stroke-width=".3" stroke-opacity="1.0"  filling="0" d="M5.547464370727539 211.4803466796875 L5.766648769378662 211.61331176757812 L5.547458171844482 211.4803466796875"></path>
<path fill="none" stroke="black" stroke-width=".3" stroke-opacity="1.0"  filling="0" d="M10.197159767150879 211.49472045898438 L10.006714820861816 211.66360473632812 L10.197159767150879 211.49472045898438"></path>
<path fill="none" stroke="black" stroke-width=".3" stroke-opacity="1.0"  filling="0" d="M5.888820171356201 211.50547790527344 L6.11159610748291 211.63485717773438 L5.888820171356201 211.5054931640625"></path>
<path fill="none" stroke="black" stroke-width=".3" stroke-opacity="1.0"  filling="0" d="M6.233773708343506 211.53065490722656 L6.456552505493164 211.66000366210938 L6.233773708343506 211.53065490722656"></path>
<path fill="none" stroke="black" stroke-width=".3" stroke-opacity="1.0"  filling="0" d="M6.578719615936279 211.55581665039062 L6.79791259765625 211.68516540527344 L6.578728675842285 211.55581665039062"></path>
<path fill="none" stroke="black" stroke-width=".3" stroke-opacity="1.0"  filling="0" d="M6.923691272735596 211.57736206054688 L7.142874717712402 211.71031188964844 L6.923684597015381 211.57736206054688"></path>
<path fill="none" stroke="black" stroke-width=".3" stroke-opacity="1.0"  filling="0" d="M7.265044689178467 211.60250854492188 L7.487822532653809 211.7318572998047 L7.265044689178467 211.60250854492188"></path>
<path fill="none" stroke="black" stroke-width=".3" stroke-opacity="1.0"  filling="0" d="M7.610003471374512 211.62767028808594 L7.8327789306640625 211.7570037841797 L7.6100006103515625 211.62767028808594"></path>
<path fill="none" stroke="black" stroke-width=".3" stroke-opacity="1.0"  filling="0" d="M18.37186622619629 211.6420440673828 L18.404205322265625 211.89715576171875 L18.37186622619629 211.6420440673828"></path>
<path fill="none" stroke="black" stroke-width=".3" stroke-opacity="1.0"  filling="0" d="M7.954948902130127 211.6492156982422 L8.174139022827148 211.7821807861328 L7.954955101013184 211.6492156982422"></path>
<path fill="none" stroke="black" stroke-width=".3" stroke-opacity="1.0"  filling="0" d="M8.299917221069336 211.6743621826172 L8.5191011428833 211.8037109375 L8.299909591674805 211.67437744140625"></path>
<path fill="none" stroke="black" stroke-width=".3" stroke-opacity="1.0"  filling="0" d="M2.3242788314819336 211.91871643066406 L2.3278636932373047 212.098388671875 C2.3367841243743896 212.1073760986328 3.495640754699707 212.98233032226562 2.320685386657715 212.98233032226562 L2.1949234008789062 213.17996215820312 L2.2057008743286133 212.96435546875 C2.0335474014282227 212.73863220214844 2.0392563343048096 212.33734130859375 2.212888717651367 212.11276245117188 L2.3242883682250977 211.91871643066406"></path>
<path fill="none" stroke="black" stroke-width=".3" stroke-opacity="1.0"  filling="0" d="M18.565902709960938 211.92950439453125 L18.594650268554688 212.18463134765625 L18.565902709960938 211.92950439453125"></path>
<path fill="none" stroke="black" stroke-width=".3" stroke-opacity="1.0"  filling="0" d="M18.75634765625 212.2169647216797 L18.788686752319336 212.47207641601562 L18.75634765625 212.2169647216797"></path>
<path fill="none" stroke="black" stroke-width=".3" stroke-opacity="1.0"  filling="0" d="M9.697694778442383 212.43255615234375 L9.712066650390625 212.68768310546875 L9.697694778442383 212.43255615234375"></path>
<path fill="none" stroke="black" stroke-width=".3" stroke-opacity="1.0"  filling="0" d="M9.395858764648438 212.44692993164062 L9.298843383789062 212.6876678466797 L9.395858764648438 212.44692993164062"></path>
<path fill="none" stroke="black" stroke-width=".3" stroke-opacity="1.0"  filling="0" d="M18.94679069519043 212.50440979003906 L18.979129791259766 212.75953674316406 L18.94679069519043 212.50440979003906"></path>
<path fill="none" stroke="black" stroke-width=".3" stroke-opacity="1.0"  filling="0" d="M9.870170593261719 212.73080444335938 L9.88454532623291 212.98951721191406 L9.870170593261719 212.73080444335938"></path>
<path fill="none" stroke="black" stroke-width=".3" stroke-opacity="1.0"  filling="0" d="M9.421031951904297 212.79188537597656 L9.320411682128906 213.029052734375 L9.421010971069336 212.79188537597656"></path>
<path fill="none" stroke="black" stroke-width=".3" stroke-opacity="1.0"  filling="0" d="M19.137237548828125 212.79188537597656 L19.16957664489746 213.0469970703125 L19.137237548828125 212.79188537597656"></path>
<path fill="none" stroke="black" stroke-width=".3" stroke-opacity="1.0"  filling="0" d="M10.039055824279785 213.0326385498047 L10.05342960357666 213.28775024414062 L10.039055824279785 213.0326385498047"></path>
<path fill="none" stroke="black" stroke-width=".3" stroke-opacity="1.0"  filling="0" d="M19.52890968322754 213.06138610839844 L19.52890968322754 213.06138610839844 C20.65315055847168 214.1856231689453 18.717151641845703 214.20098876953125 19.245040893554688 213.15481567382812 L19.345645904541016 213.1009063720703 C19.40673065185547 213.0877227783203 19.467815399169922 213.07455444335938 19.528900146484375 213.06137084960938 L19.528900146484375 213.06137084960938"></path>
<path fill="none" stroke="black" stroke-width=".3" stroke-opacity="1.0"  filling="0" d="M9.446165084838867 213.1368408203125 L9.34554386138916 213.37399291992188 L9.446165084838867 213.1368408203125"></path>
<path fill="none" stroke="black" stroke-width=".3" stroke-opacity="1.0"  filling="0" d="M2.187747001647949 213.29493713378906 L2.2919511795043945 213.5321044921875 L2.1877450942993164 213.29493713378906"></path>
<path fill="none" stroke="black" stroke-width=".3" stroke-opacity="1.0"  filling="0" d="M10.211532592773438 213.33087158203125 L10.222312927246094 213.58599853515625 L10.211532592773438 213.33087158203125"></path>
<path fill="none" stroke="black" stroke-width=".3" stroke-opacity="1.0"  filling="0" d="M9.46772575378418 213.48178100585938 L9.370711326599121 213.7189483642578 L9.467723846435547 213.48178100585938"></path>
<path fill="none" stroke="black" stroke-width=".3" stroke-opacity="1.0"  filling="0" d="M10.380416870117188 213.6291046142578 L10.394789695739746 213.8878173828125 L10.380416870117188 213.6291046142578"></path>
<path fill="none" stroke="black" stroke-width=".3" stroke-opacity="1.0"  filling="0" d="M2.1697769165039062 213.63987731933594 L2.273983955383301 213.8734588623047 L2.1697769165039062 213.639892578125"></path>
<path fill="none" stroke="black" stroke-width=".3" stroke-opacity="1.0"  filling="0" d="M9.492877006530762 213.82315063476562 L9.395862579345703 214.06390380859375 L9.492877006530762 213.82313537597656"></path>
<path fill="none" stroke="black" stroke-width=".3" stroke-opacity="1.0"  filling="0" d="M10.552894592285156 213.93093872070312 L10.56367301940918 214.1860809326172 L10.552894592285156 213.93093872070312"></path>
<path fill="none" stroke="black" stroke-width=".3" stroke-opacity="1.0"  filling="0" d="M2.155406951904297 213.98484802246094 L2.2596120834350586 214.21839904785156 L2.155405044555664 213.98484802246094"></path>
<path fill="none" stroke="black" stroke-width=".3" stroke-opacity="1.0"  filling="0" d="M10.728964805603027 214.1537322998047 L10.915816307067871 214.32980346679688 L10.728964805603027 214.1537322998047"></path>
<path fill="none" stroke="black" stroke-width=".3" stroke-opacity="1.0"  filling="0" d="M9.518030166625977 214.1680908203125 L9.417409896850586 214.40525817871094 L9.518030166625977 214.1680908203125"></path>
<path fill="none" stroke="black" stroke-width=".3" stroke-opacity="1.0"  filling="0" d="M11.05954647064209 214.25433349609375 L11.246397972106934 214.43399047851562 L11.05954647064209 214.25433349609375"></path>
<path fill="none" stroke="black" stroke-width=".3" stroke-opacity="1.0"  filling="0" d="M2.1374378204345703 214.3297882080078 L2.241644859313965 214.56333923339844 L2.1374378204345703 214.3297882080078"></path>
<path fill="none" stroke="black" stroke-width=".3" stroke-opacity="1.0"  filling="0" d="M11.390127182006836 214.35855102539062 L11.573384284973145 214.5346221923828 L11.390127182006836 214.35855102539062"></path>
<path fill="none" stroke="black" stroke-width=".3" stroke-opacity="1.0"  filling="0" d="M11.71711540222168 214.4591522216797 L11.903966903686523 214.63522338867188 L11.71711540222168 214.4591522216797"></path>
<path fill="none" stroke="black" stroke-width=".3" stroke-opacity="1.0"  filling="0" d="M9.543184280395508 214.5130615234375 L9.442561149597168 214.75021362304688 L9.543184280395508 214.5130615234375"></path>
<path fill="none" stroke="black" stroke-width=".3" stroke-opacity="1.0"  filling="0" d="M12.047697067260742 214.55975341796875 L12.23454761505127 214.7394256591797 L12.047697067260742 214.55975341796875"></path>
<path fill="none" stroke="black" stroke-width=".3" stroke-opacity="1.0"  filling="0" d="M12.378277778625488 214.66397094726562 L12.56153678894043 214.8400421142578 L12.378277778625488 214.66397094726562"></path>
<path fill="none" stroke="black" stroke-width=".3" stroke-opacity="1.0"  filling="0" d="M2.1194705963134766 214.67474365234375 L2.2236785888671875 214.90829467773438 L2.1194705963134766 214.67474365234375"></path>
<path fill="none" stroke="black" stroke-width=".3" stroke-opacity="1.0"  filling="0" d="M12.705267906188965 214.76458740234375 L12.892119407653809 214.94065856933594 L12.705267906188965 214.76458740234375"></path>
<path fill="none" stroke="black" stroke-width=".3" stroke-opacity="1.0"  filling="0" d="M9.564742088317871 214.85800170898438 L9.467728614807129 215.0951690673828 L9.564742088317871 214.85800170898438"></path>
<path fill="none" stroke="black" stroke-width=".3" stroke-opacity="1.0"  filling="0" d="M13.035849571228027 214.86520385742188 L13.222700119018555 215.04486083984375 L13.035849571228027 214.86520385742188"></path>
<path fill="none" stroke="black" stroke-width=".3" stroke-opacity="1.0"  filling="0" d="M13.366430282592773 214.96580505371094 L13.553281784057617 215.1454620361328 L13.366430282592773 214.96580505371094"></path>
<path fill="none" stroke="black" stroke-width=".3" stroke-opacity="1.0"  filling="0" d="M2.1050987243652344 215.0197296142578 L2.209305763244629 215.25326538085938 L2.1050987243652344 215.0196990966797"></path>
<path fill="none" stroke="black" stroke-width=".3" stroke-opacity="1.0"  filling="0" d="M13.697012901306152 215.07000732421875 L13.880269050598145 215.24607849121094 L13.697012901306152 215.07000732421875"></path>
<path fill="none" stroke="black" stroke-width=".3" stroke-opacity="1.0"  filling="0" d="M14.023999214172363 215.17062377929688 L14.210850715637207 215.34669494628906 L14.023999214172363 215.17062377929688"></path>
<path fill="none" stroke="black" stroke-width=".3" stroke-opacity="1.0"  filling="0" d="M9.589895248413086 215.20297241210938 L9.492881774902344 215.44012451171875 L9.589895248413086 215.20297241210938"></path>
<path fill="none" stroke="black" stroke-width=".3" stroke-opacity="1.0"  filling="0" d="M14.354580879211426 215.271240234375 L14.54143238067627 215.45089721679688 L14.354580879211426 215.271240234375"></path>
<path fill="none" stroke="black" stroke-width=".3" stroke-opacity="1.0"  filling="0" d="M2.0871315002441406 215.36106872558594 L2.1913394927978516 215.59823608398438 L2.0871315002441406 215.36106872558594"></path>
<path fill="none" stroke="black" stroke-width=".3" stroke-opacity="1.0"  filling="0" d="M14.685162544250488 215.3754425048828 L14.872013092041016 215.55149841308594 L14.685162544250488 215.3754425048828"></path>
<path fill="none" stroke="black" stroke-width=".3" stroke-opacity="1.0"  filling="0" d="M15.015746116638184 215.47604370117188 L15.199002265930176 215.65211486816406 L15.015746116638184 215.47604370117188"></path>
<path fill="none" stroke="black" stroke-width=".3" stroke-opacity="1.0"  filling="0" d="M9.6150484085083 215.54437255859375 L9.514427185058594 215.78146362304688 L9.6150484085083 215.5443115234375"></path>
<path fill="none" stroke="black" stroke-width=".3" stroke-opacity="1.0"  filling="0" d="M15.342732429504395 215.57666015625 L15.529584884643555 215.75631713867188 L15.342732429504395 215.57666015625"></path>
<path fill="none" stroke="black" stroke-width=".3" stroke-opacity="1.0"  filling="0" d="M15.673315048217773 215.6808624267578 L15.860166549682617 215.85694885253906 L15.673315048217773 215.6808624267578"></path>
<path fill="none" stroke="black" stroke-width=".3" stroke-opacity="1.0"  filling="0" d="M2.0691633224487305 215.70602416992188 L2.173370361328125 215.943115234375 L2.069164276123047 215.70602416992188"></path>
<path fill="none" stroke="black" stroke-width=".3" stroke-opacity="1.0"  filling="0" d="M16.003896713256836 215.78146362304688 L16.19074821472168 215.95753479003906 L16.003896713256836 215.78146362304688"></path>
<path fill="none" stroke="black" stroke-width=".3" stroke-opacity="1.0"  filling="0" d="M16.3344783782959 215.882080078125 L16.51773452758789 216.06173706054688 L16.3344783782959 215.882080078125"></path>
<path fill="none" stroke="black" stroke-width=".3" stroke-opacity="1.0"  filling="0" d="M9.640201568603516 215.88922119140625 L9.539581298828125 216.1262969970703 L9.640201568603516 215.88922119140625"></path>
<path fill="none" stroke="black" stroke-width=".3" stroke-opacity="1.0"  filling="0" d="M16.661468505859375 215.98263549804688 L16.848316192626953 216.16229248046875 L16.661468505859375 215.98263549804688"></path>
<path fill="none" stroke="black" stroke-width=".3" stroke-opacity="1.0"  filling="0" d="M2.0547895431518555 216.0509033203125 L2.1589975357055664 216.2880096435547 L2.0547924041748047 216.0509033203125"></path>
<path fill="none" stroke="black" stroke-width=".3" stroke-opacity="1.0"  filling="0" d="M16.992048263549805 216.08685302734375 L17.178897857666016 216.26290893554688 L16.992048263549805 216.08685302734375"></path>
<path fill="none" stroke="black" stroke-width=".3" stroke-opacity="1.0"  filling="0" d="M17.322629928588867 216.18746948242188 L17.505887985229492 216.363525390625 L17.322629928588867 216.18746948242188"></path>
<path fill="none" stroke="black" stroke-width=".3" stroke-opacity="1.0"  filling="0" d="M9.661761283874512 216.23416137695312 L9.564746856689453 216.47125244140625 L9.661761283874512 216.23416137695312"></path>
<path fill="none" stroke="black" stroke-width=".3" stroke-opacity="1.0"  filling="0" d="M17.64961814880371 216.28807067871094 L17.836469650268555 216.4677276611328 L17.64961814880371 216.28807067871094"></path>
<path fill="none" stroke="black" stroke-width=".3" stroke-opacity="1.0"  filling="0" d="M17.980199813842773 216.39227294921875 L18.167051315307617 216.56832885742188 L17.980199813842773 216.39227294921875"></path>
<path fill="none" stroke="black" stroke-width=".3" stroke-opacity="1.0"  filling="0" d="M2.036823272705078 216.39593505859375 L2.1410303115844727 216.63304138183594 L2.036825180053711 216.39593505859375"></path>
<path fill="none" stroke="black" stroke-width=".3" stroke-opacity="1.0"  filling="0" d="M18.310779571533203 216.4929656982422 L18.497631072998047 216.66903686523438 L18.310779571533203 216.4929656982422"></path>
<path fill="none" stroke="black" stroke-width=".3" stroke-opacity="1.0"  filling="0" d="M9.68691349029541 216.57913208007812 L9.589900016784668 216.81629943847656 L9.68691349029541 216.57919311523438"></path>
<path fill="none" stroke="black" stroke-width=".3" stroke-opacity="1.0"  filling="0" d="M18.641361236572266 216.59365844726562 L18.82461929321289 216.77334594726562 L18.641361236572266 216.59365844726562"></path>
<path fill="none" stroke="black" stroke-width=".3" stroke-opacity="1.0"  filling="0" d="M18.968351364135742 216.69786071777344 L19.155200958251953 216.8739471435547 L18.968351364135742 216.69786071777344"></path>
<path fill="none" stroke="black" stroke-width=".3" stroke-opacity="1.0"  filling="0" d="M2.018862724304199 216.7411346435547 L2.123067855834961 216.97463989257812 L2.0188608169555664 216.74099731445312"></path>
<path fill="none" stroke="black" stroke-width=".3" stroke-opacity="1.0"  filling="0" d="M19.298933029174805 216.79849243164062 L19.485782623291016 216.9745635986328 L19.298933029174805 216.79849243164062"></path>
<path fill="none" stroke="black" stroke-width=".3" stroke-opacity="1.0"  filling="0" d="M19.6295166015625 216.8990936279297 L19.816364288330078 217.07876586914062 L19.6295166015625 216.8990936279297"></path>
<path fill="none" stroke="black" stroke-width=".3" stroke-opacity="1.0"  filling="0" d="M9.712066650390625 216.9207763671875 L9.611446380615234 217.1578826904297 L9.712066650390625 216.9207000732422"></path>
<path fill="none" stroke="black" stroke-width=".3" stroke-opacity="1.0"  filling="0" d="M19.96009635925293 216.99974060058594 L20.143352508544922 217.17941284179688 L19.96009635925293 216.99974060058594"></path>
<path fill="none" stroke="black" stroke-width=".3" stroke-opacity="1.0"  filling="0" d="M2.004483222961426 217.08599853515625 L2.1086902618408203 217.31964111328125 L2.0044851303100586 217.08599853515625"></path>
<path fill="none" stroke="black" stroke-width=".3" stroke-opacity="1.0"  filling="0" d="M20.28708267211914 217.10391235351562 L20.473934173583984 217.27999877929688 L20.28708267211914 217.10391235351562"></path>
<path fill="none" stroke="black" stroke-width=".3" stroke-opacity="1.0"  filling="0" d="M20.617664337158203 217.20455932617188 L20.804515838623047 217.380615234375 L20.617664337158203 217.20455932617188"></path>
<path fill="none" stroke="black" stroke-width=".3" stroke-opacity="1.0"  filling="0" d="M22.054975509643555 217.211669921875 L22.054975509643555 217.211669921875 C23.3835391998291 218.5402069091797 20.726415634155273 218.5402069091797 22.054975509643555 217.211669921875 L22.054975509643555 217.211669921875"></path>
<path fill="none" stroke="black" stroke-width=".3" stroke-opacity="1.0"  filling="0" d="M9.737220764160156 217.26556396484375 L9.63659954071045 217.50267028808594 L9.737220764160156 217.26556396484375"></path>
<path fill="none" stroke="black" stroke-width=".3" stroke-opacity="1.0"  filling="0" d="M20.948246002197266 217.3050994873047 L21.13509750366211 217.48477172851562 L20.948246002197266 217.3050994873047"></path>
<path fill="none" stroke="black" stroke-width=".3" stroke-opacity="1.0"  filling="0" d="M21.278825759887695 217.4093017578125 L21.462085723876953 217.5853729248047 L21.278825759887695 217.4093017578125"></path>
<path fill="none" stroke="black" stroke-width=".3" stroke-opacity="1.0"  filling="0" d="M1.9865226745605469 217.43089294433594 L2.090728759765625 217.66453552246094 L1.986520767211914 217.43089294433594"></path>
<path fill="none" stroke="black" stroke-width=".3" stroke-opacity="1.0"  filling="0" d="M9.75877857208252 217.61056518554688 L9.661765098571777 217.84767150878906 L9.75877857208252 217.61056518554688"></path>
<path fill="none" stroke="black" stroke-width=".3" stroke-opacity="1.0"  filling="0" d="M1.9685544967651367 217.77584838867188 L2.072760581970215 218.00949096679688 L1.9685544967651367 217.77584838867188"></path>
<path fill="none" stroke="black" stroke-width=".3" stroke-opacity="1.0"  filling="0" d="M9.78393268585205 217.95542907714844 L9.686918258666992 218.192626953125 L9.78393268585205 217.95550537109375"></path>
<path fill="none" stroke="black" stroke-width=".3" stroke-opacity="1.0"  filling="0" d="M1.954183578491211 218.12066650390625 L2.0583887100219727 218.35430908203125 L1.9541816711425781 218.1208038330078"></path>
<path fill="none" stroke="black" stroke-width=".3" stroke-opacity="1.0"  filling="0" d="M9.809085845947266 218.29693603515625 L9.708464622497559 218.5340576171875 L9.809085845947266 218.29689025878906"></path>
<path fill="none" stroke="black" stroke-width=".3" stroke-opacity="1.0"  filling="0" d="M1.9362144470214844 218.462158203125 L2.040421485900879 218.6992645263672 L1.9362144470214844 218.462158203125"></path>
<path fill="none" stroke="black" stroke-width=".3" stroke-opacity="1.0"  filling="0" d="M9.834238052368164 218.64183044433594 L9.733617782592773 218.87893676757812 L9.834238052368164 218.64183044433594"></path>
<path fill="none" stroke="black" stroke-width=".3" stroke-opacity="1.0"  filling="0" d="M1.918248176574707 218.80712890625 L2.0224552154541016 219.04421997070312 L1.918248176574707 218.80712890625"></path>
<path fill="none" stroke="black" stroke-width=".3" stroke-opacity="1.0"  filling="0" d="M9.855798721313477 218.98678588867188 L9.758784294128418 219.223876953125 L9.855798721313477 218.98678588867188"></path>
<path fill="none" stroke="black" stroke-width=".3" stroke-opacity="1.0"  filling="0" d="M1.9038753509521484 219.15206909179688 L2.008082389831543 219.38917541503906 L1.9038753509521484 219.15206909179688"></path>
<path fill="none" stroke="black" stroke-width=".3" stroke-opacity="1.0"  filling="0" d="M9.880951881408691 219.3317413330078 L9.783936500549316 219.56883239746094 L9.880951881408691 219.3317413330078"></path>
<path fill="none" stroke="black" stroke-width=".3" stroke-opacity="1.0"  filling="0" d="M1.9218416213989258 219.48985290527344 L1.9218416213989258 219.48985290527344 C3.040959358215332 220.60044860839844 0.8088201284408569 220.60284423828125 1.9218416213989258 219.48985290527344 L1.9218416213989258 219.48985290527344"></path>
<path fill="none" stroke="black" stroke-width=".3" stroke-opacity="1.0"  filling="0" d="M9.79830551147461 219.59405517578125 L9.79830551147461 219.59405517578125 C10.036426544189453 219.83218383789062 10.300817489624023 220.2274169921875 10.164820671081543 220.53549194335938 L10.071394920349121 220.60374450683594 C9.07800006866455 220.8782196044922 9.320761680603027 220.06846618652344 9.79830551147461 219.59405517578125 L9.79830551147461 219.59405517578125"></path>
<path fill="none" stroke="black" stroke-width=".3" stroke-opacity="1.0"  filling="0" d="M2.4177112579345703 219.98931884765625 L2.6440963745117188 220.11141967773438 L2.417713165283203 219.98931884765625"></path>
<path fill="none" stroke="black" stroke-width=".3" stroke-opacity="1.0"  filling="0" d="M2.762664794921875 220.00010681152344 L2.9890499114990234 220.12222290039062 L2.762667655944824 220.00010681152344"></path>
<path fill="none" stroke="black" stroke-width=".3" stroke-opacity="1.0"  filling="0" d="M3.107625961303711 220.01089477539062 L3.33400821685791 220.12954711914062 L3.1076231002807617 220.01089477539062"></path>
<path fill="none" stroke="black" stroke-width=".3" stroke-opacity="1.0"  filling="0" d="M3.4525794982910156 220.01803588867188 L3.6789627075195312 220.14015197753906 L3.452577590942383 220.01803588867188"></path>
<path fill="none" stroke="black" stroke-width=".3" stroke-opacity="1.0"  filling="0" d="M3.7975292205810547 220.02883911132812 L4.023914813995361 220.15097045898438 L3.797532081604004 220.02883911132812"></path>
<path fill="none" stroke="black" stroke-width=".3" stroke-opacity="1.0"  filling="0" d="M4.142483711242676 220.0359649658203 L4.368869304656982 220.1580810546875 L4.142486572265625 220.0359649658203"></path>
<path fill="none" stroke="black" stroke-width=".3" stroke-opacity="1.0"  filling="0" d="M4.48744535446167 220.0467529296875 L4.713828086853027 220.16888427734375 L4.487442493438721 220.0467529296875"></path>
<path fill="none" stroke="black" stroke-width=".3" stroke-opacity="1.0"  filling="0" d="M4.832398414611816 220.0575714111328 L5.05878210067749 220.17623901367188 L4.832396984100342 220.0575714111328"></path>
<path fill="none" stroke="black" stroke-width=".3" stroke-opacity="1.0"  filling="0" d="M5.1773481369018555 220.064697265625 L5.403733730316162 220.1868133544922 L5.1773505210876465 220.064697265625"></path>
<path fill="none" stroke="black" stroke-width=".3" stroke-opacity="1.0"  filling="0" d="M5.522302150726318 220.0754852294922 L5.748688220977783 220.19760131835938 L5.522305011749268 220.0754852294922"></path>
<path fill="none" stroke="black" stroke-width=".3" stroke-opacity="1.0"  filling="0" d="M5.867263317108154 220.08628845214844 L6.09364652633667 220.2049560546875 L5.867260932922363 220.08628845214844"></path>
<path fill="none" stroke="black" stroke-width=".3" stroke-opacity="1.0"  filling="0" d="M6.212217330932617 220.0934295654297 L6.438600540161133 220.2155303955078 L6.212215423583984 220.0934295654297"></path>
<path fill="none" stroke="black" stroke-width=".3" stroke-opacity="1.0"  filling="0" d="M6.557169437408447 220.10421752929688 L6.783554553985596 220.22634887695312 L6.557169437408447 220.10421752929688"></path>
<path fill="none" stroke="black" stroke-width=".3" stroke-opacity="1.0"  filling="0" d="M6.902121067047119 220.11134338378906 L7.128506660461426 220.2334747314453 L6.902123928070068 220.11134338378906"></path>
<path fill="none" stroke="black" stroke-width=".3" stroke-opacity="1.0"  filling="0" d="M7.247079849243164 220.1221466064453 L7.47346305847168 220.2442626953125 L7.247079849243164 220.1221466064453"></path>
<path fill="none" stroke="black" stroke-width=".3" stroke-opacity="1.0"  filling="0" d="M7.59203577041626 220.13294982910156 L7.818418979644775 220.25160217285156 L7.592033863067627 220.13294982910156"></path>
<path fill="none" stroke="black" stroke-width=".3" stroke-opacity="1.0"  filling="0" d="M7.936988353729248 220.14007568359375 L8.163373947143555 220.26219177246094 L7.936988353729248 220.14007568359375"></path>
<path fill="none" stroke="black" stroke-width=".3" stroke-opacity="1.0"  filling="0" d="M8.281940460205078 220.15086364746094 L8.508325576782227 220.27301025390625 L8.281942367553711 220.15086364746094"></path>
<path fill="none" stroke="black" stroke-width=".3" stroke-opacity="1.0"  filling="0" d="M8.626893997192383 220.16168212890625 L8.853279113769531 220.2803497314453 L8.626895904541016 220.16168212890625"></path>
<path fill="none" stroke="black" stroke-width=".3" stroke-opacity="1.0"  filling="0" d="M8.971855163574219 220.16880798339844 L9.198237419128418 220.29092407226562 L8.971853256225586 220.16880798339844"></path>
<path fill="none" stroke="black" stroke-width=".3" stroke-opacity="1.0"  filling="0" d="M10.340890884399414 220.7509307861328 L10.394789695739746 221.00245666503906 L10.340890884399414 220.7509307861328"></path>
<path fill="none" stroke="black" stroke-width=".3" stroke-opacity="1.0"  filling="0" d="M10.556488037109375 221.01681518554688 L10.613980293273926 221.2683563232422 L10.556488037109375 221.01681518554688"></path>
<path fill="none" stroke="black" stroke-width=".3" stroke-opacity="1.0"  filling="0" d="M10.775677680969238 221.28631591796875 L10.833169937133789 221.53424072265625 L10.775677680969238 221.28631591796875"></path>
<path fill="none" stroke="black" stroke-width=".3" stroke-opacity="1.0"  filling="0" d="M10.994867324829102 221.55221557617188 L11.048766136169434 221.80374145507812 L10.994867324829102 221.55221557617188"></path>
<path fill="none" stroke="black" stroke-width=".3" stroke-opacity="1.0"  filling="0" d="M11.210463523864746 221.818115234375 L11.267955780029297 222.06964111328125 L11.210463523864746 221.818115234375"></path>
<path fill="none" stroke="black" stroke-width=".3" stroke-opacity="1.0"  filling="0" d="M11.594944953918457 221.9546661376953 L11.594944953918457 221.9546661376953 C11.760518074035645 222.1202392578125 11.97295093536377 222.3705291748047 11.8931884765625 222.59068298339844 L12.051290512084961 222.75595092773438 L11.842881202697754 222.6445770263672 C11.170480728149414 222.88818359375 11.187874794006348 222.35800170898438 11.594944953918457 221.9546661376953 L11.594944953918457 221.9546661376953"></path>
<path fill="none" stroke="black" stroke-width=".3" stroke-opacity="1.0"  filling="0" d="M12.468110084533691 222.75595092773438 L12.468110084533691 222.75595092773438 C12.682734489440918 222.9705810546875 12.994519233703613 223.25750732421875 12.913677215576172 223.55007934570312 L13.068188667297363 223.679443359375 L12.841812133789062 223.6435089111328 C12.26925277709961 223.88575744628906 11.839451789855957 223.55345153808594 12.069258689880371 222.94281005859375 L12.151904106140137 222.8601531982422 C12.257306098937988 222.82542419433594 12.36270809173584 222.79067993164062 12.468110084533691 222.75595092773438 L12.468110084533691 222.75595092773438"></path>
<path fill="none" stroke="black" stroke-width=".3" stroke-opacity="1.0"  filling="0" d="M19.42829132080078 223.51414489746094 L19.42829132080078 223.51414489746094 C20.65322494506836 224.7475128173828 18.197265625 224.7451629638672 19.42829132080078 223.51414489746094 L19.42829132080078 223.51414489746094"></path>
<path fill="none" stroke="black" stroke-width=".3" stroke-opacity="1.0"  filling="0" d="M13.154426574707031 223.75489807128906 L13.258631706237793 223.98846435546875 L13.154426574707031 223.75489807128906"></path>
<path fill="none" stroke="black" stroke-width=".3" stroke-opacity="1.0"  filling="0" d="M13.420330047607422 223.97409057617188 L13.524534225463867 224.21124267578125 L13.420330047607422 223.97409057617188"></path>
<path fill="none" stroke="black" stroke-width=".3" stroke-opacity="1.0"  filling="0" d="M13.68623161315918 224.19686889648438 L13.786844253540039 224.430419921875 L13.68623161315918 224.19686889648438"></path>
<path fill="none" stroke="black" stroke-width=".3" stroke-opacity="1.0"  filling="0" d="M18.896484375 224.37652587890625 L18.79946517944336 224.61370849609375 L18.896484375 224.37652587890625"></path>
<path fill="none" stroke="black" stroke-width=".3" stroke-opacity="1.0"  filling="0" d="M13.948541641235352 224.4160614013672 L14.05274772644043 224.65322875976562 L13.948541641235352 224.4160614013672"></path>
<path fill="none" stroke="black" stroke-width=".3" stroke-opacity="1.0"  filling="0" d="M18.63776969909668 224.60292053222656 L18.53715705871582 224.84007263183594 L18.63776969909668 224.60292053222656"></path>
<path fill="none" stroke="black" stroke-width=".3" stroke-opacity="1.0"  filling="0" d="M14.214445114135742 224.6388397216797 L14.318650245666504 224.8723907470703 L14.214445114135742 224.6388397216797"></path>
<path fill="none" stroke="black" stroke-width=".3" stroke-opacity="1.0"  filling="0" d="M18.37546157836914 224.82928466796875 L18.278440475463867 225.0664520263672 L18.37546157836914 224.82928466796875"></path>
<path fill="none" stroke="black" stroke-width=".3" stroke-opacity="1.0"  filling="0" d="M14.4803466796875 224.8580322265625 L14.580957412719727 225.0951690673828 L14.4803466796875 224.8580322265625"></path>
<path fill="none" stroke="black" stroke-width=".3" stroke-opacity="1.0"  filling="0" d="M18.116744995117188 225.05567932128906 L18.019725799560547 225.29281616210938 L18.116744995117188 225.05567932128906"></path>
<path fill="none" stroke="black" stroke-width=".3" stroke-opacity="1.0"  filling="0" d="M14.74625015258789 225.08082580566406 L14.8468599319458 225.31439208984375 L14.74625015258789 225.08082580566406"></path>
<path fill="none" stroke="black" stroke-width=".3" stroke-opacity="1.0"  filling="0" d="M17.8580265045166 225.2820281982422 L17.757415771484375 225.51918029785156 L17.8580265045166 225.2820281982422"></path>
<path fill="none" stroke="black" stroke-width=".3" stroke-opacity="1.0"  filling="0" d="M15.00855827331543 225.2999725341797 L15.112763404846191 225.537109375 L15.00855827331543 225.2999725341797"></path>
<path fill="none" stroke="black" stroke-width=".3" stroke-opacity="1.0"  filling="0" d="M17.595718383789062 225.50839233398438 L17.498699188232422 225.74554443359375 L17.595718383789062 225.50839233398438"></path>
<path fill="none" stroke="black" stroke-width=".3" stroke-opacity="1.0"  filling="0" d="M15.274459838867188 225.5226287841797 L15.378666877746582 225.75619506835938 L15.274459838867188 225.5226287841797"></path>
<path fill="none" stroke="black" stroke-width=".3" stroke-opacity="1.0"  filling="0" d="M17.337003707885742 225.73464965820312 L17.2399845123291 225.97537231445312 L17.337003707885742 225.73464965820312"></path>
<path fill="none" stroke="black" stroke-width=".3" stroke-opacity="1.0"  filling="0" d="M15.540363311767578 225.7417755126953 L15.640975952148438 225.9789276123047 L15.540363311767578 225.7417755126953"></path>
<path fill="none" stroke="black" stroke-width=".3" stroke-opacity="1.0"  filling="0" d="M15.802671432495117 225.96453857421875 L15.906879425048828 226.1981201171875 L15.802671432495117 225.96453857421875"></path>
<path fill="none" stroke="black" stroke-width=".3" stroke-opacity="1.0"  filling="0" d="M17.07828712463379 225.96453857421875 L16.98126983642578 226.20169067382812 L17.07828712463379 225.96453857421875"></path>
<path fill="none" stroke="black" stroke-width=".3" stroke-opacity="1.0"  filling="0" d="M16.49258041381836 226.06155395507812 L16.49258041381836 226.06155395507812 C17.70410919189453 227.2731170654297 15.778952598571777 227.2486572265625 16.04342269897461 226.31668090820312 L16.11528778076172 226.22325134277344 C16.241052627563477 226.1693572998047 16.3668155670166 226.11544799804688 16.49258041381836 226.06155395507812 L16.49258041381836 226.06155395507812"></path></svg>