<svg xmlns="http://www.w3.org/2000/svg" viewBox="0.0 0.0 24.0 24.0" height="200px" width="200px"><path fill="none" stroke="black" stroke-width=".3" stroke-opacity="1.0"  filling="0" d="M9.253504753112793 207.1545867919922 L9.253504753112793 207.1545867919922 C9.499350547790527 207.4022216796875 9.779281616210938 207.80503845214844 9.642999649047852 208.12628173828125 L9.663500785827637 208.36407470703125 L9.536401748657227 208.2041778564453 C8.506230354309082 208.48777770996094 8.768078804016113 207.6435546875 9.253504753112793 207.1545867919922 L9.253504753112793 207.1545867919922"></path>
<path fill="none" stroke="black" stroke-width=".3" stroke-opacity="1.0"  filling="0" d="M9.847996711730957 208.3845672607422 L9.909496307373047 208.67156982421875 L9.847996711730957 208.3845672607422"></path>
<path fill="none" stroke="black" stroke-width=".3" stroke-opacity="1.0"  filling="0" d="M10.093998908996582 208.69204711914062 L10.118599891662598 208.7207489013672 C11.516928672790527 208.50576782226562 9.296469688415527 210.23550415039062 9.999702453613281 208.78634643554688 L10.093992233276367 208.6920623779297"></path>
<path fill="none" stroke="black" stroke-width=".3" stroke-opacity="1.0"  filling="0" d="M10.540888786315918 209.34805297851562 L10.667984962463379 209.56124877929688 C11.02025032043457 209.47837829589844 11.398195266723633 209.72561645507812 11.32807731628418 210.12294006347656 L11.500273704528809 210.3361358642578 L11.274776458740234 210.24595642089844 C10.704242706298828 210.55178833007812 10.273605346679688 210.2622833251953 10.561387062072754 209.63504028320312 L10.540888786315918 209.34805297851562"></path>
<path fill="none" stroke="black" stroke-width=".3" stroke-opacity="1.0"  filling="0" d="M12.763054847717285 209.46286010742188 L12.763054847717285 209.46286010742188 C12.961162567138672 209.66261291503906 13.272276878356934 209.9010009765625 13.21405029296875 210.17623901367188 L13.140249252319336 210.28285217285156 C12.314948081970215 210.66856384277344 12.182668685913086 210.0480499267578 12.763054847717285 209.46286010742188 L12.763054847717285 209.46286010742188"></path>
<path fill="none" stroke="black" stroke-width=".3" stroke-opacity="1.0"  filling="0" d="M11.877471923828125 210.1188201904297 L11.877471923828125 210.1188201904297 C12.043927192687988 210.2852783203125 12.160942077636719 210.60986328125 12.033271789550781 210.80763244628906 L11.906167984008789 210.84454345703125 C10.972607612609863 210.84454345703125 11.814836502075195 210.1821746826172 11.87746810913086 210.11883544921875 L11.87746810913086 210.11883544921875"></path>
<path fill="none" stroke="black" stroke-width=".3" stroke-opacity="1.0"  filling="0" d="M13.378046035766602 210.30335998535156 L13.501045227050781 210.56983947753906 L13.378046035766602 210.30335998535156"></path>
<path fill="none" stroke="black" stroke-width=".3" stroke-opacity="1.0"  filling="0" d="M13.68554401397705 210.5452423095703 L13.808540344238281 210.81173706054688 L13.68554401397705 210.5452423095703"></path>
<path fill="none" stroke="black" stroke-width=".3" stroke-opacity="1.0"  filling="0" d="M13.993038177490234 210.79122924804688 L14.120134353637695 211.05772399902344 L13.993038177490234 210.79122924804688"></path>
<path fill="none" stroke="black" stroke-width=".3" stroke-opacity="1.0"  filling="0" d="M12.082465171813965 210.94293212890625 L12.045565605163574 211.23403930664062 L12.082465171813965 210.94293212890625"></path>
<path fill="none" stroke="black" stroke-width=".3" stroke-opacity="1.0"  filling="0" d="M14.304634094238281 211.03314208984375 L14.427631378173828 211.2996368408203 L14.304634094238281 211.03314208984375"></path>
<path fill="none" stroke="black" stroke-width=".3" stroke-opacity="1.0"  filling="0" d="M14.612130165100098 211.2791290283203 L14.739228248596191 211.54153442382812 L14.612130165100098 211.2791290283203"></path>
<path fill="none" stroke="black" stroke-width=".3" stroke-opacity="1.0"  filling="0" d="M12.209564208984375 211.31192016601562 L12.172664642333984 211.60302734375 L12.209564208984375 211.31192016601562"></path>
<path fill="none" stroke="black" stroke-width=".3" stroke-opacity="1.0"  filling="0" d="M14.923724174499512 211.52102661132812 L15.046723365783691 211.7875213623047 L14.923724174499512 211.52102661132812"></path>
<path fill="none" stroke="black" stroke-width=".3" stroke-opacity="1.0"  filling="0" d="M12.3407621383667 211.68502807617188 L12.303862571716309 211.9761199951172 L12.3407621383667 211.68502807617188"></path>
<path fill="none" stroke="black" stroke-width=".3" stroke-opacity="1.0"  filling="0" d="M15.231220245361328 211.76290893554688 L15.358319282531738 212.02943420410156 L15.231220245361328 211.76290893554688"></path>
<path fill="none" stroke="black" stroke-width=".3" stroke-opacity="1.0"  filling="0" d="M7.2978339195251465 212.00482177734375 L7.2978339195251465 212.00482177734375 C8.707498550415039 213.4144744873047 5.888166427612305 213.4144744873047 7.2978339195251465 212.00482177734375 L7.2978339195251465 212.00482177734375"></path>
<path fill="none" stroke="black" stroke-width=".3" stroke-opacity="1.0"  filling="0" d="M15.542815208435059 212.00892639160156 L15.665813446044922 212.2713165283203 L15.542815208435059 212.00892639160156"></path>
<path fill="none" stroke="black" stroke-width=".3" stroke-opacity="1.0"  filling="0" d="M12.47196102142334 212.0540313720703 L12.43506145477295 212.34512329101562 L12.47196102142334 212.0540313720703"></path>
<path fill="none" stroke="black" stroke-width=".3" stroke-opacity="1.0"  filling="0" d="M15.850313186645508 212.25082397460938 L15.977409362792969 212.51730346679688 L15.850313186645508 212.25082397460938"></path>
<path fill="none" stroke="black" stroke-width=".3" stroke-opacity="1.0"  filling="0" d="M12.599058151245117 212.4271240234375 L12.562158584594727 212.7182159423828 L12.599058151245117 212.4271240234375"></path>
<path fill="none" stroke="black" stroke-width=".3" stroke-opacity="1.0"  filling="0" d="M16.161907196044922 212.49270629882812 L16.28490447998047 212.75921630859375 L16.161907196044922 212.49270629882812"></path>
<path fill="none" stroke="black" stroke-width=".3" stroke-opacity="1.0"  filling="0" d="M16.469402313232422 212.7387237548828 L16.59650230407715 213.0010986328125 L16.469402313232422 212.7387237548828"></path>
<path fill="none" stroke="black" stroke-width=".3" stroke-opacity="1.0"  filling="0" d="M12.730256080627441 212.8002166748047 L12.69335651397705 213.09130859375 L12.730256080627441 212.8002166748047"></path>
<path fill="none" stroke="black" stroke-width=".3" stroke-opacity="1.0"  filling="0" d="M17.186893463134766 212.81251525878906 L17.186893463134766 212.81251525878906 C17.419715881347656 213.0471954345703 17.615079879760742 213.4794464111328 17.453388214111328 213.7677764892578 L17.334491729736328 213.8210906982422 C16.90381622314453 213.8928680419922 16.633392333984375 213.4852752685547 16.723600387573242 213.1035919189453 L16.797399520874023 212.9969940185547 C16.927230834960938 212.9355010986328 17.05706214904785 212.87400817871094 17.186893463134766 212.81251525878906 L17.186893463134766 212.81251525878906"></path>
<path fill="none" stroke="black" stroke-width=".3" stroke-opacity="1.0"  filling="0" d="M6.756641864776611 212.8986053466797 L6.613142013549805 213.15280151367188 L6.756641864776611 212.8986053466797"></path>
<path fill="none" stroke="black" stroke-width=".3" stroke-opacity="1.0"  filling="0" d="M7.916924953460693 212.8986053466797 L8.06042194366455 213.1569061279297 L7.916924953460693 212.8986053466797"></path>
<path fill="none" stroke="black" stroke-width=".3" stroke-opacity="1.0"  filling="0" d="M6.428646087646484 213.1158905029297 L6.2851481437683105 213.37008666992188 L6.428646087646484 213.1158905029297"></path>
<path fill="none" stroke="black" stroke-width=".3" stroke-opacity="1.0"  filling="0" d="M8.24082088470459 213.12411499023438 L8.384319305419922 213.38241577148438 L8.24082088470459 213.12411499023438"></path>
<path fill="none" stroke="black" stroke-width=".3" stroke-opacity="1.0"  filling="0" d="M12.8614501953125 213.16920471191406 L12.8860502243042 213.23890686035156 C13.96442699432373 213.14076232910156 13.576273918151855 214.7212677001953 12.545754432678223 214.37049865722656 L12.394055366516113 214.52627563476562 L12.45555591583252 214.28028869628906 C12.330058097839355 213.9500274658203 12.542865753173828 213.546142578125 12.754851341247559 213.2635040283203 L12.861454010009766 213.169189453125"></path>
<path fill="none" stroke="black" stroke-width=".3" stroke-opacity="1.0"  filling="0" d="M6.100649833679199 213.3332061767578 L5.953052997589111 213.58740234375 L6.100649833679199 213.3332061767578"></path>
<path fill="none" stroke="black" stroke-width=".3" stroke-opacity="1.0"  filling="0" d="M8.564715385437012 213.34548950195312 L8.708212852478027 213.60379028320312 L8.564715385437012 213.34548950195312"></path>
<path fill="none" stroke="black" stroke-width=".3" stroke-opacity="1.0"  filling="0" d="M5.772655963897705 213.55050659179688 L5.625057220458984 213.8046875 L5.772655963897705 213.55050659179688"></path>
<path fill="none" stroke="black" stroke-width=".3" stroke-opacity="1.0"  filling="0" d="M8.888611793518066 213.57098388671875 L9.032108306884766 213.8292999267578 L8.888611793518066 213.57098388671875"></path>
<path fill="none" stroke="black" stroke-width=".3" stroke-opacity="1.0"  filling="0" d="M5.444660186767578 213.7677764892578 L5.297060489654541 214.02197265625 L5.444660186767578 213.7677764892578"></path>
<path fill="none" stroke="black" stroke-width=".3" stroke-opacity="1.0"  filling="0" d="M9.212506294250488 213.79647827148438 L9.35600471496582 214.05067443847656 L9.212506294250488 213.79647827148438"></path>
<path fill="none" stroke="black" stroke-width=".3" stroke-opacity="1.0"  filling="0" d="M17.51898956298828 213.8989715576172 L17.506689071655273 214.19418334960938 L17.51898956298828 213.8989715576172"></path>
<path fill="none" stroke="black" stroke-width=".3" stroke-opacity="1.0"  filling="0" d="M5.116664409637451 213.98507690429688 L4.969067096710205 214.23928833007812 L5.116664409637451 213.98507690429688"></path>
<path fill="none" stroke="black" stroke-width=".3" stroke-opacity="1.0"  filling="0" d="M9.536401748657227 214.0178680419922 L9.679899215698242 214.2761688232422 L9.536401748657227 214.0178680419922"></path>
<path fill="none" stroke="black" stroke-width=".3" stroke-opacity="1.0"  filling="0" d="M13.624043464660645 214.06707763671875 L13.808540344238281 214.2966766357422 L13.624043464660645 214.06707763671875"></path>
<path fill="none" stroke="black" stroke-width=".3" stroke-opacity="1.0"  filling="0" d="M14.427631378173828 214.06707763671875 L14.427631378173828 214.06707763671875 C14.828954696655273 214.4717254638672 15.129494667053223 215.23878479003906 14.198036193847656 215.00596618652344 L14.091438293457031 214.92807006835938 C14.012678146362305 214.7548065185547 13.929619789123535 214.5568084716797 13.968439102172852 214.3704833984375 L14.038137435913086 214.25567626953125 C14.16796875 214.19281005859375 14.297800064086914 214.12994384765625 14.427631378173828 214.06707763671875 L14.427631378173828 214.06707763671875"></path>
<path fill="none" stroke="black" stroke-width=".3" stroke-opacity="1.0"  filling="0" d="M4.788668632507324 214.1982879638672 L4.641071796417236 214.45248413085938 L4.788668632507324 214.1982879638672"></path>
<path fill="none" stroke="black" stroke-width=".3" stroke-opacity="1.0"  filling="0" d="M9.860296249389648 214.2433624267578 L10.003795623779297 214.50167846679688 L9.860296249389648 214.2433624267578"></path>
<path fill="none" stroke="black" stroke-width=".3" stroke-opacity="1.0"  filling="0" d="M17.67888832092285 214.25567626953125 L17.670684814453125 214.5508575439453 L17.67888832092285 214.25567626953125"></path>
<path fill="none" stroke="black" stroke-width=".3" stroke-opacity="1.0"  filling="0" d="M4.460673809051514 214.41555786132812 L4.313075065612793 214.6697540283203 L4.460673809051514 214.41555786132812"></path>
<path fill="none" stroke="black" stroke-width=".3" stroke-opacity="1.0"  filling="0" d="M10.184192657470703 214.4647674560547 L10.323590278625488 214.72305297851562 L10.184192657470703 214.4647674560547"></path>
<path fill="none" stroke="black" stroke-width=".3" stroke-opacity="1.0"  filling="0" d="M12.209564208984375 214.52626037597656 L12.115264892578125 214.80096435546875 L12.209564208984375 214.52626037597656"></path>
<path fill="none" stroke="black" stroke-width=".3" stroke-opacity="1.0"  filling="0" d="M17.84288215637207 214.61647033691406 L17.83468246459961 214.90756225585938 L17.84288215637207 214.61647033691406"></path>
<path fill="none" stroke="black" stroke-width=".3" stroke-opacity="1.0"  filling="0" d="M4.132678508758545 214.6328582763672 L3.985081672668457 214.88705444335938 L4.132678508758545 214.6328582763672"></path>
<path fill="none" stroke="black" stroke-width=".3" stroke-opacity="1.0"  filling="0" d="M10.508088111877441 214.69024658203125 L10.647485733032227 214.94854736328125 L10.508088111877441 214.69024658203125"></path>
<path fill="none" stroke="black" stroke-width=".3" stroke-opacity="1.0"  filling="0" d="M3.3044910430908203 214.69845581054688 L3.3044910430908203 214.69845581054688 C3.439789056777954 214.77088928222656 3.575087308883667 214.8433380126953 3.710385322570801 214.915771484375 L3.7636842727661133 215.03465270996094 C3.8131775856018066 215.26979064941406 3.570915937423706 215.48048400878906 3.4233884811401367 215.670166015625 L3.2921905517578125 215.6824493408203 C3.0631964206695557 215.4475860595703 3.0725460052490234 214.93040466308594 3.3044910430908203 214.69845581054688 L3.3044910430908203 214.69845581054688"></path>
<path fill="none" stroke="black" stroke-width=".3" stroke-opacity="1.0"  filling="0" d="M14.956524848937988 214.75997924804688 L15.141021728515625 214.98956298828125 L14.956524848937988 214.75997924804688"></path>
<path fill="none" stroke="black" stroke-width=".3" stroke-opacity="1.0"  filling="0" d="M11.930768013000488 214.80096435546875 L11.889766693115234 215.0305633544922 C11.990549087524414 215.3092041015625 11.910097122192383 215.64833068847656 11.774970054626465 215.9120330810547 L11.660172462463379 215.97764587402344 C11.113550186157227 216.08132934570312 10.754639625549316 215.6234588623047 10.893482208251953 215.11666870117188 L10.971381187438965 215.0100555419922 C11.222347259521484 214.89598083496094 11.536312103271484 214.84637451171875 11.795470237731934 214.94036865234375 L11.930768013000488 214.80096435546875"></path>
<path fill="none" stroke="black" stroke-width=".3" stroke-opacity="1.0"  filling="0" d="M15.313220024108887 214.9239501953125 L15.497716903686523 215.153564453125 L15.313220024108887 214.9239501953125"></path>
<path fill="none" stroke="black" stroke-width=".3" stroke-opacity="1.0"  filling="0" d="M18.006879806518555 214.97315979003906 L17.998680114746094 215.2683563232422 L18.006879806518555 214.97315979003906"></path>
<path fill="none" stroke="black" stroke-width=".3" stroke-opacity="1.0"  filling="0" d="M15.669914245605469 215.0879669189453 L15.854412078857422 215.3175506591797 L15.669914245605469 215.0879669189453"></path>
<path fill="none" stroke="black" stroke-width=".3" stroke-opacity="1.0"  filling="0" d="M13.86594009399414 215.12896728515625 L13.759342193603516 215.40365600585938 L13.86594009399414 215.12896728515625"></path>
<path fill="none" stroke="black" stroke-width=".3" stroke-opacity="1.0"  filling="0" d="M16.03070831298828 215.251953125 L16.21110725402832 215.48155212402344 L16.03070831298828 215.251953125"></path>
<path fill="none" stroke="black" stroke-width=".3" stroke-opacity="1.0"  filling="0" d="M18.170879364013672 215.32986450195312 L18.16267967224121 215.6250457763672 L18.170879364013672 215.32986450195312"></path>
<path fill="none" stroke="black" stroke-width=".3" stroke-opacity="1.0"  filling="0" d="M13.574843406677246 215.3954620361328 L13.472345352172852 215.67015075683594 L13.574843406677246 215.3954620361328"></path>
<path fill="none" stroke="black" stroke-width=".3" stroke-opacity="1.0"  filling="0" d="M16.387401580810547 215.4159698486328 L16.571901321411133 215.6455535888672 L16.387401580810547 215.4159698486328"></path>
<path fill="none" stroke="black" stroke-width=".3" stroke-opacity="1.0"  filling="0" d="M16.744098663330078 215.5799560546875 L16.92859649658203 215.80955505371094 L16.744098663330078 215.5799560546875"></path>
<path fill="none" stroke="black" stroke-width=".3" stroke-opacity="1.0"  filling="0" d="M13.283748626708984 215.66195678710938 L13.18125057220459 215.9366455078125 L13.283748626708984 215.66195678710938"></path>
<path fill="none" stroke="black" stroke-width=".3" stroke-opacity="1.0"  filling="0" d="M18.334877014160156 215.69065856933594 L18.433277130126953 215.90383911132812 C20.042800903320312 215.62994384765625 18.53776741027832 218.2106170654297 18.0396785736084 216.4573516845703 C17.987838745117188 216.27487182617188 18.225543975830078 216.12661743164062 18.318477630615234 215.96124267578125 L18.334877014160156 215.69065856933594"></path>
<path fill="none" stroke="black" stroke-width=".3" stroke-opacity="1.0"  filling="0" d="M17.100793838500977 215.7439422607422 L17.285289764404297 215.9735565185547 L17.100793838500977 215.7439422607422"></path>
<path fill="none" stroke="black" stroke-width=".3" stroke-opacity="1.0"  filling="0" d="M3.427487373352051 215.8177490234375 L3.3086023330688477 216.08424377441406 L3.427487373352051 215.8177490234375"></path>
<path fill="none" stroke="black" stroke-width=".3" stroke-opacity="1.0"  filling="0" d="M17.46158790588379 215.9120330810547 L17.641986846923828 216.13754272460938 L17.46158790588379 215.9120330810547"></path>
<path fill="none" stroke="black" stroke-width=".3" stroke-opacity="1.0"  filling="0" d="M12.99675178527832 215.92845153808594 L12.890153884887695 216.20314025878906 L12.99675178527832 215.92845153808594"></path>
<path fill="none" stroke="black" stroke-width=".3" stroke-opacity="1.0"  filling="0" d="M17.818283081054688 216.0760498046875 L18.00278091430664 216.30154418945312 L17.818283081054688 216.0760498046875"></path>
<path fill="none" stroke="black" stroke-width=".3" stroke-opacity="1.0"  filling="0" d="M11.881567001342773 216.08013916015625 L12.016865730285645 216.28514099121094 C12.210742950439453 216.21397399902344 12.439225196838379 216.19769287109375 12.635957717895508 216.2605438232422 L12.730256080627441 216.34664916992188 C13.097670555114746 217.36016845703125 11.583869934082031 217.36013793945312 11.95126724243164 216.34664916992188 L11.881567001342773 216.08013916015625"></path>
<path fill="none" stroke="black" stroke-width=".3" stroke-opacity="1.0"  filling="0" d="M3.4438886642456055 216.20726013183594 L3.32089900970459 216.47784423828125 L3.4438886642456055 216.20724487304688"></path>
<path fill="none" stroke="black" stroke-width=".3" stroke-opacity="1.0"  filling="0" d="M20.811241149902344 216.4696502685547 L20.811241149902344 216.4696502685547 C22.095436096191406 217.75379943847656 19.527048110961914 217.75379943847656 20.811241149902344 216.4696502685547 L20.811241149902344 216.4696502685547"></path>
<path fill="none" stroke="black" stroke-width=".3" stroke-opacity="1.0"  filling="0" d="M3.456186294555664 216.60084533691406 L3.3372802734375 216.87144470214844 L3.456188201904297 216.60084533691406"></path>
<path fill="none" stroke="black" stroke-width=".3" stroke-opacity="1.0"  filling="0" d="M19.26556396484375 216.6090545654297 L19.482860565185547 216.80174255371094 L19.26556396484375 216.6090545654297"></path>
<path fill="none" stroke="black" stroke-width=".3" stroke-opacity="1.0"  filling="0" d="M19.64685821533203 216.7074432373047 L19.864154815673828 216.90423583984375 L19.64685821533203 216.7074432373047"></path>
<path fill="none" stroke="black" stroke-width=".3" stroke-opacity="1.0"  filling="0" d="M20.0240535736084 216.8099365234375 L20.245452880859375 217.0026397705078 L20.0240535736084 216.8099365234375"></path>
<path fill="none" stroke="black" stroke-width=".3" stroke-opacity="1.0"  filling="0" d="M3.4725894927978516 216.99444580078125 L3.3495988845825195 217.26095581054688 L3.4725894927978516 216.99444580078125"></path>
<path fill="none" stroke="black" stroke-width=".3" stroke-opacity="1.0"  filling="0" d="M18.31027603149414 217.06002807617188 L18.34717559814453 217.3511505126953 L18.31027603149414 217.06002807617188"></path>
<path fill="none" stroke="black" stroke-width=".3" stroke-opacity="1.0"  filling="0" d="M3.488987922668457 217.38804626464844 L3.365997314453125 217.654541015625 L3.488987922668457 217.38804626464844"></path>
<path fill="none" stroke="black" stroke-width=".3" stroke-opacity="1.0"  filling="0" d="M18.1790771484375 217.42904663085938 L18.211875915527344 217.7201385498047 L18.1790771484375 217.42904663085938"></path>
<path fill="none" stroke="black" stroke-width=".3" stroke-opacity="1.0"  filling="0" d="M3.501309394836426 217.78163146972656 L3.382399559020996 218.04812622070312 L3.501286506652832 217.78163146972656"></path>
<path fill="none" stroke="black" stroke-width=".3" stroke-opacity="1.0"  filling="0" d="M18.043779373168945 217.80215454101562 L18.08068084716797 218.09323120117188 L18.043779373168945 217.80215454101562"></path>
<path fill="none" stroke="black" stroke-width=".3" stroke-opacity="1.0"  filling="0" d="M17.912582397460938 218.171142578125 L17.949481964111328 218.4622344970703 L17.912582397460938 218.171142578125"></path>
<path fill="none" stroke="black" stroke-width=".3" stroke-opacity="1.0"  filling="0" d="M3.5176877975463867 218.1752471923828 L3.3946971893310547 218.44175720214844 L3.5176877975463867 218.1752471923828"></path>
<path fill="none" stroke="black" stroke-width=".3" stroke-opacity="1.0"  filling="0" d="M17.78138542175293 218.54014587402344 L17.814184188842773 218.83123779296875 L17.78138542175293 218.54014587402344"></path>
<path fill="none" stroke="black" stroke-width=".3" stroke-opacity="1.0"  filling="0" d="M3.5340871810913086 218.56883239746094 L3.41109561920166 218.83535766601562 L3.5340871810913086 218.56883239746094"></path>
<path fill="none" stroke="black" stroke-width=".3" stroke-opacity="1.0"  filling="0" d="M17.650188446044922 218.91322326660156 L17.752685546875 219.01162719726562 C17.887983322143555 219.21798706054688 18.20960807800293 219.3892822265625 18.158580780029297 219.63070678710938 C17.73040008544922 221.65658569335938 15.732634544372559 218.7653045654297 17.629688262939453 218.9706268310547 L17.65018653869629 218.91323852539062"></path>
<path fill="none" stroke="black" stroke-width=".3" stroke-opacity="1.0"  filling="0" d="M3.5463876724243164 218.96243286132812 L3.5545949935913086 219.17153930664062 C4.480737209320068 220.34664916992188 2.2611067295074463 220.33255004882812 3.4233970642089844 219.15103149414062 L3.5463876724243164 218.96243286132812"></path>
<path fill="none" stroke="black" stroke-width=".3" stroke-opacity="1.0"  filling="0" d="M3.6980838775634766 220.114501953125 L3.7472848892211914 220.32769775390625 C4.976073265075684 220.19100952148438 4.025718688964844 221.24229431152344 3.9481821060180664 221.3485870361328 L3.816983222961426 221.37319946289062 C2.561626434326172 221.53030395507812 3.5609326362609863 220.432861328125 3.6201858520507812 220.35231018066406 L3.6980838775634766 220.11453247070312"></path>
<path fill="none" stroke="black" stroke-width=".3" stroke-opacity="1.0"  filling="0" d="M17.945383071899414 220.23751831054688 L18.019182205200195 220.52040100097656 L17.945383071899414 220.23751831054688"></path>
<path fill="none" stroke="black" stroke-width=".3" stroke-opacity="1.0"  filling="0" d="M18.203678131103516 220.53273010253906 L18.277477264404297 220.8156280517578 L18.203678131103516 220.53273010253906"></path>
<path fill="none" stroke="black" stroke-width=".3" stroke-opacity="1.0"  filling="0" d="M18.785869598388672 220.8156280517578 L18.785869598388672 220.8156280517578 C20.0444393157959 222.0836944580078 17.930606842041016 222.08670043945312 18.408676147460938 220.96730041503906 L18.51527214050293 220.889404296875 C18.605470657348633 220.86480712890625 18.69567108154297 220.84022521972656 18.785869598388672 220.8156280517578 L18.785869598388672 220.8156280517578"></path>
<path fill="none" stroke="black" stroke-width=".3" stroke-opacity="1.0"  filling="0" d="M3.989180564880371 221.664306640625 L3.898982048034668 221.943115234375 L3.989180564880371 221.664306640625"></path>
<path fill="none" stroke="black" stroke-width=".3" stroke-opacity="1.0"  filling="0" d="M4.046579360961914 222.05380249023438 L3.9522809982299805 222.3325958251953 L4.046579360961914 222.05380249023438"></path>
<path fill="none" stroke="black" stroke-width=".3" stroke-opacity="1.0"  filling="0" d="M4.103978633880615 222.4432830810547 L4.009679794311523 222.7220916748047 L4.103978633880615 222.4432830810547"></path>
<path fill="none" stroke="black" stroke-width=".3" stroke-opacity="1.0"  filling="0" d="M4.157278537750244 222.83277893066406 L4.067079067230225 223.1116180419922 L4.157278537750244 222.83277893066406"></path>
<path fill="none" stroke="black" stroke-width=".3" stroke-opacity="1.0"  filling="0" d="M4.2146759033203125 223.2222900390625 L4.1203789710998535 223.5010986328125 L4.2146759033203125 223.22225952148438"></path>
<path fill="none" stroke="black" stroke-width=".3" stroke-opacity="1.0"  filling="0" d="M4.27207612991333 223.61178588867188 L4.17777681350708 223.8905792236328 L4.27207612991333 223.61178588867188"></path>
<path fill="none" stroke="black" stroke-width=".3" stroke-opacity="1.0"  filling="0" d="M4.325376033782959 224.0012664794922 L4.2351765632629395 224.2800750732422 L4.325376033782959 224.0012664794922"></path>
<path fill="none" stroke="black" stroke-width=".3" stroke-opacity="1.0"  filling="0" d="M9.007503509521484 224.35385131835938 L9.007503509521484 224.35385131835938 C9.664628028869629 225.00511169433594 9.275099754333496 225.47259521484375 8.57291030883789 224.93605041503906 L8.552416801452637 224.80894470214844 C8.704113960266113 224.65724182128906 8.855812072753906 224.50555419921875 9.007509231567383 224.35385131835938 L9.007509231567383 224.35385131835938"></path>
<path fill="none" stroke="black" stroke-width=".3" stroke-opacity="1.0"  filling="0" d="M4.3827738761901855 224.39076232910156 L4.288477420806885 224.66957092285156 L4.3827738761901855 224.39076232910156"></path>
<path fill="none" stroke="black" stroke-width=".3" stroke-opacity="1.0"  filling="0" d="M4.440161228179932 224.7843780517578 L4.464760780334473 224.9565887451172 C4.704485893249512 224.92559814453125 4.90183162689209 225.1694793701172 5.096152305603027 225.31324768066406 L5.1166486740112305 225.4444580078125 C5.126896381378174 225.49566650390625 5.108077049255371 225.5486297607422 5.100254535675049 225.6002655029297 L5.051064968109131 225.72325134277344 C4.332502365112305 226.14666748046875 3.916015625 225.72128295898438 4.337675094604492 225.00575256347656 L4.440173149108887 224.7843475341797"></path>
<path fill="none" stroke="black" stroke-width=".3" stroke-opacity="1.0"  filling="0" d="M8.35971450805664 224.83355712890625 L8.117815971374512 225.00164794921875 L8.359718322753906 224.83355712890625"></path>
<path fill="none" stroke="black" stroke-width=".3" stroke-opacity="1.0"  filling="0" d="M7.9702253341674805 224.89096069335938 L7.732426643371582 225.05905151367188 L7.9702253341674805 224.89096069335938"></path>
<path fill="none" stroke="black" stroke-width=".3" stroke-opacity="1.0"  filling="0" d="M7.5807294845581055 224.94833374023438 L7.342930793762207 225.116455078125 L7.5807294845581055 224.94833374023438"></path>
<path fill="none" stroke="black" stroke-width=".3" stroke-opacity="1.0"  filling="0" d="M7.1912360191345215 225.00575256347656 L6.953437805175781 225.17384338378906 L7.1912336349487305 225.00575256347656"></path>
<path fill="none" stroke="black" stroke-width=".3" stroke-opacity="1.0"  filling="0" d="M6.801740646362305 225.06312561035156 L6.563941955566406 225.23121643066406 L6.801740646362305 225.06312561035156"></path>
<path fill="none" stroke="black" stroke-width=".3" stroke-opacity="1.0"  filling="0" d="M6.412247180938721 225.1205291748047 L6.174448490142822 225.2886505126953 L6.412245273590088 225.1205291748047"></path>
<path fill="none" stroke="black" stroke-width=".3" stroke-opacity="1.0"  filling="0" d="M6.022751808166504 225.17796325683594 L5.7849531173706055 225.34605407714844 L6.022751808166504 225.17796325683594"></path>
<path fill="none" stroke="black" stroke-width=".3" stroke-opacity="1.0"  filling="0" d="M5.633258819580078 225.23533630371094 L5.39546012878418 225.40345764160156 L5.633255958557129 225.23533630371094"></path>
<path fill="none" stroke="black" stroke-width=".3" stroke-opacity="1.0"  filling="0" d="M5.23146390914917 225.63714599609375 L5.440560817718506 225.84213256835938 L5.23146390914917 225.63714599609375"></path>
<path fill="none" stroke="black" stroke-width=".3" stroke-opacity="1.0"  filling="0" d="M5.60455846786499 225.75604248046875 L5.817754745483398 225.95692443847656 L5.60455846786499 225.75604248046875"></path>
<path fill="none" stroke="black" stroke-width=".3" stroke-opacity="1.0"  filling="0" d="M5.981752872467041 225.870849609375 L6.194949150085449 226.0717315673828 L5.981752872467041 225.870849609375"></path>
<path fill="none" stroke="black" stroke-width=".3" stroke-opacity="1.0"  filling="0" d="M6.358946800231934 225.9856414794922 L6.5721435546875 226.18653869628906 L6.358946800231934 225.9856414794922"></path>
<path fill="none" stroke="black" stroke-width=".3" stroke-opacity="1.0"  filling="0" d="M6.736141204833984 226.10044860839844 L6.949337959289551 226.3013153076172 L6.736141204833984 226.10044860839844"></path>
<path fill="none" stroke="black" stroke-width=".3" stroke-opacity="1.0"  filling="0" d="M7.113335609436035 226.21522521972656 L7.322432518005371 226.4161376953125 L7.113335609436035 226.21522521972656"></path>
<path fill="none" stroke="black" stroke-width=".3" stroke-opacity="1.0"  filling="0" d="M7.4864301681518555 226.33001708984375 L7.699628829956055 226.53094482421875 L7.4864301681518555 226.33001708984375"></path>
<path fill="none" stroke="black" stroke-width=".3" stroke-opacity="1.0"  filling="0" d="M7.863624572753906 226.44482421875 L8.076823234558105 226.64979553222656 L7.863624572753906 226.44482421875"></path>
<path fill="none" stroke="black" stroke-width=".3" stroke-opacity="1.0"  filling="0" d="M9.397004127502441 226.49813842773438 L9.397004127502441 226.49813842773438 C10.024575233459473 227.12571716308594 9.608366012573242 227.54588317871094 8.974708557128906 226.92453002929688 L8.982908248901367 226.83432006835938 C9.120940208435059 226.7222442626953 9.25897216796875 226.6101837158203 9.397004127502441 226.49810791015625 L9.397004127502441 226.49810791015625"></path>
<path fill="none" stroke="black" stroke-width=".3" stroke-opacity="1.0"  filling="0" d="M8.24082088470459 226.55963134765625 L8.45401668548584 226.7646026611328 L8.24082088470459 226.55963134765625"></path>
<path fill="none" stroke="black" stroke-width=".3" stroke-opacity="1.0"  filling="0" d="M8.61801528930664 226.67442321777344 L8.831212043762207 226.87942504882812 L8.61801528930664 226.67442321777344"></path>
<path fill="none" stroke="black" stroke-width=".3" stroke-opacity="1.0"  filling="0" d="M9.212506294250488 227.35910034179688 L9.335495948791504 227.4329376220703 C10.135947227478027 228.49351501464844 8.143525123596191 228.4786834716797 9.20429801940918 227.40830993652344 L9.212506294250488 227.35910034179688"></path></svg>