<svg xmlns="http://www.w3.org/2000/svg" viewBox="0.0 0.0 24.0 24.0" height="200px" width="200px"><path fill="none" stroke="black" stroke-width=".3" stroke-opacity="1.0"  filling="0" d="M8.688072204589844 9.263927459716797 L8.688072204589844 9.263927459716797 C9.75521469116211 7.415585517883301 9.75521469116211 11.112268447875977 8.688072204589844 9.263927459716797 L8.688072204589844 9.263927459716797"></path>
<path fill="none" stroke="black" stroke-width=".3" stroke-opacity="1.0"  filling="0" d="M14.088071823120117 9.263927459716797 L14.088071823120117 9.263927459716797 C15.155214309692383 7.415585517883301 15.155214309692383 11.112268447875977 14.088071823120117 9.263927459716797 L14.088071823120117 9.263927459716797"></path>
<path fill="none" stroke="black" stroke-width=".3" stroke-opacity="1.0"  filling="0" d="M16.650047302246094 13.074383735656738 L13.16877555847168 13.074383735656738 L13.192535400390625 18.5447998046875 L9.356160163879395 18.5447998046875 L5.519784450531006 18.5447998046875 L5.520000457763672 16.31870460510254 L10.942680358886719 16.31870460510254 L10.942680358886719 13.074383735656738 L5.519784450531006 13.074383735656738 L5.519784450531006 5.614823818206787 L7.745880126953125 5.614608287811279 L7.745664119720459 10.848287582397461 L10.942895889282227 10.848287582397461 L10.942680358886719 5.614608287811279 L14.909412384033203 5.614608287811279 L18.876144409179688 5.614608287811279 L18.876144409179688 7.840703964233398 L13.16877555847168 7.840920448303223 L13.16877555847168 10.848287582397461 L18.876144409179688 10.848287582397461 L18.876144409179688 14.69654369354248 L18.876144409179688 18.5447998046875 L16.64983367919922 18.5447998046875 L16.650047302246094 13.074383735656738"></path>
<path fill="none" stroke="black" stroke-width=".3" stroke-opacity="1.0"  filling="0" d="M8.760000228881836 14.23214340209961 L8.760000228881836 14.23214340209961 C9.827142715454102 12.383801460266113 9.827142715454102 16.08048439025879 8.760000228881836 14.23214340209961 L8.760000228881836 14.23214340209961"></path>
<path fill="none" stroke="black" stroke-width=".3" stroke-opacity="1.0"  filling="0" d="M14.087855339050293 14.23214340209961 L14.087855339050293 14.23214340209961 C15.155452728271484 12.383005142211914 15.155452728271484 16.081281661987305 14.087855339050293 14.23214340209961 L14.087855339050293 14.23214340209961"></path></svg>