<svg xmlns="http://www.w3.org/2000/svg" viewBox="0.0 0.0 24.0 24.0" height="200px" width="200px"><path fill="none" stroke="black" stroke-width=".3" stroke-opacity="1.0"  filling="0" d="M12.960273742675781 207.17233276367188 L12.960273742675781 207.17233276367188 C13.109500885009766 207.32777404785156 13.535150527954102 207.87518310546875 12.896072387695312 207.807861328125 L12.854345321655273 207.79501342773438 C12.842576026916504 207.78858947753906 12.83080768585205 207.7821807861328 12.819038391113281 207.7757568359375 L12.735587120056152 207.7147674560547 C12.664268493652344 207.5325164794922 12.824002265930176 207.31280517578125 12.96026611328125 207.1723175048828 L12.96026611328125 207.1723175048828"></path>
<path fill="none" stroke="black" stroke-width=".3" stroke-opacity="1.0"  filling="0" d="M12.844724655151367 207.90733337402344 L12.924959182739258 208.1223907470703 L12.84471607208252 207.9073486328125"></path>
<path fill="none" stroke="black" stroke-width=".3" stroke-opacity="1.0"  filling="0" d="M12.5783109664917 207.96511840820312 L12.555843353271484 208.19302368164062 L12.5783109664917 207.96511840820312"></path>
<path fill="none" stroke="black" stroke-width=".3" stroke-opacity="1.0"  filling="0" d="M12.812627792358398 208.2122802734375 L12.892863273620605 208.4273223876953 L12.812618255615234 208.21226501464844"></path>
<path fill="none" stroke="black" stroke-width=".3" stroke-opacity="1.0"  filling="0" d="M12.414617538452148 208.22509765625 L12.3921480178833 208.45619201660156 L12.414617538452148 208.22509765625"></path>
<path fill="none" stroke="black" stroke-width=".3" stroke-opacity="1.0"  filling="0" d="M12.250921249389648 208.48829650878906 L12.228453636169434 208.7161865234375 L12.250921249389648 208.48829650878906"></path>
<path fill="none" stroke="black" stroke-width=".3" stroke-opacity="1.0"  filling="0" d="M12.780523300170898 208.5203857421875 L12.86076545715332 208.73544311523438 L12.780523300170898 208.5203857421875"></path>
<path fill="none" stroke="black" stroke-width=".3" stroke-opacity="1.0"  filling="0" d="M12.087225914001465 208.74827575683594 L12.067967414855957 208.97616577148438 L12.087225914001465 208.74827575683594"></path>
<path fill="none" stroke="black" stroke-width=".3" stroke-opacity="1.0"  filling="0" d="M12.74842643737793 208.8253173828125 L12.828667640686035 209.04037475585938 L12.74842643737793 208.82530212402344"></path>
<path fill="none" stroke="black" stroke-width=".3" stroke-opacity="1.0"  filling="0" d="M11.923529624938965 209.011474609375 L11.904273986816406 209.23936462402344 L11.923529624938965 209.011474609375"></path>
<path fill="none" stroke="black" stroke-width=".3" stroke-opacity="1.0"  filling="0" d="M12.716328620910645 209.13343811035156 L12.79656982421875 209.34849548339844 L12.716328620910645 209.13345336914062"></path>
<path fill="none" stroke="black" stroke-width=".3" stroke-opacity="1.0"  filling="0" d="M11.763046264648438 209.27145385742188 L11.740578651428223 209.4993438720703 L11.763046264648438 209.27145385742188"></path>
<path fill="none" stroke="black" stroke-width=".3" stroke-opacity="1.0"  filling="0" d="M12.684229850769043 209.43836975097656 L12.764473915100098 209.65342712402344 L12.684229850769043 209.43836975097656"></path>
<path fill="none" stroke="black" stroke-width=".3" stroke-opacity="1.0"  filling="0" d="M11.59935188293457 209.5314483642578 L11.576882362365723 209.76254272460938 L11.59935188293457 209.5314483642578"></path>
<path fill="none" stroke="black" stroke-width=".3" stroke-opacity="1.0"  filling="0" d="M12.652134895324707 209.74649047851562 L12.732377052307129 209.9615478515625 L12.652134895324707 209.7465057373047"></path>
<path fill="none" stroke="black" stroke-width=".3" stroke-opacity="1.0"  filling="0" d="M11.43565559387207 209.79464721679688 L11.413188934326172 210.0225372314453 L11.43565559387207 209.79464721679688"></path>
<path fill="none" stroke="black" stroke-width=".3" stroke-opacity="1.0"  filling="0" d="M18.484167098999023 209.8524169921875 L18.484167098999023 209.8524169921875 C18.566505432128906 209.93759155273438 18.655155181884766 210.07838439941406 18.606136322021484 210.1862335205078 L18.51305389404297 210.23117065429688 C18.389442443847656 210.2585906982422 18.396163940429688 209.94345092773438 18.484167098999023 209.8524169921875 L18.484167098999023 209.8524169921875"></path>
<path fill="none" stroke="black" stroke-width=".3" stroke-opacity="1.0"  filling="0" d="M12.620037078857422 210.05142211914062 L12.700279235839844 210.26646423339844 L12.620037078857422 210.05142211914062"></path>
<path fill="none" stroke="black" stroke-width=".3" stroke-opacity="1.0"  filling="0" d="M11.271963119506836 210.0546417236328 L11.300847053527832 210.19908142089844 C11.364651679992676 210.33555603027344 11.396631240844727 210.5055389404297 11.348994255065918 210.64845275878906 L11.487010955810547 210.80250549316406 L11.300847053527832 210.6965789794922 C11.21531867980957 210.72793579101562 11.124773979187012 210.76934814453125 11.034443855285645 210.75755310058594 L10.941360473632812 210.71583557128906 C10.808927536010742 210.46861267089844 10.759737968444824 210.0513458251953 11.21418571472168 210.14772033691406 L11.271963119506836 210.0546417236328"></path>
<path fill="none" stroke="black" stroke-width=".3" stroke-opacity="1.0"  filling="0" d="M16.718830108642578 210.2183380126953 L16.718830108642578 210.2183380126953 C17.277368545532227 210.7919464111328 16.165632247924805 210.79425048828125 16.718830108642578 210.2183380126953 L16.718830108642578 210.2183380126953"></path>
<path fill="none" stroke="black" stroke-width=".3" stroke-opacity="1.0"  filling="0" d="M18.801918029785156 210.30819702148438 L18.801918029785156 210.30819702148438 C19.096595764160156 210.613525390625 19.059473037719727 210.9827423095703 18.60612678527832 210.76718139648438 L18.551563262939453 210.6773223876953 C18.531261444091797 210.53004455566406 18.699331283569336 210.41580200195312 18.80192756652832 210.30819702148438 L18.80192756652832 210.30819702148438"></path>
<path fill="none" stroke="black" stroke-width=".3" stroke-opacity="1.0"  filling="0" d="M12.587939262390137 210.3595428466797 L12.668184280395508 210.57460021972656 L12.587939262390137 210.35955810546875"></path>
<path fill="none" stroke="black" stroke-width=".3" stroke-opacity="1.0"  filling="0" d="M12.555852890014648 210.66448974609375 L12.636096954345703 210.87953186035156 L12.555843353271484 210.66448974609375"></path>
<path fill="none" stroke="black" stroke-width=".3" stroke-opacity="1.0"  filling="0" d="M18.4263916015625 210.76077270507812 L18.31405258178711 210.95977783203125 L18.4263916015625 210.76077270507812"></path>
<path fill="none" stroke="black" stroke-width=".3" stroke-opacity="1.0"  filling="0" d="M11.557624816894531 210.87631225585938 L11.618609428405762 211.09779357910156 L11.557624816894531 210.87631225585938"></path>
<path fill="none" stroke="black" stroke-width=".3" stroke-opacity="1.0"  filling="0" d="M10.873957633972168 210.89559936523438 L10.899636268615723 211.12347412109375 L10.873957633972168 210.89559936523438"></path>
<path fill="none" stroke="black" stroke-width=".3" stroke-opacity="1.0"  filling="0" d="M18.172826766967773 210.930908203125 L18.057275772094727 211.13311767578125 L18.172826766967773 210.930908203125"></path>
<path fill="none" stroke="black" stroke-width=".3" stroke-opacity="1.0"  filling="0" d="M12.523737907409668 210.9726104736328 L12.60398006439209 211.1876678466797 L12.523747444152832 210.97262573242188"></path>
<path fill="none" stroke="black" stroke-width=".3" stroke-opacity="1.0"  filling="0" d="M17.916048049926758 211.10423278808594 L17.803709030151367 211.30322265625 L17.916048049926758 211.10423278808594"></path>
<path fill="none" stroke="black" stroke-width=".3" stroke-opacity="1.0"  filling="0" d="M11.763046264648438 211.10743713378906 L11.827239990234375 211.32569885253906 L11.763046264648438 211.10743713378906"></path>
<path fill="none" stroke="black" stroke-width=".3" stroke-opacity="1.0"  filling="0" d="M10.768038749694824 211.18447875976562 L10.793716430664062 211.4155731201172 L10.768038749694824 211.18447875976562"></path>
<path fill="none" stroke="black" stroke-width=".3" stroke-opacity="1.0"  filling="0" d="M17.659271240234375 211.27435302734375 L17.546932220458984 211.4765625 L17.659271240234375 211.27435302734375"></path>
<path fill="none" stroke="black" stroke-width=".3" stroke-opacity="1.0"  filling="0" d="M12.491649627685547 211.27757263183594 L12.575092315673828 211.49261474609375 L12.491649627685547 211.27757263183594"></path>
<path fill="none" stroke="black" stroke-width=".3" stroke-opacity="1.0"  filling="0" d="M11.97167682647705 211.3353271484375 L12.032662391662598 211.55360412597656 L11.97167682647705 211.3353271484375"></path>
<path fill="none" stroke="black" stroke-width=".3" stroke-opacity="1.0"  filling="0" d="M17.402494430541992 211.4476776123047 L17.2901554107666 211.6466827392578 L17.402494430541992 211.4476776123047"></path>
<path fill="none" stroke="black" stroke-width=".3" stroke-opacity="1.0"  filling="0" d="M10.662118911743164 211.47335815429688 L10.687793731689453 211.70445251464844 L10.662118911743164 211.47335815429688"></path>
<path fill="none" stroke="black" stroke-width=".3" stroke-opacity="1.0"  filling="0" d="M12.180307388305664 211.563232421875 L12.241291046142578 211.78147888183594 L12.180307388305664 211.563232421875"></path>
<path fill="none" stroke="black" stroke-width=".3" stroke-opacity="1.0"  filling="0" d="M12.45954704284668 211.585693359375 L12.546208381652832 211.76222229003906 C12.668984413146973 211.90036010742188 13.146251678466797 212.46044921875 12.45312786102295 212.39454650878906 L12.356832504272461 212.349609375 C12.267834663391113 212.18710327148438 12.286396026611328 211.95274353027344 12.382511138916016 211.79434204101562 L12.385729789733887 211.79112243652344 C12.404987335205078 211.78363037109375 12.42424488067627 211.77615356445312 12.443502426147461 211.76866149902344 L12.459551811218262 211.585693359375"></path>
<path fill="none" stroke="black" stroke-width=".3" stroke-opacity="1.0"  filling="0" d="M17.1489315032959 211.61778259277344 L17.03337860107422 211.82000732421875 L17.1489315032959 211.61778259277344"></path>
<path fill="none" stroke="black" stroke-width=".3" stroke-opacity="1.0"  filling="0" d="M10.556196212768555 211.76544189453125 L10.58187484741211 211.9933319091797 L10.556196212768555 211.76544189453125"></path>
<path fill="none" stroke="black" stroke-width=".3" stroke-opacity="1.0"  filling="0" d="M16.892154693603516 211.79112243652344 L16.77981185913086 211.9901123046875 L16.892154693603516 211.79112243652344"></path>
<path fill="none" stroke="black" stroke-width=".3" stroke-opacity="1.0"  filling="0" d="M16.635377883911133 211.96121215820312 L16.523038864135742 212.16343688964844 L16.635377883911133 211.96121215820312"></path>
<path fill="none" stroke="black" stroke-width=".3" stroke-opacity="1.0"  filling="0" d="M16.243793487548828 211.99652099609375 L16.243793487548828 211.99652099609375 C16.692623138427734 212.4640655517578 16.412769317626953 212.8092041015625 15.932451248168945 212.3239288330078 L15.94849967956543 212.22122192382812 C16.04693031311035 212.1463165283203 16.145362854003906 212.07142639160156 16.243793487548828 211.99652099609375 L16.243793487548828 211.99652099609375"></path>
<path fill="none" stroke="black" stroke-width=".3" stroke-opacity="1.0"  filling="0" d="M12.857555389404297 212.03504943847656 L13.056560516357422 212.1505889892578 L12.857555389404297 212.03504943847656"></path>
<path fill="none" stroke="black" stroke-width=".3" stroke-opacity="1.0"  filling="0" d="M10.450277328491211 212.0543212890625 L10.475954055786133 212.28221130371094 L10.450277328491211 212.0543212890625"></path>
<path fill="none" stroke="black" stroke-width=".3" stroke-opacity="1.0"  filling="0" d="M13.165687561035156 212.0543212890625 L13.364693641662598 212.1698455810547 L13.165687561035156 212.0543212890625"></path>
<path fill="none" stroke="black" stroke-width=".3" stroke-opacity="1.0"  filling="0" d="M13.4738187789917 212.07359313964844 L13.672822952270508 212.1891326904297 L13.4738187789917 212.07359313964844"></path>
<path fill="none" stroke="black" stroke-width=".3" stroke-opacity="1.0"  filling="0" d="M13.781951904296875 212.0928497314453 L13.980956077575684 212.2052001953125 L13.781951904296875 212.0928497314453"></path>
<path fill="none" stroke="black" stroke-width=".3" stroke-opacity="1.0"  filling="0" d="M14.090084075927734 212.10890197753906 L14.285879135131836 212.22445678710938 L14.090082168579102 212.10890197753906"></path>
<path fill="none" stroke="black" stroke-width=".3" stroke-opacity="1.0"  filling="0" d="M14.395004272460938 212.128173828125 L14.594009399414062 212.2436981201172 L14.395004272460938 212.128173828125"></path>
<path fill="none" stroke="black" stroke-width=".3" stroke-opacity="1.0"  filling="0" d="M14.70313549041748 212.14743041992188 L14.902142524719238 212.26296997070312 L14.70313549041748 212.14743041992188"></path>
<path fill="none" stroke="black" stroke-width=".3" stroke-opacity="1.0"  filling="0" d="M15.01126766204834 212.1667022705078 L15.210272789001465 212.27903747558594 L15.01126766204834 212.1667022705078"></path>
<path fill="none" stroke="black" stroke-width=".3" stroke-opacity="1.0"  filling="0" d="M15.319397926330566 212.1827392578125 L15.51840591430664 212.2982940673828 L15.319397926330566 212.1827392578125"></path>
<path fill="none" stroke="black" stroke-width=".3" stroke-opacity="1.0"  filling="0" d="M15.627531051635742 212.2020263671875 L15.826536178588867 212.31756591796875 L15.627531051635742 212.2020263671875"></path>
<path fill="none" stroke="black" stroke-width=".3" stroke-opacity="1.0"  filling="0" d="M10.344356536865234 212.34324645996094 L10.370035171508789 212.57113647460938 L10.344356536865234 212.34324645996094"></path>
<path fill="none" stroke="black" stroke-width=".3" stroke-opacity="1.0"  filling="0" d="M12.327953338623047 212.49411010742188 L12.3921480178833 212.715576171875 L12.327953338623047 212.49411010742188"></path>
<path fill="none" stroke="black" stroke-width=".3" stroke-opacity="1.0"  filling="0" d="M10.23522663116455 212.6321258544922 L10.260905265808105 212.86001586914062 L10.23522663116455 212.6321258544922"></path>
<path fill="none" stroke="black" stroke-width=".3" stroke-opacity="1.0"  filling="0" d="M12.27338981628418 212.79580688476562 L12.334373474121094 213.0172882080078 L12.27338981628418 212.79580688476562"></path>
<path fill="none" stroke="black" stroke-width=".3" stroke-opacity="1.0"  filling="0" d="M10.12930679321289 212.92098999023438 L10.154985427856445 213.1488800048828 L10.12930679321289 212.92098999023438"></path>
<path fill="none" stroke="black" stroke-width=".3" stroke-opacity="1.0"  filling="0" d="M12.215614318847656 213.10073852539062 L12.276599884033203 213.3222198486328 L12.215614318847656 213.10073852539062"></path>
<path fill="none" stroke="black" stroke-width=".3" stroke-opacity="1.0"  filling="0" d="M10.02338695526123 213.20986938476562 L10.049064636230469 213.43777465820312 L10.02338695526123 213.20986938476562"></path>
<path fill="none" stroke="black" stroke-width=".3" stroke-opacity="1.0"  filling="0" d="M12.157840728759766 213.40245056152344 L12.218823432922363 213.62393188476562 L12.157840728759766 213.40245056152344"></path>
<path fill="none" stroke="black" stroke-width=".3" stroke-opacity="1.0"  filling="0" d="M9.91746711730957 213.49874877929688 L9.943142890930176 213.72662353515625 L9.91746711730957 213.49874877929688"></path>
<path fill="none" stroke="black" stroke-width=".3" stroke-opacity="1.0"  filling="0" d="M12.100065231323242 213.7041778564453 L12.164259910583496 213.92562866210938 L12.100065231323242 213.70416259765625"></path>
<path fill="none" stroke="black" stroke-width=".3" stroke-opacity="1.0"  filling="0" d="M9.811544418334961 213.78761291503906 L9.837223052978516 214.01551818847656 L9.811544418334961 213.78761291503906"></path>
<path fill="none" stroke="black" stroke-width=".3" stroke-opacity="1.0"  filling="0" d="M12.042291641235352 214.00906372070312 L12.106485366821289 214.2273406982422 L12.042291641235352 214.0090789794922"></path>
<path fill="none" stroke="black" stroke-width=".3" stroke-opacity="1.0"  filling="0" d="M9.705625534057617 214.0764923095703 L9.731302261352539 214.30758666992188 L9.705625534057617 214.0764923095703"></path>
<path fill="none" stroke="black" stroke-width=".3" stroke-opacity="1.0"  filling="0" d="M11.984516143798828 214.310791015625 L12.04870891571045 214.53228759765625 L11.984516143798828 214.310791015625"></path>
<path fill="none" stroke="black" stroke-width=".3" stroke-opacity="1.0"  filling="0" d="M9.599705696105957 214.36856079101562 L9.625383377075195 214.59645080566406 L9.599705696105957 214.36856079101562"></path>
<path fill="none" stroke="black" stroke-width=".3" stroke-opacity="1.0"  filling="0" d="M11.926739692687988 214.6125030517578 L11.990935325622559 214.833984375 L11.926739692687988 214.6125030517578"></path>
<path fill="none" stroke="black" stroke-width=".3" stroke-opacity="1.0"  filling="0" d="M9.493785858154297 214.65744018554688 L9.423172950744629 214.85003662109375 C9.54918098449707 215.0530548095703 9.717418670654297 215.29049682617188 9.667110443115234 215.52407836914062 L9.615754127502441 215.6139373779297 C8.577642440795898 216.16647338867188 8.535069465637207 214.63929748535156 9.419963836669922 214.85003662109375 L9.493785858154297 214.65744018554688"></path>
<path fill="none" stroke="black" stroke-width=".3" stroke-opacity="1.0"  filling="0" d="M11.872176170349121 214.91741943359375 L11.933159828186035 215.1356964111328 L11.872176170349121 214.9174346923828"></path>
<path fill="none" stroke="black" stroke-width=".3" stroke-opacity="1.0"  filling="0" d="M11.814400672912598 215.21914672851562 L11.875386238098145 215.4406280517578 L11.814400672912598 215.21914672851562"></path>
<path fill="none" stroke="black" stroke-width=".3" stroke-opacity="1.0"  filling="0" d="M11.756628036499023 215.52084350585938 L11.817610740661621 215.74232482910156 L11.756628036499023 215.52084350585938"></path>
<path fill="none" stroke="black" stroke-width=".3" stroke-opacity="1.0"  filling="0" d="M9.853271484375 215.65565490722656 L9.965612411499023 215.8578643798828 L9.853271484375 215.65565490722656"></path>
<path fill="none" stroke="black" stroke-width=".3" stroke-opacity="1.0"  filling="0" d="M9.095781326293945 215.82577514648438 L9.137508392333984 216.0536651611328 L9.095781326293945 215.82577514648438"></path>
<path fill="none" stroke="black" stroke-width=".3" stroke-opacity="1.0"  filling="0" d="M11.698850631713867 215.82571411132812 L11.75983715057373 216.0439910888672 L11.698850631713867 215.82577514648438"></path>
<path fill="none" stroke="black" stroke-width=".3" stroke-opacity="1.0"  filling="0" d="M10.10683822631836 215.8321990966797 L10.215968132019043 216.03439331054688 L10.10683822631836 215.8321990966797"></path>
<path fill="none" stroke="black" stroke-width=".3" stroke-opacity="1.0"  filling="0" d="M10.360405921936035 216.0087127685547 L10.469534873962402 216.2109375 L10.360405921936035 216.0087127685547"></path>
<path fill="none" stroke="black" stroke-width=".3" stroke-opacity="1.0"  filling="0" d="M9.012330055236816 216.1210479736328 L9.050847053527832 216.34896850585938 L9.012330055236816 216.1210479736328"></path>
<path fill="none" stroke="black" stroke-width=".3" stroke-opacity="1.0"  filling="0" d="M11.641077995300293 216.12754821777344 L11.705270767211914 216.34898376464844 L11.641077995300293 216.12754821777344"></path>
<path fill="none" stroke="black" stroke-width=".3" stroke-opacity="1.0"  filling="0" d="M10.610762596130371 216.18531799316406 L10.719891548156738 216.38754272460938 L10.610762596130371 216.18531799316406"></path>
<path fill="none" stroke="black" stroke-width=".3" stroke-opacity="1.0"  filling="0" d="M10.864328384399414 216.3618621826172 L10.973459243774414 216.56407165527344 L10.864328384399414 216.3618621826172"></path>
<path fill="none" stroke="black" stroke-width=".3" stroke-opacity="1.0"  filling="0" d="M11.493431091308594 216.381103515625 L11.493431091308594 216.381103515625 C12.544374465942383 217.4690704345703 10.887893676757812 217.4483184814453 11.085798263549805 216.64430236816406 L11.140363693237305 216.5543975830078 C11.258052825927734 216.4966278076172 11.375741958618164 216.4388427734375 11.493431091308594 216.38107299804688 L11.493431091308594 216.38107299804688"></path>
<path fill="none" stroke="black" stroke-width=".3" stroke-opacity="1.0"  filling="0" d="M8.925668716430664 216.41958618164062 L8.96739387512207 216.64427185058594 L8.925668716430664 216.41958618164062"></path>
<path fill="none" stroke="black" stroke-width=".3" stroke-opacity="1.0"  filling="0" d="M18.882171630859375 216.4356231689453 L18.882171630859375 216.4356231689453 C19.0221004486084 216.5798797607422 19.1608829498291 216.8253631591797 19.074752807617188 217.00694274902344 L18.98809051513672 217.05828857421875 C18.34174156188965 217.17552185058594 18.700265884399414 216.62506103515625 18.882171630859375 216.43557739257812 L18.882171630859375 216.43557739257812"></path>
<path fill="none" stroke="black" stroke-width=".3" stroke-opacity="1.0"  filling="0" d="M8.839005470275879 216.71482849121094 L8.880732536315918 216.93951416015625 L8.839005470275879 216.71482849121094"></path>
<path fill="none" stroke="black" stroke-width=".3" stroke-opacity="1.0"  filling="0" d="M8.75555419921875 217.01011657714844 L8.797280311584473 217.23797607421875 L8.75555419921875 217.01011657714844"></path>
<path fill="none" stroke="black" stroke-width=".3" stroke-opacity="1.0"  filling="0" d="M19.16463279724121 217.1257781982422 L19.273761749267578 217.2734375 C20.002229690551758 217.1150360107422 19.941255569458008 218.24887084960938 19.19672966003418 218.01486206054688 L19.11968994140625 217.94732666015625 C19.04645538330078 217.75204467773438 19.088823318481445 217.51187133789062 19.18067169189453 217.3246307373047 L19.164623260498047 217.12564086914062"></path>
<path fill="none" stroke="black" stroke-width=".3" stroke-opacity="1.0"  filling="0" d="M8.668891906738281 217.30538940429688 L8.710617065429688 217.5332794189453 L8.668891906738281 217.30538940429688"></path>
<path fill="none" stroke="black" stroke-width=".3" stroke-opacity="1.0"  filling="0" d="M11.342575073242188 217.3086395263672 L11.368252754211426 217.53973388671875 L11.342575073242188 217.3086395263672"></path>
<path fill="none" stroke="black" stroke-width=".3" stroke-opacity="1.0"  filling="0" d="M11.236655235290527 217.60072326660156 L11.262332916259766 217.82859802246094 L11.236655235290527 217.60072326660156"></path>
<path fill="none" stroke="black" stroke-width=".3" stroke-opacity="1.0"  filling="0" d="M8.582228660583496 217.60394287109375 L8.623955726623535 217.82862854003906 L8.582228660583496 217.60394287109375"></path>
<path fill="none" stroke="black" stroke-width=".3" stroke-opacity="1.0"  filling="0" d="M11.127525329589844 217.8896026611328 L11.153203010559082 218.11752319335938 L11.127525329589844 217.8896026611328"></path>
<path fill="none" stroke="black" stroke-width=".3" stroke-opacity="1.0"  filling="0" d="M8.498777389526367 217.89932250976562 L8.540504455566406 218.12400817871094 L8.498777389526367 217.89932250976562"></path>
<path fill="none" stroke="black" stroke-width=".3" stroke-opacity="1.0"  filling="0" d="M19.029815673828125 218.0245361328125 L18.939943313598633 218.23634338378906 L19.029815673828125 218.0245361328125"></path>
<path fill="none" stroke="black" stroke-width=".3" stroke-opacity="1.0"  filling="0" d="M11.021604537963867 218.1785888671875 L11.047283172607422 218.40647888183594 L11.021604537963867 218.1785888671875"></path>
<path fill="none" stroke="black" stroke-width=".3" stroke-opacity="1.0"  filling="0" d="M8.412116050720215 218.19456481933594 L8.453840255737305 218.41925048828125 L8.412116050720215 218.19456481933594"></path>
<path fill="none" stroke="black" stroke-width=".3" stroke-opacity="1.0"  filling="0" d="M18.795507431030273 218.22666931152344 L18.708845138549805 218.43850708007812 L18.795507431030273 218.22666931152344"></path>
<path fill="none" stroke="black" stroke-width=".3" stroke-opacity="1.0"  filling="0" d="M18.564409255981445 218.42568969726562 L18.474538803100586 218.63751220703125 L18.564409255981445 218.42568969726562"></path>
<path fill="none" stroke="black" stroke-width=".3" stroke-opacity="1.0"  filling="0" d="M10.915684700012207 218.46739196777344 L10.941360473632812 218.69529724121094 L10.915684700012207 218.46739196777344"></path>
<path fill="none" stroke="black" stroke-width=".3" stroke-opacity="1.0"  filling="0" d="M8.32545280456543 218.48985290527344 L8.367179870605469 218.71775817871094 L8.32545280456543 218.48985290527344"></path>
<path fill="none" stroke="black" stroke-width=".3" stroke-opacity="1.0"  filling="0" d="M18.330101013183594 218.62786865234375 L18.2402286529541 218.83973693847656 L18.330101013183594 218.62786865234375"></path>
<path fill="none" stroke="black" stroke-width=".3" stroke-opacity="1.0"  filling="0" d="M10.809762954711914 218.7562713623047 L10.832231521606445 218.98414611816406 L10.809762954711914 218.7562713623047"></path>
<path fill="none" stroke="black" stroke-width=".3" stroke-opacity="1.0"  filling="0" d="M8.242000579833984 218.78836059570312 L8.283727645874023 219.0130615234375 L8.242000579833984 218.78836059570312"></path>
<path fill="none" stroke="black" stroke-width=".3" stroke-opacity="1.0"  filling="0" d="M18.095792770385742 218.83010864257812 L18.00592041015625 219.04193115234375 L18.095792770385742 218.83010864257812"></path>
<path fill="none" stroke="black" stroke-width=".3" stroke-opacity="1.0"  filling="0" d="M17.86148452758789 219.0290985107422 L17.774822235107422 219.2409210205078 L17.86148452758789 219.0290985107422"></path>
<path fill="none" stroke="black" stroke-width=".3" stroke-opacity="1.0"  filling="0" d="M10.70063304901123 219.0450897216797 L10.726311683654785 219.27296447753906 L10.70063304901123 219.0450897216797"></path>
<path fill="none" stroke="black" stroke-width=".3" stroke-opacity="1.0"  filling="0" d="M8.155340194702148 219.08360290527344 L8.197064399719238 219.30828857421875 L8.155340194702148 219.08360290527344"></path>
<path fill="none" stroke="black" stroke-width=".3" stroke-opacity="1.0"  filling="0" d="M17.630386352539062 219.23123168945312 L17.540512084960938 219.44308471679688 L17.630386352539062 219.23123168945312"></path>
<path fill="none" stroke="black" stroke-width=".3" stroke-opacity="1.0"  filling="0" d="M10.594714164733887 219.33396911621094 L10.620390892028809 219.5618438720703 L10.594714164733887 219.33396911621094"></path>
<path fill="none" stroke="black" stroke-width=".3" stroke-opacity="1.0"  filling="0" d="M8.068675994873047 219.37890625 L8.110403060913086 219.60357666015625 L8.068675994873047 219.37890625"></path>
<path fill="none" stroke="black" stroke-width=".3" stroke-opacity="1.0"  filling="0" d="M17.39607810974121 219.43344116210938 L17.306203842163086 219.6453094482422 L17.39607810974121 219.43344116210938"></path>
<path fill="none" stroke="black" stroke-width=".3" stroke-opacity="1.0"  filling="0" d="M10.48879337310791 219.62281799316406 L10.511261940002441 219.85072326660156 L10.48879337310791 219.62281799316406"></path>
<path fill="none" stroke="black" stroke-width=".3" stroke-opacity="1.0"  filling="0" d="M17.161767959594727 219.63253784179688 L17.07510757446289 219.84439086914062 L17.161767959594727 219.63253784179688"></path>
<path fill="none" stroke="black" stroke-width=".3" stroke-opacity="1.0"  filling="0" d="M7.98522424697876 219.67428588867188 L8.02695083618164 219.90216064453125 L7.98522424697876 219.67428588867188"></path>
<path fill="none" stroke="black" stroke-width=".3" stroke-opacity="1.0"  filling="0" d="M16.927459716796875 219.8347625732422 L16.840797424316406 220.04660034179688 L16.927459716796875 219.8347625732422"></path>
<path fill="none" stroke="black" stroke-width=".3" stroke-opacity="1.0"  filling="0" d="M10.379650115966797 219.91184997558594 L10.405329704284668 220.13973999023438 C10.850362777709961 220.87596130371094 10.38272476196289 221.23411560058594 9.737709999084473 220.58909606933594 L9.74093246459961 220.48960876464844 C9.913056373596191 220.33795166015625 10.082062721252441 220.06793212890625 10.309049606323242 220.10116577148438 L10.379664421081543 219.9117889404297"></path>
<path fill="none" stroke="black" stroke-width=".3" stroke-opacity="1.0"  filling="0" d="M7.898571014404297 219.96949768066406 L7.982023239135742 220.05616760253906 C8.13932991027832 220.34400939941406 8.118645668029785 220.7362518310547 7.677102088928223 220.6114501953125 L7.596858501434326 220.54725646972656 C7.512635231018066 220.33021545410156 7.484577655792236 219.9750518798828 7.885732173919678 220.01771545410156 L7.898562431335449 219.9695587158203"></path>
<path fill="none" stroke="black" stroke-width=".3" stroke-opacity="1.0"  filling="0" d="M16.696361541748047 220.0369873046875 L16.606491088867188 220.24880981445312 L16.696361541748047 220.0369873046875"></path>
<path fill="none" stroke="black" stroke-width=".3" stroke-opacity="1.0"  filling="0" d="M16.462051391601562 220.23597717285156 L16.372182846069336 220.44781494140625 L16.462051391601562 220.23597717285156"></path>
<path fill="none" stroke="black" stroke-width=".3" stroke-opacity="1.0"  filling="0" d="M16.041580200195312 220.3226318359375 L16.041580200195312 220.3226318359375 C16.76531219482422 221.07650756835938 15.312504768371582 221.07424926757812 16.041580200195312 220.3226318359375 L16.041580200195312 220.3226318359375"></path>
<path fill="none" stroke="black" stroke-width=".3" stroke-opacity="1.0"  filling="0" d="M8.187433242797852 220.338623046875 L8.383221626281738 220.46055603027344 L8.187435150146484 220.338623046875"></path>
<path fill="none" stroke="black" stroke-width=".3" stroke-opacity="1.0"  filling="0" d="M8.495553970336914 220.3675079345703 L8.68814468383789 220.4894256591797 L8.495567321777344 220.3675079345703"></path>
<path fill="none" stroke="black" stroke-width=".3" stroke-opacity="1.0"  filling="0" d="M8.800490379333496 220.3964080810547 L8.99627685546875 220.51832580566406 L8.800490379333496 220.3964080810547"></path>
<path fill="none" stroke="black" stroke-width=".3" stroke-opacity="1.0"  filling="0" d="M9.108623504638672 220.42527770996094 L9.30440902709961 220.54721069335938 L9.108620643615723 220.42527770996094"></path>
<path fill="none" stroke="black" stroke-width=".3" stroke-opacity="1.0"  filling="0" d="M9.413543701171875 220.45413208007812 L9.609330177307129 220.5760955810547 L9.413543701171875 220.45416259765625"></path>
<path fill="none" stroke="black" stroke-width=".3" stroke-opacity="1.0"  filling="0" d="M7.439576148986816 220.7141571044922 L7.372170925140381 220.9356231689453 L7.439576148986816 220.7141571044922"></path>
<path fill="none" stroke="black" stroke-width=".3" stroke-opacity="1.0"  filling="0" d="M15.720610618591309 220.7430419921875 L15.569754600524902 220.91957092285156 L15.720610618591309 220.7430419921875"></path>
<path fill="none" stroke="black" stroke-width=".3" stroke-opacity="1.0"  filling="0" d="M10.674958229064941 220.81365966796875 L10.800135612487793 221.00624084472656 L10.674958229064941 220.81365966796875"></path>
<path fill="none" stroke="black" stroke-width=".3" stroke-opacity="1.0"  filling="0" d="M15.434947967529297 220.86502075195312 L15.287300109863281 221.038330078125 L15.434947967529297 220.86502075195312"></path>
<path fill="none" stroke="black" stroke-width=".3" stroke-opacity="1.0"  filling="0" d="M7.227733612060547 220.94203186035156 L7.163540840148926 221.16030883789062 L7.227733612060547 220.94203186035156"></path>
<path fill="none" stroke="black" stroke-width=".3" stroke-opacity="1.0"  filling="0" d="M10.941360473632812 220.97091674804688 L11.063329696655273 221.1634979248047 L10.941360473632812 220.97091674804688"></path>
<path fill="none" stroke="black" stroke-width=".3" stroke-opacity="1.0"  filling="0" d="M15.152496337890625 220.9868927001953 L15.00484848022461 221.1602325439453 L15.152496337890625 220.9868927001953"></path>
<path fill="none" stroke="black" stroke-width=".3" stroke-opacity="1.0"  filling="0" d="M14.870039939880371 221.10568237304688 L14.722393989562988 221.28219604492188 L14.870039939880371 221.10568237304688"></path>
<path fill="none" stroke="black" stroke-width=".3" stroke-opacity="1.0"  filling="0" d="M11.204557418823242 221.12814331054688 L11.326525688171387 221.32073974609375 L11.204557418823242 221.12814331054688"></path>
<path fill="none" stroke="black" stroke-width=".3" stroke-opacity="1.0"  filling="0" d="M7.019103527069092 221.16665649414062 L6.951699256896973 221.38491821289062 L7.019103527069092 221.16665649414062"></path>
<path fill="none" stroke="black" stroke-width=".3" stroke-opacity="1.0"  filling="0" d="M14.58758544921875 221.22763061523438 L14.436729431152344 221.4041748046875 L14.58758544921875 221.22763061523438"></path>
<path fill="none" stroke="black" stroke-width=".3" stroke-opacity="1.0"  filling="0" d="M11.467752456665039 221.28541564941406 L11.592931747436523 221.48118591308594 L11.467752456665039 221.28541564941406"></path>
<path fill="none" stroke="black" stroke-width=".3" stroke-opacity="1.0"  filling="0" d="M14.301921844482422 221.34959411621094 L14.154275894165039 221.52615356445312 L14.301921844482422 221.34959411621094"></path>
<path fill="none" stroke="black" stroke-width=".3" stroke-opacity="1.0"  filling="0" d="M6.8072638511657715 221.39134216308594 L6.743068695068359 221.61280822753906 L6.8072638511657715 221.39134216308594"></path>
<path fill="none" stroke="black" stroke-width=".3" stroke-opacity="1.0"  filling="0" d="M11.734158515930176 221.44268798828125 L11.85612678527832 221.63848876953125 L11.734158515930176 221.44268798828125"></path>
<path fill="none" stroke="black" stroke-width=".3" stroke-opacity="1.0"  filling="0" d="M14.019469261169434 221.47157287597656 L13.871822357177734 221.6448974609375 L14.019469261169434 221.47157287597656"></path>
<path fill="none" stroke="black" stroke-width=".3" stroke-opacity="1.0"  filling="0" d="M13.737013816833496 221.59353637695312 L13.589367866516113 221.76687622070312 L13.737013816833496 221.59353637695312"></path>
<path fill="none" stroke="black" stroke-width=".3" stroke-opacity="1.0"  filling="0" d="M11.997354507446289 221.60325622558594 L12.122533798217773 221.79583740234375 L11.997354507446289 221.60325622558594"></path>
<path fill="none" stroke="black" stroke-width=".3" stroke-opacity="1.0"  filling="0" d="M6.598631381988525 221.61599731445312 L6.531228542327881 221.83749389648438 L6.598631381988525 221.61599731445312"></path>
<path fill="none" stroke="black" stroke-width=".3" stroke-opacity="1.0"  filling="0" d="M13.454559326171875 221.71229553222656 L13.303703308105469 221.88882446289062 L13.454559326171875 221.71229553222656"></path>
<path fill="none" stroke="black" stroke-width=".3" stroke-opacity="1.0"  filling="0" d="M12.263761520385742 221.7604522705078 L12.385729789733887 221.95303344726562 L12.263761520385742 221.7604522705078"></path>
<path fill="none" stroke="black" stroke-width=".3" stroke-opacity="1.0"  filling="0" d="M12.777311325073242 221.79241943359375 L12.777311325073242 221.79241943359375 C12.850064277648926 221.8309326171875 12.922818183898926 221.86944580078125 12.99557113647461 221.907958984375 L13.037297248840332 222.00425720214844 C13.107634544372559 222.40902709960938 12.477367401123047 222.51072692871094 12.507698059082031 222.0267333984375 L12.543004989624023 221.92733764648438 C12.621108055114746 221.8824005126953 12.699210166931152 221.8374786376953 12.777313232421875 221.79254150390625 L12.777313232421875 221.79254150390625"></path>
<path fill="none" stroke="black" stroke-width=".3" stroke-opacity="1.0"  filling="0" d="M6.386792182922363 221.84066772460938 L6.322596549987793 222.06214904785156 L6.386792182922363 221.84066772460938"></path>
<path fill="none" stroke="black" stroke-width=".3" stroke-opacity="1.0"  filling="0" d="M6.178157329559326 222.0686798095703 L6.130011081695557 222.26766967773438 C6.452038764953613 222.945068359375 6.029586315155029 223.2836151123047 5.404618263244629 222.88711547851562 L5.385364055633545 222.8421173095703 C5.306727886199951 222.43467712402344 5.647453308105469 222.1123504638672 6.043354034423828 222.20980834960938 L6.178162097930908 222.06858825683594"></path>
<path fill="none" stroke="black" stroke-width=".3" stroke-opacity="1.0"  filling="0" d="M13.066184997558594 222.17770385742188 L13.233091354370117 222.33497619628906 L13.066184997558594 222.17770385742188"></path>
<path fill="none" stroke="black" stroke-width=".3" stroke-opacity="1.0"  filling="0" d="M13.361478805541992 222.26759338378906 L13.5283842086792 222.42486572265625 L13.361478805541992 222.26759338378906"></path>
<path fill="none" stroke="black" stroke-width=".3" stroke-opacity="1.0"  filling="0" d="M13.65677261352539 222.35743713378906 L13.823675155639648 222.5179443359375 L13.65677261352539 222.35743713378906"></path>
<path fill="none" stroke="black" stroke-width=".3" stroke-opacity="1.0"  filling="0" d="M13.952064514160156 222.44732666015625 L14.118968963623047 222.60781860351562 L13.952064514160156 222.44732666015625"></path>
<path fill="none" stroke="black" stroke-width=".3" stroke-opacity="1.0"  filling="0" d="M14.247358322143555 222.53720092773438 L14.411053657531738 222.6976776123047 L14.247358322143555 222.53720092773438"></path>
<path fill="none" stroke="black" stroke-width=".3" stroke-opacity="1.0"  filling="0" d="M14.53943920135498 222.62705993652344 L14.706344604492188 222.7875518798828 L14.53943920135498 222.62705993652344"></path>
<path fill="none" stroke="black" stroke-width=".3" stroke-opacity="1.0"  filling="0" d="M14.834732055664062 222.7201385498047 L15.001638412475586 222.87742614746094 L14.834732055664062 222.7201385498047"></path>
<path fill="none" stroke="black" stroke-width=".3" stroke-opacity="1.0"  filling="0" d="M15.130026817321777 222.81002807617188 L15.296930313110352 222.96728515625 L15.130026817321777 222.81002807617188"></path>
<path fill="none" stroke="black" stroke-width=".3" stroke-opacity="1.0"  filling="0" d="M15.425317764282227 222.89988708496094 L15.592222213745117 223.0571746826172 L15.425317764282227 222.89988708496094"></path>
<path fill="none" stroke="black" stroke-width=".3" stroke-opacity="1.0"  filling="0" d="M5.298702716827393 222.92237854003906 L5.208829879760742 223.13418579101562 L5.298702716827393 222.92237854003906"></path>
<path fill="none" stroke="black" stroke-width=".3" stroke-opacity="1.0"  filling="0" d="M15.720610618591309 222.98974609375 L15.884306907653809 223.14703369140625 L15.720610618591309 222.98974609375"></path>
<path fill="none" stroke="black" stroke-width=".3" stroke-opacity="1.0"  filling="0" d="M16.0126953125 223.0796356201172 L16.179597854614258 223.23690795898438 L16.0126953125 223.0796356201172"></path>
<path fill="none" stroke="black" stroke-width=".3" stroke-opacity="1.0"  filling="0" d="M5.064394950866699 223.1245574951172 L4.977731227874756 223.33642578125 L5.064394950866699 223.1245574951172"></path>
<path fill="none" stroke="black" stroke-width=".3" stroke-opacity="1.0"  filling="0" d="M16.307987213134766 223.16952514648438 L16.474891662597656 223.3267822265625 L16.307987213134766 223.16952514648438"></path>
<path fill="none" stroke="black" stroke-width=".3" stroke-opacity="1.0"  filling="0" d="M16.603281021118164 223.25938415527344 L16.770183563232422 223.4198455810547 L16.603281021118164 223.25938415527344"></path>
<path fill="none" stroke="black" stroke-width=".3" stroke-opacity="1.0"  filling="0" d="M4.83329439163208 223.3267822265625 L4.7466325759887695 223.53860473632812 L4.83329439163208 223.3267822265625"></path>
<path fill="none" stroke="black" stroke-width=".3" stroke-opacity="1.0"  filling="0" d="M16.89857292175293 223.34922790527344 L17.065479278564453 223.50973510742188 L16.89857292175293 223.34922790527344"></path>
<path fill="none" stroke="black" stroke-width=".3" stroke-opacity="1.0"  filling="0" d="M17.193864822387695 223.4391326904297 L17.357559204101562 223.59962463378906 L17.193864822387695 223.4391326904297"></path>
<path fill="none" stroke="black" stroke-width=".3" stroke-opacity="1.0"  filling="0" d="M4.602195739746094 223.52899169921875 L4.515533924102783 223.7408447265625 L4.602195739746094 223.52899169921875"></path>
<path fill="none" stroke="black" stroke-width=".3" stroke-opacity="1.0"  filling="0" d="M17.48594856262207 223.5322265625 L17.65285301208496 223.68951416015625 L17.48594856262207 223.5322265625"></path>
<path fill="none" stroke="black" stroke-width=".3" stroke-opacity="1.0"  filling="0" d="M17.781240463256836 223.62210083007812 L17.948144912719727 223.77935791015625 L17.781240463256836 223.62210083007812"></path>
<path fill="none" stroke="black" stroke-width=".3" stroke-opacity="1.0"  filling="0" d="M4.079004287719727 223.6253662109375 L4.079004287719727 223.6253662109375 C4.219854831695557 223.77076721191406 5.2082905769348145 224.77040100097656 3.98592472076416 224.64276123046875 L3.886432647705078 224.61073303222656 C3.706132411956787 224.32876586914062 3.8469269275665283 223.86647033691406 4.079013824462891 223.62533569335938 L4.079013824462891 223.62533569335938"></path>
<path fill="none" stroke="black" stroke-width=".3" stroke-opacity="1.0"  filling="0" d="M18.076534271240234 223.71200561523438 L18.243440628051758 223.86929321289062 L18.076534271240234 223.71200561523438"></path>
<path fill="none" stroke="black" stroke-width=".3" stroke-opacity="1.0"  filling="0" d="M18.371828079223633 223.8018798828125 L18.53873062133789 223.95913696289062 L18.371828079223633 223.8018798828125"></path>
<path fill="none" stroke="black" stroke-width=".3" stroke-opacity="1.0"  filling="0" d="M18.6671199798584 223.89173889160156 L18.830814361572266 224.0490264892578 L18.6671199798584 223.89173889160156"></path>
<path fill="none" stroke="black" stroke-width=".3" stroke-opacity="1.0"  filling="0" d="M18.959203720092773 223.9816131591797 L19.126108169555664 224.13890075683594 L18.959203720092773 223.9816131591797"></path>
<path fill="none" stroke="black" stroke-width=".3" stroke-opacity="1.0"  filling="0" d="M19.25449562072754 224.0714874267578 L19.421401977539062 224.2319793701172 L19.25449562072754 224.0714874267578"></path>
<path fill="none" stroke="black" stroke-width=".3" stroke-opacity="1.0"  filling="0" d="M19.549787521362305 224.161376953125 L19.716693878173828 224.32183837890625 L19.549787521362305 224.161376953125"></path>
<path fill="none" stroke="black" stroke-width=".3" stroke-opacity="1.0"  filling="0" d="M19.845083236694336 224.25123596191406 L20.011987686157227 224.4117431640625 L19.845083236694336 224.25123596191406"></path>
<path fill="none" stroke="black" stroke-width=".3" stroke-opacity="1.0"  filling="0" d="M20.474184036254883 224.26724243164062 L20.474184036254883 224.26724243164062 C20.782100677490234 224.58912658691406 20.589365005493164 224.8256072998047 20.262344360351562 224.4886932373047 L20.284809112548828 224.38600158691406 C20.34793472290039 224.34642028808594 20.41105842590332 224.30682373046875 20.474184036254883 224.26724243164062 L20.474184036254883 224.26724243164062"></path>
<path fill="none" stroke="black" stroke-width=".3" stroke-opacity="1.0"  filling="0" d="M21.25092315673828 224.55934143066406 L21.25092315673828 224.55934143066406 C21.944538116455078 225.28184509277344 20.902408599853516 225.2708740234375 20.945999145507812 224.81289672851562 L20.95884895324707 224.77435302734375 C21.056209564208984 224.70266723632812 21.15357208251953 224.63099670410156 21.250932693481445 224.55931091308594 L21.250932693481445 224.55931091308594"></path>
<path fill="none" stroke="black" stroke-width=".3" stroke-opacity="1.0"  filling="0" d="M20.718120574951172 224.56900024414062 L20.849720001220703 224.7583770751953 L20.718120574951172 224.56900024414062"></path>
<path fill="none" stroke="black" stroke-width=".3" stroke-opacity="1.0"  filling="0" d="M3.854334831237793 224.81298828125 L3.9217405319213867 225.03439331054688 L3.854334831237793 224.81295776367188"></path>
<path fill="none" stroke="black" stroke-width=".3" stroke-opacity="1.0"  filling="0" d="M3.802980422973633 225.1178741455078 L3.8703832626342773 225.33609008789062 L3.802980422973633 225.1178741455078"></path>
<path fill="none" stroke="black" stroke-width=".3" stroke-opacity="1.0"  filling="0" d="M3.7516250610351562 225.4228057861328 L3.8190298080444336 225.64102172851562 L3.7516250610351562 225.4228057861328"></path>
<path fill="none" stroke="black" stroke-width=".3" stroke-opacity="1.0"  filling="0" d="M3.7034807205200195 225.7245330810547 L3.770883560180664 225.9459686279297 L3.7034807205200195 225.7245330810547"></path>
<path fill="none" stroke="black" stroke-width=".3" stroke-opacity="1.0"  filling="0" d="M3.65212345123291 226.02943420410156 L3.7195262908935547 226.24761962890625 L3.65212345123291 226.02943420410156"></path>
<path fill="none" stroke="black" stroke-width=".3" stroke-opacity="1.0"  filling="0" d="M3.6007680892944336 226.33436584472656 L3.668172836303711 226.5525665283203 L3.6007680892944336 226.33436584472656"></path>
<path fill="none" stroke="black" stroke-width=".3" stroke-opacity="1.0"  filling="0" d="M3.54941463470459 226.6360626220703 L3.616816520690918 226.8574981689453 L3.54941463470459 226.6360626220703"></path>
<path fill="none" stroke="black" stroke-width=".3" stroke-opacity="1.0"  filling="0" d="M3.501267433166504 226.94100952148438 L3.5686731338500977 227.15919494628906 L3.501267433166504 226.94097900390625"></path>
<path fill="none" stroke="black" stroke-width=".3" stroke-opacity="1.0"  filling="0" d="M3.44991397857666 227.2459259033203 L3.5173168182373047 227.464111328125 L3.44991397857666 227.2459259033203"></path>
<path fill="none" stroke="black" stroke-width=".3" stroke-opacity="1.0"  filling="0" d="M3.398557662963867 227.54763793945312 L3.472379684448242 227.73374938964844 C4.218860149383545 229.0114288330078 2.235060214996338 227.6130828857422 3.3728790283203125 227.7017059326172 L3.398557662963867 227.547607421875"></path></svg>