<svg xmlns="http://www.w3.org/2000/svg" viewBox="0.0 0.0 24.0 24.0" height="200px" width="200px"><path fill="none" stroke="black" stroke-width=".3" stroke-opacity="1.0"  filling="0" d="M3.9858903884887695 1.2873783111572266 L3.9858903884887695 1.2873783111572266 C3.1317226886749268 1.4996860027313232 2.199295997619629 1.5008480548858643 1.3454179763793945 1.2873783111572266 L1.3454179763793945 1.2873783111572266"></path>
<path fill="none" stroke="black" stroke-width=".3" stroke-opacity="1.0"  filling="0" d="M6.618709087371826 1.2873783111572266 L6.618709087371826 1.2873783111572266 C5.767305850982666 1.5002292394638062 4.83729362487793 1.5002291202545166 3.9858903884887695 1.2873783111572266 L3.9858903884887695 1.2873783111572266"></path>
<path fill="none" stroke="black" stroke-width=".3" stroke-opacity="1.0"  filling="0" d="M9.25918197631836 1.2873783111572266 L9.25918197631836 1.2873783111572266 C8.405014038085938 1.4996858835220337 7.472587585449219 1.5008480548858643 6.618709087371826 1.2873783111572266 L6.618709087371826 1.2873783111572266"></path>
<path fill="none" stroke="black" stroke-width=".3" stroke-opacity="1.0"  filling="0" d="M11.892000198364258 1.2873783111572266 L11.892000198364258 1.2873783111572266 C11.040596961975098 1.5002292394638062 10.11058521270752 1.5002292394638062 9.25918197631836 1.2873783111572266 L9.25918197631836 1.2873783111572266"></path>
<path fill="none" stroke="black" stroke-width=".3" stroke-opacity="1.0"  filling="0" d="M14.524818420410156 1.2873783111572266 L14.524818420410156 1.2873783111572266 C13.673415184020996 1.500229001045227 12.743403434753418 1.5002293586730957 11.892000198364258 1.2873783111572266 L11.892000198364258 1.2873783111572266"></path>
<path fill="none" stroke="black" stroke-width=".3" stroke-opacity="1.0"  filling="0" d="M17.16529083251953 1.2873783111572266 L17.16529083251953 1.2873783111572266 C16.311412811279297 1.5008480548858643 15.378986358642578 1.4996860027313232 14.524818420410156 1.2873783111572266 L14.524818420410156 1.2873783111572266"></path>
<path fill="none" stroke="black" stroke-width=".3" stroke-opacity="1.0"  filling="0" d="M19.79810905456543 1.2873783111572266 L19.79810905456543 1.2873783111572266 C18.946706771850586 1.5002293586730957 18.016693115234375 1.500229001045227 17.16529083251953 1.2873783111572266 L17.16529083251953 1.2873783111572266"></path>
<path fill="none" stroke="black" stroke-width=".3" stroke-opacity="1.0"  filling="0" d="M22.438583374023438 1.2873783111572266 L22.438583374023438 1.2873783111572266 C21.584705352783203 1.5008480548858643 20.65227699279785 1.4996860027313232 19.79810905456543 1.2873783111572266 L19.79810905456543 1.2873783111572266"></path>
<path fill="none" stroke="black" stroke-width=".3" stroke-opacity="1.0"  filling="0" d="M4.503942489624023 207.126220703125 L11.878960609436035 207.126220703125 L19.253978729248047 207.126220703125 L19.253978729248047 213.95782470703125 L15.756908416748047 213.95782470703125 C15.564682006835938 213.32884216308594 15.522263526916504 212.6326446533203 15.180230140686035 212.0708770751953 C14.44566535949707 210.86441040039062 13.162313461303711 210.26116943359375 11.878960609436035 210.26116943359375 C10.59560775756836 210.26116943359375 9.312255859375 210.86441040039062 8.577691078186035 212.0708770751953 C8.235657691955566 212.6326446533203 8.1932373046875 213.32884216308594 8.00101089477539 213.95782470703125 L4.503942489624023 213.95782470703125 L4.503942489624023 207.126220703125"></path>
<path fill="none" stroke="black" stroke-width=".3" stroke-opacity="1.0"  filling="0" d="M4.503942489624023 214.34597778320312 L8.004650115966797 214.34597778320312 C8.608978271484375 216.43951416015625 9.113227844238281 217.0289306640625 11.102643013000488 217.91702270507812 L11.102643013000488 219.93545532226562 L8.385531425476074 219.93545532226562 L8.385531425476074 219.15914916992188 L6.832895755767822 219.15914916992188 L6.832895755767822 219.93545532226562 L4.503942489624023 219.93545532226562 L4.503942489624023 214.34597778320312"></path>
<path fill="none" stroke="black" stroke-width=".3" stroke-opacity="1.0"  filling="0" d="M15.753271102905273 214.34597778320312 L19.253978729248047 214.34597778320312 L19.253978729248047 219.93545532226562 L16.925025939941406 219.93545532226562 L16.925025939941406 219.15914916992188 L15.372390747070312 219.15914916992188 L15.372390747070312 219.93545532226562 L12.655279159545898 219.93545532226562 L12.655279159545898 217.91702270507812 C14.644702911376953 217.0289306640625 15.148940086364746 216.4395294189453 15.753271102905273 214.34597778320312 L15.753271102905273 214.34597778320312"></path>
<path fill="none" stroke="black" stroke-width=".3" stroke-opacity="1.0"  filling="0" d="M7.2210540771484375 219.54730224609375 L7.997373580932617 219.54730224609375 L7.997373580932617 220.32359313964844 L11.296724319458008 220.32359313964844 L11.296724319458008 219.93545532226562 L12.461198806762695 219.93545532226562 L12.461198806762695 220.32359313964844 L15.760549545288086 220.32359313964844 L15.760549545288086 219.54730224609375 L16.536865234375 219.54730224609375 L16.536865234375 220.32359313964844 L19.253978729248047 220.32359313964844 L19.253978729248047 221.4880828857422 L16.536865234375 221.4880828857422 L16.536865234375 222.26441955566406 L15.760549545288086 222.26441955566406 L15.760549545288086 221.4880828857422 L12.461198806762695 221.4880828857422 L12.461198806762695 221.87625122070312 L11.296724319458008 221.87625122070312 L11.296724319458008 221.4880828857422 L7.997373580932617 221.4880828857422 L7.997373580932617 222.26441955566406 L7.2210540771484375 222.26441955566406 L7.2210540771484375 221.4880828857422 L4.503942489624023 221.4880828857422 L4.503942489624023 220.32359313964844 L7.2210540771484375 220.32359313964844 L7.2210540771484375 219.54730224609375"></path>
<path fill="none" stroke="black" stroke-width=".3" stroke-opacity="1.0"  filling="0" d="M11.490801811218262 220.12953186035156 L12.267121315002441 220.32359313964844 L11.490801811218262 220.12953186035156"></path>
<path fill="none" stroke="black" stroke-width=".3" stroke-opacity="1.0"  filling="0" d="M11.490801811218262 221.4880828857422 L12.267121315002441 221.68218994140625 L11.490801811218262 221.4880828857422"></path>
<path fill="none" stroke="black" stroke-width=".3" stroke-opacity="1.0"  filling="0" d="M4.503942489624023 221.87625122070312 L6.833219528198242 221.8759307861328 L6.833219528198242 222.65225219726562 L8.385855674743652 222.65225219726562 L8.385855674743652 221.8759307861328 L11.102967262268066 221.8759307861328 L11.102967262268066 227.8317413330078 C10.61252498626709 227.85568237304688 10.132160186767578 227.80654907226562 9.676473617553711 227.55410766601562 L9.676473617553711 227.55410766601562 C9.3554105758667 227.2687225341797 8.850433349609375 227.84405517578125 8.420866012573242 227.8442840576172 C7.6272873878479 227.84471130371094 6.807775497436523 227.8434295654297 6.012981414794922 227.8434295654297 C5.590272903442383 227.8434295654297 5.185644626617432 227.42428588867188 4.780500411987305 227.5448760986328 L4.780500411987305 227.5448760986328 C4.703518390655518 227.61334228515625 4.596086502075195 227.6367950439453 4.503942489624023 227.68287658691406 L4.503942489624023 221.87625122070312"></path>
<path fill="none" stroke="black" stroke-width=".3" stroke-opacity="1.0"  filling="0" d="M12.655279159545898 221.87625122070312 L15.372532844543457 221.8771514892578 L15.372532844543457 222.65345764160156 L16.925168991088867 222.65345764160156 L16.925168991088867 221.8771514892578 L19.254121780395508 221.8771514892578 L19.254121780395508 227.54547119140625 C18.313703536987305 227.6298828125 16.702733993530273 227.8453826904297 15.644176483154297 227.8453826904297 C15.234246253967285 227.8453826904297 14.86100959777832 227.52157592773438 14.451727867126465 227.5446319580078 C13.759055137634277 227.58363342285156 13.341089248657227 227.85687255859375 12.655279159545898 227.78111267089844 L12.655279159545898 221.87625122070312"></path>
<path fill="none" stroke="black" stroke-width=".3" stroke-opacity="1.0"  filling="0" d="M2.373922348022461 227.72288513183594 L2.372756004333496 227.72935485839844 C2.403751850128174 227.72935485839844 2.4329798221588135 227.74423217773438 2.462522506713867 227.7536163330078 L2.462522506713867 227.7536163330078 C3.359583854675293 227.97450256347656 3.847907781600952 228.26922607421875 4.739401817321777 227.74050903320312 L4.739401817321777 227.74050903320312 C4.739833831787109 227.7397918701172 4.740265846252441 227.7390594482422 4.740697860717773 227.73834228515625 L4.740697860717773 227.73834228515625 C4.769664287567139 227.72964477539062 4.79046106338501 227.7290496826172 4.820749282836914 227.72885131835938 L4.820749282836914 227.72885131835938 C4.821556091308594 227.7295684814453 4.822362422943115 227.7303009033203 4.823169231414795 227.73101806640625 L4.823169231414795 227.73101806640625 C5.601487636566162 227.9220428466797 6.42600154876709 227.728759765625 7.227417945861816 227.728759765625 L7.227417945861816 227.728759765625 C7.228224277496338 227.72947692871094 7.229030132293701 227.73019409179688 7.229836463928223 227.7309112548828 L7.229836463928223 227.7309112548828 C7.250997543334961 227.73553466796875 7.275328159332275 227.744873046875 7.290498733520508 227.7600860595703 L7.290498733520508 227.7600860595703 C8.32026195526123 228.00885009765625 11.018441200256348 227.73306274414062 12.042174339294434 227.7266082763672 L12.042174339294434 227.7266082763672 C12.042981147766113 227.72732543945312 12.043787956237793 227.72805786132812 12.044594764709473 227.72877502441406 L12.044594764709473 227.72877502441406 C12.790693283081055 227.89056396484375 13.592632293701172 227.93711853027344 14.334724426269531 227.7578582763672 L14.334724426269531 227.7578582763672 C14.356263160705566 227.7221221923828 14.414429664611816 227.7254638671875 14.448918342590332 227.7254638671875 L14.448918342590332 227.7254638671875 C14.449724197387695 227.72618103027344 14.450530052185059 227.7268829345703 14.451335906982422 227.72760009765625 L14.451335906982422 227.72760009765625 C14.472893714904785 227.73233032226562 14.496254920959473 227.74093627929688 14.511993408203125 227.7567901611328 L14.511993408203125 227.7567901611328 C15.275992393493652 227.94114685058594 16.31298828125 227.5411834716797 16.881103515625 227.7327423095703 L16.881103515625 227.7327423095703 C16.88153648376465 227.73345947265625 16.881967544555664 227.7341766357422 16.882400512695312 227.73489379882812 L16.882400512695312 227.73489379882812 C17.806610107421875 228.2548065185547 18.223466873168945 227.9804229736328 19.149486541748047 227.75672912597656 L19.149486541748047 227.75672912597656 C19.170854568481445 227.7210235595703 19.229297637939453 227.7243194580078 19.263681411743164 227.7243194580078 L19.263681411743164 227.7243194580078 C19.26448631286621 227.72503662109375 19.26529312133789 227.7257537841797 19.266098022460938 227.72647094726562 L19.266098022460938 227.72647094726562 C20.016765594482422 227.8899688720703 20.824771881103516 227.9306640625 21.57080078125 227.74716186523438 L21.57080078125 227.74716186523438 C21.764490127563477 227.73492431640625 21.806257247924805 227.7976837158203 21.719999313354492 227.97157287597656 L21.719999313354492 227.97157287597656 C20.91815948486328 228.17393493652344 20.04481315612793 228.20175170898438 19.239423751831055 228.01402282714844 L19.239423751831055 228.01402282714844 C18.45730209350586 228.1959686279297 17.612533569335938 228.1959686279297 16.830411911010742 228.01402282714844 L16.830411911010742 228.01402282714844 C16.04916000366211 228.1961212158203 15.205160140991211 228.19578552246094 14.423827171325684 228.01402282714844 L14.423827171325684 228.01402282714844 C13.642535209655762 228.19595336914062 12.798359870910645 228.1954803466797 12.017243385314941 228.01280212402344 L12.017243385314941 228.01280212402344 C11.236125946044922 228.1954803466797 10.391950607299805 228.19595336914062 9.610657691955566 228.01402282714844 L9.610657691955566 228.01402282714844 C8.828930854797363 228.1958770751953 7.984371185302734 228.19557189941406 7.202860355377197 228.01280212402344 L7.202860355377197 228.01280212402344 C6.42134952545166 228.19557189941406 5.576789855957031 228.1958770751953 4.795063018798828 228.01402282714844 L4.795063018798828 228.01402282714844 C3.989630699157715 228.20156860351562 3.1162798404693604 228.17410278320312 2.3144845962524414 227.97157287597656 L2.3144845962524414 227.97157287597656 C2.22784161567688 227.84454345703125 2.239192485809326 227.7969970703125 2.373922348022461 227.72288513183594 L2.373922348022461 227.72288513183594"></path></svg>