<svg xmlns="http://www.w3.org/2000/svg" viewBox="0.0 0.0 24.0 24.0" height="200px" width="200px"><path fill="none" stroke="black" stroke-width=".3" stroke-opacity="1.0"  filling="0" d="M-124.09048461914062 -43.50613021850586 L-119.77047729492188 -43.50613021850586 L-119.77047729492188 -37.02613067626953 L-119.77047729492188 -30.546131134033203 L-119.77047729492188 -24.066131591796875 L-124.09048461914062 -24.066131591796875 L-124.09048461914062 -30.546131134033203 L-124.09048461914062 -37.02613067626953 L-124.09048461914062 -43.50613021850586"></path>
<path fill="none" stroke="black" stroke-width=".3" stroke-opacity="1.0"  filling="0" d="M-70.25967407226562 -13.490840911865234 L-63.51585388183594 -13.490840911865234 L-63.51585388183594 -6.421892166137695 L-63.51585388183594 0.6470584869384766 L-63.51585388183594 7.716006278991699 L-63.51585388183594 14.784955978393555 L-63.51585388183594 21.85390281677246 L-63.51585388183594 28.922853469848633 L-63.51585388183594 35.991798400878906 L-63.51585388183594 43.060752868652344 L-63.51585388183594 50.12969970703125 L-63.51585388183594 57.198646545410156 L-63.51585388183594 64.2676010131836 L-63.51585388183594 71.3365478515625 L-70.25967407226562 71.3365478515625 L-70.25967407226562 64.2676010131836 L-70.25967407226562 57.198646545410156 L-70.25967407226562 50.12969970703125 L-70.25967407226562 43.060752868652344 L-70.25967407226562 35.991798400878906 L-70.25967407226562 28.922853469848633 L-70.25967407226562 21.85390281677246 L-70.25967407226562 14.784955978393555 L-70.25967407226562 7.716006278991699 L-70.25967407226562 0.6470584869384766 L-70.25967407226562 -6.421892166137695 L-70.25967407226562 -13.490840911865234"></path>
<path fill="none" stroke="black" stroke-width=".3" stroke-opacity="1.0"  filling="0" d="M72.91200256347656 21.150230407714844 L80.29199981689453 21.150230407714844 L87.67200469970703 21.150232315063477 L95.052001953125 21.150230407714844 L102.43199920654297 21.15022850036621 L109.81199645996094 21.150230407714844 L117.19200134277344 21.150230407714844 L124.57199096679688 21.150230407714844 L131.95199584960938 21.150230407714844 L139.33200073242188 21.150230407714844 L146.7119903564453 21.150230407714844 L154.0919952392578 21.150230407714844 L161.47198486328125 21.150230407714844 L168.85198974609375 21.150230407714844 L176.23199462890625 21.150230407714844 L183.6119842529297 21.150230407714844 L190.9919891357422 21.150230407714844 L198.3719940185547 21.150230407714844 L205.75198364257812 21.150230407714844 L213.13198852539062 21.150230407714844 L220.51199340820312 21.15022850036621 L227.89198303222656 21.150230407714844 L235.27198791503906 21.150232315063477 L242.6519775390625 21.150230407714844 L250.031982421875 21.150230407714844 C251.72344970703125 21.486812591552734 253.25311279296875 22.56450080871582 253.97691345214844 23.941038131713867 C254.70071411132812 25.317575454711914 254.61865234375 26.99295997619629 253.08668518066406 28.524934768676758 C251.9923095703125 29.61930274963379 251.46180725097656 29.50571060180664 250.03196716308594 29.79022979736328 L242.65196228027344 29.79022979736328 L235.27197265625 29.79022979736328 L227.8919677734375 29.790231704711914 L220.511962890625 29.79022979736328 L213.13198852539062 29.790231704711914 L205.75196838378906 29.79022979736328 L198.37197875976562 29.79022979736328 L190.9919891357422 29.79022979736328 L183.61196899414062 29.79022979736328 L176.2319793701172 29.79022979736328 L168.85198974609375 29.790231704711914 L161.47198486328125 29.79022979736328 L154.09197998046875 29.79022979736328 L146.7119903564453 29.79022979736328 L139.3319854736328 29.79022979736328 L131.95199584960938 29.790231704711914 L124.57199096679688 29.79022979736328 L117.1919937133789 29.790231704711914 L109.81199645996094 29.790233612060547 L102.43199920654297 29.790231704711914 L95.052001953125 29.79022979736328 L87.67200469970703 29.790231704711914 L80.29199981689453 29.79022979736328 L72.91200256347656 29.790231704711914 C71.48218536376953 29.50571632385254 70.95165252685547 29.619295120239258 69.85729217529297 28.524932861328125 C68.3253173828125 26.992956161499023 68.24325561523438 25.31757164001465 68.96705627441406 23.941036224365234 C69.69085693359375 22.564498901367188 71.22052001953125 21.486812591552734 72.91200256347656 21.150230407714844 L72.91200256347656 21.150230407714844"></path>
<path fill="none" stroke="black" stroke-width=".3" stroke-opacity="1.0"  filling="0" d="M83.27999877929688 21.150230407714844 L90.68571472167969 21.150230407714844 L98.0914306640625 21.150230407714844 L105.49714660644531 21.150230407714844 L112.90286254882812 21.150230407714844 L120.30856323242188 21.150230407714844 L127.71427917480469 21.150230407714844 L135.1199951171875 21.150230407714844 L142.5257110595703 21.150230407714844 L149.93142700195312 21.150230407714844 L157.33714294433594 21.150230407714844 L164.74285888671875 21.150230407714844 L172.1485595703125 21.150230407714844 L179.5542755126953 21.150230407714844 L186.95999145507812 21.150230407714844 L194.36570739746094 21.150230407714844 L201.77142333984375 21.150230407714844 L209.17713928222656 21.150230407714844 L216.5828399658203 21.150230407714844 L223.98855590820312 21.150230407714844 L231.39427185058594 21.150230407714844 L238.79998779296875 21.150230407714844 C241.32618713378906 21.400341033935547 243.36114501953125 22.297239303588867 244.82705688476562 23.763160705566406 C246.29299926757812 25.229082107543945 247.1898956298828 27.264026641845703 247.44000244140625 29.790231704711914 L247.44000244140625 35.55023193359375 L247.44000244140625 41.31023025512695 L247.44000244140625 47.070228576660156 C247.1898956298828 49.596431732177734 246.29299926757812 51.631378173828125 244.82705688476562 53.09729766845703 C243.36114501953125 54.5632209777832 241.32618713378906 55.460121154785156 238.79998779296875 55.710227966308594 L231.39427185058594 55.710227966308594 L223.98855590820312 55.710227966308594 L216.5828399658203 55.710227966308594 L209.17713928222656 55.710227966308594 L201.77142333984375 55.710227966308594 L194.36570739746094 55.71023178100586 L186.95999145507812 55.710227966308594 L179.5542755126953 55.710227966308594 L172.1485595703125 55.710227966308594 L164.74285888671875 55.710227966308594 L157.33714294433594 55.710227966308594 L149.93142700195312 55.710227966308594 L142.5257110595703 55.710227966308594 L135.1199951171875 55.710227966308594 L127.71427917480469 55.71023178100586 L120.30856323242188 55.710227966308594 L112.90286254882812 55.710227966308594 L105.49714660644531 55.710227966308594 L98.0914306640625 55.710227966308594 L90.68571472167969 55.710227966308594 L83.27999877929688 55.710227966308594 C80.75379943847656 55.460113525390625 78.71885681152344 54.56321716308594 77.2529296875 53.09729766845703 C75.78700256347656 51.631378173828125 74.89010620117188 49.596435546875 74.63999938964844 47.070228576660156 L74.63999938964844 41.31023025512695 L74.63999938964844 35.55023193359375 L74.63999938964844 29.790231704711914 C74.89012145996094 27.26403045654297 75.78701782226562 25.229087829589844 77.25293731689453 23.763166427612305 C78.71885681152344 22.297245025634766 80.75379943847656 21.400344848632812 83.27999877929688 21.150230407714844 L83.27999877929688 21.150230407714844"></path>
<path fill="none" stroke="black" stroke-width=".3" stroke-opacity="1.0"  filling="0" d="M-61.96074676513672 44.348655700683594 L-55.49440002441406 44.348655700683594 L-55.49440002441406 51.367919921875 L-55.49440002441406 58.38718795776367 L-55.49440002441406 65.40645599365234 L-55.49440002441406 72.42572021484375 L-55.49440002441406 79.44499206542969 L-55.49440002441406 86.4642562866211 L-55.49440002441406 93.4835205078125 L-55.49440002441406 100.50279235839844 L-61.96074676513672 100.50279235839844 L-61.96074676513672 93.4835205078125 L-61.96074676513672 86.4642562866211 L-61.96074676513672 79.44499206542969 L-61.96074676513672 72.42572021484375 L-61.96074676513672 65.40645599365234 L-61.96074676513672 58.38718795776367 L-61.96074676513672 51.367919921875 L-61.96074676513672 44.348655700683594"></path>
<path fill="none" stroke="black" stroke-width=".3" stroke-opacity="1.0"  filling="0" d="M98.39075469970703 51.40812683105469 L102.71075439453125 51.40812683105469 L102.71075439453125 57.88813018798828 L102.71075439453125 64.36813354492188 L102.71075439453125 70.84812927246094 L98.39075469970703 70.84812927246094 L98.39076232910156 64.36813354492188 L98.39076232910156 57.88813018798828 L98.39075469970703 51.40812683105469"></path>
<path fill="none" stroke="black" stroke-width=".3" stroke-opacity="1.0"  filling="0" d="M225.82717895507812 51.43158721923828 L230.1471710205078 51.43158721923828 L230.14718627929688 57.911590576171875 L230.14718627929688 64.39158630371094 L230.1471710205078 70.87158966064453 L225.82717895507812 70.87158966064453 L225.82717895507812 64.39158630371094 L225.82717895507812 57.911590576171875 L225.82717895507812 51.43158721923828"></path>
<path fill="none" stroke="black" stroke-width=".3" stroke-opacity="1.0"  filling="0" d="M228.0 64.35023498535156 L228.0 64.35023498535156 C230.05563354492188 64.44794464111328 232.03909301757812 64.7171859741211 233.94955444335938 65.23838806152344 C235.86001586914062 65.75959014892578 237.69747924804688 66.53276062011719 239.46112060546875 67.63831329345703 C241.5623321533203 68.95549011230469 243.32127380371094 70.54963684082031 244.7457275390625 72.33336639404297 C246.17019653320312 74.11709594726562 247.2601776123047 76.09041595458984 248.0235137939453 78.16593170166016 C248.78683471679688 80.24144744873047 249.22349548339844 82.4191665649414 249.34129333496094 84.61170196533203 C249.45909118652344 86.80422973632812 249.25802612304688 89.01158142089844 248.7458953857422 91.1463623046875 C248.2337646484375 93.28113555908203 247.41058349609375 95.34334564208984 246.28416442871094 97.24559783935547 C245.15773010253906 99.14785766601562 243.72804260253906 100.89015197753906 242.00291442871094 102.38511657714844 C240.27780151367188 103.88007354736328 238.25723266601562 105.12770080566406 235.9490203857422 106.04059600830078 C234.68609619140625 106.54008483886719 233.37782287597656 106.91749572753906 232.04579162597656 107.17002868652344 C230.71376037597656 107.42256927490234 229.35797119140625 107.55023193359375 228.0 107.55023193359375 C226.64202880859375 107.55023193359375 225.28622436523438 107.42256164550781 223.95419311523438 107.1700210571289 C222.62216186523438 106.91748046875 221.31387329101562 106.54006958007812 220.05096435546875 106.04058837890625 C217.7427520751953 105.12769317626953 215.72218322753906 103.88007354736328 213.99705505371094 102.3851089477539 C212.2719268798828 100.89015197753906 210.84225463867188 99.1478500366211 209.7158203125 97.24559783935547 C208.5894012451172 95.34334564208984 207.76622009277344 93.28113555908203 207.2541046142578 91.14635467529297 C206.74197387695312 89.01158142089844 206.54090881347656 86.80422973632812 206.65870666503906 84.61170196533203 C206.77650451660156 82.4191665649414 207.21315002441406 80.241455078125 207.97647094726562 78.16593170166016 C208.73980712890625 76.09041595458984 209.8297882080078 74.11709594726562 211.25425720214844 72.33336639404297 C212.6787109375 70.54963684082031 214.43765258789062 68.95549011230469 216.5388641357422 67.6383056640625 C218.302490234375 66.53274536132812 220.1399688720703 65.75958251953125 222.05044555664062 65.2383804321289 C223.96090698242188 64.71717834472656 225.9443817138672 64.44793701171875 228.0 64.35023498535156 L228.0 64.35023498535156"></path>
<path fill="none" stroke="black" stroke-width=".3" stroke-opacity="1.0"  filling="0" d="M100.55999755859375 64.35299682617188 L100.55999755859375 64.35299682617188 C102.61561584472656 64.45069885253906 104.59907531738281 64.71994018554688 106.50955200195312 65.24114227294922 C108.4200210571289 65.76234436035156 110.25749206542969 66.53551483154297 112.02112579345703 67.64107513427734 C114.1223373413086 68.958251953125 115.88127136230469 70.55240631103516 117.30574035644531 72.33613586425781 C118.7302017211914 74.119873046875 119.8201904296875 76.09318542480469 120.58351135253906 78.168701171875 C121.34683227539062 80.24421691894531 121.78348541259766 82.42193603515625 121.90128326416016 84.61447143554688 C122.01907348632812 86.8070068359375 121.81800842285156 89.01435089111328 121.30587768554688 91.14913177490234 C120.79375457763672 93.2839126586914 119.97057342529297 95.34611511230469 118.84414672851562 97.24836730957031 C117.71771240234375 99.15061950683594 116.28803253173828 100.8929214477539 114.56290435791016 102.38787841796875 C112.83778381347656 103.88284301757812 110.81721496582031 105.13046264648438 108.50900268554688 106.0433578491211 C107.24607849121094 106.5428466796875 105.93780517578125 106.92025756835938 104.60578155517578 107.17279052734375 C103.27375793457031 107.42533111572266 101.91796875 107.55299377441406 100.55999755859375 107.55299377441406 C99.2020263671875 107.55299377441406 97.84623718261719 107.42532348632812 96.51420593261719 107.17278289794922 C95.18217468261719 106.92024230957031 93.87390899658203 106.54283142089844 92.6109848022461 106.04335021972656 C90.30277252197266 105.13045501708984 88.28219604492188 103.88282775878906 86.55706787109375 102.38787078857422 C84.83193969726562 100.89291381835938 83.40225982666016 99.1506118774414 82.27583312988281 97.24835968017578 C81.14940643310547 95.34610748291016 80.32622528076172 93.28389739990234 79.81410217285156 91.14912414550781 C79.3019790649414 89.01434326171875 79.10091400146484 86.80699920654297 79.21870422363281 84.61447143554688 C79.33650207519531 82.42193603515625 79.77316284179688 80.24421691894531 80.53648376464844 78.168701171875 C81.2998046875 76.09318542480469 82.38980102539062 74.11986541748047 83.81426239013672 72.33612823486328 C85.23872375488281 70.55239868164062 86.99766540527344 68.958251953125 89.098876953125 67.64106750488281 C90.86250305175781 66.53550720214844 92.69998168945312 65.76234436035156 94.6104507446289 65.24114227294922 C96.52091979980469 64.71994018554688 98.50438690185547 64.45069885253906 100.55999755859375 64.35299682617188 L100.55999755859375 64.35299682617188"></path>
<path fill="none" stroke="black" stroke-width=".3" stroke-opacity="1.0"  filling="0" d="M228.0 70.83023071289062 L228.0 70.83023071289062 C229.804443359375 70.95162963867188 231.5426788330078 71.28768157958984 233.16299438476562 71.86062622070312 C234.78329467773438 72.43357849121094 236.28567504882812 73.24341583251953 237.6183624267578 74.3123779296875 C238.9510498046875 75.38134002685547 240.1140594482422 76.70942687988281 241.05564880371094 78.3188705444336 C242.21435546875 80.2994155883789 242.84559631347656 82.3978042602539 243.02235412597656 84.48766326904297 C243.19912719726562 86.57752227783203 242.92141723632812 88.65886688232422 242.26222229003906 90.60533142089844 C241.60302734375 92.55179595947266 240.56234741210938 94.3633804321289 239.21316528320312 95.91373443603516 C237.86398315429688 97.4640884399414 236.206298828125 98.75321197509766 234.3131103515625 99.65473937988281 C232.419921875 100.5562744140625 230.29122924804688 101.07022094726562 228.0 101.07022094726562 C225.7087860107422 101.07022094726562 223.580078125 100.5562744140625 221.6868896484375 99.65474700927734 C219.793701171875 98.75321960449219 218.13600158691406 97.46409606933594 216.7868194580078 95.91374206542969 C215.43763732910156 94.36338806152344 214.39694213867188 92.55180358886719 213.7377471923828 90.60533905029297 C213.07855224609375 88.65887451171875 212.8008270263672 86.5775375366211 212.9775848388672 84.4876708984375 C213.15435791015625 82.39781188964844 213.78558349609375 80.29942321777344 214.94430541992188 78.31887817382812 C215.88589477539062 76.70943450927734 217.04891967773438 75.38134002685547 218.38160705566406 74.3123779296875 C219.71429443359375 73.24341583251953 221.2166748046875 72.43357849121094 222.8369903564453 71.86062622070312 C224.45730590820312 71.28768157958984 226.195556640625 70.95162963867188 228.0 70.83023071289062 L228.0 70.83023071289062"></path>
<path fill="none" stroke="black" stroke-width=".3" stroke-opacity="1.0"  filling="0" d="M100.55999755859375 70.83299255371094 L100.55999755859375 70.83299255371094 C102.36444091796875 70.95439147949219 104.1026840209961 71.29044342041016 105.72299194335938 71.86339569091797 C107.34330749511719 72.43634033203125 108.8456802368164 73.24617767333984 110.17837524414062 74.31513977050781 C111.51107025146484 75.38410949707031 112.67408752441406 76.71218872070312 113.61567687988281 78.3216323852539 C114.77438354492188 80.30217742919922 115.40563201904297 82.40055847167969 115.5823974609375 84.49042510986328 C115.75916290283203 86.58029174804688 115.4814453125 88.66162872314453 114.8222427368164 90.60809326171875 C114.16304016113281 92.55455780029297 113.12235260009766 94.36614990234375 111.7731704711914 95.91650390625 C110.42398071289062 97.46685791015625 108.76629638671875 98.7559814453125 106.87310791015625 99.65751647949219 C104.97991943359375 100.55905151367188 102.85121154785156 101.072998046875 100.55999755859375 101.072998046875 C98.2687759399414 101.072998046875 96.14007568359375 100.55905151367188 94.24688720703125 99.65752410888672 C92.35369873046875 98.75598907470703 90.69601440429688 97.46687316894531 89.3468246459961 95.91651153564453 C87.99763488769531 94.36615753173828 86.95694732666016 92.55457305908203 86.29774475097656 90.60810852050781 C85.6385498046875 88.6616439819336 85.36083221435547 86.58030700683594 85.53759765625 84.49044036865234 C85.71436309814453 82.40058135986328 86.34561157226562 80.30220031738281 87.50431823730469 78.32164764404297 C88.44591522216797 76.71220397949219 89.60893249511719 75.38410949707031 90.9416275024414 74.31514739990234 C92.27432250976562 73.24618530273438 93.77668762207031 72.43634033203125 95.3969955444336 71.86338806152344 C97.01730346679688 71.29044342041016 98.75555419921875 70.95439147949219 100.55999755859375 70.83299255371094 L100.55999755859375 70.83299255371094"></path>
<path fill="none" stroke="black" stroke-width=".3" stroke-opacity="1.0"  filling="0" d="M122.15998840332031 87.03022766113281 L122.15998840332031 87.03022766113281 C122.06716918945312 88.98306274414062 121.81139373779297 90.86735534667969 121.31625366210938 92.68230438232422 C120.82111358642578 94.49724578857422 120.08660888671875 96.24284362792969 119.03631591796875 97.91830444335938 C117.78499603271484 99.91445922851562 116.27055358886719 101.58544158935547 114.57600402832031 102.93868255615234 C112.88145446777344 104.29192352294922 111.00680541992188 105.3274154663086 109.03506469726562 106.05257415771484 C107.06332397460938 106.7777328491211 104.99449157714844 107.19255828857422 102.91159057617188 107.30445861816406 C100.82868957519531 107.41636657714844 98.73170471191406 107.22534942626953 96.70366668701172 106.73883819580078 C94.67562866210938 106.2523193359375 92.7165298461914 105.47029876708984 90.90939331054688 104.40019226074219 C89.10224914550781 103.330078125 87.44706726074219 101.97188568115234 86.02685546875 100.33301544189453 C84.60664367675781 98.69413757324219 83.42140197753906 96.77459716796875 82.55415344238281 94.58179473876953 C82.07963562011719 93.38201141357422 81.72109985351562 92.13916015625 81.48118591308594 90.87372589111328 C81.24127960205078 89.6082992553711 81.1199951171875 88.32029724121094 81.1199951171875 87.03022766113281 C81.1199951171875 85.74015808105469 81.24127960205078 84.45215606689453 81.48118591308594 83.18672943115234 C81.72109985351562 81.92130279541016 82.07963562011719 80.67845153808594 82.55415344238281 79.47866821289062 C83.4214096069336 77.28587341308594 84.60664367675781 75.36632537841797 86.02686309814453 73.72746276855469 C87.44707489013672 72.08859252929688 89.10225677490234 70.73039245605469 90.9094009399414 69.66028594970703 C92.71654510498047 68.59017181396484 94.6756362915039 67.80815124511719 96.70368194580078 67.3216323852539 C98.73171997070312 66.83511352539062 100.82869720458984 66.64409637451172 102.91160583496094 66.7560043334961 C104.99451446533203 66.86790466308594 107.06333923339844 67.28273010253906 109.03507995605469 68.00788116455078 C111.00682067871094 68.73303985595703 112.8814697265625 69.7685317993164 114.57601928710938 71.12177276611328 C116.27056121826172 72.47500610351562 117.78500366210938 74.14599609375 119.03631591796875 76.14215850830078 C120.08659362792969 77.81761169433594 120.82110595703125 79.5632095336914 121.31624603271484 81.37815856933594 C121.81138610839844 83.19309997558594 122.06716918945312 85.077392578125 122.15998840332031 87.03022766113281 L122.15998840332031 87.03022766113281"></path>
<path fill="none" stroke="black" stroke-width=".3" stroke-opacity="1.0"  filling="0" d="M122.15998840332031 87.03022766113281 L122.15998840332031 87.03022766113281 C122.06716918945312 88.98306274414062 121.81139373779297 90.86735534667969 121.31625366210938 92.68230438232422 C120.82111358642578 94.49724578857422 120.08660888671875 96.24284362792969 119.03631591796875 97.91830444335938 C117.78499603271484 99.91445922851562 116.27055358886719 101.58544158935547 114.57600402832031 102.93868255615234 C112.88145446777344 104.29192352294922 111.00680541992188 105.3274154663086 109.03506469726562 106.05257415771484 C107.06332397460938 106.7777328491211 104.99449157714844 107.19255828857422 102.91159057617188 107.30445861816406 C100.82868957519531 107.41636657714844 98.73170471191406 107.22534942626953 96.70366668701172 106.73883819580078 C94.67562866210938 106.2523193359375 92.7165298461914 105.47029876708984 90.90939331054688 104.40019226074219 C89.10224914550781 103.330078125 87.44706726074219 101.97188568115234 86.02685546875 100.33301544189453 C84.60664367675781 98.69413757324219 83.42140197753906 96.77459716796875 82.55415344238281 94.58179473876953 C82.07963562011719 93.38201141357422 81.72109985351562 92.13916015625 81.48118591308594 90.87372589111328 C81.24127960205078 89.6082992553711 81.1199951171875 88.32029724121094 81.1199951171875 87.03022766113281 C81.1199951171875 85.74015808105469 81.24127960205078 84.45215606689453 81.48118591308594 83.18672943115234 C81.72109985351562 81.92130279541016 82.07963562011719 80.67845153808594 82.55415344238281 79.47866821289062 C83.4214096069336 77.28587341308594 84.60664367675781 75.36632537841797 86.02686309814453 73.72746276855469 C87.44707489013672 72.08859252929688 89.10225677490234 70.73039245605469 90.9094009399414 69.66028594970703 C92.71654510498047 68.59017181396484 94.6756362915039 67.80815124511719 96.70368194580078 67.3216323852539 C98.73171997070312 66.83511352539062 100.82869720458984 66.64409637451172 102.91160583496094 66.7560043334961 C104.99451446533203 66.86790466308594 107.06333923339844 67.28273010253906 109.03507995605469 68.00788116455078 C111.00682067871094 68.73303985595703 112.8814697265625 69.7685317993164 114.57601928710938 71.12177276611328 C116.27056121826172 72.47500610351562 117.78500366210938 74.14599609375 119.03631591796875 76.14215850830078 C120.08659362792969 77.81761169433594 120.82110595703125 79.5632095336914 121.31624603271484 81.37815856933594 C121.81138610839844 83.19309997558594 122.06716918945312 85.077392578125 122.15998840332031 87.03022766113281 L122.15998840332031 87.03022766113281"></path>
<path fill="none" stroke="black" stroke-width=".3" stroke-opacity="1.0"  filling="0" d="M112.52108764648438 178.77737426757812 L116.8410873413086 178.77737426757812 L116.8410873413086 185.25738525390625 L116.8410873413086 191.73736572265625 L116.8410873413086 198.2173614501953 L112.52108764648438 198.2173614501953 L112.52108764648438 191.73736572265625 L112.52108764648438 185.25738525390625 L112.52108764648438 178.77737426757812"></path>
<path fill="none" stroke="black" stroke-width=".3" stroke-opacity="1.0"  filling="0" d="M4.617072582244873 210.7884979248047 L6.561842441558838 211.44602966308594 C6.371769905090332 212.0414276123047 5.801896572113037 212.48553466796875 5.258045196533203 212.79351806640625 L3.885382652282715 217.0965576171875 L2.5127201080322266 221.39959716796875 C2.552229166030884 221.46514892578125 2.59173846244812 221.53070068359375 2.6312475204467773 221.59625244140625 L7.270355701446533 221.59410095214844 L7.270355701446533 221.38221740722656 L5.787112712860107 221.38221740722656 C5.504590034484863 221.0996856689453 5.222067832946777 220.81716918945312 4.939545154571533 220.53463745117188 L4.770031452178955 218.83950805664062 C4.570254802703857 218.6397247314453 4.570258140563965 218.19171142578125 4.770031452178955 217.99192810058594 L10.56174373626709 217.991943359375 L16.35345458984375 217.991943359375 L22.145166397094727 217.99192810058594 C22.344940185546875 218.19171142578125 22.344942092895508 218.6397247314453 22.145166397094727 218.83950805664062 L21.89089584350586 218.83950805664062 L21.89089584350586 220.53463745117188 C21.608373641967773 220.81716918945312 21.325851440429688 221.0996856689453 21.0433292388916 221.38221740722656 L20.195758819580078 221.38221740722656 L20.195758819580078 222.23973083496094 C20.647438049316406 222.46717834472656 21.211612701416016 222.54696655273438 21.550796508789062 222.9220733642578 C22.733469009399414 224.22998046875 21.953773498535156 225.603759765625 20.807527542114258 226.14199829101562 C19.661279678344727 226.68023681640625 18.148483276367188 226.3829345703125 17.86495018005371 224.3487091064453 C17.81589126586914 223.99673461914062 17.96237564086914 223.6285858154297 18.132905960083008 223.31678771972656 C18.298189163208008 223.01458740234375 18.60495376586914 222.81504821777344 18.84097671508789 222.56417846679688 L17.73119354248047 221.38221740722656 L13.65194320678711 221.38221740722656 L9.572693824768066 221.38221740722656 L8.521842002868652 222.50192260742188 C8.782275199890137 222.75608825683594 9.119524955749512 222.95022583007812 9.303141593933105 223.264404296875 C9.492277145385742 223.58802795410156 9.647625923156738 223.9767608642578 9.601165771484375 224.3487091064453 C9.347661972045898 226.378173828125 7.828771114349365 226.6820068359375 6.671998500823975 226.148193359375 C5.515225887298584 225.61439514160156 4.720571994781494 224.24295043945312 5.915541648864746 222.92189025878906 C6.254858493804932 222.54676818847656 6.819192409515381 222.4671173095703 7.271018028259277 222.23973083496094 L2.522653579711914 222.22999572753906 C1.5122674703598022 222.7007598876953 1.285530686378479 221.9567108154297 1.933328628540039 221.19371032714844 L3.34108567237854 216.8966064453125 L4.748842716217041 212.59951782226562 C4.549911022186279 212.0278778076172 4.408933639526367 211.3568572998047 4.617072582244873 210.7884979248047 L4.617072582244873 210.7884979248047"></path>
<path fill="none" stroke="black" stroke-width=".3" stroke-opacity="1.0"  filling="0" d="M4.685274600982666 211.22618103027344 L6.262545108795166 211.77842712402344 C5.885112762451172 212.01812744140625 5.552243709564209 212.64527893066406 5.130247592926025 212.49752807617188 C4.70648193359375 212.34915161132812 4.833599090576172 211.64996337890625 4.685274600982666 211.22618103027344 L4.685274600982666 211.22618103027344"></path>
<path fill="none" stroke="black" stroke-width=".3" stroke-opacity="1.0"  filling="0" d="M7.69413948059082 221.38241577148438 L8.991314888000488 221.38241577148438 L8.107328414916992 222.32403564453125 C7.96981954574585 222.29598999023438 7.832310676574707 222.26795959472656 7.6948018074035645 222.2399139404297 L7.694132328033447 221.38241577148438"></path>
<path fill="none" stroke="black" stroke-width=".3" stroke-opacity="1.0"  filling="0" d="M18.312572479248047 221.38241577148438 L19.771976470947266 221.38241577148438 L19.771976470947266 222.2399139404297 C19.590986251831055 222.28274536132812 19.40999412536621 222.3255615234375 19.22900390625 222.36839294433594 L18.312572479248047 221.38230895996094"></path>
<path fill="none" stroke="black" stroke-width=".3" stroke-opacity="1.0"  filling="0" d="M7.482247829437256 222.8656768798828 L7.482247829437256 222.8656768798828 C8.819931030273438 223.41976928710938 9.844512939453125 225.8321533203125 7.482247829437256 225.8321533203125 C5.119984149932861 225.8321533203125 6.144564151763916 223.41976928710938 7.482247829437256 222.8656768798828 L7.482247829437256 222.8656768798828"></path>
<path fill="none" stroke="black" stroke-width=".3" stroke-opacity="1.0"  filling="0" d="M19.983867645263672 222.8656768798828 L19.983867645263672 222.8656768798828 C21.321548461914062 223.41976928710938 22.346134185791016 225.8321533203125 19.983867645263672 225.8321533203125 C17.621606826782227 225.8321533203125 18.64618682861328 223.41976928710938 19.983867645263672 222.8656768798828 L19.983867645263672 222.8656768798828"></path>
<path fill="none" stroke="black" stroke-width=".3" stroke-opacity="1.0"  filling="0" d="M7.482247829437256 223.50070190429688 L7.482247829437256 223.50070190429688 C7.764770030975342 223.78321838378906 8.329814910888672 223.94869995117188 8.329814910888672 224.34823608398438 C8.329814910888672 224.74778747558594 7.881797790527344 225.19581604003906 7.482247829437256 225.19581604003906 C7.082697868347168 225.19581604003906 6.634679794311523 224.74778747558594 6.634679794311523 224.34823608398438 C6.634679794311523 223.94869995117188 7.199725151062012 223.78321838378906 7.482247829437256 223.50070190429688 L7.482247829437256 223.50070190429688"></path>
<path fill="none" stroke="black" stroke-width=".3" stroke-opacity="1.0"  filling="0" d="M19.983867645263672 223.50070190429688 L19.983867645263672 223.50070190429688 C20.266389846801758 223.78321838378906 20.831436157226562 223.94869995117188 20.831436157226562 224.34823608398438 C20.831436157226562 225.4783477783203 19.13629913330078 225.4783477783203 19.13629913330078 224.34823608398438 C19.13629913330078 223.94869995117188 19.701345443725586 223.78321838378906 19.983867645263672 223.50070190429688 L19.983867645263672 223.50070190429688"></path></svg>