<svg xmlns="http://www.w3.org/2000/svg" viewBox="0.0 0.0 24.0 24.0" height="200px" width="200px"><path fill="none" stroke="black" stroke-width=".3" stroke-opacity="1.0"  filling="0" d="M11.459784507751465 1.2000007629394531 L12.540215492248535 1.2000007629394531 L12.540215492248535 3.3600006103515625 L11.459784507751465 3.3600006103515625 L11.459784507751465 1.2000007629394531"></path>
<path fill="none" stroke="black" stroke-width=".3" stroke-opacity="1.0"  filling="0" d="M5.366208553314209 3.761545181274414 L7.525992393493652 3.761545181274414 L7.525992393493652 4.841976642608643 L5.366208553314209 4.841976642608643 L5.366208553314209 3.761545181274414"></path>
<path fill="none" stroke="black" stroke-width=".3" stroke-opacity="1.0"  filling="0" d="M18.66165542602539 3.820943832397461 L17.272560119628906 5.475720405578613 L16.444631576538086 4.781712055206299 L17.833728790283203 3.1269359588623047 L18.66165542602539 3.820943832397461"></path>
<path fill="none" stroke="black" stroke-width=".3" stroke-opacity="1.0"  filling="0" d="M11.999783515930176 4.872432231903076 L11.999783515930176 4.872432231903076 C13.660666465759277 5.140997409820557 14.171714782714844 5.019730091094971 15.569511413574219 6.040747165679932 C17.436967849731445 7.4048261642456055 18.1373233795166 9.254332542419434 17.979475021362305 11.085794448852539 C17.821624755859375 12.917255401611328 16.805572509765625 14.730670928955078 15.240215301513672 16.022567749023438 L15.240215301513672 17.399999618530273 L8.759784698486328 17.399999618530273 L8.759784698486328 16.022567749023438 C7.193923473358154 14.730880737304688 6.177713394165039 12.917486190795898 6.019871711730957 11.085982322692871 C5.862030029296875 9.254478454589844 6.562556743621826 7.4048662185668945 8.430168151855469 6.040746688842773 C9.827995300292969 5.01976203918457 10.338922500610352 5.141014575958252 11.999783515930176 4.872432231903076 L11.999783515930176 4.872432231903076"></path>
<path fill="none" stroke="black" stroke-width=".3" stroke-opacity="1.0"  filling="0" d="M20.022886276245117 8.340096473693848 L21.102455139160156 8.340096473693848 L21.102455139160156 10.500311851501465 L20.022886276245117 10.500311851501465 L20.022886276245117 8.340096473693848"></path>
<path fill="none" stroke="black" stroke-width=".3" stroke-opacity="1.0"  filling="0" d="M10.919783592224121 8.760000228881836 L13.080216407775879 8.760000228881836 L13.080216407775879 9.84000015258789 L10.919783592224121 9.84000015258789 L10.919783592224121 8.760000228881836"></path>
<path fill="none" stroke="black" stroke-width=".3" stroke-opacity="1.0"  filling="0" d="M2.35689640045166 8.880528450012207 L4.517112731933594 8.880528450012207 L4.517112731933594 9.96009635925293 L2.35689640045166 9.96009635925293 L2.35689640045166 8.880528450012207"></path>
<path fill="none" stroke="black" stroke-width=".3" stroke-opacity="1.0"  filling="0" d="M10.919783592224121 10.920000076293945 L13.080216407775879 10.920000076293945 L13.080216407775879 12.0 L10.919783592224121 12.0 L10.919783592224121 10.920000076293945"></path>
<path fill="none" stroke="black" stroke-width=".3" stroke-opacity="1.0"  filling="0" d="M3.97646427154541 14.15999984741211 L5.057760238647461 14.15999984741211 L5.057760238647461 16.319782257080078 L3.97646427154541 16.319782257080078 L3.97646427154541 14.15999984741211"></path>
<path fill="none" stroke="black" stroke-width=".3" stroke-opacity="1.0"  filling="0" d="M18.27760887145996 15.16828727722168 L18.816743850708008 14.231712341308594 L20.686656951904297 15.311712265014648 L20.147735595703125 16.247207641601562 L18.27760887145996 15.16828727722168"></path>
<path fill="none" stroke="black" stroke-width=".3" stroke-opacity="1.0"  filling="0" d="M13.97553539276123 15.239999771118164 L12.539999961853027 15.239999771118164 L12.539999961853027 13.079999923706055 L11.45956802368164 13.079999923706055 L11.45956802368164 15.239999771118164 L10.023599624633789 15.239999771118164 C8.788870811462402 14.362601280212402 8.204475402832031 14.212322235107422 7.60368013381958 12.724336624145508 C6.982446193695068 11.18572998046875 7.246854782104492 9.546537399291992 8.083853721618652 8.291996955871582 C8.920851707458496 7.03745698928833 10.330440521240234 6.167568206787109 11.999567985534668 6.167568206787109 C13.668645858764648 6.167568206787109 15.078165054321289 7.03749418258667 15.91512680053711 8.29205322265625 C16.752090454101562 9.546612739562988 17.016494750976562 11.18580436706543 16.395343780517578 12.724336624145508 C15.794642448425293 14.2122163772583 15.210112571716309 14.36264705657959 13.97553539276123 15.239999771118164 L13.97553539276123 15.239999771118164"></path>
<path fill="none" stroke="black" stroke-width=".3" stroke-opacity="1.0"  filling="0" d="M8.759784698486328 18.479999542236328 L15.240215301513672 18.479999542236328 L15.240215301513672 20.639999389648438 L8.759784698486328 20.639999389648438 L8.759784698486328 18.479999542236328"></path>
<path fill="none" stroke="black" stroke-width=".3" stroke-opacity="1.0"  filling="0" d="M9.839784622192383 21.719999313354492 L14.160215377807617 21.719999313354492 L14.160215377807617 22.799999237060547 L9.839784622192383 22.799999237060547 L9.839784622192383 21.719999313354492"></path></svg>