<svg xmlns="http://www.w3.org/2000/svg" viewBox="0.0 0.0 24.0 24.0" height="200px" width="200px"><path fill="none" stroke="black" stroke-width=".3" stroke-opacity="1.0"  filling="0" d="M12.328536033630371 4.283400535583496 L12.908496856689453 9.500015258789062 L9.385536193847656 11.708507537841797 L5.862576484680176 13.916999816894531 L5.663208484649658 11.19820785522461 C7.641314506530762 11.421581268310547 9.157464981079102 10.82424545288086 10.097282409667969 9.707497596740723 C11.037099838256836 8.59074878692627 11.400585174560547 6.954588413238525 11.073359489440918 5.100312232971191 L12.328536033630371 4.283400535583496"></path>
<path fill="none" stroke="black" stroke-width=".3" stroke-opacity="1.0"  filling="0" d="M15.372191429138184 7.4454240798950195 L16.17376708984375 12.661824226379395 L12.574127197265625 14.836620330810547 L8.974488258361816 17.011415481567383 L6.6483845710754395 14.699567794799805 L10.35224437713623 12.377243041992188 L14.05610466003418 10.054919242858887 L13.553903579711914 5.534256458282471 L15.372191429138184 7.4454240798950195"></path>
<path fill="none" stroke="black" stroke-width=".3" stroke-opacity="1.0"  filling="0" d="M9.077735900878906 9.046632766723633 L9.077735900878906 9.046632766723633 C7.819627285003662 9.764179229736328 7.410118579864502 10.330113410949707 5.859464168548584 9.912792205810547 C3.418612003326416 9.255895614624023 2.5275020599365234 6.139132499694824 4.340640544891357 4.336320400238037 C6.144617557525635 2.5426173210144043 9.283390998840332 3.400973081588745 9.94965648651123 5.845704078674316 C10.370123863220215 7.388527870178223 9.797174453735352 7.799903392791748 9.077735900878906 9.046632766723633 L9.077735900878906 9.046632766723633"></path>
<path fill="none" stroke="black" stroke-width=".3" stroke-opacity="1.0"  filling="0" d="M18.83791160583496 16.524120330810547 L18.83791160583496 16.524120330810547 C18.27911949157715 17.50432014465332 17.369279861450195 18.324125289916992 16.3616886138916 18.831863403320312 L13.206144332885742 15.969432830810547 L16.57271957397461 13.933847427368164 L18.808319091796875 16.372270584106445 C18.81818389892578 16.422887802124023 18.828046798706055 16.47350311279297 18.83791160583496 16.524120330810547 L18.83791160583496 16.524120330810547"></path>
<path fill="none" stroke="black" stroke-width=".3" stroke-opacity="1.0"  filling="0" d="M20.529624938964844 18.24542236328125 L20.529624938964844 18.24542236328125 C20.318737030029297 18.797374725341797 20.315908432006836 19.484617233276367 19.89695930480957 19.901281356811523 C19.47649574279785 20.3194522857666 18.78744125366211 20.32032012939453 18.232681274414062 20.52983856201172 L16.90795135498047 19.327585220336914 C17.86385726928711 18.717395782470703 18.702987670898438 17.878610610961914 19.316783905029297 16.925016403198242 L20.529624938964844 18.24542236328125"></path></svg>