<svg xmlns="http://www.w3.org/2000/svg" viewBox="0.0 0.0 24.0 24.0" height="200px" width="200px"><path fill="none" stroke="black" stroke-width=".3" stroke-opacity="1.0"  filling="0" d="M14.143152236938477 1.7622489929199219 L14.143152236938477 7.594464302062988 L9.84000015258789 9.461352348327637 L9.84000015258789 3.630000114440918 L14.143152236938477 1.7622489929199219"></path>
<path fill="none" stroke="black" stroke-width=".3" stroke-opacity="1.0"  filling="0" d="M15.223152160644531 6.465000152587891 L20.103240966796875 9.474095344543457 L15.78324031829834 11.324999809265137 L11.463239669799805 13.175904273986816 L7.760676383972168 10.89256763458252 L4.058113098144531 8.609230995178223 L8.760000228881836 6.594816207885742 L8.760000228881836 9.543647766113281 L7.72860050201416 9.982343673706055 L9.390719413757324 11.005536079406738 L12.926530838012695 9.501527786254883 L16.462343215942383 7.9975199699401855 L15.223152160644531 7.233960151672363 L15.223152160644531 6.465000152587891"></path>
<path fill="none" stroke="black" stroke-width=".3" stroke-opacity="1.0"  filling="0" d="M12.0 14.78553581237793 L16.31999969482422 12.928152084350586 L20.639999389648438 11.070768356323242 L20.639999389648438 18.535945892333984 L16.31999969482422 20.38684844970703 L12.0 22.237751007080078 L12.0 14.78553581237793"></path>
<path fill="none" stroke="black" stroke-width=".3" stroke-opacity="1.0"  filling="0" d="M3.3600006103515625 17.576040267944336 L3.3600006103515625 13.796039581298828 L3.3600006103515625 10.016039848327637 L7.140000343322754 12.346895217895508 L10.920000076293945 14.677751541137695 L10.920000076293945 18.457752227783203 L10.920000076293945 22.237751007080078 L7.140000343322754 19.90689468383789 L3.3600006103515625 17.576040267944336"></path></svg>