<svg xmlns="http://www.w3.org/2000/svg" viewBox="0.0 0.0 24.0 24.0" height="200px" width="200px"><path fill="none" stroke="black" stroke-width=".3" stroke-opacity="1.0"  filling="0" d="M11.932456970214844 207.05593872070312 L12.20492172241211 207.98744201660156 L13.173521041870117 207.928955078125 L12.371822357177734 208.47531127929688 L12.72702407836914 209.3797149658203 L12.156421661376953 208.9375 L14.614296913146973 213.1956329345703 C12.896081924438477 213.83863830566406 10.899847984313965 214.43846130371094 9.494548797607422 212.86183166503906 L11.748437881469727 208.9574737548828 L11.20921516418457 209.4025421142578 L11.535886764526367 208.4881591796875 L10.71849536895752 207.96603393554688 L11.68852424621582 207.99600219726562 L11.932456970214844 207.05593872070312"></path>
<path fill="none" stroke="black" stroke-width=".3" stroke-opacity="1.0"  filling="0" d="M13.14499282836914 211.97311401367188 L13.14499282836914 211.97311401367188 C13.35073471069336 212.72177124023438 12.801572799682617 212.57411193847656 13.14499282836914 211.97311401367188 L13.14499282836914 211.97311401367188"></path>
<path fill="none" stroke="black" stroke-width=".3" stroke-opacity="1.0"  filling="0" d="M10.862574577331543 212.0644073486328 L10.862574577331543 212.0644073486328 C11.084673881530762 212.6751708984375 10.55263900756836 212.58099365234375 10.862574577331543 212.0644073486328 L10.862574577331543 212.0644073486328"></path>
<path fill="none" stroke="black" stroke-width=".3" stroke-opacity="1.0"  filling="0" d="M10.58868408203125 212.70347595214844 L11.045167922973633 212.70347595214844 L11.052295684814453 213.79762268066406 C10.89663314819336 213.7593994140625 10.742260932922363 213.71534729003906 10.590106010437012 213.66494750976562 L10.588593482971191 212.70347595214844"></path>
<path fill="none" stroke="black" stroke-width=".3" stroke-opacity="1.0"  filling="0" d="M12.871101379394531 212.70347595214844 L13.327585220336914 212.70347595214844 L13.330437660217285 213.61643981933594 C13.180218696594238 213.6621551513672 13.02896499633789 213.7046356201172 12.87680721282959 213.74342346191406 L12.87110424041748 212.70347595214844"></path>
<path fill="none" stroke="black" stroke-width=".3" stroke-opacity="1.0"  filling="0" d="M9.304823875427246 213.18992614746094 L9.304823875427246 213.18992614746094 C10.850862503051758 214.80601501464844 12.965067863464355 214.1820068359375 14.789758682250977 213.49948120117188 L15.868202209472656 215.3682098388672 C14.625417709350586 216.17840576171875 13.570508003234863 216.7122802734375 12.459325790405273 217.00759887695312 C11.34814453125 217.30291748046875 10.18069076538086 217.35964965820312 8.712821960449219 217.21554565429688 L8.868310928344727 216.95306396484375 L7.132247447967529 216.95306396484375 L9.304823875427246 213.18992614746094"></path>
<path fill="none" stroke="black" stroke-width=".3" stroke-opacity="1.0"  filling="0" d="M13.555826187133789 215.1685028076172 L13.555826187133789 215.1685028076172 C13.827808380126953 215.85366821289062 13.300505638122559 215.849365234375 13.555826187133789 215.1685028076172 L13.555826187133789 215.1685028076172"></path>
<path fill="none" stroke="black" stroke-width=".3" stroke-opacity="1.0"  filling="0" d="M9.35617733001709 215.62498474121094 L9.35617733001709 215.62498474121094 C9.79213809967041 216.22781372070312 9.103114128112793 216.29983520507812 9.35617733001709 215.62498474121094 L9.35617733001709 215.62498474121094"></path>
<path fill="none" stroke="black" stroke-width=".3" stroke-opacity="1.0"  filling="0" d="M11.264850616455078 215.62925720214844 L11.264850616455078 215.62925720214844 C11.52687931060791 216.36138916015625 11.045914649963379 216.1668701171875 11.264850616455078 215.62925720214844 L11.264850616455078 215.62925720214844"></path>
<path fill="none" stroke="black" stroke-width=".3" stroke-opacity="1.0"  filling="0" d="M16.043663024902344 215.67062377929688 L16.784019470214844 216.95306396484375 L15.060794830322266 216.95306396484375 L16.87246322631836 220.02857971191406 C15.137182235717773 220.2941436767578 13.659595489501953 220.36614990234375 12.21484088897705 220.1875762939453 C10.770086288452148 220.00900268554688 9.358161926269531 219.57986450195312 7.754206657409668 218.8431396484375 L8.5216703414917 217.54075622558594 C10.057220458984375 217.6977996826172 11.285738945007324 217.65396118164062 12.45635986328125 217.3590087890625 C13.62697982788086 217.06405639648438 14.739702224731445 216.51800537109375 16.043663024902344 215.67062377929688 L16.043663024902344 215.67062377929688"></path>
<path fill="none" stroke="black" stroke-width=".3" stroke-opacity="1.0"  filling="0" d="M13.327585220336914 215.89886474609375 L13.784069061279297 215.89886474609375 L13.784069061279297 216.62924194335938 C13.633646965026855 216.70870971679688 13.481426239013672 216.7848663330078 13.327585220336914 216.8574981689453 L13.327585220336914 215.89886474609375"></path>
<path fill="none" stroke="black" stroke-width=".3" stroke-opacity="1.0"  filling="0" d="M9.210672378540039 216.29971313476562 L9.667156219482422 216.29971313476562 L9.675710678100586 217.26829528808594 L9.216373443603516 217.22837829589844 L9.210670471191406 216.29971313476562"></path>
<path fill="none" stroke="black" stroke-width=".3" stroke-opacity="1.0"  filling="0" d="M11.036606788635254 216.29971313476562 L11.493090629577637 216.29971313476562 L11.500219345092773 217.32110595703125 C11.347749710083008 217.33056640625 11.195042610168457 217.3367919921875 11.042306900024414 217.33969116210938 L11.036605834960938 216.29974365234375"></path>
<path fill="none" stroke="black" stroke-width=".3" stroke-opacity="1.0"  filling="0" d="M10.360441207885742 217.8616943359375 L10.360441207885742 217.8616943359375 C10.582558631896973 218.41697692871094 10.085413932800293 218.7784881591797 10.360441207885742 217.8616943359375 L10.360441207885742 217.8616943359375"></path>
<path fill="none" stroke="black" stroke-width=".3" stroke-opacity="1.0"  filling="0" d="M14.468793869018555 218.45513916015625 L14.468793869018555 218.45513916015625 C14.81888484954834 219.0677947998047 14.188716888427734 219.0153045654297 14.468793869018555 218.45513916015625 L14.468793869018555 218.45513916015625"></path>
<path fill="none" stroke="black" stroke-width=".3" stroke-opacity="1.0"  filling="0" d="M10.132200241088867 218.63772583007812 L10.58868408203125 218.63772583007812 L10.591534614562988 219.99290466308594 C10.43677806854248 219.94293212890625 10.283953666687012 219.8865966796875 10.133624076843262 219.82456970214844 L10.132112503051758 218.63772583007812"></path>
<path fill="none" stroke="black" stroke-width=".3" stroke-opacity="1.0"  filling="0" d="M14.24055290222168 219.09422302246094 L14.697036743164062 219.09422302246094 L14.701313018798828 220.2867889404297 C14.549735069274902 220.3056182861328 14.397378921508789 220.31907653808594 14.244829177856445 220.32676696777344 L14.24055290222168 219.09423828125"></path>
<path fill="none" stroke="black" stroke-width=".3" stroke-opacity="1.0"  filling="0" d="M7.577308177947998 219.14419555664062 L7.577308177947998 219.14419555664062 C9.245295524597168 219.9115753173828 10.714816093444824 220.35247802734375 12.218009948730469 220.53140258789062 C13.721203804016113 220.7103271484375 15.258071899414062 220.6272735595703 17.060754776000977 220.34674072265625 L17.34463119506836 220.82888793945312 L15.99372386932373 220.82888793945312 L16.7683162689209 222.03857421875 C15.170296669006348 222.89695739746094 13.684727668762207 223.46995544433594 11.929593086242676 223.9444122314453 L11.90963363647461 223.9471893310547 C9.825529098510742 224.19264221191406 7.743670463562012 224.3037109375 5.647249221801758 224.38084411621094 L7.922534942626953 220.82884216308594 L6.584466934204102 220.82884216308594 L7.577319145202637 219.14413452148438"></path>
<path fill="none" stroke="black" stroke-width=".3" stroke-opacity="1.0"  filling="0" d="M14.925277709960938 221.29959106445312 L14.925277709960938 221.29959106445312 C15.195042610168457 221.87026977539062 14.665237426757812 221.9659423828125 14.925277709960938 221.29959106445312 L14.925277709960938 221.29959106445312"></path>
<path fill="none" stroke="black" stroke-width=".3" stroke-opacity="1.0"  filling="0" d="M14.697036743164062 221.97006225585938 L15.153520584106445 221.97006225585938 L15.156371116638184 222.83168029785156 C15.005842208862305 222.906005859375 14.85311508178711 222.97605895996094 14.69845962524414 223.04136657714844 L14.696948051452637 221.97006225585938"></path>
<path fill="none" stroke="black" stroke-width=".3" stroke-opacity="1.0"  filling="0" d="M11.718480110168457 222.2482452392578 L11.718480110168457 222.2482452392578 C12.038590431213379 222.92845153808594 11.424246788024902 222.77320861816406 11.718480110168457 222.2482452392578 L11.718480110168457 222.2482452392578"></path>
<path fill="none" stroke="black" stroke-width=".3" stroke-opacity="1.0"  filling="0" d="M16.956628799438477 222.33241271972656 L19.07927703857422 225.6461944580078 L12.871101379394531 225.6461944580078 L12.871101379394531 228.22389221191406 L11.045167922973633 228.22389221191406 L11.045167922973633 225.6461944580078 L4.836991310119629 225.6461944580078 L5.42043399810791 224.736083984375 C7.5078043937683105 224.66549682617188 9.456279754638672 224.5693817138672 11.350700378417969 224.23851013183594 C13.245119094848633 223.90765380859375 15.08548355102539 223.34202575683594 16.956628799438477 222.33241271972656 L16.956628799438477 222.33241271972656"></path>
<path fill="none" stroke="black" stroke-width=".3" stroke-opacity="1.0"  filling="0" d="M8.078023910522461 222.5321044921875 L8.078023910522461 222.5321044921875 C8.406996726989746 223.1720733642578 7.749053478240967 223.1720733642578 8.078023910522461 222.5321044921875 L8.078023910522461 222.5321044921875"></path>
<path fill="none" stroke="black" stroke-width=".3" stroke-opacity="1.0"  filling="0" d="M11.490239143371582 222.918701171875 L11.946722984313965 222.918701171875 L11.955277442932129 223.88731384277344 C11.803125381469727 223.91661071777344 11.649819374084473 223.9404754638672 11.495940208435059 223.95863342285156 L11.490238189697266 222.918701171875"></path>
<path fill="none" stroke="black" stroke-width=".3" stroke-opacity="1.0"  filling="0" d="M7.849782466888428 223.2025604248047 L8.306265830993652 223.2025604248047 L8.317670822143555 224.16976928710938 C8.1639404296875 224.18399047851562 8.009761810302734 224.1940155029297 7.85548210144043 224.19976806640625 L7.849775791168213 223.20263671875"></path></svg>