<svg xmlns="http://www.w3.org/2000/svg" viewBox="0.0 0.0 24.0 24.0" height="200px" width="200px"><path fill="none" stroke="black" stroke-width=".3" stroke-opacity="1.0"  filling="0" d="M1.213608741760254 1.2000007629394531 L8.419585227966309 1.2000007629394531 L15.625561714172363 1.2000007629394531 L22.8315372467041 1.2000007629394531 L22.831539154052734 8.40000057220459 L22.831539154052734 15.600000381469727 L22.8315372467041 22.799999237060547 L15.625561714172363 22.799999237060547 L8.419585227966309 22.799999237060547 L1.213608741760254 22.799999237060547 L1.213608741760254 15.600000381469727 L1.213608741760254 8.40000057220459 L1.213608741760254 1.2000007629394531"></path>
<path fill="none" stroke="black" stroke-width=".3" stroke-opacity="1.0"  filling="0" d="M15.406536102294922 13.951343536376953 L15.406536102294922 13.951343536376953 C15.225419044494629 14.287114143371582 14.560644149780273 14.803921699523926 14.900232315063477 14.977775573730469 C15.30868148803711 15.186883926391602 18.723360061645508 16.047462463378906 18.32188606262207 17.19264030456543 C18.230762481689453 17.452566146850586 18.19474220275879 17.740779876708984 18.04238510131836 17.970239639282227 C16.435544967651367 20.39026641845703 16.24233627319336 17.7730655670166 15.477815628051758 16.779645919799805 L8.566679954528809 16.779645919799805 C7.802229881286621 17.772775650024414 7.608732223510742 20.390470504760742 6.00211238861084 17.970239639282227 C5.84977912902832 17.74076271057129 5.8137335777282715 17.452566146850586 5.72260856628418 17.19264030456543 C5.321130275726318 16.04746437072754 8.73547077178955 15.186976432800293 9.144048690795898 14.977775573730469 C9.483684539794922 14.803874015808105 8.77237319946289 14.308208465576172 8.637311935424805 13.951343536376953 C8.574901580810547 13.7864408493042 8.962358474731445 13.627904891967773 9.050736427307129 13.547640800476074 C9.176031112670898 13.433849334716797 8.776936531066895 13.334416389465332 8.613985061645508 13.288656234741211 L9.025464057922363 13.073736190795898 C8.85653305053711 12.828715324401855 8.310898780822754 12.409079551696777 8.586336135864258 12.29635238647461 C8.929089546203613 12.156075477600098 9.292511940002441 12.072863578796387 9.645599365234375 11.961119651794434 L9.770448684692383 11.35977554321289 C9.467938423156738 11.336048126220703 8.042698860168457 11.3226957321167 7.753871917724609 10.951751708984375 C6.871845722198486 9.818954467773438 8.245609283447266 8.12444019317627 7.326839923858643 6.776472091674805 C6.449620723724365 5.489463806152344 5.525867462158203 5.231611728668213 4.248623847961426 4.632672309875488 L4.248623847961426 3.6719045639038086 L9.430536270141602 3.6719048023223877 L14.612449645996094 3.6719048023223877 L19.794361114501953 3.6719045639038086 L19.794361114501953 4.632672309875488 C18.518037796020508 5.231472015380859 17.592927932739258 5.490492820739746 16.716144561767578 6.776472091674805 C15.796551704406738 8.125238418579102 17.171070098876953 9.816990852355957 16.289112091064453 10.951751708984375 C16.00019645690918 11.323481559753418 14.573905944824219 11.336183547973633 14.27253532409668 11.35977554321289 L14.397599220275879 11.961119651794434 C14.750615119934082 12.072863578796387 15.11396598815918 12.15607738494873 15.456646919250488 12.29635238647461 C15.732044219970703 12.409085273742676 15.186593055725098 12.828707695007324 15.017735481262207 13.073736190795898 L15.43159294128418 13.288656234741211 C14.648553848266602 13.508548736572266 15.233570098876953 13.566654205322266 15.406536102294922 13.951343536376953 L15.406536102294922 13.951343536376953"></path></svg>