<svg xmlns="http://www.w3.org/2000/svg" viewBox="0.0 0.0 24.0 24.0" height="200px" width="200px"><path fill="none" stroke="black" stroke-width=".3" stroke-opacity="1.0"  filling="0" d="M4.799099922180176 6.259125232696533 L4.256400108337402 5.625975608825684 L4.256400108337402 1.3167753219604492 L4.256400108337402 -2.992424964904785 C4.728899955749512 -2.9978249073028564 5.201400279998779 -3.003225088119507 5.673900127410889 -3.008625030517578 L9.187950134277344 -3.008625030517578 C9.186150550842285 -2.9636247158050537 9.18435001373291 -2.91862416267395 9.182550430297852 -2.873623847961426 L9.182550430297852 2.8760242462158203 C9.405197143554688 3.49884295463562 9.88241958618164 4.092037200927734 10.47854995727539 4.378574848175049 L13.474200248718262 4.378574848175049 C14.07045841217041 4.092304706573486 14.547646522521973 3.4988765716552734 14.7701997756958 2.8760242462158203 L14.7701997756958 -2.873623847961426 C14.76884937286377 -2.91862416267395 14.767499923706055 -2.9636247158050537 14.766149520874023 -3.008625030517578 L18.326099395751953 -3.008625030517578 C18.798599243164062 -3.003225088119507 19.271099090576172 -2.9978249073028564 19.74359893798828 -2.992424964904785 L19.74359893798828 1.3167753219604492 L19.74359893798828 5.625975608825684 L16.030424118041992 9.846075057983398 L12.317249298095703 14.06617546081543 C12.127836227416992 14.16128158569336 11.87032413482666 14.162251472473145 11.681400299072266 14.06617546081543 L8.240249633789062 10.162650108337402 L4.799099922180176 6.259125232696533"></path>
<path fill="none" stroke="black" stroke-width=".3" stroke-opacity="1.0"  filling="0" d="M10.398900985717773 17.35747528076172 L5.870325565338135 12.556875228881836 L1.341750144958496 7.756275177001953 C1.7834323644638062 7.183914661407471 2.3558664321899414 6.692772388458252 2.991450309753418 6.348225116729736 L7.2662248611450195 10.859925270080566 L11.540999412536621 15.371624946594238 C11.886309623718262 15.693323135375977 12.111858367919922 15.698094367980957 12.456299781799316 15.371624946594238 L16.731075286865234 10.860599517822266 L21.005849838256836 6.349575042724609 C21.643659591674805 6.698812484741211 22.216882705688477 7.195929527282715 22.65825080871582 7.773825168609619 L18.137775421142578 12.566325187683105 L13.617300033569336 17.35882568359375 C13.080731391906738 17.59400749206543 12.593441009521484 18.06461524963379 12.007594108581543 18.064369201660156 C11.421875953674316 18.064123153686523 10.935132026672363 17.593107223510742 10.398900985717773 17.35747528076172 L10.398900985717773 17.35747528076172"></path></svg>