<svg xmlns="http://www.w3.org/2000/svg" viewBox="0.0 0.0 24.0 24.0" height="200px" width="200px"><path fill="none" stroke="black" stroke-width=".3" stroke-opacity="1.0"  filling="0" d="M12.000534057617188 3.9416942596435547 L12.000534057617188 3.9416942596435547 C13.410730361938477 3.217461585998535 14.070699691772461 2.551048755645752 14.894575119018555 1.2002668380737305 L14.894575119018555 1.2002668380737305 C14.921440124511719 2.3318305015563965 14.846099853515625 4.338281154632568 16.0294189453125 5.021480560302734 C17.212398529052734 5.704483985900879 18.913026809692383 4.6363205909729 19.906492233276367 4.094306945800781 L19.906492233276367 4.094306945800781 C19.364030838012695 5.087791919708252 18.295528411865234 6.788038730621338 18.978784561157227 7.971381187438965 C19.661773681640625 9.154260635375977 21.668704986572266 9.07947063446045 22.799999237060547 9.10676097869873 L22.799999237060547 9.10676097869873 C21.83342170715332 9.696081161499023 20.058372497558594 10.634333610534668 20.058303833007812 12.000802040100098 C20.05823516845703 13.366761207580566 21.833362579345703 14.305279731750488 22.79946517944336 14.894575119018555 L22.79946517944336 14.894575119018555 C21.667823791503906 14.921629905700684 19.661449432373047 14.846632957458496 18.97825050354004 16.029953002929688 C18.29529571533203 17.212848663330078 19.36338233947754 18.913164138793945 19.905426025390625 19.906492233276367 L19.905426025390625 19.906492233276367 C18.91191291809082 19.36418914794922 17.21158790588379 18.295949935913086 16.028350830078125 18.979053497314453 C14.845361709594727 19.66201400756836 14.920183181762695 21.66867446899414 14.89297103881836 22.799999237060547 L14.89297103881836 22.799999237060547 C14.303751945495605 21.833646774291992 13.365382194519043 20.058372497558594 11.999197006225586 20.058303833007812 C10.633272171020508 20.05823516845703 9.694680213928223 21.833372116088867 9.105424880981445 22.79946517944336 L9.105424880981445 22.79946517944336 C9.078230857849121 21.668235778808594 9.15321159362793 19.661453247070312 7.970312595367432 18.978519439697266 C6.787332534790039 18.29553985595703 5.086912155151367 19.36361312866211 4.093506336212158 19.905691146850586 L4.093506336212158 19.905691146850586 C4.635620594024658 18.912307739257812 5.703896522521973 17.21190071105957 5.020946025848389 16.028884887695312 C4.337923049926758 14.845743179321289 2.3314738273620605 14.920467376708984 1.1999998092651367 14.893238067626953 L1.1999998092651367 14.893238067626953 C2.166224241256714 14.303926467895508 3.941359043121338 13.365527153015137 3.941427230834961 11.99946403503418 C3.941495418548584 10.633440017700195 2.166706085205078 9.6950044631958 1.2005338668823242 9.105691909790039 L1.2005338668823242 9.105691909790039 C2.3319649696350098 9.078479766845703 4.338408946990967 9.153350830078125 5.021480560302734 7.970312595367432 C5.704545497894287 6.787284851074219 4.636465549468994 5.0871663093566895 4.094307899475098 4.093773365020752 L4.094307899475098 4.093773365020752 C5.08782958984375 4.635950088500977 6.787965297698975 5.703973770141602 7.971114635467529 5.020946025848389 C9.154268264770508 4.337915897369385 9.079530715942383 2.3317575454711914 9.10676097869873 1.2002668380737305 L9.10676097869873 1.2002668380737305 C9.930519104003906 2.5510735511779785 10.590387344360352 3.2174506187438965 12.000534057617188 3.9416942596435547 L12.000534057617188 3.9416942596435547"></path>
<path fill="none" stroke="black" stroke-width=".3" stroke-opacity="1.0"  filling="0" d="M12.0 4.632864475250244 L12.0 4.632864475250244 C13.33543586730957 4.812324523925781 14.565669059753418 5.106703281402588 15.642088890075684 5.665154933929443 C16.718507766723633 6.223607063293457 17.64111328125 7.0461320877075195 18.361295700073242 8.28188419342041 C19.299148559570312 9.891135215759277 19.526010513305664 11.659305572509766 19.204652786254883 13.301644325256348 C18.8832950592041 14.94398307800293 18.013715744018555 16.46048927307129 16.758684158325195 17.566410064697266 C15.503652572631836 18.672330856323242 13.863168716430664 19.36766815185547 12.0 19.36766815185547 C10.136834144592285 19.36766815185547 8.496309280395508 18.672344207763672 7.241227149963379 17.566436767578125 C5.986144542694092 16.460529327392578 5.116504192352295 14.944035530090332 4.795106887817383 13.30169677734375 C4.473710060119629 11.659358978271484 4.70055627822876 9.89117431640625 5.6384477615356445 8.28188419342041 C6.358660697937012 7.0460991859436035 7.281313419342041 6.22357177734375 8.357780456542969 5.665126323699951 C9.434247016906738 5.1066813468933105 10.664528846740723 4.812318801879883 12.0 4.632864475250244 L12.0 4.632864475250244"></path>
<path fill="none" stroke="black" stroke-width=".3" stroke-opacity="1.0"  filling="0" d="M12.0 5.532240867614746 L12.0 5.532240867614746 C14.344858169555664 5.84733247756958 16.320341110229492 6.565958023071289 17.584932327270508 8.735764503479004 C18.8200740814209 10.85504150390625 18.65064239501953 13.288172721862793 17.559024810791016 15.191485404968262 C16.4674072265625 17.094799041748047 14.45360279083252 18.468292236328125 12.0 18.468292236328125 C9.546396255493164 18.468292236328125 7.532591819763184 17.094799041748047 6.44097375869751 15.191486358642578 C5.349355697631836 13.288174629211426 5.179924488067627 10.855042457580566 6.415066242218018 8.735764503479004 C7.679657459259033 6.565957069396973 9.655142784118652 5.84733247756958 12.0 5.532240867614746 L12.0 5.532240867614746"></path></svg>