<svg xmlns="http://www.w3.org/2000/svg" viewBox="0.0 0.0 24.0 24.0" height="200px" width="200px"><path fill="none" stroke="black" stroke-width=".3" stroke-opacity="1.0"  filling="0" d="M13.660175323486328 9.265439987182617 L13.660175323486328 9.265439987182617 C15.455924034118652 9.575884819030762 17.93317413330078 9.778595924377441 19.29003143310547 11.216547966003418 C20.488981246948242 12.487153053283691 19.455923080444336 13.549572944641113 18.188791275024414 13.944704055786133 C17.67165756225586 14.105962753295898 17.122642517089844 14.137194633483887 16.589567184448242 14.233439445495605 L16.589567184448242 14.233439445495605 C16.536327362060547 15.87667465209961 16.516813278198242 17.533939361572266 16.7341251373291 19.163612365722656 C16.760574340820312 19.361967086791992 17.173059463500977 20.913732528686523 16.82068634033203 21.333791732788086 C16.124187469482422 22.164077758789062 14.765352249145508 22.515439987182617 13.355396270751953 22.615022659301758 C11.945439338684082 22.71460723876953 10.484359741210938 22.56241226196289 9.583368301391602 22.385591506958008 C8.417272567749023 22.156742095947266 7.2762131690979 22.03582000732422 7.116888046264648 20.66138458251953 C6.896757125854492 18.762399673461914 7.547520160675049 16.41433334350586 7.451472282409668 14.409912109375 L7.451472282409668 14.409912109375 C6.691080093383789 14.288304328918457 5.8665056228637695 14.374141693115234 5.1702961921691895 14.045087814331055 C3.9648280143737793 13.475339889526367 3.918861150741577 12.513307571411133 4.5931549072265625 11.575169563293457 C5.8719658851623535 9.79597282409668 8.831817626953125 9.534761428833008 10.783271789550781 9.243192672729492 L10.783271789550781 9.243192672729492 C10.368767738342285 9.5708646774292 9.954264640808105 9.89853572845459 9.53976058959961 10.226207733154297 L9.53976058959961 10.226207733154297 C8.933286666870117 10.442270278930664 8.261295318603516 10.525312423706055 7.720338344573975 10.874396324157715 C6.504537582397461 11.658960342407227 8.103981018066406 12.184534072875977 8.56550407409668 12.359591484069824 C10.432493209838867 13.067748069763184 12.588229179382324 13.076335906982422 14.524375915527344 12.703800201416016 C17.42015838623047 12.146620750427246 17.16440200805664 10.972668647766113 14.848608016967773 10.230095863342285 L14.848608016967773 10.230095863342285 C14.45246410369873 9.908543586730957 14.056319236755371 9.586992263793945 13.660175323486328 9.265439987182617 L13.660175323486328 9.265439987182617"></path>
<path fill="none" stroke="black" stroke-width=".3" stroke-opacity="1.0"  filling="0" d="M11.161919593811035 9.480144500732422 L11.161919593811035 9.480144500732422 C10.449119567871094 7.533133506774902 10.289581298828125 5.426880359649658 10.416784286499023 3.361192464828491 C10.462883949279785 2.6125588417053223 10.294973373413086 1.2397080659866333 11.043984413146973 1.200216293334961 C11.793071746826172 1.1607204675674438 11.770939826965332 2.543570041656494 11.895471572875977 3.2832882404327393 C12.238792419433594 5.322619438171387 12.190696716308594 7.2736101150512695 11.853336334228516 9.299135208129883 L11.853336334228516 9.299135208129883 C12.117632865905762 9.294445037841797 12.384109497070312 9.285258293151855 12.646056175231934 9.3207368850708 L12.646056175231934 9.3207368850708 C12.691741943359375 7.285865306854248 12.99147891998291 5.373303413391113 13.688119888305664 3.4451839923858643 C13.942975997924805 2.7398080825805664 14.168258666992188 1.3753328323364258 14.8980712890625 1.548192024230957 C15.627960205078125 1.7210693359375 15.217615127563477 3.0417304039001465 15.128999710083008 3.786560297012329 C14.88469123840332 5.840007781982422 14.289674758911133 7.698884010314941 13.396439552307129 9.547752380371094 L13.396439552307129 9.547752380371094 C14.044047355651855 10.075864791870117 15.470141410827637 10.892022132873535 15.206735610961914 12.072575569152832 C15.133935928344727 12.39885425567627 14.571904182434082 12.296003341674805 14.240865707397461 12.342602729797363 C13.082015991210938 12.505732536315918 7.336667537689209 13.212228775024414 9.917571067810059 10.36104679107666 C10.258620262145996 9.984282493591309 10.747137069702148 9.773778915405273 11.161919593811035 9.480144500732422 L11.161919593811035 9.480144500732422"></path>
<path fill="none" stroke="black" stroke-width=".3" stroke-opacity="1.0"  filling="0" d="M13.555200576782227 11.03793716430664 L13.555200576782227 11.03793716430664 C14.495574951171875 12.164960861206055 12.428309440612793 11.979211807250977 13.555200576782227 11.03793716430664 L13.555200576782227 11.03793716430664"></path>
<path fill="none" stroke="black" stroke-width=".3" stroke-opacity="1.0"  filling="0" d="M11.443367958068848 11.290224075317383 L11.443367958068848 11.290224075317383 C10.316108703613281 12.230710983276367 10.502644538879395 10.161762237548828 11.443367958068848 11.290224075317383 L11.443367958068848 11.290224075317383"></path>
<path fill="none" stroke="black" stroke-width=".3" stroke-opacity="1.0"  filling="0" d="M11.882063865661621 15.792096138000488 L11.882063865661621 15.792096138000488 C10.369088172912598 15.689022064208984 9.120304107666016 15.571167945861816 7.739616394042969 14.93414306640625 L7.68712854385376 14.416607856750488 C9.118477821350098 14.397180557250977 10.554288864135742 14.388580322265625 11.989659309387207 14.369669914245605 C13.425028800964355 14.350759506225586 14.859957695007324 14.321538925170898 16.28954315185547 14.260870933532715 L16.245479583740234 14.866968154907227 C14.819683074951172 15.585502624511719 13.462403297424316 15.669947624206543 11.882063865661621 15.792096138000488 L11.882063865661621 15.792096138000488"></path></svg>