<svg xmlns="http://www.w3.org/2000/svg" viewBox="0.0 0.0 24.0 24.0" height="200px" width="200px"><path fill="none" stroke="black" stroke-width=".3" stroke-opacity="1.0"  filling="0" d="M22.199951171875 3.299952507019043 L22.199951171875 3.299952507019043 C22.399967193603516 3.4999685287475586 22.59998321533203 3.699984550476074 22.799999237060547 3.90000057220459 L22.799999237060547 9.400008201599121 L22.799999237060547 14.900015830993652 L22.799999237060547 20.400022506713867 L20.39980697631836 20.400022506713867 L20.39980697631836 14.900015830993652 L20.39980697631836 9.400008201599121 L20.39980697631836 3.90000057220459 C20.599822998046875 3.699984550476074 20.79983901977539 3.4999685287475586 20.999855041503906 3.299952507019043 L22.199951171875 3.299952507019043"></path>
<path fill="none" stroke="black" stroke-width=".3" stroke-opacity="1.0"  filling="0" d="M10.349976539611816 4.200024127960205 L10.349976539611816 4.200024127960205 C12.0518159866333 4.904799938201904 12.05186939239502 6.195006847381592 10.350192070007324 6.9000244140625 L6.600108623504639 6.9000244140625 L2.850025177001953 6.9000244140625 C2.461134910583496 6.738960266113281 1.9809930324554443 6.714470863342285 1.6833546161651611 6.416832447052002 C0.3376944065093994 5.07117223739624 1.8498634099960327 3.4503860473632812 3.3349437713623047 3.6725521087646484 L3.3349437713623047 3.6725521087646484 C3.041825771331787 0.5513248443603516 6.25694465637207 0.9341763257980347 7.443912506103516 2.8251848220825195 L7.443912506103516 2.8251848220825195 C8.857110977172852 2.555760383605957 9.270803451538086 3.103713035583496 9.886224746704102 4.286856174468994 L9.886224746704102 4.286856174468994 C10.04080867767334 4.2579121589660645 10.195392608642578 4.228968143463135 10.349976539611816 4.200024127960205 L10.349976539611816 4.200024127960205"></path>
<path fill="none" stroke="black" stroke-width=".3" stroke-opacity="1.0"  filling="0" d="M9.60002326965332 8.849855422973633 L9.60002326965332 8.849855422973633 C7.835702896118164 10.614180564880371 8.349373817443848 8.30152702331543 8.850071907043457 7.200047969818115 L8.850071907043457 7.200047969818115 C9.100055694580078 7.749983787536621 9.3500394821167 8.299919128417969 9.60002326965332 8.849855422973633 L9.60002326965332 8.849855422973633"></path>
<path fill="none" stroke="black" stroke-width=".3" stroke-opacity="1.0"  filling="0" d="M5.100096225738525 9.449688911437988 L5.100096225738525 9.449688911437988 C3.3359336853027344 11.214357376098633 3.849376678466797 8.901582717895508 4.350144386291504 7.800096035003662 L4.350144386291504 7.800096035003662 C4.600128173828125 8.349960327148438 4.850112438201904 8.899825096130371 5.100096225738525 9.449688911437988 L5.100096225738525 9.449688911437988"></path>
<path fill="none" stroke="black" stroke-width=".3" stroke-opacity="1.0"  filling="0" d="M17.399999618530273 10.50009536743164 L17.399999618530273 10.50009536743164 C17.60001564025879 10.700111389160156 17.800031661987305 10.900128364562988 18.00004768371582 11.100144386291504 L18.00004768371582 15.750083923339844 L18.00004768371582 20.400022506713867 L15.600071907043457 20.400022506713867 L15.599964141845703 15.750083923339844 L15.599855422973633 11.100144386291504 C15.799872398376465 10.900128364562988 15.99988842010498 10.700111389160156 16.199905395507812 10.50009536743164 L17.399999618530273 10.50009536743164"></path>
<path fill="none" stroke="black" stroke-width=".3" stroke-opacity="1.0"  filling="0" d="M7.500072002410889 11.250048637390137 L7.500072002410889 11.250048637390137 C5.7360124588012695 13.014106750488281 6.249217510223389 10.702311515808105 6.750120162963867 9.600671768188477 L6.750120162963867 9.600671768188477 C7.000103950500488 10.150464057922363 7.250088214874268 10.70025634765625 7.500072002410889 11.250048637390137 L7.500072002410889 11.250048637390137"></path>
<path fill="none" stroke="black" stroke-width=".3" stroke-opacity="1.0"  filling="0" d="M7.799880027770996 13.799927711486816 L7.799880027770996 13.799927711486816 C7.999824047088623 13.999943733215332 8.19976806640625 14.199960708618164 8.399711608886719 14.39997673034668 L8.399928092956543 20.39980697631836 L5.99995231628418 20.39980697631836 L5.99995231628418 14.39997673034668 C6.199968338012695 14.199960708618164 6.399984359741211 13.999943733215332 6.600000381469727 13.799927711486816 L7.799880027770996 13.799927711486816"></path>
<path fill="none" stroke="black" stroke-width=".3" stroke-opacity="1.0"  filling="0" d="M12.600048065185547 15.00002384185791 L12.600048065185547 15.00002384185791 C12.800064086914062 15.200039863586426 13.000080108642578 15.400055885314941 13.200096130371094 15.600071907043457 L13.200096130371094 20.400022506713867 L10.800119400024414 20.400022506713867 L10.799903869628906 15.600071907043457 C10.999919891357422 15.400055885314941 11.199935913085938 15.200039863586426 11.399951934814453 15.00002384185791 L12.600048065185547 15.00002384185791"></path>
<path fill="none" stroke="black" stroke-width=".3" stroke-opacity="1.0"  filling="0" d="M2.9999284744262695 17.399999618530273 L2.9999284744262695 17.399999618530273 C3.199944496154785 17.60001564025879 3.399960517883301 17.800031661987305 3.5999765396118164 18.00004768371582 L3.5999765396118164 20.400022506713867 L1.2000007629394531 20.400022506713867 L1.2000007629394531 18.00004768371582 C1.4000167846679688 17.800031661987305 1.6000328063964844 17.60001564025879 1.800048828125 17.399999618530273 L2.9999284744262695 17.399999618530273"></path>
<path fill="none" stroke="black" stroke-width=".3" stroke-opacity="1.0"  filling="0" d="M1.2000007629394531 21.599905014038086 L8.40000057220459 21.599905014038086 L15.600000381469727 21.599905014038086 L22.799999237060547 21.599905014038086 L22.799999237060547 22.799999237060547 L15.600000381469727 22.799999237060547 L8.40000057220459 22.799999237060547 L1.2000007629394531 22.799999237060547 L1.2000007629394531 21.599905014038086"></path></svg>