<svg xmlns="http://www.w3.org/2000/svg" viewBox="0.0 0.0 24.0 24.0" height="200px" width="200px"><path fill="none" stroke="black" stroke-width=".3" stroke-opacity="1.0"  filling="0" d="M19.54056167602539 5.427120208740234 L14.512802124023438 5.427120208740234 L9.485040664672852 5.427120208740234 L4.45728063583374 5.427120208740234 L7.816080093383789 3.73691987991333 L11.174880027770996 2.046719551086426 C11.000516891479492 4.545851230621338 12.960898399353027 2.2419869899749756 13.047599792480469 2.1568803787231445 L19.54056167602539 5.427120208740234"></path>
<path fill="none" stroke="black" stroke-width=".3" stroke-opacity="1.0"  filling="0" d="M1.2000007629394531 5.4292802810668945 L3.975600242614746 5.427120208740234 L7.5979204177856445 3.628920078277588 L11.220240592956543 1.8307199478149414 C11.516160011291504 1.6204801797866821 11.745867729187012 1.1749067306518555 12.107999801635742 1.2000007629394531 C12.50401496887207 1.227442741394043 12.721440315246582 1.704000473022461 13.028160095214844 1.9560003280639648 L16.525306701660156 3.6915602684020996 L20.0224552154541 5.427120208740234 L22.799999237060547 5.4292802810668945 L22.799999237060547 11.219520568847656 L22.799999237060547 17.0097599029541 L22.799999237060547 22.799999237060547 L15.600000381469727 22.799999237060547 L8.40000057220459 22.799999237060547 L1.2000007629394531 22.799999237060547 L1.2000007629394531 17.0097599029541 L1.2000007629394531 11.219520568847656 L1.2000007629394531 5.4292802810668945"></path>
<path fill="none" stroke="black" stroke-width=".3" stroke-opacity="1.0"  filling="0" d="M21.47808074951172 6.841920375823975 L21.47808074951172 14.160000801086426 L21.47808074951172 21.47808074951172 L15.159360885620117 21.47808074951172 L8.840641021728516 21.47808074951172 L2.5219202041625977 21.47808074951172 L2.5219202041625977 14.160000801086426 L2.5219202041625977 6.841920375823975 L8.840641021728516 6.841920375823975 L15.159360885620117 6.841920375823975 L21.47808074951172 6.841920375823975"></path>
<path fill="none" stroke="black" stroke-width=".3" stroke-opacity="1.0"  filling="0" d="M21.046077728271484 7.27392053604126 L21.046077728271484 14.159998893737793 L21.046077728271484 21.046077728271484 L15.015358924865723 21.046077728271484 L8.984640121459961 21.046077728271484 L2.953920364379883 21.046077728271484 L2.953920364379883 14.159998893737793 L2.953920364379883 7.27392053604126 L8.984640121459961 7.27392053604126 L15.015358924865723 7.27392053604126 L21.046077728271484 7.27392053604126"></path>
<path fill="none" stroke="black" stroke-width=".3" stroke-opacity="1.0"  filling="0" d="M13.447199821472168 9.407999992370605 L16.395599365234375 14.052000045776367 L19.3439998626709 18.695999145507812 L13.474200248718262 18.695999145507812 L7.604400157928467 18.695999145507812 L10.525799751281738 14.052000045776367 L13.447199821472168 9.407999992370605"></path>
<path fill="none" stroke="black" stroke-width=".3" stroke-opacity="1.0"  filling="0" d="M18.501598358154297 18.218639373779297 L13.474199295043945 18.218639373779297 L8.446800231933594 18.218639373779297 L10.947000503540039 14.237759590148926 L13.447199821472168 10.256879806518555 L15.97439956665039 14.237759590148926 L18.501598358154297 18.218639373779297"></path>
<path fill="none" stroke="black" stroke-width=".3" stroke-opacity="1.0"  filling="0" d="M4.656000137329102 18.695999145507812 L8.392800331115723 12.380159378051758 L9.947999954223633 14.970000267028809 L9.678000450134277 15.401999473571777 L8.392800331115723 13.228824615478516 L5.4984002113342285 18.218639373779297 L7.904640197753906 18.218639373779297 L7.604400157928467 18.695999145507812 L4.656000137329102 18.695999145507812"></path></svg>