<svg xmlns="http://www.w3.org/2000/svg" viewBox="0.0 0.0 24.0 24.0" height="200px" width="200px"><path fill="none" stroke="black" stroke-width=".3" stroke-opacity="1.0"  filling="0" d="M12.218363761901855 206.47650146484375 L12.938364028930664 206.47650146484375 L12.938364028930664 207.41250610351562 L17.33036231994629 210.07650756835938 L18.698360443115234 210.07650756835938 L18.698360443115234 210.7965087890625 L16.898361206054688 210.7965087890625 L16.898361206054688 217.27651977539062 L16.898361206054688 223.7565155029297 C16.538360595703125 224.1165313720703 16.327486038208008 224.8365478515625 15.81836223602295 224.8365478515625 C15.30923843383789 224.8365478515625 15.098362922668457 224.1165313720703 14.738363265991211 223.7565155029297 L14.738363265991211 218.71649169921875 C14.378363609313965 218.71649169921875 14.018362998962402 218.71649169921875 13.658363342285156 218.71649169921875 L13.658363342285156 223.7565155029297 C13.418363571166992 224.09701538085938 13.178363800048828 224.4375 12.938364028930664 224.7779998779297 L12.938364028930664 228.07650756835938 L12.218363761901855 228.07650756835938 L12.218363761901855 224.7779998779297 C11.978363990783691 224.4375 11.738364219665527 224.09701538085938 11.498364448547363 223.7565155029297 L11.498364448547363 218.71649169921875 C11.138364791870117 218.71649169921875 10.778364181518555 218.71649169921875 10.418364524841309 218.71649169921875 L10.418364524841309 223.7565155029297 C10.058364868164062 224.1165313720703 9.847490310668945 224.8365478515625 9.33836555480957 224.8365478515625 C8.829240798950195 224.8365478515625 8.618365287780762 224.1165313720703 8.258365631103516 223.7565155029297 L8.258365631103516 217.27651977539062 L8.258365631103516 210.7965087890625 L6.458366870880127 210.7965087890625 L6.458366870880127 210.07650756835938 L7.826365947723389 210.07650756835938 L12.218363761901855 207.41250610351562 L12.218363761901855 206.47650146484375"></path>
<path fill="none" stroke="black" stroke-width=".3" stroke-opacity="1.0"  filling="0" d="M12.218363761901855 208.13250732421875 L12.218363761901855 210.07650756835938 L8.978364944458008 210.07650756835938 L12.218363761901855 208.13250732421875"></path>
<path fill="none" stroke="black" stroke-width=".3" stroke-opacity="1.0"  filling="0" d="M12.938364028930664 208.13250732421875 L16.178361892700195 210.07650756835938 L12.938364028930664 210.07650756835938 L12.938364028930664 208.13250732421875"></path></svg>