<svg xmlns="http://www.w3.org/2000/svg" viewBox="0.0 0.0 24.0 24.0" height="200px" width="200px"><path fill="none" stroke="black" stroke-width=".3" stroke-opacity="1.0"  filling="0" d="M58.54136657714844 43.457977294921875 L58.54136657714844 43.457977294921875 C58.585208892822266 45.78714370727539 58.62881851196289 48.11608123779297 58.671566009521484 50.44485092163086 C58.71431350708008 52.773616790771484 58.756195068359375 55.102210998535156 58.796592712402344 57.43068313598633 C58.83699035644531 59.759151458740234 58.87589645385742 62.08749771118164 58.912689208984375 64.415771484375 C58.94948196411133 66.7440414428711 58.98415756225586 69.0722427368164 59.01609420776367 71.40042114257812 C59.04802703857422 73.72859954833984 59.07722091674805 76.05675506591797 59.10304641723633 78.38493347167969 C59.12887191772461 80.7131118774414 59.15132522583008 83.04132080078125 59.16978454589844 85.36961364746094 C59.1882438659668 87.6978988647461 59.20270919799805 90.02626037597656 59.21255111694336 92.35475158691406 C59.22239303588867 94.68324279785156 59.22761154174805 97.0118637084961 59.22758102416992 99.34066772460938 C59.22755432128906 101.66946411132812 59.22227478027344 103.99844360351562 59.21112060546875 106.32765197753906 C59.19996643066406 108.6568603515625 59.18293762207031 110.98629760742188 59.15940856933594 113.31600952148438 C59.14097213745117 115.14117431640625 59.173770904541016 116.97241973876953 59.21626663208008 118.80531311035156 C59.25876235961914 120.6382064819336 59.31095504760742 122.47274780273438 59.33130645751953 124.30451202392578 C59.35165786743164 126.13627624511719 59.34016799926758 127.96525573730469 59.25530242919922 129.78701782226562 C59.19926452636719 130.98992919921875 59.11288070678711 132.4196014404297 58.75705337524414 133.73204040527344 C58.40122985839844 135.0444793701172 57.77596664428711 136.2396697998047 56.64217758178711 136.9735870361328 C54.670509338378906 138.24986267089844 51.92081069946289 137.6182861328125 49.74006652832031 137.5190887451172 C47.98228454589844 137.4391326904297 46.22442626953125 137.37051391601562 44.46634292602539 137.31387329101562 C42.70825958251953 137.25723266601562 40.949951171875 137.21255493164062 39.19126510620117 137.1804656982422 C37.43258285522461 137.14837646484375 35.67352294921875 137.12887573242188 33.91393280029297 137.12258911132812 L33.91393280029297 137.12258911132812 C34.11825942993164 139.26710510253906 34.207252502441406 141.45513916015625 34.181617736816406 143.66140747070312 C34.15598678588867 145.86767578125 34.01572799682617 148.09219360351562 33.76154708862305 150.30963134765625 C33.50736999511719 152.52708435058594 33.1392707824707 154.7374725341797 32.657955169677734 156.91551208496094 C32.17664337158203 159.09356689453125 31.58211326599121 161.2392578125 30.875076293945312 163.32730102539062 C30.168041229248047 165.4153594970703 29.348495483398438 167.44577026367188 28.417150497436523 169.39324951171875 C27.694904327392578 170.9034881591797 26.863344192504883 172.42173767089844 25.900390625 173.8535614013672 C24.93743896484375 175.28538513183594 23.84309196472168 176.63079833984375 22.595273971557617 177.79537963867188 C21.347457885742188 178.9599609375 19.9461669921875 179.9437255859375 18.369325637817383 180.65225219726562 C16.50938606262207 181.48797607421875 14.600587844848633 181.7134246826172 12.665749549865723 181.73463439941406 C10.730911254882812 181.75584411621094 8.77003288269043 181.57281494140625 6.805932521820068 181.59158325195312 L6.805932998657227 174.15948486328125 L6.805932521820068 166.72735595703125 L6.805932521820068 159.29527282714844 L6.805932998657227 151.86317443847656 L6.80593204498291 144.43104553222656 L6.80593204498291 136.9989471435547 L6.80593204498291 129.56683349609375 L6.805932521820068 122.13473510742188 L6.805932998657227 114.70263671875 L6.805932998657227 107.2705307006836 L6.805932521820068 99.83842468261719 L6.80593204498291 92.40631103515625 L6.80593204498291 84.97420501708984 L6.80593204498291 77.54210662841797 L6.805932998657227 70.11000061035156 L6.805932521820068 62.677894592285156 L6.805932521820068 55.24578857421875 L6.805932998657227 47.813682556152344 L6.805932521820068 40.38157653808594 C8.791106224060059 40.464473724365234 10.76405143737793 40.39716720581055 12.732383728027344 40.2682991027832 C14.700716018676758 40.13943099975586 16.66443634033203 39.94900131225586 18.63115692138672 39.78565979003906 C20.59787940979004 39.622314453125 22.567604064941406 39.486061096191406 24.54794692993164 39.46553421020508 C26.315174102783203 39.44721984863281 28.012622833251953 39.37592697143555 29.421539306640625 39.78336715698242 C30.830455780029297 40.1908073425293 31.95083999633789 41.07697296142578 32.563934326171875 42.973575592041016 L32.563934326171875 42.973575592041016 C34.707122802734375 42.6920166015625 36.87043380737305 42.67239761352539 39.04282760620117 42.77862548828125 C41.2152214050293 42.88485336303711 43.396697998046875 43.11692810058594 45.576210021972656 43.3387565612793 C47.75572204589844 43.560585021972656 49.93327331542969 43.77216339111328 52.09781265258789 43.83739471435547 C54.26235580444336 43.90263366699219 56.41388702392578 43.82152557373047 58.54136657714844 43.457977294921875 L58.54136657714844 43.457977294921875"></path>
<path fill="none" stroke="black" stroke-width=".3" stroke-opacity="1.0"  filling="0" d="M40.57617950439453 46.382328033447266 L40.57617950439453 46.382328033447266 C42.82395935058594 46.423377990722656 45.063751220703125 46.52615737915039 47.296546936035156 46.709877014160156 C49.52934265136719 46.89360046386719 51.75514221191406 47.15826416015625 53.97492980957031 47.52307891845703 L53.97492980957031 47.52307891845703 C54.106258392333984 49.898162841796875 54.23637771606445 52.27525329589844 54.363773345947266 54.654029846191406 C54.49116897583008 57.032806396484375 54.615840911865234 59.413265228271484 54.736270904541016 61.79509735107422 C54.85670471191406 64.17692565917969 54.97289276123047 66.56012725830078 55.08333206176758 68.94437408447266 C55.19376754760742 71.32862091064453 55.29844665527344 73.71392059326172 55.39585494995117 76.0999526977539 C55.493263244628906 78.4859848022461 55.583396911621094 80.87274932861328 55.66474533081055 83.25992584228516 C55.74609375 85.64710235595703 55.81865310668945 88.03469848632812 55.88090515136719 90.4223861694336 C55.94316101074219 92.81007385253906 55.99510955810547 95.19786071777344 56.03524398803711 97.5854263305664 C56.075374603271484 99.97299194335938 56.10368347167969 102.36033630371094 56.11865997314453 104.74713897705078 C56.13363265991211 107.13394165039062 56.13526916503906 109.52021026611328 56.12205505371094 111.9056167602539 C56.10884094238281 114.29102325439453 56.080772399902344 116.67557525634766 56.036338806152344 119.05895233154297 C55.991905212402344 121.44232940673828 55.93109893798828 123.82453155517578 55.852413177490234 126.20524597167969 C55.77372360229492 128.58595275878906 55.677154541015625 130.96517944335938 55.561180114746094 133.3425750732422 L55.561180114746094 133.3425750732422 C53.33378219604492 134.14715576171875 50.952152252197266 134.52452087402344 48.51299285888672 134.62643432617188 C46.073829650878906 134.72836303710938 43.5771369934082 134.55484008789062 41.11960220336914 134.2576446533203 C38.66206741333008 133.96044921875 36.24369812011719 133.53958129882812 33.961181640625 133.14682006835938 L33.961181640625 133.14682006835938 C33.32101058959961 132.00482177734375 32.94602966308594 130.63339233398438 32.68862533569336 129.2328643798828 C32.43122482299805 127.83234405517578 32.29140090942383 126.40272521972656 32.12154769897461 125.14435577392578 C31.872655868530273 123.30042266845703 31.676197052001953 121.44929504394531 31.519554138183594 119.5941390991211 C31.362911224365234 117.73898315429688 31.24608612060547 115.87979125976562 31.15645980834961 114.01974487304688 C31.066835403442383 112.1596908569336 31.004413604736328 110.29876708984375 30.956575393676758 108.44014739990234 C30.898090362548828 106.16783142089844 30.862878799438477 103.89506530761719 30.848655700683594 101.6220474243164 C30.834430694580078 99.34902954101562 30.841196060180664 97.07575988769531 30.866662979125977 94.80244445800781 C30.89212989807129 92.52912902832031 30.93630027770996 90.2557601928711 30.99688720703125 87.9825439453125 C31.057476043701172 85.70933532714844 31.13448143005371 83.43627166748047 31.225622177124023 81.16356658935547 C31.316762924194336 78.89086151123047 31.42203712463379 76.61851501464844 31.539159774780273 74.34671783447266 C31.656282424926758 72.07492065429688 31.785255432128906 69.8036880493164 31.923791885375977 67.53321075439453 C32.06232833862305 65.26273345947266 32.21043014526367 62.993011474609375 32.36581039428711 60.72425079345703 C32.52119445800781 58.45549011230469 32.68385314941406 56.18769073486328 32.85150909423828 53.92105484008789 C33.0191650390625 51.6544189453125 33.19181823730469 49.388938903808594 33.36717987060547 47.12482833862305 L33.36717987060547 47.12482833862305 C35.774810791015625 46.63005828857422 38.120819091796875 46.4430046081543 40.57617950439453 46.382328033447266 L40.57617950439453 46.382328033447266"></path>
<path fill="none" stroke="black" stroke-width=".3" stroke-opacity="1.0"  filling="0" d="M144.13487243652344 235.15594482421875 L144.13487243652344 235.15594482421875 C143.1019287109375 235.00775146484375 142.26968383789062 235.0154266357422 141.37413024902344 234.37969970703125 C140.15234375 233.51239013671875 139.51217651367188 231.810546875 139.133056640625 229.9951934814453 C138.75392150878906 228.17984008789062 138.6358184814453 226.25099182128906 138.4581298828125 224.9296875 C138.13644409179688 222.5375213623047 137.73985290527344 220.17056274414062 137.24871826171875 217.83499145507812 C136.75758361816406 215.49942016601562 136.17189025878906 213.1952362060547 135.47198486328125 210.9286346435547 C134.77206420898438 208.66204833984375 133.9579315185547 206.43301391601562 133.00990295410156 204.24777221679688 C132.06187438964844 202.06253051757812 130.97994995117188 199.92105102539062 129.74447631835938 197.82952880859375 C128.5383758544922 195.78773498535156 127.3702621459961 193.7259979248047 126.22846221923828 191.65042114257812 C125.08666229248047 189.57484436035156 123.97117614746094 187.4854278564453 122.87032318115234 185.38832092285156 C121.76947021484375 183.29119873046875 120.6832504272461 181.18637084960938 119.59999084472656 179.07994079589844 C118.51673126220703 176.9735107421875 117.4364242553711 174.86549377441406 116.34739685058594 172.7620086669922 C115.25836944580078 170.6585235595703 114.1606216430664 168.5595703125 113.04246520996094 166.4712677001953 C111.92431640625 164.38296508789062 110.7857666015625 162.30531311035156 109.61512756347656 160.2444305419922 C108.60830688476562 158.47193908691406 107.57925415039062 156.68972778320312 106.515380859375 154.91941833496094 C105.4515151977539 153.1490936279297 104.35282897949219 151.3906707763672 103.20674133300781 149.66571044921875 C102.06065368652344 147.94076538085938 100.86715698242188 146.24928283691406 99.61367797851562 144.61288452148438 C98.36019134521484 142.9764862060547 97.04672241210938 141.39517211914062 95.6606674194336 139.8905029296875 C93.99702453613281 138.08448791503906 92.23283386230469 136.37754821777344 90.3831787109375 134.76931762695312 C88.53352355957031 133.1610870361328 86.59839630126953 131.65158081054688 84.59284973144531 130.2404022216797 C82.58731079101562 128.8292236328125 80.51136016845703 127.51640319824219 78.38006591796875 126.30155181884766 C76.24876403808594 125.08670043945312 74.06211853027344 123.96981811523438 71.83519744873047 122.9505615234375 C69.63993835449219 121.94579315185547 67.3820571899414 120.99791717529297 65.08073425292969 120.17527770996094 C62.7794189453125 119.35264587402344 60.434654235839844 118.65524291992188 58.06562805175781 118.15142059326172 L58.0510368347168 110.98954010009766 L58.03645324707031 103.82767486572266 L58.0218620300293 96.6657943725586 L58.00727462768555 89.50392150878906 L57.99268341064453 82.342041015625 L57.97809600830078 75.18017578125 L57.963504791259766 68.01829528808594 L57.948917388916016 60.856422424316406 L57.934326171875 53.69454574584961 L57.91973876953125 46.53266906738281 C60.374473571777344 46.45810317993164 62.82476806640625 46.340999603271484 65.27143859863281 46.188785552978516 C67.71810913085938 46.03656768798828 70.16117095947266 45.849239349365234 72.60142517089844 45.63421630859375 C75.04167938232422 45.419193267822266 77.47914123535156 45.17647933959961 79.91461944580078 44.91349411010742 C82.35009765625 44.650508880615234 84.78359985351562 44.367252349853516 87.2159423828125 44.07114791870117 C89.64828491210938 43.77504348754883 92.0794677734375 43.466087341308594 94.51031494140625 43.15170669555664 C96.941162109375 42.83732604980469 99.37167358398438 42.517520904541016 101.80266571044922 42.199710845947266 C104.23365783691406 41.88189697265625 106.66513061523438 41.56608581542969 109.09791564941406 41.25968551635742 C111.34774017333984 40.9763298034668 113.6093978881836 40.693912506103516 115.87928009033203 40.428707122802734 C118.14916229248047 40.16350173950195 120.42726135253906 39.915504455566406 122.7099838256836 39.700992584228516 C124.9926986694336 39.486480712890625 127.280029296875 39.30545425415039 129.568359375 39.1741828918457 C131.856689453125 39.042911529541016 134.14601135253906 38.96139907836914 136.43272399902344 38.94591522216797 C138.7194366455078 38.93042755126953 141.0035400390625 38.98097229003906 143.2814178466797 39.11382293701172 C145.55929565429688 39.246665954589844 147.8309326171875 39.461814880371094 150.09275817871094 39.77553939819336 C152.09506225585938 40.05326843261719 154.09112548828125 40.41940689086914 156.0602264404297 40.89291000366211 C158.02932739257812 41.36640930175781 159.97149658203125 41.9472770690918 161.8660430908203 42.654457092285156 C163.76058959960938 43.36164093017578 165.60751342773438 44.19513702392578 167.3861083984375 45.17390823364258 C168.50949096679688 45.792110443115234 169.71286010742188 46.45445251464844 170.82156372070312 47.23133850097656 C171.93026733398438 48.00822448730469 172.94430541992188 48.89965057373047 173.6890106201172 49.976016998291016 C175.10223388671875 52.01861572265625 175.90673828125 54.41672134399414 176.2498321533203 56.89645767211914 C176.59292602539062 59.376190185546875 176.47459411621094 61.937557220458984 176.0421142578125 64.30667114257812 L176.0421142578125 64.30667114257812 C175.87112426757812 64.36067199707031 175.7001190185547 64.4146728515625 175.5291290283203 64.46867370605469 L175.61012268066406 64.63067626953125 C177.09378051757812 64.90415954589844 178.50852966308594 65.22834014892578 179.85122680664062 65.72687530517578 C181.19390869140625 66.22541046142578 182.4645233154297 66.89830017089844 183.659912109375 67.86918640136719 C185.6973114013672 69.52395629882812 187.08482360839844 71.60043334960938 187.8750457763672 73.8633804321289 C188.665283203125 76.1263198852539 188.85824584960938 78.57572937011719 188.5065460205078 80.97635650634766 C188.15484619140625 83.37698364257812 187.25851440429688 85.72883605957031 185.87013244628906 87.79667663574219 L185.87013244628906 87.79667663574219 C188.01150512695312 88.96196746826172 189.632080078125 90.57160186767578 190.75511169433594 92.43116760253906 C191.87814331054688 94.29072570800781 192.50363159179688 96.40021514892578 192.65484619140625 98.56519317626953 C192.80606079101562 100.73017883300781 192.48301696777344 102.9506607055664 191.70896911621094 105.03221130371094 C190.9349365234375 107.11376953125 189.70989990234375 109.056396484375 188.05712890625 110.6656723022461 L188.05712890625 110.6656723022461 C188.04812622070312 110.78267669677734 188.03912353515625 110.89967346191406 188.03012084960938 111.01667785644531 L188.03012084960938 111.01667785644531 C189.8253936767578 111.76665496826172 190.39515686035156 111.845947265625 191.89427185058594 113.07079315185547 C193.47811889648438 114.3648681640625 194.56222534179688 116.0318832397461 195.227783203125 117.87727355957031 C195.89334106445312 119.72267150878906 196.14036560058594 121.74644470214844 196.050048828125 123.75403594970703 C195.959716796875 125.76163482666016 195.5320587158203 127.7530517578125 194.84825134277344 129.5337371826172 C194.15277099609375 131.34483337402344 192.86105346679688 134.01651000976562 191.0001220703125 134.93869018554688 C189.3537139892578 135.7545623779297 187.35113525390625 136.2337188720703 185.3097686767578 136.5658721923828 C183.26840209960938 136.8980255126953 181.18826293945312 137.0831756591797 179.38673400878906 137.31101989746094 C177.17401123046875 137.59088134765625 174.95184326171875 137.7945556640625 172.7262420654297 137.97048950195312 C170.5006561279297 138.14642333984375 168.2716522216797 138.29458618164062 166.04530334472656 138.4634246826172 C163.81893920898438 138.63226318359375 161.59521484375 138.82176208496094 159.3801727294922 139.08035278320312 C157.16514587402344 139.33892822265625 154.95880126953125 139.66659545898438 152.76718139648438 140.1117706298828 C151.21438598632812 140.42718505859375 149.67262268066406 140.8020477294922 148.15261840820312 141.24945068359375 C146.63262939453125 141.69683837890625 145.1343994140625 142.21676635742188 143.6686248779297 142.822265625 C142.6935577392578 143.22506713867188 141.53343200683594 143.3935546875 140.7936248779297 144.1456756591797 C140.22869873046875 144.7200164794922 140.07057189941406 146.26278686523438 139.9519805908203 146.89334106445312 C139.6756591796875 148.36256408691406 139.51416015625 149.77175903320312 139.53512573242188 151.1729736328125 C139.55609130859375 152.5741729736328 139.75955200195312 153.9674072265625 140.213134765625 155.40467834472656 L140.213134765625 155.40467834472656 C140.4307098388672 157.95518493652344 140.9133758544922 160.4026641845703 141.57643127441406 162.78131103515625 C142.23948669433594 165.1599578857422 143.0829315185547 167.46978759765625 144.02206420898438 169.7449493408203 C144.96119689941406 172.02012634277344 145.99603271484375 174.26065063476562 147.04185485839844 176.500732421875 C148.08767700195312 178.74081420898438 149.14451599121094 180.9804229736328 150.1276397705078 183.2537841796875 C151.1107635498047 185.52713012695312 152.02020263671875 187.834228515625 152.77122497558594 190.209228515625 C153.4593963623047 192.3854217529297 153.8997802734375 194.5569610595703 154.16090393066406 196.73402404785156 C154.4220428466797 198.91110229492188 154.50392150878906 201.0937042236328 154.47508239746094 203.29208374023438 C154.44622802734375 205.49044799804688 154.30667114257812 207.70458984375 154.12489318847656 209.94468688964844 C153.92918395996094 212.35653686523438 154.06390380859375 214.72740173339844 153.74014282226562 217.12669372558594 C153.4849853515625 219.01748657226562 153.38563537597656 221.06997680664062 153.2107391357422 223.1051483154297 C153.03585815429688 225.1403350830078 152.78543090820312 227.15818786621094 152.2281494140625 228.9796905517578 C151.667236328125 230.81304931640625 150.55360412597656 232.30360412597656 149.12535095214844 233.36257934570312 C147.69711303710938 234.4215545654297 145.95423889160156 235.04893493652344 144.13487243652344 235.15594482421875 L144.13487243652344 235.15594482421875"></path></svg>