<svg xmlns="http://www.w3.org/2000/svg" viewBox="0.0 0.0 24.0 24.0" height="200px" width="200px"><path fill="none" stroke="black" stroke-width=".3" stroke-opacity="1.0"  filling="0" d="M117.11100769042969 18.075000762939453 L117.11100769042969 18.075000762939453 C118.28744506835938 18.098369598388672 119.46480560302734 18.051681518554688 120.64099884033203 18.08500099182129 C121.62602233886719 18.112905502319336 122.82579803466797 17.9671573638916 123.48001098632812 18.965999603271484 C123.93982696533203 19.66803741455078 123.90995788574219 20.896778106689453 122.97000122070312 21.28799819946289 C122.14007568359375 21.6334228515625 118.34593200683594 21.4772891998291 117.59701538085938 20.963998794555664 C116.84398651123047 20.44788932800293 117.0949935913086 18.694028854370117 117.11100769042969 18.075000762939453 L117.11100769042969 18.075000762939453"></path>
<path fill="none" stroke="black" stroke-width=".3" stroke-opacity="1.0"  filling="0" d="M107.12100219726562 19.398000717163086 L107.12100219726562 19.398000717163086 C107.69580841064453 19.29640007019043 109.27839660644531 18.831600189208984 109.8479995727539 19.45199966430664 C110.7597427368164 20.445045471191406 109.87740325927734 21.464008331298828 109.06500244140625 21.908998489379883 C108.21808624267578 22.372896194458008 105.4854507446289 22.92751121520996 104.52899932861328 22.854000091552734 C103.87854766845703 22.80400848388672 102.2135009765625 22.06715202331543 102.8280029296875 20.90999984741211 C103.20797729492188 20.194486618041992 106.36206817626953 19.64848518371582 107.12100219726562 19.398000717163086 L107.12100219726562 19.398000717163086"></path>
<path fill="none" stroke="black" stroke-width=".3" stroke-opacity="1.0"  filling="0" d="M131.447998046875 20.15399932861328 L131.447998046875 20.15399932861328 C132.9365234375 20.24293327331543 133.04080200195312 20.17414665222168 134.49224853515625 20.562374114990234 C134.99415588378906 20.69662094116211 135.48635864257812 20.866680145263672 135.973876953125 21.0462646484375 C136.89561462402344 21.38579750061035 139.50894165039062 23.318246841430664 136.74000549316406 24.014999389648438 C135.8252410888672 24.245182037353516 132.16464233398438 22.997961044311523 131.3939971923828 22.503002166748047 C131.01698303222656 22.260866165161133 130.63107299804688 21.837202072143555 130.64137268066406 21.389251708984375 C130.65267944335938 20.89761734008789 131.1791229248047 20.565750122070312 131.447998046875 20.15399932861328 L131.447998046875 20.15399932861328"></path>
<path fill="none" stroke="black" stroke-width=".3" stroke-opacity="1.0"  filling="0" d="M95.56500244140625 23.285999298095703 L95.56500244140625 23.285999298095703 C95.97900390625 23.645999908447266 96.62735748291016 23.847614288330078 96.80699920654297 24.36600112915039 C97.44185638427734 26.198017120361328 95.81810760498047 26.290531158447266 94.76512145996094 26.812875747680664 C93.00707244873047 27.684974670410156 92.24331665039062 28.358657836914062 90.27300262451172 28.226999282836914 L90.27300262451172 28.226999282836914 C89.80574035644531 26.62326431274414 90.51297760009766 25.634037017822266 91.64491271972656 24.922733306884766 C92.77684020996094 24.211427688598633 94.3334732055664 23.778045654296875 95.56500244140625 23.285999298095703 L95.56500244140625 23.285999298095703"></path>
<path fill="none" stroke="black" stroke-width=".3" stroke-opacity="1.0"  filling="0" d="M144.6510009765625 25.31100082397461 L144.6510009765625 25.31100082397461 C146.88003540039062 25.892486572265625 148.88783264160156 27.265295028686523 150.64500427246094 28.739999771118164 L150.64500427246094 28.739999771118164 C150.37347412109375 29.286556243896484 150.02040100097656 30.44229507446289 149.1330108642578 30.441001892089844 C148.64874267578125 30.440296173095703 146.8892822265625 29.16487693786621 146.54100036621094 28.95600128173828 C144.8654022216797 27.951074600219727 142.87144470214844 27.30698013305664 144.6510009765625 25.31100082397461 L144.6510009765625 25.31100082397461"></path>
<path fill="none" stroke="black" stroke-width=".3" stroke-opacity="1.0"  filling="0" d="M83.36100006103516 30.981002807617188 L83.36100006103516 30.981002807617188 C83.78287506103516 31.19025230407715 84.33244323730469 31.241025924682617 84.62662506103516 31.60875129699707 C84.92678833007812 31.983957290649414 84.86286926269531 32.540252685546875 84.98099517822266 33.006004333496094 L84.98099517822266 33.006004333496094 C83.87841033935547 33.89191436767578 82.37337493896484 35.724937438964844 81.14700317382812 36.327003479003906 C80.65310668945312 36.56947326660156 79.9864273071289 36.8150749206543 79.5101318359375 36.53962707519531 C79.04120635986328 36.26844024658203 78.82626342773438 35.56679916381836 78.90599822998047 35.031002044677734 C78.97943115234375 34.53755187988281 79.5462417602539 34.26375961303711 79.9010009765625 33.913002014160156 C80.97229766845703 32.85378646850586 82.15177917480469 31.874774932861328 83.36100006103516 30.981002807617188 L83.36100006103516 30.981002807617188"></path>
<path fill="none" stroke="black" stroke-width=".3" stroke-opacity="1.0"  filling="0" d="M155.26199340820312 34.35600280761719 L155.26199340820312 34.35600280761719 C155.75698852539062 34.03200149536133 156.2519989013672 33.708003997802734 156.7469940185547 33.384002685546875 L156.7469940185547 33.384002685546875 C157.73074340820312 34.459381103515625 158.7648468017578 35.43885803222656 159.79800415039062 36.461997985839844 C160.11004638671875 36.771018981933594 161.20884704589844 37.784324645996094 160.95899963378906 38.43299865722656 C159.8126220703125 41.40930938720703 157.9025115966797 38.279998779296875 156.95286560058594 37.27874755859375 C156.5372314453125 36.84053421020508 155.94244384765625 36.55278396606445 155.63999938964844 36.029998779296875 C155.35354614257812 35.53484344482422 155.38800048828125 34.91400146484375 155.26199340820312 34.35600280761719 L155.26199340820312 34.35600280761719"></path>
<path fill="none" stroke="black" stroke-width=".3" stroke-opacity="1.0"  filling="0" d="M164.92800903320312 44.75100326538086 L164.92800903320312 44.75100326538086 C165.364501953125 44.825252532958984 165.87196350097656 44.72389602661133 166.23748779296875 44.973751068115234 C167.10714721679688 45.568199157714844 168.16477966308594 47.843780517578125 168.74700927734375 48.744998931884766 C169.02188110351562 49.17046356201172 169.48602294921875 49.563499450683594 169.49099731445312 50.070003509521484 C169.49803161621094 50.78689956665039 168.0139617919922 51.43657302856445 167.52000427246094 51.28499984741211 C166.63636779785156 51.01385498046875 165.9430694580078 49.60456466674805 165.4949951171875 48.9370002746582 C164.4532470703125 47.384944915771484 162.88922119140625 46.051090240478516 164.92800903320312 44.75100326538086 L164.92800903320312 44.75100326538086"></path>
<path fill="none" stroke="black" stroke-width=".3" stroke-opacity="1.0"  filling="0" d="M70.23899841308594 46.07400131225586 L70.23899841308594 46.07400131225586 C71.39979553222656 44.34809494018555 72.4588623046875 42.62226486206055 73.83000183105469 41.052001953125 L73.83000183105469 41.052001953125 C74.36100006103516 41.33100128173828 74.89200592041016 41.61000061035156 75.42300415039062 41.888999938964844 L75.42300415039062 41.888999938964844 C75.14836883544922 43.47307205200195 74.08007049560547 45.779319763183594 72.9592514038086 46.988624572753906 C71.544921875 48.514610290527344 70.57180786132812 47.60312271118164 70.23899841308594 46.07400131225586 L70.23899841308594 46.07400131225586"></path>
<path fill="none" stroke="black" stroke-width=".3" stroke-opacity="1.0"  filling="0" d="M65.43299865722656 56.57699966430664 L65.43299865722656 56.57699966430664 C65.87074279785156 55.43437957763672 66.41558074951172 54.32746505737305 67.05299377441406 53.282997131347656 L67.05299377441406 53.282997131347656 C67.3909683227539 53.48439407348633 68.73148345947266 54.18297576904297 68.86200714111328 54.65999984741211 C69.07246398925781 55.42915344238281 68.29158782958984 56.69236755371094 68.05000305175781 57.320003509521484 C67.57699584960938 58.54888153076172 67.62771606445312 61.29009246826172 65.48699951171875 60.38737487792969 C65.09909057617188 60.22380065917969 64.875 59.80912399291992 64.56900024414062 59.52000045776367 L64.56900024414062 59.52000045776367 C64.89566802978516 58.55118942260742 65.18450164794922 57.56874084472656 65.43299865722656 56.57699966430664 L65.43299865722656 56.57699966430664"></path>
<path fill="none" stroke="black" stroke-width=".3" stroke-opacity="1.0"  filling="0" d="M171.97499084472656 57.22500228881836 L171.97499084472656 57.22500228881836 C172.60499572753906 57.12600326538086 173.24778747558594 56.767539978027344 173.86500549316406 56.928001403808594 C174.3662567138672 57.05831527709961 174.66085815429688 57.601463317871094 174.98300170898438 58.00699996948242 C175.56251525878906 58.73651123046875 177.27133178710938 60.9291877746582 177.16912841796875 61.939876556396484 C176.84100341796875 65.18467712402344 173.99441528320312 61.798343658447266 173.58486938476562 61.170372009277344 C173.245849609375 60.650535583496094 172.8686065673828 60.155731201171875 172.54200744628906 59.62799835205078 C172.10891723632812 58.92817687988281 171.9420166015625 58.04733657836914 171.97499084472656 57.22500228881836 L171.97499084472656 57.22500228881836"></path>
<path fill="none" stroke="black" stroke-width=".3" stroke-opacity="1.0"  filling="0" d="M188.22900390625 62.30099868774414 L188.22900390625 62.30099868774414 C188.56201171875 62.30999755859375 188.89500427246094 62.31899642944336 189.22801208496094 62.32799530029297 L189.22801208496094 62.32799530029297 C189.60543823242188 64.35395812988281 189.97203063964844 66.37153625488281 190.35247802734375 68.38007354736328 C190.73292541503906 70.38861846923828 191.12722778320312 72.38813018798828 191.56005859375 74.37798309326172 C191.99288940429688 76.36782836914062 192.46426391601562 78.34801483154297 192.99887084960938 80.3178939819336 C193.53346252441406 82.28778076171875 194.13128662109375 84.24736022949219 194.81700134277344 86.19599914550781 C195.53048706054688 88.22354125976562 196.19412231445312 90.3878173828125 197.05799865722656 92.35200500488281 C197.35983276367188 93.03829193115234 198.648193359375 94.7441177368164 198.1380157470703 95.69999694824219 C197.95982360839844 96.03385162353516 197.3312225341797 95.83612823486328 197.00401306152344 95.64600372314453 C196.47756958007812 95.3401107788086 196.1737518310547 94.75515747070312 195.7535858154297 94.31450653076172 C194.4954833984375 92.99506378173828 193.2212677001953 91.68099975585938 191.93112182617188 90.38288879394531 C190.64096069335938 89.08477783203125 189.33486938476562 87.80261993408203 188.0130157470703 86.5469970703125 C186.79798889160156 85.39285278320312 185.52053833007812 84.3188705444336 184.2071075439453 83.29059600830078 C182.8936767578125 82.2623291015625 181.54425048828125 81.27976989746094 180.1852569580078 80.30848693847656 C178.82626342773438 79.33720397949219 177.45770263671875 78.37718200683594 176.1060028076172 77.39399719238281 C174.4304962158203 76.17528533935547 172.3351287841797 75.23796844482422 171.3000030517578 73.42500305175781 L171.3000030517578 73.42500305175781 C172.83905029296875 73.23393249511719 174.37535095214844 73.1985092163086 175.91299438476562 73.1846923828125 C177.45065307617188 73.1708755493164 178.9896240234375 73.17866516113281 180.5340118408203 73.07400512695312 L180.5340118408203 73.07400512695312 C180.5928192138672 72.13306427001953 180.15582275390625 71.13750457763672 179.53500366210938 70.42799377441406 L179.53500366210938 70.42799377441406 C180.00306701660156 68.43090057373047 180.03575134277344 68.34761810302734 181.96499633789062 68.26800537109375 L181.96499633789062 68.26800537109375 C182.4935302734375 69.15038299560547 183.0807647705078 70.00019836425781 183.72000122070312 70.80599975585938 L183.72000122070312 70.80599975585938 C184.81134033203125 69.71466064453125 185.70199584960938 68.32182312011719 186.43812561035156 66.83511352539062 C187.1742401123047 65.3484115600586 187.7558135986328 63.76782989501953 188.22900390625 62.30099868774414 L188.22900390625 62.30099868774414"></path>
<path fill="none" stroke="black" stroke-width=".3" stroke-opacity="1.0"  filling="0" d="M62.948997497558594 67.53900146484375 L62.948997497558594 67.53900146484375 C63.75630187988281 67.28589630126953 64.68228912353516 67.3047866821289 65.48700714111328 67.56600189208984 L65.48700714111328 67.56600189208984 C65.61249542236328 69.79348754882812 65.34591674804688 71.97659301757812 65.29800415039062 74.20800018310547 L65.29800415039062 74.20800018310547 C64.38922119140625 74.24149322509766 63.476131439208984 74.21503448486328 62.57099914550781 74.12699890136719 L62.57099914550781 74.12699890136719 C62.62443161010742 71.9244613647461 62.794700622558594 69.73623657226562 62.948997497558594 67.53900146484375 L62.948997497558594 67.53900146484375"></path>
<path fill="none" stroke="black" stroke-width=".3" stroke-opacity="1.0"  filling="0" d="M60.977996826171875 89.94900512695312 L60.977996826171875 89.94900512695312 C62.436763763427734 89.89143371582031 64.25816345214844 89.79220581054688 66.00567626953125 89.97298431396484 C67.75318908691406 90.15376281738281 69.42680358886719 90.61454772949219 70.59000396728516 91.677001953125 C71.58833312988281 92.5888671875 71.62405395507812 93.21182250976562 72.04800415039062 94.43099212646484 C72.58998107910156 95.98956298828125 73.0171890258789 97.54879760742188 73.41043090820312 99.11576843261719 C73.80366516113281 100.68274688720703 74.16293334960938 102.25746154785156 74.56900024414062 103.84700775146484 C75.00300598144531 105.54590606689453 75.43113708496094 107.29312896728516 75.8023452758789 109.064208984375 C76.17355346679688 110.83529663085938 76.48783874511719 112.63024139404297 76.69416809082031 114.42459106445312 C76.90049743652344 116.21894836425781 76.99887084960938 118.01271057128906 76.93824768066406 119.78141784667969 C76.8767318725586 121.57606506347656 76.58406829833984 123.28782653808594 76.17778015136719 124.96388244628906 C75.77149963378906 126.63993072509766 75.25159454345703 128.2802734375 74.7356185913086 129.93206787109375 C74.21964263916016 131.5838623046875 73.70759582519531 133.24713134765625 73.31700134277344 134.96900939941406 C72.97540283203125 136.4749298095703 72.95164489746094 138.0786590576172 72.98804473876953 139.690673828125 C73.02444458007812 141.30267333984375 73.1209945678711 142.92295837402344 73.02000427246094 144.4619903564453 L73.02000427246094 144.4619903564453 C71.57493591308594 144.43472290039062 70.13034057617188 144.42771911621094 68.68572235107422 144.42767333984375 C67.24110412597656 144.42764282226562 65.79644775390625 144.43458557128906 64.35126495361328 144.43524169921875 C64.29150390625 144.43527221679688 60.95826721191406 144.43255615234375 60.89699935913086 144.4080047607422 C59.54603958129883 143.86666870117188 59.35859298706055 142.56678771972656 58.86399841308594 141.42601013183594 C58.233802795410156 139.97247314453125 57.62139892578125 138.51254272460938 57.03583908081055 137.04171752929688 C56.450279235839844 135.57090759277344 55.89156723022461 134.08920288085938 55.368751525878906 132.59213256835938 C54.90595626831055 131.2669219970703 54.397499084472656 129.8756561279297 53.96162414550781 128.4659423828125 C53.52574920654297 127.05621337890625 53.16245651245117 125.62803649902344 52.98999786376953 124.22900390625 C52.74703598022461 122.25802612304688 52.65089416503906 120.31442260742188 52.68210983276367 118.39112854003906 C52.71332550048828 116.46783447265625 52.87189483642578 114.56484985351562 53.13834762573242 112.67510223388672 C53.40480422973633 110.78535461425781 53.77914810180664 108.90885925292969 54.241912841796875 107.03852844238281 C54.70467758178711 105.16819763183594 55.255859375 103.30404663085938 55.875999450683594 101.43900299072266 C56.502685546875 99.55426025390625 57.08308792114258 97.40996551513672 57.854366302490234 95.37274932861328 C58.62564468383789 93.33554077148438 59.587799072265625 91.40541076660156 60.977996826171875 89.94900512695312 L60.977996826171875 89.94900512695312"></path>
<path fill="none" stroke="black" stroke-width=".3" stroke-opacity="1.0"  filling="0" d="M206.6699981689453 105.85200500488281 L206.6699981689453 105.85200500488281 C208.78082275390625 105.81083679199219 210.87428283691406 105.76800537109375 212.95962524414062 105.77388763427734 C215.04495239257812 105.77976989746094 217.1221466064453 105.83435821533203 219.20040893554688 105.98802185058594 C221.2786865234375 106.14167785644531 223.3580322265625 106.3944091796875 225.44766235351562 106.79657745361328 C227.76132202148438 107.24185180664062 230.4351348876953 107.06938934326172 232.58999633789062 108.17400360107422 C234.06170654296875 108.92842864990234 234.06533813476562 110.55668640136719 234.1998748779297 111.97213745117188 C234.34130859375 113.46011352539062 234.50274658203125 114.92117309570312 234.31199645996094 116.27506256103516 C234.12124633789062 117.62895202636719 233.5783233642578 118.87567901611328 232.31100463867188 119.93499755859375 C231.33824157714844 120.74810791015625 230.19740295410156 121.40924072265625 229.01785278320312 122.00592803955078 C227.83828735351562 122.60261535644531 226.62002563476562 123.13484191894531 225.49237060546875 123.69013977050781 C223.53892517089844 124.65209197998047 221.4720001220703 125.6930923461914 219.33909606933594 126.6717758178711 C217.20619201660156 127.65046691894531 215.00730895996094 128.56683349609375 212.7899627685547 129.2794952392578 C210.57261657714844 129.99215698242188 208.3367919921875 130.50112915039062 206.1300048828125 130.66500854492188 C203.84869384765625 130.83444213867188 201.58291625976562 130.66482543945312 199.3203582763672 130.46627807617188 C197.0577850341797 130.26773071289062 194.79843139648438 130.040283203125 192.52999877929688 130.09400939941406 C190.78961181640625 130.13523864746094 189.1341094970703 130.46690368652344 187.4883270263672 130.83218383789062 C185.84254455566406 131.19744873046875 184.20648193359375 131.59634399414062 182.5050048828125 131.77200317382812 L182.5050048828125 131.77200317382812 C182.28428649902344 130.15530395507812 182.02352905273438 128.51426696777344 181.7154541015625 126.88292694091797 C181.40737915039062 125.25157928466797 181.05197143554688 123.62992858886719 180.64199829101562 122.05199432373047 C180.34275817871094 120.9002685546875 179.6897430419922 119.84648895263672 180.48001098632812 118.64999389648438 C181.50775146484375 117.09396362304688 184.72402954101562 116.00611877441406 186.2689666748047 115.00753021240234 C187.87948608398438 113.96653747558594 189.48614501953125 112.96961212158203 191.108642578125 112.03583526611328 C192.7311248779297 111.10205841064453 194.3694305419922 110.23143005371094 196.0432586669922 109.44303131103516 C197.7170867919922 108.65463256835938 199.4264373779297 107.94845581054688 201.1909942626953 107.34358978271484 C202.95555114746094 106.73872375488281 204.77532958984375 106.23516845703125 206.6699981689453 105.85200500488281 L206.6699981689453 105.85200500488281"></path>
<path fill="none" stroke="black" stroke-width=".3" stroke-opacity="1.0"  filling="0" d="M171.218994140625 120.75599670410156 L171.218994140625 120.75599670410156 C172.63941955566406 120.2615737915039 175.44259643554688 118.82206726074219 176.9969940185547 119.32499694824219 C177.8419952392578 119.59839630126953 178.07400512695312 121.58395385742188 178.1909942626953 122.08600616455078 C178.58389282226562 123.772216796875 179.02801513671875 125.55367279052734 179.39410400390625 127.34496307373047 C179.76019287109375 129.13626098632812 180.04824829101562 130.93740844726562 180.12901306152344 132.66299438476562 L180.12901306152344 132.66299438476562 C178.42088317871094 133.18441772460938 176.66055297851562 133.64491271972656 174.91558837890625 133.73426818847656 C173.17062377929688 133.8236083984375 171.44100952148438 133.54180908203125 169.79432678222656 132.57862854003906 C168.21835327148438 131.65679931640625 167.0831298828125 129.9409637451172 166.67259216308594 128.0951690673828 C166.26206970214844 126.2493896484375 166.57623291015625 124.27364349365234 167.8990020751953 122.83200073242188 C168.6865997314453 121.9736328125 170.22174072265625 121.279296875 171.218994140625 120.75599670410156 L171.218994140625 120.75599670410156"></path>
<path fill="none" stroke="black" stroke-width=".3" stroke-opacity="1.0"  filling="0" d="M106.90499877929688 122.61900329589844 L106.90499877929688 122.61900329589844 C108.51200103759766 122.80043029785156 109.38236999511719 123.49949645996094 109.98429870605469 124.4969253540039 C110.58623504638672 125.49435424804688 110.91973114013672 126.79014587402344 111.45299530029297 128.16500854492188 C112.12646484375 129.9013671875 112.76762390136719 131.6446075439453 113.37084197998047 133.400390625 C113.97405242919922 135.15618896484375 114.53931427001953 136.92449951171875 115.06099700927734 138.7110137939453 C115.58699798583984 140.51231384277344 116.04396057128906 142.3907928466797 116.39045715332031 144.3035430908203 C116.7369613647461 146.21627807617188 116.97300720214844 148.1632843017578 117.05718994140625 150.10159301757812 C117.14137268066406 152.0399169921875 117.07369232177734 153.96954345703125 116.81273651123047 155.84756469726562 C116.50241088867188 158.08090209960938 115.93878173828125 160.33840942382812 115.24744415283203 162.55941772460938 C114.55610656738281 164.78042602539062 113.73705291748047 166.9649200439453 112.91587829589844 169.05224609375 C112.17257690429688 170.94163513183594 111.38297271728516 172.7974853515625 110.58900451660156 174.66400146484375 C110.1915054321289 175.5984649658203 109.96210479736328 176.87521362304688 108.8759994506836 177.375 C108.8048324584961 177.40774536132812 105.35645294189453 177.39625549316406 105.28499603271484 177.39599609375 C102.94210052490234 177.38768005371094 100.4277572631836 177.6645965576172 98.10299682617188 177.45599365234375 C97.59639739990234 177.41053771972656 97.0037612915039 177.4365234375 96.61800384521484 177.10501098632812 C95.79670715332031 176.3992156982422 96.68824768066406 173.21759033203125 96.68887329101562 172.3192596435547 C96.68977355957031 171.02584838867188 96.52708435058594 169.62120056152344 96.26791381835938 168.23057556152344 C96.00874328613281 166.83993530273438 95.653076171875 165.46331787109375 95.26800537109375 164.2259979248047 C94.82707214355469 162.8091583251953 94.31543731689453 161.40223693847656 93.8506088256836 159.9819793701172 C93.38577270507812 158.56173706054688 92.96774291992188 157.12814331054688 92.71400451660156 155.6580047607422 C92.42782592773438 153.99990844726562 92.47332000732422 152.36737060546875 92.64110565185547 150.74212646484375 C92.80889129638672 149.1168670654297 93.09898376464844 147.49891662597656 93.302001953125 145.87001037597656 C93.51859283447266 144.13223266601562 93.79641723632812 142.4130859375 94.12213134765625 140.70205688476562 C94.44784545898438 138.99102783203125 94.82145690917969 137.28811645507812 95.22960662841797 135.5828094482422 C95.63912963867188 133.87181091308594 95.96250915527344 131.5609588623047 96.56324005126953 129.40518188476562 C97.16397094726562 127.24940490722656 98.04206085205078 125.24870300292969 99.56099700927734 124.15798950195312 C100.59420776367188 123.41606140136719 101.82886505126953 123.08393859863281 103.10589599609375 122.91098022460938 C104.38291931152344 122.73802185058594 105.70231628417969 122.7242431640625 106.90499877929688 122.61900329589844 L106.90499877929688 122.61900329589844"></path>
<path fill="none" stroke="black" stroke-width=".3" stroke-opacity="1.0"  filling="0" d="M60.19499969482422 147.1619873046875 L60.19499969482422 147.1619873046875 C62.530399322509766 147.12783813476562 64.86489868164062 147.12335205078125 67.20051574707031 147.13143920898438 C68.74916076660156 147.1367950439453 70.9560546875 146.76971435546875 72.45299530029297 147.135009765625 C72.91183471679688 147.24697875976562 73.46654510498047 147.4368133544922 73.66799926757812 147.86399841308594 C73.85164642333984 148.25341796875 73.64580535888672 151.4040069580078 73.60050201416016 151.78575134277344 C73.37577056884766 153.67955017089844 72.91697692871094 155.74478149414062 71.58699798583984 157.2030029296875 C69.96539306640625 158.98098754882812 67.75337982177734 159.70819091796875 65.69290161132812 159.44754028320312 C63.632423400878906 159.1868896484375 61.723480224609375 157.9383544921875 60.70800018310547 155.76487731933594 C60.282264709472656 154.85365295410156 59.823116302490234 153.4629364013672 59.69700241088867 152.44400024414062 C59.488399505615234 150.75856018066406 59.35887145996094 148.65469360351562 60.19499969482422 147.1619873046875 L60.19499969482422 147.1619873046875"></path>
<path fill="none" stroke="black" stroke-width=".3" stroke-opacity="1.0"  filling="0" d="M141.97801208496094 148.9709930419922 L141.97801208496094 148.9709930419922 C143.66525268554688 148.71295166015625 145.7622833251953 149.10174560546875 147.6343536376953 149.95465087890625 C149.5064239501953 150.8075714111328 151.15353393554688 152.12460327148438 151.9409942626953 153.72300720214844 L151.9409942626953 153.72300720214844 C151.03176879882812 154.98802185058594 150.05001831054688 156.1974334716797 149.06626892089844 157.40525817871094 C148.08251953125 158.6130828857422 147.09674072265625 159.81930541992188 146.179443359375 161.07797241210938 C146.10658264160156 161.17794799804688 144.82778930664062 163.2616729736328 144.36412048339844 163.48687744140625 C143.29652404785156 164.0054168701172 142.34292602539062 163.02957153320312 141.61940002441406 162.47943115234375 C140.1259002685547 161.34385681152344 138.6469268798828 159.8075714111328 137.739013671875 158.1510009765625 C136.58026123046875 156.0367431640625 136.71412658691406 154.18246459960938 137.60061645507812 152.6363983154297 C138.48712158203125 151.09031677246094 140.12625122070312 149.85244750976562 141.97801208496094 148.9709930419922 L141.97801208496094 148.9709930419922"></path>
<path fill="none" stroke="black" stroke-width=".3" stroke-opacity="1.0"  filling="0" d="M153.61500549316406 155.802001953125 L153.61500549316406 155.802001953125 C155.3348388671875 156.1668243408203 156.85568237304688 157.21124267578125 158.35531616210938 158.35836791992188 C159.85494995117188 159.5054931640625 161.3333740234375 160.75534057617188 162.96839904785156 161.5310516357422 C164.8830108642578 162.4394073486328 166.9189453125 163.08810424804688 168.92156982421875 163.80699157714844 C170.92420959472656 164.52586364746094 172.8935546875 165.31492614746094 174.6750030517578 166.50399780273438 C176.62255859375 167.80393981933594 178.43170166015625 169.3574676513672 180.13522338867188 171.05487060546875 C181.8387451171875 172.75225830078125 183.4366455078125 174.59353637695312 184.9617156982422 176.46893310546875 C186.48678588867188 178.34434509277344 187.9390106201172 180.25390625 189.3511962890625 182.087890625 C190.1806640625 183.16510009765625 191.34317016601562 184.44769287109375 192.3131561279297 185.82180786132812 C193.28314208984375 187.19593811035156 194.06060791015625 188.66162109375 194.12001037597656 190.10501098632812 C194.19366455078125 191.89462280273438 193.11029052734375 193.5654754638672 192.24600219726562 195.0290069580078 C191.4986114501953 196.29458618164062 190.81854248046875 197.9920654296875 189.2347412109375 198.4080047607422 C187.71823120117188 198.8062744140625 185.87789916992188 198.43313598632812 184.06752014160156 197.84620666503906 C182.25714111328125 197.25927734375 180.4767303466797 196.4585418701172 179.08006286621094 196.0016326904297 C177.10369873046875 195.35507202148438 175.1064453125 194.6606903076172 173.13735961914062 193.87896728515625 C171.16827392578125 193.0972442626953 169.22735595703125 192.22817993164062 167.36367797851562 191.2322540283203 C165.49998474121094 190.23634338378906 163.71353149414062 189.11355590820312 162.0533447265625 187.8244171142578 C160.6375274658203 186.7250213623047 159.3521270751953 185.50970458984375 158.16209411621094 184.21133422851562 C156.97207641601562 182.91294860839844 155.87741088867188 181.531494140625 154.84307861328125 180.09982299804688 C153.80873107910156 178.66815185546875 152.834716796875 177.18626403808594 151.88600158691406 175.68699645996094 C151.07882690429688 174.41143798828125 150.30374145507812 173.1182861328125 149.54547119140625 171.815185546875 C148.78720092773438 170.5120849609375 148.04574584960938 169.19903564453125 147.30584716796875 167.8836669921875 C146.92750549316406 167.2110595703125 146.1807098388672 166.2332000732422 146.3385009765625 165.3228759765625 C146.53211975097656 164.20584106445312 147.94461059570312 162.87200927734375 148.6179962158203 162.02899169921875 C149.44720458984375 160.99090576171875 150.26663208007812 159.9403533935547 151.09365844726562 158.89622497558594 C151.92068481445312 157.8520965576172 152.75534057617188 156.81439208984375 153.61500549316406 155.802001953125 L153.61500549316406 155.802001953125"></path>
<path fill="none" stroke="black" stroke-width=".3" stroke-opacity="1.0"  filling="0" d="M95.94300079345703 180.04800415039062 L95.94300079345703 180.04800415039062 C97.7945785522461 180.07217407226562 99.64591979980469 180.0716552734375 101.49726867675781 180.06695556640625 C103.34861755371094 180.06224060058594 105.1999740600586 180.0533447265625 107.05156707763672 180.0607452392578 C107.37538146972656 180.06204223632812 109.45402526855469 179.7711181640625 109.82099914550781 180.61500549316406 C109.9715347290039 180.96116638183594 109.8864517211914 183.80767822265625 109.86150360107422 184.15538024902344 C109.71397399902344 186.21151733398438 109.37106323242188 188.73666381835938 107.95462799072266 190.3417510986328 C106.65678405761719 191.8124542236328 104.79608917236328 192.49624633789062 102.9384994506836 192.442626953125 C101.08090209960938 192.38900756835938 99.2264175415039 191.59796142578125 97.94099426269531 190.1190185546875 C96.78377532958984 188.78756713867188 96.22418975830078 187.08717346191406 95.98395538330078 185.31094360351562 C95.74371337890625 183.53472900390625 95.82283020019531 181.68270874023438 95.94300079345703 180.04800415039062 L95.94300079345703 180.04800415039062"></path>
<path fill="none" stroke="black" stroke-width=".3" stroke-opacity="1.0"  filling="0" d="M60.51900100708008 197.13900756835938 L60.51900100708008 197.13900756835938 C62.045475006103516 196.7130126953125 64.29704284667969 196.53138732910156 66.40808868408203 196.8422088623047 C68.51912689208984 197.15301513671875 70.48963928222656 197.95626831054688 71.45401000976562 199.50001525878906 C71.8524398803711 200.1378173828125 72.11471557617188 201.5965118408203 72.3429946899414 202.29400634765625 C72.78411865234375 203.64181518554688 73.1367416381836 204.99398803710938 73.46803283691406 206.35061645507812 C73.79931640625 207.70724487304688 74.1092529296875 209.06834411621094 74.46500396728516 210.43399047851562 C75.00033569335938 212.48902893066406 75.50283813476562 214.59901428222656 75.90991973876953 216.736328125 C76.31700134277344 218.87362670898438 76.62864685058594 221.03826904296875 76.7822494506836 223.2025604248047 C76.93585205078125 225.36685180664062 76.93142700195312 227.53082275390625 76.70634460449219 229.6668243408203 C76.56101989746094 231.0459442138672 76.1949234008789 232.357666015625 75.77191162109375 233.65614318847656 C75.34890747070312 234.95462036132812 74.86898040771484 236.2398681640625 74.49600219726562 237.56600952148438 C73.955322265625 239.48843383789062 73.62175750732422 241.28321838378906 73.42156982421875 243.09713745117188 C73.22138977050781 244.91107177734375 73.15458679199219 246.744140625 73.14740753173828 248.74317932128906 C73.14486694335938 249.45098876953125 73.5299301147461 251.2260284423828 72.29100036621094 251.5709991455078 C71.11795806884766 251.8976287841797 69.86265563964844 251.34832763671875 68.6449966430664 251.34500122070312 C67.22785949707031 251.34112548828125 65.8104248046875 251.33877563476562 64.39299011230469 251.33982849121094 C62.97555923461914 251.3408660888672 61.55813217163086 251.34530639648438 60.1410026550293 251.35501098632812 L60.1410026550293 251.35501098632812 C59.17236328125 249.29278564453125 58.20311737060547 247.15707397460938 57.29550552368164 244.9759063720703 C56.38788986206055 242.79473876953125 55.54190444946289 240.568115234375 54.81978225708008 238.3240203857422 C54.09766387939453 236.07992553710938 53.49940490722656 233.81837463378906 53.087249755859375 231.56736755371094 C52.700096130371094 229.45289611816406 52.54446029663086 227.34771728515625 52.57061767578125 225.25511169433594 C52.596771240234375 223.16250610351562 52.804718017578125 221.08245849609375 53.14471435546875 219.0182647705078 C53.484710693359375 216.95407104492188 53.956764221191406 214.90570068359375 54.51113510131836 212.87644958496094 C55.06550598144531 210.84719848632812 55.70219421386719 208.83706665039062 56.3714714050293 206.8493194580078 C56.92612838745117 205.20199584960938 57.48965072631836 203.50540161132812 58.15119171142578 201.85516357421875 C58.81272888183594 200.20492553710938 59.57228088378906 198.60101318359375 60.51900100708008 197.13900756835938 L60.51900100708008 197.13900756835938"></path>
<path fill="none" stroke="black" stroke-width=".3" stroke-opacity="1.0"  filling="0" d="M103.63800048828125 229.78199768066406 L103.63800048828125 229.78199768066406 C104.9193115234375 229.7450714111328 106.88310241699219 229.39047241210938 108.12000274658203 229.7550048828125 C109.27227783203125 230.0946044921875 109.57594299316406 231.1002655029297 110.0585708618164 232.06045532226562 C110.73123168945312 233.39871215820312 111.28421783447266 234.7871551513672 111.78973388671875 236.19418334960938 C112.29524993896484 237.6011962890625 112.7532958984375 239.0268096923828 113.23607635498047 240.4394073486328 C113.83548736572266 242.19326782226562 114.41519927978516 243.98297119140625 114.93434143066406 245.79843139648438 C115.45348358154297 247.6138916015625 115.91206359863281 249.45510864257812 116.26920318603516 251.3119659423828 C116.62635040283203 253.1688232421875 116.88206481933594 255.0413360595703 116.99549102783203 256.91937255859375 C117.1089096069336 258.79742431640625 117.08003234863281 260.68096923828125 116.86800384521484 262.55999755859375 C116.70018005371094 264.04718017578125 116.34632110595703 265.5600280761719 115.91822814941406 267.0550537109375 C115.49014282226562 268.55010986328125 114.98782348632812 270.02734375 114.52310180664062 271.44329833984375 C113.94822692871094 273.19488525390625 113.29129028320312 274.90618896484375 112.60653686523438 276.60638427734375 C111.9217758178711 278.30657958984375 111.20919036865234 279.9956970214844 110.52299499511719 281.7030029296875 C110.03690338134766 282.9124450683594 110.11441802978516 283.8624267578125 108.63300323486328 284.2950134277344 C107.5728759765625 284.6045837402344 106.20948791503906 284.6076965332031 104.83332824707031 284.5333557128906 C103.45716857910156 284.4590148925781 102.0682373046875 284.3072204589844 100.95700073242188 284.3070068359375 C100.93387603759766 284.3070068359375 97.12462615966797 284.3039855957031 97.10400390625 284.2950134277344 C95.89644622802734 283.7701416015625 96.58631134033203 281.8835754394531 96.634033203125 281.2090148925781 C96.73686218261719 279.7556457519531 96.65911865234375 278.2759094238281 96.47879028320312 276.8047790527344 C96.2984619140625 275.3336181640625 96.01554870605469 273.87103271484375 95.70800018310547 272.4519958496094 C95.33413696289062 270.7269287109375 94.69329833984375 269.0576171875 94.08060455322266 267.380615234375 C93.46790313720703 265.70361328125 92.88333892822266 264.0189208984375 92.62200164794922 262.26300048828125 C92.37881469726562 260.6290588378906 92.44300079345703 258.9894714355469 92.62458801269531 257.35797119140625 C92.8061752319336 255.72650146484375 93.10516357421875 254.10313415527344 93.33159637451172 252.5016632080078 C93.58179473876953 250.73208618164062 93.85002136230469 248.97628784179688 94.16500854492188 247.2288055419922 C94.47999572753906 245.48133850097656 94.84174346923828 243.74220275878906 95.27899932861328 242.00599670410156 C95.70262145996094 240.32391357421875 96.02494812011719 238.01258850097656 96.6590805053711 235.87770080566406 C97.293212890625 233.7427978515625 98.23915100097656 231.7843475341797 99.91000366210938 230.80799865722656 C101.09490966796875 230.1156005859375 102.32675170898438 230.01617431640625 103.63800048828125 229.78199768066406 L103.63800048828125 229.78199768066406"></path>
<path fill="none" stroke="black" stroke-width=".3" stroke-opacity="1.0"  filling="0" d="M59.81700134277344 254.0279998779297 L59.81700134277344 254.0279998779297 C62.056907653808594 254.0552978515625 64.31644439697266 253.9962921142578 66.57373809814453 253.97683715820312 C68.8310317993164 253.95738220214844 71.08607482910156 253.97747802734375 73.31700134277344 254.16299438476562 L73.31700134277344 254.16299438476562 C73.8167495727539 255.47866821289062 73.91866302490234 257.2064208984375 73.68859100341797 258.89898681640625 C73.45851135253906 260.591552734375 72.89645385742188 262.24896240234375 72.06824493408203 263.42401123046875 C71.052490234375 264.8651428222656 69.46914672851562 265.8744812011719 67.76492309570312 266.2572326660156 C66.06070709228516 266.63995361328125 64.2356185913086 266.3961181640625 62.73637390136719 265.33087158203125 C61.02711868286133 264.11639404296875 60.22414016723633 262.1994323730469 59.885040283203125 260.1317138671875 C59.54594421386719 258.0639953613281 59.67073059082031 255.84548950195312 59.81700134277344 254.0279998779297 L59.81700134277344 254.0279998779297"></path>
<path fill="none" stroke="black" stroke-width=".3" stroke-opacity="1.0"  filling="0" d="M95.78099822998047 287.3999938964844 L95.78099822998047 287.3999938964844 C97.43145751953125 286.8381652832031 98.91234588623047 286.9816589355469 100.64800262451172 286.9859924316406 C102.12680053710938 286.98968505859375 103.60787963867188 286.964599609375 105.08821105957031 286.9623718261719 C106.56855010986328 286.96014404296875 108.04814910888672 286.9808044433594 109.52400207519531 287.0760192871094 L109.52400207519531 287.0760192871094 C110.15242004394531 289.03912353515625 110.16780090332031 291.79571533203125 109.44125366210938 294.2121276855469 C108.71470642089844 296.6285400390625 107.24624633789062 298.7047119140625 104.90699768066406 299.3070068359375 C103.58759307861328 299.6466979980469 102.04278564453125 299.3197937011719 100.72200775146484 299.1719970703125 L100.72200775146484 299.1719970703125 C100.61400604248047 298.9020080566406 100.50599670410156 298.6319885253906 100.39799499511719 298.36199951171875 L100.39799499511719 298.36199951171875 C98.1241683959961 297.4622802734375 97.00704193115234 295.76983642578125 96.43981170654297 293.7783203125 C95.8725814819336 291.7867736816406 95.85523986816406 289.4961242675781 95.78099822998047 287.3999938964844 L95.78099822998047 287.3999938964844"></path></svg>