<svg xmlns="http://www.w3.org/2000/svg" viewBox="0.0 0.0 24.0 24.0" height="200px" width="200px"><path fill="none" stroke="black" stroke-width=".3" stroke-opacity="1.0"  filling="0" d="M6.053508281707764 7.569340229034424 L6.127323627471924 7.6923651695251465 C5.901787757873535 7.849259853363037 5.680004119873047 7.96031379699707 5.5737104415893555 8.245978355407715 C5.47701358795166 8.505851745605469 6.205077648162842 8.696205139160156 6.188836097717285 9.021036148071289 C6.170516014099121 9.387434005737305 5.549106121063232 9.345255851745605 5.549106121063232 9.6607666015625 C5.549106121063232 10.011453628540039 6.213440895080566 9.941247940063477 6.213440895080566 10.36201000213623 C6.213440895080566 10.716963768005371 5.708603858947754 10.959602355957031 5.475289821624756 11.112462997436523 L5.413778305053711 10.9894380569458 C5.592480182647705 10.874558448791504 6.068010330200195 10.644895553588867 6.078113555908203 10.36201000213623 C6.090095520019531 10.026517868041992 5.411379337310791 10.056913375854492 5.401475429534912 9.6607666015625 C5.391732215881348 9.271050453186035 6.040661811828613 9.342184066772461 6.053508281707764 9.021036148071289 C6.066803455352783 8.6886625289917 5.322530269622803 8.605359077453613 5.426080703735352 8.245978355407715 C5.527825832366943 7.892862796783447 5.791709899902344 7.754781246185303 6.053508281707764 7.569340229034424 L6.053508281707764 7.569340229034424"></path>
<path fill="none" stroke="black" stroke-width=".3" stroke-opacity="1.0"  filling="0" d="M6.877776622772217 7.569340229034424 L6.951591968536377 7.6923651695251465 C6.726057052612305 7.849258899688721 6.504271984100342 7.960314750671387 6.397978782653809 8.245978355407715 C6.304340362548828 8.497632026672363 7.0293707847595215 8.695699691772461 7.01310396194458 9.021036148071289 C6.994784355163574 9.387434959411621 6.373373985290527 9.345253944396973 6.373373985290527 9.6607666015625 C6.373373985290527 10.011453628540039 7.0377092361450195 9.941247940063477 7.0377092361450195 10.36201000213623 C7.0377092361450195 10.711246490478516 6.541112422943115 10.956899642944336 6.311861038208008 11.112462997436523 L6.238045692443848 10.9894380569458 C6.416747093200684 10.874558448791504 6.892278671264648 10.64489459991455 6.902381420135498 10.36201000213623 C6.914597511291504 10.019956588745117 6.235647201538086 10.056894302368164 6.225744247436523 9.6607666015625 C6.216001510620117 9.271049499511719 6.864931583404541 9.342183113098145 6.877776622772217 9.021036148071289 C6.891269207000732 8.68370532989502 6.155513763427734 8.617809295654297 6.262651443481445 8.245978355407715 C6.368442058563232 7.878822326660156 6.608684539794922 7.759946823120117 6.877776622772217 7.569340229034424 L6.877776622772217 7.569340229034424"></path>
<path fill="none" stroke="black" stroke-width=".3" stroke-opacity="1.0"  filling="0" d="M5.290752410888672 7.630852222442627 L5.364567756652832 7.753877639770508 C5.139822959899902 7.910221576690674 4.911494255065918 8.028704643249512 4.798652648925781 8.307490348815918 C4.70570182800293 8.53713321685791 5.429471969604492 8.768683433532715 5.413778305053711 9.082549095153809 C5.3953633308410645 9.450840950012207 4.760776996612549 9.417069435119629 4.774047374725342 9.72227954864502 C4.788802146911621 10.061624526977539 5.450685977935791 10.010534286499023 5.450685977935791 10.411218643188477 C5.450685977935791 10.765503883361816 4.944707870483398 11.021862030029297 4.712534427642822 11.173975944519043 L4.651021957397461 11.050950050354004 C4.849742412567139 10.91847038269043 5.292665958404541 10.712512969970703 5.303055763244629 10.411218643188477 C5.31481409072876 10.070230484008789 4.6387200355529785 10.12568187713623 4.6387200355529785 9.72227954864502 C4.6387200355529785 9.341459274291992 5.278450965881348 9.396679878234863 5.278450965881348 9.070245742797852 C5.278450965881348 8.743931770324707 4.553748607635498 8.666658401489258 4.663325309753418 8.307490348815918 C4.772704601287842 7.94896936416626 5.024137496948242 7.819705486297607 5.290752410888672 7.630852222442627 L5.290752410888672 7.630852222442627"></path>
<path fill="none" stroke="black" stroke-width=".3" stroke-opacity="1.0"  filling="0" d="M-5.862188339233398 8.177812576293945 L-5.862188339233398 8.177812576293945 C-5.35801362991333 8.35671329498291 -4.928536891937256 8.814470291137695 -4.723125457763672 9.30843734741211 L-4.723125457763672 14.556562423706055 L-4.723125457763672 19.8046875 C-3.5180439949035645 21.098468780517578 -3.2732763290405273 23.795625686645508 -5.895938873291016 23.795625686645508 C-8.530594825744629 23.795625686645508 -8.265934944152832 21.09001922607422 -7.060312271118164 19.796249389648438 L-7.060312271118164 14.552343368530273 L-7.060312271118164 9.30843734741211 C-6.660937786102295 8.931562423706055 -6.261562824249268 8.5546875 -5.862188339233398 8.177812576293945 L-5.862188339233398 8.177812576293945"></path>
<path fill="none" stroke="black" stroke-width=".3" stroke-opacity="1.0"  filling="0" d="M-5.862188339233398 8.473125457763672 L-5.862188339233398 8.473125457763672 C-5.490095138549805 8.607941627502441 -5.171355247497559 8.94340991973877 -5.018438339233398 9.30843734741211 L-5.018438339233398 10.253437042236328 L-5.263126373291016 10.253437042236328 C-5.334720611572266 10.325032234191895 -5.334720611572266 10.48559284210205 -5.263126373291016 10.557188034057617 L-5.018438339233398 10.557188034057617 L-5.018438339233398 11.308124542236328 L-5.263126373291016 11.308124542236328 C-5.334720611572266 11.379719734191895 -5.334720611572266 11.54028034210205 -5.263126373291016 11.611875534057617 L-5.018438339233398 11.611875534057617 L-5.018438339233398 12.362812042236328 L-5.263126373291016 12.362812042236328 C-5.334720611572266 12.434407234191895 -5.334720611572266 12.59496784210205 -5.263126373291016 12.666563034057617 L-5.018438339233398 12.666563034057617 L-5.018438339233398 13.417499542236328 L-5.263126373291016 13.417499542236328 C-5.334720611572266 13.489094734191895 -5.334720134735107 13.649654388427734 -5.263126373291016 13.721250534057617 L-5.018438339233398 13.721250534057617 L-5.018438339233398 14.45531177520752 L-5.263126373291016 14.45531177520752 C-5.42340087890625 14.615589141845703 -5.476133823394775 14.669432640075684 -5.263126373291016 14.775938034057617 L-5.018438339233398 14.775938034057617 L-5.018438339233398 15.50999927520752 L-5.263126373291016 15.50999927520752 C-5.334720134735107 15.581594467163086 -5.334720611572266 15.742154121398926 -5.263126373291016 15.813749313354492 L-5.018438339233398 15.813749313354492 L-5.018438339233398 16.564687728881836 L-5.263126373291016 16.564687728881836 C-5.334720134735107 16.636281967163086 -5.334720134735107 16.796842575073242 -5.263126373291016 16.868436813354492 L-5.018438339233398 16.868436813354492 L-5.018438339233398 17.619373321533203 L-5.263126373291016 17.619373321533203 C-5.334720134735107 17.690969467163086 -5.334720611572266 17.85152816772461 -5.263126373291016 17.923124313354492 L-5.018438339233398 17.923124313354492 L-5.018438339233398 18.674060821533203 L-5.263126373291016 18.674060821533203 C-5.334720134735107 18.745656967163086 -5.334720611572266 18.90621566772461 -5.263126373291016 18.977811813354492 L-5.018438339233398 18.977811813354492 L-5.018438339233398 19.880624771118164 C-5.018438339233398 21.295164108276367 -3.019988536834717 21.398038864135742 -4.572539329528809 22.950586318969727 C-5.609025955200195 23.987070083618164 -7.990962982177734 23.35287094116211 -7.769062042236328 21.62718963623047 C-7.683727264404297 20.96355628967285 -6.7649993896484375 20.55816078186035 -6.7649993896484375 19.889062881469727 L-6.545625686645508 19.500938415527344 C-6.474060535430908 19.433347702026367 -6.476018905639648 19.275230407714844 -6.545625686645508 19.205625534057617 L-6.7649993896484375 19.205625534057617 L-6.7649993896484375 18.446250915527344 L-6.545625686645508 18.446250915527344 C-6.474060535430908 18.378660202026367 -6.476018905639648 18.220542907714844 -6.545625686645508 18.150938034057617 L-6.7649993896484375 18.150938034057617 L-6.7649993896484375 17.391563415527344 L-6.545625686645508 17.391563415527344 C-6.474060535430908 17.323972702026367 -6.476018905639648 17.165855407714844 -6.545625686645508 17.096250534057617 L-6.7649993896484375 17.096250534057617 L-6.7649993896484375 16.336875915527344 L-6.545625686645508 16.336875915527344 C-6.474060535430908 16.269285202026367 -6.476018905639648 16.111167907714844 -6.545625686645508 16.041563034057617 L-6.7649993896484375 16.041563034057617 L-6.7649993896484375 15.29906177520752 L-6.545625686645508 15.29906177520752 C-6.342952728271484 15.155999183654785 -6.3491692543029785 15.137106895446777 -6.545625686645508 14.986875534057617 L-6.7649993896484375 14.986875534057617 L-6.7649993896484375 14.24437427520752 L-6.545625686645508 14.24437427520752 C-6.342953205108643 14.101311683654785 -6.3491692543029785 14.082419395446777 -6.545625686645508 13.932188034057617 L-6.7649993896484375 13.932188034057617 L-6.7649993896484375 13.18968677520752 L-6.545625686645508 13.18968677520752 C-6.47406005859375 13.122097969055176 -6.476019859313965 12.963980674743652 -6.545625686645508 12.89437484741211 L-6.7649993896484375 12.89437484741211 L-6.7649993896484375 12.13499927520752 L-6.545625686645508 12.13499927520752 C-6.47406005859375 12.067410469055176 -6.476019859313965 11.909293174743652 -6.545625686645508 11.83968734741211 L-6.7649993896484375 11.83968734741211 L-6.7649993896484375 11.08031177520752 L-6.545625686645508 11.08031177520752 C-6.47406005859375 11.012722969055176 -6.476019859313965 10.854605674743652 -6.545625686645508 10.78499984741211 L-6.7649993896484375 10.78499984741211 L-6.7649993896484375 10.025625228881836 L-6.545625686645508 10.025625228881836 C-6.476019382476807 9.956019401550293 -6.47406005859375 9.797901153564453 -6.545625686645508 9.73031234741211 L-6.7649993896484375 9.30843734741211 C-6.464062213897705 9.029999732971191 -6.163125514984131 8.75156307220459 -5.862188339233398 8.473125457763672 L-5.862188339233398 8.473125457763672"></path>
<path fill="none" stroke="black" stroke-width=".3" stroke-opacity="1.0"  filling="0" d="M1.8939838409423828 8.479726791381836 L3.4687042236328125 8.479726791381836 L3.4687042236328125 13.991251945495605 L3.4687042236328125 19.502777099609375 L1.8939838409423828 19.502777099609375 L1.8939838409423828 13.991251945495605 L1.8939838409423828 8.479726791381836"></path>
<path fill="none" stroke="black" stroke-width=".3" stroke-opacity="1.0"  filling="0" d="M-2.6541748046875 10.366988182067871 L-2.6541748046875 10.366988182067871 C-2.8460397720336914 11.036053657531738 -3.608766555786133 11.365408897399902 -3.608766555786133 10.366988182067871 C-3.608766555786133 9.368568420410156 -2.8460395336151123 9.697925567626953 -2.6541748046875 10.366990089416504 L-2.6541748046875 10.366990089416504"></path>
<path fill="none" stroke="black" stroke-width=".3" stroke-opacity="1.0"  filling="0" d="M20.774822235107422 11.629168510437012 L22.349544525146484 11.629168510437012 L22.349544525146484 15.565973281860352 L22.349544525146484 19.502777099609375 L20.774822235107422 19.502777099609375 L20.774822235107422 15.565973281860352 L20.774822235107422 11.629168510437012"></path>
<path fill="none" stroke="black" stroke-width=".3" stroke-opacity="1.0"  filling="0" d="M4.274566173553467 13.146614074707031 L4.481248378753662 13.146614074707031 C5.080837726593018 13.648397445678711 5.889369010925293 14.3016939163208 6.636647701263428 14.071762084960938 L6.636647701263428 14.071762084960938 C6.387316703796387 14.288286209106445 6.137985706329346 14.504810333251953 5.888654708862305 14.721334457397461 L4.274566173553467 14.721334457397461 C4.018673419952393 14.465442657470703 3.7627809047698975 14.209549903869629 3.5068883895874023 13.953658103942871 L3.5068883895874023 13.914290428161621 C3.7627809047698975 13.658398628234863 4.018673419952393 13.402505874633789 4.274566173553467 13.146614074707031 L4.274566173553467 13.146614074707031"></path>
<path fill="none" stroke="black" stroke-width=".3" stroke-opacity="1.0"  filling="0" d="M7.047187328338623 14.15999984741211 L7.047187328338623 14.15999984741211 C7.441131114959717 14.324337005615234 7.927953720092773 14.35042667388916 8.229019165039062 14.6530122756958 C9.260848999023438 15.69005298614502 8.514859199523926 17.509687423706055 7.047187328338623 17.509687423706055 C5.579516410827637 17.509687423706055 4.833525657653809 15.690053939819336 5.865355968475342 14.6530122756958 C6.166421413421631 14.35042667388916 6.653243541717529 14.324337005615234 7.047187328338623 14.15999984741211 L7.047187328338623 14.15999984741211"></path>
<path fill="none" stroke="black" stroke-width=".3" stroke-opacity="1.0"  filling="0" d="M6.667500019073486 14.90250015258789 L6.667500019073486 14.90250015258789 C6.847360610961914 15.711871147155762 6.2601637840271 15.615336418151855 6.667500019073486 14.90250015258789 L6.667500019073486 14.90250015258789"></path>
<path fill="none" stroke="black" stroke-width=".3" stroke-opacity="1.0"  filling="0" d="M7.131562232971191 15.434062957763672 L7.131562232971191 15.434062957763672 C7.355200290679932 16.522432327270508 6.584573268890381 16.384098052978516 7.131562232971191 15.434062957763672 L7.131562232971191 15.434062957763672"></path>
<path fill="none" stroke="black" stroke-width=".3" stroke-opacity="1.0"  filling="0" d="M9.173437118530273 15.450937271118164 L9.173437118530273 15.450937271118164 C9.204374313354492 15.450937271118164 9.235312461853027 15.450937271118164 9.266249656677246 15.450937271118164 L9.266249656677246 15.450937271118164 C11.492982864379883 15.507621765136719 13.73068904876709 15.545287132263184 15.964537620544434 15.639596939086914 C18.198387145996094 15.733906745910645 20.42837905883789 15.88486099243164 22.63968276977539 16.16812515258789 L22.63968276977539 16.16812515258789 C22.98280906677246 16.536561965942383 23.225727081298828 17.034820556640625 23.66905975341797 17.2734375 C24.286087036132812 17.60554313659668 25.47902488708496 17.481130599975586 25.567501068115234 18.17624855041504 L25.567501068115234 21.4921875 C25.567501068115234 21.703125 25.567501068115234 21.9140625 25.567501068115234 22.125 L25.567501068115234 22.125 C25.317188262939453 22.37531280517578 25.066875457763672 22.625625610351562 24.81656265258789 22.875938415527344 L19.63312530517578 22.875938415527344 L14.449687957763672 22.875938415527344 L9.266249656677246 22.875938415527344 C9.018750190734863 22.625625610351562 8.771249771118164 22.37531280517578 8.523750305175781 22.125 L8.523750305175781 17.028749465942383 C8.70915412902832 16.5482120513916 8.940897941589355 16.049964904785156 8.920312881469727 15.53531265258789 L8.920312881469727 15.53531265258789 C9.004687309265137 15.507187843322754 9.089062690734863 15.4790620803833 9.173437118530273 15.450937271118164 L9.173437118530273 15.450937271118164"></path>
<path fill="none" stroke="black" stroke-width=".3" stroke-opacity="1.0"  filling="0" d="M6.245625019073486 16.201875686645508 L6.245625019073486 16.201875686645508 C6.649381160736084 17.12902069091797 5.941399097442627 17.158016204833984 6.245625019073486 16.201875686645508 L6.245625019073486 16.201875686645508"></path>
<path fill="none" stroke="black" stroke-width=".3" stroke-opacity="1.0"  filling="0" d="M3.5456247329711914 18.17624855041504 L8.405625343322754 18.17624855041504 L8.405625343322754 20.142187118530273 L3.5456247329711914 20.142187118530273 L3.5456247329711914 18.17624855041504"></path>
<path fill="none" stroke="black" stroke-width=".3" stroke-opacity="1.0"  filling="0" d="M25.754234313964844 18.17624855041504 L26.276248931884766 18.17624855041504 L26.276248931884766 20.142187118530273 L25.778100967407227 20.139204025268555 L25.754234313964844 18.17624855041504"></path>
<path fill="none" stroke="black" stroke-width=".3" stroke-opacity="1.0"  filling="0" d="M25.769149780273438 20.265766143798828 L26.276248931884766 20.268749237060547 L26.276248931884766 21.4921875 L25.793018341064453 21.47130584716797 L25.769149780273438 20.265766143798828"></path>
<path fill="none" stroke="black" stroke-width=".3" stroke-opacity="1.0"  filling="0" d="M3.5456247329711914 20.268749237060547 L8.405625343322754 20.268749237060547 L8.405625343322754 21.4921875 L3.5456247329711914 21.4921875 L3.5456247329711914 20.268749237060547"></path>
<path fill="none" stroke="black" stroke-width=".3" stroke-opacity="1.0"  filling="0" d="M12.552419662475586 20.28036117553711 L12.552419662475586 20.28036117553711 C13.000383377075195 20.52638816833496 13.562445640563965 20.631484985351562 13.896310806274414 21.01844024658203 C15.102325439453125 22.416231155395508 14.112354278564453 24.685680389404297 12.224100112915039 24.685680389404297 C10.335841178894043 24.685680389404297 9.346940994262695 22.41545295715332 10.552462577819824 21.018033981323242 C10.886251449584961 20.63111114501953 11.448368072509766 20.52625274658203 11.896320343017578 20.28036117553711 L11.896320343017578 14.398493766784668 L11.896320343017578 8.516626358032227 L11.896320343017578 2.634758234024048 L11.896320343017578 -3.2471094131469727 C12.050901412963867 -3.4018166065216064 12.397838592529297 -3.4018166065216064 12.552419662475586 -3.2471094131469727 L12.552419662475586 2.634758234024048 L12.552419662475586 8.516626358032227 L12.552419662475586 14.398493766784668 L12.552419662475586 20.28036117553711"></path></svg>