<svg xmlns="http://www.w3.org/2000/svg" viewBox="0.0 0.0 24.0 24.0" height="200px" width="200px"><path fill="none" stroke="black" stroke-width=".3" stroke-opacity="1.0"  filling="0" d="M22.425888061523438 4.273464202880859 L22.425888061523438 4.273464202880859 C22.46072769165039 5.925790309906006 22.476667404174805 7.662875175476074 22.288726806640625 9.306047439575195 C22.089649200439453 11.046578407287598 20.80986213684082 12.589174270629883 20.183591842651367 14.109455108642578 C19.991262435913086 14.576338768005371 20.128971099853516 15.227410316467285 19.954849243164062 15.7108793258667 C19.561342239379883 16.80349349975586 18.435819625854492 17.85161018371582 17.941728591918945 19.004663467407227 L17.941728591918945 19.004663467407227 C16.358346939086914 20.235904693603516 14.794248580932617 20.695419311523438 12.726192474365234 20.377342224121094 L12.726192474365234 20.377342224121094 C12.482184410095215 20.484046936035156 12.238175392150879 20.59075164794922 11.99416732788086 20.69745635986328 L11.99416732788086 20.69745635986328 C11.81114387512207 20.59075164794922 11.628119468688965 20.484046936035156 11.445096015930176 20.377342224121094 L11.445096015930176 20.377342224121094 C9.363893508911133 20.736127853393555 7.681588649749756 20.263933181762695 6.046392440795898 19.096248626708984 L6.046392440795898 19.096248626708984 C5.461215019226074 17.73031997680664 4.977189064025879 16.98227882385254 3.9874801635742188 15.802248001098633 L3.9874801635742188 15.802248001098633 C3.654136896133423 13.634925842285156 2.438020706176758 11.886733055114746 1.7916240692138672 9.762672424316406 C1.2993026971817017 8.144903182983398 1.4292387962341309 6.011237621307373 1.471512794494629 4.363968372344971 L1.471512794494629 4.363968372344971 C2.157205820083618 6.2076897621154785 2.6018929481506348 7.4842424392700195 3.80452823638916 9.030431747436523 L3.80452823638916 9.030431747436523 C4.0789923667907715 9.060888290405273 4.353456020355225 9.091343879699707 4.627920150756836 9.121800422668457 L4.627920150756836 9.121800422668457 C4.643184185028076 9.503040313720703 4.658448219299316 9.88428020477295 4.673712253570557 10.265520095825195 L4.673712253570557 10.265520095825195 C4.932984352111816 10.38748836517334 5.192256450653076 10.509456634521484 5.451528549194336 10.631424903869629 L5.451528549194336 10.631424903869629 C5.6513590812683105 11.271434783935547 5.84957218170166 11.911951065063477 6.046176433563232 12.552959442138672 L6.046176433563232 12.552959442138672 C6.4884724617004395 12.369935989379883 6.930768013000488 12.186911582946777 7.373064041137695 12.003888130187988 L7.373064041137695 12.003888130187988 C7.698160171508789 12.687840461730957 8.01840877532959 13.374116897583008 8.333831787109375 14.062583923339844 L8.333831787109375 14.062583923339844 C8.669351577758789 13.9406156539917 9.00487232208252 13.818648338317871 9.340392112731934 13.696680068969727 L9.340392112731934 13.696680068969727 C9.538680076599121 13.849176406860352 9.736968994140625 14.00167179107666 9.935256958007812 14.154168128967285 L9.935256958007812 14.154168128967285 C11.85749340057373 12.386800765991211 12.167410850524902 12.316864013671875 14.053080558776855 14.108160018920898 L14.053080558776855 14.108160018920898 C14.251296043395996 13.955663681030273 14.449511528015137 13.803168296813965 14.647727012634277 13.65067195892334 L14.647727012634277 13.65067195892334 C14.983246803283691 13.757375717163086 15.318767547607422 13.864080429077148 15.654287338256836 13.970784187316895 L15.654287338256836 13.970784187316895 C15.979516983032227 13.309389114379883 16.284332275390625 12.637609481811523 16.569263458251953 11.957880020141602 L16.569263458251953 11.957880020141602 C17.011558532714844 12.125567436218262 17.453855514526367 12.293255805969238 17.896150588989258 12.460943222045898 L17.896150588989258 12.460943222045898 C18.109703063964844 11.83576774597168 18.32325553894043 11.210591316223145 18.536808013916016 10.585415840148926 L18.536808013916016 10.585415840148926 C18.78081703186035 10.478639602661133 19.024824142456055 10.371864318847656 19.26883316040039 10.265088081359863 L19.26883316040039 10.265088081359863 C19.284095764160156 9.868583679199219 19.299360275268555 9.47208023071289 19.31462287902832 9.075575828552246 L19.31462287902832 9.075575828552246 C21.3610782623291 8.848488807678223 21.889183044433594 5.888159275054932 22.425888061523438 4.273464202880859 L22.425888061523438 4.273464202880859"></path>
<path fill="none" stroke="black" stroke-width=".3" stroke-opacity="1.0"  filling="0" d="M12.085968017578125 6.744071960449219 L12.085968017578125 6.744071960449219 C14.083078384399414 5.788968563079834 15.517416000366211 6.364307403564453 16.4444637298584 7.559866905212402 C17.371509552001953 8.755426406860352 17.791263580322266 10.571207046508789 17.75920867919922 12.09698486328125 L17.75920867919922 12.09698486328125 C16.55991554260254 11.497023582458496 17.00899314880371 10.164384841918945 15.97504711151123 9.672167778015137 C14.653984069824219 9.043266296386719 13.284748077392578 10.089845657348633 12.040608406066895 9.26025676727295 L12.040608406066895 9.26025676727295 C10.800032615661621 9.752348899841309 9.876605987548828 9.08091926574707 8.655240058898926 9.397632598876953 C7.114081382751465 9.797271728515625 7.669314384460449 11.353262901306152 6.367584228515625 12.09698486328125 L6.367584228515625 12.09698486328125 C6.279412269592285 10.570243835449219 6.757532596588135 8.713363647460938 7.733433723449707 7.497494697570801 C8.709335327148438 6.281625747680664 10.18301773071289 5.706768035888672 12.085968017578125 6.744071960449219 L12.085968017578125 6.744071960449219"></path></svg>