<svg xmlns="http://www.w3.org/2000/svg" viewBox="0.0 0.0 24.0 24.0" height="200px" width="200px"><path fill="none" stroke="black" stroke-width=".3" stroke-opacity="1.0"  filling="0" d="M12.076848983764648 4.391223907470703 L12.076848983764648 4.391223907470703 C12.367661476135254 4.635712146759033 12.658473014831543 4.880200386047363 12.949285507202148 5.124688625335693 L12.586413383483887 5.2482194900512695 L12.586413383483887 5.889035701751709 C14.669595718383789 6.218788146972656 16.49243927001953 6.752779006958008 17.840429306030273 7.785646915435791 C19.188419342041016 8.818513870239258 20.061555862426758 10.350257873535156 20.24532699584961 12.675516128540039 L20.15268325805664 12.791324615478516 C18.288532257080078 13.237359046936035 16.49806022644043 13.533952713012695 14.731907844543457 13.681868553161621 C12.965755462646484 13.829784393310547 11.223919868469238 13.829021453857422 9.457039833068848 13.680343627929688 C7.690158843994141 13.531665802001953 5.898233413696289 13.235071182250977 4.031900405883789 12.791324615478516 L3.939250946044922 12.660074234008789 C4.291852951049805 10.405214309692383 5.142276763916016 8.85271167755127 6.436702251434326 7.791865348815918 C7.731128215789795 6.731019496917725 9.469555854797363 6.161829948425293 11.598166465759277 5.873595714569092 L11.598166465759277 5.255941867828369 L11.219854354858398 5.140130043029785 C11.505518913269043 4.8904948234558105 11.791184425354004 4.640859127044678 12.076848983764648 4.391223907470703 L12.076848983764648 4.391223907470703"></path>
<path fill="none" stroke="black" stroke-width=".3" stroke-opacity="1.0"  filling="0" d="M12.076848983764648 4.6382856369018555 L12.076848983764648 4.6382856369018555 C12.264719009399414 4.759243011474609 12.45258903503418 4.880200386047363 12.640459060668945 5.001157760620117 L12.33935260772705 5.001157760620117 L12.45516300201416 6.128378391265869 C14.46511459350586 6.427556037902832 16.248960494995117 6.914931297302246 17.580318450927734 7.888705730438232 C18.91167640686035 8.862480163574219 19.790546417236328 10.322652816772461 19.990549087524414 12.567426681518555 L19.990549087524414 12.567426681518555 C18.155685424804688 12.999022483825684 16.399574279785156 13.287530899047852 14.67031478881836 13.432174682617188 C12.941055297851562 13.576818466186523 11.238646507263184 13.577597618103027 9.511186599731445 13.433732986450195 C7.783727645874023 13.289867401123047 6.031216621398926 13.001358032226562 4.201753616333008 12.567426681518555 L4.201753616333008 12.567426681518555 C4.560616970062256 10.387304306030273 5.409791469573975 8.901623725891113 6.684656143188477 7.897002220153809 C7.95952033996582 6.89238166809082 9.660074234008789 6.3688201904296875 11.721697807312012 6.112936973571777 L11.84522819519043 5.008879661560059 L11.528680801391602 5.016598701477051 C11.711403846740723 4.890494346618652 11.894125938415527 4.764389991760254 12.076848983764648 4.6382856369018555 L12.076848983764648 4.6382856369018555"></path>
<path fill="none" stroke="black" stroke-width=".3" stroke-opacity="1.0"  filling="0" d="M3.5629005432128906 13.027655601501465 L3.5629005432128906 13.027655601501465 C5.452814102172852 13.591116905212402 7.3520684242248535 13.993091583251953 9.253836631774902 14.209184646606445 C11.15560531616211 14.425277709960938 13.059886932373047 14.455489158630371 14.959856033325195 14.275423049926758 C16.859825134277344 14.095357894897461 18.755481719970703 13.705015182495117 20.639999389648438 13.079999923706055 L20.639999389648438 13.079999923706055 C21.59309196472168 14.757335662841797 22.691621780395508 14.713207244873047 22.112163543701172 16.907625198364258 L22.112163543701172 16.907625198364258 C20.101268768310547 17.688779830932617 17.816139221191406 18.20298194885254 15.441308975219727 18.450740814208984 C13.066478729248047 18.69849967956543 10.601945877075195 18.6798152923584 8.232244491577148 18.39519691467285 C5.862543106079102 18.110578536987305 3.587671995162964 17.560028076171875 1.5921630859375 16.744050979614258 L1.5921630859375 16.744050979614258 C1.4905412197113037 14.66665267944336 2.623426914215088 14.586054801940918 3.5629005432128906 13.027655601501465 L3.5629005432128906 13.027655601501465"></path></svg>