<svg xmlns="http://www.w3.org/2000/svg" viewBox="0.0 0.0 24.0 24.0" height="200px" width="200px"><path fill="none" stroke="black" stroke-width=".3" stroke-opacity="1.0"  filling="0" d="M22.537559509277344 6.903048038482666 L22.537559509277344 6.903048038482666 C22.87972640991211 9.37831974029541 22.832595825195312 11.62188720703125 21.73023223876953 13.929529190063477 C20.70797348022461 16.06948471069336 19.184276580810547 17.650388717651367 17.407602310180664 18.690277099609375 C15.630928993225098 19.730167388916016 13.601276397705078 20.229042053222656 11.567103385925293 20.204938888549805 C9.532930374145508 20.180835723876953 7.494236469268799 19.63375473022461 5.699479103088379 18.58173370361328 C3.904721260070801 17.52971076965332 2.35390043258667 15.972747802734375 1.2954730987548828 13.928879737854004 L1.2000007629394531 13.740096092224121 L6.262014389038086 11.217000007629395 L11.324028015136719 8.693904876708984 L16.38603973388672 6.170808792114258 L21.448055267333984 3.6477127075195312 L21.542016983032227 3.83498477935791 C21.949384689331055 4.830004692077637 22.284927368164062 5.857969284057617 22.537559509277344 6.903048038482666 L22.537559509277344 6.903048038482666"></path>
<path fill="none" stroke="black" stroke-width=".3" stroke-opacity="1.0"  filling="0" d="M12.62618350982666 8.879231452941895 L12.598751068115234 8.877936363220215 C12.596663475036621 8.86353588104248 12.594575881958008 8.849136352539062 12.592488288879395 8.834735870361328 L12.592488288879395 8.834735870361328 C12.885168075561523 8.687423706054688 13.177847862243652 8.540112495422363 13.470527648925781 8.392800331115723 L19.085662841796875 5.56384801864624 C21.428739547729492 4.858454704284668 21.905485153198242 9.271641731262207 19.583110809326172 9.15700912475586 L19.31786346435547 9.146207809448242 C17.087289810180664 9.057518005371094 14.856766700744629 8.967694282531738 12.62618350982666 8.879231452941895 L12.62618350982666 8.879231452941895"></path>
<path fill="none" stroke="black" stroke-width=".3" stroke-opacity="1.0"  filling="0" d="M18.816097259521484 9.632856369018555 L18.816097259521484 9.632856369018555 C19.578929901123047 9.663399696350098 20.387462615966797 9.529227256774902 20.872631072998047 10.235712051391602 C21.18975830078125 10.697502136230469 20.7012939453125 11.349370956420898 20.51593589782715 11.878013610839844 C20.12485122680664 12.993392944335938 19.9993896484375 13.724700927734375 18.85821533203125 13.430999755859375 L12.651023864746094 9.512544631958008 C12.614568710327148 9.4931640625 12.578006744384766 9.473979949951172 12.541296005249023 9.455087661743164 L12.541296005249023 9.455087661743164 C12.550079345703125 9.43139934539795 12.558863639831543 9.40771198272705 12.567646980285645 9.384023666381836 L12.567646980285645 9.384023666381836 C12.592775344848633 9.384743690490723 12.617903709411621 9.38546371459961 12.64303207397461 9.386183738708496 L15.265054702758789 9.490728378295898 C16.448740005493164 9.537994384765625 17.632421493530273 9.585370063781738 18.816097259521484 9.632856369018555 L18.816097259521484 9.632856369018555"></path>
<path fill="none" stroke="black" stroke-width=".3" stroke-opacity="1.0"  filling="0" d="M10.679593086242676 9.859224319458008 L10.679593086242676 9.859224319458008 C10.575264930725098 10.012656211853027 10.470935821533203 10.166088104248047 10.366607666015625 10.319519996643066 L7.770288467407227 14.133864402770996 C7.443264484405518 14.61453628540039 7.11624002456665 15.095208168029785 6.789216041564941 15.57588005065918 L6.759191989898682 15.619943618774414 C5.716507434844971 16.900415420532227 5.4661712646484375 16.718280792236328 4.268955707550049 15.383316040039062 C3.888721466064453 14.959332466125488 2.921527862548828 14.41928768157959 3.28872013092041 13.983960151672363 C3.5422003269195557 13.68344497680664 3.822240114212036 13.406375885009766 4.089000225067139 13.117584228515625 L4.536120414733887 12.892295837402344 C4.8938164710998535 12.712152481079102 5.25151252746582 12.532008171081543 5.609208583831787 12.3518648147583 L10.65345573425293 9.811056137084961 C10.664544105529785 9.82365608215332 10.675631523132324 9.83625602722168 10.68671989440918 9.848855972290039 L10.679593086242676 9.859224319458008"></path>
<path fill="none" stroke="black" stroke-width=".3" stroke-opacity="1.0"  filling="0" d="M12.204768180847168 9.912144660949707 L12.204768180847168 9.912144660949707 C12.220824241638184 9.8966646194458 12.2368803024292 9.881183624267578 12.252936363220215 9.865703582763672 L12.59162425994873 10.079328536987305 C12.968184471130371 10.317071914672852 13.344743728637695 10.554816246032715 13.721303939819336 10.792559623718262 L14.180520057678223 11.08243179321289 C14.800328254699707 11.473886489868164 15.42017650604248 11.865279197692871 16.040063858032227 12.256608009338379 L17.858352661132812 13.404647827148438 C18.329120635986328 13.739511489868164 18.64748764038086 14.29045581817627 18.83359146118164 14.83737564086914 L18.829055786132812 14.843855857849121 C17.964723587036133 16.158241271972656 16.766162872314453 17.34208869934082 15.452112197875977 16.35736656188965 L12.204768180847168 9.912144660949707"></path>
<path fill="none" stroke="black" stroke-width=".3" stroke-opacity="1.0"  filling="0" d="M11.11137580871582 10.120800018310547 L11.11137580871582 10.120800018310547 C11.126567840576172 10.124759674072266 11.141759872436523 10.1287202835083 11.156951904296875 10.13267993927002 L11.17855167388916 10.138080596923828 C10.827299118041992 12.316012382507324 10.837994575500488 14.624443054199219 10.674192428588867 16.825439453125 L10.634016036987305 17.36457633972168 C10.159405708312988 18.63117218017578 9.721692085266113 18.421520233154297 8.308344841003418 17.973289489746094 C7.733792304992676 17.791074752807617 6.698821544647217 17.737024307250977 6.706488132476807 17.134319305419922 C6.717311859130859 16.283424377441406 7.044161319732666 16.10150146484375 7.550832271575928 15.357071876525879 L11.056511878967285 10.206119537353516 C11.07487678527832 10.177729606628418 11.093772888183594 10.14966869354248 11.11137580871582 10.120800018310547 L11.11137580871582 10.120800018310547"></path>
<path fill="none" stroke="black" stroke-width=".3" stroke-opacity="1.0"  filling="0" d="M11.739503860473633 10.129655838012695 L14.907360076904297 16.416118621826172 C14.949480056762695 16.761863708496094 15.069631576538086 17.10690689086914 15.033720016479492 17.453351974487305 C14.966984748840332 18.097148895263672 13.878345489501953 18.075218200683594 13.245104789733887 18.209135055541992 C11.67434310913086 18.541318893432617 11.01724910736084 18.566024780273438 11.180063247680664 16.901687622070312 L11.21613597869873 16.41828155517578 C11.228569030761719 16.251163482666016 11.495305061340332 12.667613983154297 11.507736206054688 12.500688552856445 L11.6481351852417 10.61241626739502 C11.659727096557617 10.45776081085205 11.671319961547852 10.303104400634766 11.68291187286377 10.148448944091797 L11.68291187286377 10.148448944091797 C11.701775550842285 10.142184257507324 11.720640182495117 10.135920524597168 11.739503860473633 10.129655838012695 L11.739503860473633 10.129655838012695"></path>
<path fill="none" stroke="black" stroke-width=".3" stroke-opacity="1.0"  filling="0" d="M16.17247200012207 18.364656448364258 L16.17247200012207 18.364656448364258 C14.399162292480469 19.091690063476562 12.525444030761719 19.447490692138672 10.709294319152832 19.396602630615234 C8.893144607543945 19.345714569091797 7.134561061859131 18.88813591003418 5.5915207862854 17.988414764404297 C4.048480033874512 17.088695526123047 2.7209815979003906 15.746829986572266 1.7670001983642578 13.927367210388184 L7.500504493713379 11.061480522155762 L13.234007835388184 8.195592880249023 L18.967512130737305 5.329704284667969 C19.094160079956055 5.274624347686768 19.220806121826172 5.219544410705566 19.347454071044922 5.164464473724365 L21.258623123168945 4.212120056152344 C21.97459602355957 6.152647018432617 22.229860305786133 8.014650344848633 22.05809211730957 9.753978729248047 C21.886322021484375 11.493307113647461 21.287517547607422 13.10996150970459 20.29535675048828 14.559791564941406 C19.30319595336914 16.009620666503906 17.917675018310547 17.292625427246094 16.17247200012207 18.364656448364258 L16.17247200012207 18.364656448364258"></path></svg>