<svg xmlns="http://www.w3.org/2000/svg" viewBox="0.0 0.0 24.0 24.0" height="200px" width="200px"><path fill="none" stroke="black" stroke-width=".3" stroke-opacity="1.0"  filling="0" d="M346.6685485839844 11.566843032836914 L346.6685485839844 11.566843032836914 C345.6923828125 13.17898941040039 344.554931640625 14.824843406677246 344.16082763671875 16.70855712890625 C343.802490234375 18.421249389648438 344.2876892089844 20.019792556762695 344.78546142578125 21.645658493041992 C345.2664489746094 23.216697692871094 345.831298828125 24.76095199584961 346.4676208496094 26.27547264099121 C347.10394287109375 27.789993286132812 347.81170654296875 29.2747802734375 348.5785217285156 30.726879119873047 C349.64141845703125 32.739627838134766 350.8133239746094 34.69993209838867 352.0821838378906 36.60212707519531 C353.3510437011719 38.50432205200195 354.716796875 40.3484001159668 356.16741943359375 42.12869644165039 C357.6180114746094 43.90898895263672 359.1534423828125 45.6254997253418 360.7615661621094 47.27254867553711 C362.3697204589844 48.91959762573242 364.0505676269531 50.497188568115234 365.79205322265625 51.9996452331543 C367.53350830078125 53.502105712890625 369.33563232421875 54.92943572998047 371.18621826171875 56.27595520019531 C373.0368347167969 57.62247848510742 374.93597412109375 58.88819885253906 376.8714904785156 60.06743621826172 C378.36871337890625 60.97963333129883 379.97369384765625 61.93751525878906 381.6430969238281 62.84282684326172 C383.3125 63.748138427734375 385.0462951660156 64.60087585449219 386.8011474609375 65.30279541015625 C388.5560302734375 66.00471496582031 390.3319396972656 66.55581665039062 392.0855712890625 66.85783386230469 C394.0641784667969 67.19860076904297 395.996826171875 67.14701080322266 397.9625549316406 67.70957946777344 C399.08087158203125 68.02963256835938 400.526611328125 68.6063232421875 401.4179382324219 69.4539566040039 C402.30926513671875 70.30158996582031 402.646240234375 71.420166015625 401.54705810546875 72.82398986816406 C400.5148620605469 74.14228820800781 398.9483642578125 74.77511596679688 397.25439453125 75.16419219970703 C395.5604248046875 75.55326843261719 393.739013671875 75.69859313964844 392.197021484375 76.04188537597656 C390.2979736328125 76.46466064453125 388.4034423828125 76.9181137084961 386.52117919921875 77.41696166992188 C384.6388854980469 77.91581726074219 382.7688293457031 78.46006774902344 380.918701171875 79.06444549560547 C379.068603515625 79.66883087158203 377.2384033203125 80.33334350585938 375.4358825683594 81.07270812988281 C374.04248046875 81.64424896240234 372.6544494628906 82.24134063720703 371.2976379394531 82.89970397949219 C369.9407958984375 83.55806732177734 368.61517333984375 84.27770233154297 367.3466491699219 85.09432983398438 C365.5569763183594 86.24644470214844 363.79461669921875 87.51374053955078 362.019775390625 88.78302764892578 C360.24493408203125 90.05231475830078 358.4576110839844 91.32360076904297 356.61798095703125 92.48368072509766 C354.7783203125 93.64375305175781 352.8863525390625 94.692626953125 350.9022521972656 95.51710510253906 C348.91815185546875 96.34158325195312 346.8418884277344 96.94165802001953 344.6336669921875 97.20413970947266 C343.0518798828125 97.39216613769531 341.4833984375 97.3497314453125 339.91961669921875 97.21613311767578 C338.3558349609375 97.08253479003906 336.7967224121094 96.85777282714844 335.2336120605469 96.68114471435547 C333.33770751953125 96.46691131591797 331.4517517089844 96.23353576660156 329.56939697265625 95.97343444824219 C327.68707275390625 95.71333312988281 325.808349609375 95.426513671875 323.9268798828125 95.10538482666016 C322.4284362792969 94.84963989257812 320.92877197265625 94.5059814453125 319.4214172363281 94.26549530029297 C317.9140625 94.02501678466797 316.39898681640625 93.88771057128906 314.86968994140625 94.0446548461914 C313.1711730957031 94.2189712524414 311.50958251953125 94.47417449951172 309.86553955078125 94.78194427490234 C308.22149658203125 95.08971405029297 306.594970703125 95.45004272460938 304.9665832519531 95.83460998535156 C303.33819580078125 96.21917724609375 301.70794677734375 96.62797546386719 300.0563659667969 97.03267669677734 C298.52288818359375 97.408447265625 296.8935241699219 97.86839294433594 295.2576599121094 98.11063385009766 C293.6217956542969 98.3528823852539 291.97943115234375 98.37742614746094 290.4198913574219 97.88240051269531 C288.03546142578125 97.12553405761719 286.4198913574219 95.8089370727539 285.15985107421875 94.15995788574219 C283.8997802734375 92.51097869873047 282.9952392578125 90.52961730957031 282.0328369140625 88.44322204589844 C281.215576171875 86.67151641845703 280.398681640625 84.89964294433594 279.5825500488281 83.1274185180664 C278.7663879394531 81.3552017211914 277.95098876953125 79.5826416015625 277.1366882324219 77.8095703125 C276.3724670410156 76.14550018310547 275.7315368652344 74.00122833251953 274.6993713378906 72.49275207519531 C273.41253662109375 70.61209106445312 271.6020812988281 68.95680236816406 269.5408935546875 67.77719116210938 C267.479736328125 66.59757995605469 265.1678161621094 65.89364624023438 262.8780517578125 65.91569519042969 C261.006103515625 65.93372344970703 258.5941162109375 66.13898468017578 256.84747314453125 66.82913208007812 C256.6918029785156 66.89064025878906 253.95594787597656 68.72257232666016 253.81886291503906 68.81459045410156 C252.56690979003906 69.65495300292969 251.3192138671875 70.49729919433594 250.06192016601562 71.32481384277344 C248.8046112060547 72.1523208618164 247.53770446777344 72.96499633789062 246.24732971191406 73.74601745605469 L246.24732971191406 73.74601745605469 C244.83334350585938 71.91329193115234 243.41087341308594 70.08717346191406 241.9851837158203 68.26358032226562 C240.5594940185547 66.43998718261719 239.13058471679688 64.6189193725586 237.7036895751953 62.79629135131836 C236.27679443359375 60.973663330078125 234.8519287109375 59.14946746826172 233.434326171875 57.31962585449219 C232.01673889160156 55.48978042602539 230.60641479492188 53.65428924560547 229.20863342285156 51.80905532836914 L229.20863342285156 51.80905532836914 C231.33767700195312 50.514427185058594 233.52716064453125 49.321434020996094 235.71360778808594 48.12419128417969 C237.9000701904297 46.92694854736328 240.08351135253906 45.72545623779297 242.2005157470703 44.413818359375 C244.149658203125 43.2061882019043 246.0943603515625 42.01796340942383 248.05471801757812 40.87734603881836 C250.01507568359375 39.73672866821289 251.99107360839844 38.64372253417969 254.00277709960938 37.626529693603516 C256.0144958496094 36.609336853027344 258.0619201660156 35.66796112060547 260.1651306152344 34.830604553222656 C262.2683410644531 33.993247985839844 264.42730712890625 33.259918212890625 266.66217041015625 32.658809661865234 C268.8018798828125 32.083290100097656 271.0721130371094 31.532791137695312 273.3645935058594 31.141572952270508 C275.65704345703125 30.750354766845703 277.97174072265625 30.518421173095703 280.2003479003906 30.580036163330078 C282.016357421875 30.6302433013916 283.806640625 30.70995330810547 285.5943298339844 30.67387580871582 C287.38201904296875 30.637798309326172 289.1671142578125 30.48593521118164 290.97271728515625 30.072994232177734 C293.059326171875 29.59578514099121 295.13873291015625 28.98726463317871 297.1905212402344 28.271150588989258 C299.2423095703125 27.555036544799805 301.26641845703125 26.73133087158203 303.2424011230469 25.823753356933594 C305.2183837890625 24.916175842285156 307.146240234375 23.924728393554688 309.0054931640625 22.87312889099121 C311.1377258300781 21.667116165161133 313.1395568847656 20.328088760375977 315.0583190917969 18.90016746520996 C316.9770812988281 17.472248077392578 318.812744140625 15.95543384552002 320.6126708984375 14.39384651184082 C322.41259765625 12.832260131835938 324.17681884765625 11.225899696350098 325.9526062011719 9.61888599395752 C327.7283935546875 8.011872291564941 329.5157775878906 6.404206275939941 331.3620910644531 4.840007305145264 C332.6169128417969 3.776914358139038 334.0434265136719 2.6721689701080322 335.58203125 1.6940531730651855 C337.1206359863281 0.7159374356269836 338.7713623046875 -0.13554860651493073 340.474609375 -0.6921229958534241 C342.1778564453125 -1.2486974000930786 343.93365478515625 -1.5103602409362793 345.6824645996094 -1.3088293075561523 C347.4685974121094 -1.1029934883117676 348.1797790527344 0.14516043663024902 348.49365234375 1.8016753196716309 C348.8102111816406 3.4723222255706787 348.7227783203125 5.173147678375244 348.3717956542969 6.826544284820557 C348.0207824707031 8.479941368103027 347.40625 10.085909843444824 346.6685485839844 11.566843032836914 L346.6685485839844 11.566843032836914"></path>
<path fill="none" stroke="black" stroke-width=".3" stroke-opacity="1.0"  filling="0" d="M304.64385986328125 41.40980529785156 L304.64385986328125 41.40980529785156 C306.3992004394531 40.1028938293457 308.2526550292969 39.33745193481445 310.15777587890625 38.98710250854492 C312.0628662109375 38.636749267578125 314.0196533203125 38.70148849487305 315.9816589355469 39.054931640625 C317.9436340332031 39.40837860107422 319.9108581542969 40.05052947998047 321.83685302734375 40.855003356933594 C323.8748474121094 41.706260681152344 325.8127136230469 42.75895690917969 327.701416015625 43.89925765991211 C329.5901184082031 45.03955841064453 331.42962646484375 46.2674674987793 333.2709655761719 47.469154357910156 C335.1994323730469 48.72771072387695 337.0665283203125 50.01102828979492 338.88232421875 51.34223937988281 C340.6981201171875 52.67344665527344 342.46258544921875 54.05254364013672 344.185791015625 55.502655029296875 C345.90899658203125 56.95276641845703 347.5909423828125 58.47389221191406 349.24163818359375 60.08915710449219 C350.6815490722656 61.49814224243164 352.497802734375 63.34439468383789 354.03936767578125 65.40065002441406 C355.5809326171875 67.4569091796875 356.8477783203125 69.72317504882812 357.1888427734375 71.97219848632812 C357.5298767089844 74.2212142944336 356.94512939453125 76.45298767089844 354.7835388183594 78.44024658203125 C353.56951904296875 79.55634307861328 351.8556213378906 80.30792999267578 350.0494384765625 80.81495666503906 C348.24322509765625 81.32197570800781 346.3447570800781 81.58442687988281 344.7615966796875 81.72225952148438 C342.3865966796875 81.92902374267578 340.10870361328125 81.7688980102539 337.92169189453125 81.31376647949219 C335.73468017578125 80.85863494873047 333.6385498046875 80.1084976196289 331.62713623046875 79.13523864746094 C329.61572265625 78.16197204589844 327.6889953613281 76.96559143066406 325.8407897949219 75.61795806884766 C323.9925842285156 74.27033233642578 322.2228698730469 72.7714614868164 320.52545166015625 71.19322967529297 C318.8280334472656 69.61500549316406 317.2029113769531 67.95741271972656 315.6439208984375 66.29234313964844 C314.08489990234375 64.62727355957031 312.59197998046875 62.95473098754883 311.15899658203125 61.346588134765625 C309.80364990234375 59.82556915283203 307.88385009765625 58.1760368347168 306.0929260253906 56.38856506347656 C304.302001953125 54.601097106933594 302.639892578125 52.675689697265625 301.7999267578125 50.60293197631836 C300.9599609375 48.530174255371094 300.942138671875 46.31005859375 302.4396667480469 43.93317794799805 C303.1976318359375 42.730159759521484 303.646240234375 42.397762298583984 304.64385986328125 41.40980529785156 L304.64385986328125 41.40980529785156"></path>
<path fill="none" stroke="black" stroke-width=".3" stroke-opacity="1.0"  filling="0" d="M268.59564208984375 49.27381896972656 L268.59564208984375 49.27381896972656 C269.9885559082031 49.253807067871094 270.4334411621094 48.972190856933594 271.5315246582031 50.053524017333984 C273.1902770996094 51.68697738647461 272.43206787109375 54.53534698486328 270.17181396484375 55.11323547363281 C267.9388732910156 55.68414306640625 265.9299621582031 53.64472198486328 266.5292053222656 51.423988342285156 C266.9185791015625 49.98093795776367 267.42926025390625 49.97748947143555 268.59564208984375 49.27381896972656 L268.59564208984375 49.27381896972656"></path>
<path fill="none" stroke="black" stroke-width=".3" stroke-opacity="1.0"  filling="0" d="M246.92657470703125 49.84783935546875 L246.92657470703125 49.84783935546875 C248.26492309570312 49.743072509765625 248.68841552734375 49.45319747924805 249.8313446044922 50.37879943847656 C251.61790466308594 51.825653076171875 251.1222686767578 54.69824981689453 248.9882354736328 55.51982879638672 C246.7841339111328 56.368377685546875 244.5199432373047 54.4488410949707 244.9569854736328 52.14031219482422 C245.24322509765625 50.62834930419922 245.7668914794922 50.61476135253906 246.92657470703125 49.84783935546875 L246.92657470703125 49.84783935546875"></path>
<path fill="none" stroke="black" stroke-width=".3" stroke-opacity="1.0"  filling="0" d="M226.71165466308594 53.93291091918945 L226.71165466308594 53.93291091918945 C227.89471435546875 53.38331604003906 228.90406799316406 54.08450698852539 229.77809143066406 55.128231048583984 C230.652099609375 56.171958923339844 231.39077758789062 57.55821990966797 232.03250122070312 58.37875747680664 C233.07687377929688 59.714134216308594 234.1209259033203 61.04975128173828 235.16505432128906 62.385311126708984 C236.20916748046875 63.72087860107422 237.25335693359375 65.05638885498047 238.29798889160156 66.39155578613281 C239.34262084960938 67.72672271728516 240.3876953125 69.06155395507812 241.43356323242188 70.39574432373047 C242.43165588378906 71.66897583007812 244.23593139648438 75.15638732910156 245.84552001953125 75.65104675292969 C247.42483520507812 76.13639831542969 250.70028686523438 73.0098876953125 251.92051696777344 72.19181823730469 C253.4087371826172 71.19408416748047 254.9435272216797 70.24005126953125 256.5316162109375 69.484130859375 C258.11968994140625 68.72821044921875 259.7610778808594 68.17039489746094 261.46246337890625 67.96510314941406 C263.1638488769531 67.75981140136719 264.92523193359375 67.90702819824219 266.75335693359375 68.5611801147461 C267.85479736328125 68.95530700683594 269.0575256347656 69.5584945678711 270.1579284667969 70.30442810058594 C271.2583312988281 71.05035400390625 272.2564392089844 71.93903350830078 272.9486389160156 72.90413665771484 C274.302001953125 74.79106903076172 275.103515625 77.53627014160156 276.07952880859375 79.64849090576172 C276.9900207519531 81.61894989013672 277.89837646484375 83.59040832519531 278.8075256347656 85.56149291992188 C279.7167053222656 87.53257751464844 280.6266784667969 89.50328063964844 281.5404357910156 91.47222137451172 C282.215087890625 92.92593383789062 282.8598327636719 94.3669204711914 283.69366455078125 95.66339874267578 C284.5274658203125 96.95987701416016 285.5503845214844 98.11186218261719 286.98138427734375 98.9875717163086 C288.7138977050781 100.04780578613281 290.432861328125 100.31432342529297 292.1789855957031 100.2318115234375 C293.9251403808594 100.14929962158203 295.698486328125 99.71775817871094 297.539794921875 99.3818588256836 C299.7930908203125 98.97080993652344 301.989013671875 98.44596099853516 304.17315673828125 97.92113494873047 C306.3572998046875 97.39631652832031 308.52972412109375 96.87151336669922 310.7359619140625 96.4605484008789 C312.94219970703125 96.04959106445312 315.1822814941406 95.7524642944336 317.5018310546875 95.68299865722656 L317.5018310546875 95.68299865722656 C315.76763916015625 96.50172424316406 313.876220703125 97.12385559082031 311.96160888671875 97.7044906616211 C310.0469970703125 98.28511810302734 308.109130859375 98.82424926757812 306.28204345703125 99.47694396972656 C304.1739501953125 100.23002624511719 302.0644226074219 100.98041534423828 299.9538269042969 101.7286148071289 C297.84320068359375 102.47681427001953 295.73150634765625 103.22282409667969 293.61907958984375 103.96715545654297 C291.50665283203125 104.71148681640625 289.3935241699219 105.4541244506836 287.2799987792969 106.19558715820312 C285.16650390625 106.93705749511719 283.0526123046875 107.67733764648438 280.9386901855469 108.41695404052734 C278.62188720703125 109.2275619506836 276.306396484375 110.04220581054688 273.99188232421875 110.85980987548828 C271.6773681640625 111.67741394042969 269.36383056640625 112.49796295166016 267.0508728027344 113.32037353515625 C264.7379455566406 114.14278411865234 262.4256286621094 114.96704864501953 260.1135559082031 115.79207611083984 C257.8014831542969 116.61710357666016 255.48968505859375 117.4428939819336 253.1777801513672 118.26835632324219 C250.86587524414062 119.09381103515625 248.5538787841797 119.9189453125 246.24142456054688 120.74264526367188 C243.92897033691406 121.56634521484375 241.61607360839844 122.38862609863281 239.30235290527344 123.20838165283203 C236.9886474609375 124.02813720703125 234.6741180419922 124.84537506103516 232.3584442138672 125.65899658203125 C230.04275512695312 126.47261810302734 227.7259063720703 127.28263092041016 225.4075469970703 128.0879364013672 C223.08917236328125 128.8932342529297 220.769287109375 129.69383239746094 218.44754028320312 130.48861694335938 C216.1257781982422 131.28341674804688 213.80215454101562 132.07241821289062 211.47628784179688 132.85450744628906 C209.27232360839844 133.59561157226562 207.07090759277344 134.34469604492188 204.87167358398438 135.1007080078125 C202.6724395751953 135.85671997070312 200.47540283203125 136.61965942382812 198.2802276611328 137.38845825195312 C196.08505249023438 138.15725708007812 193.89173889160156 138.9319305419922 191.699951171875 139.71142578125 C189.50816345214844 140.49090576171875 187.31788635253906 141.27520751953125 185.12881469726562 142.06326293945312 C182.93972778320312 142.851318359375 180.75184631347656 143.64312744140625 178.56480407714844 144.43763732910156 C176.3777618408203 145.23214721679688 174.1915740966797 146.02935791015625 172.0059051513672 146.82821655273438 C169.8202362060547 147.6270751953125 167.6350860595703 148.42758178710938 165.45010375976562 149.22866821289062 C163.26513671875 150.02975463867188 161.08033752441406 150.83143615722656 158.8953857421875 151.6326446533203 C156.71043395996094 152.43385314941406 154.52532958984375 153.23460388183594 152.33973693847656 154.03382873535156 C150.15414428710938 154.8330535888672 147.9680633544922 155.63075256347656 145.78114318847656 156.42587280273438 C143.59423828125 157.2209930419922 141.406494140625 158.01351928710938 139.21759033203125 158.80242919921875 C137.0286865234375 159.59133911132812 134.838623046875 160.37661743164062 132.64706420898438 161.15719604492188 C130.45550537109375 161.93777465820312 128.262451171875 162.71368408203125 126.06755065917969 163.48382568359375 C123.75398254394531 164.2956085205078 121.44068145751953 165.10867309570312 119.12761688232422 165.9229278564453 C116.81455993652344 166.7371826171875 114.50173950195312 167.55264282226562 112.18916320800781 168.3692169189453 C109.8765869140625 169.185791015625 107.56424713134766 170.0034637451172 105.25213623046875 170.82215881347656 C102.94002532958984 171.64085388183594 100.62814331054688 172.4605712890625 98.31647491455078 173.28123474121094 C96.00480651855469 174.1018829345703 93.693359375 174.92347717285156 91.38212585449219 175.74591064453125 C89.07088470458984 176.56834411621094 86.75985717773438 177.39163208007812 84.44902038574219 178.21566772460938 C82.13819122314453 179.03970336914062 79.82755279541016 179.86451721191406 77.5171127319336 180.6899871826172 C75.2066650390625 181.5154571533203 72.89641571044922 182.34161376953125 70.58633422851562 183.1683349609375 C68.27626037597656 183.9950714111328 65.96636199951172 184.8223876953125 63.65663528442383 185.65020751953125 C61.34690856933594 186.47802734375 59.037349700927734 187.30633544921875 56.72795486450195 188.1350555419922 C54.418556213378906 188.96377563476562 52.10932159423828 189.7929229736328 49.80023193359375 190.62237548828125 C47.491146087646484 191.45184326171875 45.18220901489258 192.2816162109375 42.8734130859375 193.1116485595703 C40.56461715698242 193.94166564941406 38.25596237182617 194.7719268798828 35.94743728637695 195.60232543945312 C33.638912200927734 196.4327392578125 31.330520629882812 197.26329040527344 29.022249221801758 198.09390258789062 C26.713977813720703 198.9245147705078 24.40582847595215 199.7552032470703 22.09779167175293 200.58584594726562 C19.789752960205078 201.41650390625 17.481826782226562 202.24713134765625 15.174003601074219 203.07763671875 C12.866179466247559 203.90814208984375 10.558456420898438 204.73855590820312 8.250826835632324 205.56874084472656 L8.250826835632324 205.56874084472656 C7.343302249908447 203.4091796875 6.414251804351807 201.2568359375 5.49257230758667 199.1015167236328 C4.570892810821533 196.94619750976562 3.6565842628479004 194.78787231445312 2.778543710708618 192.61631774902344 C2.1789016723632812 191.13328552246094 1.0151070356369019 188.93817138671875 1.274409294128418 187.2682647705078 C1.5976643562316895 185.18649291992188 3.4843332767486572 184.13760375976562 5.091116428375244 183.2179412841797 C6.618827819824219 182.34353637695312 8.146106719970703 181.4683837890625 9.672959327697754 180.59246826171875 C11.199812889099121 179.716552734375 12.726240158081055 178.83990478515625 14.252251625061035 177.96255493164062 C16.127281188964844 176.88453674316406 18.00168228149414 175.805419921875 19.8754825592041 174.72525024414062 C21.749282836914062 173.6450958251953 23.622480392456055 172.5638885498047 25.495105743408203 171.481689453125 C27.36772918701172 170.3994903564453 29.23978042602539 169.31629943847656 31.111284255981445 168.232177734375 C32.9827880859375 167.14804077148438 34.8537483215332 166.06297302246094 36.724185943603516 164.9770050048828 C38.59462356567383 163.8910369873047 40.46454620361328 162.80416870117188 42.3339729309082 161.7164764404297 C44.20340347290039 160.62876892089844 46.07234191894531 159.54022216796875 47.94081497192383 158.45086669921875 C49.80929183959961 157.36151123046875 51.67729949951172 156.2713623046875 53.54487609863281 155.18048095703125 C55.68326950073242 153.93141174316406 57.82107925415039 152.6813201904297 59.95836639404297 151.43035888671875 C62.09565353393555 150.17938232421875 64.232421875 148.92752075195312 66.36872863769531 147.67486572265625 C68.50503540039062 146.42221069335938 70.64088439941406 145.1687774658203 72.77633666992188 143.91465759277344 C74.91178894042969 142.66053771972656 77.04684448242188 141.40573120117188 79.18156433105469 140.15037536621094 C81.3162841796875 138.89500427246094 83.45067596435547 137.63906860351562 85.58479309082031 136.38265991210938 C87.71891021728516 135.12625122070312 89.8527603149414 133.869384765625 91.98639678955078 132.61215209960938 C94.12003326416016 131.35491943359375 96.25347137451172 130.09735107421875 98.38675689697266 128.83950805664062 C100.5200424194336 127.58168029785156 102.65318298339844 126.32360076904297 104.78624725341797 125.06538391113281 C106.91930389404297 123.80716705322266 109.05228424072266 122.5488052368164 111.18524169921875 121.29041290283203 C113.31819915771484 120.03202056884766 115.45113372802734 118.77359771728516 117.58411407470703 117.51524353027344 C119.71709442138672 116.25688934326172 121.8501205444336 114.99861145019531 123.98324584960938 113.74051666259766 C126.11637115478516 112.482421875 128.24960327148438 111.2245101928711 130.3830108642578 109.96688842773438 C132.51641845703125 108.70926666259766 134.6499786376953 107.45193481445312 136.78378295898438 106.19499969482422 C138.91758728027344 104.93806457519531 141.05162048339844 103.68152618408203 143.18594360351562 102.42549133300781 C145.3202667236328 101.1694564819336 147.45489501953125 99.91393280029297 149.58987426757812 98.65901947021484 C151.724853515625 97.40410614013672 153.8601837158203 96.1498031616211 155.99594116210938 94.89622497558594 C158.13169860839844 93.64264678955078 160.2678680419922 92.38978576660156 162.40452575683594 91.13774871826172 C164.5411834716797 89.8857192993164 166.67831420898438 88.63451385498047 168.81600952148438 87.38424682617188 C170.9536895751953 86.13397979736328 173.0919189453125 84.8846435546875 175.2307586669922 83.63636016845703 C177.36959838867188 82.38806915283203 179.509033203125 81.14082336425781 181.64915466308594 79.89472961425781 C183.7892608642578 78.64863586425781 185.9300537109375 77.40369415283203 188.07156372070312 76.1600112915039 C190.21307373046875 74.91632843017578 192.35533142089844 73.67390441894531 194.49838256835938 72.43284606933594 C196.6414337158203 71.19178771972656 198.78526306152344 69.95209503173828 200.9299774169922 68.71387481689453 C203.07467651367188 67.47566223144531 205.22023010253906 66.2389144897461 207.36671447753906 65.00375366210938 C209.51319885253906 63.768592834472656 211.6605987548828 62.535011291503906 213.80899047851562 61.303123474121094 C215.95738220214844 60.071231842041016 218.10675048828125 58.84103012084961 220.25718688964844 57.61262512207031 C222.40760803222656 56.384220123291016 224.55908203125 55.157615661621094 226.71165466308594 53.93291091918945 L226.71165466308594 53.93291091918945"></path>
<path fill="none" stroke="black" stroke-width=".3" stroke-opacity="1.0"  filling="0" d="M287.155517578125 63.45200729370117 L287.155517578125 63.45200729370117 C288.5221252441406 63.45632553100586 288.96868896484375 63.19007873535156 290.0339660644531 64.25204467773438 C291.6691589355469 65.88215637207031 290.9150390625 68.65678405761719 288.6957702636719 69.2651138305664 C286.4644470214844 69.87673950195312 284.38690185546875 67.8151626586914 284.9957580566406 65.57706451416016 C285.39947509765625 64.09307098388672 285.9366455078125 64.11884307861328 287.155517578125 63.45200729370117 L287.155517578125 63.45200729370117"></path>
<path fill="none" stroke="black" stroke-width=".3" stroke-opacity="1.0"  filling="0" d="M305.0074157714844 76.2047348022461 L305.0074157714844 76.2047348022461 C306.3565979003906 76.04637908935547 306.7519836425781 75.7384262084961 307.9408874511719 76.64002990722656 C309.7781982421875 78.03335571289062 309.418701171875 80.89046478271484 307.2962951660156 81.79660034179688 C305.1349792480469 82.71934509277344 302.8146667480469 80.92884063720703 303.1466369628906 78.60602569580078 C303.3639221191406 77.08561706542969 303.89154052734375 77.03528594970703 305.0074157714844 76.2047348022461 L305.0074157714844 76.2047348022461"></path></svg>