<svg xmlns="http://www.w3.org/2000/svg" viewBox="0.0 0.0 24.0 24.0" height="200px" width="200px"><path fill="none" stroke="black" stroke-width=".3" stroke-opacity="1.0"  filling="0" d="M9.865489959716797 8.104372024536133 L9.865489959716797 8.104372024536133 C10.101683616638184 7.888045310974121 10.33787727355957 7.671718120574951 10.574070930480957 7.4553914070129395 L10.574070930480957 7.4553914070129395 C10.55089282989502 8.018282890319824 10.430575370788574 8.585573196411133 10.504537582397461 9.144065856933594 C10.6444673538208 10.200682640075684 11.895733833312988 10.525859832763672 12.739543914794922 10.680425643920898 C14.710321426391602 11.041424751281738 17.176963806152344 10.70377254486084 18.994253158569336 11.309539794921875 L18.994253158569336 11.309539794921875 C18.977697372436523 11.358102798461914 18.961139678955078 11.406665802001953 18.944583892822266 11.455228805541992 L18.944583892822266 11.455228805541992 C20.43047523498535 11.209097862243652 20.99165153503418 8.94646167755127 22.55702018737793 8.326216697692871 L22.55702018737793 8.326216697692871 C21.518760681152344 9.41495132446289 21.01886749267578 10.602072715759277 21.042558670043945 11.781030654907227 C21.066247940063477 12.95998764038086 21.613521575927734 14.130781173706055 22.669597625732422 15.186860084533691 L22.669597625732422 15.186860084533691 C22.176240921020508 14.940733909606934 21.623722076416016 14.788263320922852 21.189525604248047 14.448480606079102 C20.15369415283203 13.637886047363281 20.12434959411621 12.438359260559082 18.79889678955078 12.431999206542969 L18.79889678955078 12.431999206542969 C18.848562240600586 12.494911193847656 18.898229598999023 12.557822227478027 18.947895050048828 12.620734214782715 L18.947895050048828 12.620734214782715 C17.275606155395508 12.68631362915039 16.416946411132812 13.385749816894531 16.987712860107422 15.10407543182373 L16.987712860107422 15.10407543182373 C16.47075843811035 14.812742233276367 15.539112091064453 13.35698127746582 15.232817649841309 13.35249137878418 C13.781635284423828 13.331218719482422 12.237433433532715 13.617774963378906 10.772737503051758 13.660426139831543 L10.772737503051758 13.660426139831543 C10.930292129516602 14.614401817321777 11.113934516906738 15.579934120178223 11.487939834594727 16.471569061279297 L11.487939834594727 16.471569061279297 C10.389906883239746 15.668990135192871 10.190771102905273 14.9677152633667 9.839001655578613 13.67035961151123 L9.839001655578613 13.67035961151123 C8.409732818603516 13.40750503540039 7.489978313446045 13.060803413391113 6.186835289001465 12.511467933654785 L6.186835289001465 12.511467933654785 C6.612866401672363 12.480563163757324 7.03889799118042 12.44965934753418 7.464929103851318 12.418754577636719 L7.464929103851318 12.418754577636719 C5.521201133728027 11.913506507873535 3.503361940383911 12.042542457580566 1.504908561706543 11.998244285583496 L1.504908561706543 11.998244285583496 C1.5148420333862305 11.971755027770996 1.524775505065918 11.945266723632812 1.5347089767456055 11.918777465820312 L1.5347089767456055 11.918777465820312 C2.9075448513031006 11.874052047729492 4.2373199462890625 11.951104164123535 5.519637107849121 11.841049194335938 C6.801954746246338 11.73099422454834 8.036815643310547 11.433834075927734 9.21982192993164 10.640684127807617 L9.21982192993164 10.640684127807617 C9.332340240478516 9.775566101074219 9.550533294677734 8.91793155670166 9.865489959716797 8.104363441467285 L9.865489959716797 8.104363441467285"></path></svg>