<svg xmlns="http://www.w3.org/2000/svg" viewBox="0.0 0.0 24.0 24.0" height="200px" width="200px"><path fill="none" stroke="black" stroke-width=".3" stroke-opacity="1.0"  filling="0" d="M19.50170135498047 15.141631126403809 L19.50170135498047 15.141631126403809 C20.633174896240234 16.11558723449707 23.143836975097656 18.530662536621094 21.852386474609375 20.37395477294922 C21.266841888427734 21.20970344543457 20.26344871520996 21.655250549316406 19.48731231689453 22.31778335571289 L19.48731231689453 22.31778335571289 C20.222253799438477 21.6416072845459 21.383670806884766 20.75929832458496 21.68081283569336 19.719104766845703 C21.843658447265625 19.14903450012207 21.239721298217773 17.82830810546875 20.937732696533203 17.41035270690918 C20.12277603149414 16.282447814941406 18.997859954833984 15.656004905700684 17.78612518310547 15.166324615478516 C16.574390411376953 14.676645278930664 15.275836944580078 14.323728561401367 14.113605499267578 13.742878913879395 C12.789999008178711 13.081378936767578 11.321409225463867 11.306403160095215 9.886701583862305 11.337533950805664 L9.886701583862305 11.337533950805664 C9.840145111083984 11.612641334533691 9.79358959197998 11.887747764587402 9.74703311920166 12.16285514831543 L9.74703311920166 12.16285514831543 C9.401976585388184 12.365674018859863 9.05691909790039 12.56849193572998 8.711862564086914 12.771310806274414 L8.711862564086914 12.771310806274414 C8.872756958007812 12.629095077514648 9.033651351928711 12.486878395080566 9.19454574584961 12.3446626663208 L8.024877548217773 12.56503677368164 C8.261821746826172 12.410490989685059 8.49876594543457 12.255945205688477 8.735710144042969 12.101399421691895 L8.735710144042969 12.101399421691895 C8.368147850036621 11.952141761779785 8.000585556030273 11.80288314819336 7.633022785186768 11.65362548828125 L7.633022785186768 11.65362548828125 C7.9770989418029785 11.702577590942383 8.321174621582031 11.751530647277832 8.665250778198242 11.800482749938965 L8.665250778198242 11.800482749938965 C8.486257553100586 11.64112377166748 8.307263374328613 11.48176383972168 8.128270149230957 11.322404861450195 L8.128270149230957 11.322404861450195 C8.354846000671387 11.401911735534668 8.5814208984375 11.481417655944824 8.80799674987793 11.560924530029297 L8.80799674987793 11.560924530029297 C8.787379264831543 11.441706657409668 8.76676082611084 11.322487831115723 8.746143341064453 11.203269958496094 L8.746143341064453 11.203269958496094 C8.817882537841797 10.865501403808594 8.88962173461914 10.527732849121094 8.961360931396484 10.189964294433594 L8.961360931396484 10.189964294433594 C8.06756591796875 9.318281173706055 7.144867897033691 8.475339889526367 6.19692850112915 7.662866592407227 L6.19692850112915 7.662866592407227 C5.575807571411133 7.8866167068481445 4.965062141418457 8.162896156311035 4.416032314300537 8.529531478881836 L4.416032314300537 8.529531478881836 C4.50164270401001 8.379663467407227 4.587253093719482 8.229795455932617 4.672863483428955 8.079927444458008 L4.672863483428955 8.079927444458008 C4.643923282623291 8.036842346191406 4.614983558654785 7.993757724761963 4.586043357849121 7.950672626495361 L4.586043357849121 7.950672626495361 C4.182641506195068 7.931419849395752 3.7792394161224365 7.912167549133301 3.3758373260498047 7.892914772033691 L3.3758373260498047 7.892914772033691 C3.7631995677948 7.837177753448486 4.150561809539795 7.7814412117004395 4.537923812866211 7.725704193115234 L4.537923812866211 7.725704193115234 C4.222433567047119 7.4988861083984375 3.9069435596466064 7.272068500518799 3.5914535522460938 7.045250415802002 L3.5914535522460938 7.045250415802002 C3.9221441745758057 7.182466506958008 4.252834796905518 7.319683074951172 4.583525657653809 7.456899166107178 L4.583525657653809 7.456899166107178 C4.462907314300537 7.2209367752075195 4.342289447784424 6.984974384307861 4.221671104431152 6.749011993408203 L4.221671104431152 6.749011993408203 C4.4054388999938965 6.930055618286133 4.589206218719482 7.111098766326904 4.772974014282227 7.292142391204834 L4.772974014282227 7.292142391204834 C4.806138038635254 7.158507347106934 4.839301586151123 7.024871826171875 4.87246561050415 6.891236782073975 L4.87246561050415 6.891236782073975 C4.931764602661133 7.074366569519043 4.991063117980957 7.257495880126953 5.0503621101379395 7.4406256675720215 L5.0503621101379395 7.4406256675720215 C5.229958534240723 7.372730255126953 5.409554481506348 7.304834842681885 5.589150905609131 7.236939430236816 L5.589150905609131 7.236939430236816 C5.191900730133057 5.793957710266113 4.442237854003906 5.847139835357666 3.346592426300049 4.943863391876221 C3.343766927719116 4.941534042358398 2.0087602138519287 3.962613582611084 2.414637565612793 3.487802505493164 C3.4663915634155273 2.257420063018799 6.093632221221924 4.9995503425598145 7.188532829284668 4.983509063720703 L7.188532829284668 4.983509063720703 C7.139060020446777 4.916348934173584 7.0895867347717285 4.849189281463623 7.040113925933838 4.782029151916504 L7.040113925933838 4.782029151916504 C6.862720489501953 4.803499698638916 6.685327529907227 4.824970245361328 6.507934093475342 4.84644079208374 L6.507934093475342 4.84644079208374 C6.5743327140808105 4.780726909637451 6.640730857849121 4.715012550354004 6.70712947845459 4.649298667907715 L6.70712947845459 4.649298667907715 C6.475011348724365 4.585076332092285 6.242893218994141 4.520854473114014 6.010775089263916 4.456632137298584 L6.010775089263916 4.456632137298584 C6.237842559814453 4.426570892333984 6.464910507202148 4.396509170532227 6.6919779777526855 4.366447925567627 L6.6919779777526855 4.366447925567627 C6.511653423309326 4.152066230773926 6.331328868865967 3.9376845359802246 6.151004314422607 3.7233028411865234 L6.151004314422607 3.7233028411865234 C6.40565299987793 3.894134759902954 6.660301685333252 4.064966678619385 6.914950370788574 4.2357988357543945 L6.914950370788574 4.2357988357543945 C6.808485507965088 3.874603271484375 6.70202112197876 3.5134077072143555 6.595556259155273 3.152212142944336 L6.595556259155273 3.152212142944336 C6.792959213256836 3.5304224491119385 6.990362644195557 3.90863299369812 7.187765598297119 4.286843299865723 L7.187765598297119 4.286843299865723 C7.275674819946289 4.079277992248535 7.363584518432617 3.8717126846313477 7.451493740081787 3.66414737701416 L7.451493740081787 3.66414737701416 C7.4383721351623535 3.9314258098602295 7.425251007080078 4.198704242706299 7.4121294021606445 4.465982437133789 L7.4121294021606445 4.465982437133789 C7.610134601593018 4.616937637329102 7.808140277862549 4.767893314361572 8.006145477294922 4.918848514556885 L8.006145477294922 4.918848514556885 C7.750395774841309 5.138046741485596 7.494646072387695 5.357245445251465 7.238896369934082 5.576443672180176 L7.238896369934082 5.576443672180176 C8.252782821655273 6.951391220092773 9.21568775177002 8.125917434692383 10.514852523803711 9.23672866821289 L10.514852523803711 9.23672866821289 C10.519015312194824 8.805240631103516 10.523177146911621 8.37375259399414 10.527339935302734 7.942264080047607 L10.527339935302734 7.942264080047607 C10.365063667297363 7.778990745544434 10.202786445617676 7.615717887878418 10.040510177612305 7.452444553375244 L10.040510177612305 7.452444553375244 C10.156001091003418 7.44577169418335 10.271491050720215 7.439099311828613 10.386981964111328 7.432426452636719 L10.386981964111328 7.432426452636719 C10.24218463897705 7.281477928161621 10.09738826751709 7.130529403686523 9.952590942382812 6.979580879211426 L9.952590942382812 6.979580879211426 C10.150221824645996 7.069209575653076 10.347853660583496 7.158837795257568 10.54548454284668 7.248466491699219 L10.54548454284668 7.248466491699219 C10.353423118591309 6.930723667144775 10.161361694335938 6.61298131942749 9.969300270080566 6.295238494873047 L9.969300270080566 6.295238494873047 C10.231099128723145 6.578409671783447 10.492897987365723 6.8615803718566895 10.7546968460083 7.14475154876709 L10.7546968460083 7.14475154876709 C10.859183311462402 6.9337358474731445 10.963669776916504 6.722720146179199 11.068156242370605 6.511704444885254 L11.068156242370605 6.511704444885254 C11.060434341430664 6.743844032287598 11.052711486816406 6.975983619689941 11.044989585876465 7.208123207092285 L11.044989585876465 7.208123207092285 C11.063950538635254 7.279680252075195 11.082910537719727 7.3512372970581055 11.101871490478516 7.422794342041016 L11.101871490478516 7.422794342041016 C11.303993225097656 7.32726526260376 11.506114959716797 7.231736183166504 11.708236694335938 7.136207103729248 L11.708236694335938 7.136207103729248 C11.523490905761719 7.308541774749756 11.338746070861816 7.4808759689331055 11.154000282287598 7.653210639953613 L11.154000282287598 7.653210639953613 C10.993705749511719 9.937639236450195 12.276885986328125 11.36644458770752 14.002010345458984 12.445793151855469 C15.72713565826416 13.525142669677734 17.894207000732422 14.255034446716309 19.501693725585938 15.14163589477539 L19.501693725585938 15.14163589477539"></path></svg>