<svg xmlns="http://www.w3.org/2000/svg" viewBox="0.0 0.0 24.0 24.0" height="200px" width="200px"><path fill="none" stroke="black" stroke-width=".3" stroke-opacity="1.0"  filling="0" d="M7.848048210144043 10.345656394958496 L7.848048210144043 10.345656394958496 C9.16004753112793 11.673908233642578 6.536048412322998 11.673908233642578 7.848048210144043 10.345656394958496 L7.848048210144043 10.345656394958496"></path>
<path fill="none" stroke="black" stroke-width=".3" stroke-opacity="1.0"  filling="0" d="M11.132111549377441 10.345656394958496 L11.132111549377441 10.345656394958496 C12.444110870361328 11.673908233642578 9.820114135742188 11.673908233642578 11.132111549377441 10.345656394958496 L11.132111549377441 10.345656394958496"></path>
<path fill="none" stroke="black" stroke-width=".3" stroke-opacity="1.0"  filling="0" d="M12.829440116882324 10.345656394958496 L12.829440116882324 10.345656394958496 C14.141338348388672 11.673806190490723 11.517905235290527 11.673951148986816 12.829440116882324 10.345656394958496 L12.829440116882324 10.345656394958496"></path>
<path fill="none" stroke="black" stroke-width=".3" stroke-opacity="1.0"  filling="0" d="M9.508224487304688 10.794936180114746 L9.508224487304688 10.794936180114746 C9.776893615722656 11.067161560058594 9.239554405212402 11.06716251373291 9.508224487304688 10.794936180114746 L9.508224487304688 10.794936180114746"></path>
<path fill="none" stroke="black" stroke-width=".3" stroke-opacity="1.0"  filling="0" d="M20.126136779785156 12.102168083190918 L16.323240280151367 12.102168083190918 L12.520343780517578 12.102168083190918 L12.520343780517578 12.379512786865234 C12.568007469177246 12.379944801330566 12.61567211151123 12.380376815795898 12.663335800170898 12.38080883026123 L12.663335800170898 12.38080883026123 C16.536291122436523 13.505409240722656 14.094892501831055 14.173391342163086 12.070631980895996 14.173391342163086 L12.070631980895996 14.173391342163086 C11.323798179626465 14.173391342163086 10.461607933044434 14.237567901611328 9.70888900756836 14.173391342163086 C9.43349552154541 14.149911880493164 9.143062591552734 13.34150218963623 9.327648162841797 13.227959632873535 C10.159372329711914 12.716347694396973 10.622514724731445 12.593958854675293 11.357183456420898 12.38080883026123 L11.357183456420898 12.38080883026123 C11.425079345703125 12.380160331726074 11.492976188659668 12.379512786865234 11.560872077941895 12.378864288330078 L11.560872077941895 12.102168083190918 L7.7371320724487305 12.102168083190918 L3.9133920669555664 12.102168083190918 C3.728928327560425 11.915400505065918 3.544464349746704 11.728631973266602 3.3600006103515625 11.541864395141602 L3.3600006103515625 10.346303939819336 C3.544464349746704 10.159536361694336 3.728928327560425 9.97276782989502 3.9133920669555664 9.78600025177002 L9.31764030456543 9.78600025177002 L14.72188949584961 9.78600025177002 L20.126136779785156 9.78600025177002 C20.31060028076172 9.97276782989502 20.49506378173828 10.159536361694336 20.679527282714844 10.346303939819336 L20.679527282714844 11.541864395141602 C20.49506378173828 11.728631973266602 20.31060028076172 11.915400505065918 20.126136779785156 12.102168083190918 L20.126136779785156 12.102168083190918"></path></svg>