<svg xmlns="http://www.w3.org/2000/svg" viewBox="0.0 0.0 24.0 24.0" height="200px" width="200px"><path fill="none" stroke="black" stroke-width=".3" stroke-opacity="1.0"  filling="0" d="M22.261943817138672 6.603456497192383 L22.261943817138672 6.603456497192383 C22.29901885986328 7.0966386795043945 22.301450729370117 7.59363317489624 22.269287109375 8.087160110473633 L22.269287109375 8.087160110473633 C22.155887603759766 8.193072319030762 22.04248809814453 8.298983573913574 21.929088592529297 8.404895782470703 L21.195335388183594 8.449175834655762 C21.063575744628906 8.55076789855957 20.93181610107422 8.652359962463379 20.80005645751953 8.753952026367188 L20.53286361694336 9.411239624023438 C20.55561637878418 9.57597541809082 20.578367233276367 9.74071216583252 20.601119995117188 9.905447959899902 L21.0933837890625 10.44976806640625 C21.09676742553711 10.601832389831543 21.10015106201172 10.75389575958252 21.103534698486328 10.905960083007812 L20.06155014038086 11.958959579467773 C19.909414291381836 11.957159996032715 19.757280349731445 11.95535945892334 19.605144500732422 11.953559875488281 L19.055639266967773 11.466480255126953 C18.890687942504883 11.445528030395508 18.72573471069336 11.424575805664062 18.56078338623047 11.403623580932617 L17.906518936157227 11.677727699279785 C17.806150436401367 11.810711860656738 17.70578384399414 11.943696022033691 17.60541534423828 12.076680183410645 L17.568695068359375 12.80935287475586 C17.464078903198242 12.92404842376709 17.359464645385742 13.038744926452637 17.25484848022461 13.153440475463867 L17.25484848022461 13.153440475463867 C16.7614688873291 13.190784454345703 16.264238357543945 13.193394660949707 15.770495414733887 13.161215782165527 L15.770495414733887 13.161215782165527 C15.664655685424805 13.047672271728516 15.558815002441406 12.934127807617188 15.452975273132324 12.820584297180176 L15.409127235412598 12.087911605834961 C15.307319641113281 11.95593547821045 15.205512046813965 11.823960304260254 15.103704452514648 11.691984176635742 L14.446632385253906 11.424575805664062 C14.2820405960083 11.447327613830566 14.117447853088379 11.470080375671387 13.952856063842773 11.49283218383789 L13.408320426940918 11.985311508178711 C13.256184577941895 11.98862361907959 13.104047775268555 11.991936683654785 12.951911926269531 11.995248794555664 L11.898695945739746 10.953264236450195 C11.900496482849121 10.800984382629395 11.90229606628418 10.648703575134277 11.904096603393555 10.496423721313477 L12.391607284545898 9.947352409362793 C12.412487030029297 9.782400131225586 12.433367729187012 9.617448806762695 12.45424747467041 9.452496528625488 L12.180791854858398 8.798232078552246 C12.047736167907715 8.697864532470703 11.914679527282715 8.597496032714844 11.781623840332031 8.4971284866333 L11.048088073730469 8.460840225219727 C10.933608055114746 8.356152534484863 10.819127082824707 8.251463890075684 10.704647064208984 8.14677619934082 L10.704647064208984 8.14677619934082 C10.667303085327148 7.653397083282471 10.664766311645508 7.156157970428467 10.697087287902832 6.662424564361572 L10.697087287902832 6.662424564361572 C10.810415267944336 6.556512355804443 10.923744201660156 6.450600624084473 11.03707218170166 6.344688415527344 L11.770391464233398 6.301056385040283 C11.902223587036133 6.199392318725586 12.034056663513184 6.097728729248047 12.165888786315918 5.99606466293335 L12.433511734008789 5.338560104370117 C12.410687446594238 5.173824310302734 12.387864112854004 5.009088516235352 12.365039825439453 4.844352722167969 L11.87277603149414 4.300464630126953 C11.869391441345215 4.148184299468994 11.866007804870605 3.9959042072296143 11.86262321472168 3.8436241149902344 L12.904823303222656 2.7908401489257812 C13.057103157043457 2.792639970779419 13.209383964538574 2.7944400310516357 13.361663818359375 2.7962398529052734 L13.910520553588867 3.283320426940918 C14.075544357299805 3.304344415664673 14.240568161010742 3.325368642807007 14.40559196472168 3.3463926315307617 L15.06007194519043 3.0720720291137695 C15.160439491271973 2.9390881061553955 15.260807991027832 2.8061044216156006 15.361175537109375 2.6731204986572266 L15.3970308303833 1.9400157928466797 C15.50171947479248 1.825535774230957 15.606407165527344 1.7110557556152344 15.711095809936523 1.5965757369995117 L15.711095809936523 1.5965757369995117 C16.20453643798828 1.5590832233428955 16.70185661315918 1.5564831495285034 17.195663452148438 1.5888004302978516 L17.195663452148438 1.5888004302978516 C17.30157470703125 1.7022724151611328 17.407487869262695 1.815744400024414 17.513399124145508 1.9292163848876953 L17.557462692260742 2.66188907623291 C17.659055709838867 2.7938644886016846 17.76064682006836 2.925840139389038 17.862239837646484 3.0578155517578125 L18.519094467163086 3.3252248764038086 C18.683759689331055 3.302616834640503 18.84842300415039 3.280008554458618 19.01308822631836 3.2574005126953125 L19.55762481689453 2.7647037506103516 C19.709688186645508 2.761319875717163 19.861753463745117 2.7579357624053955 20.013816833496094 2.754551887512207 L21.066814422607422 3.7967519760131836 C21.065088272094727 3.948960065841675 21.0633602142334 4.101168155670166 21.061634063720703 4.253376483917236 L20.574119567871094 4.802448272705078 C20.553239822387695 4.967400550842285 20.532358169555664 5.132352352142334 20.511478424072266 5.297304630279541 L20.78558349609375 5.951568126678467 C20.91864013671875 6.052008152008057 21.05169677734375 6.1524481773376465 21.18475341796875 6.252888202667236 L21.918289184570312 6.2891764640808105 C22.032840728759766 6.393936634063721 22.14739227294922 6.498696327209473 22.261943817138672 6.603456497192383 L22.261943817138672 6.603456497192383"></path>
<path fill="none" stroke="black" stroke-width=".3" stroke-opacity="1.0"  filling="0" d="M16.491718292236328 9.06499195098877 L16.491718292236328 9.06499195098877 C16.092506408691406 8.902047157287598 15.600529670715332 8.879488945007324 15.29408073425293 8.576156616210938 C14.241897583007812 7.534674644470215 14.99380874633789 5.691934585571289 16.47443962097168 5.684376239776611 C17.955114364624023 5.676817417144775 18.72624397277832 7.511773109436035 17.684471130371094 8.564114570617676 C17.3810977935791 8.870566368103027 16.88930320739746 8.898033142089844 16.491718292236328 9.06499195098877 L16.491718292236328 9.06499195098877"></path>
<path fill="none" stroke="black" stroke-width=".3" stroke-opacity="1.0"  filling="0" d="M13.865592002868652 12.535247802734375 L13.865592002868652 12.535247802734375 C14.135435104370117 13.036877632141113 14.37026309967041 13.558960914611816 14.566512107849121 14.09368896484375 L14.566512107849121 14.09368896484375 C14.49623966217041 14.257848739624023 14.425968170166016 14.422008514404297 14.355695724487305 14.58616828918457 L13.605095863342285 14.973888397216797 C13.513655662536621 15.14236831665039 13.422215461730957 15.310848236083984 13.330775260925293 15.479328155517578 L13.354968070983887 16.294294357299805 C13.455696105957031 16.457374572753906 13.556424140930176 16.62045669555664 13.65715217590332 16.783536911010742 L14.428487777709961 17.125896453857422 C14.502935409545898 17.28451156616211 14.577383995056152 17.44312858581543 14.65183162689209 17.601743698120117 L14.04638385772705 19.19495964050293 C13.885175704956055 19.26386260986328 13.723968505859375 19.332767486572266 13.562760353088379 19.401670455932617 L12.758159637451172 19.144847869873047 C12.574848175048828 19.199495315551758 12.391535758972168 19.2541446685791 12.208224296569824 19.308792114257812 L11.647488594055176 19.902359008789062 C11.603928565979004 20.0889835357666 11.560368537902832 20.27560806274414 11.51680850982666 20.46223258972168 L11.819855690002441 21.249984741210938 C11.763047218322754 21.419401168823242 11.706239700317383 21.588815689086914 11.649431228637695 21.75823211669922 L11.649431228637695 21.75823211669922 C11.147798538208008 22.02721405029297 10.625984191894531 22.261516571044922 10.09164047241211 22.457639694213867 L10.09164047241211 22.457639694213867 C9.927336692810059 22.387582778930664 9.763031959533691 22.317527770996094 9.59872817993164 22.24747085571289 L9.211440086364746 21.49622344970703 C9.0430326461792 21.404783248901367 8.874624252319336 21.313343048095703 8.706216812133789 21.22190284729004 L7.890600204467773 21.24631118774414 C7.727735996246338 21.346967697143555 7.5648722648620605 21.447622299194336 7.402008056640625 21.54827880859375 L7.059216022491455 22.320049285888672 C6.90067195892334 22.394569396972656 6.742128372192383 22.469087600708008 6.583584308624268 22.543607711791992 L4.990584373474121 21.93707847595215 C4.9216084480285645 21.776086807250977 4.85263204574585 21.615093231201172 4.783656120300293 21.4541015625 L5.040264129638672 20.649503707885742 C4.985544204711914 20.4661922454834 4.930823802947998 20.282878875732422 4.87610387802124 20.099567413330078 L4.28275203704834 19.539047241210938 C4.096199989318848 19.49541473388672 3.9096479415893555 19.451784133911133 3.7230958938598633 19.408151626586914 L2.934480667114258 19.710983276367188 C2.7652807235717773 19.654319763183594 2.596080780029297 19.597654342651367 2.4268808364868164 19.540990829467773 L2.4268808364868164 19.540990829467773 C2.1579222679138184 19.039386749267578 1.9235059022903442 18.517675399780273 1.7272577285766602 17.983415603637695 L1.7272577285766602 17.983415603637695 C1.7973852157592773 17.819183349609375 1.8675127029418945 17.654951095581055 1.9376401901245117 17.490718841552734 L2.6884565353393555 17.102783203125 C2.779752492904663 16.934303283691406 2.8710482120513916 16.76582145690918 2.962344169616699 16.597341537475586 L2.9377193450927734 15.78172779083252 C2.8371355533599854 15.618935585021973 2.7365520000457764 15.456144332885742 2.6359682083129883 15.293352127075195 L1.8639850616455078 14.950560569763184 C1.7896089553833008 14.792088508605957 1.7152328491210938 14.63361644744873 1.6408567428588867 14.475144386291504 L2.246953010559082 12.8821439743042 C2.4078729152679443 12.813023567199707 2.5687925815582275 12.743904113769531 2.72971248626709 12.674783706665039 L3.5343122482299805 12.931608200073242 C3.717696189880371 12.876744270324707 3.9010801315307617 12.821879386901855 4.084464073181152 12.76701545715332 L4.645200252532959 12.174528121948242 C4.6888322830200195 11.98804759979248 4.73246431350708 11.801568031311035 4.776096343994141 11.615087509155273 L4.472400665283203 10.82625675201416 C4.52935266494751 10.656984329223633 4.586305141448975 10.487712860107422 4.643257141113281 10.318440437316895 L4.643257141113281 10.318440437316895 C5.144863605499268 10.049470901489258 5.666685581207275 9.81523323059082 6.201048374176025 9.619248390197754 L6.201048374176025 9.619248390197754 C6.36513614654541 9.689448356628418 6.529224395751953 9.759648323059082 6.693312168121338 9.829848289489746 L7.0810322761535645 10.580448150634766 C7.2494401931762695 10.671815872192383 7.417848110198975 10.76318359375 7.58625602722168 10.854551315307617 L8.402087211608887 10.8297119140625 C8.564879417419434 10.72920036315918 8.72767162322998 10.628687858581543 8.890463829040527 10.528176307678223 L9.23347282409668 9.756192207336426 C9.392088890075684 9.681816101074219 9.550704002380371 9.607439994812012 9.709320068359375 9.533063888549805 L11.30232048034668 10.13916015625 C11.371296882629395 10.300007820129395 11.440272331237793 10.460856437683105 11.509248733520508 10.6217041015625 L11.252640724182129 11.42630386352539 C11.307360649108887 11.609759330749512 11.362080574035645 11.79321575164795 11.416800498962402 11.97667121887207 L12.009936332702637 12.536760330200195 C12.196488380432129 12.580535888671875 12.383040428161621 12.624312400817871 12.569592475891113 12.66808795928955 L13.358206748962402 12.365257263183594 C13.527335166931152 12.421920776367188 13.696463584899902 12.478584289550781 13.865592002868652 12.535247802734375 L13.865592002868652 12.535247802734375"></path>
<path fill="none" stroke="black" stroke-width=".3" stroke-opacity="1.0"  filling="0" d="M8.844240188598633 17.593318939208984 L8.844240188598633 17.593318939208984 C8.409414291381836 17.606037139892578 7.946346759796143 17.78614616394043 7.539762496948242 17.631471633911133 C6.1438188552856445 17.100418090820312 6.085827350616455 15.093796730041504 7.448232173919678 14.482487678527832 C8.81021785736084 13.871367454528809 10.270357131958008 15.248806953430176 9.739587783813477 16.644081115722656 C9.584939002990723 17.05061912536621 9.14268970489502 17.276906967163086 8.844240188598633 17.593318939208984 L8.844240188598633 17.593318939208984"></path></svg>