<svg xmlns="http://www.w3.org/2000/svg" viewBox="0.0 0.0 24.0 24.0" height="200px" width="200px"><path fill="none" stroke="black" stroke-width=".3" stroke-opacity="1.0"  filling="0" d="M12.0 1.2000007629394531 L12.0 1.2000007629394531 C13.941486358642578 1.3740215301513672 15.760781288146973 1.835153341293335 17.350740432739258 2.6908459663391113 C18.94070053100586 3.546538829803467 20.301326751708984 4.796792030334473 21.325471878051758 6.549056529998779 C22.359159469604492 8.317646980285645 22.804763793945312 10.217625617980957 22.76382064819336 12.072762489318848 C22.722877502441406 13.927899360656738 22.195384979248047 15.73819351196289 21.282882690429688 17.32741355895996 C20.370378494262695 18.91663360595703 19.07286262512207 20.284780502319336 17.491870880126953 21.2556209564209 C15.91087818145752 22.226463317871094 14.046409606933594 22.799999237060547 12.0 22.799999237060547 C9.953590393066406 22.799999237060547 8.08912181854248 22.226463317871094 6.508129119873047 21.2556209564209 C4.9271368980407715 20.284780502319336 3.6296215057373047 18.91663360595703 2.71711802482605 17.32741355895996 C1.804614782333374 15.73819351196289 1.2771235704421997 13.927899360656738 1.2361801862716675 12.072762489318848 C1.1952366828918457 10.217625617980957 1.640841007232666 8.317646980285645 2.6745285987854004 6.549056529998779 C3.698674201965332 4.796792030334473 5.059298992156982 3.5465383529663086 6.649258613586426 2.6908457279205322 C8.239218711853027 1.8351531028747559 10.058513641357422 1.3740215301513672 12.0 1.2000007629394531 L12.0 1.2000007629394531"></path>
<path fill="none" stroke="black" stroke-width=".3" stroke-opacity="1.0"  filling="0" d="M14.40343189239502 6.031920433044434 L14.40343189239502 6.031920433044434 C13.12063217163086 6.669451713562012 11.555521011352539 5.848221778869629 12.923616409301758 4.326815605163574 C14.549607276916504 2.518613815307617 14.735259056091309 5.1013994216918945 14.40343189239502 6.031920433044434 L14.40343189239502 6.031920433044434"></path>
<path fill="none" stroke="black" stroke-width=".3" stroke-opacity="1.0"  filling="0" d="M11.472311973571777 20.46784782409668 L11.472311973571777 20.46784782409668 C9.793124198913574 20.98761558532715 9.660611152648926 19.910932540893555 9.964335441589355 18.409286499023438 C10.413825035095215 16.18695831298828 11.152339935302734 14.033346176147461 11.580679893493652 11.80517578125 C11.602136611938477 11.693559646606445 12.017485618591309 10.409555435180664 11.369063377380371 10.285177230834961 C10.646398544311523 10.146557807922363 10.054462432861328 10.951581954956055 9.43240737915039 11.344655990600586 L9.188759803771973 10.857575416564941 C9.781122207641602 10.440317153930664 10.357495307922363 9.999380111694336 10.965847969055176 9.605799674987793 C11.390604019165039 9.330999374389648 11.824957847595215 9.065927505493164 12.284631729125977 8.854663848876953 C15.275728225708008 7.479969501495361 12.758828163146973 13.772438049316406 12.567007064819336 14.545873641967773 C12.410948753356934 15.175110816955566 12.259833335876465 15.80568790435791 12.121175765991211 16.438987731933594 C11.565709114074707 18.97601318359375 11.809951782226562 19.4650936126709 14.103840827941895 17.95814323425293 L14.347271919250488 18.43312644958496 C13.41291332244873 19.144014358520508 12.460243225097656 19.833513259887695 11.472311973571777 20.46784782409668 L11.472311973571777 20.46784782409668"></path></svg>