<svg xmlns="http://www.w3.org/2000/svg" viewBox="0.0 0.0 24.0 24.0" height="200px" width="200px"><path fill="none" stroke="black" stroke-width=".3" stroke-opacity="1.0"  filling="0" d="M34.86899948120117 1.2000007629394531 L36.947998046875 1.2000007629394531 C39.05924987792969 1.890455722808838 40.937828063964844 2.9980952739715576 42.590702056884766 4.39997673034668 C44.24357604980469 5.801858425140381 45.67074966430664 7.497982025146484 46.87919998168945 9.365405082702637 C48.087646484375 11.232828140258789 49.07737350463867 13.271552085876465 49.8553466796875 15.35863208770752 C50.633323669433594 17.44571304321289 51.19955062866211 19.58115005493164 51.561004638671875 21.642000198364258 C51.865577697753906 23.378530502319336 52.164791107177734 25.168331146240234 52.404884338378906 26.97867774963379 C52.64497375488281 28.789024353027344 52.82594680786133 30.619915008544922 52.89403533935547 32.43862533569336 C52.962120056152344 34.25733947753906 52.917320251464844 36.063873291015625 52.705875396728516 37.82550048828125 C52.535423278808594 39.24559783935547 52.1724967956543 40.63534164428711 51.75605010986328 42.013004302978516 C51.33960723876953 43.390663146972656 50.86964416503906 44.75624084472656 50.48512649536133 46.12800216674805 C49.98713684082031 47.904563903808594 49.458763122558594 49.703758239746094 48.87501525878906 51.49276351928711 C48.29126739501953 53.281768798828125 47.652137756347656 55.060585021972656 46.93263244628906 56.7963981628418 C46.213130950927734 58.53221130371094 45.41325378417969 60.22501754760742 44.507999420166016 61.842002868652344 C43.621551513671875 63.4254035949707 42.34649658203125 64.63864135742188 41.26799774169922 66.08100128173828 C40.10425567626953 67.63735961914062 38.77022171020508 69.24156951904297 37.29413986206055 70.76506042480469 C35.818058013916016 72.2885513305664 34.19993591308594 73.73130798339844 32.468017578125 74.96475982666016 C30.736099243164062 76.19821166992188 28.89038848876953 77.22234344482422 26.959135055541992 77.90857696533203 C25.027881622314453 78.59481048583984 23.011085510253906 78.94314575195312 20.937000274658203 78.82499694824219 L20.937000274658203 78.82499694824219 C21.829814910888672 76.65614318847656 23.07906723022461 75.06173706054688 24.54391098022461 73.6427001953125 C26.008756637573242 72.22366333007812 27.689193725585938 70.97999572753906 29.44437599182129 69.51258850097656 C30.2567138671875 68.83344268798828 32.335453033447266 67.73108673095703 32.81700134277344 66.75599670410156 C33.14766311645508 66.08643341064453 32.651100158691406 65.32835388183594 31.953001022338867 65.27099609375 C30.7001953125 65.16806030273438 29.225332260131836 66.80823516845703 28.429176330566406 67.47377014160156 C27.315216064453125 68.40496826171875 26.10188865661621 69.29580688476562 24.912708282470703 70.2114028930664 C23.723527908325195 71.12700653076172 22.558494567871094 72.06737518310547 21.54112434387207 73.09762573242188 C20.32655906677246 74.32756805419922 19.711254119873047 76.02804565429688 18.91200065612793 77.52899932861328 L18.91200065612793 77.52899932861328 C16.522050857543945 77.23793029785156 13.833227157592773 77.07637023925781 11.557059288024902 76.27465057373047 C9.280890464782715 75.47293853759766 7.417377471923828 74.03106689453125 6.678046703338623 71.17935943603516 C6.255699634552002 69.55030822753906 6.233186721801758 67.93805694580078 6.249000072479248 66.27000427246094 L6.249000072479248 66.27000427246094 C7.940920352935791 65.43818664550781 9.660696983337402 64.66131591796875 11.40268611907959 63.9362678527832 C13.144675254821777 63.211219787597656 14.908876419067383 62.538002014160156 16.68964385986328 61.91349411010742 C18.47041130065918 61.28899002075195 20.267745971679688 60.71319580078125 22.076000213623047 60.18300247192383 C23.354402542114258 59.80816650390625 24.637901306152344 59.45199966430664 25.92251968383789 59.09922409057617 C26.21536636352539 59.018802642822266 28.35177993774414 58.67491149902344 28.71299934387207 57.96412658691406 C29.130165100097656 57.143253326416016 28.56216812133789 56.59931945800781 27.849000930786133 56.44200134277344 C26.49086570739746 56.14241027832031 24.356273651123047 57.21024703979492 23.090938568115234 57.5803337097168 C21.106521606445312 58.16073989868164 19.1595516204834 58.794410705566406 17.234275817871094 59.47045135498047 C15.309000968933105 60.14649200439453 13.40542221069336 60.864906311035156 11.507792472839355 61.61479568481445 C9.610162734985352 62.36468505859375 7.718481063842773 63.14604949951172 5.816999912261963 63.947998046875 L5.816999912261963 63.947998046875 C4.664271354675293 62.571617126464844 3.7504897117614746 61.26720428466797 3.0046563148498535 59.87571334838867 C2.2588226795196533 58.48422622680664 1.6809371709823608 57.00566864013672 1.2000007629394531 55.281002044677734 L1.2000007629394531 49.152000427246094 C1.6299177408218384 47.880889892578125 2.120824098587036 46.67414093017578 2.6705479621887207 45.494171142578125 C3.2202718257904053 44.31420135498047 3.828813076019287 43.16100311279297 4.49399995803833 41.99700164794922 L4.49399995803833 41.99700164794922 C6.634676456451416 42.17964172363281 8.782779693603516 42.38821792602539 10.931923866271973 42.618770599365234 C13.08106803894043 42.84932327270508 15.231254577636719 43.10185241699219 17.376094818115234 43.37239456176758 C19.520936965942383 43.64293670654297 21.66043472290039 43.931495666503906 23.78820037841797 44.23411178588867 C25.31256103515625 44.45090866088867 29.51311683654785 45.91960144042969 30.522001266479492 44.07600021362305 C30.6977481842041 43.754844665527344 30.348054885864258 43.315372467041016 30.0731258392334 43.07362365722656 C29.07074546813965 42.19221878051758 26.347061157226562 42.38441467285156 25.119407653808594 42.21559143066406 C22.86651611328125 41.90578079223633 20.609142303466797 41.63645935058594 18.350826263427734 41.376312255859375 C16.092512130737305 41.11616516113281 13.833256721496582 40.86519241333008 11.576604843139648 40.592079162597656 C9.319952011108398 40.318965911865234 7.065903186798096 40.023712158203125 4.817999839782715 39.67499923706055 L4.817999839782715 39.67499923706055 C4.297616481781006 37.511112213134766 4.090411186218262 35.393367767333984 4.183103561401367 33.351173400878906 C4.275795936584473 31.308977127075195 4.6683855056762695 29.342329025268555 5.347592830657959 27.480627059936523 C6.026800155639648 25.618927001953125 6.992624282836914 23.862173080444336 8.231785774230957 22.23976707458496 C9.470947265625 20.61736297607422 10.98344612121582 19.12930679321289 12.756000518798828 17.80500030517578 L12.756000518798828 17.80500030517578 C14.378436088562012 19.313934326171875 15.991422653198242 20.849756240844727 17.641693115234375 22.340553283691406 C19.291961669921875 23.83135223388672 20.97951316833496 25.277124404907227 22.751075744628906 26.605958938598633 C24.522640228271484 27.934791564941406 26.378215789794922 29.14668846130371 28.364532470703125 30.16973304748535 C29.706863403320312 30.861095428466797 31.824504852294922 32.52690124511719 33.356998443603516 32.573997497558594 C33.76643753051758 32.58658218383789 34.26190185546875 32.313846588134766 34.40325164794922 31.92937469482422 C35.00679016113281 30.287755966186523 30.571014404296875 28.81835174560547 29.61911964416504 28.33910369873047 C27.694562911987305 27.37015151977539 25.862051010131836 26.19989585876465 24.104496002197266 24.903470993041992 C22.346942901611328 23.60704803466797 20.664348602294922 22.18445587158203 19.039627075195312 20.710832595825195 C17.414907455444336 19.23720932006836 15.848058700561523 17.71255111694336 14.321999549865723 16.211999893188477 L14.321999549865723 16.211999893188477 C14.744318008422852 14.552891731262207 15.282859802246094 12.801046371459961 16.015769958496094 11.142329216003418 C16.748680114746094 9.483613014221191 17.67595863342285 7.918026447296143 18.875747680664062 6.631437301635742 C20.075538635253906 5.3448486328125 21.547840118408203 4.337257385253906 23.370798110961914 3.7945313453674316 C25.232940673828125 3.240139961242676 27.290117263793945 3.429236650466919 29.198999404907227 3.4679994583129883 L29.198999404907227 3.4679994583129883 C29.82703971862793 5.294375896453857 30.33328628540039 7.177452087402344 30.85802459716797 9.052895545959473 C31.38276481628418 10.928339004516602 31.925994873046875 12.796151161193848 32.62800216674805 14.591999053955078 C33.31353759765625 16.34571075439453 34.418155670166016 18.03643226623535 35.61192321777344 19.678878784179688 C36.805694580078125 21.321327209472656 38.0886116027832 22.91550064086914 39.13075256347656 24.476123809814453 C39.893436431884766 25.618255615234375 40.876136779785156 27.062217712402344 42.05484390258789 28.180150985717773 C43.23355484008789 29.298084259033203 44.6082763671875 30.089988708496094 46.154998779296875 29.928001403808594 L46.154998779296875 29.928001403808594 C46.08300018310547 29.37900161743164 46.209075927734375 28.76436996459961 45.93899917602539 28.281002044677734 C45.20873260498047 26.974010467529297 43.05445098876953 26.08662223815918 42.07799530029297 24.85199737548828 C40.865013122558594 23.318309783935547 39.6815071105957 21.727462768554688 38.58185958862305 20.08026123046875 C37.482208251953125 18.433059692382812 36.46641540527344 16.729501724243164 35.5888557434082 14.970396041870117 C34.71129608154297 13.211289405822754 33.97196960449219 11.39663314819336 33.425254821777344 9.52723217010498 C32.92828369140625 7.827914237976074 32.12887954711914 5.974996566772461 31.87200164794922 4.223999977111816 C31.815690994262695 3.84016752243042 31.726564407348633 3.3779988288879395 31.953001022338867 3.062999725341797 C32.06588363647461 2.9059691429138184 34.721954345703125 1.2906455993652344 34.86899948120117 1.2000007629394531 L34.86899948120117 1.2000007629394531"></path>
<path fill="none" stroke="black" stroke-width=".3" stroke-opacity="1.0"  filling="0" d="M54.90299606323242 38.189998626708984 L54.90299606323242 38.189998626708984 C56.618019104003906 39.888206481933594 58.37434005737305 41.512516021728516 60.32347106933594 42.943260192871094 C61.69158172607422 43.947509765625 63.3194580078125 44.736568450927734 64.83768463134766 45.64512634277344 C66.35591125488281 46.55368423461914 67.76449584960938 47.58174514770508 68.69400024414062 49.06399917602539 C69.48785400390625 50.32992935180664 69.93522644042969 51.74085998535156 69.18600463867188 53.18199920654297 C68.77669525146484 53.96930694580078 67.62031555175781 54.82120132446289 66.97200012207031 55.362003326416016 L66.97200012207031 55.362003326416016 C65.645263671875 55.58815002441406 64.35763549804688 55.679779052734375 63.066959381103516 55.73882293701172 C61.77629089355469 55.79786682128906 60.482582092285156 55.82432556152344 59.1436882019043 55.92013931274414 C57.471153259277344 56.03982925415039 55.8123664855957 56.25175094604492 54.155517578125 56.48077392578125 C52.49867248535156 56.70979309082031 50.84376525878906 56.95591354370117 49.17900085449219 57.14399719238281 L49.17900085449219 57.14399719238281 C49.89675521850586 55.0983772277832 50.66343688964844 53.02626037597656 51.402870178222656 50.93401336669922 C52.142303466796875 48.841766357421875 52.85448455810547 46.72939682006836 53.46323013305664 44.603271484375 C54.07197952270508 42.477142333984375 54.577293395996094 40.33726501464844 54.90299606323242 38.189998626708984 L54.90299606323242 38.189998626708984"></path>
<path fill="none" stroke="black" stroke-width=".3" stroke-opacity="1.0"  filling="0" d="M71.4540023803711 49.340999603271484 L71.4540023803711 49.340999603271484 C72.97154998779297 49.822669982910156 74.72608184814453 50.337459564208984 75.26100158691406 52.095001220703125 C75.63836669921875 53.334877014160156 74.84142303466797 54.74785614013672 75.2340087890625 55.98299789428711 C75.40567779541016 56.52308654785156 76.00800323486328 56.81100082397461 76.39500427246094 57.22500228881836 L76.39500427246094 57.22500228881836 C76.39500427246094 57.855003356933594 76.39500427246094 58.48500442504883 76.39500427246094 59.11500549316406 L76.39500427246094 59.11500549316406 C75.17046356201172 60.410057067871094 75.36058807373047 61.04945755004883 75.01800537109375 62.70600128173828 C74.59678649902344 64.7427749633789 74.17178344726562 66.82383728027344 74.08821105957031 68.88067626953125 C74.004638671875 70.93751525878906 74.26249694824219 72.97013092041016 75.20700073242188 74.91000366210938 L75.20700073242188 74.91000366210938 C73.3839111328125 73.4322280883789 71.38702392578125 72.41675567626953 69.45600128173828 71.10299682617188 L69.45600128173828 71.10299682617188 C69.69071197509766 70.1865005493164 70.39645385742188 69.44335174560547 70.67100524902344 68.53799438476562 C71.18721008300781 66.83575439453125 70.06952667236328 64.9902572631836 69.88800048828125 63.326995849609375 C69.76008605957031 62.15492248535156 70.2871322631836 60.90877151489258 69.91500854492188 59.79000473022461 C69.72913360595703 59.231170654296875 68.96537780761719 58.98051834106445 68.80799865722656 58.41299819946289 C68.20928192138672 56.25399398803711 70.70862579345703 55.34922790527344 71.4540023803711 53.634002685546875 C72.04508209228516 52.27384567260742 71.68389892578125 50.723270416259766 71.4540023803711 49.340999603271484 L71.4540023803711 49.340999603271484"></path>
<path fill="none" stroke="black" stroke-width=".3" stroke-opacity="1.0"  filling="0" d="M51.582000732421875 69.21299743652344 L51.582000732421875 69.21299743652344 C53.307186126708984 69.0987777709961 55.143333435058594 69.01348876953125 57.00388717651367 69.03172302246094 C58.86444091796875 69.04995727539062 60.74940490722656 69.17172241210938 62.57221603393555 69.47161102294922 C64.39502716064453 69.77149963378906 66.15569305419922 70.24951171875 67.76765441894531 70.98023986816406 C68.8709716796875 71.48039245605469 70.58035278320312 72.24047088623047 72.13638305664062 73.17231750488281 C73.69241333007812 74.10416412353516 75.0950927734375 75.20777893066406 75.58499908447266 76.39500427246094 C76.17244720458984 77.818603515625 75.02265167236328 79.41937255859375 73.99200439453125 80.2020034790039 C72.7007827758789 81.18250274658203 71.26136779785156 81.79254150390625 69.75142669677734 82.18758392333984 C68.24148559570312 82.58262634277344 66.66102600097656 82.76266479492188 65.08769989013672 82.88317108154297 C63.18401336669922 83.02897644042969 61.24837875366211 83.0396499633789 59.312095642089844 82.92742156982422 C57.37581253051758 82.81519317626953 55.438880920410156 82.58006286621094 53.532596588134766 82.2342529296875 C51.62631607055664 81.88844299316406 49.75068664550781 81.43195343017578 47.93700408935547 80.87700653076172 C46.0782585144043 80.30827331542969 43.94083023071289 79.7364273071289 42.32099914550781 78.6090087890625 C41.819942474365234 78.26026916503906 41.344173431396484 77.86146545410156 40.947998046875 77.39700317382812 C39.23827362060547 75.39259338378906 39.46839141845703 73.35691833496094 41.61899948120117 71.88600158691406 C43.04637908935547 70.90974426269531 44.703765869140625 70.33003234863281 46.42098617553711 69.95011901855469 C48.13821029663086 69.57020568847656 49.91526794433594 69.39008331298828 51.582000732421875 69.21299743652344 L51.582000732421875 69.21299743652344"></path>
<path fill="none" stroke="black" stroke-width=".3" stroke-opacity="1.0"  filling="0" d="M55.01100158691406 72.75 L55.01100158691406 72.75 C56.307090759277344 72.66995239257812 57.86803436279297 72.60316467285156 59.394107818603516 72.74127960205078 C60.92018127441406 72.87940216064453 62.4113883972168 73.22242736816406 63.56800079345703 73.96199798583984 C65.49845886230469 75.19639587402344 65.04466247558594 76.23851013183594 63.86289596557617 76.98458862304688 C62.68113327026367 77.73067474365234 60.77140808105469 78.18072509765625 59.79000473022461 78.23099517822266 C58.58592987060547 78.29266357421875 56.9364013671875 78.24716186523438 55.34278106689453 77.98624420166016 C53.7491569519043 77.72532653808594 52.21144485473633 77.24899291992188 51.23100280761719 76.44900512695312 C48.163360595703125 73.94597625732422 53.49937438964844 72.91178131103516 55.01100158691406 72.75 L55.01100158691406 72.75"></path>
<path fill="none" stroke="black" stroke-width=".3" stroke-opacity="1.0"  filling="0" d="M57.11700439453125 75.18000793457031 L57.11700439453125 75.18000793457031 C57.54900360107422 75.18900299072266 57.98099899291992 75.19800567626953 58.41299819946289 75.20700073242188 L58.41299819946289 75.20700073242188 C58.349998474121094 75.40499877929688 58.2869987487793 75.60299682617188 58.2239990234375 75.80099487304688 L58.2239990234375 75.80099487304688 C57.88199996948242 75.83699798583984 57.53999710083008 75.87300872802734 57.197998046875 75.90901184082031 L57.197998046875 75.90901184082031 C57.17100143432617 75.66600799560547 57.14400100708008 75.42301177978516 57.11700439453125 75.18000793457031 L57.11700439453125 75.18000793457031"></path>
<path fill="none" stroke="black" stroke-width=".3" stroke-opacity="1.0"  filling="0" d="M35.24700164794922 78.39300537109375 L35.24700164794922 78.39300537109375 C36.57732391357422 77.60042572021484 37.908668518066406 76.86511993408203 39.297000885009766 76.17900085449219 L39.297000885009766 76.17900085449219 C40.38885498046875 77.66693115234375 41.60000991821289 78.70841217041016 42.97053146362305 79.5136489868164 C44.3410530090332 80.31887817382812 45.870941162109375 80.88787078857422 47.60026168823242 81.43082427978516 C49.52123260498047 82.03395080566406 51.52302932739258 82.51091003417969 53.561676025390625 82.85997772216797 C55.60032272338867 83.20904541015625 57.675819396972656 83.43022155761719 59.744197845458984 83.52180480957031 C61.81257629394531 83.61337280273438 63.87383270263672 83.57534790039062 65.88400268554688 83.40599822998047 C67.39479064941406 83.27871704101562 69.40790557861328 83.0582275390625 71.25614166259766 82.48817443847656 C73.10437774658203 81.91812896728516 74.78773498535156 80.99851989746094 75.63900756835938 79.4729995727539 C76.14789581298828 78.56104278564453 76.29046630859375 77.09422302246094 76.44900512695312 76.0979995727539 L76.44900512695312 76.0979995727539 C77.88416290283203 76.45988464355469 79.2975082397461 76.80428314208984 80.68799591064453 77.31299591064453 L80.68799591064453 77.31299591064453 C78.76008605957031 78.75717163085938 76.82125854492188 80.18627166748047 74.8781967163086 81.60962677001953 C72.93513488769531 83.0329818725586 70.98784637451172 84.45059204101562 69.04301452636719 85.87178039550781 C68.00176239013672 86.63268280029297 66.20474243164062 88.54136657714844 64.91999816894531 88.81500244140625 C64.47073364257812 88.91069030761719 62.58890151977539 88.26049041748047 62.19300079345703 88.14000701904297 C60.40220642089844 87.59500885009766 58.60600662231445 87.06696319580078 56.81293487548828 86.52947998046875 C54.85146713256836 85.94152069091797 52.89027786254883 85.35246276855469 50.92917251586914 84.76310729980469 C48.96806716918945 84.17375183105469 47.007041931152344 83.58411407470703 45.0458984375 82.99498748779297 C43.084754943847656 82.40586853027344 41.12349319458008 81.8172607421875 39.16191101074219 81.22999572753906 C37.20032501220703 80.6427230834961 35.238426208496094 80.05679321289062 33.2760009765625 79.4729995727539 L33.2760009765625 79.4729995727539 C33.908226013183594 79.07108306884766 34.568233489990234 78.71005249023438 35.24700164794922 78.39300537109375 L35.24700164794922 78.39300537109375"></path>
<path fill="none" stroke="black" stroke-width=".3" stroke-opacity="1.0"  filling="0" d="M78.63600158691406 81.60599517822266 L78.63600158691406 81.60599517822266 C79.01399993896484 81.35399627685547 79.39200592041016 81.10199737548828 79.77000427246094 80.8499984741211 L79.77000427246094 80.8499984741211 C79.85871887207031 82.86044311523438 79.7257080078125 84.46885681152344 79.41899871826172 86.43900299072266 C79.39028930664062 86.62342834472656 79.3145751953125 88.70711517333984 79.2300033569336 88.89600372314453 C78.58555603027344 90.33541107177734 75.9964599609375 91.8117904663086 74.85136413574219 92.7975082397461 C73.5084228515625 93.95353698730469 72.15861511230469 95.10208129882812 70.8108901977539 96.25303649902344 C69.46317291259766 97.40399169921875 68.11754608154297 98.55735778808594 66.78298950195312 99.7229995727539 C66.4925308227539 99.97669982910156 64.4619369506836 101.83878326416016 64.08299255371094 101.99099731445312 C63.69703674316406 102.14603424072266 62.377010345458984 101.63543701171875 62.0579948425293 101.53199768066406 C60.243202209472656 100.94355010986328 58.4255256652832 100.36390686035156 56.61048889160156 99.77618408203125 C54.64543914794922 99.139892578125 52.68088912963867 98.50212097167969 50.71609115600586 97.86517333984375 C48.75129318237305 97.22823333740234 46.78624725341797 96.59210968017578 44.82020568847656 95.95912170410156 C42.854164123535156 95.32612609863281 40.887123107910156 94.69625091552734 38.918338775634766 94.0718002319336 C36.949554443359375 93.44734954833984 34.979026794433594 92.82831573486328 33.006004333496094 92.21700286865234 L33.006004333496094 92.21700286865234 C32.91183853149414 90.47235870361328 32.8388671875 88.51819610595703 32.871002197265625 86.79000091552734 C32.909637451171875 84.71217346191406 33.84828567504883 83.65079498291016 32.871002197265625 81.65999603271484 L32.871002197265625 81.65999603271484 C34.67399978637695 82.21075439453125 36.47777557373047 82.75892639160156 38.282127380371094 83.30518341064453 C40.08647918701172 83.8514404296875 41.89140701293945 84.3957748413086 43.69670867919922 84.93888092041016 C45.502010345458984 85.48197937011719 47.30768585205078 86.02384185791016 49.11353302001953 86.56513977050781 C50.91938018798828 87.10643005371094 52.72539520263672 87.64717102050781 54.53138732910156 88.1880111694336 C55.7332878112793 88.54794311523438 56.93515396118164 88.90800476074219 58.136898040771484 89.26847076416016 C59.33864212036133 89.62893676757812 60.540260314941406 89.98980712890625 61.74167251586914 90.35136413574219 C62.39208984375 90.54710388183594 64.42485809326172 91.23445892333984 65.19000244140625 91.19099426269531 C66.09691619873047 91.13947296142578 67.8245849609375 89.5180892944336 68.40415954589844 89.09291076660156 C70.10794067382812 87.84300994873047 71.81446838378906 86.59686279296875 73.52076721191406 85.35039520263672 C75.22706604003906 84.10392761230469 76.93313598632812 82.85714721679688 78.63600158691406 81.60599517822266 L78.63600158691406 81.60599517822266"></path>
<path fill="none" stroke="black" stroke-width=".3" stroke-opacity="1.0"  filling="0" d="M65.32499694824219 103.90799713134766 L65.32499694824219 103.90799713134766 C67.04218292236328 102.44580841064453 68.75133514404297 100.97428894042969 70.45909118652344 99.50116729736328 C72.16685485839844 98.02804565429688 73.87321472167969 96.55332946777344 75.58482360839844 95.08473205566406 C77.29643249511719 93.61612701416016 79.01327514648438 92.15364074707031 80.74200439453125 90.70500183105469 L80.74200439453125 90.70500183105469 C81.07264709472656 91.03776550292969 82.6050033569336 92.43148803710938 82.6050033569336 93.0270004272461 C82.60499572753906 94.67760467529297 80.32170867919922 96.22747802734375 79.30322265625 97.23748779296875 C78.05708312988281 98.4732666015625 76.78208923339844 99.68170166015625 75.49987030029297 100.8829345703125 C74.2176513671875 102.08416748046875 72.92819213867188 103.2781982421875 71.65312194824219 104.4851303100586 C70.7609634399414 105.32962036132812 69.87936401367188 106.25315856933594 68.9380874633789 107.0931625366211 C67.99681091308594 107.93317413330078 66.99586486816406 108.68965148925781 65.86500549316406 109.20000457763672 L62.409000396728516 109.20000457763672 C60.30607223510742 108.41813659667969 58.194793701171875 107.65461730957031 56.07856369018555 106.90213012695312 C53.96232986450195 106.14964294433594 51.84114456176758 105.40818786621094 49.7183952331543 104.6704330444336 C47.59564971923828 103.93268585205078 45.47134017944336 103.19864654541016 43.3488655090332 102.46099853515625 C41.22639083862305 101.72335052490234 39.105751037597656 100.98208618164062 36.99033737182617 100.22990417480469 C35.1650390625 99.58087921142578 33.270973205566406 99.05545043945312 31.516000747680664 98.2249984741211 C30.475168228149414 97.73247528076172 29.126802444458008 97.36685180664062 29.231000900268555 95.84099578857422 C29.322917938232422 94.49501037597656 30.380746841430664 93.91700744628906 31.57499885559082 93.99900817871094 C33.26431655883789 94.11500549316406 35.461448669433594 95.26082611083984 37.0782356262207 95.7856216430664 C39.319862365722656 96.51322937011719 41.561553955078125 97.24065399169922 43.80339050292969 97.9676284790039 C46.045223236083984 98.69461059570312 48.287200927734375 99.421142578125 50.52940368652344 100.14698028564453 C52.7716064453125 100.87281799316406 55.01403045654297 101.59796142578125 57.25676345825195 102.3221664428711 C58.501922607421875 102.7242431640625 59.8847541809082 103.36543273925781 61.27341079711914 103.78373718261719 C62.662071228027344 104.20204162597656 64.05654907226562 104.3974609375 65.32499694824219 103.90799713134766 L65.32499694824219 103.90799713134766"></path></svg>