<svg xmlns="http://www.w3.org/2000/svg" viewBox="0.0 0.0 24.0 24.0" height="200px" width="200px"><path fill="none" stroke="black" stroke-width=".3" stroke-opacity="1.0"  filling="0" d="M12.752327919006348 3.630000114440918 L12.752327919006348 3.630000114440918 C13.645576477050781 2.0646519660949707 13.645576477050781 5.195348739624023 12.752327919006348 3.630000114440918 L12.752327919006348 3.630000114440918"></path>
<path fill="none" stroke="black" stroke-width=".3" stroke-opacity="1.0"  filling="0" d="M11.381808280944824 3.6299970149993896 L11.381808280944824 3.6299970149993896 C12.148574829101562 1.750560998916626 12.148574829101562 5.509439468383789 11.381808280944824 3.6300032138824463 L11.381808280944824 3.6300032138824463"></path>
<path fill="none" stroke="black" stroke-width=".3" stroke-opacity="1.0"  filling="0" d="M12.014471054077148 4.911530017852783 L12.014471054077148 4.911530017852783 C12.172505378723145 4.5246195793151855 12.85816764831543 4.233326435089111 12.85816764831543 4.911530017852783 C12.85816764831543 5.589731216430664 12.172503471374512 5.29843282699585 12.014471054077148 4.911526203155518 L12.014471054077148 4.911526203155518"></path>
<path fill="none" stroke="black" stroke-width=".3" stroke-opacity="1.0"  filling="0" d="M10.642871856689453 4.91152811050415 L10.642871856689453 4.91152811050415 C11.535660743713379 3.3469698429107666 11.535660743713379 6.476086139678955 10.642871856689453 4.91152811050415 L10.642871856689453 4.91152811050415"></path>
<path fill="none" stroke="black" stroke-width=".3" stroke-opacity="1.0"  filling="0" d="M13.38477611541748 4.91152811050415 L13.38477611541748 4.91152811050415 C14.279067993164062 3.3467400074005127 14.279067993164062 6.476316452026367 13.38477611541748 4.91152811050415 L13.38477611541748 4.91152811050415"></path>
<path fill="none" stroke="black" stroke-width=".3" stroke-opacity="1.0"  filling="0" d="M12.752327919006348 6.193272590637207 L12.752327919006348 6.193272590637207 C13.645576477050781 4.62792444229126 13.645576477050781 7.758620738983154 12.752327919006348 6.193272590637207 L12.752327919006348 6.193272590637207"></path>
<path fill="none" stroke="black" stroke-width=".3" stroke-opacity="1.0"  filling="0" d="M11.381808280944824 6.1932692527771 L11.381808280944824 6.1932692527771 C12.148575782775879 4.313832759857178 12.148574829101562 8.072712898254395 11.381808280944824 6.193275451660156 L11.381808280944824 6.193275451660156"></path>
<path fill="none" stroke="black" stroke-width=".3" stroke-opacity="1.0"  filling="0" d="M12.014471054077148 7.582154273986816 L12.014471054077148 7.582154273986816 C12.172505378723145 7.195244312286377 12.85816764831543 6.903950214385986 12.85816764831543 7.582154273986816 C12.85816764831543 8.260354995727539 12.172503471374512 7.969057083129883 12.014471054077148 7.582150459289551 L12.014471054077148 7.582150459289551"></path>
<path fill="none" stroke="black" stroke-width=".3" stroke-opacity="1.0"  filling="0" d="M10.642871856689453 7.582152366638184 L10.642871856689453 7.582152366638184 C11.535660743713379 6.017594337463379 11.535660743713379 9.146710395812988 10.642871856689453 7.582152366638184 L10.642871856689453 7.582152366638184"></path>
<path fill="none" stroke="black" stroke-width=".3" stroke-opacity="1.0"  filling="0" d="M13.385640144348145 7.582152366638184 L13.385640144348145 7.582152366638184 C14.278931617736816 6.017519950866699 14.278931617736816 9.146784782409668 13.385640144348145 7.582152366638184 L13.385640144348145 7.582152366638184"></path>
<path fill="none" stroke="black" stroke-width=".3" stroke-opacity="1.0"  filling="0" d="M10.109136581420898 9.610607147216797 L10.109136581420898 9.610607147216797 C10.473527908325195 9.241751670837402 10.837920188903809 8.872895240783691 11.202311515808105 8.504039764404297 L13.654775619506836 8.504039764404297 C14.019311904907227 8.872895240783691 14.3838472366333 9.241751670837402 14.748383522033691 9.610607147216797 L14.748383522033691 14.405808448791504 C14.3838472366333 14.774880409240723 14.019311904907227 15.143952369689941 13.654775619506836 15.51302433013916 L11.202311515808105 15.51302433013916 C10.837920188903809 15.143952369689941 10.473527908325195 14.774880409240723 10.109136581420898 14.405808448791504 L10.109136581420898 9.610607147216797"></path>
<path fill="none" stroke="black" stroke-width=".3" stroke-opacity="1.0"  filling="0" d="M11.590248107910156 9.674976348876953 L11.590248107910156 9.674976348876953 C10.703941345214844 10.571979522705078 10.702677726745605 8.777220726013184 11.590248107910156 9.674976348876953 L11.590248107910156 9.674976348876953"></path>
<path fill="none" stroke="black" stroke-width=".3" stroke-opacity="1.0"  filling="0" d="M12.81216049194336 9.674976348876953 L12.81216049194336 9.674976348876953 C11.925421714782715 10.572416305541992 11.925700187683105 8.776799201965332 12.81216049194336 9.674976348876953 L12.81216049194336 9.674976348876953"></path>
<path fill="none" stroke="black" stroke-width=".3" stroke-opacity="1.0"  filling="0" d="M14.034502983093262 9.674976348876953 L14.034502983093262 9.674976348876953 C13.147602081298828 10.572585105895996 13.147880554199219 8.776630401611328 14.034502983093262 9.674976348876953 L14.034502983093262 9.674976348876953"></path>
<path fill="none" stroke="black" stroke-width=".3" stroke-opacity="1.0"  filling="0" d="M12.24839973449707 10.817183494567871 L12.24839973449707 10.817183494567871 C11.36106014251709 11.714707374572754 11.361058235168457 9.919662475585938 12.24839973449707 10.817183494567871 L12.24839973449707 10.817183494567871"></path>
<path fill="none" stroke="black" stroke-width=".3" stroke-opacity="1.0"  filling="0" d="M13.470527648925781 10.817183494567871 L13.470527648925781 10.817183494567871 C12.583820343017578 11.716131210327148 12.583818435668945 9.918238639831543 13.470527648925781 10.817183494567871 L13.470527648925781 10.817183494567871"></path>
<path fill="none" stroke="black" stroke-width=".3" stroke-opacity="1.0"  filling="0" d="M11.590248107910156 11.959391593933105 L11.590248107910156 11.959391593933105 C10.702437400817871 12.856881141662598 10.704117774963379 11.061551094055176 11.590248107910156 11.959391593933105 L11.590248107910156 11.959391593933105"></path>
<path fill="none" stroke="black" stroke-width=".3" stroke-opacity="1.0"  filling="0" d="M12.81216049194336 11.959391593933105 L12.81216049194336 11.959391593933105 C11.925460815429688 12.85730266571045 11.925599098205566 11.061114311218262 12.81216049194336 11.959391593933105 L12.81216049194336 11.959391593933105"></path>
<path fill="none" stroke="black" stroke-width=".3" stroke-opacity="1.0"  filling="0" d="M14.034502983093262 11.959391593933105 L14.034502983093262 11.959391593933105 C13.1476411819458 12.857471466064453 13.14777946472168 11.060945510864258 14.034502983093262 11.959391593933105 L14.034502983093262 11.959391593933105"></path>
<path fill="none" stroke="black" stroke-width=".3" stroke-opacity="1.0"  filling="0" d="M12.24839973449707 13.10159969329834 L12.24839973449707 13.10159969329834 C11.361260414123535 13.998919486999512 11.360980987548828 12.205016136169434 12.24839973449707 13.10159969329834 L12.24839973449707 13.10159969329834"></path>
<path fill="none" stroke="black" stroke-width=".3" stroke-opacity="1.0"  filling="0" d="M13.470527648925781 13.10159969329834 L13.470527648925781 13.10159969329834 C12.58401870727539 14.000343322753906 12.583741188049316 12.203594207763672 13.470527648925781 13.10159969329834 L13.470527648925781 13.10159969329834"></path>
<path fill="none" stroke="black" stroke-width=".3" stroke-opacity="1.0"  filling="0" d="M11.590248107910156 14.338848114013672 L11.590248107910156 14.338848114013672 C10.70311164855957 15.236672401428223 10.702974319458008 13.44139289855957 11.590248107910156 14.338848114013672 L11.590248107910156 14.338848114013672"></path>
<path fill="none" stroke="black" stroke-width=".3" stroke-opacity="1.0"  filling="0" d="M12.81216049194336 14.338848114013672 L12.81216049194336 14.338848114013672 C11.925539016723633 15.23769760131836 11.925399780273438 13.440366744995117 12.81216049194336 14.338848114013672 L12.81216049194336 14.338848114013672"></path>
<path fill="none" stroke="black" stroke-width=".3" stroke-opacity="1.0"  filling="0" d="M14.034502983093262 14.338848114013672 L14.034502983093262 14.338848114013672 C13.147719383239746 15.237866401672363 13.147579193115234 13.440196990966797 14.034502983093262 14.338848114013672 L14.034502983093262 14.338848114013672"></path>
<path fill="none" stroke="black" stroke-width=".3" stroke-opacity="1.0"  filling="0" d="M12.014471054077148 16.526931762695312 L12.014471054077148 16.526931762695312 C12.1725435256958 16.13953399658203 12.85816764831543 15.848222732543945 12.85816764831543 16.526931762695312 C12.85816764831543 17.20563507080078 12.172540664672852 16.91431427001953 12.014471054077148 16.52692413330078 L12.014471054077148 16.52692413330078"></path>
<path fill="none" stroke="black" stroke-width=".3" stroke-opacity="1.0"  filling="0" d="M10.642871856689453 16.526927947998047 L10.642871856689453 16.526927947998047 C11.535574913024902 14.960935592651367 11.535574913024902 18.092920303344727 10.642871856689453 16.526927947998047 L10.642871856689453 16.526927947998047"></path>
<path fill="none" stroke="black" stroke-width=".3" stroke-opacity="1.0"  filling="0" d="M13.385209083557129 16.526927947998047 L13.385209083557129 16.526927947998047 C14.278912544250488 14.960779190063477 14.278912544250488 18.093076705932617 13.385209083557129 16.526927947998047 L13.385209083557129 16.526927947998047"></path>
<path fill="none" stroke="black" stroke-width=".3" stroke-opacity="1.0"  filling="0" d="M12.752327919006348 17.915592193603516 L12.752327919006348 17.915592193603516 C13.64561939239502 16.350963592529297 13.645618438720703 19.4802188873291 12.752327919006348 17.915592193603516 L12.752327919006348 17.915592193603516"></path>
<path fill="none" stroke="black" stroke-width=".3" stroke-opacity="1.0"  filling="0" d="M11.381808280944824 17.915590286254883 L11.381808280944824 17.915590286254883 C12.148688316345215 16.036823272705078 12.148689270019531 19.794363021850586 11.381808280944824 17.91559410095215 L11.381808280944824 17.91559410095215"></path>
<path fill="none" stroke="black" stroke-width=".3" stroke-opacity="1.0"  filling="0" d="M12.014471054077148 19.197120666503906 L12.014471054077148 19.197120666503906 C12.172524452209473 18.809967041015625 12.85816764831543 18.518665313720703 12.85816764831543 19.197120666503906 C12.85816764831543 19.875574111938477 12.172521591186523 19.58426284790039 12.014471054077148 19.19711685180664 L12.014471054077148 19.19711685180664"></path>
<path fill="none" stroke="black" stroke-width=".3" stroke-opacity="1.0"  filling="0" d="M10.642871856689453 19.197118759155273 L10.642871856689453 19.197118759155273 C11.53561782836914 17.6318416595459 11.53561782836914 20.76239585876465 10.642871856689453 19.197118759155273 L10.642871856689453 19.197118759155273"></path>
<path fill="none" stroke="black" stroke-width=".3" stroke-opacity="1.0"  filling="0" d="M13.385640144348145 19.197118759155273 L13.385640144348145 19.197118759155273 C14.278887748718262 17.63176727294922 14.278886795043945 20.762468338012695 13.385640144348145 19.197118759155273 L13.385640144348145 19.197118759155273"></path>
<path fill="none" stroke="black" stroke-width=".3" stroke-opacity="1.0"  filling="0" d="M9.292871475219727 19.6008243560791 L9.292871475219727 14.539081573486328 L9.292871475219727 9.477336883544922 L9.292871475219727 4.415592670440674 C9.507872581481934 3.8908748626708984 9.539377212524414 3.244866371154785 9.937874794006348 2.8414387702941895 C10.332939147949219 2.4414873123168945 10.974513053894043 2.406090497970581 11.49283218383789 2.1884164810180664 L13.365119934082031 2.1884164810180664 C13.883538246154785 2.406153440475464 14.525209426879883 2.44161319732666 14.920374870300293 2.841627359390259 C15.318910598754883 3.245053291320801 15.350467681884766 3.8910813331604004 15.565513610839844 4.415808200836182 L15.565513610839844 9.4774808883667 L15.565513610839844 14.539153099060059 L15.565513610839844 19.6008243560791 C15.35044002532959 20.12546157836914 15.318798065185547 20.771379470825195 14.920293807983398 21.174734115600586 C14.525121688842773 21.574716567993164 13.883511543273926 21.610244750976562 13.365119934082031 21.827999114990234 L11.49283218383789 21.827999114990234 C10.974513053894043 21.610244750976562 10.332961082458496 21.57470703125 9.937874794006348 21.174734115600586 C9.539429664611816 20.771360397338867 9.507872581481934 20.12546157836914 9.292871475219727 19.6008243560791 L9.292871475219727 19.6008243560791"></path>
<path fill="none" stroke="black" stroke-width=".3" stroke-opacity="1.0"  filling="0" d="M12.752327919006348 20.479080200195312 L12.752327919006348 20.479080200195312 C13.645532608032227 18.913013458251953 13.645532608032227 22.045146942138672 12.752327919006348 20.479080200195312 L12.752327919006348 20.479080200195312"></path>
<path fill="none" stroke="black" stroke-width=".3" stroke-opacity="1.0"  filling="0" d="M11.381808280944824 20.47907829284668 L11.381808280944824 20.47907829284668 C12.148460388183594 18.59897232055664 12.148460388183594 22.359188079833984 11.381808280944824 20.479082107543945 L11.381808280944824 20.479082107543945"></path>
<path fill="none" stroke="black" stroke-width=".3" stroke-opacity="1.0"  filling="0" d="M13.364903450012207 21.485641479492188 L11.492616653442383 21.485641479492188 C10.67854118347168 21.14368438720703 9.966015815734863 20.41792106628418 9.631343841552734 19.6008243560791 L9.631343841552734 14.539153099060059 L9.631343841552734 9.4774808883667 L9.631343841552734 4.415808200836182 C9.966019630432129 3.598768472671509 10.67856502532959 2.8730874061584473 11.492616653442383 2.531208038330078 L13.364903450012207 2.531208038330078 C14.178955078125 2.8730874061584473 14.891499519348145 3.598768711090088 15.226175308227539 4.415808200836182 L15.226175308227539 9.47755241394043 L15.226175308227539 14.53929615020752 L15.226175308227539 19.60103988647461 C14.891472816467285 20.418067932128906 14.1788911819458 21.14361000061035 13.364903450012207 21.485641479492188 L13.364903450012207 21.485641479492188"></path></svg>