<svg xmlns="http://www.w3.org/2000/svg" viewBox="0.0 0.0 24.0 24.0" height="200px" width="200px"><path fill="none" stroke="black" stroke-width=".3" stroke-opacity="1.0"  filling="0" d="M14.272967338562012 4.576296329498291 L10.159031867980957 4.576512336730957 C10.145423889160156 4.5737762451171875 10.131815910339355 4.571040630340576 10.118207931518555 4.568304538726807 L10.118207931518555 2.2644481658935547 C10.122960090637207 2.2623603343963623 10.12771224975586 2.260272264480591 10.132464408874512 2.2581844329833984 L10.132464408874512 2.2581844329833984 C10.055830955505371 2.0577785968780518 10.524171829223633 2.0652990341186523 10.736804962158203 2.036623001098633 C11.553621292114258 1.9264658689498901 12.878460884094238 1.9265766143798828 13.695221900939941 2.036703586578369 C13.907905578613281 2.065380573272705 14.374675750732422 2.057080030441284 14.299751281738281 2.2581844329833984 L14.299751281738281 2.2581844329833984 C14.304431915283203 2.260272264480591 14.309112548828125 2.2623603343963623 14.313793182373047 2.2644481658935547 L14.313793182373047 4.568089008331299 C14.30018424987793 4.57082462310791 14.286576271057129 4.57356071472168 14.272967338562012 4.576296329498291 L14.272967338562012 4.576296329498291"></path>
<path fill="none" stroke="black" stroke-width=".3" stroke-opacity="1.0"  filling="0" d="M16.971670150756836 11.281583786010742 L16.396896362304688 11.515080451965332 L16.396896362304688 16.243968963623047 L16.971670150756836 16.498634338378906 L16.971670150756836 20.83180809020996 L14.384639739990234 21.881999969482422 L10.047359466552734 21.881999969482422 L7.460112571716309 20.832237243652344 L7.460112571716309 16.499065399169922 L8.035103797912598 16.244400024414062 L8.035103797912598 11.51529598236084 L7.460112571716309 11.282015800476074 L7.460112571716309 6.948624134063721 L10.135704040527344 5.802311897277832 C10.18941593170166 5.788847923278809 10.243128776550293 5.775384426116943 10.29684066772461 5.76192045211792 L10.29684066772461 5.001168251037598 C10.301088333129883 5.0005202293396 10.305336952209473 4.999872207641602 10.309584617614746 4.9992241859436035 L10.309584617614746 4.9992241859436035 C10.169778823852539 4.6857500076293945 14.2625093460083 4.693853378295898 14.122200012207031 4.9992241859436035 L14.122200012207031 4.9992241859436035 C14.126447677612305 4.999872207641602 14.130696296691895 5.0005202293396 14.134943962097168 5.001168251037598 L14.134943962097168 5.762136459350586 C14.188799858093262 5.775456428527832 14.242655754089355 5.788776397705078 14.29651165008545 5.802096366882324 L16.971670150756836 6.948408126831055 L16.971670150756836 11.281583786010742"></path>
<path fill="none" stroke="black" stroke-width=".3" stroke-opacity="1.0"  filling="0" d="M15.111478805541992 18.80615997314453 L9.320303916931152 18.80615997314453 L9.320303916931152 13.86451244354248 L9.320303916931152 8.92286491394043 L15.111478805541992 8.92286491394043 L15.111478805541992 13.86451244354248 L15.111478805541992 18.80615997314453"></path></svg>