<svg xmlns="http://www.w3.org/2000/svg" viewBox="0.0 0.0 24.0 24.0" height="200px" width="200px"><path fill="none" stroke="black" stroke-width=".3" stroke-opacity="1.0"  filling="0" d="M20.63373565673828 1.6320009231567383 L20.63373565673828 1.6320009231567383 C21.245210647583008 1.8852713108062744 21.78446388244629 2.424525260925293 22.037734985351562 3.0360002517700195 L22.037734985351562 8.940000534057617 L22.037734985351562 14.843999862670898 L22.037734985351562 20.74799919128418 C21.784465789794922 21.359474182128906 21.245210647583008 21.898727416992188 20.63373565673828 22.15199851989746 L14.873736381530762 22.152000427246094 L9.113737106323242 22.152000427246094 L3.3537368774414062 22.15199851989746 C2.7422616481781006 21.898727416992188 2.203007221221924 21.359474182128906 1.9497365951538086 20.74799919128418 L1.9497367143630981 14.843999862670898 L1.9497367143630981 8.940000534057617 L1.9497365951538086 3.0360002517700195 C2.203007459640503 2.424525260925293 2.7422616481781006 1.885271430015564 3.3537368774414062 1.6320009231567383 L9.113737106323242 1.6320009231567383 L14.873736381530762 1.6320009231567383 L20.63373565673828 1.6320009231567383"></path>
<path fill="none" stroke="black" stroke-width=".3" stroke-opacity="1.0"  filling="0" d="M19.675559997558594 2.712000846862793 L19.675559997558594 2.712000846862793 C20.27031898498535 2.9639813899993896 20.798677444458008 3.4738571643829346 21.06573486328125 4.062000274658203 L21.06573486328125 9.360336303710938 L21.06573486328125 14.658671379089355 L21.06573486328125 19.957006454467773 C20.798261642456055 20.540124893188477 20.26835060119629 21.042705535888672 19.675559997558594 21.28799819946289 L14.544984817504883 21.28799819946289 L9.414408683776855 21.28799819946289 L4.283832550048828 21.28799819946289 C3.6985254287719727 21.042238235473633 3.179126739501953 20.537294387817383 2.921736717224121 19.957006454467773 L2.921736717224121 14.658671379089355 L2.921736717224121 9.360336303710938 L2.921736717224121 4.062000274658203 C3.178739070892334 3.476684331893921 3.696549892425537 2.9644765853881836 4.283832550048828 2.712000846862793 L10.265520095825195 2.712000846862793 L10.265520095825195 4.368504524230957 C8.891865730285645 5.39799690246582 8.224246978759766 7.173030853271484 8.450067520141602 8.690691947937012 C8.675887107849121 10.208353042602539 9.795146942138672 11.468640327453613 11.995248794555664 11.468640327453613 C14.192137718200684 11.468640327453613 15.308453559875488 10.207600593566895 15.53320026397705 8.689563751220703 C15.757946968078613 7.171526908874512 15.091123580932617 5.396492958068848 13.721735954284668 4.368504524230957 L13.721735954284668 2.712000846862793 L19.675559997558594 2.712000846862793"></path>
<path fill="none" stroke="black" stroke-width=".3" stroke-opacity="1.0"  filling="0" d="M9.610391616821289 5.311776161193848 L9.610391616821289 5.311776161193848 C9.661367416381836 5.311776161193848 9.7123441696167 5.311776161193848 9.763319969177246 5.311776161193848 L10.372008323669434 5.920896530151367 C10.372008323669434 6.076164245605469 10.374147415161133 6.137562274932861 10.219079971313477 6.0736083984375 L9.610391616821289 5.464488506317139 C9.610391616821289 5.413584232330322 9.610391616821289 5.362680435180664 9.610391616821289 5.311776161193848 L9.610391616821289 5.311776161193848"></path>
<path fill="none" stroke="black" stroke-width=".3" stroke-opacity="1.0"  filling="0" d="M11.993736267089844 5.401632308959961 L11.993736267089844 5.401632308959961 C11.957736015319824 5.365632057189941 11.921736717224121 5.32963228225708 11.885736465454102 5.2936320304870605 L11.885736465454102 4.432872295379639 C11.93664836883545 4.381960868835449 12.050824165344238 4.381960868835449 12.101736068725586 4.432872295379639 L12.101736068725586 5.2936320304870605 C12.065735816955566 5.32963228225708 12.029736518859863 5.365632057189941 11.993736267089844 5.401632308959961 L11.993736267089844 5.401632308959961"></path>
<path fill="none" stroke="black" stroke-width=".3" stroke-opacity="1.0"  filling="0" d="M13.691712379455566 6.10536003112793 L13.691712379455566 6.10536003112793 C13.630290985107422 6.079956531524658 13.615464210510254 5.987579822540283 13.615464210510254 5.921112537384033 L14.224583625793457 5.312424182891846 C14.2965726852417 5.312424182891846 14.377296447753906 5.393146991729736 14.377296447753906 5.465136528015137 L13.76817512512207 6.073823928833008 C13.742687225341797 6.084335803985596 13.71720027923584 6.094848155975342 13.691712379455566 6.10536003112793 L13.691712379455566 6.10536003112793"></path>
<path fill="none" stroke="black" stroke-width=".3" stroke-opacity="1.0"  filling="0" d="M9.699816703796387 7.788000106811523 L9.699816703796387 7.788000106811523 C9.663816452026367 7.824000358581543 9.627817153930664 7.860000133514404 9.591816902160645 7.896000385284424 L8.731056213378906 7.896000385284424 C8.680144309997559 7.845088481903076 8.680144309997559 7.730912208557129 8.731056213378906 7.680000305175781 L9.591816902160645 7.680000305175781 C9.627817153930664 7.716000080108643 9.663816452026367 7.752000331878662 9.699816703796387 7.788000106811523 L9.699816703796387 7.788000106811523"></path>
<path fill="none" stroke="black" stroke-width=".3" stroke-opacity="1.0"  filling="0" d="M14.287440299987793 7.788000106811523 L14.287440299987793 7.788000106811523 C14.323440551757812 7.752000331878662 14.359439849853516 7.716000080108643 14.395440101623535 7.680000305175781 L15.256415367126465 7.680000305175781 C15.307327270507812 7.730912208557129 15.307327270507812 7.845088481903076 15.256415367126465 7.896000385284424 L14.395440101623535 7.896000385284424 C14.359439849853516 7.860000133514404 14.323440551757812 7.824000358581543 14.287440299987793 7.788000106811523 L14.287440299987793 7.788000106811523"></path>
<path fill="none" stroke="black" stroke-width=".3" stroke-opacity="1.0"  filling="0" d="M11.783783912658691 8.265144348144531 L11.783783912658691 8.265144348144531 C10.799878120422363 6.864421367645264 13.171483039855957 6.861392974853516 12.215784072875977 8.265144348144531 L12.215784072875977 10.920000076293945 L11.783783912658691 10.920000076293945 L11.783783912658691 8.265144348144531"></path>
<path fill="none" stroke="black" stroke-width=".3" stroke-opacity="1.0"  filling="0" d="M14.224151611328125 10.07911205291748 L13.615680694580078 9.469991683959961 C13.615680694580078 9.398002624511719 13.696402549743652 9.317279815673828 13.768391609191895 9.317279815673828 L14.377079963684082 9.926400184631348 C14.377079963684082 10.081670761108398 14.379218101501465 10.14306354522705 14.224151611328125 10.07911205291748 L14.224151611328125 10.07911205291748"></path>
<path fill="none" stroke="black" stroke-width=".3" stroke-opacity="1.0"  filling="0" d="M9.686424255371094 10.11021614074707 L9.686424255371094 10.11021614074707 C9.62500286102295 10.08481216430664 9.610177040100098 9.99243450164795 9.610177040100098 9.9259672164917 L10.2192964553833 9.317279815673828 C10.291285514831543 9.317279815673828 10.372008323669434 9.398002624511719 10.372008323669434 9.469991683959961 L9.762887954711914 10.078680038452148 C9.73740005493164 10.089192390441895 9.711912155151367 10.099703788757324 9.686424255371094 10.11021614074707 L9.686424255371094 10.11021614074707"></path>
<path fill="none" stroke="black" stroke-width=".3" stroke-opacity="1.0"  filling="0" d="M21.821735382080078 20.74799919128418 L21.821735382080078 20.74799919128418 C21.425735473632812 21.143999099731445 21.029735565185547 21.540000915527344 20.63373565673828 21.93600082397461 L14.873736381530762 21.93600082397461 L9.113737106323242 21.93600082397461 L3.3537368774414062 21.93600082397461 C2.9577367305755615 21.540000915527344 2.5617363452911377 21.143999099731445 2.165736198425293 20.74799919128418 L2.165736198425293 14.843999862670898 L2.165736198425293 8.940000534057617 L2.165736198425293 3.0360002517700195 C2.5617363452911377 2.640000343322754 2.9577367305755615 2.2440004348754883 3.3537368774414062 1.8480005264282227 L9.113737106323242 1.8480005264282227 L14.873736381530762 1.8480005264282227 L20.63373565673828 1.8480005264282227 C21.029735565185547 2.2440004348754883 21.425735473632812 2.640000343322754 21.821735382080078 3.0360002517700195 L21.821735382080078 8.940000534057617 L21.821735382080078 14.843999862670898 L21.821735382080078 20.74799919128418"></path></svg>