<svg xmlns="http://www.w3.org/2000/svg" viewBox="0.0 0.0 24.0 24.0" height="200px" width="200px"><path fill="none" stroke="black" stroke-width=".3" stroke-opacity="1.0"  filling="0" d="M11.046562194824219 1.596562385559082 L11.046562194824219 1.596562385559082 C13.189423561096191 1.6475759744644165 15.327728271484375 1.7412464618682861 17.467500686645508 1.8665618896484375 L17.526561737060547 3.638437271118164 C18.683332443237305 3.547297716140747 20.345272064208984 3.2418084144592285 21.12093734741211 4.456874847412109 C21.711711883544922 5.382312774658203 21.872825622558594 7.103795528411865 21.9094295501709 8.121313095092773 C21.950790405273438 9.271073341369629 21.97490882873535 10.94659423828125 21.696186065673828 12.5076904296875 C21.417465209960938 14.068784713745117 20.83590316772461 15.515454292297363 19.665908813476562 16.207509994506836 C18.701087951660156 16.7782039642334 17.750654220581055 16.51732063293457 16.733436584472656 16.421249389648438 L16.184999465942383 22.327499389648438 C14.501291275024414 22.6749324798584 12.73792552947998 22.849376678466797 10.979904174804688 22.822317123413086 C9.221881866455078 22.795259475708008 7.469204902648926 22.566699981689453 5.806874752044678 22.108125686645508 L5.483437538146973 16.80093765258789 L5.159999847412109 11.49375057220459 L4.836562156677246 6.186562538146973 L2.6765623092651367 2.102811813354492 L4.499062538146973 2.161874771118164 L4.667812347412109 1.8159379959106445 C6.793787956237793 1.7078992128372192 8.91810131072998 1.6313687562942505 11.046562194824219 1.596562385559082 L11.046562194824219 1.596562385559082"></path>
<path fill="none" stroke="black" stroke-width=".3" stroke-opacity="1.0"  filling="0" d="M11.046562194824219 1.8665618896484375 L11.046562194824219 1.8665618896484375 C13.138755798339844 1.9151109457015991 15.226448059082031 2.006497621536255 17.315624237060547 2.1281251907348633 L17.408435821533203 3.916874885559082 C18.42191505432129 3.837163209915161 20.19322395324707 3.459958553314209 20.884689331054688 4.591874599456787 C21.520103454589844 5.632035255432129 21.7244930267334 6.972695827484131 21.72313117980957 8.334711074829102 C21.72176742553711 9.69672679901123 21.514652252197266 11.080097198486328 21.327051162719727 12.20567798614502 C21.098289489746094 13.578211784362793 20.878253936767578 15.188194274902344 19.538774490356445 15.972746849060059 C18.609676361083984 16.51693344116211 17.622230529785156 16.22946548461914 16.649063110351562 16.125938415527344 L16.0078125 22.091251373291016 C14.39401626586914 22.431774139404297 12.686588287353516 22.594022750854492 10.983353614807129 22.563648223876953 C9.280119895935059 22.533273696899414 7.581080436706543 22.310277938842773 5.984062194824219 21.880313873291016 L5.691562652587891 16.623750686645508 L5.399062633514404 11.3671875 L5.106562614440918 6.11062479019165 L3.1321868896484375 2.3896875381469727 L4.726874828338623 2.4487504959106445 L4.794374942779541 2.0859375 C6.87816858291626 1.9779249429702759 8.960210800170898 1.9007411003112793 11.046562194824219 1.8665618896484375 L11.046562194824219 1.8665618896484375"></path>
<path fill="none" stroke="black" stroke-width=".3" stroke-opacity="1.0"  filling="0" d="M18.260623931884766 4.583437442779541 L18.260623931884766 4.583437442779541 C20.0711669921875 4.6269731521606445 20.749759674072266 5.696862697601318 20.927579879760742 7.08101224899292 C21.10540008544922 8.46516227722168 20.782447814941406 10.163572311401367 20.589902877807617 11.464151382446289 C20.496049880981445 12.098103523254395 20.29926109313965 14.397497177124023 19.500938415527344 14.759062767028809 C18.217754364013672 15.340226173400879 17.785995483398438 15.088964462280273 16.657499313354492 14.818124771118164 L16.931716918945312 9.877968788146973 L17.205936431884766 4.937812328338623 C17.557498931884766 4.819687366485596 17.909061431884766 4.701562404632568 18.260623931884766 4.583437442779541 L18.260623931884766 4.583437442779541"></path>
<path fill="none" stroke="black" stroke-width=".3" stroke-opacity="1.0"  filling="0" d="M18.302810668945312 4.84499979019165 L18.302810668945312 4.84499979019165 C18.945087432861328 4.8618083000183105 19.589279174804688 5.080885887145996 20.15062713623047 5.393437385559082 L20.159061431884766 5.401875019073486 C20.619815826416016 6.391635894775391 20.75516128540039 7.746254920959473 20.694988250732422 9.106358528137207 C20.634817123413086 10.466462135314941 20.379127502441406 11.832050323486328 20.057811737060547 12.84375 C19.87090301513672 13.432251930236816 19.803424835205078 14.149121284484863 19.33218765258789 14.548125267028809 C18.643766403198242 15.131023406982422 17.572986602783203 14.760841369628906 16.843124389648438 14.590312957763672 L17.121562957763672 9.869531631469727 L17.399999618530273 5.148749828338623 C17.700937271118164 5.047499656677246 18.001873016357422 4.946249961853027 18.302810668945312 4.84499979019165 L18.302810668945312 4.84499979019165"></path></svg>