<svg xmlns="http://www.w3.org/2000/svg" viewBox="0.0 0.0 24.0 24.0" height="200px" width="200px"><path fill="none" stroke="black" stroke-width=".3" stroke-opacity="1.0"  filling="0" d="M8.112000465393066 2.064000129699707 L12.107999801635742 2.064000129699707 L16.104000091552734 2.064000129699707 L16.104000091552734 8.616000175476074 L16.104000091552734 15.167999267578125 L16.104000091552734 21.719999313354492 L13.295999526977539 21.719999313354492 L13.295999526977539 19.992000579833984 L11.13599967956543 19.992000579833984 L11.13599967956543 21.719999313354492 L8.112000465393066 21.719999313354492 L8.112000465393066 15.167999267578125 L8.112000465393066 8.616000175476074 L8.112000465393066 2.064000129699707"></path>
<path fill="none" stroke="black" stroke-width=".3" stroke-opacity="1.0"  filling="0" d="M9.84000015258789 4.656000137329102 L9.192000389099121 4.656000137329102 L9.192000389099121 3.576000213623047 L9.84000015258789 3.576000213623047 L9.84000015258789 4.656000137329102"></path>
<path fill="none" stroke="black" stroke-width=".3" stroke-opacity="1.0"  filling="0" d="M12.215999603271484 4.656000137329102 L11.351999282836914 4.656000137329102 L11.351999282836914 3.576000213623047 L12.215999603271484 3.576000213623047 L12.215999603271484 4.656000137329102"></path>
<path fill="none" stroke="black" stroke-width=".3" stroke-opacity="1.0"  filling="0" d="M14.807999610900879 4.656000137329102 L13.727999687194824 4.656000137329102 L13.727999687194824 3.576000213623047 L14.807999610900879 3.576000213623047 L14.807999610900879 4.656000137329102"></path>
<path fill="none" stroke="black" stroke-width=".3" stroke-opacity="1.0"  filling="0" d="M9.84000015258789 5.952000141143799 L9.192000389099121 5.952000141143799 L9.192000389099121 4.872000694274902 L9.84000015258789 4.872000694274902 L9.84000015258789 5.952000141143799"></path>
<path fill="none" stroke="black" stroke-width=".3" stroke-opacity="1.0"  filling="0" d="M12.215999603271484 5.952000141143799 L11.351999282836914 5.952000141143799 L11.351999282836914 4.872000694274902 L12.215999603271484 4.872000694274902 L12.215999603271484 5.952000141143799"></path>
<path fill="none" stroke="black" stroke-width=".3" stroke-opacity="1.0"  filling="0" d="M14.807999610900879 5.952000141143799 L13.727999687194824 5.952000141143799 L13.727999687194824 4.872000694274902 L14.807999610900879 4.872000694274902 L14.807999610900879 5.952000141143799"></path>
<path fill="none" stroke="black" stroke-width=".3" stroke-opacity="1.0"  filling="0" d="M9.84000015258789 7.0320000648498535 L9.192000389099121 7.0320000648498535 L9.192000389099121 6.168000221252441 L9.84000015258789 6.168000221252441 L9.84000015258789 7.0320000648498535"></path>
<path fill="none" stroke="black" stroke-width=".3" stroke-opacity="1.0"  filling="0" d="M12.215999603271484 7.0320000648498535 L11.351999282836914 7.0320000648498535 L11.351999282836914 6.168000221252441 L12.215999603271484 6.168000221252441 L12.215999603271484 7.0320000648498535"></path>
<path fill="none" stroke="black" stroke-width=".3" stroke-opacity="1.0"  filling="0" d="M14.807999610900879 7.0320000648498535 L13.727999687194824 7.0320000648498535 L13.727999687194824 6.168000221252441 L14.807999610900879 6.168000221252441 L14.807999610900879 7.0320000648498535"></path>
<path fill="none" stroke="black" stroke-width=".3" stroke-opacity="1.0"  filling="0" d="M14.807999610900879 8.32800006866455 L13.727999687194824 8.32800006866455 L13.727999687194824 7.248000144958496 L14.807999610900879 7.248000144958496 L14.807999610900879 8.32800006866455"></path>
<path fill="none" stroke="black" stroke-width=".3" stroke-opacity="1.0"  filling="0" d="M9.84000015258789 9.407999992370605 L9.192000389099121 9.407999992370605 L9.192000389099121 8.543999671936035 L9.84000015258789 8.543999671936035 L9.84000015258789 9.407999992370605"></path>
<path fill="none" stroke="black" stroke-width=".3" stroke-opacity="1.0"  filling="0" d="M12.215999603271484 9.407999992370605 L11.351999282836914 9.407999992370605 L11.351999282836914 8.543999671936035 L12.215999603271484 8.543999671936035 L12.215999603271484 9.407999992370605"></path>
<path fill="none" stroke="black" stroke-width=".3" stroke-opacity="1.0"  filling="0" d="M12.215999603271484 10.704000473022461 L11.351999282836914 10.704000473022461 L11.351999282836914 9.624000549316406 L12.215999603271484 9.624000549316406 L12.215999603271484 10.704000473022461"></path>
<path fill="none" stroke="black" stroke-width=".3" stroke-opacity="1.0"  filling="0" d="M14.807999610900879 10.704000473022461 L13.727999687194824 10.704000473022461 L13.727999687194824 9.624000549316406 L14.807999610900879 9.624000549316406 L14.807999610900879 10.704000473022461"></path>
<path fill="none" stroke="black" stroke-width=".3" stroke-opacity="1.0"  filling="0" d="M9.84000015258789 11.784000396728516 L9.192000389099121 11.784000396728516 L9.192000389099121 10.920000076293945 L9.84000015258789 10.920000076293945 L9.84000015258789 11.784000396728516"></path>
<path fill="none" stroke="black" stroke-width=".3" stroke-opacity="1.0"  filling="0" d="M12.215999603271484 11.784000396728516 L11.351999282836914 11.784000396728516 L11.351999282836914 10.920000076293945 L12.215999603271484 10.920000076293945 L12.215999603271484 11.784000396728516"></path>
<path fill="none" stroke="black" stroke-width=".3" stroke-opacity="1.0"  filling="0" d="M9.84000015258789 12.86400032043457 L9.192000389099121 12.86400032043457 L9.192000389099121 12.0 L9.84000015258789 12.0 L9.84000015258789 12.86400032043457"></path>
<path fill="none" stroke="black" stroke-width=".3" stroke-opacity="1.0"  filling="0" d="M14.807999610900879 12.86400032043457 L13.727999687194824 12.86400032043457 L13.727999687194824 12.0 L14.807999610900879 12.0 L14.807999610900879 12.86400032043457"></path>
<path fill="none" stroke="black" stroke-width=".3" stroke-opacity="1.0"  filling="0" d="M12.215999603271484 14.15999984741211 L11.351999282836914 14.15999984741211 L11.351999282836914 13.079999923706055 L12.215999603271484 13.079999923706055 L12.215999603271484 14.15999984741211"></path>
<path fill="none" stroke="black" stroke-width=".3" stroke-opacity="1.0"  filling="0" d="M9.84000015258789 15.239999771118164 L9.192000389099121 15.239999771118164 L9.192000389099121 14.375999450683594 L9.84000015258789 14.375999450683594 L9.84000015258789 15.239999771118164"></path>
<path fill="none" stroke="black" stroke-width=".3" stroke-opacity="1.0"  filling="0" d="M14.807999610900879 15.239999771118164 L13.727999687194824 15.239999771118164 L13.727999687194824 14.375999450683594 L14.807999610900879 14.375999450683594 L14.807999610900879 15.239999771118164"></path>
<path fill="none" stroke="black" stroke-width=".3" stroke-opacity="1.0"  filling="0" d="M9.84000015258789 16.536001205444336 L9.192000389099121 16.536001205444336 L9.192000389099121 15.456000328063965 L9.84000015258789 15.456000328063965 L9.84000015258789 16.536001205444336"></path>
<path fill="none" stroke="black" stroke-width=".3" stroke-opacity="1.0"  filling="0" d="M12.215999603271484 16.536001205444336 L11.351999282836914 16.536001205444336 L11.351999282836914 15.456000328063965 L12.215999603271484 15.456000328063965 L12.215999603271484 16.536001205444336"></path>
<path fill="none" stroke="black" stroke-width=".3" stroke-opacity="1.0"  filling="0" d="M14.807999610900879 16.536001205444336 L13.727999687194824 16.536001205444336 L13.727999687194824 15.456000328063965 L14.807999610900879 15.456000328063965 L14.807999610900879 16.536001205444336"></path>
<path fill="none" stroke="black" stroke-width=".3" stroke-opacity="1.0"  filling="0" d="M9.84000015258789 17.615999221801758 L9.192000389099121 17.615999221801758 L9.192000389099121 16.751998901367188 L9.84000015258789 16.751998901367188 L9.84000015258789 17.615999221801758"></path>
<path fill="none" stroke="black" stroke-width=".3" stroke-opacity="1.0"  filling="0" d="M12.215999603271484 17.615999221801758 L11.351999282836914 17.615999221801758 L11.351999282836914 16.751998901367188 L12.215999603271484 16.751998901367188 L12.215999603271484 17.615999221801758"></path>
<path fill="none" stroke="black" stroke-width=".3" stroke-opacity="1.0"  filling="0" d="M14.807999610900879 17.615999221801758 L13.727999687194824 17.615999221801758 L13.727999687194824 16.751998901367188 L14.807999610900879 16.751998901367188 L14.807999610900879 17.615999221801758"></path>
<path fill="none" stroke="black" stroke-width=".3" stroke-opacity="1.0"  filling="0" d="M12.215999603271484 18.91200065612793 L11.351999282836914 18.91200065612793 L11.351999282836914 17.831998825073242 L12.215999603271484 17.831998825073242 L12.215999603271484 18.91200065612793"></path>
<path fill="none" stroke="black" stroke-width=".3" stroke-opacity="1.0"  filling="0" d="M14.807999610900879 18.91200065612793 L13.727999687194824 18.91200065612793 L13.727999687194824 17.831998825073242 L14.807999610900879 17.831998825073242 L14.807999610900879 18.91200065612793"></path></svg>