<svg xmlns="http://www.w3.org/2000/svg" viewBox="0.0 0.0 24.0 24.0" height="200px" width="200px"><path fill="none" stroke="black" stroke-width=".3" stroke-opacity="1.0"  filling="0" d="M9.431544303894043 4.224000930786133 L9.431544303894043 4.224000930786133 C10.27612018585205 4.316967010498047 11.1077299118042 4.509226322174072 11.935847282409668 4.699416160583496 L11.935847282409668 4.699416160583496 C12.760141372680664 4.500397205352783 13.591817855834961 4.3143720626831055 14.434967994689941 4.224000930786133 L14.437560081481934 4.224000930786133 C15.911558151245117 4.462672233581543 17.111568450927734 4.7811431884765625 18.320959091186523 4.950235843658447 C19.530351638793945 5.119328498840332 20.749122619628906 5.139042854309082 22.26064682006836 4.780200958251953 L22.276416778564453 6.842136383056641 C22.450944900512695 7.016664505004883 22.625471115112305 7.191192150115967 22.799999237060547 7.365720272064209 L22.799999237060547 13.387475967407227 L22.799999237060547 19.409231185913086 C22.625471115112305 19.583759307861328 22.450944900512695 19.75828742980957 22.276416778564453 19.932815551757812 L18.087312698364258 19.932815551757812 L13.898207664489746 19.932815551757812 C13.810943603515625 19.845623016357422 13.72368049621582 19.758432388305664 13.6364164352417 19.671239852905273 L13.112616539001465 19.932815551757812 L10.887167930603027 19.932815551757812 L10.3635835647583 19.671239852905273 C10.27631950378418 19.758432388305664 10.189056396484375 19.845623016357422 10.101792335510254 19.932815551757812 L5.912688255310059 19.932815551757812 L1.7235841751098633 19.932815551757812 C1.5490564107894897 19.75828742980957 1.3745285272598267 19.583759307861328 1.2000007629394531 19.409231185913086 L1.2000007629394531 13.387475967407227 L1.2000007629394531 7.365720272064209 C1.3361526727676392 7.195584297180176 1.4723047018051147 7.025447845458984 1.6084566116333008 6.855311870574951 L1.6084566116333008 4.780416011810303 C3.075101852416992 5.1342034339904785 4.31268835067749 5.12905740737915 5.54270601272583 4.9684858322143555 C6.772724151611328 4.807913780212402 7.995173454284668 4.491916656494141 9.431544303894043 4.224000930786133 L9.431544303894043 4.224000930786133"></path>
<path fill="none" stroke="black" stroke-width=".3" stroke-opacity="1.0"  filling="0" d="M14.434967994689941 4.224000930786133 L14.434967994689941 4.224000930786133 C14.117232322692871 4.258056640625 13.799495697021484 4.292112827301025 13.481760025024414 4.326168537139893 L13.481760025024414 4.326168537139893 C13.799495697021484 4.292112827301025 14.117232322692871 4.258056640625 14.434967994689941 4.224000930786133 L14.434967994689941 4.224000930786133"></path>
<path fill="none" stroke="black" stroke-width=".3" stroke-opacity="1.0"  filling="0" d="M10.265520095825195 4.315584659576416 L10.265520095825195 4.315584659576416 C9.987527847290039 4.2850565910339355 9.7095365524292 4.254528999328613 9.431544303894043 4.224000930786133 L9.431544303894043 4.224000930786133 C9.7095365524292 4.254528999328613 9.987527847290039 4.2850565910339355 10.265520095825195 4.315584659576416 L10.265520095825195 4.315584659576416"></path>
<path fill="none" stroke="black" stroke-width=".3" stroke-opacity="1.0"  filling="0" d="M11.656991004943848 5.042208671569824 L11.656991004943848 10.834897994995117 L11.656991004943848 16.627586364746094 C9.972312927246094 16.22575569152832 8.411677360534668 16.489864349365234 6.845575332641602 16.75515365600586 C5.279473304748535 17.020444869995117 3.707904815673828 17.286914825439453 2.0013599395751953 16.889808654785156 L2.0013599395751953 11.113320350646973 L2.0013599395751953 5.336832523345947 C3.7119784355163574 5.667840003967285 5.287707328796387 5.403565406799316 6.8548712730407715 5.151847839355469 C8.422035217285156 4.900130748748779 9.980633735656738 4.660970687866211 11.656991004943848 5.042208671569824 L11.656991004943848 5.042208671569824"></path>
<path fill="none" stroke="black" stroke-width=".3" stroke-opacity="1.0"  filling="0" d="M19.08501625061035 5.696688175201416 L19.08501625061035 5.696688175201416 C20.01729393005371 5.62058162689209 20.9476261138916 5.503725051879883 21.867958068847656 5.336616039276123 L21.867958068847656 11.112996101379395 L21.867958068847656 16.889375686645508 C20.15835952758789 17.279193878173828 18.584789276123047 17.01029396057129 17.018449783325195 16.74563980102539 C15.452110290527344 16.480985641479492 13.893001556396484 16.2205753326416 12.21232795715332 16.62736701965332 L12.21232795715332 10.834787368774414 L12.21232795715332 5.042208671569824 C12.934494972229004 4.875206470489502 13.663692474365234 4.725083351135254 14.401056289672852 4.6495208740234375 L14.406023979187012 4.6495208740234375 C15.990900039672852 4.944174766540527 17.496273040771484 5.417997360229492 19.08501625061035 5.696688175201416 L19.08501625061035 5.696688175201416"></path>
<path fill="none" stroke="black" stroke-width=".3" stroke-opacity="1.0"  filling="0" d="M20.836341857910156 6.982320308685303 L20.836341857910156 6.982320308685303 C19.449085235595703 7.162837028503418 18.1688232421875 6.900928497314453 16.8936767578125 6.635502338409424 C15.618531227111816 6.370075702667236 14.348503112792969 6.101131439208984 12.981719017028809 6.267576217651367 L12.981719017028809 5.70079231262207 C14.348472595214844 5.5341362953186035 15.61850643157959 5.803059101104736 16.89366340637207 6.0685272216796875 C18.168819427490234 6.333995819091797 19.449100494384766 6.596009731292725 20.836341857910156 6.415536403656006 L20.836341857910156 6.982320308685303"></path>
<path fill="none" stroke="black" stroke-width=".3" stroke-opacity="1.0"  filling="0" d="M4.472616195678711 7.140648365020752 L4.472616195678711 6.572568416595459 C6.690465927124023 6.610195636749268 8.483224868774414 5.423367023468018 10.756272315979004 5.700576305389404 L10.756272315979004 6.267359733581543 C8.483009338378906 5.990481376647949 6.69127082824707 7.173058986663818 4.472616195678711 7.140648365020752 L4.472616195678711 7.140648365020752"></path>
<path fill="none" stroke="black" stroke-width=".3" stroke-opacity="1.0"  filling="0" d="M2.901865005493164 8.291496276855469 L2.901865005493164 7.724712371826172 C4.289020538330078 7.905023574829102 5.569277763366699 7.6430535316467285 6.844418525695801 7.377620697021484 C8.119559288024902 7.11218786239624 9.389583587646484 6.843292236328125 10.756272315979004 7.009751796722412 L10.756272315979004 7.576752185821533 C9.389556884765625 7.410074234008789 8.11955738067627 7.67900276184082 6.8444366455078125 7.944478988647461 C5.569314956665039 8.209955215454102 4.289071083068848 8.471981048583984 2.901865005493164 8.291496276855469 L2.901865005493164 8.291496276855469"></path>
<path fill="none" stroke="black" stroke-width=".3" stroke-opacity="1.0"  filling="0" d="M20.836341857910156 8.291496276855469 L20.836341857910156 8.291496276855469 C19.44910430908203 8.471845626831055 18.16881561279297 8.209832191467285 16.893653869628906 7.944395542144775 C15.618491172790527 7.678958892822266 14.348455429077148 7.410098075866699 12.981719017028809 7.576752185821533 L12.981719017028809 7.009751796722412 C14.3484468460083 6.843313694000244 15.61850643157959 7.112204074859619 16.8936824798584 7.377628803253174 C18.16885757446289 7.6430535316467285 19.44915008544922 7.905012607574463 20.836341857910156 7.724712371826172 L20.836341857910156 8.291496276855469"></path>
<path fill="none" stroke="black" stroke-width=".3" stroke-opacity="1.0"  filling="0" d="M14.356344223022461 9.460488319396973 L14.356344223022461 9.460488319396973 C16.631153106689453 9.893081665039062 18.496610641479492 10.646954536437988 20.836341857910156 10.34284782409668 L20.836341857910156 10.909631729125977 C18.496543884277344 11.214213371276855 16.63119125366211 10.459976196289062 14.356344223022461 10.027273178100586 L14.356344223022461 9.460488319396973"></path>
<path fill="none" stroke="black" stroke-width=".3" stroke-opacity="1.0"  filling="0" d="M2.901865005493164 9.600455284118652 L2.901865005493164 9.033672332763672 C4.28902006149292 9.213983535766602 5.569277286529541 8.95201301574707 6.844418048858643 8.686580657958984 C8.119558334350586 8.421147346496582 9.389583587646484 8.152252197265625 10.756272315979004 8.31871223449707 L10.756272315979004 8.885712623596191 C9.389556884765625 8.719034194946289 8.119558334350586 8.98796272277832 6.8444366455078125 9.253438949584961 C5.569315433502197 9.518916130065918 4.289071559906006 9.780941009521484 2.901865005493164 9.600455284118652 L2.901865005493164 9.600455284118652"></path>
<path fill="none" stroke="black" stroke-width=".3" stroke-opacity="1.0"  filling="0" d="M20.836341857910156 9.600455284118652 L20.836341857910156 9.600455284118652 C19.449100494384766 9.780929565429688 18.168819427490234 9.518916130065918 16.89366340637207 9.253447532653809 C15.61850643157959 8.9879789352417 14.348471641540527 8.71905517578125 12.981719017028809 8.885712623596191 L12.981719017028809 8.31871223449707 C14.348447799682617 8.152273178100586 15.61850643157959 8.421163558959961 16.8936824798584 8.686588287353516 C18.16885757446289 8.95201301574707 19.44915008544922 9.213972091674805 20.836341857910156 9.033672332763672 L20.836341857910156 9.600455284118652"></path>
<path fill="none" stroke="black" stroke-width=".3" stroke-opacity="1.0"  filling="0" d="M2.901865005493164 10.909631729125977 L2.901865005493164 10.34284782409668 C4.289020538330078 10.52315902709961 5.569277763366699 10.261189460754395 6.844418048858643 9.995756149291992 C8.119559288024902 9.730323791503906 9.389583587646484 9.46142864227295 10.756272315979004 9.627888679504395 L10.756272315979004 10.1948881149292 C9.389556884765625 10.02821159362793 8.119558334350586 10.297139167785645 6.8444366455078125 10.562615394592285 C5.569314956665039 10.828091621398926 4.289071083068848 11.090116500854492 2.901865005493164 10.909631729125977 L2.901865005493164 10.909631729125977"></path>
<path fill="none" stroke="black" stroke-width=".3" stroke-opacity="1.0"  filling="0" d="M2.901865005493164 12.218591690063477 L2.901865005493164 11.652024269104004 C4.289066791534424 11.832508087158203 5.569300174713135 11.570535659790039 6.844417572021484 11.305058479309082 C8.119534492492676 11.039581298828125 9.389535903930664 10.770599365234375 10.756272315979004 10.937064170837402 L10.756272315979004 11.504063606262207 C9.389577865600586 11.33738899230957 8.1195650100708 11.606261253356934 6.8444318771362305 11.871682167053223 C5.56929874420166 12.137103080749512 4.289044380187988 12.399072647094727 2.901865005493164 12.218591690063477 L2.901865005493164 12.218591690063477"></path>
<path fill="none" stroke="black" stroke-width=".3" stroke-opacity="1.0"  filling="0" d="M20.836341857910156 12.218591690063477 L20.836341857910156 12.218591690063477 C19.449146270751953 12.398893356323242 18.16884422302246 12.136882781982422 16.89366340637207 11.871459007263184 C15.61848258972168 11.606035232543945 14.348424911499023 11.337198257446289 12.981719017028809 11.5038480758667 L12.981719017028809 10.936847686767578 C14.348493576049805 10.770404815673828 15.6185302734375 11.03938102722168 16.8936824798584 11.304850578308105 C18.168834686279297 11.570320129394531 19.44910430908203 11.832282066345215 20.836341857910156 11.65180778503418 L20.836341857910156 12.218591690063477"></path>
<path fill="none" stroke="black" stroke-width=".3" stroke-opacity="1.0"  filling="0" d="M8.007240295410156 12.335016250610352 L8.007240295410156 12.902015686035156 C6.1830902099609375 13.464811325073242 4.790161609649658 13.773231506347656 2.901865005493164 13.527551651000977 L2.901865005493164 12.960984230041504 C4.790338516235352 13.20668888092041 6.183034896850586 12.898335456848145 8.007240295410156 12.335016250610352 L8.007240295410156 12.335016250610352"></path>
<path fill="none" stroke="black" stroke-width=".3" stroke-opacity="1.0"  filling="0" d="M20.836341857910156 13.527551651000977 L20.836341857910156 13.527551651000977 C19.449111938476562 13.7080659866333 18.168838500976562 13.446212768554688 16.893680572509766 13.180841445922852 C15.618523597717285 12.915470123291016 14.348482131958008 12.646580696105957 12.981719017028809 12.813024520874023 L12.981719017028809 12.246024131774902 C14.348493576049805 12.079580307006836 15.6185302734375 12.348556518554688 16.8936824798584 12.61402702331543 C18.168834686279297 12.879496574401855 19.44910430908203 13.141458511352539 20.836341857910156 12.960984230041504 L20.836341857910156 13.527551651000977"></path>
<path fill="none" stroke="black" stroke-width=".3" stroke-opacity="1.0"  filling="0" d="M2.901865005493164 14.8367280960083 L2.901865005493164 14.270159721374512 C4.289093494415283 14.450647354125977 5.569316864013672 14.188618659973145 6.844422340393066 13.923086166381836 C8.119527816772461 13.657552719116211 9.389514923095703 13.38851547241211 10.756272315979004 13.554984092712402 L10.756272315979004 14.121984481811523 C9.389555931091309 13.955520629882812 8.11954116821289 14.224446296691895 6.844412803649902 14.4898681640625 C5.569283485412598 14.755289077758789 4.2890400886535645 15.017207145690918 2.901865005493164 14.8367280960083 L2.901865005493164 14.8367280960083"></path>
<path fill="none" stroke="black" stroke-width=".3" stroke-opacity="1.0"  filling="0" d="M20.836341857910156 14.8367280960083 L20.836341857910156 14.8367280960083 C19.449134826660156 15.017071723937988 18.168846130371094 14.755166053771973 16.8936767578125 14.489784240722656 C15.61850643157959 14.22440242767334 14.348455429077148 13.955545425415039 12.981719017028809 14.121984481811523 L12.981719017028809 13.554984092712402 C14.348514556884766 13.388537406921387 15.618536949157715 13.657569885253906 16.8936767578125 13.923093795776367 C18.1688175201416 14.188618659973145 19.44907569885254 14.45063591003418 20.836341857910156 14.270159721374512 L20.836341857910156 14.8367280960083"></path>
<path fill="none" stroke="black" stroke-width=".3" stroke-opacity="1.0"  filling="0" d="M17.170825958251953 15.966407775878906 L17.170825958251953 15.966407775878906 C15.60368537902832 15.482597351074219 14.609554290771484 15.232707977294922 12.981719017028809 15.430944442749023 L12.981719017028809 14.863943099975586 C14.610013008117676 14.665653228759766 15.603440284729004 14.915082931518555 17.170825958251953 15.399839401245117 L17.170825958251953 15.966407775878906"></path>
<path fill="none" stroke="black" stroke-width=".3" stroke-opacity="1.0"  filling="0" d="M2.901865005493164 16.145687103271484 L2.901865005493164 15.57933521270752 C4.289093494415283 15.7598237991333 5.569316864013672 15.497796058654785 6.844421863555908 15.232263565063477 C8.119527816772461 14.966730117797852 9.389514923095703 14.697691917419434 10.756272315979004 14.86415958404541 L10.756272315979004 15.430944442749023 C9.389554977416992 15.264480590820312 8.11954116821289 15.533409118652344 6.844412803649902 15.79883098602295 C5.569283962249756 16.064252853393555 4.289040565490723 16.326171875 2.901865005493164 16.145687103271484 L2.901865005493164 16.145687103271484"></path>
<path fill="none" stroke="black" stroke-width=".3" stroke-opacity="1.0"  filling="0" d="M11.656991004943848 17.035823822021484 L11.656991004943848 17.4129581451416 C9.972311019897461 17.011131286621094 8.411675453186035 17.275243759155273 6.845574378967285 17.54053497314453 C5.279472351074219 17.805824279785156 3.707904815673828 18.072294235229492 2.0013599395751953 17.675182342529297 L2.0013599395751953 17.295454025268555 C3.7139177322387695 17.6585636138916 5.289987564086914 17.392541885375977 6.856837272644043 17.13629913330078 C8.423686981201172 16.88005828857422 9.981315612792969 16.633594512939453 11.656991004943848 17.035823822021484 L11.656991004943848 17.035823822021484"></path>
<path fill="none" stroke="black" stroke-width=".3" stroke-opacity="1.0"  filling="0" d="M21.867958068847656 17.292861938476562 L21.867958068847656 17.675182342529297 C20.158367156982422 18.064807891845703 18.584781646728516 17.795860290527344 17.0184326171875 17.531200408935547 C15.452083587646484 17.266542434692383 13.892971992492676 17.00617218017578 12.21232795715332 17.4129581451416 L12.21232795715332 17.033231735229492 C13.882726669311523 16.62581443786621 15.44074535369873 16.870880126953125 17.009109497070312 17.12771987915039 C18.577472686767578 17.384559631347656 20.15618133544922 17.653175354003906 21.867958068847656 17.292861938476562 L21.867958068847656 17.292861938476562"></path>
<path fill="none" stroke="black" stroke-width=".3" stroke-opacity="1.0"  filling="0" d="M11.656991004943848 17.821414947509766 L11.656991004943848 18.198551177978516 C9.972404479980469 17.79674530029297 8.411728858947754 18.060707092285156 6.845583438873291 18.325916290283203 C5.279438018798828 18.591127395629883 3.7078235149383545 18.857585906982422 2.0013599395751953 18.460777282714844 L2.0013599395751953 18.08104705810547 C3.7158701419830322 18.444368362426758 5.291110038757324 18.17814826965332 6.857056617736816 17.9217529296875 C8.423003196716309 17.665359497070312 9.979656219482422 17.418790817260742 11.656991004943848 17.821414947509766 L11.656991004943848 17.821414947509766"></path>
<path fill="none" stroke="black" stroke-width=".3" stroke-opacity="1.0"  filling="0" d="M21.867958068847656 18.07802391052246 L21.867958068847656 18.460559844970703 C20.15845489501953 18.84988784790039 18.584819793701172 18.580949783325195 17.01842498779297 18.31637191772461 C15.452031135559082 18.05179214477539 13.892875671386719 17.79157257080078 12.21232795715332 18.198335647583008 L12.21232795715332 17.818607330322266 C13.884754180908203 17.410696029663086 15.441990852355957 17.65598487854004 17.009456634521484 17.913034439086914 C18.576923370361328 18.17008399963379 20.154617309570312 18.438892364501953 21.867958068847656 18.07802391052246 L21.867958068847656 18.07802391052246"></path></svg>