<svg xmlns="http://www.w3.org/2000/svg" viewBox="0.0 0.0 24.0 24.0" height="200px" width="200px"><path fill="none" stroke="black" stroke-width=".3" stroke-opacity="1.0"  filling="0" d="M11.999567985534668 4.227888107299805 L11.999567985534668 4.227888107299805 C13.499259948730469 4.400615692138672 14.894843101501465 4.771694183349609 16.090526580810547 5.458310127258301 C17.286209106445312 6.144926071166992 18.281993865966797 7.1470794677734375 18.982088088989258 8.58195686340332 C19.808212280273438 10.275136947631836 19.935806274414062 12.082880973815918 19.529415130615234 13.740681648254395 C19.123022079467773 15.398483276367188 18.182641983032227 16.906341552734375 16.872819900512695 17.99974822998047 C15.562997817993164 19.093156814575195 13.883731842041016 19.772113800048828 11.999567985534668 19.772113800048828 C10.115374565124512 19.772113800048828 8.436246871948242 19.093122482299805 7.1265974044799805 17.999679565429688 C5.816947937011719 16.906238555908203 4.876777648925781 15.398345947265625 4.4704976081848145 13.740545272827148 C4.064217567443848 12.082744598388672 4.191828727722168 10.275033950805664 5.01774263381958 8.58195686340332 C5.717703819274902 7.147075653076172 6.713341236114502 6.144921779632568 7.908897399902344 5.458306312561035 C9.104454040527344 4.771690845489502 10.499929428100586 4.400614261627197 11.999567985534668 4.227888107299805 L11.999567985534668 4.227888107299805"></path>
<path fill="none" stroke="black" stroke-width=".3" stroke-opacity="1.0"  filling="0" d="M13.294703483581543 4.227888107299805 L13.294703483581543 9.418583869934082 L18.476543426513672 9.418583869934082 L18.476543426513672 14.595348358154297 L18.476543426513672 19.772113800048828 L11.99989128112793 19.772113800048828 L5.523240089416504 19.772113800048828 L5.523240089416504 14.590705871582031 L5.523240089416504 9.409296989440918 L5.523240089416504 4.227888107299805 L9.408971786499023 4.227888107299805 L13.294703483581543 4.227888107299805"></path>
<path fill="none" stroke="black" stroke-width=".3" stroke-opacity="1.0"  filling="0" d="M14.59113597869873 4.227888107299805 L18.476543426513672 8.123880386352539 L14.59113597869873 8.123880386352539 L14.59113597869873 4.227888107299805"></path>
<path fill="none" stroke="black" stroke-width=".3" stroke-opacity="1.0"  filling="0" d="M15.074111938476562 4.439568996429443 L15.88087272644043 4.439568996429443 L15.88087272644043 9.547249794006348 L15.88087272644043 14.654930114746094 L15.88087272644043 19.762609481811523 L14.268647193908691 19.762609481811523 L14.268647193908691 12.805679321289062 L13.461455345153809 12.604368209838867 L13.461455345153809 8.521968841552734 L13.461455345153809 4.439568996429443 L15.074111938476562 4.439568996429443"></path>
<path fill="none" stroke="black" stroke-width=".3" stroke-opacity="1.0"  filling="0" d="M10.78715991973877 8.549832344055176 L10.78715991973877 4.237608432769775 L11.54575252532959 4.237608432769775 L11.54575252532959 10.286040306091309 L10.639847755432129 10.807464599609375 L10.639847755432129 15.28503704071045 L10.639847755432129 19.762609481811523 L9.026544570922852 19.762609481811523 L9.026544570922852 15.28503704071045 L9.026544570922852 10.807464599609375 L8.119128227233887 10.286040306091309 L8.119128227233887 4.237608432769775 L8.792832374572754 4.237608432769775 L8.792832374572754 8.549832344055176 L9.480575561523438 8.549832344055176 L9.480575561523438 4.237608432769775 L10.194671630859375 4.237608432769775 L10.194671630859375 8.549832344055176 L10.78715991973877 8.549832344055176"></path>
<path fill="none" stroke="black" stroke-width=".3" stroke-opacity="1.0"  filling="0" d="M5.785032272338867 9.257448196411133 L12.417851448059082 9.257448196411133 L19.050670623779297 9.257448196411133 L19.050670623779297 11.602992057800293 L12.417851448059082 11.602992057800293 L5.785032272338867 11.602992057800293 L5.785032272338867 9.257448196411133"></path>
<path fill="none" stroke="black" stroke-width=".3" stroke-opacity="1.0"  filling="0" d="M6.818808078765869 12.0 L6.818808078765869 12.0 C6.937021732330322 11.118193626403809 7.168163776397705 10.243206977844238 7.5110883712768555 9.422256469726562 L11.044416427612305 12.955476760864258 L14.577743530273438 16.488697052001953 C12.613861083984375 17.308883666992188 10.8397798538208 17.21127700805664 9.473843574523926 16.396339416503906 C8.107906341552734 15.581402778625488 7.150114059448242 14.049135208129883 6.818808078765869 12.0 L6.818808078765869 12.0"></path>
<path fill="none" stroke="black" stroke-width=".3" stroke-opacity="1.0"  filling="0" d="M17.18097496032715 12.0 L17.18097496032715 12.0 C17.052034378051758 12.91777229309082 16.800251007080078 13.827714920043945 16.42799949645996 14.6764554977417 L12.875663757324219 11.124011993408203 L9.323328971862793 7.571568012237549 C11.294914245605469 6.706974983215332 13.09124755859375 6.774614334106445 14.478723526000977 7.578136444091797 C15.866199493408203 8.381658554077148 16.844818115234375 9.921062469482422 17.18097496032715 12.0 L17.18097496032715 12.0"></path>
<path fill="none" stroke="black" stroke-width=".3" stroke-opacity="1.0"  filling="0" d="M6.293496131896973 14.896775245666504 L7.97052001953125 16.53664779663086 L4.931400299072266 17.915374755859375 L6.293496131896973 14.896775245666504"></path>
<path fill="none" stroke="black" stroke-width=".3" stroke-opacity="1.0"  filling="0" d="M19.29151153564453 17.985790252685547 L12.627912521362305 17.986114501953125 L5.964312553405762 17.986438751220703 L8.760432243347168 16.69130516052246 L9.849720001220703 15.640896797180176 L14.570832252502441 15.640680313110352 L19.29194450378418 15.640463829040527 L19.29151153564453 17.985790252685547"></path></svg>