<svg xmlns="http://www.w3.org/2000/svg" viewBox="0.0 0.0 24.0 24.0" height="200px" width="200px"><path fill="none" stroke="black" stroke-width=".3" stroke-opacity="1.0"  filling="0" d="M11.818732261657715 3.5422496795654297 L11.818732261657715 3.5422496795654297 C13.771976470947266 3.9381532669067383 15.367749214172363 4.423128128051758 16.210126876831055 6.463024139404297 C16.849491119384766 8.011302947998047 16.596187591552734 9.670608520507812 15.760769844055176 10.942846298217773 C14.925353050231934 12.215083122253418 13.507822036743164 13.100250244140625 11.818732261657715 13.100250244140625 C10.130460739135742 13.100250244140625 8.708000183105469 12.216375350952148 7.868489742279053 10.944784164428711 C7.028979778289795 9.673192977905273 6.7724199295043945 8.013887405395508 7.41594934463501 6.463024139404297 C8.26234245300293 4.423275470733643 9.86417293548584 3.9379701614379883 11.818732261657715 3.5422496795654297 L11.818732261657715 3.5422496795654297"></path>
<path fill="none" stroke="black" stroke-width=".3" stroke-opacity="1.0"  filling="0" d="M13.317232131958008 7.551750183105469 L13.317232131958008 7.551750183105469 C13.218233108520508 9.783750534057617 13.218233108520508 9.783750534057617 13.317232131958008 7.551750183105469 L13.317232131958008 7.551750183105469"></path>
<path fill="none" stroke="black" stroke-width=".3" stroke-opacity="1.0"  filling="0" d="M11.784982681274414 10.305749893188477 L11.784982681274414 10.305749893188477 C12.414133071899414 10.305749893188477 13.0062837600708 10.587964057922363 13.57373332977295 10.82550048828125 L13.479233741760254 11.01449966430664 C12.23459529876709 10.504648208618164 11.458880424499512 10.491713523864746 10.21223258972168 11.01449966430664 L10.117733001708984 10.82550048828125 C10.653080940246582 10.596861839294434 11.218725204467773 10.440752029418945 11.784982681274414 10.305749893188477 L11.784982681274414 10.305749893188477"></path>
<path fill="none" stroke="black" stroke-width=".3" stroke-opacity="1.0"  filling="0" d="M6.7244110107421875 13.73475456237793 L11.811983108520508 13.73475456237793 L16.899555206298828 13.73475456237793 C17.322917938232422 14.158117294311523 17.746280670166016 14.581480979919434 18.16964340209961 15.004843711853027 L18.16964340209961 20.633647918701172 L11.811983108520508 20.633647918701172 L5.45432186126709 20.633647918701172 L5.45432186126709 15.004843711853027 C5.877685070037842 14.581480979919434 6.3010478019714355 14.158117294311523 6.7244110107421875 13.73475456237793 L6.7244110107421875 13.73475456237793"></path>
<path fill="none" stroke="black" stroke-width=".3" stroke-opacity="1.0"  filling="0" d="M2.8131141662597656 14.052276611328125 L4.083203315734863 14.052276611328125 C4.400725841522217 14.36979866027832 4.718247890472412 14.687321662902832 5.035770416259766 15.004843711853027 L5.035770416259766 20.633647918701172 L1.8605470657348633 20.633647918701172 L1.8605470657348633 15.004843711853027 C2.1780693531036377 14.687321662902832 2.495591878890991 14.36979866027832 2.8131141662597656 14.052276611328125 L2.8131141662597656 14.052276611328125"></path>
<path fill="none" stroke="black" stroke-width=".3" stroke-opacity="1.0"  filling="0" d="M19.540761947631836 14.052276611328125 L20.81085205078125 14.052276611328125 C21.128374099731445 14.36979866027832 21.445894241333008 14.687321662902832 21.763416290283203 15.004843711853027 L21.763416290283203 20.633647918701172 L18.58819580078125 20.633647918701172 L18.58819580078125 15.004843711853027 C18.905717849731445 14.687321662902832 19.22323989868164 14.36979866027832 19.540761947631836 14.052276611328125 L19.540761947631836 14.052276611328125"></path></svg>