<svg xmlns="http://www.w3.org/2000/svg" viewBox="0.0 0.0 24.0 24.0" height="200px" width="200px"><path fill="none" stroke="black" stroke-width=".3" stroke-opacity="1.0"  filling="0" d="M5.6580986976623535 1.3478240966796875 L5.6580986976623535 1.3478240966796875 C6.8877997398376465 1.7536247968673706 7.321352958679199 1.7362301349639893 7.818099021911621 2.859823226928711 L7.818099021911621 3.939824104309082 L6.954099178314209 3.939824104309082 L6.954099178314209 2.8868227005004883 C6.309896469116211 1.9563237428665161 5.260505676269531 2.150120735168457 4.578098773956299 2.859823226928711 L4.578098773956299 6.747823715209961 C4.65009880065918 6.819823741912842 4.722098350524902 6.8918232917785645 4.794098377227783 6.963823318481445 L4.794098377227783 9.123823165893555 L3.4980993270874023 9.123823165893555 L3.4980993270874023 6.963823318481445 C3.5700995922088623 6.8918232917785645 3.642099618911743 6.819823741912842 3.714099884033203 6.747823715209961 L3.714099884033203 2.859823226928711 C4.163350582122803 2.1727330684661865 4.887083053588867 1.6297005414962769 5.6580986976623535 1.3478240966796875 L5.6580986976623535 1.3478240966796875"></path>
<path fill="none" stroke="black" stroke-width=".3" stroke-opacity="1.0"  filling="0" d="M5.472527980804443 8.538619995117188 L5.261971473693848 8.538619995117188 L5.226876735687256 7.752040863037109 L4.630300045013428 7.752040863037109 L4.630300045013428 7.489847660064697 L5.226876735687256 7.489847660064697 L5.261971473693848 6.740723609924316 L5.472527980804443 6.740723609924316 L5.472527980804443 8.538619995117188"></path>
<path fill="none" stroke="black" stroke-width=".3" stroke-opacity="1.0"  filling="0" d="M3.427499771118164 9.013124465942383 L8.436562538146973 9.013124465942383 L13.445625305175781 9.013124465942383 L18.454687118530273 9.013124465942383 C19.123184204101562 9.290870666503906 19.712566375732422 9.88025188446045 19.990310668945312 10.548749923706055 L19.990310668945312 13.333125114440918 C19.712722778320312 14.003843307495117 19.12409782409668 14.59645938873291 18.454687118530273 14.87718677520752 L13.445625305175781 14.877187728881836 L8.436562538146973 14.877187728881836 L3.427499771118164 14.87718677520752 C2.7580888271331787 14.59645938873291 2.1694633960723877 14.003843307495117 1.8918743133544922 13.333125114440918 L1.8918743133544922 10.548749923706055 C2.1696200370788574 9.88025188446045 2.7590017318725586 9.290870666503906 3.427499771118164 9.013124465942383 L3.427499771118164 9.013124465942383"></path>
<path fill="none" stroke="black" stroke-width=".3" stroke-opacity="1.0"  filling="0" d="M3.427499771118164 9.873749732971191 L8.436562538146973 9.873749732971191 L13.445625305175781 9.873749732971191 L18.454687118530273 9.873749732971191 C18.6796875 10.098750114440918 18.904687881469727 10.323749542236328 19.129688262939453 10.548749923706055 L19.129688262939453 13.333125114440918 C18.904687881469727 13.558125495910645 18.6796875 13.783124923706055 18.454687118530273 14.008125305175781 L13.445625305175781 14.008126258850098 L8.436562538146973 14.008126258850098 L3.427499771118164 14.008125305175781 C3.2024996280670166 13.783124923706055 2.9774997234344482 13.558125495910645 2.752499580383301 13.333125114440918 L2.752499580383301 10.548749923706055 C2.9774997234344482 10.323749542236328 3.2024996280670166 10.098750114440918 3.427499771118164 9.873749732971191 L3.427499771118164 9.873749732971191"></path>
<path fill="none" stroke="black" stroke-width=".3" stroke-opacity="1.0"  filling="0" d="M10.270312309265137 14.438437461853027 L11.569687843322754 14.438437461853027 L11.569687843322754 20.302499771118164 C11.033994674682617 21.635038375854492 9.698850631713867 23.838890075683594 7.924687385559082 21.981563568115234 C7.508022785186768 21.545368194580078 7.474687099456787 20.8621883392334 7.249687194824219 20.302499771118164 L7.249687194824219 18.142499923706055 C7.220126152038574 17.939794540405273 7.023382663726807 17.7222957611084 6.8193745613098145 17.703750610351562 L2.2799997329711914 17.703750610351562 L2.2799997329711914 16.412813186645508 L6.8193745613098145 16.412813186645508 C7.176562309265137 16.49156379699707 7.632935047149658 16.389795303344727 7.890937328338623 16.649063110351562 C8.273870468139648 17.033872604370117 8.32406234741211 17.64468765258789 8.540624618530273 18.142499923706055 L8.540624618530273 20.302499771118164 C9.000632286071777 21.52918243408203 9.819514274597168 21.542192459106445 10.270312309265137 20.302499771118164 L10.270312309265137 14.438437461853027"></path></svg>